<svg xmlns="http://www.w3.org/2000/svg" xmlns:xlink="http://www.w3.org/1999/xlink" width="362.83" height="169.49" viewBox="0 0 362.83 169.49">
  <defs>
    <style>
      .cls-1 {
        fill: #fef0e8;
      }

      .cls-2 {
        font-size: 11.5px;
        font-family: Courier;
      }

      .cls-25, .cls-3 {
        font-size: 7px;
      }

      .cls-4 {
        fill: #fda452;
      }

      .cls-23, .cls-24, .cls-27, .cls-34, .cls-35, .cls-4, .cls-8 {
        stroke: #000;
      }

      .cls-34, .cls-4, .cls-9 {
        stroke-width: 0.3px;
      }

      .cls-5 {
        fill: #fbafc5;
      }

      .cls-5, .cls-6, .cls-7 {
        fill-rule: evenodd;
      }

      .cls-6 {
        fill: #96c749;
      }

      .cls-7 {
        fill: #28708e;
      }

      .cls-16, .cls-17, .cls-24, .cls-27, .cls-33, .cls-34, .cls-35, .cls-8 {
        fill: none;
      }

      .cls-17, .cls-23, .cls-24, .cls-27, .cls-33, .cls-8, .cls-9 {
        stroke-linejoin: round;
      }

      .cls-8 {
        stroke-width: 0.75px;
      }

      .cls-9 {
        fill: #267520;
        stroke: #267520;
      }

      .cls-10 {
        fill: url(#linear-gradient);
      }

      .cls-11 {
        fill: url(#linear-gradient-2);
      }

      .cls-12 {
        fill: #fff;
      }

      .cls-13 {
        font-size: 3.67px;
      }

      .cls-13, .cls-25, .cls-26 {
        font-family: ArialMT, Arial;
      }

      .cls-14 {
        fill: url(#linear-gradient-3);
      }

      .cls-15 {
        fill: url(#linear-gradient-4);
      }

      .cls-16 {
        stroke: #4d4d4d;
      }

      .cls-16, .cls-23, .cls-24, .cls-33, .cls-35 {
        stroke-width: 0.5px;
      }

      .cls-17 {
        stroke: #e60001;
      }

      .cls-18 {
        fill: url(#linear-gradient-5);
      }

      .cls-19 {
        fill: url(#linear-gradient-6);
      }

      .cls-20 {
        fill: url(#linear-gradient-7);
      }

      .cls-21 {
        fill: url(#linear-gradient-8);
      }

      .cls-22, .cls-23 {
        fill: #fee67c;
      }

      .cls-26 {
        font-size: 11px;
      }

      .cls-28 {
        fill: url(#linear-gradient-9);
      }

      .cls-29 {
        fill: url(#linear-gradient-10);
      }

      .cls-30 {
        font-size: 9px;
        font-family: Humanist521BT-BoldCondensed, Humanst521 Cn BT;
        font-weight: 700;
      }

      .cls-31 {
        letter-spacing: -0.02em;
      }

      .cls-32 {
        letter-spacing: 0em;
      }

      .cls-33 {
        stroke: #e80001;
      }

      .cls-34 {
        stroke-miterlimit: 10;
      }
    </style>
    <linearGradient id="linear-gradient" x1="81.86" y1="281.31" x2="100.67" y2="281.31" gradientTransform="translate(499.31 -6.95) rotate(45.85)" gradientUnits="userSpaceOnUse">
      <stop offset="0" stop-color="#5fb749"/>
      <stop offset="1" stop-color="#dbf1c6"/>
    </linearGradient>
    <linearGradient id="linear-gradient-2" x1="82.2" y1="281.31" x2="100.14" y2="281.31" gradientTransform="translate(499.31 -6.95) rotate(45.85)" gradientUnits="userSpaceOnUse">
      <stop offset="0" stop-color="#dbf1c6"/>
      <stop offset="1" stop-color="#5fb749"/>
    </linearGradient>
    <linearGradient id="linear-gradient-3" x1="94.09" y1="293.18" x2="112.89" y2="293.18" xlink:href="#linear-gradient"/>
    <linearGradient id="linear-gradient-4" x1="94.42" y1="293.18" x2="112.37" y2="293.18" xlink:href="#linear-gradient-2"/>
    <linearGradient id="linear-gradient-5" x1="-47.99" y1="379.39" x2="-29.18" y2="379.39" xlink:href="#linear-gradient"/>
    <linearGradient id="linear-gradient-6" x1="-47.65" y1="379.39" x2="-29.71" y2="379.39" xlink:href="#linear-gradient-2"/>
    <linearGradient id="linear-gradient-7" x1="-35.76" y1="391.26" x2="-16.95" y2="391.26" xlink:href="#linear-gradient"/>
    <linearGradient id="linear-gradient-8" x1="-35.42" y1="391.26" x2="-17.48" y2="391.26" xlink:href="#linear-gradient-2"/>
    <linearGradient id="linear-gradient-9" x1="-110.22" y1="318.97" x2="-91.41" y2="318.97" xlink:href="#linear-gradient"/>
    <linearGradient id="linear-gradient-10" x1="-109.88" y1="318.97" x2="-91.94" y2="318.97" xlink:href="#linear-gradient-2"/>
  </defs>
  <g id="Layer_2" data-name="Layer 2">
    <g>
      <rect class="cls-1" x="164.92" y="131.67" width="144.43" height="36.83" rx="2"/>
      <text class="cls-2" transform="translate(196.78 144.79)">1</text>
      <text class="cls-2" transform="translate(196.78 161.79)">0</text>
      <text class="cls-2" transform="translate(252.93 144.79)">10</text>
      <text class="cls-2" transform="translate(275.23 144.79)">PKH<tspan class="cls-3" x="20.7" y="3">c</tspan></text>
      <g>
        <path class="cls-4" d="M291.91,253.8l-1.7-1.91a11.09,11.09,0,0,1,7.34.37,6.47,6.47,0,0,0,3.73.47,3.91,3.91,0,0,0,2.43-1.44c.73-.8,1.55-1.71,4.33-2l1.34,2c-2.19.21-2.77.84-3.44,1.58a5.08,5.08,0,0,1-3.09,1.8,9.47,9.47,0,0,1-5.15-.6A8.41,8.41,0,0,0,291.91,253.8Z" transform="translate(-121.75 -112.3)"/>
        <path class="cls-4" d="M295.23,255.62l-1.7-1.91a11.09,11.09,0,0,1,7.34.37,6.59,6.59,0,0,0,3.74.47A3.9,3.9,0,0,0,307,253.1c.72-.79,1.54-1.7,4.32-2l1.35,2c-2.2.22-2.78.85-3.45,1.59a5,5,0,0,1-3.08,1.8,9.46,9.46,0,0,1-5.15-.6A8.38,8.38,0,0,0,295.23,255.62Z" transform="translate(-121.75 -112.3)"/>
        <path class="cls-4" d="M294.49,257.65l-1.7-1.91a11.06,11.06,0,0,1,7.35.36,6.56,6.56,0,0,0,3.73.48,3.87,3.87,0,0,0,2.43-1.45c.72-.8,1.55-1.7,4.32-2l1.35,2a4.31,4.31,0,0,0-3.45,1.59,5,5,0,0,1-3.08,1.79,9.46,9.46,0,0,1-5.15-.59A8.38,8.38,0,0,0,294.49,257.65Z" transform="translate(-121.75 -112.3)"/>
        <path class="cls-4" d="M297.88,259.44l-1.71-1.91a11.08,11.08,0,0,1,7.34.37,6.6,6.6,0,0,0,3.74.48,3.87,3.87,0,0,0,2.43-1.45c.73-.8,1.55-1.7,4.32-2l1.35,2a4.34,4.34,0,0,0-3.45,1.58,5,5,0,0,1-3.08,1.8,9.48,9.48,0,0,1-5.15-.6A8.41,8.41,0,0,0,297.88,259.44Z" transform="translate(-121.75 -112.3)"/>
        <path class="cls-4" d="M292.43,251.72l-1.71-1.92a11.08,11.08,0,0,1,7.34.37,6.6,6.6,0,0,0,3.74.48,3.87,3.87,0,0,0,2.43-1.45c.72-.8,1.55-1.7,4.32-2l1.35,2a4.32,4.32,0,0,0-3.45,1.58,5,5,0,0,1-3.08,1.8,9.46,9.46,0,0,1-5.15-.6A8.36,8.36,0,0,0,292.43,251.72Z" transform="translate(-121.75 -112.3)"/>
        <polygon points="170.78 137.71 173.11 137.5 174.12 138.04 172.6 137.94 170.78 137.71"/>
        <polygon points="176.72 138.89 179.2 139.82 180.81 139.32 178.77 139.05 176.72 138.89"/>
        <polygon points="177.7 141.87 175.95 141.78 175.24 142.27 177.01 142.09 179.28 143 180.7 142.98 178.74 142.21 177.7 141.87"/>
        <path d="M309.74,254c-.45,0-1.58.3-1.58.3l-.86,1.42,1.22-.86,1.89-.26Z" transform="translate(-121.75 -112.3)"/>
        <polygon points="188.89 145.16 188.08 146.18 186.25 146.76 187.28 147.2 188.78 146.58 188.89 145.16"/>
        <polygon points="181.22 146.1 179.44 145.57 178.08 145.9 179.7 146.01 181.22 146.1"/>
        <polygon points="175.32 143.91 174.31 144.09 175.72 144.16 175.32 143.91"/>
        <polygon class="cls-5" points="183.54 137.84 182.28 138.18 180.81 139.32 182.84 138.87 183.54 137.84"/>
        <polygon class="cls-5" points="185.14 143.96 183.49 144.77 183.31 145.25 184.9 144.85 185.14 143.96"/>
        <polygon class="cls-5" points="192.2 143.45 190.35 144.13 190.22 145.03 191.74 144.31 192.2 143.45"/>
        <polygon class="cls-5" points="174.2 143.36 172.95 144.42 172.5 143.75 174.2 143.36"/>
        <polygon class="cls-6" points="181.75 141.07 179.48 140.88 180.71 141.44 181.75 141.07"/>
        <path class="cls-6" d="M305.72,259l-2.11-.48s1.09.75,1.39.89a15.56,15.56,0,0,0,2.14.28Z" transform="translate(-121.75 -112.3)"/>
        <polygon class="cls-6" points="174.94 141.31 173.08 141.37 173.8 142.38 174.94 141.31"/>
        <path class="cls-6" d="M307.88,248.13l-2.09.85s-.84,1.21-.5,1.16a12.56,12.56,0,0,0,1.78-1Z" transform="translate(-121.75 -112.3)"/>
      </g>
      <g>
        <path class="cls-4" d="M291.91,270.84l-1.7-1.91a11.09,11.09,0,0,1,7.34.37,6.56,6.56,0,0,0,3.73.48,3.87,3.87,0,0,0,2.43-1.45c.73-.8,1.55-1.7,4.33-2l1.34,2a4.32,4.32,0,0,0-3.44,1.58,5,5,0,0,1-3.09,1.8,9.57,9.57,0,0,1-5.15-.59A8.4,8.4,0,0,0,291.91,270.84Z" transform="translate(-121.75 -112.3)"/>
        <path class="cls-4" d="M295.23,272.66l-1.7-1.91a11.09,11.09,0,0,1,7.34.37,6.5,6.5,0,0,0,3.74.47,3.89,3.89,0,0,0,2.43-1.44c.72-.8,1.54-1.71,4.32-2l1.35,2c-2.2.21-2.78.84-3.45,1.58a5,5,0,0,1-3.08,1.8,9.46,9.46,0,0,1-5.15-.6A8.44,8.44,0,0,0,295.23,272.66Z" transform="translate(-121.75 -112.3)"/>
        <path class="cls-4" d="M294.49,274.69l-1.7-1.91a11.12,11.12,0,0,1,7.35.37,6.55,6.55,0,0,0,3.73.47,3.87,3.87,0,0,0,2.43-1.45c.72-.79,1.55-1.7,4.32-2l1.35,2c-2.2.22-2.77.85-3.45,1.59a5,5,0,0,1-3.08,1.8,9.46,9.46,0,0,1-5.15-.6A8.38,8.38,0,0,0,294.49,274.69Z" transform="translate(-121.75 -112.3)"/>
        <path class="cls-4" d="M297.88,276.49l-1.71-1.91a11.09,11.09,0,0,1,7.34.36,6.52,6.52,0,0,0,3.74.48,3.87,3.87,0,0,0,2.43-1.45c.73-.8,1.55-1.7,4.32-2l1.35,2a4.31,4.31,0,0,0-3.45,1.59,5,5,0,0,1-3.08,1.8,9.48,9.48,0,0,1-5.15-.6A8.36,8.36,0,0,0,297.88,276.49Z" transform="translate(-121.75 -112.3)"/>
        <path class="cls-4" d="M292.43,268.76l-1.71-1.92a11.14,11.14,0,0,1,7.34.37,6.6,6.6,0,0,0,3.74.48,3.87,3.87,0,0,0,2.43-1.45c.72-.8,1.55-1.7,4.32-2l1.35,2c-2.2.21-2.78.85-3.45,1.59a5,5,0,0,1-3.08,1.8,9.55,9.55,0,0,1-5.15-.6A8.36,8.36,0,0,0,292.43,268.76Z" transform="translate(-121.75 -112.3)"/>
        <polygon points="170.78 154.75 173.11 154.54 174.12 155.08 172.6 154.99 170.78 154.75"/>
        <polygon points="176.72 155.93 179.2 156.87 180.81 156.36 178.77 156.09 176.72 155.93"/>
        <polygon points="177.7 158.91 175.95 158.83 175.24 159.31 177.01 159.13 179.28 160.04 180.7 160.02 178.74 159.25 177.7 158.91"/>
        <path d="M309.74,271c-.45.05-1.58.31-1.58.31l-.86,1.42,1.22-.87,1.89-.26Z" transform="translate(-121.75 -112.3)"/>
        <polygon points="188.89 162.21 188.08 163.22 186.25 163.8 187.28 164.24 188.78 163.62 188.89 162.21"/>
        <polygon points="181.22 163.15 179.44 162.61 178.08 162.94 179.7 163.05 181.22 163.15"/>
        <polygon points="175.32 160.95 174.31 161.13 175.72 161.21 175.32 160.95"/>
        <polygon class="cls-5" points="183.54 154.88 182.28 155.23 180.81 156.36 182.84 155.91 183.54 154.88"/>
        <polygon class="cls-5" points="185.14 161 183.49 161.81 183.31 162.3 184.9 161.89 185.14 161"/>
        <polygon class="cls-5" points="192.2 160.49 190.35 161.17 190.22 162.07 191.74 161.35 192.2 160.49"/>
        <polygon class="cls-5" points="174.2 160.4 172.95 161.46 172.5 160.79 174.2 160.4"/>
        <polygon class="cls-6" points="181.75 158.12 179.48 157.92 180.71 158.49 181.75 158.12"/>
        <path class="cls-6" d="M305.72,276l-2.11-.48s1.09.75,1.39.9a15.56,15.56,0,0,0,2.14.28Z" transform="translate(-121.75 -112.3)"/>
        <polygon class="cls-6" points="174.94 158.35 173.08 158.42 173.8 159.43 174.94 158.35"/>
        <path class="cls-6" d="M307.88,265.17l-2.09.85s-.84,1.22-.5,1.16a12.65,12.65,0,0,0,1.78-1Z" transform="translate(-121.75 -112.3)"/>
      </g>
      <path class="cls-7" d="M340.39,255.57c1.5.68,2.74-.57,4-.79.31.34,0,1.05.13,1.45.91.66,2.68.42,3.36,1.33-.4.31-.94-.2-1.65-.4-1.22-.34-2.55-.13-2.09-1.92-1.09.51-2.91,1.47-4.18.6a8.92,8.92,0,0,1-1.27.66,35.47,35.47,0,0,0-1.33,3.38c-.88-.32-.9-1.53-2-1.66a3.2,3.2,0,0,0-.31,1c.24.07.51-.73.88-.53,0,.51-.54.93-1,1.13-.53-.33-.12-1.08,0-1.66a6.41,6.41,0,0,1-4,1.26,3.57,3.57,0,0,1-1.84-.53c-1.15-.86-.84-3.11-.06-4.17a4.86,4.86,0,0,1,2.91-1.65,16.91,16.91,0,0,0,.82-2c.36,0,.46-.09.57-.46,1.88-.74,4-1.16,5.58-2.26-1.95.36-4.08,1-6.08,1.59a4.25,4.25,0,0,1-1.9.4c.07-.39.59-.44.89-.53,1-.3,2.12-.61,3.23-.92a12.34,12.34,0,0,1,4.43-.87c0,.7-.69.89-1.14,1.13-1.38.72-3.27,1.23-4.82,1.85a5.36,5.36,0,0,0,1.4,1.92,11.42,11.42,0,0,1,2.21.27c.76-.91,1.38-2.14,2.09-3.18.2-.28.46-.76.83-.73-.12.77-.77,1.33-1.2,2s-.81,1.38-1.21,2c.47.33,1.23.35,1.39,1-.57.13-.95-.49-1.52-.59a17.38,17.38,0,0,0-1.83,3.57,13.16,13.16,0,0,0,2.72-1.06,6.48,6.48,0,0,0,.95-2.51,6.39,6.39,0,0,1,2.66-4.37,3.62,3.62,0,0,1,.38-.79c.25-.06.23.16.38.19a9.62,9.62,0,0,1,5.83-1.39c.39,0,1.28.14,1.27.66,0,.84-1.36,1.81-2,2.32A70.19,70.19,0,0,1,340.39,255.57Zm6.65-7.74c-1.73.14-3.83.7-4.75,1.78a16,16,0,0,0-1.26,2.45c-.48.88-1.64,2.26-1,3.25a69.61,69.61,0,0,0,7.47-5.1,5.8,5.8,0,0,0,2-2.25A5.33,5.33,0,0,0,347,247.83Zm-7.15,5.56c.38-1,1.13-1.95,1.39-2.85A5.47,5.47,0,0,0,339.89,253.39Zm-7.41-.4c.56-.12,1.3-.05,1.83-.2a10.57,10.57,0,0,1-1.2-1.52C333,251.9,332.67,252.4,332.48,253Zm-.13.4a7.13,7.13,0,0,0-.5,1.65c-.15.54-.18,1.29-.64,1.52-.16-.9.41-2.11.64-3a3.59,3.59,0,0,0-3.11,3.57c0,1.43,1.11,1.94,2.6,1.92,3.16,0,5.47-2.85,3.35-5.69A11.13,11.13,0,0,0,332.35,253.39Zm3.61,2.38c.34-.75.71-1.46,1.08-2.18a11.46,11.46,0,0,0-1.84-.27A6.54,6.54,0,0,1,336,255.77Zm3.1.07a2.74,2.74,0,0,0,.57-.27c0-.19,0-.47-.18-.53C339.34,255.33,339.17,255.56,339.06,255.84Zm-3.48,2c.85.15,1.14.88,1.65,1.39a6.61,6.61,0,0,1,.89-2.32c0-.08,0-.16-.13-.13C337.32,257.33,336.29,257.44,335.58,257.89Z" transform="translate(-121.75 -112.3)"/>
      <g>
        <path class="cls-8" d="M367.62,259.11l-6.42-6.61a4.19,4.19,0,0,0-6.7-4.75.94.94,0,0,0-.1.1,1.09,1.09,0,0,1-.11.1,4.19,4.19,0,0,0,4.22,7l.53.55a.93.93,0,0,1,1.17.19.92.92,0,0,1,.15,1.16l.58.61a1,1,0,0,1,1.32,1.35l.59.61a.89.89,0,0,1,1.16.19.9.9,0,0,1,.15,1.16l.41.42,3.29-.17.21-.2Z" transform="translate(-121.75 -112.3)"/>
        <path class="cls-9" d="M368.07,260.78,361,252.7a4.13,4.13,0,1,0-2.48,2.21l.53.55a.93.93,0,0,1,1.17.19.92.92,0,0,1,.15,1.16l.58.61a1,1,0,0,1,1.32,1.35l.59.61a.89.89,0,0,1,1.16.19.9.9,0,0,1,.15,1.16l.41.42,3.29-.17Z" transform="translate(-121.75 -112.3)"/>
        <path class="cls-10" d="M367.62,259.11l-6.42-6.61a4.14,4.14,0,1,0-2.49,2.21l.54.55a.91.91,0,0,1,1.16.19.89.89,0,0,1,.15,1.16l.59.61a.91.91,0,0,1,1.16.19.89.89,0,0,1,.15,1.16l.59.61a1,1,0,0,1,1.31,1.35l.41.42,3.3-.17Z" transform="translate(-121.75 -112.3)"/>
        <path class="cls-11" d="M354.68,253.4a3.8,3.8,0,1,1,6.21-1l-.09.21,6.52,6.71.32,1.19-2.73.14-.13-.13a1.36,1.36,0,0,0-1.66-1.71l-.24-.25a1.32,1.32,0,0,0-.33-1.35,1.3,1.3,0,0,0-1.33-.36l-.25-.25a1.35,1.35,0,0,0-1.65-1.71l-.51-.52-.2.06A3.83,3.83,0,0,1,354.68,253.4Z" transform="translate(-121.75 -112.3)"/>
        <path class="cls-12" d="M359.71,253.12a3.3,3.3,0,1,1,.07-4.67A3.3,3.3,0,0,1,359.71,253.12Z" transform="translate(-121.75 -112.3)"/>
        <text class="cls-13" transform="translate(232.44 137.02) rotate(45.85)">Pub</text>
      </g>
      <g>
        <path class="cls-8" d="M367.62,276.16l-6.42-6.62a4.19,4.19,0,0,0-6.7-4.75l-.1.11-.11.09a4.19,4.19,0,0,0,4.22,7l.53.55a1,1,0,0,1,1.32,1.36l.58.6a.93.93,0,0,1,1.17.19.92.92,0,0,1,.15,1.17l.59.6a.91.91,0,0,1,1.16.19.9.9,0,0,1,.15,1.16l.41.43,3.29-.18.21-.2Z" transform="translate(-121.75 -112.3)"/>
        <path class="cls-9" d="M368.07,277.82,361,269.74a4.13,4.13,0,1,0-2.48,2.21l.53.55a1,1,0,0,1,1.32,1.36l.58.6a.93.93,0,0,1,1.17.19.92.92,0,0,1,.15,1.17l.59.6a.91.91,0,0,1,1.16.19.9.9,0,0,1,.15,1.16l.41.43,3.29-.18Z" transform="translate(-121.75 -112.3)"/>
        <path class="cls-14" d="M367.62,276.16l-6.42-6.62a4.14,4.14,0,1,0-2.49,2.21l.54.56a1,1,0,0,1,1.31,1.35l.59.6a1,1,0,0,1,1.31,1.36l.59.61a1,1,0,0,1,1.31,1.34l.41.43,3.3-.18Z" transform="translate(-121.75 -112.3)"/>
        <path class="cls-15" d="M354.68,270.44a3.8,3.8,0,1,1,6.21-1l-.09.2,6.52,6.72.32,1.18-2.73.15-.13-.14a1.36,1.36,0,0,0-1.66-1.71l-.24-.25a1.37,1.37,0,0,0-1.66-1.71l-.25-.25a1.35,1.35,0,0,0-1.65-1.7l-.51-.53-.2.06A3.81,3.81,0,0,1,354.68,270.44Z" transform="translate(-121.75 -112.3)"/>
        <path class="cls-12" d="M359.71,270.16a3.3,3.3,0,1,1,.07-4.67A3.3,3.3,0,0,1,359.71,270.16Z" transform="translate(-121.75 -112.3)"/>
        <text class="cls-13" transform="translate(232.44 154.06) rotate(45.85)">Pub</text>
      </g>
      <path class="cls-7" d="M340.39,272.62c1.5.68,2.74-.57,4-.8.31.35,0,1.06.13,1.46.91.66,2.68.42,3.36,1.32-.4.32-.94-.2-1.65-.4-1.22-.34-2.55-.13-2.09-1.92-1.09.52-2.91,1.47-4.18.6a8,8,0,0,1-1.27.66c-.5,1.07-.92,2.22-1.33,3.38-.88-.32-.9-1.52-2-1.66a3.18,3.18,0,0,0-.31,1c.24.06.51-.73.88-.53,0,.5-.54.93-1,1.12-.53-.33-.12-1.08,0-1.65a6.35,6.35,0,0,1-4,1.25,3.57,3.57,0,0,1-1.84-.53c-1.15-.86-.84-3.11-.06-4.17A5,5,0,0,1,332,270.1a16.23,16.23,0,0,0,.82-2c.36,0,.46-.09.57-.46,1.88-.73,4-1.16,5.58-2.25-1.95.36-4.08,1-6.08,1.59a4.38,4.38,0,0,1-1.9.39c.07-.39.59-.44.89-.52,1-.3,2.12-.61,3.23-.93a12.54,12.54,0,0,1,4.43-.86c0,.69-.69.89-1.14,1.12-1.38.72-3.27,1.23-4.82,1.86A5.36,5.36,0,0,0,335,270a10.72,10.72,0,0,1,2.21.26c.76-.91,1.38-2.14,2.09-3.18.2-.28.46-.75.83-.72-.12.77-.77,1.32-1.2,2s-.81,1.38-1.21,2.06c.47.32,1.23.34,1.39,1-.57.13-.95-.5-1.52-.6a17.21,17.21,0,0,0-1.83,3.58,14.39,14.39,0,0,0,2.72-1.06,6.6,6.6,0,0,0,.95-2.52c.17-2.07,1.44-3.29,2.66-4.37a3.62,3.62,0,0,1,.38-.79c.25-.06.23.16.38.2a9.49,9.49,0,0,1,5.83-1.39c.39,0,1.28.14,1.27.66,0,.84-1.36,1.8-2,2.31A71.8,71.8,0,0,1,340.39,272.62Zm6.65-7.75c-1.73.14-3.83.7-4.75,1.79a15.14,15.14,0,0,0-1.26,2.45c-.48.87-1.64,2.26-1,3.24a68.18,68.18,0,0,0,7.47-5.1,5.73,5.73,0,0,0,2-2.25A5.47,5.47,0,0,0,347,264.87Zm-7.15,5.56c.38-1,1.13-1.95,1.39-2.85A5.47,5.47,0,0,0,339.89,270.43Zm-7.41-.4c.56-.12,1.3,0,1.83-.2a10,10,0,0,1-1.2-1.52C333,268.94,332.67,269.44,332.48,270Zm-.13.4a7.28,7.28,0,0,0-.5,1.65c-.15.54-.18,1.29-.64,1.53-.16-.91.41-2.11.64-3.05a3.6,3.6,0,0,0-3.11,3.58c0,1.42,1.11,1.93,2.6,1.92,3.16,0,5.47-2.86,3.35-5.69A11.07,11.07,0,0,0,332.35,270.43Zm3.61,2.38c.34-.75.71-1.46,1.08-2.18a12.74,12.74,0,0,0-1.84-.26A6.43,6.43,0,0,1,336,272.81Zm3.1.07a2.73,2.73,0,0,0,.57-.26c0-.2,0-.47-.18-.54C339.34,272.37,339.17,272.6,339.06,272.88Zm-3.48,2.05c.85.16,1.14.88,1.65,1.39a6.69,6.69,0,0,1,.89-2.32c0-.08,0-.15-.13-.13C337.32,274.37,336.29,274.48,335.58,274.93Z" transform="translate(-121.75 -112.3)"/>
      <line class="cls-16" x1="249.68" y1="131.81" x2="249.68" y2="168.48"/>
      <rect class="cls-17" x="164.92" y="131.67" width="144.43" height="36.83" rx="2"/>
    </g>
    <text class="cls-2" transform="translate(259.83 161.79)">3</text>
    <text class="cls-2" transform="translate(275.23 161.79)">PKH<tspan class="cls-3" x="20.7" y="3">3</tspan></text>
    <g>
      <rect class="cls-1" x="4.1" y="106.82" width="144.43" height="36.83" rx="2"/>
      <text class="cls-2" transform="translate(35.96 119.94)">2</text>
      <text class="cls-2" transform="translate(35.96 136.94)">0</text>
      <text class="cls-2" transform="translate(99.01 119.94)">5</text>
      <text class="cls-2" transform="translate(114.41 119.94)">PKH<tspan class="cls-3" x="20.7" y="3">2</tspan></text>
      <text class="cls-2" transform="translate(244.08 97.53)">5</text>
      <text class="cls-2" transform="translate(259.48 97.53)">PKH<tspan class="cls-3" x="20.7" y="3">2</tspan></text>
      <g>
        <path class="cls-4" d="M131.09,229,129.38,227a11.08,11.08,0,0,1,7.34.37,6.6,6.6,0,0,0,3.74.48,3.87,3.87,0,0,0,2.43-1.45c.72-.8,1.55-1.7,4.32-2l1.35,2a4.32,4.32,0,0,0-3.45,1.58,5,5,0,0,1-3.08,1.8,9.46,9.46,0,0,1-5.15-.6A8.41,8.41,0,0,0,131.09,229Z" transform="translate(-121.75 -112.3)"/>
        <path class="cls-4" d="M134.41,230.77l-1.7-1.91a11.09,11.09,0,0,1,7.34.37,6.5,6.5,0,0,0,3.74.47,3.91,3.91,0,0,0,2.42-1.44c.73-.8,1.55-1.71,4.33-2l1.35,2c-2.2.21-2.78.84-3.45,1.58a5,5,0,0,1-3.09,1.8,9.48,9.48,0,0,1-5.15-.6A8.41,8.41,0,0,0,134.41,230.77Z" transform="translate(-121.75 -112.3)"/>
        <path class="cls-4" d="M133.67,232.8l-1.7-1.91a11.08,11.08,0,0,1,7.34.37,6.6,6.6,0,0,0,3.74.47,3.87,3.87,0,0,0,2.43-1.45c.72-.79,1.54-1.7,4.32-2l1.35,2c-2.2.21-2.78.85-3.45,1.59a5,5,0,0,1-3.08,1.8,9.55,9.55,0,0,1-5.15-.6A8.38,8.38,0,0,0,133.67,232.8Z" transform="translate(-121.75 -112.3)"/>
        <path class="cls-4" d="M137.05,234.6l-1.7-1.92a11.14,11.14,0,0,1,7.34.37,6.52,6.52,0,0,0,3.74.48,3.87,3.87,0,0,0,2.43-1.45c.73-.8,1.55-1.7,4.32-2l1.35,2c-2.2.21-2.78.85-3.45,1.59a5,5,0,0,1-3.08,1.8,9.55,9.55,0,0,1-5.15-.6A8.38,8.38,0,0,0,137.05,234.6Z" transform="translate(-121.75 -112.3)"/>
        <path class="cls-4" d="M131.6,226.87,129.9,225a11.08,11.08,0,0,1,7.34.37,6.6,6.6,0,0,0,3.74.48,3.9,3.9,0,0,0,2.43-1.45c.72-.8,1.55-1.7,4.32-2l1.35,2c-2.2.21-2.78.85-3.45,1.59a5.09,5.09,0,0,1-3.08,1.8,9.55,9.55,0,0,1-5.15-.6A8.38,8.38,0,0,0,131.6,226.87Z" transform="translate(-121.75 -112.3)"/>
        <polygon points="9.96 112.86 12.29 112.65 13.3 113.19 11.78 113.1 9.96 112.86"/>
        <polygon points="15.9 114.04 18.38 114.98 19.98 114.47 17.95 114.2 15.9 114.04"/>
        <polygon points="16.88 117.02 15.13 116.93 14.41 117.42 16.19 117.24 18.45 118.15 19.88 118.13 17.92 117.36 16.88 117.02"/>
        <path d="M148.92,229.13c-.45.05-1.58.31-1.58.31l-.86,1.41,1.22-.86,1.89-.26Z" transform="translate(-121.75 -112.3)"/>
        <polygon points="28.07 120.31 27.26 121.33 25.43 121.91 26.45 122.35 27.96 121.73 28.07 120.31"/>
        <polygon points="20.39 121.26 18.62 120.72 17.26 121.05 18.88 121.16 20.39 121.26"/>
        <polygon points="14.5 119.06 13.49 119.24 14.9 119.32 14.5 119.06"/>
        <polygon class="cls-5" points="22.72 112.99 21.46 113.33 19.98 114.47 22.02 114.02 22.72 112.99"/>
        <polygon class="cls-5" points="24.32 119.11 22.67 119.92 22.49 120.41 24.07 120 24.32 119.11"/>
        <polygon class="cls-5" points="31.38 118.6 29.53 119.28 29.4 120.18 30.92 119.46 31.38 118.6"/>
        <polygon class="cls-5" points="13.38 118.51 12.13 119.57 11.68 118.9 13.38 118.51"/>
        <polygon class="cls-6" points="20.93 116.22 18.66 116.03 19.89 116.6 20.93 116.22"/>
        <path class="cls-6" d="M144.9,234.12l-2.11-.48s1.09.75,1.39.9a15.32,15.32,0,0,0,2.14.27Z" transform="translate(-121.75 -112.3)"/>
        <polygon class="cls-6" points="14.12 116.46 12.26 116.53 12.98 117.54 14.12 116.46"/>
        <path class="cls-6" d="M147.06,223.28l-2.09.85s-.84,1.22-.5,1.16a12.65,12.65,0,0,0,1.78-1Z" transform="translate(-121.75 -112.3)"/>
      </g>
      <g>
        <path class="cls-4" d="M131.09,246l-1.71-1.91a11,11,0,0,1,7.34.37,6.68,6.68,0,0,0,3.74.47,3.87,3.87,0,0,0,2.43-1.45c.72-.8,1.55-1.7,4.32-2l1.35,2c-2.2.21-2.78.85-3.45,1.59a5,5,0,0,1-3.08,1.8,9.55,9.55,0,0,1-5.15-.6A8.36,8.36,0,0,0,131.09,246Z" transform="translate(-121.75 -112.3)"/>
        <path class="cls-4" d="M134.41,247.81l-1.7-1.91a11.09,11.09,0,0,1,7.34.37,6.59,6.59,0,0,0,3.74.48,3.87,3.87,0,0,0,2.42-1.45c.73-.8,1.55-1.7,4.33-2l1.35,2c-2.2.21-2.78.85-3.45,1.59a5,5,0,0,1-3.09,1.79,9.39,9.39,0,0,1-5.15-.6A8.47,8.47,0,0,0,134.41,247.81Z" transform="translate(-121.75 -112.3)"/>
        <path class="cls-4" d="M133.67,249.84l-1.7-1.91a11.08,11.08,0,0,1,7.34.37,6.51,6.51,0,0,0,3.74.47,3.86,3.86,0,0,0,2.43-1.44c.72-.8,1.54-1.71,4.32-2l1.35,2c-2.2.21-2.78.84-3.45,1.58a5,5,0,0,1-3.08,1.8,9.46,9.46,0,0,1-5.15-.6A8.44,8.44,0,0,0,133.67,249.84Z" transform="translate(-121.75 -112.3)"/>
        <path class="cls-4" d="M137.05,251.64l-1.7-1.91a11.08,11.08,0,0,1,7.34.37,6.51,6.51,0,0,0,3.74.47,3.91,3.91,0,0,0,2.43-1.44c.73-.8,1.55-1.71,4.32-2l1.35,2c-2.2.22-2.78.85-3.45,1.59a5,5,0,0,1-3.08,1.8,9.46,9.46,0,0,1-5.15-.6A8.38,8.38,0,0,0,137.05,251.64Z" transform="translate(-121.75 -112.3)"/>
        <path class="cls-4" d="M131.6,243.91,129.9,242a11.08,11.08,0,0,1,7.34.37,6.6,6.6,0,0,0,3.74.47,3.94,3.94,0,0,0,2.43-1.44c.72-.8,1.55-1.71,4.32-2l1.35,2c-2.2.21-2.78.85-3.45,1.59a5,5,0,0,1-3.08,1.8,9.46,9.46,0,0,1-5.15-.6A8.44,8.44,0,0,0,131.6,243.91Z" transform="translate(-121.75 -112.3)"/>
        <polygon points="9.96 129.91 12.29 129.7 13.3 130.24 11.78 130.14 9.96 129.91"/>
        <polygon points="15.9 131.08 18.38 132.02 19.98 131.51 17.95 131.25 15.9 131.08"/>
        <polygon points="16.88 134.07 15.13 133.98 14.41 134.46 16.19 134.28 18.45 135.19 19.88 135.17 17.92 134.41 16.88 134.07"/>
        <path d="M148.92,246.17c-.45.05-1.58.31-1.58.31l-.86,1.42,1.22-.86,1.89-.27Z" transform="translate(-121.75 -112.3)"/>
        <polygon points="28.07 137.36 27.26 138.38 25.43 138.95 26.45 139.39 27.96 138.77 28.07 137.36"/>
        <polygon points="20.39 138.3 18.62 137.76 17.26 138.1 18.88 138.2 20.39 138.3"/>
        <polygon points="14.5 136.1 13.49 136.28 14.9 136.36 14.5 136.1"/>
        <polygon class="cls-5" points="22.72 130.03 21.46 130.38 19.98 131.51 22.02 131.06 22.72 130.03"/>
        <polygon class="cls-5" points="24.32 136.16 22.67 136.96 22.49 137.45 24.07 137.04 24.32 136.16"/>
        <polygon class="cls-5" points="31.38 135.65 29.53 136.32 29.4 137.22 30.92 136.5 31.38 135.65"/>
        <polygon class="cls-5" points="13.38 135.55 12.13 136.61 11.68 135.94 13.38 135.55"/>
        <polygon class="cls-6" points="20.93 133.27 18.66 133.08 19.89 133.64 20.93 133.27"/>
        <path class="cls-6" d="M144.9,251.16l-2.11-.48s1.09.76,1.39.9a15.56,15.56,0,0,0,2.14.28Z" transform="translate(-121.75 -112.3)"/>
        <polygon class="cls-6" points="14.12 133.5 12.26 133.57 12.98 134.58 14.12 133.5"/>
        <path class="cls-6" d="M147.06,240.32l-2.09.85s-.84,1.22-.5,1.16a12.65,12.65,0,0,0,1.78-1Z" transform="translate(-121.75 -112.3)"/>
      </g>
      <path class="cls-7" d="M179.57,230.72c1.5.69,2.74-.56,4-.79.31.35,0,1.06.13,1.46.91.65,2.68.42,3.36,1.32-.4.32-.94-.2-1.65-.4-1.22-.34-2.55-.13-2.09-1.92-1.09.51-2.91,1.47-4.18.6a8,8,0,0,1-1.27.66,35.47,35.47,0,0,0-1.33,3.38c-.88-.32-.9-1.53-2-1.66a3.46,3.46,0,0,0-.32,1c.25.06.52-.74.89-.53,0,.5-.54.93-1,1.12-.53-.33-.12-1.08,0-1.66a6.43,6.43,0,0,1-4,1.26,3.57,3.57,0,0,1-1.84-.53c-1.15-.86-.84-3.11-.06-4.17a4.86,4.86,0,0,1,2.91-1.65,16.23,16.23,0,0,0,.82-2c.36,0,.46-.09.57-.46,1.88-.73,4-1.16,5.58-2.25-2,.36-4.08,1-6.08,1.59a4.38,4.38,0,0,1-1.9.39c.07-.39.59-.44.88-.52,1-.31,2.13-.62,3.23-.93a12.64,12.64,0,0,1,4.44-.86c0,.69-.69.89-1.14,1.12-1.38.72-3.27,1.23-4.82,1.86a5.36,5.36,0,0,0,1.4,1.92,10.72,10.72,0,0,1,2.21.26c.76-.91,1.38-2.14,2.09-3.18.2-.28.46-.75.83-.72-.12.77-.77,1.32-1.21,2s-.8,1.38-1.2,2.05c.47.33,1.23.35,1.39,1-.57.12-1-.5-1.52-.6a17.89,17.89,0,0,0-1.83,3.57,14,14,0,0,0,2.72-1.05,6.6,6.6,0,0,0,.95-2.52c.17-2.08,1.44-3.29,2.66-4.37a3.62,3.62,0,0,1,.38-.79c.25-.06.23.16.38.2a9.55,9.55,0,0,1,5.83-1.4c.39,0,1.28.15,1.27.67,0,.83-1.36,1.8-2,2.31A71.2,71.2,0,0,1,179.57,230.72Zm6.65-7.74c-1.73.14-3.83.7-4.75,1.78a16,16,0,0,0-1.26,2.45c-.48.88-1.64,2.27-1,3.25a67.37,67.37,0,0,0,7.48-5.1,5.69,5.69,0,0,0,2-2.25A5.43,5.43,0,0,0,186.22,223Zm-7.15,5.56c.38-1,1.13-1.95,1.39-2.85A5.4,5.4,0,0,0,179.07,228.54Zm-7.41-.4c.56-.12,1.3,0,1.83-.2a10.57,10.57,0,0,1-1.2-1.52C172.13,227.05,171.85,227.55,171.66,228.14Zm-.13.4a7.64,7.64,0,0,0-.51,1.65c-.14.54-.17,1.29-.63,1.53-.16-.91.41-2.11.63-3.05a3.6,3.6,0,0,0-3.1,3.58c0,1.42,1.1,1.93,2.6,1.92,3.16,0,5.47-2.86,3.35-5.7A11.84,11.84,0,0,0,171.53,228.54Zm3.61,2.38c.34-.75.71-1.46,1.08-2.18a14.26,14.26,0,0,0-1.84-.27A6.72,6.72,0,0,1,175.14,230.92Zm3.1.07a2.31,2.31,0,0,0,.57-.27c0-.19,0-.46-.18-.53C178.52,230.48,178.35,230.71,178.24,231Zm-3.48,2c.85.15,1.14.88,1.65,1.39a6.8,6.8,0,0,1,.88-2.32c0-.08,0-.15-.12-.13C176.5,232.48,175.47,232.59,174.76,233Z" transform="translate(-121.75 -112.3)"/>
      <g>
        <path class="cls-8" d="M206.8,234.27l-6.42-6.62a4.19,4.19,0,0,0-6.7-4.75.52.52,0,0,0-.1.11l-.11.09a4.19,4.19,0,0,0,4.22,7l.53.55a1,1,0,0,1,1.31,1.36l.59.6a.93.93,0,0,1,1.17.19.9.9,0,0,1,.15,1.16l.58.61a.92.92,0,0,1,1.17.19.9.9,0,0,1,.15,1.16l.41.43,3.29-.18.21-.2Z" transform="translate(-121.75 -112.3)"/>
        <path class="cls-9" d="M207.25,235.93l-7.08-8.08a4.13,4.13,0,1,0-2.48,2.21l.53.55a1,1,0,0,1,1.31,1.36l.59.6a.93.93,0,0,1,1.17.19.9.9,0,0,1,.15,1.16l.58.61a.92.92,0,0,1,1.17.19.9.9,0,0,1,.15,1.16l.41.43,3.29-.18Z" transform="translate(-121.75 -112.3)"/>
        <path class="cls-18" d="M206.8,234.27l-6.42-6.62a4.14,4.14,0,1,0-2.49,2.21l.54.55a1,1,0,0,1,1.31,1.36l.59.6a1,1,0,0,1,1.31,1.36l.59.6a.91.91,0,0,1,1.16.19.89.89,0,0,1,.15,1.16l.41.43,3.3-.18Z" transform="translate(-121.75 -112.3)"/>
        <path class="cls-19" d="M193.86,228.55a3.8,3.8,0,1,1,6.21-1l-.09.21,6.52,6.72.32,1.18-2.73.14-.13-.13a1.36,1.36,0,0,0-1.66-1.71l-.25-.25A1.36,1.36,0,0,0,200.4,232l-.25-.25A1.36,1.36,0,0,0,198.5,230l-.51-.52-.2.06A3.81,3.81,0,0,1,193.86,228.55Z" transform="translate(-121.75 -112.3)"/>
        <path class="cls-12" d="M198.89,228.27a3.3,3.3,0,1,1,.07-4.67A3.3,3.3,0,0,1,198.89,228.27Z" transform="translate(-121.75 -112.3)"/>
        <text class="cls-13" transform="translate(71.62 112.17) rotate(45.85)">Pub</text>
      </g>
      <g>
        <path class="cls-8" d="M206.8,251.31l-6.42-6.62a4.19,4.19,0,0,0-6.7-4.75l-.1.11-.11.09a4.19,4.19,0,0,0,4.22,7l.53.55a1,1,0,0,1,1.31,1.35l.59.61a1,1,0,0,1,1.32,1.35l.58.61a1,1,0,0,1,1.32,1.35l.41.42,3.29-.18.21-.2Z" transform="translate(-121.75 -112.3)"/>
        <path class="cls-9" d="M207.25,253l-7.08-8.07a4.13,4.13,0,1,0-2.48,2.21l.53.55a1,1,0,0,1,1.31,1.35l.59.61a1,1,0,0,1,1.32,1.35l.58.61a1,1,0,0,1,1.32,1.35l.41.42,3.29-.18Z" transform="translate(-121.75 -112.3)"/>
        <path class="cls-20" d="M206.8,251.31l-6.42-6.62a4.14,4.14,0,1,0-2.49,2.22l.54.55a1,1,0,0,1,1.31,1.35l.59.61a1,1,0,0,1,1.31,1.35l.59.61a1,1,0,0,1,1.31,1.35l.41.42,3.3-.18Z" transform="translate(-121.75 -112.3)"/>
        <path class="cls-21" d="M193.86,245.59a3.8,3.8,0,1,1,6.21-1l-.09.21,6.52,6.71.32,1.18-2.73.15-.13-.14A1.37,1.37,0,0,0,202.3,251l-.25-.25a1.35,1.35,0,0,0-1.65-1.7l-.25-.26a1.28,1.28,0,0,0-.32-1.34,1.3,1.3,0,0,0-1.33-.36l-.51-.53-.2.07A3.84,3.84,0,0,1,193.86,245.59Z" transform="translate(-121.75 -112.3)"/>
        <path class="cls-12" d="M198.89,245.31a3.3,3.3,0,1,1,.07-4.67A3.29,3.29,0,0,1,198.89,245.31Z" transform="translate(-121.75 -112.3)"/>
        <text class="cls-13" transform="translate(71.62 129.22) rotate(45.85)">Pub</text>
      </g>
      <path class="cls-7" d="M179.57,247.77c1.5.68,2.74-.57,4-.8.31.35,0,1.06.13,1.46.91.66,2.68.42,3.36,1.32-.4.32-.94-.2-1.65-.39-1.22-.34-2.55-.14-2.09-1.92-1.09.51-2.91,1.46-4.18.59a7.25,7.25,0,0,1-1.27.66c-.5,1.07-.92,2.22-1.33,3.38-.88-.32-.9-1.52-2-1.65a3.39,3.39,0,0,0-.32,1c.25.07.52-.73.89-.53,0,.51-.54.93-1,1.12-.53-.33-.12-1.08,0-1.65a6.43,6.43,0,0,1-4,1.26,3.77,3.77,0,0,1-1.84-.53c-1.15-.86-.84-3.12-.06-4.17a4.93,4.93,0,0,1,2.91-1.66,16.75,16.75,0,0,0,.82-2c.36,0,.46-.1.57-.47,1.88-.73,4-1.16,5.58-2.25-2,.36-4.08,1-6.08,1.59a4.39,4.39,0,0,1-1.9.4c.07-.4.59-.44.88-.53l3.23-.93a12.64,12.64,0,0,1,4.44-.86c0,.69-.69.89-1.14,1.13-1.38.71-3.27,1.23-4.82,1.85a5.36,5.36,0,0,0,1.4,1.92,10.72,10.72,0,0,1,2.21.26c.76-.91,1.38-2.13,2.09-3.17.2-.28.46-.76.83-.73-.12.77-.77,1.33-1.21,2s-.8,1.39-1.2,2.06c.47.32,1.23.34,1.39,1-.57.13-1-.49-1.52-.6a17.71,17.71,0,0,0-1.83,3.58,14,14,0,0,0,2.72-1.06,6.6,6.6,0,0,0,.95-2.52c.17-2.07,1.44-3.29,2.66-4.36a3.49,3.49,0,0,1,.38-.8c.25-.06.23.16.38.2a9.55,9.55,0,0,1,5.83-1.39c.39,0,1.28.14,1.27.66,0,.84-1.36,1.8-2,2.32A74.3,74.3,0,0,1,179.57,247.77Zm6.65-7.75c-1.73.15-3.83.7-4.75,1.79a15.14,15.14,0,0,0-1.26,2.45c-.48.88-1.64,2.26-1,3.24a67.3,67.3,0,0,0,7.48-5.09,5.66,5.66,0,0,0,2-2.26A5.58,5.58,0,0,0,186.22,240Zm-7.15,5.56c.38-1,1.13-1.94,1.39-2.84A5.33,5.33,0,0,0,179.07,245.58Zm-7.41-.4c.56-.12,1.3-.05,1.83-.19a10.66,10.66,0,0,1-1.2-1.53C172.13,244.09,171.85,244.59,171.66,245.18Zm-.13.4a7.73,7.73,0,0,0-.51,1.66c-.14.53-.17,1.28-.63,1.52-.16-.9.41-2.11.63-3a3.59,3.59,0,0,0-3.1,3.57c0,1.42,1.1,1.93,2.6,1.92,3.16,0,5.47-2.86,3.35-5.69A11.07,11.07,0,0,0,171.53,245.58Zm3.61,2.39c.34-.75.71-1.47,1.08-2.19a12.74,12.74,0,0,0-1.84-.26A6.66,6.66,0,0,1,175.14,248Zm3.1.06a2.3,2.3,0,0,0,.57-.26c0-.2,0-.47-.18-.53C178.52,247.53,178.35,247.75,178.24,248Zm-3.48,2.05c.85.16,1.14.89,1.65,1.4a6.72,6.72,0,0,1,.88-2.32c0-.08,0-.16-.12-.14C176.5,249.52,175.47,249.63,174.76,250.08Z" transform="translate(-121.75 -112.3)"/>
      <line class="cls-16" x1="88.85" y1="106.96" x2="88.85" y2="143.63"/>
      <rect class="cls-17" x="4.1" y="106.82" width="144.43" height="36.83" rx="2"/>
    </g>
    <rect class="cls-22" x="0.38" y="0.29" width="151.86" height="15.79"/>
    <line class="cls-23" x1="0.25" y1="16.04" x2="152.11" y2="16.04"/>
    <rect class="cls-24" x="0.25" y="0.25" width="151.86" height="168.25"/>
    <line class="cls-24" x1="152.12" y1="81.97" x2="0.25" y2="81.97"/>
    <text class="cls-25" transform="translate(39.66 10.16)">Confirmed transactions</text>
    <line class="cls-23" x1="0.25" y1="60.92" x2="152.12" y2="60.92"/>
    <text class="cls-26" transform="translate(9.62 72.95)">...</text>
    <text class="cls-26" transform="translate(170.92 22.66)">...</text>
    <line class="cls-24" x1="152.12" y1="102.82" x2="0.25" y2="102.82"/>
    <text class="cls-26" transform="translate(9.62 93.8)">...</text>
    <line class="cls-24" x1="152.12" y1="147.65" x2="0.25" y2="147.65"/>
    <text class="cls-26" transform="translate(9.62 159.48)">...</text>
    <rect class="cls-1" x="4.1" y="20.08" width="144.43" height="36.83" rx="2"/>
    <text class="cls-2" transform="translate(35.96 33.2)">4</text>
    <text class="cls-2" transform="translate(92.11 33.2)">12</text>
    <text class="cls-2" transform="translate(114.41 33.2)">PKH<tspan class="cls-3" x="20.7" y="3">x</tspan></text>
    <text class="cls-2" transform="translate(236.84 42.54)">12</text>
    <text class="cls-2" transform="translate(259.14 42.54)">PKH<tspan class="cls-3" x="20.7" y="3">x</tspan></text>
    <text class="cls-2" transform="translate(99.01 50.2)">8</text>
    <text class="cls-2" transform="translate(114.41 50.2)">PKH<tspan class="cls-3" x="20.7" y="3">1</tspan></text>
    <text class="cls-2" transform="translate(244.07 63.77)">8</text>
    <text class="cls-2" transform="translate(259.48 63.77)">PKH<tspan class="cls-3" x="20.7" y="3">1</tspan></text>
    <g>
      <path class="cls-4" d="M131.09,142.22l-1.71-1.92a11.14,11.14,0,0,1,7.34.37,6.6,6.6,0,0,0,3.74.48,3.87,3.87,0,0,0,2.43-1.45c.72-.8,1.55-1.7,4.32-2l1.35,2c-2.2.21-2.78.85-3.45,1.59a5,5,0,0,1-3.08,1.8,9.55,9.55,0,0,1-5.15-.6A8.36,8.36,0,0,0,131.09,142.22Z" transform="translate(-121.75 -112.3)"/>
      <path class="cls-4" d="M134.41,144l-1.7-1.91a11.09,11.09,0,0,1,7.34.37,6.59,6.59,0,0,0,3.74.48,3.87,3.87,0,0,0,2.42-1.45c.73-.8,1.55-1.71,4.33-2l1.35,2a4.32,4.32,0,0,0-3.45,1.58,5,5,0,0,1-3.09,1.8,9.39,9.39,0,0,1-5.15-.6A8.41,8.41,0,0,0,134.41,144Z" transform="translate(-121.75 -112.3)"/>
      <path class="cls-4" d="M133.67,146.06l-1.7-1.91a11.08,11.08,0,0,1,7.34.37,6.6,6.6,0,0,0,3.74.47,3.87,3.87,0,0,0,2.43-1.45c.72-.79,1.54-1.7,4.32-2l1.35,2c-2.2.21-2.78.84-3.45,1.58a5,5,0,0,1-3.08,1.8,9.46,9.46,0,0,1-5.15-.6A8.38,8.38,0,0,0,133.67,146.06Z" transform="translate(-121.75 -112.3)"/>
      <path class="cls-4" d="M137.05,147.86l-1.7-1.91a11.15,11.15,0,0,1,7.34.36,6.52,6.52,0,0,0,3.74.48,3.87,3.87,0,0,0,2.43-1.45c.73-.8,1.55-1.7,4.32-2l1.35,2c-2.2.21-2.78.85-3.45,1.59a5,5,0,0,1-3.08,1.8,9.46,9.46,0,0,1-5.15-.6A8.38,8.38,0,0,0,137.05,147.86Z" transform="translate(-121.75 -112.3)"/>
      <path class="cls-4" d="M131.6,140.13l-1.7-1.91a11.08,11.08,0,0,1,7.34.37,6.6,6.6,0,0,0,3.74.47,3.9,3.9,0,0,0,2.43-1.45c.72-.8,1.55-1.7,4.32-2l1.35,2c-2.2.21-2.78.85-3.45,1.59a5,5,0,0,1-3.08,1.8,9.46,9.46,0,0,1-5.15-.6A8.38,8.38,0,0,0,131.6,140.13Z" transform="translate(-121.75 -112.3)"/>
      <polygon points="9.96 26.12 12.29 25.91 13.3 26.45 11.78 26.36 9.96 26.12"/>
      <polygon points="15.9 27.3 18.38 28.24 19.98 27.73 17.95 27.47 15.9 27.3"/>
      <polygon points="16.88 30.29 15.13 30.2 14.41 30.68 16.19 30.5 18.45 31.41 19.88 31.39 17.92 30.63 16.88 30.29"/>
      <path d="M148.92,142.39c-.45.05-1.58.31-1.58.31l-.86,1.42,1.22-.87,1.89-.26Z" transform="translate(-121.75 -112.3)"/>
      <polygon points="28.07 33.58 27.26 34.59 25.43 35.17 26.45 35.61 27.96 34.99 28.07 33.58"/>
      <polygon points="20.39 34.52 18.62 33.98 17.26 34.31 18.88 34.42 20.39 34.52"/>
      <polygon points="14.5 32.32 13.49 32.5 14.9 32.58 14.5 32.32"/>
      <polygon class="cls-5" points="22.72 26.25 21.46 26.6 19.98 27.73 22.02 27.28 22.72 26.25"/>
      <polygon class="cls-5" points="24.32 32.38 22.67 33.18 22.49 33.67 24.07 33.26 24.32 32.38"/>
      <polygon class="cls-5" points="31.38 31.86 29.53 32.54 29.4 33.44 30.92 32.72 31.38 31.86"/>
      <polygon class="cls-5" points="13.38 31.77 12.13 32.83 11.68 32.16 13.38 31.77"/>
      <polygon class="cls-6" points="20.93 29.49 18.66 29.29 19.89 29.86 20.93 29.49"/>
      <path class="cls-6" d="M144.9,147.38l-2.11-.48s1.09.76,1.39.9a15.56,15.56,0,0,0,2.14.28Z" transform="translate(-121.75 -112.3)"/>
      <polygon class="cls-6" points="14.12 29.72 12.26 29.79 12.98 30.8 14.12 29.72"/>
      <path class="cls-6" d="M147.06,136.54l-2.09.85s-.84,1.22-.5,1.16a12.65,12.65,0,0,0,1.78-1Z" transform="translate(-121.75 -112.3)"/>
    </g>
    <g>
      <path class="cls-4" d="M292.38,150.57l-1.7-1.91A11.08,11.08,0,0,1,298,149a6.51,6.51,0,0,0,3.74.47,3.86,3.86,0,0,0,2.43-1.44c.72-.8,1.55-1.71,4.32-2l1.35,2a4.32,4.32,0,0,0-3.45,1.58,5,5,0,0,1-3.08,1.8,9.46,9.46,0,0,1-5.15-.6A8.44,8.44,0,0,0,292.38,150.57Z" transform="translate(-121.75 -112.3)"/>
      <path class="cls-4" d="M295.71,152.39l-1.7-1.91a11.09,11.09,0,0,1,7.34.37,6.48,6.48,0,0,0,3.73.47,3.91,3.91,0,0,0,2.43-1.44c.73-.8,1.55-1.71,4.33-2l1.35,2c-2.2.21-2.78.84-3.45,1.58a5,5,0,0,1-3.09,1.8,9.48,9.48,0,0,1-5.15-.6A8.41,8.41,0,0,0,295.71,152.39Z" transform="translate(-121.75 -112.3)"/>
      <path class="cls-4" d="M295,154.42l-1.7-1.91a11,11,0,0,1,7.34.37,6.6,6.6,0,0,0,3.74.47,3.9,3.9,0,0,0,2.43-1.45c.72-.79,1.54-1.7,4.32-2l1.35,2c-2.2.21-2.78.85-3.45,1.59a5,5,0,0,1-3.08,1.8,9.55,9.55,0,0,1-5.15-.6A8.38,8.38,0,0,0,295,154.42Z" transform="translate(-121.75 -112.3)"/>
      <path class="cls-4" d="M298.35,156.22l-1.7-1.92a11.14,11.14,0,0,1,7.34.37,6.52,6.52,0,0,0,3.74.48,3.87,3.87,0,0,0,2.43-1.45c.72-.8,1.55-1.7,4.32-2l1.35,2c-2.2.21-2.78.85-3.45,1.59a5.09,5.09,0,0,1-3.08,1.8,9.55,9.55,0,0,1-5.15-.6A8.38,8.38,0,0,0,298.35,156.22Z" transform="translate(-121.75 -112.3)"/>
      <path class="cls-4" d="M292.9,148.49l-1.7-1.92a11.09,11.09,0,0,1,7.34.37,6.6,6.6,0,0,0,3.74.48,3.9,3.9,0,0,0,2.43-1.45c.72-.8,1.55-1.7,4.32-2l1.35,2c-2.2.21-2.78.85-3.45,1.59a5.09,5.09,0,0,1-3.08,1.8,9.55,9.55,0,0,1-5.15-.6A8.38,8.38,0,0,0,292.9,148.49Z" transform="translate(-121.75 -112.3)"/>
      <polygon points="171.26 34.48 173.58 34.27 174.6 34.81 173.08 34.72 171.26 34.48"/>
      <polygon points="177.2 35.66 179.68 36.6 181.28 36.09 179.25 35.82 177.2 35.66"/>
      <polygon points="178.18 38.64 176.43 38.55 175.72 39.04 177.49 38.86 179.75 39.77 181.18 39.75 179.22 38.98 178.18 38.64"/>
      <path d="M310.21,150.75c-.44,0-1.57.31-1.57.31l-.86,1.41,1.21-.86,1.9-.26Z" transform="translate(-121.75 -112.3)"/>
      <polygon points="189.37 41.93 188.56 42.95 186.73 43.53 187.75 43.97 189.26 43.35 189.37 41.93"/>
      <polygon points="181.69 42.88 179.92 42.34 178.56 42.67 180.18 42.78 181.69 42.88"/>
      <polygon points="175.8 40.68 174.79 40.86 176.19 40.94 175.8 40.68"/>
      <polygon class="cls-5" points="184.02 34.61 182.76 34.95 181.28 36.09 183.31 35.64 184.02 34.61"/>
      <polygon class="cls-5" points="185.62 40.73 183.97 41.54 183.79 42.02 185.37 41.62 185.62 40.73"/>
      <polygon class="cls-5" points="192.68 40.22 190.83 40.9 190.69 41.8 192.22 41.08 192.68 40.22"/>
      <polygon class="cls-5" points="174.68 40.13 173.43 41.19 172.98 40.52 174.68 40.13"/>
      <polygon class="cls-6" points="182.22 37.84 179.96 37.65 181.19 38.22 182.22 37.84"/>
      <path class="cls-6" d="M306.2,155.74l-2.12-.48s1.1.75,1.4.9a15.32,15.32,0,0,0,2.14.27Z" transform="translate(-121.75 -112.3)"/>
      <polygon class="cls-6" points="175.42 38.08 173.56 38.15 174.28 39.16 175.42 38.08"/>
      <path class="cls-6" d="M308.36,144.9l-2.1.85s-.83,1.22-.49,1.16a12.65,12.65,0,0,0,1.78-1Z" transform="translate(-121.75 -112.3)"/>
    </g>
    <g>
      <path class="cls-4" d="M292.38,206.22l-1.7-1.91a11.08,11.08,0,0,1,7.34.37,6.6,6.6,0,0,0,3.74.47,3.91,3.91,0,0,0,2.43-1.44c.72-.8,1.55-1.71,4.32-2l1.35,2c-2.2.22-2.78.85-3.45,1.59a5,5,0,0,1-3.08,1.8,9.46,9.46,0,0,1-5.15-.6A8.38,8.38,0,0,0,292.38,206.22Z" transform="translate(-121.75 -112.3)"/>
      <path class="cls-4" d="M295.71,208l-1.7-1.92a11.09,11.09,0,0,1,7.34.37,6.49,6.49,0,0,0,3.73.48,3.87,3.87,0,0,0,2.43-1.45c.73-.8,1.55-1.7,4.33-2l1.35,2c-2.2.21-2.78.85-3.45,1.59a5,5,0,0,1-3.09,1.79,9.48,9.48,0,0,1-5.15-.59A8.35,8.35,0,0,0,295.71,208Z" transform="translate(-121.75 -112.3)"/>
      <path class="cls-4" d="M295,210.06l-1.7-1.91a11.08,11.08,0,0,1,7.34.37,6.6,6.6,0,0,0,3.74.48,3.94,3.94,0,0,0,2.43-1.45c.72-.8,1.54-1.71,4.32-2l1.35,2c-2.2.21-2.78.85-3.45,1.59a5.09,5.09,0,0,1-3.08,1.79,9.36,9.36,0,0,1-5.15-.6A8.44,8.44,0,0,0,295,210.06Z" transform="translate(-121.75 -112.3)"/>
      <path class="cls-4" d="M298.35,211.86l-1.7-1.91a11.08,11.08,0,0,1,7.34.37,6.51,6.51,0,0,0,3.74.47,3.91,3.91,0,0,0,2.43-1.44c.72-.8,1.55-1.71,4.32-2l1.35,2c-2.2.21-2.78.84-3.45,1.58a5,5,0,0,1-3.08,1.8,9.46,9.46,0,0,1-5.15-.6A8.44,8.44,0,0,0,298.35,211.86Z" transform="translate(-121.75 -112.3)"/>
      <path class="cls-4" d="M292.9,204.13l-1.7-1.91a11.09,11.09,0,0,1,7.34.37,6.51,6.51,0,0,0,3.74.47,3.94,3.94,0,0,0,2.43-1.44c.72-.8,1.55-1.71,4.32-2l1.35,2c-2.2.21-2.78.84-3.45,1.58a5,5,0,0,1-3.08,1.8,9.46,9.46,0,0,1-5.15-.6A8.44,8.44,0,0,0,292.9,204.13Z" transform="translate(-121.75 -112.3)"/>
      <polygon points="171.26 90.13 173.58 89.92 174.6 90.46 173.08 90.36 171.26 90.13"/>
      <polygon points="177.2 91.31 179.68 92.24 181.28 91.73 179.25 91.47 177.2 91.31"/>
      <polygon points="178.18 94.29 176.43 94.2 175.72 94.69 177.49 94.51 179.75 95.41 181.18 95.39 179.22 94.63 178.18 94.29"/>
      <path d="M310.21,206.4c-.44,0-1.57.3-1.57.3l-.86,1.42,1.21-.86,1.9-.27Z" transform="translate(-121.75 -112.3)"/>
      <polygon points="189.37 97.58 188.56 98.6 186.73 99.17 187.75 99.61 189.26 98.99 189.37 97.58"/>
      <polygon points="181.69 98.52 179.92 97.98 178.56 98.32 180.18 98.43 181.69 98.52"/>
      <polygon points="175.8 96.33 174.79 96.5 176.19 96.58 175.8 96.33"/>
      <polygon class="cls-5" points="184.02 90.25 182.76 90.6 181.28 91.73 183.31 91.28 184.02 90.25"/>
      <polygon class="cls-5" points="185.62 96.38 183.97 97.19 183.79 97.67 185.37 97.26 185.62 96.38"/>
      <polygon class="cls-5" points="192.68 95.87 190.83 96.55 190.69 97.44 192.22 96.73 192.68 95.87"/>
      <polygon class="cls-5" points="174.68 95.77 173.43 96.83 172.98 96.16 174.68 95.77"/>
      <polygon class="cls-6" points="182.22 93.49 179.96 93.3 181.19 93.86 182.22 93.49"/>
      <path class="cls-6" d="M306.2,211.38l-2.12-.48s1.1.76,1.4.9a15.56,15.56,0,0,0,2.14.28Z" transform="translate(-121.75 -112.3)"/>
      <polygon class="cls-6" points="175.42 93.73 173.56 93.79 174.28 94.8 175.42 93.73"/>
      <path class="cls-6" d="M308.36,200.54l-2.1.85s-.83,1.22-.49,1.16a12.65,12.65,0,0,0,1.78-1Z" transform="translate(-121.75 -112.3)"/>
    </g>
    <path class="cls-7" d="M179.57,144c1.5.68,2.74-.57,4-.8.31.35,0,1.06.13,1.46.91.66,2.68.42,3.36,1.32-.4.32-.94-.2-1.65-.39-1.22-.35-2.55-.14-2.09-1.93-1.09.52-2.91,1.47-4.18.6a8,8,0,0,1-1.27.66c-.5,1.07-.92,2.22-1.33,3.38-.88-.32-.9-1.52-2-1.66a3.56,3.56,0,0,0-.32,1c.25.06.52-.73.89-.53,0,.5-.54.93-1,1.12-.53-.33-.12-1.08,0-1.65a6.43,6.43,0,0,1-4,1.26,3.67,3.67,0,0,1-1.84-.54c-1.15-.85-.84-3.11-.06-4.16a4.93,4.93,0,0,1,2.91-1.66,16.23,16.23,0,0,0,.82-2c.36,0,.46-.09.57-.46,1.88-.73,4-1.16,5.58-2.25-2,.36-4.08,1-6.08,1.59a4.54,4.54,0,0,1-1.9.4c.07-.4.59-.45.88-.53l3.23-.93a12.64,12.64,0,0,1,4.44-.86c0,.69-.69.89-1.14,1.12-1.38.72-3.27,1.24-4.82,1.86a5.36,5.36,0,0,0,1.4,1.92,10.72,10.72,0,0,1,2.21.26c.76-.91,1.38-2.14,2.09-3.17.2-.29.46-.76.83-.73-.12.77-.77,1.32-1.21,2s-.8,1.38-1.2,2.06c.47.32,1.23.34,1.39,1-.57.13-1-.5-1.52-.6a17.71,17.71,0,0,0-1.83,3.58,14,14,0,0,0,2.72-1.06,6.6,6.6,0,0,0,.95-2.52c.17-2.07,1.44-3.29,2.66-4.37a3.62,3.62,0,0,1,.38-.79c.25-.06.23.16.38.2a9.55,9.55,0,0,1,5.83-1.39c.39,0,1.28.14,1.27.66,0,.84-1.36,1.8-2,2.32A74.3,74.3,0,0,1,179.57,144Zm6.65-7.75c-1.73.15-3.83.7-4.75,1.79a15.14,15.14,0,0,0-1.26,2.45c-.48.88-1.64,2.26-1,3.24a66,66,0,0,0,7.48-5.1,5.63,5.63,0,0,0,2-2.25A5.43,5.43,0,0,0,186.22,136.24Zm-7.15,5.56c.38-1,1.13-2,1.39-2.85A5.4,5.4,0,0,0,179.07,141.8Zm-7.41-.4c.56-.12,1.3-.05,1.83-.19a10.66,10.66,0,0,1-1.2-1.53C172.13,140.31,171.85,140.81,171.66,141.4Zm-.13.4a7.82,7.82,0,0,0-.51,1.65c-.14.54-.17,1.29-.63,1.53-.16-.91.41-2.11.63-3a3.6,3.6,0,0,0-3.1,3.58c0,1.42,1.1,1.93,2.6,1.92,3.16,0,5.47-2.86,3.35-5.69A11.07,11.07,0,0,0,171.53,141.8Zm3.61,2.38c.34-.74.71-1.46,1.08-2.18a12.74,12.74,0,0,0-1.84-.26A6.61,6.61,0,0,1,175.14,144.18Zm3.1.07a2.3,2.3,0,0,0,.57-.26c0-.2,0-.47-.18-.54C178.52,143.75,178.35,144,178.24,144.25Zm-3.48,2.05c.85.16,1.14.89,1.65,1.39a6.74,6.74,0,0,1,.88-2.31c0-.08,0-.16-.12-.14C176.5,145.74,175.47,145.85,174.76,146.3Z" transform="translate(-121.75 -112.3)"/>
    <g>
      <path class="cls-27" d="M206.8,147.53l-6.42-6.62a4.19,4.19,0,0,0-6.7-4.75l-.1.11-.11.09a4.19,4.19,0,0,0,4.22,7l.53.55a1,1,0,0,1,1.31,1.35l.59.61a1,1,0,0,1,1.32,1.35l.58.61a1,1,0,0,1,1.32,1.35l.41.42,3.29-.18.21-.2Z" transform="translate(-121.75 -112.3)"/>
      <path class="cls-9" d="M207.25,149.19l-7.08-8.08a4.13,4.13,0,1,0-2.48,2.22l.53.55a1,1,0,0,1,1.31,1.35l.59.61a1,1,0,0,1,1.32,1.35l.58.61a1,1,0,0,1,1.32,1.35l.41.42,3.29-.18Z" transform="translate(-121.75 -112.3)"/>
      <path class="cls-28" d="M206.8,147.53l-6.42-6.62a4.14,4.14,0,1,0-2.49,2.22l.54.55a1,1,0,0,1,1.31,1.35l.59.61a1,1,0,0,1,1.31,1.35l.59.61a1,1,0,0,1,1.31,1.35l.41.42,3.3-.18Z" transform="translate(-121.75 -112.3)"/>
      <path class="cls-29" d="M193.86,141.81a3.8,3.8,0,1,1,6.21-1l-.09.2,6.52,6.72.32,1.18-2.73.15-.13-.14a1.37,1.37,0,0,0-1.66-1.71l-.25-.25a1.35,1.35,0,0,0-1.65-1.7l-.25-.26a1.28,1.28,0,0,0-.32-1.34,1.3,1.3,0,0,0-1.33-.36l-.51-.53-.2.07A3.84,3.84,0,0,1,193.86,141.81Z" transform="translate(-121.75 -112.3)"/>
      <path class="cls-12" d="M198.89,141.53a3.3,3.3,0,1,1,.07-4.67A3.3,3.3,0,0,1,198.89,141.53Z" transform="translate(-121.75 -112.3)"/>
      <text class="cls-13" transform="translate(71.62 25.43) rotate(45.85)">Pub</text>
    </g>
    <line class="cls-16" x1="88.85" y1="20.22" x2="88.85" y2="56.89"/>
    <rect class="cls-17" x="4.1" y="20.08" width="144.43" height="36.83" rx="2"/>
    <rect class="cls-22" x="165.05" y="0.29" width="128.89" height="15.79"/>
    <line class="cls-16" x1="199.55" y1="0.3" x2="199.55" y2="104.56"/>
    <line class="cls-16" x1="228.55" y1="0.3" x2="228.55" y2="104.88"/>
    <text class="cls-30" transform="translate(319.92 116.45)">Joh<tspan class="cls-31" x="11.39" y="0">n</tspan><tspan class="cls-32" x="15.72" y="0">’s</tspan><tspan x="0" y="9.5">transaction</tspan><tspan x="0" y="19">that Lisa</tspan><tspan x="0" y="28.5">verifies</tspan></text>
    <text class="cls-30" transform="translate(316.92 75.16)">John spends<tspan x="0" y="9.5">these UT</tspan><tspan class="cls-31" x="30.49" y="9.5">X</tspan><tspan x="34.95" y="9.5">Os.</tspan></text>
    <text class="cls-30" transform="translate(316.67 14.05)">Lisa’s<tspan x="0" y="9.5">UT</tspan><tspan class="cls-31" x="9.28" y="9.5">X</tspan><tspan x="13.73" y="9.5">O set</tspan></text>
    <line class="cls-24" x1="293.87" y1="49.72" x2="164.92" y2="49.72"/>
    <text class="cls-2" transform="translate(210.6 42.54)">0</text>
    <line class="cls-23" x1="164.92" y1="16.04" x2="293.81" y2="16.04"/>
    <rect class="cls-24" x="164.92" y="0.25" width="128.9" height="104.45"/>
    <line class="cls-24" x1="293.82" y1="28.37" x2="164.91" y2="28.37"/>
    <g>
      <path class="cls-4" d="M292.38,171.92l-1.7-1.91a11.08,11.08,0,0,1,7.34.37,6.51,6.51,0,0,0,3.74.47,3.86,3.86,0,0,0,2.43-1.44c.72-.8,1.55-1.71,4.32-2l1.35,2c-2.2.21-2.78.84-3.45,1.58a5,5,0,0,1-3.08,1.8,9.46,9.46,0,0,1-5.15-.6A8.44,8.44,0,0,0,292.38,171.92Z" transform="translate(-121.75 -112.3)"/>
      <path class="cls-4" d="M295.71,173.74l-1.7-1.91a11.09,11.09,0,0,1,7.34.37,6.56,6.56,0,0,0,3.73.47,3.91,3.91,0,0,0,2.43-1.44c.73-.8,1.55-1.71,4.33-2l1.35,2c-2.2.22-2.78.85-3.45,1.59a5,5,0,0,1-3.09,1.8,9.48,9.48,0,0,1-5.15-.6A8.35,8.35,0,0,0,295.71,173.74Z" transform="translate(-121.75 -112.3)"/>
      <path class="cls-4" d="M295,175.77l-1.7-1.91a11,11,0,0,1,7.34.36,6.6,6.6,0,0,0,3.74.48,3.9,3.9,0,0,0,2.43-1.45c.72-.8,1.54-1.7,4.32-2l1.35,2c-2.2.21-2.78.85-3.45,1.59a5,5,0,0,1-3.08,1.8,9.55,9.55,0,0,1-5.15-.6A8.38,8.38,0,0,0,295,175.77Z" transform="translate(-121.75 -112.3)"/>
      <path class="cls-4" d="M298.35,177.57l-1.7-1.92A11.08,11.08,0,0,1,304,176a6.6,6.6,0,0,0,3.74.48,3.87,3.87,0,0,0,2.43-1.45c.72-.8,1.55-1.7,4.32-2l1.35,2c-2.2.21-2.78.85-3.45,1.59a5,5,0,0,1-3.08,1.79,9.36,9.36,0,0,1-5.15-.6A8.39,8.39,0,0,0,298.35,177.57Z" transform="translate(-121.75 -112.3)"/>
      <path class="cls-4" d="M292.9,169.84l-1.7-1.92a11.09,11.09,0,0,1,7.34.37,6.6,6.6,0,0,0,3.74.48,3.9,3.9,0,0,0,2.43-1.45c.72-.8,1.55-1.7,4.32-2l1.35,2a4.32,4.32,0,0,0-3.45,1.58,5,5,0,0,1-3.08,1.8,9.46,9.46,0,0,1-5.15-.6A8.39,8.39,0,0,0,292.9,169.84Z" transform="translate(-121.75 -112.3)"/>
      <polygon points="171.26 55.83 173.58 55.62 174.6 56.16 173.08 56.06 171.26 55.83"/>
      <polygon points="177.2 57.01 179.68 57.94 181.28 57.44 179.25 57.17 177.2 57.01"/>
      <polygon points="178.18 59.99 176.43 59.9 175.72 60.39 177.49 60.21 179.75 61.12 181.18 61.1 179.22 60.33 178.18 59.99"/>
      <path d="M310.21,172.1c-.44,0-1.57.3-1.57.3l-.86,1.42L309,173l1.9-.26Z" transform="translate(-121.75 -112.3)"/>
      <polygon points="189.37 63.28 188.56 64.3 186.73 64.88 187.75 65.32 189.26 64.7 189.37 63.28"/>
      <polygon points="181.69 64.22 179.92 63.69 178.56 64.02 180.18 64.13 181.69 64.22"/>
      <polygon points="175.8 62.03 174.79 62.21 176.19 62.28 175.8 62.03"/>
      <polygon class="cls-5" points="184.02 55.96 182.76 56.3 181.28 57.44 183.31 56.99 184.02 55.96"/>
      <polygon class="cls-5" points="185.62 62.08 183.97 62.89 183.79 63.37 185.37 62.97 185.62 62.08"/>
      <polygon class="cls-5" points="192.68 61.57 190.83 62.25 190.69 63.15 192.22 62.43 192.68 61.57"/>
      <polygon class="cls-5" points="174.68 61.48 173.43 62.54 172.98 61.87 174.68 61.48"/>
      <polygon class="cls-6" points="182.22 59.19 179.96 59 181.19 59.56 182.22 59.19"/>
      <path class="cls-6" d="M306.2,177.09l-2.12-.48s1.1.75,1.4.89a14.14,14.14,0,0,0,2.14.28Z" transform="translate(-121.75 -112.3)"/>
      <polygon class="cls-6" points="175.42 59.43 173.56 59.49 174.28 60.51 175.42 59.43"/>
      <path class="cls-6" d="M308.36,166.25l-2.1.85s-.83,1.21-.49,1.16a12.56,12.56,0,0,0,1.78-1Z" transform="translate(-121.75 -112.3)"/>
    </g>
    <text class="cls-26" transform="translate(170.92 77.64)">...</text>
    <text class="cls-26" transform="translate(205.55 77.64)">...</text>
    <line class="cls-24" x1="293.87" y1="71.06" x2="164.92" y2="71.06"/>
    <text class="cls-2" transform="translate(210.6 63.77)">1</text>
    <text class="cls-25" transform="translate(176.85 10.16)">txid</text>
    <text class="cls-25" transform="translate(209.58 10.16)">idx</text>
    <text class="cls-25" transform="translate(251.07 10.16)">output</text>
    <line class="cls-24" x1="293.87" y1="83.35" x2="164.92" y2="83.35"/>
    <text class="cls-2" transform="translate(210.6 97.53)">0</text>
    <path class="cls-33" d="M328,253.54c0,4.86-8.84,8.79-19.74,8.79s-19.74-3.93-19.74-8.79,8.84-8.79,19.74-8.79S328,248.69,328,253.54Z" transform="translate(-121.75 -112.3)"/>
    <g>
      <path class="cls-34" d="M437.33,272.67c9.84,0,19.67-5.92,19.67-12.92" transform="translate(-121.75 -112.3)"/>
      <polygon points="316.13 162.23 312.89 160.36 316.13 158.49 316.13 162.23"/>
    </g>
    <g>
      <path class="cls-34" d="M421,174c9.33,0,7.17,16,14.67,16" transform="translate(-121.75 -112.3)"/>
      <polygon points="299.8 63.56 296.56 61.69 299.8 59.82 299.8 63.56"/>
    </g>
    <g>
      <path class="cls-34" d="M421,119.67c6.33,0,9.33,3.33,14.67,3.33" transform="translate(-121.75 -112.3)"/>
      <polygon points="299.8 9.23 296.56 7.36 299.8 5.49 299.8 9.23"/>
    </g>
    <g>
      <path class="cls-34" d="M421,206c9.33,0,7.17-16,14.67-16" transform="translate(-121.75 -112.3)"/>
      <polygon points="299.8 95.56 296.56 93.69 299.8 91.82 299.8 95.56"/>
    </g>
    <text class="cls-26" transform="translate(205.55 22.66)">...</text>
    <text class="cls-26" transform="translate(234.55 77.64)">...</text>
    <text class="cls-26" transform="translate(234.55 22.66)">...</text>
    <path d="M263.5,142.09a24.51,24.51,0,0,1,2.33.84V140a22.94,22.94,0,0,1-2.32.87,17.55,17.55,0,0,1-2.54.6A16.07,16.07,0,0,1,263.5,142.09Z" transform="translate(-121.75 -112.3)"/>
    <path class="cls-35" d="M265.35,141.47c9.15,0,12.48,9.87,21.22,9.87" transform="translate(-121.75 -112.3)"/>
    <path d="M263.5,159c.95.29,1.57.55,2.33.85v-2.9a22.94,22.94,0,0,1-2.32.87,17.55,17.55,0,0,1-2.54.6A17,17,0,0,1,263.5,159Z" transform="translate(-121.75 -112.3)"/>
    <path class="cls-35" d="M265.35,158.37c8.65,0,11.15,14.3,21.22,14.3" transform="translate(-121.75 -112.3)"/>
    <path d="M263.5,228.29a24.51,24.51,0,0,1,2.33.84v-2.9a22.94,22.94,0,0,1-2.32.87,17.55,17.55,0,0,1-2.54.6A16.07,16.07,0,0,1,263.5,228.29Z" transform="translate(-121.75 -112.3)"/>
    <path class="cls-35" d="M265.35,227.67c10.32,0,10.65-21.5,21.22-21.5" transform="translate(-121.75 -112.3)"/>
    <path d="M343,186.43c-.29.95-.55,1.57-.85,2.33H345a22.43,22.43,0,0,1-.87-2.33,17.47,17.47,0,0,1-.6-2.53A17,17,0,0,1,343,186.43Z" transform="translate(-121.75 -112.3)"/>
    <path class="cls-35" d="M343.57,188.28c0,22.22-2.82,50.94-17.95,61" transform="translate(-121.75 -112.3)"/>
    <path d="M297.78,219.76a24.39,24.39,0,0,1-.85,2.33h2.9a23.59,23.59,0,0,1-.86-2.32,16.54,16.54,0,0,1-.61-2.54A17,17,0,0,1,297.78,219.76Z" transform="translate(-121.75 -112.3)"/>
    <path class="cls-35" d="M298.4,221.61c0,5.89-1.4,12.56-11.4,18.06-6.94,3.81-11,8.33-11,16.33,0,7.58,3.21,13.71,12.54,15" transform="translate(-121.75 -112.3)"/>
    <path class="cls-33" d="M328,271c0,4.86-8.84,8.79-19.74,8.79S288.5,275.9,288.5,271s8.84-8.79,19.74-8.79S328,266.19,328,271Z" transform="translate(-121.75 -112.3)"/>
  </g>
</svg>
