<svg xmlns="http://www.w3.org/2000/svg" xmlns:xlink="http://www.w3.org/1999/xlink" width="305.27" height="87.76" viewBox="0 0 305.27 87.76">
  <defs>
    <style>
      .cls-1 {
        fill: #fef0e8;
      }

      .cls-2 {
        font-size: 11.5px;
        font-family: Nimbus Mono PS;
      }

      .cls-3 {
        font-size: 7px;
      }

      .cls-4 {
        fill: #fda452;
      }

      .cls-17, .cls-22, .cls-24, .cls-4, .cls-8 {
        stroke: #000;
      }

      .cls-24, .cls-4, .cls-9 {
        stroke-width: 0.3px;
      }

      .cls-5 {
        fill: #fbafc5;
      }

      .cls-5, .cls-6, .cls-7 {
        fill-rule: evenodd;
      }

      .cls-6 {
        fill: #96c749;
      }

      .cls-7 {
        fill: #28708e;
      }

      .cls-14, .cls-15, .cls-17, .cls-22, .cls-23, .cls-24, .cls-8 {
        fill: none;
      }

      .cls-15, .cls-17, .cls-23, .cls-8, .cls-9 {
        stroke-linejoin: round;
      }

      .cls-9 {
        fill: #267520;
        stroke: #267520;
      }

      .cls-10 {
        fill: url(#linear-gradient);
      }

      .cls-11 {
        fill: url(#linear-gradient-2);
      }

      .cls-12 {
        fill: #fff;
      }

      .cls-13 {
        font-size: 3.67px;
        font-family: ArialMT, Arial;
      }

      .cls-14 {
        stroke: #4d4d4d;
      }

      .cls-14, .cls-22, .cls-23 {
        stroke-width: 0.5px;
      }

      .cls-15 {
        stroke: #e60001;
      }

      .cls-16 {
        font-size: 9px;
        font-family: Humanist521BT-BoldCondensed, Humanst521 Cn BT;
        font-weight: 700;
      }

      .cls-17 {
        stroke-width: 0.75px;
      }

      .cls-18 {
        fill: url(#linear-gradient-3);
      }

      .cls-19 {
        fill: url(#linear-gradient-4);
      }

      .cls-20 {
        fill: url(#linear-gradient-5);
      }

      .cls-21 {
        fill: url(#linear-gradient-6);
      }

      .cls-23 {
        stroke: #e80001;
      }

      .cls-24 {
        stroke-miterlimit: 10;
      }
    </style>
    <linearGradient id="linear-gradient" x1="-96.87" y1="297.94" x2="-78.06" y2="297.94" gradientTransform="translate(499.31 -6.95) rotate(45.85)" gradientUnits="userSpaceOnUse">
      <stop offset="0" stop-color="#5fb749"/>
      <stop offset="1" stop-color="#dbf1c6"/>
    </linearGradient>
    <linearGradient id="linear-gradient-2" x1="-96.54" y1="297.94" x2="-78.59" y2="297.94" gradientTransform="translate(499.31 -6.95) rotate(45.85)" gradientUnits="userSpaceOnUse">
      <stop offset="0" stop-color="#dbf1c6"/>
      <stop offset="1" stop-color="#5fb749"/>
    </linearGradient>
    <linearGradient id="linear-gradient-3" x1="26.8" y1="195.23" x2="45.6" y2="195.23" xlink:href="#linear-gradient"/>
    <linearGradient id="linear-gradient-4" x1="27.13" y1="195.23" x2="45.08" y2="195.23" xlink:href="#linear-gradient-2"/>
    <linearGradient id="linear-gradient-5" x1="39.03" y1="207.11" x2="57.83" y2="207.11" xlink:href="#linear-gradient"/>
    <linearGradient id="linear-gradient-6" x1="39.36" y1="207.11" x2="57.31" y2="207.11" xlink:href="#linear-gradient-2"/>
  </defs>
  <g id="Layer_2" data-name="Layer 2">
    <rect class="cls-1" x="0.5" y="17.27" width="144.43" height="36.83" rx="2"/>
    <text class="cls-2" transform="translate(32.36 30.39)">4</text>
    <text class="cls-2" transform="translate(88.51 30.39)">12</text>
    <text class="cls-2" transform="translate(110.82 30.39)">PKH<tspan class="cls-3" x="20.7" y="3">x</tspan></text>
    <text class="cls-2" transform="translate(95.41 47.39)">8</text>
    <text class="cls-2" transform="translate(110.82 47.39)">PKH<tspan class="cls-3" x="20.7" y="3">1</tspan></text>
    <g>
      <path class="cls-4" d="M155.47,137.14l-1.7-1.91a11.08,11.08,0,0,1,7.34.37,6.51,6.51,0,0,0,3.74.47,3.86,3.86,0,0,0,2.43-1.44c.72-.8,1.55-1.71,4.32-2l1.35,2c-2.2.21-2.78.84-3.45,1.58a5,5,0,0,1-3.08,1.8,9.46,9.46,0,0,1-5.15-.6A8.44,8.44,0,0,0,155.47,137.14Z" transform="translate(-149.73 -110.04)"/>
      <path class="cls-4" d="M158.8,139l-1.7-1.91a11.09,11.09,0,0,1,7.34.37,6.56,6.56,0,0,0,3.73.47,3.91,3.91,0,0,0,2.43-1.44c.73-.8,1.55-1.71,4.32-2l1.36,2c-2.2.22-2.78.85-3.45,1.59a5,5,0,0,1-3.09,1.8,9.48,9.48,0,0,1-5.15-.6A8.35,8.35,0,0,0,158.8,139Z" transform="translate(-149.73 -110.04)"/>
      <path class="cls-4" d="M158.06,141l-1.7-1.91a11,11,0,0,1,7.34.36,6.6,6.6,0,0,0,3.74.48,3.9,3.9,0,0,0,2.43-1.45c.72-.8,1.54-1.7,4.32-2l1.35,2c-2.2.21-2.78.85-3.45,1.59a5,5,0,0,1-3.08,1.8,9.55,9.55,0,0,1-5.15-.6A8.38,8.38,0,0,0,158.06,141Z" transform="translate(-149.73 -110.04)"/>
      <path class="cls-4" d="M161.44,142.79l-1.7-1.92a11.09,11.09,0,0,1,7.34.37,6.6,6.6,0,0,0,3.74.48,3.9,3.9,0,0,0,2.43-1.45c.72-.8,1.55-1.7,4.32-2l1.35,2c-2.2.21-2.78.85-3.45,1.59a5,5,0,0,1-3.08,1.79,9.36,9.36,0,0,1-5.15-.6A8.39,8.39,0,0,0,161.44,142.79Z" transform="translate(-149.73 -110.04)"/>
      <path class="cls-4" d="M156,135.06l-1.7-1.92a11.09,11.09,0,0,1,7.34.37,6.6,6.6,0,0,0,3.74.48,3.93,3.93,0,0,0,2.43-1.45c.72-.8,1.55-1.7,4.32-2l1.35,2a4.32,4.32,0,0,0-3.45,1.58,5,5,0,0,1-3.08,1.8,9.46,9.46,0,0,1-5.15-.6A8.39,8.39,0,0,0,156,135.06Z" transform="translate(-149.73 -110.04)"/>
      <polygon points="6.37 23.31 8.69 23.1 9.7 23.64 8.19 23.55 6.37 23.31"/>
      <polygon points="12.31 24.49 14.79 25.42 16.39 24.92 14.35 24.65 12.31 24.49"/>
      <polygon points="13.28 27.47 11.54 27.38 10.82 27.87 12.59 27.69 14.86 28.6 16.28 28.58 14.32 27.81 13.28 27.47"/>
      <path d="M173.3,137.32c-.44,0-1.57.3-1.57.3l-.87,1.42,1.22-.86,1.9-.26Z" transform="translate(-149.73 -110.04)"/>
      <polygon points="24.47 30.76 23.66 31.78 21.83 32.36 22.86 32.8 24.37 32.18 24.47 30.76"/>
      <polygon points="16.8 31.7 15.02 31.17 13.66 31.5 15.29 31.61 16.8 31.7"/>
      <polygon points="10.9 29.51 9.89 29.69 11.3 29.77 10.9 29.51"/>
      <polygon class="cls-5" points="19.12 23.44 17.87 23.78 16.39 24.92 18.42 24.47 19.12 23.44"/>
      <polygon class="cls-5" points="20.72 29.56 19.07 30.37 18.89 30.85 20.48 30.45 20.72 29.56"/>
      <polygon class="cls-5" points="27.78 29.05 25.94 29.73 25.8 30.63 27.33 29.91 27.78 29.05"/>
      <polygon class="cls-5" points="9.79 28.96 8.54 30.02 8.09 29.35 9.79 28.96"/>
      <polygon class="cls-6" points="17.33 26.67 15.06 26.48 16.29 27.05 17.33 26.67"/>
      <path class="cls-6" d="M169.29,142.31l-2.12-.48s1.09.75,1.4.89a14.14,14.14,0,0,0,2.14.28Z" transform="translate(-149.73 -110.04)"/>
      <polygon class="cls-6" points="10.53 26.91 8.66 26.97 9.38 27.98 10.53 26.91"/>
      <path class="cls-6" d="M171.45,131.47l-2.1.85s-.83,1.21-.5,1.16a12.2,12.2,0,0,0,1.79-1Z" transform="translate(-149.73 -110.04)"/>
    </g>
    <path class="cls-7" d="M204,138.91c1.5.68,2.74-.56,4-.79.31.34,0,1,.13,1.46.91.65,2.68.41,3.36,1.32-.4.31-.94-.2-1.65-.4-1.22-.34-2.55-.13-2.09-1.92-1.09.51-2.92,1.47-4.18.6a10.14,10.14,0,0,1-1.27.66,35.47,35.47,0,0,0-1.33,3.38c-.88-.32-.91-1.53-2-1.66a3.49,3.49,0,0,0-.32,1c.25.07.51-.73.89-.53,0,.51-.54.94-1,1.13-.53-.33-.12-1.08,0-1.66a6.46,6.46,0,0,1-4,1.26,3.56,3.56,0,0,1-1.83-.53c-1.15-.86-.84-3.11-.07-4.17a4.92,4.92,0,0,1,2.92-1.65,16.91,16.91,0,0,0,.82-2c.36,0,.45-.09.57-.46,1.88-.74,4-1.16,5.58-2.26-1.95.37-4.08,1-6.09,1.59a4.2,4.2,0,0,1-1.9.4c.08-.39.6-.44.89-.53,1-.3,2.13-.61,3.23-.92a12.61,12.61,0,0,1,4.44-.87c0,.7-.69.89-1.14,1.13-1.38.72-3.27,1.23-4.82,1.85a5.36,5.36,0,0,0,1.4,1.92,11.42,11.42,0,0,1,2.21.27c.76-.91,1.38-2.14,2.09-3.18.2-.28.46-.75.83-.73-.12.77-.77,1.33-1.21,2s-.8,1.38-1.2,2c.47.33,1.23.35,1.39,1-.57.12-1-.5-1.52-.6a17.92,17.92,0,0,0-1.84,3.57,13.82,13.82,0,0,0,2.73-1,6.76,6.76,0,0,0,.95-2.52,6.39,6.39,0,0,1,2.66-4.37,3.21,3.21,0,0,1,.38-.79c.25-.06.23.16.38.19a9.6,9.6,0,0,1,5.83-1.39c.39,0,1.27.14,1.26.66,0,.84-1.35,1.81-2,2.32A71.2,71.2,0,0,1,204,138.91Zm6.65-7.74c-1.73.14-3.83.7-4.75,1.78a16,16,0,0,0-1.26,2.45c-.48.88-1.64,2.26-1,3.25a68.76,68.76,0,0,0,7.48-5.1,5.69,5.69,0,0,0,2-2.25A5.29,5.29,0,0,0,210.61,131.17Zm-7.15,5.56c.38-1,1.13-1.95,1.39-2.85A5.4,5.4,0,0,0,203.46,136.73Zm-7.42-.4c.57-.12,1.31-.05,1.84-.2a10.57,10.57,0,0,1-1.2-1.52C196.52,135.24,196.24,135.74,196,136.33Zm-.12.4a7.64,7.64,0,0,0-.51,1.65c-.14.54-.17,1.29-.63,1.52-.16-.9.41-2.11.63-3a3.59,3.59,0,0,0-3.1,3.58c0,1.42,1.1,1.93,2.59,1.92,3.17,0,5.48-2.86,3.36-5.7A11.13,11.13,0,0,0,195.92,136.73Zm3.61,2.38c.34-.75.71-1.46,1.08-2.18a11.63,11.63,0,0,0-1.84-.27A6.92,6.92,0,0,1,199.53,139.11Zm3.1.07c.24,0,.37-.19.57-.27,0-.19,0-.46-.19-.53C202.91,138.67,202.74,138.9,202.63,139.18Zm-3.48,2c.85.15,1.14.88,1.65,1.39a6.8,6.8,0,0,1,.88-2.32c0-.08,0-.15-.12-.13C200.89,140.67,199.86,140.78,199.15,141.23Z" transform="translate(-149.73 -110.04)"/>
    <g>
      <path class="cls-8" d="M231.19,142.45l-6.42-6.61a4.19,4.19,0,0,0-6.7-4.75l-.1.1-.11.1a4.18,4.18,0,0,0,4.21,7l.54.55a1,1,0,0,1,1.31,1.36l.59.6a.91.91,0,0,1,1.16.19.88.88,0,0,1,.15,1.16l.59.61a.93.93,0,0,1,1.17.19.89.89,0,0,1,.14,1.16l.41.43,3.3-.18.21-.2Z" transform="translate(-149.73 -110.04)"/>
      <path class="cls-9" d="M231.64,144.12,224.56,136a4.14,4.14,0,1,0-2.49,2.21l.54.55a1,1,0,0,1,1.31,1.36l.59.6a.91.91,0,0,1,1.16.19.88.88,0,0,1,.15,1.16l.59.61a.93.93,0,0,1,1.17.19.89.89,0,0,1,.14,1.16l.41.43,3.3-.18Z" transform="translate(-149.73 -110.04)"/>
      <path class="cls-10" d="M231.19,142.45l-6.42-6.61a4.14,4.14,0,1,0-2.49,2.21l.54.55a1,1,0,0,1,1.31,1.36l.59.6a.91.91,0,0,1,1.16.19.89.89,0,0,1,.15,1.16l.59.61a.91.91,0,0,1,1.16.19.89.89,0,0,1,.15,1.16l.41.43,3.3-.18Z" transform="translate(-149.73 -110.04)"/>
      <path class="cls-11" d="M218.25,136.74a3.8,3.8,0,1,1,6.21-1l-.09.21,6.52,6.71.32,1.19-2.73.14-.13-.13a1.32,1.32,0,0,0-.33-1.35,1.3,1.3,0,0,0-1.33-.36l-.25-.25a1.35,1.35,0,0,0-1.65-1.71l-.25-.25a1.28,1.28,0,0,0-.32-1.34,1.29,1.29,0,0,0-1.34-.37l-.5-.52-.2.06A3.81,3.81,0,0,1,218.25,136.74Z" transform="translate(-149.73 -110.04)"/>
      <path class="cls-12" d="M223.28,136.46a3.3,3.3,0,1,1,.07-4.67A3.3,3.3,0,0,1,223.28,136.46Z" transform="translate(-149.73 -110.04)"/>
      <text class="cls-13" transform="translate(68.03 22.62) rotate(45.85)">Pub</text>
    </g>
    <line class="cls-14" x1="85.26" y1="17.41" x2="85.26" y2="54.08"/>
    <rect class="cls-15" x="0.5" y="17.27" width="144.43" height="36.83" rx="2"/>
    <text class="cls-16" transform="translate(200.07 7.57)">Public key<tspan x="0" y="9.5">revealed!</tspan></text>
    <text class="cls-16" transform="translate(252.04 7.57)">Created<tspan x="0" y="9.5">now</tspan></text>
    <g>
      <rect class="cls-1" x="160.34" y="34.46" width="144.43" height="36.83" rx="2"/>
      <text class="cls-2" transform="translate(192.2 47.58)">1</text>
      <text class="cls-2" transform="translate(192.2 64.58)">0</text>
      <text class="cls-2" transform="translate(248.35 47.58)">10</text>
      <text class="cls-2" transform="translate(270.65 47.58)">PKH<tspan class="cls-3" x="20.7" y="3">c</tspan></text>
      <g>
        <path class="cls-4" d="M315.31,154.33l-1.7-1.91a11.09,11.09,0,0,1,7.34.37,6.5,6.5,0,0,0,3.74.47,3.92,3.92,0,0,0,2.43-1.44c.72-.8,1.54-1.71,4.32-2l1.35,2a4.32,4.32,0,0,0-3.45,1.58,5,5,0,0,1-3.08,1.8,9.46,9.46,0,0,1-5.15-.6A8.44,8.44,0,0,0,315.31,154.33Z" transform="translate(-149.73 -110.04)"/>
        <path class="cls-4" d="M318.63,156.15l-1.7-1.91a11.08,11.08,0,0,1,7.34.37,6.6,6.6,0,0,0,3.74.47,3.91,3.91,0,0,0,2.43-1.44c.73-.8,1.55-1.71,4.32-2l1.35,2c-2.2.22-2.78.85-3.45,1.59a5,5,0,0,1-3.08,1.8,9.46,9.46,0,0,1-5.15-.6A8.44,8.44,0,0,0,318.63,156.15Z" transform="translate(-149.73 -110.04)"/>
        <path class="cls-4" d="M317.9,158.18l-1.7-1.91a11,11,0,0,1,7.34.37,6.65,6.65,0,0,0,3.73.47,3.87,3.87,0,0,0,2.43-1.45c.73-.8,1.55-1.7,4.32-2l1.36,2c-2.2.21-2.78.85-3.45,1.59a5,5,0,0,1-3.09,1.8,9.58,9.58,0,0,1-5.15-.6A8.35,8.35,0,0,0,317.9,158.18Z" transform="translate(-149.73 -110.04)"/>
        <path class="cls-4" d="M321.28,160l-1.7-1.92a11.09,11.09,0,0,1,7.34.37,6.57,6.57,0,0,0,3.73.48,3.87,3.87,0,0,0,2.43-1.45c.73-.8,1.55-1.7,4.33-2l1.35,2c-2.2.21-2.78.85-3.45,1.59a5,5,0,0,1-3.09,1.79,9.39,9.39,0,0,1-5.15-.6A8.42,8.42,0,0,0,321.28,160Z" transform="translate(-149.73 -110.04)"/>
        <path class="cls-4" d="M315.83,152.25l-1.71-1.92a11.11,11.11,0,0,1,7.35.37,6.57,6.57,0,0,0,3.73.48,3.87,3.87,0,0,0,2.43-1.45c.73-.8,1.55-1.7,4.32-2l1.36,2c-2.2.21-2.78.85-3.45,1.59a5,5,0,0,1-3.09,1.79,9.48,9.48,0,0,1-5.15-.6A8.36,8.36,0,0,0,315.83,152.25Z" transform="translate(-149.73 -110.04)"/>
        <polygon points="166.2 40.5 168.53 40.29 169.54 40.83 168.02 40.74 166.2 40.5"/>
        <polygon points="172.14 41.68 174.62 42.62 176.22 42.11 174.19 41.84 172.14 41.68"/>
        <polygon points="173.12 44.66 171.37 44.57 170.66 45.06 172.43 44.88 174.7 45.79 176.12 45.77 174.16 45 173.12 44.66"/>
        <path d="M333.14,154.51c-.44,0-1.57.3-1.57.3l-.87,1.42,1.22-.86,1.9-.26Z" transform="translate(-149.73 -110.04)"/>
        <polygon points="184.31 47.95 183.5 48.97 181.67 49.55 182.7 49.99 184.21 49.37 184.31 47.95"/>
        <polygon points="176.64 48.9 174.86 48.36 173.5 48.69 175.12 48.8 176.64 48.9"/>
        <polygon points="170.74 46.7 169.73 46.88 171.14 46.96 170.74 46.7"/>
        <polygon class="cls-5" points="178.96 40.63 177.71 40.97 176.22 42.11 178.26 41.66 178.96 40.63"/>
        <polygon class="cls-5" points="180.56 46.75 178.91 47.56 178.73 48.04 180.31 47.64 180.56 46.75"/>
        <polygon class="cls-5" points="187.62 46.24 185.77 46.92 185.64 47.82 187.16 47.1 187.62 46.24"/>
        <polygon class="cls-5" points="169.62 46.15 168.37 47.21 167.92 46.54 169.62 46.15"/>
        <polygon class="cls-6" points="177.17 43.86 174.9 43.67 176.13 44.24 177.17 43.86"/>
        <path class="cls-6" d="M329.12,159.5,327,159s1.09.75,1.4.89a14,14,0,0,0,2.14.28Z" transform="translate(-149.73 -110.04)"/>
        <polygon class="cls-6" points="170.36 44.1 168.5 44.16 169.22 45.18 170.36 44.1"/>
        <path class="cls-6" d="M331.28,148.66l-2.09.85s-.84,1.22-.5,1.16a12.2,12.2,0,0,0,1.79-1Z" transform="translate(-149.73 -110.04)"/>
      </g>
      <g>
        <path class="cls-4" d="M315.31,171.38l-1.7-1.92a11.15,11.15,0,0,1,7.34.37,6.59,6.59,0,0,0,3.74.48,3.93,3.93,0,0,0,2.43-1.45c.72-.8,1.54-1.7,4.32-2l1.35,2c-2.2.21-2.78.85-3.45,1.59a5,5,0,0,1-3.08,1.8,9.55,9.55,0,0,1-5.15-.6A8.38,8.38,0,0,0,315.31,171.38Z" transform="translate(-149.73 -110.04)"/>
        <path class="cls-4" d="M318.63,173.19l-1.7-1.91a11.08,11.08,0,0,1,7.34.37,6.6,6.6,0,0,0,3.74.48,3.87,3.87,0,0,0,2.43-1.45c.73-.8,1.55-1.71,4.32-2l1.35,2a4.32,4.32,0,0,0-3.45,1.58,5,5,0,0,1-3.08,1.8,9.36,9.36,0,0,1-5.15-.6A8.44,8.44,0,0,0,318.63,173.19Z" transform="translate(-149.73 -110.04)"/>
        <path class="cls-4" d="M317.9,175.22l-1.7-1.91a11.09,11.09,0,0,1,7.34.37,6.56,6.56,0,0,0,3.73.47,3.91,3.91,0,0,0,2.43-1.44c.73-.8,1.55-1.71,4.32-2l1.36,2c-2.2.21-2.78.84-3.45,1.58a5,5,0,0,1-3.09,1.8,9.48,9.48,0,0,1-5.15-.6A8.35,8.35,0,0,0,317.9,175.22Z" transform="translate(-149.73 -110.04)"/>
        <path class="cls-4" d="M321.28,177l-1.7-1.91a11.09,11.09,0,0,1,7.34.37,6.56,6.56,0,0,0,3.73.47,3.87,3.87,0,0,0,2.43-1.45c.73-.8,1.55-1.7,4.33-2l1.35,2c-2.2.21-2.78.85-3.45,1.59a5,5,0,0,1-3.09,1.8,9.48,9.48,0,0,1-5.15-.6A8.35,8.35,0,0,0,321.28,177Z" transform="translate(-149.73 -110.04)"/>
        <path class="cls-4" d="M315.83,169.29l-1.71-1.91a11.11,11.11,0,0,1,7.35.37,6.56,6.56,0,0,0,3.73.47,3.87,3.87,0,0,0,2.43-1.45c.73-.8,1.55-1.7,4.32-2l1.36,2c-2.2.21-2.78.85-3.45,1.59a5,5,0,0,1-3.09,1.8,9.48,9.48,0,0,1-5.15-.6A8.35,8.35,0,0,0,315.83,169.29Z" transform="translate(-149.73 -110.04)"/>
        <polygon points="166.2 57.54 168.53 57.34 169.54 57.87 168.02 57.78 166.2 57.54"/>
        <polygon points="172.14 58.72 174.62 59.66 176.22 59.15 174.19 58.89 172.14 58.72"/>
        <polygon points="173.12 61.71 171.37 61.62 170.66 62.1 172.43 61.92 174.7 62.83 176.12 62.81 174.16 62.05 173.12 61.71"/>
        <path d="M333.14,171.55c-.44,0-1.57.31-1.57.31l-.87,1.42,1.22-.87,1.9-.26Z" transform="translate(-149.73 -110.04)"/>
        <polygon points="184.31 65 183.5 66.01 181.67 66.59 182.7 67.03 184.21 66.41 184.31 65"/>
        <polygon points="176.64 65.94 174.86 65.4 173.5 65.73 175.12 65.84 176.64 65.94"/>
        <polygon points="170.74 63.74 169.73 63.92 171.14 64 170.74 63.74"/>
        <polygon class="cls-5" points="178.96 57.67 177.71 58.02 176.22 59.15 178.26 58.7 178.96 57.67"/>
        <polygon class="cls-5" points="180.56 63.8 178.91 64.6 178.73 65.09 180.31 64.68 180.56 63.8"/>
        <polygon class="cls-5" points="187.62 63.28 185.77 63.96 185.64 64.86 187.16 64.14 187.62 63.28"/>
        <polygon class="cls-5" points="169.62 63.19 168.37 64.25 167.92 63.58 169.62 63.19"/>
        <polygon class="cls-6" points="177.17 60.91 174.9 60.71 176.13 61.28 177.17 60.91"/>
        <path class="cls-6" d="M329.12,176.54l-2.11-.48s1.09.76,1.4.9a15.38,15.38,0,0,0,2.14.28Z" transform="translate(-149.73 -110.04)"/>
        <polygon class="cls-6" points="170.36 61.14 168.5 61.21 169.22 62.22 170.36 61.14"/>
        <path class="cls-6" d="M331.28,165.7l-2.09.85s-.84,1.22-.5,1.16a12.29,12.29,0,0,0,1.79-1Z" transform="translate(-149.73 -110.04)"/>
      </g>
      <path class="cls-7" d="M363.8,156.1c1.5.69,2.73-.56,4-.79.31.34-.05,1.05.13,1.46.91.65,2.68.41,3.35,1.32-.4.32-.94-.2-1.64-.4-1.22-.34-2.55-.13-2.09-1.92-1.09.51-2.92,1.47-4.18.6a10.14,10.14,0,0,1-1.27.66,35.47,35.47,0,0,0-1.33,3.38c-.88-.32-.91-1.53-2-1.66a3,3,0,0,0-.32,1c.25.07.51-.73.89-.53,0,.51-.54.94-1,1.13-.52-.33-.12-1.08,0-1.66a6.41,6.41,0,0,1-4,1.26,3.62,3.62,0,0,1-1.84-.53c-1.14-.86-.84-3.11-.06-4.17a4.89,4.89,0,0,1,2.92-1.65,16.91,16.91,0,0,0,.82-2c.36,0,.45-.09.57-.46,1.87-.74,4-1.16,5.57-2.25-1.94.36-4.08,1-6.08,1.59a4.32,4.32,0,0,1-1.9.39c.07-.39.6-.44.89-.53,1-.3,2.13-.61,3.23-.92a12.32,12.32,0,0,1,4.43-.86c0,.69-.69.89-1.14,1.12-1.38.72-3.27,1.23-4.81,1.86a5.39,5.39,0,0,0,1.39,1.91,11.53,11.53,0,0,1,2.22.27c.75-.91,1.38-2.14,2.09-3.18.19-.28.45-.75.82-.73a5.5,5.5,0,0,1-1.2,2c-.44.66-.8,1.38-1.2,2,.46.33,1.23.35,1.39,1-.57.12-1-.5-1.52-.6a17.92,17.92,0,0,0-1.84,3.57,14.07,14.07,0,0,0,2.73-1,6.94,6.94,0,0,0,1-2.52c.16-2.08,1.43-3.3,2.66-4.37a3.21,3.21,0,0,1,.38-.79c.24-.06.22.16.38.19a9.59,9.59,0,0,1,5.82-1.39c.39,0,1.28.14,1.27.67,0,.83-1.35,1.8-2,2.31A72.24,72.24,0,0,1,363.8,156.1Zm6.65-7.74c-1.74.14-3.83.7-4.75,1.78a15.18,15.18,0,0,0-1.27,2.45c-.47.88-1.63,2.26-1,3.25a68.63,68.63,0,0,0,7.47-5.1,5.72,5.72,0,0,0,2-2.25A5.43,5.43,0,0,0,370.45,148.36Zm-7.16,5.56c.39-1,1.14-1.95,1.4-2.85A5.41,5.41,0,0,0,363.29,153.92Zm-7.41-.4c.56-.12,1.3-.05,1.84-.2a9.91,9.91,0,0,1-1.2-1.52C356.35,152.43,356.07,152.93,355.88,153.52Zm-.12.4a7.12,7.12,0,0,0-.51,1.65c-.14.54-.18,1.29-.64,1.52-.16-.9.41-2.1.64-3a3.6,3.6,0,0,0-3.11,3.58c0,1.42,1.11,1.93,2.6,1.92,3.16,0,5.47-2.86,3.36-5.7A11.09,11.09,0,0,0,355.76,153.92Zm3.61,2.38c.33-.75.71-1.46,1.07-2.18a12.77,12.77,0,0,0-1.83-.27A6.92,6.92,0,0,1,359.37,156.3Zm3.1.07a2.72,2.72,0,0,0,.57-.27c0-.19,0-.46-.19-.53C362.75,155.86,362.58,156.09,362.47,156.37Zm-3.48,2c.84.15,1.14.88,1.64,1.39a6.61,6.61,0,0,1,.89-2.32c0-.08,0-.15-.13-.13C360.73,157.86,359.69,158,359,158.42Z" transform="translate(-149.73 -110.04)"/>
      <g>
        <path class="cls-17" d="M391,159.64,384.6,153a4.18,4.18,0,0,0-6.7-4.75l-.09.1-.11.1a4.18,4.18,0,0,0,4.21,7l.54.55a1,1,0,0,1,1.31,1.36l.59.6a.91.91,0,0,1,1.16.19.89.89,0,0,1,.15,1.16l.59.61a.91.91,0,0,1,1.16.19.89.89,0,0,1,.15,1.16l.41.43,3.3-.18.21-.2Z" transform="translate(-149.73 -110.04)"/>
        <path class="cls-9" d="M391.48,161.31l-7.08-8.08a4.14,4.14,0,1,0-2.49,2.21l.54.55a1,1,0,0,1,1.31,1.36l.59.6a.91.91,0,0,1,1.16.19.89.89,0,0,1,.15,1.16l.59.61a.91.91,0,0,1,1.16.19.89.89,0,0,1,.15,1.16l.41.43,3.3-.18Z" transform="translate(-149.73 -110.04)"/>
        <path class="cls-18" d="M391,159.64,384.6,153a4.13,4.13,0,1,0-2.48,2.21l.53.55a1,1,0,0,1,1.31,1.36l.59.6a.93.93,0,0,1,1.17.19.9.9,0,0,1,.15,1.16l.59.61a.91.91,0,0,1,1.16.19.9.9,0,0,1,.15,1.16l.41.43,3.3-.18Z" transform="translate(-149.73 -110.04)"/>
        <path class="cls-19" d="M378.09,153.93a3.8,3.8,0,1,1,6.21-1l-.09.21,6.51,6.71L391,161l-2.73.14-.13-.13a1.29,1.29,0,0,0-.32-1.35,1.31,1.31,0,0,0-1.34-.36l-.24-.25a1.35,1.35,0,0,0-1.66-1.71l-.24-.25a1.37,1.37,0,0,0-1.66-1.71l-.51-.52-.2.06A3.8,3.8,0,0,1,378.09,153.93Z" transform="translate(-149.73 -110.04)"/>
        <path class="cls-12" d="M383.12,153.65a3.3,3.3,0,1,1,.07-4.67A3.3,3.3,0,0,1,383.12,153.65Z" transform="translate(-149.73 -110.04)"/>
        <text class="cls-13" transform="translate(227.86 39.81) rotate(45.85)">Pub</text>
      </g>
      <g>
        <path class="cls-17" d="M391,176.69l-6.42-6.62a4.18,4.18,0,0,0-6.7-4.75l-.09.11-.11.09a4.18,4.18,0,0,0,4.21,7l.54.56a.9.9,0,0,1,1.16.18.92.92,0,0,1,.15,1.17l.59.61a1,1,0,0,1,1.31,1.35l.59.6a1,1,0,0,1,1.31,1.36l.41.42,3.3-.18.21-.2Z" transform="translate(-149.73 -110.04)"/>
        <path class="cls-9" d="M391.48,178.35l-7.08-8.08a4.15,4.15,0,1,0-2.49,2.21l.54.56a.9.9,0,0,1,1.16.18.92.92,0,0,1,.15,1.17l.59.61a1,1,0,0,1,1.31,1.35l.59.6a1,1,0,0,1,1.31,1.36l.41.42,3.3-.18Z" transform="translate(-149.73 -110.04)"/>
        <path class="cls-20" d="M391,176.69l-6.42-6.62a4.14,4.14,0,1,0-2.48,2.21l.53.56a1,1,0,0,1,1.31,1.35l.59.61a1,1,0,0,1,1.32,1.35l.59.61a1,1,0,0,1,1.31,1.34l.41.43,3.3-.18Z" transform="translate(-149.73 -110.04)"/>
        <path class="cls-21" d="M378.09,171a3.8,3.8,0,1,1,6.21-1l-.09.21,6.51,6.71L391,178l-2.73.15-.13-.14a1.28,1.28,0,0,0-.32-1.34,1.29,1.29,0,0,0-1.34-.37l-.24-.25a1.3,1.3,0,0,0-.32-1.34,1.31,1.31,0,0,0-1.34-.37l-.24-.25a1.36,1.36,0,0,0-1.66-1.7l-.51-.53-.2.07A3.83,3.83,0,0,1,378.09,171Z" transform="translate(-149.73 -110.04)"/>
        <path class="cls-12" d="M383.12,170.69a3.3,3.3,0,1,1,.07-4.67A3.3,3.3,0,0,1,383.12,170.69Z" transform="translate(-149.73 -110.04)"/>
        <text class="cls-13" transform="translate(227.86 56.85) rotate(45.85)">Pub</text>
      </g>
      <path class="cls-7" d="M363.8,173.15c1.5.68,2.73-.57,4-.8.31.35-.05,1.06.13,1.46.91.66,2.68.42,3.35,1.32-.4.32-.94-.2-1.64-.39-1.22-.35-2.55-.14-2.09-1.93-1.09.52-2.92,1.47-4.18.6a9,9,0,0,1-1.27.66c-.5,1.07-.92,2.22-1.33,3.38-.88-.32-.91-1.52-2-1.66a3,3,0,0,0-.32,1c.25.06.51-.73.89-.53,0,.51-.54.93-1,1.12-.52-.33-.12-1.08,0-1.65a6.41,6.41,0,0,1-4,1.26,3.83,3.83,0,0,1-1.84-.53c-1.14-.86-.84-3.12-.06-4.17a5,5,0,0,1,2.92-1.66,16.75,16.75,0,0,0,.82-2c.36,0,.45-.1.57-.47,1.87-.73,4-1.16,5.57-2.25-1.94.36-4.08,1-6.08,1.59a4.48,4.48,0,0,1-1.9.4c.07-.4.6-.45.89-.53,1-.3,2.13-.61,3.23-.93a12.54,12.54,0,0,1,4.43-.86c0,.69-.69.89-1.14,1.13-1.38.71-3.27,1.23-4.81,1.85a5.34,5.34,0,0,0,1.39,1.92,10.82,10.82,0,0,1,2.22.26c.75-.91,1.38-2.14,2.09-3.17.19-.29.45-.76.82-.73-.12.77-.76,1.32-1.2,2s-.8,1.38-1.2,2.06c.46.32,1.23.34,1.39,1-.57.13-1-.5-1.52-.6a17.73,17.73,0,0,0-1.84,3.58,14.08,14.08,0,0,0,2.73-1.06,6.94,6.94,0,0,0,1-2.52c.16-2.07,1.43-3.29,2.66-4.37a3.21,3.21,0,0,1,.38-.79c.24-.06.22.16.38.2a9.52,9.52,0,0,1,5.82-1.39c.39,0,1.28.14,1.27.66,0,.84-1.35,1.8-2,2.32A75.43,75.43,0,0,1,363.8,173.15Zm6.65-7.75c-1.74.15-3.83.7-4.75,1.79a14.39,14.39,0,0,0-1.27,2.45c-.47.88-1.63,2.26-1,3.24a65.9,65.9,0,0,0,7.47-5.1,5.65,5.65,0,0,0,2-2.25A5.43,5.43,0,0,0,370.45,165.4ZM363.29,171c.39-1,1.14-2,1.4-2.85A5.41,5.41,0,0,0,363.29,171Zm-7.41-.4c.56-.12,1.3-.05,1.84-.19a10,10,0,0,1-1.2-1.53C356.35,169.47,356.07,170,355.88,170.56Zm-.12.4a7.27,7.27,0,0,0-.51,1.65c-.14.54-.18,1.29-.64,1.53-.16-.91.41-2.11.64-3a3.61,3.61,0,0,0-3.11,3.58c0,1.42,1.11,1.93,2.6,1.92,3.16,0,5.47-2.86,3.36-5.69A11,11,0,0,0,355.76,171Zm3.61,2.38c.33-.74.71-1.46,1.07-2.18a12.8,12.8,0,0,0-1.83-.26A6.8,6.8,0,0,1,359.37,173.34Zm3.1.07a2.69,2.69,0,0,0,.57-.26c0-.2,0-.47-.19-.54C362.75,172.91,362.58,173.13,362.47,173.41ZM359,175.46c.84.16,1.14.89,1.64,1.39a6.56,6.56,0,0,1,.89-2.31c0-.08,0-.16-.13-.14C360.73,174.9,359.69,175,359,175.46Z" transform="translate(-149.73 -110.04)"/>
      <line class="cls-14" x1="245.1" y1="34.6" x2="245.1" y2="71.27"/>
      <rect class="cls-15" x="160.34" y="34.46" width="144.43" height="36.83" rx="2"/>
    </g>
    <line class="cls-22" x1="137.98" y1="43.85" x2="165.13" y2="43.85"/>
    <path d="M286,154.49c.95.29,1.57.55,2.33.85v-2.9a22,22,0,0,1-2.32.87,17.55,17.55,0,0,1-2.54.6A17,17,0,0,1,286,154.49Z" transform="translate(-149.73 -110.04)"/>
    <path class="cls-23" d="M390.41,149.43c3.84,5.22,4.17,11.5.73,14s-9.35.36-13.2-4.86-4.17-11.51-.72-14S386.57,144.21,390.41,149.43Z" transform="translate(-149.73 -110.04)"/>
    <text class="cls-16" transform="translate(27.25 76.13)">Created 2<tspan x="0" y="9.5">weeks ago</tspan></text>
    <g>
      <path class="cls-24" d="M195.5,168.83c0,4-2.5,5.84-2.5,10.17" transform="translate(-149.73 -110.04)"/>
      <polygon points="43.91 59.34 45.78 56.1 47.65 59.34 43.91 59.34"/>
    </g>
    <g>
      <path class="cls-24" d="M377.75,139.5c-3.5-6.75-9.25-6-10.5-10.53" transform="translate(-149.73 -110.04)"/>
      <polygon points="229.41 28.12 229.25 31.85 226.09 29.84 229.41 28.12"/>
    </g>
    <g>
      <path class="cls-24" d="M397.25,139.5c3.5-6.75,9.25-6,10.5-10.53" transform="translate(-149.73 -110.04)"/>
      <polygon points="249.42 29.83 246.27 31.84 246.1 28.11 249.42 29.83"/>
    </g>
    <text class="cls-16" transform="translate(97.5 76.13)">Public key<tspan x="0" y="9.5">hidden</tspan></text>
    <g>
      <path class="cls-24" d="M271.23,161.46c0,4.54-4.23,11-4.23,17.54" transform="translate(-149.73 -110.04)"/>
      <polygon points="119.64 51.97 121.5 48.73 123.37 51.97 119.64 51.97"/>
    </g>
    <text class="cls-2" transform="translate(255.25 64.58)">3</text>
    <text class="cls-2" transform="translate(270.65 64.58)">PKH<tspan class="cls-3" x="20.7" y="3">3</tspan></text>
  </g>
</svg>
