<svg xmlns="http://www.w3.org/2000/svg" xmlns:xlink="http://www.w3.org/1999/xlink" width="297.71" height="150.21" viewBox="0 0 297.71 150.21">
  <defs>
    <style>
      .cls-1 {
        font-size: 7px;
      }

      .cls-1, .cls-13 {
        font-family: ArialMT, Arial;
      }

      .cls-2, .cls-20, .cls-21, .cls-9 {
        fill: none;
      }

      .cls-2, .cls-3 {
        stroke: #4d4d4d;
      }

      .cls-2, .cls-21, .cls-3 {
        stroke-width: 0.5px;
      }

      .cls-2, .cls-6 {
        fill-rule: evenodd;
      }

      .cls-3 {
        fill: #e5e5e5;
      }

      .cls-4 {
        font-size: 10px;
      }

      .cls-4, .cls-5 {
        font-family: Courier;
      }

      .cls-5, .cls-8 {
        font-size: 8px;
      }

      .cls-6 {
        fill: #28708e;
      }

      .cls-7 {
        fill: #fff;
      }

      .cls-20, .cls-21, .cls-9 {
        stroke: #000;
      }

      .cls-10, .cls-9 {
        stroke-linejoin: round;
      }

      .cls-10 {
        fill: #267520;
        stroke: #267520;
      }

      .cls-10, .cls-20 {
        stroke-width: 0.3px;
      }

      .cls-11 {
        fill: url(#linear-gradient);
      }

      .cls-12 {
        fill: url(#linear-gradient-2);
      }

      .cls-13 {
        font-size: 9.02px;
      }

      .cls-14 {
        fill: url(#linear-gradient-3);
      }

      .cls-15 {
        fill: url(#linear-gradient-4);
      }

      .cls-16 {
        fill: url(#linear-gradient-5);
      }

      .cls-17 {
        fill: url(#linear-gradient-6);
      }

      .cls-18 {
        font-size: 9px;
        font-family: Humanist521BT-BoldCondensed, Humanst521 Cn BT;
        font-weight: 700;
      }

      .cls-19 {
        letter-spacing: -0.02em;
      }

      .cls-20 {
        stroke-miterlimit: 10;
      }

      .cls-22 {
        fill: #f0f0f0;
      }
    </style>
    <linearGradient id="linear-gradient" x1="290.29" y1="279.07" x2="341.2" y2="279.07" gradientUnits="userSpaceOnUse">
      <stop offset="0" stop-color="#5fb749"/>
      <stop offset="1" stop-color="#dbf1c6"/>
    </linearGradient>
    <linearGradient id="linear-gradient-2" x1="291.19" y1="279.07" x2="339.77" y2="279.07" gradientUnits="userSpaceOnUse">
      <stop offset="0" stop-color="#dbf1c6"/>
      <stop offset="1" stop-color="#5fb749"/>
    </linearGradient>
    <linearGradient id="linear-gradient-3" x1="290.29" y1="251.7" x2="341.2" y2="251.7" xlink:href="#linear-gradient"/>
    <linearGradient id="linear-gradient-4" x1="291.19" y1="251.7" x2="339.77" y2="251.7" xlink:href="#linear-gradient-2"/>
    <linearGradient id="linear-gradient-5" x1="290.29" y1="224.33" x2="341.2" y2="224.33" xlink:href="#linear-gradient"/>
    <linearGradient id="linear-gradient-6" x1="291.19" y1="224.33" x2="339.77" y2="224.33" xlink:href="#linear-gradient-2"/>
  </defs>
  <g id="Layer_2" data-name="Layer 2">
    <text class="cls-1" transform="translate(93.2 147.94)">Stack</text>
    <text class="cls-1" transform="translate(19.44 147.94)">Program</text>
    <polyline class="cls-2" points="134.12 36.03 134.12 136.53 69.78 136.53 69.78 36.03"/>
    <rect class="cls-3" x="0.25" y="17.26" width="66.07" height="119.27"/>
    <text class="cls-4" transform="translate(95.92 133.97)">0</text>
    <text class="cls-5" transform="translate(72.61 77.47)">redeemScript</text>
    <path class="cls-6" d="M235.25,302.31c2.11.95,3.83-.79,5.59-1.11.43.48-.07,1.48.18,2,1.27.92,3.75.58,4.7,1.85-.56.44-1.32-.28-2.31-.56-1.7-.47-3.57-.18-2.92-2.68-1.53.71-4.08,2-5.85.83a13.58,13.58,0,0,1-1.78.93c-.7,1.49-1.29,3.1-1.86,4.72-1.23-.44-1.27-2.13-2.75-2.31a4.28,4.28,0,0,0-.44,1.39c.35.09.72-1,1.24-.75,0,.72-.75,1.31-1.42,1.58-.73-.47-.16-1.52,0-2.32a8.94,8.94,0,0,1-5.59,1.76,5,5,0,0,1-2.57-.74c-1.6-1.2-1.17-4.36-.08-5.83a6.9,6.9,0,0,1,4.07-2.32,23.15,23.15,0,0,0,1.16-2.78c.5,0,.63-.13.79-.65,2.63-1,5.66-1.62,7.8-3.15-2.72.5-5.7,1.41-8.5,2.22A6,6,0,0,1,222,295c.11-.55.84-.62,1.25-.74,1.4-.42,3-.85,4.52-1.3,2-.57,4.16-1.4,6.21-1.2,0,1-1,1.24-1.6,1.57-1.93,1-4.57,1.73-6.74,2.6a7.61,7.61,0,0,0,1.95,2.68,15.49,15.49,0,0,1,3.1.37c1.06-1.27,1.93-3,2.93-4.44.27-.4.64-1.06,1.15-1-.16,1.08-1.07,1.85-1.68,2.78s-1.13,1.93-1.68,2.87c.65.46,1.72.49,1.94,1.39-.8.18-1.34-.69-2.13-.83-1.13,1.37-1.74,3.3-2.57,5a19.7,19.7,0,0,0,3.82-1.48c.5-1.16,1.2-1.9,1.33-3.52.23-2.91,2-4.62,3.72-6.12a5.18,5.18,0,0,1,.53-1.11c.35-.08.32.22.53.28a13.4,13.4,0,0,1,8.16-1.95c.54.05,1.79.2,1.77.93,0,1.17-1.89,2.52-2.74,3.24A102.58,102.58,0,0,1,235.25,302.31Zm9.31-10.84c-2.43.2-5.36,1-6.65,2.5a21.14,21.14,0,0,0-1.77,3.43c-.66,1.23-2.28,3.16-1.42,4.54a96.14,96.14,0,0,0,10.46-7.13,8,8,0,0,0,2.76-3.16A7.69,7.69,0,0,0,244.56,291.47Zm-10,7.78c.54-1.38,1.59-2.72,1.95-4C235.68,296.36,234.61,297.68,234.55,299.25Zm-10.38-.56c.79-.16,1.82-.07,2.58-.27a14.65,14.65,0,0,1-1.69-2.13C224.83,297.16,224.44,297.87,224.17,298.69Zm-.17.56a10.57,10.57,0,0,0-.71,2.32c-.2.75-.25,1.8-.89,2.13-.22-1.27.57-2.95.89-4.26a5,5,0,0,0-4.35,5c.06,2,1.55,2.71,3.64,2.69,4.42,0,7.66-4,4.7-8A15.4,15.4,0,0,0,224,299.25Zm5.05,3.34c.47-1,1-2,1.51-3.06a18.26,18.26,0,0,0-2.57-.37A9.42,9.42,0,0,1,229.05,302.59Zm4.34.09a3.91,3.91,0,0,0,.8-.37c-.06-.27,0-.65-.26-.74C233.78,302,233.55,302.29,233.39,302.68Zm-4.87,2.87c1.18.22,1.6,1.24,2.3,1.95a9.66,9.66,0,0,1,1.24-3.25c0-.11,0-.21-.17-.18C231,304.77,229.51,304.92,228.52,305.55Z" transform="translate(-144.62 -180.97)"/>
    <text class="cls-1" transform="translate(104.41 118.76)">John</text>
    <path class="cls-6" d="M235.25,279.31c2.11.95,3.83-.79,5.59-1.11.43.48-.07,1.48.18,2,1.27.92,3.75.58,4.7,1.85-.56.44-1.32-.28-2.31-.56-1.7-.47-3.57-.18-2.92-2.68-1.53.71-4.08,2-5.85.83a13.58,13.58,0,0,1-1.78.93c-.7,1.49-1.29,3.1-1.86,4.72-1.23-.44-1.27-2.13-2.75-2.31a4.28,4.28,0,0,0-.44,1.39c.35.09.72-1,1.24-.75,0,.72-.75,1.31-1.42,1.58-.73-.47-.16-1.52,0-2.32a8.94,8.94,0,0,1-5.59,1.76,5,5,0,0,1-2.57-.74c-1.6-1.2-1.17-4.36-.08-5.83a6.9,6.9,0,0,1,4.07-2.32,23.15,23.15,0,0,0,1.16-2.78c.5,0,.63-.13.79-.65,2.63-1,5.66-1.62,7.8-3.15-2.72.5-5.7,1.41-8.5,2.22A6,6,0,0,1,222,272c.11-.55.84-.62,1.25-.74,1.4-.42,3-.85,4.52-1.3,2-.57,4.16-1.4,6.21-1.2,0,1-1,1.24-1.6,1.57-1.93,1-4.57,1.73-6.74,2.6a7.61,7.61,0,0,0,1.95,2.68,15.49,15.49,0,0,1,3.1.37c1.06-1.27,1.93-3,2.93-4.44.27-.4.64-1.06,1.15-1-.16,1.08-1.07,1.85-1.68,2.78s-1.13,1.93-1.68,2.87c.65.46,1.72.49,1.94,1.39-.8.18-1.34-.69-2.13-.83-1.13,1.37-1.74,3.3-2.57,5a19.7,19.7,0,0,0,3.82-1.48c.5-1.16,1.2-1.9,1.33-3.52.23-2.91,2-4.62,3.72-6.12a5.18,5.18,0,0,1,.53-1.11c.35-.08.32.22.53.28a13.4,13.4,0,0,1,8.16-1.95c.54.05,1.79.2,1.77.93,0,1.17-1.89,2.52-2.74,3.24A102.58,102.58,0,0,1,235.25,279.31Zm9.31-10.84c-2.43.2-5.36,1-6.65,2.5a21.14,21.14,0,0,0-1.77,3.43c-.66,1.23-2.28,3.16-1.42,4.54a96.14,96.14,0,0,0,10.46-7.13,8,8,0,0,0,2.76-3.16A7.69,7.69,0,0,0,244.56,268.47Zm-10,7.78c.54-1.38,1.59-2.72,1.95-4C235.68,273.36,234.61,274.68,234.55,276.25Zm-10.38-.56c.79-.16,1.82-.07,2.58-.27a14.65,14.65,0,0,1-1.69-2.13C224.83,274.16,224.44,274.87,224.17,275.69Zm-.17.56a10.57,10.57,0,0,0-.71,2.32c-.2.75-.25,1.8-.89,2.13-.22-1.27.57-2.95.89-4.26a5,5,0,0,0-4.35,5c.06,2,1.55,2.71,3.64,2.69,4.42,0,7.66-4,4.7-8A15.4,15.4,0,0,0,224,276.25Zm5.05,3.34c.47-1,1-2,1.51-3.06a18.26,18.26,0,0,0-2.57-.37A9.42,9.42,0,0,1,229.05,279.59Zm4.34.09a3.91,3.91,0,0,0,.8-.37c-.06-.27,0-.65-.26-.74C233.78,279,233.55,279.29,233.39,279.68Zm-4.87,2.87c1.18.22,1.6,1.24,2.3,1.95a9.66,9.66,0,0,1,1.24-3.25c0-.11,0-.21-.17-.18C231,281.77,229.51,281.92,228.52,282.55Z" transform="translate(-144.62 -180.97)"/>
    <polyline class="cls-2" points="297.46 36.03 297.46 136.53 233.11 136.53 233.11 36.03"/>
    <path class="cls-6" d="M398.59,302.31c2.1.95,3.83-.79,5.58-1.11.44.48-.06,1.48.18,2,1.28.92,3.76.58,4.7,1.85-.56.44-1.32-.28-2.31-.56-1.7-.47-3.56-.18-2.92-2.68-1.53.71-4.08,2-5.85.83a13.58,13.58,0,0,1-1.78.93c-.7,1.49-1.28,3.1-1.86,4.72-1.23-.44-1.27-2.13-2.74-2.31a4.29,4.29,0,0,0-.45,1.39c.35.09.72-1,1.24-.75.05.72-.75,1.31-1.42,1.58-.73-.47-.16-1.52,0-2.32a8.93,8.93,0,0,1-5.58,1.76,5,5,0,0,1-2.57-.74c-1.61-1.2-1.18-4.36-.09-5.83a6.92,6.92,0,0,1,4.08-2.32A24.87,24.87,0,0,0,388,296c.5,0,.63-.13.8-.65,2.62-1,5.65-1.62,7.8-3.15-2.72.5-5.71,1.41-8.51,2.22a6,6,0,0,1-2.66.56c.1-.55.83-.62,1.24-.74,1.41-.42,3-.85,4.52-1.3,2-.57,4.16-1.4,6.21-1.2,0,1-1,1.24-1.6,1.57-1.93,1-4.57,1.73-6.73,2.6A7.47,7.47,0,0,0,391,298.6a15.5,15.5,0,0,1,3.11.37c1.05-1.27,1.92-3,2.92-4.44.27-.4.64-1.06,1.16-1-.17,1.08-1.08,1.85-1.69,2.78s-1.12,1.93-1.68,2.87c.65.46,1.72.49,2,1.39-.81.18-1.34-.69-2.13-.83-1.14,1.37-1.75,3.3-2.57,5a19.6,19.6,0,0,0,3.81-1.48c.5-1.16,1.2-1.9,1.33-3.52.24-2.91,2-4.62,3.73-6.12a4.38,4.38,0,0,1,.53-1.11c.34-.08.31.22.53.28a13.35,13.35,0,0,1,8.15-1.95c.55.05,1.79.2,1.78.93,0,1.17-1.9,2.52-2.75,3.24A102.48,102.48,0,0,1,398.59,302.31Zm9.31-10.84c-2.44.2-5.37,1-6.65,2.5a21.14,21.14,0,0,0-1.77,3.43c-.67,1.23-2.29,3.16-1.42,4.54a96.14,96.14,0,0,0,10.46-7.13,8,8,0,0,0,2.75-3.16A7.64,7.64,0,0,0,407.9,291.47Zm-10,7.78c.54-1.38,1.59-2.72,1.95-4C399,296.36,398,297.68,397.88,299.25Zm-10.37-.56c.78-.16,1.82-.07,2.57-.27a14.65,14.65,0,0,1-1.69-2.13C388.17,297.16,387.78,297.87,387.51,298.69Zm-.18.56a10.57,10.57,0,0,0-.71,2.32c-.19.75-.25,1.8-.89,2.13-.22-1.27.58-2.95.89-4.26a5,5,0,0,0-4.34,5c.05,2,1.54,2.71,3.63,2.69,4.43,0,7.66-4,4.7-8A15.4,15.4,0,0,0,387.33,299.25Zm5.05,3.34c.48-1,1-2,1.51-3.06a18.05,18.05,0,0,0-2.57-.37A9.23,9.23,0,0,1,392.38,302.59Zm4.35.09a4.18,4.18,0,0,0,.8-.37c-.07-.27,0-.65-.27-.74C397.12,302,396.88,302.29,396.73,302.68Zm-4.88,2.87c1.19.22,1.6,1.24,2.31,1.95a9.26,9.26,0,0,1,1.24-3.25c0-.11,0-.21-.18-.18C394.29,304.77,392.84,304.92,391.85,305.55Z" transform="translate(-144.62 -180.97)"/>
    <path class="cls-6" d="M398.59,279.31c2.1.95,3.83-.79,5.58-1.11.44.48-.06,1.48.18,2,1.28.92,3.76.58,4.7,1.85-.56.44-1.32-.28-2.31-.56-1.7-.47-3.56-.18-2.92-2.68-1.53.71-4.08,2-5.85.83a13.58,13.58,0,0,1-1.78.93c-.7,1.49-1.28,3.1-1.86,4.72-1.23-.44-1.27-2.13-2.74-2.31a4.29,4.29,0,0,0-.45,1.39c.35.09.72-1,1.24-.75.05.72-.75,1.31-1.42,1.58-.73-.47-.16-1.52,0-2.32a8.93,8.93,0,0,1-5.58,1.76,5,5,0,0,1-2.57-.74c-1.61-1.2-1.18-4.36-.09-5.83a6.92,6.92,0,0,1,4.08-2.32A24.87,24.87,0,0,0,388,273c.5,0,.63-.13.8-.65,2.62-1,5.65-1.62,7.8-3.15-2.72.5-5.71,1.41-8.51,2.22a6,6,0,0,1-2.66.56c.1-.55.83-.62,1.24-.74,1.41-.42,3-.85,4.52-1.3,2-.57,4.16-1.4,6.21-1.2,0,1-1,1.24-1.6,1.57-1.93,1-4.57,1.73-6.73,2.6A7.47,7.47,0,0,0,391,275.6a15.5,15.5,0,0,1,3.11.37c1.05-1.27,1.92-3,2.92-4.44.27-.4.64-1.06,1.16-1-.17,1.08-1.08,1.85-1.69,2.78s-1.12,1.93-1.68,2.87c.65.46,1.72.49,2,1.39-.81.18-1.34-.69-2.13-.83-1.14,1.37-1.75,3.3-2.57,5a19.6,19.6,0,0,0,3.81-1.48c.5-1.16,1.2-1.9,1.33-3.52.24-2.91,2-4.62,3.73-6.12a4.38,4.38,0,0,1,.53-1.11c.34-.08.31.22.53.28a13.35,13.35,0,0,1,8.15-1.95c.55.05,1.79.2,1.78.93,0,1.17-1.9,2.52-2.75,3.24A102.48,102.48,0,0,1,398.59,279.31Zm9.31-10.84c-2.44.2-5.37,1-6.65,2.5a21.14,21.14,0,0,0-1.77,3.43c-.67,1.23-2.29,3.16-1.42,4.54a96.14,96.14,0,0,0,10.46-7.13,8,8,0,0,0,2.75-3.16A7.64,7.64,0,0,0,407.9,268.47Zm-10,7.78c.54-1.38,1.59-2.72,1.95-4C399,273.36,398,274.68,397.88,276.25Zm-10.37-.56c.78-.16,1.82-.07,2.57-.27a14.65,14.65,0,0,1-1.69-2.13C388.17,274.16,387.78,274.87,387.51,275.69Zm-.18.56a10.57,10.57,0,0,0-.71,2.32c-.19.75-.25,1.8-.89,2.13-.22-1.27.58-2.95.89-4.26a5,5,0,0,0-4.34,5c.05,2,1.54,2.71,3.63,2.69,4.43,0,7.66-4,4.7-8A15.4,15.4,0,0,0,387.33,276.25Zm5.05,3.34c.48-1,1-2,1.51-3.06a18.05,18.05,0,0,0-2.57-.37A9.23,9.23,0,0,1,392.38,279.59Zm4.35.09a4.18,4.18,0,0,0,.8-.37c-.07-.27,0-.65-.27-.74C397.12,279,396.88,279.29,396.73,279.68Zm-4.88,2.87c1.19.22,1.6,1.24,2.31,1.95a9.26,9.26,0,0,1,1.24-3.25c0-.11,0-.21-.18-.18C394.29,281.77,392.84,281.92,391.85,282.55Z" transform="translate(-144.62 -180.97)"/>
    <text class="cls-1" transform="translate(104.41 95.76)">Faiza</text>
    <text class="cls-1" transform="translate(256.53 147.94)">Stack</text>
    <text class="cls-4" transform="translate(259.25 133.97)">0</text>
    <text class="cls-1" transform="translate(267.75 118.76)">John</text>
    <text class="cls-1" transform="translate(267.75 95.76)">Faiza</text>
    <text class="cls-1" transform="translate(169.77 147.94)">Program</text>
    <rect class="cls-3" x="137.58" y="17.26" width="92.07" height="119.27"/>
    <rect class="cls-7" x="140.05" y="19.78" width="83.17" height="114.25"/>
    <text class="cls-4" transform="translate(145.27 120.22)">3<tspan class="cls-8"><tspan x="0" y="9">OP_CHECKMULTISIG</tspan></tspan></text>
    <text class="cls-4" transform="translate(145.27 27.66)">2</text>
    <g>
      <path class="cls-9" d="M337.11,275h-25a11.33,11.33,0,0,0-21.86,4.05c0,.13,0,.26,0,.39s0,.26,0,.39a11.34,11.34,0,0,0,21.47,4.95h2.08a2.66,2.66,0,0,1,5.1,0h2.29a2.66,2.66,0,0,1,5.1,0h2.29a2.66,2.66,0,0,1,5.1,0h1.6l5.88-6.74v-.78Z" transform="translate(-144.62 -180.97)"/>
      <path class="cls-10" d="M341.2,277.28l-29.05-1.48a11.19,11.19,0,1,0-.39,9h2.08a2.66,2.66,0,0,1,5.1,0h2.29a2.66,2.66,0,0,1,5.1,0h2.29a2.66,2.66,0,0,1,5.1,0h1.6l5.88-6.74Z" transform="translate(-144.62 -180.97)"/>
      <path class="cls-11" d="M337.11,275h-25a11.2,11.2,0,1,0-.39,9h2.08a2.66,2.66,0,0,1,5.1,0h2.29a2.66,2.66,0,0,1,5.1,0h2.29a2.66,2.66,0,0,1,5.1,0h1.6l5.88-6.74Z" transform="translate(-144.62 -180.97)"/>
      <path class="cls-12" d="M301.61,289.37a10.3,10.3,0,1,1,9.7-14l.23.58h25.33l2.9,1.6-4.87,5.58h-.51a3.68,3.68,0,0,0-6.44,0H327a3.68,3.68,0,0,0-6.44,0h-.95a3.68,3.68,0,0,0-6.44,0h-2l-.25.5A10.35,10.35,0,0,1,301.61,289.37Z" transform="translate(-144.62 -180.97)"/>
      <path class="cls-7" d="M310.55,279.07a8.95,8.95,0,1,1-8.94-8.94A8.94,8.94,0,0,1,310.55,279.07Z" transform="translate(-144.62 -180.97)"/>
      <text class="cls-13" transform="translate(148.89 101.54)">Pub</text>
    </g>
    <g>
      <path class="cls-9" d="M337.11,247.65h-25a11.33,11.33,0,0,0-21.86,4c0,.13,0,.26,0,.39s0,.26,0,.39a11.34,11.34,0,0,0,21.47,5h2.08a2.66,2.66,0,0,1,5.1,0h2.29a2.66,2.66,0,0,1,5.1,0h2.29a2.66,2.66,0,0,1,5.1,0h1.6l5.88-6.74v-.78Z" transform="translate(-144.62 -180.97)"/>
      <path class="cls-10" d="M341.2,249.91l-29.05-1.48a11.19,11.19,0,1,0-.39,9h2.08a2.66,2.66,0,0,1,5.1,0h2.29a2.66,2.66,0,0,1,5.1,0h2.29a2.66,2.66,0,0,1,5.1,0h1.6l5.88-6.74Z" transform="translate(-144.62 -180.97)"/>
      <path class="cls-14" d="M337.11,247.65h-25a11.2,11.2,0,1,0-.39,9h2.08a2.66,2.66,0,0,1,5.1,0h2.29a2.66,2.66,0,0,1,5.1,0h2.29a2.66,2.66,0,0,1,5.1,0h1.6l5.88-6.74Z" transform="translate(-144.62 -180.97)"/>
      <path class="cls-15" d="M301.61,262a10.3,10.3,0,1,1,9.7-14l.23.58h25.33l2.9,1.6-4.87,5.58h-.51a3.68,3.68,0,0,0-6.44,0H327a3.68,3.68,0,0,0-6.44,0h-.95a3.68,3.68,0,0,0-6.44,0h-2l-.25.5A10.35,10.35,0,0,1,301.61,262Z" transform="translate(-144.62 -180.97)"/>
      <path class="cls-7" d="M310.55,251.7a8.95,8.95,0,1,1-8.94-8.94A8.94,8.94,0,0,1,310.55,251.7Z" transform="translate(-144.62 -180.97)"/>
      <text class="cls-13" transform="translate(148.89 74.17)">Pub</text>
    </g>
    <g>
      <path class="cls-9" d="M337.11,220.28h-25a11.33,11.33,0,0,0-21.86,4.05c0,.13,0,.26,0,.39s0,.26,0,.39a11.34,11.34,0,0,0,21.47,4.95h2.08a2.66,2.66,0,0,1,5.1,0h2.29a2.66,2.66,0,0,1,5.1,0h2.29a2.66,2.66,0,0,1,5.1,0h1.6l5.88-6.74v-.78Z" transform="translate(-144.62 -180.97)"/>
      <path class="cls-10" d="M341.2,222.54l-29.05-1.48a11.19,11.19,0,1,0-.39,9h2.08a2.66,2.66,0,0,1,5.1,0h2.29a2.66,2.66,0,0,1,5.1,0h2.29a2.66,2.66,0,0,1,5.1,0h1.6l5.88-6.74Z" transform="translate(-144.62 -180.97)"/>
      <path class="cls-16" d="M337.11,220.28h-25a11.2,11.2,0,1,0-.39,9h2.08a2.66,2.66,0,0,1,5.1,0h2.29a2.66,2.66,0,0,1,5.1,0h2.29a2.66,2.66,0,0,1,5.1,0h1.6l5.88-6.74Z" transform="translate(-144.62 -180.97)"/>
      <path class="cls-17" d="M301.61,234.63a10.3,10.3,0,1,1,9.7-14l.23.58h25.33l2.9,1.6-4.87,5.58h-.51a3.67,3.67,0,0,0-6.44,0H327a3.67,3.67,0,0,0-6.44,0h-.95a3.67,3.67,0,0,0-6.44,0h-2l-.25.5A10.35,10.35,0,0,1,301.61,234.63Z" transform="translate(-144.62 -180.97)"/>
      <path class="cls-7" d="M310.55,224.33a8.95,8.95,0,1,1-8.94-8.94A8.94,8.94,0,0,1,310.55,224.33Z" transform="translate(-144.62 -180.97)"/>
      <text class="cls-13" transform="translate(148.89 46.8)">Pub</text>
    </g>
    <text class="cls-18" transform="translate(76.01 7.57)"><tspan class="cls-19">P</tspan><tspan x="4.47" y="0">rogram empty</tspan></text>
    <text class="cls-18" transform="translate(76.17 25.34)">redeemScript<tspan x="0" y="9.5">is on top of the</tspan><tspan x="0" y="19">saved stack.</tspan></text>
    <g>
      <path class="cls-20" d="M200.06,194.19a25.15,25.15,0,0,1,18.57-8.77" transform="translate(-144.62 -180.97)"/>
      <polygon points="57.23 13.97 53.73 15.29 54.33 11.61 57.23 13.97"/>
    </g>
    <g>
      <path class="cls-20" d="M247,247.5c0-9.25-2.5-14.25-2.5-20.25" transform="translate(-144.62 -180.97)"/>
      <polygon points="104.24 65.98 102.37 69.22 100.5 65.98 104.24 65.98"/>
    </g>
    <g>
      <path class="cls-20" d="M410.62,246.5c0-5.88-1.95-8.55-1.95-13.17" transform="translate(-144.62 -180.97)"/>
      <polygon points="267.86 64.98 265.99 68.22 264.12 64.98 267.86 64.98"/>
    </g>
    <text class="cls-18" transform="translate(241.51 7.57)">redeemScript<tspan x="0" y="9.5">is taken off the</tspan><tspan x="0" y="19">stack and is</tspan><tspan x="0" y="28.5">unpacked into</tspan><tspan x="0" y="38">the program</tspan><tspan x="0" y="47.5">area.</tspan></text>
    <line class="cls-21" x1="227.76" y1="75.54" x2="235.04" y2="75.54"/>
    <path d="M370.37,257.11c.95.29,1.57.55,2.33.85v-2.9a22.94,22.94,0,0,1-2.32.87,17.55,17.55,0,0,1-2.54.6A17,17,0,0,1,370.37,257.11Z" transform="translate(-144.62 -180.97)"/>
    <rect class="cls-22" x="235.05" y="69.7" width="60.5" height="11.17"/>
    <text class="cls-5" transform="translate(235.94 77.47)">redeemScript</text>
  </g>
</svg>
