<svg xmlns="http://www.w3.org/2000/svg" xmlns:xlink="http://www.w3.org/1999/xlink" width="112.89" height="193.49" viewBox="0 0 112.89 193.49">
  <defs>
    <style>
      .cls-1 {
        isolation: isolate;
      }

      .cls-2 {
        fill: url(#linear-gradient);
      }

      .cls-12, .cls-3, .cls-8 {
        stroke: #000;
      }

      .cls-12, .cls-13, .cls-3, .cls-4 {
        stroke-linejoin: round;
      }

      .cls-3, .cls-8 {
        stroke-width: 0.5px;
      }

      .cls-3 {
        fill: url(#linear-gradient-2);
      }

      .cls-12, .cls-4 {
        fill: none;
      }

      .cls-4 {
        stroke: #fff;
      }

      .cls-5 {
        fill: #eff7dc;
      }

      .cls-6 {
        fill: #2c3d24;
      }

      .cls-10, .cls-7 {
        font-size: 8px;
      }

      .cls-11, .cls-17, .cls-7 {
        font-family: ArialMT, Arial;
      }

      .cls-16, .cls-8 {
        fill: #fff;
      }

      .cls-9 {
        font-size: 10px;
        font-family: Courier;
      }

      .cls-11 {
        font-size: 7px;
      }

      .cls-13 {
        fill: #267520;
        stroke: #267520;
        stroke-width: 0.3px;
      }

      .cls-14 {
        fill: url(#linear-gradient-3);
      }

      .cls-15 {
        fill: url(#linear-gradient-4);
      }

      .cls-17 {
        font-size: 9.02px;
      }

      .cls-18 {
        fill: url(#linear-gradient-5);
      }

      .cls-19 {
        fill: url(#linear-gradient-6);
      }

      .cls-20 {
        fill: url(#linear-gradient-7);
      }

      .cls-21 {
        fill: url(#linear-gradient-8);
      }

      .cls-22 {
        fill: #89ac42;
        opacity: 0.6;
      }

      .cls-22, .cls-25 {
        mix-blend-mode: multiply;
      }

      .cls-23 {
        fill: url(#linear-gradient-9);
      }

      .cls-24 {
        fill: url(#radial-gradient);
      }

      .cls-26 {
        fill: url(#linear-gradient-10);
      }

      .cls-27 {
        fill: url(#linear-gradient-11);
      }

      .cls-28 {
        fill: url(#linear-gradient-12);
      }

      .cls-29 {
        fill: url(#linear-gradient-13);
      }

      .cls-30 {
        fill: url(#linear-gradient-14);
      }

      .cls-31 {
        fill: url(#linear-gradient-15);
      }

      .cls-32 {
        fill: url(#radial-gradient-2);
      }

      .cls-33 {
        fill: url(#linear-gradient-16);
      }

      .cls-34 {
        fill: url(#linear-gradient-17);
      }

      .cls-35 {
        fill: url(#linear-gradient-18);
      }

      .cls-36 {
        fill: url(#linear-gradient-19);
      }

      .cls-37 {
        fill: url(#linear-gradient-20);
      }
    </style>
    <linearGradient id="linear-gradient" x1="56.57" y1="73.09" x2="56.57" y2="193.5" gradientUnits="userSpaceOnUse">
      <stop offset="0" stop-color="#474747"/>
      <stop offset="0.13" stop-color="#4f4f4f"/>
      <stop offset="0.31" stop-color="#636363"/>
      <stop offset="0.54" stop-color="#858585"/>
      <stop offset="0.8" stop-color="#b4b4b4"/>
      <stop offset="1" stop-color="#ddd"/>
    </linearGradient>
    <linearGradient id="linear-gradient-2" x1="-3.71" y1="25.33" x2="113.32" y2="168.89" gradientUnits="userSpaceOnUse">
      <stop offset="0" stop-color="#c4e086"/>
      <stop offset="0.15" stop-color="#c8e28e"/>
      <stop offset="0.37" stop-color="#d3e8a2"/>
      <stop offset="0.55" stop-color="#deeeb8"/>
      <stop offset="0.84" stop-color="#c4e29b"/>
      <stop offset="1" stop-color="#badd90"/>
    </linearGradient>
    <linearGradient id="linear-gradient-3" x1="266.29" y1="255.83" x2="317.2" y2="255.83" gradientUnits="userSpaceOnUse">
      <stop offset="0" stop-color="#5fb749"/>
      <stop offset="1" stop-color="#dbf1c6"/>
    </linearGradient>
    <linearGradient id="linear-gradient-4" x1="267.2" y1="255.83" x2="315.77" y2="255.83" gradientUnits="userSpaceOnUse">
      <stop offset="0" stop-color="#dbf1c6"/>
      <stop offset="1" stop-color="#5fb749"/>
    </linearGradient>
    <linearGradient id="linear-gradient-5" x1="266.29" y1="229.08" x2="317.2" y2="229.08" xlink:href="#linear-gradient-3"/>
    <linearGradient id="linear-gradient-6" x1="267.2" y1="229.08" x2="315.77" y2="229.08" xlink:href="#linear-gradient-4"/>
    <linearGradient id="linear-gradient-7" x1="266.29" y1="202.33" x2="317.2" y2="202.33" xlink:href="#linear-gradient-3"/>
    <linearGradient id="linear-gradient-8" x1="267.2" y1="202.33" x2="315.77" y2="202.33" xlink:href="#linear-gradient-4"/>
    <linearGradient id="linear-gradient-9" x1="257.24" y1="113.07" x2="257.92" y2="113.07" gradientTransform="translate(41.34 -58.89) rotate(15.97)" gradientUnits="userSpaceOnUse">
      <stop offset="0" stop-color="#565656"/>
      <stop offset="0.05" stop-color="#606060"/>
      <stop offset="0.12" stop-color="#7c7c7c"/>
      <stop offset="0.23" stop-color="#a8a8a8"/>
      <stop offset="0.31" stop-color="#d4d4d4"/>
      <stop offset="0.54" stop-color="#909090"/>
      <stop offset="0.71" stop-color="#666"/>
      <stop offset="0.8" stop-color="#565656"/>
      <stop offset="1" stop-color="#b3b3b3"/>
    </linearGradient>
    <radialGradient id="radial-gradient" cx="255.9" cy="110.11" r="3.33" gradientTransform="translate(41.34 -58.89) rotate(15.97)" gradientUnits="userSpaceOnUse">
      <stop offset="0" stop-color="#fc9171"/>
      <stop offset="0.16" stop-color="#f97158"/>
      <stop offset="0.43" stop-color="#f54133"/>
      <stop offset="0.68" stop-color="#f21d18"/>
      <stop offset="0.87" stop-color="#f10807"/>
      <stop offset="1" stop-color="#f00001"/>
    </radialGradient>
    <linearGradient id="linear-gradient-10" x1="258.34" y1="108.7" x2="260.69" y2="110.39" gradientTransform="translate(41.34 -58.89) rotate(15.97)" gradientUnits="userSpaceOnUse">
      <stop offset="0.29" stop-color="#a30000"/>
      <stop offset="0.44" stop-color="#b21510"/>
      <stop offset="0.76" stop-color="#da4d38"/>
      <stop offset="1" stop-color="#fb7b5a"/>
    </linearGradient>
    <linearGradient id="linear-gradient-11" x1="255.75" y1="107.37" x2="259.49" y2="107.68" gradientTransform="translate(41.34 -58.89) rotate(15.97)" gradientUnits="userSpaceOnUse">
      <stop offset="0.01" stop-color="#f00001"/>
      <stop offset="0.05" stop-color="#f10706"/>
      <stop offset="0.12" stop-color="#f21c15"/>
      <stop offset="0.2" stop-color="#f53d2d"/>
      <stop offset="0.28" stop-color="#fa6b4f"/>
      <stop offset="0.31" stop-color="#fb7b5a"/>
      <stop offset="0.37" stop-color="#f95e45"/>
      <stop offset="0.45" stop-color="#f63c2d"/>
      <stop offset="0.53" stop-color="#f42219"/>
      <stop offset="0.62" stop-color="#f30f0c"/>
      <stop offset="0.7" stop-color="#f20404"/>
      <stop offset="0.8" stop-color="#f20001"/>
      <stop offset="1" stop-color="#bd0001"/>
    </linearGradient>
    <linearGradient id="linear-gradient-12" x1="255.9" y1="106.74" x2="259.52" y2="106.74" gradientTransform="translate(41.34 -58.89) rotate(15.97)" gradientUnits="userSpaceOnUse">
      <stop offset="0" stop-color="#a30000"/>
      <stop offset="1" stop-color="#fb7b5a"/>
    </linearGradient>
    <linearGradient id="linear-gradient-13" x1="255.12" y1="105.07" x2="260.05" y2="105.07" gradientTransform="translate(41.34 -58.89) rotate(15.97)" gradientUnits="userSpaceOnUse">
      <stop offset="0.01" stop-color="#ab0000"/>
      <stop offset="0.13" stop-color="#fe0f08"/>
      <stop offset="0.18" stop-color="#fe120a"/>
      <stop offset="0.21" stop-color="#fe1b11"/>
      <stop offset="0.24" stop-color="#fd2b1e"/>
      <stop offset="0.27" stop-color="#fd422f"/>
      <stop offset="0.29" stop-color="#fc5f45"/>
      <stop offset="0.31" stop-color="#fb7b5a"/>
      <stop offset="0.35" stop-color="#fb6c4e"/>
      <stop offset="0.42" stop-color="#fc4e37"/>
      <stop offset="0.5" stop-color="#fd3725"/>
      <stop offset="0.58" stop-color="#fe2718"/>
      <stop offset="0.67" stop-color="#fe1d10"/>
      <stop offset="0.8" stop-color="#fe1a0e"/>
      <stop offset="1" stop-color="#ab0000"/>
    </linearGradient>
    <linearGradient id="linear-gradient-14" x1="257.59" y1="102.27" x2="257.59" y2="105.54" gradientTransform="translate(41.34 -58.89) rotate(15.97)" gradientUnits="userSpaceOnUse">
      <stop offset="0" stop-color="#fc3c24"/>
      <stop offset="1" stop-color="#f00001"/>
    </linearGradient>
    <linearGradient id="linear-gradient-15" x1="352.94" y1="85.67" x2="353.62" y2="85.67" xlink:href="#linear-gradient-9"/>
    <radialGradient id="radial-gradient-2" cx="351.6" cy="82.72" r="3.33" xlink:href="#radial-gradient"/>
    <linearGradient id="linear-gradient-16" x1="354.04" y1="81.31" x2="356.39" y2="83" xlink:href="#linear-gradient-10"/>
    <linearGradient id="linear-gradient-17" x1="351.45" y1="79.97" x2="355.19" y2="80.28" xlink:href="#linear-gradient-11"/>
    <linearGradient id="linear-gradient-18" x1="351.6" y1="79.34" x2="355.22" y2="79.34" xlink:href="#linear-gradient-12"/>
    <linearGradient id="linear-gradient-19" x1="350.82" y1="77.68" x2="355.75" y2="77.68" xlink:href="#linear-gradient-13"/>
    <linearGradient id="linear-gradient-20" x1="353.28" y1="74.88" x2="353.28" y2="78.15" xlink:href="#linear-gradient-14"/>
  </defs>
  <g class="cls-1">
    <g id="Layer_2" data-name="Layer 2">
      <polygon class="cls-2" points="112.89 193.28 3.53 193.49 0.25 4.24 109.61 4.03 112.89 193.28"/>
      <rect class="cls-3" x="0.25" y="4.24" width="109.96" height="186.79"/>
      <rect class="cls-4" x="3.25" y="7.24" width="103.96" height="180.79"/>
      <ellipse class="cls-5" cx="55.23" cy="50.43" rx="40.59" ry="14.87"/>
      <g>
        <path class="cls-6" d="M291.06,124.22a.46.46,0,0,1-.22-.53.67.67,0,0,1,.38-.58l.06-.41a.6.6,0,0,1,0-.3.79.79,0,0,1,.77-.6.52.52,0,0,1,.53.72,7.48,7.48,0,0,1,3.08-.77c1,0,1.54.56,1.4,1.49a3.59,3.59,0,0,1-2,2.29,9.26,9.26,0,0,1-3.11,1.1l-.37,2.67a.35.35,0,0,1,0,.29c-.08.53-.52.59-.87.59s-.6-.19-.55-.57a.75.75,0,0,1,.18-.39Zm1,1.31a7.93,7.93,0,0,0,2.18-.79c1.12-.55,1.54-1.06,1.6-1.49,0-.24-.15-.4-.61-.4a6.67,6.67,0,0,0-2.91.86Z" transform="translate(-252.14 -110.14)"/>
        <path class="cls-6" d="M298.38,129.22a.43.43,0,0,1,.07.38.7.7,0,0,1-.71.58c-.44,0-.68-.28-.63-.64a.68.68,0,0,1,.09-.25l.94-6.67a.73.73,0,0,1,0-.35c.07-.56.36-.67.8-.67a.52.52,0,0,1,.58.59.79.79,0,0,1-.2.48Z" transform="translate(-252.14 -110.14)"/>
        <path class="cls-6" d="M301.09,127.73a3.12,3.12,0,0,0-.17.7c-.08.57.16.91.73.91a2.73,2.73,0,0,0,1.85-.88.66.66,0,0,1,.7-.57c.43,0,.62.29.59.53s-.7.87-1.27,1.24a3.78,3.78,0,0,1-2.2.65c-1.22,0-1.72-.92-1.57-2a5,5,0,0,1,1.28-2.66,3.65,3.65,0,0,1,2.67-1.25,1.45,1.45,0,0,1,1.55,1.64c-.08.56-.59,1-1.88,1.23Zm.43-1c.88-.17,1.56-.32,2-.44s.5-.17.53-.37,0-.54-.6-.54a2.32,2.32,0,0,0-2,1.34Z" transform="translate(-252.14 -110.14)"/>
        <path class="cls-6" d="M310.85,129.35a.48.48,0,0,1,0,.31c-.07.43-.51.54-.83.54s-.58-.22-.54-.51a.52.52,0,0,1,.15-.32l.07-.46a5,5,0,0,1-3.16,1.44c-.84,0-1.29-.43-1.19-1.11a3.3,3.3,0,0,1,1.9-2.18,8.09,8.09,0,0,1,2.82-.84l.08-.54c.05-.32,0-.44-.47-.44a4.32,4.32,0,0,0-2,.51.8.8,0,0,1-.75.48.48.48,0,0,1-.52-.57.7.7,0,0,1,.6-.58,5.71,5.71,0,0,1,3.1-.82c1.12,0,1.34.65,1.25,1.29Zm-4.24-.27c0,.2.05.3.28.3a5.05,5.05,0,0,0,2.26-1c.65-.53.76-.65.85-1.29a7.26,7.26,0,0,0-2,.66C307.28,128.1,306.66,128.72,306.61,129.08Z" transform="translate(-252.14 -110.14)"/>
        <path class="cls-6" d="M314.43,129.25a3.62,3.62,0,0,0,1.95-.67,1.69,1.69,0,0,0,.77-1.06c0-.21-.1-.33-.35-.33a4.1,4.1,0,0,0-1.21.33,5,5,0,0,1-1.79.42,1,1,0,0,1-1.06-1.14,2.8,2.8,0,0,1,1.6-1.93,6.52,6.52,0,0,1,2.9-.66c.54,0,1,.29.94.66a.55.55,0,0,1-.63.52,1,1,0,0,1-.44-.14,4.8,4.8,0,0,0-2.37.53c-.5.3-.74.56-.77.79s.08.23.22.23a5.26,5.26,0,0,0,1.11-.33,5.71,5.71,0,0,1,1.83-.42,1.11,1.11,0,0,1,1.24,1.3,3.06,3.06,0,0,1-1.31,2,5.16,5.16,0,0,1-2.79.95A2.73,2.73,0,0,1,313,130a.94.94,0,0,1-.51-.86.76.76,0,0,1,.64-.71c.33,0,.65.08.59.44l-.05.21A1.17,1.17,0,0,0,314.43,129.25Z" transform="translate(-252.14 -110.14)"/>
        <path class="cls-6" d="M320.41,127.73a2.69,2.69,0,0,0-.16.7c-.08.57.15.91.72.91a2.71,2.71,0,0,0,1.85-.88.66.66,0,0,1,.7-.57c.43,0,.62.29.59.53s-.69.87-1.26,1.24a3.81,3.81,0,0,1-2.21.65c-1.21,0-1.72-.92-1.57-2a4.94,4.94,0,0,1,1.29-2.66,3.63,3.63,0,0,1,2.66-1.25,1.46,1.46,0,0,1,1.56,1.64c-.08.56-.59,1-1.89,1.23Zm.43-1c.88-.17,1.56-.32,2-.44s.51-.17.53-.37,0-.54-.6-.54a2.31,2.31,0,0,0-2,1.34Z" transform="translate(-252.14 -110.14)"/>
        <path class="cls-6" d="M277.67,140.29a3.56,3.56,0,0,0,1.95-.68,1.66,1.66,0,0,0,.77-1.06c0-.21-.1-.32-.34-.32a4.17,4.17,0,0,0-1.21.32,5.14,5.14,0,0,1-1.8.43,1,1,0,0,1-1.06-1.14,2.78,2.78,0,0,1,1.6-1.93,6.39,6.39,0,0,1,2.9-.66c.54,0,1,.28.94.66a.56.56,0,0,1-.63.52,1.09,1.09,0,0,1-.44-.15,4.8,4.8,0,0,0-2.37.53c-.5.3-.74.56-.77.79s.08.24.22.24a4.76,4.76,0,0,0,1.11-.34,5.66,5.66,0,0,1,1.84-.41,1.09,1.09,0,0,1,1.22,1.29,3,3,0,0,1-1.3,2,5.23,5.23,0,0,1-2.79.94,2.64,2.64,0,0,1-1.26-.31.9.9,0,0,1-.5-.85.76.76,0,0,1,.63-.72c.33,0,.65.08.6.44l-.06.21A1.15,1.15,0,0,0,277.67,140.29Z" transform="translate(-252.14 -110.14)"/>
        <path class="cls-6" d="M287.46,140.36a.41.41,0,0,1,0,.31c-.06.45-.5.55-.83.55-.49,0-.64-.33-.45-.61l0-.14a4.63,4.63,0,0,1-2.18.9,1.26,1.26,0,0,1-1.36-1.46l.52-3.68a.49.49,0,0,1,0-.24.71.71,0,0,1,.75-.6.49.49,0,0,1,.55.57.56.56,0,0,1-.14.31l-.51,3.63c0,.24.25.43.39.43a4.69,4.69,0,0,0,2.18-1l.45-3.15c0-.14,0,0,0-.28s.19-.43.64-.43.64.34.52.71Z" transform="translate(-252.14 -110.14)"/>
        <path class="cls-6" d="M289.91,144.3c.06.09,0,.16,0,.3-.06.45-.45.57-.79.57s-.56-.25-.52-.52a.9.9,0,0,1,.11-.36l1.13-7.95a.53.53,0,0,1,0-.33.69.69,0,0,1,.69-.62c.34,0,.68.14.62.6a.39.39,0,0,1-.11.23l-.09.62a3.94,3.94,0,0,1,2.71-1.38,1.37,1.37,0,0,1,1.48,1.69,5.07,5.07,0,0,1-1.4,2.72,4.68,4.68,0,0,1-2.82,1.44.81.81,0,0,1-.58-.16Zm.62-4.36c0,.2.28.28.46.28,1.27,0,2.8-1.82,3-3,0-.32-.06-.71-.52-.71a2.17,2.17,0,0,0-1.35.57,5.2,5.2,0,0,0-1.35,1.39Z" transform="translate(-252.14 -110.14)"/>
        <path class="cls-6" d="M296.57,144.3c.06.09.05.16,0,.3-.06.45-.45.57-.79.57s-.56-.25-.52-.52a.79.79,0,0,1,.12-.36l1.12-7.95a.53.53,0,0,1,0-.33.7.7,0,0,1,.7-.62c.33,0,.67.14.61.6a.39.39,0,0,1-.11.23l-.09.62a3.94,3.94,0,0,1,2.71-1.38,1.37,1.37,0,0,1,1.48,1.69,5.07,5.07,0,0,1-1.4,2.72,4.68,4.68,0,0,1-2.82,1.44.81.81,0,0,1-.58-.16Zm.62-4.36c0,.2.28.28.46.28,1.27,0,2.8-1.82,3-3,0-.32-.06-.71-.52-.71a2.2,2.2,0,0,0-1.35.57,5.37,5.37,0,0,0-1.35,1.39Z" transform="translate(-252.14 -110.14)"/>
        <path class="cls-6" d="M302.32,139.22a4.45,4.45,0,0,1,4.05-3.91c1.49,0,2.09,1.13,1.9,2.51a4.44,4.44,0,0,1-1.62,2.56,3.51,3.51,0,0,1-2.57,1,1.85,1.85,0,0,1-1.56-.87A1.74,1.74,0,0,1,302.32,139.22Zm4.77-1.55c.11-.78-.23-1.27-.83-1.27a2.7,2.7,0,0,0-1.77.84,3.41,3.41,0,0,0-1,1.95c-.11.82.3,1.11.82,1.11a2,2,0,0,0,1.55-.65A3.14,3.14,0,0,0,307.09,137.67Z" transform="translate(-252.14 -110.14)"/>
        <path class="cls-6" d="M310.38,140.29a.41.41,0,0,1,.08.32c-.06.45-.35.61-.86.61s-.61-.25-.56-.57a.62.62,0,0,1,.18-.36l.57-4a.94.94,0,0,1,0-.29.71.71,0,0,1,.75-.57c.38,0,.55.23.51.52a1,1,0,0,1-.09.28l0,.37a9.87,9.87,0,0,1,1.23-.83c.49-.25.63-.31.82-.31.73,0,.72.75.62,1.46a.54.54,0,0,1-.62.49c-.25,0-.59-.15-.54-.49,0-.08,0-.13.05-.3a11.91,11.91,0,0,0-1.74,1.24Z" transform="translate(-252.14 -110.14)"/>
        <path class="cls-6" d="M314.8,136.61a.47.47,0,0,1-.26.08.5.5,0,0,1-.55-.51.75.75,0,0,1,.74-.64.58.58,0,0,1,.14,0l.74-.1.13-1a.75.75,0,0,1,0-.26c.06-.41.44-.51.79-.51s.55.07.5.46a.59.59,0,0,1-.12.31l-.11.78,1.48-.21a.82.82,0,0,1,.28-.07.5.5,0,0,1,.5.48c-.06.42-.28.65-.59.65a.66.66,0,0,1-.23,0l-1.59.23-.46,3.28c0,.18-.06.4.06.4s.32-.08,1-.51a5.11,5.11,0,0,0,.87-.76.59.59,0,0,1,.61-.51c.57,0,.59.42.57.57-.06.44-1.31,1.37-2,1.84a3.51,3.51,0,0,1-1.62.66c-.48,0-.84-.19-.76-.8l.57-4Z" transform="translate(-252.14 -110.14)"/>
        <path class="cls-6" d="M328,140.36a.47.47,0,0,1,.05.31c-.07.45-.51.55-.83.55-.49,0-.64-.33-.46-.61l0-.14a4.56,4.56,0,0,1-2.17.9,1.26,1.26,0,0,1-1.36-1.46l.51-3.68a.64.64,0,0,1,0-.24.72.72,0,0,1,.76-.6.49.49,0,0,1,.54.57.62.62,0,0,1-.13.31l-.52,3.63c0,.24.25.43.4.43a4.66,4.66,0,0,0,2.17-1l.45-3.15c0-.14,0,0,0-.28s.19-.43.64-.43.64.34.53.71Z" transform="translate(-252.14 -110.14)"/>
        <path class="cls-6" d="M331.59,140.29a3.54,3.54,0,0,0,2-.68,1.63,1.63,0,0,0,.77-1.06c0-.21-.09-.32-.34-.32a4.17,4.17,0,0,0-1.21.32,5.09,5.09,0,0,1-1.8.43,1,1,0,0,1-1.06-1.14,2.78,2.78,0,0,1,1.6-1.93,6.42,6.42,0,0,1,2.9-.66c.55,0,1,.28,1,.66a.56.56,0,0,1-.63.52,1.12,1.12,0,0,1-.45-.15,4.83,4.83,0,0,0-2.37.53c-.49.3-.74.56-.77.79s.08.24.23.24a5.05,5.05,0,0,0,1.11-.34,5.61,5.61,0,0,1,1.83-.41,1.09,1.09,0,0,1,1.23,1.29,3,3,0,0,1-1.31,2,5.2,5.2,0,0,1-2.79.94,2.64,2.64,0,0,1-1.26-.31.91.91,0,0,1-.5-.85.77.77,0,0,1,.63-.72c.34,0,.65.08.6.44l-.06.21A1.15,1.15,0,0,0,331.59,140.29Z" transform="translate(-252.14 -110.14)"/>
        <path class="cls-6" d="M337.38,139.54c.59,0,.61.33.54.84a1,1,0,0,1-1.05.9c-.43,0-.51-.48-.5-.59C336.46,140,336.84,139.54,337.38,139.54Zm.79-1.56a.65.65,0,0,1,0,.45c-.06.41-.57.6-.88.6a.51.51,0,0,1-.51-.66.78.78,0,0,1,.19-.43l.62-4.44a.46.46,0,0,0-.07-.07.47.47,0,0,1-.06-.35c.08-.55.46-.68,1-.68.36,0,.6.17.53.64a.76.76,0,0,1-.22.46Z" transform="translate(-252.14 -110.14)"/>
      </g>
      <text class="cls-7" transform="translate(23.65 48.46)">Please pay to this<tspan x="6.9" y="10">pubkey script:</tspan></text>
      <rect class="cls-8" x="9.19" y="68.2" width="92.07" height="115"/>
      <text class="cls-9" transform="translate(16.88 167.91)">3<tspan class="cls-10"><tspan x="0" y="9">OP_CHECKMULTISIG</tspan></tspan></text>
      <text class="cls-9" transform="translate(16.88 78.31)">2</text>
      <text class="cls-11" transform="translate(42.23 161.03)">Faiza</text>
      <g>
        <path class="cls-12" d="M313.11,251.78H288.16a11.34,11.34,0,0,0-21.87,4.05c0,.13,0,.26,0,.39s0,.26,0,.39a11.34,11.34,0,0,0,21.47,4.95h2.08a2.66,2.66,0,0,1,5.1,0h2.3a2.65,2.65,0,0,1,5.09,0h2.29a2.66,2.66,0,0,1,5.1,0h1.6l5.88-6.74V254Z" transform="translate(-252.14 -110.14)"/>
        <path class="cls-13" d="M317.2,254l-29-1.48a11.21,11.21,0,1,0-.4,9h2.08a2.66,2.66,0,0,1,5.1,0h2.3a2.65,2.65,0,0,1,5.09,0h2.29a2.66,2.66,0,0,1,5.1,0h1.6l5.88-6.74Z" transform="translate(-252.14 -110.14)"/>
        <path class="cls-14" d="M313.11,251.78H288.16a11.22,11.22,0,1,0-.4,9h2.08a2.66,2.66,0,0,1,5.1,0h2.3a2.65,2.65,0,0,1,5.09,0h2.29a2.66,2.66,0,0,1,5.1,0h1.6L317.2,254Z" transform="translate(-252.14 -110.14)"/>
        <path class="cls-15" d="M277.61,266.13a10.3,10.3,0,1,1,9.71-14l.22.58h25.34l2.89,1.6-4.86,5.58h-.52a3.66,3.66,0,0,0-6.43,0h-1a3.67,3.67,0,0,0-6.44,0h-.95a3.67,3.67,0,0,0-6.44,0h-2l-.25.5A10.35,10.35,0,0,1,277.61,266.13Z" transform="translate(-252.14 -110.14)"/>
        <path class="cls-16" d="M286.56,255.83a8.95,8.95,0,1,1-8.95-8.94A8.95,8.95,0,0,1,286.56,255.83Z" transform="translate(-252.14 -110.14)"/>
        <text class="cls-17" transform="translate(17.38 149.13)">Pub</text>
      </g>
      <text class="cls-11" transform="translate(43 134.28)">Ellen</text>
      <g>
        <path class="cls-12" d="M313.11,225H288.16a11.34,11.34,0,0,0-21.87,4.05c0,.13,0,.26,0,.39s0,.26,0,.39a11.34,11.34,0,0,0,21.47,4.95h2.08a2.66,2.66,0,0,1,5.1,0h2.3a2.65,2.65,0,0,1,5.09,0h2.29a2.66,2.66,0,0,1,5.1,0h1.6l5.88-6.74v-.78Z" transform="translate(-252.14 -110.14)"/>
        <path class="cls-13" d="M317.2,227.29l-29-1.48a11.21,11.21,0,1,0-.4,9h2.08a2.66,2.66,0,0,1,5.1,0h2.3a2.65,2.65,0,0,1,5.09,0h2.29a2.66,2.66,0,0,1,5.1,0h1.6l5.88-6.74Z" transform="translate(-252.14 -110.14)"/>
        <path class="cls-18" d="M313.11,225H288.16a11.22,11.22,0,1,0-.4,9h2.08a2.66,2.66,0,0,1,5.1,0h2.3a2.65,2.65,0,0,1,5.09,0h2.29a2.66,2.66,0,0,1,5.1,0h1.6l5.88-6.74Z" transform="translate(-252.14 -110.14)"/>
        <path class="cls-19" d="M277.61,239.38a10.3,10.3,0,1,1,9.71-14l.22.58h25.34l2.89,1.6-4.86,5.58h-.52a3.67,3.67,0,0,0-6.43,0h-1a3.68,3.68,0,0,0-6.44,0h-.95a3.68,3.68,0,0,0-6.44,0h-2l-.25.5A10.35,10.35,0,0,1,277.61,239.38Z" transform="translate(-252.14 -110.14)"/>
        <path class="cls-16" d="M286.56,229.08a8.95,8.95,0,1,1-8.95-8.94A8.95,8.95,0,0,1,286.56,229.08Z" transform="translate(-252.14 -110.14)"/>
        <text class="cls-17" transform="translate(17.38 122.38)">Pub</text>
      </g>
      <text class="cls-11" transform="translate(43.2 107.53)">John</text>
      <g>
        <path class="cls-12" d="M313.11,198.28H288.16a11.34,11.34,0,0,0-21.87,4.05c0,.13,0,.26,0,.39s0,.26,0,.39a11.34,11.34,0,0,0,21.47,4.95h2.08a2.66,2.66,0,0,1,5.1,0h2.3a2.65,2.65,0,0,1,5.09,0h2.29a2.66,2.66,0,0,1,5.1,0h1.6l5.88-6.74v-.78Z" transform="translate(-252.14 -110.14)"/>
        <path class="cls-13" d="M317.2,200.54l-29-1.48a11.21,11.21,0,1,0-.4,9h2.08a2.66,2.66,0,0,1,5.1,0h2.3a2.65,2.65,0,0,1,5.09,0h2.29a2.66,2.66,0,0,1,5.1,0h1.6l5.88-6.74Z" transform="translate(-252.14 -110.14)"/>
        <path class="cls-20" d="M313.11,198.28H288.16a11.22,11.22,0,1,0-.4,9h2.08a2.66,2.66,0,0,1,5.1,0h2.3a2.65,2.65,0,0,1,5.09,0h2.29a2.66,2.66,0,0,1,5.1,0h1.6l5.88-6.74Z" transform="translate(-252.14 -110.14)"/>
        <path class="cls-21" d="M277.61,212.63a10.3,10.3,0,1,1,9.71-14l.22.58h25.34l2.89,1.6-4.86,5.58h-.52a3.67,3.67,0,0,0-6.43,0h-1a3.68,3.68,0,0,0-6.44,0h-.95a3.68,3.68,0,0,0-6.44,0h-2l-.25.5A10.35,10.35,0,0,1,277.61,212.63Z" transform="translate(-252.14 -110.14)"/>
        <path class="cls-16" d="M286.56,202.33a8.95,8.95,0,1,1-8.95-8.94A8.95,8.95,0,0,1,286.56,202.33Z" transform="translate(-252.14 -110.14)"/>
        <text class="cls-17" transform="translate(17.38 95.63)">Pub</text>
      </g>
      <path class="cls-22" d="M261.21,120.6a2.51,2.51,0,1,1-2.51-2.51A2.51,2.51,0,0,1,261.21,120.6Z" transform="translate(-252.14 -110.14)"/>
      <g>
        <path d="M258.14,121.31a.44.44,0,0,1-.54.32.45.45,0,0,1-.31-.57.44.44,0,1,1,.85.25Z" transform="translate(-252.14 -110.14)"/>
        <path class="cls-23" d="M257.8,119.67l-.45,1.58a.32.32,0,0,0,.25.38.31.31,0,0,0,.4-.2l.45-1.58Z" transform="translate(-252.14 -110.14)"/>
        <path class="cls-24" d="M262,117.91c.38-1.32-.69-2.78-2.38-3.27s-3.39.19-3.77,1.51v0l-.22.79h0c-.25,1.21.82,2.53,2.47,3s3.23-.09,3.67-1.25h0Z" transform="translate(-252.14 -110.14)"/>
        <g class="cls-25">
          <path class="cls-26" d="M261.74,118.74l.24-.83a2.73,2.73,0,0,0-1.78-3l-1.86,2.82a3,3,0,0,1,1.72,2.36A2.26,2.26,0,0,0,261.74,118.74Z" transform="translate(-252.14 -110.14)"/>
        </g>
        <path class="cls-16" d="M257.68,118.39c-.15.2-.5.17-.8,0s-.42-.55-.27-.75.5-.17.8,0S257.82,118.2,257.68,118.39Z" transform="translate(-252.14 -110.14)"/>
        <path class="cls-27" d="M261.45,114l-1.36-1h0l-1.7.16-1.23,2.84c-.21.73.47,1.58,1.53,1.88s2.09,0,2.3-.79Z" transform="translate(-252.14 -110.14)"/>
        <g class="cls-25">
          <path class="cls-28" d="M260.09,112.92h0l-1.7.16-.29.67c.08,1.13,1.8,3.48,2.95,2.85l.4-2.64Z" transform="translate(-252.14 -110.14)"/>
        </g>
        <path class="cls-29" d="M258,111.25l-.15.52c-.26.92.58,2,1.89,2.33s2.58-.06,2.84-1l.15-.53Z" transform="translate(-252.14 -110.14)"/>
        <path class="cls-30" d="M262.74,112.6c-.26.91-1.53,1.35-2.84,1s-2.15-1.42-1.89-2.33,1.53-1.35,2.84-1S263,111.69,262.74,112.6Z" transform="translate(-252.14 -110.14)"/>
      </g>
      <path class="cls-22" d="M360.75,120.6a2.51,2.51,0,1,1-2.51-2.51A2.51,2.51,0,0,1,360.75,120.6Z" transform="translate(-252.14 -110.14)"/>
      <g>
        <path d="M357.69,121.31a.45.45,0,0,1-.55.32.46.46,0,1,1,.55-.32Z" transform="translate(-252.14 -110.14)"/>
        <path class="cls-31" d="M357.35,119.67l-.45,1.58a.31.31,0,0,0,.24.38.31.31,0,0,0,.4-.2l.46-1.58Z" transform="translate(-252.14 -110.14)"/>
        <path class="cls-32" d="M361.53,117.91c.37-1.32-.7-2.78-2.39-3.27s-3.39.19-3.76,1.51l0,0-.22.79h0c-.24,1.21.83,2.53,2.47,3s3.24-.09,3.67-1.25h0Z" transform="translate(-252.14 -110.14)"/>
        <g class="cls-25">
          <path class="cls-33" d="M361.28,118.74l.25-.83a2.74,2.74,0,0,0-1.79-3l-1.86,2.82a3,3,0,0,1,1.73,2.36A2.26,2.26,0,0,0,361.28,118.74Z" transform="translate(-252.14 -110.14)"/>
        </g>
        <path class="cls-16" d="M357.22,118.39c-.14.2-.5.17-.8,0s-.41-.55-.27-.75.5-.17.8,0S357.37,118.2,357.22,118.39Z" transform="translate(-252.14 -110.14)"/>
        <path class="cls-34" d="M361,114l-1.36-1h0l-1.7.16-1.23,2.84c-.21.73.48,1.58,1.54,1.88s2.08,0,2.29-.79Z" transform="translate(-252.14 -110.14)"/>
        <g class="cls-25">
          <path class="cls-35" d="M359.63,112.92h0l-1.7.16-.29.67c.09,1.13,1.8,3.48,3,2.85L361,114Z" transform="translate(-252.14 -110.14)"/>
        </g>
        <path class="cls-36" d="M357.55,111.25l-.15.52c-.26.92.59,2,1.89,2.33s2.58-.06,2.84-1l.16-.53Z" transform="translate(-252.14 -110.14)"/>
        <path class="cls-37" d="M362.29,112.6c-.27.91-1.54,1.35-2.84,1s-2.16-1.42-1.9-2.33,1.53-1.35,2.84-1S362.55,111.69,362.29,112.6Z" transform="translate(-252.14 -110.14)"/>
      </g>
    </g>
  </g>
</svg>
