<svg xmlns="http://www.w3.org/2000/svg" xmlns:xlink="http://www.w3.org/1999/xlink" width="371.07" height="159.53" viewBox="0 0 371.07 159.53">
  <defs>
    <style>
      .cls-1 {
        fill: #fef0e8;
      }

      .cls-2 {
        font-size: 11.5px;
        font-family: Courier;
      }

      .cls-21, .cls-3 {
        font-size: 7px;
      }

      .cls-4 {
        fill: #fda452;
      }

      .cls-18, .cls-23, .cls-4, .cls-8 {
        stroke: #000;
      }

      .cls-23, .cls-4, .cls-9 {
        stroke-width: 0.3px;
      }

      .cls-5 {
        fill: #fbafc5;
      }

      .cls-5, .cls-6, .cls-7 {
        fill-rule: evenodd;
      }

      .cls-6 {
        fill: #96c749;
      }

      .cls-7 {
        fill: #28708e;
      }

      .cls-16, .cls-17, .cls-18, .cls-20, .cls-23, .cls-8 {
        fill: none;
      }

      .cls-17, .cls-20, .cls-8, .cls-9 {
        stroke-linejoin: round;
      }

      .cls-8 {
        stroke-width: 0.75px;
      }

      .cls-9 {
        fill: #267520;
        stroke: #267520;
      }

      .cls-10 {
        fill: url(#linear-gradient);
      }

      .cls-11 {
        fill: url(#linear-gradient-2);
      }

      .cls-12 {
        fill: #fff;
      }

      .cls-13 {
        font-size: 3.67px;
      }

      .cls-13, .cls-21 {
        font-family: ArialMT, Arial;
      }

      .cls-14 {
        fill: url(#linear-gradient-3);
      }

      .cls-15 {
        fill: url(#linear-gradient-4);
      }

      .cls-16 {
        stroke: #4d4d4d;
      }

      .cls-16, .cls-18 {
        stroke-width: 0.5px;
      }

      .cls-17 {
        stroke: #e60001;
      }

      .cls-19 {
        fill: #fdcdb8;
      }

      .cls-20 {
        stroke: #c20001;
      }

      .cls-22, .cls-29, .cls-30 {
        font-size: 9px;
        font-family: Humanist521BT-BoldCondensed, Humanst521 Cn BT;
      }

      .cls-22 {
        font-weight: 700;
      }

      .cls-23 {
        stroke-miterlimit: 10;
      }

      .cls-24 {
        letter-spacing: -0.05em;
      }

      .cls-25 {
        letter-spacing: 0em;
      }

      .cls-26 {
        letter-spacing: 0.02em;
      }

      .cls-27 {
        letter-spacing: -0.05em;
      }

      .cls-28 {
        font-size: 8.5px;
        font-family: Arial-BoldMT, Arial;
      }

      .cls-30, .cls-31 {
        letter-spacing: -0.1em;
      }
    </style>
    <linearGradient id="linear-gradient" x1="87.15" y1="202.26" x2="105.96" y2="202.26" gradientTransform="translate(499.31 -6.95) rotate(45.85)" gradientUnits="userSpaceOnUse">
      <stop offset="0" stop-color="#5fb749"/>
      <stop offset="1" stop-color="#dbf1c6"/>
    </linearGradient>
    <linearGradient id="linear-gradient-2" x1="87.49" y1="202.26" x2="105.43" y2="202.26" gradientTransform="translate(499.31 -6.95) rotate(45.85)" gradientUnits="userSpaceOnUse">
      <stop offset="0" stop-color="#dbf1c6"/>
      <stop offset="1" stop-color="#5fb749"/>
    </linearGradient>
    <linearGradient id="linear-gradient-3" x1="99.38" y1="214.13" x2="118.18" y2="214.13" xlink:href="#linear-gradient"/>
    <linearGradient id="linear-gradient-4" x1="99.71" y1="214.13" x2="117.66" y2="214.13" xlink:href="#linear-gradient-2"/>
  </defs>
  <g id="Layer_2" data-name="Layer 2">
    <g>
      <rect class="cls-1" x="226.14" y="57.26" width="144.43" height="36.83" rx="2"/>
      <text class="cls-2" transform="translate(258 70.37)">1</text>
      <text class="cls-2" transform="translate(258 87.37)">0</text>
      <text class="cls-2" transform="translate(314.15 70.37)">10</text>
      <text class="cls-2" transform="translate(336.45 70.37)">PKH<tspan class="cls-3" x="20.7" y="3">c</tspan></text>
      <g>
        <path class="cls-4" d="M352.31,202.53l-1.7-1.92A11.14,11.14,0,0,1,358,201a6.6,6.6,0,0,0,3.74.48,3.87,3.87,0,0,0,2.43-1.45c.72-.8,1.55-1.7,4.32-2l1.35,2c-2.2.21-2.78.85-3.45,1.59a5,5,0,0,1-3.08,1.8,9.55,9.55,0,0,1-5.15-.6A8.38,8.38,0,0,0,352.31,202.53Z" transform="translate(-120.94 -135.44)"/>
        <path class="cls-4" d="M355.64,204.34l-1.7-1.91a11.09,11.09,0,0,1,7.34.37,6.57,6.57,0,0,0,3.73.48,3.87,3.87,0,0,0,2.43-1.45c.73-.8,1.55-1.71,4.32-2l1.36,2c-2.2.21-2.78.85-3.45,1.59a5.09,5.09,0,0,1-3.09,1.79,9.39,9.39,0,0,1-5.15-.6A8.47,8.47,0,0,0,355.64,204.34Z" transform="translate(-120.94 -135.44)"/>
        <path class="cls-4" d="M354.9,206.37l-1.7-1.91a11.09,11.09,0,0,1,7.34.37,6.6,6.6,0,0,0,3.74.47,3.93,3.93,0,0,0,2.43-1.45c.72-.79,1.54-1.7,4.32-2l1.35,2c-2.2.21-2.78.84-3.45,1.58a5,5,0,0,1-3.08,1.8,9.46,9.46,0,0,1-5.15-.6A8.38,8.38,0,0,0,354.9,206.37Z" transform="translate(-120.94 -135.44)"/>
        <path class="cls-4" d="M358.28,208.17l-1.7-1.91a11.09,11.09,0,0,1,7.34.37,6.6,6.6,0,0,0,3.74.47,3.9,3.9,0,0,0,2.43-1.45c.72-.8,1.55-1.7,4.32-2l1.35,2c-2.2.21-2.78.85-3.45,1.59a5,5,0,0,1-3.08,1.8,9.46,9.46,0,0,1-5.15-.6A8.38,8.38,0,0,0,358.28,208.17Z" transform="translate(-120.94 -135.44)"/>
        <path class="cls-4" d="M352.83,200.44l-1.7-1.91a11.09,11.09,0,0,1,7.34.37,6.6,6.6,0,0,0,3.74.47,3.87,3.87,0,0,0,2.42-1.45c.73-.8,1.56-1.7,4.33-2l1.35,2c-2.2.21-2.78.85-3.45,1.59a5,5,0,0,1-3.08,1.8,9.46,9.46,0,0,1-5.15-.6A8.38,8.38,0,0,0,352.83,200.44Z" transform="translate(-120.94 -135.44)"/>
        <polygon points="232 63.3 234.33 63.09 235.34 63.63 233.83 63.53 232 63.3"/>
        <polygon points="237.94 64.47 240.42 65.41 242.03 64.9 239.99 64.64 237.94 64.47"/>
        <polygon points="238.92 67.46 237.17 67.37 236.46 67.85 238.23 67.68 240.5 68.58 241.92 68.56 239.96 67.8 238.92 67.46"/>
        <path d="M370.14,202.7c-.44.05-1.57.31-1.57.31l-.86,1.42,1.21-.86,1.9-.27Z" transform="translate(-120.94 -135.44)"/>
        <polygon points="250.11 70.75 249.3 71.77 247.47 72.34 248.5 72.78 250.01 72.16 250.11 70.75"/>
        <polygon points="242.44 71.69 240.66 71.15 239.3 71.49 240.92 71.59 242.44 71.69"/>
        <polygon points="236.54 69.5 235.53 69.67 236.94 69.75 236.54 69.5"/>
        <polygon class="cls-5" points="244.76 63.42 243.51 63.77 242.03 64.9 244.06 64.45 244.76 63.42"/>
        <polygon class="cls-5" points="246.36 69.55 244.71 70.35 244.53 70.84 246.12 70.43 246.36 69.55"/>
        <polygon class="cls-5" points="253.42 69.04 251.57 69.71 251.44 70.61 252.97 69.89 253.42 69.04"/>
        <polygon class="cls-5" points="235.42 68.94 234.17 70 233.73 69.33 235.42 68.94"/>
        <polygon class="cls-6" points="242.97 66.66 240.7 66.47 241.93 67.03 242.97 66.66"/>
        <path class="cls-6" d="M366.13,207.69l-2.12-.48s1.09.76,1.4.9a15.56,15.56,0,0,0,2.14.28Z" transform="translate(-120.94 -135.44)"/>
        <polygon class="cls-6" points="236.16 66.9 234.3 66.96 235.02 67.97 236.16 66.9"/>
        <path class="cls-6" d="M368.29,196.85l-2.1.85s-.83,1.22-.49,1.16a12.65,12.65,0,0,0,1.78-1Z" transform="translate(-120.94 -135.44)"/>
      </g>
      <g>
        <path class="cls-4" d="M352.31,219.57l-1.7-1.91A11.08,11.08,0,0,1,358,218a6.51,6.51,0,0,0,3.74.47,3.91,3.91,0,0,0,2.43-1.44c.72-.8,1.55-1.71,4.32-2l1.35,2c-2.2.22-2.78.85-3.45,1.59a5,5,0,0,1-3.08,1.8,9.46,9.46,0,0,1-5.15-.6A8.44,8.44,0,0,0,352.31,219.57Z" transform="translate(-120.94 -135.44)"/>
        <path class="cls-4" d="M355.64,221.39l-1.7-1.91a11,11,0,0,1,7.34.37,6.56,6.56,0,0,0,3.73.47,3.87,3.87,0,0,0,2.43-1.45c.73-.8,1.55-1.7,4.32-2l1.36,2c-2.2.21-2.78.85-3.45,1.59a5,5,0,0,1-3.09,1.8,9.58,9.58,0,0,1-5.15-.6A8.35,8.35,0,0,0,355.64,221.39Z" transform="translate(-120.94 -135.44)"/>
        <path class="cls-4" d="M354.9,223.41l-1.7-1.91a11.09,11.09,0,0,1,7.34.37,6.6,6.6,0,0,0,3.74.48,3.93,3.93,0,0,0,2.43-1.45c.72-.8,1.54-1.71,4.32-2l1.35,2c-2.2.21-2.78.85-3.45,1.59a5,5,0,0,1-3.08,1.79,9.36,9.36,0,0,1-5.15-.6A8.44,8.44,0,0,0,354.9,223.41Z" transform="translate(-120.94 -135.44)"/>
        <path class="cls-4" d="M358.28,225.21l-1.7-1.91a11.09,11.09,0,0,1,7.34.37,6.51,6.51,0,0,0,3.74.47,3.89,3.89,0,0,0,2.43-1.44c.72-.8,1.55-1.71,4.32-2l1.35,2a4.32,4.32,0,0,0-3.45,1.58,5,5,0,0,1-3.08,1.8,9.46,9.46,0,0,1-5.15-.6A8.44,8.44,0,0,0,358.28,225.21Z" transform="translate(-120.94 -135.44)"/>
        <path class="cls-4" d="M352.83,217.48l-1.7-1.91a11.09,11.09,0,0,1,7.34.37,6.51,6.51,0,0,0,3.74.47,3.91,3.91,0,0,0,2.42-1.44c.73-.8,1.56-1.71,4.33-2l1.35,2a4.32,4.32,0,0,0-3.45,1.58,5,5,0,0,1-3.08,1.8,9.46,9.46,0,0,1-5.15-.6A8.44,8.44,0,0,0,352.83,217.48Z" transform="translate(-120.94 -135.44)"/>
        <polygon points="232 80.34 234.33 80.13 235.34 80.67 233.83 80.58 232 80.34"/>
        <polygon points="237.94 81.52 240.42 82.45 242.03 81.95 239.99 81.68 237.94 81.52"/>
        <polygon points="238.92 84.5 237.17 84.41 236.46 84.9 238.23 84.72 240.5 85.63 241.92 85.61 239.96 84.84 238.92 84.5"/>
        <path d="M370.14,219.75c-.44,0-1.57.3-1.57.3l-.86,1.42,1.21-.86,1.9-.26Z" transform="translate(-120.94 -135.44)"/>
        <polygon points="250.11 87.79 249.3 88.81 247.47 89.39 248.5 89.83 250.01 89.21 250.11 87.79"/>
        <polygon points="242.44 88.73 240.66 88.2 239.3 88.53 240.92 88.64 242.44 88.73"/>
        <polygon points="236.54 86.54 235.53 86.72 236.94 86.8 236.54 86.54"/>
        <polygon class="cls-5" points="244.76 80.47 243.51 80.81 242.03 81.95 244.06 81.5 244.76 80.47"/>
        <polygon class="cls-5" points="246.36 86.59 244.71 87.4 244.53 87.88 246.12 87.48 246.36 86.59"/>
        <polygon class="cls-5" points="253.42 86.08 251.57 86.76 251.44 87.66 252.97 86.94 253.42 86.08"/>
        <polygon class="cls-5" points="235.42 85.99 234.17 87.05 233.73 86.38 235.42 85.99"/>
        <polygon class="cls-6" points="242.97 83.7 240.7 83.51 241.93 84.08 242.97 83.7"/>
        <path class="cls-6" d="M366.13,224.73l-2.12-.47s1.09.75,1.4.89a15.56,15.56,0,0,0,2.14.28Z" transform="translate(-120.94 -135.44)"/>
        <polygon class="cls-6" points="236.16 83.94 234.3 84 235.02 85.02 236.16 83.94"/>
        <path class="cls-6" d="M368.29,213.9l-2.1.85s-.83,1.21-.49,1.15a11.71,11.71,0,0,0,1.78-1Z" transform="translate(-120.94 -135.44)"/>
      </g>
      <path class="cls-7" d="M400.8,204.3c1.5.68,2.74-.57,4-.8.31.35,0,1.06.13,1.46.91.66,2.68.42,3.36,1.32-.4.32-.94-.2-1.65-.39-1.22-.35-2.55-.14-2.09-1.92-1.09.51-2.92,1.46-4.18.59a9,9,0,0,1-1.27.66c-.5,1.07-.92,2.22-1.33,3.38-.88-.32-.91-1.52-2-1.66a3.26,3.26,0,0,0-.32,1c.25.07.51-.73.89-.53,0,.51-.54.93-1,1.12-.53-.33-.12-1.08,0-1.65a6.46,6.46,0,0,1-4,1.26,3.66,3.66,0,0,1-1.83-.54c-1.15-.85-.84-3.11-.07-4.16a5,5,0,0,1,2.92-1.66,16.75,16.75,0,0,0,.82-2c.36,0,.45-.1.57-.47,1.87-.73,4-1.16,5.58-2.25-2,.36-4.08,1-6.09,1.59a4.33,4.33,0,0,1-1.9.4c.08-.4.6-.45.89-.53l3.23-.93a12.59,12.59,0,0,1,4.44-.86c0,.69-.69.89-1.14,1.13-1.38.71-3.27,1.23-4.82,1.85a5.36,5.36,0,0,0,1.4,1.92,10.72,10.72,0,0,1,2.21.26c.76-.91,1.38-2.14,2.09-3.17.2-.29.46-.76.83-.73-.12.77-.77,1.32-1.21,2s-.8,1.38-1.2,2.06c.47.32,1.23.34,1.39,1-.57.13-1-.5-1.52-.6a17.73,17.73,0,0,0-1.84,3.58,13.84,13.84,0,0,0,2.73-1.06,6.6,6.6,0,0,0,1-2.52c.17-2.07,1.44-3.29,2.66-4.37a3.21,3.21,0,0,1,.38-.79c.25-.06.23.16.38.2a9.54,9.54,0,0,1,5.83-1.39c.39,0,1.27.14,1.26.66,0,.84-1.35,1.8-2,2.32A74.3,74.3,0,0,1,400.8,204.3Zm6.65-7.75c-1.73.15-3.83.7-4.75,1.79a14.38,14.38,0,0,0-1.26,2.45c-.48.88-1.64,2.26-1,3.24a67.3,67.3,0,0,0,7.48-5.09,5.66,5.66,0,0,0,2-2.26A5.43,5.43,0,0,0,407.45,196.55Zm-7.15,5.56c.38-1,1.13-2,1.39-2.84A5.33,5.33,0,0,0,400.3,202.11Zm-7.42-.4c.57-.12,1.31-.05,1.84-.19a10.66,10.66,0,0,1-1.2-1.53C393.36,200.62,393.08,201.12,392.88,201.71Zm-.12.4a7.73,7.73,0,0,0-.51,1.66c-.14.53-.17,1.28-.63,1.52-.16-.9.41-2.11.63-3a3.59,3.59,0,0,0-3.1,3.58c0,1.42,1.1,1.93,2.59,1.92,3.17,0,5.48-2.86,3.36-5.69A11.07,11.07,0,0,0,392.76,202.11Zm3.61,2.38c.34-.74.71-1.46,1.08-2.18a13.15,13.15,0,0,0-1.84-.26A6.87,6.87,0,0,1,396.37,204.49Zm3.1.07a2.48,2.48,0,0,0,.57-.26c0-.2,0-.47-.19-.53C399.75,204.06,399.58,204.28,399.47,204.56ZM396,206.61c.85.16,1.14.89,1.65,1.4a6.53,6.53,0,0,1,.88-2.32c0-.08,0-.16-.12-.14C397.73,206.05,396.7,206.16,396,206.61Z" transform="translate(-120.94 -135.44)"/>
      <g>
        <path class="cls-8" d="M428,207.84l-6.42-6.62a4.19,4.19,0,0,0-6.7-4.75l-.1.11-.11.09a4.19,4.19,0,0,0,4.21,7l.54.55a1,1,0,0,1,1.31,1.35l.59.61a1,1,0,0,1,1.31,1.35l.59.6a.93.93,0,0,1,1.17.19.9.9,0,0,1,.14,1.17l.41.42,3.3-.18.21-.2Z" transform="translate(-120.94 -135.44)"/>
        <path class="cls-9" d="M428.48,209.5l-7.08-8.07a4.14,4.14,0,1,0-2.49,2.21l.54.55a1,1,0,0,1,1.31,1.35l.59.61a1,1,0,0,1,1.31,1.35l.59.6a.93.93,0,0,1,1.17.19.9.9,0,0,1,.14,1.17l.41.42,3.3-.18Z" transform="translate(-120.94 -135.44)"/>
        <path class="cls-10" d="M428,207.84l-6.42-6.62a4.14,4.14,0,1,0-2.49,2.22l.54.55a.9.9,0,0,1,1.16.18.92.92,0,0,1,.15,1.17l.59.61a1,1,0,0,1,1.31,1.35l.59.61a1,1,0,0,1,1.31,1.35l.41.42,3.3-.18Z" transform="translate(-120.94 -135.44)"/>
        <path class="cls-11" d="M415.09,202.12a3.8,3.8,0,1,1,6.21-1l-.09.21,6.52,6.71.32,1.18-2.73.15-.13-.14a1.3,1.3,0,0,0-.33-1.34,1.28,1.28,0,0,0-1.33-.37l-.25-.25a1.28,1.28,0,0,0-.32-1.34,1.31,1.31,0,0,0-1.34-.37l-.24-.25a1.28,1.28,0,0,0-.32-1.34,1.31,1.31,0,0,0-1.34-.36l-.5-.53-.2.07A3.84,3.84,0,0,1,415.09,202.12Z" transform="translate(-120.94 -135.44)"/>
        <path class="cls-12" d="M420.12,201.85a3.31,3.31,0,1,1,.07-4.68A3.3,3.3,0,0,1,420.12,201.85Z" transform="translate(-120.94 -135.44)"/>
        <text class="cls-13" transform="translate(293.66 62.61) rotate(45.85)">Pub</text>
      </g>
      <g>
        <path class="cls-8" d="M428,224.88l-6.42-6.61a4.18,4.18,0,0,0-6.7-4.75.94.94,0,0,0-.1.1l-.11.1a4.18,4.18,0,0,0,4.21,7l.54.55a.9.9,0,0,1,1.16.19.89.89,0,0,1,.15,1.16l.59.61a1,1,0,0,1,1.31,1.35l.59.61a1,1,0,0,1,1.31,1.35l.41.42,3.3-.17.21-.2Z" transform="translate(-120.94 -135.44)"/>
        <path class="cls-9" d="M428.48,226.55l-7.08-8.08a4.14,4.14,0,1,0-2.49,2.21l.54.55a.9.9,0,0,1,1.16.19.89.89,0,0,1,.15,1.16l.59.61a1,1,0,0,1,1.31,1.35l.59.61a1,1,0,0,1,1.31,1.35l.41.42,3.3-.17Z" transform="translate(-120.94 -135.44)"/>
        <path class="cls-14" d="M428,224.88l-6.42-6.61a4.14,4.14,0,1,0-2.49,2.21l.54.55a.89.89,0,0,1,1.16.19.9.9,0,0,1,.15,1.16l.59.61a1,1,0,0,1,1.31,1.35l.59.61a1,1,0,0,1,1.31,1.35l.41.42,3.3-.17Z" transform="translate(-120.94 -135.44)"/>
        <path class="cls-15" d="M415.09,219.17a3.8,3.8,0,1,1,6.21-1l-.09.21,6.52,6.71.32,1.18-2.73.15-.13-.14a1.31,1.31,0,0,0-.33-1.34,1.28,1.28,0,0,0-1.33-.36l-.25-.26a1.28,1.28,0,0,0-.32-1.34,1.31,1.31,0,0,0-1.34-.36l-.24-.25a1.29,1.29,0,0,0-.32-1.35,1.31,1.31,0,0,0-1.34-.36l-.5-.52-.2.06A3.85,3.85,0,0,1,415.09,219.17Z" transform="translate(-120.94 -135.44)"/>
        <path class="cls-12" d="M420.12,218.89a3.3,3.3,0,1,1,.07-4.67A3.3,3.3,0,0,1,420.12,218.89Z" transform="translate(-120.94 -135.44)"/>
        <text class="cls-13" transform="translate(293.66 79.65) rotate(45.85)">Pub</text>
      </g>
      <path class="cls-7" d="M400.8,221.34c1.5.68,2.74-.57,4-.79.31.34,0,1,.13,1.45.91.66,2.68.42,3.36,1.33-.4.31-.94-.2-1.65-.4-1.22-.34-2.55-.13-2.09-1.92-1.09.51-2.92,1.46-4.18.59a9,9,0,0,1-1.27.67c-.5,1.06-.92,2.21-1.33,3.37-.88-.31-.91-1.52-2-1.65a3.2,3.2,0,0,0-.32,1c.25.07.51-.73.89-.53,0,.51-.54.93-1,1.13-.53-.34-.12-1.09,0-1.66a6.46,6.46,0,0,1-4,1.26,3.56,3.56,0,0,1-1.83-.53c-1.15-.86-.84-3.12-.07-4.17a5,5,0,0,1,2.92-1.66,16.08,16.08,0,0,0,.82-2c.36,0,.45-.1.57-.47,1.87-.73,4-1.16,5.58-2.25-2,.36-4.08,1-6.09,1.59a4.2,4.2,0,0,1-1.9.4c.08-.39.6-.44.89-.53l3.23-.93a12.59,12.59,0,0,1,4.44-.86c0,.69-.69.89-1.14,1.13-1.38.72-3.27,1.23-4.82,1.85a5.36,5.36,0,0,0,1.4,1.92,11.42,11.42,0,0,1,2.21.27c.76-.92,1.38-2.14,2.09-3.18.2-.28.46-.76.83-.73-.12.77-.77,1.33-1.21,2s-.8,1.38-1.2,2.05c.47.33,1.23.35,1.39,1-.57.13-1-.49-1.52-.59a17.92,17.92,0,0,0-1.84,3.57,13.84,13.84,0,0,0,2.73-1.06,6.55,6.55,0,0,0,1-2.51,6.39,6.39,0,0,1,2.66-4.37,3.47,3.47,0,0,1,.38-.8c.25,0,.23.16.38.2a9.6,9.6,0,0,1,5.83-1.39c.39,0,1.27.14,1.26.66,0,.84-1.35,1.81-2,2.32A74.3,74.3,0,0,1,400.8,221.34Zm6.65-7.74c-1.73.14-3.83.7-4.75,1.78a15.17,15.17,0,0,0-1.26,2.45c-.48.88-1.64,2.26-1,3.25a68.76,68.76,0,0,0,7.48-5.1,5.69,5.69,0,0,0,2-2.25A5.29,5.29,0,0,0,407.45,213.6Zm-7.15,5.55c.38-1,1.13-1.94,1.39-2.84A5.41,5.41,0,0,0,400.3,219.15Zm-7.42-.39c.57-.12,1.31-.06,1.84-.2a10.57,10.57,0,0,1-1.2-1.52C393.36,217.66,393.08,218.17,392.88,218.76Zm-.12.39a7.91,7.91,0,0,0-.51,1.66c-.14.54-.17,1.29-.63,1.52-.16-.9.41-2.11.63-3a3.58,3.58,0,0,0-3.1,3.57c0,1.43,1.1,1.94,2.59,1.92,3.17,0,5.48-2.86,3.36-5.69A11.07,11.07,0,0,0,392.76,219.15Zm3.61,2.39c.34-.75.71-1.47,1.08-2.19a13.15,13.15,0,0,0-1.84-.26A6.92,6.92,0,0,1,396.37,221.54Zm3.1.06a2.48,2.48,0,0,0,.57-.26c0-.2,0-.47-.19-.53C399.75,221.1,399.58,221.32,399.47,221.6ZM396,223.66c.85.15,1.14.88,1.65,1.39a6.6,6.6,0,0,1,.88-2.32c0-.08,0-.16-.12-.13C397.73,223.1,396.7,223.2,396,223.66Z" transform="translate(-120.94 -135.44)"/>
      <line class="cls-16" x1="310.9" y1="57.4" x2="310.9" y2="94.07"/>
      <rect class="cls-17" x="226.14" y="57.26" width="144.43" height="36.83" rx="2"/>
    </g>
    <text class="cls-2" transform="translate(321.05 87.37)">3</text>
    <text class="cls-2" transform="translate(336.45 87.37)">PKH<tspan class="cls-3" x="20.7" y="3">3</tspan></text>
    <line class="cls-18" x1="60.71" y1="50.92" x2="76.24" y2="50.92"/>
    <path d="M179.87,187c.95.29,1.57.55,2.33.85v-2.9a22.94,22.94,0,0,1-2.32.87,17.55,17.55,0,0,1-2.54.6A17,17,0,0,1,179.87,187Z" transform="translate(-120.94 -135.44)"/>
    <g>
      <rect class="cls-19" x="17.16" y="44.45" width="39.03" height="12.95" rx="2"/>
      <rect class="cls-20" x="17.16" y="44.45" width="39.03" height="12.95" rx="2"/>
    </g>
    <text class="cls-21" transform="translate(21.89 53.15)">Coinbase</text>
    <line class="cls-18" x1="60.71" y1="100.42" x2="76.24" y2="100.42"/>
    <path d="M179.87,236.46a24.39,24.39,0,0,1,2.33.85v-2.9c-.27.13-1.38.57-2.32.87a17.55,17.55,0,0,1-2.54.6A17,17,0,0,1,179.87,236.46Z" transform="translate(-120.94 -135.44)"/>
    <g>
      <rect class="cls-19" x="17.16" y="93.95" width="39.03" height="12.95" rx="2"/>
      <rect class="cls-20" x="17.16" y="93.95" width="39.03" height="12.95" rx="2"/>
    </g>
    <line class="cls-18" x1="109.52" y1="100.42" x2="130.15" y2="100.42"/>
    <path d="M228.85,236.46c1,.28,1.57.55,2.34.85v-2.9c-.28.13-1.38.57-2.33.87a17.55,17.55,0,0,1-2.54.6A16.76,16.76,0,0,1,228.85,236.46Z" transform="translate(-120.94 -135.44)"/>
    <line class="cls-18" x1="109.52" y1="50.92" x2="184.06" y2="50.92"/>
    <path d="M228.85,187c1,.29,1.57.55,2.34.85v-2.9a23.39,23.39,0,0,1-2.33.87,17.55,17.55,0,0,1-2.54.6A16.76,16.76,0,0,1,228.85,187Z" transform="translate(-120.94 -135.44)"/>
    <line class="cls-18" x1="163.43" y1="100.42" x2="184.05" y2="100.42"/>
    <path d="M282.76,236.46a24.39,24.39,0,0,1,2.33.85v-2.9c-.27.13-1.38.57-2.32.87a17.55,17.55,0,0,1-2.54.6A17,17,0,0,1,282.76,236.46Z" transform="translate(-120.94 -135.44)"/>
    <text class="cls-21" transform="translate(21.89 102.64)">Coinbase</text>
    <line class="cls-18" x1="114.62" y1="75.67" x2="130.15" y2="75.67"/>
    <path d="M233.77,211.71c1,.29,1.58.55,2.34.85v-2.9a22.43,22.43,0,0,1-2.33.87,17.47,17.47,0,0,1-2.53.6A16.68,16.68,0,0,1,233.77,211.71Z" transform="translate(-120.94 -135.44)"/>
    <g>
      <rect class="cls-19" x="71.07" y="69.2" width="39.03" height="12.95" rx="2"/>
      <rect class="cls-20" x="71.07" y="69.2" width="39.03" height="12.95" rx="2"/>
    </g>
    <text class="cls-21" transform="translate(75.79 77.89)">Coinbase</text>
    <line class="cls-18" x1="114.62" y1="125.17" x2="130.15" y2="125.17"/>
    <path d="M233.77,261.21a23.67,23.67,0,0,1,2.34.85v-2.9c-.27.13-1.38.57-2.33.87a17.47,17.47,0,0,1-2.53.6A16.68,16.68,0,0,1,233.77,261.21Z" transform="translate(-120.94 -135.44)"/>
    <path class="cls-18" d="M230.46,235.86c13.92,0,9.29,24.75,20.62,24.75" transform="translate(-120.94 -135.44)"/>
    <path class="cls-18" d="M230.46,186.36c13.92,0,9.29,24.75,20.62,24.75" transform="translate(-120.94 -135.44)"/>
    <path d="M282.76,211.71c.95.29,1.57.55,2.33.85v-2.9a22.94,22.94,0,0,1-2.32.87,17.55,17.55,0,0,1-2.54.6A17,17,0,0,1,282.76,211.71Z" transform="translate(-120.94 -135.44)"/>
    <path class="cls-18" d="M284.37,211.11c13.91,0,9.29,24.75,20.62,24.75" transform="translate(-120.94 -135.44)"/>
    <path d="M282.76,260c.95-.29,1.57-.55,2.33-.85V262a22.94,22.94,0,0,0-2.32-.87,17.55,17.55,0,0,0-2.54-.6A17,17,0,0,0,282.76,260Z" transform="translate(-120.94 -135.44)"/>
    <path class="cls-18" d="M284.37,260.56c13.91,0,9.29-24.75,20.62-24.75" transform="translate(-120.94 -135.44)"/>
    <path class="cls-18" d="M284.37,235.86c13.91,0,9.29-49.5,20.62-49.5" transform="translate(-120.94 -135.44)"/>
    <g>
      <rect class="cls-19" x="71.07" y="118.7" width="39.03" height="12.95" rx="2"/>
      <rect class="cls-20" x="71.07" y="118.7" width="39.03" height="12.95" rx="2"/>
    </g>
    <text class="cls-21" transform="translate(75.79 127.39)">Coinbase</text>
    <text class="cls-22" transform="translate(288.7 26.91)">John bezahlt<tspan x="0" y="9.5">ein Plätzchen.</tspan></text>
    <g>
      <path class="cls-23" d="M426.53,187.58c0-3.21,3.05-8.25,3.05-13.91" transform="translate(-120.94 -135.44)"/>
      <polygon points="307.46 51.6 305.59 54.84 303.72 51.6 307.46 51.6"/>
    </g>
    <text class="cls-22" transform="translate(175.62 7.57)"><tspan class="cls-24">V<tspan class="cls-25" x="3.78" y="0">era zahlt 8 CT an</tspan></tspan><tspan x="0" y="9.5">John für eine</tspan><tspan x="0" y="19">Dienstleistung.</tspan></text>
    <g>
      <path class="cls-23" d="M320.7,174.43c0-3.22,3.05-6.43,3.05-12.1" transform="translate(-120.94 -135.44)"/>
      <polygon points="201.62 38.44 199.75 41.68 197.88 38.44 201.62 38.44"/>
    </g>
    <g>
      <path class="cls-23" d="M212.7,174.43c0-3.22,3.05-6.43,3.05-12.1" transform="translate(-120.94 -135.44)"/>
      <polygon points="93.62 38.44 91.75 41.68 89.88 38.44 93.62 38.44"/>
    </g>
    <g>
      <path class="cls-23" d="M193.18,196.08C188,203.5,181,212.25,169,212.25" transform="translate(-120.94 -135.44)"/>
      <polygon points="70.41 60.03 73.8 58.45 73.48 62.17 70.41 60.03"/>
    </g>
    <g>
      <path class="cls-23" d="M162.65,246.72c.43,9.06-3,23.94-6.32,27.28" transform="translate(-120.94 -135.44)"/>
      <polygon points="39.88 111.92 41.59 108.59 43.62 111.74 39.88 111.92"/>
    </g>
    <g>
      <path class="cls-23" d="M186.67,262c-15,3-27,8.66-30.34,12" transform="translate(-120.94 -135.44)"/>
      <polygon points="64.83 124.85 68.37 126.04 65.56 128.51 64.83 124.85"/>
    </g>
    <text class="cls-22" transform="translate(71.04 15.57)">Lisa verkau<tspan class="cls-26" x="39.91" y="0">f</tspan><tspan class="cls-25" x="42.38" y="0">t </tspan><tspan class="cls-27" x="47.69" y="0">V</tspan><tspan x="51.47" y="0">era</tspan><tspan class="cls-28"><tspan x="0" y="9.5">1</tspan><tspan class="cls-29" x="4.73" y="9.5">.000 C</tspan><tspan class="cls-30" x="27.49" y="9.5">T</tspan><tspan class="cls-29" x="30.63" y="9.5">.</tspan></tspan></text>
    <text class="cls-22" transform="translate(0.12 71.57)">Lisa verbraucht<tspan x="0" y="9.5">ihre 7.200 C</tspan><tspan class="cls-31" x="42.49" y="9.5">T</tspan><tspan class="cls-25" x="45.64" y="9.5">.</tspan></text>
    <text class="cls-22" transform="translate(0.12 147.91)">7,200 neue CT in<tspan x="0" y="9.5">jeder Coinbase TX</tspan></text>
    <path d="M336.67,187c.95.29,1.57.55,2.33.85v-2.9a22.94,22.94,0,0,1-2.32.87,17.55,17.55,0,0,1-2.54.6A17,17,0,0,1,336.67,187Z" transform="translate(-120.94 -135.44)"/>
    <path class="cls-18" d="M338.27,186.36c6.35,0,3.83,14.25,12.34,14.25" transform="translate(-120.94 -135.44)"/>
    <path d="M336.67,234.79c.95-.29,1.57-.55,2.33-.85v2.9a22.94,22.94,0,0,0-2.32-.87,17.55,17.55,0,0,0-2.54-.6A17,17,0,0,0,336.67,234.79Z" transform="translate(-120.94 -135.44)"/>
    <path class="cls-18" d="M338.27,235.39c6.35,0,7.4-13.89,14.93-13.89" transform="translate(-120.94 -135.44)"/>
    <g>
      <rect class="cls-1" x="76.25" y="44.45" width="28.67" height="12.95" rx="2"/>
      <rect class="cls-17" x="76.25" y="44.45" width="28.67" height="12.95" rx="2"/>
    </g>
    <g>
      <rect class="cls-1" x="76.25" y="93.95" width="28.67" height="12.95" rx="2"/>
      <rect class="cls-17" x="76.25" y="93.95" width="28.67" height="12.95" rx="2"/>
    </g>
    <g>
      <rect class="cls-1" x="130.16" y="93.95" width="28.67" height="12.95" rx="2"/>
      <rect class="cls-17" x="130.16" y="93.95" width="28.67" height="12.95" rx="2"/>
    </g>
    <g>
      <rect class="cls-1" x="184.06" y="93.95" width="28.67" height="12.95" rx="2"/>
      <rect class="cls-17" x="184.06" y="93.95" width="28.67" height="12.95" rx="2"/>
    </g>
    <g>
      <rect class="cls-1" x="130.16" y="69.2" width="28.67" height="12.95" rx="2"/>
      <rect class="cls-17" x="130.16" y="69.2" width="28.67" height="12.95" rx="2"/>
    </g>
    <g>
      <rect class="cls-1" x="184.06" y="44.45" width="28.67" height="12.95" rx="2"/>
      <rect class="cls-17" x="184.06" y="44.45" width="28.67" height="12.95" rx="2"/>
    </g>
    <g>
      <rect class="cls-1" x="130.16" y="118.7" width="28.67" height="12.95" rx="2"/>
      <rect class="cls-17" x="130.16" y="118.7" width="28.67" height="12.95" rx="2"/>
    </g>
  </g>
</svg>
