<?xml version="1.0" encoding="UTF-8" standalone="no"?>
<svg
   xmlns:dc="http://purl.org/dc/elements/1.1/"
   xmlns:cc="http://creativecommons.org/ns#"
   xmlns:rdf="http://www.w3.org/1999/02/22-rdf-syntax-ns#"
   xmlns:svg="http://www.w3.org/2000/svg"
   xmlns="http://www.w3.org/2000/svg"
   xmlns:sodipodi="http://sodipodi.sourceforge.net/DTD/sodipodi-0.dtd"
   xmlns:inkscape="http://www.inkscape.org/namespaces/inkscape"
   version="1.1"
   id="svg2"
   xml:space="preserve"
   width="150.51334"
   height="257.98401"
   viewBox="0 0 150.51334 257.98401"
   sodipodi:docname="u05-05.ai"><metadata
     id="metadata8"><rdf:RDF><cc:Work
         rdf:about=""><dc:format>image/svg+xml</dc:format><dc:type
           rdf:resource="http://purl.org/dc/dcmitype/StillImage" /></cc:Work></rdf:RDF></metadata><defs
     id="defs6"><linearGradient
       x1="0"
       y1="0"
       x2="1"
       y2="0"
       gradientUnits="userSpaceOnUse"
       gradientTransform="matrix(0,-120.40535,-120.40535,0,308.7041,608.76904)"
       spreadMethod="pad"
       id="linearGradient30"><stop
         style="stop-opacity:1;stop-color:#615e5e"
         offset="0"
         id="stop24" /><stop
         style="stop-opacity:1;stop-color:#615e5e"
         offset="0.30562306"
         id="stop26" /><stop
         style="stop-opacity:1;stop-color:#e1e1e1"
         offset="1"
         id="stop28" /></linearGradient><linearGradient
       x1="0"
       y1="0"
       x2="1"
       y2="0"
       gradientUnits="userSpaceOnUse"
       gradientTransform="matrix(117.0287,-143.55682,-143.55682,-117.02869,248.42383,656.52881)"
       spreadMethod="pad"
       id="linearGradient56"><stop
         style="stop-opacity:1;stop-color:#c4e18e"
         offset="0"
         id="stop46" /><stop
         style="stop-opacity:1;stop-color:#c4e18e"
         offset="0.1687513"
         id="stop48" /><stop
         style="stop-opacity:1;stop-color:#deeebd"
         offset="0.552155"
         id="stop50" /><stop
         style="stop-opacity:1;stop-color:#badf9a"
         offset="0.90290255"
         id="stop52" /><stop
         style="stop-opacity:1;stop-color:#badf9a"
         offset="1"
         id="stop54" /></linearGradient><clipPath
       clipPathUnits="userSpaceOnUse"
       id="clipPath70"><path
         d="M 0,792 H 612 V 0 H 0 Z"
         id="path68" /></clipPath><linearGradient
       x1="0"
       y1="0"
       x2="1"
       y2="0"
       gradientUnits="userSpaceOnUse"
       gradientTransform="matrix(50.910156,0,0,-50.910156,266.28906,536.1665)"
       spreadMethod="pad"
       id="linearGradient192"><stop
         style="stop-opacity:1;stop-color:#5ec45b"
         offset="0"
         id="stop188" /><stop
         style="stop-opacity:1;stop-color:#dbf1cb"
         offset="1"
         id="stop190" /></linearGradient><linearGradient
       x1="0"
       y1="0"
       x2="1"
       y2="0"
       gradientUnits="userSpaceOnUse"
       gradientTransform="matrix(48.576172,0,0,-48.576172,267.19727,536.1665)"
       spreadMethod="pad"
       id="linearGradient210"><stop
         style="stop-opacity:1;stop-color:#dbf1cb"
         offset="0"
         id="stop206" /><stop
         style="stop-opacity:1;stop-color:#5ec45b"
         offset="1"
         id="stop208" /></linearGradient><clipPath
       clipPathUnits="userSpaceOnUse"
       id="clipPath220"><path
         d="M 0,792 H 612 V 0 H 0 Z"
         id="path218" /></clipPath><linearGradient
       x1="0"
       y1="0"
       x2="1"
       y2="0"
       gradientUnits="userSpaceOnUse"
       gradientTransform="matrix(50.910156,0,0,-50.910156,266.28906,562.91699)"
       spreadMethod="pad"
       id="linearGradient260"><stop
         style="stop-opacity:1;stop-color:#5ec45b"
         offset="0"
         id="stop256" /><stop
         style="stop-opacity:1;stop-color:#dbf1cb"
         offset="1"
         id="stop258" /></linearGradient><linearGradient
       x1="0"
       y1="0"
       x2="1"
       y2="0"
       gradientUnits="userSpaceOnUse"
       gradientTransform="matrix(48.576172,0,0,-48.576172,267.19727,562.9165)"
       spreadMethod="pad"
       id="linearGradient278"><stop
         style="stop-opacity:1;stop-color:#dbf1cb"
         offset="0"
         id="stop274" /><stop
         style="stop-opacity:1;stop-color:#5ec45b"
         offset="1"
         id="stop276" /></linearGradient><clipPath
       clipPathUnits="userSpaceOnUse"
       id="clipPath288"><path
         d="M 0,792 H 612 V 0 H 0 Z"
         id="path286" /></clipPath><linearGradient
       x1="0"
       y1="0"
       x2="1"
       y2="0"
       gradientUnits="userSpaceOnUse"
       gradientTransform="matrix(50.910156,0,0,-50.910156,266.28906,589.66699)"
       spreadMethod="pad"
       id="linearGradient328"><stop
         style="stop-opacity:1;stop-color:#5ec45b"
         offset="0"
         id="stop324" /><stop
         style="stop-opacity:1;stop-color:#dbf1cb"
         offset="1"
         id="stop326" /></linearGradient><linearGradient
       x1="0"
       y1="0"
       x2="1"
       y2="0"
       gradientUnits="userSpaceOnUse"
       gradientTransform="matrix(48.576172,0,0,-48.576172,267.19727,589.6665)"
       spreadMethod="pad"
       id="linearGradient346"><stop
         style="stop-opacity:1;stop-color:#dbf1cb"
         offset="0"
         id="stop342" /><stop
         style="stop-opacity:1;stop-color:#5ec45b"
         offset="1"
         id="stop344" /></linearGradient><clipPath
       clipPathUnits="userSpaceOnUse"
       id="clipPath356"><path
         d="M 0,792 H 612 V 0 H 0 Z"
         id="path354" /></clipPath><clipPath
       clipPathUnits="userSpaceOnUse"
       id="clipPath372"><path
         d="m 256.194,673.905 h 5.016 v -5.015 h -5.016 z"
         id="path370" /></clipPath><linearGradient
       x1="0"
       y1="0"
       x2="1"
       y2="0"
       gradientUnits="userSpaceOnUse"
       gradientTransform="matrix(0.6487579,-0.1856995,-0.1856995,-0.6487579,257.53516,671.39551)"
       spreadMethod="pad"
       id="linearGradient408"><stop
         style="stop-opacity:1;stop-color:#6e6b6c"
         offset="0"
         id="stop396" /><stop
         style="stop-opacity:1;stop-color:#6e6b6c"
         offset="0.07336038"
         id="stop398" /><stop
         style="stop-opacity:1;stop-color:#dad9d9"
         offset="0.312881"
         id="stop400" /><stop
         style="stop-opacity:1;stop-color:#6e6b6c"
         offset="0.72210892"
         id="stop402" /><stop
         style="stop-opacity:1;stop-color:#6e6b6c"
         offset="0.797546"
         id="stop404" /><stop
         style="stop-opacity:1;stop-color:#bdbcbc"
         offset="1"
         id="stop406" /></linearGradient><radialGradient
       fx="0"
       fy="0"
       cx="0"
       cy="0"
       r="1"
       gradientUnits="userSpaceOnUse"
       gradientTransform="matrix(3.2023315,-0.9166718,-0.9166718,-3.2023315,257.05469,674.60547)"
       spreadMethod="pad"
       id="radialGradient428"><stop
         style="stop-opacity:1;stop-color:#f7927b"
         offset="0"
         id="stop422" /><stop
         style="stop-opacity:1;stop-color:#e11a22"
         offset="0.70487066"
         id="stop424" /><stop
         style="stop-opacity:1;stop-color:#e11a22"
         offset="1"
         id="stop426" /></radialGradient><clipPath
       clipPathUnits="userSpaceOnUse"
       id="clipPath438"><path
         d="M 0,792 H 612 V 0 H 0 Z"
         id="path436" /></clipPath><clipPath
       clipPathUnits="userSpaceOnUse"
       id="clipPath446"><path
         d="m 258.337,677.132 h 3.722 v -5.183 h -3.722 z"
         id="path444" /></clipPath><linearGradient
       x1="0"
       y1="0"
       x2="1"
       y2="0"
       gradientUnits="userSpaceOnUse"
       gradientTransform="matrix(1.7983246,-2.2696686,-2.2696686,-1.7983246,259.79004,675.28809)"
       spreadMethod="pad"
       id="linearGradient460"><stop
         style="stop-opacity:1;stop-color:#a41217"
         offset="0"
         id="stop452" /><stop
         style="stop-opacity:1;stop-color:#a41217"
         offset="0.288345"
         id="stop454" /><stop
         style="stop-opacity:1;stop-color:#a41217"
         offset="0.3732452"
         id="stop456" /><stop
         style="stop-opacity:1;stop-color:#f57f67"
         offset="1"
         id="stop458" /></linearGradient><linearGradient
       x1="0"
       y1="0"
       x2="1"
       y2="0"
       gradientUnits="userSpaceOnUse"
       gradientTransform="matrix(3.5074921,-1.3282318,-1.3282318,-3.5074921,257.66895,677.28711)"
       spreadMethod="pad"
       id="linearGradient504"><stop
         style="stop-opacity:1;stop-color:#e11a22"
         offset="0"
         id="stop490" /><stop
         style="stop-opacity:1;stop-color:#e11a22"
         offset="0.00613403"
         id="stop492" /><stop
         style="stop-opacity:1;stop-color:#e11a22"
         offset="0.10132991"
         id="stop494" /><stop
         style="stop-opacity:1;stop-color:#f57f67"
         offset="0.312881"
         id="stop496" /><stop
         style="stop-opacity:1;stop-color:#e31b22"
         offset="0.54110471"
         id="stop498" /><stop
         style="stop-opacity:1;stop-color:#e31b22"
         offset="0.797546"
         id="stop500" /><stop
         style="stop-opacity:1;stop-color:#b8151b"
         offset="1"
         id="stop502" /></linearGradient><clipPath
       clipPathUnits="userSpaceOnUse"
       id="clipPath514"><path
         d="M 0,792 H 612 V 0 H 0 Z"
         id="path512" /></clipPath><clipPath
       clipPathUnits="userSpaceOnUse"
       id="clipPath522"><path
         d="m 258.099,679.085 h 3.349 v -3.789 h -3.349 z"
         id="path520" /></clipPath><linearGradient
       x1="0"
       y1="0"
       x2="1"
       y2="0"
       gradientUnits="userSpaceOnUse"
       gradientTransform="matrix(3.4841309,-0.9973297,-0.9973297,-3.4841309,257.9834,677.85059)"
       spreadMethod="pad"
       id="linearGradient532"><stop
         style="stop-opacity:1;stop-color:#a41217"
         offset="0"
         id="stop528" /><stop
         style="stop-opacity:1;stop-color:#f57f67"
         offset="1"
         id="stop530" /></linearGradient><linearGradient
       x1="0"
       y1="0"
       x2="1"
       y2="0"
       gradientUnits="userSpaceOnUse"
       gradientTransform="matrix(4.7337646,-1.3550415,-1.3550415,-4.7337646,257.69727,679.66309)"
       spreadMethod="pad"
       id="linearGradient574"><stop
         style="stop-opacity:1;stop-color:#aa1318"
         offset="0"
         id="stop558" /><stop
         style="stop-opacity:1;stop-color:#aa1318"
         offset="0.00613403"
         id="stop560" /><stop
         style="stop-opacity:1;stop-color:#ee2327"
         offset="0.134964"
         id="stop562" /><stop
         style="stop-opacity:1;stop-color:#ee2327"
         offset="0.24402314"
         id="stop564" /><stop
         style="stop-opacity:1;stop-color:#f57f67"
         offset="0.312881"
         id="stop566" /><stop
         style="stop-opacity:1;stop-color:#ef2f2c"
         offset="0.50523968"
         id="stop568" /><stop
         style="stop-opacity:1;stop-color:#ef2f2c"
         offset="0.797546"
         id="stop570" /><stop
         style="stop-opacity:1;stop-color:#aa1318"
         offset="1"
         id="stop572" /></linearGradient><linearGradient
       x1="0"
       y1="0"
       x2="1"
       y2="0"
       gradientUnits="userSpaceOnUse"
       gradientTransform="matrix(-0.9009399,-3.1473999,-3.1473999,0.9009399,260.83496,681.68066)"
       spreadMethod="pad"
       id="linearGradient592"><stop
         style="stop-opacity:1;stop-color:#f1493c"
         offset="0"
         id="stop588" /><stop
         style="stop-opacity:1;stop-color:#e11a22"
         offset="1"
         id="stop590" /></linearGradient><clipPath
       clipPathUnits="userSpaceOnUse"
       id="clipPath602"><path
         d="M 0,792 H 612 V 0 H 0 Z"
         id="path600" /></clipPath><clipPath
       clipPathUnits="userSpaceOnUse"
       id="clipPath610"><path
         d="m 355.737,673.905 h 5.016 v -5.015 h -5.016 z"
         id="path608" /></clipPath><linearGradient
       x1="0"
       y1="0"
       x2="1"
       y2="0"
       gradientUnits="userSpaceOnUse"
       gradientTransform="matrix(0.6487579,-0.1856995,-0.1856995,-0.6487579,357.07812,671.39648)"
       spreadMethod="pad"
       id="linearGradient646"><stop
         style="stop-opacity:1;stop-color:#6e6b6c"
         offset="0"
         id="stop634" /><stop
         style="stop-opacity:1;stop-color:#6e6b6c"
         offset="0.07336038"
         id="stop636" /><stop
         style="stop-opacity:1;stop-color:#dad9d9"
         offset="0.312881"
         id="stop638" /><stop
         style="stop-opacity:1;stop-color:#6e6b6c"
         offset="0.72210892"
         id="stop640" /><stop
         style="stop-opacity:1;stop-color:#6e6b6c"
         offset="0.797546"
         id="stop642" /><stop
         style="stop-opacity:1;stop-color:#bdbcbc"
         offset="1"
         id="stop644" /></linearGradient><radialGradient
       fx="0"
       fy="0"
       cx="0"
       cy="0"
       r="1"
       gradientUnits="userSpaceOnUse"
       gradientTransform="matrix(3.2028656,-0.9168243,-0.9168243,-3.2028656,356.59766,674.60547)"
       spreadMethod="pad"
       id="radialGradient666"><stop
         style="stop-opacity:1;stop-color:#f7927b"
         offset="0"
         id="stop660" /><stop
         style="stop-opacity:1;stop-color:#e11a22"
         offset="0.70487066"
         id="stop662" /><stop
         style="stop-opacity:1;stop-color:#e11a22"
         offset="1"
         id="stop664" /></radialGradient><clipPath
       clipPathUnits="userSpaceOnUse"
       id="clipPath676"><path
         d="M 0,792 H 612 V 0 H 0 Z"
         id="path674" /></clipPath><clipPath
       clipPathUnits="userSpaceOnUse"
       id="clipPath684"><path
         d="m 357.88,677.132 h 3.722 v -5.183 h -3.722 z"
         id="path682" /></clipPath><linearGradient
       x1="0"
       y1="0"
       x2="1"
       y2="0"
       gradientUnits="userSpaceOnUse"
       gradientTransform="matrix(1.7983246,-2.2696686,-2.2696686,-1.7983246,359.33398,675.28809)"
       spreadMethod="pad"
       id="linearGradient698"><stop
         style="stop-opacity:1;stop-color:#a41217"
         offset="0"
         id="stop690" /><stop
         style="stop-opacity:1;stop-color:#a41217"
         offset="0.288345"
         id="stop692" /><stop
         style="stop-opacity:1;stop-color:#a41217"
         offset="0.3732452"
         id="stop694" /><stop
         style="stop-opacity:1;stop-color:#f57f67"
         offset="1"
         id="stop696" /></linearGradient><linearGradient
       x1="0"
       y1="0"
       x2="1"
       y2="0"
       gradientUnits="userSpaceOnUse"
       gradientTransform="matrix(3.5083618,-1.3285675,-1.3285675,-3.5083618,357.21191,677.28711)"
       spreadMethod="pad"
       id="linearGradient742"><stop
         style="stop-opacity:1;stop-color:#e11a22"
         offset="0"
         id="stop728" /><stop
         style="stop-opacity:1;stop-color:#e11a22"
         offset="0.00613403"
         id="stop730" /><stop
         style="stop-opacity:1;stop-color:#e11a22"
         offset="0.10132991"
         id="stop732" /><stop
         style="stop-opacity:1;stop-color:#f57f67"
         offset="0.312881"
         id="stop734" /><stop
         style="stop-opacity:1;stop-color:#e31b22"
         offset="0.54110471"
         id="stop736" /><stop
         style="stop-opacity:1;stop-color:#e31b22"
         offset="0.797546"
         id="stop738" /><stop
         style="stop-opacity:1;stop-color:#b8151b"
         offset="1"
         id="stop740" /></linearGradient><clipPath
       clipPathUnits="userSpaceOnUse"
       id="clipPath752"><path
         d="M 0,792 H 612 V 0 H 0 Z"
         id="path750" /></clipPath><clipPath
       clipPathUnits="userSpaceOnUse"
       id="clipPath760"><path
         d="m 357.642,679.085 h 3.349 v -3.789 h -3.349 z"
         id="path758" /></clipPath><linearGradient
       x1="0"
       y1="0"
       x2="1"
       y2="0"
       gradientUnits="userSpaceOnUse"
       gradientTransform="matrix(3.4841309,-0.9973297,-0.9973297,-3.4841309,357.52637,677.85059)"
       spreadMethod="pad"
       id="linearGradient770"><stop
         style="stop-opacity:1;stop-color:#a41217"
         offset="0"
         id="stop766" /><stop
         style="stop-opacity:1;stop-color:#f57f67"
         offset="1"
         id="stop768" /></linearGradient><linearGradient
       x1="0"
       y1="0"
       x2="1"
       y2="0"
       gradientUnits="userSpaceOnUse"
       gradientTransform="matrix(4.7328339,-1.3547668,-1.3547668,-4.7328339,357.24121,679.66309)"
       spreadMethod="pad"
       id="linearGradient812"><stop
         style="stop-opacity:1;stop-color:#aa1318"
         offset="0"
         id="stop796" /><stop
         style="stop-opacity:1;stop-color:#aa1318"
         offset="0.00613403"
         id="stop798" /><stop
         style="stop-opacity:1;stop-color:#ee2327"
         offset="0.134964"
         id="stop800" /><stop
         style="stop-opacity:1;stop-color:#ee2327"
         offset="0.24402314"
         id="stop802" /><stop
         style="stop-opacity:1;stop-color:#f57f67"
         offset="0.312881"
         id="stop804" /><stop
         style="stop-opacity:1;stop-color:#ef2f2c"
         offset="0.50523968"
         id="stop806" /><stop
         style="stop-opacity:1;stop-color:#ef2f2c"
         offset="0.797546"
         id="stop808" /><stop
         style="stop-opacity:1;stop-color:#aa1318"
         offset="1"
         id="stop810" /></linearGradient><linearGradient
       x1="0"
       y1="0"
       x2="1"
       y2="0"
       gradientUnits="userSpaceOnUse"
       gradientTransform="matrix(-0.9009399,-3.1473999,-3.1473999,0.9009399,360.37793,681.68066)"
       spreadMethod="pad"
       id="linearGradient830"><stop
         style="stop-opacity:1;stop-color:#f1493c"
         offset="0"
         id="stop826" /><stop
         style="stop-opacity:1;stop-color:#e11a22"
         offset="1"
         id="stop828" /></linearGradient></defs><sodipodi:namedview
     pagecolor="#ffffff"
     bordercolor="#666666"
     borderopacity="1"
     objecttolerance="10"
     gridtolerance="10"
     guidetolerance="10"
     inkscape:pageopacity="0"
     inkscape:pageshadow="2"
     inkscape:window-width="640"
     inkscape:window-height="480"
     id="namedview4" /><g
     id="g10"
     inkscape:groupmode="layer"
     inkscape:label="u05-05"
     transform="matrix(1.3333333,0,0,-1.3333333,-336.18132,909.15064)"><g
       id="g12"><g
         id="g14"><g
           id="g20"><g
             id="g22"><path
               d="m 365.021,488.58 -109.354,-0.205 -3.281,189.25 109.355,0.204 z"
               style="fill:url(#linearGradient30);stroke:none"
               id="path32" /></g></g></g></g><g
       id="g34"><g
         id="g36"><g
           id="g42"><g
             id="g44"><path
               d="M 362.341,490.834 H 252.386 v 186.791 h 109.955 z"
               style="fill:url(#linearGradient56);stroke:none"
               id="path58" /></g></g></g></g><path
       d="M 362.341,490.834 H 252.386 v 186.791 h 109.955 z"
       style="fill:none;stroke:#231f20;stroke-width:0.5;stroke-linecap:butt;stroke-linejoin:round;stroke-miterlimit:10;stroke-dasharray:none;stroke-opacity:1"
       id="path60" /><path
       d="M 255.386,674.625 H 359.341 V 493.834 H 255.386 Z"
       style="fill:none;stroke:#ffffff;stroke-width:1;stroke-linecap:butt;stroke-linejoin:round;stroke-miterlimit:10;stroke-dasharray:none;stroke-opacity:1"
       id="path62" /><g
       id="g64"><g
         id="g66"
         clip-path="url(#clipPath70)"><g
           id="g72"
           transform="translate(347.9561,631.4365)"><path
             d="m 0,0 c 0,-8.212 -18.174,-14.868 -40.593,-14.868 -22.419,0 -40.593,6.656 -40.593,14.868 0,8.211 18.174,14.868 40.593,14.868 C -18.174,14.868 0,8.211 0,0"
             style="fill:#eff7df;fill-opacity:1;fill-rule:nonzero;stroke:none"
             id="path74" /></g><g
           id="g76"
           transform="translate(292.0664,666.4668)"><path
             d="M 0,0 C 0.636,0.091 1.473,0.428 2.186,0.79 3.3,1.348 3.722,1.853 3.781,2.28 3.816,2.526 3.631,2.682 3.178,2.682 2.439,2.682 1.377,2.41 0.259,1.827 Z m -1.006,1.309 c -0.192,0.103 -0.257,0.285 -0.223,0.531 0.039,0.272 0.098,0.414 0.38,0.582 l 0.058,0.415 c -0.025,0.091 -0.025,0.181 -0.008,0.298 0.059,0.414 0.524,0.596 0.77,0.596 0.428,0 0.641,-0.324 0.534,-0.713 0.909,0.389 1.856,0.764 3.074,0.764 1.025,0 1.541,-0.556 1.409,-1.489 C 4.852,1.334 3.955,0.57 2.953,0 1.772,-0.661 0.57,-1.01 -0.154,-1.101 L -0.531,-3.77 c 0.045,-0.05 0.074,-0.116 0.051,-0.284 -0.077,-0.531 -0.512,-0.596 -0.862,-0.596 -0.336,0 -0.606,0.195 -0.554,0.57 0.028,0.194 0.09,0.273 0.183,0.389 z"
             style="fill:#3a4f34;fill-opacity:1;fill-rule:nonzero;stroke:none"
             id="path78" /></g><g
           id="g80"
           transform="translate(298.377,662.7754)"><path
             d="m 0,0 c 0.108,-0.142 0.092,-0.258 0.076,-0.375 -0.054,-0.376 -0.406,-0.584 -0.717,-0.584 -0.439,0 -0.672,0.286 -0.622,0.648 0.008,0.053 0.018,0.117 0.087,0.246 l 0.944,6.671 c -0.03,0.078 -0.053,0.182 -0.03,0.35 0.078,0.557 0.367,0.673 0.807,0.673 0.402,0 0.623,-0.272 0.578,-0.596 C 1.09,6.8 1.033,6.671 0.925,6.554 Z"
             style="fill:#3a4f34;fill-opacity:1;fill-rule:nonzero;stroke:none"
             id="path82" /></g><g
           id="g84"
           transform="translate(301.5166,665.2881)"><path
             d="M 0,0 C 0.88,0.169 1.562,0.325 2.031,0.44 2.382,0.531 2.535,0.609 2.563,0.816 2.584,0.959 2.548,1.348 1.966,1.348 1.317,1.348 0.643,1.063 -0.022,0.013 Z m -0.429,-1.023 c -0.079,-0.194 -0.119,-0.388 -0.164,-0.7 -0.08,-0.57 0.158,-0.905 0.728,-0.905 0.492,0 1.294,0.271 1.846,0.88 0.04,0.375 0.379,0.57 0.703,0.57 0.427,0 0.62,-0.285 0.586,-0.531 C 3.222,-2.046 2.577,-2.578 2.007,-2.953 1.277,-3.432 0.58,-3.601 -0.196,-3.601 c -1.219,0 -1.723,0.92 -1.57,2.009 0.146,1.036 0.627,1.967 1.284,2.668 0.778,0.829 1.704,1.243 2.663,1.243 0.996,0 1.683,-0.738 1.557,-1.632 -0.081,-0.57 -0.59,-0.958 -1.884,-1.231 z"
             style="fill:#3a4f34;fill-opacity:1;fill-rule:nonzero;stroke:none"
             id="path86" /></g><g
           id="g88"
           transform="translate(306.6133,662.918)"><path
             d="m 0,0 c -0.027,-0.194 0.049,-0.298 0.281,-0.298 0.492,0 1.68,0.519 2.252,0.998 C 3.191,1.23 3.299,1.347 3.389,1.995 2.702,1.891 1.896,1.606 1.367,1.334 0.67,0.984 0.051,0.363 0,0 M 4.236,-0.271 C 4.301,-0.363 4.299,-0.466 4.282,-0.583 4.222,-1.01 3.779,-1.114 3.456,-1.114 c -0.415,0 -0.578,0.22 -0.537,0.506 0.027,0.194 0.102,0.271 0.149,0.323 l 0.065,0.453 c -0.945,-0.906 -2.238,-1.437 -3.157,-1.437 -0.843,0 -1.287,0.427 -1.191,1.113 0.111,0.778 0.811,1.607 1.902,2.177 0.95,0.492 1.985,0.764 2.825,0.841 L 3.589,3.407 C 3.634,3.718 3.626,3.847 3.119,3.847 2.459,3.847 1.601,3.64 1.092,3.329 1.016,3.07 0.688,2.85 0.35,2.85 c -0.337,0 -0.576,0.233 -0.528,0.57 0.045,0.324 0.324,0.544 0.6,0.582 1.037,0.648 2.149,0.816 3.107,0.816 1.115,0 1.334,-0.647 1.244,-1.281 z"
             style="fill:#3a4f34;fill-opacity:1;fill-rule:nonzero;stroke:none"
             id="path90" /></g><g
           id="g92"
           transform="translate(314.4297,662.75)"><path
             d="M 0,0 C 0.506,0 1.324,0.208 1.947,0.673 2.48,1.062 2.676,1.437 2.719,1.735 2.748,1.942 2.621,2.059 2.375,2.059 2.091,2.059 1.697,1.929 1.164,1.735 0.521,1.502 0.016,1.308 -0.632,1.308 c -0.608,0 -1.151,0.466 -1.056,1.14 0.113,0.803 0.738,1.464 1.594,1.93 0.796,0.414 1.854,0.661 2.905,0.661 0.543,0 0.996,-0.286 0.941,-0.661 C 3.686,3.912 3.355,3.859 3.123,3.859 2.979,3.859 2.884,3.912 2.676,4.001 1.782,4.001 0.916,3.834 0.309,3.471 -0.188,3.173 -0.432,2.914 -0.463,2.681 -0.49,2.486 -0.38,2.448 -0.237,2.448 c 0.18,0 0.564,0.142 1.109,0.336 0.722,0.246 1.276,0.415 1.833,0.415 1.05,0 1.309,-0.738 1.231,-1.295 C 3.809,1.01 3.203,0.298 2.629,-0.09 1.897,-0.596 0.851,-1.036 -0.159,-1.036 c -0.403,0 -0.956,0.116 -1.265,0.31 -0.322,0.195 -0.547,0.531 -0.501,0.855 0.068,0.479 0.411,0.712 0.632,0.712 0.336,0 0.649,-0.077 0.598,-0.44 L -0.75,0.194 C -0.621,0.103 -0.441,0 0,0"
             style="fill:#3a4f34;fill-opacity:1;fill-rule:nonzero;stroke:none"
             id="path94" /></g><g
           id="g96"
           transform="translate(320.8418,665.2881)"><path
             d="m 0,0 c 0.877,0.169 1.561,0.325 2.031,0.44 0.348,0.091 0.502,0.169 0.532,0.376 0.021,0.143 -0.016,0.532 -0.6,0.532 -0.648,0 -1.322,-0.285 -1.988,-1.335 z m -0.432,-1.023 c -0.078,-0.194 -0.119,-0.388 -0.162,-0.7 -0.08,-0.57 0.156,-0.905 0.727,-0.905 0.492,0 1.294,0.271 1.846,0.88 0.041,0.375 0.379,0.57 0.703,0.57 0.427,0 0.621,-0.285 0.586,-0.531 C 3.22,-2.046 2.574,-2.578 2.004,-2.953 1.275,-3.432 0.58,-3.601 -0.199,-3.601 c -1.217,0 -1.721,0.92 -1.569,2.009 0.147,1.036 0.628,1.967 1.284,2.668 0.779,0.829 1.705,1.243 2.662,1.243 0.998,0 1.683,-0.738 1.558,-1.632 -0.082,-0.57 -0.59,-0.958 -1.884,-1.231 z"
             style="fill:#3a4f34;fill-opacity:1;fill-rule:nonzero;stroke:none"
             id="path98" /></g><g
           id="g100"
           transform="translate(277.6699,651.7144)"><path
             d="M 0,0 C 0.506,0 1.324,0.207 1.947,0.673 2.481,1.062 2.678,1.437 2.72,1.735 2.748,1.942 2.622,2.06 2.377,2.06 2.092,2.06 1.697,1.929 1.165,1.735 0.523,1.502 0.018,1.308 -0.63,1.308 c -0.61,0 -1.152,0.466 -1.058,1.14 0.114,0.803 0.739,1.463 1.593,1.93 0.798,0.414 1.857,0.661 2.906,0.661 0.543,0 0.996,-0.286 0.943,-0.661 C 3.688,3.911 3.357,3.859 3.122,3.859 2.98,3.859 2.885,3.911 2.678,4.002 1.783,4.002 0.918,3.834 0.309,3.471 -0.186,3.173 -0.43,2.914 -0.464,2.681 -0.49,2.486 -0.379,2.448 -0.236,2.448 c 0.181,0 0.563,0.142 1.109,0.337 0.721,0.246 1.276,0.414 1.832,0.414 1.05,0 1.309,-0.738 1.23,-1.295 C 3.808,1.01 3.202,0.298 2.63,-0.091 1.898,-0.596 0.85,-1.036 -0.158,-1.036 c -0.403,0 -0.955,0.116 -1.266,0.31 -0.322,0.194 -0.545,0.531 -0.5,0.855 0.067,0.479 0.41,0.712 0.631,0.712 0.337,0 0.65,-0.077 0.6,-0.44 L -0.75,0.193 C -0.619,0.103 -0.439,0 0,0"
             style="fill:#3a4f34;fill-opacity:1;fill-rule:nonzero;stroke:none"
             id="path102" /></g><g
           id="g104"
           transform="translate(287.4561,651.6362)"><path
             d="m 0,0 c 0.063,-0.09 0.063,-0.194 0.046,-0.311 -0.063,-0.44 -0.504,-0.544 -0.829,-0.544 -0.491,0 -0.64,0.324 -0.457,0.609 l 0.019,0.142 c -0.532,-0.376 -1.462,-0.907 -2.174,-0.907 -0.686,0 -1.504,0.442 -1.36,1.465 l 0.52,3.678 c -0.027,0.091 -0.016,0.168 -0.004,0.246 0.058,0.414 0.42,0.596 0.756,0.596 0.453,0 0.576,-0.324 0.543,-0.57 -0.02,-0.13 -0.058,-0.22 -0.135,-0.311 L -3.589,0.467 c -0.033,-0.246 0.252,-0.428 0.395,-0.428 0.699,0 1.617,0.635 2.179,1.036 l 0.446,3.148 c -0.02,0.143 -0.035,0.038 0,0.285 0.033,0.233 0.189,0.427 0.642,0.427 0.584,0 0.64,-0.336 0.522,-0.712 z"
             style="fill:#3a4f34;fill-opacity:1;fill-rule:nonzero;stroke:none"
             id="path106" /></g><g
           id="g108"
           transform="translate(290.5254,652.0635)"><path
             d="m 0,0 c 0.049,-0.207 0.281,-0.285 0.464,-0.285 1.27,0 2.797,1.827 2.958,2.967 C 3.467,3.005 3.366,3.394 2.9,3.394 2.369,3.394 2,3.161 1.551,2.824 0.826,2.28 0.419,1.788 0.202,1.438 Z m -0.617,-4.365 c 0.064,-0.091 0.054,-0.156 0.034,-0.298 -0.063,-0.453 -0.455,-0.569 -0.792,-0.569 -0.467,0 -0.561,0.245 -0.521,0.518 0.009,0.077 0.031,0.233 0.115,0.362 l 1.123,7.953 c -0.051,0.104 -0.036,0.207 -0.02,0.324 0.06,0.414 0.387,0.621 0.696,0.621 0.337,0 0.679,-0.142 0.617,-0.595 C 0.612,3.796 0.523,3.718 0.523,3.718 L 0.437,3.095 C 1.232,3.873 2.083,4.481 3.145,4.481 4.104,4.481 4.783,3.886 4.627,2.785 4.5,1.891 3.992,0.855 3.221,0.065 2.391,-0.764 1.217,-1.373 0.4,-1.373 c -0.297,0 -0.445,0.052 -0.574,0.156 z"
             style="fill:#3a4f34;fill-opacity:1;fill-rule:nonzero;stroke:none"
             id="path110" /></g><g
           id="g112"
           transform="translate(297.1865,652.0635)"><path
             d="m 0,0 c 0.048,-0.207 0.282,-0.285 0.464,-0.285 1.269,0 2.797,1.827 2.957,2.967 C 3.468,3.005 3.366,3.394 2.9,3.394 2.37,3.394 1.999,3.161 1.55,2.824 0.827,2.28 0.42,1.788 0.202,1.438 Z m -0.617,-4.365 c 0.064,-0.091 0.055,-0.156 0.035,-0.298 -0.064,-0.453 -0.456,-0.569 -0.792,-0.569 -0.467,0 -0.562,0.245 -0.523,0.518 0.011,0.077 0.032,0.233 0.117,0.362 l 1.122,7.953 c -0.05,0.104 -0.036,0.207 -0.019,0.324 0.059,0.414 0.386,0.621 0.696,0.621 0.337,0 0.679,-0.142 0.615,-0.595 C 0.612,3.796 0.524,3.718 0.524,3.718 L 0.437,3.095 C 1.233,3.873 2.083,4.481 3.145,4.481 4.104,4.481 4.784,3.886 4.628,2.785 4.501,1.891 3.993,0.855 3.222,0.065 2.392,-0.764 1.218,-1.373 0.401,-1.373 c -0.297,0 -0.445,0.052 -0.574,0.156 z"
             style="fill:#3a4f34;fill-opacity:1;fill-rule:nonzero;stroke:none"
             id="path114" /></g><g
           id="g116"
           transform="translate(307.0938,654.3301)"><path
             d="m 0,0 c 0.11,0.778 -0.234,1.269 -0.831,1.269 -0.621,0 -1.267,-0.349 -1.776,-0.841 -0.541,-0.531 -0.87,-1.205 -0.974,-1.943 -0.116,-0.829 0.296,-1.114 0.813,-1.114 0.649,0 0.98,0.143 1.557,0.647 C -0.398,-1.269 -0.084,-0.608 0,0 m -4.777,-1.554 c 0.343,2.435 2.417,3.912 4.048,3.912 1.491,0 2.095,-1.127 1.901,-2.513 -0.108,-0.751 -0.651,-1.749 -1.619,-2.552 -1.01,-0.829 -1.631,-1.01 -2.565,-1.01 -0.711,0 -1.312,0.427 -1.56,0.867 -0.284,0.467 -0.272,0.843 -0.205,1.296"
             style="fill:#3a4f34;fill-opacity:1;fill-rule:nonzero;stroke:none"
             id="path118" /></g><g
           id="g120"
           transform="translate(310.3809,651.7144)"><path
             d="m 0,0 c 0.055,-0.078 0.104,-0.195 0.084,-0.324 -0.063,-0.454 -0.358,-0.609 -0.863,-0.609 -0.428,0 -0.614,0.246 -0.567,0.57 0.017,0.116 0.088,0.259 0.181,0.363 l 0.569,4.041 c -0.009,0.104 -0.011,0.181 0.003,0.285 0.058,0.415 0.456,0.57 0.753,0.57 0.377,0 0.551,-0.233 0.51,-0.518 C 0.66,4.3 0.637,4.235 0.578,4.092 L 0.527,3.73 C 0.932,4.028 1.424,4.39 1.76,4.559 2.246,4.805 2.385,4.87 2.579,4.87 3.305,4.87 3.302,4.119 3.201,3.407 3.137,2.94 2.757,2.914 2.574,2.914 2.328,2.914 1.988,3.069 2.035,3.407 2.047,3.484 2.055,3.536 2.09,3.705 1.67,3.484 0.764,2.836 0.348,2.461 Z"
             style="fill:#3a4f34;fill-opacity:1;fill-rule:nonzero;stroke:none"
             id="path122" /></g><g
           id="g124"
           transform="translate(314.7998,655.3926)"><path
             d="m 0,0 c -0.085,-0.052 -0.153,-0.078 -0.258,-0.078 -0.453,0 -0.57,0.363 -0.55,0.505 0.059,0.415 0.413,0.636 0.738,0.636 0.05,0 0.102,-0.014 0.137,-0.027 L 0.808,1.14 0.942,2.099 C 0.917,2.189 0.933,2.292 0.94,2.357 1,2.772 1.376,2.863 1.726,2.863 1.957,2.863 2.285,2.798 2.23,2.409 2.215,2.292 2.188,2.189 2.109,2.099 L 1.999,1.321 3.479,1.528 C 3.548,1.554 3.671,1.594 3.761,1.594 4.136,1.594 4.28,1.23 4.263,1.114 4.204,0.7 3.978,0.467 3.666,0.467 3.628,0.467 3.522,0.454 3.437,0.492 L 1.851,0.259 1.387,-3.018 C 1.36,-3.199 1.329,-3.42 1.446,-3.42 c 0.195,0 0.322,0.078 0.991,0.505 0.244,0.168 0.594,0.441 0.873,0.765 0.092,0.376 0.343,0.505 0.615,0.505 0.57,0 0.59,-0.414 0.568,-0.57 -0.063,-0.44 -1.308,-1.372 -2.021,-1.839 -0.684,-0.427 -1.246,-0.66 -1.623,-0.66 -0.48,0 -0.84,0.193 -0.754,0.802 L 0.66,0.091 Z"
             style="fill:#3a4f34;fill-opacity:1;fill-rule:nonzero;stroke:none"
             id="path126" /></g><g
           id="g128"
           transform="translate(328.0293,651.6362)"><path
             d="m 0,0 c 0.065,-0.09 0.064,-0.194 0.047,-0.311 -0.063,-0.44 -0.504,-0.544 -0.828,-0.544 -0.492,0 -0.641,0.324 -0.459,0.609 l 0.021,0.142 c -0.532,-0.376 -1.463,-0.907 -2.175,-0.907 -0.686,0 -1.504,0.442 -1.36,1.465 l 0.52,3.678 C -4.26,4.223 -4.25,4.3 -4.239,4.378 c 0.059,0.414 0.422,0.596 0.759,0.596 0.453,0 0.575,-0.324 0.54,-0.57 -0.018,-0.13 -0.058,-0.22 -0.134,-0.311 L -3.586,0.467 c -0.035,-0.246 0.25,-0.428 0.393,-0.428 0.699,0 1.618,0.635 2.178,1.036 l 0.447,3.148 c -0.02,0.143 -0.036,0.038 0,0.285 0.033,0.233 0.189,0.427 0.643,0.427 0.583,0 0.64,-0.336 0.522,-0.712 z"
             style="fill:#3a4f34;fill-opacity:1;fill-rule:nonzero;stroke:none"
             id="path130" /></g><g
           id="g132"
           transform="translate(331.5938,651.7144)"><path
             d="M 0,0 C 0.504,0 1.324,0.207 1.947,0.673 2.481,1.062 2.678,1.437 2.718,1.735 2.748,1.942 2.623,2.06 2.376,2.06 2.091,2.06 1.696,1.929 1.164,1.735 0.521,1.502 0.016,1.308 -0.632,1.308 c -0.608,0 -1.152,0.466 -1.057,1.14 0.115,0.803 0.738,1.463 1.595,1.93 0.796,0.414 1.854,0.661 2.905,0.661 0.541,0 0.995,-0.286 0.942,-0.661 C 3.686,3.911 3.355,3.859 3.123,3.859 2.979,3.859 2.885,3.911 2.676,4.002 1.783,4.002 0.916,3.834 0.309,3.471 -0.188,3.173 -0.432,2.914 -0.463,2.681 -0.49,2.486 -0.379,2.448 -0.237,2.448 c 0.18,0 0.564,0.142 1.109,0.337 0.722,0.246 1.276,0.414 1.833,0.414 1.048,0 1.309,-0.738 1.231,-1.295 C 3.809,1.01 3.203,0.298 2.629,-0.091 1.896,-0.596 0.852,-1.036 -0.16,-1.036 c -0.402,0 -0.955,0.116 -1.264,0.31 -0.322,0.194 -0.547,0.531 -0.501,0.855 0.068,0.479 0.411,0.712 0.632,0.712 0.336,0 0.65,-0.077 0.598,-0.44 L -0.75,0.193 C -0.621,0.103 -0.441,0 0,0"
             style="fill:#3a4f34;fill-opacity:1;fill-rule:nonzero;stroke:none"
             id="path134" /></g><g
           id="g136"
           transform="translate(338.166,654.02)"><path
             d="m 0,0 c 0.094,-0.156 0.063,-0.298 0.039,-0.454 -0.057,-0.401 -0.562,-0.596 -0.873,-0.596 -0.441,0 -0.559,0.363 -0.517,0.661 0.028,0.194 0.114,0.337 0.191,0.428 l 0.628,4.442 c -0.023,0.027 -0.047,0.039 -0.07,0.064 -0.072,0.131 -0.087,0.208 -0.068,0.351 0.08,0.557 0.46,0.686 0.992,0.686 0.364,0 0.6,-0.168 0.53,-0.647 C 0.83,4.779 0.784,4.637 0.633,4.481 Z m -0.79,-1.555 c 0.597,0 0.614,-0.337 0.542,-0.842 -0.08,-0.569 -0.451,-0.907 -1.048,-0.907 -0.427,0 -0.515,0.48 -0.497,0.596 0.09,0.647 0.471,1.153 1.003,1.153"
             style="fill:#3a4f34;fill-opacity:1;fill-rule:nonzero;stroke:none"
             id="path138" /></g><text
           transform="matrix(1,0,0,-1,284.0137,637.4067)"
           style="font-variant:normal;font-weight:normal;font-stretch:normal;font-size:8px;font-family:Arial;-inkscape-font-specification:ArialMT;writing-mode:lr-tb;fill:#231f20;fill-opacity:1;fill-rule:nonzero;stroke:none"
           id="text146"><tspan
             x="0 5.336 7.112 9.3360004 11.56 16.007999 18.232 22.232 26.68 31.128 35.576 40.023998 44.472"
             y="0"
             sodipodi:role="line"
             id="tspan140">Bitte spendet</tspan><tspan
             x="-7.7839999 -3.336 1.112 3.336 7.7839999 9.5600004 14.008 18.007999 22.455999 26.455999 28.68 33.127998 37.576 42.023998 46.023998 50.472"
             y="10"
             sodipodi:role="line"
             id="tspan142">an dieses pubkey</tspan><tspan
             x="12.016 17.351999 21.351999 24.016001 25.792 30.24 32.464001"
             y="20"
             sodipodi:role="line"
             id="tspan144">Script:</tspan></text><path
           d="m 353.398,498.667 h -92.07 v 115 h 92.07 z"
           style="fill:#ffffff;fill-opacity:1;fill-rule:evenodd;stroke:#231f20;stroke-width:0.5;stroke-linecap:butt;stroke-linejoin:miter;stroke-miterlimit:4;stroke-dasharray:none;stroke-opacity:1"
           id="path148" /><text
           transform="matrix(1,0,0,-1,269.0186,513.9541)"
           style="font-variant:normal;font-weight:normal;font-stretch:normal;font-size:10px;font-family:Courier;-inkscape-font-specification:Courier;writing-mode:lr-tb;fill:#231f20;fill-opacity:1;fill-rule:nonzero;stroke:none"
           id="text152"><tspan
             x="0"
             y="0"
             id="tspan150">3</tspan></text><text
           transform="matrix(1,0,0,-1,269.0186,504.9541)"
           style="font-variant:normal;font-weight:normal;font-stretch:normal;font-size:8px;font-family:Courier;-inkscape-font-specification:Courier;writing-mode:lr-tb;fill:#231f20;fill-opacity:1;fill-rule:nonzero;stroke:none"
           id="text156"><tspan
             x="0 4.8000002 9.6000004 14.4 19.200001 24 28.799999 33.599998 38.400002 43.200001 48 52.799999 57.599998 62.400002 67.199997 72"
             y="0"
             sodipodi:role="line"
             id="tspan154">OP_CHECKMULTISIG</tspan></text><text
           transform="matrix(1,0,0,-1,269.0186,603.5518)"
           style="font-variant:normal;font-weight:normal;font-stretch:normal;font-size:10px;font-family:Courier;-inkscape-font-specification:Courier;writing-mode:lr-tb;fill:#231f20;fill-opacity:1;fill-rule:nonzero;stroke:none"
           id="text160"><tspan
             x="0"
             y="0"
             id="tspan158">2</tspan></text><text
           transform="matrix(1,0,0,-1,294.3618,520.8315)"
           style="font-variant:normal;font-weight:normal;font-stretch:normal;font-size:7px;font-family:Arial;-inkscape-font-specification:ArialMT;writing-mode:lr-tb;fill:#231f20;fill-opacity:1;fill-rule:nonzero;stroke:none"
           id="text164"><tspan
             x="0 4.277 8.1689997 9.7229996 13.223"
             y="0"
             sodipodi:role="line"
             id="tspan162">Faiza</tspan></text><g
           id="g166"
           transform="translate(313.1094,540.2192)"><path
             d="m 0,0 h -24.951 c -1.639,4.184 -5.737,7.15 -10.545,7.15 -6.252,0 -11.324,-5.013 -11.324,-11.202 0,-0.131 0.015,-0.261 0.021,-0.388 -0.006,-0.131 -0.021,-0.257 -0.021,-0.39 0,-6.184 5.072,-11.203 11.324,-11.203 4.457,0 8.301,2.554 10.148,6.258 h 2.082 c 0.147,1.069 1.229,1.908 2.551,1.908 1.324,0 2.406,-0.839 2.549,-1.908 h 2.293 c 0.144,1.069 1.223,1.908 2.547,1.908 1.326,0 2.404,-0.839 2.551,-1.908 h 2.291 c 0.144,1.069 1.224,1.908 2.548,1.908 1.325,0 2.405,-0.839 2.551,-1.908 h 1.596 l 5.879,6.736 v 0.776 z"
             style="fill:none;stroke:#231f20;stroke-width:1;stroke-linecap:butt;stroke-linejoin:round;stroke-miterlimit:4;stroke-dasharray:none;stroke-opacity:1"
             id="path168" /></g><g
           id="g170"
           transform="translate(317.1992,537.9565)"><path
             d="m 0,0 -29.041,1.487 c -1.639,4.182 -5.736,7.151 -10.545,7.151 -6.252,0 -11.324,-5.016 -11.324,-11.205 0,-6.184 5.072,-11.204 11.324,-11.204 4.457,0 8.301,2.554 10.148,6.258 h 2.083 c 0.146,1.07 1.228,1.909 2.55,1.909 1.325,0 2.407,-0.839 2.549,-1.909 h 2.293 c 0.145,1.07 1.223,1.909 2.547,1.909 1.326,0 2.404,-0.839 2.551,-1.909 h 2.291 c 0.144,1.07 1.224,1.909 2.549,1.909 1.324,0 2.404,-0.839 2.55,-1.909 h 1.596 L 0,-0.776 Z"
             style="fill:#278a2f;fill-opacity:1;fill-rule:nonzero;stroke:none"
             id="path172" /></g><g
           id="g174"
           transform="translate(317.1992,537.9565)"><path
             d="m 0,0 -29.041,1.487 c -1.639,4.182 -5.736,7.151 -10.545,7.151 -6.252,0 -11.324,-5.016 -11.324,-11.205 0,-6.184 5.072,-11.204 11.324,-11.204 4.457,0 8.301,2.554 10.148,6.258 h 2.083 c 0.146,1.07 1.228,1.909 2.55,1.909 1.325,0 2.407,-0.839 2.549,-1.909 h 2.293 c 0.145,1.07 1.223,1.909 2.547,1.909 1.326,0 2.404,-0.839 2.551,-1.909 h 2.291 c 0.144,1.07 1.224,1.909 2.549,1.909 1.324,0 2.404,-0.839 2.55,-1.909 h 1.596 L 0,-0.776 Z"
             style="fill:none;stroke:#278a2f;stroke-width:0.3;stroke-linecap:butt;stroke-linejoin:round;stroke-miterlimit:4;stroke-dasharray:none;stroke-opacity:1"
             id="path176" /></g></g></g><g
       id="g178"><g
         id="g180"><g
           id="g186"><path
             d="m 266.289,536.168 c 0,-6.188 5.073,-11.204 11.324,-11.204 v 0 c 4.457,0 8.301,2.552 10.149,6.256 v 0 h 2.082 c 0.146,1.07 1.229,1.908 2.551,1.908 v 0 c 1.324,0 2.405,-0.838 2.548,-1.908 v 0 h 2.294 c 0.144,1.07 1.222,1.908 2.546,1.908 v 0 c 1.326,0 2.405,-0.838 2.551,-1.908 v 0 h 2.291 c 0.145,1.07 1.225,1.908 2.549,1.908 v 0 c 1.324,0 2.404,-0.838 2.55,-1.908 v 0 h 1.596 l 5.88,6.736 -4.091,2.264 h -24.951 c -1.638,4.183 -5.736,7.149 -10.545,7.149 v 0 c -6.251,0 -11.324,-5.013 -11.324,-11.201"
             style="fill:url(#linearGradient192);stroke:none"
             id="path194" /></g></g></g><g
       id="g196"><g
         id="g198"><g
           id="g204"><path
             d="m 267.197,536.168 c 0,-5.677 4.672,-10.298 10.416,-10.298 v 0 c 3.989,0 7.566,2.205 9.336,5.755 v 0 l 0.25,0.503 h 1.975 c 0.522,1.128 1.779,1.908 3.221,1.908 v 0 c 1.443,0 2.699,-0.78 3.218,-1.908 v 0 h 0.951 c 0.524,1.128 1.78,1.908 3.219,1.908 v 0 c 1.443,0 2.7,-0.78 3.219,-1.908 v 0 h 0.953 c 0.521,1.128 1.779,1.908 3.219,1.908 v 0 c 1.443,0 2.699,-0.78 3.221,-1.908 v 0 h 0.511 l 4.867,5.578 -2.898,1.608 h -25.334 l -0.225,0.574 c -1.568,3.995 -5.377,6.576 -9.703,6.576 v 0 c -5.744,0 -10.416,-4.62 -10.416,-10.296"
             style="fill:url(#linearGradient210);stroke:none"
             id="path212" /></g></g></g><g
       id="g214"><g
         id="g216"
         clip-path="url(#clipPath220)"><g
           id="g222"
           transform="translate(286.5586,536.1675)"><path
             d="m 0,0 c 0,-4.943 -4.004,-8.947 -8.945,-8.947 -4.942,0 -8.948,4.004 -8.948,8.947 0,4.94 4.006,8.945 8.948,8.945 C -4.004,8.945 0,4.94 0,0"
             style="fill:#ffffff;fill-opacity:1;fill-rule:nonzero;stroke:none"
             id="path224" /></g><text
           transform="matrix(1,0,0,-1,269.5142,532.7363)"
           style="font-variant:normal;font-weight:normal;font-stretch:normal;font-size:9.0198px;font-family:Arial;-inkscape-font-specification:ArialMT;writing-mode:lr-tb;fill:#231f20;fill-opacity:1;fill-rule:nonzero;stroke:none"
           id="text228"><tspan
             x="0 6.0162067 11.031216"
             y="0"
             sodipodi:role="line"
             id="tspan226">Pub</tspan></text><text
           transform="matrix(1,0,0,-1,295.1377,547.5835)"
           style="font-variant:normal;font-weight:normal;font-stretch:normal;font-size:7px;font-family:Arial;-inkscape-font-specification:ArialMT;writing-mode:lr-tb;fill:#231f20;fill-opacity:1;fill-rule:nonzero;stroke:none"
           id="text232"><tspan
             x="0 4.6690001 6.223 7.777 11.669"
             y="0"
             sodipodi:role="line"
             id="tspan230">Ellen</tspan></text><g
           id="g234"
           transform="translate(313.1094,566.9702)"><path
             d="m 0,0 h -24.951 c -1.639,4.184 -5.737,7.149 -10.545,7.149 -6.252,0 -11.324,-5.014 -11.324,-11.202 0,-0.131 0.015,-0.261 0.021,-0.388 -0.006,-0.131 -0.021,-0.256 -0.021,-0.389 0,-6.186 5.072,-11.205 11.324,-11.205 4.457,0 8.301,2.555 10.148,6.258 h 2.082 c 0.147,1.07 1.229,1.908 2.551,1.908 1.324,0 2.406,-0.838 2.549,-1.908 h 2.293 c 0.144,1.07 1.223,1.908 2.547,1.908 1.326,0 2.404,-0.838 2.551,-1.908 h 2.291 c 0.144,1.07 1.224,1.908 2.548,1.908 1.325,0 2.405,-0.838 2.551,-1.908 h 1.596 l 5.879,6.736 v 0.777 z"
             style="fill:none;stroke:#231f20;stroke-width:1;stroke-linecap:butt;stroke-linejoin:round;stroke-miterlimit:4;stroke-dasharray:none;stroke-opacity:1"
             id="path236" /></g><g
           id="g238"
           transform="translate(317.1992,564.7065)"><path
             d="m 0,0 -29.041,1.486 c -1.639,4.184 -5.736,7.153 -10.545,7.153 -6.252,0 -11.324,-5.016 -11.324,-11.205 0,-6.186 5.072,-11.205 11.324,-11.205 4.457,0 8.301,2.554 10.148,6.257 h 2.083 c 0.146,1.071 1.228,1.909 2.55,1.909 1.325,0 2.407,-0.838 2.549,-1.909 h 2.293 c 0.145,1.071 1.223,1.909 2.547,1.909 1.326,0 2.404,-0.838 2.551,-1.909 h 2.291 c 0.144,1.071 1.224,1.909 2.549,1.909 1.324,0 2.404,-0.838 2.55,-1.909 h 1.596 L 0,-0.777 Z"
             style="fill:#278a2f;fill-opacity:1;fill-rule:nonzero;stroke:none"
             id="path240" /></g><g
           id="g242"
           transform="translate(317.1992,564.7065)"><path
             d="m 0,0 -29.041,1.486 c -1.639,4.184 -5.736,7.153 -10.545,7.153 -6.252,0 -11.324,-5.016 -11.324,-11.205 0,-6.186 5.072,-11.205 11.324,-11.205 4.457,0 8.301,2.554 10.148,6.257 h 2.083 c 0.146,1.071 1.228,1.909 2.55,1.909 1.325,0 2.407,-0.838 2.549,-1.909 h 2.293 c 0.145,1.071 1.223,1.909 2.547,1.909 1.326,0 2.404,-0.838 2.551,-1.909 h 2.291 c 0.144,1.071 1.224,1.909 2.549,1.909 1.324,0 2.404,-0.838 2.55,-1.909 h 1.596 L 0,-0.777 Z"
             style="fill:none;stroke:#278a2f;stroke-width:0.3;stroke-linecap:butt;stroke-linejoin:round;stroke-miterlimit:4;stroke-dasharray:none;stroke-opacity:1"
             id="path244" /></g></g></g><g
       id="g246"><g
         id="g248"><g
           id="g254"><path
             d="m 266.289,562.918 c 0,-6.188 5.073,-11.204 11.324,-11.204 v 0 c 4.457,0 8.301,2.553 10.149,6.256 v 0 h 2.082 c 0.146,1.07 1.229,1.908 2.551,1.908 v 0 c 1.324,0 2.405,-0.838 2.548,-1.908 v 0 h 2.294 c 0.144,1.07 1.222,1.908 2.546,1.908 v 0 c 1.326,0 2.405,-0.838 2.551,-1.908 v 0 h 2.291 c 0.145,1.07 1.225,1.908 2.549,1.908 v 0 c 1.324,0 2.404,-0.838 2.55,-1.908 v 0 h 1.596 l 5.88,6.737 -4.091,2.263 h -24.951 c -1.638,4.184 -5.736,7.15 -10.545,7.15 v 0 c -6.251,0 -11.324,-5.015 -11.324,-11.202"
             style="fill:url(#linearGradient260);stroke:none"
             id="path262" /></g></g></g><g
       id="g264"><g
         id="g266"><g
           id="g272"><path
             d="m 267.197,562.918 c 0,-5.678 4.672,-10.297 10.416,-10.297 v 0 c 3.989,0 7.566,2.204 9.336,5.754 v 0 l 0.25,0.503 h 1.975 c 0.522,1.127 1.779,1.907 3.221,1.907 v 0 c 1.443,0 2.699,-0.78 3.218,-1.907 v 0 h 0.951 c 0.524,1.127 1.78,1.907 3.219,1.907 v 0 c 1.443,0 2.7,-0.78 3.219,-1.907 v 0 h 0.953 c 0.521,1.127 1.779,1.907 3.219,1.907 v 0 c 1.443,0 2.699,-0.78 3.221,-1.907 v 0 h 0.511 l 4.867,5.579 -2.898,1.607 h -25.334 l -0.225,0.574 c -1.568,3.994 -5.377,6.575 -9.703,6.575 v 0 c -5.744,0 -10.416,-4.619 -10.416,-10.295"
             style="fill:url(#linearGradient278);stroke:none"
             id="path280" /></g></g></g><g
       id="g282"><g
         id="g284"
         clip-path="url(#clipPath288)"><g
           id="g290"
           transform="translate(286.5586,562.9175)"><path
             d="m 0,0 c 0,-4.943 -4.004,-8.947 -8.945,-8.947 -4.942,0 -8.948,4.004 -8.948,8.947 0,4.941 4.006,8.945 8.948,8.945 C -4.004,8.945 0,4.941 0,0"
             style="fill:#ffffff;fill-opacity:1;fill-rule:nonzero;stroke:none"
             id="path292" /></g><text
           transform="matrix(1,0,0,-1,269.5142,559.4863)"
           style="font-variant:normal;font-weight:normal;font-stretch:normal;font-size:9.0198px;font-family:Arial;-inkscape-font-specification:ArialMT;writing-mode:lr-tb;fill:#231f20;fill-opacity:1;fill-rule:nonzero;stroke:none"
           id="text296"><tspan
             x="0 6.0162067 11.031216"
             y="0"
             sodipodi:role="line"
             id="tspan294">Pub</tspan></text><text
           transform="matrix(1,0,0,-1,295.3311,574.3315)"
           style="font-variant:normal;font-weight:normal;font-stretch:normal;font-size:7px;font-family:Arial;-inkscape-font-specification:ArialMT;writing-mode:lr-tb;fill:#231f20;fill-opacity:1;fill-rule:nonzero;stroke:none"
           id="text300"><tspan
             x="0 3.5 7.3920002 11.284"
             y="0"
             sodipodi:role="line"
             id="tspan298">John</tspan></text><g
           id="g302"
           transform="translate(313.1094,593.7202)"><path
             d="m 0,0 h -24.951 c -1.639,4.184 -5.737,7.149 -10.545,7.149 -6.252,0 -11.324,-5.014 -11.324,-11.202 0,-0.131 0.015,-0.261 0.021,-0.388 -0.006,-0.131 -0.021,-0.256 -0.021,-0.389 0,-6.186 5.072,-11.205 11.324,-11.205 4.457,0 8.301,2.555 10.148,6.258 h 2.082 c 0.147,1.07 1.229,1.908 2.551,1.908 1.324,0 2.406,-0.838 2.549,-1.908 h 2.293 c 0.144,1.07 1.223,1.908 2.547,1.908 1.326,0 2.404,-0.838 2.551,-1.908 h 2.291 c 0.144,1.07 1.224,1.908 2.548,1.908 1.325,0 2.405,-0.838 2.551,-1.908 h 1.596 l 5.879,6.736 v 0.777 z"
             style="fill:none;stroke:#231f20;stroke-width:1;stroke-linecap:butt;stroke-linejoin:round;stroke-miterlimit:4;stroke-dasharray:none;stroke-opacity:1"
             id="path304" /></g><g
           id="g306"
           transform="translate(317.1992,591.4565)"><path
             d="m 0,0 -29.041,1.486 c -1.639,4.184 -5.736,7.153 -10.545,7.153 -6.252,0 -11.324,-5.016 -11.324,-11.205 0,-6.186 5.072,-11.205 11.324,-11.205 4.457,0 8.301,2.554 10.148,6.257 h 2.083 c 0.146,1.071 1.228,1.909 2.55,1.909 1.325,0 2.407,-0.838 2.549,-1.909 h 2.293 c 0.145,1.071 1.223,1.909 2.547,1.909 1.326,0 2.404,-0.838 2.551,-1.909 h 2.291 c 0.144,1.071 1.224,1.909 2.549,1.909 1.324,0 2.404,-0.838 2.55,-1.909 h 1.596 L 0,-0.777 Z"
             style="fill:#278a2f;fill-opacity:1;fill-rule:nonzero;stroke:none"
             id="path308" /></g><g
           id="g310"
           transform="translate(317.1992,591.4565)"><path
             d="m 0,0 -29.041,1.486 c -1.639,4.184 -5.736,7.153 -10.545,7.153 -6.252,0 -11.324,-5.016 -11.324,-11.205 0,-6.186 5.072,-11.205 11.324,-11.205 4.457,0 8.301,2.554 10.148,6.257 h 2.083 c 0.146,1.071 1.228,1.909 2.55,1.909 1.325,0 2.407,-0.838 2.549,-1.909 h 2.293 c 0.145,1.071 1.223,1.909 2.547,1.909 1.326,0 2.404,-0.838 2.551,-1.909 h 2.291 c 0.144,1.071 1.224,1.909 2.549,1.909 1.324,0 2.404,-0.838 2.55,-1.909 h 1.596 L 0,-0.777 Z"
             style="fill:none;stroke:#278a2f;stroke-width:0.3;stroke-linecap:butt;stroke-linejoin:round;stroke-miterlimit:4;stroke-dasharray:none;stroke-opacity:1"
             id="path312" /></g></g></g><g
       id="g314"><g
         id="g316"><g
           id="g322"><path
             d="m 266.289,589.667 c 0,-6.187 5.073,-11.203 11.324,-11.203 v 0 c 4.457,0 8.301,2.553 10.149,6.256 v 0 h 2.082 c 0.146,1.07 1.229,1.908 2.551,1.908 v 0 c 1.324,0 2.405,-0.838 2.548,-1.908 v 0 h 2.294 c 0.144,1.07 1.222,1.908 2.546,1.908 v 0 c 1.326,0 2.405,-0.838 2.551,-1.908 v 0 h 2.291 c 0.145,1.07 1.225,1.908 2.549,1.908 v 0 c 1.324,0 2.404,-0.838 2.55,-1.908 v 0 h 1.596 l 5.88,6.737 -4.091,2.263 h -24.951 c -1.638,4.184 -5.736,7.15 -10.545,7.15 v 0 c -6.251,0 -11.324,-5.015 -11.324,-11.203"
             style="fill:url(#linearGradient328);stroke:none"
             id="path330" /></g></g></g><g
       id="g332"><g
         id="g334"><g
           id="g340"><path
             d="m 267.197,589.667 c 0,-5.678 4.672,-10.297 10.416,-10.297 v 0 c 3.989,0 7.566,2.205 9.336,5.755 v 0 l 0.25,0.503 h 1.975 c 0.522,1.127 1.779,1.906 3.221,1.906 v 0 c 1.443,0 2.699,-0.779 3.218,-1.906 v 0 h 0.951 c 0.524,1.127 1.78,1.906 3.219,1.906 v 0 c 1.443,0 2.7,-0.779 3.219,-1.906 v 0 h 0.953 c 0.521,1.127 1.779,1.906 3.219,1.906 v 0 c 1.443,0 2.699,-0.779 3.221,-1.906 v 0 h 0.511 l 4.867,5.578 -2.898,1.608 h -25.334 l -0.225,0.574 c -1.568,3.994 -5.377,6.574 -9.703,6.574 v 0 c -5.744,0 -10.416,-4.617 -10.416,-10.295"
             style="fill:url(#linearGradient346);stroke:none"
             id="path348" /></g></g></g><g
       id="g350"><g
         id="g352"
         clip-path="url(#clipPath356)"><g
           id="g358"
           transform="translate(286.5586,589.6675)"><path
             d="m 0,0 c 0,-4.943 -4.004,-8.947 -8.945,-8.947 -4.942,0 -8.948,4.004 -8.948,8.947 0,4.941 4.006,8.945 8.948,8.945 C -4.004,8.945 0,4.941 0,0"
             style="fill:#ffffff;fill-opacity:1;fill-rule:nonzero;stroke:none"
             id="path360" /></g><text
           transform="matrix(1,0,0,-1,269.5142,586.2363)"
           style="font-variant:normal;font-weight:normal;font-stretch:normal;font-size:9.0198px;font-family:Arial;-inkscape-font-specification:ArialMT;writing-mode:lr-tb;fill:#231f20;fill-opacity:1;fill-rule:nonzero;stroke:none"
           id="text364"><tspan
             x="0 6.0162067 11.031216"
             y="0"
             sodipodi:role="line"
             id="tspan362">Pub</tspan></text><g
           id="g366"><g
             id="g368" /><g
             id="g380"><g
               clip-path="url(#clipPath372)"
               opacity="0.600006"
               id="g378"><g
                 transform="translate(261.21,671.397)"
                 id="g376"><path
                   d="m 0,0 c 0,-1.385 -1.123,-2.507 -2.51,-2.507 -1.383,0 -2.506,1.122 -2.506,2.507 0,1.385 1.123,2.508 2.506,2.508 C -1.123,2.508 0,1.385 0,0"
                   style="fill:#8cb44d;fill-opacity:1;fill-rule:nonzero;stroke:none"
                   id="path374" /></g></g></g></g><g
           id="g382"
           transform="translate(258.1445,670.6924)"><path
             d="m 0,0 c -0.071,-0.247 -0.318,-0.389 -0.548,-0.323 -0.242,0.07 -0.375,0.32 -0.306,0.567 0.072,0.245 0.318,0.39 0.56,0.32 C -0.065,0.499 0.069,0.245 0,0"
             style="fill:#231f20;fill-opacity:1;fill-rule:nonzero;stroke:none"
             id="path384" /></g></g></g><g
       id="g386"><g
         id="g388"><g
           id="g394"><path
             d="m 257.352,670.755 c -0.047,-0.166 0.061,-0.336 0.245,-0.389 v 0 c 0.174,-0.051 0.356,0.039 0.404,0.202 v 0 l 0.451,1.578 -0.647,0.186 z"
             style="fill:url(#linearGradient408);stroke:none"
             id="path410" /></g></g></g><g
       id="g412"><g
         id="g414"><g
           id="g420"><path
             d="m 255.832,675.847 c -0.005,-0.016 -0.009,-0.031 -0.013,-0.047 v 0 l -0.217,-0.788 c -0.248,-1.213 0.821,-2.533 2.464,-3.004 v 0 c 1.635,-0.469 3.239,0.088 3.669,1.248 v 0 l 0.248,0.83 c 0.379,1.319 -0.691,2.786 -2.384,3.271 v 0 c -0.375,0.107 -0.749,0.158 -1.109,0.158 v 0 c -1.274,0 -2.363,-0.639 -2.658,-1.668"
             style="fill:url(#radialGradient428);stroke:none"
             id="path430" /></g></g></g><g
       id="g432"><g
         id="g434"
         clip-path="url(#clipPath438)"><g
           id="g440"><g
             id="g442" /><g
             id="g474"><g
               clip-path="url(#clipPath446)"
               id="g472"><g
                 id="g470"><g
                   id="g468"><g
                     id="g466"><g
                       id="g464"><path
                         d="m 261.735,673.255 0.247,0.831 c 0.331,1.154 -0.446,2.422 -1.781,3.046 l -1.864,-2.818 c 0.703,-0.393 1.621,-1.089 1.726,-2.365 0.795,0.192 1.427,0.646 1.672,1.306"
                         style="fill:url(#linearGradient460);stroke:none"
                         id="path462" /></g></g></g></g></g></g></g><g
           id="g476"
           transform="translate(257.6768,673.6055)"><path
             d="m 0,0 c -0.144,-0.193 -0.501,-0.17 -0.796,0.051 -0.294,0.22 -0.416,0.556 -0.27,0.75 0.143,0.193 0.501,0.17 0.795,-0.051 C 0.024,0.53 0.146,0.195 0,0"
             style="fill:#ffffff;fill-opacity:1;fill-rule:nonzero;stroke:none"
             id="path478" /></g></g></g><g
       id="g480"><g
         id="g482"><g
           id="g488"><path
             d="m 260.088,679.083 -1.699,-0.162 -1.231,-2.837 c -0.211,-0.738 0.476,-1.582 1.535,-1.886 v 0 c 1.057,-0.302 2.086,0.05 2.298,0.789 v 0 l 0.457,3.058 -1.356,1.036 v 0.002 h -0.002 l -0.002,0.002 z"
             style="fill:url(#linearGradient504);stroke:none"
             id="path506" /></g></g></g><g
       id="g508"><g
         id="g510"
         clip-path="url(#clipPath514)"><g
           id="g516"><g
             id="g518" /><g
             id="g546"><g
               clip-path="url(#clipPath522)"
               id="g544"><g
                 id="g542"><g
                   id="g540"><g
                     id="g538"><g
                       id="g536"><path
                         d="m 260.092,679.082 v 10e-4 h -0.002 l -0.002,0.002 v -0.002 l -1.699,-0.162 -0.29,-0.669 c 0.084,-1.129 1.797,-3.481 2.954,-2.85 l 0.395,2.643 z"
                         style="fill:url(#linearGradient532);stroke:none"
                         id="path534" /></g></g></g></g></g></g></g></g></g><g
       id="g548"><g
         id="g550"><g
           id="g556"><path
             d="m 257.859,680.227 c -0.261,-0.912 0.585,-1.956 1.893,-2.331 v 0 c 1.307,-0.373 2.579,0.063 2.84,0.976 v 0 l 0.151,0.527 -4.733,1.355 z"
             style="fill:url(#linearGradient574);stroke:none"
             id="path576" /></g></g></g><g
       id="g578"><g
         id="g580"><g
           id="g586"><path
             d="m 258.01,680.754 c -0.262,-0.912 0.586,-1.956 1.893,-2.33 v 0 c 1.308,-0.375 2.578,0.063 2.84,0.975 v 0 c 0.262,0.913 -0.586,1.956 -1.892,2.33 v 0 c -0.318,0.091 -0.634,0.134 -0.933,0.134 v 0 c -0.934,0 -1.71,-0.418 -1.908,-1.109"
             style="fill:url(#linearGradient592);stroke:none"
             id="path594" /></g></g></g><g
       id="g596"><g
         id="g598"
         clip-path="url(#clipPath602)"><g
           id="g604"><g
             id="g606" /><g
             id="g618"><g
               clip-path="url(#clipPath610)"
               opacity="0.600006"
               id="g616"><g
                 transform="translate(360.7529,671.397)"
                 id="g614"><path
                   d="m 0,0 c 0,-1.385 -1.123,-2.507 -2.51,-2.507 -1.383,0 -2.506,1.122 -2.506,2.507 0,1.385 1.123,2.508 2.506,2.508 C -1.123,2.508 0,1.385 0,0"
                   style="fill:#8cb44d;fill-opacity:1;fill-rule:nonzero;stroke:none"
                   id="path612" /></g></g></g></g><g
           id="g620"
           transform="translate(357.6875,670.6924)"><path
             d="m 0,0 c -0.071,-0.247 -0.318,-0.389 -0.548,-0.323 -0.242,0.07 -0.375,0.32 -0.306,0.567 0.072,0.245 0.318,0.39 0.56,0.32 C -0.065,0.499 0.069,0.245 0,0"
             style="fill:#231f20;fill-opacity:1;fill-rule:nonzero;stroke:none"
             id="path622" /></g></g></g><g
       id="g624"><g
         id="g626"><g
           id="g632"><path
             d="m 356.896,670.755 c -0.048,-0.166 0.06,-0.336 0.244,-0.389 v 0 c 0.174,-0.051 0.356,0.039 0.404,0.202 v 0 l 0.451,1.578 -0.647,0.186 z"
             style="fill:url(#linearGradient646);stroke:none"
             id="path648" /></g></g></g><g
       id="g650"><g
         id="g652"><g
           id="g658"><path
             d="m 355.375,675.847 c -0.005,-0.016 -0.009,-0.031 -0.014,-0.047 v 0 l -0.216,-0.788 c -0.247,-1.213 0.821,-2.533 2.465,-3.004 v 0 c 1.634,-0.469 3.238,0.088 3.668,1.248 v 0 l 0.247,0.83 c 0.379,1.319 -0.69,2.786 -2.384,3.271 v 0 c -0.374,0.107 -0.748,0.158 -1.108,0.158 v 0 c -1.273,0 -2.363,-0.639 -2.658,-1.668"
             style="fill:url(#radialGradient666);stroke:none"
             id="path668" /></g></g></g><g
       id="g670"><g
         id="g672"
         clip-path="url(#clipPath676)"><g
           id="g678"><g
             id="g680" /><g
             id="g712"><g
               clip-path="url(#clipPath684)"
               id="g710"><g
                 id="g708"><g
                   id="g706"><g
                     id="g704"><g
                       id="g702"><path
                         d="m 361.278,673.255 0.247,0.831 c 0.331,1.154 -0.446,2.422 -1.781,3.046 l -1.864,-2.818 c 0.703,-0.393 1.621,-1.089 1.726,-2.365 0.795,0.192 1.427,0.646 1.672,1.306"
                         style="fill:url(#linearGradient698);stroke:none"
                         id="path700" /></g></g></g></g></g></g></g><g
           id="g714"
           transform="translate(357.2197,673.6055)"><path
             d="m 0,0 c -0.144,-0.193 -0.501,-0.17 -0.796,0.051 -0.294,0.22 -0.416,0.556 -0.27,0.75 0.143,0.193 0.501,0.17 0.795,-0.051 C 0.024,0.53 0.146,0.195 0,0"
             style="fill:#ffffff;fill-opacity:1;fill-rule:nonzero;stroke:none"
             id="path716" /></g></g></g><g
       id="g718"><g
         id="g720"><g
           id="g726"><path
             d="m 359.631,679.083 -1.699,-0.162 -1.23,-2.837 c -0.212,-0.738 0.475,-1.582 1.534,-1.886 v 0 c 1.057,-0.302 2.086,0.05 2.299,0.789 v 0 l 0.456,3.058 -1.356,1.036 v 0.002 h -0.002 l -0.002,0.002 z"
             style="fill:url(#linearGradient742);stroke:none"
             id="path744" /></g></g></g><g
       id="g746"><g
         id="g748"
         clip-path="url(#clipPath752)"><g
           id="g754"><g
             id="g756" /><g
             id="g784"><g
               clip-path="url(#clipPath760)"
               id="g782"><g
                 id="g780"><g
                   id="g778"><g
                     id="g776"><g
                       id="g774"><path
                         d="m 359.635,679.082 v 10e-4 h -0.002 l -0.002,0.002 v -0.002 l -1.699,-0.162 -0.29,-0.669 c 0.084,-1.129 1.796,-3.481 2.954,-2.85 l 0.395,2.643 z"
                         style="fill:url(#linearGradient770);stroke:none"
                         id="path772" /></g></g></g></g></g></g></g></g></g><g
       id="g786"><g
         id="g788"><g
           id="g794"><path
             d="m 357.403,680.227 c -0.262,-0.912 0.585,-1.956 1.892,-2.331 v 0 c 1.307,-0.373 2.579,0.063 2.84,0.976 v 0 l 0.151,0.527 -4.733,1.355 z"
             style="fill:url(#linearGradient812);stroke:none"
             id="path814" /></g></g></g><g
       id="g816"><g
         id="g818"><g
           id="g824"><path
             d="m 357.553,680.754 c -0.262,-0.912 0.586,-1.956 1.894,-2.33 v 0 c 1.307,-0.375 2.577,0.063 2.839,0.975 v 0 c 0.262,0.913 -0.586,1.956 -1.893,2.33 v 0 c -0.317,0.091 -0.633,0.134 -0.932,0.134 v 0 c -0.934,0 -1.71,-0.418 -1.908,-1.109"
             style="fill:url(#linearGradient830);stroke:none"
             id="path832" /></g></g></g></g></svg>
