<svg xmlns="http://www.w3.org/2000/svg" xmlns:xlink="http://www.w3.org/1999/xlink" width="277.44" height="186.39" viewBox="0 0 277.44 186.39">
  <defs>
    <style>
      .cls-1, .cls-19, .cls-24, .cls-6, .cls-9 {
        fill: none;
      }

      .cls-2 {
        fill: #cce1e9;
      }

      .cls-2, .cls-24, .cls-25, .cls-27, .cls-28, .cls-29, .cls-30, .cls-32, .cls-40, .cls-6, .cls-9 {
        stroke: #000;
      }

      .cls-19, .cls-2, .cls-24, .cls-25, .cls-27, .cls-29, .cls-30, .cls-32, .cls-40 {
        stroke-linejoin: round;
      }

      .cls-2, .cls-39, .cls-43, .cls-6 {
        stroke-width: 0.5px;
      }

      .cls-17, .cls-3 {
        font-size: 7px;
      }

      .cls-20, .cls-3 {
        font-family: ArialMT, Arial;
      }

      .cls-4 {
        fill: #2a8a2f;
      }

      .cls-33, .cls-40, .cls-5, .cls-7 {
        fill: #fff;
      }

      .cls-7, .cls-8 {
        font-size: 19px;
      }

      .cls-7 {
        stroke: #fff;
        stroke-width: 2px;
      }

      .cls-10, .cls-7, .cls-8 {
        font-family: Humanist521BT-BoldCondensed, Humanst521 Cn BT;
        font-weight: 700;
      }

      .cls-8 {
        fill: #499822;
      }

      .cls-9 {
        stroke-miterlimit: 10;
      }

      .cls-24, .cls-25, .cls-27, .cls-28, .cls-29, .cls-30, .cls-32, .cls-40, .cls-9 {
        stroke-width: 0.3px;
      }

      .cls-10 {
        font-size: 9px;
      }

      .cls-11 {
        letter-spacing: 0.02em;
      }

      .cls-12 {
        letter-spacing: 0em;
      }

      .cls-13 {
        letter-spacing: -0.02em;
      }

      .cls-14 {
        letter-spacing: -0.05em;
      }

      .cls-15 {
        letter-spacing: 0em;
      }

      .cls-16 {
        letter-spacing: 0.02em;
      }

      .cls-18 {
        fill: #fef0e8;
      }

      .cls-19 {
        stroke: #e60001;
      }

      .cls-20 {
        font-size: 8.4px;
      }

      .cls-21 {
        fill: #7f8587;
      }

      .cls-22 {
        fill: url(#linear-gradient);
      }

      .cls-23 {
        fill: url(#linear-gradient-2);
      }

      .cls-25 {
        fill: #7cb2c9;
      }

      .cls-26 {
        fill: #c4dbe5;
      }

      .cls-28 {
        fill: #fda452;
      }

      .cls-29 {
        fill: #ca0127;
      }

      .cls-30 {
        fill: #fb2b34;
      }

      .cls-31 {
        clip-path: url(#clip-path);
      }

      .cls-32 {
        fill: #dbdbdb;
      }

      .cls-33, .cls-34, .cls-35, .cls-36, .cls-37, .cls-45 {
        fill-rule: evenodd;
      }

      .cls-34 {
        fill: #fbafc5;
      }

      .cls-35 {
        fill: #fda655;
      }

      .cls-37 {
        fill: #96c749;
      }

      .cls-38 {
        letter-spacing: -0.04em;
      }

      .cls-39 {
        fill: #f0f0f0;
        stroke: #4d4d4d;
        stroke-dasharray: 2 1;
      }

      .cls-41 {
        letter-spacing: -0.02em;
      }

      .cls-42 {
        letter-spacing: 0em;
      }

      .cls-43, .cls-44 {
        fill: #8dac58;
      }

      .cls-43 {
        stroke: #3b5c18;
      }

      .cls-45 {
        fill: #28708e;
      }

      .cls-46 {
        fill: #018536;
      }

      .cls-47 {
        fill: #ff0001;
      }
    </style>
    <linearGradient id="linear-gradient" x1="362.66" y1="214.68" x2="362.66" y2="225.52" gradientTransform="translate(-116.49 -71.91)" gradientUnits="userSpaceOnUse">
      <stop offset="0" stop-color="#797d7e"/>
      <stop offset="0.06" stop-color="#979a9b"/>
      <stop offset="0.15" stop-color="#bcbebf"/>
      <stop offset="0.24" stop-color="#d9dbdb"/>
      <stop offset="0.33" stop-color="#eeefef"/>
      <stop offset="0.42" stop-color="#fbfbfb"/>
      <stop offset="0.5" stop-color="#fff"/>
    </linearGradient>
    <linearGradient id="linear-gradient-2" x1="362.62" y1="220.78" x2="362.62" y2="225.52" gradientTransform="translate(-116.49 -71.91)" gradientUnits="userSpaceOnUse">
      <stop offset="0" stop-color="#eef0f0"/>
      <stop offset="1" stop-color="#cccfd0"/>
    </linearGradient>
    <clipPath id="clip-path" transform="translate(-167.75 -71.91)">
      <rect class="cls-1" x="405.89" y="200.48" width="15.98" height="9.74"/>
    </clipPath>
  </defs>
  <g id="Layer_2" data-name="Layer 2">
    <rect class="cls-2" x="68.31" y="31.4" width="45.61" height="17.55"/>
    <text class="cls-3" transform="translate(76.52 42.39)">Vergleich</text>
    <path class="cls-4" d="M287.64,96a8.36,8.36,0,1,1-11.35-3.29A8.36,8.36,0,0,1,287.64,96" transform="translate(-167.75 -71.91)"/>
    <path class="cls-5" d="M275.07,102.26c-.94-1.85-1.55-3.29.59-4.46s3,.09,4.09,1.89l.56,1c1.05,1.91,1.67,3.38-.52,4.59s-3.11-.11-4.16-2l-.56-1m2.31.94c.32.59.9,1.52,1.82,1s.42-1.51,0-2.2l-1-1.83c-.32-.58-1-1.86-2-1.31s-.27,1.78,0,2.33Z" transform="translate(-167.75 -71.91)"/>
    <path class="cls-5" d="M283.26,103.16,279.31,96l1.34-.74,1.75,3.18h0a15.91,15.91,0,0,1-.1-2.18l0-1.89,1.51-.84-.07,4,4.1,3.06-1.51.83-2.81-2.13-.05,1,1.13,2.06-1.33.73" transform="translate(-167.75 -71.91)"/>
    <line class="cls-6" x1="118.73" y1="40.19" x2="174.91" y2="40.19"/>
    <path d="M284.47,111.5a21.94,21.94,0,0,0,2.33-.85v2.91a20.29,20.29,0,0,0-2.33-.87,16.23,16.23,0,0,0-2.53-.6A17.29,17.29,0,0,0,284.47,111.5Z" transform="translate(-167.75 -71.91)"/>
    <polyline class="cls-6" points="147.55 115.78 168.42 115.78 168.42 131.07"/>
    <polyline class="cls-6" points="123.95 115.78 104.42 115.78 104.42 131.07"/>
    <line class="cls-6" x1="196.46" y1="56.65" x2="196.46" y2="72.27"/>
    <path d="M354.37,149.46a21.94,21.94,0,0,0-2.33.85v-2.9a23.05,23.05,0,0,0,2.33.86,15.15,15.15,0,0,0,2.53.6A18.7,18.7,0,0,0,354.37,149.46Z" transform="translate(-167.75 -71.91)"/>
    <line class="cls-6" x1="184.52" y1="76.95" x2="146.5" y2="76.95"/>
    <text class="cls-7" transform="translate(188.53 82.67)">+</text>
    <text class="cls-8" transform="translate(188.53 82.67)">+</text>
    <path d="M364.81,126.46a24.39,24.39,0,0,0,.85,2.33h-2.9a22.61,22.61,0,0,0,.86-2.32,16.54,16.54,0,0,0,.61-2.54A17,17,0,0,0,364.81,126.46Z" transform="translate(-167.75 -71.91)"/>
    <path d="M374,149.46a23,23,0,0,1,2.34.85v-2.9a24.05,24.05,0,0,1-2.33.86,15.22,15.22,0,0,1-2.54.6A18.36,18.36,0,0,1,374,149.46Z" transform="translate(-167.75 -71.91)"/>
    <line class="cls-6" x1="208.39" y1="76.95" x2="238.76" y2="76.95"/>
    <line class="cls-6" x1="135.88" y1="93" x2="135.88" y2="111.11"/>
    <path d="M293.8,188.3a23,23,0,0,0-2.34.85v-2.91a22.43,22.43,0,0,0,2.33.87,17.55,17.55,0,0,0,2.54.6A15.83,15.83,0,0,0,293.8,188.3Z" transform="translate(-167.75 -71.91)"/>
    <text class="cls-7" transform="translate(127.95 121.51)">+</text>
    <text class="cls-8" transform="translate(127.95 121.51)">+</text>
    <path d="M304.23,162.81c.29.95.55,1.57.85,2.33h-2.9a22.94,22.94,0,0,0,.87-2.32,17.55,17.55,0,0,0,.6-2.54A17,17,0,0,0,304.23,162.81Z" transform="translate(-167.75 -71.91)"/>
    <path d="M313.46,188.3a21.37,21.37,0,0,1,2.34.85v-2.91a22.43,22.43,0,0,1-2.33.87,17.47,17.47,0,0,1-2.53.6A15.75,15.75,0,0,1,313.46,188.3Z" transform="translate(-167.75 -71.91)"/>
    <path class="cls-5" d="M362.61,199.59a3.94,3.94,0,0,1-3.94,3.94h0a3.93,3.93,0,0,1-3.94-3.94h0a3.94,3.94,0,0,1,3.94-3.94h0a4,4,0,0,1,3.94,3.94Z" transform="translate(-167.75 -71.91)"/>
    <path class="cls-5" d="M299.62,199.59a3.94,3.94,0,0,1-3.94,3.94h0a3.93,3.93,0,0,1-3.94-3.94h0a3.94,3.94,0,0,1,3.94-3.94h0a4,4,0,0,1,3.94,3.94Z" transform="translate(-167.75 -71.91)"/>
    <path class="cls-5" d="M323,139.58a3.93,3.93,0,0,1-3.94,3.94h0a3.94,3.94,0,0,1-3.94-3.94h0a3.94,3.94,0,0,1,3.94-3.94h0a3.93,3.93,0,0,1,3.94,3.94Z" transform="translate(-167.75 -71.91)"/>
    <path class="cls-5" d="M383.62,104.69a4,4,0,0,1-3.94,3.94h0a3.94,3.94,0,0,1-3.94-3.94h0a3.93,3.93,0,0,1,3.94-3.94h0a3.94,3.94,0,0,1,3.94,3.94Z" transform="translate(-167.75 -71.91)"/>
    <path d="M379.67,109.47a4.86,4.86,0,1,1,4.86-4.86,4.85,4.85,0,0,1-4.86,4.86m-.27-6.83h0v4.86h.94v-5.78h-.81l-1.29.71.18.74,1-.53" transform="translate(-167.75 -71.91)"/>
    <path d="M319,144.44a4.86,4.86,0,1,1,4.86-4.86,4.85,4.85,0,0,1-4.86,4.86m-.24-7c.5,0,.77.35.77.89a5.16,5.16,0,0,1-1.42,2.82l-.54.71v.62h3v-.84h-1.83l.36-.46a4.92,4.92,0,0,0,1.38-2.91,1.46,1.46,0,0,0-1.54-1.62,2.24,2.24,0,0,0-1.2.37l.17.73a1.68,1.68,0,0,1,.87-.3" transform="translate(-167.75 -71.91)"/>
    <path d="M295.67,204.45a4.86,4.86,0,1,1,4.86-4.86,4.85,4.85,0,0,1-4.86,4.86m-1.17-2.91-.16.75a2.23,2.23,0,0,0,1.08.26,1.7,1.7,0,0,0,1.81-1.73,1.44,1.44,0,0,0-1-1.48v0a1.42,1.42,0,0,0,.84-1.32,1.31,1.31,0,0,0-1.4-1.37,2,2,0,0,0-1.12.33l.14.7a1.41,1.41,0,0,1,.73-.24.68.68,0,0,1,.71.77.92.92,0,0,1-1,.86H295v.7h.17a1,1,0,0,1,1.12,1,.89.89,0,0,1-.93,1,1.82,1.82,0,0,1-.86-.23" transform="translate(-167.75 -71.91)"/>
    <path d="M358.66,204.45a4.86,4.86,0,1,1,4.86-4.86,4.86,4.86,0,0,1-4.86,4.86m-.1-7.75-1.89,3.66V201h2v1.48h.85V201h.59v-.76h-.59V196.7h-.92m.07,3.54h-1.12l.7-1.42c.16-.34.28-.61.45-1h0c0,.34-.05.69-.05,1v1.38" transform="translate(-167.75 -71.91)"/>
    <path class="cls-5" d="M444.29,139.58a3.94,3.94,0,0,1-3.94,3.94h0a3.93,3.93,0,0,1-3.94-3.94h0a3.93,3.93,0,0,1,3.94-3.94h0a3.94,3.94,0,0,1,3.94,3.94Z" transform="translate(-167.75 -71.91)"/>
    <path d="M440.33,144.44a4.86,4.86,0,1,1,4.87-4.86,4.86,4.86,0,0,1-4.87,4.86m-1.24-2.93-.16.74a2.1,2.1,0,0,0,1,.25,1.87,1.87,0,0,0,1.89-2,1.73,1.73,0,0,0-.5-1.32,1.84,1.84,0,0,0-1.08-.45h-.2l.19-1.25h1.54v-.83h-2.25l-.35,2.8c.12,0,.26,0,.43,0,.71,0,1.29.31,1.29,1.15a1,1,0,0,1-1,1.13,2,2,0,0,1-.83-.2" transform="translate(-167.75 -71.91)"/>
    <g>
      <path class="cls-9" d="M309.17,248.25c-4.06,0-10.44-3.51-16.68-3.51" transform="translate(-167.75 -71.91)"/>
      <polygon points="140.87 174.48 144.11 176.35 140.87 178.22 140.87 174.48"/>
    </g>
    <g>
      <path class="cls-9" d="M230.67,105c-9.67-2.67-15.67-6.67-16-13.67" transform="translate(-167.75 -71.91)"/>
      <polygon points="62.88 31.15 65.51 33.81 61.89 34.76 62.88 31.15"/>
    </g>
    <g>
      <path class="cls-9" d="M356.92,103.75c-5.25-6-13.51-7.08-13.77-12.49" transform="translate(-167.75 -71.91)"/>
      <polygon points="190.21 30.2 190.93 33.87 187.39 32.66 190.21 30.2"/>
    </g>
    <g>
      <path class="cls-9" d="M204.67,195c0,5-5.34,8.5-5.34,14" transform="translate(-167.75 -71.91)"/>
      <polygon points="35.06 123.64 36.93 120.4 38.8 123.64 35.06 123.64"/>
    </g>
    <text class="cls-10" transform="translate(0.06 7.57)">Check, dass Lisa den neu<tspan x="0" y="9.5">e</tspan><tspan class="cls-11" x="3.96" y="9.5">r</tspan><tspan class="cls-12" x="7.52" y="9.5">zeugten Merkle Root</tspan><tspan x="0" y="19">signiert hat.</tspan></text>
    <text class="cls-10" transform="translate(8.06 144.73)">Merkle <tspan class="cls-13" x="26.25" y="0">P</tspan><tspan x="30.72" y="0">roof</tspan></text>
    <text class="cls-10" transform="translate(150.02 7.57)"><tspan class="cls-14">W</tspan><tspan class="cls-15" x="7.56" y="0">allet e</tspan><tspan class="cls-16" x="29.16" y="0">r</tspan><tspan x="32.72" y="0">zeugt</tspan><tspan x="0" y="9.5">den Merkle Root neu.</tspan></text>
    <text class="cls-10" transform="translate(71.58 174.76)">Check, dass Tx<tspan class="cls-17" x="50.84" y="2">2</tspan><tspan x="53.99" y="0"> </tspan><tspan x="0" y="9.5">enthalten ist.</tspan></text>
    <rect class="cls-2" x="145.62" y="167.01" width="45.61" height="17.55"/>
    <text class="cls-3" transform="translate(153.83 178.01)">Vergleich</text>
    <path class="cls-4" d="M365,231.57a8.36,8.36,0,1,1-11.35-3.29A8.35,8.35,0,0,1,365,231.57" transform="translate(-167.75 -71.91)"/>
    <path class="cls-5" d="M352.38,237.88c-.94-1.86-1.55-3.29.59-4.47s3,.1,4.09,1.89l.56,1c1.05,1.91,1.68,3.38-.52,4.59s-3.1-.1-4.16-2l-.56-1m2.31.93c.32.59.9,1.53,1.82,1s.42-1.51,0-2.2l-1-1.83c-.31-.57-1-1.85-2-1.31s-.27,1.78,0,2.34Z" transform="translate(-167.75 -71.91)"/>
    <path class="cls-5" d="M360.57,238.78l-3.94-7.16,1.33-.74,1.75,3.18h0a15.91,15.91,0,0,1-.1-2.18l0-1.89,1.51-.83-.07,4,4.1,3.07-1.51.83L360.82,235l-.05,1,1.14,2-1.34.74" transform="translate(-167.75 -71.91)"/>
    <polyline class="cls-6" points="196.04 175.81 212.92 175.81 212.92 113.63 230.63 113.63"/>
    <path d="M361.78,247.12a24.39,24.39,0,0,0,2.33-.85v2.9a22.43,22.43,0,0,0-2.33-.87,17.47,17.47,0,0,0-2.53-.6A17,17,0,0,0,361.78,247.12Z" transform="translate(-167.75 -71.91)"/>
    <line class="cls-6" x1="168.44" y1="162.1" x2="168.42" y2="143.48"/>
    <path d="M335.59,236c-.29-1-.55-1.57-.85-2.33h2.9a22,22,0,0,0-.87,2.32,17.55,17.55,0,0,0-.6,2.54A17,17,0,0,0,335.59,236Z" transform="translate(-167.75 -71.91)"/>
    <path d="M413.25,228.78c-.29.95-.55,1.57-.85,2.34h2.9a23.39,23.39,0,0,1-.87-2.33,17.55,17.55,0,0,1-.6-2.54A16.76,16.76,0,0,1,413.25,228.78Z" transform="translate(-167.75 -71.91)"/>
    <g>
      <rect class="cls-18" x="230.22" y="166.19" width="31.75" height="18.38" rx="2"/>
      <rect class="cls-19" x="230.22" y="166.19" width="31.75" height="18.38" rx="2"/>
    </g>
    <text class="cls-20" transform="translate(239.1 177.59)">Tx<tspan x="9.33" y="2.4">2</tspan></text>
    <g>
      <g>
        <path class="cls-21" d="M423.79,214.85a.58.58,0,0,0-.58-.62H404.55a.58.58,0,0,0-.59.62l.59,10.64a.66.66,0,0,0,.65.62h17.35a.67.67,0,0,0,.66-.62Z" transform="translate(-167.75 -71.91)"/>
        <polygon class="cls-22" points="237.4 153.61 236.79 142.77 255.55 142.77 254.85 153.61 237.4 153.61"/>
        <polygon class="cls-23" points="237.47 153.61 238.6 148.87 253.74 148.87 254.79 153.61 237.47 153.61"/>
        <path class="cls-24" d="M423.79,214.08a.58.58,0,0,0-.58-.62H404.55a.58.58,0,0,0-.59.62l.59,11.41a.66.66,0,0,0,.65.62h17.35a.67.67,0,0,0,.66-.62Z" transform="translate(-167.75 -71.91)"/>
      </g>
      <polygon class="cls-25" points="235.44 140.62 235.72 142.32 256.53 142.32 256.81 140.62 235.44 140.62"/>
      <g>
        <path class="cls-26" d="M422.83,208a.78.78,0,0,0-.69-.46H405.61a.78.78,0,0,0-.69.46l-1.75,4.41a.31.31,0,0,0,.31.46h20.79a.31.31,0,0,0,.31-.46Z" transform="translate(-167.75 -71.91)"/>
        <path class="cls-24" d="M422.83,208a.78.78,0,0,0-.69-.46H405.61a.78.78,0,0,0-.69.46l-1.75,4.41a.31.31,0,0,0,.31.46h20.79a.31.31,0,0,0,.31-.46Z" transform="translate(-167.75 -71.91)"/>
      </g>
      <polygon class="cls-27" points="238.09 137.92 237.81 138.61 254.44 138.61 254.16 137.92 238.09 137.92"/>
      <g>
        <path class="cls-28" d="M412.73,221.16l.88.83c.74-.86,1.09-3.55,1.09-7.31h-1.57C413.13,218.52,413.13,220.7,412.73,221.16Z" transform="translate(-167.75 -71.91)"/>
        <path class="cls-28" d="M410.4,221l.57,1.09c1.59-.92,2-4.11,2-7.44H411.4C411.4,216.09,411.6,220.35,410.4,221Z" transform="translate(-167.75 -71.91)"/>
        <path class="cls-28" d="M408,221l.41,1.17c2.65-1,2.85-5.37,2.85-7.48h-1.58C409.71,216.36,409.91,220.28,408,221Z" transform="translate(-167.75 -71.91)"/>
        <path class="cls-28" d="M405.65,221l.32,1.19c3.45-1,3.65-5.54,3.65-7.49H408C408,216.49,408.23,220.24,405.65,221Z" transform="translate(-167.75 -71.91)"/>
        <path class="cls-28" d="M417.37,221l-.58,1.09c-1.59-.92-2-4.11-2-7.44h1.57C416.36,216.09,416.17,220.35,417.37,221Z" transform="translate(-167.75 -71.91)"/>
        <path class="cls-28" d="M419.73,221l-.41,1.17c-2.65-1-2.85-5.37-2.85-7.48h1.58C418.05,216.36,417.86,220.28,419.73,221Z" transform="translate(-167.75 -71.91)"/>
        <path class="cls-28" d="M422.11,221l-.31,1.19c-3.46-1-3.66-5.54-3.66-7.49h1.58C419.72,216.49,419.53,220.24,422.11,221Z" transform="translate(-167.75 -71.91)"/>
      </g>
      <path class="cls-29" d="M414.69,211.64c0,.25-.37.46-.81.46s-.82-.21-.82-.46.37-.45.82-.45S414.69,211.39,414.69,211.64Z" transform="translate(-167.75 -71.91)"/>
      <path class="cls-30" d="M414.69,211.43c0,.24-.37.45-.81.45s-.82-.21-.82-.45.37-.46.82-.46S414.69,211.18,414.69,211.43Z" transform="translate(-167.75 -71.91)"/>
      <g class="cls-31">
        <rect class="cls-32" x="238.51" y="129.9" width="15.23" height="16.82"/>
        <rect class="cls-5" x="239.22" y="130.61" width="13.8" height="15.39"/>
        <g>
          <path class="cls-33" d="M409.19,202.52H419a23.89,23.89,0,0,0-2.54.36,16.38,16.38,0,0,0-4.69,0C411,202.68,410.05,202.65,409.19,202.52Z" transform="translate(-167.75 -71.91)"/>
          <path class="cls-34" d="M408.12,202.83a2.57,2.57,0,0,1,2,.92,1.83,1.83,0,0,0-.31.81c0,.16.11-.05.2,0-.08.09,0,.32-.2.31A3.5,3.5,0,0,0,408.12,202.83Z" transform="translate(-167.75 -71.91)"/>
          <path class="cls-35" d="M408.93,202.83a11.12,11.12,0,0,1,2.3.15c-.26.24-1,.3-.92.67C410,203.47,409.58,202.89,408.93,202.83Z" transform="translate(-167.75 -71.91)"/>
          <path class="cls-36" d="M414.33,204.1a4.08,4.08,0,0,0,.06,1.38A1.55,1.55,0,0,1,414.33,204.1Z" transform="translate(-167.75 -71.91)"/>
          <path class="cls-36" d="M413.62,206.4c-.13,0-.47,0-.51-.11-.42.8-2.05.81-2.24-.2-.2,0-.36.09-.56.1C411.05,205.46,413,205.83,413.62,206.4Zm-.81-.21c-.3.21-.71.53-1.18.26-.13-.1-.1-.37-.3-.41h-.21C411.11,206.91,412.67,207,412.81,206.19Z" transform="translate(-167.75 -71.91)"/>
          <path class="cls-36" d="M417.9,206.14c-.15.15-.36-.08-.56,0a1.27,1.27,0,0,1-2.24.2c0,.14-.26.06-.51.16A3.06,3.06,0,0,1,417.9,206.14Zm-1.12-.1a.67.67,0,0,1-.56.51c-.39,0-.56-.28-.87-.36.2.76,1.64.72,1.74-.1A.43.43,0,0,0,416.78,206Z" transform="translate(-167.75 -71.91)"/>
          <path class="cls-37" d="M411.12,206h.21c.2,0,.17.31.3.41.47.27.88,0,1.18-.26C412.67,207,411.11,206.91,411.12,206Z" transform="translate(-167.75 -71.91)"/>
          <path class="cls-37" d="M417.09,206.09c-.1.82-1.54.86-1.74.1.31.08.48.4.87.36a.67.67,0,0,0,.56-.51A.43.43,0,0,1,417.09,206.09Z" transform="translate(-167.75 -71.91)"/>
          <path class="cls-36" d="M414.59,206.9c.16.32-.38.24-.46.46.53.15,1.1.23,1.28.72a2.22,2.22,0,0,0-2.65,0c.19-.47.76-.56,1.27-.72-.06-.19-.37-.14-.46-.3v-.16A2.34,2.34,0,0,1,414.59,206.9Zm-.56.26c.09-.27-.18-.2-.36-.2C413.7,207.12,413.91,207.1,414,207.16Zm.1,0a.5.5,0,0,0,.41-.2h-.41Z" transform="translate(-167.75 -71.91)"/>
          <path class="cls-34" d="M413.67,207c.18,0,.45-.07.36.2C413.91,207.1,413.7,207.12,413.67,207Z" transform="translate(-167.75 -71.91)"/>
          <path class="cls-34" d="M414.13,207h.41a.5.5,0,0,1-.41.2Z" transform="translate(-167.75 -71.91)"/>
          <path class="cls-36" d="M411.74,207.26c.07-.11.35,0,.51,0C412.18,207.33,411.89,207.23,411.74,207.26Z" transform="translate(-167.75 -71.91)"/>
          <path class="cls-36" d="M416,207.26c.11-.11.43,0,.62,0C416.47,207.33,416.15,207.23,416,207.26Z" transform="translate(-167.75 -71.91)"/>
          <path class="cls-36" d="M413.11,207.31a4.64,4.64,0,0,1-1.32.41A2.68,2.68,0,0,1,413.11,207.31Z" transform="translate(-167.75 -71.91)"/>
          <path class="cls-36" d="M414.69,209.4a3.66,3.66,0,0,1-1.07,0c-.32,0,.5,0,.71-.1S414.51,209.44,414.69,209.4Z" transform="translate(-167.75 -71.91)"/>
          <path class="cls-35" d="M412.2,214.24a2,2,0,0,0-.62,1.17C411.08,215.2,411.58,214.12,412.2,214.24Z" transform="translate(-167.75 -71.91)"/>
          <path class="cls-35" d="M416,214.29s.07,0,.11,0a.88.88,0,0,1,.41.16c.23.2.42.84.1,1C416.47,215.17,416.43,214.45,416,214.29Z" transform="translate(-167.75 -71.91)"/>
          <path class="cls-35" d="M419.43,214.45c.21-.16.56.44.2.56C419.53,214.85,419.59,214.53,419.43,214.45Z" transform="translate(-167.75 -71.91)"/>
          <path class="cls-33" d="M408.12,202.52c-.11.1-.38,0-.46.16.83.63,2,1.35,2,2.65,0,.65-.36,1.26-.26,2.09,0,.21.22,0,.26.1a.91.91,0,0,0,.36.86c.1,0,.09-.07.1-.15.25.15.48.34.71.51,0,1.11-.57,1.63-.76,2.55a1.39,1.39,0,0,0-1.74,2.09c-.35.45-.87.75-1.12,1.32.14,0,.44-.21.62-.3-.08.37-.49,1.3-.11,1.83.15,0,.1-.25.16-.36a1.87,1.87,0,0,0,.76,1.17c.12,0,0-.26-.05-.3a3.36,3.36,0,0,0,2.19,1.12c.05-.1-.25-.29-.41-.36.6,0,1.51.55,2.29.26a.77.77,0,0,0-.4-.16,6.3,6.3,0,0,0,3.36-.91c0-.12-.28,0-.41-.05.32-.11.67-.18,1-.31a17.13,17.13,0,0,0-1.89-.36c0-.07.13,0,.21,0-.09-.2-.39-.19-.66-.21a1,1,0,0,0,.2-.66,1.29,1.29,0,0,1,.1.51c.74.51,2,0,2.75-.1,1.09-.16,3.1.31,3.11-.72,0-.38-.35-.54-.71-.66a3.39,3.39,0,0,0,.76-1.63,1.34,1.34,0,0,0-2-1.17c-.22-.89-.79-1.43-.77-2.55.22-.15.58-.64.77-.36a1,1,0,0,0,.4-.91c.1-.05.17.15.21,0,.21-.82-.28-1.47-.26-2.14,0-1.27,1.26-2,2-2.65-.05-.12-.24-.11-.41-.11v0h.46v15.39H407.2V202.52Z" transform="translate(-167.75 -71.91)"/>
          <path class="cls-35" d="M417,203a10.32,10.32,0,0,1,2.25-.25,2.69,2.69,0,0,0-1.28.92C417.92,203.36,417.37,203.18,417,203Z" transform="translate(-167.75 -71.91)"/>
          <path class="cls-34" d="M418.16,204.56c0-.15.08.08.15.05.16-.25-.08-.59-.2-.86a2.79,2.79,0,0,1,1.93-1,4.16,4.16,0,0,0-1.68,2.14C418.26,204.83,418.28,204.63,418.16,204.56Z" transform="translate(-167.75 -71.91)"/>
          <path class="cls-35" d="M417.44,203.49a7.47,7.47,0,0,1,.61.46c0,.1-.14,0-.15,0s.24.17.21.36c-.11,0-.1-.14-.21-.16a10.26,10.26,0,0,1,.66,3.16c-.29.08-.14.61-.3.82-.13-.05.07-.2,0-.36-.21.25-.38.55-.72.66.09-.13.22-.22.31-.35a6.81,6.81,0,0,1-3.31,1.22,4.6,4.6,0,0,0,2.6-.56c0,1.66,1.58,3.65.25,5.15,0,.11.17-.1.21-.16.15.09-.11.16-.11.26a2.52,2.52,0,0,0,.67-2.5c1.73-.69,2,1.68,1,2.4-.23,0-.32-.11-.5,0,.05.08.21,0,.3.1-.1.11-.42,0-.61.05.59.14,1.2.25,1.07,1.12a1.87,1.87,0,0,1-.56.1c0-.53-.15-1-.66-1.07a1,1,0,0,1,.51,1.12,14.75,14.75,0,0,1-1.68.1c.06-.84-.31-1.26-1-1.37,0-.42-.14-.79-.15-1.22.16-.31.48-.47.45-1a2.33,2.33,0,0,1-.41.61c-.06,0,0-.13,0-.21a3.17,3.17,0,0,0-.11,1.84,1.46,1.46,0,0,0-.66.51c.25-.06.42-.19.66-.26a1.34,1.34,0,0,1,.56,1.12.55.55,0,0,1-.45.16,1,1,0,0,0-.47-1,1,1,0,0,1,.21,1,2.58,2.58,0,0,1-1.27-.05c-.14-1.08-.13-2.33-.36-3.32a29.74,29.74,0,0,1-.26,3.37,4.16,4.16,0,0,1-1.27,0,1.1,1.1,0,0,1,.2-.92.91.91,0,0,0-.4,1c-.23,0-.29-.09-.46-.1,0-.57.16-1,.56-1.18a3.2,3.2,0,0,1,.56.26c0-.18-.35-.43-.61-.51a3.46,3.46,0,0,0-.05-1.89c-.12,0,0,.18-.05.26-.14-.19-.35-.3-.36-.61a.81.81,0,0,0,.41.91,8.14,8.14,0,0,1-.21,1.28,1.09,1.09,0,0,0-.91,1.37,6.72,6.72,0,0,1-1.74-.15c0-.54.1-1,.56-1-.47-.11-.66.49-.66,1a1.87,1.87,0,0,1-.56-.1c-.2-.72.37-1.08,1.07-1.07-.1-.12-.42,0-.61,0,0-.11.13-.11.26-.1-.07-.22-.28,0-.46,0-1-.74-.76-3.06,1-2.4a2.55,2.55,0,0,0,.61,2.5c.11,0-.1-.17-.16-.21s.12.12.21.11a3.43,3.43,0,0,1-.46-1.94c.11-1.15.9-2,.81-3.21a5.09,5.09,0,0,0,2.55.61c-1.19-.31-2.47-.51-3.21-1.27-.05.06.15.29.26.35-.23,0-.56-.39-.72-.66-.13.05.07.16,0,.31-.18-.18-.09-.82-.3-.82a8.22,8.22,0,0,1,.66-3.06c0-.1-.16.08-.2.11s.09-.32.25-.31c-.32,0,.16-.37.41-.41,0-.14-.22,0-.31,0a12.32,12.32,0,0,1,7.29,0C417.69,203.65,417.57,203.44,417.44,203.49Zm-3.05,2a4.08,4.08,0,0,1-.06-1.38A1.55,1.55,0,0,0,414.39,205.48Zm-.51-.21c-.2.41.05.13.1-.2a1.45,1.45,0,0,0-.15-.92A5.74,5.74,0,0,1,413.88,205.27Zm-3.57.92c.2,0,.36-.09.56-.1.19,1,1.82,1,2.24.2,0,.11.38.15.51.11C413,205.83,411.05,205.46,410.31,206.19Zm4.28.26c.25-.1.51,0,.51-.16a1.27,1.27,0,0,0,2.24-.2c.2,0,.41.2.56,0A3.06,3.06,0,0,0,414.59,206.45Zm-1,.45v.16c.09.16.4.11.46.3-.51.16-1.08.25-1.27.72a2.22,2.22,0,0,1,2.65,0c-.18-.49-.75-.57-1.28-.72.08-.22.62-.14.46-.46A2.34,2.34,0,0,0,413.57,206.9Zm3,.11c-.34.16-.85-.06-1,0C415.77,207.07,416.34,207.23,416.58,207Zm-5.05,0a1,1,0,0,0,1,0A2.3,2.3,0,0,1,411.53,207Zm.72.2c-.16,0-.44-.06-.51,0C411.89,207.23,412.18,207.33,412.25,207.21Zm4.33,0c-.19,0-.51-.06-.62,0C416.15,207.23,416.47,207.33,416.58,207.21Zm-4.79.51a4.64,4.64,0,0,0,1.32-.41A2.68,2.68,0,0,0,411.79,207.72Zm4.63,0c.15,0,.08,0-.05-.05a2.23,2.23,0,0,0-1.32-.31A12.51,12.51,0,0,0,416.42,207.72Zm-4.68.66c.38-.33.9-.52,1.27-.86A2.36,2.36,0,0,0,411.74,208.38Zm4.79,0c-.43-.23-.81-.78-1.33-.76C415.65,207.78,416.11,208.25,416.53,208.33Zm-2.86.26c.2,0,.43-.18.36-.26C414,208.45,413.77,208.48,413.67,208.59Zm.87,0c-.15,0-.32-.29-.41-.21C414.21,208.48,414.39,208.74,414.54,208.59Zm-.66.2c.14-.17.31,0,.51,0C414.41,208.52,413.71,208.64,413.88,208.79Zm.45.56c-.21.08-1,.06-.71.1a3.66,3.66,0,0,0,1.07,0C414.51,209.44,414.5,209.33,414.33,209.35Z" transform="translate(-167.75 -71.91)"/>
          <path class="cls-36" d="M408.12,202.52h1.07c.86.13,1.81.16,2.6.36a16.38,16.38,0,0,1,4.69,0,23.89,23.89,0,0,1,2.54-.36h1.07v0c.17,0,.36,0,.41.11-.78.68-2,1.38-2,2.65,0,.67.47,1.32.26,2.14,0,.15-.11-.05-.21,0a1,1,0,0,1-.4.91c-.19-.28-.55.21-.77.36,0,1.12.55,1.66.77,2.55a1.34,1.34,0,0,1,2,1.17,3.39,3.39,0,0,1-.76,1.63c.36.12.72.28.71.66,0,1-2,.56-3.11.72-.76.1-2,.61-2.75.1a1.29,1.29,0,0,0-.1-.51,1,1,0,0,1-.2.66c.27,0,.57,0,.66.21-.08,0-.19,0-.21,0a17.13,17.13,0,0,1,1.89.36c-.3.13-.65.2-1,.31.13,0,.37-.07.41.05a6.3,6.3,0,0,1-3.36.91.77.77,0,0,1,.4.16c-.78.29-1.69-.22-2.29-.26.16.07.46.26.41.36a3.36,3.36,0,0,1-2.19-1.12c.05,0,.17.26.05.3a1.87,1.87,0,0,1-.76-1.17c-.06.11,0,.33-.16.36-.38-.53,0-1.46.11-1.83-.18.09-.48.33-.62.3.25-.57.77-.87,1.12-1.32a1.39,1.39,0,0,1,1.74-2.09c.19-.92.76-1.44.76-2.55-.23-.17-.46-.36-.71-.51,0,.08,0,.18-.1.15a.91.91,0,0,1-.36-.86c0-.14-.24.11-.26-.1-.1-.83.28-1.44.26-2.09,0-1.3-1.21-2-2-2.65C407.74,202.56,408,202.62,408.12,202.52Zm9.63,1a12.32,12.32,0,0,0-7.29,0c.09,0,.26-.14.31,0-.25,0-.73.42-.41.41-.16,0-.31.27-.25.31s.19-.21.2-.11a8.22,8.22,0,0,0-.66,3.06c.21,0,.12.64.3.82.07-.15-.13-.26,0-.31.16.27.49.63.72.66-.11-.06-.31-.29-.26-.35.74.76,2,1,3.21,1.27a5.09,5.09,0,0,1-2.55-.61c.09,1.26-.7,2.06-.81,3.21a3.43,3.43,0,0,0,.46,1.94c-.09,0-.16-.25-.21-.11s.27.17.16.21a2.55,2.55,0,0,1-.61-2.5c-1.78-.66-2.05,1.66-1,2.4.18,0,.39-.17.46,0-.13,0-.25,0-.26.1.19,0,.51-.07.61,0-.7,0-1.27.35-1.07,1.07a1.87,1.87,0,0,0,.56.1c0-.53.19-1.13.66-1-.46.06-.57.48-.56,1a6.72,6.72,0,0,0,1.74.15,1.09,1.09,0,0,1,.91-1.37,8.14,8.14,0,0,0,.21-1.28.81.81,0,0,1-.41-.91c0,.31.22.42.36.61,0-.08-.07-.27.05-.26a3.46,3.46,0,0,1,.05,1.89c.26.08.61.33.61.51a3.2,3.2,0,0,0-.56-.26c-.4.18-.55.61-.56,1.18.17,0,.23.14.46.1a.91.91,0,0,1,.4-1,1.1,1.1,0,0,0-.2.92,4.16,4.16,0,0,0,1.27,0,29.74,29.74,0,0,0,.26-3.37c.23,1,.22,2.24.36,3.32a2.58,2.58,0,0,0,1.27.05,1,1,0,0,0-.21-1,1,1,0,0,1,.47,1,.55.55,0,0,0,.45-.16,1.34,1.34,0,0,0-.56-1.12c-.24.07-.41.2-.66.26a1.46,1.46,0,0,1,.66-.51,3.17,3.17,0,0,1,.11-1.84c0,.08,0,.19,0,.21a2.33,2.33,0,0,0,.41-.61c0,.5-.29.66-.45,1,0,.43.11.8.15,1.22.66.11,1,.53,1,1.37a14.75,14.75,0,0,0,1.68-.1,1,1,0,0,0-.51-1.12c.51.07.62.54.66,1.07a1.87,1.87,0,0,0,.56-.1c.13-.87-.48-1-1.07-1.12.19,0,.51.06.61-.05-.09-.05-.25,0-.3-.1.18-.11.27,0,.5,0,1-.72.72-3.09-1-2.4a2.52,2.52,0,0,1-.67,2.5c0-.1.26-.17.11-.26,0,.06-.17.27-.21.16,1.33-1.5-.26-3.49-.25-5.15a4.6,4.6,0,0,1-2.6.56,6.81,6.81,0,0,0,3.31-1.22c-.09.13-.22.22-.31.35.34-.11.51-.41.72-.66.07.16-.13.31,0,.36.16-.21,0-.74.3-.82a10.26,10.26,0,0,0-.66-3.16c.11,0,.1.14.21.16,0-.19-.33-.26-.21-.36s.17.15.15,0a7.47,7.47,0,0,0-.61-.46C417.57,203.44,417.69,203.65,417.75,203.49Zm-7.95,1.38c.19,0,.12-.22.2-.31-.09-.05-.17.16-.2,0a1.83,1.83,0,0,1,.31-.81,2.57,2.57,0,0,0-2-.92A3.5,3.5,0,0,1,409.8,204.87Zm.51-1.22c0-.37.66-.43.92-.67a11.12,11.12,0,0,0-2.3-.15C409.58,202.89,410,203.47,410.31,203.65Zm7.64,0a2.69,2.69,0,0,1,1.28-.92A10.32,10.32,0,0,0,417,203C417.37,203.18,417.92,203.36,418,203.7Zm.41,1.22a4.16,4.16,0,0,1,1.68-2.14,2.79,2.79,0,0,0-1.93,1c.12.27.36.61.2.86-.07,0-.13-.2-.15-.05S418.26,204.83,418.36,204.92Zm-8.05,12.68a1.36,1.36,0,0,1-.46-.71,3.44,3.44,0,0,0,2,.71c-.22-.07-.58-.26-.56-.4a5.14,5.14,0,0,0,3.51-.36,1.41,1.41,0,0,1-.61-.15,8.65,8.65,0,0,0,1.27-.36c-.7-.16-1.53-.19-2.23-.36,0-.07.19,0,.2-.1-.58,0-1.26.1-1.68.06,0-.12.15-.06.15-.16a4.93,4.93,0,0,1-1.48,0c.16-.06.37-.08.41-.25-.94-.08-2.89,0-2.7-1,.07-.34.49-.37.76-.61-.15-.08-.31-.16-.35-.36a2,2,0,0,0-.66.56,3,3,0,0,1,.45-.1,1.87,1.87,0,0,0-.5,1.48.28.28,0,0,1,.15-.26,2.65,2.65,0,0,0,.35,1.17c0-.15-.06-.44.05-.51A3,3,0,0,0,410.31,217.6Zm1.27-2.19a2,2,0,0,1,.62-1.17C411.58,214.12,411.08,215.2,411.58,215.41Zm5.05,0c.32-.17.13-.81-.1-1a.88.88,0,0,0-.41-.16s-.1,0-.11,0C416.43,214.45,416.47,215.17,416.63,215.41Zm-8.26-.61c.07.09.11.2.26.21-.08-.3.16-.55.1-.67C408.62,214.5,408.39,214.54,408.37,214.8Zm11.26.21c.36-.12,0-.72-.2-.56C419.59,214.53,419.53,214.85,419.63,215Zm-8.35.66c0-.15.35,0,.35-.1C411.47,215.49,411.17,215.54,411.28,215.67Z" transform="translate(-167.75 -71.91)"/>
          <path class="cls-36" d="M413.83,204.15a1.45,1.45,0,0,1,.15.92c-.05.33-.3.61-.1.2A5.74,5.74,0,0,0,413.83,204.15Z" transform="translate(-167.75 -71.91)"/>
          <path class="cls-36" d="M415.56,207c.17,0,.68.21,1,0C416.34,207.23,415.77,207.07,415.56,207Z" transform="translate(-167.75 -71.91)"/>
          <path class="cls-36" d="M412.55,207a1,1,0,0,1-1,0A2.3,2.3,0,0,0,412.55,207Z" transform="translate(-167.75 -71.91)"/>
          <path class="cls-36" d="M415.05,207.36a2.23,2.23,0,0,1,1.32.31c.13.07.2.06.05.05A12.51,12.51,0,0,1,415.05,207.36Z" transform="translate(-167.75 -71.91)"/>
          <path class="cls-36" d="M413,207.52c-.37.34-.89.53-1.27.86A2.36,2.36,0,0,1,413,207.52Z" transform="translate(-167.75 -71.91)"/>
          <path class="cls-36" d="M415.2,207.57c.52,0,.9.53,1.33.76C416.11,208.25,415.65,207.78,415.2,207.57Z" transform="translate(-167.75 -71.91)"/>
          <path class="cls-36" d="M414,208.33c.07.08-.16.28-.36.26C413.77,208.48,414,208.45,414,208.33Z" transform="translate(-167.75 -71.91)"/>
          <path class="cls-36" d="M414.13,208.38c.09-.08.26.18.41.21C414.39,208.74,414.21,208.48,414.13,208.38Z" transform="translate(-167.75 -71.91)"/>
          <path class="cls-36" d="M414.39,208.79c-.2,0-.37-.17-.51,0C413.71,208.64,414.41,208.52,414.39,208.79Z" transform="translate(-167.75 -71.91)"/>
          <path class="cls-35" d="M408.42,216c-.11.07,0,.36-.05.51a2.65,2.65,0,0,1-.35-1.17.28.28,0,0,0-.15.26,1.87,1.87,0,0,1,.5-1.48,3,3,0,0,0-.45.1,2,2,0,0,1,.66-.56c0,.2.2.28.35.36-.27.24-.69.27-.76.61-.19,1,1.76.89,2.7,1,0,.17-.25.19-.41.25a4.93,4.93,0,0,0,1.48,0c0,.1-.17,0-.15.16.42,0,1.1-.1,1.68-.06,0,.1-.17,0-.2.1.7.17,1.53.2,2.23.36a8.65,8.65,0,0,1-1.27.36,1.41,1.41,0,0,0,.61.15,5.14,5.14,0,0,1-3.51.36c0,.14.34.33.56.4a3.44,3.44,0,0,1-2-.71,1.36,1.36,0,0,0,.46.71A3,3,0,0,1,408.42,216Z" transform="translate(-167.75 -71.91)"/>
          <path class="cls-33" d="M408.73,214.34c.06.12-.18.37-.1.67-.15,0-.19-.12-.26-.21C408.39,214.54,408.62,214.5,408.73,214.34Z" transform="translate(-167.75 -71.91)"/>
          <path class="cls-33" d="M411.63,215.57c0,.14-.34,0-.35.1C411.17,215.54,411.47,215.49,411.63,215.57Z" transform="translate(-167.75 -71.91)"/>
        </g>
        <rect class="cls-24" x="239.22" y="130.61" width="13.8" height="15.39"/>
      </g>
      <rect x="240.59" y="143.38" width="0.33" height="1.19"/>
      <polygon points="242.85 143.54 242.32 145.27 242.68 145.76 242.68 144.86 242.85 143.54"/>
      <polygon points="243.95 148.13 244.53 146.41 244.08 146.37 243.95 148.13"/>
      <polygon points="244.12 143.59 244.12 144.69 244.45 144.53 244.41 143.71 244.12 143.59"/>
      <path d="M413.92,217.59c-.21.08-.21.94-.29,1.06a11.91,11.91,0,0,0-.21,1.48l.58-1.56Z" transform="translate(-167.75 -71.91)"/>
      <polygon points="247.81 144.49 247.52 145.76 247.89 146.08 247.97 146.91 248.09 145.18 247.81 144.49"/>
      <polygon points="249.57 143.18 249.2 143.96 249.44 145.27 249.73 144.41 249.49 143.79 249.57 143.18"/>
      <path d="M419.65,219.31a5.4,5.4,0,0,0,.62.94,3.9,3.9,0,0,1,.57.66l-.33.24-.61-.7Z" transform="translate(-167.75 -71.91)"/>
      <path d="M407.2,220.45l-.82.62s-.08.41,0,.41a4,4,0,0,0,.74-.57Z" transform="translate(-167.75 -71.91)"/>
    </g>
    <line class="cls-6" x1="246.1" y1="158.88" x2="246.1" y2="165.88"/>
    <path d="M413.25,192.88c-.29,1-.55,1.57-.85,2.33h2.9a22.43,22.43,0,0,1-.87-2.33,17.47,17.47,0,0,1-.6-2.53A17,17,0,0,1,413.25,192.88Z" transform="translate(-167.75 -71.91)"/>
    <line class="cls-6" x1="246.1" y1="122.98" x2="246.1" y2="129.98"/>
    <g>
      <path class="cls-28" d="M395.27,180.84l-2.66-3c5-1.54,8.59-.37,11.49.58,2.15.7,3.71,1.2,5.85.74a6,6,0,0,0,3.8-2.27c1.14-1.25,2.43-2.67,6.77-3.08l2.12,3.1c-3.45.33-4.35,1.32-5.4,2.48a7.93,7.93,0,0,1-4.83,2.82c-3.11.67-5.74-.19-8.07-.94C401.72,180.43,399.24,179.62,395.27,180.84Z" transform="translate(-167.75 -71.91)"/>
      <path class="cls-28" d="M400.48,183.69l-2.67-3c5-1.53,8.6-.36,11.49.58,2.16.7,3.72,1.21,5.86.75a6.12,6.12,0,0,0,3.8-2.27c1.14-1.25,2.43-2.67,6.77-3.09l2.12,3.1c-3.45.34-4.35,1.33-5.41,2.49a7.87,7.87,0,0,1-4.83,2.81c-3.11.67-5.74-.18-8.06-.94C406.93,183.27,404.45,182.47,400.48,183.69Z" transform="translate(-167.75 -71.91)"/>
      <path class="cls-28" d="M399.32,186.86l-2.66-3c5-1.54,8.59-.37,11.5.58,2.15.69,3.7,1.2,5.84.74a6.1,6.1,0,0,0,3.81-2.27c1.13-1.25,2.42-2.67,6.76-3.08l2.12,3.1c-3.44.33-4.35,1.32-5.4,2.48a7.9,7.9,0,0,1-4.83,2.82c-3.11.67-5.74-.19-8.06-.94C405.77,186.44,403.29,185.64,399.32,186.86Z" transform="translate(-167.75 -71.91)"/>
      <path class="cls-28" d="M404.62,189.68l-2.67-3c5-1.53,8.6-.36,11.5.58,2.15.7,3.71,1.21,5.85.74a6.08,6.08,0,0,0,3.8-2.26c1.14-1.25,2.43-2.67,6.77-3.09l2.12,3.1c-3.45.33-4.35,1.33-5.41,2.49a7.87,7.87,0,0,1-4.82,2.81c-3.11.67-5.74-.18-8.07-.94C411.07,189.26,408.59,188.45,404.62,189.68Z" transform="translate(-167.75 -71.91)"/>
      <path class="cls-28" d="M396.08,177.57l-2.66-3c5-1.54,8.59-.36,11.49.57,2.15.71,3.71,1.21,5.85.75a6,6,0,0,0,3.8-2.27c1.14-1.25,2.43-2.67,6.77-3.08l2.12,3.1c-3.44.33-4.35,1.33-5.4,2.48a7.9,7.9,0,0,1-4.83,2.82c-3.11.67-5.74-.19-8.07-.94C402.53,177.16,400.05,176.35,396.08,177.57Z" transform="translate(-167.75 -71.91)"/>
      <polygon points="228.5 102.99 232.14 102.67 233.72 103.51 231.36 103.36 228.5 102.99"/>
      <polygon points="237.8 104.84 241.69 106.3 244.19 105.51 241.01 105.09 237.8 104.84"/>
      <polygon points="239.33 109.51 236.59 109.37 235.47 110.13 238.25 109.85 241.8 111.27 244.03 111.24 240.96 110.04 239.33 109.51"/>
      <path d="M423.19,181.12c-.69.07-2.46.47-2.46.47l-1.36,2.23,1.91-1.35,3-.42Z" transform="translate(-167.75 -71.91)"/>
      <polygon points="256.85 114.66 255.59 116.25 252.72 117.16 254.33 117.85 256.69 116.88 256.85 114.66"/>
      <polygon points="244.84 116.14 242.06 115.29 239.93 115.82 242.47 115.99 244.84 116.14"/>
      <polygon points="235.61 112.7 234.02 112.97 236.23 113.1 235.61 112.7"/>
      <polygon class="cls-34" points="248.47 103.19 246.51 103.73 244.19 105.51 247.38 104.81 248.47 103.19"/>
      <polygon class="cls-34" points="250.98 112.78 248.4 114.04 248.11 114.8 250.6 114.17 250.98 112.78"/>
      <polygon class="cls-34" points="262.04 111.98 259.14 113.04 258.93 114.45 261.33 113.33 262.04 111.98"/>
      <polygon class="cls-34" points="233.85 111.83 231.9 113.5 231.2 112.44 233.85 111.83"/>
      <polygon class="cls-37" points="245.67 108.26 242.12 107.96 244.04 108.84 245.67 108.26"/>
      <path class="cls-37" d="M416.9,188.93l-3.31-.75s1.71,1.18,2.19,1.4a24.18,24.18,0,0,0,3.35.44Z" transform="translate(-167.75 -71.91)"/>
      <polygon class="cls-37" points="235.01 108.63 232.09 108.73 233.22 110.31 235.01 108.63"/>
      <path class="cls-37" d="M420.28,172,417,173.29s-1.31,1.9-.79,1.81a19,19,0,0,0,2.8-1.55Z" transform="translate(-167.75 -71.91)"/>
    </g>
    <text class="cls-3" transform="translate(0.17 48.93)">Schicke<tspan x="0" y="8.4">an </tspan><tspan class="cls-38" x="9.73" y="8.4">W</tspan><tspan x="16.08" y="8.4">allet:</tspan></text>
    <rect class="cls-39" x="0.25" y="63.09" width="93.33" height="56"/>
    <rect class="cls-40" x="2.21" y="65.34" width="70.73" height="11.75"/>
    <rect class="cls-5" x="1.95" y="78.42" width="89.3" height="38.33" rx="3"/>
    <text class="cls-3" transform="translate(4.56 85.3)">Anzahl<tspan class="cls-41" x="21.4" y="0"> </tspan><tspan class="cls-42" x="23.22" y="0">TX: 3</tspan></text>
    <text class="cls-3" transform="translate(4.56 98.46)">Flags:</text>
    <text class="cls-3" transform="translate(4.56 111.61)">Hashes:</text>
    <g>
      <path class="cls-43" d="M212.37,143.24a4.23,4.23,0,1,0,4.22-4.23A4.22,4.22,0,0,0,212.37,143.24Z" transform="translate(-167.75 -71.91)"/>
      <path class="cls-5" d="M213.13,143.24a3.47,3.47,0,1,0,3.46-3.47A3.46,3.46,0,0,0,213.13,143.24Z" transform="translate(-167.75 -71.91)"/>
      <polygon points="48.53 71.15 49.16 71.51 50.52 68.39 50.47 68.36 48.53 71.15"/>
      <polygon points="48.67 71.64 49.02 71.02 46.95 70.24 46.92 70.29 48.67 71.64"/>
      <g>
        <path class="cls-44" d="M216.31,143.08a.32.32,0,0,0,.12.44.32.32,0,1,0-.12-.44Z" transform="translate(-167.75 -71.91)"/>
        <path d="M216.59,143.71h0a.47.47,0,0,1-.41-.7.49.49,0,0,1,.65-.18.48.48,0,0,1,.18.64A.49.49,0,0,1,216.59,143.71Zm0-.78a.32.32,0,0,0-.27.16.31.31,0,0,0,.12.42.33.33,0,0,0,.43-.11.32.32,0,0,0-.12-.43A.29.29,0,0,0,216.59,142.93Z" transform="translate(-167.75 -71.91)"/>
      </g>
    </g>
    <g>
      <path class="cls-28" d="M174.84,143.16l-1.14-1.27a7.37,7.37,0,0,1,4.9.24,4.34,4.34,0,0,0,2.49.32,2.57,2.57,0,0,0,1.62-1,3.71,3.71,0,0,1,2.89-1.32l.9,1.32a2.87,2.87,0,0,0-2.3,1.06,3.35,3.35,0,0,1-2.06,1.2,6.4,6.4,0,0,1-3.44-.4A5.6,5.6,0,0,0,174.84,143.16Z" transform="translate(-167.75 -71.91)"/>
      <path class="cls-28" d="M177.06,144.38l-1.14-1.28a7.37,7.37,0,0,1,4.9.25,4.42,4.42,0,0,0,2.49.31,2.57,2.57,0,0,0,1.62-1,3.71,3.71,0,0,1,2.89-1.32l.9,1.32a2.85,2.85,0,0,0-2.3,1.06,3.38,3.38,0,0,1-2.06,1.2,6.3,6.3,0,0,1-3.44-.4A5.55,5.55,0,0,0,177.06,144.38Z" transform="translate(-167.75 -71.91)"/>
      <path class="cls-28" d="M176.56,145.73l-1.13-1.28a7.43,7.43,0,0,1,4.9.25,4.42,4.42,0,0,0,2.49.32,2.58,2.58,0,0,0,1.62-1,3.72,3.72,0,0,1,2.88-1.32l.91,1.33a2.9,2.9,0,0,0-2.31,1.05,3.35,3.35,0,0,1-2,1.2,6.21,6.21,0,0,1-3.44-.4A5.64,5.64,0,0,0,176.56,145.73Z" transform="translate(-167.75 -71.91)"/>
      <path class="cls-28" d="M178.82,146.93l-1.14-1.28a7.46,7.46,0,0,1,4.91.25,4.31,4.31,0,0,0,2.49.31,2.63,2.63,0,0,0,1.62-1,3.7,3.7,0,0,1,2.88-1.32l.9,1.32a2.92,2.92,0,0,0-2.3,1.06,3.35,3.35,0,0,1-2.06,1.2,6.27,6.27,0,0,1-3.43-.4A5.64,5.64,0,0,0,178.82,146.93Z" transform="translate(-167.75 -71.91)"/>
      <path class="cls-28" d="M175.18,141.77l-1.13-1.28a7.43,7.43,0,0,1,4.9.25,4.41,4.41,0,0,0,2.49.32,2.61,2.61,0,0,0,1.62-1,3.7,3.7,0,0,1,2.88-1.32l.91,1.33a2.87,2.87,0,0,0-2.31,1.06,3.37,3.37,0,0,1-2,1.2,6.39,6.39,0,0,1-3.44-.4A5.57,5.57,0,0,0,175.18,141.77Z" transform="translate(-167.75 -71.91)"/>
      <polygon points="7.51 68.72 9.06 68.58 9.73 68.94 8.72 68.88 7.51 68.72"/>
      <polygon points="11.47 69.51 13.12 70.13 14.19 69.79 12.84 69.62 11.47 69.51"/>
      <polygon points="12.12 71.5 10.95 71.44 10.48 71.76 11.66 71.64 13.17 72.25 14.12 72.23 12.81 71.72 12.12 71.5"/>
      <path d="M186.74,143.28c-.3,0-1.05.2-1.05.2l-.58,1,.81-.58,1.27-.17Z" transform="translate(-167.75 -71.91)"/>
      <polygon points="19.59 73.69 19.05 74.37 17.82 74.76 18.51 75.05 19.52 74.64 19.59 73.69"/>
      <polygon points="14.47 74.32 13.28 73.96 12.37 74.19 13.46 74.26 14.47 74.32"/>
      <polygon points="10.53 72.86 9.86 72.97 10.8 73.03 10.53 72.86"/>
      <polygon class="cls-34" points="16.02 68.81 15.18 69.03 14.19 69.79 15.55 69.49 16.02 68.81"/>
      <polygon class="cls-34" points="17.08 72.89 15.98 73.43 15.86 73.75 16.92 73.48 17.08 72.89"/>
      <polygon class="cls-34" points="21.8 72.55 20.56 73 20.47 73.6 21.49 73.13 21.8 72.55"/>
      <polygon class="cls-34" points="9.79 72.49 8.95 73.2 8.65 72.75 9.79 72.49"/>
      <polygon class="cls-37" points="14.82 70.97 13.31 70.84 14.13 71.21 14.82 70.97"/>
      <path class="cls-37" d="M184.05,146.61l-1.4-.32s.72.5.93.6a10.65,10.65,0,0,0,1.43.18Z" transform="translate(-167.75 -71.91)"/>
      <polygon class="cls-37" points="10.28 71.12 9.03 71.17 9.52 71.84 10.28 71.12"/>
      <path class="cls-37" d="M185.5,139.38l-1.4.56s-.56.81-.33.78a8.41,8.41,0,0,0,1.19-.67Z" transform="translate(-167.75 -71.91)"/>
    </g>
    <g>
      <path class="cls-28" d="M202.16,181.52l-1-1.15a7.32,7.32,0,0,1,4.54,0c.83.27,1.3.71,2.12.54a2.3,2.3,0,0,0,1.45-.87,3.31,3.31,0,0,1,2.6-1.18l.81,1.18a2.57,2.57,0,0,0-2.07,1,3.09,3.09,0,0,1-1.85,1.08,5.74,5.74,0,0,1-3.09-.36A5,5,0,0,0,202.16,181.52Z" transform="translate(-167.75 -71.91)"/>
      <path class="cls-28" d="M204.15,182.61l-1-1.15a6.66,6.66,0,0,1,4.41.22,3.9,3.9,0,0,0,2.24.29,2.3,2.3,0,0,0,1.46-.87,3.34,3.34,0,0,1,2.6-1.18l.81,1.18a2.57,2.57,0,0,0-2.07,1,3.09,3.09,0,0,1-1.85,1.08,5.67,5.67,0,0,1-3.1-.36A5,5,0,0,0,204.15,182.61Z" transform="translate(-167.75 -71.91)"/>
      <path class="cls-28" d="M203.71,183.83l-1-1.15a7.15,7.15,0,0,1,4.5,0c.82.27,1.33.67,2.15.5a2.33,2.33,0,0,0,1.46-.87,3.31,3.31,0,0,1,2.59-1.19l.82,1.19a2.61,2.61,0,0,0-2.08,1,3,3,0,0,1-1.85,1.08,5.64,5.64,0,0,1-3.09-.37A5.08,5.08,0,0,0,203.71,183.83Z" transform="translate(-167.75 -71.91)"/>
      <path class="cls-28" d="M205.74,184.91l-1-1.15a6.66,6.66,0,0,1,4.41.22,4,4,0,0,0,2.24.29,2.33,2.33,0,0,0,1.46-.87,3.34,3.34,0,0,1,2.6-1.19l.81,1.19a2.57,2.57,0,0,0-2.07,1,3.09,3.09,0,0,1-1.86,1.08,5.84,5.84,0,0,1-3.09-.36A5,5,0,0,0,205.74,184.91Z" transform="translate(-167.75 -71.91)"/>
      <path class="cls-28" d="M202.47,180.27l-1-1.15a6.63,6.63,0,0,1,4.4.22,3.93,3.93,0,0,0,2.25.28,2.36,2.36,0,0,0,1.46-.87,3.31,3.31,0,0,1,2.59-1.18l.81,1.19a2.6,2.6,0,0,0-2.07,1,3,3,0,0,1-1.85,1.08,5.64,5.64,0,0,1-3.09-.36A5.08,5.08,0,0,0,202.47,180.27Z" transform="translate(-167.75 -71.91)"/>
      <polygon points="38.35 108.04 39.64 108.38 40.8 108.3 39.58 108.14 38.35 108.04"/>
      <polygon points="45.65 111.81 45.28 112.6 43.97 112.97 44.69 113.03 45.59 112.66 45.65 111.81"/>
      <polygon points="37.51 111.05 36.9 111.16 37.75 111.21 37.51 111.05"/>
      <polygon class="cls-34" points="42.44 107.41 41.69 107.61 40.8 108.3 42.02 108.03 42.44 107.41"/>
      <polygon class="cls-34" points="43.4 111.08 42.41 111.57 42.3 111.86 43.26 111.62 43.4 111.08"/>
      <polygon class="cls-34" points="47.64 110.78 46.53 111.19 46.45 111.73 47.37 111.29 47.64 110.78"/>
      <polygon class="cls-34" points="36.84 110.72 36.09 111.36 35.82 110.96 36.84 110.72"/>
      <polygon class="cls-37" points="41.37 109.35 40.01 109.23 40.74 109.57 41.37 109.35"/>
      <path class="cls-37" d="M210.45,184.62l-1.27-.29s.66.46.84.54a8.66,8.66,0,0,0,1.29.17Z" transform="translate(-167.75 -71.91)"/>
      <polygon class="cls-37" points="37.28 109.49 36.16 109.53 36.59 110.14 37.28 109.49"/>
      <path class="cls-37" d="M211.75,178.11l-1.26.51s-.5.73-.3.7a7.87,7.87,0,0,0,1.07-.6Z" transform="translate(-167.75 -71.91)"/>
    </g>
    <g>
      <path class="cls-28" d="M193.47,143.16l-1.14-1.27a7.37,7.37,0,0,1,4.9.24,4.34,4.34,0,0,0,2.49.32,2.57,2.57,0,0,0,1.62-1,3.71,3.71,0,0,1,2.89-1.32l.9,1.32a2.87,2.87,0,0,0-2.3,1.06,3.35,3.35,0,0,1-2.06,1.2,6.4,6.4,0,0,1-3.44-.4A5.6,5.6,0,0,0,193.47,143.16Z" transform="translate(-167.75 -71.91)"/>
      <path class="cls-28" d="M195.69,144.38l-1.14-1.28a7.37,7.37,0,0,1,4.9.25,4.42,4.42,0,0,0,2.49.31,2.57,2.57,0,0,0,1.62-1,3.71,3.71,0,0,1,2.89-1.32l.9,1.32a2.87,2.87,0,0,0-2.3,1.06A3.38,3.38,0,0,1,203,145a6.3,6.3,0,0,1-3.44-.4A5.55,5.55,0,0,0,195.69,144.38Z" transform="translate(-167.75 -71.91)"/>
      <path class="cls-28" d="M195.19,145.73l-1.13-1.28a7.43,7.43,0,0,1,4.9.25,4.41,4.41,0,0,0,2.49.32,2.58,2.58,0,0,0,1.62-1,3.72,3.72,0,0,1,2.89-1.32l.9,1.33a2.87,2.87,0,0,0-2.3,1.05,3.38,3.38,0,0,1-2.06,1.2,6.21,6.21,0,0,1-3.44-.4A5.64,5.64,0,0,0,195.19,145.73Z" transform="translate(-167.75 -71.91)"/>
      <path class="cls-28" d="M197.45,146.93l-1.13-1.28a7.4,7.4,0,0,1,4.89.25,4.35,4.35,0,0,0,2.5.31,2.63,2.63,0,0,0,1.62-1,3.7,3.7,0,0,1,2.88-1.32l.9,1.32a2.92,2.92,0,0,0-2.3,1.06,3.35,3.35,0,0,1-2.05,1.2,6.3,6.3,0,0,1-3.44-.4A5.64,5.64,0,0,0,197.45,146.93Z" transform="translate(-167.75 -71.91)"/>
      <path class="cls-28" d="M193.81,141.77l-1.13-1.28a7.43,7.43,0,0,1,4.9.25,4.41,4.41,0,0,0,2.49.32,2.61,2.61,0,0,0,1.62-1,3.72,3.72,0,0,1,2.88-1.32l.91,1.33a2.83,2.83,0,0,0-2.3,1.06,3.43,3.43,0,0,1-2.06,1.2,6.39,6.39,0,0,1-3.44-.4A5.58,5.58,0,0,0,193.81,141.77Z" transform="translate(-167.75 -71.91)"/>
      <polygon points="26.14 68.72 27.69 68.58 28.36 68.94 27.35 68.88 26.14 68.72"/>
      <polygon points="30.1 69.51 31.75 70.13 32.82 69.79 31.47 69.62 30.1 69.51"/>
      <polygon points="30.75 71.5 29.58 71.44 29.11 71.76 30.29 71.64 31.8 72.25 32.75 72.23 31.44 71.72 30.75 71.5"/>
      <path d="M205.37,143.28c-.3,0-1.05.2-1.05.2l-.58,1,.81-.58,1.27-.17Z" transform="translate(-167.75 -71.91)"/>
      <polygon points="38.22 73.69 37.68 74.37 36.45 74.76 37.14 75.05 38.15 74.64 38.22 73.69"/>
      <polygon points="33.1 74.32 31.91 73.96 31 74.19 32.09 74.26 33.1 74.32"/>
      <polygon points="29.16 72.86 28.49 72.97 29.43 73.03 29.16 72.86"/>
      <polygon class="cls-34" points="34.65 68.81 33.81 69.03 32.82 69.79 34.18 69.49 34.65 68.81"/>
      <polygon class="cls-34" points="35.72 72.89 34.61 73.43 34.49 73.75 35.55 73.48 35.72 72.89"/>
      <polygon class="cls-34" points="40.42 72.55 39.2 73 39.1 73.6 40.12 73.13 40.42 72.55"/>
      <polygon class="cls-34" points="28.42 72.49 27.58 73.2 27.28 72.75 28.42 72.49"/>
      <polygon class="cls-37" points="33.45 70.97 31.94 70.84 32.76 71.21 33.45 70.97"/>
      <path class="cls-37" d="M202.68,146.61l-1.41-.32s.73.5.94.6a10.65,10.65,0,0,0,1.43.18Z" transform="translate(-167.75 -71.91)"/>
      <polygon class="cls-37" points="28.91 71.12 27.67 71.17 28.15 71.84 28.91 71.12"/>
      <path class="cls-37" d="M204.13,139.38l-1.4.56s-.56.81-.33.78a8.41,8.41,0,0,0,1.19-.67Z" transform="translate(-167.75 -71.91)"/>
    </g>
    <path class="cls-45" d="M231.44,144.28c.86.39,1.57-.32,2.29-.45.17.19,0,.6.07.83.52.38,1.54.24,1.93.76-.23.18-.54-.11-.95-.23-.7-.19-1.46-.07-1.2-1.1-.62.29-1.67.84-2.4.34a4.48,4.48,0,0,1-.72.38,18.62,18.62,0,0,0-.76,1.94c-.51-.18-.53-.87-1.13-.95a1.91,1.91,0,0,0-.18.57c.14,0,.29-.42.51-.3,0,.29-.31.53-.59.64-.3-.19-.06-.62,0-1a3.62,3.62,0,0,1-2.29.72,2.07,2.07,0,0,1-1.05-.3c-.66-.49-.48-1.79,0-2.39a2.72,2.72,0,0,1,1.67-.95,10.48,10.48,0,0,0,.47-1.14c.2,0,.26-.06.32-.27a14.76,14.76,0,0,0,3.2-1.29c-1.11.21-2.34.58-3.49.91a2.38,2.38,0,0,1-1.09.23c0-.23.35-.25.51-.3.58-.18,1.22-.35,1.86-.54a7.29,7.29,0,0,1,2.54-.49c0,.4-.39.51-.65.65-.79.41-1.88.7-2.76,1.06a3,3,0,0,0,.79,1.1,7.13,7.13,0,0,1,1.28.15c.43-.52.79-1.22,1.19-1.82.12-.16.27-.43.48-.42-.07.44-.44.76-.69,1.14s-.46.79-.69,1.18c.27.19.7.2.8.57-.33.07-.55-.28-.88-.34a10.39,10.39,0,0,0-1.05,2.05,8,8,0,0,0,1.56-.61,3.83,3.83,0,0,0,.55-1.44,3.67,3.67,0,0,1,1.53-2.51,2.15,2.15,0,0,1,.21-.46c.14,0,.13.1.22.12a5.45,5.45,0,0,1,3.34-.8c.23,0,.74.08.73.38,0,.48-.78,1-1.12,1.33A42.79,42.79,0,0,1,231.44,144.28Zm3.81-4.44a4.3,4.3,0,0,0-2.72,1,9.27,9.27,0,0,0-.73,1.41c-.27.5-.93,1.29-.58,1.86a39.5,39.5,0,0,0,4.29-2.93,3.28,3.28,0,0,0,1.13-1.29A3.1,3.1,0,0,0,235.25,139.84Zm-4.1,3.19c.22-.57.65-1.12.8-1.64A3.1,3.1,0,0,0,231.15,143Zm-4.25-.23c.32-.07.74,0,1-.12a5.39,5.39,0,0,1-.69-.87C227.17,142.17,227,142.46,226.9,142.8Zm-.07.23a3.93,3.93,0,0,0-.3.95c-.08.3-.1.73-.36.87a5.07,5.07,0,0,1,.36-1.75,2.07,2.07,0,0,0-1.78,2.05c0,.82.64,1.11,1.49,1.11,1.82,0,3.14-1.64,1.93-3.27A6.18,6.18,0,0,0,226.83,143Zm2.07,1.36c.19-.43.4-.84.61-1.25a6.63,6.63,0,0,0-1-.15A4,4,0,0,1,228.9,144.39Zm1.78,0a1.17,1.17,0,0,0,.32-.15c0-.11,0-.27-.1-.3C230.84,144.14,230.74,144.27,230.68,144.43Zm-2,1.18c.48.09.65.51.94.8a3.69,3.69,0,0,1,.51-1.33c0-.05,0-.09-.07-.08C229.68,145.29,229.09,145.35,228.68,145.61Z" transform="translate(-167.75 -71.91)"/>
    <path d="M215.79,178.25a2.1,2.1,0,1,1,2.09-2.09,2.09,2.09,0,0,1-2.09,2.09m-.5-1.26-.07.33a1,1,0,0,0,.46.11.73.73,0,0,0,.78-.74.61.61,0,0,0-.43-.64h0a.61.61,0,0,0,.36-.57.56.56,0,0,0-.6-.59.86.86,0,0,0-.48.14l.06.31a.58.58,0,0,1,.31-.11.3.3,0,0,1,.31.33.39.39,0,0,1-.43.37h-.06v.31h.08a.43.43,0,0,1,.48.44.38.38,0,0,1-.4.42.7.7,0,0,1-.37-.1" transform="translate(-167.75 -71.91)"/>
    <g>
      <path class="cls-28" d="M220.7,181.52l-1-1.15a7.33,7.33,0,0,1,4.54,0c.82.27,1.29.71,2.11.54a2.33,2.33,0,0,0,1.46-.87,3.31,3.31,0,0,1,2.6-1.18l.81,1.18a2.57,2.57,0,0,0-2.07,1,3.09,3.09,0,0,1-1.86,1.08,5.74,5.74,0,0,1-3.09-.36A5,5,0,0,0,220.7,181.52Z" transform="translate(-167.75 -71.91)"/>
      <path class="cls-28" d="M222.7,182.61l-1-1.15a6.63,6.63,0,0,1,4.4.22,3.94,3.94,0,0,0,2.25.29,2.36,2.36,0,0,0,1.46-.87,3.31,3.31,0,0,1,2.59-1.18l.82,1.18a2.55,2.55,0,0,0-2.07,1,3.12,3.12,0,0,1-1.86,1.08,5.64,5.64,0,0,1-3.09-.36A5,5,0,0,0,222.7,182.61Z" transform="translate(-167.75 -71.91)"/>
      <path class="cls-28" d="M222.26,183.83l-1-1.15a7.15,7.15,0,0,1,4.5,0c.83.27,1.34.67,2.16.5a2.36,2.36,0,0,0,1.46-.87,3.31,3.31,0,0,1,2.59-1.19l.81,1.19a2.57,2.57,0,0,0-2.07,1,3.09,3.09,0,0,1-1.85,1.08,5.64,5.64,0,0,1-3.09-.37A5.08,5.08,0,0,0,222.26,183.83Z" transform="translate(-167.75 -71.91)"/>
      <path class="cls-28" d="M224.29,184.91l-1-1.15a6.69,6.69,0,0,1,4.42.22,4,4,0,0,0,2.24.29,2.36,2.36,0,0,0,1.46-.87,3.29,3.29,0,0,1,2.59-1.19l.81,1.19a2.57,2.57,0,0,0-2.07,1,3.09,3.09,0,0,1-1.85,1.08,5.84,5.84,0,0,1-3.09-.36A5,5,0,0,0,224.29,184.91Z" transform="translate(-167.75 -71.91)"/>
      <path class="cls-28" d="M221,180.27l-1-1.15a6.66,6.66,0,0,1,4.41.22,3.9,3.9,0,0,0,2.24.28,2.33,2.33,0,0,0,1.46-.87,3.34,3.34,0,0,1,2.6-1.18l.81,1.19a2.6,2.6,0,0,0-2.07,1,3,3,0,0,1-1.85,1.08,5.68,5.68,0,0,1-3.1-.36A5.08,5.08,0,0,0,221,180.27Z" transform="translate(-167.75 -71.91)"/>
      <polygon points="56.9 108.04 58.19 108.38 59.35 108.3 58.13 108.14 56.9 108.04"/>
      <polygon points="64.2 111.81 63.82 112.6 62.52 112.97 63.23 113.03 64.14 112.66 64.2 111.81"/>
      <polygon points="56.05 111.05 55.45 111.16 56.29 111.21 56.05 111.05"/>
      <polygon class="cls-34" points="60.99 107.41 60.24 107.61 59.35 108.3 60.57 108.03 60.99 107.41"/>
      <polygon class="cls-34" points="61.95 111.08 60.96 111.57 60.85 111.86 61.8 111.62 61.95 111.08"/>
      <polygon class="cls-34" points="66.19 110.78 65.08 111.19 65 111.73 65.92 111.29 66.19 110.78"/>
      <polygon class="cls-34" points="55.38 110.72 54.63 111.36 54.36 110.96 55.38 110.72"/>
      <polygon class="cls-37" points="59.91 109.35 58.55 109.23 59.29 109.57 59.91 109.35"/>
      <path class="cls-37" d="M229,184.62l-1.27-.29a9.17,9.17,0,0,0,.84.54,8.39,8.39,0,0,0,1.28.17Z" transform="translate(-167.75 -71.91)"/>
      <polygon class="cls-37" points="55.83 109.49 54.7 109.53 55.14 110.14 55.83 109.49"/>
      <path class="cls-37" d="M230.3,178.11l-1.26.51s-.5.73-.3.7a7.87,7.87,0,0,0,1.07-.6Z" transform="translate(-167.75 -71.91)"/>
    </g>
    <g>
      <path class="cls-28" d="M239.25,181.52l-1-1.15a7.3,7.3,0,0,1,4.53,0c.83.27,1.3.71,2.12.54a2.36,2.36,0,0,0,1.46-.87,3.28,3.28,0,0,1,2.59-1.18l.81,1.18a2.58,2.58,0,0,0-2.07,1,3.06,3.06,0,0,1-1.85,1.08,5.74,5.74,0,0,1-3.09-.36A5,5,0,0,0,239.25,181.52Z" transform="translate(-167.75 -71.91)"/>
      <path class="cls-28" d="M241.24,182.61l-1-1.15a6.66,6.66,0,0,1,4.41.22,3.9,3.9,0,0,0,2.24.29,2.3,2.3,0,0,0,1.46-.87,3.34,3.34,0,0,1,2.6-1.18l.81,1.18a2.57,2.57,0,0,0-2.07,1,3.09,3.09,0,0,1-1.85,1.08,5.67,5.67,0,0,1-3.1-.36A5,5,0,0,0,241.24,182.61Z" transform="translate(-167.75 -71.91)"/>
      <path class="cls-28" d="M240.8,183.83l-1-1.15a7.15,7.15,0,0,1,4.5,0c.82.27,1.33.67,2.15.5a2.33,2.33,0,0,0,1.46-.87,3.34,3.34,0,0,1,2.6-1.19l.81,1.19a2.61,2.61,0,0,0-2.08,1,3,3,0,0,1-1.85,1.08,5.64,5.64,0,0,1-3.09-.37A5.07,5.07,0,0,0,240.8,183.83Z" transform="translate(-167.75 -71.91)"/>
      <path class="cls-28" d="M242.83,184.91l-1-1.15a6.66,6.66,0,0,1,4.41.22,4,4,0,0,0,2.24.29,2.3,2.3,0,0,0,1.46-.87,3.34,3.34,0,0,1,2.6-1.19l.81,1.19a2.57,2.57,0,0,0-2.07,1,3.09,3.09,0,0,1-1.85,1.08,5.86,5.86,0,0,1-3.1-.36A5,5,0,0,0,242.83,184.91Z" transform="translate(-167.75 -71.91)"/>
      <path class="cls-28" d="M239.56,180.27l-1-1.15a6.63,6.63,0,0,1,4.4.22,3.93,3.93,0,0,0,2.25.28,2.36,2.36,0,0,0,1.46-.87,3.31,3.31,0,0,1,2.59-1.18l.81,1.19a2.61,2.61,0,0,0-2.07,1,3,3,0,0,1-1.85,1.08,5.64,5.64,0,0,1-3.09-.36A5.08,5.08,0,0,0,239.56,180.27Z" transform="translate(-167.75 -71.91)"/>
      <polygon points="75.44 108.04 76.73 108.38 77.89 108.3 76.67 108.14 75.44 108.04"/>
      <polygon points="82.75 111.81 82.37 112.6 81.06 112.97 81.78 113.03 82.69 112.66 82.75 111.81"/>
      <polygon points="74.6 111.05 73.99 111.16 74.84 111.21 74.6 111.05"/>
      <polygon class="cls-34" points="79.53 107.41 78.78 107.61 77.89 108.3 79.11 108.03 79.53 107.41"/>
      <polygon class="cls-34" points="80.49 111.08 79.5 111.57 79.39 111.86 80.35 111.62 80.49 111.08"/>
      <polygon class="cls-34" points="84.73 110.78 83.63 111.19 83.54 111.73 84.46 111.29 84.73 110.78"/>
      <polygon class="cls-34" points="73.93 110.72 73.17 111.36 72.91 110.96 73.93 110.72"/>
      <polygon class="cls-37" points="78.46 109.35 77.1 109.23 77.83 109.57 78.46 109.35"/>
      <path class="cls-37" d="M247.54,184.62l-1.27-.29s.66.46.84.54a8.66,8.66,0,0,0,1.29.17Z" transform="translate(-167.75 -71.91)"/>
      <polygon class="cls-37" points="74.37 109.49 73.25 109.53 73.68 110.14 74.37 109.49"/>
      <path class="cls-37" d="M248.84,178.11l-1.26.51s-.5.73-.3.7a7.87,7.87,0,0,0,1.07-.6Z" transform="translate(-167.75 -71.91)"/>
    </g>
    <path d="M234.34,178.25a2.1,2.1,0,1,1,2.09-2.09,2.1,2.1,0,0,1-2.09,2.09m0-3.34-.82,1.58v.27h.84v.64h.37v-.64H235v-.32h-.26v-1.53h-.39m0,1.53h-.48l.31-.61c.06-.15.12-.26.19-.42h0c0,.14,0,.29,0,.44v.6" transform="translate(-167.75 -71.91)"/>
    <path d="M252.88,178.25a2.1,2.1,0,1,1,2.09-2.09,2.09,2.09,0,0,1-2.09,2.09m-.53-1.26-.07.32a1,1,0,0,0,.44.1.8.8,0,0,0,.82-.86.76.76,0,0,0-.22-.57.81.81,0,0,0-.46-.19h-.09l.08-.54h.67v-.36h-1l-.15,1.2h.18c.31,0,.56.14.56.5a.43.43,0,0,1-.44.49.85.85,0,0,1-.35-.09" transform="translate(-167.75 -71.91)"/>
    <path class="cls-46" d="M203.51,164a1.79,1.79,0,0,1-.57,1.23l-.06.06-3.34,3.52a20.74,20.74,0,0,1-1.82,1.74,2.36,2.36,0,0,1-1.05.61,1.66,1.66,0,0,1-.81-.31,1.57,1.57,0,0,1-.63-.63,4.93,4.93,0,0,1-.22-1.15,15.87,15.87,0,0,1-.1-1.89,1.62,1.62,0,0,1,1.49-1.51c.36,0,.57.33.64,1,0,.08,0,.13,0,.17a5.54,5.54,0,0,0,.2,1c.08.2.18.29.31.29a.58.58,0,0,0,.3-.17q.22-.18.54-.48l3.43-3.4a5.59,5.59,0,0,1,.77-.66,1.21,1.21,0,0,1,.58-.22.28.28,0,0,1,.26.14,1,1,0,0,1,.07.45Z" transform="translate(-167.75 -71.91)"/>
    <path class="cls-46" d="M212.35,164a1.81,1.81,0,0,1-.58,1.23l-.06.06-3.34,3.52a22.38,22.38,0,0,1-1.81,1.74,2.37,2.37,0,0,1-1.06.61,1.66,1.66,0,0,1-.81-.31,1.48,1.48,0,0,1-.62-.63,4.44,4.44,0,0,1-.22-1.15,13.94,13.94,0,0,1-.11-1.89,1.42,1.42,0,0,1,.46-1,1.44,1.44,0,0,1,1-.48c.36,0,.57.33.64,1,0,.08,0,.13,0,.17a4.28,4.28,0,0,0,.2,1c.07.2.18.29.31.29a.66.66,0,0,0,.3-.17c.15-.12.32-.28.53-.48l3.44-3.4a4.62,4.62,0,0,1,.77-.66,1.21,1.21,0,0,1,.58-.22.26.26,0,0,1,.25.14,1,1,0,0,1,.08.45Z" transform="translate(-167.75 -71.91)"/>
    <path class="cls-47" d="M217.59,164.07c-.54.49-1.12,1-1.69,1.6-.24-.58-.46-1.15-.61-1.52-.22-.52-1.8-.51-1.46.43.27.73.57,1.55.87,2.34l-.45.49c-1,1.1-2.28,2.41-1.73,3.43.48.87,1.33.19,1.62-.34a15.93,15.93,0,0,1,1.27-1.78c.17.39.32.73.46,1,.66,1.26,1,1.65,1.49.82s.27-.89-.77-3.24c1-1.16,1.93-2.15,2.34-2.62S218.91,162.89,217.59,164.07Z" transform="translate(-167.75 -71.91)"/>
    <path class="cls-46" d="M228.88,164a1.84,1.84,0,0,1-.57,1.23l-.07.06-3.34,3.52a22.38,22.38,0,0,1-1.81,1.74,2.37,2.37,0,0,1-1.06.61,1.66,1.66,0,0,1-.81-.31,1.48,1.48,0,0,1-.62-.63,4.44,4.44,0,0,1-.22-1.15,15.78,15.78,0,0,1-.11-1.89,1.42,1.42,0,0,1,.46-1,1.44,1.44,0,0,1,1-.48c.36,0,.57.33.64,1,0,.08,0,.13,0,.17a4.28,4.28,0,0,0,.2,1c.07.2.18.29.31.29a.66.66,0,0,0,.3-.17c.15-.12.32-.28.53-.48l3.44-3.4a4.62,4.62,0,0,1,.77-.66,1.21,1.21,0,0,1,.58-.22.26.26,0,0,1,.25.14,1,1,0,0,1,.08.45Z" transform="translate(-167.75 -71.91)"/>
    <path class="cls-47" d="M234.12,164.07c-.54.49-1.12,1-1.68,1.6-.25-.58-.47-1.15-.62-1.52-.22-.52-1.8-.51-1.46.43.27.73.57,1.55.87,2.34l-.45.49c-1,1.1-2.28,2.41-1.72,3.43.47.87,1.32.19,1.61-.34a15.93,15.93,0,0,1,1.27-1.78c.17.39.33.73.46,1,.66,1.26,1,1.65,1.49.82s.27-.89-.77-3.24c1-1.16,1.93-2.15,2.34-2.62S235.44,162.89,234.12,164.07Z" transform="translate(-167.75 -71.91)"/>
    <g>
      <path class="cls-28" d="M282.8,150.17l-2.66-3c5-1.53,8.59-.36,11.49.58,2.15.7,3.71,1.2,5.85.74a6.11,6.11,0,0,0,3.81-2.26c1.13-1.25,2.42-2.67,6.77-3.09l2.11,3.1c-3.44.33-4.35,1.33-5.4,2.48a7.86,7.86,0,0,1-4.83,2.82c-3.11.67-5.74-.19-8.06-.94C289.25,149.76,286.77,149,282.8,150.17Z" transform="translate(-167.75 -71.91)"/>
      <path class="cls-28" d="M288,153l-2.67-3c5-1.54,8.6-.37,11.5.57,2.15.7,3.71,1.21,5.85.75a6.08,6.08,0,0,0,3.8-2.27c1.14-1.25,2.43-2.67,6.77-3.08l2.12,3.09c-3.45.34-4.35,1.33-5.4,2.49a7.88,7.88,0,0,1-4.83,2.81c-3.11.68-5.74-.18-8.07-.93C294.46,152.6,292,151.8,288,153Z" transform="translate(-167.75 -71.91)"/>
      <path class="cls-28" d="M286.85,156.19l-2.66-3c5-1.54,8.59-.36,11.5.58,2.15.7,3.71,1.2,5.85.74a6.08,6.08,0,0,0,3.8-2.27c1.14-1.24,2.42-2.66,6.77-3.08l2.11,3.1c-3.44.33-4.35,1.33-5.4,2.48a7.86,7.86,0,0,1-4.83,2.82c-3.1.67-5.74-.18-8.06-.94C293.31,155.78,290.83,155,286.85,156.19Z" transform="translate(-167.75 -71.91)"/>
      <path class="cls-28" d="M292.15,159l-2.66-3c5-1.53,8.59-.36,11.49.58,2.15.7,3.71,1.21,5.85.75a6,6,0,0,0,3.8-2.27c1.14-1.25,2.43-2.67,6.77-3.08l2.12,3.1c-3.44.33-4.35,1.32-5.4,2.48a7.93,7.93,0,0,1-4.83,2.81c-3.11.68-5.74-.18-8.06-.93C298.6,158.59,296.12,157.79,292.15,159Z" transform="translate(-167.75 -71.91)"/>
      <path class="cls-28" d="M283.61,146.91l-2.66-3c5-1.53,8.59-.36,11.49.58,2.15.7,3.71,1.2,5.86.74a6.09,6.09,0,0,0,3.79-2.26c1.15-1.26,2.43-2.67,6.77-3.09L311,143c-3.44.33-4.35,1.33-5.4,2.48a7.86,7.86,0,0,1-4.83,2.82c-3.11.67-5.74-.19-8.07-.94C290.06,146.49,287.59,145.68,283.61,146.91Z" transform="translate(-167.75 -71.91)"/>
      <polygon points="116.03 72.32 119.67 72 121.25 72.84 118.89 72.69 116.03 72.32"/>
      <polygon points="125.33 74.17 129.22 75.64 131.72 74.84 128.54 74.43 125.33 74.17"/>
      <polygon points="126.86 78.84 124.13 78.7 123.01 79.46 125.78 79.18 129.33 80.6 131.56 80.57 128.49 79.37 126.86 78.84"/>
      <path d="M310.72,150.45c-.69.07-2.46.48-2.46.48l-1.36,2.22,1.91-1.35,3-.41Z" transform="translate(-167.75 -71.91)"/>
      <polygon points="144.38 83.99 143.12 85.59 140.25 86.49 141.86 87.18 144.22 86.21 144.38 83.99"/>
      <polygon points="132.37 85.47 129.59 84.63 127.46 85.15 130 85.32 132.37 85.47"/>
      <polygon points="123.14 82.03 121.56 82.31 123.76 82.43 123.14 82.03"/>
      <polygon class="cls-34" points="136.01 72.52 134.04 73.06 131.72 74.84 134.91 74.14 136.01 72.52"/>
      <polygon class="cls-34" points="138.51 82.11 135.93 83.38 135.65 84.14 138.13 83.5 138.51 82.11"/>
      <polygon class="cls-34" points="149.57 81.31 146.68 82.38 146.47 83.78 148.86 82.66 149.57 81.31"/>
      <polygon class="cls-34" points="121.39 81.17 119.43 82.83 118.73 81.78 121.39 81.17"/>
      <polygon class="cls-37" points="133.2 77.59 129.66 77.29 131.57 78.17 133.2 77.59"/>
      <path class="cls-37" d="M304.43,158.26l-3.3-.75s1.7,1.18,2.18,1.4a24.18,24.18,0,0,0,3.35.44Z" transform="translate(-167.75 -71.91)"/>
      <polygon class="cls-37" points="122.55 77.96 119.62 78.06 120.76 79.65 122.55 77.96"/>
      <path class="cls-37" d="M307.81,141.29l-3.27,1.33s-1.31,1.9-.78,1.81a19.3,19.3,0,0,0,2.79-1.55Z" transform="translate(-167.75 -71.91)"/>
    </g>
    <g>
      <path class="cls-28" d="M258.18,206.81l-2.66-3c5-1.53,8.59-.36,11.49.58,2.15.7,3.71,1.2,5.85.74a6.08,6.08,0,0,0,3.8-2.26c1.14-1.25,2.43-2.67,6.78-3.09l2.11,3.1c-3.44.33-4.35,1.33-5.4,2.48a7.89,7.89,0,0,1-4.83,2.82c-3.11.67-5.74-.19-8.07-.94C264.63,206.4,262.15,205.59,258.18,206.81Z" transform="translate(-167.75 -71.91)"/>
      <path class="cls-28" d="M263.39,209.66l-2.67-3c5-1.54,8.6-.37,11.49.57,2.16.7,3.72,1.21,5.86.75a6.08,6.08,0,0,0,3.8-2.27c1.14-1.25,2.43-2.67,6.77-3.08l2.12,3.09c-3.45.34-4.35,1.33-5.41,2.49a7.82,7.82,0,0,1-4.83,2.81c-3.11.68-5.74-.18-8.06-.93C269.84,209.24,267.36,208.44,263.39,209.66Z" transform="translate(-167.75 -71.91)"/>
      <path class="cls-28" d="M262.23,212.83l-2.66-3c5-1.54,8.59-.36,11.5.58,2.15.7,3.71,1.2,5.84.74a6.07,6.07,0,0,0,3.81-2.27c1.13-1.24,2.42-2.66,6.76-3.08l2.12,3.1c-3.44.33-4.35,1.33-5.4,2.48a7.86,7.86,0,0,1-4.83,2.82c-3.11.67-5.74-.18-8.06-.94C268.68,212.42,266.2,211.61,262.23,212.83Z" transform="translate(-167.75 -71.91)"/>
      <path class="cls-28" d="M267.53,215.65l-2.67-3c5-1.53,8.6-.36,11.5.58,2.15.7,3.71,1.21,5.85.75a6.09,6.09,0,0,0,3.8-2.27c1.14-1.25,2.43-2.67,6.77-3.09l2.12,3.1c-3.45.34-4.35,1.33-5.41,2.49a7.87,7.87,0,0,1-4.82,2.81c-3.11.68-5.74-.18-8.07-.93C274,215.23,271.5,214.43,267.53,215.65Z" transform="translate(-167.75 -71.91)"/>
      <path class="cls-28" d="M259,203.55l-2.66-3c5-1.53,8.59-.36,11.49.58,2.15.7,3.71,1.2,5.85.74a6.08,6.08,0,0,0,3.8-2.26c1.14-1.26,2.43-2.67,6.77-3.09l2.12,3.1c-3.44.33-4.35,1.33-5.4,2.48a7.86,7.86,0,0,1-4.83,2.82c-3.11.67-5.74-.19-8.07-.94C265.44,203.13,263,202.32,259,203.55Z" transform="translate(-167.75 -71.91)"/>
      <polygon points="91.41 128.96 95.05 128.64 96.63 129.48 94.27 129.33 91.41 128.96"/>
      <polygon points="100.71 130.81 104.6 132.27 107.1 131.48 103.92 131.07 100.71 130.81"/>
      <polygon points="102.24 135.48 99.5 135.34 98.39 136.1 101.16 135.82 104.71 137.24 106.94 137.21 103.87 136.01 102.24 135.48"/>
      <path d="M286.1,207.09c-.69.07-2.46.48-2.46.48l-1.36,2.22,1.91-1.35,3-.41Z" transform="translate(-167.75 -71.91)"/>
      <polygon points="119.76 140.63 118.5 142.23 115.63 143.13 117.24 143.82 119.6 142.85 119.76 140.63"/>
      <polygon points="107.75 142.11 104.97 141.27 102.84 141.79 105.38 141.96 107.75 142.11"/>
      <polygon points="98.52 138.67 96.94 138.95 99.14 139.07 98.52 138.67"/>
      <polygon class="cls-34" points="111.38 129.16 109.42 129.7 107.1 131.48 110.29 130.78 111.38 129.16"/>
      <polygon class="cls-34" points="113.89 138.75 111.31 140.02 111.02 140.78 113.51 140.14 113.89 138.75"/>
      <polygon class="cls-34" points="124.95 137.95 122.05 139.01 121.84 140.43 124.24 139.3 124.95 137.95"/>
      <polygon class="cls-34" points="96.77 137.81 94.81 139.47 94.11 138.42 96.77 137.81"/>
      <polygon class="cls-37" points="108.58 134.23 105.03 133.93 106.95 134.81 108.58 134.23"/>
      <path class="cls-37" d="M279.81,214.9l-3.31-.75s1.71,1.18,2.19,1.4A24.18,24.18,0,0,0,282,216Z" transform="translate(-167.75 -71.91)"/>
      <polygon class="cls-37" points="97.92 134.6 95 134.7 96.14 136.29 97.92 134.6"/>
      <path class="cls-37" d="M283.19,197.93l-3.27,1.33s-1.31,1.9-.79,1.81a19,19,0,0,0,2.8-1.55Z" transform="translate(-167.75 -71.91)"/>
    </g>
    <path class="cls-46" d="M291.83,150.35a3,3,0,0,1-1,2.09l-.1.1-5.67,6a34.74,34.74,0,0,1-3.07,2.93,3.84,3.84,0,0,1-1.79,1,2.81,2.81,0,0,1-1.37-.52,2.64,2.64,0,0,1-1.05-1.07,8.58,8.58,0,0,1-.38-1.94,26.8,26.8,0,0,1-.18-3.22A2.46,2.46,0,0,1,278,154a2.39,2.39,0,0,1,1.74-.8q.92,0,1.08,1.65c0,.13,0,.23,0,.29a8.14,8.14,0,0,0,.34,1.77c.13.34.3.51.52.51a1.13,1.13,0,0,0,.51-.3q.38-.3.9-.81l5.82-5.76a8.7,8.7,0,0,1,1.31-1.11,1.94,1.94,0,0,1,1-.38.45.45,0,0,1,.43.23,1.61,1.61,0,0,1,.13.77Z" transform="translate(-167.75 -71.91)"/>
    <g>
      <path class="cls-28" d="M320.31,206.81l-2.67-3c5-1.53,8.6-.36,11.5.58,2.15.7,3.71,1.2,5.85.74a6.11,6.11,0,0,0,3.8-2.26c1.14-1.25,2.43-2.67,6.77-3.09l2.11,3.1c-3.44.33-4.34,1.33-5.39,2.48a7.89,7.89,0,0,1-4.83,2.82c-3.11.67-5.74-.19-8.07-.94C326.76,206.4,324.28,205.59,320.31,206.81Z" transform="translate(-167.75 -71.91)"/>
      <path class="cls-28" d="M325.51,209.66l-2.66-3c5-1.54,8.59-.37,11.49.57,2.16.7,3.71,1.21,5.86.75a6.08,6.08,0,0,0,3.8-2.27c1.14-1.25,2.42-2.67,6.77-3.08l2.11,3.09c-3.44.34-4.35,1.33-5.4,2.49a7.85,7.85,0,0,1-4.83,2.81c-3.11.68-5.74-.18-8.06-.93C332,209.24,329.49,208.44,325.51,209.66Z" transform="translate(-167.75 -71.91)"/>
      <path class="cls-28" d="M324.36,212.83l-2.67-3c5-1.54,8.6-.36,11.5.58,2.15.7,3.71,1.2,5.85.74a6,6,0,0,0,3.8-2.27c1.14-1.24,2.43-2.66,6.77-3.08l2.12,3.1c-3.45.33-4.35,1.33-5.4,2.48a7.89,7.89,0,0,1-4.83,2.82c-3.11.67-5.74-.18-8.06-.94C330.81,212.42,328.33,211.61,324.36,212.83Z" transform="translate(-167.75 -71.91)"/>
      <path class="cls-28" d="M329.66,215.65l-2.67-3c5-1.53,8.6-.36,11.5.58,2.15.7,3.7,1.21,5.84.75a6.12,6.12,0,0,0,3.81-2.27c1.14-1.25,2.42-2.67,6.77-3.09l2.11,3.1c-3.44.34-4.35,1.33-5.4,2.49A7.9,7.9,0,0,1,346.8,217c-3.11.68-5.75-.18-8.07-.93C336.11,215.23,333.62,214.43,329.66,215.65Z" transform="translate(-167.75 -71.91)"/>
      <path class="cls-28" d="M321.12,203.55l-2.67-3c5-1.53,8.6-.36,11.5.58,2.15.7,3.71,1.2,5.85.74a6.08,6.08,0,0,0,3.8-2.26c1.14-1.26,2.43-2.67,6.77-3.09l2.12,3.1c-3.45.33-4.35,1.33-5.4,2.48a7.89,7.89,0,0,1-4.83,2.82c-3.11.67-5.74-.19-8.07-.94C327.57,203.13,325.09,202.32,321.12,203.55Z" transform="translate(-167.75 -71.91)"/>
      <polygon points="153.54 128.96 157.18 128.64 158.76 129.48 156.39 129.33 153.54 128.96"/>
      <polygon points="162.84 130.81 166.72 132.27 169.23 131.48 166.05 131.07 162.84 130.81"/>
      <polygon points="164.37 135.48 161.63 135.34 160.51 136.1 163.29 135.82 166.84 137.24 169.07 137.21 166 136.01 164.37 135.48"/>
      <path d="M348.23,207.09c-.7.07-2.47.48-2.47.48l-1.35,2.22,1.91-1.35,3-.41Z" transform="translate(-167.75 -71.91)"/>
      <polygon points="181.89 140.63 180.63 142.23 177.76 143.13 179.37 143.82 181.73 142.85 181.89 140.63"/>
      <polygon points="169.88 142.11 167.1 141.27 164.97 141.79 167.51 141.96 169.88 142.11"/>
      <polygon points="160.65 138.67 159.06 138.95 161.27 139.07 160.65 138.67"/>
      <polygon class="cls-34" points="173.51 129.16 171.55 129.7 169.23 131.48 172.41 130.78 173.51 129.16"/>
      <polygon class="cls-34" points="176.02 138.75 173.43 140.02 173.15 140.78 175.63 140.14 176.02 138.75"/>
      <polygon class="cls-34" points="187.07 137.95 184.18 139.01 183.97 140.43 186.36 139.3 187.07 137.95"/>
      <polygon class="cls-34" points="158.89 137.81 156.94 139.47 156.24 138.42 158.89 137.81"/>
      <polygon class="cls-37" points="170.71 134.23 167.16 133.93 169.08 134.81 170.71 134.23"/>
      <path class="cls-37" d="M341.94,214.9l-3.31-.75s1.71,1.18,2.19,1.4a24.18,24.18,0,0,0,3.35.44Z" transform="translate(-167.75 -71.91)"/>
      <polygon class="cls-37" points="160.05 134.6 157.13 134.7 158.26 136.29 160.05 134.6"/>
      <path class="cls-37" d="M345.32,197.93,342,199.26s-1.3,1.9-.78,1.81a19,19,0,0,0,2.8-1.55Z" transform="translate(-167.75 -71.91)"/>
    </g>
    <path class="cls-46" d="M329.33,207a3,3,0,0,1-1,2.09l-.11.1-5.66,6a36.19,36.19,0,0,1-3.07,2.93,3.88,3.88,0,0,1-1.79,1,2.77,2.77,0,0,1-1.37-.52,2.64,2.64,0,0,1-1.05-1.07,7.55,7.55,0,0,1-.38-1.94,26.8,26.8,0,0,1-.18-3.22,2.42,2.42,0,0,1,.79-1.74,2.37,2.37,0,0,1,1.74-.81c.6,0,1,.56,1.08,1.66,0,.13,0,.23,0,.29a8.81,8.81,0,0,0,.34,1.77c.13.34.31.51.53.51a1.18,1.18,0,0,0,.51-.3q.38-.3.9-.81l5.82-5.76a8.23,8.23,0,0,1,1.31-1.11,1.91,1.91,0,0,1,1-.38.47.47,0,0,1,.44.23,1.78,1.78,0,0,1,.12.77Z" transform="translate(-167.75 -71.91)"/>
    <g>
      <path class="cls-28" d="M343.54,113.88l-2.66-3c5-1.53,8.59-.36,11.49.58,2.15.7,3.71,1.21,5.85.75a6.08,6.08,0,0,0,3.8-2.27c1.14-1.25,2.43-2.67,6.77-3.09l2.12,3.11c-3.45.33-4.35,1.32-5.4,2.48a7.93,7.93,0,0,1-4.83,2.81c-3.11.68-5.74-.18-8.07-.93C350,113.46,347.51,112.66,343.54,113.88Z" transform="translate(-167.75 -71.91)"/>
      <path class="cls-28" d="M348.75,116.73l-2.67-3c5-1.53,8.6-.36,11.49.58,2.16.7,3.72,1.21,5.86.74a6.11,6.11,0,0,0,3.8-2.26c1.14-1.25,2.43-2.67,6.77-3.09l2.12,3.1c-3.45.33-4.35,1.33-5.41,2.49a7.87,7.87,0,0,1-4.83,2.81c-3.11.67-5.74-.18-8.06-.94C355.2,116.31,352.72,115.5,348.75,116.73Z" transform="translate(-167.75 -71.91)"/>
      <path class="cls-28" d="M347.59,119.9l-2.66-3c5-1.54,8.59-.37,11.5.57,2.15.7,3.7,1.21,5.84.75a6.15,6.15,0,0,0,3.81-2.27c1.13-1.25,2.42-2.67,6.76-3.08L375,116c-3.44.33-4.35,1.32-5.4,2.48a7.93,7.93,0,0,1-4.83,2.82c-3.11.66-5.74-.19-8.06-.94C354,119.48,351.56,118.68,347.59,119.9Z" transform="translate(-167.75 -71.91)"/>
      <path class="cls-28" d="M352.89,122.71l-2.67-3c5-1.53,8.6-.36,11.5.58,2.15.7,3.71,1.21,5.85.74a6.08,6.08,0,0,0,3.8-2.26c1.14-1.25,2.42-2.67,6.77-3.09l2.12,3.1c-3.45.33-4.36,1.33-5.41,2.49a7.87,7.87,0,0,1-4.82,2.81c-3.11.67-5.74-.18-8.07-.94C359.34,122.3,356.86,121.49,352.89,122.71Z" transform="translate(-167.75 -71.91)"/>
      <path class="cls-28" d="M344.35,110.61l-2.66-3c5-1.54,8.59-.36,11.49.57,2.15.71,3.71,1.21,5.85.75a6,6,0,0,0,3.8-2.27c1.14-1.25,2.43-2.67,6.77-3.08l2.12,3.1c-3.44.33-4.35,1.33-5.4,2.48a7.93,7.93,0,0,1-4.83,2.82c-3.11.67-5.74-.19-8.07-.94C350.8,110.2,348.32,109.39,344.35,110.61Z" transform="translate(-167.75 -71.91)"/>
      <polygon points="176.77 36.03 180.41 35.7 181.99 36.55 179.63 36.4 176.77 36.03"/>
      <polygon points="186.07 37.88 189.96 39.34 192.46 38.55 189.28 38.13 186.07 37.88"/>
      <polygon points="187.6 42.55 184.86 42.41 183.74 43.17 186.52 42.89 190.07 44.31 192.3 44.28 189.23 43.08 187.6 42.55"/>
      <path d="M371.46,114.16c-.69.07-2.46.47-2.46.47l-1.36,2.22,1.91-1.35,3-.41Z" transform="translate(-167.75 -71.91)"/>
      <polygon points="205.12 47.7 203.86 49.29 200.99 50.2 202.6 50.88 204.96 49.91 205.12 47.7"/>
      <polygon points="193.11 49.17 190.33 48.33 188.2 48.86 190.74 49.02 193.11 49.17"/>
      <polygon points="183.88 45.74 182.29 46.01 184.5 46.14 183.88 45.74"/>
      <polygon class="cls-34" points="196.74 36.23 194.78 36.77 192.46 38.55 195.64 37.84 196.74 36.23"/>
      <polygon class="cls-34" points="199.25 45.82 196.66 47.08 196.38 47.84 198.87 47.21 199.25 45.82"/>
      <polygon class="cls-34" points="210.3 45.02 207.41 46.08 207.2 47.49 209.59 46.36 210.3 45.02"/>
      <polygon class="cls-34" points="182.13 44.87 180.17 46.53 179.47 45.48 182.13 44.87"/>
      <polygon class="cls-37" points="193.94 41.3 190.39 40.99 192.31 41.88 193.94 41.3"/>
      <path class="cls-37" d="M365.17,122l-3.31-.74s1.71,1.18,2.19,1.4a23.93,23.93,0,0,0,3.35.43Z" transform="translate(-167.75 -71.91)"/>
      <polygon class="cls-37" points="183.28 41.67 180.36 41.77 181.49 43.35 183.28 41.67"/>
      <path class="cls-37" d="M368.55,105l-3.27,1.33s-1.31,1.91-.79,1.82a19,19,0,0,0,2.8-1.55Z" transform="translate(-167.75 -71.91)"/>
    </g>
    <path class="cls-46" d="M352.57,114.06a3.08,3.08,0,0,1-1,2.09l-.11.1-5.66,6a35,35,0,0,1-3.07,2.94,3.83,3.83,0,0,1-1.79,1,2.71,2.71,0,0,1-1.37-.52,2.63,2.63,0,0,1-1.05-1.06,8.27,8.27,0,0,1-.38-1.95,26.63,26.63,0,0,1-.18-3.21,2.45,2.45,0,0,1,.79-1.75,2.4,2.4,0,0,1,1.74-.8c.6,0,1,.56,1.08,1.66,0,.13,0,.22,0,.28a7.68,7.68,0,0,0,.34,1.78c.12.34.3.5.52.5a1.12,1.12,0,0,0,.51-.29q.38-.3.9-.81l5.82-5.77a8.23,8.23,0,0,1,1.31-1.11,1.88,1.88,0,0,1,1-.37.46.46,0,0,1,.43.23,1.75,1.75,0,0,1,.13.77Z" transform="translate(-167.75 -71.91)"/>
    <path class="cls-47" d="M263.92,212.3c-.92.81-1.91,1.76-2.86,2.71-.41-1-.79-2-1.05-2.58-.35-.88-3.05-.87-2.46.73.45,1.22,1,2.62,1.47,4l-.77.84c-1.67,1.86-3.86,4.07-2.91,5.8.81,1.47,2.23.31,2.73-.58a26.63,26.63,0,0,1,2.16-3c.28.67.54,1.24.77,1.69,1.12,2.13,1.75,2.78,2.52,1.39s.47-1.51-1.29-5.5c1.68-2,3.26-3.64,3.95-4.43S266.15,210.3,263.92,212.3Z" transform="translate(-167.75 -71.91)"/>
    <g>
      <path class="cls-28" d="M404,150.17l-2.67-3c5-1.53,8.6-.36,11.5.58,2.15.7,3.71,1.2,5.85.74a6.11,6.11,0,0,0,3.8-2.26c1.14-1.25,2.43-2.67,6.77-3.09l2.12,3.1c-3.45.33-4.35,1.33-5.4,2.48a7.89,7.89,0,0,1-4.83,2.82c-3.11.67-5.74-.19-8.07-.94C410.43,149.76,408,149,404,150.17Z" transform="translate(-167.75 -71.91)"/>
      <path class="cls-28" d="M409.19,153l-2.67-3c5-1.54,8.6-.37,11.49.57,2.16.7,3.71,1.21,5.86.75a6.08,6.08,0,0,0,3.8-2.27c1.14-1.25,2.42-2.67,6.77-3.08l2.11,3.09c-3.44.34-4.35,1.33-5.4,2.49a7.85,7.85,0,0,1-4.83,2.81c-3.11.68-5.74-.18-8.06-.93C415.64,152.6,413.16,151.8,409.19,153Z" transform="translate(-167.75 -71.91)"/>
      <path class="cls-28" d="M408,156.19l-2.66-3c5-1.54,8.59-.36,11.49.58,2.15.7,3.71,1.2,5.85.74a6,6,0,0,0,3.8-2.27c1.14-1.24,2.43-2.66,6.77-3.08l2.12,3.1c-3.44.33-4.35,1.33-5.4,2.48a7.89,7.89,0,0,1-4.83,2.82c-3.11.67-5.74-.18-8.06-.94C414.48,155.78,412,155,408,156.19Z" transform="translate(-167.75 -71.91)"/>
      <path class="cls-28" d="M413.33,159l-2.67-3c5-1.53,8.6-.36,11.5.58,2.15.7,3.7,1.21,5.85.75a6,6,0,0,0,3.8-2.27c1.14-1.25,2.42-2.67,6.77-3.08l2.11,3.1c-3.44.33-4.35,1.32-5.4,2.48a7.9,7.9,0,0,1-4.82,2.81c-3.11.68-5.75-.18-8.07-.93C419.78,158.59,417.29,157.79,413.33,159Z" transform="translate(-167.75 -71.91)"/>
      <path class="cls-28" d="M404.79,146.91l-2.67-3c5-1.53,8.6-.36,11.5.58,2.15.7,3.71,1.2,5.85.74a6.08,6.08,0,0,0,3.8-2.26c1.14-1.26,2.43-2.67,6.77-3.09l2.12,3.1c-3.45.33-4.35,1.33-5.4,2.48a7.89,7.89,0,0,1-4.83,2.82c-3.11.67-5.74-.19-8.07-.94C411.24,146.49,408.76,145.68,404.79,146.91Z" transform="translate(-167.75 -71.91)"/>
      <polygon points="237.21 72.32 240.85 72 242.43 72.84 240.06 72.69 237.21 72.32"/>
      <polygon points="246.51 74.17 250.39 75.64 252.9 74.84 249.72 74.43 246.51 74.17"/>
      <polygon points="248.04 78.84 245.3 78.7 244.18 79.46 246.96 79.18 250.51 80.6 252.74 80.57 249.66 79.37 248.04 78.84"/>
      <path d="M431.9,150.45c-.69.07-2.46.48-2.46.48l-1.36,2.22L430,151.8l3-.41Z" transform="translate(-167.75 -71.91)"/>
      <polygon points="265.56 83.99 264.3 85.59 261.43 86.49 263.04 87.18 265.4 86.21 265.56 83.99"/>
      <polygon points="253.55 85.47 250.77 84.63 248.64 85.15 251.18 85.32 253.55 85.47"/>
      <polygon points="244.31 82.03 242.73 82.31 244.94 82.43 244.31 82.03"/>
      <polygon class="cls-34" points="257.18 72.52 255.22 73.06 252.9 74.84 256.08 74.14 257.18 72.52"/>
      <polygon class="cls-34" points="259.69 82.11 257.1 83.38 256.82 84.14 259.31 83.5 259.69 82.11"/>
      <polygon class="cls-34" points="270.74 81.31 267.85 82.38 267.64 83.78 270.04 82.66 270.74 81.31"/>
      <polygon class="cls-34" points="242.56 81.17 240.61 82.83 239.91 81.78 242.56 81.17"/>
      <polygon class="cls-37" points="254.38 77.59 250.83 77.29 252.75 78.17 254.38 77.59"/>
      <path class="cls-37" d="M425.61,158.26l-3.31-.75s1.71,1.18,2.19,1.4a24.18,24.18,0,0,0,3.35.44Z" transform="translate(-167.75 -71.91)"/>
      <polygon class="cls-37" points="243.72 77.96 240.8 78.06 241.93 79.65 243.72 77.96"/>
      <path class="cls-37" d="M429,141.29l-3.28,1.33s-1.3,1.9-.78,1.81a19,19,0,0,0,2.8-1.55Z" transform="translate(-167.75 -71.91)"/>
    </g>
    <path class="cls-47" d="M409.72,155.66c-.92.81-1.91,1.76-2.86,2.71-.41-1-.79-2-1.05-2.58-.36-.88-3.05-.87-2.46.73.45,1.22,1,2.62,1.47,4l-.77.84c-1.67,1.86-3.86,4.08-2.92,5.8.81,1.47,2.24.31,2.74-.58a26.63,26.63,0,0,1,2.16-3c.28.67.54,1.24.77,1.69,1.11,2.13,1.75,2.78,2.52,1.39s.47-1.51-1.29-5.5c1.68-2,3.26-3.64,4-4.42S412,153.66,409.72,155.66Z" transform="translate(-167.75 -71.91)"/>
    <polyline class="cls-6" points="63.45 40.16 31.51 40.16 31.51 69.17"/>
    <path d="M233.3,112.67a24.39,24.39,0,0,0-2.33.85v-2.9a24.59,24.59,0,0,0,2.32.87,17.55,17.55,0,0,0,2.54.6A17,17,0,0,0,233.3,112.67Z" transform="translate(-167.75 -71.91)"/>
  </g>
</svg>
