<svg xmlns="http://www.w3.org/2000/svg" xmlns:xlink="http://www.w3.org/1999/xlink" width="268.26" height="185.14" viewBox="0 0 268.26 185.14">
  <defs>
    <style>
      .cls-1, .cls-3 {
        fill: #fff;
      }

      .cls-1, .cls-12, .cls-13, .cls-14, .cls-15, .cls-17, .cls-18, .cls-23, .cls-29, .cls-31, .cls-9 {
        stroke: #000;
      }

      .cls-1, .cls-12, .cls-13, .cls-14, .cls-15, .cls-18, .cls-19, .cls-25, .cls-31, .cls-5, .cls-9 {
        stroke-linejoin: round;
      }

      .cls-1, .cls-17, .cls-31, .cls-5, .cls-7, .cls-9 {
        stroke-width: 0.5px;
      }

      .cls-2 {
        fill: #f0f0f0;
      }

      .cls-4 {
        fill: #f2f2f2;
      }

      .cls-17, .cls-18, .cls-23, .cls-5, .cls-7, .cls-9 {
        fill: none;
      }

      .cls-5 {
        stroke: gray;
      }

      .cls-6 {
        fill: url(#linear-gradient);
      }

      .cls-7 {
        stroke: #4d4d4d;
      }

      .cls-23, .cls-29, .cls-7 {
        stroke-miterlimit: 10;
      }

      .cls-8 {
        fill: #666;
      }

      .cls-11, .cls-12, .cls-14, .cls-15, .cls-16, .cls-8 {
        fill-rule: evenodd;
      }

      .cls-10, .cls-11 {
        fill: #28708e;
      }

      .cls-12, .cls-13, .cls-14, .cls-15, .cls-19, .cls-23, .cls-25 {
        stroke-width: 0.3px;
      }

      .cls-12 {
        fill: url(#linear-gradient-2);
      }

      .cls-13 {
        fill: url(#linear-gradient-3);
      }

      .cls-14 {
        fill: #c4c4c4;
      }

      .cls-15 {
        fill: url(#linear-gradient-4);
      }

      .cls-19 {
        fill: #a10000;
        stroke: #a10000;
      }

      .cls-20 {
        fill: url(#linear-gradient-5);
      }

      .cls-21 {
        fill: url(#linear-gradient-6);
      }

      .cls-22 {
        font-size: 9.35px;
      }

      .cls-22, .cls-28, .cls-32 {
        font-family: ArialMT, Arial;
      }

      .cls-24 {
        font-size: 9px;
        font-family: Humanist521BT-BoldCondensed, Humanst521 Cn BT;
      }

      .cls-24, .cls-36 {
        font-weight: 700;
      }

      .cls-25 {
        fill: #267520;
        stroke: #267520;
      }

      .cls-26 {
        fill: url(#linear-gradient-7);
      }

      .cls-27 {
        fill: url(#linear-gradient-8);
      }

      .cls-28 {
        font-size: 9.77px;
      }

      .cls-29 {
        stroke-width: 0.4px;
      }

      .cls-30 {
        letter-spacing: -0.07em;
      }

      .cls-31 {
        fill: #cce1e9;
      }

      .cls-32, .cls-35, .cls-36 {
        font-size: 7px;
      }

      .cls-33 {
        fill: #2a8a2f;
      }

      .cls-34 {
        font-size: 7.5px;
      }

      .cls-34, .cls-35 {
        font-family: Courier;
      }

      .cls-36 {
        font-family: Courier-Bold, Courier;
      }
    </style>
    <linearGradient id="linear-gradient" x1="261.17" y1="47.74" x2="267.98" y2="47.74" gradientUnits="userSpaceOnUse">
      <stop offset="0" stop-color="#cfcfcf"/>
      <stop offset="0.5" stop-color="#e6e6e6"/>
      <stop offset="0.96" stop-color="gray"/>
      <stop offset="1" stop-color="#787878"/>
    </linearGradient>
    <linearGradient id="linear-gradient-2" x1="-117.73" y1="333.65" x2="-112.59" y2="333.65" gradientTransform="translate(550.4 58.72) rotate(30.96)" gradientUnits="userSpaceOnUse">
      <stop offset="0"/>
      <stop offset="0.09" stop-color="#040404"/>
      <stop offset="0.19" stop-color="#101010"/>
      <stop offset="0.28" stop-color="#252525"/>
      <stop offset="0.38" stop-color="#414141"/>
      <stop offset="0.47" stop-color="#666"/>
      <stop offset="0.5" stop-color="#737373"/>
      <stop offset="0.54" stop-color="#5f5f5f"/>
      <stop offset="0.63" stop-color="#3d3d3d"/>
      <stop offset="0.72" stop-color="#222"/>
      <stop offset="0.81" stop-color="#0f0f0f"/>
      <stop offset="0.9" stop-color="#040404"/>
      <stop offset="1"/>
    </linearGradient>
    <linearGradient id="linear-gradient-3" x1="-117.49" y1="354.95" x2="-112.75" y2="354.95" xlink:href="#linear-gradient-2"/>
    <linearGradient id="linear-gradient-4" x1="-117.15" y1="369.74" x2="-113.09" y2="369.74" xlink:href="#linear-gradient-2"/>
    <linearGradient id="linear-gradient-5" x1="193.93" y1="256.94" x2="246.7" y2="256.94" gradientUnits="userSpaceOnUse">
      <stop offset="0" stop-color="#ff0001"/>
      <stop offset="0.08" stop-color="#ff1b17"/>
      <stop offset="0.25" stop-color="#fe4f41"/>
      <stop offset="0.42" stop-color="#fe7b64"/>
      <stop offset="0.59" stop-color="#fd9d80"/>
      <stop offset="0.74" stop-color="#fdb593"/>
      <stop offset="0.88" stop-color="#fdc49f"/>
      <stop offset="1" stop-color="#fdc9a3"/>
    </linearGradient>
    <linearGradient id="linear-gradient-6" x1="194.87" y1="256.94" x2="245.23" y2="256.94" gradientUnits="userSpaceOnUse">
      <stop offset="0" stop-color="#fdc9a3"/>
      <stop offset="1" stop-color="#ff0001"/>
    </linearGradient>
    <linearGradient id="linear-gradient-7" x1="336.81" y1="264.67" x2="391.99" y2="264.67" gradientUnits="userSpaceOnUse">
      <stop offset="0" stop-color="#5fb749"/>
      <stop offset="1" stop-color="#dbf1c6"/>
    </linearGradient>
    <linearGradient id="linear-gradient-8" x1="337.8" y1="264.67" x2="390.44" y2="264.67" gradientUnits="userSpaceOnUse">
      <stop offset="0" stop-color="#dbf1c6"/>
      <stop offset="1" stop-color="#5fb749"/>
    </linearGradient>
  </defs>
  <g id="Layer_2" data-name="Layer 2">
    <rect class="cls-1" x="145.51" y="27.49" width="122.49" height="157.4"/>
    <rect class="cls-2" x="146.83" y="41.62" width="111.42" height="99.27" rx="5"/>
    <rect class="cls-3" x="146.83" y="66.09" width="111.42" height="27.23" rx="5"/>
    <rect class="cls-4" x="261.17" y="27.49" width="6.83" height="157.4"/>
    <line class="cls-5" x1="261.17" y1="27.49" x2="261.17" y2="184.89"/>
    <g>
      <rect class="cls-6" x="261.17" y="36.52" width="6.82" height="22.44" rx="1"/>
      <rect class="cls-7" x="261.17" y="36.52" width="6.82" height="22.44" rx="1"/>
    </g>
    <polygon class="cls-8" points="266.31 34.46 262.84 34.46 264.57 30.92 266.31 34.46"/>
    <polygon class="cls-8" points="266.31 61.41 262.84 61.41 264.57 64.95 266.31 61.41"/>
    <rect class="cls-9" x="145.51" y="27.49" width="122.49" height="157.4"/>
    <path class="cls-10" d="M255.84,318.83c-3.43,0-3.49-.31-3.58-.75-.12-.65.64-.93,2.16-1.49a16.91,16.91,0,0,0,2.12-1.15c-.79-.28-3.75-1-13.83-1V314c14.62,0,14.77.86,14.89,1.55.16.85-1.1,1.31-2.83,1.95l-.69.26c.94,0,2.73.06,6.07-.06l0,1C258.33,318.8,256.92,318.83,255.84,318.83Z" transform="translate(-158.99 -144.11)"/>
    <path class="cls-11" d="M367.73,312.17c4.47,2,8.15-1.68,11.89-2.36.92,1-.14,3.15.38,4.34,2.72,2,8,1.25,10,3.94-1.19,1-2.8-.59-4.91-1.18-3.63-1-7.59-.4-6.23-5.72-3.24,1.52-8.68,4.37-12.45,1.77a24.56,24.56,0,0,1-3.78,2,102.85,102.85,0,0,0-4,10.07c-2.63-.94-2.71-4.54-5.85-4.93a9.45,9.45,0,0,0-.95,3c.73.2,1.52-2.18,2.64-1.58.1,1.51-1.61,2.77-3,3.35-1.56-1-.35-3.22,0-4.93a19.17,19.17,0,0,1-11.89,3.75,10.92,10.92,0,0,1-5.48-1.58c-3.42-2.57-2.51-9.29-.19-12.43,2.15-2.92,5.23-4,8.69-4.93,1.05-1.73,1.61-4,2.45-5.92,1.07-.08,1.35-.28,1.7-1.38,5.59-2.19,12-3.46,16.61-6.72-5.79,1.07-12.15,3-18.12,4.74-1.89.55-3.8,1.54-5.66,1.19.21-1.18,1.77-1.32,2.64-1.58,3-.9,6.34-1.82,9.63-2.76,4.28-1.23,8.86-3,13.21-2.57.11,2.06-2.05,2.65-3.39,3.36-4.11,2.13-9.74,3.67-14.35,5.52.76,2.56,2.65,3.93,4.15,5.72a33.35,33.35,0,0,1,6.61.79c2.25-2.72,4.1-6.37,6.23-9.47.57-.84,1.35-2.25,2.45-2.17-.35,2.3-2.28,4-3.59,5.92s-2.39,4.12-3.58,6.12c1.39,1,3.67,1,4.15,3-1.71.38-2.85-1.47-4.53-1.78-2.42,2.92-3.72,7-5.47,10.66,3.13-.6,5.44-2.08,8.11-3.16,1.07-2.47,2.56-4,2.84-7.5.5-6.19,4.28-9.82,7.93-13a10.39,10.39,0,0,1,1.13-2.37c.73-.17.67.48,1.13.59,3.84-2.77,11-4.66,17.37-4.14,1.16.09,3.81.42,3.77,2,0,2.5-4,5.38-5.84,6.91C383.5,302.2,374.41,308,367.73,312.17Zm19.82-23.08c-5.18.44-11.43,2.09-14.16,5.32-1.62,1.93-2.41,4.79-3.77,7.31s-4.87,6.74-3,9.67c7.7-4.73,15.47-9.64,22.27-15.19,2.18-1.79,4.84-3.85,5.86-6.71C392.49,288.6,389.93,288.89,387.55,289.09Zm-21.33,16.57c1.14-2.94,3.38-5.8,4.15-8.48C368.63,299.5,366.36,302.33,366.22,305.66Zm-22.09-1.18c1.67-.36,3.87-.16,5.47-.6a29.5,29.5,0,0,1-3.58-4.53C345.53,301.22,344.7,302.71,344.13,304.48Zm-.38,1.18a22.91,22.91,0,0,0-1.51,4.93c-.41,1.6-.52,3.84-1.89,4.54-.48-2.69,1.22-6.29,1.89-9.07-5.13,1-9.41,4.92-9.25,10.65.12,4.25,3.3,5.76,7.74,5.72,9.42-.08,16.31-8.51,10-17C348.87,305.09,346.19,305.53,343.75,305.66Zm10.76,7.1c1-2.23,2.12-4.36,3.21-6.5a37.82,37.82,0,0,0-5.48-.79A19.85,19.85,0,0,1,354.51,312.76Zm9.25.2a7.57,7.57,0,0,0,1.7-.79c-.13-.58,0-1.39-.56-1.58C364.59,311.46,364.09,312.13,363.76,313Zm-10.38,6.12c2.53.45,3.4,2.63,4.91,4.14a19.67,19.67,0,0,1,2.64-6.9c0-.24-.06-.47-.38-.4C358.58,317.41,355.49,317.73,353.38,319.08Z" transform="translate(-158.99 -144.11)"/>
    <g>
      <path class="cls-12" d="M284.41,277.14l.47.28.46.28c-.28,2.2-3.61,10-8,17.35l-4.41-2.65C277.32,285,282.6,278.43,284.41,277.14Z" transform="translate(-158.99 -144.11)"/>
      <path class="cls-13" d="M261,312.71a.23.23,0,0,0,.09.32l3.65,2.2a.25.25,0,0,0,.33-.08L277.13,295a.24.24,0,0,0-.08-.33l-3.66-2.2a.24.24,0,0,0-.33.08Z" transform="translate(-158.99 -144.11)"/>
      <g>
        <g>
          <polygon class="cls-14" points="102.2 168.91 102.98 169.38 104.9 170.53 105.69 171 105.11 171.96 101.63 169.86 102.2 168.91"/>
          <path class="cls-15" d="M261,318.34l-.94-.57v0l.54-3.77,3.49,2.1L261,318.32Z" transform="translate(-158.99 -144.11)"/>
        </g>
        <path class="cls-16" d="M260.18,318.73l-.07,0c-.24-.14-.08-.77,0-.92l.94.57C260.9,318.44,260.42,318.88,260.18,318.73Z" transform="translate(-158.99 -144.11)"/>
      </g>
      <path d="M275.4,285.47a.56.56,0,0,1,.19.77l-.45.75,1,.61-1.33,2.22-1-.61L269.74,296a1,1,0,0,1,0,1.33c-.32.52-.86.77-1.23.58a.57.57,0,0,1-.64.05.57.57,0,0,1-.19-.77l6.91-11.52A.56.56,0,0,1,275.4,285.47Z" transform="translate(-158.99 -144.11)"/>
    </g>
    <path d="M268.47,281.79c.29-1,.55-1.57.85-2.33h-2.9a22.43,22.43,0,0,1,.87,2.33,17.47,17.47,0,0,1,.6,2.53A17,17,0,0,1,268.47,281.79Z" transform="translate(-158.99 -144.11)"/>
    <polyline class="cls-17" points="108.88 135.98 108.88 91.59 134.02 91.59"/>
    <g>
      <path class="cls-18" d="M242.46,252.74H216.6a11.75,11.75,0,0,0-22.67,4.2c0,.14,0,.27,0,.4s0,.27,0,.4a11.75,11.75,0,0,0,22.26,5.13h2.16a2.75,2.75,0,0,1,5.28,0H226a2.75,2.75,0,0,1,5.28,0h2.38a2.75,2.75,0,0,1,5.28,0h1.66l6.09-7v-.81Z" transform="translate(-158.99 -144.11)"/>
      <path class="cls-19" d="M246.7,255.08l-30.1-1.54a11.62,11.62,0,1,0-.41,9.33h2.16a2.75,2.75,0,0,1,5.28,0H226a2.75,2.75,0,0,1,5.28,0h2.38a2.75,2.75,0,0,1,5.28,0h1.66l6.09-7Z" transform="translate(-158.99 -144.11)"/>
      <path class="cls-20" d="M242.46,252.74H216.6a11.61,11.61,0,1,0-.41,9.33h2.16a2.75,2.75,0,0,1,5.28,0H226a2.75,2.75,0,0,1,5.28,0h2.38a2.75,2.75,0,0,1,5.28,0h1.66l6.09-7Z" transform="translate(-158.99 -144.11)"/>
      <path class="cls-21" d="M205.67,267.61a10.67,10.67,0,1,1,10.06-14.53l.23.6h26.26l3,1.66-5,5.79h-.53a3.8,3.8,0,0,0-6.67,0h-1a3.81,3.81,0,0,0-6.68,0h-1a3.81,3.81,0,0,0-6.68,0H215.6l-.25.52A10.75,10.75,0,0,1,205.67,267.61Z" transform="translate(-158.99 -144.11)"/>
      <path class="cls-3" d="M214.94,256.94a9.28,9.28,0,1,1-9.27-9.27A9.27,9.27,0,0,1,214.94,256.94Z" transform="translate(-158.99 -144.11)"/>
      <text class="cls-22" transform="translate(38.55 116.38)">Priv</text>
    </g>
    <g>
      <path class="cls-23" d="M362.56,166.56c2.1-6,6.76-9.3,14.11-9.6" transform="translate(-158.99 -144.11)"/>
      <polygon points="205.5 22.55 202.67 24.99 201.97 21.31 205.5 22.55"/>
    </g>
    <g>
      <path class="cls-23" d="M231.44,163.27c-2.1-6-6.75-9.3-14.11-9.6" transform="translate(-158.99 -144.11)"/>
      <polygon points="74.02 18.03 73.33 21.71 70.5 19.27 74.02 18.03"/>
    </g>
    <g>
      <path class="cls-23" d="M309.23,211.23c-3.48-9.95-11.19-15.41-23.37-15.91" transform="translate(-158.99 -144.11)"/>
      <polygon points="151.81 65.99 151.12 69.66 148.28 67.22 151.81 65.99"/>
    </g>
    <g>
      <path class="cls-23" d="M300.45,178.69c-6.09-1.87-9.57-6.39-10.16-13.73" transform="translate(-158.99 -144.11)"/>
      <polygon points="141.47 32.64 144.02 35.37 140.38 36.21 141.47 32.64"/>
    </g>
    <g>
      <path class="cls-23" d="M199.66,273.73c-2.63,5.79-7.56,8.67-14.91,8.32" transform="translate(-158.99 -144.11)"/>
      <polygon points="38.74 129.35 41.78 127.17 42.15 130.9 38.74 129.35"/>
    </g>
    <text class="cls-24" transform="translate(221.06 15.57)">Email an Lisa</text>
    <text class="cls-24" transform="translate(0 141.32)">Faizas<tspan x="0" y="9.5">private Key</tspan></text>
    <path d="M329.64,298.4a24.39,24.39,0,0,1-2.33-.85v2.9c.27-.13,1.38-.57,2.33-.87a17.47,17.47,0,0,1,2.53-.6A17,17,0,0,1,329.64,298.4Z" transform="translate(-158.99 -144.11)"/>
    <line class="cls-17" x1="168.95" y1="154.89" x2="121.67" y2="154.89"/>
    <path d="M259.82,298.4a24.39,24.39,0,0,1-2.33-.85v2.9c.27-.13,1.38-.57,2.33-.87a17.47,17.47,0,0,1,2.53-.6A17,17,0,0,1,259.82,298.4Z" transform="translate(-158.99 -144.11)"/>
    <polyline class="cls-17" points="99.13 154.89 46.67 154.89 46.67 125.54"/>
    <g>
      <path class="cls-18" d="M387.55,260.27h-27a12.28,12.28,0,0,0-23.7,4.4c0,.14,0,.28,0,.42s0,.28,0,.42a12.29,12.29,0,0,0,23.27,5.36h2.26a2.88,2.88,0,0,1,5.53,0h2.48a2.88,2.88,0,0,1,5.53,0h2.48a2.88,2.88,0,0,1,5.53,0h1.72l6.38-7.3v-.84Z" transform="translate(-158.99 -144.11)"/>
      <path class="cls-25" d="M392,262.73l-31.48-1.62a12.15,12.15,0,1,0-.43,9.76h2.26a2.88,2.88,0,0,1,5.53,0h2.48a2.88,2.88,0,0,1,5.53,0h2.48a2.88,2.88,0,0,1,5.53,0h1.72l6.38-7.3Z" transform="translate(-158.99 -144.11)"/>
      <path class="cls-26" d="M387.55,260.27h-27a12.15,12.15,0,1,0-.43,9.76h2.26a2.88,2.88,0,0,1,5.53,0h2.48a2.88,2.88,0,0,1,5.53,0h2.48a2.88,2.88,0,0,1,5.53,0h1.72l6.38-7.3Z" transform="translate(-158.99 -144.11)"/>
      <path class="cls-27" d="M349.09,275.82a11.16,11.16,0,1,1,10.51-15.19l.25.63H387.3l3.14,1.74-5.27,6h-.56a4,4,0,0,0-7,0h-1a4,4,0,0,0-7,0h-1a4,4,0,0,0-7,0h-2.15l-.27.55A11.2,11.2,0,0,1,349.09,275.82Z" transform="translate(-158.99 -144.11)"/>
      <circle class="cls-3" cx="190.09" cy="120.56" r="9.7"/>
      <text class="cls-28" transform="translate(181.32 124.27)">Pub</text>
    </g>
    <path class="cls-9" d="M308.07,185.73h-4.45c-2.93,0-5.3,3.54-5.3,7.89v34.21c0,4.36-2.37,7.89-5.3,7.89,2.93,0,5.3,3.53,5.3,7.88v34.18c0,4.36,2.37,7.89,5.3,7.89h4.45" transform="translate(-158.99 -144.11)"/>
    <text class="cls-24" transform="translate(110.56 54.35)">PKH</text>
    <path class="cls-29" d="M250.24,175a1.3,1.3,0,0,0-.39-1,1.28,1.28,0,0,0-1.83,0,1.35,1.35,0,0,0,0,1.9,1.25,1.25,0,0,0,.92.39,1.21,1.21,0,0,0,.91-.39A1.3,1.3,0,0,0,250.24,175Zm0-1v-.58H251a.22.22,0,0,1,.16.05.13.13,0,0,1,0,.11.13.13,0,0,1,0,.12.22.22,0,0,1-.16.05h-.43V177a1.17,1.17,0,0,1-.13.57,1.2,1.2,0,0,1-.31.35,1.8,1.8,0,0,1-.39.25,1.15,1.15,0,0,1-.46.08h-.91a.25.25,0,0,1-.16-.05.17.17,0,0,1,0-.12.21.21,0,0,1,0-.12.25.25,0,0,1,.16,0h.92a.89.89,0,0,0,.5-.15,1,1,0,0,0,.38-.42.82.82,0,0,0,.08-.4v-1a1.54,1.54,0,0,1-1.31.71,1.56,1.56,0,0,1-1.14-.48,1.67,1.67,0,0,1-.48-1.19,1.62,1.62,0,0,1,.48-1.17,1.59,1.59,0,0,1,2.45.21Zm-4.49-.52a2.22,2.22,0,0,0-.5-1,1,1,0,0,0-.69-.28.93.93,0,0,0-.72.34,1.39,1.39,0,0,0,0,1.75,1,1,0,0,0,.7.33.85.85,0,0,0,.44-.13,1.52,1.52,0,0,0,.42-.36A3.8,3.8,0,0,0,245.75,173.51Zm.07.53a1.93,1.93,0,0,1-.6.66,1.18,1.18,0,0,1-1.33,0,1.38,1.38,0,0,1-.49-.55,1.78,1.78,0,0,1,.17-1.84,1.18,1.18,0,0,1,1-.48,1.23,1.23,0,0,1,.78.27,1.8,1.8,0,0,1,.57.78,4.46,4.46,0,0,1,.25,1.53,2.22,2.22,0,0,1-.64,1.71,2.87,2.87,0,0,1-.63.47,2.32,2.32,0,0,1-1,.23,1.12,1.12,0,0,1-.55-.12.22.22,0,0,1-.1-.16.16.16,0,0,1,.05-.11.14.14,0,0,1,.11,0,.3.3,0,0,1,.13,0,.74.74,0,0,0,.34.07,1.85,1.85,0,0,0,1.38-.58,2,2,0,0,0,.59-1.47C245.83,174.38,245.82,174.23,245.82,174Zm-7,1v1.42h.58a.25.25,0,0,1,.17,0,.16.16,0,0,1,0,.12.17.17,0,0,1,0,.12.32.32,0,0,1-.17,0h-1.33a.35.35,0,0,1-.17,0,.17.17,0,0,1,0-.12.16.16,0,0,1,0-.12.27.27,0,0,1,.17,0h.43v-3.8h-.43a.26.26,0,0,1-.17-.05.16.16,0,0,1,0-.12.15.15,0,0,1,0-.11.27.27,0,0,1,.17,0h1.33a.25.25,0,0,1,.17,0,.15.15,0,0,1,0,.11.16.16,0,0,1,0,.12.25.25,0,0,1-.17.05h-.58v1.95l2.2-1.95h-.36a.23.23,0,0,1-.16-.05.17.17,0,0,1-.05-.12.16.16,0,0,1,.05-.11.24.24,0,0,1,.16,0h.94a.25.25,0,0,1,.17,0,.15.15,0,0,1,0,.11.16.16,0,0,1,0,.12.25.25,0,0,1-.17.05h-.12l-1.76,1.57a1.71,1.71,0,0,1,.64.4,2.21,2.21,0,0,1,.51.67c.09.17.26.56.5,1.16h.4a.22.22,0,0,1,.16,0,.14.14,0,0,1,.06.12.16.16,0,0,1-.06.12.28.28,0,0,1-.16,0h-.62a6.33,6.33,0,0,0-.84-1.76,1.89,1.89,0,0,0-.85-.56Zm-2.4,0a1.27,1.27,0,0,0-.41-.94,1.34,1.34,0,0,0-1-.39,1.37,1.37,0,0,0-1,.39,1.32,1.32,0,0,0,0,1.89,1.34,1.34,0,0,0,1,.4,1.31,1.31,0,0,0,1-.4A1.28,1.28,0,0,0,236.41,175Zm0-1v-.58h.75a.22.22,0,0,1,.16.05.16.16,0,0,1,.05.11.17.17,0,0,1-.05.12.22.22,0,0,1-.16.05h-.43v4.11h.43a.22.22,0,0,1,.16,0,.16.16,0,0,1,.05.11.14.14,0,0,1-.05.11.18.18,0,0,1-.16.06h-1.53a.23.23,0,0,1-.16-.05.17.17,0,0,1-.05-.12.16.16,0,0,1,.05-.11.24.24,0,0,1,.16,0h.78V176a1.7,1.7,0,0,1-3.09-1,1.63,1.63,0,0,1,.49-1.17,1.75,1.75,0,0,1,2.6.21Zm-6.12-.25v2.64h1.41a.21.21,0,0,1,.15,0,.14.14,0,0,1,.06.12.16.16,0,0,1-.06.12.27.27,0,0,1-.15,0h-2.5a.35.35,0,0,1-.17,0,.17.17,0,0,1,0-.12.16.16,0,0,1,0-.12.27.27,0,0,1,.17,0H230v-2.64h-.7a.25.25,0,0,1-.16-.05.16.16,0,0,1,0-.12.15.15,0,0,1,0-.11.25.25,0,0,1,.16-.05h.7V173a.94.94,0,0,1,.32-.7,1.29,1.29,0,0,1,.87-.29,6.39,6.39,0,0,1,1,.07c.14,0,.22,0,.24.08a.12.12,0,0,1,0,.11.14.14,0,0,1,0,.11.17.17,0,0,1-.12.05h-.1a6.57,6.57,0,0,0-1-.09.94.94,0,0,0-.65.21.63.63,0,0,0-.22.46v.48h1.49a.25.25,0,0,1,.17.05.13.13,0,0,1,.05.11.13.13,0,0,1-.05.12.25.25,0,0,1-.17.05Zm-4,0h-1.89a.23.23,0,0,1-.16-.05.13.13,0,0,1,0-.12.13.13,0,0,1,0-.11.2.2,0,0,1,.16-.05h2.21V177a1.29,1.29,0,0,1-.17.68,1.13,1.13,0,0,1-.49.45,1.22,1.22,0,0,1-.56.12h-1a.26.26,0,0,1-.17-.05.16.16,0,0,1,0-.12.19.19,0,0,1,0-.12.27.27,0,0,1,.17,0h1a.85.85,0,0,0,.66-.27.89.89,0,0,0,.25-.66Zm0-2v.83h-.48v-.83Zm-6,.49v1.56a2.77,2.77,0,0,1,.53-.18,2.34,2.34,0,0,1,.5-.06,1.33,1.33,0,0,1,1,.42,1.53,1.53,0,0,1,.41,1.11,1.74,1.74,0,0,1-.46,1.24,1.51,1.51,0,0,1-1.14.46,2,2,0,0,1-.87-.2,2.18,2.18,0,0,1-.54-.35c-.1-.08-.14-.15-.14-.2a.16.16,0,0,1,0-.12.18.18,0,0,1,.11,0,.23.23,0,0,1,.15.07,1.78,1.78,0,0,0,1.24.53,1.23,1.23,0,0,0,.92-.38,1.4,1.4,0,0,0,.36-1,1.13,1.13,0,0,0-.32-.86,1,1,0,0,0-.79-.34,2.22,2.22,0,0,0-1,.26.57.57,0,0,1-.16.07.17.17,0,0,1-.12-.05.17.17,0,0,1,0-.13V172h2.23a.22.22,0,0,1,.16,0,.15.15,0,0,1,0,.11.15.15,0,0,1,0,.12.22.22,0,0,1-.16.05Zm-4.55,2.3v1.82h1.09a.24.24,0,0,1,.16,0,.17.17,0,0,1,0,.12.18.18,0,0,1,0,.12.31.31,0,0,1-.16,0H215a.35.35,0,0,1-.17,0,.17.17,0,0,1,0-.12.16.16,0,0,1,0-.12.27.27,0,0,1,.17,0h.43v-3.8H215a.26.26,0,0,1-.17-.05.16.16,0,0,1,0-.12.21.21,0,0,1,.05-.12.3.3,0,0,1,.16,0h3.51v1.09a.35.35,0,0,1,0,.17.17.17,0,0,1-.13,0,.15.15,0,0,1-.11,0,.35.35,0,0,1,0-.17v-.77h-2.44v1.66h1.14v-.37a.21.21,0,0,1,0-.15.14.14,0,0,1,.12-.06.13.13,0,0,1,.11.06.21.21,0,0,1,0,.15v1a.3.3,0,0,1,0,.18.14.14,0,0,1-.11,0,.16.16,0,0,1-.12,0,.3.3,0,0,1,0-.18v-.35Zm-2.27-.07a2.32,2.32,0,0,0-.45-1.4,1.4,1.4,0,0,0-1.18-.62,1.41,1.41,0,0,0-1.14.59,2.19,2.19,0,0,0-.48,1.43,2.13,2.13,0,0,0,.5,1.45,1.47,1.47,0,0,0,1.12.56,1.41,1.41,0,0,0,1.18-.61A2.32,2.32,0,0,0,213.47,174.53Zm-1.59,2.33-.42.32a2.88,2.88,0,0,1,.52-.07,1.64,1.64,0,0,1,.65.13,1,1,0,0,0,.35.08.91.91,0,0,0,.5-.17.29.29,0,0,1,.14-.07.17.17,0,0,1,.16.16.1.1,0,0,1,0,.09,1,1,0,0,1-.36.23,1,1,0,0,1-.41.08,1.37,1.37,0,0,1-.45-.1,1.79,1.79,0,0,0-.54-.09,3,3,0,0,0-.46,0c-.25,0-.46.08-.61.12l-.12,0a.15.15,0,0,1-.11,0,.16.16,0,0,1,0-.12.17.17,0,0,1,.09-.14l.71-.51a1.89,1.89,0,0,1-1.09-.78,2.52,2.52,0,0,1-.45-1.51,2.38,2.38,0,0,1,.59-1.68,1.74,1.74,0,0,1,2.71,0,2.67,2.67,0,0,1,0,3.35A1.77,1.77,0,0,1,211.88,176.86Zm-3.26-1.76a1.47,1.47,0,0,0-1.46-1.44,1.45,1.45,0,0,0-1.45,1.44,1.43,1.43,0,0,0,1.45,1.44,1.4,1.4,0,0,0,1-.42A1.36,1.36,0,0,0,208.62,175.1Zm.33,0a1.68,1.68,0,0,1-.52,1.25,1.75,1.75,0,0,1-1.27.51,1.76,1.76,0,1,1,0-3.52,1.72,1.72,0,0,1,1.27.52A1.64,1.64,0,0,1,209,175.1Zm-6.66-1.32v2.64h1.4a.22.22,0,0,1,.16,0,.17.17,0,0,1,.05.12.18.18,0,0,1-.05.12.28.28,0,0,1-.16,0H201.2a.35.35,0,0,1-.17,0,.17.17,0,0,1,0-.12.16.16,0,0,1,0-.12.27.27,0,0,1,.17,0H202v-2.64h-.7a.23.23,0,0,1-.16-.05.17.17,0,0,1-.05-.12.16.16,0,0,1,.05-.11.23.23,0,0,1,.16-.05h.7V173a.94.94,0,0,1,.32-.7,1.29,1.29,0,0,1,.87-.29,6.58,6.58,0,0,1,1,.07c.14,0,.21,0,.23.08a.13.13,0,0,1,.05.11.14.14,0,0,1-.05.11.15.15,0,0,1-.12.05h-.1a6.34,6.34,0,0,0-1-.09.92.92,0,0,0-.65.21.6.6,0,0,0-.22.46v.48h1.49a.25.25,0,0,1,.17.05.16.16,0,0,1,.05.11.17.17,0,0,1-.05.12.25.25,0,0,1-.17.05ZM199,175.47a1,1,0,0,0-.33-.73,1.14,1.14,0,0,0-.82-.32,1.17,1.17,0,0,0-.82.32,1,1,0,0,0-.32.72,1,1,0,0,0,.33.76,1.23,1.23,0,0,0,1.63,0A1,1,0,0,0,199,175.47Zm-.09-2.29a.91.91,0,0,0-.31-.7,1,1,0,0,0-.75-.3,1,1,0,0,0-.75.3.94.94,0,0,0-.3.7.88.88,0,0,0,.3.65,1.08,1.08,0,0,0,.75.28,1,1,0,0,0,.75-.28A.86.86,0,0,0,198.89,173.18Zm-.4,1.09a1.39,1.39,0,0,1,.6.51,1.26,1.26,0,0,1,.2.68,1.32,1.32,0,0,1-.43,1,1.43,1.43,0,0,1-1,.41,1.48,1.48,0,0,1-1-.41,1.35,1.35,0,0,1-.42-1,1.26,1.26,0,0,1,.2-.68,1.51,1.51,0,0,1,.62-.51,1.75,1.75,0,0,1-.51-.43,1.12,1.12,0,0,1-.22-.67,1.27,1.27,0,0,1,.4-.92,1.34,1.34,0,0,1,1-.39,1.33,1.33,0,0,1,1,.39,1.21,1.21,0,0,1,.41.92,1.06,1.06,0,0,1-.22.67A1.57,1.57,0,0,1,198.49,174.27Zm-3.87.83a1.47,1.47,0,0,0-1.46-1.44,1.45,1.45,0,0,0-1.45,1.44,1.43,1.43,0,0,0,1.45,1.44,1.4,1.4,0,0,0,1-.42A1.36,1.36,0,0,0,194.62,175.1Zm.34,0a1.66,1.66,0,0,1-.54,1.25,1.71,1.71,0,0,1-1.26.51,1.76,1.76,0,1,1,1.26-3A1.62,1.62,0,0,1,195,175.1Zm-5,0a1.36,1.36,0,0,0-.44-1,1.35,1.35,0,0,0-1-.43,1.4,1.4,0,0,0-1,.43,1.38,1.38,0,0,0-.42,1,1.43,1.43,0,0,0,1.46,1.44A1.47,1.47,0,0,0,190,175.1Zm.33,0a1.69,1.69,0,0,1-.53,1.25,1.74,1.74,0,0,1-1.26.51,1.76,1.76,0,1,1,0-3.52,1.71,1.71,0,0,1,1.26.52A1.65,1.65,0,0,1,190.29,175.1Zm-7.33.15a1.83,1.83,0,0,0,.45,1,1.05,1.05,0,0,0,.73.29.94.94,0,0,0,.72-.33,1.24,1.24,0,0,0,.31-.86,1.14,1.14,0,0,0-.31-.82.91.91,0,0,0-.69-.33,1,1,0,0,0-.7.32A2.32,2.32,0,0,0,183,175.25Zm-.08-.53a2.36,2.36,0,0,1,.61-.64,1.2,1.2,0,0,1,1.6.22,1.47,1.47,0,0,1,.4,1,1.72,1.72,0,0,1-.37,1,1.15,1.15,0,0,1-1,.46,1.32,1.32,0,0,1-.77-.26,1.64,1.64,0,0,1-.57-.78,3.94,3.94,0,0,1-.25-1.45,2.57,2.57,0,0,1,.24-1.11,2.29,2.29,0,0,1,.48-.7,2.59,2.59,0,0,1,.71-.5,2.05,2.05,0,0,1,.88-.19,1,1,0,0,1,.53.13.19.19,0,0,1,.1.15.13.13,0,0,1,0,.11.16.16,0,0,1-.11.05.25.25,0,0,1-.11-.05,1,1,0,0,0-.4-.07,1.8,1.8,0,0,0-1.34.64,2.09,2.09,0,0,0-.61,1.51C182.86,174.41,182.87,174.54,182.88,174.72Zm-2.65.27a1.29,1.29,0,0,0-.38-1,1.29,1.29,0,0,0-1.84,0,1.38,1.38,0,0,0,0,1.9,1.26,1.26,0,0,0,.92.39,1.23,1.23,0,0,0,.92-.39A1.3,1.3,0,0,0,180.23,175Zm0-1v-.58H181a.21.21,0,0,1,.15.05.13.13,0,0,1,.05.11.13.13,0,0,1-.05.12.21.21,0,0,1-.15.05h-.44V177a1.17,1.17,0,0,1-.13.57,1.2,1.2,0,0,1-.31.35,1.76,1.76,0,0,1-.38.25,1.24,1.24,0,0,1-.47.08h-.9a.26.26,0,0,1-.17-.05.16.16,0,0,1,0-.12.19.19,0,0,1,0-.12.27.27,0,0,1,.17,0h.91a.87.87,0,0,0,.5-.15,1.06,1.06,0,0,0,.39-.42,1,1,0,0,0,.07-.4v-1a1.51,1.51,0,0,1-1.31.71,1.56,1.56,0,0,1-1.14-.48,1.66,1.66,0,0,1-.47-1.19,1.62,1.62,0,0,1,.47-1.17,1.56,1.56,0,0,1,1.14-.48A1.54,1.54,0,0,1,180.23,174Zm-4.49-.52a2.23,2.23,0,0,0-.49-1,1,1,0,0,0-.7-.28,1,1,0,0,0-.72.34,1.39,1.39,0,0,0,0,1.75,1,1,0,0,0,.7.33.83.83,0,0,0,.44-.13,1.39,1.39,0,0,0,.42-.36A3.8,3.8,0,0,0,175.74,173.51Zm.07.53a1.93,1.93,0,0,1-.6.66,1.28,1.28,0,0,1-.69.22,1.22,1.22,0,0,1-.63-.19,1.41,1.41,0,0,1-.5-.55,1.78,1.78,0,0,1-.18-.78,1.72,1.72,0,0,1,.36-1.06,1.16,1.16,0,0,1,1-.48,1.23,1.23,0,0,1,.78.27,1.66,1.66,0,0,1,.57.78,4.23,4.23,0,0,1,.25,1.53,2.48,2.48,0,0,1-.22,1.12,2.22,2.22,0,0,1-.42.59,2.47,2.47,0,0,1-.63.47,2.28,2.28,0,0,1-1,.23,1.07,1.07,0,0,1-.55-.12.19.19,0,0,1-.1-.16.14.14,0,0,1,.15-.15.3.3,0,0,1,.13,0,.74.74,0,0,0,.34.07,1.89,1.89,0,0,0,1.39-.58,2,2,0,0,0,.58-1.47C175.82,174.38,175.82,174.23,175.81,174ZM170,171.91v4.51h1.1a.21.21,0,0,1,.15,0,.14.14,0,0,1,.06.12.16.16,0,0,1-.06.12.27.27,0,0,1-.15,0h-2.51a.4.4,0,0,1-.18,0,.17.17,0,0,1,0-.12.16.16,0,0,1,0-.12.3.3,0,0,1,.18,0h1.09v-4.07l-1,.32-.1,0a.16.16,0,0,1-.11,0,.15.15,0,0,1,0-.11.23.23,0,0,1,0-.11l.14-.07Z" transform="translate(-158.99 -144.11)"/>
    <path class="cls-29" d="M238.91,185.61h1.16a1.35,1.35,0,0,0,.75-.25,1.76,1.76,0,0,0,.53-.63,1.68,1.68,0,0,0,.17-.73v-.58a1.47,1.47,0,0,0-.09-.53,2.25,2.25,0,0,0-.39-.64,1.19,1.19,0,0,0-.4-.3,1.26,1.26,0,0,0-.57-.14h-1.16Zm-.32,0v-3.8h-.27a.32.32,0,0,1-.17,0,.17.17,0,0,1-.05-.13.16.16,0,0,1,.05-.11.25.25,0,0,1,.17,0H240a1.6,1.6,0,0,1,.73.16,1.54,1.54,0,0,1,.51.38,2.8,2.8,0,0,1,.47.76,2.1,2.1,0,0,1,.11.7v.44a2.31,2.31,0,0,1-.22.95,2.17,2.17,0,0,1-.72.8,1.52,1.52,0,0,1-.88.25h-1.71a.25.25,0,0,1-.17,0,.17.17,0,0,1-.05-.12.18.18,0,0,1,.05-.12.25.25,0,0,1,.17,0Zm-4.11-1.82h1a1.37,1.37,0,0,0,.66-.16.93.93,0,0,0,.44-.38.87.87,0,0,0,.15-.47.91.91,0,0,0-.32-.67,1.17,1.17,0,0,0-.82-.3h-1.13Zm0,.32v1.5h1.1a.21.21,0,0,1,.15,0,.16.16,0,0,1,.06.12.14.14,0,0,1-.06.12.21.21,0,0,1-.15,0h-1.85a.22.22,0,0,1-.16,0,.17.17,0,0,1,0-.12.18.18,0,0,1,0-.12.22.22,0,0,1,.16,0h.43v-3.8h-.43a.28.28,0,0,1-.16,0,.17.17,0,0,1,0-.13.16.16,0,0,1,0-.11.22.22,0,0,1,.16,0h1.86a1.47,1.47,0,0,1,1.06.39,1.18,1.18,0,0,1,.42.9,1.25,1.25,0,0,1-.13.56,1.11,1.11,0,0,1-.32.38,1.81,1.81,0,0,1-.6.31,1.71,1.71,0,0,1-.54.08Zm-5,1.5h1.62a1,1,0,0,0,.53-.13,1,1,0,0,0,.34-.35.78.78,0,0,0,.12-.41.76.76,0,0,0-.16-.47,1,1,0,0,0-.48-.34,2.25,2.25,0,0,0-.82-.12h-1.15Zm0-2.14h1.13a1.59,1.59,0,0,0,.66-.14.73.73,0,0,0,.36-.31.7.7,0,0,0,.13-.4.74.74,0,0,0-.29-.56,1,1,0,0,0-.73-.25h-1.26Zm-.32,2.14v-3.8h-.43a.31.31,0,0,1-.16,0,.17.17,0,0,1-.05-.13.16.16,0,0,1,.05-.11.24.24,0,0,1,.16,0h2a1.33,1.33,0,0,1,1,.34,1.07,1.07,0,0,1,.38.81,1.1,1.1,0,0,1-.62,1,1.62,1.62,0,0,1,.73.47,1,1,0,0,1,.23.66,1.17,1.17,0,0,1-.15.58,1.29,1.29,0,0,1-.48.44,1.24,1.24,0,0,1-.67.19h-2.39a.24.24,0,0,1-.16,0,.17.17,0,0,1-.05-.12.18.18,0,0,1,.05-.12.24.24,0,0,1,.16,0Zm-4.34-2h.87a1.79,1.79,0,0,0,.75-.15,1.24,1.24,0,0,0,.5-.36.72.72,0,0,0,.15-.42.82.82,0,0,0-.32-.6,1.12,1.12,0,0,0-.78-.29H224.8Zm0,.32v1.66h.59a.22.22,0,0,1,.16,0,.18.18,0,0,1,0,.12.17.17,0,0,1,0,.12.22.22,0,0,1-.16,0h-1.33a.3.3,0,0,1-.18,0,.16.16,0,0,1,0-.12.17.17,0,0,1,0-.12.3.3,0,0,1,.18,0h.42v-3.8h-.42a.4.4,0,0,1-.18,0,.17.17,0,0,1,0-.13.15.15,0,0,1,0-.11.3.3,0,0,1,.18,0H226a1.41,1.41,0,0,1,1,.37,1.14,1.14,0,0,1,.41.86,1,1,0,0,1-.25.65,1.94,1.94,0,0,1-.84.5,2.66,2.66,0,0,1,.58.52,10.89,10.89,0,0,1,.78,1.22h.24a.21.21,0,0,1,.15,0,.16.16,0,0,1,.06.12.14.14,0,0,1-.06.12.21.21,0,0,1-.15,0h-.42a8,8,0,0,0-.93-1.41,2.14,2.14,0,0,0-.74-.57Zm-4.66-1.31v.48a2.18,2.18,0,0,1,.6-.46,1.36,1.36,0,0,1,.61-.13,1.47,1.47,0,0,1,.67.15,1,1,0,0,1,.37.38.92.92,0,0,1,.18.54v2h.28a.21.21,0,0,1,.15,0,.16.16,0,0,1,.06.12.14.14,0,0,1-.06.12.21.21,0,0,1-.15,0H222a.24.24,0,0,1-.16,0,.17.17,0,0,1,0-.12.18.18,0,0,1,0-.12.24.24,0,0,1,.16,0h.27v-2a.76.76,0,0,0-.24-.57.93.93,0,0,0-.67-.23,1.08,1.08,0,0,0-.54.13,2.89,2.89,0,0,0-.66.63v2h.36a.22.22,0,0,1,.16,0,.15.15,0,0,1,.05.12.13.13,0,0,1-.05.12.22.22,0,0,1-.16,0h-1a.27.27,0,0,1-.17,0,.17.17,0,0,1,0-.12.18.18,0,0,1,0-.12.27.27,0,0,1,.17,0h.36V183h-.27a.25.25,0,0,1-.17-.05.17.17,0,0,1,0-.12.16.16,0,0,1,0-.11.25.25,0,0,1,.17-.05ZM217.9,184a1.37,1.37,0,0,0-.49-.86,1.52,1.52,0,0,0-1-.33,1.47,1.47,0,0,0-1,.33,1.36,1.36,0,0,0-.49.86Zm.32.32H215a1.56,1.56,0,0,0,.51,1,1.64,1.64,0,0,0,1.09.37,2.89,2.89,0,0,0,.74-.11,1.91,1.91,0,0,0,.64-.31.22.22,0,0,1,.12-.06.13.13,0,0,1,.11.05.15.15,0,0,1,0,.11.13.13,0,0,1,0,.12,1.89,1.89,0,0,1-.65.36,2.83,2.83,0,0,1-.95.16,1.92,1.92,0,0,1-1.38-.53,1.78,1.78,0,0,1-.55-1.3,1.63,1.63,0,0,1,.51-1.2,1.8,1.8,0,0,1,1.28-.49,1.75,1.75,0,0,1,1.29.5A1.81,1.81,0,0,1,218.22,184.36Zm-5-2.44v-.22a.22.22,0,0,1,0-.16.17.17,0,0,1,.12,0,.14.14,0,0,1,.11,0,.22.22,0,0,1,.05.16v.88a.3.3,0,0,1-.05.18.14.14,0,0,1-.11,0,.15.15,0,0,1-.11,0,.25.25,0,0,1,0-.16.75.75,0,0,0-.35-.56,1.57,1.57,0,0,0-1-.34,1.53,1.53,0,0,0-.7.16,1.31,1.31,0,0,0-.38.29,2.48,2.48,0,0,0-.4.66,1.64,1.64,0,0,0-.1.6V184a1.71,1.71,0,0,0,.51,1.23,1.61,1.61,0,0,0,1.2.52,1.46,1.46,0,0,0,.73-.18,1.94,1.94,0,0,0,.63-.54.17.17,0,0,1,.14-.07.12.12,0,0,1,.11,0,.16.16,0,0,1,.05.11c0,.06-.06.15-.17.27a2.1,2.1,0,0,1-.69.51,1.86,1.86,0,0,1-.79.18,2,2,0,0,1-.71-.13,2.35,2.35,0,0,1-.45-.23,3.54,3.54,0,0,1-.44-.47,2.26,2.26,0,0,1-.35-.59A2,2,0,0,1,210,184v-.65a2.13,2.13,0,0,1,.24-1,1.78,1.78,0,0,1,.7-.76,1.86,1.86,0,0,1,.95-.26A1.94,1.94,0,0,1,213.24,181.92Zm-5,2.27a1.3,1.3,0,0,0-.39-1,1.26,1.26,0,0,0-.92-.38,1.2,1.2,0,0,0-.91.4,1.26,1.26,0,0,0-.39.94,1.34,1.34,0,0,0,.39,1,1.29,1.29,0,0,0,1.83,0A1.34,1.34,0,0,0,208.24,184.19Zm0-1v-.58H209a.21.21,0,0,1,.15.05.14.14,0,0,1,.06.11.14.14,0,0,1-.06.12.21.21,0,0,1-.15.05h-.43v3.18a1.37,1.37,0,0,1-.13.58,1.34,1.34,0,0,1-.31.34,1.48,1.48,0,0,1-.39.25,1.19,1.19,0,0,1-.46.08h-.91a.29.29,0,0,1-.17,0,.17.17,0,0,1,0-.13.19.19,0,0,1,0-.12.29.29,0,0,1,.17,0h.92a.84.84,0,0,0,.49-.15,1,1,0,0,0,.39-.41,1,1,0,0,0,.08-.41v-1a1.56,1.56,0,0,1-1.32.7,1.52,1.52,0,0,1-1.13-.48,1.65,1.65,0,0,1-.48-1.18,1.63,1.63,0,0,1,.48-1.18,1.52,1.52,0,0,1,1.13-.48A1.57,1.57,0,0,1,208.24,183.22Zm-4.64,2.71h-.39l-.71-2-.7,2h-.39l-.66-3h-.15a.3.3,0,0,1-.18-.05.16.16,0,0,1,0-.12.15.15,0,0,1,0-.11.3.3,0,0,1,.18-.05h.87a.23.23,0,0,1,.16.05.16.16,0,0,1,.05.11.17.17,0,0,1-.05.12.23.23,0,0,1-.16.05h-.41l.57,2.52.68-2h.38l.7,2,.55-2.52h-.41a.26.26,0,0,1-.17-.05.16.16,0,0,1,0-.12.15.15,0,0,1,0-.11.26.26,0,0,1,.17-.05h.87a.2.2,0,0,1,.16.05.14.14,0,0,1,.06.11.14.14,0,0,1-.06.12.2.2,0,0,1-.16.05h-.14Zm-4.2,0H199l-2.35-4v3.66h.58c.09,0,.14,0,.17,0a.15.15,0,0,1,.05.12.13.13,0,0,1-.05.12s-.08,0-.17,0h-1.17a.25.25,0,0,1-.17,0,.17.17,0,0,1,0-.12.18.18,0,0,1,0-.12.25.25,0,0,1,.17,0h.27v-3.8h-.43a.35.35,0,0,1-.17,0,.17.17,0,0,1,0-.13.15.15,0,0,1,0-.11.27.27,0,0,1,.17,0h.84l2.35,4v-3.66h-.59a.32.32,0,0,1-.17,0,.17.17,0,0,1,0-.13.16.16,0,0,1,0-.11.25.25,0,0,1,.17,0h1.18a.21.21,0,0,1,.15,0,.14.14,0,0,1,.06.11.15.15,0,0,1-.06.13.27.27,0,0,1-.15,0h-.27Zm-7-2.14v1.82h1.1a.21.21,0,0,1,.15,0,.16.16,0,0,1,.06.12.14.14,0,0,1-.06.12.21.21,0,0,1-.15,0h-1.85a.24.24,0,0,1-.16,0,.17.17,0,0,1-.05-.12.18.18,0,0,1,.05-.12.24.24,0,0,1,.16,0h.43v-3.8h-.43a.31.31,0,0,1-.16,0,.17.17,0,0,1,0-.25.28.28,0,0,1,.15,0h3.51v1.09a.27.27,0,0,1,0,.17.16.16,0,0,1-.12,0,.15.15,0,0,1-.11,0,.26.26,0,0,1,0-.17v-.77H192.4v1.66h1.14v-.37a.27.27,0,0,1,0-.15.15.15,0,0,1,.13-.06.14.14,0,0,1,.11.06.21.21,0,0,1,0,.15v1a.3.3,0,0,1,0,.18.15.15,0,0,1-.11,0,.17.17,0,0,1-.13,0,.4.4,0,0,1,0-.18v-.35Zm-4.54.72v1.42h-.76a.25.25,0,0,1-.16,0,.16.16,0,0,1,0-.12.17.17,0,0,1,0-.12.25.25,0,0,1,.16,0h.44v-4.12h-.44a.34.34,0,0,1-.16,0,.17.17,0,0,1,0-.13.15.15,0,0,1,0-.11.25.25,0,0,1,.16,0h.76v2.94L189.2,183h-.15a.3.3,0,0,1-.18-.05.16.16,0,0,1,0-.12.15.15,0,0,1,0-.11.3.3,0,0,1,.18-.05h1a.22.22,0,0,1,.16.05.14.14,0,0,1,.06.11.14.14,0,0,1-.06.12.22.22,0,0,1-.16.05h-.37l-1.25,1,1.58,1.6h.37a.22.22,0,0,1,.16,0,.16.16,0,0,1,.06.12.14.14,0,0,1-.06.12.22.22,0,0,1-.16,0h-1a.27.27,0,0,1-.17,0,.16.16,0,0,1,0-.12.17.17,0,0,1,0-.12.27.27,0,0,1,.17,0h.23l-1.37-1.4Zm-4.58-2.7v3.8h2.12v-1.27c0-.07,0-.13,0-.15a.14.14,0,0,1,.12-.06.11.11,0,0,1,.11.06.19.19,0,0,1,.05.15v1.59H182.2a.27.27,0,0,1-.17,0,.16.16,0,0,1,0-.12.17.17,0,0,1,0-.12.27.27,0,0,1,.17,0H183v-3.8h-.76a.35.35,0,0,1-.17,0,.17.17,0,0,1,0-.13.15.15,0,0,1,0-.11.27.27,0,0,1,.17,0H184c.07,0,.13,0,.15,0a.14.14,0,0,1,.06.11.15.15,0,0,1-.06.13.25.25,0,0,1-.15,0Zm-2.55,2.48a1.39,1.39,0,0,0-.42-1,1.29,1.29,0,0,0-1-.42,1.33,1.33,0,0,0-1,.42,1.47,1.47,0,0,0,0,2,1.33,1.33,0,0,0,1,.42,1.29,1.29,0,0,0,1-.42A1.39,1.39,0,0,0,180.73,184.29ZM178,181.17v2.11a1.74,1.74,0,0,1,1.4-.75,1.62,1.62,0,0,1,1.19.5,1.71,1.71,0,0,1,.5,1.24,1.73,1.73,0,0,1-.51,1.27,1.58,1.58,0,0,1-1.18.51,1.7,1.7,0,0,1-1.4-.75v.63h-.74a.3.3,0,0,1-.18,0,.16.16,0,0,1,0-.12.17.17,0,0,1,0-.12.3.3,0,0,1,.18,0h.43v-4.12h-.43a.4.4,0,0,1-.18,0,.17.17,0,0,1,0-.13.15.15,0,0,1,0-.11.3.3,0,0,1,.18,0Zm-4.83,4.44h2.45v-.12a.25.25,0,0,1,0-.17.15.15,0,0,1,.11,0,.16.16,0,0,1,.12,0,.25.25,0,0,1,.05.17v.44h-3.08v-.47c.64-.59,1.27-1.18,1.89-1.78.28-.28.48-.49.58-.61a1.09,1.09,0,0,0,.22-.35.89.89,0,0,0,.06-.3,1,1,0,0,0-.33-.73,1.07,1.07,0,0,0-.8-.32,1.19,1.19,0,0,0-.74.24,1.14,1.14,0,0,0-.42.6.19.19,0,0,1-.05.11.14.14,0,0,1-.1,0,.12.12,0,0,1-.11,0,.16.16,0,0,1-.05-.11,1.06,1.06,0,0,1,.2-.49,1.46,1.46,0,0,1,.55-.49,1.6,1.6,0,0,1,.72-.18,1.43,1.43,0,0,1,1,.42,1.24,1.24,0,0,1,.43.94,1.06,1.06,0,0,1-.08.4,1.24,1.24,0,0,1-.24.4c-.12.14-.33.36-.62.66-.75.74-1.36,1.31-1.83,1.72Zm-2.22-1.83H168.8v1.83h.42a.25.25,0,0,1,.17,0,.18.18,0,0,1,.05.12.17.17,0,0,1-.05.12.25.25,0,0,1-.17,0h-1.1a.27.27,0,0,1-.17,0,.16.16,0,0,1,0-.12.17.17,0,0,1,0-.12.27.27,0,0,1,.17,0h.36v-3.8h-.2a.32.32,0,0,1-.17,0,.17.17,0,0,1-.05-.13.16.16,0,0,1,.05-.11.25.25,0,0,1,.17,0h.94a.25.25,0,0,1,.17,0,.16.16,0,0,1,.05.11.17.17,0,0,1-.05.13.32.32,0,0,1-.17,0h-.42v1.66h2.11v-1.66h-.42a.32.32,0,0,1-.17,0,.14.14,0,0,1,0-.13.13.13,0,0,1,0-.11.25.25,0,0,1,.17,0h.94a.25.25,0,0,1,.17,0,.16.16,0,0,1,.05.11.17.17,0,0,1-.05.13.32.32,0,0,1-.17,0h-.2v3.8h.37a.21.21,0,0,1,.15,0,.16.16,0,0,1,.06.12.14.14,0,0,1-.06.12.21.21,0,0,1-.15,0h-1.11a.25.25,0,0,1-.17,0,.13.13,0,0,1,0-.12.15.15,0,0,1,0-.12.25.25,0,0,1,.17,0h.42Z" transform="translate(-158.99 -144.11)"/>
    <text class="cls-24" transform="translate(108.65 7.57)">Nicht Neues in<tspan x="0" y="9.5">der Mail an Lisa</tspan></text>
    <text class="cls-24" transform="translate(7.99 7.57)">Johns Cookie<tspan class="cls-30" x="0" y="9.5">T</tspan><tspan x="3.44" y="9.5">oken Adresse</tspan></text>
    <path d="M210.5,208.24a24.39,24.39,0,0,1,.85-2.33h-2.9c.13.28.57,1.38.87,2.33a17.55,17.55,0,0,1,.6,2.54A16.76,16.76,0,0,1,210.5,208.24Z" transform="translate(-158.99 -144.11)"/>
    <line class="cls-17" x1="50.91" y1="62.42" x2="50.91" y2="44.89"/>
    <rect class="cls-31" x="14.53" y="66.93" width="72.75" height="25.69"/>
    <text class="cls-32" transform="translate(29.89 77.86)">Base58check<tspan x="1.17" y="9">Decodierung</tspan></text>
    <path class="cls-33" d="M252.06,204.75a10.22,10.22,0,1,1-13.88-4,10.22,10.22,0,0,1,13.88,4" transform="translate(-158.99 -144.11)"/>
    <path class="cls-3" d="M236.69,212.47c-1.15-2.27-1.89-4,.72-5.46s3.7.12,5,2.31l.68,1.24c1.29,2.34,2,4.14-.63,5.62s-3.79-.13-5.08-2.47l-.69-1.24m2.82,1.13c.4.73,1.11,1.87,2.23,1.26s.51-1.85,0-2.69l-1.23-2.24c-.39-.7-1.21-2.27-2.42-1.6s-.34,2.17,0,2.85Z" transform="translate(-158.99 -144.11)"/>
    <path class="cls-3" d="M246.7,213.56l-4.82-8.74,1.63-.9,2.14,3.88h0a19.81,19.81,0,0,1-.12-2.67l0-2.31,1.84-1-.09,4.94,5,3.75-1.85,1L247,208.9l-.05,1.26,1.38,2.51-1.63.89" transform="translate(-158.99 -144.11)"/>
    <path d="M305,223.29c-1-.29-1.57-.55-2.34-.85v2.9a22.43,22.43,0,0,1,2.33-.87,17.55,17.55,0,0,1,2.54-.6A16.76,16.76,0,0,1,305,223.29Z" transform="translate(-158.99 -144.11)"/>
    <line class="cls-17" x1="144.27" y1="79.78" x2="87.38" y2="79.78"/>
    <text class="cls-34" transform="translate(150.29 76.87)">5f2613791b36f667fdb8<tspan x="0" y="9.5">e95608b55e3df4c5f9eb</tspan></text>
    <text class="cls-35" transform="translate(148.67 52.47)">Lisa, bitte bewege 20CT<tspan x="0" y="8.4">zum public Key Hash</tspan><tspan x="0" y="50.4">vom public Key</tspan></text>
    <text class="cls-36" transform="translate(148.83 39.47)">Nachricht:</text>
  </g>
</svg>
