<?xml version="1.0" encoding="UTF-8" standalone="no"?>
<svg
   xmlns:dc="http://purl.org/dc/elements/1.1/"
   xmlns:cc="http://creativecommons.org/ns#"
   xmlns:rdf="http://www.w3.org/1999/02/22-rdf-syntax-ns#"
   xmlns:svg="http://www.w3.org/2000/svg"
   xmlns="http://www.w3.org/2000/svg"
   xmlns:sodipodi="http://sodipodi.sourceforge.net/DTD/sodipodi-0.dtd"
   xmlns:inkscape="http://www.inkscape.org/namespaces/inkscape"
   version="1.1"
   id="svg2"
   xml:space="preserve"
   width="240.91653"
   height="192.36974"
   viewBox="0 0 240.91653 192.36974"
   sodipodi:docname="03-12.ai"><metadata
     id="metadata8"><rdf:RDF><cc:Work
         rdf:about=""><dc:format>image/svg+xml</dc:format><dc:type
           rdf:resource="http://purl.org/dc/dcmitype/StillImage" /></cc:Work></rdf:RDF></metadata><defs
     id="defs6"><clipPath
       clipPathUnits="userSpaceOnUse"
       id="clipPath18"><path
         d="M 0,792 H 612 V 0 H 0 Z"
         id="path16" /></clipPath></defs><sodipodi:namedview
     pagecolor="#ffffff"
     bordercolor="#666666"
     borderopacity="1"
     objecttolerance="10"
     gridtolerance="10"
     guidetolerance="10"
     inkscape:pageopacity="0"
     inkscape:pageshadow="2"
     inkscape:window-width="640"
     inkscape:window-height="480"
     id="namedview4" /><g
     id="g10"
     inkscape:groupmode="layer"
     inkscape:label="03-12"
     transform="matrix(1.3333333,0,0,-1.3333333,-284.30626,888.88971)"><g
       id="g12"><g
         id="g14"
         clip-path="url(#clipPath18)"><g
           id="g20"
           transform="translate(296.8799,587.5854)"><path
             d="m 0,0 c 0.283,0.951 0.547,1.57 0.85,2.334 l -2.903,-0.01 c 0.131,-0.271 0.576,-1.379 0.867,-2.326 0.313,-1.018 0.524,-1.939 0.602,-2.537 0.072,0.6 0.281,1.523 0.584,2.539"
             style="fill:#231f20;fill-opacity:1;fill-rule:nonzero;stroke:none"
             id="path22" /></g><g
           id="g24"
           transform="translate(296.2783,589.2905)"><path
             d="M 0,0 V 19.217"
             style="fill:none;stroke:#231f20;stroke-width:0.5;stroke-linecap:butt;stroke-linejoin:miter;stroke-miterlimit:4;stroke-dasharray:none;stroke-opacity:1"
             id="path26" /></g><path
           d="m 326.288,634.197 h -60.02 v -25.693 h 60.02 z"
           style="fill:#cce4f2;fill-opacity:1;fill-rule:nonzero;stroke:#231f20;stroke-width:0.5;stroke-linecap:butt;stroke-linejoin:round;stroke-miterlimit:10;stroke-dasharray:none;stroke-opacity:1"
           id="path28" /><text
           transform="matrix(1,0,0,-1,275.2646,623.2656)"
           style="font-variant:normal;font-weight:normal;font-stretch:normal;font-size:7px;font-family:Arial;-inkscape-font-specification:ArialMT;writing-mode:lr-tb;fill:#231f20;fill-opacity:1;fill-rule:nonzero;stroke:none"
           id="text34"><tspan
             x="0 4.6690001 8.5609999 12.061 15.953 19.844999 23.737 27.237 31.136 35.028 38.528"
             y="0"
             sodipodi:role="line"
             id="tspan30">Base58check</tspan><tspan
             x="4.8649998 9.9189997 13.811 17.702999 19.257 23.149 25.48 29.379 33.271"
             y="9.0019999"
             sodipodi:role="line"
             id="tspan32">Codierung</tspan></text><g
           id="g36"
           transform="translate(296.8799,551.1069)"><path
             d="m 0,0 c 0.283,0.951 0.547,1.57 0.85,2.334 l -2.903,-0.01 c 0.131,-0.271 0.576,-1.379 0.867,-2.326 0.313,-1.018 0.524,-1.939 0.602,-2.537 0.072,0.6 0.281,1.523 0.584,2.539"
             style="fill:#231f20;fill-opacity:1;fill-rule:nonzero;stroke:none"
             id="path38" /></g><g
           id="g40"
           transform="translate(296.2783,552.812)"><path
             d="M 0,0 V 13.241"
             style="fill:none;stroke:#231f20;stroke-width:0.5;stroke-linecap:butt;stroke-linejoin:miter;stroke-miterlimit:4;stroke-dasharray:none;stroke-opacity:1"
             id="path42" /></g><g
           id="g44"
           transform="translate(353.333,658.3984)"><path
             d="M 0,0 C 0.951,-0.283 1.57,-0.547 2.334,-0.85 L 2.324,2.053 C 2.053,1.922 0.945,1.477 -0.002,1.186 -1.02,0.873 -1.941,0.662 -2.539,0.584 -1.939,0.512 -1.016,0.303 0,0"
             style="fill:#231f20;fill-opacity:1;fill-rule:nonzero;stroke:none"
             id="path46" /></g><g
           id="g48"
           transform="translate(355.0381,659)"><path
             d="M 0,0 H 38.629 V -123.513 H -28.776"
             style="fill:none;stroke:#231f20;stroke-width:0.5;stroke-linecap:butt;stroke-linejoin:miter;stroke-miterlimit:4;stroke-dasharray:none;stroke-opacity:1"
             id="path50" /></g><path
           d="m 326.288,548.333 h -60.02 V 522.64 h 60.02 z"
           style="fill:#cce4f2;fill-opacity:1;fill-rule:nonzero;stroke:#231f20;stroke-width:0.5;stroke-linecap:butt;stroke-linejoin:round;stroke-miterlimit:10;stroke-dasharray:none;stroke-opacity:1"
           id="path52" /><text
           transform="matrix(1,0,0,-1,275.2646,537.4023)"
           style="font-variant:normal;font-weight:normal;font-stretch:normal;font-size:7px;font-family:Arial;-inkscape-font-specification:ArialMT;writing-mode:lr-tb;fill:#231f20;fill-opacity:1;fill-rule:nonzero;stroke:none"
           id="text58"><tspan
             x="0 4.6690001 8.5609999 12.061 15.953 19.844999 23.737 27.237 31.136 35.028 38.528"
             y="0"
             sodipodi:role="line"
             id="tspan54">Base58check</tspan><tspan
             x="1.169 6.223 10.115 13.615 17.507 21.399 22.959999 26.851999 29.183001 33.075001 36.966999"
             y="9.0019999"
             sodipodi:role="line"
             id="tspan56">Decodierung</tspan></text><g
           id="g60"
           transform="translate(215.5137,579.688)"><path
             d="m 0,0 v -4.651 h 0.856 c 0.206,0 0.35,-0.038 0.435,-0.117 0.089,-0.08 0.132,-0.183 0.132,-0.308 0,-0.125 -0.043,-0.227 -0.132,-0.306 -0.085,-0.08 -0.229,-0.119 -0.435,-0.119 h -2.568 c -0.205,0 -0.351,0.039 -0.441,0.119 -0.083,0.079 -0.124,0.181 -0.124,0.306 0,0.125 0.041,0.228 0.124,0.308 0.09,0.079 0.236,0.117 0.441,0.117 h 0.858 v 3.541 l -0.752,-0.197 c -0.127,-0.031 -0.219,-0.05 -0.28,-0.05 -0.108,0 -0.2,0.044 -0.28,0.128 -0.079,0.088 -0.118,0.192 -0.118,0.312 0,0.117 0.027,0.208 0.084,0.274 0.061,0.065 0.184,0.122 0.37,0.168 z M 5.76,-3.276 C 5.547,-3.458 5.351,-3.584 5.175,-3.66 4.998,-3.732 4.811,-3.771 4.616,-3.771 c -0.455,0 -0.852,0.183 -1.193,0.545 -0.339,0.364 -0.508,0.816 -0.508,1.36 0,0.426 0.114,0.807 0.346,1.154 C 3.584,-0.238 4.036,0 4.616,0 5.036,0 5.399,-0.127 5.714,-0.378 6.025,-0.63 6.252,-0.989 6.397,-1.46 6.546,-1.93 6.62,-2.422 6.62,-2.932 6.62,-3.798 6.285,-4.494 5.615,-5.02 5.094,-5.425 4.524,-5.628 3.904,-5.628 c -0.339,0 -0.605,0.071 -0.795,0.209 -0.125,0.089 -0.189,0.211 -0.189,0.363 0,0.123 0.039,0.222 0.119,0.3 0.085,0.086 0.185,0.127 0.299,0.127 0.071,0 0.146,-0.022 0.224,-0.062 0.113,-0.057 0.226,-0.085 0.342,-0.085 0.43,0 0.824,0.144 1.187,0.434 0.364,0.292 0.587,0.65 0.669,1.066 M 5.643,-1.935 C 5.549,-1.54 5.415,-1.26 5.238,-1.098 5.06,-0.933 4.857,-0.853 4.624,-0.853 4.387,-0.853 4.18,-0.946 4.009,-1.131 3.841,-1.313 3.757,-1.556 3.757,-1.858 c 0,-0.316 0.084,-0.574 0.252,-0.775 0.171,-0.195 0.368,-0.294 0.586,-0.294 0.387,0 0.736,0.331 1.048,0.992 m 4.862,-0.056 v 0.252 h 0.993 c 0.203,0 0.35,-0.04 0.44,-0.119 0.085,-0.079 0.131,-0.182 0.131,-0.308 0,-0.124 -0.046,-0.227 -0.131,-0.306 -0.09,-0.079 -0.237,-0.119 -0.44,-0.119 H 11.35 v -3.092 c 0,-0.298 -0.063,-0.557 -0.188,-0.775 -0.127,-0.223 -0.32,-0.413 -0.581,-0.572 -0.255,-0.163 -0.547,-0.246 -0.872,-0.246 H 8.745 c -0.203,0 -0.351,0.039 -0.44,0.118 -0.084,0.081 -0.124,0.181 -0.124,0.302 0,0.129 0.04,0.234 0.124,0.314 0.089,0.081 0.237,0.119 0.44,0.119 H 9.68 c 0.262,0 0.465,0.07 0.609,0.21 0.144,0.14 0.216,0.315 0.216,0.53 v 0.418 c -0.191,-0.121 -0.383,-0.212 -0.58,-0.273 -0.191,-0.059 -0.387,-0.09 -0.592,-0.09 -0.579,0 -1.062,0.191 -1.453,0.572 -0.39,0.388 -0.587,0.865 -0.587,1.432 0,0.567 0.197,1.044 0.587,1.431 0.391,0.386 0.874,0.58 1.453,0.58 0.214,0 0.418,-0.034 0.615,-0.097 0.194,-0.061 0.381,-0.156 0.557,-0.281 m -0.006,-1.626 c 0,0.311 -0.117,0.58 -0.349,0.81 C 9.921,-2.58 9.647,-2.466 9.324,-2.466 9,-2.466 8.721,-2.58 8.489,-2.807 8.26,-3.037 8.144,-3.306 8.144,-3.617 8.144,-3.933 8.26,-4.206 8.489,-4.433 8.721,-4.661 9,-4.776 9.324,-4.776 c 0.323,0 0.597,0.115 0.826,0.343 0.232,0.227 0.349,0.5 0.349,0.816 m 3.277,1.019 c 0.206,0.167 0.398,0.291 0.578,0.37 0.188,0.079 0.384,0.119 0.594,0.119 0.447,0 0.836,-0.178 1.167,-0.53 0.333,-0.354 0.502,-0.798 0.502,-1.327 0,-0.498 -0.155,-0.901 -0.469,-1.207 -0.305,-0.304 -0.727,-0.455 -1.263,-0.455 -0.441,0 -0.806,0.102 -1.096,0.308 -0.287,0.209 -0.506,0.53 -0.655,0.963 -0.145,0.434 -0.217,0.915 -0.217,1.446 0,0.631 0.146,1.16 0.432,1.577 0.294,0.424 0.636,0.751 1.027,0.984 0.396,0.231 0.81,0.35 1.242,0.35 0.349,0 0.619,-0.069 0.81,-0.202 0.12,-0.095 0.182,-0.21 0.182,-0.351 0,-0.125 -0.043,-0.229 -0.125,-0.313 -0.08,-0.084 -0.178,-0.125 -0.294,-0.125 -0.069,0 -0.165,0.032 -0.286,0.098 -0.074,0.04 -0.148,0.062 -0.217,0.062 -0.27,0 -0.551,-0.079 -0.843,-0.231 -0.289,-0.154 -0.542,-0.391 -0.756,-0.711 -0.144,-0.219 -0.247,-0.495 -0.313,-0.825 m 0.119,-1.32 c 0.088,-0.331 0.207,-0.556 0.356,-0.676 0.153,-0.123 0.371,-0.182 0.648,-0.182 0.28,0 0.494,0.073 0.643,0.216 0.154,0.149 0.231,0.35 0.231,0.601 0,0.289 -0.087,0.528 -0.258,0.719 -0.173,0.19 -0.369,0.287 -0.588,0.287 -0.172,0 -0.355,-0.088 -0.551,-0.259 -0.19,-0.168 -0.352,-0.403 -0.481,-0.706 m 7.884,0.226 c 0,-0.328 -0.09,-0.645 -0.271,-0.95 -0.182,-0.305 -0.451,-0.547 -0.811,-0.727 -0.358,-0.181 -0.73,-0.273 -1.116,-0.273 -0.387,0 -0.757,0.09 -1.111,0.266 -0.352,0.18 -0.623,0.425 -0.809,0.734 -0.185,0.305 -0.28,0.626 -0.28,0.962 0,0.34 0.095,0.672 0.28,0.999 0.19,0.324 0.461,0.58 0.809,0.768 0.354,0.19 0.724,0.287 1.111,0.287 0.386,0 0.758,-0.097 1.116,-0.287 0.36,-0.19 0.629,-0.448 0.811,-0.775 0.181,-0.327 0.271,-0.661 0.271,-1.004 m -0.851,0 c 0,0.273 -0.099,0.524 -0.293,0.752 -0.265,0.307 -0.617,0.46 -1.054,0.46 -0.387,0 -0.709,-0.122 -0.964,-0.368 -0.257,-0.243 -0.385,-0.528 -0.385,-0.852 0,-0.266 0.128,-0.516 0.385,-0.748 0.262,-0.228 0.582,-0.342 0.964,-0.342 0.381,0 0.7,0.114 0.956,0.342 0.261,0.232 0.391,0.485 0.391,0.756 m 5.854,0 c 0,-0.328 -0.091,-0.645 -0.272,-0.95 -0.183,-0.305 -0.454,-0.547 -0.81,-0.727 -0.359,-0.181 -0.73,-0.273 -1.117,-0.273 -0.388,0 -0.757,0.09 -1.11,0.266 -0.354,0.18 -0.623,0.425 -0.81,0.734 -0.187,0.305 -0.28,0.626 -0.28,0.962 0,0.34 0.093,0.672 0.28,0.999 0.191,0.324 0.461,0.58 0.81,0.768 0.353,0.19 0.722,0.287 1.11,0.287 0.387,0 0.758,-0.097 1.117,-0.287 0.356,-0.19 0.627,-0.448 0.81,-0.775 0.181,-0.327 0.272,-0.661 0.272,-1.004 m -0.851,0 c 0,0.273 -0.1,0.524 -0.295,0.752 -0.263,0.307 -0.615,0.46 -1.053,0.46 -0.388,0 -0.708,-0.122 -0.963,-0.368 -0.257,-0.243 -0.385,-0.528 -0.385,-0.852 0,-0.266 0.128,-0.516 0.385,-0.748 0.26,-0.228 0.582,-0.342 0.963,-0.342 0.381,0 0.7,0.114 0.957,0.342 0.259,0.232 0.391,0.485 0.391,0.756 m 4.847,0.905 c 0.219,-0.166 0.381,-0.359 0.488,-0.572 0.113,-0.213 0.169,-0.452 0.169,-0.712 0,-0.284 -0.069,-0.545 -0.211,-0.781 -0.139,-0.238 -0.358,-0.427 -0.657,-0.567 -0.297,-0.138 -0.628,-0.209 -0.99,-0.209 -0.368,0 -0.698,0.071 -0.992,0.209 -0.291,0.14 -0.508,0.329 -0.648,0.567 -0.14,0.242 -0.21,0.502 -0.21,0.781 0,0.26 0.054,0.499 0.161,0.712 0.111,0.213 0.278,0.406 0.495,0.572 -0.189,0.178 -0.335,0.364 -0.433,0.559 -0.092,0.2 -0.139,0.413 -0.139,0.637 0,0.432 0.165,0.804 0.495,1.116 0.331,0.316 0.758,0.475 1.279,0.475 0.514,0 0.939,-0.159 1.27,-0.475 0.334,-0.312 0.503,-0.684 0.503,-1.116 0,-0.224 -0.049,-0.437 -0.148,-0.637 -0.092,-0.201 -0.236,-0.386 -0.432,-0.559 m -0.292,1.181 c 0,0.209 -0.082,0.386 -0.246,0.529 -0.163,0.15 -0.383,0.224 -0.663,0.224 -0.283,0 -0.51,-0.074 -0.677,-0.224 -0.163,-0.143 -0.244,-0.32 -0.244,-0.529 0,-0.214 0.081,-0.395 0.244,-0.544 0.167,-0.15 0.394,-0.224 0.677,-0.224 0.28,0 0.5,0.074 0.663,0.224 0.164,0.149 0.246,0.33 0.246,0.544 m 0.098,-2.5 c 0,0.225 -0.097,0.424 -0.288,0.6 -0.19,0.183 -0.428,0.273 -0.711,0.273 -0.285,0 -0.525,-0.09 -0.72,-0.273 -0.19,-0.176 -0.286,-0.381 -0.286,-0.614 0,-0.177 0.081,-0.331 0.246,-0.46 0.165,-0.131 0.42,-0.196 0.76,-0.196 0.34,0 0.591,0.065 0.753,0.196 0.163,0.129 0.246,0.289 0.246,0.474 m 3.988,1.515 v -2.06 h 1.209 c 0.203,0 0.35,-0.038 0.439,-0.117 0.089,-0.08 0.132,-0.183 0.132,-0.308 0,-0.125 -0.043,-0.227 -0.132,-0.306 -0.089,-0.08 -0.236,-0.119 -0.439,-0.119 h -2.563 c -0.204,0 -0.352,0.039 -0.439,0.119 -0.089,0.079 -0.134,0.181 -0.134,0.306 0,0.125 0.045,0.228 0.134,0.308 0.087,0.079 0.235,0.117 0.439,0.117 h 0.503 v 2.06 h -0.406 c -0.205,0 -0.351,0.04 -0.44,0.119 -0.083,0.079 -0.124,0.182 -0.124,0.314 0,0.12 0.041,0.221 0.124,0.3 0.089,0.079 0.235,0.119 0.44,0.119 h 0.406 v 0.32 c 0,0.373 0.14,0.681 0.419,0.922 0.279,0.247 0.681,0.37 1.207,0.37 0.232,0 0.503,-0.021 0.81,-0.062 0.313,-0.042 0.51,-0.103 0.593,-0.181 0.088,-0.08 0.132,-0.18 0.132,-0.301 0,-0.13 -0.039,-0.239 -0.118,-0.32 -0.073,-0.08 -0.165,-0.119 -0.28,-0.119 -0.054,0 -0.133,0.01 -0.235,0.033 -0.356,0.066 -0.667,0.098 -0.937,0.098 -0.28,0 -0.471,-0.041 -0.579,-0.125 -0.108,-0.084 -0.161,-0.188 -0.161,-0.315 v -0.32 h 1.311 c 0.207,0 0.35,-0.04 0.436,-0.119 0.087,-0.079 0.13,-0.182 0.13,-0.308 0,-0.124 -0.043,-0.227 -0.13,-0.306 -0.086,-0.079 -0.229,-0.119 -0.436,-0.119 z m 7.214,-1.101 c 0,-0.328 -0.09,-0.645 -0.272,-0.95 -0.18,-0.305 -0.45,-0.547 -0.808,-0.727 -0.36,-0.181 -0.73,-0.273 -1.119,-0.273 -0.384,0 -0.754,0.09 -1.109,0.266 -0.353,0.18 -0.624,0.425 -0.811,0.734 -0.184,0.305 -0.279,0.626 -0.279,0.962 0,0.34 0.095,0.672 0.279,0.999 0.192,0.324 0.461,0.58 0.811,0.768 0.355,0.19 0.725,0.287 1.109,0.287 0.389,0 0.759,-0.097 1.119,-0.287 0.358,-0.19 0.628,-0.448 0.808,-0.775 0.182,-0.327 0.272,-0.661 0.272,-1.004 m -0.85,0 c 0,0.273 -0.098,0.524 -0.292,0.752 -0.268,0.307 -0.618,0.46 -1.057,0.46 -0.384,0 -0.707,-0.122 -0.962,-0.368 -0.257,-0.243 -0.384,-0.528 -0.384,-0.852 0,-0.266 0.127,-0.516 0.384,-0.748 0.261,-0.228 0.581,-0.342 0.962,-0.342 0.381,0 0.701,0.114 0.957,0.342 0.261,0.232 0.392,0.485 0.392,0.756 m 3.843,-1.929 -0.021,-0.035 c 0.289,0 0.561,-0.061 0.823,-0.18 0.102,-0.045 0.189,-0.071 0.258,-0.071 0.099,0 0.219,0.048 0.363,0.139 0.145,0.096 0.258,0.14 0.342,0.14 0.122,0 0.223,-0.04 0.301,-0.12 0.084,-0.082 0.126,-0.185 0.126,-0.304 0,-0.147 -0.076,-0.275 -0.232,-0.385 -0.301,-0.214 -0.603,-0.322 -0.906,-0.322 -0.154,0 -0.311,0.03 -0.468,0.092 -0.256,0.1 -0.459,0.154 -0.607,0.154 -0.242,0 -0.608,-0.065 -1.097,-0.189 -0.101,-0.027 -0.182,-0.044 -0.244,-0.044 -0.107,0 -0.201,0.045 -0.286,0.134 -0.08,0.084 -0.12,0.189 -0.12,0.314 0,0.111 0.057,0.22 0.17,0.33 l 0.546,0.522 c -0.455,0.196 -0.821,0.513 -1.106,0.95 -0.28,0.436 -0.418,0.939 -0.418,1.508 0,0.822 0.282,1.492 0.843,2.009 0.456,0.42 0.969,0.629 1.537,0.629 0.567,0 1.077,-0.209 1.529,-0.629 0.568,-0.517 0.85,-1.187 0.85,-2.009 0,-0.709 -0.212,-1.309 -0.641,-1.802 -0.429,-0.492 -0.943,-0.771 -1.542,-0.831 m 1.333,2.633 c 0,0.516 -0.155,0.941 -0.467,1.278 -0.313,0.339 -0.666,0.509 -1.062,0.509 -0.396,0 -0.751,-0.17 -1.067,-0.509 -0.314,-0.341 -0.47,-0.767 -0.47,-1.278 0,-0.518 0.156,-0.945 0.47,-1.284 0.316,-0.337 0.671,-0.504 1.067,-0.504 0.396,0 0.749,0.167 1.062,0.504 0.312,0.339 0.467,0.766 0.467,1.284 M 49,-3.408 v -1.243 h 0.872 c 0.204,0 0.349,-0.038 0.431,-0.117 0.089,-0.08 0.133,-0.183 0.133,-0.308 0,-0.125 -0.044,-0.227 -0.133,-0.306 -0.082,-0.08 -0.227,-0.119 -0.431,-0.119 h -1.85 c -0.207,0 -0.353,0.039 -0.44,0.119 -0.088,0.079 -0.132,0.181 -0.132,0.306 0,0.125 0.044,0.228 0.132,0.308 0.087,0.079 0.233,0.117 0.44,0.117 h 0.132 v 3.323 h -0.132 c -0.207,0 -0.353,0.039 -0.44,0.118 -0.088,0.08 -0.132,0.183 -0.132,0.309 0,0.124 0.044,0.228 0.132,0.307 0.087,0.078 0.233,0.119 0.44,0.119 h 3.999 v -1.298 c 0,-0.206 -0.038,-0.354 -0.119,-0.441 -0.079,-0.085 -0.181,-0.124 -0.307,-0.124 -0.125,0 -0.228,0.039 -0.304,0.124 -0.081,0.087 -0.121,0.235 -0.121,0.441 v 0.445 H 49 v -1.229 h 0.745 c 0,0.219 0.022,0.361 0.064,0.428 0.087,0.133 0.209,0.201 0.363,0.201 0.123,0 0.228,-0.043 0.308,-0.131 0.078,-0.09 0.116,-0.237 0.116,-0.441 v -0.978 c 0,-0.204 -0.038,-0.35 -0.116,-0.44 C 50.4,-4 50.295,-4.042 50.172,-4.042 c -0.154,0 -0.276,0.065 -0.363,0.202 -0.042,0.065 -0.064,0.21 -0.064,0.432 z m 4.868,2.422 v -1.012 c 0.318,0.098 0.602,0.147 0.859,0.147 0.527,0 0.96,-0.179 1.306,-0.538 0.343,-0.352 0.515,-0.811 0.515,-1.374 0,-0.584 -0.174,-1.039 -0.522,-1.369 -0.35,-0.33 -0.886,-0.496 -1.607,-0.496 -0.638,0 -1.141,0.121 -1.508,0.363 -0.216,0.139 -0.328,0.298 -0.328,0.475 0,0.111 0.042,0.21 0.126,0.294 0.088,0.087 0.19,0.132 0.308,0.132 0.092,0 0.195,-0.047 0.307,-0.138 0.115,-0.095 0.236,-0.159 0.363,-0.197 0.177,-0.051 0.402,-0.077 0.678,-0.077 0.514,0 0.865,0.082 1.053,0.245 0.186,0.167 0.279,0.421 0.279,0.76 0,0.33 -0.09,0.592 -0.272,0.783 -0.178,0.19 -0.409,0.286 -0.698,0.286 -0.308,0 -0.658,-0.099 -1.049,-0.295 -0.088,-0.045 -0.164,-0.07 -0.229,-0.07 -0.121,0 -0.223,0.046 -0.306,0.135 -0.08,0.088 -0.118,0.202 -0.118,0.341 v 2.45 h 2.595 c 0.205,0 0.348,-0.039 0.434,-0.119 0.087,-0.078 0.132,-0.181 0.132,-0.307 0,-0.125 -0.045,-0.227 -0.132,-0.307 -0.086,-0.074 -0.229,-0.112 -0.434,-0.112 z m 6.572,-0.041 h -1.013 v 0.9 H 60.44 Z M 60.099,-2.591 H 58.36 c -0.205,0 -0.35,0.04 -0.439,0.119 -0.085,0.079 -0.127,0.182 -0.127,0.314 0,0.12 0.042,0.221 0.127,0.3 0.089,0.079 0.234,0.119 0.439,0.119 h 2.582 v -3.944 c 0,-0.298 -0.061,-0.557 -0.188,-0.775 -0.124,-0.223 -0.317,-0.413 -0.58,-0.572 -0.255,-0.163 -0.545,-0.246 -0.871,-0.246 H 58.34 c -0.206,0 -0.352,0.039 -0.44,0.118 -0.086,0.081 -0.127,0.181 -0.127,0.302 0,0.129 0.041,0.234 0.127,0.314 0.088,0.081 0.234,0.119 0.44,0.119 h 0.934 c 0.261,0 0.464,0.07 0.607,0.21 0.147,0.14 0.218,0.315 0.218,0.53 z m 4.484,0 v -2.06 h 1.209 c 0.204,0 0.351,-0.038 0.44,-0.117 0.088,-0.08 0.132,-0.183 0.132,-0.308 0,-0.125 -0.044,-0.227 -0.132,-0.306 -0.089,-0.08 -0.236,-0.119 -0.44,-0.119 h -2.564 c -0.203,0 -0.35,0.039 -0.44,0.119 -0.086,0.079 -0.132,0.181 -0.132,0.306 0,0.125 0.046,0.228 0.132,0.308 0.09,0.079 0.237,0.117 0.44,0.117 h 0.504 v 2.06 h -0.405 c -0.205,0 -0.351,0.04 -0.439,0.119 -0.083,0.079 -0.126,0.182 -0.126,0.314 0,0.12 0.043,0.221 0.126,0.3 0.088,0.079 0.234,0.119 0.439,0.119 h 0.405 v 0.32 c 0,0.373 0.141,0.681 0.42,0.922 0.279,0.247 0.681,0.37 1.206,0.37 0.234,0 0.503,-0.021 0.809,-0.062 0.315,-0.042 0.51,-0.103 0.596,-0.181 0.088,-0.08 0.131,-0.18 0.131,-0.301 0,-0.13 -0.039,-0.239 -0.119,-0.32 -0.074,-0.08 -0.168,-0.119 -0.278,-0.119 -0.056,0 -0.135,0.01 -0.239,0.033 -0.353,0.066 -0.664,0.098 -0.933,0.098 -0.28,0 -0.473,-0.041 -0.58,-0.125 -0.109,-0.084 -0.162,-0.188 -0.162,-0.315 v -0.32 h 1.312 c 0.207,0 0.351,-0.04 0.434,-0.119 0.088,-0.079 0.133,-0.182 0.133,-0.308 0,-0.124 -0.045,-0.227 -0.133,-0.306 -0.083,-0.079 -0.227,-0.119 -0.434,-0.119 z m 6.978,0 v -3.832 h 0.155 c 0.199,0 0.341,-0.038 0.425,-0.119 0.088,-0.08 0.132,-0.185 0.132,-0.314 0,-0.121 -0.042,-0.221 -0.126,-0.302 -0.083,-0.079 -0.227,-0.118 -0.431,-0.118 h -1.508 c -0.208,0 -0.352,0.039 -0.44,0.118 -0.085,0.081 -0.128,0.181 -0.128,0.302 0,0.129 0.043,0.234 0.128,0.314 0.088,0.081 0.232,0.119 0.44,0.119 h 0.501 v 1.39 c -0.204,-0.127 -0.413,-0.223 -0.627,-0.287 -0.215,-0.066 -0.431,-0.099 -0.651,-0.099 -0.504,0 -0.961,0.154 -1.361,0.461 -0.483,0.364 -0.725,0.828 -0.725,1.39 0,0.507 0.205,0.957 0.614,1.347 0.41,0.395 0.906,0.595 1.486,0.595 0.224,0 0.443,-0.036 0.652,-0.101 0.212,-0.064 0.419,-0.163 0.612,-0.299 v 0.287 h 1.007 c 0.199,0 0.341,-0.04 0.425,-0.119 0.088,-0.079 0.132,-0.182 0.132,-0.308 0,-0.124 -0.042,-0.227 -0.126,-0.306 -0.083,-0.079 -0.227,-0.119 -0.431,-0.119 z m -0.852,-0.985 c 0,0.122 -0.047,0.273 -0.14,0.455 -0.092,0.185 -0.238,0.339 -0.431,0.461 -0.197,0.121 -0.423,0.18 -0.686,0.18 -0.424,0 -0.757,-0.157 -1.004,-0.473 -0.172,-0.22 -0.258,-0.428 -0.258,-0.629 0,-0.229 0.122,-0.449 0.361,-0.664 0.244,-0.213 0.544,-0.32 0.901,-0.32 0.359,0 0.657,0.107 0.895,0.32 0.242,0.215 0.362,0.438 0.362,0.67 m 2.999,-0.133 v -0.942 h 0.308 c 0.203,0 0.347,-0.038 0.434,-0.117 0.086,-0.08 0.132,-0.183 0.132,-0.308 0,-0.125 -0.046,-0.227 -0.132,-0.306 -0.087,-0.08 -0.231,-0.119 -0.434,-0.119 h -1.292 c -0.204,0 -0.351,0.039 -0.44,0.119 -0.084,0.079 -0.125,0.181 -0.125,0.306 0,0.125 0.044,0.228 0.132,0.308 0.089,0.079 0.232,0.117 0.433,0.117 h 0.131 v 3.323 h -0.131 c -0.204,0 -0.351,0.039 -0.44,0.118 -0.084,0.08 -0.125,0.183 -0.125,0.309 0,0.124 0.041,0.228 0.125,0.307 0.089,0.078 0.236,0.119 0.44,0.119 h 1.292 c 0.203,0 0.347,-0.041 0.434,-0.119 0.086,-0.079 0.132,-0.183 0.132,-0.307 0,-0.126 -0.046,-0.229 -0.132,-0.309 -0.087,-0.079 -0.231,-0.118 -0.434,-0.118 h -0.308 v -1.263 l 1.507,1.299 c -0.087,0.063 -0.149,0.125 -0.18,0.182 -0.034,0.055 -0.051,0.122 -0.051,0.2 0,0.131 0.044,0.237 0.127,0.316 0.091,0.078 0.234,0.119 0.441,0.119 h 0.865 c 0.204,0 0.353,-0.041 0.439,-0.119 0.088,-0.079 0.134,-0.183 0.134,-0.307 0,-0.126 -0.046,-0.229 -0.134,-0.309 -0.086,-0.079 -0.221,-0.118 -0.404,-0.118 l -1.53,-1.332 c 0.284,-0.164 0.553,-0.412 0.804,-0.748 0.25,-0.334 0.472,-0.749 0.664,-1.243 h 0.23 c 0.201,0 0.345,-0.038 0.431,-0.117 0.09,-0.08 0.134,-0.183 0.134,-0.308 0,-0.125 -0.044,-0.227 -0.134,-0.306 -0.082,-0.08 -0.228,-0.119 -0.431,-0.119 h -0.776 c -0.176,0.422 -0.369,0.825 -0.579,1.208 -0.169,0.311 -0.328,0.54 -0.481,0.683 -0.153,0.144 -0.339,0.259 -0.553,0.341 z m 7.082,0.433 c -0.214,-0.182 -0.411,-0.308 -0.585,-0.384 -0.179,-0.072 -0.365,-0.111 -0.559,-0.111 -0.458,0 -0.856,0.183 -1.194,0.545 -0.34,0.364 -0.51,0.816 -0.51,1.36 0,0.426 0.117,0.807 0.349,1.154 0.323,0.474 0.774,0.712 1.355,0.712 0.419,0 0.784,-0.127 1.097,-0.378 0.31,-0.252 0.539,-0.611 0.681,-1.082 0.151,-0.47 0.225,-0.962 0.225,-1.472 0,-0.866 -0.334,-1.562 -1.005,-2.088 -0.521,-0.405 -1.091,-0.608 -1.71,-0.608 -0.341,0 -0.607,0.071 -0.796,0.209 -0.125,0.089 -0.19,0.211 -0.19,0.363 0,0.123 0.04,0.222 0.12,0.3 0.085,0.086 0.185,0.127 0.301,0.127 0.068,0 0.145,-0.022 0.222,-0.062 0.113,-0.057 0.226,-0.085 0.343,-0.085 0.429,0 0.822,0.144 1.185,0.434 0.365,0.292 0.589,0.65 0.671,1.066 m -0.118,1.341 c -0.093,0.395 -0.228,0.675 -0.405,0.837 -0.178,0.165 -0.382,0.245 -0.614,0.245 -0.237,0 -0.445,-0.093 -0.615,-0.278 -0.168,-0.182 -0.25,-0.425 -0.25,-0.727 0,-0.316 0.082,-0.574 0.25,-0.775 0.17,-0.195 0.367,-0.294 0.587,-0.294 0.385,0 0.734,0.331 1.047,0.992 m 4.862,-0.056 v 0.252 h 0.993 c 0.202,0 0.349,-0.04 0.438,-0.119 0.088,-0.079 0.132,-0.182 0.132,-0.308 0,-0.124 -0.044,-0.227 -0.132,-0.306 -0.089,-0.079 -0.236,-0.119 -0.438,-0.119 h -0.15 v -3.092 c 0,-0.298 -0.06,-0.557 -0.187,-0.775 -0.127,-0.223 -0.318,-0.413 -0.579,-0.572 -0.256,-0.163 -0.548,-0.246 -0.874,-0.246 h -0.962 c -0.206,0 -0.352,0.039 -0.442,0.118 -0.081,0.081 -0.124,0.181 -0.124,0.302 0,0.129 0.043,0.234 0.124,0.314 0.09,0.081 0.236,0.119 0.442,0.119 h 0.934 c 0.262,0 0.464,0.07 0.61,0.21 0.141,0.14 0.215,0.315 0.215,0.53 v 0.418 c -0.192,-0.121 -0.383,-0.212 -0.58,-0.273 -0.192,-0.059 -0.387,-0.09 -0.592,-0.09 -0.578,0 -1.062,0.191 -1.453,0.572 -0.391,0.388 -0.587,0.865 -0.587,1.432 0,0.567 0.196,1.044 0.587,1.431 0.391,0.386 0.875,0.58 1.453,0.58 0.212,0 0.418,-0.034 0.615,-0.097 0.193,-0.061 0.381,-0.156 0.557,-0.281 m -0.006,-1.626 c 0,0.311 -0.117,0.58 -0.349,0.81 -0.229,0.227 -0.507,0.341 -0.826,0.341 -0.325,0 -0.603,-0.114 -0.836,-0.341 -0.227,-0.23 -0.343,-0.499 -0.343,-0.81 0,-0.316 0.116,-0.589 0.343,-0.816 0.233,-0.228 0.511,-0.343 0.836,-0.343 0.319,0 0.597,0.115 0.826,0.343 0.232,0.227 0.349,0.5 0.349,0.816 m 4.999,0.196 h -1.813 v -1.23 h 0.132 c 0.205,0 0.349,-0.038 0.434,-0.117 0.088,-0.08 0.133,-0.183 0.133,-0.308 0,-0.125 -0.045,-0.227 -0.133,-0.306 -0.085,-0.08 -0.229,-0.119 -0.434,-0.119 h -1.041 c -0.201,0 -0.349,0.039 -0.439,0.119 -0.082,0.079 -0.125,0.181 -0.125,0.306 0,0.154 0.067,0.274 0.203,0.364 0.064,0.042 0.203,0.061 0.418,0.061 v 3.323 c -0.15,0.015 -0.258,0.058 -0.336,0.135 -0.072,0.076 -0.111,0.175 -0.111,0.292 0,0.124 0.041,0.228 0.127,0.307 0.087,0.078 0.234,0.119 0.439,0.119 h 0.865 c 0.205,0 0.349,-0.041 0.434,-0.119 0.088,-0.079 0.133,-0.183 0.133,-0.307 0,-0.126 -0.045,-0.229 -0.133,-0.309 -0.085,-0.079 -0.229,-0.118 -0.434,-0.118 H 88.714 V -2.57 h 1.813 v 1.242 h -0.131 c -0.205,0 -0.353,0.039 -0.441,0.118 -0.082,0.08 -0.123,0.183 -0.123,0.309 0,0.124 0.041,0.228 0.123,0.307 0.088,0.078 0.236,0.119 0.441,0.119 h 0.866 c 0.205,0 0.351,-0.041 0.439,-0.119 0.09,-0.079 0.133,-0.183 0.133,-0.307 0,-0.117 -0.041,-0.216 -0.119,-0.292 -0.072,-0.077 -0.184,-0.12 -0.334,-0.135 v -3.323 c 0.217,0 0.357,-0.019 0.42,-0.061 0.138,-0.09 0.207,-0.21 0.207,-0.364 0,-0.125 -0.043,-0.227 -0.133,-0.306 -0.088,-0.08 -0.232,-0.119 -0.439,-0.119 h -1.04 c -0.205,0 -0.353,0.039 -0.441,0.119 -0.082,0.079 -0.123,0.181 -0.123,0.306 0,0.125 0.043,0.228 0.131,0.308 0.088,0.079 0.23,0.117 0.433,0.117 h 0.131 z m 3.28,-1.23 h 1.863 c 0.101,0.085 0.197,0.126 0.287,0.126 0.129,0 0.232,-0.044 0.309,-0.133 0.076,-0.082 0.115,-0.23 0.115,-0.44 v -0.403 h -3.873 v 0.9 c 1.531,1.261 2.457,2.073 2.779,2.435 0.16,0.187 0.236,0.363 0.236,0.524 0,0.21 -0.091,0.393 -0.271,0.552 -0.184,0.158 -0.424,0.237 -0.727,0.237 -0.302,0 -0.554,-0.087 -0.754,-0.266 -0.107,-0.092 -0.191,-0.232 -0.253,-0.419 -0.039,-0.114 -0.096,-0.2 -0.166,-0.25 -0.065,-0.045 -0.147,-0.07 -0.243,-0.07 -0.119,0 -0.218,0.043 -0.3,0.127 -0.086,0.083 -0.127,0.178 -0.127,0.284 0,0.168 0.076,0.376 0.23,0.624 0.154,0.249 0.377,0.45 0.672,0.6 0.293,0.146 0.611,0.223 0.955,0.223 0.537,0 0.975,-0.163 1.32,-0.49 0.344,-0.326 0.516,-0.72 0.516,-1.18 0,-0.231 -0.049,-0.45 -0.146,-0.648 -0.1,-0.201 -0.334,-0.478 -0.711,-0.831 -0.293,-0.279 -0.864,-0.78 -1.711,-1.502 m 4.722,4.524 v -1.905 c 0.209,0.134 0.422,0.235 0.633,0.301 0.215,0.069 0.432,0.105 0.652,0.105 0.586,0 1.082,-0.205 1.495,-0.61 0.41,-0.403 0.613,-0.894 0.613,-1.473 0,-0.549 -0.197,-1.01 -0.586,-1.381 -0.387,-0.368 -0.9,-0.552 -1.543,-0.552 -0.223,0 -0.441,0.03 -0.65,0.092 -0.209,0.053 -0.413,0.14 -0.614,0.258 v -0.209 h -0.99 c -0.207,0 -0.353,0.039 -0.441,0.119 -0.084,0.079 -0.125,0.181 -0.125,0.306 0,0.125 0.043,0.228 0.131,0.308 0.089,0.079 0.234,0.117 0.435,0.117 h 0.145 v 3.672 h -0.145 c -0.207,0 -0.353,0.041 -0.441,0.119 -0.084,0.08 -0.125,0.183 -0.125,0.314 0,0.123 0.041,0.222 0.125,0.3 0.088,0.079 0.234,0.119 0.441,0.119 z m 2.541,-3.602 c 0,0.349 -0.123,0.646 -0.369,0.887 -0.242,0.242 -0.543,0.362 -0.902,0.362 -0.354,0 -0.654,-0.12 -0.899,-0.362 -0.248,-0.241 -0.371,-0.535 -0.371,-0.879 0,-0.312 0.11,-0.569 0.328,-0.769 0.223,-0.199 0.538,-0.3 0.942,-0.3 0.404,0 0.717,0.101 0.935,0.3 0.225,0.2 0.336,0.453 0.336,0.761 m 3.178,2.401 v -3.323 h 1.838 v 0.802 c 0,0.206 0.037,0.349 0.111,0.435 0.078,0.087 0.184,0.133 0.315,0.133 0.121,0 0.22,-0.046 0.301,-0.133 0.078,-0.086 0.119,-0.229 0.119,-0.435 v -1.652 h -4.024 c -0.203,0 -0.349,0.039 -0.439,0.119 -0.088,0.079 -0.131,0.181 -0.131,0.306 0,0.125 0.043,0.228 0.131,0.308 0.09,0.079 0.236,0.117 0.439,0.117 h 0.49 v 3.323 h -0.49 c -0.203,0 -0.349,0.039 -0.439,0.118 -0.088,0.08 -0.131,0.183 -0.131,0.309 0,0.124 0.043,0.228 0.131,0.307 0.09,0.078 0.236,0.119 0.439,0.119 h 1.838 c 0.203,0 0.352,-0.041 0.438,-0.119 0.089,-0.079 0.132,-0.183 0.132,-0.307 0,-0.126 -0.043,-0.229 -0.132,-0.309 -0.086,-0.079 -0.235,-0.118 -0.438,-0.118 z m 4.662,-2.764 v -1.409 h -1 c -0.203,0 -0.351,0.039 -0.439,0.119 -0.084,0.079 -0.125,0.181 -0.125,0.306 0,0.125 0.045,0.228 0.133,0.308 0.089,0.079 0.23,0.117 0.431,0.117 h 0.149 v 3.672 h -0.149 c -0.203,0 -0.351,0.041 -0.439,0.119 -0.084,0.08 -0.125,0.183 -0.125,0.314 0,0.123 0.041,0.222 0.125,0.3 0.088,0.079 0.236,0.119 0.439,0.119 h 1 v -2.861 l 0.662,0.53 c -0.07,0.12 -0.105,0.219 -0.105,0.292 0,0.126 0.041,0.229 0.125,0.308 0.09,0.079 0.236,0.119 0.439,0.119 h 0.973 c 0.203,0 0.348,-0.04 0.432,-0.119 0.089,-0.079 0.132,-0.182 0.132,-0.308 0,-0.124 -0.043,-0.227 -0.132,-0.306 -0.084,-0.079 -0.229,-0.119 -0.432,-0.119 h -0.236 l -1.038,-0.837 1.391,-1.223 h 0.25 c 0.203,0 0.346,-0.038 0.436,-0.117 0.088,-0.08 0.132,-0.183 0.132,-0.308 0,-0.125 -0.044,-0.227 -0.132,-0.306 -0.09,-0.08 -0.233,-0.119 -0.436,-0.119 h -0.982 c -0.203,0 -0.352,0.039 -0.44,0.119 -0.082,0.079 -0.127,0.181 -0.127,0.306 0,0.107 0.049,0.214 0.139,0.32 l -0.898,0.797 z m 5.111,0.684 v -1.243 h 0.875 c 0.206,0 0.348,-0.038 0.432,-0.117 0.088,-0.08 0.133,-0.183 0.133,-0.308 0,-0.125 -0.045,-0.227 -0.133,-0.306 -0.084,-0.08 -0.226,-0.119 -0.432,-0.119 h -1.849 c -0.205,0 -0.354,0.039 -0.442,0.119 -0.087,0.079 -0.132,0.181 -0.132,0.306 0,0.125 0.045,0.228 0.132,0.308 0.088,0.079 0.237,0.117 0.442,0.117 h 0.129 v 3.323 h -0.129 c -0.205,0 -0.354,0.039 -0.442,0.118 -0.087,0.08 -0.132,0.183 -0.132,0.309 0,0.124 0.045,0.228 0.132,0.307 0.088,0.078 0.237,0.119 0.442,0.119 h 3.996 v -1.298 c 0,-0.206 -0.037,-0.354 -0.117,-0.441 -0.078,-0.085 -0.182,-0.124 -0.305,-0.124 -0.127,0 -0.228,0.039 -0.308,0.124 -0.079,0.087 -0.118,0.235 -0.118,0.441 v 0.445 h -2.174 v -1.229 h 0.75 c 0,0.219 0.022,0.361 0.061,0.428 0.09,0.133 0.209,0.201 0.363,0.201 0.125,0 0.229,-0.043 0.307,-0.131 0.08,-0.09 0.119,-0.237 0.119,-0.441 v -0.978 c 0,-0.204 -0.039,-0.35 -0.119,-0.44 -0.078,-0.082 -0.182,-0.124 -0.307,-0.124 -0.154,0 -0.273,0.065 -0.363,0.202 -0.039,0.065 -0.061,0.21 -0.061,0.432 z m 4.528,1.327 v -2.57 h 0.306 c 0.202,0 0.346,-0.038 0.436,-0.117 0.09,-0.08 0.133,-0.183 0.133,-0.308 0,-0.125 -0.043,-0.227 -0.133,-0.306 -0.09,-0.08 -0.234,-0.119 -0.436,-0.119 h -1.115 c -0.205,0 -0.351,0.039 -0.441,0.119 -0.088,0.079 -0.133,0.181 -0.133,0.306 0,0.12 0.043,0.221 0.127,0.3 0.088,0.085 0.225,0.125 0.406,0.125 v 3.323 h -0.133 c -0.207,0 -0.351,0.039 -0.439,0.118 -0.09,0.08 -0.135,0.183 -0.135,0.309 0,0.124 0.045,0.228 0.135,0.307 0.088,0.078 0.232,0.119 0.439,0.119 h 0.983 l 2.172,-3.406 v 2.553 h -0.307 c -0.205,0 -0.351,0.039 -0.439,0.118 -0.088,0.08 -0.135,0.183 -0.135,0.309 0,0.124 0.047,0.228 0.135,0.307 0.088,0.078 0.234,0.119 0.439,0.119 h 1.109 c 0.206,0 0.354,-0.041 0.442,-0.119 0.088,-0.079 0.131,-0.183 0.131,-0.307 0,-0.126 -0.043,-0.229 -0.131,-0.309 -0.086,-0.079 -0.215,-0.118 -0.391,-0.118 v -4.173 h -0.845 z m 6.07,-1.857 -0.592,-1.563 h -0.797 l -0.71,2.91 c -0.159,0.011 -0.278,0.054 -0.36,0.133 -0.072,0.079 -0.109,0.178 -0.109,0.3 0,0.12 0.041,0.221 0.127,0.3 0.086,0.079 0.232,0.119 0.439,0.119 h 0.787 c 0.207,0 0.354,-0.04 0.442,-0.119 0.088,-0.079 0.133,-0.182 0.133,-0.308 0,-0.124 -0.051,-0.232 -0.155,-0.321 -0.074,-0.07 -0.22,-0.104 -0.439,-0.104 l 0.326,-1.347 0.525,1.381 h 0.754 l 0.53,-1.381 0.334,1.347 c -0.208,0 -0.346,0.021 -0.416,0.063 -0.131,0.089 -0.198,0.212 -0.198,0.37 0,0.12 0.043,0.221 0.127,0.3 0.088,0.079 0.235,0.119 0.442,0.119 h 0.8 c 0.205,0 0.348,-0.04 0.434,-0.119 0.09,-0.079 0.131,-0.182 0.131,-0.308 0,-0.112 -0.039,-0.205 -0.117,-0.286 -0.077,-0.078 -0.188,-0.126 -0.336,-0.139 l -0.692,-2.91 h -0.789 z m 5.932,1.947 v 0.252 h 0.992 c 0.203,0 0.352,-0.04 0.439,-0.119 0.088,-0.079 0.131,-0.182 0.131,-0.308 0,-0.124 -0.043,-0.227 -0.131,-0.306 -0.087,-0.079 -0.236,-0.119 -0.439,-0.119 h -0.148 v -3.092 c 0,-0.298 -0.061,-0.557 -0.188,-0.775 -0.125,-0.223 -0.32,-0.413 -0.578,-0.572 -0.258,-0.163 -0.547,-0.246 -0.877,-0.246 h -0.961 c -0.203,0 -0.352,0.039 -0.439,0.118 -0.084,0.081 -0.127,0.181 -0.127,0.302 0,0.129 0.043,0.234 0.127,0.314 0.087,0.081 0.236,0.119 0.439,0.119 h 0.936 c 0.259,0 0.462,0.07 0.605,0.21 0.145,0.14 0.219,0.315 0.219,0.53 v 0.418 c -0.192,-0.121 -0.385,-0.212 -0.578,-0.273 -0.192,-0.059 -0.393,-0.09 -0.596,-0.09 -0.574,0 -1.061,0.191 -1.451,0.572 -0.389,0.388 -0.586,0.865 -0.586,1.432 0,0.567 0.197,1.044 0.586,1.431 0.39,0.386 0.877,0.58 1.451,0.58 0.215,0 0.418,-0.034 0.615,-0.097 0.196,-0.061 0.381,-0.156 0.559,-0.281 m -0.008,-1.626 c 0,0.311 -0.117,0.58 -0.35,0.81 -0.228,0.227 -0.5,0.341 -0.822,0.341 -0.324,0 -0.605,-0.114 -0.838,-0.341 -0.228,-0.23 -0.342,-0.499 -0.342,-0.81 0,-0.316 0.114,-0.589 0.342,-0.816 0.233,-0.228 0.514,-0.343 0.838,-0.343 0.322,0 0.594,0.115 0.822,0.343 0.233,0.227 0.35,0.5 0.35,0.816 m 5.406,2.925 c 0.053,0.07 0.11,0.124 0.168,0.161 0.065,0.037 0.133,0.056 0.203,0.056 0.127,0 0.229,-0.045 0.307,-0.134 0.082,-0.083 0.119,-0.228 0.119,-0.433 V -1.76 c 0,-0.206 -0.037,-0.351 -0.119,-0.441 -0.078,-0.089 -0.18,-0.131 -0.307,-0.131 -0.111,0 -0.203,0.032 -0.273,0.096 -0.068,0.067 -0.121,0.185 -0.151,0.357 -0.019,0.117 -0.06,0.209 -0.121,0.273 -0.111,0.121 -0.267,0.217 -0.474,0.293 -0.201,0.074 -0.403,0.112 -0.608,0.112 -0.255,0 -0.492,-0.056 -0.705,-0.168 -0.211,-0.108 -0.396,-0.287 -0.558,-0.539 -0.162,-0.244 -0.244,-0.542 -0.244,-0.886 v -0.552 c 0,-0.407 0.146,-0.75 0.441,-1.025 0.297,-0.27 0.711,-0.405 1.242,-0.405 0.313,0 0.578,0.043 0.795,0.125 0.133,0.053 0.268,0.151 0.414,0.294 0.088,0.088 0.154,0.147 0.199,0.174 0.049,0.027 0.112,0.043 0.174,0.043 0.113,0 0.209,-0.045 0.295,-0.132 0.09,-0.085 0.133,-0.186 0.133,-0.301 0,-0.116 -0.059,-0.24 -0.174,-0.37 -0.168,-0.196 -0.385,-0.349 -0.65,-0.46 -0.358,-0.149 -0.754,-0.225 -1.186,-0.225 -0.504,0 -0.953,0.106 -1.355,0.315 -0.326,0.163 -0.604,0.423 -0.838,0.782 -0.227,0.358 -0.342,0.749 -0.342,1.172 v 0.579 c 0,0.442 0.104,0.853 0.307,1.237 0.205,0.381 0.488,0.674 0.851,0.879 0.369,0.211 0.758,0.314 1.166,0.314 0.246,0 0.479,-0.028 0.692,-0.083 0.214,-0.057 0.414,-0.143 0.599,-0.259 m 5.799,-3.358 h -3.484 c 0.088,-0.222 0.244,-0.402 0.468,-0.538 0.229,-0.133 0.532,-0.202 0.914,-0.202 0.319,0 0.737,0.069 1.256,0.202 0.221,0.057 0.369,0.086 0.45,0.086 0.113,0 0.211,-0.04 0.283,-0.12 0.08,-0.079 0.121,-0.18 0.121,-0.3 0,-0.111 -0.043,-0.208 -0.125,-0.286 -0.115,-0.103 -0.385,-0.202 -0.811,-0.293 -0.429,-0.095 -0.84,-0.141 -1.236,-0.141 -0.68,0 -1.223,0.191 -1.635,0.573 -0.404,0.387 -0.605,0.861 -0.605,1.423 0,0.596 0.22,1.08 0.662,1.453 0.443,0.378 0.949,0.567 1.521,0.567 0.344,0 0.662,-0.062 0.95,-0.184 0.289,-0.12 0.507,-0.249 0.648,-0.391 0.195,-0.203 0.359,-0.458 0.49,-0.76 0.088,-0.209 0.133,-0.453 0.133,-0.731 z m -0.935,0.852 c -0.131,0.241 -0.303,0.421 -0.518,0.538 -0.209,0.121 -0.459,0.18 -0.746,0.18 -0.287,0 -0.537,-0.059 -0.746,-0.18 -0.209,-0.117 -0.381,-0.297 -0.51,-0.538 z m 2.949,1.459 v -0.287 c 0.154,0.136 0.324,0.235 0.509,0.299 0.188,0.065 0.389,0.101 0.608,0.101 0.5,0 0.9,-0.158 1.193,-0.471 0.235,-0.245 0.352,-0.571 0.352,-0.975 v -1.579 c 0.174,0 0.305,-0.038 0.389,-0.117 0.087,-0.08 0.132,-0.183 0.132,-0.308 0,-0.125 -0.045,-0.227 -0.132,-0.306 -0.084,-0.08 -0.229,-0.119 -0.434,-0.119 h -0.766 c -0.207,0 -0.353,0.039 -0.441,0.119 -0.084,0.079 -0.127,0.181 -0.127,0.306 0,0.125 0.043,0.228 0.127,0.308 0.088,0.079 0.223,0.117 0.398,0.117 v 1.608 c 0,0.181 -0.05,0.314 -0.146,0.404 -0.131,0.107 -0.326,0.159 -0.586,0.159 -0.197,0 -0.369,-0.037 -0.518,-0.111 -0.148,-0.076 -0.336,-0.235 -0.558,-0.481 v -1.579 c 0.217,0 0.357,-0.019 0.418,-0.061 0.134,-0.085 0.205,-0.206 0.205,-0.364 0,-0.125 -0.047,-0.227 -0.135,-0.306 -0.084,-0.08 -0.227,-0.119 -0.434,-0.119 h -0.962 c -0.204,0 -0.35,0.039 -0.438,0.119 -0.09,0.079 -0.133,0.181 -0.133,0.306 0,0.154 0.067,0.274 0.201,0.364 0.065,0.042 0.205,0.061 0.426,0.061 v 2.06 c -0.183,0 -0.314,0.04 -0.396,0.119 -0.086,0.083 -0.127,0.189 -0.127,0.314 0,0.12 0.041,0.221 0.127,0.3 0.088,0.079 0.232,0.119 0.439,0.119 z m 4.98,-1.843 v -1.069 h 0.309 c 0.203,0 0.351,-0.038 0.441,-0.117 0.088,-0.08 0.129,-0.183 0.129,-0.308 0,-0.125 -0.041,-0.227 -0.129,-0.306 -0.09,-0.08 -0.238,-0.119 -0.441,-0.119 h -1.285 c -0.205,0 -0.352,0.039 -0.44,0.119 -0.088,0.079 -0.135,0.181 -0.135,0.306 0,0.125 0.047,0.228 0.135,0.308 0.088,0.079 0.235,0.117 0.44,0.117 h 0.132 v 3.323 h -0.132 c -0.205,0 -0.352,0.039 -0.44,0.118 -0.088,0.08 -0.135,0.183 -0.135,0.309 0,0.124 0.047,0.228 0.135,0.307 0.088,0.078 0.235,0.119 0.44,0.119 h 1.92 c 0.601,0 1.066,-0.149 1.394,-0.447 0.332,-0.298 0.496,-0.66 0.496,-1.082 0,-0.267 -0.078,-0.507 -0.234,-0.726 -0.154,-0.219 -0.391,-0.412 -0.701,-0.58 0.181,-0.158 0.377,-0.36 0.58,-0.608 0.127,-0.153 0.297,-0.398 0.509,-0.733 0.221,0 0.364,-0.022 0.434,-0.069 0.119,-0.084 0.18,-0.202 0.18,-0.356 0,-0.125 -0.043,-0.227 -0.131,-0.306 -0.084,-0.08 -0.225,-0.119 -0.428,-0.119 h -0.486 c -0.69,1.064 -1.26,1.704 -1.711,1.919 z m 0,0.852 h 0.662 c 0.246,0 0.469,0.036 0.666,0.111 0.26,0.098 0.434,0.202 0.522,0.316 0.09,0.11 0.131,0.221 0.131,0.326 0,0.158 -0.084,0.307 -0.254,0.439 -0.174,0.141 -0.422,0.21 -0.748,0.21 h -0.979 z m 4.145,-1.921 v 3.323 h -0.133 c -0.207,0 -0.352,0.039 -0.44,0.118 -0.082,0.08 -0.128,0.183 -0.128,0.309 0,0.124 0.046,0.228 0.128,0.307 0.088,0.078 0.233,0.119 0.44,0.119 h 2.135 c 0.509,0 0.914,-0.143 1.222,-0.426 0.313,-0.28 0.465,-0.617 0.465,-1.007 0,-0.184 -0.033,-0.36 -0.109,-0.523 -0.071,-0.162 -0.18,-0.312 -0.33,-0.452 0.271,-0.159 0.474,-0.346 0.609,-0.559 0.137,-0.215 0.201,-0.456 0.201,-0.726 0,-0.219 -0.047,-0.42 -0.144,-0.6 -0.074,-0.144 -0.162,-0.26 -0.266,-0.343 -0.141,-0.117 -0.312,-0.211 -0.516,-0.287 -0.205,-0.069 -0.462,-0.103 -0.769,-0.103 h -2.498 c -0.207,0 -0.352,0.039 -0.44,0.119 -0.082,0.079 -0.128,0.181 -0.128,0.306 0,0.125 0.046,0.228 0.136,0.308 0.088,0.079 0.231,0.117 0.432,0.117 z m 0.849,2.088 h 0.938 c 0.334,0 0.611,0.083 0.83,0.251 0.148,0.116 0.225,0.26 0.225,0.425 0,0.149 -0.071,0.281 -0.211,0.391 -0.141,0.114 -0.364,0.168 -0.67,0.168 h -1.112 z m 0,-2.088 h 1.469 c 0.35,0 0.594,0.053 0.733,0.155 0.107,0.075 0.158,0.183 0.158,0.328 0,0.172 -0.104,0.34 -0.321,0.501 -0.209,0.167 -0.511,0.253 -0.914,0.253 h -1.125 z m 5.403,0.874 v -0.874 h 0.849 c 0.207,0 0.352,-0.038 0.44,-0.117 0.09,-0.08 0.135,-0.183 0.135,-0.308 0,-0.125 -0.045,-0.227 -0.135,-0.306 -0.088,-0.08 -0.233,-0.119 -0.44,-0.119 h -1.836 c -0.205,0 -0.349,0.039 -0.439,0.119 -0.086,0.079 -0.135,0.181 -0.135,0.306 0,0.125 0.049,0.228 0.135,0.308 0.09,0.079 0.234,0.117 0.439,0.117 h 0.133 v 3.323 h -0.133 c -0.205,0 -0.349,0.039 -0.439,0.118 -0.086,0.08 -0.135,0.183 -0.135,0.309 0,0.124 0.049,0.228 0.135,0.307 0.09,0.078 0.234,0.119 0.439,0.119 h 1.957 c 0.577,0 1.032,-0.158 1.37,-0.475 0.332,-0.312 0.5,-0.694 0.5,-1.147 0,-0.245 -0.059,-0.481 -0.174,-0.704 -0.084,-0.161 -0.225,-0.326 -0.426,-0.489 -0.201,-0.161 -0.406,-0.286 -0.615,-0.37 -0.209,-0.079 -0.483,-0.117 -0.825,-0.117 z m 0,0.85 h 0.779 c 0.373,0 0.666,0.085 0.879,0.254 0.223,0.165 0.332,0.366 0.332,0.6 0,0.199 -0.09,0.373 -0.268,0.524 -0.172,0.147 -0.42,0.221 -0.746,0.221 h -0.976 z m 3.591,-1.724 v 3.323 c -0.183,0.006 -0.318,0.046 -0.406,0.118 -0.084,0.08 -0.123,0.183 -0.123,0.309 0,0.124 0.041,0.228 0.131,0.307 0.088,0.078 0.234,0.119 0.439,0.119 h 1.774 c 0.277,0 0.549,-0.053 0.809,-0.155 0.265,-0.102 0.48,-0.232 0.642,-0.39 0.123,-0.121 0.248,-0.287 0.377,-0.498 0.133,-0.203 0.229,-0.409 0.293,-0.611 0.07,-0.207 0.105,-0.453 0.105,-0.748 v -0.404 c 0,-0.365 -0.062,-0.685 -0.189,-0.965 -0.121,-0.273 -0.281,-0.501 -0.48,-0.676 -0.198,-0.174 -0.379,-0.299 -0.551,-0.385 -0.278,-0.13 -0.635,-0.194 -1.076,-0.194 h -1.704 c -0.205,0 -0.351,0.039 -0.439,0.119 -0.09,0.079 -0.131,0.181 -0.131,0.306 0,0.125 0.041,0.228 0.131,0.308 0.088,0.079 0.221,0.117 0.398,0.117 m 0.842,0 h 0.91 c 0.332,0 0.586,0.05 0.76,0.149 0.223,0.125 0.391,0.284 0.504,0.481 0.115,0.193 0.174,0.449 0.174,0.76 v 0.404 c 0,0.266 -0.051,0.5 -0.152,0.707 -0.164,0.312 -0.346,0.524 -0.547,0.641 -0.198,0.12 -0.448,0.181 -0.746,0.181 h -0.903 z"
             style="fill:#231f20;fill-opacity:1;fill-rule:nonzero;stroke:none"
             id="path62" /></g><text
           transform="matrix(1,0,0,-1,213.2295,586.4883)"
           style="font-variant:normal;font-weight:normal;font-stretch:normal;font-size:7px;font-family:Arial;-inkscape-font-specification:ArialMT;writing-mode:lr-tb;fill:#231f20;fill-opacity:1;fill-rule:nonzero;stroke:none"
           id="text66"><tspan
             x="0 5.0539999 8.9460001 12.838 16.337999 17.892 21.784 23.73 28.007 31.899 35.398998 39.291 43.182999 45.129002 49.798 53.689999 56.021 59.912998 63.412998 66.913002 70.805"
             y="0"
             sodipodi:role="line"
             id="tspan64">Cookie Token Adresse:</tspan></text><g
           id="g68"
           transform="translate(296.8799,636.9707)"><path
             d="m 0,0 c 0.283,0.951 0.547,1.57 0.85,2.334 l -2.903,-0.01 c 0.131,-0.271 0.576,-1.379 0.867,-2.326 0.313,-1.018 0.524,-1.939 0.602,-2.537 0.072,0.6 0.281,1.523 0.584,2.539"
             style="fill:#231f20;fill-opacity:1;fill-rule:nonzero;stroke:none"
             id="path70" /></g><g
           id="g72"
           transform="translate(296.2783,638.6758)"><path
             d="M 0,0 V 11.074"
             style="fill:none;stroke:#231f20;stroke-width:0.5;stroke-linecap:butt;stroke-linejoin:miter;stroke-miterlimit:4;stroke-dasharray:none;stroke-opacity:1"
             id="path74" /></g><text
           transform="matrix(1,0,0,-1,248.3198,661.7393)"
           style="font-variant:normal;font-weight:normal;font-stretch:normal;font-size:8px;font-family:Courier;-inkscape-font-specification:Courier;writing-mode:lr-tb;fill:#231f20;fill-opacity:1;fill-rule:nonzero;stroke:none"
           id="text80"><tspan
             x="0 4.8000002 9.6000004 14.4 19.200001 24 28.799999 33.599998 38.400002 43.200001 48 52.799999 57.599998 62.400002 67.199997 72 76.800003 81.599998 86.400002 91.199997"
             y="0"
             sodipodi:role="line"
             id="tspan76">5f2613791b36f667fdb8</tspan><tspan
             x="0 4.8000002 9.6000004 14.4 19.200001 24 28.799999 33.599998 38.400002 43.200001 48 52.799999 57.599998 62.400002 67.199997 72 76.800003 81.599998 86.400002 91.199997"
             y="9.6000004"
             sodipodi:role="line"
             id="tspan78">e95608b55e3df4c5f9eb</tspan></text></g></g></g></svg>
