<svg xmlns="http://www.w3.org/2000/svg" width="152.28" height="150.25" viewBox="0 0 152.28 150.25">
  <defs>
    <style>
      .cls-1 {
        fill: none;
      }

      .cls-1, .cls-2 {
        stroke: #000;
        stroke-width: 0.5px;
      }

      .cls-2 {
        fill: #cce1e9;
        stroke-linejoin: round;
      }

      .cls-3 {
        font-size: 7px;
        font-family: ArialMT, Arial;
      }
    </style>
  </defs>
  <g id="Layer_2" data-name="Layer 2">
    <path d="M296.88,200.21a24.39,24.39,0,0,1,.85-2.33h-2.9a23.59,23.59,0,0,1,.86,2.32,16.54,16.54,0,0,1,.61,2.54A17,17,0,0,1,296.88,200.21Z" transform="translate(-241.64 -119.36)"/>
    <line class="cls-1" x1="54.64" y1="79.15" x2="54.64" y2="64.14"/>
    <path d="M296.88,155a24.39,24.39,0,0,1,.85-2.33h-2.9a22.61,22.61,0,0,1,.86,2.32,16.54,16.54,0,0,1,.61,2.54A16.76,16.76,0,0,1,296.88,155Z" transform="translate(-241.64 -119.36)"/>
    <line class="cls-1" x1="54.64" y1="33.97" x2="54.64" y2="22.89"/>
    <rect class="cls-2" x="24.63" y="38.45" width="60.02" height="25.69"/>
    <text class="cls-3" transform="translate(42.77 49.38)">Base58<tspan x="-4.28" y="9">Codierung</tspan></text>
    <path d="M296.88,240.89a24.39,24.39,0,0,1,.85-2.33h-2.9a23.05,23.05,0,0,1,.86,2.33,16.2,16.2,0,0,1,.61,2.53A17,17,0,0,1,296.88,240.89Z" transform="translate(-241.64 -119.36)"/>
    <line class="cls-1" x1="54.64" y1="119.83" x2="54.64" y2="105.06"/>
    <path d="M357.33,129.1c.95.28,1.57.55,2.34.85v-2.9a23.05,23.05,0,0,1-2.33.86,16.54,16.54,0,0,1-2.54.61A16.76,16.76,0,0,1,357.33,129.1Z" transform="translate(-241.64 -119.36)"/>
    <polyline class="cls-1" points="117.4 9.14 152.03 9.14 152.03 137.16 84.62 137.16"/>
    <rect class="cls-2" x="24.63" y="124.31" width="60.02" height="25.69"/>
    <text class="cls-3" transform="translate(42.77 135.24)">Base58<tspan x="-7.98" y="9">Decodierung</tspan></text>
    <path d="M252.06,205.3V210h.87a.62.62,0,0,1,.44.13.35.35,0,0,1,.13.3.38.38,0,0,1-.13.3.58.58,0,0,1-.44.13h-2.58a.59.59,0,0,1-.45-.13.39.39,0,0,1-.14-.3.36.36,0,0,1,.14-.3.63.63,0,0,1,.45-.13h.86v-3.58l-.77.2a1.28,1.28,0,0,1-.28,0,.37.37,0,0,1-.28-.13.45.45,0,0,1-.12-.32.37.37,0,0,1,.09-.27.71.71,0,0,1,.37-.17Zm5.76,3.3a2.64,2.64,0,0,1-.59.41,1.47,1.47,0,0,1-.56.11,1.65,1.65,0,0,1-1.21-.55,2,2,0,0,1-.52-1.38,2,2,0,0,1,.36-1.17,1.55,1.55,0,0,1,1.37-.72,1.73,1.73,0,0,1,1.1.38,2.14,2.14,0,0,1,.7,1.09,4.94,4.94,0,0,1,.23,1.49,2.52,2.52,0,0,1-1,2.11,2.73,2.73,0,0,1-1.73.61,1.33,1.33,0,0,1-.8-.21.44.44,0,0,1-.06-.67.41.41,0,0,1,.3-.12.49.49,0,0,1,.22.06.75.75,0,0,0,.34.09,1.92,1.92,0,0,0,1.21-.44A1.84,1.84,0,0,0,257.82,208.6Zm-.12-1.35a1.64,1.64,0,0,0-.4-.84.89.89,0,0,0-.63-.26.84.84,0,0,0-.62.28,1.08,1.08,0,0,0-.25.75,1.2,1.2,0,0,0,.25.78.82.82,0,0,0,.6.29C257,208.25,257.39,207.92,257.7,207.25Zm4.85.06v-.26h1a.62.62,0,0,1,.44.13.35.35,0,0,1,.13.3.41.41,0,0,1-.13.32.69.69,0,0,1-.44.11h-.14V211a1.51,1.51,0,0,1-.2.78,1.59,1.59,0,0,1-.59.59,1.63,1.63,0,0,1-.87.24h-1a.66.66,0,0,1-.44-.12.43.43,0,0,1,0-.62.66.66,0,0,1,.44-.11h1a.84.84,0,0,0,.61-.22.7.7,0,0,0,.22-.54v-.43a1.93,1.93,0,0,1-.58.28,1.81,1.81,0,0,1-.61.1,2,2,0,0,1-1.47-.58,2,2,0,0,1-.58-1.45,1.92,1.92,0,0,1,.58-1.44,2,2,0,0,1,1.47-.59,2.12,2.12,0,0,1,.62.1A1.89,1.89,0,0,1,262.55,207.31Zm0,1.65a1.12,1.12,0,0,0-.35-.82,1.17,1.17,0,0,0-1.67,0,1.09,1.09,0,0,0-.36.82,1.15,1.15,0,0,0,.36.83,1.19,1.19,0,0,0,2-.83Zm3.24-1a2.8,2.8,0,0,1,.6-.38,1.54,1.54,0,0,1,1.77.42,1.87,1.87,0,0,1,.51,1.35,1.64,1.64,0,0,1-.47,1.21,1.77,1.77,0,0,1-1.27.46,1.92,1.92,0,0,1-1.12-.3,2,2,0,0,1-.66-1,4.52,4.52,0,0,1-.22-1.46,2.7,2.7,0,0,1,.44-1.6,3.45,3.45,0,0,1,1-1,2.5,2.5,0,0,1,1.26-.35,1.4,1.4,0,0,1,.82.21.4.4,0,0,1,.19.35.48.48,0,0,1-.13.32.43.43,0,0,1-.31.12.63.63,0,0,1-.28-.1.49.49,0,0,0-.22-.06,1.87,1.87,0,0,0-.85.23,2.16,2.16,0,0,0-.76.72A2.33,2.33,0,0,0,265.78,207.92Zm.13,1.33a1.3,1.3,0,0,0,.36.69,1,1,0,0,0,.66.19.94.94,0,0,0,.65-.22.85.85,0,0,0,.23-.61,1,1,0,0,0-.27-.72.75.75,0,0,0-.59-.29.91.91,0,0,0-.56.25A2,2,0,0,0,265.91,209.25Zm7.9-.22a1.89,1.89,0,0,1-.28.95,2,2,0,0,1-.82.75,2.59,2.59,0,0,1-1.12.26,2.56,2.56,0,0,1-1.12-.26,2,2,0,0,1-.82-.74,1.82,1.82,0,0,1-.28-1,2,2,0,0,1,.28-1,1.88,1.88,0,0,1,.82-.78,2.33,2.33,0,0,1,1.12-.28,2.26,2.26,0,0,1,1.12.29,1.82,1.82,0,0,1,.82.78A2.05,2.05,0,0,1,273.81,209Zm-.86,0a1.13,1.13,0,0,0-.3-.76,1.44,1.44,0,0,0-2-.09,1.13,1.13,0,0,0-.39.85,1,1,0,0,0,.39.76,1.47,1.47,0,0,0,1,.35,1.4,1.4,0,0,0,1-.35A1,1,0,0,0,273,209Zm5.84,0a1.8,1.8,0,0,1-.28.95,1.91,1.91,0,0,1-.81.75,2.59,2.59,0,0,1-1.12.26,2.63,2.63,0,0,1-1.13-.26,2.08,2.08,0,0,1-.81-.74,1.82,1.82,0,0,1-.28-1,2,2,0,0,1,.28-1,1.91,1.91,0,0,1,.81-.78,2.39,2.39,0,0,1,1.13-.28,2.26,2.26,0,0,1,1.12.29,1.75,1.75,0,0,1,.81.78A2,2,0,0,1,278.79,209Zm-.85,0a1.13,1.13,0,0,0-.3-.76,1.44,1.44,0,0,0-2-.09,1.13,1.13,0,0,0-.39.85,1,1,0,0,0,.39.76,1.45,1.45,0,0,0,1,.35,1.4,1.4,0,0,0,1-.35A1,1,0,0,0,277.94,209Zm4.83-.91a1.67,1.67,0,0,1,.49.58,1.52,1.52,0,0,1,.17.71,1.56,1.56,0,0,1-.21.79,1.36,1.36,0,0,1-.67.57,2.33,2.33,0,0,1-1,.21,2.36,2.36,0,0,1-1-.21,1.48,1.48,0,0,1-.66-.57,1.7,1.7,0,0,1-.05-1.5,1.74,1.74,0,0,1,.51-.58,1.94,1.94,0,0,1-.43-.58,1.39,1.39,0,0,1-.15-.63,1.5,1.5,0,0,1,.5-1.13,1.81,1.81,0,0,1,1.29-.48,1.77,1.77,0,0,1,1.28.48,1.44,1.44,0,0,1,.51,1.13,1.46,1.46,0,0,1-.14.65A2.21,2.21,0,0,1,282.77,208.12Zm-.29-1.2a.7.7,0,0,0-.26-.54.94.94,0,0,0-.67-.23,1,1,0,0,0-.68.23.72.72,0,0,0,0,1.09,1,1,0,0,0,.68.22.93.93,0,0,0,.67-.22A.71.71,0,0,0,282.48,206.92Zm.1,2.52a.79.79,0,0,0-.3-.59,1,1,0,0,0-.72-.28,1,1,0,0,0-.73.28.85.85,0,0,0-.28.61.6.6,0,0,0,.25.47,1.23,1.23,0,0,0,.76.2,1.21,1.21,0,0,0,.76-.2A.62.62,0,0,0,282.58,209.44Zm4-1.53V210h1.22a.64.64,0,0,1,.44.13.35.35,0,0,1,.13.3.38.38,0,0,1-.13.3.59.59,0,0,1-.44.13h-2.6a.61.61,0,0,1-.44-.13.38.38,0,0,1-.13-.3.35.35,0,0,1,.13-.3.66.66,0,0,1,.44-.13h.51v-2.09h-.4a.74.74,0,0,1-.45-.11.41.41,0,0,1-.13-.32.35.35,0,0,1,.13-.3.67.67,0,0,1,.45-.13h.4v-.32a1.17,1.17,0,0,1,.42-.93,1.79,1.79,0,0,1,1.23-.38,5.36,5.36,0,0,1,.82.08,1.2,1.2,0,0,1,.6.18.36.36,0,0,1,.14.29.48.48,0,0,1-.12.33.41.41,0,0,1-.3.12,1,1,0,0,1-.23,0,5.7,5.7,0,0,0-1-.09.92.92,0,0,0-.58.13.36.36,0,0,0-.16.31v.32h1.32a.59.59,0,0,1,.43.13.36.36,0,0,1,.14.3.42.42,0,0,1-.14.32.65.65,0,0,1-.43.11Zm7.22,1.12a1.89,1.89,0,0,1-.28.95,1.94,1.94,0,0,1-.82.75,2.59,2.59,0,0,1-1.12.26,2.56,2.56,0,0,1-1.12-.26,2,2,0,0,1-.82-.74,1.82,1.82,0,0,1-.28-1,2,2,0,0,1,.28-1,1.88,1.88,0,0,1,.82-.78,2.33,2.33,0,0,1,1.12-.28,2.26,2.26,0,0,1,1.12.29,1.78,1.78,0,0,1,.82.78A2.05,2.05,0,0,1,293.76,209Zm-.86,0a1.13,1.13,0,0,0-.3-.76,1.44,1.44,0,0,0-2-.09,1.13,1.13,0,0,0-.39.85,1,1,0,0,0,.39.76,1.47,1.47,0,0,0,1,.35,1.4,1.4,0,0,0,1-.35A1,1,0,0,0,292.9,209Zm3.82,1.95,0,0a2,2,0,0,1,.83.18.6.6,0,0,0,.26.07.78.78,0,0,0,.37-.14.71.71,0,0,1,.34-.15.45.45,0,0,1,.31.12.47.47,0,0,1,.12.32.48.48,0,0,1-.23.38,1.53,1.53,0,0,1-.92.32,1.33,1.33,0,0,1-.47-.08,1.71,1.71,0,0,0-.61-.16,4.84,4.84,0,0,0-1.11.2l-.25,0a.37.37,0,0,1-.29-.13.44.44,0,0,1-.12-.32.48.48,0,0,1,.17-.33l.55-.53a2.43,2.43,0,0,1-1.11-1,2.84,2.84,0,0,1-.43-1.53,2.63,2.63,0,0,1,.86-2,2.21,2.21,0,0,1,1.54-.64,2.18,2.18,0,0,1,1.55.64,2.6,2.6,0,0,1,.87,2,2.65,2.65,0,0,1-.66,1.82A2.3,2.3,0,0,1,296.72,211Zm1.34-2.66a1.85,1.85,0,0,0-.47-1.3,1.38,1.38,0,0,0-2.15,0,2,2,0,0,0,0,2.58,1.43,1.43,0,0,0,1.07.52,1.4,1.4,0,0,0,1.08-.52A1.84,1.84,0,0,0,298.06,208.32Zm2.86.42V210h.87a.61.61,0,0,1,.44.13.36.36,0,0,1,.14.3.39.39,0,0,1-.14.3.56.56,0,0,1-.44.13h-1.87a.59.59,0,0,1-.44-.13.38.38,0,0,1-.13-.3.35.35,0,0,1,.13-.3.64.64,0,0,1,.44-.13h.13v-3.36h-.13a.64.64,0,0,1-.44-.12.41.41,0,0,1-.13-.32.38.38,0,0,1,.13-.3.64.64,0,0,1,.44-.12h4v1.31a.66.66,0,0,1-.12.44.35.35,0,0,1-.3.13.41.41,0,0,1-.32-.13.73.73,0,0,1-.11-.44v-.45h-2.19v1.24h.75a.88.88,0,0,1,.06-.42.43.43,0,0,1,.37-.21.35.35,0,0,1,.3.13.59.59,0,0,1,.13.44v1a.61.61,0,0,1-.13.44.35.35,0,0,1-.3.13.44.44,0,0,1-.37-.2,1,1,0,0,1-.06-.44Zm4.85-2.44v1a2.94,2.94,0,0,1,.87-.15,1.76,1.76,0,0,1,1.31.54,1.91,1.91,0,0,1,.53,1.39,1.78,1.78,0,0,1-.54,1.38,2.29,2.29,0,0,1-1.62.5,2.69,2.69,0,0,1-1.52-.37.56.56,0,0,1-.33-.47.38.38,0,0,1,.12-.29.43.43,0,0,1,.32-.14.49.49,0,0,1,.31.15.94.94,0,0,0,.36.18,2.18,2.18,0,0,0,.69.09,1.63,1.63,0,0,0,1.06-.25.93.93,0,0,0,.29-.76,1.07,1.07,0,0,0-.28-.8.92.92,0,0,0-.7-.29,2.49,2.49,0,0,0-1.06.29.52.52,0,0,1-.24.08.43.43,0,0,1-.31-.14.49.49,0,0,1-.12-.34v-2.48h2.63a.66.66,0,0,1,.44.12.39.39,0,0,1,.13.31.4.4,0,0,1-.13.31.66.66,0,0,1-.44.12Zm6.57-.88v.92h-1v-.92Zm-.35,2.49h-1.74a.78.78,0,0,1-.46-.11.44.44,0,0,1-.12-.32.38.38,0,0,1,.12-.3.7.7,0,0,1,.46-.13h2.6v4a1.5,1.5,0,0,1-.19.78,1.63,1.63,0,0,1-.58.59,1.7,1.7,0,0,1-.89.24h-1a.67.67,0,0,1-.45-.12.46.46,0,0,1,0-.62.68.68,0,0,1,.45-.11h.94a.82.82,0,0,0,.61-.22A.7.7,0,0,0,312,211Zm4.47,0V210h1.22a.62.62,0,0,1,.44.13.36.36,0,0,1,.14.3.39.39,0,0,1-.14.3.58.58,0,0,1-.44.13h-2.59a.61.61,0,0,1-.44-.13.38.38,0,0,1-.13-.3.35.35,0,0,1,.13-.3.66.66,0,0,1,.44-.13h.51v-2.09h-.4a.74.74,0,0,1-.45-.11.42.42,0,0,1-.14-.32.36.36,0,0,1,.14-.3.67.67,0,0,1,.45-.13h.4v-.32a1.17,1.17,0,0,1,.42-.93,1.79,1.79,0,0,1,1.23-.38,5.25,5.25,0,0,1,.81.08,1.25,1.25,0,0,1,.61.18.35.35,0,0,1,.13.29.48.48,0,0,1-.12.33.4.4,0,0,1-.29.12.84.84,0,0,1-.23,0,5.9,5.9,0,0,0-1-.09,1,1,0,0,0-.59.13.38.38,0,0,0-.16.31v.32h1.32a.62.62,0,0,1,.44.13.35.35,0,0,1,.13.3.41.41,0,0,1-.13.32.69.69,0,0,1-.44.11Zm7,0v3.89h.15a.66.66,0,0,1,.44.11.43.43,0,0,1,0,.62.63.63,0,0,1-.44.12h-1.53a.66.66,0,0,1-.44-.12.43.43,0,0,1,0-.62.66.66,0,0,1,.44-.11h.52v-1.42a2.92,2.92,0,0,1-.65.3,2.37,2.37,0,0,1-.65.09,2.18,2.18,0,0,1-1.37-.46,1.67,1.67,0,0,1-.73-1.4,1.84,1.84,0,0,1,.62-1.37,2.1,2.1,0,0,1,1.5-.59,2.37,2.37,0,0,1,.65.09,2.46,2.46,0,0,1,.63.31v-.3h1a.66.66,0,0,1,.44.13.38.38,0,0,1,.13.3.44.44,0,0,1-.13.32.69.69,0,0,1-.44.11Zm-.86,1a1,1,0,0,0-.15-.45A1.16,1.16,0,0,0,322,208a1.18,1.18,0,0,0-.68-.19,1.24,1.24,0,0,0-1,.49,1,1,0,0,0-.25.63.92.92,0,0,0,.36.67,1.37,1.37,0,0,0,.92.32,1.32,1.32,0,0,0,.9-.32A1,1,0,0,0,322.59,208.91Zm3,.13v1h.31a.59.59,0,0,1,.43.13.36.36,0,0,1,.14.3.39.39,0,0,1-.14.3.55.55,0,0,1-.43.13h-1.31a.61.61,0,0,1-.44-.13.38.38,0,0,1-.13-.3.35.35,0,0,1,.13-.3.66.66,0,0,1,.44-.13h.14v-3.36h-.14a.66.66,0,0,1-.44-.12.41.41,0,0,1-.13-.32.38.38,0,0,1,.13-.3.66.66,0,0,1,.44-.12h1.31a.6.6,0,0,1,.43.12.39.39,0,0,1,.14.3.42.42,0,0,1-.14.32.6.6,0,0,1-.43.12h-.31v1.27l1.52-1.31a.61.61,0,0,1-.18-.18.42.42,0,0,1-.05-.2.44.44,0,0,1,.12-.32.69.69,0,0,1,.45-.12h.88a.64.64,0,0,1,.44.12.39.39,0,0,1,.14.3.42.42,0,0,1-.14.32.61.61,0,0,1-.41.12L326.78,208a2.86,2.86,0,0,1,.81.76,5.39,5.39,0,0,1,.67,1.25h.23a.66.66,0,0,1,.44.13.35.35,0,0,1,.13.3.38.38,0,0,1-.13.3.58.58,0,0,1-.44.13h-.78a12.56,12.56,0,0,0-.59-1.22,2.7,2.7,0,0,0-.49-.7,1.65,1.65,0,0,0-.56-.34Zm7.08-.44a2.61,2.61,0,0,1-.58.41,1.55,1.55,0,0,1-.56.11,1.67,1.67,0,0,1-1.22-.55,2,2,0,0,1-.51-1.38,2.09,2.09,0,0,1,.35-1.17,1.58,1.58,0,0,1,1.38-.72,1.75,1.75,0,0,1,1.1.38,2.19,2.19,0,0,1,.69,1.09,4.64,4.64,0,0,1,.23,1.49,2.54,2.54,0,0,1-1,2.11,2.77,2.77,0,0,1-1.73.61,1.39,1.39,0,0,1-.81-.21.43.43,0,0,1,.25-.79.56.56,0,0,1,.22.06.69.69,0,0,0,.34.09,1.87,1.87,0,0,0,1.2-.44A1.79,1.79,0,0,0,332.63,208.6Zm-.12-1.35a1.57,1.57,0,0,0-.4-.84.89.89,0,0,0-.62-.26.84.84,0,0,0-.62.28,1.09,1.09,0,0,0-.26.75,1.2,1.2,0,0,0,.26.78.82.82,0,0,0,.59.29C331.86,208.25,332.2,207.92,332.51,207.25Zm4.86.06v-.26h1a.59.59,0,0,1,.43.13.36.36,0,0,1,.14.3.42.42,0,0,1-.14.32.65.65,0,0,1-.43.11h-.15V211a1.42,1.42,0,0,1-.2.78,1.55,1.55,0,0,1-.58.59,1.64,1.64,0,0,1-.88.24h-1a.66.66,0,0,1-.44-.12.41.41,0,0,1,0-.62.66.66,0,0,1,.44-.11h1a.86.86,0,0,0,.61-.22.74.74,0,0,0,.22-.54v-.43a2,2,0,0,1-.59.28,1.77,1.77,0,0,1-.61.1,2,2,0,0,1-1.46-.58,2,2,0,0,1-.59-1.45,1.93,1.93,0,0,1,.59-1.44,2,2,0,0,1,1.46-.59,2.06,2.06,0,0,1,.62.1A1.83,1.83,0,0,1,337.37,207.31Zm0,1.65a1.2,1.2,0,0,0-1.18-1.17,1.14,1.14,0,0,0-.84.35,1.12,1.12,0,0,0-.35.82,1.18,1.18,0,0,0,.35.83,1.21,1.21,0,0,0,.84.34,1.16,1.16,0,0,0,.83-.34A1.14,1.14,0,0,0,337.35,209Zm5-.21h-1.83V210h.14a.66.66,0,0,1,.44.13.35.35,0,0,1,.13.3.38.38,0,0,1-.13.3.61.61,0,0,1-.44.13h-1a.62.62,0,0,1-.45-.13.42.42,0,0,1,.07-.66.85.85,0,0,1,.43-.07v-3.36a.61.61,0,0,1-.35-.13.55.55,0,0,1-.1-.31.38.38,0,0,1,.13-.3.66.66,0,0,1,.44-.12h.88a.66.66,0,0,1,.44.12.38.38,0,0,1,.13.3.41.41,0,0,1-.13.32.66.66,0,0,1-.44.12h-.14v1.26h1.83v-1.26h-.14a.63.63,0,0,1-.43-.12.42.42,0,0,1-.14-.32.39.39,0,0,1,.14-.3.63.63,0,0,1,.43-.12h.89a.61.61,0,0,1,.43.12.36.36,0,0,1,.14.3.42.42,0,0,1-.13.31.5.5,0,0,1-.32.13V210a.76.76,0,0,1,.42.07.39.39,0,0,1,.21.36.36.36,0,0,1-.14.3.57.57,0,0,1-.43.13H342.2a.58.58,0,0,1-.43-.13.39.39,0,0,1-.14-.3.36.36,0,0,1,.14-.3.63.63,0,0,1,.43-.13h.14Z" transform="translate(-241.64 -119.36)"/>
    <path d="M250.82,220.14h1.89A.47.47,0,0,1,253,220a.42.42,0,0,1,.31.13.66.66,0,0,1,.12.44V221h-3.91v-.92a34.37,34.37,0,0,0,2.8-2.46.84.84,0,0,0,.24-.52.71.71,0,0,0-.28-.56,1,1,0,0,0-.73-.25,1.13,1.13,0,0,0-.77.27,1,1,0,0,0-.25.43.45.45,0,0,1-.16.25.39.39,0,0,1-.25.08.45.45,0,0,1-.31-.12.47.47,0,0,1-.12-.31,1.22,1.22,0,0,1,.23-.62,1.64,1.64,0,0,1,.67-.6,2.13,2.13,0,0,1,1-.23,1.83,1.83,0,0,1,1.33.5,1.57,1.57,0,0,1,.53,1.18,1.45,1.45,0,0,1-.15.66,3.62,3.62,0,0,1-.72.84C252.26,218.91,251.68,219.41,250.82,220.14Zm4.71-4.58v1.93a2.63,2.63,0,0,1,.63-.31,2.57,2.57,0,0,1,.67-.09,2,2,0,0,1,1.51.62,2,2,0,0,1,.63,1.47,1.83,1.83,0,0,1-.6,1.4,2.17,2.17,0,0,1-1.56.55,2.84,2.84,0,0,1-.66-.08,3,3,0,0,1-.62-.26V221h-1a.67.67,0,0,1-.45-.12.45.45,0,0,1-.12-.31.35.35,0,0,1,.13-.3.66.66,0,0,1,.44-.13h.15v-3.71h-.15a.67.67,0,0,1-.45-.12A.45.45,0,0,1,254,216a.45.45,0,0,1,.12-.31.67.67,0,0,1,.45-.12Zm2.57,3.65a1.19,1.19,0,0,0-.38-.89,1.17,1.17,0,0,0-.9-.38,1.2,1.2,0,0,0-.91.38,1.13,1.13,0,0,0-.38.87,1,1,0,0,0,.33.78,1.37,1.37,0,0,0,1,.31,1.3,1.3,0,0,0,.94-.31A1,1,0,0,0,258.1,219.21Zm3.15-2.43v3.36h1.85v-.81a.69.69,0,0,1,.11-.44.42.42,0,0,1,.32-.14.36.36,0,0,1,.3.14.63.63,0,0,1,.12.44V221h-4.07a.66.66,0,0,1-.44-.12.42.42,0,0,1-.13-.31.35.35,0,0,1,.13-.3.66.66,0,0,1,.44-.13h.5v-3.36h-.5a.66.66,0,0,1-.44-.12.41.41,0,0,1-.13-.32.38.38,0,0,1,.13-.3.66.66,0,0,1,.44-.12h1.87a.64.64,0,0,1,.44.12.38.38,0,0,1,.13.3.41.41,0,0,1-.13.32.64.64,0,0,1-.44.12Zm4.63,2.79V221h-1a.67.67,0,0,1-.45-.12.45.45,0,0,1-.12-.31.35.35,0,0,1,.13-.3.66.66,0,0,1,.44-.13H265v-3.71h-.15a.67.67,0,0,1-.45-.12.45.45,0,0,1-.12-.32.45.45,0,0,1,.12-.31.67.67,0,0,1,.45-.12h1v2.9l.67-.55a.67.67,0,0,1-.1-.29.38.38,0,0,1,.13-.3.63.63,0,0,1,.43-.12h1a.64.64,0,0,1,.44.12.36.36,0,0,1,.14.3.42.42,0,0,1-.14.32.71.71,0,0,1-.44.11h-.24l-1,.85,1.4,1.24h.26a.66.66,0,0,1,.44.13.35.35,0,0,1,.13.3.42.42,0,0,1-.13.31.66.66,0,0,1-.44.12h-1a.66.66,0,0,1-.44-.12.42.42,0,0,1-.13-.31.53.53,0,0,1,.14-.33l-.91-.8Zm5.11-.69v1.26h.88a.62.62,0,0,1,.44.13.35.35,0,0,1,.13.3.42.42,0,0,1-.13.31.63.63,0,0,1-.44.12H270a.66.66,0,0,1-.44-.12.42.42,0,0,1-.13-.31.35.35,0,0,1,.13-.3.66.66,0,0,1,.44-.13h.14v-3.36H270a.66.66,0,0,1-.44-.12.41.41,0,0,1-.13-.32.38.38,0,0,1,.13-.3.66.66,0,0,1,.44-.12H274v1.31a.66.66,0,0,1-.12.44.39.39,0,0,1-.31.13.42.42,0,0,1-.32-.13.73.73,0,0,1-.1-.44v-.45H271V218h.76a.88.88,0,0,1,.06-.42.41.41,0,0,1,.36-.21.39.39,0,0,1,.31.13.63.63,0,0,1,.12.44v1a.66.66,0,0,1-.12.44.39.39,0,0,1-.31.13.41.41,0,0,1-.36-.21,1,1,0,0,1-.06-.43Zm4.5-1.34v2.6h.32a.66.66,0,0,1,.44.13.35.35,0,0,1,.13.3.42.42,0,0,1-.13.31.66.66,0,0,1-.44.12h-1.14a.63.63,0,0,1-.43-.12.43.43,0,0,1-.14-.31.38.38,0,0,1,.12-.3.62.62,0,0,1,.42-.13v-3.36h-.14a.67.67,0,0,1-.45-.12.41.41,0,0,1-.13-.32.38.38,0,0,1,.13-.3.67.67,0,0,1,.45-.12h1l2.2,3.44v-2.58h-.31a.67.67,0,0,1-.45-.12.44.44,0,0,1-.12-.32.41.41,0,0,1,.12-.3.67.67,0,0,1,.45-.12h1.12a.63.63,0,0,1,.44.12.38.38,0,0,1,.13.3.41.41,0,0,1-.13.32.54.54,0,0,1-.39.12V221h-.85Zm6.07,1.87L281,221h-.81l-.73-2.95a.58.58,0,0,1-.35-.12.44.44,0,0,1-.11-.31.38.38,0,0,1,.12-.3.67.67,0,0,1,.45-.12h.79a.63.63,0,0,1,.44.12.36.36,0,0,1,.14.3.43.43,0,0,1-.15.33.66.66,0,0,1-.44.1l.32,1.36.53-1.39h.77l.54,1.39.33-1.36a1,1,0,0,1-.42-.06.4.4,0,0,1-.2-.37.35.35,0,0,1,.13-.3.66.66,0,0,1,.44-.12h.81a.64.64,0,0,1,.44.12.36.36,0,0,1,.14.3.38.38,0,0,1-.12.29.47.47,0,0,1-.35.14L283,221h-.8Zm5.93-2v-.25h1a.63.63,0,0,1,.44.12.35.35,0,0,1,.13.3.41.41,0,0,1-.13.32.69.69,0,0,1-.44.11h-.15v3.13a1.5,1.5,0,0,1-.19.78,1.66,1.66,0,0,1-.59.59,1.64,1.64,0,0,1-.88.24h-1a.66.66,0,0,1-.44-.12.39.39,0,0,1-.13-.31.42.42,0,0,1,.13-.32.73.73,0,0,1,.44-.1h1a.86.86,0,0,0,.61-.22.7.7,0,0,0,.22-.54v-.43a2,2,0,0,1-.59.28,1.72,1.72,0,0,1-.6.1,2,2,0,0,1-1.47-.58,2,2,0,0,1-.58-1.45,1.92,1.92,0,0,1,.58-1.44,2,2,0,0,1,1.47-.59,2.12,2.12,0,0,1,.62.1A1.89,1.89,0,0,1,287.49,217.45Zm0,1.65a1.09,1.09,0,0,0-.36-.82,1.07,1.07,0,0,0-.82-.35,1.15,1.15,0,0,0-.85.35,1.12,1.12,0,0,0-.35.82,1.14,1.14,0,0,0,.35.82,1.19,1.19,0,0,0,.85.35,1.21,1.21,0,0,0,1.18-1.17Zm5.4-3a.42.42,0,0,1,.17-.16.37.37,0,0,1,.21-.06.38.38,0,0,1,.3.13.66.66,0,0,1,.12.44v.73a.66.66,0,0,1-.12.44.38.38,0,0,1-.3.13.37.37,0,0,1-.28-.1.55.55,0,0,1-.16-.35.66.66,0,0,0-.11-.28,1.16,1.16,0,0,0-.49-.29,1.62,1.62,0,0,0-.61-.12,1.47,1.47,0,0,0-.72.17,1.56,1.56,0,0,0-.57.55,1.6,1.6,0,0,0-.24.89v.56a1.35,1.35,0,0,0,.45,1,1.77,1.77,0,0,0,1.25.42,2.14,2.14,0,0,0,.81-.14,1.36,1.36,0,0,0,.41-.29.8.8,0,0,1,.21-.17.31.31,0,0,1,.17,0,.41.41,0,0,1,.3.13.44.44,0,0,1,.14.31.59.59,0,0,1-.19.38,1.82,1.82,0,0,1-.65.46,3.09,3.09,0,0,1-1.2.22,2.9,2.9,0,0,1-1.36-.31,2.2,2.2,0,0,1-.85-.79,2.18,2.18,0,0,1-.35-1.19v-.59a2.65,2.65,0,0,1,.31-1.24,2.17,2.17,0,0,1,.86-.89,2.41,2.41,0,0,1,1.19-.32,2.61,2.61,0,0,1,.69.09A2.2,2.2,0,0,1,292.88,216.14Zm5.79,3.39h-3.52a1.13,1.13,0,0,0,.48.54,1.72,1.72,0,0,0,.92.21,5.24,5.24,0,0,0,1.27-.21,2.11,2.11,0,0,1,.45-.09.37.37,0,0,1,.28.13.41.41,0,0,1,.12.3.42.42,0,0,1-.12.3,2.43,2.43,0,0,1-.82.29,6,6,0,0,1-1.24.13,2.37,2.37,0,0,1-1.66-.57,1.94,1.94,0,0,1-.61-1.44,1.82,1.82,0,0,1,.66-1.46,2.32,2.32,0,0,1,1.55-.57,2.49,2.49,0,0,1,1,.18,1.91,1.91,0,0,1,.65.39,2.5,2.5,0,0,1,.5.77,1.85,1.85,0,0,1,.13.74Zm-.95-.86a1.36,1.36,0,0,0-.51-.55,1.53,1.53,0,0,0-.76-.18,1.37,1.37,0,0,0-1.28.73Zm2.92-1.47v.29a1.49,1.49,0,0,1,.51-.31,2.06,2.06,0,0,1,.62-.09,1.61,1.61,0,0,1,1.21.46,1.42,1.42,0,0,1,.35,1v1.59a.54.54,0,0,1,.39.13.35.35,0,0,1,.13.3.42.42,0,0,1-.13.31.63.63,0,0,1-.44.12h-.77a.67.67,0,0,1-.45-.12.42.42,0,0,1-.13-.31.35.35,0,0,1,.13-.3.6.6,0,0,1,.4-.13v-1.63a.48.48,0,0,0-.14-.4.91.91,0,0,0-.6-.17,1.11,1.11,0,0,0-.52.12,2,2,0,0,0-.56.49v1.59a.91.91,0,0,1,.42.06.43.43,0,0,1,.08.68.66.66,0,0,1-.44.12h-1a.67.67,0,0,1-.45-.12.45.45,0,0,1-.12-.31.43.43,0,0,1,.2-.37.91.91,0,0,1,.42-.06v-2.09a.58.58,0,0,1-.4-.12.45.45,0,0,1-.12-.31.38.38,0,0,1,.12-.3.67.67,0,0,1,.45-.12Zm5,1.86v1.08h.31a.66.66,0,0,1,.44.13.38.38,0,0,1,.13.3.46.46,0,0,1-.13.31.66.66,0,0,1-.44.12h-1.31a.66.66,0,0,1-.44-.12.42.42,0,0,1-.13-.31.35.35,0,0,1,.13-.3.66.66,0,0,1,.44-.13h.14v-3.36h-.14a.66.66,0,0,1-.44-.12.41.41,0,0,1-.13-.32.38.38,0,0,1,.13-.3.66.66,0,0,1,.44-.12h1.95a2,2,0,0,1,1.4.45,1.39,1.39,0,0,1,.5,1.09,1.18,1.18,0,0,1-.23.73,2,2,0,0,1-.7.59,7.11,7.11,0,0,1,.58.61,7.63,7.63,0,0,1,.51.75,1,1,0,0,1,.44.06.46.46,0,0,1,.18.37.42.42,0,0,1-.13.31.61.61,0,0,1-.43.12h-.5a5.32,5.32,0,0,0-1.73-1.94Zm0-.87h.67a1.69,1.69,0,0,0,.66-.11,1.19,1.19,0,0,0,.54-.31.56.56,0,0,0,.13-.33.58.58,0,0,0-.27-.45,1.16,1.16,0,0,0-.75-.21h-1Zm4.11,1.95v-3.36h-.13a.64.64,0,0,1-.44-.12.41.41,0,0,1-.13-.32.38.38,0,0,1,.13-.3.64.64,0,0,1,.44-.12h2.16a1.77,1.77,0,0,1,1.23.42,1.36,1.36,0,0,1,.47,1,1.23,1.23,0,0,1-.11.53,1.37,1.37,0,0,1-.33.45,1.78,1.78,0,0,1,.61.57,1.33,1.33,0,0,1,.21.74,1.2,1.2,0,0,1-.15.59.93.93,0,0,1-.26.34,1.76,1.76,0,0,1-.54.3,2.41,2.41,0,0,1-.77.11h-2.52a.64.64,0,0,1-.44-.12.42.42,0,0,1-.13-.31.35.35,0,0,1,.13-.3.64.64,0,0,1,.44-.13Zm.87-2.12h.93a1.34,1.34,0,0,0,.85-.25.54.54,0,0,0,.23-.43.48.48,0,0,0-.22-.39,1.08,1.08,0,0,0-.67-.17h-1.12Zm0,2.12h1.49a1.23,1.23,0,0,0,.73-.16.39.39,0,0,0,.15-.33.67.67,0,0,0-.31-.51,1.45,1.45,0,0,0-.93-.25h-1.13Zm5.39-.89v.89h.86a.64.64,0,0,1,.44.13.36.36,0,0,1,.14.3.43.43,0,0,1-.14.31.64.64,0,0,1-.44.12H315a.66.66,0,0,1-.44-.12.42.42,0,0,1-.13-.31.35.35,0,0,1,.13-.3.66.66,0,0,1,.44-.13h.13v-3.36H315a.66.66,0,0,1-.44-.12.41.41,0,0,1-.13-.32.38.38,0,0,1,.13-.3.66.66,0,0,1,.44-.12h2a1.9,1.9,0,0,1,1.38.47,1.59,1.59,0,0,1,.34,1.88,1.66,1.66,0,0,1-.42.5,2.54,2.54,0,0,1-.63.36,2.41,2.41,0,0,1-.84.12Zm0-.85h.79a1.42,1.42,0,0,0,.89-.25.76.76,0,0,0,.33-.61.66.66,0,0,0-.27-.53,1.14,1.14,0,0,0-.75-.23h-1Zm3.56,1.74v-3.36a.75.75,0,0,1-.42-.12.44.44,0,0,1-.12-.32.39.39,0,0,1,.14-.3.64.64,0,0,1,.44-.12h1.8a2.33,2.33,0,0,1,.82.15,2.18,2.18,0,0,1,.64.39,3.24,3.24,0,0,1,.38.5,2.59,2.59,0,0,1,.29.64,2.26,2.26,0,0,1,.11.74v.41a2.52,2.52,0,0,1-.18,1,1.92,1.92,0,0,1-.49.68,2.38,2.38,0,0,1-.56.39,2.57,2.57,0,0,1-1.08.2h-1.73a.64.64,0,0,1-.44-.12.43.43,0,0,1-.14-.31.43.43,0,0,1,.14-.32A.58.58,0,0,1,319.54,220.14Zm.85,0h.92a1.41,1.41,0,0,0,.76-.16,1.32,1.32,0,0,0,.52-.47,1.61,1.61,0,0,0,.17-.78v-.4a1.59,1.59,0,0,0-.15-.72,1.46,1.46,0,0,0-.55-.65,1.49,1.49,0,0,0-.77-.18h-.9Z" transform="translate(-241.64 -119.36)"/>
    <path d="M245,121.75v.9a2.8,2.8,0,0,1-.57,1.85,1.32,1.32,0,0,1-1.09.53,1.54,1.54,0,0,1-.61-.12,1.32,1.32,0,0,1-.48-.36,2.42,2.42,0,0,1-.27-.46,2.74,2.74,0,0,1-.21-.58,3.13,3.13,0,0,1-.1-.86v-.9a2.89,2.89,0,0,1,.55-1.85,1.38,1.38,0,0,1,1.11-.54,1.35,1.35,0,0,1,.6.13,1.52,1.52,0,0,1,.48.35,2.26,2.26,0,0,1,.27.47,3.2,3.2,0,0,1,.22.56A3.87,3.87,0,0,1,245,121.75Zm-.37,0a2.89,2.89,0,0,0-.15-.94,2.71,2.71,0,0,0-.32-.72.85.85,0,0,0-.28-.25,1,1,0,0,0-.55-.16,1.08,1.08,0,0,0-1,.63,3,3,0,0,0-.34,1.44v.8a3.34,3.34,0,0,0,.14,1,3,3,0,0,0,.33.71,1.38,1.38,0,0,0,.28.25,1.05,1.05,0,0,0,1.5-.47,2.87,2.87,0,0,0,.35-1.46Zm5.67,0v.9a2.8,2.8,0,0,1-.56,1.85,1.32,1.32,0,0,1-1.09.53,1.63,1.63,0,0,1-.62-.12,1.51,1.51,0,0,1-.48-.36,3.25,3.25,0,0,1-.26-.46,2.74,2.74,0,0,1-.21-.58,3.13,3.13,0,0,1-.1-.86v-.9a2.83,2.83,0,0,1,.55-1.85,1.36,1.36,0,0,1,1.1-.54,1.39,1.39,0,0,1,.61.13,1.48,1.48,0,0,1,.47.35,1.86,1.86,0,0,1,.28.47,3.07,3.07,0,0,1,.21.56A3.38,3.38,0,0,1,250.28,121.75Zm-.36,0a2.89,2.89,0,0,0-.15-.94,2.42,2.42,0,0,0-.33-.72.82.82,0,0,0-.27-.25,1,1,0,0,0-.56-.16,1.06,1.06,0,0,0-1,.63,2.89,2.89,0,0,0-.34,1.44v.8a3.34,3.34,0,0,0,.14,1,3,3,0,0,0,.33.71,1.31,1.31,0,0,0,.27.25,1.1,1.1,0,0,0,.57.15,1,1,0,0,0,.94-.62,3,3,0,0,0,.35-1.46Zm3-1.93v1.77a3.25,3.25,0,0,1,.6-.2,3,3,0,0,1,.57-.07,1.5,1.5,0,0,1,1.13.48,1.73,1.73,0,0,1,.46,1.26,2,2,0,0,1-.51,1.4,1.73,1.73,0,0,1-1.3.53,2.3,2.3,0,0,1-1-.22,3.17,3.17,0,0,1-.62-.41c-.1-.09-.16-.16-.16-.22a.2.2,0,0,1,0-.14.18.18,0,0,1,.13-.05.25.25,0,0,1,.16.07,2,2,0,0,0,1.42.61,1.36,1.36,0,0,0,1-.43,1.6,1.6,0,0,0,.42-1.15,1.28,1.28,0,0,0-.37-1,1.14,1.14,0,0,0-.9-.38,2.35,2.35,0,0,0-1.13.29.49.49,0,0,1-.19.07.16.16,0,0,1-.14,0,.27.27,0,0,1,0-.15v-2.4h2.53a.31.31,0,0,1,.19.05.21.21,0,0,1,.05.13.22.22,0,0,1-.05.14.31.31,0,0,1-.19,0Zm6.06,1.68v3h1.59a.26.26,0,0,1,.18,0,.17.17,0,0,1,.06.14.18.18,0,0,1-.06.13.26.26,0,0,1-.18,0h-2.84a.3.3,0,0,1-.18,0,.17.17,0,0,1-.05-.13.16.16,0,0,1,.05-.14.3.3,0,0,1,.18,0h.88v-3h-.79a.36.36,0,0,1-.19-.05.24.24,0,0,1-.05-.14.17.17,0,0,1,.05-.12.25.25,0,0,1,.19-.07h.79v-.54a1,1,0,0,1,.37-.79,1.4,1.4,0,0,1,1-.34,7.06,7.06,0,0,1,1.09.09.53.53,0,0,1,.27.09.15.15,0,0,1,.05.12.19.19,0,0,1-.05.13.22.22,0,0,1-.14,0h-.11a7.19,7.19,0,0,0-1.11-.1,1,1,0,0,0-.74.24.67.67,0,0,0-.25.52v.54h1.69c.1,0,.16,0,.19.07a.15.15,0,0,1,.07.12.21.21,0,0,1-.07.14.27.27,0,0,1-.19.05Zm4,3h2.79v-.14a.26.26,0,0,1,.05-.18.17.17,0,0,1,.13,0,.17.17,0,0,1,.14,0,.26.26,0,0,1,.05.18v.51h-3.51v-.54c.74-.66,1.46-1.34,2.15-2a7.55,7.55,0,0,0,.67-.69,1.42,1.42,0,0,0,.25-.4,1.06,1.06,0,0,0,.06-.34,1.11,1.11,0,0,0-.38-.83,1.22,1.22,0,0,0-.9-.36,1.39,1.39,0,0,0-1.32,1,.31.31,0,0,1-.06.13.17.17,0,0,1-.12,0,.18.18,0,0,1-.12,0,.19.19,0,0,1-.05-.13,1.16,1.16,0,0,1,.23-.55,1.58,1.58,0,0,1,.62-.55,1.75,1.75,0,0,1,.82-.21,1.62,1.62,0,0,1,1.17.47,1.47,1.47,0,0,1,.49,1.07,1.14,1.14,0,0,1-.09.46,1.57,1.57,0,0,1-.28.46c-.13.16-.37.4-.7.74-.85.84-1.55,1.49-2.09,2Zm5.79-1.93a2.71,2.71,0,0,1,.69-.73,1.41,1.41,0,0,1,.79-.24,1.35,1.35,0,0,1,1,.49,1.65,1.65,0,0,1,.45,1.18,1.93,1.93,0,0,1-.41,1.19,1.33,1.33,0,0,1-1.13.53,1.45,1.45,0,0,1-.88-.29,1.92,1.92,0,0,1-.64-.89,4.52,4.52,0,0,1-.29-1.64,2.82,2.82,0,0,1,.28-1.27,2.41,2.41,0,0,1,.54-.79,2.58,2.58,0,0,1,.81-.57,2.25,2.25,0,0,1,1-.22,1.21,1.21,0,0,1,.6.14.2.2,0,0,1,.06.31.19.19,0,0,1-.13,0,.28.28,0,0,1-.12,0,1.06,1.06,0,0,0-.45-.09,2.1,2.1,0,0,0-1.54.73,2.41,2.41,0,0,0-.69,1.72C268.73,122.26,268.74,122.41,268.76,122.61Zm.09.6a2.21,2.21,0,0,0,.51,1.13,1.18,1.18,0,0,0,.83.33,1.08,1.08,0,0,0,.82-.38,1.4,1.4,0,0,0,.35-1,1.29,1.29,0,0,0-.35-.93,1,1,0,0,0-.78-.37,1.19,1.19,0,0,0-.81.36A3,3,0,0,0,268.85,123.21Zm6.48-3.79v5.12h1.25a.25.25,0,0,1,.17,0,.17.17,0,0,1,.07.14.19.19,0,0,1-.07.13.25.25,0,0,1-.17,0h-2.85a.38.38,0,0,1-.21,0,.21.21,0,0,1,0-.13.2.2,0,0,1,0-.14.38.38,0,0,1,.21,0H275v-4.62l-1.19.36-.13,0a.16.16,0,0,1-.11,0,.15.15,0,0,1-.05-.13.27.27,0,0,1,0-.12.46.46,0,0,1,.16-.08ZM281.2,122a1.79,1.79,0,0,1,.76.61,1.47,1.47,0,0,1,.26.82,1.52,1.52,0,0,1-.53,1.15,1.84,1.84,0,0,1-1.31.49,2.65,2.65,0,0,1-1-.19,1.88,1.88,0,0,1-.7-.41.18.18,0,0,1-.07-.15.16.16,0,0,1,.05-.11.16.16,0,0,1,.12-.06.35.35,0,0,1,.16.07,2.39,2.39,0,0,0,1.42.49,1.46,1.46,0,0,0,1-.39,1.15,1.15,0,0,0,.43-.88,1,1,0,0,0-.22-.63,1.31,1.31,0,0,0-.59-.49,1.87,1.87,0,0,0-.79-.19.28.28,0,0,1-.2,0,.17.17,0,0,1-.05-.12.19.19,0,0,1,.05-.13.24.24,0,0,1,.18-.06h.3a1.12,1.12,0,0,0,.8-.3.91.91,0,0,0,.33-.69,1,1,0,0,0-.34-.72,1.2,1.2,0,0,0-.87-.31,1.74,1.74,0,0,0-.69.14,1.22,1.22,0,0,0-.5.35.53.53,0,0,1-.11.11.15.15,0,0,1-.08,0,.14.14,0,0,1-.12-.06.13.13,0,0,1,0-.12c0-.12.12-.26.37-.44a2,2,0,0,1,1.18-.36,1.56,1.56,0,0,1,1.13.41,1.28,1.28,0,0,1,.44,1,1.27,1.27,0,0,1-.21.69A1.46,1.46,0,0,1,281.2,122ZM287,120v-.16h-2.6v.31a.29.29,0,0,1-.05.19.17.17,0,0,1-.13,0,.21.21,0,0,1-.13,0,.29.29,0,0,1-.05-.19v-.68h3.33v.58l-1.47,4.66a.21.21,0,0,1-.07.15.17.17,0,0,1-.12,0,.17.17,0,0,1-.12,0,.21.21,0,0,1-.05-.13.74.74,0,0,1,0-.12Zm5.58,1.82a2.13,2.13,0,0,1-.68.74,1.37,1.37,0,0,1-.79.25,1.42,1.42,0,0,1-.72-.21,1.51,1.51,0,0,1-.56-.63,1.89,1.89,0,0,1-.2-.88,2,2,0,0,1,.4-1.2,1.3,1.3,0,0,1,1.1-.55,1.43,1.43,0,0,1,.9.31,2,2,0,0,1,.64.88,4.88,4.88,0,0,1,.29,1.74,2.78,2.78,0,0,1-.26,1.27,2.25,2.25,0,0,1-.47.68,3.19,3.19,0,0,1-.72.53,2.63,2.63,0,0,1-1.13.26,1.18,1.18,0,0,1-.63-.14.21.21,0,0,1-.11-.17.15.15,0,0,1,.05-.13.18.18,0,0,1,.12,0,.47.47,0,0,1,.16,0,.9.9,0,0,0,.39.08,2.14,2.14,0,0,0,1.57-.66,2.27,2.27,0,0,0,.66-1.67C292.57,122.23,292.57,122.06,292.56,121.84Zm-.08-.6a2.52,2.52,0,0,0-.56-1.19,1.11,1.11,0,0,0-.79-.33,1.07,1.07,0,0,0-.82.39,1.45,1.45,0,0,0-.35,1,1.42,1.42,0,0,0,.35,1,1.06,1.06,0,0,0,.79.38,1,1,0,0,0,.5-.14,1.64,1.64,0,0,0,.48-.41A5.29,5.29,0,0,0,292.48,121.24Zm4.08-1.82v5.12h1.24a.28.28,0,0,1,.18,0,.17.17,0,0,1,.06.14.18.18,0,0,1-.06.13.28.28,0,0,1-.18,0H295a.34.34,0,0,1-.2,0,.21.21,0,0,1-.05-.13.2.2,0,0,1,.05-.14.34.34,0,0,1,.2,0h1.24v-4.62l-1.19.36-.12,0a.17.17,0,0,1-.12,0,.19.19,0,0,1-.05-.13.28.28,0,0,1,0-.12.4.4,0,0,1,.15-.08Zm3.75.07v2.4a2,2,0,0,1,1.59-.85,1.82,1.82,0,0,1,1.36.58,1.9,1.9,0,0,1,.56,1.4,2,2,0,0,1-.57,1.45,1.85,1.85,0,0,1-1.35.57,1.91,1.91,0,0,1-1.59-.85v.72h-.84a.38.38,0,0,1-.21,0,.21.21,0,0,1-.05-.13.2.2,0,0,1,.05-.14.38.38,0,0,1,.21,0H300v-4.68h-.49a.38.38,0,0,1-.21,0,.22.22,0,0,1-.05-.14.21.21,0,0,1,.05-.13.38.38,0,0,1,.21-.05Zm3.15,3.56a1.59,1.59,0,0,0-.48-1.17,1.47,1.47,0,0,0-1.09-.48,1.52,1.52,0,0,0-1.11.48,1.61,1.61,0,0,0-.46,1.17,1.58,1.58,0,0,0,.46,1.15,1.52,1.52,0,0,0,1.11.48,1.47,1.47,0,0,0,1.09-.48A1.56,1.56,0,0,0,303.46,123.05Zm4.28-1.09a1.82,1.82,0,0,1,.75.61,1.4,1.4,0,0,1,.26.82,1.54,1.54,0,0,1-.52,1.15,1.88,1.88,0,0,1-1.32.49,2.69,2.69,0,0,1-1-.19,1.88,1.88,0,0,1-.7-.41.18.18,0,0,1-.07-.15.16.16,0,0,1,.05-.11.16.16,0,0,1,.12-.06.31.31,0,0,1,.16.07,2.39,2.39,0,0,0,1.42.49,1.44,1.44,0,0,0,1-.39,1.15,1.15,0,0,0,.43-.88,1.08,1.08,0,0,0-.21-.63,1.4,1.4,0,0,0-.6-.49,1.84,1.84,0,0,0-.79-.19.28.28,0,0,1-.2,0,.17.17,0,0,1,0-.12.19.19,0,0,1,0-.13.24.24,0,0,1,.18-.06h.3a1.1,1.1,0,0,0,.8-.3.91.91,0,0,0,.33-.69,1,1,0,0,0-.34-.72,1.18,1.18,0,0,0-.86-.31,1.75,1.75,0,0,0-.7.14,1.29,1.29,0,0,0-.5.35l-.11.11-.08,0a.14.14,0,0,1-.12-.06.13.13,0,0,1-.05-.12c0-.12.12-.26.37-.44a2,2,0,0,1,1.19-.36,1.53,1.53,0,0,1,1.12.41,1.28,1.28,0,0,1,.44,1,1.27,1.27,0,0,1-.21.69A1.49,1.49,0,0,1,307.74,122Zm3.47.65a2.57,2.57,0,0,1,.69-.73,1.41,1.41,0,0,1,.79-.24,1.35,1.35,0,0,1,1,.49,1.65,1.65,0,0,1,.45,1.18,1.93,1.93,0,0,1-.41,1.19,1.33,1.33,0,0,1-1.13.53,1.45,1.45,0,0,1-.88-.29,1.92,1.92,0,0,1-.64-.89,4.52,4.52,0,0,1-.29-1.64,3,3,0,0,1,.27-1.27,2.7,2.7,0,0,1,1.36-1.36,2.24,2.24,0,0,1,1-.22,1.22,1.22,0,0,1,.61.14.2.2,0,0,1,.06.31.19.19,0,0,1-.13,0,.28.28,0,0,1-.12,0,1.06,1.06,0,0,0-.45-.09,2.08,2.08,0,0,0-1.54.73,2.41,2.41,0,0,0-.69,1.72C311.18,122.26,311.19,122.41,311.21,122.61Zm.09.6a2.21,2.21,0,0,0,.51,1.13,1.16,1.16,0,0,0,.83.33,1.08,1.08,0,0,0,.82-.38,1.4,1.4,0,0,0,.35-1,1.29,1.29,0,0,0-.35-.93,1,1,0,0,0-.78-.37,1.19,1.19,0,0,0-.81.36A3,3,0,0,0,311.3,123.21Zm6.06-1.67v3H319a.28.28,0,0,1,.18,0,.17.17,0,0,1,.06.14.18.18,0,0,1-.06.13.28.28,0,0,1-.18,0h-2.84a.36.36,0,0,1-.19,0,.2.2,0,0,1,0-.13.2.2,0,0,1,0-.14.36.36,0,0,1,.19,0H317v-3h-.79a.33.33,0,0,1-.19-.05.24.24,0,0,1-.05-.14.17.17,0,0,1,.05-.12.24.24,0,0,1,.19-.07H317v-.54a1,1,0,0,1,.37-.79,1.4,1.4,0,0,1,1-.34,7.06,7.06,0,0,1,1.09.09.53.53,0,0,1,.27.09.15.15,0,0,1,0,.12.18.18,0,0,1,0,.13.24.24,0,0,1-.14,0h-.12a7,7,0,0,0-1.1-.1,1,1,0,0,0-.74.24.67.67,0,0,0-.25.52v.54h1.69a.21.21,0,0,1,.19.07.14.14,0,0,1,.06.12.2.2,0,0,1-.06.14.29.29,0,0,1-.19.05Zm4.46,1.07a2.88,2.88,0,0,1,.69-.73,1.41,1.41,0,0,1,.79-.24,1.35,1.35,0,0,1,1,.49,1.61,1.61,0,0,1,.45,1.18,1.87,1.87,0,0,1-.41,1.19,1.32,1.32,0,0,1-1.13.53,1.47,1.47,0,0,1-.88-.29,1.92,1.92,0,0,1-.64-.89,4.52,4.52,0,0,1-.29-1.64,2.82,2.82,0,0,1,.28-1.27,2.41,2.41,0,0,1,.54-.79,2.52,2.52,0,0,1,.82-.57,2.18,2.18,0,0,1,1-.22,1.21,1.21,0,0,1,.6.14.19.19,0,0,1,.11.18.21.21,0,0,1,0,.13.17.17,0,0,1-.13,0,.28.28,0,0,1-.12,0,1,1,0,0,0-.45-.09,2.06,2.06,0,0,0-1.53.73,2.41,2.41,0,0,0-.69,1.72A4.16,4.16,0,0,0,321.82,122.61Zm.09.6a2.21,2.21,0,0,0,.51,1.13,1.18,1.18,0,0,0,.83.33,1.08,1.08,0,0,0,.82-.38,1.36,1.36,0,0,0,.35-1,1.25,1.25,0,0,0-.35-.93,1,1,0,0,0-.78-.37,1.17,1.17,0,0,0-.8.36A2.77,2.77,0,0,0,321.91,123.21Zm5.22-.6a2.57,2.57,0,0,1,.69-.73,1.39,1.39,0,0,1,.79-.24,1.35,1.35,0,0,1,1,.49,1.65,1.65,0,0,1,.45,1.18,1.88,1.88,0,0,1-.42,1.19,1.3,1.3,0,0,1-1.12.53,1.45,1.45,0,0,1-.88-.29,1.85,1.85,0,0,1-.64-.89,4.31,4.31,0,0,1-.29-1.64,3,3,0,0,1,.27-1.27,2.7,2.7,0,0,1,1.36-1.36,2.21,2.21,0,0,1,1-.22,1.18,1.18,0,0,1,.6.14.2.2,0,0,1,.12.18.18.18,0,0,1-.06.13.17.17,0,0,1-.12,0,.36.36,0,0,1-.13,0,1,1,0,0,0-.44-.09,2.06,2.06,0,0,0-1.54.73,2.41,2.41,0,0,0-.69,1.72C327.1,122.26,327.11,122.41,327.13,122.61Zm.08.6a2.29,2.29,0,0,0,.52,1.13,1.16,1.16,0,0,0,.83.33,1.09,1.09,0,0,0,.82-.38,1.4,1.4,0,0,0,.35-1,1.29,1.29,0,0,0-.35-.93,1,1,0,0,0-.78-.37,1.19,1.19,0,0,0-.81.36A3,3,0,0,0,327.21,123.21Zm7.52-3.19v-.16h-2.6v.31a.29.29,0,0,1-.05.19.16.16,0,0,1-.13,0,.17.17,0,0,1-.12,0,.29.29,0,0,1-.05-.19v-.68h3.33v.58l-1.47,4.66c0,.08,0,.13-.08.15a.15.15,0,0,1-.11,0,.17.17,0,0,1-.18-.18.35.35,0,0,1,0-.12Zm3.85,1.52v3h1.6a.25.25,0,0,1,.17,0,.14.14,0,0,1,.06.14.15.15,0,0,1-.06.13.25.25,0,0,1-.17,0h-2.84a.31.31,0,0,1-.19,0,.21.21,0,0,1,0-.13.2.2,0,0,1,0-.14.31.31,0,0,1,.19,0h.88v-3h-.79a.31.31,0,0,1-.19-.05.19.19,0,0,1-.05-.14.13.13,0,0,1,.05-.12.22.22,0,0,1,.19-.07h.79v-.54a1,1,0,0,1,.36-.79,1.4,1.4,0,0,1,1-.34,7.19,7.19,0,0,1,1.1.09.48.48,0,0,1,.26.09.15.15,0,0,1,.05.12.19.19,0,0,1-.05.13.2.2,0,0,1-.14,0h-.11a7.08,7.08,0,0,0-1.11-.1,1.06,1.06,0,0,0-.74.24.7.7,0,0,0-.25.52v.54h1.7c.09,0,.15,0,.18.07a.13.13,0,0,1,.07.12.17.17,0,0,1-.07.14.26.26,0,0,1-.18.05Zm7.33-2.05v5.05h.48a.31.31,0,0,1,.19,0,.16.16,0,0,1,.05.14.17.17,0,0,1-.05.13.31.31,0,0,1-.19,0h-.86v-.72a1.9,1.9,0,0,1-1.59.85,1.87,1.87,0,0,1-.94-.25,1.83,1.83,0,0,1-.72-.74,2,2,0,0,1-.27-1,1.94,1.94,0,0,1,.27-1,1.89,1.89,0,0,1,1.66-1,1.92,1.92,0,0,1,1.59.86v-2h-.48a.37.37,0,0,1-.2,0,.22.22,0,0,1-.05-.14.21.21,0,0,1,.05-.13.37.37,0,0,1,.2-.05Zm-.38,3.56a1.61,1.61,0,0,0-.46-1.17,1.54,1.54,0,0,0-2.23,0,1.66,1.66,0,0,0-.46,1.17,1.63,1.63,0,0,0,.46,1.15,1.54,1.54,0,0,0,2.23,0A1.58,1.58,0,0,0,345.53,123.05Zm2.53-3.56v2.4a2,2,0,0,1,1.6-.85,1.8,1.8,0,0,1,1.35.58,1.91,1.91,0,0,1,.57,1.4,2,2,0,0,1-.58,1.45,1.84,1.84,0,0,1-1.34.57,1.93,1.93,0,0,1-1.6-.85v.72h-.84a.34.34,0,0,1-.2,0,.21.21,0,0,1,0-.13.2.2,0,0,1,0-.14.34.34,0,0,1,.2,0h.49v-4.68h-.49a.34.34,0,0,1-.2,0,.22.22,0,0,1,0-.14.21.21,0,0,1,0-.13.34.34,0,0,1,.2-.05Zm3.15,3.56a1.58,1.58,0,0,0-.47-1.17,1.49,1.49,0,0,0-1.1-.48,1.52,1.52,0,0,0-1.1.48,1.61,1.61,0,0,0-.46,1.17,1.58,1.58,0,0,0,.46,1.15,1.52,1.52,0,0,0,1.1.48,1.49,1.49,0,0,0,1.1-.48A1.55,1.55,0,0,0,351.21,123.05Z" transform="translate(-241.64 -119.36)"/>
    <path d="M244.06,132.54a1.65,1.65,0,0,1,.68.59,1.42,1.42,0,0,1,.23.77,1.54,1.54,0,0,1-.49,1.12,1.61,1.61,0,0,1-1.17.46,1.64,1.64,0,0,1-1.18-.46,1.53,1.53,0,0,1-.48-1.12,1.42,1.42,0,0,1,.23-.77,1.72,1.72,0,0,1,.7-.59,1.81,1.81,0,0,1-.58-.47,1.33,1.33,0,0,1-.25-.77,1.4,1.4,0,0,1,.45-1,1.55,1.55,0,0,1,1.11-.46,1.51,1.51,0,0,1,1.1.46,1.39,1.39,0,0,1,.47,1,1.33,1.33,0,0,1-.25.77A1.88,1.88,0,0,1,244.06,132.54Zm.45-1.23a1,1,0,0,0-.35-.8,1.16,1.16,0,0,0-.85-.34,1.18,1.18,0,0,0-.86.34,1.1,1.1,0,0,0-.34.8,1,1,0,0,0,.34.74,1.25,1.25,0,0,0,.86.32,1.2,1.2,0,0,0,.85-.32A1,1,0,0,0,244.51,131.31Zm.1,2.6a1.1,1.1,0,0,0-.37-.83,1.38,1.38,0,0,0-1.86,0,1.14,1.14,0,0,0-.37.82,1.2,1.2,0,0,0,.38.87,1.4,1.4,0,0,0,1.85,0A1.17,1.17,0,0,0,244.61,133.91Zm6-.34h-3.69a1.81,1.81,0,0,0,.59,1.13,1.83,1.83,0,0,0,1.23.43,2.82,2.82,0,0,0,.84-.13,2.26,2.26,0,0,0,.73-.35.25.25,0,0,1,.14-.07.18.18,0,0,1,.13.06.19.19,0,0,1,.05.13.16.16,0,0,1-.07.13,2,2,0,0,1-.74.41,3.31,3.31,0,0,1-1.08.18,2.18,2.18,0,0,1-1.57-.6,2,2,0,0,1-.61-1.48,1.82,1.82,0,0,1,.58-1.36,2,2,0,0,1,1.45-.56,1.94,1.94,0,0,1,1.46.58A2,2,0,0,1,250.57,133.57Zm-.36-.36a1.57,1.57,0,0,0-.57-1,1.68,1.68,0,0,0-1.09-.38,1.64,1.64,0,0,0-1.09.38,1.61,1.61,0,0,0-.57,1Zm5.2-.92a2,2,0,0,1-.67.74,1.39,1.39,0,0,1-.79.25,1.37,1.37,0,0,1-.72-.21,1.51,1.51,0,0,1-.56-.63,1.9,1.9,0,0,1-.21-.88,2,2,0,0,1,.4-1.2,1.33,1.33,0,0,1,1.11-.56,1.41,1.41,0,0,1,.89.32,1.86,1.86,0,0,1,.64.88,4.88,4.88,0,0,1,.29,1.74,2.79,2.79,0,0,1-.25,1.27,2.49,2.49,0,0,1-.48.68,2.86,2.86,0,0,1-.71.53,2.63,2.63,0,0,1-1.13.26,1.18,1.18,0,0,1-.63-.14.2.2,0,0,1-.11-.17.17.17,0,0,1,.17-.18.43.43,0,0,1,.15,0,.93.93,0,0,0,.39.08,2.12,2.12,0,0,0,1.57-.66,2.24,2.24,0,0,0,.67-1.67C255.43,132.68,255.42,132.51,255.41,132.29Zm-.07-.6a2.43,2.43,0,0,0-.57-1.19,1.09,1.09,0,0,0-.79-.33,1.05,1.05,0,0,0-.81.39,1.41,1.41,0,0,0-.36,1,1.38,1.38,0,0,0,.36,1,1.06,1.06,0,0,0,.79.38,1.05,1.05,0,0,0,.5-.14,1.64,1.64,0,0,0,.48-.41A6.85,6.85,0,0,0,255.34,131.69Zm2.89-1.38v1.77a3.1,3.1,0,0,1,.61-.2,3,3,0,0,1,.56-.07,1.49,1.49,0,0,1,1.13.48,1.74,1.74,0,0,1,.47,1.26,1.91,1.91,0,0,1-.52,1.4,1.69,1.69,0,0,1-1.29.53,2.27,2.27,0,0,1-1-.22,2.9,2.9,0,0,1-.62-.41c-.11-.09-.16-.16-.16-.22a.2.2,0,0,1,.05-.14.21.21,0,0,1,.12-.05.27.27,0,0,1,.17.07,2,2,0,0,0,1.42.61,1.39,1.39,0,0,0,1-.43,1.6,1.6,0,0,0,.41-1.16,1.31,1.31,0,0,0-.36-1,1.16,1.16,0,0,0-.91-.38,2.4,2.4,0,0,0-1.13.29.46.46,0,0,1-.18.07.2.2,0,0,1-.14,0,.21.21,0,0,1,0-.15v-2.4h2.52a.27.27,0,0,1,.19.05.17.17,0,0,1,.05.13.17.17,0,0,1-.05.14.27.27,0,0,1-.19.05Zm5.22,2.75a2.88,2.88,0,0,1,.69-.73,1.43,1.43,0,0,1,.79-.24,1.35,1.35,0,0,1,1,.49,1.62,1.62,0,0,1,.46,1.18A1.88,1.88,0,0,1,266,135a1.32,1.32,0,0,1-1.13.53,1.47,1.47,0,0,1-.88-.29,2,2,0,0,1-.64-.89,4.52,4.52,0,0,1-.29-1.64,3,3,0,0,1,.28-1.27,2.41,2.41,0,0,1,.54-.79,2.63,2.63,0,0,1,.82-.57,2.25,2.25,0,0,1,1-.23,1,1,0,0,1,.6.16.19.19,0,0,1,.12.17.17.17,0,0,1-.18.18.27.27,0,0,1-.13-.05,1,1,0,0,0-.45-.09,2.06,2.06,0,0,0-1.53.73,2.41,2.41,0,0,0-.69,1.72C263.43,132.71,263.44,132.86,263.45,133.06Zm.09.6a2.13,2.13,0,0,0,.52,1.13,1.16,1.16,0,0,0,.82.33,1.08,1.08,0,0,0,.82-.38,1.4,1.4,0,0,0,.35-1,1.29,1.29,0,0,0-.35-.93,1,1,0,0,0-.78-.37,1.19,1.19,0,0,0-.8.36A2.77,2.77,0,0,0,263.54,133.66Zm8-1.46v.9a2.82,2.82,0,0,1-.57,1.85,1.32,1.32,0,0,1-1.09.53,1.54,1.54,0,0,1-.61-.12,1.44,1.44,0,0,1-.48-.36,2.49,2.49,0,0,1-.26-.46,2.34,2.34,0,0,1-.22-.58,3.13,3.13,0,0,1-.1-.86v-.9a2.94,2.94,0,0,1,.55-1.86,1.39,1.39,0,0,1,1.11-.54,1.33,1.33,0,0,1,.6.14,1.52,1.52,0,0,1,.48.35,2.21,2.21,0,0,1,.28.47,3.07,3.07,0,0,1,.21.56A3.38,3.38,0,0,1,271.51,132.2Zm-.36,0a2.89,2.89,0,0,0-.15-.94,3.05,3.05,0,0,0-.33-.72.85.85,0,0,0-.28-.25,1,1,0,0,0-.55-.16,1.08,1.08,0,0,0-1,.63,3,3,0,0,0-.33,1.44v.81a3.32,3.32,0,0,0,.13,1,3,3,0,0,0,.33.71,1.72,1.72,0,0,0,.28.25,1.05,1.05,0,0,0,1.5-.47,2.86,2.86,0,0,0,.36-1.45Zm4.75.3a1.65,1.65,0,0,1,.68.59,1.41,1.41,0,0,1,.22.77,1.5,1.5,0,0,1-.49,1.12,1.59,1.59,0,0,1-1.16.46A1.68,1.68,0,0,1,274,135a1.56,1.56,0,0,1-.47-1.12,1.41,1.41,0,0,1,.22-.77,1.75,1.75,0,0,1,.71-.59,1.81,1.81,0,0,1-.58-.47,1.27,1.27,0,0,1-.25-.77,1.4,1.4,0,0,1,.45-1,1.55,1.55,0,0,1,1.11-.46,1.51,1.51,0,0,1,1.1.46,1.38,1.38,0,0,1,.46,1,1.27,1.27,0,0,1-.25.77A1.71,1.71,0,0,1,275.9,132.54Zm.45-1.23a1.08,1.08,0,0,0-.35-.8,1.25,1.25,0,0,0-1.71,0,1.1,1.1,0,0,0-.34.8,1,1,0,0,0,.34.74,1.24,1.24,0,0,0,.86.32,1.21,1.21,0,0,0,.85-.32A1,1,0,0,0,276.35,131.31Zm.1,2.6a1.11,1.11,0,0,0-.38-.83,1.37,1.37,0,0,0-1.85,0,1.1,1.1,0,0,0-.37.82,1.2,1.2,0,0,0,.38.87,1.38,1.38,0,0,0,1.84,0A1.18,1.18,0,0,0,276.45,133.91Zm2.63-4v2.4a2,2,0,0,1,1.6-.85,1.8,1.8,0,0,1,1.35.58,1.91,1.91,0,0,1,.57,1.4,2,2,0,0,1-.58,1.45,1.82,1.82,0,0,1-1.34.57,1.93,1.93,0,0,1-1.6-.85v.72h-.84a.34.34,0,0,1-.2-.05.21.21,0,0,1-.05-.13A.22.22,0,0,1,278,135a.34.34,0,0,1,.2,0h.49v-4.68h-.49a.34.34,0,0,1-.2-.05.22.22,0,0,1-.05-.14A.21.21,0,0,1,278,130a.34.34,0,0,1,.2-.05Zm3.15,3.56a1.58,1.58,0,0,0-.47-1.17,1.49,1.49,0,0,0-1.1-.48,1.52,1.52,0,0,0-1.1.48,1.62,1.62,0,0,0-.47,1.17,1.58,1.58,0,0,0,.47,1.15,1.52,1.52,0,0,0,1.1.48,1.49,1.49,0,0,0,1.1-.48A1.54,1.54,0,0,0,282.23,133.5Zm2.53-3.19v1.77a3.33,3.33,0,0,1,.61-.2,3,3,0,0,1,.56-.07,1.47,1.47,0,0,1,1.13.48,1.74,1.74,0,0,1,.47,1.26A1.91,1.91,0,0,1,287,135a1.69,1.69,0,0,1-1.29.53,2.3,2.3,0,0,1-1-.22,2.9,2.9,0,0,1-.62-.41c-.11-.09-.16-.16-.16-.22a.2.2,0,0,1,.05-.14.21.21,0,0,1,.12-.05.27.27,0,0,1,.17.07,2,2,0,0,0,1.42.61,1.39,1.39,0,0,0,1-.43,1.6,1.6,0,0,0,.41-1.16,1.31,1.31,0,0,0-.36-1,1.15,1.15,0,0,0-.9-.38,2.41,2.41,0,0,0-1.14.29.46.46,0,0,1-.18.07.2.2,0,0,1-.14,0,.21.21,0,0,1,0-.15v-2.4h2.53a.26.26,0,0,1,.18.05.17.17,0,0,1,.05.13.17.17,0,0,1-.05.14.26.26,0,0,1-.18.05Zm5.31,0v1.77a3.25,3.25,0,0,1,.6-.2,3.05,3.05,0,0,1,.57-.07,1.49,1.49,0,0,1,1.13.48,1.74,1.74,0,0,1,.47,1.26,2,2,0,0,1-.52,1.4,1.71,1.71,0,0,1-1.29.53,2.31,2.31,0,0,1-1-.22,2.83,2.83,0,0,1-.61-.41c-.11-.09-.16-.16-.16-.22a.2.2,0,0,1,0-.14.27.27,0,0,1,.13-.05.23.23,0,0,1,.16.07,2,2,0,0,0,1.42.61,1.4,1.4,0,0,0,1.05-.43,1.64,1.64,0,0,0,.41-1.16,1.31,1.31,0,0,0-.36-1,1.17,1.17,0,0,0-.91-.38,2.38,2.38,0,0,0-1.13.29.49.49,0,0,1-.19.07.17.17,0,0,1-.13,0,.21.21,0,0,1,0-.15v-2.4h2.52a.29.29,0,0,1,.19.05.21.21,0,0,1,.05.13.22.22,0,0,1-.05.14.29.29,0,0,1-.19.05Zm8.26,3.26h-3.69a1.72,1.72,0,0,0,.59,1.13,1.79,1.79,0,0,0,1.23.43,2.87,2.87,0,0,0,.84-.13,2.36,2.36,0,0,0,.73-.35.23.23,0,0,1,.14-.07.14.14,0,0,1,.12.06.19.19,0,0,1,0,.13.18.18,0,0,1-.06.13,2,2,0,0,1-.74.41,3.31,3.31,0,0,1-1.08.18,2.18,2.18,0,0,1-1.57-.6,2,2,0,0,1-.62-1.48,1.82,1.82,0,0,1,.58-1.36,2,2,0,0,1,1.46-.56,1.91,1.91,0,0,1,1.45.58A2,2,0,0,1,298.33,133.57Zm-.37-.36a1.51,1.51,0,0,0-.56-1,1.77,1.77,0,0,0-2.19,0,1.59,1.59,0,0,0-.56,1Zm4.47-.81a1.79,1.79,0,0,1,.75.62,1.41,1.41,0,0,1,.27.82,1.55,1.55,0,0,1-.53,1.15,1.84,1.84,0,0,1-1.32.49,2.69,2.69,0,0,1-1-.19,2,2,0,0,1-.7-.41.2.2,0,0,1-.06-.15.13.13,0,0,1,.05-.11.14.14,0,0,1,.11-.06.28.28,0,0,1,.16.07,2.42,2.42,0,0,0,1.42.49,1.44,1.44,0,0,0,1-.39,1.15,1.15,0,0,0,.43-.88,1.08,1.08,0,0,0-.21-.63,1.37,1.37,0,0,0-.59-.49,1.91,1.91,0,0,0-.79-.19.34.34,0,0,1-.2,0,.13.13,0,0,1-.05-.12.15.15,0,0,1,.05-.13.24.24,0,0,1,.17-.06h.3a1.13,1.13,0,0,0,.81-.3.9.9,0,0,0,.32-.69,1,1,0,0,0-.34-.72,1.16,1.16,0,0,0-.86-.31,1.58,1.58,0,0,0-.69.14,1.16,1.16,0,0,0-.5.35c-.06.06-.09.1-.12.11h-.07a.15.15,0,0,1-.13-.05.17.17,0,0,1-.05-.12c0-.12.13-.27.38-.44a2,2,0,0,1,1.18-.37,1.56,1.56,0,0,1,1.13.42,1.32,1.32,0,0,1,.44,1,1.27,1.27,0,0,1-.21.69A1.43,1.43,0,0,1,302.43,132.4Zm6.34-2.46V135h.47a.29.29,0,0,1,.19,0,.18.18,0,0,1,.06.14.18.18,0,0,1-.06.13.29.29,0,0,1-.19.05h-.85v-.72a1.92,1.92,0,0,1-2.54.6,1.81,1.81,0,0,1-.71-.74,2,2,0,0,1-.27-1,2,2,0,0,1,.27-1,1.87,1.87,0,0,1,1.65-1,1.94,1.94,0,0,1,1.6.86v-2h-.48a.34.34,0,0,1-.2-.05.22.22,0,0,1,0-.14.21.21,0,0,1,0-.13.34.34,0,0,1,.2-.05Zm-.38,3.56a1.62,1.62,0,0,0-.47-1.17,1.47,1.47,0,0,0-1.1-.48,1.5,1.5,0,0,0-1.12.48,1.61,1.61,0,0,0-.46,1.17,1.57,1.57,0,0,0,.46,1.15,1.5,1.5,0,0,0,1.12.48,1.47,1.47,0,0,0,1.1-.48A1.58,1.58,0,0,0,308.39,133.5Zm3.66-1.51v3h1.59a.26.26,0,0,1,.18,0,.18.18,0,0,1,.06.14.18.18,0,0,1-.06.13.26.26,0,0,1-.18.05h-2.83a.31.31,0,0,1-.19-.05.17.17,0,0,1-.05-.13.17.17,0,0,1,.05-.14.31.31,0,0,1,.19,0h.88v-3h-.8a.3.3,0,0,1-.18-.05.2.2,0,0,1-.06-.14.14.14,0,0,1,.06-.12.21.21,0,0,1,.18-.07h.8v-.54a1,1,0,0,1,.36-.79,1.45,1.45,0,0,1,1-.34,7.06,7.06,0,0,1,1.09.09.6.6,0,0,1,.27.09.15.15,0,0,1,.05.12.19.19,0,0,1-.05.13.22.22,0,0,1-.14,0h-.11a7.19,7.19,0,0,0-1.11-.1,1.06,1.06,0,0,0-.74.24.67.67,0,0,0-.25.52v.54h1.69c.1,0,.16,0,.19.07a.13.13,0,0,1,.07.12.17.17,0,0,1-.07.14.27.27,0,0,1-.19.05Zm6.22,1.85h-2.39v-.42l2-3.48h.76v3.53h.3a.31.31,0,0,1,.19.05.18.18,0,0,1,.06.14.18.18,0,0,1-.06.13.31.31,0,0,1-.19.05h-.3V135h.3a.31.31,0,0,1,.19,0,.18.18,0,0,1,.06.14.18.18,0,0,1-.06.13.31.31,0,0,1-.19.05h-1.35a.31.31,0,0,1-.19-.05.18.18,0,0,1-.06-.13.18.18,0,0,1,.06-.14.31.31,0,0,1,.19,0h.68Zm0-.37v-3.16h-.19l-1.83,3.16Zm6.15-1.48v-.13a.26.26,0,0,1,.05-.18.15.15,0,0,1,.12-.07.17.17,0,0,1,.15.07.34.34,0,0,1,0,.18v.82a.46.46,0,0,1,0,.2.18.18,0,0,1-.15.05.16.16,0,0,1-.12-.05.23.23,0,0,1-.05-.16.85.85,0,0,0-.4-.59,1.65,1.65,0,0,0-1-.28,1.48,1.48,0,0,0-1.23.52,1.73,1.73,0,0,0-.41,1.15,1.58,1.58,0,0,0,.45,1.16,1.65,1.65,0,0,0,1.2.45,2.64,2.64,0,0,0,.86-.15,2.16,2.16,0,0,0,.79-.5.29.29,0,0,1,.16-.09.19.19,0,0,1,.13.05.17.17,0,0,1,.05.12c0,.13-.15.29-.44.48a2.85,2.85,0,0,1-1.57.45,1.92,1.92,0,0,1-2-2,2,2,0,0,1,.58-1.45,2,2,0,0,1,1.44-.58A2.06,2.06,0,0,1,324.42,132Zm2.79-1.68v1.77a3.33,3.33,0,0,1,.61-.2,3,3,0,0,1,.56-.07,1.49,1.49,0,0,1,1.13.48,1.74,1.74,0,0,1,.47,1.26,1.91,1.91,0,0,1-.52,1.4,1.71,1.71,0,0,1-1.29.53,2.38,2.38,0,0,1-1-.22,2.83,2.83,0,0,1-.61-.41c-.11-.09-.16-.16-.16-.22a.16.16,0,0,1,.05-.14.21.21,0,0,1,.12-.05.27.27,0,0,1,.17.07,2,2,0,0,0,1.42.61,1.37,1.37,0,0,0,1-.43,1.6,1.6,0,0,0,.41-1.16,1.31,1.31,0,0,0-.36-1,1.17,1.17,0,0,0-.91-.38,2.4,2.4,0,0,0-1.13.29.46.46,0,0,1-.18.07.2.2,0,0,1-.14,0,.21.21,0,0,1,0-.15v-2.4h2.53a.31.31,0,0,1,.19.05.2.2,0,0,1,0,.13.21.21,0,0,1,0,.14.31.31,0,0,1-.19.05Zm6.06,1.68v3h1.6a.3.3,0,0,1,.18,0,.18.18,0,0,1,.06.14.18.18,0,0,1-.06.13.3.3,0,0,1-.18.05H332a.36.36,0,0,1-.19-.05.21.21,0,0,1,0-.13.22.22,0,0,1,0-.14.36.36,0,0,1,.19,0h.88v-3h-.79a.31.31,0,0,1-.19-.05.24.24,0,0,1-.05-.14.17.17,0,0,1,.05-.12.22.22,0,0,1,.19-.07h.79v-.54a1,1,0,0,1,.36-.79,1.49,1.49,0,0,1,1-.34,7.16,7.16,0,0,1,1.09.09.54.54,0,0,1,.26.09.12.12,0,0,1,.05.12.15.15,0,0,1-.05.13.19.19,0,0,1-.13,0h-.12a7,7,0,0,0-1.1-.1,1,1,0,0,0-.74.24.68.68,0,0,0-.26.52v.54H335a.21.21,0,0,1,.19.07.14.14,0,0,1,.06.12.2.2,0,0,1-.06.14.29.29,0,0,1-.19.05Zm7.05.3a2.14,2.14,0,0,1-.68.74,1.42,1.42,0,0,1-.8.25,1.36,1.36,0,0,1-.71-.21,1.51,1.51,0,0,1-.56-.63,1.89,1.89,0,0,1-.2-.88,2,2,0,0,1,.39-1.2,1.33,1.33,0,0,1,1.11-.56,1.41,1.41,0,0,1,.89.32,1.86,1.86,0,0,1,.64.88,4.88,4.88,0,0,1,.29,1.74,2.79,2.79,0,0,1-.25,1.27,2.49,2.49,0,0,1-.48.68,3.06,3.06,0,0,1-.71.53,2.63,2.63,0,0,1-1.13.26,1.15,1.15,0,0,1-.63-.14.2.2,0,0,1-.11-.17.17.17,0,0,1,.17-.18l.15,0a.93.93,0,0,0,.39.08,2.12,2.12,0,0,0,1.57-.66,2.28,2.28,0,0,0,.67-1.67C340.33,132.68,340.32,132.51,340.32,132.29Zm-.08-.6a2.43,2.43,0,0,0-.57-1.19,1.09,1.09,0,0,0-.79-.33,1.05,1.05,0,0,0-.81.39,1.41,1.41,0,0,0-.36,1,1.38,1.38,0,0,0,.36,1,1.06,1.06,0,0,0,.79.38,1.08,1.08,0,0,0,.5-.14,1.64,1.64,0,0,0,.48-.41A6.85,6.85,0,0,0,340.24,131.69Zm5.84,1.88h-3.69a1.81,1.81,0,0,0,.59,1.13,1.83,1.83,0,0,0,1.23.43,2.82,2.82,0,0,0,.84-.13,2.26,2.26,0,0,0,.73-.35.25.25,0,0,1,.14-.07.16.16,0,0,1,.13.06.19.19,0,0,1,.05.13.18.18,0,0,1-.06.13,2.06,2.06,0,0,1-.74.41,3.41,3.41,0,0,1-1.09.18,2.2,2.2,0,0,1-1.57-.6,2,2,0,0,1-.61-1.48,1.85,1.85,0,0,1,.57-1.36,2.06,2.06,0,0,1,1.46-.56,1.94,1.94,0,0,1,1.46.58A2,2,0,0,1,346.08,133.57Zm-.36-.36a1.51,1.51,0,0,0-.56-1,1.73,1.73,0,0,0-1.1-.38,1.66,1.66,0,0,0-1.09.38,1.61,1.61,0,0,0-.57,1Zm2.34-3.27v2.4a2,2,0,0,1,1.6-.85,1.8,1.8,0,0,1,1.35.58,1.91,1.91,0,0,1,.57,1.4,2,2,0,0,1-.58,1.45,1.84,1.84,0,0,1-1.34.57,1.93,1.93,0,0,1-1.6-.85v.72h-.84a.34.34,0,0,1-.2-.05.21.21,0,0,1,0-.13.22.22,0,0,1,0-.14.34.34,0,0,1,.2,0h.49v-4.68h-.49a.34.34,0,0,1-.2-.05.22.22,0,0,1,0-.14.21.21,0,0,1,0-.13.34.34,0,0,1,.2-.05Zm3.15,3.56a1.58,1.58,0,0,0-.47-1.17,1.49,1.49,0,0,0-1.1-.48,1.52,1.52,0,0,0-1.1.48,1.61,1.61,0,0,0-.46,1.17,1.57,1.57,0,0,0,.46,1.15,1.52,1.52,0,0,0,1.1.48,1.49,1.49,0,0,0,1.1-.48A1.54,1.54,0,0,0,351.21,133.5Z" transform="translate(-241.64 -119.36)"/>
    <path d="M243.5,140.32v5.12h1.24a.3.3,0,0,1,.18.05.18.18,0,0,1,.06.14.18.18,0,0,1-.06.13.3.3,0,0,1-.18.05h-2.85a.34.34,0,0,1-.2-.05.17.17,0,0,1-.05-.13.17.17,0,0,1,.05-.14.34.34,0,0,1,.2-.05h1.24v-4.62l-1.19.36-.13,0a.16.16,0,0,1-.11-.05.19.19,0,0,1,0-.13.19.19,0,0,1,0-.12s.07,0,.15-.08Zm3.56,5.12h2.78v-.14a.25.25,0,0,1,.06-.19.17.17,0,0,1,.12-.05.22.22,0,0,1,.14.05.31.31,0,0,1,.05.19v.51H246.7v-.54c.74-.67,1.46-1.34,2.15-2a7.55,7.55,0,0,0,.67-.69,1.42,1.42,0,0,0,.25-.4,1.06,1.06,0,0,0,.06-.34,1.13,1.13,0,0,0-.37-.83,1.26,1.26,0,0,0-.91-.36,1.39,1.39,0,0,0-1.32.95.22.22,0,0,1-.06.13.16.16,0,0,1-.11.05.17.17,0,0,1-.18-.18,1.16,1.16,0,0,1,.23-.55,1.54,1.54,0,0,1,.63-.55,1.7,1.7,0,0,1,.81-.22,1.62,1.62,0,0,1,1.17.48,1.43,1.43,0,0,1,.49,1.07,1.14,1.14,0,0,1-.09.46,1.57,1.57,0,0,1-.28.46c-.13.16-.36.4-.7.74-.85.84-1.55,1.5-2.08,2Zm7.05-5.12v5.12h1.24a.28.28,0,0,1,.18.05.18.18,0,0,1,.06.14.18.18,0,0,1-.06.13.28.28,0,0,1-.18.05H252.5a.34.34,0,0,1-.2-.05.21.21,0,0,1-.05-.13.22.22,0,0,1,.05-.14.34.34,0,0,1,.2-.05h1.24v-4.62l-1.19.36-.12,0a.21.21,0,0,1-.12-.05.19.19,0,0,1-.05-.13.19.19,0,0,1,0-.12.5.5,0,0,1,.15-.08ZM260,143a1.65,1.65,0,0,1,.68.59,1.41,1.41,0,0,1,.22.77,1.5,1.5,0,0,1-.49,1.12,1.58,1.58,0,0,1-1.16.46,1.64,1.64,0,0,1-1.18-.46,1.53,1.53,0,0,1-.48-1.12,1.34,1.34,0,0,1,.23-.77,1.65,1.65,0,0,1,.7-.59,1.81,1.81,0,0,1-.58-.47,1.27,1.27,0,0,1-.25-.77,1.4,1.4,0,0,1,.45-1,1.55,1.55,0,0,1,1.11-.46,1.51,1.51,0,0,1,1.1.46,1.39,1.39,0,0,1,.47,1,1.33,1.33,0,0,1-.25.77A1.88,1.88,0,0,1,260,143Zm.45-1.23a1.08,1.08,0,0,0-.35-.8,1.16,1.16,0,0,0-.85-.34,1.18,1.18,0,0,0-.86.34,1.1,1.1,0,0,0-.34.8,1,1,0,0,0,.34.74,1.25,1.25,0,0,0,.86.32,1.21,1.21,0,0,0,.85-.32A1,1,0,0,0,260.43,141.76Zm.1,2.6a1.1,1.1,0,0,0-.37-.83,1.31,1.31,0,0,0-.93-.36,1.29,1.29,0,0,0-.93.36,1.1,1.1,0,0,0-.37.82,1.2,1.2,0,0,0,.38.87,1.32,1.32,0,0,0,.92.35,1.34,1.34,0,0,0,.93-.35A1.17,1.17,0,0,0,260.53,144.36Zm4.19-4v5.12H266a.26.26,0,0,1,.18.05.18.18,0,0,1,.06.14.18.18,0,0,1-.06.13.26.26,0,0,1-.18.05h-2.85a.34.34,0,0,1-.2-.05.21.21,0,0,1-.05-.13.22.22,0,0,1,.05-.14.34.34,0,0,1,.2-.05h1.25v-4.62l-1.2.36-.12,0a.16.16,0,0,1-.11-.05.15.15,0,0,1-.05-.13.27.27,0,0,1,0-.12.5.5,0,0,1,.15-.08Zm7.08,3.7h-3.69a1.72,1.72,0,0,0,.59,1.13,1.79,1.79,0,0,0,1.23.43,2.92,2.92,0,0,0,.84-.13,2.36,2.36,0,0,0,.73-.35.23.23,0,0,1,.13-.07.16.16,0,0,1,.13.06.19.19,0,0,1,.05.13.18.18,0,0,1-.06.13,2,2,0,0,1-.74.41,3.4,3.4,0,0,1-1.08.18,2.18,2.18,0,0,1-1.57-.6,2,2,0,0,1-.62-1.48,1.82,1.82,0,0,1,.58-1.36,2,2,0,0,1,1.46-.56,1.91,1.91,0,0,1,1.45.58A2,2,0,0,1,271.8,144Zm-.37-.36a1.51,1.51,0,0,0-.56-1,1.7,1.7,0,0,0-1.09-.38,1.67,1.67,0,0,0-1.1.38,1.55,1.55,0,0,0-.56,1Zm2.64-.15a2.57,2.57,0,0,1,.69-.73,1.39,1.39,0,0,1,.79-.24,1.36,1.36,0,0,1,1,.49,1.65,1.65,0,0,1,.45,1.18,1.88,1.88,0,0,1-.42,1.19,1.3,1.3,0,0,1-1.13.53,1.42,1.42,0,0,1-.87-.29,1.93,1.93,0,0,1-.65-.89,4.52,4.52,0,0,1-.28-1.64,3,3,0,0,1,.27-1.27,2.63,2.63,0,0,1,.54-.79,2.75,2.75,0,0,1,.82-.57,2.25,2.25,0,0,1,1-.23,1,1,0,0,1,.6.16.19.19,0,0,1,.12.17.17.17,0,0,1-.18.18.36.36,0,0,1-.13,0,1,1,0,0,0-.45-.09,2.06,2.06,0,0,0-1.53.73,2.41,2.41,0,0,0-.69,1.72C274,143.16,274.05,143.31,274.07,143.51Zm.08.6a2.13,2.13,0,0,0,.52,1.13,1.16,1.16,0,0,0,.83.33,1.06,1.06,0,0,0,.81-.38,1.36,1.36,0,0,0,.35-1,1.25,1.25,0,0,0-.35-.93,1,1,0,0,0-.78-.38,1.2,1.2,0,0,0-.8.37A2.77,2.77,0,0,0,274.15,144.11Zm8-1.46v.89a2.88,2.88,0,0,1-.56,1.86,1.34,1.34,0,0,1-1.1.53,1.58,1.58,0,0,1-.61-.12,1.44,1.44,0,0,1-.48-.36,3.25,3.25,0,0,1-.26-.46,3.55,3.55,0,0,1-.22-.58,3.59,3.59,0,0,1-.1-.87v-.89a2.88,2.88,0,0,1,.56-1.86,1.36,1.36,0,0,1,1.1-.54,1.33,1.33,0,0,1,.6.14,1.42,1.42,0,0,1,.48.35,1.86,1.86,0,0,1,.28.47,3.07,3.07,0,0,1,.21.56A3.38,3.38,0,0,1,282.12,142.65Zm-.36,0a2.89,2.89,0,0,0-.15-.94,2.42,2.42,0,0,0-.33-.72.85.85,0,0,0-.28-.25,1,1,0,0,0-.55-.16,1.06,1.06,0,0,0-.95.63,2.89,2.89,0,0,0-.34,1.44v.81a3,3,0,0,0,.14,1,3,3,0,0,0,.32.71,1.72,1.72,0,0,0,.28.25,1.06,1.06,0,0,0,1.51-.47,3,3,0,0,0,.35-1.45Z" transform="translate(-241.64 -119.36)"/>
  </g>
</svg>
