<svg xmlns="http://www.w3.org/2000/svg" xmlns:xlink="http://www.w3.org/1999/xlink" width="271.95" height="202.76" viewBox="0 0 271.95 202.76">
  <defs>
    <style>
      .cls-1, .cls-3 {
        fill: #fff;
      }

      .cls-1, .cls-12, .cls-13, .cls-14, .cls-15, .cls-17, .cls-18, .cls-25, .cls-9 {
        stroke: #000;
      }

      .cls-1, .cls-12, .cls-13, .cls-14, .cls-15, .cls-18, .cls-19, .cls-5, .cls-9 {
        stroke-linejoin: round;
      }

      .cls-1, .cls-17, .cls-5, .cls-7, .cls-9 {
        stroke-width: 0.5px;
      }

      .cls-2 {
        fill: #f0f0f0;
      }

      .cls-4 {
        fill: #f2f2f2;
      }

      .cls-17, .cls-18, .cls-25, .cls-5, .cls-7, .cls-9 {
        fill: none;
      }

      .cls-5 {
        stroke: gray;
      }

      .cls-6 {
        fill: url(#linear-gradient);
      }

      .cls-7 {
        stroke: #4d4d4d;
      }

      .cls-25, .cls-7 {
        stroke-miterlimit: 10;
      }

      .cls-8 {
        fill: #666;
      }

      .cls-11, .cls-12, .cls-14, .cls-15, .cls-16, .cls-8 {
        fill-rule: evenodd;
      }

      .cls-10, .cls-11 {
        fill: #28708e;
      }

      .cls-12, .cls-13, .cls-14, .cls-15, .cls-19, .cls-25 {
        stroke-width: 0.3px;
      }

      .cls-12 {
        fill: url(#linear-gradient-2);
      }

      .cls-13 {
        fill: url(#linear-gradient-3);
      }

      .cls-14 {
        fill: #c4c4c4;
      }

      .cls-15 {
        fill: url(#linear-gradient-4);
      }

      .cls-19 {
        fill: #a10000;
        stroke: #a10000;
      }

      .cls-20 {
        fill: url(#linear-gradient-5);
      }

      .cls-21 {
        fill: url(#linear-gradient-6);
      }

      .cls-22 {
        font-size: 9.35px;
        font-family: ArialMT, Arial;
      }

      .cls-23 {
        font-size: 9px;
        font-family: Humanist521BT-BoldCondensed, Humanst521 Cn BT;
        font-weight: 700;
      }

      .cls-24 {
        letter-spacing: -0.09em;
      }

      .cls-26 {
        letter-spacing: -0.02em;
      }

      .cls-27 {
        font-size: 7.5px;
        font-family: FreeMono;font-phase: bold;
      }
    </style>
    <linearGradient id="linear-gradient" x1="191.07" y1="58.93" x2="197.89" y2="58.93" gradientUnits="userSpaceOnUse">
      <stop offset="0" stop-color="#cfcfcf"/>
      <stop offset="0.5" stop-color="#e6e6e6"/>
      <stop offset="0.96" stop-color="gray"/>
      <stop offset="1" stop-color="#787878"/>
    </linearGradient>
    <linearGradient id="linear-gradient-2" x1="27.81" y1="160.96" x2="32.95" y2="160.96" gradientTransform="translate(282.42 58.72) rotate(30.96)" gradientUnits="userSpaceOnUse">
      <stop offset="0"/>
      <stop offset="0.09" stop-color="#040404"/>
      <stop offset="0.19" stop-color="#101010"/>
      <stop offset="0.28" stop-color="#252525"/>
      <stop offset="0.38" stop-color="#414141"/>
      <stop offset="0.47" stop-color="#666"/>
      <stop offset="0.5" stop-color="#737373"/>
      <stop offset="0.54" stop-color="#5f5f5f"/>
      <stop offset="0.63" stop-color="#3d3d3d"/>
      <stop offset="0.72" stop-color="#222"/>
      <stop offset="0.81" stop-color="#0f0f0f"/>
      <stop offset="0.9" stop-color="#040404"/>
      <stop offset="1"/>
    </linearGradient>
    <linearGradient id="linear-gradient-3" x1="28.05" y1="182.27" x2="32.79" y2="182.27" xlink:href="#linear-gradient-2"/>
    <linearGradient id="linear-gradient-4" x1="28.39" y1="197.05" x2="32.46" y2="197.05" xlink:href="#linear-gradient-2"/>
    <linearGradient id="linear-gradient-5" x1="203.76" y1="141.63" x2="256.53" y2="141.63" gradientUnits="userSpaceOnUse">
      <stop offset="0" stop-color="#ff0001"/>
      <stop offset="0.08" stop-color="#ff1b17"/>
      <stop offset="0.25" stop-color="#fe4f41"/>
      <stop offset="0.42" stop-color="#fe7b64"/>
      <stop offset="0.59" stop-color="#fd9d80"/>
      <stop offset="0.74" stop-color="#fdb593"/>
      <stop offset="0.88" stop-color="#fdc49f"/>
      <stop offset="1" stop-color="#fdc9a3"/>
    </linearGradient>
    <linearGradient id="linear-gradient-6" x1="204.7" y1="141.63" x2="255.06" y2="141.63" gradientUnits="userSpaceOnUse">
      <stop offset="0" stop-color="#fdc9a3"/>
      <stop offset="1" stop-color="#ff0001"/>
    </linearGradient>
  </defs>
  <g id="Layer_2" data-name="Layer 2">
    <rect class="cls-1" x="68.95" y="38.68" width="128.96" height="163.83"/>
    <rect class="cls-2" x="70.87" y="51.63" width="116.42" height="106.68" rx="5"/>
    <rect class="cls-3" x="70.87" y="76.45" width="116.42" height="29.25" rx="5"/>
    <rect class="cls-3" x="70.87" y="127.12" width="116.42" height="29.25" rx="5"/>
    <rect class="cls-4" x="191.08" y="38.68" width="6.83" height="163.83"/>
    <line class="cls-5" x1="191.08" y1="38.68" x2="191.08" y2="202.51"/>
    <g>
      <rect class="cls-6" x="191.07" y="47.71" width="6.82" height="22.44" rx="1"/>
      <rect class="cls-7" x="191.07" y="47.71" width="6.82" height="22.44" rx="1"/>
    </g>
    <polygon class="cls-8" points="196.21 45.65 192.74 45.65 194.48 42.11 196.21 45.65"/>
    <polygon class="cls-8" points="196.21 72.6 192.74 72.6 194.48 76.14 196.21 72.6"/>
    <path d="M291.49,163.31a1.25,1.25,0,0,0-.46-.48,1.27,1.27,0,0,0-.66-.16,1.23,1.23,0,0,0-1.14.64Zm.84.76h-3.12a1,1,0,0,0,.42.47,1.51,1.51,0,0,0,.82.19,4.46,4.46,0,0,0,1.13-.19,2.72,2.72,0,0,1,.39-.07.31.31,0,0,1,.25.11.37.37,0,0,1,.11.27.36.36,0,0,1-.11.25,1.94,1.94,0,0,1-.72.26,5.36,5.36,0,0,1-1.1.12,2.09,2.09,0,0,1-1.47-.51,1.66,1.66,0,0,1-.54-1.26,1.64,1.64,0,0,1,.58-1.29,2.05,2.05,0,0,1,1.37-.5,2.2,2.2,0,0,1,.86.16,1.64,1.64,0,0,1,.57.34,2,2,0,0,1,.44.68,1.6,1.6,0,0,1,.12.65Zm-5.5-.38a1,1,0,0,0-.31-.72,1,1,0,0,0-.74-.31,1,1,0,0,0-.74.31,1,1,0,0,0-.31.72,1,1,0,0,0,.31.73,1,1,0,0,0,.74.3,1,1,0,0,0,.74-.3A1,1,0,0,0,286.83,163.69Zm0-1.45V162h.89a.59.59,0,0,1,.39.11.32.32,0,0,1,.12.27.36.36,0,0,1-.12.28.66.66,0,0,1-.39.09h-.13v2.76a1.38,1.38,0,0,1-.17.69,1.34,1.34,0,0,1-.52.51,1.39,1.39,0,0,1-.78.22h-.86a.59.59,0,0,1-.39-.11.32.32,0,0,1-.12-.27.36.36,0,0,1,.12-.28.66.66,0,0,1,.39-.09h.84a.73.73,0,0,0,.54-.2.61.61,0,0,0,.19-.47v-.37a2,2,0,0,1-.51.24,1.71,1.71,0,0,1-.55.09,1.75,1.75,0,0,1-1.29-.52,1.81,1.81,0,0,1,0-2.54,1.79,1.79,0,0,1,1.29-.52,1.73,1.73,0,0,1,.56.09A1.47,1.47,0,0,1,286.84,162.24ZM282.27,164a4.46,4.46,0,0,0-.84-.09,1.42,1.42,0,0,0-.8.23.37.37,0,0,0-.21.29.19.19,0,0,0,.1.17,1,1,0,0,0,.51.12,2.2,2.2,0,0,0,.62-.11,2.36,2.36,0,0,0,.62-.29Zm0,1.35v-.18a2.48,2.48,0,0,1-.63.23,3,3,0,0,1-.63.08,1.49,1.49,0,0,1-1-.32.93.93,0,0,1-.38-.72,1.15,1.15,0,0,1,.48-.88,2.07,2.07,0,0,1,1.35-.41,5,5,0,0,1,.8.08v-.19a.35.35,0,0,0-.15-.28,1,1,0,0,0-.56-.1,4.22,4.22,0,0,0-.87.12,1.16,1.16,0,0,1-.32.06.36.36,0,0,1-.26-.11.41.41,0,0,1-.09-.28.41.41,0,0,1,0-.16.32.32,0,0,1,.11-.12,1,1,0,0,1,.28-.1A3.61,3.61,0,0,1,281,162a3.4,3.4,0,0,1,.53,0,1.78,1.78,0,0,1,1.1.3,1,1,0,0,1,.39.82v1.57h.13a.57.57,0,0,1,.39.11.32.32,0,0,1,.12.27.34.34,0,0,1-.12.26.52.52,0,0,1-.39.11ZM278,162.89a1.68,1.68,0,0,0-.39-.16,1.69,1.69,0,0,0-1.12.08c-.08,0-.12.09-.12.13s.06.12.17.18a2.29,2.29,0,0,0,.52.1,6.55,6.55,0,0,1,1,.22,1.26,1.26,0,0,1,.61.4.89.89,0,0,1,.21.57.82.82,0,0,1-.36.68,2.15,2.15,0,0,1-1.34.39,3.86,3.86,0,0,1-.61,0,2.13,2.13,0,0,1-.52-.18.27.27,0,0,1-.12.09l-.12,0a.38.38,0,0,1-.29-.12.59.59,0,0,1-.1-.39v-.25a.55.55,0,0,1,.1-.39.38.38,0,0,1,.28-.12.33.33,0,0,1,.22.08.44.44,0,0,1,.15.26,1.2,1.2,0,0,0,.42.22,2,2,0,0,0,.56.08,1.7,1.7,0,0,0,.81-.16q.15-.09.15-.18c0-.1-.07-.18-.2-.24a2.57,2.57,0,0,0-.81-.16,2.43,2.43,0,0,1-1.23-.37.85.85,0,0,1-.3-.66.83.83,0,0,1,.34-.68,1.94,1.94,0,0,1,1.22-.36,2.15,2.15,0,0,1,.51.05,1.83,1.83,0,0,1,.47.14l.12-.07.12,0a.34.34,0,0,1,.26.12.59.59,0,0,1,.11.39v.18a.64.64,0,0,1-.06.33.37.37,0,0,1-.33.17.39.39,0,0,1-.25-.08A.58.58,0,0,1,278,162.89Zm-4.41,0a2.14,2.14,0,0,0-.39-.16,1.54,1.54,0,0,0-.43-.06,1.43,1.43,0,0,0-.7.14c-.08,0-.12.09-.12.13s.06.12.17.18a2.43,2.43,0,0,0,.53.1,6.62,6.62,0,0,1,1,.22,1.26,1.26,0,0,1,.61.4.89.89,0,0,1,.21.57.82.82,0,0,1-.36.68,2.15,2.15,0,0,1-1.34.39,3.86,3.86,0,0,1-.61,0,2.28,2.28,0,0,1-.52-.18.31.31,0,0,1-.11.09l-.13,0a.35.35,0,0,1-.28-.12.54.54,0,0,1-.11-.39v-.25a.51.51,0,0,1,.11-.39.34.34,0,0,1,.27-.12.31.31,0,0,1,.22.08.44.44,0,0,1,.15.26,1.17,1.17,0,0,0,.43.22,1.89,1.89,0,0,0,.56.08,1.76,1.76,0,0,0,.81-.16c.09-.06.14-.12.14-.18s-.07-.18-.2-.24a2.57,2.57,0,0,0-.81-.16,2.43,2.43,0,0,1-1.23-.37.85.85,0,0,1-.3-.66.83.83,0,0,1,.34-.68,2,2,0,0,1,1.23-.36,2.07,2.07,0,0,1,.5.05,1.83,1.83,0,0,1,.47.14l.13-.07.11,0a.32.32,0,0,1,.26.12.54.54,0,0,1,.11.39v.18a.64.64,0,0,1-.06.33.37.37,0,0,1-.33.17.39.39,0,0,1-.25-.08A.46.46,0,0,1,273.57,162.89Zm-4.17.42a1.25,1.25,0,0,0-.46-.48,1.48,1.48,0,0,0-1.34,0,1.25,1.25,0,0,0-.46.48Zm.84.76h-3.12a1,1,0,0,0,.42.47,1.49,1.49,0,0,0,.82.19,4.4,4.4,0,0,0,1.12-.19,3,3,0,0,1,.4-.07.33.33,0,0,1,.25.11.37.37,0,0,1,.11.27.36.36,0,0,1-.11.25,1.94,1.94,0,0,1-.72.26,5.46,5.46,0,0,1-1.11.12,2,2,0,0,1-1.46-.51,1.66,1.66,0,0,1-.54-1.26,1.61,1.61,0,0,1,.58-1.29,2,2,0,0,1,1.37-.5,2.15,2.15,0,0,1,.85.16,1.81,1.81,0,0,1,.58.34,2.22,2.22,0,0,1,.44.68,1.6,1.6,0,0,1,.12.65Zm-7.52-1.72v2.26H263a.59.59,0,0,1,.39.11.32.32,0,0,1,.12.27.34.34,0,0,1-.12.26.54.54,0,0,1-.39.11h-1a.54.54,0,0,1-.39-.11.34.34,0,0,1-.12-.26.32.32,0,0,1,.12-.27.49.49,0,0,1,.35-.11v-3a.63.63,0,0,1-.31-.12.41.41,0,0,1-.1-.27.34.34,0,0,1,.12-.27.59.59,0,0,1,.39-.11h.84l1,2.28,1-2.28h.84a.59.59,0,0,1,.39.11.37.37,0,0,1,.11.27.36.36,0,0,1-.1.27.59.59,0,0,1-.31.12v3a.5.5,0,0,1,.36.11.32.32,0,0,1,.12.27.34.34,0,0,1-.12.26.54.54,0,0,1-.39.11h-1a.54.54,0,0,1-.39-.11.34.34,0,0,1-.12-.26.32.32,0,0,1,.12-.27.59.59,0,0,1,.39-.11h.28v-2.26l-.88,2h-.66Z" transform="translate(-188.38 -115.82)"/>
    <path d="M294.77,164.47h.14a.47.47,0,0,1,.35.15.45.45,0,0,1,.15.35.49.49,0,0,1-.15.36.5.5,0,0,1-.35.14h-.14a.52.52,0,0,1-.35-.14.49.49,0,0,1-.15-.36.45.45,0,0,1,.15-.35A.49.49,0,0,1,294.77,164.47Zm0-2.31h.14a.47.47,0,0,1,.35.15.51.51,0,0,1,0,.72.5.5,0,0,1-.35.14h-.14a.51.51,0,0,1-.5-.5.48.48,0,0,1,.15-.36A.49.49,0,0,1,294.77,162.16Z" transform="translate(-188.38 -115.82)"/>
    <rect class="cls-9" x="68.95" y="38.68" width="128.96" height="163.83"/>
    <path class="cls-10" d="M201.51,245.64c-3.42,0-3.48-.31-3.57-.75-.13-.65.64-.93,2.16-1.49a17.36,17.36,0,0,0,2.11-1.15c-.78-.28-3.74-1-13.83-1v-.42c14.62,0,14.78.86,14.9,1.56.15.85-1.1,1.31-2.84,2l-.69.25c.95.06,2.73.07,6.07-.05l0,1C204,245.6,202.59,245.64,201.51,245.64Z" transform="translate(-188.38 -115.82)"/>
    <path class="cls-11" d="M324.24,300.51c4.06,1.84,7.41-1.54,10.81-2.16.84.94-.12,2.87.35,3.95,2.47,1.78,7.26,1.13,9.09,3.59-1.08.85-2.55-.55-4.46-1.08-3.3-.92-6.91-.36-5.66-5.2-2.95,1.38-7.9,4-11.33,1.61a22.71,22.71,0,0,1-3.43,1.79,95.67,95.67,0,0,0-3.61,9.15c-2.38-.85-2.46-4.12-5.32-4.48a8.5,8.5,0,0,0-.85,2.69c.66.19,1.38-2,2.4-1.44.09,1.38-1.46,2.53-2.75,3.05-1.42-.89-.32-2.93,0-4.48a17.37,17.37,0,0,1-10.81,3.41,10,10,0,0,1-5-1.44c-3.11-2.33-2.28-8.44-.17-11.3,2-2.65,4.75-3.59,7.89-4.48a43.3,43.3,0,0,0,2.23-5.38c1-.07,1.23-.26,1.55-1.26,5.08-2,10.95-3.14,15.1-6.1-5.27,1-11.05,2.74-16.47,4.31-1.72.5-3.46,1.39-5.15,1.07.19-1.06,1.61-1.19,2.4-1.43,2.72-.81,5.76-1.65,8.76-2.51,3.88-1.11,8.05-2.71,12-2.33.1,1.87-1.87,2.41-3.09,3.05-3.74,1.94-8.85,3.33-13,5,.69,2.32,2.41,3.57,3.77,5.2a29.89,29.89,0,0,1,6,.72c2-2.48,3.73-5.8,5.66-8.61.52-.76,1.23-2.05,2.23-2-.32,2.09-2.07,3.59-3.26,5.38s-2.18,3.74-3.26,5.56c1.27.88,3.33.94,3.77,2.69-1.55.35-2.59-1.34-4.11-1.62-2.21,2.66-3.39,6.39-5,9.69,2.85-.55,4.95-1.89,7.38-2.87,1-2.24,2.32-3.68,2.57-6.82.46-5.63,3.9-8.92,7.21-11.84a10,10,0,0,1,1-2.15c.67-.15.61.44,1,.54,3.49-2.52,10-4.24,15.79-3.77,1.05.09,3.46.38,3.43,1.8,0,2.26-3.66,4.88-5.31,6.27C338.58,291.44,330.32,296.67,324.24,300.51Zm18-21c-4.71.4-10.39,1.9-12.87,4.84-1.48,1.75-2.19,4.35-3.43,6.64s-4.43,6.12-2.75,8.79A185.79,185.79,0,0,0,343.46,286c2-1.63,4.41-3.5,5.33-6.1C346.75,279.08,344.43,279.34,342.26,279.52Zm-19.39,15.06c1-2.67,3.08-5.27,3.78-7.71C325.06,289,323,291.55,322.87,294.58Zm-20.08-1.07c1.51-.33,3.52-.15,5-.54a28.14,28.14,0,0,1-3.26-4.12C304.07,290.54,303.31,291.9,302.79,293.51Zm-.34,1.07a20.65,20.65,0,0,0-1.38,4.49c-.38,1.45-.47,3.49-1.71,4.12-.44-2.44,1.1-5.71,1.71-8.24-4.67.94-8.55,4.47-8.41,9.68.11,3.86,3,5.24,7,5.2,8.57-.07,14.83-7.74,9.09-15.42C307.1,294.07,304.66,294.47,302.45,294.58Zm9.78,6.46c.91-2,1.92-4,2.92-5.92a35.74,35.74,0,0,0-5-.71A18.27,18.27,0,0,1,312.23,301Zm8.4.18a7.33,7.33,0,0,0,1.55-.71c-.12-.54-.05-1.27-.51-1.44C321.39,299.85,320.94,300.46,320.63,301.22Zm-9.43,5.56c2.3.41,3.09,2.39,4.46,3.77a18,18,0,0,1,2.4-6.28c0-.22-.05-.42-.34-.36C315.92,305.26,313.12,305.56,311.2,306.78Z" transform="translate(-188.38 -115.82)"/>
    <g>
      <path class="cls-12" d="M230.09,204l.46.28.46.27c-.28,2.21-3.61,10-8,17.35l-4.41-2.64C223,211.82,228.27,205.23,230.09,204Z" transform="translate(-188.38 -115.82)"/>
      <path class="cls-13" d="M206.66,239.51a.24.24,0,0,0,.08.33L210.4,242a.23.23,0,0,0,.33-.08l12.08-20.13a.25.25,0,0,0-.09-.33l-3.65-2.19a.24.24,0,0,0-.33.08Z" transform="translate(-188.38 -115.82)"/>
      <g>
        <g>
          <polygon class="cls-14" points="18.49 124 19.27 124.48 21.19 125.62 21.97 126.1 21.4 127.05 17.91 124.96 18.49 124"/>
          <path class="cls-15" d="M206.69,245.15l-.95-.57v0l.54-3.77,3.49,2.09-3.07,2.25Z" transform="translate(-188.38 -115.82)"/>
        </g>
        <path class="cls-16" d="M205.86,245.54l-.07,0c-.24-.15-.08-.77,0-.92l.95.57C206.58,245.25,206.1,245.68,205.86,245.54Z" transform="translate(-188.38 -115.82)"/>
      </g>
      <path d="M221.07,212.28a.54.54,0,0,1,.19.76l-.45.75,1,.62-1.33,2.22-1-.61-4.07,6.77a1.06,1.06,0,0,1,0,1.34,1,1,0,0,1-1.23.57.55.55,0,0,1-.82-.71l6.91-11.52A.55.55,0,0,1,221.07,212.28Z" transform="translate(-188.38 -115.82)"/>
    </g>
    <path d="M216.1,206.69a24.39,24.39,0,0,1,.85-2.33h-2.9c.13.27.57,1.38.87,2.32a17.55,17.55,0,0,1,.6,2.54A17,17,0,0,1,216.1,206.69Z" transform="translate(-188.38 -115.82)"/>
    <line class="cls-17" x1="27.12" y1="89.17" x2="27.12" y2="38.63"/>
    <g>
      <path class="cls-18" d="M252.3,137.43H226.43a11.75,11.75,0,0,0-22.67,4.2c0,.14,0,.27,0,.41s0,.26,0,.4A11.76,11.76,0,0,0,226,147.57h2.16a2.76,2.76,0,0,1,5.29,0h2.37a2.75,2.75,0,0,1,5.28,0h2.38a2.76,2.76,0,0,1,5.29,0h1.65l6.09-7v-.8Z" transform="translate(-188.38 -115.82)"/>
      <path class="cls-19" d="M256.53,139.78l-30.1-1.54a11.61,11.61,0,1,0-.41,9.33h2.16a2.76,2.76,0,0,1,5.29,0h2.37a2.75,2.75,0,0,1,5.28,0h2.38a2.76,2.76,0,0,1,5.29,0h1.65l6.09-7Z" transform="translate(-188.38 -115.82)"/>
      <path class="cls-20" d="M252.3,137.43H226.43a11.62,11.62,0,1,0-.41,9.33h2.16a2.76,2.76,0,0,1,5.29,0h2.37a2.75,2.75,0,0,1,5.28,0h2.38a2.76,2.76,0,0,1,5.29,0h1.65l6.09-7Z" transform="translate(-188.38 -115.82)"/>
      <path class="cls-21" d="M215.5,152.31a10.68,10.68,0,1,1,10.06-14.53l.23.59h26.26l3,1.67L250,145.82h-.53a3.8,3.8,0,0,0-6.67,0h-1a3.8,3.8,0,0,0-6.67,0h-1a3.8,3.8,0,0,0-6.67,0h-2.05l-.26.52A10.75,10.75,0,0,1,215.5,152.31Z" transform="translate(-188.38 -115.82)"/>
      <path class="cls-3" d="M224.77,141.63a9.27,9.27,0,1,1-9.27-9.27A9.27,9.27,0,0,1,224.77,141.63Z" transform="translate(-188.38 -115.82)"/>
      <text class="cls-22" transform="translate(18.99 29.37)">Priv</text>
    </g>
    <text class="cls-23" transform="translate(214.07 74.74)">The recipient is<tspan x="0" y="9.5">a pubIic ke</tspan><tspan class="cls-24" x="38.57" y="9.5">y</tspan><tspan x="41.56" y="9.5">, not</tspan><tspan x="0" y="19">Cafe.</tspan></text>
    <text class="cls-23" transform="translate(214.07 128.37)">The sender is a<tspan x="0" y="9.5">public ke</tspan><tspan class="cls-24" x="31.84" y="9.5">y</tspan><tspan x="34.83" y="9.5">, not</tspan><tspan x="0" y="19">John.</tspan></text>
    <g>
      <path d="M366.69,171.37V175h.85a.26.26,0,0,1,.18.05.13.13,0,0,1,0,.11.14.14,0,0,1,0,.11.34.34,0,0,1-.18,0h-2.07a.39.39,0,0,1-.17,0,.14.14,0,0,1,0-.11.12.12,0,0,1,0-.11.29.29,0,0,1,.17-.05h.87v-3.61H365v1a.25.25,0,0,1-.05.16.15.15,0,0,1-.11,0,.17.17,0,0,1-.13,0,.25.25,0,0,1-.05-.16v-1.35h3.75v1.35a.25.25,0,0,1-.05.16.17.17,0,0,1-.13,0,.15.15,0,0,1-.11,0,.25.25,0,0,1-.05-.16v-1Zm-3.59.1v-.21a.18.18,0,0,1,0-.14.14.14,0,0,1,.13-.05.13.13,0,0,1,.11.05.18.18,0,0,1,.05.14v.85a.23.23,0,0,1-.05.16.16.16,0,0,1-.11,0,.17.17,0,0,1-.12,0,.26.26,0,0,1-.06-.14.69.69,0,0,0-.36-.54,1.73,1.73,0,0,0-1.05-.33,1.84,1.84,0,0,0-.73.16,1.4,1.4,0,0,0-.4.27,2.94,2.94,0,0,0-.42.64,1.6,1.6,0,0,0-.1.56v.54a1.6,1.6,0,0,0,.53,1.18,1.8,1.8,0,0,0,1.26.49,1.67,1.67,0,0,0,.76-.17,2.18,2.18,0,0,0,.66-.51.22.22,0,0,1,.15-.08.14.14,0,0,1,.12,0,.12.12,0,0,1,0,.1c0,.06-.05.14-.17.25a2.38,2.38,0,0,1-.73.5,2.14,2.14,0,0,1-.82.16,2.43,2.43,0,0,1-.74-.12,1.88,1.88,0,0,1-.47-.22,3.49,3.49,0,0,1-.46-.44,2.17,2.17,0,0,1-.37-.57,1.81,1.81,0,0,1-.1-.58v-.62a1.88,1.88,0,0,1,.26-.91,1.75,1.75,0,0,1,.73-.72,2.19,2.19,0,0,1,2.41.25ZM358,172.68a2.2,2.2,0,0,0-.13-.78,2.08,2.08,0,0,0-.3-.6.67.67,0,0,0-.26-.21.89.89,0,0,0-.51-.14,1,1,0,0,0-.87.52,2.3,2.3,0,0,0-.32,1.21v.68a2.75,2.75,0,0,0,.13.81,2.22,2.22,0,0,0,.3.58,1.09,1.09,0,0,0,.26.21,1,1,0,0,0,1.38-.39,2.21,2.21,0,0,0,.32-1.21Zm.34,0v.75a2.2,2.2,0,0,1-.52,1.55,1.27,1.27,0,0,1-1,.44,1.5,1.5,0,0,1-.56-.1,1.35,1.35,0,0,1-.44-.29,2.77,2.77,0,0,1-.24-.39,2.11,2.11,0,0,1-.2-.49,2.53,2.53,0,0,1-.09-.72v-.75a2.21,2.21,0,0,1,.51-1.55,1.4,1.4,0,0,1,1.57-.34,1.32,1.32,0,0,1,.44.3,1.54,1.54,0,0,1,.25.38,2.6,2.6,0,0,1,.2.48A2.65,2.65,0,0,1,358.29,172.65Zm-6.24-2V175h1.14a.22.22,0,0,1,.16.05.11.11,0,0,1,.06.11.13.13,0,0,1-.06.11.28.28,0,0,1-.16,0h-2.62a.41.41,0,0,1-.19,0,.14.14,0,0,1,0-.11.12.12,0,0,1,0-.11.31.31,0,0,1,.19-.05h1.14v-3.86l-1.1.3a.23.23,0,0,1-.11,0,.15.15,0,0,1-.11,0,.13.13,0,0,1,0-.1.23.23,0,0,1,0-.11l.14-.06Zm-8.47,2.79a1.3,1.3,0,0,0-.52-.82,1.66,1.66,0,0,0-1-.31,1.61,1.61,0,0,0-1,.31,1.32,1.32,0,0,0-.52.82Zm.33.31h-3.39a1.41,1.41,0,0,0,.54.94,1.8,1.8,0,0,0,1.13.36,3.63,3.63,0,0,0,.78-.1,2.32,2.32,0,0,0,.67-.3.22.22,0,0,1,.12-.06.17.17,0,0,1,.12.05.14.14,0,0,1,0,.11.13.13,0,0,1-.05.11,2,2,0,0,1-.68.34,3.41,3.41,0,0,1-1,.15,2.07,2.07,0,0,1-1.44-.5,1.6,1.6,0,0,1-.57-1.24,1.5,1.5,0,0,1,.53-1.14,2,2,0,0,1,1.34-.47,1.84,1.84,0,0,1,1.34.49A1.56,1.56,0,0,1,343.91,173.8Zm-6.38,1.49H337l-1.37-2.82h-.34a.3.3,0,0,1-.18,0,.16.16,0,0,1-.05-.11.14.14,0,0,1,.05-.11.3.3,0,0,1,.18-.05h1.25a.22.22,0,0,1,.16.05.13.13,0,0,1,.06.11.14.14,0,0,1-.06.11.22.22,0,0,1-.16,0H336l1.22,2.51h.15l1.19-2.51H338a.25.25,0,0,1-.17,0,.13.13,0,0,1-.05-.11.12.12,0,0,1,.05-.11.25.25,0,0,1,.17-.05h1.26a.25.25,0,0,1,.17.05.14.14,0,0,1,.05.11.16.16,0,0,1-.05.11.25.25,0,0,1-.17,0h-.34Zm-3.65-1.56a1.25,1.25,0,0,0-.46-1,1.48,1.48,0,0,0-1.07-.41,1.54,1.54,0,0,0-1.09.41,1.25,1.25,0,0,0-.43,1,1.28,1.28,0,0,0,.43,1,1.58,1.58,0,0,0,1.09.4,1.51,1.51,0,0,0,1.07-.4A1.25,1.25,0,0,0,333.88,173.73Zm.34,0a1.53,1.53,0,0,1-.55,1.19,1.92,1.92,0,0,1-1.32.48,1.88,1.88,0,0,1-1.32-.49,1.56,1.56,0,0,1,0-2.36,2,2,0,0,1,2.64,0A1.51,1.51,0,0,1,334.22,173.73ZM326,172.16v.31a1.23,1.23,0,0,1,.85-.42.85.85,0,0,1,.45.13.87.87,0,0,1,.32.38,1.69,1.69,0,0,1,.45-.38,1,1,0,0,1,.47-.13.81.81,0,0,1,.58.21.85.85,0,0,1,.27.6V175h.28a.25.25,0,0,1,.17.05.11.11,0,0,1,.06.11.13.13,0,0,1-.06.11.32.32,0,0,1-.17,0H329v-2.4a.49.49,0,0,0-.16-.37.46.46,0,0,0-.35-.16.74.74,0,0,0-.39.12,1.92,1.92,0,0,0-.45.5v2h.27a.22.22,0,0,1,.16.05.11.11,0,0,1,.06.11.13.13,0,0,1-.06.11.28.28,0,0,1-.16,0h-.62v-2.37a.54.54,0,0,0-.16-.4.46.46,0,0,0-.35-.16.67.67,0,0,0-.35.1,1.79,1.79,0,0,0-.5.52v2h.27a.22.22,0,0,1,.16.05.11.11,0,0,1,.06.11.13.13,0,0,1-.06.11.28.28,0,0,1-.16,0h-.9a.35.35,0,0,1-.17,0,.14.14,0,0,1-.05-.11.13.13,0,0,1,.05-.11.26.26,0,0,1,.17-.05h.29v-2.51h-.29a.27.27,0,0,1-.17,0,.16.16,0,0,1-.05-.11.14.14,0,0,1,.05-.11.26.26,0,0,1,.17-.05Zm-6.79,1.33a1.29,1.29,0,0,0-.51-.82,1.68,1.68,0,0,0-1-.31,1.59,1.59,0,0,0-1,.31,1.33,1.33,0,0,0-.53.82Zm.34.31h-3.4a1.43,1.43,0,0,0,.55.94,1.76,1.76,0,0,0,1.13.36,3.62,3.62,0,0,0,.77-.1,2.2,2.2,0,0,0,.67-.3.28.28,0,0,1,.13-.06.14.14,0,0,1,.11.05.12.12,0,0,1,0,.11.14.14,0,0,1-.06.11,2,2,0,0,1-.68.34,3.3,3.3,0,0,1-1,.15,2.12,2.12,0,0,1-1.45-.5,1.62,1.62,0,0,1-.56-1.24,1.5,1.5,0,0,1,.53-1.14,2,2,0,0,1,1.34-.47,1.86,1.86,0,0,1,1.34.49A1.59,1.59,0,0,1,319.51,173.8Zm-5.57-1.44a.21.21,0,0,1,0-.15.17.17,0,0,1,.24,0,.22.22,0,0,1,0,.16v.51a.25.25,0,0,1,0,.17.2.2,0,0,1-.24,0,.17.17,0,0,1,0-.13.49.49,0,0,0-.26-.36,1.53,1.53,0,0,0-.85-.2,1.57,1.57,0,0,0-.88.21.41.41,0,0,0-.23.35c0,.13.09.25.27.35a2.15,2.15,0,0,0,.73.16,3.91,3.91,0,0,1,1,.16,1.24,1.24,0,0,1,.58.34.76.76,0,0,1,.18.49.85.85,0,0,1-.4.69,2,2,0,0,1-1.2.29,2.21,2.21,0,0,1-1.3-.35.34.34,0,0,1,0,.16.11.11,0,0,1-.06.06l-.08,0a.21.21,0,0,1-.12,0,.25.25,0,0,1-.05-.16v-.63a.21.21,0,0,1,.05-.15.17.17,0,0,1,.24,0,.16.16,0,0,1,0,.12.41.41,0,0,0,.1.27,1,1,0,0,0,.44.3,2.62,2.62,0,0,0,.75.1,1.75,1.75,0,0,0,1-.21.61.61,0,0,0,.32-.47.51.51,0,0,0-.31-.45,2.7,2.7,0,0,0-1-.23,4.54,4.54,0,0,1-.89-.15.93.93,0,0,1-.42-.29.62.62,0,0,1-.15-.4.71.71,0,0,1,.42-.62,2.11,2.11,0,0,1,1-.23A1.92,1.92,0,0,1,313.94,172.36Zm-5,1.42a2.61,2.61,0,0,0-.5-.09,4.68,4.68,0,0,0-.55,0,2.09,2.09,0,0,0-1.14.28.62.62,0,0,0-.31.52.58.58,0,0,0,.23.46,1.13,1.13,0,0,0,.69.18,2.09,2.09,0,0,0,.81-.15,2.87,2.87,0,0,0,.77-.5Zm0,1.51v-.44a2.53,2.53,0,0,1-1.55.55,1.46,1.46,0,0,1-.94-.27.83.83,0,0,1-.33-.67,1,1,0,0,1,.43-.77,2.19,2.19,0,0,1,1.3-.33l.5,0a4.59,4.59,0,0,1,.59.08V173a.52.52,0,0,0-.26-.43,1.23,1.23,0,0,0-.76-.19,4.12,4.12,0,0,0-1.09.21l-.16,0a.16.16,0,0,1-.12,0,.15.15,0,0,1,0-.11.1.1,0,0,1,0-.09,1.16,1.16,0,0,1,.46-.16,4.14,4.14,0,0,1,.93-.15,1.48,1.48,0,0,1,1,.29.8.8,0,0,1,.36.64v2h.45a.23.23,0,0,1,.17.05.11.11,0,0,1,.06.11.13.13,0,0,1-.06.11.3.3,0,0,1-.17,0Zm-4.38-1.8a1.26,1.26,0,0,0-.52-.82,1.78,1.78,0,0,0-2,0,1.36,1.36,0,0,0-.52.82Zm.34.31h-3.4a1.41,1.41,0,0,0,.54.94,1.81,1.81,0,0,0,1.14.36,3.62,3.62,0,0,0,.77-.1,2.2,2.2,0,0,0,.67-.3.24.24,0,0,1,.13-.06.16.16,0,0,1,.11.05.14.14,0,0,1,.05.11.14.14,0,0,1-.06.11,2,2,0,0,1-.68.34,3.3,3.3,0,0,1-1,.15,2.12,2.12,0,0,1-1.45-.5,1.59,1.59,0,0,1-.56-1.24,1.47,1.47,0,0,1,.53-1.14,2,2,0,0,1,1.34-.47,1.88,1.88,0,0,1,1.34.49A1.59,1.59,0,0,1,304.87,173.8Zm-6.51-3V175h1.3a.26.26,0,0,1,.18.05.13.13,0,0,1,.05.11.14.14,0,0,1-.05.11.34.34,0,0,1-.18,0h-2.94a.41.41,0,0,1-.19,0,.14.14,0,0,1,0-.11.12.12,0,0,1,0-.11.31.31,0,0,1,.19-.05H298v-3.91h-1a.3.3,0,0,1-.18,0,.14.14,0,0,1-.05-.11.16.16,0,0,1,.05-.11.3.3,0,0,1,.18,0Zm-3.42,2.87a1.13,1.13,0,0,0-.42-.89,1.44,1.44,0,0,0-1-.38,1.47,1.47,0,0,0-1,.38,1.16,1.16,0,0,0,0,1.79,1.51,1.51,0,0,0,1,.38,1.48,1.48,0,0,0,1-.38A1.17,1.17,0,0,0,294.94,173.63Zm-2.9-1.47v.55a2.54,2.54,0,0,1,.64-.49,1.87,1.87,0,0,1,.82-.17,2,2,0,0,1,.9.21,1.61,1.61,0,0,1,.65.59,1.5,1.5,0,0,1,.23.78,1.45,1.45,0,0,1-.52,1.12,1.8,1.8,0,0,1-1.26.47,1.83,1.83,0,0,1-1.46-.67v1.83h.82a.35.35,0,0,1,.17,0,.13.13,0,0,1,.05.11.1.1,0,0,1-.05.1.22.22,0,0,1-.17.06h-1.59a.28.28,0,0,1-.18-.05.13.13,0,0,1,0-.11.16.16,0,0,1,0-.11.37.37,0,0,1,.18,0h.45v-3.91h-.45a.28.28,0,0,1-.18,0,.16.16,0,0,1,0-.11.14.14,0,0,1,0-.11.28.28,0,0,1,.18-.05Zm-9.16,2H284l-1.18,2a.33.33,0,0,1-.26.18.25.25,0,0,1-.17-.06.21.21,0,0,1-.07-.15.19.19,0,0,1,0-.08Zm-3.26-.42a2.47,2.47,0,0,0-.5-.09,4.63,4.63,0,0,0-.54,0,2.06,2.06,0,0,0-1.14.28.63.63,0,0,0-.32.52.56.56,0,0,0,.24.46,1.13,1.13,0,0,0,.69.18,2.16,2.16,0,0,0,.81-.15,2.83,2.83,0,0,0,.76-.5Zm0,1.51v-.44a2.51,2.51,0,0,1-1.55.55,1.43,1.43,0,0,1-.93-.27.81.81,0,0,1-.34-.67,1,1,0,0,1,.44-.77,2.16,2.16,0,0,1,1.29-.33l.5,0a4.59,4.59,0,0,1,.59.08V173a.51.51,0,0,0-.25-.43,1.27,1.27,0,0,0-.77-.19,4.13,4.13,0,0,0-1.08.21l-.16,0a.15.15,0,0,1-.17-.15.11.11,0,0,1,.05-.09,1.09,1.09,0,0,1,.45-.16,4.29,4.29,0,0,1,.94-.15,1.5,1.5,0,0,1,1,.29.8.8,0,0,1,.36.64v2h.45a.25.25,0,0,1,.17.05.11.11,0,0,1,.06.11.13.13,0,0,1-.06.11.32.32,0,0,1-.17,0Zm-4.73-2.93a.21.21,0,0,1,.05-.15.16.16,0,0,1,.11-.05.19.19,0,0,1,.13.05.22.22,0,0,1,.05.16v.51a.25.25,0,0,1-.05.17.18.18,0,0,1-.13,0,.15.15,0,0,1-.11,0,.17.17,0,0,1-.05-.13.5.5,0,0,0-.25-.36,1.95,1.95,0,0,0-1.74,0,.44.44,0,0,0-.23.35c0,.13.09.25.28.35a2,2,0,0,0,.73.16,4,4,0,0,1,1,.16,1.2,1.2,0,0,1,.57.34.72.72,0,0,1,.19.49.86.86,0,0,1-.41.69,2,2,0,0,1-1.2.29,2.18,2.18,0,0,1-1.29-.35.57.57,0,0,1,0,.16l-.06.06-.08,0a.22.22,0,0,1-.13,0,.25.25,0,0,1,0-.16v-.63a.21.21,0,0,1,0-.15.17.17,0,0,1,.13-.05.16.16,0,0,1,.11.05.17.17,0,0,1,.05.12.4.4,0,0,0,.09.27,1,1,0,0,0,.44.3,2.72,2.72,0,0,0,.75.1,1.75,1.75,0,0,0,1-.21.58.58,0,0,0,.32-.47.49.49,0,0,0-.31-.45,2.59,2.59,0,0,0-1-.23,4.68,4.68,0,0,1-.89-.15,1,1,0,0,1-.41-.29.62.62,0,0,1-.15-.4.72.72,0,0,1,.41-.62,2.15,2.15,0,0,1,1-.23A1.89,1.89,0,0,1,274.89,172.36Zm-5.81-.2V175h1.31a.25.25,0,0,1,.17.05.11.11,0,0,1,.06.11.13.13,0,0,1-.06.11.32.32,0,0,1-.17,0h-3a.35.35,0,0,1-.17,0,.14.14,0,0,1-.05-.11.13.13,0,0,1,.05-.11.26.26,0,0,1,.17-.05h1.32v-2.51h-1a.3.3,0,0,1-.18,0,.15.15,0,0,1,0-.11.14.14,0,0,1,0-.11.3.3,0,0,1,.18-.05Zm0-1.56v.79h-.49v-.79Zm-5.63.77V175h2.22v-1.2a.17.17,0,0,1,0-.15.17.17,0,0,1,.24,0,.21.21,0,0,1,.05.15v1.51h-3.69a.32.32,0,0,1-.17,0,.12.12,0,0,1-.05-.11s0-.09.05-.11a.25.25,0,0,1,.17-.05h.8v-3.61h-.8a.25.25,0,0,1-.17,0,.13.13,0,0,1-.05-.12.11.11,0,0,1,.05-.1.25.25,0,0,1,.17,0h1.93a.22.22,0,0,1,.16,0,.12.12,0,0,1,.06.1.14.14,0,0,1-.06.12.22.22,0,0,1-.16,0Z" transform="translate(-188.38 -115.82)"/>
      <path d="M322.61,184l-1.55-2.81H321a.25.25,0,0,1-.17-.05.16.16,0,0,1-.05-.11.29.29,0,0,1,0-.09l.07-.05.13,0h.92a.22.22,0,0,1,.16,0,.13.13,0,0,1,0,.22.22.22,0,0,1-.16.05h-.45l1.37,2.48,1.34-2.48h-.45a.3.3,0,0,1-.18-.05.17.17,0,0,1,0-.22.3.3,0,0,1,.18,0h.91a.22.22,0,0,1,.16,0,.14.14,0,0,1,.06.11.11.11,0,0,1,0,.09.14.14,0,0,1-.07.06h-.22l-2.11,3.9h.52a.23.23,0,0,1,.17,0,.12.12,0,0,1,.05.1.16.16,0,0,1-.05.11.23.23,0,0,1-.17.05H321a.27.27,0,0,1-.17,0,.17.17,0,0,1-.05-.12.12.12,0,0,1,.05-.1.26.26,0,0,1,.17,0h1Zm-3.44-1.79a1.26,1.26,0,0,0-.51-.82,1.69,1.69,0,0,0-1-.32,1.6,1.6,0,0,0-1,.32,1.28,1.28,0,0,0-.53.82Zm.34.3h-3.4a1.47,1.47,0,0,0,.55,1,1.81,1.81,0,0,0,1.13.35,3.07,3.07,0,0,0,.77-.1,2.2,2.2,0,0,0,.67-.3.28.28,0,0,1,.13-.06.14.14,0,0,1,.11.05.13.13,0,0,1,0,.11.14.14,0,0,1-.06.11,2,2,0,0,1-.68.34,3,3,0,0,1-1,.16,2.12,2.12,0,0,1-1.45-.51,1.62,1.62,0,0,1-.56-1.24,1.46,1.46,0,0,1,.53-1.13,1.94,1.94,0,0,1,1.34-.47,1.9,1.9,0,0,1,1.34.48A1.59,1.59,0,0,1,319.51,182.54Zm-7.35.14V184h-.79a.27.27,0,0,1-.17,0,.14.14,0,0,1-.05-.11.16.16,0,0,1,.05-.11.27.27,0,0,1,.17,0h.45v-3.92h-.45a.35.35,0,0,1-.17,0,.17.17,0,0,1-.05-.12.16.16,0,0,1,.05-.11.35.35,0,0,1,.17,0h.79v2.8l1.41-1.08h-.17a.3.3,0,0,1-.18-.05.15.15,0,0,1,0-.22.3.3,0,0,1,.18,0h1.07a.25.25,0,0,1,.17,0,.13.13,0,0,1,0,.22.25.25,0,0,1-.17.05h-.38l-1.31,1,1.65,1.53h.38a.26.26,0,0,1,.18,0,.13.13,0,0,1,.05.11.12.12,0,0,1-.05.11.26.26,0,0,1-.18,0h-1.08a.3.3,0,0,1-.18,0,.14.14,0,0,1,0-.11.15.15,0,0,1,0-.11.3.3,0,0,1,.18,0H314l-1.43-1.34Zm-7.7-1.46v-.11a.22.22,0,0,1,.05-.16.16.16,0,0,1,.11,0,.17.17,0,0,1,.13,0,.22.22,0,0,1,.05.16v.68a.25.25,0,0,1-.05.17.17.17,0,0,1-.13,0,.15.15,0,0,1-.11,0,.16.16,0,0,1-.05-.13.68.68,0,0,0-.37-.5,1.68,1.68,0,0,0-.93-.23,1.41,1.41,0,0,0-1.13.43,1.38,1.38,0,0,0-.39,1,1.26,1.26,0,0,0,.42,1,1.6,1.6,0,0,0,1.11.37,2.81,2.81,0,0,0,.79-.12,2.1,2.1,0,0,0,.72-.42.28.28,0,0,1,.15-.08.17.17,0,0,1,.12.05.12.12,0,0,1,0,.1c0,.11-.13.24-.4.4a2.82,2.82,0,0,1-1.44.38,1.93,1.93,0,0,1-1.32-.46,1.53,1.53,0,0,1-.52-1.19,1.59,1.59,0,0,1,.53-1.22,1.91,1.91,0,0,1,1.33-.48A2,2,0,0,1,304.46,181.22Zm-6.09-.32v2.83h1.3a.26.26,0,0,1,.18,0,.14.14,0,0,1,.06.11.13.13,0,0,1-.06.11.26.26,0,0,1-.18,0h-2.95a.3.3,0,0,1-.18,0,.14.14,0,0,1,0-.11.15.15,0,0,1,0-.11.3.3,0,0,1,.18,0H298v-2.51h-1a.26.26,0,0,1-.17-.05.15.15,0,0,1,0-.22.26.26,0,0,1,.17,0Zm0-1.55v.78h-.5v-.78Zm-4.88.15v4.23h1.3a.28.28,0,0,1,.18,0,.16.16,0,0,1,.05.11.14.14,0,0,1-.05.11.28.28,0,0,1-.18,0h-2.94a.32.32,0,0,1-.19,0,.14.14,0,0,1,0-.11.16.16,0,0,1,0-.11.32.32,0,0,1,.19,0h1.3v-3.92h-1a.4.4,0,0,1-.18,0,.17.17,0,0,1-.05-.12.16.16,0,0,1,.05-.11.4.4,0,0,1,.18,0Zm-3.42,3a1.25,1.25,0,0,0-.44-1,1.38,1.38,0,0,0-1-.4,1.46,1.46,0,0,0-1,.4,1.31,1.31,0,0,0-.43,1,1.28,1.28,0,0,0,.43,1,1.46,1.46,0,0,0,1,.4,1.38,1.38,0,0,0,1-.4A1.23,1.23,0,0,0,290.06,182.48Zm-2.9-3v2a1.86,1.86,0,0,1,1.47-.71,1.78,1.78,0,0,1,1.25.48,1.53,1.53,0,0,1,.52,1.18,1.58,1.58,0,0,1-.53,1.2,1.74,1.74,0,0,1-1.24.49,1.83,1.83,0,0,1-1.47-.72v.6h-.77a.26.26,0,0,1-.18,0,.12.12,0,0,1,0-.11.13.13,0,0,1,0-.11.26.26,0,0,1,.18,0h.45v-3.92h-.45a.34.34,0,0,1-.18,0,.13.13,0,0,1,0-.12.13.13,0,0,1,0-.11.34.34,0,0,1,.18,0ZM284.69,184v-.44a2.32,2.32,0,0,1-1.48.56,1,1,0,0,1-.74-.24,1,1,0,0,1-.34-.74v-1.95h-.44a.3.3,0,0,1-.18-.05.15.15,0,0,1,0-.22.3.3,0,0,1,.18,0h.78v2.27a.63.63,0,0,0,.2.48.74.74,0,0,0,.52.19,2.11,2.11,0,0,0,1.5-.67v-1.95h-.62a.25.25,0,0,1-.17-.05.15.15,0,0,1,0-.22.25.25,0,0,1,.17,0H285v2.83h.28a.25.25,0,0,1,.17,0,.14.14,0,0,1,.06.11.13.13,0,0,1-.06.11.25.25,0,0,1-.17,0Zm-4.39-1.66a1.11,1.11,0,0,0-.43-.89,1.44,1.44,0,0,0-1-.38,1.51,1.51,0,0,0-1,.38,1.16,1.16,0,0,0-.42.89,1.2,1.2,0,0,0,.42.91,1.51,1.51,0,0,0,1,.37,1.43,1.43,0,0,0,1-.37A1.18,1.18,0,0,0,280.3,182.37Zm-2.9-1.47v.56a2.28,2.28,0,0,1,.64-.5,1.88,1.88,0,0,1,.82-.16,2,2,0,0,1,.9.21,1.59,1.59,0,0,1,.65.58,1.47,1.47,0,0,1-.29,1.91,1.95,1.95,0,0,1-2.72-.2v1.82h.82a.22.22,0,0,1,.16,0,.11.11,0,0,1,.06.1.14.14,0,0,1-.06.11.22.22,0,0,1-.16.05h-1.59a.32.32,0,0,1-.19,0,.16.16,0,0,1,0-.12.12.12,0,0,1,0-.1.31.31,0,0,1,.19,0h.45v-3.9h-.45a.31.31,0,0,1-.19-.05.17.17,0,0,1,0-.22.31.31,0,0,1,.19,0Zm-7,1.58a1.26,1.26,0,0,0-.45-1,1.52,1.52,0,0,0-1.07-.41,1.59,1.59,0,0,0-1.09.41,1.28,1.28,0,0,0,0,1.93,1.58,1.58,0,0,0,1.09.4,1.51,1.51,0,0,0,1.07-.4A1.24,1.24,0,0,0,270.42,182.48Zm.35,0a1.51,1.51,0,0,1-.55,1.18,1.91,1.91,0,0,1-1.32.49,1.89,1.89,0,0,1-1.32-.5,1.54,1.54,0,0,1-.54-1.17,1.56,1.56,0,0,1,.54-1.19,1.88,1.88,0,0,1,1.32-.49,1.91,1.91,0,0,1,1.32.49A1.51,1.51,0,0,1,270.77,182.48Zm-7.43-1.58h1.81a.22.22,0,0,1,.16,0,.13.13,0,0,1,0,.22.22.22,0,0,1-.16.05h-1.81v2a.5.5,0,0,0,.23.44,1.08,1.08,0,0,0,.68.17,4,4,0,0,0,.73-.08,2.51,2.51,0,0,0,.61-.21.22.22,0,0,1,.14-.05.11.11,0,0,1,.1.05.14.14,0,0,1,.05.1.18.18,0,0,1-.05.11,1.66,1.66,0,0,1-.62.25,3.51,3.51,0,0,1-.94.14,1.59,1.59,0,0,1-.92-.24.81.81,0,0,1-.35-.68v-2h-.62a.3.3,0,0,1-.18-.05.17.17,0,0,1,0-.22.3.3,0,0,1,.18,0H263V180a.21.21,0,0,1,.05-.15.16.16,0,0,1,.11-.05.17.17,0,0,1,.13.05.21.21,0,0,1,0,.15Z" transform="translate(-188.38 -115.82)"/>
      <path d="M332.37,236.49l-1.54-2.82h-.11a.27.27,0,0,1-.17,0,.18.18,0,0,1-.05-.12.31.31,0,0,1,0-.08l.07-.05a.25.25,0,0,1,.13,0h.93a.23.23,0,0,1,.16,0,.14.14,0,0,1,.05.1.18.18,0,0,1-.05.12.24.24,0,0,1-.16,0h-.46l1.37,2.48,1.34-2.48h-.45a.3.3,0,0,1-.18,0,.17.17,0,0,1,0-.12.13.13,0,0,1,0-.1.3.3,0,0,1,.18,0h.91a.22.22,0,0,1,.16,0,.12.12,0,0,1,.06.1.13.13,0,0,1,0,.1.1.1,0,0,1-.06,0h-.22l-2.12,3.91h.52c.09,0,.14,0,.17,0a.13.13,0,0,1,.05.11.1.1,0,0,1-.05.1.19.19,0,0,1-.17.06h-1.91a.3.3,0,0,1-.18,0,.13.13,0,0,1-.05-.11.16.16,0,0,1,.05-.11.3.3,0,0,1,.18,0h1Zm-3.43-1.8a1.32,1.32,0,0,0-.52-.82,1.66,1.66,0,0,0-1-.31,1.59,1.59,0,0,0-1,.31,1.32,1.32,0,0,0-.52.82Zm.33.31h-3.39a1.44,1.44,0,0,0,.54.94,1.78,1.78,0,0,0,1.13.36,3,3,0,0,0,.77-.11,2.14,2.14,0,0,0,.68-.29.22.22,0,0,1,.12-.06.13.13,0,0,1,.12,0,.14.14,0,0,1,0,.11.14.14,0,0,1-.06.11,1.92,1.92,0,0,1-.68.34,3.3,3.3,0,0,1-1,.15,2.16,2.16,0,0,1-1.45-.5,1.64,1.64,0,0,1-.56-1.24,1.46,1.46,0,0,1,.53-1.13,2,2,0,0,1,1.34-.48,1.84,1.84,0,0,1,1.34.49A1.56,1.56,0,0,1,329.27,235Zm-7.35.13v1.36h-.79a.39.39,0,0,1-.17,0,.16.16,0,0,1,0-.11.13.13,0,0,1,0-.11.29.29,0,0,1,.17,0h.45v-3.92h-.45a.29.29,0,0,1-.17,0,.15.15,0,0,1,0-.22.29.29,0,0,1,.17,0h.79v2.79l1.41-1.08h-.16a.32.32,0,0,1-.19,0,.18.18,0,0,1-.05-.12.14.14,0,0,1,.05-.1.31.31,0,0,1,.19,0h1.06a.25.25,0,0,1,.17,0,.12.12,0,0,1,.06.1.16.16,0,0,1-.06.12.25.25,0,0,1-.17,0h-.38l-1.31,1,1.65,1.52h.39a.25.25,0,0,1,.17,0,.11.11,0,0,1,.06.11.14.14,0,0,1-.06.11.32.32,0,0,1-.17,0h-1.09a.32.32,0,0,1-.17,0,.16.16,0,0,1-.05-.11.13.13,0,0,1,.05-.11.25.25,0,0,1,.17,0h.24l-1.43-1.33Zm-7.7-1.46v-.1a.22.22,0,0,1,0-.16.17.17,0,0,1,.24,0,.22.22,0,0,1,.05.16v.68a.26.26,0,0,1-.05.17.2.2,0,0,1-.24,0,.2.2,0,0,1,0-.14.67.67,0,0,0-.37-.49,1.6,1.6,0,0,0-.93-.23,1.41,1.41,0,0,0-1.13.43,1.36,1.36,0,0,0-.38,1,1.23,1.23,0,0,0,.41,1,1.64,1.64,0,0,0,1.11.38,2.47,2.47,0,0,0,.79-.13,1.75,1.75,0,0,0,.72-.42.25.25,0,0,1,.15-.07.16.16,0,0,1,.12,0,.14.14,0,0,1,.05.11c0,.1-.14.24-.41.4a2.81,2.81,0,0,1-1.44.37,1.91,1.91,0,0,1-1.32-.46,1.52,1.52,0,0,1-.52-1.19,1.57,1.57,0,0,1,.53-1.21,1.89,1.89,0,0,1,1.33-.49A2,2,0,0,1,314.22,233.67Zm-6.09-.31v2.82h1.31a.25.25,0,0,1,.17,0,.11.11,0,0,1,.06.11.14.14,0,0,1-.06.11.32.32,0,0,1-.17,0h-3a.32.32,0,0,1-.17,0,.13.13,0,0,1-.05-.11c0-.05,0-.09.05-.11a.25.25,0,0,1,.17,0h1.32v-2.51h-1a.29.29,0,0,1-.17,0,.18.18,0,0,1-.05-.12.14.14,0,0,1,.05-.1.29.29,0,0,1,.17,0Zm0-1.56v.79h-.5v-.79Zm-4.88.16v4.22h1.3a.26.26,0,0,1,.18,0,.13.13,0,0,1,0,.11.16.16,0,0,1,0,.11.34.34,0,0,1-.18,0H301.6a.41.41,0,0,1-.19,0,.15.15,0,0,1,0-.11.12.12,0,0,1,0-.11.31.31,0,0,1,.19,0h1.3v-3.92h-1a.3.3,0,0,1-.18,0,.15.15,0,0,1,0-.22.3.3,0,0,1,.18,0Zm-3.42,3a1.25,1.25,0,0,0-.43-1,1.44,1.44,0,0,0-1-.4,1.48,1.48,0,0,0-1,.4,1.28,1.28,0,0,0-.42,1,1.3,1.3,0,0,0,.42,1,1.53,1.53,0,0,0,1,.4,1.48,1.48,0,0,0,1-.4A1.27,1.27,0,0,0,299.82,234.93Zm-2.9-3v2a1.87,1.87,0,0,1,1.47-.72,1.74,1.74,0,0,1,1.25.49,1.52,1.52,0,0,1,.52,1.17,1.6,1.6,0,0,1-.53,1.21,1.77,1.77,0,0,1-1.24.48,1.84,1.84,0,0,1-1.47-.71v.6h-.77a.37.37,0,0,1-.18,0,.13.13,0,0,1-.05-.11c0-.05,0-.09.05-.11a.28.28,0,0,1,.18,0h.45v-3.92h-.45a.28.28,0,0,1-.18,0,.15.15,0,0,1,0-.22.28.28,0,0,1,.18,0Zm-2.47,4.53v-.44a2.31,2.31,0,0,1-1.48.55,1,1,0,0,1-.74-.24,1,1,0,0,1-.34-.73v-2h-.43a.32.32,0,0,1-.19,0,.18.18,0,0,1,0-.12.14.14,0,0,1,0-.1.31.31,0,0,1,.19,0h.77v2.27a.61.61,0,0,0,.21.48.73.73,0,0,0,.52.19,2.09,2.09,0,0,0,1.49-.67v-2h-.62a.25.25,0,0,1-.17,0,.17.17,0,0,1,0-.12.13.13,0,0,1,0-.1.25.25,0,0,1,.17,0h.95v2.82h.28a.25.25,0,0,1,.17,0,.11.11,0,0,1,.06.11.14.14,0,0,1-.06.11.32.32,0,0,1-.17,0Zm-4.39-1.66a1.17,1.17,0,0,0-.42-.9,1.47,1.47,0,0,0-1-.37,1.52,1.52,0,0,0-1,.37,1.2,1.2,0,0,0-.42.9,1.17,1.17,0,0,0,.42.9,1.49,1.49,0,0,0,1,.38,1.44,1.44,0,0,0,1-.38A1.17,1.17,0,0,0,290.06,234.83Zm-2.9-1.47v.55a2.23,2.23,0,0,1,.64-.49,1.87,1.87,0,0,1,.82-.17,2,2,0,0,1,.9.21,1.61,1.61,0,0,1,.65.59,1.5,1.5,0,0,1,.23.78,1.45,1.45,0,0,1-.52,1.12,1.8,1.8,0,0,1-1.26.46,1.85,1.85,0,0,1-1.46-.66v1.83H288a.22.22,0,0,1,.16,0,.14.14,0,0,1,.06.11.11.11,0,0,1-.06.1.18.18,0,0,1-.16.06h-1.59a.26.26,0,0,1-.18,0s0-.06,0-.11a.13.13,0,0,1,0-.11.26.26,0,0,1,.18,0h.45v-3.91h-.45a.26.26,0,0,1-.18,0,.15.15,0,0,1,0-.12.11.11,0,0,1,0-.1.26.26,0,0,1,.18,0Zm-10,0v.31a1.23,1.23,0,0,1,.85-.42.77.77,0,0,1,.45.13,1,1,0,0,1,.33.38,1.43,1.43,0,0,1,.45-.38.89.89,0,0,1,.46-.13.81.81,0,0,1,.58.21.85.85,0,0,1,.27.6v2.12h.28a.28.28,0,0,1,.18,0,.13.13,0,0,1,.05.11.16.16,0,0,1-.05.11.37.37,0,0,1-.18,0h-.61v-2.4a.49.49,0,0,0-.16-.38.49.49,0,0,0-.35-.15.79.79,0,0,0-.39.12,1.92,1.92,0,0,0-.45.5v2h.27a.25.25,0,0,1,.17,0s.05.06.05.11a.13.13,0,0,1-.05.11.32.32,0,0,1-.17,0h-.62v-2.38a.54.54,0,0,0-.16-.4.49.49,0,0,0-.35-.15.63.63,0,0,0-.34.1,1.8,1.8,0,0,0-.51.52v2h.27a.25.25,0,0,1,.17,0s.05.06.05.11a.13.13,0,0,1-.05.11.32.32,0,0,1-.17,0h-.9a.39.39,0,0,1-.17,0,.16.16,0,0,1-.05-.11.13.13,0,0,1,.05-.11.29.29,0,0,1,.17,0h.29v-2.51h-.29a.29.29,0,0,1-.17,0,.18.18,0,0,1-.05-.12.14.14,0,0,1,.05-.1.29.29,0,0,1,.17,0Zm-1.84,1.57a1.25,1.25,0,0,0-.46-1,1.48,1.48,0,0,0-1.07-.41,1.56,1.56,0,0,0-1.09.41,1.26,1.26,0,0,0-.44,1,1.3,1.3,0,0,0,.44,1,1.65,1.65,0,0,0,1.09.4,1.56,1.56,0,0,0,1.07-.4A1.27,1.27,0,0,0,275.31,234.93Zm.34,0a1.53,1.53,0,0,1-.55,1.19,1.92,1.92,0,0,1-1.32.48,1.9,1.9,0,0,1-1.32-.49,1.56,1.56,0,0,1,0-2.36,2,2,0,0,1,2.64,0A1.49,1.49,0,0,1,275.65,234.93Zm-7.14-1.57v.76a5.35,5.35,0,0,1,1-.68,1.42,1.42,0,0,1,.6-.16.88.88,0,0,1,.55.19c.17.12.26.21.26.28a.14.14,0,0,1-.06.11.16.16,0,0,1-.12,0h-.07l-.1-.08a1,1,0,0,0-.24-.17.39.39,0,0,0-.2,0,1.16,1.16,0,0,0-.53.16,6.73,6.73,0,0,0-1.06.77v1.66H270a.25.25,0,0,1,.17,0s.05.06.05.11a.13.13,0,0,1-.05.11.32.32,0,0,1-.17,0h-2.62a.39.39,0,0,1-.17,0,.16.16,0,0,1-.05-.11.12.12,0,0,1,.05-.1.25.25,0,0,1,.17-.05h.81v-2.52h-.61a.34.34,0,0,1-.19,0,.17.17,0,0,1,0-.12.13.13,0,0,1,0-.1.33.33,0,0,1,.19,0Zm-4.71.31v2.51h1.47a.23.23,0,0,1,.16,0,.11.11,0,0,1,.06.11.14.14,0,0,1-.06.11.31.31,0,0,1-.16,0h-2.61a.4.4,0,0,1-.18,0,.15.15,0,0,1,0-.11.12.12,0,0,1,0-.11.3.3,0,0,1,.18,0h.8v-2.51h-.72a.3.3,0,0,1-.18,0,.17.17,0,0,1,0-.12.13.13,0,0,1,0-.1.3.3,0,0,1,.18,0h.72v-.45a.85.85,0,0,1,.34-.67,1.39,1.39,0,0,1,.91-.28,7.25,7.25,0,0,1,1,.07c.14,0,.22.05.24.08a.11.11,0,0,1,.05.1.16.16,0,0,1-.05.11.22.22,0,0,1-.13,0h-.1a7.05,7.05,0,0,0-1-.09,1.06,1.06,0,0,0-.68.2.59.59,0,0,0-.23.45v.45h1.56a.25.25,0,0,1,.17,0,.12.12,0,0,1,.06.1.16.16,0,0,1-.06.12.25.25,0,0,1-.17,0Z" transform="translate(-188.38 -115.82)"/>
    </g>
    <g>
      <path class="cls-25" d="M315.39,149.46c2.1-6,6.75-9.31,14.11-9.61" transform="translate(-188.38 -115.82)"/>
      <polygon points="128.94 33.74 126.11 36.18 125.42 32.5 128.94 33.74"/>
    </g>
    <text class="cls-23" transform="translate(144.5 26.76)">Email to Lisa</text>
    <g>
      <path class="cls-25" d="M229.15,130.27c2.1-6,6.76-9.31,14.11-9.61" transform="translate(-188.38 -115.82)"/>
      <polygon points="42.71 14.55 39.87 16.99 39.18 13.31 42.71 14.55"/>
    </g>
    <text class="cls-23" transform="translate(58.26 7.57)">Joh<tspan class="cls-26" x="11.4" y="0">n</tspan><tspan x="15.72" y="0">’s private key</tspan></text>
    <path d="M287,294.4a24.39,24.39,0,0,1-2.33-.85v2.9c.27-.13,1.38-.57,2.32-.87a17.55,17.55,0,0,1,2.54-.6A17,17,0,0,1,287,294.4Z" transform="translate(-188.38 -115.82)"/>
    <polyline class="cls-17" points="96.9 179.18 27.12 179.18 27.12 128.15"/>
    <path d="M231.5,220.56a24.51,24.51,0,0,0,2.33-.84v2.9a22.94,22.94,0,0,0-2.32-.87,17.55,17.55,0,0,0-2.54-.6A16.07,16.07,0,0,0,231.5,220.56Z" transform="translate(-188.38 -115.82)"/>
    <line class="cls-17" x1="44.82" y1="105.35" x2="55.2" y2="105.35"/>
    <path class="cls-9" d="M260.25,167.45h-6.06c-2.93,0-5.3,3.53-5.3,7.88v37.95c0,4.36-2.38,7.89-5.31,7.89,2.93,0,5.31,3.53,5.31,7.88v38c0,4.36,2.37,7.89,5.3,7.89h6.06" transform="translate(-188.38 -115.82)"/>
    <text class="cls-27" transform="translate(73.29 84.99)">0222436a49cd8ff2605255<tspan x="0" y="8.7">dcea8fadd6a9aff20703d5</tspan><tspan x="0" y="17.4">8d22bef7c5a6fc23807712</tspan></text>
    <text class="cls-27" transform="translate(73.29 135.83)">035541a13851a3742489fd<tspan x="0" y="8.7">ddeef21be13c1abb85e053</tspan><tspan x="0" y="17.4">222c0dbf3703ba218dc1f3</tspan></text>
    <g>
      <path class="cls-25" d="M367.28,204.18c14.38,0,22.92-6.52,33.06-6.52" transform="translate(-188.38 -115.82)"/>
      <polygon points="179.45 90.22 176.21 88.35 179.45 86.48 179.45 90.22"/>
    </g>
    <g>
      <path class="cls-25" d="M367.28,258.18c14.38,0,22.92-6.52,33.06-6.52" transform="translate(-188.38 -115.82)"/>
      <polygon points="179.45 144.22 176.21 142.35 179.45 140.48 179.45 144.22"/>
    </g>
  </g>
</svg>
