<?xml version="1.0" encoding="UTF-8" standalone="no"?>
<svg
   xmlns:dc="http://purl.org/dc/elements/1.1/"
   xmlns:cc="http://creativecommons.org/ns#"
   xmlns:rdf="http://www.w3.org/1999/02/22-rdf-syntax-ns#"
   xmlns:svg="http://www.w3.org/2000/svg"
   xmlns="http://www.w3.org/2000/svg"
   version="1.1"
   id="svg2"
   xml:space="preserve"
   width="463.43466"
   height="160.75867"
   viewBox="0 0 463.43466 160.75867"><metadata
     id="metadata8"><rdf:RDF><cc:Work
         rdf:about=""><dc:format>image/svg+xml</dc:format><dc:type
           rdf:resource="http://purl.org/dc/dcmitype/StillImage" /></cc:Work></rdf:RDF></metadata><defs
     id="defs6"><clipPath
       clipPathUnits="userSpaceOnUse"
       id="clipPath54"><path
         d="M 0,792 H 612 V 0 H 0 Z"
         id="path52" /></clipPath><clipPath
       clipPathUnits="userSpaceOnUse"
       id="clipPath96"><path
         d="M 0,792 H 612 V 0 H 0 Z"
         id="path94" /></clipPath><clipPath
       clipPathUnits="userSpaceOnUse"
       id="clipPath114"><path
         d="M 0,792 H 612 V 0 H 0 Z"
         id="path112" /></clipPath><clipPath
       clipPathUnits="userSpaceOnUse"
       id="clipPath132"><path
         d="M 0,792 H 612 V 0 H 0 Z"
         id="path130" /></clipPath><clipPath
       clipPathUnits="userSpaceOnUse"
       id="clipPath202"><path
         d="M 0,792 H 612 V 0 H 0 Z"
         id="path200" /></clipPath><linearGradient
       x1="0"
       y1="0"
       x2="1"
       y2="0"
       gradientUnits="userSpaceOnUse"
       gradientTransform="matrix(33.530762,0,0,-33.530762,246.47656,599.1709)"
       spreadMethod="pad"
       id="linearGradient242"><stop
         style="stop-opacity:1;stop-color:#ffffff"
         offset="0"
         id="stop238" /><stop
         style="stop-opacity:1;stop-color:#359cce"
         offset="1"
         id="stop240" /></linearGradient><clipPath
       clipPathUnits="userSpaceOnUse"
       id="clipPath252"><path
         d="M 0,792 H 612 V 0 H 0 Z"
         id="path250" /></clipPath></defs><g
     id="g10"
     transform="matrix(1.3333333,0,0,-1.3333333,-157.96,879.00798)"><path
       d="M 159.553,629.694 H 118.72 v 12.289 h 40.833 z"
       style="fill:#e9e9e9;fill-opacity:1;fill-rule:nonzero;stroke:#231f20;stroke-width:0.5;stroke-linecap:butt;stroke-linejoin:round;stroke-miterlimit:10;stroke-dasharray:none;stroke-opacity:1"
       id="path12" /><path
       d="m 200.385,629.694 h -40.833 v 12.289 h 40.833 z"
       style="fill:#e9e9e9;fill-opacity:1;fill-rule:nonzero;stroke:#231f20;stroke-width:0.5;stroke-linecap:butt;stroke-linejoin:round;stroke-miterlimit:10;stroke-dasharray:none;stroke-opacity:1"
       id="path14" /><path
       d="m 244.551,629.694 h -44.166 v 12.289 h 44.166 z"
       style="fill:#e9e9e9;fill-opacity:1;fill-rule:nonzero;stroke:#231f20;stroke-width:0.5;stroke-linecap:butt;stroke-linejoin:round;stroke-miterlimit:10;stroke-dasharray:none;stroke-opacity:1"
       id="path16" /><path
       d="M 159.553,617.405 H 118.72 v 12.289 h 40.833 z"
       style="fill:#ffffff;fill-opacity:1;fill-rule:nonzero;stroke:#231f20;stroke-width:0.5;stroke-linecap:butt;stroke-linejoin:round;stroke-miterlimit:10;stroke-dasharray:none;stroke-opacity:1"
       id="path18" /><path
       d="M 159.553,605.116 H 118.72 v 12.289 h 40.833 z"
       style="fill:#ffffff;fill-opacity:1;fill-rule:nonzero;stroke:#231f20;stroke-width:0.5;stroke-linecap:butt;stroke-linejoin:round;stroke-miterlimit:10;stroke-dasharray:none;stroke-opacity:1"
       id="path20" /><path
       d="M 159.553,592.827 H 118.72 v 12.289 h 40.833 z"
       style="fill:#ffffff;fill-opacity:1;fill-rule:nonzero;stroke:#231f20;stroke-width:0.5;stroke-linecap:butt;stroke-linejoin:round;stroke-miterlimit:10;stroke-dasharray:none;stroke-opacity:1"
       id="path22" /><path
       d="m 200.385,617.405 h -40.833 v 12.289 h 40.833 z"
       style="fill:#ffffff;fill-opacity:1;fill-rule:nonzero;stroke:#231f20;stroke-width:0.5;stroke-linecap:butt;stroke-linejoin:round;stroke-miterlimit:10;stroke-dasharray:none;stroke-opacity:1"
       id="path24" /><path
       d="m 200.385,605.116 h -40.833 v 12.289 h 40.833 z"
       style="fill:#ffffff;fill-opacity:1;fill-rule:nonzero;stroke:#231f20;stroke-width:0.5;stroke-linecap:butt;stroke-linejoin:round;stroke-miterlimit:10;stroke-dasharray:none;stroke-opacity:1"
       id="path26" /><path
       d="m 200.385,592.827 h -40.833 v 12.289 h 40.833 z"
       style="fill:#ffffff;fill-opacity:1;fill-rule:nonzero;stroke:#231f20;stroke-width:0.5;stroke-linecap:butt;stroke-linejoin:round;stroke-miterlimit:10;stroke-dasharray:none;stroke-opacity:1"
       id="path28" /><path
       d="m 244.551,617.405 h -44.166 v 12.289 h 44.166 z"
       style="fill:#ffffff;fill-opacity:1;fill-rule:nonzero;stroke:#231f20;stroke-width:0.5;stroke-linecap:butt;stroke-linejoin:round;stroke-miterlimit:10;stroke-dasharray:none;stroke-opacity:1"
       id="path30" /><path
       d="m 244.551,605.116 h -44.166 v 12.289 h 44.166 z"
       style="fill:#ffffff;fill-opacity:1;fill-rule:nonzero;stroke:#231f20;stroke-width:0.5;stroke-linecap:butt;stroke-linejoin:round;stroke-miterlimit:10;stroke-dasharray:none;stroke-opacity:1"
       id="path32" /><path
       d="m 244.551,592.827 h -44.166 v 12.289 h 44.166 z"
       style="fill:#ffffff;fill-opacity:1;fill-rule:nonzero;stroke:#231f20;stroke-width:0.5;stroke-linecap:butt;stroke-linejoin:round;stroke-miterlimit:10;stroke-dasharray:none;stroke-opacity:1"
       id="path34" /><g
       id="g36"
       transform="translate(119.374,630.1196)"><path
         d="M 0,0 V 11.19 H 39.638"
         style="fill:none;stroke:#ffffff;stroke-width:0.75;stroke-linecap:butt;stroke-linejoin:round;stroke-miterlimit:10;stroke-dasharray:none;stroke-opacity:1"
         id="path38" /></g><g
       id="g40"
       transform="translate(160.207,630.1196)"><path
         d="M 0,0 V 11.19 H 39.637"
         style="fill:none;stroke:#ffffff;stroke-width:0.75;stroke-linecap:butt;stroke-linejoin:round;stroke-miterlimit:10;stroke-dasharray:none;stroke-opacity:1"
         id="path42" /></g><g
       id="g44"
       transform="translate(201.0396,630.1196)"><path
         d="M 0,0 V 11.19 H 42.97"
         style="fill:none;stroke:#ffffff;stroke-width:0.75;stroke-linecap:butt;stroke-linejoin:round;stroke-miterlimit:10;stroke-dasharray:none;stroke-opacity:1"
         id="path46" /></g><g
       id="g48"><g
         id="g50"
         clip-path="url(#clipPath54)"><text
           transform="matrix(1,0,0,-1,130.8677,633.6152)"
           style="font-variant:normal;font-weight:normal;font-stretch:normal;font-size:7px;font-family:Arial;-inkscape-font-specification:ArialMT;writing-mode:lr-tb;fill:#231f20;fill-opacity:1;fill-rule:nonzero;stroke:none"
           id="text58"><tspan
             x="0 4.277 6.6079998 10.5"
             y="0"
             id="tspan56">From</tspan></text><text
           transform="matrix(1,0,0,-1,123.4756,621.3262)"
           style="font-variant:normal;font-weight:normal;font-stretch:normal;font-size:9px;font-family:Arial;-inkscape-font-specification:ArialMT;writing-mode:lr-tb;fill:#231f20;fill-opacity:1;fill-rule:nonzero;stroke:none"
           id="text62"><tspan
             x="0 2.5020001 5.0040002"
             y="0"
             id="tspan60">...</tspan></text><text
           transform="matrix(1,0,0,-1,123.4756,609.0381)"
           style="font-variant:normal;font-weight:normal;font-stretch:normal;font-size:7px;font-family:Arial;-inkscape-font-specification:ArialMT;writing-mode:lr-tb;fill:#231f20;fill-opacity:1;fill-rule:nonzero;stroke:none"
           id="text66"><tspan
             x="0 5.0539999 8.9460001 10.892"
             y="0"
             id="tspan64">Cafe</tspan></text><text
           transform="matrix(1,0,0,-1,164.3081,621.3262)"
           style="font-variant:normal;font-weight:normal;font-stretch:normal;font-size:9px;font-family:Arial;-inkscape-font-specification:ArialMT;writing-mode:lr-tb;fill:#231f20;fill-opacity:1;fill-rule:nonzero;stroke:none"
           id="text70"><tspan
             x="0 2.5020001 5.0040002"
             y="0"
             id="tspan68">...</tspan></text><text
           transform="matrix(1,0,0,-1,164.3081,609.0381)"
           style="font-variant:normal;font-weight:normal;font-stretch:normal;font-size:7px;font-family:Arial;-inkscape-font-specification:ArialMT;writing-mode:lr-tb;fill:#231f20;fill-opacity:1;fill-rule:nonzero;stroke:none"
           id="text74"><tspan
             x="0 4.6690001 8.5609999 12.453"
             y="0"
             id="tspan72">Anne</tspan></text><text
           transform="matrix(1,0,0,-1,230.3057,621.3262)"
           style="font-variant:normal;font-weight:normal;font-stretch:normal;font-size:9px;font-family:Arial;-inkscape-font-specification:ArialMT;writing-mode:lr-tb;fill:#231f20;fill-opacity:1;fill-rule:nonzero;stroke:none"
           id="text78"><tspan
             x="0 2.5020001 5.0040002"
             y="0"
             id="tspan76">...</tspan></text><text
           transform="matrix(1,0,0,-1,220.29,609.0381)"
           style="font-variant:normal;font-weight:normal;font-stretch:normal;font-size:7px;font-family:Arial;-inkscape-font-specification:ArialMT;writing-mode:lr-tb;fill:#231f20;fill-opacity:1;fill-rule:nonzero;stroke:none"
           id="text82"><tspan
             x="0 3.892 5.8379998 9.7299995 13.622"
             y="0"
             id="tspan80">1,000</tspan></text></g></g><path
       d="M 159.553,580.538 H 118.72 v 12.289 h 40.833 z"
       style="fill:#ffffff;fill-opacity:1;fill-rule:nonzero;stroke:#231f20;stroke-width:0.5;stroke-linecap:butt;stroke-linejoin:round;stroke-miterlimit:10;stroke-dasharray:none;stroke-opacity:1"
       id="path84" /><path
       d="m 200.385,580.538 h -40.833 v 12.289 h 40.833 z"
       style="fill:#ffffff;fill-opacity:1;fill-rule:nonzero;stroke:#231f20;stroke-width:0.5;stroke-linecap:butt;stroke-linejoin:round;stroke-miterlimit:10;stroke-dasharray:none;stroke-opacity:1"
       id="path86" /><path
       d="m 244.551,580.538 h -44.166 v 12.289 h 44.166 z"
       style="fill:#ffffff;fill-opacity:1;fill-rule:nonzero;stroke:#231f20;stroke-width:0.5;stroke-linecap:butt;stroke-linejoin:round;stroke-miterlimit:10;stroke-dasharray:none;stroke-opacity:1"
       id="path88" /><g
       id="g90"><g
         id="g92"
         clip-path="url(#clipPath96)"><text
           transform="matrix(1,0,0,-1,123.4756,584.459)"
           style="font-variant:normal;font-weight:normal;font-stretch:normal;font-size:7px;font-family:Arial;-inkscape-font-specification:ArialMT;writing-mode:lr-tb;fill:#231f20;fill-opacity:1;fill-rule:nonzero;stroke:none"
           id="text100"><tspan
             x="0 5.0539999 8.9460001 10.892 40.831001 45.884998 49.777 55.608002 59.5 63.391998 67.283997 92.917999 96.809998 100.702 102.648 106.54 110.432"
             y="0"
             id="tspan98">CafeCompany10,000</tspan></text></g></g><path
       d="M 159.553,568.249 H 118.72 v 12.289 h 40.833 z"
       style="fill:#ffffff;fill-opacity:1;fill-rule:nonzero;stroke:#231f20;stroke-width:0.5;stroke-linecap:butt;stroke-linejoin:round;stroke-miterlimit:10;stroke-dasharray:none;stroke-opacity:1"
       id="path102" /><path
       d="m 200.385,568.249 h -40.833 v 12.289 h 40.833 z"
       style="fill:#ffffff;fill-opacity:1;fill-rule:nonzero;stroke:#231f20;stroke-width:0.5;stroke-linecap:butt;stroke-linejoin:round;stroke-miterlimit:10;stroke-dasharray:none;stroke-opacity:1"
       id="path104" /><path
       d="m 244.551,568.249 h -44.166 v 12.289 h 44.166 z"
       style="fill:#ffffff;fill-opacity:1;fill-rule:nonzero;stroke:#231f20;stroke-width:0.5;stroke-linecap:butt;stroke-linejoin:round;stroke-miterlimit:10;stroke-dasharray:none;stroke-opacity:1"
       id="path106" /><g
       id="g108"><g
         id="g110"
         clip-path="url(#clipPath114)"><text
           transform="matrix(1,0,0,-1,123.4756,572.1699)"
           style="font-variant:normal;font-weight:normal;font-stretch:normal;font-size:7px;font-family:Arial;-inkscape-font-specification:ArialMT;writing-mode:lr-tb;fill:#231f20;fill-opacity:1;fill-rule:nonzero;stroke:none"
           id="text118"><tspan
             x="0 4.6690001 6.223 7.777 11.277 40.831001 45.884998 49.777 51.723 106.547 110.439"
             y="0"
             id="tspan116">AliceCafe10</tspan></text></g></g><path
       d="M 159.553,555.959 H 118.72 v 12.289 h 40.833 z"
       style="fill:#ffffff;fill-opacity:1;fill-rule:nonzero;stroke:#231f20;stroke-width:0.5;stroke-linecap:butt;stroke-linejoin:round;stroke-miterlimit:10;stroke-dasharray:none;stroke-opacity:1"
       id="path120" /><path
       d="m 200.385,555.959 h -40.833 v 12.289 h 40.833 z"
       style="fill:#ffffff;fill-opacity:1;fill-rule:nonzero;stroke:#231f20;stroke-width:0.5;stroke-linecap:butt;stroke-linejoin:round;stroke-miterlimit:10;stroke-dasharray:none;stroke-opacity:1"
       id="path122" /><path
       d="m 244.551,555.959 h -44.166 v 12.289 h 44.166 z"
       style="fill:#ffffff;fill-opacity:1;fill-rule:nonzero;stroke:#231f20;stroke-width:0.5;stroke-linecap:butt;stroke-linejoin:round;stroke-miterlimit:10;stroke-dasharray:none;stroke-opacity:1"
       id="path124" /><g
       id="g126"><g
         id="g128"
         clip-path="url(#clipPath132)"><text
           transform="matrix(1,0,0,-1,123.4756,559.8809)"
           style="font-variant:normal;font-weight:normal;font-stretch:normal;font-size:7px;font-family:Arial;-inkscape-font-specification:ArialMT;writing-mode:lr-tb;fill:#231f20;fill-opacity:1;fill-rule:nonzero;stroke:none"
           id="text140"><tspan
             x="0 3.5 7.3920002 11.284 40.831001 45.884998 49.777 51.723 106.547 110.439"
             y="0"
             id="tspan134">JohnCafe10</tspan><tspan
             x="52.290001 56.567001 81.305 85.973999 91.805 95.696999 99.588997 103.481 105.427 107.373 112.427"
             y="-73.731003"
             id="tspan136">ToAmount CT</tspan><tspan
             x="-0.66500002 3.227 4.7810001 8.2810001 40.166 45.220001 49.112 51.057999 106.554 110.446"
             y="-36.868999"
             id="tspan138">LisaCafe10</tspan></text></g></g><path
       d="m 357.669,646.717 h -75.128 v 12.289 h 75.128 z"
       style="fill:#e9e9e9;fill-opacity:1;fill-rule:nonzero;stroke:#231f20;stroke-width:0.5;stroke-linecap:butt;stroke-linejoin:round;stroke-miterlimit:10;stroke-dasharray:none;stroke-opacity:1"
       id="path142" /><path
       d="m 432.797,646.717 h -75.128 v 12.289 h 75.128 z"
       style="fill:#e9e9e9;fill-opacity:1;fill-rule:nonzero;stroke:#231f20;stroke-width:0.5;stroke-linecap:butt;stroke-linejoin:round;stroke-miterlimit:10;stroke-dasharray:none;stroke-opacity:1"
       id="path144" /><path
       d="m 465.796,646.717 h -32.999 v 12.289 h 32.999 z"
       style="fill:#e9e9e9;fill-opacity:1;fill-rule:nonzero;stroke:#231f20;stroke-width:0.5;stroke-linecap:butt;stroke-linejoin:round;stroke-miterlimit:10;stroke-dasharray:none;stroke-opacity:1"
       id="path146" /><path
       d="m 357.669,634.428 h -75.128 v 12.289 h 75.128 z"
       style="fill:#ffffff;fill-opacity:1;fill-rule:nonzero;stroke:#231f20;stroke-width:0.5;stroke-linecap:butt;stroke-linejoin:round;stroke-miterlimit:10;stroke-dasharray:none;stroke-opacity:1"
       id="path148" /><path
       d="m 432.797,634.428 h -75.128 v 12.289 h 75.128 z"
       style="fill:#ffffff;fill-opacity:1;fill-rule:nonzero;stroke:#231f20;stroke-width:0.5;stroke-linecap:butt;stroke-linejoin:round;stroke-miterlimit:10;stroke-dasharray:none;stroke-opacity:1"
       id="path150" /><path
       d="m 465.796,634.428 h -32.999 v 12.289 h 32.999 z"
       style="fill:#ffffff;fill-opacity:1;fill-rule:nonzero;stroke:#231f20;stroke-width:0.5;stroke-linecap:butt;stroke-linejoin:round;stroke-miterlimit:10;stroke-dasharray:none;stroke-opacity:1"
       id="path152" /><path
       d="m 357.669,615.33 h -75.128 v 19.098 h 75.128 z"
       style="fill:#ffffff;fill-opacity:1;fill-rule:nonzero;stroke:#231f20;stroke-width:0.5;stroke-linecap:butt;stroke-linejoin:round;stroke-miterlimit:10;stroke-dasharray:none;stroke-opacity:1"
       id="path154" /><path
       d="m 432.797,615.33 h -75.128 v 19.098 h 75.128 z"
       style="fill:#ffffff;fill-opacity:1;fill-rule:nonzero;stroke:#231f20;stroke-width:0.5;stroke-linecap:butt;stroke-linejoin:round;stroke-miterlimit:10;stroke-dasharray:none;stroke-opacity:1"
       id="path156" /><path
       d="m 465.796,615.33 h -32.999 v 19.098 h 32.999 z"
       style="fill:#ffffff;fill-opacity:1;fill-rule:nonzero;stroke:#231f20;stroke-width:0.5;stroke-linecap:butt;stroke-linejoin:round;stroke-miterlimit:10;stroke-dasharray:none;stroke-opacity:1"
       id="path158" /><path
       d="m 357.669,596.231 h -75.128 v 19.098 h 75.128 z"
       style="fill:#ffffff;fill-opacity:1;fill-rule:nonzero;stroke:#231f20;stroke-width:0.5;stroke-linecap:butt;stroke-linejoin:round;stroke-miterlimit:10;stroke-dasharray:none;stroke-opacity:1"
       id="path160" /><path
       d="m 432.797,596.231 h -75.128 v 19.098 h 75.128 z"
       style="fill:#ffffff;fill-opacity:1;fill-rule:nonzero;stroke:#231f20;stroke-width:0.5;stroke-linecap:butt;stroke-linejoin:round;stroke-miterlimit:10;stroke-dasharray:none;stroke-opacity:1"
       id="path162" /><path
       d="m 465.796,596.231 h -32.999 v 19.098 h 32.999 z"
       style="fill:#ffffff;fill-opacity:1;fill-rule:nonzero;stroke:#231f20;stroke-width:0.5;stroke-linecap:butt;stroke-linejoin:round;stroke-miterlimit:10;stroke-dasharray:none;stroke-opacity:1"
       id="path164" /><path
       d="m 357.669,577.133 h -75.128 v 19.098 h 75.128 z"
       style="fill:#ffffff;fill-opacity:1;fill-rule:nonzero;stroke:#231f20;stroke-width:0.5;stroke-linecap:butt;stroke-linejoin:round;stroke-miterlimit:10;stroke-dasharray:none;stroke-opacity:1"
       id="path166" /><path
       d="m 432.797,577.133 h -75.128 v 19.098 h 75.128 z"
       style="fill:#ffffff;fill-opacity:1;fill-rule:nonzero;stroke:#231f20;stroke-width:0.5;stroke-linecap:butt;stroke-linejoin:round;stroke-miterlimit:10;stroke-dasharray:none;stroke-opacity:1"
       id="path168" /><path
       d="m 465.796,577.133 h -32.999 v 19.098 h 32.999 z"
       style="fill:#ffffff;fill-opacity:1;fill-rule:nonzero;stroke:#231f20;stroke-width:0.5;stroke-linecap:butt;stroke-linejoin:round;stroke-miterlimit:10;stroke-dasharray:none;stroke-opacity:1"
       id="path170" /><path
       d="m 357.669,558.035 h -75.128 v 19.098 h 75.128 z"
       style="fill:#ffffff;fill-opacity:1;fill-rule:nonzero;stroke:#231f20;stroke-width:0.5;stroke-linecap:butt;stroke-linejoin:round;stroke-miterlimit:10;stroke-dasharray:none;stroke-opacity:1"
       id="path172" /><path
       d="m 432.797,558.035 h -75.128 v 19.098 h 75.128 z"
       style="fill:#ffffff;fill-opacity:1;fill-rule:nonzero;stroke:#231f20;stroke-width:0.5;stroke-linecap:butt;stroke-linejoin:round;stroke-miterlimit:10;stroke-dasharray:none;stroke-opacity:1"
       id="path174" /><path
       d="m 465.796,558.035 h -32.999 v 19.098 h 32.999 z"
       style="fill:#ffffff;fill-opacity:1;fill-rule:nonzero;stroke:#231f20;stroke-width:0.5;stroke-linecap:butt;stroke-linejoin:round;stroke-miterlimit:10;stroke-dasharray:none;stroke-opacity:1"
       id="path176" /><path
       d="m 357.669,538.937 h -75.128 v 19.098 h 75.128 z"
       style="fill:#ffffff;fill-opacity:1;fill-rule:nonzero;stroke:#231f20;stroke-width:0.5;stroke-linecap:butt;stroke-linejoin:round;stroke-miterlimit:10;stroke-dasharray:none;stroke-opacity:1"
       id="path178" /><path
       d="m 432.797,538.937 h -75.128 v 19.098 h 75.128 z"
       style="fill:#ffffff;fill-opacity:1;fill-rule:nonzero;stroke:#231f20;stroke-width:0.5;stroke-linecap:butt;stroke-linejoin:round;stroke-miterlimit:10;stroke-dasharray:none;stroke-opacity:1"
       id="path180" /><path
       d="m 465.796,538.937 h -32.999 v 19.098 h 32.999 z"
       style="fill:#ffffff;fill-opacity:1;fill-rule:nonzero;stroke:#231f20;stroke-width:0.5;stroke-linecap:butt;stroke-linejoin:round;stroke-miterlimit:10;stroke-dasharray:none;stroke-opacity:1"
       id="path182" /><g
       id="g184"
       transform="translate(283.1953,647.1426)"><path
         d="M 0,0 V 11.19 H 73.933"
         style="fill:none;stroke:#ffffff;stroke-width:0.75;stroke-linecap:butt;stroke-linejoin:round;stroke-miterlimit:10;stroke-dasharray:none;stroke-opacity:1"
         id="path186" /></g><g
       id="g188"
       transform="translate(358.3232,647.1426)"><path
         d="M 0,0 V 11.19 H 73.933"
         style="fill:none;stroke:#ffffff;stroke-width:0.75;stroke-linecap:butt;stroke-linejoin:round;stroke-miterlimit:10;stroke-dasharray:none;stroke-opacity:1"
         id="path190" /></g><g
       id="g192"
       transform="translate(433.4512,647.1426)"><path
         d="M 0,0 V 11.19 H 31.804"
         style="fill:none;stroke:#ffffff;stroke-width:0.75;stroke-linecap:butt;stroke-linejoin:round;stroke-miterlimit:10;stroke-dasharray:none;stroke-opacity:1"
         id="path194" /></g><g
       id="g196"><g
         id="g198"
         clip-path="url(#clipPath202)"><text
           transform="matrix(1,0,0,-1,311.9004,650.6387)"
           style="font-variant:normal;font-weight:normal;font-stretch:normal;font-size:7px;font-family:Arial;-inkscape-font-specification:ArialMT;writing-mode:lr-tb;fill:#231f20;fill-opacity:1;fill-rule:nonzero;stroke:none"
           id="text206"><tspan
             x="0 4.277 6.6079998 10.5"
             y="0"
             id="tspan204">From</tspan></text><text
           transform="matrix(1,0,0,-1,287.2969,638.3496)"
           style="font-variant:normal;font-weight:normal;font-stretch:normal;font-size:9px;font-family:Arial;-inkscape-font-specification:ArialMT;writing-mode:lr-tb;fill:#231f20;fill-opacity:1;fill-rule:nonzero;stroke:none"
           id="text210"><tspan
             x="0 2.5020001 5.0040002 75.132004 77.634003 80.136002 164.259 166.761 169.263"
             y="0"
             id="tspan208">.........</tspan></text><text
           transform="matrix(1,0,0,-1,441.5352,626.0605)"
           style="font-variant:normal;font-weight:normal;font-stretch:normal;font-size:7px;font-family:Arial;-inkscape-font-specification:ArialMT;writing-mode:lr-tb;fill:#231f20;fill-opacity:1;fill-rule:nonzero;stroke:none"
           id="text224"><tspan
             x="0 3.892 5.8379998 9.7299995 13.622"
             y="0"
             id="tspan212">1,000</tspan><tspan
             x="9.7299995 13.622"
             y="19.096001"
             id="tspan214">10</tspan><tspan
             x="-3.892 0 3.892 5.8379998 9.7299995 13.622"
             y="38.192001"
             id="tspan216">10,000</tspan><tspan
             x="9.7299995 13.622"
             y="57.287998"
             id="tspan218">10</tspan><tspan
             x="9.7299995 13.622"
             y="76.384003"
             id="tspan220">10</tspan><tspan
             x="-50.428001 -46.151001 3.017 8.0710001"
             y="-24.584"
             id="tspan222">ToCT</tspan></text></g></g><g
       id="g226"><g
         id="g228"><g
           id="g234"><g
             id="g236"><path
               d="m 269.171,601.846 h -22.694 v -5.35 h 22.694 l 0.002,-2.795 10.834,5.47 -10.834,5.47 z"
               style="fill:url(#linearGradient242);stroke:none"
               id="path244" /></g></g></g></g><g
       id="g246"><g
         id="g248"
         clip-path="url(#clipPath252)"><text
           transform="matrix(1,0,0,-1,284.8179,628.7363)"
           style="font-variant:normal;font-weight:normal;font-stretch:normal;font-size:5.0807px;font-family:'Nimbus Mono PS';-inkscape-font-specification:'Nimbus Mono PS, Normal';writing-mode:lr-tb;fill:#231f20;fill-opacity:1;fill-rule:nonzero;stroke:none"
           id="text314"><tspan
             x="0 3.04842 6.0968399 9.1452599 12.19368 15.2421 18.29052 21.33894 24.38736 27.43578 30.4842 33.532619 36.581039 39.629459 42.677879 45.726299 48.774719 51.823139 54.871559 57.919979 60.968399 64.016823"
             y="0"
             id="tspan254">0222436a49cd8ff2605255</tspan><tspan
             x="0 3.04842 6.0968399 9.1452599 12.19368 15.2421 18.29052 21.33894 24.38736 27.43578 30.4842 33.532619 36.581039 39.629459 42.677879 45.726299 48.774719 51.823139 54.871559 57.919979 60.968399 64.016823"
             y="5.5227208"
             id="tspan256">dcea8fadd6a9aff20703d5</tspan><tspan
             x="0 3.04842 6.0968399 9.1452599 12.19368 15.2421 18.29052 21.33894 24.38736 27.43578 30.4842 33.532619 36.581039 39.629459 42.677879 45.726299 48.774719 51.823139 54.871559 57.919979 60.968399 64.016823"
             y="11.045442"
             id="tspan258">8d22bef7c5a6fc23807712</tspan><tspan
             x="0 3.04842 6.0968399 9.1452599 12.19368 15.2421 18.29052 21.33894 24.38736 27.43578 30.4842 33.532619 36.581039 39.629459 42.677879 45.726299 48.774719 51.823139 54.871559 57.919979 60.968399 64.016823"
             y="19.098351"
             id="tspan260">036c4f8ed456142a75724d</tspan><tspan
             x="0 3.04842 6.0968399 9.1452599 12.19368 15.2421 18.29052 21.33894 24.38736 27.43578 30.4842 33.532619 36.581039 39.629459 42.677879 45.726299 48.774719 51.823139 54.871559 57.919979 60.968399 64.016823"
             y="24.621073"
             id="tspan262">57ab7f6c358850ee9a79dc</tspan><tspan
             x="0 3.04842 6.0968399 9.1452599 12.19368 15.2421 18.29052 21.33894 24.38736 27.43578 30.4842 33.532619 36.581039 39.629459 42.677879 45.726299 48.774719 51.823139 54.871559 57.919979 60.968399 64.016823"
             y="30.143793"
             id="tspan264">444fe5e754496c7cfa3371</tspan><tspan
             x="0 3.04842 6.0968399 9.1452599 12.19368 15.2421 18.29052 21.33894 24.38736 27.43578 30.4842 33.532619 36.581039 39.629459 42.677879 45.726299 48.774719 51.823139 54.871559 57.919979 60.968399 64.016823"
             y="38.196705"
             id="tspan266">0222436a49cd8ff2605255</tspan><tspan
             x="0 3.04842 6.0968399 9.1452599 12.19368 15.2421 18.29052 21.33894 24.38736 27.43578 30.4842 33.532619 36.581039 39.629459 42.677879 45.726299 48.774719 51.823139 54.871559 57.919979 60.968399 64.016823"
             y="43.719425"
             id="tspan268">dcea8fadd6a9aff20703d5</tspan><tspan
             x="0 3.04842 6.0968399 9.1452599 12.19368 15.2421 18.29052 21.33894 24.38736 27.43578 30.4842 33.532619 36.581039 39.629459 42.677879 45.726299 48.774719 51.823139 54.871559 57.919979 60.968399 64.016823"
             y="49.242146"
             id="tspan270">8d22bef7c5a6fc23807712</tspan><tspan
             x="0 3.04842 6.0968399 9.1452599 12.19368 15.2421 18.29052 21.33894 24.38736 27.43578 30.4842 33.532619 36.581039 39.629459 42.677879 45.726299 48.774719 51.823139 54.871559 57.919979 60.968399 64.016823"
             y="57.295055"
             id="tspan272">0317828d04ebd6d120e423</tspan><tspan
             x="0 3.04842 6.0968399 9.1452599 12.19368 15.2421 18.29052 21.33894 24.38736 27.43578 30.4842 33.532619 36.581039 39.629459 42.677879 45.726299 48.774719 51.823139 54.871559 57.919979 60.968399 64.016823"
             y="62.817776"
             id="tspan274">6bc0cf0cce12ebfdfa106c</tspan><tspan
             x="0 3.04842 6.0968399 9.1452599 12.19368 15.2421 18.29052 21.33894 24.38736 27.43578 30.4842 33.532619 36.581039 39.629459 42.677879 45.726299 48.774719 51.823139 54.871559 57.919979 60.968399 64.016823"
             y="68.340492"
             id="tspan276">7bf744deb547fcc52e768d</tspan><tspan
             x="0 3.04842 6.0968399 9.1452599 12.19368 15.2421 18.29052 21.33894 24.38736 27.43578 30.4842 33.532619 36.581039 39.629459 42.677879 45.726299 48.774719 51.823139 54.871559 57.919979 60.968399 64.016823"
             y="76.393402"
             id="tspan278">035541a13851a3742489fd</tspan><tspan
             x="0 3.04842 6.0968399 9.1452599 12.19368 15.2421 18.29052 21.33894 24.38736 27.43578 30.4842 33.532619 36.581039 39.629459 42.677879 45.726299 48.774719 51.823139 54.871559 57.919979 60.968399 64.016823"
             y="81.916122"
             id="tspan280">ddeef21be13c1abb85e053</tspan><tspan
             x="0 3.04842 6.0968399 9.1452599 12.19368 15.2421 18.29052 21.33894 24.38736 27.43578 30.4842 33.532619 36.581039 39.629459 42.677879 45.726299 48.774719 51.823139 54.871559 57.919979 60.968399 64.016823"
             y="87.43885"
             id="tspan282">222c0dbf3703ba218dc1f3</tspan><tspan
             x="75.128311 78.176727 81.225151 84.273567 87.321991 90.370407 93.418831 96.467255 99.515671 102.56409 105.61251 108.66093 111.70935 114.75777 117.80619 120.85461 123.90303 126.95145 129.99988 133.04829 136.09671 139.14513"
             y="0"
             id="tspan284">02b33f40f80812ae832404</tspan><tspan
             x="75.128311 78.176727 81.225151 84.273567 87.321991 90.370407 93.418831 96.467255 99.515671 102.56409 105.61251 108.66093 111.70935 114.75777 117.80619 120.85461 123.90303 126.95145 129.99988 133.04829 136.09671 139.14513"
             y="5.5227208"
             id="tspan286">e97e039eaa92e6993a6d14</tspan><tspan
             x="75.128311 78.176727 81.225151 84.273567 87.321991 90.370407 93.418831 96.467255 99.515671 102.56409 105.61251 108.66093 111.70935 114.75777 117.80619 120.85461 123.90303 126.95145 129.99988 133.04829 136.09671 139.14513"
             y="11.045442"
             id="tspan288">7c8854c09281be1292e920</tspan><tspan
             x="75.128311 78.176727 81.225151 84.273567 87.321991 90.370407 93.418831 96.467255 99.515671 102.56409 105.61251 108.66093 111.70935 114.75777 117.80619 120.85461 123.90303 126.95145 129.99988 133.04829 136.09671 139.14513"
             y="19.098351"
             id="tspan290">0222436a49cd8ff2605255</tspan><tspan
             x="75.128311 78.176727 81.225151 84.273567 87.321991 90.370407 93.418831 96.467255 99.515671 102.56409 105.61251 108.66093 111.70935 114.75777 117.80619 120.85461 123.90303 126.95145 129.99988 133.04829 136.09671 139.14513"
             y="24.621073"
             id="tspan292">dcea8fadd6a9aff20703d5</tspan><tspan
             x="75.128311 78.176727 81.225151 84.273567 87.321991 90.370407 93.418831 96.467255 99.515671 102.56409 105.61251 108.66093 111.70935 114.75777 117.80619 120.85461 123.90303 126.95145 129.99988 133.04829 136.09671 139.14513"
             y="30.143793"
             id="tspan294">8d22bef7c5a6fc23807712</tspan><tspan
             x="75.128311 78.176727 81.225151 84.273567 87.321991 90.370407 93.418831 96.467255 99.515671 102.56409 105.61251 108.66093 111.70935 114.75777 117.80619 120.85461 123.90303 126.95145 129.99988 133.04829 136.09671 139.14513"
             y="38.196705"
             id="tspan296">037e944a7b778d190c05b5</tspan><tspan
             x="75.128311 78.176727 81.225151 84.273567 87.321991 90.370407 93.418831 96.467255 99.515671 102.56409 105.61251 108.66093 111.70935 114.75777 117.80619 120.85461 123.90303 126.95145 129.99988 133.04829 136.09671 139.14513"
             y="43.719425"
             id="tspan298">9325c58eed069205148fa0</tspan><tspan
             x="75.128311 78.176727 81.225151 84.273567 87.321991 90.370407 93.418831 96.467255 99.515671 102.56409 105.61251 108.66093 111.70935 114.75777 117.80619 120.85461 123.90303 126.95145 129.99988 133.04829 136.09671 139.14513"
             y="49.242146"
             id="tspan300">a2998273af0ffe36de9496</tspan><tspan
             x="75.128311 78.176727 81.225151 84.273567 87.321991 90.370407 93.418831 96.467255 99.515671 102.56409 105.61251 108.66093 111.70935 114.75777 117.80619 120.85461 123.90303 126.95145 129.99988 133.04829 136.09671 139.14513"
             y="57.295055"
             id="tspan302">0222436a49cd8ff2605255</tspan><tspan
             x="75.128311 78.176727 81.225151 84.273567 87.321991 90.370407 93.418831 96.467255 99.515671 102.56409 105.61251 108.66093 111.70935 114.75777 117.80619 120.85461 123.90303 126.95145 129.99988 133.04829 136.09671 139.14513"
             y="62.817776"
             id="tspan304">dcea8fadd6a9aff20703d5</tspan><tspan
             x="75.128311 78.176727 81.225151 84.273567 87.321991 90.370407 93.418831 96.467255 99.515671 102.56409 105.61251 108.66093 111.70935 114.75777 117.80619 120.85461 123.90303 126.95145 129.99988 133.04829 136.09671 139.14513"
             y="68.340492"
             id="tspan306">8d22bef7c5a6fc23807712</tspan><tspan
             x="75.128311 78.176727 81.225151 84.273567 87.321991 90.370407 93.418831 96.467255 99.515671 102.56409 105.61251 108.66093 111.70935 114.75777 117.80619 120.85461 123.90303 126.95145 129.99988 133.04829 136.09671 139.14513"
             y="76.393402"
             id="tspan308">0222436a49cd8ff2605255</tspan><tspan
             x="75.128311 78.176727 81.225151 84.273567 87.321991 90.370407 93.418831 96.467255 99.515671 102.56409 105.61251 108.66093 111.70935 114.75777 117.80619 120.85461 123.90303 126.95145 129.99988 133.04829 136.09671 139.14513"
             y="81.916122"
             id="tspan310">dcea8fadd6a9aff20703d5</tspan><tspan
             x="75.128311 78.176727 81.225151 84.273567 87.321991 90.370407 93.418831 96.467255 99.515671 102.56409 105.61251 108.66093 111.70935 114.75777 117.80619 120.85461 123.90303 126.95145 129.99988 133.04829 136.09671 139.14513"
             y="87.43885"
             id="tspan312">8d22bef7c5a6fc23807712</tspan></text></g></g></g></svg>
