<?xml version="1.0" standalone="yes"?>

<svg version="1.1" viewBox="0.0 0.0 438.00787401574803 119.6509186351706" fill="none" stroke="none" stroke-linecap="square" stroke-miterlimit="10" xmlns="http://www.w3.org/2000/svg" xmlns:xlink="http://www.w3.org/1999/xlink"><clipPath id="p.0"><path d="m0 0l438.00787 0l0 119.65092l-438.00787 0l0 -119.65092z" clip-rule="nonzero"></path></clipPath><g clip-path="url(#p.0)"><path fill="#000000" fill-opacity="0.0" d="m0 0l438.00787 0l0 119.65092l-438.00787 0z" fill-rule="evenodd"></path><path fill="#000000" fill-opacity="0.0" d="m125.708664 -10.895013l90.74016 0l0 90.14173l-90.74016 0z" fill-rule="evenodd"></path><path fill="#000000" d="m201.4967 62.225853l8.3125 0q-3.90625 7.9375 -11.984375 12.4375q-9.265625 5.15625 -22.578125 5.15625q-12.890625 0 -22.265625 -4.359375q-9.375 -4.359375 -13.953125 -12.859375q-4.5625 -8.5 -4.5625 -18.5q0 -10.96875 5.1875 -20.437502q5.203125 -9.484374 14.21875 -14.218749q9.03125 -4.7500005 20.625 -4.7500005q9.84375 0 17.5 3.8281255q7.65625 3.828125 11.703125 10.874999q4.046875 7.046875 4.046875 15.406252q0 9.96875 -6.140625 18.015625q-7.6875 10.15625 -19.71875 10.15625q-3.25 0 -4.890625 -1.125q-1.640625 -1.140625 -2.1875 -3.328125q-4.609375 4.453125 -10.625 4.453125q-6.484375 0 -10.765625 -4.46875q-4.265625 -4.484375 -4.265625 -11.90625q0 -9.171875 5.15625 -16.750002q6.25 -9.21875 16.015625 -9.21875q6.953125 0 10.265625 5.3125l0.984375 -4.34375l10.3125 0l-5.90625 28.015627q-0.546875 2.65625 -0.546875 3.4375q0 0.96875 0.453125 1.46875q0.453125 0.484375 1.078125 0.484375q1.875 0 4.84375 -2.265625q3.984375 -2.96875 6.4375 -7.96875q2.46875 -5.0 2.46875 -10.359375q0 -9.609377 -6.953125 -16.062502q-6.953125 -6.468749 -19.421875 -6.468749q-10.578125 0 -17.953125 4.312499q-7.359375 4.3125 -11.09375 12.15625q-3.71875 7.828127 -3.71875 16.296877q0 8.25 4.15625 15.015625q4.15625 6.75 11.671875 9.859375q7.53125 3.109375 17.21875 3.109375q9.328125 0 16.046875 -2.609375q6.71875 -2.59375 10.828125 -7.796875zm-42.234375 -16.046875q0 4.953125 2.015625 7.296875q2.015625 2.34375 4.984375 2.34375q2.21875 0 4.171875 -1.09375q1.484375 -0.78125 2.9375 -2.453125q2.0625 -2.390625 3.5625 -6.953125q1.515625 -4.578125 1.515625 -8.515625q0 -4.421875 -2.0625 -6.781252q-2.046875 -2.359375 -5.171875 -2.359375q-3.359375 0 -6.21875 2.59375q-2.84375 2.593752 -4.296875 7.406252q-1.4375 4.796875 -1.4375 8.515625z" fill-rule="nonzero"></path><path fill="#000000" fill-opacity="0.0" d="m135.45633 97.24672l71.244095 0l0 18.362206l-71.244095 0z" fill-rule="evenodd"></path><path fill="#000000" d="m146.07446 110.46782l2.21875 -0.1875q0.234375 1.609375 1.125 2.4375q0.90625 0.8125 2.171875 0.8125q1.53125 0 2.578125 -1.140625q1.0625 -1.15625 1.0625 -3.0625q0 -1.796875 -1.015625 -2.84375q-1.015625 -1.046875 -2.65625 -1.046875q-1.015625 0 -1.84375 0.46875q-0.8125 0.453125 -1.28125 1.203125l-1.984375 -0.265625l1.65625 -8.828125l8.546875 0l0 2.015625l-6.859375 0l-0.921875 4.625q1.546875 -1.078125 3.25 -1.078125q2.25 0 3.796875 1.5625q1.546875 1.546875 1.546875 4.0q0 2.328125 -1.359375 4.03125q-1.65625 2.09375 -4.515625 2.09375q-2.34375 0 -3.828125 -1.3125q-1.484375 -1.3125 -1.6875 -3.484375zm33.125 -1.53125l2.28125 0.578125q-0.71875 2.796875 -2.578125 4.28125q-1.859375 1.46875 -4.546875 1.46875q-2.765625 0 -4.515625 -1.125q-1.734375 -1.140625 -2.640625 -3.28125q-0.90625 -2.15625 -0.90625 -4.609375q0 -2.6875 1.015625 -4.6875q1.03125 -2.0 2.921875 -3.03125q1.890625 -1.03125 4.171875 -1.03125q2.578125 0 4.328125 1.3125q1.765625 1.3125 2.453125 3.6875l-2.234375 0.53125q-0.609375 -1.875 -1.75 -2.734375q-1.125 -0.859375 -2.84375 -0.859375q-1.984375 0 -3.3125 0.953125q-1.328125 0.953125 -1.875 2.546875q-0.53125 1.59375 -0.53125 3.296875q0 2.1875 0.625 3.828125q0.640625 1.640625 1.984375 2.453125q1.359375 0.796875 2.921875 0.796875q1.921875 0 3.234375 -1.09375q1.328125 -1.109375 1.796875 -3.28125zm9.441406 6.03125l0 -15.15625l-5.65625 0l0 -2.03125l13.625 0l0 2.03125l-5.6875 0l0 15.15625l-2.28125 0z" fill-rule="nonzero"></path><path fill="#000000" fill-opacity="0.0" d="m227.10498 -10.895013l90.74017 0l0 90.14173l-90.74017 0z" fill-rule="evenodd"></path><path fill="#000000" d="m302.89304 62.225853l8.3125 0q-3.90625 7.9375 -11.984375 12.4375q-9.265625 5.15625 -22.578125 5.15625q-12.890625 0 -22.265625 -4.359375q-9.375 -4.359375 -13.953125 -12.859375q-4.5625 -8.5 -4.5625 -18.5q0 -10.96875 5.1875 -20.437502q5.203125 -9.484374 14.21875 -14.218749q9.03125 -4.7500005 20.625 -4.7500005q9.84375 0 17.5 3.8281255q7.65625 3.828125 11.703125 10.874999q4.046875 7.046875 4.046875 15.406252q0 9.96875 -6.140625 18.015625q-7.6875 10.15625 -19.71875 10.15625q-3.25 0 -4.890625 -1.125q-1.640625 -1.140625 -2.1875 -3.328125q-4.609375 4.453125 -10.625 4.453125q-6.484375 0 -10.765625 -4.46875q-4.265625 -4.484375 -4.265625 -11.90625q0 -9.171875 5.15625 -16.750002q6.25 -9.21875 16.015625 -9.21875q6.953125 0 10.265625 5.3125l0.984375 -4.34375l10.3125 0l-5.90625 28.015627q-0.546875 2.65625 -0.546875 3.4375q0 0.96875 0.453125 1.46875q0.453125 0.484375 1.078125 0.484375q1.875 0 4.84375 -2.265625q3.984375 -2.96875 6.4375 -7.96875q2.46875 -5.0 2.46875 -10.359375q0 -9.609377 -6.953125 -16.062502q-6.953125 -6.468749 -19.421875 -6.468749q-10.578125 0 -17.953125 4.312499q-7.359375 4.3125 -11.09375 12.15625q-3.71875 7.828127 -3.71875 16.296877q0 8.25 4.15625 15.015625q4.15625 6.75 11.671875 9.859375q7.53125 3.109375 17.21875 3.109375q9.328125 0 16.046875 -2.609375q6.71875 -2.59375 10.828125 -7.796875zm-42.234375 -16.046875q0 4.953125 2.015625 7.296875q2.015625 2.34375 4.984375 2.34375q2.21875 0 4.171875 -1.09375q1.484375 -0.78125 2.9375 -2.453125q2.0625 -2.390625 3.5625 -6.953125q1.515625 -4.578125 1.515625 -8.515625q0 -4.421875 -2.0625 -6.781252q-2.046875 -2.359375 -5.171875 -2.359375q-3.359375 0 -6.21875 2.59375q-2.84375 2.593752 -4.296875 7.406252q-1.4375 4.796875 -1.4375 8.515625z" fill-rule="nonzero"></path><path fill="#000000" fill-opacity="0.0" d="m236.85265 97.24672l71.244095 0l0 18.362206l-71.244095 0z" fill-rule="evenodd"></path><path fill="#000000" d="m250.7208 105.65532q-1.3125 -0.484375 -1.953125 -1.375q-0.625 -0.890625 -0.625 -2.140625q0 -1.875 1.34375 -3.140625q1.34375 -1.28125 3.578125 -1.28125q2.25 0 3.625 1.3125q1.375 1.296875 1.375 3.171875q0 1.203125 -0.625 2.09375q-0.625 0.875 -1.90625 1.359375q1.578125 0.515625 2.40625 1.671875q0.828125 1.140625 0.828125 2.734375q0 2.203125 -1.5625 3.703125q-1.5625 1.5 -4.09375 1.5q-2.546875 0 -4.109375 -1.5q-1.5625 -1.515625 -1.5625 -3.765625q0 -1.671875 0.84375 -2.796875q0.859375 -1.140625 2.4375 -1.546875zm-0.421875 -3.578125q0 1.21875 0.78125 2.0q0.78125 0.765625 2.03125 0.765625q1.21875 0 2.0 -0.765625q0.78125 -0.765625 0.78125 -1.890625q0 -1.15625 -0.8125 -1.9375q-0.796875 -0.796875 -1.984375 -0.796875q-1.203125 0 -2.0 0.78125q-0.796875 0.765625 -0.796875 1.84375zm-0.6875 7.9375q0 0.890625 0.421875 1.734375q0.4375 0.84375 1.28125 1.3125q0.84375 0.46875 1.8125 0.46875q1.515625 0 2.5 -0.96875q0.984375 -0.984375 0.984375 -2.484375q0 -1.515625 -1.015625 -2.515625q-1.015625 -1.0 -2.53125 -1.0q-1.5 0 -2.484375 0.984375q-0.96875 0.984375 -0.96875 2.46875zm30.984375 -1.078125l2.28125 0.578125q-0.71875 2.796875 -2.578125 4.28125q-1.859375 1.46875 -4.546875 1.46875q-2.765625 0 -4.515625 -1.125q-1.734375 -1.140625 -2.640625 -3.28125q-0.90625 -2.15625 -0.90625 -4.609375q0 -2.6875 1.015625 -4.6875q1.03125 -2.0 2.921875 -3.03125q1.890625 -1.03125 4.171875 -1.03125q2.578125 0 4.328125 1.3125q1.765625 1.3125 2.453125 3.6875l-2.234375 0.53125q-0.609375 -1.875 -1.75 -2.734375q-1.125 -0.859375 -2.84375 -0.859375q-1.984375 0 -3.3125 0.953125q-1.328125 0.953125 -1.875 2.546875q-0.53125 1.59375 -0.53125 3.296875q0 2.1875 0.625 3.828125q0.640625 1.640625 1.984375 2.453125q1.359375 0.796875 2.921875 0.796875q1.921875 0 3.234375 -1.09375q1.328125 -1.109375 1.796875 -3.28125zm9.441406 6.03125l0 -15.15625l-5.65625 0l0 -2.03125l13.625 0l0 2.03125l-5.6875 0l0 15.15625l-2.28125 0z" fill-rule="nonzero"></path></g></svg>

