<?xml version="1.0" standalone="yes"?>

<svg version="1.1" viewBox="0.0 0.0 172.24409448818898 184.61417322834646" fill="none" stroke="none" stroke-linecap="square" stroke-miterlimit="10" xmlns="http://www.w3.org/2000/svg" xmlns:xlink="http://www.w3.org/1999/xlink"><clipPath id="p.0"><path d="m0 0l172.2441 0l0 184.61417l-172.2441 0l0 -184.61417z" clip-rule="nonzero"></path></clipPath><g clip-path="url(#p.0)"><path fill="#000000" fill-opacity="0.0" d="m0 0l172.2441 0l0 184.61417l-172.2441 0z" fill-rule="evenodd"></path><path fill="#ffffff" d="m39.46034 73.799515l98.519684 0l0 31.559052l-98.519684 0z" fill-rule="evenodd"></path><path stroke="#000000" stroke-width="1.0" stroke-linejoin="round" stroke-linecap="butt" d="m39.46034 73.799515l98.519684 0l0 31.559052l-98.519684 0z" fill-rule="evenodd"></path><path fill="#000000" d="m49.319714 92.12404l1.6875 -0.140625q0.125 1.015625 0.5625 1.671875q0.4375 0.65625 1.359375 1.0625q0.9375 0.40625 2.09375 0.40625q1.03125 0 1.8125 -0.3125q0.796875 -0.3125 1.1875 -0.84375q0.390625 -0.53125 0.390625 -1.15625q0 -0.640625 -0.375 -1.109375q-0.375 -0.484375 -1.234375 -0.8125q-0.546875 -0.21875 -2.421875 -0.65625q-1.875 -0.453125 -2.625 -0.859375q-0.96875 -0.515625 -1.453125 -1.265625q-0.46875 -0.75 -0.46875 -1.6875q0 -1.03125 0.578125 -1.921875q0.59375 -0.90625 1.703125 -1.359375q1.125 -0.46875 2.5 -0.46875q1.515625 0 2.671875 0.484375q1.15625 0.484375 1.765625 1.4375q0.625 0.9375 0.671875 2.140625l-1.71875 0.125q-0.140625 -1.28125 -0.953125 -1.9375q-0.796875 -0.671875 -2.359375 -0.671875q-1.625 0 -2.375 0.609375q-0.75 0.59375 -0.75 1.4375q0 0.734375 0.53125 1.203125q0.515625 0.46875 2.703125 0.96875q2.203125 0.5 3.015625 0.875q1.1875 0.546875 1.75 1.390625q0.578125 0.828125 0.578125 1.921875q0 1.09375 -0.625 2.0625q-0.625 0.953125 -1.796875 1.484375q-1.15625 0.53125 -2.609375 0.53125q-1.84375 0 -3.09375 -0.53125q-1.25 -0.546875 -1.96875 -1.625q-0.703125 -1.078125 -0.734375 -2.453125zm13.099823 4.375l0 -13.59375l1.8125038 0l0 5.578125l7.0625 0l0 -5.578125l1.796875 0l0 13.59375l-1.796875 0l0 -6.40625l-7.0625 0l0 6.40625l-1.8125038 0zm11.926075 0l5.234375 -13.59375l1.9375 0l5.5625 13.59375l-2.046875 0l-1.59375 -4.125l-5.6875 0l-1.484375 4.125l-1.921875 0zm3.921875 -5.578125l4.609375 0l-1.40625 -3.78125q-0.65625 -1.703125 -0.96875 -2.8125q-0.265625 1.3125 -0.734375 2.59375l-1.5 4.0zm18.115448 3.96875l0 1.609375l-8.984375 0q-0.015625 -0.609375 0.1875 -1.15625q0.34375 -0.921875 1.09375 -1.8125q0.765625 -0.890625 2.1875 -2.0625q2.21875 -1.8125 3.0 -2.875q0.78125 -1.0625 0.78125 -2.015625q0 -0.984375 -0.71875 -1.671875q-0.703125 -0.6875 -1.84375 -0.6875q-1.203125 0 -1.9375 0.734375q-0.71875 0.71875 -0.71875 2.0l-1.71875 -0.171875q0.171875 -1.921875 1.328125 -2.921875q1.15625 -1.015625 3.09375 -1.015625q1.953125 0 3.09375 1.09375q1.140625 1.078125 1.140625 2.6875q0 0.8125 -0.34375 1.609375q-0.328125 0.78125 -1.109375 1.65625q-0.765625 0.859375 -2.5625 2.390625q-1.5 1.265625 -1.9375 1.71875q-0.421875 0.4375 -0.703125 0.890625l6.671875 0zm1.5944672 -1.953125l1.765625 -0.15625q0.1875 1.28125 0.890625 1.9375q0.71875 0.640625 1.71875 0.640625q1.203125 0 2.03125 -0.90625q0.84375 -0.90625 0.84375 -2.421875q0 -1.421875 -0.8125 -2.25q-0.796875 -0.828125 -2.09375 -0.828125q-0.796875 0 -1.453125 0.375q-0.640625 0.359375 -1.015625 0.953125l-1.578125 -0.203125l1.328125 -7.0l6.765625 0l0 1.609375l-5.4375 0l-0.734375 3.640625q1.234375 -0.84375 2.578125 -0.84375q1.78125 0 3.0 1.234375q1.234375 1.234375 1.234375 3.171875q0 1.84375 -1.078125 3.1875q-1.3125 1.65625 -3.578125 1.65625q-1.859375 0 -3.03125 -1.03125q-1.171875 -1.046875 -1.34375 -2.765625zm19.047592 -6.703125l-1.65625 0.125q-0.21875 -0.984375 -0.640625 -1.421875q-0.671875 -0.71875 -1.65625 -0.71875q-0.8125 0 -1.40625 0.4375q-0.796875 0.578125 -1.25 1.6875q-0.453125 1.09375 -0.46875 3.140625q0.609375 -0.921875 1.46875 -1.359375q0.875 -0.453125 1.828125 -0.453125q1.671875 0 2.84375 1.234375q1.171875 1.234375 1.171875 3.171875q0 1.28125 -0.546875 2.390625q-0.546875 1.09375 -1.515625 1.6875q-0.96875 0.578125 -2.1875 0.578125q-2.09375 0 -3.40625 -1.53125q-1.3125 -1.546875 -1.3125 -5.0625q0 -3.953125 1.453125 -5.734375q1.265625 -1.5625 3.421875 -1.5625q1.609375 0 2.625 0.90625q1.03125 0.890625 1.234375 2.484375zm-6.8125 5.859375q0 0.859375 0.359375 1.65625q0.375 0.78125 1.03125 1.203125q0.65625 0.40625 1.375 0.40625q1.0625 0 1.8125 -0.84375q0.765625 -0.859375 0.765625 -2.328125q0 -1.40625 -0.75 -2.21875q-0.75 -0.8125 -1.890625 -0.8125q-1.125 0 -1.921875 0.8125q-0.78125 0.8125 -0.78125 2.125z" fill-rule="nonzero"></path><path fill="#000000" fill-opacity="0.0" d="m-6.445172 128.915l190.33072 0l0 65.79527l-190.33072 0z" fill-rule="evenodd"></path><path fill="#000000" d="m6.789203 148.88077q0.609375 0.28125 0.9375 0.765625q0.32812548 0.484375 0.32812548 1.015625q0 0.8125 -0.6562505 1.4375q-0.65625 0.609375 -1.640625 0.609375q-0.578125 0 -1.203125 -0.234375q-0.62499976 -0.25 -0.87499976 -0.515625q-0.078125 -0.078125 -0.078125 -0.1875q0 -0.078125 0.0625 -0.140625q0.0625 -0.0625 0.140625 -0.0625q0.09375 0 0.20312476 0.078125q0.828125 0.609375 1.765625 0.609375q0.78125 0 1.296875 -0.484375q0.53125 -0.484375 0.53125 -1.09375q0 -0.40625 -0.265625 -0.78125q-0.25 -0.390625 -0.734375 -0.609375q-0.484375 -0.234375 -0.984375 -0.234375q-0.171875 0 -0.25 -0.0625q-0.0625 -0.0625 -0.0625 -0.15625q0 -0.09375 0.0625 -0.15625q0.078125 -0.078125 0.21875 -0.078125l0.375 0.015625q0.609375 0 1.0 -0.375q0.40625 -0.375 0.40625 -0.859375q0 -0.5 -0.421875 -0.890625q-0.40625 -0.390625 -1.078125 -0.390625q-0.46875 0 -0.859375 0.171875q-0.390625 0.15625 -0.625 0.4375q-0.09375 0.109375 -0.140625 0.140625q-0.03125 0.015625 -0.09375 0.015625q-0.09375 0 -0.15624976 -0.0625q-0.0625 -0.0625 -0.0625 -0.15625q0 -0.21875 0.46874976 -0.546875q0.640625 -0.453125 1.46875 -0.453125q0.859375 0 1.40625 0.515625q0.546875 0.515625 0.546875 1.21875q0 0.453125 -0.265625 0.859375q-0.265625 0.40625 -0.765625 0.640625zm6.6010747 0q0.609375 0.28125 0.9375 0.765625q0.328125 0.484375 0.328125 1.015625q0 0.8125 -0.65625 1.4375q-0.65625 0.609375 -1.640625 0.609375q-0.578125 0 -1.203125 -0.234375q-0.625 -0.25 -0.875 -0.515625q-0.078125 -0.078125 -0.078125 -0.1875q0 -0.078125 0.0625 -0.140625q0.0625 -0.0625 0.140625 -0.0625q0.09375 0 0.203125 0.078125q0.828125 0.609375 1.765625 0.609375q0.78125 0 1.296875 -0.484375q0.53125 -0.484375 0.53125 -1.09375q0 -0.40625 -0.265625 -0.78125q-0.25 -0.390625 -0.734375 -0.609375q-0.484375 -0.234375 -0.984375 -0.234375q-0.171875 0 -0.25 -0.0625q-0.0625 -0.0625 -0.0625 -0.15625q0 -0.09375 0.0625 -0.15625q0.078125 -0.078125 0.21875 -0.078125l0.375 0.015625q0.609375 0 1.0 -0.375q0.40625 -0.375 0.40625 -0.859375q0 -0.5 -0.421875 -0.890625q-0.40625 -0.390625 -1.078125 -0.390625q-0.46875 0 -0.859375 0.171875q-0.390625 0.15625 -0.625 0.4375q-0.09375 0.109375 -0.140625 0.140625q-0.03125 0.015625 -0.09375 0.015625q-0.09375 0 -0.15625 -0.0625q-0.0625 -0.0625 -0.0625 -0.15625q0 -0.21875 0.46875 -0.546875q0.640625 -0.453125 1.46875 -0.453125q0.859375 0 1.40625 0.515625q0.546875 0.515625 0.546875 1.21875q0 0.453125 -0.265625 0.859375q-0.265625 0.40625 -0.765625 0.640625zm6.507324 1.78125l-2.984375 0l0 -0.515625l2.5 -4.328125l0.9375 0l0 4.390625l0.375 0q0.171875 0 0.234375 0.0625q0.078125 0.0625 0.078125 0.171875q0 0.09375 -0.078125 0.15625q-0.0625 0.0625 -0.234375 0.0625l-0.375 0l0 1.4375l0.375 0q0.171875 0 0.234375 0.0625q0.078125 0.0625 0.078125 0.171875q0 0.09375 -0.078125 0.15625q-0.0625 0.0625 -0.234375 0.0625l-1.671875 0q-0.171875 0 -0.25 -0.0625q-0.0625 -0.0625 -0.0625 -0.15625q0 -0.109375 0.0625 -0.171875q0.078125 -0.0625 0.25 -0.0625l0.84375 0l0 -1.4375zm0 -0.453125l0 -3.9375l-0.234375 0l-2.28125 3.9375l2.515625 0zm7.976074 -4.390625l0 6.28125l0.59375 0q0.171875 0 0.234375 0.0625q0.078125 0.0625 0.078125 0.171875q0 0.09375 -0.078125 0.15625q-0.0625 0.0625 -0.234375 0.0625l-1.0625 0l0 -0.890625q-0.78125 1.0625 -1.984375 1.0625q-0.609375 0 -1.171875 -0.3125q-0.5625 -0.328125 -0.890625 -0.921875q-0.328125 -0.609375 -0.328125 -1.25q0 -0.640625 0.328125 -1.234375q0.328125 -0.609375 0.890625 -0.9375q0.5625 -0.328125 1.171875 -0.328125q1.1875 0 1.984375 1.078125l0 -2.546875l-0.59375 0q-0.171875 0 -0.25 -0.0625q-0.0625 -0.0625 -0.0625 -0.171875q0 -0.09375 0.0625 -0.15625q0.078125 -0.0625 0.25 -0.0625l1.0625 0zm-0.46875 4.421875q0 -0.859375 -0.578125 -1.453125q-0.578125 -0.59375 -1.375 -0.59375q-0.8125 0 -1.390625 0.59375q-0.578125 0.59375 -0.578125 1.453125q0 0.84375 0.578125 1.4375q0.578125 0.59375 1.390625 0.59375q0.796875 0 1.375 -0.59375q0.578125 -0.59375 0.578125 -1.4375zm6.929199 -1.609375l0 1.109375q0 1.453125 -0.703125 2.3125q-0.53125 0.65625 -1.359375 0.65625q-0.40625 0 -0.765625 -0.15625q-0.34375 -0.15625 -0.59375 -0.4375q-0.140625 -0.1875 -0.328125 -0.578125q-0.1875 -0.390625 -0.265625 -0.71875q-0.125 -0.453125 -0.125 -1.078125l0 -1.109375q0 -1.46875 0.6875 -2.3125q0.546875 -0.671875 1.375 -0.671875q0.40625 0 0.75 0.171875q0.34375 0.15625 0.59375 0.4375q0.15625 0.171875 0.34375 0.578125q0.1875 0.390625 0.265625 0.703125q0.125 0.46875 0.125 1.09375zm-0.453125 0.046875q0 -0.625 -0.1875 -1.171875q-0.171875 -0.5625 -0.40625 -0.890625q-0.125 -0.1875 -0.34375 -0.3125q-0.3125 -0.203125 -0.6875 -0.203125q-0.75 0 -1.1875 0.78125q-0.421875 0.765625 -0.421875 1.796875l0 1.0q0 0.640625 0.171875 1.203125q0.1875 0.546875 0.40625 0.875q0.140625 0.171875 0.34375 0.3125q0.3125 0.1875 0.703125 0.1875q0.75 0 1.171875 -0.765625q0.4375 -0.78125 0.4375 -1.8125l0 -1.0zm5.210449 -2.953125l0 6.375l1.546875 0q0.15625 0 0.21875 0.0625q0.078125 0.0625 0.078125 0.171875q0 0.09375 -0.078125 0.15625q-0.0625 0.0625 -0.21875 0.0625l-3.546875 0q-0.171875 0 -0.25 -0.0625q-0.0625 -0.0625 -0.0625 -0.15625q0 -0.109375 0.0625 -0.171875q0.078125 -0.0625 0.25 -0.0625l1.546875 0l0 -5.75l-1.484375 0.453125q-0.09375 0.03125 -0.15625 0.03125q-0.078125 0 -0.140625 -0.0625q-0.0625 -0.0625 -0.0625 -0.15625q0 -0.078125 0.046875 -0.15625q0.046875 -0.046875 0.1875 -0.09375l2.0625 -0.640625zm5.022949 3.96875q0.421875 -0.609375 0.859375 -0.90625q0.453125 -0.296875 0.984375 -0.296875q0.71875 0 1.28125 0.609375q0.5625 0.59375 0.5625 1.46875q0 0.8125 -0.515625 1.484375q-0.5 0.65625 -1.40625 0.65625q-0.578125 0 -1.09375 -0.359375q-0.5 -0.359375 -0.796875 -1.109375q-0.359375 -0.921875 -0.359375 -2.046875q0 -0.859375 0.34375 -1.578125q0.25 -0.5625 0.671875 -0.984375q0.4375 -0.4375 1.015625 -0.703125q0.578125 -0.28125 1.234375 -0.28125q0.453125 0 0.75 0.1875q0.140625 0.078125 0.140625 0.21875q0 0.09375 -0.0625 0.15625q-0.0625 0.0625 -0.15625 0.0625q-0.0625 0 -0.15625 -0.0625q-0.234375 -0.109375 -0.5625 -0.109375q-1.046875 0 -1.90625 0.90625q-0.859375 0.90625 -0.859375 2.140625q0 0.171875 0.03125 0.546875zm0.109375 0.75q0.203125 0.984375 0.640625 1.40625q0.4375 0.40625 1.03125 0.40625q0.59375 0 1.015625 -0.46875q0.4375 -0.46875 0.4375 -1.21875q0 -0.703125 -0.4375 -1.15625q-0.421875 -0.46875 -0.96875 -0.46875q-0.515625 0 -1.0 0.453125q-0.328125 0.28125 -0.71875 1.046875zm7.538574 -2.078125l0 3.734375l1.984375 0q0.15625 0 0.21875 0.0625q0.078125 0.0625 0.078125 0.171875q0 0.09375 -0.078125 0.15625q-0.0625 0.0625 -0.21875 0.0625l-3.53125 0q-0.15625 0 -0.234375 -0.0625q-0.0625 -0.0625 -0.0625 -0.15625q0 -0.109375 0.0625 -0.171875q0.078125 -0.0625 0.234375 -0.0625l1.09375 0l0 -3.734375l-0.984375 0q-0.15625 0 -0.234375 -0.0625q-0.0625 -0.078125 -0.0625 -0.171875q0 -0.09375 0.0625 -0.15625q0.078125 -0.078125 0.234375 -0.078125l0.984375 0l0 -0.671875q0 -0.578125 0.453125 -0.984375q0.46875 -0.421875 1.234375 -0.421875q0.640625 0 1.359375 0.109375q0.28125 0.046875 0.328125 0.109375q0.0625 0.046875 0.0625 0.15625q0 0.09375 -0.0625 0.15625q-0.0625 0.0625 -0.171875 0.0625q-0.046875 0 -0.140625 -0.015625q-0.8125 -0.125 -1.375 -0.125q-0.59375 0 -0.921875 0.296875q-0.3125 0.28125 -0.3125 0.65625l0 0.671875l2.109375 0q0.171875 0 0.234375 0.078125q0.078125 0.0625 0.078125 0.15625q0 0.09375 -0.078125 0.171875q-0.0625 0.0625 -0.234375 0.0625l-2.109375 0zm8.413574 -1.890625l0 -0.203125l-3.234375 0l0 0.390625q0 0.171875 -0.0625 0.234375q-0.046875 0.0625 -0.15625 0.0625q-0.09375 0 -0.15625 -0.0625q-0.0625 -0.0625 -0.0625 -0.234375l0 -0.84375l4.140625 0l0 0.71875l-1.828125 5.796875q-0.03125 0.140625 -0.09375 0.1875q-0.0625 0.046875 -0.140625 0.046875q-0.09375 0 -0.15625 -0.0625q-0.0625 -0.078125 -0.0625 -0.15625q0 -0.0625 0.03125 -0.15625l1.78125 -5.71875zm3.8510704 -0.203125l0 2.203125q0.390625 -0.171875 0.75 -0.25q0.375 -0.078125 0.703125 -0.078125q0.84375 0 1.40625 0.59375q0.578125 0.59375 0.578125 1.5625q0 1.078125 -0.640625 1.75q-0.640625 0.65625 -1.609375 0.65625q-0.640625 0 -1.2343712 -0.28125q-0.421875 -0.203125 -0.765625 -0.5q-0.203125 -0.171875 -0.203125 -0.28125q0 -0.109375 0.0625 -0.171875q0.078125 -0.0625 0.15625 -0.0625q0.09375 0 0.203125 0.09375q0.7968712 0.75 1.7656212 0.75q0.78125 0 1.296875 -0.53125q0.515625 -0.546875 0.515625 -1.4375q0 -0.765625 -0.453125 -1.21875q-0.4375 -0.46875 -1.125 -0.46875q-0.703125 0 -1.40625 0.359375q-0.17187119 0.09375 -0.23437119 0.09375q-0.109375 0 -0.171875 -0.0625q-0.046875 -0.0625 -0.046875 -0.1875l0 -2.984375l3.1406212 0q0.171875 0 0.234375 0.0625q0.0625 0.0625 0.0625 0.15625q0 0.109375 -0.0625 0.171875q-0.0625 0.0625 -0.234375 0.0625l-2.6875 0zm6.601074 0l0 2.203125q0.390625 -0.171875 0.75 -0.25q0.375 -0.078125 0.703125 -0.078125q0.84375 0 1.40625 0.59375q0.578125 0.59375 0.578125 1.5625q0 1.078125 -0.640625 1.75q-0.640625 0.65625 -1.609375 0.65625q-0.640625 0 -1.234375 -0.28125q-0.421875 -0.203125 -0.765625 -0.5q-0.203125 -0.171875 -0.203125 -0.28125q0 -0.109375 0.0625 -0.171875q0.078125 -0.0625 0.15625 -0.0625q0.09375 0 0.203125 0.09375q0.796875 0.75 1.765625 0.75q0.78125 0 1.296875 -0.53125q0.515625 -0.546875 0.515625 -1.4375q0 -0.765625 -0.453125 -1.21875q-0.4375 -0.46875 -1.125 -0.46875q-0.703125 0 -1.40625 0.359375q-0.171875 0.09375 -0.234375 0.09375q-0.109375 0 -0.171875 -0.0625q-0.046875 -0.0625 -0.046875 -0.1875l0 -2.984375l3.140625 0q0.171875 0 0.234375 0.0625q0.0625 0.0625 0.0625 0.15625q0 0.109375 -0.0625 0.171875q-0.0625 0.0625 -0.234375 0.0625l-2.6875 0zm9.726074 2.09375l0 -0.15625q0 -0.171875 0.0625 -0.234375q0.0625 -0.078125 0.15625 -0.078125q0.109375 0 0.171875 0.078125q0.0625 0.0625 0.0625 0.234375l0 1.015625q0 0.171875 -0.0625 0.25q-0.0625 0.0625 -0.171875 0.0625q-0.09375 0 -0.15625 -0.0625q-0.0625 -0.0625 -0.0625 -0.203125q-0.03125 -0.390625 -0.5 -0.734375q-0.46875 -0.34375 -1.265625 -0.34375q-1.015625 0 -1.53125 0.640625q-0.515625 0.625 -0.515625 1.4375q0 0.875 0.5625 1.4375q0.578125 0.5625 1.5 0.5625q0.515625 0 1.0625 -0.1875q0.546875 -0.1875 0.984375 -0.625q0.125 -0.109375 0.203125 -0.109375q0.09375 0 0.15625 0.0625q0.0625 0.0625 0.0625 0.15625q0 0.234375 -0.546875 0.59375q-0.875 0.5625 -1.953125 0.5625q-1.078125 0 -1.78125 -0.6875q-0.703125 -0.703125 -0.703125 -1.765625q0 -1.09375 0.71875 -1.8125q0.71875 -0.71875 1.796875 -0.71875q1.046875 0 1.75 0.625zm6.929199 -2.546875l0 6.28125l0.59375 0q0.171875 0 0.234375 0.0625q0.078125 0.0625 0.078125 0.171875q0 0.09375 -0.078125 0.15625q-0.0625 0.0625 -0.234375 0.0625l-1.0625 0l0 -0.890625q-0.78125 1.0625 -1.984375 1.0625q-0.609375 0 -1.171875 -0.3125q-0.5625 -0.328125 -0.890625 -0.921875q-0.328125 -0.609375 -0.328125 -1.25q0 -0.640625 0.328125 -1.234375q0.328125 -0.609375 0.890625 -0.9375q0.5625 -0.328125 1.171875 -0.328125q1.1875 0 1.984375 1.078125l0 -2.546875l-0.59375 0q-0.171875 0 -0.25 -0.0625q-0.0625 -0.0625 -0.0625 -0.171875q0 -0.09375 0.0625 -0.15625q0.078125 -0.0625 0.25 -0.0625l1.0625 0zm-0.46875 4.421875q0 -0.859375 -0.578125 -1.453125q-0.578125 -0.59375 -1.375 -0.59375q-0.8125 0 -1.390625 0.59375q-0.578125 0.59375 -0.578125 1.453125q0 0.84375 0.578125 1.4375q0.578125 0.59375 1.390625 0.59375q0.796875 0 1.375 -0.59375q0.578125 -0.59375 0.578125 -1.4375zm3.5073242 -0.546875q0.421875 -0.609375 0.859375 -0.90625q0.453125 -0.296875 0.984375 -0.296875q0.71875 0 1.28125 0.609375q0.5625 0.59375 0.5625 1.46875q0 0.8125 -0.515625 1.484375q-0.5 0.65625 -1.40625 0.65625q-0.578125 0 -1.09375 -0.359375q-0.5 -0.359375 -0.796875 -1.109375q-0.359375 -0.921875 -0.359375 -2.046875q0 -0.859375 0.34375 -1.578125q0.25 -0.5625 0.671875 -0.984375q0.4375 -0.4375 1.015625 -0.703125q0.578125 -0.28125 1.234375 -0.28125q0.453125 0 0.75 0.1875q0.140625 0.078125 0.140625 0.21875q0 0.09375 -0.0625 0.15625q-0.0625 0.0625 -0.15625 0.0625q-0.0625 0 -0.15625 -0.0625q-0.234375 -0.109375 -0.5625 -0.109375q-1.046875 0 -1.90625 0.90625q-0.859375 0.90625 -0.859375 2.140625q0 0.171875 0.03125 0.546875zm0.109375 0.75q0.203125 0.984375 0.640625 1.40625q0.4375 0.40625 1.03125 0.40625q0.59375 0 1.015625 -0.46875q0.4375 -0.46875 0.4375 -1.21875q0 -0.703125 -0.4375 -1.15625q-0.421875 -0.46875 -0.96875 -0.46875q-0.515625 0 -1.0 0.453125q-0.328125 0.28125 -0.71875 1.046875zm10.054199 -4.625l0 6.28125l0.59375 0q0.171875 0 0.234375 0.0625q0.078125 0.0625 0.078125 0.171875q0 0.09375 -0.078125 0.15625q-0.0625 0.0625 -0.234375 0.0625l-1.0625 0l0 -0.890625q-0.78125 1.0625 -1.984375 1.0625q-0.609375 0 -1.171875 -0.3125q-0.5625 -0.328125 -0.890625 -0.921875q-0.328125 -0.609375 -0.328125 -1.25q0 -0.640625 0.328125 -1.234375q0.328125 -0.609375 0.890625 -0.9375q0.5625 -0.328125 1.171875 -0.328125q1.1875 0 1.984375 1.078125l0 -2.546875l-0.59375 0q-0.171875 0 -0.25 -0.0625q-0.0625 -0.0625 -0.0625 -0.171875q0 -0.09375 0.0625 -0.15625q0.078125 -0.0625 0.25 -0.0625l1.0625 0zm-0.46875 4.421875q0 -0.859375 -0.578125 -1.453125q-0.578125 -0.59375 -1.375 -0.59375q-0.8125 0 -1.390625 0.59375q-0.578125 0.59375 -0.578125 1.453125q0 0.84375 0.578125 1.4375q0.578125 0.59375 1.390625 0.59375q0.796875 0 1.375 -0.59375q0.578125 -0.59375 0.578125 -1.4375zm6.741699 -1.875l0 -0.15625q0 -0.171875 0.0625 -0.234375q0.0625 -0.078125 0.15625 -0.078125q0.109375 0 0.171875 0.078125q0.0625 0.0625 0.0625 0.234375l0 1.015625q0 0.171875 -0.0625 0.25q-0.0625 0.0625 -0.171875 0.0625q-0.09375 0 -0.15625 -0.0625q-0.0625 -0.0625 -0.0625 -0.203125q-0.03125 -0.390625 -0.5 -0.734375q-0.46875 -0.34375 -1.265625 -0.34375q-1.015625 0 -1.53125 0.640625q-0.515625 0.625 -0.515625 1.4375q0 0.875 0.5625 1.4375q0.578125 0.5625 1.5 0.5625q0.515625 0 1.0625 -0.1875q0.546875 -0.1875 0.984375 -0.625q0.125 -0.109375 0.203125 -0.109375q0.09375 0 0.15625 0.0625q0.0625 0.0625 0.0625 0.15625q0 0.234375 -0.546875 0.59375q-0.875 0.5625 -1.953125 0.5625q-1.078125 0 -1.78125 -0.6875q-0.703125 -0.703125 -0.703125 -1.765625q0 -1.09375 0.71875 -1.8125q0.71875 -0.71875 1.796875 -0.71875q1.046875 0 1.75 0.625zm3.4760742 -2.09375l0 2.203125q0.390625 -0.171875 0.75 -0.25q0.375 -0.078125 0.703125 -0.078125q0.84375 0 1.40625 0.59375q0.578125 0.59375 0.578125 1.5625q0 1.078125 -0.640625 1.75q-0.640625 0.65625 -1.609375 0.65625q-0.640625 0 -1.234375 -0.28125q-0.421875 -0.203125 -0.765625 -0.5q-0.203125 -0.171875 -0.203125 -0.28125q0 -0.109375 0.0625 -0.171875q0.078125 -0.0625 0.15625 -0.0625q0.09375 0 0.203125 0.09375q0.796875 0.75 1.765625 0.75q0.78125 0 1.296875 -0.53125q0.515625 -0.546875 0.515625 -1.4375q0 -0.765625 -0.453125 -1.21875q-0.4375 -0.46875 -1.125 -0.46875q-0.703125 0 -1.40625 0.359375q-0.171875 0.09375 -0.234375 0.09375q-0.109375 0 -0.171875 -0.0625q-0.046875 -0.0625 -0.046875 -0.1875l0 -2.984375l3.140625 0q0.171875 0 0.234375 0.0625q0.0625 0.0625 0.0625 0.15625q0 0.109375 -0.0625 0.171875q-0.0625 0.0625 -0.234375 0.0625l-2.6875 0zm8.772949 2.78125q0.5625 0.28125 0.84375 0.734375q0.28125 0.4375 0.28125 0.953125q0 0.796875 -0.609375 1.390625q-0.59375 0.578125 -1.453125 0.578125q-0.859375 0 -1.46875 -0.578125q-0.59375 -0.59375 -0.59375 -1.390625q0 -0.515625 0.28125 -0.953125q0.296875 -0.453125 0.875 -0.734375q-0.5 -0.28125 -0.71875 -0.59375q-0.3125 -0.421875 -0.3125 -0.953125q0 -0.75 0.5625 -1.296875q0.578125 -0.5625 1.375 -0.5625q0.8125 0 1.375 0.5625q0.578125 0.546875 0.578125 1.296875q0 0.53125 -0.3125 0.953125q-0.21875 0.3125 -0.703125 0.59375zm0.5625 -1.53125q0 -0.578125 -0.4375 -1.0q-0.4375 -0.421875 -1.0625 -0.421875q-0.625 0 -1.0625 0.421875q-0.421875 0.421875 -0.421875 1.0q0 0.515625 0.421875 0.921875q0.4375 0.390625 1.0625 0.390625q0.640625 0 1.0625 -0.390625q0.4375 -0.40625 0.4375 -0.921875zm0.125 3.234375q0 -0.59375 -0.46875 -1.03125q-0.46875 -0.453125 -1.15625 -0.453125q-0.6875 0 -1.15625 0.453125q-0.453125 0.4375 -0.453125 1.015625q0 0.625 0.46875 1.078125q0.46875 0.4375 1.140625 0.4375q0.6875 0 1.15625 -0.4375q0.46875 -0.453125 0.46875 -1.0625zm6.866699 -2.390625l0 -0.15625q0 -0.171875 0.0625 -0.234375q0.0625 -0.078125 0.15625 -0.078125q0.109375 0 0.171875 0.078125q0.0625 0.0625 0.0625 0.234375l0 1.015625q0 0.171875 -0.0625 0.25q-0.0625 0.0625 -0.171875 0.0625q-0.09375 0 -0.15625 -0.0625q-0.0625 -0.0625 -0.0625 -0.203125q-0.03125 -0.390625 -0.5 -0.734375q-0.46875 -0.34375 -1.265625 -0.34375q-1.015625 0 -1.53125 0.640625q-0.515625 0.625 -0.515625 1.4375q0 0.875 0.5625 1.4375q0.578125 0.5625 1.5 0.5625q0.515625 0 1.0625 -0.1875q0.546875 -0.1875 0.984375 -0.625q0.125 -0.109375 0.203125 -0.109375q0.09375 0 0.15625 0.0625q0.0625 0.0625 0.0625 0.15625q0 0.234375 -0.546875 0.59375q-0.875 0.5625 -1.953125 0.5625q-1.078125 0 -1.78125 -0.6875q-0.703125 -0.703125 -0.703125 -1.765625q0 -1.09375 0.71875 -1.8125q0.71875 -0.71875 1.796875 -0.71875q1.046875 0 1.75 0.625zm3.4760742 -2.09375l0 2.203125q0.390625 -0.171875 0.75 -0.25q0.375 -0.078125 0.703125 -0.078125q0.84375 0 1.40625 0.59375q0.578125 0.59375 0.578125 1.5625q0 1.078125 -0.640625 1.75q-0.640625 0.65625 -1.609375 0.65625q-0.640625 0 -1.234375 -0.28125q-0.421875 -0.203125 -0.765625 -0.5q-0.203125 -0.171875 -0.203125 -0.28125q0 -0.109375 0.0625 -0.171875q0.078125 -0.0625 0.15625 -0.0625q0.09375 0 0.203125 0.09375q0.796875 0.75 1.765625 0.75q0.78125 0 1.296875 -0.53125q0.515625 -0.546875 0.515625 -1.4375q0 -0.765625 -0.453125 -1.21875q-0.4375 -0.46875 -1.125 -0.46875q-0.703125 0 -1.40625 0.359375q-0.171875 0.09375 -0.234375 0.09375q-0.109375 0 -0.171875 -0.0625q-0.046875 -0.0625 -0.046875 -0.1875l0 -2.984375l3.140625 0q0.171875 0 0.234375 0.0625q0.0625 0.0625 0.0625 0.15625q0 0.109375 -0.0625 0.171875q-0.0625 0.0625 -0.234375 0.0625l-2.6875 0zm8.772949 2.609375q0.609375 0.28125 0.9375 0.765625q0.328125 0.484375 0.328125 1.015625q0 0.8125 -0.65625 1.4375q-0.65625 0.609375 -1.640625 0.609375q-0.578125 0 -1.203125 -0.234375q-0.625 -0.25 -0.875 -0.515625q-0.078125 -0.078125 -0.078125 -0.1875q0 -0.078125 0.0625 -0.140625q0.0625 -0.0625 0.140625 -0.0625q0.09375 0 0.203125 0.078125q0.828125 0.609375 1.765625 0.609375q0.78125 0 1.296875 -0.484375q0.53125 -0.484375 0.53125 -1.09375q0 -0.40625 -0.265625 -0.78125q-0.25 -0.390625 -0.734375 -0.609375q-0.484375 -0.234375 -0.984375 -0.234375q-0.171875 0 -0.25 -0.0625q-0.0625 -0.0625 -0.0625 -0.15625q0 -0.09375 0.0625 -0.15625q0.078125 -0.078125 0.21875 -0.078125l0.375 0.015625q0.609375 0 1.0 -0.375q0.40625 -0.375 0.40625 -0.859375q0 -0.5 -0.421875 -0.890625q-0.40625 -0.390625 -1.078125 -0.390625q-0.46875 0 -0.859375 0.171875q-0.390625 0.15625 -0.625 0.4375q-0.09375 0.109375 -0.140625 0.140625q-0.03125 0.015625 -0.09375 0.015625q-0.09375 0 -0.15625 -0.0625q-0.0625 -0.0625 -0.0625 -0.15625q0 -0.21875 0.46875 -0.546875q0.640625 -0.453125 1.46875 -0.453125q0.859375 0 1.40625 0.515625q0.546875 0.515625 0.546875 1.21875q0 0.453125 -0.265625 0.859375q-0.265625 0.40625 -0.765625 0.640625zm6.960449 3.671875l0 -0.65625q-0.984375 0.828125 -2.09375 0.828125q-0.8125 0 -1.265625 -0.40625q-0.453125 -0.40625 -0.453125 -1.0q0 -0.65625 0.59375 -1.140625q0.609375 -0.5 1.75 -0.5q0.3125 0 0.671875 0.046875q0.375 0.03125 0.796875 0.125l0 -0.734375q0 -0.375 -0.34375 -0.640625q-0.34375 -0.28125 -1.03125 -0.28125q-0.515625 0 -1.46875 0.3125q-0.171875 0.046875 -0.21875 0.046875q-0.09375 0 -0.15625 -0.0625q-0.0625 -0.0625 -0.0625 -0.15625q0 -0.09375 0.0625 -0.140625q0.0625 -0.09375 0.609375 -0.234375q0.828125 -0.21875 1.265625 -0.21875q0.84375 0 1.3125 0.421875q0.484375 0.421875 0.484375 0.953125l0 2.984375l0.609375 0q0.171875 0 0.234375 0.0625q0.078125 0.0625 0.078125 0.171875q0 0.09375 -0.078125 0.15625q-0.0625 0.0625 -0.234375 0.0625l-1.0625 0zm0 -2.25q-0.3125 -0.09375 -0.671875 -0.125q-0.34375 -0.046875 -0.734375 -0.046875q-0.984375 0 -1.546875 0.421875q-0.421875 0.3125 -0.421875 0.765625q0 0.40625 0.3125 0.6875q0.328125 0.265625 0.9375 0.265625q0.59375 0 1.09375 -0.21875q0.5 -0.234375 1.03125 -0.75l0 -1.0zm6.241699 -1.25q0.5625 0.28125 0.84375 0.734375q0.28125 0.4375 0.28125 0.953125q0 0.796875 -0.609375 1.390625q-0.59375 0.578125 -1.453125 0.578125q-0.859375 0 -1.46875 -0.578125q-0.59375 -0.59375 -0.59375 -1.390625q0 -0.515625 0.28125 -0.953125q0.296875 -0.453125 0.875 -0.734375q-0.5 -0.28125 -0.71875 -0.59375q-0.3125 -0.421875 -0.3125 -0.953125q0 -0.75 0.5625 -1.296875q0.578125 -0.5625 1.375 -0.5625q0.8125 0 1.375 0.5625q0.578125 0.546875 0.578125 1.296875q0 0.53125 -0.3125 0.953125q-0.21875 0.3125 -0.703125 0.59375zm0.5625 -1.53125q0 -0.578125 -0.4375 -1.0q-0.4375 -0.421875 -1.0625 -0.421875q-0.625 0 -1.0625 0.421875q-0.421875 0.421875 -0.421875 1.0q0 0.515625 0.421875 0.921875q0.4375 0.390625 1.0625 0.390625q0.640625 0 1.0625 -0.390625q0.4375 -0.40625 0.4375 -0.921875zm0.125 3.234375q0 -0.59375 -0.46875 -1.03125q-0.46875 -0.453125 -1.15625 -0.453125q-0.6875 0 -1.15625 0.453125q-0.453125 0.4375 -0.453125 1.015625q0 0.625 0.46875 1.078125q0.46875 0.4375 1.140625 0.4375q0.6875 0 1.15625 -0.4375q0.46875 -0.453125 0.46875 -1.0625zm3.6323242 -1.0625q0.421875 -0.609375 0.859375 -0.90625q0.453125 -0.296875 0.984375 -0.296875q0.71875 0 1.28125 0.609375q0.5625 0.59375 0.5625 1.46875q0 0.8125 -0.515625 1.484375q-0.5 0.65625 -1.40625 0.65625q-0.578125 0 -1.09375 -0.359375q-0.5 -0.359375 -0.796875 -1.109375q-0.359375 -0.921875 -0.359375 -2.046875q0 -0.859375 0.34375 -1.578125q0.25 -0.5625 0.671875 -0.984375q0.4375 -0.4375 1.015625 -0.703125q0.578125 -0.28125 1.234375 -0.28125q0.453125 0 0.75 0.1875q0.140625 0.078125 0.140625 0.21875q0 0.09375 -0.0625 0.15625q-0.0625 0.0625 -0.15625 0.0625q-0.0625 0 -0.15625 -0.0625q-0.234375 -0.109375 -0.5625 -0.109375q-1.046875 0 -1.90625 0.90625q-0.859375 0.90625 -0.859375 2.140625q0 0.171875 0.03125 0.546875zm0.109375 0.75q0.203125 0.984375 0.640625 1.40625q0.4375 0.40625 1.03125 0.40625q0.59375 0 1.015625 -0.46875q0.4375 -0.46875 0.4375 -1.21875q0 -0.703125 -0.4375 -1.15625q-0.421875 -0.46875 -0.96875 -0.46875q-0.515625 0 -1.0 0.453125q-0.328125 0.28125 -0.71875 1.046875zm10.272949 -0.109375l-4.59375 0q0.125 0.875 0.734375 1.40625q0.625 0.53125 1.53125 0.53125q0.5 0 1.046875 -0.15625q0.5625 -0.171875 0.90625 -0.4375q0.109375 -0.09375 0.171875 -0.09375q0.09375 0 0.15625 0.078125q0.0625 0.0625 0.0625 0.15625q0 0.09375 -0.078125 0.171875q-0.265625 0.265625 -0.921875 0.5q-0.65625 0.234375 -1.34375 0.234375q-1.171875 0 -1.953125 -0.75q-0.765625 -0.765625 -0.765625 -1.84375q0 -0.984375 0.71875 -1.6875q0.734375 -0.703125 1.8125 -0.703125q1.109375 0 1.8125 0.71875q0.71875 0.71875 0.703125 1.875zm-0.453125 -0.453125q-0.125 -0.75 -0.703125 -1.21875q-0.578125 -0.46875 -1.359375 -0.46875q-0.796875 0 -1.359375 0.46875q-0.5625 0.453125 -0.703125 1.21875l4.125 0zm4.851074 -4.15625l0 6.375l1.546875 0q0.15625 0 0.21875 0.0625q0.078125 0.0625 0.078125 0.171875q0 0.09375 -0.078125 0.15625q-0.0625 0.0625 -0.21875 0.0625l-3.546875 0q-0.171875 0 -0.25 -0.0625q-0.0625 -0.0625 -0.0625 -0.15625q0 -0.109375 0.0625 -0.171875q0.078125 -0.0625 0.25 -0.0625l1.546875 0l0 -5.75l-1.484375 0.453125q-0.09375 0.03125 -0.15625 0.03125q-0.078125 0 -0.140625 -0.0625q-0.0625 -0.0625 -0.0625 -0.15625q0 -0.078125 0.046875 -0.15625q0.046875 -0.046875 0.1875 -0.09375l2.0625 -0.640625z" fill-rule="nonzero"></path><path fill="#000000" d="m6.789203 162.05264q0.5625 0.28125 0.84375 0.734375q0.28125 0.4375 0.28125 0.953125q0 0.796875 -0.609375 1.390625q-0.59375 0.578125 -1.453125 0.578125q-0.859375 0 -1.46875 -0.578125q-0.59374976 -0.59375 -0.59374976 -1.390625q0 -0.515625 0.28124976 -0.953125q0.296875 -0.453125 0.875 -0.734375q-0.5 -0.28125 -0.71875 -0.59375q-0.31249976 -0.421875 -0.31249976 -0.953125q0 -0.75 0.56249976 -1.296875q0.578125 -0.5625 1.375 -0.5625q0.8125 0 1.375 0.5625q0.578125 0.546875 0.578125 1.296875q0 0.53125 -0.3125 0.953125q-0.21875 0.3125 -0.703125 0.59375zm0.5625 -1.53125q0 -0.578125 -0.4375 -1.0q-0.4375 -0.421875 -1.0625 -0.421875q-0.625 0 -1.0625 0.421875q-0.421875 0.421875 -0.421875 1.0q0 0.515625 0.421875 0.921875q0.4375 0.390625 1.0625 0.390625q0.640625 0 1.0625 -0.390625q0.4375 -0.40625 0.4375 -0.921875zm0.125 3.234375q0 -0.59375 -0.46875 -1.03125q-0.46875 -0.453125 -1.15625 -0.453125q-0.6875 0 -1.15625 0.453125q-0.453125 0.4375 -0.453125 1.015625q0 0.625 0.46875 1.078125q0.46875 0.4375 1.140625 0.4375q0.6875 0 1.15625 -0.4375q0.46875 -0.453125 0.46875 -1.0625zm5.9135747 -1.875q0.609375 0.28125 0.9375 0.765625q0.328125 0.484375 0.328125 1.015625q0 0.8125 -0.65625 1.4375q-0.65625 0.609375 -1.640625 0.609375q-0.578125 0 -1.203125 -0.234375q-0.625 -0.25 -0.875 -0.515625q-0.078125 -0.078125 -0.078125 -0.1875q0 -0.078125 0.0625 -0.140625q0.0625 -0.0625 0.140625 -0.0625q0.09375 0 0.203125 0.078125q0.828125 0.609375 1.765625 0.609375q0.78125 0 1.296875 -0.484375q0.53125 -0.484375 0.53125 -1.09375q0 -0.40625 -0.265625 -0.78125q-0.25 -0.390625 -0.734375 -0.609375q-0.484375 -0.234375 -0.984375 -0.234375q-0.171875 0 -0.25 -0.0625q-0.0625 -0.0625 -0.0625 -0.15625q0 -0.09375 0.0625 -0.15625q0.078125 -0.078125 0.21875 -0.078125l0.375 0.015625q0.609375 0 1.0 -0.375q0.40625 -0.375 0.40625 -0.859375q0 -0.5 -0.421875 -0.890625q-0.40625 -0.390625 -1.078125 -0.390625q-0.46875 0 -0.859375 0.171875q-0.390625 0.15625 -0.625 0.4375q-0.09375 0.109375 -0.140625 0.140625q-0.03125 0.015625 -0.09375 0.015625q-0.09375 0 -0.15625 -0.0625q-0.0625 -0.0625 -0.0625 -0.15625q0 -0.21875 0.46875 -0.546875q0.640625 -0.453125 1.46875 -0.453125q0.859375 0 1.40625 0.515625q0.546875 0.515625 0.546875 1.21875q0 0.453125 -0.265625 0.859375q-0.265625 0.40625 -0.765625 0.640625zm6.601074 0.171875q0.5625 0.28125 0.84375 0.734375q0.28125 0.4375 0.28125 0.953125q0 0.796875 -0.609375 1.390625q-0.59375 0.578125 -1.453125 0.578125q-0.859375 0 -1.46875 -0.578125q-0.59375 -0.59375 -0.59375 -1.390625q0 -0.515625 0.28125 -0.953125q0.296875 -0.453125 0.875 -0.734375q-0.5 -0.28125 -0.71875 -0.59375q-0.3125 -0.421875 -0.3125 -0.953125q0 -0.75 0.5625 -1.296875q0.578125 -0.5625 1.375 -0.5625q0.8125 0 1.375 0.5625q0.578125 0.546875 0.578125 1.296875q0 0.53125 -0.3125 0.953125q-0.21875 0.3125 -0.703125 0.59375zm0.5625 -1.53125q0 -0.578125 -0.4375 -1.0q-0.4375 -0.421875 -1.0625 -0.421875q-0.625 0 -1.0625 0.421875q-0.421875 0.421875 -0.421875 1.0q0 0.515625 0.421875 0.921875q0.4375 0.390625 1.0625 0.390625q0.640625 0 1.0625 -0.390625q0.4375 -0.40625 0.4375 -0.921875zm0.125 3.234375q0 -0.59375 -0.46875 -1.03125q-0.46875 -0.453125 -1.15625 -0.453125q-0.6875 0 -1.15625 0.453125q-0.453125 0.4375 -0.453125 1.015625q0 0.625 0.46875 1.078125q0.46875 0.4375 1.140625 0.4375q0.6875 0 1.15625 -0.4375q0.46875 -0.453125 0.46875 -1.0625zm5.913574 -1.703125q0.5625 0.28125 0.84375 0.734375q0.28125 0.4375 0.28125 0.953125q0 0.796875 -0.609375 1.390625q-0.59375 0.578125 -1.453125 0.578125q-0.859375 0 -1.46875 -0.578125q-0.59375 -0.59375 -0.59375 -1.390625q0 -0.515625 0.28125 -0.953125q0.296875 -0.453125 0.875 -0.734375q-0.5 -0.28125 -0.71875 -0.59375q-0.3125 -0.421875 -0.3125 -0.953125q0 -0.75 0.5625 -1.296875q0.578125 -0.5625 1.375 -0.5625q0.8125 0 1.375 0.5625q0.578125 0.546875 0.578125 1.296875q0 0.53125 -0.3125 0.953125q-0.21875 0.3125 -0.703125 0.59375zm0.5625 -1.53125q0 -0.578125 -0.4375 -1.0q-0.4375 -0.421875 -1.0625 -0.421875q-0.625 0 -1.0625 0.421875q-0.421875 0.421875 -0.421875 1.0q0 0.515625 0.421875 0.921875q0.4375 0.390625 1.0625 0.390625q0.640625 0 1.0625 -0.390625q0.4375 -0.40625 0.4375 -0.921875zm0.125 3.234375q0 -0.59375 -0.46875 -1.03125q-0.46875 -0.453125 -1.15625 -0.453125q-0.6875 0 -1.15625 0.453125q-0.453125 0.4375 -0.453125 1.015625q0 0.625 0.46875 1.078125q0.46875 0.4375 1.140625 0.4375q0.6875 0 1.15625 -0.4375q0.46875 -0.453125 0.46875 -1.0625zm3.0385742 1.34375l3.46875 0l0 -0.171875q0 -0.171875 0.0625 -0.234375q0.0625 -0.0625 0.15625 -0.0625q0.109375 0 0.171875 0.0625q0.0625 0.0625 0.0625 0.234375l0 0.625l-4.359375 0l0 -0.671875q1.375 -1.234375 2.671875 -2.515625q0.609375 -0.59375 0.828125 -0.859375q0.234375 -0.28125 0.3125 -0.5q0.078125 -0.21875 0.078125 -0.421875q0 -0.578125 -0.46875 -1.03125q-0.453125 -0.453125 -1.125 -0.453125q-0.59375 0 -1.046875 0.34375q-0.453125 0.34375 -0.59375 0.84375q-0.03125 0.125 -0.078125 0.15625q-0.0625 0.0625 -0.140625 0.0625q-0.09375 0 -0.15625 -0.0625q-0.0625 -0.0625 -0.0625 -0.15625q0 -0.25 0.28125 -0.6875q0.28125 -0.4375 0.78125 -0.6875q0.5 -0.265625 1.015625 -0.265625q0.84375 0 1.453125 0.59375q0.609375 0.578125 0.609375 1.328125q0 0.3125 -0.109375 0.578125q-0.09375 0.25 -0.34375 0.5625q-0.25 0.296875 -0.875 0.921875q-1.59375 1.578125 -2.59375 2.4375l0 0.03125zm8.241699 -3.734375l0 3.734375l1.984375 0q0.15625 0 0.21875 0.0625q0.078125 0.0625 0.078125 0.171875q0 0.09375 -0.078125 0.15625q-0.0625 0.0625 -0.21875 0.0625l-3.53125 0q-0.15625 0 -0.234375 -0.0625q-0.0625 -0.0625 -0.0625 -0.15625q0 -0.109375 0.0625 -0.171875q0.078125 -0.0625 0.234375 -0.0625l1.09375 0l0 -3.734375l-0.984375 0q-0.15625 0 -0.234375 -0.0625q-0.0625 -0.078125 -0.0625 -0.171875q0 -0.09375 0.0625 -0.15625q0.078125 -0.078125 0.234375 -0.078125l0.984375 0l0 -0.671875q0 -0.578125 0.453125 -0.984375q0.46875 -0.421875 1.234375 -0.421875q0.640625 0 1.359375 0.109375q0.28125 0.046875 0.328125 0.109375q0.0625 0.046875 0.0625 0.15625q0 0.09375 -0.0625 0.15625q-0.0625 0.0625 -0.171875 0.0625q-0.046875 0 -0.140625 -0.015625q-0.8125 -0.125 -1.375 -0.125q-0.59375 0 -0.921875 0.296875q-0.3125 0.28125 -0.3125 0.65625l0 0.671875l2.109375 0q0.171875 0 0.234375 0.078125q0.078125 0.0625 0.078125 0.15625q0 0.09375 -0.078125 0.171875q-0.0625 0.0625 -0.234375 0.0625l-2.109375 0zm7.835449 0.6875q0.5625 0.28125 0.84375 0.734375q0.28125 0.4375 0.28125 0.953125q0 0.796875 -0.609375 1.390625q-0.59375 0.578125 -1.453125 0.578125q-0.859375 0 -1.46875 -0.578125q-0.59375 -0.59375 -0.59375 -1.390625q0 -0.515625 0.28125 -0.953125q0.296875 -0.453125 0.875 -0.734375q-0.5 -0.28125 -0.71875 -0.59375q-0.3125 -0.421875 -0.3125 -0.953125q0 -0.75 0.5625 -1.296875q0.578125 -0.5625 1.375 -0.5625q0.8125 0 1.375 0.5625q0.578125 0.546875 0.578125 1.296875q0 0.53125 -0.3125 0.953125q-0.21875 0.3125 -0.703125 0.59375zm0.5625 -1.53125q0 -0.578125 -0.4375 -1.0q-0.4375 -0.421875 -1.0625 -0.421875q-0.625 0 -1.0625 0.421875q-0.421875 0.421875 -0.421875 1.0q0 0.515625 0.421875 0.921875q0.4375 0.390625 1.0625 0.390625q0.640625 0 1.0625 -0.390625q0.4375 -0.40625 0.4375 -0.921875zm0.125 3.234375q0 -0.59375 -0.46875 -1.03125q-0.46875 -0.453125 -1.15625 -0.453125q-0.6875 0 -1.15625 0.453125q-0.453125 0.4375 -0.453125 1.015625q0 0.625 0.46875 1.078125q0.46875 0.4375 1.140625 0.4375q0.6875 0 1.15625 -0.4375q0.46875 -0.453125 0.46875 -1.0625zm7.413574 -0.421875l-4.59375 0q0.125 0.875 0.734375 1.40625q0.625 0.53125 1.53125 0.53125q0.5 0 1.046875 -0.15625q0.5625 -0.171875 0.90625 -0.4375q0.109375 -0.09375 0.171875 -0.09375q0.09375 0 0.15625 0.078125q0.0625 0.0625 0.0625 0.15625q0 0.09375 -0.078125 0.171875q-0.265625 0.265625 -0.921875 0.5q-0.65625 0.234375 -1.34375 0.234375q-1.171875 0 -1.953125 -0.75q-0.765625 -0.765625 -0.765625 -1.84375q0 -0.984375 0.71875 -1.6875q0.734375 -0.703125 1.8125 -0.703125q1.109375 0 1.8125 0.71875q0.71875 0.71875 0.703125 1.875zm-0.453125 -0.453125q-0.125 -0.75 -0.703125 -1.21875q-0.578125 -0.46875 -1.359375 -0.46875q-0.796875 0 -1.359375 0.46875q-0.5625 0.453125 -0.703125 1.21875l4.125 0zm6.507324 -1.515625l0 -0.15625q0 -0.171875 0.0625 -0.234375q0.0625 -0.078125 0.15625 -0.078125q0.109375 0 0.171875 0.078125q0.0625 0.0625 0.0625 0.234375l0 1.015625q0 0.171875 -0.0625 0.25q-0.0625 0.0625 -0.171875 0.0625q-0.09375 0 -0.15625 -0.0625q-0.0625 -0.0625 -0.0625 -0.203125q-0.03125 -0.390625 -0.5 -0.734375q-0.46875 -0.34375 -1.265625 -0.34375q-1.015625 0 -1.53125 0.640625q-0.515625 0.625 -0.515625 1.4375q0 0.875 0.5625 1.4375q0.578125 0.5625 1.5 0.5625q0.515625 0 1.0625 -0.1875q0.546875 -0.1875 0.984375 -0.625q0.125 -0.109375 0.203125 -0.109375q0.09375 0 0.15625 0.0625q0.0625 0.0625 0.0625 0.15625q0 0.234375 -0.546875 0.59375q-0.875 0.5625 -1.953125 0.5625q-1.078125 0 -1.78125 -0.6875q-0.703125 -0.703125 -0.703125 -1.765625q0 -1.09375 0.71875 -1.8125q0.71875 -0.71875 1.796875 -0.71875q1.046875 0 1.75 0.625zm4.9448204 -2.640625l0 6.375l1.546875 0q0.15625 0 0.21875 0.0625q0.078125 0.0625 0.078125 0.171875q0 0.09375 -0.078125 0.15625q-0.0625 0.0625 -0.21875 0.0625l-3.5468712 0q-0.171875 0 -0.25 -0.0625q-0.0625 -0.0625 -0.0625 -0.15625q0 -0.109375 0.0625 -0.171875q0.078125 -0.0625 0.25 -0.0625l1.5468712 0l0 -5.75l-1.4843712 0.453125q-0.09375 0.03125 -0.15625 0.03125q-0.078125 0 -0.140625 -0.0625q-0.0625 -0.0625 -0.0625 -0.15625q0 -0.078125 0.046875 -0.15625q0.046875 -0.046875 0.1875 -0.09375l2.0624962 -0.640625zm7.210449 4.9375l-2.984375 0l0 -0.515625l2.5 -4.328125l0.9375 0l0 4.390625l0.375 0q0.171875 0 0.234375 0.0625q0.078125 0.0625 0.078125 0.171875q0 0.09375 -0.078125 0.15625q-0.0625 0.0625 -0.234375 0.0625l-0.375 0l0 1.4375l0.375 0q0.171875 0 0.234375 0.0625q0.078125 0.0625 0.078125 0.171875q0 0.09375 -0.078125 0.15625q-0.0625 0.0625 -0.234375 0.0625l-1.671875 0q-0.171875 0 -0.25 -0.0625q-0.0625 -0.0625 -0.0625 -0.15625q0 -0.109375 0.0625 -0.171875q0.078125 -0.0625 0.25 -0.0625l0.84375 0l0 -1.4375zm0 -0.453125l0 -3.9375l-0.234375 0l-2.28125 3.9375l2.515625 0zm5.460449 -1.84375l0 3.734375l1.984375 0q0.15625 0 0.21875 0.0625q0.078125 0.0625 0.078125 0.171875q0 0.09375 -0.078125 0.15625q-0.0625 0.0625 -0.21875 0.0625l-3.53125 0q-0.15625 0 -0.234375 -0.0625q-0.0625 -0.0625 -0.0625 -0.15625q0 -0.109375 0.0625 -0.171875q0.078125 -0.0625 0.234375 -0.0625l1.09375 0l0 -3.734375l-0.984375 0q-0.15625 0 -0.234375 -0.0625q-0.0625 -0.078125 -0.0625 -0.171875q0 -0.09375 0.0625 -0.15625q0.078125 -0.078125 0.234375 -0.078125l0.984375 0l0 -0.671875q0 -0.578125 0.453125 -0.984375q0.46875 -0.421875 1.234375 -0.421875q0.640625 0 1.359375 0.109375q0.28125 0.046875 0.328125 0.109375q0.0625 0.046875 0.0625 0.15625q0 0.09375 -0.0625 0.15625q-0.0625 0.0625 -0.171875 0.0625q-0.046875 0 -0.140625 -0.015625q-0.8125 -0.125 -1.375 -0.125q-0.59375 0 -0.921875 0.296875q-0.3125 0.28125 -0.3125 0.65625l0 0.671875l2.109375 0q0.171875 0 0.234375 0.078125q0.078125 0.0625 0.078125 0.15625q0 0.09375 -0.078125 0.171875q-0.0625 0.0625 -0.234375 0.0625l-2.109375 0zm5.663574 -2.09375l0 2.203125q0.390625 -0.171875 0.75 -0.25q0.375 -0.078125 0.703125 -0.078125q0.84375 0 1.40625 0.59375q0.578125 0.59375 0.578125 1.5625q0 1.078125 -0.640625 1.75q-0.640625 0.65625 -1.609375 0.65625q-0.640625 0 -1.234375 -0.28125q-0.421875 -0.203125 -0.765625 -0.5q-0.203125 -0.171875 -0.203125 -0.28125q0 -0.109375 0.0625 -0.171875q0.078125 -0.0625 0.15625 -0.0625q0.09375 0 0.203125 0.09375q0.796875 0.75 1.765625 0.75q0.78125 0 1.296875 -0.53125q0.515625 -0.546875 0.515625 -1.4375q0 -0.765625 -0.453125 -1.21875q-0.4375 -0.46875 -1.125 -0.46875q-0.703125 0 -1.40625 0.359375q-0.171875 0.09375 -0.234375 0.09375q-0.109375 0 -0.171875 -0.0625q-0.046875 -0.0625 -0.046875 -0.1875l0 -2.984375l3.140625 0q0.171875 0 0.234375 0.0625q0.0625 0.0625 0.0625 0.15625q0 0.109375 -0.0625 0.171875q-0.0625 0.0625 -0.234375 0.0625l-2.6875 0zm5.897949 5.828125l3.46875 0l0 -0.171875q0 -0.171875 0.0625 -0.234375q0.0625 -0.0625 0.15625 -0.0625q0.109375 0 0.171875 0.0625q0.0625 0.0625 0.0625 0.234375l0 0.625l-4.359375 0l0 -0.671875q1.375 -1.234375 2.671875 -2.515625q0.609375 -0.59375 0.828125 -0.859375q0.234375 -0.28125 0.3125 -0.5q0.078125 -0.21875 0.078125 -0.421875q0 -0.578125 -0.46875 -1.03125q-0.453125 -0.453125 -1.125 -0.453125q-0.59375 0 -1.046875 0.34375q-0.453125 0.34375 -0.59375 0.84375q-0.03125 0.125 -0.078125 0.15625q-0.0625 0.0625 -0.140625 0.0625q-0.09375 0 -0.15625 -0.0625q-0.0625 -0.0625 -0.0625 -0.15625q0 -0.25 0.28125 -0.6875q0.28125 -0.4375 0.78125 -0.6875q0.5 -0.265625 1.015625 -0.265625q0.84375 0 1.453125 0.59375q0.609375 0.578125 0.609375 1.328125q0 0.3125 -0.109375 0.578125q-0.09375 0.25 -0.34375 0.5625q-0.25 0.296875 -0.875 0.921875q-1.59375 1.578125 -2.59375 2.4375l0 0.03125zm8.241699 -3.734375l0 3.734375l1.984375 0q0.15625 0 0.21875 0.0625q0.078125 0.0625 0.078125 0.171875q0 0.09375 -0.078125 0.15625q-0.0625 0.0625 -0.21875 0.0625l-3.53125 0q-0.15625 0 -0.234375 -0.0625q-0.0625 -0.0625 -0.0625 -0.15625q0 -0.109375 0.0625 -0.171875q0.078125 -0.0625 0.234375 -0.0625l1.09375 0l0 -3.734375l-0.984375 0q-0.15625 0 -0.234375 -0.0625q-0.0625 -0.078125 -0.0625 -0.171875q0 -0.09375 0.0625 -0.15625q0.078125 -0.078125 0.234375 -0.078125l0.984375 0l0 -0.671875q0 -0.578125 0.453125 -0.984375q0.46875 -0.421875 1.234375 -0.421875q0.640625 0 1.359375 0.109375q0.28125 0.046875 0.328125 0.109375q0.0625 0.046875 0.0625 0.15625q0 0.09375 -0.0625 0.15625q-0.0625 0.0625 -0.171875 0.0625q-0.046875 0 -0.140625 -0.015625q-0.8125 -0.125 -1.375 -0.125q-0.59375 0 -0.921875 0.296875q-0.3125 0.28125 -0.3125 0.65625l0 0.671875l2.109375 0q0.171875 0 0.234375 0.078125q0.078125 0.0625 0.078125 0.15625q0 0.09375 -0.078125 0.171875q-0.0625 0.0625 -0.234375 0.0625l-2.109375 0zm5.194824 -2.546875l0 2.984375q0.828125 -1.0625 1.984375 -1.0625q0.984375 0 1.6875 0.71875q0.703125 0.71875 0.703125 1.75q0 1.0625 -0.71875 1.796875q-0.703125 0.71875 -1.671875 0.71875q-1.1875 0 -1.984375 -1.0625l0 0.890625l-1.046875 0q-0.171875 0 -0.25 -0.0625q-0.0625 -0.0625 -0.0625 -0.15625q0 -0.109375 0.0625 -0.171875q0.078125 -0.0625 0.25 -0.0625l0.609375 0l0 -5.828125l-0.609375 0q-0.171875 0 -0.25 -0.0625q-0.0625 -0.0625 -0.0625 -0.171875q0 -0.09375 0.0625 -0.15625q0.078125 -0.0625 0.25 -0.0625l1.046875 0zm3.921875 4.421875q0 -0.859375 -0.59375 -1.453125q-0.578125 -0.59375 -1.359375 -0.59375q-0.78125 0 -1.375 0.59375q-0.578125 0.59375 -0.578125 1.453125q0 0.84375 0.578125 1.4375q0.59375 0.59375 1.375 0.59375q0.78125 0 1.359375 -0.59375q0.59375 -0.59375 0.59375 -1.4375zm6.460449 -1.609375l0 1.109375q0 1.453125 -0.703125 2.3125q-0.53125 0.65625 -1.359375 0.65625q-0.40625 0 -0.765625 -0.15625q-0.34375 -0.15625 -0.59375 -0.4375q-0.140625 -0.1875 -0.328125 -0.578125q-0.1875 -0.390625 -0.265625 -0.71875q-0.125 -0.453125 -0.125 -1.078125l0 -1.109375q0 -1.46875 0.6875 -2.3125q0.546875 -0.671875 1.375 -0.671875q0.40625 0 0.75 0.171875q0.34375 0.15625 0.59375 0.4375q0.15625 0.171875 0.34375 0.578125q0.1875 0.390625 0.265625 0.703125q0.125 0.46875 0.125 1.09375zm-0.453125 0.046875q0 -0.625 -0.1875 -1.171875q-0.171875 -0.5625 -0.40625 -0.890625q-0.125 -0.1875 -0.34375 -0.3125q-0.3125 -0.203125 -0.6875 -0.203125q-0.75 0 -1.1875 0.78125q-0.421875 0.765625 -0.421875 1.796875l0 1.0q0 0.640625 0.171875 1.203125q0.1875 0.546875 0.40625 0.875q0.140625 0.171875 0.34375 0.3125q0.3125 0.1875 0.703125 0.1875q0.75 0 1.171875 -0.765625q0.4375 -0.78125 0.4375 -1.8125l0 -1.0zm3.7416992 -2.40625l0 2.203125q0.390625 -0.171875 0.75 -0.25q0.375 -0.078125 0.703125 -0.078125q0.84375 0 1.40625 0.59375q0.578125 0.59375 0.578125 1.5625q0 1.078125 -0.640625 1.75q-0.640625 0.65625 -1.609375 0.65625q-0.640625 0 -1.234375 -0.28125q-0.421875 -0.203125 -0.765625 -0.5q-0.203125 -0.171875 -0.203125 -0.28125q0 -0.109375 0.0625 -0.171875q0.078125 -0.0625 0.15625 -0.0625q0.09375 0 0.203125 0.09375q0.796875 0.75 1.765625 0.75q0.78125 0 1.296875 -0.53125q0.515625 -0.546875 0.515625 -1.4375q0 -0.765625 -0.453125 -1.21875q-0.4375 -0.46875 -1.125 -0.46875q-0.703125 0 -1.40625 0.359375q-0.171875 0.09375 -0.234375 0.09375q-0.109375 0 -0.171875 -0.0625q-0.046875 -0.0625 -0.046875 -0.1875l0 -2.984375l3.140625 0q0.171875 0 0.234375 0.0625q0.0625 0.0625 0.0625 0.15625q0 0.109375 -0.0625 0.171875q-0.0625 0.0625 -0.234375 0.0625l-2.6875 0zm8.772949 2.609375q0.609375 0.28125 0.9375 0.765625q0.328125 0.484375 0.328125 1.015625q0 0.8125 -0.65625 1.4375q-0.65625 0.609375 -1.640625 0.609375q-0.578125 0 -1.203125 -0.234375q-0.625 -0.25 -0.875 -0.515625q-0.078125 -0.078125 -0.078125 -0.1875q0 -0.078125 0.0625 -0.140625q0.0625 -0.0625 0.140625 -0.0625q0.09375 0 0.203125 0.078125q0.828125 0.609375 1.765625 0.609375q0.78125 0 1.296875 -0.484375q0.53125 -0.484375 0.53125 -1.09375q0 -0.40625 -0.265625 -0.78125q-0.25 -0.390625 -0.734375 -0.609375q-0.484375 -0.234375 -0.984375 -0.234375q-0.171875 0 -0.25 -0.0625q-0.0625 -0.0625 -0.0625 -0.15625q0 -0.09375 0.0625 -0.15625q0.078125 -0.078125 0.21875 -0.078125l0.375 0.015625q0.609375 0 1.0 -0.375q0.40625 -0.375 0.40625 -0.859375q0 -0.5 -0.421875 -0.890625q-0.40625 -0.390625 -1.078125 -0.390625q-0.46875 0 -0.859375 0.171875q-0.390625 0.15625 -0.625 0.4375q-0.09375 0.109375 -0.140625 0.140625q-0.03125 0.015625 -0.09375 0.015625q-0.09375 0 -0.15625 -0.0625q-0.0625 -0.0625 -0.0625 -0.15625q0 -0.21875 0.46875 -0.546875q0.640625 -0.453125 1.46875 -0.453125q0.859375 0 1.40625 0.515625q0.546875 0.515625 0.546875 1.21875q0 0.453125 -0.265625 0.859375q-0.265625 0.40625 -0.765625 0.640625zm6.507324 1.78125l-2.984375 0l0 -0.515625l2.5 -4.328125l0.9375 0l0 4.390625l0.375 0q0.171875 0 0.234375 0.0625q0.078125 0.0625 0.078125 0.171875q0 0.09375 -0.078125 0.15625q-0.0625 0.0625 -0.234375 0.0625l-0.375 0l0 1.4375l0.375 0q0.171875 0 0.234375 0.0625q0.078125 0.0625 0.078125 0.171875q0 0.09375 -0.078125 0.15625q-0.0625 0.0625 -0.234375 0.0625l-1.671875 0q-0.171875 0 -0.25 -0.0625q-0.0625 -0.0625 -0.0625 -0.15625q0 -0.109375 0.0625 -0.171875q0.078125 -0.0625 0.25 -0.0625l0.84375 0l0 -1.4375zm0 -0.453125l0 -3.9375l-0.234375 0l-2.28125 3.9375l2.515625 0zm4.522949 -3.9375l0 2.203125q0.390625 -0.171875 0.75 -0.25q0.375 -0.078125 0.703125 -0.078125q0.84375 0 1.40625 0.59375q0.578125 0.59375 0.578125 1.5625q0 1.078125 -0.640625 1.75q-0.640625 0.65625 -1.609375 0.65625q-0.640625 0 -1.234375 -0.28125q-0.421875 -0.203125 -0.765625 -0.5q-0.203125 -0.171875 -0.203125 -0.28125q0 -0.109375 0.0625 -0.171875q0.078125 -0.0625 0.15625 -0.0625q0.09375 0 0.203125 0.09375q0.796875 0.75 1.765625 0.75q0.78125 0 1.296875 -0.53125q0.515625 -0.546875 0.515625 -1.4375q0 -0.765625 -0.453125 -1.21875q-0.4375 -0.46875 -1.125 -0.46875q-0.703125 0 -1.40625 0.359375q-0.171875 0.09375 -0.234375 0.09375q-0.109375 0 -0.171875 -0.0625q-0.046875 -0.0625 -0.046875 -0.1875l0 -2.984375l3.140625 0q0.171875 0 0.234375 0.0625q0.0625 0.0625 0.0625 0.15625q0 0.109375 -0.0625 0.171875q-0.0625 0.0625 -0.234375 0.0625l-2.6875 0zm8.772949 2.78125q0.5625 0.28125 0.84375 0.734375q0.28125 0.4375 0.28125 0.953125q0 0.796875 -0.609375 1.390625q-0.59375 0.578125 -1.453125 0.578125q-0.859375 0 -1.46875 -0.578125q-0.59375 -0.59375 -0.59375 -1.390625q0 -0.515625 0.28125 -0.953125q0.296875 -0.453125 0.875 -0.734375q-0.5 -0.28125 -0.71875 -0.59375q-0.3125 -0.421875 -0.3125 -0.953125q0 -0.75 0.5625 -1.296875q0.578125 -0.5625 1.375 -0.5625q0.8125 0 1.375 0.5625q0.578125 0.546875 0.578125 1.296875q0 0.53125 -0.3125 0.953125q-0.21875 0.3125 -0.703125 0.59375zm0.5625 -1.53125q0 -0.578125 -0.4375 -1.0q-0.4375 -0.421875 -1.0625 -0.421875q-0.625 0 -1.0625 0.421875q-0.421875 0.421875 -0.421875 1.0q0 0.515625 0.421875 0.921875q0.4375 0.390625 1.0625 0.390625q0.640625 0 1.0625 -0.390625q0.4375 -0.40625 0.4375 -0.921875zm0.125 3.234375q0 -0.59375 -0.46875 -1.03125q-0.46875 -0.453125 -1.15625 -0.453125q-0.6875 0 -1.15625 0.453125q-0.453125 0.4375 -0.453125 1.015625q0 0.625 0.46875 1.078125q0.46875 0.4375 1.140625 0.4375q0.6875 0 1.15625 -0.4375q0.46875 -0.453125 0.46875 -1.0625zm5.913574 -1.703125q0.5625 0.28125 0.84375 0.734375q0.28125 0.4375 0.28125 0.953125q0 0.796875 -0.609375 1.390625q-0.59375 0.578125 -1.453125 0.578125q-0.859375 0 -1.46875 -0.578125q-0.59375 -0.59375 -0.59375 -1.390625q0 -0.515625 0.28125 -0.953125q0.296875 -0.453125 0.875 -0.734375q-0.5 -0.28125 -0.71875 -0.59375q-0.3125 -0.421875 -0.3125 -0.953125q0 -0.75 0.5625 -1.296875q0.578125 -0.5625 1.375 -0.5625q0.8125 0 1.375 0.5625q0.578125 0.546875 0.578125 1.296875q0 0.53125 -0.3125 0.953125q-0.21875 0.3125 -0.703125 0.59375zm0.5625 -1.53125q0 -0.578125 -0.4375 -1.0q-0.4375 -0.421875 -1.0625 -0.421875q-0.625 0 -1.0625 0.421875q-0.421875 0.421875 -0.421875 1.0q0 0.515625 0.421875 0.921875q0.4375 0.390625 1.0625 0.390625q0.640625 0 1.0625 -0.390625q0.4375 -0.40625 0.4375 -0.921875zm0.125 3.234375q0 -0.59375 -0.46875 -1.03125q-0.46875 -0.453125 -1.15625 -0.453125q-0.6875 0 -1.15625 0.453125q-0.453125 0.4375 -0.453125 1.015625q0 0.625 0.46875 1.078125q0.46875 0.4375 1.140625 0.4375q0.6875 0 1.15625 -0.4375q0.46875 -0.453125 0.46875 -1.0625zm6.491699 -4.28125l0 -0.203125l-3.234375 0l0 0.390625q0 0.171875 -0.0625 0.234375q-0.046875 0.0625 -0.15625 0.0625q-0.09375 0 -0.15625 -0.0625q-0.0625 -0.0625 -0.0625 -0.234375l0 -0.84375l4.140625 0l0 0.71875l-1.828125 5.796875q-0.03125 0.140625 -0.09375 0.1875q-0.0625 0.046875 -0.140625 0.046875q-0.09375 0 -0.15625 -0.0625q-0.0625 -0.078125 -0.0625 -0.15625q0 -0.0625 0.03125 -0.15625l1.78125 -5.71875zm6.976074 1.890625l0 -0.15625q0 -0.171875 0.0625 -0.234375q0.0625 -0.078125 0.15625 -0.078125q0.109375 0 0.171875 0.078125q0.0625 0.0625 0.0625 0.234375l0 1.015625q0 0.171875 -0.0625 0.25q-0.0625 0.0625 -0.171875 0.0625q-0.09375 0 -0.15625 -0.0625q-0.0625 -0.0625 -0.0625 -0.203125q-0.03125 -0.390625 -0.5 -0.734375q-0.46875 -0.34375 -1.265625 -0.34375q-1.015625 0 -1.53125 0.640625q-0.515625 0.625 -0.515625 1.4375q0 0.875 0.5625 1.4375q0.578125 0.5625 1.5 0.5625q0.515625 0 1.0625 -0.1875q0.546875 -0.1875 0.984375 -0.625q0.125 -0.109375 0.203125 -0.109375q0.09375 0 0.15625 0.0625q0.0625 0.0625 0.0625 0.15625q0 0.234375 -0.546875 0.59375q-0.875 0.5625 -1.953125 0.5625q-1.078125 0 -1.78125 -0.6875q-0.703125 -0.703125 -0.703125 -1.765625q0 -1.09375 0.71875 -1.8125q0.71875 -0.71875 1.796875 -0.71875q1.046875 0 1.75 0.625zm5.647949 0.6875q0.5625 0.28125 0.84375 0.734375q0.28125 0.4375 0.28125 0.953125q0 0.796875 -0.609375 1.390625q-0.59375 0.578125 -1.453125 0.578125q-0.859375 0 -1.46875 -0.578125q-0.59375 -0.59375 -0.59375 -1.390625q0 -0.515625 0.28125 -0.953125q0.296875 -0.453125 0.875 -0.734375q-0.5 -0.28125 -0.71875 -0.59375q-0.3125 -0.421875 -0.3125 -0.953125q0 -0.75 0.5625 -1.296875q0.578125 -0.5625 1.375 -0.5625q0.8125 0 1.375 0.5625q0.578125 0.546875 0.578125 1.296875q0 0.53125 -0.3125 0.953125q-0.21875 0.3125 -0.703125 0.59375zm0.5625 -1.53125q0 -0.578125 -0.4375 -1.0q-0.4375 -0.421875 -1.0625 -0.421875q-0.625 0 -1.0625 0.421875q-0.421875 0.421875 -0.421875 1.0q0 0.515625 0.421875 0.921875q0.4375 0.390625 1.0625 0.390625q0.640625 0 1.0625 -0.390625q0.4375 -0.40625 0.4375 -0.921875zm0.125 3.234375q0 -0.59375 -0.46875 -1.03125q-0.46875 -0.453125 -1.15625 -0.453125q-0.6875 0 -1.15625 0.453125q-0.453125 0.4375 -0.453125 1.015625q0 0.625 0.46875 1.078125q0.46875 0.4375 1.140625 0.4375q0.6875 0 1.15625 -0.4375q0.46875 -0.453125 0.46875 -1.0625z" fill-rule="nonzero"></path><path fill="#000000" d="m7.148578 178.55263l0 -0.65625q-0.984375 0.828125 -2.09375 0.828125q-0.8125 0 -1.2656248 -0.40625q-0.453125 -0.40625 -0.453125 -1.0q0 -0.65625 0.59375 -1.140625q0.60937476 -0.5 1.7499998 -0.5q0.3125 0 0.671875 0.046875q0.375 0.03125 0.796875 0.125l0 -0.734375q0 -0.375 -0.34375 -0.640625q-0.34375 -0.28125 -1.03125 -0.28125q-0.515625 0 -1.46875 0.3125q-0.171875 0.046875 -0.21875 0.046875q-0.09374976 0 -0.15624976 -0.0625q-0.0625 -0.0625 -0.0625 -0.15625q0 -0.09375 0.0625 -0.140625q0.0625 -0.09375 0.60937476 -0.234375q0.828125 -0.21875 1.265625 -0.21875q0.84375 0 1.3125 0.421875q0.484375 0.421875 0.484375 0.953125l0 2.984375l0.6093755 0q0.171875 0 0.234375 0.0625q0.078125 0.0625 0.078125 0.171875q0 0.09375 -0.078125 0.15625q-0.0625 0.0625 -0.234375 0.0625l-1.0625005 0zm0 -2.25q-0.3125 -0.09375 -0.671875 -0.125q-0.34375 -0.046875 -0.734375 -0.046875q-0.984375 0 -1.546875 0.421875q-0.42187476 0.3125 -0.42187476 0.765625q0 0.40625 0.31249976 0.6875q0.328125 0.265625 0.9375 0.265625q0.59375 0 1.09375 -0.21875q0.5 -0.234375 1.03125 -0.75l0 -1.0zm4.0698247 -4.03125l0 2.203125q0.390625 -0.171875 0.75 -0.25q0.375 -0.078125 0.703125 -0.078125q0.84375 0 1.40625 0.59375q0.578125 0.59375 0.578125 1.5625q0 1.078125 -0.640625 1.75q-0.640625 0.65625 -1.609375 0.65625q-0.640625 0 -1.234375 -0.28125q-0.421875 -0.203125 -0.765625 -0.5q-0.203125 -0.171875 -0.203125 -0.28125q0 -0.109375 0.0625 -0.171875q0.078125 -0.0625 0.15625 -0.0625q0.09375 0 0.203125 0.09375q0.796875 0.75 1.765625 0.75q0.78125 0 1.296875 -0.53125q0.515625 -0.546875 0.515625 -1.4375q0 -0.765625 -0.453125 -1.21875q-0.4375 -0.46875 -1.125 -0.46875q-0.703125 0 -1.40625 0.359375q-0.171875 0.09375 -0.234375 0.09375q-0.109375 0 -0.171875 -0.0625q-0.046875 -0.0625 -0.046875 -0.1875l0 -2.984375l3.140625 0q0.171875 0 0.234375 0.0625q0.0625 0.0625 0.0625 0.15625q0 0.109375 -0.0625 0.171875q-0.0625 0.0625 -0.234375 0.0625l-2.6875 0zm10.272949 4.0625l-4.59375 0q0.125 0.875 0.734375 1.40625q0.625 0.53125 1.53125 0.53125q0.5 0 1.046875 -0.15625q0.5625 -0.171875 0.90625 -0.4375q0.109375 -0.09375 0.171875 -0.09375q0.09375 0 0.15625 0.078125q0.0625 0.0625 0.0625 0.15625q0 0.09375 -0.078125 0.171875q-0.265625 0.265625 -0.921875 0.5q-0.65625 0.234375 -1.34375 0.234375q-1.171875 0 -1.953125 -0.75q-0.765625 -0.765625 -0.765625 -1.84375q0 -0.984375 0.71875 -1.6875q0.734375 -0.703125 1.8125 -0.703125q1.109375 0 1.8125 0.71875q0.71875 0.71875 0.703125 1.875zm-0.453125 -0.453125q-0.125 -0.75 -0.703125 -1.21875q-0.578125 -0.46875 -1.359375 -0.46875q-0.796875 0 -1.359375 0.46875q-0.5625 0.453125 -0.703125 1.21875l4.125 0zm6.835449 -4.0625l0 6.28125l0.59375 0q0.171875 0 0.234375 0.0625q0.078125 0.0625 0.078125 0.171875q0 0.09375 -0.078125 0.15625q-0.0625 0.0625 -0.234375 0.0625l-1.0625 0l0 -0.890625q-0.78125 1.0625 -1.984375 1.0625q-0.609375 0 -1.171875 -0.3125q-0.5625 -0.328125 -0.890625 -0.921875q-0.328125 -0.609375 -0.328125 -1.25q0 -0.640625 0.328125 -1.234375q0.328125 -0.609375 0.890625 -0.9375q0.5625 -0.328125 1.171875 -0.328125q1.1875 0 1.984375 1.078125l0 -2.546875l-0.59375 0q-0.171875 0 -0.25 -0.0625q-0.0625 -0.0625 -0.0625 -0.171875q0 -0.09375 0.0625 -0.15625q0.078125 -0.0625 0.25 -0.0625l1.0625 0zm-0.46875 4.421875q0 -0.859375 -0.578125 -1.453125q-0.578125 -0.59375 -1.375 -0.59375q-0.8125 0 -1.390625 0.59375q-0.578125 0.59375 -0.578125 1.453125q0 0.84375 0.578125 1.4375q0.578125 0.59375 1.390625 0.59375q0.796875 0 1.375 -0.59375q0.578125 -0.59375 0.578125 -1.4375zm7.069824 -4.421875l0 6.28125l0.59375 0q0.171875 0 0.234375 0.0625q0.078125 0.0625 0.078125 0.171875q0 0.09375 -0.078125 0.15625q-0.0625 0.0625 -0.234375 0.0625l-1.0625 0l0 -0.890625q-0.78125 1.0625 -1.984375 1.0625q-0.609375 0 -1.171875 -0.3125q-0.5625 -0.328125 -0.890625 -0.921875q-0.328125 -0.609375 -0.328125 -1.25q0 -0.640625 0.328125 -1.234375q0.328125 -0.609375 0.890625 -0.9375q0.5625 -0.328125 1.171875 -0.328125q1.1875 0 1.984375 1.078125l0 -2.546875l-0.59375 0q-0.171875 0 -0.25 -0.0625q-0.0625 -0.0625 -0.0625 -0.171875q0 -0.09375 0.0625 -0.15625q0.078125 -0.0625 0.25 -0.0625l1.0625 0zm-0.46875 4.421875q0 -0.859375 -0.578125 -1.453125q-0.578125 -0.59375 -1.375 -0.59375q-0.8125 0 -1.390625 0.59375q-0.578125 0.59375 -0.578125 1.453125q0 0.84375 0.578125 1.4375q0.578125 0.59375 1.390625 0.59375q0.796875 0 1.375 -0.59375q0.578125 -0.59375 0.578125 -1.4375zm5.694824 0.421875l-2.984375 0l0 -0.515625l2.5 -4.328125l0.9375 0l0 4.390625l0.375 0q0.171875 0 0.234375 0.0625q0.078125 0.0625 0.078125 0.171875q0 0.09375 -0.078125 0.15625q-0.0625 0.0625 -0.234375 0.0625l-0.375 0l0 1.4375l0.375 0q0.171875 0 0.234375 0.0625q0.078125 0.0625 0.078125 0.171875q0 0.09375 -0.078125 0.15625q-0.0625 0.0625 -0.234375 0.0625l-1.671875 0q-0.171875 0 -0.25 -0.0625q-0.0625 -0.0625 -0.0625 -0.15625q0 -0.109375 0.0625 -0.171875q0.078125 -0.0625 0.25 -0.0625l0.84375 0l0 -1.4375zm0 -0.453125l0 -3.9375l-0.234375 0l-2.28125 3.9375l2.515625 0zm3.8198242 1.890625l3.46875 0l0 -0.171875q0 -0.171875 0.0625 -0.234375q0.0625 -0.0625 0.15625 -0.0625q0.109375 0 0.171875 0.0625q0.0625 0.0625 0.0625 0.234375l0 0.625l-4.359375 0l0 -0.671875q1.375 -1.234375 2.671875 -2.515625q0.609375 -0.59375 0.828125 -0.859375q0.234375 -0.28125 0.3125 -0.5q0.078125 -0.21875 0.078125 -0.421875q0 -0.578125 -0.46875 -1.03125q-0.453125 -0.453125 -1.125 -0.453125q-0.59375 0 -1.046875 0.34375q-0.453125 0.34375 -0.59375 0.84375q-0.03125 0.125 -0.078125 0.15625q-0.0625 0.0625 -0.140625 0.0625q-0.09375 0 -0.15625 -0.0625q-0.0625 -0.0625 -0.0625 -0.15625q0 -0.25 0.28125 -0.6875q0.28125 -0.4375 0.78125 -0.6875q0.5 -0.265625 1.015625 -0.265625q0.84375 0 1.453125 0.59375q0.609375 0.578125 0.609375 1.328125q0 0.3125 -0.109375 0.578125q-0.09375 0.25 -0.34375 0.5625q-0.25 0.296875 -0.875 0.921875q-1.59375 1.578125 -2.59375 2.4375l0 0.03125zm10.429199 -3.734375l0 -0.15625q0 -0.171875 0.0625 -0.234375q0.0625 -0.078125 0.15625 -0.078125q0.109375 0 0.171875 0.078125q0.0625 0.0625 0.0625 0.234375l0 1.015625q0 0.171875 -0.0625 0.25q-0.0625 0.0625 -0.171875 0.0625q-0.09375 0 -0.15625 -0.0625q-0.0625 -0.0625 -0.0625 -0.203125q-0.03125 -0.390625 -0.5 -0.734375q-0.46875 -0.34375 -1.265625 -0.34375q-1.015625 0 -1.53125 0.640625q-0.515625 0.625 -0.515625 1.4375q0 0.875 0.5625 1.4375q0.578125 0.5625 1.5 0.5625q0.515625 0 1.0625 -0.1875q0.546875 -0.1875 0.984375 -0.625q0.125 -0.109375 0.203125 -0.109375q0.09375 0 0.15625 0.0625q0.0625 0.0625 0.0625 0.15625q0 0.234375 -0.546875 0.59375q-0.875 0.5625 -1.953125 0.5625q-1.078125 0 -1.78125 -0.6875q-0.703125 -0.703125 -0.703125 -1.765625q0 -1.09375 0.71875 -1.8125q0.71875 -0.71875 1.796875 -0.71875q1.046875 0 1.75 0.625zm5.647949 0.6875q0.5625 0.28125 0.84375 0.734375q0.28125 0.4375 0.28125 0.953125q0 0.796875 -0.609375 1.390625q-0.59375 0.578125 -1.453125 0.578125q-0.859375 0 -1.46875 -0.578125q-0.59375 -0.59375 -0.59375 -1.390625q0 -0.515625 0.28125 -0.953125q0.296875 -0.453125 0.875 -0.734375q-0.5 -0.28125 -0.71875 -0.59375q-0.3125 -0.421875 -0.3125 -0.953125q0 -0.75 0.5625 -1.296875q0.578125 -0.5625 1.375 -0.5625q0.8125 0 1.375 0.5625q0.578125 0.546875 0.578125 1.296875q0 0.53125 -0.3125 0.953125q-0.21875 0.3125 -0.703125 0.59375zm0.5625 -1.53125q0 -0.578125 -0.4375 -1.0q-0.4375 -0.421875 -1.0625 -0.421875q-0.625 0 -1.0625 0.421875q-0.421875 0.421875 -0.421875 1.0q0 0.515625 0.421875 0.921875q0.4375 0.390625 1.0625 0.390625q0.640625 0 1.0625 -0.390625q0.4375 -0.40625 0.4375 -0.921875zm0.125 3.234375q0 -0.59375 -0.46875 -1.03125q-0.46875 -0.453125 -1.15625 -0.453125q-0.6875 0 -1.15625 0.453125q-0.453125 0.4375 -0.453125 1.015625q0 0.625 0.46875 1.078125q0.46875 0.4375 1.140625 0.4375q0.6875 0 1.15625 -0.4375q0.46875 -0.453125 0.46875 -1.0625zm6.4916954 -4.28125l0 -0.203125l-3.2343712 0l0 0.390625q0 0.171875 -0.0625 0.234375q-0.046875 0.0625 -0.15625 0.0625q-0.09375 0 -0.15625 -0.0625q-0.0625 -0.0625 -0.0625 -0.234375l0 -0.84375l4.140621 0l0 0.71875l-1.828125 5.796875q-0.03125 0.140625 -0.09375 0.1875q-0.0625 0.046875 -0.140625 0.046875q-0.09375 0 -0.15625 -0.0625q-0.0625 -0.078125 -0.0625 -0.15625q0 -0.0625 0.03125 -0.15625l1.78125 -5.71875zm3.3823242 -0.65625l0 2.984375q0.828125 -1.0625 1.984375 -1.0625q0.984375 0 1.6875 0.71875q0.703125 0.71875 0.703125 1.75q0 1.0625 -0.71875 1.796875q-0.703125 0.71875 -1.671875 0.71875q-1.1875 0 -1.984375 -1.0625l0 0.890625l-1.046875 0q-0.171875 0 -0.25 -0.0625q-0.0625 -0.0625 -0.0625 -0.15625q0 -0.109375 0.0625 -0.171875q0.078125 -0.0625 0.25 -0.0625l0.609375 0l0 -5.828125l-0.609375 0q-0.171875 0 -0.25 -0.0625q-0.0625 -0.0625 -0.0625 -0.171875q0 -0.09375 0.0625 -0.15625q0.078125 -0.0625 0.25 -0.0625l1.046875 0zm3.921875 4.421875q0 -0.859375 -0.59375 -1.453125q-0.578125 -0.59375 -1.359375 -0.59375q-0.78125 0 -1.375 0.59375q-0.578125 0.59375 -0.578125 1.453125q0 0.84375 0.578125 1.4375q0.59375 0.59375 1.375 0.59375q0.78125 0 1.359375 -0.59375q0.59375 -0.59375 0.59375 -1.4375zm5.897949 -3.765625l0 -0.203125l-3.234375 0l0 0.390625q0 0.171875 -0.0625 0.234375q-0.046875 0.0625 -0.15625 0.0625q-0.09375 0 -0.15625 -0.0625q-0.0625 -0.0625 -0.0625 -0.234375l0 -0.84375l4.140625 0l0 0.71875l-1.828125 5.796875q-0.03125 0.140625 -0.09375 0.1875q-0.0625 0.046875 -0.140625 0.046875q-0.09375 0 -0.15625 -0.0625q-0.0625 -0.078125 -0.0625 -0.15625q0 -0.0625 0.03125 -0.15625l1.78125 -5.71875z" fill-rule="nonzero"></path><path fill="#000000" fill-opacity="0.0" d="m46.10076 -20.609938l85.259834 0l0 65.79527l-85.259834 0z" fill-rule="evenodd"></path><path fill="#000000" d="m86.445526 26.00131q-0.015625 -0.84375 -0.015625 -1.265625q0 -2.484375 0.703125 -4.28125q0.515625 -1.359375 1.65625 -2.75q0.84375 -1.0 3.03125 -2.937499q2.203125 -1.9375 2.859375 -3.078125q0.65625 -1.15625 0.65625 -2.515625q0 -2.4531255 -1.921875 -4.3125005q-1.921875 -1.8749998 -4.71875 -1.8749998q-2.6875 0 -4.5 1.6874998q-1.796875 1.6875 -2.359375 5.2812505l-4.34375 -0.515625q0.59375 -4.8125005 3.484375 -7.359375q2.890625 -2.5625 7.65625 -2.5625q5.03125 0 8.03125 2.75q3.0 2.7343748 3.0 6.625q0 2.25 -1.0625 4.15625q-1.046875 1.890625 -4.109375 4.609374q-2.0625 1.828125 -2.703125 2.703125q-0.625 0.859375 -0.9375 1.984375q-0.296875 1.125 -0.34375 3.65625l-4.0625 0zm-0.25 8.468752l0 -4.812502l4.796875 0l0 4.812502l-4.796875 0z" fill-rule="nonzero"></path><path fill="#000000" fill-opacity="0.0" d="m88.73068 45.185337l0 28.629925" fill-rule="evenodd"></path><path stroke="#000000" stroke-width="1.0" stroke-linejoin="round" stroke-linecap="butt" d="m88.73068 45.185337l0 22.629917" fill-rule="evenodd"></path><path fill="#000000" stroke="#000000" stroke-width="1.0" stroke-linecap="butt" d="m87.07895 67.81526l1.6517334 4.5380936l1.6517334 -4.5380936z" fill-rule="evenodd"></path><path fill="#000000" fill-opacity="0.0" d="m88.720184 105.35857l0 23.559052" fill-rule="evenodd"></path><path stroke="#000000" stroke-width="1.0" stroke-linejoin="round" stroke-linecap="butt" d="m88.720184 105.35857l0 17.559052" fill-rule="evenodd"></path><path fill="#000000" stroke="#000000" stroke-width="1.0" stroke-linecap="butt" d="m87.06845 122.91762l1.6517334 4.538101l1.6517334 -4.538101z" fill-rule="evenodd"></path></g></svg>

