<svg xmlns="http://www.w3.org/2000/svg" xmlns:xlink="http://www.w3.org/1999/xlink" width="172.31" height="125.33" viewBox="0 0 172.31 125.33">
  <defs>
    <style>
      .cls-1 {
        fill: #f2f2f2;
      }

      .cls-2, .cls-4, .cls-6, .cls-8 {
        fill: none;
      }

      .cls-2 {
        stroke: gray;
      }

      .cls-2, .cls-6 {
        stroke-linejoin: round;
      }

      .cls-2, .cls-4, .cls-6 {
        stroke-width: 0.5px;
      }

      .cls-3 {
        fill: url(#linear-gradient);
      }

      .cls-4 {
        stroke: #4d4d4d;
      }

      .cls-4, .cls-8 {
        stroke-miterlimit: 10;
      }

      .cls-5 {
        fill: #666;
      }

      .cls-5, .cls-9 {
        fill-rule: evenodd;
      }

      .cls-6, .cls-8 {
        stroke: #000;
      }

      .cls-7 {
        font-size: 9px;
        font-family: Humanist521BT-BoldCondensed, Humanst521 Cn BT;
        font-weight: 700;
      }

      .cls-8 {
        stroke-width: 0.3px;
      }

      .cls-9 {
        fill: #28708e;
      }
    </style>
    <linearGradient id="linear-gradient" x1="165.22" y1="20.5" x2="172.03" y2="20.5" gradientUnits="userSpaceOnUse">
      <stop offset="0" stop-color="#cfcfcf"/>
      <stop offset="0.5" stop-color="#e6e6e6"/>
      <stop offset="0.96" stop-color="gray"/>
      <stop offset="1" stop-color="#787878"/>
    </linearGradient>
  </defs>
  <g id="Layer_2" data-name="Layer 2">
    <rect class="cls-1" x="165.23" y="0.25" width="6.83" height="124.83"/>
    <line class="cls-2" x1="165.23" y1="0.25" x2="165.23" y2="125.08"/>
    <g>
      <rect class="cls-3" x="165.22" y="9.28" width="6.82" height="22.44" rx="1"/>
      <rect class="cls-4" x="165.22" y="9.28" width="6.82" height="22.44" rx="1"/>
    </g>
    <polygon class="cls-5" points="170.36 7.21 166.89 7.21 168.63 3.68 170.36 7.21"/>
    <polygon class="cls-5" points="170.36 34.17 166.89 34.17 168.63 37.71 170.36 34.17"/>
    <rect class="cls-6" x="53.39" y="0.25" width="118.67" height="124.83"/>
    <path d="M267.16,148.69a1.21,1.21,0,0,0-.46-.49,1.48,1.48,0,0,0-1.34,0,1.28,1.28,0,0,0-.46.49Zm.84.76h-3.12a1,1,0,0,0,.42.47,1.58,1.58,0,0,0,.82.18,4.78,4.78,0,0,0,1.12-.18,1.92,1.92,0,0,1,.4-.07.33.33,0,0,1,.25.1.37.37,0,0,1,.11.27.36.36,0,0,1-.11.26,2.14,2.14,0,0,1-.72.26,6.14,6.14,0,0,1-1.11.11,2,2,0,0,1-1.46-.5,1.69,1.69,0,0,1-.54-1.27,1.61,1.61,0,0,1,.58-1.29,2.08,2.08,0,0,1,1.37-.5,2.11,2.11,0,0,1,.85.16,2,2,0,0,1,.58.34,2.49,2.49,0,0,1,.44.68,1.69,1.69,0,0,1,.12.66Zm-5.5-.39a1,1,0,0,0-1.79-.72,1,1,0,0,0-.32.72,1,1,0,0,0,.32.73,1.05,1.05,0,0,0,1.79-.73Zm0-1.45v-.22h.88a.55.55,0,0,1,.39.1.34.34,0,0,1,.12.27.35.35,0,0,1-.12.28.55.55,0,0,1-.39.1h-.12v2.76a1.25,1.25,0,0,1-.18.68,1.3,1.3,0,0,1-.52.52,1.44,1.44,0,0,1-.77.21h-.87a.59.59,0,0,1-.39-.1.37.37,0,0,1-.11-.27.38.38,0,0,1,.11-.28.59.59,0,0,1,.39-.1h.85a.73.73,0,0,0,.54-.19.61.61,0,0,0,.19-.47v-.38a1.77,1.77,0,0,1-.52.25,1.61,1.61,0,0,1-.54.08,1.78,1.78,0,0,1-1.29-.51,1.73,1.73,0,0,1-.52-1.28,1.69,1.69,0,0,1,.52-1.27,1.78,1.78,0,0,1,1.29-.51,1.63,1.63,0,0,1,.55.09A1.7,1.7,0,0,1,262.51,147.61Zm-4.57,1.77a5.37,5.37,0,0,0-.84-.08,1.39,1.39,0,0,0-.8.22c-.15.1-.22.19-.22.29a.2.2,0,0,0,.11.17.92.92,0,0,0,.51.12,1.84,1.84,0,0,0,.61-.11,2.27,2.27,0,0,0,.63-.28Zm0,1.36v-.19a2.23,2.23,0,0,1-.64.24,2.94,2.94,0,0,1-.62.07,1.48,1.48,0,0,1-1-.32.92.92,0,0,1-.37-.72,1.18,1.18,0,0,1,.48-.88,2.07,2.07,0,0,1,1.35-.4,4.9,4.9,0,0,1,.8.07v-.18a.32.32,0,0,0-.15-.28,1,1,0,0,0-.56-.11,3.73,3.73,0,0,0-.88.13,1,1,0,0,1-.31.05.35.35,0,0,1-.26-.1.43.43,0,0,1-.1-.28.25.25,0,0,1,0-.16.4.4,0,0,1,.1-.12,1.17,1.17,0,0,1,.29-.11,4.78,4.78,0,0,1,.57-.12,3.4,3.4,0,0,1,.53,0,1.78,1.78,0,0,1,1.1.3,1,1,0,0,1,.39.83V150h.13a.54.54,0,0,1,.38.11.36.36,0,0,1,0,.54.54.54,0,0,1-.38.11Zm-4.29-2.47a1.34,1.34,0,0,0-.39-.16,1.2,1.2,0,0,0-.42-.07,1.52,1.52,0,0,0-.7.14c-.08,0-.12.09-.12.14s0,.12.16.17a2.37,2.37,0,0,0,.53.11,6.23,6.23,0,0,1,1,.21,1.25,1.25,0,0,1,.6.4.87.87,0,0,1,.22.57.84.84,0,0,1-.37.69,2.13,2.13,0,0,1-1.34.38,2.92,2.92,0,0,1-.6,0,2.12,2.12,0,0,1-.52-.17.5.5,0,0,1-.12.08.28.28,0,0,1-.13,0,.36.36,0,0,1-.28-.12.59.59,0,0,1-.11-.39V150a.54.54,0,0,1,.11-.38.34.34,0,0,1,.27-.12.33.33,0,0,1,.23.07.58.58,0,0,1,.15.26,1.06,1.06,0,0,0,.42.23,2,2,0,0,0,.56.07,1.64,1.64,0,0,0,.81-.16c.1-.06.14-.11.14-.17s-.06-.18-.19-.25a2.91,2.91,0,0,0-.81-.16,2.35,2.35,0,0,1-1.23-.36.87.87,0,0,1-.31-.67.84.84,0,0,1,.35-.68,1.94,1.94,0,0,1,1.22-.36,2.94,2.94,0,0,1,.51.05,2.24,2.24,0,0,1,.46.14l.13-.06.12,0a.36.36,0,0,1,.26.11.59.59,0,0,1,.11.39v.18a.55.55,0,0,1-.07.34.37.37,0,0,1-.32.17.38.38,0,0,1-.25-.09A.41.41,0,0,1,253.65,148.27Zm-4.42,0a1.34,1.34,0,0,0-.39-.16,1.16,1.16,0,0,0-.42-.07,1.52,1.52,0,0,0-.7.14c-.08,0-.12.09-.12.14s.06.12.16.17a2.37,2.37,0,0,0,.53.11,5.81,5.81,0,0,1,1.05.21,1.33,1.33,0,0,1,.61.4.91.91,0,0,1,.21.57.84.84,0,0,1-.37.69,2.1,2.1,0,0,1-1.33.38,3,3,0,0,1-.61,0,2.12,2.12,0,0,1-.52-.17.36.36,0,0,1-.12.08.28.28,0,0,1-.13,0,.38.38,0,0,1-.28-.12.59.59,0,0,1-.11-.39V150a.54.54,0,0,1,.11-.38.36.36,0,0,1,.27-.12.33.33,0,0,1,.23.07.58.58,0,0,1,.15.26,1.22,1.22,0,0,0,.42.23,2,2,0,0,0,.56.07,1.59,1.59,0,0,0,.81-.16c.1-.06.14-.11.14-.17s-.06-.18-.19-.25a2.91,2.91,0,0,0-.81-.16,2.35,2.35,0,0,1-1.23-.36.86.86,0,0,1-.3-.67.83.83,0,0,1,.34-.68,1.94,1.94,0,0,1,1.22-.36,2.94,2.94,0,0,1,.51.05,2.06,2.06,0,0,1,.46.14l.13-.06.12,0a.36.36,0,0,1,.26.11.59.59,0,0,1,.11.39v.18a.55.55,0,0,1-.07.34.37.37,0,0,1-.32.17.38.38,0,0,1-.25-.09A.41.41,0,0,1,249.23,148.27Zm-4.17.42a1.19,1.19,0,0,0-.45-.49,1.48,1.48,0,0,0-1.34,0,1.21,1.21,0,0,0-.46.49Zm.84.76h-3.12a1,1,0,0,0,.43.47,1.58,1.58,0,0,0,.82.18,4.78,4.78,0,0,0,1.12-.18,1.82,1.82,0,0,1,.4-.07.33.33,0,0,1,.25.1.36.36,0,0,1,.1.27.35.35,0,0,1-.1.26,2.23,2.23,0,0,1-.73.26,6.12,6.12,0,0,1-1.1.11,2.08,2.08,0,0,1-1.47-.5,1.69,1.69,0,0,1-.54-1.27,1.61,1.61,0,0,1,.59-1.29,2.07,2.07,0,0,1,1.37-.5,2.15,2.15,0,0,1,.85.16,1.81,1.81,0,0,1,.57.34,2.51,2.51,0,0,1,.45.68,1.9,1.9,0,0,1,.11.66Zm-7.51-1.73V150h.28a.59.59,0,0,1,.39.11.36.36,0,0,1,0,.54.59.59,0,0,1-.39.11h-1a.59.59,0,0,1-.39-.11.39.39,0,0,1,0-.54.52.52,0,0,1,.36-.11v-3a.46.46,0,0,1-.31-.12.35.35,0,0,1-.1-.26.34.34,0,0,1,.12-.27.59.59,0,0,1,.39-.11h.84l1,2.28,1-2.28h.84a.59.59,0,0,1,.39.11.34.34,0,0,1,.12.27.33.33,0,0,1-.11.26.42.42,0,0,1-.3.12v3a.5.5,0,0,1,.36.11.36.36,0,0,1,0,.54.59.59,0,0,1-.39.11h-1a.54.54,0,0,1-.38-.11.36.36,0,0,1,0-.54.54.54,0,0,1,.38-.11h.28v-2.26l-.87,1.95h-.66Z" transform="translate(-179.61 -136.42)"/>
    <path d="M270.44,149.85h.14a.5.5,0,0,1,.35.14.49.49,0,0,1,.15.36.49.49,0,0,1-.15.35.46.46,0,0,1-.35.14h-.14a.5.5,0,0,1-.36-.14.49.49,0,0,1-.15-.35.49.49,0,0,1,.15-.36A.54.54,0,0,1,270.44,149.85Zm0-2.31h.14a.47.47,0,0,1,.35.15.49.49,0,0,1,.15.35.5.5,0,0,1-.5.51h-.14a.51.51,0,0,1-.36-.15.49.49,0,0,1-.15-.36.45.45,0,0,1,.15-.35A.51.51,0,0,1,270.44,147.54Z" transform="translate(-179.61 -136.42)"/>
    <path d="M335.52,155.66v3.7h.8a.22.22,0,0,1,.16,0,.14.14,0,0,1,.06.12.11.11,0,0,1-.06.1.22.22,0,0,1-.16,0h-1.93a.23.23,0,0,1-.16,0,.12.12,0,0,1-.05-.1.17.17,0,0,1,.05-.12.24.24,0,0,1,.16,0h.81v-3.7h-1.28v1.08a.25.25,0,0,1,0,.16.14.14,0,0,1-.11,0,.16.16,0,0,1-.12,0,.25.25,0,0,1,0-.16v-1.39h3.5v1.39a.34.34,0,0,1,0,.16.16.16,0,0,1-.12,0,.14.14,0,0,1-.11,0,.25.25,0,0,1,0-.16v-1.08Zm-3.35.11v-.21c0-.08,0-.13,0-.15a.14.14,0,0,1,.12-.06.13.13,0,0,1,.11.06s0,.07,0,.15v.85a.3.3,0,0,1,0,.18.18.18,0,0,1-.11,0,.21.21,0,0,1-.11,0,.53.53,0,0,1-.05-.15.73.73,0,0,0-.33-.55,1.6,1.6,0,0,0-1-.33,1.51,1.51,0,0,0-.68.16,1.25,1.25,0,0,0-.38.28,2.71,2.71,0,0,0-.38.64,1.5,1.5,0,0,0-.1.58v.55a1.63,1.63,0,0,0,.5,1.2,1.58,1.58,0,0,0,1.17.5,1.42,1.42,0,0,0,.72-.17,2.07,2.07,0,0,0,.61-.52.19.19,0,0,1,.14-.08.12.12,0,0,1,.11,0,.15.15,0,0,1,0,.11c0,.06-.05.14-.16.26a2,2,0,0,1-.68.5,1.76,1.76,0,0,1-.77.17,2.09,2.09,0,0,1-.69-.12,1.64,1.64,0,0,1-.44-.23,2.71,2.71,0,0,1-.43-.45,2.35,2.35,0,0,1-.35-.58,2.21,2.21,0,0,1-.08-.59v-.63a2.2,2.2,0,0,1,.23-.94,1.78,1.78,0,0,1,.68-.73,1.8,1.8,0,0,1,.93-.25A1.89,1.89,0,0,1,332.17,155.77ZM327.36,157a2.36,2.36,0,0,0-.13-.8,2,2,0,0,0-.28-.61.73.73,0,0,0-.24-.22.86.86,0,0,0-.47-.14.91.91,0,0,0-.82.54,2.44,2.44,0,0,0-.3,1.23v.69a3.2,3.2,0,0,0,.12.83,2.4,2.4,0,0,0,.29.6.86.86,0,0,0,.72.34.9.9,0,0,0,.81-.52,2.54,2.54,0,0,0,.3-1.25Zm.31,0v.76a2.43,2.43,0,0,1-.48,1.59,1.17,1.17,0,0,1-.94.45,1.32,1.32,0,0,1-.53-.1,1.24,1.24,0,0,1-.41-.3,2.53,2.53,0,0,1-.23-.4,2.48,2.48,0,0,1-.18-.49,2.75,2.75,0,0,1-.09-.75V157a2.43,2.43,0,0,1,.48-1.59,1.2,1.2,0,0,1,.95-.46,1.17,1.17,0,0,1,.52.12,1.31,1.31,0,0,1,.41.3,1.51,1.51,0,0,1,.23.4,2.78,2.78,0,0,1,.19.48A3.38,3.38,0,0,1,327.67,157Zm-5.83-2v4.38h1.07a.21.21,0,0,1,.15,0,.17.17,0,0,1,.05.12.12.12,0,0,1-.05.1.21.21,0,0,1-.15,0h-2.45a.3.3,0,0,1-.18,0,.12.12,0,0,1,0-.1.16.16,0,0,1,0-.12.3.3,0,0,1,.18,0h1.07v-4l-1,.31-.11,0a.16.16,0,0,1-.1-.05.15.15,0,0,1,0-.1.23.23,0,0,1,0-.11.4.4,0,0,1,.13-.06Zm-7.91,2.85a1.35,1.35,0,0,0-.49-.84,1.49,1.49,0,0,0-.94-.32,1.45,1.45,0,0,0-.94.32,1.39,1.39,0,0,0-.49.84Zm.31.31h-3.18a1.56,1.56,0,0,0,.51,1,1.6,1.6,0,0,0,1.06.36,2.66,2.66,0,0,0,.72-.1,2.05,2.05,0,0,0,.63-.3.19.19,0,0,1,.12-.07.14.14,0,0,1,.11.06.15.15,0,0,1,0,.1.18.18,0,0,1-.05.12,1.78,1.78,0,0,1-.64.34,2.68,2.68,0,0,1-.93.16,1.89,1.89,0,0,1-1.35-.51,1.73,1.73,0,0,1-.53-1.27,1.58,1.58,0,0,1,.5-1.16,1.74,1.74,0,0,1,1.25-.48,1.66,1.66,0,0,1,1.25.49A1.7,1.7,0,0,1,314.24,158.14Zm-6,1.53h-.53l-1.28-2.88h-.31a.3.3,0,0,1-.18,0,.28.28,0,0,1,0-.12.21.21,0,0,1,0-.11.3.3,0,0,1,.18-.05h1.16a.19.19,0,0,1,.15.05.14.14,0,0,1,.06.11.17.17,0,0,1-.06.12s-.08,0-.15,0h-.52l1.15,2.57h.14l1.11-2.57h-.52a.25.25,0,0,1-.16,0,.19.19,0,0,1,0-.12.15.15,0,0,1,0-.11.25.25,0,0,1,.16-.05h1.18a.22.22,0,0,1,.16.05.15.15,0,0,1,0,.11.19.19,0,0,1,0,.12.22.22,0,0,1-.16,0h-.31Zm-3.41-1.59a1.32,1.32,0,0,0-.42-1,1.37,1.37,0,0,0-1-.42,1.38,1.38,0,0,0-1,.42,1.31,1.31,0,0,0-.41,1,1.34,1.34,0,0,0,.41,1,1.4,1.4,0,0,0,1,.4,1.39,1.39,0,0,0,1-.4A1.35,1.35,0,0,0,304.86,158.08Zm.32,0a1.62,1.62,0,0,1-.52,1.21,1.7,1.7,0,0,1-1.23.49,1.67,1.67,0,0,1-1.23-.5,1.64,1.64,0,0,1-.51-1.2,1.67,1.67,0,0,1,.51-1.22,1.76,1.76,0,0,1,2.46,0A1.61,1.61,0,0,1,305.18,158.08Zm-7.72-1.61v.32a1.09,1.09,0,0,1,.8-.43.72.72,0,0,1,.42.13.94.94,0,0,1,.3.39,1.51,1.51,0,0,1,.42-.39.8.8,0,0,1,.43-.13.7.7,0,0,1,.54.22.88.88,0,0,1,.26.61v2.17h.26a.22.22,0,0,1,.16,0,.14.14,0,0,1,.06.12.11.11,0,0,1-.06.1.22.22,0,0,1-.16,0h-.57v-2.45a.53.53,0,0,0-.15-.39.47.47,0,0,0-.33-.16.66.66,0,0,0-.37.13,1.84,1.84,0,0,0-.42.51v2.05h.26c.07,0,.13,0,.15,0a.14.14,0,0,1,.06.12.11.11,0,0,1-.06.1.19.19,0,0,1-.15,0h-.58v-2.43a.59.59,0,0,0-.15-.41.43.43,0,0,0-.32-.16.62.62,0,0,0-.33.11,1.68,1.68,0,0,0-.47.53v2.05h.25a.22.22,0,0,1,.16,0,.17.17,0,0,1,.05.12.12.12,0,0,1-.05.1.22.22,0,0,1-.16,0h-.84a.25.25,0,0,1-.16,0,.12.12,0,0,1,0-.1.16.16,0,0,1,0-.12.25.25,0,0,1,.16,0h.27v-2.57h-.27a.25.25,0,0,1-.16,0,.19.19,0,0,1,0-.12.15.15,0,0,1,0-.11.25.25,0,0,1,.16-.05Zm-6.34,1.36a1.35,1.35,0,0,0-.49-.84,1.54,1.54,0,0,0-1.88,0,1.33,1.33,0,0,0-.48.84Zm.31.31h-3.17a1.47,1.47,0,0,0,.51,1,1.57,1.57,0,0,0,1.05.36,2.78,2.78,0,0,0,.73-.1,2.11,2.11,0,0,0,.62-.3.19.19,0,0,1,.12-.07.14.14,0,0,1,.11.06.12.12,0,0,1,0,.1.15.15,0,0,1-.05.12,1.69,1.69,0,0,1-.64.34,2.68,2.68,0,0,1-.93.16,1.89,1.89,0,0,1-1.35-.51A1.72,1.72,0,0,1,288,158a1.57,1.57,0,0,1,.49-1.16,1.76,1.76,0,0,1,1.25-.48,1.67,1.67,0,0,1,1.74,1.78Zm-5.21-1.47a.21.21,0,0,1,0-.15.13.13,0,0,1,.11-.05.16.16,0,0,1,.11.05.22.22,0,0,1,.05.16v.53a.26.26,0,0,1-.05.17.15.15,0,0,1-.11,0,.12.12,0,0,1-.11,0,.18.18,0,0,1,0-.14.49.49,0,0,0-.23-.36,1.4,1.4,0,0,0-.8-.21,1.29,1.29,0,0,0-.82.22.42.42,0,0,0-.22.35.45.45,0,0,0,.26.37,2,2,0,0,0,.68.16,3.57,3.57,0,0,1,.9.16,1.13,1.13,0,0,1,.54.35.84.84,0,0,1,.17.5.9.9,0,0,1-.38.7,1.78,1.78,0,0,1-1.12.3,1.93,1.93,0,0,1-1.21-.36.51.51,0,0,1,0,.16l-.06.07-.07,0a.17.17,0,0,1-.12,0,.24.24,0,0,1,0-.16v-.64a.21.21,0,0,1,0-.15.14.14,0,0,1,.12-.06.14.14,0,0,1,.11.06.21.21,0,0,1,0,.12.51.51,0,0,0,.08.28,1,1,0,0,0,.41.3,2.13,2.13,0,0,0,.71.1,1.52,1.52,0,0,0,.89-.21.59.59,0,0,0,.3-.48.52.52,0,0,0-.29-.47,2.3,2.3,0,0,0-.89-.22,3.89,3.89,0,0,1-.83-.16.84.84,0,0,1-.39-.29.66.66,0,0,1-.14-.41.71.71,0,0,1,.39-.63,1.75,1.75,0,0,1,.94-.24A1.66,1.66,0,0,1,286.22,156.67Zm-4.7,1.45a3.12,3.12,0,0,0-.46-.09,4.12,4.12,0,0,0-.51,0,1.79,1.79,0,0,0-1.07.29.66.66,0,0,0-.29.53.6.6,0,0,0,.22.47,1,1,0,0,0,.64.18,1.87,1.87,0,0,0,.76-.15,2.56,2.56,0,0,0,.71-.51Zm0,1.55v-.45a2.19,2.19,0,0,1-1.45.56,1.29,1.29,0,0,1-.87-.27.89.89,0,0,1-.31-.69,1,1,0,0,1,.41-.79,1.92,1.92,0,0,1,1.21-.34l.46,0,.55.09v-.5a.56.56,0,0,0-.24-.45,1.14,1.14,0,0,0-.71-.19,3.35,3.35,0,0,0-1,.22l-.15,0a.18.18,0,0,1-.11,0,.16.16,0,0,1-.05-.11.12.12,0,0,1,.05-.1,1.18,1.18,0,0,1,.42-.16,3.73,3.73,0,0,1,.87-.15,1.34,1.34,0,0,1,.91.29.85.85,0,0,1,.33.66v2.05h.43a.22.22,0,0,1,.16,0,.17.17,0,0,1,.05.12.12.12,0,0,1-.05.1.22.22,0,0,1-.16,0Zm-4.08-1.84A1.35,1.35,0,0,0,277,157a1.49,1.49,0,0,0-.94-.32,1.45,1.45,0,0,0-.94.32,1.33,1.33,0,0,0-.48.84Zm.31.31h-3.18a1.56,1.56,0,0,0,.51,1,1.6,1.6,0,0,0,1.06.36,2.66,2.66,0,0,0,.72-.1,2.05,2.05,0,0,0,.63-.3.19.19,0,0,1,.12-.07.14.14,0,0,1,.11.06.12.12,0,0,1,0,.1.18.18,0,0,1-.05.12,1.78,1.78,0,0,1-.64.34,2.68,2.68,0,0,1-.93.16,1.89,1.89,0,0,1-1.35-.51,1.73,1.73,0,0,1-.53-1.27,1.58,1.58,0,0,1,.5-1.16,1.74,1.74,0,0,1,1.25-.48,1.66,1.66,0,0,1,1.25.49A1.7,1.7,0,0,1,277.75,158.14Zm-6.09-3.1v4.32h1.22a.25.25,0,0,1,.17,0,.17.17,0,0,1,.05.12.12.12,0,0,1-.05.1.25.25,0,0,1-.17,0h-2.75a.26.26,0,0,1-.17,0,.12.12,0,0,1,0-.1.16.16,0,0,1,0-.12.27.27,0,0,1,.17,0h1.22v-4h-.89a.3.3,0,0,1-.18,0,.16.16,0,0,1,0-.12.15.15,0,0,1,0-.11.3.3,0,0,1,.18,0ZM268.47,158a1.21,1.21,0,0,0-.39-.91,1.3,1.3,0,0,0-1-.39,1.34,1.34,0,0,0-1,.39,1.29,1.29,0,0,0,0,1.83,1.34,1.34,0,0,0,1,.39,1.3,1.3,0,0,0,1-.39A1.23,1.23,0,0,0,268.47,158Zm-2.7-1.5V157a2,2,0,0,1,.59-.51,1.64,1.64,0,0,1,.76-.17,1.66,1.66,0,0,1,.85.22,1.45,1.45,0,0,1,.6.6,1.6,1.6,0,0,1,.22.79,1.55,1.55,0,0,1-.49,1.15,1.61,1.61,0,0,1-1.18.47,1.63,1.63,0,0,1-1.35-.67v1.86h.76a.21.21,0,0,1,.15.05.11.11,0,0,1,.06.1.13.13,0,0,1-.06.11.17.17,0,0,1-.15.05H265a.25.25,0,0,1-.17,0,.16.16,0,0,1,0-.12.12.12,0,0,1,0-.1.25.25,0,0,1,.17-.05h.42v-4H265a.25.25,0,0,1-.17,0,.19.19,0,0,1,0-.12.15.15,0,0,1,0-.11.25.25,0,0,1,.17-.05Zm-8.57,2.08h1l-1.1,2a.31.31,0,0,1-.25.18.2.2,0,0,1-.15-.06.19.19,0,0,1-.07-.15s0-.06,0-.09Zm-3-.43a2.88,2.88,0,0,0-.46-.09,4.12,4.12,0,0,0-.51,0,1.79,1.79,0,0,0-1.07.29.66.66,0,0,0-.29.53.6.6,0,0,0,.22.47,1,1,0,0,0,.65.18,1.86,1.86,0,0,0,.75-.15,2.56,2.56,0,0,0,.71-.51Zm0,1.55v-.45a2.18,2.18,0,0,1-1.44.56,1.3,1.3,0,0,1-.88-.27.89.89,0,0,1-.31-.69,1,1,0,0,1,.41-.79,1.92,1.92,0,0,1,1.21-.34l.46,0,.55.09v-.5a.57.57,0,0,0-.23-.45,1.19,1.19,0,0,0-.72-.19,3.41,3.41,0,0,0-1,.22l-.15,0a.18.18,0,0,1-.11,0,.15.15,0,0,1,0-.11.12.12,0,0,1,0-.1,1.18,1.18,0,0,1,.42-.16,3.72,3.72,0,0,1,.88-.15,1.31,1.31,0,0,1,.9.29.83.83,0,0,1,.34.66v2.05h.42a.22.22,0,0,1,.16,0,.13.13,0,0,1,0,.12.1.1,0,0,1,0,.1.22.22,0,0,1-.16,0Zm-4.42-3a.21.21,0,0,1,.05-.15.12.12,0,0,1,.1-.05.15.15,0,0,1,.12.05.22.22,0,0,1,.05.16v.53a.26.26,0,0,1-.05.17.15.15,0,0,1-.12,0,.12.12,0,0,1-.1,0,.18.18,0,0,1-.05-.14.49.49,0,0,0-.23-.36,1.4,1.4,0,0,0-.8-.21,1.29,1.29,0,0,0-.82.22.42.42,0,0,0-.22.35.45.45,0,0,0,.26.37,2,2,0,0,0,.68.16,3.57,3.57,0,0,1,.9.16,1.13,1.13,0,0,1,.54.35.84.84,0,0,1,.17.5.9.9,0,0,1-.38.7,1.78,1.78,0,0,1-1.12.3,1.93,1.93,0,0,1-1.21-.36.51.51,0,0,1,0,.16l-.06.07-.07,0a.17.17,0,0,1-.12,0,.24.24,0,0,1,0-.16v-.64a.21.21,0,0,1,0-.15.14.14,0,0,1,.12-.06.14.14,0,0,1,.11.06.21.21,0,0,1,0,.12.51.51,0,0,0,.08.28,1,1,0,0,0,.42.3,2,2,0,0,0,.7.1,1.52,1.52,0,0,0,.89-.21.62.62,0,0,0,.3-.48.52.52,0,0,0-.29-.47,2.26,2.26,0,0,0-.89-.22,3.89,3.89,0,0,1-.83-.16.84.84,0,0,1-.39-.29.66.66,0,0,1-.14-.41.71.71,0,0,1,.39-.63,1.74,1.74,0,0,1,.93-.24A1.67,1.67,0,0,1,249.73,156.67Zm-5.42-.2v2.89h1.22a.22.22,0,0,1,.16,0,.13.13,0,0,1,.05.12.1.1,0,0,1-.05.1.22.22,0,0,1-.16,0h-2.77a.25.25,0,0,1-.16,0,.12.12,0,0,1,0-.1.16.16,0,0,1,0-.12.25.25,0,0,1,.16,0H244v-2.57h-.92a.24.24,0,0,1-.16,0,.21.21,0,0,1,0-.12.16.16,0,0,1,0-.11.23.23,0,0,1,.16-.05Zm0-1.59v.8h-.47v-.8Zm-5.27.78v3.7h2.08v-1.24a.21.21,0,0,1,0-.15.17.17,0,0,1,.12-.05.16.16,0,0,1,.11.05.21.21,0,0,1,0,.15v1.55H238a.26.26,0,0,1-.17,0,.15.15,0,0,1,0-.1.21.21,0,0,1,0-.12.27.27,0,0,1,.17,0h.74v-3.7H238a.27.27,0,0,1-.17,0,.21.21,0,0,1,0-.12.21.21,0,0,1,0-.11.35.35,0,0,1,.17,0h1.8a.27.27,0,0,1,.15,0,.13.13,0,0,1,0,.11.13.13,0,0,1,0,.12.21.21,0,0,1-.15,0Z" transform="translate(-179.61 -136.42)"/>
    <path d="M297.87,165.65v.47a2.07,2.07,0,0,1,.58-.45,1.47,1.47,0,0,1,.6-.13,1.38,1.38,0,0,1,.65.15,1.09,1.09,0,0,1,.37.37,1,1,0,0,1,.17.53v1.95h.27a.21.21,0,0,1,.15,0,.14.14,0,0,1,.06.12.14.14,0,0,1-.06.11.21.21,0,0,1-.15,0h-.84a.24.24,0,0,1-.16,0,.16.16,0,0,1-.05-.11.17.17,0,0,1,.05-.12.24.24,0,0,1,.16,0h.26v-1.9a.74.74,0,0,0-.24-.56.9.9,0,0,0-.65-.23,1.15,1.15,0,0,0-.53.13,2.84,2.84,0,0,0-.64.62v1.94h.35a.21.21,0,0,1,.15,0,.14.14,0,0,1,.06.12.14.14,0,0,1-.06.11.21.21,0,0,1-.15,0h-1a.27.27,0,0,1-.17,0,.21.21,0,0,1,0-.11.21.21,0,0,1,0-.12.27.27,0,0,1,.17,0h.35V166h-.26a.27.27,0,0,1-.17,0,.19.19,0,0,1,0-.12.15.15,0,0,1,0-.11.26.26,0,0,1,.17,0Zm-4.59-1.43v1.9a2.34,2.34,0,0,1,.58-.45,1.48,1.48,0,0,1,.61-.13,1.41,1.41,0,0,1,.61.13,1.17,1.17,0,0,1,.43.4,1,1,0,0,1,.17.55v1.92H296a.24.24,0,0,1,.16,0,.16.16,0,0,1,0,.12.15.15,0,0,1,0,.11.24.24,0,0,1-.16,0h-1a.24.24,0,0,1-.16,0,.16.16,0,0,1-.05-.11.17.17,0,0,1,.05-.12.24.24,0,0,1,.16,0h.36v-1.9a.75.75,0,0,0-.25-.56,1,1,0,0,0-.68-.23,1,1,0,0,0-.58.17,3.56,3.56,0,0,0-.58.55v2h.36a.21.21,0,0,1,.15,0,.13.13,0,0,1,0,.12.13.13,0,0,1,0,.11.21.21,0,0,1-.15,0h-1a.27.27,0,0,1-.17,0,.15.15,0,0,1,0-.11.16.16,0,0,1,0-.12.27.27,0,0,1,.17,0H293v-4h-.42a.24.24,0,0,1-.16,0,.17.17,0,0,1-.05-.12.12.12,0,0,1,.05-.1.23.23,0,0,1,.16-.05Zm-2.11,3a1.43,1.43,0,0,0-1.42-1.41,1.39,1.39,0,0,0-1,.42,1.37,1.37,0,0,0-.41,1,1.38,1.38,0,0,0,.41,1,1.42,1.42,0,0,0,1,.41,1.37,1.37,0,0,0,1-.41A1.32,1.32,0,0,0,291.17,167.26Zm.33,0a1.64,1.64,0,0,1-.52,1.21,1.71,1.71,0,0,1-1.23.5,1.68,1.68,0,0,1-1.23-.51,1.61,1.61,0,0,1-.51-1.2,1.63,1.63,0,0,1,.51-1.21,1.74,1.74,0,0,1,2.46,0A1.63,1.63,0,0,1,291.5,167.26Zm-5.09-2.41v2.73a1.35,1.35,0,0,1-.42,1,1.42,1.42,0,0,1-1,.41,1.73,1.73,0,0,1-.69-.16,3.59,3.59,0,0,1-.74-.53v-1.14a.21.21,0,0,1,0-.15.14.14,0,0,1,.11-.05.17.17,0,0,1,.12.05.27.27,0,0,1,0,.15v1a2.37,2.37,0,0,0,.56.39,1.42,1.42,0,0,0,.55.13,1.27,1.27,0,0,0,.58-.14,1.12,1.12,0,0,0,.37-.38,1,1,0,0,0,.17-.56v-2.73h-1.22a.26.26,0,0,1-.17,0,.16.16,0,0,1,0-.12.13.13,0,0,1,0-.1.26.26,0,0,1,.17-.05h2.28a.21.21,0,0,1,.15.05.12.12,0,0,1,.06.1.14.14,0,0,1-.06.12.21.21,0,0,1-.15,0ZM282,164l-2.51,5.33c0,.1-.09.14-.16.14a.19.19,0,0,1-.12,0,.15.15,0,0,1,0-.11.24.24,0,0,1,0-.12l2.51-5.34a.27.27,0,0,1,.06-.11l.1,0a.15.15,0,0,1,.11,0,.13.13,0,0,1,0,.1A.45.45,0,0,1,282,164Zm-10.59,4h.14a.45.45,0,0,1,.34.15.45.45,0,0,1,.15.35.49.49,0,0,1-.15.36.48.48,0,0,1-.34.14h-.14a.52.52,0,0,1-.36-.14.49.49,0,0,1-.15-.36.45.45,0,0,1,.15-.35A.49.49,0,0,1,271.44,168Zm-3.13-1a1.33,1.33,0,0,0-.48-.83,1.44,1.44,0,0,0-.94-.33,1.4,1.4,0,0,0-.94.33,1.34,1.34,0,0,0-.49.83Zm.32.32h-3.18a1.51,1.51,0,0,0,.51,1,1.61,1.61,0,0,0,1.06.37,2.68,2.68,0,0,0,.72-.11,2.05,2.05,0,0,0,.63-.3.26.26,0,0,1,.12-.07.12.12,0,0,1,.1.06.14.14,0,0,1,.05.11.14.14,0,0,1-.06.11,1.63,1.63,0,0,1-.63.35,3,3,0,0,1-.93.16,1.86,1.86,0,0,1-1.35-.52,1.72,1.72,0,0,1-.53-1.26,1.54,1.54,0,0,1,.49-1.16,1.73,1.73,0,0,1,1.26-.49,1.67,1.67,0,0,1,1.25.5A1.74,1.74,0,0,1,268.63,167.33ZM262.17,166v2.57h1.38a.21.21,0,0,1,.15,0,.17.17,0,0,1,.05.12.16.16,0,0,1-.05.11.21.21,0,0,1-.15,0h-2.44a.24.24,0,0,1-.16,0,.16.16,0,0,1-.05-.11.17.17,0,0,1,.05-.12.24.24,0,0,1,.16,0h.75V166h-.68a.25.25,0,0,1-.16,0,.19.19,0,0,1,0-.12.15.15,0,0,1,0-.11.25.25,0,0,1,.16,0h.68v-.46a.91.91,0,0,1,.31-.68,1.28,1.28,0,0,1,.86-.29,6.39,6.39,0,0,1,.94.08.48.48,0,0,1,.22.07.13.13,0,0,1,.05.11.16.16,0,0,1-.05.11.14.14,0,0,1-.11,0H264a6.22,6.22,0,0,0-1-.09.9.9,0,0,0-.64.21.61.61,0,0,0-.22.45v.46h1.46a.2.2,0,0,1,.16,0,.14.14,0,0,1,.06.11.17.17,0,0,1-.06.12s-.08,0-.16,0Zm-3.45,1.33a2.31,2.31,0,0,0-.47-.08,4.12,4.12,0,0,0-.51,0,1.72,1.72,0,0,0-1.07.29.63.63,0,0,0-.29.52.6.6,0,0,0,.22.47,1,1,0,0,0,.65.19,1.86,1.86,0,0,0,.75-.15,2.81,2.81,0,0,0,.72-.52Zm0,1.55v-.45a2.24,2.24,0,0,1-1.45.57,1.31,1.31,0,0,1-.88-.28.93.93,0,0,1-.31-.69,1,1,0,0,1,.41-.78,1.86,1.86,0,0,1,1.21-.35,2.53,2.53,0,0,1,.46,0,4,4,0,0,1,.56.08v-.5a.54.54,0,0,0-.24-.44,1.11,1.11,0,0,0-.71-.2,3.75,3.75,0,0,0-1,.22l-.15,0a.14.14,0,0,1-.15-.15.13.13,0,0,1,0-.1,1.18,1.18,0,0,1,.42-.16,3.8,3.8,0,0,1,.88-.15,1.3,1.3,0,0,1,.9.29.85.85,0,0,1,.34.66v2h.42a.22.22,0,0,1,.16,0,.14.14,0,0,1,.06.12.14.14,0,0,1-.06.11.22.22,0,0,1-.16,0Zm-4.09-3.9v-.21a.21.21,0,0,1,0-.15.14.14,0,0,1,.12-.06.14.14,0,0,1,.11.06.21.21,0,0,1,0,.15v.86a.27.27,0,0,1,0,.17.17.17,0,0,1-.22,0,.33.33,0,0,1-.05-.15.71.71,0,0,0-.34-.55,1.55,1.55,0,0,0-1-.33,1.48,1.48,0,0,0-.68.16,1.25,1.25,0,0,0-.38.28,2.92,2.92,0,0,0-.38.64,1.54,1.54,0,0,0-.1.58V167a1.66,1.66,0,0,0,.49,1.2,1.63,1.63,0,0,0,1.18.51,1.36,1.36,0,0,0,.71-.18,2,2,0,0,0,.62-.52.19.19,0,0,1,.14-.08.13.13,0,0,1,.11.05.12.12,0,0,1,0,.1.45.45,0,0,1-.16.26,2.21,2.21,0,0,1-.68.51,1.91,1.91,0,0,1-.77.17,1.87,1.87,0,0,1-.69-.13,1.64,1.64,0,0,1-.44-.23,2.71,2.71,0,0,1-.43-.45,2.35,2.35,0,0,1-.35-.58,1.83,1.83,0,0,1-.08-.59v-.63a2,2,0,0,1,.23-.93,1.75,1.75,0,0,1,.68-.74,1.8,1.8,0,0,1,.93-.25A1.89,1.89,0,0,1,254.63,165Zm-9.07,2.31a1.43,1.43,0,0,0-1.42-1.41,1.39,1.39,0,0,0-1,.42,1.37,1.37,0,0,0-.41,1,1.38,1.38,0,0,0,.41,1,1.42,1.42,0,0,0,1,.41,1.37,1.37,0,0,0,1-.41A1.32,1.32,0,0,0,245.56,167.26Zm.32,0a1.63,1.63,0,0,1-.51,1.21,1.71,1.71,0,0,1-1.23.5,1.68,1.68,0,0,1-1.24-.51,1.64,1.64,0,0,1-.5-1.2,1.66,1.66,0,0,1,.5-1.21,1.75,1.75,0,0,1,2.47,0A1.62,1.62,0,0,1,245.88,167.26Zm-6.94-1.61h1.69a.19.19,0,0,1,.15,0,.14.14,0,0,1,.06.11.17.17,0,0,1-.06.12s-.08,0-.15,0h-1.69V168a.57.57,0,0,0,.21.45,1,1,0,0,0,.64.18,2.83,2.83,0,0,0,.68-.09,2.15,2.15,0,0,0,.57-.21.24.24,0,0,1,.13-.06.12.12,0,0,1,.1.06.12.12,0,0,1,0,.1.17.17,0,0,1,0,.11,1.67,1.67,0,0,1-.58.26,3.16,3.16,0,0,1-.88.14,1.33,1.33,0,0,1-.86-.25.83.83,0,0,1-.33-.69V166H238a.24.24,0,0,1-.16,0,.19.19,0,0,1,0-.12.15.15,0,0,1,0-.11.23.23,0,0,1,.16,0h.58v-.91a.21.21,0,0,1,0-.15.13.13,0,0,1,.11-.06.11.11,0,0,1,.11.06.21.21,0,0,1,.05.15Z" transform="translate(-179.61 -136.42)"/>
    <text class="cls-7" transform="translate(0 12.74)">Email<tspan x="0" y="9.5">to Lisa</tspan></text>
    <g>
      <path class="cls-8" d="M227,151.17c-8.67,0-13.33-4.84-24.5-4.84" transform="translate(-179.61 -136.42)"/>
      <polygon points="46.84 12.89 50.08 14.76 46.84 16.63 46.84 12.89"/>
    </g>
    <path class="cls-9" d="M293.71,232.78c5.53,2.52,10.08-2.09,14.71-2.93,1.14,1.28-.17,3.9.47,5.37,3.36,2.43,9.88,1.55,12.37,4.88-1.48,1.17-3.47-.73-6.07-1.46-4.49-1.26-9.4-.49-7.7-7.08-4,1.89-10.75,5.4-15.41,2.19a30.94,30.94,0,0,1-4.68,2.45,132.11,132.11,0,0,0-4.9,12.45c-3.24-1.17-3.35-5.62-7.23-6.11a11.55,11.55,0,0,0-1.17,3.67c.91.25,1.88-2.7,3.27-2,.12,1.87-2,3.43-3.74,4.15-1.93-1.22-.44-4,0-6.1a23.69,23.69,0,0,1-14.71,4.64c-2.22-.13-5.07-.68-6.78-2-4.22-3.17-3.1-11.48-.23-15.37,2.66-3.61,6.47-4.89,10.74-6.1,1.31-2.14,2-4.91,3-7.32,1.32-.1,1.67-.35,2.1-1.71,6.91-2.7,14.9-4.28,20.55-8.3-7.17,1.32-15,3.72-22.42,5.86-2.34.67-4.7,1.9-7,1.46.26-1.45,2.19-1.63,3.27-1.95,3.7-1.11,7.84-2.25,11.91-3.42,5.29-1.51,10.95-3.69,16.34-3.17.14,2.55-2.53,3.28-4.2,4.15-5.08,2.65-12,4.54-17.75,6.84.95,3.16,3.28,4.86,5.14,7.07a41.58,41.58,0,0,1,8.17,1c2.78-3.36,5.08-7.87,7.71-11.71.71-1,1.67-2.78,3-2.68-.44,2.84-2.82,4.89-4.44,7.32s-3,5.1-4.43,7.57c1.72,1.2,4.53,1.28,5.14,3.65-2.11.48-3.53-1.81-5.61-2.19-3,3.62-4.6,8.69-6.77,13.18,3.88-.74,6.74-2.57,10-3.91,1.32-3.05,3.16-5,3.5-9.27.63-7.66,5.3-12.15,9.81-16.11a13,13,0,0,1,1.4-2.93c.91-.21.84.6,1.4.74,4.75-3.44,13.55-5.77,21.48-5.13,1.44.12,4.71.52,4.68,2.44-.06,3.09-5,6.65-7.24,8.54C313.21,220.45,302,227.56,293.71,232.78Zm24.52-28.55c-6.41.54-14.14,2.59-17.52,6.59-2,2.37-3,5.91-4.66,9s-6,8.33-3.74,12c9.53-5.85,19.15-11.93,27.55-18.79,2.7-2.21,6-4.76,7.25-8.3C324.34,203.63,321.17,204,318.23,204.23Zm-26.39,20.5c1.42-3.65,4.19-7.18,5.14-10.5C294.82,217.11,292,220.6,291.84,224.73Zm-27.32-1.47c2.06-.44,4.8-.2,6.77-.73a37,37,0,0,1-4.43-5.61C266.26,219.23,265.23,221.08,264.52,223.26Zm-.46,1.47c-.93,1.68-1.29,3.87-1.87,6.1-.52,2-.65,4.74-2.34,5.61-.59-3.33,1.51-7.78,2.34-11.22-6.35,1.29-11.64,6.09-11.44,13.17.14,5.25,4.07,7.13,9.57,7.08,11.65-.1,20.17-10.53,12.37-21C270.39,224,267.07,224.57,264.06,224.73Zm13.31,8.78c1.24-2.76,2.61-5.39,4-8a48.1,48.1,0,0,0-6.78-1A24.86,24.86,0,0,1,277.37,233.51Zm11.44.24a9.6,9.6,0,0,0,2.1-1c-.16-.72-.07-1.72-.7-1.95C289.83,231.89,289.21,232.72,288.81,233.75ZM276,241.33c3.12.55,4.2,3.24,6.07,5.12a24.12,24.12,0,0,1,3.27-8.54c0-.3-.08-.58-.47-.5C282.39,239.25,278.58,239.66,276,241.33Z" transform="translate(-179.61 -136.42)"/>
  </g>
</svg>
