<svg xmlns="http://www.w3.org/2000/svg" xmlns:xlink="http://www.w3.org/1999/xlink" width="360.51" height="81.98" viewBox="0 0 360.51 81.98">
  <defs>
    <style>
      .cls-1, .cls-10, .cls-2, .cls-28, .cls-5 {
        fill: none;
      }

      .cls-10, .cls-2, .cls-28, .cls-29, .cls-3, .cls-31, .cls-32, .cls-33, .cls-34, .cls-36, .cls-5, .cls-6 {
        stroke: #000;
      }

      .cls-2, .cls-28, .cls-29, .cls-3, .cls-31, .cls-36 {
        stroke-width: 0.5px;
      }

      .cls-3 {
        fill: #cce1e9;
      }

      .cls-10, .cls-11, .cls-15, .cls-28, .cls-29, .cls-3, .cls-31, .cls-33, .cls-34, .cls-36, .cls-6 {
        stroke-linejoin: round;
      }

      .cls-4 {
        font-size: 7px;
      }

      .cls-14, .cls-4, .cls-42 {
        font-family: ArialMT, Arial;
      }

      .cls-5 {
        stroke-miterlimit: 10;
      }

      .cls-11, .cls-15, .cls-32, .cls-33, .cls-34, .cls-5 {
        stroke-width: 0.3px;
      }

      .cls-7 {
        fill: #d9d9d9;
      }

      .cls-37, .cls-8 {
        fill: #fff;
      }

      .cls-9 {
        fill: #b3b3b3;
      }

      .cls-11 {
        fill: #a10000;
        stroke: #a10000;
      }

      .cls-12 {
        fill: url(#linear-gradient);
      }

      .cls-13 {
        fill: url(#linear-gradient-2);
      }

      .cls-14 {
        font-size: 9.29px;
      }

      .cls-15 {
        fill: #267520;
        stroke: #267520;
      }

      .cls-16 {
        fill: url(#linear-gradient-3);
      }

      .cls-17 {
        fill: url(#linear-gradient-4);
      }

      .cls-18, .cls-19 {
        font-size: 9px;
        font-weight: 700;
      }

      .cls-18, .cls-22, .cls-23 {
        font-family: Arial-BoldMT, Arial;
      }

      .cls-19 {
        font-family: Humanist521BT-BoldCondensed, Humanst521 Cn BT;
      }

      .cls-20 {
        letter-spacing: 0.06em;
      }

      .cls-21 {
        letter-spacing: -0.06em;
      }

      .cls-22, .cls-23 {
        font-size: 8.5px;
      }

      .cls-22 {
        letter-spacing: -0.06em;
      }

      .cls-23 {
        letter-spacing: -0.08em;
      }

      .cls-24 {
        letter-spacing: 0em;
      }

      .cls-25 {
        fill: #7f8587;
      }

      .cls-26 {
        fill: url(#linear-gradient-5);
      }

      .cls-27 {
        fill: url(#linear-gradient-6);
      }

      .cls-29 {
        fill: #7cb2c9;
      }

      .cls-30 {
        fill: #c4dbe5;
      }

      .cls-32 {
        fill: #fda452;
      }

      .cls-33 {
        fill: #ca0127;
      }

      .cls-34 {
        fill: #fb2b34;
      }

      .cls-35 {
        clip-path: url(#clip-path);
      }

      .cls-36 {
        fill: #dbdbdb;
      }

      .cls-37, .cls-38, .cls-39, .cls-40, .cls-41 {
        fill-rule: evenodd;
      }

      .cls-38 {
        fill: #fbafc5;
      }

      .cls-39 {
        fill: #fda655;
      }

      .cls-41 {
        fill: #96c749;
      }

      .cls-42 {
        font-size: 6.18px;
      }

      .cls-43 {
        fill: url(#linear-gradient-7);
      }

      .cls-44 {
        fill: url(#linear-gradient-8);
      }

      .cls-45 {
        clip-path: url(#clip-path-2);
      }
    </style>
    <linearGradient id="linear-gradient" x1="135.99" y1="177.53" x2="188.4" y2="177.53" gradientUnits="userSpaceOnUse">
      <stop offset="0" stop-color="#ff0001"/>
      <stop offset="0.08" stop-color="#ff1b17"/>
      <stop offset="0.25" stop-color="#fe4f41"/>
      <stop offset="0.42" stop-color="#fe7b64"/>
      <stop offset="0.59" stop-color="#fd9d80"/>
      <stop offset="0.74" stop-color="#fdb593"/>
      <stop offset="0.88" stop-color="#fdc49f"/>
      <stop offset="1" stop-color="#fdc9a3"/>
    </linearGradient>
    <linearGradient id="linear-gradient-2" x1="136.93" y1="177.53" x2="186.94" y2="177.53" gradientUnits="userSpaceOnUse">
      <stop offset="0" stop-color="#fdc9a3"/>
      <stop offset="1" stop-color="#ff0001"/>
    </linearGradient>
    <linearGradient id="linear-gradient-3" x1="264.34" y1="177.53" x2="316.76" y2="177.53" gradientUnits="userSpaceOnUse">
      <stop offset="0" stop-color="#5fb749"/>
      <stop offset="1" stop-color="#dbf1c6"/>
    </linearGradient>
    <linearGradient id="linear-gradient-4" x1="265.28" y1="177.53" x2="315.29" y2="177.53" gradientUnits="userSpaceOnUse">
      <stop offset="0" stop-color="#dbf1c6"/>
      <stop offset="1" stop-color="#5fb749"/>
    </linearGradient>
    <linearGradient id="linear-gradient-5" x1="233.83" y1="56.69" x2="233.83" y2="80.45" gradientUnits="userSpaceOnUse">
      <stop offset="0" stop-color="#797d7e"/>
      <stop offset="0.06" stop-color="#979a9b"/>
      <stop offset="0.15" stop-color="#bcbebf"/>
      <stop offset="0.24" stop-color="#d9dbdb"/>
      <stop offset="0.33" stop-color="#eeefef"/>
      <stop offset="0.42" stop-color="#fbfbfb"/>
      <stop offset="0.5" stop-color="#fff"/>
    </linearGradient>
    <linearGradient id="linear-gradient-6" x1="233.75" y1="70.05" x2="233.75" y2="80.45" gradientUnits="userSpaceOnUse">
      <stop offset="0" stop-color="#eef0f0"/>
      <stop offset="1" stop-color="#cccfd0"/>
    </linearGradient>
    <clipPath id="clip-path">
      <rect transform="translate(-121.94 -109.88)" class="cls-1" x="338.19" y="135.46" width="35.01" height="21.33"/>
    </clipPath>
    <linearGradient id="linear-gradient-7" x1="294.37" y1="56.69" x2="294.37" y2="80.45" xlink:href="#linear-gradient-5"/>
    <linearGradient id="linear-gradient-8" x1="294.28" y1="70.05" x2="294.28" y2="80.45" xlink:href="#linear-gradient-6"/>
    <clipPath id="clip-path-2">
      <rect transform="translate(-121.94 -109.88)" class="cls-1" x="398.73" y="135.46" width="35.01" height="21.33"/>
    </clipPath>
  </defs>
  <g id="Layer_2" data-name="Layer 2">
    <path d="M203.06,176.45c-.95-.29-1.57-.55-2.34-.85v2.9a22.43,22.43,0,0,1,2.33-.87,17.55,17.55,0,0,1,2.54-.6A16.76,16.76,0,0,1,203.06,176.45Z" transform="translate(-121.94 -109.88)"/>
    <line class="cls-2" x1="79.41" y1="67.17" x2="66.49" y2="67.17"/>
    <path d="M261.46,176.45c-.95-.29-1.57-.55-2.34-.85v2.9a23.39,23.39,0,0,1,2.33-.87A17.55,17.55,0,0,1,264,177,16.76,16.76,0,0,1,261.46,176.45Z" transform="translate(-121.94 -109.88)"/>
    <line class="cls-2" x1="137.81" y1="67.17" x2="126.93" y2="67.17"/>
    <path d="M331.82,176.45c-.95-.29-1.57-.55-2.33-.85v2.9a22.43,22.43,0,0,1,2.33-.87,17.47,17.47,0,0,1,2.53-.6A17,17,0,0,1,331.82,176.45Z" transform="translate(-121.94 -109.88)"/>
    <line class="cls-2" x1="208.18" y1="67.17" x2="194.86" y2="67.17"/>
    <path d="M392.46,176.45c-1-.29-1.57-.55-2.34-.85v2.9a22.43,22.43,0,0,1,2.33-.87A17.55,17.55,0,0,1,395,177,16.76,16.76,0,0,1,392.46,176.45Z" transform="translate(-121.94 -109.88)"/>
    <line class="cls-2" x1="268.81" y1="67.17" x2="254.88" y2="67.17"/>
    <path d="M450.24,176.45c-.95-.29-1.57-.55-2.33-.85v2.9a22.94,22.94,0,0,1,2.32-.87,17.55,17.55,0,0,1,2.54-.6A17,17,0,0,1,450.24,176.45Z" transform="translate(-121.94 -109.88)"/>
    <line class="cls-2" x1="326.59" y1="67.17" x2="315.53" y2="67.17"/>
    <rect class="cls-3" x="83.98" y="54.31" width="42.95" height="25.69"/>
    <text class="cls-4" transform="translate(89.51 65.24)">Public key<tspan x="0.78" y="9">derivation</tspan></text>
    <g>
      <path class="cls-5" d="M227.11,159.12c0-9.42-3-10.41-3-18.89" transform="translate(-121.94 -109.88)"/>
      <polygon points="107.02 48.7 105.15 51.94 103.28 48.7 107.02 48.7"/>
    </g>
    <g>
      <path class="cls-5" d="M444.5,159.5c13.62-9.12,14.18-23.38,14.75-30.38" transform="translate(-121.94 -109.88)"/>
      <polygon points="324.05 50.87 320.31 51.11 321.96 47.76 324.05 50.87"/>
    </g>
    <g>
      <path class="cls-6" d="M146.44,155.44l-4.2-5.84a2.17,2.17,0,0,0-1.72-.81l-7.43.53a2.13,2.13,0,0,0-1.57,1.06l-3.38,6.78a2,2,0,0,0,.15,1.86l2.28,3.18a2.08,2.08,0,0,0-1.18.3l-6.12,4.23a2.08,2.08,0,0,0-.82,1.71L123,176a2,2,0,0,0,1.07,1.53l6.58,2.89a2.19,2.19,0,0,0,1.9-.19l6.12-4.22a2.14,2.14,0,0,0,.82-1.71l-.54-7.56a2.26,2.26,0,0,0-.82-1.36l3.51-.24a2.13,2.13,0,0,0,1.58-1.06l3.38-6.78A2,2,0,0,0,146.44,155.44Z" transform="translate(-121.94 -109.88)"/>
      <g>
        <g>
          <path class="cls-7" d="M133.61,164.77a.61.61,0,0,1-1.13.09L128.29,159a2,2,0,0,1-.15-1.86l3.38-6.78a.6.6,0,0,1,1.12-.1l4.2,5.84A2,2,0,0,1,137,158Z" transform="translate(-121.94 -109.88)"/>
          <path class="cls-5" d="M133.61,164.77a.61.61,0,0,1-1.13.09L128.29,159a2,2,0,0,1-.15-1.86l3.38-6.78a.6.6,0,0,1,1.12-.1l4.2,5.84A2,2,0,0,1,137,158Z" transform="translate(-121.94 -109.88)"/>
        </g>
        <g>
          <path class="cls-8" d="M138.57,156.93a2.19,2.19,0,0,1-1.73-.81l-4.2-5.83c-.35-.49-.15-.93.45-1l7.43-.53a2.17,2.17,0,0,1,1.72.81l4.2,5.84c.35.48.14.92-.46,1Z" transform="translate(-121.94 -109.88)"/>
          <path class="cls-5" d="M138.57,156.93a2.19,2.19,0,0,1-1.73-.81l-4.2-5.83c-.35-.49-.15-.93.45-1l7.43-.53a2.17,2.17,0,0,1,1.72.81l4.2,5.84c.35.48.14.92-.46,1Z" transform="translate(-121.94 -109.88)"/>
        </g>
        <g>
          <path class="cls-9" d="M143.21,164.08a2.13,2.13,0,0,1-1.58,1.06l-7.42.52c-.59,0-.87-.36-.6-.9L137,158a2.14,2.14,0,0,1,1.58-1.05l7.41-.52c.6,0,.87.36.61.9Z" transform="translate(-121.94 -109.88)"/>
          <path class="cls-5" d="M143.21,164.08a2.13,2.13,0,0,1-1.58,1.06l-7.42.52c-.59,0-.87-.36-.6-.9L137,158a2.14,2.14,0,0,1,1.58-1.05l7.41-.52c.6,0,.87.36.61.9Z" transform="translate(-121.94 -109.88)"/>
        </g>
        <path d="M137.56,159.55c-.27-.36-.05-1,.51-1.42s1.23-.47,1.51-.1,0,1-.51,1.43S137.84,159.92,137.56,159.55Z" transform="translate(-121.94 -109.88)"/>
        <path d="M132.48,158.93c-.46,0-.85-.53-.87-1.23s.33-1.27.78-1.29.85.53.88,1.23S132.94,158.92,132.48,158.93Z" transform="translate(-121.94 -109.88)"/>
        <path d="M139.38,155.77c-.16.43-.82.58-1.47.33s-1.06-.79-.9-1.22.83-.58,1.48-.33S139.54,155.34,139.38,155.77Z" transform="translate(-121.94 -109.88)"/>
        <path d="M145,155.37c-.16.43-.82.58-1.47.34s-1.06-.79-.9-1.22.82-.58,1.48-.34S145.11,154.94,145,155.37Z" transform="translate(-121.94 -109.88)"/>
        <path d="M136.25,151.1c-.16.43-.82.58-1.47.33s-1.06-.79-.9-1.22.83-.58,1.48-.33S136.41,150.67,136.25,151.1Z" transform="translate(-121.94 -109.88)"/>
        <path d="M141.82,150.7c-.16.43-.82.58-1.48.34s-1.05-.8-.89-1.22.82-.58,1.48-.34S142,150.27,141.82,150.7Z" transform="translate(-121.94 -109.88)"/>
        <path d="M139.1,161.94c-.27-.36,0-1,.51-1.42s1.23-.47,1.51-.1,0,1-.51,1.42S139.38,162.31,139.1,161.94Z" transform="translate(-121.94 -109.88)"/>
        <path d="M140.74,164.32c-.27-.36-.05-1,.51-1.42s1.23-.47,1.51-.1.05,1-.5,1.42S141,164.69,140.74,164.32Z" transform="translate(-121.94 -109.88)"/>
        <path d="M135.09,164.73c-.28-.37-.05-1,.51-1.43s1.23-.46,1.51-.1,0,1-.51,1.43S135.37,165.09,135.09,164.73Z" transform="translate(-121.94 -109.88)"/>
        <path d="M143.32,159.14c-.28-.36,0-1,.51-1.42s1.23-.47,1.5-.1,0,1-.5,1.42S143.59,159.51,143.32,159.14Z" transform="translate(-121.94 -109.88)"/>
        <g>
          <path class="cls-7" d="M131.56,179.77c.05.6-.37.89-.92.65l-6.58-2.89A2,2,0,0,1,123,176l-.54-7.56c0-.6.37-.89.92-.65l6.58,2.89a2,2,0,0,1,1.07,1.53Z" transform="translate(-121.94 -109.88)"/>
          <path class="cls-5" d="M131.56,179.77c.05.6-.37.89-.92.65l-6.58-2.89A2,2,0,0,1,123,176l-.54-7.56c0-.6.37-.89.92-.65l6.58,2.89a2,2,0,0,1,1.07,1.53Z" transform="translate(-121.94 -109.88)"/>
        </g>
        <g>
          <path class="cls-8" d="M131.84,170.5a2.17,2.17,0,0,1-1.89.18l-6.58-2.89c-.55-.24-.6-.72-.1-1.06l6.12-4.23a2.19,2.19,0,0,1,1.9-.18l6.57,2.89c.55.24.6.72.11,1.06Z" transform="translate(-121.94 -109.88)"/>
          <path class="cls-5" d="M131.84,170.5a2.17,2.17,0,0,1-1.89.18l-6.58-2.89c-.55-.24-.6-.72-.1-1.06l6.12-4.23a2.19,2.19,0,0,1,1.9-.18l6.57,2.89c.55.24.6.72.11,1.06Z" transform="translate(-121.94 -109.88)"/>
        </g>
        <g>
          <path class="cls-9" d="M139.48,174.3a2.14,2.14,0,0,1-.82,1.71l-6.12,4.22c-.49.34-.94.13-1-.47L131,172.2a2.14,2.14,0,0,1,.82-1.71l6.13-4.22c.49-.34.93-.13,1,.47Z" transform="translate(-121.94 -109.88)"/>
          <path class="cls-5" d="M139.48,174.3a2.14,2.14,0,0,1-.82,1.71l-6.12,4.22c-.49.34-.94.13-1-.47L131,172.2a2.14,2.14,0,0,1,.82-1.71l6.13-4.22c.49-.34.93-.13,1,.47Z" transform="translate(-121.94 -109.88)"/>
        </g>
        <path d="M131.86,166.19c0,.46-.5.87-1.2.92s-1.29-.28-1.32-.74.5-.87,1.2-.92S131.83,165.73,131.86,166.19Z" transform="translate(-121.94 -109.88)"/>
        <path d="M125,170.91c-.39.26-1,0-1.39-.59s-.38-1.26,0-1.52,1,0,1.39.6S125.34,170.66,125,170.91Z" transform="translate(-121.94 -109.88)"/>
        <path d="M130.49,179.1c-.38.25-1,0-1.39-.6s-.38-1.26,0-1.51,1,0,1.39.6S130.88,178.85,130.49,179.1Z" transform="translate(-121.94 -109.88)"/>
        <path d="M132.69,178.78c-.4-.23-.44-.9-.09-1.51s.94-.91,1.34-.68.44.9.1,1.5S133.09,179,132.69,178.78Z" transform="translate(-121.94 -109.88)"/>
        <path d="M134.8,174.28c-.4-.23-.44-.9-.1-1.51s1-.91,1.35-.68.44.9.1,1.51S135.19,174.51,134.8,174.28Z" transform="translate(-121.94 -109.88)"/>
        <path d="M137.08,169.8c-.4-.22-.44-.9-.09-1.5s.95-.92,1.35-.69.43.91.09,1.51S137.48,170,137.08,169.8Z" transform="translate(-121.94 -109.88)"/>
      </g>
    </g>
    <g>
      <path class="cls-10" d="M184.2,173.35H158.51A11.67,11.67,0,0,0,136,177.53c0,.13,0,.26,0,.4s0,.26,0,.4a11.68,11.68,0,0,0,22.11,5.09h2.14a2.73,2.73,0,0,1,5.25,0h2.36a2.73,2.73,0,0,1,5.25,0h2.36a2.73,2.73,0,0,1,5.25,0h1.64l6.05-6.94v-.8Z" transform="translate(-121.94 -109.88)"/>
      <path class="cls-11" d="M188.4,175.68l-29.89-1.53a11.54,11.54,0,1,0-.41,9.27h2.14a2.73,2.73,0,0,1,5.25,0h2.36a2.73,2.73,0,0,1,5.25,0h2.36a2.73,2.73,0,0,1,5.25,0h1.64l6.05-6.94Z" transform="translate(-121.94 -109.88)"/>
      <path class="cls-12" d="M184.2,173.35H158.51a11.54,11.54,0,1,0-.41,9.27h2.14a2.73,2.73,0,0,1,5.25,0h2.36a2.73,2.73,0,0,1,5.25,0h2.36a2.73,2.73,0,0,1,5.25,0h1.64l6.05-6.94Z" transform="translate(-121.94 -109.88)"/>
      <path class="cls-13" d="M147.65,188.13a10.6,10.6,0,1,1,10-14.43l.23.59H184l3,1.65-5,5.74h-.53a3.78,3.78,0,0,0-6.63,0h-1a3.78,3.78,0,0,0-6.63,0h-1a3.78,3.78,0,0,0-6.63,0h-2l-.26.52A10.65,10.65,0,0,1,147.65,188.13Z" transform="translate(-121.94 -109.88)"/>
      <path class="cls-8" d="M156.86,177.53a9.21,9.21,0,1,1-9.21-9.21A9.21,9.21,0,0,1,156.86,177.53Z" transform="translate(-121.94 -109.88)"/>
      <text class="cls-14" transform="translate(17.63 71.18)">Priv</text>
    </g>
    <g>
      <path class="cls-10" d="M312.55,173.35H286.86a11.67,11.67,0,0,0-22.52,4.18c0,.13,0,.26,0,.4s0,.26,0,.4a11.68,11.68,0,0,0,22.11,5.09h2.14a2.73,2.73,0,0,1,5.25,0h2.36a2.73,2.73,0,0,1,5.25,0h2.36a2.73,2.73,0,0,1,5.25,0h1.64l6.06-6.94v-.8Z" transform="translate(-121.94 -109.88)"/>
      <path class="cls-15" d="M316.76,175.68l-29.9-1.53a11.54,11.54,0,1,0-.41,9.27h2.14a2.73,2.73,0,0,1,5.25,0h2.36a2.73,2.73,0,0,1,5.25,0h2.36a2.73,2.73,0,0,1,5.25,0h1.64l6.06-6.94Z" transform="translate(-121.94 -109.88)"/>
      <path class="cls-16" d="M312.55,173.35H286.86a11.54,11.54,0,1,0-.41,9.27h2.14a2.73,2.73,0,0,1,5.25,0h2.36a2.73,2.73,0,0,1,5.25,0h2.36a2.73,2.73,0,0,1,5.25,0h1.64l6.06-6.94Z" transform="translate(-121.94 -109.88)"/>
      <path class="cls-17" d="M276,188.13a10.6,10.6,0,1,1,10-14.43l.23.59H312.3l3,1.65-5,5.74h-.53a3.78,3.78,0,0,0-6.63,0h-1a3.77,3.77,0,0,0-6.62,0h-1a3.78,3.78,0,0,0-6.63,0h-2l-.26.52A10.65,10.65,0,0,1,276,188.13Z" transform="translate(-121.94 -109.88)"/>
      <path class="cls-8" d="M285.21,177.53a9.21,9.21,0,1,1-9.21-9.21A9.21,9.21,0,0,1,285.21,177.53Z" transform="translate(-121.94 -109.88)"/>
      <text class="cls-14" transform="translate(145.72 71.18)">Pub</text>
    </g>
    <text class="cls-18" transform="translate(336.16 70.59)">PKH</text>
    <path class="cls-2" d="M482,177c0,4.25-6.5,7.7-14.53,7.7S453,181.28,453,177s6.5-7.69,14.52-7.69S482,172.78,482,177Z" transform="translate(-121.94 -109.88)"/>
    <text class="cls-19" transform="translate(310.66 7.57)">Or <tspan class="cls-20" x="10.97" y="0">f</tspan><tspan x="13.82" y="0">law here</tspan><tspan x="0" y="9.5">(exercise 3</tspan><tspan class="cls-21" x="37.1" y="9.5">.</tspan><tspan class="cls-22" x="38.75" y="9.5">1</tspan><tspan class="cls-23" x="42.97" y="9.5">1</tspan><tspan class="cls-24" x="47.02" y="9.5">)</tspan></text>
    <text class="cls-19" transform="translate(77.77 18.72)">Flaw here<tspan x="0" y="9.5">(exercise 3</tspan><tspan class="cls-21" x="37.1" y="9.5">.</tspan><tspan class="cls-23" x="38.75" y="9.5">1</tspan><tspan class="cls-24" x="42.8" y="9.5">0)</tspan></text>
    <g>
      <g>
        <path class="cls-25" d="M377.41,167a1.28,1.28,0,0,0-1.28-1.36H335.25A1.27,1.27,0,0,0,334,167l1.28,23.3a1.46,1.46,0,0,0,1.43,1.36h38a1.47,1.47,0,0,0,1.43-1.36Z" transform="translate(-121.94 -109.88)"/>
        <polygon class="cls-26" points="214.63 80.44 213.28 56.69 254.39 56.69 252.86 80.44 214.63 80.44"/>
        <polygon class="cls-27" points="214.78 80.44 217.26 70.05 250.41 70.05 252.72 80.44 214.78 80.44"/>
        <path class="cls-28" d="M377.41,165.25a1.27,1.27,0,0,0-1.28-1.35H335.25a1.27,1.27,0,0,0-1.28,1.35l1.28,25a1.46,1.46,0,0,0,1.43,1.36h38a1.47,1.47,0,0,0,1.43-1.36Z" transform="translate(-121.94 -109.88)"/>
      </g>
      <polygon class="cls-29" points="210.33 51.99 210.94 55.72 256.55 55.72 257.16 51.99 210.33 51.99"/>
      <g>
        <path class="cls-30" d="M375.27,151.78a1.59,1.59,0,0,0-1.37-.93H337.48a1.59,1.59,0,0,0-1.37.93l-3.92,9.83a.63.63,0,0,0,.63.93h45.73a.63.63,0,0,0,.63-.93Z" transform="translate(-121.94 -109.88)"/>
        <path class="cls-28" d="M375.27,151.78a1.59,1.59,0,0,0-1.37-.93H337.48a1.59,1.59,0,0,0-1.37.93l-3.92,9.83a.63.63,0,0,0,.63.93h45.73a.63.63,0,0,0,.63-.93Z" transform="translate(-121.94 -109.88)"/>
      </g>
      <polygon class="cls-31" points="216.14 46.06 215.54 47.58 251.95 47.58 251.35 46.06 216.14 46.06"/>
      <g>
        <path class="cls-32" d="M353.18,180.77l1.93,1.81c1.63-1.89,2.39-7.77,2.39-16h-3.45C354.05,175,354,179.77,353.18,180.77Z" transform="translate(-121.94 -109.88)"/>
        <path class="cls-32" d="M348.07,180.48l1.25,2.38c3.49-2,4.4-9,4.4-16.29h-3.45C350.27,169.66,350.69,179,348.07,180.48Z" transform="translate(-121.94 -109.88)"/>
        <path class="cls-32" d="M342.89,180.4l.89,2.55c5.81-2.22,6.24-11.77,6.24-16.38h-3.45C346.57,170.26,347,178.83,342.89,180.4Z" transform="translate(-121.94 -109.88)"/>
        <path class="cls-32" d="M337.67,180.37l.69,2.61c7.56-2.16,8-12.13,8-16.41h-3.45C342.91,170.54,343.33,178.75,337.67,180.37Z" transform="translate(-121.94 -109.88)"/>
        <path class="cls-32" d="M363.33,180.48l-1.25,2.38c-3.49-2-4.4-9-4.4-16.29h3.45C361.13,169.66,360.71,179,363.33,180.48Z" transform="translate(-121.94 -109.88)"/>
        <path class="cls-32" d="M368.51,180.4l-.89,2.55c-5.81-2.22-6.24-11.77-6.24-16.38h3.45C364.83,170.26,364.41,178.83,368.51,180.4Z" transform="translate(-121.94 -109.88)"/>
        <path class="cls-32" d="M373.73,180.37,373,183c-7.56-2.16-8-12.13-8-16.41h3.45C368.49,170.54,368.07,178.75,373.73,180.37Z" transform="translate(-121.94 -109.88)"/>
      </g>
      <path class="cls-33" d="M357.47,159.91c0,.55-.8,1-1.78,1s-1.78-.45-1.78-1,.8-1,1.78-1S357.47,159.37,357.47,159.91Z" transform="translate(-121.94 -109.88)"/>
      <path class="cls-34" d="M357.47,159.44c0,.54-.8,1-1.78,1s-1.78-.45-1.78-1,.8-1,1.78-1S357.47,158.89,357.47,159.44Z" transform="translate(-121.94 -109.88)"/>
      <g class="cls-35">
        <rect class="cls-36" x="217.06" y="28.49" width="33.37" height="36.85"/>
        <rect class="cls-8" x="218.63" y="30.06" width="30.23" height="33.71"/>
        <g>
          <path class="cls-37" d="M345.42,139.94H367a46.89,46.89,0,0,0-5.58.78,35.7,35.7,0,0,0-10.27,0C349.39,140.29,347.31,140.21,345.42,139.94Z" transform="translate(-121.94 -109.88)"/>
          <path class="cls-38" d="M343.08,140.61c1.89-.22,3.28,1,4.35,2a4,4,0,0,0-.67,1.78c.07.34.24-.1.45,0-.19.18,0,.7-.45.67A7.72,7.72,0,0,0,343.08,140.61Z" transform="translate(-121.94 -109.88)"/>
          <path class="cls-39" d="M344.87,140.61c1.63-.29,3.38.26,5,.33-.57.51-2.1.66-2,1.46C347.1,142,346.27,140.73,344.87,140.61Z" transform="translate(-121.94 -109.88)"/>
          <path class="cls-40" d="M356.69,143.4c0,.73-.27,2.12.11,3A3.37,3.37,0,0,1,356.69,143.4Z" transform="translate(-121.94 -109.88)"/>
          <path class="cls-40" d="M355.13,148.42c-.28.11-1,0-1.12-.22-.92,1.74-4.49,1.76-4.91-.45-.45,0-.77.19-1.22.23C349.5,146.37,353.72,147.17,355.13,148.42Zm-1.78-.44c-.65.44-1.55,1.14-2.57.55-.3-.22-.24-.8-.67-.89h-.45C349.63,149.55,353.05,149.71,353.35,148Z" transform="translate(-121.94 -109.88)"/>
          <path class="cls-40" d="M364.5,147.86c-.32.32-.78-.17-1.22-.11-.45,2.1-4,2.3-4.91.45,0,.29-.58.12-1.12.33C358.51,147,362.69,146.54,364.5,147.86Zm-2.45-.22a1.46,1.46,0,0,1-1.23,1.12c-.85.09-1.22-.61-1.89-.78.43,1.65,3.58,1.56,3.79-.23C362.59,147.62,362.33,147.63,362.05,147.64Z" transform="translate(-121.94 -109.88)"/>
          <path class="cls-41" d="M349.66,147.64h.45c.43.09.37.67.67.89,1,.59,1.92-.11,2.57-.55C353.05,149.71,349.63,149.55,349.66,147.64Z" transform="translate(-121.94 -109.88)"/>
          <path class="cls-41" d="M362.72,147.75c-.21,1.79-3.36,1.88-3.79.23.67.17,1,.87,1.89.78a1.46,1.46,0,0,0,1.23-1.12C362.33,147.63,362.59,147.62,362.72,147.75Z" transform="translate(-121.94 -109.88)"/>
          <path class="cls-40" d="M357.25,149.54c.36.69-.83.5-1,1,1.14.31,2.4.5,2.79,1.56-1.31-1.31-4.48-1.24-5.81,0,.44-1,1.67-1.23,2.79-1.56-.12-.43-.8-.31-1-.67v-.33A4.55,4.55,0,0,1,357.25,149.54Zm-1.23.56c.19-.6-.38-.44-.78-.45C355.3,150,355.75,150,356,150.1Zm.23,0a1.08,1.08,0,0,0,.89-.45h-.89Z" transform="translate(-121.94 -109.88)"/>
          <path class="cls-38" d="M355.24,149.65c.4,0,1-.15.78.45C355.75,150,355.3,150,355.24,149.65Z" transform="translate(-121.94 -109.88)"/>
          <path class="cls-38" d="M356.25,149.65h.89a1.08,1.08,0,0,1-.89.45Z" transform="translate(-121.94 -109.88)"/>
          <path class="cls-40" d="M351,150.32c.15-.26.78,0,1.12-.11C352,150.46,351.34,150.25,351,150.32Z" transform="translate(-121.94 -109.88)"/>
          <path class="cls-40" d="M360.27,150.32c.22-.26.92,0,1.34-.11C361.38,150.46,360.68,150.25,360.27,150.32Z" transform="translate(-121.94 -109.88)"/>
          <path class="cls-40" d="M354,150.43a10.27,10.27,0,0,1-2.9.89A5.78,5.78,0,0,1,354,150.43Z" transform="translate(-121.94 -109.88)"/>
          <path class="cls-40" d="M357.47,155a8.79,8.79,0,0,1-2.34.11c-.72-.1,1.09-.06,1.56-.22S357.09,155.1,357.47,155Z" transform="translate(-121.94 -109.88)"/>
          <path class="cls-39" d="M352,165.61a4.29,4.29,0,0,0-1.34,2.57C349.58,167.71,350.67,165.34,352,165.61Z" transform="translate(-121.94 -109.88)"/>
          <path class="cls-39" d="M360.38,165.72c0-.11.13-.09.22-.11a1.77,1.77,0,0,1,.89.33c.52.46.95,1.86.23,2.24C361.36,167.65,361.28,166.06,360.38,165.72Z" transform="translate(-121.94 -109.88)"/>
          <path class="cls-39" d="M367.86,166.06c.46-.34,1.21,1,.44,1.22C368.07,167,368.22,166.25,367.86,166.06Z" transform="translate(-121.94 -109.88)"/>
          <path class="cls-37" d="M343.08,139.94c-.24.21-.82.07-1,.33,1.83,1.39,4.37,3,4.47,5.81,0,1.42-.79,2.77-.56,4.57,0,.48.47-.07.56.23a2,2,0,0,0,.78,1.9c.23.05.21-.16.22-.34a15.8,15.8,0,0,1,1.56,1.12c0,2.42-1.25,3.58-1.67,5.58-3.07-1.51-5.53,1.93-3.8,4.57-.77,1-1.91,1.66-2.45,2.9.29.07.95-.45,1.34-.67-.16.82-1.06,2.86-.23,4,.32-.06.21-.53.34-.78.39,1,.73,2.1,1.68,2.57.26-.1,0-.58-.12-.67,1.15.82,2.42,2.5,4.8,2.45.1-.21-.55-.63-.89-.78,1.31.09,3.3,1.2,5,.56a1.73,1.73,0,0,0-.89-.33,13.84,13.84,0,0,0,7.37-2c-.09-.25-.63-.05-.9-.11.7-.23,1.47-.39,2.12-.67a32.89,32.89,0,0,0-4.13-.79c0-.15.28-.09.45-.11-.2-.43-.86-.4-1.45-.44a2.06,2.06,0,0,0,.44-1.46,3.14,3.14,0,0,1,.23,1.12c1.61,1.12,4.35,0,6-.22,2.38-.34,6.79.69,6.8-1.56,0-.83-.77-1.19-1.56-1.45.55-1,1.66-2,1.68-3.58a2.94,2.94,0,0,0-4.36-2.56c-.47-1.95-1.71-3.12-1.67-5.58.48-.33,1.28-1.4,1.67-.78a2.15,2.15,0,0,0,.9-2c.2-.11.37.33.44,0,.47-1.78-.6-3.22-.56-4.69.1-2.78,2.76-4.3,4.47-5.81-.12-.25-.51-.23-.89-.22v-.11h1v33.71H341.07V139.94Z" transform="translate(-121.94 -109.88)"/>
          <path class="cls-39" d="M362.5,141.06a22.31,22.31,0,0,1,4.91-.56,6.06,6.06,0,0,0-2.79,2C364.56,141.78,363.33,141.37,362.5,141.06Z" transform="translate(-121.94 -109.88)"/>
          <path class="cls-38" d="M365.07,144.4c.06-.32.17.18.33.12.35-.55-.17-1.29-.45-1.9a6.11,6.11,0,0,1,4.24-2.12,9.09,9.09,0,0,0-3.68,4.69C365.29,145,365.33,144.54,365.07,144.4Z" transform="translate(-121.94 -109.88)"/>
          <path class="cls-39" d="M363.5,142.06a15.14,15.14,0,0,1,1.34,1c0,.22-.32,0-.34-.12-.25.23.52.37.45.78-.23,0-.22-.3-.45-.33a22.88,22.88,0,0,1,1.46,6.92c-.66.17-.32,1.32-.67,1.78-.28-.1.15-.42,0-.78-.47.54-.82,1.2-1.56,1.46.18-.3.47-.5.67-.79a14.71,14.71,0,0,1-7.26,2.68,10,10,0,0,0,5.69-1.23c0,3.65,3.48,8,.56,11.28.08.24.37-.21.45-.34.35.18-.23.36-.23.56a5.55,5.55,0,0,0,1.46-5.47c3.79-1.5,4.41,3.67,2.23,5.25-.52.05-.72-.22-1.12,0,.11.18.48.12.67.22-.23.26-.93,0-1.34.11,1.3.3,2.64.56,2.35,2.46a4.16,4.16,0,0,1-1.24.22c-.09-1.17-.33-2.2-1.44-2.34a2.06,2.06,0,0,1,1.11,2.45c-1.19.14-2.69.21-3.68.22.14-1.84-.66-2.76-2.12-3-.08-.92-.29-1.71-.34-2.68.37-.67,1.07-1,1-2.12a5.49,5.49,0,0,1-.89,1.34c-.16,0-.1-.28-.12-.44a7,7,0,0,0-.22,4,3.39,3.39,0,0,0-1.45,1.12c.55-.12.92-.42,1.45-.56a3,3,0,0,1,1.23,2.46,1.23,1.23,0,0,1-1,.33,2.23,2.23,0,0,0-1-2.23,2.23,2.23,0,0,1,.45,2.12,5.38,5.38,0,0,1-2.8-.11c-.31-2.37-.26-5.09-.78-7.26a68,68,0,0,1-.55,7.37,8.43,8.43,0,0,1-2.79,0,2.35,2.35,0,0,1,.44-2,2,2,0,0,0-.89,2.12c-.51.1-.64-.18-1-.22,0-1.24.36-2.17,1.23-2.57a6.3,6.3,0,0,1,1.23.56c0-.38-.77-.94-1.34-1.12a7.52,7.52,0,0,0-.11-4.13c-.24,0-.05.4-.11.56-.3-.41-.76-.66-.78-1.34a1.82,1.82,0,0,0,.89,2,19.36,19.36,0,0,1-.45,2.79,2.4,2.4,0,0,0-2,3,14.87,14.87,0,0,1-3.79-.33c0-1.19.21-2.1,1.23-2.23-1-.25-1.46,1.07-1.45,2.23a4,4,0,0,1-1.23-.22c-.44-1.58.81-2.37,2.34-2.35-.23-.25-.92,0-1.34-.11,0-.24.28-.24.56-.22-.14-.47-.6,0-1-.11-2.26-1.6-1.66-6.69,2.23-5.25a5.61,5.61,0,0,0,1.34,5.47c.24-.07-.21-.37-.34-.44.1-.31.25.25.45.22a7.65,7.65,0,0,1-1-4.24c.24-2.52,2-4.28,1.79-7a11.11,11.11,0,0,0,5.58,1.34c-2.6-.67-5.42-1.12-7-2.79-.12.13.33.64.56.79-.49-.08-1.22-.87-1.56-1.46-.31.11.15.35,0,.67-.41-.39-.22-1.79-.67-1.78a17.9,17.9,0,0,1,1.45-6.7c0-.24-.35.16-.45.22s.2-.68.56-.66c-.71,0,.35-.82.89-.9-.11-.31-.47,0-.67,0,4.05-1.76,11.74-1.58,16-.11C364,142.4,363.79,141.94,363.5,142.06Zm-6.7,4.35c-.38-.89-.08-2.28-.11-3A3.37,3.37,0,0,0,356.8,146.41Zm-1.11-.44c-.44.88.13.26.22-.45a3,3,0,0,0-.33-2A12.07,12.07,0,0,1,355.69,146Zm-7.81,2c.45,0,.77-.2,1.22-.23.42,2.21,4,2.19,4.91.45.09.23.84.33,1.12.22C353.72,147.17,349.5,146.37,347.88,148Zm9.37.55c.54-.21,1.11,0,1.12-.33.88,1.85,4.46,1.65,4.91-.45.44-.06.9.43,1.22.11C362.69,146.54,358.51,147,357.25,148.53Zm-2.23,1v.33c.2.36.88.24,1,.67-1.12.33-2.35.54-2.79,1.56,1.33-1.24,4.5-1.31,5.81,0-.39-1.06-1.65-1.25-2.79-1.56.17-.5,1.36-.31,1-1A4.55,4.55,0,0,0,355,149.54Zm6.59.22c-.75.35-1.86-.13-2.24-.11C359.85,149.9,361.09,150.25,361.61,149.76Zm-11.05,0a2.21,2.21,0,0,0,2.23-.11A4.74,4.74,0,0,1,350.56,149.76Zm1.56.45c-.34.07-1-.15-1.12.11C351.34,150.25,352,150.46,352.12,150.21Zm9.49,0c-.42.07-1.12-.15-1.34.11C360.68,150.25,361.38,150.46,361.61,150.21Zm-10.5,1.11a10.27,10.27,0,0,0,2.9-.89A5.78,5.78,0,0,0,351.11,151.32Zm10.16,0c.31,0,.15,0-.11-.11a4.86,4.86,0,0,0-2.9-.67A29.68,29.68,0,0,0,361.27,151.32ZM351,152.78c.84-.73,2-1.16,2.79-1.9A5.2,5.2,0,0,0,351,152.78Zm10.49-.12c-.94-.51-1.77-1.72-2.9-1.67C359.57,151.46,360.59,152.49,361.49,152.66Zm-6.25.56c.43.05.95-.39.78-.56C355.84,152.93,355.45,153,355.24,153.22Zm1.9,0c-.33-.05-.71-.62-.89-.44C356.42,153,356.8,153.55,357.14,153.22Zm-1.45.45c.31-.37.69-.09,1.11,0C356.86,153.07,355.32,153.34,355.69,153.67Zm1,1.23c-.47.16-2.28.12-1.56.22a8.79,8.79,0,0,0,2.34-.11C357.09,155.1,357.05,154.84,356.69,154.9Z" transform="translate(-121.94 -109.88)"/>
          <path class="cls-40" d="M343.08,139.94h2.34c1.89.27,4,.35,5.69.78a35.7,35.7,0,0,1,10.27,0,46.89,46.89,0,0,1,5.58-.78h2.35v.11c.38,0,.77,0,.89.22-1.71,1.51-4.37,3-4.47,5.81,0,1.47,1,2.91.56,4.69-.07.33-.24-.11-.44,0a2.15,2.15,0,0,1-.9,2c-.39-.62-1.19.45-1.67.78,0,2.46,1.2,3.63,1.67,5.58a2.94,2.94,0,0,1,4.36,2.56c0,1.54-1.13,2.59-1.68,3.58.79.26,1.57.62,1.56,1.45,0,2.25-4.42,1.22-6.8,1.56-1.68.23-4.42,1.34-6,.22a3.14,3.14,0,0,0-.23-1.12,2.06,2.06,0,0,1-.44,1.46c.59,0,1.25,0,1.45.44-.17,0-.41,0-.45.11a32.89,32.89,0,0,1,4.13.79c-.65.28-1.42.44-2.12.67.27.06.81-.14.9.11a13.84,13.84,0,0,1-7.37,2,1.73,1.73,0,0,1,.89.33c-1.72.64-3.71-.47-5-.56.34.15,1,.57.89.78-2.38.05-3.65-1.63-4.8-2.45.11.09.38.57.12.67-.95-.47-1.29-1.55-1.68-2.57-.13.25,0,.72-.34.78-.83-1.16.07-3.2.23-4-.39.22-1,.74-1.34.67.54-1.24,1.68-1.89,2.45-2.9-1.73-2.64.73-6.08,3.8-4.57.42-2,1.68-3.16,1.67-5.58a15.8,15.8,0,0,0-1.56-1.12c0,.18,0,.39-.22.34a2,2,0,0,1-.78-1.9c-.09-.3-.53.25-.56-.23-.23-1.8.61-3.15.56-4.57-.1-2.83-2.64-4.42-4.47-5.81C342.26,140,342.84,140.15,343.08,139.94Zm21.09,2.12c-4.22-1.47-11.91-1.65-16,.11.2,0,.56-.31.67,0-.54.08-1.6.91-.89.9-.36,0-.68.58-.56.66s.41-.46.45-.22a17.9,17.9,0,0,0-1.45,6.7c.45,0,.26,1.39.67,1.78.15-.32-.31-.56,0-.67.34.59,1.07,1.38,1.56,1.46-.23-.15-.68-.66-.56-.79,1.61,1.67,4.43,2.12,7,2.79a11.11,11.11,0,0,1-5.58-1.34c.18,2.76-1.55,4.52-1.79,7a7.65,7.65,0,0,0,1,4.24c-.2,0-.35-.53-.45-.22.13.07.58.37.34.44a5.61,5.61,0,0,1-1.34-5.47c-3.89-1.44-4.49,3.65-2.23,5.25.4.07.86-.36,1,.11-.28,0-.54,0-.56.22.42.07,1.11-.14,1.34.11-1.53,0-2.78.77-2.34,2.35a4,4,0,0,0,1.23.22c0-1.16.41-2.48,1.45-2.23-1,.13-1.26,1-1.23,2.23a14.87,14.87,0,0,0,3.79.33,2.4,2.4,0,0,1,2-3,19.36,19.36,0,0,0,.45-2.79,1.82,1.82,0,0,1-.89-2c0,.68.48.93.78,1.34.06-.16-.13-.57.11-.56a7.52,7.52,0,0,1,.11,4.13c.57.18,1.34.74,1.34,1.12a6.3,6.3,0,0,0-1.23-.56c-.87.4-1.19,1.33-1.23,2.57.37,0,.5.32,1,.22a2,2,0,0,1,.89-2.12,2.35,2.35,0,0,0-.44,2,8.43,8.43,0,0,0,2.79,0A68,68,0,0,0,356,161c.52,2.17.47,4.89.78,7.26a5.38,5.38,0,0,0,2.8.11,2.23,2.23,0,0,0-.45-2.12,2.23,2.23,0,0,1,1,2.23,1.23,1.23,0,0,0,1-.33,3,3,0,0,0-1.23-2.46c-.53.14-.9.44-1.45.56a3.39,3.39,0,0,1,1.45-1.12,7,7,0,0,1,.22-4c0,.16,0,.41.12.44a5.49,5.49,0,0,0,.89-1.34c.06,1.11-.64,1.45-1,2.12.05,1,.26,1.76.34,2.68,1.46.25,2.26,1.17,2.12,3,1,0,2.49-.08,3.68-.22a2.06,2.06,0,0,0-1.11-2.45c1.11.14,1.35,1.17,1.44,2.34a4.16,4.16,0,0,0,1.24-.22c.29-1.9-1.05-2.16-2.35-2.46.41-.07,1.11.15,1.34-.11-.19-.1-.56,0-.67-.22.4-.22.6.05,1.12,0,2.18-1.58,1.56-6.75-2.23-5.25a5.55,5.55,0,0,1-1.46,5.47c0-.2.58-.38.23-.56-.08.13-.37.58-.45.34,2.92-3.28-.58-7.63-.56-11.28a10,10,0,0,1-5.69,1.23A14.71,14.71,0,0,0,364.4,152c-.2.29-.49.49-.67.79.74-.26,1.09-.92,1.56-1.46.15.36-.28.68,0,.78.35-.46,0-1.61.67-1.78a22.88,22.88,0,0,0-1.46-6.92c.23,0,.22.3.45.33.07-.41-.7-.55-.45-.78,0,.09.38.34.34.12a15.14,15.14,0,0,0-1.34-1C363.79,141.94,364,142.4,364.17,142.06Zm-17.41,3c.4,0,.26-.49.45-.67-.21-.1-.38.34-.45,0a4,4,0,0,1,.67-1.78c-1.07-1-2.46-2.23-4.35-2A7.72,7.72,0,0,1,346.76,145.07Zm1.12-2.67c-.09-.8,1.44-1,2-1.46-1.64-.07-3.39-.62-5-.33C346.27,140.73,347.1,142,347.88,142.4Zm16.74.11a6.06,6.06,0,0,1,2.79-2,22.31,22.31,0,0,0-4.91.56C363.33,141.37,364.56,141.78,364.62,142.51Zm.89,2.68a9.09,9.09,0,0,1,3.68-4.69,6.11,6.11,0,0,0-4.24,2.12c.28.61.8,1.35.45,1.9-.16.06-.27-.44-.33-.12C365.33,144.54,365.29,145,365.51,145.19ZM347.88,173a3,3,0,0,1-1-1.57,7.76,7.76,0,0,0,4.47,1.57c-.47-.17-1.27-.59-1.23-.9a11.19,11.19,0,0,0,7.7-.78,2.91,2.91,0,0,1-1.34-.33,20.25,20.25,0,0,0,2.79-.78c-1.54-.36-3.36-.43-4.91-.79.07-.15.43,0,.44-.22-1.27-.08-2.76.21-3.68.11,0-.25.33-.12.34-.33a11.08,11.08,0,0,1-3.24.11c.34-.14.8-.17.89-.56-2.06-.17-6.34.06-5.91-2.12.14-.75,1.07-.82,1.68-1.34-.35-.18-.7-.34-.79-.78a4.66,4.66,0,0,0-1.45,1.23,6.33,6.33,0,0,1,1-.22,4.12,4.12,0,0,0-1.11,3.23c0-.26.11-.48.34-.56a5.9,5.9,0,0,0,.77,2.57c.08-.34-.14-1,.12-1.12A6.72,6.72,0,0,0,347.88,173Zm2.79-4.8a4.29,4.29,0,0,1,1.34-2.57C350.67,165.34,349.58,167.71,350.67,168.18Zm11.05,0c.72-.38.29-1.78-.23-2.24a1.77,1.77,0,0,0-.89-.33c-.09,0-.22,0-.22.11C361.28,166.06,361.36,167.65,361.72,168.18Zm-18.09-1.34c.15.19.24.44.56.44-.17-.65.35-1.2.23-1.45C344.17,166.18,343.66,166.27,343.63,166.84Zm24.67.44c.77-.26,0-1.56-.44-1.22C368.22,166.25,368.07,167,368.3,167.28ZM350,168.73c0-.32.76.1.78-.22C350.42,168.35,349.77,168.45,350,168.73Z" transform="translate(-121.94 -109.88)"/>
          <path class="cls-40" d="M355.58,143.51a3,3,0,0,1,.33,2c-.09.71-.66,1.33-.22.45A12.07,12.07,0,0,0,355.58,143.51Z" transform="translate(-121.94 -109.88)"/>
          <path class="cls-40" d="M359.37,149.65c.38,0,1.49.46,2.24.11C361.09,150.25,359.85,149.9,359.37,149.65Z" transform="translate(-121.94 -109.88)"/>
          <path class="cls-40" d="M352.79,149.65a2.21,2.21,0,0,1-2.23.11A4.74,4.74,0,0,0,352.79,149.65Z" transform="translate(-121.94 -109.88)"/>
          <path class="cls-40" d="M358.26,150.54a4.86,4.86,0,0,1,2.9.67c.26.15.42.13.11.11A29.68,29.68,0,0,1,358.26,150.54Z" transform="translate(-121.94 -109.88)"/>
          <path class="cls-40" d="M353.79,150.88c-.82.74-2,1.17-2.79,1.9A5.2,5.2,0,0,1,353.79,150.88Z" transform="translate(-121.94 -109.88)"/>
          <path class="cls-40" d="M358.59,151c1.13-.05,2,1.16,2.9,1.67C360.59,152.49,359.57,151.46,358.59,151Z" transform="translate(-121.94 -109.88)"/>
          <path class="cls-40" d="M356,152.66c.17.17-.35.61-.78.56C355.45,153,355.84,152.93,356,152.66Z" transform="translate(-121.94 -109.88)"/>
          <path class="cls-40" d="M356.25,152.78c.18-.18.56.39.89.44C356.8,153.55,356.42,153,356.25,152.78Z" transform="translate(-121.94 -109.88)"/>
          <path class="cls-40" d="M356.8,153.67c-.42-.09-.8-.37-1.11,0C355.32,153.34,356.86,153.07,356.8,153.67Z" transform="translate(-121.94 -109.88)"/>
          <path class="cls-39" d="M343.75,169.4c-.26.16,0,.78-.12,1.12a5.9,5.9,0,0,1-.77-2.57c-.23.08-.31.3-.34.56a4.12,4.12,0,0,1,1.11-3.23,6.33,6.33,0,0,0-1,.22,4.66,4.66,0,0,1,1.45-1.23c.09.44.44.6.79.78-.61.52-1.54.59-1.68,1.34-.43,2.18,3.85,2,5.91,2.12-.09.39-.55.42-.89.56a11.08,11.08,0,0,0,3.24-.11c0,.21-.37.08-.34.33.92.1,2.41-.19,3.68-.11,0,.21-.37.07-.44.22,1.55.36,3.37.43,4.91.79a20.25,20.25,0,0,1-2.79.78,2.91,2.91,0,0,0,1.34.33,11.19,11.19,0,0,1-7.7.78c0,.31.76.73,1.23.9a7.76,7.76,0,0,1-4.47-1.57,3,3,0,0,0,1,1.57A6.72,6.72,0,0,1,343.75,169.4Z" transform="translate(-121.94 -109.88)"/>
          <path class="cls-37" d="M344.42,165.83c.12.25-.4.8-.23,1.45-.32,0-.41-.25-.56-.44C343.66,166.27,344.17,166.18,344.42,165.83Z" transform="translate(-121.94 -109.88)"/>
          <path class="cls-37" d="M350.78,168.51c0,.32-.77-.1-.78.22C349.77,168.45,350.42,168.35,350.78,168.51Z" transform="translate(-121.94 -109.88)"/>
        </g>
        <rect class="cls-28" x="218.63" y="30.06" width="30.23" height="33.71"/>
      </g>
      <rect x="221.63" y="58.04" width="0.72" height="2.6"/>
      <polygon points="226.56 58.39 225.4 62.16 226.2 63.24 226.2 61.27 226.56 58.39"/>
      <polygon points="228.98 68.45 230.24 64.68 229.25 64.59 228.98 68.45"/>
      <polygon points="229.34 58.48 229.34 60.91 230.06 60.55 229.97 58.75 229.34 58.48"/>
      <path d="M355.78,172.94c-.45.18-.45,2.06-.63,2.33a25.05,25.05,0,0,0-.45,3.23l1.26-3.41Z" transform="translate(-121.94 -109.88)"/>
      <polygon points="237.42 60.46 236.79 63.24 237.6 63.96 237.78 65.75 238.05 61.98 237.42 60.46"/>
      <polygon points="241.28 57.59 240.48 59.29 241.01 62.16 241.64 60.28 241.1 58.93 241.28 57.59"/>
      <path d="M368.34,176.71a11.44,11.44,0,0,0,1.35,2.06,8.43,8.43,0,0,1,1.26,1.44l-.72.54-1.35-1.53Z" transform="translate(-121.94 -109.88)"/>
      <path d="M341.06,179.22l-1.8,1.35s-.18.89.09.89,1.62-1.25,1.62-1.25Z" transform="translate(-121.94 -109.88)"/>
      <text class="cls-42" transform="translate(222.56 79.49)">SHA256</text>
    </g>
    <g>
      <g>
        <path class="cls-25" d="M437.94,167a1.28,1.28,0,0,0-1.28-1.36H395.78A1.27,1.27,0,0,0,394.5,167l1.28,23.3a1.46,1.46,0,0,0,1.43,1.36h38a1.46,1.46,0,0,0,1.43-1.36Z" transform="translate(-121.94 -109.88)"/>
        <polygon class="cls-43" points="275.16 80.44 273.81 56.69 314.92 56.69 313.39 80.44 275.16 80.44"/>
        <polygon class="cls-44" points="275.31 80.44 277.79 70.05 310.94 70.05 313.25 80.44 275.31 80.44"/>
        <path class="cls-28" d="M437.94,165.25a1.27,1.27,0,0,0-1.28-1.35H395.78a1.27,1.27,0,0,0-1.28,1.35l1.28,25a1.46,1.46,0,0,0,1.43,1.36h38a1.46,1.46,0,0,0,1.43-1.36Z" transform="translate(-121.94 -109.88)"/>
      </g>
      <polygon class="cls-29" points="270.86 51.99 271.47 55.72 317.08 55.72 317.69 51.99 270.86 51.99"/>
      <g>
        <path class="cls-30" d="M435.8,151.78a1.59,1.59,0,0,0-1.37-.93H398a1.59,1.59,0,0,0-1.37.93l-3.91,9.83a.63.63,0,0,0,.63.93h45.72a.63.63,0,0,0,.63-.93Z" transform="translate(-121.94 -109.88)"/>
        <path class="cls-28" d="M435.8,151.78a1.59,1.59,0,0,0-1.37-.93H398a1.59,1.59,0,0,0-1.37.93l-3.91,9.83a.63.63,0,0,0,.63.93h45.72a.63.63,0,0,0,.63-.93Z" transform="translate(-121.94 -109.88)"/>
      </g>
      <polygon class="cls-31" points="276.67 46.06 276.07 47.58 312.49 47.58 311.88 46.06 276.67 46.06"/>
      <g>
        <path class="cls-32" d="M413.71,180.77l1.93,1.81c1.63-1.89,2.39-7.77,2.39-16h-3.45C414.58,175,414.57,179.77,413.71,180.77Z" transform="translate(-121.94 -109.88)"/>
        <path class="cls-32" d="M408.6,180.48l1.25,2.38c3.49-2,4.4-9,4.4-16.29H410.8C410.8,169.66,411.22,179,408.6,180.48Z" transform="translate(-121.94 -109.88)"/>
        <path class="cls-32" d="M403.42,180.4l.89,2.55c5.81-2.22,6.24-11.77,6.24-16.38H407.1C407.1,170.26,407.52,178.83,403.42,180.4Z" transform="translate(-121.94 -109.88)"/>
        <path class="cls-32" d="M398.2,180.37l.69,2.61c7.56-2.16,8-12.13,8-16.41h-3.45C403.44,170.54,403.86,178.75,398.2,180.37Z" transform="translate(-121.94 -109.88)"/>
        <path class="cls-32" d="M423.86,180.48l-1.25,2.38c-3.49-2-4.4-9-4.4-16.29h3.45C421.66,169.66,421.24,179,423.86,180.48Z" transform="translate(-121.94 -109.88)"/>
        <path class="cls-32" d="M429,180.4l-.89,2.55c-5.81-2.22-6.24-11.77-6.24-16.38h3.45C425.36,170.26,424.94,178.83,429,180.4Z" transform="translate(-121.94 -109.88)"/>
        <path class="cls-32" d="M434.26,180.37l-.68,2.61c-7.57-2.16-8-12.13-8-16.41H429C429,170.54,428.6,178.75,434.26,180.37Z" transform="translate(-121.94 -109.88)"/>
      </g>
      <path class="cls-33" d="M418,159.91c0,.55-.8,1-1.78,1s-1.78-.45-1.78-1,.8-1,1.78-1S418,159.37,418,159.91Z" transform="translate(-121.94 -109.88)"/>
      <path class="cls-34" d="M418,159.44c0,.54-.8,1-1.78,1s-1.78-.45-1.78-1,.8-1,1.78-1S418,158.89,418,159.44Z" transform="translate(-121.94 -109.88)"/>
      <g class="cls-45">
        <rect class="cls-36" x="277.59" y="28.49" width="33.37" height="36.85"/>
        <rect class="cls-8" x="279.16" y="30.06" width="30.23" height="33.71"/>
        <g>
          <path class="cls-37" d="M406,139.94h21.54a46.89,46.89,0,0,0-5.58.78,35.7,35.7,0,0,0-10.27,0C409.92,140.29,407.84,140.21,406,139.94Z" transform="translate(-121.94 -109.88)"/>
          <path class="cls-38" d="M403.61,140.61c1.89-.22,3.28,1,4.35,2a4,4,0,0,0-.67,1.78c.08.34.24-.1.45,0-.19.18-.05.7-.45.67A7.72,7.72,0,0,0,403.61,140.61Z" transform="translate(-121.94 -109.88)"/>
          <path class="cls-39" d="M405.4,140.61c1.63-.29,3.38.26,5,.33-.57.51-2.1.66-2,1.46C407.63,142,406.8,140.73,405.4,140.61Z" transform="translate(-121.94 -109.88)"/>
          <path class="cls-40" d="M417.22,143.4c0,.73-.27,2.12.12,3A3.34,3.34,0,0,1,417.22,143.4Z" transform="translate(-121.94 -109.88)"/>
          <path class="cls-40" d="M415.66,148.42c-.28.11-1,0-1.12-.22-.92,1.74-4.49,1.76-4.9-.45-.46,0-.78.19-1.23.23C410,146.37,414.26,147.17,415.66,148.42Zm-1.78-.44c-.65.44-1.54,1.14-2.57.55-.3-.22-.24-.8-.67-.89h-.45C410.16,149.55,413.58,149.71,413.88,148Z" transform="translate(-121.94 -109.88)"/>
          <path class="cls-40" d="M425,147.86c-.33.32-.79-.17-1.23-.11-.44,2.1-4,2.3-4.91.45,0,.29-.58.12-1.12.33C419,147,423.22,146.54,425,147.86Zm-2.46-.22a1.46,1.46,0,0,1-1.22,1.12c-.86.09-1.23-.61-1.9-.78.43,1.65,3.58,1.56,3.79-.23C423.12,147.62,422.86,147.63,422.58,147.64Z" transform="translate(-121.94 -109.88)"/>
          <path class="cls-41" d="M410.19,147.64h.45c.43.09.37.67.67.89,1,.59,1.92-.11,2.57-.55C413.58,149.71,410.16,149.55,410.19,147.64Z" transform="translate(-121.94 -109.88)"/>
          <path class="cls-41" d="M423.25,147.75c-.21,1.79-3.36,1.88-3.79.23.67.17,1,.87,1.9.78a1.46,1.46,0,0,0,1.22-1.12C422.86,147.63,423.12,147.62,423.25,147.75Z" transform="translate(-121.94 -109.88)"/>
          <path class="cls-40" d="M417.78,149.54c.36.69-.83.5-1,1,1.14.31,2.41.5,2.79,1.56-1.31-1.31-4.48-1.24-5.8,0,.43-1,1.66-1.23,2.78-1.56-.12-.43-.8-.31-1-.67v-.33A4.55,4.55,0,0,1,417.78,149.54Zm-1.23.56c.2-.6-.38-.44-.78-.45C415.83,150,416.28,150,416.55,150.1Zm.23,0a1.07,1.07,0,0,0,.89-.45h-.89Z" transform="translate(-121.94 -109.88)"/>
          <path class="cls-38" d="M415.77,149.65c.4,0,1-.15.78.45C416.28,150,415.83,150,415.77,149.65Z" transform="translate(-121.94 -109.88)"/>
          <path class="cls-38" d="M416.78,149.65h.89a1.07,1.07,0,0,1-.89.45Z" transform="translate(-121.94 -109.88)"/>
          <path class="cls-40" d="M411.53,150.32c.16-.26.78,0,1.12-.11C412.49,150.46,411.87,150.25,411.53,150.32Z" transform="translate(-121.94 -109.88)"/>
          <path class="cls-40" d="M420.8,150.32c.22-.26.92,0,1.34-.11C421.91,150.46,421.21,150.25,420.8,150.32Z" transform="translate(-121.94 -109.88)"/>
          <path class="cls-40" d="M414.54,150.43a10.27,10.27,0,0,1-2.9.89A5.78,5.78,0,0,1,414.54,150.43Z" transform="translate(-121.94 -109.88)"/>
          <path class="cls-40" d="M418,155a8.88,8.88,0,0,1-2.35.11c-.72-.1,1.1-.06,1.56-.22S417.62,155.1,418,155Z" transform="translate(-121.94 -109.88)"/>
          <path class="cls-39" d="M412.54,165.61a4.35,4.35,0,0,0-1.34,2.57C410.11,167.71,411.2,165.34,412.54,165.61Z" transform="translate(-121.94 -109.88)"/>
          <path class="cls-39" d="M420.91,165.72c0-.11.13-.09.22-.11a1.81,1.81,0,0,1,.9.33c.51.46.94,1.86.22,2.24C421.89,167.65,421.81,166.06,420.91,165.72Z" transform="translate(-121.94 -109.88)"/>
          <path class="cls-39" d="M428.39,166.06c.46-.34,1.21,1,.44,1.22C428.6,167,428.75,166.25,428.39,166.06Z" transform="translate(-121.94 -109.88)"/>
          <path class="cls-37" d="M403.61,139.94c-.24.21-.82.07-1,.33,1.83,1.39,4.37,3,4.47,5.81.05,1.42-.79,2.77-.56,4.57,0,.48.47-.07.56.23a2.06,2.06,0,0,0,.78,1.9c.24.05.21-.16.22-.34a17.21,17.21,0,0,1,1.57,1.12c0,2.42-1.26,3.58-1.68,5.58-3.07-1.51-5.53,1.93-3.79,4.57-.78,1-1.91,1.66-2.46,2.9.29.07,1-.45,1.34-.67-.16.82-1.05,2.86-.22,4,.31-.06.2-.53.33-.78.39,1,.73,2.1,1.68,2.57.26-.1,0-.58-.12-.67,1.15.82,2.42,2.5,4.8,2.45.1-.21-.55-.63-.89-.78,1.31.09,3.3,1.2,5,.56a1.7,1.7,0,0,0-.89-.33,13.81,13.81,0,0,0,7.37-2c-.09-.25-.63-.05-.9-.11.71-.23,1.47-.39,2.13-.67a33.41,33.41,0,0,0-4.14-.79c0-.15.28-.09.45-.11-.2-.43-.86-.4-1.45-.44a2.11,2.11,0,0,0,.45-1.46,3.38,3.38,0,0,1,.22,1.12c1.61,1.12,4.36,0,6-.22,2.38-.34,6.79.69,6.8-1.56,0-.83-.76-1.19-1.56-1.45.55-1,1.66-2,1.68-3.58a2.94,2.94,0,0,0-4.36-2.56c-.47-1.95-1.71-3.12-1.67-5.58.48-.33,1.28-1.4,1.67-.78a2.15,2.15,0,0,0,.9-2c.21-.11.37.33.44,0,.47-1.78-.6-3.22-.56-4.69.1-2.78,2.76-4.3,4.47-5.81-.11-.25-.51-.23-.89-.22v-.11h1v33.71H401.6V139.94Z" transform="translate(-121.94 -109.88)"/>
          <path class="cls-39" d="M423,141.06a22.31,22.31,0,0,1,4.91-.56,6.06,6.06,0,0,0-2.79,2C425.09,141.78,423.86,141.37,423,141.06Z" transform="translate(-121.94 -109.88)"/>
          <path class="cls-38" d="M425.6,144.4c.06-.32.17.18.33.12.35-.55-.17-1.29-.45-1.9a6.11,6.11,0,0,1,4.24-2.12,9.09,9.09,0,0,0-3.68,4.69C425.82,145,425.86,144.54,425.6,144.4Z" transform="translate(-121.94 -109.88)"/>
          <path class="cls-39" d="M424,142.06a15.14,15.14,0,0,1,1.34,1c0,.22-.32,0-.33-.12-.26.23.51.37.44.78-.23,0-.22-.3-.44-.33a23.21,23.21,0,0,1,1.45,6.92c-.65.17-.31,1.32-.67,1.78-.28-.1.15-.42,0-.78-.46.54-.82,1.2-1.56,1.46.18-.3.47-.5.67-.79a14.67,14.67,0,0,1-7.26,2.68,9.94,9.94,0,0,0,5.69-1.23c0,3.65,3.48,8,.56,11.28.08.24.37-.21.45-.34.35.18-.23.36-.22.56a5.54,5.54,0,0,0,1.45-5.47c3.79-1.5,4.41,3.67,2.23,5.25-.52.05-.72-.22-1.12,0,.11.18.48.12.67.22-.23.26-.93,0-1.34.11,1.3.3,2.64.56,2.35,2.46a4.15,4.15,0,0,1-1.23.22c-.1-1.17-.33-2.2-1.45-2.34a2.06,2.06,0,0,1,1.11,2.45c-1.19.14-2.69.21-3.68.22.14-1.84-.66-2.76-2.12-3-.08-.92-.29-1.71-.34-2.68.37-.67,1.07-1,1-2.12a5.49,5.49,0,0,1-.89,1.34c-.16,0-.1-.28-.12-.44a7,7,0,0,0-.22,4,3.39,3.39,0,0,0-1.45,1.12c.55-.12.92-.42,1.45-.56a3,3,0,0,1,1.23,2.46,1.23,1.23,0,0,1-1,.33,2.23,2.23,0,0,0-1-2.23,2.23,2.23,0,0,1,.45,2.12,5.35,5.35,0,0,1-2.79-.11c-.32-2.37-.27-5.09-.79-7.26a68,68,0,0,1-.55,7.37,8.43,8.43,0,0,1-2.79,0,2.35,2.35,0,0,1,.44-2,2,2,0,0,0-.89,2.12c-.51.1-.63-.18-1-.22,0-1.24.35-2.17,1.22-2.57a6.3,6.3,0,0,1,1.23.56c0-.38-.77-.94-1.34-1.12a7.52,7.52,0,0,0-.11-4.13c-.24,0-.05.4-.11.56-.3-.41-.75-.66-.78-1.34a1.82,1.82,0,0,0,.89,2,19.36,19.36,0,0,1-.45,2.79,2.39,2.39,0,0,0-2,3,15,15,0,0,1-3.8-.33c0-1.19.21-2.1,1.23-2.23-1-.25-1.46,1.07-1.45,2.23a4.09,4.09,0,0,1-1.23-.22c-.44-1.58.81-2.37,2.34-2.35-.22-.25-.92,0-1.34-.11,0-.24.29-.24.56-.22-.14-.47-.6,0-1-.11-2.26-1.6-1.66-6.69,2.23-5.25a5.61,5.61,0,0,0,1.34,5.47c.24-.07-.21-.37-.34-.44.11-.31.25.25.45.22a7.56,7.56,0,0,1-1-4.24c.23-2.52,2-4.28,1.78-7a11.11,11.11,0,0,0,5.58,1.34c-2.6-.67-5.42-1.12-7-2.79-.12.13.33.64.56.79-.49-.08-1.22-.87-1.56-1.46-.31.11.15.35,0,.67-.41-.39-.21-1.79-.67-1.78a18.1,18.1,0,0,1,1.45-6.7c0-.24-.35.16-.45.22s.2-.68.56-.66c-.71,0,.35-.82.89-.9-.11-.31-.47,0-.67,0,4.05-1.76,11.74-1.58,16-.11C424.56,142.4,424.32,141.94,424,142.06Zm-6.69,4.35c-.39-.89-.08-2.28-.12-3A3.34,3.34,0,0,0,417.34,146.41Zm-1.12-.44c-.44.88.13.26.22-.45a3,3,0,0,0-.33-2A12.07,12.07,0,0,1,416.22,146Zm-7.81,2c.45,0,.77-.2,1.23-.23.41,2.21,4,2.19,4.9.45.09.23.84.33,1.12.22C414.26,147.17,410,146.37,408.41,148Zm9.37.55c.54-.21,1.11,0,1.12-.33.88,1.85,4.47,1.65,4.91-.45.44-.06.9.43,1.23.11C423.22,146.54,419,147,417.78,148.53Zm-2.23,1v.33c.2.36.88.24,1,.67-1.12.33-2.35.54-2.78,1.56,1.32-1.24,4.49-1.31,5.8,0-.38-1.06-1.65-1.25-2.79-1.56.17-.5,1.36-.31,1-1A4.55,4.55,0,0,0,415.55,149.54Zm6.59.22c-.74.35-1.86-.13-2.24-.11C420.38,149.9,421.62,150.25,422.14,149.76Zm-11.05,0a2.21,2.21,0,0,0,2.23-.11A4.74,4.74,0,0,1,411.09,149.76Zm1.56.45c-.34.07-1-.15-1.12.11C411.87,150.25,412.49,150.46,412.65,150.21Zm9.49,0c-.42.07-1.12-.15-1.34.11C421.21,150.25,421.91,150.46,422.14,150.21Zm-10.5,1.11a10.27,10.27,0,0,0,2.9-.89A5.78,5.78,0,0,0,411.64,151.32Zm10.16,0c.31,0,.16,0-.11-.11a4.84,4.84,0,0,0-2.9-.67A29.68,29.68,0,0,0,421.8,151.32Zm-10.27,1.46c.84-.73,2-1.16,2.79-1.9A5.2,5.2,0,0,0,411.53,152.78Zm10.5-.12c-.94-.51-1.78-1.72-2.91-1.67C420.11,151.46,421.12,152.49,422,152.66Zm-6.26.56c.43.05,1-.39.78-.56C416.37,152.93,416,153,415.77,153.22Zm1.9,0c-.32-.05-.71-.62-.89-.44C417,153,417.34,153.55,417.67,153.22Zm-1.45.45c.31-.37.7-.09,1.12,0C417.39,153.07,415.86,153.34,416.22,153.67Zm1,1.23c-.46.16-2.28.12-1.56.22A8.88,8.88,0,0,0,418,155C417.62,155.1,417.58,154.84,417.22,154.9Z" transform="translate(-121.94 -109.88)"/>
          <path class="cls-40" d="M403.61,139.94H406c1.89.27,4,.35,5.69.78a35.7,35.7,0,0,1,10.27,0,46.89,46.89,0,0,1,5.58-.78h2.35v.11c.38,0,.78,0,.89.22-1.71,1.51-4.37,3-4.47,5.81,0,1.47,1,2.91.56,4.69-.07.33-.23-.11-.44,0a2.15,2.15,0,0,1-.9,2c-.39-.62-1.19.45-1.67.78,0,2.46,1.2,3.63,1.67,5.58a2.94,2.94,0,0,1,4.36,2.56c0,1.54-1.13,2.59-1.68,3.58.8.26,1.57.62,1.56,1.45,0,2.25-4.42,1.22-6.8,1.56-1.67.23-4.42,1.34-6,.22a3.38,3.38,0,0,0-.22-1.12,2.11,2.11,0,0,1-.45,1.46c.59,0,1.25,0,1.45.44-.17,0-.41,0-.45.11a33.41,33.41,0,0,1,4.14.79c-.66.28-1.42.44-2.13.67.27.06.81-.14.9.11a13.81,13.81,0,0,1-7.37,2,1.7,1.7,0,0,1,.89.33c-1.72.64-3.71-.47-5-.56.34.15,1,.57.89.78-2.38.05-3.65-1.63-4.8-2.45.11.09.38.57.12.67-.95-.47-1.29-1.55-1.68-2.57-.13.25,0,.72-.33.78-.83-1.16.06-3.2.22-4-.38.22-1.05.74-1.34.67.55-1.24,1.68-1.89,2.46-2.9-1.74-2.64.72-6.08,3.79-4.57.42-2,1.68-3.16,1.68-5.58a17.21,17.21,0,0,0-1.57-1.12c0,.18,0,.39-.22.34a2.06,2.06,0,0,1-.78-1.9c-.09-.3-.53.25-.56-.23-.23-1.8.61-3.15.56-4.57-.1-2.83-2.64-4.42-4.47-5.81C402.79,140,403.37,140.15,403.61,139.94Zm21.09,2.12c-4.22-1.47-11.91-1.65-16,.11.2,0,.56-.31.67,0-.54.08-1.6.91-.89.9-.36,0-.68.58-.56.66s.41-.46.45-.22a18.1,18.1,0,0,0-1.45,6.7c.46,0,.26,1.39.67,1.78.15-.32-.31-.56,0-.67.34.59,1.07,1.38,1.56,1.46-.23-.15-.68-.66-.56-.79,1.61,1.67,4.43,2.12,7,2.79a11.11,11.11,0,0,1-5.58-1.34c.18,2.76-1.55,4.52-1.78,7a7.56,7.56,0,0,0,1,4.24c-.2,0-.34-.53-.45-.22.13.07.58.37.34.44a5.61,5.61,0,0,1-1.34-5.47c-3.89-1.44-4.49,3.65-2.23,5.25.4.07.86-.36,1,.11-.27,0-.54,0-.56.22.42.07,1.12-.14,1.34.11-1.53,0-2.78.77-2.34,2.35a4.09,4.09,0,0,0,1.23.22c0-1.16.42-2.48,1.45-2.23-1,.13-1.26,1-1.23,2.23a15,15,0,0,0,3.8.33,2.39,2.39,0,0,1,2-3,19.36,19.36,0,0,0,.45-2.79,1.82,1.82,0,0,1-.89-2c0,.68.48.93.78,1.34.06-.16-.13-.57.11-.56a7.52,7.52,0,0,1,.11,4.13c.57.18,1.34.74,1.34,1.12a6.3,6.3,0,0,0-1.23-.56c-.87.4-1.19,1.33-1.22,2.57.37,0,.49.32,1,.22a2,2,0,0,1,.89-2.12,2.35,2.35,0,0,0-.44,2,8.43,8.43,0,0,0,2.79,0,68,68,0,0,0,.55-7.37c.52,2.17.47,4.89.79,7.26a5.35,5.35,0,0,0,2.79.11,2.23,2.23,0,0,0-.45-2.12,2.23,2.23,0,0,1,1,2.23,1.23,1.23,0,0,0,1-.33,3,3,0,0,0-1.23-2.46c-.53.14-.9.44-1.45.56a3.39,3.39,0,0,1,1.45-1.12,7,7,0,0,1,.22-4c0,.16,0,.41.12.44a5.49,5.49,0,0,0,.89-1.34c.06,1.11-.64,1.45-1,2.12.05,1,.26,1.76.34,2.68,1.46.25,2.26,1.17,2.12,3,1,0,2.49-.08,3.68-.22a2.06,2.06,0,0,0-1.11-2.45c1.12.14,1.35,1.17,1.45,2.34a4.15,4.15,0,0,0,1.23-.22c.29-1.9-1.05-2.16-2.35-2.46.41-.07,1.11.15,1.34-.11-.19-.1-.56,0-.67-.22.4-.22.6.05,1.12,0,2.18-1.58,1.56-6.75-2.23-5.25a5.54,5.54,0,0,1-1.45,5.47c0-.2.57-.38.22-.56-.08.13-.37.58-.45.34,2.92-3.28-.58-7.63-.56-11.28a9.94,9.94,0,0,1-5.69,1.23,14.67,14.67,0,0,0,7.26-2.68c-.2.29-.49.49-.67.79.74-.26,1.1-.92,1.56-1.46.15.36-.28.68,0,.78.36-.46,0-1.61.67-1.78A23.21,23.21,0,0,0,425,143.4c.22,0,.21.3.44.33.07-.41-.7-.55-.44-.78,0,.09.37.34.33.12a15.14,15.14,0,0,0-1.34-1C424.32,141.94,424.56,142.4,424.7,142.06Zm-17.41,3c.4,0,.26-.49.45-.67-.21-.1-.37.34-.45,0a4,4,0,0,1,.67-1.78c-1.07-1-2.46-2.23-4.35-2A7.72,7.72,0,0,1,407.29,145.07Zm1.12-2.67c-.09-.8,1.44-1,2-1.46-1.64-.07-3.39-.62-5-.33C406.8,140.73,407.63,142,408.41,142.4Zm16.74.11a6.06,6.06,0,0,1,2.79-2,22.31,22.31,0,0,0-4.91.56C423.86,141.37,425.09,141.78,425.15,142.51Zm.89,2.68a9.09,9.09,0,0,1,3.68-4.69,6.11,6.11,0,0,0-4.24,2.12c.28.61.8,1.35.45,1.9-.16.06-.27-.44-.33-.12C425.86,144.54,425.82,145,426,145.19ZM408.41,173a3.07,3.07,0,0,1-1-1.57,7.76,7.76,0,0,0,4.47,1.57c-.47-.17-1.27-.59-1.23-.9a11.19,11.19,0,0,0,7.7-.78A2.91,2.91,0,0,1,417,171a20.25,20.25,0,0,0,2.79-.78c-1.54-.36-3.36-.43-4.91-.79.07-.15.43,0,.45-.22-1.28-.08-2.77.21-3.69.11,0-.25.33-.12.34-.33a11.08,11.08,0,0,1-3.24.11c.34-.14.8-.17.9-.56-2.07-.17-6.35.06-5.92-2.12.15-.75,1.07-.82,1.68-1.34-.35-.18-.7-.34-.79-.78a4.66,4.66,0,0,0-1.45,1.23,6.22,6.22,0,0,1,1-.22,4.1,4.1,0,0,0-1.12,3.23c0-.26.11-.48.34-.56a5.9,5.9,0,0,0,.78,2.57c.07-.34-.15-1,.11-1.12A6.74,6.74,0,0,0,408.41,173Zm2.79-4.8a4.35,4.35,0,0,1,1.34-2.57C411.2,165.34,410.11,167.71,411.2,168.18Zm11.05,0c.72-.38.29-1.78-.22-2.24a1.81,1.81,0,0,0-.9-.33c-.09,0-.22,0-.22.11C421.81,166.06,421.89,167.65,422.25,168.18Zm-18.08-1.34c.14.19.23.44.55.44-.17-.65.36-1.2.23-1.45C404.7,166.18,404.19,166.27,404.17,166.84Zm24.66.44c.77-.26,0-1.56-.44-1.22C428.75,166.25,428.6,167,428.83,167.28Zm-18.3,1.45c0-.32.76.1.78-.22C411,168.35,410.3,168.45,410.53,168.73Z" transform="translate(-121.94 -109.88)"/>
          <path class="cls-40" d="M416.11,143.51a3,3,0,0,1,.33,2c-.09.71-.66,1.33-.22.45A12.07,12.07,0,0,0,416.11,143.51Z" transform="translate(-121.94 -109.88)"/>
          <path class="cls-40" d="M419.9,149.65c.38,0,1.5.46,2.24.11C421.62,150.25,420.38,149.9,419.9,149.65Z" transform="translate(-121.94 -109.88)"/>
          <path class="cls-40" d="M413.32,149.65a2.21,2.21,0,0,1-2.23.11A4.74,4.74,0,0,0,413.32,149.65Z" transform="translate(-121.94 -109.88)"/>
          <path class="cls-40" d="M418.79,150.54a4.84,4.84,0,0,1,2.9.67c.27.15.42.13.11.11A29.68,29.68,0,0,1,418.79,150.54Z" transform="translate(-121.94 -109.88)"/>
          <path class="cls-40" d="M414.32,150.88c-.82.74-1.95,1.17-2.79,1.9A5.2,5.2,0,0,1,414.32,150.88Z" transform="translate(-121.94 -109.88)"/>
          <path class="cls-40" d="M419.12,151c1.13-.05,2,1.16,2.91,1.67C421.12,152.49,420.11,151.46,419.12,151Z" transform="translate(-121.94 -109.88)"/>
          <path class="cls-40" d="M416.55,152.66c.17.17-.35.61-.78.56C416,153,416.37,152.93,416.55,152.66Z" transform="translate(-121.94 -109.88)"/>
          <path class="cls-40" d="M416.78,152.78c.18-.18.57.39.89.44C417.34,153.55,417,153,416.78,152.78Z" transform="translate(-121.94 -109.88)"/>
          <path class="cls-40" d="M417.34,153.67c-.42-.09-.81-.37-1.12,0C415.86,153.34,417.39,153.07,417.34,153.67Z" transform="translate(-121.94 -109.88)"/>
          <path class="cls-39" d="M404.28,169.4c-.26.16,0,.78-.11,1.12a5.9,5.9,0,0,1-.78-2.57c-.23.08-.3.3-.34.56a4.1,4.1,0,0,1,1.12-3.23,6.22,6.22,0,0,0-1,.22,4.66,4.66,0,0,1,1.45-1.23c.09.44.44.6.79.78-.61.52-1.53.59-1.68,1.34-.43,2.18,3.85,2,5.92,2.12-.1.39-.56.42-.9.56A11.08,11.08,0,0,0,412,169c0,.21-.37.08-.34.33.92.1,2.41-.19,3.69-.11,0,.21-.38.07-.45.22,1.55.36,3.37.43,4.91.79A20.25,20.25,0,0,1,417,171a2.91,2.91,0,0,0,1.34.33,11.19,11.19,0,0,1-7.7.78c0,.31.76.73,1.23.9a7.76,7.76,0,0,1-4.47-1.57,3.07,3.07,0,0,0,1,1.57A6.74,6.74,0,0,1,404.28,169.4Z" transform="translate(-121.94 -109.88)"/>
          <path class="cls-37" d="M405,165.83c.13.25-.4.8-.23,1.45-.32,0-.41-.25-.55-.44C404.19,166.27,404.7,166.18,405,165.83Z" transform="translate(-121.94 -109.88)"/>
          <path class="cls-37" d="M411.31,168.51c0,.32-.77-.1-.78.22C410.3,168.45,411,168.35,411.31,168.51Z" transform="translate(-121.94 -109.88)"/>
        </g>
        <rect class="cls-28" x="279.16" y="30.06" width="30.23" height="33.71"/>
      </g>
      <rect x="282.16" y="58.04" width="0.72" height="2.6"/>
      <polygon points="287.09 58.39 285.93 62.16 286.73 63.24 286.73 61.27 287.09 58.39"/>
      <polygon points="289.51 68.45 290.77 64.68 289.79 64.59 289.51 68.45"/>
      <polygon points="289.88 58.48 289.88 60.91 290.59 60.55 290.5 58.75 289.88 58.48"/>
      <path d="M416.31,172.94c-.45.18-.45,2.06-.63,2.33a25.05,25.05,0,0,0-.45,3.23l1.26-3.41Z" transform="translate(-121.94 -109.88)"/>
      <polygon points="297.95 60.46 297.33 63.24 298.13 63.96 298.31 65.75 298.58 61.98 297.95 60.46"/>
      <polygon points="301.81 57.59 301.01 59.29 301.54 62.16 302.17 60.28 301.63 58.93 301.81 57.59"/>
      <path d="M428.88,176.71a11.34,11.34,0,0,0,1.34,2.06,8.43,8.43,0,0,1,1.26,1.44l-.72.54-1.35-1.53Z" transform="translate(-121.94 -109.88)"/>
      <path d="M401.59,179.22l-1.8,1.35s-.18.89.09.89,1.62-1.25,1.62-1.25Z" transform="translate(-121.94 -109.88)"/>
      <text class="cls-42" transform="translate(277.43 79.49)">RIPEMD160</text>
    </g>
  </g>
</svg>
