<?xml version="1.0" encoding="UTF-8" standalone="no"?>
<svg
   xmlns:dc="http://purl.org/dc/elements/1.1/"
   xmlns:cc="http://creativecommons.org/ns#"
   xmlns:rdf="http://www.w3.org/1999/02/22-rdf-syntax-ns#"
   xmlns:svg="http://www.w3.org/2000/svg"
   xmlns="http://www.w3.org/2000/svg"
   xmlns:sodipodi="http://sodipodi.sourceforge.net/DTD/sodipodi-0.dtd"
   xmlns:inkscape="http://www.inkscape.org/namespaces/inkscape"
   version="1.1"
   id="svg2"
   xml:space="preserve"
   width="263.70969"
   height="230.29199"
   viewBox="0 0 263.70969 230.29199"
   sodipodi:docname="u03-09.svg"
   inkscape:version="1.0.2 (e86c870879, 2021-01-15)"><sodipodi:namedview
     pagecolor="#ffffff"
     bordercolor="#666666"
     borderopacity="1"
     objecttolerance="10"
     gridtolerance="10"
     guidetolerance="10"
     inkscape:pageopacity="0"
     inkscape:pageshadow="2"
     inkscape:window-width="1795"
     inkscape:window-height="1064"
     id="namedview2865"
     showgrid="false"
     inkscape:zoom="3.0950431"
     inkscape:cx="156.69697"
     inkscape:cy="94.765038"
     inkscape:window-x="756"
     inkscape:window-y="52"
     inkscape:window-maximized="0"
     inkscape:current-layer="g332" /><metadata
     id="metadata8"><rdf:RDF><cc:Work
         rdf:about=""><dc:format>image/svg+xml</dc:format><dc:type
           rdf:resource="http://purl.org/dc/dcmitype/StillImage" /></cc:Work></rdf:RDF></metadata><defs
     id="defs6"><clipPath
       clipPathUnits="userSpaceOnUse"
       id="clipPath18"><path
         d="M 0,792 H 612 V 0 H 0 Z"
         id="path16" /></clipPath><linearGradient
       x1="0"
       y1="0"
       x2="1"
       y2="0"
       gradientUnits="userSpaceOnUse"
       gradientTransform="matrix(0,-27.07666,-27.07666,0,306.43359,575.63672)"
       spreadMethod="pad"
       id="linearGradient44"><stop
         style="stop-opacity:1;stop-color:#898c8f"
         offset="0"
         id="stop36" /><stop
         style="stop-opacity:1;stop-color:#ffffff"
         offset="0.25998026"
         id="stop38" /><stop
         style="stop-opacity:1;stop-color:#ffffff"
         offset="0.503067"
         id="stop40" /><stop
         style="stop-opacity:1;stop-color:#ffffff"
         offset="1"
         id="stop42" /></linearGradient><linearGradient
       x1="0"
       y1="0"
       x2="1"
       y2="0"
       gradientUnits="userSpaceOnUse"
       gradientTransform="matrix(0,-11.848145,-11.848145,0,306.33252,560.4082)"
       spreadMethod="pad"
       id="linearGradient64"><stop
         style="stop-opacity:1;stop-color:#f0f2f2"
         offset="0"
         id="stop60" /><stop
         style="stop-opacity:1;stop-color:#d2d5d7"
         offset="1"
         id="stop62" /></linearGradient><clipPath
       clipPathUnits="userSpaceOnUse"
       id="clipPath74"><path
         d="M 0,792 H 612 V 0 H 0 Z"
         id="path72" /></clipPath><clipPath
       clipPathUnits="userSpaceOnUse"
       id="clipPath182"><path
         d="m 286.389,586.782 h 39.91 v 24.321 h -39.91 z"
         id="path180" /></clipPath><clipPath
       clipPathUnits="userSpaceOnUse"
       id="clipPath336"><path
         d="M 0,792 H 612 V 0 H 0 Z"
         id="path334" /></clipPath></defs><g
     id="g10"
     transform="matrix(1.3333333,0,0,-1.3333333,-242.2247,862.51492)"><g
       id="g12"><g
         id="g14"
         clip-path="url(#clipPath18)"><g
           id="g20"
           transform="translate(331.0918,575.2041)"><path
             d="m 0,0 c 0.049,0.849 -0.609,1.544 -1.459,1.544 h -46.604 c -0.849,0 -1.506,-0.695 -1.46,-1.544 l 1.463,-26.564 c 0.047,-0.85 0.783,-1.545 1.633,-1.545 h 43.335 c 0.85,0 1.584,0.695 1.633,1.545 z"
             style="fill:#8e9498;fill-opacity:1;fill-rule:nonzero;stroke:none"
             id="path22" /></g></g></g><g
       id="g24"><g
         id="g26"><g
           id="g32"><g
             id="g34"><path
               d="m 283.004,575.636 1.534,-27.076 h 43.583 l 1.742,27.076 z"
               style="fill:url(#linearGradient44);stroke:none"
               id="path46" /></g></g></g></g><g
       id="g48"><g
         id="g50"><g
           id="g56"><g
             id="g58"><path
               d="m 287.544,560.408 -2.837,-11.848 h 43.252 l -2.627,11.848 z"
               style="fill:url(#linearGradient64);stroke:none"
               id="path66" /></g></g></g></g><g
       id="g68"><g
         id="g70"
         clip-path="url(#clipPath74)"><g
           id="g76"
           transform="translate(331.0918,577.1343)"><path
             d="m 0,0 c 0.049,0.851 -0.609,1.545 -1.459,1.545 h -46.604 c -0.849,0 -1.506,-0.694 -1.46,-1.545 l 1.463,-28.494 c 0.047,-0.85 0.783,-1.545 1.633,-1.545 h 43.335 c 0.85,0 1.584,0.695 1.633,1.545 z"
             style="fill:none;stroke:#231f20;stroke-width:0.5;stroke-linecap:butt;stroke-linejoin:round;stroke-miterlimit:14.336;stroke-dasharray:none;stroke-opacity:1"
             id="path78" /></g><g
           id="g80"
           transform="translate(279.6362,581.0024)"><path
             d="M 0,0 0.698,-4.254 H 52.694 L 53.391,0 Z"
             style="fill:#7dbbdd;fill-opacity:1;fill-rule:nonzero;stroke:none"
             id="path82" /></g><g
           id="g84"
           transform="translate(279.6362,581.0024)"><path
             d="M 0,0 0.698,-4.254 H 52.694 L 53.391,0 Z"
             style="fill:none;stroke:#231f20;stroke-width:0.5;stroke-linecap:butt;stroke-linejoin:round;stroke-miterlimit:14.336;stroke-dasharray:none;stroke-opacity:1"
             id="path86" /></g><g
           id="g88"
           transform="translate(328.6016,592.6274)"><path
             d="m 0,0 c -0.203,0.511 -0.82,0.929 -1.369,0.929 h -41.8 c -0.55,0 -1.167,-0.418 -1.37,-0.929 l -4.566,-11.47 c -0.204,-0.511 0.08,-0.929 0.63,-0.929 H 3.934 c 0.548,0 0.834,0.418 0.629,0.929 z"
             style="fill:#c4dfef;fill-opacity:1;fill-rule:nonzero;stroke:none"
             id="path90" /></g><g
           id="g92"
           transform="translate(328.6016,592.6274)"><path
             d="m 0,0 c -0.203,0.511 -0.82,0.929 -1.369,0.929 h -41.8 c -0.55,0 -1.167,-0.418 -1.37,-0.929 l -4.566,-11.47 c -0.204,-0.511 0.08,-0.929 0.63,-0.929 H 3.934 c 0.548,0 0.834,0.418 0.629,0.929 z"
             style="fill:none;stroke:#231f20;stroke-width:0.5;stroke-linecap:butt;stroke-linejoin:round;stroke-miterlimit:14.336;stroke-dasharray:none;stroke-opacity:1"
             id="path94" /></g><g
           id="g96"
           transform="translate(286.2622,587.7554)"><path
             d="M 0,0 -0.688,-1.723 H 40.828 L 40.14,0 Z"
             style="fill:#231f20;fill-opacity:1;fill-rule:nonzero;stroke:none"
             id="path98" /></g><g
           id="g100"
           transform="translate(286.2622,587.7554)"><path
             d="M 0,0 -0.688,-1.723 H 40.828 L 40.14,0 Z"
             style="fill:none;stroke:#231f20;stroke-width:0.5;stroke-linecap:butt;stroke-linejoin:round;stroke-miterlimit:14.336;stroke-dasharray:none;stroke-opacity:1"
             id="path102" /></g><g
           id="g104"
           transform="translate(303.4663,559.4502)"><path
             d="m 0,0 2.203,-2.07 c 1.86,2.155 2.731,8.858 2.731,18.257 H 0.996 C 0.996,6.585 0.983,1.14 0,0"
             style="fill:#f8a45c;fill-opacity:1;fill-rule:nonzero;stroke:none"
             id="path106" /></g><g
           id="g108"
           transform="translate(303.4663,559.4502)"><path
             d="m 0,0 2.203,-2.07 c 1.86,2.155 2.731,8.858 2.731,18.257 H 0.996 C 0.996,6.585 0.983,1.14 0,0 Z"
             style="fill:none;stroke:#231f20;stroke-width:0.3;stroke-linecap:butt;stroke-linejoin:miter;stroke-miterlimit:4;stroke-dasharray:none;stroke-opacity:1"
             id="path110" /></g><g
           id="g112"
           transform="translate(297.6499,559.7725)"><path
             d="M 0,0 1.426,-2.712 C 5.402,-0.428 6.439,7.562 6.441,15.864 H 2.506 C 2.506,12.342 2.987,1.717 0,0"
             style="fill:#f8a45c;fill-opacity:1;fill-rule:nonzero;stroke:none"
             id="path114" /></g><g
           id="g116"
           transform="translate(297.6499,559.7725)"><path
             d="M 0,0 1.426,-2.712 C 5.402,-0.428 6.439,7.562 6.441,15.864 H 2.506 C 2.506,12.342 2.987,1.717 0,0 Z"
             style="fill:none;stroke:#231f20;stroke-width:0.3;stroke-linecap:butt;stroke-linejoin:miter;stroke-miterlimit:4;stroke-dasharray:none;stroke-opacity:1"
             id="path118" /></g><g
           id="g120"
           transform="translate(291.7402,559.8687)"><path
             d="m 0,0 1.018,-2.906 c 6.618,2.529 7.113,13.417 7.113,18.674 H 4.199 C 4.199,11.565 4.675,1.786 0,0"
             style="fill:#f8a45c;fill-opacity:1;fill-rule:nonzero;stroke:none"
             id="path122" /></g><g
           id="g124"
           transform="translate(291.7402,559.8687)"><path
             d="m 0,0 1.018,-2.906 c 6.618,2.529 7.113,13.417 7.113,18.674 H 4.199 C 4.199,11.565 4.675,1.786 0,0 Z"
             style="fill:none;stroke:#231f20;stroke-width:0.3;stroke-linecap:butt;stroke-linejoin:miter;stroke-miterlimit:4;stroke-dasharray:none;stroke-opacity:1"
             id="path126" /></g><g
           id="g128"
           transform="translate(285.7896,559.9067)"><path
             d="M 0,0 0.783,-2.984 C 9.41,-0.515 9.908,10.849 9.908,15.73 H 5.972 C 5.972,11.208 6.45,1.845 0,0"
             style="fill:#f8a45c;fill-opacity:1;fill-rule:nonzero;stroke:none"
             id="path130" /></g><g
           id="g132"
           transform="translate(285.7896,559.9067)"><path
             d="M 0,0 0.783,-2.984 C 9.41,-0.515 9.908,10.849 9.908,15.73 H 5.972 C 5.972,11.208 6.45,1.845 0,0 Z"
             style="fill:none;stroke:#231f20;stroke-width:0.3;stroke-linecap:butt;stroke-linejoin:miter;stroke-miterlimit:4;stroke-dasharray:none;stroke-opacity:1"
             id="path134" /></g><g
           id="g136"
           transform="translate(315.041,559.7725)"><path
             d="m 0,0 -1.426,-2.712 c -3.976,2.284 -5.015,10.274 -5.015,18.576 h 3.935 C -2.506,12.342 -2.986,1.717 0,0"
             style="fill:#f8a45c;fill-opacity:1;fill-rule:nonzero;stroke:none"
             id="path138" /></g><g
           id="g140"
           transform="translate(315.041,559.7725)"><path
             d="m 0,0 -1.426,-2.712 c -3.976,2.284 -5.015,10.274 -5.015,18.576 h 3.935 C -2.506,12.342 -2.986,1.717 0,0 Z"
             style="fill:none;stroke:#231f20;stroke-width:0.3;stroke-linecap:butt;stroke-linejoin:miter;stroke-miterlimit:4;stroke-dasharray:none;stroke-opacity:1"
             id="path142" /></g><g
           id="g144"
           transform="translate(320.9473,559.8687)"><path
             d="m 0,0 -1.016,-2.906 c -6.617,2.529 -7.115,13.417 -7.115,18.674 h 3.938 C -4.193,11.565 -4.672,1.786 0,0"
             style="fill:#f8a45c;fill-opacity:1;fill-rule:nonzero;stroke:none"
             id="path146" /></g><g
           id="g148"
           transform="translate(320.9473,559.8687)"><path
             d="m 0,0 -1.016,-2.906 c -6.617,2.529 -7.115,13.417 -7.115,18.674 h 3.938 C -4.193,11.565 -4.672,1.786 0,0 Z"
             style="fill:none;stroke:#231f20;stroke-width:0.3;stroke-linecap:butt;stroke-linejoin:miter;stroke-miterlimit:4;stroke-dasharray:none;stroke-opacity:1"
             id="path150" /></g><g
           id="g152"
           transform="translate(326.9023,559.9067)"><path
             d="M 0,0 -0.785,-2.984 C -9.412,-0.515 -9.91,10.849 -9.91,15.73 h 3.935 C -5.975,11.208 -6.451,1.845 0,0"
             style="fill:#f8a45c;fill-opacity:1;fill-rule:nonzero;stroke:none"
             id="path154" /></g><g
           id="g156"
           transform="translate(326.9023,559.9067)"><path
             d="M 0,0 -0.785,-2.984 C -9.412,-0.515 -9.91,10.849 -9.91,15.73 h 3.935 C -5.975,11.208 -6.451,1.845 0,0 Z"
             style="fill:none;stroke:#231f20;stroke-width:0.3;stroke-linecap:butt;stroke-linejoin:miter;stroke-miterlimit:4;stroke-dasharray:none;stroke-opacity:1"
             id="path158" /></g><g
           id="g160"
           transform="translate(308.3613,583.2217)"><path
             d="m 0,0 c 0,-0.624 -0.908,-1.129 -2.028,-1.129 -1.121,0 -2.031,0.505 -2.031,1.129 0,0.625 0.91,1.13 2.031,1.13 C -0.908,1.13 0,0.625 0,0"
             style="fill:#c60e3d;fill-opacity:1;fill-rule:nonzero;stroke:none"
             id="path162" /></g><g
           id="g164"
           transform="translate(308.3613,583.2217)"><path
             d="m 0,0 c 0,-0.624 -0.908,-1.129 -2.028,-1.129 -1.121,0 -2.031,0.505 -2.031,1.129 0,0.625 0.91,1.13 2.031,1.13 C -0.908,1.13 0,0.625 0,0 Z"
             style="fill:none;stroke:#231f20;stroke-width:0.3;stroke-linecap:butt;stroke-linejoin:round;stroke-miterlimit:14.336;stroke-dasharray:none;stroke-opacity:1"
             id="path166" /></g><g
           id="g168"
           transform="translate(308.3613,583.7646)"><path
             d="m 0,0 c 0,-0.623 -0.908,-1.13 -2.028,-1.13 -1.121,0 -2.031,0.507 -2.031,1.13 0,0.625 0.91,1.13 2.031,1.13 C -0.908,1.13 0,0.625 0,0"
             style="fill:#f0374b;fill-opacity:1;fill-rule:nonzero;stroke:none"
             id="path170" /></g><g
           id="g172"
           transform="translate(308.3613,583.7646)"><path
             d="m 0,0 c 0,-0.623 -0.908,-1.13 -2.028,-1.13 -1.121,0 -2.031,0.507 -2.031,1.13 0,0.625 0.91,1.13 2.031,1.13 C -0.908,1.13 0,0.625 0,0 Z"
             style="fill:none;stroke:#231f20;stroke-width:0.3;stroke-linecap:butt;stroke-linejoin:round;stroke-miterlimit:14.336;stroke-dasharray:none;stroke-opacity:1"
             id="path174" /></g></g></g><g
       id="g176"><g
         id="g178"
         clip-path="url(#clipPath182)"><path
           d="m 287.311,607.787 h 38.042 v -42.01 h -38.042 z"
           style="fill:#e0e0e0;fill-opacity:1;fill-rule:nonzero;stroke:#231f20;stroke-width:0.5;stroke-linecap:butt;stroke-linejoin:round;stroke-miterlimit:10;stroke-dasharray:none;stroke-opacity:1"
           id="path184" /><path
           d="m 289.1,605.996 h 34.46 V 567.567 H 289.1 Z"
           style="fill:#ffffff;fill-opacity:1;fill-rule:nonzero;stroke:none"
           id="path186" /><g
           id="g188"
           transform="translate(294.6279,605.9941)"><path
             d="m 0,0 h 24.554 c -2.106,-0.312 -4.477,-0.356 -6.36,-0.891 -3.371,0.551 -8.344,0.588 -11.705,0 C 4.522,-0.398 2.15,-0.307 0,0"
             style="fill:#ffffff;fill-opacity:1;fill-rule:evenodd;stroke:none"
             id="path190" /></g><g
           id="g192"
           transform="translate(291.9556,605.23)"><path
             d="M 0,0 C 2.158,0.252 3.742,-1.177 4.96,-2.29 4.599,-2.862 4.291,-3.486 4.197,-4.325 c 0.085,-0.382 0.273,0.12 0.51,0 C 4.488,-4.531 4.656,-5.124 4.197,-5.088 3.438,-2.752 1.974,-1.123 0,0"
             style="fill:#f9aeca;fill-opacity:1;fill-rule:evenodd;stroke:none"
             id="path194" /></g><g
           id="g196"
           transform="translate(293.9937,605.23)"><path
             d="M 0,0 C 1.858,0.334 3.853,-0.299 5.723,-0.381 5.076,-0.963 3.329,-1.124 3.433,-2.036 2.544,-1.607 1.598,-0.139 0,0"
             style="fill:#f9a75e;fill-opacity:1;fill-rule:evenodd;stroke:none"
             id="path198" /></g><g
           id="g200"
           transform="translate(307.4746,602.0488)"><path
             d="M 0,0 C 0.039,-0.827 -0.307,-2.421 0.129,-3.434 -0.557,-2.617 -0.389,-1.01 0,0"
             style="fill:#231f20;fill-opacity:1;fill-rule:evenodd;stroke:none"
             id="path202" /></g><g
           id="g204"
           transform="translate(303.6616,596.8325)"><path
             d="M 0,0 C -0.736,-0.509 -1.758,-1.304 -2.925,-0.635 -3.268,-0.382 -3.2,0.279 -3.691,0.382 h -0.51 C -4.239,-1.797 -0.34,-1.975 0,0 M 2.035,-0.509 C 1.711,-0.627 0.862,-0.519 0.762,-0.254 -0.288,-2.234 -4.357,-2.258 -4.835,0.256 -5.352,0.219 -5.72,0.036 -6.235,0 c 1.852,1.83 6.667,0.917 8.27,-0.509"
             style="fill:#231f20;fill-opacity:1;fill-rule:evenodd;stroke:none"
             id="path206" /></g><g
           id="g208"
           transform="translate(313.584,597.2144)"><path
             d="m 0,0 c -0.25,-0.723 -0.695,-1.201 -1.398,-1.272 -0.973,-0.101 -1.397,0.697 -2.165,0.89 C -3.07,-2.269 0.529,-2.17 0.764,-0.125 0.613,0.019 0.316,0.018 0,0 M 2.799,-0.252 C 2.432,-0.615 1.902,-0.056 1.4,-0.125 0.895,-2.519 -3.197,-2.747 -4.199,-0.636 c -0.002,-0.329 -0.653,-0.143 -1.27,-0.381 1.436,1.725 6.203,2.268 8.268,0.765"
             style="fill:#231f20;fill-opacity:1;fill-rule:evenodd;stroke:none"
             id="path210" /></g><g
           id="g212"
           transform="translate(299.4609,597.2144)"><path
             d="M 0,0 H 0.509 C 1,-0.103 0.933,-0.764 1.275,-1.017 2.443,-1.686 3.464,-0.891 4.201,-0.382 3.861,-2.357 -0.039,-2.179 0,0"
             style="fill:#96cd56;fill-opacity:1;fill-rule:evenodd;stroke:none"
             id="path214" /></g><g
           id="g216"
           transform="translate(314.3477,597.0889)"><path
             d="m 0,0 c -0.234,-2.045 -3.834,-2.144 -4.326,-0.256 0.767,-0.194 1.191,-0.992 2.164,-0.89 0.703,0.071 1.148,0.548 1.398,1.271 C -0.447,0.143 -0.15,0.145 0,0"
             style="fill:#96cd56;fill-opacity:1;fill-rule:evenodd;stroke:none"
             id="path218" /></g><g
           id="g220"
           transform="translate(306.9683,594.4146)"><path
             d="M 0,0 C 0.479,0.033 0.819,0.202 1.02,0.509 H 0 Z M -0.255,0 C -0.037,0.686 -0.692,0.497 -1.146,0.509 -1.08,0.108 -0.563,0.157 -0.255,0 M 1.147,0.638 C 1.559,-0.154 0.194,0.063 0,-0.507 1.303,-0.858 2.745,-1.071 3.18,-2.29 c -1.486,1.502 -5.108,1.416 -6.614,0 0.491,1.164 1.903,1.407 3.179,1.783 -0.141,0.492 -0.915,0.354 -1.143,0.762 v 0.383 c 0.572,0.193 1.975,0.225 2.545,0"
             style="fill:#231f20;fill-opacity:1;fill-rule:evenodd;stroke:none"
             id="path222" /></g><g
           id="g224"
           transform="translate(305.8228,594.9233)"><path
             d="M 0,0 C 0.453,-0.012 1.108,0.177 0.891,-0.509 0.583,-0.352 0.065,-0.401 0,0"
             style="fill:#f9aeca;fill-opacity:1;fill-rule:evenodd;stroke:none"
             id="path226" /></g><g
           id="g228"
           transform="translate(306.9683,594.9233)"><path
             d="M 0,0 H 1.02 C 0.819,-0.307 0.479,-0.476 0,-0.509 Z"
             style="fill:#f9aeca;fill-opacity:1;fill-rule:evenodd;stroke:none"
             id="path230" /></g><g
           id="g232"
           transform="translate(300.9902,594.1602)"><path
             d="M 0,0 C 0.174,0.292 0.884,0.048 1.269,0.128 1.093,-0.162 0.385,0.081 0,0"
             style="fill:#231f20;fill-opacity:1;fill-rule:evenodd;stroke:none"
             id="path234" /></g><g
           id="g236"
           transform="translate(311.5488,594.1602)"><path
             d="M 0,0 C 0.262,0.292 1.059,0.048 1.527,0.128 1.27,-0.163 0.471,0.082 0,0"
             style="fill:#231f20;fill-opacity:1;fill-rule:evenodd;stroke:none"
             id="path238" /></g><g
           id="g240"
           transform="translate(304.4233,594.0342)"><path
             d="M 0,0 C -0.845,-0.598 -2.191,-0.691 -3.306,-1.019 -2.375,-0.51 -1.426,-0.016 0,0"
             style="fill:#231f20;fill-opacity:1;fill-rule:evenodd;stroke:none"
             id="path242" /></g><g
           id="g244"
           transform="translate(308.3672,588.8184)"><path
             d="m 0,0 c -1.008,-0.169 -1.965,-0.227 -2.67,-0.129 -0.82,0.114 1.245,0.064 1.777,0.253 C -0.486,0.188 -0.439,-0.103 0,0"
             style="fill:#231f20;fill-opacity:1;fill-rule:evenodd;stroke:none"
             id="path246" /></g><g
           id="g248"
           transform="translate(302.1343,576.7305)"><path
             d="M 0,0 C -0.904,-0.583 -1.178,-1.795 -1.527,-2.929 -2.771,-2.4 -1.527,0.312 0,0"
             style="fill:#f9a75e;fill-opacity:1;fill-rule:evenodd;stroke:none"
             id="path250" /></g><g
           id="g252"
           transform="translate(311.6777,576.6011)"><path
             d="M 0,0 C 0.002,0.124 0.156,0.101 0.254,0.129 0.541,0.092 1,-0.009 1.271,-0.252 1.857,-0.774 2.346,-2.37 1.525,-2.799 1.121,-2.193 1.025,-0.387 0,0"
             style="fill:#f9a75e;fill-opacity:1;fill-rule:evenodd;stroke:none"
             id="path254" /></g><g
           id="g256"
           transform="translate(320.2031,576.2202)"><path
             d="M 0,0 C 0.533,0.384 1.387,-1.097 0.508,-1.399 0.248,-1.021 0.41,-0.222 0,0"
             style="fill:#f9a75e;fill-opacity:1;fill-rule:evenodd;stroke:none"
             id="path258" /></g><g
           id="g260"
           transform="translate(291.9556,605.9941)"><path
             d="M 0,0 C -0.271,-0.238 -0.937,-0.081 -1.146,-0.383 0.934,-1.961 3.833,-3.77 3.943,-6.998 4,-8.622 3.044,-10.153 3.307,-12.215 c 0.038,-0.54 0.537,0.082 0.636,-0.255 -0.006,-1.023 0.26,-1.774 0.893,-2.164 0.269,-0.059 0.241,0.182 0.254,0.383 0.636,-0.379 1.197,-0.835 1.781,-1.272 0.004,-2.761 -1.432,-4.082 -1.911,-6.363 -3.502,1.718 -6.305,-2.206 -4.325,-5.216 -0.888,-1.144 -2.177,-1.893 -2.799,-3.307 0.333,-0.073 1.09,0.519 1.528,0.764 -0.182,-0.928 -1.204,-3.256 -0.256,-4.583 0.357,0.068 0.234,0.613 0.383,0.892 0.446,-1.165 0.826,-2.397 1.909,-2.927 0.296,0.108 -0.007,0.656 -0.129,0.764 1.308,-0.941 2.75,-2.849 5.471,-2.799 0.116,0.247 -0.631,0.719 -1.018,0.891 1.491,-0.101 3.759,-1.369 5.726,-0.638 -0.293,0.173 -0.567,0.368 -1.017,0.383 3.553,0.011 6.174,0.952 8.397,2.291 -0.096,0.286 -0.715,0.048 -1.016,0.124 0.799,0.265 1.674,0.447 2.416,0.765 -1.559,0.309 -2.967,0.763 -4.711,0.892 0.043,0.174 0.322,0.106 0.514,0.125 -0.229,0.495 -0.979,0.465 -1.655,0.51 0.322,0.398 0.537,0.904 0.508,1.657 0.196,-0.313 0.19,-0.83 0.256,-1.275 1.836,-1.28 4.963,-0.012 6.869,0.255 2.715,0.38 7.739,-0.786 7.762,1.781 0.008,0.948 -0.879,1.356 -1.781,1.654 0.631,1.122 1.888,2.319 1.91,4.073 0.025,2.359 -2.348,4.053 -4.965,2.924 -0.539,2.218 -1.955,3.559 -1.908,6.363 0.543,0.374 1.459,1.591 1.908,0.889 0.678,0.427 1.037,1.17 1.02,2.292 0.236,0.121 0.423,-0.381 0.507,0 0.536,2.03 -0.691,3.664 -0.636,5.344 0.105,3.172 3.144,4.899 5.089,6.615 -0.128,0.295 -0.584,0.263 -1.015,0.256 V 0 h 1.144 V -38.425 H -2.291 V 0 Z"
             style="fill:#ffffff;fill-opacity:1;fill-rule:evenodd;stroke:none"
             id="path262" /></g><g
           id="g264"
           transform="translate(314.0957,604.7212)"><path
             d="M 0,0 C 1.645,0.434 3.58,0.575 5.598,0.637 4.385,0.023 3.084,-0.499 2.416,-1.654 2.348,-0.824 0.951,-0.355 0,0"
             style="fill:#f9a75e;fill-opacity:1;fill-rule:evenodd;stroke:none"
             id="path266" /></g><g
           id="g268"
           transform="translate(317.0215,600.9053)"><path
             d="M 0,0 C 0.07,0.368 0.197,-0.197 0.379,-0.128 0.777,0.493 0.184,1.342 -0.129,2.035 1.045,3.28 2.453,4.287 4.707,4.453 2.881,3.098 1.248,1.548 0.508,-0.892 0.256,-0.678 0.305,-0.162 0,0"
             style="fill:#f9aeca;fill-opacity:1;fill-rule:evenodd;stroke:none"
             id="path270" /></g><g
           id="g272"
           transform="translate(307.4746,588.9424)"><path
             d="m 0,0 c -0.533,-0.189 -2.597,-0.139 -1.778,-0.253 0.705,-0.098 1.663,-0.04 2.671,0.129 C 0.453,-0.227 0.406,0.063 0,0 m -1.141,1.401 c 0.357,0.417 0.791,0.105 1.27,0 0.066,0.678 -1.688,0.375 -1.27,0 M 0.514,1.912 C 0.141,1.967 -0.299,2.618 -0.506,2.418 -0.313,2.185 0.129,1.537 0.514,1.912 m -2.166,0 C -1.169,1.859 -0.577,2.354 -0.761,2.547 -0.967,2.245 -1.417,2.185 -1.652,1.912 M 5.475,2.547 C 4.404,3.13 3.451,4.506 2.164,4.456 3.287,3.923 4.443,2.746 5.475,2.547 M -6.484,2.418 c 0.952,0.828 2.243,1.317 3.179,2.164 C -4.659,4.238 -5.992,3.198 -6.484,2.418 M 5.219,4.073 C 5.57,4.055 5.398,4.033 5.092,4.2 4.256,4.659 2.822,5.198 1.787,4.965 3.525,4.599 4.195,4.131 5.219,4.073 m -11.576,0 c 1.114,0.328 2.461,0.421 3.306,1.019 C -4.477,5.076 -5.426,4.582 -6.357,4.073 M 5.602,5.346 C 5.133,5.266 4.336,5.51 4.074,5.218 4.545,5.3 5.344,5.055 5.602,5.346 m -10.817,0 C -5.6,5.266 -6.311,5.509 -6.484,5.218 c 0.385,0.081 1.093,-0.162 1.269,0.128 m -1.78,0.508 C -6.48,5.465 -5.03,5.446 -4.452,5.981 -5.229,5.544 -7.018,5.871 -6.995,5.854 m 12.597,0 C 4.758,5.46 3.486,6.006 3.059,5.981 3.6,5.696 5.018,5.297 5.602,5.854 M -1.905,6.11 V 5.727 C -1.676,5.319 -0.903,5.458 -0.761,4.965 -2.038,4.589 -3.45,4.346 -3.94,3.183 c 1.506,1.416 5.128,1.502 6.614,0 -0.436,1.218 -1.877,1.431 -3.18,1.782 0.193,0.571 1.559,0.353 1.147,1.145 -0.571,0.225 -1.974,0.193 -2.546,0 M 0.641,7.255 C 1.258,7.493 1.908,7.307 1.91,7.636 2.912,5.525 7.004,5.753 7.51,8.146 8.012,8.216 8.541,7.657 8.908,8.02 6.844,9.523 2.076,8.98 0.641,7.255 M -10.048,7.89 c 0.515,0.036 0.883,0.219 1.4,0.256 0.478,-2.514 4.547,-2.49 5.597,-0.51 0.1,-0.265 0.949,-0.373 1.273,-0.255 -1.603,1.427 -6.418,2.339 -8.27,0.509 m 8.907,2.291 c -0.504,-1.003 0.142,-0.298 0.252,0.509 0.116,0.849 -0.037,1.974 -0.379,2.29 0.209,-0.766 0.101,-1.849 0.127,-2.799 M 0.129,9.672 C -0.307,10.686 0.039,12.279 0,13.106 -0.389,12.097 -0.557,10.49 0.129,9.672 m 7.639,4.961 c 0.529,-0.358 1.041,-0.737 1.523,-1.145 0.041,-0.258 -0.367,0.028 -0.383,0.128 -0.289,-0.257 0.59,-0.423 0.51,-0.89 -0.26,0.037 -0.25,0.343 -0.51,0.38 C 9.703,11.228 10.391,8.142 10.561,5.218 9.82,5.029 10.207,3.71 9.801,3.183 9.486,3.305 9.977,3.67 9.801,4.073 9.271,3.458 8.869,2.714 8.02,2.418 8.229,2.76 8.559,2.983 8.783,3.31 6.98,1.845 3.836,0.624 0.514,0.256 2.986,-0.097 5.283,0.83 7,1.656 c -0.023,-4.152 3.967,-9.118 0.639,-12.851 0.086,-0.279 0.422,0.242 0.507,0.381 0.399,-0.205 -0.261,-0.403 -0.253,-0.635 1.449,1.21 2.283,3.7 1.654,6.234 4.33,1.715 5.027,-4.184 2.545,-5.98 -0.596,-0.058 -0.819,0.252 -1.274,0 0.129,-0.21 0.541,-0.138 0.764,-0.254 -0.26,-0.291 -1.059,-0.047 -1.527,-0.129 1.478,-0.343 3.009,-0.634 2.674,-2.797 -0.483,-0.071 -0.799,-0.311 -1.403,-0.254 -0.105,1.334 -0.377,2.504 -1.652,2.67 0.988,-0.346 1.555,-1.579 1.271,-2.797 C 9.59,-14.919 7.879,-15 6.746,-15.012 c 0.156,2.107 -0.75,3.152 -2.418,3.434 -0.092,1.051 -0.334,1.958 -0.383,3.057 0.414,0.771 1.221,1.154 1.147,2.414 -0.264,-0.58 -0.619,-1.075 -1.018,-1.525 -0.172,0.039 -0.105,0.318 -0.129,0.508 -0.533,-1.247 -0.611,-3.103 -0.252,-4.579 -0.664,-0.312 -1.269,-0.681 -1.654,-1.274 0.623,0.141 1.049,0.479 1.654,0.636 0.912,-0.485 1.256,-1.542 1.399,-2.8 -0.309,-0.197 -0.543,-0.472 -1.147,-0.38 0.098,1.328 -0.418,2.039 -1.142,2.544 0.408,-0.502 0.892,-1.533 0.508,-2.416 -0.877,-0.259 -2.44,-0.17 -3.182,0.126 -0.356,2.697 -0.305,5.8 -0.89,8.271 -0.224,-2.788 -0.128,-5.894 -0.634,-8.397 -0.971,-0.059 -2.266,-0.293 -3.181,0 -0.253,0.835 0.085,1.75 0.507,2.289 -0.521,-0.116 -1.197,-1.176 -1.017,-2.417 -0.582,-0.115 -0.724,0.211 -1.144,0.254 0.036,1.407 0.405,2.475 1.397,2.926 0.534,-0.146 0.952,-0.406 1.4,-0.636 0.002,0.433 -0.88,1.068 -1.525,1.274 0.5,1.288 0.245,3.501 -0.128,4.707 -0.278,0.021 -0.057,-0.451 -0.129,-0.636 -0.336,0.466 -0.857,0.753 -0.889,1.525 -0.368,-0.96 0.408,-1.88 1.018,-2.288 -0.213,-1.015 -0.157,-2.304 -0.51,-3.183 -1.639,-0.216 -2.625,-1.65 -2.289,-3.434 -1.532,0.041 -3.135,0.006 -4.327,0.383 -0.036,1.354 0.24,2.391 1.399,2.544 -1.175,0.285 -1.662,-1.22 -1.653,-2.544 -0.606,-0.057 -0.918,0.183 -1.399,0.254 -0.498,1.797 0.925,2.702 2.67,2.672 -0.259,0.29 -1.053,0.046 -1.525,0.125 0.018,0.278 0.321,0.275 0.635,0.256 -0.157,0.538 -0.688,0.042 -1.145,0.127 -2.575,1.822 -1.884,7.62 2.547,5.98 -0.74,-2.481 0.219,-4.997 1.525,-6.234 0.278,0.085 -0.241,0.424 -0.381,0.508 0.114,0.346 0.284,-0.289 0.51,-0.254 -0.739,1.466 -1.318,2.984 -1.147,4.835 0.265,2.874 2.244,4.872 2.036,8.016 1.709,-0.921 3.712,-1.551 6.362,-1.528 -2.965,0.768 -6.179,1.288 -8.017,3.182 -0.135,-0.148 0.375,-0.721 0.637,-0.892 -0.552,0.086 -1.386,0.991 -1.781,1.655 -0.347,-0.117 0.177,-0.398 0,-0.763 -0.468,0.444 -0.24,2.046 -0.764,2.036 0.186,2.91 0.637,5.557 1.655,7.634 -0.041,0.27 -0.394,-0.182 -0.511,-0.254 -0.135,0.101 0.233,0.775 0.638,0.762 -0.807,-0.02 0.401,0.927 1.019,1.018 -0.129,0.358 -0.542,-0.034 -0.764,0 4.617,2.013 13.377,1.808 18.193,0.127 -0.156,-0.386 -0.437,0.138 -0.759,0"
             style="fill:#f9a75e;fill-opacity:1;fill-rule:evenodd;stroke:none"
             id="path274" /></g><g
           id="g276"
           transform="translate(299.8438,573.1675)"><path
             d="M 0,0 C 0.017,0.365 0.874,-0.109 0.893,0.253 0.485,0.443 -0.263,0.33 0,0 m 20.867,1.654 c 0.879,0.302 0.026,1.783 -0.508,1.399 0.411,-0.222 0.248,-1.021 0.508,-1.399 m -28.12,0.51 c 0.162,-0.218 0.264,-0.503 0.636,-0.51 -0.194,0.749 0.403,1.374 0.256,1.653 C -6.64,2.907 -7.225,2.815 -7.253,2.164 M 13.359,0.634 C 14.18,1.063 13.691,2.66 13.105,3.182 12.834,3.425 12.375,3.526 12.088,3.563 11.99,3.534 11.836,3.558 11.834,3.434 c 1.025,-0.388 1.121,-2.193 1.525,-2.8 m -12.596,0 C 1.112,1.768 1.387,2.98 2.291,3.563 0.763,3.875 -0.48,1.163 0.763,0.634 m -3.18,-5.469 c -0.471,0.505 -0.998,0.958 -1.147,1.782 1.237,-0.97 3.278,-1.813 5.091,-1.782 -0.538,0.187 -1.449,0.669 -1.401,1.017 2.865,-0.814 6.758,-0.3 8.782,0.89 -0.568,0.071 -1.176,0.102 -1.529,0.384 1.06,0.296 2.256,0.459 3.182,0.889 -1.758,0.406 -3.836,0.49 -5.599,0.892 0.079,0.175 0.489,0.017 0.506,0.253 -1.454,0.098 -3.15,-0.24 -4.195,-0.128 -0.037,0.295 0.366,0.141 0.381,0.384 -1.123,-0.065 -2.629,-0.423 -3.689,-0.128 0.389,0.16 0.909,0.193 1.018,0.635 -2.356,0.202 -7.228,-0.07 -6.744,2.417 0.166,0.862 1.22,0.936 1.911,1.527 -0.39,0.208 -0.798,0.393 -0.896,0.891 -0.659,-0.355 -1.201,-0.831 -1.651,-1.399 0.41,0.057 0.689,0.245 1.144,0.255 -0.69,-0.881 -1.578,-2.237 -1.271,-3.691 0.04,0.298 0.128,0.549 0.382,0.639 0.159,-1.114 0.36,-2.186 0.889,-2.928 0.081,0.387 -0.163,1.097 0.126,1.273 0.946,-1.898 2.747,-3.616 4.71,-4.072 m 20.103,31.681 c 0.74,2.44 2.373,3.989 4.199,5.344 -2.254,-0.165 -3.662,-1.172 -4.836,-2.418 0.312,-0.692 0.906,-1.541 0.508,-2.163 -0.182,-0.068 -0.309,0.497 -0.379,0.129 0.304,-0.162 0.256,-0.678 0.508,-0.892 M 16.668,29.9 c 0.668,1.155 1.969,1.677 3.182,2.29 -2.018,-0.062 -3.954,-0.202 -5.598,-0.636 0.951,-0.355 2.348,-0.825 2.416,-1.654 m -19.085,0.126 c -0.104,0.913 1.643,1.073 2.29,1.655 -1.871,0.083 -3.865,0.715 -5.723,0.382 1.598,-0.14 2.544,-1.608 3.433,-2.037 m -1.274,-3.051 c 0.459,-0.037 0.291,0.556 0.509,0.763 -0.236,0.119 -0.424,-0.382 -0.509,0 0.093,0.839 0.401,1.463 0.763,2.034 -1.218,1.114 -2.802,2.542 -4.96,2.291 1.974,-1.123 3.437,-2.752 4.197,-5.088 m 19.849,3.433 c -4.816,1.681 -13.576,1.885 -18.193,-0.127 0.222,-0.034 0.635,0.358 0.764,0 -0.618,-0.092 -1.826,-1.038 -1.02,-1.018 -0.404,0.013 -0.772,-0.661 -0.637,-0.763 0.116,0.073 0.47,0.525 0.511,0.255 -1.019,-2.077 -1.469,-4.724 -1.655,-7.634 0.524,0.01 0.296,-1.592 0.763,-2.037 0.178,0.366 -0.346,0.646 0,0.764 0.396,-0.664 1.23,-1.569 1.782,-1.655 -0.262,0.171 -0.772,0.744 -0.637,0.891 1.838,-1.893 5.052,-2.413 8.017,-3.181 C 3.203,15.88 1.2,16.51 -0.509,17.431 -0.301,14.287 -2.28,12.289 -2.545,9.415 -2.716,7.563 -2.137,6.046 -1.398,4.58 -1.625,4.544 -1.794,5.18 -1.908,4.833 -1.768,4.75 -1.25,4.411 -1.527,4.326 -2.833,5.563 -3.792,8.079 -3.052,10.56 -7.483,12.2 -8.174,6.402 -5.6,4.58 -5.142,4.495 -4.611,4.991 -4.455,4.453 -4.768,4.472 -5.071,4.475 -5.089,4.197 -4.617,4.118 -3.823,4.362 -3.564,4.072 -5.31,4.102 -6.732,3.197 -6.234,1.399 -5.753,1.329 -5.441,1.089 -4.835,1.146 -4.844,2.47 -4.357,3.975 -3.182,3.689 -4.341,3.537 -4.617,2.5 -4.581,1.146 -3.389,0.769 -1.786,0.804 -0.254,0.763 -0.59,2.547 0.396,3.98 2.035,4.197 2.388,5.076 2.332,6.365 2.544,7.38 1.935,7.788 1.159,8.708 1.527,9.668 1.559,8.896 2.08,8.609 2.416,8.143 2.488,8.328 2.267,8.8 2.544,8.779 2.917,7.573 3.173,5.36 2.673,4.072 3.318,3.866 4.2,3.231 4.198,2.798 3.75,3.028 3.332,3.288 2.798,3.434 1.806,2.983 1.437,1.915 1.4,0.508 1.821,0.465 1.962,0.139 2.544,0.253 2.365,1.495 3.041,2.555 3.562,2.67 3.14,2.132 2.802,1.217 3.055,0.382 3.97,0.089 5.265,0.323 6.236,0.382 6.742,2.885 6.646,5.991 6.87,8.779 7.455,6.308 7.404,3.205 7.76,0.508 8.502,0.212 10.064,0.123 10.941,0.382 11.326,1.265 10.842,2.296 10.434,2.798 11.158,2.293 11.674,1.582 11.576,0.253 12.18,0.162 12.414,0.437 12.723,0.634 12.58,1.892 12.236,2.949 11.324,3.434 10.719,3.277 10.293,2.938 9.67,2.798 c 0.385,0.593 0.99,0.962 1.654,1.274 -0.359,1.476 -0.281,3.332 0.252,4.579 0.024,-0.19 -0.043,-0.469 0.129,-0.508 0.399,0.45 0.754,0.945 1.018,1.525 0.074,-1.26 -0.733,-1.643 -1.147,-2.415 0.049,-1.098 0.291,-2.005 0.383,-3.056 1.668,-0.282 2.574,-1.327 2.418,-3.434 1.133,0.012 2.844,0.092 4.199,0.256 0.283,1.218 -0.283,2.451 -1.271,2.797 1.275,-0.166 1.547,-1.336 1.652,-2.67 0.604,-0.057 0.92,0.183 1.402,0.253 0.336,2.164 -1.195,2.455 -2.673,2.798 0.468,0.082 1.267,-0.162 1.527,0.129 -0.223,0.116 -0.635,0.044 -0.764,0.254 0.455,0.252 0.678,-0.058 1.274,0 2.482,1.795 1.785,7.695 -2.545,5.98 0.629,-2.534 -0.205,-5.024 -1.655,-6.234 -0.007,0.232 0.653,0.43 0.254,0.635 -0.086,-0.139 -0.422,-0.66 -0.507,-0.381 3.328,3.733 -0.663,8.699 -0.639,12.851 -1.717,-0.827 -4.014,-1.753 -6.486,-1.4 3.322,0.367 6.466,1.589 8.269,3.053 -0.225,-0.326 -0.555,-0.549 -0.764,-0.891 0.85,0.296 1.252,1.039 1.782,1.655 0.175,-0.403 -0.315,-0.768 0,-0.89 0.406,0.527 0.019,1.846 0.759,2.035 -0.17,2.924 -0.857,6.009 -1.652,7.888 0.26,-0.037 0.25,-0.343 0.51,-0.381 0.08,0.468 -0.799,0.634 -0.51,0.891 0.016,-0.1 0.424,-0.386 0.383,-0.128 -0.483,0.407 -0.994,0.787 -1.524,1.145 0.323,0.137 0.604,-0.386 0.76,0 m -24.046,2.419 h 2.672 c 2.151,-0.307 4.522,-0.399 6.489,-0.891 3.361,0.587 8.334,0.55 11.706,0 1.882,0.535 4.253,0.579 6.359,0.891 h 2.676 V 32.7 c 0.431,0.007 0.886,0.039 1.015,-0.256 -1.945,-1.716 -4.984,-3.443 -5.09,-6.615 -0.054,-1.68 1.172,-3.314 0.637,-5.344 -0.084,-0.381 -0.271,0.12 -0.508,0 0.018,-1.122 -0.341,-1.865 -1.019,-2.292 -0.449,0.702 -1.365,-0.515 -1.908,-0.89 -0.047,-2.803 1.369,-4.145 1.908,-6.362 2.617,1.128 4.99,-0.565 4.965,-2.924 C 21.992,6.262 20.734,5.065 20.104,3.944 21.006,3.646 21.893,3.237 21.885,2.29 21.861,-0.277 16.838,0.889 14.123,0.508 12.217,0.241 9.09,-1.026 7.254,0.253 7.188,0.699 7.193,1.215 6.998,1.528 7.027,0.775 6.812,0.27 6.49,-0.128 7.166,-0.174 7.916,-0.143 8.145,-0.638 7.953,-0.658 7.674,-0.589 7.631,-0.763 9.375,-0.892 10.783,-1.347 12.342,-1.655 11.6,-1.974 10.725,-2.156 9.926,-2.42 c 0.301,-0.076 0.92,0.162 1.015,-0.124 -2.222,-1.339 -4.843,-2.28 -8.397,-2.291 0.451,-0.016 0.725,-0.21 1.018,-0.384 -1.967,-0.73 -4.235,0.538 -5.726,0.638 0.387,-0.171 1.134,-0.644 1.018,-0.891 -2.721,-0.049 -4.164,1.858 -5.471,2.8 0.121,-0.109 0.425,-0.656 0.129,-0.765 -1.083,0.53 -1.464,1.762 -1.909,2.927 -0.149,-0.278 -0.026,-0.823 -0.383,-0.891 -0.948,1.327 0.074,3.654 0.256,4.583 -0.438,-0.245 -1.195,-0.838 -1.528,-0.765 0.622,1.415 1.91,2.164 2.799,3.308 -1.98,3.01 0.822,6.934 4.325,5.216 0.479,2.281 1.914,3.602 1.911,6.362 -0.585,0.437 -1.145,0.894 -1.781,1.272 -0.014,-0.2 0.015,-0.441 -0.254,-0.382 -0.633,0.39 -0.899,1.141 -0.893,2.164 -0.099,0.337 -0.598,-0.285 -0.636,0.255 -0.263,2.062 0.693,3.593 0.636,5.217 -0.11,3.228 -3.01,5.037 -5.089,6.615 0.209,0.302 0.875,0.145 1.146,0.383"
             style="fill:#231f20;fill-opacity:1;fill-rule:evenodd;stroke:none"
             id="path278" /></g><g
           id="g280"
           transform="translate(306.2065,601.9224)"><path
             d="M 0,0 C 0.342,-0.316 0.495,-1.441 0.379,-2.29 0.27,-3.097 -0.377,-3.802 0.127,-2.799 0.101,-1.849 0.209,-0.766 0,0"
             style="fill:#231f20;fill-opacity:1;fill-rule:evenodd;stroke:none"
             id="path282" /></g><g
           id="g284"
           transform="translate(310.5332,594.9233)"><path
             d="M 0,0 C 0.428,0.025 1.699,-0.521 2.543,-0.127 1.959,-0.684 0.541,-0.285 0,0"
             style="fill:#231f20;fill-opacity:1;fill-rule:evenodd;stroke:none"
             id="path286" /></g><g
           id="g288"
           transform="translate(303.0229,594.9233)"><path
             d="M 0,0 C -0.578,-0.535 -2.028,-0.516 -2.543,-0.127 -2.566,-0.11 -0.777,-0.437 0,0"
             style="fill:#231f20;fill-opacity:1;fill-rule:evenodd;stroke:none"
             id="path290" /></g><g
           id="g292"
           transform="translate(309.2617,593.9072)"><path
             d="M 0,0 C 1.035,0.233 2.469,-0.306 3.305,-0.765 3.611,-0.932 3.783,-0.91 3.432,-0.892 2.408,-0.833 1.738,-0.366 0,0"
             style="fill:#231f20;fill-opacity:1;fill-rule:evenodd;stroke:none"
             id="path294" /></g><g
           id="g296"
           transform="translate(304.1694,593.5244)"><path
             d="M 0,0 C -0.936,-0.847 -2.227,-1.336 -3.179,-2.164 -2.687,-1.384 -1.354,-0.344 0,0"
             style="fill:#231f20;fill-opacity:1;fill-rule:evenodd;stroke:none"
             id="path298" /></g><g
           id="g300"
           transform="translate(309.6387,593.3979)"><path
             d="M 0,0 C 1.287,0.051 2.24,-1.326 3.311,-1.908 2.279,-1.71 1.123,-0.533 0,0"
             style="fill:#231f20;fill-opacity:1;fill-rule:evenodd;stroke:none"
             id="path302" /></g><g
           id="g304"
           transform="translate(306.7134,591.4897)"><path
             d="M 0,0 C 0.185,-0.193 -0.408,-0.688 -0.891,-0.636 -0.655,-0.362 -0.206,-0.302 0,0"
             style="fill:#231f20;fill-opacity:1;fill-rule:evenodd;stroke:none"
             id="path306" /></g><g
           id="g308"
           transform="translate(306.9683,591.3604)"><path
             d="M 0,0 C 0.208,0.2 0.647,-0.451 1.02,-0.506 0.635,-0.881 0.194,-0.233 0,0"
             style="fill:#231f20;fill-opacity:1;fill-rule:evenodd;stroke:none"
             id="path310" /></g><g
           id="g312"
           transform="translate(307.6035,590.3438)"><path
             d="M 0,0 C -0.479,0.105 -0.913,0.417 -1.27,0 -1.688,0.375 0.066,0.678 0,0"
             style="fill:#231f20;fill-opacity:1;fill-rule:evenodd;stroke:none"
             id="path314" /></g><g
           id="g316"
           transform="translate(292.7168,572.4043)"><path
             d="m 0,0 c -0.289,-0.176 -0.045,-0.886 -0.126,-1.273 -0.529,0.742 -0.73,1.815 -0.889,2.928 -0.254,-0.09 -0.342,-0.341 -0.382,-0.638 -0.307,1.453 0.581,2.81 1.271,3.69 C -0.582,4.697 -0.86,4.509 -1.271,4.453 -0.82,5.02 -0.278,5.497 0.381,5.851 0.479,5.353 0.887,5.168 1.277,4.96 0.586,4.37 -0.468,4.295 -0.634,3.434 -1.118,0.946 3.754,1.218 6.11,1.017 6.001,0.574 5.481,0.542 5.092,0.381 6.152,0.086 7.658,0.444 8.781,0.509 8.766,0.267 8.363,0.42 8.4,0.125 9.445,0.014 11.141,0.352 12.595,0.253 12.578,0.018 12.167,0.175 12.089,0 c 1.763,-0.401 3.841,-0.486 5.599,-0.892 -0.926,-0.43 -2.122,-0.592 -3.182,-0.889 0.353,-0.282 0.961,-0.313 1.529,-0.384 -2.024,-1.19 -5.917,-1.704 -8.782,-0.89 C 7.205,-3.402 8.116,-3.885 8.654,-4.072 6.841,-4.103 4.8,-3.26 3.563,-2.29 3.712,-3.114 4.239,-3.566 4.709,-4.072 2.747,-3.616 0.946,-1.898 0,0"
             style="fill:#f9a75e;fill-opacity:1;fill-rule:evenodd;stroke:none"
             id="path318" /></g><g
           id="g320"
           transform="translate(293.4829,576.4741)"><path
             d="m 0,0 c 0.146,-0.278 -0.45,-0.904 -0.256,-1.653 -0.372,0.007 -0.474,0.292 -0.637,0.51 C -0.864,-0.492 -0.279,-0.399 0,0"
             style="fill:#ffffff;fill-opacity:1;fill-rule:evenodd;stroke:none"
             id="path322" /></g><g
           id="g324"
           transform="translate(300.7363,573.4209)"><path
             d="M 0,0 C -0.019,-0.363 -0.876,0.111 -0.893,-0.253 -1.155,0.076 -0.408,0.19 0,0"
             style="fill:#ffffff;fill-opacity:1;fill-rule:evenodd;stroke:none"
             id="path326" /></g><path
           d="m 289.1,605.996 h 34.46 V 567.567 H 289.1 Z"
           style="fill:none;stroke:#231f20;stroke-width:0.5;stroke-linecap:butt;stroke-linejoin:round;stroke-miterlimit:10;stroke-dasharray:none;stroke-opacity:1"
           id="path328" /></g></g><g
       id="g330"><g
         id="g332"
         clip-path="url(#clipPath336)"><path
           d="m 293.335,571.14 h -0.819 v 2.967 h 0.819 z"
           style="fill:#231f20;fill-opacity:1;fill-rule:nonzero;stroke:none"
           id="path338" /><g
           id="g340"
           transform="translate(298.145,573.6978)"><path
             d="m 0,0 -1.331,-4.297 0.92,-1.229 v 2.252 z"
             style="fill:#231f20;fill-opacity:1;fill-rule:nonzero;stroke:none"
             id="path342" /></g><g
           id="g344"
           transform="translate(300.9053,562.2378)"><path
             d="M 0,0 1.434,4.297 0.309,4.399 Z"
             style="fill:#231f20;fill-opacity:1;fill-rule:nonzero;stroke:none"
             id="path346" /></g><g
           id="g348"
           transform="translate(301.3154,573.5957)"><path
             d="m 0,0 v -2.764 l 0.819,0.411 -0.102,2.046 z"
             style="fill:#231f20;fill-opacity:1;fill-rule:nonzero;stroke:none"
             id="path350" /></g><g
           id="g352"
           transform="translate(306.4331,568.3774)"><path
             d="M 0,0 C -0.513,-0.206 -0.513,-2.354 -0.718,-2.66 -0.922,-2.968 -1.23,-6.345 -1.23,-6.345 l 1.435,3.889 z"
             style="fill:#231f20;fill-opacity:1;fill-rule:nonzero;stroke:none"
             id="path354" /></g><g
           id="g356"
           transform="translate(310.5254,571.3447)"><path
             d="M 0,0 -0.717,-3.173 0.205,-3.991 0.408,-6.037 0.717,-1.74 Z"
             style="fill:#231f20;fill-opacity:1;fill-rule:nonzero;stroke:none"
             id="path358" /></g><g
           id="g360"
           transform="translate(314.9258,574.6196)"><path
             d="m 0,0 -0.92,-1.945 0.611,-3.274 0.719,2.15 -0.615,1.534 z"
             style="fill:#231f20;fill-opacity:1;fill-rule:nonzero;stroke:none"
             id="path362" /></g><g
           id="g364"
           transform="translate(320.7598,564.0806)"><path
             d="M 0,0 C 0,0 1.227,-2.251 1.533,-2.355 1.84,-2.456 2.965,-3.992 2.965,-3.992 l -0.819,-0.613 -1.535,1.74 z"
             style="fill:#231f20;fill-opacity:1;fill-rule:nonzero;stroke:none"
             id="path366" /></g><g
           id="g368"
           transform="translate(289.6499,561.2153)"><path
             d="m 0,0 -2.045,-1.535 c 0,0 -0.205,-1.023 0.102,-1.023 0.308,0 1.842,1.432 1.842,1.432 z"
             style="fill:#231f20;fill-opacity:1;fill-rule:nonzero;stroke:none"
             id="path370" /></g><g
           id="g372"
           transform="translate(306.9351,518.8491)"><path
             d="m 0,0 c 0.284,0.951 0.545,1.57 0.848,2.334 l -2.901,-0.01 c 0.131,-0.271 0.576,-1.379 0.867,-2.326 0.313,-1.018 0.524,-1.939 0.602,-2.537 0.072,0.6 0.281,1.523 0.584,2.539"
             style="fill:#231f20;fill-opacity:1;fill-rule:nonzero;stroke:none"
             id="path374" /></g><g
           id="g376"
           transform="translate(306.3335,520.5542)"><path
             d="M 0,0 V 26.417"
             style="fill:none;stroke:#231f20;stroke-width:0.5;stroke-linecap:butt;stroke-linejoin:miter;stroke-miterlimit:4;stroke-dasharray:none;stroke-opacity:1"
             id="path378" /></g><g
           id="g380"
           transform="translate(306.9351,610.6079)"><path
             d="m 0,0 c 0.284,0.951 0.545,1.57 0.848,2.334 l -2.901,-0.01 c 0.131,-0.271 0.576,-1.379 0.867,-2.326 0.313,-1.018 0.524,-1.939 0.602,-2.537 0.072,0.6 0.281,1.523 0.584,2.539"
             style="fill:#231f20;fill-opacity:1;fill-rule:nonzero;stroke:none"
             id="path382" /></g><g
           id="g384"
           transform="translate(306.3335,612.313)"><path
             d="M 0,0 V 14.687"
             style="fill:none;stroke:#231f20;stroke-width:0.5;stroke-linecap:butt;stroke-linejoin:miter;stroke-miterlimit:4;stroke-dasharray:none;stroke-opacity:1"
             id="path386" /></g><g
           id="g388"
           transform="translate(259.2778,510.0967)"><path
             d="M 0,0 V 0 C 0,4.197 10.985,7.599 24.536,7.599 38.088,7.599 49.074,4.197 49.074,0 49.074,-4.196 38.088,-7.596 24.536,-7.596 10.985,-7.596 0,-4.196 0,0 Z"
             style="fill:none;stroke:#d91920;stroke-width:0.5;stroke-linecap:butt;stroke-linejoin:round;stroke-miterlimit:4;stroke-dasharray:none;stroke-opacity:1"
             id="path390" /></g><text
           transform="matrix(1,0,0,-1,184.458,539.4912)"
           style="font-variant:normal;font-weight:bold;font-stretch:condensed;font-size:9px;font-family:'Humanst521 Cn BT';-inkscape-font-specification:Humanist521BT-BoldCondensed;writing-mode:lr-tb;fill:#231f20;fill-opacity:1;fill-rule:nonzero;stroke:none"
           id="text400"><tspan
             x="0 4.0500002 6.1830001 9.5760002 13.077 16.073999 18.378 22.653 24.957001 29.466 33.237 36.234001 40.194 43.695 45.999001 50.049 53.442001"
             y="0"
             id="tspan392">First 4 bytes are</tspan><tspan
             x="0 2.997 7.4879999 11.448 13.752 17.351999 21.843 25.802999 29.403 33.588001 37.089001 41.570999 48.312"
             y="9.5039997"
             id="tspan394">the checksum.</tspan><tspan
             x="-3.3299999 1.854 6.2010002 10.683 15.192 17.351999 21.312 23.615999 27.576 32.823002 37.259998 41.310001 45.368999"
             y="-68.022003"
             id="tspan396">Double SHA256</tspan><tspan
             x="169.065 173.02499 178.272 182.709 186.759 190.81799"
             y="-27.719999"
             id="tspan398">SHA256</tspan></text><g
           id="g402"
           transform="translate(266.667,521.3335)"><path
             d="M 0,0 C -8.333,7.333 -17.329,11.026 -30,11.504"
             style="fill:none;stroke:#231f20;stroke-width:0.3;stroke-linecap:butt;stroke-linejoin:miter;stroke-miterlimit:10;stroke-dasharray:none;stroke-opacity:1"
             id="path404" /></g><g
           id="g406"
           transform="translate(267.4844,523.0908)"><path
             d="M 0,0 1.196,-3.543 -2.47,-2.808 Z"
             style="fill:#231f20;fill-opacity:1;fill-rule:nonzero;stroke:none"
             id="path408" /></g><g
           id="g410"
           transform="translate(251.8335,606)"><path
             d="M 0,0 C -3.634,2.786 -10.152,5.107 -16.179,4.884"
             style="fill:none;stroke:#231f20;stroke-width:0.3;stroke-linecap:butt;stroke-linejoin:miter;stroke-miterlimit:10;stroke-dasharray:none;stroke-opacity:1"
             id="path412" /></g><g
           id="g414"
           transform="translate(252.5303,607.8086)"><path
             d="m 0,0 1.433,-3.454 -3.708,0.486 z"
             style="fill:#231f20;fill-opacity:1;fill-rule:nonzero;stroke:none"
             id="path416" /></g><g
           id="g418"
           transform="translate(335.373,565.2407)"><path
             d="M 0,0 C 4.627,0 10.152,5.107 16.18,4.884"
             style="fill:none;stroke:#231f20;stroke-width:0.3;stroke-linecap:butt;stroke-linejoin:miter;stroke-miterlimit:10;stroke-dasharray:none;stroke-opacity:1"
             id="path420" /></g><g
           id="g422"
           transform="translate(335.9199,563.3813)"><path
             d="M 0,0 -3.238,1.87 0,3.74 Z"
             style="fill:#231f20;fill-opacity:1;fill-rule:nonzero;stroke:none"
             id="path424" /></g><g
           id="g426"
           transform="translate(301.9434,609.5518)"><path
             d="m 0,0 c -0.848,0.517 -1.457,0.8 -2.193,1.164 l 2.158,1.937 C 0.05,2.812 0.462,1.692 0.881,0.794 1.331,-0.171 1.793,-0.997 2.136,-1.492 1.68,-1.096 0.906,-0.55 0,0"
             style="fill:#231f20;fill-opacity:1;fill-rule:nonzero;stroke:none"
             id="path428" /></g><g
           id="g430"
           transform="translate(306.1133,546.9658)"><path
             d="M 0,0 C -0.187,-0.277 -0.377,-0.552 -0.569,-0.822"
             style="fill:none;stroke:#231f20;stroke-width:0.5;stroke-linecap:butt;stroke-linejoin:miter;stroke-miterlimit:4;stroke-dasharray:none;stroke-opacity:1"
             id="path432" /></g><g
           id="g434"
           transform="translate(304.9492,545.3276)"><path
             d="m 0,0 c -5.825,-7.782 -13.845,-12.59 -22.699,-12.59 -17.799,0 -32.227,19.425 -32.227,43.387 0,23.963 14.428,43.388 32.227,43.388 6.586,0 12.711,-2.66 17.815,-7.226"
             style="fill:none;stroke:#231f20;stroke-width:0.5;stroke-linecap:butt;stroke-linejoin:miter;stroke-miterlimit:4;stroke-dasharray:2.018, 1.009;stroke-dashoffset:0;stroke-opacity:1"
             id="path436" /></g><g
           id="g438"
           transform="translate(300.4365,611.9492)"><path
             d="M 0,0 C 0.245,-0.225 0.486,-0.455 0.726,-0.688"
             style="fill:none;stroke:#231f20;stroke-width:0.5;stroke-linecap:butt;stroke-linejoin:miter;stroke-miterlimit:4;stroke-dasharray:none;stroke-opacity:1"
             id="path440" /></g><text
           transform="scale(0.99999998,-1)"
           style="font-variant:normal;font-weight:bold;font-stretch:normal;font-size:9.00001px;font-family:'Nimbus Mono PS';-inkscape-font-specification:'Nimbus Mono PS, Bold';writing-mode:lr-tb;fill:#231f20;fill-opacity:1;fill-rule:nonzero;stroke:none;stroke-width:1;font-style:normal;font-variant-ligatures:normal;font-variant-caps:normal;font-variant-numeric:normal;font-variant-east-asian:normal;"
           id="text444"
           x="262.66702"
           y="-507.30515"><tspan
             x="262.66702 268.06702 273.46701 278.867 284.267 289.66699 295.06702 300.46701"
             y="-507.30515"
             id="tspan442"
             style="stroke-width:1;-inkscape-font-specification:'Nimbus Mono PS, Bold';font-family:'Nimbus Mono PS';font-weight:bold;font-style:normal;font-stretch:normal;font-variant:normal;font-size:9.00000962px;font-variant-ligatures:normal;font-variant-caps:normal;font-variant-numeric:normal;font-variant-east-asian:normal;">12181e60</tspan></text><text
           transform="scale(0.99999998,-1)"
           style="font-variant:normal;font-weight:normal;font-stretch:normal;font-size:9.00001px;font-family:'Nimbus Mono PS';-inkscape-font-specification:'Nimbus Mono PS, Normal';writing-mode:lr-tb;fill:#231f20;fill-opacity:1;fill-rule:nonzero;stroke:none;stroke-width:1;font-style:normal;font-variant-ligatures:normal;font-variant-caps:normal;font-variant-numeric:normal;font-variant-east-asian:normal;"
           id="text458"
           x="305.867"
           y="-507.30515"><tspan
             x="305.867 311.267 316.66702 322.06702 327.46698 332.867 338.26703 343.66702"
             y="-507.30515"
             id="tspan446"
             style="stroke-width:1;-inkscape-font-specification:'Nimbus Mono PS, Normal';font-family:'Nimbus Mono PS';font-weight:normal;font-style:normal;font-stretch:normal;font-variant:normal;font-size:9.00000962px;font-variant-ligatures:normal;font-variant-caps:normal;font-variant-numeric:normal;font-variant-east-asian:normal;">d556b53b</tspan><tspan
             x="262.66702 268.06702 273.46701 278.867 284.267 289.66699 295.06702 300.46701 305.867 311.267 316.66702 322.06702 327.46698 332.867 338.26703 343.66702"
             y="-496.30716"
             id="tspan448"
             style="stroke-width:1;-inkscape-font-specification:'Nimbus Mono PS, Normal';font-family:'Nimbus Mono PS';font-weight:normal;font-style:normal;font-stretch:normal;font-variant:normal;font-size:9.00000962px;font-variant-ligatures:normal;font-variant-caps:normal;font-variant-numeric:normal;font-variant-east-asian:normal;">a6d35ea77b2f7470</tspan><tspan
             x="262.66702 268.06702 273.46701 278.867 284.267 289.66699 295.06702 300.46701 305.867 311.267 316.66702 322.06702 327.46698 332.867 338.26703 343.66702"
             y="-485.30914"
             id="tspan450"
             style="stroke-width:1;-inkscape-font-specification:'Nimbus Mono PS, Normal';font-family:'Nimbus Mono PS';font-weight:normal;font-style:normal;font-stretch:normal;font-variant:normal;font-size:9.00000962px;font-variant-ligatures:normal;font-variant-caps:normal;font-variant-numeric:normal;font-variant-east-asian:normal;">87a37bb4b4be482e</tspan><tspan
             x="262.66702 268.06702 273.46701 278.867 284.267 289.66699 295.06702 300.46701 305.867 311.267 316.66702 322.06702 327.46698 332.867 338.26703 343.66702"
             y="-474.31119"
             id="tspan452"
             style="stroke-width:1;-inkscape-font-specification:'Nimbus Mono PS, Normal';font-family:'Nimbus Mono PS';font-weight:normal;font-style:normal;font-stretch:normal;font-variant:normal;font-size:9.00000962px;font-variant-ligatures:normal;font-variant-caps:normal;font-variant-numeric:normal;font-variant-east-asian:normal;">90b97c18142295cd</tspan><tspan
             x="245.666 251.06601 256.466 261.866 267.26602 272.66602 278.06598 283.466 288.866 294.26602 299.66602 305.06601 310.466 315.866 321.26602 326.66602 332.06598 337.466 342.86603 348.26602 353.66602"
             y="-641.34216"
             id="tspan454"
             style="stroke-width:1;-inkscape-font-specification:'Nimbus Mono PS, Normal';font-family:'Nimbus Mono PS';font-weight:normal;font-style:normal;font-stretch:normal;font-variant:normal;font-size:9.00000962px;font-variant-ligatures:normal;font-variant-caps:normal;font-variant-numeric:normal;font-variant-east-asian:normal;">005f2613791b36f667fdb</tspan><tspan
             x="245.666 251.06601 256.466 261.866 267.26602 272.66602 278.06598 283.466 288.866 294.26602 299.66602 305.06601 310.466 315.866 321.26602 326.66602 332.06598 337.466 342.86603 348.26602 353.66602"
             y="-630.34418"
             id="tspan456"
             style="stroke-width:1;-inkscape-font-specification:'Nimbus Mono PS, Normal';font-family:'Nimbus Mono PS';font-weight:normal;font-style:normal;font-stretch:normal;font-variant:normal;font-size:9.00000962px;font-variant-ligatures:normal;font-variant-caps:normal;font-variant-numeric:normal;font-variant-east-asian:normal;">8e95608b55e3df4c5f9eb</tspan></text></g></g></g></svg>
