<?xml version="1.0" encoding="UTF-8" standalone="no"?>
<svg
   xmlns:dc="http://purl.org/dc/elements/1.1/"
   xmlns:cc="http://creativecommons.org/ns#"
   xmlns:rdf="http://www.w3.org/1999/02/22-rdf-syntax-ns#"
   xmlns:svg="http://www.w3.org/2000/svg"
   xmlns="http://www.w3.org/2000/svg"
   version="1.1"
   id="svg2"
   xml:space="preserve"
   width="458.69464"
   height="147.63943"
   viewBox="0 0 458.69464 147.63943"><metadata
     id="metadata8"><rdf:RDF><cc:Work
         rdf:about=""><dc:format>image/svg+xml</dc:format><dc:type
           rdf:resource="http://purl.org/dc/dcmitype/StillImage" /></cc:Work></rdf:RDF></metadata><defs
     id="defs6"><clipPath
       clipPathUnits="userSpaceOnUse"
       id="clipPath18"><path
         d="M 0,792 H 612 V 0 H 0 Z"
         id="path16" /></clipPath><linearGradient
       x1="0"
       y1="0"
       x2="1"
       y2="0"
       gradientUnits="userSpaceOnUse"
       gradientTransform="matrix(13.09935,-13.492355,-13.492355,-13.09935,332.83203,615.78564)"
       spreadMethod="pad"
       id="linearGradient182"><stop
         style="stop-opacity:1;stop-color:#5ec45b"
         offset="0"
         id="stop178" /><stop
         style="stop-opacity:1;stop-color:#dbf1cb"
         offset="1"
         id="stop180" /></linearGradient><linearGradient
       x1="0"
       y1="0"
       x2="1"
       y2="0"
       gradientUnits="userSpaceOnUse"
       gradientTransform="matrix(12.500702,-12.875763,-12.875763,-12.500702,333.06445,615.54639)"
       spreadMethod="pad"
       id="linearGradient202"><stop
         style="stop-opacity:1;stop-color:#dbf1cb"
         offset="0"
         id="stop198" /><stop
         style="stop-opacity:1;stop-color:#5ec45b"
         offset="1"
         id="stop200" /></linearGradient><clipPath
       clipPathUnits="userSpaceOnUse"
       id="clipPath212"><path
         d="M 0,792 H 612 V 0 H 0 Z"
         id="path210" /></clipPath><linearGradient
       x1="0"
       y1="0"
       x2="1"
       y2="0"
       gradientUnits="userSpaceOnUse"
       gradientTransform="matrix(13.09935,-13.492355,-13.492355,-13.09935,332.83203,598.74365)"
       spreadMethod="pad"
       id="linearGradient250"><stop
         style="stop-opacity:1;stop-color:#5ec45b"
         offset="0"
         id="stop246" /><stop
         style="stop-opacity:1;stop-color:#dbf1cb"
         offset="1"
         id="stop248" /></linearGradient><linearGradient
       x1="0"
       y1="0"
       x2="1"
       y2="0"
       gradientUnits="userSpaceOnUse"
       gradientTransform="matrix(12.501388,-12.876465,-12.876465,-12.501388,333.06445,598.50439)"
       spreadMethod="pad"
       id="linearGradient270"><stop
         style="stop-opacity:1;stop-color:#dbf1cb"
         offset="0"
         id="stop266" /><stop
         style="stop-opacity:1;stop-color:#5ec45b"
         offset="1"
         id="stop268" /></linearGradient><clipPath
       clipPathUnits="userSpaceOnUse"
       id="clipPath280"><path
         d="M 0,792 H 612 V 0 H 0 Z"
         id="path278" /></clipPath><clipPath
       clipPathUnits="userSpaceOnUse"
       id="clipPath424"><path
         d="m 134.551,592.803 c 0.107,-10.785 7.047,-18.693 2.449,-29.556 v 0 h 14.668 v 29.556 z"
         id="path422" /></clipPath><clipPath
       clipPathUnits="userSpaceOnUse"
       id="clipPath440"><path
         d="M 0,792 H 612 V 0 H 0 Z"
         id="path438" /></clipPath></defs><g
     id="g10"
     transform="matrix(1.3333333,0,0,-1.3333333,-178.86133,864.51818)"><g
       id="g12"><g
         id="g14"
         clip-path="url(#clipPath18)"><g
           id="g20"
           transform="translate(477.667,566.75)"><path
             d="m 0,0 c 0,-1.1 -0.9,-2 -2,-2 h -208.667 c -1.1,0 -2,0.9 -2,2 v 50.815 c 0,1.101 0.9,2 2,2 H -2 c 1.1,0 2,-0.899 2,-2 z"
             style="fill:#feefe9;fill-opacity:1;fill-rule:evenodd;stroke:none"
             id="path22" /></g><g
           id="g24"
           transform="translate(265.0005,582.7324)"><path
             d="M 0,0 H 212.667"
             style="fill:none;stroke:#656263;stroke-width:0.5;stroke-linecap:butt;stroke-linejoin:miter;stroke-miterlimit:4;stroke-dasharray:none;stroke-opacity:1"
             id="path26" /></g><text
           transform="matrix(1,0,0,-1,296.8652,606.4482)"
           style="font-variant:normal;font-weight:normal;font-stretch:normal;font-size:11.5px;font-family:'Nimbus Mono PS';-inkscape-font-specification:'Nimbus Mono PS, Normal';writing-mode:lr-tb;fill:#231f20;fill-opacity:1;fill-rule:nonzero;stroke:none"
           id="text36"><tspan
             x="0"
             y="0"
             id="tspan28">0</tspan><tspan
             x="0"
             y="16.997"
             id="tspan30">0</tspan><tspan
             x="55.176998 62.077 68.976997 75.876999 82.777 89.677002 96.577003 103.477"
             y="0"
             id="tspan32">ffffffff</tspan><tspan
             x="55.176998 62.077 68.976997 75.876999 82.777 89.677002 96.577003 103.477"
             y="16.997"
             id="tspan34">fffffffe</tspan></text><text
           transform="matrix(1,0,0,-1,301.603,571.3652)"
           style="font-variant:normal;font-weight:normal;font-stretch:normal;font-size:8px;font-family:'Nimbus Mono PS';-inkscape-font-specification:'Nimbus Mono PS, Normal';writing-mode:lr-tb;fill:#231f20;fill-opacity:1;fill-rule:nonzero;stroke:none"
           id="text40"><tspan
             x="0 4.8000002 9.6000004 14.4 19.200001 24 28.799999 33.599998 38.400002 43.200001 48 52.799999 57.599998 62.400002 67.199997 72 76.800003 81.599998 86.400002 91.199997 96 100.8 105.6 110.4 115.2 120 124.8 129.60001 134.39999"
             y="0"
             id="tspan38">LockTime: 2020-04-30 13:45:55</tspan></text><text
           transform="matrix(1,0,0,-1,418.0161,606.4482)"
           style="font-variant:normal;font-weight:normal;font-stretch:normal;font-size:11.5px;font-family:'Nimbus Mono PS';-inkscape-font-specification:'Nimbus Mono PS, Normal';writing-mode:lr-tb;fill:#231f20;fill-opacity:1;fill-rule:nonzero;stroke:none"
           id="text44"><tspan
             x="0 6.9000001 13.8 26.542 33.442001 40.341999"
             y="0"
             id="tspan42">100PKH</tspan></text><text
           transform="matrix(1,0,0,-1,465.2568,603.4482)"
           style="font-variant:normal;font-weight:normal;font-stretch:normal;font-size:7px;font-family:'Nimbus Mono PS';-inkscape-font-specification:'Nimbus Mono PS, Normal';writing-mode:lr-tb;fill:#231f20;fill-opacity:1;fill-rule:nonzero;stroke:none"
           id="text48"><tspan
             x="0"
             y="0"
             id="tspan46">D</tspan></text><g
           id="g50"
           transform="translate(270.2402,592.6895)"><path
             d="M 0,0 -1.701,1.912 C 1.484,2.891 3.786,2.143 5.64,1.542 7.014,1.094 8.009,0.772 9.375,1.068 c 1.387,0.299 1.87,0.83 2.43,1.446 0.725,0.799 1.547,1.705 4.324,1.972 l 1.35,-1.98 C 15.279,2.293 14.7,1.657 14.03,0.92 13.43,0.259 12.749,-0.489 10.946,-0.879 8.959,-1.307 7.278,-0.76 5.795,-0.281 4.119,0.265 2.534,0.779 0,0"
             style="fill:#f8a45c;fill-opacity:1;fill-rule:nonzero;stroke:none"
             id="path52" /></g><g
           id="g54"
           transform="translate(270.2402,592.6895)"><path
             d="M 0,0 -1.701,1.912 C 1.484,2.891 3.786,2.143 5.64,1.542 7.014,1.094 8.009,0.772 9.375,1.068 c 1.387,0.299 1.87,0.83 2.43,1.446 0.725,0.799 1.547,1.705 4.324,1.972 l 1.35,-1.98 C 15.279,2.293 14.7,1.657 14.03,0.92 13.43,0.259 12.749,-0.489 10.946,-0.879 8.959,-1.307 7.278,-0.76 5.795,-0.281 4.119,0.265 2.534,0.779 0,0 Z"
             style="fill:none;stroke:#231f20;stroke-width:0.3;stroke-linecap:butt;stroke-linejoin:miter;stroke-miterlimit:4;stroke-dasharray:none;stroke-opacity:1"
             id="path56" /></g><g
           id="g58"
           transform="translate(273.5654,590.8711)"><path
             d="m 0,0 -1.703,1.912 c 3.184,0.981 5.489,0.233 7.34,-0.369 1.376,-0.447 2.37,-0.772 3.738,-0.475 1.386,0.299 1.869,0.83 2.429,1.448 0.726,0.798 1.549,1.705 4.322,1.97 l 1.353,-1.98 C 15.278,2.294 14.7,1.658 14.028,0.92 13.429,0.26 12.749,-0.488 10.944,-0.878 8.958,-1.307 7.279,-0.762 5.794,-0.279 4.119,0.266 2.534,0.779 0,0"
             style="fill:#f8a45c;fill-opacity:1;fill-rule:nonzero;stroke:none"
             id="path60" /></g><g
           id="g62"
           transform="translate(273.5654,590.8711)"><path
             d="m 0,0 -1.703,1.912 c 3.184,0.981 5.489,0.233 7.34,-0.369 1.376,-0.447 2.37,-0.772 3.738,-0.475 1.386,0.299 1.869,0.83 2.429,1.448 0.726,0.798 1.549,1.705 4.322,1.97 l 1.353,-1.98 C 15.278,2.294 14.7,1.658 14.028,0.92 13.429,0.26 12.749,-0.488 10.944,-0.878 8.958,-1.307 7.279,-0.762 5.794,-0.279 4.119,0.266 2.534,0.779 0,0 Z"
             style="fill:none;stroke:#231f20;stroke-width:0.3;stroke-linecap:butt;stroke-linejoin:miter;stroke-miterlimit:4;stroke-dasharray:none;stroke-opacity:1"
             id="path64" /></g><g
           id="g66"
           transform="translate(272.8286,588.8447)"><path
             d="M 0,0 -1.702,1.911 C 1.483,2.893 3.786,2.144 5.641,1.542 7.013,1.097 8.008,0.772 9.375,1.067 c 1.387,0.299 1.868,0.832 2.428,1.449 0.726,0.797 1.548,1.704 4.322,1.969 l 1.353,-1.98 C 15.277,2.294 14.701,1.658 14.027,0.919 13.427,0.259 12.75,-0.489 10.945,-0.879 8.96,-1.307 7.28,-0.762 5.795,-0.28 4.12,0.267 2.535,0.78 0,0"
             style="fill:#f8a45c;fill-opacity:1;fill-rule:nonzero;stroke:none"
             id="path68" /></g><g
           id="g70"
           transform="translate(272.8286,588.8447)"><path
             d="M 0,0 -1.702,1.911 C 1.483,2.893 3.786,2.144 5.641,1.542 7.013,1.097 8.008,0.772 9.375,1.067 c 1.387,0.299 1.868,0.832 2.428,1.449 0.726,0.797 1.548,1.704 4.322,1.969 l 1.353,-1.98 C 15.277,2.294 14.701,1.658 14.027,0.919 13.427,0.259 12.75,-0.489 10.945,-0.879 8.96,-1.307 7.28,-0.762 5.795,-0.28 4.12,0.267 2.535,0.78 0,0 Z"
             style="fill:none;stroke:#231f20;stroke-width:0.3;stroke-linecap:butt;stroke-linejoin:miter;stroke-miterlimit:4;stroke-dasharray:none;stroke-opacity:1"
             id="path72" /></g><g
           id="g74"
           transform="translate(276.2095,587.0459)"><path
             d="M 0,0 -1.702,1.913 C 1.482,2.892 3.789,2.144 5.639,1.544 7.016,1.095 8.008,0.771 9.375,1.069 c 1.386,0.299 1.871,0.83 2.427,1.446 0.729,0.8 1.551,1.705 4.324,1.972 l 1.352,-1.98 C 15.279,2.295 14.701,1.658 14.029,0.92 13.429,0.259 12.751,-0.487 10.945,-0.878 8.961,-1.308 7.28,-0.76 5.795,-0.278 4.119,0.267 2.536,0.78 0,0"
             style="fill:#f8a45c;fill-opacity:1;fill-rule:nonzero;stroke:none"
             id="path76" /></g><g
           id="g78"
           transform="translate(276.2095,587.0459)"><path
             d="M 0,0 -1.702,1.913 C 1.482,2.892 3.789,2.144 5.639,1.544 7.016,1.095 8.008,0.771 9.375,1.069 c 1.386,0.299 1.871,0.83 2.427,1.446 0.729,0.8 1.551,1.705 4.324,1.972 l 1.352,-1.98 C 15.279,2.295 14.701,1.658 14.029,0.92 13.429,0.259 12.751,-0.487 10.945,-0.878 8.961,-1.308 7.28,-0.76 5.795,-0.278 4.119,0.267 2.536,0.78 0,0 Z"
             style="fill:none;stroke:#231f20;stroke-width:0.3;stroke-linecap:butt;stroke-linejoin:miter;stroke-miterlimit:4;stroke-dasharray:none;stroke-opacity:1"
             id="path80" /></g><g
           id="g82"
           transform="translate(270.7593,594.7754)"><path
             d="m 0,0 -1.704,1.914 c 3.186,0.98 5.49,0.231 7.342,-0.369 1.375,-0.449 2.368,-0.771 3.737,-0.476 1.386,0.3 1.866,0.83 2.428,1.447 0.725,0.799 1.55,1.705 4.321,1.971 L 17.477,2.506 C 15.278,2.297 14.698,1.658 14.027,0.922 13.427,0.26 12.747,-0.486 10.943,-0.878 8.958,-1.306 7.276,-0.758 5.793,-0.277 4.117,0.266 2.534,0.781 0,0"
             style="fill:#f8a45c;fill-opacity:1;fill-rule:nonzero;stroke:none"
             id="path84" /></g><g
           id="g86"
           transform="translate(270.7593,594.7754)"><path
             d="m 0,0 -1.704,1.914 c 3.186,0.98 5.49,0.231 7.342,-0.369 1.375,-0.449 2.368,-0.771 3.737,-0.476 1.386,0.3 1.866,0.83 2.428,1.447 0.725,0.799 1.55,1.705 4.321,1.971 L 17.477,2.506 C 15.278,2.297 14.698,1.658 14.027,0.922 13.427,0.26 12.747,-0.486 10.943,-0.878 8.958,-1.306 7.276,-0.758 5.793,-0.277 4.117,0.266 2.534,0.781 0,0 Z"
             style="fill:none;stroke:#231f20;stroke-width:0.3;stroke-linecap:butt;stroke-linejoin:miter;stroke-miterlimit:4;stroke-dasharray:none;stroke-opacity:1"
             id="path88" /></g><g
           id="g90"
           transform="translate(270.8672,596.4814)"><path
             d="M 0,0 2.323,0.208 3.335,-0.331 1.821,-0.235 Z"
             style="fill:#231f20;fill-opacity:1;fill-rule:nonzero;stroke:none"
             id="path92" /></g><g
           id="g94"
           transform="translate(276.8066,595.3027)"><path
             d="M 0,0 2.479,-0.936 4.083,-0.43 2.048,-0.164 Z"
             style="fill:#231f20;fill-opacity:1;fill-rule:nonzero;stroke:none"
             id="path96" /></g><g
           id="g98"
           transform="translate(277.7808,592.3184)"><path
             d="m 0,0 -1.745,0.09 -0.715,-0.485 1.772,0.178 2.267,-0.906 1.424,0.019 -1.962,0.765 z"
             style="fill:#231f20;fill-opacity:1;fill-rule:nonzero;stroke:none"
             id="path100" /></g><g
           id="g102"
           transform="translate(288.0703,592.5127)"><path
             d="m 0,0 c -0.443,-0.045 -1.574,-0.306 -1.574,-0.306 l -0.865,-1.418 1.218,0.862 1.897,0.263 z"
             style="fill:#231f20;fill-opacity:1;fill-rule:nonzero;stroke:none"
             id="path104" /></g><g
           id="g106"
           transform="translate(288.9707,589.0283)"><path
             d="m 0,0 -0.805,-1.017 -1.834,-0.579 1.028,-0.438 1.509,0.619 z"
             style="fill:#231f20;fill-opacity:1;fill-rule:nonzero;stroke:none"
             id="path108" /></g><g
           id="g110"
           transform="translate(281.3003,588.0859)"><path
             d="M 0,0 -1.776,0.539 -3.135,0.204 -1.514,0.096 Z"
             style="fill:#231f20;fill-opacity:1;fill-rule:nonzero;stroke:none"
             id="path112" /></g><g
           id="g114"
           transform="translate(275.4033,590.2813)"><path
             d="m 0,0 -1.008,-0.176 1.406,-0.08 z"
             style="fill:#231f20;fill-opacity:1;fill-rule:nonzero;stroke:none"
             id="path116" /></g><g
           id="g118"
           transform="translate(283.6216,596.3555)"><path
             d="m 0,0 -1.253,-0.348 -1.479,-1.134 2.031,0.449 z"
             style="fill:#f9aeca;fill-opacity:1;fill-rule:evenodd;stroke:none"
             id="path120" /></g><g
           id="g122"
           transform="translate(285.2212,590.2305)"><path
             d="m 0,0 -1.649,-0.807 -0.181,-0.486 1.588,0.406 z"
             style="fill:#f9aeca;fill-opacity:1;fill-rule:evenodd;stroke:none"
             id="path124" /></g><g
           id="g126"
           transform="translate(292.2832,590.7412)"><path
             d="m 0,0 -1.848,-0.679 -0.134,-0.9 1.527,0.72 z"
             style="fill:#f9aeca;fill-opacity:1;fill-rule:evenodd;stroke:none"
             id="path128" /></g><g
           id="g130"
           transform="translate(274.2856,590.834)"><path
             d="m 0,0 -1.25,-1.062 -0.447,0.671 z"
             style="fill:#f9aeca;fill-opacity:1;fill-rule:evenodd;stroke:none"
             id="path132" /></g><g
           id="g134"
           transform="translate(281.8306,593.1191)"><path
             d="m 0,0 -2.265,0.191 1.226,-0.564 z"
             style="fill:#96cd56;fill-opacity:1;fill-rule:evenodd;stroke:none"
             id="path136" /></g><g
           id="g138"
           transform="translate(284.0532,587.5254)"><path
             d="m 0,0 -2.112,0.479 c 0,0 1.091,-0.754 1.395,-0.897 0.307,-0.141 2.142,-0.278 2.142,-0.278 z"
             style="fill:#96cd56;fill-opacity:1;fill-rule:evenodd;stroke:none"
             id="path140" /></g><g
           id="g142"
           transform="translate(275.0273,592.8809)"><path
             d="m 0,0 -1.867,-0.064 0.722,-1.011 z"
             style="fill:#96cd56;fill-opacity:1;fill-rule:evenodd;stroke:none"
             id="path144" /></g><g
           id="g146"
           transform="translate(286.2129,598.3643)"><path
             d="m 0,0 -2.092,-0.851 c 0,0 -0.837,-1.216 -0.499,-1.158 0.336,0.059 1.784,0.992 1.784,0.992 z"
             style="fill:#96cd56;fill-opacity:1;fill-rule:evenodd;stroke:none"
             id="path148" /></g><g
           id="g150"
           transform="translate(313.916,605.6455)"><path
             d="M 0,0 C 0.846,-0.152 1.141,-0.882 1.646,-1.392 1.785,-0.454 2.154,0.239 2.533,0.928 2.523,1.007 2.514,1.084 2.406,1.062 1.742,0.56 0.707,0.453 0,0 M 3.482,2.054 C 3.717,2.094 3.854,2.237 4.053,2.317 4.01,2.513 4.035,2.784 3.863,2.849 3.76,2.558 3.592,2.333 3.482,2.054 M 0.379,2.119 C 0.717,2.868 1.09,3.583 1.457,4.303 0.904,4.455 0.244,4.495 -0.381,4.566 0.004,3.889 0.254,3.071 0.379,2.119 M -3.23,4.503 C -3.482,4.047 -3.58,3.451 -3.736,2.849 -3.879,2.312 -3.914,1.56 -4.373,1.325 c -0.16,0.904 0.41,2.11 0.637,3.044 -1.725,-0.348 -3.159,-1.651 -3.106,-3.575 0.039,-1.423 1.106,-1.932 2.596,-1.92 3.164,0.028 5.475,2.859 3.357,5.692 -0.625,0.126 -1.525,-0.02 -2.341,-0.063 m 0.125,0.396 c 0.56,0.122 1.3,0.053 1.837,0.2 C -1.725,5.546 -2.102,6.08 -2.471,6.62 -2.633,5.993 -2.912,5.492 -3.105,4.899 M 4.307,4.503 C 4.691,5.49 5.441,6.449 5.701,7.349 5.115,6.57 4.354,5.622 4.307,4.503 m 7.156,5.56 C 9.727,9.917 7.629,9.36 6.713,8.276 6.168,7.63 5.904,6.671 5.445,5.827 4.971,4.948 3.813,3.565 4.434,2.581 c 2.586,1.586 5.193,3.234 7.472,5.098 0.733,0.597 1.625,1.29 1.967,2.252 -0.752,0.294 -1.609,0.199 -2.41,0.132 M 4.813,2.317 C 6.313,1.635 7.547,2.884 8.803,3.11 9.111,2.766 8.756,2.056 8.932,1.654 9.842,0.996 11.611,1.235 12.287,0.331 11.887,0.015 11.346,0.53 10.639,0.728 9.422,1.069 8.092,0.86 8.549,2.648 7.461,2.137 5.635,1.183 4.369,2.054 3.943,1.836 3.584,1.55 3.102,1.392 2.6,0.327 2.182,-0.823 1.771,-1.987 c -0.878,0.316 -0.906,1.524 -1.96,1.656 -0.174,-0.262 -0.237,-0.639 -0.317,-0.993 0.244,-0.068 0.51,0.73 0.885,0.53 0.033,-0.508 -0.539,-0.932 -1.014,-1.126 -0.523,0.333 -0.119,1.083 0,1.656 -0.801,-0.639 -2.422,-1.35 -3.992,-1.258 -0.602,0.034 -1.373,0.183 -1.836,0.531 -1.146,0.859 -0.842,3.113 -0.062,4.168 0.72,0.98 1.754,1.33 2.914,1.656 0.351,0.579 0.541,1.332 0.822,1.985 0.359,0.027 0.453,0.095 0.57,0.464 1.873,0.733 4.041,1.16 5.574,2.252 C 1.41,9.175 -0.723,8.524 -2.727,7.944 -3.361,7.761 -4,7.429 -4.627,7.548 c 0.074,0.393 0.598,0.441 0.891,0.527 1.002,0.302 2.125,0.612 3.23,0.928 1.432,0.412 2.971,1.001 4.434,0.861 C 3.963,9.173 3.238,8.975 2.785,8.738 1.408,8.021 -0.482,7.507 -2.027,6.885 -1.771,6.026 -1.139,5.565 -0.635,4.966 0.197,4.972 0.881,4.83 1.582,4.701 2.336,5.613 2.959,6.839 3.672,7.878 3.865,8.159 4.127,8.634 4.496,8.605 4.377,7.835 3.73,7.279 3.293,6.62 2.855,5.964 2.488,5.239 2.09,4.566 2.559,4.241 3.32,4.22 3.482,3.574 2.91,3.446 2.523,4.069 1.961,4.17 1.148,3.19 0.713,1.813 0.125,0.597 1.178,0.798 1.953,1.292 2.85,1.654 3.207,2.481 3.705,3.013 3.799,4.17 3.967,6.247 5.236,7.466 6.461,8.539 6.523,8.871 6.721,9.063 6.84,9.333 7.086,9.392 7.066,9.173 7.219,9.136 8.51,10.067 10.895,10.7 13.047,10.527 13.436,10.494 14.324,10.386 14.314,9.864 14.299,9.026 12.961,8.06 12.352,7.548 10.104,5.663 7.057,3.733 4.813,2.317"
             style="fill:#2c81ab;fill-opacity:1;fill-rule:evenodd;stroke:none"
             id="path152" /></g><g
           id="g154"
           transform="translate(345.9531,604.4219)"><path
             d="m 0,0 -6.42,6.613 c 0.688,1.51 0.42,3.36 -0.818,4.633 -1.608,1.658 -4.242,1.711 -5.883,0.119 -0.033,-0.033 -0.065,-0.07 -0.096,-0.105 -0.037,-0.033 -0.074,-0.063 -0.109,-0.096 -1.641,-1.59 -1.664,-4.226 -0.057,-5.883 1.149,-1.179 2.813,-1.543 4.27,-1.08 L -8.576,3.65 c 0.32,0.237 0.822,0.166 1.162,-0.185 0.34,-0.352 0.394,-0.852 0.15,-1.166 l 0.588,-0.608 c 0.322,0.237 0.821,0.166 1.162,-0.185 0.342,-0.352 0.397,-0.852 0.151,-1.166 l 0.59,-0.608 c 0.32,0.237 0.82,0.166 1.162,-0.185 0.341,-0.352 0.396,-0.852 0.148,-1.166 l 0.41,-0.422 3.297,0.174 0.209,0.201 z"
             style="fill:none;stroke:#231f20;stroke-width:0.75;stroke-linecap:butt;stroke-linejoin:round;stroke-miterlimit:4;stroke-dasharray:none;stroke-opacity:1"
             id="path156" /></g><g
           id="g158"
           transform="translate(346.4063,602.7559)"><path
             d="m 0,0 -7.078,8.078 c 0.687,1.51 0.42,3.361 -0.818,4.635 -1.61,1.656 -4.243,1.711 -5.883,0.117 -1.641,-1.59 -1.664,-4.226 -0.057,-5.883 1.148,-1.179 2.813,-1.543 4.27,-1.08 l 0.537,-0.551 c 0.32,0.237 0.822,0.166 1.162,-0.185 0.34,-0.352 0.394,-0.852 0.15,-1.166 l 0.588,-0.608 c 0.322,0.237 0.82,0.166 1.162,-0.185 C -5.625,2.82 -5.57,2.32 -5.816,2.006 l 0.589,-0.608 c 0.321,0.237 0.821,0.166 1.163,-0.185 0.341,-0.352 0.396,-0.852 0.148,-1.166 l 0.41,-0.422 3.297,0.174 z"
             style="fill:#278a2f;fill-opacity:1;fill-rule:nonzero;stroke:none"
             id="path160" /></g><g
           id="g162"
           transform="translate(346.4063,602.7559)"><path
             d="m 0,0 -7.078,8.078 c 0.687,1.51 0.42,3.361 -0.818,4.635 -1.61,1.656 -4.243,1.711 -5.883,0.117 -1.641,-1.59 -1.664,-4.226 -0.057,-5.883 1.148,-1.179 2.813,-1.543 4.27,-1.08 l 0.537,-0.551 c 0.32,0.237 0.822,0.166 1.162,-0.185 0.34,-0.352 0.394,-0.852 0.15,-1.166 l 0.588,-0.608 c 0.322,0.237 0.82,0.166 1.162,-0.185 C -5.625,2.82 -5.57,2.32 -5.816,2.006 l 0.589,-0.608 c 0.321,0.237 0.821,0.166 1.163,-0.185 0.341,-0.352 0.396,-0.852 0.148,-1.166 l 0.41,-0.422 3.297,0.174 z"
             style="fill:none;stroke:#278a2f;stroke-width:0.3;stroke-linecap:butt;stroke-linejoin:round;stroke-miterlimit:4;stroke-dasharray:none;stroke-opacity:1"
             id="path164" /></g></g></g><g
       id="g166"><g
         id="g168"><g
           id="g174"><g
             id="g176"><path
               d="m 332.832,615.787 c -1.638,-1.592 -1.664,-4.228 -0.054,-5.885 v 0 c 1.145,-1.18 2.812,-1.543 4.269,-1.078 v 0 l 0.535,-0.553 c 0.322,0.237 0.822,0.167 1.162,-0.185 v 0 c 0.34,-0.349 0.397,-0.852 0.15,-1.167 v 0 l 0.59,-0.606 c 0.321,0.236 0.819,0.165 1.162,-0.186 v 0 c 0.341,-0.35 0.395,-0.852 0.149,-1.166 v 0 l 0.592,-0.607 c 0.318,0.235 0.82,0.165 1.162,-0.184 v 0 c 0.338,-0.352 0.392,-0.851 0.148,-1.166 v 0 l 0.41,-0.424 3.299,0.176 -0.453,1.666 -6.42,6.613 c 0.688,1.509 0.42,3.36 -0.818,4.633 v 0 c -0.825,0.851 -1.921,1.279 -3.014,1.279 v 0 c -1.036,0 -2.071,-0.385 -2.869,-1.16"
               style="fill:url(#linearGradient182);stroke:none"
               id="path184" /></g></g></g></g><g
       id="g186"><g
         id="g188"><g
           id="g194"><g
             id="g196"><path
               d="m 333.065,615.547 c -1.504,-1.463 -1.526,-3.889 -0.05,-5.41 v 0 c 1.03,-1.057 2.534,-1.438 3.929,-0.995 v 0 l 0.199,0.065 0.507,-0.525 c 0.434,0.152 0.963,0.019 1.334,-0.362 v 0 c 0.374,-0.383 0.489,-0.915 0.322,-1.344 v 0 l 0.245,-0.252 c 0.436,0.151 0.965,0.018 1.334,-0.362 v 0 c 0.371,-0.384 0.488,-0.919 0.324,-1.344 v 0 l 0.244,-0.252 c 0.434,0.152 0.963,0.019 1.335,-0.364 v 0 c 0.372,-0.381 0.487,-0.916 0.323,-1.344 v 0 l 0.131,-0.136 2.732,0.146 -0.322,1.182 -6.518,6.713 0.095,0.209 c 0.656,1.441 0.359,3.117 -0.752,4.261 v 0 c -0.76,0.783 -1.77,1.177 -2.777,1.177 v 0 c -0.953,0 -1.903,-0.353 -2.635,-1.063"
               style="fill:url(#linearGradient202);stroke:none"
               id="path204" /></g></g></g></g><g
       id="g206"><g
         id="g208"
         clip-path="url(#clipPath212)"><g
           id="g214"
           transform="translate(338.0488,610.4141)"><path
             d="m 0,0 c -1.311,-1.271 -3.402,-1.24 -4.674,0.068 -1.271,1.311 -1.24,3.403 0.07,4.674 1.307,1.274 3.401,1.24 4.672,-0.068 C 1.34,3.363 1.309,1.271 0,0"
             style="fill:#ffffff;fill-opacity:1;fill-rule:nonzero;stroke:none"
             id="path216" /></g><text
           transform="matrix(0.69656686,-0.71749189,-0.71749189,-0.69656686,332.5267,614.2152)"
           style="font-variant:normal;font-weight:normal;font-stretch:normal;font-size:3.67502px;font-family:Arial;-inkscape-font-specification:ArialMT;writing-mode:lr-tb;fill:#231f20;fill-opacity:1;fill-rule:nonzero;stroke:none"
           id="text220"><tspan
             x="0 2.451241 4.4945545"
             y="0"
             id="tspan218">Pub</tspan></text><g
           id="g222"
           transform="translate(345.9531,587.3789)"><path
             d="m 0,0 -6.42,6.613 c 0.688,1.51 0.42,3.36 -0.818,4.633 -1.608,1.658 -4.242,1.711 -5.883,0.119 -0.033,-0.035 -0.065,-0.07 -0.096,-0.105 -0.037,-0.033 -0.074,-0.063 -0.109,-0.096 -1.641,-1.59 -1.664,-4.226 -0.057,-5.883 1.149,-1.179 2.813,-1.543 4.27,-1.08 L -8.576,3.65 c 0.32,0.237 0.822,0.164 1.162,-0.185 0.34,-0.352 0.394,-0.852 0.15,-1.166 l 0.588,-0.608 c 0.322,0.237 0.821,0.166 1.162,-0.185 0.342,-0.352 0.397,-0.852 0.151,-1.166 l 0.59,-0.608 c 0.32,0.237 0.82,0.166 1.162,-0.185 0.341,-0.352 0.396,-0.852 0.148,-1.166 l 0.41,-0.422 3.297,0.174 0.209,0.201 z"
             style="fill:none;stroke:#231f20;stroke-width:0.75;stroke-linecap:butt;stroke-linejoin:round;stroke-miterlimit:4;stroke-dasharray:none;stroke-opacity:1"
             id="path224" /></g><g
           id="g226"
           transform="translate(346.4063,585.7129)"><path
             d="m 0,0 -7.078,8.078 c 0.687,1.51 0.42,3.36 -0.818,4.635 -1.61,1.656 -4.243,1.711 -5.883,0.117 -1.641,-1.59 -1.664,-4.226 -0.057,-5.883 1.148,-1.179 2.813,-1.543 4.27,-1.08 l 0.537,-0.551 c 0.32,0.237 0.822,0.164 1.162,-0.185 0.34,-0.352 0.394,-0.852 0.15,-1.166 l 0.588,-0.608 c 0.322,0.237 0.82,0.166 1.162,-0.185 C -5.625,2.82 -5.57,2.32 -5.816,2.006 l 0.589,-0.608 c 0.321,0.237 0.821,0.166 1.163,-0.185 0.341,-0.352 0.396,-0.852 0.148,-1.166 l 0.41,-0.422 3.297,0.174 z"
             style="fill:#278a2f;fill-opacity:1;fill-rule:nonzero;stroke:none"
             id="path228" /></g><g
           id="g230"
           transform="translate(346.4063,585.7129)"><path
             d="m 0,0 -7.078,8.078 c 0.687,1.51 0.42,3.36 -0.818,4.635 -1.61,1.656 -4.243,1.711 -5.883,0.117 -1.641,-1.59 -1.664,-4.226 -0.057,-5.883 1.148,-1.179 2.813,-1.543 4.27,-1.08 l 0.537,-0.551 c 0.32,0.237 0.822,0.164 1.162,-0.185 0.34,-0.352 0.394,-0.852 0.15,-1.166 l 0.588,-0.608 c 0.322,0.237 0.82,0.166 1.162,-0.185 C -5.625,2.82 -5.57,2.32 -5.816,2.006 l 0.589,-0.608 c 0.321,0.237 0.821,0.166 1.163,-0.185 0.341,-0.352 0.396,-0.852 0.148,-1.166 l 0.41,-0.422 3.297,0.174 z"
             style="fill:none;stroke:#278a2f;stroke-width:0.3;stroke-linecap:butt;stroke-linejoin:round;stroke-miterlimit:4;stroke-dasharray:none;stroke-opacity:1"
             id="path232" /></g></g></g><g
       id="g234"><g
         id="g236"><g
           id="g242"><g
             id="g244"><path
               d="m 332.832,598.744 c -1.638,-1.591 -1.664,-4.228 -0.054,-5.884 v 0 c 1.145,-1.18 2.812,-1.544 4.269,-1.079 v 0 l 0.535,-0.552 c 0.322,0.236 0.822,0.165 1.162,-0.186 v 0 c 0.34,-0.35 0.397,-0.852 0.15,-1.166 v 0 l 0.59,-0.607 c 0.321,0.235 0.819,0.165 1.162,-0.186 v 0 c 0.341,-0.352 0.395,-0.851 0.149,-1.166 v 0 l 0.592,-0.61 c 0.318,0.239 0.82,0.169 1.162,-0.181 v 0 c 0.338,-0.351 0.392,-0.852 0.148,-1.166 v 0 l 0.41,-0.424 3.299,0.176 -0.453,1.666 -6.42,6.613 c 0.688,1.51 0.42,3.36 -0.818,4.633 v 0 c -0.825,0.851 -1.921,1.279 -3.014,1.279 v 0 c -1.036,0 -2.071,-0.385 -2.869,-1.16"
               style="fill:url(#linearGradient250);stroke:none"
               id="path252" /></g></g></g></g><g
       id="g254"><g
         id="g256"><g
           id="g262"><g
             id="g264"><path
               d="m 333.065,598.504 c -1.504,-1.463 -1.526,-3.888 -0.05,-5.41 v 0 c 1.03,-1.059 2.534,-1.439 3.929,-0.995 v 0 l 0.199,0.065 0.507,-0.526 c 0.434,0.153 0.963,0.02 1.334,-0.362 v 0 c 0.374,-0.382 0.489,-0.915 0.322,-1.344 v 0 l 0.245,-0.25 c 0.436,0.15 0.965,0.017 1.334,-0.364 v 0 c 0.371,-0.382 0.488,-0.918 0.324,-1.344 v 0 l 0.244,-0.252 c 0.434,0.153 0.963,0.02 1.335,-0.362 v 0 c 0.372,-0.382 0.487,-0.916 0.323,-1.345 v 0 l 0.131,-0.136 2.732,0.146 -0.322,1.182 -6.518,6.713 0.095,0.209 c 0.656,1.441 0.359,3.117 -0.752,4.261 v 0 c -0.76,0.783 -1.77,1.177 -2.777,1.177 v 0 c -0.953,0 -1.903,-0.353 -2.635,-1.063"
               style="fill:url(#linearGradient270);stroke:none"
               id="path272" /></g></g></g></g><g
       id="g274"><g
         id="g276"
         clip-path="url(#clipPath280)"><g
           id="g282"
           transform="translate(338.0488,593.3711)"><path
             d="m 0,0 c -1.311,-1.271 -3.402,-1.24 -4.674,0.068 -1.271,1.311 -1.24,3.403 0.07,4.674 1.307,1.274 3.401,1.24 4.672,-0.07 C 1.34,3.363 1.309,1.271 0,0"
             style="fill:#ffffff;fill-opacity:1;fill-rule:nonzero;stroke:none"
             id="path284" /></g><text
           transform="matrix(0.69656686,-0.71749189,-0.71749189,-0.69656686,332.5265,597.1718)"
           style="font-variant:normal;font-weight:normal;font-stretch:normal;font-size:3.67502px;font-family:Arial;-inkscape-font-specification:ArialMT;writing-mode:lr-tb;fill:#231f20;fill-opacity:1;fill-rule:nonzero;stroke:none"
           id="text288"><tspan
             x="0 2.451241 4.4945545"
             y="0"
             id="tspan286">Pub</tspan></text><g
           id="g290"
           transform="translate(313.916,588.6016)"><path
             d="M 0,0 C 0.846,-0.152 1.141,-0.881 1.646,-1.391 1.785,-0.453 2.154,0.24 2.533,0.928 2.523,1.008 2.514,1.084 2.406,1.062 1.742,0.561 0.707,0.453 0,0 M 3.482,2.054 C 3.717,2.094 3.854,2.238 4.053,2.317 4.01,2.514 4.035,2.784 3.863,2.85 3.76,2.559 3.592,2.333 3.482,2.054 M 0.379,2.119 C 0.717,2.869 1.09,3.583 1.457,4.303 0.904,4.455 0.244,4.495 -0.381,4.566 0.004,3.889 0.254,3.071 0.379,2.119 M -3.23,4.504 C -3.482,4.047 -3.58,3.451 -3.736,2.85 -3.879,2.313 -3.914,1.561 -4.373,1.326 c -0.16,0.903 0.41,2.11 0.637,3.043 -1.725,-0.348 -3.159,-1.65 -3.106,-3.574 0.039,-1.424 1.106,-1.933 2.596,-1.92 3.164,0.027 5.475,2.858 3.357,5.691 C -1.514,4.693 -2.414,4.546 -3.23,4.504 M -3.105,4.9 c 0.56,0.121 1.3,0.053 1.837,0.199 C -1.725,5.547 -2.102,6.08 -2.471,6.621 -2.633,5.994 -2.912,5.492 -3.105,4.9 M 4.307,4.504 C 4.691,5.49 5.441,6.449 5.701,7.35 5.115,6.57 4.354,5.622 4.307,4.504 m 7.156,5.559 C 9.727,9.918 7.629,9.361 6.713,8.277 6.168,7.631 5.904,6.672 5.445,5.827 4.971,4.948 3.813,3.566 4.434,2.582 7.02,4.168 9.627,5.816 11.906,7.68 c 0.733,0.597 1.625,1.289 1.967,2.251 -0.752,0.294 -1.609,0.199 -2.41,0.132 M 4.813,2.317 C 6.313,1.635 7.547,2.884 8.803,3.111 9.111,2.766 8.756,2.057 8.932,1.654 9.842,0.996 11.611,1.236 12.287,0.332 11.887,0.016 11.346,0.531 10.639,0.729 9.422,1.069 8.092,0.861 8.549,2.648 7.461,2.137 5.635,1.184 4.369,2.054 3.943,1.836 3.584,1.55 3.102,1.392 2.6,0.327 2.182,-0.823 1.771,-1.986 c -0.878,0.316 -0.906,1.523 -1.96,1.655 -0.174,-0.261 -0.237,-0.638 -0.317,-0.993 0.244,-0.067 0.51,0.73 0.885,0.53 0.033,-0.507 -0.539,-0.931 -1.014,-1.126 -0.523,0.333 -0.119,1.083 0,1.656 -0.801,-0.638 -2.422,-1.349 -3.992,-1.257 -0.602,0.033 -1.373,0.183 -1.836,0.53 -1.146,0.86 -0.842,3.114 -0.062,4.169 0.72,0.979 1.754,1.329 2.914,1.656 0.351,0.578 0.541,1.332 0.822,1.984 0.359,0.028 0.453,0.096 0.57,0.465 1.873,0.733 4.041,1.16 5.574,2.252 C 1.41,9.175 -0.723,8.525 -2.727,7.945 -3.361,7.762 -4,7.43 -4.627,7.549 c 0.074,0.392 0.598,0.441 0.891,0.527 1.002,0.301 2.125,0.611 3.23,0.928 1.432,0.412 2.971,1 4.434,0.861 C 3.963,9.174 3.238,8.975 2.785,8.738 1.408,8.021 -0.482,7.508 -2.027,6.885 -1.771,6.026 -1.139,5.565 -0.635,4.967 0.197,4.973 0.881,4.83 1.582,4.701 2.336,5.613 2.959,6.84 3.672,7.878 3.865,8.16 4.127,8.635 4.496,8.605 4.377,7.836 3.73,7.279 3.293,6.621 2.855,5.964 2.488,5.239 2.09,4.566 2.559,4.242 3.32,4.221 3.482,3.574 2.91,3.447 2.523,4.069 1.961,4.17 1.148,3.191 0.713,1.813 0.125,0.598 c 1.053,0.2 1.828,0.695 2.725,1.056 0.357,0.828 0.855,1.36 0.949,2.516 0.168,2.077 1.437,3.296 2.662,4.369 0.062,0.332 0.26,0.524 0.379,0.795 0.246,0.058 0.226,-0.16 0.379,-0.197 1.291,0.931 3.676,1.564 5.828,1.39 0.389,-0.033 1.277,-0.14 1.267,-0.662 C 14.299,9.027 12.961,8.061 12.352,7.549 10.104,5.664 7.057,3.734 4.813,2.317"
             style="fill:#2c81ab;fill-opacity:1;fill-rule:evenodd;stroke:none"
             id="path292" /></g><g
           id="g294"
           transform="translate(412.834,619.4258)"><path
             d="M 0,0 V -36.671"
             style="fill:none;stroke:#656263;stroke-width:0.5;stroke-linecap:butt;stroke-linejoin:miter;stroke-miterlimit:4;stroke-dasharray:none;stroke-opacity:1"
             id="path296" /></g><g
           id="g298"
           transform="translate(477.667,566.75)"><path
             d="m 0,0 c 0,-1.1 -0.9,-2 -2,-2 h -208.667 c -1.1,0 -2,0.9 -2,2 v 50.815 c 0,1.101 0.9,2 2,2 H -2 c 1.1,0 2,-0.899 2,-2 z"
             style="fill:none;stroke:#d91920;stroke-width:1;stroke-linecap:butt;stroke-linejoin:round;stroke-miterlimit:4;stroke-dasharray:none;stroke-opacity:1"
             id="path300" /></g><text
           transform="matrix(1,0,0,-1,269.396,626.2241)"
           style="font-variant:normal;font-weight:normal;font-stretch:normal;font-size:7px;font-family:Arial;-inkscape-font-specification:ArialMT;writing-mode:lr-tb;fill:#231f20;fill-opacity:1;fill-rule:nonzero;stroke:none"
           id="text306"><tspan
             x="0 4.277"
             y="0"
             id="tspan302">Tx</tspan><tspan
             x="7.777"
             y="2.0020001"
             id="tspan304">3</tspan></text><g
           id="g308"
           transform="translate(309.917,624)"><path
             d="M 0,0 C 3,6 7.238,10.15 15.5,11"
             style="fill:none;stroke:#231f20;stroke-width:0.3;stroke-linecap:butt;stroke-linejoin:miter;stroke-miterlimit:10;stroke-dasharray:none;stroke-opacity:1"
             id="path310" /></g><g
           id="g312"
           transform="translate(311.8242,623.6577)"><path
             d="M 0,0 -3.12,-2.06 -3.344,1.672 Z"
             style="fill:#231f20;fill-opacity:1;fill-rule:nonzero;stroke:none"
             id="path314" /></g><g
           id="g316"
           transform="translate(269.667,617)"><path
             d="M 0,0 C -2.833,8.333 -7.167,15.667 -17.833,17.5"
             style="fill:none;stroke:#231f20;stroke-width:0.3;stroke-linecap:butt;stroke-linejoin:miter;stroke-miterlimit:10;stroke-dasharray:none;stroke-opacity:1"
             id="path318" /></g><g
           id="g320"
           transform="translate(271.251,618.1167)"><path
             d="M 0,0 -0.728,-3.668 -3.54,-1.204 Z"
             style="fill:#231f20;fill-opacity:1;fill-rule:nonzero;stroke:none"
             id="path322" /></g><g
           id="g324"
           transform="translate(183.561,622.5068)"><path
             d="M 0,0 C -2.192,6.447 -5.546,12.123 -13.799,13.542"
             style="fill:none;stroke:#231f20;stroke-width:0.3;stroke-linecap:butt;stroke-linejoin:miter;stroke-miterlimit:10;stroke-dasharray:none;stroke-opacity:1"
             id="path326" /></g><g
           id="g328"
           transform="translate(185.145,623.6235)"><path
             d="M 0,0 -0.727,-3.668 -3.54,-1.204 Z"
             style="fill:#231f20;fill-opacity:1;fill-rule:nonzero;stroke:none"
             id="path330" /></g><text
           transform="matrix(1,0,0,-1,214.4067,549.2329)"
           style="font-variant:normal;font-weight:bold;font-stretch:condensed;font-size:9px;font-family:'Humanst521 Cn BT';-inkscape-font-specification:Humanist521BT-BoldCondensed;writing-mode:lr-tb;fill:#231f20;fill-opacity:1;fill-rule:nonzero;stroke:none"
           id="text334"><tspan
             x="0 4.0500002"
             y="0"
             id="tspan332">Tx</tspan></text><text
           transform="matrix(1,0,0,-1,222.2114,547.2329)"
           style="font-variant:normal;font-weight:bold;font-stretch:condensed;font-size:7px;font-family:'Humanst521 Cn BT';-inkscape-font-specification:Humanist521BT-BoldCondensed;writing-mode:lr-tb;fill:#231f20;fill-opacity:1;fill-rule:nonzero;stroke:none"
           id="text338"><tspan
             x="0 3.1500001"
             y="0"
             id="tspan336">2M</tspan></text><text
           transform="matrix(1,0,0,-1,232.5613,549.2329)"
           style="font-variant:normal;font-weight:bold;font-stretch:condensed;font-size:9px;font-family:'Humanst521 Cn BT';-inkscape-font-specification:Humanist521BT-BoldCondensed;writing-mode:lr-tb;fill:#231f20;fill-opacity:1;fill-rule:nonzero;stroke:none"
           id="text344"><tspan
             x="0 2.1329999 5.6339998 7.9380002 11.538 15.885 20.367001 22.68 24.813 28.205999 34.946999 38.907001 43.416"
             y="0"
             id="tspan340">is confirmed,</tspan><tspan
             x="-18.153 -11.412 -7.362 -3.177 -1.044 3.438 7.5419998 9.8459997 13.896"
             y="9.5039997"
             id="tspan342">making Tx</tspan></text><text
           transform="matrix(1,0,0,-1,250.209,537.7329)"
           style="font-variant:normal;font-weight:bold;font-stretch:condensed;font-size:7px;font-family:'Humanst521 Cn BT';-inkscape-font-specification:Humanist521BT-BoldCondensed;writing-mode:lr-tb;fill:#231f20;fill-opacity:1;fill-rule:nonzero;stroke:none"
           id="text348"><tspan
             x="0"
             y="0"
             id="tspan346">2</tspan></text><text
           transform="matrix(1,0,0,-1,255.6644,539.7329)"
           style="font-variant:normal;font-weight:bold;font-stretch:condensed;font-size:9px;font-family:'Humanst521 Cn BT';-inkscape-font-specification:Humanist521BT-BoldCondensed;writing-mode:lr-tb;fill:#231f20;fill-opacity:1;fill-rule:nonzero;stroke:none"
           id="text354"><tspan
             x="0 2.1329999 6.6149998 10.341 14.391 16.551001 18.684 23.193001"
             y="0"
             id="tspan350">invalid.</tspan><tspan
             x="71.963997 76.014"
             y="-102.429"
             id="tspan352">Tx</tspan></text><text
           transform="matrix(1,0,0,-1,335.4321,640.1616)"
           style="font-variant:normal;font-weight:bold;font-stretch:condensed;font-size:7px;font-family:'Humanst521 Cn BT';-inkscape-font-specification:Humanist521BT-BoldCondensed;writing-mode:lr-tb;fill:#231f20;fill-opacity:1;fill-rule:nonzero;stroke:none"
           id="text360"><tspan
             x="0"
             y="0"
             id="tspan356">3</tspan><tspan
             x="2.8840001"
             y="-0.49700001"
             id="tspan358"> </tspan></text><text
           transform="matrix(1,0,0,-1,340.1079,642.1616)"
           style="font-variant:normal;font-weight:bold;font-stretch:condensed;font-size:9px;font-family:'Humanst521 Cn BT';-inkscape-font-specification:Humanist521BT-BoldCondensed;writing-mode:lr-tb;fill:#231f20;fill-opacity:1;fill-rule:nonzero;stroke:none"
           id="text366"><tspan
             x="0 4.5089998 8.4689999 12.069 16.416 23.157 27.117001 30.618 32.922001 35.235001 39.582001 42.974998 46.935001 50.660999 54.620998 58.014 60.318001 62.451 66.932999 70.658997 74.709 76.869003 79.001999 83.511002 85.806 90.315002 94.275002 97.875 101.925 106.407 109.908 113.868 116.172 118.305"
             y="0"
             id="tspan362">becomes forever invalid because it</tspan><tspan
             x="-12.483 -8.9820004 -4.473 -0.51300001 3.9690001 8.4779997 11.979 14.283 18.333 22.815001 25.118999 29.466 33.948002 36.945 41.453999 45.936001 48.932999 51.237 53.549999 56.943001 61.290001 68.030998 70.334999 74.385002"
             y="9.5039997"
             id="tspan364">spends an output from Tx</tspan></text><text
           transform="matrix(1,0,0,-1,418.2471,630.6616)"
           style="font-variant:normal;font-weight:bold;font-stretch:condensed;font-size:7px;font-family:'Humanst521 Cn BT';-inkscape-font-specification:Humanist521BT-BoldCondensed;writing-mode:lr-tb;fill:#231f20;fill-opacity:1;fill-rule:nonzero;stroke:none"
           id="text370"><tspan
             x="0"
             y="0"
             id="tspan368">2</tspan></text><text
           transform="matrix(1,0,0,-1,423.7024,632.6616)"
           style="font-variant:normal;font-weight:bold;font-stretch:condensed;font-size:9px;font-family:'Humanst521 Cn BT';-inkscape-font-specification:Humanist521BT-BoldCondensed;writing-mode:lr-tb;fill:#231f20;fill-opacity:1;fill-rule:nonzero;stroke:none"
           id="text374"><tspan
             x="0 2.997 7.4879999 11.538 14.535 16.839001 18.972 22.473 24.777 26.91 31.392 35.118 39.167999 41.327999 43.460999 47.970001 -209.817 -205.767 -202.01401 -199.881 -195.37199 -193.06799 -188.72099 -186.408 -184.104 -180.054"
             y="0"
             id="tspan372">that is invalid.Txid of Tx</tspan></text><text
           transform="matrix(1,0,0,-1,247.3979,630.6616)"
           style="font-variant:normal;font-weight:bold;font-stretch:condensed;font-size:7px;font-family:'Humanst521 Cn BT';-inkscape-font-specification:Humanist521BT-BoldCondensed;writing-mode:lr-tb;fill:#231f20;fill-opacity:1;fill-rule:nonzero;stroke:none"
           id="text378"><tspan
             x="0"
             y="0"
             id="tspan376">2</tspan></text><text
           transform="matrix(1,0,0,-1,141.5161,642.02)"
           style="font-variant:normal;font-weight:bold;font-stretch:condensed;font-size:9px;font-family:'Humanst521 Cn BT';-inkscape-font-specification:Humanist521BT-BoldCondensed;writing-mode:lr-tb;fill:#231f20;fill-opacity:1;fill-rule:nonzero;stroke:none"
           id="text382"><tspan
             x="0 4.0500002"
             y="0"
             id="tspan380">Tx</tspan></text><text
           transform="matrix(1,0,0,-1,149.3208,640.02)"
           style="font-variant:normal;font-weight:bold;font-stretch:condensed;font-size:7px;font-family:'Humanst521 Cn BT';-inkscape-font-specification:Humanist521BT-BoldCondensed;writing-mode:lr-tb;fill:#231f20;fill-opacity:1;fill-rule:nonzero;stroke:none"
           id="text386"><tspan
             x="0"
             y="0"
             id="tspan384">2</tspan></text><text
           transform="matrix(1,0,0,-1,154.7762,642.02)"
           style="font-variant:normal;font-weight:bold;font-stretch:condensed;font-size:9px;font-family:'Humanst521 Cn BT';-inkscape-font-specification:Humanist521BT-BoldCondensed;writing-mode:lr-tb;fill:#231f20;fill-opacity:1;fill-rule:nonzero;stroke:none"
           id="text392"><tspan
             x="0 4.5089998 8.4689999 12.069 16.416 23.157 27.117001"
             y="0"
             id="tspan388">becomes</tspan><tspan
             x="-13.257 -11.124 -6.6420002 -2.9159999 1.1339999 3.2939999 5.427 9.9359999 12.123"
             y="9.5039997"
             id="tspan390">invalid. </tspan></text><g
           id="g394"
           transform="translate(169.0605,615.8779)"><path
             d="m 0,0 c 0,1.1 0.9,2 2,2 h 22.604 c 1.101,0 2,-0.9 2,-2 v -12.051 c 0,-1.1 -0.899,-2 -2,-2 H 2 c -1.1,0 -2,0.9 -2,2 z"
             style="fill:#feefe9;fill-opacity:1;fill-rule:nonzero;stroke:none"
             id="path396" /></g><g
           id="g398"
           transform="translate(169.0605,615.8779)"><path
             d="m 0,0 c 0,1.1 0.9,2 2,2 h 22.604 c 1.101,0 2,-0.9 2,-2 v -12.051 c 0,-1.1 -0.899,-2 -2,-2 H 2 c -1.1,0 -2,0.9 -2,2 z"
             style="fill:none;stroke:#d91920;stroke-width:1;stroke-linecap:butt;stroke-linejoin:round;stroke-miterlimit:4;stroke-dasharray:none;stroke-opacity:1"
             id="path400" /></g><text
           transform="matrix(1,0,0,-1,176.8047,608.1611)"
           style="font-variant:normal;font-weight:normal;font-stretch:normal;font-size:7px;font-family:Arial;-inkscape-font-specification:ArialMT;writing-mode:lr-tb;fill:#231f20;fill-opacity:1;fill-rule:nonzero;stroke:none"
           id="text404"><tspan
             x="0 4.277"
             y="0"
             id="tspan402">Tx</tspan></text><text
           transform="matrix(1,0,0,-1,184.5801,606.1611)"
           style="font-variant:normal;font-weight:normal;font-stretch:normal;font-size:6px;font-family:Arial;-inkscape-font-specification:ArialMT;writing-mode:lr-tb;fill:#231f20;fill-opacity:1;fill-rule:nonzero;stroke:none"
           id="text408"><tspan
             x="0"
             y="0"
             id="tspan406">2</tspan></text><g
           id="g410"
           transform="translate(199.5005,566.75)"><path
             d="m 0,0 c 0,-1.1 -0.9,-2 -2,-2 h -30.276 c -1.1,0 -2,0.9 -2,2 v 22.459 c 0,1.1 0.9,2 2,2 H -2 c 1.1,0 2,-0.9 2,-2 z"
             style="fill:#deecf5;fill-opacity:1;fill-rule:nonzero;stroke:none"
             id="path412" /></g><g
           id="g414"
           transform="translate(199.5005,566.75)"><path
             d="m 0,0 c 0,-1.1 -0.9,-2 -2,-2 h -30.276 c -1.1,0 -2,0.9 -2,2 v 22.459 c 0,1.1 0.9,2 2,2 H -2 c 1.1,0 2,-0.9 2,-2 z"
             style="fill:none;stroke:#231f20;stroke-width:0.5;stroke-linecap:butt;stroke-linejoin:round;stroke-miterlimit:14.336;stroke-dasharray:none;stroke-opacity:1"
             id="path416" /></g></g></g><g
       id="g418"><g
         id="g420"
         clip-path="url(#clipPath424)"><g
           id="g426"
           transform="translate(149.7871,566.75)"><path
             d="m 0,0 c 0,-1.1 -0.9,-2 -2,-2 h -15.769 c -1.1,0 -2,0.9 -2,2 v 22.459 c 0,1.1 0.9,2 2,2 H -2 c 1.1,0 2,-0.9 2,-2 z"
             style="fill:#deecf5;fill-opacity:1;fill-rule:nonzero;stroke:none"
             id="path428" /></g><g
           id="g430"
           transform="translate(149.7871,566.75)"><path
             d="m 0,0 c 0,-1.1 -0.9,-2 -2,-2 h -15.769 c -1.1,0 -2,0.9 -2,2 v 22.459 c 0,1.1 0.9,2 2,2 H -2 c 1.1,0 2,-0.9 2,-2 z"
             style="fill:none;stroke:#231f20;stroke-width:0.5;stroke-linecap:butt;stroke-linejoin:round;stroke-miterlimit:14.336;stroke-dasharray:none;stroke-opacity:1"
             id="path432" /></g></g></g><g
       id="g434"><g
         id="g436"
         clip-path="url(#clipPath440)"><g
           id="g442"
           transform="translate(137,563.2471)"><path
             d="M 0,0 C 4.629,10.522 -2.479,19.538 -2.479,29.507"
             style="fill:none;stroke:#231f20;stroke-width:0.75;stroke-linecap:butt;stroke-linejoin:miter;stroke-miterlimit:10;stroke-dasharray:none;stroke-opacity:1"
             id="path444" /></g><g
           id="g446"
           transform="translate(154.5674,577.9805)"><path
             d="M 0,0 H 10.702"
             style="fill:none;stroke:#231f20;stroke-width:0.5;stroke-linecap:butt;stroke-linejoin:miter;stroke-miterlimit:4;stroke-dasharray:none;stroke-opacity:1"
             id="path448" /></g><g
           id="g450"
           transform="translate(152.5527,578.5859)"><path
             d="m 0,0 c 0.951,0.283 1.57,0.546 2.334,0.849 l -0.01,-2.902 c -0.271,0.131 -1.379,0.576 -2.326,0.867 -1.018,0.313 -1.939,0.524 -2.537,0.602 0.6,0.072 1.523,0.281 2.539,0.584"
             style="fill:#231f20;fill-opacity:1;fill-rule:nonzero;stroke:none"
             id="path452" /></g><g
           id="g454"
           transform="translate(169.0605,584.0049)"><path
             d="m 0,0 c 0,1.1 0.9,2 2,2 h 22.604 c 1.101,0 2,-0.9 2,-2 v -12.051 c 0,-1.1 -0.899,-2 -2,-2 H 2 c -1.1,0 -2,0.9 -2,2 z"
             style="fill:#feefe9;fill-opacity:1;fill-rule:nonzero;stroke:none"
             id="path456" /></g><g
           id="g458"
           transform="translate(169.0605,584.0049)"><path
             d="m 0,0 c 0,1.1 0.9,2 2,2 h 22.604 c 1.101,0 2,-0.9 2,-2 v -12.051 c 0,-1.1 -0.899,-2 -2,-2 H 2 c -1.1,0 -2,0.9 -2,2 z"
             style="fill:none;stroke:#d91920;stroke-width:1;stroke-linecap:butt;stroke-linejoin:round;stroke-miterlimit:4;stroke-dasharray:none;stroke-opacity:1"
             id="path460" /></g><text
           transform="matrix(1,0,0,-1,174.3057,576.2881)"
           style="font-variant:normal;font-weight:normal;font-stretch:normal;font-size:7px;font-family:Arial;-inkscape-font-specification:ArialMT;writing-mode:lr-tb;fill:#231f20;fill-opacity:1;fill-rule:nonzero;stroke:none"
           id="text464"><tspan
             x="0 4.277"
             y="0"
             id="tspan462">Tx</tspan></text><text
           transform="matrix(1,0,0,-1,182.082,574.2881)"
           style="font-variant:normal;font-weight:normal;font-stretch:normal;font-size:6px;font-family:Arial;-inkscape-font-specification:ArialMT;writing-mode:lr-tb;fill:#231f20;fill-opacity:1;fill-rule:nonzero;stroke:none"
           id="text468"><tspan
             x="0 3.336"
             y="0"
             id="tspan466">2M</tspan></text><g
           id="g470"
           transform="translate(189.5,565.375)"><path
             d="M 0,0 C 4.909,-8.375 14,-12 22.75,-12.75"
             style="fill:none;stroke:#231f20;stroke-width:0.3;stroke-linecap:butt;stroke-linejoin:miter;stroke-miterlimit:10;stroke-dasharray:none;stroke-opacity:1"
             id="path472" /></g><g
           id="g474"
           transform="translate(188.1729,563.9629)"><path
             d="M 0,0 -0.025,3.739 3.226,1.891 Z"
             style="fill:#231f20;fill-opacity:1;fill-rule:nonzero;stroke:none"
             id="path476" /></g><g
           id="g478"
           transform="translate(200.7197,609.854)"><path
             d="M 0,0 H 68.863"
             style="fill:none;stroke:#231f20;stroke-width:0.5;stroke-linecap:butt;stroke-linejoin:miter;stroke-miterlimit:4;stroke-dasharray:none;stroke-opacity:1"
             id="path480" /></g><g
           id="g482"
           transform="translate(198.7051,610.4595)"><path
             d="m 0,0 c 0.951,0.283 1.57,0.546 2.334,0.849 l -0.01,-2.902 c -0.271,0.131 -1.379,0.576 -2.326,0.867 -1.018,0.313 -1.939,0.524 -2.537,0.602 0.6,0.072 1.523,0.281 2.539,0.584"
             style="fill:#231f20;fill-opacity:1;fill-rule:nonzero;stroke:none"
             id="path484" /></g><g
           id="g486"
           transform="translate(270.2402,608.855)"><path
             d="M 0,0 -1.701,1.912 C 1.484,2.891 3.786,2.143 5.64,1.543 7.014,1.094 8.009,0.773 9.375,1.068 c 1.387,0.299 1.87,0.83 2.43,1.446 0.725,0.799 1.547,1.705 4.324,1.972 l 1.35,-1.98 C 15.279,2.294 14.7,1.658 14.03,0.92 13.43,0.26 12.749,-0.488 10.946,-0.879 8.959,-1.307 7.278,-0.76 5.795,-0.28 4.119,0.266 2.534,0.78 0,0"
             style="fill:#f8a45c;fill-opacity:1;fill-rule:nonzero;stroke:none"
             id="path488" /></g><g
           id="g490"
           transform="translate(270.2402,608.855)"><path
             d="M 0,0 -1.701,1.912 C 1.484,2.891 3.786,2.143 5.64,1.543 7.014,1.094 8.009,0.773 9.375,1.068 c 1.387,0.299 1.87,0.83 2.43,1.446 0.725,0.799 1.547,1.705 4.324,1.972 l 1.35,-1.98 C 15.279,2.294 14.7,1.658 14.03,0.92 13.43,0.26 12.749,-0.488 10.946,-0.879 8.959,-1.307 7.278,-0.76 5.795,-0.28 4.119,0.266 2.534,0.78 0,0 Z"
             style="fill:none;stroke:#231f20;stroke-width:0.3;stroke-linecap:butt;stroke-linejoin:miter;stroke-miterlimit:4;stroke-dasharray:none;stroke-opacity:1"
             id="path492" /></g><g
           id="g494"
           transform="translate(273.5654,607.0376)"><path
             d="m 0,0 -1.703,1.911 c 3.184,0.982 5.489,0.233 7.34,-0.368 1.376,-0.447 2.37,-0.772 3.738,-0.476 1.386,0.3 1.869,0.83 2.429,1.448 0.726,0.798 1.549,1.705 4.322,1.97 L 17.479,2.506 C 15.278,2.294 14.7,1.657 14.028,0.919 13.429,0.26 12.749,-0.489 10.944,-0.878 8.958,-1.307 7.279,-0.762 5.794,-0.279 4.119,0.265 2.534,0.778 0,0"
             style="fill:#f8a45c;fill-opacity:1;fill-rule:nonzero;stroke:none"
             id="path496" /></g><g
           id="g498"
           transform="translate(273.5654,607.0376)"><path
             d="m 0,0 -1.703,1.911 c 3.184,0.982 5.489,0.233 7.34,-0.368 1.376,-0.447 2.37,-0.772 3.738,-0.476 1.386,0.3 1.869,0.83 2.429,1.448 0.726,0.798 1.549,1.705 4.322,1.97 L 17.479,2.506 C 15.278,2.294 14.7,1.657 14.028,0.919 13.429,0.26 12.749,-0.489 10.944,-0.878 8.958,-1.307 7.279,-0.762 5.794,-0.279 4.119,0.265 2.534,0.778 0,0 Z"
             style="fill:none;stroke:#231f20;stroke-width:0.3;stroke-linecap:butt;stroke-linejoin:miter;stroke-miterlimit:4;stroke-dasharray:none;stroke-opacity:1"
             id="path500" /></g><g
           id="g502"
           transform="translate(272.8286,605.0112)"><path
             d="M 0,0 -1.702,1.91 C 1.483,2.893 3.786,2.143 5.641,1.541 7.013,1.096 8.008,0.772 9.375,1.066 c 1.387,0.3 1.868,0.832 2.428,1.45 0.726,0.797 1.548,1.703 4.322,1.969 L 17.478,2.504 C 15.277,2.294 14.701,1.658 14.027,0.918 13.427,0.258 12.75,-0.49 10.945,-0.879 8.96,-1.307 7.28,-0.762 5.795,-0.28 4.12,0.266 2.535,0.779 0,0"
             style="fill:#f8a45c;fill-opacity:1;fill-rule:nonzero;stroke:none"
             id="path504" /></g><g
           id="g506"
           transform="translate(272.8286,605.0112)"><path
             d="M 0,0 -1.702,1.91 C 1.483,2.893 3.786,2.143 5.641,1.541 7.013,1.096 8.008,0.772 9.375,1.066 c 1.387,0.3 1.868,0.832 2.428,1.45 0.726,0.797 1.548,1.703 4.322,1.969 L 17.478,2.504 C 15.277,2.294 14.701,1.658 14.027,0.918 13.427,0.258 12.75,-0.49 10.945,-0.879 8.96,-1.307 7.28,-0.762 5.795,-0.28 4.12,0.266 2.535,0.779 0,0 Z"
             style="fill:none;stroke:#231f20;stroke-width:0.3;stroke-linecap:butt;stroke-linejoin:miter;stroke-miterlimit:4;stroke-dasharray:none;stroke-opacity:1"
             id="path508" /></g><g
           id="g510"
           transform="translate(276.2095,603.2124)"><path
             d="M 0,0 -1.702,1.913 C 1.482,2.891 3.789,2.144 5.639,1.544 7.016,1.095 8.008,0.771 9.375,1.068 c 1.386,0.299 1.871,0.83 2.427,1.447 0.729,0.799 1.551,1.704 4.324,1.971 l 1.352,-1.98 C 15.279,2.295 14.701,1.658 14.029,0.92 13.429,0.258 12.751,-0.488 10.945,-0.879 8.961,-1.308 7.28,-0.76 5.795,-0.279 4.119,0.266 2.536,0.78 0,0"
             style="fill:#f8a45c;fill-opacity:1;fill-rule:nonzero;stroke:none"
             id="path512" /></g><g
           id="g514"
           transform="translate(276.2095,603.2124)"><path
             d="M 0,0 -1.702,1.913 C 1.482,2.891 3.789,2.144 5.639,1.544 7.016,1.095 8.008,0.771 9.375,1.068 c 1.386,0.299 1.871,0.83 2.427,1.447 0.729,0.799 1.551,1.704 4.324,1.971 l 1.352,-1.98 C 15.279,2.295 14.701,1.658 14.029,0.92 13.429,0.258 12.751,-0.488 10.945,-0.879 8.961,-1.308 7.28,-0.76 5.795,-0.279 4.119,0.266 2.536,0.78 0,0 Z"
             style="fill:none;stroke:#231f20;stroke-width:0.3;stroke-linecap:butt;stroke-linejoin:miter;stroke-miterlimit:4;stroke-dasharray:none;stroke-opacity:1"
             id="path516" /></g><g
           id="g518"
           transform="translate(270.7593,610.9409)"><path
             d="M 0,0 -1.704,1.914 C 1.482,2.895 3.786,2.145 5.638,1.545 7.013,1.097 8.006,0.775 9.375,1.07 c 1.386,0.299 1.866,0.83 2.428,1.447 0.725,0.799 1.55,1.704 4.321,1.971 l 1.353,-1.981 c -2.199,-0.21 -2.779,-0.849 -3.45,-1.585 -0.6,-0.661 -1.28,-1.408 -3.084,-1.799 -1.985,-0.428 -3.667,0.119 -5.15,0.6 C 4.117,0.267 2.534,0.782 0,0"
             style="fill:#f8a45c;fill-opacity:1;fill-rule:nonzero;stroke:none"
             id="path520" /></g><g
           id="g522"
           transform="translate(270.7593,610.9409)"><path
             d="M 0,0 -1.704,1.914 C 1.482,2.895 3.786,2.145 5.638,1.545 7.013,1.097 8.006,0.775 9.375,1.07 c 1.386,0.299 1.866,0.83 2.428,1.447 0.725,0.799 1.55,1.704 4.321,1.971 l 1.353,-1.981 c -2.199,-0.21 -2.779,-0.849 -3.45,-1.585 -0.6,-0.661 -1.28,-1.408 -3.084,-1.799 -1.985,-0.428 -3.667,0.119 -5.15,0.6 C 4.117,0.267 2.534,0.782 0,0 Z"
             style="fill:none;stroke:#231f20;stroke-width:0.3;stroke-linecap:butt;stroke-linejoin:miter;stroke-miterlimit:4;stroke-dasharray:none;stroke-opacity:1"
             id="path524" /></g><g
           id="g526"
           transform="translate(270.8672,612.6479)"><path
             d="m 0,0 2.323,0.208 1.012,-0.54 -1.514,0.096 z"
             style="fill:#231f20;fill-opacity:1;fill-rule:nonzero;stroke:none"
             id="path528" /></g><g
           id="g530"
           transform="translate(276.8066,611.4683)"><path
             d="m 0,0 2.479,-0.936 1.604,0.507 -2.035,0.265 z"
             style="fill:#231f20;fill-opacity:1;fill-rule:nonzero;stroke:none"
             id="path532" /></g><g
           id="g534"
           transform="translate(277.7808,608.4849)"><path
             d="m 0,0 -1.745,0.09 -0.715,-0.486 1.772,0.178 2.267,-0.906 1.424,0.02 -1.962,0.765 z"
             style="fill:#231f20;fill-opacity:1;fill-rule:nonzero;stroke:none"
             id="path536" /></g><g
           id="g538"
           transform="translate(288.0703,608.6792)"><path
             d="m 0,0 c -0.443,-0.045 -1.574,-0.306 -1.574,-0.306 l -0.865,-1.419 1.218,0.862 1.897,0.264 z"
             style="fill:#231f20;fill-opacity:1;fill-rule:nonzero;stroke:none"
             id="path540" /></g><g
           id="g542"
           transform="translate(288.9707,605.1948)"><path
             d="m 0,0 -0.805,-1.018 -1.834,-0.578 1.028,-0.438 1.509,0.619 z"
             style="fill:#231f20;fill-opacity:1;fill-rule:nonzero;stroke:none"
             id="path544" /></g><g
           id="g546"
           transform="translate(281.3003,604.2515)"><path
             d="M 0,0 -1.776,0.539 -3.135,0.205 -1.514,0.097 Z"
             style="fill:#231f20;fill-opacity:1;fill-rule:nonzero;stroke:none"
             id="path548" /></g><g
           id="g550"
           transform="translate(275.4033,606.4468)"><path
             d="M 0,0 -1.008,-0.176 0.398,-0.255 Z"
             style="fill:#231f20;fill-opacity:1;fill-rule:nonzero;stroke:none"
             id="path552" /></g><g
           id="g554"
           transform="translate(283.6216,612.521)"><path
             d="m 0,0 -1.253,-0.347 -1.479,-1.134 2.031,0.449 z"
             style="fill:#f9aeca;fill-opacity:1;fill-rule:evenodd;stroke:none"
             id="path556" /></g><g
           id="g558"
           transform="translate(285.2212,606.396)"><path
             d="m 0,0 -1.649,-0.807 -0.181,-0.486 1.588,0.406 z"
             style="fill:#f9aeca;fill-opacity:1;fill-rule:evenodd;stroke:none"
             id="path560" /></g><g
           id="g562"
           transform="translate(292.2832,606.9077)"><path
             d="m 0,0 -1.848,-0.679 -0.134,-0.9 1.527,0.72 z"
             style="fill:#f9aeca;fill-opacity:1;fill-rule:evenodd;stroke:none"
             id="path564" /></g><g
           id="g566"
           transform="translate(274.2856,607.0005)"><path
             d="m 0,0 -1.25,-1.062 -0.447,0.67 z"
             style="fill:#f9aeca;fill-opacity:1;fill-rule:evenodd;stroke:none"
             id="path568" /></g><g
           id="g570"
           transform="translate(281.8306,609.2847)"><path
             d="m 0,0 -2.265,0.191 1.226,-0.564 z"
             style="fill:#96cd56;fill-opacity:1;fill-rule:evenodd;stroke:none"
             id="path572" /></g><g
           id="g574"
           transform="translate(284.0532,603.6909)"><path
             d="m 0,0 -2.112,0.479 c 0,0 1.091,-0.754 1.395,-0.897 0.307,-0.141 2.142,-0.277 2.142,-0.277 z"
             style="fill:#96cd56;fill-opacity:1;fill-rule:evenodd;stroke:none"
             id="path576" /></g><g
           id="g578"
           transform="translate(275.0273,609.0474)"><path
             d="m 0,0 -1.867,-0.064 0.722,-1.011 z"
             style="fill:#96cd56;fill-opacity:1;fill-rule:evenodd;stroke:none"
             id="path580" /></g><g
           id="g582"
           transform="translate(286.2129,614.5308)"><path
             d="m 0,0 -2.092,-0.851 c 0,0 -0.837,-1.217 -0.499,-1.159 0.336,0.059 1.784,0.992 1.784,0.992 z"
             style="fill:#96cd56;fill-opacity:1;fill-rule:evenodd;stroke:none"
             id="path584" /></g></g></g></g></svg>
