<?xml version="1.0" encoding="UTF-8" standalone="no"?>
<svg
   xmlns:dc="http://purl.org/dc/elements/1.1/"
   xmlns:cc="http://creativecommons.org/ns#"
   xmlns:rdf="http://www.w3.org/1999/02/22-rdf-syntax-ns#"
   xmlns:svg="http://www.w3.org/2000/svg"
   xmlns="http://www.w3.org/2000/svg"
   version="1.1"
   id="svg2"
   xml:space="preserve"
   width="472.01028"
   height="139.71173"
   viewBox="0 0 472.01028 139.71173"><metadata
     id="metadata8"><rdf:RDF><cc:Work
         rdf:about=""><dc:format>image/svg+xml</dc:format><dc:type
           rdf:resource="http://purl.org/dc/dcmitype/StillImage" /></cc:Work></rdf:RDF></metadata><defs
     id="defs6"><clipPath
       clipPathUnits="userSpaceOnUse"
       id="clipPath24"><path
         d="M 0,792 H 612 V 0 H 0 Z"
         id="path22" /></clipPath></defs><g
     id="g10"
     transform="matrix(1.3333333,0,0,-1.3333333,-170.69146,936.17064)"><g
       id="g12"
       transform="translate(381.8994,654.5)"><path
         d="M 0,0 H -14.731 V -11.874"
         style="fill:none;stroke:#231f20;stroke-width:0.5;stroke-linecap:butt;stroke-linejoin:miter;stroke-miterlimit:4;stroke-dasharray:none;stroke-opacity:1"
         id="path14" /></g><path
       d="M 297.5,701.878 H 400.643 V 682.334 H 297.5 Z"
       style="fill:#ffffff;fill-opacity:1;fill-rule:nonzero;stroke:#231f20;stroke-width:0.5;stroke-linecap:butt;stroke-linejoin:round;stroke-miterlimit:14.336;stroke-dasharray:none;stroke-opacity:1"
       id="path16" /><g
       id="g18"><g
         id="g20"
         clip-path="url(#clipPath24)"><g
           id="g26"
           transform="translate(354.584,691.8232)"><path
             d="m 0,0 c 0,-3.575 2.899,-6.476 6.475,-6.476 3.579,0 6.478,2.901 6.478,6.476 0,3.577 -2.899,6.478 -6.478,6.478 C 2.899,6.478 0,3.577 0,0"
             style="fill:#8eb769;fill-opacity:1;fill-rule:nonzero;stroke:none"
             id="path28" /></g><g
           id="g30"
           transform="translate(354.584,691.8232)"><path
             d="m 0,0 c 0,-3.575 2.899,-6.476 6.475,-6.476 3.579,0 6.478,2.901 6.478,6.476 0,3.577 -2.899,6.478 -6.478,6.478 C 2.899,6.478 0,3.577 0,0 Z"
             style="fill:none;stroke:#437029;stroke-width:0.5;stroke-linecap:butt;stroke-linejoin:miter;stroke-miterlimit:4;stroke-dasharray:none;stroke-opacity:1"
             id="path32" /></g><g
           id="g34"
           transform="translate(355.749,691.8232)"><path
             d="m 0,0 c 0,-2.932 2.378,-5.311 5.31,-5.311 2.935,0 5.314,2.379 5.314,5.311 0,2.935 -2.379,5.312 -5.314,5.312 C 2.378,5.312 0,2.935 0,0"
             style="fill:#ffffff;fill-opacity:1;fill-rule:nonzero;stroke:none"
             id="path36" /></g><g
           id="g38"
           transform="translate(360.5811,692.0942)"><path
             d="M 0,0 0.959,-0.543 3.05,4.238 2.964,4.281 Z"
             style="fill:#231f20;fill-opacity:1;fill-rule:nonzero;stroke:none"
             id="path40" /></g><g
           id="g42"
           transform="translate(360.7891,691.3452)"><path
             d="M 0,0 0.539,0.956 -2.627,2.154 -2.67,2.08 Z"
             style="fill:#231f20;fill-opacity:1;fill-rule:nonzero;stroke:none"
             id="path44" /></g><g
           id="g46"
           transform="translate(360.626,692.0679)"><path
             d="M 0,0 C -0.134,-0.239 -0.05,-0.542 0.187,-0.677 0.428,-0.812 0.733,-0.727 0.866,-0.489 1,-0.249 0.917,0.053 0.677,0.188 0.439,0.323 0.134,0.239 0,0"
             style="fill:#8eb769;fill-opacity:1;fill-rule:nonzero;stroke:none"
             id="path48" /></g><g
           id="g50"
           transform="translate(361.0586,692.3022)"><path
             d="m 0,0 c -0.173,0 -0.332,-0.093 -0.418,-0.244 -0.127,-0.229 -0.047,-0.524 0.182,-0.652 0.224,-0.125 0.529,-0.041 0.654,0.181 0.129,0.232 0.048,0.525 -0.183,0.653 C 0.164,-0.021 0.082,0 0,0 m -0.001,-1.204 v 0 c -0.124,0 -0.245,0.032 -0.356,0.095 -0.348,0.196 -0.467,0.637 -0.271,0.985 0.186,0.335 0.646,0.465 0.983,0.274 0.348,-0.195 0.473,-0.636 0.276,-0.984 -0.127,-0.229 -0.371,-0.37 -0.632,-0.37"
             style="fill:#231f20;fill-opacity:1;fill-rule:nonzero;stroke:none"
             id="path52" /></g><g
           id="g54"
           transform="translate(328.1855,691.9526)"><path
             d="m 0,0 -1.738,1.954 c 3.256,1 5.61,0.236 7.502,-0.378 1.404,-0.456 2.422,-0.785 3.82,-0.486 1.417,0.306 1.909,0.849 2.482,1.479 0.741,0.817 1.582,1.742 4.419,2.016 l 1.38,-2.023 C 15.619,2.345 15.025,1.695 14.34,0.941 13.729,0.264 13.033,-0.501 11.188,-0.898 9.158,-1.336 7.441,-0.778 5.924,-0.287 4.211,0.27 2.592,0.798 0,0"
             style="fill:#f8a45c;fill-opacity:1;fill-rule:nonzero;stroke:none"
             id="path56" /></g><g
           id="g58"
           transform="translate(328.1855,691.9526)"><path
             d="m 0,0 -1.738,1.954 c 3.256,1 5.61,0.236 7.502,-0.378 1.404,-0.456 2.422,-0.785 3.82,-0.486 1.417,0.306 1.909,0.849 2.482,1.479 0.741,0.817 1.582,1.742 4.419,2.016 l 1.38,-2.023 C 15.619,2.345 15.025,1.695 14.34,0.941 13.729,0.264 13.033,-0.501 11.188,-0.898 9.158,-1.336 7.441,-0.778 5.924,-0.287 4.211,0.27 2.592,0.798 0,0 Z"
             style="fill:none;stroke:#231f20;stroke-width:0.3;stroke-linecap:butt;stroke-linejoin:miter;stroke-miterlimit:4;stroke-dasharray:none;stroke-opacity:1"
             id="path60" /></g><g
           id="g62"
           transform="translate(331.5859,690.0938)"><path
             d="M 0,0 -1.74,1.955 C 1.514,2.957 3.87,2.194 5.762,1.579 7.166,1.121 8.184,0.791 9.583,1.092 c 1.417,0.307 1.909,0.85 2.483,1.481 0.741,0.816 1.579,1.741 4.417,2.013 L 17.866,2.564 C 15.615,2.344 15.023,1.695 14.34,0.94 13.727,0.266 13.029,-0.5 11.186,-0.897 9.155,-1.335 7.438,-0.778 5.922,-0.284 4.211,0.273 2.588,0.798 0,0"
             style="fill:#f8a45c;fill-opacity:1;fill-rule:nonzero;stroke:none"
             id="path64" /></g><g
           id="g66"
           transform="translate(331.5859,690.0938)"><path
             d="M 0,0 -1.74,1.955 C 1.514,2.957 3.87,2.194 5.762,1.579 7.166,1.121 8.184,0.791 9.583,1.092 c 1.417,0.307 1.909,0.85 2.483,1.481 0.741,0.816 1.579,1.741 4.417,2.013 L 17.866,2.564 C 15.615,2.344 15.023,1.695 14.34,0.94 13.727,0.266 13.029,-0.5 11.186,-0.897 9.155,-1.335 7.438,-0.778 5.922,-0.284 4.211,0.273 2.588,0.798 0,0 Z"
             style="fill:none;stroke:#231f20;stroke-width:0.3;stroke-linecap:butt;stroke-linejoin:miter;stroke-miterlimit:4;stroke-dasharray:none;stroke-opacity:1"
             id="path68" /></g><g
           id="g70"
           transform="translate(330.8301,688.0229)"><path
             d="M 0,0 -1.738,1.953 C 1.518,2.957 3.871,2.189 5.767,1.577 7.17,1.121 8.189,0.789 9.585,1.09 c 1.417,0.307 1.911,0.852 2.482,1.482 0.743,0.814 1.583,1.741 4.418,2.013 L 17.867,2.561 C 15.619,2.345 15.029,1.694 14.341,0.94 13.728,0.265 13.033,-0.501 11.188,-0.898 9.158,-1.335 7.44,-0.78 5.926,-0.284 4.213,0.273 2.594,0.797 0,0"
             style="fill:#f8a45c;fill-opacity:1;fill-rule:nonzero;stroke:none"
             id="path72" /></g><g
           id="g74"
           transform="translate(330.8301,688.0229)"><path
             d="M 0,0 -1.738,1.953 C 1.518,2.957 3.871,2.189 5.767,1.577 7.17,1.121 8.189,0.789 9.585,1.09 c 1.417,0.307 1.911,0.852 2.482,1.482 0.743,0.814 1.583,1.741 4.418,2.013 L 17.867,2.561 C 15.619,2.345 15.029,1.694 14.341,0.94 13.728,0.265 13.033,-0.501 11.188,-0.898 9.158,-1.335 7.44,-0.78 5.926,-0.284 4.213,0.273 2.594,0.797 0,0 Z"
             style="fill:none;stroke:#231f20;stroke-width:0.3;stroke-linecap:butt;stroke-linejoin:miter;stroke-miterlimit:4;stroke-dasharray:none;stroke-opacity:1"
             id="path76" /></g><g
           id="g78"
           transform="translate(334.2881,686.1841)"><path
             d="m 0,0 -1.741,1.956 c 3.256,1 5.614,0.236 7.504,-0.377 1.406,-0.458 2.422,-0.79 3.818,-0.486 1.418,0.307 1.912,0.849 2.484,1.476 0.743,0.819 1.584,1.744 4.42,2.016 L 17.868,2.563 C 15.618,2.345 15.025,1.697 14.339,0.94 13.728,0.266 13.034,-0.499 11.189,-0.898 9.159,-1.334 7.441,-0.778 5.923,-0.285 4.21,0.272 2.59,0.798 0,0"
             style="fill:#f8a45c;fill-opacity:1;fill-rule:nonzero;stroke:none"
             id="path80" /></g><g
           id="g82"
           transform="translate(334.2881,686.1841)"><path
             d="m 0,0 -1.741,1.956 c 3.256,1 5.614,0.236 7.504,-0.377 1.406,-0.458 2.422,-0.79 3.818,-0.486 1.418,0.307 1.912,0.849 2.484,1.476 0.743,0.819 1.584,1.744 4.42,2.016 L 17.868,2.563 C 15.618,2.345 15.025,1.697 14.339,0.94 13.728,0.266 13.034,-0.499 11.189,-0.898 9.159,-1.334 7.441,-0.778 5.923,-0.285 4.21,0.272 2.59,0.798 0,0 Z"
             style="fill:none;stroke:#231f20;stroke-width:0.3;stroke-linecap:butt;stroke-linejoin:miter;stroke-miterlimit:4;stroke-dasharray:none;stroke-opacity:1"
             id="path84" /></g><g
           id="g86"
           transform="translate(328.7178,694.0859)"><path
             d="M 0,0 -1.742,1.954 C 1.514,2.956 3.868,2.19 5.761,1.578 7.167,1.119 8.184,0.791 9.583,1.092 c 1.416,0.305 1.908,0.849 2.48,1.478 0.743,0.819 1.583,1.744 4.416,2.015 L 17.864,2.56 C 15.616,2.346 15.024,1.693 14.337,0.941 13.726,0.265 13.029,-0.499 11.185,-0.899 9.155,-1.334 7.437,-0.777 5.921,-0.285 4.206,0.271 2.589,0.798 0,0"
             style="fill:#f8a45c;fill-opacity:1;fill-rule:nonzero;stroke:none"
             id="path88" /></g><g
           id="g90"
           transform="translate(328.7178,694.0859)"><path
             d="M 0,0 -1.742,1.954 C 1.514,2.956 3.868,2.19 5.761,1.578 7.167,1.119 8.184,0.791 9.583,1.092 c 1.416,0.305 1.908,0.849 2.48,1.478 0.743,0.819 1.583,1.744 4.416,2.015 L 17.864,2.56 C 15.616,2.346 15.024,1.693 14.337,0.941 13.726,0.265 13.029,-0.499 11.185,-0.899 9.155,-1.334 7.437,-0.777 5.921,-0.285 4.206,0.271 2.589,0.798 0,0 Z"
             style="fill:none;stroke:#231f20;stroke-width:0.3;stroke-linecap:butt;stroke-linejoin:miter;stroke-miterlimit:4;stroke-dasharray:none;stroke-opacity:1"
             id="path92" /></g><g
           id="g94"
           transform="translate(328.8262,695.8286)"><path
             d="M 0,0 2.374,0.212 3.41,-0.338 1.861,-0.241 Z"
             style="fill:#231f20;fill-opacity:1;fill-rule:nonzero;stroke:none"
             id="path96" /></g><g
           id="g98"
           transform="translate(334.8984,694.624)"><path
             d="M 0,0 2.533,-0.956 4.172,-0.44 2.094,-0.169 Z"
             style="fill:#231f20;fill-opacity:1;fill-rule:nonzero;stroke:none"
             id="path100" /></g><g
           id="g102"
           transform="translate(335.8936,691.5747)"><path
             d="m 0,0 -1.784,0.091 -0.731,-0.495 1.811,0.181 2.318,-0.927 1.454,0.02 -2.005,0.782 z"
             style="fill:#231f20;fill-opacity:1;fill-rule:nonzero;stroke:none"
             id="path104" /></g><g
           id="g106"
           transform="translate(346.4131,691.772)"><path
             d="m 0,0 c -0.454,-0.047 -1.611,-0.313 -1.611,-0.313 l -0.884,-1.448 1.248,0.881 1.936,0.27 z"
             style="fill:#231f20;fill-opacity:1;fill-rule:nonzero;stroke:none"
             id="path108" /></g><g
           id="g110"
           transform="translate(347.332,688.2109)"><path
             d="m 0,0 -0.822,-1.04 -1.875,-0.591 1.051,-0.448 1.542,0.633 z"
             style="fill:#231f20;fill-opacity:1;fill-rule:nonzero;stroke:none"
             id="path112" /></g><g
           id="g114"
           transform="translate(339.4922,687.248)"><path
             d="M 0,0 -1.816,0.548 -3.207,0.207 -1.549,0.099 Z"
             style="fill:#231f20;fill-opacity:1;fill-rule:nonzero;stroke:none"
             id="path116" /></g><g
           id="g118"
           transform="translate(333.4648,689.4912)"><path
             d="M 0,0 -1.031,-0.18 0.405,-0.262 Z"
             style="fill:#231f20;fill-opacity:1;fill-rule:nonzero;stroke:none"
             id="path120" /></g><g
           id="g122"
           transform="translate(341.8643,695.6997)"><path
             d="m 0,0 -1.281,-0.353 -1.513,-1.163 2.076,0.46 z"
             style="fill:#f9aeca;fill-opacity:1;fill-rule:evenodd;stroke:none"
             id="path124" /></g><g
           id="g126"
           transform="translate(343.5,689.438)"><path
             d="m 0,0 -1.686,-0.824 -0.187,-0.497 1.625,0.415 z"
             style="fill:#f9aeca;fill-opacity:1;fill-rule:evenodd;stroke:none"
             id="path128" /></g><g
           id="g130"
           transform="translate(350.7168,689.96)"><path
             d="m 0,0 -1.887,-0.692 -0.138,-0.921 1.562,0.737 z"
             style="fill:#f9aeca;fill-opacity:1;fill-rule:evenodd;stroke:none"
             id="path132" /></g><g
           id="g134"
           transform="translate(332.3213,690.0576)"><path
             d="M 0,0 -1.277,-1.087 -1.734,-0.4 Z"
             style="fill:#f9aeca;fill-opacity:1;fill-rule:evenodd;stroke:none"
             id="path136" /></g><g
           id="g138"
           transform="translate(340.0313,692.3906)"><path
             d="M 0,0 -2.313,0.197 -1.06,-0.38 Z"
             style="fill:#96cd56;fill-opacity:1;fill-rule:evenodd;stroke:none"
             id="path140" /></g><g
           id="g142"
           transform="translate(342.3057,686.6743)"><path
             d="m 0,0 -2.159,0.489 c 0,0 1.115,-0.771 1.428,-0.917 0.311,-0.144 2.189,-0.284 2.189,-0.284 z"
             style="fill:#96cd56;fill-opacity:1;fill-rule:evenodd;stroke:none"
             id="path144" /></g><g
           id="g146"
           transform="translate(333.0791,692.1479)"><path
             d="M 0,0 -1.909,-0.065 -1.171,-1.1 Z"
             style="fill:#96cd56;fill-opacity:1;fill-rule:evenodd;stroke:none"
             id="path148" /></g><g
           id="g150"
           transform="translate(344.5137,697.7529)"><path
             d="m 0,0 -2.14,-0.869 c 0,0 -0.854,-1.244 -0.509,-1.184 0.343,0.059 1.823,1.013 1.823,1.013 z"
             style="fill:#96cd56;fill-opacity:1;fill-rule:evenodd;stroke:none"
             id="path152" /></g><g
           id="g154"
           transform="translate(370.5195,691.772)"><path
             d="m 0,0 c 0,3.528 2.865,6.389 6.403,6.389 1.699,0 3.325,-0.671 4.527,-1.872 1.199,-1.198 1.873,-2.824 1.873,-4.517 0,-3.528 -2.865,-6.391 -6.4,-6.391 C 2.865,-6.391 0,-3.528 0,0 m 2.271,0 c 0,-2.272 1.848,-4.118 4.132,-4.118 2.279,0 4.128,1.846 4.128,4.118 0,2.273 -1.849,4.117 -4.128,4.117 C 4.119,4.117 2.271,2.273 2.271,0"
             style="fill:#db1921;fill-opacity:1;fill-rule:evenodd;stroke:none"
             id="path156" /></g><g
           id="g158"
           transform="translate(379.1543,694.9897)"><path
             d="M 0,0 -2.231,-2.213 -4.465,0 Z"
             style="fill:#231f20;fill-opacity:1;fill-rule:evenodd;stroke:none"
             id="path160" /></g><g
           id="g162"
           transform="translate(374.6895,688.4736)"><path
             d="M 0,0 2.233,2.21 4.465,0 Z"
             style="fill:#231f20;fill-opacity:1;fill-rule:evenodd;stroke:none"
             id="path164" /></g><g
           id="g166"
           transform="translate(396.0176,686.4336)"><path
             d="m 0,0 h -0.984 c -1.1,1.246 -2.157,2.537 -3.239,3.807 -0.941,1.11 -1.885,2.237 -2.81,3.344 -0.131,0.155 -0.254,0.364 -0.477,0.41 -0.15,-0.2 -0.095,-0.488 -0.095,-0.748 V 2.579 c 0,-0.567 -0.022,-1.177 0.19,-1.511 0.144,-0.23 0.418,-0.318 0.741,-0.371 0.098,-0.015 0.46,-0.011 0.529,-0.073 C -6.041,0.53 -6.086,0.166 -6.169,0.075 -7.408,0.082 -8.68,0.06 -9.902,0.084 c -0.08,0.149 -0.08,0.425 0.011,0.561 0.309,0.028 0.701,0.061 0.953,0.181 0.602,0.283 0.498,1.308 0.498,2.211 v 5.161 c 0,0.351 0.043,0.725 0,1.036 -0.003,0.024 -0.018,0.063 -0.024,0.085 -0.177,0.529 -0.688,0.879 -1.309,0.941 -0.075,0.137 -0.076,0.425 0.01,0.549 0.88,0.024 1.808,0.004 2.708,0.011 1.938,-2.244 3.833,-4.54 5.774,-6.801 0.113,-0.132 0.306,-0.42 0.465,-0.361 0.13,0.052 0.095,0.502 0.095,0.721 v 4.104 c 0,0.528 -0.012,1.129 -0.222,1.417 -0.237,0.325 -0.76,0.314 -1.238,0.402 -0.081,0.111 -0.09,0.399 0,0.507 1.224,0.021 2.521,0.021 3.744,0 0.089,-0.125 0.083,-0.42 0,-0.549 C 1.209,10.208 0.779,10.191 0.519,10.027 0.002,9.704 0.104,8.644 0.104,7.838 0.104,5.25 0.053,2.463 0.188,0.084 0.117,0.063 0.055,0.035 0,0"
             style="fill:#2c81ab;fill-opacity:1;fill-rule:evenodd;stroke:none"
             id="path168" /></g><g
           id="g170"
           transform="translate(301.7622,691.9526)"><path
             d="m 0,0 -1.741,1.954 c 3.258,1 5.61,0.236 7.504,-0.378 C 7.167,1.12 8.185,0.791 9.582,1.09 c 1.419,0.306 1.91,0.849 2.484,1.479 0.741,0.817 1.582,1.742 4.418,2.016 l 1.38,-2.023 C 15.617,2.345 15.025,1.695 14.339,0.941 13.728,0.264 13.031,-0.501 11.186,-0.898 9.157,-1.336 7.439,-0.778 5.921,-0.287 4.208,0.27 2.589,0.798 0,0"
             style="fill:#f8a45c;fill-opacity:1;fill-rule:nonzero;stroke:none"
             id="path172" /></g><g
           id="g174"
           transform="translate(301.7622,691.9526)"><path
             d="m 0,0 -1.741,1.954 c 3.258,1 5.61,0.236 7.504,-0.378 C 7.167,1.12 8.185,0.791 9.582,1.09 c 1.419,0.306 1.91,0.849 2.484,1.479 0.741,0.817 1.582,1.742 4.418,2.016 l 1.38,-2.023 C 15.617,2.345 15.025,1.695 14.339,0.941 13.728,0.264 13.031,-0.501 11.186,-0.898 9.157,-1.336 7.439,-0.778 5.921,-0.287 4.208,0.27 2.589,0.798 0,0 Z"
             style="fill:none;stroke:#231f20;stroke-width:0.3;stroke-linecap:butt;stroke-linejoin:miter;stroke-miterlimit:4;stroke-dasharray:none;stroke-opacity:1"
             id="path176" /></g><g
           id="g178"
           transform="translate(305.1602,690.0938)"><path
             d="m 0,0 -1.741,1.955 c 3.255,1.002 5.61,0.239 7.503,-0.376 1.406,-0.458 2.424,-0.788 3.82,-0.487 1.418,0.307 1.91,0.85 2.482,1.481 0.743,0.816 1.584,1.741 4.418,2.013 L 17.867,2.564 C 15.617,2.344 15.025,1.695 14.341,0.94 13.725,0.266 13.032,-0.5 11.187,-0.897 9.158,-1.335 7.439,-0.778 5.924,-0.284 4.211,0.273 2.59,0.798 0,0"
             style="fill:#f8a45c;fill-opacity:1;fill-rule:nonzero;stroke:none"
             id="path180" /></g><g
           id="g182"
           transform="translate(305.1602,690.0938)"><path
             d="m 0,0 -1.741,1.955 c 3.255,1.002 5.61,0.239 7.503,-0.376 1.406,-0.458 2.424,-0.788 3.82,-0.487 1.418,0.307 1.91,0.85 2.482,1.481 0.743,0.816 1.584,1.741 4.418,2.013 L 17.867,2.564 C 15.617,2.344 15.025,1.695 14.341,0.94 13.725,0.266 13.032,-0.5 11.187,-0.897 9.158,-1.335 7.439,-0.778 5.924,-0.284 4.211,0.273 2.59,0.798 0,0 Z"
             style="fill:none;stroke:#231f20;stroke-width:0.3;stroke-linecap:butt;stroke-linejoin:miter;stroke-miterlimit:4;stroke-dasharray:none;stroke-opacity:1"
             id="path184" /></g><g
           id="g186"
           transform="translate(304.4063,688.0229)"><path
             d="M 0,0 -1.739,1.953 C 1.515,2.957 3.871,2.189 5.766,1.577 7.169,1.121 8.186,0.789 9.584,1.09 c 1.418,0.307 1.91,0.852 2.482,1.482 0.742,0.814 1.582,1.741 4.418,2.013 L 17.867,2.561 C 15.617,2.345 15.026,1.694 14.338,0.94 13.727,0.265 13.031,-0.501 11.188,-0.898 9.156,-1.335 7.439,-0.78 5.924,-0.284 4.213,0.273 2.591,0.797 0,0"
             style="fill:#f8a45c;fill-opacity:1;fill-rule:nonzero;stroke:none"
             id="path188" /></g><g
           id="g190"
           transform="translate(304.4063,688.0229)"><path
             d="M 0,0 -1.739,1.953 C 1.515,2.957 3.871,2.189 5.766,1.577 7.169,1.121 8.186,0.789 9.584,1.09 c 1.418,0.307 1.91,0.852 2.482,1.482 0.742,0.814 1.582,1.741 4.418,2.013 L 17.867,2.561 C 15.617,2.345 15.026,1.694 14.338,0.94 13.727,0.265 13.031,-0.501 11.188,-0.898 9.156,-1.335 7.439,-0.78 5.924,-0.284 4.213,0.273 2.591,0.797 0,0 Z"
             style="fill:none;stroke:#231f20;stroke-width:0.3;stroke-linecap:butt;stroke-linejoin:miter;stroke-miterlimit:4;stroke-dasharray:none;stroke-opacity:1"
             id="path192" /></g><g
           id="g194"
           transform="translate(307.8623,686.1841)"><path
             d="m 0,0 -1.74,1.956 c 3.257,1 5.613,0.236 7.505,-0.377 1.406,-0.458 2.421,-0.79 3.818,-0.486 1.418,0.307 1.911,0.849 2.483,1.476 0.744,0.819 1.583,1.744 4.419,2.016 L 17.866,2.563 C 15.618,2.345 15.025,1.697 14.341,0.94 13.728,0.266 13.034,-0.499 11.188,-0.898 9.16,-1.334 7.44,-0.778 5.924,-0.285 4.212,0.272 2.593,0.798 0,0"
             style="fill:#f8a45c;fill-opacity:1;fill-rule:nonzero;stroke:none"
             id="path196" /></g><g
           id="g198"
           transform="translate(307.8623,686.1841)"><path
             d="m 0,0 -1.74,1.956 c 3.257,1 5.613,0.236 7.505,-0.377 1.406,-0.458 2.421,-0.79 3.818,-0.486 1.418,0.307 1.911,0.849 2.483,1.476 0.744,0.819 1.583,1.744 4.419,2.016 L 17.866,2.563 C 15.618,2.345 15.025,1.697 14.341,0.94 13.728,0.266 13.034,-0.499 11.188,-0.898 9.16,-1.334 7.44,-0.778 5.924,-0.285 4.212,0.272 2.593,0.798 0,0 Z"
             style="fill:none;stroke:#231f20;stroke-width:0.3;stroke-linecap:butt;stroke-linejoin:miter;stroke-miterlimit:4;stroke-dasharray:none;stroke-opacity:1"
             id="path200" /></g><g
           id="g202"
           transform="translate(302.2905,694.0859)"><path
             d="M 0,0 -1.74,1.954 C 1.515,2.956 3.87,2.19 5.764,1.578 7.168,1.119 8.184,0.791 9.585,1.092 11,1.397 11.492,1.941 12.066,2.57 c 0.741,0.819 1.583,1.744 4.419,2.015 L 17.866,2.56 C 15.617,2.346 15.026,1.693 14.338,0.941 13.725,0.265 13.032,-0.499 11.188,-0.899 9.158,-1.334 7.44,-0.777 5.922,-0.285 4.208,0.271 2.59,0.798 0,0"
             style="fill:#f8a45c;fill-opacity:1;fill-rule:nonzero;stroke:none"
             id="path204" /></g><g
           id="g206"
           transform="translate(302.2905,694.0859)"><path
             d="M 0,0 -1.74,1.954 C 1.515,2.956 3.87,2.19 5.764,1.578 7.168,1.119 8.184,0.791 9.585,1.092 11,1.397 11.492,1.941 12.066,2.57 c 0.741,0.819 1.583,1.744 4.419,2.015 L 17.866,2.56 C 15.617,2.346 15.026,1.693 14.338,0.941 13.725,0.265 13.032,-0.499 11.188,-0.899 9.158,-1.334 7.44,-0.777 5.922,-0.285 4.208,0.271 2.59,0.798 0,0 Z"
             style="fill:none;stroke:#231f20;stroke-width:0.3;stroke-linecap:butt;stroke-linejoin:miter;stroke-miterlimit:4;stroke-dasharray:none;stroke-opacity:1"
             id="path208" /></g><g
           id="g210"
           transform="translate(302.4019,695.8286)"><path
             d="M 0,0 2.375,0.212 3.41,-0.338 1.862,-0.241 Z"
             style="fill:#231f20;fill-opacity:1;fill-rule:nonzero;stroke:none"
             id="path212" /></g><g
           id="g214"
           transform="translate(308.4727,694.624)"><path
             d="M 0,0 2.535,-0.956 4.173,-0.44 2.094,-0.169 Z"
             style="fill:#231f20;fill-opacity:1;fill-rule:nonzero;stroke:none"
             id="path216" /></g><g
           id="g218"
           transform="translate(309.4678,691.5747)"><path
             d="M 0,0 -1.784,0.091 -2.513,-0.404 -0.7,-0.223 1.616,-1.15 3.068,-1.13 1.064,-0.348 Z"
             style="fill:#231f20;fill-opacity:1;fill-rule:nonzero;stroke:none"
             id="path220" /></g><g
           id="g222"
           transform="translate(319.9854,691.772)"><path
             d="m 0,0 c -0.45,-0.047 -1.606,-0.313 -1.606,-0.313 l -0.885,-1.448 1.245,0.881 1.937,0.27 z"
             style="fill:#231f20;fill-opacity:1;fill-rule:nonzero;stroke:none"
             id="path224" /></g><g
           id="g226"
           transform="translate(320.9072,688.2109)"><path
             d="m 0,0 -0.825,-1.04 -1.873,-0.591 1.051,-0.448 1.544,0.633 z"
             style="fill:#231f20;fill-opacity:1;fill-rule:nonzero;stroke:none"
             id="path228" /></g><g
           id="g230"
           transform="translate(313.0645,687.248)"><path
             d="M 0,0 -1.813,0.548 -3.202,0.207 -1.546,0.099 Z"
             style="fill:#231f20;fill-opacity:1;fill-rule:nonzero;stroke:none"
             id="path232" /></g><g
           id="g234"
           transform="translate(307.0391,689.4912)"><path
             d="M 0,0 -1.031,-0.18 0.406,-0.262 Z"
             style="fill:#231f20;fill-opacity:1;fill-rule:nonzero;stroke:none"
             id="path236" /></g><g
           id="g238"
           transform="translate(315.4395,695.6997)"><path
             d="m 0,0 -1.281,-0.353 -1.513,-1.163 2.076,0.46 z"
             style="fill:#f9aeca;fill-opacity:1;fill-rule:evenodd;stroke:none"
             id="path240" /></g><g
           id="g242"
           transform="translate(317.0732,689.438)"><path
             d="m 0,0 -1.685,-0.824 -0.185,-0.497 1.622,0.415 z"
             style="fill:#f9aeca;fill-opacity:1;fill-rule:evenodd;stroke:none"
             id="path244" /></g><g
           id="g246"
           transform="translate(324.291,689.96)"><path
             d="m 0,0 -1.887,-0.692 -0.136,-0.921 1.562,0.737 z"
             style="fill:#f9aeca;fill-opacity:1;fill-rule:evenodd;stroke:none"
             id="path248" /></g><g
           id="g250"
           transform="translate(305.896,690.0576)"><path
             d="M 0,0 -1.279,-1.087 -1.733,-0.4 Z"
             style="fill:#f9aeca;fill-opacity:1;fill-rule:evenodd;stroke:none"
             id="path252" /></g><g
           id="g254"
           transform="translate(313.6074,692.3906)"><path
             d="M 0,0 -2.314,0.197 -1.063,-0.38 Z"
             style="fill:#96cd56;fill-opacity:1;fill-rule:evenodd;stroke:none"
             id="path256" /></g><g
           id="g258"
           transform="translate(315.8789,686.6743)"><path
             d="m 0,0 -2.156,0.489 c 0,0 1.113,-0.771 1.424,-0.917 0.314,-0.144 2.19,-0.284 2.19,-0.284 z"
             style="fill:#96cd56;fill-opacity:1;fill-rule:evenodd;stroke:none"
             id="path260" /></g><g
           id="g262"
           transform="translate(306.6543,692.1479)"><path
             d="M 0,0 -1.909,-0.065 -1.17,-1.1 Z"
             style="fill:#96cd56;fill-opacity:1;fill-rule:evenodd;stroke:none"
             id="path264" /></g><g
           id="g266"
           transform="translate(318.0879,697.7529)"><path
             d="m 0,0 -2.137,-0.869 c 0,0 -0.855,-1.244 -0.511,-1.184 0.341,0.059 1.824,1.013 1.824,1.013 z"
             style="fill:#96cd56;fill-opacity:1;fill-rule:evenodd;stroke:none"
             id="path268" /></g><g
           id="g270"
           transform="translate(302.0854,654.5)"><path
             d="M 0,0 H 14.916 V -11.874"
             style="fill:none;stroke:#231f20;stroke-width:0.5;stroke-linecap:butt;stroke-linejoin:miter;stroke-miterlimit:4;stroke-dasharray:none;stroke-opacity:1"
             id="path272" /></g><g
           id="g274"
           transform="translate(278.481,654.5)"><path
             d="M 0,0 H -14.651 V -11.874"
             style="fill:none;stroke:#231f20;stroke-width:0.5;stroke-linecap:butt;stroke-linejoin:miter;stroke-miterlimit:4;stroke-dasharray:none;stroke-opacity:1"
             id="path276" /></g><g
           id="g278"
           transform="translate(341.957,681.0459)"><path
             d="M 0,0 V -10.373"
             style="fill:none;stroke:#231f20;stroke-width:0.5;stroke-linecap:butt;stroke-linejoin:miter;stroke-miterlimit:4;stroke-dasharray:none;stroke-opacity:1"
             id="path280" /></g><g
           id="g282"
           transform="translate(332.1221,665.3984)"><path
             d="m 0,0 c -0.951,-0.283 -1.57,-0.547 -2.334,-0.85 l 0.01,2.903 C -2.053,1.922 -0.945,1.477 0.002,1.186 1.02,0.873 1.941,0.662 2.539,0.584 1.939,0.512 1.016,0.303 0,0"
             style="fill:#231f20;fill-opacity:1;fill-rule:nonzero;stroke:none"
             id="path284" /></g><g
           id="g286"
           transform="translate(330.0225,666)"><path
             d="M 0,0 H -39.607 V -7.341"
             style="fill:none;stroke:#231f20;stroke-width:0.5;stroke-linecap:butt;stroke-linejoin:miter;stroke-miterlimit:4;stroke-dasharray:none;stroke-opacity:1"
             id="path288" /></g><g
           id="g290"
           transform="translate(353.6865,666)"><path
             d="M 0,0 H 39.812 V -7.341"
             style="fill:none;stroke:#231f20;stroke-width:0.5;stroke-linecap:butt;stroke-linejoin:miter;stroke-miterlimit:4;stroke-dasharray:none;stroke-opacity:1"
             id="path292" /></g><text
           transform="matrix(1,0,0,-1,334.0278,660.2734)"
           style="font-variant:normal;font-weight:bold;font-stretch:condensed;font-size:19px;font-family:'Humanst521 Cn BT';-inkscape-font-specification:Humanist521BT-BoldCondensed;writing-mode:lr-tb;fill:#ffffff;fill-opacity:1;fill-rule:nonzero;stroke:none"
           id="text296"><tspan
             x="0"
             y="0"
             id="tspan294">+</tspan></text><g
           id="g298"
           transform="translate(341.0044,666.8691)"><path
             d="M 0,0 H -4.62 V -1.846 H 0 v -4.75 h 1.874 v 4.75 h 4.62 V 0 H 1.874 V 4.732 H 0 Z"
             style="fill:none;stroke:#ffffff;stroke-width:2;stroke-linecap:butt;stroke-linejoin:miter;stroke-miterlimit:4;stroke-dasharray:none;stroke-opacity:1"
             id="path300" /></g><text
           transform="matrix(1,0,0,-1,334.2124,660.2734)"
           style="font-variant:normal;font-weight:bold;font-stretch:condensed;font-size:19px;font-family:'Humanst521 Cn BT';-inkscape-font-specification:Humanist521BT-BoldCondensed;writing-mode:lr-tb;fill:#4bab33;fill-opacity:1;fill-rule:nonzero;stroke:none"
           id="text304"><tspan
             x="0"
             y="0"
             id="tspan302">+</tspan></text><g
           id="g306"
           transform="translate(342.5586,682.6807)"><path
             d="m 0,0 c 0.283,-0.951 0.547,-1.57 0.85,-2.334 l -2.903,0.01 c 0.131,0.271 0.576,1.379 0.867,2.326 0.313,1.018 0.524,1.939 0.602,2.537 C -0.512,1.939 -0.303,1.016 0,0"
             style="fill:#231f20;fill-opacity:1;fill-rule:nonzero;stroke:none"
             id="path308" /></g><g
           id="g310"
           transform="translate(263.8296,626.2544)"><path
             d="M 0,0 V -5.903"
             style="fill:none;stroke:#231f20;stroke-width:0.5;stroke-linecap:butt;stroke-linejoin:miter;stroke-miterlimit:4;stroke-dasharray:none;stroke-opacity:1"
             id="path312" /></g><g
           id="g314"
           transform="translate(264.4312,628.354)"><path
             d="m 0,0 c 0.283,-0.951 0.547,-1.57 0.85,-2.334 l -2.903,0.01 c 0.131,0.271 0.576,1.379 0.867,2.326 0.313,1.018 0.524,1.939 0.602,2.537 C -0.512,1.939 -0.303,1.016 0,0"
             style="fill:#231f20;fill-opacity:1;fill-rule:nonzero;stroke:none"
             id="path316" /></g><g
           id="g318"
           transform="translate(351.79,665.3984)"><path
             d="M 0,0 C 0.951,-0.283 1.57,-0.547 2.334,-0.85 L 2.324,2.053 C 2.053,1.922 0.945,1.477 -0.002,1.186 -1.02,0.873 -1.941,0.662 -2.539,0.584 -1.939,0.512 -1.016,0.303 0,0"
             style="fill:#231f20;fill-opacity:1;fill-rule:nonzero;stroke:none"
             id="path320" /></g><g
           id="g322"
           transform="translate(280.5806,653.8984)"><path
             d="m 0,0 c -0.951,-0.283 -1.57,-0.547 -2.334,-0.85 l 0.01,2.903 C -2.053,1.922 -0.945,1.477 0.002,1.186 1.02,0.873 1.941,0.662 2.539,0.584 1.939,0.512 1.016,0.303 0,0"
             style="fill:#231f20;fill-opacity:1;fill-rule:nonzero;stroke:none"
             id="path324" /></g><text
           transform="matrix(1,0,0,-1,282.4863,648.7734)"
           style="font-variant:normal;font-weight:bold;font-stretch:condensed;font-size:19px;font-family:'Humanst521 Cn BT';-inkscape-font-specification:Humanist521BT-BoldCondensed;writing-mode:lr-tb;fill:#ffffff;fill-opacity:1;fill-rule:nonzero;stroke:none"
           id="text328"><tspan
             x="0"
             y="0"
             id="tspan326">+</tspan></text><g
           id="g330"
           transform="translate(289.4629,655.3691)"><path
             d="M 0,0 H -4.62 V -1.846 H 0 v -4.75 h 1.874 v 4.75 h 4.62 V 0 H 1.874 V 4.732 H 0 Z"
             style="fill:none;stroke:#ffffff;stroke-width:2;stroke-linecap:butt;stroke-linejoin:miter;stroke-miterlimit:4;stroke-dasharray:none;stroke-opacity:1"
             id="path332" /></g><text
           transform="matrix(1,0,0,-1,282.4863,648.7734)"
           style="font-variant:normal;font-weight:bold;font-stretch:condensed;font-size:19px;font-family:'Humanst521 Cn BT';-inkscape-font-specification:Humanist521BT-BoldCondensed;writing-mode:lr-tb;fill:#4bab33;fill-opacity:1;fill-rule:nonzero;stroke:none"
           id="text336"><tspan
             x="0"
             y="0"
             id="tspan334">+</tspan></text><g
           id="g338"
           transform="translate(300.2485,653.8984)"><path
             d="M 0,0 C 0.951,-0.283 1.57,-0.547 2.334,-0.85 L 2.324,2.053 C 2.053,1.922 0.945,1.477 -0.002,1.186 -1.02,0.873 -1.941,0.662 -2.539,0.584 -1.939,0.512 -1.016,0.303 0,0"
             style="fill:#231f20;fill-opacity:1;fill-rule:nonzero;stroke:none"
             id="path340" /></g><g
           id="g342"
           transform="translate(235.9937,617.8652)"><path
             d="m 0,0 c 0,1.1 0.9,2 2,2 h 51.672 c 1.1,0 2,-0.9 2,-2 v -18.021 c 0,-1.1 -0.9,-2 -2,-2 H 2 c -1.1,0 -2,0.9 -2,2 z"
             style="fill:#feefe9;fill-opacity:1;fill-rule:nonzero;stroke:none"
             id="path344" /></g><g
           id="g346"
           transform="translate(235.9937,617.8652)"><path
             d="m 0,0 c 0,1.1 0.9,2 2,2 h 51.672 c 1.1,0 2,-0.9 2,-2 v -18.021 c 0,-1.1 -0.9,-2 -2,-2 H 2 c -1.1,0 -2,0.9 -2,2 z"
             style="fill:none;stroke:#d91920;stroke-width:1;stroke-linecap:butt;stroke-linejoin:round;stroke-miterlimit:4;stroke-dasharray:none;stroke-opacity:1"
             id="path348" /></g><text
           transform="matrix(1,0,0,-1,238.5742,606.6396)"
           style="font-variant:normal;font-weight:normal;font-stretch:normal;font-size:7px;font-family:Arial;-inkscape-font-specification:ArialMT;writing-mode:lr-tb;fill:#231f20;fill-opacity:1;fill-rule:nonzero;stroke:none"
           id="text354"><tspan
             x="0 4.277"
             y="0"
             id="tspan350">Tx</tspan><tspan
             x="7.777"
             y="2.0020001"
             id="tspan352">1</tspan></text><g
           id="g356"
           transform="translate(248.5537,638.7803)"><path
             d="m 0,0 -2.265,2.545 c 4.24,1.303 7.303,0.308 9.771,-0.492 1.827,-0.596 3.152,-1.024 4.973,-0.631 1.845,0.398 2.485,1.105 3.232,1.923 0.966,1.065 2.06,2.27 5.755,2.626 L 23.261,3.335 C 20.335,3.052 19.566,2.208 18.674,1.225 17.875,0.346 16.969,-0.65 14.568,-1.168 11.923,-1.74 9.687,-1.012 7.712,-0.373 5.484,0.353 3.372,1.039 0,0"
             style="fill:#f8a45c;fill-opacity:1;fill-rule:nonzero;stroke:none"
             id="path358" /></g><g
           id="g360"
           transform="translate(248.5537,638.7803)"><path
             d="m 0,0 -2.265,2.545 c 4.24,1.303 7.303,0.308 9.771,-0.492 1.827,-0.596 3.152,-1.024 4.973,-0.631 1.845,0.398 2.485,1.105 3.232,1.923 0.966,1.065 2.06,2.27 5.755,2.626 L 23.261,3.335 C 20.335,3.052 19.566,2.208 18.674,1.225 17.875,0.346 16.969,-0.65 14.568,-1.168 11.923,-1.74 9.687,-1.012 7.712,-0.373 5.484,0.353 3.372,1.039 0,0 Z"
             style="fill:none;stroke:#231f20;stroke-width:0.3;stroke-linecap:butt;stroke-linejoin:miter;stroke-miterlimit:4;stroke-dasharray:none;stroke-opacity:1"
             id="path362" /></g><g
           id="g364"
           transform="translate(252.979,636.3608)"><path
             d="M 0,0 -2.266,2.545 C 1.972,3.851 5.04,2.854 7.503,2.054 9.336,1.459 10.658,1.028 12.479,1.421 c 1.845,0.399 2.485,1.106 3.232,1.927 0.966,1.064 2.062,2.269 5.752,2.623 L 23.264,3.337 C 20.335,3.053 19.566,2.206 18.672,1.224 17.875,0.346 16.968,-0.651 14.565,-1.168 11.923,-1.738 9.687,-1.013 7.712,-0.371 5.483,0.354 3.375,1.039 0,0"
             style="fill:#f8a45c;fill-opacity:1;fill-rule:nonzero;stroke:none"
             id="path366" /></g><g
           id="g368"
           transform="translate(252.979,636.3608)"><path
             d="M 0,0 -2.266,2.545 C 1.972,3.851 5.04,2.854 7.503,2.054 9.336,1.459 10.658,1.028 12.479,1.421 c 1.845,0.399 2.485,1.106 3.232,1.927 0.966,1.064 2.062,2.269 5.752,2.623 L 23.264,3.337 C 20.335,3.053 19.566,2.206 18.672,1.224 17.875,0.346 16.968,-0.651 14.565,-1.168 11.923,-1.738 9.687,-1.013 7.712,-0.371 5.483,0.354 3.375,1.039 0,0 Z"
             style="fill:none;stroke:#231f20;stroke-width:0.3;stroke-linecap:butt;stroke-linejoin:miter;stroke-miterlimit:4;stroke-dasharray:none;stroke-opacity:1"
             id="path370" /></g><g
           id="g372"
           transform="translate(251.998,633.6631)"><path
             d="M 0,0 -2.266,2.544 C 1.972,3.851 5.04,2.853 7.508,2.053 9.336,1.46 10.661,1.029 12.479,1.421 c 1.845,0.399 2.487,1.107 3.232,1.928 0.966,1.061 2.061,2.268 5.752,2.622 L 23.264,3.335 C 20.335,3.055 19.565,2.207 18.669,1.224 17.872,0.346 16.968,-0.652 14.568,-1.169 11.926,-1.738 9.689,-1.015 7.714,-0.371 5.483,0.354 3.374,1.039 0,0"
             style="fill:#f8a45c;fill-opacity:1;fill-rule:nonzero;stroke:none"
             id="path374" /></g><g
           id="g376"
           transform="translate(251.998,633.6631)"><path
             d="M 0,0 -2.266,2.544 C 1.972,3.851 5.04,2.853 7.508,2.053 9.336,1.46 10.661,1.029 12.479,1.421 c 1.845,0.399 2.487,1.107 3.232,1.928 0.966,1.061 2.061,2.268 5.752,2.622 L 23.264,3.335 C 20.335,3.055 19.565,2.207 18.669,1.224 17.872,0.346 16.968,-0.652 14.568,-1.169 11.926,-1.738 9.689,-1.015 7.714,-0.371 5.483,0.354 3.374,1.039 0,0 Z"
             style="fill:none;stroke:#231f20;stroke-width:0.3;stroke-linecap:butt;stroke-linejoin:miter;stroke-miterlimit:4;stroke-dasharray:none;stroke-opacity:1"
             id="path378" /></g><g
           id="g380"
           transform="translate(256.4976,631.27)"><path
             d="m 0,0 -2.264,2.546 c 4.239,1.303 7.307,0.308 9.77,-0.491 1.83,-0.597 3.152,-1.028 4.973,-0.632 1.845,0.398 2.49,1.105 3.232,1.923 0.969,1.065 2.062,2.269 5.755,2.625 L 23.264,3.336 C 20.338,3.055 19.566,2.207 18.672,1.224 17.875,0.345 16.971,-0.649 14.57,-1.169 11.928,-1.74 9.689,-1.012 7.715,-0.371 5.484,0.354 3.375,1.039 0,0"
             style="fill:#f8a45c;fill-opacity:1;fill-rule:nonzero;stroke:none"
             id="path382" /></g><g
           id="g384"
           transform="translate(256.4976,631.27)"><path
             d="m 0,0 -2.264,2.546 c 4.239,1.303 7.307,0.308 9.77,-0.491 1.83,-0.597 3.152,-1.028 4.973,-0.632 1.845,0.398 2.49,1.105 3.232,1.923 0.969,1.065 2.062,2.269 5.755,2.625 L 23.264,3.336 C 20.338,3.055 19.566,2.207 18.672,1.224 17.875,0.345 16.971,-0.649 14.57,-1.169 11.928,-1.74 9.689,-1.012 7.715,-0.371 5.484,0.354 3.375,1.039 0,0 Z"
             style="fill:none;stroke:#231f20;stroke-width:0.3;stroke-linecap:butt;stroke-linejoin:miter;stroke-miterlimit:4;stroke-dasharray:none;stroke-opacity:1"
             id="path386" /></g><g
           id="g388"
           transform="translate(249.2437,641.5581)"><path
             d="M 0,0 -2.266,2.545 C 1.972,3.85 5.04,2.852 7.505,2.055 9.333,1.458 10.658,1.03 12.479,1.422 c 1.842,0.399 2.485,1.105 3.229,1.926 0.969,1.065 2.065,2.27 5.753,2.624 l 1.8,-2.637 C 20.335,3.056 19.563,2.206 18.672,1.227 17.873,0.347 16.968,-0.649 14.565,-1.17 11.923,-1.738 9.687,-1.01 7.71,-0.371 5.479,0.354 3.375,1.04 0,0"
             style="fill:#f8a45c;fill-opacity:1;fill-rule:nonzero;stroke:none"
             id="path390" /></g><g
           id="g392"
           transform="translate(249.2437,641.5581)"><path
             d="M 0,0 -2.266,2.545 C 1.972,3.85 5.04,2.852 7.505,2.055 9.333,1.458 10.658,1.03 12.479,1.422 c 1.842,0.399 2.485,1.105 3.229,1.926 0.969,1.065 2.065,2.27 5.753,2.624 l 1.8,-2.637 C 20.335,3.056 19.563,2.206 18.672,1.227 17.873,0.347 16.968,-0.649 14.565,-1.17 11.923,-1.738 9.687,-1.01 7.71,-0.371 5.479,0.354 3.375,1.04 0,0 Z"
             style="fill:none;stroke:#231f20;stroke-width:0.3;stroke-linecap:butt;stroke-linejoin:miter;stroke-miterlimit:4;stroke-dasharray:none;stroke-opacity:1"
             id="path394" /></g><g
           id="g396"
           transform="translate(249.3882,643.8281)"><path
             d="M 0,0 3.093,0.276 4.438,-0.441 2.425,-0.314 Z"
             style="fill:#231f20;fill-opacity:1;fill-rule:nonzero;stroke:none"
             id="path398" /></g><g
           id="g400"
           transform="translate(257.292,642.2593)"><path
             d="M 0,0 3.302,-1.245 5.434,-0.572 2.727,-0.22 Z"
             style="fill:#231f20;fill-opacity:1;fill-rule:nonzero;stroke:none"
             id="path402" /></g><g
           id="g404"
           transform="translate(258.5894,638.2881)"><path
             d="m 0,0 -2.323,0.12 -0.951,-0.646 2.358,0.236 3.018,-1.206 1.895,0.026 -2.612,1.018 z"
             style="fill:#231f20;fill-opacity:1;fill-rule:nonzero;stroke:none"
             id="path406" /></g><g
           id="g408"
           transform="translate(272.2856,638.5454)"><path
             d="m 0,0 c -0.59,-0.06 -2.094,-0.406 -2.094,-0.406 l -1.153,-1.888 1.623,1.148 2.523,0.351 z"
             style="fill:#231f20;fill-opacity:1;fill-rule:nonzero;stroke:none"
             id="path410" /></g><g
           id="g412"
           transform="translate(273.4834,633.9087)"><path
             d="m 0,0 -1.071,-1.354 -2.44,-0.77 1.367,-0.584 2.01,0.825 z"
             style="fill:#231f20;fill-opacity:1;fill-rule:nonzero;stroke:none"
             id="path414" /></g><g
           id="g416"
           transform="translate(263.2734,632.6543)"><path
             d="M 0,0 -2.363,0.716 -4.173,0.271 -2.014,0.128 Z"
             style="fill:#231f20;fill-opacity:1;fill-rule:nonzero;stroke:none"
             id="path418" /></g><g
           id="g420"
           transform="translate(255.4268,635.5757)"><path
             d="M 0,0 -1.345,-0.233 0.528,-0.34 Z"
             style="fill:#231f20;fill-opacity:1;fill-rule:nonzero;stroke:none"
             id="path422" /></g><g
           id="g424"
           transform="translate(266.3643,643.6597)"><path
             d="m 0,0 -1.668,-0.461 -1.971,-1.511 2.705,0.598 z"
             style="fill:#f9aeca;fill-opacity:1;fill-rule:evenodd;stroke:none"
             id="path426" /></g><g
           id="g428"
           transform="translate(268.4932,635.5068)"><path
             d="m 0,0 -2.196,-1.073 -0.24,-0.647 2.112,0.541 z"
             style="fill:#f9aeca;fill-opacity:1;fill-rule:evenodd;stroke:none"
             id="path430" /></g><g
           id="g432"
           transform="translate(277.8911,636.1875)"><path
             d="m 0,0 -2.458,-0.902 -0.179,-1.199 2.034,0.957 z"
             style="fill:#f9aeca;fill-opacity:1;fill-rule:evenodd;stroke:none"
             id="path434" /></g><g
           id="g436"
           transform="translate(253.938,636.3125)"><path
             d="m 0,0 -1.664,-1.414 -0.595,0.893 z"
             style="fill:#f9aeca;fill-opacity:1;fill-rule:evenodd;stroke:none"
             id="path438" /></g><g
           id="g440"
           transform="translate(263.9785,639.3516)"><path
             d="m 0,0 -3.013,0.256 1.631,-0.752 z"
             style="fill:#96cd56;fill-opacity:1;fill-rule:evenodd;stroke:none"
             id="path442" /></g><g
           id="g444"
           transform="translate(266.9395,631.9072)"><path
             d="m 0,0 -2.812,0.636 c 0,0 1.45,-1.003 1.858,-1.192 0.409,-0.188 2.851,-0.37 2.851,-0.37 z"
             style="fill:#96cd56;fill-opacity:1;fill-rule:evenodd;stroke:none"
             id="path446" /></g><g
           id="g448"
           transform="translate(254.9238,639.0361)"><path
             d="m 0,0 -2.485,-0.084 0.964,-1.348 z"
             style="fill:#96cd56;fill-opacity:1;fill-rule:evenodd;stroke:none"
             id="path450" /></g><g
           id="g452"
           transform="translate(269.813,646.334)"><path
             d="m 0,0 -2.784,-1.132 c 0,0 -1.113,-1.619 -0.665,-1.542 0.446,0.078 2.376,1.32 2.376,1.32 z"
             style="fill:#96cd56;fill-opacity:1;fill-rule:evenodd;stroke:none"
             id="path454" /></g><g
           id="g456"
           transform="translate(254.0425,608.8145)"><path
             d="m 0,0 -2.266,2.545 c 4.241,1.302 7.304,0.307 9.771,-0.492 1.828,-0.596 3.153,-1.024 4.974,-0.631 1.845,0.397 2.485,1.105 3.232,1.923 0.966,1.064 2.059,2.27 5.755,2.626 L 23.261,3.335 C 20.335,3.052 19.565,2.207 18.674,1.224 17.875,0.345 16.968,-0.651 14.568,-1.169 11.923,-1.74 9.687,-1.012 7.712,-0.373 5.483,0.353 3.372,1.038 0,0"
             style="fill:#f8a45c;fill-opacity:1;fill-rule:nonzero;stroke:none"
             id="path458" /></g><g
           id="g460"
           transform="translate(254.0425,608.8145)"><path
             d="m 0,0 -2.266,2.545 c 4.241,1.302 7.304,0.307 9.771,-0.492 1.828,-0.596 3.153,-1.024 4.974,-0.631 1.845,0.397 2.485,1.105 3.232,1.923 0.966,1.064 2.059,2.27 5.755,2.626 L 23.261,3.335 C 20.335,3.052 19.565,2.207 18.674,1.224 17.875,0.345 16.968,-0.651 14.568,-1.169 11.923,-1.74 9.687,-1.012 7.712,-0.373 5.483,0.353 3.372,1.038 0,0 Z"
             style="fill:none;stroke:#231f20;stroke-width:0.3;stroke-linecap:butt;stroke-linejoin:miter;stroke-miterlimit:4;stroke-dasharray:none;stroke-opacity:1"
             id="path462" /></g><g
           id="g464"
           transform="translate(258.4673,606.3945)"><path
             d="m 0,0 -2.266,2.545 c 4.239,1.306 7.307,0.309 9.769,-0.49 1.833,-0.596 3.155,-1.026 4.976,-0.634 1.845,0.399 2.485,1.106 3.232,1.927 0.966,1.064 2.062,2.269 5.752,2.623 L 23.264,3.337 C 20.335,3.053 19.566,2.207 18.672,1.225 17.875,0.346 16.969,-0.651 14.565,-1.168 11.923,-1.738 9.687,-1.013 7.712,-0.371 5.484,0.354 3.375,1.039 0,0"
             style="fill:#f8a45c;fill-opacity:1;fill-rule:nonzero;stroke:none"
             id="path466" /></g><g
           id="g468"
           transform="translate(258.4673,606.3945)"><path
             d="m 0,0 -2.266,2.545 c 4.239,1.306 7.307,0.309 9.769,-0.49 1.833,-0.596 3.155,-1.026 4.976,-0.634 1.845,0.399 2.485,1.106 3.232,1.927 0.966,1.064 2.062,2.269 5.752,2.623 L 23.264,3.337 C 20.335,3.053 19.566,2.207 18.672,1.225 17.875,0.346 16.969,-0.651 14.565,-1.168 11.923,-1.738 9.687,-1.013 7.712,-0.371 5.484,0.354 3.375,1.039 0,0 Z"
             style="fill:none;stroke:#231f20;stroke-width:0.3;stroke-linecap:butt;stroke-linejoin:miter;stroke-miterlimit:4;stroke-dasharray:none;stroke-opacity:1"
             id="path470" /></g><g
           id="g472"
           transform="translate(257.4863,603.6968)"><path
             d="M 0,0 -2.266,2.544 C 1.972,3.851 5.04,2.853 7.508,2.053 9.336,1.46 10.661,1.029 12.479,1.421 c 1.845,0.399 2.487,1.107 3.232,1.929 0.966,1.06 2.062,2.267 5.752,2.621 L 23.264,3.335 C 20.335,3.055 19.566,2.208 18.669,1.225 17.873,0.346 16.968,-0.651 14.568,-1.169 11.926,-1.738 9.689,-1.014 7.715,-0.371 5.483,0.354 3.374,1.039 0,0"
             style="fill:#f8a45c;fill-opacity:1;fill-rule:nonzero;stroke:none"
             id="path474" /></g><g
           id="g476"
           transform="translate(257.4863,603.6968)"><path
             d="M 0,0 -2.266,2.544 C 1.972,3.851 5.04,2.853 7.508,2.053 9.336,1.46 10.661,1.029 12.479,1.421 c 1.845,0.399 2.487,1.107 3.232,1.929 0.966,1.06 2.062,2.267 5.752,2.621 L 23.264,3.335 C 20.335,3.055 19.566,2.208 18.669,1.225 17.873,0.346 16.968,-0.651 14.568,-1.169 11.926,-1.738 9.689,-1.014 7.715,-0.371 5.483,0.354 3.374,1.039 0,0 Z"
             style="fill:none;stroke:#231f20;stroke-width:0.3;stroke-linecap:butt;stroke-linejoin:miter;stroke-miterlimit:4;stroke-dasharray:none;stroke-opacity:1"
             id="path478" /></g><g
           id="g480"
           transform="translate(261.9863,601.3037)"><path
             d="m 0,0 -2.264,2.546 c 4.239,1.303 7.306,0.308 9.769,-0.491 1.831,-0.597 3.153,-1.027 4.974,-0.632 1.845,0.398 2.49,1.105 3.232,1.923 0.968,1.065 2.061,2.27 5.755,2.625 L 23.264,3.336 C 20.337,3.055 19.565,2.207 18.671,1.224 17.875,0.345 16.971,-0.649 14.57,-1.168 11.928,-1.74 9.689,-1.012 7.714,-0.371 5.483,0.354 3.374,1.04 0,0"
             style="fill:#f8a45c;fill-opacity:1;fill-rule:nonzero;stroke:none"
             id="path482" /></g><g
           id="g484"
           transform="translate(261.9863,601.3037)"><path
             d="m 0,0 -2.264,2.546 c 4.239,1.303 7.306,0.308 9.769,-0.491 1.831,-0.597 3.153,-1.027 4.974,-0.632 1.845,0.398 2.49,1.105 3.232,1.923 0.968,1.065 2.061,2.27 5.755,2.625 L 23.264,3.336 C 20.337,3.055 19.565,2.207 18.671,1.224 17.875,0.345 16.971,-0.649 14.57,-1.168 11.928,-1.74 9.689,-1.012 7.714,-0.371 5.483,0.354 3.374,1.04 0,0 Z"
             style="fill:none;stroke:#231f20;stroke-width:0.3;stroke-linecap:butt;stroke-linejoin:miter;stroke-miterlimit:4;stroke-dasharray:none;stroke-opacity:1"
             id="path486" /></g><g
           id="g488"
           transform="translate(254.7319,611.5918)"><path
             d="M 0,0 -2.266,2.545 C 1.973,3.85 5.041,2.852 7.506,2.055 9.333,1.458 10.658,1.03 12.479,1.423 c 1.842,0.398 2.485,1.104 3.229,1.926 0.969,1.064 2.065,2.269 5.753,2.623 l 1.8,-2.637 C 20.335,3.056 19.563,2.207 18.672,1.227 17.873,0.347 16.969,-0.649 14.565,-1.169 11.923,-1.738 9.687,-1.01 7.71,-0.37 5.479,0.354 3.375,1.04 0,0"
             style="fill:#f8a45c;fill-opacity:1;fill-rule:nonzero;stroke:none"
             id="path490" /></g><g
           id="g492"
           transform="translate(254.7319,611.5918)"><path
             d="M 0,0 -2.266,2.545 C 1.973,3.85 5.041,2.852 7.506,2.055 9.333,1.458 10.658,1.03 12.479,1.423 c 1.842,0.398 2.485,1.104 3.229,1.926 0.969,1.064 2.065,2.269 5.753,2.623 l 1.8,-2.637 C 20.335,3.056 19.563,2.207 18.672,1.227 17.873,0.347 16.969,-0.649 14.565,-1.169 11.923,-1.738 9.687,-1.01 7.71,-0.37 5.479,0.354 3.375,1.04 0,0 Z"
             style="fill:none;stroke:#231f20;stroke-width:0.3;stroke-linecap:butt;stroke-linejoin:miter;stroke-miterlimit:4;stroke-dasharray:none;stroke-opacity:1"
             id="path494" /></g><g
           id="g496"
           transform="translate(254.8765,613.8618)"><path
             d="M 0,0 3.093,0.277 4.438,-0.44 2.426,-0.313 Z"
             style="fill:#231f20;fill-opacity:1;fill-rule:nonzero;stroke:none"
             id="path498" /></g><g
           id="g500"
           transform="translate(262.7808,612.293)"><path
             d="M 0,0 3.302,-1.245 5.434,-0.572 2.727,-0.22 Z"
             style="fill:#231f20;fill-opacity:1;fill-rule:nonzero;stroke:none"
             id="path502" /></g><g
           id="g504"
           transform="translate(264.0781,608.3223)"><path
             d="m 0,0 -2.324,0.119 -0.951,-0.645 2.358,0.236 3.019,-1.206 1.895,0.026 -2.613,1.018 z"
             style="fill:#231f20;fill-opacity:1;fill-rule:nonzero;stroke:none"
             id="path506" /></g><g
           id="g508"
           transform="translate(277.7744,608.5796)"><path
             d="m 0,0 c -0.59,-0.06 -2.094,-0.406 -2.094,-0.406 l -1.154,-1.888 1.624,1.148 2.523,0.351 z"
             style="fill:#231f20;fill-opacity:1;fill-rule:nonzero;stroke:none"
             id="path510" /></g><g
           id="g512"
           transform="translate(278.9722,603.9424)"><path
             d="m 0,0 -1.071,-1.354 -2.44,-0.77 1.367,-0.584 2.009,0.825 z"
             style="fill:#231f20;fill-opacity:1;fill-rule:nonzero;stroke:none"
             id="path514" /></g><g
           id="g516"
           transform="translate(268.7622,602.6885)"><path
             d="M 0,0 -2.363,0.716 -4.174,0.271 -2.015,0.128 Z"
             style="fill:#231f20;fill-opacity:1;fill-rule:nonzero;stroke:none"
             id="path518" /></g><g
           id="g520"
           transform="translate(260.9155,605.6094)"><path
             d="M 0,0 -1.345,-0.233 0.528,-0.339 Z"
             style="fill:#231f20;fill-opacity:1;fill-rule:nonzero;stroke:none"
             id="path522" /></g><g
           id="g524"
           transform="translate(271.8525,613.6934)"><path
             d="m 0,0 -1.668,-0.46 -1.97,-1.512 2.704,0.598 z"
             style="fill:#f9aeca;fill-opacity:1;fill-rule:evenodd;stroke:none"
             id="path526" /></g><g
           id="g528"
           transform="translate(273.9814,605.5405)"><path
             d="m 0,0 -2.196,-1.072 -0.239,-0.648 2.111,0.541 z"
             style="fill:#f9aeca;fill-opacity:1;fill-rule:evenodd;stroke:none"
             id="path530" /></g><g
           id="g532"
           transform="translate(283.3799,606.2212)"><path
             d="m 0,0 -2.458,-0.902 -0.179,-1.199 2.034,0.957 z"
             style="fill:#f9aeca;fill-opacity:1;fill-rule:evenodd;stroke:none"
             id="path534" /></g><g
           id="g536"
           transform="translate(259.4263,606.3467)"><path
             d="m 0,0 -1.664,-1.414 -0.595,0.893 z"
             style="fill:#f9aeca;fill-opacity:1;fill-rule:evenodd;stroke:none"
             id="path538" /></g><g
           id="g540"
           transform="translate(269.4668,609.3853)"><path
             d="m 0,0 -3.013,0.257 1.631,-0.753 z"
             style="fill:#96cd56;fill-opacity:1;fill-rule:evenodd;stroke:none"
             id="path542" /></g><g
           id="g544"
           transform="translate(272.4277,601.9414)"><path
             d="m 0,0 -2.812,0.636 c 0,0 1.45,-1.003 1.858,-1.192 0.409,-0.188 2.851,-0.37 2.851,-0.37 z"
             style="fill:#96cd56;fill-opacity:1;fill-rule:evenodd;stroke:none"
             id="path546" /></g><g
           id="g548"
           transform="translate(260.4121,609.0698)"><path
             d="m 0,0 -2.485,-0.084 0.964,-1.348 z"
             style="fill:#96cd56;fill-opacity:1;fill-rule:evenodd;stroke:none"
             id="path550" /></g><g
           id="g552"
           transform="translate(275.3013,616.3682)"><path
             d="m 0,0 -2.784,-1.132 c 0,0 -1.113,-1.62 -0.665,-1.543 0.446,0.078 2.376,1.321 2.376,1.321 z"
             style="fill:#96cd56;fill-opacity:1;fill-rule:evenodd;stroke:none"
             id="path554" /></g><g
           id="g556"
           transform="translate(317.001,626.2544)"><path
             d="M 0,0 V -5.903"
             style="fill:none;stroke:#231f20;stroke-width:0.5;stroke-linecap:butt;stroke-linejoin:miter;stroke-miterlimit:4;stroke-dasharray:none;stroke-opacity:1"
             id="path558" /></g><g
           id="g560"
           transform="translate(317.6025,628.354)"><path
             d="m 0,0 c 0.283,-0.951 0.547,-1.57 0.85,-2.334 l -2.903,0.01 c 0.131,0.271 0.576,1.379 0.867,2.326 0.313,1.018 0.524,1.939 0.602,2.537 C -0.512,1.939 -0.303,1.016 0,0"
             style="fill:#231f20;fill-opacity:1;fill-rule:nonzero;stroke:none"
             id="path562" /></g><g
           id="g564"
           transform="translate(300.2549,617.8652)"><path
             d="m 0,0 c 0,1.1 0.9,2 2,2 h 29.494 c 1.1,0 2,-0.9 2,-2 v -18.021 c 0,-1.1 -0.9,-2 -2,-2 H 2 c -1.1,0 -2,0.9 -2,2 z"
             style="fill:#feefe9;fill-opacity:1;fill-rule:nonzero;stroke:none"
             id="path566" /></g><g
           id="g568"
           transform="translate(300.2549,617.8652)"><path
             d="m 0,0 c 0,1.1 0.9,2 2,2 h 29.494 c 1.1,0 2,-0.9 2,-2 v -18.021 c 0,-1.1 -0.9,-2 -2,-2 H 2 c -1.1,0 -2,0.9 -2,2 z"
             style="fill:none;stroke:#d91920;stroke-width:1;stroke-linecap:butt;stroke-linejoin:round;stroke-miterlimit:4;stroke-dasharray:none;stroke-opacity:1"
             id="path570" /></g><text
           transform="matrix(1,0,0,-1,310.4224,606.6396)"
           style="font-variant:normal;font-weight:normal;font-stretch:normal;font-size:7px;font-family:Arial;-inkscape-font-specification:ArialMT;writing-mode:lr-tb;fill:#231f20;fill-opacity:1;fill-rule:nonzero;stroke:none"
           id="text576"><tspan
             x="0 4.277"
             y="0"
             id="tspan572">Tx</tspan><tspan
             x="7.777"
             y="2.0020001"
             id="tspan574">2</tspan></text><g
           id="g578"
           transform="translate(301.7256,638.7803)"><path
             d="m 0,0 -2.266,2.545 c 4.24,1.303 7.303,0.308 9.771,-0.492 1.828,-0.596 3.153,-1.024 4.973,-0.631 1.845,0.398 2.485,1.105 3.232,1.923 0.967,1.065 2.061,2.27 5.756,2.626 L 23.261,3.335 C 20.335,3.052 19.565,2.208 18.673,1.225 17.875,0.346 16.968,-0.65 14.567,-1.168 11.923,-1.74 9.687,-1.012 7.712,-0.373 5.483,0.353 3.372,1.039 0,0"
             style="fill:#f8a45c;fill-opacity:1;fill-rule:nonzero;stroke:none"
             id="path580" /></g><g
           id="g582"
           transform="translate(301.7256,638.7803)"><path
             d="m 0,0 -2.266,2.545 c 4.24,1.303 7.303,0.308 9.771,-0.492 1.828,-0.596 3.153,-1.024 4.973,-0.631 1.845,0.398 2.485,1.105 3.232,1.923 0.967,1.065 2.061,2.27 5.756,2.626 L 23.261,3.335 C 20.335,3.052 19.565,2.208 18.673,1.225 17.875,0.346 16.968,-0.65 14.567,-1.168 11.923,-1.74 9.687,-1.012 7.712,-0.373 5.483,0.353 3.372,1.039 0,0 Z"
             style="fill:none;stroke:#231f20;stroke-width:0.3;stroke-linecap:butt;stroke-linejoin:miter;stroke-miterlimit:4;stroke-dasharray:none;stroke-opacity:1"
             id="path584" /></g><g
           id="g586"
           transform="translate(306.1499,636.3608)"><path
             d="m 0,0 -2.266,2.545 c 4.238,1.306 7.306,0.309 9.77,-0.491 1.832,-0.595 3.155,-1.026 4.975,-0.633 1.845,0.399 2.486,1.106 3.232,1.927 0.967,1.064 2.063,2.269 5.753,2.623 l 1.8,-2.634 C 20.335,3.053 19.567,2.206 18.672,1.224 17.875,0.346 16.968,-0.651 14.567,-1.168 11.923,-1.738 9.687,-1.013 7.713,-0.371 5.483,0.354 3.375,1.039 0,0"
             style="fill:#f8a45c;fill-opacity:1;fill-rule:nonzero;stroke:none"
             id="path588" /></g><g
           id="g590"
           transform="translate(306.1499,636.3608)"><path
             d="m 0,0 -2.266,2.545 c 4.238,1.306 7.306,0.309 9.77,-0.491 1.832,-0.595 3.155,-1.026 4.975,-0.633 1.845,0.399 2.486,1.106 3.232,1.927 0.967,1.064 2.063,2.269 5.753,2.623 l 1.8,-2.634 C 20.335,3.053 19.567,2.206 18.672,1.224 17.875,0.346 16.968,-0.651 14.567,-1.168 11.923,-1.738 9.687,-1.013 7.713,-0.371 5.483,0.354 3.375,1.039 0,0 Z"
             style="fill:none;stroke:#231f20;stroke-width:0.3;stroke-linecap:butt;stroke-linejoin:miter;stroke-miterlimit:4;stroke-dasharray:none;stroke-opacity:1"
             id="path592" /></g><g
           id="g594"
           transform="translate(305.1689,633.6631)"><path
             d="M 0,0 -2.266,2.544 C 1.972,3.851 5.04,2.853 7.509,2.053 9.337,1.46 10.661,1.029 12.479,1.421 c 1.844,0.399 2.487,1.107 3.233,1.928 0.966,1.061 2.061,2.268 5.752,2.622 l 1.8,-2.636 C 20.335,3.055 19.566,2.207 18.67,1.224 17.873,0.346 16.968,-0.652 14.567,-1.169 11.927,-1.738 9.69,-1.015 7.714,-0.371 5.483,0.354 3.375,1.039 0,0"
             style="fill:#f8a45c;fill-opacity:1;fill-rule:nonzero;stroke:none"
             id="path596" /></g><g
           id="g598"
           transform="translate(305.1689,633.6631)"><path
             d="M 0,0 -2.266,2.544 C 1.972,3.851 5.04,2.853 7.509,2.053 9.337,1.46 10.661,1.029 12.479,1.421 c 1.844,0.399 2.487,1.107 3.233,1.928 0.966,1.061 2.061,2.268 5.752,2.622 l 1.8,-2.636 C 20.335,3.055 19.566,2.207 18.67,1.224 17.873,0.346 16.968,-0.652 14.567,-1.169 11.927,-1.738 9.69,-1.015 7.714,-0.371 5.483,0.354 3.375,1.039 0,0 Z"
             style="fill:none;stroke:#231f20;stroke-width:0.3;stroke-linecap:butt;stroke-linejoin:miter;stroke-miterlimit:4;stroke-dasharray:none;stroke-opacity:1"
             id="path600" /></g><g
           id="g602"
           transform="translate(309.6699,631.27)"><path
             d="m 0,0 -2.266,2.546 c 4.24,1.303 7.307,0.308 9.771,-0.491 1.829,-0.597 3.153,-1.028 4.972,-0.632 1.846,0.398 2.49,1.105 3.232,1.923 0.971,1.065 2.062,2.269 5.756,2.625 L 23.264,3.336 C 20.336,3.055 19.564,2.207 18.672,1.224 17.875,0.345 16.97,-0.649 14.568,-1.169 11.928,-1.74 9.688,-1.012 7.715,-0.371 5.482,0.354 3.373,1.039 0,0"
             style="fill:#f8a45c;fill-opacity:1;fill-rule:nonzero;stroke:none"
             id="path604" /></g><g
           id="g606"
           transform="translate(309.6699,631.27)"><path
             d="m 0,0 -2.266,2.546 c 4.24,1.303 7.307,0.308 9.771,-0.491 1.829,-0.597 3.153,-1.028 4.972,-0.632 1.846,0.398 2.49,1.105 3.232,1.923 0.971,1.065 2.062,2.269 5.756,2.625 L 23.264,3.336 C 20.336,3.055 19.564,2.207 18.672,1.224 17.875,0.345 16.97,-0.649 14.568,-1.169 11.928,-1.74 9.688,-1.012 7.715,-0.371 5.482,0.354 3.373,1.039 0,0 Z"
             style="fill:none;stroke:#231f20;stroke-width:0.3;stroke-linecap:butt;stroke-linejoin:miter;stroke-miterlimit:4;stroke-dasharray:none;stroke-opacity:1"
             id="path608" /></g><g
           id="g610"
           transform="translate(302.4146,641.5581)"><path
             d="M 0,0 -2.266,2.545 C 1.972,3.85 5.041,2.852 7.505,2.055 9.333,1.458 10.658,1.03 12.48,1.422 c 1.842,0.399 2.484,1.105 3.228,1.926 0.969,1.065 2.065,2.27 5.752,2.624 L 23.262,3.335 C 20.335,3.056 19.564,2.206 18.671,1.227 17.873,0.347 16.968,-0.649 14.566,-1.17 11.923,-1.738 9.687,-1.01 7.71,-0.371 5.478,0.354 3.375,1.04 0,0"
             style="fill:#f8a45c;fill-opacity:1;fill-rule:nonzero;stroke:none"
             id="path612" /></g><g
           id="g614"
           transform="translate(302.4146,641.5581)"><path
             d="M 0,0 -2.266,2.545 C 1.972,3.85 5.041,2.852 7.505,2.055 9.333,1.458 10.658,1.03 12.48,1.422 c 1.842,0.399 2.484,1.105 3.228,1.926 0.969,1.065 2.065,2.27 5.752,2.624 L 23.262,3.335 C 20.335,3.056 19.564,2.206 18.671,1.227 17.873,0.347 16.968,-0.649 14.566,-1.17 11.923,-1.738 9.687,-1.01 7.71,-0.371 5.478,0.354 3.375,1.04 0,0 Z"
             style="fill:none;stroke:#231f20;stroke-width:0.3;stroke-linecap:butt;stroke-linejoin:miter;stroke-miterlimit:4;stroke-dasharray:none;stroke-opacity:1"
             id="path616" /></g><g
           id="g618"
           transform="translate(302.5591,643.8281)"><path
             d="M 0,0 3.093,0.276 4.438,-0.441 2.425,-0.314 Z"
             style="fill:#231f20;fill-opacity:1;fill-rule:nonzero;stroke:none"
             id="path620" /></g><g
           id="g622"
           transform="translate(310.4629,642.2593)"><path
             d="M 0,0 3.303,-1.245 5.434,-0.572 2.728,-0.22 Z"
             style="fill:#231f20;fill-opacity:1;fill-rule:nonzero;stroke:none"
             id="path624" /></g><g
           id="g626"
           transform="translate(311.7617,638.2881)"><path
             d="m 0,0 -2.324,0.12 -0.951,-0.646 2.358,0.236 3.019,-1.206 1.894,0.026 -2.611,1.018 z"
             style="fill:#231f20;fill-opacity:1;fill-rule:nonzero;stroke:none"
             id="path628" /></g><g
           id="g630"
           transform="translate(325.457,638.5454)"><path
             d="m 0,0 c -0.59,-0.06 -2.095,-0.406 -2.095,-0.406 l -1.151,-1.888 1.623,1.148 2.521,0.351 z"
             style="fill:#231f20;fill-opacity:1;fill-rule:nonzero;stroke:none"
             id="path632" /></g><g
           id="g634"
           transform="translate(326.6543,633.9087)"><path
             d="m 0,0 -1.07,-1.354 -2.442,-0.77 1.369,-0.584 2.008,0.825 z"
             style="fill:#231f20;fill-opacity:1;fill-rule:nonzero;stroke:none"
             id="path636" /></g><g
           id="g638"
           transform="translate(316.4443,632.6543)"><path
             d="M 0,0 -2.362,0.716 -4.173,0.271 -2.014,0.128 Z"
             style="fill:#231f20;fill-opacity:1;fill-rule:nonzero;stroke:none"
             id="path640" /></g><g
           id="g642"
           transform="translate(308.5986,635.5757)"><path
             d="M 0,0 -1.345,-0.233 0.528,-0.34 Z"
             style="fill:#231f20;fill-opacity:1;fill-rule:nonzero;stroke:none"
             id="path644" /></g><g
           id="g646"
           transform="translate(319.5352,643.6597)"><path
             d="m 0,0 -1.668,-0.461 -1.971,-1.511 2.705,0.598 z"
             style="fill:#f9aeca;fill-opacity:1;fill-rule:evenodd;stroke:none"
             id="path648" /></g><g
           id="g650"
           transform="translate(321.6641,635.5068)"><path
             d="m 0,0 -2.196,-1.073 -0.24,-0.647 2.112,0.541 z"
             style="fill:#f9aeca;fill-opacity:1;fill-rule:evenodd;stroke:none"
             id="path652" /></g><g
           id="g654"
           transform="translate(331.0625,636.1875)"><path
             d="m 0,0 -2.457,-0.902 -0.18,-1.199 2.033,0.957 z"
             style="fill:#f9aeca;fill-opacity:1;fill-rule:evenodd;stroke:none"
             id="path656" /></g><g
           id="g658"
           transform="translate(307.1094,636.3125)"><path
             d="m 0,0 -1.664,-1.414 -0.595,0.893 z"
             style="fill:#f9aeca;fill-opacity:1;fill-rule:evenodd;stroke:none"
             id="path660" /></g><g
           id="g662"
           transform="translate(317.1504,639.3516)"><path
             d="m 0,0 -3.014,0.256 1.631,-0.752 z"
             style="fill:#96cd56;fill-opacity:1;fill-rule:evenodd;stroke:none"
             id="path664" /></g><g
           id="g666"
           transform="translate(320.1104,631.9072)"><path
             d="m 0,0 -2.812,0.636 c 0,0 1.451,-1.003 1.859,-1.192 0.408,-0.188 2.85,-0.37 2.85,-0.37 z"
             style="fill:#96cd56;fill-opacity:1;fill-rule:evenodd;stroke:none"
             id="path668" /></g><g
           id="g670"
           transform="translate(308.0957,639.0361)"><path
             d="m 0,0 -2.485,-0.084 0.963,-1.348 z"
             style="fill:#96cd56;fill-opacity:1;fill-rule:evenodd;stroke:none"
             id="path672" /></g><g
           id="g674"
           transform="translate(322.9844,646.334)"><path
             d="m 0,0 -2.785,-1.132 c 0,0 -1.111,-1.619 -0.664,-1.542 0.445,0.078 2.377,1.32 2.377,1.32 z"
             style="fill:#96cd56;fill-opacity:1;fill-rule:evenodd;stroke:none"
             id="path676" /></g><g
           id="g678"
           transform="translate(352.3281,638.5908)"><path
             d="m 0,0 -2.267,2.545 c 4.241,1.303 7.304,0.308 9.772,-0.492 1.828,-0.596 3.153,-1.024 4.973,-0.631 1.845,0.398 2.485,1.105 3.232,1.923 0.967,1.065 2.061,2.27 5.756,2.626 L 23.261,3.335 C 20.335,3.052 19.565,2.208 18.673,1.225 17.875,0.346 16.968,-0.65 14.567,-1.168 11.923,-1.74 9.687,-1.012 7.712,-0.373 5.483,0.353 3.372,1.039 0,0"
             style="fill:#f8a45c;fill-opacity:1;fill-rule:nonzero;stroke:none"
             id="path680" /></g><g
           id="g682"
           transform="translate(352.3281,638.5908)"><path
             d="m 0,0 -2.267,2.545 c 4.241,1.303 7.304,0.308 9.772,-0.492 1.828,-0.596 3.153,-1.024 4.973,-0.631 1.845,0.398 2.485,1.105 3.232,1.923 0.967,1.065 2.061,2.27 5.756,2.626 L 23.261,3.335 C 20.335,3.052 19.565,2.208 18.673,1.225 17.875,0.346 16.968,-0.65 14.567,-1.168 11.923,-1.74 9.687,-1.012 7.712,-0.373 5.483,0.353 3.372,1.039 0,0 Z"
             style="fill:none;stroke:#231f20;stroke-width:0.3;stroke-linecap:butt;stroke-linejoin:miter;stroke-miterlimit:4;stroke-dasharray:none;stroke-opacity:1"
             id="path684" /></g><g
           id="g686"
           transform="translate(356.7529,636.1714)"><path
             d="m 0,0 -2.267,2.545 c 4.239,1.306 7.306,0.309 9.771,-0.491 1.832,-0.595 3.154,-1.026 4.975,-0.633 1.844,0.399 2.486,1.106 3.232,1.927 0.967,1.064 2.062,2.269 5.753,2.623 l 1.8,-2.634 C 20.335,3.053 19.566,2.206 18.672,1.224 17.875,0.346 16.968,-0.651 14.566,-1.168 11.923,-1.738 9.687,-1.013 7.713,-0.371 5.482,0.354 3.375,1.039 0,0"
             style="fill:#f8a45c;fill-opacity:1;fill-rule:nonzero;stroke:none"
             id="path688" /></g><g
           id="g690"
           transform="translate(356.7529,636.1714)"><path
             d="m 0,0 -2.267,2.545 c 4.239,1.306 7.306,0.309 9.771,-0.491 1.832,-0.595 3.154,-1.026 4.975,-0.633 1.844,0.399 2.486,1.106 3.232,1.927 0.967,1.064 2.062,2.269 5.753,2.623 l 1.8,-2.634 C 20.335,3.053 19.566,2.206 18.672,1.224 17.875,0.346 16.968,-0.651 14.566,-1.168 11.923,-1.738 9.687,-1.013 7.713,-0.371 5.482,0.354 3.375,1.039 0,0 Z"
             style="fill:none;stroke:#231f20;stroke-width:0.3;stroke-linecap:butt;stroke-linejoin:miter;stroke-miterlimit:4;stroke-dasharray:none;stroke-opacity:1"
             id="path692" /></g><g
           id="g694"
           transform="translate(355.7715,633.4736)"><path
             d="M 0,0 -2.267,2.544 C 1.972,3.851 5.04,2.853 7.509,2.053 9.337,1.46 10.661,1.029 12.479,1.421 c 1.844,0.399 2.487,1.107 3.233,1.928 0.966,1.061 2.061,2.268 5.752,2.622 l 1.8,-2.636 C 20.335,3.055 19.566,2.207 18.67,1.224 17.873,0.346 16.968,-0.652 14.567,-1.169 11.927,-1.738 9.69,-1.015 7.714,-0.371 5.483,0.354 3.375,1.039 0,0"
             style="fill:#f8a45c;fill-opacity:1;fill-rule:nonzero;stroke:none"
             id="path696" /></g><g
           id="g698"
           transform="translate(355.7715,633.4736)"><path
             d="M 0,0 -2.267,2.544 C 1.972,3.851 5.04,2.853 7.509,2.053 9.337,1.46 10.661,1.029 12.479,1.421 c 1.844,0.399 2.487,1.107 3.233,1.928 0.966,1.061 2.061,2.268 5.752,2.622 l 1.8,-2.636 C 20.335,3.055 19.566,2.207 18.67,1.224 17.873,0.346 16.968,-0.652 14.567,-1.169 11.927,-1.738 9.69,-1.015 7.714,-0.371 5.483,0.354 3.375,1.039 0,0 Z"
             style="fill:none;stroke:#231f20;stroke-width:0.3;stroke-linecap:butt;stroke-linejoin:miter;stroke-miterlimit:4;stroke-dasharray:none;stroke-opacity:1"
             id="path700" /></g><g
           id="g702"
           transform="translate(360.2725,631.0806)"><path
             d="m 0,0 -2.266,2.546 c 4.24,1.303 7.307,0.308 9.771,-0.491 1.829,-0.597 3.153,-1.028 4.972,-0.632 1.846,0.398 2.49,1.105 3.232,1.923 0.971,1.065 2.062,2.269 5.756,2.625 L 23.264,3.336 C 20.336,3.055 19.564,2.207 18.672,1.224 17.875,0.345 16.97,-0.649 14.568,-1.169 11.928,-1.74 9.688,-1.012 7.715,-0.371 5.482,0.354 3.373,1.039 0,0"
             style="fill:#f8a45c;fill-opacity:1;fill-rule:nonzero;stroke:none"
             id="path704" /></g><g
           id="g706"
           transform="translate(360.2725,631.0806)"><path
             d="m 0,0 -2.266,2.546 c 4.24,1.303 7.307,0.308 9.771,-0.491 1.829,-0.597 3.153,-1.028 4.972,-0.632 1.846,0.398 2.49,1.105 3.232,1.923 0.971,1.065 2.062,2.269 5.756,2.625 L 23.264,3.336 C 20.336,3.055 19.564,2.207 18.672,1.224 17.875,0.345 16.97,-0.649 14.568,-1.169 11.928,-1.74 9.688,-1.012 7.715,-0.371 5.482,0.354 3.373,1.039 0,0 Z"
             style="fill:none;stroke:#231f20;stroke-width:0.3;stroke-linecap:butt;stroke-linejoin:miter;stroke-miterlimit:4;stroke-dasharray:none;stroke-opacity:1"
             id="path708" /></g><g
           id="g710"
           transform="translate(353.0166,641.3687)"><path
             d="M 0,0 -2.266,2.545 C 1.973,3.85 5.041,2.852 7.506,2.055 9.334,1.458 10.658,1.03 12.48,1.422 c 1.842,0.399 2.485,1.105 3.229,1.926 0.969,1.065 2.064,2.27 5.752,2.624 L 23.263,3.335 C 20.336,3.056 19.564,2.206 18.672,1.227 17.873,0.347 16.969,-0.649 14.566,-1.17 11.924,-1.738 9.688,-1.01 7.711,-0.371 5.479,0.354 3.375,1.04 0,0"
             style="fill:#f8a45c;fill-opacity:1;fill-rule:nonzero;stroke:none"
             id="path712" /></g><g
           id="g714"
           transform="translate(353.0166,641.3687)"><path
             d="M 0,0 -2.266,2.545 C 1.973,3.85 5.041,2.852 7.506,2.055 9.334,1.458 10.658,1.03 12.48,1.422 c 1.842,0.399 2.485,1.105 3.229,1.926 0.969,1.065 2.064,2.27 5.752,2.624 L 23.263,3.335 C 20.336,3.056 19.564,2.206 18.672,1.227 17.873,0.347 16.969,-0.649 14.566,-1.17 11.924,-1.738 9.688,-1.01 7.711,-0.371 5.479,0.354 3.375,1.04 0,0 Z"
             style="fill:none;stroke:#231f20;stroke-width:0.3;stroke-linecap:butt;stroke-linejoin:miter;stroke-miterlimit:4;stroke-dasharray:none;stroke-opacity:1"
             id="path716" /></g><g
           id="g718"
           transform="translate(353.1611,643.6387)"><path
             d="M 0,0 3.094,0.276 4.438,-0.441 2.426,-0.314 Z"
             style="fill:#231f20;fill-opacity:1;fill-rule:nonzero;stroke:none"
             id="path720" /></g><g
           id="g722"
           transform="translate(361.0654,642.0698)"><path
             d="M 0,0 3.303,-1.245 5.434,-0.572 2.728,-0.22 Z"
             style="fill:#231f20;fill-opacity:1;fill-rule:nonzero;stroke:none"
             id="path724" /></g><g
           id="g726"
           transform="translate(362.3643,638.0986)"><path
             d="m 0,0 -2.324,0.12 -0.951,-0.646 2.358,0.236 3.019,-1.206 1.894,0.026 -2.611,1.018 z"
             style="fill:#231f20;fill-opacity:1;fill-rule:nonzero;stroke:none"
             id="path728" /></g><g
           id="g730"
           transform="translate(376.0596,638.356)"><path
             d="m 0,0 c -0.59,-0.06 -2.095,-0.406 -2.095,-0.406 l -1.151,-1.888 1.623,1.148 2.521,0.351 z"
             style="fill:#231f20;fill-opacity:1;fill-rule:nonzero;stroke:none"
             id="path732" /></g><g
           id="g734"
           transform="translate(377.2568,633.7192)"><path
             d="m 0,0 -1.07,-1.354 -2.442,-0.77 1.369,-0.584 2.008,0.825 z"
             style="fill:#231f20;fill-opacity:1;fill-rule:nonzero;stroke:none"
             id="path736" /></g><g
           id="g738"
           transform="translate(367.0469,632.4648)"><path
             d="M 0,0 -2.362,0.716 -4.173,0.271 -2.014,0.128 Z"
             style="fill:#231f20;fill-opacity:1;fill-rule:nonzero;stroke:none"
             id="path740" /></g><g
           id="g742"
           transform="translate(359.2012,635.3862)"><path
             d="M 0,0 -1.345,-0.233 0.528,-0.34 Z"
             style="fill:#231f20;fill-opacity:1;fill-rule:nonzero;stroke:none"
             id="path744" /></g><g
           id="g746"
           transform="translate(370.1377,643.4702)"><path
             d="m 0,0 -1.668,-0.461 -1.971,-1.511 2.705,0.598 z"
             style="fill:#f9aeca;fill-opacity:1;fill-rule:evenodd;stroke:none"
             id="path748" /></g><g
           id="g750"
           transform="translate(372.2666,635.3174)"><path
             d="m 0,0 -2.196,-1.073 -0.24,-0.647 2.112,0.541 z"
             style="fill:#f9aeca;fill-opacity:1;fill-rule:evenodd;stroke:none"
             id="path752" /></g><g
           id="g754"
           transform="translate(381.665,635.998)"><path
             d="m 0,0 -2.457,-0.902 -0.18,-1.199 2.033,0.957 z"
             style="fill:#f9aeca;fill-opacity:1;fill-rule:evenodd;stroke:none"
             id="path756" /></g><g
           id="g758"
           transform="translate(357.7119,636.123)"><path
             d="M 0,0 -1.664,-1.414 -2.26,-0.521 Z"
             style="fill:#f9aeca;fill-opacity:1;fill-rule:evenodd;stroke:none"
             id="path760" /></g><g
           id="g762"
           transform="translate(367.7529,639.1621)"><path
             d="m 0,0 -3.014,0.256 1.631,-0.752 z"
             style="fill:#96cd56;fill-opacity:1;fill-rule:evenodd;stroke:none"
             id="path764" /></g><g
           id="g766"
           transform="translate(370.7129,631.7178)"><path
             d="m 0,0 -2.812,0.636 c 0,0 1.451,-1.003 1.859,-1.192 0.408,-0.188 2.85,-0.37 2.85,-0.37 z"
             style="fill:#96cd56;fill-opacity:1;fill-rule:evenodd;stroke:none"
             id="path768" /></g><g
           id="g770"
           transform="translate(358.6982,638.8467)"><path
             d="m 0,0 -2.485,-0.084 0.963,-1.348 z"
             style="fill:#96cd56;fill-opacity:1;fill-rule:evenodd;stroke:none"
             id="path772" /></g><g
           id="g774"
           transform="translate(373.5869,646.1445)"><path
             d="m 0,0 -2.785,-1.132 c 0,0 -1.111,-1.619 -0.664,-1.542 0.445,0.078 2.377,1.32 2.377,1.32 z"
             style="fill:#96cd56;fill-opacity:1;fill-rule:evenodd;stroke:none"
             id="path776" /></g><g
           id="g778"
           transform="translate(405.5039,654.5)"><path
             d="M 0,0 H 14.916 V -11.874"
             style="fill:none;stroke:#231f20;stroke-width:0.5;stroke-linecap:butt;stroke-linejoin:miter;stroke-miterlimit:4;stroke-dasharray:none;stroke-opacity:1"
             id="path780" /></g><g
           id="g782"
           transform="translate(383.999,653.8984)"><path
             d="m 0,0 c -0.951,-0.283 -1.57,-0.547 -2.334,-0.85 l 0.01,2.903 C -2.053,1.922 -0.945,1.477 0.002,1.186 1.02,0.873 1.941,0.662 2.539,0.584 1.939,0.512 1.016,0.303 0,0"
             style="fill:#231f20;fill-opacity:1;fill-rule:nonzero;stroke:none"
             id="path784" /></g><text
           transform="matrix(1,0,0,-1,385.9053,648.7734)"
           style="font-variant:normal;font-weight:bold;font-stretch:condensed;font-size:19px;font-family:'Humanst521 Cn BT';-inkscape-font-specification:Humanist521BT-BoldCondensed;writing-mode:lr-tb;fill:#ffffff;fill-opacity:1;fill-rule:nonzero;stroke:none"
           id="text788"><tspan
             x="0"
             y="0"
             id="tspan786">+</tspan></text><g
           id="g790"
           transform="translate(392.8818,655.3691)"><path
             d="M 0,0 H -4.62 V -1.846 H 0 v -4.75 h 1.874 v 4.75 h 4.62 V 0 H 1.874 V 4.732 H 0 Z"
             style="fill:none;stroke:#ffffff;stroke-width:2;stroke-linecap:butt;stroke-linejoin:miter;stroke-miterlimit:4;stroke-dasharray:none;stroke-opacity:1"
             id="path792" /></g><text
           transform="matrix(1,0,0,-1,385.9053,648.7734)"
           style="font-variant:normal;font-weight:bold;font-stretch:condensed;font-size:19px;font-family:'Humanst521 Cn BT';-inkscape-font-specification:Humanist521BT-BoldCondensed;writing-mode:lr-tb;fill:#4bab33;fill-opacity:1;fill-rule:nonzero;stroke:none"
           id="text796"><tspan
             x="0"
             y="0"
             id="tspan794">+</tspan></text><g
           id="g798"
           transform="translate(403.667,653.8984)"><path
             d="M 0,0 C 0.951,-0.283 1.57,-0.547 2.334,-0.85 L 2.324,2.053 C 2.053,1.922 0.945,1.477 -0.002,1.186 -1.02,0.873 -1.941,0.662 -2.539,0.584 -1.939,0.512 -1.016,0.303 0,0"
             style="fill:#231f20;fill-opacity:1;fill-rule:nonzero;stroke:none"
             id="path800" /></g><g
           id="g802"
           transform="translate(420.4199,626.2544)"><path
             d="M 0,0 V -5.903"
             style="fill:none;stroke:#231f20;stroke-width:0.5;stroke-linecap:butt;stroke-linejoin:miter;stroke-miterlimit:4;stroke-dasharray:none;stroke-opacity:1"
             id="path804" /></g><g
           id="g806"
           transform="translate(421.0215,628.354)"><path
             d="m 0,0 c 0.283,-0.951 0.547,-1.57 0.85,-2.334 l -2.903,0.01 c 0.131,0.271 0.576,1.379 0.867,2.326 0.313,1.018 0.524,1.939 0.602,2.537 C -0.512,1.939 -0.303,1.016 0,0"
             style="fill:#231f20;fill-opacity:1;fill-rule:nonzero;stroke:none"
             id="path808" /></g><g
           id="g810"
           transform="translate(403.6738,617.8652)"><path
             d="m 0,0 c 0,1.1 0.9,2 2,2 h 29.494 c 1.1,0 2,-0.9 2,-2 v -18.021 c 0,-1.1 -0.9,-2 -2,-2 H 2 c -1.1,0 -2,0.9 -2,2 z"
             style="fill:#feefe9;fill-opacity:1;fill-rule:nonzero;stroke:none"
             id="path812" /></g><g
           id="g814"
           transform="translate(403.6738,617.8652)"><path
             d="m 0,0 c 0,1.1 0.9,2 2,2 h 29.494 c 1.1,0 2,-0.9 2,-2 v -18.021 c 0,-1.1 -0.9,-2 -2,-2 H 2 c -1.1,0 -2,0.9 -2,2 z"
             style="fill:none;stroke:#d91920;stroke-width:1;stroke-linecap:butt;stroke-linejoin:round;stroke-miterlimit:4;stroke-dasharray:none;stroke-opacity:1"
             id="path816" /></g><text
           transform="matrix(1,0,0,-1,413.8413,606.6396)"
           style="font-variant:normal;font-weight:normal;font-stretch:normal;font-size:7px;font-family:Arial;-inkscape-font-specification:ArialMT;writing-mode:lr-tb;fill:#231f20;fill-opacity:1;fill-rule:nonzero;stroke:none"
           id="text822"><tspan
             x="0 4.277"
             y="0"
             id="tspan818">Tx</tspan><tspan
             x="7.777"
             y="2.0020001"
             id="tspan820">3</tspan></text><g
           id="g824"
           transform="translate(405.1436,638.7803)"><path
             d="m 0,0 -2.267,2.545 c 4.241,1.303 7.304,0.308 9.772,-0.492 1.828,-0.596 3.153,-1.024 4.973,-0.631 1.845,0.398 2.485,1.105 3.232,1.923 0.967,1.065 2.061,2.27 5.756,2.626 L 23.261,3.335 C 20.335,3.052 19.565,2.208 18.673,1.225 17.875,0.346 16.968,-0.65 14.567,-1.168 11.923,-1.74 9.687,-1.012 7.712,-0.373 5.483,0.353 3.372,1.039 0,0"
             style="fill:#f8a45c;fill-opacity:1;fill-rule:nonzero;stroke:none"
             id="path826" /></g><g
           id="g828"
           transform="translate(405.1436,638.7803)"><path
             d="m 0,0 -2.267,2.545 c 4.241,1.303 7.304,0.308 9.772,-0.492 1.828,-0.596 3.153,-1.024 4.973,-0.631 1.845,0.398 2.485,1.105 3.232,1.923 0.967,1.065 2.061,2.27 5.756,2.626 L 23.261,3.335 C 20.335,3.052 19.565,2.208 18.673,1.225 17.875,0.346 16.968,-0.65 14.567,-1.168 11.923,-1.74 9.687,-1.012 7.712,-0.373 5.483,0.353 3.372,1.039 0,0 Z"
             style="fill:none;stroke:#231f20;stroke-width:0.3;stroke-linecap:butt;stroke-linejoin:miter;stroke-miterlimit:4;stroke-dasharray:none;stroke-opacity:1"
             id="path830" /></g><g
           id="g832"
           transform="translate(409.5684,636.3608)"><path
             d="m 0,0 -2.267,2.545 c 4.239,1.306 7.306,0.309 9.771,-0.491 1.832,-0.595 3.154,-1.026 4.975,-0.633 1.844,0.399 2.486,1.106 3.232,1.927 0.967,1.064 2.062,2.269 5.753,2.623 l 1.8,-2.634 C 20.335,3.053 19.566,2.206 18.672,1.224 17.875,0.346 16.968,-0.651 14.566,-1.168 11.923,-1.738 9.687,-1.013 7.713,-0.371 5.482,0.354 3.375,1.039 0,0"
             style="fill:#f8a45c;fill-opacity:1;fill-rule:nonzero;stroke:none"
             id="path834" /></g><g
           id="g836"
           transform="translate(409.5684,636.3608)"><path
             d="m 0,0 -2.267,2.545 c 4.239,1.306 7.306,0.309 9.771,-0.491 1.832,-0.595 3.154,-1.026 4.975,-0.633 1.844,0.399 2.486,1.106 3.232,1.927 0.967,1.064 2.062,2.269 5.753,2.623 l 1.8,-2.634 C 20.335,3.053 19.566,2.206 18.672,1.224 17.875,0.346 16.968,-0.651 14.566,-1.168 11.923,-1.738 9.687,-1.013 7.713,-0.371 5.482,0.354 3.375,1.039 0,0 Z"
             style="fill:none;stroke:#231f20;stroke-width:0.3;stroke-linecap:butt;stroke-linejoin:miter;stroke-miterlimit:4;stroke-dasharray:none;stroke-opacity:1"
             id="path838" /></g><g
           id="g840"
           transform="translate(408.5869,633.6631)"><path
             d="M 0,0 -2.267,2.544 C 1.972,3.851 5.04,2.853 7.509,2.053 9.337,1.46 10.661,1.029 12.479,1.421 c 1.844,0.399 2.487,1.107 3.233,1.928 0.966,1.061 2.061,2.268 5.752,2.622 l 1.8,-2.636 C 20.335,3.055 19.566,2.207 18.67,1.224 17.873,0.346 16.968,-0.652 14.567,-1.169 11.927,-1.738 9.69,-1.015 7.714,-0.371 5.483,0.354 3.375,1.039 0,0"
             style="fill:#f8a45c;fill-opacity:1;fill-rule:nonzero;stroke:none"
             id="path842" /></g><g
           id="g844"
           transform="translate(408.5869,633.6631)"><path
             d="M 0,0 -2.267,2.544 C 1.972,3.851 5.04,2.853 7.509,2.053 9.337,1.46 10.661,1.029 12.479,1.421 c 1.844,0.399 2.487,1.107 3.233,1.928 0.966,1.061 2.061,2.268 5.752,2.622 l 1.8,-2.636 C 20.335,3.055 19.566,2.207 18.67,1.224 17.873,0.346 16.968,-0.652 14.567,-1.169 11.927,-1.738 9.69,-1.015 7.714,-0.371 5.483,0.354 3.375,1.039 0,0 Z"
             style="fill:none;stroke:#231f20;stroke-width:0.3;stroke-linecap:butt;stroke-linejoin:miter;stroke-miterlimit:4;stroke-dasharray:none;stroke-opacity:1"
             id="path846" /></g><g
           id="g848"
           transform="translate(413.0879,631.27)"><path
             d="m 0,0 -2.266,2.546 c 4.24,1.303 7.307,0.308 9.771,-0.491 1.829,-0.597 3.153,-1.028 4.972,-0.632 1.846,0.398 2.49,1.105 3.232,1.923 0.971,1.065 2.062,2.269 5.756,2.625 L 23.264,3.336 C 20.336,3.055 19.564,2.207 18.672,1.224 17.875,0.345 16.97,-0.649 14.568,-1.169 11.928,-1.74 9.688,-1.012 7.715,-0.371 5.482,0.354 3.373,1.039 0,0"
             style="fill:#f8a45c;fill-opacity:1;fill-rule:nonzero;stroke:none"
             id="path850" /></g><g
           id="g852"
           transform="translate(413.0879,631.27)"><path
             d="m 0,0 -2.266,2.546 c 4.24,1.303 7.307,0.308 9.771,-0.491 1.829,-0.597 3.153,-1.028 4.972,-0.632 1.846,0.398 2.49,1.105 3.232,1.923 0.971,1.065 2.062,2.269 5.756,2.625 L 23.264,3.336 C 20.336,3.055 19.564,2.207 18.672,1.224 17.875,0.345 16.97,-0.649 14.568,-1.169 11.928,-1.74 9.688,-1.012 7.715,-0.371 5.482,0.354 3.373,1.039 0,0 Z"
             style="fill:none;stroke:#231f20;stroke-width:0.3;stroke-linecap:butt;stroke-linejoin:miter;stroke-miterlimit:4;stroke-dasharray:none;stroke-opacity:1"
             id="path854" /></g><g
           id="g856"
           transform="translate(405.832,641.5581)"><path
             d="M 0,0 -2.266,2.545 C 1.973,3.85 5.041,2.852 7.506,2.055 9.334,1.458 10.658,1.03 12.48,1.422 c 1.842,0.399 2.485,1.105 3.229,1.926 0.969,1.065 2.064,2.27 5.752,2.624 L 23.263,3.335 C 20.336,3.056 19.564,2.206 18.672,1.227 17.873,0.347 16.969,-0.649 14.566,-1.17 11.924,-1.738 9.688,-1.01 7.711,-0.371 5.479,0.354 3.375,1.04 0,0"
             style="fill:#f8a45c;fill-opacity:1;fill-rule:nonzero;stroke:none"
             id="path858" /></g><g
           id="g860"
           transform="translate(405.832,641.5581)"><path
             d="M 0,0 -2.266,2.545 C 1.973,3.85 5.041,2.852 7.506,2.055 9.334,1.458 10.658,1.03 12.48,1.422 c 1.842,0.399 2.485,1.105 3.229,1.926 0.969,1.065 2.064,2.27 5.752,2.624 L 23.263,3.335 C 20.336,3.056 19.564,2.206 18.672,1.227 17.873,0.347 16.969,-0.649 14.566,-1.17 11.924,-1.738 9.688,-1.01 7.711,-0.371 5.479,0.354 3.375,1.04 0,0 Z"
             style="fill:none;stroke:#231f20;stroke-width:0.3;stroke-linecap:butt;stroke-linejoin:miter;stroke-miterlimit:4;stroke-dasharray:none;stroke-opacity:1"
             id="path862" /></g><g
           id="g864"
           transform="translate(405.9766,643.8281)"><path
             d="M 0,0 3.094,0.276 4.438,-0.441 2.426,-0.314 Z"
             style="fill:#231f20;fill-opacity:1;fill-rule:nonzero;stroke:none"
             id="path866" /></g><g
           id="g868"
           transform="translate(413.8809,642.2593)"><path
             d="M 0,0 3.303,-1.245 5.434,-0.572 2.728,-0.22 Z"
             style="fill:#231f20;fill-opacity:1;fill-rule:nonzero;stroke:none"
             id="path870" /></g><g
           id="g872"
           transform="translate(415.1797,638.2881)"><path
             d="m 0,0 -2.324,0.12 -0.951,-0.646 2.358,0.236 3.019,-1.206 1.894,0.026 -2.611,1.018 z"
             style="fill:#231f20;fill-opacity:1;fill-rule:nonzero;stroke:none"
             id="path874" /></g><g
           id="g876"
           transform="translate(428.875,638.5454)"><path
             d="m 0,0 c -0.59,-0.06 -2.095,-0.406 -2.095,-0.406 l -1.151,-1.888 1.623,1.148 2.521,0.351 z"
             style="fill:#231f20;fill-opacity:1;fill-rule:nonzero;stroke:none"
             id="path878" /></g><g
           id="g880"
           transform="translate(430.0723,633.9087)"><path
             d="m 0,0 -1.07,-1.354 -2.442,-0.77 1.369,-0.584 2.008,0.825 z"
             style="fill:#231f20;fill-opacity:1;fill-rule:nonzero;stroke:none"
             id="path882" /></g><g
           id="g884"
           transform="translate(419.8623,632.6543)"><path
             d="M 0,0 -2.362,0.716 -4.173,0.271 -2.014,0.128 Z"
             style="fill:#231f20;fill-opacity:1;fill-rule:nonzero;stroke:none"
             id="path886" /></g><g
           id="g888"
           transform="translate(412.0166,635.5757)"><path
             d="M 0,0 -1.345,-0.233 0.528,-0.34 Z"
             style="fill:#231f20;fill-opacity:1;fill-rule:nonzero;stroke:none"
             id="path890" /></g><g
           id="g892"
           transform="translate(422.9531,643.6597)"><path
             d="m 0,0 -1.668,-0.461 -1.971,-1.511 2.705,0.598 z"
             style="fill:#f9aeca;fill-opacity:1;fill-rule:evenodd;stroke:none"
             id="path894" /></g><g
           id="g896"
           transform="translate(425.082,635.5068)"><path
             d="m 0,0 -2.196,-1.073 -0.24,-0.647 2.112,0.541 z"
             style="fill:#f9aeca;fill-opacity:1;fill-rule:evenodd;stroke:none"
             id="path898" /></g><g
           id="g900"
           transform="translate(434.4805,636.1875)"><path
             d="m 0,0 -2.457,-0.902 -0.18,-1.199 2.033,0.957 z"
             style="fill:#f9aeca;fill-opacity:1;fill-rule:evenodd;stroke:none"
             id="path902" /></g><g
           id="g904"
           transform="translate(410.5273,636.3125)"><path
             d="M 0,0 -1.664,-1.414 -2.26,-0.521 Z"
             style="fill:#f9aeca;fill-opacity:1;fill-rule:evenodd;stroke:none"
             id="path906" /></g><g
           id="g908"
           transform="translate(420.5684,639.3516)"><path
             d="m 0,0 -3.014,0.256 1.631,-0.752 z"
             style="fill:#96cd56;fill-opacity:1;fill-rule:evenodd;stroke:none"
             id="path910" /></g><g
           id="g912"
           transform="translate(423.5283,631.9072)"><path
             d="m 0,0 -2.812,0.636 c 0,0 1.451,-1.003 1.859,-1.192 0.408,-0.188 2.85,-0.37 2.85,-0.37 z"
             style="fill:#96cd56;fill-opacity:1;fill-rule:evenodd;stroke:none"
             id="path914" /></g><g
           id="g916"
           transform="translate(411.5137,639.0361)"><path
             d="m 0,0 -2.485,-0.084 0.963,-1.348 z"
             style="fill:#96cd56;fill-opacity:1;fill-rule:evenodd;stroke:none"
             id="path918" /></g><g
           id="g920"
           transform="translate(426.4023,646.334)"><path
             d="m 0,0 -2.785,-1.132 c 0,0 -1.111,-1.619 -0.664,-1.542 0.445,0.078 2.377,1.32 2.377,1.32 z"
             style="fill:#96cd56;fill-opacity:1;fill-rule:evenodd;stroke:none"
             id="path922" /></g><g
           id="g924"
           transform="translate(367.4141,626.2544)"><path
             d="M 0,0 V -5.903"
             style="fill:none;stroke:#231f20;stroke-width:0.5;stroke-linecap:butt;stroke-linejoin:miter;stroke-miterlimit:4;stroke-dasharray:none;stroke-opacity:1"
             id="path926" /></g><g
           id="g928"
           transform="translate(368.0156,628.354)"><path
             d="m 0,0 c 0.283,-0.951 0.547,-1.57 0.85,-2.334 l -2.903,0.01 c 0.131,0.271 0.576,1.379 0.867,2.326 0.313,1.018 0.524,1.939 0.602,2.537 C -0.512,1.939 -0.303,1.016 0,0"
             style="fill:#231f20;fill-opacity:1;fill-rule:nonzero;stroke:none"
             id="path930" /></g><g
           id="g932"
           transform="translate(350.667,617.8652)"><path
             d="m 0,0 c 0,1.1 0.9,2 2,2 h 29.494 c 1.1,0 2,-0.9 2,-2 v -18.021 c 0,-1.1 -0.9,-2 -2,-2 H 2 c -1.1,0 -2,0.9 -2,2 z"
             style="fill:#feefe9;fill-opacity:1;fill-rule:nonzero;stroke:none"
             id="path934" /></g><g
           id="g936"
           transform="translate(350.667,617.8652)"><path
             d="m 0,0 c 0,1.1 0.9,2 2,2 h 29.494 c 1.1,0 2,-0.9 2,-2 v -18.021 c 0,-1.1 -0.9,-2 -2,-2 H 2 c -1.1,0 -2,0.9 -2,2 z"
             style="fill:none;stroke:#d91920;stroke-width:1;stroke-linecap:butt;stroke-linejoin:round;stroke-miterlimit:4;stroke-dasharray:none;stroke-opacity:1"
             id="path938" /></g><text
           transform="matrix(1,0,0,-1,360.834,606.6396)"
           style="font-variant:normal;font-weight:normal;font-stretch:normal;font-size:7px;font-family:Arial;-inkscape-font-specification:ArialMT;writing-mode:lr-tb;fill:#231f20;fill-opacity:1;fill-rule:nonzero;stroke:none"
           id="text944"><tspan
             x="0 4.277"
             y="0"
             id="tspan940">Tx</tspan><tspan
             x="7.777"
             y="2.0020001"
             id="tspan942">3</tspan></text><text
           transform="matrix(1,0,0,-1,127.9395,638.2187)"
           style="font-variant:normal;font-weight:bold;font-stretch:condensed;font-size:9px;font-family:'Humanst521 Cn BT';-inkscape-font-specification:Humanist521BT-BoldCondensed;writing-mode:lr-tb;fill:#231f20;fill-opacity:1;fill-rule:nonzero;stroke:none"
           id="text964"><tspan
             x="0 4.0500002 8.5410004 12.501 14.805 20.511 22.643999 25.641001 30.122999 34.083 37.584 41.084999 43.389 46.988998 51.335999 58.077 64.818001 66.950996 69.947998 76.689003 80.649002 85.130997"
             y="0"
             id="tspan946">The witness commitment</tspan><tspan
             x="0 2.1329999 5.6339998 7.9380002 11.988 14.148 16.308001 20.655001 26.361 30.320999 34.830002 37.016998 39.320999 43.830002 48.312 51.308998 53.612999 57.959999 60.119999 64.628998 66.932999 71.415001 75.762001 80.271004 84.231003"
             y="9.5039997"
             id="tspan948">is allowed, but old nodes</tspan><tspan
             x="0 4.5089998 8.8559999 13.176 15.363 18.360001 20.664 24.264 28.313999 31.707001 35.667 37.971001 42.021 46.529999 50.876999 55.359001 58.355999 60.66 62.792999 65.790001"
             y="19.007999"
             id="tspan950">dont care about it.</tspan><tspan
             x="70.731003 75.167999 79.514999 81.648003 86.129997 90.639 94.689003 98.190002"
             y="-30.518999"
             id="tspan952">Coinbase</tspan><tspan
             x="70.731003 73.727997 77.121002 81.170998 85.653 89.153999 93.204002 96.804001 99.801003 101.934 106.281"
             y="-21.014999"
             id="tspan954">transaction</tspan><tspan
             x="104.679 108.162 112.509 116.991 120.384 122.688 126.189 130.149 134.25301 139.959 142.092"
             y="-50.625"
             id="tspan956">Your segwit</tspan><tspan
             x="104.679 107.676 111.069 115.119 119.601 123.102 127.152 130.752 133.74899 135.882 140.229"
             y="-41.120998"
             id="tspan958">transaction</tspan><tspan
             x="325.827 329.78699 333.83701 340.578 344.53799 346.84201 350.892"
             y="-9.3780003"
             id="tspan960">Same as</tspan><tspan
             x="325.827 330.336 334.29599 336.60901 340.95599 344.349"
             y="0.126"
             id="tspan962">before</tspan></text><g
           id="g966"
           transform="translate(442,701.8779)"><path
             d="m 0,0 c 2.505,0 4.534,-2.855 4.534,-6.379 v -39.18 c 0,-3.523 2.032,-6.38 4.536,-6.38 -2.504,0 -4.536,-2.855 -4.536,-6.377 v -39.181 c 0,-3.524 -2.029,-6.381 -4.534,-6.381"
             style="fill:none;stroke:#231f20;stroke-width:0.5;stroke-linecap:butt;stroke-linejoin:round;stroke-miterlimit:10;stroke-dasharray:none;stroke-opacity:1"
             id="path968" /></g><g
           id="g970"
           transform="translate(248.25,617)"><path
             d="M 0,0 C -9.417,9 -24.754,13 -29.417,13"
             style="fill:none;stroke:#231f20;stroke-width:0.3;stroke-linecap:butt;stroke-linejoin:miter;stroke-miterlimit:10;stroke-dasharray:none;stroke-opacity:1"
             id="path972" /></g><g
           id="g974"
           transform="translate(249.1392,618.7222)"><path
             d="m 0,0 1.049,-3.589 -3.632,0.886 z"
             style="fill:#231f20;fill-opacity:1;fill-rule:nonzero;stroke:none"
             id="path976" /></g><g
           id="g978"
           transform="translate(297.75,625)"><path
             d="M 0,0 C -19.503,28.049 -43.583,35.75 -43.583,52"
             style="fill:none;stroke:#231f20;stroke-width:0.3;stroke-linecap:butt;stroke-linejoin:miter;stroke-miterlimit:10;stroke-dasharray:none;stroke-opacity:1"
             id="path980" /></g><g
           id="g982"
           transform="translate(298.9644,626.5107)"><path
             d="M 0,0 0.313,-3.726 -3.07,-2.135 Z"
             style="fill:#231f20;fill-opacity:1;fill-rule:nonzero;stroke:none"
             id="path984" /></g><g
           id="g986"
           transform="translate(253,624)"><path
             d="M 0,0 C -13,18 -31.5,21 -31.5,32.75"
             style="fill:none;stroke:#231f20;stroke-width:0.3;stroke-linecap:butt;stroke-linejoin:miter;stroke-miterlimit:10;stroke-dasharray:none;stroke-opacity:1"
             id="path988" /></g><g
           id="g990"
           transform="translate(254.187,625.5322)"><path
             d="m 0,0 0.38,-3.72 -3.412,1.531 z"
             style="fill:#231f20;fill-opacity:1;fill-rule:nonzero;stroke:none"
             id="path992" /></g></g></g></g></svg>
