<svg xmlns="http://www.w3.org/2000/svg" xmlns:xlink="http://www.w3.org/1999/xlink" width="168.11" height="134.66" viewBox="0 0 168.11 134.66">
  <defs>
    <style>
      .cls-1, .cls-14, .cls-2, .cls-28, .cls-29, .cls-41 {
        fill: none;
      }

      .cls-10, .cls-14, .cls-2, .cls-41 {
        stroke: #000;
      }

      .cls-2, .cls-41 {
        stroke-miterlimit: 10;
      }

      .cls-10, .cls-15, .cls-2 {
        stroke-width: 0.3px;
      }

      .cls-3 {
        font-size: 8.5px;
        font-family: Arial-BoldMT, Arial;
        font-weight: 700;
      }

      .cls-4 {
        font-size: 9px;
        font-family: Humanist521BT-BoldCondensed, Humanst521 Cn BT;
      }

      .cls-5 {
        font-size: 7px;
      }

      .cls-19, .cls-5 {
        font-family: ArialMT, Arial;
      }

      .cls-6 {
        clip-path: url(#clip-path);
      }

      .cls-7 {
        fill: #fef0e8;
      }

      .cls-8 {
        font-size: 8.77px;
        font-family: Courier;
      }

      .cls-9 {
        font-size: 5.34px;
        letter-spacing: 0em;
      }

      .cls-10 {
        fill: #fda452;
      }

      .cls-11 {
        fill: #fbafc5;
      }

      .cls-11, .cls-12, .cls-13 {
        fill-rule: evenodd;
      }

      .cls-12 {
        fill: #96c749;
      }

      .cls-13 {
        fill: #28708e;
      }

      .cls-14, .cls-15, .cls-29 {
        stroke-linejoin: round;
      }

      .cls-14, .cls-41 {
        stroke-width: 0.75px;
      }

      .cls-15 {
        fill: #267520;
        stroke: #267520;
      }

      .cls-16 {
        fill: url(#linear-gradient);
      }

      .cls-17 {
        fill: url(#linear-gradient-2);
      }

      .cls-18 {
        fill: #fff;
      }

      .cls-19 {
        font-size: 2.8px;
      }

      .cls-20 {
        fill: url(#linear-gradient-3);
      }

      .cls-21 {
        fill: url(#linear-gradient-4);
      }

      .cls-22 {
        fill: url(#linear-gradient-5);
      }

      .cls-23 {
        fill: url(#linear-gradient-6);
      }

      .cls-24 {
        fill: url(#linear-gradient-7);
      }

      .cls-25 {
        fill: url(#linear-gradient-8);
      }

      .cls-26 {
        fill: url(#linear-gradient-9);
      }

      .cls-27 {
        fill: url(#linear-gradient-10);
      }

      .cls-28 {
        stroke: #4d4d4d;
        stroke-width: 0.5px;
      }

      .cls-29 {
        stroke: #e60001;
      }

      .cls-30 {
        clip-path: url(#clip-path-2);
      }

      .cls-31 {
        fill: url(#linear-gradient-11);
      }

      .cls-32 {
        fill: url(#linear-gradient-12);
      }

      .cls-33 {
        fill: url(#linear-gradient-13);
      }

      .cls-34 {
        fill: url(#linear-gradient-14);
      }

      .cls-35 {
        fill: url(#linear-gradient-15);
      }

      .cls-36 {
        fill: url(#linear-gradient-16);
      }

      .cls-37 {
        fill: url(#linear-gradient-17);
      }

      .cls-38 {
        fill: url(#linear-gradient-18);
      }

      .cls-39 {
        fill: url(#linear-gradient-19);
      }

      .cls-40 {
        fill: url(#linear-gradient-20);
      }
    </style>
    <clipPath id="clip-path" transform="translate(-183.32 -114.04)">
      <path class="cls-1" d="M249.84,124.31v61h1.45c29.43,1.07,62.63-13.14,98.85-4.46l1.53,0v-56.5Z"/>
    </clipPath>
    <linearGradient id="linear-gradient" x1="-39.08" y1="235.78" x2="-24.74" y2="235.78" gradientTransform="translate(499.31 -6.95) rotate(45.85)" gradientUnits="userSpaceOnUse">
      <stop offset="0" stop-color="#5fb749"/>
      <stop offset="1" stop-color="#dbf1c6"/>
    </linearGradient>
    <linearGradient id="linear-gradient-2" x1="-38.83" y1="235.78" x2="-25.14" y2="235.78" gradientTransform="translate(499.31 -6.95) rotate(45.85)" gradientUnits="userSpaceOnUse">
      <stop offset="0" stop-color="#dbf1c6"/>
      <stop offset="1" stop-color="#5fb749"/>
    </linearGradient>
    <linearGradient id="linear-gradient-3" x1="-29.75" y1="244.84" x2="-15.42" y2="244.84" xlink:href="#linear-gradient"/>
    <linearGradient id="linear-gradient-4" x1="-29.5" y1="244.84" x2="-15.81" y2="244.84" xlink:href="#linear-gradient-2"/>
    <linearGradient id="linear-gradient-5" x1="-21.06" y1="253.27" x2="-6.72" y2="253.27" xlink:href="#linear-gradient"/>
    <linearGradient id="linear-gradient-6" x1="-20.81" y1="253.27" x2="-7.12" y2="253.27" xlink:href="#linear-gradient-2"/>
    <linearGradient id="linear-gradient-7" x1="-12.37" y1="261.71" x2="1.97" y2="261.71" xlink:href="#linear-gradient"/>
    <linearGradient id="linear-gradient-8" x1="-12.12" y1="261.71" x2="1.57" y2="261.71" xlink:href="#linear-gradient-2"/>
    <linearGradient id="linear-gradient-9" x1="-3.68" y1="270.15" x2="10.66" y2="270.15" xlink:href="#linear-gradient"/>
    <linearGradient id="linear-gradient-10" x1="-3.42" y1="270.15" x2="10.26" y2="270.15" xlink:href="#linear-gradient-2"/>
    <clipPath id="clip-path-2" transform="translate(-183.32 -114.04)">
      <path class="cls-1" d="M249.84,251V198.89h1.45c29.43,1.07,62.63-13.15,98.85-4.47l1.53,0V251Z"/>
    </clipPath>
    <linearGradient id="linear-gradient-11" x1="2.33" y1="275.99" x2="16.67" y2="275.99" xlink:href="#linear-gradient"/>
    <linearGradient id="linear-gradient-12" x1="2.59" y1="275.99" x2="16.27" y2="275.99" xlink:href="#linear-gradient-2"/>
    <linearGradient id="linear-gradient-13" x1="11.03" y1="284.43" x2="25.36" y2="284.43" xlink:href="#linear-gradient"/>
    <linearGradient id="linear-gradient-14" x1="11.28" y1="284.43" x2="24.96" y2="284.43" xlink:href="#linear-gradient-2"/>
    <linearGradient id="linear-gradient-15" x1="19.72" y1="292.87" x2="34.06" y2="292.87" xlink:href="#linear-gradient"/>
    <linearGradient id="linear-gradient-16" x1="19.97" y1="292.87" x2="33.66" y2="292.87" xlink:href="#linear-gradient-2"/>
    <linearGradient id="linear-gradient-17" x1="28.41" y1="301.31" x2="42.75" y2="301.31" xlink:href="#linear-gradient"/>
    <linearGradient id="linear-gradient-18" x1="28.66" y1="301.31" x2="42.35" y2="301.31" xlink:href="#linear-gradient-2"/>
    <linearGradient id="linear-gradient-19" x1="37.1" y1="309.75" x2="51.44" y2="309.75" xlink:href="#linear-gradient"/>
    <linearGradient id="linear-gradient-20" x1="37.36" y1="309.75" x2="51.04" y2="309.75" xlink:href="#linear-gradient-2"/>
  </defs>
  <g id="Layer_2" data-name="Layer 2">
    <g>
      <path class="cls-2" d="M245.08,223c-5.83,0-10.83-4-15.08-4" transform="translate(-183.32 -114.04)"/>
      <polygon points="61.22 107.1 64.46 108.97 61.22 110.84 61.22 107.1"/>
    </g>
    <text class="cls-3" transform="translate(0 107.41)">1<tspan class="cls-4" x="4.73" y="0">,024 inputs</tspan></text>
    <text class="cls-5" transform="translate(99.31 6.01)">262,144 ms</text>
    <g class="cls-6">
      <rect class="cls-7" x="67.87" y="12.33" width="98.95" height="66.12" rx="1"/>
      <text class="cls-8" transform="translate(92.17 22.33)">1</text>
      <text class="cls-8" transform="translate(92.17 35.3)">0</text>
      <text class="cls-8" transform="translate(136.3 22.33)">1</text>
      <text class="cls-8" transform="translate(143.98 22.33)">PKH<tspan class="cls-9" x="15.79" y="2.29">Z</tspan></text>
      <g>
        <path class="cls-10" d="M255.19,146.87l-1.3-1.46a8.53,8.53,0,0,1,5.59.28,4.93,4.93,0,0,0,2.86.36,3,3,0,0,0,1.85-1.1,4.21,4.21,0,0,1,3.3-1.5l1,1.51a3.31,3.31,0,0,0-2.63,1.21,3.83,3.83,0,0,1-2.35,1.37,7.14,7.14,0,0,1-3.92-.46A6.47,6.47,0,0,0,255.19,146.87Z" transform="translate(-183.32 -114.04)"/>
        <path class="cls-10" d="M257.72,148.26l-1.3-1.46a8.43,8.43,0,0,1,5.6.28,5,5,0,0,0,2.85.36,3,3,0,0,0,1.85-1.1,4.28,4.28,0,0,1,3.3-1.51l1,1.52a3.29,3.29,0,0,0-2.63,1.2,3.82,3.82,0,0,1-2.35,1.38,7.26,7.26,0,0,1-3.93-.46A6.35,6.35,0,0,0,257.72,148.26Z" transform="translate(-183.32 -114.04)"/>
        <path class="cls-10" d="M257.16,149.8l-1.3-1.46a8.49,8.49,0,0,1,5.6.29,5.06,5.06,0,0,0,2.85.36,3,3,0,0,0,1.85-1.11,4.24,4.24,0,0,1,3.3-1.5l1,1.51a3.28,3.28,0,0,0-2.63,1.21,3.9,3.9,0,0,1-2.35,1.37,7.26,7.26,0,0,1-3.93-.45A6.41,6.41,0,0,0,257.16,149.8Z" transform="translate(-183.32 -114.04)"/>
        <path class="cls-10" d="M259.74,151.17l-1.3-1.46a8.48,8.48,0,0,1,5.6.29,5,5,0,0,0,2.85.36,3,3,0,0,0,1.85-1.1,4.24,4.24,0,0,1,3.3-1.51l1,1.51a3.28,3.28,0,0,0-2.63,1.21,3.85,3.85,0,0,1-2.35,1.37,7.26,7.26,0,0,1-3.93-.45A6.41,6.41,0,0,0,259.74,151.17Z" transform="translate(-183.32 -114.04)"/>
        <path class="cls-10" d="M255.58,145.28l-1.3-1.46a8.43,8.43,0,0,1,5.6.28,5,5,0,0,0,2.85.36,2.94,2.94,0,0,0,1.85-1.1,4.21,4.21,0,0,1,3.3-1.5l1,1.51a3.25,3.25,0,0,0-2.63,1.21,3.9,3.9,0,0,1-2.35,1.37,7.26,7.26,0,0,1-3.93-.46A6.41,6.41,0,0,0,255.58,145.28Z" transform="translate(-183.32 -114.04)"/>
        <polygon points="72.34 29.93 74.12 29.77 74.89 30.19 73.73 30.11 72.34 29.93"/>
        <polygon points="76.87 30.83 78.77 31.55 79.99 31.16 78.44 30.96 76.87 30.83"/>
        <polygon points="77.62 33.11 76.29 33.04 75.74 33.41 77.09 33.27 78.82 33.97 79.91 33.95 78.41 33.37 77.62 33.11"/>
        <path d="M268.79,147c-.34,0-1.21.24-1.21.24l-.65,1.08.92-.66,1.45-.2Z" transform="translate(-183.32 -114.04)"/>
        <polygon points="86.15 35.62 85.54 36.39 84.14 36.83 84.92 37.17 86.07 36.7 86.15 35.62"/>
        <polygon points="80.3 36.34 78.95 35.93 77.91 36.18 79.14 36.26 80.3 36.34"/>
        <polygon points="75.8 34.66 75.03 34.8 76.11 34.86 75.8 34.66"/>
        <polygon class="cls-11" points="82.07 30.03 81.12 30.3 79.99 31.16 81.54 30.82 82.07 30.03"/>
        <polygon class="cls-11" points="83.29 34.7 82.03 35.32 81.89 35.69 83.11 35.38 83.29 34.7"/>
        <polygon class="cls-11" points="88.67 34.31 87.27 34.83 87.17 35.52 88.33 34.97 88.67 34.31"/>
        <polygon class="cls-11" points="74.95 34.24 74 35.05 73.66 34.54 74.95 34.24"/>
        <polygon class="cls-12" points="80.7 32.5 78.98 32.35 79.91 32.78 80.7 32.5"/>
        <path class="cls-12" d="M265.72,150.81l-1.61-.37s.83.58,1.06.69a13.1,13.1,0,0,0,1.64.21Z" transform="translate(-183.32 -114.04)"/>
        <polygon class="cls-12" points="75.52 32.68 74.09 32.73 74.64 33.5 75.52 32.68"/>
        <path class="cls-12" d="M267.37,142.54l-1.6.65s-.64.93-.38.88a8.77,8.77,0,0,0,1.36-.75Z" transform="translate(-183.32 -114.04)"/>
      </g>
      <path class="cls-13" d="M292.16,135.22c1.15.52,2.09-.43,3-.6.23.26,0,.8.09,1.11.7.5,2.05.32,2.57,1-.31.24-.72-.15-1.26-.31-.93-.26-1.95-.1-1.6-1.46-.83.39-2.22,1.12-3.19.45a6.27,6.27,0,0,1-1,.51c-.39.81-.7,1.69-1,2.57-.67-.24-.69-1.16-1.49-1.26a2.19,2.19,0,0,0-.24.76c.18.05.39-.56.67-.41,0,.39-.41.72-.77.86-.4-.25-.09-.82,0-1.26a4.89,4.89,0,0,1-3.05,1,2.89,2.89,0,0,1-1.4-.4c-.87-.66-.64-2.38,0-3.18a3.73,3.73,0,0,1,2.22-1.27,12.9,12.9,0,0,0,.63-1.51c.27,0,.34-.07.43-.35a20.2,20.2,0,0,0,4.25-1.72c-1.48.27-3.11.77-4.64,1.21a3.29,3.29,0,0,1-1.45.3c.06-.3.46-.33.68-.4l2.47-.71a9.52,9.52,0,0,1,3.38-.65c0,.52-.53.68-.87.86-1.05.54-2.49.94-3.67,1.41A3.94,3.94,0,0,0,288,133.2a9.67,9.67,0,0,1,1.69.2c.57-.69,1.05-1.63,1.59-2.42.15-.21.35-.57.63-.55-.09.58-.58,1-.91,1.51s-.62,1.05-.93,1.57c.37.25.95.26,1.07.75-.44.1-.73-.37-1.16-.45a13.66,13.66,0,0,0-1.4,2.72,11,11,0,0,0,2.08-.8,5.13,5.13,0,0,0,.72-1.92,4.89,4.89,0,0,1,2-3.33,2.65,2.65,0,0,1,.29-.61c.19,0,.17.12.29.15a7.3,7.3,0,0,1,4.44-1.06c.3,0,1,.11,1,.51,0,.64-1,1.37-1.5,1.76A55.23,55.23,0,0,1,292.16,135.22Zm5.07-5.9a5.73,5.73,0,0,0-3.62,1.36,10.89,10.89,0,0,0-1,1.87c-.37.67-1.25,1.72-.77,2.47a52.29,52.29,0,0,0,5.69-3.89,4.28,4.28,0,0,0,1.5-1.71A3.93,3.93,0,0,0,297.23,129.32Zm-5.45,4.24c.29-.76.86-1.49,1.06-2.17A4,4,0,0,0,291.78,133.56Zm-5.66-.31c.43-.09,1,0,1.41-.15a7.45,7.45,0,0,1-.92-1.16C286.49,132.42,286.27,132.8,286.12,133.25Zm-.09.31a5.67,5.67,0,0,0-.39,1.26c-.11.41-.13,1-.48,1.16a6.73,6.73,0,0,1,.48-2.32,2.72,2.72,0,0,0-2.36,2.72c0,1.09.84,1.48,2,1.47,2.42,0,4.18-2.18,2.56-4.34A7.78,7.78,0,0,0,286,133.56Zm2.75,1.81c.26-.57.54-1.11.82-1.66a8.58,8.58,0,0,0-1.4-.2A4.85,4.85,0,0,1,288.78,135.37Zm2.37,0a1.89,1.89,0,0,0,.43-.2c0-.15,0-.35-.14-.4C291.36,135,291.23,135.21,291.15,135.42ZM288.49,137c.65.12.87.67,1.26,1.06a4.81,4.81,0,0,1,.68-1.77c0-.06,0-.12-.1-.1C289.82,136.56,289,136.64,288.49,137Z" transform="translate(-183.32 -114.04)"/>
      <g>
        <path class="cls-14" d="M312.92,137.92l-4.89-5a3.2,3.2,0,0,0-5.11-3.63l-.08.09-.08.07a3.19,3.19,0,0,0,3.21,5.31l.41.42a.75.75,0,0,1,1,1l.45.46a.7.7,0,0,1,.89.14.69.69,0,0,1,.11.89l.46.47a.74.74,0,0,1,1,1l.32.32,2.51-.13.16-.16Z" transform="translate(-183.32 -114.04)"/>
        <path class="cls-15" d="M313.27,139.19l-5.4-6.16a3.18,3.18,0,1,0-5.15.87,3.21,3.21,0,0,0,3.25.82l.41.42a.75.75,0,0,1,1,1l.45.46a.7.7,0,0,1,.89.14.69.69,0,0,1,.11.89l.46.47a.74.74,0,0,1,1,1l.32.32,2.51-.13Z" transform="translate(-183.32 -114.04)"/>
        <path class="cls-16" d="M312.92,137.92l-4.89-5a3.16,3.16,0,1,0-1.9,1.68l.41.43a.75.75,0,0,1,1,1l.45.46a.75.75,0,0,1,1,1l.45.46a.7.7,0,0,1,.89.14.69.69,0,0,1,.11.89l.31.33,2.52-.14Z" transform="translate(-183.32 -114.04)"/>
        <path class="cls-17" d="M303.06,133.56a2.9,2.9,0,1,1,4.74-.79l-.08.16,5,5.12.24.9-2.08.12-.1-.11a1,1,0,0,0-.25-1,1,1,0,0,0-1-.28l-.19-.19a1,1,0,0,0-.25-1,1,1,0,0,0-1-.27l-.18-.2a1,1,0,0,0-1.27-1.3l-.38-.4-.16,0A2.9,2.9,0,0,1,303.06,133.56Z" transform="translate(-183.32 -114.04)"/>
        <path class="cls-18" d="M306.9,133.35a2.52,2.52,0,1,1,.05-3.56A2.53,2.53,0,0,1,306.9,133.35Z" transform="translate(-183.32 -114.04)"/>
        <text class="cls-19" transform="translate(119.37 16.42) rotate(45.85)">Pub</text>
      </g>
      <g>
        <path class="cls-14" d="M312.92,150.92l-4.89-5a3.2,3.2,0,0,0-5.11-3.63,663442882572.84,663442882572.84,0,0,0-.16.16,3.19,3.19,0,0,0,3.21,5.31l.41.42a.75.75,0,0,1,1,1l.45.46a.75.75,0,0,1,1,1l.46.46a.68.68,0,0,1,.88.15.67.67,0,0,1,.11.88l.32.33,2.51-.14.16-.15Z" transform="translate(-183.32 -114.04)"/>
        <path class="cls-15" d="M313.27,152.19l-5.4-6.16a3.15,3.15,0,1,0-1.9,1.69l.41.42a.75.75,0,0,1,1,1l.45.46a.75.75,0,0,1,1,1l.46.46a.68.68,0,0,1,.88.15.67.67,0,0,1,.11.88l.32.33,2.51-.14Z" transform="translate(-183.32 -114.04)"/>
        <path class="cls-20" d="M312.92,150.92l-4.89-5a3.16,3.16,0,1,0-1.9,1.68l.41.42a.7.7,0,0,1,.89.14.69.69,0,0,1,.11.89l.45.47a.75.75,0,0,1,1,1l.45.46a.7.7,0,0,1,.89.14.69.69,0,0,1,.11.89l.31.32,2.52-.13Z" transform="translate(-183.32 -114.04)"/>
        <path class="cls-21" d="M303.06,146.56a2.9,2.9,0,1,1,4.74-.79l-.08.16,5,5.12.24.9-2.08.11-.1-.1a1,1,0,0,0-.25-1,1,1,0,0,0-1-.27l-.19-.2a1,1,0,0,0-1.27-1.3l-.18-.19a1,1,0,0,0-.25-1,1,1,0,0,0-1-.28l-.38-.4-.16,0A2.9,2.9,0,0,1,303.06,146.56Z" transform="translate(-183.32 -114.04)"/>
        <path class="cls-18" d="M306.9,146.35a2.52,2.52,0,1,1,.05-3.56A2.53,2.53,0,0,1,306.9,146.35Z" transform="translate(-183.32 -114.04)"/>
        <text class="cls-19" transform="translate(119.37 29.41) rotate(45.85)">Pub</text>
      </g>
      <path class="cls-13" d="M292.16,148.22c1.15.52,2.09-.43,3-.61.23.27,0,.81.09,1.12.7.5,2.05.31,2.57,1-.31.25-.72-.15-1.26-.3-.93-.26-1.95-.1-1.6-1.46-.83.39-2.22,1.12-3.19.45a6.27,6.27,0,0,1-1,.51,27,27,0,0,0-1,2.57c-.67-.24-.69-1.16-1.49-1.26a2.19,2.19,0,0,0-.24.76c.18.05.39-.56.67-.41,0,.39-.41.71-.77.86-.4-.25-.09-.83,0-1.26a4.89,4.89,0,0,1-3.05,1,2.79,2.79,0,0,1-1.4-.41c-.87-.65-.64-2.37,0-3.18a3.77,3.77,0,0,1,2.22-1.26,12.9,12.9,0,0,0,.63-1.51c.27,0,.34-.08.43-.36a19.68,19.68,0,0,0,4.25-1.72c-1.48.28-3.11.78-4.64,1.22a3.29,3.29,0,0,1-1.45.3c.06-.3.46-.34.68-.4l2.47-.71a9.76,9.76,0,0,1,3.38-.66c0,.53-.53.68-.87.86-1.05.55-2.49.94-3.67,1.42A4,4,0,0,0,288,146.2a8.8,8.8,0,0,1,1.69.2c.57-.69,1.05-1.63,1.59-2.42.15-.22.35-.58.63-.56a4.19,4.19,0,0,1-.91,1.52c-.34.5-.62,1.05-.93,1.56.37.25.95.27,1.07.76-.44.1-.73-.38-1.16-.45a13.14,13.14,0,0,0-1.4,2.72,11,11,0,0,0,2.08-.8,5.2,5.2,0,0,0,.72-1.92,4.85,4.85,0,0,1,2-3.33,2.65,2.65,0,0,1,.29-.61c.19,0,.17.12.29.15a7.3,7.3,0,0,1,4.44-1.06c.3,0,1,.11,1,.5,0,.64-1,1.38-1.5,1.77A55.23,55.23,0,0,1,292.16,148.22Zm5.07-5.91a5.79,5.79,0,0,0-3.62,1.36,11.68,11.68,0,0,0-1,1.87c-.37.67-1.25,1.73-.77,2.48a52.29,52.29,0,0,0,5.69-3.89,4.31,4.31,0,0,0,1.5-1.72A4.21,4.21,0,0,0,297.23,142.31Zm-5.45,4.24c.29-.75.86-1.48,1.06-2.17A4.08,4.08,0,0,0,291.78,146.55Zm-5.66-.3c.43-.09,1,0,1.41-.15a7.45,7.45,0,0,1-.92-1.16C286.49,145.42,286.27,145.8,286.12,146.25Zm-.09.3a5.84,5.84,0,0,0-.39,1.26c-.11.41-.13,1-.48,1.17a6.83,6.83,0,0,1,.48-2.33,2.73,2.73,0,0,0-2.36,2.73c0,1.09.84,1.47,2,1.47,2.42,0,4.18-2.19,2.56-4.35A9.12,9.12,0,0,0,286,146.55Zm2.75,1.82c.26-.57.54-1.12.82-1.66a9.8,9.8,0,0,0-1.4-.21A4.9,4.9,0,0,1,288.78,148.37Zm2.37,0a1.89,1.89,0,0,0,.43-.2c0-.15,0-.36-.14-.41C291.36,148,291.23,148.21,291.15,148.42ZM288.49,150c.65.11.87.67,1.26,1.06a4.68,4.68,0,0,1,.68-1.77c0-.06,0-.12-.1-.1C289.82,149.56,289,149.64,288.49,150Z" transform="translate(-183.32 -114.04)"/>
      <text class="cls-8" transform="translate(92.17 47.41)">1</text>
      <g>
        <path class="cls-10" d="M255.19,159l-1.3-1.46a8.4,8.4,0,0,1,5.59.28,5,5,0,0,0,2.86.36,3,3,0,0,0,1.85-1.1,4.24,4.24,0,0,1,3.3-1.51l1,1.52a3.31,3.31,0,0,0-2.63,1.2,3.79,3.79,0,0,1-2.35,1.38,7.33,7.33,0,0,1-3.92-.46A6.35,6.35,0,0,0,255.19,159Z" transform="translate(-183.32 -114.04)"/>
        <path class="cls-10" d="M257.72,160.37l-1.3-1.46a8.56,8.56,0,0,1,5.6.28,5,5,0,0,0,2.85.37,3,3,0,0,0,1.85-1.11A4.25,4.25,0,0,1,270,157l1,1.51a3.3,3.3,0,0,0-2.63,1.21,3.86,3.86,0,0,1-2.35,1.37,7.26,7.26,0,0,1-3.93-.45A6.41,6.41,0,0,0,257.72,160.37Z" transform="translate(-183.32 -114.04)"/>
        <path class="cls-10" d="M257.16,161.92l-1.3-1.46a8.43,8.43,0,0,1,5.6.28,5,5,0,0,0,2.85.36,2.92,2.92,0,0,0,1.85-1.1,4.21,4.21,0,0,1,3.3-1.5l1,1.51a3.25,3.25,0,0,0-2.63,1.21,3.9,3.9,0,0,1-2.35,1.37,7.26,7.26,0,0,1-3.93-.46A6.35,6.35,0,0,0,257.16,161.92Z" transform="translate(-183.32 -114.04)"/>
        <path class="cls-10" d="M259.74,163.29l-1.3-1.46a8.43,8.43,0,0,1,5.6.28,5,5,0,0,0,2.85.36,3,3,0,0,0,1.85-1.1,4.21,4.21,0,0,1,3.3-1.5l1,1.51a3.25,3.25,0,0,0-2.63,1.21,3.9,3.9,0,0,1-2.35,1.37,7.16,7.16,0,0,1-3.93-.46A6.41,6.41,0,0,0,259.74,163.29Z" transform="translate(-183.32 -114.04)"/>
        <path class="cls-10" d="M255.58,157.4l-1.3-1.47a8.48,8.48,0,0,1,5.6.29,5.06,5.06,0,0,0,2.85.36,2.94,2.94,0,0,0,1.85-1.1,4.24,4.24,0,0,1,3.3-1.51l1,1.51a3.28,3.28,0,0,0-2.63,1.21,3.8,3.8,0,0,1-2.35,1.37,7.16,7.16,0,0,1-3.93-.46A6.41,6.41,0,0,0,255.58,157.4Z" transform="translate(-183.32 -114.04)"/>
        <polygon points="72.34 42.05 74.12 41.89 74.89 42.3 73.73 42.23 72.34 42.05"/>
        <polygon points="76.87 42.95 78.77 43.66 79.99 43.27 78.44 43.08 76.87 42.95"/>
        <polygon points="77.62 45.23 76.29 45.16 75.74 45.52 77.09 45.39 78.82 46.08 79.91 46.07 78.41 45.48 77.62 45.23"/>
        <path d="M268.79,159.12c-.34,0-1.21.23-1.21.23l-.65,1.08.92-.65,1.45-.2Z" transform="translate(-183.32 -114.04)"/>
        <polygon points="86.15 47.73 85.54 48.51 84.14 48.95 84.92 49.28 86.07 48.81 86.15 47.73"/>
        <polygon points="80.3 48.45 78.95 48.04 77.91 48.3 79.14 48.38 80.3 48.45"/>
        <polygon points="75.8 46.78 75.03 46.91 76.11 46.97 75.8 46.78"/>
        <polygon class="cls-11" points="82.07 42.15 81.12 42.41 79.99 43.27 81.54 42.93 82.07 42.15"/>
        <polygon class="cls-11" points="83.29 46.82 82.03 47.43 81.89 47.8 83.11 47.49 83.29 46.82"/>
        <polygon class="cls-11" points="88.67 46.43 87.27 46.94 87.17 47.63 88.33 47.08 88.67 46.43"/>
        <polygon class="cls-11" points="74.95 46.36 74 47.17 73.66 46.65 74.95 46.36"/>
        <polygon class="cls-12" points="80.7 44.61 78.98 44.47 79.91 44.9 80.7 44.61"/>
        <path class="cls-12" d="M265.72,162.92l-1.61-.36s.83.57,1.06.68a11.45,11.45,0,0,0,1.64.21Z" transform="translate(-183.32 -114.04)"/>
        <polygon class="cls-12" points="75.52 44.8 74.09 44.84 74.64 45.62 75.52 44.8"/>
        <path class="cls-12" d="M267.37,154.66l-1.6.65s-.64.92-.38.88a8.7,8.7,0,0,0,1.36-.76Z" transform="translate(-183.32 -114.04)"/>
      </g>
      <g>
        <path class="cls-14" d="M312.92,163,308,158a3.19,3.19,0,0,0-5.11-3.62l-.08.08-.08.07a3.19,3.19,0,0,0,3.21,5.31l.41.42a.7.7,0,0,1,.89.14.69.69,0,0,1,.11.89l.45.47a.75.75,0,0,1,1,1l.46.46a.74.74,0,0,1,1,1l.32.32,2.51-.13.16-.15Z" transform="translate(-183.32 -114.04)"/>
        <path class="cls-15" d="M313.27,164.31l-5.4-6.16a3.16,3.16,0,1,0-1.9,1.68l.41.42a.7.7,0,0,1,.89.14.69.69,0,0,1,.11.89l.45.47a.75.75,0,0,1,1,1l.46.46a.74.74,0,0,1,1,1l.32.32,2.51-.13Z" transform="translate(-183.32 -114.04)"/>
        <path class="cls-22" d="M312.92,163,308,158a3.16,3.16,0,1,0-1.9,1.69l.41.42a.75.75,0,0,1,1,1l.45.46a.7.7,0,0,1,.89.14.69.69,0,0,1,.11.89l.45.47a.75.75,0,0,1,1,1l.31.32,2.52-.13Z" transform="translate(-183.32 -114.04)"/>
        <path class="cls-23" d="M303.06,158.68a2.9,2.9,0,1,1,4.74-.79l-.08.16,5,5.12.24.9-2.08.11-.1-.11a1,1,0,0,0-1.26-1.3l-.19-.19a1,1,0,0,0-.25-1,1,1,0,0,0-1-.28l-.18-.19a1,1,0,0,0-.25-1,1,1,0,0,0-1-.27l-.38-.4-.16.05A2.94,2.94,0,0,1,303.06,158.68Z" transform="translate(-183.32 -114.04)"/>
        <path class="cls-18" d="M306.9,158.47a2.52,2.52,0,1,1,.05-3.57A2.53,2.53,0,0,1,306.9,158.47Z" transform="translate(-183.32 -114.04)"/>
        <text class="cls-19" transform="translate(119.37 41.53) rotate(45.85)">Pub</text>
      </g>
      <path class="cls-13" d="M292.16,160.34c1.15.52,2.09-.44,3-.61.23.26,0,.8.09,1.11.7.5,2.05.32,2.57,1-.31.24-.72-.15-1.26-.3-.93-.26-1.95-.1-1.6-1.47-.83.39-2.22,1.12-3.19.46a7.25,7.25,0,0,1-1,.5,27.16,27.16,0,0,0-1,2.58c-.67-.24-.69-1.16-1.49-1.26a2.07,2.07,0,0,0-.24.75c.18,0,.39-.55.67-.4,0,.39-.41.71-.77.86-.4-.26-.09-.83,0-1.27a4.89,4.89,0,0,1-3.05,1,2.78,2.78,0,0,1-1.4-.4c-.87-.66-.64-2.38,0-3.18a3.72,3.72,0,0,1,2.22-1.26,13.06,13.06,0,0,0,.63-1.52c.27,0,.34-.07.43-.35a20.2,20.2,0,0,0,4.25-1.72c-1.48.28-3.11.77-4.64,1.21a3.3,3.3,0,0,1-1.45.31c.06-.3.46-.34.68-.41.77-.23,1.62-.46,2.47-.7a9.32,9.32,0,0,1,3.38-.66c0,.53-.53.68-.87.86-1.05.55-2.49.94-3.67,1.41a4,4,0,0,0,1.06,1.47,8.07,8.07,0,0,1,1.69.2c.57-.7,1.05-1.63,1.59-2.42.15-.22.35-.58.63-.56-.09.59-.58,1-.91,1.51s-.62,1.06-.93,1.57c.37.25.95.26,1.07.76-.44.09-.73-.38-1.16-.46a13.48,13.48,0,0,0-1.4,2.73,11,11,0,0,0,2.08-.81,5.13,5.13,0,0,0,.72-1.92,4.89,4.89,0,0,1,2-3.33,2.86,2.86,0,0,1,.29-.61c.19,0,.17.13.29.16a7.24,7.24,0,0,1,4.44-1.07c.3,0,1,.11,1,.51,0,.64-1,1.38-1.5,1.77A58.48,58.48,0,0,1,292.16,160.34Zm5.07-5.91a5.73,5.73,0,0,0-3.62,1.36,11.27,11.27,0,0,0-1,1.87c-.37.67-1.25,1.72-.77,2.47a52.22,52.22,0,0,0,5.69-3.88,4.38,4.38,0,0,0,1.5-1.72A4.21,4.21,0,0,0,297.23,154.43Zm-5.45,4.24c.29-.75.86-1.49,1.06-2.17A4,4,0,0,0,291.78,158.67Zm-5.66-.3c.43-.1,1,0,1.41-.16a7,7,0,0,1-.92-1.16C286.49,157.53,286.27,157.91,286.12,158.37Zm-.09.3a5.84,5.84,0,0,0-.39,1.26c-.11.41-.13,1-.48,1.16a6.73,6.73,0,0,1,.48-2.32,2.73,2.73,0,0,0-2.36,2.73c0,1.08.84,1.47,2,1.46,2.42,0,4.18-2.18,2.56-4.34A8.39,8.39,0,0,0,286,158.67Zm2.75,1.82c.26-.58.54-1.12.82-1.67a9.83,9.83,0,0,0-1.4-.2A4.9,4.9,0,0,1,288.78,160.49Zm2.37,0a1.89,1.89,0,0,0,.43-.2c0-.15,0-.36-.14-.41C291.36,160.15,291.23,160.32,291.15,160.54Zm-2.66,1.56c.65.12.87.67,1.26,1.06a4.69,4.69,0,0,1,.68-1.76c0-.07,0-.12-.1-.11C289.82,161.68,289,161.76,288.49,162.1Z" transform="translate(-183.32 -114.04)"/>
      <text class="cls-8" transform="translate(92.17 59.53)">0</text>
      <g>
        <path class="cls-10" d="M255.19,171.1l-1.3-1.46a8.53,8.53,0,0,1,5.59.28,5,5,0,0,0,2.86.37,3,3,0,0,0,1.85-1.11,4.24,4.24,0,0,1,3.3-1.5l1,1.51a3.31,3.31,0,0,0-2.63,1.21,3.83,3.83,0,0,1-2.35,1.37,7.14,7.14,0,0,1-3.92-.46A6.47,6.47,0,0,0,255.19,171.1Z" transform="translate(-183.32 -114.04)"/>
        <path class="cls-10" d="M257.72,172.49l-1.3-1.46a8.43,8.43,0,0,1,5.6.28,5,5,0,0,0,2.85.36,2.92,2.92,0,0,0,1.85-1.1,4.25,4.25,0,0,1,3.3-1.5l1,1.51a3.27,3.27,0,0,0-2.63,1.21,3.86,3.86,0,0,1-2.35,1.37,7.26,7.26,0,0,1-3.93-.46A6.41,6.41,0,0,0,257.72,172.49Z" transform="translate(-183.32 -114.04)"/>
        <path class="cls-10" d="M257.16,174l-1.3-1.45a8.43,8.43,0,0,1,5.6.28,5.06,5.06,0,0,0,2.85.36,2.93,2.93,0,0,0,1.85-1.11,4.24,4.24,0,0,1,3.3-1.5l1,1.51a3.28,3.28,0,0,0-2.63,1.21,3.8,3.8,0,0,1-2.35,1.37,7.26,7.26,0,0,1-3.93-.45A6.41,6.41,0,0,0,257.16,174Z" transform="translate(-183.32 -114.04)"/>
        <path class="cls-10" d="M259.74,175.4l-1.3-1.45a8.43,8.43,0,0,1,5.6.28,5,5,0,0,0,2.85.36,3,3,0,0,0,1.85-1.1A4.24,4.24,0,0,1,272,172l1,1.51a3.28,3.28,0,0,0-2.63,1.21,3.8,3.8,0,0,1-2.35,1.37,7.26,7.26,0,0,1-3.93-.45A6.41,6.41,0,0,0,259.74,175.4Z" transform="translate(-183.32 -114.04)"/>
        <path class="cls-10" d="M255.58,169.51l-1.3-1.46a8.49,8.49,0,0,1,5.6.28,5,5,0,0,0,2.85.36,2.89,2.89,0,0,0,1.85-1.1,4.21,4.21,0,0,1,3.3-1.5l1,1.51a3.28,3.28,0,0,0-2.63,1.21,3.9,3.9,0,0,1-2.35,1.37,7.16,7.16,0,0,1-3.93-.46A6.41,6.41,0,0,0,255.58,169.51Z" transform="translate(-183.32 -114.04)"/>
        <polygon points="72.34 54.17 74.12 54.01 74.89 54.42 73.73 54.34 72.34 54.17"/>
        <polygon points="76.87 55.06 78.77 55.78 79.99 55.39 78.44 55.19 76.87 55.06"/>
        <polygon points="77.62 57.34 76.29 57.27 75.74 57.64 77.09 57.51 78.82 58.2 79.91 58.18 78.41 57.6 77.62 57.34"/>
        <path d="M268.79,171.24c-.34,0-1.21.23-1.21.23l-.65,1.08.92-.66,1.45-.2Z" transform="translate(-183.32 -114.04)"/>
        <polygon points="86.15 59.85 85.54 60.63 84.14 61.07 84.92 61.4 86.07 60.93 86.15 59.85"/>
        <polygon points="80.3 60.57 78.95 60.16 77.91 60.41 79.14 60.49 80.3 60.57"/>
        <polygon points="75.8 58.89 75.03 59.03 76.11 59.09 75.8 58.89"/>
        <polygon class="cls-11" points="82.07 54.26 81.12 54.53 79.99 55.39 81.54 55.05 82.07 54.26"/>
        <polygon class="cls-11" points="83.29 58.93 82.03 59.55 81.89 59.92 83.11 59.61 83.29 58.93"/>
        <polygon class="cls-11" points="88.67 58.54 87.27 59.06 87.17 59.75 88.33 59.2 88.67 58.54"/>
        <polygon class="cls-11" points="74.95 58.47 74 59.28 73.66 58.77 74.95 58.47"/>
        <polygon class="cls-12" points="80.7 56.73 78.98 56.58 79.91 57.01 80.7 56.73"/>
        <path class="cls-12" d="M265.72,175l-1.61-.37s.83.58,1.06.69a11.45,11.45,0,0,0,1.64.21Z" transform="translate(-183.32 -114.04)"/>
        <polygon class="cls-12" points="75.52 56.91 74.09 56.96 74.64 57.73 75.52 56.91"/>
        <path class="cls-12" d="M267.37,166.77l-1.6.65s-.64.93-.38.89a9.6,9.6,0,0,0,1.36-.76Z" transform="translate(-183.32 -114.04)"/>
      </g>
      <g>
        <path class="cls-14" d="M312.92,175.15l-4.89-5a3.2,3.2,0,0,0-5.11-3.63,663442882573,663442882573,0,0,0-.16.16A3.19,3.19,0,0,0,306,172l.41.42a.75.75,0,0,1,1,1l.45.46a.75.75,0,0,1,1,1l.46.46a.75.75,0,0,1,1,1l.32.32,2.51-.13.16-.16Z" transform="translate(-183.32 -114.04)"/>
        <path class="cls-15" d="M313.27,176.42l-5.4-6.16A3.15,3.15,0,1,0,306,172l.41.42a.75.75,0,0,1,1,1l.45.46a.75.75,0,0,1,1,1l.46.46a.75.75,0,0,1,1,1l.32.32,2.51-.13Z" transform="translate(-183.32 -114.04)"/>
        <path class="cls-24" d="M312.92,175.15l-4.89-5a3.16,3.16,0,1,0-1.9,1.68l.41.43a.75.75,0,0,1,1,1l.45.46a.75.75,0,0,1,1,1l.45.46a.7.7,0,0,1,.89.14.69.69,0,0,1,.11.89l.31.33,2.52-.14Z" transform="translate(-183.32 -114.04)"/>
        <path class="cls-25" d="M303.06,170.79a2.9,2.9,0,1,1,4.74-.79l-.08.16,5,5.12.24.9-2.08.11-.1-.1a1,1,0,0,0-.25-1,1,1,0,0,0-1-.28l-.19-.19a1,1,0,0,0-.25-1,1,1,0,0,0-1-.27l-.18-.2a1,1,0,0,0-1.27-1.3l-.38-.4-.16.05A2.9,2.9,0,0,1,303.06,170.79Z" transform="translate(-183.32 -114.04)"/>
        <path class="cls-18" d="M306.9,170.58A2.52,2.52,0,1,1,307,167,2.53,2.53,0,0,1,306.9,170.58Z" transform="translate(-183.32 -114.04)"/>
        <text class="cls-19" transform="translate(119.37 53.65) rotate(45.85)">Pub</text>
      </g>
      <path class="cls-13" d="M292.16,172.45c1.15.52,2.09-.43,3-.6.23.26,0,.8.09,1.11.7.5,2.05.32,2.57,1-.31.24-.72-.16-1.26-.31-.93-.26-1.95-.1-1.6-1.46-.83.39-2.22,1.12-3.19.45a6.27,6.27,0,0,1-1,.51c-.39.81-.7,1.69-1,2.57-.67-.24-.69-1.16-1.49-1.26a2.19,2.19,0,0,0-.24.76c.18.05.39-.56.67-.41,0,.39-.41.71-.77.86-.4-.25-.09-.82,0-1.26a4.89,4.89,0,0,1-3.05,1,2.79,2.79,0,0,1-1.4-.41c-.87-.65-.64-2.37,0-3.17a3.73,3.73,0,0,1,2.22-1.27,12.9,12.9,0,0,0,.63-1.51c.27,0,.34-.07.43-.36a19.66,19.66,0,0,0,4.25-1.71c-1.48.27-3.11.77-4.64,1.21a3.29,3.29,0,0,1-1.45.3c.06-.3.46-.34.68-.4l2.47-.71a9.52,9.52,0,0,1,3.38-.65c0,.52-.53.67-.87.85-1.05.55-2.49.94-3.67,1.42a4,4,0,0,0,1.06,1.46,9.67,9.67,0,0,1,1.69.2c.57-.69,1.05-1.63,1.59-2.42.15-.21.35-.58.63-.55-.09.58-.58,1-.91,1.51s-.62,1.05-.93,1.57c.37.24.95.26,1.07.75-.44.1-.73-.37-1.16-.45a13.4,13.4,0,0,0-1.4,2.72,11,11,0,0,0,2.08-.8,5.13,5.13,0,0,0,.72-1.92,4.85,4.85,0,0,1,2-3.33,2.65,2.65,0,0,1,.29-.61c.19,0,.17.12.29.15a7.3,7.3,0,0,1,4.44-1.06c.3,0,1,.11,1,.51,0,.63-1,1.37-1.5,1.76A55.23,55.23,0,0,1,292.16,172.45Zm5.07-5.91a5.8,5.8,0,0,0-3.62,1.37,11.16,11.16,0,0,0-1,1.86c-.37.67-1.25,1.73-.77,2.48a52.29,52.29,0,0,0,5.69-3.89,4.28,4.28,0,0,0,1.5-1.71A4.06,4.06,0,0,0,297.23,166.54Zm-5.45,4.24c.29-.75.86-1.48,1.06-2.17A4.08,4.08,0,0,0,291.78,170.78Zm-5.66-.3c.43-.09,1,0,1.41-.15a7.45,7.45,0,0,1-.92-1.16C286.49,169.65,286.27,170,286.12,170.48Zm-.09.3a6,6,0,0,0-.39,1.26c-.11.42-.13,1-.48,1.17a6.73,6.73,0,0,1,.48-2.32,2.72,2.72,0,0,0-2.36,2.72c0,1.09.84,1.48,2,1.47,2.42,0,4.18-2.18,2.56-4.34A8.34,8.34,0,0,0,286,170.78Zm2.75,1.82c.26-.57.54-1.11.82-1.66a8.58,8.58,0,0,0-1.4-.2A4.85,4.85,0,0,1,288.78,172.6Zm2.37.05a1.89,1.89,0,0,0,.43-.2c0-.15,0-.35-.14-.41C291.36,172.27,291.23,172.44,291.15,172.65Zm-2.66,1.57c.65.12.87.67,1.26,1.06a4.68,4.68,0,0,1,.68-1.77c0-.06,0-.12-.1-.1C289.82,173.79,289,173.87,288.49,174.22Z" transform="translate(-183.32 -114.04)"/>
      <text class="cls-8" transform="translate(92.17 71.64)">0</text>
      <g>
        <path class="cls-10" d="M255.19,183.22l-1.3-1.46a8.4,8.4,0,0,1,5.59.28,5,5,0,0,0,2.86.36,3,3,0,0,0,1.85-1.1,4.21,4.21,0,0,1,3.3-1.5l1,1.51a3.28,3.28,0,0,0-2.63,1.21,3.83,3.83,0,0,1-2.35,1.37,7.23,7.23,0,0,1-3.92-.46A6.41,6.41,0,0,0,255.19,183.22Z" transform="translate(-183.32 -114.04)"/>
        <path class="cls-10" d="M257.72,184.6l-1.3-1.45a8.43,8.43,0,0,1,5.6.28,5.06,5.06,0,0,0,2.85.36,3,3,0,0,0,1.85-1.1,4.28,4.28,0,0,1,3.3-1.51l1,1.51a3.3,3.3,0,0,0-2.63,1.21,3.77,3.77,0,0,1-2.35,1.37,7.26,7.26,0,0,1-3.93-.45A6.41,6.41,0,0,0,257.72,184.6Z" transform="translate(-183.32 -114.04)"/>
        <path class="cls-10" d="M257.16,186.15l-1.3-1.46a8.43,8.43,0,0,1,5.6.28,5.07,5.07,0,0,0,2.85.37,3,3,0,0,0,1.85-1.11,4.21,4.21,0,0,1,3.3-1.5l1,1.51a3.25,3.25,0,0,0-2.63,1.21,3.9,3.9,0,0,1-2.35,1.37,7.16,7.16,0,0,1-3.93-.46A6.41,6.41,0,0,0,257.16,186.15Z" transform="translate(-183.32 -114.04)"/>
        <path class="cls-10" d="M259.74,187.52l-1.3-1.46a8.49,8.49,0,0,1,5.6.28,5,5,0,0,0,2.85.37,3,3,0,0,0,1.85-1.11,4.21,4.21,0,0,1,3.3-1.5l1,1.51a3.28,3.28,0,0,0-2.63,1.21,3.9,3.9,0,0,1-2.35,1.37,7.16,7.16,0,0,1-3.93-.46A6.47,6.47,0,0,0,259.74,187.52Z" transform="translate(-183.32 -114.04)"/>
        <path class="cls-10" d="M255.58,181.63l-1.3-1.46a8.43,8.43,0,0,1,5.6.28,5.06,5.06,0,0,0,2.85.36,2.94,2.94,0,0,0,1.85-1.1,4.24,4.24,0,0,1,3.3-1.51l1,1.51a3.28,3.28,0,0,0-2.63,1.21,3.85,3.85,0,0,1-2.35,1.38,7.35,7.35,0,0,1-3.93-.46A6.35,6.35,0,0,0,255.58,181.63Z" transform="translate(-183.32 -114.04)"/>
        <polygon points="72.34 66.28 74.12 66.12 74.89 66.53 73.73 66.46 72.34 66.28"/>
        <polygon points="76.87 67.18 78.77 67.89 79.99 67.51 78.44 67.31 76.87 67.18"/>
        <polygon points="77.62 69.46 76.29 69.39 75.74 69.76 77.09 69.62 78.82 70.31 79.91 70.3 78.41 69.71 77.62 69.46"/>
        <path d="M268.79,183.35c-.34,0-1.21.24-1.21.24l-.65,1.08.92-.66,1.45-.2Z" transform="translate(-183.32 -114.04)"/>
        <polygon points="86.15 71.96 85.54 72.74 84.14 73.18 84.92 73.52 86.07 73.04 86.15 71.96"/>
        <polygon points="80.3 72.68 78.95 72.27 77.91 72.53 79.14 72.61 80.3 72.68"/>
        <polygon points="75.8 71.01 75.03 71.14 76.11 71.2 75.8 71.01"/>
        <polygon class="cls-11" points="82.07 66.38 81.12 66.64 79.99 67.51 81.54 67.17 82.07 66.38"/>
        <polygon class="cls-11" points="83.29 71.05 82.03 71.66 81.89 72.03 83.11 71.72 83.29 71.05"/>
        <polygon class="cls-11" points="88.67 70.66 87.27 71.18 87.17 71.86 88.33 71.31 88.67 70.66"/>
        <polygon class="cls-11" points="74.95 70.59 74 71.4 73.66 70.89 74.95 70.59"/>
        <polygon class="cls-12" points="80.7 68.84 78.98 68.7 79.91 69.13 80.7 68.84"/>
        <path class="cls-12" d="M265.72,187.15l-1.61-.36s.83.57,1.06.68a11.7,11.7,0,0,0,1.64.22Z" transform="translate(-183.32 -114.04)"/>
        <polygon class="cls-12" points="75.52 69.03 74.09 69.08 74.64 69.85 75.52 69.03"/>
        <path class="cls-12" d="M267.37,178.89l-1.6.65s-.64.93-.38.88a8.7,8.7,0,0,0,1.36-.76Z" transform="translate(-183.32 -114.04)"/>
      </g>
      <g>
        <path class="cls-14" d="M312.92,187.27,308,182.22a3.19,3.19,0,0,0-5.11-3.62l-.08.08a.27.27,0,0,1-.08.07,3.19,3.19,0,0,0,3.21,5.31l.41.42a.7.7,0,0,1,.89.14.69.69,0,0,1,.11.89l.45.47a.75.75,0,0,1,1,1l.46.46a.74.74,0,0,1,1,1l.32.32,2.51-.13.16-.15Z" transform="translate(-183.32 -114.04)"/>
        <path class="cls-15" d="M313.27,188.54l-5.4-6.16a3.16,3.16,0,1,0-1.9,1.68l.41.42a.7.7,0,0,1,.89.14.69.69,0,0,1,.11.89l.45.47a.75.75,0,0,1,1,1l.46.46a.74.74,0,0,1,1,1l.32.32,2.51-.13Z" transform="translate(-183.32 -114.04)"/>
        <path class="cls-26" d="M312.92,187.27,308,182.22a3.16,3.16,0,1,0-1.9,1.69l.41.42a.75.75,0,0,1,1,1l.45.46a.69.69,0,0,1,.89.15.69.69,0,0,1,.11.89l.45.46a.75.75,0,0,1,1,1l.31.32,2.52-.13Z" transform="translate(-183.32 -114.04)"/>
        <path class="cls-27" d="M303.06,182.91a2.9,2.9,0,1,1,4.74-.79l-.08.16,5,5.12.24.9-2.08.11-.1-.1a1,1,0,0,0-.25-1,1,1,0,0,0-1-.28l-.19-.19a1,1,0,0,0-1.27-1.3l-.18-.19a1,1,0,0,0-.25-1,1,1,0,0,0-1-.28l-.38-.4-.16,0A2.9,2.9,0,0,1,303.06,182.91Z" transform="translate(-183.32 -114.04)"/>
        <path class="cls-18" d="M306.9,182.7a2.52,2.52,0,1,1,.05-3.57A2.53,2.53,0,0,1,306.9,182.7Z" transform="translate(-183.32 -114.04)"/>
        <text class="cls-19" transform="translate(119.37 65.76) rotate(45.85)">Pub</text>
      </g>
      <path class="cls-13" d="M292.16,184.57c1.15.52,2.09-.44,3-.61.23.27,0,.81.09,1.11.7.5,2.05.32,2.57,1-.31.24-.72-.15-1.26-.3-.93-.26-1.95-.1-1.6-1.47-.83.39-2.22,1.12-3.19.46a7.25,7.25,0,0,1-1,.5c-.39.82-.7,1.69-1,2.58-.67-.24-.69-1.16-1.49-1.26a2.13,2.13,0,0,0-.24.75c.18,0,.39-.55.67-.4,0,.39-.41.71-.77.86-.4-.26-.09-.83,0-1.27a4.89,4.89,0,0,1-3.05,1,2.78,2.78,0,0,1-1.4-.4c-.87-.66-.64-2.38,0-3.18a3.72,3.72,0,0,1,2.22-1.26,13.06,13.06,0,0,0,.63-1.52c.27,0,.34-.07.43-.35a19.68,19.68,0,0,0,4.25-1.72c-1.48.28-3.11.77-4.64,1.22a3.43,3.43,0,0,1-1.45.3c.06-.3.46-.34.68-.41l2.47-.7a9.54,9.54,0,0,1,3.38-.66c0,.53-.53.68-.87.86-1.05.55-2.49.94-3.67,1.41a4,4,0,0,0,1.06,1.47,8.07,8.07,0,0,1,1.69.2c.57-.7,1.05-1.63,1.59-2.42.15-.22.35-.58.63-.56-.09.59-.58,1-.91,1.51s-.62,1.06-.93,1.57c.37.25.95.27,1.07.76-.44.1-.73-.38-1.16-.46a13.48,13.48,0,0,0-1.4,2.73,10.34,10.34,0,0,0,2.08-.81,5.06,5.06,0,0,0,.72-1.92,4.89,4.89,0,0,1,2-3.33,2.57,2.57,0,0,1,.29-.6c.19-.05.17.12.29.15a7.24,7.24,0,0,1,4.44-1.06c.3,0,1,.1,1,.5,0,.64-1,1.38-1.5,1.77A55.23,55.23,0,0,1,292.16,184.57Zm5.07-5.91a5.79,5.79,0,0,0-3.62,1.36,11.68,11.68,0,0,0-1,1.87c-.37.67-1.25,1.72-.77,2.48a52.29,52.29,0,0,0,5.69-3.89,4.38,4.38,0,0,0,1.5-1.72A4.21,4.21,0,0,0,297.23,178.66Zm-5.45,4.24c.29-.75.86-1.49,1.06-2.17A4,4,0,0,0,291.78,182.9Zm-5.66-.3c.43-.09,1,0,1.41-.15a7.53,7.53,0,0,1-.92-1.17C286.49,181.76,286.27,182.15,286.12,182.6Zm-.09.3a5.84,5.84,0,0,0-.39,1.26c-.11.41-.13,1-.48,1.16a6.73,6.73,0,0,1,.48-2.32,2.73,2.73,0,0,0-2.36,2.73c0,1.08.84,1.47,2,1.46,2.42,0,4.18-2.18,2.56-4.34A8.39,8.39,0,0,0,286,182.9Zm2.75,1.82c.26-.57.54-1.12.82-1.67a11.5,11.5,0,0,0-1.4-.2A4.9,4.9,0,0,1,288.78,184.72Zm2.37.05a1.89,1.89,0,0,0,.43-.2c0-.15,0-.36-.14-.41C291.36,184.38,291.23,184.56,291.15,184.77Zm-2.66,1.56c.65.12.87.68,1.26,1.06a4.69,4.69,0,0,1,.68-1.76c0-.06,0-.12-.1-.11C289.82,185.91,289,186,288.49,186.33Z" transform="translate(-183.32 -114.04)"/>
      <line class="cls-28" x1="133.58" y1="12.44" x2="133.58" y2="78.27"/>
      <rect class="cls-29" x="67.87" y="12.33" width="98.95" height="66.12" rx="1"/>
      <g>
        <path class="cls-10" d="M255.19,134.75l-1.3-1.45a8.4,8.4,0,0,1,5.59.28,5.1,5.1,0,0,0,2.86.36,3,3,0,0,0,1.85-1.1,4.24,4.24,0,0,1,3.3-1.51l1,1.51a3.31,3.31,0,0,0-2.63,1.21,3.74,3.74,0,0,1-2.35,1.37,7.23,7.23,0,0,1-3.92-.45A6.41,6.41,0,0,0,255.19,134.75Z" transform="translate(-183.32 -114.04)"/>
        <path class="cls-10" d="M257.72,136.14l-1.3-1.46a8.49,8.49,0,0,1,5.6.28,5.07,5.07,0,0,0,2.85.37,3,3,0,0,0,1.85-1.11,4.25,4.25,0,0,1,3.3-1.5l1,1.51a3.3,3.3,0,0,0-2.63,1.21,3.86,3.86,0,0,1-2.35,1.37,7.16,7.16,0,0,1-3.93-.46A6.47,6.47,0,0,0,257.72,136.14Z" transform="translate(-183.32 -114.04)"/>
        <path class="cls-10" d="M257.16,137.69l-1.3-1.46a8.43,8.43,0,0,1,5.6.28,5,5,0,0,0,2.85.36,3,3,0,0,0,1.85-1.1,4.24,4.24,0,0,1,3.3-1.51l1,1.51a3.31,3.31,0,0,0-2.63,1.21,3.8,3.8,0,0,1-2.35,1.37,7.17,7.17,0,0,1-3.93-.45A6.35,6.35,0,0,0,257.16,137.69Z" transform="translate(-183.32 -114.04)"/>
        <path class="cls-10" d="M259.74,139.06l-1.3-1.46a8.43,8.43,0,0,1,5.6.28,5,5,0,0,0,2.85.36,3,3,0,0,0,1.85-1.1,4.24,4.24,0,0,1,3.3-1.51l1,1.52a3.28,3.28,0,0,0-2.63,1.2,3.85,3.85,0,0,1-2.35,1.38,7.26,7.26,0,0,1-3.93-.46A6.35,6.35,0,0,0,259.74,139.06Z" transform="translate(-183.32 -114.04)"/>
        <path class="cls-10" d="M255.58,133.16l-1.3-1.46a8.56,8.56,0,0,1,5.6.28,5,5,0,0,0,2.85.37,2.94,2.94,0,0,0,1.85-1.11,4.21,4.21,0,0,1,3.3-1.5l1,1.51a3.28,3.28,0,0,0-2.63,1.21,3.9,3.9,0,0,1-2.35,1.37,7.26,7.26,0,0,1-3.93-.45A6.4,6.4,0,0,0,255.58,133.16Z" transform="translate(-183.32 -114.04)"/>
        <polygon points="72.34 17.82 74.12 17.66 74.89 18.07 73.73 18 72.34 17.82"/>
        <polygon points="76.87 18.72 78.77 19.43 79.99 19.04 78.44 18.84 76.87 18.72"/>
        <polygon points="77.62 20.99 76.29 20.92 75.74 21.29 77.09 21.16 78.82 21.85 79.91 21.83 78.41 21.25 77.62 20.99"/>
        <path d="M268.79,134.89c-.34,0-1.21.23-1.21.23l-.65,1.08.92-.65,1.45-.21Z" transform="translate(-183.32 -114.04)"/>
        <polygon points="86.15 23.5 85.54 24.28 84.14 24.72 84.92 25.05 86.07 24.58 86.15 23.5"/>
        <polygon points="80.3 24.22 78.95 23.81 77.91 24.06 79.14 24.15 80.3 24.22"/>
        <polygon points="75.8 22.55 75.03 22.68 76.11 22.74 75.8 22.55"/>
        <polygon class="cls-11" points="82.07 17.91 81.12 18.18 79.99 19.04 81.54 18.7 82.07 17.91"/>
        <polygon class="cls-11" points="83.29 22.59 82.03 23.2 81.89 23.57 83.11 23.26 83.29 22.59"/>
        <polygon class="cls-11" points="88.67 22.2 87.27 22.71 87.17 23.4 88.33 22.85 88.67 22.2"/>
        <polygon class="cls-11" points="74.95 22.12 74 22.93 73.66 22.42 74.95 22.12"/>
        <polygon class="cls-12" points="80.7 20.38 78.98 20.24 79.91 20.67 80.7 20.38"/>
        <path class="cls-12" d="M265.72,138.69l-1.61-.36s.83.57,1.06.68a11.45,11.45,0,0,0,1.64.21Z" transform="translate(-183.32 -114.04)"/>
        <polygon class="cls-12" points="75.52 20.56 74.09 20.61 74.64 21.38 75.52 20.56"/>
        <path class="cls-12" d="M267.37,130.43l-1.6.65s-.64.92-.38.88a9.6,9.6,0,0,0,1.36-.76Z" transform="translate(-183.32 -114.04)"/>
      </g>
    </g>
    <g class="cls-30">
      <rect class="cls-7" x="67.87" y="69.48" width="98.95" height="64.69" rx="1"/>
      <g>
        <path class="cls-14" d="M312.92,195.64l-4.89-5a3.19,3.19,0,0,0-5.11-3.62.6.6,0,0,0-.08.08l-.08.07a3.19,3.19,0,0,0,3.21,5.31l.41.42a.75.75,0,0,1,1,1l.45.46a.7.7,0,0,1,.89.14.69.69,0,0,1,.11.89l.46.47a.74.74,0,0,1,1,1l.32.32,2.51-.13.16-.16Z" transform="translate(-183.32 -114.04)"/>
        <path class="cls-15" d="M313.27,196.91l-5.4-6.16a3.16,3.16,0,1,0-1.9,1.69l.41.42a.75.75,0,0,1,1,1l.45.46a.7.7,0,0,1,.89.14.69.69,0,0,1,.11.89l.46.47a.74.74,0,0,1,1,1l.32.32,2.51-.13Z" transform="translate(-183.32 -114.04)"/>
        <path class="cls-31" d="M312.92,195.64l-4.89-5a3.15,3.15,0,1,0-1.9,1.69l.41.42a.75.75,0,0,1,1,1l.45.46a.75.75,0,0,1,1,1l.45.47a.69.69,0,0,1,.89.14.67.67,0,0,1,.11.88l.31.33,2.52-.14Z" transform="translate(-183.32 -114.04)"/>
        <path class="cls-32" d="M303.06,191.28a2.9,2.9,0,1,1,4.74-.78l-.08.15,5,5.12.24.91-2.08.11-.1-.11a1,1,0,0,0-1.26-1.3l-.19-.19a1,1,0,0,0-.25-1,1,1,0,0,0-1-.27l-.18-.19a1,1,0,0,0-1.27-1.31l-.38-.4-.16,0A2.9,2.9,0,0,1,303.06,191.28Z" transform="translate(-183.32 -114.04)"/>
        <path class="cls-18" d="M306.9,191.07a2.52,2.52,0,1,1,.05-3.56A2.53,2.53,0,0,1,306.9,191.07Z" transform="translate(-183.32 -114.04)"/>
        <text class="cls-19" transform="translate(119.37 74.14) rotate(45.85)">Pub</text>
      </g>
      <path class="cls-13" d="M292.16,192.94c1.15.52,2.09-.43,3-.6.23.26,0,.8.09,1.11.7.5,2.05.32,2.57,1-.31.24-.72-.15-1.26-.31-.93-.25-1.95-.1-1.6-1.46-.83.39-2.22,1.12-3.19.45a6.27,6.27,0,0,1-1,.51,27.16,27.16,0,0,0-1,2.58c-.67-.25-.69-1.17-1.49-1.27a2.19,2.19,0,0,0-.24.76c.18.05.39-.56.67-.4,0,.38-.41.71-.77.85-.4-.25-.09-.82,0-1.26a4.89,4.89,0,0,1-3.05,1,2.78,2.78,0,0,1-1.4-.4c-.87-.66-.64-2.38,0-3.18a3.73,3.73,0,0,1,2.22-1.27,12.9,12.9,0,0,0,.63-1.51c.27,0,.34-.07.43-.35a20.2,20.2,0,0,0,4.25-1.72c-1.48.27-3.11.77-4.64,1.21a3.29,3.29,0,0,1-1.45.3c.06-.3.46-.33.68-.4l2.47-.71a9.52,9.52,0,0,1,3.38-.65c0,.52-.53.68-.87.86-1.05.54-2.49.94-3.67,1.41a3.94,3.94,0,0,0,1.06,1.46,8.77,8.77,0,0,1,1.69.21c.57-.7,1.05-1.64,1.59-2.43.15-.21.35-.57.63-.55-.09.58-.58,1-.91,1.51s-.62,1.05-.93,1.57c.37.25.95.26,1.07.75-.44.1-.73-.37-1.16-.45a13.66,13.66,0,0,0-1.4,2.72,11,11,0,0,0,2.08-.8,5.13,5.13,0,0,0,.72-1.92,4.89,4.89,0,0,1,2-3.33,2.86,2.86,0,0,1,.29-.61c.19,0,.17.12.29.15a7.3,7.3,0,0,1,4.44-1.06c.3,0,1,.11,1,.51,0,.64-1,1.37-1.5,1.76A55.23,55.23,0,0,1,292.16,192.94Zm5.07-5.9a5.73,5.73,0,0,0-3.62,1.36,10.89,10.89,0,0,0-1,1.87c-.37.67-1.25,1.72-.77,2.47a50.91,50.91,0,0,0,5.69-3.89,4.28,4.28,0,0,0,1.5-1.71A4.06,4.06,0,0,0,297.23,187Zm-5.45,4.24c.29-.76.86-1.49,1.06-2.17A4,4,0,0,0,291.78,191.28Zm-5.66-.31c.43-.09,1,0,1.41-.15a7.45,7.45,0,0,1-.92-1.16C286.49,190.14,286.27,190.52,286.12,191Zm-.09.31a5.67,5.67,0,0,0-.39,1.26c-.11.41-.13,1-.48,1.16a6.73,6.73,0,0,1,.48-2.32,2.73,2.73,0,0,0-2.36,2.72c0,1.09.84,1.48,2,1.47,2.42,0,4.18-2.18,2.56-4.34A7.78,7.78,0,0,0,286,191.28Zm2.75,1.81c.26-.57.54-1.11.82-1.66a8.58,8.58,0,0,0-1.4-.2A4.9,4.9,0,0,1,288.78,193.09Zm2.37,0a1.89,1.89,0,0,0,.43-.2c0-.15,0-.35-.14-.4C291.36,192.76,291.23,192.93,291.15,193.14Zm-2.66,1.57c.65.12.87.67,1.26,1.06a4.81,4.81,0,0,1,.68-1.77c0-.06,0-.12-.1-.1C289.82,194.28,289,194.37,288.49,194.71Z" transform="translate(-183.32 -114.04)"/>
      <text class="cls-8" transform="translate(92.17 92.14)">1</text>
      <g>
        <path class="cls-10" d="M255.19,203.71l-1.3-1.46a8.46,8.46,0,0,1,5.59.28,4.93,4.93,0,0,0,2.86.36,3,3,0,0,0,1.85-1.1,4.21,4.21,0,0,1,3.3-1.5l1,1.51a3.31,3.31,0,0,0-2.63,1.21,3.83,3.83,0,0,1-2.35,1.37,7.14,7.14,0,0,1-3.92-.46A6.41,6.41,0,0,0,255.19,203.71Z" transform="translate(-183.32 -114.04)"/>
        <path class="cls-10" d="M257.72,205.1l-1.3-1.46a8.43,8.43,0,0,1,5.6.28,5,5,0,0,0,2.85.36,3,3,0,0,0,1.85-1.1,4.28,4.28,0,0,1,3.3-1.51l1,1.51a3.33,3.33,0,0,0-2.63,1.21,3.77,3.77,0,0,1-2.35,1.37,7.17,7.17,0,0,1-3.93-.45A6.35,6.35,0,0,0,257.72,205.1Z" transform="translate(-183.32 -114.04)"/>
        <path class="cls-10" d="M257.16,206.64l-1.3-1.46a8.49,8.49,0,0,1,5.6.29,5.15,5.15,0,0,0,2.85.36,3,3,0,0,0,1.85-1.11,4.21,4.21,0,0,1,3.3-1.5l1,1.51a3.28,3.28,0,0,0-2.63,1.21,3.9,3.9,0,0,1-2.35,1.37,7.26,7.26,0,0,1-3.93-.45A6.41,6.41,0,0,0,257.16,206.64Z" transform="translate(-183.32 -114.04)"/>
        <path class="cls-10" d="M259.74,208l-1.3-1.46a8.56,8.56,0,0,1,5.6.28,5,5,0,0,0,2.85.37,3,3,0,0,0,1.85-1.1,4.18,4.18,0,0,1,3.3-1.51l1,1.51a3.28,3.28,0,0,0-2.63,1.21,3.85,3.85,0,0,1-2.35,1.37,7.26,7.26,0,0,1-3.93-.45A6.41,6.41,0,0,0,259.74,208Z" transform="translate(-183.32 -114.04)"/>
        <path class="cls-10" d="M255.58,202.12l-1.3-1.46a8.43,8.43,0,0,1,5.6.28,5,5,0,0,0,2.85.36,2.94,2.94,0,0,0,1.85-1.1,4.21,4.21,0,0,1,3.3-1.5l1,1.51a3.25,3.25,0,0,0-2.63,1.21,3.9,3.9,0,0,1-2.35,1.37,7.26,7.26,0,0,1-3.93-.46A6.41,6.41,0,0,0,255.58,202.12Z" transform="translate(-183.32 -114.04)"/>
        <polygon points="72.34 86.77 74.12 86.61 74.89 87.03 73.73 86.95 72.34 86.77"/>
        <polygon points="76.87 87.67 78.77 88.39 79.99 88 78.44 87.8 76.87 87.67"/>
        <polygon points="77.62 89.95 76.29 89.88 75.74 90.25 77.09 90.11 78.82 90.81 79.91 90.79 78.41 90.21 77.62 89.95"/>
        <path d="M268.79,203.84c-.34,0-1.21.24-1.21.24l-.65,1.08.92-.66,1.45-.2Z" transform="translate(-183.32 -114.04)"/>
        <polygon points="86.15 92.46 85.54 93.23 84.14 93.67 84.92 94.01 86.07 93.54 86.15 92.46"/>
        <polygon points="80.3 93.18 78.95 92.77 77.91 93.02 79.14 93.1 80.3 93.18"/>
        <polygon points="75.8 91.5 75.03 91.64 76.11 91.7 75.8 91.5"/>
        <polygon class="cls-11" points="82.07 86.87 81.12 87.13 79.99 88 81.54 87.66 82.07 86.87"/>
        <polygon class="cls-11" points="83.29 91.54 82.03 92.16 81.89 92.53 83.11 92.22 83.29 91.54"/>
        <polygon class="cls-11" points="88.67 91.15 87.27 91.67 87.17 92.36 88.33 91.81 88.67 91.15"/>
        <polygon class="cls-11" points="74.95 91.08 74 91.89 73.66 91.38 74.95 91.08"/>
        <polygon class="cls-12" points="80.7 89.34 78.98 89.19 79.91 89.62 80.7 89.34"/>
        <path class="cls-12" d="M265.72,207.65l-1.61-.37s.83.58,1.06.69a13.1,13.1,0,0,0,1.64.21Z" transform="translate(-183.32 -114.04)"/>
        <polygon class="cls-12" points="75.52 89.52 74.09 89.57 74.64 90.34 75.52 89.52"/>
        <path class="cls-12" d="M267.37,199.38l-1.6.65s-.64.93-.38.88a8.77,8.77,0,0,0,1.36-.75Z" transform="translate(-183.32 -114.04)"/>
      </g>
      <g>
        <path class="cls-14" d="M312.92,207.76l-4.89-5a3.19,3.19,0,0,0-5.11-3.62,212301722417.56,212301722417.56,0,0,0-.16.16,3.19,3.19,0,0,0,3.21,5.3l.41.43a.75.75,0,0,1,1,1l.45.46a.75.75,0,0,1,1,1l.46.46a.74.74,0,0,1,1,1l.32.32,2.51-.13.16-.15Z" transform="translate(-183.32 -114.04)"/>
        <path class="cls-15" d="M313.27,209l-5.4-6.16a3.16,3.16,0,1,0-1.9,1.68l.41.43a.75.75,0,0,1,1,1l.45.46a.75.75,0,0,1,1,1l.46.46a.74.74,0,0,1,1,1l.32.32,2.51-.13Z" transform="translate(-183.32 -114.04)"/>
        <path class="cls-33" d="M312.92,207.76l-4.89-5a3.16,3.16,0,1,0-1.9,1.69l.41.42a.7.7,0,0,1,.89.14.69.69,0,0,1,.11.89l.45.47a.75.75,0,0,1,1,1l.45.46a.75.75,0,0,1,1,1l.31.32,2.52-.13Z" transform="translate(-183.32 -114.04)"/>
        <path class="cls-34" d="M303.06,203.4a2.9,2.9,0,1,1,4.74-.79l-.08.16,5,5.12.24.9-2.08.11-.1-.1a1,1,0,0,0-.25-1,1,1,0,0,0-1-.27l-.19-.2A1,1,0,0,0,308,206l-.18-.19a1,1,0,0,0-1.27-1.3l-.38-.4-.16,0A2.9,2.9,0,0,1,303.06,203.4Z" transform="translate(-183.32 -114.04)"/>
        <path class="cls-18" d="M306.9,203.19a2.52,2.52,0,1,1,.05-3.56A2.54,2.54,0,0,1,306.9,203.19Z" transform="translate(-183.32 -114.04)"/>
        <text class="cls-19" transform="translate(119.37 86.25) rotate(45.85)">Pub</text>
      </g>
      <path class="cls-13" d="M292.16,205.06c1.15.52,2.09-.43,3-.61.23.27,0,.81.09,1.11.7.51,2.05.32,2.57,1-.31.24-.72-.15-1.26-.3-.93-.26-1.95-.1-1.6-1.46-.83.39-2.22,1.11-3.19.45a6.23,6.23,0,0,1-1,.5c-.39.82-.7,1.69-1,2.58-.67-.24-.69-1.16-1.49-1.26a2.12,2.12,0,0,0-.24.76c.18,0,.39-.56.67-.41,0,.39-.41.71-.77.86-.4-.25-.09-.83,0-1.26a5,5,0,0,1-3.05,1,2.79,2.79,0,0,1-1.4-.41c-.87-.65-.64-2.37,0-3.18a3.77,3.77,0,0,1,2.22-1.26,13.66,13.66,0,0,0,.63-1.51c.27,0,.34-.08.43-.36a19.68,19.68,0,0,0,4.25-1.72c-1.48.28-3.11.77-4.64,1.22a3.29,3.29,0,0,1-1.45.3c.06-.3.46-.34.68-.4l2.47-.71a9.76,9.76,0,0,1,3.38-.66c0,.53-.53.68-.87.86-1.05.55-2.49.94-3.67,1.42A4,4,0,0,0,288,203a8.07,8.07,0,0,1,1.69.2c.57-.69,1.05-1.63,1.59-2.42.15-.22.35-.58.63-.56-.09.59-.58,1-.91,1.52s-.62,1.05-.93,1.56c.37.25.95.27,1.07.76-.44.1-.73-.38-1.16-.45a13.14,13.14,0,0,0-1.4,2.72,10.34,10.34,0,0,0,2.08-.81,5.08,5.08,0,0,0,.72-1.91,4.89,4.89,0,0,1,2-3.34,2.57,2.57,0,0,1,.29-.6c.19-.05.17.12.29.15a7.3,7.3,0,0,1,4.44-1.06c.3,0,1,.11,1,.5,0,.64-1,1.38-1.5,1.77A55.23,55.23,0,0,1,292.16,205.06Zm5.07-5.91a5.79,5.79,0,0,0-3.62,1.36,11.68,11.68,0,0,0-1,1.87c-.37.67-1.25,1.73-.77,2.48a52.29,52.29,0,0,0,5.69-3.89,4.31,4.31,0,0,0,1.5-1.72A4.21,4.21,0,0,0,297.23,199.15Zm-5.45,4.24c.29-.75.86-1.48,1.06-2.17A4.08,4.08,0,0,0,291.78,203.39Zm-5.66-.3c.43-.09,1,0,1.41-.15a7.45,7.45,0,0,1-.92-1.16C286.49,202.26,286.27,202.64,286.12,203.09Zm-.09.3a5.84,5.84,0,0,0-.39,1.26c-.11.41-.13,1-.48,1.16a6.83,6.83,0,0,1,.48-2.32,2.73,2.73,0,0,0-2.36,2.73c0,1.09.84,1.47,2,1.46,2.42,0,4.18-2.18,2.56-4.34A9.12,9.12,0,0,0,286,203.39Zm2.75,1.82c.26-.57.54-1.12.82-1.66a9.8,9.8,0,0,0-1.4-.21A4.9,4.9,0,0,1,288.78,205.21Zm2.37,0a1.89,1.89,0,0,0,.43-.2c0-.15,0-.36-.14-.41C291.36,204.88,291.23,205.05,291.15,205.26Zm-2.66,1.57c.65.11.87.67,1.26,1.06a4.68,4.68,0,0,1,.68-1.77c0-.06,0-.12-.1-.1C289.82,206.4,289,206.48,288.49,206.83Z" transform="translate(-183.32 -114.04)"/>
      <text class="cls-8" transform="translate(92.17 104.25)">0</text>
      <g>
        <path class="cls-10" d="M255.19,215.82l-1.3-1.45a8.4,8.4,0,0,1,5.59.28,5,5,0,0,0,2.86.36,3,3,0,0,0,1.85-1.1,4.24,4.24,0,0,1,3.3-1.51l1,1.51a3.34,3.34,0,0,0-2.63,1.21,3.79,3.79,0,0,1-2.35,1.38,7.33,7.33,0,0,1-3.92-.46A6.41,6.41,0,0,0,255.19,215.82Z" transform="translate(-183.32 -114.04)"/>
        <path class="cls-10" d="M257.72,217.21l-1.3-1.46a8.56,8.56,0,0,1,5.6.28,5,5,0,0,0,2.85.37,3,3,0,0,0,1.85-1.11,4.25,4.25,0,0,1,3.3-1.5l1,1.51a3.3,3.3,0,0,0-2.63,1.21,3.86,3.86,0,0,1-2.35,1.37,7.16,7.16,0,0,1-3.93-.46A6.47,6.47,0,0,0,257.72,217.21Z" transform="translate(-183.32 -114.04)"/>
        <path class="cls-10" d="M257.16,218.76l-1.3-1.46a8.43,8.43,0,0,1,5.6.28,5,5,0,0,0,2.85.36,3,3,0,0,0,1.85-1.1,4.21,4.21,0,0,1,3.3-1.5l1,1.51a3.25,3.25,0,0,0-2.63,1.21,3.9,3.9,0,0,1-2.35,1.37,7.26,7.26,0,0,1-3.93-.46A6.35,6.35,0,0,0,257.16,218.76Z" transform="translate(-183.32 -114.04)"/>
        <path class="cls-10" d="M259.74,220.13l-1.3-1.46a8.43,8.43,0,0,1,5.6.28,5,5,0,0,0,2.85.36,3,3,0,0,0,1.85-1.1,4.21,4.21,0,0,1,3.3-1.5l1,1.51a3.25,3.25,0,0,0-2.63,1.21,3.9,3.9,0,0,1-2.35,1.37,7.16,7.16,0,0,1-3.93-.46A6.35,6.35,0,0,0,259.74,220.13Z" transform="translate(-183.32 -114.04)"/>
        <path class="cls-10" d="M255.58,214.23l-1.3-1.46a8.48,8.48,0,0,1,5.6.29,5.06,5.06,0,0,0,2.85.36,2.9,2.9,0,0,0,1.85-1.11,4.27,4.27,0,0,1,3.3-1.5l1,1.51a3.28,3.28,0,0,0-2.63,1.21,3.85,3.85,0,0,1-2.35,1.37,7.16,7.16,0,0,1-3.93-.46A6.46,6.46,0,0,0,255.58,214.23Z" transform="translate(-183.32 -114.04)"/>
        <polygon points="72.34 98.89 74.12 98.73 74.89 99.14 73.73 99.07 72.34 98.89"/>
        <polygon points="76.87 99.79 78.77 100.5 79.99 100.11 78.44 99.91 76.87 99.79"/>
        <polygon points="77.62 102.06 76.29 102 75.74 102.36 77.09 102.23 78.82 102.92 79.91 102.91 78.41 102.32 77.62 102.06"/>
        <path d="M268.79,216c-.34,0-1.21.23-1.21.23l-.65,1.08.92-.65,1.45-.2Z" transform="translate(-183.32 -114.04)"/>
        <polygon points="86.15 104.57 85.54 105.35 84.14 105.79 84.92 106.12 86.07 105.65 86.15 104.57"/>
        <polygon points="80.3 105.29 78.95 104.88 77.91 105.14 79.14 105.22 80.3 105.29"/>
        <polygon points="75.8 103.62 75.03 103.75 76.11 103.81 75.8 103.62"/>
        <polygon class="cls-11" points="82.07 98.98 81.12 99.25 79.99 100.11 81.54 99.77 82.07 98.98"/>
        <polygon class="cls-11" points="83.29 103.66 82.03 104.27 81.89 104.64 83.11 104.33 83.29 103.66"/>
        <polygon class="cls-11" points="88.67 103.27 87.27 103.78 87.17 104.47 88.33 103.92 88.67 103.27"/>
        <polygon class="cls-11" points="74.95 103.2 74 104 73.66 103.49 74.95 103.2"/>
        <polygon class="cls-12" points="80.7 101.45 78.98 101.31 79.91 101.74 80.7 101.45"/>
        <path class="cls-12" d="M265.72,219.76l-1.61-.36s.83.57,1.06.68a11.45,11.45,0,0,0,1.64.21Z" transform="translate(-183.32 -114.04)"/>
        <polygon class="cls-12" points="75.52 101.64 74.09 101.68 74.64 102.45 75.52 101.64"/>
        <path class="cls-12" d="M267.37,211.5l-1.6.65s-.64.92-.38.88a9.6,9.6,0,0,0,1.36-.76Z" transform="translate(-183.32 -114.04)"/>
      </g>
      <g>
        <path class="cls-14" d="M312.92,219.87l-4.89-5a3.19,3.19,0,0,0-5.11-3.62.6.6,0,0,0-.08.08l-.08.07a3.19,3.19,0,0,0,3.21,5.31l.41.42a.7.7,0,0,1,.89.14.69.69,0,0,1,.11.89l.45.46a.71.71,0,0,1,.89.15.69.69,0,0,1,.11.89l.46.46a.74.74,0,0,1,1,1l.32.32,2.51-.13.16-.16Z" transform="translate(-183.32 -114.04)"/>
        <path class="cls-15" d="M313.27,221.14l-5.4-6.16a3.16,3.16,0,1,0-1.9,1.69l.41.42a.7.7,0,0,1,.89.14.69.69,0,0,1,.11.89l.45.46a.71.71,0,0,1,.89.15.69.69,0,0,1,.11.89l.46.46a.74.74,0,0,1,1,1l.32.32,2.51-.13Z" transform="translate(-183.32 -114.04)"/>
        <path class="cls-35" d="M312.92,219.87l-4.89-5a3.15,3.15,0,1,0-1.9,1.69l.41.42a.75.75,0,0,1,1,1l.45.46a.7.7,0,0,1,.89.14.69.69,0,0,1,.11.89l.45.47a.75.75,0,0,1,1,1l.31.32,2.52-.14Z" transform="translate(-183.32 -114.04)"/>
        <path class="cls-36" d="M303.06,215.52a2.9,2.9,0,1,1,4.74-.79l-.08.16,5,5.12.24.9-2.08.11-.1-.11a1,1,0,0,0-1.26-1.3l-.19-.19a1,1,0,0,0-.25-1,1,1,0,0,0-1-.28l-.18-.19a1,1,0,0,0-.25-1,1,1,0,0,0-1-.27l-.38-.4-.16,0A2.92,2.92,0,0,1,303.06,215.52Z" transform="translate(-183.32 -114.04)"/>
        <path class="cls-18" d="M306.9,215.3a2.52,2.52,0,1,1,.05-3.56A2.53,2.53,0,0,1,306.9,215.3Z" transform="translate(-183.32 -114.04)"/>
        <text class="cls-19" transform="translate(119.37 98.37) rotate(45.85)">Pub</text>
      </g>
      <path class="cls-13" d="M292.16,217.17c1.15.53,2.09-.43,3-.6.23.26,0,.8.09,1.11.7.5,2.05.32,2.57,1-.31.24-.72-.15-1.26-.3-.93-.26-1.95-.1-1.6-1.47-.83.39-2.22,1.12-3.19.46a7.25,7.25,0,0,1-1,.5,27.16,27.16,0,0,0-1,2.58c-.67-.24-.69-1.16-1.49-1.27a2.19,2.19,0,0,0-.24.76c.18.05.39-.55.67-.4,0,.38-.41.71-.77.86-.4-.26-.09-.83,0-1.27a4.89,4.89,0,0,1-3.05,1,2.78,2.78,0,0,1-1.4-.4c-.87-.66-.64-2.38,0-3.18a3.67,3.67,0,0,1,2.22-1.26,13.82,13.82,0,0,0,.63-1.52c.27,0,.34-.07.43-.35a20.2,20.2,0,0,0,4.25-1.72c-1.48.28-3.11.77-4.64,1.21a3.3,3.3,0,0,1-1.45.31c.06-.3.46-.34.68-.41.77-.23,1.62-.46,2.47-.7a9.32,9.32,0,0,1,3.38-.66c0,.53-.53.68-.87.86-1.05.54-2.49.94-3.67,1.41a3.86,3.86,0,0,0,1.06,1.46,8.77,8.77,0,0,1,1.69.21c.57-.7,1.05-1.63,1.59-2.42.15-.22.35-.58.63-.56-.09.59-.58,1-.91,1.51s-.62,1.06-.93,1.57c.37.25.95.26,1.07.76-.44.09-.73-.38-1.16-.46a13.48,13.48,0,0,0-1.4,2.73,11,11,0,0,0,2.08-.81,5.13,5.13,0,0,0,.72-1.92,4.89,4.89,0,0,1,2-3.33,2.86,2.86,0,0,1,.29-.61c.19,0,.17.13.29.16a7.24,7.24,0,0,1,4.44-1.07c.3,0,1,.11,1,.51,0,.64-1,1.38-1.5,1.77A56.67,56.67,0,0,1,292.16,217.17Zm5.07-5.9a5.73,5.73,0,0,0-3.62,1.36,10.89,10.89,0,0,0-1,1.87c-.37.67-1.25,1.72-.77,2.47a52.22,52.22,0,0,0,5.69-3.88,4.38,4.38,0,0,0,1.5-1.72A4.06,4.06,0,0,0,297.23,211.27Zm-5.45,4.24c.29-.75.86-1.49,1.06-2.17A4,4,0,0,0,291.78,215.51Zm-5.66-.3c.43-.1,1-.05,1.41-.16a7.45,7.45,0,0,1-.92-1.16C286.49,214.37,286.27,214.75,286.12,215.21Zm-.09.3a5.84,5.84,0,0,0-.39,1.26c-.11.41-.13,1-.48,1.16a6.73,6.73,0,0,1,.48-2.32,2.73,2.73,0,0,0-2.36,2.73c0,1.08.84,1.47,2,1.46,2.42,0,4.18-2.18,2.56-4.34A8.39,8.39,0,0,0,286,215.51Zm2.75,1.82c.26-.58.54-1.12.82-1.67a8.58,8.58,0,0,0-1.4-.2A4.9,4.9,0,0,1,288.78,217.33Zm2.37,0a1.56,1.56,0,0,0,.43-.21c0-.14,0-.35-.14-.4C291.36,217,291.23,217.16,291.15,217.38Zm-2.66,1.56c.65.12.87.67,1.26,1.06a4.81,4.81,0,0,1,.68-1.77c0-.06,0-.11-.1-.1C289.82,218.51,289,218.6,288.49,218.94Z" transform="translate(-183.32 -114.04)"/>
      <text class="cls-8" transform="translate(92.17 116.37)">1</text>
      <g>
        <path class="cls-10" d="M255.19,227.94l-1.3-1.46a8.53,8.53,0,0,1,5.59.28,5,5,0,0,0,2.86.37,3,3,0,0,0,1.85-1.11,4.21,4.21,0,0,1,3.3-1.5l1,1.51a3.31,3.31,0,0,0-2.63,1.21,3.83,3.83,0,0,1-2.35,1.37,7.14,7.14,0,0,1-3.92-.46A6.47,6.47,0,0,0,255.19,227.94Z" transform="translate(-183.32 -114.04)"/>
        <path class="cls-10" d="M257.72,229.33l-1.3-1.46a8.43,8.43,0,0,1,5.6.28,5,5,0,0,0,2.85.36,3,3,0,0,0,1.85-1.1,4.25,4.25,0,0,1,3.3-1.5l1,1.51a3.27,3.27,0,0,0-2.63,1.21,3.86,3.86,0,0,1-2.35,1.37,7.26,7.26,0,0,1-3.93-.46A6.35,6.35,0,0,0,257.72,229.33Z" transform="translate(-183.32 -114.04)"/>
        <path class="cls-10" d="M257.16,230.87l-1.3-1.46a8.49,8.49,0,0,1,5.6.29,5.06,5.06,0,0,0,2.85.36,3,3,0,0,0,1.85-1.11,4.24,4.24,0,0,1,3.3-1.5l1,1.51a3.28,3.28,0,0,0-2.63,1.21,3.8,3.8,0,0,1-2.35,1.37,7.26,7.26,0,0,1-3.93-.45A6.41,6.41,0,0,0,257.16,230.87Z" transform="translate(-183.32 -114.04)"/>
        <path class="cls-10" d="M259.74,232.24l-1.3-1.46a8.48,8.48,0,0,1,5.6.29,5,5,0,0,0,2.85.36,3,3,0,0,0,1.85-1.1,4.24,4.24,0,0,1,3.3-1.51l1,1.51a3.28,3.28,0,0,0-2.63,1.21,3.8,3.8,0,0,1-2.35,1.37,7.26,7.26,0,0,1-3.93-.45A6.41,6.41,0,0,0,259.74,232.24Z" transform="translate(-183.32 -114.04)"/>
        <path class="cls-10" d="M255.58,226.35l-1.3-1.46a8.43,8.43,0,0,1,5.6.28,5,5,0,0,0,2.85.36,2.89,2.89,0,0,0,1.85-1.1,4.21,4.21,0,0,1,3.3-1.5l1,1.51a3.28,3.28,0,0,0-2.63,1.21,3.9,3.9,0,0,1-2.35,1.37,7.16,7.16,0,0,1-3.93-.46A6.41,6.41,0,0,0,255.58,226.35Z" transform="translate(-183.32 -114.04)"/>
        <polygon points="72.34 111 74.12 110.85 74.89 111.26 73.73 111.19 72.34 111"/>
        <polygon points="76.87 111.9 78.77 112.62 79.99 112.23 78.44 112.03 76.87 111.9"/>
        <polygon points="77.62 114.18 76.29 114.11 75.74 114.48 77.09 114.34 78.82 115.04 79.91 115.02 78.41 114.44 77.62 114.18"/>
        <path d="M268.79,228.08c-.34,0-1.21.23-1.21.23l-.65,1.08.92-.66,1.45-.2Z" transform="translate(-183.32 -114.04)"/>
        <polygon points="86.15 116.69 85.54 117.46 84.14 117.91 84.92 118.24 86.07 117.77 86.15 116.69"/>
        <polygon points="80.3 117.41 78.95 117 77.91 117.25 79.14 117.33 80.3 117.41"/>
        <polygon points="75.8 115.73 75.03 115.87 76.11 115.93 75.8 115.73"/>
        <polygon class="cls-11" points="82.07 111.1 81.12 111.37 79.99 112.23 81.54 111.89 82.07 111.1"/>
        <polygon class="cls-11" points="83.29 115.77 82.03 116.39 81.89 116.76 83.11 116.45 83.29 115.77"/>
        <polygon class="cls-11" points="88.67 115.38 87.27 115.9 87.17 116.59 88.33 116.04 88.67 115.38"/>
        <polygon class="cls-11" points="74.95 115.31 74 116.12 73.66 115.61 74.95 115.31"/>
        <polygon class="cls-12" points="80.7 113.57 78.98 113.42 79.91 113.85 80.7 113.57"/>
        <path class="cls-12" d="M265.72,231.88l-1.61-.37s.83.58,1.06.69a13.1,13.1,0,0,0,1.64.21Z" transform="translate(-183.32 -114.04)"/>
        <polygon class="cls-12" points="75.52 113.75 74.09 113.8 74.64 114.57 75.52 113.75"/>
        <path class="cls-12" d="M267.37,223.61l-1.6.65s-.64.93-.38.89a9.6,9.6,0,0,0,1.36-.76Z" transform="translate(-183.32 -114.04)"/>
      </g>
      <g>
        <path class="cls-14" d="M312.92,232,308,227a3.2,3.2,0,0,0-5.11-3.63,636905167252.79,636905167252.79,0,0,0-.16.16,3.19,3.19,0,0,0,3.21,5.31l.41.42a.75.75,0,0,1,1,1l.45.46a.75.75,0,0,1,1,1l.46.46a.75.75,0,0,1,1,1l.32.32,2.51-.14.16-.15Z" transform="translate(-183.32 -114.04)"/>
        <path class="cls-15" d="M313.27,233.26l-5.4-6.16a3.15,3.15,0,1,0-1.9,1.69l.41.42a.75.75,0,0,1,1,1l.45.46a.75.75,0,0,1,1,1l.46.46a.75.75,0,0,1,1,1l.32.32,2.51-.14Z" transform="translate(-183.32 -114.04)"/>
        <path class="cls-37" d="M312.92,232,308,227a3.16,3.16,0,1,0-1.9,1.68l.41.42a.69.69,0,0,1,.89.15.69.69,0,0,1,.11.89l.45.46a.75.75,0,0,1,1,1l.45.46a.7.7,0,0,1,.89.14.69.69,0,0,1,.11.89l.31.33,2.52-.14Z" transform="translate(-183.32 -114.04)"/>
        <path class="cls-38" d="M303.06,227.63a2.9,2.9,0,1,1,4.74-.79l-.08.16,5,5.12.24.9-2.08.11-.1-.1a1,1,0,0,0-.25-1,1,1,0,0,0-1-.28l-.19-.19a1,1,0,0,0-.25-1,1,1,0,0,0-1-.28l-.18-.19a1,1,0,0,0-1.27-1.3l-.38-.4-.16,0A2.9,2.9,0,0,1,303.06,227.63Z" transform="translate(-183.32 -114.04)"/>
        <path class="cls-18" d="M306.9,227.42a2.52,2.52,0,1,1,.05-3.56A2.53,2.53,0,0,1,306.9,227.42Z" transform="translate(-183.32 -114.04)"/>
        <text class="cls-19" transform="translate(119.37 110.48) rotate(45.85)">Pub</text>
      </g>
      <path class="cls-13" d="M292.16,229.29c1.15.52,2.09-.43,3-.6.23.26,0,.8.09,1.11.7.5,2.05.32,2.57,1-.31.24-.72-.16-1.26-.31-.93-.26-1.95-.1-1.6-1.46-.83.39-2.22,1.12-3.19.45a6.27,6.27,0,0,1-1,.51c-.39.81-.7,1.69-1,2.57-.67-.24-.69-1.16-1.49-1.26a2.19,2.19,0,0,0-.24.76c.18.05.39-.56.67-.41,0,.39-.41.71-.77.86-.4-.25-.09-.82,0-1.26a4.89,4.89,0,0,1-3.05,1,2.79,2.79,0,0,1-1.4-.41c-.87-.65-.64-2.37,0-3.18a3.77,3.77,0,0,1,2.22-1.26,12.9,12.9,0,0,0,.63-1.51c.27,0,.34-.07.43-.36a19.66,19.66,0,0,0,4.25-1.71c-1.48.27-3.11.77-4.64,1.21a3.29,3.29,0,0,1-1.45.3c.06-.3.46-.34.68-.4l2.47-.71a9.76,9.76,0,0,1,3.38-.66c0,.53-.53.68-.87.86-1.05.55-2.49.94-3.67,1.42a4,4,0,0,0,1.06,1.46,8.8,8.8,0,0,1,1.69.2c.57-.69,1.05-1.63,1.59-2.42.15-.21.35-.58.63-.55-.09.58-.58,1-.91,1.51s-.62,1.05-.93,1.57c.37.24.95.26,1.07.75-.44.1-.73-.37-1.16-.45a13.4,13.4,0,0,0-1.4,2.72,11,11,0,0,0,2.08-.8,5.2,5.2,0,0,0,.72-1.92,4.85,4.85,0,0,1,2-3.33,2.65,2.65,0,0,1,.29-.61c.19,0,.17.12.29.15a7.3,7.3,0,0,1,4.44-1.06c.3,0,1,.11,1,.5,0,.64-1,1.38-1.5,1.77A55.23,55.23,0,0,1,292.16,229.29Zm5.07-5.91a5.8,5.8,0,0,0-3.62,1.37,11.16,11.16,0,0,0-1,1.86c-.37.67-1.25,1.73-.77,2.48a52.29,52.29,0,0,0,5.69-3.89,4.24,4.24,0,0,0,1.5-1.72A4.21,4.21,0,0,0,297.23,223.38Zm-5.45,4.24c.29-.75.86-1.48,1.06-2.17A4.08,4.08,0,0,0,291.78,227.62Zm-5.66-.3c.43-.09,1,0,1.41-.15a7.45,7.45,0,0,1-.92-1.16C286.49,226.49,286.27,226.87,286.12,227.32Zm-.09.3a6,6,0,0,0-.39,1.26c-.11.41-.13,1-.48,1.17a6.73,6.73,0,0,1,.48-2.32,2.72,2.72,0,0,0-2.36,2.72c0,1.09.84,1.47,2,1.47,2.42,0,4.18-2.18,2.56-4.34A8.34,8.34,0,0,0,286,227.62Zm2.75,1.82c.26-.57.54-1.11.82-1.66a8.58,8.58,0,0,0-1.4-.2A4.85,4.85,0,0,1,288.78,229.44Zm2.37.05a1.89,1.89,0,0,0,.43-.2c0-.15,0-.36-.14-.41C291.36,229.11,291.23,229.28,291.15,229.49Zm-2.66,1.57c.65.11.87.67,1.26,1.06a4.68,4.68,0,0,1,.68-1.77c0-.06,0-.12-.1-.1C289.82,230.63,289,230.71,288.49,231.06Z" transform="translate(-183.32 -114.04)"/>
      <text class="cls-8" transform="translate(92.17 128.48)">0</text>
      <g>
        <path class="cls-10" d="M255.19,240.06l-1.3-1.46a8.4,8.4,0,0,1,5.59.28,5,5,0,0,0,2.86.36,3,3,0,0,0,1.85-1.1,4.24,4.24,0,0,1,3.3-1.51l1,1.52a3.31,3.31,0,0,0-2.63,1.2,3.79,3.79,0,0,1-2.35,1.38,7.23,7.23,0,0,1-3.92-.46A6.35,6.35,0,0,0,255.19,240.06Z" transform="translate(-183.32 -114.04)"/>
        <path class="cls-10" d="M257.72,241.44l-1.3-1.46a8.48,8.48,0,0,1,5.6.29,5.06,5.06,0,0,0,2.85.36,2.93,2.93,0,0,0,1.85-1.11A4.25,4.25,0,0,1,270,238l1,1.51a3.3,3.3,0,0,0-2.63,1.21,3.82,3.82,0,0,1-2.35,1.37,7.26,7.26,0,0,1-3.93-.45A6.41,6.41,0,0,0,257.72,241.44Z" transform="translate(-183.32 -114.04)"/>
        <path class="cls-10" d="M257.16,243l-1.3-1.46a8.43,8.43,0,0,1,5.6.28,5,5,0,0,0,2.85.36,2.92,2.92,0,0,0,1.85-1.1,4.21,4.21,0,0,1,3.3-1.5l1,1.51a3.25,3.25,0,0,0-2.63,1.21,3.9,3.9,0,0,1-2.35,1.37,7.16,7.16,0,0,1-3.93-.46A6.41,6.41,0,0,0,257.16,243Z" transform="translate(-183.32 -114.04)"/>
        <path class="cls-10" d="M259.74,244.36l-1.3-1.46a8.49,8.49,0,0,1,5.6.28,4.9,4.9,0,0,0,2.85.36,3,3,0,0,0,1.85-1.1,4.21,4.21,0,0,1,3.3-1.5l1,1.51a3.28,3.28,0,0,0-2.63,1.21,3.9,3.9,0,0,1-2.35,1.37,7.16,7.16,0,0,1-3.93-.46A6.47,6.47,0,0,0,259.74,244.36Z" transform="translate(-183.32 -114.04)"/>
        <path class="cls-10" d="M255.58,238.47l-1.3-1.46a8.43,8.43,0,0,1,5.6.28,5.06,5.06,0,0,0,2.85.36,2.94,2.94,0,0,0,1.85-1.1,4.24,4.24,0,0,1,3.3-1.51l1,1.51a3.28,3.28,0,0,0-2.63,1.21,3.85,3.85,0,0,1-2.35,1.38,7.35,7.35,0,0,1-3.93-.46A6.35,6.35,0,0,0,255.58,238.47Z" transform="translate(-183.32 -114.04)"/>
        <polygon points="72.34 123.12 74.12 122.96 74.89 123.37 73.73 123.3 72.34 123.12"/>
        <polygon points="76.87 124.02 78.77 124.73 79.99 124.35 78.44 124.15 76.87 124.02"/>
        <polygon points="77.62 126.3 76.29 126.23 75.74 126.6 77.09 126.46 78.82 127.15 79.91 127.14 78.41 126.55 77.62 126.3"/>
        <path d="M268.79,240.19c-.34,0-1.21.23-1.21.23l-.65,1.09.92-.66,1.45-.2Z" transform="translate(-183.32 -114.04)"/>
        <polygon points="86.15 128.8 85.54 129.58 84.14 130.02 84.92 130.35 86.07 129.88 86.15 128.8"/>
        <polygon points="80.3 129.52 78.95 129.11 77.91 129.37 79.14 129.45 80.3 129.52"/>
        <polygon points="75.8 127.85 75.03 127.98 76.11 128.04 75.8 127.85"/>
        <polygon class="cls-11" points="82.07 123.22 81.12 123.48 79.99 124.35 81.54 124 82.07 123.22"/>
        <polygon class="cls-11" points="83.29 127.89 82.03 128.5 81.89 128.87 83.11 128.56 83.29 127.89"/>
        <polygon class="cls-11" points="88.67 127.5 87.27 128.01 87.17 128.7 88.33 128.15 88.67 127.5"/>
        <polygon class="cls-11" points="74.95 127.43 74 128.24 73.66 127.72 74.95 127.43"/>
        <polygon class="cls-12" points="80.7 125.69 78.98 125.54 79.91 125.97 80.7 125.69"/>
        <path class="cls-12" d="M265.72,244l-1.61-.36s.83.57,1.06.68a11.45,11.45,0,0,0,1.64.21Z" transform="translate(-183.32 -114.04)"/>
        <polygon class="cls-12" points="75.52 125.87 74.09 125.92 74.64 126.69 75.52 125.87"/>
        <path class="cls-12" d="M267.37,235.73l-1.6.65s-.64.93-.38.88a8.7,8.7,0,0,0,1.36-.76Z" transform="translate(-183.32 -114.04)"/>
      </g>
      <g>
        <path class="cls-14" d="M312.92,244.11,308,239.06a3.19,3.19,0,0,0-5.11-3.62l-.08.08-.08.07A3.19,3.19,0,0,0,306,240.9l.41.42a.7.7,0,0,1,.89.14.69.69,0,0,1,.11.89l.45.47a.75.75,0,0,1,1,1l.46.46a.74.74,0,0,1,1,1l.32.32,2.51-.13.16-.15Z" transform="translate(-183.32 -114.04)"/>
        <path class="cls-15" d="M313.27,245.38l-5.4-6.16a3.16,3.16,0,1,0-1.9,1.68l.41.42a.7.7,0,0,1,.89.14.69.69,0,0,1,.11.89l.45.47a.75.75,0,0,1,1,1l.46.46a.74.74,0,0,1,1,1l.32.32,2.51-.13Z" transform="translate(-183.32 -114.04)"/>
        <path class="cls-39" d="M312.92,244.11,308,239.06a3.16,3.16,0,1,0-1.9,1.69l.41.42a.75.75,0,0,1,1,1l.45.46a.69.69,0,0,1,.89.15.67.67,0,0,1,.11.88l.45.47a.75.75,0,0,1,1,1l.31.32,2.52-.13Z" transform="translate(-183.32 -114.04)"/>
        <path class="cls-40" d="M303.06,239.75a2.9,2.9,0,1,1,4.74-.79l-.08.16,5,5.12.24.9-2.08.11-.1-.1a1,1,0,0,0-.25-1,1,1,0,0,0-1-.28l-.19-.19a1,1,0,0,0-.25-1,1,1,0,0,0-1-.28l-.18-.19a1,1,0,0,0-.25-1,1,1,0,0,0-1-.27l-.38-.4-.16,0A2.9,2.9,0,0,1,303.06,239.75Z" transform="translate(-183.32 -114.04)"/>
        <path class="cls-18" d="M306.9,239.54A2.52,2.52,0,1,1,307,236,2.53,2.53,0,0,1,306.9,239.54Z" transform="translate(-183.32 -114.04)"/>
        <text class="cls-19" transform="translate(119.37 122.6) rotate(45.85)">Pub</text>
      </g>
      <path class="cls-13" d="M292.16,241.41c1.15.52,2.09-.44,3-.61.23.26,0,.81.09,1.11.7.5,2.05.32,2.57,1-.31.24-.72-.15-1.26-.3-.93-.26-1.95-.1-1.6-1.47-.83.39-2.22,1.12-3.19.46a7.25,7.25,0,0,1-1,.5,27.16,27.16,0,0,0-1,2.58c-.67-.24-.69-1.16-1.49-1.26a2.07,2.07,0,0,0-.24.75c.18,0,.39-.55.67-.4,0,.39-.41.71-.77.86-.4-.26-.09-.83,0-1.27a4.89,4.89,0,0,1-3.05,1,2.78,2.78,0,0,1-1.4-.4c-.87-.66-.64-2.38,0-3.18a3.72,3.72,0,0,1,2.22-1.26,13.06,13.06,0,0,0,.63-1.52c.27,0,.34-.07.43-.35a20.2,20.2,0,0,0,4.25-1.72c-1.48.28-3.11.77-4.64,1.21a3.3,3.3,0,0,1-1.45.31c.06-.3.46-.34.68-.41l2.47-.7a9.32,9.32,0,0,1,3.38-.66c0,.53-.53.68-.87.86-1.05.55-2.49.94-3.67,1.41a4,4,0,0,0,1.06,1.47,8.07,8.07,0,0,1,1.69.2c.57-.7,1.05-1.63,1.59-2.42.15-.22.35-.58.63-.56-.09.59-.58,1-.91,1.51s-.62,1.06-.93,1.57c.37.25.95.27,1.07.76-.44.09-.73-.38-1.16-.46a13.48,13.48,0,0,0-1.4,2.73,11,11,0,0,0,2.08-.81,5.06,5.06,0,0,0,.72-1.92,4.89,4.89,0,0,1,2-3.33,2.57,2.57,0,0,1,.29-.6c.19-.05.17.12.29.15a7.24,7.24,0,0,1,4.44-1.06c.3,0,1,.1,1,.5,0,.64-1,1.38-1.5,1.77A56.81,56.81,0,0,1,292.16,241.41Zm5.07-5.91a5.79,5.79,0,0,0-3.62,1.36,11.27,11.27,0,0,0-1,1.87c-.37.67-1.25,1.72-.77,2.47a50.84,50.84,0,0,0,5.69-3.88,4.38,4.38,0,0,0,1.5-1.72A4.21,4.21,0,0,0,297.23,235.5Zm-5.45,4.24c.29-.75.86-1.49,1.06-2.17A4,4,0,0,0,291.78,239.74Zm-5.66-.3c.43-.09,1,0,1.41-.15a7.53,7.53,0,0,1-.92-1.17C286.49,238.6,286.27,239,286.12,239.44Zm-.09.3a5.84,5.84,0,0,0-.39,1.26c-.11.41-.13,1-.48,1.16a6.73,6.73,0,0,1,.48-2.32,2.73,2.73,0,0,0-2.36,2.73c0,1.08.84,1.47,2,1.46,2.42,0,4.18-2.18,2.56-4.34A8.39,8.39,0,0,0,286,239.74Zm2.75,1.82c.26-.57.54-1.12.82-1.67a11.5,11.5,0,0,0-1.4-.2A4.9,4.9,0,0,1,288.78,241.56Zm2.37.05a1.89,1.89,0,0,0,.43-.2c0-.15,0-.36-.14-.41C291.36,241.22,291.23,241.39,291.15,241.61Zm-2.66,1.56c.65.12.87.68,1.26,1.06a4.69,4.69,0,0,1,.68-1.76c0-.06,0-.12-.1-.11C289.82,242.75,289,242.83,288.49,243.17Z" transform="translate(-183.32 -114.04)"/>
      <line class="cls-28" x1="133.58" y1="69.58" x2="133.58" y2="133.97"/>
      <rect class="cls-29" x="67.87" y="69.48" width="98.95" height="64.69" rx="1"/>
    </g>
    <path class="cls-41" d="M351.34,194.42c-37-8.43-71,4.52-101.25,4.52" transform="translate(-183.32 -114.04)"/>
    <path class="cls-41" d="M351.34,181c-37-8.44-71,4.52-101.25,4.52" transform="translate(-183.32 -114.04)"/>
  </g>
</svg>
