<svg xmlns="http://www.w3.org/2000/svg" xmlns:xlink="http://www.w3.org/1999/xlink" width="292.47" height="93.57" viewBox="0 0 292.47 93.57">
  <defs>
    <style>
      .cls-1, .cls-22, .cls-32, .cls-33, .cls-35, .cls-42, .cls-9 {
        fill: none;
      }

      .cls-2 {
        isolation: isolate;
      }

      .cls-3 {
        fill: #fda452;
      }

      .cls-10, .cls-12, .cls-13, .cls-14, .cls-16, .cls-22, .cls-3, .cls-35, .cls-42, .cls-9 {
        stroke: #000;
      }

      .cls-13, .cls-14, .cls-3, .cls-36, .cls-42 {
        stroke-width: 0.3px;
      }

      .cls-4 {
        fill: #fbafc5;
      }

      .cls-18, .cls-19, .cls-20, .cls-34, .cls-4, .cls-5 {
        fill-rule: evenodd;
      }

      .cls-5 {
        fill: #96c749;
      }

      .cls-6 {
        fill: #7f8587;
      }

      .cls-7 {
        fill: url(#linear-gradient);
      }

      .cls-8 {
        fill: url(#linear-gradient-2);
      }

      .cls-10, .cls-12, .cls-13, .cls-14, .cls-16, .cls-33, .cls-35, .cls-36, .cls-9 {
        stroke-linejoin: round;
      }

      .cls-10, .cls-12, .cls-16, .cls-22, .cls-32, .cls-9 {
        stroke-width: 0.5px;
      }

      .cls-10 {
        fill: #7cb2c9;
      }

      .cls-11 {
        fill: #c4dbe5;
      }

      .cls-13 {
        fill: #ca0127;
      }

      .cls-14 {
        fill: #fb2b34;
      }

      .cls-15 {
        clip-path: url(#clip-path);
      }

      .cls-16 {
        fill: #dbdbdb;
      }

      .cls-17, .cls-18 {
        fill: #fff;
      }

      .cls-19 {
        fill: #fda655;
      }

      .cls-21, .cls-31 {
        font-size: 7px;
      }

      .cls-21, .cls-39 {
        font-family: ArialMT, Arial;
      }

      .cls-23, .cls-27 {
        font-size: 9px;
        font-family: Humanist521BT-BoldCondensed, Humanst521 Cn BT;
        font-weight: 700;
      }

      .cls-24 {
        letter-spacing: -0.09em;
      }

      .cls-25 {
        letter-spacing: 0em;
      }

      .cls-26 {
        letter-spacing: -0.02em;
      }

      .cls-27 {
        fill: #141011;
      }

      .cls-28 {
        letter-spacing: 0.02em;
      }

      .cls-29 {
        fill: #fef0e8;
      }

      .cls-30 {
        font-size: 11.5px;
        font-family: FreeMono;font-phase: bold;
      }

      .cls-32 {
        stroke: #4d4d4d;
      }

      .cls-33 {
        stroke: #e60001;
      }

      .cls-34 {
        fill: #28708e;
      }

      .cls-35 {
        stroke-width: 0.75px;
      }

      .cls-36 {
        fill: #267520;
        stroke: #267520;
      }

      .cls-37 {
        fill: url(#linear-gradient-3);
      }

      .cls-38 {
        fill: url(#linear-gradient-4);
      }

      .cls-39 {
        font-size: 3.67px;
      }

      .cls-40 {
        fill: url(#linear-gradient-5);
      }

      .cls-41 {
        fill: url(#linear-gradient-6);
      }

      .cls-42 {
        stroke-miterlimit: 10;
      }

      .cls-43 {
        fill: #d2b6a7;
      }

      .cls-44 {
        fill: url(#linear-gradient-7);
      }

      .cls-45 {
        fill: url(#radial-gradient);
      }

      .cls-46 {
        mix-blend-mode: multiply;
      }

      .cls-47 {
        fill: url(#linear-gradient-8);
      }

      .cls-48 {
        fill: url(#linear-gradient-9);
      }

      .cls-49 {
        fill: url(#linear-gradient-10);
      }

      .cls-50 {
        fill: url(#linear-gradient-11);
      }

      .cls-51 {
        fill: url(#linear-gradient-12);
      }
    </style>
    <linearGradient id="linear-gradient" x1="219.25" y1="27.7" x2="219.25" y2="50.82" gradientUnits="userSpaceOnUse">
      <stop offset="0" stop-color="#797d7e"/>
      <stop offset="0.06" stop-color="#979a9b"/>
      <stop offset="0.15" stop-color="#bcbebf"/>
      <stop offset="0.24" stop-color="#d9dbdb"/>
      <stop offset="0.33" stop-color="#eeefef"/>
      <stop offset="0.42" stop-color="#fbfbfb"/>
      <stop offset="0.5" stop-color="#fff"/>
    </linearGradient>
    <linearGradient id="linear-gradient-2" x1="219.17" y1="40.7" x2="219.17" y2="50.82" gradientUnits="userSpaceOnUse">
      <stop offset="0" stop-color="#eef0f0"/>
      <stop offset="1" stop-color="#cccfd0"/>
    </linearGradient>
    <clipPath id="clip-path">
      <rect transform="translate(-158.73 -155.03)" class="cls-1" x="360.87" y="152.45" width="34.07" height="20.77"/>
    </clipPath>
    <linearGradient id="linear-gradient-3" x1="-60.64" y1="351.09" x2="-41.84" y2="351.09" gradientTransform="translate(499.31 -6.95) rotate(45.85)" gradientUnits="userSpaceOnUse">
      <stop offset="0" stop-color="#5fb749"/>
      <stop offset="1" stop-color="#dbf1c6"/>
    </linearGradient>
    <linearGradient id="linear-gradient-4" x1="-60.31" y1="351.09" x2="-42.36" y2="351.09" gradientTransform="translate(499.31 -6.95) rotate(45.85)" gradientUnits="userSpaceOnUse">
      <stop offset="0" stop-color="#dbf1c6"/>
      <stop offset="1" stop-color="#5fb749"/>
    </linearGradient>
    <linearGradient id="linear-gradient-5" x1="-48.42" y1="362.96" x2="-29.61" y2="362.96" xlink:href="#linear-gradient-3"/>
    <linearGradient id="linear-gradient-6" x1="-48.08" y1="362.96" x2="-30.14" y2="362.96" xlink:href="#linear-gradient-4"/>
    <linearGradient id="linear-gradient-7" x1="240.69" y1="195.08" x2="241.49" y2="195.08" gradientTransform="translate(41.34 -58.89) rotate(15.97)" gradientUnits="userSpaceOnUse">
      <stop offset="0" stop-color="#565656"/>
      <stop offset="0.05" stop-color="#606060"/>
      <stop offset="0.12" stop-color="#7c7c7c"/>
      <stop offset="0.23" stop-color="#a8a8a8"/>
      <stop offset="0.31" stop-color="#d4d4d4"/>
      <stop offset="0.54" stop-color="#909090"/>
      <stop offset="0.71" stop-color="#666"/>
      <stop offset="0.8" stop-color="#565656"/>
      <stop offset="1" stop-color="#b3b3b3"/>
    </linearGradient>
    <radialGradient id="radial-gradient" cx="239.07" cy="191.53" r="4" gradientTransform="translate(41.34 -58.89) rotate(15.97)" gradientUnits="userSpaceOnUse">
      <stop offset="0" stop-color="#fc9171"/>
      <stop offset="0.16" stop-color="#f97158"/>
      <stop offset="0.43" stop-color="#f54133"/>
      <stop offset="0.68" stop-color="#f21d18"/>
      <stop offset="0.87" stop-color="#f10807"/>
      <stop offset="1" stop-color="#f00001"/>
    </radialGradient>
    <linearGradient id="linear-gradient-8" x1="242" y1="189.84" x2="244.82" y2="191.87" gradientTransform="translate(41.34 -58.89) rotate(15.97)" gradientUnits="userSpaceOnUse">
      <stop offset="0.29" stop-color="#a30000"/>
      <stop offset="0.44" stop-color="#b21510"/>
      <stop offset="0.76" stop-color="#da4d38"/>
      <stop offset="1" stop-color="#fb7b5a"/>
    </linearGradient>
    <linearGradient id="linear-gradient-9" x1="238.89" y1="188.24" x2="243.38" y2="188.61" gradientTransform="translate(41.34 -58.89) rotate(15.97)" gradientUnits="userSpaceOnUse">
      <stop offset="0.01" stop-color="#f00001"/>
      <stop offset="0.05" stop-color="#f10706"/>
      <stop offset="0.12" stop-color="#f21c15"/>
      <stop offset="0.2" stop-color="#f53d2d"/>
      <stop offset="0.28" stop-color="#fa6b4f"/>
      <stop offset="0.31" stop-color="#fb7b5a"/>
      <stop offset="0.37" stop-color="#f95e45"/>
      <stop offset="0.45" stop-color="#f63c2d"/>
      <stop offset="0.53" stop-color="#f42219"/>
      <stop offset="0.62" stop-color="#f30f0c"/>
      <stop offset="0.7" stop-color="#f20404"/>
      <stop offset="0.8" stop-color="#f20001"/>
      <stop offset="1" stop-color="#bd0001"/>
    </linearGradient>
    <linearGradient id="linear-gradient-10" x1="239.07" y1="187.48" x2="243.42" y2="187.48" gradientTransform="translate(41.34 -58.89) rotate(15.97)" gradientUnits="userSpaceOnUse">
      <stop offset="0" stop-color="#a30000"/>
      <stop offset="1" stop-color="#fb7b5a"/>
    </linearGradient>
    <linearGradient id="linear-gradient-11" x1="238.14" y1="185.48" x2="244.05" y2="185.48" gradientTransform="translate(41.34 -58.89) rotate(15.97)" gradientUnits="userSpaceOnUse">
      <stop offset="0.01" stop-color="#ab0000"/>
      <stop offset="0.13" stop-color="#fe0f08"/>
      <stop offset="0.18" stop-color="#fe120a"/>
      <stop offset="0.21" stop-color="#fe1b11"/>
      <stop offset="0.24" stop-color="#fd2b1e"/>
      <stop offset="0.27" stop-color="#fd422f"/>
      <stop offset="0.29" stop-color="#fc5f45"/>
      <stop offset="0.31" stop-color="#fb7b5a"/>
      <stop offset="0.35" stop-color="#fb6c4e"/>
      <stop offset="0.42" stop-color="#fc4e37"/>
      <stop offset="0.5" stop-color="#fd3725"/>
      <stop offset="0.58" stop-color="#fe2718"/>
      <stop offset="0.67" stop-color="#fe1d10"/>
      <stop offset="0.8" stop-color="#fe1a0e"/>
      <stop offset="1" stop-color="#ab0000"/>
    </linearGradient>
    <linearGradient id="linear-gradient-12" x1="241.1" y1="182.12" x2="241.1" y2="186.05" gradientTransform="translate(41.34 -58.89) rotate(15.97)" gradientUnits="userSpaceOnUse">
      <stop offset="0" stop-color="#fc3c24"/>
      <stop offset="1" stop-color="#f00001"/>
    </linearGradient>
  </defs>
  <g class="cls-2">
    <g id="Layer_2" data-name="Layer 2">
      <g>
        <path class="cls-3" d="M420.45,188.25l-2.21-2.48c4.14-1.27,7.13-.3,9.54.48,1.79.58,3.08,1,4.86.61A5,5,0,0,0,435.8,185c.94-1,2-2.22,5.62-2.57l1.75,2.58c-2.85.27-3.61,1.1-4.48,2.06a6.6,6.6,0,0,1-4,2.34,12.4,12.4,0,0,1-6.69-.78A10.94,10.94,0,0,0,420.45,188.25Z" transform="translate(-158.73 -155.03)"/>
        <path class="cls-3" d="M424.77,190.62l-2.21-2.49a14.43,14.43,0,0,1,9.54.48c1.79.58,3.08,1,4.86.62a5.08,5.08,0,0,0,3.16-1.88c.95-1,2-2.22,5.62-2.57l1.76,2.58c-2.86.27-3.61,1.1-4.49,2.06a6.55,6.55,0,0,1-4,2.34,12.32,12.32,0,0,1-6.69-.78A10.89,10.89,0,0,0,424.77,190.62Z" transform="translate(-158.73 -155.03)"/>
        <path class="cls-3" d="M423.82,193.25l-2.22-2.48a14.34,14.34,0,0,1,9.55.48c1.78.58,3.08,1,4.85.61a5.05,5.05,0,0,0,3.16-1.88c.95-1,2-2.21,5.62-2.56l1.76,2.57c-2.86.28-3.61,1.1-4.49,2.07a6.55,6.55,0,0,1-4,2.33,12.25,12.25,0,0,1-6.7-.78A10.92,10.92,0,0,0,423.82,193.25Z" transform="translate(-158.73 -155.03)"/>
        <path class="cls-3" d="M428.21,195.59,426,193.1a14.43,14.43,0,0,1,9.54.48c1.79.58,3.08,1,4.86.62a5.08,5.08,0,0,0,3.16-1.88c.94-1,2-2.22,5.62-2.56l1.75,2.57c-2.85.27-3.61,1.1-4.48,2.06a6.55,6.55,0,0,1-4,2.34,12.23,12.23,0,0,1-6.69-.78A10.89,10.89,0,0,0,428.21,195.59Z" transform="translate(-158.73 -155.03)"/>
        <path class="cls-3" d="M421.13,185.54l-2.22-2.49c4.14-1.27,7.14-.3,9.55.48a8.47,8.47,0,0,0,4.85.62,5.05,5.05,0,0,0,3.16-1.88c.94-1,2-2.22,5.62-2.56l1.76,2.57c-2.86.27-3.62,1.11-4.49,2.06a6.55,6.55,0,0,1-4,2.34,12.23,12.23,0,0,1-6.69-.78A10.87,10.87,0,0,0,421.13,185.54Z" transform="translate(-158.73 -155.03)"/>
        <polygon points="262.54 28.29 265.56 28.02 266.87 28.72 264.9 28.6 262.54 28.29"/>
        <polygon points="270.26 29.82 273.48 31.04 275.56 30.38 272.92 30.04 270.26 29.82"/>
        <polygon points="271.52 33.7 269.25 33.59 268.33 34.22 270.63 33.98 273.58 35.16 275.43 35.14 272.88 34.14 271.52 33.7"/>
        <path d="M443.63,188.48c-.57.06-2,.4-2,.4l-1.13,1.84L442,189.6l2.47-.34Z" transform="translate(-158.73 -155.03)"/>
        <polygon points="286.07 37.98 285.03 39.3 282.64 40.05 283.98 40.62 285.94 39.82 286.07 37.98"/>
        <polygon points="276.1 39.21 273.79 38.5 272.02 38.94 274.13 39.08 276.1 39.21"/>
        <polygon points="268.43 36.35 267.12 36.58 268.95 36.68 268.43 36.35"/>
        <polygon class="cls-4" points="279.12 28.46 277.49 28.91 275.56 30.38 278.21 29.8 279.12 28.46"/>
        <polygon class="cls-4" points="281.2 36.42 279.05 37.47 278.82 38.1 280.88 37.57 281.2 36.42"/>
        <polygon class="cls-4" points="290.38 35.75 287.98 36.63 287.8 37.8 289.79 36.87 290.38 35.75"/>
        <polygon class="cls-4" points="266.98 35.63 265.36 37.01 264.77 36.14 266.98 35.63"/>
        <polygon class="cls-5" points="276.79 32.66 273.84 32.41 275.44 33.15 276.79 32.66"/>
        <path class="cls-5" d="M438.41,195l-2.75-.63s1.42,1,1.82,1.17a20.37,20.37,0,0,0,2.78.36Z" transform="translate(-158.73 -155.03)"/>
        <polygon class="cls-5" points="267.94 32.97 265.52 33.05 266.46 34.37 267.94 32.97"/>
        <path class="cls-5" d="M441.22,180.87,438.5,182s-1.09,1.58-.65,1.51a16.12,16.12,0,0,0,2.32-1.29Z" transform="translate(-158.73 -155.03)"/>
      </g>
      <g>
        <g>
          <path class="cls-6" d="M399,183.1a1.23,1.23,0,0,0-1.24-1.32H358a1.24,1.24,0,0,0-1.25,1.32L358,205.78a1.42,1.42,0,0,0,1.4,1.32h37a1.42,1.42,0,0,0,1.4-1.32Z" transform="translate(-158.73 -155.03)"/>
          <polygon class="cls-7" points="200.56 50.82 199.25 27.7 239.25 27.7 237.77 50.82 200.56 50.82"/>
          <polygon class="cls-8" points="200.7 50.82 203.12 40.7 235.38 40.7 237.63 50.82 200.7 50.82"/>
          <path class="cls-9" d="M399,181.45a1.23,1.23,0,0,0-1.24-1.32H358a1.24,1.24,0,0,0-1.25,1.32L358,205.78a1.42,1.42,0,0,0,1.4,1.32h37a1.42,1.42,0,0,0,1.4-1.32Z" transform="translate(-158.73 -155.03)"/>
        </g>
        <polygon class="cls-10" points="196.37 23.12 196.97 26.75 241.36 26.75 241.96 23.12 196.37 23.12"/>
        <g>
          <path class="cls-11" d="M397,168.36a1.59,1.59,0,0,0-1.37-.93H360.2a1.59,1.59,0,0,0-1.37.93L355,177.88a.63.63,0,0,0,.63.93h44.45a.63.63,0,0,0,.63-.93Z" transform="translate(-158.73 -155.03)"/>
          <path class="cls-9" d="M397,168.36a1.59,1.59,0,0,0-1.37-.93H360.2a1.59,1.59,0,0,0-1.37.93L355,177.88a.63.63,0,0,0,.63.93h44.45a.63.63,0,0,0,.63-.93Z" transform="translate(-158.73 -155.03)"/>
        </g>
        <polygon class="cls-12" points="202.03 17.35 201.44 18.82 236.89 18.82 236.3 17.35 202.03 17.35"/>
        <g>
          <path class="cls-3" d="M375.45,196.55l1.88,1.77c1.59-1.84,2.33-7.56,2.33-15.59H376.3C376.3,190.93,376.29,195.58,375.45,196.55Z" transform="translate(-158.73 -155.03)"/>
          <path class="cls-3" d="M370.48,196.28l1.22,2.31c3.39-2,4.28-8.77,4.28-15.86h-3.36C372.62,185.74,373,194.81,370.48,196.28Z" transform="translate(-158.73 -155.03)"/>
          <path class="cls-3" d="M365.44,196.19l.87,2.49c5.65-2.16,6.07-11.46,6.07-16H369C369,186.32,369.43,194.67,365.44,196.19Z" transform="translate(-158.73 -155.03)"/>
          <path class="cls-3" d="M360.36,196.16l.66,2.55c7.37-2.11,7.8-11.81,7.8-16h-3.36C365.46,186.59,365.86,194.59,360.36,196.16Z" transform="translate(-158.73 -155.03)"/>
          <path class="cls-3" d="M385.33,196.28l-1.22,2.31c-3.39-2-4.28-8.77-4.28-15.86h3.36C383.19,185.74,382.78,194.81,385.33,196.28Z" transform="translate(-158.73 -155.03)"/>
          <path class="cls-3" d="M390.37,196.19l-.86,2.49c-5.65-2.16-6.08-11.46-6.08-16h3.36C386.79,186.32,386.39,194.67,390.37,196.19Z" transform="translate(-158.73 -155.03)"/>
          <path class="cls-3" d="M395.46,196.16l-.67,2.55c-7.37-2.11-7.79-11.81-7.79-16h3.36C390.36,186.59,390,194.59,395.46,196.16Z" transform="translate(-158.73 -155.03)"/>
        </g>
        <path class="cls-13" d="M379.63,176.26c0,.53-.78,1-1.73,1s-1.74-.43-1.74-1,.78-1,1.74-1S379.63,175.72,379.63,176.26Z" transform="translate(-158.73 -155.03)"/>
        <path class="cls-14" d="M379.63,175.79c0,.53-.78,1-1.73,1s-1.74-.44-1.74-1,.78-1,1.74-1S379.63,175.26,379.63,175.79Z" transform="translate(-158.73 -155.03)"/>
        <g class="cls-15">
          <rect class="cls-16" x="202.92" y="0.25" width="32.48" height="35.87"/>
          <rect class="cls-17" x="204.45" y="1.78" width="29.42" height="32.81"/>
          <g>
            <path class="cls-18" d="M367.9,156.81h21a48.66,48.66,0,0,0-5.43.76,34.55,34.55,0,0,0-10,0C371.76,157.15,369.74,157.07,367.9,156.81Z" transform="translate(-158.73 -155.03)"/>
            <path class="cls-4" d="M365.62,157.47c1.84-.22,3.2,1,4.24,1.95a3.94,3.94,0,0,0-.66,1.74c.08.32.24-.1.44,0-.19.17,0,.68-.44.65A7.45,7.45,0,0,0,365.62,157.47Z" transform="translate(-158.73 -155.03)"/>
            <path class="cls-19" d="M367.36,157.47c1.59-.29,3.29.25,4.89.32-.56.5-2.05.64-2,1.41C369.53,158.84,368.73,157.58,367.36,157.47Z" transform="translate(-158.73 -155.03)"/>
            <path class="cls-20" d="M378.87,160.18a8.62,8.62,0,0,0,.11,2.93A3.3,3.3,0,0,1,378.87,160.18Z" transform="translate(-158.73 -155.03)"/>
            <path class="cls-20" d="M377.35,165.07c-.27.1-1,0-1.09-.22-.89,1.69-4.37,1.71-4.77-.43-.44,0-.76.18-1.2.21C371.87,163.07,376,163.85,377.35,165.07Zm-1.73-.44c-.63.44-1.51,1.12-2.5.55-.29-.22-.24-.78-.66-.87H372C372,166.17,375.32,166.32,375.62,164.63Z" transform="translate(-158.73 -155.03)"/>
            <path class="cls-20" d="M386.48,164.52c-.32.31-.77-.16-1.2-.1-.43,2-3.92,2.23-4.78.43,0,.28-.56.13-1.08.33C380.64,163.7,384.71,163.24,386.48,164.52Zm-2.39-.21a1.43,1.43,0,0,1-1.2,1.09c-.83.08-1.19-.6-1.85-.77.42,1.62,3.5,1.53,3.7-.21A.87.87,0,0,0,384.09,164.31Z" transform="translate(-158.73 -155.03)"/>
            <path class="cls-5" d="M372,164.31h.43c.42.09.37.65.66.87,1,.57,1.87-.11,2.5-.55C375.32,166.32,372,166.17,372,164.31Z" transform="translate(-158.73 -155.03)"/>
            <path class="cls-5" d="M384.74,164.42c-.2,1.74-3.28,1.83-3.7.21.66.17,1,.85,1.85.77a1.43,1.43,0,0,0,1.2-1.09A.87.87,0,0,1,384.74,164.42Z" transform="translate(-158.73 -155.03)"/>
            <path class="cls-20" d="M379.42,166.15c.35.68-.82.5-1,1,1.11.3,2.34.48,2.71,1.52-1.27-1.28-4.36-1.21-5.64,0,.42-1,1.62-1.2,2.71-1.52-.12-.42-.78-.3-1-.65v-.33A4.59,4.59,0,0,1,379.42,166.15Zm-1.2.55c.19-.59-.37-.43-.76-.43C377.52,166.61,378,166.56,378.22,166.7Zm.22,0a1.06,1.06,0,0,0,.87-.43h-.87Z" transform="translate(-158.73 -155.03)"/>
            <path class="cls-4" d="M377.46,166.27c.39,0,1-.16.76.43C378,166.56,377.52,166.61,377.46,166.27Z" transform="translate(-158.73 -155.03)"/>
            <path class="cls-4" d="M378.44,166.27h.87a1.06,1.06,0,0,1-.87.43Z" transform="translate(-158.73 -155.03)"/>
            <path class="cls-20" d="M373.33,166.92c.15-.25.76,0,1.09-.11C374.27,167.05,373.66,166.85,373.33,166.92Z" transform="translate(-158.73 -155.03)"/>
            <path class="cls-20" d="M382.35,166.92c.22-.25.9,0,1.3-.11C383.43,167.06,382.75,166.85,382.35,166.92Z" transform="translate(-158.73 -155.03)"/>
            <path class="cls-20" d="M376.26,167a10.13,10.13,0,0,1-2.82.87A5.73,5.73,0,0,1,376.26,167Z" transform="translate(-158.73 -155.03)"/>
            <path class="cls-20" d="M379.63,171.48a8.34,8.34,0,0,1-2.28.11c-.7-.1,1.07-.06,1.52-.22S379.26,171.56,379.63,171.48Z" transform="translate(-158.73 -155.03)"/>
            <path class="cls-19" d="M374.31,181.8a4.28,4.28,0,0,0-1.3,2.5C372,183.85,373,181.53,374.31,181.8Z" transform="translate(-158.73 -155.03)"/>
            <path class="cls-19" d="M382.46,181.91c0-.11.13-.09.22-.11a1.75,1.75,0,0,1,.86.32c.51.45.92,1.81.22,2.18C383.42,183.78,383.33,182.24,382.46,181.91Z" transform="translate(-158.73 -155.03)"/>
            <path class="cls-19" d="M389.74,182.23c.45-.32,1.18.94.43,1.2C390,183.11,390.09,182.42,389.74,182.23Z" transform="translate(-158.73 -155.03)"/>
            <path class="cls-18" d="M365.62,156.81c-.23.21-.8.07-1,.33,1.78,1.35,4.25,2.89,4.35,5.65.05,1.38-.77,2.69-.55,4.45,0,.46.46-.07.55.22a2,2,0,0,0,.76,1.85c.23.05.21-.16.22-.33a16.19,16.19,0,0,1,1.52,1.09c0,2.35-1.23,3.48-1.63,5.43-3-1.47-5.39,1.88-3.7,4.45-.76,1-1.86,1.62-2.39,2.83.29.06.93-.45,1.31-.66-.16.8-1,2.78-.22,3.92.3-.06.2-.53.32-.76.39,1,.71,2,1.64,2.49.25-.09,0-.56-.11-.65,1.11.81,2.34,2.43,4.67,2.39.1-.21-.54-.61-.87-.76,1.27.09,3.21,1.17,4.89.55a1.66,1.66,0,0,0-.87-.33,13.36,13.36,0,0,0,7.17-2c-.08-.24-.61,0-.87-.1.68-.23,1.43-.38,2.06-.66a31.52,31.52,0,0,0-4-.76c0-.15.28-.09.44-.1-.19-.43-.84-.4-1.41-.44a2,2,0,0,0,.43-1.41,3.09,3.09,0,0,1,.22,1.08c1.57,1.1,4.24,0,5.87-.21,2.31-.33,6.6.67,6.62-1.52,0-.81-.75-1.16-1.52-1.42.54-.95,1.61-2,1.63-3.47a2.87,2.87,0,0,0-4.24-2.5c-.46-1.89-1.67-3-1.63-5.43.47-.32,1.25-1.36,1.63-.76a2.08,2.08,0,0,0,.87-2c.21-.1.37.33.43,0,.46-1.73-.58-3.13-.54-4.56.09-2.71,2.69-4.19,4.35-5.65-.11-.25-.5-.22-.87-.22v-.11h1v32.81H363.67V156.81Z" transform="translate(-158.73 -155.03)"/>
            <path class="cls-19" d="M384.52,157.9a22.5,22.5,0,0,1,4.78-.55,6,6,0,0,0-2.71,2C386.53,158.6,385.34,158.2,384.52,157.9Z" transform="translate(-158.73 -155.03)"/>
            <path class="cls-4" d="M387,161.16c.06-.32.17.17.33.11.34-.53-.17-1.26-.44-1.85a6,6,0,0,1,4.13-2.07,8.89,8.89,0,0,0-3.58,4.57C387.24,161.74,387.28,161.3,387,161.16Z" transform="translate(-158.73 -155.03)"/>
            <path class="cls-19" d="M385.5,158.88a14.16,14.16,0,0,1,1.3,1c0,.23-.31,0-.32-.1-.25.22.5.36.43.76-.22,0-.21-.3-.43-.33a22.77,22.77,0,0,1,1.41,6.74c-.64.16-.31,1.28-.65,1.73-.27-.1.15-.41,0-.76-.45.53-.8,1.16-1.52,1.42.18-.29.46-.49.65-.76a14.35,14.35,0,0,1-7.06,2.6,9.8,9.8,0,0,0,5.54-1.19c0,3.54,3.38,7.78.54,11,.07.24.36-.21.44-.33.34.18-.23.35-.22.55a5.39,5.39,0,0,0,1.41-5.33c3.7-1.46,4.3,3.58,2.18,5.11-.51,0-.7-.21-1.09,0,.11.18.46.12.65.22-.22.25-.9,0-1.3.11,1.26.29,2.57.54,2.28,2.39a3.9,3.9,0,0,1-1.2.21c-.09-1.14-.32-2.14-1.41-2.28a2,2,0,0,1,1.08,2.39c-1.15.14-2.61.21-3.58.22.13-1.8-.64-2.69-2.06-2.93-.08-.9-.29-1.67-.33-2.61.35-.66,1-1,1-2.06a5.57,5.57,0,0,1-.87,1.3c-.15,0-.09-.27-.11-.44a6.78,6.78,0,0,0-.22,3.91,3.26,3.26,0,0,0-1.41,1.09c.53-.12.9-.41,1.41-.54a2.84,2.84,0,0,1,1.2,2.39,1.16,1.16,0,0,1-1,.32,2.19,2.19,0,0,0-1-2.17,2.15,2.15,0,0,1,.44,2.06,5.29,5.29,0,0,1-2.72-.1c-.3-2.31-.26-5-.76-7.07a66.58,66.58,0,0,1-.54,7.17,8.28,8.28,0,0,1-2.72,0,2.29,2.29,0,0,1,.44-1.95,1.89,1.89,0,0,0-.87,2.06c-.5.1-.62-.18-1-.21,0-1.2.35-2.12,1.2-2.5a6.16,6.16,0,0,1,1.19.54c0-.37-.75-.91-1.3-1.09a7.31,7.31,0,0,0-.11-4c-.24,0,0,.39-.11.55-.29-.4-.73-.64-.76-1.3a1.76,1.76,0,0,0,.87,1.95,18.4,18.4,0,0,1-.44,2.72,2.32,2.32,0,0,0-1.95,2.93,15.11,15.11,0,0,1-3.7-.33c0-1.15.21-2,1.2-2.17-1-.24-1.42,1-1.41,2.17a3.9,3.9,0,0,1-1.2-.21c-.42-1.54.79-2.31,2.28-2.29-.22-.24-.9,0-1.3-.1,0-.24.27-.24.54-.22-.13-.46-.58,0-1-.11-2.2-1.56-1.61-6.51,2.17-5.11a5.5,5.5,0,0,0,1.3,5.33c.24-.08-.21-.36-.32-.44.09-.29.24.25.43.22a7.43,7.43,0,0,1-1-4.13c.23-2.45,1.92-4.16,1.74-6.84a10.89,10.89,0,0,0,5.43,1.3c-2.53-.65-5.27-1.1-6.84-2.71-.12.12.32.61.54.76-.47-.08-1.18-.85-1.52-1.42-.29.1.15.34,0,.66-.4-.38-.2-1.75-.65-1.74a17.62,17.62,0,0,1,1.41-6.52c0-.23-.33.15-.43.22-.12-.09.2-.67.54-.66-.69,0,.34-.79.87-.86-.11-.31-.46,0-.65,0,3.94-1.72,11.42-1.55,15.53-.11C386,159.21,385.78,158.76,385.5,158.88ZM379,163.11a8.62,8.62,0,0,1-.11-2.93A3.3,3.3,0,0,0,379,163.11Zm-1.08-.43c-.43.86.12.25.21-.44a2.87,2.87,0,0,0-.32-2A11.42,11.42,0,0,1,377.9,162.68Zm-7.61,1.95c.44,0,.76-.18,1.2-.21.4,2.14,3.88,2.12,4.77.43.09.23.82.32,1.09.22C376,163.85,371.87,163.07,370.29,164.63Zm9.13.55c.52-.2,1.08-.05,1.08-.33.86,1.8,4.35,1.61,4.78-.43.43-.06.88.41,1.2.1C384.71,163.24,380.64,163.7,379.42,165.18Zm-2.18,1v.33c.2.35.86.23,1,.65-1.09.32-2.29.53-2.71,1.52,1.28-1.21,4.37-1.28,5.64,0-.37-1-1.6-1.22-2.71-1.52.16-.48,1.33-.3,1-1A4.59,4.59,0,0,0,377.24,166.15Zm6.41.22c-.72.34-1.8-.13-2.17-.1C381.94,166.51,383.15,166.85,383.65,166.37Zm-10.75,0a2.17,2.17,0,0,0,2.17-.1A4.58,4.58,0,0,1,372.9,166.37Zm1.52.44c-.33.07-.94-.14-1.09.11C373.66,166.85,374.27,167.05,374.42,166.81Zm9.23,0c-.4.07-1.08-.14-1.3.11C382.75,166.85,383.43,167.06,383.65,166.81Zm-10.21,1.08a10.13,10.13,0,0,0,2.82-.87A5.73,5.73,0,0,0,373.44,167.89Zm9.89,0c.29,0,.15,0-.11-.1a4.6,4.6,0,0,0-2.82-.66A29.48,29.48,0,0,0,383.33,167.89Zm-10,1.42c.82-.71,1.92-1.13,2.72-1.85A5,5,0,0,0,373.33,169.31Zm10.21-.11c-.91-.5-1.72-1.68-2.82-1.63C381.68,168,382.66,169,383.54,169.2Zm-6.08.54c.41,0,.92-.38.76-.54C378,169.45,377.66,169.51,377.46,169.74Zm1.85,0c-.32-.05-.69-.6-.87-.43C378.6,169.51,379,170.06,379.31,169.74Zm-1.41.43c.3-.35.67-.08,1.08,0C379,169.6,377.54,169.85,377.9,170.17Zm1,1.2c-.45.16-2.22.12-1.52.22a8.34,8.34,0,0,0,2.28-.11C379.26,171.56,379.22,171.32,378.87,171.37Z" transform="translate(-158.73 -155.03)"/>
            <path class="cls-20" d="M365.62,156.81h2.28c1.84.26,3.86.34,5.54.76a34.55,34.55,0,0,1,10,0,48.66,48.66,0,0,1,5.43-.76h2.28v.11c.37,0,.76,0,.87.22-1.66,1.46-4.26,2.94-4.35,5.65,0,1.43,1,2.83.54,4.56-.06.33-.22-.1-.43,0a2.08,2.08,0,0,1-.87,2c-.38-.6-1.16.44-1.63.76,0,2.39,1.17,3.54,1.63,5.43a2.87,2.87,0,0,1,4.24,2.5c0,1.49-1.09,2.52-1.63,3.47.77.26,1.53.61,1.52,1.42,0,2.19-4.31,1.19-6.62,1.52-1.63.23-4.3,1.31-5.87.21a3.09,3.09,0,0,0-.22-1.08,2,2,0,0,1-.43,1.41c.57,0,1.22,0,1.41.44-.16,0-.4,0-.44.1a31.52,31.52,0,0,1,4,.76c-.63.28-1.38.43-2.06.66.26.06.79-.14.87.1a13.36,13.36,0,0,1-7.17,2,1.66,1.66,0,0,1,.87.33c-1.68.62-3.62-.46-4.89-.55.33.15,1,.55.87.76-2.33,0-3.56-1.58-4.67-2.39.1.09.36.56.11.65-.93-.45-1.25-1.5-1.64-2.49-.12.23,0,.7-.32.76-.81-1.14.06-3.12.22-3.92-.38.21-1,.72-1.31.66.53-1.21,1.63-1.85,2.39-2.83-1.69-2.57.71-5.92,3.7-4.45.4-1.95,1.63-3.08,1.63-5.43A16.19,16.19,0,0,0,370,169c0,.17,0,.38-.22.33a2,2,0,0,1-.76-1.85c-.09-.29-.51.24-.55-.22-.22-1.76.6-3.07.55-4.45-.1-2.76-2.57-4.3-4.35-5.65C364.82,156.88,365.39,157,365.62,156.81Zm20.53,2.07c-4.11-1.44-11.59-1.61-15.53.11.19,0,.54-.31.65,0-.53.07-1.56.88-.87.86-.34,0-.66.57-.54.66.1-.07.4-.45.43-.22a17.62,17.62,0,0,0-1.41,6.52c.45,0,.25,1.36.65,1.74.15-.32-.29-.56,0-.66.34.57,1.05,1.34,1.52,1.42-.22-.15-.66-.64-.54-.76,1.57,1.61,4.31,2.06,6.84,2.71a10.89,10.89,0,0,1-5.43-1.3c.18,2.68-1.51,4.39-1.74,6.84a7.43,7.43,0,0,0,1,4.13c-.19,0-.34-.51-.43-.22.11.08.56.36.32.44a5.5,5.5,0,0,1-1.3-5.33c-3.78-1.4-4.37,3.55-2.17,5.11.39.07.84-.35,1,.11-.27,0-.52,0-.54.22.4.06,1.08-.14,1.3.1-1.49,0-2.7.75-2.28,2.29a3.9,3.9,0,0,0,1.2.21c0-1.13.4-2.41,1.41-2.17-1,.13-1.23,1-1.2,2.17a15.11,15.11,0,0,0,3.7.33,2.32,2.32,0,0,1,1.95-2.93,18.4,18.4,0,0,0,.44-2.72,1.76,1.76,0,0,1-.87-1.95c0,.66.47.9.76,1.3.06-.16-.13-.56.11-.55a7.31,7.31,0,0,1,.11,4c.55.18,1.3.72,1.3,1.09a6.16,6.16,0,0,0-1.19-.54c-.85.38-1.17,1.3-1.2,2.5.36,0,.48.31,1,.21a1.89,1.89,0,0,1,.87-2.06,2.29,2.29,0,0,0-.44,1.95,8.28,8.28,0,0,0,2.72,0,66.58,66.58,0,0,0,.54-7.17c.5,2.11.46,4.76.76,7.07a5.29,5.29,0,0,0,2.72.1,2.15,2.15,0,0,0-.44-2.06,2.19,2.19,0,0,1,1,2.17,1.16,1.16,0,0,0,1-.32,2.84,2.84,0,0,0-1.2-2.39c-.51.13-.88.42-1.41.54a3.26,3.26,0,0,1,1.41-1.09,6.78,6.78,0,0,1,.22-3.91c0,.17,0,.4.11.44a5.57,5.57,0,0,0,.87-1.3c.06,1.07-.63,1.4-1,2.06,0,.94.25,1.71.33,2.61,1.42.24,2.19,1.13,2.06,2.93,1,0,2.43-.08,3.58-.22a2,2,0,0,0-1.08-2.39c1.09.14,1.32,1.14,1.41,2.28a3.9,3.9,0,0,0,1.2-.21c.29-1.85-1-2.1-2.28-2.39.4-.07,1.08.14,1.3-.11-.19-.1-.54,0-.65-.22.39-.21.58,0,1.09,0,2.12-1.53,1.52-6.57-2.18-5.11a5.39,5.39,0,0,1-1.41,5.33c0-.2.56-.37.22-.55-.08.12-.37.57-.44.33,2.84-3.19-.56-7.43-.54-11a9.8,9.8,0,0,1-5.54,1.19,14.35,14.35,0,0,0,7.06-2.6c-.19.27-.47.47-.65.76.72-.26,1.07-.89,1.52-1.42.15.35-.27.66,0,.76.34-.45,0-1.57.65-1.73a22.77,22.77,0,0,0-1.41-6.74c.22,0,.21.29.43.33.07-.4-.68-.54-.43-.76,0,.08.36.33.32.1a14.16,14.16,0,0,0-1.3-1C385.78,158.76,386,159.21,386.15,158.88Zm-16.95,2.93c.4,0,.25-.48.44-.65-.2-.1-.36.32-.44,0a3.94,3.94,0,0,1,.66-1.74c-1-.95-2.4-2.17-4.24-1.95A7.45,7.45,0,0,1,369.2,161.81Zm1.09-2.61c-.09-.77,1.4-.91,2-1.41-1.6-.07-3.3-.61-4.89-.32C368.73,157.58,369.53,158.84,370.29,159.2Zm16.3.11a6,6,0,0,1,2.71-2,22.5,22.5,0,0,0-4.78.55C385.34,158.2,386.53,158.6,386.59,159.31Zm.87,2.61a8.89,8.89,0,0,1,3.58-4.57,6,6,0,0,0-4.13,2.07c.27.59.78,1.32.44,1.85-.16.06-.27-.43-.33-.11C387.28,161.3,387.24,161.74,387.46,161.92ZM370.29,189a3,3,0,0,1-1-1.52,7.59,7.59,0,0,0,4.35,1.52c-.46-.16-1.24-.57-1.2-.87a10.92,10.92,0,0,0,7.5-.76,2.77,2.77,0,0,1-1.3-.33,18.2,18.2,0,0,0,2.71-.76c-1.5-.34-3.27-.42-4.78-.76.07-.15.42,0,.44-.21-1.25-.09-2.7.2-3.59.11,0-.26.31-.13.33-.33a11.18,11.18,0,0,1-3.15.11c.33-.14.77-.17.87-.55-2-.17-6.17.06-5.76-2.06.14-.74,1-.8,1.63-1.3-.33-.18-.68-.34-.76-.76a4.56,4.56,0,0,0-1.42,1.19,7.38,7.38,0,0,1,1-.22,4,4,0,0,0-1.08,3.15.59.59,0,0,1,.32-.54,5.94,5.94,0,0,0,.76,2.5c.07-.33-.14-.94.11-1.09A6.59,6.59,0,0,0,370.29,189ZM373,184.3a4.28,4.28,0,0,1,1.3-2.5C373,181.53,372,183.85,373,184.3Zm10.75,0c.7-.37.29-1.73-.22-2.18a1.75,1.75,0,0,0-.86-.32c-.09,0-.22,0-.22.11C383.33,182.24,383.42,183.78,383.76,184.3ZM366.16,183c.14.19.23.43.55.44-.17-.64.34-1.17.22-1.41C366.69,182.36,366.19,182.44,366.16,183Zm24,.44c.75-.26,0-1.52-.43-1.2C390.09,182.42,390,183.11,390.17,183.43Zm-17.81,1.41c0-.31.74.09.76-.22C372.77,184.46,372.13,184.56,372.36,184.84Z" transform="translate(-158.73 -155.03)"/>
            <path class="cls-20" d="M377.79,160.29a2.87,2.87,0,0,1,.32,2c-.09.69-.64,1.3-.21.44A11.42,11.42,0,0,0,377.79,160.29Z" transform="translate(-158.73 -155.03)"/>
            <path class="cls-20" d="M381.48,166.27c.37,0,1.45.44,2.17.1C383.15,166.85,381.94,166.51,381.48,166.27Z" transform="translate(-158.73 -155.03)"/>
            <path class="cls-20" d="M375.07,166.27a2.17,2.17,0,0,1-2.17.1A4.58,4.58,0,0,0,375.07,166.27Z" transform="translate(-158.73 -155.03)"/>
            <path class="cls-20" d="M380.4,167.13a4.6,4.6,0,0,1,2.82.66c.26.14.4.12.11.1A29.48,29.48,0,0,1,380.4,167.13Z" transform="translate(-158.73 -155.03)"/>
            <path class="cls-20" d="M376.05,167.46c-.8.72-1.9,1.14-2.72,1.85A5,5,0,0,1,376.05,167.46Z" transform="translate(-158.73 -155.03)"/>
            <path class="cls-20" d="M380.72,167.57c1.1,0,1.91,1.13,2.82,1.63C382.66,169,381.68,168,380.72,167.57Z" transform="translate(-158.73 -155.03)"/>
            <path class="cls-20" d="M378.22,169.2c.16.16-.35.58-.76.54C377.66,169.51,378,169.45,378.22,169.2Z" transform="translate(-158.73 -155.03)"/>
            <path class="cls-20" d="M378.44,169.31c.18-.17.55.38.87.43C379,170.06,378.6,169.51,378.44,169.31Z" transform="translate(-158.73 -155.03)"/>
            <path class="cls-20" d="M379,170.17c-.41-.08-.78-.35-1.08,0C377.54,169.85,379,169.6,379,170.17Z" transform="translate(-158.73 -155.03)"/>
            <path class="cls-19" d="M366.27,185.49c-.25.15,0,.76-.11,1.09a5.94,5.94,0,0,1-.76-2.5.59.59,0,0,0-.32.54,4,4,0,0,1,1.08-3.15,7.38,7.38,0,0,0-1,.22,4.56,4.56,0,0,1,1.42-1.19c.08.42.43.58.76.76-.59.5-1.49.56-1.63,1.3-.41,2.12,3.75,1.89,5.76,2.06-.1.38-.54.41-.87.55a11.18,11.18,0,0,0,3.15-.11c0,.2-.36.07-.33.33.89.09,2.34-.2,3.59-.11,0,.2-.37.06-.44.21,1.51.34,3.28.42,4.78.76a18.2,18.2,0,0,1-2.71.76,2.77,2.77,0,0,0,1.3.33,10.92,10.92,0,0,1-7.5.76c0,.3.74.71,1.2.87a7.59,7.59,0,0,1-4.35-1.52,3,3,0,0,0,1,1.52A6.59,6.59,0,0,1,366.27,185.49Z" transform="translate(-158.73 -155.03)"/>
            <path class="cls-18" d="M366.93,182c.12.24-.39.77-.22,1.41-.32,0-.41-.25-.55-.44C366.19,182.44,366.69,182.36,366.93,182Z" transform="translate(-158.73 -155.03)"/>
            <path class="cls-18" d="M373.12,184.62c0,.31-.75-.09-.76.22C372.13,184.56,372.77,184.46,373.12,184.62Z" transform="translate(-158.73 -155.03)"/>
          </g>
          <rect class="cls-9" x="204.45" y="1.78" width="29.42" height="32.81"/>
        </g>
        <rect x="207.37" y="29.01" width="0.7" height="2.53"/>
        <polygon points="212.17 29.35 211.04 33.02 211.82 34.07 211.82 32.15 212.17 29.35"/>
        <polygon points="214.53 39.14 215.76 35.47 214.79 35.38 214.53 39.14"/>
        <polygon points="214.88 29.44 214.88 31.8 215.58 31.45 215.49 29.7 214.88 29.44"/>
        <path d="M378,188.93c-.44.18-.44,2-.61,2.27a23.84,23.84,0,0,0-.44,3.15l1.23-3.32Z" transform="translate(-158.73 -155.03)"/>
        <polygon points="222.75 31.36 222.13 34.07 222.92 34.77 223.09 36.52 223.36 32.85 222.75 31.36"/>
        <polygon points="226.5 28.57 225.72 30.23 226.24 33.02 226.85 31.19 226.33 29.88 226.5 28.57"/>
        <path d="M390.21,192.6a11.35,11.35,0,0,0,1.31,2,8,8,0,0,1,1.23,1.4l-.7.52-1.31-1.48Z" transform="translate(-158.73 -155.03)"/>
        <path d="M363.65,195.05l-1.74,1.3s-.18.88.08.88,1.58-1.22,1.58-1.22Z" transform="translate(-158.73 -155.03)"/>
      </g>
      <text class="cls-21" transform="translate(204.19 50.12)">dSHA256</text>
      <text class="cls-21" transform="translate(269.56 52.12)">Txid</text>
      <path d="M354.15,186.65a24.39,24.39,0,0,1-2.33-.85v2.9a22.43,22.43,0,0,1,2.33-.87,17.47,17.47,0,0,1,2.53-.6A17,17,0,0,1,354.15,186.65Z" transform="translate(-158.73 -155.03)"/>
      <line class="cls-22" x1="193.72" y1="32.22" x2="175.94" y2="32.22"/>
      <path d="M416.75,186.65a24.39,24.39,0,0,1-2.33-.85v2.9a22.94,22.94,0,0,1,2.32-.87,17.55,17.55,0,0,1,2.54-.6A17,17,0,0,1,416.75,186.65Z" transform="translate(-158.73 -155.03)"/>
      <line class="cls-22" x1="256.31" y1="32.22" x2="240.27" y2="32.22"/>
      <text class="cls-23" transform="translate(75.19 72.45)">The signature<tspan x="0" y="9.5">scripts are empt</tspan><tspan class="cls-24" x="57.85" y="9.5">y</tspan><tspan class="cls-25" x="60.84" y="9.5">.</tspan></text>
      <text class="cls-23" transform="translate(183.61 72.45)">The txid does<tspan class="cls-26" x="46.81" y="0">n</tspan><tspan x="51.14" y="0">’t</tspan><tspan x="0" y="9.5">commit to</tspan><tspan x="0" y="19">signatures.</tspan></text>
      <text class="cls-27" transform="translate(0.19 91.45)"><tspan class="cls-28">W</tspan><tspan x="8.22" y="0">itness</tspan></text>
      <g>
        <rect class="cls-29" x="56.27" y="13.47" width="119.67" height="37.5" rx="2"/>
        <text class="cls-30" transform="translate(88.13 26.59)">0</text>
        <text class="cls-30" transform="translate(116.28 26.59)">100</text>
        <text class="cls-30" transform="translate(142.82 26.59)">PKH<tspan class="cls-31" x="20.7" y="3">D</tspan></text>
        <g>
          <path class="cls-3" d="M220.24,178l-1.7-1.91a11.09,11.09,0,0,1,7.34.37,6.5,6.5,0,0,0,3.74.47,3.86,3.86,0,0,0,2.42-1.44c.73-.8,1.55-1.71,4.33-2l1.35,2c-2.2.21-2.78.84-3.45,1.58a5,5,0,0,1-3.08,1.8,9.46,9.46,0,0,1-5.15-.6A8.44,8.44,0,0,0,220.24,178Z" transform="translate(-158.73 -155.03)"/>
          <path class="cls-3" d="M223.56,179.81l-1.7-1.91a11.08,11.08,0,0,1,7.34.37,6.6,6.6,0,0,0,3.74.47,3.91,3.91,0,0,0,2.43-1.44c.73-.8,1.55-1.71,4.32-2l1.35,2c-2.2.22-2.77.85-3.45,1.59a5,5,0,0,1-3.08,1.8,9.46,9.46,0,0,1-5.15-.6A8.44,8.44,0,0,0,223.56,179.81Z" transform="translate(-158.73 -155.03)"/>
          <path class="cls-3" d="M222.83,181.84l-1.7-1.91a11,11,0,0,1,7.34.37,6.65,6.65,0,0,0,3.73.47,3.87,3.87,0,0,0,2.43-1.45c.73-.8,1.55-1.7,4.32-2l1.36,2a4.32,4.32,0,0,0-3.46,1.59,5,5,0,0,1-3.08,1.8,9.58,9.58,0,0,1-5.15-.6A8.35,8.35,0,0,0,222.83,181.84Z" transform="translate(-158.73 -155.03)"/>
          <path class="cls-3" d="M226.21,183.64l-1.7-1.92a11.09,11.09,0,0,1,7.34.37,6.57,6.57,0,0,0,3.73.48,3.87,3.87,0,0,0,2.43-1.45c.73-.8,1.55-1.7,4.33-2l1.35,2c-2.2.21-2.78.85-3.45,1.59a5,5,0,0,1-3.09,1.79,9.39,9.39,0,0,1-5.15-.6A8.36,8.36,0,0,0,226.21,183.64Z" transform="translate(-158.73 -155.03)"/>
          <path class="cls-3" d="M220.76,175.91,219.05,174a11.12,11.12,0,0,1,7.35.37,6.57,6.57,0,0,0,3.73.48,3.87,3.87,0,0,0,2.43-1.45c.73-.8,1.55-1.7,4.32-2l1.36,2a4.32,4.32,0,0,0-3.45,1.58,5,5,0,0,1-3.09,1.8,9.48,9.48,0,0,1-5.15-.6A8.36,8.36,0,0,0,220.76,175.91Z" transform="translate(-158.73 -155.03)"/>
          <polygon points="62.14 19.17 64.46 18.96 65.47 19.5 63.96 19.4 62.14 19.17"/>
          <polygon points="68.08 20.35 70.55 21.28 72.16 20.78 70.12 20.51 68.08 20.35"/>
          <polygon points="69.05 23.33 67.3 23.24 66.59 23.73 68.36 23.55 70.63 24.45 72.05 24.44 70.09 23.67 69.05 23.33"/>
          <path d="M238.07,178.17c-.44,0-1.57.3-1.57.3l-.87,1.42,1.22-.86,1.9-.26Z" transform="translate(-158.73 -155.03)"/>
          <polygon points="80.24 26.62 79.44 27.64 77.6 28.22 78.63 28.66 80.14 28.04 80.24 26.62"/>
          <polygon points="72.57 27.56 70.79 27.02 69.43 27.36 71.06 27.47 72.57 27.56"/>
          <polygon points="66.67 25.37 65.66 25.55 67.07 25.62 66.67 25.37"/>
          <polygon class="cls-4" points="74.89 19.3 73.64 19.64 72.16 20.78 74.19 20.33 74.89 19.3"/>
          <polygon class="cls-4" points="76.49 25.42 74.84 26.23 74.66 26.71 76.25 26.31 76.49 25.42"/>
          <polygon class="cls-4" points="83.55 24.91 81.7 25.59 81.57 26.49 83.1 25.77 83.55 24.91"/>
          <polygon class="cls-4" points="65.55 24.82 64.3 25.88 63.86 25.21 65.55 24.82"/>
          <polygon class="cls-5" points="73.1 22.53 70.83 22.34 72.06 22.9 73.1 22.53"/>
          <path class="cls-5" d="M234.05,183.16l-2.11-.48s1.09.75,1.4.89a14,14,0,0,0,2.14.28Z" transform="translate(-158.73 -155.03)"/>
          <polygon class="cls-5" points="66.3 22.77 64.43 22.83 65.15 23.84 66.3 22.77"/>
          <path class="cls-5" d="M236.21,172.32l-2.09.85s-.84,1.22-.5,1.16a12.2,12.2,0,0,0,1.79-1Z" transform="translate(-158.73 -155.03)"/>
        </g>
        <g>
          <path class="cls-3" d="M220.24,195.38l-1.7-1.92a11.15,11.15,0,0,1,7.34.37,6.59,6.59,0,0,0,3.74.48,3.87,3.87,0,0,0,2.42-1.45c.73-.8,1.55-1.7,4.33-2l1.35,2c-2.2.21-2.78.85-3.45,1.59a5,5,0,0,1-3.08,1.79,9.46,9.46,0,0,1-5.15-.59A8.38,8.38,0,0,0,220.24,195.38Z" transform="translate(-158.73 -155.03)"/>
          <path class="cls-3" d="M223.56,197.19l-1.7-1.91a11.08,11.08,0,0,1,7.34.37,6.6,6.6,0,0,0,3.74.48,3.87,3.87,0,0,0,2.43-1.45c.73-.8,1.55-1.71,4.32-2l1.35,2a4.34,4.34,0,0,0-3.45,1.58,5,5,0,0,1-3.08,1.8,9.36,9.36,0,0,1-5.15-.6A8.44,8.44,0,0,0,223.56,197.19Z" transform="translate(-158.73 -155.03)"/>
          <path class="cls-3" d="M222.83,199.22l-1.7-1.91a11.09,11.09,0,0,1,7.34.37,6.56,6.56,0,0,0,3.73.47,3.91,3.91,0,0,0,2.43-1.44c.73-.8,1.55-1.71,4.32-2l1.36,2c-2.21.21-2.78.84-3.46,1.58a5,5,0,0,1-3.08,1.8,9.48,9.48,0,0,1-5.15-.6A8.35,8.35,0,0,0,222.83,199.22Z" transform="translate(-158.73 -155.03)"/>
          <path class="cls-3" d="M226.21,201l-1.7-1.91a11.09,11.09,0,0,1,7.34.37,6.56,6.56,0,0,0,3.73.47A3.87,3.87,0,0,0,238,198.5c.73-.8,1.55-1.7,4.33-2l1.35,2c-2.2.21-2.78.85-3.45,1.59a5,5,0,0,1-3.09,1.8,9.48,9.48,0,0,1-5.15-.6A8.35,8.35,0,0,0,226.21,201Z" transform="translate(-158.73 -155.03)"/>
          <path class="cls-3" d="M220.76,193.29l-1.71-1.91a11.12,11.12,0,0,1,7.35.37,6.56,6.56,0,0,0,3.73.47,3.87,3.87,0,0,0,2.43-1.45c.73-.8,1.55-1.7,4.32-2l1.36,2c-2.2.21-2.78.85-3.45,1.59a5,5,0,0,1-3.09,1.8,9.48,9.48,0,0,1-5.15-.6A8.35,8.35,0,0,0,220.76,193.29Z" transform="translate(-158.73 -155.03)"/>
          <polygon points="62.14 36.55 64.46 36.34 65.47 36.88 63.96 36.79 62.14 36.55"/>
          <polygon points="68.08 37.73 70.55 38.67 72.16 38.16 70.12 37.9 68.08 37.73"/>
          <polygon points="69.05 40.72 67.3 40.63 66.59 41.11 68.36 40.93 70.63 41.84 72.05 41.82 70.09 41.05 69.05 40.72"/>
          <path d="M238.07,195.55c-.44,0-1.57.31-1.57.31l-.87,1.42,1.22-.87,1.9-.26Z" transform="translate(-158.73 -155.03)"/>
          <polygon points="80.24 44.01 79.44 45.02 77.6 45.6 78.63 46.04 80.14 45.42 80.24 44.01"/>
          <polygon points="72.57 44.95 70.79 44.41 69.43 44.74 71.06 44.85 72.57 44.95"/>
          <polygon points="66.67 42.75 65.66 42.93 67.07 43.01 66.67 42.75"/>
          <polygon class="cls-4" points="74.89 36.68 73.64 37.03 72.16 38.16 74.19 37.71 74.89 36.68"/>
          <polygon class="cls-4" points="76.49 42.8 74.84 43.61 74.66 44.1 76.25 43.69 76.49 42.8"/>
          <polygon class="cls-4" points="83.55 42.29 81.7 42.97 81.57 43.87 83.1 43.15 83.55 42.29"/>
          <polygon class="cls-4" points="65.55 42.2 64.3 43.26 63.86 42.59 65.55 42.2"/>
          <polygon class="cls-5" points="73.1 39.91 70.83 39.72 72.06 40.29 73.1 39.91"/>
          <path class="cls-5" d="M234.05,200.54l-2.11-.48s1.09.76,1.4.9a15.38,15.38,0,0,0,2.14.28Z" transform="translate(-158.73 -155.03)"/>
          <polygon class="cls-5" points="66.3 40.15 64.43 40.22 65.15 41.23 66.3 40.15"/>
          <path class="cls-5" d="M236.21,189.7l-2.09.85s-.84,1.22-.5,1.16a12.29,12.29,0,0,0,1.79-1Z" transform="translate(-158.73 -155.03)"/>
        </g>
        <line class="cls-32" x1="111.1" y1="13.61" x2="111.1" y2="50.79"/>
        <rect class="cls-33" x="56.27" y="13.47" width="119.67" height="37.5" rx="2"/>
        <text class="cls-30" transform="translate(88.13 43.59)">3</text>
      </g>
      <g>
        <rect class="cls-29" x="16.1" y="35.3" width="49.33" height="37.5"/>
        <path class="cls-34" d="M191.06,201.93c1.5.69,2.73-.56,4-.79.31.35-.05,1.06.13,1.46.91.65,2.68.42,3.35,1.32-.4.32-.94-.2-1.65-.4-1.21-.34-2.54-.13-2.09-1.92-1.08.51-2.91,1.47-4.17.6a10.14,10.14,0,0,1-1.27.66,35.47,35.47,0,0,0-1.33,3.38c-.88-.32-.91-1.53-2-1.66a2.94,2.94,0,0,0-.32,1c.24.06.51-.74.88-.54,0,.51-.53.94-1,1.13-.52-.33-.12-1.08,0-1.66a6.35,6.35,0,0,1-4,1.26,3.62,3.62,0,0,1-1.84-.53c-1.14-.86-.84-3.11-.06-4.17a4.86,4.86,0,0,1,2.91-1.65,14.83,14.83,0,0,0,.83-2c.36,0,.45-.09.57-.46,1.87-.73,4-1.16,5.57-2.25-1.94.36-4.08,1-6.08,1.59a4.35,4.35,0,0,1-1.9.39c.07-.39.6-.44.89-.52,1-.31,2.12-.62,3.23-.93a12.54,12.54,0,0,1,4.43-.86c0,.69-.69.89-1.14,1.12-1.38.72-3.27,1.23-4.81,1.86a5.43,5.43,0,0,0,1.39,1.92,10.82,10.82,0,0,1,2.22.26c.75-.91,1.38-2.14,2.09-3.18.19-.28.45-.75.82-.72-.12.77-.76,1.32-1.2,2s-.81,1.38-1.2,2.05c.46.33,1.23.35,1.39,1-.57.12-1-.5-1.52-.6a17.41,17.41,0,0,0-1.84,3.57,14.07,14.07,0,0,0,2.73-1.05,6.76,6.76,0,0,0,.94-2.52c.17-2.08,1.44-3.29,2.67-4.37a3.21,3.21,0,0,1,.38-.79c.24-.06.22.16.37.2a9.57,9.57,0,0,1,5.83-1.4c.39,0,1.28.15,1.27.67,0,.83-1.35,1.8-2,2.31A72.24,72.24,0,0,1,191.06,201.93Zm6.65-7.74c-1.74.14-3.83.7-4.75,1.78a15.18,15.18,0,0,0-1.27,2.45c-.47.88-1.63,2.27-1,3.25a67.23,67.23,0,0,0,7.47-5.1,5.72,5.72,0,0,0,2-2.25A5.43,5.43,0,0,0,197.71,194.19Zm-7.16,5.56c.39-1,1.14-1.95,1.4-2.85A5.41,5.41,0,0,0,190.55,199.75Zm-7.41-.4c.56-.12,1.3,0,1.84-.2a8.93,8.93,0,0,1-1.2-1.52C183.61,198.26,183.33,198.76,183.14,199.35Zm-.12.4a7.12,7.12,0,0,0-.51,1.65c-.14.54-.18,1.29-.64,1.53-.16-.91.41-2.11.64-3.05a3.6,3.6,0,0,0-3.11,3.58c0,1.42,1.11,1.93,2.6,1.92,3.16,0,5.47-2.86,3.36-5.7A11.81,11.81,0,0,0,183,199.75Zm3.6,2.38c.34-.75.72-1.46,1.08-2.18a14.36,14.36,0,0,0-1.83-.27A6.72,6.72,0,0,1,186.62,202.13Zm3.11.07a2.72,2.72,0,0,0,.57-.27c0-.19,0-.46-.19-.53C190,201.69,189.84,201.92,189.73,202.2Zm-3.48,2.05c.84.15,1.14.88,1.64,1.39a6.69,6.69,0,0,1,.89-2.32c0-.08,0-.15-.13-.13C188,203.69,187,203.8,186.25,204.25Z" transform="translate(-158.73 -155.03)"/>
        <g>
          <path class="cls-35" d="M218.28,205.47l-6.42-6.61a4.19,4.19,0,0,0-6.7-4.75l-.09.1-.11.1a4.18,4.18,0,0,0,4.21,7l.54.55a1,1,0,0,1,1.31,1.36l.59.6a.91.91,0,0,1,1.16.19.89.89,0,0,1,.15,1.16l.59.61a.91.91,0,0,1,1.16.19.89.89,0,0,1,.15,1.16l.41.43,3.3-.18.21-.2Z" transform="translate(-158.73 -155.03)"/>
          <path class="cls-36" d="M218.74,207.14l-7.08-8.08a4.14,4.14,0,1,0-2.49,2.21l.54.55a1,1,0,0,1,1.31,1.36l.59.6a.91.91,0,0,1,1.16.19.89.89,0,0,1,.15,1.16l.59.61a.91.91,0,0,1,1.16.19.89.89,0,0,1,.15,1.16l.41.43,3.3-.18Z" transform="translate(-158.73 -155.03)"/>
          <path class="cls-37" d="M218.28,205.47l-6.42-6.61a4.13,4.13,0,1,0-2.48,2.21l.53.55a1,1,0,0,1,1.31,1.36l.59.6a.93.93,0,0,1,1.17.19.9.9,0,0,1,.14,1.17l.6.6a.91.91,0,0,1,1.16.19.9.9,0,0,1,.15,1.16l.41.43,3.3-.18Z" transform="translate(-158.73 -155.03)"/>
          <path class="cls-38" d="M205.35,199.76a3.8,3.8,0,1,1,6.21-1l-.1.21,6.52,6.72.32,1.18-2.73.14-.13-.13a1.35,1.35,0,0,0-1.66-1.71l-.24-.25a1.37,1.37,0,0,0-1.66-1.71l-.24-.25a1.28,1.28,0,0,0-.33-1.34,1.3,1.3,0,0,0-1.33-.37l-.51-.52-.2.06A3.8,3.8,0,0,1,205.35,199.76Z" transform="translate(-158.73 -155.03)"/>
          <path class="cls-17" d="M210.38,199.48a3.3,3.3,0,1,1,.07-4.67A3.3,3.3,0,0,1,210.38,199.48Z" transform="translate(-158.73 -155.03)"/>
          <text class="cls-39" transform="translate(46.13 40.65) rotate(45.85)">Pub</text>
        </g>
        <g>
          <path class="cls-35" d="M218.28,222.52l-6.42-6.62a4.19,4.19,0,0,0-6.7-4.75l-.09.11-.11.09a4.19,4.19,0,0,0,4.21,7l.54.55a.9.9,0,0,1,1.16.18.92.92,0,0,1,.15,1.17l.59.61a1,1,0,0,1,1.31,1.35l.59.61a1,1,0,0,1,1.31,1.35l.41.42,3.3-.18.21-.2Z" transform="translate(-158.73 -155.03)"/>
          <path class="cls-36" d="M218.74,224.18l-7.08-8.07a4.14,4.14,0,1,0-2.49,2.21l.54.55a.9.9,0,0,1,1.16.18.92.92,0,0,1,.15,1.17l.59.61a1,1,0,0,1,1.31,1.35l.59.61a1,1,0,0,1,1.31,1.35l.41.42,3.3-.18Z" transform="translate(-158.73 -155.03)"/>
          <path class="cls-40" d="M218.28,222.52l-6.42-6.62a4.13,4.13,0,1,0-2.48,2.22l.53.55a1,1,0,0,1,1.31,1.35l.59.61a.91.91,0,0,1,1.17.18.9.9,0,0,1,.14,1.17l.6.61a.9.9,0,0,1,1.16.18.92.92,0,0,1,.15,1.17l.41.42,3.3-.18Z" transform="translate(-158.73 -155.03)"/>
          <path class="cls-41" d="M205.35,216.8a3.8,3.8,0,1,1,6.21-1l-.1.21,6.52,6.71.32,1.18-2.73.15-.13-.14a1.28,1.28,0,0,0-.32-1.34,1.29,1.29,0,0,0-1.34-.37l-.24-.25a1.37,1.37,0,0,0-1.66-1.71l-.24-.25a1.36,1.36,0,0,0-1.66-1.7l-.51-.53-.2.07A3.83,3.83,0,0,1,205.35,216.8Z" transform="translate(-158.73 -155.03)"/>
          <path class="cls-17" d="M210.38,216.53a3.31,3.31,0,1,1,.07-4.68A3.3,3.3,0,0,1,210.38,216.53Z" transform="translate(-158.73 -155.03)"/>
          <text class="cls-39" transform="translate(46.13 57.69) rotate(45.85)">Pub</text>
        </g>
        <path class="cls-34" d="M191.06,219c1.5.68,2.73-.57,4-.8.31.35-.05,1.06.13,1.46.91.66,2.68.42,3.35,1.32-.4.32-.94-.2-1.65-.39-1.21-.34-2.54-.14-2.09-1.92-1.08.51-2.91,1.46-4.17.59a8,8,0,0,1-1.27.66c-.5,1.07-.92,2.22-1.33,3.38-.88-.32-.91-1.52-2-1.65a2.88,2.88,0,0,0-.32,1c.24.07.51-.73.88-.53,0,.51-.53.93-1,1.12-.52-.33-.12-1.08,0-1.65a6.41,6.41,0,0,1-4,1.26,3.83,3.83,0,0,1-1.84-.53c-1.14-.86-.84-3.12-.06-4.17a4.93,4.93,0,0,1,2.91-1.66,15.25,15.25,0,0,0,.83-2c.36,0,.45-.1.57-.47,1.87-.73,4-1.16,5.57-2.25-1.94.36-4.08,1-6.08,1.59a4.36,4.36,0,0,1-1.9.4c.07-.4.6-.45.89-.53,1-.3,2.12-.61,3.23-.93a12.54,12.54,0,0,1,4.43-.86c0,.69-.69.89-1.14,1.13-1.38.71-3.27,1.23-4.81,1.85a5.34,5.34,0,0,0,1.39,1.92,10.82,10.82,0,0,1,2.22.26c.75-.91,1.38-2.13,2.09-3.17.19-.29.45-.76.82-.73a5.38,5.38,0,0,1-1.2,2c-.44.66-.81,1.39-1.2,2.06.46.32,1.23.34,1.39,1-.57.13-1-.49-1.52-.6a17.24,17.24,0,0,0-1.84,3.58,14.08,14.08,0,0,0,2.73-1.06,6.76,6.76,0,0,0,.94-2.52c.17-2.07,1.44-3.29,2.67-4.36a3.12,3.12,0,0,1,.38-.8c.24-.06.22.16.37.2a9.57,9.57,0,0,1,5.83-1.39c.39,0,1.28.14,1.27.66,0,.84-1.35,1.8-2,2.32A75.43,75.43,0,0,1,191.06,219Zm6.65-7.75c-1.74.15-3.83.7-4.75,1.79a14.39,14.39,0,0,0-1.27,2.45c-.47.88-1.63,2.26-1,3.24a67.16,67.16,0,0,0,7.47-5.09,5.68,5.68,0,0,0,2-2.26A5.43,5.43,0,0,0,197.71,211.23Zm-7.16,5.56c.39-1,1.14-1.94,1.4-2.84A5.35,5.35,0,0,0,190.55,216.79Zm-7.41-.4c.56-.12,1.3,0,1.84-.19a9.41,9.41,0,0,1-1.2-1.53C183.61,215.3,183.33,215.8,183.14,216.39Zm-.12.4a7.21,7.21,0,0,0-.51,1.66c-.14.53-.18,1.28-.64,1.52-.16-.9.41-2.11.64-3a3.59,3.59,0,0,0-3.11,3.57c0,1.42,1.11,1.93,2.6,1.92,3.16,0,5.47-2.86,3.36-5.69A11,11,0,0,0,183,216.79Zm3.6,2.39c.34-.75.72-1.47,1.08-2.19a12.8,12.8,0,0,0-1.83-.26A6.66,6.66,0,0,1,186.62,219.18Zm3.11.06a2.69,2.69,0,0,0,.57-.26c0-.2,0-.47-.19-.53C190,218.74,189.84,219,189.73,219.24Zm-3.48,2c.84.16,1.14.89,1.64,1.4a6.53,6.53,0,0,1,.89-2.32c0-.08,0-.16-.13-.14C188,220.73,187,220.84,186.25,221.29Z" transform="translate(-158.73 -155.03)"/>
        <rect class="cls-9" x="16.1" y="35.3" width="49.33" height="37.5"/>
      </g>
      <g>
        <path class="cls-42" d="M422.33,199.67c-1.33,8.58-8.33,23.08-21.08,25.08" transform="translate(-158.73 -155.03)"/>
        <polygon points="261.68 44.89 264.02 41.98 265.38 45.46 261.68 44.89"/>
      </g>
      <g>
        <path class="cls-42" d="M200.41,232.87c-.57,3.69-3.59,9.94-9.08,10.8" transform="translate(-158.73 -155.03)"/>
        <polygon points="39.76 78.09 42.1 75.18 43.45 78.67 39.76 78.09"/>
      </g>
      <g>
        <path class="cls-42" d="M259.33,200.25c0,7.75,4.67,12.5,4.67,18.75" transform="translate(-158.73 -155.03)"/>
        <polygon points="98.74 45.77 100.61 42.53 102.48 45.77 98.74 45.77"/>
      </g>
      <g>
        <path class="cls-42" d="M265,182c2,16.5-1,30.75-1,37" transform="translate(-158.73 -155.03)"/>
        <polygon points="104.49 27.73 105.96 24.3 108.2 27.29 104.49 27.73"/>
      </g>
      <path class="cls-43" d="M223.46,194.89a3,3,0,1,1-3-3A3,3,0,0,1,223.46,194.89Z" transform="translate(-158.73 -155.03)"/>
      <g>
        <path d="M219.78,195.74a.54.54,0,1,1-1-.3.54.54,0,1,1,1,.3Z" transform="translate(-158.73 -155.03)"/>
        <path class="cls-44" d="M219.37,193.77l-.54,1.89a.39.39,0,0,0,.29.47.4.4,0,0,0,.49-.24l.54-1.9Z" transform="translate(-158.73 -155.03)"/>
        <path class="cls-45" d="M224.38,191.66c.46-1.58-.83-3.34-2.86-3.92s-4.06.23-4.52,1.81v.06l-.26.94h0c-.3,1.46,1,3,3,3.61s3.89-.11,4.41-1.5h0Z" transform="translate(-158.73 -155.03)"/>
        <g class="cls-46">
          <path class="cls-47" d="M224.09,192.66l.29-1c.4-1.38-.53-2.9-2.13-3.65L220,191.39a3.63,3.63,0,0,1,2.07,2.84A2.71,2.71,0,0,0,224.09,192.66Z" transform="translate(-158.73 -155.03)"/>
        </g>
        <path class="cls-17" d="M219.22,192.24c-.18.23-.6.2-1-.06s-.5-.67-.32-.9.6-.2.95.06S219.39,192,219.22,192.24Z" transform="translate(-158.73 -155.03)"/>
        <path class="cls-48" d="M223.74,186.91l-1.62-1.24h0l-2,.19-1.48,3.41c-.25.88.57,1.89,1.85,2.26s2.5-.06,2.75-.95Z" transform="translate(-158.73 -155.03)"/>
        <g class="cls-46">
          <path class="cls-49" d="M222.12,185.67h0l-2,.19-.35.8c.1,1.36,2.16,4.18,3.55,3.42l.47-3.17Z" transform="translate(-158.73 -155.03)"/>
        </g>
        <path class="cls-50" d="M219.62,183.66l-.18.63c-.32,1.1.7,2.35,2.27,2.8s3.09-.07,3.41-1.17l.18-.63Z" transform="translate(-158.73 -155.03)"/>
        <path class="cls-51" d="M225.3,185.29c-.32,1.09-1.84,1.62-3.41,1.17s-2.59-1.7-2.27-2.8,1.84-1.62,3.41-1.17S225.61,184.19,225.3,185.29Z" transform="translate(-158.73 -155.03)"/>
      </g>
    </g>
  </g>
</svg>
