<svg xmlns="http://www.w3.org/2000/svg" xmlns:xlink="http://www.w3.org/1999/xlink" width="361.67" height="100.13" viewBox="0 0 361.67 100.13">
  <defs>
    <style>
      .cls-1 {
        isolation: isolate;
      }

      .cls-10, .cls-16, .cls-18, .cls-2, .cls-6, .cls-7 {
        fill: none;
      }

      .cls-10, .cls-16, .cls-17, .cls-18, .cls-19, .cls-2 {
        stroke: #000;
      }

      .cls-2 {
        stroke-miterlimit: 10;
      }

      .cls-11, .cls-19, .cls-2 {
        stroke-width: 0.3px;
      }

      .cls-3 {
        font-size: 9px;
        font-family: Humanist521BT-BoldCondensed, Humanst521 Cn BT;
        font-weight: 700;
      }

      .cls-4 {
        fill: #fef0e8;
      }

      .cls-5 {
        font-size: 11.5px;
        font-family: FreeMono;font-phase: bold;
      }

      .cls-6 {
        stroke: #4d4d4d;
      }

      .cls-16, .cls-17, .cls-18, .cls-27, .cls-6 {
        stroke-width: 0.5px;
      }

      .cls-7 {
        stroke: #e60001;
      }

      .cls-10, .cls-11, .cls-16, .cls-17, .cls-7 {
        stroke-linejoin: round;
      }

      .cls-8 {
        font-size: 7px;
      }

      .cls-9 {
        fill: #28708e;
      }

      .cls-20, .cls-21, .cls-9 {
        fill-rule: evenodd;
      }

      .cls-10 {
        stroke-width: 0.75px;
      }

      .cls-11 {
        fill: #267520;
        stroke: #267520;
      }

      .cls-12 {
        fill: url(#linear-gradient);
      }

      .cls-13 {
        fill: url(#linear-gradient-2);
      }

      .cls-14, .cls-17, .cls-27 {
        fill: #fff;
      }

      .cls-15 {
        font-size: 3.67px;
        font-family: ArialMT, Arial;
      }

      .cls-19 {
        fill: #fda452;
      }

      .cls-20 {
        fill: #fbafc5;
      }

      .cls-21 {
        fill: #96c749;
      }

      .cls-22 {
        fill: url(#linear-gradient-3);
      }

      .cls-23 {
        fill: url(#linear-gradient-4);
      }

      .cls-24 {
        fill: url(#linear-gradient-5);
      }

      .cls-25 {
        fill: url(#linear-gradient-6);
      }

      .cls-26, .cls-28, .cls-32 {
        mix-blend-mode: multiply;
      }

      .cls-26 {
        fill: url(#linear-gradient-7);
      }

      .cls-27 {
        stroke: #c88972;
      }

      .cls-28 {
        fill: #ccc;
      }

      .cls-29 {
        fill: #d2b6a7;
      }

      .cls-30 {
        fill: url(#linear-gradient-8);
      }

      .cls-31 {
        fill: url(#radial-gradient);
      }

      .cls-33 {
        fill: url(#linear-gradient-9);
      }

      .cls-34 {
        fill: url(#linear-gradient-10);
      }

      .cls-35 {
        fill: url(#linear-gradient-11);
      }

      .cls-36 {
        fill: url(#linear-gradient-12);
      }

      .cls-37 {
        fill: url(#linear-gradient-13);
      }
    </style>
    <linearGradient id="linear-gradient" x1="59.35" y1="263.99" x2="78.16" y2="263.99" gradientTransform="translate(499.31 -6.95) rotate(45.85)" gradientUnits="userSpaceOnUse">
      <stop offset="0" stop-color="#5fb749"/>
      <stop offset="1" stop-color="#dbf1c6"/>
    </linearGradient>
    <linearGradient id="linear-gradient-2" x1="59.69" y1="263.99" x2="77.63" y2="263.99" gradientTransform="translate(499.31 -6.95) rotate(45.85)" gradientUnits="userSpaceOnUse">
      <stop offset="0" stop-color="#dbf1c6"/>
      <stop offset="1" stop-color="#5fb749"/>
    </linearGradient>
    <linearGradient id="linear-gradient-3" x1="-70.04" y1="360.9" x2="-51.23" y2="360.9" xlink:href="#linear-gradient"/>
    <linearGradient id="linear-gradient-4" x1="-69.7" y1="360.9" x2="-51.76" y2="360.9" xlink:href="#linear-gradient-2"/>
    <linearGradient id="linear-gradient-5" x1="-57.81" y1="372.77" x2="-39.01" y2="372.77" xlink:href="#linear-gradient"/>
    <linearGradient id="linear-gradient-6" x1="-57.48" y1="372.77" x2="-39.53" y2="372.77" xlink:href="#linear-gradient-2"/>
    <linearGradient id="linear-gradient-7" x1="371.47" y1="779.94" x2="407.02" y2="779.94" gradientTransform="translate(898.23 -351.31) rotate(90)" gradientUnits="userSpaceOnUse">
      <stop offset="0.01" stop-color="#ebebeb"/>
      <stop offset="0.36" stop-color="#e6e6e6"/>
      <stop offset="0.77" stop-color="#d7d7d7"/>
      <stop offset="1" stop-color="#ccc"/>
    </linearGradient>
    <linearGradient id="linear-gradient-8" x1="388.06" y1="179.17" x2="388.87" y2="179.17" gradientTransform="translate(41.34 -58.89) rotate(15.97)" gradientUnits="userSpaceOnUse">
      <stop offset="0" stop-color="#565656"/>
      <stop offset="0.05" stop-color="#606060"/>
      <stop offset="0.12" stop-color="#7c7c7c"/>
      <stop offset="0.23" stop-color="#a8a8a8"/>
      <stop offset="0.31" stop-color="#d4d4d4"/>
      <stop offset="0.54" stop-color="#909090"/>
      <stop offset="0.71" stop-color="#666"/>
      <stop offset="0.8" stop-color="#565656"/>
      <stop offset="1" stop-color="#b3b3b3"/>
    </linearGradient>
    <radialGradient id="radial-gradient" cx="386.44" cy="175.63" r="4" gradientTransform="translate(41.34 -58.89) rotate(15.97)" gradientUnits="userSpaceOnUse">
      <stop offset="0" stop-color="#fc9171"/>
      <stop offset="0.16" stop-color="#f97158"/>
      <stop offset="0.43" stop-color="#f54133"/>
      <stop offset="0.68" stop-color="#f21d18"/>
      <stop offset="0.87" stop-color="#f10807"/>
      <stop offset="1" stop-color="#f00001"/>
    </radialGradient>
    <linearGradient id="linear-gradient-9" x1="389.37" y1="173.94" x2="392.2" y2="175.96" gradientTransform="translate(41.34 -58.89) rotate(15.97)" gradientUnits="userSpaceOnUse">
      <stop offset="0.29" stop-color="#a30000"/>
      <stop offset="0.44" stop-color="#b21510"/>
      <stop offset="0.76" stop-color="#da4d38"/>
      <stop offset="1" stop-color="#fb7b5a"/>
    </linearGradient>
    <linearGradient id="linear-gradient-10" x1="386.27" y1="172.33" x2="390.75" y2="172.7" gradientTransform="translate(41.34 -58.89) rotate(15.97)" gradientUnits="userSpaceOnUse">
      <stop offset="0.01" stop-color="#f00001"/>
      <stop offset="0.05" stop-color="#f10706"/>
      <stop offset="0.12" stop-color="#f21c15"/>
      <stop offset="0.2" stop-color="#f53d2d"/>
      <stop offset="0.28" stop-color="#fa6b4f"/>
      <stop offset="0.31" stop-color="#fb7b5a"/>
      <stop offset="0.37" stop-color="#f95e45"/>
      <stop offset="0.45" stop-color="#f63c2d"/>
      <stop offset="0.53" stop-color="#f42219"/>
      <stop offset="0.62" stop-color="#f30f0c"/>
      <stop offset="0.7" stop-color="#f20404"/>
      <stop offset="0.8" stop-color="#f20001"/>
      <stop offset="1" stop-color="#bd0001"/>
    </linearGradient>
    <linearGradient id="linear-gradient-11" x1="386.44" y1="171.58" x2="390.79" y2="171.58" gradientTransform="translate(41.34 -58.89) rotate(15.97)" gradientUnits="userSpaceOnUse">
      <stop offset="0" stop-color="#a30000"/>
      <stop offset="1" stop-color="#fb7b5a"/>
    </linearGradient>
    <linearGradient id="linear-gradient-12" x1="385.51" y1="169.58" x2="391.42" y2="169.58" gradientTransform="translate(41.34 -58.89) rotate(15.97)" gradientUnits="userSpaceOnUse">
      <stop offset="0.01" stop-color="#ab0000"/>
      <stop offset="0.13" stop-color="#fe0f08"/>
      <stop offset="0.18" stop-color="#fe120a"/>
      <stop offset="0.21" stop-color="#fe1b11"/>
      <stop offset="0.24" stop-color="#fd2b1e"/>
      <stop offset="0.27" stop-color="#fd422f"/>
      <stop offset="0.29" stop-color="#fc5f45"/>
      <stop offset="0.31" stop-color="#fb7b5a"/>
      <stop offset="0.35" stop-color="#fb6c4e"/>
      <stop offset="0.42" stop-color="#fc4e37"/>
      <stop offset="0.5" stop-color="#fd3725"/>
      <stop offset="0.58" stop-color="#fe2718"/>
      <stop offset="0.67" stop-color="#fe1d10"/>
      <stop offset="0.8" stop-color="#fe1a0e"/>
      <stop offset="1" stop-color="#ab0000"/>
    </linearGradient>
    <linearGradient id="linear-gradient-13" x1="388.47" y1="166.22" x2="388.47" y2="170.14" gradientTransform="translate(41.34 -58.89) rotate(15.97)" gradientUnits="userSpaceOnUse">
      <stop offset="0" stop-color="#fc3c24"/>
      <stop offset="1" stop-color="#f00001"/>
    </linearGradient>
  </defs>
  <g class="cls-1">
    <g id="Layer_2" data-name="Layer 2">
      <g>
        <path class="cls-2" d="M430.6,267.67c0-5.31-2.26-8-2.26-11.37" transform="translate(-120.58 -189.93)"/>
        <polygon points="311.88 77.19 310 80.43 308.14 77.19 311.88 77.19"/>
      </g>
      <text class="cls-3" transform="translate(290.68 54.04)">p2wpkh<tspan x="0" y="9.5">template</tspan></text>
      <rect class="cls-4" x="204.17" y="0.5" width="141.5" height="37.5" rx="2"/>
      <text class="cls-5" transform="translate(236.03 13.62)">0</text>
      <text class="cls-5" transform="translate(265.78 13.62)">0.09</text>
      <line class="cls-6" x1="261.5" y1="0.64" x2="261.5" y2="37.84"/>
      <rect class="cls-7" x="204.17" y="0.5" width="141.5" height="37.5" rx="2"/>
      <text class="cls-5" transform="translate(307.55 13.62)">WPKH<tspan class="cls-8" x="27.6" y="3">P</tspan></text>
      <g>
        <rect class="cls-4" x="200.33" y="25.83" width="49.33" height="20.67"/>
        <path class="cls-9" d="M337.14,227.36c1.5.68,2.74-.57,4-.79.31.34-.05,1.05.13,1.45.91.66,2.68.42,3.36,1.33-.4.31-.95-.2-1.65-.4-1.22-.34-2.55-.13-2.09-1.92-1.09.51-2.92,1.46-4.18.59a9,9,0,0,1-1.27.67c-.5,1.06-.92,2.21-1.33,3.37-.88-.31-.91-1.52-2-1.65a3.2,3.2,0,0,0-.32,1c.25.07.51-.73.89-.53,0,.51-.54.93-1,1.13-.52-.34-.11-1.09,0-1.66a6.41,6.41,0,0,1-4,1.26,3.66,3.66,0,0,1-1.83-.53c-1.15-.86-.85-3.12-.07-4.17a5,5,0,0,1,2.92-1.66,16.75,16.75,0,0,0,.82-2c.36,0,.45-.1.57-.47,1.87-.73,4-1.16,5.57-2.25-1.94.36-4.07,1-6.08,1.59a4.2,4.2,0,0,1-1.9.4c.08-.39.6-.44.89-.53,1-.3,2.13-.61,3.23-.93a12.55,12.55,0,0,1,4.44-.86c0,.69-.69.89-1.15,1.13-1.37.72-3.26,1.23-4.81,1.85a5.46,5.46,0,0,0,1.39,1.92,11.43,11.43,0,0,1,2.22.27c.76-.92,1.38-2.14,2.09-3.18.19-.28.46-.76.83-.73-.12.77-.77,1.33-1.21,2s-.8,1.38-1.2,2.05c.47.33,1.23.35,1.39,1-.57.13-1-.49-1.52-.59a17.65,17.65,0,0,0-1.84,3.57,13.84,13.84,0,0,0,2.73-1.06,6.71,6.71,0,0,0,.95-2.51,6.39,6.39,0,0,1,2.66-4.37,3.28,3.28,0,0,1,.38-.8c.25-.05.23.16.38.2a9.6,9.6,0,0,1,5.83-1.39c.38,0,1.27.14,1.26.66,0,.84-1.35,1.81-2,2.32A74.3,74.3,0,0,1,337.14,227.36Zm6.65-7.75c-1.73.15-3.83.71-4.75,1.79a16,16,0,0,0-1.27,2.45c-.47.88-1.63,2.26-1,3.25a68.76,68.76,0,0,0,7.48-5.1,5.69,5.69,0,0,0,2-2.25A5.43,5.43,0,0,0,343.79,219.61Zm-7.15,5.56c.38-1,1.13-1.94,1.39-2.84A5.3,5.3,0,0,0,336.64,225.17Zm-7.42-.39c.56-.12,1.3-.06,1.84-.2a9.91,9.91,0,0,1-1.2-1.52C329.7,223.68,329.42,224.18,329.22,224.78Zm-.12.39a7.91,7.91,0,0,0-.51,1.66c-.14.54-.17,1.29-.63,1.52-.16-.9.41-2.11.63-3a3.58,3.58,0,0,0-3.1,3.57c0,1.43,1.1,1.93,2.59,1.92,3.17,0,5.48-2.86,3.36-5.69A11.07,11.07,0,0,0,329.1,225.17Zm3.61,2.39c.34-.75.71-1.47,1.08-2.19a13.15,13.15,0,0,0-1.84-.26A6.92,6.92,0,0,1,332.71,227.56Zm3.1.06a2.48,2.48,0,0,0,.57-.26c0-.2,0-.47-.19-.53C336.09,227.12,335.92,227.34,335.81,227.62Zm-3.48,2.06c.84.15,1.14.88,1.65,1.39a6.41,6.41,0,0,1,.88-2.32c0-.08,0-.16-.12-.13C334.07,229.12,333,229.22,332.33,229.68Z" transform="translate(-120.58 -189.93)"/>
        <g>
          <path class="cls-10" d="M364.37,230.9,358,224.29a4.18,4.18,0,0,0-6.7-4.75.94.94,0,0,0-.1.1l-.11.1a4.18,4.18,0,0,0,4.21,7l.54.55a1,1,0,0,1,1.31,1.35l.59.61a1,1,0,0,1,1.31,1.35l.59.61a1,1,0,0,1,1.31,1.35l.41.42,3.3-.17.21-.2Z" transform="translate(-120.58 -189.93)"/>
          <path class="cls-11" d="M364.82,232.57l-7.08-8.08a4.14,4.14,0,1,0-2.49,2.21l.54.55a1,1,0,0,1,1.31,1.35l.59.61a1,1,0,0,1,1.31,1.35l.59.61a1,1,0,0,1,1.31,1.35l.41.42,3.3-.17Z" transform="translate(-120.58 -189.93)"/>
          <path class="cls-12" d="M364.37,230.9,358,224.29a4.14,4.14,0,1,0-2.49,2.21l.54.55a.89.89,0,0,1,1.16.19.9.9,0,0,1,.15,1.16l.59.61a.89.89,0,0,1,1.16.19.9.9,0,0,1,.15,1.16l.59.61a.9.9,0,0,1,1.16.18.92.92,0,0,1,.15,1.17l.41.42,3.3-.17Z" transform="translate(-120.58 -189.93)"/>
          <path class="cls-13" d="M351.43,225.19a3.8,3.8,0,1,1,6.21-1l-.09.21,6.52,6.71.32,1.18-2.73.15-.14-.14a1.35,1.35,0,0,0-1.65-1.7l-.25-.26a1.28,1.28,0,0,0-.32-1.34,1.31,1.31,0,0,0-1.34-.36l-.24-.25a1.29,1.29,0,0,0-.32-1.35,1.31,1.31,0,0,0-1.34-.36l-.5-.52-.2.06A3.85,3.85,0,0,1,351.43,225.19Z" transform="translate(-120.58 -189.93)"/>
          <path class="cls-14" d="M356.46,224.91a3.3,3.3,0,1,1,.07-4.68A3.3,3.3,0,0,1,356.46,224.91Z" transform="translate(-120.58 -189.93)"/>
          <text class="cls-15" transform="translate(230.36 31.18) rotate(45.85)">Pub</text>
        </g>
        <rect class="cls-16" x="200.33" y="25.83" width="49.33" height="20.67"/>
      </g>
      <rect class="cls-17" x="1.42" y="83.1" width="360" height="16.78"/>
      <path d="M473.65,281.77v1.54a3.59,3.59,0,0,1-.83.33,2.72,2.72,0,0,1-.8.12,2.88,2.88,0,0,1-1-.16,2,2,0,0,1-.74-.49,2.15,2.15,0,0,1-.48-.69,2.44,2.44,0,0,1-.16-1v-.67a2.52,2.52,0,0,1,.28-1.14,2.05,2.05,0,0,1,.81-.84,2.15,2.15,0,0,1,1.11-.3,2.29,2.29,0,0,1,1.47.47v-.25a.16.16,0,0,1,.07-.07.15.15,0,0,1,.11,0,.16.16,0,0,1,.13.06.26.26,0,0,1,0,.18v.8a.34.34,0,0,1,0,.2.15.15,0,0,1-.13.05.13.13,0,0,1-.12-.05.24.24,0,0,1-.06-.17.72.72,0,0,0-.47-.6,2,2,0,0,0-1-.23,1.81,1.81,0,0,0-.89.22,2.09,2.09,0,0,0-.75.82,1.78,1.78,0,0,0-.22.89v.67a1.88,1.88,0,0,0,.54,1.41,2.1,2.1,0,0,0,1.51.53,2.9,2.9,0,0,0,.6-.07,4.39,4.39,0,0,0,.66-.23v-1.33h-1.23a.32.32,0,0,1-.2,0,.17.17,0,0,1-.05-.14.13.13,0,0,1,.05-.12.27.27,0,0,1,.2,0h1.71a.26.26,0,0,1,.19,0,.14.14,0,0,1,.06.12.15.15,0,0,1,0,.11.16.16,0,0,1-.08.06A1,1,0,0,1,473.65,281.77Zm-7-2.79v4.28h1.23c.08,0,.14,0,.17.05a.17.17,0,0,1,.07.14.17.17,0,0,1-.07.12.25.25,0,0,1-.17.05H465a.3.3,0,0,1-.18-.05.15.15,0,0,1-.05-.12.16.16,0,0,1,.05-.14.24.24,0,0,1,.18-.05h1.23V279H465a.3.3,0,0,1-.18-.05.16.16,0,0,1-.05-.14.13.13,0,0,1,.05-.12.3.3,0,0,1,.18-.05h2.83a.25.25,0,0,1,.17.05.15.15,0,0,1,.07.12.17.17,0,0,1-.07.14.25.25,0,0,1-.17.05Zm-4.15,0v-.12a.36.36,0,0,1,0-.18.2.2,0,0,1,.14-.06.15.15,0,0,1,.13.06.26.26,0,0,1,.05.18v.92a.3.3,0,0,1-.05.18.14.14,0,0,1-.13.05.15.15,0,0,1-.12-.05.23.23,0,0,1,0-.17,1,1,0,0,0-.37-.65,1.44,1.44,0,0,0-.92-.28,1.39,1.39,0,0,0-.95.31.94.94,0,0,0-.35.72.7.7,0,0,0,.1.38.81.81,0,0,0,.26.29,1.49,1.49,0,0,0,.36.17,4.89,4.89,0,0,0,.65.14,4.8,4.8,0,0,1,1,.25,1.28,1.28,0,0,1,.56.46,1.25,1.25,0,0,1,.19.7,1.34,1.34,0,0,1-.49,1.05,1.91,1.91,0,0,1-1.32.43,2,2,0,0,1-1.51-.59v.21a.26.26,0,0,1-.05.19.14.14,0,0,1-.12.05.21.21,0,0,1-.13-.05.32.32,0,0,1,0-.19v-1a.32.32,0,0,1,0-.19.18.18,0,0,1,.13-.06.14.14,0,0,1,.12.06.21.21,0,0,1,.05.16,1,1,0,0,0,.42.73,1.83,1.83,0,0,0,1.09.31,1.59,1.59,0,0,0,1.06-.34,1,1,0,0,0,.4-.8.76.76,0,0,0-.16-.49.88.88,0,0,0-.44-.35,3.34,3.34,0,0,0-.86-.21,3,3,0,0,1-1.28-.45,1,1,0,0,1-.4-.88,1.27,1.27,0,0,1,.45-1,1.7,1.7,0,0,1,1.2-.41A1.89,1.89,0,0,1,462.48,279Zm-7.71,2.69v1.59h.66c.1,0,.15,0,.19.05a.2.2,0,0,1,.05.14.18.18,0,0,1-.05.12.29.29,0,0,1-.19.05h-1.5a.28.28,0,0,1-.18-.05.16.16,0,0,1-.06-.12.17.17,0,0,1,.06-.14.23.23,0,0,1,.18-.05h.48V279h-.48a.28.28,0,0,1-.18-.05.17.17,0,0,1-.06-.14.14.14,0,0,1,.06-.12.28.28,0,0,1,.18-.05h1.5a.29.29,0,0,1,.19.05.17.17,0,0,1,.05.12.2.2,0,0,1-.05.14.29.29,0,0,1-.19.05h-.66v2.2l2.48-2.2h-.4a.36.36,0,0,1-.19-.05.2.2,0,0,1,0-.14.16.16,0,0,1,0-.12.36.36,0,0,1,.19-.05h1.06a.26.26,0,0,1,.18.05.13.13,0,0,1,.05.12.16.16,0,0,1-.05.14.26.26,0,0,1-.18.05h-.13l-2,1.77a2.14,2.14,0,0,1,.72.44,2.85,2.85,0,0,1,.58.76c.1.19.28.63.56,1.31h.44c.1,0,.16,0,.19.05a.17.17,0,0,1,.06.14.16.16,0,0,1-.06.12.27.27,0,0,1-.19.05h-.69a7.24,7.24,0,0,0-.94-2,2.07,2.07,0,0,0-1-.63Zm-2.52-2.57v-.24a.26.26,0,0,1,.05-.18.19.19,0,0,1,.15-.06.17.17,0,0,1,.12.06.26.26,0,0,1,.05.18v1a.34.34,0,0,1-.05.2.21.21,0,0,1-.12.05.17.17,0,0,1-.13-.05.38.38,0,0,1-.07-.17.81.81,0,0,0-.38-.64,1.85,1.85,0,0,0-1.13-.38,1.72,1.72,0,0,0-.78.18,1.41,1.41,0,0,0-.44.33,3.25,3.25,0,0,0-.45.74,2,2,0,0,0-.11.67v.64a1.92,1.92,0,0,0,.58,1.39,1.83,1.83,0,0,0,1.35.59,1.61,1.61,0,0,0,.82-.21,2.27,2.27,0,0,0,.71-.6.21.21,0,0,1,.16-.09.15.15,0,0,1,.12.05.19.19,0,0,1,.05.13.57.57,0,0,1-.18.29,2.48,2.48,0,0,1-.79.59,2.09,2.09,0,0,1-.88.2,2.13,2.13,0,0,1-.79-.15,1.86,1.86,0,0,1-.51-.26,3.31,3.31,0,0,1-.5-.53,2.35,2.35,0,0,1-.4-.67,2.11,2.11,0,0,1-.1-.68v-.74a2.46,2.46,0,0,1,.27-1.08,2.08,2.08,0,0,1,1.86-1.14A2.16,2.16,0,0,1,452.25,279.1Zm-8,2.11v2.05H447V282.2a.21.21,0,0,1,.06-.17.15.15,0,0,1,.13-.06.14.14,0,0,1,.12.06.25.25,0,0,1,.05.17v1.42h-3.95a.34.34,0,0,1-.2-.05.18.18,0,0,1-.05-.12.2.2,0,0,1,.05-.14.28.28,0,0,1,.2-.05h.47V279h-.47a.34.34,0,0,1-.2-.05.2.2,0,0,1-.05-.14.17.17,0,0,1,.05-.12.34.34,0,0,1,.2-.05h3.77v1.23a.27.27,0,0,1-.06.19.14.14,0,0,1-.12,0,.17.17,0,0,1-.13,0,.27.27,0,0,1-.05-.19V279h-2.58v1.87h1.29v-.41a.32.32,0,0,1,0-.18.17.17,0,0,1,.12-.06.19.19,0,0,1,.15.06.26.26,0,0,1,.05.18v1.16a.32.32,0,0,1-.05.2.18.18,0,0,1-.15.05.16.16,0,0,1-.12-.05.41.41,0,0,1,0-.2v-.39Zm-2.87,0H439v2.07h.47c.09,0,.16,0,.19.05a.17.17,0,0,1,.06.14.16.16,0,0,1-.06.12.29.29,0,0,1-.19.05h-1.24a.33.33,0,0,1-.19-.05.18.18,0,0,1-.05-.12.2.2,0,0,1,.05-.14.27.27,0,0,1,.19-.05h.41V279h-.22a.32.32,0,0,1-.2-.05.16.16,0,0,1-.05-.14.13.13,0,0,1,.05-.12.32.32,0,0,1,.2-.05h1.05a.29.29,0,0,1,.19.05.14.14,0,0,1,.06.12.17.17,0,0,1-.06.14.29.29,0,0,1-.19.05H439v1.87h2.37V279h-.46a.36.36,0,0,1-.21-.05.2.2,0,0,1,0-.14.16.16,0,0,1,0-.12.36.36,0,0,1,.21-.05H442a.31.31,0,0,1,.19.05.14.14,0,0,1,.06.12.17.17,0,0,1-.06.14.31.31,0,0,1-.19.05h-.22v4.28h.41c.08,0,.14,0,.17.05a.17.17,0,0,1,.06.14.16.16,0,0,1-.06.12.25.25,0,0,1-.17.05h-1.24a.36.36,0,0,1-.21-.05.17.17,0,0,1,0-.12.2.2,0,0,1,0-.14.3.3,0,0,1,.21-.05h.46Zm-4.89-2.09v-.24a.26.26,0,0,1,.05-.18.18.18,0,0,1,.13-.06.15.15,0,0,1,.13.06.26.26,0,0,1,.05.18v1a.34.34,0,0,1-.05.2.17.17,0,0,1-.13.05.21.21,0,0,1-.12-.05.38.38,0,0,1-.06-.17.86.86,0,0,0-.38-.64,1.88,1.88,0,0,0-1.14-.38,1.78,1.78,0,0,0-.78.18,1.54,1.54,0,0,0-.44.33,2.9,2.9,0,0,0-.44.74,1.81,1.81,0,0,0-.12.67v.64a2,2,0,0,0,.57,1.39,1.9,1.9,0,0,0,1.36.59,1.59,1.59,0,0,0,.82-.21,2.17,2.17,0,0,0,.71-.6.22.22,0,0,1,.17-.09.17.17,0,0,1,.12.05.18.18,0,0,1,0,.13.5.5,0,0,1-.18.29,2.44,2.44,0,0,1-.78.59,2.17,2.17,0,0,1-.89.2,2.25,2.25,0,0,1-.79-.15,2,2,0,0,1-.51-.26,3.83,3.83,0,0,1-.5-.53,2.54,2.54,0,0,1-.39-.67,2.11,2.11,0,0,1-.11-.68v-.74a2.35,2.35,0,0,1,.28-1.08,1.93,1.93,0,0,1,.78-.84,2,2,0,0,1,1.07-.3A2.19,2.19,0,0,1,436.49,279.1ZM432,286h-4.77a.33.33,0,0,1-.19,0,.16.16,0,0,1-.05-.14.13.13,0,0,1,.05-.12.27.27,0,0,1,.19,0H432c.09,0,.16,0,.19,0a.17.17,0,0,1,.06.12.2.2,0,0,1-.06.14A.29.29,0,0,1,432,286Zm-8.41-4.81h1.15a1.59,1.59,0,0,0,.74-.18,1.13,1.13,0,0,0,.5-.43,1,1,0,0,0,.16-.52,1,1,0,0,0-.36-.76,1.28,1.28,0,0,0-.92-.34h-1.27Zm0,.36v1.69h1.23a.23.23,0,0,1,.18.05.17.17,0,0,1,.06.14.16.16,0,0,1-.06.12.28.28,0,0,1-.18.05h-2.08a.28.28,0,0,1-.18-.05.16.16,0,0,1-.06-.12.17.17,0,0,1,.06-.14.23.23,0,0,1,.18-.05h.5V279h-.5a.28.28,0,0,1-.18-.05.17.17,0,0,1-.06-.14.14.14,0,0,1,.06-.12.28.28,0,0,1,.18-.05h2.09a1.68,1.68,0,0,1,1.2.43,1.38,1.38,0,0,1,.47,1,1.33,1.33,0,0,1-.15.63,1.35,1.35,0,0,1-.35.42,1.92,1.92,0,0,1-.68.35,1.82,1.82,0,0,1-.61.09Zm-2.64-.44a2.56,2.56,0,0,0-.52-1.58,1.55,1.55,0,0,0-1.31-.69,1.59,1.59,0,0,0-1.29.66,2.49,2.49,0,0,0-.54,1.61,2.39,2.39,0,0,0,.56,1.63,1.68,1.68,0,0,0,1.27.64,1.55,1.55,0,0,0,1.31-.69A2.54,2.54,0,0,0,421,281.13Zm.36,0a3,3,0,0,1-.3,1.33,2.3,2.3,0,0,1-.8,1,2,2,0,0,1-1.09.34,2,2,0,0,1-1.53-.74,3.07,3.07,0,0,1,0-3.78,2,2,0,0,1,1.53-.73,1.91,1.91,0,0,1,1.09.35,2.18,2.18,0,0,1,.8.94A3,3,0,0,1,421.35,281.13Zm-12.51.23v1.9h.92c.09,0,.15,0,.18.05a.17.17,0,0,1,.07.14.17.17,0,0,1-.07.12.26.26,0,0,1-.18.05h-2.23a.31.31,0,0,1-.19-.05.17.17,0,0,1,0-.12.2.2,0,0,1,0-.14.26.26,0,0,1,.19-.05h.93v-1.9L406.88,279h-.21a.36.36,0,0,1-.19-.05.2.2,0,0,1,0-.14.16.16,0,0,1,0-.12.36.36,0,0,1,.19-.05h1a.25.25,0,0,1,.17.05.14.14,0,0,1,.06.12.17.17,0,0,1-.06.14.25.25,0,0,1-.17.05h-.36l1.34,2,1.32-2h-.37a.32.32,0,0,1-.18-.05.2.2,0,0,1-.05-.14.17.17,0,0,1,.05-.12.32.32,0,0,1,.18-.05h1a.28.28,0,0,1,.18.05.14.14,0,0,1,.06.12.17.17,0,0,1-.06.14.28.28,0,0,1-.18.05h-.22Zm-6.32-.15v2.05h1.24a.22.22,0,0,1,.17.05.17.17,0,0,1,.06.14.16.16,0,0,1-.06.12.26.26,0,0,1-.17.05h-2.08a.33.33,0,0,1-.19-.05.17.17,0,0,1,0-.12.2.2,0,0,1,0-.14.27.27,0,0,1,.19-.05h.48V279h-.48a.33.33,0,0,1-.19-.05.2.2,0,0,1,0-.14.15.15,0,0,1,.06-.13.25.25,0,0,1,.17,0h3.95v1.23a.27.27,0,0,1-.05.19.19.19,0,0,1-.13,0,.21.21,0,0,1-.13,0,.33.33,0,0,1-.05-.19V279h-2.75v1.87h1.28v-.41a.22.22,0,0,1,.06-.18.15.15,0,0,1,.13-.06.18.18,0,0,1,.13.06.26.26,0,0,1,0,.18v1.16a.33.33,0,0,1,0,.2.17.17,0,0,1-.13.05.14.14,0,0,1-.13-.05.27.27,0,0,1-.06-.2v-.39ZM398.31,279v4.28h1.23c.09,0,.15,0,.18.05a.14.14,0,0,1,.06.14.13.13,0,0,1-.06.12.26.26,0,0,1-.18.05h-2.82a.3.3,0,0,1-.18-.05.15.15,0,0,1-.05-.12.16.16,0,0,1,.05-.14.24.24,0,0,1,.18-.05H398V279h-1.24a.3.3,0,0,1-.18-.05.16.16,0,0,1-.05-.14.13.13,0,0,1,.05-.12.3.3,0,0,1,.18-.05h2.82a.26.26,0,0,1,.18.05.12.12,0,0,1,.06.12.14.14,0,0,1-.06.14.26.26,0,0,1-.18.05Zm-6.6,2h1a2.07,2.07,0,0,0,.84-.17,1.5,1.5,0,0,0,.56-.4.75.75,0,0,0,.18-.47.92.92,0,0,0-.37-.68A1.25,1.25,0,0,0,393,279h-1.31Zm0,.36v1.87h.66c.09,0,.15,0,.18.05a.17.17,0,0,1,.06.14.16.16,0,0,1-.06.12.26.26,0,0,1-.18.05h-1.5a.37.37,0,0,1-.2-.05.18.18,0,0,1-.05-.12.2.2,0,0,1,.05-.14.3.3,0,0,1,.2-.05h.48V279h-.48a.37.37,0,0,1-.2-.05.2.2,0,0,1-.05-.14.17.17,0,0,1,.05-.12.37.37,0,0,1,.2-.05H393a1.63,1.63,0,0,1,1.13.42,1.29,1.29,0,0,1,.46,1,1.09,1.09,0,0,1-.3.73,1.94,1.94,0,0,1-.94.56,3,3,0,0,1,.66.6,12.52,12.52,0,0,1,.87,1.37h.28a.24.24,0,0,1,.18.05.17.17,0,0,1,.06.14.16.16,0,0,1-.06.12.3.3,0,0,1-.18.05h-.48a8.41,8.41,0,0,0-1-1.59,2.68,2.68,0,0,0-.83-.64Zm-5.26-.18v2.05h2.76V282.2a.25.25,0,0,1,.05-.17.17.17,0,0,1,.14-.06.14.14,0,0,1,.12.06.25.25,0,0,1,.05.17v1.42h-4a.39.39,0,0,1-.2-.05.17.17,0,0,1,0-.12.2.2,0,0,1,0-.14.31.31,0,0,1,.2-.05h.48V279h-.48a.39.39,0,0,1-.2-.05.2.2,0,0,1,0-.14.16.16,0,0,1,0-.12.39.39,0,0,1,.2-.05h3.77v1.23a.33.33,0,0,1-.05.19.15.15,0,0,1-.12,0,.17.17,0,0,1-.13,0,.27.27,0,0,1-.06-.19V279h-2.57v1.87h1.29v-.41a.26.26,0,0,1,.05-.18.17.17,0,0,1,.26,0s.05.09.05.18v1.16a.27.27,0,0,1-.05.2s-.07.05-.14.05a.15.15,0,0,1-.12-.05.32.32,0,0,1-.05-.2v-.39Zm-3.81,2.41h-.5L380.32,279h-.42a.17.17,0,0,1-.06-.08.3.3,0,0,1,0-.1.19.19,0,0,1,0-.08.11.11,0,0,1,.06-.07l.15,0h1.33l.15,0a.11.11,0,0,1,.06.07.09.09,0,0,1,0,.08.13.13,0,0,1,0,.1.14.14,0,0,1-.07.08h-.82l1.66,4.28h0L384,279h-.83a.19.19,0,0,1-.07-.08.3.3,0,0,1,0-.1.19.19,0,0,1,0-.08.17.17,0,0,1,.08-.07l.14,0h1.34l.14,0a.12.12,0,0,1,.07.07.11.11,0,0,1,0,.08.17.17,0,0,1,0,.1.19.19,0,0,1-.07.08h-.41ZM376.49,279v4.28h2.38v-1.43a.25.25,0,0,1,.05-.17.16.16,0,0,1,.14-.07.13.13,0,0,1,.12.07.21.21,0,0,1,.06.17v1.79h-4a.33.33,0,0,1-.19-.05.15.15,0,0,1-.05-.12.16.16,0,0,1,.05-.14.27.27,0,0,1,.19-.05h.86V279h-.86a.33.33,0,0,1-.19-.05.16.16,0,0,1-.05-.14.13.13,0,0,1,.05-.12.33.33,0,0,1,.19-.05h2.08a.26.26,0,0,1,.17.05.14.14,0,0,1,.06.12.17.17,0,0,1-.06.14.26.26,0,0,1-.17.05Zm-3.59,2.61-1-2.61h-.14l-1,2.61Zm.13.36h-2.34l-.49,1.31h.68a.23.23,0,0,1,.18.05.17.17,0,0,1,.06.14.16.16,0,0,1-.06.12.28.28,0,0,1-.18.05h-1.34a.3.3,0,0,1-.18-.05.16.16,0,0,1-.06-.12.17.17,0,0,1,.06-.14.24.24,0,0,1,.18-.05h.27L371.4,279h-1a.34.34,0,0,1-.2-.05.2.2,0,0,1,0-.14.17.17,0,0,1,0-.12.34.34,0,0,1,.2-.05h1.8l1.75,4.64h.28c.09,0,.15,0,.18.05a.14.14,0,0,1,.06.14.13.13,0,0,1-.06.12.26.26,0,0,1-.18.05h-1.33a.34.34,0,0,1-.2-.05.18.18,0,0,1,0-.12.2.2,0,0,1,0-.14.28.28,0,0,1,.2-.05h.69Zm-4.69-3v3a1.73,1.73,0,0,1-.51,1.27,1.64,1.64,0,0,1-1.22.51,1.84,1.84,0,0,1-.85-.2,1.81,1.81,0,0,1-.63-.63,1.89,1.89,0,0,1-.26-.95v-3h-.3a.31.31,0,0,1-.19-.05.2.2,0,0,1,0-.14.2.2,0,0,1,0-.13.32.32,0,0,1,.19,0h1.32a.31.31,0,0,1,.19.05.14.14,0,0,1,.06.12.17.17,0,0,1-.06.14.31.31,0,0,1-.19.05h-.66v3a1.4,1.4,0,0,0,.4,1,1.36,1.36,0,0,0,1.61.25,1.43,1.43,0,0,0,.51-.5A1.29,1.29,0,0,0,368,282v-3h-.66a.33.33,0,0,1-.19-.05.2.2,0,0,1-.05-.14.17.17,0,0,1,.05-.12.33.33,0,0,1,.19-.05h1.32a.26.26,0,0,1,.18.05.13.13,0,0,1,.07.12.15.15,0,0,1-.07.14.26.26,0,0,1-.18.05Zm-5.15,2.15a2.63,2.63,0,0,0-.52-1.58,1.56,1.56,0,0,0-1.32-.69,1.62,1.62,0,0,0-1.29.66,2.53,2.53,0,0,0-.53,1.61,2.34,2.34,0,0,0,.56,1.63,1.66,1.66,0,0,0,1.26.64,1.56,1.56,0,0,0,1.32-.69A2.6,2.6,0,0,0,363.19,281.13Zm-1.79,2.63-.48.36a2.92,2.92,0,0,1,.59-.08,2.1,2.1,0,0,1,.73.14,1.14,1.14,0,0,0,.4.1,1,1,0,0,0,.56-.2.38.38,0,0,1,.16-.08.12.12,0,0,1,.12.06.13.13,0,0,1,0,.12.16.16,0,0,1,0,.11,1.07,1.07,0,0,1-.41.25,1.16,1.16,0,0,1-.46.1,1.74,1.74,0,0,1-.51-.11,1.71,1.71,0,0,0-.61-.11,2.63,2.63,0,0,0-.51.05l-.7.13-.13,0a.17.17,0,0,1-.12-.05.17.17,0,0,1-.05-.14.17.17,0,0,1,.1-.15l.79-.58a2.19,2.19,0,0,1-1.22-.87,3,3,0,0,1-.5-1.71,2.76,2.76,0,0,1,.65-1.89,2,2,0,0,1,1.53-.73,2,2,0,0,1,1.53.73,3,3,0,0,1,0,3.77A2,2,0,0,1,361.4,283.76Zm-6.48-2.55v2.05h2.76V282.2a.25.25,0,0,1,.05-.17.17.17,0,0,1,.14-.06.14.14,0,0,1,.12.06s.05.09.05.17v1.42h-4a.34.34,0,0,1-.2-.05.15.15,0,0,1-.05-.12.16.16,0,0,1,.05-.14.28.28,0,0,1,.2-.05h.47V279h-.47a.34.34,0,0,1-.2-.05.16.16,0,0,1-.05-.14.13.13,0,0,1,.05-.12.34.34,0,0,1,.2-.05h3.76v1.23a.34.34,0,0,1,0,.19.21.21,0,0,1-.13,0,.22.22,0,0,1-.14,0,.33.33,0,0,1-.05-.19V279h-2.57v1.87h1.29v-.41a.26.26,0,0,1,.05-.18.17.17,0,0,1,.26,0,.25.25,0,0,1,.06.18v1.16a.32.32,0,0,1-.06.2.19.19,0,0,1-.26,0,.32.32,0,0,1-.05-.2v-.39ZM353.23,286h-4.78a.33.33,0,0,1-.19,0,.2.2,0,0,1-.05-.14.17.17,0,0,1,.05-.12.27.27,0,0,1,.19,0h4.78a.24.24,0,0,1,.18,0,.13.13,0,0,1,0,.12.16.16,0,0,1,0,.14A.3.3,0,0,1,353.23,286Zm-8.42-4.81H346a1.59,1.59,0,0,0,.74-.18,1.1,1.1,0,0,0,.49-.43,1,1,0,0,0,.17-.52,1,1,0,0,0-.36-.76,1.28,1.28,0,0,0-.92-.34h-1.27Zm0,.36v1.69H346c.08,0,.14,0,.17.05a.17.17,0,0,1,.07.14.17.17,0,0,1-.07.12.25.25,0,0,1-.17.05H344a.26.26,0,0,1-.18-.05.15.15,0,0,1,0-.12.16.16,0,0,1,0-.14s.09-.05.18-.05h.49V279H344a.26.26,0,0,1-.18-.05.16.16,0,0,1,0-.14.13.13,0,0,1,0-.12.26.26,0,0,1,.18-.05h2.09a1.68,1.68,0,0,1,1.2.43,1.38,1.38,0,0,1,.47,1,1.33,1.33,0,0,1-.15.63,1.25,1.25,0,0,1-.36.42,1.88,1.88,0,0,1-.67.35,1.82,1.82,0,0,1-.61.09Zm-2.64-.44a2.62,2.62,0,0,0-.51-1.58,1.57,1.57,0,0,0-1.32-.69,1.62,1.62,0,0,0-1.3.66,2.53,2.53,0,0,0-.53,1.61,2.39,2.39,0,0,0,.56,1.63,1.68,1.68,0,0,0,1.27.64,1.57,1.57,0,0,0,1.32-.69A2.6,2.6,0,0,0,342.17,281.13Zm.35,0a3,3,0,0,1-.29,1.33,2.3,2.3,0,0,1-.8,1,2,2,0,0,1-1.09.34,2,2,0,0,1-1.53-.74,3,3,0,0,1,0-3.78,2,2,0,0,1,1.53-.73,1.91,1.91,0,0,1,1.09.35,2.18,2.18,0,0,1,.8.94A3,3,0,0,1,342.52,281.13Zm-21,0-3.88,2.17-.15.05a.17.17,0,0,1-.12-.05.2.2,0,0,1-.06-.14c0-.06.06-.13.15-.19l3.33-1.84-3.33-1.85c-.09,0-.15-.11-.15-.19a.14.14,0,0,1,.06-.12.15.15,0,0,1,.13-.05.33.33,0,0,1,.14.05Zm-8.65-2.87v2.2a2.23,2.23,0,0,1,.66-.52,1.58,1.58,0,0,1,.71-.15,1.44,1.44,0,0,1,.69.15,1.29,1.29,0,0,1,.5.46,1.07,1.07,0,0,1,.2.63v2.23h.4c.09,0,.15,0,.18.05a.16.16,0,0,1,.05.14.15.15,0,0,1-.05.12.26.26,0,0,1-.18.05h-1.17a.33.33,0,0,1-.19-.05.17.17,0,0,1,0-.12.2.2,0,0,1,0-.14.27.27,0,0,1,.19-.05h.41v-2.2a.87.87,0,0,0-.28-.65,1.09,1.09,0,0,0-.79-.26,1.15,1.15,0,0,0-.67.19,3.92,3.92,0,0,0-.66.64v2.28h.41a.24.24,0,0,1,.18.05.17.17,0,0,1,.06.14.16.16,0,0,1-.06.12.3.3,0,0,1-.18.05h-1.17a.29.29,0,0,1-.19-.05.16.16,0,0,1-.06-.12.17.17,0,0,1,.06-.14s.1-.05.19-.05h.4v-4.64H312a.31.31,0,0,1-.19-.05.16.16,0,0,1,0-.14.13.13,0,0,1,0-.12.26.26,0,0,1,.19-.05ZM308.08,282v1.6h-.85a.33.33,0,0,1-.19-.05.18.18,0,0,1-.05-.12.2.2,0,0,1,.05-.14.27.27,0,0,1,.19-.05h.48v-4.64h-.48a.33.33,0,0,1-.19-.05.2.2,0,0,1-.05-.14.17.17,0,0,1,.05-.12.27.27,0,0,1,.19-.05h.85v3.31l1.51-1.28h-.17a.28.28,0,0,1-.2-.06.19.19,0,0,1,0-.26.28.28,0,0,1,.2-.06h1.15a.23.23,0,0,1,.18.06.17.17,0,0,1,0,.26.23.23,0,0,1-.18.06h-.42l-1.4,1.17,1.77,1.8h.42a.23.23,0,0,1,.18.05.17.17,0,0,1,.07.14.17.17,0,0,1-.07.12.28.28,0,0,1-.18.05h-1.17a.31.31,0,0,1-.19-.05.18.18,0,0,1-.05-.12.2.2,0,0,1,.05-.14.26.26,0,0,1,.19-.05H310l-1.54-1.58Zm-2.77-.36a1.39,1.39,0,0,0-.46-1.06,1.49,1.49,0,0,0-1.1-.45,1.55,1.55,0,0,0-1.12.45,1.47,1.47,0,0,0,0,2.12,1.55,1.55,0,0,0,1.12.45,1.49,1.49,0,0,0,1.1-.45A1.42,1.42,0,0,0,305.31,281.66Zm-3.13-1.75v.66a2.6,2.6,0,0,1,.69-.58,1.9,1.9,0,0,1,.88-.2,2,2,0,0,1,1,.25,1.86,1.86,0,0,1,.95,1.62,1.85,1.85,0,0,1-.56,1.33,1.87,1.87,0,0,1-1.36.54,1.91,1.91,0,0,1-1.57-.78v2.16h.89a.25.25,0,0,1,.17,0,.16.16,0,0,1,0,.26.25.25,0,0,1-.17,0h-1.72a.28.28,0,0,1-.2,0,.17.17,0,0,1,0-.13.21.21,0,0,1,0-.13.34.34,0,0,1,.2,0h.49v-4.62h-.49a.28.28,0,0,1-.2-.06.19.19,0,0,1,0-.26.28.28,0,0,1,.2-.06Zm-6.1,1.22L300,279a.21.21,0,0,1,.13-.05.17.17,0,0,1,.13.05.14.14,0,0,1,.06.12c0,.08-.05.14-.15.19l-3.33,1.85,3.33,1.84a.26.26,0,0,1,.14.19.24.24,0,0,1,0,.14.21.21,0,0,1-.13.05l-.15-.05Zm-17.52-.59a2.75,2.75,0,0,0-.15-.93,2.71,2.71,0,0,0-.32-.72.85.85,0,0,0-.28-.25,1,1,0,0,0-.54-.16,1.06,1.06,0,0,0-.95.62,3,3,0,0,0-.34,1.44v.79a3.32,3.32,0,0,0,.14,1,3.06,3.06,0,0,0,.33.7,1.31,1.31,0,0,0,.27.25,1.16,1.16,0,0,0,.56.14,1,1,0,0,0,.93-.61,2.9,2.9,0,0,0,.35-1.44Zm.36,0v.88a2.79,2.79,0,0,1-.56,1.84,1.32,1.32,0,0,1-1.08.52,1.39,1.39,0,0,1-.61-.12,1.35,1.35,0,0,1-.47-.35,3.11,3.11,0,0,1-.27-.46,3.57,3.57,0,0,1-.2-.57,3.1,3.1,0,0,1-.11-.86v-.88a2.84,2.84,0,0,1,.55-1.84,1.36,1.36,0,0,1,1.1-.54,1.28,1.28,0,0,1,.59.14,1.38,1.38,0,0,1,.48.35,1.9,1.9,0,0,1,.27.46,2.61,2.61,0,0,1,.21.56A3.25,3.25,0,0,1,278.92,280.5ZM271,281.94a2.17,2.17,0,0,0,.51,1.12,1.17,1.17,0,0,0,.82.32,1,1,0,0,0,.81-.37,1.37,1.37,0,0,0,.35-1,1.28,1.28,0,0,0-.35-.92,1,1,0,0,0-.77-.37,1.17,1.17,0,0,0-.8.36A2.75,2.75,0,0,0,271,281.94Zm-.09-.6a2.79,2.79,0,0,1,.68-.72,1.4,1.4,0,0,1,.79-.23,1.37,1.37,0,0,1,1,.48,1.63,1.63,0,0,1,.45,1.17,1.9,1.9,0,0,1-.41,1.18,1.33,1.33,0,0,1-1.12.52,1.48,1.48,0,0,1-.87-.28,1.92,1.92,0,0,1-.64-.89,4.39,4.39,0,0,1-.28-1.63,2.76,2.76,0,0,1,.27-1.25,2.37,2.37,0,0,1,.54-.78,2.51,2.51,0,0,1,.8-.56,2.25,2.25,0,0,1,1-.23,1.08,1.08,0,0,1,.59.15.18.18,0,0,1,.11.17.17.17,0,0,1,0,.13.21.21,0,0,1-.13.05.36.36,0,0,1-.13-.05,1,1,0,0,0-.44-.09,2.08,2.08,0,0,0-1.52.72,2.42,2.42,0,0,0-.68,1.71C270.92,281,270.93,281.14,270.94,281.34Zm-4-3.15v5.07h1.24a.22.22,0,0,1,.17.05.17.17,0,0,1,.06.14.16.16,0,0,1-.06.12.26.26,0,0,1-.17.05h-2.83a.34.34,0,0,1-.2-.05.18.18,0,0,1,0-.12.2.2,0,0,1,0-.14.28.28,0,0,1,.2-.05h1.23v-4.58l-1.18.36-.12,0a.16.16,0,0,1-.16-.18.18.18,0,0,1,0-.12.5.5,0,0,1,.15-.08Zm-4.21,3h-2.38v2.07h.47a.26.26,0,0,1,.19.05.16.16,0,0,1,.05.14.15.15,0,0,1-.05.12.31.31,0,0,1-.19.05h-1.25a.3.3,0,0,1-.18-.05.18.18,0,0,1-.05-.12.2.2,0,0,1,.05-.14.24.24,0,0,1,.18-.05H260V279h-.22a.34.34,0,0,1-.2-.05.2.2,0,0,1-.05-.14.17.17,0,0,1,.05-.12.34.34,0,0,1,.2-.05h1.06a.31.31,0,0,1,.19.05.13.13,0,0,1,.05.12.16.16,0,0,1-.05.14.31.31,0,0,1-.19.05h-.47v1.87h2.38V279h-.48a.34.34,0,0,1-.2-.05.16.16,0,0,1-.05-.14.13.13,0,0,1,.05-.12.34.34,0,0,1,.2-.05h1.06a.26.26,0,0,1,.18.05.15.15,0,0,1,.07.12.17.17,0,0,1-.07.14.26.26,0,0,1-.18.05h-.23v4.28h.41a.23.23,0,0,1,.18.05.17.17,0,0,1,.06.14.16.16,0,0,1-.06.12.28.28,0,0,1-.18.05h-1.24a.34.34,0,0,1-.2-.05.15.15,0,0,1-.05-.12.16.16,0,0,1,.05-.14.28.28,0,0,1,.2-.05h.48ZM257.54,279v-.12a.26.26,0,0,1,0-.18.17.17,0,0,1,.14-.06.13.13,0,0,1,.12.06.26.26,0,0,1,.05.18v.92a.3.3,0,0,1-.05.18.12.12,0,0,1-.12.05.15.15,0,0,1-.13-.05.23.23,0,0,1,0-.17.94.94,0,0,0-.37-.65,1.42,1.42,0,0,0-.92-.28,1.39,1.39,0,0,0-.95.31.94.94,0,0,0-.35.72.7.7,0,0,0,.1.38.81.81,0,0,0,.26.29,1.4,1.4,0,0,0,.37.17,4.34,4.34,0,0,0,.64.14,4.8,4.8,0,0,1,1,.25,1.18,1.18,0,0,1,.56.46,1.25,1.25,0,0,1,.2.7,1.35,1.35,0,0,1-.5,1.05,1.91,1.91,0,0,1-1.32.43,2,2,0,0,1-1.51-.59v.21a.32.32,0,0,1,0,.19.17.17,0,0,1-.12.05.17.17,0,0,1-.13-.05.26.26,0,0,1-.05-.19v-1a.26.26,0,0,1,.05-.19.15.15,0,0,1,.13-.06.17.17,0,0,1,.12.06.25.25,0,0,1,0,.16,1,1,0,0,0,.43.73,1.75,1.75,0,0,0,1.08.31,1.57,1.57,0,0,0,1.06-.34,1,1,0,0,0,.4-.8.81.81,0,0,0-.15-.49,1,1,0,0,0-.45-.35,3.34,3.34,0,0,0-.86-.21,3.09,3.09,0,0,1-1.28-.45,1.06,1.06,0,0,1-.39-.88,1.23,1.23,0,0,1,.44-1,1.69,1.69,0,0,1,1.19-.41A1.9,1.9,0,0,1,257.54,279Zm-5.5,2.61-1-2.61h-.14l-1,2.61Zm.13.36h-2.35l-.48,1.31H250a.23.23,0,0,1,.18.05.17.17,0,0,1,.06.14.16.16,0,0,1-.06.12.28.28,0,0,1-.18.05h-1.34a.33.33,0,0,1-.19-.05.18.18,0,0,1-.05-.12.2.2,0,0,1,.05-.14.27.27,0,0,1,.19-.05H249l1.59-4.28h-1a.32.32,0,0,1-.2-.05.16.16,0,0,1,0-.14.13.13,0,0,1,0-.12.32.32,0,0,1,.2-.05h1.8l1.76,4.64h.27c.09,0,.15,0,.18.05a.14.14,0,0,1,.06.14.13.13,0,0,1-.06.12.26.26,0,0,1-.18.05H252a.34.34,0,0,1-.2-.05.15.15,0,0,1,0-.12.16.16,0,0,1,0-.14.28.28,0,0,1,.2-.05h.68Zm-5.22-.76h-2.37v2.07h.48a.23.23,0,0,1,.18.05.17.17,0,0,1,.06.14.16.16,0,0,1-.06.12.28.28,0,0,1-.18.05h-1.25a.33.33,0,0,1-.19-.05.18.18,0,0,1-.05-.12.2.2,0,0,1,.05-.14.27.27,0,0,1,.19-.05h.41V279H244a.32.32,0,0,1-.2-.05.16.16,0,0,1-.05-.14.13.13,0,0,1,.05-.12.32.32,0,0,1,.2-.05h1.06a.28.28,0,0,1,.18.05.14.14,0,0,1,.06.12.17.17,0,0,1-.06.14.28.28,0,0,1-.18.05h-.48v1.87H247V279h-.47a.39.39,0,0,1-.2-.05.2.2,0,0,1-.05-.14.17.17,0,0,1,.05-.12.39.39,0,0,1,.2-.05h1.06a.29.29,0,0,1,.19.05.14.14,0,0,1,.06.12.17.17,0,0,1-.06.14.29.29,0,0,1-.19.05h-.22v4.28h.41c.08,0,.14,0,.17.05a.17.17,0,0,1,.06.14.16.16,0,0,1-.06.12.25.25,0,0,1-.17.05h-1.25a.39.39,0,0,1-.2-.05.18.18,0,0,1-.05-.12.2.2,0,0,1,.05-.14.31.31,0,0,1,.2-.05H247ZM242.87,286h-4.78a.3.3,0,0,1-.18,0,.2.2,0,0,1,0-.14.17.17,0,0,1,0-.12.24.24,0,0,1,.18,0h4.78c.09,0,.16,0,.19,0a.16.16,0,0,1,0,.12.2.2,0,0,1,0,.14A.29.29,0,0,1,242.87,286Zm-8.41-4.81h1.14a1.6,1.6,0,0,0,.75-.18,1.13,1.13,0,0,0,.5-.43,1,1,0,0,0,.16-.52,1,1,0,0,0-.37-.76,1.25,1.25,0,0,0-.91-.34h-1.27Zm0,.36v1.69h1.23c.08,0,.14,0,.17.05a.17.17,0,0,1,.06.14.16.16,0,0,1-.06.12.25.25,0,0,1-.17.05h-2.08a.31.31,0,0,1-.19-.05.17.17,0,0,1,0-.12.2.2,0,0,1,0-.14.26.26,0,0,1,.19-.05h.48V279h-.48a.31.31,0,0,1-.19-.05.2.2,0,0,1,0-.14.16.16,0,0,1,0-.12.31.31,0,0,1,.19-.05h2.09a1.64,1.64,0,0,1,1.19.43,1.36,1.36,0,0,1,.48,1,1.33,1.33,0,0,1-.15.63,1.37,1.37,0,0,1-.36.42,2,2,0,0,1-.67.35,1.89,1.89,0,0,1-.62.09Zm-2.64-.44a2.63,2.63,0,0,0-.52-1.58,1.55,1.55,0,0,0-1.31-.69,1.62,1.62,0,0,0-1.3.66,2.54,2.54,0,0,0-.54,1.61,2.35,2.35,0,0,0,.57,1.63,1.66,1.66,0,0,0,1.27.64,1.55,1.55,0,0,0,1.31-.69A2.6,2.6,0,0,0,231.82,281.13Zm.35,0a2.83,2.83,0,0,1-.3,1.33,2.21,2.21,0,0,1-.79,1,2,2,0,0,1-1.09.34,2,2,0,0,1-1.53-.74,3,3,0,0,1,0-3.78,2,2,0,0,1,1.53-.73,1.91,1.91,0,0,1,1.09.35,2.1,2.1,0,0,1,.79.94A2.88,2.88,0,0,1,232.17,281.13Zm-13.48.08h1.15a1.59,1.59,0,0,0,.74-.18,1.08,1.08,0,0,0,.5-.43,1,1,0,0,0,.16-.52,1,1,0,0,0-.36-.76A1.28,1.28,0,0,0,220,279h-1.27Zm0,.36v1.69h1.24a.22.22,0,0,1,.17.05.17.17,0,0,1,.06.14.16.16,0,0,1-.06.12.26.26,0,0,1-.17.05h-2.08a.29.29,0,0,1-.19-.05.18.18,0,0,1,0-.12.2.2,0,0,1,0-.14s.09-.05.19-.05h.49V279h-.49a.29.29,0,0,1-.19-.05.2.2,0,0,1,0-.14.17.17,0,0,1,0-.12.29.29,0,0,1,.19-.05h2.09a1.66,1.66,0,0,1,1.19.43,1.38,1.38,0,0,1,.47,1,1.33,1.33,0,0,1-.15.63,1.25,1.25,0,0,1-.36.42,1.88,1.88,0,0,1-.67.35,1.78,1.78,0,0,1-.61.09ZM216,279v3a1.73,1.73,0,0,1-.51,1.27,1.64,1.64,0,0,1-1.22.51,1.77,1.77,0,0,1-.84-.2,1.68,1.68,0,0,1-.64-.63,1.89,1.89,0,0,1-.26-.95v-3h-.3a.26.26,0,0,1-.18-.05.16.16,0,0,1-.05-.14.17.17,0,0,1,.05-.13.26.26,0,0,1,.18,0h1.32a.31.31,0,0,1,.19.05.14.14,0,0,1,.06.12.17.17,0,0,1-.06.14.31.31,0,0,1-.19.05h-.66v3a1.4,1.4,0,0,0,.4,1,1.34,1.34,0,0,0,1,.41,1.42,1.42,0,0,0,.65-.16,1.52,1.52,0,0,0,.51-.5,1.43,1.43,0,0,0,.22-.76v-3h-.66a.33.33,0,0,1-.19-.05.2.2,0,0,1,0-.14.16.16,0,0,1,0-.12.33.33,0,0,1,.19-.05h1.32a.31.31,0,0,1,.19.05.14.14,0,0,1,.06.12.17.17,0,0,1-.06.14.31.31,0,0,1-.19.05Zm-8,4.28h1.3a1.39,1.39,0,0,0,.85-.29,1.94,1.94,0,0,0,.8-1.53v-.65a1.55,1.55,0,0,0-.11-.59,2.68,2.68,0,0,0-.44-.72,1.27,1.27,0,0,0-.45-.34,1.42,1.42,0,0,0-.65-.16h-1.3Zm-.36,0V279h-.3a.34.34,0,0,1-.2-.05.2.2,0,0,1-.05-.14.17.17,0,0,1,.05-.12.34.34,0,0,1,.2-.05h1.93a1.67,1.67,0,0,1,.81.19,1.5,1.5,0,0,1,.58.42,2.87,2.87,0,0,1,.52.86,2.06,2.06,0,0,1,.13.78v.5a2.57,2.57,0,0,1-.25,1.07,2.35,2.35,0,0,1-.81.89,1.71,1.71,0,0,1-1,.29h-1.93a.34.34,0,0,1-.2-.05.18.18,0,0,1-.05-.12.2.2,0,0,1,.05-.14.28.28,0,0,1,.2-.05ZM206.09,286h-4.78a.28.28,0,0,1-.18,0,.17.17,0,0,1-.06-.14.14.14,0,0,1,.06-.12.23.23,0,0,1,.18,0h4.78c.09,0,.15,0,.18,0a.13.13,0,0,1,0,.12.16.16,0,0,1,0,.14A.26.26,0,0,1,206.09,286Zm-8.42-4.81h1.15a1.59,1.59,0,0,0,.74-.18,1.13,1.13,0,0,0,.5-.43,1,1,0,0,0,.16-.52,1,1,0,0,0-.36-.76,1.26,1.26,0,0,0-.92-.34h-1.27Zm0,.36v1.69h1.23c.09,0,.15,0,.18.05a.17.17,0,0,1,.06.14.16.16,0,0,1-.06.12.26.26,0,0,1-.18.05h-2.07a.27.27,0,0,1-.19-.05.18.18,0,0,1,0-.12.2.2,0,0,1,0-.14s.09-.05.19-.05h.48V279h-.48a.27.27,0,0,1-.19-.05.2.2,0,0,1,0-.14.17.17,0,0,1,0-.12.27.27,0,0,1,.19-.05h2.09a1.66,1.66,0,0,1,1.19.43,1.39,1.39,0,0,1,.48,1,1.46,1.46,0,0,1-.15.63,1.52,1.52,0,0,1-.36.42,2,2,0,0,1-.67.35,1.85,1.85,0,0,1-.62.09Zm-2.64-.44a2.62,2.62,0,0,0-.51-1.58,1.57,1.57,0,0,0-1.32-.69,1.62,1.62,0,0,0-1.29.66,2.49,2.49,0,0,0-.54,1.61,2.39,2.39,0,0,0,.56,1.63,1.7,1.7,0,0,0,1.27.64,1.57,1.57,0,0,0,1.32-.69A2.6,2.6,0,0,0,195,281.13Zm.36,0a3,3,0,0,1-.3,1.33,2.36,2.36,0,0,1-.79,1,2,2,0,0,1-1.1.34,2,2,0,0,1-1.53-.74,3,3,0,0,1,0-3.78,2,2,0,0,1,1.53-.73,2,2,0,0,1,1.1.35,2.23,2.23,0,0,1,.79.94A3,3,0,0,1,195.39,281.13Zm-10.5,0L181,283.3l-.14.05a.17.17,0,0,1-.13-.05.19.19,0,0,1-.05-.14c0-.06.05-.13.15-.19l3.32-1.84-3.32-1.85c-.1,0-.15-.11-.15-.19a.13.13,0,0,1,.05-.12.17.17,0,0,1,.14-.05.26.26,0,0,1,.13.05Zm-7.44,2.49-1.67-3.33h-.11a.24.24,0,0,1-.18-.06.18.18,0,0,1-.06-.13.29.29,0,0,1,0-.1s0-.06.07-.06a.29.29,0,0,1,.14,0h1a.22.22,0,0,1,.18.06.17.17,0,0,1,0,.26.22.22,0,0,1-.18.06h-.48l1.47,2.93,1.44-2.93h-.48a.25.25,0,0,1-.19-.06.19.19,0,0,1,0-.26.25.25,0,0,1,.19-.06h1a.21.21,0,0,1,.17.06.16.16,0,0,1,.07.13.21.21,0,0,1,0,.11.17.17,0,0,1-.08.06.8.8,0,0,1-.23,0l-2.27,4.62h.55a.31.31,0,0,1,.19,0,.19.19,0,0,1,0,.26.31.31,0,0,1-.19,0H175.7a.26.26,0,0,1-.19,0,.17.17,0,0,1,0-.13.21.21,0,0,1,0-.13.31.31,0,0,1,.19,0h1.12Zm-3.7-2.13a1.53,1.53,0,0,0-.56-1,1.66,1.66,0,0,0-1.09-.37,1.6,1.6,0,0,0-1.07.37,1.58,1.58,0,0,0-.56,1Zm.37.36h-3.67a1.75,1.75,0,0,0,1.81,1.55,2.8,2.8,0,0,0,.83-.13,2.19,2.19,0,0,0,.72-.34.23.23,0,0,1,.14-.08.14.14,0,0,1,.12.06.16.16,0,0,1,.06.12.16.16,0,0,1-.07.14,1.92,1.92,0,0,1-.73.4,3.31,3.31,0,0,1-1.07.19,2.16,2.16,0,0,1-1.56-.6,2,2,0,0,1-.61-1.47,1.81,1.81,0,0,1,.57-1.34,2,2,0,0,1,1.44-.56,1.93,1.93,0,0,1,1.45.57A2,2,0,0,1,174.12,281.85Zm-7.93.17v1.6h-.84a.33.33,0,0,1-.19-.05.18.18,0,0,1,0-.12.2.2,0,0,1,0-.14.27.27,0,0,1,.19-.05h.49v-4.64h-.49a.33.33,0,0,1-.19-.05.2.2,0,0,1,0-.14.17.17,0,0,1,0-.12.27.27,0,0,1,.19-.05h.84v3.31l1.52-1.28h-.17a.28.28,0,0,1-.2-.06.19.19,0,0,1,0-.26.28.28,0,0,1,.2-.06h1.14a.25.25,0,0,1,.19.06.17.17,0,0,1,0,.26.25.25,0,0,1-.19.06h-.41l-1.4,1.17,1.78,1.8h.4c.09,0,.16,0,.19.05a.17.17,0,0,1,.06.14.16.16,0,0,1-.06.12.29.29,0,0,1-.19.05h-1.17a.32.32,0,0,1-.18-.05.18.18,0,0,1,0-.12.2.2,0,0,1,0-.14.26.26,0,0,1,.18-.05h.27l-1.55-1.58Zm-6.73-.89,3.88-2.16a.24.24,0,0,1,.14-.05.15.15,0,0,1,.12.05.14.14,0,0,1,.06.12c0,.08,0,.14-.15.19l-3.33,1.85,3.33,1.84a.26.26,0,0,1,.14.19.24.24,0,0,1-.05.14.18.18,0,0,1-.12.05.43.43,0,0,1-.15-.05Zm-6.09,0-3.88,2.17-.15.05a.17.17,0,0,1-.13-.05.19.19,0,0,1-.05-.14c0-.06.05-.13.15-.19l3.32-1.84-3.32-1.85c-.1,0-.15-.11-.15-.19a.13.13,0,0,1,.05-.12.19.19,0,0,1,.14-.05.33.33,0,0,1,.14.05Zm-6.27.53a1.48,1.48,0,0,0-.43-1.08,1.38,1.38,0,0,0-1-.43,1.4,1.4,0,0,0-1,.45,1.43,1.43,0,0,0-.43,1.06,1.49,1.49,0,0,0,.43,1.08,1.42,1.42,0,0,0,1,.43,1.38,1.38,0,0,0,1-.43A1.49,1.49,0,0,0,147.1,281.66Zm0-1.09v-.66H148a.24.24,0,0,1,.18.06.19.19,0,0,1,0,.26.24.24,0,0,1-.18.06h-.49v3.58a1.38,1.38,0,0,1-.14.65,1.7,1.7,0,0,1-.35.39,2.62,2.62,0,0,1-.44.28,1.45,1.45,0,0,1-.52.08h-1a.26.26,0,0,1-.19,0,.17.17,0,0,1-.05-.13.24.24,0,0,1,.05-.14.32.32,0,0,1,.19,0h1a1,1,0,0,0,.56-.16,1.33,1.33,0,0,0,.44-.47,1.26,1.26,0,0,0,.08-.46v-1.08a1.78,1.78,0,0,1-2.76.25,1.9,1.9,0,0,1-.53-1.33,1.83,1.83,0,0,1,.53-1.32,1.72,1.72,0,0,1,1.29-.55A1.75,1.75,0,0,1,147.1,280.57Zm-6.26-.66v3.35h1.41a.23.23,0,0,1,.18.05.15.15,0,0,1,.07.14.14.14,0,0,1-.07.12.28.28,0,0,1-.18.05h-3.19a.3.3,0,0,1-.18-.05.15.15,0,0,1,0-.12.16.16,0,0,1,0-.14.24.24,0,0,1,.18-.05h1.42v-3h-1.06a.24.24,0,0,1-.18-.06.19.19,0,0,1,0-.26.24.24,0,0,1,.18-.06Zm0-1.84V279h-.54v-.94Zm-4.25,2.08a.28.28,0,0,1,0-.18.16.16,0,0,1,.12-.06.17.17,0,0,1,.14.06.26.26,0,0,1,.05.19v.61a.28.28,0,0,1-.05.2.2.2,0,0,1-.14,0,.18.18,0,0,1-.12,0,.22.22,0,0,1,0-.16.55.55,0,0,0-.27-.42,1.61,1.61,0,0,0-.92-.24,1.54,1.54,0,0,0-.95.25.5.5,0,0,0-.25.41.51.51,0,0,0,.3.42,2.18,2.18,0,0,0,.79.19,4.9,4.9,0,0,1,1,.18,1.33,1.33,0,0,1,.62.42.92.92,0,0,1,.2.57,1.07,1.07,0,0,1-.44.82,2,2,0,0,1-1.29.35,2.14,2.14,0,0,1-1.39-.43.41.41,0,0,1,0,.19s0,.05-.06.08l-.09,0a.22.22,0,0,1-.14-.05.32.32,0,0,1,0-.19v-.74a.3.3,0,0,1,0-.18.18.18,0,0,1,.14-.06.18.18,0,0,1,.13.06.22.22,0,0,1,0,.14.58.58,0,0,0,.09.33,1.12,1.12,0,0,0,.48.34,2.15,2.15,0,0,0,.81.13,1.77,1.77,0,0,0,1-.25.72.72,0,0,0,.34-.56.59.59,0,0,0-.33-.54,2.7,2.7,0,0,0-1-.26,4.08,4.08,0,0,1-1-.19.88.88,0,0,1-.44-.33.8.8,0,0,1-.17-.48.83.83,0,0,1,.45-.73,2.1,2.1,0,0,1,1.09-.27A2,2,0,0,1,136.58,280.15Zm-8.65,1,3.88-2.16a.26.26,0,0,1,.14-.05.13.13,0,0,1,.12.05.12.12,0,0,1,.06.12c0,.08,0,.14-.15.19l-3.33,1.85L132,283a.24.24,0,0,1,.14.19.19.19,0,0,1-.05.14.17.17,0,0,1-.12.05l-.15-.05Z" transform="translate(-120.58 -189.93)"/>
      <line class="cls-18" x1="176.89" y1="9.58" x2="209.31" y2="9.58"/>
      <rect class="cls-4" x="0.5" y="0.5" width="171.17" height="37.33" rx="2"/>
      <line class="cls-6" x1="90.83" y1="0.64" x2="90.83" y2="37.31"/>
      <rect class="cls-7" x="0.5" y="0.5" width="171.17" height="37.33" rx="2"/>
      <text class="cls-5" transform="translate(33.7 13.62)">0</text>
      <text class="cls-5" transform="translate(33.7 30.62)">3</text>
      <text class="cls-5" transform="translate(94.77 13.62)">0.1</text>
      <g>
        <path class="cls-19" d="M126.32,217.3l-1.7-1.91a11.09,11.09,0,0,1,7.34.37,6.5,6.5,0,0,0,3.74.47,4,4,0,0,0,2.43-1.44c.72-.8,1.54-1.71,4.32-2l1.35,2c-2.2.22-2.78.85-3.45,1.59a5,5,0,0,1-3.08,1.8,9.46,9.46,0,0,1-5.15-.6A8.44,8.44,0,0,0,126.32,217.3Z" transform="translate(-120.58 -189.93)"/>
        <path class="cls-19" d="M129.65,219.12l-1.71-1.91a11,11,0,0,1,7.34.37,6.6,6.6,0,0,0,3.74.47,3.87,3.87,0,0,0,2.43-1.45c.73-.8,1.55-1.7,4.32-2l1.35,2c-2.2.22-2.77.85-3.45,1.59a5,5,0,0,1-3.08,1.8,9.46,9.46,0,0,1-5.15-.6A8.36,8.36,0,0,0,129.65,219.12Z" transform="translate(-120.58 -189.93)"/>
        <path class="cls-19" d="M128.91,221.15l-1.7-1.92a11.09,11.09,0,0,1,7.34.37,6.57,6.57,0,0,0,3.73.48,3.87,3.87,0,0,0,2.43-1.45c.73-.8,1.55-1.7,4.32-2l1.36,2c-2.2.21-2.78.85-3.45,1.59a5.09,5.09,0,0,1-3.09,1.8,9.58,9.58,0,0,1-5.15-.6A8.35,8.35,0,0,0,128.91,221.15Z" transform="translate(-120.58 -189.93)"/>
        <path class="cls-19" d="M132.29,223l-1.7-1.92a11.09,11.09,0,0,1,7.34.37,6.58,6.58,0,0,0,3.73.48,3.88,3.88,0,0,0,2.43-1.45c.73-.8,1.55-1.71,4.33-2l1.35,2c-2.2.21-2.78.85-3.45,1.59a5,5,0,0,1-3.09,1.79,9.39,9.39,0,0,1-5.15-.6A8.35,8.35,0,0,0,132.29,223Z" transform="translate(-120.58 -189.93)"/>
        <path class="cls-19" d="M126.84,215.21l-1.7-1.91a11.09,11.09,0,0,1,7.34.37,6.57,6.57,0,0,0,3.73.48,3.87,3.87,0,0,0,2.43-1.45c.73-.8,1.55-1.71,4.32-2l1.36,2a4.32,4.32,0,0,0-3.45,1.58,5,5,0,0,1-3.09,1.8,9.48,9.48,0,0,1-5.15-.6A8.41,8.41,0,0,0,126.84,215.21Z" transform="translate(-120.58 -189.93)"/>
        <polygon points="6.37 23.58 8.69 23.38 9.7 23.91 8.19 23.82 6.37 23.58"/>
        <polygon points="12.31 24.76 14.79 25.7 16.39 25.19 14.35 24.93 12.31 24.76"/>
        <polygon points="13.28 27.75 11.54 27.66 10.82 28.14 12.59 27.96 14.86 28.87 16.28 28.85 14.32 28.09 13.28 27.75"/>
        <path d="M144.15,217.48c-.44,0-1.57.3-1.57.3l-.87,1.42,1.22-.86,1.9-.26Z" transform="translate(-120.58 -189.93)"/>
        <polygon points="24.47 31.04 23.66 32.05 21.83 32.63 22.86 33.07 24.37 32.45 24.47 31.04"/>
        <polygon points="16.8 31.98 15.02 31.44 13.66 31.77 15.29 31.88 16.8 31.98"/>
        <polygon points="10.9 29.78 9.89 29.96 11.3 30.04 10.9 29.78"/>
        <polygon class="cls-20" points="19.12 23.71 17.87 24.06 16.39 25.19 18.42 24.74 19.12 23.71"/>
        <polygon class="cls-20" points="20.72 29.83 19.07 30.64 18.89 31.13 20.48 30.72 20.72 29.83"/>
        <polygon class="cls-20" points="27.78 29.32 25.93 30 25.8 30.9 27.33 30.18 27.78 29.32"/>
        <polygon class="cls-20" points="9.79 29.23 8.54 30.29 8.09 29.62 9.79 29.23"/>
        <polygon class="cls-21" points="17.33 26.95 15.06 26.75 16.29 27.32 17.33 26.95"/>
        <path class="cls-21" d="M140.13,222.46,138,222s1.09.75,1.4.89a15.38,15.38,0,0,0,2.14.28Z" transform="translate(-120.58 -189.93)"/>
        <polygon class="cls-21" points="10.53 27.18 8.66 27.25 9.38 28.26 10.53 27.18"/>
        <path class="cls-21" d="M142.29,211.63l-2.09.85s-.84,1.21-.5,1.15a11.41,11.41,0,0,0,1.79-1Z" transform="translate(-120.58 -189.93)"/>
      </g>
      <path class="cls-9" d="M176.84,202c1.5.68,2.74-.57,4-.8.31.35-.05,1.06.13,1.46.91.66,2.68.42,3.36,1.32-.41.32-.95-.2-1.65-.39-1.22-.34-2.55-.14-2.09-1.92-1.09.51-2.92,1.46-4.18.59a9,9,0,0,1-1.27.66c-.5,1.07-.92,2.22-1.33,3.38-.88-.31-.91-1.52-2-1.65a2.88,2.88,0,0,0-.32,1c.25.07.51-.73.89-.53,0,.51-.54.93-1,1.13-.52-.34-.12-1.09,0-1.66a6.41,6.41,0,0,1-4,1.26,3.76,3.76,0,0,1-1.83-.53c-1.15-.86-.85-3.12-.07-4.17a5,5,0,0,1,2.92-1.66,16.75,16.75,0,0,0,.82-2c.36,0,.45-.1.57-.47,1.87-.73,4-1.16,5.57-2.25-1.94.36-4.07,1-6.08,1.59a4.33,4.33,0,0,1-1.9.4c.08-.4.6-.44.89-.53,1-.3,2.13-.61,3.23-.93a12.55,12.55,0,0,1,4.44-.86c0,.69-.69.89-1.15,1.13-1.37.71-3.26,1.23-4.81,1.85a5.46,5.46,0,0,0,1.39,1.92,11.46,11.46,0,0,1,2.22.26c.75-.91,1.38-2.13,2.09-3.17.19-.28.46-.76.82-.73-.11.77-.76,1.33-1.2,2s-.8,1.39-1.2,2.06c.47.32,1.23.34,1.39,1-.57.13-1-.49-1.52-.59a17.39,17.39,0,0,0-1.84,3.57,13.84,13.84,0,0,0,2.73-1.06,6.78,6.78,0,0,0,1-2.51,6.35,6.35,0,0,1,2.66-4.37,3.12,3.12,0,0,1,.38-.8c.24-.06.22.16.38.2a9.54,9.54,0,0,1,5.83-1.39c.38,0,1.27.14,1.26.66,0,.84-1.35,1.81-2,2.32A74.3,74.3,0,0,1,176.84,202Zm6.65-7.75c-1.74.15-3.83.7-4.75,1.79a15.15,15.15,0,0,0-1.27,2.45c-.47.88-1.63,2.26-1,3.24a66.25,66.25,0,0,0,7.47-5.09,5.6,5.6,0,0,0,2-2.26A5.43,5.43,0,0,0,183.49,194.28Zm-7.15,5.56c.38-1,1.13-1.94,1.39-2.84A5.3,5.3,0,0,0,176.34,199.84Zm-7.42-.39c.56-.13,1.3-.06,1.84-.2a9.53,9.53,0,0,1-1.2-1.53C169.4,198.35,169.12,198.85,168.92,199.45Zm-.12.39a7.73,7.73,0,0,0-.51,1.66c-.14.53-.18,1.29-.63,1.52-.16-.9.41-2.11.63-3a3.58,3.58,0,0,0-3.1,3.57c0,1.42,1.1,1.93,2.59,1.92,3.17,0,5.48-2.86,3.36-5.69A11,11,0,0,0,168.8,199.84Zm3.61,2.39c.34-.75.71-1.47,1.08-2.19a13.15,13.15,0,0,0-1.84-.26A6.86,6.86,0,0,1,172.41,202.23Zm3.1.06a2.48,2.48,0,0,0,.57-.26c0-.2,0-.47-.19-.53C175.79,201.79,175.62,202,175.51,202.29ZM172,204.35c.84.15,1.14.88,1.64,1.39a6.61,6.61,0,0,1,.89-2.32c0-.08,0-.16-.13-.14C173.77,203.79,172.74,203.89,172,204.35Z" transform="translate(-120.58 -189.93)"/>
      <g>
        <path class="cls-10" d="M204.7,205.57,198.28,199a4.19,4.19,0,0,0-6.7-4.76l-.1.11-.11.09a4.19,4.19,0,0,0,4.22,7l.53.55a1,1,0,0,1,1.32,1.35l.58.61a1,1,0,0,1,1.32,1.35l.59.61a1,1,0,0,1,1.31,1.35l.41.42,3.29-.17.21-.21Z" transform="translate(-120.58 -189.93)"/>
        <path class="cls-11" d="M205.15,207.23l-7.07-8.07a4.14,4.14,0,1,0-2.49,2.21l.53.55a1,1,0,0,1,1.32,1.35l.58.61a1,1,0,0,1,1.32,1.35l.59.61a1,1,0,0,1,1.31,1.35l.41.42,3.29-.17Z" transform="translate(-120.58 -189.93)"/>
        <path class="cls-22" d="M204.7,205.57,198.28,199a4.14,4.14,0,1,0-2.49,2.21l.54.55a1,1,0,0,1,1.31,1.35l.59.61a1,1,0,0,1,1.31,1.35l.59.61a1,1,0,0,1,1.31,1.35l.41.42,3.3-.18Z" transform="translate(-120.58 -189.93)"/>
        <path class="cls-23" d="M191.76,199.85a3.8,3.8,0,1,1,6.22-1l-.1.21,6.52,6.71.32,1.18-2.73.15-.13-.14a1.28,1.28,0,0,0-.33-1.34,1.3,1.3,0,0,0-1.33-.37L200,205a1.36,1.36,0,0,0-1.66-1.7l-.25-.26a1.28,1.28,0,0,0-.32-1.34,1.3,1.3,0,0,0-1.33-.36l-.51-.53-.2.07A3.84,3.84,0,0,1,191.76,199.85Z" transform="translate(-120.58 -189.93)"/>
        <path class="cls-14" d="M196.8,199.58a3.31,3.31,0,1,1,.06-4.68A3.31,3.31,0,0,1,196.8,199.58Z" transform="translate(-120.58 -189.93)"/>
        <text class="cls-15" transform="translate(70.69 5.85) rotate(45.85)">Pub</text>
      </g>
      <g>
        <path class="cls-10" d="M204.7,222.61,198.28,216a4.19,4.19,0,0,0-6.7-4.75l-.1.1-.11.1a4.19,4.19,0,0,0,4.22,7l.53.55a.91.91,0,0,1,1.17.19.9.9,0,0,1,.15,1.16l.58.61a1,1,0,0,1,1.32,1.35l.59.61a1,1,0,0,1,1.31,1.35l.41.42,3.29-.17.21-.2Z" transform="translate(-120.58 -189.93)"/>
        <path class="cls-11" d="M205.15,224.28l-7.07-8.08a4.14,4.14,0,1,0-2.49,2.21l.53.55a.91.91,0,0,1,1.17.19.9.9,0,0,1,.15,1.16l.58.61a1,1,0,0,1,1.32,1.35l.59.61a1,1,0,0,1,1.31,1.35l.41.42,3.29-.17Z" transform="translate(-120.58 -189.93)"/>
        <path class="cls-24" d="M204.7,222.61,198.28,216a4.14,4.14,0,1,0-2.49,2.21l.54.55a.91.91,0,0,1,1.16.19.89.89,0,0,1,.15,1.16l.59.61a1,1,0,0,1,1.31,1.35l.59.61a1,1,0,0,1,1.31,1.35l.41.42,3.3-.17Z" transform="translate(-120.58 -189.93)"/>
        <path class="cls-25" d="M191.76,216.9a3.8,3.8,0,1,1,6.22-1l-.1.21,6.52,6.71.32,1.18-2.73.15-.13-.14a1.36,1.36,0,0,0-1.66-1.7L200,222a1.32,1.32,0,0,0-.33-1.35,1.3,1.3,0,0,0-1.33-.36l-.25-.25a1.35,1.35,0,0,0-1.65-1.71l-.51-.52-.2.06A3.82,3.82,0,0,1,191.76,216.9Z" transform="translate(-120.58 -189.93)"/>
        <path class="cls-14" d="M196.8,216.62a3.31,3.31,0,1,1,.06-4.67A3.31,3.31,0,0,1,196.8,216.62Z" transform="translate(-120.58 -189.93)"/>
        <text class="cls-15" transform="translate(70.69 22.89) rotate(45.85)">Pub</text>
      </g>
      <path class="cls-9" d="M176.84,219.07c1.5.68,2.74-.56,4-.79.31.34-.05,1.05.13,1.45.91.66,2.68.42,3.36,1.33-.41.31-.95-.2-1.65-.4-1.22-.34-2.55-.13-2.09-1.92-1.09.51-2.92,1.47-4.18.6a10.14,10.14,0,0,1-1.27.66,35.47,35.47,0,0,0-1.33,3.38c-.88-.32-.91-1.53-2-1.66a3,3,0,0,0-.32,1c.25.07.51-.73.89-.53,0,.51-.54.93-1,1.13-.52-.33-.12-1.08,0-1.66a6.41,6.41,0,0,1-4,1.26,3.56,3.56,0,0,1-1.83-.53c-1.15-.86-.85-3.11-.07-4.17a5,5,0,0,1,2.92-1.66,16.08,16.08,0,0,0,.82-2c.36,0,.45-.1.57-.46,1.87-.74,4-1.16,5.57-2.26-1.94.36-4.07,1-6.08,1.59a4.2,4.2,0,0,1-1.9.4c.08-.39.6-.44.89-.53,1-.3,2.13-.61,3.23-.93a12.55,12.55,0,0,1,4.44-.86c0,.69-.69.89-1.15,1.13-1.37.72-3.26,1.23-4.81,1.85a5.46,5.46,0,0,0,1.39,1.92,11.43,11.43,0,0,1,2.22.27c.75-.91,1.38-2.14,2.09-3.18.19-.28.46-.76.82-.73-.11.77-.76,1.33-1.2,2s-.8,1.38-1.2,2c.47.33,1.23.35,1.39,1-.57.13-1-.49-1.52-.59a17.92,17.92,0,0,0-1.84,3.57,13.25,13.25,0,0,0,2.73-1.06,6.65,6.65,0,0,0,1-2.51,6.35,6.35,0,0,1,2.66-4.37,3.47,3.47,0,0,1,.38-.8c.24-.05.22.16.38.2a9.6,9.6,0,0,1,5.83-1.39c.38,0,1.27.14,1.26.66,0,.84-1.35,1.81-2,2.32A74.3,74.3,0,0,1,176.84,219.07Zm6.65-7.74c-1.74.14-3.83.7-4.75,1.78a16,16,0,0,0-1.27,2.45c-.47.88-1.63,2.26-1,3.25a67.67,67.67,0,0,0,7.47-5.1,5.64,5.64,0,0,0,2-2.25A5.29,5.29,0,0,0,183.49,211.33Zm-7.15,5.55c.38-1,1.13-1.94,1.39-2.84A5.33,5.33,0,0,0,176.34,216.88Zm-7.42-.39c.56-.12,1.3-.05,1.84-.2a9.91,9.91,0,0,1-1.2-1.52C169.4,215.39,169.12,215.9,168.92,216.49Zm-.12.39a7.91,7.91,0,0,0-.51,1.66c-.14.54-.18,1.29-.63,1.52-.16-.9.41-2.11.63-3a3.58,3.58,0,0,0-3.1,3.57c0,1.43,1.1,1.94,2.59,1.92,3.17,0,5.48-2.85,3.36-5.69A11.75,11.75,0,0,0,168.8,216.88Zm3.61,2.39c.34-.75.71-1.46,1.08-2.18a11.81,11.81,0,0,0-1.84-.27A6.92,6.92,0,0,1,172.41,219.27Zm3.1.07a3,3,0,0,0,.57-.27c0-.19,0-.46-.19-.53C175.79,218.83,175.62,219.06,175.51,219.34Zm-3.48,2c.84.15,1.14.88,1.64,1.39a6.61,6.61,0,0,1,.89-2.32c0-.08,0-.16-.13-.13C173.77,220.83,172.74,220.94,172,221.39Z" transform="translate(-120.58 -189.93)"/>
      <g>
        <path class="cls-19" d="M126.32,201.14l-1.7-1.92a11.15,11.15,0,0,1,7.34.37,6.59,6.59,0,0,0,3.74.48,3.93,3.93,0,0,0,2.43-1.45c.72-.8,1.54-1.7,4.32-2l1.35,2c-2.2.21-2.78.85-3.45,1.59a5,5,0,0,1-3.08,1.79,9.46,9.46,0,0,1-5.15-.59A8.38,8.38,0,0,0,126.32,201.14Z" transform="translate(-120.58 -189.93)"/>
        <path class="cls-19" d="M129.65,203,127.94,201a11.08,11.08,0,0,1,7.34.37,6.6,6.6,0,0,0,3.74.48,3.87,3.87,0,0,0,2.43-1.45c.73-.8,1.55-1.71,4.32-2l1.35,2a4.34,4.34,0,0,0-3.45,1.58,5,5,0,0,1-3.08,1.8,9.46,9.46,0,0,1-5.15-.6A8.41,8.41,0,0,0,129.65,203Z" transform="translate(-120.58 -189.93)"/>
        <path class="cls-19" d="M128.91,205l-1.7-1.91a11.09,11.09,0,0,1,7.34.37,6.56,6.56,0,0,0,3.73.47,3.87,3.87,0,0,0,2.43-1.45c.73-.79,1.55-1.7,4.32-2l1.36,2c-2.2.21-2.78.84-3.45,1.58a5,5,0,0,1-3.09,1.8,9.48,9.48,0,0,1-5.15-.6A8.35,8.35,0,0,0,128.91,205Z" transform="translate(-120.58 -189.93)"/>
        <path class="cls-19" d="M132.29,206.78l-1.7-1.91a11.09,11.09,0,0,1,7.34.36,6.5,6.5,0,0,0,3.73.48,3.84,3.84,0,0,0,2.43-1.45c.73-.8,1.55-1.7,4.33-2l1.35,2c-2.2.21-2.78.85-3.45,1.59a5,5,0,0,1-3.09,1.8,9.48,9.48,0,0,1-5.15-.6A8.35,8.35,0,0,0,132.29,206.78Z" transform="translate(-120.58 -189.93)"/>
        <path class="cls-19" d="M126.84,199.05l-1.7-1.91a11.16,11.16,0,0,1,7.34.36,6.57,6.57,0,0,0,3.73.48,3.87,3.87,0,0,0,2.43-1.45c.73-.8,1.55-1.7,4.32-2l1.36,2c-2.2.21-2.78.85-3.45,1.59a5,5,0,0,1-3.09,1.8,9.58,9.58,0,0,1-5.15-.6A8.35,8.35,0,0,0,126.84,199.05Z" transform="translate(-120.58 -189.93)"/>
        <polygon points="6.37 7.42 8.69 7.21 9.7 7.75 8.19 7.65 6.37 7.42"/>
        <polygon points="12.31 8.6 14.79 9.53 16.39 9.03 14.35 8.76 12.31 8.6"/>
        <polygon points="13.28 11.58 11.54 11.49 10.82 11.98 12.59 11.8 14.86 12.7 16.28 12.69 14.32 11.92 13.28 11.58"/>
        <path d="M144.15,201.31c-.44.05-1.57.31-1.57.31l-.87,1.42,1.22-.87,1.9-.26Z" transform="translate(-120.58 -189.93)"/>
        <polygon points="24.47 14.87 23.66 15.89 21.83 16.47 22.86 16.9 24.37 16.29 24.47 14.87"/>
        <polygon points="16.8 15.81 15.02 15.27 13.66 15.61 15.29 15.72 16.8 15.81"/>
        <polygon points="10.9 13.62 9.89 13.79 11.3 13.87 10.9 13.62"/>
        <polygon class="cls-20" points="19.12 7.54 17.87 7.89 16.39 9.03 18.42 8.58 19.12 7.54"/>
        <polygon class="cls-20" points="20.72 13.67 19.07 14.48 18.89 14.96 20.48 14.56 20.72 13.67"/>
        <polygon class="cls-20" points="27.78 13.16 25.93 13.84 25.8 14.74 27.33 14.02 27.78 13.16"/>
        <polygon class="cls-20" points="9.79 13.06 8.54 14.13 8.09 13.46 9.79 13.06"/>
        <polygon class="cls-21" points="17.33 10.78 15.06 10.59 16.29 11.15 17.33 10.78"/>
        <path class="cls-21" d="M140.13,206.3l-2.11-.48s1.09.76,1.4.9a15.38,15.38,0,0,0,2.14.28Z" transform="translate(-120.58 -189.93)"/>
        <polygon class="cls-21" points="10.53 11.02 8.66 11.08 9.38 12.09 10.53 11.02"/>
        <path class="cls-21" d="M142.29,195.46l-2.09.85s-.84,1.22-.5,1.16a12.29,12.29,0,0,0,1.79-1Z" transform="translate(-120.58 -189.93)"/>
      </g>
      <polygon class="cls-26" points="235.17 55.72 168.5 20.17 130.33 20.17 1.42 55.72 235.17 55.72"/>
      <rect class="cls-17" x="1.42" y="55.71" width="233.75" height="14.96"/>
      <path d="M352.1,254.54a1.12,1.12,0,0,0-.37-.83,1.38,1.38,0,0,0-1.86,0,1.08,1.08,0,0,0-.37.82,1.15,1.15,0,0,0,.37.86,1.27,1.27,0,0,0,.93.37,1.26,1.26,0,0,0,.93-.37A1.17,1.17,0,0,0,352.1,254.54Zm-.1-2.6a1.1,1.1,0,0,0-.35-.81,1.16,1.16,0,0,0-.85-.34,1.15,1.15,0,0,0-.85.34,1.06,1.06,0,0,0-.35.8,1,1,0,0,0,.34.74,1.19,1.19,0,0,0,.86.32,1.17,1.17,0,0,0,.85-.32A1,1,0,0,0,352,251.94Zm-.46,1.23a1.62,1.62,0,0,1,.69.59,1.44,1.44,0,0,1,.23.77,1.5,1.5,0,0,1-.49,1.12,1.62,1.62,0,0,1-1.17.47,1.65,1.65,0,0,1-1.18-.47,1.5,1.5,0,0,1-.49-1.12,1.37,1.37,0,0,1,.24-.77,1.68,1.68,0,0,1,.69-.59,1.81,1.81,0,0,1-.58-.47,1.32,1.32,0,0,1-.25-.78,1.38,1.38,0,0,1,.46-1,1.55,1.55,0,0,1,1.11-.46,1.52,1.52,0,0,1,1.11.46,1.39,1.39,0,0,1,.47,1,1.33,1.33,0,0,1-.26.78A1.81,1.81,0,0,1,351.54,253.17Zm-5,1a4.29,4.29,0,0,0-.54-.11,5.74,5.74,0,0,0-.6,0,2,2,0,0,0-1.24.34.73.73,0,0,0-.34.61.72.72,0,0,0,.25.56,1.15,1.15,0,0,0,.76.22,2,2,0,0,0,.87-.19,3.16,3.16,0,0,0,.84-.59Zm0,1.81v-.52a2.61,2.61,0,0,1-1.69.67,1.5,1.5,0,0,1-1-.33,1.08,1.08,0,0,1-.36-.82,1.16,1.16,0,0,1,.48-.92,2.18,2.18,0,0,1,1.42-.4,3.44,3.44,0,0,1,.54,0,5.59,5.59,0,0,1,.64.1v-.59a.64.64,0,0,0-.28-.52,1.28,1.28,0,0,0-.83-.23,4.34,4.34,0,0,0-1.19.25l-.18.05a.21.21,0,0,1-.12-.05.22.22,0,0,1-.05-.14.15.15,0,0,1,0-.11,1.59,1.59,0,0,1,.5-.18,4.36,4.36,0,0,1,1-.18,1.53,1.53,0,0,1,1.07.34,1,1,0,0,1,.39.77v2.41h.48c.09,0,.16,0,.19.05a.17.17,0,0,1,0,.26s-.1.05-.19.05Zm-4.58-1.87a1.59,1.59,0,0,0-.48-1.16,1.5,1.5,0,0,0-1.1-.49,1.53,1.53,0,0,0-1.11.49,1.71,1.71,0,0,0,0,2.33,1.52,1.52,0,0,0,1.11.48,1.49,1.49,0,0,0,1.1-.48A1.59,1.59,0,0,0,341.94,254.12Zm-3.16-3.56V253a2,2,0,0,1,1.59-.86,1.8,1.8,0,0,1,1.36.59,1.92,1.92,0,0,1,.57,1.41,2,2,0,0,1-.58,1.44,1.83,1.83,0,0,1-1.35.59,1.91,1.91,0,0,1-1.59-.86V256h-.86a.27.27,0,0,1-.19-.05.19.19,0,0,1,0-.26.27.27,0,0,1,.19-.05h.49v-4.71h-.49a.33.33,0,0,1-.19,0,.19.19,0,0,1,0-.26.27.27,0,0,1,.19-.05Zm-2.44,2.05v-.12a.29.29,0,0,1,.05-.19.18.18,0,0,1,.14-.06.18.18,0,0,1,.13.06.29.29,0,0,1,0,.19v.82a.31.31,0,0,1,0,.19.17.17,0,0,1-.13.05.18.18,0,0,1-.13,0,.3.3,0,0,1-.06-.17.87.87,0,0,0-.4-.59,1.71,1.71,0,0,0-1-.28,1.48,1.48,0,0,0-1.23.52,1.7,1.7,0,0,0-.43,1.16,1.58,1.58,0,0,0,.46,1.16,1.66,1.66,0,0,0,1.21.46,2.75,2.75,0,0,0,.87-.15,2.33,2.33,0,0,0,.79-.51.27.27,0,0,1,.16-.08.17.17,0,0,1,.18.17c0,.12-.15.28-.44.47a2.82,2.82,0,0,1-1.58.47,2,2,0,0,1-1.44-.56,1.92,1.92,0,0,1-.56-1.43,2,2,0,0,1,.57-1.45,1.94,1.94,0,0,1,1.46-.59A2.05,2.05,0,0,1,336.34,252.61Zm-7.85,1.68a2.29,2.29,0,0,0,.52,1.13,1.17,1.17,0,0,0,.84.34,1.1,1.1,0,0,0,.83-.38,1.41,1.41,0,0,0,.35-1,1.33,1.33,0,0,0-.35-.94,1.07,1.07,0,0,0-.79-.37,1.19,1.19,0,0,0-.81.36A3.44,3.44,0,0,0,328.49,254.29Zm-.08-.6a2.59,2.59,0,0,1,.7-.73,1.36,1.36,0,0,1,.79-.24,1.35,1.35,0,0,1,1,.49,1.65,1.65,0,0,1,.45,1.18,1.87,1.87,0,0,1-.41,1.19,1.34,1.34,0,0,1-1.13.54,1.45,1.45,0,0,1-.88-.29,1.93,1.93,0,0,1-.65-.89,4.63,4.63,0,0,1-.28-1.66,3,3,0,0,1,.27-1.27,2.53,2.53,0,0,1,.55-.8,3,3,0,0,1,.81-.57,2.4,2.4,0,0,1,1-.22,1.13,1.13,0,0,1,.61.15.22.22,0,0,1,.1.18.21.21,0,0,1-.05.13.16.16,0,0,1-.12,0,.24.24,0,0,1-.13,0,1,1,0,0,0-.45-.09,2.08,2.08,0,0,0-1.54.73,2.42,2.42,0,0,0-.69,1.73C328.39,253.34,328.4,253.49,328.41,253.69Zm-3-2.6v-.17h-2.61v.32a.31.31,0,0,1-.05.19.17.17,0,0,1-.13,0,.19.19,0,0,1-.13,0,.25.25,0,0,1-.06-.19v-.68h3.35v.57l-1.47,4.69a.26.26,0,0,1-.08.14.15.15,0,0,1-.11,0,.17.17,0,0,1-.18-.18.36.36,0,0,1,0-.11Zm-6.37-.61v5.15h1.25c.09,0,.15,0,.18.05a.17.17,0,0,1,0,.26s-.09.05-.18.05h-2.86a.26.26,0,0,1-.19-.05.17.17,0,0,1,0-.26.26.26,0,0,1,.19-.05h1.25V251l-1.19.37-.12,0a.17.17,0,0,1-.18-.18.28.28,0,0,1,0-.12.53.53,0,0,1,.15-.07ZM314.27,253a1.78,1.78,0,0,1,.77.62,1.41,1.41,0,0,1,.27.82,1.59,1.59,0,0,1-.53,1.16,1.89,1.89,0,0,1-1.33.49,2.61,2.61,0,0,1-1-.19,2.2,2.2,0,0,1-.7-.41.21.21,0,0,1-.07-.16.15.15,0,0,1,0-.11.17.17,0,0,1,.13-.05.29.29,0,0,1,.15.06,2.37,2.37,0,0,0,1.43.5,1.45,1.45,0,0,0,1.05-.4,1.17,1.17,0,0,0,.43-.88,1.08,1.08,0,0,0-.21-.63,1.42,1.42,0,0,0-.6-.5,1.94,1.94,0,0,0-.8-.18.31.31,0,0,1-.19,0,.17.17,0,0,1-.05-.13.21.21,0,0,1,.05-.13.25.25,0,0,1,.16-.05h.32a1.12,1.12,0,0,0,.8-.3.93.93,0,0,0,.32-.69,1,1,0,0,0-.34-.72,1.2,1.2,0,0,0-.86-.31,1.78,1.78,0,0,0-.7.13,1.32,1.32,0,0,0-.5.35.53.53,0,0,1-.11.11l-.08,0a.21.21,0,0,1-.13-.05.14.14,0,0,1-.06-.12c0-.11.13-.26.39-.44a2,2,0,0,1,1.19-.37,1.58,1.58,0,0,1,1.13.42,1.3,1.3,0,0,1,.44,1,1.27,1.27,0,0,1-.21.7A1.48,1.48,0,0,1,314.27,253Zm-4.47.8a1.59,1.59,0,0,0-.57-1,1.77,1.77,0,0,0-2.19,0,1.57,1.57,0,0,0-.57,1Zm.37.37h-3.71a1.77,1.77,0,0,0,1.82,1.57,3,3,0,0,0,.86-.13,2.26,2.26,0,0,0,.73-.36.24.24,0,0,1,.14-.06.16.16,0,0,1,.12.06.17.17,0,0,1,.05.12.17.17,0,0,1-.07.14,1.9,1.9,0,0,1-.74.41,3.38,3.38,0,0,1-1.09.19,2.18,2.18,0,0,1-1.56-.61,2,2,0,0,1-.63-1.49,1.83,1.83,0,0,1,.59-1.36,2,2,0,0,1,1.46-.57,1.92,1.92,0,0,1,1.46.59A2,2,0,0,1,310.17,254.2Zm-6.25,0a4.29,4.29,0,0,0-.54-.11,5.74,5.74,0,0,0-.6,0,2,2,0,0,0-1.24.34.73.73,0,0,0-.34.61.73.73,0,0,0,.26.56,1.1,1.1,0,0,0,.75.22,1.92,1.92,0,0,0,.87-.19,3,3,0,0,0,.84-.59Zm0,1.81v-.52a2.59,2.59,0,0,1-1.69.67,1.46,1.46,0,0,1-1-.33,1.05,1.05,0,0,1-.37-.82,1.16,1.16,0,0,1,.48-.92,2.18,2.18,0,0,1,1.42-.4,3.65,3.65,0,0,1,.55,0,5.8,5.8,0,0,1,.63.1v-.59a.64.64,0,0,0-.28-.52,1.28,1.28,0,0,0-.83-.23,4.42,4.42,0,0,0-1.19.25l-.17.05a.21.21,0,0,1-.13-.05.22.22,0,0,1-.05-.14.16.16,0,0,1,.05-.11,1.49,1.49,0,0,1,.49-.18,4.36,4.36,0,0,1,1-.18,1.57,1.57,0,0,1,1.08.34,1,1,0,0,1,.38.77v2.41h.49c.09,0,.15,0,.18.05a.17.17,0,0,1,0,.26s-.09.05-.18.05Zm-5.69-1.88v-3.19H298l-1.84,3.19Zm0,.36h-2.41v-.42l2-3.49h.76v3.55h.3a.31.31,0,0,1,.19,0,.15.15,0,0,1,.06.13.18.18,0,0,1-.06.13.26.26,0,0,1-.19.05h-.3v1.16h.3a.26.26,0,0,1,.19.05.17.17,0,0,1,0,.26.26.26,0,0,1-.19.05h-1.35c-.09,0-.16,0-.19-.05a.17.17,0,0,1,0-.26s.1-.05.19-.05h.68ZM292,252.61v3h1.6a.23.23,0,0,1,.18.05.17.17,0,0,1,0,.26.23.23,0,0,1-.18.05h-2.85a.26.26,0,0,1-.19-.05.19.19,0,0,1,0-.26.26.26,0,0,1,.19-.05h.88v-3h-.79a.23.23,0,0,1-.18-.06.15.15,0,0,1-.06-.13.18.18,0,0,1,.06-.13.28.28,0,0,1,.18,0h.79v-.55a1,1,0,0,1,.37-.8,1.44,1.44,0,0,1,1-.33,7.19,7.19,0,0,1,1.1.09.66.66,0,0,1,.27.09.21.21,0,0,1,0,.12.21.21,0,0,1-.05.13.22.22,0,0,1-.14,0l-.12,0a8.41,8.41,0,0,0-1.1-.1,1.06,1.06,0,0,0-.74.24.69.69,0,0,0-.25.53v.55h1.7a.31.31,0,0,1,.19,0,.17.17,0,0,1,.05.13.14.14,0,0,1-.05.13.25.25,0,0,1-.19.06Zm-3.49,1.22a1.59,1.59,0,0,0-.57-1,1.77,1.77,0,0,0-2.19,0,1.61,1.61,0,0,0-.57,1Zm.38.37h-3.72a1.77,1.77,0,0,0,1.82,1.57,3,3,0,0,0,.86-.13,2.17,2.17,0,0,0,.73-.36.24.24,0,0,1,.14-.06.16.16,0,0,1,.12.06.13.13,0,0,1,.05.12.17.17,0,0,1-.07.14,1.9,1.9,0,0,1-.74.41,3.38,3.38,0,0,1-1.09.19,2.18,2.18,0,0,1-1.56-.61,2,2,0,0,1-.62-1.49,1.82,1.82,0,0,1,.58-1.36,2,2,0,0,1,1.46-.57,1.92,1.92,0,0,1,1.46.59A2,2,0,0,1,288.88,254.2Zm-5.88-.08a1.55,1.55,0,0,0-.48-1.16,1.5,1.5,0,0,0-1.11-.49,1.54,1.54,0,0,0-1.12.49,1.62,1.62,0,0,0-.46,1.16,1.66,1.66,0,0,0,.46,1.17,1.53,1.53,0,0,0,1.12.48,1.49,1.49,0,0,0,1.11-.48A1.59,1.59,0,0,0,283,254.12Zm.36-3.56v5.07h.49a.26.26,0,0,1,.19.05.17.17,0,0,1,0,.26.26.26,0,0,1-.19.05H283v-.72a1.93,1.93,0,0,1-1.62.87,1.87,1.87,0,0,1-1.65-1,2,2,0,0,1,0-2,1.87,1.87,0,0,1,1.66-1A2,2,0,0,1,283,253v-2.06h-.49a.31.31,0,0,1-.19,0,.17.17,0,0,1,0-.26.26.26,0,0,1,.19-.05Zm-5.59,2.05v-.12a.24.24,0,0,1,.06-.19.15.15,0,0,1,.13-.06.18.18,0,0,1,.13.06.29.29,0,0,1,.05.19v.82a.31.31,0,0,1-.05.19.17.17,0,0,1-.13.05.2.2,0,0,1-.13,0,.3.3,0,0,1-.06-.17.85.85,0,0,0-.41-.59,1.66,1.66,0,0,0-1-.28,1.48,1.48,0,0,0-1.23.52,1.75,1.75,0,0,0-.43,1.16,1.58,1.58,0,0,0,.46,1.16,1.64,1.64,0,0,0,1.21.46,2.75,2.75,0,0,0,.87-.15,2.33,2.33,0,0,0,.79-.51.27.27,0,0,1,.16-.08.17.17,0,0,1,.18.17c0,.12-.15.28-.44.47a2.82,2.82,0,0,1-1.58.47,2,2,0,0,1-1.44-.56,1.92,1.92,0,0,1-.56-1.43,2,2,0,0,1,.57-1.45,1.94,1.94,0,0,1,1.46-.59A2.05,2.05,0,0,1,277.77,252.61Zm-6.16,1.5v-3.19h-.19l-1.85,3.19Zm0,.36h-2.42v-.42l2-3.49H272v3.55h.3a.31.31,0,0,1,.19,0,.15.15,0,0,1,.06.13.18.18,0,0,1-.06.13.26.26,0,0,1-.19.05H272v1.16h.3a.26.26,0,0,1,.19.05.17.17,0,0,1,0,.26.26.26,0,0,1-.19.05h-1.35a.28.28,0,0,1-.2-.05.19.19,0,0,1,0-.26.28.28,0,0,1,.2-.05h.68Zm-4.49-1.86v-.12a.29.29,0,0,1,.05-.19.18.18,0,0,1,.14-.06.18.18,0,0,1,.13.06.29.29,0,0,1,.05.19v.82a.31.31,0,0,1-.05.19.17.17,0,0,1-.13.05.2.2,0,0,1-.13,0,.3.3,0,0,1-.06-.17.87.87,0,0,0-.4-.59,1.71,1.71,0,0,0-1-.28,1.48,1.48,0,0,0-1.23.52,1.75,1.75,0,0,0-.43,1.16,1.58,1.58,0,0,0,.46,1.16,1.66,1.66,0,0,0,1.21.46,2.65,2.65,0,0,0,.87-.15,2.33,2.33,0,0,0,.79-.51.27.27,0,0,1,.16-.08.17.17,0,0,1,.18.17c0,.12-.15.28-.44.47a2.82,2.82,0,0,1-1.58.47,2,2,0,0,1-1.44-.56,1.92,1.92,0,0,1-.56-1.43,2,2,0,0,1,.57-1.45,1.94,1.94,0,0,1,1.46-.59A2,2,0,0,1,267.12,252.61Zm-5.53.26a3,3,0,0,0-.15-1,2.54,2.54,0,0,0-.33-.7.87.87,0,0,0-.27-.27,1.07,1.07,0,0,0-1.52.48,2.91,2.91,0,0,0-.35,1.45v.8a2.93,2.93,0,0,0,.15,1,3.05,3.05,0,0,0,.33.72,1,1,0,0,0,.28.26,1,1,0,0,0,.56.15,1.06,1.06,0,0,0,.95-.63,3,3,0,0,0,.35-1.46Zm.36-.05v.9a2.79,2.79,0,0,1-.56,1.86,1.36,1.36,0,0,1-1.1.54,1.42,1.42,0,0,1-.61-.13,1.29,1.29,0,0,1-.48-.36,2.41,2.41,0,0,1-.28-.45,5.27,5.27,0,0,1-.21-.58,3.74,3.74,0,0,1-.1-.88v-.9a2.88,2.88,0,0,1,.56-1.86,1.41,1.41,0,0,1,1.11-.54,1.39,1.39,0,0,1,.6.14,1.3,1.3,0,0,1,.48.35,2,2,0,0,1,.28.46,3.93,3.93,0,0,1,.22.58A3.75,3.75,0,0,1,262,252.82Zm-8-1.9v1.78a4.32,4.32,0,0,1,.61-.2,2.89,2.89,0,0,1,.56-.06,1.53,1.53,0,0,1,1.15.48,1.74,1.74,0,0,1,.47,1.26,1.94,1.94,0,0,1-.53,1.41,1.71,1.71,0,0,1-1.3.53,2.31,2.31,0,0,1-1-.23,3.17,3.17,0,0,1-.61-.39c-.11-.1-.17-.18-.17-.24a.22.22,0,0,1,.05-.14.21.21,0,0,1,.12-.05.34.34,0,0,1,.17.07,2,2,0,0,0,1.42.62,1.4,1.4,0,0,0,1-.43,1.61,1.61,0,0,0,.42-1.17,1.33,1.33,0,0,0-.36-1,1.17,1.17,0,0,0-.91-.38,2.54,2.54,0,0,0-1.14.29.53.53,0,0,1-.2.08.17.17,0,0,1-.12,0,.23.23,0,0,1,0-.15v-2.41h2.53c.09,0,.16,0,.19.05a.17.17,0,0,1,0,.26.29.29,0,0,1-.19,0Zm-4.13-.44v5.15h1.24a.26.26,0,0,1,.19.05.19.19,0,0,1,0,.26.26.26,0,0,1-.19.05H248.2a.26.26,0,0,1-.19-.05.17.17,0,0,1,0-.26.26.26,0,0,1,.19-.05h1.25V251l-1.19.37-.12,0a.17.17,0,0,1-.18-.18.21.21,0,0,1,0-.12.35.35,0,0,1,.14-.07Zm-4.21,4.06a1.12,1.12,0,0,0-.37-.83,1.38,1.38,0,0,0-1.86,0,1.08,1.08,0,0,0-.37.82,1.15,1.15,0,0,0,.37.86,1.35,1.35,0,0,0,1.86,0A1.17,1.17,0,0,0,245.61,254.54Zm-.1-2.6a1.1,1.1,0,0,0-.35-.81,1.16,1.16,0,0,0-.85-.34,1.18,1.18,0,0,0-.86.34,1.09,1.09,0,0,0-.35.8,1,1,0,0,0,.35.74,1.19,1.19,0,0,0,.86.32,1.17,1.17,0,0,0,.85-.32A1,1,0,0,0,245.51,251.94Zm-.46,1.23a1.62,1.62,0,0,1,.69.59,1.44,1.44,0,0,1,.23.77,1.5,1.5,0,0,1-.49,1.12,1.7,1.7,0,0,1-2.35,0,1.54,1.54,0,0,1-.49-1.12,1.37,1.37,0,0,1,.24-.77,1.68,1.68,0,0,1,.69-.59,1.81,1.81,0,0,1-.58-.47,1.32,1.32,0,0,1-.25-.78,1.38,1.38,0,0,1,.46-1,1.58,1.58,0,0,1,2.23,0,1.4,1.4,0,0,1,.45,1,1.32,1.32,0,0,1-.25.78A1.81,1.81,0,0,1,245.05,253.17Zm-5,1a4.29,4.29,0,0,0-.54-.11,5.74,5.74,0,0,0-.6,0,2,2,0,0,0-1.24.34.75.75,0,0,0-.35.61.73.73,0,0,0,.26.56,1.15,1.15,0,0,0,.76.22,2,2,0,0,0,.87-.19A3.16,3.16,0,0,0,240,255Zm0,1.81v-.52a2.61,2.61,0,0,1-1.69.67,1.5,1.5,0,0,1-1-.33A1.08,1.08,0,0,1,237,255a1.16,1.16,0,0,1,.48-.92,2.15,2.15,0,0,1,1.41-.4,3.48,3.48,0,0,1,.55,0,5.59,5.59,0,0,1,.64.1v-.59a.67.67,0,0,0-.28-.52,1.28,1.28,0,0,0-.83-.23,4.42,4.42,0,0,0-1.19.25l-.18.05a.17.17,0,0,1-.12-.05.22.22,0,0,1-.05-.14.15.15,0,0,1,0-.11,1.59,1.59,0,0,1,.5-.18,4.36,4.36,0,0,1,1-.18,1.55,1.55,0,0,1,1.07.34,1,1,0,0,1,.39.77v2.41h.48c.09,0,.16,0,.19.05a.17.17,0,0,1,0,.26s-.1.05-.19.05Zm-5-1.87a1.55,1.55,0,0,0-.47-1.16,1.5,1.5,0,0,0-1.11-.49,1.54,1.54,0,0,0-1.12.49,1.58,1.58,0,0,0-.46,1.16,1.61,1.61,0,0,0,.46,1.17,1.53,1.53,0,0,0,1.12.48,1.49,1.49,0,0,0,1.11-.48A1.58,1.58,0,0,0,235.07,254.12Zm.37-3.56v5.07h.49a.27.27,0,0,1,.19.05.17.17,0,0,1,0,.26.27.27,0,0,1-.19.05h-.86v-.72a1.88,1.88,0,0,1-3.26-.14,2,2,0,0,1,0-2,1.87,1.87,0,0,1,1.66-1,1.92,1.92,0,0,1,1.6.87v-2.06h-.48a.31.31,0,0,1-.19,0,.17.17,0,0,1,0-.26.26.26,0,0,1,.19-.05Zm-5.81,4a1.09,1.09,0,0,0-.37-.83,1.37,1.37,0,0,0-1.85,0,1.08,1.08,0,0,0-.37.82,1.15,1.15,0,0,0,.37.86,1.34,1.34,0,0,0,1.85,0A1.13,1.13,0,0,0,229.63,254.54Zm-.09-2.6a1.1,1.1,0,0,0-.35-.81,1.18,1.18,0,0,0-.86-.34,1.16,1.16,0,0,0-.85.34,1.09,1.09,0,0,0-.35.8,1,1,0,0,0,.34.74,1.21,1.21,0,0,0,.86.32,1.19,1.19,0,0,0,.86-.32A1,1,0,0,0,229.54,251.94Zm-.46,1.23a1.59,1.59,0,0,1,.68.59,1.37,1.37,0,0,1,.24.77,1.5,1.5,0,0,1-.49,1.12,1.63,1.63,0,0,1-1.18.47,1.66,1.66,0,0,1-1.18-.47,1.53,1.53,0,0,1-.48-1.12,1.44,1.44,0,0,1,.23-.77,1.72,1.72,0,0,1,.7-.59,2,2,0,0,1-.59-.47,1.4,1.4,0,0,1,.22-1.82,1.51,1.51,0,0,1,1.1-.46,1.54,1.54,0,0,1,1.12.46,1.38,1.38,0,0,1,.46,1,1.32,1.32,0,0,1-.25.78A1.81,1.81,0,0,1,229.08,253.17Zm-4.65,1A1.55,1.55,0,0,0,224,253a1.5,1.5,0,0,0-2.22,0,1.55,1.55,0,0,0-.47,1.16,1.58,1.58,0,0,0,.47,1.17,1.52,1.52,0,0,0,2.22,0A1.59,1.59,0,0,0,224.43,254.12Zm.36-3.56v5.07h.49a.26.26,0,0,1,.19.05.17.17,0,0,1,0,.26.26.26,0,0,1-.19.05h-.85v-.72a2,2,0,0,1-1.62.87,1.87,1.87,0,0,1-1.65-1,2,2,0,0,1,0-2,1.87,1.87,0,0,1,1.66-1,2,2,0,0,1,1.61.87v-2.06h-.49a.31.31,0,0,1-.19,0,.17.17,0,0,1,0-.26.26.26,0,0,1,.19-.05Zm-5.51,3.27a1.59,1.59,0,0,0-.57-1,1.69,1.69,0,0,0-2.76,1Zm.38.37h-3.72a1.77,1.77,0,0,0,.6,1.14,1.79,1.79,0,0,0,1.23.43,2.93,2.93,0,0,0,.85-.13,2.17,2.17,0,0,0,.73-.36.24.24,0,0,1,.14-.06.14.14,0,0,1,.12.06.13.13,0,0,1,0,.12.17.17,0,0,1-.07.14,1.9,1.9,0,0,1-.74.41,3.32,3.32,0,0,1-1.08.19,2.19,2.19,0,0,1-1.57-.61,2,2,0,0,1-.62-1.49,1.82,1.82,0,0,1,.58-1.36,2,2,0,0,1,1.46-.57,2,2,0,0,1,1.47.59A2,2,0,0,1,219.66,254.2Zm-6,.34a1.12,1.12,0,0,0-.37-.83,1.38,1.38,0,0,0-1.86,0,1.12,1.12,0,0,0-.37.82,1.19,1.19,0,0,0,.37.86,1.29,1.29,0,0,0,.93.37,1.26,1.26,0,0,0,.93-.37A1.17,1.17,0,0,0,213.66,254.54Zm-.09-2.6a1.1,1.1,0,0,0-.35-.81,1.18,1.18,0,0,0-.86-.34,1.16,1.16,0,0,0-.85.34,1.06,1.06,0,0,0-.35.8,1,1,0,0,0,.34.74,1.32,1.32,0,0,0,1.72,0A1,1,0,0,0,213.57,251.94Zm-.46,1.23a1.65,1.65,0,0,1,.68.59,1.36,1.36,0,0,1,.23.77,1.5,1.5,0,0,1-.49,1.12,1.61,1.61,0,0,1-1.17.47,1.65,1.65,0,0,1-1.18-.47,1.53,1.53,0,0,1-.48-1.12,1.36,1.36,0,0,1,.23-.77,1.75,1.75,0,0,1,.69-.59,1.81,1.81,0,0,1-.58-.47,1.32,1.32,0,0,1-.25-.78,1.41,1.41,0,0,1,.46-1,1.58,1.58,0,0,1,2.23,0,1.41,1.41,0,0,1,.46,1,1.33,1.33,0,0,1-.26.78A1.76,1.76,0,0,1,213.11,253.17ZM206,254.29a2.13,2.13,0,0,0,.52,1.13,1.15,1.15,0,0,0,.84.34,1.08,1.08,0,0,0,.82-.38,1.36,1.36,0,0,0,.35-1,1.29,1.29,0,0,0-.35-.94,1.07,1.07,0,0,0-.78-.37,1.19,1.19,0,0,0-.81.36A3.44,3.44,0,0,0,206,254.29Zm-.08-.6a2.44,2.44,0,0,1,.69-.73,1.4,1.4,0,0,1,.8-.24,1.35,1.35,0,0,1,1,.49,1.65,1.65,0,0,1,.45,1.18,1.93,1.93,0,0,1-.41,1.19,1.34,1.34,0,0,1-1.14.54,1.42,1.42,0,0,1-.87-.29,1.87,1.87,0,0,1-.65-.89,4.63,4.63,0,0,1-.29-1.66,3,3,0,0,1,.27-1.27,2.56,2.56,0,0,1,.56-.8,3,3,0,0,1,.81-.57,2.36,2.36,0,0,1,1-.22,1.11,1.11,0,0,1,.6.15.2.2,0,0,1,.1.18.17.17,0,0,1-.05.13.15.15,0,0,1-.11,0,.27.27,0,0,1-.14,0,1,1,0,0,0-.44-.09,2.08,2.08,0,0,0-1.54.73,2.42,2.42,0,0,0-.69,1.73C205.93,253.34,205.94,253.49,206,253.69Zm-2.64.14a1.59,1.59,0,0,0-.57-1,1.68,1.68,0,0,0-1.09-.38,1.72,1.72,0,0,0-1.11.38,1.6,1.6,0,0,0-.56,1Zm.37.37H200a1.73,1.73,0,0,0,.6,1.14,1.78,1.78,0,0,0,1.22.43,3,3,0,0,0,.86-.13,2.26,2.26,0,0,0,.73-.36.24.24,0,0,1,.13-.06.18.18,0,0,1,.13.06.17.17,0,0,1,.05.12.21.21,0,0,1-.07.14,2,2,0,0,1-.74.41,3.42,3.42,0,0,1-1.09.19,2.18,2.18,0,0,1-1.56-.61,2,2,0,0,1-.63-1.49,1.83,1.83,0,0,1,.59-1.36,2,2,0,0,1,1.46-.57,1.92,1.92,0,0,1,1.46.59A2,2,0,0,1,203.68,254.2Zm-5.88-.08a1.55,1.55,0,0,0-.47-1.16,1.5,1.5,0,0,0-1.11-.49,1.52,1.52,0,0,0-1.12.49,1.58,1.58,0,0,0-.46,1.16,1.61,1.61,0,0,0,.46,1.17,1.51,1.51,0,0,0,1.12.48,1.49,1.49,0,0,0,1.11-.48A1.58,1.58,0,0,0,197.8,254.12Zm.37-3.56v5.07h.49a.27.27,0,0,1,.19.05.17.17,0,0,1,0,.26.27.27,0,0,1-.19.05h-.86v-.72a1.92,1.92,0,0,1-1.61.87,1.88,1.88,0,0,1-.94-.26,2,2,0,0,1-.72-.75,2.14,2.14,0,0,1-.26-1,2.16,2.16,0,0,1,.26-1,2,2,0,0,1,.72-.75,1.91,1.91,0,0,1,.95-.26,1.94,1.94,0,0,1,1.6.87v-2.06h-.49a.33.33,0,0,1-.19,0,.19.19,0,0,1,0-.26.27.27,0,0,1,.19-.05Zm-5.59,2.05v-.12a.29.29,0,0,1,0-.19.16.16,0,0,1,.13-.06.15.15,0,0,1,.13.06s.05.1.05.19v.82a.26.26,0,0,1-.05.19.14.14,0,0,1-.13.05.16.16,0,0,1-.12,0s0-.09-.06-.17a.85.85,0,0,0-.41-.59,1.68,1.68,0,0,0-1-.28,1.51,1.51,0,0,0-1.24.52,1.74,1.74,0,0,0-.42,1.16,1.54,1.54,0,0,0,.46,1.16,1.63,1.63,0,0,0,1.21.46,2.64,2.64,0,0,0,.86-.15,2.27,2.27,0,0,0,.8-.51A.27.27,0,0,1,193,255a.17.17,0,0,1,.17.17c0,.12-.14.28-.43.47a2.84,2.84,0,0,1-1.58.47,2,2,0,0,1-1.44-.56,1.93,1.93,0,0,1-.57-1.43,2,2,0,0,1,.58-1.45,1.92,1.92,0,0,1,1.46-.59A2.07,2.07,0,0,1,192.58,252.61Zm-5.42-.3a2.56,2.56,0,0,0-.58-1.2,1.1,1.1,0,0,0-.78-.32,1.06,1.06,0,0,0-.82.39,1.47,1.47,0,0,0-.35,1,1.44,1.44,0,0,0,.35,1,1,1,0,0,0,.79.38,1.07,1.07,0,0,0,.51-.13,2,2,0,0,0,.47-.42A6.87,6.87,0,0,0,187.16,252.31Zm.07.6a2.1,2.1,0,0,1-.67.76,1.42,1.42,0,0,1-.79.25,1.36,1.36,0,0,1-.74-.22,1.64,1.64,0,0,1-.56-.63,1.93,1.93,0,0,1-.21-.88,2,2,0,0,1,.42-1.22,1.35,1.35,0,0,1,1.11-.55,1.53,1.53,0,0,1,.9.31,1.94,1.94,0,0,1,.63.89,4.67,4.67,0,0,1,.29,1.74,3,3,0,0,1-.24,1.29,2.84,2.84,0,0,1-1.21,1.2,2.51,2.51,0,0,1-1.13.27,1.35,1.35,0,0,1-.64-.14.22.22,0,0,1-.11-.18.17.17,0,0,1,.17-.17.32.32,0,0,1,.16.05.93.93,0,0,0,.39.08,2.13,2.13,0,0,0,1.58-.67,2.24,2.24,0,0,0,.67-1.67C187.25,253.31,187.24,253.14,187.23,252.91Zm-5.39-.6a2.56,2.56,0,0,0-.58-1.2,1.12,1.12,0,0,0-.79-.32,1.09,1.09,0,0,0-.82.39,1.47,1.47,0,0,0-.35,1,1.44,1.44,0,0,0,.35,1,1.05,1.05,0,0,0,.8.38,1,1,0,0,0,.5-.13,1.86,1.86,0,0,0,.48-.42A6.87,6.87,0,0,0,181.84,252.31Zm.06.6a2,2,0,0,1-.66.76,1.42,1.42,0,0,1-.8.25,1.32,1.32,0,0,1-.73-.22,1.58,1.58,0,0,1-.57-.63,2.06,2.06,0,0,1-.2-.88,2,2,0,0,1,.42-1.22,1.32,1.32,0,0,1,1.1-.55,1.49,1.49,0,0,1,.9.31,2,2,0,0,1,.64.89,4.88,4.88,0,0,1,.29,1.74,2.88,2.88,0,0,1-.25,1.29,2.44,2.44,0,0,1-.49.67,3.06,3.06,0,0,1-.71.53,2.51,2.51,0,0,1-1.13.27,1.29,1.29,0,0,1-.64-.14.2.2,0,0,1-.11-.18.16.16,0,0,1,0-.12.17.17,0,0,1,.13-.05.26.26,0,0,1,.15.05,1,1,0,0,0,.4.08,2.13,2.13,0,0,0,1.58-.67,2.27,2.27,0,0,0,.66-1.67C181.92,253.31,181.92,253.14,181.9,252.91Zm-5.59-1.82v-.17H173.7v.32a.26.26,0,0,1,0,.19.17.17,0,0,1-.13,0,.21.21,0,0,1-.13,0,.26.26,0,0,1,0-.19v-.68h3.34v.57l-1.47,4.69c0,.07,0,.12-.08.14a.14.14,0,0,1-.11,0,.24.24,0,0,1-.13-.05.21.21,0,0,1,0-.13.36.36,0,0,1,0-.11Zm-4.76,3a1.62,1.62,0,0,0-.47-1.16,1.49,1.49,0,0,0-2.21,0,1.68,1.68,0,0,0,0,2.33,1.51,1.51,0,0,0,2.21,0A1.62,1.62,0,0,0,171.55,254.12Zm-3.16-3.56V253a2,2,0,0,1,1.59-.86,1.82,1.82,0,0,1,1.37.59,1.92,1.92,0,0,1,.57,1.41,2,2,0,0,1-.58,1.44,1.85,1.85,0,0,1-1.36.59,1.92,1.92,0,0,1-1.59-.86V256h-.85a.26.26,0,0,1-.19-.05.19.19,0,0,1,0-.26.26.26,0,0,1,.19-.05H168v-4.71h-.49a.31.31,0,0,1-.19,0,.19.19,0,0,1,0-.26.26.26,0,0,1,.19-.05Zm-5.52,5.07h2.8v-.14a.26.26,0,0,1,.05-.19.17.17,0,0,1,.14-.06.16.16,0,0,1,.12.06.25.25,0,0,1,.06.19v.5h-3.52v-.54c.74-.66,1.46-1.34,2.15-2a6.28,6.28,0,0,0,.67-.7,1.31,1.31,0,0,0,.25-.39.93.93,0,0,0,.08-.35,1.09,1.09,0,0,0-.38-.82,1.27,1.27,0,0,0-.92-.37,1.35,1.35,0,0,0-.84.28,1.27,1.27,0,0,0-.48.67.2.2,0,0,1-.06.14.19.19,0,0,1-.12,0,.17.17,0,0,1-.12,0,.15.15,0,0,1-.05-.12,1.12,1.12,0,0,1,.22-.56,1.56,1.56,0,0,1,.63-.56,1.75,1.75,0,0,1,.82-.21,1.59,1.59,0,0,1,1.17.48,1.4,1.4,0,0,1,.41,1.53,1.83,1.83,0,0,1-.28.46,9.75,9.75,0,0,1-.71.75c-.85.84-1.55,1.5-2.09,2Zm-4.76-4.71v1.78a4.32,4.32,0,0,1,.61-.2,2.89,2.89,0,0,1,.56-.06,1.53,1.53,0,0,1,1.15.48,1.74,1.74,0,0,1,.47,1.26,1.94,1.94,0,0,1-.53,1.41,1.71,1.71,0,0,1-1.3.53,2.31,2.31,0,0,1-1-.23,3.17,3.17,0,0,1-.61-.39c-.12-.1-.17-.18-.17-.24a.22.22,0,0,1,0-.14.21.21,0,0,1,.12-.05.28.28,0,0,1,.16.07,2.06,2.06,0,0,0,1.43.62,1.4,1.4,0,0,0,1.05-.43,1.61,1.61,0,0,0,.41-1.17,1.33,1.33,0,0,0-.36-1,1.16,1.16,0,0,0-.91-.38,2.5,2.5,0,0,0-1.13.29.6.6,0,0,1-.2.08.21.21,0,0,1-.13,0,.3.3,0,0,1,0-.15v-2.41h2.53a.26.26,0,0,1,.19.05.17.17,0,0,1,0,.26.31.31,0,0,1-.19,0Zm-3,2a3,3,0,0,0-.15-1,2.87,2.87,0,0,0-.33-.7.81.81,0,0,0-.28-.27,1,1,0,0,0-.55-.15,1.06,1.06,0,0,0-1,.63,2.91,2.91,0,0,0-.34,1.45v.8a2.93,2.93,0,0,0,.14,1,3.05,3.05,0,0,0,.33.72,1,1,0,0,0,.28.26,1,1,0,0,0,.56.15,1.06,1.06,0,0,0,.95-.63,3,3,0,0,0,.35-1.46Zm.36-.05v.9a2.85,2.85,0,0,1-.56,1.86,1.36,1.36,0,0,1-1.1.54,1.39,1.39,0,0,1-.61-.13,1.22,1.22,0,0,1-.48-.36,2.41,2.41,0,0,1-.28-.45,5.27,5.27,0,0,1-.21-.58,3.28,3.28,0,0,1-.1-.88v-.9a2.88,2.88,0,0,1,.56-1.86,1.39,1.39,0,0,1,1.1-.54,1.37,1.37,0,0,1,.61.14,1.3,1.3,0,0,1,.48.35,2,2,0,0,1,.28.46,5.51,5.51,0,0,1,.22.58A3.75,3.75,0,0,1,155.46,252.82Zm-5.7,1.72a1.09,1.09,0,0,0-.37-.83,1.27,1.27,0,0,0-.92-.36,1.29,1.29,0,0,0-.93.36,1.08,1.08,0,0,0-.37.82,1.15,1.15,0,0,0,.37.86,1.26,1.26,0,0,0,.93.37,1.24,1.24,0,0,0,.92-.37A1.13,1.13,0,0,0,149.76,254.54Zm-.09-2.6a1.1,1.1,0,0,0-.35-.81,1.16,1.16,0,0,0-.85-.34,1.18,1.18,0,0,0-.86.34,1.09,1.09,0,0,0-.35.8,1,1,0,0,0,.34.74,1.23,1.23,0,0,0,.87.32,1.17,1.17,0,0,0,.85-.32A1,1,0,0,0,149.67,251.94Zm-.46,1.23a1.62,1.62,0,0,1,.69.59,1.44,1.44,0,0,1,.23.77,1.5,1.5,0,0,1-.49,1.12,1.62,1.62,0,0,1-1.17.47,1.67,1.67,0,0,1-1.19-.47,1.53,1.53,0,0,1-.48-1.12,1.37,1.37,0,0,1,.24-.77,1.62,1.62,0,0,1,.69-.59,1.81,1.81,0,0,1-.58-.47,1.32,1.32,0,0,1-.25-.78,1.38,1.38,0,0,1,.46-1,1.52,1.52,0,0,1,1.11-.46,1.53,1.53,0,0,1,1.11.46,1.38,1.38,0,0,1,.46,1,1.32,1.32,0,0,1-.25.78A1.81,1.81,0,0,1,149.21,253.17Zm-4.55-.56v-.12a.29.29,0,0,1,.05-.19.16.16,0,0,1,.13-.06.15.15,0,0,1,.13.06s.05.1.05.19v.82a.26.26,0,0,1-.05.19.14.14,0,0,1-.13.05.16.16,0,0,1-.12,0,.21.21,0,0,1-.06-.17.89.89,0,0,0-.41-.59,1.7,1.7,0,0,0-1-.28A1.51,1.51,0,0,0,142,253a1.74,1.74,0,0,0-.42,1.16,1.54,1.54,0,0,0,.46,1.16,1.62,1.62,0,0,0,1.2.46,2.65,2.65,0,0,0,.87-.15,2.37,2.37,0,0,0,.8-.51.24.24,0,0,1,.16-.08.17.17,0,0,1,.17.17c0,.12-.14.28-.43.47a2.84,2.84,0,0,1-1.58.47,2,2,0,0,1-1.45-.56,2,2,0,0,1-.56-1.43,2,2,0,0,1,2-2A2.07,2.07,0,0,1,144.66,252.61Zm-10.86.26a3,3,0,0,0-.15-1,2.28,2.28,0,0,0-.33-.7.87.87,0,0,0-.27-.27,1.07,1.07,0,0,0-1.52.48,2.91,2.91,0,0,0-.34,1.45v.8a2.93,2.93,0,0,0,.14,1,3.05,3.05,0,0,0,.33.72,1,1,0,0,0,.28.26,1,1,0,0,0,.56.15,1.06,1.06,0,0,0,.95-.63,3,3,0,0,0,.35-1.46Zm.36-.05v.9a2.79,2.79,0,0,1-.56,1.86,1.36,1.36,0,0,1-1.1.54,1.42,1.42,0,0,1-.61-.13,1.29,1.29,0,0,1-.48-.36,2.41,2.41,0,0,1-.28-.45,5.27,5.27,0,0,1-.21-.58,3.28,3.28,0,0,1-.1-.88v-.9a2.88,2.88,0,0,1,.56-1.86,1.39,1.39,0,0,1,1.1-.54,1.37,1.37,0,0,1,.61.14,1.3,1.3,0,0,1,.48.35,2,2,0,0,1,.28.46,3.93,3.93,0,0,1,.22.58A3.75,3.75,0,0,1,134.16,252.82Zm-5.69.05a3,3,0,0,0-.14-1,2.87,2.87,0,0,0-.33-.7.9.9,0,0,0-.28-.27,1,1,0,0,0-.55-.15,1.06,1.06,0,0,0-1,.63,2.91,2.91,0,0,0-.35,1.45v.8a2.93,2.93,0,0,0,.15,1,2.42,2.42,0,0,0,.33.72,1,1,0,0,0,.27.26,1.1,1.1,0,0,0,.57.15,1,1,0,0,0,.94-.63,2.87,2.87,0,0,0,.35-1.46Zm.37-.05v.9a2.85,2.85,0,0,1-.56,1.86,1.36,1.36,0,0,1-1.1.54,1.39,1.39,0,0,1-.61-.13,1.22,1.22,0,0,1-.48-.36,2,2,0,0,1-.28-.45,3,3,0,0,1-.21-.58,3.28,3.28,0,0,1-.1-.88v-.9a2.88,2.88,0,0,1,.56-1.86,1.39,1.39,0,0,1,1.71-.4,1.3,1.3,0,0,1,.48.35,1.68,1.68,0,0,1,.27.46,3.05,3.05,0,0,1,.22.58A3.25,3.25,0,0,1,128.84,252.82Z" transform="translate(-120.58 -189.93)"/>
      <rect class="cls-27" x="130.33" y="2.83" width="38.17" height="17.33"/>
      <text class="cls-5" transform="translate(133.74 13.62)">WPKH<tspan class="cls-8" x="27.6" y="3">Y</tspan></text>
      <path d="M295.25,198.91c.95-.29,1.57-.55,2.33-.85V201a22.43,22.43,0,0,0-2.33-.87,17.47,17.47,0,0,0-2.53-.6A17,17,0,0,0,295.25,198.91Z" transform="translate(-120.58 -189.93)"/>
      <path class="cls-28" d="M292.75,225.76V212.05l-1-.54v14.25a1.5,1.5,0,0,1-1.5,1.5H188.66l-3.62,1H290.25A2.5,2.5,0,0,0,292.75,225.76Z" transform="translate(-120.58 -189.93)"/>
      <g>
        <path class="cls-19" d="M330,199.92l-1.7-1.91a11.09,11.09,0,0,1,7.34.37,6.65,6.65,0,0,0,3.73.47,3.87,3.87,0,0,0,2.43-1.45c.73-.8,1.55-1.7,4.33-2l1.35,2c-2.2.21-2.78.85-3.45,1.59a5,5,0,0,1-3.09,1.8,9.56,9.56,0,0,1-5.15-.6A8.35,8.35,0,0,0,330,199.92Z" transform="translate(-120.58 -189.93)"/>
        <path class="cls-19" d="M333.31,201.74l-1.7-1.92a11.09,11.09,0,0,1,7.34.37,6.6,6.6,0,0,0,3.74.48,3.9,3.9,0,0,0,2.43-1.45c.72-.8,1.55-1.7,4.32-2l1.35,2c-2.2.21-2.78.85-3.45,1.59a5,5,0,0,1-3.08,1.79,9.36,9.36,0,0,1-5.15-.6A8.44,8.44,0,0,0,333.31,201.74Z" transform="translate(-120.58 -189.93)"/>
        <path class="cls-19" d="M332.58,203.76l-1.71-1.91a11.12,11.12,0,0,1,7.35.37,6.56,6.56,0,0,0,3.73.48,3.91,3.91,0,0,0,2.43-1.45c.72-.8,1.55-1.71,4.32-2l1.35,2c-2.2.21-2.77.84-3.45,1.58a5,5,0,0,1-3.08,1.8,9.47,9.47,0,0,1-5.15-.6A8.41,8.41,0,0,0,332.58,203.76Z" transform="translate(-120.58 -189.93)"/>
        <path class="cls-19" d="M336,205.56l-1.71-1.91a11.07,11.07,0,0,1,7.34.37,6.51,6.51,0,0,0,3.74.47,3.91,3.91,0,0,0,2.43-1.44c.73-.8,1.55-1.71,4.32-2l1.35,2c-2.19.22-2.77.85-3.44,1.59a5,5,0,0,1-3.09,1.8,9.48,9.48,0,0,1-5.15-.6A8.35,8.35,0,0,0,336,205.56Z" transform="translate(-120.58 -189.93)"/>
        <path class="cls-19" d="M330.51,197.83l-1.71-1.91a11.08,11.08,0,0,1,7.34.37,6.51,6.51,0,0,0,3.74.47,3.91,3.91,0,0,0,2.43-1.44c.72-.8,1.55-1.71,4.32-2l1.35,2c-2.2.21-2.78.84-3.45,1.58a5,5,0,0,1-3.08,1.8,9.46,9.46,0,0,1-5.15-.6A8.41,8.41,0,0,0,330.51,197.83Z" transform="translate(-120.58 -189.93)"/>
        <polygon points="210.03 6.2 212.36 5.99 213.37 6.53 211.85 6.43 210.03 6.2"/>
        <polygon points="215.97 7.38 218.45 8.31 220.06 7.81 218.02 7.54 215.97 7.38"/>
        <polygon points="216.95 10.36 215.2 10.27 214.49 10.76 216.26 10.58 218.53 11.49 219.95 11.47 217.99 10.7 216.95 10.36"/>
        <path d="M347.82,200.09c-.45,0-1.58.31-1.58.31l-.86,1.42,1.22-.86,1.89-.27Z" transform="translate(-120.58 -189.93)"/>
        <polygon points="228.14 13.65 227.33 14.67 225.5 15.25 226.53 15.69 228.04 15.07 228.14 13.65"/>
        <polygon points="220.47 14.6 218.69 14.06 217.33 14.39 218.95 14.5 220.47 14.6"/>
        <polygon points="214.57 12.4 213.56 12.58 214.97 12.65 214.57 12.4"/>
        <polygon class="cls-20" points="222.79 6.33 221.53 6.67 220.06 7.81 222.09 7.36 222.79 6.33"/>
        <polygon class="cls-20" points="224.39 12.45 222.74 13.26 222.56 13.74 224.15 13.34 224.39 12.45"/>
        <polygon class="cls-20" points="231.45 11.94 229.6 12.62 229.47 13.52 231 12.8 231.45 11.94"/>
        <polygon class="cls-20" points="213.45 11.85 212.2 12.91 211.75 12.24 213.45 11.85"/>
        <polygon class="cls-21" points="221 9.56 218.73 9.37 219.96 9.94 221 9.56"/>
        <path class="cls-21" d="M343.8,205.08l-2.11-.48s1.09.76,1.39.9a15.68,15.68,0,0,0,2.15.28Z" transform="translate(-120.58 -189.93)"/>
        <polygon class="cls-21" points="214.19 9.8 212.33 9.86 213.05 10.88 214.19 9.8"/>
        <path class="cls-21" d="M346,194.24l-2.09.85s-.84,1.22-.5,1.16a12.65,12.65,0,0,0,1.78-1Z" transform="translate(-120.58 -189.93)"/>
      </g>
      <path class="cls-29" d="M369.52,220.16a3,3,0,1,1-3-3A3,3,0,0,1,369.52,220.16Z" transform="translate(-120.58 -189.93)"/>
      <g>
        <path d="M365.84,221a.54.54,0,0,1-.66.39.55.55,0,0,1-.37-.68.54.54,0,1,1,1,.29Z" transform="translate(-120.58 -189.93)"/>
        <path class="cls-30" d="M365.43,219l-.54,1.9a.38.38,0,0,0,.29.46.39.39,0,0,0,.49-.24l.54-1.89Z" transform="translate(-120.58 -189.93)"/>
        <path class="cls-31" d="M370.44,216.93c.46-1.58-.82-3.34-2.86-3.93s-4.06.23-4.52,1.82v.05l-.26.95h0c-.3,1.45,1,3,3,3.6s3.88-.1,4.4-1.49h0Z" transform="translate(-120.58 -189.93)"/>
        <g class="cls-32">
          <path class="cls-33" d="M370.15,217.93l.29-1c.4-1.39-.53-2.91-2.13-3.66l-2.24,3.39a3.62,3.62,0,0,1,2.07,2.83A2.7,2.7,0,0,0,370.15,217.93Z" transform="translate(-120.58 -189.93)"/>
        </g>
        <path class="cls-14" d="M365.28,217.51c-.17.23-.6.2-1-.06s-.5-.67-.32-.91.6-.2.95.07S365.45,217.27,365.28,217.51Z" transform="translate(-120.58 -189.93)"/>
        <path class="cls-34" d="M369.8,212.18l-1.62-1.25h0l-2,.2-1.47,3.4c-.26.89.57,1.9,1.84,2.26s2.5,0,2.75-.94Z" transform="translate(-120.58 -189.93)"/>
        <g class="cls-32">
          <path class="cls-35" d="M368.18,210.93h0l-2,.2-.35.8c.1,1.36,2.16,4.18,3.55,3.42l.47-3.17Z" transform="translate(-120.58 -189.93)"/>
        </g>
        <path class="cls-36" d="M365.68,208.93l-.18.63c-.32,1.1.7,2.35,2.27,2.8s3.09-.08,3.41-1.17l.18-.64Z" transform="translate(-120.58 -189.93)"/>
        <path class="cls-37" d="M371.36,210.55c-.32,1.1-1.84,1.62-3.41,1.17s-2.59-1.7-2.27-2.79,1.84-1.62,3.41-1.17S371.67,209.46,371.36,210.55Z" transform="translate(-120.58 -189.93)"/>
      </g>
    </g>
  </g>
</svg>
