<?xml version="1.0" encoding="UTF-8" standalone="no"?>
<svg
   xmlns:dc="http://purl.org/dc/elements/1.1/"
   xmlns:cc="http://creativecommons.org/ns#"
   xmlns:rdf="http://www.w3.org/1999/02/22-rdf-syntax-ns#"
   xmlns:svg="http://www.w3.org/2000/svg"
   xmlns="http://www.w3.org/2000/svg"
   version="1.1"
   id="svg2"
   xml:space="preserve"
   width="461.55533"
   height="95.41964"
   viewBox="0 0 461.55533 95.41964"><metadata
     id="metadata8"><rdf:RDF><cc:Work
         rdf:about=""><dc:format>image/svg+xml</dc:format><dc:type
           rdf:resource="http://purl.org/dc/dcmitype/StillImage" /></cc:Work></rdf:RDF></metadata><defs
     id="defs6"><clipPath
       clipPathUnits="userSpaceOnUse"
       id="clipPath18"><path
         d="M 0,792 H 612 V 0 H 0 Z"
         id="path16" /></clipPath><linearGradient
       x1="0"
       y1="0"
       x2="1"
       y2="0"
       gradientUnits="userSpaceOnUse"
       gradientTransform="matrix(13.09935,-13.492355,-13.492355,-13.09935,192.49854,638.55518)"
       spreadMethod="pad"
       id="linearGradient300"><stop
         style="stop-opacity:1;stop-color:#5ec45b"
         offset="0"
         id="stop296" /><stop
         style="stop-opacity:1;stop-color:#dbf1cb"
         offset="1"
         id="stop298" /></linearGradient><linearGradient
       x1="0"
       y1="0"
       x2="1"
       y2="0"
       gradientUnits="userSpaceOnUse"
       gradientTransform="matrix(12.500702,-12.875763,-12.875763,-12.500702,192.73047,638.31494)"
       spreadMethod="pad"
       id="linearGradient320"><stop
         style="stop-opacity:1;stop-color:#dbf1cb"
         offset="0"
         id="stop316" /><stop
         style="stop-opacity:1;stop-color:#5ec45b"
         offset="1"
         id="stop318" /></linearGradient><clipPath
       clipPathUnits="userSpaceOnUse"
       id="clipPath330"><path
         d="M 0,792 H 612 V 0 H 0 Z"
         id="path328" /></clipPath><linearGradient
       x1="0"
       y1="0"
       x2="1"
       y2="0"
       gradientUnits="userSpaceOnUse"
       gradientTransform="matrix(13.100021,-13.493057,-13.493057,-13.100021,192.49805,621.51221)"
       spreadMethod="pad"
       id="linearGradient368"><stop
         style="stop-opacity:1;stop-color:#5ec45b"
         offset="0"
         id="stop364" /><stop
         style="stop-opacity:1;stop-color:#dbf1cb"
         offset="1"
         id="stop366" /></linearGradient><linearGradient
       x1="0"
       y1="0"
       x2="1"
       y2="0"
       gradientUnits="userSpaceOnUse"
       gradientTransform="matrix(12.500702,-12.875763,-12.875763,-12.500702,192.73145,621.27197)"
       spreadMethod="pad"
       id="linearGradient388"><stop
         style="stop-opacity:1;stop-color:#dbf1cb"
         offset="0"
         id="stop384" /><stop
         style="stop-opacity:1;stop-color:#5ec45b"
         offset="1"
         id="stop386" /></linearGradient><clipPath
       clipPathUnits="userSpaceOnUse"
       id="clipPath398"><path
         d="M 0,792 H 612 V 0 H 0 Z"
         id="path396" /></clipPath><clipPath
       clipPathUnits="userSpaceOnUse"
       id="clipPath518"><path
         d="m 122.919,622.667 h 233.747 v -35.55 H 122.919 Z"
         id="path516" /></clipPath><linearGradient
       x1="0"
       y1="0"
       x2="1"
       y2="0"
       gradientUnits="userSpaceOnUse"
       gradientTransform="matrix(0,-35.548828,-35.548828,0,239.79297,622.66602)"
       spreadMethod="pad"
       id="linearGradient532"><stop
         style="stop-opacity:1;stop-color:#ededed"
         offset="0"
         id="stop524" /><stop
         style="stop-opacity:1;stop-color:#ededed"
         offset="0.0122681"
         id="stop526" /><stop
         style="stop-opacity:1;stop-color:#ededed"
         offset="0.42658073"
         id="stop528" /><stop
         style="stop-opacity:1;stop-color:#d3d2d2"
         offset="1"
         id="stop530" /></linearGradient><clipPath
       clipPathUnits="userSpaceOnUse"
       id="clipPath588"><path
         d="M 185.955,621.245 H 293.667 V 604.5 H 185.955 Z"
         id="path586" /></clipPath></defs><g
     id="g10"
     transform="matrix(1.3333333,0,0,-1.3333333,-161.99933,857.11131)"><g
       id="g12"><g
         id="g14"
         clip-path="url(#clipPath18)"><g
           id="g20"
           transform="translate(467.166,606.8335)"><path
             d="m 0,0 c 0,-1.1 -0.9,-2 -2,-2 h -137.5 c -1.1,0 -2,0.9 -2,2 v 33.5 c 0,1.1 0.9,2 2,2 H -2 c 1.1,0 2,-0.9 2,-2 z"
             style="fill:#feefe9;fill-opacity:1;fill-rule:evenodd;stroke:none"
             id="path22" /></g><text
           transform="matrix(1,0,0,-1,357.5312,629.2168)"
           style="font-variant:normal;font-weight:normal;font-stretch:normal;font-size:11.5px;font-family:Courier;-inkscape-font-specification:Courier;writing-mode:lr-tb;fill:#231f20;fill-opacity:1;fill-rule:nonzero;stroke:none"
           id="text26"><tspan
             x="0 29.7505 36.650501 43.550499 50.4505"
             y="0"
             id="tspan24">00.09</tspan></text><g
           id="g28"
           transform="translate(383,642.1938)"><path
             d="M 0,0 V -37.202"
             style="fill:none;stroke:#656263;stroke-width:0.5;stroke-linecap:butt;stroke-linejoin:miter;stroke-miterlimit:4;stroke-dasharray:none;stroke-opacity:1"
             id="path30" /></g><g
           id="g32"
           transform="translate(467.166,606.8335)"><path
             d="m 0,0 c 0,-1.1 -0.9,-2 -2,-2 h -137.5 c -1.1,0 -2,0.9 -2,2 v 33.5 c 0,1.1 0.9,2 2,2 H -2 c 1.1,0 2,-0.9 2,-2 z"
             style="fill:none;stroke:#d91920;stroke-width:1;stroke-linecap:butt;stroke-linejoin:round;stroke-miterlimit:4;stroke-dasharray:none;stroke-opacity:1"
             id="path34" /></g><text
           transform="matrix(1,0,0,-1,429.0542,629.2168)"
           style="font-variant:normal;font-weight:normal;font-stretch:normal;font-size:11.5px;font-family:Courier;-inkscape-font-specification:Courier;writing-mode:lr-tb;fill:#231f20;fill-opacity:1;fill-rule:nonzero;stroke:none"
           id="text38"><tspan
             x="0 6.9000001 13.8 20.700001"
             y="0"
             id="tspan36">WPKH</tspan></text><text
           transform="matrix(1,0,0,-1,456.6587,626.2168)"
           style="font-variant:normal;font-weight:normal;font-stretch:normal;font-size:7px;font-family:Courier;-inkscape-font-specification:Courier;writing-mode:lr-tb;fill:#231f20;fill-opacity:1;fill-rule:nonzero;stroke:none"
           id="text42"><tspan
             x="0"
             y="0"
             id="tspan40">P</tspan></text><g
           id="g44"
           transform="translate(298.3911,633.251)"><path
             d="M 0,0 H 32.423"
             style="fill:none;stroke:#231f20;stroke-width:0.5;stroke-linecap:butt;stroke-linejoin:miter;stroke-miterlimit:4;stroke-dasharray:none;stroke-opacity:1"
             id="path46" /></g><g
           id="g48"
           transform="translate(330.9063,632.8408)"><path
             d="m 0,0 -1.701,1.912 c 3.185,0.979 5.486,0.231 7.34,-0.369 1.375,-0.449 2.369,-0.77 3.736,-0.475 1.387,0.299 1.869,0.83 2.43,1.446 0.724,0.799 1.547,1.705 4.324,1.972 l 1.35,-1.98 C 15.279,2.294 14.699,1.658 14.029,0.92 13.43,0.26 12.748,-0.488 10.945,-0.879 8.959,-1.307 7.277,-0.76 5.795,-0.28 4.119,0.266 2.533,0.78 0,0"
             style="fill:#f8a45c;fill-opacity:1;fill-rule:nonzero;stroke:none"
             id="path50" /></g><g
           id="g52"
           transform="translate(330.9063,632.8408)"><path
             d="m 0,0 -1.701,1.912 c 3.185,0.979 5.486,0.231 7.34,-0.369 1.375,-0.449 2.369,-0.77 3.736,-0.475 1.387,0.299 1.869,0.83 2.43,1.446 0.724,0.799 1.547,1.705 4.324,1.972 l 1.35,-1.98 C 15.279,2.294 14.699,1.658 14.029,0.92 13.43,0.26 12.748,-0.488 10.945,-0.879 8.959,-1.307 7.277,-0.76 5.795,-0.28 4.119,0.266 2.533,0.78 0,0 Z"
             style="fill:none;stroke:#231f20;stroke-width:0.3;stroke-linecap:butt;stroke-linejoin:miter;stroke-miterlimit:4;stroke-dasharray:none;stroke-opacity:1"
             id="path54" /></g><g
           id="g56"
           transform="translate(334.2305,631.0234)"><path
             d="M 0,0 -1.701,1.911 C 1.482,2.893 3.787,2.144 5.639,1.543 7.014,1.096 8.008,0.771 9.377,1.067 c 1.385,0.3 1.867,0.83 2.428,1.448 0.726,0.798 1.549,1.705 4.322,1.97 L 17.48,2.506 C 15.279,2.294 14.701,1.657 14.029,0.919 13.43,0.26 12.75,-0.489 10.945,-0.878 8.959,-1.307 7.279,-0.762 5.795,-0.279 4.119,0.265 2.535,0.778 0,0"
             style="fill:#f8a45c;fill-opacity:1;fill-rule:nonzero;stroke:none"
             id="path58" /></g><g
           id="g60"
           transform="translate(334.2305,631.0234)"><path
             d="M 0,0 -1.701,1.911 C 1.482,2.893 3.787,2.144 5.639,1.543 7.014,1.096 8.008,0.771 9.377,1.067 c 1.385,0.3 1.867,0.83 2.428,1.448 0.726,0.798 1.549,1.705 4.322,1.97 L 17.48,2.506 C 15.279,2.294 14.701,1.657 14.029,0.919 13.43,0.26 12.75,-0.489 10.945,-0.878 8.959,-1.307 7.279,-0.762 5.795,-0.279 4.119,0.265 2.535,0.778 0,0 Z"
             style="fill:none;stroke:#231f20;stroke-width:0.3;stroke-linecap:butt;stroke-linejoin:miter;stroke-miterlimit:4;stroke-dasharray:none;stroke-opacity:1"
             id="path62" /></g><g
           id="g64"
           transform="translate(333.4941,628.9971)"><path
             d="M 0,0 -1.701,1.91 C 1.482,2.893 3.787,2.143 5.641,1.541 7.014,1.096 8.008,0.772 9.375,1.066 c 1.387,0.3 1.869,0.832 2.428,1.45 0.726,0.797 1.549,1.703 4.322,1.969 L 17.479,2.504 C 15.277,2.294 14.701,1.658 14.027,0.918 13.428,0.258 12.75,-0.49 10.945,-0.879 8.961,-1.307 7.279,-0.762 5.795,-0.28 4.121,0.266 2.535,0.779 0,0"
             style="fill:#f8a45c;fill-opacity:1;fill-rule:nonzero;stroke:none"
             id="path66" /></g><g
           id="g68"
           transform="translate(333.4941,628.9971)"><path
             d="M 0,0 -1.701,1.91 C 1.482,2.893 3.787,2.143 5.641,1.541 7.014,1.096 8.008,0.772 9.375,1.066 c 1.387,0.3 1.869,0.832 2.428,1.45 0.726,0.797 1.549,1.703 4.322,1.969 L 17.479,2.504 C 15.277,2.294 14.701,1.658 14.027,0.918 13.428,0.258 12.75,-0.49 10.945,-0.879 8.961,-1.307 7.279,-0.762 5.795,-0.28 4.121,0.266 2.535,0.779 0,0 Z"
             style="fill:none;stroke:#231f20;stroke-width:0.3;stroke-linecap:butt;stroke-linejoin:miter;stroke-miterlimit:4;stroke-dasharray:none;stroke-opacity:1"
             id="path70" /></g><g
           id="g72"
           transform="translate(336.875,627.1982)"><path
             d="m 0,0 -1.701,1.913 c 3.183,0.978 5.49,0.231 7.34,-0.369 1.377,-0.449 2.369,-0.773 3.736,-0.476 1.387,0.299 1.871,0.83 2.428,1.447 0.728,0.799 1.551,1.704 4.324,1.971 l 1.352,-1.98 C 15.279,2.295 14.701,1.658 14.029,0.92 13.43,0.258 12.752,-0.488 10.945,-0.879 8.961,-1.308 7.281,-0.76 5.795,-0.279 4.119,0.266 2.535,0.78 0,0"
             style="fill:#f8a45c;fill-opacity:1;fill-rule:nonzero;stroke:none"
             id="path74" /></g><g
           id="g76"
           transform="translate(336.875,627.1982)"><path
             d="m 0,0 -1.701,1.913 c 3.183,0.978 5.49,0.231 7.34,-0.369 1.377,-0.449 2.369,-0.773 3.736,-0.476 1.387,0.299 1.871,0.83 2.428,1.447 0.728,0.799 1.551,1.704 4.324,1.971 l 1.352,-1.98 C 15.279,2.295 14.701,1.658 14.029,0.92 13.43,0.258 12.752,-0.488 10.945,-0.879 8.961,-1.308 7.281,-0.76 5.795,-0.279 4.119,0.266 2.535,0.78 0,0 Z"
             style="fill:none;stroke:#231f20;stroke-width:0.3;stroke-linecap:butt;stroke-linejoin:miter;stroke-miterlimit:4;stroke-dasharray:none;stroke-opacity:1"
             id="path78" /></g><g
           id="g80"
           transform="translate(331.4258,634.9268)"><path
             d="M 0,0 -1.705,1.914 C 1.48,2.895 3.785,2.145 5.637,1.545 7.012,1.097 8.006,0.775 9.375,1.07 c 1.385,0.299 1.865,0.83 2.428,1.447 0.724,0.799 1.549,1.704 4.32,1.971 l 1.354,-1.981 c -2.2,-0.21 -2.78,-0.849 -3.45,-1.585 -0.601,-0.661 -1.281,-1.408 -3.084,-1.799 -1.986,-0.428 -3.668,0.119 -5.15,0.6 C 4.115,0.267 2.533,0.782 0,0"
             style="fill:#f8a45c;fill-opacity:1;fill-rule:nonzero;stroke:none"
             id="path82" /></g><g
           id="g84"
           transform="translate(331.4258,634.9268)"><path
             d="M 0,0 -1.705,1.914 C 1.48,2.895 3.785,2.145 5.637,1.545 7.012,1.097 8.006,0.775 9.375,1.07 c 1.385,0.299 1.865,0.83 2.428,1.447 0.724,0.799 1.549,1.704 4.32,1.971 l 1.354,-1.981 c -2.2,-0.21 -2.78,-0.849 -3.45,-1.585 -0.601,-0.661 -1.281,-1.408 -3.084,-1.799 -1.986,-0.428 -3.668,0.119 -5.15,0.6 C 4.115,0.267 2.533,0.782 0,0 Z"
             style="fill:none;stroke:#231f20;stroke-width:0.3;stroke-linecap:butt;stroke-linejoin:miter;stroke-miterlimit:4;stroke-dasharray:none;stroke-opacity:1"
             id="path86" /></g><g
           id="g88"
           transform="translate(331.5332,636.6338)"><path
             d="M 0,0 2.322,0.208 3.334,-0.332 1.82,-0.236 Z"
             style="fill:#231f20;fill-opacity:1;fill-rule:nonzero;stroke:none"
             id="path90" /></g><g
           id="g92"
           transform="translate(337.4727,635.4541)"><path
             d="m 0,0 2.479,-0.936 1.603,0.507 -2.033,0.265 z"
             style="fill:#231f20;fill-opacity:1;fill-rule:nonzero;stroke:none"
             id="path94" /></g><g
           id="g96"
           transform="translate(338.4473,632.4707)"><path
             d="m 0,0 -1.746,0.09 -0.715,-0.486 1.772,0.178 2.267,-0.906 1.424,0.02 -1.961,0.765 z"
             style="fill:#231f20;fill-opacity:1;fill-rule:nonzero;stroke:none"
             id="path98" /></g><g
           id="g100"
           transform="translate(348.7363,632.665)"><path
             d="m 0,0 c -0.443,-0.045 -1.574,-0.306 -1.574,-0.306 l -0.865,-1.419 1.218,0.862 1.897,0.264 z"
             style="fill:#231f20;fill-opacity:1;fill-rule:nonzero;stroke:none"
             id="path102" /></g><g
           id="g104"
           transform="translate(349.6367,629.1807)"><path
             d="m 0,0 -0.805,-1.018 -1.834,-0.578 1.028,-0.438 1.509,0.619 z"
             style="fill:#231f20;fill-opacity:1;fill-rule:nonzero;stroke:none"
             id="path106" /></g><g
           id="g108"
           transform="translate(341.9668,628.2373)"><path
             d="M 0,0 -1.777,0.539 -3.137,0.205 -1.516,0.097 Z"
             style="fill:#231f20;fill-opacity:1;fill-rule:nonzero;stroke:none"
             id="path110" /></g><g
           id="g112"
           transform="translate(336.0684,630.4326)"><path
             d="M 0,0 -1.008,-0.176 0.398,-0.255 Z"
             style="fill:#231f20;fill-opacity:1;fill-rule:nonzero;stroke:none"
             id="path114" /></g><g
           id="g116"
           transform="translate(344.2871,636.5068)"><path
             d="m 0,0 -1.252,-0.347 -1.48,-1.134 2.031,0.449 z"
             style="fill:#f9aeca;fill-opacity:1;fill-rule:evenodd;stroke:none"
             id="path118" /></g><g
           id="g120"
           transform="translate(345.8867,630.3818)"><path
             d="m 0,0 -1.648,-0.807 -0.182,-0.486 1.588,0.406 z"
             style="fill:#f9aeca;fill-opacity:1;fill-rule:evenodd;stroke:none"
             id="path122" /></g><g
           id="g124"
           transform="translate(352.9492,630.8936)"><path
             d="m 0,0 -1.848,-0.679 -0.134,-0.9 1.527,0.72 z"
             style="fill:#f9aeca;fill-opacity:1;fill-rule:evenodd;stroke:none"
             id="path126" /></g><g
           id="g128"
           transform="translate(334.9512,630.9863)"><path
             d="m 0,0 -1.25,-1.062 -0.447,0.67 z"
             style="fill:#f9aeca;fill-opacity:1;fill-rule:evenodd;stroke:none"
             id="path130" /></g><g
           id="g132"
           transform="translate(342.4961,633.2705)"><path
             d="m 0,0 -2.264,0.191 1.225,-0.564 z"
             style="fill:#96cd56;fill-opacity:1;fill-rule:evenodd;stroke:none"
             id="path134" /></g><g
           id="g136"
           transform="translate(344.7188,627.6768)"><path
             d="m 0,0 -2.111,0.479 c 0,0 1.09,-0.754 1.394,-0.897 0.307,-0.141 2.143,-0.277 2.143,-0.277 z"
             style="fill:#96cd56;fill-opacity:1;fill-rule:evenodd;stroke:none"
             id="path138" /></g><g
           id="g140"
           transform="translate(335.6934,633.0332)"><path
             d="m 0,0 -1.867,-0.064 0.722,-1.011 z"
             style="fill:#96cd56;fill-opacity:1;fill-rule:evenodd;stroke:none"
             id="path142" /></g><g
           id="g144"
           transform="translate(346.8789,638.5166)"><path
             d="m 0,0 -2.092,-0.851 c 0,0 -0.838,-1.217 -0.5,-1.159 0.336,0.059 1.785,0.992 1.785,0.992 z"
             style="fill:#96cd56;fill-opacity:1;fill-rule:evenodd;stroke:none"
             id="path146" /></g><g
           id="g148"
           transform="translate(293.1665,607)"><path
             d="m 0,0 c 0,-1.1 -0.9,-2 -2,-2 h -167.167 c -1.1,0 -2,0.9 -2,2 v 33.333 c 0,1.101 0.9,2 2,2 H -2 c 1.1,0 2,-0.899 2,-2 z"
             style="fill:#feefe9;fill-opacity:1;fill-rule:evenodd;stroke:none"
             id="path150" /></g><g
           id="g152"
           transform="translate(212.3335,642.1938)"><path
             d="M 0,0 V -36.671"
             style="fill:none;stroke:#656263;stroke-width:0.5;stroke-linecap:butt;stroke-linejoin:miter;stroke-miterlimit:4;stroke-dasharray:none;stroke-opacity:1"
             id="path154" /></g><g
           id="g156"
           transform="translate(293.1665,607)"><path
             d="m 0,0 c 0,-1.1 -0.9,-2 -2,-2 h -167.167 c -1.1,0 -2,0.9 -2,2 v 33.333 c 0,1.101 0.9,2 2,2 H -2 c 1.1,0 2,-0.899 2,-2 z"
             style="fill:none;stroke:#d91920;stroke-width:1;stroke-linecap:butt;stroke-linejoin:round;stroke-miterlimit:4;stroke-dasharray:none;stroke-opacity:1"
             id="path158" /></g><text
           transform="matrix(1,0,0,-1,155.1982,629.2168)"
           style="font-variant:normal;font-weight:normal;font-stretch:normal;font-size:11.5px;font-family:Courier;-inkscape-font-specification:Courier;writing-mode:lr-tb;fill:#231f20;fill-opacity:1;fill-rule:nonzero;stroke:none"
           id="text166"><tspan
             x="0"
             y="0"
             id="tspan160">0</tspan><tspan
             x="0"
             y="16.997"
             id="tspan162">3</tspan><tspan
             x="61.0765 67.976501 74.876503"
             y="0"
             id="tspan164">0.1</tspan></text><g
           id="g168"
           transform="translate(127.2397,615.4575)"><path
             d="M 0,0 -1.701,1.912 C 1.484,2.891 3.786,2.143 5.64,1.542 7.014,1.094 8.009,0.772 9.375,1.068 c 1.387,0.299 1.87,0.83 2.43,1.446 0.725,0.799 1.547,1.705 4.324,1.972 l 1.35,-1.98 C 15.279,2.293 14.7,1.657 14.03,0.92 13.43,0.259 12.749,-0.489 10.946,-0.879 8.959,-1.307 7.278,-0.76 5.795,-0.281 4.119,0.265 2.534,0.779 0,0"
             style="fill:#f8a45c;fill-opacity:1;fill-rule:nonzero;stroke:none"
             id="path170" /></g><g
           id="g172"
           transform="translate(127.2397,615.4575)"><path
             d="M 0,0 -1.701,1.912 C 1.484,2.891 3.786,2.143 5.64,1.542 7.014,1.094 8.009,0.772 9.375,1.068 c 1.387,0.299 1.87,0.83 2.43,1.446 0.725,0.799 1.547,1.705 4.324,1.972 l 1.35,-1.98 C 15.279,2.293 14.7,1.657 14.03,0.92 13.43,0.259 12.749,-0.489 10.946,-0.879 8.959,-1.307 7.278,-0.76 5.795,-0.281 4.119,0.265 2.534,0.779 0,0 Z"
             style="fill:none;stroke:#231f20;stroke-width:0.3;stroke-linecap:butt;stroke-linejoin:miter;stroke-miterlimit:4;stroke-dasharray:none;stroke-opacity:1"
             id="path174" /></g><g
           id="g176"
           transform="translate(130.5649,613.6392)"><path
             d="m 0,0 -1.703,1.912 c 3.184,0.981 5.489,0.233 7.34,-0.369 1.376,-0.447 2.37,-0.772 3.738,-0.475 1.386,0.299 1.869,0.83 2.429,1.448 0.726,0.798 1.549,1.705 4.322,1.97 l 1.353,-1.98 C 15.278,2.294 14.7,1.658 14.028,0.92 13.429,0.26 12.749,-0.488 10.944,-0.878 8.958,-1.307 7.279,-0.762 5.794,-0.279 4.119,0.266 2.534,0.779 0,0"
             style="fill:#f8a45c;fill-opacity:1;fill-rule:nonzero;stroke:none"
             id="path178" /></g><g
           id="g180"
           transform="translate(130.5649,613.6392)"><path
             d="m 0,0 -1.703,1.912 c 3.184,0.981 5.489,0.233 7.34,-0.369 1.376,-0.447 2.37,-0.772 3.738,-0.475 1.386,0.299 1.869,0.83 2.429,1.448 0.726,0.798 1.549,1.705 4.322,1.97 l 1.353,-1.98 C 15.278,2.294 14.7,1.658 14.028,0.92 13.429,0.26 12.749,-0.488 10.944,-0.878 8.958,-1.307 7.279,-0.762 5.794,-0.279 4.119,0.266 2.534,0.779 0,0 Z"
             style="fill:none;stroke:#231f20;stroke-width:0.3;stroke-linecap:butt;stroke-linejoin:miter;stroke-miterlimit:4;stroke-dasharray:none;stroke-opacity:1"
             id="path182" /></g><g
           id="g184"
           transform="translate(129.8281,611.6128)"><path
             d="M 0,0 -1.702,1.911 C 1.483,2.893 3.786,2.144 5.641,1.542 7.013,1.097 8.008,0.772 9.375,1.067 c 1.387,0.299 1.868,0.832 2.428,1.449 0.726,0.797 1.548,1.704 4.322,1.969 l 1.353,-1.98 C 15.277,2.294 14.701,1.658 14.027,0.919 13.427,0.259 12.75,-0.489 10.945,-0.879 8.96,-1.307 7.28,-0.762 5.795,-0.28 4.12,0.267 2.535,0.78 0,0"
             style="fill:#f8a45c;fill-opacity:1;fill-rule:nonzero;stroke:none"
             id="path186" /></g><g
           id="g188"
           transform="translate(129.8281,611.6128)"><path
             d="M 0,0 -1.702,1.911 C 1.483,2.893 3.786,2.144 5.641,1.542 7.013,1.097 8.008,0.772 9.375,1.067 c 1.387,0.299 1.868,0.832 2.428,1.449 0.726,0.797 1.548,1.704 4.322,1.969 l 1.353,-1.98 C 15.277,2.294 14.701,1.658 14.027,0.919 13.427,0.259 12.75,-0.489 10.945,-0.879 8.96,-1.307 7.28,-0.762 5.795,-0.28 4.12,0.267 2.535,0.78 0,0 Z"
             style="fill:none;stroke:#231f20;stroke-width:0.3;stroke-linecap:butt;stroke-linejoin:miter;stroke-miterlimit:4;stroke-dasharray:none;stroke-opacity:1"
             id="path190" /></g><g
           id="g192"
           transform="translate(133.209,609.814)"><path
             d="M 0,0 -1.702,1.913 C 1.482,2.892 3.789,2.144 5.639,1.544 7.016,1.095 8.008,0.771 9.375,1.069 c 1.386,0.299 1.871,0.83 2.427,1.446 0.729,0.8 1.551,1.705 4.324,1.972 l 1.352,-1.98 C 15.279,2.295 14.701,1.658 14.029,0.92 13.429,0.259 12.751,-0.487 10.945,-0.878 8.961,-1.308 7.28,-0.76 5.795,-0.278 4.119,0.267 2.536,0.78 0,0"
             style="fill:#f8a45c;fill-opacity:1;fill-rule:nonzero;stroke:none"
             id="path194" /></g><g
           id="g196"
           transform="translate(133.209,609.814)"><path
             d="M 0,0 -1.702,1.913 C 1.482,2.892 3.789,2.144 5.639,1.544 7.016,1.095 8.008,0.771 9.375,1.069 c 1.386,0.299 1.871,0.83 2.427,1.446 0.729,0.8 1.551,1.705 4.324,1.972 l 1.352,-1.98 C 15.279,2.295 14.701,1.658 14.029,0.92 13.429,0.259 12.751,-0.487 10.945,-0.878 8.961,-1.308 7.28,-0.76 5.795,-0.278 4.119,0.267 2.536,0.78 0,0 Z"
             style="fill:none;stroke:#231f20;stroke-width:0.3;stroke-linecap:butt;stroke-linejoin:miter;stroke-miterlimit:4;stroke-dasharray:none;stroke-opacity:1"
             id="path198" /></g><g
           id="g200"
           transform="translate(127.7588,617.5435)"><path
             d="m 0,0 -1.704,1.914 c 3.186,0.98 5.49,0.231 7.342,-0.369 1.375,-0.449 2.368,-0.771 3.737,-0.476 1.386,0.3 1.866,0.83 2.428,1.447 0.725,0.799 1.55,1.705 4.321,1.971 L 17.477,2.506 C 15.278,2.297 14.698,1.658 14.027,0.922 13.427,0.26 12.747,-0.486 10.943,-0.878 8.958,-1.306 7.276,-0.758 5.793,-0.277 4.117,0.266 2.534,0.781 0,0"
             style="fill:#f8a45c;fill-opacity:1;fill-rule:nonzero;stroke:none"
             id="path202" /></g><g
           id="g204"
           transform="translate(127.7588,617.5435)"><path
             d="m 0,0 -1.704,1.914 c 3.186,0.98 5.49,0.231 7.342,-0.369 1.375,-0.449 2.368,-0.771 3.737,-0.476 1.386,0.3 1.866,0.83 2.428,1.447 0.725,0.799 1.55,1.705 4.321,1.971 L 17.477,2.506 C 15.278,2.297 14.698,1.658 14.027,0.922 13.427,0.26 12.747,-0.486 10.943,-0.878 8.958,-1.306 7.276,-0.758 5.793,-0.277 4.117,0.266 2.534,0.781 0,0 Z"
             style="fill:none;stroke:#231f20;stroke-width:0.3;stroke-linecap:butt;stroke-linejoin:miter;stroke-miterlimit:4;stroke-dasharray:none;stroke-opacity:1"
             id="path206" /></g><g
           id="g208"
           transform="translate(127.8667,619.2495)"><path
             d="M 0,0 2.323,0.208 3.335,-0.331 1.821,-0.235 Z"
             style="fill:#231f20;fill-opacity:1;fill-rule:nonzero;stroke:none"
             id="path210" /></g><g
           id="g212"
           transform="translate(133.8062,618.0708)"><path
             d="M 0,0 2.479,-0.936 4.083,-0.43 2.048,-0.164 Z"
             style="fill:#231f20;fill-opacity:1;fill-rule:nonzero;stroke:none"
             id="path214" /></g><g
           id="g216"
           transform="translate(134.7803,615.0864)"><path
             d="m 0,0 -1.745,0.09 -0.715,-0.485 1.772,0.178 2.267,-0.906 1.424,0.019 -1.962,0.765 z"
             style="fill:#231f20;fill-opacity:1;fill-rule:nonzero;stroke:none"
             id="path218" /></g><g
           id="g220"
           transform="translate(145.0698,615.2808)"><path
             d="m 0,0 c -0.443,-0.045 -1.574,-0.306 -1.574,-0.306 l -0.865,-1.418 1.218,0.862 1.897,0.263 z"
             style="fill:#231f20;fill-opacity:1;fill-rule:nonzero;stroke:none"
             id="path222" /></g><g
           id="g224"
           transform="translate(145.9702,611.7964)"><path
             d="m 0,0 -0.805,-1.017 -1.834,-0.579 1.028,-0.438 1.509,0.619 z"
             style="fill:#231f20;fill-opacity:1;fill-rule:nonzero;stroke:none"
             id="path226" /></g><g
           id="g228"
           transform="translate(138.2998,610.854)"><path
             d="M 0,0 -1.776,0.539 -3.135,0.204 -1.514,0.096 Z"
             style="fill:#231f20;fill-opacity:1;fill-rule:nonzero;stroke:none"
             id="path230" /></g><g
           id="g232"
           transform="translate(132.4028,613.0493)"><path
             d="m 0,0 -1.008,-0.176 1.406,-0.08 z"
             style="fill:#231f20;fill-opacity:1;fill-rule:nonzero;stroke:none"
             id="path234" /></g><g
           id="g236"
           transform="translate(140.6211,619.1235)"><path
             d="m 0,0 -1.253,-0.348 -1.479,-1.134 2.031,0.449 z"
             style="fill:#f9aeca;fill-opacity:1;fill-rule:evenodd;stroke:none"
             id="path238" /></g><g
           id="g240"
           transform="translate(142.2207,612.9985)"><path
             d="m 0,0 -1.649,-0.807 -0.181,-0.486 1.588,0.406 z"
             style="fill:#f9aeca;fill-opacity:1;fill-rule:evenodd;stroke:none"
             id="path242" /></g><g
           id="g244"
           transform="translate(149.2827,613.5093)"><path
             d="m 0,0 -1.848,-0.679 -0.134,-0.9 1.527,0.72 z"
             style="fill:#f9aeca;fill-opacity:1;fill-rule:evenodd;stroke:none"
             id="path246" /></g><g
           id="g248"
           transform="translate(131.2852,613.6021)"><path
             d="m 0,0 -1.25,-1.062 -0.447,0.671 z"
             style="fill:#f9aeca;fill-opacity:1;fill-rule:evenodd;stroke:none"
             id="path250" /></g><g
           id="g252"
           transform="translate(138.8301,615.8872)"><path
             d="m 0,0 -2.265,0.191 1.226,-0.564 z"
             style="fill:#96cd56;fill-opacity:1;fill-rule:evenodd;stroke:none"
             id="path254" /></g><g
           id="g256"
           transform="translate(141.0527,610.2935)"><path
             d="m 0,0 -2.112,0.479 c 0,0 1.091,-0.754 1.395,-0.897 0.307,-0.141 2.142,-0.278 2.142,-0.278 z"
             style="fill:#96cd56;fill-opacity:1;fill-rule:evenodd;stroke:none"
             id="path258" /></g><g
           id="g260"
           transform="translate(132.0269,615.6489)"><path
             d="m 0,0 -1.867,-0.064 0.722,-1.011 z"
             style="fill:#96cd56;fill-opacity:1;fill-rule:evenodd;stroke:none"
             id="path262" /></g><g
           id="g264"
           transform="translate(143.2124,621.1323)"><path
             d="m 0,0 -2.092,-0.851 c 0,0 -0.837,-1.216 -0.499,-1.158 0.336,0.059 1.784,0.992 1.784,0.992 z"
             style="fill:#96cd56;fill-opacity:1;fill-rule:evenodd;stroke:none"
             id="path266" /></g><g
           id="g268"
           transform="translate(172.9478,628.4136)"><path
             d="M 0,0 C 0.846,-0.152 1.141,-0.882 1.646,-1.392 1.785,-0.454 2.154,0.239 2.533,0.928 2.523,1.007 2.514,1.084 2.406,1.062 1.742,0.56 0.707,0.453 0,0 M 3.482,2.054 C 3.717,2.094 3.854,2.237 4.053,2.317 4.01,2.513 4.035,2.784 3.863,2.849 3.76,2.558 3.592,2.333 3.482,2.054 M 0.379,2.119 C 0.717,2.868 1.09,3.583 1.457,4.303 0.904,4.455 0.244,4.495 -0.381,4.566 0.004,3.889 0.254,3.071 0.379,2.119 M -3.23,4.503 C -3.482,4.047 -3.58,3.451 -3.736,2.849 -3.879,2.312 -3.914,1.56 -4.373,1.325 c -0.16,0.904 0.41,2.11 0.637,3.044 -1.725,-0.348 -3.159,-1.651 -3.106,-3.575 0.039,-1.423 1.106,-1.932 2.596,-1.92 3.164,0.028 5.475,2.859 3.357,5.692 -0.625,0.126 -1.525,-0.02 -2.341,-0.063 m 0.125,0.396 c 0.56,0.122 1.3,0.053 1.837,0.2 C -1.725,5.546 -2.102,6.08 -2.471,6.62 -2.633,5.993 -2.912,5.492 -3.105,4.899 M 4.307,4.503 C 4.691,5.49 5.441,6.449 5.701,7.349 5.115,6.57 4.354,5.622 4.307,4.503 m 7.156,5.56 C 9.727,9.917 7.629,9.36 6.713,8.276 6.168,7.63 5.904,6.671 5.445,5.827 4.971,4.948 3.813,3.565 4.434,2.581 c 2.586,1.586 5.193,3.234 7.472,5.098 0.733,0.597 1.625,1.29 1.967,2.252 -0.752,0.294 -1.609,0.199 -2.41,0.132 M 4.813,2.317 C 6.313,1.635 7.547,2.884 8.803,3.11 9.111,2.766 8.756,2.056 8.932,1.654 9.842,0.996 11.611,1.235 12.287,0.331 11.887,0.015 11.346,0.53 10.639,0.728 9.422,1.069 8.092,0.86 8.549,2.648 7.461,2.137 5.635,1.183 4.369,2.054 3.943,1.836 3.584,1.55 3.102,1.392 2.6,0.327 2.182,-0.823 1.771,-1.987 c -0.878,0.316 -0.906,1.524 -1.96,1.656 -0.174,-0.262 -0.237,-0.639 -0.317,-0.993 0.244,-0.068 0.51,0.73 0.885,0.53 0.033,-0.508 -0.539,-0.932 -1.014,-1.126 -0.523,0.333 -0.119,1.083 0,1.656 -0.801,-0.639 -2.422,-1.35 -3.992,-1.258 -0.602,0.034 -1.373,0.183 -1.836,0.531 -1.146,0.859 -0.842,3.113 -0.062,4.168 0.72,0.98 1.754,1.33 2.914,1.656 0.351,0.579 0.541,1.332 0.822,1.985 0.359,0.027 0.453,0.095 0.57,0.464 1.873,0.733 4.041,1.16 5.574,2.252 C 1.41,9.175 -0.723,8.524 -2.727,7.944 -3.361,7.761 -4,7.429 -4.627,7.548 c 0.074,0.393 0.598,0.441 0.891,0.527 1.002,0.302 2.125,0.612 3.23,0.928 1.432,0.412 2.971,1.001 4.434,0.861 C 3.963,9.173 3.238,8.975 2.785,8.738 1.408,8.021 -0.482,7.507 -2.027,6.885 -1.771,6.026 -1.139,5.565 -0.635,4.966 0.197,4.972 0.881,4.83 1.582,4.701 2.336,5.613 2.959,6.839 3.672,7.878 3.865,8.159 4.127,8.634 4.496,8.605 4.377,7.835 3.73,7.279 3.293,6.62 2.855,5.964 2.488,5.239 2.09,4.566 2.559,4.241 3.32,4.22 3.482,3.574 2.91,3.446 2.523,4.069 1.961,4.17 1.148,3.19 0.713,1.813 0.125,0.597 1.178,0.798 1.953,1.292 2.85,1.654 3.207,2.481 3.705,3.013 3.799,4.17 3.967,6.247 5.236,7.466 6.461,8.539 6.523,8.871 6.721,9.063 6.84,9.333 7.086,9.392 7.066,9.173 7.219,9.136 8.51,10.067 10.895,10.7 13.047,10.527 13.436,10.494 14.324,10.386 14.314,9.864 14.299,9.026 12.961,8.06 12.352,7.548 10.104,5.663 7.057,3.733 4.813,2.317"
             style="fill:#2c81ab;fill-opacity:1;fill-rule:evenodd;stroke:none"
             id="path270" /></g><g
           id="g272"
           transform="translate(205.6196,627.1899)"><path
             d="m 0,0 -6.42,6.613 c 0.688,1.51 0.42,3.36 -0.818,4.633 -1.608,1.658 -4.242,1.711 -5.883,0.119 -0.033,-0.033 -0.065,-0.07 -0.096,-0.105 -0.037,-0.033 -0.074,-0.063 -0.109,-0.096 -1.641,-1.59 -1.664,-4.226 -0.057,-5.883 1.149,-1.179 2.813,-1.543 4.27,-1.08 L -8.576,3.65 c 0.32,0.237 0.822,0.166 1.162,-0.185 0.34,-0.352 0.394,-0.852 0.15,-1.166 l 0.588,-0.608 c 0.322,0.237 0.821,0.166 1.162,-0.185 0.342,-0.352 0.397,-0.852 0.151,-1.166 l 0.59,-0.608 c 0.32,0.237 0.82,0.166 1.162,-0.185 0.341,-0.352 0.396,-0.852 0.148,-1.166 l 0.41,-0.422 3.297,0.174 0.209,0.201 z"
             style="fill:none;stroke:#231f20;stroke-width:0.75;stroke-linecap:butt;stroke-linejoin:round;stroke-miterlimit:4;stroke-dasharray:none;stroke-opacity:1"
             id="path274" /></g><g
           id="g276"
           transform="translate(206.0728,625.5239)"><path
             d="m 0,0 -7.078,8.078 c 0.687,1.51 0.42,3.361 -0.818,4.635 -1.61,1.656 -4.243,1.711 -5.883,0.117 -1.641,-1.59 -1.664,-4.226 -0.057,-5.883 1.148,-1.179 2.813,-1.543 4.27,-1.08 l 0.537,-0.551 c 0.32,0.237 0.822,0.166 1.162,-0.185 0.34,-0.352 0.394,-0.852 0.15,-1.166 l 0.588,-0.608 c 0.322,0.237 0.82,0.166 1.162,-0.185 C -5.625,2.82 -5.57,2.32 -5.816,2.006 l 0.589,-0.608 c 0.321,0.237 0.821,0.166 1.163,-0.185 0.341,-0.352 0.396,-0.852 0.148,-1.166 l 0.41,-0.422 3.297,0.174 z"
             style="fill:#278a2f;fill-opacity:1;fill-rule:nonzero;stroke:none"
             id="path278" /></g><g
           id="g280"
           transform="translate(206.0728,625.5239)"><path
             d="m 0,0 -7.078,8.078 c 0.687,1.51 0.42,3.361 -0.818,4.635 -1.61,1.656 -4.243,1.711 -5.883,0.117 -1.641,-1.59 -1.664,-4.226 -0.057,-5.883 1.148,-1.179 2.813,-1.543 4.27,-1.08 l 0.537,-0.551 c 0.32,0.237 0.822,0.166 1.162,-0.185 0.34,-0.352 0.394,-0.852 0.15,-1.166 l 0.588,-0.608 c 0.322,0.237 0.82,0.166 1.162,-0.185 C -5.625,2.82 -5.57,2.32 -5.816,2.006 l 0.589,-0.608 c 0.321,0.237 0.821,0.166 1.163,-0.185 0.341,-0.352 0.396,-0.852 0.148,-1.166 l 0.41,-0.422 3.297,0.174 z"
             style="fill:none;stroke:#278a2f;stroke-width:0.3;stroke-linecap:butt;stroke-linejoin:round;stroke-miterlimit:4;stroke-dasharray:none;stroke-opacity:1"
             id="path282" /></g></g></g><g
       id="g284"><g
         id="g286"><g
           id="g292"><g
             id="g294"><path
               d="m 192.498,638.555 c -1.638,-1.592 -1.664,-4.229 -0.055,-5.885 v 0 c 1.147,-1.18 2.813,-1.542 4.27,-1.078 v 0 l 0.536,-0.553 c 0.322,0.237 0.822,0.167 1.161,-0.185 v 0 c 0.341,-0.35 0.397,-0.851 0.151,-1.166 v 0 l 0.59,-0.608 c 0.32,0.237 0.818,0.167 1.162,-0.185 v 0 c 0.34,-0.349 0.394,-0.852 0.149,-1.166 v 0 l 0.591,-0.607 c 0.318,0.236 0.821,0.165 1.163,-0.184 v 0 c 0.337,-0.352 0.392,-0.851 0.148,-1.166 v 0 l 0.41,-0.424 3.299,0.176 -0.454,1.666 -6.419,6.613 c 0.687,1.51 0.42,3.359 -0.818,4.633 v 0 c -0.825,0.851 -1.921,1.279 -3.014,1.279 v 0 c -1.037,0 -2.071,-0.385 -2.87,-1.16"
               style="fill:url(#linearGradient300);stroke:none"
               id="path302" /></g></g></g></g><g
       id="g304"><g
         id="g306"><g
           id="g312"><g
             id="g314"><path
               d="m 192.731,638.315 c -1.504,-1.463 -1.525,-3.889 -0.049,-5.41 v 0 c 1.03,-1.057 2.533,-1.438 3.927,-0.994 v 0 l 0.2,0.064 0.508,-0.525 c 0.434,0.152 0.963,0.019 1.334,-0.362 v 0 c 0.373,-0.382 0.488,-0.916 0.322,-1.344 v 0 l 0.245,-0.252 c 0.434,0.151 0.964,0.018 1.333,-0.362 v 0 c 0.371,-0.384 0.488,-0.918 0.325,-1.344 v 0 l 0.243,-0.252 c 0.434,0.152 0.963,0.019 1.334,-0.364 v 0 c 0.374,-0.38 0.489,-0.916 0.325,-1.343 v 0 l 0.131,-0.137 2.732,0.147 -0.322,1.181 -6.518,6.712 0.094,0.21 c 0.657,1.441 0.36,3.117 -0.752,4.262 v 0 c -0.76,0.782 -1.769,1.176 -2.776,1.176 v 0 c -0.953,0 -1.903,-0.353 -2.636,-1.063"
               style="fill:url(#linearGradient320);stroke:none"
               id="path322" /></g></g></g></g><g
       id="g324"><g
         id="g326"
         clip-path="url(#clipPath330)"><g
           id="g332"
           transform="translate(197.7153,633.1821)"><path
             d="m 0,0 c -1.311,-1.271 -3.402,-1.24 -4.674,0.068 -1.271,1.311 -1.24,3.403 0.07,4.674 1.307,1.274 3.401,1.24 4.672,-0.068 C 1.34,3.363 1.309,1.271 0,0"
             style="fill:#ffffff;fill-opacity:1;fill-rule:nonzero;stroke:none"
             id="path334" /></g><text
           transform="matrix(0.69656686,-0.71749189,-0.71749189,-0.69656686,192.1932,636.9828)"
           style="font-variant:normal;font-weight:normal;font-stretch:normal;font-size:3.67502px;font-family:Arial;-inkscape-font-specification:ArialMT;writing-mode:lr-tb;fill:#231f20;fill-opacity:1;fill-rule:nonzero;stroke:none"
           id="text338"><tspan
             x="0 2.451241 4.4945545"
             y="0"
             id="tspan336">Pub</tspan></text><g
           id="g340"
           transform="translate(205.6196,610.147)"><path
             d="m 0,0 -6.42,6.613 c 0.688,1.51 0.42,3.36 -0.818,4.633 -1.608,1.658 -4.242,1.711 -5.883,0.119 -0.033,-0.035 -0.065,-0.07 -0.096,-0.105 -0.037,-0.033 -0.074,-0.063 -0.109,-0.096 -1.641,-1.59 -1.664,-4.226 -0.057,-5.883 1.149,-1.179 2.813,-1.543 4.27,-1.08 L -8.576,3.65 c 0.32,0.237 0.822,0.164 1.162,-0.185 0.34,-0.352 0.394,-0.852 0.15,-1.166 l 0.588,-0.608 c 0.322,0.237 0.821,0.166 1.162,-0.185 0.342,-0.352 0.397,-0.852 0.151,-1.166 l 0.59,-0.608 c 0.32,0.237 0.82,0.166 1.162,-0.185 0.341,-0.352 0.396,-0.852 0.148,-1.166 l 0.41,-0.422 3.297,0.174 0.209,0.201 z"
             style="fill:none;stroke:#231f20;stroke-width:0.75;stroke-linecap:butt;stroke-linejoin:round;stroke-miterlimit:4;stroke-dasharray:none;stroke-opacity:1"
             id="path342" /></g><g
           id="g344"
           transform="translate(206.0728,608.481)"><path
             d="m 0,0 -7.078,8.078 c 0.687,1.51 0.42,3.36 -0.818,4.635 -1.61,1.656 -4.243,1.711 -5.883,0.117 -1.641,-1.59 -1.664,-4.226 -0.057,-5.883 1.148,-1.179 2.813,-1.543 4.27,-1.08 l 0.537,-0.551 c 0.32,0.237 0.822,0.164 1.162,-0.185 0.34,-0.352 0.394,-0.852 0.15,-1.166 l 0.588,-0.608 c 0.322,0.237 0.82,0.166 1.162,-0.185 C -5.625,2.82 -5.57,2.32 -5.816,2.006 l 0.589,-0.608 c 0.321,0.237 0.821,0.166 1.163,-0.185 0.341,-0.352 0.396,-0.852 0.148,-1.166 l 0.41,-0.422 3.297,0.174 z"
             style="fill:#278a2f;fill-opacity:1;fill-rule:nonzero;stroke:none"
             id="path346" /></g><g
           id="g348"
           transform="translate(206.0728,608.481)"><path
             d="m 0,0 -7.078,8.078 c 0.687,1.51 0.42,3.36 -0.818,4.635 -1.61,1.656 -4.243,1.711 -5.883,0.117 -1.641,-1.59 -1.664,-4.226 -0.057,-5.883 1.148,-1.179 2.813,-1.543 4.27,-1.08 l 0.537,-0.551 c 0.32,0.237 0.822,0.164 1.162,-0.185 0.34,-0.352 0.394,-0.852 0.15,-1.166 l 0.588,-0.608 c 0.322,0.237 0.82,0.166 1.162,-0.185 C -5.625,2.82 -5.57,2.32 -5.816,2.006 l 0.589,-0.608 c 0.321,0.237 0.821,0.166 1.163,-0.185 0.341,-0.352 0.396,-0.852 0.148,-1.166 l 0.41,-0.422 3.297,0.174 z"
             style="fill:none;stroke:#278a2f;stroke-width:0.3;stroke-linecap:butt;stroke-linejoin:round;stroke-miterlimit:4;stroke-dasharray:none;stroke-opacity:1"
             id="path350" /></g></g></g><g
       id="g352"><g
         id="g354"><g
           id="g360"><g
             id="g362"><path
               d="m 192.498,621.512 c -1.638,-1.592 -1.664,-4.228 -0.055,-5.885 v 0 c 1.147,-1.179 2.813,-1.543 4.27,-1.077 v 0 l 0.536,-0.554 c 0.322,0.237 0.822,0.167 1.161,-0.185 v 0 c 0.341,-0.349 0.397,-0.852 0.151,-1.166 v 0 l 0.59,-0.607 c 0.32,0.236 0.818,0.165 1.162,-0.186 v 0 c 0.34,-0.352 0.394,-0.852 0.149,-1.166 v 0 l 0.591,-0.609 c 0.318,0.238 0.821,0.168 1.163,-0.182 v 0 c 0.337,-0.352 0.392,-0.852 0.148,-1.166 v 0 l 0.41,-0.424 3.299,0.176 -0.454,1.666 -6.419,6.613 c 0.687,1.51 0.42,3.36 -0.818,4.633 v 0 c -0.825,0.851 -1.921,1.279 -3.014,1.279 v 0 c -1.037,0 -2.071,-0.385 -2.87,-1.16"
               style="fill:url(#linearGradient368);stroke:none"
               id="path370" /></g></g></g></g><g
       id="g372"><g
         id="g374"><g
           id="g380"><g
             id="g382"><path
               d="m 192.731,621.272 c -1.504,-1.463 -1.525,-3.889 -0.049,-5.41 v 0 c 1.03,-1.059 2.533,-1.44 3.927,-0.995 v 0 l 0.2,0.065 0.508,-0.525 c 0.434,0.152 0.963,0.019 1.334,-0.364 v 0 c 0.373,-0.381 0.488,-0.914 0.322,-1.344 v 0 l 0.245,-0.249 c 0.434,0.15 0.964,0.017 1.333,-0.364 v 0 c 0.371,-0.382 0.488,-0.918 0.325,-1.343 v 0 l 0.243,-0.252 c 0.434,0.152 0.963,0.019 1.334,-0.364 v 0 c 0.374,-0.381 0.489,-0.915 0.325,-1.344 v 0 l 0.131,-0.136 2.732,0.146 -0.322,1.182 -6.518,6.713 0.094,0.209 c 0.657,1.442 0.36,3.117 -0.752,4.261 v 0 c -0.76,0.783 -1.769,1.177 -2.776,1.177 v 0 c -0.953,0 -1.903,-0.353 -2.636,-1.063"
               style="fill:url(#linearGradient388);stroke:none"
               id="path390" /></g></g></g></g><g
       id="g392"><g
         id="g394"
         clip-path="url(#clipPath398)"><g
           id="g400"
           transform="translate(197.7153,616.1392)"><path
             d="m 0,0 c -1.311,-1.271 -3.402,-1.24 -4.674,0.068 -1.271,1.311 -1.24,3.403 0.07,4.674 1.307,1.274 3.401,1.24 4.672,-0.07 C 1.34,3.363 1.309,1.271 0,0"
             style="fill:#ffffff;fill-opacity:1;fill-rule:nonzero;stroke:none"
             id="path402" /></g><text
           transform="matrix(0.69656686,-0.71749189,-0.71749189,-0.69656686,192.193,619.9393)"
           style="font-variant:normal;font-weight:normal;font-stretch:normal;font-size:3.67502px;font-family:Arial;-inkscape-font-specification:ArialMT;writing-mode:lr-tb;fill:#231f20;fill-opacity:1;fill-rule:nonzero;stroke:none"
           id="text406"><tspan
             x="0 2.451241 4.4945545"
             y="0"
             id="tspan404">Pub</tspan></text><g
           id="g408"
           transform="translate(172.9478,611.3696)"><path
             d="M 0,0 C 0.846,-0.152 1.141,-0.881 1.646,-1.391 1.785,-0.453 2.154,0.24 2.533,0.928 2.523,1.008 2.514,1.084 2.406,1.062 1.742,0.561 0.707,0.453 0,0 M 3.482,2.054 C 3.717,2.094 3.854,2.238 4.053,2.317 4.01,2.514 4.035,2.784 3.863,2.85 3.76,2.559 3.592,2.333 3.482,2.054 M 0.379,2.119 C 0.717,2.869 1.09,3.583 1.457,4.303 0.904,4.455 0.244,4.495 -0.381,4.566 0.004,3.889 0.254,3.071 0.379,2.119 M -3.23,4.504 C -3.482,4.047 -3.58,3.451 -3.736,2.85 -3.879,2.313 -3.914,1.561 -4.373,1.326 c -0.16,0.903 0.41,2.11 0.637,3.043 -1.725,-0.348 -3.159,-1.65 -3.106,-3.574 0.039,-1.424 1.106,-1.933 2.596,-1.92 3.164,0.027 5.475,2.858 3.357,5.691 C -1.514,4.693 -2.414,4.546 -3.23,4.504 M -3.105,4.9 c 0.56,0.121 1.3,0.053 1.837,0.199 C -1.725,5.547 -2.102,6.08 -2.471,6.621 -2.633,5.994 -2.912,5.492 -3.105,4.9 M 4.307,4.504 C 4.691,5.49 5.441,6.449 5.701,7.35 5.115,6.57 4.354,5.622 4.307,4.504 m 7.156,5.559 C 9.727,9.918 7.629,9.361 6.713,8.277 6.168,7.631 5.904,6.672 5.445,5.827 4.971,4.948 3.813,3.566 4.434,2.582 7.02,4.168 9.627,5.816 11.906,7.68 c 0.733,0.597 1.625,1.289 1.967,2.251 -0.752,0.294 -1.609,0.199 -2.41,0.132 M 4.813,2.317 C 6.313,1.635 7.547,2.884 8.803,3.111 9.111,2.766 8.756,2.057 8.932,1.654 9.842,0.996 11.611,1.236 12.287,0.332 11.887,0.016 11.346,0.531 10.639,0.729 9.422,1.069 8.092,0.861 8.549,2.648 7.461,2.137 5.635,1.184 4.369,2.054 3.943,1.836 3.584,1.55 3.102,1.392 2.6,0.327 2.182,-0.823 1.771,-1.986 c -0.878,0.316 -0.906,1.523 -1.96,1.655 -0.174,-0.261 -0.237,-0.638 -0.317,-0.993 0.244,-0.067 0.51,0.73 0.885,0.53 0.033,-0.507 -0.539,-0.931 -1.014,-1.126 -0.523,0.333 -0.119,1.083 0,1.656 -0.801,-0.638 -2.422,-1.349 -3.992,-1.257 -0.602,0.033 -1.373,0.183 -1.836,0.53 -1.146,0.86 -0.842,3.114 -0.062,4.169 0.72,0.979 1.754,1.329 2.914,1.656 0.351,0.578 0.541,1.332 0.822,1.984 0.359,0.028 0.453,0.096 0.57,0.465 1.873,0.733 4.041,1.16 5.574,2.252 C 1.41,9.175 -0.723,8.525 -2.727,7.945 -3.361,7.762 -4,7.43 -4.627,7.549 c 0.074,0.392 0.598,0.441 0.891,0.527 1.002,0.301 2.125,0.611 3.23,0.928 1.432,0.412 2.971,1 4.434,0.861 C 3.963,9.174 3.238,8.975 2.785,8.738 1.408,8.021 -0.482,7.508 -2.027,6.885 -1.771,6.026 -1.139,5.565 -0.635,4.967 0.197,4.973 0.881,4.83 1.582,4.701 2.336,5.613 2.959,6.84 3.672,7.878 3.865,8.16 4.127,8.635 4.496,8.605 4.377,7.836 3.73,7.279 3.293,6.621 2.855,5.964 2.488,5.239 2.09,4.566 2.559,4.242 3.32,4.221 3.482,3.574 2.91,3.447 2.523,4.069 1.961,4.17 1.148,3.191 0.713,1.813 0.125,0.598 c 1.053,0.2 1.828,0.695 2.725,1.056 0.357,0.828 0.855,1.36 0.949,2.516 0.168,2.077 1.437,3.296 2.662,4.369 0.062,0.332 0.26,0.524 0.379,0.795 0.246,0.058 0.226,-0.16 0.379,-0.197 1.291,0.931 3.676,1.564 5.828,1.39 0.389,-0.033 1.277,-0.14 1.267,-0.662 C 14.299,9.027 12.961,8.061 12.352,7.549 10.104,5.664 7.057,3.734 4.813,2.317"
             style="fill:#2c81ab;fill-opacity:1;fill-rule:evenodd;stroke:none"
             id="path410" /></g><g
           id="g412"
           transform="translate(127.2397,631.623)"><path
             d="M 0,0 -1.701,1.912 C 1.484,2.891 3.786,2.143 5.64,1.543 7.014,1.094 8.009,0.773 9.375,1.068 c 1.387,0.299 1.87,0.83 2.43,1.446 0.725,0.799 1.547,1.705 4.324,1.972 l 1.35,-1.98 C 15.279,2.294 14.7,1.658 14.03,0.92 13.43,0.26 12.749,-0.488 10.946,-0.879 8.959,-1.307 7.278,-0.76 5.795,-0.28 4.119,0.266 2.534,0.78 0,0"
             style="fill:#f8a45c;fill-opacity:1;fill-rule:nonzero;stroke:none"
             id="path414" /></g><g
           id="g416"
           transform="translate(127.2397,631.623)"><path
             d="M 0,0 -1.701,1.912 C 1.484,2.891 3.786,2.143 5.64,1.543 7.014,1.094 8.009,0.773 9.375,1.068 c 1.387,0.299 1.87,0.83 2.43,1.446 0.725,0.799 1.547,1.705 4.324,1.972 l 1.35,-1.98 C 15.279,2.294 14.7,1.658 14.03,0.92 13.43,0.26 12.749,-0.488 10.946,-0.879 8.959,-1.307 7.278,-0.76 5.795,-0.28 4.119,0.266 2.534,0.78 0,0 Z"
             style="fill:none;stroke:#231f20;stroke-width:0.3;stroke-linecap:butt;stroke-linejoin:miter;stroke-miterlimit:4;stroke-dasharray:none;stroke-opacity:1"
             id="path418" /></g><g
           id="g420"
           transform="translate(130.5649,629.8057)"><path
             d="m 0,0 -1.703,1.911 c 3.184,0.982 5.489,0.233 7.34,-0.368 1.376,-0.447 2.37,-0.772 3.738,-0.476 1.386,0.3 1.869,0.83 2.429,1.448 0.726,0.798 1.549,1.705 4.322,1.97 L 17.479,2.506 C 15.278,2.294 14.7,1.657 14.028,0.919 13.429,0.26 12.749,-0.489 10.944,-0.878 8.958,-1.307 7.279,-0.762 5.794,-0.279 4.119,0.265 2.534,0.778 0,0"
             style="fill:#f8a45c;fill-opacity:1;fill-rule:nonzero;stroke:none"
             id="path422" /></g><g
           id="g424"
           transform="translate(130.5649,629.8057)"><path
             d="m 0,0 -1.703,1.911 c 3.184,0.982 5.489,0.233 7.34,-0.368 1.376,-0.447 2.37,-0.772 3.738,-0.476 1.386,0.3 1.869,0.83 2.429,1.448 0.726,0.798 1.549,1.705 4.322,1.97 L 17.479,2.506 C 15.278,2.294 14.7,1.657 14.028,0.919 13.429,0.26 12.749,-0.489 10.944,-0.878 8.958,-1.307 7.279,-0.762 5.794,-0.279 4.119,0.265 2.534,0.778 0,0 Z"
             style="fill:none;stroke:#231f20;stroke-width:0.3;stroke-linecap:butt;stroke-linejoin:miter;stroke-miterlimit:4;stroke-dasharray:none;stroke-opacity:1"
             id="path426" /></g><g
           id="g428"
           transform="translate(129.8281,627.7793)"><path
             d="M 0,0 -1.702,1.91 C 1.483,2.893 3.786,2.143 5.641,1.541 7.013,1.096 8.008,0.772 9.375,1.066 c 1.387,0.3 1.868,0.832 2.428,1.45 0.726,0.797 1.548,1.703 4.322,1.969 L 17.478,2.504 C 15.277,2.294 14.701,1.658 14.027,0.918 13.427,0.258 12.75,-0.49 10.945,-0.879 8.96,-1.307 7.28,-0.762 5.795,-0.28 4.12,0.266 2.535,0.779 0,0"
             style="fill:#f8a45c;fill-opacity:1;fill-rule:nonzero;stroke:none"
             id="path430" /></g><g
           id="g432"
           transform="translate(129.8281,627.7793)"><path
             d="M 0,0 -1.702,1.91 C 1.483,2.893 3.786,2.143 5.641,1.541 7.013,1.096 8.008,0.772 9.375,1.066 c 1.387,0.3 1.868,0.832 2.428,1.45 0.726,0.797 1.548,1.703 4.322,1.969 L 17.478,2.504 C 15.277,2.294 14.701,1.658 14.027,0.918 13.427,0.258 12.75,-0.49 10.945,-0.879 8.96,-1.307 7.28,-0.762 5.795,-0.28 4.12,0.266 2.535,0.779 0,0 Z"
             style="fill:none;stroke:#231f20;stroke-width:0.3;stroke-linecap:butt;stroke-linejoin:miter;stroke-miterlimit:4;stroke-dasharray:none;stroke-opacity:1"
             id="path434" /></g><g
           id="g436"
           transform="translate(133.209,625.9805)"><path
             d="M 0,0 -1.702,1.913 C 1.482,2.891 3.789,2.144 5.639,1.544 7.016,1.095 8.008,0.771 9.375,1.068 c 1.386,0.299 1.871,0.83 2.427,1.447 0.729,0.799 1.551,1.704 4.324,1.971 l 1.352,-1.98 C 15.279,2.295 14.701,1.658 14.029,0.92 13.429,0.258 12.751,-0.488 10.945,-0.879 8.961,-1.308 7.28,-0.76 5.795,-0.279 4.119,0.266 2.536,0.78 0,0"
             style="fill:#f8a45c;fill-opacity:1;fill-rule:nonzero;stroke:none"
             id="path438" /></g><g
           id="g440"
           transform="translate(133.209,625.9805)"><path
             d="M 0,0 -1.702,1.913 C 1.482,2.891 3.789,2.144 5.639,1.544 7.016,1.095 8.008,0.771 9.375,1.068 c 1.386,0.299 1.871,0.83 2.427,1.447 0.729,0.799 1.551,1.704 4.324,1.971 l 1.352,-1.98 C 15.279,2.295 14.701,1.658 14.029,0.92 13.429,0.258 12.751,-0.488 10.945,-0.879 8.961,-1.308 7.28,-0.76 5.795,-0.279 4.119,0.266 2.536,0.78 0,0 Z"
             style="fill:none;stroke:#231f20;stroke-width:0.3;stroke-linecap:butt;stroke-linejoin:miter;stroke-miterlimit:4;stroke-dasharray:none;stroke-opacity:1"
             id="path442" /></g><g
           id="g444"
           transform="translate(127.7588,633.709)"><path
             d="M 0,0 -1.704,1.914 C 1.482,2.895 3.786,2.145 5.638,1.545 7.013,1.097 8.006,0.775 9.375,1.07 c 1.386,0.299 1.866,0.83 2.428,1.447 0.725,0.799 1.55,1.704 4.321,1.971 l 1.353,-1.981 c -2.199,-0.21 -2.779,-0.849 -3.45,-1.585 -0.6,-0.661 -1.28,-1.408 -3.084,-1.799 -1.985,-0.428 -3.667,0.119 -5.15,0.6 C 4.117,0.267 2.534,0.782 0,0"
             style="fill:#f8a45c;fill-opacity:1;fill-rule:nonzero;stroke:none"
             id="path446" /></g><g
           id="g448"
           transform="translate(127.7588,633.709)"><path
             d="M 0,0 -1.704,1.914 C 1.482,2.895 3.786,2.145 5.638,1.545 7.013,1.097 8.006,0.775 9.375,1.07 c 1.386,0.299 1.866,0.83 2.428,1.447 0.725,0.799 1.55,1.704 4.321,1.971 l 1.353,-1.981 c -2.199,-0.21 -2.779,-0.849 -3.45,-1.585 -0.6,-0.661 -1.28,-1.408 -3.084,-1.799 -1.985,-0.428 -3.667,0.119 -5.15,0.6 C 4.117,0.267 2.534,0.782 0,0 Z"
             style="fill:none;stroke:#231f20;stroke-width:0.3;stroke-linecap:butt;stroke-linejoin:miter;stroke-miterlimit:4;stroke-dasharray:none;stroke-opacity:1"
             id="path450" /></g><g
           id="g452"
           transform="translate(127.8667,635.416)"><path
             d="m 0,0 2.323,0.208 1.012,-0.54 -1.514,0.096 z"
             style="fill:#231f20;fill-opacity:1;fill-rule:nonzero;stroke:none"
             id="path454" /></g><g
           id="g456"
           transform="translate(133.8062,634.2363)"><path
             d="m 0,0 2.479,-0.936 1.604,0.507 -2.035,0.265 z"
             style="fill:#231f20;fill-opacity:1;fill-rule:nonzero;stroke:none"
             id="path458" /></g><g
           id="g460"
           transform="translate(134.7803,631.2529)"><path
             d="m 0,0 -1.745,0.09 -0.715,-0.486 1.772,0.178 2.267,-0.906 1.424,0.02 -1.962,0.765 z"
             style="fill:#231f20;fill-opacity:1;fill-rule:nonzero;stroke:none"
             id="path462" /></g><g
           id="g464"
           transform="translate(145.0698,631.4473)"><path
             d="m 0,0 c -0.443,-0.045 -1.574,-0.306 -1.574,-0.306 l -0.865,-1.419 1.218,0.862 1.897,0.264 z"
             style="fill:#231f20;fill-opacity:1;fill-rule:nonzero;stroke:none"
             id="path466" /></g><g
           id="g468"
           transform="translate(145.9702,627.9629)"><path
             d="m 0,0 -0.805,-1.018 -1.834,-0.578 1.028,-0.438 1.509,0.619 z"
             style="fill:#231f20;fill-opacity:1;fill-rule:nonzero;stroke:none"
             id="path470" /></g><g
           id="g472"
           transform="translate(138.2998,627.0195)"><path
             d="M 0,0 -1.776,0.539 -3.135,0.205 -1.514,0.097 Z"
             style="fill:#231f20;fill-opacity:1;fill-rule:nonzero;stroke:none"
             id="path474" /></g><g
           id="g476"
           transform="translate(132.4028,629.2148)"><path
             d="M 0,0 -1.008,-0.176 0.398,-0.255 Z"
             style="fill:#231f20;fill-opacity:1;fill-rule:nonzero;stroke:none"
             id="path478" /></g><g
           id="g480"
           transform="translate(140.6211,635.2891)"><path
             d="m 0,0 -1.253,-0.347 -1.479,-1.134 2.031,0.449 z"
             style="fill:#f9aeca;fill-opacity:1;fill-rule:evenodd;stroke:none"
             id="path482" /></g><g
           id="g484"
           transform="translate(142.2207,629.1641)"><path
             d="m 0,0 -1.649,-0.807 -0.181,-0.486 1.588,0.406 z"
             style="fill:#f9aeca;fill-opacity:1;fill-rule:evenodd;stroke:none"
             id="path486" /></g><g
           id="g488"
           transform="translate(149.2827,629.6758)"><path
             d="m 0,0 -1.848,-0.679 -0.134,-0.9 1.527,0.72 z"
             style="fill:#f9aeca;fill-opacity:1;fill-rule:evenodd;stroke:none"
             id="path490" /></g><g
           id="g492"
           transform="translate(131.2852,629.7686)"><path
             d="m 0,0 -1.25,-1.062 -0.447,0.67 z"
             style="fill:#f9aeca;fill-opacity:1;fill-rule:evenodd;stroke:none"
             id="path494" /></g><g
           id="g496"
           transform="translate(138.8301,632.0527)"><path
             d="m 0,0 -2.265,0.191 1.226,-0.564 z"
             style="fill:#96cd56;fill-opacity:1;fill-rule:evenodd;stroke:none"
             id="path498" /></g><g
           id="g500"
           transform="translate(141.0527,626.459)"><path
             d="m 0,0 -2.112,0.479 c 0,0 1.091,-0.754 1.395,-0.897 0.307,-0.141 2.142,-0.277 2.142,-0.277 z"
             style="fill:#96cd56;fill-opacity:1;fill-rule:evenodd;stroke:none"
             id="path502" /></g><g
           id="g504"
           transform="translate(132.0269,631.8154)"><path
             d="m 0,0 -1.867,-0.064 0.722,-1.011 z"
             style="fill:#96cd56;fill-opacity:1;fill-rule:evenodd;stroke:none"
             id="path506" /></g><g
           id="g508"
           transform="translate(143.2124,637.2988)"><path
             d="m 0,0 -2.092,-0.851 c 0,0 -0.837,-1.217 -0.499,-1.159 0.336,0.059 1.784,0.992 1.784,0.992 z"
             style="fill:#96cd56;fill-opacity:1;fill-rule:evenodd;stroke:none"
             id="path510" /></g><g
           id="g512"><g
             id="g514" /><g
             id="g546"><g
               clip-path="url(#clipPath518)"
               id="g544"><g
                 id="g542"><g
                   id="g540"><g
                     id="g538"><g
                       id="g536"><path
                         d="M 356.666,587.117 290,622.667 h -38.167 l -128.914,-35.55 z"
                         style="fill:url(#linearGradient532);stroke:none"
                         id="path534" /></g></g></g></g></g></g></g><path
           d="M 122.919,587.117 H 356.666 V 572.156 H 122.919 Z"
           style="fill:#ffffff;fill-opacity:1;fill-rule:nonzero;stroke:#231f20;stroke-width:0.5;stroke-linecap:butt;stroke-linejoin:round;stroke-miterlimit:10;stroke-dasharray:none;stroke-opacity:1"
           id="path548" /><g
           id="g550"
           transform="translate(129.7588,579.9336)"><path
             d="m 0,0 v -0.898 c 0,-0.782 -0.187,-1.403 -0.562,-1.862 -0.292,-0.359 -0.66,-0.539 -1.101,-0.539 -0.215,0 -0.417,0.045 -0.608,0.133 -0.189,0.082 -0.349,0.201 -0.48,0.357 -0.082,0.092 -0.176,0.244 -0.277,0.452 -0.098,0.214 -0.169,0.408 -0.212,0.586 -0.068,0.246 -0.103,0.539 -0.103,0.873 V 0 c 0,0.789 0.189,1.408 0.563,1.859 0.292,0.362 0.658,0.541 1.102,0.541 0.218,0 0.419,-0.043 0.605,-0.131 0.189,-0.081 0.351,-0.202 0.481,-0.357 0.089,-0.098 0.18,-0.25 0.278,-0.46 0.097,-0.21 0.17,-0.402 0.219,-0.577 C -0.033,0.627 0,0.336 0,0 m -0.366,-0.045 c 0,0.342 -0.048,0.66 -0.144,0.957 -0.099,0.297 -0.209,0.533 -0.33,0.708 -0.072,0.103 -0.165,0.191 -0.277,0.262 -0.165,0.103 -0.35,0.153 -0.555,0.153 -0.408,0 -0.73,-0.209 -0.962,-0.627 C -2.863,0.995 -2.978,0.51 -2.978,-0.045 v -0.801 c 0,-0.345 0.05,-0.666 0.146,-0.963 0.097,-0.296 0.207,-0.537 0.329,-0.716 0.068,-0.097 0.16,-0.183 0.276,-0.255 0.167,-0.103 0.354,-0.154 0.564,-0.154 0.403,0 0.719,0.21 0.948,0.628 0.233,0.418 0.349,0.906 0.349,1.46 z M 5.324,0 V -0.898 C 5.324,-1.68 5.137,-2.301 4.762,-2.76 4.471,-3.119 4.104,-3.299 3.66,-3.299 c -0.213,0 -0.416,0.045 -0.605,0.133 -0.189,0.082 -0.351,0.201 -0.481,0.357 -0.083,0.092 -0.177,0.244 -0.279,0.452 -0.096,0.214 -0.168,0.408 -0.211,0.586 -0.068,0.246 -0.102,0.539 -0.102,0.873 V 0 c 0,0.789 0.187,1.408 0.562,1.859 C 2.835,2.221 3.203,2.4 3.646,2.4 3.865,2.4 4.067,2.357 4.252,2.269 4.442,2.188 4.602,2.067 4.733,1.912 4.82,1.814 4.913,1.662 5.01,1.452 5.108,1.242 5.18,1.05 5.23,0.875 5.292,0.627 5.324,0.336 5.324,0 M 4.96,-0.045 C 4.96,0.297 4.91,0.615 4.814,0.912 4.717,1.209 4.607,1.445 4.485,1.62 4.412,1.723 4.321,1.811 4.207,1.882 4.042,1.985 3.857,2.035 3.654,2.035 3.244,2.035 2.924,1.826 2.691,1.408 2.46,0.995 2.347,0.51 2.347,-0.045 v -0.801 c 0,-0.345 0.049,-0.666 0.145,-0.963 C 2.59,-2.105 2.7,-2.346 2.821,-2.525 2.889,-2.622 2.982,-2.708 3.099,-2.78 3.264,-2.883 3.452,-2.934 3.66,-2.934 c 0.404,0 0.72,0.21 0.948,0.628 0.234,0.418 0.352,0.906 0.352,1.46 z m 10.859,0.264 v 0.117 c 0,0.093 0.018,0.154 0.052,0.19 0.033,0.038 0.078,0.058 0.131,0.058 0.054,0 0.097,-0.02 0.132,-0.058 0.034,-0.036 0.05,-0.097 0.05,-0.19 V -0.48 c 0,-0.094 -0.016,-0.159 -0.05,-0.2 -0.035,-0.033 -0.078,-0.049 -0.132,-0.049 -0.047,0 -0.09,0.013 -0.125,0.042 -0.033,0.035 -0.053,0.091 -0.058,0.169 -0.018,0.208 -0.155,0.406 -0.408,0.59 -0.248,0.186 -0.586,0.279 -1.015,0.279 -0.539,0 -0.95,-0.169 -1.233,-0.511 -0.282,-0.336 -0.423,-0.723 -0.423,-1.16 0,-0.472 0.154,-0.862 0.46,-1.168 0.312,-0.307 0.713,-0.461 1.205,-0.461 0.286,0 0.576,0.053 0.867,0.154 0.292,0.107 0.558,0.277 0.796,0.511 0.057,0.054 0.111,0.08 0.161,0.08 0.048,0 0.09,-0.017 0.124,-0.05 0.033,-0.03 0.051,-0.068 0.051,-0.118 0,-0.124 -0.147,-0.282 -0.438,-0.474 -0.471,-0.311 -0.998,-0.467 -1.576,-0.467 -0.584,0 -1.065,0.188 -1.445,0.563 -0.374,0.375 -0.561,0.848 -0.561,1.422 0,0.588 0.191,1.076 0.576,1.459 0.383,0.389 0.87,0.584 1.459,0.584 0.554,0 1.022,-0.166 1.4,-0.496 m 4.553,-0.563 c 0.307,-0.15 0.534,-0.346 0.685,-0.591 0.156,-0.237 0.233,-0.495 0.233,-0.772 0,-0.428 -0.162,-0.8 -0.488,-1.117 -0.322,-0.316 -0.714,-0.475 -1.176,-0.475 -0.461,0 -0.856,0.159 -1.181,0.475 -0.321,0.317 -0.481,0.689 -0.481,1.117 0,0.277 0.077,0.535 0.233,0.772 0.155,0.245 0.386,0.441 0.693,0.591 -0.268,0.151 -0.463,0.31 -0.584,0.475 -0.165,0.234 -0.248,0.491 -0.248,0.775 0,0.397 0.153,0.745 0.46,1.042 0.306,0.302 0.676,0.452 1.108,0.452 0.439,0 0.811,-0.15 1.118,-0.452 0.306,-0.297 0.459,-0.645 0.459,-1.042 0,-0.284 -0.085,-0.541 -0.254,-0.775 -0.117,-0.165 -0.311,-0.324 -0.577,-0.475 m 0.46,1.235 c 0,0.312 -0.119,0.578 -0.352,0.802 -0.233,0.229 -0.519,0.342 -0.854,0.342 -0.334,0 -0.619,-0.113 -0.852,-0.342 -0.233,-0.224 -0.352,-0.49 -0.352,-0.797 0,-0.281 0.115,-0.529 0.344,-0.742 0.233,-0.215 0.521,-0.322 0.86,-0.322 0.34,0 0.626,0.107 0.854,0.322 0.233,0.213 0.352,0.458 0.352,0.737 m 0.093,-2.605 c 0,0.319 -0.123,0.599 -0.371,0.831 -0.249,0.238 -0.557,0.358 -0.928,0.358 -0.369,0 -0.677,-0.12 -0.925,-0.358 -0.248,-0.232 -0.372,-0.508 -0.372,-0.824 0,-0.332 0.124,-0.619 0.372,-0.861 0.253,-0.245 0.561,-0.366 0.925,-0.366 0.371,0 0.679,0.121 0.928,0.366 0.248,0.242 0.371,0.527 0.371,0.854 M 26.622,0 v -0.898 c 0,-0.782 -0.186,-1.403 -0.561,-1.862 -0.292,-0.359 -0.66,-0.539 -1.103,-0.539 -0.214,0 -0.416,0.045 -0.605,0.133 -0.191,0.082 -0.351,0.201 -0.482,0.357 -0.081,0.092 -0.175,0.244 -0.277,0.452 -0.096,0.214 -0.168,0.408 -0.211,0.586 -0.069,0.246 -0.102,0.539 -0.102,0.873 V 0 c 0,0.789 0.186,1.408 0.562,1.859 0.291,0.362 0.658,0.541 1.102,0.541 0.217,0 0.421,-0.043 0.604,-0.131 0.19,-0.081 0.351,-0.202 0.481,-0.357 0.088,-0.098 0.182,-0.25 0.279,-0.46 0.096,-0.21 0.17,-0.402 0.218,-0.577 C 26.59,0.627 26.622,0.336 26.622,0 m -0.365,-0.045 c 0,0.342 -0.048,0.66 -0.145,0.957 C 26.014,1.209 25.905,1.445 25.783,1.62 25.71,1.723 25.617,1.811 25.505,1.882 25.341,1.985 25.156,2.035 24.951,2.035 24.542,2.035 24.222,1.826 23.987,1.408 23.759,0.995 23.646,0.51 23.646,-0.045 v -0.801 c 0,-0.345 0.048,-0.666 0.145,-0.963 0.098,-0.296 0.207,-0.537 0.329,-0.716 0.067,-0.097 0.161,-0.183 0.278,-0.255 0.165,-0.103 0.351,-0.154 0.56,-0.154 0.404,0 0.721,0.21 0.949,0.628 0.234,0.418 0.35,0.906 0.35,1.46 z m 3.014,1.949 v -1.78 c 0.212,0.089 0.417,0.153 0.61,0.196 0.201,0.045 0.387,0.067 0.563,0.067 0.457,0 0.839,-0.161 1.145,-0.481 0.312,-0.317 0.467,-0.738 0.467,-1.263 0,-0.579 -0.175,-1.048 -0.525,-1.409 -0.345,-0.355 -0.778,-0.533 -1.298,-0.533 -0.342,0 -0.672,0.078 -0.993,0.235 -0.223,0.107 -0.428,0.236 -0.613,0.393 -0.112,0.097 -0.169,0.177 -0.169,0.24 0,0.056 0.019,0.099 0.052,0.132 0.038,0.035 0.08,0.052 0.125,0.052 0.048,0 0.101,-0.025 0.16,-0.073 0.433,-0.409 0.906,-0.614 1.423,-0.614 0.423,0 0.773,0.143 1.049,0.432 0.279,0.291 0.417,0.68 0.417,1.166 0,0.408 -0.12,0.738 -0.358,0.984 -0.238,0.254 -0.542,0.381 -0.911,0.381 -0.38,0 -0.759,-0.1 -1.139,-0.299 -0.092,-0.049 -0.158,-0.074 -0.196,-0.074 -0.05,0 -0.09,0.018 -0.125,0.051 -0.028,0.035 -0.044,0.083 -0.044,0.147 v 2.415 h 2.531 c 0.089,0 0.152,-0.017 0.191,-0.05 0.04,-0.035 0.058,-0.078 0.058,-0.132 0,-0.054 -0.018,-0.097 -0.058,-0.132 C 31.594,1.922 31.531,1.904 31.442,1.904 Z m 4.761,-4.706 h 2.795 v 0.138 c 0,0.088 0.016,0.151 0.051,0.19 0.034,0.038 0.08,0.058 0.139,0.058 0.047,0 0.09,-0.02 0.123,-0.058 0.039,-0.039 0.058,-0.102 0.058,-0.19 v -0.502 h -3.516 v 0.539 c 0.738,0.66 1.457,1.338 2.151,2.029 0.327,0.315 0.55,0.548 0.672,0.701 0.121,0.149 0.205,0.281 0.248,0.393 0.048,0.116 0.074,0.234 0.074,0.352 0,0.308 -0.127,0.584 -0.381,0.822 -0.253,0.244 -0.556,0.365 -0.911,0.365 -0.316,0 -0.597,-0.092 -0.846,-0.276 C 34.446,1.578 34.287,1.352 34.214,1.08 34.2,1.012 34.177,0.969 34.148,0.948 34.114,0.919 34.076,0.906 34.032,0.906 c -0.048,0 -0.09,0.016 -0.125,0.049 -0.034,0.035 -0.05,0.074 -0.05,0.117 0,0.143 0.076,0.328 0.225,0.563 0.152,0.238 0.36,0.426 0.628,0.562 0.268,0.135 0.543,0.203 0.825,0.203 0.452,0 0.841,-0.158 1.168,-0.472 0.325,-0.313 0.488,-0.667 0.488,-1.067 0,-0.171 -0.026,-0.326 -0.08,-0.466 C 37.058,0.258 36.963,0.104 36.827,-0.066 36.694,-0.231 36.46,-0.48 36.118,-0.818 35.267,-1.659 34.572,-2.314 34.032,-2.78 Z m 5.52,5.071 v -2.415 c 0.439,0.575 0.969,0.861 1.592,0.861 0.53,0 0.985,-0.195 1.365,-0.584 0.38,-0.383 0.569,-0.856 0.569,-1.414 0,-0.566 -0.193,-1.045 -0.577,-1.44 -0.384,-0.392 -0.837,-0.59 -1.357,-0.59 -0.637,0 -1.168,0.288 -1.592,0.861 v -0.714 h -0.853 c -0.086,0 -0.15,0.016 -0.19,0.051 -0.033,0.033 -0.05,0.076 -0.05,0.131 0,0.054 0.017,0.097 0.05,0.13 0.04,0.036 0.104,0.052 0.19,0.052 h 0.49 v 4.706 h -0.49 c -0.086,0 -0.15,0.018 -0.19,0.051 -0.033,0.035 -0.05,0.078 -0.05,0.132 0,0.054 0.017,0.097 0.05,0.132 0.04,0.033 0.104,0.05 0.19,0.05 z m 3.162,-3.568 c 0,0.459 -0.159,0.846 -0.475,1.168 -0.317,0.32 -0.683,0.482 -1.102,0.482 -0.424,0 -0.793,-0.162 -1.11,-0.482 -0.311,-0.322 -0.466,-0.709 -0.466,-1.168 0,-0.457 0.155,-0.847 0.466,-1.167 0.317,-0.321 0.686,-0.483 1.11,-0.483 0.419,0 0.785,0.162 1.102,0.483 0.316,0.32 0.475,0.71 0.475,1.167 m 4.762,3.035 v 0.168 h -2.613 v -0.32 c 0,-0.089 -0.017,-0.152 -0.052,-0.19 -0.028,-0.034 -0.071,-0.052 -0.13,-0.052 -0.05,0 -0.093,0.018 -0.131,0.052 -0.035,0.038 -0.052,0.101 -0.052,0.19 v 0.685 h 3.343 V 1.693 l -1.467,-4.685 c -0.02,-0.072 -0.046,-0.121 -0.082,-0.145 -0.027,-0.025 -0.064,-0.037 -0.107,-0.037 -0.049,0 -0.094,0.017 -0.132,0.051 -0.035,0.034 -0.052,0.076 -0.052,0.125 0,0.027 0.01,0.068 0.03,0.115 z m 5.587,-1.824 c -0.185,-0.335 -0.407,-0.588 -0.665,-0.758 -0.257,-0.167 -0.521,-0.248 -0.794,-0.248 -0.254,0 -0.5,0.073 -0.737,0.218 -0.234,0.147 -0.422,0.358 -0.562,0.635 -0.136,0.278 -0.205,0.57 -0.205,0.877 0,0.446 0.138,0.852 0.417,1.218 0.276,0.365 0.647,0.546 1.108,0.546 0.327,0 0.625,-0.101 0.897,-0.306 0.273,-0.203 0.484,-0.5 0.636,-0.891 0.195,-0.501 0.291,-1.08 0.291,-1.742 0,-0.517 -0.083,-0.945 -0.248,-1.285 -0.112,-0.229 -0.275,-0.453 -0.488,-0.672 -0.21,-0.213 -0.448,-0.389 -0.714,-0.524 -0.36,-0.185 -0.739,-0.279 -1.132,-0.279 -0.263,0 -0.475,0.051 -0.636,0.147 -0.078,0.048 -0.115,0.107 -0.115,0.174 0,0.05 0.016,0.091 0.049,0.124 0.036,0.036 0.077,0.052 0.126,0.052 0.038,0 0.089,-0.016 0.152,-0.052 0.112,-0.053 0.244,-0.08 0.394,-0.08 0.613,0 1.141,0.222 1.584,0.665 0.442,0.442 0.663,0.999 0.663,1.671 0,0.118 -0.007,0.287 -0.021,0.51 M 52.996,0.52 c -0.155,0.582 -0.346,0.98 -0.575,1.196 -0.225,0.212 -0.486,0.319 -0.788,0.319 -0.311,0 -0.585,-0.131 -0.818,-0.392 -0.233,-0.26 -0.35,-0.593 -0.35,-1 0,-0.396 0.117,-0.725 0.35,-0.987 0.233,-0.258 0.498,-0.385 0.795,-0.385 0.172,0 0.338,0.045 0.505,0.137 0.165,0.093 0.323,0.233 0.473,0.418 0.093,0.124 0.228,0.357 0.408,0.694 m 5.391,-0.608 c -0.186,-0.335 -0.405,-0.588 -0.663,-0.758 -0.259,-0.167 -0.524,-0.248 -0.795,-0.248 -0.254,0 -0.5,0.073 -0.739,0.218 -0.232,0.147 -0.419,0.358 -0.561,0.635 -0.137,0.278 -0.205,0.57 -0.205,0.877 0,0.446 0.139,0.852 0.417,1.218 0.277,0.365 0.646,0.546 1.109,0.546 0.325,0 0.626,-0.101 0.897,-0.306 0.273,-0.203 0.485,-0.5 0.634,-0.891 0.196,-0.501 0.292,-1.08 0.292,-1.742 0,-0.517 -0.082,-0.945 -0.246,-1.285 -0.114,-0.229 -0.275,-0.453 -0.49,-0.672 -0.209,-0.213 -0.447,-0.389 -0.715,-0.524 -0.36,-0.185 -0.737,-0.279 -1.132,-0.279 -0.261,0 -0.473,0.051 -0.635,0.147 -0.076,0.048 -0.116,0.107 -0.116,0.174 0,0.05 0.017,0.091 0.051,0.124 0.034,0.036 0.075,0.052 0.124,0.052 0.04,0 0.09,-0.016 0.153,-0.052 0.112,-0.053 0.244,-0.08 0.395,-0.08 0.613,0 1.14,0.222 1.583,0.665 0.443,0.442 0.664,0.999 0.664,1.671 0,0.118 -0.007,0.287 -0.022,0.51 M 58.321,0.52 c -0.156,0.582 -0.347,0.98 -0.576,1.196 -0.224,0.212 -0.487,0.319 -0.788,0.319 -0.311,0 -0.583,-0.131 -0.816,-0.392 -0.235,-0.26 -0.352,-0.593 -0.352,-1 0,-0.396 0.117,-0.725 0.352,-0.987 0.233,-0.258 0.498,-0.385 0.795,-0.385 0.169,0 0.337,0.045 0.502,0.137 0.166,0.093 0.324,0.233 0.476,0.418 0.091,0.124 0.228,0.357 0.407,0.694 m 5.42,-0.301 v 0.117 c 0,0.093 0.016,0.154 0.051,0.19 0.034,0.038 0.078,0.058 0.132,0.058 0.054,0 0.097,-0.02 0.131,-0.058 0.034,-0.036 0.05,-0.097 0.05,-0.19 V -0.48 c 0,-0.094 -0.016,-0.159 -0.05,-0.2 -0.034,-0.033 -0.077,-0.049 -0.131,-0.049 -0.049,0 -0.09,0.013 -0.125,0.042 -0.033,0.035 -0.053,0.091 -0.058,0.169 -0.019,0.208 -0.155,0.406 -0.409,0.59 -0.248,0.186 -0.586,0.279 -1.015,0.279 -0.539,0 -0.949,-0.169 -1.233,-0.511 -0.281,-0.336 -0.423,-0.723 -0.423,-1.16 0,-0.472 0.153,-0.862 0.46,-1.168 0.312,-0.307 0.713,-0.461 1.205,-0.461 0.287,0 0.576,0.053 0.868,0.154 0.292,0.107 0.556,0.277 0.794,0.511 0.059,0.054 0.113,0.08 0.16,0.08 0.051,0 0.09,-0.017 0.126,-0.05 0.033,-0.03 0.051,-0.068 0.051,-0.118 0,-0.124 -0.146,-0.282 -0.438,-0.474 -0.471,-0.311 -0.998,-0.467 -1.576,-0.467 -0.583,0 -1.065,0.188 -1.444,0.563 -0.376,0.375 -0.563,0.848 -0.563,1.422 0,0.588 0.193,1.076 0.577,1.459 0.384,0.389 0.87,0.584 1.459,0.584 0.554,0 1.023,-0.166 1.401,-0.496 m 5.587,2.05 v -5.071 h 0.489 c 0.087,0 0.15,-0.016 0.191,-0.052 0.037,-0.033 0.058,-0.076 0.058,-0.13 0,-0.055 -0.021,-0.098 -0.058,-0.131 -0.041,-0.035 -0.104,-0.051 -0.191,-0.051 h -0.855 v 0.723 c -0.422,-0.58 -0.959,-0.87 -1.61,-0.87 -0.327,0 -0.64,0.088 -0.942,0.262 -0.302,0.176 -0.54,0.424 -0.715,0.745 -0.175,0.326 -0.263,0.662 -0.263,1.007 0,0.345 0.088,0.678 0.263,1 0.175,0.326 0.413,0.576 0.715,0.752 0.302,0.174 0.619,0.262 0.948,0.262 0.637,0 1.173,-0.289 1.604,-0.867 v 2.056 h -0.487 c -0.089,0 -0.15,0.018 -0.191,0.051 -0.038,0.035 -0.057,0.078 -0.057,0.132 0,0.054 0.019,0.097 0.057,0.132 0.041,0.033 0.102,0.05 0.191,0.05 z m -0.366,-3.568 c 0,0.461 -0.156,0.852 -0.472,1.168 -0.312,0.32 -0.682,0.482 -1.11,0.482 -0.434,0 -0.805,-0.162 -1.117,-0.482 -0.311,-0.316 -0.467,-0.707 -0.467,-1.168 0,-0.457 0.156,-0.847 0.467,-1.167 0.312,-0.321 0.683,-0.483 1.117,-0.483 0.428,0 0.798,0.162 1.11,0.483 0.316,0.32 0.472,0.71 0.472,1.167 m 5.881,-0.08 h -3.714 c 0.068,-0.473 0.267,-0.851 0.598,-1.139 0.331,-0.286 0.74,-0.431 1.225,-0.431 0.273,0 0.558,0.045 0.855,0.132 0.296,0.093 0.54,0.212 0.729,0.358 0.054,0.043 0.1,0.064 0.139,0.064 0.048,0 0.09,-0.017 0.123,-0.057 0.035,-0.034 0.052,-0.075 0.052,-0.124 0,-0.047 -0.025,-0.095 -0.074,-0.137 -0.136,-0.146 -0.38,-0.284 -0.736,-0.41 -0.355,-0.125 -0.718,-0.19 -1.088,-0.19 -0.621,0 -1.143,0.205 -1.562,0.612 -0.418,0.41 -0.626,0.905 -0.626,1.49 0,0.524 0.195,0.977 0.584,1.357 0.395,0.38 0.879,0.569 1.459,0.569 0.592,0 1.081,-0.195 1.466,-0.584 0.385,-0.389 0.575,-0.892 0.57,-1.51 m -0.373,0.371 c -0.072,0.401 -0.262,0.725 -0.568,0.979 -0.307,0.253 -0.672,0.38 -1.095,0.38 -0.428,0 -0.795,-0.127 -1.102,-0.38 -0.302,-0.248 -0.491,-0.575 -0.569,-0.979 z m 2.639,0.141 c 0.225,0.335 0.455,0.58 0.693,0.736 0.239,0.16 0.503,0.24 0.797,0.24 0.388,0 0.732,-0.162 1.028,-0.488 0.302,-0.321 0.454,-0.719 0.454,-1.19 0,-0.433 -0.137,-0.829 -0.411,-1.191 -0.272,-0.359 -0.651,-0.539 -1.138,-0.539 -0.311,0 -0.603,0.098 -0.875,0.292 -0.273,0.194 -0.489,0.492 -0.65,0.892 -0.19,0.5 -0.284,1.054 -0.284,1.662 0,0.459 0.09,0.882 0.27,1.27 0.141,0.307 0.326,0.575 0.554,0.803 0.234,0.229 0.504,0.415 0.81,0.562 0.307,0.146 0.641,0.218 1,0.218 0.244,0 0.445,-0.048 0.605,-0.145 0.068,-0.045 0.103,-0.103 0.103,-0.175 0,-0.054 -0.017,-0.098 -0.052,-0.132 -0.028,-0.029 -0.068,-0.044 -0.116,-0.044 -0.038,0 -0.083,0.015 -0.131,0.044 -0.122,0.059 -0.271,0.087 -0.445,0.087 -0.565,0 -1.079,-0.243 -1.54,-0.729 -0.462,-0.482 -0.694,-1.059 -0.694,-1.729 0,-0.093 0.009,-0.241 0.022,-0.444 m 0.08,-0.6 c 0.114,-0.525 0.285,-0.902 0.519,-1.131 0.238,-0.224 0.518,-0.336 0.839,-0.336 0.322,0 0.597,0.127 0.825,0.379 0.234,0.254 0.35,0.582 0.35,0.986 0,0.381 -0.116,0.693 -0.35,0.941 -0.228,0.249 -0.49,0.372 -0.782,0.372 -0.28,0 -0.551,-0.118 -0.809,-0.356 -0.175,-0.162 -0.371,-0.446 -0.592,-0.855 m 7.078,1.123 c 0.305,-0.15 0.534,-0.346 0.684,-0.591 0.156,-0.237 0.235,-0.495 0.235,-0.772 0,-0.428 -0.164,-0.8 -0.491,-1.117 -0.319,-0.316 -0.711,-0.475 -1.174,-0.475 -0.461,0 -0.857,0.159 -1.182,0.475 -0.32,0.317 -0.481,0.689 -0.481,1.117 0,0.277 0.076,0.535 0.233,0.772 0.156,0.245 0.388,0.441 0.693,0.591 -0.268,0.151 -0.461,0.31 -0.583,0.475 -0.166,0.234 -0.248,0.491 -0.248,0.775 0,0.397 0.154,0.745 0.46,1.042 0.305,0.302 0.675,0.452 1.108,0.452 0.439,0 0.81,-0.15 1.117,-0.452 0.306,-0.297 0.459,-0.645 0.459,-1.042 0,-0.284 -0.085,-0.541 -0.255,-0.775 -0.115,-0.165 -0.309,-0.324 -0.575,-0.475 m 0.46,1.235 c 0,0.312 -0.118,0.578 -0.351,0.802 -0.235,0.229 -0.518,0.342 -0.855,0.342 -0.335,0 -0.619,-0.113 -0.853,-0.342 -0.233,-0.224 -0.35,-0.49 -0.35,-0.797 0,-0.281 0.113,-0.529 0.341,-0.742 0.236,-0.215 0.523,-0.322 0.862,-0.322 0.342,0 0.625,0.107 0.855,0.322 0.233,0.213 0.351,0.458 0.351,0.737 m 0.094,-2.605 c 0,0.319 -0.126,0.599 -0.373,0.831 -0.249,0.238 -0.557,0.358 -0.927,0.358 -0.37,0 -0.678,-0.12 -0.926,-0.358 -0.248,-0.232 -0.371,-0.508 -0.371,-0.824 0,-0.332 0.123,-0.619 0.371,-0.861 0.253,-0.245 0.561,-0.366 0.926,-0.366 0.37,0 0.678,0.121 0.927,0.366 0.247,0.242 0.373,0.527 0.373,0.854 m 5.996,0.335 h -3.714 c 0.068,-0.473 0.268,-0.851 0.597,-1.139 0.332,-0.286 0.74,-0.431 1.227,-0.431 0.271,0 0.556,0.045 0.852,0.132 0.297,0.093 0.54,0.212 0.731,0.358 0.053,0.043 0.099,0.064 0.138,0.064 0.048,0 0.09,-0.017 0.124,-0.057 0.035,-0.034 0.051,-0.075 0.051,-0.124 0,-0.047 -0.024,-0.095 -0.072,-0.137 -0.137,-0.146 -0.383,-0.284 -0.738,-0.41 -0.355,-0.125 -0.717,-0.19 -1.086,-0.19 -0.624,0 -1.144,0.205 -1.562,0.612 -0.417,0.41 -0.628,0.905 -0.628,1.49 0,0.524 0.195,0.977 0.582,1.357 0.396,0.38 0.882,0.569 1.461,0.569 0.593,0 1.083,-0.195 1.466,-0.584 0.385,-0.389 0.575,-0.892 0.571,-1.51 m -0.372,0.371 c -0.073,0.401 -0.263,0.725 -0.57,0.979 -0.307,0.253 -0.671,0.38 -1.095,0.38 -0.429,0 -0.795,-0.127 -1.101,-0.38 -0.302,-0.248 -0.492,-0.575 -0.571,-0.979 z m 5.507,3.277 v -5.071 h 0.488 c 0.087,0 0.15,-0.016 0.19,-0.052 0.038,-0.033 0.058,-0.076 0.058,-0.13 0,-0.055 -0.02,-0.098 -0.058,-0.131 -0.04,-0.035 -0.103,-0.051 -0.19,-0.051 h -0.854 v 0.723 c -0.423,-0.58 -0.961,-0.87 -1.612,-0.87 -0.327,0 -0.64,0.088 -0.942,0.262 -0.302,0.176 -0.54,0.424 -0.715,0.745 -0.174,0.326 -0.263,0.662 -0.263,1.007 0,0.345 0.089,0.678 0.263,1 0.175,0.326 0.413,0.576 0.715,0.752 0.302,0.174 0.618,0.262 0.948,0.262 0.639,0 1.173,-0.289 1.606,-0.867 v 2.056 h -0.489 c -0.087,0 -0.15,0.018 -0.19,0.051 -0.038,0.035 -0.058,0.078 -0.058,0.132 0,0.054 0.02,0.097 0.058,0.132 0.04,0.033 0.103,0.05 0.19,0.05 z m -0.366,-3.568 c 0,0.461 -0.157,0.852 -0.474,1.168 -0.312,0.32 -0.681,0.482 -1.11,0.482 -0.431,0 -0.804,-0.162 -1.116,-0.482 -0.312,-0.316 -0.467,-0.707 -0.467,-1.168 0,-0.457 0.155,-0.847 0.467,-1.167 0.312,-0.321 0.685,-0.483 1.116,-0.483 0.429,0 0.798,0.162 1.11,0.483 0.317,0.32 0.474,0.71 0.474,1.167 m 4.653,0.955 c 0.307,-0.15 0.535,-0.346 0.687,-0.591 0.155,-0.237 0.233,-0.495 0.233,-0.772 0,-0.428 -0.163,-0.8 -0.49,-1.117 -0.32,-0.316 -0.711,-0.475 -1.174,-0.475 -0.463,0 -0.856,0.159 -1.182,0.475 -0.322,0.317 -0.481,0.689 -0.481,1.117 0,0.277 0.078,0.535 0.232,0.772 0.157,0.245 0.387,0.441 0.694,0.591 -0.267,0.151 -0.462,0.31 -0.584,0.475 -0.165,0.234 -0.247,0.491 -0.247,0.775 0,0.397 0.153,0.745 0.459,1.042 0.307,0.302 0.677,0.452 1.109,0.452 0.438,0 0.811,-0.15 1.115,-0.452 0.307,-0.297 0.46,-0.645 0.46,-1.042 0,-0.284 -0.085,-0.541 -0.255,-0.775 -0.116,-0.165 -0.308,-0.324 -0.576,-0.475 m 0.46,1.235 c 0,0.312 -0.117,0.578 -0.35,0.802 -0.234,0.229 -0.518,0.342 -0.854,0.342 -0.335,0 -0.621,-0.113 -0.854,-0.342 -0.233,-0.224 -0.35,-0.49 -0.35,-0.797 0,-0.281 0.115,-0.529 0.343,-0.742 0.234,-0.215 0.52,-0.322 0.861,-0.322 0.341,0 0.626,0.107 0.854,0.322 0.233,0.213 0.35,0.458 0.35,0.737 m 0.095,-2.605 c 0,0.319 -0.125,0.599 -0.372,0.831 -0.247,0.238 -0.558,0.358 -0.927,0.358 -0.369,0 -0.679,-0.12 -0.928,-0.358 -0.247,-0.232 -0.371,-0.508 -0.371,-0.824 0,-0.332 0.124,-0.619 0.371,-0.861 0.254,-0.245 0.564,-0.366 0.928,-0.366 0.369,0 0.68,0.121 0.927,0.366 0.247,0.242 0.372,0.527 0.372,0.854 m 5.806,3.983 v -5.071 h 0.489 c 0.087,0 0.15,-0.016 0.19,-0.052 0.038,-0.033 0.059,-0.076 0.059,-0.13 0,-0.055 -0.021,-0.098 -0.059,-0.131 -0.04,-0.035 -0.103,-0.051 -0.19,-0.051 h -0.855 v 0.723 c -0.423,-0.58 -0.96,-0.87 -1.61,-0.87 -0.327,0 -0.641,0.088 -0.942,0.262 -0.302,0.176 -0.54,0.424 -0.715,0.745 -0.175,0.326 -0.263,0.662 -0.263,1.007 0,0.345 0.088,0.678 0.263,1 0.175,0.326 0.413,0.576 0.715,0.752 0.301,0.174 0.618,0.262 0.948,0.262 0.637,0 1.173,-0.289 1.604,-0.867 v 2.056 h -0.488 c -0.088,0 -0.15,0.018 -0.189,0.051 -0.039,0.035 -0.059,0.078 -0.059,0.132 0,0.054 0.02,0.097 0.059,0.132 0.039,0.033 0.101,0.05 0.189,0.05 z m -0.366,-3.568 c 0,0.461 -0.156,0.852 -0.472,1.168 -0.313,0.32 -0.682,0.482 -1.11,0.482 -0.434,0 -0.806,-0.162 -1.117,-0.482 -0.311,-0.316 -0.466,-0.707 -0.466,-1.168 0,-0.457 0.155,-0.847 0.466,-1.167 0.311,-0.321 0.683,-0.483 1.117,-0.483 0.428,0 0.797,0.162 1.11,0.483 0.316,0.32 0.472,0.71 0.472,1.167 m 4.955,-1.867 v 0.523 c -0.527,-0.446 -1.09,-0.67 -1.693,-0.67 -0.439,0 -0.779,0.11 -1.022,0.329 -0.244,0.223 -0.365,0.496 -0.365,0.816 0,0.355 0.16,0.666 0.482,0.928 0.325,0.263 0.796,0.394 1.414,0.394 0.171,0 0.353,-0.013 0.549,-0.037 0.193,-0.019 0.404,-0.053 0.635,-0.103 v 0.591 c 0,0.2 -0.094,0.372 -0.279,0.519 -0.184,0.151 -0.461,0.227 -0.832,0.227 -0.281,0 -0.678,-0.083 -1.189,-0.248 -0.092,-0.031 -0.15,-0.044 -0.175,-0.044 -0.048,0 -0.089,0.017 -0.123,0.05 -0.035,0.036 -0.052,0.078 -0.052,0.131 0,0.049 0.015,0.089 0.044,0.117 0.044,0.043 0.209,0.102 0.496,0.176 0.449,0.12 0.787,0.182 1.022,0.182 0.456,0 0.815,-0.114 1.073,-0.343 0.257,-0.224 0.386,-0.479 0.386,-0.767 v -2.407 h 0.482 c 0.091,0 0.154,-0.016 0.189,-0.052 0.039,-0.033 0.059,-0.076 0.059,-0.13 0,-0.055 -0.02,-0.098 -0.059,-0.131 -0.035,-0.035 -0.098,-0.051 -0.189,-0.051 z m 0,1.809 c -0.172,0.048 -0.353,0.085 -0.542,0.11 -0.189,0.022 -0.388,0.036 -0.598,0.036 -0.53,0 -0.944,-0.115 -1.24,-0.343 -0.228,-0.171 -0.344,-0.376 -0.344,-0.614 0,-0.217 0.086,-0.402 0.256,-0.555 0.176,-0.149 0.428,-0.226 0.759,-0.226 0.312,0 0.601,0.064 0.869,0.189 0.272,0.127 0.552,0.328 0.84,0.599 z m 5.024,1.013 c 0.306,-0.15 0.536,-0.346 0.685,-0.591 0.155,-0.237 0.234,-0.495 0.234,-0.772 0,-0.428 -0.162,-0.8 -0.488,-1.117 -0.322,-0.316 -0.713,-0.475 -1.175,-0.475 -0.463,0 -0.856,0.159 -1.183,0.475 -0.32,0.317 -0.481,0.689 -0.481,1.117 0,0.277 0.078,0.535 0.233,0.772 0.157,0.245 0.388,0.441 0.693,0.591 -0.267,0.151 -0.461,0.31 -0.583,0.475 -0.165,0.234 -0.249,0.491 -0.249,0.775 0,0.397 0.153,0.745 0.461,1.042 0.307,0.302 0.676,0.452 1.109,0.452 0.438,0 0.81,-0.15 1.118,-0.452 0.304,-0.297 0.458,-0.645 0.458,-1.042 0,-0.284 -0.085,-0.541 -0.257,-0.775 -0.116,-0.165 -0.307,-0.324 -0.575,-0.475 m 0.459,1.235 c 0,0.312 -0.117,0.578 -0.35,0.802 -0.234,0.229 -0.518,0.342 -0.853,0.342 -0.336,0 -0.62,-0.113 -0.856,-0.342 -0.232,-0.224 -0.348,-0.49 -0.348,-0.797 0,-0.281 0.115,-0.529 0.342,-0.742 0.234,-0.215 0.52,-0.322 0.862,-0.322 0.341,0 0.625,0.107 0.853,0.322 0.233,0.213 0.35,0.458 0.35,0.737 m 0.095,-2.605 c 0,0.319 -0.123,0.599 -0.371,0.831 -0.25,0.238 -0.557,0.358 -0.927,0.358 -0.37,0 -0.678,-0.12 -0.926,-0.358 -0.249,-0.232 -0.374,-0.508 -0.374,-0.824 0,-0.332 0.125,-0.619 0.374,-0.861 0.251,-0.245 0.562,-0.366 0.926,-0.366 0.37,0 0.677,0.121 0.927,0.366 0.248,0.242 0.371,0.527 0.371,0.854 m 4.21,4.056 v -5.144 h 1.245 c 0.084,0 0.147,-0.016 0.184,-0.052 0.038,-0.033 0.058,-0.076 0.058,-0.13 0,-0.055 -0.02,-0.098 -0.058,-0.131 -0.037,-0.035 -0.1,-0.051 -0.184,-0.051 h -2.859 c -0.088,0 -0.151,0.016 -0.19,0.051 -0.038,0.033 -0.058,0.076 -0.058,0.131 0,0.054 0.02,0.097 0.058,0.13 0.039,0.036 0.102,0.052 0.19,0.052 h 1.249 v 4.641 l -1.19,-0.372 c -0.059,-0.015 -0.1,-0.022 -0.123,-0.022 -0.046,0 -0.087,0.018 -0.126,0.05 -0.033,0.04 -0.051,0.083 -0.051,0.132 0,0.043 0.015,0.083 0.045,0.117 0.023,0.025 0.072,0.048 0.144,0.072 z m 4.133,-0.438 v -1.78 c 0.215,0.089 0.418,0.153 0.615,0.196 0.198,0.045 0.384,0.067 0.56,0.067 0.459,0 0.84,-0.161 1.147,-0.481 0.31,-0.317 0.466,-0.738 0.466,-1.263 0,-0.579 -0.175,-1.048 -0.525,-1.409 -0.345,-0.355 -0.778,-0.533 -1.299,-0.533 -0.341,0 -0.671,0.078 -0.991,0.235 -0.225,0.107 -0.429,0.236 -0.615,0.393 -0.11,0.097 -0.168,0.177 -0.168,0.24 0,0.056 0.017,0.099 0.052,0.132 0.039,0.035 0.081,0.052 0.123,0.052 0.05,0 0.104,-0.025 0.162,-0.073 0.433,-0.409 0.906,-0.614 1.423,-0.614 0.423,0 0.773,0.143 1.05,0.432 0.278,0.291 0.417,0.68 0.417,1.166 0,0.408 -0.12,0.738 -0.359,0.984 -0.238,0.254 -0.542,0.381 -0.911,0.381 -0.381,0 -0.759,-0.1 -1.139,-0.299 -0.092,-0.049 -0.158,-0.074 -0.198,-0.074 -0.048,0 -0.09,0.018 -0.124,0.051 -0.028,0.035 -0.042,0.083 -0.042,0.147 v 2.415 h 2.531 c 0.088,0 0.152,-0.017 0.189,-0.05 0.04,-0.035 0.06,-0.078 0.06,-0.132 0,-0.054 -0.02,-0.097 -0.06,-0.132 -0.037,-0.033 -0.101,-0.051 -0.189,-0.051 z M 133.113,0 v -0.898 c 0,-0.782 -0.186,-1.403 -0.56,-1.862 -0.293,-0.359 -0.661,-0.539 -1.104,-0.539 -0.214,0 -0.415,0.045 -0.605,0.133 -0.19,0.082 -0.349,0.201 -0.481,0.357 -0.084,0.092 -0.176,0.244 -0.277,0.452 -0.098,0.214 -0.169,0.408 -0.211,0.586 -0.069,0.246 -0.104,0.539 -0.104,0.873 V 0 c 0,0.789 0.188,1.408 0.562,1.859 0.293,0.362 0.66,0.541 1.103,0.541 0.218,0 0.419,-0.043 0.605,-0.131 0.19,-0.081 0.349,-0.202 0.481,-0.357 0.088,-0.098 0.18,-0.25 0.277,-0.46 0.097,-0.21 0.171,-0.402 0.219,-0.577 0.064,-0.248 0.095,-0.539 0.095,-0.875 m -0.363,-0.045 c 0,0.342 -0.049,0.66 -0.148,0.957 -0.097,0.297 -0.206,0.533 -0.329,0.708 -0.072,0.103 -0.165,0.191 -0.275,0.262 -0.165,0.103 -0.351,0.153 -0.556,0.153 -0.408,0 -0.73,-0.209 -0.963,-0.627 -0.229,-0.413 -0.344,-0.898 -0.344,-1.453 v -0.801 c 0,-0.345 0.049,-0.666 0.148,-0.963 0.096,-0.296 0.206,-0.537 0.327,-0.716 0.07,-0.097 0.16,-0.183 0.277,-0.255 0.167,-0.103 0.354,-0.154 0.562,-0.154 0.405,0 0.721,0.21 0.95,0.628 0.234,0.418 0.351,0.906 0.351,1.46 z m 5.535,0.264 v 0.117 c 0,0.093 0.017,0.154 0.05,0.19 0.035,0.038 0.08,0.058 0.133,0.058 0.053,0 0.096,-0.02 0.131,-0.058 0.034,-0.036 0.049,-0.097 0.049,-0.19 V -0.48 c 0,-0.094 -0.015,-0.159 -0.049,-0.2 -0.035,-0.033 -0.078,-0.049 -0.131,-0.049 -0.049,0 -0.092,0.013 -0.126,0.042 -0.033,0.035 -0.053,0.091 -0.057,0.169 -0.019,0.208 -0.155,0.406 -0.409,0.59 -0.248,0.186 -0.587,0.279 -1.015,0.279 -0.54,0 -0.948,-0.169 -1.234,-0.511 -0.28,-0.336 -0.422,-0.723 -0.422,-1.16 0,-0.472 0.154,-0.862 0.46,-1.168 0.311,-0.307 0.713,-0.461 1.205,-0.461 0.287,0 0.576,0.053 0.868,0.154 0.291,0.107 0.556,0.277 0.795,0.511 0.059,0.054 0.111,0.08 0.161,0.08 0.05,0 0.09,-0.017 0.123,-0.05 0.035,-0.03 0.051,-0.068 0.051,-0.118 0,-0.124 -0.146,-0.282 -0.438,-0.474 -0.471,-0.311 -0.997,-0.467 -1.576,-0.467 -0.583,0 -1.064,0.188 -1.445,0.563 -0.375,0.375 -0.561,0.848 -0.561,1.422 0,0.588 0.192,1.076 0.577,1.459 0.382,0.389 0.869,0.584 1.46,0.584 0.553,0 1.02,-0.166 1.4,-0.496 m 4.485,-1.868 h -2.415 v 0.423 l 2.022,3.495 h 0.759 v -3.552 h 0.305 c 0.088,0 0.153,-0.018 0.189,-0.053 0.04,-0.028 0.059,-0.074 0.059,-0.131 0,-0.049 -0.019,-0.092 -0.059,-0.131 -0.036,-0.035 -0.101,-0.051 -0.189,-0.051 h -0.305 v -1.153 h 0.305 c 0.088,0 0.153,-0.016 0.189,-0.052 0.04,-0.033 0.059,-0.076 0.059,-0.13 0,-0.055 -0.019,-0.098 -0.059,-0.131 -0.036,-0.035 -0.101,-0.051 -0.189,-0.051 h -1.348 c -0.096,0 -0.159,0.016 -0.198,0.051 -0.035,0.033 -0.051,0.076 -0.051,0.131 0,0.054 0.016,0.097 0.051,0.13 0.039,0.036 0.102,0.052 0.198,0.052 h 0.677 z m 0,0.366 v 3.187 h -0.191 l -1.846,-3.187 z m 6.163,1.502 v 0.117 c 0,0.093 0.018,0.154 0.053,0.19 0.033,0.038 0.077,0.058 0.131,0.058 0.054,0 0.097,-0.02 0.131,-0.058 0.034,-0.036 0.05,-0.097 0.05,-0.19 V -0.48 c 0,-0.094 -0.016,-0.159 -0.05,-0.2 -0.034,-0.033 -0.077,-0.049 -0.131,-0.049 -0.049,0 -0.09,0.013 -0.125,0.042 -0.034,0.035 -0.053,0.091 -0.059,0.169 -0.019,0.208 -0.156,0.406 -0.408,0.59 -0.248,0.186 -0.586,0.279 -1.014,0.279 -0.539,0 -0.95,-0.169 -1.234,-0.511 -0.281,-0.336 -0.423,-0.723 -0.423,-1.16 0,-0.472 0.153,-0.862 0.46,-1.168 0.311,-0.307 0.713,-0.461 1.204,-0.461 0.287,0 0.577,0.053 0.868,0.154 0.293,0.107 0.558,0.277 0.795,0.511 0.059,0.054 0.113,0.08 0.16,0.08 0.05,0 0.091,-0.017 0.125,-0.05 0.034,-0.03 0.053,-0.068 0.053,-0.118 0,-0.124 -0.147,-0.282 -0.438,-0.474 -0.472,-0.311 -0.999,-0.467 -1.578,-0.467 -0.582,0 -1.064,0.188 -1.445,0.563 -0.373,0.375 -0.56,0.848 -0.56,1.422 0,0.588 0.191,1.076 0.576,1.459 0.384,0.389 0.871,0.584 1.458,0.584 0.554,0 1.022,-0.166 1.401,-0.496 m 5.588,2.05 v -5.071 h 0.489 c 0.087,0 0.15,-0.016 0.19,-0.052 0.039,-0.033 0.059,-0.076 0.059,-0.13 0,-0.055 -0.02,-0.098 -0.059,-0.131 -0.04,-0.035 -0.103,-0.051 -0.19,-0.051 h -0.854 v 0.723 c -0.424,-0.58 -0.96,-0.87 -1.612,-0.87 -0.326,0 -0.64,0.088 -0.941,0.262 -0.301,0.176 -0.539,0.424 -0.715,0.745 -0.177,0.326 -0.263,0.662 -0.263,1.007 0,0.345 0.086,0.678 0.263,1 0.176,0.326 0.414,0.576 0.715,0.752 0.301,0.174 0.617,0.262 0.947,0.262 0.639,0 1.174,-0.289 1.606,-0.867 v 2.056 h -0.489 c -0.088,0 -0.151,0.018 -0.189,0.051 -0.04,0.035 -0.059,0.078 -0.059,0.132 0,0.054 0.019,0.097 0.059,0.132 0.038,0.033 0.101,0.05 0.189,0.05 z m -0.365,-3.568 c 0,0.461 -0.158,0.852 -0.474,1.168 -0.311,0.32 -0.681,0.482 -1.108,0.482 -0.434,0 -0.805,-0.162 -1.118,-0.482 -0.31,-0.316 -0.466,-0.707 -0.466,-1.168 0,-0.457 0.156,-0.847 0.466,-1.167 0.313,-0.321 0.684,-0.483 1.118,-0.483 0.427,0 0.797,0.162 1.108,0.483 0.316,0.32 0.474,0.71 0.474,1.167 m 5.881,-0.08 h -3.715 c 0.067,-0.473 0.267,-0.851 0.597,-1.139 0.331,-0.286 0.74,-0.431 1.226,-0.431 0.273,0 0.56,0.045 0.855,0.132 0.296,0.093 0.54,0.212 0.73,0.358 0.053,0.043 0.098,0.064 0.138,0.064 0.048,0 0.09,-0.017 0.123,-0.057 0.035,-0.034 0.053,-0.075 0.053,-0.124 0,-0.047 -0.026,-0.095 -0.074,-0.137 -0.137,-0.146 -0.383,-0.284 -0.737,-0.41 -0.357,-0.125 -0.719,-0.19 -1.088,-0.19 -0.622,0 -1.144,0.205 -1.562,0.612 -0.417,0.41 -0.626,0.905 -0.626,1.49 0,0.524 0.193,0.977 0.582,1.357 0.396,0.38 0.881,0.569 1.461,0.569 0.593,0 1.082,-0.195 1.465,-0.584 0.386,-0.389 0.574,-0.892 0.572,-1.51 m -0.373,0.371 c -0.075,0.401 -0.262,0.725 -0.57,0.979 -0.305,0.253 -0.671,0.38 -1.094,0.38 -0.428,0 -0.795,-0.127 -1.1,-0.38 -0.305,-0.248 -0.492,-0.575 -0.572,-0.979 z m 3.484,1.227 v -3.021 h 1.599 c 0.087,0 0.149,-0.016 0.182,-0.052 0.039,-0.033 0.059,-0.076 0.059,-0.13 0,-0.055 -0.02,-0.098 -0.059,-0.131 -0.033,-0.035 -0.095,-0.051 -0.182,-0.051 h -2.845 c -0.088,0 -0.151,0.016 -0.19,0.051 -0.035,0.033 -0.052,0.076 -0.052,0.131 0,0.054 0.017,0.097 0.052,0.13 0.039,0.036 0.102,0.052 0.19,0.052 h 0.876 v 3.021 h -0.788 c -0.084,0 -0.145,0.017 -0.184,0.052 -0.039,0.034 -0.059,0.076 -0.059,0.129 0,0.055 0.02,0.1 0.059,0.133 0.039,0.033 0.1,0.051 0.184,0.051 h 0.788 v 0.555 c 0,0.306 0.122,0.571 0.37,0.795 0.254,0.223 0.584,0.335 0.995,0.335 0.344,0 0.71,-0.031 1.101,-0.094 0.144,-0.025 0.232,-0.055 0.262,-0.088 0.029,-0.03 0.044,-0.069 0.044,-0.116 0,-0.053 -0.017,-0.098 -0.052,-0.132 -0.034,-0.034 -0.081,-0.052 -0.137,-0.052 -0.022,0 -0.061,0.005 -0.117,0.015 -0.434,0.068 -0.801,0.102 -1.101,0.102 -0.317,0 -0.563,-0.078 -0.739,-0.234 -0.17,-0.154 -0.256,-0.333 -0.256,-0.531 V 0.584 h 1.701 c 0.088,0 0.151,-0.018 0.19,-0.051 0.04,-0.033 0.056,-0.078 0.056,-0.133 0,-0.053 -0.016,-0.095 -0.056,-0.129 C 165,0.236 164.937,0.219 164.849,0.219 Z m 6.245,-1.868 h -2.415 v 0.423 l 2.02,3.495 h 0.759 v -3.552 h 0.307 c 0.088,0 0.15,-0.018 0.189,-0.053 0.039,-0.028 0.059,-0.074 0.059,-0.131 0,-0.049 -0.02,-0.092 -0.059,-0.131 -0.039,-0.035 -0.101,-0.051 -0.189,-0.051 h -0.307 v -1.153 h 0.307 c 0.088,0 0.15,-0.016 0.189,-0.052 0.039,-0.033 0.059,-0.076 0.059,-0.13 0,-0.055 -0.02,-0.098 -0.059,-0.131 -0.039,-0.035 -0.101,-0.051 -0.189,-0.051 h -1.35 c -0.093,0 -0.16,0.016 -0.197,0.051 -0.033,0.033 -0.052,0.076 -0.052,0.131 0,0.054 0.019,0.097 0.052,0.13 0.037,0.036 0.104,0.052 0.197,0.052 h 0.679 z m 0,0.366 v 3.187 h -0.19 l -1.846,-3.187 z m 5.69,-1.883 v 0.523 c -0.527,-0.446 -1.09,-0.67 -1.693,-0.67 -0.438,0 -0.777,0.11 -1.021,0.329 -0.244,0.223 -0.366,0.496 -0.366,0.816 0,0.355 0.161,0.666 0.481,0.928 0.325,0.263 0.8,0.394 1.416,0.394 0.171,0 0.352,-0.013 0.549,-0.037 0.193,-0.019 0.404,-0.053 0.634,-0.103 v 0.591 c 0,0.2 -0.093,0.372 -0.279,0.519 -0.184,0.151 -0.462,0.227 -0.832,0.227 -0.281,0 -0.678,-0.083 -1.189,-0.248 -0.09,-0.031 -0.151,-0.044 -0.174,-0.044 -0.049,0 -0.092,0.017 -0.125,0.05 -0.035,0.036 -0.052,0.078 -0.052,0.131 0,0.049 0.017,0.089 0.044,0.117 0.045,0.043 0.211,0.102 0.497,0.176 0.448,0.12 0.788,0.182 1.021,0.182 0.458,0 0.817,-0.114 1.073,-0.343 0.26,-0.224 0.387,-0.479 0.387,-0.767 v -2.407 h 0.482 c 0.092,0 0.155,-0.016 0.189,-0.052 0.04,-0.033 0.059,-0.076 0.059,-0.13 0,-0.055 -0.019,-0.098 -0.059,-0.131 -0.034,-0.035 -0.097,-0.051 -0.189,-0.051 z m 0,1.809 c -0.169,0.048 -0.351,0.085 -0.539,0.11 -0.191,0.022 -0.39,0.036 -0.599,0.036 -0.532,0 -0.945,-0.115 -1.242,-0.343 -0.228,-0.171 -0.343,-0.376 -0.343,-0.614 0,-0.217 0.087,-0.402 0.257,-0.555 0.174,-0.149 0.427,-0.226 0.758,-0.226 0.312,0 0.602,0.064 0.869,0.189 0.272,0.127 0.55,0.328 0.839,0.599 z m 6.25,-0.022 h -3.713 c 0.067,-0.473 0.268,-0.851 0.598,-1.139 0.33,-0.286 0.738,-0.431 1.226,-0.431 0.274,0 0.555,0.045 0.854,0.132 0.297,0.093 0.541,0.212 0.728,0.358 0.053,0.043 0.102,0.064 0.141,0.064 0.047,0 0.09,-0.017 0.123,-0.057 0.033,-0.034 0.051,-0.075 0.051,-0.124 0,-0.047 -0.024,-0.095 -0.072,-0.137 -0.137,-0.146 -0.381,-0.284 -0.737,-0.41 -0.355,-0.125 -0.719,-0.19 -1.088,-0.19 -0.625,0 -1.144,0.205 -1.562,0.612 -0.418,0.41 -0.629,0.905 -0.629,1.49 0,0.524 0.195,0.977 0.586,1.357 0.392,0.38 0.881,0.569 1.459,0.569 0.594,0 1.084,-0.195 1.467,-0.584 0.382,-0.389 0.574,-0.892 0.568,-1.51 m -0.371,0.371 c -0.072,0.401 -0.264,0.725 -0.572,0.979 -0.303,0.253 -0.668,0.38 -1.092,0.38 -0.428,0 -0.795,-0.127 -1.102,-0.38 -0.302,-0.248 -0.492,-0.575 -0.568,-0.979 z m 4.471,0.804 c 0.336,-0.15 0.591,-0.359 0.765,-0.62 0.182,-0.264 0.272,-0.535 0.272,-0.819 0,-0.436 -0.18,-0.823 -0.533,-1.159 -0.354,-0.33 -0.799,-0.497 -1.331,-0.497 -0.31,0 -0.634,0.068 -0.97,0.198 -0.334,0.136 -0.569,0.272 -0.699,0.41 -0.045,0.046 -0.065,0.099 -0.065,0.152 0,0.043 0.012,0.082 0.043,0.117 0.035,0.033 0.074,0.05 0.125,0.05 0.043,0 0.096,-0.023 0.152,-0.066 0.448,-0.33 0.922,-0.496 1.426,-0.496 0.42,0 0.774,0.132 1.055,0.395 0.287,0.267 0.431,0.562 0.431,0.883 0,0.218 -0.07,0.43 -0.212,0.635 -0.141,0.208 -0.344,0.374 -0.604,0.496 -0.264,0.121 -0.529,0.181 -0.799,0.181 -0.086,0 -0.148,0.016 -0.189,0.045 -0.031,0.034 -0.051,0.078 -0.051,0.131 0,0.053 0.02,0.097 0.051,0.131 0.037,0.035 0.09,0.051 0.162,0.051 h 0.314 c 0.327,0 0.592,0.099 0.803,0.3 0.215,0.2 0.32,0.429 0.32,0.693 0,0.272 -0.111,0.511 -0.336,0.716 -0.218,0.209 -0.507,0.312 -0.867,0.312 -0.248,0 -0.48,-0.043 -0.693,-0.131 -0.211,-0.088 -0.377,-0.205 -0.504,-0.351 -0.051,-0.058 -0.084,-0.094 -0.109,-0.108 -0.026,-0.015 -0.051,-0.021 -0.08,-0.021 -0.049,0 -0.094,0.015 -0.133,0.05 -0.033,0.034 -0.051,0.075 -0.051,0.125 0,0.111 0.125,0.256 0.381,0.436 0.347,0.243 0.744,0.365 1.189,0.365 0.461,0 0.838,-0.138 1.131,-0.415 0.297,-0.273 0.445,-0.602 0.445,-0.985 0,-0.243 -0.072,-0.474 -0.21,-0.693 -0.143,-0.214 -0.352,-0.385 -0.629,-0.511 m 4.761,2.546 v -5.144 h 1.25 c 0.082,0 0.143,-0.016 0.182,-0.052 0.039,-0.033 0.059,-0.076 0.059,-0.13 0,-0.055 -0.02,-0.098 -0.059,-0.131 -0.039,-0.035 -0.1,-0.051 -0.182,-0.051 h -2.861 c -0.088,0 -0.152,0.016 -0.189,0.051 -0.041,0.033 -0.059,0.076 -0.059,0.131 0,0.054 0.018,0.097 0.059,0.13 0.037,0.036 0.101,0.052 0.189,0.052 h 1.246 v 4.641 l -1.187,-0.372 c -0.059,-0.015 -0.1,-0.022 -0.125,-0.022 -0.043,0 -0.086,0.018 -0.123,0.05 -0.036,0.04 -0.051,0.083 -0.051,0.132 0,0.043 0.013,0.083 0.041,0.117 0.025,0.025 0.074,0.048 0.148,0.072 z m 6.369,-0.606 v 0.168 h -2.611 v -0.32 c 0,-0.089 -0.017,-0.152 -0.053,-0.19 -0.029,-0.034 -0.072,-0.052 -0.13,-0.052 -0.047,0 -0.094,0.018 -0.131,0.052 -0.035,0.038 -0.053,0.101 -0.053,0.19 v 0.685 h 3.342 V 1.693 l -1.465,-4.685 c -0.02,-0.072 -0.047,-0.121 -0.08,-0.145 -0.029,-0.025 -0.069,-0.037 -0.11,-0.037 -0.048,0 -0.095,0.017 -0.13,0.051 -0.036,0.034 -0.053,0.076 -0.053,0.125 0,0.027 0.01,0.068 0.029,0.115 z m 3.012,-2.603 c 0.223,0.335 0.453,0.58 0.694,0.736 0.236,0.16 0.503,0.24 0.794,0.24 0.389,0 0.733,-0.162 1.03,-0.488 0.301,-0.321 0.451,-0.719 0.451,-1.19 0,-0.433 -0.135,-0.829 -0.408,-1.191 -0.274,-0.359 -0.653,-0.539 -1.139,-0.539 -0.31,0 -0.603,0.098 -0.873,0.292 -0.275,0.194 -0.492,0.492 -0.652,0.892 -0.19,0.5 -0.284,1.054 -0.284,1.662 0,0.459 0.09,0.882 0.27,1.27 0.141,0.307 0.326,0.575 0.555,0.803 0.232,0.229 0.502,0.415 0.808,0.562 0.309,0.146 0.643,0.218 1,0.218 0.244,0 0.446,-0.048 0.606,-0.145 0.068,-0.045 0.103,-0.103 0.103,-0.175 0,-0.054 -0.015,-0.098 -0.052,-0.132 -0.028,-0.029 -0.069,-0.044 -0.118,-0.044 -0.037,0 -0.082,0.015 -0.131,0.044 -0.121,0.059 -0.269,0.087 -0.443,0.087 -0.566,0 -1.08,-0.243 -1.541,-0.729 -0.461,-0.482 -0.693,-1.059 -0.693,-1.729 0,-0.093 0.008,-0.241 0.023,-0.444 m 0.078,-0.6 c 0.116,-0.525 0.287,-0.902 0.52,-1.131 0.238,-0.224 0.517,-0.336 0.84,-0.336 0.322,0 0.595,0.127 0.826,0.379 0.23,0.254 0.348,0.582 0.348,0.986 0,0.381 -0.118,0.693 -0.348,0.941 -0.231,0.249 -0.492,0.372 -0.783,0.372 -0.284,0 -0.551,-0.118 -0.811,-0.356 -0.174,-0.162 -0.371,-0.446 -0.592,-0.855 m 7.852,1.686 v 0.117 c 0,0.093 0.016,0.154 0.051,0.19 0.033,0.038 0.076,0.058 0.131,0.058 0.052,0 0.097,-0.02 0.13,-0.058 0.036,-0.036 0.051,-0.097 0.051,-0.19 V -0.48 c 0,-0.094 -0.015,-0.159 -0.051,-0.2 -0.033,-0.033 -0.078,-0.049 -0.13,-0.049 -0.051,0 -0.092,0.013 -0.125,0.042 -0.032,0.035 -0.051,0.091 -0.057,0.169 -0.022,0.208 -0.156,0.406 -0.408,0.59 -0.248,0.186 -0.588,0.279 -1.016,0.279 -0.539,0 -0.951,-0.169 -1.234,-0.511 -0.282,-0.336 -0.422,-0.723 -0.422,-1.16 0,-0.472 0.154,-0.862 0.459,-1.168 0.312,-0.307 0.715,-0.461 1.203,-0.461 0.289,0 0.576,0.053 0.871,0.154 0.293,0.107 0.557,0.277 0.795,0.511 0.059,0.054 0.111,0.08 0.16,0.08 0.049,0 0.09,-0.017 0.123,-0.05 0.035,-0.03 0.053,-0.068 0.053,-0.118 0,-0.124 -0.147,-0.282 -0.438,-0.474 -0.472,-0.311 -1,-0.467 -1.576,-0.467 -0.586,0 -1.066,0.188 -1.445,0.563 -0.375,0.375 -0.563,0.848 -0.563,1.422 0,0.588 0.192,1.076 0.575,1.459 0.388,0.389 0.873,0.584 1.462,0.584 0.553,0 1.02,-0.166 1.401,-0.496 m 2.433,2.05 v -2.415 c 0.438,0.575 0.969,0.861 1.59,0.861 0.532,0 0.987,-0.195 1.368,-0.584 0.376,-0.383 0.568,-0.856 0.568,-1.414 0,-0.566 -0.193,-1.045 -0.578,-1.44 -0.383,-0.392 -0.836,-0.59 -1.358,-0.59 -0.634,0 -1.166,0.288 -1.59,0.861 v -0.714 h -0.853 c -0.088,0 -0.15,0.016 -0.189,0.051 -0.032,0.033 -0.051,0.076 -0.051,0.131 0,0.054 0.019,0.097 0.051,0.13 0.039,0.036 0.101,0.052 0.189,0.052 h 0.488 v 4.706 h -0.488 c -0.088,0 -0.15,0.018 -0.189,0.051 -0.032,0.035 -0.051,0.078 -0.051,0.132 0,0.054 0.019,0.097 0.051,0.132 0.039,0.033 0.101,0.05 0.189,0.05 z m 3.159,-3.568 c 0,0.459 -0.157,0.846 -0.473,1.168 -0.316,0.32 -0.684,0.482 -1.1,0.482 -0.425,0 -0.795,-0.162 -1.109,-0.482 -0.312,-0.322 -0.469,-0.709 -0.469,-1.168 0,-0.457 0.157,-0.847 0.469,-1.167 0.314,-0.321 0.684,-0.483 1.109,-0.483 0.416,0 0.784,0.162 1.1,0.483 0.316,0.32 0.473,0.71 0.473,1.167 m 4.584,-1.867 v 0.523 c -0.528,-0.446 -1.094,-0.67 -1.696,-0.67 -0.437,0 -0.777,0.11 -1.021,0.329 -0.244,0.223 -0.363,0.496 -0.363,0.816 0,0.355 0.16,0.666 0.48,0.928 0.326,0.263 0.799,0.394 1.416,0.394 0.17,0 0.352,-0.013 0.547,-0.037 0.195,-0.019 0.406,-0.053 0.637,-0.103 v 0.591 c 0,0.2 -0.094,0.372 -0.28,0.519 -0.183,0.151 -0.463,0.227 -0.83,0.227 -0.285,0 -0.681,-0.083 -1.191,-0.248 -0.092,-0.031 -0.151,-0.044 -0.174,-0.044 -0.047,0 -0.09,0.017 -0.125,0.05 -0.033,0.036 -0.051,0.078 -0.051,0.131 0,0.049 0.014,0.089 0.045,0.117 0.043,0.043 0.207,0.102 0.494,0.176 0.45,0.12 0.789,0.182 1.024,0.182 0.457,0 0.814,-0.114 1.07,-0.343 0.258,-0.224 0.389,-0.479 0.389,-0.767 v -2.407 h 0.482 c 0.09,0 0.153,-0.016 0.188,-0.052 0.039,-0.033 0.058,-0.076 0.058,-0.13 0,-0.055 -0.019,-0.098 -0.058,-0.131 -0.035,-0.035 -0.098,-0.051 -0.188,-0.051 z m 0,1.809 c -0.172,0.048 -0.354,0.085 -0.541,0.11 -0.192,0.022 -0.389,0.036 -0.6,0.036 -0.527,0 -0.943,-0.115 -1.238,-0.343 -0.231,-0.171 -0.344,-0.376 -0.344,-0.614 0,-0.217 0.084,-0.402 0.254,-0.555 0.174,-0.149 0.43,-0.226 0.76,-0.226 0.31,0 0.599,0.064 0.869,0.189 0.271,0.127 0.551,0.328 0.84,0.599 z m 5.023,1.013 c 0.307,-0.15 0.535,-0.346 0.688,-0.591 0.154,-0.237 0.232,-0.495 0.232,-0.772 0,-0.428 -0.162,-0.8 -0.49,-1.117 -0.321,-0.316 -0.711,-0.475 -1.174,-0.475 -0.461,0 -0.856,0.159 -1.182,0.475 -0.322,0.317 -0.482,0.689 -0.482,1.117 0,0.277 0.078,0.535 0.232,0.772 0.159,0.245 0.387,0.441 0.694,0.591 -0.266,0.151 -0.459,0.31 -0.582,0.475 -0.166,0.234 -0.248,0.491 -0.248,0.775 0,0.397 0.152,0.745 0.459,1.042 0.308,0.302 0.677,0.452 1.109,0.452 0.437,0 0.811,-0.15 1.113,-0.452 0.309,-0.297 0.463,-0.645 0.463,-1.042 0,-0.284 -0.086,-0.541 -0.256,-0.775 -0.117,-0.165 -0.308,-0.324 -0.576,-0.475 m 0.459,1.235 c 0,0.312 -0.117,0.578 -0.35,0.802 -0.232,0.229 -0.517,0.342 -0.853,0.342 -0.336,0 -0.621,-0.113 -0.854,-0.342 -0.232,-0.224 -0.349,-0.49 -0.349,-0.797 0,-0.281 0.115,-0.529 0.342,-0.742 0.232,-0.215 0.519,-0.322 0.861,-0.322 0.34,0 0.625,0.107 0.853,0.322 0.233,0.213 0.35,0.458 0.35,0.737 m 0.096,-2.605 c 0,0.319 -0.125,0.599 -0.371,0.831 -0.248,0.238 -0.559,0.358 -0.928,0.358 -0.369,0 -0.678,-0.12 -0.928,-0.358 -0.248,-0.232 -0.373,-0.508 -0.373,-0.824 0,-0.332 0.125,-0.619 0.373,-0.861 0.254,-0.245 0.563,-0.366 0.928,-0.366 0.369,0 0.68,0.121 0.928,0.366 0.246,0.242 0.371,0.527 0.371,0.854"
             style="fill:#231f20;fill-opacity:1;fill-rule:nonzero;stroke:none"
             id="path552" /></g><path
           d="M 290,622.667 H 251.833 V 640 H 290 Z"
           style="fill:#ffffff;fill-opacity:1;fill-rule:nonzero;stroke:#cd8c7a;stroke-width:0.5;stroke-linecap:butt;stroke-linejoin:miter;stroke-miterlimit:4;stroke-dasharray:none;stroke-opacity:1"
           id="path554" /><text
           transform="matrix(1,0,0,-1,255.2437,629.2168)"
           style="font-variant:normal;font-weight:normal;font-stretch:normal;font-size:11.5px;font-family:Courier;-inkscape-font-specification:Courier;writing-mode:lr-tb;fill:#231f20;fill-opacity:1;fill-rule:nonzero;stroke:none"
           id="text558"><tspan
             x="0 6.9000001 13.8 20.700001"
             y="0"
             id="tspan556">WPKH</tspan></text><text
           transform="matrix(1,0,0,-1,282.8481,626.2168)"
           style="font-variant:normal;font-weight:normal;font-stretch:normal;font-size:7px;font-family:Courier;-inkscape-font-specification:Courier;writing-mode:lr-tb;fill:#231f20;fill-opacity:1;fill-rule:nonzero;stroke:none"
           id="text562"><tspan
             x="0"
             y="0"
             id="tspan560">Y</tspan></text><text
           transform="matrix(1,0,0,-1,368.4546,582.2002)"
           style="font-variant:normal;font-weight:bold;font-stretch:condensed;font-size:8.5px;font-family:'Humanst521 Cn BT';-inkscape-font-specification:Humanist521BT-BoldCondensed;writing-mode:lr-tb;fill:#231f20;fill-opacity:1;fill-rule:nonzero;stroke:none"
           id="text568"><tspan
             x="0 4.1904998 10.557 14.8155 17.646 21.2075 23.383499 26.690001 28.7045 32.580502 36.813499 40.6385 43.469002 47.702 50.906502"
             y="0"
             id="tspan564">Empty signature</tspan><tspan
             x="0 3.3065 6.7065001 9.9110003 11.9255 16.184"
             y="9.0015001"
             id="tspan566">script</tspan></text><g
           id="g570"
           transform="translate(296.1646,633.8525)"><path
             d="m 0,0 c 0.951,0.283 1.57,0.545 2.334,0.848 l -0.01,-2.901 c -0.271,0.131 -1.379,0.576 -2.326,0.867 -1.018,0.313 -1.939,0.524 -2.537,0.602 0.6,0.072 1.523,0.281 2.539,0.584"
             style="fill:#231f20;fill-opacity:1;fill-rule:nonzero;stroke:none"
             id="path572" /></g><g
           id="g574"
           transform="translate(374.334,631)"><path
             d="M 0,0 C 8.332,-7.25 18.082,-25.75 19.082,-41.25"
             style="fill:none;stroke:#231f20;stroke-width:0.3;stroke-linecap:butt;stroke-linejoin:miter;stroke-miterlimit:10;stroke-dasharray:none;stroke-opacity:1"
             id="path576" /></g><g
           id="g578"
           transform="translate(373.5254,629.2383)"><path
             d="M 0,0 -1.215,3.536 2.455,2.821 Z"
             style="fill:#231f20;fill-opacity:1;fill-rule:nonzero;stroke:none"
             id="path580" /></g><g
           id="g582"><g
             id="g584" /><g
             id="g596"><g
               clip-path="url(#clipPath588)"
               id="g594"><g
                 transform="translate(293.6665,607)"
                 id="g592"><path
                   d="m 0,0 v 13.711 l -1,0.534 V 0 c 0,-0.827 -0.673,-1.5 -1.5,-1.5 h -101.585 l -3.627,-1 H -2.5 C -1.121,-2.5 0,-1.378 0,0"
                   style="fill:#d3d2d2;fill-opacity:1;fill-rule:nonzero;stroke:none"
                   id="path590" /></g></g></g></g></g></g></g></svg>
