<?xml version="1.0" encoding="UTF-8" standalone="no"?>
<svg
   xmlns:dc="http://purl.org/dc/elements/1.1/"
   xmlns:cc="http://creativecommons.org/ns#"
   xmlns:rdf="http://www.w3.org/1999/02/22-rdf-syntax-ns#"
   xmlns:svg="http://www.w3.org/2000/svg"
   xmlns="http://www.w3.org/2000/svg"
   xmlns:sodipodi="http://sodipodi.sourceforge.net/DTD/sodipodi-0.dtd"
   xmlns:inkscape="http://www.inkscape.org/namespaces/inkscape"
   viewBox="0 0 23.307269 30.086607"
   height="50.144344"
   width="38.845448"
   xml:space="preserve"
   id="svg2"
   version="1.1"
   sodipodi:docname="bulb6-trimmed.svg"
   inkscape:version="0.92.1 r15371"><sodipodi:namedview
     pagecolor="#ffffff"
     bordercolor="#666666"
     borderopacity="1"
     objecttolerance="10"
     gridtolerance="10"
     guidetolerance="10"
     inkscape:pageopacity="0"
     inkscape:pageshadow="2"
     inkscape:window-width="1844"
     inkscape:window-height="1047"
     id="namedview42"
     showgrid="false"
     inkscape:zoom="10.595378"
     inkscape:cx="4.6488219"
     inkscape:cy="25.431502"
     inkscape:window-x="0"
     inkscape:window-y="27"
     inkscape:window-maximized="0"
     inkscape:current-layer="svg2"
     scale-x="0.6"
     fit-margin-top="0"
     fit-margin-left="0"
     fit-margin-right="0"
     fit-margin-bottom="0" /><metadata
     id="metadata8"><rdf:RDF><cc:Work
         rdf:about=""><dc:format>image/svg+xml</dc:format><dc:type
           rdf:resource="http://purl.org/dc/dcmitype/StillImage" /><dc:title></dc:title></cc:Work></rdf:RDF></metadata><defs
     id="defs6"><clipPath
       id="clipPath18"
       clipPathUnits="userSpaceOnUse"><path
         id="path16"
         d="M 0,756 H 636 V 0 H 0 Z"
         inkscape:connector-curvature="0" /></clipPath></defs><g
     transform="matrix(1.1232015,0,0,-1.1232015,-345.52465,439.86289)"
     id="g10"><g
       id="g12"><g
         clip-path="url(#clipPath18)"
         id="g14"><g
           transform="translate(322.5117,376.9775)"
           id="g20"><path
             id="path22"
             style="fill:#434345;fill-opacity:1;fill-rule:nonzero;stroke:none"
             d="M 0,0 C -0.991,-1.434 -1.322,-2.279 -1.483,-3.768 -1.633,-5.182 -1.848,-5.98 -4.512,-5.98 h -0.035 c -2.664,0 -2.879,0.798 -3.032,2.212 -0.158,1.489 -0.491,2.334 -1.482,3.768 -0.97,1.404 -1.423,2.716 -1.423,4.128 0,3.283 2.672,5.953 5.954,5.953 3.282,0 5.953,-2.67 5.953,-5.953 C 1.423,2.716 0.971,1.405 0,0 m -4.53,10.921 c -3.746,0 -6.794,-3.047 -6.794,-6.793 0,-1.591 0.5,-3.055 1.574,-4.606 0.906,-1.312 1.194,-2.039 1.335,-3.38 0.212,-1.964 0.869,-2.963 3.868,-2.963 h 0.035 c 2.999,0 3.656,0.999 3.866,2.963 0.142,1.342 0.429,2.07 1.337,3.38 1.072,1.554 1.572,3.017 1.572,4.606 0,3.746 -3.047,6.793 -6.793,6.793"
             inkscape:connector-curvature="0" /></g><g
           transform="translate(317.9819,387.0586)"
           id="g24"><path
             id="path26"
             style="fill:#98c6e1;fill-opacity:1;fill-rule:nonzero;stroke:none"
             d="m 0,0 c -3.282,0 -5.954,-2.67 -5.954,-5.953 0,-1.412 0.453,-2.724 1.423,-4.128 0.991,-1.434 1.324,-2.279 1.482,-3.768 0.153,-1.414 0.367,-2.213 3.031,-2.213 h 0.036 c 2.664,0 2.879,0.799 3.028,2.213 0.162,1.489 0.493,2.334 1.484,3.768 0.97,1.405 1.423,2.716 1.423,4.128 C 5.953,-2.67 3.282,0 0,0"
             inkscape:connector-curvature="0" /></g><g
           transform="translate(320.6777,370.6289)"
           id="g28"><path
             id="path30"
             style="fill:#434345;fill-opacity:1;fill-rule:nonzero;stroke:none"
             d="m 0,0 c -0.041,0.146 -0.19,0.238 -0.354,0.229 -0.027,0 -0.056,-0.005 -0.084,-0.012 -0.736,-0.193 -1.766,-0.402 -2.756,-0.57 v 0.28 l -1.655,-0.085 v -0.439 c -0.07,-0.008 -0.148,-0.017 -0.214,-0.025 -0.201,-0.022 -0.351,-0.182 -0.341,-0.358 0.014,-0.176 0.171,-0.297 0.387,-0.28 1.343,0.142 3.474,0.529 4.746,0.86 C -0.078,-0.35 0.045,-0.169 0,0"
             inkscape:connector-curvature="0" /></g><g
           transform="translate(320.3242,368.6953)"
           id="g32"><path
             id="path34"
             style="fill:#434345;fill-opacity:1;fill-rule:nonzero;stroke:none"
             d="M 0,0 C 0.163,0.008 0.312,-0.084 0.354,-0.229 0.398,-0.4 0.275,-0.579 0.082,-0.63 c -1.271,-0.331 -3.403,-0.719 -4.746,-0.86 -0.215,-0.017 -0.373,0.104 -0.386,0.28 -0.01,0.176 0.139,0.337 0.341,0.358 1.311,0.139 3.386,0.516 4.624,0.838 C -0.057,-0.006 -0.027,-0.002 0,0"
             inkscape:connector-curvature="0" /></g><g
           transform="translate(320.3242,369.7773)"
           id="g36"><path
             id="path38"
             style="fill:#434345;fill-opacity:1;fill-rule:nonzero;stroke:none"
             d="M 0,0 C 0.163,0.008 0.312,-0.084 0.354,-0.229 0.398,-0.4 0.275,-0.579 0.082,-0.63 c -1.271,-0.332 -3.403,-0.72 -4.746,-0.861 -0.215,-0.017 -0.373,0.104 -0.386,0.28 -0.01,0.178 0.139,0.337 0.341,0.358 1.311,0.14 3.386,0.516 4.624,0.84 C -0.057,-0.006 -0.027,-0.001 0,0"
             inkscape:connector-curvature="0" /></g><g
           transform="translate(320.3242,367.6143)"
           id="g40"><path
             id="path42"
             style="fill:#434345;fill-opacity:1;fill-rule:nonzero;stroke:none"
             d="M 0,0 C 0.163,0.008 0.312,-0.084 0.354,-0.229 0.398,-0.4 0.275,-0.579 0.082,-0.63 c -1.271,-0.332 -3.403,-0.72 -4.746,-0.861 -0.215,-0.017 -0.373,0.104 -0.386,0.279 -0.01,0.178 0.139,0.338 0.341,0.359 1.311,0.14 3.386,0.516 4.624,0.838 C -0.057,-0.007 -0.027,-0.002 0,0"
             inkscape:connector-curvature="0" /></g><g
           transform="translate(318.0015,364.8311)"
           id="g44"><path
             id="path46"
             style="fill:#434345;fill-opacity:1;fill-rule:nonzero;stroke:none"
             d="M 0,0 C 0.847,0.043 1.565,0.673 1.852,1.519 1.848,1.518 1.845,1.517 1.841,1.517 0.8,1.276 -0.547,1.031 -1.64,0.881 -1.281,0.316 -0.682,-0.034 0,0"
             inkscape:connector-curvature="0" /></g><g
           transform="translate(314.3999,379.8418)"
           id="g48"><path
             id="path50"
             style="fill:#000000;fill-opacity:1;fill-rule:nonzero;stroke:none"
             d="M 0,0 C -0.083,0.297 -0.062,0.65 0.246,0.753 0.315,0.777 0.379,0.79 0.437,0.79 0.523,0.79 0.601,0.765 0.674,0.718 1.049,0.471 1.27,-0.363 1.408,-1.264 0.604,-1.072 0.132,-0.471 0,0 M 2.948,0.5 C 2.998,0.947 3.264,1.296 3.555,1.296 3.844,1.296 4.112,0.947 4.162,0.5 4.211,0.057 4.05,-0.45 3.555,-0.824 3.061,-0.45 2.898,0.057 2.948,0.5 M 6.436,0.718 C 6.508,0.765 6.586,0.79 6.67,0.79 6.731,0.79 6.793,0.777 6.864,0.753 7.172,0.65 7.194,0.297 7.11,0 6.977,-0.471 6.507,-1.073 5.702,-1.264 5.839,-0.363 6.061,0.471 6.436,0.718 M 1.932,-2.589 c -0.03,0.323 -0.061,0.622 -0.094,0.898 0.259,-0.012 0.537,0.015 0.838,0.084 0.35,0.079 0.638,0.199 0.879,0.341 0.24,-0.142 0.527,-0.262 0.877,-0.341 C 4.735,-1.676 5.014,-1.703 5.27,-1.691 5.237,-1.967 5.207,-2.266 5.176,-2.589 5.031,-4.243 4.904,-7.093 4.837,-8.761 c 0.135,0.022 0.258,0.046 0.372,0.075 0.064,1.625 0.188,4.415 0.334,6.064 0.027,0.305 0.061,0.637 0.102,0.97 1.041,0.187 1.65,0.958 1.817,1.552 C 7.621,0.469 7.428,0.953 6.979,1.103 6.704,1.194 6.454,1.169 6.235,1.024 5.799,0.74 5.519,0.035 5.321,-1.319 5.077,-1.337 4.807,-1.315 4.514,-1.249 4.27,-1.193 4.069,-1.115 3.889,-1.026 4.416,-0.567 4.582,0.039 4.525,0.541 4.453,1.191 4.045,1.663 3.555,1.663 3.064,1.663 2.656,1.191 2.582,0.541 2.526,0.039 2.693,-0.567 3.221,-1.026 3.041,-1.115 2.839,-1.193 2.596,-1.249 2.303,-1.315 2.034,-1.337 1.788,-1.319 1.592,0.035 1.311,0.74 0.875,1.024 0.656,1.169 0.406,1.194 0.131,1.103 -0.318,0.953 -0.512,0.469 -0.355,-0.1 -0.187,-0.694 0.424,-1.465 1.463,-1.652 1.506,-1.985 1.539,-2.317 1.565,-2.622 1.712,-4.27 1.836,-7.048 1.9,-8.669 2.011,-8.7 2.132,-8.727 2.262,-8.748 2.198,-7.084 2.078,-4.241 1.932,-2.589"
             inkscape:connector-curvature="0" /></g><g
           transform="translate(314.1997,383.9736)"
           id="g52"><path
             id="path54"
             style="fill:#ffffff;fill-opacity:1;fill-rule:nonzero;stroke:none"
             d="M 0,0 C -0.056,0 -0.11,0.019 -0.155,0.057 -0.257,0.143 -0.269,0.294 -0.183,0.395 0.313,0.98 0.913,1.448 1.599,1.786 1.718,1.845 1.86,1.795 1.919,1.677 1.978,1.558 1.93,1.414 1.812,1.355 1.185,1.047 0.638,0.619 0.183,0.084 0.136,0.029 0.067,0 0,0"
             inkscape:connector-curvature="0" /></g><g
           transform="translate(317.9995,388.5483)"
           id="g56"><path
             id="path58"
             style="fill:#98c6e1;fill-opacity:1;fill-rule:nonzero;stroke:none"
             d="m 0,0 c -0.133,0 -0.24,0.108 -0.24,0.24 v 2.587 c 0,0.132 0.107,0.24 0.24,0.24 0.133,0 0.239,-0.108 0.239,-0.24 V 0.24 C 0.239,0.108 0.133,0 0,0"
             inkscape:connector-curvature="0" /></g><g
           transform="translate(313.0444,386.7656)"
           id="g60"><path
             id="path62"
             style="fill:#98c6e1;fill-opacity:1;fill-rule:nonzero;stroke:none"
             d="M 0,0 C -0.066,0 -0.135,0.029 -0.182,0.085 L -1.854,2.06 c -0.084,0.101 -0.072,0.252 0.029,0.338 0.1,0.085 0.253,0.073 0.339,-0.028 L 0.184,0.396 C 0.27,0.294 0.257,0.143 0.156,0.057 0.111,0.019 0.057,0 0,0"
             inkscape:connector-curvature="0" /></g><g
           transform="translate(310.4155,382.2046)"
           id="g64"><path
             id="path66"
             style="fill:#98c6e1;fill-opacity:1;fill-rule:nonzero;stroke:none"
             d="M 0,0 C -0.013,0 -0.027,0 -0.039,0.003 L -2.591,0.43 c -0.132,0.022 -0.219,0.146 -0.196,0.277 0.021,0.13 0.144,0.221 0.275,0.196 L 0.039,0.477 C 0.17,0.455 0.26,0.331 0.237,0.2 0.217,0.083 0.115,0 0,0"
             inkscape:connector-curvature="0" /></g><g
           transform="translate(309.1323,375.7021)"
           id="g68"><path
             id="path70"
             style="fill:#98c6e1;fill-opacity:1;fill-rule:nonzero;stroke:none"
             d="m 0,0 c -0.081,0 -0.16,0.042 -0.206,0.116 -0.067,0.114 -0.03,0.261 0.085,0.329 L 2.102,1.768 C 2.215,1.835 2.363,1.798 2.431,1.685 2.498,1.571 2.461,1.423 2.348,1.356 L 0.123,0.033 C 0.084,0.01 0.043,0 0,0"
             inkscape:connector-curvature="0" /></g><g
           transform="translate(322.9531,386.7656)"
           id="g72"><path
             id="path74"
             style="fill:#98c6e1;fill-opacity:1;fill-rule:nonzero;stroke:none"
             d="M 0,0 C -0.055,0 -0.109,0.019 -0.154,0.057 -0.256,0.143 -0.269,0.294 -0.183,0.396 L 1.488,2.37 C 1.575,2.471 1.726,2.483 1.825,2.398 1.928,2.312 1.941,2.161 1.854,2.06 L 0.184,0.085 C 0.137,0.029 0.067,0 0,0"
             inkscape:connector-curvature="0" /></g><g
           transform="translate(325.583,382.2046)"
           id="g76"><path
             id="path78"
             style="fill:#98c6e1;fill-opacity:1;fill-rule:nonzero;stroke:none"
             d="m 0,0 c -0.117,0 -0.217,0.083 -0.235,0.2 -0.024,0.131 0.064,0.255 0.196,0.277 L 2.513,0.903 C 2.642,0.927 2.766,0.837 2.789,0.707 2.812,0.576 2.721,0.452 2.591,0.43 L 0.04,0.003 C 0.026,0 0.015,0 0,0"
             inkscape:connector-curvature="0" /></g><g
           transform="translate(326.8652,375.7021)"
           id="g80"><path
             id="path82"
             style="fill:#98c6e1;fill-opacity:1;fill-rule:nonzero;stroke:none"
             d="m 0,0 c -0.041,0 -0.084,0.01 -0.121,0.033 l -2.225,1.323 c -0.116,0.067 -0.15,0.215 -0.084,0.329 0.069,0.114 0.217,0.15 0.328,0.083 L 0.122,0.445 C 0.238,0.377 0.273,0.23 0.207,0.116 0.162,0.042 0.082,0 0,0"
             inkscape:connector-curvature="0" /></g></g></g></g></svg>