<?xml version="1.0" encoding="UTF-8" standalone="no"?>
<svg
   xmlns:dc="http://purl.org/dc/elements/1.1/"
   xmlns:cc="http://creativecommons.org/ns#"
   xmlns:rdf="http://www.w3.org/1999/02/22-rdf-syntax-ns#"
   xmlns:svg="http://www.w3.org/2000/svg"
   xmlns="http://www.w3.org/2000/svg"
   xmlns:sodipodi="http://sodipodi.sourceforge.net/DTD/sodipodi-0.dtd"
   xmlns:inkscape="http://www.inkscape.org/namespaces/inkscape"
   version="1.1"
   id="svg2"
   xml:space="preserve"
   width="325.11938"
   height="154.61066"
   viewBox="0 0 325.11938 154.61066"
   sodipodi:docname="04-19.ai"><metadata
     id="metadata8"><rdf:RDF><cc:Work
         rdf:about=""><dc:format>image/svg+xml</dc:format><dc:type
           rdf:resource="http://purl.org/dc/dcmitype/StillImage" /></cc:Work></rdf:RDF></metadata><defs
     id="defs6"><clipPath
       clipPathUnits="userSpaceOnUse"
       id="clipPath18"><path
         d="M 0,792 H 612 V 0 H 0 Z"
         id="path16" /></clipPath><linearGradient
       x1="0"
       y1="0"
       x2="1"
       y2="0"
       gradientUnits="userSpaceOnUse"
       gradientTransform="matrix(50.910156,0,0,-50.910156,331.00977,612.64551)"
       spreadMethod="pad"
       id="linearGradient298"><stop
         style="stop-opacity:1;stop-color:#5ec45b"
         offset="0"
         id="stop294" /><stop
         style="stop-opacity:1;stop-color:#dbf1cb"
         offset="1"
         id="stop296" /></linearGradient><linearGradient
       x1="0"
       y1="0"
       x2="1"
       y2="0"
       gradientUnits="userSpaceOnUse"
       gradientTransform="matrix(48.576172,0,0,-48.576172,331.91797,612.64502)"
       spreadMethod="pad"
       id="linearGradient318"><stop
         style="stop-opacity:1;stop-color:#dbf1cb"
         offset="0"
         id="stop314" /><stop
         style="stop-opacity:1;stop-color:#5ec45b"
         offset="1"
         id="stop316" /></linearGradient><clipPath
       clipPathUnits="userSpaceOnUse"
       id="clipPath328"><path
         d="M 0,792 H 612 V 0 H 0 Z"
         id="path326" /></clipPath><linearGradient
       x1="0"
       y1="0"
       x2="1"
       y2="0"
       gradientUnits="userSpaceOnUse"
       gradientTransform="matrix(50.90918,0,0,-50.90918,258.05566,590.54687)"
       spreadMethod="pad"
       id="linearGradient366"><stop
         style="stop-opacity:1;stop-color:#5ec45b"
         offset="0"
         id="stop362" /><stop
         style="stop-opacity:1;stop-color:#dbf1cb"
         offset="1"
         id="stop364" /></linearGradient><linearGradient
       x1="0"
       y1="0"
       x2="1"
       y2="0"
       gradientUnits="userSpaceOnUse"
       gradientTransform="matrix(48.57666,0,0,-48.57666,258.96436,590.54687)"
       spreadMethod="pad"
       id="linearGradient386"><stop
         style="stop-opacity:1;stop-color:#dbf1cb"
         offset="0"
         id="stop382" /><stop
         style="stop-opacity:1;stop-color:#5ec45b"
         offset="1"
         id="stop384" /></linearGradient><clipPath
       clipPathUnits="userSpaceOnUse"
       id="clipPath396"><path
         d="M 0,792 H 612 V 0 H 0 Z"
         id="path394" /></clipPath><linearGradient
       x1="0"
       y1="0"
       x2="1"
       y2="0"
       gradientUnits="userSpaceOnUse"
       gradientTransform="matrix(50.910156,0,0,-50.910156,258.05957,545.92773)"
       spreadMethod="pad"
       id="linearGradient460"><stop
         style="stop-opacity:1;stop-color:#ed1c24"
         offset="0"
         id="stop454" /><stop
         style="stop-opacity:1;stop-color:#fbc7a7"
         offset="0.58054141"
         id="stop456" /><stop
         style="stop-opacity:1;stop-color:#fbc7a7"
         offset="1"
         id="stop458" /></linearGradient><linearGradient
       x1="0"
       y1="0"
       x2="1"
       y2="0"
       gradientUnits="userSpaceOnUse"
       gradientTransform="matrix(48.583008,0,0,-48.583008,258.9668,545.92725)"
       spreadMethod="pad"
       id="linearGradient480"><stop
         style="stop-opacity:1;stop-color:#fbc7a7"
         offset="0"
         id="stop476" /><stop
         style="stop-opacity:1;stop-color:#ed1c24"
         offset="1"
         id="stop478" /></linearGradient><clipPath
       clipPathUnits="userSpaceOnUse"
       id="clipPath490"><path
         d="M 0,792 H 612 V 0 H 0 Z"
         id="path488" /></clipPath><linearGradient
       x1="0"
       y1="0"
       x2="1"
       y2="0"
       gradientUnits="userSpaceOnUse"
       gradientTransform="matrix(50.910156,0,0,-50.910156,190.72559,588.96826)"
       spreadMethod="pad"
       id="linearGradient530"><stop
         style="stop-opacity:1;stop-color:#ed1c24"
         offset="0"
         id="stop524" /><stop
         style="stop-opacity:1;stop-color:#fbc7a7"
         offset="0.58054141"
         id="stop526" /><stop
         style="stop-opacity:1;stop-color:#fbc7a7"
         offset="1"
         id="stop528" /></linearGradient><linearGradient
       x1="0"
       y1="0"
       x2="1"
       y2="0"
       gradientUnits="userSpaceOnUse"
       gradientTransform="matrix(48.583008,0,0,-48.583008,191.63281,588.96777)"
       spreadMethod="pad"
       id="linearGradient550"><stop
         style="stop-opacity:1;stop-color:#fbc7a7"
         offset="0"
         id="stop546" /><stop
         style="stop-opacity:1;stop-color:#ed1c24"
         offset="1"
         id="stop548" /></linearGradient><clipPath
       clipPathUnits="userSpaceOnUse"
       id="clipPath560"><path
         d="M 0,792 H 612 V 0 H 0 Z"
         id="path558" /></clipPath></defs><sodipodi:namedview
     pagecolor="#ffffff"
     bordercolor="#666666"
     borderopacity="1"
     objecttolerance="10"
     gridtolerance="10"
     guidetolerance="10"
     inkscape:pageopacity="0"
     inkscape:pageshadow="2"
     inkscape:window-width="640"
     inkscape:window-height="480"
     id="namedview4" /><g
     id="g10"
     inkscape:groupmode="layer"
     inkscape:label="04-19"
     transform="matrix(1.3333333,0,0,-1.3333333,-241.50641,861.66731)"><g
       id="g12"><g
         id="g14"
         clip-path="url(#clipPath18)"><g
           id="g20"
           transform="translate(323.668,615.4375)"><path
             d="m 0,0 c 0.987,0.054 1.215,0.116 2.25,0.272 5.984,0.9 8.594,3.403 10.582,4.935 2.225,1.707 4.141,3.179 11.434,3.671 l -4.825,3.815 C 10.232,12.072 7.508,9.976 5.102,8.125 3.933,7.231 2.869,6.414 1.1,5.758 L 1.666,4.383 0.75,3.747 -0.584,3.464 -0.167,1.979 Z"
             style="fill:#f8a45c;fill-opacity:1;fill-rule:nonzero;stroke:none"
             id="path22" /></g><g
           id="g24"
           transform="translate(323.668,615.4375)"><path
             d="m 0,0 c 0.987,0.054 1.215,0.116 2.25,0.272 5.984,0.9 8.594,3.403 10.582,4.935 2.225,1.707 4.141,3.179 11.434,3.671 l -4.825,3.815 C 10.232,12.072 7.508,9.976 5.102,8.125 3.933,7.231 2.869,6.414 1.1,5.758 L 1.666,4.383 0.75,3.747 -0.584,3.464 -0.167,1.979 Z"
             style="fill:none;stroke:#231f20;stroke-width:0.3;stroke-linecap:butt;stroke-linejoin:miter;stroke-miterlimit:4;stroke-dasharray:none;stroke-opacity:1"
             id="path26" /></g><g
           id="g28"
           transform="translate(322.5703,612.2891)"><path
             d="m 0,0 c 4.242,-0.896 8.969,-1.602 14.375,-0.79 5.986,0.903 8.242,2.636 10.232,4.164 2.223,1.71 4.143,3.181 11.442,3.676 l -4.49,4.581 C 22.361,11.015 19.633,8.918 17.225,7.065 15.367,5.64 13.77,4.411 9.168,3.717 5.983,3.236 3.407,3.462 0.574,4 c 0,0 -0.726,0.068 -1.31,0.492 C -0.902,3.926 -0.318,3.078 0.098,2.724 L 0.264,1.947 -0.569,1.805 Z"
             style="fill:#f8a45c;fill-opacity:1;fill-rule:nonzero;stroke:none"
             id="path30" /></g><g
           id="g32"
           transform="translate(322.5703,612.2891)"><path
             d="m 0,0 c 4.242,-0.896 8.969,-1.602 14.375,-0.79 5.986,0.903 8.242,2.636 10.232,4.164 2.223,1.71 4.143,3.181 11.442,3.676 l -4.49,4.581 C 22.361,11.015 19.633,8.918 17.225,7.065 15.367,5.64 13.77,4.411 9.168,3.717 5.983,3.236 3.407,3.462 0.574,4 c 0,0 -0.726,0.068 -1.31,0.492 C -0.902,3.926 -0.318,3.078 0.098,2.724 L 0.264,1.947 -0.569,1.805 Z"
             style="fill:none;stroke:#231f20;stroke-width:0.3;stroke-linecap:butt;stroke-linejoin:miter;stroke-miterlimit:4;stroke-dasharray:none;stroke-opacity:1"
             id="path34" /></g><g
           id="g36"
           transform="translate(325.2773,606.5498)"><path
             d="m 0,0 c 3.197,-0.399 6.654,-0.504 10.434,0.142 5.964,1.025 8.181,2.806 10.138,4.372 2.196,1.758 5.027,3.527 12.318,4.164 l -4.581,4.494 C 19.122,12.366 15.488,9.955 13.119,8.058 11.291,6.595 9.721,5.329 5.137,4.542 3.242,4.217 1.559,4.148 -0.094,4.246 L 1.381,2.508 0.484,1.571 Z"
             style="fill:#f8a45c;fill-opacity:1;fill-rule:nonzero;stroke:none"
             id="path38" /></g><g
           id="g40"
           transform="translate(325.2773,606.5498)"><path
             d="m 0,0 c 3.197,-0.399 6.654,-0.504 10.434,0.142 5.964,1.025 8.181,2.806 10.138,4.372 2.196,1.758 5.027,3.527 12.318,4.164 l -4.581,4.494 C 19.122,12.366 15.488,9.955 13.119,8.058 11.291,6.595 9.721,5.329 5.137,4.542 3.242,4.217 1.559,4.148 -0.094,4.246 L 1.381,2.508 0.484,1.571 Z"
             style="fill:none;stroke:#231f20;stroke-width:0.3;stroke-linecap:butt;stroke-linejoin:miter;stroke-miterlimit:4;stroke-dasharray:none;stroke-opacity:1"
             id="path42" /></g><g
           id="g44"
           transform="translate(322.7656,606.2656)"><path
             d="m 0,0 c 1.743,-0.456 3.388,-1.004 5.061,-1.563 4.677,-1.552 9.964,-3.317 16.677,-2.932 6.102,0.349 8.676,1.835 10.918,3.193 3.328,2.014 5.745,3.431 12.033,2.603 L 41.104,6.254 C 31.865,6.48 28.77,4.651 26.029,3.035 23.928,1.79 22.107,0.716 17.416,0.448 12.793,0.183 9.668,1.225 5.34,2.669 4.034,3.104 2.656,3.562 1.182,3.998 L 0.735,1.536 -1.182,1.465 c 0,0 0.114,-1.021 1.182,-1.465"
             style="fill:#f8a45c;fill-opacity:1;fill-rule:nonzero;stroke:none"
             id="path46" /></g><g
           id="g48"
           transform="translate(322.7656,606.2656)"><path
             d="m 0,0 c 1.743,-0.456 3.388,-1.004 5.061,-1.563 4.677,-1.552 9.964,-3.317 16.677,-2.932 6.102,0.349 8.676,1.835 10.918,3.193 3.328,2.014 5.745,3.431 12.033,2.603 L 41.104,6.254 C 31.865,6.48 28.77,4.651 26.029,3.035 23.928,1.79 22.107,0.716 17.416,0.448 12.793,0.183 9.668,1.225 5.34,2.669 4.034,3.104 2.656,3.562 1.182,3.998 L 0.735,1.536 -1.182,1.465 c 0,0 0.114,-1.021 1.182,-1.465 z"
             style="fill:none;stroke:#231f20;stroke-width:0.3;stroke-linecap:butt;stroke-linejoin:miter;stroke-miterlimit:4;stroke-dasharray:none;stroke-opacity:1"
             id="path50" /></g><g
           id="g52"
           transform="translate(323.5635,620.1904)"><path
             d="m 0,0 c 1.313,0.029 2.669,0.137 4.069,0.348 5.989,0.907 8.243,2.637 10.233,4.17 2.222,1.702 4.142,3.183 11.443,3.669 l -4.492,4.586 C 14.271,12.788 10.604,10.288 7.854,8.371 6.097,7.146 3.744,5.769 0.002,5.051 c 0,0 -0.814,-0.048 -1.398,0.094 0,0 0.834,-1.272 2,-1.414 L -0.813,2.812 -0.729,1.61 Z"
             style="fill:#f8a45c;fill-opacity:1;fill-rule:nonzero;stroke:none"
             id="path54" /></g><g
           id="g56"
           transform="translate(323.5635,620.1904)"><path
             d="m 0,0 c 1.313,0.029 2.669,0.137 4.069,0.348 5.989,0.907 8.243,2.637 10.233,4.17 2.222,1.702 4.142,3.183 11.443,3.669 l -4.492,4.586 C 14.271,12.788 10.604,10.288 7.854,8.371 6.097,7.146 3.744,5.769 0.002,5.051 c 0,0 -0.814,-0.048 -1.398,0.094 0,0 0.834,-1.272 2,-1.414 L -0.813,2.812 -0.729,1.61 Z"
             style="fill:none;stroke:#231f20;stroke-width:0.3;stroke-linecap:butt;stroke-linejoin:miter;stroke-miterlimit:4;stroke-dasharray:none;stroke-opacity:1"
             id="path58" /></g><g
           id="g60"
           transform="translate(348.7578,617.335)"><path
             d="m 0,0 c -1.469,-0.104 -5.221,-0.708 -5.221,-0.708 l -2.873,-3.283 4.045,1.994 6.289,0.614 z"
             style="fill:#96cd56;fill-opacity:1;fill-rule:nonzero;stroke:none"
             id="path62" /></g><g
           id="g64"
           transform="translate(351.7441,609.2686)"><path
             d="m 0,0 -2.67,-2.356 -6.082,-1.339 3.406,-1.017 5.008,1.435 z"
             style="fill:#f9aeca;fill-opacity:1;fill-rule:nonzero;stroke:none"
             id="path66" /></g><g
           id="g68"
           transform="translate(333.998,626.2314)"><path
             d="m 0,0 -4.154,-0.804 -4.909,-2.629 6.741,1.043 z"
             style="fill:#231f20;fill-opacity:1;fill-rule:evenodd;stroke:none"
             id="path70" /></g><g
           id="g72"
           transform="translate(339.3027,612.0488)"><path
             d="m 0,0 -5.467,-1.868 -0.599,-1.126 5.265,0.94 z"
             style="fill:#f9aeca;fill-opacity:1;fill-rule:evenodd;stroke:none"
             id="path74" /></g><g
           id="g76"
           transform="translate(343.9688,625.9482)"><path
             d="m 0,0 -5.467,-1.868 -0.6,-1.126 5.265,0.94 z"
             style="fill:#f9aeca;fill-opacity:1;fill-rule:evenodd;stroke:none"
             id="path78" /></g><g
           id="g80"
           transform="translate(360.9746,610.5693)"><path
             d="m 0,0 -6.123,-1.571 -0.449,-2.085 5.068,1.668 z"
             style="fill:#231f20;fill-opacity:1;fill-rule:evenodd;stroke:none"
             id="path82" /></g><g
           id="g84"
           transform="translate(331.3086,618.208)"><path
             d="m 0,0 -7.512,0.444 4.063,-1.308 z"
             style="fill:#96cd56;fill-opacity:1;fill-rule:evenodd;stroke:none"
             id="path86" /></g><g
           id="g88"
           transform="translate(334.0596,605.5757)"><path
             d="m 0,0 -6.738,1.736 c 0,0 3.258,-2.06 4.199,-2.48 0.949,-0.417 6.926,-1.287 6.926,-1.287 z"
             style="fill:#96cd56;fill-opacity:1;fill-rule:evenodd;stroke:none"
             id="path90" /></g><g
           id="g92"
           transform="translate(342.5918,630.8828)"><path
             d="m 0,0 -6.938,-1.969 c 0,0 -2.775,-2.818 -1.656,-2.682 1.115,0.134 5.922,2.297 5.922,2.297 z"
             style="fill:#96cd56;fill-opacity:1;fill-rule:evenodd;stroke:none"
             id="path94" /></g><text
           transform="matrix(1,0,0,-1,326.9204,550.6611)"
           style="font-variant:normal;font-weight:bold;font-stretch:condensed;font-size:9px;font-family:'Humanst521 Cn BT';-inkscape-font-specification:Humanist521BT-BoldCondensed;writing-mode:lr-tb;fill:#231f20;fill-opacity:1;fill-rule:nonzero;stroke:none"
           id="text100"><tspan
             x="0 4.6259999 9.1079998 13.617 15.777 17.91 21.51 23.813999 28.773001 32.733002"
             y="0"
             sodipodi:role="line"
             id="tspan96">Public Key</tspan><tspan
             x="0 4.0500002 8.559 10.719 14.679 16.812 19.809 24.318001 28.368"
             y="9.5039997"
             sodipodi:role="line"
             id="tspan98">ableitbar</tspan></text><g
           id="g102"
           transform="translate(259.8335,530.5425)"><path
             d="M 0,0 H -6.333 V 115.458 H 0"
             style="fill:none;stroke:#231f20;stroke-width:0.5;stroke-linecap:butt;stroke-linejoin:miter;stroke-miterlimit:4;stroke-dasharray:none;stroke-opacity:1"
             id="path104" /></g><g
           id="g106"
           transform="translate(241.6313,590.5479)"><path
             d="M 0,0 H 11.869"
             style="fill:none;stroke:#231f20;stroke-width:0.5;stroke-linecap:butt;stroke-linejoin:miter;stroke-miterlimit:4;stroke-dasharray:none;stroke-opacity:1"
             id="path108" /></g><g
           id="g110"
           transform="translate(183.3799,591.7622)"><path
             d="m 0,0 c 0.987,0.054 1.215,0.116 2.25,0.272 5.985,0.9 8.594,3.403 10.583,4.935 2.223,1.707 4.139,3.179 11.433,3.671 l -4.824,3.815 C 10.233,12.072 7.508,9.976 5.101,8.125 3.933,7.231 2.869,6.414 1.1,5.758 L 1.667,4.383 0.75,3.747 -0.583,3.464 -0.167,1.979 Z"
             style="fill:#f8a45c;fill-opacity:1;fill-rule:nonzero;stroke:none"
             id="path112" /></g><g
           id="g114"
           transform="translate(183.3799,591.7622)"><path
             d="m 0,0 c 0.987,0.054 1.215,0.116 2.25,0.272 5.985,0.9 8.594,3.403 10.583,4.935 2.223,1.707 4.139,3.179 11.433,3.671 l -4.824,3.815 C 10.233,12.072 7.508,9.976 5.101,8.125 3.933,7.231 2.869,6.414 1.1,5.758 L 1.667,4.383 0.75,3.747 -0.583,3.464 -0.167,1.979 Z"
             style="fill:none;stroke:#231f20;stroke-width:0.3;stroke-linecap:butt;stroke-linejoin:miter;stroke-miterlimit:4;stroke-dasharray:none;stroke-opacity:1"
             id="path116" /></g><g
           id="g118"
           transform="translate(182.2827,588.6138)"><path
             d="m 0,0 c 4.242,-0.896 8.968,-1.602 14.374,-0.79 5.987,0.903 8.242,2.636 10.233,4.164 2.222,1.71 4.143,3.181 11.441,3.676 l -4.49,4.581 C 22.361,11.015 19.633,8.918 17.225,7.065 15.366,5.64 13.769,4.411 9.168,3.717 5.983,3.236 3.407,3.462 0.573,4 0.573,4 -0.153,4.068 -0.736,4.492 -0.903,3.926 -0.319,3.078 0.097,2.724 L 0.264,1.947 -0.57,1.805 Z"
             style="fill:#f8a45c;fill-opacity:1;fill-rule:nonzero;stroke:none"
             id="path120" /></g><g
           id="g122"
           transform="translate(182.2827,588.6138)"><path
             d="m 0,0 c 4.242,-0.896 8.968,-1.602 14.374,-0.79 5.987,0.903 8.242,2.636 10.233,4.164 2.222,1.71 4.143,3.181 11.441,3.676 l -4.49,4.581 C 22.361,11.015 19.633,8.918 17.225,7.065 15.366,5.64 13.769,4.411 9.168,3.717 5.983,3.236 3.407,3.462 0.573,4 0.573,4 -0.153,4.068 -0.736,4.492 -0.903,3.926 -0.319,3.078 0.097,2.724 L 0.264,1.947 -0.57,1.805 Z"
             style="fill:none;stroke:#231f20;stroke-width:0.3;stroke-linecap:butt;stroke-linejoin:miter;stroke-miterlimit:4;stroke-dasharray:none;stroke-opacity:1"
             id="path124" /></g><g
           id="g126"
           transform="translate(184.9888,582.8745)"><path
             d="m 0,0 c 3.197,-0.399 6.655,-0.504 10.434,0.142 5.964,1.025 8.182,2.806 10.138,4.372 2.196,1.758 5.027,3.527 12.318,4.164 l -4.581,4.494 C 19.123,12.366 15.489,9.955 13.119,8.058 11.291,6.595 9.722,5.329 5.137,4.542 3.243,4.217 1.56,4.148 -0.094,4.246 L 1.382,2.508 0.484,1.571 Z"
             style="fill:#f8a45c;fill-opacity:1;fill-rule:nonzero;stroke:none"
             id="path128" /></g><g
           id="g130"
           transform="translate(184.9888,582.8745)"><path
             d="m 0,0 c 3.197,-0.399 6.655,-0.504 10.434,0.142 5.964,1.025 8.182,2.806 10.138,4.372 2.196,1.758 5.027,3.527 12.318,4.164 l -4.581,4.494 C 19.123,12.366 15.489,9.955 13.119,8.058 11.291,6.595 9.722,5.329 5.137,4.542 3.243,4.217 1.56,4.148 -0.094,4.246 L 1.382,2.508 0.484,1.571 Z"
             style="fill:none;stroke:#231f20;stroke-width:0.3;stroke-linecap:butt;stroke-linejoin:miter;stroke-miterlimit:4;stroke-dasharray:none;stroke-opacity:1"
             id="path132" /></g><g
           id="g134"
           transform="translate(182.4775,582.5903)"><path
             d="m 0,0 c 1.743,-0.456 3.388,-1.004 5.061,-1.563 4.678,-1.552 9.965,-3.317 16.677,-2.932 6.102,0.349 8.676,1.835 10.918,3.193 3.329,2.014 5.745,3.431 12.033,2.603 L 41.104,6.254 C 31.865,6.48 28.769,4.651 26.03,3.035 23.928,1.79 22.108,0.716 17.417,0.448 12.793,0.183 9.667,1.225 5.34,2.669 4.034,3.104 2.656,3.562 1.182,3.998 L 0.735,1.536 -1.181,1.465 c 0,0 0.112,-1.021 1.181,-1.465"
             style="fill:#f8a45c;fill-opacity:1;fill-rule:nonzero;stroke:none"
             id="path136" /></g><g
           id="g138"
           transform="translate(182.4775,582.5903)"><path
             d="m 0,0 c 1.743,-0.456 3.388,-1.004 5.061,-1.563 4.678,-1.552 9.965,-3.317 16.677,-2.932 6.102,0.349 8.676,1.835 10.918,3.193 3.329,2.014 5.745,3.431 12.033,2.603 L 41.104,6.254 C 31.865,6.48 28.769,4.651 26.03,3.035 23.928,1.79 22.108,0.716 17.417,0.448 12.793,0.183 9.667,1.225 5.34,2.669 4.034,3.104 2.656,3.562 1.182,3.998 L 0.735,1.536 -1.181,1.465 c 0,0 0.112,-1.021 1.181,-1.465 z"
             style="fill:none;stroke:#231f20;stroke-width:0.3;stroke-linecap:butt;stroke-linejoin:miter;stroke-miterlimit:4;stroke-dasharray:none;stroke-opacity:1"
             id="path140" /></g><g
           id="g142"
           transform="translate(183.2754,596.5151)"><path
             d="m 0,0 c 1.313,0.029 2.668,0.137 4.07,0.348 5.988,0.907 8.242,2.637 10.231,4.17 2.224,1.702 4.144,3.183 11.444,3.669 l -4.492,4.586 C 14.271,12.788 10.604,10.288 7.854,8.371 6.097,7.146 3.744,5.769 0.002,5.051 c 0,0 -0.814,-0.048 -1.398,0.094 0,0 0.834,-1.272 2,-1.414 L -0.813,2.812 -0.729,1.61 Z"
             style="fill:#f8a45c;fill-opacity:1;fill-rule:nonzero;stroke:none"
             id="path144" /></g><g
           id="g146"
           transform="translate(183.2754,596.5151)"><path
             d="m 0,0 c 1.313,0.029 2.668,0.137 4.07,0.348 5.988,0.907 8.242,2.637 10.231,4.17 2.224,1.702 4.144,3.183 11.444,3.669 l -4.492,4.586 C 14.271,12.788 10.604,10.288 7.854,8.371 6.097,7.146 3.744,5.769 0.002,5.051 c 0,0 -0.814,-0.048 -1.398,0.094 0,0 0.834,-1.272 2,-1.414 L -0.813,2.812 -0.729,1.61 Z"
             style="fill:none;stroke:#231f20;stroke-width:0.3;stroke-linecap:butt;stroke-linejoin:miter;stroke-miterlimit:4;stroke-dasharray:none;stroke-opacity:1"
             id="path148" /></g><g
           id="g150"
           transform="translate(208.4692,593.6597)"><path
             d="m 0,0 c -1.468,-0.104 -5.221,-0.708 -5.221,-0.708 l -2.872,-3.283 4.045,1.994 6.289,0.614 z"
             style="fill:#96cd56;fill-opacity:1;fill-rule:nonzero;stroke:none"
             id="path152" /></g><g
           id="g154"
           transform="translate(211.4556,585.5933)"><path
             d="m 0,0 -2.67,-2.356 -6.082,-1.339 3.407,-1.017 5.008,1.435 z"
             style="fill:#f9aeca;fill-opacity:1;fill-rule:nonzero;stroke:none"
             id="path156" /></g><g
           id="g158"
           transform="translate(193.7095,602.5562)"><path
             d="m 0,0 -4.153,-0.804 -4.909,-2.629 6.741,1.043 z"
             style="fill:#231f20;fill-opacity:1;fill-rule:evenodd;stroke:none"
             id="path160" /></g><g
           id="g162"
           transform="translate(199.0151,588.3735)"><path
             d="m 0,0 -5.467,-1.868 -0.6,-1.126 5.265,0.94 z"
             style="fill:#f9aeca;fill-opacity:1;fill-rule:evenodd;stroke:none"
             id="path164" /></g><g
           id="g166"
           transform="translate(203.6807,602.2729)"><path
             d="m 0,0 -5.467,-1.868 -0.6,-1.126 5.265,0.94 z"
             style="fill:#f9aeca;fill-opacity:1;fill-rule:evenodd;stroke:none"
             id="path168" /></g><g
           id="g170"
           transform="translate(220.6865,586.894)"><path
             d="m 0,0 -6.123,-1.571 -0.449,-2.085 5.068,1.668 z"
             style="fill:#231f20;fill-opacity:1;fill-rule:evenodd;stroke:none"
             id="path172" /></g><g
           id="g174"
           transform="translate(191.021,594.5327)"><path
             d="m 0,0 -7.512,0.444 4.063,-1.308 z"
             style="fill:#96cd56;fill-opacity:1;fill-rule:evenodd;stroke:none"
             id="path176" /></g><g
           id="g178"
           transform="translate(193.7715,581.9004)"><path
             d="m 0,0 -6.738,1.736 c 0,0 3.258,-2.06 4.199,-2.48 0.949,-0.417 6.926,-1.287 6.926,-1.287 z"
             style="fill:#96cd56;fill-opacity:1;fill-rule:evenodd;stroke:none"
             id="path180" /></g><g
           id="g182"
           transform="translate(202.3042,607.2075)"><path
             d="m 0,0 -6.938,-1.969 c 0,0 -2.775,-2.818 -1.657,-2.682 1.116,0.134 5.923,2.297 5.923,2.297 z"
             style="fill:#96cd56;fill-opacity:1;fill-rule:evenodd;stroke:none"
             id="path184" /></g><g
           id="g186"
           transform="translate(259.499,625.333)"><path
             d="m 0,0 c 0.987,0.054 1.215,0.116 2.25,0.272 5.985,0.9 8.594,3.403 10.583,4.935 2.223,1.707 4.139,3.179 11.433,3.671 l -4.824,3.815 C 10.233,12.072 7.508,9.976 5.101,8.125 3.933,7.231 2.869,6.414 1.1,5.758 L 1.667,4.383 0.75,3.747 -0.583,3.464 -0.167,1.979 Z"
             style="fill:#f8a45c;fill-opacity:1;fill-rule:nonzero;stroke:none"
             id="path188" /></g><g
           id="g190"
           transform="translate(259.499,625.333)"><path
             d="m 0,0 c 0.987,0.054 1.215,0.116 2.25,0.272 5.985,0.9 8.594,3.403 10.583,4.935 2.223,1.707 4.139,3.179 11.433,3.671 l -4.824,3.815 C 10.233,12.072 7.508,9.976 5.101,8.125 3.933,7.231 2.869,6.414 1.1,5.758 L 1.667,4.383 0.75,3.747 -0.583,3.464 -0.167,1.979 Z"
             style="fill:none;stroke:#231f20;stroke-width:0.3;stroke-linecap:butt;stroke-linejoin:miter;stroke-miterlimit:4;stroke-dasharray:none;stroke-opacity:1"
             id="path192" /></g><g
           id="g194"
           transform="translate(258.4019,622.1846)"><path
             d="m 0,0 c 4.242,-0.896 8.968,-1.602 14.374,-0.79 5.987,0.903 8.242,2.636 10.233,4.164 2.222,1.71 4.143,3.181 11.441,3.676 l -4.49,4.581 C 22.361,11.015 19.633,8.918 17.225,7.065 15.366,5.64 13.769,4.411 9.168,3.717 5.983,3.236 3.407,3.462 0.573,4 0.573,4 -0.153,4.068 -0.736,4.492 -0.903,3.926 -0.319,3.078 0.097,2.724 L 0.264,1.947 -0.57,1.805 Z"
             style="fill:#f8a45c;fill-opacity:1;fill-rule:nonzero;stroke:none"
             id="path196" /></g><g
           id="g198"
           transform="translate(258.4019,622.1846)"><path
             d="m 0,0 c 4.242,-0.896 8.968,-1.602 14.374,-0.79 5.987,0.903 8.242,2.636 10.233,4.164 2.222,1.71 4.143,3.181 11.441,3.676 l -4.49,4.581 C 22.361,11.015 19.633,8.918 17.225,7.065 15.366,5.64 13.769,4.411 9.168,3.717 5.983,3.236 3.407,3.462 0.573,4 0.573,4 -0.153,4.068 -0.736,4.492 -0.903,3.926 -0.319,3.078 0.097,2.724 L 0.264,1.947 -0.57,1.805 Z"
             style="fill:none;stroke:#231f20;stroke-width:0.3;stroke-linecap:butt;stroke-linejoin:miter;stroke-miterlimit:4;stroke-dasharray:none;stroke-opacity:1"
             id="path200" /></g><g
           id="g202"
           transform="translate(261.1079,616.4453)"><path
             d="m 0,0 c 3.197,-0.399 6.655,-0.504 10.434,0.142 5.964,1.025 8.182,2.806 10.138,4.372 2.196,1.758 5.027,3.527 12.318,4.164 l -4.581,4.494 C 19.123,12.366 15.489,9.955 13.119,8.058 11.291,6.595 9.722,5.329 5.137,4.542 3.243,4.217 1.56,4.148 -0.094,4.246 L 1.382,2.508 0.484,1.571 Z"
             style="fill:#f8a45c;fill-opacity:1;fill-rule:nonzero;stroke:none"
             id="path204" /></g><g
           id="g206"
           transform="translate(261.1079,616.4453)"><path
             d="m 0,0 c 3.197,-0.399 6.655,-0.504 10.434,0.142 5.964,1.025 8.182,2.806 10.138,4.372 2.196,1.758 5.027,3.527 12.318,4.164 l -4.581,4.494 C 19.123,12.366 15.489,9.955 13.119,8.058 11.291,6.595 9.722,5.329 5.137,4.542 3.243,4.217 1.56,4.148 -0.094,4.246 L 1.382,2.508 0.484,1.571 Z"
             style="fill:none;stroke:#231f20;stroke-width:0.3;stroke-linecap:butt;stroke-linejoin:miter;stroke-miterlimit:4;stroke-dasharray:none;stroke-opacity:1"
             id="path208" /></g><g
           id="g210"
           transform="translate(258.5967,616.1611)"><path
             d="m 0,0 c 1.743,-0.456 3.388,-1.004 5.061,-1.563 4.678,-1.552 9.965,-3.317 16.677,-2.932 6.102,0.349 8.676,1.835 10.918,3.193 3.329,2.014 5.745,3.431 12.033,2.603 L 41.104,6.254 C 31.865,6.48 28.769,4.651 26.03,3.035 23.928,1.79 22.108,0.716 17.417,0.448 12.793,0.183 9.667,1.225 5.34,2.669 4.034,3.104 2.656,3.562 1.182,3.998 L 0.735,1.536 -1.181,1.465 c 0,0 0.112,-1.021 1.181,-1.465"
             style="fill:#f8a45c;fill-opacity:1;fill-rule:nonzero;stroke:none"
             id="path212" /></g><g
           id="g214"
           transform="translate(258.5967,616.1611)"><path
             d="m 0,0 c 1.743,-0.456 3.388,-1.004 5.061,-1.563 4.678,-1.552 9.965,-3.317 16.677,-2.932 6.102,0.349 8.676,1.835 10.918,3.193 3.329,2.014 5.745,3.431 12.033,2.603 L 41.104,6.254 C 31.865,6.48 28.769,4.651 26.03,3.035 23.928,1.79 22.108,0.716 17.417,0.448 12.793,0.183 9.667,1.225 5.34,2.669 4.034,3.104 2.656,3.562 1.182,3.998 L 0.735,1.536 -1.181,1.465 c 0,0 0.112,-1.021 1.181,-1.465 z"
             style="fill:none;stroke:#231f20;stroke-width:0.3;stroke-linecap:butt;stroke-linejoin:miter;stroke-miterlimit:4;stroke-dasharray:none;stroke-opacity:1"
             id="path216" /></g><g
           id="g218"
           transform="translate(259.3945,630.0859)"><path
             d="m 0,0 c 1.313,0.029 2.668,0.137 4.07,0.348 5.988,0.907 8.242,2.637 10.231,4.17 2.224,1.702 4.144,3.183 11.444,3.669 l -4.492,4.586 C 14.271,12.788 10.604,10.288 7.854,8.371 6.097,7.146 3.744,5.769 0.002,5.051 c 0,0 -0.814,-0.048 -1.398,0.094 0,0 0.834,-1.272 2,-1.414 L -0.813,2.812 -0.729,1.61 Z"
             style="fill:#f8a45c;fill-opacity:1;fill-rule:nonzero;stroke:none"
             id="path220" /></g><g
           id="g222"
           transform="translate(259.3945,630.0859)"><path
             d="m 0,0 c 1.313,0.029 2.668,0.137 4.07,0.348 5.988,0.907 8.242,2.637 10.231,4.17 2.224,1.702 4.144,3.183 11.444,3.669 l -4.492,4.586 C 14.271,12.788 10.604,10.288 7.854,8.371 6.097,7.146 3.744,5.769 0.002,5.051 c 0,0 -0.814,-0.048 -1.398,0.094 0,0 0.834,-1.272 2,-1.414 L -0.813,2.812 -0.729,1.61 Z"
             style="fill:none;stroke:#231f20;stroke-width:0.3;stroke-linecap:butt;stroke-linejoin:miter;stroke-miterlimit:4;stroke-dasharray:none;stroke-opacity:1"
             id="path224" /></g><g
           id="g226"
           transform="translate(284.5884,627.2305)"><path
             d="m 0,0 c -1.468,-0.104 -5.221,-0.708 -5.221,-0.708 l -2.872,-3.283 4.045,1.994 6.289,0.614 z"
             style="fill:#96cd56;fill-opacity:1;fill-rule:nonzero;stroke:none"
             id="path228" /></g><g
           id="g230"
           transform="translate(287.5747,619.1641)"><path
             d="m 0,0 -2.67,-2.356 -6.082,-1.339 3.407,-1.017 5.008,1.435 z"
             style="fill:#f9aeca;fill-opacity:1;fill-rule:nonzero;stroke:none"
             id="path232" /></g><g
           id="g234"
           transform="translate(269.8286,636.127)"><path
             d="m 0,0 -4.153,-0.804 -4.909,-2.629 6.741,1.043 z"
             style="fill:#231f20;fill-opacity:1;fill-rule:evenodd;stroke:none"
             id="path236" /></g><g
           id="g238"
           transform="translate(275.1343,621.9443)"><path
             d="m 0,0 -5.467,-1.868 -0.6,-1.126 5.265,0.94 z"
             style="fill:#f9aeca;fill-opacity:1;fill-rule:evenodd;stroke:none"
             id="path240" /></g><g
           id="g242"
           transform="translate(279.8662,636.3745)"><path
             d="m 0,0 -5.467,-1.868 -0.6,-1.126 5.265,0.94 z"
             style="fill:#f9aeca;fill-opacity:1;fill-rule:evenodd;stroke:none"
             id="path244" /></g><g
           id="g246"
           transform="translate(296.8057,620.4648)"><path
             d="m 0,0 -6.123,-1.571 -0.449,-2.085 5.068,1.668 z"
             style="fill:#231f20;fill-opacity:1;fill-rule:evenodd;stroke:none"
             id="path248" /></g><g
           id="g250"
           transform="translate(267.1401,628.1035)"><path
             d="m 0,0 -7.512,0.444 4.063,-1.308 z"
             style="fill:#96cd56;fill-opacity:1;fill-rule:evenodd;stroke:none"
             id="path252" /></g><g
           id="g254"
           transform="translate(269.8906,615.4712)"><path
             d="m 0,0 -6.738,1.736 c 0,0 3.258,-2.06 4.199,-2.48 0.949,-0.417 6.926,-1.287 6.926,-1.287 z"
             style="fill:#96cd56;fill-opacity:1;fill-rule:evenodd;stroke:none"
             id="path256" /></g><g
           id="g258"
           transform="translate(278.4233,640.7783)"><path
             d="m 0,0 -6.938,-1.969 c 0,0 -2.775,-2.818 -1.657,-2.682 1.116,0.134 5.923,2.297 5.923,2.297 z"
             style="fill:#96cd56;fill-opacity:1;fill-rule:evenodd;stroke:none"
             id="path260" /></g><g
           id="g262"
           transform="translate(269.3799,573.7969)"><path
             d="M 0,0 V -16.377"
             style="fill:none;stroke:#231f20;stroke-width:0.5;stroke-linecap:butt;stroke-linejoin:miter;stroke-miterlimit:4;stroke-dasharray:none;stroke-opacity:1"
             id="path264" /></g><g
           id="g266"
           transform="translate(268.7783,575.502)"><path
             d="m 0,0 c -0.283,-0.951 -0.547,-1.57 -0.85,-2.334 l 2.903,0.01 C 1.922,-2.053 1.477,-0.945 1.186,0.002 0.873,1.02 0.662,1.941 0.584,2.539 0.512,1.939 0.303,1.016 0,0"
             style="fill:#231f20;fill-opacity:1;fill-rule:nonzero;stroke:none"
             id="path268" /></g><g
           id="g270"
           transform="translate(377.8301,616.6982)"><path
             d="m 0,0 h -24.951 c -1.639,4.184 -5.737,7.15 -10.545,7.15 -6.252,0 -11.324,-5.014 -11.324,-11.202 0,-0.131 0.015,-0.261 0.021,-0.389 -0.006,-0.131 -0.021,-0.256 -0.021,-0.389 0,-6.185 5.072,-11.204 11.324,-11.204 4.457,0 8.301,2.554 10.148,6.258 h 2.082 c 0.147,1.069 1.229,1.908 2.551,1.908 1.324,0 2.406,-0.839 2.549,-1.908 h 2.293 c 0.144,1.069 1.223,1.908 2.547,1.908 1.326,0 2.404,-0.839 2.551,-1.908 h 2.291 c 0.144,1.069 1.224,1.908 2.548,1.908 1.325,0 2.405,-0.839 2.551,-1.908 h 1.596 L 4.09,-3.04 v 0.777 z"
             style="fill:none;stroke:#231f20;stroke-width:1;stroke-linecap:butt;stroke-linejoin:round;stroke-miterlimit:4;stroke-dasharray:none;stroke-opacity:1"
             id="path272" /></g><g
           id="g274"
           transform="translate(381.9199,614.4351)"><path
             d="m 0,0 -29.041,1.487 c -1.639,4.182 -5.736,7.151 -10.545,7.151 -6.252,0 -11.324,-5.015 -11.324,-11.205 0,-6.184 5.072,-11.204 11.324,-11.204 4.457,0 8.301,2.554 10.148,6.258 h 2.083 c 0.146,1.07 1.228,1.908 2.55,1.908 1.325,0 2.407,-0.838 2.549,-1.908 h 2.293 c 0.145,1.07 1.223,1.908 2.547,1.908 1.326,0 2.404,-0.838 2.551,-1.908 h 2.291 c 0.144,1.07 1.224,1.908 2.549,1.908 1.324,0 2.404,-0.838 2.55,-1.908 h 1.596 L 0,-0.777 Z"
             style="fill:#278a2f;fill-opacity:1;fill-rule:nonzero;stroke:none"
             id="path276" /></g><g
           id="g278"
           transform="translate(381.9199,614.4351)"><path
             d="m 0,0 -29.041,1.487 c -1.639,4.182 -5.736,7.151 -10.545,7.151 -6.252,0 -11.324,-5.015 -11.324,-11.205 0,-6.184 5.072,-11.204 11.324,-11.204 4.457,0 8.301,2.554 10.148,6.258 h 2.083 c 0.146,1.07 1.228,1.908 2.55,1.908 1.325,0 2.407,-0.838 2.549,-1.908 h 2.293 c 0.145,1.07 1.223,1.908 2.547,1.908 1.326,0 2.404,-0.838 2.551,-1.908 h 2.291 c 0.144,1.07 1.224,1.908 2.549,1.908 1.324,0 2.404,-0.838 2.55,-1.908 h 1.596 L 0,-0.777 Z"
             style="fill:none;stroke:#278a2f;stroke-width:0.3;stroke-linecap:butt;stroke-linejoin:round;stroke-miterlimit:4;stroke-dasharray:none;stroke-opacity:1"
             id="path280" /></g></g></g><g
       id="g282"><g
         id="g284"><g
           id="g290"><g
             id="g292"><path
               d="m 331.01,612.646 c 0,-6.187 5.072,-11.204 11.324,-11.204 v 0 c 4.457,0 8.301,2.553 10.148,6.257 v 0 h 2.082 c 0.147,1.069 1.229,1.908 2.551,1.908 v 0 c 1.324,0 2.406,-0.839 2.549,-1.908 v 0 h 2.293 c 0.145,1.069 1.223,1.908 2.547,1.908 v 0 c 1.326,0 2.404,-0.839 2.551,-1.908 v 0 h 2.291 c 0.144,1.069 1.224,1.908 2.548,1.908 v 0 c 1.324,0 2.405,-0.839 2.551,-1.908 v 0 h 1.596 l 5.878,6.736 -4.089,2.263 h -24.951 c -1.639,4.184 -5.736,7.151 -10.545,7.151 v 0 c -6.252,0 -11.324,-5.015 -11.324,-11.203"
               style="fill:url(#linearGradient298);stroke:none"
               id="path300" /></g></g></g></g><g
       id="g302"><g
         id="g304"><g
           id="g310"><g
             id="g312"><path
               d="m 331.918,612.646 c 0,-5.677 4.672,-10.298 10.416,-10.298 v 0 c 3.989,0 7.566,2.205 9.336,5.756 v 0 l 0.25,0.502 h 1.974 c 0.522,1.129 1.78,1.908 3.221,1.908 v 0 c 1.443,0 2.7,-0.779 3.219,-1.908 v 0 h 0.951 c 0.524,1.129 1.779,1.908 3.219,1.908 v 0 c 1.443,0 2.699,-0.779 3.219,-1.908 v 0 h 0.953 c 0.521,1.129 1.779,1.908 3.218,1.908 v 0 c 1.444,0 2.7,-0.779 3.222,-1.908 v 0 h 0.511 l 4.867,5.578 -2.898,1.609 h -25.334 l -0.225,0.574 c -1.568,3.994 -5.377,6.574 -9.703,6.574 v 0 c -5.744,0 -10.416,-4.618 -10.416,-10.295"
               style="fill:url(#linearGradient318);stroke:none"
               id="path320" /></g></g></g></g><g
       id="g322"><g
         id="g324"
         clip-path="url(#clipPath328)"><g
           id="g330"
           transform="translate(351.2793,612.646)"><path
             d="m 0,0 c 0,-4.943 -4.004,-8.947 -8.945,-8.947 -4.942,0 -8.948,4.004 -8.948,8.947 0,4.941 4.006,8.945 8.948,8.945 C -4.004,8.945 0,4.941 0,0"
             style="fill:#ffffff;fill-opacity:1;fill-rule:nonzero;stroke:none"
             id="path332" /></g><text
           transform="matrix(1,0,0,-1,334.2344,609.2148)"
           style="font-variant:normal;font-weight:normal;font-stretch:normal;font-size:9.0198px;font-family:Arial;-inkscape-font-specification:ArialMT;writing-mode:lr-tb;fill:#231f20;fill-opacity:1;fill-rule:nonzero;stroke:none"
           id="text336"><tspan
             x="0 6.0162067 11.031216"
             y="0"
             sodipodi:role="line"
             id="tspan334">Pub</tspan></text><g
           id="g338"
           transform="translate(304.8765,594.6001)"><path
             d="m 0,0 h -24.951 c -1.639,4.184 -5.737,7.15 -10.546,7.15 -6.252,0 -11.324,-5.014 -11.324,-11.202 0,-0.131 0.017,-0.261 0.022,-0.389 -0.005,-0.131 -0.022,-0.256 -0.022,-0.389 0,-6.185 5.072,-11.204 11.324,-11.204 4.457,0 8.301,2.554 10.149,6.258 h 2.082 c 0.147,1.069 1.228,1.908 2.551,1.908 1.324,0 2.405,-0.839 2.548,-1.908 h 2.293 c 0.145,1.069 1.224,1.908 2.548,1.908 1.325,0 2.404,-0.839 2.55,-1.908 h 2.292 c 0.144,1.069 1.224,1.908 2.548,1.908 1.325,0 2.405,-0.839 2.551,-1.908 h 1.596 l 5.877,6.736 v 0.777 z"
             style="fill:none;stroke:#231f20;stroke-width:1;stroke-linecap:butt;stroke-linejoin:round;stroke-miterlimit:4;stroke-dasharray:none;stroke-opacity:1"
             id="path340" /></g><g
           id="g342"
           transform="translate(308.9648,592.3369)"><path
             d="m 0,0 -29.04,1.487 c -1.638,4.182 -5.736,7.151 -10.545,7.151 -6.252,0 -11.324,-5.015 -11.324,-11.205 0,-6.184 5.072,-11.204 11.324,-11.204 4.457,0 8.3,2.554 10.149,6.258 h 2.082 c 0.146,1.07 1.228,1.908 2.551,1.908 1.324,0 2.405,-0.838 2.548,-1.908 h 2.293 c 0.145,1.07 1.223,1.908 2.547,1.908 1.326,0 2.405,-0.838 2.55,-1.908 h 2.292 c 0.145,1.07 1.225,1.908 2.549,1.908 1.324,0 2.404,-0.838 2.551,-1.908 h 1.596 L 0,-0.777 Z"
             style="fill:#278a2f;fill-opacity:1;fill-rule:nonzero;stroke:none"
             id="path344" /></g><g
           id="g346"
           transform="translate(308.9648,592.3369)"><path
             d="m 0,0 -29.04,1.487 c -1.638,4.182 -5.736,7.151 -10.545,7.151 -6.252,0 -11.324,-5.015 -11.324,-11.205 0,-6.184 5.072,-11.204 11.324,-11.204 4.457,0 8.3,2.554 10.149,6.258 h 2.082 c 0.146,1.07 1.228,1.908 2.551,1.908 1.324,0 2.405,-0.838 2.548,-1.908 h 2.293 c 0.145,1.07 1.223,1.908 2.547,1.908 1.326,0 2.405,-0.838 2.55,-1.908 h 2.292 c 0.145,1.07 1.225,1.908 2.549,1.908 1.324,0 2.404,-0.838 2.551,-1.908 h 1.596 L 0,-0.777 Z"
             style="fill:none;stroke:#278a2f;stroke-width:0.3;stroke-linecap:butt;stroke-linejoin:round;stroke-miterlimit:4;stroke-dasharray:none;stroke-opacity:1"
             id="path348" /></g></g></g><g
       id="g350"><g
         id="g352"><g
           id="g358"><g
             id="g360"><path
               d="m 258.056,590.548 c 0,-6.188 5.072,-11.204 11.324,-11.204 v 0 c 4.457,0 8.301,2.553 10.149,6.256 v 0 h 2.082 c 0.147,1.07 1.228,1.909 2.55,1.909 v 0 c 1.324,0 2.406,-0.839 2.548,-1.909 v 0 h 2.294 c 0.144,1.07 1.223,1.909 2.548,1.909 v 0 c 1.324,0 2.403,-0.839 2.549,-1.909 v 0 h 2.292 c 0.144,1.07 1.224,1.909 2.549,1.909 v 0 c 1.324,0 2.404,-0.839 2.551,-1.909 v 0 h 1.596 l 5.877,6.737 -4.088,2.263 h -24.952 c -1.639,4.184 -5.736,7.15 -10.545,7.15 v 0 c -6.252,0 -11.324,-5.014 -11.324,-11.202"
               style="fill:url(#linearGradient366);stroke:none"
               id="path368" /></g></g></g></g><g
       id="g370"><g
         id="g372"><g
           id="g378"><g
             id="g380"><path
               d="m 258.964,590.548 c 0,-5.678 4.672,-10.297 10.416,-10.297 v 0 c 3.989,0 7.567,2.204 9.336,5.755 v 0 l 0.251,0.502 h 1.974 c 0.52,1.128 1.78,1.907 3.22,1.907 v 0 c 1.444,0 2.7,-0.779 3.22,-1.907 v 0 h 0.95 c 0.524,1.128 1.78,1.907 3.22,1.907 v 0 c 1.442,0 2.699,-0.779 3.218,-1.907 v 0 h 0.953 c 0.522,1.128 1.779,1.907 3.219,1.907 v 0 c 1.442,0 2.699,-0.779 3.22,-1.907 v 0 h 0.513 l 4.867,5.579 -2.899,1.607 h -25.334 l -0.224,0.574 c -1.569,3.994 -5.377,6.576 -9.704,6.576 v 0 c -5.744,0 -10.416,-4.619 -10.416,-10.296"
               style="fill:url(#linearGradient386);stroke:none"
               id="path388" /></g></g></g></g><g
       id="g390"><g
         id="g392"
         clip-path="url(#clipPath396)"><g
           id="g398"
           transform="translate(278.3257,590.5479)"><path
             d="m 0,0 c 0,-4.943 -4.004,-8.947 -8.946,-8.947 -4.941,0 -8.947,4.004 -8.947,8.947 0,4.941 4.006,8.945 8.947,8.945 C -4.004,8.945 0,4.941 0,0"
             style="fill:#ffffff;fill-opacity:1;fill-rule:nonzero;stroke:none"
             id="path400" /></g><text
           transform="matrix(1,0,0,-1,261.2798,587.1172)"
           style="font-variant:normal;font-weight:normal;font-stretch:normal;font-size:9.0198px;font-family:Arial;-inkscape-font-specification:ArialMT;writing-mode:lr-tb;fill:#231f20;fill-opacity:1;fill-rule:nonzero;stroke:none"
           id="text404"><tspan
             x="0 6.0162067 11.031216"
             y="0"
             sodipodi:role="line"
             id="tspan402">Pub</tspan></text><g
           id="g406"
           transform="translate(346.9717,595.6665)"><path
             d="M 0,0 C 2.333,-10.667 10.833,-17.167 22,-18.667"
             style="fill:none;stroke:#231f20;stroke-width:0.3;stroke-linecap:butt;stroke-linejoin:miter;stroke-miterlimit:10;stroke-dasharray:none;stroke-opacity:1"
             id="path408" /></g><g
           id="g410"
           transform="translate(345.2725,594.7349)"><path
             d="M 0,0 1.134,3.563 3.653,0.799 Z"
             style="fill:#231f20;fill-opacity:1;fill-rule:nonzero;stroke:none"
             id="path412" /></g><g
           id="g414"
           transform="translate(276.25,565.25)"><path
             d="M 0,0 C 18.333,0 34.084,-11.25 48.75,-11.25"
             style="fill:none;stroke:#231f20;stroke-width:0.3;stroke-linecap:butt;stroke-linejoin:miter;stroke-miterlimit:10;stroke-dasharray:none;stroke-opacity:1"
             id="path416" /></g><g
           id="g418"
           transform="translate(276.7969,563.3906)"><path
             d="M 0,0 -3.238,1.87 0,3.739 Z"
             style="fill:#231f20;fill-opacity:1;fill-rule:nonzero;stroke:none"
             id="path420" /></g><text
           transform="matrix(1,0,0,-1,371.9756,583.8662)"
           style="font-variant:normal;font-weight:bold;font-stretch:condensed;font-size:9px;font-family:'Humanst521 Cn BT';-inkscape-font-specification:Humanist521BT-BoldCondensed;writing-mode:lr-tb;fill:#231f20;fill-opacity:1;fill-rule:nonzero;stroke:none"
           id="text428"><tspan
             x="0 4.842 8.802 12.384 16.344 18.476999 22.077 26.568001 31.049999 35.009998"
             y="0"
             sodipodi:role="line"
             id="tspan422">Bezeichnet</tspan><tspan
             x="0 3.96 6.0929999 10.575 14.535 19.017 21.320999 25.281 29.034 32.030998 35.991001 40.473 44.981998 48.942001"
             y="9.5039997"
             sodipodi:role="line"
             id="tspan424">einen extended</tspan><tspan
             x="0 4.5089998 8.9910002 13.5 15.66 17.792999 21.393 23.697001 28.656 32.616001"
             y="19.007999"
             sodipodi:role="line"
             id="tspan426">public Key</tspan></text><g
           id="g430"
           transform="translate(304.8818,549.981)"><path
             d="m 0,0 h -24.951 c -1.643,4.182 -5.738,7.15 -10.551,7.15 -6.25,0 -11.32,-5.014 -11.32,-11.203 0,-0.131 0.015,-0.26 0.019,-0.386 -0.004,-0.132 -0.019,-0.26 -0.019,-0.391 0,-6.186 5.07,-11.205 11.32,-11.205 4.46,0 8.308,2.555 10.152,6.256 h 2.082 c 0.149,1.074 1.227,1.912 2.553,1.912 1.322,0 2.401,-0.838 2.551,-1.912 h 2.289 c 0.145,1.074 1.223,1.912 2.552,1.912 1.319,0 2.405,-0.838 2.548,-1.912 h 2.291 c 0.146,1.074 1.226,1.912 2.55,1.912 1.329,0 2.405,-0.838 2.547,-1.912 h 1.598 l 5.877,6.738 v 0.777 z"
             style="fill:none;stroke:#231f20;stroke-width:1;stroke-linecap:butt;stroke-linejoin:round;stroke-miterlimit:4;stroke-dasharray:none;stroke-opacity:1"
             id="path432" /></g><g
           id="g434"
           transform="translate(308.9697,547.7173)"><path
             d="m 0,0 -29.039,1.486 c -1.643,4.186 -5.738,7.152 -10.551,7.152 -6.25,0 -11.32,-5.015 -11.32,-11.204 0,-6.186 5.07,-11.205 11.32,-11.205 4.46,0 8.308,2.554 10.152,6.255 h 2.083 c 0.148,1.075 1.226,1.912 2.552,1.912 1.323,0 2.401,-0.837 2.551,-1.912 h 2.289 c 0.145,1.075 1.223,1.912 2.552,1.912 1.319,0 2.405,-0.837 2.548,-1.912 h 2.291 c 0.146,1.075 1.226,1.912 2.551,1.912 1.328,0 2.404,-0.837 2.546,-1.912 h 1.598 L 0,-0.777 Z"
             style="fill:#a21217;fill-opacity:1;fill-rule:nonzero;stroke:none"
             id="path436" /></g><g
           id="g438"
           transform="translate(308.9697,547.7173)"><path
             d="m 0,0 -29.039,1.486 c -1.643,4.186 -5.738,7.152 -10.551,7.152 -6.25,0 -11.32,-5.015 -11.32,-11.204 0,-6.186 5.07,-11.205 11.32,-11.205 4.46,0 8.308,2.554 10.152,6.255 h 2.083 c 0.148,1.075 1.226,1.912 2.552,1.912 1.323,0 2.401,-0.837 2.551,-1.912 h 2.289 c 0.145,1.075 1.223,1.912 2.552,1.912 1.319,0 2.405,-0.837 2.548,-1.912 h 2.291 c 0.146,1.075 1.226,1.912 2.551,1.912 1.328,0 2.404,-0.837 2.546,-1.912 h 1.598 L 0,-0.777 Z"
             style="fill:none;stroke:#a21217;stroke-width:0.3;stroke-linecap:butt;stroke-linejoin:round;stroke-miterlimit:4;stroke-dasharray:none;stroke-opacity:1"
             id="path440" /></g></g></g><g
       id="g442"><g
         id="g444"><g
           id="g450"><g
             id="g452"><path
               d="m 258.06,545.928 c 0,-6.187 5.07,-11.204 11.32,-11.204 v 0 c 4.459,0 8.308,2.553 10.152,6.258 v 0 h 2.083 c 0.148,1.069 1.226,1.906 2.552,1.906 v 0 c 1.322,0 2.4,-0.837 2.55,-1.906 v 0 h 2.29 c 0.144,1.069 1.222,1.906 2.552,1.906 v 0 c 1.319,0 2.405,-0.837 2.548,-1.906 v 0 h 2.291 c 0.146,1.069 1.226,1.906 2.55,1.906 v 0 c 1.328,0 2.404,-0.837 2.547,-1.906 v 0 h 1.598 l 5.877,6.735 -4.088,2.264 h -24.951 c -1.643,4.181 -5.739,7.15 -10.551,7.15 v 0 c -6.25,0 -11.32,-5.014 -11.32,-11.203"
               style="fill:url(#linearGradient460);stroke:none"
               id="path462" /></g></g></g></g><g
       id="g464"><g
         id="g466"><g
           id="g472"><g
             id="g474"><path
               d="m 258.967,545.928 c 0,-5.678 4.671,-10.298 10.413,-10.298 v 0 c 3.994,0 7.569,2.206 9.34,5.756 v 0 l 0.25,0.503 h 1.974 c 0.522,1.127 1.777,1.906 3.223,1.906 v 0 c 1.442,0 2.699,-0.779 3.216,-1.906 v 0 h 0.952 c 0.524,1.127 1.779,1.906 3.224,1.906 v 0 c 1.442,0 2.696,-0.779 3.215,-1.906 v 0 h 0.955 c 0.518,1.127 1.781,1.906 3.219,1.906 v 0 c 1.441,0 2.7,-0.779 3.221,-1.906 v 0 h 0.51 l 4.871,5.576 -2.905,1.608 h -25.332 l -0.228,0.577 c -1.568,3.995 -5.373,6.574 -9.705,6.574 v 0 c -5.742,0 -10.413,-4.617 -10.413,-10.296"
               style="fill:url(#linearGradient480);stroke:none"
               id="path482" /></g></g></g></g><g
       id="g484"><g
         id="g486"
         clip-path="url(#clipPath490)"><g
           id="g492"
           transform="translate(278.3271,545.9282)"><path
             d="m 0,0 c 0,-4.941 -4.002,-8.947 -8.947,-8.947 -4.938,0 -8.942,4.006 -8.942,8.947 0,4.94 4.004,8.947 8.942,8.947 C -4.002,8.947 0,4.94 0,0"
             style="fill:#ffffff;fill-opacity:1;fill-rule:nonzero;stroke:none"
             id="path494" /></g><text
           transform="matrix(1,0,0,-1,261.5381,542.5)"
           style="font-variant:normal;font-weight:normal;font-stretch:normal;font-size:9.0204px;font-family:Arial;-inkscape-font-specification:ArialMT;writing-mode:lr-tb;fill:#231f20;fill-opacity:1;fill-rule:nonzero;stroke:none"
           id="text498"><tspan
             x="0 6.0166068 9.0204 11.022929"
             y="0"
             sodipodi:role="line"
             id="tspan496">Priv</tspan></text><g
           id="g500"
           transform="translate(237.5479,593.0215)"><path
             d="m 0,0 h -24.951 c -1.643,4.182 -5.738,7.15 -10.551,7.15 -6.25,0 -11.32,-5.014 -11.32,-11.203 0,-0.131 0.015,-0.26 0.019,-0.386 -0.004,-0.132 -0.019,-0.26 -0.019,-0.391 0,-6.186 5.07,-11.205 11.32,-11.205 4.46,0 8.308,2.555 10.152,6.256 h 2.082 c 0.149,1.074 1.227,1.912 2.553,1.912 1.322,0 2.401,-0.838 2.551,-1.912 h 2.289 c 0.145,1.074 1.223,1.912 2.552,1.912 1.319,0 2.405,-0.838 2.548,-1.912 h 2.291 c 0.146,1.074 1.226,1.912 2.55,1.912 1.329,0 2.405,-0.838 2.547,-1.912 h 1.598 l 5.877,6.738 v 0.777 z"
             style="fill:none;stroke:#231f20;stroke-width:1;stroke-linecap:butt;stroke-linejoin:round;stroke-miterlimit:4;stroke-dasharray:none;stroke-opacity:1"
             id="path502" /></g><g
           id="g504"
           transform="translate(241.6357,590.7578)"><path
             d="m 0,0 -29.039,1.486 c -1.643,4.186 -5.738,7.152 -10.551,7.152 -6.25,0 -11.32,-5.015 -11.32,-11.204 0,-6.186 5.07,-11.205 11.32,-11.205 4.46,0 8.308,2.554 10.152,6.255 h 2.083 c 0.148,1.075 1.226,1.912 2.552,1.912 1.323,0 2.401,-0.837 2.551,-1.912 h 2.289 c 0.145,1.075 1.223,1.912 2.552,1.912 1.319,0 2.405,-0.837 2.548,-1.912 h 2.291 c 0.146,1.075 1.226,1.912 2.551,1.912 1.328,0 2.404,-0.837 2.546,-1.912 h 1.598 L 0,-0.777 Z"
             style="fill:#a21217;fill-opacity:1;fill-rule:nonzero;stroke:none"
             id="path506" /></g><g
           id="g508"
           transform="translate(241.6357,590.7578)"><path
             d="m 0,0 -29.039,1.486 c -1.643,4.186 -5.738,7.152 -10.551,7.152 -6.25,0 -11.32,-5.015 -11.32,-11.204 0,-6.186 5.07,-11.205 11.32,-11.205 4.46,0 8.308,2.554 10.152,6.255 h 2.083 c 0.148,1.075 1.226,1.912 2.552,1.912 1.323,0 2.401,-0.837 2.551,-1.912 h 2.289 c 0.145,1.075 1.223,1.912 2.552,1.912 1.319,0 2.405,-0.837 2.548,-1.912 h 2.291 c 0.146,1.075 1.226,1.912 2.551,1.912 1.328,0 2.404,-0.837 2.546,-1.912 h 1.598 L 0,-0.777 Z"
             style="fill:none;stroke:#a21217;stroke-width:0.3;stroke-linecap:butt;stroke-linejoin:round;stroke-miterlimit:4;stroke-dasharray:none;stroke-opacity:1"
             id="path510" /></g></g></g><g
       id="g512"><g
         id="g514"><g
           id="g520"><g
             id="g522"><path
               d="m 190.725,588.969 c 0,-6.188 5.071,-11.204 11.321,-11.204 v 0 c 4.46,0 8.307,2.553 10.152,6.258 v 0 h 2.082 c 0.149,1.069 1.227,1.906 2.553,1.906 v 0 c 1.323,0 2.401,-0.837 2.551,-1.906 v 0 h 2.289 c 0.145,1.069 1.223,1.906 2.551,1.906 v 0 c 1.32,0 2.406,-0.837 2.548,-1.906 v 0 h 2.291 c 0.147,1.069 1.227,1.906 2.551,1.906 v 0 c 1.329,0 2.405,-0.837 2.547,-1.906 v 0 h 1.598 l 5.877,6.735 -4.088,2.264 h -24.951 c -1.643,4.181 -5.738,7.15 -10.551,7.15 v 0 c -6.25,0 -11.321,-5.015 -11.321,-11.203"
               style="fill:url(#linearGradient530);stroke:none"
               id="path532" /></g></g></g></g><g
       id="g534"><g
         id="g536"><g
           id="g542"><g
             id="g544"><path
               d="m 191.632,588.969 c 0,-5.678 4.671,-10.298 10.414,-10.298 v 0 c 3.994,0 7.569,2.205 9.34,5.756 v 0 l 0.251,0.503 h 1.974 c 0.521,1.127 1.777,1.906 3.222,1.906 v 0 c 1.441,0 2.7,-0.779 3.216,-1.906 v 0 h 0.952 c 0.523,1.127 1.78,1.906 3.223,1.906 v 0 c 1.443,0 2.697,-0.779 3.217,-1.906 v 0 h 0.955 c 0.517,1.127 1.781,1.906 3.218,1.906 v 0 c 1.442,0 2.699,-0.779 3.221,-1.906 v 0 h 0.51 l 4.87,5.576 -2.904,1.608 H 211.98 l -0.229,0.576 c -1.569,3.996 -5.373,6.575 -9.705,6.575 v 0 c -5.743,0 -10.414,-4.618 -10.414,-10.296"
               style="fill:url(#linearGradient550);stroke:none"
               id="path552" /></g></g></g></g><g
       id="g554"><g
         id="g556"
         clip-path="url(#clipPath560)"><g
           id="g562"
           transform="translate(210.9932,588.9688)"><path
             d="m 0,0 c 0,-4.941 -4.002,-8.947 -8.947,-8.947 -4.938,0 -8.942,4.006 -8.942,8.947 0,4.94 4.004,8.947 8.942,8.947 C -4.002,8.947 0,4.94 0,0"
             style="fill:#ffffff;fill-opacity:1;fill-rule:nonzero;stroke:none"
             id="path564" /></g><text
           transform="matrix(1,0,0,-1,194.2041,585.54)"
           style="font-variant:normal;font-weight:normal;font-stretch:normal;font-size:9.0204px;font-family:Arial;-inkscape-font-specification:ArialMT;writing-mode:lr-tb;fill:#231f20;fill-opacity:1;fill-rule:nonzero;stroke:none"
           id="text568"><tspan
             x="0 6.0166068 9.0204 11.022929"
             y="0"
             sodipodi:role="line"
             id="tspan566">Priv</tspan></text><g
           id="g570"
           transform="translate(308.001,579.292)"><path
             d="M 0,0 H 6.333 V 66.708 H 0"
             style="fill:none;stroke:#231f20;stroke-width:0.5;stroke-linecap:butt;stroke-linejoin:miter;stroke-miterlimit:4;stroke-dasharray:none;stroke-opacity:1"
             id="path572" /></g><g
           id="g574"
           transform="translate(322.5332,612.646)"><path
             d="M 0,0 H -8.199"
             style="fill:none;stroke:#231f20;stroke-width:0.5;stroke-linecap:butt;stroke-linejoin:miter;stroke-miterlimit:4;stroke-dasharray:none;stroke-opacity:1"
             id="path576" /></g><text
           transform="matrix(1,0,0,-1,368.7207,598.6357)"
           style="font-variant:normal;font-weight:normal;font-stretch:normal;font-size:8px;font-family:Courier;-inkscape-font-specification:Courier;writing-mode:lr-tb;fill:#231f20;fill-opacity:1;fill-rule:nonzero;stroke:none"
           id="text582"><tspan
             x="0 4.8000002 9.6000004"
             y="0"
             sodipodi:role="line"
             id="tspan578">M/1</tspan><tspan
             x="-140.28799 -135.48801 -130.688"
             y="23.672001"
             sodipodi:role="line"
             id="tspan580">m/1</tspan></text></g></g></g></svg>
