<svg xmlns="http://www.w3.org/2000/svg" xmlns:xlink="http://www.w3.org/1999/xlink" width="309.32" height="192.79" viewBox="0 0 309.32 192.79">
  <defs>
    <style>
      .cls-1, .cls-10, .cls-16, .cls-3, .cls-34 {
        fill: none;
      }

      .cls-2 {
        isolation: isolate;
      }

      .cls-10, .cls-16, .cls-3, .cls-34, .cls-35, .cls-37, .cls-38, .cls-39, .cls-4, .cls-41, .cls-44, .cls-45, .cls-46 {
        stroke: #000;
      }

      .cls-3, .cls-34, .cls-35, .cls-37, .cls-41, .cls-44, .cls-45, .cls-46 {
        stroke-width: 0.5px;
      }

      .cls-4 {
        fill: #fda452;
      }

      .cls-10, .cls-17, .cls-22, .cls-38, .cls-39, .cls-4 {
        stroke-width: 0.3px;
      }

      .cls-5, .cls-9 {
        fill: #96c749;
      }

      .cls-6, .cls-8 {
        fill: #fbafc5;
      }

      .cls-42, .cls-43, .cls-7, .cls-8, .cls-9 {
        fill-rule: evenodd;
      }

      .cls-10, .cls-44, .cls-45, .cls-46 {
        stroke-miterlimit: 10;
      }

      .cls-11 {
        font-size: 9px;
        font-family: Humanist521BT-BoldCondensed, Humanst521 Cn BT;
        font-weight: 700;
      }

      .cls-12 {
        letter-spacing: -0.07em;
      }

      .cls-13 {
        font-size: 8.5px;
        font-family: Arial-BoldMT, Arial;
      }

      .cls-14 {
        letter-spacing: -0.09em;
      }

      .cls-15 {
        letter-spacing: 0em;
      }

      .cls-16, .cls-17, .cls-22, .cls-34, .cls-35, .cls-37, .cls-38, .cls-39, .cls-41 {
        stroke-linejoin: round;
      }

      .cls-17 {
        fill: #267520;
        stroke: #267520;
      }

      .cls-18 {
        fill: url(#linear-gradient);
      }

      .cls-19 {
        fill: url(#linear-gradient-2);
      }

      .cls-20, .cls-42, .cls-48 {
        fill: #fff;
      }

      .cls-21 {
        font-size: 9.02px;
      }

      .cls-21, .cls-25 {
        font-family: ArialMT, Arial;
      }

      .cls-22 {
        fill: #a10000;
        stroke: #a10000;
      }

      .cls-23 {
        fill: url(#linear-gradient-3);
      }

      .cls-24 {
        fill: url(#linear-gradient-4);
      }

      .cls-25 {
        font-size: 9.02px;
      }

      .cls-26 {
        fill: url(#linear-gradient-5);
      }

      .cls-27 {
        fill: url(#linear-gradient-6);
      }

      .cls-28 {
        font-size: 8px;
        font-family: Nimbus Mono PS;
      }

      .cls-29 {
        letter-spacing: -0.02em;
      }

      .cls-30 {
        letter-spacing: 0.02em;
      }

      .cls-31 {
        fill: #7f8587;
      }

      .cls-32 {
        fill: url(#linear-gradient-7);
      }

      .cls-33 {
        fill: url(#linear-gradient-8);
      }

      .cls-35 {
        fill: #7cb2c9;
      }

      .cls-36 {
        fill: #c4dbe5;
      }

      .cls-38 {
        fill: #ca0127;
      }

      .cls-39 {
        fill: #fb2b34;
      }

      .cls-40 {
        clip-path: url(#clip-path);
      }

      .cls-41 {
        fill: #dbdbdb;
      }

      .cls-43 {
        fill: #fda655;
      }

      .cls-44, .cls-49 {
        fill: #cc6c28;
      }

      .cls-45 {
        fill: url(#radial-gradient);
      }

      .cls-46 {
        fill: #e2ab42;
      }

      .cls-47 {
        fill: #eac576;
      }

      .cls-48 {
        opacity: 0.6;
      }

      .cls-49 {
        opacity: 0.49;
        mix-blend-mode: multiply;
      }
    </style>
    <linearGradient id="linear-gradient" x1="312.66" y1="208.56" x2="363.56" y2="208.56" gradientUnits="userSpaceOnUse">
      <stop offset="0" stop-color="#5fb749"/>
      <stop offset="1" stop-color="#dbf1c6"/>
    </linearGradient>
    <linearGradient id="linear-gradient-2" x1="313.56" y1="208.56" x2="362.14" y2="208.56" gradientUnits="userSpaceOnUse">
      <stop offset="0" stop-color="#dbf1c6"/>
      <stop offset="1" stop-color="#5fb749"/>
    </linearGradient>
    <linearGradient id="linear-gradient-3" x1="312.66" y1="253.18" x2="363.57" y2="253.18" gradientUnits="userSpaceOnUse">
      <stop offset="0" stop-color="#ff0001"/>
      <stop offset="0.08" stop-color="#ff1b17"/>
      <stop offset="0.25" stop-color="#fe4f41"/>
      <stop offset="0.42" stop-color="#fe7b64"/>
      <stop offset="0.59" stop-color="#fd9d80"/>
      <stop offset="0.74" stop-color="#fdb593"/>
      <stop offset="0.88" stop-color="#fdc49f"/>
      <stop offset="1" stop-color="#fdc9a3"/>
    </linearGradient>
    <linearGradient id="linear-gradient-4" x1="313.57" y1="253.18" x2="362.15" y2="253.18" gradientUnits="userSpaceOnUse">
      <stop offset="0" stop-color="#fdc9a3"/>
      <stop offset="1" stop-color="#ff0001"/>
    </linearGradient>
    <linearGradient id="linear-gradient-5" x1="387.53" y1="209.32" x2="438.44" y2="209.32" xlink:href="#linear-gradient-3"/>
    <linearGradient id="linear-gradient-6" x1="388.44" y1="209.32" x2="437.02" y2="209.32" xlink:href="#linear-gradient-4"/>
    <linearGradient id="linear-gradient-7" x1="66.94" y1="97.41" x2="66.94" y2="118.37" gradientUnits="userSpaceOnUse">
      <stop offset="0" stop-color="#797d7e"/>
      <stop offset="0.06" stop-color="#979a9b"/>
      <stop offset="0.15" stop-color="#bcbebf"/>
      <stop offset="0.24" stop-color="#d9dbdb"/>
      <stop offset="0.33" stop-color="#eeefef"/>
      <stop offset="0.42" stop-color="#fbfbfb"/>
      <stop offset="0.5" stop-color="#fff"/>
    </linearGradient>
    <linearGradient id="linear-gradient-8" x1="66.86" y1="109.2" x2="66.86" y2="118.37" gradientUnits="userSpaceOnUse">
      <stop offset="0" stop-color="#eef0f0"/>
      <stop offset="1" stop-color="#cccfd0"/>
    </linearGradient>
    <clipPath id="clip-path">
      <rect transform="translate(-139.14 -117.83)" class="cls-1" x="190.56" y="187.79" width="30.89" height="18.83"/>
    </clipPath>
    <radialGradient id="radial-gradient" cx="145.62" cy="214.09" r="13.11" gradientUnits="userSpaceOnUse">
      <stop offset="0.01" stop-color="#e8c096"/>
      <stop offset="0.03" stop-color="#e7bd93"/>
      <stop offset="0.23" stop-color="#dda06d"/>
      <stop offset="0.43" stop-color="#d6894f"/>
      <stop offset="0.63" stop-color="#d07939"/>
      <stop offset="0.82" stop-color="#cd6f2c"/>
      <stop offset="1" stop-color="#cc6c28"/>
    </radialGradient>
  </defs>
  <g class="cls-2">
    <g id="Layer_2" data-name="Layer 2">
      <polyline class="cls-3" points="168.49 135.35 107.28 135.35 107.28 54.89 166.7 54.89"/>
      <line class="cls-3" x1="87.44" y1="95.12" x2="107.28" y2="95.12"/>
      <g>
        <path class="cls-4" d="M380.19,206.53a18.67,18.67,0,0,0,2.25-.28A19.66,19.66,0,0,0,393,201.32c2.22-1.71,4.14-3.18,11.43-3.67l-4.82-3.82c-9.21.62-11.93,2.72-14.34,4.57a14.25,14.25,0,0,1-4,2.37l.56,1.37-.91.64-1.34.28.42,1.49Z" transform="translate(-139.14 -117.83)"/>
        <path class="cls-4" d="M379.09,209.67a39,39,0,0,0,14.37.79c6-.9,8.25-2.63,10.24-4.16,2.22-1.71,4.14-3.18,11.44-3.67L410.65,198c-9.2.62-11.93,2.72-14.34,4.57-1.85,1.43-3.45,2.65-8.05,3.35a24.35,24.35,0,0,1-8.6-.28,3,3,0,0,1-1.31-.5c-.16.57.42,1.42.84,1.77l.16.78-.83.14Z" transform="translate(-139.14 -117.83)"/>
        <path class="cls-4" d="M381.79,215.41a35,35,0,0,0,10.44-.14c6-1,8.18-2.8,10.14-4.37,2.19-1.76,5-3.53,12.32-4.16l-4.59-4.5c-9.18.81-12.81,3.22-15.19,5.12-1.82,1.46-3.39,2.73-8,3.51a22,22,0,0,1-5.23.3l1.48,1.74-.9.93Z" transform="translate(-139.14 -117.83)"/>
        <path class="cls-4" d="M379.29,215.7c1.74.45,3.38,1,5.06,1.56,4.67,1.55,10,3.32,16.67,2.93,6.1-.35,8.68-1.83,10.92-3.19,3.33-2,5.75-3.43,12-2.6l-3.58-5c-9.24-.22-12.34,1.61-15.08,3.22a15.8,15.8,0,0,1-8.61,2.59c-4.62.27-7.75-.78-12.08-2.22-1.3-.44-2.68-.89-4.15-1.33l-.45,2.46-1.92.07A1.93,1.93,0,0,0,379.29,215.7Z" transform="translate(-139.14 -117.83)"/>
        <path class="cls-4" d="M380.08,201.77a30.6,30.6,0,0,0,4.07-.34c6-.91,8.24-2.64,10.23-4.17,2.23-1.71,4.15-3.19,11.45-3.67L401.34,189a21,21,0,0,0-13.4,4.4,19.35,19.35,0,0,1-7.86,3.32,5.72,5.72,0,0,1-1.39-.09,3.33,3.33,0,0,0,2,1.41l-1.42.92.08,1.2Z" transform="translate(-139.14 -117.83)"/>
        <path class="cls-5" d="M405.28,204.63c-1.47.1-5.23.71-5.23.71l-2.87,3.28,4.05-2,6.29-.62Z" transform="translate(-139.14 -117.83)"/>
        <polygon class="cls-6" points="269.12 94.86 266.45 97.22 260.37 98.56 263.78 99.58 268.78 98.14 269.12 94.86"/>
        <polygon class="cls-7" points="251.37 77.9 247.22 78.7 242.31 81.33 249.05 80.29 251.37 77.9"/>
        <polygon class="cls-8" points="256.68 92.08 251.21 93.95 250.61 95.08 255.88 94.14 256.68 92.08"/>
        <polygon class="cls-8" points="261.35 78.19 255.88 80.05 255.28 81.18 260.54 80.24 261.35 78.19"/>
        <polygon class="cls-7" points="278.35 93.56 272.23 95.13 271.78 97.22 276.85 95.55 278.35 93.56"/>
        <polygon class="cls-9" points="248.69 85.92 241.18 85.48 245.24 86.79 248.69 85.92"/>
        <path class="cls-9" d="M390.58,216.39l-6.74-1.74s3.26,2.06,4.2,2.48a68.41,68.41,0,0,0,6.92,1.29Z" transform="translate(-139.14 -117.83)"/>
        <path class="cls-9" d="M399.11,191.08l-6.94,2s-2.77,2.82-1.65,2.68a47.37,47.37,0,0,0,5.92-2.29Z" transform="translate(-139.14 -117.83)"/>
      </g>
      <g>
        <path class="cls-4" d="M312.35,173.75a16.4,16.4,0,0,0,2.25-.27,19.58,19.58,0,0,0,10.59-4.94c2.22-1.7,4.14-3.17,11.43-3.67l-4.83-3.81c-9.2.62-11.93,2.72-14.33,4.57a14.16,14.16,0,0,1-4,2.36l.57,1.38-.92.64-1.33.28.42,1.48Z" transform="translate(-139.14 -117.83)"/>
        <path class="cls-4" d="M311.26,176.9a39.18,39.18,0,0,0,14.37.79c6-.9,8.24-2.64,10.23-4.16,2.23-1.71,4.15-3.18,11.44-3.68l-4.49-4.58c-9.19.62-11.92,2.71-14.33,4.57-1.86,1.42-3.45,2.65-8.06,3.34a24.06,24.06,0,0,1-8.59-.28,3,3,0,0,1-1.31-.49c-.17.56.42,1.41.83,1.77l.17.77-.83.15Z" transform="translate(-139.14 -117.83)"/>
        <path class="cls-4" d="M314,182.64a35.34,35.34,0,0,0,10.44-.14c6-1,8.18-2.81,10.14-4.37,2.19-1.76,5-3.53,12.31-4.17l-4.58-4.49c-9.18.8-12.82,3.22-15.19,5.11-1.83,1.46-3.4,2.73-8,3.52a22.57,22.57,0,0,1-5.23.29l1.47,1.74-.89.94Z" transform="translate(-139.14 -117.83)"/>
        <path class="cls-4" d="M311.45,182.92c1.74.46,3.39,1,5.06,1.57,4.68,1.55,10,3.31,16.68,2.93,6.1-.35,8.68-1.84,10.92-3.19,3.33-2,5.74-3.44,12-2.61l-3.59-5c-9.23-.23-12.33,1.6-15.07,3.22a15.88,15.88,0,0,1-8.61,2.59c-4.63.26-7.75-.78-12.08-2.23-1.31-.43-2.68-.89-4.16-1.32l-.44,2.46-1.92.07A1.91,1.91,0,0,0,311.45,182.92Z" transform="translate(-139.14 -117.83)"/>
        <path class="cls-4" d="M312.25,169a32.43,32.43,0,0,0,4.07-.35c6-.91,8.24-2.64,10.23-4.17,2.22-1.7,4.14-3.18,11.44-3.67l-4.49-4.58a20.91,20.91,0,0,0-13.4,4.4,19.43,19.43,0,0,1-7.85,3.32,5.5,5.5,0,0,1-1.4-.1,3.37,3.37,0,0,0,2,1.42l-1.41.92.08,1.2Z" transform="translate(-139.14 -117.83)"/>
        <path class="cls-5" d="M337.44,171.86c-1.47.1-5.22.7-5.22.7l-2.87,3.29,4-2,6.29-.61Z" transform="translate(-139.14 -117.83)"/>
        <polygon class="cls-6" points="201.29 62.09 198.62 64.44 192.54 65.78 195.94 66.8 200.95 65.37 201.29 62.09"/>
        <polygon class="cls-7" points="183.54 45.13 179.39 45.93 174.48 48.56 181.22 47.52 183.54 45.13"/>
        <polygon class="cls-8" points="188.85 59.31 183.38 61.18 182.78 62.3 188.05 61.36 188.85 59.31"/>
        <polygon class="cls-8" points="193.65 45.07 188.19 46.93 187.58 48.06 192.85 47.12 193.65 45.07"/>
        <polygon class="cls-7" points="210.52 60.79 204.4 62.36 203.95 64.44 209.01 62.78 210.52 60.79"/>
        <polygon class="cls-9" points="180.85 53.15 173.34 52.7 177.4 54.01 180.85 53.15"/>
        <path class="cls-9" d="M322.74,183.61,316,181.88s3.25,2.06,4.2,2.48a67.48,67.48,0,0,0,6.92,1.28Z" transform="translate(-139.14 -117.83)"/>
        <path class="cls-9" d="M331.28,158.31l-6.94,2s-2.78,2.81-1.66,2.68a48.36,48.36,0,0,0,5.93-2.3Z" transform="translate(-139.14 -117.83)"/>
      </g>
      <g>
        <path class="cls-10" d="M257.76,260.55c-6.37,4.05-10.28,12.88-9.89,21.45" transform="translate(-139.14 -117.83)"/>
        <polygon points="117.16 141.44 120.9 141.28 119.17 144.59 117.16 141.44"/>
      </g>
      <g>
        <path class="cls-10" d="M305.58,164.35c-7.83-7.1-24.83-13.85-39.33-17.6" transform="translate(-139.14 -117.83)"/>
        <polygon points="167.28 44.77 168.42 48.34 164.77 47.54 167.28 44.77"/>
      </g>
      <g>
        <path class="cls-10" d="M205.94,242.7c0,5.21-2.11,9.21-2.11,13.55" transform="translate(-139.14 -117.83)"/>
        <polygon points="64.94 125.42 66.81 122.18 68.67 125.42 64.94 125.42"/>
      </g>
      <text class="cls-11" transform="translate(81.03 171.67)">Die linken 256 Bits…</text>
      <text class="cls-11" transform="translate(98.62 16.82)"><tspan class="cls-12">T</tspan><tspan x="3.44" y="0">eile den 5</tspan><tspan class="cls-13" x="37.27" y="0">1</tspan><tspan x="42" y="0">2-Bit</tspan><tspan x="0" y="9.5">Hash halbe-halbe.</tspan></text>
      <g>
        <path class="cls-10" d="M338.2,263.85c5.57,3.55,9,11.27,8.64,18.76" transform="translate(-139.14 -117.83)"/>
        <polygon points="198.52 147.88 196.79 144.57 200.53 144.73 198.52 147.88"/>
      </g>
      <g>
        <path class="cls-10" d="M411.53,223.52c5.58,3.55,9,11.27,8.65,18.76" transform="translate(-139.14 -117.83)"/>
        <polygon points="271.86 107.55 270.13 104.23 273.86 104.39 271.86 107.55"/>
      </g>
      <text class="cls-11" transform="translate(171.9 171.67)">...werden dein<tspan x="0" y="9.5">Master private Ke</tspan><tspan class="cls-14" x="62.49" y="9.5">y</tspan><tspan class="cls-15" x="65.47" y="9.5">.</tspan></text>
      <line class="cls-3" x1="184.84" y1="107.48" x2="184.84" y2="123.86"/>
      <path d="M323.38,223.61a24.39,24.39,0,0,1-.85,2.33h2.9c-.13-.27-.57-1.38-.87-2.32a17.55,17.55,0,0,1-.6-2.54A17,17,0,0,1,323.38,223.61Z" transform="translate(-139.14 -117.83)"/>
      <g>
        <path class="cls-16" d="M359.48,204.51h-25a11.34,11.34,0,0,0-21.87,4.05c0,.13,0,.26,0,.39s0,.26,0,.39a11.34,11.34,0,0,0,21.47,4.95h2.08a2.66,2.66,0,0,1,5.1,0h2.29a2.66,2.66,0,0,1,5.1,0H351a2.66,2.66,0,0,1,5.1,0h1.6l5.87-6.74v-.78Z" transform="translate(-139.14 -117.83)"/>
        <path class="cls-17" d="M363.56,206.77l-29-1.48a11.21,11.21,0,1,0-.4,9h2.08a2.66,2.66,0,0,1,5.1,0h2.29a2.66,2.66,0,0,1,5.1,0H351a2.66,2.66,0,0,1,5.1,0h1.6l5.87-6.74Z" transform="translate(-139.14 -117.83)"/>
        <path class="cls-18" d="M359.48,204.51h-25a11.22,11.22,0,1,0-.4,9h2.08a2.66,2.66,0,0,1,5.1,0h2.29a2.66,2.66,0,0,1,5.1,0H351a2.66,2.66,0,0,1,5.1,0h1.6l5.87-6.74Z" transform="translate(-139.14 -117.83)"/>
        <path class="cls-19" d="M324,218.86a10.3,10.3,0,1,1,9.7-14l.23.58h25.33l2.9,1.6-4.87,5.58h-.51a3.67,3.67,0,0,0-6.44,0h-.95a3.67,3.67,0,0,0-6.44,0H342a3.67,3.67,0,0,0-6.44,0h-2l-.25.5A10.37,10.37,0,0,1,324,218.86Z" transform="translate(-139.14 -117.83)"/>
        <path class="cls-20" d="M332.93,208.56a9,9,0,1,1-8.95-8.94A8.95,8.95,0,0,1,332.93,208.56Z" transform="translate(-139.14 -117.83)"/>
        <text class="cls-21" transform="translate(176.74 94.16)">Pub</text>
      </g>
      <g>
        <path class="cls-16" d="M359.48,249.13h-25a11.34,11.34,0,0,0-21.87,4.05c0,.13,0,.26,0,.39s0,.26,0,.39a11.34,11.34,0,0,0,21.47,5h2.08a2.66,2.66,0,0,1,5.11,0h2.29a2.66,2.66,0,0,1,5.1,0H351a2.66,2.66,0,0,1,5.1,0h1.59l5.88-6.74v-.78Z" transform="translate(-139.14 -117.83)"/>
        <path class="cls-22" d="M363.57,251.39l-29-1.48a11.21,11.21,0,1,0-.4,9h2.08a2.66,2.66,0,0,1,5.11,0h2.29a2.66,2.66,0,0,1,5.1,0H351a2.66,2.66,0,0,1,5.1,0h1.59l5.88-6.74Z" transform="translate(-139.14 -117.83)"/>
        <path class="cls-23" d="M359.48,249.13h-25a11.22,11.22,0,1,0-.4,9h2.08a2.66,2.66,0,0,1,5.11,0h2.29a2.66,2.66,0,0,1,5.1,0H351a2.66,2.66,0,0,1,5.1,0h1.59l5.88-6.74Z" transform="translate(-139.14 -117.83)"/>
        <path class="cls-24" d="M324,263.48a10.3,10.3,0,1,1,9.71-14l.22.58h25.34l2.9,1.61-4.87,5.57h-.51a3.67,3.67,0,0,0-6.44,0h-.95a3.67,3.67,0,0,0-6.44,0h-1a3.48,3.48,0,0,0-3.21-1.91,3.52,3.52,0,0,0-3.23,1.91h-2l-.25.5A10.37,10.37,0,0,1,324,263.48Z" transform="translate(-139.14 -117.83)"/>
        <path class="cls-20" d="M332.93,253.18a8.95,8.95,0,1,1-8.95-9A8.95,8.95,0,0,1,332.93,253.18Z" transform="translate(-139.14 -117.83)"/>
        <text class="cls-25" transform="translate(177 138.78)">Priv</text>
      </g>
      <g>
        <path class="cls-16" d="M434.35,205.27h-25a11.34,11.34,0,0,0-21.87,4c0,.13,0,.26,0,.39s0,.25,0,.39A11.34,11.34,0,0,0,409,215h2.09a2.66,2.66,0,0,1,5.1,0h2.29a2.66,2.66,0,0,1,5.1,0h2.29a2.66,2.66,0,0,1,5.1,0h1.59l5.88-6.73v-.78Z" transform="translate(-139.14 -117.83)"/>
        <path class="cls-22" d="M438.44,207.53l-29-1.49a11.22,11.22,0,1,0-.4,9h2.09a2.66,2.66,0,0,1,5.1,0h2.29a2.66,2.66,0,0,1,5.1,0h2.29a2.66,2.66,0,0,1,5.1,0h1.59l5.88-6.73Z" transform="translate(-139.14 -117.83)"/>
        <path class="cls-26" d="M434.35,205.27h-25a11.21,11.21,0,1,0-.4,9h2.09a2.66,2.66,0,0,1,5.1,0h2.29a2.66,2.66,0,0,1,5.1,0h2.29a2.66,2.66,0,0,1,5.1,0h1.59l5.88-6.73Z" transform="translate(-139.14 -117.83)"/>
        <path class="cls-27" d="M398.85,219.62a10.3,10.3,0,1,1,9.71-14l.23.57h25.33l2.9,1.61-4.87,5.58h-.51a3.67,3.67,0,0,0-6.44,0h-.95a3.67,3.67,0,0,0-6.44,0h-.95a3.67,3.67,0,0,0-6.44,0h-2l-.25.5A10.36,10.36,0,0,1,398.85,219.62Z" transform="translate(-139.14 -117.83)"/>
        <path class="cls-20" d="M407.8,209.32a8.95,8.95,0,1,1-8.95-8.95A8.95,8.95,0,0,1,407.8,209.32Z" transform="translate(-139.14 -117.83)"/>
        <text class="cls-25" transform="translate(251.87 94.91)">Priv</text>
      </g>
      <line class="cls-3" x1="239.95" y1="91.49" x2="231.1" y2="91.49"/>
      <polyline class="cls-3" points="224.76 145.52 231.1 145.52 231.1 38.68 224.76 38.68"/>
      <text class="cls-28" transform="translate(45.4 57.14)">"CT Seed"</text>
      <text class="cls-11" transform="translate(178.45 7.57)">Die rechten 256 Bits<tspan x="0" y="9.5">werden zum Chain</tspan><tspan x="0" y="19">Code</tspan></text>
      <text class="cls-11" transform="translate(41.36 146.31)">HM<tspan class="cls-29" x="11.54" y="0">A</tspan><tspan class="cls-30" x="15.82" y="0">C</tspan><tspan x="20.47" y="0">-SHA512</tspan></text>
      <text class="cls-11" transform="translate(252.12 33.5)">Master<tspan x="0" y="9.5">public Key</tspan></text>
      <text class="cls-11" transform="translate(269.45 132.25)">Master<tspan x="0" y="9.5">extended</tspan><tspan x="0" y="19">private Key</tspan></text>
      <line class="cls-3" x1="42.17" y1="95.12" x2="20.33" y2="95.12"/>
      <path d="M182.94,212.35a21.94,21.94,0,0,1-2.33-.85v2.9a23.59,23.59,0,0,1,2.32-.86,16.3,16.3,0,0,1,2.54-.6A18.7,18.7,0,0,1,182.94,212.35Z" transform="translate(-139.14 -117.83)"/>
      <path d="M307.82,172.14a24.39,24.39,0,0,1-2.33-.85v2.9a23.05,23.05,0,0,1,2.33-.86,16.47,16.47,0,0,1,2.53-.61A17,17,0,0,1,307.82,172.14Z" transform="translate(-139.14 -117.83)"/>
      <path d="M309.61,252.6c-.95-.29-1.57-.55-2.33-.85v2.9a22.94,22.94,0,0,1,2.32-.87,17.55,17.55,0,0,1,2.54-.6A17,17,0,0,1,309.61,252.6Z" transform="translate(-139.14 -117.83)"/>
      <line class="cls-3" x1="66.86" y1="68.07" x2="66.86" y2="59.78"/>
      <path d="M206.6,187.53c.29-.95.55-1.57.85-2.33h-2.9a22.94,22.94,0,0,1,.87,2.32,17.55,17.55,0,0,1,.6,2.54A17,17,0,0,1,206.6,187.53Z" transform="translate(-139.14 -117.83)"/>
      <g>
        <g>
          <path class="cls-31" d="M225.17,215.57a1.12,1.12,0,0,0-1.13-1.19H188a1.12,1.12,0,0,0-1.13,1.19L188,236.14a1.29,1.29,0,0,0,1.27,1.2h33.54a1.29,1.29,0,0,0,1.27-1.2Z" transform="translate(-139.14 -117.83)"/>
          <polygon class="cls-32" points="49.99 118.37 48.8 97.41 85.07 97.41 83.72 118.37 49.99 118.37"/>
          <polygon class="cls-33" points="50.12 118.37 52.31 109.2 81.56 109.2 83.6 118.37 50.12 118.37"/>
          <path class="cls-34" d="M225.17,214.08a1.13,1.13,0,0,0-1.13-1.2H188a1.12,1.12,0,0,0-1.13,1.2L188,236.14a1.29,1.29,0,0,0,1.27,1.2h33.54a1.29,1.29,0,0,0,1.27-1.2Z" transform="translate(-139.14 -117.83)"/>
        </g>
        <polygon class="cls-35" points="46.19 93.25 46.73 96.55 86.98 96.55 87.52 93.25 46.19 93.25"/>
        <g>
          <path class="cls-36" d="M223.32,202.3a1.59,1.59,0,0,0-1.37-.93h-31.9a1.59,1.59,0,0,0-1.37.93l-3.37,8.46a.63.63,0,0,0,.63.93h40.12a.63.63,0,0,0,.63-.93Z" transform="translate(-139.14 -117.83)"/>
          <path class="cls-34" d="M223.32,202.3a1.59,1.59,0,0,0-1.37-.93h-31.9a1.59,1.59,0,0,0-1.37.93l-3.37,8.46a.63.63,0,0,0,.63.93h40.12a.63.63,0,0,0,.63-.93Z" transform="translate(-139.14 -117.83)"/>
        </g>
        <polygon class="cls-37" points="51.32 88.03 50.79 89.36 82.93 89.36 82.4 88.03 51.32 88.03"/>
        <g>
          <path class="cls-4" d="M203.78,227.77l1.71,1.6c1.44-1.67,2.11-6.85,2.11-14.13h-3C204.55,222.67,204.54,226.89,203.78,227.77Z" transform="translate(-139.14 -117.83)"/>
          <path class="cls-4" d="M199.28,227.52l1.1,2.1c3.08-1.77,3.88-8,3.89-14.38h-3.05C201.22,218,201.59,226.19,199.28,227.52Z" transform="translate(-139.14 -117.83)"/>
          <path class="cls-4" d="M194.7,227.45l.79,2.25c5.13-2,5.51-10.39,5.51-14.46h-3C198,218.49,198.32,226.06,194.7,227.45Z" transform="translate(-139.14 -117.83)"/>
          <path class="cls-4" d="M190.1,227.42l.61,2.31c6.67-1.91,7.06-10.71,7.06-14.49h-3.05C194.72,218.74,195.09,226,190.1,227.42Z" transform="translate(-139.14 -117.83)"/>
          <path class="cls-4" d="M212.74,227.52l-1.1,2.1c-3.08-1.77-3.89-8-3.89-14.38h3.05C210.8,218,210.43,226.19,212.74,227.52Z" transform="translate(-139.14 -117.83)"/>
          <path class="cls-4" d="M217.31,227.45l-.78,2.25c-5.13-2-5.51-10.39-5.51-14.46h3C214.07,218.49,213.7,226.06,217.31,227.45Z" transform="translate(-139.14 -117.83)"/>
          <path class="cls-4" d="M221.92,227.42l-.61,2.31c-6.67-1.91-7.06-10.71-7.06-14.49h3.05C217.3,218.74,216.93,226,221.92,227.42Z" transform="translate(-139.14 -117.83)"/>
        </g>
        <path class="cls-38" d="M207.57,209.37c0,.48-.7.87-1.57.87s-1.57-.39-1.57-.87.7-.88,1.57-.88S207.57,208.88,207.57,209.37Z" transform="translate(-139.14 -117.83)"/>
        <path class="cls-39" d="M207.57,209c0,.48-.7.87-1.57.87s-1.57-.39-1.57-.87.7-.88,1.57-.88S207.57,208.46,207.57,209Z" transform="translate(-139.14 -117.83)"/>
        <g class="cls-40">
          <rect class="cls-41" x="52.13" y="72.52" width="29.45" height="32.52"/>
          <rect class="cls-20" x="53.52" y="73.91" width="26.68" height="29.75"/>
          <g>
            <path class="cls-42" d="M196.94,191.74h19a43.06,43.06,0,0,0-4.93.69,31.26,31.26,0,0,0-9.06,0C200.44,192.05,198.6,192,196.94,191.74Z" transform="translate(-139.14 -117.83)"/>
            <path class="cls-8" d="M194.87,192.33c1.67-.19,2.9.91,3.84,1.77a3.6,3.6,0,0,0-.59,1.58c.07.3.21-.09.39,0-.16.16,0,.62-.39.59A6.82,6.82,0,0,0,194.87,192.33Z" transform="translate(-139.14 -117.83)"/>
            <path class="cls-43" d="M196.45,192.33c1.44-.26,3,.23,4.43.3-.5.45-1.85.57-1.77,1.28C198.42,193.58,197.69,192.44,196.45,192.33Z" transform="translate(-139.14 -117.83)"/>
            <path class="cls-7" d="M206.88,194.79a8.06,8.06,0,0,0,.1,2.66A3,3,0,0,1,206.88,194.79Z" transform="translate(-139.14 -117.83)"/>
            <path class="cls-7" d="M205.51,199.23c-.25.09-.91,0-1-.2-.81,1.53-4,1.55-4.33-.4-.4,0-.69.18-1.08.2C200.54,197.42,204.27,198.12,205.51,199.23Zm-1.58-.4c-.57.4-1.36,1-2.26.49-.27-.19-.21-.7-.59-.78h-.4C200.65,200.22,203.67,200.36,203.93,198.83Z" transform="translate(-139.14 -117.83)"/>
            <path class="cls-7" d="M213.78,198.73c-.29.28-.69-.15-1.08-.1-.39,1.86-3.56,2-4.34.4,0,.25-.5.11-1,.29C208.49,198,212.18,197.57,213.78,198.73Zm-2.17-.19a1.27,1.27,0,0,1-1.08,1c-.75.08-1.08-.54-1.67-.69.38,1.46,3.16,1.39,3.35-.2A.84.84,0,0,0,211.61,198.54Z" transform="translate(-139.14 -117.83)"/>
            <path class="cls-9" d="M200.68,198.54h.4c.38.08.32.59.59.78.9.52,1.69-.09,2.26-.49C203.67,200.36,200.65,200.22,200.68,198.54Z" transform="translate(-139.14 -117.83)"/>
            <path class="cls-9" d="M212.21,198.63c-.19,1.59-3,1.66-3.35.2.59.15.92.77,1.67.69a1.27,1.27,0,0,0,1.08-1A.84.84,0,0,1,212.21,198.63Z" transform="translate(-139.14 -117.83)"/>
            <path class="cls-7" d="M207.38,200.21c.32.61-.74.45-.89.89,1,.27,2.13.43,2.46,1.38-1.15-1.17-3.95-1.1-5.11,0,.37-.9,1.47-1.09,2.45-1.38-.1-.38-.7-.28-.88-.59v-.3A4.1,4.1,0,0,1,207.38,200.21Zm-1.09.49c.17-.53-.33-.38-.68-.39C205.66,200.62,206.06,200.58,206.29,200.7Zm.2,0a.93.93,0,0,0,.79-.39h-.79Z" transform="translate(-139.14 -117.83)"/>
            <path class="cls-8" d="M205.61,200.31c.35,0,.85-.14.68.39C206.06,200.58,205.66,200.62,205.61,200.31Z" transform="translate(-139.14 -117.83)"/>
            <path class="cls-8" d="M206.49,200.31h.79a.93.93,0,0,1-.79.39Z" transform="translate(-139.14 -117.83)"/>
            <path class="cls-7" d="M201.87,200.9c.13-.22.68,0,1-.1C202.71,201,202.16,200.84,201.87,200.9Z" transform="translate(-139.14 -117.83)"/>
            <path class="cls-7" d="M210,200.9c.2-.23.82,0,1.18-.1C211,201,210.4,200.84,210,200.9Z" transform="translate(-139.14 -117.83)"/>
            <path class="cls-7" d="M204.52,201a9.38,9.38,0,0,1-2.56.79A5,5,0,0,1,204.52,201Z" transform="translate(-139.14 -117.83)"/>
            <path class="cls-7" d="M207.58,205a7.6,7.6,0,0,1-2.07.1c-.63-.09,1,0,1.37-.2S207.23,205.12,207.58,205Z" transform="translate(-139.14 -117.83)"/>
            <path class="cls-43" d="M202.75,214.39a3.86,3.86,0,0,0-1.18,2.27C200.6,216.25,201.57,214.15,202.75,214.39Z" transform="translate(-139.14 -117.83)"/>
            <path class="cls-43" d="M210.14,214.49c0-.09.12-.07.2-.1a1.55,1.55,0,0,1,.78.3c.46.4.83,1.64.2,2C211,216.19,210.93,214.79,210.14,214.49Z" transform="translate(-139.14 -117.83)"/>
            <path class="cls-43" d="M216.74,214.79c.41-.3,1.07.85.39,1.08C216.93,215.58,217.05,215,216.74,214.79Z" transform="translate(-139.14 -117.83)"/>
            <path class="cls-42" d="M194.87,191.74c-.21.19-.72.06-.89.3,1.61,1.22,3.86,2.62,3.94,5.12.05,1.25-.69,2.44-.49,4,0,.41.42-.07.49.19a1.79,1.79,0,0,0,.7,1.68c.2,0,.18-.14.19-.3a15,15,0,0,1,1.38,1c0,2.13-1.11,3.16-1.48,4.92-2.71-1.33-4.88,1.71-3.35,4-.69.88-1.68,1.47-2.16,2.56.25.06.84-.4,1.18-.59-.14.72-.93,2.52-.2,3.55.28-.06.18-.48.3-.69.34.9.64,1.85,1.48,2.26.22-.08,0-.51-.1-.59,1,.73,2.12,2.21,4.23,2.17.09-.19-.49-.56-.79-.69,1.16.08,2.91,1.06,4.43.49a1.49,1.49,0,0,0-.78-.29,12.13,12.13,0,0,0,6.5-1.78c-.08-.22-.56,0-.79-.1.62-.2,1.3-.34,1.87-.59a27.82,27.82,0,0,0-3.65-.69c0-.13.25-.08.4-.09-.17-.39-.76-.36-1.28-.4a1.77,1.77,0,0,0,.39-1.28,2.85,2.85,0,0,1,.2,1c1.42,1,3.85,0,5.32-.2,2.1-.3,6,.61,6-1.38,0-.73-.68-1-1.38-1.28.49-.87,1.46-1.8,1.48-3.15a2.6,2.6,0,0,0-3.85-2.27c-.41-1.71-1.51-2.75-1.47-4.92.42-.29,1.13-1.24,1.47-.69a1.87,1.87,0,0,0,.79-1.78c.19-.09.33.3.4,0,.41-1.57-.54-2.83-.5-4.13.09-2.46,2.44-3.79,3.94-5.12-.1-.23-.45-.21-.78-.2v-.1h.88v29.75H193.1V191.74Z" transform="translate(-139.14 -117.83)"/>
            <path class="cls-43" d="M212,192.73a19.73,19.73,0,0,1,4.33-.5,5.35,5.35,0,0,0-2.46,1.78C213.83,193.36,212.75,193,212,192.73Z" transform="translate(-139.14 -117.83)"/>
            <path class="cls-8" d="M214.27,195.68c.06-.28.16.15.3.1.31-.48-.15-1.14-.4-1.68a5.42,5.42,0,0,1,3.75-1.87,8,8,0,0,0-3.25,4.14C214.47,196.2,214.51,195.81,214.27,195.68Z" transform="translate(-139.14 -117.83)"/>
            <path class="cls-43" d="M212.89,193.61a13.16,13.16,0,0,1,1.19.89c0,.2-.29,0-.3-.1-.22.2.46.33.39.69-.2,0-.19-.27-.39-.3a20.17,20.17,0,0,1,1.28,6.11c-.57.15-.27,1.17-.59,1.58-.24-.1.14-.38,0-.69-.41.47-.72,1.05-1.38,1.28.16-.27.42-.44.59-.69a13,13,0,0,1-6.4,2.36,8.75,8.75,0,0,0,5-1.08c0,3.21,3.07,7.06.5,10,.06.21.32-.19.39-.3.31.16-.2.31-.2.49a4.84,4.84,0,0,0,1.28-4.82c3.35-1.33,3.9,3.24,2,4.63-.46,0-.63-.2-1,0,.1.16.42.1.59.19-.2.23-.82,0-1.18.1,1.14.27,2.33.49,2.07,2.17a3.92,3.92,0,0,1-1.09.2c-.08-1-.29-1.94-1.28-2.07a1.81,1.81,0,0,1,1,2.16,32.47,32.47,0,0,1-3.25.2c.12-1.63-.58-2.44-1.88-2.66-.07-.81-.25-1.51-.29-2.36.32-.6.94-.9.89-1.87a4.87,4.87,0,0,1-.79,1.18c-.14,0-.08-.25-.1-.39a6.21,6.21,0,0,0-.2,3.54,2.94,2.94,0,0,0-1.28,1c.49-.11.81-.38,1.28-.5a2.62,2.62,0,0,1,1.09,2.17,1.08,1.08,0,0,1-.89.3,2,2,0,0,0-.89-2,1.94,1.94,0,0,1,.4,1.87,4.78,4.78,0,0,1-2.47-.1c-.27-2.09-.23-4.49-.69-6.4a57.8,57.8,0,0,1-.49,6.5,7.81,7.81,0,0,1-2.46,0,2.12,2.12,0,0,1,.39-1.78A1.74,1.74,0,0,0,203,217c-.45.08-.56-.17-.89-.2,0-1.09.32-1.92,1.08-2.27a5.74,5.74,0,0,1,1.09.5c0-.34-.68-.83-1.18-1a6.71,6.71,0,0,0-.1-3.64c-.22,0,0,.35-.1.49-.26-.36-.67-.58-.69-1.18a1.62,1.62,0,0,0,.79,1.77,16.63,16.63,0,0,1-.4,2.46,2.11,2.11,0,0,0-1.77,2.66,13.41,13.41,0,0,1-3.35-.29c0-1.05.19-1.86,1.08-2-.91-.22-1.28.94-1.28,2a3.84,3.84,0,0,1-1.08-.2c-.38-1.39.72-2.09,2.07-2.07-.2-.23-.82,0-1.18-.1,0-.21.25-.21.49-.19-.12-.42-.53,0-.89-.1-2-1.41-1.46-5.9,2-4.63a4.93,4.93,0,0,0,1.17,4.82c.22-.06-.18-.32-.29-.39.09-.27.22.22.39.2a6.73,6.73,0,0,1-.88-3.75c.2-2.22,1.74-3.77,1.57-6.2a9.87,9.87,0,0,0,4.93,1.18c-2.3-.59-4.79-1-6.21-2.46-.1.11.29.56.49.69-.42-.07-1.07-.77-1.37-1.28-.27.09.13.31,0,.59-.37-.35-.19-1.59-.6-1.58a16.1,16.1,0,0,1,1.29-5.91c0-.21-.31.14-.4.2s.18-.6.49-.59c-.62,0,.31-.72.79-.79-.1-.28-.42,0-.59,0,3.58-1.56,10.36-1.4,14.09-.1C213.37,193.91,213.15,193.51,212.89,193.61ZM207,197.45a8.06,8.06,0,0,1-.1-2.66A3,3,0,0,0,207,197.45Zm-1-.39c-.39.78.11.23.2-.39a2.6,2.6,0,0,0-.3-1.78A10.76,10.76,0,0,1,206,197.06Zm-6.89,1.77c.39,0,.68-.17,1.08-.2.37,2,3.52,1.93,4.33.4.08.2.74.29,1,.2C204.27,198.12,200.54,197.42,199.11,198.83Zm8.27.49c.48-.18,1,0,1-.29.78,1.63,3.95,1.46,4.34-.4.39,0,.79.38,1.08.1C212.18,197.57,208.49,198,207.38,199.32Zm-2,.89v.3c.18.31.78.21.88.59-1,.29-2.08.48-2.45,1.38,1.16-1.1,4-1.17,5.11,0-.33-.95-1.45-1.11-2.46-1.38.15-.44,1.21-.28.89-.89A4.1,4.1,0,0,0,205.41,200.21Zm5.81.2c-.65.3-1.64-.12-2-.1C209.67,200.53,210.77,200.84,211.22,200.41Zm-9.75,0a2,2,0,0,0,2-.1A4.16,4.16,0,0,1,201.47,200.41Zm1.38.39c-.3.06-.85-.12-1,.1C202.16,200.84,202.71,201,202.85,200.8Zm8.37,0c-.36.06-1-.13-1.18.1C210.4,200.84,211,201,211.22,200.8Zm-9.26,1a9.38,9.38,0,0,0,2.56-.79A5,5,0,0,0,202,201.79Zm9,0c.28,0,.14,0-.09-.1a4.21,4.21,0,0,0-2.56-.59C209.61,201.38,210.13,201.74,210.92,201.79Zm-9,1.28c.73-.64,1.73-1,2.46-1.68A4.58,4.58,0,0,0,201.87,203.07Zm9.25-.1c-.83-.45-1.57-1.52-2.56-1.48C209.43,201.9,210.32,202.81,211.12,203Zm-5.51.49c.37,0,.83-.34.68-.49C206.13,203.2,205.79,203.25,205.61,203.46Zm1.67,0c-.29,0-.63-.55-.79-.39C206.64,203.25,207,203.75,207.28,203.46Zm-1.28.39c.28-.32.62-.08,1,0C207,203.33,205.68,203.57,206,203.85Zm.88,1.09c-.41.15-2,.11-1.37.2a7.6,7.6,0,0,0,2.07-.1C207.23,205.12,207.2,204.89,206.88,204.94Z" transform="translate(-139.14 -117.83)"/>
            <path class="cls-7" d="M194.87,191.74h2.07c1.66.24,3.5.31,5,.69a31.26,31.26,0,0,1,9.06,0,43.06,43.06,0,0,1,4.93-.69H218v.1c.33,0,.68,0,.78.2-1.5,1.33-3.85,2.66-3.94,5.12,0,1.3.91,2.56.5,4.13-.07.3-.21-.09-.4,0a1.87,1.87,0,0,1-.79,1.78c-.34-.55-1,.4-1.47.69,0,2.17,1.06,3.21,1.47,4.92A2.6,2.6,0,0,1,218,211c0,1.35-1,2.28-1.48,3.15.7.23,1.38.55,1.38,1.28,0,2-3.91,1.08-6,1.38-1.47.21-3.9,1.19-5.32.2a2.85,2.85,0,0,0-.2-1,1.77,1.77,0,0,1-.39,1.28c.52,0,1.11,0,1.28.4-.15,0-.36,0-.4.09a27.82,27.82,0,0,1,3.65.69c-.57.25-1.25.39-1.87.59.23.06.71-.12.79.1a12.13,12.13,0,0,1-6.5,1.78,1.49,1.49,0,0,1,.78.29c-1.52.57-3.27-.41-4.43-.49.3.13.88.5.79.69-2.11,0-3.22-1.44-4.23-2.17.09.08.32.51.1.59-.84-.41-1.14-1.36-1.48-2.26-.12.21,0,.63-.3.69-.73-1,.06-2.83.2-3.55-.34.19-.93.65-1.18.59.48-1.09,1.47-1.68,2.16-2.56-1.53-2.33.64-5.37,3.35-4,.37-1.76,1.48-2.79,1.48-4.92a15,15,0,0,0-1.38-1c0,.16,0,.34-.19.3a1.79,1.79,0,0,1-.7-1.68c-.07-.26-.46.22-.49-.19-.2-1.6.54-2.79.49-4-.08-2.5-2.33-3.9-3.94-5.12C194.15,191.8,194.66,191.93,194.87,191.74Zm18.62,1.87c-3.73-1.3-10.51-1.46-14.09.1.17,0,.49-.28.59,0-.48.07-1.41.81-.79.79-.31,0-.59.51-.49.59s.36-.41.4-.2a16.1,16.1,0,0,0-1.29,5.91c.41,0,.23,1.23.6,1.58.13-.28-.27-.5,0-.59.3.51,1,1.21,1.37,1.28-.2-.13-.59-.58-.49-.69,1.42,1.46,3.91,1.87,6.21,2.46a9.87,9.87,0,0,1-4.93-1.18c.17,2.43-1.37,4-1.57,6.2a6.73,6.73,0,0,0,.88,3.75c-.17,0-.3-.47-.39-.2.11.07.51.33.29.39a4.93,4.93,0,0,1-1.17-4.82c-3.44-1.27-4,3.22-2,4.63.36.06.77-.32.89.1-.24,0-.48,0-.49.19.36.06,1-.13,1.18.1-1.35,0-2.45.68-2.07,2.07a3.84,3.84,0,0,0,1.08.2c0-1,.37-2.19,1.28-2-.89.11-1.11.92-1.08,2a13.41,13.41,0,0,0,3.35.29,2.11,2.11,0,0,1,1.77-2.66,16.63,16.63,0,0,0,.4-2.46,1.62,1.62,0,0,1-.79-1.77c0,.6.43.82.69,1.18.05-.14-.12-.51.1-.49a6.71,6.71,0,0,1,.1,3.64c.5.16,1.18.65,1.18,1a5.74,5.74,0,0,0-1.09-.5c-.76.35-1,1.18-1.08,2.27.33,0,.44.28.89.2a1.74,1.74,0,0,1,.78-1.88,2.12,2.12,0,0,0-.39,1.78,7.81,7.81,0,0,0,2.46,0,57.8,57.8,0,0,0,.49-6.5c.46,1.91.42,4.31.69,6.4a4.78,4.78,0,0,0,2.47.1,1.94,1.94,0,0,0-.4-1.87,2,2,0,0,1,.89,2,1.08,1.08,0,0,0,.89-.3,2.62,2.62,0,0,0-1.09-2.17c-.47.12-.79.39-1.28.5a2.94,2.94,0,0,1,1.28-1,6.21,6.21,0,0,1,.2-3.54c0,.14,0,.36.1.39a4.87,4.87,0,0,0,.79-1.18c0,1-.57,1.27-.89,1.87,0,.85.22,1.55.29,2.36,1.3.22,2,1,1.88,2.66a32.47,32.47,0,0,0,3.25-.2,1.81,1.81,0,0,0-1-2.16c1,.13,1.2,1,1.28,2.07a3.92,3.92,0,0,0,1.09-.2c.26-1.68-.93-1.9-2.07-2.17.36-.06,1,.13,1.18-.1-.17-.09-.49,0-.59-.19.35-.2.52,0,1,0,1.93-1.39,1.38-6-2-4.63A4.84,4.84,0,0,1,213,213.8c0-.18.51-.33.2-.49-.07.11-.33.51-.39.3,2.57-2.89-.52-6.74-.5-10a8.75,8.75,0,0,1-5,1.08,13,13,0,0,0,6.4-2.36c-.17.25-.43.42-.59.69.66-.23,1-.81,1.38-1.28.14.31-.24.59,0,.69.32-.41,0-1.43.59-1.58a20.17,20.17,0,0,0-1.28-6.11c.2,0,.19.27.39.3.07-.36-.61-.49-.39-.69,0,.08.33.3.3.1a13.16,13.16,0,0,0-1.19-.89C213.15,193.51,213.37,193.91,213.49,193.61Zm-15.37,2.66c.35,0,.23-.43.39-.59-.18-.09-.32.3-.39,0a3.6,3.6,0,0,1,.59-1.58c-.94-.86-2.17-2-3.84-1.77A6.82,6.82,0,0,1,198.12,196.27Zm1-2.36c-.08-.71,1.27-.83,1.77-1.28-1.45-.07-3-.56-4.43-.3C197.69,192.44,198.42,193.58,199.11,193.91Zm14.77.1a5.35,5.35,0,0,1,2.46-1.78,19.73,19.73,0,0,0-4.33.5C212.75,193,213.83,193.36,213.88,194Zm.79,2.36a8,8,0,0,1,3.25-4.14,5.42,5.42,0,0,0-3.75,1.87c.25.54.71,1.2.4,1.68-.14.05-.24-.38-.3-.1C214.51,195.81,214.47,196.2,214.67,196.37ZM199.11,220.9a2.68,2.68,0,0,1-.89-1.38,6.82,6.82,0,0,0,3.94,1.38c-.42-.15-1.12-.52-1.08-.79a9.93,9.93,0,0,0,6.79-.69,2.53,2.53,0,0,1-1.18-.3,16.06,16.06,0,0,0,2.46-.69c-1.36-.31-3-.38-4.33-.69.06-.13.38,0,.39-.19-1.12-.08-2.44.18-3.25.1,0-.23.29-.11.3-.3a9.87,9.87,0,0,1-2.86.1c.3-.13.71-.15.79-.49-1.82-.16-5.6,0-5.22-1.88.13-.66.94-.72,1.48-1.18-.3-.16-.62-.3-.69-.69a4.1,4.1,0,0,0-1.28,1.09,5.68,5.68,0,0,1,.88-.2,3.64,3.64,0,0,0-1,2.86c0-.23.1-.43.29-.5a5.42,5.42,0,0,0,.69,2.27c.06-.3-.12-.85.1-1A6,6,0,0,0,199.11,220.9Zm2.46-4.24a3.86,3.86,0,0,1,1.18-2.27C201.57,214.15,200.6,216.25,201.57,216.66Zm9.75,0c.63-.33.26-1.57-.2-2a1.55,1.55,0,0,0-.78-.3c-.08,0-.2,0-.2.1C210.93,214.79,211,216.19,211.32,216.66Zm-16-1.18c.13.17.21.39.5.39-.15-.58.31-1.06.19-1.28C195.84,214.9,195.38,215,195.36,215.48Zm21.77.39c.68-.23,0-1.38-.39-1.08C217.05,215,216.93,215.58,217.13,215.87ZM201,217.15c0-.28.67.09.69-.19C201.35,216.81,200.77,216.9,201,217.15Z" transform="translate(-139.14 -117.83)"/>
            <path class="cls-7" d="M205.9,194.89a2.6,2.6,0,0,1,.3,1.78c-.09.62-.59,1.17-.2.39A10.76,10.76,0,0,0,205.9,194.89Z" transform="translate(-139.14 -117.83)"/>
            <path class="cls-7" d="M209.25,200.31c.33,0,1.32.4,2,.1C210.77,200.84,209.67,200.53,209.25,200.31Z" transform="translate(-139.14 -117.83)"/>
            <path class="cls-7" d="M203.44,200.31a2,2,0,0,1-2,.1A4.16,4.16,0,0,0,203.44,200.31Z" transform="translate(-139.14 -117.83)"/>
            <path class="cls-7" d="M208.27,201.1a4.21,4.21,0,0,1,2.56.59c.23.13.37.11.09.1C210.13,201.74,209.61,201.38,208.27,201.1Z" transform="translate(-139.14 -117.83)"/>
            <path class="cls-7" d="M204.33,201.39c-.73.66-1.73,1-2.46,1.68A4.58,4.58,0,0,1,204.33,201.39Z" transform="translate(-139.14 -117.83)"/>
            <path class="cls-7" d="M208.56,201.49c1,0,1.73,1,2.56,1.48C210.32,202.81,209.43,201.9,208.56,201.49Z" transform="translate(-139.14 -117.83)"/>
            <path class="cls-7" d="M206.29,203c.15.15-.31.53-.68.49C205.79,203.25,206.13,203.2,206.29,203Z" transform="translate(-139.14 -117.83)"/>
            <path class="cls-7" d="M206.49,203.07c.16-.16.5.35.79.39C207,203.75,206.64,203.25,206.49,203.07Z" transform="translate(-139.14 -117.83)"/>
            <path class="cls-7" d="M207,203.85c-.36-.08-.7-.32-1,0C205.68,203.57,207,203.33,207,203.85Z" transform="translate(-139.14 -117.83)"/>
            <path class="cls-43" d="M195.46,217.74c-.22.14,0,.69-.1,1a5.42,5.42,0,0,1-.69-2.27c-.19.07-.26.27-.29.5a3.64,3.64,0,0,1,1-2.86,5.68,5.68,0,0,0-.88.2,4.1,4.1,0,0,1,1.28-1.09c.07.39.39.53.69.69-.54.46-1.35.52-1.48,1.18-.38,1.93,3.4,1.72,5.22,1.88-.08.34-.49.36-.79.49a9.87,9.87,0,0,0,2.86-.1c0,.19-.33.07-.3.3.81.08,2.13-.18,3.25-.1,0,.18-.33.06-.39.19,1.36.31,3,.38,4.33.69a16.06,16.06,0,0,1-2.46.69,2.53,2.53,0,0,0,1.18.3,9.93,9.93,0,0,1-6.79.69c0,.27.66.64,1.08.79a6.82,6.82,0,0,1-3.94-1.38,2.68,2.68,0,0,0,.89,1.38A6,6,0,0,1,195.46,217.74Z" transform="translate(-139.14 -117.83)"/>
            <path class="cls-42" d="M196.05,214.59c.12.22-.34.7-.19,1.28-.29,0-.37-.22-.5-.39C195.38,215,195.84,214.9,196.05,214.59Z" transform="translate(-139.14 -117.83)"/>
            <path class="cls-42" d="M201.67,217c0,.28-.68-.09-.69.19C200.77,216.9,201.35,216.81,201.67,217Z" transform="translate(-139.14 -117.83)"/>
          </g>
          <rect class="cls-34" x="53.52" y="73.91" width="26.68" height="29.75"/>
        </g>
        <rect x="56.16" y="98.59" width="0.63" height="2.3"/>
        <polygon points="60.52 98.91 59.49 102.23 60.2 103.19 60.2 101.44 60.52 98.91"/>
        <polygon points="62.66 107.78 63.77 104.45 62.9 104.37 62.66 107.78"/>
        <polygon points="62.98 98.99 62.98 101.13 63.61 100.81 63.53 99.23 62.98 98.99"/>
        <path d="M206.08,220.86c-.4.16-.4,1.82-.56,2.06a22,22,0,0,0-.4,2.85l1.12-3Z" transform="translate(-139.14 -117.83)"/>
        <polygon points="70.11 100.73 69.55 103.19 70.26 103.82 70.42 105.4 70.66 102.08 70.11 100.73"/>
        <polygon points="73.51 98.19 72.8 99.7 73.27 102.23 73.83 100.57 73.35 99.38 73.51 98.19"/>
        <path d="M217.17,224.19a10,10,0,0,0,1.19,1.82,7.7,7.7,0,0,1,1.1,1.27l-.63.47-1.19-1.35Z" transform="translate(-139.14 -117.83)"/>
        <path d="M193.09,226.4l-1.59,1.19s-.16.79.08.79,1.43-1.1,1.43-1.1Z" transform="translate(-139.14 -117.83)"/>
      </g>
      <g>
        <path class="cls-44" d="M151.56,201.07a1.5,1.5,0,0,1-1.47,1.23h0a1.06,1.06,0,0,1-1.11-1.23l.38-2.7a1.5,1.5,0,0,1,1.47-1.23h0a1.06,1.06,0,0,1,1.11,1.23Z" transform="translate(-139.14 -117.83)"/>
        <path class="cls-45" d="M159.08,208.59l-8.62-1.44h-.26l-8.61,1.44c-.58,3.49-1.61,16.5,6.54,18.3h0c1.23.23,1.22,1.46,2.2,1.46s1-1.23,2.21-1.46h0C160.69,225.08,159.65,212.08,159.08,208.59Z" transform="translate(-139.14 -117.83)"/>
        <path class="cls-46" d="M156.35,202.88c-3.66-1.13-4.51-1.74-4.68-2.12H149c-.17.38-1,1-4.68,2.12s-4.82,3.28-4.92,4.65,1.06,2.42,1.84,3.07c.21-1.64,7-1.74,9.1-1.74s8.88.1,9.09,1.74c.78-.65,1.94-1.71,1.84-3.07S160,204,156.35,202.88Z" transform="translate(-139.14 -117.83)"/>
        <polygon class="cls-47" points="12.45 88.57 11.19 90.02 9.94 88.57 11.19 87.12 12.45 88.57"/>
        <polygon class="cls-47" points="12.45 85.18 11.19 86.63 9.94 85.18 11.19 83.73 12.45 85.18"/>
        <polyline class="cls-47" points="8.16 90.74 7.79 90.31 9.04 88.86 10.29 90.31 10.04 90.6"/>
        <polygon class="cls-47" points="10.29 86.93 9.04 88.38 7.79 86.93 9.04 85.48 10.29 86.93"/>
        <polygon class="cls-47" points="8.04 88.36 6.78 89.81 5.53 88.36 6.78 86.91 8.04 88.36"/>
        <polyline class="cls-47" points="7.74 84.63 8.04 84.98 6.78 86.43 5.83 85.32"/>
        <polyline class="cls-47" points="4.66 91.03 4.17 90.26 5.09 88.81 6.01 90.26 5.67 90.8"/>
        <polygon class="cls-47" points="6.01 86.88 5.09 88.33 4.17 86.88 5.09 85.42 6.01 86.88"/>
        <polygon class="cls-47" points="4.37 88.62 3.45 90.07 2.53 88.62 3.45 87.17 4.37 88.62"/>
        <polygon class="cls-47" points="2.72 90.52 2.02 91.97 1.31 90.52 2.02 89.06 2.72 90.52"/>
        <polyline class="cls-47" points="2.67 86.57 2.77 86.77 2.07 88.22 1.7 87.47"/>
        <polyline class="cls-47" points="14.23 90.74 14.6 90.31 13.35 88.86 12.09 90.31 12.34 90.6"/>
        <polygon class="cls-47" points="12.09 86.93 13.35 88.38 14.6 86.93 13.35 85.48 12.09 86.93"/>
        <polygon class="cls-47" points="14.35 88.36 15.6 89.81 16.85 88.36 15.6 86.91 14.35 88.36"/>
        <polyline class="cls-47" points="14.65 84.63 14.35 84.98 15.6 86.43 16.56 85.32"/>
        <polyline class="cls-47" points="17.73 91.03 18.21 90.26 17.29 88.81 16.38 90.26 16.72 90.8"/>
        <polygon class="cls-47" points="16.38 86.88 17.29 88.33 18.21 86.88 17.29 85.42 16.38 86.88"/>
        <polygon class="cls-47" points="18.02 88.62 18.93 90.07 19.85 88.62 18.93 87.17 18.02 88.62"/>
        <polygon class="cls-47" points="19.66 90.52 20.37 91.97 21.07 90.52 20.37 89.06 19.66 90.52"/>
        <polyline class="cls-47" points="19.71 86.57 19.61 86.77 20.32 88.22 20.68 87.47"/>
        <path class="cls-48" d="M145.24,210.17l-2.5.36c-.1,5.23-.36,12.28,5.17,15.18C145.6,222.74,144.59,214.4,145.24,210.17Z" transform="translate(-139.14 -117.83)"/>
        <path class="cls-49" d="M155.56,210.17l2.51.36c.1,5.23.35,12.28-5.17,15.18C155.2,222.74,156.21,214.4,155.56,210.17Z" transform="translate(-139.14 -117.83)"/>
      </g>
      <g>
        <path class="cls-4" d="M293.1,258.19c-5.29.35-9.9-.9-14.05-2-5.56-1.51-10.81-2.93-19.22-.78l-5.64-5.28c10.56-2.7,18.19-.64,24.34,1,4.56,1.24,7.86,2.13,12.4,1.31a17.45,17.45,0,0,0,4.05-1.17l-.73,1.64.67.85.08,1.43-.25,2.53Z" transform="translate(-139.14 -117.83)"/>
        <path class="cls-4" d="M292.78,261.9c-.92-.23-1.82-.47-2.7-.71-5.56-1.51-10.82-2.93-19.22-.77l-5.65-5.29c10.56-2.71,18.21-.64,24.35,1,1.35.37,2.6.71,3.8,1,0,0,1.31.51,2.06.85l-1.17.67.17,1.1-.67,1.1,1.5.75Z" transform="translate(-139.14 -117.83)"/>
        <path class="cls-4" d="M293.67,268.35a59,59,0,0,1-6-1.56c-5.55-1.51-10.81-2.93-19.22-.77l-5.64-5.28c10.56-2.72,18.2-.64,24.35,1a44.34,44.34,0,0,0,7.15,1.53l-1.77,1.77.34,1.52Z" transform="translate(-139.14 -117.83)"/>
        <path class="cls-4" d="M293,269.09a29.94,29.94,0,0,0-13.88-1l-4.76-5.86a40.09,40.09,0,0,1,19.82,2.08l-.49.83.92,1.26-.25,2.54Z" transform="translate(-139.14 -117.83)"/>
        <path class="cls-4" d="M293.78,252.47c-4.86.13-9.14-1-13-2.07-5.57-1.51-10.81-2.93-19.22-.77l-5.65-5.28c10.56-2.72,18.21-.64,24.35,1,4.56,1.24,7.86,2.13,12.4,1.32.4-.08.77-.15,1.13-.24a2.52,2.52,0,0,1-1.44,1.5l1.75.67.5,1.35Z" transform="translate(-139.14 -117.83)"/>
        <polygon points="122.77 127.08 130.47 126.51 133.83 128 128.81 127.73 122.77 127.08"/>
        <polygon points="141.23 130.45 149.45 133.03 154.77 131.63 148.03 130.9 141.23 130.45"/>
        <polygon points="129.03 132.55 127.09 132.96 121.89 134.04 127.98 134.41 129.03 132.55"/>
        <polygon points="144.77 138.43 138.98 138.18 136.61 139.52 142.49 139.03 150.01 141.53 154.73 141.48 148.22 139.37 144.77 138.43"/>
        <polygon points="154.25 148.25 148.36 146.77 143.85 147.69 149.22 147.99 154.25 148.25"/>
        <polygon points="137.81 144.22 134.47 144.7 139.14 144.92 137.81 144.22"/>
        <polygon class="cls-8" points="134.1 142.69 129.96 145.62 128.48 143.77 134.1 142.69"/>
        <polygon class="cls-9" points="155.38 136.63 147.87 136.1 151.93 137.66 155.38 136.63"/>
        <polygon class="cls-9" points="136.56 137.03 130.37 137.21 132.77 140 136.56 137.03"/>
      </g>
      <g>
        <path class="cls-10" d="M274.5,238c2.83-33.67-.35-71.42-8.25-91.25" transform="translate(-139.14 -117.83)"/>
        <polygon points="137.26 119.78 135.12 122.85 133.53 119.47 137.26 119.78"/>
      </g>
      <g>
        <path class="cls-10" d="M349,199.33c18-19.66,57.33-21.66,57.33-35.33" transform="translate(-139.14 -117.83)"/>
        <polygon points="211.6 82.35 208.03 83.48 208.84 79.83 211.6 82.35"/>
      </g>
      <g>
        <path class="cls-10" d="M344.5,159.5c3.5-3.25,6.75-9.25,4.5-17.75" transform="translate(-139.14 -117.83)"/>
        <polygon points="207.02 42.66 203.38 43.49 204.48 39.92 207.02 42.66"/>
      </g>
    </g>
  </g>
</svg>
