<?xml version="1.0" encoding="UTF-8" standalone="no"?>
<svg
   xmlns:dc="http://purl.org/dc/elements/1.1/"
   xmlns:cc="http://creativecommons.org/ns#"
   xmlns:rdf="http://www.w3.org/1999/02/22-rdf-syntax-ns#"
   xmlns:svg="http://www.w3.org/2000/svg"
   xmlns="http://www.w3.org/2000/svg"
   xmlns:sodipodi="http://sodipodi.sourceforge.net/DTD/sodipodi-0.dtd"
   xmlns:inkscape="http://www.inkscape.org/namespaces/inkscape"
   version="1.1"
   id="svg2"
   xml:space="preserve"
   width="362.00891"
   height="295.7782"
   viewBox="0 0 362.00891 295.7782"
   sodipodi:docname="04-20.ai"><metadata
     id="metadata8"><rdf:RDF><cc:Work
         rdf:about=""><dc:format>image/svg+xml</dc:format><dc:type
           rdf:resource="http://purl.org/dc/dcmitype/StillImage" /></cc:Work></rdf:RDF></metadata><defs
     id="defs6"><clipPath
       clipPathUnits="userSpaceOnUse"
       id="clipPath18"><path
         d="M 0,792 H 612 V 0 H 0 Z"
         id="path16" /></clipPath><linearGradient
       x1="0"
       y1="0"
       x2="1"
       y2="0"
       gradientUnits="userSpaceOnUse"
       gradientTransform="matrix(50.909668,0,0,-50.909668,245.82373,640.57227)"
       spreadMethod="pad"
       id="linearGradient704"><stop
         style="stop-opacity:1;stop-color:#5ec45b"
         offset="0"
         id="stop700" /><stop
         style="stop-opacity:1;stop-color:#dbf1cb"
         offset="1"
         id="stop702" /></linearGradient><linearGradient
       x1="0"
       y1="0"
       x2="1"
       y2="0"
       gradientUnits="userSpaceOnUse"
       gradientTransform="matrix(48.576172,0,0,-48.576172,246.73242,640.57178)"
       spreadMethod="pad"
       id="linearGradient724"><stop
         style="stop-opacity:1;stop-color:#dbf1cb"
         offset="0"
         id="stop720" /><stop
         style="stop-opacity:1;stop-color:#5ec45b"
         offset="1"
         id="stop722" /></linearGradient><clipPath
       clipPathUnits="userSpaceOnUse"
       id="clipPath734"><path
         d="M 0,792 H 612 V 0 H 0 Z"
         id="path732" /></clipPath><linearGradient
       x1="0"
       y1="0"
       x2="1"
       y2="0"
       gradientUnits="userSpaceOnUse"
       gradientTransform="matrix(50.909668,0,0,-50.909668,245.04297,460.13086)"
       spreadMethod="pad"
       id="linearGradient772"><stop
         style="stop-opacity:1;stop-color:#5ec45b"
         offset="0"
         id="stop768" /><stop
         style="stop-opacity:1;stop-color:#dbf1cb"
         offset="1"
         id="stop770" /></linearGradient><linearGradient
       x1="0"
       y1="0"
       x2="1"
       y2="0"
       gradientUnits="userSpaceOnUse"
       gradientTransform="matrix(48.576172,0,0,-48.576172,245.95166,460.13037)"
       spreadMethod="pad"
       id="linearGradient792"><stop
         style="stop-opacity:1;stop-color:#dbf1cb"
         offset="0"
         id="stop788" /><stop
         style="stop-opacity:1;stop-color:#5ec45b"
         offset="1"
         id="stop790" /></linearGradient><clipPath
       clipPathUnits="userSpaceOnUse"
       id="clipPath802"><path
         d="M 0,792 H 612 V 0 H 0 Z"
         id="path800" /></clipPath><linearGradient
       x1="0"
       y1="0"
       x2="1"
       y2="0"
       gradientUnits="userSpaceOnUse"
       gradientTransform="matrix(50.910156,0,0,-50.910156,347.12305,460.13086)"
       spreadMethod="pad"
       id="linearGradient840"><stop
         style="stop-opacity:1;stop-color:#5ec45b"
         offset="0"
         id="stop836" /><stop
         style="stop-opacity:1;stop-color:#dbf1cb"
         offset="1"
         id="stop838" /></linearGradient><linearGradient
       x1="0"
       y1="0"
       x2="1"
       y2="0"
       gradientUnits="userSpaceOnUse"
       gradientTransform="matrix(48.576172,0,0,-48.576172,348.03125,460.13037)"
       spreadMethod="pad"
       id="linearGradient860"><stop
         style="stop-opacity:1;stop-color:#dbf1cb"
         offset="0"
         id="stop856" /><stop
         style="stop-opacity:1;stop-color:#5ec45b"
         offset="1"
         id="stop858" /></linearGradient><clipPath
       clipPathUnits="userSpaceOnUse"
       id="clipPath870"><path
         d="M 0,792 H 612 V 0 H 0 Z"
         id="path868" /></clipPath><linearGradient
       x1="0"
       y1="0"
       x2="1"
       y2="0"
       gradientUnits="userSpaceOnUse"
       gradientTransform="matrix(50.910156,0,0,-50.910156,296.47266,550.35156)"
       spreadMethod="pad"
       id="linearGradient908"><stop
         style="stop-opacity:1;stop-color:#5ec45b"
         offset="0"
         id="stop904" /><stop
         style="stop-opacity:1;stop-color:#dbf1cb"
         offset="1"
         id="stop906" /></linearGradient><linearGradient
       x1="0"
       y1="0"
       x2="1"
       y2="0"
       gradientUnits="userSpaceOnUse"
       gradientTransform="matrix(48.575684,0,0,-48.575684,297.38135,550.35107)"
       spreadMethod="pad"
       id="linearGradient928"><stop
         style="stop-opacity:1;stop-color:#dbf1cb"
         offset="0"
         id="stop924" /><stop
         style="stop-opacity:1;stop-color:#5ec45b"
         offset="1"
         id="stop926" /></linearGradient><clipPath
       clipPathUnits="userSpaceOnUse"
       id="clipPath938"><path
         d="M 0,792 H 612 V 0 H 0 Z"
         id="path936" /></clipPath><linearGradient
       x1="0"
       y1="0"
       x2="1"
       y2="0"
       gradientUnits="userSpaceOnUse"
       gradientTransform="matrix(50.909668,0,0,-50.909668,194.39307,550.35156)"
       spreadMethod="pad"
       id="linearGradient976"><stop
         style="stop-opacity:1;stop-color:#5ec45b"
         offset="0"
         id="stop972" /><stop
         style="stop-opacity:1;stop-color:#dbf1cb"
         offset="1"
         id="stop974" /></linearGradient><linearGradient
       x1="0"
       y1="0"
       x2="1"
       y2="0"
       gradientUnits="userSpaceOnUse"
       gradientTransform="matrix(48.576172,0,0,-48.576172,195.30176,550.35107)"
       spreadMethod="pad"
       id="linearGradient996"><stop
         style="stop-opacity:1;stop-color:#dbf1cb"
         offset="0"
         id="stop992" /><stop
         style="stop-opacity:1;stop-color:#5ec45b"
         offset="1"
         id="stop994" /></linearGradient><clipPath
       clipPathUnits="userSpaceOnUse"
       id="clipPath1006"><path
         d="M 0,792 H 612 V 0 H 0 Z"
         id="path1004" /></clipPath></defs><sodipodi:namedview
     pagecolor="#ffffff"
     bordercolor="#666666"
     borderopacity="1"
     objecttolerance="10"
     gridtolerance="10"
     guidetolerance="10"
     inkscape:pageopacity="0"
     inkscape:pageshadow="2"
     inkscape:window-width="640"
     inkscape:window-height="480"
     id="namedview4" /><g
     id="g10"
     inkscape:groupmode="layer"
     inkscape:label="04-20"
     transform="matrix(1.3333333,0,0,-1.3333333,-215.19269,890.40551)"><g
       id="g12"><g
         id="g14"
         clip-path="url(#clipPath18)"><g
           id="g20"
           transform="translate(274.3984,653.3945)"><path
             d="M 0,0 C 6.712,6.712 18.898,10.111 23.162,10.409"
             style="fill:none;stroke:#231f20;stroke-width:0.3;stroke-linecap:butt;stroke-linejoin:miter;stroke-miterlimit:10;stroke-dasharray:none;stroke-opacity:1"
             id="path22" /></g><g
           id="g24"
           transform="translate(276.1001,652.4668)"><path
             d="m 0,0 -3.612,-0.968 0.968,3.612 z"
             style="fill:#231f20;fill-opacity:1;fill-rule:nonzero;stroke:none"
             id="path26" /></g><g
           id="g28"
           transform="translate(250.1099,586.4497)"><path
             d="M 0,0 C 0,-4.795 2.955,-5.045 2.955,-11.295"
             style="fill:none;stroke:#231f20;stroke-width:0.3;stroke-linecap:butt;stroke-linejoin:miter;stroke-miterlimit:10;stroke-dasharray:none;stroke-opacity:1"
             id="path30" /></g><g
           id="g32"
           transform="translate(248.2505,585.9028)"><path
             d="M 0,0 1.87,3.238 3.74,0 Z"
             style="fill:#231f20;fill-opacity:1;fill-rule:nonzero;stroke:none"
             id="path34" /></g><g
           id="g36"
           transform="translate(221.3335,537.333)"><path
             d="M 0,0 C 4,-18.667 -8.852,-44.262 -24.186,-44.262"
             style="fill:none;stroke:#231f20;stroke-width:0.3;stroke-linecap:butt;stroke-linejoin:miter;stroke-miterlimit:10;stroke-dasharray:none;stroke-opacity:1"
             id="path38" /></g><g
           id="g40"
           transform="translate(219.6304,536.4087)"><path
             d="M 0,0 1.149,3.558 3.656,0.783 Z"
             style="fill:#231f20;fill-opacity:1;fill-rule:nonzero;stroke:none"
             id="path42" /></g><g
           id="g44"
           transform="translate(235.5,478.5)"><path
             d="M 0,0 C -9.25,8.75 -26.446,14.571 -38.352,14.571"
             style="fill:none;stroke:#231f20;stroke-width:0.3;stroke-linecap:butt;stroke-linejoin:miter;stroke-miterlimit:10;stroke-dasharray:none;stroke-opacity:1"
             id="path46" /></g><g
           id="g48"
           transform="translate(236.3804,480.2266)"><path
             d="M 0,0 1.067,-3.583 -2.57,-2.716 Z"
             style="fill:#231f20;fill-opacity:1;fill-rule:nonzero;stroke:none"
             id="path50" /></g><text
           transform="matrix(1,0,0,-1,300.1045,661.6562)"
           style="font-variant:normal;font-weight:bold;font-stretch:condensed;font-size:9px;font-family:'Humanst521 Cn BT';-inkscape-font-specification:Humanist521BT-BoldCondensed;writing-mode:lr-tb;fill:#231f20;fill-opacity:1;fill-rule:nonzero;stroke:none"
           id="text64"><tspan
             x="0 6.2909999 10.341 13.842 16.839001 20.799 24.191999 26.496 30.455999 34.209 37.206001 41.166 45.647999 50.157001 54.117001"
             y="0"
             sodipodi:role="line"
             id="tspan52">Master extended</tspan><tspan
             x="0 4.5089998 8.9910002 13.5 15.66 17.792999 21.393 23.697001 28.656 32.616001"
             y="9.5039997"
             sodipodi:role="line"
             id="tspan54">public Key</tspan><tspan
             x="-139.16701 -134.73 -130.97701 -127.98 -124.02 -119.538 -115.029 -111.069"
             y="171.756"
             sodipodi:role="line"
             id="tspan56">Extended</tspan><tspan
             x="-139.16701 -134.658 -130.17599 -125.667 -123.507 -121.374 -117.774 -115.47 -110.511 -106.551"
             y="181.25999"
             sodipodi:role="line"
             id="tspan58">public Key</tspan><tspan
             x="74.501999 79.685997 83.646004 87.039001 89.343002 93.528 97.865997 104.607 111.348 114.345 116.649 120.699 125.181"
             y="111.834"
             sodipodi:role="line"
             id="tspan60">Der kommt auf</tspan><tspan
             x="74.501999 79.011002 82.971001 87.453003 89.757004 97.317001 101.277 105.786 108.09 112.05 116.01 119.727 123.453 127.413 130.806"
             y="121.338"
             sodipodi:role="line"
             id="tspan62">den Web Server!</tspan></text><g
           id="g66"
           transform="translate(206.481,609.3794)"><path
             d="M 0,0 V 8.334 H 50.667 V 19.211"
             style="fill:none;stroke:#231f20;stroke-width:0.5;stroke-linecap:butt;stroke-linejoin:miter;stroke-miterlimit:4;stroke-dasharray:none;stroke-opacity:1"
             id="path68" /></g><g
           id="g70"
           transform="translate(207.0825,607.6738)"><path
             d="M 0,0 C 0.283,0.951 0.547,1.571 0.85,2.334 L -2.053,2.325 c 0.131,-0.272 0.576,-1.38 0.867,-2.327 0.313,-1.018 0.524,-1.939 0.602,-2.537 0.072,0.6 0.281,1.523 0.584,2.539"
             style="fill:#231f20;fill-opacity:1;fill-rule:nonzero;stroke:none"
             id="path72" /></g><g
           id="g74"
           transform="translate(307.8145,609.3794)"><path
             d="M 0,0 V 8.334 H -50.667"
             style="fill:none;stroke:#231f20;stroke-width:0.5;stroke-linecap:butt;stroke-linejoin:miter;stroke-miterlimit:4;stroke-dasharray:none;stroke-opacity:1"
             id="path76" /></g><g
           id="g78"
           transform="translate(307.2129,607.6738)"><path
             d="M 0,0 C -0.283,0.951 -0.547,1.571 -0.85,2.334 L 2.053,2.325 C 1.922,2.053 1.477,0.945 1.186,-0.002 0.873,-1.02 0.662,-1.941 0.584,-2.539 0.512,-1.939 0.303,-1.016 0,0"
             style="fill:#231f20;fill-opacity:1;fill-rule:nonzero;stroke:none"
             id="path80" /></g><g
           id="g82"
           transform="translate(238.4819,643.3643)"><path
             d="m 0,0 c 0.987,0.054 1.215,0.116 2.25,0.272 5.985,0.9 8.594,3.403 10.583,4.935 2.223,1.707 4.139,3.179 11.433,3.671 l -4.824,3.815 C 10.233,12.072 7.508,9.976 5.101,8.125 3.933,7.231 2.869,6.414 1.1,5.758 L 1.667,4.383 0.75,3.747 -0.583,3.464 -0.167,1.979 Z"
             style="fill:#f8a45c;fill-opacity:1;fill-rule:nonzero;stroke:none"
             id="path84" /></g><g
           id="g86"
           transform="translate(238.4819,643.3643)"><path
             d="m 0,0 c 0.987,0.054 1.215,0.116 2.25,0.272 5.985,0.9 8.594,3.403 10.583,4.935 2.223,1.707 4.139,3.179 11.433,3.671 l -4.824,3.815 C 10.233,12.072 7.508,9.976 5.101,8.125 3.933,7.231 2.869,6.414 1.1,5.758 L 1.667,4.383 0.75,3.747 -0.583,3.464 -0.167,1.979 Z"
             style="fill:none;stroke:#231f20;stroke-width:0.3;stroke-linecap:butt;stroke-linejoin:miter;stroke-miterlimit:4;stroke-dasharray:none;stroke-opacity:1"
             id="path88" /></g><g
           id="g90"
           transform="translate(237.3848,640.2158)"><path
             d="m 0,0 c 4.242,-0.896 8.968,-1.602 14.374,-0.79 5.987,0.903 8.242,2.636 10.233,4.164 2.222,1.71 4.143,3.181 11.441,3.676 l -4.49,4.581 C 22.361,11.015 19.633,8.918 17.225,7.065 15.366,5.64 13.769,4.411 9.168,3.717 5.983,3.236 3.407,3.462 0.573,4 0.573,4 -0.153,4.068 -0.736,4.492 -0.903,3.926 -0.319,3.078 0.097,2.724 L 0.264,1.947 -0.57,1.805 Z"
             style="fill:#f8a45c;fill-opacity:1;fill-rule:nonzero;stroke:none"
             id="path92" /></g><g
           id="g94"
           transform="translate(237.3848,640.2158)"><path
             d="m 0,0 c 4.242,-0.896 8.968,-1.602 14.374,-0.79 5.987,0.903 8.242,2.636 10.233,4.164 2.222,1.71 4.143,3.181 11.441,3.676 l -4.49,4.581 C 22.361,11.015 19.633,8.918 17.225,7.065 15.366,5.64 13.769,4.411 9.168,3.717 5.983,3.236 3.407,3.462 0.573,4 0.573,4 -0.153,4.068 -0.736,4.492 -0.903,3.926 -0.319,3.078 0.097,2.724 L 0.264,1.947 -0.57,1.805 Z"
             style="fill:none;stroke:#231f20;stroke-width:0.3;stroke-linecap:butt;stroke-linejoin:miter;stroke-miterlimit:4;stroke-dasharray:none;stroke-opacity:1"
             id="path96" /></g><g
           id="g98"
           transform="translate(240.0908,634.4766)"><path
             d="m 0,0 c 3.197,-0.399 6.655,-0.504 10.434,0.142 5.964,1.025 8.182,2.806 10.138,4.372 2.196,1.758 5.027,3.527 12.318,4.164 l -4.581,4.494 C 19.123,12.366 15.489,9.955 13.119,8.058 11.291,6.595 9.722,5.329 5.137,4.542 3.243,4.217 1.56,4.148 -0.094,4.246 L 1.382,2.508 0.484,1.571 Z"
             style="fill:#f8a45c;fill-opacity:1;fill-rule:nonzero;stroke:none"
             id="path100" /></g><g
           id="g102"
           transform="translate(240.0908,634.4766)"><path
             d="m 0,0 c 3.197,-0.399 6.655,-0.504 10.434,0.142 5.964,1.025 8.182,2.806 10.138,4.372 2.196,1.758 5.027,3.527 12.318,4.164 l -4.581,4.494 C 19.123,12.366 15.489,9.955 13.119,8.058 11.291,6.595 9.722,5.329 5.137,4.542 3.243,4.217 1.56,4.148 -0.094,4.246 L 1.382,2.508 0.484,1.571 Z"
             style="fill:none;stroke:#231f20;stroke-width:0.3;stroke-linecap:butt;stroke-linejoin:miter;stroke-miterlimit:4;stroke-dasharray:none;stroke-opacity:1"
             id="path104" /></g><g
           id="g106"
           transform="translate(237.5796,634.1924)"><path
             d="m 0,0 c 1.743,-0.456 3.388,-1.004 5.061,-1.563 4.678,-1.552 9.965,-3.317 16.677,-2.932 6.102,0.349 8.676,1.835 10.918,3.193 3.329,2.014 5.745,3.431 12.033,2.603 L 41.104,6.254 C 31.865,6.48 28.769,4.651 26.03,3.035 23.928,1.79 22.108,0.716 17.417,0.448 12.793,0.183 9.667,1.225 5.34,2.669 4.034,3.104 2.656,3.562 1.182,3.998 L 0.735,1.536 -1.181,1.465 c 0,0 0.112,-1.021 1.181,-1.465"
             style="fill:#f8a45c;fill-opacity:1;fill-rule:nonzero;stroke:none"
             id="path108" /></g><g
           id="g110"
           transform="translate(237.5796,634.1924)"><path
             d="m 0,0 c 1.743,-0.456 3.388,-1.004 5.061,-1.563 4.678,-1.552 9.965,-3.317 16.677,-2.932 6.102,0.349 8.676,1.835 10.918,3.193 3.329,2.014 5.745,3.431 12.033,2.603 L 41.104,6.254 C 31.865,6.48 28.769,4.651 26.03,3.035 23.928,1.79 22.108,0.716 17.417,0.448 12.793,0.183 9.667,1.225 5.34,2.669 4.034,3.104 2.656,3.562 1.182,3.998 L 0.735,1.536 -1.181,1.465 c 0,0 0.112,-1.021 1.181,-1.465 z"
             style="fill:none;stroke:#231f20;stroke-width:0.3;stroke-linecap:butt;stroke-linejoin:miter;stroke-miterlimit:4;stroke-dasharray:none;stroke-opacity:1"
             id="path112" /></g><g
           id="g114"
           transform="translate(238.3774,648.1172)"><path
             d="m 0,0 c 1.313,0.029 2.668,0.137 4.07,0.348 5.988,0.907 8.242,2.637 10.231,4.17 2.224,1.702 4.144,3.183 11.444,3.669 l -4.492,4.586 C 14.271,12.788 10.604,10.288 7.854,8.371 6.097,7.146 3.744,5.769 0.002,5.051 c 0,0 -0.814,-0.048 -1.398,0.094 0,0 0.834,-1.272 2,-1.414 L -0.813,2.812 -0.729,1.61 Z"
             style="fill:#f8a45c;fill-opacity:1;fill-rule:nonzero;stroke:none"
             id="path116" /></g><g
           id="g118"
           transform="translate(238.3774,648.1172)"><path
             d="m 0,0 c 1.313,0.029 2.668,0.137 4.07,0.348 5.988,0.907 8.242,2.637 10.231,4.17 2.224,1.702 4.144,3.183 11.444,3.669 l -4.492,4.586 C 14.271,12.788 10.604,10.288 7.854,8.371 6.097,7.146 3.744,5.769 0.002,5.051 c 0,0 -0.814,-0.048 -1.398,0.094 0,0 0.834,-1.272 2,-1.414 L -0.813,2.812 -0.729,1.61 Z"
             style="fill:none;stroke:#231f20;stroke-width:0.3;stroke-linecap:butt;stroke-linejoin:miter;stroke-miterlimit:4;stroke-dasharray:none;stroke-opacity:1"
             id="path120" /></g><g
           id="g122"
           transform="translate(263.5713,645.2617)"><path
             d="m 0,0 c -1.468,-0.104 -5.221,-0.708 -5.221,-0.708 l -2.872,-3.283 4.045,1.994 6.289,0.614 z"
             style="fill:#96cd56;fill-opacity:1;fill-rule:nonzero;stroke:none"
             id="path124" /></g><g
           id="g126"
           transform="translate(266.5576,637.1953)"><path
             d="m 0,0 -2.67,-2.356 -6.082,-1.339 3.407,-1.017 5.008,1.435 z"
             style="fill:#f9aeca;fill-opacity:1;fill-rule:nonzero;stroke:none"
             id="path128" /></g><g
           id="g130"
           transform="translate(248.8115,654.1582)"><path
             d="m 0,0 -4.153,-0.804 -4.909,-2.629 6.741,1.043 z"
             style="fill:#231f20;fill-opacity:1;fill-rule:evenodd;stroke:none"
             id="path132" /></g><g
           id="g134"
           transform="translate(254.1172,639.9756)"><path
             d="m 0,0 -5.467,-1.868 -0.6,-1.126 5.265,0.94 z"
             style="fill:#f9aeca;fill-opacity:1;fill-rule:evenodd;stroke:none"
             id="path136" /></g><g
           id="g138"
           transform="translate(258.7827,653.875)"><path
             d="m 0,0 -5.467,-1.868 -0.6,-1.126 5.265,0.94 z"
             style="fill:#f9aeca;fill-opacity:1;fill-rule:evenodd;stroke:none"
             id="path140" /></g><g
           id="g142"
           transform="translate(275.7886,638.4961)"><path
             d="m 0,0 -6.123,-1.571 -0.449,-2.085 5.068,1.668 z"
             style="fill:#231f20;fill-opacity:1;fill-rule:evenodd;stroke:none"
             id="path144" /></g><g
           id="g146"
           transform="translate(246.123,646.1348)"><path
             d="m 0,0 -7.512,0.444 4.063,-1.308 z"
             style="fill:#96cd56;fill-opacity:1;fill-rule:evenodd;stroke:none"
             id="path148" /></g><g
           id="g150"
           transform="translate(248.8735,633.5024)"><path
             d="m 0,0 -6.738,1.736 c 0,0 3.258,-2.06 4.199,-2.48 0.949,-0.417 6.926,-1.287 6.926,-1.287 z"
             style="fill:#96cd56;fill-opacity:1;fill-rule:evenodd;stroke:none"
             id="path152" /></g><g
           id="g154"
           transform="translate(257.4063,658.8096)"><path
             d="m 0,0 -6.938,-1.969 c 0,0 -2.775,-2.818 -1.657,-2.682 1.116,0.134 5.923,2.297 5.923,2.297 z"
             style="fill:#96cd56;fill-opacity:1;fill-rule:evenodd;stroke:none"
             id="path156" /></g><text
           transform="matrix(1,0,0,-1,242.832,566.3477)"
           style="font-variant:normal;font-weight:bold;font-stretch:condensed;font-size:9px;font-family:'Humanst521 Cn BT';-inkscape-font-specification:Humanist521BT-BoldCondensed;writing-mode:lr-tb;fill:#231f20;fill-opacity:1;fill-rule:nonzero;stroke:none"
           id="text160"><tspan
             x="0 5.6880002 8.4870005 11.484 15.444 18.945 21.249001 24.849001 29.34 31.473 33.632999"
             y="0"
             sodipodi:role="line"
             id="tspan158">O-tes child</tspan></text><g
           id="g162"
           transform="translate(234.7466,596.084)"><path
             d="M 0,0 H 10.033"
             style="fill:none;stroke:#231f20;stroke-width:0.5;stroke-linecap:butt;stroke-linejoin:miter;stroke-miterlimit:4;stroke-dasharray:none;stroke-opacity:1"
             id="path164" /></g><g
           id="g166"
           transform="translate(233.0415,595.4824)"><path
             d="M 0,0 C 0.951,-0.283 1.57,-0.547 2.334,-0.85 L 2.324,2.053 C 2.053,1.922 0.945,1.477 -0.002,1.186 -1.02,0.873 -1.941,0.662 -2.539,0.584 -1.939,0.512 -1.016,0.303 0,0"
             style="fill:#231f20;fill-opacity:1;fill-rule:nonzero;stroke:none"
             id="path168" /></g><path
           d="m 181.153,604.86 h 49.128 v -17.553 h -49.128 z"
           style="fill:#cce4f2;fill-opacity:1;fill-rule:nonzero;stroke:#231f20;stroke-width:0.5;stroke-linecap:butt;stroke-linejoin:round;stroke-miterlimit:10;stroke-dasharray:none;stroke-opacity:1"
           id="path170" /><text
           transform="matrix(1,0,0,-1,182.1743,593.8613)"
           style="font-variant:normal;font-weight:normal;font-stretch:normal;font-size:7px;font-family:Arial;-inkscape-font-specification:ArialMT;writing-mode:lr-tb;fill:#231f20;fill-opacity:1;fill-rule:nonzero;stroke:none"
           id="text174"><tspan
             x="0 4.6690001 8.5609999 10.115 14.007 15.561 17.507 21.399 25.298 29.190001 31.136 36.189999 40.082001 41.636002 43.189999"
             y="0"
             sodipodi:role="line"
             id="tspan172">Ableitung Child</tspan></text><g
           id="g176"
           transform="translate(289.1309,553.1436)"><path
             d="m 0,0 c 0.987,0.054 1.215,0.116 2.25,0.272 5.984,0.9 8.594,3.403 10.582,4.935 2.225,1.707 4.141,3.179 11.434,3.671 l -4.825,3.815 C 10.232,12.072 7.508,9.976 5.102,8.125 3.933,7.231 2.869,6.414 1.1,5.758 L 1.666,4.383 0.75,3.747 -0.584,3.464 -0.167,1.979 Z"
             style="fill:#f8a45c;fill-opacity:1;fill-rule:nonzero;stroke:none"
             id="path178" /></g><g
           id="g180"
           transform="translate(289.1309,553.1436)"><path
             d="m 0,0 c 0.987,0.054 1.215,0.116 2.25,0.272 5.984,0.9 8.594,3.403 10.582,4.935 2.225,1.707 4.141,3.179 11.434,3.671 l -4.825,3.815 C 10.232,12.072 7.508,9.976 5.102,8.125 3.933,7.231 2.869,6.414 1.1,5.758 L 1.666,4.383 0.75,3.747 -0.584,3.464 -0.167,1.979 Z"
             style="fill:none;stroke:#231f20;stroke-width:0.3;stroke-linecap:butt;stroke-linejoin:miter;stroke-miterlimit:4;stroke-dasharray:none;stroke-opacity:1"
             id="path182" /></g><g
           id="g184"
           transform="translate(288.0332,549.9951)"><path
             d="m 0,0 c 4.242,-0.896 8.969,-1.602 14.375,-0.79 5.986,0.903 8.242,2.636 10.232,4.164 2.223,1.71 4.143,3.181 11.442,3.676 l -4.49,4.581 C 22.361,11.015 19.633,8.918 17.225,7.065 15.367,5.64 13.77,4.411 9.168,3.717 5.983,3.236 3.407,3.462 0.574,4 c 0,0 -0.726,0.068 -1.31,0.492 C -0.902,3.926 -0.318,3.078 0.098,2.724 L 0.264,1.947 -0.569,1.805 Z"
             style="fill:#f8a45c;fill-opacity:1;fill-rule:nonzero;stroke:none"
             id="path186" /></g><g
           id="g188"
           transform="translate(288.0332,549.9951)"><path
             d="m 0,0 c 4.242,-0.896 8.969,-1.602 14.375,-0.79 5.986,0.903 8.242,2.636 10.232,4.164 2.223,1.71 4.143,3.181 11.442,3.676 l -4.49,4.581 C 22.361,11.015 19.633,8.918 17.225,7.065 15.367,5.64 13.77,4.411 9.168,3.717 5.983,3.236 3.407,3.462 0.574,4 c 0,0 -0.726,0.068 -1.31,0.492 C -0.902,3.926 -0.318,3.078 0.098,2.724 L 0.264,1.947 -0.569,1.805 Z"
             style="fill:none;stroke:#231f20;stroke-width:0.3;stroke-linecap:butt;stroke-linejoin:miter;stroke-miterlimit:4;stroke-dasharray:none;stroke-opacity:1"
             id="path190" /></g><g
           id="g192"
           transform="translate(290.7402,544.2559)"><path
             d="m 0,0 c 3.197,-0.399 6.654,-0.504 10.434,0.142 5.964,1.025 8.181,2.806 10.138,4.372 2.196,1.758 5.027,3.527 12.318,4.164 l -4.581,4.494 C 19.122,12.366 15.488,9.955 13.119,8.058 11.291,6.595 9.721,5.329 5.137,4.542 3.242,4.217 1.559,4.148 -0.094,4.246 L 1.381,2.508 0.484,1.571 Z"
             style="fill:#f8a45c;fill-opacity:1;fill-rule:nonzero;stroke:none"
             id="path194" /></g><g
           id="g196"
           transform="translate(290.7402,544.2559)"><path
             d="m 0,0 c 3.197,-0.399 6.654,-0.504 10.434,0.142 5.964,1.025 8.181,2.806 10.138,4.372 2.196,1.758 5.027,3.527 12.318,4.164 l -4.581,4.494 C 19.122,12.366 15.488,9.955 13.119,8.058 11.291,6.595 9.721,5.329 5.137,4.542 3.242,4.217 1.559,4.148 -0.094,4.246 L 1.381,2.508 0.484,1.571 Z"
             style="fill:none;stroke:#231f20;stroke-width:0.3;stroke-linecap:butt;stroke-linejoin:miter;stroke-miterlimit:4;stroke-dasharray:none;stroke-opacity:1"
             id="path198" /></g><g
           id="g200"
           transform="translate(288.2285,543.9717)"><path
             d="m 0,0 c 1.743,-0.456 3.388,-1.004 5.061,-1.563 4.677,-1.552 9.964,-3.317 16.677,-2.932 6.102,0.349 8.676,1.835 10.918,3.193 3.328,2.014 5.745,3.431 12.033,2.603 L 41.104,6.254 C 31.865,6.48 28.77,4.651 26.029,3.035 23.928,1.79 22.107,0.716 17.416,0.448 12.793,0.183 9.668,1.225 5.34,2.669 4.034,3.104 2.656,3.562 1.182,3.998 L 0.735,1.536 -1.182,1.465 c 0,0 0.114,-1.021 1.182,-1.465"
             style="fill:#f8a45c;fill-opacity:1;fill-rule:nonzero;stroke:none"
             id="path202" /></g><g
           id="g204"
           transform="translate(288.2285,543.9717)"><path
             d="m 0,0 c 1.743,-0.456 3.388,-1.004 5.061,-1.563 4.677,-1.552 9.964,-3.317 16.677,-2.932 6.102,0.349 8.676,1.835 10.918,3.193 3.328,2.014 5.745,3.431 12.033,2.603 L 41.104,6.254 C 31.865,6.48 28.77,4.651 26.029,3.035 23.928,1.79 22.107,0.716 17.416,0.448 12.793,0.183 9.668,1.225 5.34,2.669 4.034,3.104 2.656,3.562 1.182,3.998 L 0.735,1.536 -1.182,1.465 c 0,0 0.114,-1.021 1.182,-1.465 z"
             style="fill:none;stroke:#231f20;stroke-width:0.3;stroke-linecap:butt;stroke-linejoin:miter;stroke-miterlimit:4;stroke-dasharray:none;stroke-opacity:1"
             id="path206" /></g><g
           id="g208"
           transform="translate(289.0264,557.8965)"><path
             d="m 0,0 c 1.313,0.029 2.669,0.137 4.069,0.348 5.989,0.907 8.243,2.637 10.233,4.17 2.222,1.702 4.142,3.183 11.443,3.669 l -4.492,4.586 C 14.271,12.788 10.604,10.288 7.854,8.371 6.097,7.146 3.744,5.769 0.002,5.051 c 0,0 -0.814,-0.048 -1.398,0.094 0,0 0.834,-1.272 2,-1.414 L -0.813,2.812 -0.729,1.61 Z"
             style="fill:#f8a45c;fill-opacity:1;fill-rule:nonzero;stroke:none"
             id="path210" /></g><g
           id="g212"
           transform="translate(289.0264,557.8965)"><path
             d="m 0,0 c 1.313,0.029 2.669,0.137 4.069,0.348 5.989,0.907 8.243,2.637 10.233,4.17 2.222,1.702 4.142,3.183 11.443,3.669 l -4.492,4.586 C 14.271,12.788 10.604,10.288 7.854,8.371 6.097,7.146 3.744,5.769 0.002,5.051 c 0,0 -0.814,-0.048 -1.398,0.094 0,0 0.834,-1.272 2,-1.414 L -0.813,2.812 -0.729,1.61 Z"
             style="fill:none;stroke:#231f20;stroke-width:0.3;stroke-linecap:butt;stroke-linejoin:miter;stroke-miterlimit:4;stroke-dasharray:none;stroke-opacity:1"
             id="path214" /></g><g
           id="g216"
           transform="translate(314.2207,555.041)"><path
             d="m 0,0 c -1.469,-0.104 -5.221,-0.708 -5.221,-0.708 l -2.873,-3.283 4.045,1.994 6.289,0.614 z"
             style="fill:#96cd56;fill-opacity:1;fill-rule:nonzero;stroke:none"
             id="path218" /></g><g
           id="g220"
           transform="translate(317.207,546.9746)"><path
             d="m 0,0 -2.67,-2.356 -6.082,-1.339 3.406,-1.017 5.008,1.435 z"
             style="fill:#f9aeca;fill-opacity:1;fill-rule:nonzero;stroke:none"
             id="path222" /></g><g
           id="g224"
           transform="translate(299.4609,563.9375)"><path
             d="m 0,0 -4.154,-0.804 -4.909,-2.629 6.741,1.043 z"
             style="fill:#231f20;fill-opacity:1;fill-rule:evenodd;stroke:none"
             id="path226" /></g><g
           id="g228"
           transform="translate(304.7656,549.7549)"><path
             d="m 0,0 -5.467,-1.868 -0.599,-1.126 5.265,0.94 z"
             style="fill:#f9aeca;fill-opacity:1;fill-rule:evenodd;stroke:none"
             id="path230" /></g><g
           id="g232"
           transform="translate(309.4316,563.6543)"><path
             d="m 0,0 -5.467,-1.868 -0.6,-1.126 5.265,0.94 z"
             style="fill:#f9aeca;fill-opacity:1;fill-rule:evenodd;stroke:none"
             id="path234" /></g><g
           id="g236"
           transform="translate(326.4375,548.2754)"><path
             d="m 0,0 -6.123,-1.571 -0.449,-2.085 5.068,1.668 z"
             style="fill:#231f20;fill-opacity:1;fill-rule:evenodd;stroke:none"
             id="path238" /></g><g
           id="g240"
           transform="translate(296.7715,555.9141)"><path
             d="m 0,0 -7.512,0.444 4.063,-1.308 z"
             style="fill:#96cd56;fill-opacity:1;fill-rule:evenodd;stroke:none"
             id="path242" /></g><g
           id="g244"
           transform="translate(299.5225,543.2817)"><path
             d="m 0,0 -6.738,1.736 c 0,0 3.258,-2.06 4.199,-2.48 0.949,-0.417 6.926,-1.287 6.926,-1.287 z"
             style="fill:#96cd56;fill-opacity:1;fill-rule:evenodd;stroke:none"
             id="path246" /></g><g
           id="g248"
           transform="translate(308.0547,568.5889)"><path
             d="m 0,0 -6.938,-1.969 c 0,0 -2.775,-2.818 -1.656,-2.682 1.115,0.134 5.922,2.297 5.922,2.297 z"
             style="fill:#96cd56;fill-opacity:1;fill-rule:evenodd;stroke:none"
             id="path250" /></g><text
           transform="matrix(1,0,0,-1,284.6987,627.0439)"
           style="font-variant:normal;font-weight:normal;font-stretch:normal;font-size:8px;font-family:Courier;-inkscape-font-specification:Courier;writing-mode:lr-tb;fill:#231f20;fill-opacity:1;fill-rule:nonzero;stroke:none"
           id="text254"><tspan
             x="0"
             y="0"
             id="tspan252">M</tspan></text><g
           id="g256"
           transform="translate(307.7969,574.9678)"><path
             d="M 0,0 V 12.093"
             style="fill:none;stroke:#231f20;stroke-width:0.5;stroke-linecap:butt;stroke-linejoin:miter;stroke-miterlimit:4;stroke-dasharray:none;stroke-opacity:1"
             id="path258" /></g><g
           id="g260"
           transform="translate(308.3984,573.2627)"><path
             d="m 0,0 c 0.283,0.951 0.547,1.57 0.85,2.334 l -2.903,-0.01 c 0.131,-0.271 0.576,-1.379 0.867,-2.326 0.313,-1.018 0.524,-1.939 0.602,-2.537 0.072,0.6 0.281,1.523 0.584,2.539"
             style="fill:#231f20;fill-opacity:1;fill-rule:nonzero;stroke:none"
             id="path262" /></g><g
           id="g264"
           transform="translate(187.0513,553.1436)"><path
             d="m 0,0 c 0.987,0.054 1.215,0.116 2.25,0.272 5.984,0.9 8.594,3.403 10.582,4.935 2.225,1.707 4.141,3.179 11.434,3.671 l -4.825,3.815 C 10.232,12.072 7.508,9.976 5.102,8.125 3.933,7.231 2.869,6.414 1.1,5.758 L 1.666,4.383 0.75,3.747 -0.584,3.464 -0.167,1.979 Z"
             style="fill:#f8a45c;fill-opacity:1;fill-rule:nonzero;stroke:none"
             id="path266" /></g><g
           id="g268"
           transform="translate(187.0513,553.1436)"><path
             d="m 0,0 c 0.987,0.054 1.215,0.116 2.25,0.272 5.984,0.9 8.594,3.403 10.582,4.935 2.225,1.707 4.141,3.179 11.434,3.671 l -4.825,3.815 C 10.232,12.072 7.508,9.976 5.102,8.125 3.933,7.231 2.869,6.414 1.1,5.758 L 1.666,4.383 0.75,3.747 -0.584,3.464 -0.167,1.979 Z"
             style="fill:none;stroke:#231f20;stroke-width:0.3;stroke-linecap:butt;stroke-linejoin:miter;stroke-miterlimit:4;stroke-dasharray:none;stroke-opacity:1"
             id="path270" /></g><g
           id="g272"
           transform="translate(185.9536,549.9951)"><path
             d="m 0,0 c 4.242,-0.896 8.969,-1.602 14.375,-0.79 5.986,0.903 8.242,2.636 10.232,4.164 2.223,1.71 4.143,3.181 11.442,3.676 l -4.49,4.581 C 22.361,11.015 19.633,8.918 17.225,7.065 15.367,5.64 13.77,4.411 9.168,3.717 5.983,3.236 3.407,3.462 0.574,4 c 0,0 -0.726,0.068 -1.31,0.492 C -0.902,3.926 -0.318,3.078 0.098,2.724 L 0.264,1.947 -0.569,1.805 Z"
             style="fill:#f8a45c;fill-opacity:1;fill-rule:nonzero;stroke:none"
             id="path274" /></g><g
           id="g276"
           transform="translate(185.9536,549.9951)"><path
             d="m 0,0 c 4.242,-0.896 8.969,-1.602 14.375,-0.79 5.986,0.903 8.242,2.636 10.232,4.164 2.223,1.71 4.143,3.181 11.442,3.676 l -4.49,4.581 C 22.361,11.015 19.633,8.918 17.225,7.065 15.367,5.64 13.77,4.411 9.168,3.717 5.983,3.236 3.407,3.462 0.574,4 c 0,0 -0.726,0.068 -1.31,0.492 C -0.902,3.926 -0.318,3.078 0.098,2.724 L 0.264,1.947 -0.569,1.805 Z"
             style="fill:none;stroke:#231f20;stroke-width:0.3;stroke-linecap:butt;stroke-linejoin:miter;stroke-miterlimit:4;stroke-dasharray:none;stroke-opacity:1"
             id="path278" /></g><g
           id="g280"
           transform="translate(188.6606,544.2559)"><path
             d="m 0,0 c 3.197,-0.399 6.654,-0.504 10.434,0.142 5.964,1.025 8.181,2.806 10.138,4.372 2.196,1.758 5.027,3.527 12.318,4.164 l -4.581,4.494 C 19.122,12.366 15.488,9.955 13.119,8.058 11.291,6.595 9.721,5.329 5.137,4.542 3.242,4.217 1.559,4.148 -0.094,4.246 L 1.381,2.508 0.484,1.571 Z"
             style="fill:#f8a45c;fill-opacity:1;fill-rule:nonzero;stroke:none"
             id="path282" /></g><g
           id="g284"
           transform="translate(188.6606,544.2559)"><path
             d="m 0,0 c 3.197,-0.399 6.654,-0.504 10.434,0.142 5.964,1.025 8.181,2.806 10.138,4.372 2.196,1.758 5.027,3.527 12.318,4.164 l -4.581,4.494 C 19.122,12.366 15.488,9.955 13.119,8.058 11.291,6.595 9.721,5.329 5.137,4.542 3.242,4.217 1.559,4.148 -0.094,4.246 L 1.381,2.508 0.484,1.571 Z"
             style="fill:none;stroke:#231f20;stroke-width:0.3;stroke-linecap:butt;stroke-linejoin:miter;stroke-miterlimit:4;stroke-dasharray:none;stroke-opacity:1"
             id="path286" /></g><g
           id="g288"
           transform="translate(186.1489,543.9717)"><path
             d="m 0,0 c 1.743,-0.456 3.388,-1.004 5.061,-1.563 4.677,-1.552 9.964,-3.317 16.677,-2.932 6.102,0.349 8.676,1.835 10.918,3.193 3.328,2.014 5.745,3.431 12.033,2.603 L 41.104,6.254 C 31.865,6.48 28.77,4.651 26.029,3.035 23.928,1.79 22.107,0.716 17.416,0.448 12.793,0.183 9.668,1.225 5.34,2.669 4.034,3.104 2.656,3.562 1.182,3.998 L 0.735,1.536 -1.182,1.465 c 0,0 0.114,-1.021 1.182,-1.465"
             style="fill:#f8a45c;fill-opacity:1;fill-rule:nonzero;stroke:none"
             id="path290" /></g><g
           id="g292"
           transform="translate(186.1489,543.9717)"><path
             d="m 0,0 c 1.743,-0.456 3.388,-1.004 5.061,-1.563 4.677,-1.552 9.964,-3.317 16.677,-2.932 6.102,0.349 8.676,1.835 10.918,3.193 3.328,2.014 5.745,3.431 12.033,2.603 L 41.104,6.254 C 31.865,6.48 28.77,4.651 26.029,3.035 23.928,1.79 22.107,0.716 17.416,0.448 12.793,0.183 9.668,1.225 5.34,2.669 4.034,3.104 2.656,3.562 1.182,3.998 L 0.735,1.536 -1.182,1.465 c 0,0 0.114,-1.021 1.182,-1.465 z"
             style="fill:none;stroke:#231f20;stroke-width:0.3;stroke-linecap:butt;stroke-linejoin:miter;stroke-miterlimit:4;stroke-dasharray:none;stroke-opacity:1"
             id="path294" /></g><g
           id="g296"
           transform="translate(186.9468,557.8965)"><path
             d="m 0,0 c 1.313,0.029 2.669,0.137 4.069,0.348 5.989,0.907 8.243,2.637 10.233,4.17 2.222,1.702 4.142,3.183 11.443,3.669 l -4.492,4.586 C 14.271,12.788 10.604,10.288 7.854,8.371 6.097,7.146 3.744,5.769 0.002,5.051 c 0,0 -0.814,-0.048 -1.398,0.094 0,0 0.834,-1.272 2,-1.414 L -0.813,2.812 -0.729,1.61 Z"
             style="fill:#f8a45c;fill-opacity:1;fill-rule:nonzero;stroke:none"
             id="path298" /></g><g
           id="g300"
           transform="translate(186.9468,557.8965)"><path
             d="m 0,0 c 1.313,0.029 2.669,0.137 4.069,0.348 5.989,0.907 8.243,2.637 10.233,4.17 2.222,1.702 4.142,3.183 11.443,3.669 l -4.492,4.586 C 14.271,12.788 10.604,10.288 7.854,8.371 6.097,7.146 3.744,5.769 0.002,5.051 c 0,0 -0.814,-0.048 -1.398,0.094 0,0 0.834,-1.272 2,-1.414 L -0.813,2.812 -0.729,1.61 Z"
             style="fill:none;stroke:#231f20;stroke-width:0.3;stroke-linecap:butt;stroke-linejoin:miter;stroke-miterlimit:4;stroke-dasharray:none;stroke-opacity:1"
             id="path302" /></g><g
           id="g304"
           transform="translate(212.1411,555.041)"><path
             d="m 0,0 c -1.469,-0.104 -5.221,-0.708 -5.221,-0.708 l -2.873,-3.283 4.045,1.994 6.289,0.614 z"
             style="fill:#96cd56;fill-opacity:1;fill-rule:nonzero;stroke:none"
             id="path306" /></g><g
           id="g308"
           transform="translate(215.1274,546.9746)"><path
             d="m 0,0 -2.67,-2.356 -6.082,-1.339 3.406,-1.017 5.008,1.435 z"
             style="fill:#f9aeca;fill-opacity:1;fill-rule:nonzero;stroke:none"
             id="path310" /></g><g
           id="g312"
           transform="translate(197.3813,563.9375)"><path
             d="m 0,0 -4.154,-0.804 -4.909,-2.629 6.741,1.043 z"
             style="fill:#231f20;fill-opacity:1;fill-rule:evenodd;stroke:none"
             id="path314" /></g><g
           id="g316"
           transform="translate(202.686,549.7549)"><path
             d="m 0,0 -5.467,-1.868 -0.599,-1.126 5.265,0.94 z"
             style="fill:#f9aeca;fill-opacity:1;fill-rule:evenodd;stroke:none"
             id="path318" /></g><g
           id="g320"
           transform="translate(207.3521,563.6543)"><path
             d="m 0,0 -5.467,-1.868 -0.6,-1.126 5.265,0.94 z"
             style="fill:#f9aeca;fill-opacity:1;fill-rule:evenodd;stroke:none"
             id="path322" /></g><g
           id="g324"
           transform="translate(224.3579,548.2754)"><path
             d="m 0,0 -6.123,-1.571 -0.449,-2.085 5.068,1.668 z"
             style="fill:#231f20;fill-opacity:1;fill-rule:evenodd;stroke:none"
             id="path326" /></g><g
           id="g328"
           transform="translate(194.6919,555.9141)"><path
             d="m 0,0 -7.512,0.444 4.063,-1.308 z"
             style="fill:#96cd56;fill-opacity:1;fill-rule:evenodd;stroke:none"
             id="path330" /></g><g
           id="g332"
           transform="translate(197.4429,543.2817)"><path
             d="m 0,0 -6.738,1.736 c 0,0 3.258,-2.06 4.199,-2.48 0.949,-0.417 6.926,-1.287 6.926,-1.287 z"
             style="fill:#96cd56;fill-opacity:1;fill-rule:evenodd;stroke:none"
             id="path334" /></g><g
           id="g336"
           transform="translate(205.9751,568.5889)"><path
             d="m 0,0 -6.938,-1.969 c 0,0 -2.775,-2.818 -1.656,-2.682 1.115,0.134 5.922,2.297 5.922,2.297 z"
             style="fill:#96cd56;fill-opacity:1;fill-rule:evenodd;stroke:none"
             id="path338" /></g><g
           id="g340"
           transform="translate(205.7173,574.9678)"><path
             d="M 0,0 V 12.093"
             style="fill:none;stroke:#231f20;stroke-width:0.5;stroke-linecap:butt;stroke-linejoin:miter;stroke-miterlimit:4;stroke-dasharray:none;stroke-opacity:1"
             id="path342" /></g><g
           id="g344"
           transform="translate(206.3188,573.2627)"><path
             d="m 0,0 c 0.283,0.951 0.547,1.57 0.85,2.334 l -2.903,-0.01 c 0.131,-0.271 0.576,-1.379 0.867,-2.326 0.313,-1.018 0.524,-1.939 0.602,-2.537 0.072,0.6 0.281,1.523 0.584,2.539"
             style="fill:#231f20;fill-opacity:1;fill-rule:nonzero;stroke:none"
             id="path346" /></g><path
           d="m 283.232,604.86 h 49.129 v -17.553 h -49.129 z"
           style="fill:#cce4f2;fill-opacity:1;fill-rule:nonzero;stroke:#231f20;stroke-width:0.5;stroke-linecap:butt;stroke-linejoin:round;stroke-miterlimit:10;stroke-dasharray:none;stroke-opacity:1"
           id="path348" /><text
           transform="matrix(1,0,0,-1,284.2544,593.8613)"
           style="font-variant:normal;font-weight:normal;font-stretch:normal;font-size:7px;font-family:Arial;-inkscape-font-specification:ArialMT;writing-mode:lr-tb;fill:#231f20;fill-opacity:1;fill-rule:nonzero;stroke:none"
           id="text352"><tspan
             x="0 4.6690001 8.5609999 10.115 14.007 15.561 17.507 21.399 25.298 29.190001 31.136 36.189999 40.082001 41.636002 43.189999"
             y="0"
             sodipodi:role="line"
             id="tspan350">Ableitung Child</tspan></text><text
           transform="matrix(1,0,0,-1,335.3481,536.8232)"
           style="font-variant:normal;font-weight:normal;font-stretch:normal;font-size:8px;font-family:Courier;-inkscape-font-specification:Courier;writing-mode:lr-tb;fill:#231f20;fill-opacity:1;fill-rule:nonzero;stroke:none"
           id="text358"><tspan
             x="0 4.8000002 9.6000004 -102.08 -97.279999 -92.480003"
             y="0"
             sodipodi:role="line"
             id="tspan354">M/1M/0</tspan><tspan
             x="-87.935997"
             y="-56.832001"
             id="tspan356">0</tspan></text><g
           id="g360"
           transform="translate(336.8271,596.084)"><path
             d="M 0,0 H 10.054"
             style="fill:none;stroke:#231f20;stroke-width:0.5;stroke-linecap:butt;stroke-linejoin:miter;stroke-miterlimit:4;stroke-dasharray:none;stroke-opacity:1"
             id="path362" /></g><g
           id="g364"
           transform="translate(335.1221,595.4824)"><path
             d="M 0,0 C 0.951,-0.283 1.57,-0.547 2.334,-0.85 L 2.324,2.053 C 2.053,1.922 0.945,1.477 -0.002,1.186 -1.02,0.873 -1.941,0.662 -2.539,0.584 -1.939,0.512 -1.016,0.303 0,0"
             style="fill:#231f20;fill-opacity:1;fill-rule:nonzero;stroke:none"
             id="path366" /></g><text
           transform="matrix(1,0,0,-1,349.4937,593.6533)"
           style="font-variant:normal;font-weight:normal;font-stretch:normal;font-size:8px;font-family:Courier;-inkscape-font-specification:Courier;writing-mode:lr-tb;fill:#231f20;fill-opacity:1;fill-rule:nonzero;stroke:none"
           id="text370"><tspan
             x="0"
             y="0"
             id="tspan368">1</tspan></text><g
           id="g372"
           transform="translate(254.8452,596.2139)"><path
             d="m 0,0 c 0,-2.794 -2.265,-5.06 -5.061,-5.06 -2.793,0 -5.058,2.266 -5.058,5.06 0,2.795 2.265,5.061 5.058,5.061 C -2.265,5.061 0,2.795 0,0 Z"
             style="fill:none;stroke:#656263;stroke-width:0.5;stroke-linecap:butt;stroke-linejoin:miter;stroke-miterlimit:4;stroke-dasharray:none;stroke-opacity:1"
             id="path374" /></g><g
           id="g376"
           transform="translate(357.0117,596.2144)"><path
             d="m 0,0 c 0,-2.794 -2.266,-5.06 -5.061,-5.06 -2.793,0 -5.059,2.266 -5.059,5.06 0,2.795 2.266,5.061 5.059,5.061 C -2.266,5.061 0,2.795 0,0 Z"
             style="fill:none;stroke:#656263;stroke-width:0.5;stroke-linecap:butt;stroke-linejoin:miter;stroke-miterlimit:4;stroke-dasharray:none;stroke-opacity:1"
             id="path378" /></g><g
           id="g380"
           transform="translate(257.1299,519.1587)"><path
             d="M 0,0 V 8.334 H 50.667 V 19.211"
             style="fill:none;stroke:#231f20;stroke-width:0.5;stroke-linecap:butt;stroke-linejoin:miter;stroke-miterlimit:4;stroke-dasharray:none;stroke-opacity:1"
             id="path382" /></g><g
           id="g384"
           transform="translate(257.7314,517.4531)"><path
             d="M 0,0 C 0.283,0.951 0.547,1.571 0.85,2.334 L -2.053,2.325 c 0.131,-0.272 0.576,-1.38 0.867,-2.327 0.313,-1.018 0.524,-1.939 0.602,-2.537 0.072,0.6 0.281,1.523 0.584,2.539"
             style="fill:#231f20;fill-opacity:1;fill-rule:nonzero;stroke:none"
             id="path386" /></g><g
           id="g388"
           transform="translate(358.4639,519.1587)"><path
             d="M 0,0 V 8.334 H -50.667"
             style="fill:none;stroke:#231f20;stroke-width:0.5;stroke-linecap:butt;stroke-linejoin:miter;stroke-miterlimit:4;stroke-dasharray:none;stroke-opacity:1"
             id="path390" /></g><g
           id="g392"
           transform="translate(357.8623,517.4531)"><path
             d="M 0,0 C -0.283,0.951 -0.547,1.571 -0.85,2.334 L 2.053,2.325 C 1.922,2.053 1.477,0.945 1.186,-0.002 0.873,-1.02 0.662,-1.941 0.584,-2.539 0.512,-1.939 0.303,-1.016 0,0"
             style="fill:#231f20;fill-opacity:1;fill-rule:nonzero;stroke:none"
             id="path394" /></g><g
           id="g396"
           transform="translate(256.3662,484.7769)"><path
             d="M 0,0 V 12.063"
             style="fill:none;stroke:#231f20;stroke-width:0.5;stroke-linecap:butt;stroke-linejoin:miter;stroke-miterlimit:4;stroke-dasharray:none;stroke-opacity:1"
             id="path398" /></g><g
           id="g400"
           transform="translate(256.9678,483.0718)"><path
             d="m 0,0 c 0.283,0.951 0.547,1.57 0.85,2.334 l -2.903,-0.01 c 0.131,-0.271 0.576,-1.379 0.867,-2.326 0.313,-1.018 0.524,-1.939 0.602,-2.537 0.072,0.6 0.281,1.523 0.584,2.539"
             style="fill:#231f20;fill-opacity:1;fill-rule:nonzero;stroke:none"
             id="path402" /></g><g
           id="g404"
           transform="translate(285.3955,505.8633)"><path
             d="M 0,0 H 10.032"
             style="fill:none;stroke:#231f20;stroke-width:0.5;stroke-linecap:butt;stroke-linejoin:miter;stroke-miterlimit:4;stroke-dasharray:none;stroke-opacity:1"
             id="path406" /></g><g
           id="g408"
           transform="translate(283.6904,505.2617)"><path
             d="M 0,0 C 0.951,-0.283 1.57,-0.547 2.334,-0.85 L 2.324,2.053 C 2.053,1.922 0.945,1.477 -0.002,1.186 -1.02,0.873 -1.941,0.662 -2.539,0.584 -1.939,0.512 -1.016,0.303 0,0"
             style="fill:#231f20;fill-opacity:1;fill-rule:nonzero;stroke:none"
             id="path410" /></g><path
           d="M 231.802,514.64 H 280.93 V 497.087 H 231.802 Z"
           style="fill:#cce4f2;fill-opacity:1;fill-rule:nonzero;stroke:#231f20;stroke-width:0.5;stroke-linecap:butt;stroke-linejoin:round;stroke-miterlimit:10;stroke-dasharray:none;stroke-opacity:1"
           id="path412" /><text
           transform="matrix(1,0,0,-1,232.8232,503.6406)"
           style="font-variant:normal;font-weight:normal;font-stretch:normal;font-size:7px;font-family:Arial;-inkscape-font-specification:ArialMT;writing-mode:lr-tb;fill:#231f20;fill-opacity:1;fill-rule:nonzero;stroke:none"
           id="text416"><tspan
             x="0 4.6690001 8.5609999 10.115 14.007 15.561 17.507 21.399 25.298 29.190001 31.136 36.189999 40.082001 41.636002 43.189999"
             y="0"
             sodipodi:role="line"
             id="tspan414">Ableitung Child</tspan></text><path
           d="m 333.882,514.64 h 49.129 v -17.553 h -49.129 z"
           style="fill:#cce4f2;fill-opacity:1;fill-rule:nonzero;stroke:#231f20;stroke-width:0.5;stroke-linecap:butt;stroke-linejoin:round;stroke-miterlimit:10;stroke-dasharray:none;stroke-opacity:1"
           id="path418" /><text
           transform="matrix(1,0,0,-1,334.9033,503.6406)"
           style="font-variant:normal;font-weight:normal;font-stretch:normal;font-size:7px;font-family:Arial;-inkscape-font-specification:ArialMT;writing-mode:lr-tb;fill:#231f20;fill-opacity:1;fill-rule:nonzero;stroke:none"
           id="text422"><tspan
             x="0 4.6690001 8.5609999 10.115 14.007 15.561 17.507 21.399 25.298 29.190001 31.136 36.189999 40.082001 41.636002 43.189999"
             y="0"
             sodipodi:role="line"
             id="tspan420">Ableitung Child</tspan></text><text
           transform="matrix(1,0,0,-1,298.062,503.4326)"
           style="font-variant:normal;font-weight:normal;font-stretch:normal;font-size:8px;font-family:Courier;-inkscape-font-specification:Courier;writing-mode:lr-tb;fill:#231f20;fill-opacity:1;fill-rule:nonzero;stroke:none"
           id="text426"><tspan
             x="0"
             y="0"
             id="tspan424">0</tspan></text><g
           id="g428"
           transform="translate(387.4756,505.8633)"><path
             d="M 0,0 H 10.054"
             style="fill:none;stroke:#231f20;stroke-width:0.5;stroke-linecap:butt;stroke-linejoin:miter;stroke-miterlimit:4;stroke-dasharray:none;stroke-opacity:1"
             id="path430" /></g><g
           id="g432"
           transform="translate(385.7705,505.2617)"><path
             d="M 0,0 C 0.951,-0.283 1.57,-0.547 2.334,-0.85 L 2.324,2.053 C 2.053,1.922 0.945,1.477 -0.002,1.186 -1.02,0.873 -1.941,0.662 -2.539,0.584 -1.939,0.512 -1.016,0.303 0,0"
             style="fill:#231f20;fill-opacity:1;fill-rule:nonzero;stroke:none"
             id="path434" /></g><text
           transform="matrix(1,0,0,-1,400.1426,503.4326)"
           style="font-variant:normal;font-weight:normal;font-stretch:normal;font-size:8px;font-family:Courier;-inkscape-font-specification:Courier;writing-mode:lr-tb;fill:#231f20;fill-opacity:1;fill-rule:nonzero;stroke:none"
           id="text438"><tspan
             x="0"
             y="0"
             id="tspan436">1</tspan></text><g
           id="g440"
           transform="translate(305.4951,505.9937)"><path
             d="m 0,0 c 0,-2.794 -2.267,-5.06 -5.061,-5.06 -2.793,0 -5.06,2.266 -5.06,5.06 0,2.795 2.267,5.061 5.06,5.061 C -2.267,5.061 0,2.795 0,0 Z"
             style="fill:none;stroke:#656263;stroke-width:0.5;stroke-linecap:butt;stroke-linejoin:miter;stroke-miterlimit:4;stroke-dasharray:none;stroke-opacity:1"
             id="path442" /></g><text
           transform="matrix(1,0,0,-1,347.5176,567.4258)"
           style="font-variant:normal;font-weight:bold;font-stretch:condensed;font-size:9px;font-family:'Humanst521 Cn BT';-inkscape-font-specification:Humanist521BT-BoldCondensed;writing-mode:lr-tb;fill:#231f20;fill-opacity:1;fill-rule:nonzero;stroke:none"
           id="text446"><tspan
             x="0 4.4369998 8.9280005 11.061 13.221 17.73"
             y="0"
             sodipodi:role="line"
             id="tspan444">Child </tspan></text><text
           transform="matrix(1,0,0,-1,367.5522,567.4258)"
           style="font-variant:normal;font-weight:bold;font-stretch:normal;font-size:8.5px;font-family:Arial;-inkscape-font-specification:Arial-BoldMT;writing-mode:lr-tb;fill:#231f20;fill-opacity:1;fill-rule:nonzero;stroke:none"
           id="text450"><tspan
             x="0"
             y="0"
             id="tspan448">1</tspan></text><g
           id="g452"
           transform="translate(407.6611,505.9937)"><path
             d="m 0,0 c 0,-2.794 -2.266,-5.06 -5.061,-5.06 -2.793,0 -5.059,2.266 -5.059,5.06 0,2.795 2.266,5.061 5.059,5.061 C -2.266,5.061 0,2.795 0,0 Z"
             style="fill:none;stroke:#656263;stroke-width:0.5;stroke-linecap:butt;stroke-linejoin:miter;stroke-miterlimit:4;stroke-dasharray:none;stroke-opacity:1"
             id="path454" /></g><g
           id="g456"
           transform="translate(352.2764,586.4497)"><path
             d="M 0,0 C 0,-4.795 2.954,-5.045 2.954,-11.295"
             style="fill:none;stroke:#231f20;stroke-width:0.3;stroke-linecap:butt;stroke-linejoin:miter;stroke-miterlimit:10;stroke-dasharray:none;stroke-opacity:1"
             id="path458" /></g><g
           id="g460"
           transform="translate(350.417,585.9028)"><path
             d="M 0,0 1.87,3.238 3.739,0 Z"
             style="fill:#231f20;fill-opacity:1;fill-rule:nonzero;stroke:none"
             id="path462" /></g><g
           id="g464"
           transform="translate(328.0645,561.6548)"><path
             d="M 0,0 C 9.25,15.75 27.166,19.75 27.166,13.5"
             style="fill:none;stroke:#231f20;stroke-width:0.3;stroke-linecap:butt;stroke-linejoin:miter;stroke-miterlimit:10;stroke-dasharray:none;stroke-opacity:1"
             id="path466" /></g><g
           id="g468"
           transform="translate(329.9443,561.1851)"><path
             d="m 0,0 -3.252,-1.846 0.028,3.74 z"
             style="fill:#231f20;fill-opacity:1;fill-rule:nonzero;stroke:none"
             id="path470" /></g><g
           id="g472"
           transform="translate(354.75,550.5)"><path
             d="M 0,0 C 6.75,0 9.25,2.5 17.813,2.5"
             style="fill:none;stroke:#231f20;stroke-width:0.3;stroke-linecap:butt;stroke-linejoin:miter;stroke-miterlimit:10;stroke-dasharray:none;stroke-opacity:1"
             id="path474" /></g><g
           id="g476"
           transform="translate(355.2969,548.6406)"><path
             d="M 0,0 -3.238,1.87 0,3.739 Z"
             style="fill:#231f20;fill-opacity:1;fill-rule:nonzero;stroke:none"
             id="path478" /></g><g
           id="g480"
           transform="translate(225.8984,561.6548)"><path
             d="M 0,0 C 9.25,15.75 27.166,19.75 27.166,13.5"
             style="fill:none;stroke:#231f20;stroke-width:0.3;stroke-linecap:butt;stroke-linejoin:miter;stroke-miterlimit:10;stroke-dasharray:none;stroke-opacity:1"
             id="path482" /></g><g
           id="g484"
           transform="translate(227.7783,561.1851)"><path
             d="m 0,0 -3.252,-1.846 0.028,3.74 z"
             style="fill:#231f20;fill-opacity:1;fill-rule:nonzero;stroke:none"
             id="path486" /></g><g
           id="g488"
           transform="translate(300.7598,496.2295)"><path
             d="M 0,0 C 0,-4.795 2.955,-5.045 2.955,-11.295"
             style="fill:none;stroke:#231f20;stroke-width:0.3;stroke-linecap:butt;stroke-linejoin:miter;stroke-miterlimit:10;stroke-dasharray:none;stroke-opacity:1"
             id="path490" /></g><g
           id="g492"
           transform="translate(298.9004,495.6826)"><path
             d="M 0,0 1.869,3.238 3.74,0 Z"
             style="fill:#231f20;fill-opacity:1;fill-rule:nonzero;stroke:none"
             id="path494" /></g><g
           id="g496"
           transform="translate(237.7012,462.9233)"><path
             d="m 0,0 c 0.987,0.054 1.215,0.116 2.25,0.272 5.984,0.901 8.594,3.403 10.582,4.935 2.225,1.707 4.141,3.179 11.434,3.671 l -4.825,3.814 C 10.232,12.072 7.508,9.976 5.102,8.124 3.933,7.231 2.869,6.414 1.1,5.759 L 1.666,4.384 0.75,3.747 -0.584,3.464 -0.167,1.979 Z"
             style="fill:#f8a45c;fill-opacity:1;fill-rule:nonzero;stroke:none"
             id="path498" /></g><g
           id="g500"
           transform="translate(237.7012,462.9233)"><path
             d="m 0,0 c 0.987,0.054 1.215,0.116 2.25,0.272 5.984,0.901 8.594,3.403 10.582,4.935 2.225,1.707 4.141,3.179 11.434,3.671 l -4.825,3.814 C 10.232,12.072 7.508,9.976 5.102,8.124 3.933,7.231 2.869,6.414 1.1,5.759 L 1.666,4.384 0.75,3.747 -0.584,3.464 -0.167,1.979 Z"
             style="fill:none;stroke:#231f20;stroke-width:0.3;stroke-linecap:butt;stroke-linejoin:miter;stroke-miterlimit:4;stroke-dasharray:none;stroke-opacity:1"
             id="path502" /></g><g
           id="g504"
           transform="translate(236.6035,459.7749)"><path
             d="m 0,0 c 4.242,-0.896 8.969,-1.603 14.375,-0.79 5.986,0.902 8.242,2.637 10.232,4.164 2.223,1.71 4.143,3.181 11.442,3.676 l -4.49,4.581 C 22.361,11.015 19.633,8.919 17.225,7.065 15.367,5.64 13.77,4.411 9.168,3.717 5.983,3.236 3.407,3.462 0.574,3.999 c 0,0 -0.726,0.068 -1.31,0.492 C -0.902,3.926 -0.318,3.077 0.098,2.724 L 0.264,1.946 -0.569,1.806 Z"
             style="fill:#f8a45c;fill-opacity:1;fill-rule:nonzero;stroke:none"
             id="path506" /></g><g
           id="g508"
           transform="translate(236.6035,459.7749)"><path
             d="m 0,0 c 4.242,-0.896 8.969,-1.603 14.375,-0.79 5.986,0.902 8.242,2.637 10.232,4.164 2.223,1.71 4.143,3.181 11.442,3.676 l -4.49,4.581 C 22.361,11.015 19.633,8.919 17.225,7.065 15.367,5.64 13.77,4.411 9.168,3.717 5.983,3.236 3.407,3.462 0.574,3.999 c 0,0 -0.726,0.068 -1.31,0.492 C -0.902,3.926 -0.318,3.077 0.098,2.724 L 0.264,1.946 -0.569,1.806 Z"
             style="fill:none;stroke:#231f20;stroke-width:0.3;stroke-linecap:butt;stroke-linejoin:miter;stroke-miterlimit:4;stroke-dasharray:none;stroke-opacity:1"
             id="path510" /></g><g
           id="g512"
           transform="translate(239.3105,454.0356)"><path
             d="m 0,0 c 3.197,-0.399 6.654,-0.504 10.434,0.143 5.964,1.025 8.181,2.805 10.138,4.371 2.196,1.757 5.027,3.527 12.318,4.164 l -4.581,4.494 C 19.122,12.365 15.488,9.955 13.119,8.059 11.291,6.595 9.721,5.329 5.137,4.543 3.242,4.217 1.559,4.148 -0.094,4.246 L 1.381,2.508 0.484,1.57 Z"
             style="fill:#f8a45c;fill-opacity:1;fill-rule:nonzero;stroke:none"
             id="path514" /></g><g
           id="g516"
           transform="translate(239.3105,454.0356)"><path
             d="m 0,0 c 3.197,-0.399 6.654,-0.504 10.434,0.143 5.964,1.025 8.181,2.805 10.138,4.371 2.196,1.757 5.027,3.527 12.318,4.164 l -4.581,4.494 C 19.122,12.365 15.488,9.955 13.119,8.059 11.291,6.595 9.721,5.329 5.137,4.543 3.242,4.217 1.559,4.148 -0.094,4.246 L 1.381,2.508 0.484,1.57 Z"
             style="fill:none;stroke:#231f20;stroke-width:0.3;stroke-linecap:butt;stroke-linejoin:miter;stroke-miterlimit:4;stroke-dasharray:none;stroke-opacity:1"
             id="path518" /></g><g
           id="g520"
           transform="translate(236.7988,453.7515)"><path
             d="m 0,0 c 1.743,-0.456 3.388,-1.004 5.061,-1.563 4.677,-1.552 9.964,-3.317 16.677,-2.932 6.102,0.349 8.676,1.836 10.918,3.193 3.328,2.014 5.745,3.431 12.033,2.603 L 41.104,6.254 C 31.865,6.479 28.77,4.651 26.029,3.035 23.928,1.79 22.107,0.716 17.416,0.448 12.793,0.183 9.668,1.225 5.34,2.669 4.034,3.104 2.656,3.562 1.182,3.997 L 0.735,1.536 -1.182,1.466 c 0,0 0.114,-1.022 1.182,-1.466"
             style="fill:#f8a45c;fill-opacity:1;fill-rule:nonzero;stroke:none"
             id="path522" /></g><g
           id="g524"
           transform="translate(236.7988,453.7515)"><path
             d="m 0,0 c 1.743,-0.456 3.388,-1.004 5.061,-1.563 4.677,-1.552 9.964,-3.317 16.677,-2.932 6.102,0.349 8.676,1.836 10.918,3.193 3.328,2.014 5.745,3.431 12.033,2.603 L 41.104,6.254 C 31.865,6.479 28.77,4.651 26.029,3.035 23.928,1.79 22.107,0.716 17.416,0.448 12.793,0.183 9.668,1.225 5.34,2.669 4.034,3.104 2.656,3.562 1.182,3.997 L 0.735,1.536 -1.182,1.466 c 0,0 0.114,-1.022 1.182,-1.466 z"
             style="fill:none;stroke:#231f20;stroke-width:0.3;stroke-linecap:butt;stroke-linejoin:miter;stroke-miterlimit:4;stroke-dasharray:none;stroke-opacity:1"
             id="path526" /></g><g
           id="g528"
           transform="translate(237.5967,467.6763)"><path
             d="m 0,0 c 1.313,0.029 2.669,0.137 4.069,0.348 5.989,0.908 8.243,2.637 10.233,4.17 2.222,1.703 4.142,3.183 11.443,3.67 l -4.492,4.585 C 14.271,12.787 10.604,10.287 7.854,8.371 6.097,7.146 3.744,5.77 0.002,5.051 c 0,0 -0.814,-0.047 -1.398,0.094 0,0 0.834,-1.272 2,-1.415 L -0.813,2.813 -0.729,1.609 Z"
             style="fill:#f8a45c;fill-opacity:1;fill-rule:nonzero;stroke:none"
             id="path530" /></g><g
           id="g532"
           transform="translate(237.5967,467.6763)"><path
             d="m 0,0 c 1.313,0.029 2.669,0.137 4.069,0.348 5.989,0.908 8.243,2.637 10.233,4.17 2.222,1.703 4.142,3.183 11.443,3.67 l -4.492,4.585 C 14.271,12.787 10.604,10.287 7.854,8.371 6.097,7.146 3.744,5.77 0.002,5.051 c 0,0 -0.814,-0.047 -1.398,0.094 0,0 0.834,-1.272 2,-1.415 L -0.813,2.813 -0.729,1.609 Z"
             style="fill:none;stroke:#231f20;stroke-width:0.3;stroke-linecap:butt;stroke-linejoin:miter;stroke-miterlimit:4;stroke-dasharray:none;stroke-opacity:1"
             id="path534" /></g><g
           id="g536"
           transform="translate(262.791,464.8208)"><path
             d="m 0,0 c -1.469,-0.104 -5.221,-0.707 -5.221,-0.707 l -2.873,-3.284 4.045,1.994 6.289,0.614 z"
             style="fill:#96cd56;fill-opacity:1;fill-rule:nonzero;stroke:none"
             id="path538" /></g><g
           id="g540"
           transform="translate(265.7773,456.7544)"><path
             d="m 0,0 -2.67,-2.356 -6.082,-1.339 3.406,-1.017 5.008,1.435 z"
             style="fill:#f9aeca;fill-opacity:1;fill-rule:nonzero;stroke:none"
             id="path542" /></g><g
           id="g544"
           transform="translate(248.0313,473.7173)"><path
             d="m 0,0 -4.154,-0.804 -4.909,-2.629 6.741,1.042 z"
             style="fill:#231f20;fill-opacity:1;fill-rule:evenodd;stroke:none"
             id="path546" /></g><g
           id="g548"
           transform="translate(253.3359,459.5347)"><path
             d="m 0,0 -5.467,-1.868 -0.599,-1.126 5.265,0.94 z"
             style="fill:#f9aeca;fill-opacity:1;fill-rule:evenodd;stroke:none"
             id="path550" /></g><g
           id="g552"
           transform="translate(258.002,473.4341)"><path
             d="m 0,0 -5.467,-1.868 -0.6,-1.126 5.265,0.94 z"
             style="fill:#f9aeca;fill-opacity:1;fill-rule:evenodd;stroke:none"
             id="path554" /></g><g
           id="g556"
           transform="translate(275.0078,458.0552)"><path
             d="m 0,0 -6.123,-1.57 -0.449,-2.086 5.068,1.668 z"
             style="fill:#231f20;fill-opacity:1;fill-rule:evenodd;stroke:none"
             id="path558" /></g><g
           id="g560"
           transform="translate(245.3418,465.6938)"><path
             d="m 0,0 -7.512,0.444 4.063,-1.308 z"
             style="fill:#96cd56;fill-opacity:1;fill-rule:evenodd;stroke:none"
             id="path562" /></g><g
           id="g564"
           transform="translate(248.0928,453.061)"><path
             d="m 0,0 -6.738,1.736 c 0,0 3.258,-2.059 4.199,-2.479 C -1.59,-1.16 4.387,-2.03 4.387,-2.03 Z"
             style="fill:#96cd56;fill-opacity:1;fill-rule:evenodd;stroke:none"
             id="path566" /></g><g
           id="g568"
           transform="translate(256.625,478.3687)"><path
             d="m 0,0 -6.938,-1.97 c 0,0 -2.775,-2.817 -1.656,-2.681 1.115,0.134 5.922,2.297 5.922,2.297 z"
             style="fill:#96cd56;fill-opacity:1;fill-rule:evenodd;stroke:none"
             id="path570" /></g><text
           transform="matrix(1,0,0,-1,283.9185,446.6025)"
           style="font-variant:normal;font-weight:normal;font-stretch:normal;font-size:8px;font-family:Courier;-inkscape-font-specification:Courier;writing-mode:lr-tb;fill:#231f20;fill-opacity:1;fill-rule:nonzero;stroke:none"
           id="text574"><tspan
             x="0 4.8000002 9.6000004 14.4 19.200001"
             y="0"
             sodipodi:role="line"
             id="tspan572">M/1/0</tspan></text><g
           id="g576"
           transform="translate(358.4463,484.7769)"><path
             d="M 0,0 V 12.063"
             style="fill:none;stroke:#231f20;stroke-width:0.5;stroke-linecap:butt;stroke-linejoin:miter;stroke-miterlimit:4;stroke-dasharray:none;stroke-opacity:1"
             id="path578" /></g><g
           id="g580"
           transform="translate(359.0479,483.0718)"><path
             d="m 0,0 c 0.283,0.951 0.547,1.57 0.85,2.334 l -2.903,-0.01 c 0.131,-0.271 0.576,-1.379 0.867,-2.326 0.313,-1.018 0.524,-1.939 0.602,-2.537 0.072,0.6 0.281,1.523 0.584,2.539"
             style="fill:#231f20;fill-opacity:1;fill-rule:nonzero;stroke:none"
             id="path582" /></g><g
           id="g584"
           transform="translate(339.7813,462.9233)"><path
             d="m 0,0 c 0.987,0.054 1.215,0.116 2.25,0.272 5.984,0.901 8.594,3.403 10.582,4.935 2.225,1.707 4.141,3.179 11.434,3.671 l -4.825,3.814 C 10.232,12.072 7.508,9.976 5.102,8.124 3.933,7.231 2.869,6.414 1.1,5.759 L 1.666,4.384 0.75,3.747 -0.584,3.464 -0.167,1.979 Z"
             style="fill:#f8a45c;fill-opacity:1;fill-rule:nonzero;stroke:none"
             id="path586" /></g><g
           id="g588"
           transform="translate(339.7813,462.9233)"><path
             d="m 0,0 c 0.987,0.054 1.215,0.116 2.25,0.272 5.984,0.901 8.594,3.403 10.582,4.935 2.225,1.707 4.141,3.179 11.434,3.671 l -4.825,3.814 C 10.232,12.072 7.508,9.976 5.102,8.124 3.933,7.231 2.869,6.414 1.1,5.759 L 1.666,4.384 0.75,3.747 -0.584,3.464 -0.167,1.979 Z"
             style="fill:none;stroke:#231f20;stroke-width:0.3;stroke-linecap:butt;stroke-linejoin:miter;stroke-miterlimit:4;stroke-dasharray:none;stroke-opacity:1"
             id="path590" /></g><g
           id="g592"
           transform="translate(338.6836,459.7749)"><path
             d="m 0,0 c 4.242,-0.896 8.969,-1.603 14.375,-0.79 5.986,0.902 8.242,2.637 10.232,4.164 2.223,1.71 4.143,3.181 11.442,3.676 l -4.49,4.581 C 22.361,11.015 19.633,8.919 17.225,7.065 15.367,5.64 13.77,4.411 9.168,3.717 5.983,3.236 3.407,3.462 0.574,3.999 c 0,0 -0.726,0.068 -1.31,0.492 C -0.902,3.926 -0.318,3.077 0.098,2.724 L 0.264,1.946 -0.569,1.806 Z"
             style="fill:#f8a45c;fill-opacity:1;fill-rule:nonzero;stroke:none"
             id="path594" /></g><g
           id="g596"
           transform="translate(338.6836,459.7749)"><path
             d="m 0,0 c 4.242,-0.896 8.969,-1.603 14.375,-0.79 5.986,0.902 8.242,2.637 10.232,4.164 2.223,1.71 4.143,3.181 11.442,3.676 l -4.49,4.581 C 22.361,11.015 19.633,8.919 17.225,7.065 15.367,5.64 13.77,4.411 9.168,3.717 5.983,3.236 3.407,3.462 0.574,3.999 c 0,0 -0.726,0.068 -1.31,0.492 C -0.902,3.926 -0.318,3.077 0.098,2.724 L 0.264,1.946 -0.569,1.806 Z"
             style="fill:none;stroke:#231f20;stroke-width:0.3;stroke-linecap:butt;stroke-linejoin:miter;stroke-miterlimit:4;stroke-dasharray:none;stroke-opacity:1"
             id="path598" /></g><g
           id="g600"
           transform="translate(341.3906,454.0356)"><path
             d="m 0,0 c 3.197,-0.399 6.654,-0.504 10.434,0.143 5.964,1.025 8.181,2.805 10.138,4.371 2.196,1.757 5.027,3.527 12.318,4.164 l -4.581,4.494 C 19.122,12.365 15.488,9.955 13.119,8.059 11.291,6.595 9.721,5.329 5.137,4.543 3.242,4.217 1.559,4.148 -0.094,4.246 L 1.381,2.508 0.484,1.57 Z"
             style="fill:#f8a45c;fill-opacity:1;fill-rule:nonzero;stroke:none"
             id="path602" /></g><g
           id="g604"
           transform="translate(341.3906,454.0356)"><path
             d="m 0,0 c 3.197,-0.399 6.654,-0.504 10.434,0.143 5.964,1.025 8.181,2.805 10.138,4.371 2.196,1.757 5.027,3.527 12.318,4.164 l -4.581,4.494 C 19.122,12.365 15.488,9.955 13.119,8.059 11.291,6.595 9.721,5.329 5.137,4.543 3.242,4.217 1.559,4.148 -0.094,4.246 L 1.381,2.508 0.484,1.57 Z"
             style="fill:none;stroke:#231f20;stroke-width:0.3;stroke-linecap:butt;stroke-linejoin:miter;stroke-miterlimit:4;stroke-dasharray:none;stroke-opacity:1"
             id="path606" /></g><g
           id="g608"
           transform="translate(338.8789,453.7515)"><path
             d="m 0,0 c 1.743,-0.456 3.388,-1.004 5.061,-1.563 4.677,-1.552 9.964,-3.317 16.677,-2.932 6.102,0.349 8.676,1.836 10.918,3.193 3.328,2.014 5.745,3.431 12.033,2.603 L 41.104,6.254 C 31.865,6.479 28.77,4.651 26.029,3.035 23.928,1.79 22.107,0.716 17.416,0.448 12.793,0.183 9.668,1.225 5.34,2.669 4.034,3.104 2.656,3.562 1.182,3.997 L 0.735,1.536 -1.182,1.466 c 0,0 0.114,-1.022 1.182,-1.466"
             style="fill:#f8a45c;fill-opacity:1;fill-rule:nonzero;stroke:none"
             id="path610" /></g><g
           id="g612"
           transform="translate(338.8789,453.7515)"><path
             d="m 0,0 c 1.743,-0.456 3.388,-1.004 5.061,-1.563 4.677,-1.552 9.964,-3.317 16.677,-2.932 6.102,0.349 8.676,1.836 10.918,3.193 3.328,2.014 5.745,3.431 12.033,2.603 L 41.104,6.254 C 31.865,6.479 28.77,4.651 26.029,3.035 23.928,1.79 22.107,0.716 17.416,0.448 12.793,0.183 9.668,1.225 5.34,2.669 4.034,3.104 2.656,3.562 1.182,3.997 L 0.735,1.536 -1.182,1.466 c 0,0 0.114,-1.022 1.182,-1.466 z"
             style="fill:none;stroke:#231f20;stroke-width:0.3;stroke-linecap:butt;stroke-linejoin:miter;stroke-miterlimit:4;stroke-dasharray:none;stroke-opacity:1"
             id="path614" /></g><g
           id="g616"
           transform="translate(339.6768,467.6763)"><path
             d="m 0,0 c 1.313,0.029 2.669,0.137 4.069,0.348 5.989,0.908 8.243,2.637 10.233,4.17 2.222,1.703 4.142,3.183 11.443,3.67 l -4.492,4.585 C 14.271,12.787 10.604,10.287 7.854,8.371 6.097,7.146 3.744,5.77 0.002,5.051 c 0,0 -0.814,-0.047 -1.398,0.094 0,0 0.834,-1.272 2,-1.415 L -0.813,2.813 -0.729,1.609 Z"
             style="fill:#f8a45c;fill-opacity:1;fill-rule:nonzero;stroke:none"
             id="path618" /></g><g
           id="g620"
           transform="translate(339.6768,467.6763)"><path
             d="m 0,0 c 1.313,0.029 2.669,0.137 4.069,0.348 5.989,0.908 8.243,2.637 10.233,4.17 2.222,1.703 4.142,3.183 11.443,3.67 l -4.492,4.585 C 14.271,12.787 10.604,10.287 7.854,8.371 6.097,7.146 3.744,5.77 0.002,5.051 c 0,0 -0.814,-0.047 -1.398,0.094 0,0 0.834,-1.272 2,-1.415 L -0.813,2.813 -0.729,1.609 Z"
             style="fill:none;stroke:#231f20;stroke-width:0.3;stroke-linecap:butt;stroke-linejoin:miter;stroke-miterlimit:4;stroke-dasharray:none;stroke-opacity:1"
             id="path622" /></g><g
           id="g624"
           transform="translate(364.8711,464.8208)"><path
             d="m 0,0 c -1.469,-0.104 -5.221,-0.707 -5.221,-0.707 l -2.873,-3.284 4.045,1.994 6.289,0.614 z"
             style="fill:#96cd56;fill-opacity:1;fill-rule:nonzero;stroke:none"
             id="path626" /></g><g
           id="g628"
           transform="translate(367.8574,456.7544)"><path
             d="m 0,0 -2.67,-2.356 -6.082,-1.339 3.406,-1.017 5.008,1.435 z"
             style="fill:#f9aeca;fill-opacity:1;fill-rule:nonzero;stroke:none"
             id="path630" /></g><g
           id="g632"
           transform="translate(350.1113,473.7173)"><path
             d="m 0,0 -4.154,-0.804 -4.909,-2.629 6.741,1.042 z"
             style="fill:#231f20;fill-opacity:1;fill-rule:evenodd;stroke:none"
             id="path634" /></g><g
           id="g636"
           transform="translate(355.416,459.5347)"><path
             d="m 0,0 -5.467,-1.868 -0.599,-1.126 5.265,0.94 z"
             style="fill:#f9aeca;fill-opacity:1;fill-rule:evenodd;stroke:none"
             id="path638" /></g><g
           id="g640"
           transform="translate(360.082,473.4341)"><path
             d="m 0,0 -5.467,-1.868 -0.6,-1.126 5.265,0.94 z"
             style="fill:#f9aeca;fill-opacity:1;fill-rule:evenodd;stroke:none"
             id="path642" /></g><g
           id="g644"
           transform="translate(377.0879,458.0552)"><path
             d="m 0,0 -6.123,-1.57 -0.449,-2.086 5.068,1.668 z"
             style="fill:#231f20;fill-opacity:1;fill-rule:evenodd;stroke:none"
             id="path646" /></g><g
           id="g648"
           transform="translate(347.4219,465.6938)"><path
             d="m 0,0 -7.512,0.444 4.063,-1.308 z"
             style="fill:#96cd56;fill-opacity:1;fill-rule:evenodd;stroke:none"
             id="path650" /></g><g
           id="g652"
           transform="translate(350.1729,453.061)"><path
             d="m 0,0 -6.738,1.736 c 0,0 3.258,-2.059 4.199,-2.479 C -1.59,-1.16 4.387,-2.03 4.387,-2.03 Z"
             style="fill:#96cd56;fill-opacity:1;fill-rule:evenodd;stroke:none"
             id="path654" /></g><g
           id="g656"
           transform="translate(358.7051,478.3687)"><path
             d="m 0,0 -6.938,-1.97 c 0,0 -2.775,-2.817 -1.656,-2.681 1.115,0.134 5.922,2.297 5.922,2.297 z"
             style="fill:#96cd56;fill-opacity:1;fill-rule:evenodd;stroke:none"
             id="path658" /></g><text
           transform="matrix(1,0,0,-1,385.9985,446.6025)"
           style="font-variant:normal;font-weight:normal;font-stretch:normal;font-size:8px;font-family:Courier;-inkscape-font-specification:Courier;writing-mode:lr-tb;fill:#231f20;fill-opacity:1;fill-rule:nonzero;stroke:none"
           id="text662"><tspan
             x="0 4.8000002 9.6000004 14.4 19.200001"
             y="0"
             sodipodi:role="line"
             id="tspan660">M/1/1</tspan></text><g
           id="g664"
           transform="translate(276.5483,471.4341)"><path
             d="M 0,0 C 9.25,15.75 27.167,19.75 27.167,13.5"
             style="fill:none;stroke:#231f20;stroke-width:0.3;stroke-linecap:butt;stroke-linejoin:miter;stroke-miterlimit:10;stroke-dasharray:none;stroke-opacity:1"
             id="path666" /></g><g
           id="g668"
           transform="translate(278.4282,470.9653)"><path
             d="m 0,0 -3.252,-1.846 0.028,3.739 z"
             style="fill:#231f20;fill-opacity:1;fill-rule:nonzero;stroke:none"
             id="path670" /></g><text
           transform="matrix(1,0,0,-1,292.1489,476.127)"
           style="font-variant:normal;font-weight:bold;font-stretch:condensed;font-size:9px;font-family:'Humanst521 Cn BT';-inkscape-font-specification:Humanist521BT-BoldCondensed;writing-mode:lr-tb;fill:#231f20;fill-opacity:1;fill-rule:nonzero;stroke:none"
           id="text674"><tspan
             x="0 5.6880002 8.4870005 11.484 15.444 18.945 21.249001 24.849001 29.34 31.473 33.632999"
             y="0"
             sodipodi:role="line"
             id="tspan672">O-tes child</tspan></text><g
           id="g676"
           transform="translate(292.6445,644.625)"><path
             d="m 0,0 h -24.951 c -1.639,4.184 -5.737,7.15 -10.546,7.15 -6.252,0 -11.324,-5.014 -11.324,-11.202 0,-0.131 0.017,-0.261 0.022,-0.389 -0.005,-0.131 -0.022,-0.256 -0.022,-0.389 0,-6.185 5.072,-11.204 11.324,-11.204 4.457,0 8.301,2.554 10.149,6.258 h 2.082 c 0.147,1.069 1.228,1.908 2.551,1.908 1.324,0 2.405,-0.839 2.548,-1.908 h 2.293 c 0.145,1.069 1.224,1.908 2.548,1.908 1.325,0 2.404,-0.839 2.55,-1.908 h 2.292 c 0.144,1.069 1.224,1.908 2.548,1.908 1.325,0 2.405,-0.839 2.551,-1.908 h 1.596 l 5.878,6.736 v 0.777 z"
             style="fill:none;stroke:#231f20;stroke-width:1;stroke-linecap:butt;stroke-linejoin:round;stroke-miterlimit:4;stroke-dasharray:none;stroke-opacity:1"
             id="path678" /></g><g
           id="g680"
           transform="translate(296.7334,642.3618)"><path
             d="m 0,0 -29.04,1.487 c -1.639,4.182 -5.737,7.151 -10.545,7.151 -6.252,0 -11.325,-5.015 -11.325,-11.205 0,-6.184 5.073,-11.204 11.325,-11.204 4.457,0 8.3,2.554 10.148,6.258 h 2.083 c 0.146,1.07 1.227,1.908 2.55,1.908 1.325,0 2.406,-0.838 2.548,-1.908 h 2.293 c 0.146,1.07 1.224,1.908 2.548,1.908 1.325,0 2.404,-0.838 2.55,-1.908 h 2.292 c 0.144,1.07 1.224,1.908 2.549,1.908 1.324,0 2.404,-0.838 2.55,-1.908 h 1.596 L 0,-0.777 Z"
             style="fill:#278a2f;fill-opacity:1;fill-rule:nonzero;stroke:none"
             id="path682" /></g><g
           id="g684"
           transform="translate(296.7334,642.3618)"><path
             d="m 0,0 -29.04,1.487 c -1.639,4.182 -5.737,7.151 -10.545,7.151 -6.252,0 -11.325,-5.015 -11.325,-11.205 0,-6.184 5.073,-11.204 11.325,-11.204 4.457,0 8.3,2.554 10.148,6.258 h 2.083 c 0.146,1.07 1.227,1.908 2.55,1.908 1.325,0 2.406,-0.838 2.548,-1.908 h 2.293 c 0.146,1.07 1.224,1.908 2.548,1.908 1.325,0 2.404,-0.838 2.55,-1.908 h 2.292 c 0.144,1.07 1.224,1.908 2.549,1.908 1.324,0 2.404,-0.838 2.55,-1.908 h 1.596 L 0,-0.777 Z"
             style="fill:none;stroke:#278a2f;stroke-width:0.3;stroke-linecap:butt;stroke-linejoin:round;stroke-miterlimit:4;stroke-dasharray:none;stroke-opacity:1"
             id="path686" /></g></g></g><g
       id="g688"><g
         id="g690"><g
           id="g696"><g
             id="g698"><path
               d="m 245.823,640.572 c 0,-6.187 5.073,-11.203 11.325,-11.203 v 0 c 4.457,0 8.3,2.553 10.149,6.257 v 0 h 2.082 c 0.147,1.069 1.228,1.908 2.551,1.908 v 0 c 1.323,0 2.405,-0.839 2.547,-1.908 v 0 h 2.294 c 0.145,1.069 1.223,1.908 2.548,1.908 v 0 c 1.324,0 2.404,-0.839 2.549,-1.908 v 0 h 2.292 c 0.145,1.069 1.225,1.908 2.549,1.908 v 0 c 1.324,0 2.404,-0.839 2.551,-1.908 v 0 h 1.596 l 5.878,6.736 -4.089,2.263 h -24.952 c -1.639,4.183 -5.736,7.15 -10.545,7.15 v 0 c -6.252,0 -11.325,-5.014 -11.325,-11.203"
               style="fill:url(#linearGradient704);stroke:none"
               id="path706" /></g></g></g></g><g
       id="g708"><g
         id="g710"><g
           id="g716"><g
             id="g718"><path
               d="m 246.732,640.572 c 0,-5.677 4.672,-10.297 10.416,-10.297 v 0 c 3.989,0 7.567,2.205 9.337,5.756 v 0 l 0.25,0.502 h 1.974 c 0.521,1.128 1.78,1.907 3.221,1.907 v 0 c 1.443,0 2.699,-0.779 3.218,-1.907 v 0 h 0.951 c 0.524,1.128 1.78,1.907 3.22,1.907 v 0 c 1.442,0 2.699,-0.779 3.218,-1.907 v 0 h 0.953 c 0.522,1.128 1.779,1.907 3.219,1.907 v 0 c 1.442,0 2.699,-0.779 3.22,-1.907 v 0 h 0.513 l 4.867,5.578 -2.899,1.609 h -25.334 l -0.224,0.574 c -1.569,3.994 -5.377,6.574 -9.704,6.574 v 0 c -5.744,0 -10.416,-4.618 -10.416,-10.296"
               style="fill:url(#linearGradient724);stroke:none"
               id="path726" /></g></g></g></g><g
       id="g728"><g
         id="g730"
         clip-path="url(#clipPath734)"><g
           id="g736"
           transform="translate(266.0938,640.5728)"><path
             d="m 0,0 c 0,-4.943 -4.004,-8.947 -8.946,-8.947 -4.941,0 -8.947,4.004 -8.947,8.947 0,4.941 4.006,8.945 8.947,8.945 C -4.004,8.945 0,4.941 0,0"
             style="fill:#ffffff;fill-opacity:1;fill-rule:nonzero;stroke:none"
             id="path738" /></g><text
           transform="matrix(1,0,0,-1,249.0479,637.1426)"
           style="font-variant:normal;font-weight:normal;font-stretch:normal;font-size:9.0198px;font-family:Arial;-inkscape-font-specification:ArialMT;writing-mode:lr-tb;fill:#231f20;fill-opacity:1;fill-rule:nonzero;stroke:none"
           id="text742"><tspan
             x="0 6.0162067 11.031216"
             y="0"
             sodipodi:role="line"
             id="tspan740">Pub</tspan></text><g
           id="g744"
           transform="translate(291.8638,464.1836)"><path
             d="m 0,0 h -24.951 c -1.639,4.184 -5.737,7.15 -10.546,7.15 -6.252,0 -11.324,-5.014 -11.324,-11.202 0,-0.131 0.017,-0.261 0.022,-0.389 -0.005,-0.131 -0.022,-0.256 -0.022,-0.389 0,-6.185 5.072,-11.204 11.324,-11.204 4.457,0 8.301,2.554 10.149,6.258 h 2.082 c 0.147,1.069 1.228,1.908 2.551,1.908 1.324,0 2.405,-0.839 2.548,-1.908 h 2.293 c 0.145,1.069 1.224,1.908 2.548,1.908 1.325,0 2.404,-0.839 2.55,-1.908 h 2.292 c 0.144,1.069 1.224,1.908 2.548,1.908 1.325,0 2.405,-0.839 2.551,-1.908 h 1.596 l 5.878,6.736 v 0.777 z"
             style="fill:none;stroke:#231f20;stroke-width:1;stroke-linecap:butt;stroke-linejoin:round;stroke-miterlimit:4;stroke-dasharray:none;stroke-opacity:1"
             id="path746" /></g><g
           id="g748"
           transform="translate(295.9526,461.9204)"><path
             d="m 0,0 -29.04,1.487 c -1.639,4.182 -5.737,7.151 -10.545,7.151 -6.252,0 -11.325,-5.015 -11.325,-11.205 0,-6.184 5.073,-11.204 11.325,-11.204 4.457,0 8.3,2.554 10.148,6.258 h 2.083 c 0.146,1.07 1.227,1.908 2.55,1.908 1.325,0 2.406,-0.838 2.548,-1.908 h 2.293 c 0.146,1.07 1.224,1.908 2.548,1.908 1.325,0 2.404,-0.838 2.55,-1.908 h 2.292 c 0.144,1.07 1.224,1.908 2.549,1.908 1.324,0 2.404,-0.838 2.55,-1.908 h 1.596 L 0,-0.777 Z"
             style="fill:#278a2f;fill-opacity:1;fill-rule:nonzero;stroke:none"
             id="path750" /></g><g
           id="g752"
           transform="translate(295.9526,461.9204)"><path
             d="m 0,0 -29.04,1.487 c -1.639,4.182 -5.737,7.151 -10.545,7.151 -6.252,0 -11.325,-5.015 -11.325,-11.205 0,-6.184 5.073,-11.204 11.325,-11.204 4.457,0 8.3,2.554 10.148,6.258 h 2.083 c 0.146,1.07 1.227,1.908 2.55,1.908 1.325,0 2.406,-0.838 2.548,-1.908 h 2.293 c 0.146,1.07 1.224,1.908 2.548,1.908 1.325,0 2.404,-0.838 2.55,-1.908 h 2.292 c 0.144,1.07 1.224,1.908 2.549,1.908 1.324,0 2.404,-0.838 2.55,-1.908 h 1.596 L 0,-0.777 Z"
             style="fill:none;stroke:#278a2f;stroke-width:0.3;stroke-linecap:butt;stroke-linejoin:round;stroke-miterlimit:4;stroke-dasharray:none;stroke-opacity:1"
             id="path754" /></g></g></g><g
       id="g756"><g
         id="g758"><g
           id="g764"><g
             id="g766"><path
               d="m 245.043,460.131 c 0,-6.187 5.072,-11.203 11.324,-11.203 v 0 c 4.457,0 8.3,2.552 10.149,6.256 v 0 h 2.082 c 0.146,1.07 1.227,1.908 2.551,1.908 v 0 c 1.324,0 2.405,-0.838 2.548,-1.908 v 0 h 2.293 c 0.145,1.07 1.224,1.908 2.547,1.908 v 0 c 1.326,0 2.405,-0.838 2.55,-1.908 v 0 h 2.292 c 0.145,1.07 1.225,1.908 2.549,1.908 v 0 c 1.324,0 2.404,-0.838 2.551,-1.908 v 0 h 1.595 l 5.878,6.737 -4.088,2.263 h -24.951 c -1.639,4.183 -5.738,7.15 -10.546,7.15 v 0 c -6.252,0 -11.324,-5.014 -11.324,-11.203"
               style="fill:url(#linearGradient772);stroke:none"
               id="path774" /></g></g></g></g><g
       id="g776"><g
         id="g778"><g
           id="g784"><g
             id="g786"><path
               d="m 245.952,460.131 c 0,-5.677 4.671,-10.297 10.415,-10.297 v 0 c 3.99,0 7.567,2.204 9.336,5.755 v 0 l 0.251,0.503 h 1.974 c 0.52,1.128 1.779,1.907 3.221,1.907 v 0 c 1.443,0 2.699,-0.779 3.219,-1.907 v 0 h 0.951 c 0.523,1.128 1.779,1.907 3.218,1.907 v 0 c 1.444,0 2.699,-0.779 3.22,-1.907 v 0 h 0.953 c 0.521,1.128 1.779,1.907 3.218,1.907 v 0 c 1.443,0 2.699,-0.779 3.219,-1.907 v 0 h 0.513 l 4.868,5.578 -2.898,1.608 h -25.334 l -0.225,0.574 c -1.568,3.994 -5.377,6.574 -9.704,6.574 v 0 c -5.744,0 -10.415,-4.617 -10.415,-10.295"
               style="fill:url(#linearGradient792);stroke:none"
               id="path794" /></g></g></g></g><g
       id="g796"><g
         id="g798"
         clip-path="url(#clipPath802)"><g
           id="g804"
           transform="translate(265.313,460.1313)"><path
             d="m 0,0 c 0,-4.943 -4.004,-8.947 -8.946,-8.947 -4.941,0 -8.947,4.004 -8.947,8.947 0,4.941 4.006,8.945 8.947,8.945 C -4.004,8.945 0,4.941 0,0"
             style="fill:#ffffff;fill-opacity:1;fill-rule:nonzero;stroke:none"
             id="path806" /></g><text
           transform="matrix(1,0,0,-1,248.2671,456.7012)"
           style="font-variant:normal;font-weight:normal;font-stretch:normal;font-size:9.0198px;font-family:Arial;-inkscape-font-specification:ArialMT;writing-mode:lr-tb;fill:#231f20;fill-opacity:1;fill-rule:nonzero;stroke:none"
           id="text810"><tspan
             x="0 6.0162067 11.031216"
             y="0"
             sodipodi:role="line"
             id="tspan808">Pub</tspan></text><g
           id="g812"
           transform="translate(393.9434,464.1836)"><path
             d="m 0,0 h -24.951 c -1.639,4.184 -5.737,7.15 -10.545,7.15 -6.252,0 -11.324,-5.014 -11.324,-11.202 0,-0.131 0.016,-0.261 0.021,-0.389 -0.005,-0.131 -0.021,-0.256 -0.021,-0.389 0,-6.185 5.072,-11.204 11.324,-11.204 4.457,0 8.301,2.554 10.148,6.258 h 2.082 c 0.147,1.069 1.229,1.908 2.551,1.908 1.324,0 2.406,-0.839 2.549,-1.908 h 2.293 c 0.144,1.069 1.223,1.908 2.547,1.908 1.326,0 2.404,-0.839 2.551,-1.908 h 2.291 c 0.144,1.069 1.224,1.908 2.548,1.908 1.325,0 2.405,-0.839 2.551,-1.908 h 1.596 L 4.09,-3.04 v 0.777 z"
             style="fill:none;stroke:#231f20;stroke-width:1;stroke-linecap:butt;stroke-linejoin:round;stroke-miterlimit:4;stroke-dasharray:none;stroke-opacity:1"
             id="path814" /></g><g
           id="g816"
           transform="translate(398.0332,461.9204)"><path
             d="m 0,0 -29.041,1.487 c -1.639,4.182 -5.736,7.151 -10.545,7.151 -6.252,0 -11.324,-5.015 -11.324,-11.205 0,-6.184 5.072,-11.204 11.324,-11.204 4.457,0 8.301,2.554 10.148,6.258 h 2.083 c 0.146,1.07 1.228,1.908 2.55,1.908 1.325,0 2.407,-0.838 2.549,-1.908 h 2.293 c 0.145,1.07 1.223,1.908 2.547,1.908 1.326,0 2.404,-0.838 2.551,-1.908 h 2.291 c 0.144,1.07 1.224,1.908 2.549,1.908 1.324,0 2.404,-0.838 2.55,-1.908 h 1.596 L 0,-0.777 Z"
             style="fill:#278a2f;fill-opacity:1;fill-rule:nonzero;stroke:none"
             id="path818" /></g><g
           id="g820"
           transform="translate(398.0332,461.9204)"><path
             d="m 0,0 -29.041,1.487 c -1.639,4.182 -5.736,7.151 -10.545,7.151 -6.252,0 -11.324,-5.015 -11.324,-11.205 0,-6.184 5.072,-11.204 11.324,-11.204 4.457,0 8.301,2.554 10.148,6.258 h 2.083 c 0.146,1.07 1.228,1.908 2.55,1.908 1.325,0 2.407,-0.838 2.549,-1.908 h 2.293 c 0.145,1.07 1.223,1.908 2.547,1.908 1.326,0 2.404,-0.838 2.551,-1.908 h 2.291 c 0.144,1.07 1.224,1.908 2.549,1.908 1.324,0 2.404,-0.838 2.55,-1.908 h 1.596 L 0,-0.777 Z"
             style="fill:none;stroke:#278a2f;stroke-width:0.3;stroke-linecap:butt;stroke-linejoin:round;stroke-miterlimit:4;stroke-dasharray:none;stroke-opacity:1"
             id="path822" /></g></g></g><g
       id="g824"><g
         id="g826"><g
           id="g832"><g
             id="g834"><path
               d="m 347.123,460.131 c 0,-6.187 5.072,-11.203 11.324,-11.203 v 0 c 4.457,0 8.301,2.552 10.149,6.256 v 0 h 2.082 c 0.146,1.07 1.228,1.908 2.55,1.908 v 0 c 1.325,0 2.407,-0.838 2.549,-1.908 v 0 h 2.293 c 0.145,1.07 1.223,1.908 2.547,1.908 v 0 c 1.327,0 2.404,-0.838 2.551,-1.908 v 0 h 2.291 c 0.144,1.07 1.224,1.908 2.549,1.908 v 0 c 1.324,0 2.404,-0.838 2.551,-1.908 v 0 h 1.595 l 5.879,6.737 -4.09,2.263 h -24.951 c -1.638,4.183 -5.736,7.15 -10.545,7.15 v 0 c -6.252,0 -11.324,-5.014 -11.324,-11.203"
               style="fill:url(#linearGradient840);stroke:none"
               id="path842" /></g></g></g></g><g
       id="g844"><g
         id="g846"><g
           id="g852"><g
             id="g854"><path
               d="m 348.031,460.131 c 0,-5.677 4.672,-10.297 10.416,-10.297 v 0 c 3.989,0 7.567,2.204 9.336,5.755 v 0 l 0.25,0.503 h 1.975 c 0.521,1.128 1.779,1.907 3.22,1.907 v 0 c 1.444,0 2.699,-0.779 3.219,-1.907 v 0 h 0.952 c 0.523,1.128 1.779,1.907 3.218,1.907 v 0 c 1.444,0 2.699,-0.779 3.219,-1.907 v 0 h 0.953 c 0.522,1.128 1.779,1.907 3.219,1.907 v 0 c 1.444,0 2.699,-0.779 3.22,-1.907 v 0 h 0.512 l 4.867,5.578 -2.898,1.608 h -25.334 l -0.225,0.574 c -1.568,3.994 -5.375,6.574 -9.703,6.574 v 0 c -5.744,0 -10.416,-4.617 -10.416,-10.295"
               style="fill:url(#linearGradient860);stroke:none"
               id="path862" /></g></g></g></g><g
       id="g864"><g
         id="g866"
         clip-path="url(#clipPath870)"><g
           id="g872"
           transform="translate(367.3926,460.1313)"><path
             d="m 0,0 c 0,-4.943 -4.004,-8.947 -8.945,-8.947 -4.942,0 -8.948,4.004 -8.948,8.947 0,4.941 4.006,8.945 8.948,8.945 C -4.004,8.945 0,4.941 0,0"
             style="fill:#ffffff;fill-opacity:1;fill-rule:nonzero;stroke:none"
             id="path874" /></g><text
           transform="matrix(1,0,0,-1,350.3472,456.7012)"
           style="font-variant:normal;font-weight:normal;font-stretch:normal;font-size:9.0198px;font-family:Arial;-inkscape-font-specification:ArialMT;writing-mode:lr-tb;fill:#231f20;fill-opacity:1;fill-rule:nonzero;stroke:none"
           id="text878"><tspan
             x="0 6.0162067 11.031216"
             y="0"
             sodipodi:role="line"
             id="tspan876">Pub</tspan></text><g
           id="g880"
           transform="translate(343.293,554.4043)"><path
             d="m 0,0 h -24.951 c -1.639,4.184 -5.737,7.15 -10.545,7.15 -6.252,0 -11.324,-5.014 -11.324,-11.202 0,-0.131 0.016,-0.261 0.022,-0.389 -0.006,-0.131 -0.022,-0.256 -0.022,-0.389 0,-6.185 5.072,-11.204 11.324,-11.204 4.457,0 8.301,2.554 10.148,6.258 h 2.082 c 0.147,1.069 1.229,1.908 2.551,1.908 1.324,0 2.406,-0.839 2.549,-1.908 h 2.293 c 0.144,1.069 1.223,1.908 2.547,1.908 1.326,0 2.404,-0.839 2.551,-1.908 h 2.291 c 0.144,1.069 1.224,1.908 2.548,1.908 1.325,0 2.405,-0.839 2.551,-1.908 h 1.596 L 4.09,-3.04 v 0.777 z"
             style="fill:none;stroke:#231f20;stroke-width:1;stroke-linecap:butt;stroke-linejoin:round;stroke-miterlimit:4;stroke-dasharray:none;stroke-opacity:1"
             id="path882" /></g><g
           id="g884"
           transform="translate(347.3828,552.1411)"><path
             d="m 0,0 -29.041,1.487 c -1.639,4.182 -5.736,7.151 -10.545,7.151 -6.252,0 -11.324,-5.015 -11.324,-11.205 0,-6.184 5.072,-11.204 11.324,-11.204 4.457,0 8.301,2.554 10.148,6.258 h 2.083 c 0.146,1.07 1.228,1.908 2.55,1.908 1.325,0 2.407,-0.838 2.549,-1.908 h 2.293 c 0.145,1.07 1.223,1.908 2.547,1.908 1.326,0 2.404,-0.838 2.551,-1.908 h 2.291 c 0.144,1.07 1.224,1.908 2.549,1.908 1.324,0 2.404,-0.838 2.55,-1.908 h 1.596 L 0,-0.777 Z"
             style="fill:#278a2f;fill-opacity:1;fill-rule:nonzero;stroke:none"
             id="path886" /></g><g
           id="g888"
           transform="translate(347.3828,552.1411)"><path
             d="m 0,0 -29.041,1.487 c -1.639,4.182 -5.736,7.151 -10.545,7.151 -6.252,0 -11.324,-5.015 -11.324,-11.205 0,-6.184 5.072,-11.204 11.324,-11.204 4.457,0 8.301,2.554 10.148,6.258 h 2.083 c 0.146,1.07 1.228,1.908 2.55,1.908 1.325,0 2.407,-0.838 2.549,-1.908 h 2.293 c 0.145,1.07 1.223,1.908 2.547,1.908 1.326,0 2.404,-0.838 2.551,-1.908 h 2.291 c 0.144,1.07 1.224,1.908 2.549,1.908 1.324,0 2.404,-0.838 2.55,-1.908 h 1.596 L 0,-0.777 Z"
             style="fill:none;stroke:#278a2f;stroke-width:0.3;stroke-linecap:butt;stroke-linejoin:round;stroke-miterlimit:4;stroke-dasharray:none;stroke-opacity:1"
             id="path890" /></g></g></g><g
       id="g892"><g
         id="g894"><g
           id="g900"><g
             id="g902"><path
               d="m 296.473,550.352 c 0,-6.188 5.072,-11.203 11.324,-11.203 v 0 c 4.457,0 8.301,2.552 10.149,6.255 v 0 h 2.081 c 0.147,1.071 1.229,1.909 2.551,1.909 v 0 c 1.324,0 2.407,-0.838 2.549,-1.909 v 0 h 2.293 c 0.144,1.071 1.222,1.909 2.547,1.909 v 0 c 1.326,0 2.404,-0.838 2.551,-1.909 v 0 h 2.291 c 0.144,1.071 1.224,1.909 2.549,1.909 v 0 c 1.324,0 2.404,-0.838 2.55,-1.909 v 0 h 1.596 l 5.879,6.737 -4.09,2.263 h -24.951 c -1.639,4.184 -5.737,7.15 -10.545,7.15 v 0 c -6.252,0 -11.324,-5.014 -11.324,-11.202"
               style="fill:url(#linearGradient908);stroke:none"
               id="path910" /></g></g></g></g><g
       id="g912"><g
         id="g914"><g
           id="g920"><g
             id="g922"><path
               d="m 297.382,550.352 c 0,-5.677 4.671,-10.297 10.415,-10.297 v 0 c 3.989,0 7.567,2.204 9.336,5.755 v 0 l 0.25,0.503 h 1.975 c 0.521,1.127 1.779,1.907 3.22,1.907 v 0 c 1.444,0 2.699,-0.78 3.219,-1.907 v 0 h 0.951 c 0.523,1.127 1.779,1.907 3.219,1.907 v 0 c 1.443,0 2.699,-0.78 3.218,-1.907 v 0 h 0.953 c 0.522,1.127 1.78,1.907 3.22,1.907 v 0 c 1.443,0 2.699,-0.78 3.22,-1.907 v 0 h 0.512 l 4.867,5.578 -2.899,1.607 h -25.334 l -0.224,0.574 c -1.569,3.995 -5.376,6.576 -9.703,6.576 v 0 c -5.744,0 -10.415,-4.619 -10.415,-10.296"
               style="fill:url(#linearGradient928);stroke:none"
               id="path930" /></g></g></g></g><g
       id="g932"><g
         id="g934"
         clip-path="url(#clipPath938)"><g
           id="g940"
           transform="translate(316.7422,550.3521)"><path
             d="m 0,0 c 0,-4.943 -4.004,-8.947 -8.945,-8.947 -4.941,0 -8.947,4.004 -8.947,8.947 0,4.941 4.006,8.945 8.947,8.945 C -4.004,8.945 0,4.941 0,0"
             style="fill:#ffffff;fill-opacity:1;fill-rule:nonzero;stroke:none"
             id="path942" /></g><text
           transform="matrix(1,0,0,-1,299.6968,546.9209)"
           style="font-variant:normal;font-weight:normal;font-stretch:normal;font-size:9.0198px;font-family:Arial;-inkscape-font-specification:ArialMT;writing-mode:lr-tb;fill:#231f20;fill-opacity:1;fill-rule:nonzero;stroke:none"
           id="text946"><tspan
             x="0 6.0162067 11.031216"
             y="0"
             sodipodi:role="line"
             id="tspan944">Pub</tspan></text><g
           id="g948"
           transform="translate(241.2139,554.4043)"><path
             d="m 0,0 h -24.951 c -1.639,4.184 -5.737,7.15 -10.546,7.15 -6.252,0 -11.324,-5.014 -11.324,-11.202 0,-0.131 0.017,-0.261 0.022,-0.389 -0.005,-0.131 -0.022,-0.256 -0.022,-0.389 0,-6.185 5.072,-11.204 11.324,-11.204 4.457,0 8.301,2.554 10.149,6.258 h 2.082 c 0.147,1.069 1.228,1.908 2.551,1.908 1.324,0 2.405,-0.839 2.548,-1.908 h 2.293 c 0.145,1.069 1.224,1.908 2.548,1.908 1.325,0 2.404,-0.839 2.55,-1.908 h 2.292 c 0.144,1.069 1.224,1.908 2.548,1.908 1.325,0 2.405,-0.839 2.551,-1.908 h 1.596 l 5.878,6.736 v 0.777 z"
             style="fill:none;stroke:#231f20;stroke-width:1;stroke-linecap:butt;stroke-linejoin:round;stroke-miterlimit:4;stroke-dasharray:none;stroke-opacity:1"
             id="path950" /></g><g
           id="g952"
           transform="translate(245.3027,552.1411)"><path
             d="m 0,0 -29.04,1.487 c -1.639,4.182 -5.737,7.151 -10.545,7.151 -6.252,0 -11.325,-5.015 -11.325,-11.205 0,-6.184 5.073,-11.204 11.325,-11.204 4.457,0 8.3,2.554 10.148,6.258 h 2.083 c 0.146,1.07 1.227,1.908 2.55,1.908 1.325,0 2.406,-0.838 2.548,-1.908 h 2.293 c 0.146,1.07 1.224,1.908 2.548,1.908 1.325,0 2.404,-0.838 2.55,-1.908 h 2.292 c 0.144,1.07 1.224,1.908 2.549,1.908 1.324,0 2.404,-0.838 2.55,-1.908 h 1.596 L 0,-0.777 Z"
             style="fill:#278a2f;fill-opacity:1;fill-rule:nonzero;stroke:none"
             id="path954" /></g><g
           id="g956"
           transform="translate(245.3027,552.1411)"><path
             d="m 0,0 -29.04,1.487 c -1.639,4.182 -5.737,7.151 -10.545,7.151 -6.252,0 -11.325,-5.015 -11.325,-11.205 0,-6.184 5.073,-11.204 11.325,-11.204 4.457,0 8.3,2.554 10.148,6.258 h 2.083 c 0.146,1.07 1.227,1.908 2.55,1.908 1.325,0 2.406,-0.838 2.548,-1.908 h 2.293 c 0.146,1.07 1.224,1.908 2.548,1.908 1.325,0 2.404,-0.838 2.55,-1.908 h 2.292 c 0.144,1.07 1.224,1.908 2.549,1.908 1.324,0 2.404,-0.838 2.55,-1.908 h 1.596 L 0,-0.777 Z"
             style="fill:none;stroke:#278a2f;stroke-width:0.3;stroke-linecap:butt;stroke-linejoin:round;stroke-miterlimit:4;stroke-dasharray:none;stroke-opacity:1"
             id="path958" /></g></g></g><g
       id="g960"><g
         id="g962"><g
           id="g968"><g
             id="g970"><path
               d="m 194.393,550.352 c 0,-6.188 5.072,-11.203 11.324,-11.203 v 0 c 4.457,0 8.3,2.552 10.149,6.255 v 0 h 2.083 c 0.145,1.071 1.227,1.909 2.55,1.909 v 0 c 1.324,0 2.405,-0.838 2.548,-1.909 v 0 h 2.293 c 0.145,1.071 1.223,1.909 2.548,1.909 v 0 c 1.325,0 2.404,-0.838 2.55,-1.909 v 0 h 2.291 c 0.145,1.071 1.225,1.909 2.549,1.909 v 0 c 1.325,0 2.405,-0.838 2.551,-1.909 v 0 h 1.596 l 5.878,6.737 -4.089,2.263 h -24.951 c -1.639,4.184 -5.737,7.15 -10.546,7.15 v 0 c -6.252,0 -11.324,-5.014 -11.324,-11.202"
               style="fill:url(#linearGradient976);stroke:none"
               id="path978" /></g></g></g></g><g
       id="g980"><g
         id="g982"><g
           id="g988"><g
             id="g990"><path
               d="m 195.302,550.352 c 0,-5.677 4.671,-10.297 10.415,-10.297 v 0 c 3.989,0 7.567,2.204 9.337,5.755 v 0 l 0.249,0.503 h 1.975 c 0.521,1.127 1.779,1.907 3.221,1.907 v 0 c 1.444,0 2.699,-0.78 3.218,-1.907 v 0 h 0.952 c 0.524,1.127 1.779,1.907 3.219,1.907 v 0 c 1.443,0 2.699,-0.78 3.218,-1.907 v 0 h 0.954 c 0.521,1.127 1.779,1.907 3.218,1.907 v 0 c 1.443,0 2.699,-0.78 3.22,-1.907 v 0 h 0.512 l 4.868,5.578 -2.899,1.607 h -25.334 l -0.224,0.574 c -1.568,3.995 -5.376,6.576 -9.704,6.576 v 0 c -5.744,0 -10.415,-4.619 -10.415,-10.296"
               style="fill:url(#linearGradient996);stroke:none"
               id="path998" /></g></g></g></g><g
       id="g1000"><g
         id="g1002"
         clip-path="url(#clipPath1006)"><g
           id="g1008"
           transform="translate(214.6631,550.3521)"><path
             d="m 0,0 c 0,-4.943 -4.004,-8.947 -8.946,-8.947 -4.941,0 -8.947,4.004 -8.947,8.947 0,4.941 4.006,8.945 8.947,8.945 C -4.004,8.945 0,4.941 0,0"
             style="fill:#ffffff;fill-opacity:1;fill-rule:nonzero;stroke:none"
             id="path1010" /></g><text
           transform="matrix(1,0,0,-1,197.6172,546.9209)"
           style="font-variant:normal;font-weight:normal;font-stretch:normal;font-size:9.0198px;font-family:Arial;-inkscape-font-specification:ArialMT;writing-mode:lr-tb;fill:#231f20;fill-opacity:1;fill-rule:nonzero;stroke:none"
           id="text1014"><tspan
             x="0 6.0162067 11.031216"
             y="0"
             sodipodi:role="line"
             id="tspan1012">Pub</tspan></text></g></g></g></svg>
