<svg xmlns="http://www.w3.org/2000/svg" xmlns:xlink="http://www.w3.org/1999/xlink" width="129" height="128.98" viewBox="0 0 129 128.98">
  <defs>
    <style>
      .cls-1 {
        fill: none;
      }

      .cls-2 {
        clip-path: url(#clip-path);
      }

      .cls-3, .cls-4 {
        fill-rule: evenodd;
      }

      .cls-4 {
        fill: #fff;
      }
    </style>
    <clipPath id="clip-path" transform="translate(-244.2 -120.15)">
      <rect class="cls-1" x="264" y="139.5" width="90" height="90.43"/>
    </clipPath>
  </defs>
  <g id="Layer_2" data-name="Layer 2">
    <g class="cls-2">
      <path class="cls-3" d="M293.67,139.5v30.09h-30.1c.29-9.89-.57-20.92.43-30.09Zm-25.8,4.3v21.49h21.5V143.8Z" transform="translate(-244.2 -120.15)"/>
      <path class="cls-3" d="M353.86,139.5v30.09h-30.1c.29-9.89-.57-20.92.43-30.09Zm-25.8,4.3v21.49h21.5V143.8Z" transform="translate(-244.2 -120.15)"/>
      <path class="cls-4" d="M289.37,143.8v21.49h-21.5V143.8ZM272.17,161h12.9V148.1h-12.9Z" transform="translate(-244.2 -120.15)"/>
      <path class="cls-4" d="M349.56,143.8v21.49h-21.5V143.8ZM332.36,161h12.9V148.1h-12.9Z" transform="translate(-244.2 -120.15)"/>
      <path class="cls-3" d="M272.17,148.1h12.9V161h-12.9Z" transform="translate(-244.2 -120.15)"/>
      <path class="cls-3" d="M332.36,148.1h12.9V161h-12.9Z" transform="translate(-244.2 -120.15)"/>
      <path class="cls-3" d="M315.16,182.49h4.3v4.3h-4.3Z" transform="translate(-244.2 -120.15)"/>
      <path class="cls-3" d="M341,195.39h8.6v4.3h4.3V204H341Z" transform="translate(-244.2 -120.15)"/>
      <path class="cls-3" d="M293.67,199.69v30.1h-30.1c.29-9.89-.57-20.93.43-30.1Zm-25.8,4.3v21.5h21.5V204Z" transform="translate(-244.2 -120.15)"/>
      <path class="cls-4" d="M289.37,204v21.5h-21.5V204Zm-17.2,17.2h12.9v-12.9h-12.9Z" transform="translate(-244.2 -120.15)"/>
      <path class="cls-4" d="M323.76,204h4.3v4.3h-4.3Z" transform="translate(-244.2 -120.15)"/>
      <path class="cls-3" d="M272.17,208.29h12.9v12.9h-12.9Z" transform="translate(-244.2 -120.15)"/>
      <path class="cls-3" d="M349.56,216.89h-4.3v4.3H341v-8.6h4.3v-4.3h8.6v4.3H350C349,213.18,349.83,215.58,349.56,216.89Z" transform="translate(-244.2 -120.15)"/>
      <circle cx="73.11" cy="98.89" r="3.04"/>
      <path class="cls-3" d="M315.16,225.49h4.3v4.3h-4.3Z" transform="translate(-244.2 -120.15)"/>
      <path class="cls-4" d="M244.65,120.15H373.2v129h-129V121.44C244.19,120.83,244.15,120.22,244.65,120.15Zm70.51,49.44h-4.3c-.27,1.31.55,3.71-.43,4.3h-3.87v-4.3h4.3v-4.3h-4.3c-.27,1.31.55,3.71-.43,4.3h-3.87v-4.3H298v8.6h-17.2v4.3h21.49v4.3h8.6v-4.3h4.3c.27-1.3-.55-3.7.43-4.3h3.87v4.3c1.31.27,3.71-.55,4.3.43v3.87h4.3v-8.6h-8.6V156.7c-1.3-.27-3.7.55-4.3-.43V152.4h4.3v-4.3c-1.3-.27-3.7.55-4.3-.43V143.8h4.3v-4.3h-8.6c-.27,1.31.55,3.7-.43,4.3h-3.87v-4.3h-4.3v8.6H298v4.3h4.29v4.3h4.3v-8.6c1.31.27,3.71-.55,4.3.43v8.17h-4.3V161h4.3c.27-1.31-.55-3.71.43-4.3C318.38,155.2,313.92,165.24,315.16,169.59ZM264,139.5c-1,9.17-.14,20.2-.43,30.09h30.1V139.5Zm60.19,0c-1,9.17-.14,20.2-.43,30.09h30.1V139.5ZM298,186.79v25.8h4.29c.27-1.31-.55-3.71.43-4.3h8.17c-.27,1.31.55,3.7-.43,4.3h-8.17c-.26,1.3.55,3.7-.43,4.3H298v12.9h4.29c.29-2.73-.56-6.59.43-8.6h8.17v-8.6h4.3c.27-1.31-.55-3.71.43-4.3h3.87v4.3c1.31.27,3.71-.55,4.3.43v3.87h8.6v8.6h-4.3v-4.3h-4.3v8.6h8.6c.27-1.31-.55-3.71.43-4.3h3.87v-8.6c-1.31-.27-3.7.55-4.3-.43v-8.17h4.3V204c-1.31-.27-3.7.55-4.3-.43v-8.17h4.3v-4.3h-4.3v4.3h-4.3c-.27,1.31.55,3.7-.43,4.3-3.63.91-4.48-1-3.87-4.3h4.3v-8.6h-4.3v8.6h-4.3V204c-1.3-.27-3.7.55-4.3-.43v-8.17h4.3v-4.3h-4.3v4.3h-4.3V204h-4.3v-4.3c-1.3-.27-3.7.55-4.3-.43.27-1.17-.54-3.41.43-3.87h8.17v-8.6h-4.3c-.27,1.31.55,3.7-.43,4.3h-3.87v-4.3c-1.3-.27-3.7.55-4.29-.43v-3.87h-8.6c-.27,1.31.55,3.7-.43,4.3h-3.87v-4.3h-4.3c-.27,1.31.55,3.7-.43,4.3-1.17-.27-3.41.55-3.87-.43V173.89h-12.9v8.6h8.6v8.6h-4.3v-4.3h-4.3v8.6h17.2c.27-1.31-.55-3.7.43-4.3h8.17v4.3h4.3v-4.3c-1.31-.27-3.71.55-4.3-.43C287.58,184.72,294.34,187.32,298,186.79Zm46.86-4.3H332.36v4.3h12.9v4.3h4.3v-4.3h4.3v-8.6h-8.6v-4.3H341v4.3C344.68,176.92,346.52,179.78,344.83,182.49Zm-29.67,4.3h4.3v-4.3h-4.3ZM341,204h12.9v-4.3h-4.3v-4.3H341Zm-77-4.3c-1,9.17-.14,20.21-.43,30.1h30.1v-30.1Zm85.13,21.5h-3.87v8.6h8.6v-4.3h-4.3c.27-1.31-.55-3.71.43-4.3h3.87v-4.3h-4.3C349.29,218.19,350.11,220.59,349.13,221.19Zm.86-8.6h3.87v-4.3h-8.6v4.3H341v8.6h4.3v-4.3h4.3C349.83,215.58,349,213.18,350,212.59Zm-34.83,8.6h4.3v-4.3h-4.3Zm0,8.6h4.3v-4.3h-4.3Z" transform="translate(-244.2 -120.15)"/>
      <path class="cls-3" d="M311.29,156.7c-1,.59-.16,3-.43,4.3h-4.3v-4.3h4.3v-8.17c-.59-1-3-.16-4.3-.43v8.6h-4.3v-4.3H298v-4.3h4.29v-8.6h4.3v4.3h3.87c1-.6.16-3,.43-4.3h8.6v4.3h-4.3v3.87c.6,1,3,.16,4.3.43v4.3h-4.3v3.87c.6,1,3,.16,4.3.43v17.19h8.6v8.6h-4.3v-3.87c-.59-1-3-.16-4.3-.43v-4.3h-3.87c-1,.6-.16,3-.43,4.3h-4.3v4.3h-8.6v-4.3H280.77v-4.3H298v-8.6h4.29v4.3h3.87c1-.59.16-3,.43-4.3h4.3v4.3h-4.3v4.3h3.87c1-.59.16-3,.43-4.3h4.3C313.92,165.24,318.38,155.2,311.29,156.7Z" transform="translate(-244.2 -120.15)"/>
      <path class="cls-3" d="M289.37,190.66c.59,1,3,.16,4.3.43v4.3h-4.3v-4.3H281.2c-1,.6-.16,3-.43,4.3h-17.2v-8.6h4.3v4.3h4.3v-8.6h-8.6v-8.6h12.9v12.47c.46,1,2.7.16,3.87.43,1-.6.16-3,.43-4.3h4.3v4.3h3.87c1-.6.16-3,.43-4.3H298v3.87c.59,1,3,.16,4.29.43v4.3h3.87c1-.6.16-3,.43-4.3h4.3v8.6h-8.17c-1,.46-.16,2.7-.43,3.87.6,1,3,.16,4.3.43V204h4.3v-8.6h4.3v-4.3h4.3v4.3h-4.3v8.17c.6,1,3,.16,4.3.43v-8.6h4.3v-8.6h4.3v8.6h-4.3c-.61,3.34.24,5.21,3.87,4.3,1-.6.16-3,.43-4.3h4.3v-4.3h4.3v4.3h-4.3v8.17c.6,1,3,.16,4.3.43v4.3h-4.3v8.17c.6,1,3,.16,4.3.43v8.6h-3.87c-1,.59-.16,3-.43,4.3h-8.6v-8.6h4.3v4.3h4.3v-8.6h-8.6V213c-.59-1-3-.16-4.3-.43v-4.3h-3.87c-1,.59-.16,3-.43,4.3h-4.3v8.6h-8.17c-1,2-.14,5.87-.43,8.6H298v-12.9h3.86c1-.6.17-3,.43-4.3h8.17c1-.6.16-3,.43-4.3h-8.17c-1,.59-.16,3-.43,4.3H298v-25.8C294.34,187.32,287.58,184.72,289.37,190.66Zm34.39,17.63h4.3V204h-4.3Z" transform="translate(-244.2 -120.15)"/>
      <path class="cls-3" d="M341,178.19v-4.3h4.3v4.3h8.6v8.6h-4.3v4.3h-4.3v-4.3h-12.9v-4.3h12.47C346.52,179.78,344.68,176.92,341,178.19Z" transform="translate(-244.2 -120.15)"/>
      <path class="cls-3" d="M349.56,216.89h4.3v4.3H350c-1,.59-.16,3-.43,4.3h4.3v4.3h-8.6v-8.6h3.87C350.11,220.59,349.29,218.19,349.56,216.89Z" transform="translate(-244.2 -120.15)"/>
      <rect class="cls-1" x="19.51" y="19.49" width="90.29" height="90.29"/>
    </g>
  </g>
</svg>
