<?xml version="1.0" encoding="UTF-8" standalone="no"?>
<svg
   xmlns:dc="http://purl.org/dc/elements/1.1/"
   xmlns:cc="http://creativecommons.org/ns#"
   xmlns:rdf="http://www.w3.org/1999/02/22-rdf-syntax-ns#"
   xmlns:svg="http://www.w3.org/2000/svg"
   xmlns="http://www.w3.org/2000/svg"
   xmlns:sodipodi="http://sodipodi.sourceforge.net/DTD/sodipodi-0.dtd"
   xmlns:inkscape="http://www.inkscape.org/namespaces/inkscape"
   version="1.1"
   id="svg2"
   xml:space="preserve"
   width="294.64572"
   height="286.65039"
   viewBox="0 0 294.64572 286.65039"
   sodipodi:docname="u04-21.ai"><metadata
     id="metadata8"><rdf:RDF><cc:Work
         rdf:about=""><dc:format>image/svg+xml</dc:format><dc:type
           rdf:resource="http://purl.org/dc/dcmitype/StillImage" /></cc:Work></rdf:RDF></metadata><defs
     id="defs6"><clipPath
       clipPathUnits="userSpaceOnUse"
       id="clipPath18"><path
         d="M 195,288.04 H 415.999 V 504 H 195 Z"
         id="path16" /></clipPath><clipPath
       clipPathUnits="userSpaceOnUse"
       id="clipPath34"><path
         d="M 0,792 H 612 V 0 H 0 Z"
         id="path32" /></clipPath></defs><sodipodi:namedview
     pagecolor="#ffffff"
     bordercolor="#666666"
     borderopacity="1"
     objecttolerance="10"
     gridtolerance="10"
     guidetolerance="10"
     inkscape:pageopacity="0"
     inkscape:pageshadow="2"
     inkscape:window-width="640"
     inkscape:window-height="480"
     id="namedview4" /><g
     id="g10"
     inkscape:groupmode="layer"
     inkscape:label="u04-21"
     transform="matrix(1.3333333,0,0,-1.3333333,-259.99973,671.98532)"><g
       id="g12"><g
         id="g14"
         clip-path="url(#clipPath18)"><g
           id="g20"
           transform="translate(387.7109,489.0591)"><path
             d="m 0,0 c 0,0 -25.992,-53.394 -45.676,-57.304 -19.097,-3.793 -27.164,14.546 -43.262,17.207 -30.214,4.988 -55.457,-14.203 -55.457,-52.578 0,-38.375 25.243,-57.567 55.457,-52.575 16.098,2.657 24.165,21 43.262,17.203 C -25.992,-131.957 0,-185.351 0,-185.351"
             style="fill:none;stroke:#c8191d;stroke-width:3;stroke-linecap:butt;stroke-linejoin:miter;stroke-miterlimit:10;stroke-dasharray:none;stroke-opacity:1"
             id="path22" /></g></g></g><g
       id="g24"
       transform="translate(308.6211,487.0093)"><path
         d="M 0,0 V -181.875"
         style="fill:none;stroke:#231f20;stroke-width:2;stroke-linecap:butt;stroke-linejoin:miter;stroke-miterlimit:4;stroke-dasharray:none;stroke-opacity:1"
         id="path26" /></g><g
       id="g28"><g
         id="g30"
         clip-path="url(#clipPath34)"><g
           id="g36"
           transform="translate(311.0273,493.833)"><path
             d="m 0,0 c 1.133,-3.805 2.188,-6.285 3.398,-9.34 l -11.609,0.039 c 0.523,1.086 2.305,5.52 3.469,9.309 1.25,4.07 2.094,7.758 2.406,10.148 C -2.047,7.758 -1.211,4.062 0,0"
             style="fill:#231f20;fill-opacity:1;fill-rule:nonzero;stroke:none"
             id="path38" /></g><g
           id="g40"
           transform="translate(306.2148,299.1572)"><path
             d="M 0,0 C -1.133,3.805 -2.188,6.281 -3.399,9.336 L 8.211,9.297 C 7.688,8.211 5.906,3.781 4.742,-0.008 3.492,-4.078 2.648,-7.766 2.336,-10.156 2.047,-7.758 1.211,-4.063 0,0"
             style="fill:#231f20;fill-opacity:1;fill-rule:nonzero;stroke:none"
             id="path42" /></g><g
           id="g44"
           transform="translate(211.9771,396.4932)"><path
             d="M 0,0 H 187.875"
             style="fill:none;stroke:#231f20;stroke-width:2;stroke-linecap:butt;stroke-linejoin:miter;stroke-miterlimit:4;stroke-dasharray:none;stroke-opacity:1"
             id="path46" /></g><g
           id="g48"
           transform="translate(205.1558,398.8989)"><path
             d="M 0,0 C 3.805,1.133 6.282,2.188 9.336,3.399 L 9.297,-8.21 c -1.086,0.523 -5.515,2.304 -9.305,3.468 -4.07,1.25 -7.757,2.094 -10.148,2.406 C -7.758,-2.047 -4.062,-1.211 0,0"
             style="fill:#231f20;fill-opacity:1;fill-rule:nonzero;stroke:none"
             id="path50" /></g><g
           id="g52"
           transform="translate(405.8281,394.0869)"><path
             d="M 0,0 C -3.805,-1.133 -6.281,-2.188 -9.336,-3.398 L -9.297,8.211 C -8.211,7.687 -3.781,5.906 0.008,4.742 4.078,3.492 7.766,2.648 10.156,2.336 7.758,2.047 4.063,1.211 0,0"
             style="fill:#231f20;fill-opacity:1;fill-rule:nonzero;stroke:none"
             id="path54" /></g></g></g></g></svg>
