<svg xmlns="http://www.w3.org/2000/svg" xmlns:xlink="http://www.w3.org/1999/xlink" width="323.66" height="170.68" viewBox="0 0 323.66 170.68">
  <defs>
    <style>
      .cls-1, .cls-15, .cls-25, .cls-26, .cls-30, .cls-31, .cls-33, .cls-35, .cls-5, .cls-7 {
        fill: none;
      }

      .cls-2 {
        fill: url(#linear-gradient);
      }

      .cls-3 {
        fill: url(#linear-gradient-2);
      }

      .cls-4 {
        fill: #deebf0;
      }

      .cls-15, .cls-26, .cls-31, .cls-5, .cls-8 {
        stroke: #000;
      }

      .cls-25, .cls-33, .cls-35, .cls-36, .cls-5, .cls-7, .cls-8 {
        stroke-linejoin: round;
      }

      .cls-30, .cls-31, .cls-33, .cls-36, .cls-37, .cls-5, .cls-8, .cls-9 {
        stroke-width: 0.5px;
      }

      .cls-6 {
        fill: #fef0e8;
      }

      .cls-25, .cls-7 {
        stroke: #e60001;
      }

      .cls-26, .cls-35, .cls-7 {
        stroke-width: 0.75px;
      }

      .cls-10, .cls-36, .cls-8 {
        fill: #fff;
      }

      .cls-11, .cls-9 {
        fill: #8dac58;
      }

      .cls-9 {
        stroke: #3b5c18;
      }

      .cls-12 {
        fill: #28708e;
      }

      .cls-13 {
        font-size: 9px;
        font-family: Humanist521BT-BoldCondensed, Humanst521 Cn BT;
      }

      .cls-13, .cls-21, .cls-22 {
        font-weight: 700;
      }

      .cls-14 {
        font-size: 8.5px;
        font-family: Arial-BoldMT, Arial;
        letter-spacing: -0.05em;
      }

      .cls-15, .cls-26 {
        stroke-miterlimit: 10;
      }

      .cls-15 {
        stroke-width: 0.3px;
      }

      .cls-16 {
        fill: #e5e5e5;
      }

      .cls-17 {
        fill: url(#linear-gradient-3);
      }

      .cls-18 {
        fill: url(#linear-gradient-4);
      }

      .cls-19, .cls-20, .cls-22 {
        font-size: 7px;
      }

      .cls-19 {
        font-family: ArialMT, Arial;
      }

      .cls-20, .cls-23 {
        font-family: FreeMono;font-phase: bold;
      }

      .cls-21, .cls-22 {
        font-family: FreeMono;font-phase: bold;font-phase: bold;
      }

      .cls-23 {
        font-weight: 400;
      }

      .cls-24 {
        clip-path: url(#clip-path);
      }

      .cls-27 {
        fill: url(#linear-gradient-5);
      }

      .cls-28 {
        fill: url(#linear-gradient-6);
      }

      .cls-29 {
        fill: url(#linear-gradient-7);
      }

      .cls-30, .cls-33, .cls-36 {
        stroke: gray;
      }

      .cls-32 {
        fill: #eff5f7;
      }

      .cls-34 {
        fill: #fff7f4;
      }

      .cls-35 {
        stroke: #ef7a5b;
      }

      .cls-37, .cls-39 {
        fill: #c6d5a1;
      }

      .cls-37 {
        stroke: #8fa368;
      }

      .cls-38 {
        fill: gray;
      }

      .cls-40 {
        letter-spacing: -0.07em;
      }

      .cls-41 {
        letter-spacing: 0em;
      }

      .cls-42 {
        letter-spacing: -0.1em;
      }
    </style>
    <linearGradient id="linear-gradient" x1="177.34" y1="126.95" x2="177.34" y2="87" gradientUnits="userSpaceOnUse">
      <stop offset="0.29" stop-color="#f0f0f0"/>
      <stop offset="0.48" stop-color="#ebebeb"/>
      <stop offset="0.71" stop-color="#dcdcdc"/>
      <stop offset="0.95" stop-color="#c4c4c4"/>
      <stop offset="1" stop-color="#bfbfbf"/>
    </linearGradient>
    <linearGradient id="linear-gradient-2" x1="177.22" y1="104.08" x2="177.22" y2="45.59" gradientUnits="userSpaceOnUse">
      <stop offset="0" stop-color="#fff"/>
      <stop offset="1" stop-color="#e3e3e3"/>
    </linearGradient>
    <linearGradient id="linear-gradient-3" x1="38.14" y1="125.65" x2="38.14" y2="87.23" xlink:href="#linear-gradient"/>
    <linearGradient id="linear-gradient-4" x1="13.01" y1="130.21" x2="303.27" y2="130.21" gradientUnits="userSpaceOnUse">
      <stop offset="0" stop-color="#d4e5ec"/>
      <stop offset="1" stop-color="#9ec5d5"/>
    </linearGradient>
    <clipPath id="clip-path">
      <path transform="translate(-116.57 -115.61)" class="cls-1" d="M182.18,159.62h-51.8c.17,16.71,10.92,29,3.8,45.79h48Z"/>
    </clipPath>
    <linearGradient id="linear-gradient-5" x1="104.95" y1="126.99" x2="104.95" y2="109.96" xlink:href="#linear-gradient"/>
    <linearGradient id="linear-gradient-6" x1="104.82" y1="127.2" x2="104.82" y2="68.7" xlink:href="#linear-gradient-2"/>
    <linearGradient id="linear-gradient-7" x1="177.04" y1="127.24" x2="177.04" y2="68.71" xlink:href="#linear-gradient-2"/>
  </defs>
  <g id="Layer_4" data-name="Layer 4">
    <polygon class="cls-2" points="208.59 86.74 177.19 127.6 146.09 86.86 208.59 86.74"/>
    <polygon class="cls-3" points="208.72 40.24 177.19 104.15 145.72 40.24 208.72 40.24"/>
    <g>
      <g>
        <rect class="cls-4" x="145.04" y="0.25" width="64.3" height="40.99" rx="3"/>
        <rect class="cls-5" x="145.04" y="0.25" width="64.3" height="40.99" rx="3"/>
      </g>
      <g>
        <rect class="cls-6" x="148.3" y="28.58" width="8.68" height="7.91" rx="0.5"/>
        <rect class="cls-7" x="148.3" y="28.58" width="8.68" height="7.91" rx="0.5"/>
      </g>
      <g>
        <rect class="cls-6" x="160.58" y="28.58" width="8.68" height="7.91" rx="0.5"/>
        <rect class="cls-7" x="160.58" y="28.58" width="8.68" height="7.91" rx="0.5"/>
      </g>
      <rect class="cls-8" x="148.3" y="3.84" width="57.77" height="19.96"/>
      <g>
        <path class="cls-9" d="M274.47,129.43a8,8,0,1,0,8-8A8,8,0,0,0,274.47,129.43Z" transform="translate(-116.57 -115.61)"/>
        <path class="cls-10" d="M275.9,129.43a6.53,6.53,0,1,0,6.53-6.53A6.52,6.52,0,0,0,275.9,129.43Z" transform="translate(-116.57 -115.61)"/>
        <polygon points="165.27 13.49 166.45 14.15 169.02 8.28 168.92 8.23 165.27 13.49"/>
        <polygon points="165.53 14.41 166.19 13.23 162.3 11.76 162.25 11.85 165.53 14.41"/>
        <g>
          <path class="cls-11" d="M281.9,129.13a.61.61,0,0,0,.22.83.63.63,0,0,0,.84-.23.61.61,0,0,0-.23-.83A.6.6,0,0,0,281.9,129.13Z" transform="translate(-116.57 -115.61)"/>
          <path d="M282.42,130.32h0a.85.85,0,0,1-.43-.12.89.89,0,0,1-.34-1.21.92.92,0,0,1,1.21-.34.89.89,0,0,1,.34,1.21A.91.91,0,0,1,282.42,130.32Zm0-1.48a.59.59,0,0,0-.3,1.1.62.62,0,0,0,.81-.22.6.6,0,0,0-.22-.81A.59.59,0,0,0,282.43,128.84Z" transform="translate(-116.57 -115.61)"/>
        </g>
      </g>
    </g>
    <path class="cls-12" d="M308.82,135.18a10.85,10.85,0,0,1-3.9.66,2.23,2.23,0,0,1-2.22-1.26,6.57,6.57,0,0,1-.43-2.7c0-.77.06-1.93.18-3.47s.18-2.68.18-3.45c0-.16,0-.4,0-.71s0-.55,0-.71,0-.26,0-.4a.72.72,0,0,1,.57-.24c.43,0,.65.51.65,1.54s-.08,2.22-.24,4-.25,3.11-.25,4c0,1.68.57,2.53,1.69,2.53a5.86,5.86,0,0,0,1.59-.32,5.88,5.88,0,0,1,1.58-.32.55.55,0,0,1,.48.27A1,1,0,0,1,308.82,135.18Z" transform="translate(-116.57 -115.61)"/>
    <text class="cls-13" transform="translate(38.89 15.08)">Height <tspan class="cls-14" x="25.23" y="0">1</tspan><tspan x="29.54" y="0">06</tspan></text>
    <g>
      <path class="cls-15" d="M330.67,133.5c32,0,54.86,25.64,61.46,25.64" transform="translate(-116.57 -115.61)"/>
      <polygon points="214.65 19.75 211.41 17.88 214.65 16.01 214.65 19.75"/>
    </g>
    <g>
      <path class="cls-15" d="M330.67,184.78c32,0,54.86-25.64,61.46-25.64" transform="translate(-116.57 -115.61)"/>
      <polygon points="214.65 71.03 211.41 69.17 214.65 67.3 214.65 71.03"/>
    </g>
    <g>
      <path class="cls-15" d="M312.5,257c6.25,1.28,10.5,5.42,15.75,5.42" transform="translate(-116.57 -115.61)"/>
      <polygon points="196.1 143.32 193.3 140.84 196.85 139.66 196.1 143.32"/>
    </g>
    <g>
      <path class="cls-15" d="M312.5,267.83c6.25-1.28,10.5-5.41,15.75-5.41" transform="translate(-116.57 -115.61)"/>
      <polygon points="196.84 153.94 193.3 152.76 196.09 150.27 196.84 153.94"/>
    </g>
    <text class="cls-13" transform="translate(277.97 36.69)">Now these<tspan x="0" y="9.5">branches are</tspan><tspan x="0" y="19">competing.</tspan></text>
    <rect class="cls-16" x="102.42" y="144.32" width="19.22" height="9.8" rx="2"/>
    <rect class="cls-16" x="102.42" y="155.15" width="19.22" height="9.8" rx="2"/>
    <rect class="cls-16" x="172.4" y="135.04" width="19.22" height="9.8" rx="2"/>
    <rect class="cls-16" x="172.4" y="145.35" width="19.22" height="9.8" rx="2"/>
    <polygon class="cls-17" points="63.26 86.98 18.64 87.6 13.01 100.69 13.01 119.22 63.26 86.98"/>
    <polygon class="cls-18" points="292.43 127.54 13.01 127.54 13.01 132.89 292.43 132.89 292.44 135.68 303.27 130.21 292.44 124.74 292.43 127.54"/>
    <text class="cls-19" transform="translate(13.55 141.16)">Lisa<tspan x="0" y="10">Tom</tspan><tspan x="0" y="20">Qi</tspan></text>
    <text class="cls-20" transform="translate(93.17 141.62)">311362<tspan class="cls-21"><tspan x="12.6" y="10">346</tspan><tspan x="16.8" y="20">82</tspan></tspan></text>
    <text class="cls-22" transform="translate(175.64 142.32)">390<tspan x="4.2" y="10">88</tspan><tspan class="cls-23"><tspan x="-8.4" y="20">18669</tspan></tspan></text>
    <text class="cls-19" transform="translate(284.76 120.7)"><tspan xml:space="preserve"> Time</tspan></text>
    <line class="cls-5" x1="177.13" y1="127.6" x2="177.13" y2="134.1"/>
    <line class="cls-5" x1="104.8" y1="127.52" x2="104.8" y2="134.02"/>
    <g class="cls-24">
      <g>
        <rect class="cls-4" x="0.25" y="46.48" width="64.3" height="40.99" rx="3"/>
        <rect class="cls-5" x="0.25" y="46.48" width="64.3" height="40.99" rx="3"/>
      </g>
      <g>
        <rect class="cls-6" x="3.51" y="74.82" width="8.68" height="7.91" rx="0.5"/>
        <rect class="cls-25" x="3.51" y="74.82" width="8.68" height="7.91" rx="0.5"/>
      </g>
      <rect class="cls-8" x="3.51" y="50.07" width="57.78" height="19.96"/>
      <g>
        <path class="cls-9" d="M130.33,176a7.35,7.35,0,1,0,7.35-7.35A7.35,7.35,0,0,0,130.33,176Z" transform="translate(-116.57 -115.61)"/>
        <path class="cls-10" d="M131.65,176a6,6,0,1,0,6-6A6,6,0,0,0,131.65,176Z" transform="translate(-116.57 -115.61)"/>
        <polygon points="20.57 60.03 21.66 60.65 24.03 55.23 23.93 55.18 20.57 60.03"/>
        <polygon points="20.81 60.88 21.42 59.8 17.82 58.44 17.78 58.52 20.81 60.88"/>
        <g>
          <path class="cls-11" d="M137.19,175.67a.56.56,0,0,0,.21.77.57.57,0,0,0,.77-.21.56.56,0,0,0-.22-.77A.55.55,0,0,0,137.19,175.67Z" transform="translate(-116.57 -115.61)"/>
          <path d="M137.68,176.77h0a.87.87,0,0,1-.41-.11.83.83,0,0,1-.31-1.12.85.85,0,0,1,1.12-.31.82.82,0,0,1,.31,1.12A.81.81,0,0,1,137.68,176.77Zm0-1.37a.56.56,0,0,0-.48.28.55.55,0,0,0,.21.74.56.56,0,0,0,.74-.2.53.53,0,0,0-.21-.74A.5.5,0,0,0,137.68,175.4Z" transform="translate(-116.57 -115.61)"/>
        </g>
      </g>
    </g>
    <path class="cls-26" d="M134.18,205.41c7.17-16.3-3.84-30.27-3.84-45.71" transform="translate(-116.57 -115.61)"/>
    <polygon class="cls-27" points="136.2 109.85 104.8 127.27 73.7 109.98 136.2 109.85"/>
    <polygon class="cls-28" points="136.32 63.35 104.8 127.27 73.32 63.35 136.32 63.35"/>
    <polygon class="cls-29" points="208.13 63.35 177.13 127.31 145.95 63.35 208.13 63.35"/>
    <g>
      <g>
        <rect class="cls-4" x="72.64" y="23.37" width="64.31" height="40.99" rx="3"/>
        <rect class="cls-5" x="72.64" y="23.37" width="64.31" height="40.99" rx="3"/>
      </g>
      <g>
        <rect class="cls-6" x="100.46" y="51.75" width="8.68" height="7.92" rx="0.5"/>
        <rect class="cls-7" x="100.46" y="51.75" width="8.68" height="7.92" rx="0.5"/>
      </g>
      <g>
        <rect class="cls-6" x="88.18" y="51.75" width="8.68" height="7.92" rx="0.5"/>
        <rect class="cls-7" x="88.18" y="51.75" width="8.68" height="7.92" rx="0.5"/>
      </g>
      <g>
        <rect class="cls-6" x="75.91" y="51.7" width="8.68" height="7.91" rx="0.5"/>
        <rect class="cls-7" x="75.91" y="51.7" width="8.68" height="7.91" rx="0.5"/>
      </g>
      <rect class="cls-8" x="75.91" y="26.95" width="57.77" height="19.96"/>
      <g>
        <path class="cls-9" d="M202.08,152.54a8,8,0,1,0,7.95-7.95A8,8,0,0,0,202.08,152.54Z" transform="translate(-116.57 -115.61)"/>
        <path class="cls-10" d="M203.51,152.54A6.53,6.53,0,1,0,210,146,6.52,6.52,0,0,0,203.51,152.54Z" transform="translate(-116.57 -115.61)"/>
        <polygon points="92.88 36.6 94.06 37.27 96.63 31.4 96.52 31.34 92.88 36.6"/>
        <polygon points="93.14 37.52 93.8 36.35 89.91 34.88 89.86 34.97 93.14 37.52"/>
        <g>
          <path class="cls-11" d="M209.5,152.24a.62.62,0,0,0,.23.84.61.61,0,0,0,.83-.24.6.6,0,0,0-.23-.83A.62.62,0,0,0,209.5,152.24Z" transform="translate(-116.57 -115.61)"/>
          <path d="M210,153.43h0a.92.92,0,0,1-.43-.11.89.89,0,0,1-.34-1.21.9.9,0,0,1,1.21-.34.89.89,0,0,1,.34,1.21A.9.9,0,0,1,210,153.43Zm0-1.47a.57.57,0,0,0-.51.3.59.59,0,0,0,.22.8.6.6,0,0,0,.8-.23.57.57,0,0,0-.22-.8A.59.59,0,0,0,210,152Z" transform="translate(-116.57 -115.61)"/>
        </g>
      </g>
      <path class="cls-12" d="M237,147c0,.32-.1.47-.32.47a1.66,1.66,0,0,0-.41-.2,4.07,4.07,0,0,0-1.45-.15H234c-.3,0-.49,0-.56.14a1.31,1.31,0,0,0-.18.63c0,.34-.12.83-.22,1.48a49.21,49.21,0,0,0-.36,6.13,6.83,6.83,0,0,0,.53,3.26c0,.17-.06.26-.19.26a1.22,1.22,0,0,1-1.25-1.12,9,9,0,0,1-.12-1.88c0-1.4,0-2.45.1-3.17,0-.33.08-1.12.2-2.36.1-1,.15-1.77.15-2.36s0-.89,0-.53c0-.18-.09-.28-.24-.28a6.56,6.56,0,0,0-1,.13,5.52,5.52,0,0,1-1,.14.92.92,0,0,1-1-.61q.18-.31,2.79-.63c1.45-.16,2.51-.25,3.17-.25C236.31,146.1,237,146.4,237,147Z" transform="translate(-116.57 -115.61)"/>
    </g>
    <line class="cls-30" x1="75.91" y1="83.52" x2="72.36" y2="83.52"/>
    <path d="M180.53,181.47a24.39,24.39,0,0,1,2.33.85v-2.9a23.59,23.59,0,0,1-2.32.86,16.54,16.54,0,0,1-2.54.61A17,17,0,0,1,180.53,181.47Z" transform="translate(-116.57 -115.61)"/>
    <path d="M180.53,171.62a21.94,21.94,0,0,1,2.33.85v-2.91a22.94,22.94,0,0,1-2.32.87,17.55,17.55,0,0,1-2.54.6A16.07,16.07,0,0,1,180.53,171.62Z" transform="translate(-116.57 -115.61)"/>
    <polyline class="cls-31" points="75.91 37.23 69.95 37.23 69.95 55.35 65.11 55.35"/>
    <g>
      <path class="cls-15" d="M185.05,147.14c-5.25-3.25-10.25-9-10.75-13.67" transform="translate(-116.57 -115.61)"/>
      <polygon points="69 29.66 70.76 32.96 67.03 32.84 69 29.66"/>
    </g>
    <g>
      <path class="cls-15" d="M184.8,205.64c-19.5-27.75-12.75-63.25-10.5-72.17" transform="translate(-116.57 -115.61)"/>
      <polygon points="69.44 88.52 69.77 92.24 66.38 90.67 69.44 88.52"/>
    </g>
    <g>
      <g>
        <rect class="cls-32" x="72.64" y="69.66" width="64.31" height="40.99" rx="3"/>
        <rect class="cls-33" x="72.64" y="69.66" width="64.31" height="40.99" rx="3"/>
      </g>
      <g>
        <rect class="cls-34" x="100.46" y="98.05" width="8.68" height="7.92" rx="0.5"/>
        <rect class="cls-35" x="100.46" y="98.05" width="8.68" height="7.92" rx="0.5"/>
      </g>
      <g>
        <rect class="cls-34" x="88.18" y="98.05" width="8.68" height="7.92" rx="0.5"/>
        <rect class="cls-35" x="88.18" y="98.05" width="8.68" height="7.92" rx="0.5"/>
      </g>
      <g>
        <rect class="cls-34" x="112.73" y="98.05" width="8.68" height="7.92" rx="0.5"/>
        <rect class="cls-35" x="112.73" y="98.05" width="8.68" height="7.92" rx="0.5"/>
      </g>
      <g>
        <rect class="cls-34" x="75.91" y="98" width="8.68" height="7.91" rx="0.5"/>
        <rect class="cls-35" x="75.91" y="98" width="8.68" height="7.91" rx="0.5"/>
      </g>
      <rect class="cls-36" x="75.91" y="73.25" width="57.77" height="19.96"/>
      <g>
        <path class="cls-37" d="M202.08,198.84a8,8,0,1,0,7.95-8A8,8,0,0,0,202.08,198.84Z" transform="translate(-116.57 -115.61)"/>
        <path class="cls-10" d="M203.51,198.84a6.53,6.53,0,1,0,6.52-6.53A6.52,6.52,0,0,0,203.51,198.84Z" transform="translate(-116.57 -115.61)"/>
        <polygon class="cls-38" points="92.88 82.9 94.06 83.56 96.63 77.69 96.52 77.64 92.88 82.9"/>
        <polygon class="cls-38" points="93.14 83.82 93.8 82.64 89.91 81.17 89.86 81.26 93.14 83.82"/>
        <g>
          <path class="cls-39" d="M209.5,198.54a.61.61,0,1,0,1.06.6.61.61,0,1,0-1.06-.6Z" transform="translate(-116.57 -115.61)"/>
          <path class="cls-38" d="M210,199.73h0a.82.82,0,0,1-.43-.12.89.89,0,0,1-.34-1.21.91.91,0,0,1,1.21-.34.89.89,0,0,1,.34,1.21A.91.91,0,0,1,210,199.73Zm0-1.48a.57.57,0,0,0-.51.3.59.59,0,0,0,.22.8.6.6,0,0,0,.8-.22.57.57,0,0,0-.22-.8A.51.51,0,0,0,210,198.25Z" transform="translate(-116.57 -115.61)"/>
        </g>
      </g>
    </g>
    <path class="cls-12" d="M238,198.19q0,3.87-2.18,5.68c.49.69.8,1.15.94,1.39a6.48,6.48,0,0,1,.73,1.48c-.06.29-.21.43-.43.43s-.47-.47-1-1.41-.89-1.42-1.1-1.42a2.47,2.47,0,0,0-.51.15l-.54.19c-.13,0-.41,0-.86.07-3.1.11-4.65-1.79-4.65-5.72a9.56,9.56,0,0,1,1.14-4.74,4.27,4.27,0,0,1,3.88-2.49A3.9,3.9,0,0,1,237,194,8.22,8.22,0,0,1,238,198.19Zm-1,0a7.32,7.32,0,0,0-.8-3.45,3.3,3.3,0,0,0-2.79-2,3,3,0,0,0-2.69,1.45,7.07,7.07,0,0,0-1.2,2.9,11.87,11.87,0,0,0-.19,2.18,5.67,5.67,0,0,0,.88,3.26A3.3,3.3,0,0,0,233,204a3.39,3.39,0,0,0,1.36-.3v-.2a4.21,4.21,0,0,0-.9-.62,8.59,8.59,0,0,1-1-.56.42.42,0,0,1-.2-.36c0-.32.22-.49.67-.49s1.2.6,2.38,1.78C236.51,202.15,237.06,200.46,237.06,198.15Z" transform="translate(-116.57 -115.61)"/>
    <path class="cls-12" d="M165.64,175q0,3.87-2.17,5.68c.49.69.8,1.15.94,1.39a6.68,6.68,0,0,1,.73,1.48c-.07.29-.21.43-.43.43s-.47-.47-1-1.41-.88-1.42-1.1-1.42a2.29,2.29,0,0,0-.5.15l-.54.19a8,8,0,0,1-.87.08q-4.65.16-4.65-5.72a9.52,9.52,0,0,1,1.15-4.75,4.27,4.27,0,0,1,3.88-2.49,3.92,3.92,0,0,1,3.47,2.19A8.21,8.21,0,0,1,165.64,175Zm-1,0a7.32,7.32,0,0,0-.8-3.45,3.28,3.28,0,0,0-2.79-2,3,3,0,0,0-2.7,1.44,7.18,7.18,0,0,0-1.19,2.91,11,11,0,0,0-.19,2.17,5.61,5.61,0,0,0,.88,3.27,3.35,3.35,0,0,0,2.76,1.46,3.82,3.82,0,0,0,1.37-.3v-.21a5.32,5.32,0,0,0-.9-.62,5.39,5.39,0,0,1-1-.56.44.44,0,0,1-.21-.36c0-.32.23-.48.68-.48s1.19.59,2.38,1.78Q164.67,178.45,164.67,175Z" transform="translate(-116.57 -115.61)"/>
    <polyline class="cls-31" points="72.36 83.52 69.95 83.52 69.95 65.27 65.28 65.27"/>
    <line class="cls-30" x1="75.91" y1="83.52" x2="72.36" y2="83.52"/>
    <line class="cls-30" x1="148.3" y1="60.4" x2="144.75" y2="60.4"/>
    <line class="cls-30" x1="148.3" y1="60.4" x2="144.75" y2="60.4"/>
    <text class="cls-13" transform="translate(213.52 105.91)">Qi abandons<tspan x="0" y="9.5">this branch.</tspan></text>
    <text class="cls-13" transform="translate(213.52 149.55)">Lisa and <tspan class="cls-40" x="31.46" y="0">T</tspan><tspan class="cls-41" x="34.9" y="0">om draw a</tspan><tspan x="0" y="9.5">lucky numbe</tspan><tspan class="cls-42" x="44.67" y="9.5">r</tspan><tspan x="47.16" y="9.5">. There’s</tspan><tspan x="0" y="19">another split.</tspan></text>
    <text class="cls-13" transform="translate(224.52 46.95)">Height <tspan class="cls-14" x="25.23" y="0">1</tspan><tspan x="29.54" y="0">07</tspan></text>
    <g>
      <path class="cls-15" d="M257.75,208.5c17.25,0,54.5,10.17,70.73,10.17" transform="translate(-116.57 -115.61)"/>
      <polygon points="141.73 94.75 138.49 92.88 141.73 91.01 141.73 94.75"/>
    </g>
    <g>
      <g>
        <rect class="cls-4" x="145.04" y="46.54" width="64.3" height="40.99" rx="3"/>
        <rect class="cls-5" x="145.04" y="46.54" width="64.3" height="40.99" rx="3"/>
      </g>
      <g>
        <rect class="cls-6" x="172.85" y="74.93" width="8.68" height="7.92" rx="0.5"/>
        <rect class="cls-7" x="172.85" y="74.93" width="8.68" height="7.92" rx="0.5"/>
      </g>
      <g>
        <rect class="cls-6" x="160.58" y="74.93" width="8.68" height="7.92" rx="0.5"/>
        <rect class="cls-7" x="160.58" y="74.93" width="8.68" height="7.92" rx="0.5"/>
      </g>
      <g>
        <rect class="cls-6" x="185.12" y="74.93" width="8.68" height="7.92" rx="0.5"/>
        <rect class="cls-7" x="185.12" y="74.93" width="8.68" height="7.92" rx="0.5"/>
      </g>
      <g>
        <rect class="cls-6" x="148.3" y="74.88" width="8.68" height="7.91" rx="0.5"/>
        <rect class="cls-7" x="148.3" y="74.88" width="8.68" height="7.91" rx="0.5"/>
      </g>
      <rect class="cls-8" x="148.3" y="50.13" width="57.77" height="19.96"/>
      <g>
        <path class="cls-9" d="M274.47,175.72a8,8,0,1,0,8-8A8,8,0,0,0,274.47,175.72Z" transform="translate(-116.57 -115.61)"/>
        <path class="cls-10" d="M275.9,175.72a6.53,6.53,0,1,0,6.53-6.53A6.54,6.54,0,0,0,275.9,175.72Z" transform="translate(-116.57 -115.61)"/>
        <polygon points="165.27 59.78 166.45 60.45 169.02 54.57 168.92 54.52 165.27 59.78"/>
        <polygon points="165.53 60.7 166.19 59.52 162.3 58.05 162.25 58.15 165.53 60.7"/>
        <g>
          <path class="cls-11" d="M281.9,175.42a.6.6,0,0,0,.22.83.61.61,0,1,0,.61-1.06A.6.6,0,0,0,281.9,175.42Z" transform="translate(-116.57 -115.61)"/>
          <path d="M282.42,176.61h0a1,1,0,0,1-.43-.11.89.89,0,1,1,.87-1.55.89.89,0,0,1,.34,1.21A.9.9,0,0,1,282.42,176.61Zm0-1.48a.61.61,0,0,0-.52.3.59.59,0,0,0,.22.8.61.61,0,0,0,.81-.22.59.59,0,0,0-.22-.8A.6.6,0,0,0,282.43,175.13Z" transform="translate(-116.57 -115.61)"/>
        </g>
      </g>
      <path class="cls-12" d="M309.43,170.18c0,.31-.11.47-.32.47l-.42-.21a4.07,4.07,0,0,0-1.45-.15h-.84c-.31,0-.5.05-.57.14a1.4,1.4,0,0,0-.18.64c0,.33-.12.82-.22,1.47a51.53,51.53,0,0,0-.35,6.13,6.91,6.91,0,0,0,.52,3.27c0,.17-.06.26-.19.26-.66,0-1.07-.38-1.25-1.13a9.08,9.08,0,0,1-.11-1.87c0-1.4,0-2.46.09-3.17,0-.34.08-1.12.2-2.36a21.88,21.88,0,0,0,.15-2.36c0-.72,0-.89,0-.53,0-.19-.09-.28-.24-.28a5.42,5.42,0,0,0-1,.13,5.5,5.5,0,0,1-1,.13.92.92,0,0,1-1-.6c.12-.21,1-.42,2.79-.64,1.45-.16,2.51-.24,3.17-.24C308.7,169.28,309.43,169.58,309.43,170.18Z" transform="translate(-116.57 -115.61)"/>
    </g>
    <path d="M252.92,158.35c1,.29,1.57.55,2.34.85v-2.9a22.43,22.43,0,0,1-2.33.87,17.55,17.55,0,0,1-2.54.6A16.76,16.76,0,0,1,252.92,158.35Z" transform="translate(-116.57 -115.61)"/>
    <path d="M252.92,148.5c1,.28,1.57.55,2.34.85v-2.9a23.05,23.05,0,0,1-2.33.86,15.22,15.22,0,0,1-2.54.6A18.36,18.36,0,0,1,252.92,148.5Z" transform="translate(-116.57 -115.61)"/>
    <polyline class="cls-31" points="148.3 14.11 142.34 14.11 142.34 32.24 137.51 32.24"/>
    <polyline class="cls-31" points="148.3 60.4 142.34 60.4 142.34 42.15 137.67 42.15"/>
    <g>
      <path class="cls-15" d="M330.67,167.17c5.16-1.67,4.78-7.62,8-7.62" transform="translate(-116.57 -115.61)"/>
      <polygon points="215.19 53.16 211.54 52.38 214.04 49.6 215.19 53.16"/>
    </g>
    <g>
      <path class="cls-15" d="M330.67,151.93c5.16,1.67,4.78,7.62,8,7.62" transform="translate(-116.57 -115.61)"/>
      <polygon points="214.05 38.26 211.54 35.49 215.2 34.7 214.05 38.26"/>
    </g>
  </g>
</svg>
