<svg xmlns="http://www.w3.org/2000/svg" width="340.63" height="176.13" viewBox="0 0 340.63 176.13">
  <defs>
    <style>
      .cls-1, .cls-12 {
        fill: #f2f2f2;
      }

      .cls-1, .cls-3 {
        stroke: #a6a6a6;
      }

      .cls-1, .cls-10, .cls-2, .cls-3, .cls-6, .cls-7 {
        stroke-miterlimit: 10;
      }

      .cls-1, .cls-2, .cls-3, .cls-7 {
        stroke-width: 0.5px;
      }

      .cls-10, .cls-2, .cls-3, .cls-6, .cls-7 {
        fill: none;
      }

      .cls-10, .cls-2, .cls-7 {
        stroke: #000;
      }

      .cls-2 {
        stroke-dasharray: 2 1;
      }

      .cls-4 {
        font-size: 7px;
      }

      .cls-4, .cls-5 {
        font-family: ArialMT, Arial;
      }

      .cls-5 {
        font-size: 8px;
      }

      .cls-6 {
        stroke: #0862a9;
      }

      .cls-8 {
        font-size: 9px;
        font-family: Humanist521BT-BoldCondensed, Humanst521 Cn BT;
        font-weight: 700;
      }

      .cls-9 {
        letter-spacing: -0.07em;
      }

      .cls-10 {
        stroke-width: 0.3px;
      }

      .cls-11 {
        fill: #318aaf;
      }

      .cls-13 {
        letter-spacing: -0.02em;
      }
    </style>
  </defs>
  <g id="Layer_2" data-name="Layer 2">
    <rect class="cls-1" x="23.55" y="3.79" width="313.18" height="147.63"/>
    <line class="cls-2" x1="23.37" y1="121.84" x2="336.73" y2="121.84"/>
    <line class="cls-3" x1="23.37" y1="92.27" x2="336.73" y2="92.27"/>
    <line class="cls-3" x1="23.37" y1="62.69" x2="336.73" y2="62.69"/>
    <line class="cls-3" x1="23.37" y1="33.11" x2="336.73" y2="33.11"/>
    <text class="cls-4" transform="translate(21.61 160.61)">0</text>
    <text class="cls-4" transform="translate(52.92 160.61)">1</text>
    <text class="cls-4" transform="translate(84.24 160.61)">2</text>
    <text class="cls-4" transform="translate(115.56 160.61)">3</text>
    <text class="cls-4" transform="translate(146.88 160.61)">4</text>
    <text class="cls-4" transform="translate(178.2 160.61)">5</text>
    <text class="cls-4" transform="translate(209.51 160.61)">6</text>
    <text class="cls-4" transform="translate(240.83 160.61)">7</text>
    <text class="cls-4" transform="translate(272.15 160.61)">8</text>
    <text class="cls-4" transform="translate(303.47 160.61)">9</text>
    <text class="cls-5" transform="translate(135.9 173.53)">Retarget period in weeks</text>
    <text class="cls-5" transform="translate(6.87 114.38) rotate(-90)">Target change factor</text>
    <text class="cls-4" transform="translate(332.84 160.61)">10</text>
    <text class="cls-4" transform="translate(15.36 154.11)">0</text>
    <text class="cls-4" transform="translate(15.36 124.49)">1</text>
    <text class="cls-4" transform="translate(15.36 94.87)">2</text>
    <text class="cls-4" transform="translate(15.36 65.25)">3</text>
    <text class="cls-4" transform="translate(15.36 35.63)">4</text>
    <text class="cls-4" transform="translate(15.36 6.01)">5</text>
    <polyline class="cls-6" points="23.55 144.09 39.48 144.09 274.31 33.11 337.2 33.11"/>
    <polyline class="cls-7" points="23.36 3.54 23.36 151.42 336.73 151.42"/>
    <text class="cls-8" transform="translate(27.96 106.65)"><tspan class="cls-9">T</tspan><tspan x="3.44" y="0">arget</tspan><tspan x="0" y="9.5">halves.</tspan></text>
    <g>
      <path class="cls-10" d="M183.08,304c8.87,3,20.61-1.48,33.61-1.48" transform="translate(-139.97 -158.71)"/>
      <polygon points="43.03 147.22 40.56 144.42 44.23 143.68 43.03 147.22"/>
    </g>
    <g>
      <path class="cls-10" d="M191.2,293.17c-5.67-2.67-12-8.67-12.84-16.34" transform="translate(-139.97 -158.71)"/>
      <polygon points="51.53 132.54 53.66 135.61 49.94 135.92 51.53 132.54"/>
    </g>
    <g>
      <path class="cls-10" d="M223,278.33C215.7,274.17,211.7,267,211.86,257" transform="translate(-139.97 -158.71)"/>
      <polygon points="83.51 117.73 85.4 120.96 81.66 120.98 83.51 117.73"/>
    </g>
    <g>
      <path class="cls-10" d="M285.57,248.88a28.73,28.73,0,0,1-10.48-12.19" transform="translate(-139.97 -158.71)"/>
      <polygon points="146.16 88.31 147.86 91.64 144.12 91.44 146.16 88.31"/>
    </g>
    <g>
      <path class="cls-10" d="M348.91,218.88a28.62,28.62,0,0,1-10.72-12.72" transform="translate(-139.97 -158.71)"/>
      <polygon points="209.5 58.31 211.19 61.64 207.46 61.44 209.5 58.31"/>
    </g>
    <g>
      <path class="cls-10" d="M412.37,187.83c-2.92-6.08-10.34-9.58-15.17-9.58" transform="translate(-139.97 -158.71)"/>
      <polygon points="273.84 27.82 273.55 31.55 270.47 29.44 273.84 27.82"/>
    </g>
    <polygon class="cls-11" points="193.83 106.64 196.21 106.64 196.21 136.93 193.83 136.94 198.48 146.14 203.13 136.94 200.76 136.93 200.76 106.64 203.13 106.64 198.48 97.43 193.83 106.64"/>
    <rect class="cls-12" x="55.7" y="79.29" width="44.33" height="20.17"/>
    <rect class="cls-12" x="76.7" y="128.62" width="63" height="20.17"/>
    <rect class="cls-12" x="206.37" y="124.96" width="50.67" height="13.67"/>
    <rect class="cls-12" x="206.37" y="106.45" width="50.67" height="12.33"/>
    <polygon class="cls-12" points="150.95 76.04 117.62 76.04 117.62 57.29 143.78 57.37 143.78 67.66 150.95 67.66 150.95 76.04"/>
    <polygon class="cls-12" points="214.45 46.37 181.12 46.37 181.12 27.62 207.28 27.7 207.28 38 214.45 38 214.45 46.37"/>
    <polygon class="cls-12" points="257.87 24.87 205.12 24.87 205.12 6.12 263.53 6.12 263.7 16.12 257.87 24.87"/>
    <text class="cls-8" transform="translate(58.68 87.37)"><tspan class="cls-9">T</tspan><tspan x="3.44" y="0">arget stays</tspan><tspan x="0" y="9.5">the same.</tspan></text>
    <text class="cls-8" transform="translate(79.02 137.08)">Ca<tspan class="cls-13" x="8.49" y="0">n</tspan><tspan x="12.81" y="0">’t go lower</tspan><tspan x="0" y="9.5">than factor 0.25.</tspan></text>
    <text class="cls-8" transform="translate(208.09 115.61)">Less difficult</text>
    <text class="cls-8" transform="translate(208.09 134.84)">More difficult</text>
    <text class="cls-8" transform="translate(119.46 65.34)"><tspan class="cls-9">T</tspan><tspan x="3.44" y="0">arget</tspan><tspan x="0" y="9.5">doubles.</tspan></text>
    <text class="cls-8" transform="translate(183.36 34.6)"><tspan class="cls-9">T</tspan><tspan x="3.44" y="0">arget</tspan><tspan x="0" y="9.5">triples.</tspan></text>
    <text class="cls-8" transform="translate(207.25 13.61)">Ca<tspan class="cls-13" x="8.49" y="0">n</tspan><tspan x="12.81" y="0">’t go higher</tspan><tspan x="0" y="9.5">than factor 4.</tspan></text>
  </g>
</svg>
