<?xml version="1.0" encoding="UTF-8" standalone="no"?>
<svg
   xmlns:dc="http://purl.org/dc/elements/1.1/"
   xmlns:cc="http://creativecommons.org/ns#"
   xmlns:rdf="http://www.w3.org/1999/02/22-rdf-syntax-ns#"
   xmlns:svg="http://www.w3.org/2000/svg"
   xmlns="http://www.w3.org/2000/svg"
   version="1.1"
   id="svg2"
   xml:space="preserve"
   width="426.30435"
   height="147.68297"
   viewBox="0 0 426.30435 147.68297"><metadata
     id="metadata8"><rdf:RDF><cc:Work
         rdf:about=""><dc:format>image/svg+xml</dc:format><dc:type
           rdf:resource="http://purl.org/dc/dcmitype/StillImage" /></cc:Work></rdf:RDF></metadata><defs
     id="defs6"><clipPath
       clipPathUnits="userSpaceOnUse"
       id="clipPath18"><path
         d="M 0,792 H 612 V 0 H 0 Z"
         id="path16" /></clipPath></defs><g
     id="g10"
     transform="matrix(1.3333333,0,0,-1.3333333,-179.91831,902.97202)"><g
       id="g12"><g
         id="g14"
         clip-path="url(#clipPath18)"><g
           id="g20"
           transform="translate(443.623,569.7168)"><path
             d="m 0,0 c 0,-1.65 -1.35,-3 -3,-3 h -67.569 c -1.651,0 -3,1.35 -3,3 v 58.675 c 0,1.65 1.349,3 3,3 H -3 c 1.65,0 3,-1.35 3,-3 z"
             style="fill:#deecf5;fill-opacity:1;fill-rule:nonzero;stroke:none"
             id="path22" /></g><g
           id="g24"
           transform="translate(443.623,569.7168)"><path
             d="m 0,0 c 0,-1.65 -1.35,-3 -3,-3 h -67.569 c -1.651,0 -3,1.35 -3,3 v 58.675 c 0,1.65 1.349,3 3,3 H -3 c 1.65,0 3,-1.35 3,-3 z"
             style="fill:none;stroke:#231f20;stroke-width:0.5;stroke-linecap:butt;stroke-linejoin:round;stroke-miterlimit:14.336;stroke-dasharray:none;stroke-opacity:1"
             id="path26" /></g><g
           id="g28"
           transform="translate(224.7207,627.5479)"><path
             d="m 0,0 c 0,1.1 0.9,2 2,2 h 55.113 c 1.1,0 2,-0.9 2,-2 v -11.248 c 0,-1.1 -0.9,-2 -2,-2 H 2 c -1.1,0 -2,0.9 -2,2 z"
             style="fill:#fef7f4;fill-opacity:1;fill-rule:nonzero;stroke:none"
             id="path30" /></g><g
           id="g32"
           transform="translate(224.7207,627.5479)"><path
             d="m 0,0 c 0,1.1 0.9,2 2,2 h 55.113 c 1.1,0 2,-0.9 2,-2 v -11.248 c 0,-1.1 -0.9,-2 -2,-2 H 2 c -1.1,0 -2,0.9 -2,2 z"
             style="fill:none;stroke:#eb7d67;stroke-width:1;stroke-linecap:butt;stroke-linejoin:round;stroke-miterlimit:4;stroke-dasharray:none;stroke-opacity:1"
             id="path34" /></g><text
           transform="matrix(1,0,0,-1,228.0859,619.6401)"
           style="font-variant:normal;font-weight:normal;font-stretch:normal;font-size:8px;font-family:'Nimbus Mono PS';-inkscape-font-specification:'Nimbus Mono PS, Normal';writing-mode:lr-tb;fill:#918f90;fill-opacity:1;fill-rule:nonzero;stroke:none"
           id="text38"><tspan
             x="0 4.8000002 9.6000004 14.4 19.200001 24"
             y="0"
             id="tspan36">0.0001</tspan></text><g
           id="g40"
           transform="translate(224.7207,612.3003)"><path
             d="m 0,0 c 0,1.1 0.9,2 2,2 h 55.113 c 1.1,0 2,-0.9 2,-2 v -11.247 c 0,-1.1 -0.9,-2 -2,-2 H 2 c -1.1,0 -2,0.9 -2,2 z"
             style="fill:#feefe9;fill-opacity:1;fill-rule:nonzero;stroke:none"
             id="path42" /></g><g
           id="g44"
           transform="translate(224.7207,612.3003)"><path
             d="m 0,0 c 0,1.1 0.9,2 2,2 h 55.113 c 1.1,0 2,-0.9 2,-2 v -11.247 c 0,-1.1 -0.9,-2 -2,-2 H 2 c -1.1,0 -2,0.9 -2,2 z"
             style="fill:none;stroke:#d91920;stroke-width:1;stroke-linecap:butt;stroke-linejoin:round;stroke-miterlimit:4;stroke-dasharray:none;stroke-opacity:1"
             id="path46" /></g><text
           transform="matrix(1,0,0,-1,228.0859,604.3926)"
           style="font-variant:normal;font-weight:normal;font-stretch:normal;font-size:8px;font-family:'Nimbus Mono PS';-inkscape-font-specification:'Nimbus Mono PS, Normal';writing-mode:lr-tb;fill:#231f20;fill-opacity:1;fill-rule:nonzero;stroke:none"
           id="text50"><tspan
             x="0 4.8000002 9.6000004 14.4 19.200001 24"
             y="0"
             id="tspan48">0.0002</tspan></text><g
           id="g52"
           transform="translate(224.7207,597.0532)"><path
             d="m 0,0 c 0,1.1 0.9,2 2,2 h 55.113 c 1.1,0 2,-0.9 2,-2 v -11.248 c 0,-1.1 -0.9,-2 -2,-2 H 2 c -1.1,0 -2,0.9 -2,2 z"
             style="fill:#feefe9;fill-opacity:1;fill-rule:nonzero;stroke:none"
             id="path54" /></g><g
           id="g56"
           transform="translate(224.7207,597.0532)"><path
             d="m 0,0 c 0,1.1 0.9,2 2,2 h 55.113 c 1.1,0 2,-0.9 2,-2 v -11.248 c 0,-1.1 -0.9,-2 -2,-2 H 2 c -1.1,0 -2,0.9 -2,2 z"
             style="fill:none;stroke:#d91920;stroke-width:1;stroke-linecap:butt;stroke-linejoin:round;stroke-miterlimit:4;stroke-dasharray:none;stroke-opacity:1"
             id="path58" /></g><text
           transform="matrix(1,0,0,-1,228.0859,589.1455)"
           style="font-variant:normal;font-weight:normal;font-stretch:normal;font-size:8px;font-family:'Nimbus Mono PS';-inkscape-font-specification:'Nimbus Mono PS, Normal';writing-mode:lr-tb;fill:#231f20;fill-opacity:1;fill-rule:nonzero;stroke:none"
           id="text62"><tspan
             x="0 4.8000002 9.6000004 14.4 19.200001 24 28.799999"
             y="0"
             id="tspan60">0.00032</tspan></text><g
           id="g64"
           transform="translate(224.7207,581.8057)"><path
             d="m 0,0 c 0,1.1 0.9,2 2,2 h 55.113 c 1.1,0 2,-0.9 2,-2 v -11.247 c 0,-1.1 -0.9,-2 -2,-2 H 2 c -1.1,0 -2,0.9 -2,2 z"
             style="fill:#feefe9;fill-opacity:1;fill-rule:nonzero;stroke:none"
             id="path66" /></g><g
           id="g68"
           transform="translate(224.7207,581.8057)"><path
             d="m 0,0 c 0,1.1 0.9,2 2,2 h 55.113 c 1.1,0 2,-0.9 2,-2 v -11.247 c 0,-1.1 -0.9,-2 -2,-2 H 2 c -1.1,0 -2,0.9 -2,2 z"
             style="fill:none;stroke:#d91920;stroke-width:1;stroke-linecap:butt;stroke-linejoin:round;stroke-miterlimit:4;stroke-dasharray:none;stroke-opacity:1"
             id="path70" /></g><text
           transform="matrix(1,0,0,-1,228.0859,573.8979)"
           style="font-variant:normal;font-weight:normal;font-stretch:normal;font-size:8px;font-family:'Nimbus Mono PS';-inkscape-font-specification:'Nimbus Mono PS, Normal';writing-mode:lr-tb;fill:#231f20;fill-opacity:1;fill-rule:nonzero;stroke:none"
           id="text74"><tspan
             x="0 4.8000002 9.6000004 14.4 19.200001"
             y="0"
             id="tspan72">0.007</tspan></text><g
           id="g76"
           transform="translate(301.001,612.3003)"><path
             d="m 0,0 c 0,1.1 0.9,2 2,2 h 55.113 c 1.1,0 2,-0.9 2,-2 v -11.247 c 0,-1.1 -0.9,-2 -2,-2 H 2 c -1.1,0 -2,0.9 -2,2 z"
             style="fill:#feefe9;fill-opacity:1;fill-rule:nonzero;stroke:none"
             id="path78" /></g><g
           id="g80"
           transform="translate(301.001,612.3003)"><path
             d="m 0,0 c 0,1.1 0.9,2 2,2 h 55.113 c 1.1,0 2,-0.9 2,-2 v -11.247 c 0,-1.1 -0.9,-2 -2,-2 H 2 c -1.1,0 -2,0.9 -2,2 z"
             style="fill:none;stroke:#d91920;stroke-width:1;stroke-linecap:butt;stroke-linejoin:round;stroke-miterlimit:4;stroke-dasharray:none;stroke-opacity:1"
             id="path82" /></g><text
           transform="matrix(1,0,0,-1,304.3662,604.3926)"
           style="font-variant:normal;font-weight:normal;font-stretch:normal;font-size:8px;font-family:'Nimbus Mono PS';-inkscape-font-specification:'Nimbus Mono PS, Normal';writing-mode:lr-tb;fill:#231f20;fill-opacity:1;fill-rule:nonzero;stroke:none"
           id="text86"><tspan
             x="0 4.8000002 9.6000004 14.4 19.200001 24"
             y="0"
             id="tspan84">0.0002</tspan></text><g
           id="g88"
           transform="translate(301.001,597.0532)"><path
             d="m 0,0 c 0,1.1 0.9,2 2,2 h 55.113 c 1.1,0 2,-0.9 2,-2 v -11.248 c 0,-1.1 -0.9,-2 -2,-2 H 2 c -1.1,0 -2,0.9 -2,2 z"
             style="fill:#feefe9;fill-opacity:1;fill-rule:nonzero;stroke:none"
             id="path90" /></g><g
           id="g92"
           transform="translate(301.001,597.0532)"><path
             d="m 0,0 c 0,1.1 0.9,2 2,2 h 55.113 c 1.1,0 2,-0.9 2,-2 v -11.248 c 0,-1.1 -0.9,-2 -2,-2 H 2 c -1.1,0 -2,0.9 -2,2 z"
             style="fill:none;stroke:#d91920;stroke-width:1;stroke-linecap:butt;stroke-linejoin:round;stroke-miterlimit:4;stroke-dasharray:none;stroke-opacity:1"
             id="path94" /></g><text
           transform="matrix(1,0,0,-1,304.3662,589.1455)"
           style="font-variant:normal;font-weight:normal;font-stretch:normal;font-size:8px;font-family:'Nimbus Mono PS';-inkscape-font-specification:'Nimbus Mono PS, Normal';writing-mode:lr-tb;fill:#231f20;fill-opacity:1;fill-rule:nonzero;stroke:none"
           id="text98"><tspan
             x="0 4.8000002 9.6000004 14.4 19.200001 24 28.799999"
             y="0"
             id="tspan96">0.00032</tspan></text><g
           id="g100"
           transform="translate(301.001,581.8057)"><path
             d="m 0,0 c 0,1.1 0.9,2 2,2 h 55.113 c 1.1,0 2,-0.9 2,-2 v -11.247 c 0,-1.1 -0.9,-2 -2,-2 H 2 c -1.1,0 -2,0.9 -2,2 z"
             style="fill:#feefe9;fill-opacity:1;fill-rule:nonzero;stroke:none"
             id="path102" /></g><g
           id="g104"
           transform="translate(301.001,581.8057)"><path
             d="m 0,0 c 0,1.1 0.9,2 2,2 h 55.113 c 1.1,0 2,-0.9 2,-2 v -11.247 c 0,-1.1 -0.9,-2 -2,-2 H 2 c -1.1,0 -2,0.9 -2,2 z"
             style="fill:none;stroke:#d91920;stroke-width:1;stroke-linecap:butt;stroke-linejoin:round;stroke-miterlimit:4;stroke-dasharray:none;stroke-opacity:1"
             id="path106" /></g><text
           transform="matrix(1,0,0,-1,304.3662,573.8979)"
           style="font-variant:normal;font-weight:normal;font-stretch:normal;font-size:8px;font-family:'Nimbus Mono PS';-inkscape-font-specification:'Nimbus Mono PS, Normal';writing-mode:lr-tb;fill:#231f20;fill-opacity:1;fill-rule:nonzero;stroke:none"
           id="text110"><tspan
             x="0 4.8000002 9.6000004 14.4 19.200001"
             y="0"
             id="tspan108">0.007</tspan></text><g
           id="g112"
           transform="translate(377.2813,612.3003)"><path
             d="m 0,0 c 0,1.1 0.9,2 2,2 h 55.113 c 1.1,0 2,-0.9 2,-2 v -11.247 c 0,-1.1 -0.9,-2 -2,-2 H 2 c -1.1,0 -2,0.9 -2,2 z"
             style="fill:#feefe9;fill-opacity:1;fill-rule:nonzero;stroke:none"
             id="path114" /></g><g
           id="g116"
           transform="translate(377.2813,612.3003)"><path
             d="m 0,0 c 0,1.1 0.9,2 2,2 h 55.113 c 1.1,0 2,-0.9 2,-2 v -11.247 c 0,-1.1 -0.9,-2 -2,-2 H 2 c -1.1,0 -2,0.9 -2,2 z"
             style="fill:none;stroke:#d91920;stroke-width:1;stroke-linecap:butt;stroke-linejoin:round;stroke-miterlimit:4;stroke-dasharray:none;stroke-opacity:1"
             id="path118" /></g><text
           transform="matrix(1,0,0,-1,380.6465,604.3926)"
           style="font-variant:normal;font-weight:normal;font-stretch:normal;font-size:8px;font-family:'Nimbus Mono PS';-inkscape-font-specification:'Nimbus Mono PS, Normal';writing-mode:lr-tb;fill:#231f20;fill-opacity:1;fill-rule:nonzero;stroke:none"
           id="text122"><tspan
             x="0 4.8000002 9.6000004 14.4 19.200001 24"
             y="0"
             id="tspan120">0.0002</tspan></text><g
           id="g124"
           transform="translate(377.2813,597.0532)"><path
             d="m 0,0 c 0,1.1 0.9,2 2,2 h 55.113 c 1.1,0 2,-0.9 2,-2 v -11.248 c 0,-1.1 -0.9,-2 -2,-2 H 2 c -1.1,0 -2,0.9 -2,2 z"
             style="fill:#feefe9;fill-opacity:1;fill-rule:nonzero;stroke:none"
             id="path126" /></g><g
           id="g128"
           transform="translate(377.2813,597.0532)"><path
             d="m 0,0 c 0,1.1 0.9,2 2,2 h 55.113 c 1.1,0 2,-0.9 2,-2 v -11.248 c 0,-1.1 -0.9,-2 -2,-2 H 2 c -1.1,0 -2,0.9 -2,2 z"
             style="fill:none;stroke:#d91920;stroke-width:1;stroke-linecap:butt;stroke-linejoin:round;stroke-miterlimit:4;stroke-dasharray:none;stroke-opacity:1"
             id="path130" /></g><text
           transform="matrix(1,0,0,-1,380.6465,589.1455)"
           style="font-variant:normal;font-weight:normal;font-stretch:normal;font-size:8px;font-family:'Nimbus Mono PS';-inkscape-font-specification:'Nimbus Mono PS, Normal';writing-mode:lr-tb;fill:#231f20;fill-opacity:1;fill-rule:nonzero;stroke:none"
           id="text134"><tspan
             x="0 4.8000002 9.6000004 14.4 19.200001 24 28.799999"
             y="0"
             id="tspan132">0.00032</tspan></text><g
           id="g136"
           transform="translate(377.2813,581.8057)"><path
             d="m 0,0 c 0,1.1 0.9,2 2,2 h 55.113 c 1.1,0 2,-0.9 2,-2 v -11.247 c 0,-1.1 -0.9,-2 -2,-2 H 2 c -1.1,0 -2,0.9 -2,2 z"
             style="fill:#feefe9;fill-opacity:1;fill-rule:nonzero;stroke:none"
             id="path138" /></g><g
           id="g140"
           transform="translate(377.2813,581.8057)"><path
             d="m 0,0 c 0,1.1 0.9,2 2,2 h 55.113 c 1.1,0 2,-0.9 2,-2 v -11.247 c 0,-1.1 -0.9,-2 -2,-2 H 2 c -1.1,0 -2,0.9 -2,2 z"
             style="fill:none;stroke:#d91920;stroke-width:1;stroke-linecap:butt;stroke-linejoin:round;stroke-miterlimit:4;stroke-dasharray:none;stroke-opacity:1"
             id="path142" /></g><text
           transform="matrix(1,0,0,-1,380.6465,573.8979)"
           style="font-variant:normal;font-weight:normal;font-stretch:normal;font-size:8px;font-family:'Nimbus Mono PS';-inkscape-font-specification:'Nimbus Mono PS, Normal';writing-mode:lr-tb;fill:#231f20;fill-opacity:1;fill-rule:nonzero;stroke:none"
           id="text146"><tspan
             x="0 4.8000002 9.6000004 14.4 19.200001"
             y="0"
             id="tspan144">0.007</tspan></text><g
           id="g148"
           transform="translate(222.7207,629.5479)"><path
             d="m 0,0 c -2.929,0 -5.302,-3.53 -5.302,-7.886 v -14.722 c 0,-4.354 -2.375,-7.887 -5.303,-7.887 2.928,0 5.303,-3.529 5.303,-7.882 v -14.726 c 0,-4.355 2.373,-7.886 5.302,-7.886"
             style="fill:none;stroke:#231f20;stroke-width:0.5;stroke-linecap:butt;stroke-linejoin:round;stroke-miterlimit:10;stroke-dasharray:none;stroke-opacity:1"
             id="path150" /></g><text
           transform="matrix(1,0,0,-1,207.7217,670.9844)"
           style="font-variant:normal;font-weight:bold;font-stretch:condensed;font-size:9px;font-family:'Humanst521 Cn BT';-inkscape-font-specification:Humanist521BT-BoldCondensed;writing-mode:lr-tb;fill:#231f20;fill-opacity:1;fill-rule:nonzero;stroke:none"
           id="text162"><tspan
             x="0 5.184 9.5310001 13.491 16.992001 21.312 23.499001 26.496 28.799999 32.400002 36.747002 43.487999 47.997002 51.957001 56.438999 59.939999 63.990002 66.987 70.946999 73.250999 75.564003 79.902"
             y="0"
             id="tspan152">Doesn’t compensate for</tspan><tspan
             x="0 2.1600001 6.507 10.008 13.509 15.813 20.16 22.473 24.777 28.377001 32.723999 39.465 43.973999 47.933998 50.931 53.063999 56.061001 58.194 61.919998 65.879997 70.362 74.321999 77.822998"
             y="9.5039997"
             id="tspan154">loss of competitiveness</tspan><tspan
             x="0 2.1329999 6.6149998 8.9189997 11.916 16.407 20.367001 22.671 27.18 29.34 33.687 37.286999 41.472 43.776001 47.168999 51.219002 54.819"
             y="19.007999"
             id="tspan156">in the block race</tspan><tspan
             x="-72.594002 -65.033997 -60.984001 -58.851002 -55.854 -53.721001 -49.238998 -45.134998 -42.831001 -39.834 -36.441002 -32.390999 -27.909 -24.408001 -20.358 -16.757999 -13.761 -11.628 -7.2810001 -2.799"
             y="68.526001"
             id="tspan158">Waiting transactions</tspan><tspan
             x="-72.594002 -68.247002 -64.853996 -60.345001 -56.384998 -52.992001 -49.032001 -44.522999 -42.219002 -37.709999 -33.938999 -31.635 -29.322001 -25.362 -21.402 -18.233999 -13.725 -9.9540005 -6.9569998"
             y="78.029999"
             id="tspan160">ordered by fee/byte</tspan></text><g
           id="g164"
           transform="translate(283.834,629.5479)"><path
             d="M 0,0 -59.113,-15.248"
             style="fill:none;stroke:#d91920;stroke-width:0.5;stroke-linecap:butt;stroke-linejoin:round;stroke-miterlimit:4;stroke-dasharray:none;stroke-opacity:1"
             id="path166" /></g><g
           id="g168"
           transform="translate(371.834,631.3354)"><path
             d="M 0,0 H -1"
             style="fill:none;stroke:#231f20;stroke-width:0.5;stroke-linecap:butt;stroke-linejoin:round;stroke-miterlimit:4;stroke-dasharray:none;stroke-opacity:1"
             id="path170" /></g><g
           id="g172"
           transform="translate(369.8359,631.3354)"><path
             d="M 0,0 H -74.336"
             style="fill:none;stroke:#231f20;stroke-width:0.5;stroke-linecap:butt;stroke-linejoin:round;stroke-miterlimit:4;stroke-dasharray:1.996, 0.998;stroke-dashoffset:0;stroke-opacity:1"
             id="path174" /></g><g
           id="g176"
           transform="translate(295.001,631.3354)"><path
             d="M 0,0 H -1"
             style="fill:none;stroke:#231f20;stroke-width:0.5;stroke-linecap:butt;stroke-linejoin:round;stroke-miterlimit:4;stroke-dasharray:none;stroke-opacity:1"
             id="path178" /></g><g
           id="g180"
           transform="translate(454.667,631.3354)"><path
             d="M 0,0 H -1"
             style="fill:none;stroke:#231f20;stroke-width:0.5;stroke-linecap:butt;stroke-linejoin:round;stroke-miterlimit:4;stroke-dasharray:none;stroke-opacity:1"
             id="path182" /></g><g
           id="g184"
           transform="translate(452.7822,631.3354)"><path
             d="M 0,0 H -10.173"
             style="fill:none;stroke:#231f20;stroke-width:0.5;stroke-linecap:butt;stroke-linejoin:round;stroke-miterlimit:4;stroke-dasharray:1.769, 0.885;stroke-dashoffset:0;stroke-opacity:1"
             id="path186" /></g><g
           id="g188"
           transform="translate(442.167,631.3354)"><path
             d="M 0,0 H -1"
             style="fill:none;stroke:#231f20;stroke-width:0.5;stroke-linecap:butt;stroke-linejoin:round;stroke-miterlimit:4;stroke-dasharray:none;stroke-opacity:1"
             id="path190" /></g><text
           transform="matrix(1,0,0,-1,312.5605,670.9844)"
           style="font-variant:normal;font-weight:bold;font-stretch:condensed;font-size:9px;font-family:'Humanst521 Cn BT';-inkscape-font-specification:Humanist521BT-BoldCondensed;writing-mode:lr-tb;fill:#231f20;fill-opacity:1;fill-rule:nonzero;stroke:none"
           id="text198"><tspan
             x="0 4.4369998 6.5970001 8.757 11.061 14.454 18.414 25.155001 29.205 31.337999 35.82 37.952999 42.435001"
             y="0"
             id="tspan192">All remaining</tspan><tspan
             x="0 2.997 6.3899999 10.44 14.922 18.423 22.473 26.073 29.07 31.202999 35.549999 40.032001 43.533001 45.837002 51.534 53.667 55.827"
             y="9.5039997"
             id="tspan194">transactions will</tspan><tspan
             x="0 2.313 4.4460001 7.4429998 9.7469997 11.88 16.362 18.666 21.663 26.153999 30.114 32.417999 36.926998 39.087002 43.433998 47.034 51.219002"
             y="19.007999"
             id="tspan196">fit in the block.</tspan></text><g
           id="g200"
           transform="translate(254.334,635.6675)"><path
             d="M 0,0 C 0,4.666 -4.334,8.666 -4.334,13.333"
             style="fill:none;stroke:#231f20;stroke-width:0.3;stroke-linecap:butt;stroke-linejoin:miter;stroke-miterlimit:10;stroke-dasharray:none;stroke-opacity:1"
             id="path202" /></g><g
           id="g204"
           transform="translate(256.1934,636.2148)"><path
             d="M 0,0 -1.87,-3.238 -3.739,0 Z"
             style="fill:#231f20;fill-opacity:1;fill-rule:nonzero;stroke:none"
             id="path206" /></g><g
           id="g208"
           transform="translate(331,619.6665)"><path
             d="M 0,0 C 0,12.333 6.333,22.667 6.333,29.333"
             style="fill:none;stroke:#231f20;stroke-width:0.3;stroke-linecap:butt;stroke-linejoin:miter;stroke-miterlimit:10;stroke-dasharray:none;stroke-opacity:1"
             id="path210" /></g><g
           id="g212"
           transform="translate(332.8594,620.2139)"><path
             d="M 0,0 -1.869,-3.238 -3.739,0 Z"
             style="fill:#231f20;fill-opacity:1;fill-rule:nonzero;stroke:none"
             id="path214" /></g></g></g></g></svg>
