<?xml version="1.0" encoding="UTF-8" standalone="no"?>
<svg
   xmlns:dc="http://purl.org/dc/elements/1.1/"
   xmlns:cc="http://creativecommons.org/ns#"
   xmlns:rdf="http://www.w3.org/1999/02/22-rdf-syntax-ns#"
   xmlns:svg="http://www.w3.org/2000/svg"
   xmlns="http://www.w3.org/2000/svg"
   version="1.1"
   id="svg2"
   xml:space="preserve"
   width="280.66666"
   height="194.80392"
   viewBox="0 0 280.66666 194.80392"><metadata
     id="metadata8"><rdf:RDF><cc:Work
         rdf:about=""><dc:format>image/svg+xml</dc:format><dc:type
           rdf:resource="http://purl.org/dc/dcmitype/StillImage" /></cc:Work></rdf:RDF></metadata><defs
     id="defs6"><clipPath
       clipPathUnits="userSpaceOnUse"
       id="clipPath18"><path
         d="M 0,792 H 612 V 0 H 0 Z"
         id="path16" /></clipPath></defs><g
     id="g10"
     transform="matrix(1.3333333,0,0,-1.3333333,-245.99999,839.8122)"><g
       id="g12"><g
         id="g14"
         clip-path="url(#clipPath18)"><g
           id="g20"
           transform="translate(290.9663,555.5674)"><path
             d="m 0,0 -34.011,63.091 c 10.881,5.856 22.52,8.714 34.877,8.567 z"
             style="fill:#c79ed5;fill-opacity:1;fill-rule:nonzero;stroke:none"
             id="path22" /></g><g
           id="g24"
           transform="translate(290.9663,555.5674)"><path
             d="m 0,0 -34.011,63.091 c 10.881,5.856 22.52,8.714 34.877,8.567 z"
             style="fill:none;stroke:#231f20;stroke-width:0.3;stroke-linecap:butt;stroke-linejoin:round;stroke-miterlimit:4;stroke-dasharray:none;stroke-opacity:1"
             id="path26" /></g><g
           id="g28"
           transform="translate(290.9663,555.5674)"><path
             d="m 0,0 -59.672,39.751 c 6.855,10.274 14.782,17.485 25.661,23.34 z"
             style="fill:#7cad57;fill-opacity:1;fill-rule:nonzero;stroke:none"
             id="path30" /></g><g
           id="g32"
           transform="translate(290.9663,555.5674)"><path
             d="m 0,0 -59.672,39.751 c 6.855,10.274 14.782,17.485 25.661,23.34 z"
             style="fill:none;stroke:#231f20;stroke-width:0.3;stroke-linecap:butt;stroke-linejoin:round;stroke-miterlimit:4;stroke-dasharray:none;stroke-opacity:1"
             id="path34" /></g><g
           id="g36"
           transform="translate(290.9663,555.5674)"><path
             d="m 0,0 -71.136,-9.117 c -2.318,18.059 1.357,33.721 11.464,48.868 z"
             style="fill:#fddc67;fill-opacity:1;fill-rule:nonzero;stroke:none"
             id="path38" /></g><g
           id="g40"
           transform="translate(290.9663,555.5674)"><path
             d="m 0,0 -71.136,-9.117 c -2.318,18.059 1.357,33.721 11.464,48.868 z"
             style="fill:none;stroke:#231f20;stroke-width:0.3;stroke-linecap:butt;stroke-linejoin:round;stroke-miterlimit:4;stroke-dasharray:none;stroke-opacity:1"
             id="path42" /></g><g
           id="g44"
           transform="translate(290.9663,555.5674)"><path
             d="m 0,0 -47.7,-53.513 c -13.606,12.109 -21.117,26.339 -23.436,44.396 z"
             style="fill:#d1e5f2;fill-opacity:1;fill-rule:nonzero;stroke:none"
             id="path46" /></g><g
           id="g48"
           transform="translate(290.9663,555.5674)"><path
             d="m 0,0 -47.7,-53.513 c -13.606,12.109 -21.117,26.339 -23.436,44.396 z"
             style="fill:none;stroke:#231f20;stroke-width:0.3;stroke-linecap:butt;stroke-linejoin:round;stroke-miterlimit:4;stroke-dasharray:none;stroke-opacity:1"
             id="path50" /></g><g
           id="g52"
           transform="translate(290.9663,555.5674)"><path
             d="m 0,0 0.388,-71.66 c -18.221,-0.099 -34.483,6.039 -48.088,18.147 z"
             style="fill:#9865b6;fill-opacity:1;fill-rule:nonzero;stroke:none"
             id="path54" /></g><g
           id="g56"
           transform="translate(290.9663,555.5674)"><path
             d="m 0,0 0.388,-71.66 c -18.221,-0.099 -34.483,6.039 -48.088,18.147 z"
             style="fill:none;stroke:#231f20;stroke-width:0.3;stroke-linecap:butt;stroke-linejoin:round;stroke-miterlimit:4;stroke-dasharray:none;stroke-opacity:1"
             id="path58" /></g><g
           id="g60"
           transform="translate(290.9663,555.5674)"><path
             d="M 0,0 47.344,-53.829 C 33.658,-65.848 18.608,-71.563 0.388,-71.66 Z"
             style="fill:#b8cf99;fill-opacity:1;fill-rule:nonzero;stroke:none"
             id="path62" /></g><g
           id="g64"
           transform="translate(290.9663,555.5674)"><path
             d="M 0,0 47.344,-53.829 C 33.658,-65.848 18.608,-71.563 0.388,-71.66 Z"
             style="fill:none;stroke:#231f20;stroke-width:0.3;stroke-linecap:butt;stroke-linejoin:round;stroke-miterlimit:4;stroke-dasharray:none;stroke-opacity:1"
             id="path66" /></g><g
           id="g68"
           transform="translate(290.9663,555.5674)"><path
             d="M 0,0 71.231,-8.35 C 69.108,-26.431 61.03,-41.811 47.344,-53.829 Z"
             style="fill:#f9ab4e;fill-opacity:1;fill-rule:nonzero;stroke:none"
             id="path70" /></g><g
           id="g72"
           transform="translate(290.9663,555.5674)"><path
             d="M 0,0 71.231,-8.35 C 69.108,-26.431 61.03,-41.811 47.344,-53.829 Z"
             style="fill:none;stroke:#231f20;stroke-width:0.3;stroke-linecap:butt;stroke-linejoin:round;stroke-miterlimit:4;stroke-dasharray:none;stroke-opacity:1"
             id="path74" /></g><g
           id="g76"
           transform="translate(290.9663,555.5674)"><path
             d="M 0,0 59.241,40.393 C 69.51,25.354 73.353,9.732 71.231,-8.35 Z"
             style="fill:#fef0c1;fill-opacity:1;fill-rule:nonzero;stroke:none"
             id="path78" /></g><g
           id="g80"
           transform="translate(290.9663,555.5674)"><path
             d="M 0,0 59.241,40.393 C 69.51,25.354 73.353,9.732 71.231,-8.35 Z"
             style="fill:none;stroke:#231f20;stroke-width:0.3;stroke-linecap:butt;stroke-linejoin:round;stroke-miterlimit:4;stroke-dasharray:none;stroke-opacity:1"
             id="path82" /></g><g
           id="g84"
           transform="translate(290.9663,555.5674)"><path
             d="M 0,0 0.866,71.658 C 25.264,71.363 45.489,60.531 59.241,40.393 Z"
             style="fill:#9fcbe5;fill-opacity:1;fill-rule:nonzero;stroke:none"
             id="path86" /></g><g
           id="g88"
           transform="translate(290.9663,555.5674)"><path
             d="M 0,0 0.866,71.658 C 25.264,71.363 45.489,60.531 59.241,40.393 Z"
             style="fill:none;stroke:#231f20;stroke-width:0.3;stroke-linecap:butt;stroke-linejoin:round;stroke-miterlimit:4;stroke-dasharray:none;stroke-opacity:1"
             id="path90" /></g><text
           transform="matrix(1,0,0,-1,382.1582,604.9375)"
           style="font-variant:normal;font-weight:normal;font-stretch:normal;font-size:7px;font-family:Arial;-inkscape-font-specification:ArialMT;writing-mode:lr-tb;fill:#231f20;fill-opacity:1;fill-rule:nonzero;stroke:none"
           id="text96"><tspan
             x="0 3.892 5.4460001 8.9460001"
             y="0"
             id="tspan92">Lisa</tspan><tspan
             x="-7.007 -3.115 0.77700001 2.723 6.6149998"
             y="10.997"
             id="tspan94">15.4%</tspan></text><g
           id="g98"
           transform="translate(334.75,601.75)"><path
             d="M 0,0 H 60.25"
             style="fill:none;stroke:#231f20;stroke-width:0.5;stroke-linecap:butt;stroke-linejoin:miter;stroke-miterlimit:10;stroke-dasharray:none;stroke-opacity:1"
             id="path100" /></g><text
           transform="matrix(1,0,0,-1,373.2116,567.1172)"
           style="font-variant:normal;font-weight:normal;font-stretch:normal;font-size:7px;font-family:Arial;-inkscape-font-specification:ArialMT;writing-mode:lr-tb;fill:#231f20;fill-opacity:1;fill-rule:nonzero;stroke:none"
           id="text106"><tspan
             x="0 5.0539999 8.9460001 12.446 16.337999 17.892"
             y="0"
             id="tspan102">Rashid</tspan><tspan
             x="1.939 5.8309999 9.7229996 11.669 15.561"
             y="10.997"
             id="tspan104">11.5%</tspan></text><g
           id="g108"
           transform="translate(354.334,564)"><path
             d="M 0,0 H 40.666"
             style="fill:none;stroke:#231f20;stroke-width:0.5;stroke-linecap:butt;stroke-linejoin:miter;stroke-miterlimit:10;stroke-dasharray:none;stroke-opacity:1"
             id="path110" /></g><text
           transform="matrix(1,0,0,-1,380.2146,535.4512)"
           style="font-variant:normal;font-weight:normal;font-stretch:normal;font-size:7px;font-family:Arial;-inkscape-font-specification:ArialMT;writing-mode:lr-tb;fill:#231f20;fill-opacity:1;fill-rule:nonzero;stroke:none"
           id="text116"><tspan
             x="0 4.6690001 8.5609999 10.892"
             y="0"
             id="tspan112">Vera</tspan><tspan
             x="-5.0609999 -1.169 2.723 4.6690001 8.5609999"
             y="10.997"
             id="tspan114">11.5%</tspan></text><g
           id="g118"
           transform="translate(349.293,532.3335)"><path
             d="M 0,0 H 45.707"
             style="fill:none;stroke:#231f20;stroke-width:0.5;stroke-linecap:butt;stroke-linejoin:miter;stroke-miterlimit:10;stroke-dasharray:none;stroke-opacity:1"
             id="path120" /></g><text
           transform="matrix(1,0,0,-1,380.2146,500.4512)"
           style="font-variant:normal;font-weight:normal;font-stretch:normal;font-size:7px;font-family:Arial;-inkscape-font-specification:ArialMT;writing-mode:lr-tb;fill:#231f20;fill-opacity:1;fill-rule:nonzero;stroke:none"
           id="text126"><tspan
             x="0 5.0539999 8.9460001 10.892"
             y="0"
             id="tspan122">Cafe</tspan><tspan
             x="-5.0609999 -1.169 2.723 4.6690001 8.5609999"
             y="10.997"
             id="tspan124">11.5%</tspan></text><g
           id="g128"
           transform="translate(321.625,497.333)"><path
             d="M 0,0 H 73.375"
             style="fill:none;stroke:#231f20;stroke-width:0.5;stroke-linecap:butt;stroke-linejoin:miter;stroke-miterlimit:10;stroke-dasharray:none;stroke-opacity:1"
             id="path130" /></g><text
           transform="matrix(1,0,0,-1,184.5,502.0488)"
           style="font-variant:normal;font-weight:normal;font-stretch:normal;font-size:7px;font-family:Arial;-inkscape-font-specification:ArialMT;writing-mode:lr-tb;fill:#231f20;fill-opacity:1;fill-rule:nonzero;stroke:none"
           id="text136"><tspan
             x="0 5.0539999 8.9460001"
             y="0"
             id="tspan132">Ron</tspan><tspan
             x="0 3.892 7.7839999 9.7299995 13.622"
             y="10.997"
             id="tspan134">11.5%</tspan></text><g
           id="g138"
           transform="translate(184.5,498.9307)"><path
             d="M 0,0 H 75"
             style="fill:none;stroke:#231f20;stroke-width:0.5;stroke-linecap:butt;stroke-linejoin:miter;stroke-miterlimit:10;stroke-dasharray:none;stroke-opacity:1"
             id="path140" /></g><text
           transform="matrix(1,0,0,-1,184.5,543.3828)"
           style="font-variant:normal;font-weight:normal;font-stretch:normal;font-size:7px;font-family:Arial;-inkscape-font-specification:ArialMT;writing-mode:lr-tb;fill:#231f20;fill-opacity:1;fill-rule:nonzero;stroke:none"
           id="text146"><tspan
             x="0 4.277 8.1689997 9.7229996 13.223"
             y="0"
             id="tspan142">Faiza</tspan><tspan
             x="0 3.892 7.7839999 9.7299995 13.622"
             y="10.997"
             id="tspan144">11.5%</tspan></text><g
           id="g148"
           transform="translate(184.5,540.2637)"><path
             d="M 0,0 H 43.833"
             style="fill:none;stroke:#231f20;stroke-width:0.5;stroke-linecap:butt;stroke-linejoin:miter;stroke-miterlimit:10;stroke-dasharray:none;stroke-opacity:1"
             id="path150" /></g><text
           transform="matrix(1,0,0,-1,184.5,573.7842)"
           style="font-variant:normal;font-weight:normal;font-stretch:normal;font-size:7px;font-family:Arial;-inkscape-font-specification:ArialMT;writing-mode:lr-tb;fill:#231f20;fill-opacity:1;fill-rule:nonzero;stroke:none"
           id="text156"><tspan
             x="0 5.0539999 6.6079998 10.108"
             y="0"
             id="tspan152">Nick</tspan><tspan
             x="0 3.892 7.7839999 9.7299995 13.622"
             y="10.997"
             id="tspan154">11.5%</tspan></text><g
           id="g158"
           transform="translate(184.5,570.6665)"><path
             d="M 0,0 H 43.25"
             style="fill:none;stroke:#231f20;stroke-width:0.5;stroke-linecap:butt;stroke-linejoin:miter;stroke-miterlimit:10;stroke-dasharray:none;stroke-opacity:1"
             id="path160" /></g><text
           transform="matrix(1,0,0,-1,184.5,600.4199)"
           style="font-variant:normal;font-weight:normal;font-stretch:normal;font-size:7px;font-family:Arial;-inkscape-font-specification:ArialMT;writing-mode:lr-tb;fill:#231f20;fill-opacity:1;fill-rule:nonzero;stroke:none"
           id="text170"><tspan
             x="0 4.277 8.1689997"
             y="0"
             id="tspan162">Tom</tspan><tspan
             x="0 3.892 5.8379998 9.7299995"
             y="10.997"
             id="tspan164">7.7%</tspan><tspan
             x="0 5.4460001"
             y="-24.367001"
             id="tspan166">Qi</tspan><tspan
             x="0 3.892 5.8379998 9.7299995"
             y="-13.37"
             id="tspan168">7.7%</tspan></text><g
           id="g172"
           transform="translate(184.5,621.6665)"><path
             d="M 0,0 H 95.25"
             style="fill:none;stroke:#231f20;stroke-width:0.5;stroke-linecap:butt;stroke-linejoin:miter;stroke-miterlimit:10;stroke-dasharray:none;stroke-opacity:1"
             id="path174" /></g><g
           id="g176"
           transform="translate(184.5,597)"><path
             d="M 0,0 H 57.25"
             style="fill:none;stroke:#231f20;stroke-width:0.5;stroke-linecap:butt;stroke-linejoin:miter;stroke-miterlimit:10;stroke-dasharray:none;stroke-opacity:1"
             id="path178" /></g><g
           id="g180"
           transform="translate(280.75,621.6665)"><path
             d="m 0,0 c 0,-0.552 -0.448,-1 -1,-1 -0.552,0 -1,0.448 -1,1 0,0.552 0.448,1 1,1 0.552,0 1,-0.448 1,-1"
             style="fill:#231f20;fill-opacity:1;fill-rule:nonzero;stroke:none"
             id="path182" /></g><g
           id="g184"
           transform="translate(242.75,597)"><path
             d="m 0,0 c 0,-0.553 -0.448,-1 -1,-1 -0.552,0 -1,0.447 -1,1 0,0.553 0.448,1 1,1 0.552,0 1,-0.447 1,-1"
             style="fill:#231f20;fill-opacity:1;fill-rule:nonzero;stroke:none"
             id="path186" /></g><g
           id="g188"
           transform="translate(228.75,570.6665)"><path
             d="m 0,0 c 0,-0.553 -0.448,-1 -1,-1 -0.552,0 -1,0.447 -1,1 0,0.553 0.448,1 1,1 0.552,0 1,-0.447 1,-1"
             style="fill:#231f20;fill-opacity:1;fill-rule:nonzero;stroke:none"
             id="path190" /></g><g
           id="g192"
           transform="translate(229.3335,540.2637)"><path
             d="m 0,0 c 0,-0.552 -0.448,-1 -1,-1 -0.552,0 -1,0.448 -1,1 0,0.552 0.448,1 1,1 0.552,0 1,-0.448 1,-1"
             style="fill:#231f20;fill-opacity:1;fill-rule:nonzero;stroke:none"
             id="path194" /></g><g
           id="g196"
           transform="translate(260.5,498.9307)"><path
             d="m 0,0 c 0,-0.553 -0.448,-1 -1,-1 -0.553,0 -1,0.447 -1,1 0,0.553 0.447,1 1,1 0.552,0 1,-0.447 1,-1"
             style="fill:#231f20;fill-opacity:1;fill-rule:nonzero;stroke:none"
             id="path198" /></g><g
           id="g200"
           transform="translate(322.625,497.333)"><path
             d="m 0,0 c 0,-0.553 -0.448,-1 -1,-1 -0.552,0 -1,0.447 -1,1 0,0.553 0.448,1 1,1 0.552,0 1,-0.447 1,-1"
             style="fill:#231f20;fill-opacity:1;fill-rule:nonzero;stroke:none"
             id="path202" /></g><g
           id="g204"
           transform="translate(350.334,532.3335)"><path
             d="m 0,0 c 0,-0.553 -0.448,-1 -1,-1 -0.552,0 -1,0.447 -1,1 0,0.553 0.448,1 1,1 0.552,0 1,-0.447 1,-1"
             style="fill:#231f20;fill-opacity:1;fill-rule:nonzero;stroke:none"
             id="path206" /></g><g
           id="g208"
           transform="translate(355.334,564)"><path
             d="m 0,0 c 0,-0.553 -0.448,-1 -1,-1 -0.552,0 -1,0.447 -1,1 0,0.553 0.448,1 1,1 0.552,0 1,-0.447 1,-1"
             style="fill:#231f20;fill-opacity:1;fill-rule:nonzero;stroke:none"
             id="path210" /></g><g
           id="g212"
           transform="translate(335.75,601.75)"><path
             d="m 0,0 c 0,-0.552 -0.448,-1 -1,-1 -0.552,0 -1,0.448 -1,1 0,0.552 0.448,1 1,1 0.552,0 1,-0.448 1,-1"
             style="fill:#231f20;fill-opacity:1;fill-rule:nonzero;stroke:none"
             id="path214" /></g></g></g></g></svg>
