<svg xmlns="http://www.w3.org/2000/svg" width="362.1" height="104.78" viewBox="0 0 362.1 104.78">
  <defs>
    <style>
      .cls-1, .cls-15, .cls-20, .cls-21 {
        fill: none;
      }

      .cls-1, .cls-2, .cls-20, .cls-21, .cls-6 {
        stroke: #000;
      }

      .cls-1, .cls-2, .cls-20, .cls-3 {
        stroke-width: 0.5px;
      }

      .cls-12, .cls-2, .cls-4 {
        fill: #fff;
      }

      .cls-15, .cls-2, .cls-20 {
        stroke-linejoin: round;
      }

      .cls-3, .cls-5 {
        fill: #8dac58;
      }

      .cls-3 {
        stroke: #3b5c18;
      }

      .cls-6 {
        fill: #fda452;
      }

      .cls-21, .cls-6 {
        stroke-width: 0.3px;
      }

      .cls-7 {
        fill: #fbafc5;
      }

      .cls-10, .cls-11, .cls-7, .cls-8, .cls-9 {
        fill-rule: evenodd;
      }

      .cls-8 {
        fill: #96c749;
      }

      .cls-9 {
        fill: #e80001;
      }

      .cls-11 {
        fill: #28708e;
      }

      .cls-12, .cls-13 {
        font-size: 19px;
      }

      .cls-12 {
        stroke: #fff;
        stroke-width: 2px;
      }

      .cls-12, .cls-13, .cls-17 {
        font-family: Humanist521BT-BoldCondensed, Humanst521 Cn BT;
        font-weight: 700;
      }

      .cls-13 {
        fill: #499822;
      }

      .cls-14 {
        fill: #fef0e8;
      }

      .cls-15 {
        stroke: #e60001;
      }

      .cls-16 {
        font-size: 7px;
        font-family: ArialMT, Arial;
      }

      .cls-17 {
        font-size: 9px;
      }

      .cls-18 {
        letter-spacing: 0.02em;
      }

      .cls-19 {
        letter-spacing: -0.07em;
      }

      .cls-21 {
        stroke-miterlimit: 10;
      }
    </style>
  </defs>
  <g id="Layer_2" data-name="Layer 2">
    <polyline class="cls-1" points="253.96 47.63 239.23 47.63 239.23 59.5"/>
    <rect class="cls-2" x="169.56" y="0.25" width="103.14" height="19.54"/>
    <g>
      <path class="cls-3" d="M354.58,100.18a6.48,6.48,0,1,0,6.48-6.48A6.48,6.48,0,0,0,354.58,100.18Z" transform="translate(-127.94 -89.87)"/>
      <path class="cls-4" d="M355.75,100.18a5.31,5.31,0,1,0,5.31-5.31A5.31,5.31,0,0,0,355.75,100.18Z" transform="translate(-127.94 -89.87)"/>
      <polygon points="232.64 10.03 233.6 10.58 235.69 5.79 235.6 5.75 232.64 10.03"/>
      <polygon points="232.85 10.78 233.39 9.83 230.22 8.63 230.18 8.7 232.85 10.78"/>
      <g>
        <path class="cls-5" d="M360.63,99.93a.49.49,0,1,0,.86.49.49.49,0,1,0-.86-.49Z" transform="translate(-127.94 -89.87)"/>
        <path d="M361.06,100.9h0a.74.74,0,0,1-.36-.09.72.72,0,0,1-.27-1,.74.74,0,0,1,1-.27.71.71,0,0,1,.28,1A.72.72,0,0,1,361.06,100.9Zm0-1.2a.49.49,0,0,0-.42.24.47.47,0,0,0,.18.65.5.5,0,0,0,.66-.18.48.48,0,0,0-.19-.65A.46.46,0,0,0,361.06,99.7Z" transform="translate(-127.94 -89.87)"/>
      </g>
    </g>
    <g>
      <path class="cls-6" d="M328.19,100.05l-1.74-2a11.35,11.35,0,0,1,7.5.38,6.7,6.7,0,0,0,3.82.49,4,4,0,0,0,2.48-1.48c.74-.82,1.58-1.74,4.42-2l1.38,2c-2.25.21-2.84.86-3.52,1.62a5.21,5.21,0,0,1-3.16,1.84,9.66,9.66,0,0,1-5.26-.62A8.6,8.6,0,0,0,328.19,100.05Z" transform="translate(-127.94 -89.87)"/>
      <path class="cls-6" d="M331.59,101.91l-1.74-2a11.29,11.29,0,0,1,7.5.38,6.61,6.61,0,0,0,3.82.48,3.93,3.93,0,0,0,2.48-1.48c.74-.81,1.58-1.74,4.42-2l1.38,2c-2.25.22-2.84.87-3.52,1.63a5.16,5.16,0,0,1-3.16,1.83,9.66,9.66,0,0,1-5.26-.61A8.55,8.55,0,0,0,331.59,101.91Z" transform="translate(-127.94 -89.87)"/>
      <path class="cls-6" d="M330.83,104l-1.74-2a11.38,11.38,0,0,1,7.51.38,6.7,6.7,0,0,0,3.82.49,4,4,0,0,0,2.48-1.48c.74-.82,1.58-1.75,4.42-2l1.38,2c-2.25.21-2.84.86-3.53,1.62a5.18,5.18,0,0,1-3.15,1.84,9.65,9.65,0,0,1-5.26-.62A8.58,8.58,0,0,0,330.83,104Z" transform="translate(-127.94 -89.87)"/>
      <path class="cls-6" d="M334.29,105.82l-1.74-2a11.29,11.29,0,0,1,7.5.38,6.7,6.7,0,0,0,3.82.48,4,4,0,0,0,2.48-1.47c.75-.82,1.59-1.75,4.42-2l1.39,2c-2.25.22-2.85.87-3.53,1.63a5.18,5.18,0,0,1-3.15,1.83,9.7,9.7,0,0,1-5.27-.61A8.54,8.54,0,0,0,334.29,105.82Z" transform="translate(-127.94 -89.87)"/>
      <path class="cls-6" d="M328.72,97.91,327,96a11.29,11.29,0,0,1,7.5.38,6.78,6.78,0,0,0,3.82.48,3.93,3.93,0,0,0,2.48-1.48c.74-.82,1.58-1.74,4.42-2l1.38,2c-2.25.22-2.84.87-3.53,1.62a5.1,5.1,0,0,1-3.15,1.84,9.66,9.66,0,0,1-5.26-.61A8.6,8.6,0,0,0,328.72,97.91Z" transform="translate(-127.94 -89.87)"/>
      <polygon points="200.89 6.3 203.26 6.09 204.3 6.64 202.75 6.54 200.89 6.3"/>
      <polygon points="206.96 7.5 209.49 8.46 211.13 7.94 209.05 7.67 206.96 7.5"/>
      <polygon points="207.95 10.55 206.17 10.46 205.44 10.96 207.25 10.78 209.57 11.7 211.02 11.68 209.02 10.9 207.95 10.55"/>
      <path d="M346.41,100.23c-.45,0-1.61.31-1.61.31l-.88,1.45,1.25-.88,1.93-.27Z" transform="translate(-127.94 -89.87)"/>
      <polygon points="219.39 13.92 218.57 14.96 216.69 15.55 217.75 16 219.29 15.36 219.39 13.92"/>
      <polygon points="211.55 14.88 209.74 14.33 208.35 14.67 210 14.78 211.55 14.88"/>
      <polygon points="205.53 12.64 204.49 12.82 205.93 12.9 205.53 12.64"/>
      <polygon class="cls-7" points="213.93 6.43 212.64 6.78 211.13 7.94 213.21 7.48 213.93 6.43"/>
      <polygon class="cls-7" points="215.56 12.69 213.88 13.51 213.69 14.01 215.31 13.6 215.56 12.69"/>
      <polygon class="cls-7" points="222.78 12.17 220.89 12.86 220.75 13.78 222.31 13.04 222.78 12.17"/>
      <polygon class="cls-7" points="204.38 12.07 203.1 13.16 202.65 12.47 204.38 12.07"/>
      <polygon class="cls-8" points="212.09 9.74 209.78 9.54 211.03 10.12 212.09 9.74"/>
      <path class="cls-8" d="M342.31,105.33l-2.16-.49s1.11.77,1.42.91a15.07,15.07,0,0,0,2.19.29Z" transform="translate(-127.94 -89.87)"/>
      <polygon class="cls-8" points="205.14 9.98 203.23 10.04 203.97 11.08 205.14 9.98"/>
      <path class="cls-8" d="M344.51,94.25l-2.14.87s-.85,1.24-.51,1.18a12.33,12.33,0,0,0,1.83-1Z" transform="translate(-127.94 -89.87)"/>
    </g>
    <g>
      <path class="cls-9" d="M372.79,100.23a4.13,4.13,0,1,0,4.13-4.12A4.13,4.13,0,0,0,372.79,100.23Zm-2.27,0a6.4,6.4,0,1,1,6.4,6.39A6.39,6.39,0,0,1,370.52,100.23Z" transform="translate(-127.94 -89.87)"/>
      <polygon class="cls-10" points="251.22 7.14 248.98 9.35 246.75 7.14 251.22 7.14"/>
      <polygon class="cls-10" points="246.75 13.65 248.98 11.44 251.22 13.65 246.75 13.65"/>
    </g>
    <path class="cls-11" d="M396,105.57h-1c-1.1-1.25-2.15-2.54-3.24-3.81L389,98.42c-.13-.16-.25-.37-.47-.41a1.21,1.21,0,0,0-.1.74V103a3.29,3.29,0,0,0,.19,1.51,1,1,0,0,0,.74.37,1.79,1.79,0,0,1,.53.07c.11.1.06.46,0,.55-1.24,0-2.51,0-3.73,0a.65.65,0,0,1,0-.56,3.14,3.14,0,0,0,.95-.18c.6-.28.5-1.31.5-2.21V97.37a9,9,0,0,0,0-1l0-.08a1.45,1.45,0,0,0-1.31-.94.7.7,0,0,1,0-.55c.88,0,1.81,0,2.71,0,1.94,2.24,3.84,4.54,5.78,6.8.11.13.3.42.46.36s.1-.5.1-.72V97.08a2.78,2.78,0,0,0-.23-1.41c-.23-.33-.76-.32-1.23-.41a.52.52,0,0,1,0-.5c1.22,0,2.52,0,3.74,0a.62.62,0,0,1,0,.55,3,3,0,0,0-1,.23c-.52.32-.42,1.38-.42,2.19,0,2.59-.05,5.37.09,7.75A.48.48,0,0,0,396,105.57Z" transform="translate(-127.94 -89.87)"/>
    <g>
      <path class="cls-6" d="M301.76,100.05l-1.74-2a11.38,11.38,0,0,1,7.51.38,6.67,6.67,0,0,0,3.81.49,4,4,0,0,0,2.49-1.48c.74-.82,1.58-1.74,4.42-2l1.38,2c-2.25.21-2.84.86-3.53,1.62A5.18,5.18,0,0,1,313,101a9.7,9.7,0,0,1-5.27-.62A8.6,8.6,0,0,0,301.76,100.05Z" transform="translate(-127.94 -89.87)"/>
      <path class="cls-6" d="M305.16,101.91l-1.74-2a11.29,11.29,0,0,1,7.5.38,6.63,6.63,0,0,0,3.82.48,3.93,3.93,0,0,0,2.48-1.48c.75-.81,1.59-1.74,4.42-2l1.39,2c-2.25.22-2.84.87-3.53,1.63a5.16,5.16,0,0,1-3.15,1.83,9.7,9.7,0,0,1-5.27-.61A8.54,8.54,0,0,0,305.16,101.91Z" transform="translate(-127.94 -89.87)"/>
      <path class="cls-6" d="M304.41,104l-1.74-2a11.35,11.35,0,0,1,7.5.38,6.71,6.71,0,0,0,3.82.49,4,4,0,0,0,2.48-1.48c.74-.82,1.58-1.75,4.42-2l1.38,2c-2.25.21-2.84.86-3.53,1.62a5.15,5.15,0,0,1-3.15,1.84,9.66,9.66,0,0,1-5.26-.62A8.54,8.54,0,0,0,304.41,104Z" transform="translate(-127.94 -89.87)"/>
      <path class="cls-6" d="M307.86,105.82l-1.74-2a11.31,11.31,0,0,1,7.51.38,6.69,6.69,0,0,0,3.82.48,4,4,0,0,0,2.48-1.47c.74-.82,1.58-1.75,4.42-2l1.38,2c-2.25.22-2.84.87-3.53,1.63a5.15,5.15,0,0,1-3.15,1.83,9.66,9.66,0,0,1-5.26-.61A8.57,8.57,0,0,0,307.86,105.82Z" transform="translate(-127.94 -89.87)"/>
      <path class="cls-6" d="M302.29,97.91l-1.74-2a11.28,11.28,0,0,1,7.5.38,6.81,6.81,0,0,0,3.83.48,4,4,0,0,0,2.48-1.48c.74-.82,1.58-1.74,4.42-2l1.38,2c-2.25.22-2.84.87-3.53,1.62a5.13,5.13,0,0,1-3.15,1.84,9.7,9.7,0,0,1-5.27-.61A8.59,8.59,0,0,0,302.29,97.91Z" transform="translate(-127.94 -89.87)"/>
      <polygon points="174.46 6.3 176.84 6.09 177.87 6.64 176.32 6.54 174.46 6.3"/>
      <polygon points="180.53 7.5 183.07 8.46 184.71 7.94 182.63 7.67 180.53 7.5"/>
      <polygon points="181.53 10.55 179.74 10.46 179.02 10.96 180.83 10.78 183.15 11.7 184.6 11.68 182.59 10.9 181.53 10.55"/>
      <path d="M320,100.23c-.45,0-1.61.31-1.61.31l-.89,1.45,1.25-.88,1.94-.27Z" transform="translate(-127.94 -89.87)"/>
      <polygon points="192.97 13.92 192.14 14.96 190.27 15.55 191.32 16 192.87 15.36 192.97 13.92"/>
      <polygon points="185.13 14.88 183.31 14.33 181.92 14.67 183.58 14.78 185.13 14.88"/>
      <polygon points="179.1 12.64 178.07 12.82 179.51 12.9 179.1 12.64"/>
      <polygon class="cls-7" points="187.5 6.43 186.22 6.78 184.71 7.94 186.78 7.48 187.5 6.43"/>
      <polygon class="cls-7" points="189.13 12.69 187.45 13.51 187.26 14.01 188.89 13.6 189.13 12.69"/>
      <polygon class="cls-7" points="196.35 12.17 194.47 12.86 194.33 13.78 195.89 13.04 196.35 12.17"/>
      <polygon class="cls-7" points="177.96 12.07 176.68 13.16 176.22 12.47 177.96 12.07"/>
      <polygon class="cls-8" points="185.67 9.74 183.35 9.54 184.6 10.12 185.67 9.74"/>
      <path class="cls-8" d="M315.88,105.33l-2.16-.49s1.12.77,1.43.91a14.9,14.9,0,0,0,2.19.29Z" transform="translate(-127.94 -89.87)"/>
      <polygon class="cls-8" points="178.72 9.98 176.81 10.04 177.54 11.08 178.72 9.98"/>
      <path class="cls-8" d="M318.09,94.25l-2.14.87s-.85,1.24-.51,1.18a12.68,12.68,0,0,0,1.82-1Z" transform="translate(-127.94 -89.87)"/>
    </g>
    <polyline class="cls-1" points="174.15 47.63 189.06 47.63 189.06 59.5"/>
    <polyline class="cls-1" points="150.54 47.63 135.89 47.63 135.89 59.5"/>
    <line class="cls-1" x1="214.02" y1="21.08" x2="214.02" y2="31.45"/>
    <path d="M332.12,126.6a24.39,24.39,0,0,0-2.33.85v-2.9c.27.13,1.38.57,2.32.87a17.55,17.55,0,0,0,2.54.6A17,17,0,0,0,332.12,126.6Z" transform="translate(-127.94 -89.87)"/>
    <polyline class="cls-1" points="202.08 36.13 162.48 36.13 162.48 43.47"/>
    <polyline class="cls-1" points="225.75 36.13 265.56 36.13 265.56 43.47"/>
    <text class="cls-12" transform="translate(206.09 41.85)">+</text>
    <text class="cls-13" transform="translate(206.27 41.85)">+</text>
    <path d="M342.56,109.32a24.39,24.39,0,0,0,.85,2.33h-2.9a23.59,23.59,0,0,0,.86-2.32,15.22,15.22,0,0,0,.6-2.54A18.7,18.7,0,0,0,342.56,109.32Z" transform="translate(-127.94 -89.87)"/>
    <line class="cls-1" x1="135.89" y1="75.87" x2="135.89" y2="81.78"/>
    <path d="M264.43,163.65a24.39,24.39,0,0,0,.85,2.33h-2.9c.13-.27.57-1.38.87-2.33a17.47,17.47,0,0,0,.6-2.53A17,17,0,0,0,264.43,163.65Z" transform="translate(-127.94 -89.87)"/>
    <path d="M351.79,126.6a24.39,24.39,0,0,1,2.33.85v-2.9a24.59,24.59,0,0,1-2.32.87,17.55,17.55,0,0,1-2.54.6A17,17,0,0,1,351.79,126.6Z" transform="translate(-127.94 -89.87)"/>
    <path d="M280.58,138.1a24.39,24.39,0,0,0-2.33.85v-2.9c.27.13,1.38.57,2.32.87a17.55,17.55,0,0,0,2.54.6A17,17,0,0,0,280.58,138.1Z" transform="translate(-127.94 -89.87)"/>
    <text class="cls-12" transform="translate(154.55 53.35)">+</text>
    <text class="cls-13" transform="translate(154.55 53.35)">+</text>
    <path d="M300.25,138.1a24.39,24.39,0,0,1,2.33.85v-2.9c-.27.13-1.38.57-2.32.87a17.55,17.55,0,0,1-2.54.6A17,17,0,0,1,300.25,138.1Z" transform="translate(-127.94 -89.87)"/>
    <g>
      <rect class="cls-14" x="108.05" y="82.26" width="55.67" height="22.02" rx="2"/>
      <rect class="cls-15" x="108.05" y="82.26" width="55.67" height="22.02" rx="2"/>
    </g>
    <text class="cls-16" transform="translate(110.63 95.49)">Tx<tspan x="7.78" y="2">1</tspan></text>
    <g>
      <path class="cls-6" d="M248.55,153.22l-2.26-2.55c4.24-1.3,7.3-.3,9.77.5,1.83.59,3.15,1,5,.63a5.15,5.15,0,0,0,3.23-1.93c1-1.06,2.06-2.27,5.76-2.62l1.79,2.63c-2.92.29-3.69,1.13-4.58,2.12a6.78,6.78,0,0,1-4.11,2.39,12.59,12.59,0,0,1-6.85-.8C254,152.87,251.93,152.18,248.55,153.22Z" transform="translate(-127.94 -89.87)"/>
      <path class="cls-6" d="M253,155.64l-2.27-2.55c4.24-1.3,7.31-.3,9.77.5,1.83.59,3.16,1,5,.63a5.21,5.21,0,0,0,3.23-1.93c1-1.06,2.06-2.27,5.75-2.62l1.8,2.63c-2.93.29-3.7,1.13-4.59,2.11a6.71,6.71,0,0,1-4.11,2.4,12.6,12.6,0,0,1-6.85-.8C258.46,155.29,256.35,154.6,253,155.64Z" transform="translate(-127.94 -89.87)"/>
      <path class="cls-6" d="M252,158.34l-2.27-2.55c4.24-1.3,7.31-.31,9.78.49,1.82.6,3.15,1,5,.64a5.21,5.21,0,0,0,3.23-1.93c1-1.06,2.06-2.27,5.75-2.62l1.8,2.63c-2.93.28-3.7,1.13-4.59,2.11a6.71,6.71,0,0,1-4.1,2.4,12.63,12.63,0,0,1-6.86-.8A11.13,11.13,0,0,0,252,158.34Z" transform="translate(-127.94 -89.87)"/>
      <path class="cls-6" d="M256.5,160.73l-2.27-2.55c4.24-1.3,7.31-.3,9.77.49,1.83.6,3.16,1,5,.64a5.18,5.18,0,0,0,3.23-1.93c1-1.06,2.06-2.27,5.75-2.62l1.8,2.63c-2.92.29-3.7,1.13-4.59,2.12a6.75,6.75,0,0,1-4.1,2.39,12.64,12.64,0,0,1-6.86-.8C262,160.38,259.87,159.69,256.5,160.73Z" transform="translate(-127.94 -89.87)"/>
      <path class="cls-6" d="M249.24,150.44,247,147.9c4.24-1.31,7.3-.31,9.77.49,1.83.59,3.15,1,5,.63a5.18,5.18,0,0,0,3.23-1.93c1-1.06,2.07-2.27,5.75-2.62l1.8,2.64c-2.92.28-3.69,1.13-4.58,2.11a6.74,6.74,0,0,1-4.11,2.39,12.64,12.64,0,0,1-6.86-.8C254.72,150.09,252.62,149.4,249.24,150.44Z" transform="translate(-127.94 -89.87)"/>
      <polygon points="121.45 58.3 124.54 58.02 125.89 58.74 123.87 58.61 121.45 58.3"/>
      <polygon points="129.35 59.87 132.66 61.11 134.79 60.44 132.08 60.09 129.35 59.87"/>
      <polygon points="130.65 63.84 128.33 63.72 127.38 64.37 129.73 64.13 132.75 65.33 134.65 65.31 132.03 64.29 130.65 63.84"/>
      <path d="M272.29,153.45c-.59.06-2.1.41-2.1.41L269,155.75l1.62-1.15,2.52-.35Z" transform="translate(-127.94 -89.87)"/>
      <polygon points="145.54 68.22 144.47 69.57 142.03 70.34 143.4 70.93 145.41 70.1 145.54 68.22"/>
      <polygon points="135.33 69.47 132.97 68.76 131.16 69.2 133.32 69.35 135.33 69.47"/>
      <polygon points="127.49 66.55 126.14 66.79 128.02 66.89 127.49 66.55"/>
      <polygon class="cls-7" points="138.43 58.47 136.76 58.93 134.79 60.44 137.49 59.84 138.43 58.47"/>
      <polygon class="cls-7" points="140.55 66.62 138.36 67.69 138.12 68.34 140.23 67.8 140.55 66.62"/>
      <polygon class="cls-7" points="149.95 65.94 147.49 66.84 147.31 68.04 149.35 67.08 149.95 65.94"/>
      <polygon class="cls-7" points="126 65.81 124.33 67.23 123.74 66.34 126 65.81"/>
      <polygon class="cls-8" points="136.04 62.78 133.03 62.52 134.66 63.27 136.04 62.78"/>
      <path class="cls-8" d="M266.94,160.09l-2.81-.63s1.45,1,1.86,1.19a19.89,19.89,0,0,0,2.85.37Z" transform="translate(-127.94 -89.87)"/>
      <polygon class="cls-8" points="126.98 63.09 124.5 63.18 125.46 64.52 126.98 63.09"/>
      <path class="cls-8" d="M269.81,145.67,267,146.8s-1.11,1.62-.67,1.54a16.44,16.44,0,0,0,2.38-1.32Z" transform="translate(-127.94 -89.87)"/>
    </g>
    <g>
      <path class="cls-6" d="M254,183.19l-2.26-2.55c4.24-1.3,7.3-.31,9.77.49,1.83.6,3.15,1,5,.63a5.1,5.1,0,0,0,3.23-1.92c1-1.06,2.06-2.27,5.76-2.63l1.79,2.64c-2.92.28-3.69,1.13-4.58,2.11a6.69,6.69,0,0,1-4.11,2.39,12.55,12.55,0,0,1-6.86-.79A11.13,11.13,0,0,0,254,183.19Z" transform="translate(-127.94 -89.87)"/>
      <path class="cls-6" d="M258.47,185.61l-2.27-2.55c4.24-1.31,7.31-.31,9.77.49,1.83.6,3.16,1,5,.63a5.16,5.16,0,0,0,3.23-1.92c1-1.07,2.06-2.27,5.75-2.63l1.8,2.64c-2.93.28-3.7,1.13-4.59,2.11a6.66,6.66,0,0,1-4.11,2.39,12.59,12.59,0,0,1-6.85-.79A11.13,11.13,0,0,0,258.47,185.61Z" transform="translate(-127.94 -89.87)"/>
      <path class="cls-6" d="M257.49,188.3l-2.27-2.54c4.24-1.31,7.31-.31,9.77.49,1.83.59,3.16,1,5,.63A5.2,5.2,0,0,0,273.2,185c1-1.06,2.06-2.26,5.75-2.62l1.8,2.64c-2.93.28-3.7,1.13-4.59,2.11a6.74,6.74,0,0,1-4.11,2.39,12.51,12.51,0,0,1-6.85-.8C263,188,260.86,187.26,257.49,188.3Z" transform="translate(-127.94 -89.87)"/>
      <path class="cls-6" d="M262,190.7l-2.27-2.55c4.24-1.3,7.31-.31,9.77.49,1.83.6,3.15,1,5,.63a5.13,5.13,0,0,0,3.24-1.92c1-1.06,2.06-2.27,5.75-2.62l1.8,2.63c-2.93.28-3.7,1.13-4.59,2.11a6.66,6.66,0,0,1-4.1,2.39,12.54,12.54,0,0,1-6.86-.79A11.13,11.13,0,0,0,262,190.7Z" transform="translate(-127.94 -89.87)"/>
      <path class="cls-6" d="M254.73,180.41l-2.26-2.55c4.23-1.3,7.3-.3,9.77.49,1.83.6,3.15,1,5,.64a5.18,5.18,0,0,0,3.23-1.93c1-1.06,2.06-2.27,5.75-2.62l1.8,2.63c-2.92.28-3.69,1.13-4.59,2.11a6.71,6.71,0,0,1-4.1,2.4,12.64,12.64,0,0,1-6.86-.8A11.13,11.13,0,0,0,254.73,180.41Z" transform="translate(-127.94 -89.87)"/>
      <polygon points="126.94 88.27 130.03 87.99 131.38 88.71 129.36 88.58 126.94 88.27"/>
      <polygon points="134.84 89.83 138.14 91.08 140.28 90.41 137.57 90.06 134.84 89.83"/>
      <polygon points="136.14 93.81 133.81 93.69 132.86 94.33 135.22 94.1 138.24 95.3 140.13 95.28 137.52 94.26 136.14 93.81"/>
      <path d="M277.77,183.42c-.59.06-2.09.41-2.09.41l-1.15,1.88,1.62-1.14,2.52-.35Z" transform="translate(-127.94 -89.87)"/>
      <polygon points="151.03 98.19 149.96 99.54 147.52 100.31 148.89 100.89 150.9 100.07 151.03 98.19"/>
      <polygon points="140.82 99.44 138.46 98.72 136.65 99.17 138.81 99.31 140.82 99.44"/>
      <polygon points="132.98 96.52 131.63 96.75 133.5 96.86 132.98 96.52"/>
      <polygon class="cls-7" points="143.91 88.43 142.25 88.89 140.28 90.41 142.98 89.81 143.91 88.43"/>
      <polygon class="cls-7" points="146.04 96.59 143.85 97.66 143.61 98.31 145.72 97.77 146.04 96.59"/>
      <polygon class="cls-7" points="155.44 95.91 152.98 96.81 152.8 98.01 154.84 97.05 155.44 95.91"/>
      <polygon class="cls-7" points="131.49 95.78 129.82 97.19 129.23 96.3 131.49 95.78"/>
      <polygon class="cls-8" points="141.53 92.74 138.51 92.49 140.15 93.24 141.53 92.74"/>
      <path class="cls-8" d="M272.43,190.06l-2.81-.64s1.45,1,1.85,1.19a20.18,20.18,0,0,0,2.86.37Z" transform="translate(-127.94 -89.87)"/>
      <polygon class="cls-8" points="132.47 93.06 129.99 93.14 130.95 94.49 132.47 93.06"/>
      <path class="cls-8" d="M275.3,175.63l-2.78,1.13s-1.12,1.62-.67,1.55a16.44,16.44,0,0,0,2.38-1.32Z" transform="translate(-127.94 -89.87)"/>
    </g>
    <line class="cls-1" x1="189.06" y1="75.87" x2="189.06" y2="81.78"/>
    <path d="M317.6,163.65c.29.95.55,1.57.85,2.33h-2.9a22.43,22.43,0,0,0,.87-2.33,17.47,17.47,0,0,0,.6-2.53A17,17,0,0,0,317.6,163.65Z" transform="translate(-127.94 -89.87)"/>
    <g>
      <rect class="cls-14" x="172.32" y="82.26" width="33.49" height="22.02" rx="2"/>
      <rect class="cls-15" x="172.32" y="82.26" width="33.49" height="22.02" rx="2"/>
    </g>
    <text class="cls-16" transform="translate(182.48 95.49)">Tx<tspan x="7.78" y="2">2</tspan></text>
    <g>
      <path class="cls-6" d="M301.73,153.22l-2.27-2.55c4.24-1.3,7.3-.3,9.77.5,1.83.59,3.15,1,5,.63a5.2,5.2,0,0,0,3.24-1.93c1-1.06,2.06-2.27,5.75-2.62l1.8,2.63c-2.93.29-3.7,1.13-4.59,2.12a6.78,6.78,0,0,1-4.11,2.39,12.59,12.59,0,0,1-6.85-.8C307.21,152.87,305.1,152.18,301.73,153.22Z" transform="translate(-127.94 -89.87)"/>
      <path class="cls-6" d="M306.15,155.64l-2.27-2.55c4.24-1.3,7.31-.3,9.77.5,1.84.59,3.16,1,5,.63a5.18,5.18,0,0,0,3.23-1.93c1-1.06,2.06-2.27,5.75-2.62l1.8,2.63c-2.92.29-3.69,1.13-4.59,2.11a6.68,6.68,0,0,1-4.1,2.4,12.63,12.63,0,0,1-6.86-.8C311.63,155.29,309.53,154.6,306.15,155.64Z" transform="translate(-127.94 -89.87)"/>
      <path class="cls-6" d="M305.17,158.34l-2.27-2.55c4.24-1.3,7.31-.31,9.78.49,1.83.6,3.15,1,5,.64a5.21,5.21,0,0,0,3.23-1.93c1-1.06,2.06-2.27,5.75-2.62l1.8,2.63c-2.93.28-3.69,1.13-4.59,2.11a6.71,6.71,0,0,1-4.1,2.4,12.64,12.64,0,0,1-6.86-.8A11.13,11.13,0,0,0,305.17,158.34Z" transform="translate(-127.94 -89.87)"/>
      <path class="cls-6" d="M309.67,160.73l-2.27-2.55c4.24-1.3,7.31-.3,9.77.49,1.83.6,3.16,1,5,.64a5.18,5.18,0,0,0,3.23-1.93c1-1.06,2.06-2.27,5.75-2.62l1.8,2.63c-2.92.29-3.7,1.13-4.59,2.12a6.75,6.75,0,0,1-4.1,2.39,12.64,12.64,0,0,1-6.86-.8C315.15,160.38,313,159.69,309.67,160.73Z" transform="translate(-127.94 -89.87)"/>
      <path class="cls-6" d="M302.41,150.44l-2.26-2.54c4.24-1.31,7.31-.31,9.77.49,1.83.59,3.15,1,5,.63a5.15,5.15,0,0,0,3.23-1.93c1-1.06,2.07-2.27,5.76-2.62l1.8,2.64c-2.93.28-3.7,1.13-4.59,2.11a6.74,6.74,0,0,1-4.11,2.39,12.64,12.64,0,0,1-6.86-.8C307.89,150.09,305.79,149.4,302.41,150.44Z" transform="translate(-127.94 -89.87)"/>
      <polygon points="174.62 58.3 177.71 58.02 179.06 58.74 177.04 58.61 174.62 58.3"/>
      <polygon points="182.52 59.87 185.83 61.11 187.96 60.44 185.25 60.09 182.52 59.87"/>
      <polygon points="183.82 63.84 181.5 63.72 180.55 64.37 182.91 64.13 185.92 65.33 187.82 65.31 185.21 64.29 183.82 63.84"/>
      <path d="M325.46,153.45c-.59.06-2.1.41-2.1.41l-1.15,1.89,1.62-1.15,2.53-.35Z" transform="translate(-127.94 -89.87)"/>
      <polygon points="198.72 68.22 197.65 69.57 195.2 70.34 196.57 70.93 198.58 70.1 198.72 68.22"/>
      <polygon points="188.5 69.47 186.14 68.76 184.33 69.2 186.49 69.35 188.5 69.47"/>
      <polygon points="180.66 66.55 179.31 66.79 181.19 66.89 180.66 66.55"/>
      <polygon class="cls-7" points="191.6 58.47 189.93 58.93 187.96 60.44 190.66 59.84 191.6 58.47"/>
      <polygon class="cls-7" points="193.72 66.62 191.53 67.69 191.29 68.34 193.4 67.8 193.72 66.62"/>
      <polygon class="cls-7" points="203.12 65.94 200.67 66.84 200.49 68.04 202.52 67.08 203.12 65.94"/>
      <polygon class="cls-7" points="179.17 65.81 177.51 67.23 176.91 66.34 179.17 65.81"/>
      <polygon class="cls-8" points="189.21 62.78 186.2 62.52 187.83 63.27 189.21 62.78"/>
      <path class="cls-8" d="M320.11,160.09l-2.81-.63s1.45,1,1.86,1.19A20.07,20.07,0,0,0,322,161Z" transform="translate(-127.94 -89.87)"/>
      <polygon class="cls-8" points="180.16 63.09 177.67 63.18 178.63 64.52 180.16 63.09"/>
      <path class="cls-8" d="M323,145.67l-2.78,1.13s-1.11,1.62-.66,1.54a16.81,16.81,0,0,0,2.37-1.32Z" transform="translate(-127.94 -89.87)"/>
    </g>
    <g>
      <path class="cls-6" d="M352.33,153.41l-2.27-2.55c4.24-1.3,7.31-.3,9.77.5,1.83.59,3.16,1,5,.63a5.21,5.21,0,0,0,3.23-1.93c1-1.06,2.06-2.27,5.75-2.62l1.8,2.63c-2.93.29-3.7,1.13-4.59,2.11a6.71,6.71,0,0,1-4.1,2.4,12.62,12.62,0,0,1-6.86-.8C357.81,153.06,355.7,152.37,352.33,153.41Z" transform="translate(-127.94 -89.87)"/>
      <path class="cls-6" d="M356.75,155.83l-2.26-2.55c4.23-1.3,7.3-.3,9.77.49,1.83.6,3.15,1,5,.64a5.15,5.15,0,0,0,3.23-1.93c1-1.06,2.07-2.27,5.76-2.62l1.8,2.63c-2.93.29-3.7,1.13-4.6,2.11a6.68,6.68,0,0,1-4.1,2.4,12.59,12.59,0,0,1-6.85-.8C362.24,155.48,360.13,154.79,356.75,155.83Z" transform="translate(-127.94 -89.87)"/>
      <path class="cls-6" d="M355.77,158.53,353.5,156c4.24-1.3,7.31-.31,9.78.49,1.83.6,3.15,1,5,.64a5.18,5.18,0,0,0,3.23-1.93c1-1.06,2.06-2.27,5.76-2.62l1.8,2.63c-2.93.28-3.7,1.13-4.6,2.11a6.71,6.71,0,0,1-4.1,2.4,12.69,12.69,0,0,1-6.85-.8A11.16,11.16,0,0,0,355.77,158.53Z" transform="translate(-127.94 -89.87)"/>
      <path class="cls-6" d="M360.27,160.92,358,158.37c4.24-1.3,7.3-.3,9.77.49,1.83.6,3.15,1,5,.64a5.15,5.15,0,0,0,3.23-1.93c1-1.06,2.06-2.27,5.76-2.62l1.8,2.63c-2.93.28-3.7,1.13-4.6,2.12a6.72,6.72,0,0,1-4.1,2.39,12.59,12.59,0,0,1-6.85-.8C365.75,160.57,363.65,159.88,360.27,160.92Z" transform="translate(-127.94 -89.87)"/>
      <path class="cls-6" d="M353,150.63l-2.27-2.54c4.24-1.31,7.31-.31,9.77.49,1.83.59,3.15,1,5,.63a5.21,5.21,0,0,0,3.23-1.93c1-1.06,2.06-2.27,5.75-2.62l1.8,2.64c-2.93.28-3.7,1.13-4.59,2.1a6.71,6.71,0,0,1-4.11,2.4,12.59,12.59,0,0,1-6.85-.8C358.5,150.28,356.39,149.59,353,150.63Z" transform="translate(-127.94 -89.87)"/>
      <polygon points="225.22 58.49 228.31 58.21 229.66 58.93 227.65 58.8 225.22 58.49"/>
      <polygon points="233.13 60.06 236.43 61.3 238.56 60.63 235.85 60.28 233.13 60.06"/>
      <polygon points="234.43 64.03 232.1 63.91 231.15 64.56 233.51 64.32 236.53 65.53 238.42 65.5 235.81 64.48 234.43 64.03"/>
      <path d="M376.06,153.64c-.59.06-2.1.41-2.1.41l-1.15,1.89,1.63-1.15,2.52-.35Z" transform="translate(-127.94 -89.87)"/>
      <polygon points="249.32 68.41 248.25 69.76 245.81 70.53 247.18 71.12 249.18 70.29 249.32 68.41"/>
      <polygon points="239.11 69.66 236.75 68.95 234.94 69.39 237.09 69.53 239.11 69.66"/>
      <polygon points="231.26 66.74 229.92 66.97 231.79 67.08 231.26 66.74"/>
      <polygon class="cls-7" points="242.2 58.66 240.53 59.12 238.56 60.63 241.26 60.03 242.2 58.66"/>
      <polygon class="cls-7" points="244.33 66.81 242.13 67.88 241.89 68.53 244 67.99 244.33 66.81"/>
      <polygon class="cls-7" points="253.73 66.13 251.27 67.03 251.09 68.23 253.12 67.27 253.73 66.13"/>
      <polygon class="cls-7" points="229.77 66 228.11 67.42 227.51 66.53 229.77 66"/>
      <polygon class="cls-8" points="239.81 62.97 236.8 62.71 238.43 63.46 239.81 62.97"/>
      <path class="cls-8" d="M370.71,160.28l-2.81-.63s1.45,1,1.86,1.19a20.07,20.07,0,0,0,2.85.37Z" transform="translate(-127.94 -89.87)"/>
      <polygon class="cls-8" points="230.76 63.28 228.27 63.37 229.24 64.71 230.76 63.28"/>
      <path class="cls-8" d="M373.59,145.86,370.8,147s-1.11,1.62-.66,1.54a16.81,16.81,0,0,0,2.37-1.32Z" transform="translate(-127.94 -89.87)"/>
    </g>
    <polyline class="cls-1" points="277.56 47.63 292.48 47.63 292.48 59.5"/>
    <path d="M384,138.1a24.39,24.39,0,0,0-2.33.85v-2.9c.28.13,1.38.57,2.33.87a17.55,17.55,0,0,0,2.54.6A16.76,16.76,0,0,0,384,138.1Z" transform="translate(-127.94 -89.87)"/>
    <text class="cls-12" transform="translate(257.97 53.35)">+</text>
    <text class="cls-13" transform="translate(257.97 53.35)">+</text>
    <path d="M403.67,138.1A24.39,24.39,0,0,1,406,139v-2.9c-.27.13-1.38.57-2.32.87a17.55,17.55,0,0,1-2.54.6A17,17,0,0,1,403.67,138.1Z" transform="translate(-127.94 -89.87)"/>
    <line class="cls-1" x1="292.48" y1="75.87" x2="292.48" y2="81.78"/>
    <path d="M421,163.65a24.39,24.39,0,0,0,.85,2.33H419c.13-.27.57-1.38.87-2.33a17.47,17.47,0,0,0,.6-2.53A17,17,0,0,0,421,163.65Z" transform="translate(-127.94 -89.87)"/>
    <g>
      <rect class="cls-14" x="275.73" y="82.26" width="33.49" height="22.02" rx="2"/>
      <rect class="cls-15" x="275.73" y="82.26" width="33.49" height="22.02" rx="2"/>
    </g>
    <text class="cls-16" transform="translate(285.9 95.49)">Tx<tspan x="7.78" y="2">3</tspan></text>
    <g>
      <path class="cls-6" d="M405.14,153.22l-2.26-2.55c4.24-1.3,7.3-.3,9.77.5,1.83.59,3.15,1,5,.63a5.15,5.15,0,0,0,3.23-1.93c1-1.06,2.06-2.27,5.76-2.62l1.79,2.63c-2.92.29-3.69,1.13-4.58,2.12a6.78,6.78,0,0,1-4.11,2.39,12.59,12.59,0,0,1-6.85-.8C410.63,152.87,408.52,152.18,405.14,153.22Z" transform="translate(-127.94 -89.87)"/>
      <path class="cls-6" d="M409.57,155.64l-2.27-2.55c4.24-1.3,7.31-.3,9.77.5,1.83.59,3.16,1,5,.63a5.21,5.21,0,0,0,3.23-1.93c1-1.06,2.06-2.27,5.75-2.62l1.8,2.63c-2.93.29-3.7,1.13-4.59,2.11a6.71,6.71,0,0,1-4.11,2.4,12.59,12.59,0,0,1-6.85-.8C415.05,155.29,412.94,154.6,409.57,155.64Z" transform="translate(-127.94 -89.87)"/>
      <path class="cls-6" d="M408.59,158.34l-2.27-2.55c4.24-1.3,7.31-.31,9.78.49,1.82.6,3.15,1,5,.64A5.21,5.21,0,0,0,424.3,155c1-1.06,2.06-2.27,5.75-2.62l1.8,2.63c-2.93.28-3.7,1.13-4.59,2.11a6.74,6.74,0,0,1-4.11,2.4,12.6,12.6,0,0,1-6.85-.8A11.13,11.13,0,0,0,408.59,158.34Z" transform="translate(-127.94 -89.87)"/>
      <path class="cls-6" d="M413.09,160.73l-2.27-2.55c4.24-1.3,7.31-.3,9.77.49,1.83.6,3.16,1,5,.64a5.2,5.2,0,0,0,3.24-1.93c1-1.06,2.06-2.27,5.75-2.62l1.8,2.63c-2.93.29-3.7,1.13-4.59,2.12a6.75,6.75,0,0,1-4.1,2.39,12.64,12.64,0,0,1-6.86-.8C418.57,160.38,416.46,159.69,413.09,160.73Z" transform="translate(-127.94 -89.87)"/>
      <path class="cls-6" d="M405.83,150.44l-2.26-2.54c4.23-1.31,7.3-.31,9.77.49,1.83.59,3.15,1,5,.63a5.18,5.18,0,0,0,3.23-1.93c1-1.06,2.07-2.27,5.75-2.62l1.8,2.64c-2.92.28-3.69,1.13-4.59,2.11a6.67,6.67,0,0,1-4.1,2.39,12.64,12.64,0,0,1-6.86-.8C411.31,150.09,409.21,149.4,405.83,150.44Z" transform="translate(-127.94 -89.87)"/>
      <polygon points="278.04 58.3 281.13 58.02 282.48 58.74 280.46 58.61 278.04 58.3"/>
      <polygon points="285.94 59.87 289.24 61.11 291.38 60.44 288.67 60.09 285.94 59.87"/>
      <polygon points="287.24 63.84 284.92 63.72 283.96 64.37 286.32 64.13 289.34 65.33 291.24 65.31 288.63 64.29 287.24 63.84"/>
      <path d="M428.88,153.45c-.59.06-2.1.41-2.1.41l-1.15,1.89,1.62-1.15,2.52-.35Z" transform="translate(-127.94 -89.87)"/>
      <polygon points="302.13 68.22 301.06 69.57 298.62 70.34 299.99 70.93 302 70.1 302.13 68.22"/>
      <polygon points="291.92 69.47 289.56 68.76 287.75 69.2 289.91 69.35 291.92 69.47"/>
      <polygon points="284.08 66.55 282.73 66.79 284.61 66.89 284.08 66.55"/>
      <polygon class="cls-7" points="295.01 58.47 293.35 58.93 291.38 60.44 294.08 59.84 295.01 58.47"/>
      <polygon class="cls-7" points="297.14 66.62 294.95 67.69 294.71 68.34 296.82 67.8 297.14 66.62"/>
      <polygon class="cls-7" points="306.54 65.94 304.08 66.84 303.9 68.04 305.94 67.08 306.54 65.94"/>
      <polygon class="cls-7" points="282.59 65.81 280.92 67.23 280.33 66.34 282.59 65.81"/>
      <polygon class="cls-8" points="292.63 62.78 289.62 62.52 291.25 63.27 292.63 62.78"/>
      <path class="cls-8" d="M423.53,160.09l-2.81-.63s1.45,1,1.86,1.19a19.89,19.89,0,0,0,2.85.37Z" transform="translate(-127.94 -89.87)"/>
      <polygon class="cls-8" points="283.57 63.09 281.09 63.18 282.05 64.52 283.57 63.09"/>
      <path class="cls-8" d="M426.4,145.67l-2.78,1.13s-1.11,1.62-.67,1.54a16.44,16.44,0,0,0,2.38-1.32Z" transform="translate(-127.94 -89.87)"/>
    </g>
    <line class="cls-1" x1="239.47" y1="75.87" x2="239.47" y2="81.78"/>
    <path d="M368,163.65a21.94,21.94,0,0,0,.85,2.33H366a22.43,22.43,0,0,0,.87-2.33,17.47,17.47,0,0,0,.6-2.53A16.07,16.07,0,0,0,368,163.65Z" transform="translate(-127.94 -89.87)"/>
    <g>
      <rect class="cls-14" x="222.73" y="82.26" width="33.49" height="22.02" rx="2"/>
      <rect class="cls-15" x="222.73" y="82.26" width="33.49" height="22.02" rx="2"/>
    </g>
    <text class="cls-16" transform="translate(232.89 95.49)">Tx<tspan x="7.78" y="2">3</tspan></text>
    <text class="cls-17" transform="translate(0 63.91)">Das <tspan class="cls-18" x="15.04" y="0">W</tspan><tspan x="23.26" y="0">itness Commitment</tspan><tspan x="0" y="9.5">ist erlaubt, aber alten</tspan><tspan x="0" y="19">Nodes ist es egal.</tspan></text>
    <text class="cls-17" transform="translate(70.73 33.39)">Coinbase<tspan class="cls-19" x="0" y="9.5">T</tspan><tspan x="3.44" y="9.5">ransaktion</tspan></text>
    <text class="cls-17" transform="translate(104.68 13.28)">Deine Segwit<tspan class="cls-19" x="0" y="9.5">T</tspan><tspan x="3.44" y="9.5">ransaktion</tspan></text>
    <text class="cls-17" transform="translate(325.83 54.52)">Genau wie<tspan x="0" y="9.5">vorher</tspan></text>
    <path class="cls-20" d="M442,90.12c2.5,0,4.53,2.86,4.53,6.38v39.18c0,3.52,2,6.38,4.54,6.38-2.5,0-4.54,2.86-4.54,6.38v39.18c0,3.52-2,6.38-4.53,6.38" transform="translate(-127.94 -89.87)"/>
    <g>
      <path class="cls-21" d="M248.25,175c-9.42-9-24.75-13-29.42-13" transform="translate(-127.94 -89.87)"/>
      <polygon points="121.2 83.41 122.25 87 118.62 86.11 121.2 83.41"/>
    </g>
    <g>
      <path class="cls-21" d="M297.75,167c-19.5-28.05-43.58-35.75-43.58-52" transform="translate(-127.94 -89.87)"/>
      <polygon points="171.03 75.62 171.34 79.34 167.96 77.75 171.03 75.62"/>
    </g>
    <g>
      <path class="cls-21" d="M253,168c-13-18-31.5-21-31.5-32.75" transform="translate(-127.94 -89.87)"/>
      <polygon points="126.25 76.6 126.63 80.31 123.22 78.78 126.25 76.6"/>
    </g>
  </g>
</svg>
