<?xml version="1.0" encoding="UTF-8" standalone="no"?>
<svg
   xmlns:dc="http://purl.org/dc/elements/1.1/"
   xmlns:cc="http://creativecommons.org/ns#"
   xmlns:rdf="http://www.w3.org/1999/02/22-rdf-syntax-ns#"
   xmlns:svg="http://www.w3.org/2000/svg"
   xmlns="http://www.w3.org/2000/svg"
   xmlns:sodipodi="http://sodipodi.sourceforge.net/DTD/sodipodi-0.dtd"
   xmlns:inkscape="http://www.inkscape.org/namespaces/inkscape"
   version="1.1"
   id="svg2"
   xml:space="preserve"
   width="491.14172"
   height="144.33392"
   viewBox="0 0 491.14172 144.33392"
   sodipodi:docname="10-14.ai"><metadata
     id="metadata8"><rdf:RDF><cc:Work
         rdf:about=""><dc:format>image/svg+xml</dc:format><dc:type
           rdf:resource="http://purl.org/dc/dcmitype/StillImage" /></cc:Work></rdf:RDF></metadata><defs
     id="defs6"><clipPath
       clipPathUnits="userSpaceOnUse"
       id="clipPath18"><path
         d="M 0,792 H 612 V 0 H 0 Z"
         id="path16" /></clipPath><linearGradient
       x1="0"
       y1="0"
       x2="1"
       y2="0"
       gradientUnits="userSpaceOnUse"
       gradientTransform="matrix(13.098663,-13.491669,-13.491669,-13.098663,342.83105,585.72314)"
       spreadMethod="pad"
       id="linearGradient78"><stop
         style="stop-opacity:1;stop-color:#5ec45b"
         offset="0"
         id="stop74" /><stop
         style="stop-opacity:1;stop-color:#dbf1cb"
         offset="1"
         id="stop76" /></linearGradient><linearGradient
       x1="0"
       y1="0"
       x2="1"
       y2="0"
       gradientUnits="userSpaceOnUse"
       gradientTransform="matrix(12.500702,-12.875763,-12.875763,-12.500702,343.06445,585.48291)"
       spreadMethod="pad"
       id="linearGradient98"><stop
         style="stop-opacity:1;stop-color:#dbf1cb"
         offset="0"
         id="stop94" /><stop
         style="stop-opacity:1;stop-color:#5ec45b"
         offset="1"
         id="stop96" /></linearGradient><clipPath
       clipPathUnits="userSpaceOnUse"
       id="clipPath108"><path
         d="M 0,792 H 612 V 0 H 0 Z"
         id="path106" /></clipPath><linearGradient
       x1="0"
       y1="0"
       x2="1"
       y2="0"
       gradientUnits="userSpaceOnUse"
       gradientTransform="matrix(13.09935,-13.492355,-13.492355,-13.09935,203.99805,611.05518)"
       spreadMethod="pad"
       id="linearGradient344"><stop
         style="stop-opacity:1;stop-color:#5ec45b"
         offset="0"
         id="stop340" /><stop
         style="stop-opacity:1;stop-color:#dbf1cb"
         offset="1"
         id="stop342" /></linearGradient><linearGradient
       x1="0"
       y1="0"
       x2="1"
       y2="0"
       gradientUnits="userSpaceOnUse"
       gradientTransform="matrix(12.501388,-12.876465,-12.876465,-12.501388,204.23096,610.81494)"
       spreadMethod="pad"
       id="linearGradient364"><stop
         style="stop-opacity:1;stop-color:#dbf1cb"
         offset="0"
         id="stop360" /><stop
         style="stop-opacity:1;stop-color:#5ec45b"
         offset="1"
         id="stop362" /></linearGradient><clipPath
       clipPathUnits="userSpaceOnUse"
       id="clipPath374"><path
         d="M 0,792 H 612 V 0 H 0 Z"
         id="path372" /></clipPath><linearGradient
       x1="0"
       y1="0"
       x2="1"
       y2="0"
       gradientUnits="userSpaceOnUse"
       gradientTransform="matrix(13.09935,-13.492355,-13.492355,-13.09935,203.99902,594.01123)"
       spreadMethod="pad"
       id="linearGradient412"><stop
         style="stop-opacity:1;stop-color:#5ec45b"
         offset="0"
         id="stop408" /><stop
         style="stop-opacity:1;stop-color:#dbf1cb"
         offset="1"
         id="stop410" /></linearGradient><linearGradient
       x1="0"
       y1="0"
       x2="1"
       y2="0"
       gradientUnits="userSpaceOnUse"
       gradientTransform="matrix(12.500702,-12.875763,-12.875763,-12.500702,204.23096,593.771)"
       spreadMethod="pad"
       id="linearGradient432"><stop
         style="stop-opacity:1;stop-color:#dbf1cb"
         offset="0"
         id="stop428" /><stop
         style="stop-opacity:1;stop-color:#5ec45b"
         offset="1"
         id="stop430" /></linearGradient><clipPath
       clipPathUnits="userSpaceOnUse"
       id="clipPath442"><path
         d="M 0,792 H 612 V 0 H 0 Z"
         id="path440" /></clipPath><linearGradient
       x1="0"
       y1="0"
       x2="1"
       y2="0"
       gradientUnits="userSpaceOnUse"
       gradientTransform="matrix(0.7773895,-0.2225189,-0.2225189,-0.7773895,357.05371,585.05762)"
       spreadMethod="pad"
       id="linearGradient704"><stop
         style="stop-opacity:1;stop-color:#6e6b6c"
         offset="0"
         id="stop692" /><stop
         style="stop-opacity:1;stop-color:#6e6b6c"
         offset="0.07336038"
         id="stop694" /><stop
         style="stop-opacity:1;stop-color:#dad9d9"
         offset="0.312881"
         id="stop696" /><stop
         style="stop-opacity:1;stop-color:#6e6b6c"
         offset="0.72210892"
         id="stop698" /><stop
         style="stop-opacity:1;stop-color:#6e6b6c"
         offset="0.797546"
         id="stop700" /><stop
         style="stop-opacity:1;stop-color:#bdbcbc"
         offset="1"
         id="stop702" /></linearGradient><radialGradient
       fx="0"
       fy="0"
       cx="0"
       cy="0"
       r="1"
       gradientUnits="userSpaceOnUse"
       gradientTransform="matrix(3.8430328,-1.1000671,-1.1000671,-3.8430328,356.47559,588.90918)"
       spreadMethod="pad"
       id="radialGradient726"><stop
         style="stop-opacity:1;stop-color:#f7927b"
         offset="0"
         id="stop720" /><stop
         style="stop-opacity:1;stop-color:#e11a22"
         offset="0.70487066"
         id="stop722" /><stop
         style="stop-opacity:1;stop-color:#e11a22"
         offset="1"
         id="stop724" /></radialGradient><clipPath
       clipPathUnits="userSpaceOnUse"
       id="clipPath736"><path
         d="M 0,792 H 612 V 0 H 0 Z"
         id="path734" /></clipPath><clipPath
       clipPathUnits="userSpaceOnUse"
       id="clipPath744"><path
         d="m 358.014,591.942 h 4.466 v -6.22 h -4.466 z"
         id="path742" /></clipPath><linearGradient
       x1="0"
       y1="0"
       x2="1"
       y2="0"
       gradientUnits="userSpaceOnUse"
       gradientTransform="matrix(2.1582336,-2.7239075,-2.7239075,-2.1582336,359.75684,589.72949)"
       spreadMethod="pad"
       id="linearGradient758"><stop
         style="stop-opacity:1;stop-color:#a41217"
         offset="0"
         id="stop750" /><stop
         style="stop-opacity:1;stop-color:#a41217"
         offset="0.288345"
         id="stop752" /><stop
         style="stop-opacity:1;stop-color:#a41217"
         offset="0.3732452"
         id="stop754" /><stop
         style="stop-opacity:1;stop-color:#f57f67"
         offset="1"
         id="stop756" /></linearGradient><linearGradient
       x1="0"
       y1="0"
       x2="1"
       y2="0"
       gradientUnits="userSpaceOnUse"
       gradientTransform="matrix(4.2103729,-1.5944061,-1.5944061,-4.2103729,357.21289,592.12793)"
       spreadMethod="pad"
       id="linearGradient804"><stop
         style="stop-opacity:1;stop-color:#e11a22"
         offset="0"
         id="stop790" /><stop
         style="stop-opacity:1;stop-color:#e11a22"
         offset="0.00613403"
         id="stop792" /><stop
         style="stop-opacity:1;stop-color:#e11a22"
         offset="0.10132991"
         id="stop794" /><stop
         style="stop-opacity:1;stop-color:#f57f67"
         offset="0.312881"
         id="stop796" /><stop
         style="stop-opacity:1;stop-color:#e31b22"
         offset="0.54110471"
         id="stop798" /><stop
         style="stop-opacity:1;stop-color:#e31b22"
         offset="0.797546"
         id="stop800" /><stop
         style="stop-opacity:1;stop-color:#b8151b"
         offset="1"
         id="stop802" /></linearGradient><clipPath
       clipPathUnits="userSpaceOnUse"
       id="clipPath814"><path
         d="M 0,792 H 612 V 0 H 0 Z"
         id="path812" /></clipPath><clipPath
       clipPathUnits="userSpaceOnUse"
       id="clipPath822"><path
         d="m 357.728,594.285 h 4.019 v -4.546 h -4.019 z"
         id="path820" /></clipPath><linearGradient
       x1="0"
       y1="0"
       x2="1"
       y2="0"
       gradientUnits="userSpaceOnUse"
       gradientTransform="matrix(4.1817169,-1.1970062,-1.1970062,-4.1817169,357.58887,592.80371)"
       spreadMethod="pad"
       id="linearGradient832"><stop
         style="stop-opacity:1;stop-color:#a41217"
         offset="0"
         id="stop828" /><stop
         style="stop-opacity:1;stop-color:#f57f67"
         offset="1"
         id="stop830" /></linearGradient><linearGradient
       x1="0"
       y1="0"
       x2="1"
       y2="0"
       gradientUnits="userSpaceOnUse"
       gradientTransform="matrix(5.6810913,-1.6262054,-1.6262054,-5.6810913,357.24609,594.98047)"
       spreadMethod="pad"
       id="linearGradient876"><stop
         style="stop-opacity:1;stop-color:#aa1318"
         offset="0"
         id="stop860" /><stop
         style="stop-opacity:1;stop-color:#aa1318"
         offset="0.00613403"
         id="stop862" /><stop
         style="stop-opacity:1;stop-color:#ee2327"
         offset="0.134964"
         id="stop864" /><stop
         style="stop-opacity:1;stop-color:#ee2327"
         offset="0.24402314"
         id="stop866" /><stop
         style="stop-opacity:1;stop-color:#f57f67"
         offset="0.312881"
         id="stop868" /><stop
         style="stop-opacity:1;stop-color:#ef2f2c"
         offset="0.50523968"
         id="stop870" /><stop
         style="stop-opacity:1;stop-color:#ef2f2c"
         offset="0.797546"
         id="stop872" /><stop
         style="stop-opacity:1;stop-color:#aa1318"
         offset="1"
         id="stop874" /></linearGradient><linearGradient
       x1="0"
       y1="0"
       x2="1"
       y2="0"
       gradientUnits="userSpaceOnUse"
       gradientTransform="matrix(-1.0812073,-3.7771454,-3.7771454,1.0812073,361.0127,597.39941)"
       spreadMethod="pad"
       id="linearGradient896"><stop
         style="stop-opacity:1;stop-color:#f1493c"
         offset="0"
         id="stop892" /><stop
         style="stop-opacity:1;stop-color:#e11a22"
         offset="1"
         id="stop894" /></linearGradient></defs><sodipodi:namedview
     pagecolor="#ffffff"
     bordercolor="#666666"
     borderopacity="1"
     objecttolerance="10"
     gridtolerance="10"
     guidetolerance="10"
     inkscape:pageopacity="0"
     inkscape:pageshadow="2"
     inkscape:window-width="640"
     inkscape:window-height="480"
     id="namedview4" /><g
     id="g10"
     inkscape:groupmode="layer"
     inkscape:label="10-14"
     transform="matrix(1.3333333,0,0,-1.3333333,-175.33333,878.78895)"><g
       id="g12"><g
         id="g14"
         clip-path="url(#clipPath18)"><g
           id="g20"
           transform="translate(472,579.3335)"><path
             d="m 0,0 c 0,-1.1 -0.9,-2 -2,-2 h -135 c -1.1,0 -2,0.9 -2,2 v 33.5 c 0,1.1 0.9,2 2,2 H -2 c 1.1,0 2,-0.9 2,-2 z"
             style="fill:#feefe9;fill-opacity:1;fill-rule:evenodd;stroke:none"
             id="path22" /></g><text
           transform="matrix(1,0,0,-1,364.8647,601.7168)"
           style="font-variant:normal;font-weight:normal;font-stretch:normal;font-size:11.5px;font-family:Courier;-inkscape-font-specification:Courier;writing-mode:lr-tb;fill:#231f20;fill-opacity:1;fill-rule:nonzero;stroke:none"
           id="text26"><tspan
             x="0 26.587999 33.487999 40.388 47.287998"
             y="0"
             sodipodi:role="line"
             id="tspan24">00.09</tspan></text><g
           id="g28"
           transform="translate(387.167,614.6938)"><path
             d="M 0,0 V -36.671"
             style="fill:none;stroke:#656263;stroke-width:0.5;stroke-linecap:butt;stroke-linejoin:miter;stroke-miterlimit:4;stroke-dasharray:none;stroke-opacity:1"
             id="path30" /></g><g
           id="g32"
           transform="translate(472,579.3335)"><path
             d="m 0,0 c 0,-1.1 -0.9,-2 -2,-2 h -135 c -1.1,0 -2,0.9 -2,2 v 33.5 c 0,1.1 0.9,2 2,2 H -2 c 1.1,0 2,-0.9 2,-2 z"
             style="fill:none;stroke:#d91920;stroke-width:1;stroke-linecap:butt;stroke-linejoin:round;stroke-miterlimit:4;stroke-dasharray:none;stroke-opacity:1"
             id="path34" /></g><text
           transform="matrix(1,0,0,-1,433.5547,601.7168)"
           style="font-variant:normal;font-weight:normal;font-stretch:normal;font-size:11.5px;font-family:Courier;-inkscape-font-specification:Courier;writing-mode:lr-tb;fill:#231f20;fill-opacity:1;fill-rule:nonzero;stroke:none"
           id="text38"><tspan
             x="0 6.9000001 13.8 20.700001"
             y="0"
             sodipodi:role="line"
             id="tspan36">WPKH</tspan></text><text
           transform="matrix(1,0,0,-1,461.1592,598.7168)"
           style="font-variant:normal;font-weight:normal;font-stretch:normal;font-size:7px;font-family:Courier;-inkscape-font-specification:Courier;writing-mode:lr-tb;fill:#231f20;fill-opacity:1;fill-rule:nonzero;stroke:none"
           id="text42"><tspan
             x="0"
             y="0"
             id="tspan40">P</tspan></text><path
           d="m 361.833,568.833 h -49.334 v 20.669 h 49.334 z"
           style="fill:#feefe9;fill-opacity:1;fill-rule:evenodd;stroke:none"
           id="path44" /><g
           id="g46"
           transform="translate(323.915,575.5825)"><path
             d="M 0,0 C 0.846,-0.152 1.141,-0.882 1.646,-1.392 1.785,-0.454 2.154,0.239 2.533,0.928 2.523,1.007 2.514,1.084 2.406,1.062 1.742,0.56 0.707,0.453 0,0 M 3.482,2.054 C 3.717,2.094 3.854,2.237 4.053,2.317 4.01,2.513 4.035,2.784 3.863,2.849 3.76,2.558 3.592,2.333 3.482,2.054 M 0.379,2.119 C 0.717,2.868 1.09,3.583 1.457,4.303 0.904,4.455 0.244,4.495 -0.381,4.566 0.004,3.889 0.254,3.071 0.379,2.119 M -3.23,4.503 C -3.482,4.047 -3.58,3.451 -3.736,2.849 -3.879,2.312 -3.914,1.56 -4.373,1.325 c -0.16,0.904 0.41,2.11 0.637,3.044 -1.725,-0.348 -3.159,-1.651 -3.106,-3.575 0.039,-1.423 1.106,-1.932 2.596,-1.92 3.164,0.028 5.475,2.859 3.357,5.692 -0.625,0.126 -1.525,-0.02 -2.341,-0.063 m 0.125,0.396 c 0.56,0.122 1.3,0.053 1.837,0.2 C -1.725,5.546 -2.102,6.08 -2.471,6.62 -2.633,5.993 -2.912,5.492 -3.105,4.899 M 4.307,4.503 C 4.691,5.49 5.441,6.449 5.701,7.349 5.115,6.57 4.354,5.622 4.307,4.503 m 7.156,5.56 C 9.727,9.917 7.629,9.36 6.713,8.276 6.168,7.63 5.904,6.671 5.445,5.827 4.971,4.948 3.813,3.565 4.434,2.581 c 2.586,1.586 5.193,3.234 7.472,5.098 0.733,0.597 1.625,1.29 1.967,2.252 -0.752,0.294 -1.609,0.199 -2.41,0.132 M 4.813,2.317 C 6.313,1.635 7.547,2.884 8.803,3.11 9.111,2.766 8.756,2.056 8.932,1.654 9.842,0.996 11.611,1.235 12.287,0.331 11.887,0.015 11.346,0.53 10.639,0.728 9.422,1.069 8.092,0.86 8.549,2.648 7.461,2.137 5.635,1.183 4.369,2.054 3.943,1.836 3.584,1.55 3.102,1.392 2.6,0.327 2.182,-0.823 1.771,-1.987 c -0.878,0.316 -0.906,1.524 -1.96,1.656 -0.174,-0.262 -0.237,-0.639 -0.317,-0.993 0.244,-0.068 0.51,0.73 0.885,0.53 0.033,-0.508 -0.539,-0.932 -1.014,-1.126 -0.523,0.333 -0.119,1.083 0,1.656 -0.801,-0.639 -2.422,-1.35 -3.992,-1.258 -0.602,0.034 -1.373,0.183 -1.836,0.531 -1.146,0.859 -0.842,3.113 -0.062,4.168 0.72,0.98 1.754,1.33 2.914,1.656 0.351,0.579 0.541,1.332 0.822,1.985 0.359,0.027 0.453,0.095 0.57,0.464 1.873,0.733 4.041,1.16 5.574,2.252 C 1.41,9.175 -0.723,8.524 -2.727,7.944 -3.361,7.761 -4,7.429 -4.627,7.548 c 0.074,0.393 0.598,0.441 0.891,0.527 1.002,0.302 2.125,0.612 3.23,0.928 1.432,0.412 2.971,1.001 4.434,0.861 C 3.963,9.173 3.238,8.975 2.785,8.738 1.408,8.021 -0.482,7.507 -2.027,6.885 -1.771,6.026 -1.139,5.565 -0.635,4.966 0.197,4.972 0.881,4.83 1.582,4.701 2.336,5.613 2.959,6.839 3.672,7.878 3.865,8.159 4.127,8.634 4.496,8.605 4.377,7.835 3.73,7.279 3.293,6.62 2.855,5.964 2.488,5.239 2.09,4.566 2.559,4.241 3.32,4.22 3.482,3.574 2.91,3.446 2.523,4.069 1.961,4.17 1.148,3.19 0.713,1.813 0.125,0.597 1.178,0.798 1.953,1.292 2.85,1.654 3.207,2.481 3.705,3.013 3.799,4.17 3.967,6.247 5.236,7.466 6.461,8.539 6.523,8.871 6.721,9.063 6.84,9.333 7.086,9.392 7.066,9.173 7.219,9.136 8.51,10.067 10.895,10.7 13.047,10.527 13.436,10.494 14.324,10.386 14.314,9.864 14.299,9.026 12.961,8.06 12.352,7.548 10.104,5.663 7.057,3.733 4.813,2.317"
             style="fill:#2c81ab;fill-opacity:1;fill-rule:evenodd;stroke:none"
             id="path48" /></g><g
           id="g50"
           transform="translate(355.9521,574.3589)"><path
             d="m 0,0 -6.42,6.613 c 0.688,1.51 0.42,3.36 -0.818,4.633 -1.608,1.658 -4.242,1.711 -5.883,0.119 -0.033,-0.033 -0.065,-0.07 -0.096,-0.105 -0.037,-0.033 -0.074,-0.063 -0.109,-0.096 -1.641,-1.59 -1.664,-4.226 -0.057,-5.883 1.149,-1.179 2.813,-1.543 4.27,-1.08 L -8.576,3.65 c 0.32,0.237 0.822,0.166 1.162,-0.185 0.34,-0.352 0.394,-0.852 0.15,-1.166 l 0.588,-0.608 c 0.322,0.237 0.821,0.166 1.162,-0.185 0.342,-0.352 0.397,-0.852 0.151,-1.166 l 0.59,-0.608 c 0.32,0.237 0.82,0.166 1.162,-0.185 0.341,-0.352 0.396,-0.852 0.148,-1.166 l 0.41,-0.422 3.297,0.174 0.209,0.201 z"
             style="fill:none;stroke:#231f20;stroke-width:0.75;stroke-linecap:butt;stroke-linejoin:round;stroke-miterlimit:4;stroke-dasharray:none;stroke-opacity:1"
             id="path52" /></g><g
           id="g54"
           transform="translate(356.4053,572.6929)"><path
             d="m 0,0 -7.078,8.078 c 0.687,1.51 0.42,3.361 -0.818,4.635 -1.61,1.656 -4.243,1.711 -5.883,0.117 -1.641,-1.59 -1.664,-4.226 -0.057,-5.883 1.148,-1.179 2.813,-1.543 4.27,-1.08 l 0.537,-0.551 c 0.32,0.237 0.822,0.166 1.162,-0.185 0.34,-0.352 0.394,-0.852 0.15,-1.166 l 0.588,-0.608 c 0.322,0.237 0.82,0.166 1.162,-0.185 C -5.625,2.82 -5.57,2.32 -5.816,2.006 l 0.589,-0.608 c 0.321,0.237 0.821,0.166 1.163,-0.185 0.341,-0.352 0.396,-0.852 0.148,-1.166 l 0.41,-0.422 3.297,0.174 z"
             style="fill:#278a2f;fill-opacity:1;fill-rule:nonzero;stroke:none"
             id="path56" /></g><g
           id="g58"
           transform="translate(356.4053,572.6929)"><path
             d="m 0,0 -7.078,8.078 c 0.687,1.51 0.42,3.361 -0.818,4.635 -1.61,1.656 -4.243,1.711 -5.883,0.117 -1.641,-1.59 -1.664,-4.226 -0.057,-5.883 1.148,-1.179 2.813,-1.543 4.27,-1.08 l 0.537,-0.551 c 0.32,0.237 0.822,0.166 1.162,-0.185 0.34,-0.352 0.394,-0.852 0.15,-1.166 l 0.588,-0.608 c 0.322,0.237 0.82,0.166 1.162,-0.185 C -5.625,2.82 -5.57,2.32 -5.816,2.006 l 0.589,-0.608 c 0.321,0.237 0.821,0.166 1.163,-0.185 0.341,-0.352 0.396,-0.852 0.148,-1.166 l 0.41,-0.422 3.297,0.174 z"
             style="fill:none;stroke:#278a2f;stroke-width:0.3;stroke-linecap:butt;stroke-linejoin:round;stroke-miterlimit:4;stroke-dasharray:none;stroke-opacity:1"
             id="path60" /></g></g></g><g
       id="g62"><g
         id="g64"><g
           id="g70"><g
             id="g72"><path
               d="m 342.831,585.724 c -1.638,-1.592 -1.664,-4.229 -0.054,-5.885 v 0 c 1.145,-1.18 2.812,-1.542 4.269,-1.078 v 0 l 0.535,-0.552 c 0.322,0.235 0.823,0.165 1.162,-0.186 v 0 c 0.34,-0.35 0.397,-0.851 0.15,-1.166 v 0 l 0.59,-0.608 c 0.321,0.237 0.819,0.167 1.162,-0.185 v 0 c 0.341,-0.349 0.395,-0.852 0.149,-1.167 v 0 l 0.592,-0.606 c 0.318,0.236 0.82,0.165 1.162,-0.184 v 0 c 0.337,-0.352 0.392,-0.852 0.149,-1.166 v 0 l 0.409,-0.424 3.299,0.176 -0.453,1.666 -6.42,6.613 c 0.688,1.51 0.42,3.359 -0.818,4.633 v 0 c -0.825,0.851 -1.921,1.279 -3.014,1.279 v 0 c -1.036,0 -2.071,-0.385 -2.869,-1.16"
               style="fill:url(#linearGradient78);stroke:none"
               id="path80" /></g></g></g></g><g
       id="g82"><g
         id="g84"><g
           id="g90"><g
             id="g92"><path
               d="m 343.064,585.484 c -1.504,-1.463 -1.526,-3.889 -0.05,-5.411 v 0 c 1.03,-1.056 2.534,-1.437 3.929,-0.993 v 0 l 0.199,0.064 0.507,-0.525 c 0.434,0.152 0.963,0.019 1.334,-0.362 v 0 c 0.374,-0.382 0.489,-0.916 0.322,-1.343 v 0 l 0.245,-0.253 c 0.436,0.151 0.965,0.019 1.334,-0.363 v 0 c 0.371,-0.383 0.488,-0.917 0.324,-1.344 v 0 l 0.244,-0.252 c 0.434,0.153 0.963,0.02 1.334,-0.363 v 0 c 0.373,-0.38 0.488,-0.916 0.325,-1.343 v 0 l 0.13,-0.137 2.732,0.147 -0.322,1.181 -6.518,6.713 0.095,0.209 c 0.656,1.441 0.359,3.117 -0.753,4.262 v 0 c -0.759,0.782 -1.769,1.176 -2.776,1.176 v 0 c -0.953,0 -1.903,-0.353 -2.635,-1.063"
               style="fill:url(#linearGradient98);stroke:none"
               id="path100" /></g></g></g></g><g
       id="g102"><g
         id="g104"
         clip-path="url(#clipPath108)"><g
           id="g110"
           transform="translate(348.0479,580.3511)"><path
             d="m 0,0 c -1.311,-1.271 -3.402,-1.24 -4.674,0.068 -1.271,1.311 -1.24,3.403 0.07,4.674 1.307,1.274 3.401,1.24 4.672,-0.068 C 1.34,3.363 1.309,1.271 0,0"
             style="fill:#ffffff;fill-opacity:1;fill-rule:nonzero;stroke:none"
             id="path112" /></g><text
           transform="matrix(0.69656686,-0.71749189,-0.71749189,-0.69656686,342.5257,584.1508)"
           style="font-variant:normal;font-weight:normal;font-stretch:normal;font-size:3.67502px;font-family:Arial;-inkscape-font-specification:ArialMT;writing-mode:lr-tb;fill:#231f20;fill-opacity:1;fill-rule:nonzero;stroke:none"
           id="text116"><tspan
             x="0 2.451241 4.4945545"
             y="0"
             sodipodi:role="line"
             id="tspan114">Pub</tspan></text><path
           d="m 361.833,568.833 h -49.334 v 20.669 h 49.334 z"
           style="fill:none;stroke:#231f20;stroke-width:0.5;stroke-linecap:butt;stroke-linejoin:round;stroke-miterlimit:4;stroke-dasharray:none;stroke-opacity:1"
           id="path118" /><text
           transform="matrix(1,0,0,-1,266.2329,552.9111)"
           style="font-variant:normal;font-weight:bold;font-stretch:condensed;font-size:9px;font-family:'Humanst521 Cn BT';-inkscape-font-specification:Humanist521BT-BoldCondensed;writing-mode:lr-tb;fill:#231f20;fill-opacity:1;fill-rule:nonzero;stroke:none"
           id="text134"><tspan
             x="0 4.4369998 8.9189997 13.023 16.983 21.474001 25.524 30.006001 34.110001 37.106998 41.067001 44.459999 46.764 54.980999 57.113998 60.111 64.593002 68.553001 72.054001 102.474 106.524 111.006 114.399 116.703 121.212 123.345 127.305 129.60899 133.911 138.258 142.767 146.367 150.714 154.10699 158.589 160.89301 167.18401 171.23399 174.735 178.33501 182.826 184.959 189.44099"
             y="0"
             sodipodi:role="line"
             id="tspan120">Angehängter WitnessFür die Popcorn Maschine</tspan><tspan
             x="87.353996 91.475998 95.435997 99.396004 102.789 106.749"
             y="-99.945"
             sodipodi:role="line"
             id="tspan122">Leeres</tspan><tspan
             x="87.353996 91.314003 93.446999 97.551003 102.033 106.083 109.08 113.562"
             y="-90.441002"
             sodipodi:role="line"
             id="tspan124">Signatur</tspan><tspan
             x="87.353996 91.314003 94.914001 98.306999 100.44 104.949"
             y="-80.936996"
             sodipodi:role="line"
             id="tspan126">Script</tspan><tspan
             x="150.36301 154.8 159.282 161.586 166.095 168.228 172.188 174.492 178.452 182.412 186.51601 192.222 194.355 197.35201 199.65601 204.093 208.60201 211.995 215.955 219.45599 222.957"
             y="-99.935997"
             sodipodi:role="line"
             id="tspan128">An die Segwit Adresse</tspan><tspan
             x="150.36301 154.87199 158.832 162.33299 164.63699 168.939 173.286 177.795 181.395 185.742 189.13499 193.617 200.358 204.408 207.909 211.509 216 218.133 222.61501 226.575 231.05701"
             y="-90.431999"
             sodipodi:role="line"
             id="tspan130">des Popcornmaschinen-</tspan><tspan
             x="150.36301 155.205 159.16499 162.666 164.799 167.79601 171.37801 175.338 178.731 182.23199 184.536 188.64 192.60001 196.101 199.701 204.192 206.325 209.925 214.11 217.10699"
             y="-80.928001"
             sodipodi:role="line"
             id="tspan132">Besitzers geschickt.</tspan></text><g
           id="g136"
           transform="translate(300.5,579.5)"><path
             d="m 0,0 c 0,-1.1 -0.9,-2 -2,-2 h -164.5 c -1.1,0 -2,0.9 -2,2 v 33.333 c 0,1.101 0.9,2 2,2 H -2 c 1.1,0 2,-0.899 2,-2 z"
             style="fill:#feefe9;fill-opacity:1;fill-rule:evenodd;stroke:none"
             id="path138" /></g><g
           id="g140"
           transform="translate(223.8335,614.6938)"><path
             d="M 0,0 V -36.671"
             style="fill:none;stroke:#656263;stroke-width:0.5;stroke-linecap:butt;stroke-linejoin:miter;stroke-miterlimit:4;stroke-dasharray:none;stroke-opacity:1"
             id="path142" /></g><g
           id="g144"
           transform="translate(300.5,579.5)"><path
             d="m 0,0 c 0,-1.1 -0.9,-2 -2,-2 h -164.5 c -1.1,0 -2,0.9 -2,2 v 33.333 c 0,1.101 0.9,2 2,2 H -2 c 1.1,0 2,-0.899 2,-2 z"
             style="fill:none;stroke:#d91920;stroke-width:1;stroke-linecap:butt;stroke-linejoin:round;stroke-miterlimit:4;stroke-dasharray:none;stroke-opacity:1"
             id="path146" /></g><g
           id="g148"
           transform="translate(161.1201,619.0239)"><path
             d="M 0,0 C 0,5.81 2.829,7.447 2.829,12.476"
             style="fill:none;stroke:#231f20;stroke-width:0.3;stroke-linecap:butt;stroke-linejoin:miter;stroke-miterlimit:10;stroke-dasharray:none;stroke-opacity:1"
             id="path150" /></g><g
           id="g152"
           transform="translate(162.9795,619.5713)"><path
             d="M 0,0 -1.87,-3.238 -3.739,0 Z"
             style="fill:#231f20;fill-opacity:1;fill-rule:nonzero;stroke:none"
             id="path154" /></g><g
           id="g156"
           transform="translate(416.75,573)"><path
             d="M 0,0 C 0,-7.885 -2.829,-7.886 -2.829,-12.915"
             style="fill:none;stroke:#231f20;stroke-width:0.3;stroke-linecap:butt;stroke-linejoin:miter;stroke-miterlimit:10;stroke-dasharray:none;stroke-opacity:1"
             id="path158" /></g><g
           id="g160"
           transform="translate(414.8906,572.4531)"><path
             d="M 0,0 1.87,3.238 3.739,0 Z"
             style="fill:#231f20;fill-opacity:1;fill-rule:nonzero;stroke:none"
             id="path162" /></g><g
           id="g164"
           transform="translate(308,572.75)"><path
             d="M 0,0 C -6.5,-3.25 -9,-7.636 -9,-12.665"
             style="fill:none;stroke:#231f20;stroke-width:0.3;stroke-linecap:butt;stroke-linejoin:miter;stroke-miterlimit:10;stroke-dasharray:none;stroke-opacity:1"
             id="path166" /></g><g
           id="g168"
           transform="translate(306.6792,574.1685)"><path
             d="M 0,0 3.732,-0.224 1.672,-3.345 Z"
             style="fill:#231f20;fill-opacity:1;fill-rule:nonzero;stroke:none"
             id="path170" /></g><g
           id="g172"
           transform="translate(447.7861,612.251)"><path
             d="M 0,0 C 0,10.416 5.214,11.082 5.214,19.082"
             style="fill:none;stroke:#231f20;stroke-width:0.3;stroke-linecap:butt;stroke-linejoin:miter;stroke-miterlimit:10;stroke-dasharray:none;stroke-opacity:1"
             id="path174" /></g><g
           id="g176"
           transform="translate(449.6455,612.7979)"><path
             d="M 0,0 -1.869,-3.238 -3.739,0 Z"
             style="fill:#231f20;fill-opacity:1;fill-rule:nonzero;stroke:none"
             id="path178" /></g><g
           id="g180"
           transform="translate(378.667,611.1665)"><path
             d="M 0,0 C 0,8.082 -7.667,12.167 -7.667,20.167"
             style="fill:none;stroke:#231f20;stroke-width:0.3;stroke-linecap:butt;stroke-linejoin:miter;stroke-miterlimit:10;stroke-dasharray:none;stroke-opacity:1"
             id="path182" /></g><g
           id="g184"
           transform="translate(380.5264,611.7139)"><path
             d="M 0,0 -1.87,-3.238 -3.739,0 Z"
             style="fill:#231f20;fill-opacity:1;fill-rule:nonzero;stroke:none"
             id="path186" /></g><g
           id="g188"
           transform="translate(277.2681,612.6934)"><path
             d="M 0,0 C 0,8.082 -5.258,10.64 -5.258,18.64"
             style="fill:none;stroke:#231f20;stroke-width:0.3;stroke-linecap:butt;stroke-linejoin:miter;stroke-miterlimit:10;stroke-dasharray:none;stroke-opacity:1"
             id="path190" /></g><g
           id="g192"
           transform="translate(279.1274,613.2402)"><path
             d="M 0,0 -1.87,-3.238 -3.739,0 Z"
             style="fill:#231f20;fill-opacity:1;fill-rule:nonzero;stroke:none"
             id="path194" /></g><text
           transform="matrix(1,0,0,-1,147.7158,633.8604)"
           style="font-variant:normal;font-weight:bold;font-stretch:condensed;font-size:9px;font-family:'Humanst521 Cn BT';-inkscape-font-specification:Humanist521BT-BoldCondensed;writing-mode:lr-tb;fill:#231f20;fill-opacity:1;fill-rule:nonzero;stroke:none"
           id="text202"><tspan
             x="0 4.0500002 8.3970003 11.79 14.094 16.254 20.304001 24.813 27.809999 32.157001"
             y="0"
             sodipodi:role="line"
             id="tspan196">For laptop</tspan><tspan
             x="98.738998 103.923 107.973 111.474 113.778 118.413 122.895 127.404 131.589 135.549 139.32001"
             y="-9.5039997"
             sodipodi:role="line"
             id="tspan198">Das Pubkey </tspan><tspan
             x="98.738998 102.699 106.299 109.692 111.825 116.334 119.331 121.635 123.759 127.26 130.257 132.561 137.043 141.00301 145.485"
             y="0"
             sodipodi:role="line"
             id="tspan200">Script ist neu.</tspan></text><text
           transform="matrix(1,0,0,-1,165.1982,601.7168)"
           style="font-variant:normal;font-weight:normal;font-stretch:normal;font-size:11.5px;font-family:Courier;-inkscape-font-specification:Courier;writing-mode:lr-tb;fill:#231f20;fill-opacity:1;fill-rule:nonzero;stroke:none"
           id="text210"><tspan
             x="0"
             y="0"
             id="tspan204">0</tspan><tspan
             x="0"
             y="16.997"
             id="tspan206">3</tspan><tspan
             x="62.571499 69.471497 76.371498"
             y="0"
             sodipodi:role="line"
             id="tspan208">0.1</tspan></text><g
           id="g212"
           transform="translate(137.2397,587.9575)"><path
             d="M 0,0 -1.701,1.912 C 1.484,2.891 3.786,2.143 5.64,1.542 7.014,1.094 8.009,0.772 9.375,1.068 c 1.387,0.299 1.87,0.83 2.43,1.446 0.725,0.799 1.547,1.705 4.324,1.972 l 1.35,-1.98 C 15.279,2.293 14.7,1.657 14.03,0.92 13.43,0.259 12.749,-0.489 10.946,-0.879 8.959,-1.307 7.278,-0.76 5.795,-0.281 4.119,0.265 2.534,0.779 0,0"
             style="fill:#f8a45c;fill-opacity:1;fill-rule:nonzero;stroke:none"
             id="path214" /></g><g
           id="g216"
           transform="translate(137.2397,587.9575)"><path
             d="M 0,0 -1.701,1.912 C 1.484,2.891 3.786,2.143 5.64,1.542 7.014,1.094 8.009,0.772 9.375,1.068 c 1.387,0.299 1.87,0.83 2.43,1.446 0.725,0.799 1.547,1.705 4.324,1.972 l 1.35,-1.98 C 15.279,2.293 14.7,1.657 14.03,0.92 13.43,0.259 12.749,-0.489 10.946,-0.879 8.959,-1.307 7.278,-0.76 5.795,-0.281 4.119,0.265 2.534,0.779 0,0 Z"
             style="fill:none;stroke:#231f20;stroke-width:0.3;stroke-linecap:butt;stroke-linejoin:miter;stroke-miterlimit:4;stroke-dasharray:none;stroke-opacity:1"
             id="path218" /></g><g
           id="g220"
           transform="translate(140.5649,586.1392)"><path
             d="m 0,0 -1.703,1.912 c 3.184,0.981 5.489,0.233 7.34,-0.369 1.376,-0.447 2.37,-0.772 3.738,-0.475 1.386,0.299 1.869,0.83 2.429,1.448 0.726,0.798 1.549,1.705 4.322,1.97 l 1.353,-1.98 C 15.278,2.294 14.7,1.658 14.028,0.92 13.429,0.26 12.749,-0.488 10.944,-0.878 8.958,-1.307 7.279,-0.762 5.794,-0.279 4.119,0.266 2.534,0.779 0,0"
             style="fill:#f8a45c;fill-opacity:1;fill-rule:nonzero;stroke:none"
             id="path222" /></g><g
           id="g224"
           transform="translate(140.5649,586.1392)"><path
             d="m 0,0 -1.703,1.912 c 3.184,0.981 5.489,0.233 7.34,-0.369 1.376,-0.447 2.37,-0.772 3.738,-0.475 1.386,0.299 1.869,0.83 2.429,1.448 0.726,0.798 1.549,1.705 4.322,1.97 l 1.353,-1.98 C 15.278,2.294 14.7,1.658 14.028,0.92 13.429,0.26 12.749,-0.488 10.944,-0.878 8.958,-1.307 7.279,-0.762 5.794,-0.279 4.119,0.266 2.534,0.779 0,0 Z"
             style="fill:none;stroke:#231f20;stroke-width:0.3;stroke-linecap:butt;stroke-linejoin:miter;stroke-miterlimit:4;stroke-dasharray:none;stroke-opacity:1"
             id="path226" /></g><g
           id="g228"
           transform="translate(139.8281,584.1128)"><path
             d="M 0,0 -1.702,1.911 C 1.483,2.893 3.786,2.144 5.641,1.542 7.013,1.097 8.008,0.772 9.375,1.067 c 1.387,0.299 1.868,0.832 2.428,1.449 0.726,0.797 1.548,1.704 4.322,1.969 l 1.353,-1.98 C 15.277,2.294 14.701,1.658 14.027,0.919 13.427,0.259 12.75,-0.489 10.945,-0.879 8.96,-1.307 7.28,-0.762 5.795,-0.28 4.12,0.267 2.535,0.78 0,0"
             style="fill:#f8a45c;fill-opacity:1;fill-rule:nonzero;stroke:none"
             id="path230" /></g><g
           id="g232"
           transform="translate(139.8281,584.1128)"><path
             d="M 0,0 -1.702,1.911 C 1.483,2.893 3.786,2.144 5.641,1.542 7.013,1.097 8.008,0.772 9.375,1.067 c 1.387,0.299 1.868,0.832 2.428,1.449 0.726,0.797 1.548,1.704 4.322,1.969 l 1.353,-1.98 C 15.277,2.294 14.701,1.658 14.027,0.919 13.427,0.259 12.75,-0.489 10.945,-0.879 8.96,-1.307 7.28,-0.762 5.795,-0.28 4.12,0.267 2.535,0.78 0,0 Z"
             style="fill:none;stroke:#231f20;stroke-width:0.3;stroke-linecap:butt;stroke-linejoin:miter;stroke-miterlimit:4;stroke-dasharray:none;stroke-opacity:1"
             id="path234" /></g><g
           id="g236"
           transform="translate(143.209,582.314)"><path
             d="M 0,0 -1.702,1.913 C 1.482,2.892 3.789,2.144 5.639,1.544 7.016,1.095 8.008,0.771 9.375,1.069 c 1.386,0.299 1.871,0.83 2.427,1.446 0.729,0.8 1.551,1.705 4.324,1.972 l 1.352,-1.98 C 15.279,2.295 14.701,1.658 14.029,0.92 13.429,0.259 12.751,-0.487 10.945,-0.878 8.961,-1.308 7.28,-0.76 5.795,-0.278 4.119,0.267 2.536,0.78 0,0"
             style="fill:#f8a45c;fill-opacity:1;fill-rule:nonzero;stroke:none"
             id="path238" /></g><g
           id="g240"
           transform="translate(143.209,582.314)"><path
             d="M 0,0 -1.702,1.913 C 1.482,2.892 3.789,2.144 5.639,1.544 7.016,1.095 8.008,0.771 9.375,1.069 c 1.386,0.299 1.871,0.83 2.427,1.446 0.729,0.8 1.551,1.705 4.324,1.972 l 1.352,-1.98 C 15.279,2.295 14.701,1.658 14.029,0.92 13.429,0.259 12.751,-0.487 10.945,-0.878 8.961,-1.308 7.28,-0.76 5.795,-0.278 4.119,0.267 2.536,0.78 0,0 Z"
             style="fill:none;stroke:#231f20;stroke-width:0.3;stroke-linecap:butt;stroke-linejoin:miter;stroke-miterlimit:4;stroke-dasharray:none;stroke-opacity:1"
             id="path242" /></g><g
           id="g244"
           transform="translate(137.7588,590.0435)"><path
             d="m 0,0 -1.704,1.914 c 3.186,0.98 5.49,0.231 7.342,-0.369 1.375,-0.449 2.368,-0.771 3.737,-0.476 1.386,0.3 1.866,0.83 2.428,1.447 0.725,0.799 1.55,1.705 4.321,1.971 L 17.477,2.506 C 15.278,2.297 14.698,1.658 14.027,0.922 13.427,0.26 12.747,-0.486 10.943,-0.878 8.958,-1.306 7.276,-0.758 5.793,-0.277 4.117,0.266 2.534,0.781 0,0"
             style="fill:#f8a45c;fill-opacity:1;fill-rule:nonzero;stroke:none"
             id="path246" /></g><g
           id="g248"
           transform="translate(137.7588,590.0435)"><path
             d="m 0,0 -1.704,1.914 c 3.186,0.98 5.49,0.231 7.342,-0.369 1.375,-0.449 2.368,-0.771 3.737,-0.476 1.386,0.3 1.866,0.83 2.428,1.447 0.725,0.799 1.55,1.705 4.321,1.971 L 17.477,2.506 C 15.278,2.297 14.698,1.658 14.027,0.922 13.427,0.26 12.747,-0.486 10.943,-0.878 8.958,-1.306 7.276,-0.758 5.793,-0.277 4.117,0.266 2.534,0.781 0,0 Z"
             style="fill:none;stroke:#231f20;stroke-width:0.3;stroke-linecap:butt;stroke-linejoin:miter;stroke-miterlimit:4;stroke-dasharray:none;stroke-opacity:1"
             id="path250" /></g><g
           id="g252"
           transform="translate(137.8667,591.7495)"><path
             d="M 0,0 2.323,0.208 3.335,-0.331 1.821,-0.235 Z"
             style="fill:#231f20;fill-opacity:1;fill-rule:nonzero;stroke:none"
             id="path254" /></g><g
           id="g256"
           transform="translate(143.8062,590.5708)"><path
             d="M 0,0 2.479,-0.936 4.083,-0.43 2.048,-0.164 Z"
             style="fill:#231f20;fill-opacity:1;fill-rule:nonzero;stroke:none"
             id="path258" /></g><g
           id="g260"
           transform="translate(144.7803,587.5864)"><path
             d="m 0,0 -1.745,0.09 -0.715,-0.485 1.772,0.178 2.267,-0.906 1.424,0.019 -1.962,0.765 z"
             style="fill:#231f20;fill-opacity:1;fill-rule:nonzero;stroke:none"
             id="path262" /></g><g
           id="g264"
           transform="translate(155.0698,587.7808)"><path
             d="m 0,0 c -0.443,-0.045 -1.574,-0.306 -1.574,-0.306 l -0.865,-1.418 1.218,0.862 1.897,0.263 z"
             style="fill:#231f20;fill-opacity:1;fill-rule:nonzero;stroke:none"
             id="path266" /></g><g
           id="g268"
           transform="translate(155.9702,584.2964)"><path
             d="m 0,0 -0.805,-1.017 -1.834,-0.579 1.028,-0.438 1.509,0.619 z"
             style="fill:#231f20;fill-opacity:1;fill-rule:nonzero;stroke:none"
             id="path270" /></g><g
           id="g272"
           transform="translate(148.2998,583.354)"><path
             d="M 0,0 -1.776,0.539 -3.135,0.204 -1.514,0.096 Z"
             style="fill:#231f20;fill-opacity:1;fill-rule:nonzero;stroke:none"
             id="path274" /></g><g
           id="g276"
           transform="translate(142.4028,585.5493)"><path
             d="m 0,0 -1.008,-0.176 1.406,-0.08 z"
             style="fill:#231f20;fill-opacity:1;fill-rule:nonzero;stroke:none"
             id="path278" /></g><g
           id="g280"
           transform="translate(150.6211,591.6235)"><path
             d="m 0,0 -1.253,-0.348 -1.479,-1.134 2.031,0.449 z"
             style="fill:#f9aeca;fill-opacity:1;fill-rule:evenodd;stroke:none"
             id="path282" /></g><g
           id="g284"
           transform="translate(152.2207,585.4985)"><path
             d="m 0,0 -1.649,-0.807 -0.181,-0.486 1.588,0.406 z"
             style="fill:#f9aeca;fill-opacity:1;fill-rule:evenodd;stroke:none"
             id="path286" /></g><g
           id="g288"
           transform="translate(159.2827,586.0093)"><path
             d="m 0,0 -1.848,-0.679 -0.134,-0.9 1.527,0.72 z"
             style="fill:#f9aeca;fill-opacity:1;fill-rule:evenodd;stroke:none"
             id="path290" /></g><g
           id="g292"
           transform="translate(141.2852,586.1021)"><path
             d="m 0,0 -1.25,-1.062 -0.447,0.671 z"
             style="fill:#f9aeca;fill-opacity:1;fill-rule:evenodd;stroke:none"
             id="path294" /></g><g
           id="g296"
           transform="translate(148.8301,588.3872)"><path
             d="m 0,0 -2.265,0.191 1.226,-0.564 z"
             style="fill:#96cd56;fill-opacity:1;fill-rule:evenodd;stroke:none"
             id="path298" /></g><g
           id="g300"
           transform="translate(151.0527,582.7935)"><path
             d="m 0,0 -2.112,0.479 c 0,0 1.091,-0.754 1.395,-0.897 0.307,-0.141 2.142,-0.278 2.142,-0.278 z"
             style="fill:#96cd56;fill-opacity:1;fill-rule:evenodd;stroke:none"
             id="path302" /></g><g
           id="g304"
           transform="translate(142.0269,588.1489)"><path
             d="m 0,0 -1.867,-0.064 0.722,-1.011 z"
             style="fill:#96cd56;fill-opacity:1;fill-rule:evenodd;stroke:none"
             id="path306" /></g><g
           id="g308"
           transform="translate(153.2124,593.6323)"><path
             d="m 0,0 -2.092,-0.851 c 0,0 -0.837,-1.216 -0.499,-1.158 0.336,0.059 1.784,0.992 1.784,0.992 z"
             style="fill:#96cd56;fill-opacity:1;fill-rule:evenodd;stroke:none"
             id="path310" /></g><g
           id="g312"
           transform="translate(184.4478,600.9136)"><path
             d="M 0,0 C 0.846,-0.152 1.141,-0.882 1.646,-1.392 1.785,-0.454 2.154,0.239 2.533,0.928 2.523,1.007 2.514,1.084 2.406,1.062 1.742,0.56 0.707,0.453 0,0 M 3.482,2.054 C 3.717,2.094 3.854,2.237 4.053,2.317 4.01,2.513 4.035,2.784 3.863,2.849 3.76,2.558 3.592,2.333 3.482,2.054 M 0.379,2.119 C 0.717,2.868 1.09,3.583 1.457,4.303 0.904,4.455 0.244,4.495 -0.381,4.566 0.004,3.889 0.254,3.071 0.379,2.119 M -3.23,4.503 C -3.482,4.047 -3.58,3.451 -3.736,2.849 -3.879,2.312 -3.914,1.56 -4.373,1.325 c -0.16,0.904 0.41,2.11 0.637,3.044 -1.725,-0.348 -3.159,-1.651 -3.106,-3.575 0.039,-1.423 1.106,-1.932 2.596,-1.92 3.164,0.028 5.475,2.859 3.357,5.692 -0.625,0.126 -1.525,-0.02 -2.341,-0.063 m 0.125,0.396 c 0.56,0.122 1.3,0.053 1.837,0.2 C -1.725,5.546 -2.102,6.08 -2.471,6.62 -2.633,5.993 -2.912,5.492 -3.105,4.899 M 4.307,4.503 C 4.691,5.49 5.441,6.449 5.701,7.349 5.115,6.57 4.354,5.622 4.307,4.503 m 7.156,5.56 C 9.727,9.917 7.629,9.36 6.713,8.276 6.168,7.63 5.904,6.671 5.445,5.827 4.971,4.948 3.813,3.565 4.434,2.581 c 2.586,1.586 5.193,3.234 7.472,5.098 0.733,0.597 1.625,1.29 1.967,2.252 -0.752,0.294 -1.609,0.199 -2.41,0.132 M 4.813,2.317 C 6.313,1.635 7.547,2.884 8.803,3.11 9.111,2.766 8.756,2.056 8.932,1.654 9.842,0.996 11.611,1.235 12.287,0.331 11.887,0.015 11.346,0.53 10.639,0.728 9.422,1.069 8.092,0.86 8.549,2.648 7.461,2.137 5.635,1.183 4.369,2.054 3.943,1.836 3.584,1.55 3.102,1.392 2.6,0.327 2.182,-0.823 1.771,-1.987 c -0.878,0.316 -0.906,1.524 -1.96,1.656 -0.174,-0.262 -0.237,-0.639 -0.317,-0.993 0.244,-0.068 0.51,0.73 0.885,0.53 0.033,-0.508 -0.539,-0.932 -1.014,-1.126 -0.523,0.333 -0.119,1.083 0,1.656 -0.801,-0.639 -2.422,-1.35 -3.992,-1.258 -0.602,0.034 -1.373,0.183 -1.836,0.531 -1.146,0.859 -0.842,3.113 -0.062,4.168 0.72,0.98 1.754,1.33 2.914,1.656 0.351,0.579 0.541,1.332 0.822,1.985 0.359,0.027 0.453,0.095 0.57,0.464 1.873,0.733 4.041,1.16 5.574,2.252 C 1.41,9.175 -0.723,8.524 -2.727,7.944 -3.361,7.761 -4,7.429 -4.627,7.548 c 0.074,0.393 0.598,0.441 0.891,0.527 1.002,0.302 2.125,0.612 3.23,0.928 1.432,0.412 2.971,1.001 4.434,0.861 C 3.963,9.173 3.238,8.975 2.785,8.738 1.408,8.021 -0.482,7.507 -2.027,6.885 -1.771,6.026 -1.139,5.565 -0.635,4.966 0.197,4.972 0.881,4.83 1.582,4.701 2.336,5.613 2.959,6.839 3.672,7.878 3.865,8.159 4.127,8.634 4.496,8.605 4.377,7.835 3.73,7.279 3.293,6.62 2.855,5.964 2.488,5.239 2.09,4.566 2.559,4.241 3.32,4.22 3.482,3.574 2.91,3.446 2.523,4.069 1.961,4.17 1.148,3.19 0.713,1.813 0.125,0.597 1.178,0.798 1.953,1.292 2.85,1.654 3.207,2.481 3.705,3.013 3.799,4.17 3.967,6.247 5.236,7.466 6.461,8.539 6.523,8.871 6.721,9.063 6.84,9.333 7.086,9.392 7.066,9.173 7.219,9.136 8.51,10.067 10.895,10.7 13.047,10.527 13.436,10.494 14.324,10.386 14.314,9.864 14.299,9.026 12.961,8.06 12.352,7.548 10.104,5.663 7.057,3.733 4.813,2.317"
             style="fill:#2c81ab;fill-opacity:1;fill-rule:evenodd;stroke:none"
             id="path314" /></g><g
           id="g316"
           transform="translate(217.1196,599.6899)"><path
             d="m 0,0 -6.42,6.613 c 0.688,1.51 0.42,3.36 -0.818,4.633 -1.608,1.658 -4.242,1.711 -5.883,0.119 -0.033,-0.033 -0.065,-0.07 -0.096,-0.105 -0.037,-0.033 -0.074,-0.063 -0.109,-0.096 -1.641,-1.59 -1.664,-4.226 -0.057,-5.883 1.149,-1.179 2.813,-1.543 4.27,-1.08 L -8.576,3.65 c 0.32,0.237 0.822,0.166 1.162,-0.185 0.34,-0.352 0.394,-0.852 0.15,-1.166 l 0.588,-0.608 c 0.322,0.237 0.821,0.166 1.162,-0.185 0.342,-0.352 0.397,-0.852 0.151,-1.166 l 0.59,-0.608 c 0.32,0.237 0.82,0.166 1.162,-0.185 0.341,-0.352 0.396,-0.852 0.148,-1.166 l 0.41,-0.422 3.297,0.174 0.209,0.201 z"
             style="fill:none;stroke:#231f20;stroke-width:0.75;stroke-linecap:butt;stroke-linejoin:round;stroke-miterlimit:4;stroke-dasharray:none;stroke-opacity:1"
             id="path318" /></g><g
           id="g320"
           transform="translate(217.5728,598.0239)"><path
             d="m 0,0 -7.078,8.078 c 0.687,1.51 0.42,3.361 -0.818,4.635 -1.61,1.656 -4.243,1.711 -5.883,0.117 -1.641,-1.59 -1.664,-4.226 -0.057,-5.883 1.148,-1.179 2.813,-1.543 4.27,-1.08 l 0.537,-0.551 c 0.32,0.237 0.822,0.166 1.162,-0.185 0.34,-0.352 0.394,-0.852 0.15,-1.166 l 0.588,-0.608 c 0.322,0.237 0.82,0.166 1.162,-0.185 C -5.625,2.82 -5.57,2.32 -5.816,2.006 l 0.589,-0.608 c 0.321,0.237 0.821,0.166 1.163,-0.185 0.341,-0.352 0.396,-0.852 0.148,-1.166 l 0.41,-0.422 3.297,0.174 z"
             style="fill:#278a2f;fill-opacity:1;fill-rule:nonzero;stroke:none"
             id="path322" /></g><g
           id="g324"
           transform="translate(217.5728,598.0239)"><path
             d="m 0,0 -7.078,8.078 c 0.687,1.51 0.42,3.361 -0.818,4.635 -1.61,1.656 -4.243,1.711 -5.883,0.117 -1.641,-1.59 -1.664,-4.226 -0.057,-5.883 1.148,-1.179 2.813,-1.543 4.27,-1.08 l 0.537,-0.551 c 0.32,0.237 0.822,0.166 1.162,-0.185 0.34,-0.352 0.394,-0.852 0.15,-1.166 l 0.588,-0.608 c 0.322,0.237 0.82,0.166 1.162,-0.185 C -5.625,2.82 -5.57,2.32 -5.816,2.006 l 0.589,-0.608 c 0.321,0.237 0.821,0.166 1.163,-0.185 0.341,-0.352 0.396,-0.852 0.148,-1.166 l 0.41,-0.422 3.297,0.174 z"
             style="fill:none;stroke:#278a2f;stroke-width:0.3;stroke-linecap:butt;stroke-linejoin:round;stroke-miterlimit:4;stroke-dasharray:none;stroke-opacity:1"
             id="path326" /></g></g></g><g
       id="g328"><g
         id="g330"><g
           id="g336"><g
             id="g338"><path
               d="m 203.999,611.055 c -1.639,-1.591 -1.665,-4.228 -0.055,-5.884 v 0 c 1.146,-1.18 2.812,-1.544 4.269,-1.078 v 0 l 0.536,-0.554 c 0.322,0.237 0.821,0.167 1.162,-0.185 v 0 c 0.34,-0.35 0.396,-0.852 0.15,-1.166 v 0 l 0.59,-0.607 c 0.32,0.235 0.818,0.165 1.162,-0.186 v 0 c 0.339,-0.35 0.394,-0.852 0.149,-1.166 v 0 l 0.591,-0.608 c 0.319,0.237 0.821,0.167 1.162,-0.183 v 0 c 0.338,-0.351 0.393,-0.852 0.148,-1.166 v 0 l 0.411,-0.424 3.298,0.176 -0.452,1.666 -6.42,6.613 c 0.687,1.51 0.419,3.36 -0.819,4.633 v 0 c -0.825,0.851 -1.921,1.279 -3.013,1.279 v 0 c -1.037,0 -2.071,-0.385 -2.869,-1.16"
               style="fill:url(#linearGradient344);stroke:none"
               id="path346" /></g></g></g></g><g
       id="g348"><g
         id="g350"><g
           id="g356"><g
             id="g358"><path
               d="m 204.231,610.815 c -1.504,-1.463 -1.526,-3.888 -0.049,-5.41 v 0 c 1.03,-1.057 2.534,-1.438 3.928,-0.995 v 0 l 0.199,0.065 0.508,-0.526 c 0.434,0.153 0.963,0.02 1.334,-0.36 v 0 c 0.372,-0.384 0.489,-0.917 0.322,-1.344 v 0 l 0.244,-0.252 c 0.436,0.15 0.965,0.017 1.335,-0.364 v 0 c 0.371,-0.382 0.488,-0.918 0.324,-1.343 v 0 l 0.244,-0.252 c 0.433,0.152 0.963,0.019 1.333,-0.364 v 0 c 0.374,-0.381 0.489,-0.915 0.324,-1.344 v 0 l 0.132,-0.136 2.732,0.146 -0.322,1.182 -6.518,6.713 0.094,0.209 c 0.656,1.442 0.36,3.117 -0.752,4.261 v 0 c -0.759,0.783 -1.77,1.177 -2.777,1.177 v 0 c -0.953,0 -1.903,-0.353 -2.635,-1.063"
               style="fill:url(#linearGradient364);stroke:none"
               id="path366" /></g></g></g></g><g
       id="g368"><g
         id="g370"
         clip-path="url(#clipPath374)"><g
           id="g376"
           transform="translate(209.2153,605.6821)"><path
             d="m 0,0 c -1.311,-1.271 -3.402,-1.24 -4.674,0.068 -1.271,1.311 -1.24,3.403 0.07,4.674 1.307,1.274 3.401,1.24 4.672,-0.068 C 1.34,3.363 1.309,1.271 0,0"
             style="fill:#ffffff;fill-opacity:1;fill-rule:nonzero;stroke:none"
             id="path378" /></g><text
           transform="matrix(0.69656686,-0.71749189,-0.71749189,-0.69656686,203.6932,609.4828)"
           style="font-variant:normal;font-weight:normal;font-stretch:normal;font-size:3.67502px;font-family:Arial;-inkscape-font-specification:ArialMT;writing-mode:lr-tb;fill:#231f20;fill-opacity:1;fill-rule:nonzero;stroke:none"
           id="text382"><tspan
             x="0 2.451241 4.4945545"
             y="0"
             sodipodi:role="line"
             id="tspan380">Pub</tspan></text><g
           id="g384"
           transform="translate(217.1196,582.647)"><path
             d="m 0,0 -6.42,6.613 c 0.688,1.51 0.42,3.36 -0.818,4.633 -1.608,1.658 -4.242,1.711 -5.883,0.119 -0.033,-0.035 -0.065,-0.07 -0.096,-0.105 -0.037,-0.033 -0.074,-0.063 -0.109,-0.096 -1.641,-1.59 -1.664,-4.226 -0.057,-5.883 1.149,-1.179 2.813,-1.543 4.27,-1.08 L -8.576,3.65 c 0.32,0.237 0.822,0.164 1.162,-0.185 0.34,-0.352 0.394,-0.852 0.15,-1.166 l 0.588,-0.608 c 0.322,0.237 0.821,0.166 1.162,-0.185 0.342,-0.352 0.397,-0.852 0.151,-1.166 l 0.59,-0.608 c 0.32,0.237 0.82,0.166 1.162,-0.185 0.341,-0.352 0.396,-0.852 0.148,-1.166 l 0.41,-0.422 3.297,0.174 0.209,0.201 z"
             style="fill:none;stroke:#231f20;stroke-width:0.75;stroke-linecap:butt;stroke-linejoin:round;stroke-miterlimit:4;stroke-dasharray:none;stroke-opacity:1"
             id="path386" /></g><g
           id="g388"
           transform="translate(217.5728,580.981)"><path
             d="m 0,0 -7.078,8.078 c 0.687,1.51 0.42,3.36 -0.818,4.635 -1.61,1.656 -4.243,1.711 -5.883,0.117 -1.641,-1.59 -1.664,-4.226 -0.057,-5.883 1.148,-1.179 2.813,-1.543 4.27,-1.08 l 0.537,-0.551 c 0.32,0.237 0.822,0.164 1.162,-0.185 0.34,-0.352 0.394,-0.852 0.15,-1.166 l 0.588,-0.608 c 0.322,0.237 0.82,0.166 1.162,-0.185 C -5.625,2.82 -5.57,2.32 -5.816,2.006 l 0.589,-0.608 c 0.321,0.237 0.821,0.166 1.163,-0.185 0.341,-0.352 0.396,-0.852 0.148,-1.166 l 0.41,-0.422 3.297,0.174 z"
             style="fill:#278a2f;fill-opacity:1;fill-rule:nonzero;stroke:none"
             id="path390" /></g><g
           id="g392"
           transform="translate(217.5728,580.981)"><path
             d="m 0,0 -7.078,8.078 c 0.687,1.51 0.42,3.36 -0.818,4.635 -1.61,1.656 -4.243,1.711 -5.883,0.117 -1.641,-1.59 -1.664,-4.226 -0.057,-5.883 1.148,-1.179 2.813,-1.543 4.27,-1.08 l 0.537,-0.551 c 0.32,0.237 0.822,0.164 1.162,-0.185 0.34,-0.352 0.394,-0.852 0.15,-1.166 l 0.588,-0.608 c 0.322,0.237 0.82,0.166 1.162,-0.185 C -5.625,2.82 -5.57,2.32 -5.816,2.006 l 0.589,-0.608 c 0.321,0.237 0.821,0.166 1.163,-0.185 0.341,-0.352 0.396,-0.852 0.148,-1.166 l 0.41,-0.422 3.297,0.174 z"
             style="fill:none;stroke:#278a2f;stroke-width:0.3;stroke-linecap:butt;stroke-linejoin:round;stroke-miterlimit:4;stroke-dasharray:none;stroke-opacity:1"
             id="path394" /></g></g></g><g
       id="g396"><g
         id="g398"><g
           id="g404"><g
             id="g406"><path
               d="m 203.999,594.013 c -1.639,-1.593 -1.665,-4.229 -0.055,-5.885 v 0 c 1.146,-1.18 2.812,-1.543 4.269,-1.079 v 0 l 0.536,-0.552 c 0.322,0.235 0.821,0.165 1.162,-0.186 v 0 c 0.34,-0.35 0.396,-0.851 0.15,-1.166 v 0 l 0.59,-0.608 c 0.32,0.237 0.818,0.167 1.162,-0.185 v 0 c 0.339,-0.352 0.394,-0.851 0.149,-1.166 v 0 l 0.591,-0.61 c 0.319,0.239 0.821,0.169 1.162,-0.181 v 0 c 0.338,-0.352 0.393,-0.852 0.148,-1.166 v 0 l 0.411,-0.424 3.298,0.176 -0.452,1.666 -6.42,6.614 c 0.687,1.509 0.419,3.358 -0.819,4.632 v 0 c -0.825,0.851 -1.921,1.279 -3.013,1.279 v 0 c -1.037,0 -2.071,-0.385 -2.869,-1.159"
               style="fill:url(#linearGradient412);stroke:none"
               id="path414" /></g></g></g></g><g
       id="g416"><g
         id="g418"><g
           id="g424"><g
             id="g426"><path
               d="m 204.231,593.772 c -1.504,-1.463 -1.526,-3.889 -0.049,-5.41 v 0 c 1.03,-1.059 2.534,-1.44 3.928,-0.994 v 0 l 0.199,0.064 0.508,-0.525 c 0.434,0.152 0.963,0.019 1.334,-0.364 v 0 c 0.372,-0.38 0.489,-0.914 0.322,-1.343 v 0 l 0.244,-0.25 c 0.436,0.15 0.965,0.018 1.335,-0.364 v 0 c 0.371,-0.383 0.488,-0.918 0.324,-1.344 v 0 l 0.244,-0.252 c 0.433,0.153 0.963,0.02 1.333,-0.362 v 0 c 0.374,-0.381 0.489,-0.917 0.324,-1.344 v 0 l 0.132,-0.137 2.732,0.147 -0.322,1.181 -6.518,6.713 0.094,0.209 c 0.656,1.441 0.36,3.117 -0.752,4.262 v 0 c -0.76,0.782 -1.77,1.176 -2.777,1.176 v 0 c -0.953,0 -1.903,-0.353 -2.635,-1.063"
               style="fill:url(#linearGradient432);stroke:none"
               id="path434" /></g></g></g></g><g
       id="g436"><g
         id="g438"
         clip-path="url(#clipPath442)"><g
           id="g444"
           transform="translate(209.2153,588.6392)"><path
             d="m 0,0 c -1.311,-1.271 -3.402,-1.24 -4.674,0.068 -1.271,1.311 -1.24,3.403 0.07,4.674 1.307,1.274 3.401,1.24 4.672,-0.07 C 1.34,3.363 1.309,1.271 0,0"
             style="fill:#ffffff;fill-opacity:1;fill-rule:nonzero;stroke:none"
             id="path446" /></g><text
           transform="matrix(0.69656686,-0.71749189,-0.71749189,-0.69656686,203.693,592.4393)"
           style="font-variant:normal;font-weight:normal;font-stretch:normal;font-size:3.67502px;font-family:Arial;-inkscape-font-specification:ArialMT;writing-mode:lr-tb;fill:#231f20;fill-opacity:1;fill-rule:nonzero;stroke:none"
           id="text450"><tspan
             x="0 2.451241 4.4945545"
             y="0"
             sodipodi:role="line"
             id="tspan448">Pub</tspan></text><g
           id="g452"
           transform="translate(184.4478,583.8696)"><path
             d="M 0,0 C 0.846,-0.152 1.141,-0.881 1.646,-1.391 1.785,-0.453 2.154,0.24 2.533,0.928 2.523,1.008 2.514,1.084 2.406,1.062 1.742,0.561 0.707,0.453 0,0 M 3.482,2.054 C 3.717,2.094 3.854,2.238 4.053,2.317 4.01,2.514 4.035,2.784 3.863,2.85 3.76,2.559 3.592,2.333 3.482,2.054 M 0.379,2.119 C 0.717,2.869 1.09,3.583 1.457,4.303 0.904,4.455 0.244,4.495 -0.381,4.566 0.004,3.889 0.254,3.071 0.379,2.119 M -3.23,4.504 C -3.482,4.047 -3.58,3.451 -3.736,2.85 -3.879,2.313 -3.914,1.561 -4.373,1.326 c -0.16,0.903 0.41,2.11 0.637,3.043 -1.725,-0.348 -3.159,-1.65 -3.106,-3.574 0.039,-1.424 1.106,-1.933 2.596,-1.92 3.164,0.027 5.475,2.858 3.357,5.691 C -1.514,4.693 -2.414,4.546 -3.23,4.504 M -3.105,4.9 c 0.56,0.121 1.3,0.053 1.837,0.199 C -1.725,5.547 -2.102,6.08 -2.471,6.621 -2.633,5.994 -2.912,5.492 -3.105,4.9 M 4.307,4.504 C 4.691,5.49 5.441,6.449 5.701,7.35 5.115,6.57 4.354,5.622 4.307,4.504 m 7.156,5.559 C 9.727,9.918 7.629,9.361 6.713,8.277 6.168,7.631 5.904,6.672 5.445,5.827 4.971,4.948 3.813,3.566 4.434,2.582 7.02,4.168 9.627,5.816 11.906,7.68 c 0.733,0.597 1.625,1.289 1.967,2.251 -0.752,0.294 -1.609,0.199 -2.41,0.132 M 4.813,2.317 C 6.313,1.635 7.547,2.884 8.803,3.111 9.111,2.766 8.756,2.057 8.932,1.654 9.842,0.996 11.611,1.236 12.287,0.332 11.887,0.016 11.346,0.531 10.639,0.729 9.422,1.069 8.092,0.861 8.549,2.648 7.461,2.137 5.635,1.184 4.369,2.054 3.943,1.836 3.584,1.55 3.102,1.392 2.6,0.327 2.182,-0.823 1.771,-1.986 c -0.878,0.316 -0.906,1.523 -1.96,1.655 -0.174,-0.261 -0.237,-0.638 -0.317,-0.993 0.244,-0.067 0.51,0.73 0.885,0.53 0.033,-0.507 -0.539,-0.931 -1.014,-1.126 -0.523,0.333 -0.119,1.083 0,1.656 -0.801,-0.638 -2.422,-1.349 -3.992,-1.257 -0.602,0.033 -1.373,0.183 -1.836,0.53 -1.146,0.86 -0.842,3.114 -0.062,4.169 0.72,0.979 1.754,1.329 2.914,1.656 0.351,0.578 0.541,1.332 0.822,1.984 0.359,0.028 0.453,0.096 0.57,0.465 1.873,0.733 4.041,1.16 5.574,2.252 C 1.41,9.175 -0.723,8.525 -2.727,7.945 -3.361,7.762 -4,7.43 -4.627,7.549 c 0.074,0.392 0.598,0.441 0.891,0.527 1.002,0.301 2.125,0.611 3.23,0.928 1.432,0.412 2.971,1 4.434,0.861 C 3.963,9.174 3.238,8.975 2.785,8.738 1.408,8.021 -0.482,7.508 -2.027,6.885 -1.771,6.026 -1.139,5.565 -0.635,4.967 0.197,4.973 0.881,4.83 1.582,4.701 2.336,5.613 2.959,6.84 3.672,7.878 3.865,8.16 4.127,8.635 4.496,8.605 4.377,7.836 3.73,7.279 3.293,6.621 2.855,5.964 2.488,5.239 2.09,4.566 2.559,4.242 3.32,4.221 3.482,3.574 2.91,3.447 2.523,4.069 1.961,4.17 1.148,3.191 0.713,1.813 0.125,0.598 c 1.053,0.2 1.828,0.695 2.725,1.056 0.357,0.828 0.855,1.36 0.949,2.516 0.168,2.077 1.437,3.296 2.662,4.369 0.062,0.332 0.26,0.524 0.379,0.795 0.246,0.058 0.226,-0.16 0.379,-0.197 1.291,0.931 3.676,1.564 5.828,1.39 0.389,-0.033 1.277,-0.14 1.267,-0.662 C 14.299,9.027 12.961,8.061 12.352,7.549 10.104,5.664 7.057,3.734 4.813,2.317"
             style="fill:#2c81ab;fill-opacity:1;fill-rule:evenodd;stroke:none"
             id="path454" /></g><g
           id="g456"
           transform="translate(137.2397,604.123)"><path
             d="M 0,0 -1.701,1.912 C 1.484,2.891 3.786,2.143 5.64,1.543 7.014,1.094 8.009,0.773 9.375,1.068 c 1.387,0.299 1.87,0.83 2.43,1.446 0.725,0.799 1.547,1.705 4.324,1.972 l 1.35,-1.98 C 15.279,2.294 14.7,1.658 14.03,0.92 13.43,0.26 12.749,-0.488 10.946,-0.879 8.959,-1.307 7.278,-0.76 5.795,-0.28 4.119,0.266 2.534,0.78 0,0"
             style="fill:#f8a45c;fill-opacity:1;fill-rule:nonzero;stroke:none"
             id="path458" /></g><g
           id="g460"
           transform="translate(137.2397,604.123)"><path
             d="M 0,0 -1.701,1.912 C 1.484,2.891 3.786,2.143 5.64,1.543 7.014,1.094 8.009,0.773 9.375,1.068 c 1.387,0.299 1.87,0.83 2.43,1.446 0.725,0.799 1.547,1.705 4.324,1.972 l 1.35,-1.98 C 15.279,2.294 14.7,1.658 14.03,0.92 13.43,0.26 12.749,-0.488 10.946,-0.879 8.959,-1.307 7.278,-0.76 5.795,-0.28 4.119,0.266 2.534,0.78 0,0 Z"
             style="fill:none;stroke:#231f20;stroke-width:0.3;stroke-linecap:butt;stroke-linejoin:miter;stroke-miterlimit:4;stroke-dasharray:none;stroke-opacity:1"
             id="path462" /></g><g
           id="g464"
           transform="translate(140.5649,602.3057)"><path
             d="m 0,0 -1.703,1.911 c 3.184,0.982 5.489,0.233 7.34,-0.368 1.376,-0.447 2.37,-0.772 3.738,-0.476 1.386,0.3 1.869,0.83 2.429,1.448 0.726,0.798 1.549,1.705 4.322,1.97 L 17.479,2.506 C 15.278,2.294 14.7,1.657 14.028,0.919 13.429,0.26 12.749,-0.489 10.944,-0.878 8.958,-1.307 7.279,-0.762 5.794,-0.279 4.119,0.265 2.534,0.778 0,0"
             style="fill:#f8a45c;fill-opacity:1;fill-rule:nonzero;stroke:none"
             id="path466" /></g><g
           id="g468"
           transform="translate(140.5649,602.3057)"><path
             d="m 0,0 -1.703,1.911 c 3.184,0.982 5.489,0.233 7.34,-0.368 1.376,-0.447 2.37,-0.772 3.738,-0.476 1.386,0.3 1.869,0.83 2.429,1.448 0.726,0.798 1.549,1.705 4.322,1.97 L 17.479,2.506 C 15.278,2.294 14.7,1.657 14.028,0.919 13.429,0.26 12.749,-0.489 10.944,-0.878 8.958,-1.307 7.279,-0.762 5.794,-0.279 4.119,0.265 2.534,0.778 0,0 Z"
             style="fill:none;stroke:#231f20;stroke-width:0.3;stroke-linecap:butt;stroke-linejoin:miter;stroke-miterlimit:4;stroke-dasharray:none;stroke-opacity:1"
             id="path470" /></g><g
           id="g472"
           transform="translate(139.8281,600.2793)"><path
             d="M 0,0 -1.702,1.91 C 1.483,2.893 3.786,2.143 5.641,1.541 7.013,1.096 8.008,0.772 9.375,1.066 c 1.387,0.3 1.868,0.832 2.428,1.45 0.726,0.797 1.548,1.703 4.322,1.969 L 17.478,2.504 C 15.277,2.294 14.701,1.658 14.027,0.918 13.427,0.258 12.75,-0.49 10.945,-0.879 8.96,-1.307 7.28,-0.762 5.795,-0.28 4.12,0.266 2.535,0.779 0,0"
             style="fill:#f8a45c;fill-opacity:1;fill-rule:nonzero;stroke:none"
             id="path474" /></g><g
           id="g476"
           transform="translate(139.8281,600.2793)"><path
             d="M 0,0 -1.702,1.91 C 1.483,2.893 3.786,2.143 5.641,1.541 7.013,1.096 8.008,0.772 9.375,1.066 c 1.387,0.3 1.868,0.832 2.428,1.45 0.726,0.797 1.548,1.703 4.322,1.969 L 17.478,2.504 C 15.277,2.294 14.701,1.658 14.027,0.918 13.427,0.258 12.75,-0.49 10.945,-0.879 8.96,-1.307 7.28,-0.762 5.795,-0.28 4.12,0.266 2.535,0.779 0,0 Z"
             style="fill:none;stroke:#231f20;stroke-width:0.3;stroke-linecap:butt;stroke-linejoin:miter;stroke-miterlimit:4;stroke-dasharray:none;stroke-opacity:1"
             id="path478" /></g><g
           id="g480"
           transform="translate(143.209,598.4805)"><path
             d="M 0,0 -1.702,1.913 C 1.482,2.891 3.789,2.144 5.639,1.544 7.016,1.095 8.008,0.771 9.375,1.068 c 1.386,0.299 1.871,0.83 2.427,1.447 0.729,0.799 1.551,1.704 4.324,1.971 l 1.352,-1.98 C 15.279,2.295 14.701,1.658 14.029,0.92 13.429,0.258 12.751,-0.488 10.945,-0.879 8.961,-1.308 7.28,-0.76 5.795,-0.279 4.119,0.266 2.536,0.78 0,0"
             style="fill:#f8a45c;fill-opacity:1;fill-rule:nonzero;stroke:none"
             id="path482" /></g><g
           id="g484"
           transform="translate(143.209,598.4805)"><path
             d="M 0,0 -1.702,1.913 C 1.482,2.891 3.789,2.144 5.639,1.544 7.016,1.095 8.008,0.771 9.375,1.068 c 1.386,0.299 1.871,0.83 2.427,1.447 0.729,0.799 1.551,1.704 4.324,1.971 l 1.352,-1.98 C 15.279,2.295 14.701,1.658 14.029,0.92 13.429,0.258 12.751,-0.488 10.945,-0.879 8.961,-1.308 7.28,-0.76 5.795,-0.279 4.119,0.266 2.536,0.78 0,0 Z"
             style="fill:none;stroke:#231f20;stroke-width:0.3;stroke-linecap:butt;stroke-linejoin:miter;stroke-miterlimit:4;stroke-dasharray:none;stroke-opacity:1"
             id="path486" /></g><g
           id="g488"
           transform="translate(137.7588,606.209)"><path
             d="M 0,0 -1.704,1.914 C 1.482,2.895 3.786,2.145 5.638,1.545 7.013,1.097 8.006,0.775 9.375,1.07 c 1.386,0.299 1.866,0.83 2.428,1.447 0.725,0.799 1.55,1.704 4.321,1.971 l 1.353,-1.981 c -2.199,-0.21 -2.779,-0.849 -3.45,-1.585 -0.6,-0.661 -1.28,-1.408 -3.084,-1.799 -1.985,-0.428 -3.667,0.119 -5.15,0.6 C 4.117,0.267 2.534,0.782 0,0"
             style="fill:#f8a45c;fill-opacity:1;fill-rule:nonzero;stroke:none"
             id="path490" /></g><g
           id="g492"
           transform="translate(137.7588,606.209)"><path
             d="M 0,0 -1.704,1.914 C 1.482,2.895 3.786,2.145 5.638,1.545 7.013,1.097 8.006,0.775 9.375,1.07 c 1.386,0.299 1.866,0.83 2.428,1.447 0.725,0.799 1.55,1.704 4.321,1.971 l 1.353,-1.981 c -2.199,-0.21 -2.779,-0.849 -3.45,-1.585 -0.6,-0.661 -1.28,-1.408 -3.084,-1.799 -1.985,-0.428 -3.667,0.119 -5.15,0.6 C 4.117,0.267 2.534,0.782 0,0 Z"
             style="fill:none;stroke:#231f20;stroke-width:0.3;stroke-linecap:butt;stroke-linejoin:miter;stroke-miterlimit:4;stroke-dasharray:none;stroke-opacity:1"
             id="path494" /></g><g
           id="g496"
           transform="translate(137.8667,607.916)"><path
             d="m 0,0 2.323,0.208 1.012,-0.54 -1.514,0.096 z"
             style="fill:#231f20;fill-opacity:1;fill-rule:nonzero;stroke:none"
             id="path498" /></g><g
           id="g500"
           transform="translate(143.8062,606.7363)"><path
             d="m 0,0 2.479,-0.936 1.604,0.507 -2.035,0.265 z"
             style="fill:#231f20;fill-opacity:1;fill-rule:nonzero;stroke:none"
             id="path502" /></g><g
           id="g504"
           transform="translate(144.7803,603.7529)"><path
             d="m 0,0 -1.745,0.09 -0.715,-0.486 1.772,0.178 2.267,-0.906 1.424,0.02 -1.962,0.765 z"
             style="fill:#231f20;fill-opacity:1;fill-rule:nonzero;stroke:none"
             id="path506" /></g><g
           id="g508"
           transform="translate(155.0698,603.9473)"><path
             d="m 0,0 c -0.443,-0.045 -1.574,-0.306 -1.574,-0.306 l -0.865,-1.419 1.218,0.862 1.897,0.264 z"
             style="fill:#231f20;fill-opacity:1;fill-rule:nonzero;stroke:none"
             id="path510" /></g><g
           id="g512"
           transform="translate(155.9702,600.4629)"><path
             d="m 0,0 -0.805,-1.018 -1.834,-0.578 1.028,-0.438 1.509,0.619 z"
             style="fill:#231f20;fill-opacity:1;fill-rule:nonzero;stroke:none"
             id="path514" /></g><g
           id="g516"
           transform="translate(148.2998,599.5195)"><path
             d="M 0,0 -1.776,0.539 -3.135,0.205 -1.514,0.097 Z"
             style="fill:#231f20;fill-opacity:1;fill-rule:nonzero;stroke:none"
             id="path518" /></g><g
           id="g520"
           transform="translate(142.4028,601.7148)"><path
             d="M 0,0 -1.008,-0.176 0.398,-0.255 Z"
             style="fill:#231f20;fill-opacity:1;fill-rule:nonzero;stroke:none"
             id="path522" /></g><g
           id="g524"
           transform="translate(150.6211,607.7891)"><path
             d="m 0,0 -1.253,-0.347 -1.479,-1.134 2.031,0.449 z"
             style="fill:#f9aeca;fill-opacity:1;fill-rule:evenodd;stroke:none"
             id="path526" /></g><g
           id="g528"
           transform="translate(152.2207,601.6641)"><path
             d="m 0,0 -1.649,-0.807 -0.181,-0.486 1.588,0.406 z"
             style="fill:#f9aeca;fill-opacity:1;fill-rule:evenodd;stroke:none"
             id="path530" /></g><g
           id="g532"
           transform="translate(159.2827,602.1758)"><path
             d="m 0,0 -1.848,-0.679 -0.134,-0.9 1.527,0.72 z"
             style="fill:#f9aeca;fill-opacity:1;fill-rule:evenodd;stroke:none"
             id="path534" /></g><g
           id="g536"
           transform="translate(141.2852,602.2686)"><path
             d="m 0,0 -1.25,-1.062 -0.447,0.67 z"
             style="fill:#f9aeca;fill-opacity:1;fill-rule:evenodd;stroke:none"
             id="path538" /></g><g
           id="g540"
           transform="translate(148.8301,604.5527)"><path
             d="m 0,0 -2.265,0.191 1.226,-0.564 z"
             style="fill:#96cd56;fill-opacity:1;fill-rule:evenodd;stroke:none"
             id="path542" /></g><g
           id="g544"
           transform="translate(151.0527,598.959)"><path
             d="m 0,0 -2.112,0.479 c 0,0 1.091,-0.754 1.395,-0.897 0.307,-0.141 2.142,-0.277 2.142,-0.277 z"
             style="fill:#96cd56;fill-opacity:1;fill-rule:evenodd;stroke:none"
             id="path546" /></g><g
           id="g548"
           transform="translate(142.0269,604.3154)"><path
             d="m 0,0 -1.867,-0.064 0.722,-1.011 z"
             style="fill:#96cd56;fill-opacity:1;fill-rule:evenodd;stroke:none"
             id="path550" /></g><g
           id="g552"
           transform="translate(153.2124,609.7988)"><path
             d="m 0,0 -2.092,-0.851 c 0,0 -0.837,-1.217 -0.499,-1.159 0.336,0.059 1.784,0.992 1.784,0.992 z"
             style="fill:#96cd56;fill-opacity:1;fill-rule:evenodd;stroke:none"
             id="path554" /></g><text
           transform="matrix(1,0,0,-1,262.5625,601.7168)"
           style="font-variant:normal;font-weight:normal;font-stretch:normal;font-size:11.5px;font-family:Courier;-inkscape-font-specification:Courier;writing-mode:lr-tb;fill:#231f20;fill-opacity:1;fill-rule:nonzero;stroke:none"
           id="text558"><tspan
             x="0 6.9000001 13.8 20.700001"
             y="0"
             sodipodi:role="line"
             id="tspan556">WPKH</tspan></text><text
           transform="matrix(1,0,0,-1,290.167,598.7168)"
           style="font-variant:normal;font-weight:normal;font-stretch:normal;font-size:7px;font-family:Courier;-inkscape-font-specification:Courier;writing-mode:lr-tb;fill:#231f20;fill-opacity:1;fill-rule:nonzero;stroke:none"
           id="text562"><tspan
             x="0"
             y="0"
             id="tspan560">Y</tspan></text><g
           id="g564"
           transform="translate(303.5449,606.3525)"><path
             d="m 0,0 c 0.951,0.283 1.57,0.545 2.334,0.848 l -0.01,-2.901 c -0.271,0.131 -1.379,0.576 -2.326,0.867 -1.018,0.313 -1.939,0.524 -2.537,0.602 0.6,0.072 1.523,0.281 2.539,0.584"
             style="fill:#231f20;fill-opacity:1;fill-rule:nonzero;stroke:none"
             id="path566" /></g><g
           id="g568"
           transform="translate(305.6748,605.751)"><path
             d="M 0,0 H 32.474"
             style="fill:none;stroke:#231f20;stroke-width:0.5;stroke-linecap:butt;stroke-linejoin:miter;stroke-miterlimit:4;stroke-dasharray:none;stroke-opacity:1"
             id="path570" /></g><g
           id="g572"
           transform="translate(338.2402,605.3408)"><path
             d="m 0,0 -1.701,1.912 c 3.184,0.979 5.486,0.231 7.34,-0.369 1.375,-0.449 2.369,-0.77 3.736,-0.475 1.387,0.299 1.869,0.83 2.43,1.446 0.724,0.799 1.547,1.705 4.324,1.972 l 1.35,-1.98 C 15.279,2.294 14.699,1.658 14.029,0.92 13.43,0.26 12.748,-0.488 10.945,-0.879 8.959,-1.307 7.277,-0.76 5.795,-0.28 4.119,0.266 2.533,0.78 0,0"
             style="fill:#f8a45c;fill-opacity:1;fill-rule:nonzero;stroke:none"
             id="path574" /></g><g
           id="g576"
           transform="translate(338.2402,605.3408)"><path
             d="m 0,0 -1.701,1.912 c 3.184,0.979 5.486,0.231 7.34,-0.369 1.375,-0.449 2.369,-0.77 3.736,-0.475 1.387,0.299 1.869,0.83 2.43,1.446 0.724,0.799 1.547,1.705 4.324,1.972 l 1.35,-1.98 C 15.279,2.294 14.699,1.658 14.029,0.92 13.43,0.26 12.748,-0.488 10.945,-0.879 8.959,-1.307 7.277,-0.76 5.795,-0.28 4.119,0.266 2.533,0.78 0,0 Z"
             style="fill:none;stroke:#231f20;stroke-width:0.3;stroke-linecap:butt;stroke-linejoin:miter;stroke-miterlimit:4;stroke-dasharray:none;stroke-opacity:1"
             id="path578" /></g><g
           id="g580"
           transform="translate(341.5645,603.5234)"><path
             d="m 0,0 -1.702,1.911 c 3.183,0.982 5.489,0.233 7.34,-0.368 1.376,-0.447 2.37,-0.772 3.738,-0.476 1.386,0.3 1.868,0.83 2.429,1.448 0.726,0.798 1.549,1.705 4.322,1.97 L 17.48,2.506 C 15.279,2.294 14.701,1.657 14.029,0.919 13.43,0.26 12.75,-0.489 10.944,-0.878 8.959,-1.307 7.279,-0.762 5.795,-0.279 4.119,0.265 2.535,0.778 0,0"
             style="fill:#f8a45c;fill-opacity:1;fill-rule:nonzero;stroke:none"
             id="path582" /></g><g
           id="g584"
           transform="translate(341.5645,603.5234)"><path
             d="m 0,0 -1.702,1.911 c 3.183,0.982 5.489,0.233 7.34,-0.368 1.376,-0.447 2.37,-0.772 3.738,-0.476 1.386,0.3 1.868,0.83 2.429,1.448 0.726,0.798 1.549,1.705 4.322,1.97 L 17.48,2.506 C 15.279,2.294 14.701,1.657 14.029,0.919 13.43,0.26 12.75,-0.489 10.944,-0.878 8.959,-1.307 7.279,-0.762 5.795,-0.279 4.119,0.265 2.535,0.778 0,0 Z"
             style="fill:none;stroke:#231f20;stroke-width:0.3;stroke-linecap:butt;stroke-linejoin:miter;stroke-miterlimit:4;stroke-dasharray:none;stroke-opacity:1"
             id="path586" /></g><g
           id="g588"
           transform="translate(340.8281,601.4971)"><path
             d="M 0,0 -1.702,1.91 C 1.482,2.893 3.786,2.143 5.641,1.541 7.014,1.096 8.008,0.772 9.375,1.066 c 1.387,0.3 1.868,0.832 2.428,1.45 0.726,0.797 1.549,1.703 4.322,1.969 L 17.479,2.504 C 15.277,2.294 14.701,1.658 14.027,0.918 13.428,0.258 12.75,-0.49 10.945,-0.879 8.96,-1.307 7.279,-0.762 5.795,-0.28 4.12,0.266 2.535,0.779 0,0"
             style="fill:#f8a45c;fill-opacity:1;fill-rule:nonzero;stroke:none"
             id="path590" /></g><g
           id="g592"
           transform="translate(340.8281,601.4971)"><path
             d="M 0,0 -1.702,1.91 C 1.482,2.893 3.786,2.143 5.641,1.541 7.014,1.096 8.008,0.772 9.375,1.066 c 1.387,0.3 1.868,0.832 2.428,1.45 0.726,0.797 1.549,1.703 4.322,1.969 L 17.479,2.504 C 15.277,2.294 14.701,1.658 14.027,0.918 13.428,0.258 12.75,-0.49 10.945,-0.879 8.96,-1.307 7.279,-0.762 5.795,-0.28 4.12,0.266 2.535,0.779 0,0 Z"
             style="fill:none;stroke:#231f20;stroke-width:0.3;stroke-linecap:butt;stroke-linejoin:miter;stroke-miterlimit:4;stroke-dasharray:none;stroke-opacity:1"
             id="path594" /></g><g
           id="g596"
           transform="translate(344.209,599.6982)"><path
             d="m 0,0 -1.701,1.913 c 3.183,0.978 5.49,0.231 7.34,-0.369 1.377,-0.449 2.369,-0.773 3.736,-0.476 1.387,0.299 1.871,0.83 2.428,1.447 0.728,0.799 1.551,1.704 4.324,1.971 l 1.352,-1.98 C 15.279,2.295 14.701,1.658 14.029,0.92 13.43,0.258 12.752,-0.488 10.945,-0.879 8.961,-1.308 7.28,-0.76 5.795,-0.279 4.119,0.266 2.535,0.78 0,0"
             style="fill:#f8a45c;fill-opacity:1;fill-rule:nonzero;stroke:none"
             id="path598" /></g><g
           id="g600"
           transform="translate(344.209,599.6982)"><path
             d="m 0,0 -1.701,1.913 c 3.183,0.978 5.49,0.231 7.34,-0.369 1.377,-0.449 2.369,-0.773 3.736,-0.476 1.387,0.299 1.871,0.83 2.428,1.447 0.728,0.799 1.551,1.704 4.324,1.971 l 1.352,-1.98 C 15.279,2.295 14.701,1.658 14.029,0.92 13.43,0.258 12.752,-0.488 10.945,-0.879 8.961,-1.308 7.28,-0.76 5.795,-0.279 4.119,0.266 2.535,0.78 0,0 Z"
             style="fill:none;stroke:#231f20;stroke-width:0.3;stroke-linecap:butt;stroke-linejoin:miter;stroke-miterlimit:4;stroke-dasharray:none;stroke-opacity:1"
             id="path602" /></g><g
           id="g604"
           transform="translate(338.7588,607.4268)"><path
             d="M 0,0 -1.704,1.914 C 1.481,2.895 3.786,2.145 5.638,1.545 7.013,1.097 8.007,0.775 9.375,1.07 c 1.386,0.299 1.866,0.83 2.428,1.447 0.725,0.799 1.55,1.704 4.321,1.971 l 1.354,-1.981 c -2.2,-0.21 -2.78,-0.849 -3.451,-1.585 -0.6,-0.661 -1.28,-1.408 -3.084,-1.799 -1.985,-0.428 -3.667,0.119 -5.149,0.6 C 4.116,0.267 2.534,0.782 0,0"
             style="fill:#f8a45c;fill-opacity:1;fill-rule:nonzero;stroke:none"
             id="path606" /></g><g
           id="g608"
           transform="translate(338.7588,607.4268)"><path
             d="M 0,0 -1.704,1.914 C 1.481,2.895 3.786,2.145 5.638,1.545 7.013,1.097 8.007,0.775 9.375,1.07 c 1.386,0.299 1.866,0.83 2.428,1.447 0.725,0.799 1.55,1.704 4.321,1.971 l 1.354,-1.981 c -2.2,-0.21 -2.78,-0.849 -3.451,-1.585 -0.6,-0.661 -1.28,-1.408 -3.084,-1.799 -1.985,-0.428 -3.667,0.119 -5.149,0.6 C 4.116,0.267 2.534,0.782 0,0 Z"
             style="fill:none;stroke:#231f20;stroke-width:0.3;stroke-linecap:butt;stroke-linejoin:miter;stroke-miterlimit:4;stroke-dasharray:none;stroke-opacity:1"
             id="path610" /></g><g
           id="g612"
           transform="translate(338.8672,609.1338)"><path
             d="M 0,0 2.322,0.208 3.334,-0.332 1.82,-0.236 Z"
             style="fill:#231f20;fill-opacity:1;fill-rule:nonzero;stroke:none"
             id="path614" /></g><g
           id="g616"
           transform="translate(344.8066,607.9541)"><path
             d="m 0,0 2.479,-0.936 1.603,0.507 -2.034,0.265 z"
             style="fill:#231f20;fill-opacity:1;fill-rule:nonzero;stroke:none"
             id="path618" /></g><g
           id="g620"
           transform="translate(345.7803,604.9707)"><path
             d="m 0,0 -1.745,0.09 -0.715,-0.486 1.772,0.178 2.267,-0.906 1.424,0.02 -1.962,0.765 z"
             style="fill:#231f20;fill-opacity:1;fill-rule:nonzero;stroke:none"
             id="path622" /></g><g
           id="g624"
           transform="translate(356.0703,605.165)"><path
             d="m 0,0 c -0.443,-0.045 -1.574,-0.306 -1.574,-0.306 l -0.865,-1.419 1.218,0.862 1.897,0.264 z"
             style="fill:#231f20;fill-opacity:1;fill-rule:nonzero;stroke:none"
             id="path626" /></g><g
           id="g628"
           transform="translate(356.9707,601.6807)"><path
             d="m 0,0 -0.805,-1.018 -1.834,-0.578 1.028,-0.438 1.509,0.619 z"
             style="fill:#231f20;fill-opacity:1;fill-rule:nonzero;stroke:none"
             id="path630" /></g><g
           id="g632"
           transform="translate(349.2998,600.7373)"><path
             d="M 0,0 -1.776,0.539 -3.136,0.205 -1.515,0.097 Z"
             style="fill:#231f20;fill-opacity:1;fill-rule:nonzero;stroke:none"
             id="path634" /></g><g
           id="g636"
           transform="translate(343.4023,602.9326)"><path
             d="M 0,0 -1.008,-0.176 0.398,-0.255 Z"
             style="fill:#231f20;fill-opacity:1;fill-rule:nonzero;stroke:none"
             id="path638" /></g><g
           id="g640"
           transform="translate(351.6211,609.0068)"><path
             d="m 0,0 -1.253,-0.347 -1.479,-1.134 2.031,0.449 z"
             style="fill:#f9aeca;fill-opacity:1;fill-rule:evenodd;stroke:none"
             id="path642" /></g><g
           id="g644"
           transform="translate(353.2207,602.8818)"><path
             d="m 0,0 -1.649,-0.807 -0.181,-0.486 1.588,0.406 z"
             style="fill:#f9aeca;fill-opacity:1;fill-rule:evenodd;stroke:none"
             id="path646" /></g><g
           id="g648"
           transform="translate(360.2832,603.3936)"><path
             d="m 0,0 -1.848,-0.679 -0.134,-0.9 1.527,0.72 z"
             style="fill:#f9aeca;fill-opacity:1;fill-rule:evenodd;stroke:none"
             id="path650" /></g><g
           id="g652"
           transform="translate(342.2852,603.4863)"><path
             d="m 0,0 -1.25,-1.062 -0.447,0.67 z"
             style="fill:#f9aeca;fill-opacity:1;fill-rule:evenodd;stroke:none"
             id="path654" /></g><g
           id="g656"
           transform="translate(349.8301,605.7705)"><path
             d="m 0,0 -2.265,0.191 1.226,-0.564 z"
             style="fill:#96cd56;fill-opacity:1;fill-rule:evenodd;stroke:none"
             id="path658" /></g><g
           id="g660"
           transform="translate(352.0527,600.1768)"><path
             d="m 0,0 -2.112,0.479 c 0,0 1.091,-0.754 1.395,-0.897 0.307,-0.141 2.143,-0.277 2.143,-0.277 z"
             style="fill:#96cd56;fill-opacity:1;fill-rule:evenodd;stroke:none"
             id="path662" /></g><g
           id="g664"
           transform="translate(343.0273,605.5332)"><path
             d="m 0,0 -1.867,-0.064 0.722,-1.011 z"
             style="fill:#96cd56;fill-opacity:1;fill-rule:evenodd;stroke:none"
             id="path666" /></g><g
           id="g668"
           transform="translate(354.2129,611.0166)"><path
             d="m 0,0 -2.093,-0.851 c 0,0 -0.837,-1.217 -0.499,-1.159 0.336,0.059 1.785,0.992 1.785,0.992 z"
             style="fill:#96cd56;fill-opacity:1;fill-rule:evenodd;stroke:none"
             id="path670" /></g><g
           id="g672"
           transform="translate(361.4619,585.0591)"><path
             d="m 0,0 c 0,-1.661 -1.348,-3.009 -3.012,-3.009 -1.66,0 -3.008,1.348 -3.008,3.009 0,1.662 1.348,3.01 3.008,3.01 C -1.348,3.01 0,1.662 0,0"
             style="fill:#d7b9ad;fill-opacity:1;fill-rule:nonzero;stroke:none"
             id="path674" /></g><g
           id="g676"
           transform="translate(357.7832,584.2134)"><path
             d="m 0,0 c -0.086,-0.296 -0.382,-0.466 -0.657,-0.388 -0.291,0.084 -0.45,0.385 -0.367,0.681 0.086,0.295 0.38,0.469 0.671,0.385 C -0.079,0.599 0.083,0.295 0,0"
             style="fill:#231f20;fill-opacity:1;fill-rule:nonzero;stroke:none"
             id="path678" /></g></g></g><g
       id="g680"><g
         id="g682"><g
           id="g688"><g
             id="g690"><path
               d="m 356.833,584.289 c -0.057,-0.199 0.072,-0.404 0.293,-0.466 v 0 c 0.208,-0.061 0.428,0.046 0.485,0.242 v 0 l 0.541,1.893 -0.777,0.223 z"
               style="fill:url(#linearGradient704);stroke:none"
               id="path706" /></g></g></g></g><g
       id="g708"><g
         id="g710"><g
           id="g716"><g
             id="g718"><path
               d="m 355.008,590.399 c -0.006,-0.02 -0.011,-0.037 -0.017,-0.057 v 0 l -0.26,-0.945 c -0.297,-1.455 0.986,-3.039 2.959,-3.604 v 0 c 1.962,-0.563 3.885,0.105 4.402,1.497 v 0 l 0.297,0.996 c 0.454,1.584 -0.829,3.343 -2.861,3.926 v 0 c -0.449,0.128 -0.898,0.189 -1.329,0.189 v 0 c -1.529,0 -2.837,-0.766 -3.191,-2.002"
               style="fill:url(#radialGradient726);stroke:none"
               id="path728" /></g></g></g></g><g
       id="g730"><g
         id="g732"
         clip-path="url(#clipPath736)"><g
           id="g738"><g
             id="g740" /><g
             id="g772"><g
               clip-path="url(#clipPath744)"
               id="g770"><g
                 id="g768"><g
                   id="g766"><g
                     id="g764"><g
                       id="g762"><path
                         d="m 362.092,587.29 0.297,0.996 c 0.397,1.384 -0.536,2.907 -2.138,3.656 l -2.237,-3.382 c 0.843,-0.472 1.945,-1.308 2.072,-2.838 0.954,0.23 1.712,0.776 2.006,1.568"
                         style="fill:url(#linearGradient758);stroke:none"
                         id="path760" /></g></g></g></g></g></g></g><g
           id="g774"
           transform="translate(357.2217,587.7095)"><path
             d="m 0,0 c -0.172,-0.232 -0.602,-0.204 -0.955,0.061 -0.353,0.264 -0.499,0.668 -0.324,0.9 0.172,0.231 0.6,0.204 0.953,-0.061 C 0.029,0.637 0.175,0.233 0,0"
             style="fill:#ffffff;fill-opacity:1;fill-rule:nonzero;stroke:none"
             id="path776" /></g></g></g><g
       id="g778"><g
         id="g780"><g
           id="g786"><g
             id="g788"><path
               d="m 360.115,594.283 -2.039,-0.195 -1.476,-3.404 c -0.253,-0.887 0.569,-1.899 1.841,-2.264 v 0 c 1.269,-0.362 2.503,0.06 2.758,0.947 v 0 l 0.548,3.67 -1.627,1.244 v 0.002 h -0.003 l -0.002,10e-4 z"
               style="fill:url(#linearGradient804);stroke:none"
               id="path806" /></g></g></g></g><g
       id="g808"><g
         id="g810"
         clip-path="url(#clipPath814)"><g
           id="g816"><g
             id="g818" /><g
             id="g846"><g
               clip-path="url(#clipPath822)"
               id="g844"><g
                 id="g842"><g
                   id="g840"><g
                     id="g838"><g
                       id="g836"><path
                         d="m 360.12,594.281 v 0.002 h -0.003 l -0.002,0.002 v -0.002 l -2.039,-0.195 -0.348,-0.802 c 0.101,-1.356 2.156,-4.177 3.544,-3.42 l 0.475,3.171 z"
                         style="fill:url(#linearGradient832);stroke:none"
                         id="path834" /></g></g></g></g></g></g></g></g></g><g
       id="g848"><g
         id="g850"><g
           id="g856"><g
             id="g858"><path
               d="m 357.44,595.656 c -0.313,-1.096 0.702,-2.349 2.272,-2.797 v 0 c 1.57,-0.449 3.094,0.075 3.408,1.17 v 0 l 0.182,0.633 -5.681,1.626 z"
               style="fill:url(#linearGradient876);stroke:none"
               id="path878" /></g></g></g></g><g
       id="g880"><g
         id="g882"><g
           id="g888"><g
             id="g890"><path
               d="m 357.621,596.288 c -0.314,-1.095 0.703,-2.348 2.273,-2.797 v 0 c 1.568,-0.449 3.093,0.076 3.408,1.171 v 0 c 0.313,1.094 -0.704,2.348 -2.272,2.796 v 0 c -0.381,0.109 -0.76,0.161 -1.119,0.161 v 0 c -1.12,0 -2.052,-0.503 -2.29,-1.331"
               style="fill:url(#linearGradient896);stroke:none"
               id="path898" /></g></g></g></g></g></svg>
