<?xml version="1.0" encoding="UTF-8" standalone="no"?>
<svg
   xmlns:dc="http://purl.org/dc/elements/1.1/"
   xmlns:cc="http://creativecommons.org/ns#"
   xmlns:rdf="http://www.w3.org/1999/02/22-rdf-syntax-ns#"
   xmlns:svg="http://www.w3.org/2000/svg"
   xmlns="http://www.w3.org/2000/svg"
   xmlns:sodipodi="http://sodipodi.sourceforge.net/DTD/sodipodi-0.dtd"
   xmlns:inkscape="http://www.inkscape.org/namespaces/inkscape"
   version="1.1"
   id="svg2"
   xml:space="preserve"
   width="478.4808"
   height="299.24915"
   viewBox="0 0 478.4808 299.24915"
   sodipodi:docname="10-20.ai"><metadata
     id="metadata8"><rdf:RDF><cc:Work
         rdf:about=""><dc:format>image/svg+xml</dc:format><dc:type
           rdf:resource="http://purl.org/dc/dcmitype/StillImage" /></cc:Work></rdf:RDF></metadata><defs
     id="defs6"><clipPath
       clipPathUnits="userSpaceOnUse"
       id="clipPath18"><path
         d="M 0,792 H 612 V 0 H 0 Z"
         id="path16" /></clipPath><linearGradient
       x1="0"
       y1="0"
       x2="1"
       y2="0"
       gradientUnits="userSpaceOnUse"
       gradientTransform="matrix(13.09935,-13.492355,-13.492355,-13.09935,212.39697,694.91064)"
       spreadMethod="pad"
       id="linearGradient172"><stop
         style="stop-opacity:1;stop-color:#5ec45b"
         offset="0"
         id="stop168" /><stop
         style="stop-opacity:1;stop-color:#dbf1cb"
         offset="1"
         id="stop170" /></linearGradient><linearGradient
       x1="0"
       y1="0"
       x2="1"
       y2="0"
       gradientUnits="userSpaceOnUse"
       gradientTransform="matrix(12.500702,-12.875763,-12.875763,-12.500702,212.62939,694.67041)"
       spreadMethod="pad"
       id="linearGradient192"><stop
         style="stop-opacity:1;stop-color:#dbf1cb"
         offset="0"
         id="stop188" /><stop
         style="stop-opacity:1;stop-color:#5ec45b"
         offset="1"
         id="stop190" /></linearGradient><clipPath
       clipPathUnits="userSpaceOnUse"
       id="clipPath202"><path
         d="M 0,792 H 612 V 0 H 0 Z"
         id="path200" /></clipPath><linearGradient
       x1="0"
       y1="0"
       x2="1"
       y2="0"
       gradientUnits="userSpaceOnUse"
       gradientTransform="matrix(50.910156,0,0,-50.910156,311.26367,526.6626)"
       spreadMethod="pad"
       id="linearGradient492"><stop
         style="stop-opacity:1;stop-color:#5ec45b"
         offset="0"
         id="stop488" /><stop
         style="stop-opacity:1;stop-color:#dbf1cb"
         offset="1"
         id="stop490" /></linearGradient><linearGradient
       x1="0"
       y1="0"
       x2="1"
       y2="0"
       gradientUnits="userSpaceOnUse"
       gradientTransform="matrix(48.576172,0,0,-48.576172,312.17187,526.6626)"
       spreadMethod="pad"
       id="linearGradient512"><stop
         style="stop-opacity:1;stop-color:#dbf1cb"
         offset="0"
         id="stop508" /><stop
         style="stop-opacity:1;stop-color:#5ec45b"
         offset="1"
         id="stop510" /></linearGradient><clipPath
       clipPathUnits="userSpaceOnUse"
       id="clipPath522"><path
         d="M 0,792 H 612 V 0 H 0 Z"
         id="path520" /></clipPath><linearGradient
       x1="0"
       y1="0"
       x2="1"
       y2="0"
       gradientUnits="userSpaceOnUse"
       gradientTransform="matrix(50.910156,0,0,-50.910156,311.26367,557.83008)"
       spreadMethod="pad"
       id="linearGradient564"><stop
         style="stop-opacity:1;stop-color:#5ec45b"
         offset="0"
         id="stop560" /><stop
         style="stop-opacity:1;stop-color:#dbf1cb"
         offset="1"
         id="stop562" /></linearGradient><linearGradient
       x1="0"
       y1="0"
       x2="1"
       y2="0"
       gradientUnits="userSpaceOnUse"
       gradientTransform="matrix(48.576172,0,0,-48.576172,312.17187,557.82959)"
       spreadMethod="pad"
       id="linearGradient584"><stop
         style="stop-opacity:1;stop-color:#dbf1cb"
         offset="0"
         id="stop580" /><stop
         style="stop-opacity:1;stop-color:#5ec45b"
         offset="1"
         id="stop582" /></linearGradient><clipPath
       clipPathUnits="userSpaceOnUse"
       id="clipPath594"><path
         d="M 0,792 H 612 V 0 H 0 Z"
         id="path592" /></clipPath><linearGradient
       x1="0"
       y1="0"
       x2="1"
       y2="0"
       gradientUnits="userSpaceOnUse"
       gradientTransform="matrix(50.910156,0,0,-50.910156,311.26367,588.99707)"
       spreadMethod="pad"
       id="linearGradient636"><stop
         style="stop-opacity:1;stop-color:#5ec45b"
         offset="0"
         id="stop632" /><stop
         style="stop-opacity:1;stop-color:#dbf1cb"
         offset="1"
         id="stop634" /></linearGradient><linearGradient
       x1="0"
       y1="0"
       x2="1"
       y2="0"
       gradientUnits="userSpaceOnUse"
       gradientTransform="matrix(48.576172,0,0,-48.576172,312.17187,588.99658)"
       spreadMethod="pad"
       id="linearGradient656"><stop
         style="stop-opacity:1;stop-color:#dbf1cb"
         offset="0"
         id="stop652" /><stop
         style="stop-opacity:1;stop-color:#5ec45b"
         offset="1"
         id="stop654" /></linearGradient><clipPath
       clipPathUnits="userSpaceOnUse"
       id="clipPath666"><path
         d="M 0,792 H 612 V 0 H 0 Z"
         id="path664" /></clipPath><clipPath
       clipPathUnits="userSpaceOnUse"
       id="clipPath760"><path
         d="m 219.237,618.461 h 87.066 V 482.82 h -87.066 z"
         id="path758" /></clipPath><linearGradient
       x1="0"
       y1="0"
       x2="1"
       y2="0"
       gradientUnits="userSpaceOnUse"
       gradientTransform="matrix(87.06543,0,0,-87.06543,219.2373,550.64062)"
       spreadMethod="pad"
       id="linearGradient770"><stop
         style="stop-opacity:1;stop-color:#f4f4f4"
         offset="0"
         id="stop766" /><stop
         style="stop-opacity:1;stop-color:#d3d2d2"
         offset="1"
         id="stop768" /></linearGradient></defs><sodipodi:namedview
     pagecolor="#ffffff"
     bordercolor="#666666"
     borderopacity="1"
     objecttolerance="10"
     gridtolerance="10"
     guidetolerance="10"
     inkscape:pageopacity="0"
     inkscape:pageshadow="2"
     inkscape:window-width="640"
     inkscape:window-height="480"
     id="namedview4" /><g
     id="g10"
     inkscape:groupmode="layer"
     inkscape:label="10-20"
     transform="matrix(1.3333333,0,0,-1.3333333,-148.0528,942.02084)"><g
       id="g12"><g
         id="g14"
         clip-path="url(#clipPath18)"><g
           id="g20"
           transform="translate(288.9941,663.8574)"><path
             d="m 0,0 c 0,-1.1 -0.9,-2 -2,-2 h -140.43 c -1.1,0 -2,0.9 -2,2 v 32.833 c 0,1.1 0.9,2 2,2 H -2 c 1.1,0 2,-0.9 2,-2 z"
             style="fill:#feefe9;fill-opacity:1;fill-rule:evenodd;stroke:none"
             id="path22" /></g><text
           transform="matrix(1,0,0,-1,176.4287,685.5742)"
           style="font-variant:normal;font-weight:normal;font-stretch:normal;font-size:11.5px;font-family:Courier;-inkscape-font-specification:Courier;writing-mode:lr-tb;fill:#231f20;fill-opacity:1;fill-rule:nonzero;stroke:none"
           id="text26"><tspan
             x="0 63.054501 78.453003 85.352997 92.252998"
             y="0"
             sodipodi:role="line"
             id="tspan24">74PKH</tspan></text><text
           transform="matrix(1,0,0,-1,275.583,682.5742)"
           style="font-variant:normal;font-weight:normal;font-stretch:normal;font-size:7px;font-family:Courier;-inkscape-font-specification:Courier;writing-mode:lr-tb;fill:#231f20;fill-opacity:1;fill-rule:nonzero;stroke:none"
           id="text30"><tspan
             x="0"
             y="0"
             id="tspan28">x</tspan></text><text
           transform="matrix(1,0,0,-1,239.478,668.5742)"
           style="font-variant:normal;font-weight:normal;font-stretch:normal;font-size:11.5px;font-family:Courier;-inkscape-font-specification:Courier;writing-mode:lr-tb;fill:#231f20;fill-opacity:1;fill-rule:nonzero;stroke:none"
           id="text34"><tspan
             x="0 22.2985 29.1985"
             y="0"
             sodipodi:role="line"
             id="tspan32">3SH</tspan></text><text
           transform="matrix(1,0,0,-1,275.583,665.5742)"
           style="font-variant:normal;font-weight:normal;font-stretch:normal;font-size:7px;font-family:Courier;-inkscape-font-specification:Courier;writing-mode:lr-tb;fill:#231f20;fill-opacity:1;fill-rule:nonzero;stroke:none"
           id="text38"><tspan
             x="0"
             y="0"
             id="tspan36">1</tspan></text><g
           id="g40"
           transform="translate(149.8037,688.8579)"><path
             d="M 0,0 -1.701,1.912 C 1.484,2.89 3.786,2.142 5.64,1.542 7.014,1.094 8.009,0.772 9.375,1.068 c 1.387,0.299 1.869,0.83 2.43,1.445 0.724,0.8 1.547,1.705 4.323,1.973 l 1.35,-1.981 C 15.279,2.293 14.7,1.657 14.03,0.919 13.43,0.259 12.749,-0.489 10.945,-0.879 8.959,-1.307 7.278,-0.76 5.795,-0.281 4.119,0.265 2.534,0.78 0,0"
             style="fill:#f8a45c;fill-opacity:1;fill-rule:nonzero;stroke:none"
             id="path42" /></g><g
           id="g44"
           transform="translate(149.8037,688.8579)"><path
             d="M 0,0 -1.701,1.912 C 1.484,2.89 3.786,2.142 5.64,1.542 7.014,1.094 8.009,0.772 9.375,1.068 c 1.387,0.299 1.869,0.83 2.43,1.445 0.724,0.8 1.547,1.705 4.323,1.973 l 1.35,-1.981 C 15.279,2.293 14.7,1.657 14.03,0.919 13.43,0.259 12.749,-0.489 10.945,-0.879 8.959,-1.307 7.278,-0.76 5.795,-0.281 4.119,0.265 2.534,0.78 0,0 Z"
             style="fill:none;stroke:#231f20;stroke-width:0.3;stroke-linecap:butt;stroke-linejoin:miter;stroke-miterlimit:4;stroke-dasharray:none;stroke-opacity:1"
             id="path46" /></g><g
           id="g48"
           transform="translate(153.1289,687.04)"><path
             d="M 0,0 -1.703,1.912 C 1.481,2.893 3.786,2.144 5.637,1.543 7.014,1.096 8.008,0.771 9.375,1.067 c 1.386,0.3 1.869,0.83 2.429,1.448 0.726,0.799 1.549,1.705 4.322,1.97 L 17.479,2.506 C 15.278,2.293 14.7,1.657 14.029,0.919 13.43,0.26 12.749,-0.489 10.944,-0.878 8.959,-1.307 7.278,-0.762 5.794,-0.279 4.119,0.265 2.534,0.779 0,0"
             style="fill:#f8a45c;fill-opacity:1;fill-rule:nonzero;stroke:none"
             id="path50" /></g><g
           id="g52"
           transform="translate(153.1289,687.04)"><path
             d="M 0,0 -1.703,1.912 C 1.481,2.893 3.786,2.144 5.637,1.543 7.014,1.096 8.008,0.771 9.375,1.067 c 1.386,0.3 1.869,0.83 2.429,1.448 0.726,0.799 1.549,1.705 4.322,1.97 L 17.479,2.506 C 15.278,2.293 14.7,1.657 14.029,0.919 13.43,0.26 12.749,-0.489 10.944,-0.878 8.959,-1.307 7.278,-0.762 5.794,-0.279 4.119,0.265 2.534,0.779 0,0 Z"
             style="fill:none;stroke:#231f20;stroke-width:0.3;stroke-linecap:butt;stroke-linejoin:miter;stroke-miterlimit:4;stroke-dasharray:none;stroke-opacity:1"
             id="path54" /></g><g
           id="g56"
           transform="translate(152.3921,685.0132)"><path
             d="M 0,0 -1.702,1.911 C 1.483,2.893 3.786,2.143 5.641,1.542 7.013,1.097 8.008,0.773 9.375,1.067 c 1.387,0.3 1.868,0.832 2.428,1.449 0.726,0.797 1.549,1.703 4.322,1.97 L 17.479,2.505 C 15.278,2.294 14.701,1.658 14.027,0.918 13.428,0.259 12.749,-0.49 10.945,-0.879 8.96,-1.307 7.28,-0.762 5.795,-0.28 4.12,0.266 2.535,0.78 0,0"
             style="fill:#f8a45c;fill-opacity:1;fill-rule:nonzero;stroke:none"
             id="path58" /></g><g
           id="g60"
           transform="translate(152.3921,685.0132)"><path
             d="M 0,0 -1.702,1.911 C 1.483,2.893 3.786,2.143 5.641,1.542 7.013,1.097 8.008,0.773 9.375,1.067 c 1.387,0.3 1.868,0.832 2.428,1.449 0.726,0.797 1.549,1.703 4.322,1.97 L 17.479,2.505 C 15.278,2.294 14.701,1.658 14.027,0.918 13.428,0.259 12.749,-0.49 10.945,-0.879 8.96,-1.307 7.28,-0.762 5.795,-0.28 4.12,0.266 2.535,0.78 0,0 Z"
             style="fill:none;stroke:#231f20;stroke-width:0.3;stroke-linecap:butt;stroke-linejoin:miter;stroke-miterlimit:4;stroke-dasharray:none;stroke-opacity:1"
             id="path62" /></g><g
           id="g64"
           transform="translate(155.7729,683.2144)"><path
             d="m 0,0 -1.702,1.914 c 3.184,0.978 5.491,0.23 7.341,-0.37 1.376,-0.449 2.369,-0.773 3.736,-0.475 1.386,0.299 1.87,0.83 2.428,1.446 0.728,0.8 1.55,1.704 4.324,1.972 l 1.352,-1.98 C 15.279,2.295 14.7,1.658 14.029,0.92 13.43,0.259 12.751,-0.488 10.946,-0.878 8.96,-1.307 7.28,-0.76 5.795,-0.278 4.119,0.267 2.536,0.781 0,0"
             style="fill:#f8a45c;fill-opacity:1;fill-rule:nonzero;stroke:none"
             id="path66" /></g><g
           id="g68"
           transform="translate(155.7729,683.2144)"><path
             d="m 0,0 -1.702,1.914 c 3.184,0.978 5.491,0.23 7.341,-0.37 1.376,-0.449 2.369,-0.773 3.736,-0.475 1.386,0.299 1.87,0.83 2.428,1.446 0.728,0.8 1.55,1.704 4.324,1.972 l 1.352,-1.98 C 15.279,2.295 14.7,1.658 14.029,0.92 13.43,0.259 12.751,-0.488 10.946,-0.878 8.96,-1.307 7.28,-0.76 5.795,-0.278 4.119,0.267 2.536,0.781 0,0 Z"
             style="fill:none;stroke:#231f20;stroke-width:0.3;stroke-linecap:butt;stroke-linejoin:miter;stroke-miterlimit:4;stroke-dasharray:none;stroke-opacity:1"
             id="path70" /></g><g
           id="g72"
           transform="translate(150.3228,690.9438)"><path
             d="m 0,0 -1.704,1.914 c 3.186,0.98 5.49,0.23 7.342,-0.369 1.375,-0.449 2.368,-0.771 3.737,-0.476 1.386,0.3 1.867,0.83 2.428,1.447 0.726,0.799 1.55,1.705 4.321,1.971 L 17.478,2.506 C 15.277,2.296 14.698,1.658 14.027,0.921 13.427,0.26 12.748,-0.487 10.943,-0.878 8.958,-1.306 7.276,-0.758 5.793,-0.278 4.117,0.266 2.534,0.782 0,0"
             style="fill:#f8a45c;fill-opacity:1;fill-rule:nonzero;stroke:none"
             id="path74" /></g><g
           id="g76"
           transform="translate(150.3228,690.9438)"><path
             d="m 0,0 -1.704,1.914 c 3.186,0.98 5.49,0.23 7.342,-0.369 1.375,-0.449 2.368,-0.771 3.737,-0.476 1.386,0.3 1.867,0.83 2.428,1.447 0.726,0.799 1.55,1.705 4.321,1.971 L 17.478,2.506 C 15.277,2.296 14.698,1.658 14.027,0.921 13.427,0.26 12.748,-0.487 10.943,-0.878 8.958,-1.306 7.276,-0.758 5.793,-0.278 4.117,0.266 2.534,0.782 0,0 Z"
             style="fill:none;stroke:#231f20;stroke-width:0.3;stroke-linecap:butt;stroke-linejoin:miter;stroke-miterlimit:4;stroke-dasharray:none;stroke-opacity:1"
             id="path78" /></g><g
           id="g80"
           transform="translate(150.4307,692.6499)"><path
             d="M 0,0 2.323,0.208 3.335,-0.331 1.821,-0.236 Z"
             style="fill:#231f20;fill-opacity:1;fill-rule:nonzero;stroke:none"
             id="path82" /></g><g
           id="g84"
           transform="translate(156.3701,691.4707)"><path
             d="m 0,0 2.479,-0.936 1.604,0.507 -2.035,0.265 z"
             style="fill:#231f20;fill-opacity:1;fill-rule:nonzero;stroke:none"
             id="path86" /></g><g
           id="g88"
           transform="translate(157.3442,688.4873)"><path
             d="m 0,0 -1.745,0.09 -0.715,-0.486 1.772,0.178 2.267,-0.906 1.424,0.02 -1.962,0.765 z"
             style="fill:#231f20;fill-opacity:1;fill-rule:nonzero;stroke:none"
             id="path90" /></g><g
           id="g92"
           transform="translate(167.6348,688.6812)"><path
             d="m 0,0 c -0.443,-0.045 -1.575,-0.305 -1.575,-0.305 l -0.865,-1.419 1.219,0.862 1.896,0.264 z"
             style="fill:#231f20;fill-opacity:1;fill-rule:nonzero;stroke:none"
             id="path94" /></g><g
           id="g96"
           transform="translate(168.5347,685.1968)"><path
             d="m 0,0 -0.805,-1.017 -1.833,-0.579 1.026,-0.438 1.511,0.619 z"
             style="fill:#231f20;fill-opacity:1;fill-rule:nonzero;stroke:none"
             id="path98" /></g><g
           id="g100"
           transform="translate(160.8638,684.2544)"><path
             d="M 0,0 -1.776,0.539 -3.135,0.204 -1.514,0.096 Z"
             style="fill:#231f20;fill-opacity:1;fill-rule:nonzero;stroke:none"
             id="path102" /></g><g
           id="g104"
           transform="translate(154.9668,686.4492)"><path
             d="m 0,0 -1.008,-0.175 1.406,-0.08 z"
             style="fill:#231f20;fill-opacity:1;fill-rule:nonzero;stroke:none"
             id="path106" /></g><g
           id="g108"
           transform="translate(163.1851,692.5239)"><path
             d="m 0,0 -1.253,-0.347 -1.479,-1.135 2.031,0.449 z"
             style="fill:#f9aeca;fill-opacity:1;fill-rule:evenodd;stroke:none"
             id="path110" /></g><g
           id="g112"
           transform="translate(164.7847,686.3984)"><path
             d="m 0,0 -1.649,-0.807 -0.181,-0.485 1.587,0.406 z"
             style="fill:#f9aeca;fill-opacity:1;fill-rule:evenodd;stroke:none"
             id="path114" /></g><g
           id="g116"
           transform="translate(171.8462,686.9097)"><path
             d="m 0,0 -1.846,-0.678 -0.135,-0.901 1.527,0.72 z"
             style="fill:#f9aeca;fill-opacity:1;fill-rule:evenodd;stroke:none"
             id="path118" /></g><g
           id="g120"
           transform="translate(153.8491,687.0029)"><path
             d="m 0,0 -1.25,-1.062 -0.447,0.671 z"
             style="fill:#f9aeca;fill-opacity:1;fill-rule:evenodd;stroke:none"
             id="path122" /></g><g
           id="g124"
           transform="translate(161.394,689.2871)"><path
             d="M 0,0 -2.265,0.192 -1.04,-0.373 Z"
             style="fill:#96cd56;fill-opacity:1;fill-rule:evenodd;stroke:none"
             id="path126" /></g><g
           id="g128"
           transform="translate(163.6172,683.6938)"><path
             d="m 0,0 -2.113,0.478 c 0,0 1.091,-0.754 1.396,-0.896 0.306,-0.141 2.143,-0.278 2.143,-0.278 z"
             style="fill:#96cd56;fill-opacity:1;fill-rule:evenodd;stroke:none"
             id="path130" /></g><g
           id="g132"
           transform="translate(154.5908,689.0498)"><path
             d="m 0,0 -1.867,-0.064 0.722,-1.012 z"
             style="fill:#96cd56;fill-opacity:1;fill-rule:evenodd;stroke:none"
             id="path134" /></g><g
           id="g136"
           transform="translate(165.7764,694.5327)"><path
             d="m 0,0 -2.092,-0.85 c 0,0 -0.837,-1.217 -0.499,-1.159 0.335,0.058 1.785,0.992 1.785,0.992 z"
             style="fill:#96cd56;fill-opacity:1;fill-rule:evenodd;stroke:none"
             id="path138" /></g><g
           id="g140"
           transform="translate(193.4795,684.7705)"><path
             d="M 0,0 C 0.847,-0.152 1.142,-0.882 1.647,-1.391 1.787,-0.454 2.156,0.24 2.533,0.928 2.525,1.007 2.514,1.084 2.408,1.061 1.743,0.56 0.708,0.453 0,0 M 3.482,2.053 C 3.717,2.094 3.854,2.238 4.054,2.317 4.01,2.513 4.036,2.784 3.865,2.849 3.761,2.558 3.593,2.333 3.482,2.053 M 0.379,2.119 C 0.718,2.868 1.09,3.583 1.458,4.303 0.905,4.455 0.246,4.495 -0.381,4.566 0.005,3.889 0.254,3.071 0.379,2.119 M -3.229,4.503 C -3.481,4.047 -3.58,3.451 -3.736,2.849 -3.877,2.312 -3.914,1.56 -4.372,1.325 c -0.16,0.904 0.41,2.11 0.636,3.044 -1.723,-0.349 -3.159,-1.651 -3.106,-3.575 0.04,-1.423 1.106,-1.932 2.596,-1.92 3.164,0.028 5.475,2.859 3.358,5.692 C -1.513,4.693 -2.414,4.545 -3.229,4.503 M -3.104,4.9 c 0.56,0.12 1.3,0.053 1.837,0.198 C -1.724,5.546 -2.1,6.08 -2.47,6.621 -2.633,5.994 -2.912,5.492 -3.104,4.9 M 4.308,4.503 C 4.692,5.49 5.442,6.449 5.701,7.349 5.116,6.57 4.354,5.622 4.308,4.503 m 7.156,5.56 C 9.727,9.917 7.629,9.361 6.714,8.277 6.168,7.63 5.906,6.671 5.447,5.827 4.972,4.948 3.813,3.565 4.434,2.582 c 2.586,1.585 5.193,3.234 7.473,5.097 0.732,0.598 1.626,1.29 1.966,2.251 -0.752,0.295 -1.609,0.199 -2.409,0.133 M 4.813,2.317 C 6.313,1.635 7.548,2.883 8.804,3.111 9.112,2.766 8.756,2.056 8.932,1.654 9.842,0.996 11.613,1.236 12.288,0.331 11.887,0.015 11.347,0.531 10.64,0.728 9.422,1.069 8.092,0.86 8.55,2.648 7.461,2.137 5.635,1.183 4.371,2.053 3.945,1.836 3.585,1.549 3.103,1.391 2.6,0.327 2.182,-0.824 1.773,-1.987 c -0.879,0.317 -0.908,1.524 -1.962,1.655 -0.174,-0.26 -0.235,-0.637 -0.317,-0.992 0.246,-0.068 0.511,0.73 0.885,0.53 0.033,-0.508 -0.539,-0.932 -1.013,-1.126 -0.523,0.333 -0.118,1.083 0,1.656 -0.802,-0.639 -2.423,-1.35 -3.991,-1.258 -0.604,0.034 -1.375,0.184 -1.837,0.53 -1.147,0.86 -0.841,3.114 -0.063,4.169 0.721,0.98 1.755,1.329 2.914,1.656 0.353,0.579 0.541,1.333 0.823,1.985 0.358,0.027 0.453,0.095 0.569,0.464 1.875,0.733 4.041,1.161 5.575,2.253 C 1.411,9.174 -0.722,8.524 -2.725,7.945 -3.36,7.761 -4,7.429 -4.625,7.548 c 0.072,0.393 0.596,0.441 0.889,0.528 1.003,0.301 2.125,0.61 3.23,0.927 1.433,0.412 2.971,1.001 4.434,0.862 C 3.963,9.173 3.239,8.975 2.787,8.738 1.408,8.021 -0.481,7.507 -2.027,6.885 -1.771,6.026 -1.138,5.565 -0.634,4.966 0.197,4.972 0.882,4.83 1.583,4.701 2.337,5.613 2.959,6.839 3.673,7.877 3.866,8.159 4.127,8.634 4.497,8.605 4.377,7.835 3.73,7.279 3.293,6.621 2.856,5.963 2.49,5.239 2.091,4.566 2.559,4.241 3.32,4.22 3.482,3.574 2.91,3.446 2.525,4.069 1.962,4.17 1.15,3.19 0.714,1.813 0.125,0.597 1.179,0.797 1.954,1.292 2.85,1.654 3.208,2.482 3.706,3.013 3.799,4.17 3.968,6.247 5.238,7.465 6.462,8.539 6.524,8.871 6.722,9.063 6.841,9.333 7.086,9.391 7.066,9.173 7.22,9.136 c 1.29,0.932 3.675,1.564 5.828,1.391 0.389,-0.033 1.277,-0.141 1.266,-0.662 C 14.299,9.026 12.962,8.06 12.353,7.548 10.104,5.664 7.057,3.733 4.813,2.317"
             style="fill:#2c81ab;fill-opacity:1;fill-rule:evenodd;stroke:none"
             id="path142" /></g><g
           id="g144"
           transform="translate(225.5176,683.5459)"><path
             d="m 0,0 -6.42,6.613 c 0.688,1.511 0.42,3.36 -0.818,4.633 -1.608,1.658 -4.242,1.712 -5.883,0.119 -0.033,-0.033 -0.065,-0.07 -0.096,-0.105 -0.037,-0.033 -0.074,-0.062 -0.109,-0.095 -1.64,-1.591 -1.665,-4.227 -0.057,-5.883 1.149,-1.18 2.813,-1.543 4.27,-1.08 L -8.576,3.65 c 0.32,0.238 0.822,0.166 1.162,-0.185 0.34,-0.351 0.394,-0.852 0.15,-1.166 l 0.588,-0.608 c 0.322,0.238 0.821,0.166 1.162,-0.185 0.342,-0.351 0.397,-0.852 0.151,-1.165 l 0.59,-0.609 c 0.32,0.237 0.82,0.166 1.162,-0.184 0.341,-0.352 0.396,-0.853 0.148,-1.166 l 0.41,-0.423 3.297,0.175 0.209,0.2 z"
             style="fill:none;stroke:#231f20;stroke-width:1;stroke-linecap:butt;stroke-linejoin:round;stroke-miterlimit:4;stroke-dasharray:none;stroke-opacity:1"
             id="path146" /></g><g
           id="g148"
           transform="translate(225.9707,681.8799)"><path
             d="m 0,0 -7.078,8.079 c 0.687,1.509 0.42,3.36 -0.818,4.634 -1.61,1.657 -4.243,1.711 -5.883,0.118 -1.64,-1.591 -1.665,-4.227 -0.057,-5.883 1.148,-1.18 2.813,-1.543 4.27,-1.08 l 0.537,-0.552 c 0.32,0.238 0.822,0.166 1.162,-0.185 0.34,-0.351 0.394,-0.852 0.15,-1.166 l 0.588,-0.608 c 0.322,0.238 0.82,0.166 1.162,-0.185 0.342,-0.351 0.397,-0.852 0.151,-1.165 l 0.589,-0.609 c 0.321,0.237 0.821,0.166 1.163,-0.184 0.341,-0.352 0.396,-0.853 0.148,-1.166 l 0.41,-0.423 3.297,0.175 z"
             style="fill:#278a2f;fill-opacity:1;fill-rule:nonzero;stroke:none"
             id="path150" /></g><g
           id="g152"
           transform="translate(225.9707,681.8799)"><path
             d="m 0,0 -7.078,8.079 c 0.687,1.509 0.42,3.36 -0.818,4.634 -1.61,1.657 -4.243,1.711 -5.883,0.118 -1.64,-1.591 -1.665,-4.227 -0.057,-5.883 1.148,-1.18 2.813,-1.543 4.27,-1.08 l 0.537,-0.552 c 0.32,0.238 0.822,0.166 1.162,-0.185 0.34,-0.351 0.394,-0.852 0.15,-1.166 l 0.588,-0.608 c 0.322,0.238 0.82,0.166 1.162,-0.185 0.342,-0.351 0.397,-0.852 0.151,-1.165 l 0.589,-0.609 c 0.321,0.237 0.821,0.166 1.163,-0.184 0.341,-0.352 0.396,-0.853 0.148,-1.166 l 0.41,-0.423 3.297,0.175 z"
             style="fill:none;stroke:#278a2f;stroke-width:0.3;stroke-linecap:butt;stroke-linejoin:round;stroke-miterlimit:4;stroke-dasharray:none;stroke-opacity:1"
             id="path154" /></g></g></g><g
       id="g156"><g
         id="g158"><g
           id="g164"><g
             id="g166"><path
               d="m 212.396,694.911 c -1.639,-1.591 -1.664,-4.228 -0.055,-5.884 v 0 c 1.147,-1.18 2.813,-1.542 4.27,-1.079 v 0 l 0.536,-0.551 c 0.322,0.235 0.821,0.164 1.162,-0.186 v 0 c 0.34,-0.351 0.396,-0.851 0.15,-1.166 v 0 l 0.59,-0.608 c 0.32,0.237 0.818,0.166 1.162,-0.185 v 0 c 0.339,-0.35 0.394,-0.851 0.149,-1.166 v 0 l 0.591,-0.609 c 0.319,0.238 0.821,0.167 1.163,-0.184 v 0 c 0.337,-0.35 0.392,-0.851 0.147,-1.165 v 0 l 0.411,-0.424 3.299,0.176 -0.453,1.665 -6.42,6.615 c 0.687,1.51 0.419,3.358 -0.818,4.632 v 0 c -0.825,0.851 -1.921,1.279 -3.014,1.28 v 0 c -1.037,0 -2.071,-0.386 -2.87,-1.161"
               style="fill:url(#linearGradient172);stroke:none"
               id="path174" /></g></g></g></g><g
       id="g176"><g
         id="g178"><g
           id="g184"><g
             id="g186"><path
               d="m 212.629,694.671 c -1.503,-1.462 -1.526,-3.888 -0.049,-5.41 v 0 c 1.03,-1.057 2.533,-1.438 3.928,-0.993 v 0 l 0.199,0.063 0.508,-0.524 c 0.434,0.151 0.963,0.019 1.334,-0.363 v 0 c 0.373,-0.382 0.488,-0.916 0.322,-1.343 v 0 l 0.244,-0.252 c 0.435,0.151 0.965,0.018 1.335,-0.364 v 0 c 0.37,-0.382 0.487,-0.917 0.324,-1.344 v 0 l 0.244,-0.252 c 0.433,0.153 0.962,0.02 1.333,-0.362 v 0 c 0.374,-0.381 0.489,-0.917 0.325,-1.344 v 0 l 0.131,-0.136 2.732,0.147 -0.322,1.181 -6.518,6.714 0.094,0.208 c 0.656,1.441 0.36,3.117 -0.752,4.262 v 0 c -0.759,0.782 -1.769,1.176 -2.776,1.176 v 0 c -0.953,0 -1.904,-0.353 -2.636,-1.064"
               style="fill:url(#linearGradient192);stroke:none"
               id="path194" /></g></g></g></g><g
       id="g196"><g
         id="g198"
         clip-path="url(#clipPath202)"><g
           id="g204"
           transform="translate(217.6133,689.5391)"><path
             d="m 0,0 c -1.311,-1.271 -3.402,-1.24 -4.674,0.068 -1.271,1.31 -1.24,3.403 0.07,4.674 1.307,1.273 3.401,1.239 4.672,-0.069 C 1.34,3.363 1.309,1.271 0,0"
             style="fill:#ffffff;fill-opacity:1;fill-rule:nonzero;stroke:none"
             id="path206" /></g><text
           transform="matrix(0.69656686,-0.71749189,-0.71749189,-0.69656686,212.0904,693.3401)"
           style="font-variant:normal;font-weight:normal;font-stretch:normal;font-size:3.67502px;font-family:Arial;-inkscape-font-specification:ArialMT;writing-mode:lr-tb;fill:#231f20;fill-opacity:1;fill-rule:nonzero;stroke:none"
           id="text210"><tspan
             x="0 2.451241 4.4945545"
             y="0"
             sodipodi:role="line"
             id="tspan208">Pub</tspan></text><g
           id="g212"
           transform="translate(229.3242,698.5513)"><path
             d="M 0,0 V -36.671"
             style="fill:none;stroke:#656263;stroke-width:0.5;stroke-linecap:butt;stroke-linejoin:miter;stroke-miterlimit:4;stroke-dasharray:none;stroke-opacity:1"
             id="path214" /></g><g
           id="g216"
           transform="translate(288.9941,663.8574)"><path
             d="m 0,0 c 0,-1.1 -0.9,-2 -2,-2 h -140.43 c -1.1,0 -2,0.9 -2,2 v 32.833 c 0,1.1 0.9,2 2,2 H -2 c 1.1,0 2,-0.9 2,-2 z"
             style="fill:none;stroke:#d91920;stroke-width:1;stroke-linecap:butt;stroke-linejoin:round;stroke-miterlimit:4;stroke-dasharray:none;stroke-opacity:1"
             id="path218" /></g><g
           id="g220"
           transform="translate(464.5,646.667)"><path
             d="m 0,0 c 0,-1.1 -0.9,-2 -2,-2 h -156.1 c -1.099,0 -2,0.9 -2,2 v 32.833 c 0,1.1 0.901,2 2,2 H -2 c 1.1,0 2,-0.9 2,-2 z"
             style="fill:#feefe9;fill-opacity:1;fill-rule:evenodd;stroke:none"
             id="path222" /></g><text
           transform="matrix(1,0,0,-1,336.7153,668.3818)"
           style="font-variant:normal;font-weight:normal;font-stretch:normal;font-size:11.5px;font-family:Courier;-inkscape-font-specification:Courier;writing-mode:lr-tb;fill:#231f20;fill-opacity:1;fill-rule:nonzero;stroke:none"
           id="text226"><tspan
             x="0 6.9000001"
             y="0"
             sodipodi:role="line"
             id="tspan224">1 </tspan></text><text
           transform="matrix(1,0,0,-1,350.5181,668.3818)"
           style="font-variant:normal;font-weight:normal;font-stretch:normal;font-size:8px;font-family:Courier;-inkscape-font-specification:Courier;writing-mode:lr-tb;fill:#231f20;fill-opacity:1;fill-rule:nonzero;stroke:none"
           id="text230"><tspan
             x="0 4.8000002 9.6000004 14.4 19.200001 24 28.799999 33.599998 38.400002 43.200001"
             y="0"
             sodipodi:role="line"
             id="tspan228">sig-script</tspan></text><text
           transform="matrix(1,0,0,-1,414.9844,668.3818)"
           style="font-variant:normal;font-weight:normal;font-stretch:normal;font-size:11.5px;font-family:Courier;-inkscape-font-specification:Courier;writing-mode:lr-tb;fill:#231f20;fill-opacity:1;fill-rule:nonzero;stroke:none"
           id="text234"><tspan
             x="0 15.3985 22.2985 29.1985"
             y="0"
             sodipodi:role="line"
             id="tspan232">1PKH</tspan></text><text
           transform="matrix(1,0,0,-1,451.0894,665.3818)"
           style="font-variant:normal;font-weight:normal;font-stretch:normal;font-size:7px;font-family:Courier;-inkscape-font-specification:Courier;writing-mode:lr-tb;fill:#231f20;fill-opacity:1;fill-rule:nonzero;stroke:none"
           id="text238"><tspan
             x="0"
             y="0"
             id="tspan236">Y</tspan></text><g
           id="g240"
           transform="translate(309.6406,671.6675)"><path
             d="m 0,0 -1.701,1.912 c 3.184,0.978 5.486,0.23 7.34,-0.37 1.375,-0.448 2.369,-0.77 3.736,-0.474 1.387,0.299 1.869,0.83 2.43,1.445 0.724,0.8 1.547,1.705 4.323,1.973 l 1.35,-1.981 C 15.278,2.293 14.699,1.657 14.029,0.919 13.43,0.259 12.748,-0.489 10.945,-0.879 8.959,-1.307 7.277,-0.76 5.795,-0.281 4.119,0.265 2.533,0.78 0,0"
             style="fill:#f8a45c;fill-opacity:1;fill-rule:nonzero;stroke:none"
             id="path242" /></g><g
           id="g244"
           transform="translate(309.6406,671.6675)"><path
             d="m 0,0 -1.701,1.912 c 3.184,0.978 5.486,0.23 7.34,-0.37 1.375,-0.448 2.369,-0.77 3.736,-0.474 1.387,0.299 1.869,0.83 2.43,1.445 0.724,0.8 1.547,1.705 4.323,1.973 l 1.35,-1.981 C 15.278,2.293 14.699,1.657 14.029,0.919 13.43,0.259 12.748,-0.489 10.945,-0.879 8.959,-1.307 7.277,-0.76 5.795,-0.281 4.119,0.265 2.533,0.78 0,0 Z"
             style="fill:none;stroke:#231f20;stroke-width:0.3;stroke-linecap:butt;stroke-linejoin:miter;stroke-miterlimit:4;stroke-dasharray:none;stroke-opacity:1"
             id="path246" /></g><g
           id="g248"
           transform="translate(312.9648,669.8496)"><path
             d="m 0,0 -1.702,1.912 c 3.183,0.981 5.489,0.232 7.34,-0.369 1.376,-0.447 2.37,-0.772 3.738,-0.476 1.386,0.3 1.868,0.83 2.429,1.448 0.725,0.799 1.549,1.705 4.322,1.97 L 17.479,2.506 C 15.279,2.293 14.7,1.657 14.029,0.919 13.43,0.26 12.75,-0.489 10.944,-0.878 8.959,-1.307 7.279,-0.762 5.795,-0.279 4.119,0.265 2.535,0.779 0,0"
             style="fill:#f8a45c;fill-opacity:1;fill-rule:nonzero;stroke:none"
             id="path250" /></g><g
           id="g252"
           transform="translate(312.9648,669.8496)"><path
             d="m 0,0 -1.702,1.912 c 3.183,0.981 5.489,0.232 7.34,-0.369 1.376,-0.447 2.37,-0.772 3.738,-0.476 1.386,0.3 1.868,0.83 2.429,1.448 0.725,0.799 1.549,1.705 4.322,1.97 L 17.479,2.506 C 15.279,2.293 14.7,1.657 14.029,0.919 13.43,0.26 12.75,-0.489 10.944,-0.878 8.959,-1.307 7.279,-0.762 5.795,-0.279 4.119,0.265 2.535,0.779 0,0 Z"
             style="fill:none;stroke:#231f20;stroke-width:0.3;stroke-linecap:butt;stroke-linejoin:miter;stroke-miterlimit:4;stroke-dasharray:none;stroke-opacity:1"
             id="path254" /></g><g
           id="g256"
           transform="translate(312.2285,667.8228)"><path
             d="M 0,0 -1.702,1.911 C 1.482,2.893 3.786,2.143 5.641,1.542 7.014,1.097 8.008,0.773 9.375,1.067 c 1.387,0.3 1.868,0.832 2.428,1.449 0.726,0.797 1.549,1.703 4.322,1.97 L 17.479,2.505 C 15.277,2.294 14.701,1.658 14.027,0.918 13.428,0.259 12.749,-0.49 10.945,-0.879 8.96,-1.307 7.279,-0.762 5.795,-0.28 4.12,0.266 2.535,0.78 0,0"
             style="fill:#f8a45c;fill-opacity:1;fill-rule:nonzero;stroke:none"
             id="path258" /></g><g
           id="g260"
           transform="translate(312.2285,667.8228)"><path
             d="M 0,0 -1.702,1.911 C 1.482,2.893 3.786,2.143 5.641,1.542 7.014,1.097 8.008,0.773 9.375,1.067 c 1.387,0.3 1.868,0.832 2.428,1.449 0.726,0.797 1.549,1.703 4.322,1.97 L 17.479,2.505 C 15.277,2.294 14.701,1.658 14.027,0.918 13.428,0.259 12.749,-0.49 10.945,-0.879 8.96,-1.307 7.279,-0.762 5.795,-0.28 4.12,0.266 2.535,0.78 0,0 Z"
             style="fill:none;stroke:#231f20;stroke-width:0.3;stroke-linecap:butt;stroke-linejoin:miter;stroke-miterlimit:4;stroke-dasharray:none;stroke-opacity:1"
             id="path262" /></g><g
           id="g264"
           transform="translate(315.6094,666.0239)"><path
             d="m 0,0 -1.701,1.914 c 3.183,0.978 5.49,0.23 7.34,-0.37 1.377,-0.449 2.369,-0.773 3.736,-0.475 1.387,0.299 1.87,0.83 2.428,1.446 0.728,0.8 1.551,1.704 4.324,1.972 l 1.352,-1.98 C 15.279,2.295 14.7,1.658 14.029,0.92 13.43,0.259 12.751,-0.488 10.945,-0.878 8.961,-1.307 7.28,-0.76 5.795,-0.278 4.119,0.267 2.535,0.781 0,0"
             style="fill:#f8a45c;fill-opacity:1;fill-rule:nonzero;stroke:none"
             id="path266" /></g><g
           id="g268"
           transform="translate(315.6094,666.0239)"><path
             d="m 0,0 -1.701,1.914 c 3.183,0.978 5.49,0.23 7.34,-0.37 1.377,-0.449 2.369,-0.773 3.736,-0.475 1.387,0.299 1.87,0.83 2.428,1.446 0.728,0.8 1.551,1.704 4.324,1.972 l 1.352,-1.98 C 15.279,2.295 14.7,1.658 14.029,0.92 13.43,0.259 12.751,-0.488 10.945,-0.878 8.961,-1.307 7.28,-0.76 5.795,-0.278 4.119,0.267 2.535,0.781 0,0 Z"
             style="fill:none;stroke:#231f20;stroke-width:0.3;stroke-linecap:butt;stroke-linejoin:miter;stroke-miterlimit:4;stroke-dasharray:none;stroke-opacity:1"
             id="path270" /></g><g
           id="g272"
           transform="translate(310.1592,673.7534)"><path
             d="m 0,0 -1.704,1.914 c 3.185,0.98 5.49,0.23 7.342,-0.369 1.375,-0.449 2.369,-0.771 3.737,-0.476 1.386,0.3 1.866,0.83 2.428,1.447 0.725,0.799 1.55,1.705 4.321,1.971 L 17.478,2.506 C 15.277,2.296 14.698,1.658 14.027,0.921 13.427,0.26 12.747,-0.487 10.943,-0.878 8.958,-1.306 7.276,-0.758 5.794,-0.278 4.116,0.266 2.534,0.782 0,0"
             style="fill:#f8a45c;fill-opacity:1;fill-rule:nonzero;stroke:none"
             id="path274" /></g><g
           id="g276"
           transform="translate(310.1592,673.7534)"><path
             d="m 0,0 -1.704,1.914 c 3.185,0.98 5.49,0.23 7.342,-0.369 1.375,-0.449 2.369,-0.771 3.737,-0.476 1.386,0.3 1.866,0.83 2.428,1.447 0.725,0.799 1.55,1.705 4.321,1.971 L 17.478,2.506 C 15.277,2.296 14.698,1.658 14.027,0.921 13.427,0.26 12.747,-0.487 10.943,-0.878 8.958,-1.306 7.276,-0.758 5.794,-0.278 4.116,0.266 2.534,0.782 0,0 Z"
             style="fill:none;stroke:#231f20;stroke-width:0.3;stroke-linecap:butt;stroke-linejoin:miter;stroke-miterlimit:4;stroke-dasharray:none;stroke-opacity:1"
             id="path278" /></g><g
           id="g280"
           transform="translate(310.2676,675.4595)"><path
             d="M 0,0 2.322,0.208 3.334,-0.331 1.82,-0.236 Z"
             style="fill:#231f20;fill-opacity:1;fill-rule:nonzero;stroke:none"
             id="path282" /></g><g
           id="g284"
           transform="translate(316.207,674.2803)"><path
             d="m 0,0 2.479,-0.936 1.603,0.507 -2.034,0.265 z"
             style="fill:#231f20;fill-opacity:1;fill-rule:nonzero;stroke:none"
             id="path286" /></g><g
           id="g288"
           transform="translate(317.1807,671.2969)"><path
             d="m 0,0 -1.745,0.09 -0.715,-0.486 1.772,0.178 2.267,-0.906 1.424,0.02 -1.962,0.765 z"
             style="fill:#231f20;fill-opacity:1;fill-rule:nonzero;stroke:none"
             id="path290" /></g><g
           id="g292"
           transform="translate(327.4707,671.4907)"><path
             d="m 0,0 c -0.443,-0.045 -1.574,-0.305 -1.574,-0.305 l -0.865,-1.419 1.218,0.862 1.897,0.264 z"
             style="fill:#231f20;fill-opacity:1;fill-rule:nonzero;stroke:none"
             id="path294" /></g><g
           id="g296"
           transform="translate(328.3711,668.0063)"><path
             d="m 0,0 -0.805,-1.017 -1.834,-0.579 1.028,-0.438 1.509,0.619 z"
             style="fill:#231f20;fill-opacity:1;fill-rule:nonzero;stroke:none"
             id="path298" /></g><g
           id="g300"
           transform="translate(320.7002,667.064)"><path
             d="M 0,0 -1.776,0.539 -3.136,0.204 -1.515,0.096 Z"
             style="fill:#231f20;fill-opacity:1;fill-rule:nonzero;stroke:none"
             id="path302" /></g><g
           id="g304"
           transform="translate(314.8027,669.2588)"><path
             d="m 0,0 -1.008,-0.175 1.406,-0.08 z"
             style="fill:#231f20;fill-opacity:1;fill-rule:nonzero;stroke:none"
             id="path306" /></g><g
           id="g308"
           transform="translate(323.0215,675.3335)"><path
             d="m 0,0 -1.253,-0.347 -1.479,-1.135 2.031,0.449 z"
             style="fill:#f9aeca;fill-opacity:1;fill-rule:evenodd;stroke:none"
             id="path310" /></g><g
           id="g312"
           transform="translate(324.6211,669.208)"><path
             d="m 0,0 -1.649,-0.807 -0.181,-0.485 1.588,0.406 z"
             style="fill:#f9aeca;fill-opacity:1;fill-rule:evenodd;stroke:none"
             id="path314" /></g><g
           id="g316"
           transform="translate(331.6826,669.7192)"><path
             d="m 0,0 -1.847,-0.678 -0.134,-0.901 1.527,0.72 z"
             style="fill:#f9aeca;fill-opacity:1;fill-rule:evenodd;stroke:none"
             id="path318" /></g><g
           id="g320"
           transform="translate(313.6855,669.8125)"><path
             d="m 0,0 -1.25,-1.062 -0.447,0.671 z"
             style="fill:#f9aeca;fill-opacity:1;fill-rule:evenodd;stroke:none"
             id="path322" /></g><g
           id="g324"
           transform="translate(321.2305,672.0967)"><path
             d="m 0,0 -2.265,0.192 1.226,-0.565 z"
             style="fill:#96cd56;fill-opacity:1;fill-rule:evenodd;stroke:none"
             id="path326" /></g><g
           id="g328"
           transform="translate(323.4531,666.5034)"><path
             d="m 0,0 -2.112,0.478 c 0,0 1.091,-0.754 1.395,-0.896 0.307,-0.141 2.143,-0.278 2.143,-0.278 z"
             style="fill:#96cd56;fill-opacity:1;fill-rule:evenodd;stroke:none"
             id="path330" /></g><g
           id="g332"
           transform="translate(314.4277,671.8594)"><path
             d="m 0,0 -1.867,-0.064 0.722,-1.012 z"
             style="fill:#96cd56;fill-opacity:1;fill-rule:evenodd;stroke:none"
             id="path334" /></g><g
           id="g336"
           transform="translate(325.6133,677.3423)"><path
             d="m 0,0 -2.093,-0.85 c 0,0 -0.837,-1.217 -0.499,-1.159 0.336,0.058 1.785,0.992 1.785,0.992 z"
             style="fill:#96cd56;fill-opacity:1;fill-rule:evenodd;stroke:none"
             id="path338" /></g><g
           id="g340"
           transform="translate(404.8301,681.3608)"><path
             d="M 0,0 V -36.671"
             style="fill:none;stroke:#656263;stroke-width:0.5;stroke-linecap:butt;stroke-linejoin:miter;stroke-miterlimit:4;stroke-dasharray:none;stroke-opacity:1"
             id="path342" /></g><g
           id="g344"
           transform="translate(464.5,646.667)"><path
             d="m 0,0 c 0,-1.1 -0.9,-2 -2,-2 h -156.1 c -1.099,0 -2,0.9 -2,2 v 32.833 c 0,1.1 0.901,2 2,2 H -2 c 1.1,0 2,-0.9 2,-2 z"
             style="fill:none;stroke:#d91920;stroke-width:1;stroke-linecap:butt;stroke-linejoin:round;stroke-miterlimit:4;stroke-dasharray:none;stroke-opacity:1"
             id="path346" /></g><g
           id="g348"
           transform="translate(293.8682,672.1074)"><path
             d="M 0,0 H 15.325"
             style="fill:none;stroke:#231f20;stroke-width:0.5;stroke-linecap:butt;stroke-linejoin:miter;stroke-miterlimit:4;stroke-dasharray:none;stroke-opacity:1"
             id="path350" /></g><g
           id="g352"
           transform="translate(292.0557,671.5059)"><path
             d="M 0,0 C 0.951,-0.283 1.57,-0.547 2.334,-0.85 L 2.324,2.053 C 2.053,1.922 0.945,1.477 -0.002,1.186 -1.02,0.873 -1.941,0.662 -2.539,0.584 -1.939,0.512 -1.016,0.303 0,0"
             style="fill:#231f20;fill-opacity:1;fill-rule:nonzero;stroke:none"
             id="path354" /></g><text
           transform="matrix(1,0,0,-1,414.9839,651.3848)"
           style="font-variant:normal;font-weight:normal;font-stretch:normal;font-size:11.5px;font-family:Courier;-inkscape-font-specification:Courier;writing-mode:lr-tb;fill:#231f20;fill-opacity:1;fill-rule:nonzero;stroke:none"
           id="text358"><tspan
             x="0 22.2985 29.1985"
             y="0"
             sodipodi:role="line"
             id="tspan356">2SH</tspan></text><text
           transform="matrix(1,0,0,-1,451.0898,648.3848)"
           style="font-variant:normal;font-weight:normal;font-stretch:normal;font-size:7px;font-family:Courier;-inkscape-font-specification:Courier;writing-mode:lr-tb;fill:#231f20;fill-opacity:1;fill-rule:nonzero;stroke:none"
           id="text362"><tspan
             x="0"
             y="0"
             id="tspan360">2</tspan></text><g
           id="g364"
           transform="translate(284.8452,670.7021)"><path
             d="m 0,0 c 0,-3.918 -5.882,-7.094 -13.138,-7.094 -7.255,0 -13.134,3.176 -13.134,7.094 0,3.916 5.879,7.093 13.134,7.093 C -5.882,7.093 0,3.916 0,0 Z"
             style="fill:none;stroke:#db1921;stroke-width:0.5;stroke-linecap:butt;stroke-linejoin:round;stroke-miterlimit:10;stroke-dasharray:none;stroke-opacity:1"
             id="path366" /></g><text
           transform="matrix(1,0,0,-1,162.7168,640.2007)"
           style="font-variant:normal;font-weight:bold;font-stretch:condensed;font-size:9px;font-family:'Humanst521 Cn BT';-inkscape-font-specification:Humanist521BT-BoldCondensed;writing-mode:lr-tb;fill:#231f20;fill-opacity:1;fill-rule:nonzero;stroke:none"
           id="text380"><tspan
             x="0 3.96 8.4689999 12.429 16.910999 21.42 25.379999"
             y="0"
             sodipodi:role="line"
             id="tspan368">Spender</tspan><tspan
             x="0 3.438 6.8309999 10.881 15.363 18.864 22.914 27.099001 30.096001 32.229 36.576"
             y="9.5039997"
             sodipodi:role="line"
             id="tspan370">Transaktion</tspan><tspan
             x="58.518002 62.478001 66.987 70.946999 75.429001 79.938004 83.898003"
             y="0"
             sodipodi:role="line"
             id="tspan372">Spenden</tspan><tspan
             x="58.518002 63.792 68.274002 71.271004 75.779999 80.262001"
             y="9.5039997"
             sodipodi:role="line"
             id="tspan374">Output</tspan><tspan
             x="143.20799 147.834 152.31599 156.825 161.00999 164.97"
             y="-60.084"
             sodipodi:role="line"
             id="tspan376">Pubkey</tspan><tspan
             x="143.20799 147.168 150.76801 154.161 156.29401 160.80299"
             y="-50.580002"
             sodipodi:role="line"
             id="tspan378">Script</tspan></text><g
           id="g382"
           transform="translate(182.98,657.3774)"><path
             d="M 0,0 C 0,-4.294 -2.9,-5.099 -2.9,-10.044"
             style="fill:none;stroke:#231f20;stroke-width:0.3;stroke-linecap:butt;stroke-linejoin:miter;stroke-miterlimit:10;stroke-dasharray:none;stroke-opacity:1"
             id="path384" /></g><g
           id="g386"
           transform="translate(181.1206,656.8306)"><path
             d="M 0,0 1.87,3.238 3.74,0 Z"
             style="fill:#231f20;fill-opacity:1;fill-rule:nonzero;stroke:none"
             id="path388" /></g><g
           id="g390"
           transform="translate(242.8301,664.5)"><path
             d="M 0,0 C 0,-6.833 -6.497,-10.167 -6.497,-16.226"
             style="fill:none;stroke:#231f20;stroke-width:0.3;stroke-linecap:butt;stroke-linejoin:miter;stroke-miterlimit:10;stroke-dasharray:none;stroke-opacity:1"
             id="path392" /></g><g
           id="g394"
           transform="translate(240.9707,663.9531)"><path
             d="M 0,0 1.87,3.238 3.739,0 Z"
             style="fill:#231f20;fill-opacity:1;fill-rule:nonzero;stroke:none"
             id="path396" /></g><text
           transform="matrix(1,0,0,-1,427.9717,621.8281)"
           style="font-variant:normal;font-weight:bold;font-stretch:condensed;font-size:9px;font-family:'Humanst521 Cn BT';-inkscape-font-specification:Humanist521BT-BoldCondensed;writing-mode:lr-tb;fill:#231f20;fill-opacity:1;fill-rule:nonzero;stroke:none"
           id="text400"><tspan
             x="0 4.4369998 8.9280005 12.978 17.459999 21.563999"
             y="0"
             sodipodi:role="line"
             id="tspan398">Change</tspan></text><g
           id="g402"
           transform="translate(444.9551,647.166)"><path
             d="M 0,0 C 0,-5.306 -3.816,-14.071 -3.816,-19.017"
             style="fill:none;stroke:#231f20;stroke-width:0.3;stroke-linecap:butt;stroke-linejoin:miter;stroke-miterlimit:10;stroke-dasharray:none;stroke-opacity:1"
             id="path404" /></g><g
           id="g406"
           transform="translate(443.0957,646.6191)"><path
             d="M 0,0 1.869,3.238 3.739,0 Z"
             style="fill:#231f20;fill-opacity:1;fill-rule:nonzero;stroke:none"
             id="path408" /></g><text
           transform="matrix(1,0,0,-1,354.0264,700.2886)"
           style="font-variant:normal;font-weight:bold;font-stretch:condensed;font-size:9px;font-family:'Humanst521 Cn BT';-inkscape-font-specification:Humanist521BT-BoldCondensed;writing-mode:lr-tb;fill:#231f20;fill-opacity:1;fill-rule:nonzero;stroke:none"
           id="text412"><tspan
             x="0 4.0500002 8.1000004 10.233 13.815 17.865 20.169001 24.650999 29.132999 33.641998 35.945999 38.501999 42.848999 47.34 51.821999 54.125999 58.23 62.189999 66.698997 70.658997"
             y="0"
             sodipodi:role="line"
             id="tspan410">Faiza und John geben</tspan></text><text
           transform="matrix(1,0,0,-1,354.0264,690.7886)"
           style="font-variant:normal;font-weight:bold;font-stretch:normal;font-size:8.5px;font-family:Arial;-inkscape-font-specification:Arial-BoldMT;writing-mode:lr-tb;fill:#231f20;fill-opacity:1;fill-rule:nonzero;stroke:none"
           id="text416"><tspan
             x="0"
             y="0"
             id="tspan414">1</tspan></text><text
           transform="matrix(1,0,0,-1,361.0574,690.7886)"
           style="font-variant:normal;font-weight:bold;font-stretch:condensed;font-size:9px;font-family:'Humanst521 Cn BT';-inkscape-font-specification:Humanist521BT-BoldCondensed;writing-mode:lr-tb;fill:#231f20;fill-opacity:1;fill-rule:nonzero;stroke:none"
           id="text420"><tspan
             x="0 4.4369998 8.4870005 10.791 14.841 19.323 21.627001 26.253 31.212"
             y="0"
             sodipodi:role="line"
             id="tspan418">CT an PKH</tspan></text><text
           transform="matrix(1,0,0,-1,397.5181,688.7886)"
           style="font-variant:normal;font-weight:bold;font-stretch:condensed;font-size:8px;font-family:'Humanst521 Cn BT';-inkscape-font-specification:Humanist521BT-BoldCondensed;writing-mode:lr-tb;fill:#231f20;fill-opacity:1;fill-rule:nonzero;stroke:none"
           id="text424"><tspan
             x="0"
             y="0"
             id="tspan422">Y</tspan></text><text
           transform="matrix(1,0,0,-1,403.5408,690.7886)"
           style="font-variant:normal;font-weight:bold;font-stretch:condensed;font-size:9px;font-family:'Humanst521 Cn BT';-inkscape-font-specification:Humanist521BT-BoldCondensed;writing-mode:lr-tb;fill:#231f20;fill-opacity:1;fill-rule:nonzero;stroke:none"
           id="text428"><tspan
             x="0 4.0500002 8.5319996 12.033"
             y="0"
             sodipodi:role="line"
             id="tspan426">aus.</tspan></text><g
           id="g430"
           transform="translate(111.0396,544.4614)"><path
             d="M 0,0 H 34.833"
             style="fill:none;stroke:#656263;stroke-width:0.5;stroke-linecap:butt;stroke-linejoin:miter;stroke-miterlimit:4;stroke-dasharray:none;stroke-opacity:1"
             id="path432" /></g><text
           transform="matrix(1,0,0,-1,112.6006,584.0937)"
           style="font-variant:normal;font-weight:normal;font-stretch:normal;font-size:7px;font-family:Arial;-inkscape-font-specification:ArialMT;writing-mode:lr-tb;fill:#231f20;fill-opacity:1;fill-rule:nonzero;stroke:none"
           id="text442"><tspan
             x="0 4.6690001 6.223 10.115 14.007 17.899 19.844999 23.737"
             y="0"
             sodipodi:role="line"
             id="tspan434">Signatur</tspan><tspan
             x="4.0879998 8.757 12.257 14.588 16.142 20.034"
             y="9.0019999"
             sodipodi:role="line"
             id="tspan436">Script</tspan><tspan
             x="4.6690001 9.3380003 13.23 17.122 20.622 24.514"
             y="67.822998"
             sodipodi:role="line"
             id="tspan438">Pubkey</tspan><tspan
             x="7.3990002 12.068 15.568 17.899 19.452999 23.344999"
             y="76.824997"
             sodipodi:role="line"
             id="tspan440">Script</tspan></text><path
           d="m 398.373,482.82 h -92.07 v 135.642 h 92.07 z"
           style="fill:#e9e9e9;fill-opacity:1;fill-rule:evenodd;stroke:#656263;stroke-width:0.5;stroke-linecap:butt;stroke-linejoin:miter;stroke-miterlimit:4;stroke-dasharray:none;stroke-opacity:1"
           id="path444" /><text
           transform="matrix(1,0,0,-1,313.9932,499.1309)"
           style="font-variant:normal;font-weight:normal;font-stretch:normal;font-size:10px;font-family:Courier;-inkscape-font-specification:Courier;writing-mode:lr-tb;fill:#231f20;fill-opacity:1;fill-rule:nonzero;stroke:none"
           id="text448"><tspan
             x="0"
             y="0"
             id="tspan446">3</tspan></text><text
           transform="matrix(1,0,0,-1,313.9932,490.1309)"
           style="font-variant:normal;font-weight:normal;font-stretch:normal;font-size:8px;font-family:Courier;-inkscape-font-specification:Courier;writing-mode:lr-tb;fill:#231f20;fill-opacity:1;fill-rule:nonzero;stroke:none"
           id="text452"><tspan
             x="0 4.8000002 9.6000004 14.4 19.200001 24 28.799999 33.599998 38.400002 43.200001 48 52.799999 57.599998 62.400002 67.199997 72"
             y="0"
             sodipodi:role="line"
             id="tspan450">OP_CHECKMULTISIG</tspan></text><text
           transform="matrix(1,0,0,-1,313.9932,608.1328)"
           style="font-variant:normal;font-weight:normal;font-stretch:normal;font-size:10px;font-family:Courier;-inkscape-font-specification:Courier;writing-mode:lr-tb;fill:#231f20;fill-opacity:1;fill-rule:nonzero;stroke:none"
           id="text456"><tspan
             x="0"
             y="0"
             id="tspan454">2</tspan></text><text
           transform="matrix(1,0,0,-1,306.3525,623.9443)"
           style="font-variant:normal;font-weight:normal;font-stretch:normal;font-size:7px;font-family:Arial;-inkscape-font-specification:ArialMT;writing-mode:lr-tb;fill:#231f20;fill-opacity:1;fill-rule:nonzero;stroke:none"
           id="text462"><tspan
             x="0 5.0539999 8.9460001 12.838 16.73 20.622 26.452999 28.399 31.899 35.398998 37.73 39.284 43.175999"
             y="0"
             sodipodi:role="line"
             id="tspan458">Redeem script</tspan><tspan
             x="32.984001 37.261002 41.153 42.707001 46.207001"
             y="112.616"
             sodipodi:role="line"
             id="tspan460">Faiza</tspan></text><g
           id="g464"
           transform="translate(358.084,530.7153)"><path
             d="m 0,0 h -24.951 c -1.639,4.184 -5.737,7.15 -10.545,7.15 -6.252,0 -11.324,-5.013 -11.324,-11.202 0,-0.131 0.015,-0.261 0.021,-0.388 -0.006,-0.131 -0.021,-0.257 -0.021,-0.39 0,-6.184 5.072,-11.203 11.324,-11.203 4.457,0 8.301,2.554 10.148,6.258 h 2.082 c 0.147,1.069 1.229,1.908 2.551,1.908 1.324,0 2.406,-0.839 2.549,-1.908 h 2.293 c 0.144,1.069 1.223,1.908 2.547,1.908 1.326,0 2.404,-0.839 2.551,-1.908 h 2.291 c 0.144,1.069 1.224,1.908 2.548,1.908 1.325,0 2.405,-0.839 2.551,-1.908 h 1.596 l 5.879,6.736 v 0.776 z"
             style="fill:none;stroke:#231f20;stroke-width:1;stroke-linecap:butt;stroke-linejoin:round;stroke-miterlimit:4;stroke-dasharray:none;stroke-opacity:1"
             id="path466" /></g><g
           id="g468"
           transform="translate(362.1738,528.4526)"><path
             d="m 0,0 -29.041,1.487 c -1.639,4.182 -5.736,7.151 -10.545,7.151 -6.252,0 -11.324,-5.016 -11.324,-11.205 0,-6.184 5.072,-11.204 11.324,-11.204 4.457,0 8.301,2.554 10.148,6.258 h 2.083 c 0.146,1.07 1.228,1.909 2.55,1.909 1.325,0 2.407,-0.839 2.549,-1.909 h 2.293 c 0.145,1.07 1.223,1.909 2.547,1.909 1.326,0 2.404,-0.839 2.551,-1.909 h 2.291 c 0.144,1.07 1.224,1.909 2.549,1.909 1.324,0 2.404,-0.839 2.55,-1.909 h 1.596 L 0,-0.776 Z"
             style="fill:#278a2f;fill-opacity:1;fill-rule:nonzero;stroke:none"
             id="path470" /></g><g
           id="g472"
           transform="translate(362.1738,528.4526)"><path
             d="m 0,0 -29.041,1.487 c -1.639,4.182 -5.736,7.151 -10.545,7.151 -6.252,0 -11.324,-5.016 -11.324,-11.205 0,-6.184 5.072,-11.204 11.324,-11.204 4.457,0 8.301,2.554 10.148,6.258 h 2.083 c 0.146,1.07 1.228,1.909 2.55,1.909 1.325,0 2.407,-0.839 2.549,-1.909 h 2.293 c 0.145,1.07 1.223,1.909 2.547,1.909 1.326,0 2.404,-0.839 2.551,-1.909 h 2.291 c 0.144,1.07 1.224,1.909 2.549,1.909 1.324,0 2.404,-0.839 2.55,-1.909 h 1.596 L 0,-0.776 Z"
             style="fill:none;stroke:#278a2f;stroke-width:0.3;stroke-linecap:butt;stroke-linejoin:round;stroke-miterlimit:4;stroke-dasharray:none;stroke-opacity:1"
             id="path474" /></g></g></g><g
       id="g476"><g
         id="g478"><g
           id="g484"><g
             id="g486"><path
               d="m 311.264,526.664 c 0,-6.188 5.072,-11.204 11.324,-11.204 v 0 c 4.457,0 8.301,2.552 10.148,6.256 v 0 h 2.082 c 0.147,1.07 1.228,1.909 2.552,1.909 v 0 c 1.323,0 2.405,-0.839 2.548,-1.909 v 0 h 2.293 c 0.144,1.07 1.223,1.909 2.547,1.909 v 0 c 1.326,0 2.404,-0.839 2.55,-1.909 v 0 h 2.292 c 0.145,1.07 1.224,1.909 2.548,1.909 v 0 c 1.324,0 2.404,-0.839 2.551,-1.909 v 0 h 1.596 l 5.878,6.737 -4.089,2.263 h -24.951 c -1.639,4.183 -5.736,7.15 -10.545,7.15 v 0 c -6.252,0 -11.324,-5.014 -11.324,-11.202"
               style="fill:url(#linearGradient492);stroke:none"
               id="path494" /></g></g></g></g><g
       id="g496"><g
         id="g498"><g
           id="g504"><g
             id="g506"><path
               d="m 312.172,526.664 c 0,-5.677 4.672,-10.298 10.416,-10.298 v 0 c 3.988,0 7.566,2.205 9.336,5.755 v 0 l 0.25,0.503 h 1.974 c 0.521,1.128 1.78,1.908 3.222,1.908 v 0 c 1.442,0 2.699,-0.78 3.218,-1.908 v 0 h 0.951 c 0.523,1.128 1.779,1.908 3.219,1.908 v 0 c 1.443,0 2.699,-0.78 3.219,-1.908 v 0 h 0.953 c 0.521,1.128 1.779,1.908 3.218,1.908 v 0 c 1.444,0 2.7,-0.78 3.222,-1.908 v 0 h 0.511 l 4.867,5.578 -2.898,1.608 h -25.334 l -0.225,0.574 c -1.568,3.995 -5.377,6.576 -9.703,6.576 v 0 c -5.744,0 -10.416,-4.62 -10.416,-10.296"
               style="fill:url(#linearGradient512);stroke:none"
               id="path514" /></g></g></g></g><g
       id="g516"><g
         id="g518"
         clip-path="url(#clipPath522)"><g
           id="g524"
           transform="translate(331.5332,526.6636)"><path
             d="m 0,0 c 0,-4.943 -4.004,-8.947 -8.945,-8.947 -4.942,0 -8.948,4.004 -8.948,8.947 0,4.94 4.006,8.945 8.948,8.945 C -4.004,8.945 0,4.94 0,0"
             style="fill:#ffffff;fill-opacity:1;fill-rule:nonzero;stroke:none"
             id="path526" /></g><text
           transform="matrix(1,0,0,-1,314.4888,523.2324)"
           style="font-variant:normal;font-weight:normal;font-stretch:normal;font-size:9.0198px;font-family:Arial;-inkscape-font-specification:ArialMT;writing-mode:lr-tb;fill:#231f20;fill-opacity:1;fill-rule:nonzero;stroke:none"
           id="text530"><tspan
             x="0 6.0162067 11.031216"
             y="0"
             sodipodi:role="line"
             id="tspan528">Pub</tspan></text><text
           transform="matrix(1,0,0,-1,340.1123,542.4956)"
           style="font-variant:normal;font-weight:normal;font-stretch:normal;font-size:7px;font-family:Arial;-inkscape-font-specification:ArialMT;writing-mode:lr-tb;fill:#231f20;fill-opacity:1;fill-rule:nonzero;stroke:none"
           id="text534"><tspan
             x="0 4.6690001 6.223 7.777 11.669"
             y="0"
             sodipodi:role="line"
             id="tspan532">Ellen</tspan></text><g
           id="g536"
           transform="translate(358.084,561.8833)"><path
             d="m 0,0 h -24.951 c -1.639,4.184 -5.737,7.149 -10.545,7.149 -6.252,0 -11.324,-5.014 -11.324,-11.202 0,-0.131 0.015,-0.261 0.021,-0.388 -0.006,-0.131 -0.021,-0.256 -0.021,-0.389 0,-6.186 5.072,-11.205 11.324,-11.205 4.457,0 8.301,2.555 10.148,6.258 h 2.082 c 0.147,1.07 1.229,1.908 2.551,1.908 1.324,0 2.406,-0.838 2.549,-1.908 h 2.293 c 0.144,1.07 1.223,1.908 2.547,1.908 1.326,0 2.404,-0.838 2.551,-1.908 h 2.291 c 0.144,1.07 1.224,1.908 2.548,1.908 1.325,0 2.405,-0.838 2.551,-1.908 h 1.596 l 5.879,6.736 v 0.777 z"
             style="fill:none;stroke:#231f20;stroke-width:1;stroke-linecap:butt;stroke-linejoin:round;stroke-miterlimit:4;stroke-dasharray:none;stroke-opacity:1"
             id="path538" /></g><g
           id="g540"
           transform="translate(362.1738,559.6196)"><path
             d="m 0,0 -29.041,1.486 c -1.639,4.184 -5.736,7.153 -10.545,7.153 -6.252,0 -11.324,-5.016 -11.324,-11.205 0,-6.186 5.072,-11.205 11.324,-11.205 4.457,0 8.301,2.554 10.148,6.257 h 2.083 c 0.146,1.071 1.228,1.909 2.55,1.909 1.325,0 2.407,-0.838 2.549,-1.909 h 2.293 c 0.145,1.071 1.223,1.909 2.547,1.909 1.326,0 2.404,-0.838 2.551,-1.909 h 2.291 c 0.144,1.071 1.224,1.909 2.549,1.909 1.324,0 2.404,-0.838 2.55,-1.909 h 1.596 L 0,-0.777 Z"
             style="fill:#278a2f;fill-opacity:1;fill-rule:nonzero;stroke:none"
             id="path542" /></g><g
           id="g544"
           transform="translate(362.1738,559.6196)"><path
             d="m 0,0 -29.041,1.486 c -1.639,4.184 -5.736,7.153 -10.545,7.153 -6.252,0 -11.324,-5.016 -11.324,-11.205 0,-6.186 5.072,-11.205 11.324,-11.205 4.457,0 8.301,2.554 10.148,6.257 h 2.083 c 0.146,1.071 1.228,1.909 2.55,1.909 1.325,0 2.407,-0.838 2.549,-1.909 h 2.293 c 0.145,1.071 1.223,1.909 2.547,1.909 1.326,0 2.404,-0.838 2.551,-1.909 h 2.291 c 0.144,1.071 1.224,1.909 2.549,1.909 1.324,0 2.404,-0.838 2.55,-1.909 h 1.596 L 0,-0.777 Z"
             style="fill:none;stroke:#278a2f;stroke-width:0.3;stroke-linecap:butt;stroke-linejoin:round;stroke-miterlimit:4;stroke-dasharray:none;stroke-opacity:1"
             id="path546" /></g></g></g><g
       id="g548"><g
         id="g550"><g
           id="g556"><g
             id="g558"><path
               d="m 311.264,557.831 c 0,-6.188 5.072,-11.203 11.324,-11.203 v 0 c 4.457,0 8.301,2.552 10.148,6.255 v 0 h 2.082 c 0.147,1.071 1.228,1.909 2.552,1.909 v 0 c 1.323,0 2.405,-0.838 2.548,-1.909 v 0 h 2.293 c 0.144,1.071 1.223,1.909 2.547,1.909 v 0 c 1.326,0 2.404,-0.838 2.55,-1.909 v 0 h 2.292 c 0.145,1.071 1.224,1.909 2.548,1.909 v 0 c 1.324,0 2.404,-0.838 2.551,-1.909 v 0 h 1.596 l 5.878,6.737 -4.089,2.263 h -24.951 c -1.639,4.184 -5.736,7.15 -10.545,7.15 v 0 c -6.252,0 -11.324,-5.015 -11.324,-11.202"
               style="fill:url(#linearGradient564);stroke:none"
               id="path566" /></g></g></g></g><g
       id="g568"><g
         id="g570"><g
           id="g576"><g
             id="g578"><path
               d="m 312.172,557.831 c 0,-5.678 4.672,-10.297 10.416,-10.297 v 0 c 3.988,0 7.566,2.204 9.336,5.755 v 0 l 0.25,0.503 h 1.974 c 0.521,1.126 1.78,1.906 3.222,1.906 v 0 c 1.442,0 2.699,-0.78 3.218,-1.906 v 0 h 0.951 c 0.523,1.126 1.779,1.906 3.219,1.906 v 0 c 1.443,0 2.699,-0.78 3.219,-1.906 v 0 h 0.953 c 0.521,1.126 1.779,1.906 3.218,1.906 v 0 c 1.444,0 2.7,-0.78 3.222,-1.906 v 0 h 0.511 l 4.867,5.578 -2.898,1.607 h -25.334 l -0.225,0.574 c -1.568,3.995 -5.377,6.575 -9.703,6.575 v 0 c -5.744,0 -10.416,-4.619 -10.416,-10.295"
               style="fill:url(#linearGradient584);stroke:none"
               id="path586" /></g></g></g></g><g
       id="g588"><g
         id="g590"
         clip-path="url(#clipPath594)"><g
           id="g596"
           transform="translate(331.5332,557.8306)"><path
             d="m 0,0 c 0,-4.943 -4.004,-8.947 -8.945,-8.947 -4.942,0 -8.948,4.004 -8.948,8.947 0,4.941 4.006,8.945 8.948,8.945 C -4.004,8.945 0,4.941 0,0"
             style="fill:#ffffff;fill-opacity:1;fill-rule:nonzero;stroke:none"
             id="path598" /></g><text
           transform="matrix(1,0,0,-1,314.4888,554.3984)"
           style="font-variant:normal;font-weight:normal;font-stretch:normal;font-size:9.0198px;font-family:Arial;-inkscape-font-specification:ArialMT;writing-mode:lr-tb;fill:#231f20;fill-opacity:1;fill-rule:nonzero;stroke:none"
           id="text602"><tspan
             x="0 6.0162067 11.031216"
             y="0"
             sodipodi:role="line"
             id="tspan600">Pub</tspan></text><text
           transform="matrix(1,0,0,-1,340.3057,573.6616)"
           style="font-variant:normal;font-weight:normal;font-stretch:normal;font-size:7px;font-family:Arial;-inkscape-font-specification:ArialMT;writing-mode:lr-tb;fill:#231f20;fill-opacity:1;fill-rule:nonzero;stroke:none"
           id="text606"><tspan
             x="0 3.5 7.3920002 11.284"
             y="0"
             sodipodi:role="line"
             id="tspan604">John</tspan></text><g
           id="g608"
           transform="translate(358.084,593.0503)"><path
             d="m 0,0 h -24.951 c -1.639,4.184 -5.737,7.149 -10.545,7.149 -6.252,0 -11.324,-5.014 -11.324,-11.202 0,-0.131 0.015,-0.261 0.021,-0.388 -0.006,-0.131 -0.021,-0.256 -0.021,-0.389 0,-6.186 5.072,-11.205 11.324,-11.205 4.457,0 8.301,2.555 10.148,6.258 h 2.082 c 0.147,1.07 1.229,1.908 2.551,1.908 1.324,0 2.406,-0.838 2.549,-1.908 h 2.293 c 0.144,1.07 1.223,1.908 2.547,1.908 1.326,0 2.404,-0.838 2.551,-1.908 h 2.291 c 0.144,1.07 1.224,1.908 2.548,1.908 1.325,0 2.405,-0.838 2.551,-1.908 h 1.596 l 5.879,6.736 v 0.777 z"
             style="fill:none;stroke:#231f20;stroke-width:1;stroke-linecap:butt;stroke-linejoin:round;stroke-miterlimit:4;stroke-dasharray:none;stroke-opacity:1"
             id="path610" /></g><g
           id="g612"
           transform="translate(362.1738,590.7866)"><path
             d="m 0,0 -29.041,1.486 c -1.639,4.184 -5.736,7.153 -10.545,7.153 -6.252,0 -11.324,-5.016 -11.324,-11.205 0,-6.186 5.072,-11.205 11.324,-11.205 4.457,0 8.301,2.554 10.148,6.257 h 2.083 c 0.146,1.071 1.228,1.909 2.55,1.909 1.325,0 2.407,-0.838 2.549,-1.909 h 2.293 c 0.145,1.071 1.223,1.909 2.547,1.909 1.326,0 2.404,-0.838 2.551,-1.909 h 2.291 c 0.144,1.071 1.224,1.909 2.549,1.909 1.324,0 2.404,-0.838 2.55,-1.909 h 1.596 L 0,-0.777 Z"
             style="fill:#278a2f;fill-opacity:1;fill-rule:nonzero;stroke:none"
             id="path614" /></g><g
           id="g616"
           transform="translate(362.1738,590.7866)"><path
             d="m 0,0 -29.041,1.486 c -1.639,4.184 -5.736,7.153 -10.545,7.153 -6.252,0 -11.324,-5.016 -11.324,-11.205 0,-6.186 5.072,-11.205 11.324,-11.205 4.457,0 8.301,2.554 10.148,6.257 h 2.083 c 0.146,1.071 1.228,1.909 2.55,1.909 1.325,0 2.407,-0.838 2.549,-1.909 h 2.293 c 0.145,1.071 1.223,1.909 2.547,1.909 1.326,0 2.404,-0.838 2.551,-1.909 h 2.291 c 0.144,1.071 1.224,1.909 2.549,1.909 1.324,0 2.404,-0.838 2.55,-1.909 h 1.596 L 0,-0.777 Z"
             style="fill:none;stroke:#278a2f;stroke-width:0.3;stroke-linecap:butt;stroke-linejoin:round;stroke-miterlimit:4;stroke-dasharray:none;stroke-opacity:1"
             id="path618" /></g></g></g><g
       id="g620"><g
         id="g622"><g
           id="g628"><g
             id="g630"><path
               d="m 311.264,588.998 c 0,-6.188 5.072,-11.203 11.324,-11.203 v 0 c 4.457,0 8.301,2.552 10.148,6.255 v 0 h 2.082 c 0.147,1.071 1.228,1.908 2.552,1.908 v 0 c 1.323,0 2.405,-0.837 2.548,-1.908 v 0 h 2.293 c 0.144,1.071 1.223,1.908 2.547,1.908 v 0 c 1.326,0 2.404,-0.837 2.55,-1.908 v 0 h 2.292 c 0.145,1.071 1.224,1.908 2.548,1.908 v 0 c 1.324,0 2.404,-0.837 2.551,-1.908 v 0 h 1.596 l 5.878,6.737 -4.089,2.263 h -24.951 c -1.639,4.184 -5.736,7.15 -10.545,7.15 v 0 c -6.252,0 -11.324,-5.015 -11.324,-11.202"
               style="fill:url(#linearGradient636);stroke:none"
               id="path638" /></g></g></g></g><g
       id="g640"><g
         id="g642"><g
           id="g648"><g
             id="g650"><path
               d="m 312.172,588.998 c 0,-5.678 4.672,-10.297 10.416,-10.297 v 0 c 3.988,0 7.566,2.204 9.336,5.755 v 0 l 0.25,0.503 h 1.974 c 0.521,1.126 1.78,1.906 3.222,1.906 v 0 c 1.442,0 2.699,-0.78 3.218,-1.906 v 0 h 0.951 c 0.523,1.126 1.779,1.906 3.219,1.906 v 0 c 1.443,0 2.699,-0.78 3.219,-1.906 v 0 h 0.953 c 0.521,1.126 1.779,1.906 3.218,1.906 v 0 c 1.444,0 2.7,-0.78 3.222,-1.906 v 0 h 0.511 l 4.867,5.578 -2.898,1.607 h -25.334 l -0.225,0.574 c -1.568,3.995 -5.377,6.575 -9.703,6.575 v 0 c -5.744,0 -10.416,-4.619 -10.416,-10.295"
               style="fill:url(#linearGradient656);stroke:none"
               id="path658" /></g></g></g></g><g
       id="g660"><g
         id="g662"
         clip-path="url(#clipPath666)"><g
           id="g668"
           transform="translate(331.5332,588.9976)"><path
             d="m 0,0 c 0,-4.943 -4.004,-8.947 -8.945,-8.947 -4.942,0 -8.948,4.004 -8.948,8.947 0,4.941 4.006,8.945 8.948,8.945 C -4.004,8.945 0,4.941 0,0"
             style="fill:#ffffff;fill-opacity:1;fill-rule:nonzero;stroke:none"
             id="path670" /></g><text
           transform="matrix(1,0,0,-1,314.4888,585.5654)"
           style="font-variant:normal;font-weight:normal;font-stretch:normal;font-size:9.0198px;font-family:Arial;-inkscape-font-specification:ArialMT;writing-mode:lr-tb;fill:#231f20;fill-opacity:1;fill-rule:nonzero;stroke:none"
           id="text674"><tspan
             x="0 6.0162067 11.031216"
             y="0"
             sodipodi:role="line"
             id="tspan672">Pub</tspan></text><path
           d="m 237.943,544.461 h -92.07 v 74 h 92.07 z"
           style="fill:#e9e9e9;fill-opacity:1;fill-rule:evenodd;stroke:#656263;stroke-width:0.5;stroke-linecap:butt;stroke-linejoin:miter;stroke-miterlimit:4;stroke-dasharray:none;stroke-opacity:1"
           id="path676" /><path
           d="m 219.237,547.378 h -69.431 v 10.109 h 69.431 z"
           style="fill:#ffffff;fill-opacity:1;fill-rule:evenodd;stroke:none"
           id="path678" /><text
           transform="matrix(1,0,0,-1,153.5635,608.7715)"
           style="font-variant:normal;font-weight:normal;font-stretch:normal;font-size:10px;font-family:Courier;-inkscape-font-specification:Courier;writing-mode:lr-tb;fill:#231f20;fill-opacity:1;fill-rule:nonzero;stroke:none"
           id="text682"><tspan
             x="0"
             y="0"
             id="tspan680">0</tspan></text><text
           transform="matrix(1,0,0,-1,153.5635,550.7715)"
           style="font-variant:normal;font-weight:normal;font-stretch:normal;font-size:8px;font-family:Courier;-inkscape-font-specification:Courier;writing-mode:lr-tb;fill:#231f20;fill-opacity:1;fill-rule:nonzero;stroke:none"
           id="text686"><tspan
             x="0 4.8000002 9.6000004 14.4 19.200001 24 28.799999 33.599998 38.400002 43.200001 48 52.799999 57.599998"
             y="0"
             sodipodi:role="line"
             id="tspan684">redeem-script</tspan></text><g
           id="g688"
           transform="translate(162.2051,567.1489)"><path
             d="M 0,0 C 1.184,-0.213 1.596,-1.234 2.305,-1.947 2.498,-0.635 3.016,0.336 3.545,1.299 3.533,1.409 3.518,1.517 3.369,1.485 2.438,0.784 0.99,0.633 0,0 M 4.873,2.874 C 5.201,2.93 5.393,3.132 5.674,3.243 5.611,3.518 5.648,3.896 5.408,3.987 5.262,3.579 5.027,3.266 4.873,2.874 M 0.529,2.965 C 1.004,4.014 1.523,5.014 2.039,6.021 1.266,6.234 0.342,6.291 -0.533,6.392 0.006,5.442 0.354,4.298 0.529,2.965 m -5.05,3.338 C -4.873,5.663 -5.012,4.831 -5.23,3.987 -5.428,3.236 -5.479,2.183 -6.119,1.854 -6.344,3.119 -5.547,4.808 -5.23,6.115 -7.643,5.627 -9.65,3.805 -9.578,1.111 c 0.057,-1.991 1.549,-2.705 3.635,-2.687 4.427,0.04 7.662,4.002 4.699,7.968 -0.875,0.176 -2.135,-0.031 -3.277,-0.089 m 0.175,0.555 c 0.783,0.169 1.821,0.073 2.571,0.278 C -2.414,7.763 -2.941,8.511 -3.459,9.267 -3.686,8.389 -4.076,7.687 -4.346,6.858 M 6.027,6.303 C 6.564,7.685 7.615,9.026 7.979,10.285 7.16,9.195 6.094,7.868 6.027,6.303 m 10.016,7.781 C 13.611,13.88 10.676,13.102 9.395,11.584 8.633,10.68 8.264,9.337 7.623,8.154 6.957,6.925 5.336,4.99 6.205,3.613 c 3.617,2.219 7.268,4.528 10.459,7.134 1.025,0.837 2.275,1.806 2.752,3.151 -1.053,0.413 -2.252,0.279 -3.373,0.186 M 6.734,3.243 C 8.836,2.288 10.563,4.035 12.322,4.355 12.752,3.87 12.254,2.877 12.5,2.316 13.775,1.395 16.252,1.73 17.197,0.465 16.637,0.021 15.881,0.742 14.891,1.019 13.186,1.496 11.324,1.205 11.965,3.707 10.441,2.991 7.887,1.655 6.117,2.874 5.52,2.569 5.016,2.168 4.342,1.947 3.639,0.457 3.053,-1.152 2.48,-2.78 c -1.23,0.442 -1.271,2.133 -2.748,2.316 -0.242,-0.365 -0.328,-0.892 -0.441,-1.39 0.344,-0.093 0.715,1.022 1.238,0.743 0.047,-0.712 -0.754,-1.305 -1.418,-1.577 -0.732,0.466 -0.166,1.516 0,2.318 -1.121,-0.893 -3.39,-1.889 -5.586,-1.76 -0.843,0.047 -1.923,0.257 -2.572,0.741 -1.605,1.204 -1.176,4.359 -0.088,5.836 1.01,1.37 2.457,1.861 4.08,2.318 0.492,0.81 0.756,1.865 1.153,2.778 0.5,0.037 0.632,0.133 0.797,0.649 2.623,1.026 5.654,1.624 7.8,3.153 -2.72,-0.504 -5.707,-1.414 -8.509,-2.225 -0.889,-0.257 -1.786,-0.723 -2.661,-0.557 0.102,0.551 0.834,0.619 1.245,0.74 1.404,0.421 2.974,0.854 4.521,1.299 2.006,0.575 4.156,1.4 6.205,1.205 C 5.545,12.839 4.531,12.562 3.898,12.23 1.969,11.227 -0.674,10.507 -2.838,9.636 -2.479,8.435 -1.594,7.789 -0.889,6.949 0.275,6.959 1.232,6.76 2.215,6.579 3.27,7.856 4.141,9.572 5.141,11.025 5.408,11.42 5.775,12.085 6.293,12.044 6.125,10.967 5.221,10.188 4.607,9.267 3.996,8.347 3.482,7.332 2.926,6.392 3.58,5.936 4.646,5.906 4.873,5.003 4.072,4.824 3.533,5.695 2.744,5.836 1.607,4.465 0.998,2.537 0.174,0.835 c 1.474,0.281 2.558,0.974 3.812,1.481 0.502,1.158 1.2,1.901 1.33,3.52 0.237,2.907 2.014,4.613 3.727,6.116 0.088,0.464 0.363,0.732 0.531,1.111 0.342,0.082 0.315,-0.224 0.53,-0.276 1.804,1.304 5.144,2.19 8.156,1.946 0.545,-0.045 1.789,-0.197 1.773,-0.926 C 20.012,12.633 18.141,11.281 17.287,10.563 14.141,7.927 9.875,5.226 6.734,3.243"
             style="fill:#2c81ab;fill-opacity:1;fill-rule:evenodd;stroke:none"
             id="path690" /></g><text
           transform="matrix(1,0,0,-1,183.1323,572.9683)"
           style="font-variant:normal;font-weight:normal;font-stretch:normal;font-size:7px;font-family:Arial;-inkscape-font-specification:ArialMT;writing-mode:lr-tb;fill:#231f20;fill-opacity:1;fill-rule:nonzero;stroke:none"
           id="text694"><tspan
             x="0 4.277 8.1689997 9.7229996 13.223"
             y="0"
             sodipodi:role="line"
             id="tspan692">Faiza</tspan></text><g
           id="g696"
           transform="translate(162.2051,590.1489)"><path
             d="M 0,0 C 1.184,-0.213 1.596,-1.234 2.305,-1.947 2.498,-0.635 3.016,0.336 3.545,1.299 3.533,1.409 3.518,1.517 3.369,1.485 2.438,0.784 0.99,0.633 0,0 M 4.873,2.874 C 5.201,2.93 5.393,3.132 5.674,3.243 5.611,3.518 5.648,3.896 5.408,3.987 5.262,3.579 5.027,3.266 4.873,2.874 M 0.529,2.965 C 1.004,4.014 1.523,5.014 2.039,6.021 1.266,6.234 0.342,6.291 -0.533,6.392 0.006,5.442 0.354,4.298 0.529,2.965 m -5.05,3.338 C -4.873,5.663 -5.012,4.831 -5.23,3.987 -5.428,3.236 -5.479,2.183 -6.119,1.854 -6.344,3.119 -5.547,4.808 -5.23,6.115 -7.643,5.627 -9.65,3.805 -9.578,1.111 c 0.057,-1.991 1.549,-2.705 3.635,-2.687 4.427,0.04 7.662,4.002 4.699,7.968 -0.875,0.176 -2.135,-0.031 -3.277,-0.089 m 0.175,0.555 c 0.783,0.169 1.821,0.073 2.571,0.278 C -2.414,7.763 -2.941,8.511 -3.459,9.267 -3.686,8.389 -4.076,7.687 -4.346,6.858 M 6.027,6.303 C 6.564,7.685 7.615,9.026 7.979,10.285 7.16,9.195 6.094,7.868 6.027,6.303 m 10.016,7.781 C 13.611,13.88 10.676,13.102 9.395,11.584 8.633,10.68 8.264,9.337 7.623,8.154 6.957,6.925 5.336,4.99 6.205,3.613 c 3.617,2.219 7.268,4.528 10.459,7.134 1.025,0.837 2.275,1.806 2.752,3.151 -1.053,0.413 -2.252,0.279 -3.373,0.186 M 6.734,3.243 C 8.836,2.288 10.563,4.035 12.322,4.355 12.752,3.87 12.254,2.877 12.5,2.316 13.775,1.395 16.252,1.73 17.197,0.465 16.637,0.021 15.881,0.742 14.891,1.019 13.186,1.496 11.324,1.205 11.965,3.707 10.441,2.991 7.887,1.655 6.117,2.874 5.52,2.569 5.016,2.168 4.342,1.947 3.639,0.457 3.053,-1.152 2.48,-2.78 c -1.23,0.442 -1.271,2.133 -2.748,2.316 -0.242,-0.365 -0.328,-0.892 -0.441,-1.39 0.344,-0.093 0.715,1.022 1.238,0.743 0.047,-0.712 -0.754,-1.305 -1.418,-1.577 -0.732,0.466 -0.166,1.516 0,2.318 -1.121,-0.893 -3.39,-1.889 -5.586,-1.76 -0.843,0.047 -1.923,0.257 -2.572,0.741 -1.605,1.204 -1.176,4.359 -0.088,5.836 1.01,1.37 2.457,1.861 4.08,2.318 0.492,0.81 0.756,1.865 1.153,2.778 0.5,0.037 0.632,0.133 0.797,0.649 2.623,1.026 5.654,1.624 7.8,3.153 -2.72,-0.504 -5.707,-1.414 -8.509,-2.225 -0.889,-0.257 -1.786,-0.723 -2.661,-0.557 0.102,0.551 0.834,0.619 1.245,0.74 1.404,0.421 2.974,0.854 4.521,1.299 2.006,0.575 4.156,1.4 6.205,1.205 C 5.545,12.839 4.531,12.562 3.898,12.23 1.969,11.227 -0.674,10.507 -2.838,9.636 -2.479,8.435 -1.594,7.789 -0.889,6.949 0.275,6.959 1.232,6.76 2.215,6.579 3.27,7.856 4.141,9.572 5.141,11.025 5.408,11.42 5.775,12.085 6.293,12.044 6.125,10.967 5.221,10.188 4.607,9.267 3.996,8.347 3.482,7.332 2.926,6.392 3.58,5.936 4.646,5.906 4.873,5.003 4.072,4.824 3.533,5.695 2.744,5.836 1.607,4.465 0.998,2.537 0.174,0.835 c 1.474,0.281 2.558,0.974 3.812,1.481 0.502,1.158 1.2,1.901 1.33,3.52 0.237,2.907 2.014,4.613 3.727,6.116 0.088,0.464 0.363,0.732 0.531,1.111 0.342,0.082 0.315,-0.224 0.53,-0.276 1.804,1.304 5.144,2.19 8.156,1.946 0.545,-0.045 1.789,-0.197 1.773,-0.926 C 20.012,12.633 18.141,11.281 17.287,10.563 14.141,7.927 9.875,5.226 6.734,3.243"
             style="fill:#2c81ab;fill-opacity:1;fill-rule:evenodd;stroke:none"
             id="path698" /></g><text
           transform="matrix(1,0,0,-1,183.1323,595.9683)"
           style="font-variant:normal;font-weight:normal;font-stretch:normal;font-size:7px;font-family:Arial;-inkscape-font-specification:ArialMT;writing-mode:lr-tb;fill:#231f20;fill-opacity:1;fill-rule:nonzero;stroke:none"
           id="text702"><tspan
             x="0 3.5 7.3920002 11.284"
             y="0"
             sodipodi:role="line"
             id="tspan700">John</tspan></text><path
           d="m 237.943,482.82 h -92.07 v 61.642 h 92.07 z"
           style="fill:#e9e9e9;fill-opacity:1;fill-rule:evenodd;stroke:#656263;stroke-width:0.5;stroke-linecap:butt;stroke-linejoin:miter;stroke-miterlimit:4;stroke-dasharray:none;stroke-opacity:1"
           id="path704" /><path
           d="m 171.904,494.817 h -22.098 v 10.109 h 22.098 z"
           style="fill:#ffffff;fill-opacity:1;fill-rule:evenodd;stroke:none"
           id="path706" /><text
           transform="matrix(1,0,0,-1,153.563,506.8809)"
           style="font-variant:normal;font-weight:normal;font-stretch:normal;font-size:8px;font-family:Courier;-inkscape-font-specification:Courier;writing-mode:lr-tb;fill:#231f20;fill-opacity:1;fill-rule:nonzero;stroke:none"
           id="text712"><tspan
             x="0 4.8000002 9.6000004 14.4 19.200001 24 28.799999 33.599998 38.400002 43.200001"
             y="0"
             sodipodi:role="line"
             id="tspan708">OP_HASH160</tspan><tspan
             x="0 4.8000002"
             y="9"
             sodipodi:role="line"
             id="tspan710">SH</tspan></text><text
           transform="matrix(1,0,0,-1,163.1646,495.8809)"
           style="font-variant:normal;font-weight:normal;font-stretch:normal;font-size:7px;font-family:Courier;-inkscape-font-specification:Courier;writing-mode:lr-tb;fill:#231f20;fill-opacity:1;fill-rule:nonzero;stroke:none"
           id="text716"><tspan
             x="0"
             y="0"
             id="tspan714">1</tspan></text><text
           transform="matrix(1,0,0,-1,153.563,488.8809)"
           style="font-variant:normal;font-weight:normal;font-stretch:normal;font-size:8px;font-family:Courier;-inkscape-font-specification:Courier;writing-mode:lr-tb;fill:#231f20;fill-opacity:1;fill-rule:nonzero;stroke:none"
           id="text720"><tspan
             x="0 4.8000002 9.6000004 14.4 19.200001 24 28.799999 33.599998"
             y="0"
             sodipodi:role="line"
             id="tspan718">OP_EQUAL</tspan></text><text
           transform="matrix(1,0,0,-1,418.2388,522.1646)"
           style="font-variant:normal;font-weight:bold;font-stretch:condensed;font-size:9px;font-family:'Humanst521 Cn BT';-inkscape-font-specification:Humanist521BT-BoldCondensed;writing-mode:lr-tb;fill:#231f20;fill-opacity:1;fill-rule:nonzero;stroke:none"
           id="text732"><tspan
             x="0 5.184 7.3169999 11.277 14.778 18.738001 22.239 24.542999 29.726999 33.777 36.773998 40.734001"
             y="0"
             sodipodi:role="line"
             id="tspan722">Dieses Daten</tspan><tspan
             x="0 5.2740002 9.783 11.907 15.867 20.052 23.049 25.353001 27.486 30.987"
             y="9.5039997"
             sodipodi:role="line"
             id="tspan724">Objekt ist</tspan><tspan
             x="0 3.582 8.0640001 10.377 14.427 16.587 18.747 20.879999 24.983999 28.944 32.669998 38.375999 42.335999 44.469002 47.970001"
             y="19.007999"
             sodipodi:role="line"
             id="tspan726">zuflligerweise</tspan><tspan
             x="0 3.96 6.0929999 10.575 12.879 16.839001 20.438999 23.832001 25.965 30.474001"
             y="28.511999"
             sodipodi:role="line"
             id="tspan728">ein Script</tspan><tspan
             x="0 4.473 7.8660002 12.213 16.316999 19.709999 23.76 30.500999"
             y="38.015999"
             sodipodi:role="line"
             id="tspan730">Program.</tspan></text><g
           id="g734"
           transform="translate(403.04,511.3267)"><path
             d="M 0,0 C 6.167,0 7.943,3.899 12.898,3.899"
             style="fill:none;stroke:#231f20;stroke-width:0.3;stroke-linecap:butt;stroke-linejoin:miter;stroke-miterlimit:10;stroke-dasharray:none;stroke-opacity:1"
             id="path736" /></g><g
           id="g738"
           transform="translate(403.5869,509.4673)"><path
             d="M 0,0 -3.238,1.87 0,3.739 Z"
             style="fill:#231f20;fill-opacity:1;fill-rule:nonzero;stroke:none"
             id="path740" /></g><g
           id="g742"
           transform="translate(417.876,679.2974)"><path
             d="M 0,0 C -0.399,6.384 -7.376,13.953 -14.126,14.875"
             style="fill:none;stroke:#231f20;stroke-width:0.3;stroke-linecap:butt;stroke-linejoin:miter;stroke-miterlimit:10;stroke-dasharray:none;stroke-opacity:1"
             id="path744" /></g><g
           id="g746"
           transform="translate(419.6973,679.9595)"><path
             d="m 0,0 -1.663,-3.349 -2.068,3.116 z"
             style="fill:#231f20;fill-opacity:1;fill-rule:nonzero;stroke:none"
             id="path748" /></g><g
           id="g750"
           transform="translate(285.1055,679.6904)"><path
             d="M 0,0 -3.337,-1.687 -3.13,2.046 Z"
             style="fill:#231f20;fill-opacity:1;fill-rule:nonzero;stroke:none"
             id="path752" /></g><g
           id="g754"><g
             id="g756" /><g
             id="g784"><g
               clip-path="url(#clipPath760)"
               id="g782"><g
                 id="g780"><g
                   id="g778"><g
                     id="g776"><g
                       id="g774"><path
                         d="m 306.303,618.461 -87.066,-60.973 v -10.11 l 87.066,-64.558 z"
                         style="fill:url(#linearGradient770);stroke:none"
                         id="path772" /></g></g></g></g></g></g></g><text
           transform="matrix(1,0,0,-1,250.3647,512.6646)"
           style="font-variant:normal;font-weight:bold;font-stretch:condensed;font-size:9px;font-family:'Humanst521 Cn BT';-inkscape-font-specification:Humanist521BT-BoldCondensed;writing-mode:lr-tb;fill:#231f20;fill-opacity:1;fill-rule:nonzero;stroke:none"
           id="text800"><tspan
             x="0 5.2470002 9.2969999 12.798 17.289 19.593 24.101999 28.062"
             y="0"
             sodipodi:role="line"
             id="tspan786">Hash des</tspan><tspan
             x="0 4.7249999 8.6850004 13.194 17.153999 21.114"
             y="9.5039997"
             sodipodi:role="line"
             id="tspan788">Redeem</tspan><tspan
             x="0 3.96 7.5599999 10.953 13.086 17.594999 20.591999"
             y="19.007999"
             sodipodi:role="line"
             id="tspan790">Scripts</tspan><tspan
             x="0.243 5.4809999 9.9630003 13.356 15.66 19.620001 21.753 26.235001 28.539 33.723 37.772999 40.77 44.73"
             y="-97.596001"
             sodipodi:role="line"
             id="tspan792">Nur ein Daten</tspan><tspan
             x="0.243 5.5170002 10.026 12.15 16.110001 20.295 23.292 25.479 27.783001 32.292 36.341999 39.842999 42.146999 46.196999 50.679001"
             y="-88.092003"
             sodipodi:role="line"
             id="tspan794">Objekt, das auf</tspan><tspan
             x="0.243 4.7519999 8.7119999 13.194 15.498 19.458 22.455 26.504999 30.105"
             y="-78.587997"
             sodipodi:role="line"
             id="tspan796">den Stack</tspan><tspan
             x="0.243 4.3470001 8.3070002 10.467 14.427 18.531 21.528 23.832001 29.538 31.671 35.063999 39.573002"
             y="-69.084"
             sodipodi:role="line"
             id="tspan798">gelegt wird.</tspan></text><g
           id="g802"
           transform="translate(172.2041,499.0288)"><path
             d="M 0,0 C 25.74,0 54.761,6.588 76.364,6.588"
             style="fill:none;stroke:#231f20;stroke-width:0.3;stroke-linecap:butt;stroke-linejoin:miter;stroke-miterlimit:10;stroke-dasharray:none;stroke-opacity:1"
             id="path804" /></g><g
           id="g806"
           transform="translate(172.751,497.1694)"><path
             d="M 0,0 -3.238,1.869 0,3.739 Z"
             style="fill:#231f20;fill-opacity:1;fill-rule:nonzero;stroke:none"
             id="path808" /></g><g
           id="g810"
           transform="translate(206.1636,561.3335)"><path
             d="M 0,0 C 3.667,10.667 22.667,29.333 42,31"
             style="fill:none;stroke:#231f20;stroke-width:0.3;stroke-linecap:butt;stroke-linejoin:miter;stroke-miterlimit:10;stroke-dasharray:none;stroke-opacity:1"
             id="path812" /></g><g
           id="g814"
           transform="translate(208.0996,561.2466)"><path
             d="m 0,0 -2.82,-2.455 -0.716,3.67 z"
             style="fill:#231f20;fill-opacity:1;fill-rule:nonzero;stroke:none"
             id="path816" /></g></g></g></g></svg>
