<?xml version="1.0" encoding="UTF-8" standalone="no"?>
<svg
   xmlns:dc="http://purl.org/dc/elements/1.1/"
   xmlns:cc="http://creativecommons.org/ns#"
   xmlns:rdf="http://www.w3.org/1999/02/22-rdf-syntax-ns#"
   xmlns:svg="http://www.w3.org/2000/svg"
   xmlns="http://www.w3.org/2000/svg"
   xmlns:sodipodi="http://sodipodi.sourceforge.net/DTD/sodipodi-0.dtd"
   xmlns:inkscape="http://www.inkscape.org/namespaces/inkscape"
   version="1.1"
   id="svg2"
   xml:space="preserve"
   width="434.86533"
   height="86.862053"
   viewBox="0 0 434.86533 86.862053"
   sodipodi:docname="10-31.ai"><metadata
     id="metadata8"><rdf:RDF><cc:Work
         rdf:about=""><dc:format>image/svg+xml</dc:format><dc:type
           rdf:resource="http://purl.org/dc/dcmitype/StillImage" /></cc:Work></rdf:RDF></metadata><defs
     id="defs6"><clipPath
       clipPathUnits="userSpaceOnUse"
       id="clipPath18"><path
         d="M 0,792 H 612 V 0 H 0 Z"
         id="path16" /></clipPath><clipPath
       clipPathUnits="userSpaceOnUse"
       id="clipPath178"><path
         d="m 157.232,668.152 c -1.63,-10.967 6.898,-17.536 2.518,-29.607 v 0 h 65.163 v 29.607 z"
         id="path176" /></clipPath><clipPath
       clipPathUnits="userSpaceOnUse"
       id="clipPath198"><path
         d="M 0,792 H 612 V 0 H 0 Z"
         id="path196" /></clipPath><clipPath
       clipPathUnits="userSpaceOnUse"
       id="clipPath206"><path
         d="M 137.268,646.773 H 276.601 V 619.667 H 137.268 Z"
         id="path204" /></clipPath><linearGradient
       x1="0"
       y1="0"
       x2="1"
       y2="0"
       gradientUnits="userSpaceOnUse"
       gradientTransform="matrix(0,-27.107422,-27.107422,0,206.93457,646.77344)"
       spreadMethod="pad"
       id="linearGradient220"><stop
         style="stop-opacity:1;stop-color:#e2e2e2"
         offset="0"
         id="stop212" /><stop
         style="stop-opacity:1;stop-color:#e2e2e2"
         offset="0.159515"
         id="stop214" /><stop
         style="stop-opacity:1;stop-color:#e2e2e2"
         offset="0.51206365"
         id="stop216" /><stop
         style="stop-opacity:1;stop-color:#d3d2d2"
         offset="1"
         id="stop218" /></linearGradient><clipPath
       clipPathUnits="userSpaceOnUse"
       id="clipPath242"><path
         d="m 186.592,645.378 h 37.321 v -4.896 h -37.321 z"
         id="path240" /></clipPath><clipPath
       clipPathUnits="userSpaceOnUse"
       id="clipPath258"><path
         d="M 281.374,644.683 H 448.04 V 619.667 H 281.374 Z"
         id="path256" /></clipPath><linearGradient
       x1="0"
       y1="0"
       x2="1"
       y2="0"
       gradientUnits="userSpaceOnUse"
       gradientTransform="matrix(0,-25.016602,-25.016602,0,364.70703,644.68262)"
       spreadMethod="pad"
       id="linearGradient272"><stop
         style="stop-opacity:1;stop-color:#e2e2e2"
         offset="0"
         id="stop264" /><stop
         style="stop-opacity:1;stop-color:#e2e2e2"
         offset="0.159515"
         id="stop266" /><stop
         style="stop-opacity:1;stop-color:#e2e2e2"
         offset="0.51206365"
         id="stop268" /><stop
         style="stop-opacity:1;stop-color:#d3d2d2"
         offset="1"
         id="stop270" /></linearGradient><linearGradient
       x1="0"
       y1="0"
       x2="1"
       y2="0"
       gradientUnits="userSpaceOnUse"
       gradientTransform="matrix(12.76471,-18.608902,-18.608902,-12.76471,297.92285,621.78662)"
       spreadMethod="pad"
       id="linearGradient356"><stop
         style="stop-opacity:1;stop-color:#5ec45b"
         offset="0"
         id="stop352" /><stop
         style="stop-opacity:1;stop-color:#dbf1cb"
         offset="1"
         id="stop354" /></linearGradient><linearGradient
       x1="0"
       y1="0"
       x2="1"
       y2="0"
       gradientUnits="userSpaceOnUse"
       gradientTransform="matrix(12.181335,-17.758438,-17.758438,-12.181335,298.15039,621.45557)"
       spreadMethod="pad"
       id="linearGradient376"><stop
         style="stop-opacity:1;stop-color:#dbf1cb"
         offset="0"
         id="stop372" /><stop
         style="stop-opacity:1;stop-color:#5ec45b"
         offset="1"
         id="stop374" /></linearGradient><clipPath
       clipPathUnits="userSpaceOnUse"
       id="clipPath386"><path
         d="M 0,792 H 612 V 0 H 0 Z"
         id="path384" /></clipPath><linearGradient
       x1="0"
       y1="0"
       x2="1"
       y2="0"
       gradientUnits="userSpaceOnUse"
       gradientTransform="matrix(12.76471,-18.608902,-18.608902,-12.76471,312.92285,621.78662)"
       spreadMethod="pad"
       id="linearGradient424"><stop
         style="stop-opacity:1;stop-color:#5ec45b"
         offset="0"
         id="stop420" /><stop
         style="stop-opacity:1;stop-color:#dbf1cb"
         offset="1"
         id="stop422" /></linearGradient><linearGradient
       x1="0"
       y1="0"
       x2="1"
       y2="0"
       gradientUnits="userSpaceOnUse"
       gradientTransform="matrix(12.180786,-17.757629,-17.757629,-12.180786,313.15039,621.45557)"
       spreadMethod="pad"
       id="linearGradient444"><stop
         style="stop-opacity:1;stop-color:#dbf1cb"
         offset="0"
         id="stop440" /><stop
         style="stop-opacity:1;stop-color:#5ec45b"
         offset="1"
         id="stop442" /></linearGradient><clipPath
       clipPathUnits="userSpaceOnUse"
       id="clipPath454"><path
         d="M 0,792 H 612 V 0 H 0 Z"
         id="path452" /></clipPath><linearGradient
       x1="0"
       y1="0"
       x2="1"
       y2="0"
       gradientUnits="userSpaceOnUse"
       gradientTransform="matrix(12.76471,-18.608902,-18.608902,-12.76471,327.92187,621.78564)"
       spreadMethod="pad"
       id="linearGradient492"><stop
         style="stop-opacity:1;stop-color:#5ec45b"
         offset="0"
         id="stop488" /><stop
         style="stop-opacity:1;stop-color:#dbf1cb"
         offset="1"
         id="stop490" /></linearGradient><linearGradient
       x1="0"
       y1="0"
       x2="1"
       y2="0"
       gradientUnits="userSpaceOnUse"
       gradientTransform="matrix(12.181335,-17.758438,-17.758438,-12.181335,328.15039,621.45752)"
       spreadMethod="pad"
       id="linearGradient512"><stop
         style="stop-opacity:1;stop-color:#dbf1cb"
         offset="0"
         id="stop508" /><stop
         style="stop-opacity:1;stop-color:#5ec45b"
         offset="1"
         id="stop510" /></linearGradient><clipPath
       clipPathUnits="userSpaceOnUse"
       id="clipPath522"><path
         d="M 0,792 H 612 V 0 H 0 Z"
         id="path520" /></clipPath><clipPath
       clipPathUnits="userSpaceOnUse"
       id="clipPath542"><path
         d="m 337.575,641.482 h 54.301 v -1 h -54.301 z"
         id="path540" /></clipPath></defs><sodipodi:namedview
     pagecolor="#ffffff"
     bordercolor="#666666"
     borderopacity="1"
     objecttolerance="10"
     gridtolerance="10"
     guidetolerance="10"
     inkscape:pageopacity="0"
     inkscape:pageshadow="2"
     inkscape:window-width="640"
     inkscape:window-height="480"
     id="namedview4" /><g
     id="g10"
     inkscape:groupmode="layer"
     inkscape:label="10-31"
     transform="matrix(1.3333333,0,0,-1.3333333,-182.69066,890.94264)"><g
       id="g12"><g
         id="g14"
         clip-path="url(#clipPath18)"><g
           id="g20"
           transform="translate(463.042,642.8569)"><path
             d="m 0,0 c 0,-1.1 -0.9,-2 -2,-2 h -208.251 c -1.101,0 -2,0.9 -2,2 v 21.519 c 0,1.1 0.899,2 2,2 H -2 c 1.1,0 2,-0.9 2,-2 z"
             style="fill:#feefe9;fill-opacity:1;fill-rule:evenodd;stroke:none"
             id="path22" /></g><g
           id="g24"
           transform="translate(386.5,666.25)"><path
             d="M 0,0 V -25.042"
             style="fill:none;stroke:#656263;stroke-width:0.5;stroke-linecap:butt;stroke-linejoin:miter;stroke-miterlimit:4;stroke-dasharray:none;stroke-opacity:1"
             id="path26" /></g><g
           id="g28"
           transform="translate(462.667,642.9819)"><path
             d="m 0,0 c 0,-1.1 -0.9,-2 -2,-2 h -208.251 c -1.101,0 -2,0.9 -2,2 v 21.519 c 0,1.1 0.899,2 2,2 H -2 c 1.1,0 2,-0.9 2,-2 z"
             style="fill:none;stroke:#d91920;stroke-width:1;stroke-linecap:butt;stroke-linejoin:round;stroke-miterlimit:4;stroke-dasharray:none;stroke-opacity:1"
             id="path30" /></g><g
           id="g32"
           transform="translate(384.125,645.0698)"><path
             d="m 0,0 c 0,-1.1 -0.9,-2 -2,-2 h -89.458 c -1.1,0 -2,0.9 -2,2 v 17.556 c 0,1.1 0.9,2 2,2 H -2 c 1.1,0 2,-0.9 2,-2 z"
             style="fill:#ffffff;fill-opacity:1;fill-rule:evenodd;stroke:none"
             id="path34" /></g><g
           id="g36"
           transform="translate(384.125,645.0698)"><path
             d="m 0,0 c 0,-1.1 -0.9,-2 -2,-2 h -89.458 c -1.1,0 -2,0.9 -2,2 v 17.556 c 0,1.1 0.9,2 2,2 H -2 c 1.1,0 2,-0.9 2,-2 z"
             style="fill:none;stroke:#e0b4a5;stroke-width:0.5;stroke-linecap:butt;stroke-linejoin:miter;stroke-miterlimit:4;stroke-dasharray:none;stroke-opacity:1"
             id="path38" /></g><text
           transform="matrix(1,0,0,-1,282.2803,651.0322)"
           style="font-variant:normal;font-weight:normal;font-stretch:normal;font-size:11.5px;font-family:Courier;-inkscape-font-specification:Courier;writing-mode:lr-tb;fill:#231f20;fill-opacity:1;fill-rule:nonzero;stroke:none"
           id="text42"><tspan
             x="0"
             y="0"
             id="tspan40">0</tspan></text><text
           transform="matrix(1,0,0,-1,292.3643,651.0322)"
           style="font-variant:normal;font-weight:normal;font-stretch:normal;font-size:9px;font-family:Courier;-inkscape-font-specification:Courier;writing-mode:lr-tb;fill:#231f20;fill-opacity:1;fill-rule:nonzero;stroke:none"
           id="text46"><tspan
             x="0"
             y="0"
             id="tspan44">0</tspan></text><text
           transform="matrix(1,0,0,-1,390.9712,650.6992)"
           style="font-variant:normal;font-weight:normal;font-stretch:normal;font-size:11.5px;font-family:Courier;-inkscape-font-specification:Courier;writing-mode:lr-tb;fill:#231f20;fill-opacity:1;fill-rule:nonzero;stroke:none"
           id="text50"><tspan
             x="0 6.6700001 13.34 20.01 41.331001 48.000999 54.671001"
             y="0"
             sodipodi:role="line"
             id="tspan48">0.07WSH</tspan></text><text
           transform="matrix(1,0,0,-1,452.3164,647.6992)"
           style="font-variant:normal;font-weight:normal;font-stretch:normal;font-size:7px;font-family:Courier;-inkscape-font-specification:Courier;writing-mode:lr-tb;fill:#231f20;fill-opacity:1;fill-rule:nonzero;stroke:none"
           id="text54"><tspan
             x="0"
             y="0"
             id="tspan52">X</tspan></text><g
           id="g56"
           transform="translate(308.8789,651.2285)"><path
             d="M 0,0 C 0.846,-0.152 1.141,-0.882 1.646,-1.392 1.785,-0.454 2.154,0.239 2.533,0.928 2.523,1.007 2.514,1.084 2.406,1.062 1.742,0.56 0.707,0.453 0,0 M 3.482,2.054 C 3.717,2.094 3.854,2.237 4.053,2.317 4.01,2.513 4.035,2.784 3.863,2.849 3.76,2.558 3.592,2.333 3.482,2.054 M 0.379,2.119 C 0.717,2.868 1.09,3.583 1.457,4.303 0.904,4.455 0.244,4.495 -0.381,4.566 0.004,3.889 0.254,3.071 0.379,2.119 M -3.23,4.503 C -3.482,4.047 -3.58,3.451 -3.736,2.849 -3.879,2.312 -3.914,1.56 -4.373,1.325 c -0.16,0.904 0.41,2.11 0.637,3.044 -1.725,-0.348 -3.159,-1.651 -3.106,-3.575 0.039,-1.423 1.106,-1.932 2.596,-1.92 3.164,0.028 5.475,2.859 3.357,5.692 -0.625,0.126 -1.525,-0.02 -2.341,-0.063 m 0.125,0.396 c 0.56,0.122 1.3,0.053 1.837,0.2 C -1.725,5.546 -2.102,6.08 -2.471,6.62 -2.633,5.993 -2.912,5.492 -3.105,4.899 M 4.307,4.503 C 4.691,5.49 5.441,6.449 5.701,7.349 5.115,6.57 4.354,5.622 4.307,4.503 m 7.156,5.56 C 9.727,9.917 7.629,9.36 6.713,8.276 6.168,7.63 5.904,6.671 5.445,5.827 4.971,4.948 3.813,3.565 4.434,2.581 c 2.586,1.586 5.193,3.234 7.472,5.098 0.733,0.597 1.625,1.29 1.967,2.252 -0.752,0.294 -1.609,0.199 -2.41,0.132 M 4.813,2.317 C 6.313,1.635 7.547,2.884 8.803,3.11 9.111,2.766 8.756,2.056 8.932,1.654 9.842,0.996 11.611,1.235 12.287,0.331 11.887,0.015 11.346,0.53 10.639,0.728 9.422,1.069 8.092,0.86 8.549,2.648 7.461,2.137 5.635,1.183 4.369,2.054 3.943,1.836 3.584,1.55 3.102,1.392 2.6,0.327 2.182,-0.823 1.771,-1.987 c -0.878,0.316 -0.906,1.524 -1.96,1.656 -0.174,-0.262 -0.237,-0.639 -0.317,-0.993 0.244,-0.068 0.51,0.73 0.885,0.53 0.033,-0.508 -0.539,-0.932 -1.014,-1.126 -0.523,0.333 -0.119,1.083 0,1.656 -0.801,-0.639 -2.422,-1.35 -3.992,-1.258 -0.602,0.034 -1.373,0.183 -1.836,0.531 -1.147,0.859 -0.842,3.113 -0.062,4.168 0.72,0.98 1.754,1.33 2.914,1.656 0.351,0.579 0.541,1.332 0.822,1.985 0.359,0.027 0.453,0.095 0.57,0.464 1.873,0.733 4.041,1.16 5.574,2.252 C 1.41,9.175 -0.723,8.524 -2.727,7.944 -3.361,7.761 -4,7.429 -4.627,7.548 c 0.074,0.393 0.598,0.441 0.891,0.527 1.002,0.302 2.125,0.612 3.23,0.928 1.432,0.412 2.971,1.001 4.434,0.861 C 3.963,9.173 3.238,8.975 2.785,8.738 1.408,8.021 -0.482,7.507 -2.027,6.885 -1.771,6.026 -1.139,5.565 -0.635,4.966 0.197,4.972 0.881,4.83 1.582,4.701 2.336,5.613 2.959,6.839 3.672,7.878 3.865,8.159 4.127,8.634 4.496,8.605 4.377,7.835 3.73,7.279 3.293,6.62 2.855,5.964 2.488,5.239 2.09,4.566 2.559,4.241 3.32,4.22 3.482,3.574 2.91,3.446 2.523,4.069 1.961,4.17 1.148,3.19 0.713,1.813 0.125,0.597 1.178,0.798 1.953,1.292 2.85,1.654 3.207,2.481 3.705,3.013 3.799,4.17 3.967,6.247 5.236,7.466 6.461,8.539 6.523,8.871 6.721,9.063 6.84,9.333 7.086,9.392 7.066,9.173 7.219,9.136 8.51,10.067 10.895,10.7 13.047,10.527 13.436,10.494 14.324,10.386 14.314,9.864 14.299,9.026 12.961,8.06 12.352,7.548 10.104,5.663 7.057,3.733 4.813,2.317"
             style="fill:#2c81ab;fill-opacity:1;fill-rule:evenodd;stroke:none"
             id="path58" /></g><g
           id="g60"
           transform="translate(331.8789,651.2285)"><path
             d="M 0,0 C 0.846,-0.152 1.141,-0.882 1.646,-1.392 1.785,-0.454 2.154,0.239 2.533,0.928 2.523,1.007 2.514,1.084 2.406,1.062 1.742,0.56 0.707,0.453 0,0 M 3.482,2.054 C 3.717,2.094 3.854,2.237 4.053,2.317 4.01,2.513 4.035,2.784 3.863,2.849 3.76,2.558 3.592,2.333 3.482,2.054 M 0.379,2.119 C 0.717,2.868 1.09,3.583 1.457,4.303 0.904,4.455 0.244,4.495 -0.381,4.566 0.004,3.889 0.254,3.071 0.379,2.119 M -3.23,4.503 C -3.482,4.047 -3.58,3.451 -3.736,2.849 -3.879,2.312 -3.914,1.56 -4.373,1.325 c -0.16,0.904 0.41,2.11 0.637,3.044 -1.725,-0.348 -3.159,-1.651 -3.106,-3.575 0.039,-1.423 1.106,-1.932 2.596,-1.92 3.164,0.028 5.475,2.859 3.357,5.692 -0.625,0.126 -1.525,-0.02 -2.341,-0.063 m 0.125,0.396 c 0.56,0.122 1.3,0.053 1.837,0.2 C -1.725,5.546 -2.102,6.08 -2.471,6.62 -2.633,5.993 -2.912,5.492 -3.105,4.899 M 4.307,4.503 C 4.691,5.49 5.441,6.449 5.701,7.349 5.115,6.57 4.354,5.622 4.307,4.503 m 7.156,5.56 C 9.727,9.917 7.629,9.36 6.713,8.276 6.168,7.63 5.904,6.671 5.445,5.827 4.971,4.948 3.813,3.565 4.434,2.581 c 2.586,1.586 5.193,3.234 7.472,5.098 0.733,0.597 1.625,1.29 1.967,2.252 -0.752,0.294 -1.609,0.199 -2.41,0.132 M 4.813,2.317 C 6.313,1.635 7.547,2.884 8.803,3.11 9.111,2.766 8.756,2.056 8.932,1.654 9.842,0.996 11.611,1.235 12.287,0.331 11.887,0.015 11.346,0.53 10.639,0.728 9.422,1.069 8.092,0.86 8.549,2.648 7.461,2.137 5.635,1.183 4.369,2.054 3.943,1.836 3.584,1.55 3.102,1.392 2.6,0.327 2.182,-0.823 1.771,-1.987 c -0.878,0.316 -0.906,1.524 -1.96,1.656 -0.174,-0.262 -0.237,-0.639 -0.317,-0.993 0.244,-0.068 0.51,0.73 0.885,0.53 0.033,-0.508 -0.539,-0.932 -1.014,-1.126 -0.523,0.333 -0.119,1.083 0,1.656 -0.801,-0.639 -2.422,-1.35 -3.992,-1.258 -0.602,0.034 -1.373,0.183 -1.836,0.531 -1.146,0.859 -0.842,3.113 -0.062,4.168 0.72,0.98 1.754,1.33 2.914,1.656 0.351,0.579 0.541,1.332 0.822,1.985 0.359,0.027 0.453,0.095 0.57,0.464 1.873,0.733 4.041,1.16 5.574,2.252 C 1.41,9.175 -0.723,8.524 -2.727,7.944 -3.361,7.761 -4,7.429 -4.627,7.548 c 0.074,0.393 0.598,0.441 0.891,0.527 1.002,0.302 2.125,0.612 3.23,0.928 1.432,0.412 2.971,1.001 4.434,0.861 C 3.963,9.173 3.238,8.975 2.785,8.738 1.408,8.021 -0.482,7.507 -2.027,6.885 -1.771,6.026 -1.139,5.565 -0.635,4.966 0.197,4.972 0.881,4.83 1.582,4.701 2.336,5.613 2.959,6.839 3.672,7.878 3.865,8.159 4.127,8.634 4.496,8.605 4.377,7.835 3.73,7.279 3.293,6.62 2.855,5.964 2.488,5.239 2.09,4.566 2.559,4.241 3.32,4.22 3.482,3.574 2.91,3.446 2.523,4.069 1.961,4.17 1.148,3.19 0.713,1.813 0.125,0.597 1.178,0.798 1.953,1.292 2.85,1.654 3.207,2.481 3.705,3.013 3.799,4.17 3.967,6.247 5.236,7.466 6.461,8.539 6.523,8.871 6.721,9.063 6.84,9.333 7.086,9.392 7.066,9.173 7.219,9.136 8.51,10.067 10.895,10.7 13.047,10.527 13.436,10.494 14.324,10.386 14.314,9.864 14.299,9.026 12.961,8.06 12.352,7.548 10.104,5.663 7.057,3.733 4.813,2.317"
             style="fill:#2c81ab;fill-opacity:1;fill-rule:evenodd;stroke:none"
             id="path62" /></g><g
           id="g64"
           transform="translate(255.6548,654.1602)"><path
             d="M 0,0 -1.701,1.912 C 1.484,2.891 3.785,2.143 5.641,1.543 7.014,1.094 8.01,0.773 9.375,1.068 c 1.387,0.299 1.869,0.83 2.43,1.446 0.724,0.799 1.547,1.705 4.324,1.972 l 1.35,-1.98 C 15.279,2.294 14.699,1.658 14.029,0.92 13.43,0.26 12.748,-0.488 10.945,-0.879 8.959,-1.307 7.277,-0.76 5.795,-0.28 4.119,0.266 2.535,0.78 0,0"
             style="fill:#f8a45c;fill-opacity:1;fill-rule:nonzero;stroke:none"
             id="path66" /></g><g
           id="g68"
           transform="translate(255.6548,654.1602)"><path
             d="M 0,0 -1.701,1.912 C 1.484,2.891 3.785,2.143 5.641,1.543 7.014,1.094 8.01,0.773 9.375,1.068 c 1.387,0.299 1.869,0.83 2.43,1.446 0.724,0.799 1.547,1.705 4.324,1.972 l 1.35,-1.98 C 15.279,2.294 14.699,1.658 14.029,0.92 13.43,0.26 12.748,-0.488 10.945,-0.879 8.959,-1.307 7.277,-0.76 5.795,-0.28 4.119,0.266 2.535,0.78 0,0 Z"
             style="fill:none;stroke:#231f20;stroke-width:0.3;stroke-linecap:butt;stroke-linejoin:miter;stroke-miterlimit:4;stroke-dasharray:none;stroke-opacity:1"
             id="path70" /></g><g
           id="g72"
           transform="translate(258.981,652.3428)"><path
             d="M 0,0 -1.703,1.911 C 1.48,2.893 3.785,2.144 5.637,1.543 7.012,1.096 8.006,0.771 9.375,1.067 c 1.385,0.3 1.867,0.83 2.428,1.448 0.726,0.798 1.549,1.705 4.322,1.97 L 17.479,2.506 C 15.277,2.294 14.699,1.657 14.027,0.919 13.428,0.26 12.748,-0.489 10.943,-0.878 8.957,-1.307 7.277,-0.762 5.793,-0.279 4.119,0.265 2.533,0.778 0,0"
             style="fill:#f8a45c;fill-opacity:1;fill-rule:nonzero;stroke:none"
             id="path74" /></g><g
           id="g76"
           transform="translate(258.981,652.3428)"><path
             d="M 0,0 -1.703,1.911 C 1.48,2.893 3.785,2.144 5.637,1.543 7.012,1.096 8.006,0.771 9.375,1.067 c 1.385,0.3 1.867,0.83 2.428,1.448 0.726,0.798 1.549,1.705 4.322,1.97 L 17.479,2.506 C 15.277,2.294 14.699,1.657 14.027,0.919 13.428,0.26 12.748,-0.489 10.943,-0.878 8.957,-1.307 7.277,-0.762 5.793,-0.279 4.119,0.265 2.533,0.778 0,0 Z"
             style="fill:none;stroke:#231f20;stroke-width:0.3;stroke-linecap:butt;stroke-linejoin:miter;stroke-miterlimit:4;stroke-dasharray:none;stroke-opacity:1"
             id="path78" /></g><g
           id="g80"
           transform="translate(258.2427,650.3164)"><path
             d="M 0,0 -1.701,1.91 C 1.484,2.893 3.787,2.143 5.641,1.541 7.014,1.096 8.008,0.772 9.375,1.066 c 1.387,0.3 1.869,0.832 2.428,1.45 0.726,0.797 1.549,1.703 4.322,1.969 L 17.479,2.504 C 15.277,2.294 14.701,1.658 14.027,0.918 13.428,0.258 12.75,-0.49 10.945,-0.879 8.961,-1.307 7.281,-0.762 5.795,-0.28 4.121,0.266 2.535,0.779 0,0"
             style="fill:#f8a45c;fill-opacity:1;fill-rule:nonzero;stroke:none"
             id="path82" /></g><g
           id="g84"
           transform="translate(258.2427,650.3164)"><path
             d="M 0,0 -1.701,1.91 C 1.484,2.893 3.787,2.143 5.641,1.541 7.014,1.096 8.008,0.772 9.375,1.066 c 1.387,0.3 1.869,0.832 2.428,1.45 0.726,0.797 1.549,1.703 4.322,1.969 L 17.479,2.504 C 15.277,2.294 14.701,1.658 14.027,0.918 13.428,0.258 12.75,-0.49 10.945,-0.879 8.961,-1.307 7.281,-0.762 5.795,-0.28 4.121,0.266 2.535,0.779 0,0 Z"
             style="fill:none;stroke:#231f20;stroke-width:0.3;stroke-linecap:butt;stroke-linejoin:miter;stroke-miterlimit:4;stroke-dasharray:none;stroke-opacity:1"
             id="path86" /></g><g
           id="g88"
           transform="translate(261.6235,648.5176)"><path
             d="m 0,0 -1.701,1.913 c 3.183,0.978 5.49,0.231 7.34,-0.369 1.377,-0.449 2.369,-0.773 3.736,-0.476 1.387,0.299 1.871,0.83 2.428,1.447 0.728,0.799 1.551,1.704 4.324,1.971 l 1.352,-1.98 C 15.279,2.295 14.701,1.658 14.029,0.92 13.43,0.258 12.752,-0.488 10.945,-0.879 8.961,-1.308 7.281,-0.76 5.795,-0.279 4.119,0.266 2.537,0.78 0,0"
             style="fill:#f8a45c;fill-opacity:1;fill-rule:nonzero;stroke:none"
             id="path90" /></g><g
           id="g92"
           transform="translate(261.6235,648.5176)"><path
             d="m 0,0 -1.701,1.913 c 3.183,0.978 5.49,0.231 7.34,-0.369 1.377,-0.449 2.369,-0.773 3.736,-0.476 1.387,0.299 1.871,0.83 2.428,1.447 0.728,0.799 1.551,1.704 4.324,1.971 l 1.352,-1.98 C 15.279,2.295 14.701,1.658 14.029,0.92 13.43,0.258 12.752,-0.488 10.945,-0.879 8.961,-1.308 7.281,-0.76 5.795,-0.279 4.119,0.266 2.537,0.78 0,0 Z"
             style="fill:none;stroke:#231f20;stroke-width:0.3;stroke-linecap:butt;stroke-linejoin:miter;stroke-miterlimit:4;stroke-dasharray:none;stroke-opacity:1"
             id="path94" /></g><g
           id="g96"
           transform="translate(256.1743,656.2461)"><path
             d="M 0,0 -1.704,1.914 C 1.482,2.895 3.785,2.145 5.639,1.545 7.012,1.097 8.006,0.775 9.375,1.07 c 1.385,0.299 1.865,0.83 2.428,1.447 0.724,0.799 1.549,1.704 4.32,1.971 l 1.354,-1.981 c -2.2,-0.21 -2.78,-0.849 -3.45,-1.585 -0.601,-0.661 -1.281,-1.408 -3.084,-1.799 -1.986,-0.428 -3.668,0.119 -5.15,0.6 C 4.117,0.267 2.533,0.782 0,0"
             style="fill:#f8a45c;fill-opacity:1;fill-rule:nonzero;stroke:none"
             id="path98" /></g><g
           id="g100"
           transform="translate(256.1743,656.2461)"><path
             d="M 0,0 -1.704,1.914 C 1.482,2.895 3.785,2.145 5.639,1.545 7.012,1.097 8.006,0.775 9.375,1.07 c 1.385,0.299 1.865,0.83 2.428,1.447 0.724,0.799 1.549,1.704 4.32,1.971 l 1.354,-1.981 c -2.2,-0.21 -2.78,-0.849 -3.45,-1.585 -0.601,-0.661 -1.281,-1.408 -3.084,-1.799 -1.986,-0.428 -3.668,0.119 -5.15,0.6 C 4.117,0.267 2.533,0.782 0,0 Z"
             style="fill:none;stroke:#231f20;stroke-width:0.3;stroke-linecap:butt;stroke-linejoin:miter;stroke-miterlimit:4;stroke-dasharray:none;stroke-opacity:1"
             id="path102" /></g><g
           id="g104"
           transform="translate(256.2817,657.9531)"><path
             d="m 0,0 2.324,0.208 1.012,-0.54 -1.514,0.096 z"
             style="fill:#231f20;fill-opacity:1;fill-rule:nonzero;stroke:none"
             id="path106" /></g><g
           id="g108"
           transform="translate(262.2212,656.7734)"><path
             d="m 0,0 2.479,-0.936 1.603,0.507 -2.033,0.265 z"
             style="fill:#231f20;fill-opacity:1;fill-rule:nonzero;stroke:none"
             id="path110" /></g><g
           id="g112"
           transform="translate(263.1958,653.79)"><path
             d="m 0,0 -1.746,0.09 -0.715,-0.486 1.773,0.178 2.266,-0.906 1.424,0.02 -1.961,0.765 z"
             style="fill:#231f20;fill-opacity:1;fill-rule:nonzero;stroke:none"
             id="path114" /></g><g
           id="g116"
           transform="translate(273.4849,653.9844)"><path
             d="m 0,0 c -0.443,-0.045 -1.574,-0.306 -1.574,-0.306 l -0.865,-1.419 1.218,0.862 1.897,0.264 z"
             style="fill:#231f20;fill-opacity:1;fill-rule:nonzero;stroke:none"
             id="path118" /></g><g
           id="g120"
           transform="translate(274.3853,650.5)"><path
             d="m 0,0 -0.805,-1.018 -1.834,-0.578 1.028,-0.438 1.509,0.619 z"
             style="fill:#231f20;fill-opacity:1;fill-rule:nonzero;stroke:none"
             id="path122" /></g><g
           id="g124"
           transform="translate(266.7153,649.5566)"><path
             d="M 0,0 -1.777,0.539 -3.135,0.205 -1.514,0.097 Z"
             style="fill:#231f20;fill-opacity:1;fill-rule:nonzero;stroke:none"
             id="path126" /></g><g
           id="g128"
           transform="translate(260.8188,651.752)"><path
             d="M 0,0 -1.01,-0.176 0.398,-0.255 Z"
             style="fill:#231f20;fill-opacity:1;fill-rule:nonzero;stroke:none"
             id="path130" /></g><g
           id="g132"
           transform="translate(269.0356,657.8262)"><path
             d="m 0,0 -1.252,-0.347 -1.48,-1.134 2.031,0.449 z"
             style="fill:#f9aeca;fill-opacity:1;fill-rule:evenodd;stroke:none"
             id="path134" /></g><g
           id="g136"
           transform="translate(270.6353,651.7012)"><path
             d="m 0,0 -1.648,-0.807 -0.182,-0.486 1.588,0.406 z"
             style="fill:#f9aeca;fill-opacity:1;fill-rule:evenodd;stroke:none"
             id="path138" /></g><g
           id="g140"
           transform="translate(277.6978,652.2129)"><path
             d="m 0,0 -1.848,-0.679 -0.134,-0.9 1.527,0.72 z"
             style="fill:#f9aeca;fill-opacity:1;fill-rule:evenodd;stroke:none"
             id="path142" /></g><g
           id="g144"
           transform="translate(259.6997,652.3057)"><path
             d="m 0,0 -1.25,-1.062 -0.445,0.67 z"
             style="fill:#f9aeca;fill-opacity:1;fill-rule:evenodd;stroke:none"
             id="path146" /></g><g
           id="g148"
           transform="translate(267.2446,654.5898)"><path
             d="m 0,0 -2.264,0.191 1.225,-0.564 z"
             style="fill:#96cd56;fill-opacity:1;fill-rule:evenodd;stroke:none"
             id="path150" /></g><g
           id="g152"
           transform="translate(269.4673,648.9961)"><path
             d="m 0,0 -2.111,0.479 c 0,0 1.09,-0.754 1.394,-0.897 0.307,-0.141 2.143,-0.277 2.143,-0.277 z"
             style="fill:#96cd56;fill-opacity:1;fill-rule:evenodd;stroke:none"
             id="path154" /></g><g
           id="g156"
           transform="translate(260.4419,654.3525)"><path
             d="m 0,0 -1.867,-0.064 0.722,-1.011 z"
             style="fill:#96cd56;fill-opacity:1;fill-rule:evenodd;stroke:none"
             id="path158" /></g><g
           id="g160"
           transform="translate(271.6274,659.8359)"><path
             d="m 0,0 -2.092,-0.851 c 0,0 -0.838,-1.217 -0.5,-1.159 0.336,0.059 1.785,0.992 1.785,0.992 z"
             style="fill:#96cd56;fill-opacity:1;fill-rule:evenodd;stroke:none"
             id="path162" /></g><g
           id="g164"
           transform="translate(381.6621,646.6826)"><path
             d="m 0,0 c 0,-1.1 -0.9,-2 -2,-2 h -29.912 c -1.1,0 -2,0.9 -2,2 v 14.329 c 0,1.1 0.9,2 2,2 H -2 c 1.1,0 2,-0.9 2,-2 z"
             style="fill:#ffffff;fill-opacity:1;fill-rule:evenodd;stroke:none"
             id="path166" /></g><g
           id="g168"
           transform="translate(381.6621,646.6826)"><path
             d="m 0,0 c 0,-1.1 -0.9,-2 -2,-2 h -29.912 c -1.1,0 -2,0.9 -2,2 v 14.329 c 0,1.1 0.9,2 2,2 H -2 c 1.1,0 2,-0.9 2,-2 z"
             style="fill:none;stroke:#cd8c7a;stroke-width:0.5;stroke-linecap:butt;stroke-linejoin:miter;stroke-miterlimit:4;stroke-dasharray:none;stroke-opacity:1"
             id="path170" /></g></g></g><g
       id="g172"><g
         id="g174"
         clip-path="url(#clipPath178)"><g
           id="g180"
           transform="translate(223.4126,642.9819)"><path
             d="m 0,0 c 0,-1.1 -0.9,-2 -2,-2 h -70.602 c -1.1,0 -2,0.9 -2,2 v 21.519 c 0,1.1 0.9,2 2,2 H -2 c 1.1,0 2,-0.9 2,-2 z"
             style="fill:#feefe9;fill-opacity:1;fill-rule:evenodd;stroke:none"
             id="path182" /></g><text
           transform="matrix(1,0,0,-1,161.5923,650.6992)"
           style="font-variant:normal;font-weight:normal;font-stretch:normal;font-size:11.5px;font-family:Courier;-inkscape-font-specification:Courier;writing-mode:lr-tb;fill:#231f20;fill-opacity:1;fill-rule:nonzero;stroke:none"
           id="text186"><tspan
             x="0 6.9000001 13.8 20.700001"
             y="0"
             sodipodi:role="line"
             id="tspan184">0.08</tspan></text><g
           id="g188"
           transform="translate(223.4126,642.9819)"><path
             d="m 0,0 c 0,-1.1 -0.9,-2 -2,-2 h -70.602 c -1.1,0 -2,0.9 -2,2 v 21.519 c 0,1.1 0.9,2 2,2 H -2 c 1.1,0 2,-0.9 2,-2 z"
             style="fill:none;stroke:#d91920;stroke-width:1;stroke-linecap:butt;stroke-linejoin:round;stroke-miterlimit:4;stroke-dasharray:none;stroke-opacity:1"
             id="path190" /></g></g></g><g
       id="g192"><g
         id="g194"
         clip-path="url(#clipPath198)"><g
           id="g200"><g
             id="g202" /><g
             id="g234"><g
               clip-path="url(#clipPath206)"
               id="g232"><g
                 id="g230"><g
                   id="g228"><g
                     id="g226"><g
                       id="g224"><path
                         d="M 276.601,619.667 220,646.773 h -18.5 l -64.232,-27.106 z"
                         style="fill:url(#linearGradient220);stroke:none"
                         id="path222" /></g></g></g></g></g></g></g><g
           id="g236"><g
             id="g238" /><g
             id="g250"><g
               clip-path="url(#clipPath242)"
               id="g248"><g
                 transform="translate(223.9126,642.9819)"
                 id="g246"><path
                   d="M 0,0 V 1.917 L -1,2.396 V 0 c 0,-0.827 -0.673,-1.5 -1.5,-1.5 h -32.451 l -2.37,-1 H -2.5 C -1.122,-2.5 0,-1.378 0,0"
                   style="fill:#d3d2d2;fill-opacity:1;fill-rule:nonzero;stroke:none"
                   id="path244" /></g></g></g></g><g
           id="g252"><g
             id="g254" /><g
             id="g286"><g
               clip-path="url(#clipPath258)"
               id="g284"><g
                 id="g282"><g
                   id="g280"><g
                     id="g278"><g
                       id="g276"><path
                         d="m 448.04,619.667 -67.498,25.016 h -31.625 l -67.543,-25.016 z"
                         style="fill:url(#linearGradient272);stroke:none"
                         id="path274" /></g></g></g></g></g></g></g><path
           d="M 137.268,619.667 H 276.601 V 604.706 H 137.268 Z"
           style="fill:#ffffff;fill-opacity:1;fill-rule:nonzero;stroke:#231f20;stroke-width:0.5;stroke-linecap:butt;stroke-linejoin:round;stroke-miterlimit:10;stroke-dasharray:none;stroke-opacity:1"
           id="path288" /><g
           id="g290"
           transform="translate(226.5151,655.9868)"><path
             d="M 0,0 C 0.95,0.282 1.564,0.544 2.326,0.846 L 2.318,-2.049 c -0.269,0.132 -1.376,0.574 -2.32,0.866 -1.015,0.31 -1.935,0.523 -2.53,0.601 0.597,0.07 1.518,0.28 2.532,0.582"
             style="fill:#231f20;fill-opacity:1;fill-rule:nonzero;stroke:none"
             id="path292" /></g><g
           id="g294"
           transform="translate(228.1665,655.3862)"><path
             d="M 0,0 H 26.343"
             style="fill:none;stroke:#231f20;stroke-width:0.5;stroke-linecap:butt;stroke-linejoin:miter;stroke-miterlimit:4;stroke-dasharray:none;stroke-opacity:1"
             id="path296" /></g><g
           id="g298"
           transform="translate(159.75,638.5449)"><path
             d="M 0,0 C 4.38,12.071 -4.148,18.64 -2.519,29.607"
             style="fill:none;stroke:#231f20;stroke-width:0.75;stroke-linecap:butt;stroke-linejoin:miter;stroke-miterlimit:10;stroke-dasharray:none;stroke-opacity:1"
             id="path300" /></g><g
           id="g302"
           transform="translate(146.8408,611.8545)"><path
             d="m 0,0 c 0,-0.491 -0.101,-0.944 -0.305,-1.359 -0.193,-0.416 -0.465,-0.74 -0.813,-0.979 -0.347,-0.227 -0.719,-0.344 -1.121,-0.344 -0.588,0 -1.109,0.251 -1.557,0.751 -0.448,0.498 -0.672,1.143 -0.672,1.931 0,0.787 0.224,1.431 0.672,1.929 0.448,0.499 0.969,0.75 1.557,0.75 0.402,0 0.774,-0.118 1.121,-0.357 C -0.77,2.095 -0.498,1.773 -0.305,1.358 -0.101,0.943 0,0.49 0,0 m -0.37,0 c 0,0.599 -0.174,1.137 -0.518,1.613 -0.347,0.473 -0.796,0.709 -1.351,0.709 -0.512,0 -0.952,-0.227 -1.317,-0.684 C -3.919,1.187 -4.102,0.644 -4.102,0 c 0,-0.679 0.19,-1.234 0.572,-1.666 0.381,-0.43 0.813,-0.646 1.291,-0.646 0.555,0 1.004,0.232 1.351,0.698 0.344,0.476 0.518,1.01 0.518,1.614 m 2.699,-0.446 v -1.727 h 1.257 c 0.085,0 0.144,-0.017 0.177,-0.05 0.045,-0.033 0.065,-0.081 0.065,-0.14 0,-0.05 -0.02,-0.092 -0.065,-0.126 -0.033,-0.035 -0.092,-0.05 -0.177,-0.05 h -2.12 c -0.093,0 -0.156,0.015 -0.19,0.05 -0.034,0.034 -0.051,0.076 -0.051,0.126 0,0.059 0.017,0.107 0.051,0.14 0.034,0.033 0.097,0.05 0.19,0.05 H 1.961 V 2.195 H 1.466 c -0.093,0 -0.156,0.019 -0.19,0.05 -0.034,0.035 -0.051,0.082 -0.051,0.141 0,0.05 0.017,0.093 0.051,0.129 0.034,0.029 0.097,0.051 0.19,0.051 H 3.598 C 4.099,2.566 4.506,2.418 4.82,2.12 5.14,1.823 5.301,1.476 5.301,1.078 5.301,0.842 5.25,0.626 5.147,0.43 5.046,0.246 4.923,0.099 4.78,0 4.559,-0.169 4.332,-0.289 4.094,-0.356 3.926,-0.415 3.718,-0.446 3.471,-0.446 Z m 0,0.37 h 1.17 c 0.27,0 0.524,0.058 0.76,0.175 0.239,0.122 0.407,0.267 0.508,0.446 0.111,0.177 0.165,0.356 0.165,0.533 0,0.288 -0.12,0.547 -0.367,0.776 C 4.318,2.081 4.008,2.195 3.626,2.195 H 2.329 Z m 8.59,-4.915 H 6.043 c -0.084,0 -0.147,0.017 -0.19,0.051 -0.033,0.033 -0.05,0.081 -0.05,0.139 0,0.051 0.017,0.093 0.05,0.126 0.043,0.034 0.106,0.051 0.19,0.051 h 4.876 c 0.093,0 0.157,-0.017 0.191,-0.051 0.033,-0.033 0.05,-0.075 0.05,-0.126 0,-0.058 -0.017,-0.106 -0.05,-0.139 -0.034,-0.034 -0.098,-0.051 -0.191,-0.051 m 4.171,4.925 h -2.424 v -2.107 h 0.48 c 0.092,0 0.157,-0.017 0.191,-0.05 0.043,-0.033 0.064,-0.081 0.064,-0.14 0,-0.05 -0.021,-0.092 -0.064,-0.126 -0.034,-0.035 -0.099,-0.05 -0.191,-0.05 h -1.269 c -0.084,0 -0.148,0.015 -0.19,0.05 -0.034,0.034 -0.05,0.076 -0.05,0.126 0,0.059 0.016,0.107 0.05,0.14 0.042,0.033 0.106,0.05 0.19,0.05 h 0.42 v 4.368 h -0.229 c -0.092,0 -0.16,0.019 -0.201,0.05 -0.036,0.035 -0.054,0.082 -0.054,0.141 0,0.05 0.018,0.093 0.054,0.129 0.041,0.029 0.109,0.051 0.201,0.051 h 1.078 c 0.092,0 0.157,-0.022 0.191,-0.051 0.043,-0.036 0.064,-0.079 0.064,-0.129 0,-0.059 -0.021,-0.106 -0.064,-0.141 -0.034,-0.031 -0.099,-0.05 -0.191,-0.05 h -0.48 V 0.291 h 2.424 v 1.904 h -0.483 c -0.093,0 -0.159,0.019 -0.202,0.05 -0.034,0.035 -0.051,0.082 -0.051,0.141 0,0.05 0.017,0.093 0.051,0.129 0.043,0.029 0.109,0.051 0.202,0.051 h 1.081 c 0.093,0 0.157,-0.022 0.19,-0.051 C 15.92,2.479 15.94,2.436 15.94,2.386 15.94,2.327 15.92,2.28 15.878,2.245 15.845,2.214 15.781,2.195 15.688,2.195 h -0.23 v -4.368 h 0.42 c 0.084,0 0.143,-0.017 0.177,-0.05 0.043,-0.033 0.065,-0.081 0.065,-0.14 0,-0.05 -0.022,-0.092 -0.065,-0.126 -0.034,-0.035 -0.093,-0.05 -0.177,-0.05 h -1.271 c -0.093,0 -0.159,0.015 -0.202,0.05 -0.034,0.034 -0.051,0.076 -0.051,0.126 0,0.059 0.017,0.107 0.051,0.14 0.043,0.033 0.109,0.05 0.202,0.05 h 0.483 z m 5.327,-0.772 H 18.016 L 17.52,-2.173 h 0.701 c 0.084,0 0.143,-0.017 0.177,-0.05 0.041,-0.033 0.064,-0.081 0.064,-0.14 0,-0.05 -0.023,-0.092 -0.064,-0.126 -0.034,-0.035 -0.093,-0.05 -0.177,-0.05 h -1.373 c -0.084,0 -0.149,0.015 -0.19,0.05 -0.034,0.034 -0.051,0.076 -0.051,0.126 0,0.059 0.017,0.107 0.051,0.14 0.041,0.033 0.106,0.05 0.19,0.05 h 0.279 l 1.626,4.368 h -1.079 c -0.091,0 -0.162,0.019 -0.204,0.05 -0.034,0.035 -0.051,0.082 -0.051,0.141 0,0.05 0.017,0.093 0.051,0.129 0.042,0.029 0.113,0.051 0.204,0.051 h 1.842 l 1.79,-4.739 h 0.28 c 0.092,0 0.157,-0.017 0.191,-0.05 0.041,-0.033 0.061,-0.081 0.061,-0.14 0,-0.05 -0.02,-0.092 -0.061,-0.126 -0.034,-0.035 -0.099,-0.05 -0.191,-0.05 h -1.358 c -0.096,0 -0.163,0.015 -0.206,0.05 -0.034,0.034 -0.05,0.076 -0.05,0.126 0,0.059 0.016,0.107 0.05,0.14 0.043,0.033 0.11,0.05 0.206,0.05 h 0.696 z m -0.138,0.366 -1.006,2.667 h -0.138 l -0.978,-2.667 z m 5.617,2.667 v 0.127 c 0,0.089 0.013,0.147 0.038,0.178 0.034,0.041 0.079,0.066 0.141,0.066 0.058,0 0.101,-0.025 0.126,-0.066 0.034,-0.031 0.05,-0.089 0.05,-0.178 V 1.383 c 0,-0.084 -0.016,-0.149 -0.05,-0.191 -0.025,-0.033 -0.068,-0.049 -0.126,-0.049 -0.054,0 -0.096,0.016 -0.128,0.049 -0.035,0.035 -0.051,0.093 -0.051,0.177 -0.019,0.246 -0.144,0.468 -0.381,0.661 -0.235,0.197 -0.55,0.292 -0.938,0.292 -0.4,0 -0.721,-0.103 -0.969,-0.316 -0.234,-0.214 -0.355,-0.458 -0.355,-0.737 0,-0.143 0.037,-0.275 0.103,-0.393 0.068,-0.12 0.157,-0.216 0.267,-0.294 0.109,-0.076 0.233,-0.134 0.367,-0.176 0.145,-0.042 0.364,-0.09 0.661,-0.141 0.498,-0.084 0.843,-0.168 1.029,-0.255 0.254,-0.109 0.446,-0.265 0.571,-0.467 0.134,-0.206 0.201,-0.44 0.201,-0.712 0,-0.423 -0.166,-0.783 -0.505,-1.08 -0.331,-0.288 -0.78,-0.433 -1.346,-0.433 -0.637,0 -1.149,0.2 -1.539,0.599 v -0.216 c 0,-0.086 -0.017,-0.147 -0.05,-0.19 -0.026,-0.035 -0.067,-0.05 -0.126,-0.05 -0.05,0 -0.093,0.015 -0.127,0.05 -0.031,0.043 -0.05,0.104 -0.05,0.19 v 1.015 c 0,0.093 0.019,0.157 0.05,0.191 0.034,0.041 0.077,0.065 0.127,0.065 0.05,0 0.093,-0.024 0.126,-0.065 0.033,-0.034 0.05,-0.09 0.05,-0.166 0.018,-0.268 0.164,-0.516 0.435,-0.737 0.268,-0.209 0.638,-0.316 1.104,-0.316 0.457,0 0.815,0.114 1.079,0.345 0.272,0.226 0.405,0.499 0.405,0.811 0,0.195 -0.05,0.363 -0.151,0.509 -0.103,0.15 -0.254,0.27 -0.457,0.354 -0.136,0.068 -0.429,0.141 -0.876,0.217 C 24,0.026 23.564,0.175 23.292,0.38 c -0.271,0.21 -0.406,0.513 -0.406,0.902 0,0.382 0.151,0.706 0.457,0.979 0.313,0.276 0.72,0.418 1.218,0.418 0.518,0 0.961,-0.159 1.335,-0.484 m 5.287,-2.261 h -2.424 v -2.107 h 0.482 c 0.092,0 0.157,-0.017 0.19,-0.05 0.041,-0.033 0.066,-0.081 0.066,-0.14 0,-0.05 -0.025,-0.092 -0.066,-0.126 -0.033,-0.035 -0.098,-0.05 -0.19,-0.05 h -1.27 c -0.084,0 -0.148,0.015 -0.19,0.05 -0.034,0.034 -0.051,0.076 -0.051,0.126 0,0.059 0.017,0.107 0.051,0.14 0.042,0.033 0.106,0.05 0.19,0.05 h 0.418 v 4.368 h -0.227 c -0.093,0 -0.162,0.019 -0.204,0.05 -0.034,0.035 -0.05,0.082 -0.05,0.141 0,0.05 0.016,0.093 0.05,0.129 0.042,0.029 0.111,0.051 0.204,0.051 h 1.079 c 0.092,0 0.157,-0.022 0.19,-0.051 0.041,-0.036 0.066,-0.079 0.066,-0.129 0,-0.059 -0.025,-0.106 -0.066,-0.141 -0.033,-0.031 -0.098,-0.05 -0.19,-0.05 H 28.759 V 0.291 h 2.424 V 2.195 H 30.7 c -0.093,0 -0.159,0.019 -0.201,0.05 -0.034,0.035 -0.051,0.082 -0.051,0.141 0,0.05 0.017,0.093 0.051,0.129 0.042,0.029 0.108,0.051 0.201,0.051 h 1.079 c 0.095,0 0.157,-0.022 0.19,-0.051 0.046,-0.036 0.065,-0.079 0.065,-0.129 0,-0.059 -0.019,-0.106 -0.065,-0.141 -0.033,-0.031 -0.095,-0.05 -0.19,-0.05 h -0.227 v -4.368 h 0.417 c 0.088,0 0.146,-0.017 0.18,-0.05 0.043,-0.033 0.064,-0.081 0.064,-0.14 0,-0.05 -0.021,-0.092 -0.064,-0.126 -0.034,-0.035 -0.092,-0.05 -0.18,-0.05 H 30.7 c -0.093,0 -0.159,0.015 -0.201,0.05 -0.034,0.034 -0.051,0.076 -0.051,0.126 0,0.059 0.017,0.107 0.051,0.14 0.042,0.033 0.108,0.05 0.201,0.05 h 0.483 z m 4.311,3.075 v -5.182 h 1.258 c 0.085,0 0.144,-0.017 0.177,-0.05 0.042,-0.033 0.064,-0.081 0.064,-0.14 0,-0.05 -0.022,-0.092 -0.064,-0.126 -0.033,-0.035 -0.092,-0.05 -0.177,-0.05 h -2.883 c -0.093,0 -0.162,0.015 -0.205,0.05 -0.034,0.034 -0.05,0.076 -0.05,0.126 0,0.059 0.016,0.107 0.05,0.14 0.043,0.033 0.112,0.05 0.205,0.05 h 1.259 V 2.5 L 33.919,2.131 c -0.05,-0.016 -0.093,-0.025 -0.125,-0.025 -0.042,0 -0.082,0.018 -0.116,0.051 -0.032,0.032 -0.051,0.078 -0.051,0.128 0,0.042 0.014,0.085 0.037,0.128 0.025,0.023 0.08,0.051 0.154,0.073 z m 4.082,-3.226 c 0.228,0.331 0.463,0.575 0.697,0.738 0.248,0.16 0.514,0.24 0.802,0.24 0.391,0 0.735,-0.165 1.042,-0.496 0.303,-0.322 0.455,-0.72 0.455,-1.193 0,-0.441 -0.138,-0.841 -0.418,-1.206 -0.272,-0.355 -0.653,-0.531 -1.143,-0.531 -0.314,0 -0.61,0.093 -0.887,0.288 -0.273,0.196 -0.49,0.496 -0.648,0.903 -0.196,0.501 -0.293,1.053 -0.293,1.663 0,0.466 0.093,0.894 0.279,1.284 0.135,0.302 0.316,0.571 0.546,0.799 0.239,0.241 0.513,0.427 0.826,0.572 0.312,0.154 0.647,0.229 1.004,0.229 0.243,0 0.448,-0.051 0.61,-0.155 0.073,-0.043 0.114,-0.101 0.114,-0.176 0,-0.051 -0.019,-0.095 -0.051,-0.123 C 42.476,2.58 42.434,2.566 42.38,2.566 c -0.031,0 -0.074,0.014 -0.125,0.053 -0.126,0.058 -0.28,0.082 -0.456,0.082 -0.567,0 -1.085,-0.24 -1.55,-0.735 -0.465,-0.49 -0.697,-1.071 -0.697,-1.737 0,-0.096 0.009,-0.245 0.024,-0.446 m 0.091,-0.611 c 0.108,-0.531 0.282,-0.913 0.518,-1.139 0.236,-0.223 0.519,-0.332 0.838,-0.332 0.321,0 0.597,0.126 0.827,0.382 0.236,0.251 0.355,0.583 0.355,0.989 0,0.382 -0.119,0.695 -0.355,0.938 -0.23,0.255 -0.491,0.381 -0.788,0.381 -0.28,0 -0.55,-0.12 -0.813,-0.365 -0.176,-0.153 -0.373,-0.439 -0.582,-0.854 m 8.055,1.474 v -0.901 c 0,-0.788 -0.19,-1.412 -0.573,-1.879 -0.287,-0.355 -0.654,-0.531 -1.102,-0.531 -0.223,0 -0.428,0.036 -0.623,0.126 -0.188,0.084 -0.348,0.201 -0.484,0.352 -0.077,0.104 -0.163,0.262 -0.266,0.472 -0.101,0.213 -0.175,0.406 -0.216,0.585 -0.068,0.244 -0.102,0.534 -0.102,0.875 v 0.901 c 0,0.796 0.186,1.424 0.558,1.881 0.297,0.365 0.67,0.546 1.117,0.546 0.223,0 0.424,-0.048 0.613,-0.141 0.184,-0.083 0.346,-0.202 0.481,-0.354 0.083,-0.095 0.176,-0.251 0.28,-0.472 0.101,-0.21 0.175,-0.4 0.217,-0.571 0.066,-0.253 0.1,-0.55 0.1,-0.889 M 47.354,0.607 c 0,0.339 -0.053,0.66 -0.154,0.953 -0.093,0.305 -0.202,0.546 -0.33,0.725 -0.067,0.101 -0.161,0.186 -0.277,0.252 -0.171,0.11 -0.357,0.164 -0.562,0.164 -0.405,0 -0.727,-0.209 -0.963,-0.631 C 44.84,1.655 44.723,1.167 44.723,0.607 v -0.812 c 0,-0.345 0.048,-0.673 0.14,-0.978 0.104,-0.294 0.213,-0.532 0.331,-0.71 0.076,-0.095 0.172,-0.179 0.281,-0.254 0.167,-0.102 0.359,-0.152 0.572,-0.152 0.405,0 0.722,0.208 0.951,0.623 0.237,0.423 0.356,0.912 0.356,1.471 z M 54.512,0 58.475,2.21 c 0.058,0.033 0.107,0.051 0.139,0.051 0.051,0 0.094,-0.018 0.129,-0.051 0.045,-0.037 0.063,-0.079 0.063,-0.129 0,-0.075 -0.05,-0.14 -0.151,-0.19 L 55.251,0 58.655,-1.881 c 0.093,-0.059 0.141,-0.122 0.141,-0.191 0,-0.05 -0.019,-0.095 -0.053,-0.138 -0.035,-0.036 -0.078,-0.052 -0.129,-0.052 -0.032,0 -0.083,0.016 -0.15,0.052 z m 8.933,2.195 v 0.127 c 0,0.089 0.014,0.147 0.04,0.178 0.035,0.041 0.081,0.066 0.141,0.066 0.059,0 0.1,-0.025 0.124,-0.066 0.035,-0.031 0.052,-0.089 0.052,-0.178 V 1.383 c 0,-0.084 -0.017,-0.149 -0.052,-0.191 -0.024,-0.033 -0.065,-0.049 -0.124,-0.049 -0.05,0 -0.093,0.016 -0.128,0.049 -0.037,0.035 -0.053,0.093 -0.053,0.177 -0.016,0.246 -0.142,0.468 -0.382,0.661 -0.233,0.197 -0.547,0.292 -0.936,0.292 -0.399,0 -0.721,-0.103 -0.965,-0.316 -0.239,-0.214 -0.354,-0.458 -0.354,-0.737 0,-0.143 0.031,-0.275 0.1,-0.393 0.066,-0.12 0.156,-0.216 0.265,-0.294 0.11,-0.076 0.233,-0.134 0.371,-0.176 0.142,-0.042 0.364,-0.09 0.657,-0.141 0.502,-0.084 0.844,-0.168 1.028,-0.255 0.256,-0.109 0.446,-0.265 0.573,-0.467 0.136,-0.206 0.203,-0.44 0.203,-0.712 0,-0.423 -0.17,-0.783 -0.507,-1.08 -0.33,-0.288 -0.777,-0.433 -1.347,-0.433 -0.634,0 -1.146,0.2 -1.536,0.599 v -0.216 c 0,-0.086 -0.016,-0.147 -0.051,-0.19 -0.023,-0.035 -0.069,-0.05 -0.127,-0.05 -0.051,0 -0.093,0.015 -0.126,0.05 -0.034,0.043 -0.051,0.104 -0.051,0.19 v 1.015 c 0,0.093 0.017,0.157 0.051,0.191 0.033,0.041 0.075,0.065 0.126,0.065 0.05,0 0.095,-0.024 0.127,-0.065 0.035,-0.034 0.051,-0.09 0.051,-0.166 0.017,-0.268 0.16,-0.516 0.432,-0.737 0.272,-0.209 0.639,-0.316 1.104,-0.316 0.457,0 0.819,0.114 1.078,0.345 0.271,0.226 0.408,0.499 0.408,0.811 0,0.195 -0.051,0.363 -0.152,0.509 -0.101,0.15 -0.256,0.27 -0.456,0.354 -0.138,0.068 -0.429,0.141 -0.878,0.217 -0.6,0.102 -1.036,0.251 -1.308,0.456 -0.27,0.21 -0.406,0.513 -0.406,0.902 0,0.382 0.154,0.706 0.456,0.979 0.314,0.276 0.72,0.418 1.222,0.418 0.515,0 0.958,-0.159 1.33,-0.484 m 5.29,-2.261 H 66.31 v -2.107 h 0.482 c 0.094,0 0.156,-0.017 0.19,-0.05 0.044,-0.033 0.064,-0.081 0.064,-0.14 0,-0.05 -0.02,-0.092 -0.064,-0.126 -0.034,-0.035 -0.096,-0.05 -0.19,-0.05 h -1.27 c -0.084,0 -0.149,0.015 -0.191,0.05 -0.033,0.034 -0.05,0.076 -0.05,0.126 0,0.059 0.017,0.107 0.05,0.14 0.042,0.033 0.107,0.05 0.191,0.05 h 0.42 v 4.368 h -0.23 c -0.092,0 -0.16,0.019 -0.201,0.05 -0.034,0.035 -0.049,0.082 -0.049,0.141 0,0.05 0.015,0.093 0.049,0.129 0.041,0.029 0.109,0.051 0.201,0.051 h 1.08 c 0.094,0 0.156,-0.022 0.19,-0.051 0.044,-0.036 0.064,-0.079 0.064,-0.129 0,-0.059 -0.02,-0.106 -0.064,-0.141 -0.034,-0.031 -0.096,-0.05 -0.19,-0.05 H 66.31 V 0.291 h 2.425 V 2.195 H 68.254 C 68.16,2.195 68.09,2.214 68.05,2.245 68.016,2.28 68,2.327 68,2.386 c 0,0.05 0.016,0.093 0.05,0.129 0.04,0.029 0.11,0.051 0.204,0.051 h 1.079 c 0.092,0 0.156,-0.022 0.191,-0.051 0.041,-0.036 0.06,-0.079 0.06,-0.129 0,-0.059 -0.019,-0.106 -0.06,-0.141 -0.035,-0.031 -0.099,-0.05 -0.191,-0.05 h -0.23 v -4.368 h 0.421 c 0.082,0 0.142,-0.017 0.175,-0.05 0.043,-0.033 0.065,-0.081 0.065,-0.14 0,-0.05 -0.022,-0.092 -0.065,-0.126 -0.033,-0.035 -0.093,-0.05 -0.175,-0.05 h -1.27 c -0.094,0 -0.164,0.015 -0.204,0.05 -0.034,0.034 -0.05,0.076 -0.05,0.126 0,0.059 0.016,0.107 0.05,0.14 0.04,0.033 0.11,0.05 0.204,0.05 h 0.481 z M 75.115,0 71.154,-2.21 c -0.068,-0.036 -0.119,-0.052 -0.152,-0.052 -0.05,0 -0.093,0.016 -0.129,0.052 -0.034,0.043 -0.05,0.088 -0.05,0.138 0,0.069 0.05,0.132 0.154,0.191 L 74.368,0 70.977,1.891 c -0.104,0.05 -0.154,0.115 -0.154,0.19 0,0.05 0.016,0.092 0.05,0.129 0.043,0.033 0.091,0.051 0.141,0.051 0.025,0 0.072,-0.018 0.14,-0.051 z m 10.718,0 c 0,-0.491 -0.104,-0.944 -0.305,-1.359 -0.196,-0.416 -0.465,-0.74 -0.812,-0.979 -0.349,-0.227 -0.72,-0.344 -1.118,-0.344 -0.592,0 -1.114,0.251 -1.562,0.751 -0.448,0.498 -0.676,1.143 -0.676,1.931 0,0.787 0.228,1.431 0.676,1.929 0.448,0.499 0.97,0.75 1.562,0.75 0.398,0 0.769,-0.118 1.118,-0.357 C 85.063,2.095 85.332,1.773 85.528,1.358 85.729,0.943 85.833,0.49 85.833,0 m -0.371,0 c 0,0.599 -0.174,1.137 -0.521,1.613 -0.345,0.473 -0.795,0.709 -1.343,0.709 -0.518,0 -0.956,-0.227 -1.322,-0.684 C 81.914,1.187 81.73,0.644 81.73,0 c 0,-0.679 0.191,-1.234 0.572,-1.666 0.381,-0.43 0.813,-0.646 1.296,-0.646 0.548,0 0.998,0.232 1.343,0.698 0.347,0.476 0.521,1.01 0.521,1.614 m 2.698,-0.446 v -1.727 h 1.258 c 0.084,0 0.144,-0.017 0.178,-0.05 0.042,-0.033 0.063,-0.081 0.063,-0.14 0,-0.05 -0.021,-0.092 -0.063,-0.126 -0.034,-0.035 -0.094,-0.05 -0.178,-0.05 h -2.119 c -0.094,0 -0.157,0.015 -0.193,0.05 -0.031,0.034 -0.049,0.076 -0.049,0.126 0,0.059 0.018,0.107 0.049,0.14 0.036,0.033 0.099,0.05 0.193,0.05 h 0.495 v 4.368 h -0.495 c -0.094,0 -0.157,0.019 -0.193,0.05 -0.031,0.035 -0.049,0.082 -0.049,0.141 0,0.05 0.018,0.093 0.049,0.129 0.036,0.029 0.099,0.051 0.193,0.051 h 2.131 c 0.502,0 0.908,-0.148 1.219,-0.446 0.323,-0.297 0.484,-0.644 0.484,-1.042 0,-0.236 -0.05,-0.452 -0.153,-0.648 C 90.879,0.246 90.756,0.099 90.613,0 c -0.222,-0.169 -0.448,-0.289 -0.688,-0.356 -0.168,-0.059 -0.374,-0.09 -0.62,-0.09 z m 0,0.37 h 1.17 c 0.271,0 0.524,0.058 0.762,0.175 0.238,0.122 0.406,0.267 0.507,0.446 0.112,0.177 0.166,0.356 0.166,0.533 0,0.288 -0.125,0.547 -0.369,0.776 -0.246,0.227 -0.559,0.341 -0.941,0.341 H 88.16 Z m 8.592,-4.915 h -4.876 c -0.087,0 -0.148,0.017 -0.19,0.051 -0.034,0.033 -0.05,0.081 -0.05,0.139 0,0.051 0.016,0.093 0.05,0.126 0.042,0.034 0.103,0.051 0.19,0.051 h 4.876 c 0.091,0 0.156,-0.017 0.19,-0.051 0.035,-0.033 0.05,-0.075 0.05,-0.126 0,-0.058 -0.015,-0.106 -0.05,-0.139 -0.034,-0.034 -0.099,-0.051 -0.19,-0.051 m 1.73,4.915 v -2.097 h 2.82 v 1.08 c 0,0.084 0.018,0.145 0.055,0.178 0.031,0.043 0.075,0.062 0.136,0.062 0.051,0 0.094,-0.019 0.127,-0.062 0.035,-0.033 0.052,-0.094 0.052,-0.178 v -1.446 h -4.037 c -0.093,0 -0.164,0.015 -0.205,0.05 -0.035,0.034 -0.052,0.076 -0.052,0.126 0,0.059 0.017,0.107 0.052,0.14 0.041,0.033 0.112,0.05 0.205,0.05 h 0.482 v 4.368 h -0.482 c -0.093,0 -0.164,0.019 -0.205,0.05 -0.035,0.035 -0.052,0.082 -0.052,0.141 0,0.05 0.017,0.093 0.052,0.129 0.041,0.029 0.112,0.051 0.205,0.051 h 3.846 V 1.308 c 0,-0.085 -0.015,-0.149 -0.052,-0.192 -0.031,-0.033 -0.072,-0.05 -0.127,-0.05 -0.06,0 -0.104,0.017 -0.135,0.05 -0.038,0.043 -0.052,0.107 -0.052,0.192 V 2.195 H 98.482 V 0.291 h 1.323 V 0.71 c 0,0.084 0.019,0.144 0.05,0.178 0.034,0.042 0.078,0.064 0.128,0.064 0.059,0 0.106,-0.022 0.139,-0.064 0.034,-0.034 0.05,-0.094 0.05,-0.178 v -1.194 c 0,-0.091 -0.016,-0.162 -0.05,-0.204 -0.033,-0.033 -0.08,-0.05 -0.139,-0.05 -0.05,0 -0.094,0.017 -0.128,0.05 -0.031,0.042 -0.05,0.113 -0.05,0.204 v 0.408 z m 6.61,-2.606 -0.48,-0.367 c 0.237,0.05 0.436,0.076 0.596,0.076 0.255,0 0.505,-0.045 0.747,-0.138 0.179,-0.07 0.313,-0.103 0.405,-0.103 0.174,0 0.363,0.07 0.572,0.203 0.078,0.051 0.133,0.077 0.166,0.077 0.057,0 0.103,-0.018 0.128,-0.051 0.033,-0.033 0.053,-0.075 0.053,-0.126 0,-0.053 -0.016,-0.09 -0.042,-0.115 -0.056,-0.076 -0.198,-0.162 -0.419,-0.255 -0.159,-0.067 -0.317,-0.102 -0.468,-0.102 -0.127,0 -0.301,0.041 -0.52,0.116 -0.212,0.076 -0.422,0.115 -0.622,0.115 -0.136,0 -0.311,-0.019 -0.523,-0.053 -0.295,-0.051 -0.53,-0.095 -0.71,-0.137 -0.059,-0.02 -0.101,-0.028 -0.126,-0.028 -0.05,0 -0.092,0.019 -0.129,0.053 -0.03,0.034 -0.049,0.078 -0.049,0.137 0,0.062 0.035,0.112 0.101,0.154 l 0.812,0.594 c -0.481,0.12 -0.894,0.418 -1.243,0.891 -0.348,0.482 -0.52,1.062 -0.52,1.741 0,0.787 0.223,1.431 0.672,1.929 0.447,0.499 0.967,0.75 1.563,0.75 0.59,0 1.111,-0.251 1.561,-0.75 0.448,-0.498 0.673,-1.142 0.673,-1.929 0,-0.78 -0.225,-1.418 -0.673,-1.917 -0.442,-0.502 -0.946,-0.758 -1.525,-0.765 M 106.921,0 c 0,0.599 -0.171,1.137 -0.52,1.613 -0.349,0.473 -0.794,0.709 -1.345,0.709 -0.517,0 -0.958,-0.227 -1.324,-0.684 C 103.37,1.187 103.186,0.644 103.186,0 c 0,-0.679 0.191,-1.234 0.574,-1.666 0.38,-0.43 0.811,-0.646 1.296,-0.646 0.551,0 0.996,0.232 1.345,0.698 0.349,0.476 0.52,1.01 0.52,1.614 m 5.263,2.195 v -3.06 c 0,-0.518 -0.175,-0.948 -0.521,-1.292 -0.337,-0.348 -0.752,-0.525 -1.244,-0.525 -0.321,0 -0.609,0.072 -0.864,0.203 -0.253,0.146 -0.47,0.363 -0.647,0.648 -0.178,0.298 -0.267,0.62 -0.267,0.966 v 3.06 h -0.306 c -0.091,0 -0.154,0.019 -0.191,0.05 -0.032,0.035 -0.047,0.082 -0.047,0.141 0,0.05 0.015,0.097 0.047,0.141 0.037,0.023 0.1,0.039 0.191,0.039 h 1.348 c 0.095,0 0.157,-0.022 0.189,-0.051 0.042,-0.036 0.063,-0.079 0.063,-0.129 0,-0.059 -0.021,-0.106 -0.063,-0.141 -0.032,-0.031 -0.094,-0.05 -0.189,-0.05 h -0.675 v -3.06 c 0,-0.406 0.132,-0.749 0.408,-1.028 0.281,-0.28 0.609,-0.419 0.992,-0.419 0.242,0 0.465,0.056 0.659,0.165 0.202,0.109 0.378,0.281 0.519,0.507 0.154,0.229 0.231,0.488 0.231,0.775 v 3.06 h -0.676 c -0.085,0 -0.146,0.019 -0.186,0.05 -0.038,0.035 -0.053,0.082 -0.053,0.141 0,0.05 0.015,0.093 0.053,0.129 0.04,0.029 0.101,0.051 0.186,0.051 h 1.348 c 0.093,0 0.158,-0.022 0.192,-0.051 0.04,-0.036 0.063,-0.079 0.063,-0.129 0,-0.059 -0.023,-0.106 -0.063,-0.141 -0.034,-0.031 -0.099,-0.05 -0.192,-0.05 z m 4.793,-3.033 h -2.4 l -0.497,-1.335 h 0.703 c 0.084,0 0.14,-0.017 0.174,-0.05 0.043,-0.033 0.065,-0.081 0.065,-0.14 0,-0.05 -0.022,-0.092 -0.065,-0.126 -0.034,-0.035 -0.09,-0.05 -0.174,-0.05 h -1.373 c -0.086,0 -0.152,0.015 -0.193,0.05 -0.032,0.034 -0.049,0.076 -0.049,0.126 0,0.059 0.017,0.107 0.049,0.14 0.041,0.033 0.107,0.05 0.193,0.05 h 0.278 l 1.626,4.368 h -1.078 c -0.094,0 -0.164,0.019 -0.206,0.05 -0.034,0.035 -0.049,0.082 -0.049,0.141 0,0.05 0.015,0.093 0.049,0.129 0.042,0.029 0.112,0.051 0.206,0.051 h 1.839 l 1.793,-4.739 h 0.279 c 0.091,0 0.158,-0.017 0.19,-0.05 0.041,-0.033 0.062,-0.081 0.062,-0.14 0,-0.05 -0.021,-0.092 -0.062,-0.126 -0.032,-0.035 -0.099,-0.05 -0.19,-0.05 h -1.358 c -0.092,0 -0.165,0.015 -0.206,0.05 -0.035,0.034 -0.051,0.076 -0.051,0.126 0,0.059 0.016,0.107 0.051,0.14 0.041,0.033 0.114,0.05 0.206,0.05 h 0.696 z m -0.14,0.366 -1.002,2.667 h -0.141 l -0.979,-2.667 z m 3.663,2.667 v -4.368 h 2.438 v 1.46 c 0,0.085 0.016,0.146 0.053,0.18 0.036,0.042 0.078,0.061 0.137,0.061 0.052,0 0.095,-0.019 0.129,-0.061 0.032,-0.034 0.049,-0.095 0.049,-0.18 v -1.826 h -4.05 c -0.082,0 -0.151,0.015 -0.188,0.05 -0.036,0.034 -0.055,0.076 -0.055,0.126 0,0.059 0.019,0.107 0.055,0.14 0.037,0.033 0.106,0.05 0.188,0.05 h 0.875 v 4.368 h -0.875 c -0.082,0 -0.151,0.019 -0.188,0.05 -0.036,0.035 -0.055,0.082 -0.055,0.141 0,0.05 0.019,0.093 0.055,0.129 0.037,0.029 0.106,0.051 0.188,0.051 h 2.122 c 0.081,0 0.142,-0.022 0.175,-0.051 0.046,-0.036 0.066,-0.079 0.066,-0.129 0,-0.059 -0.02,-0.106 -0.066,-0.141 -0.033,-0.031 -0.094,-0.05 -0.175,-0.05 z"
             style="fill:#231f20;fill-opacity:1;fill-rule:nonzero;stroke:none"
             id="path304" /></g><g
           id="g306"
           transform="translate(220.9922,648.7734)"><path
             d="m 0,0 c 0,-1.1 -0.9,-2 -2,-2 h -16.413 c -1.1,0 -2,0.9 -2,2 v 10.148 c 0,1.101 0.9,2 2,2 H -2 c 1.1,0 2,-0.899 2,-2 z"
             style="fill:#ffffff;fill-opacity:1;fill-rule:evenodd;stroke:none"
             id="path308" /></g><g
           id="g310"
           transform="translate(220.9922,648.7734)"><path
             d="m 0,0 c 0,-1.1 -0.9,-2 -2,-2 h -16.413 c -1.1,0 -2,0.9 -2,2 v 10.148 c 0,1.101 0.9,2 2,2 H -2 c 1.1,0 2,-0.899 2,-2 z"
             style="fill:none;stroke:#d39886;stroke-width:0.5;stroke-linecap:butt;stroke-linejoin:miter;stroke-miterlimit:4;stroke-dasharray:none;stroke-opacity:1"
             id="path312" /></g><text
           transform="matrix(1,0,0,-1,203.5845,650.6992)"
           style="font-variant:normal;font-weight:normal;font-stretch:normal;font-size:11.5px;font-family:Courier;-inkscape-font-specification:Courier;writing-mode:lr-tb;fill:#231f20;fill-opacity:1;fill-rule:nonzero;stroke:none"
           id="text316"><tspan
             x="0 6.9000001"
             y="0"
             sodipodi:role="line"
             id="tspan314">SH</tspan></text><g
           id="g318"
           transform="translate(354.3027,650.8848)"><path
             d="m 0,0 c 0,0.069 0.016,0.119 0.045,0.146 0.029,0.045 0.072,0.063 0.119,0.063 0.041,0 0.076,-0.018 0.107,-0.063 0.03,-0.027 0.042,-0.081 0.042,-0.162 v -0.542 c 0,-0.07 -0.012,-0.123 -0.042,-0.165 -0.031,-0.028 -0.066,-0.045 -0.107,-0.045 -0.047,0 -0.09,0.017 -0.119,0.045 C 0.025,-0.69 0.008,-0.648 0,-0.589 -0.01,-0.436 -0.084,-0.311 -0.225,-0.209 -0.434,-0.073 -0.713,0 -1.053,0 c -0.351,0 -0.621,-0.073 -0.812,-0.209 -0.149,-0.115 -0.229,-0.233 -0.229,-0.363 0,-0.151 0.088,-0.276 0.258,-0.373 0.123,-0.073 0.352,-0.127 0.695,-0.168 0.442,-0.05 0.748,-0.108 0.916,-0.166 0.241,-0.089 0.418,-0.215 0.538,-0.378 0.126,-0.152 0.185,-0.315 0.185,-0.494 0,-0.259 -0.131,-0.497 -0.394,-0.708 -0.26,-0.209 -0.639,-0.314 -1.141,-0.314 -0.494,0 -0.899,0.124 -1.221,0.375 0,-0.082 -0.004,-0.138 -0.013,-0.167 -0.006,-0.021 -0.028,-0.04 -0.061,-0.059 -0.02,-0.021 -0.047,-0.031 -0.086,-0.031 -0.045,0 -0.078,0.018 -0.109,0.047 -0.03,0.041 -0.043,0.093 -0.043,0.167 v 0.646 c 0,0.079 0.013,0.132 0.043,0.163 0.031,0.03 0.064,0.045 0.109,0.045 0.047,0 0.086,-0.015 0.119,-0.045 0.028,-0.031 0.041,-0.07 0.041,-0.119 0,-0.121 0.028,-0.216 0.094,-0.286 0.088,-0.12 0.228,-0.219 0.424,-0.303 0.187,-0.079 0.424,-0.119 0.703,-0.119 0.41,0 0.717,0.077 0.916,0.227 0.199,0.148 0.303,0.31 0.303,0.481 0,0.201 -0.108,0.36 -0.319,0.48 -0.201,0.11 -0.494,0.186 -0.886,0.227 -0.393,0.039 -0.672,0.09 -0.842,0.149 -0.17,0.072 -0.305,0.173 -0.406,0.302 -0.088,0.128 -0.135,0.27 -0.135,0.421 0,0.269 0.131,0.485 0.392,0.648 0.274,0.158 0.584,0.237 0.946,0.237 0.441,0 0.8,-0.104 1.068,-0.313 m 4.889,-0.122 v 0.106 c 0,0.081 0.015,0.135 0.047,0.162 0.027,0.045 0.07,0.063 0.119,0.063 0.05,0 0.091,-0.018 0.119,-0.063 C 5.203,0.119 5.225,0.065 5.225,-0.016 V -0.723 C 5.213,-0.803 5.189,-0.857 5.162,-0.887 5.143,-0.917 5.105,-0.933 5.055,-0.933 c -0.039,0 -0.076,0.01 -0.104,0.029 C 4.92,-0.874 4.9,-0.823 4.889,-0.751 4.879,-0.572 4.766,-0.402 4.545,-0.243 4.326,-0.082 4.031,0 3.662,0 3.188,0 2.83,-0.15 2.592,-0.451 2.348,-0.741 2.229,-1.072 2.229,-1.444 c 0,-0.413 0.126,-0.751 0.392,-1.022 0.268,-0.263 0.621,-0.393 1.051,-0.393 0.244,0 0.488,0.047 0.738,0.136 0.262,0.091 0.494,0.236 0.705,0.435 0.051,0.05 0.098,0.076 0.139,0.076 0.037,0 0.076,-0.015 0.103,-0.047 0.03,-0.029 0.043,-0.063 0.043,-0.1 0,-0.114 -0.121,-0.247 -0.371,-0.41 -0.416,-0.268 -0.869,-0.404 -1.367,-0.404 -0.514,0 -0.935,0.159 -1.266,0.482 -0.32,0.332 -0.484,0.741 -0.484,1.231 0,0.515 0.168,0.933 0.498,1.262 0.342,0.342 0.76,0.511 1.262,0.511 0.49,0 0.898,-0.142 1.217,-0.435 m 2.943,0.331 v -0.798 c 0.408,0.373 0.705,0.609 0.916,0.708 0.195,0.113 0.385,0.165 0.568,0.165 0.18,0 0.352,-0.063 0.512,-0.196 0.168,-0.119 0.256,-0.217 0.256,-0.286 0,-0.051 -0.021,-0.089 -0.063,-0.118 -0.029,-0.029 -0.062,-0.048 -0.103,-0.048 -0.031,0 -0.059,0.005 -0.076,0.019 -0.01,0.008 -0.039,0.038 -0.094,0.088 -0.084,0.08 -0.168,0.135 -0.234,0.166 -0.061,0.041 -0.123,0.06 -0.186,0.06 -0.14,0 -0.307,-0.056 -0.512,-0.167 C 8.631,-0.307 8.293,-0.579 7.832,-1.006 V -2.74 h 1.395 c 0.07,0 0.117,-0.012 0.154,-0.042 0.035,-0.03 0.055,-0.068 0.055,-0.106 0,-0.05 -0.02,-0.09 -0.055,-0.12 C 9.344,-3.037 9.297,-3.055 9.227,-3.055 H 6.744 c -0.078,0 -0.137,0.018 -0.162,0.047 -0.035,0.03 -0.051,0.063 -0.051,0.102 0,0.054 0.016,0.087 0.051,0.108 0.025,0.029 0.084,0.046 0.162,0.046 h 0.768 v 2.63 H 6.924 c -0.08,0 -0.131,0.016 -0.166,0.045 -0.033,0.033 -0.043,0.072 -0.043,0.12 0,0.051 0.01,0.092 0.043,0.121 0.035,0.031 0.086,0.045 0.166,0.045 z m 5.143,0.796 H 12.51 v 0.814 h 0.465 z M 12.988,0.209 V -2.74 h 1.237 c 0.08,0 0.13,-0.012 0.162,-0.042 0.039,-0.03 0.06,-0.068 0.06,-0.106 0,-0.05 -0.021,-0.09 -0.06,-0.12 -0.032,-0.029 -0.082,-0.047 -0.162,-0.047 h -2.799 c -0.074,0 -0.127,0.018 -0.166,0.047 -0.033,0.03 -0.043,0.07 -0.043,0.12 0,0.038 0.01,0.076 0.043,0.106 0.039,0.03 0.092,0.042 0.166,0.042 h 1.252 v 2.618 h -0.922 c -0.078,0 -0.141,0.016 -0.18,0.045 -0.027,0.033 -0.045,0.072 -0.045,0.12 0,0.051 0.018,0.092 0.045,0.121 0.039,0.031 0.102,0.045 0.18,0.045 z m 3.264,0 v -0.585 c 0.186,0.229 0.383,0.401 0.592,0.511 0.222,0.118 0.478,0.178 0.779,0.178 0.309,0 0.596,-0.072 0.859,-0.225 0.262,-0.138 0.463,-0.339 0.6,-0.6 0.152,-0.259 0.225,-0.531 0.225,-0.813 0,-0.451 -0.164,-0.839 -0.491,-1.172 -0.324,-0.322 -0.72,-0.481 -1.193,-0.481 -0.557,0 -1.012,0.23 -1.371,0.69 v -1.907 h 0.769 c 0.075,0 0.125,-0.01 0.151,-0.031 0.039,-0.028 0.064,-0.068 0.064,-0.121 0,-0.052 -0.025,-0.091 -0.064,-0.122 -0.026,-0.029 -0.076,-0.042 -0.151,-0.042 h -1.515 c -0.07,0 -0.125,0.013 -0.166,0.042 -0.029,0.031 -0.043,0.07 -0.043,0.122 0,0.053 0.014,0.093 0.043,0.121 0.041,0.021 0.096,0.031 0.166,0.031 h 0.433 v 4.073 h -0.433 c -0.07,0 -0.125,0.016 -0.166,0.045 -0.029,0.033 -0.043,0.072 -0.043,0.12 0,0.051 0.014,0.092 0.043,0.121 0.041,0.031 0.096,0.045 0.166,0.045 z m 2.738,-1.534 c 0,0.359 -0.135,0.669 -0.4,0.932 C 18.324,-0.134 18.01,0 17.623,0 c -0.377,0 -0.701,-0.134 -0.977,-0.393 -0.259,-0.263 -0.394,-0.573 -0.394,-0.932 0,-0.358 0.135,-0.672 0.394,-0.934 0.276,-0.257 0.6,-0.389 0.977,-0.389 0.387,0 0.701,0.124 0.967,0.376 0.265,0.259 0.4,0.581 0.4,0.947 m 2.428,1.534 h 1.717 c 0.07,0 0.117,-0.014 0.148,-0.045 0.039,-0.029 0.061,-0.07 0.061,-0.121 0,-0.048 -0.022,-0.087 -0.061,-0.12 -0.031,-0.029 -0.078,-0.045 -0.148,-0.045 h -1.717 v -2.09 c 0,-0.19 0.076,-0.345 0.215,-0.468 0.146,-0.118 0.365,-0.179 0.646,-0.179 0.207,0 0.436,0.03 0.692,0.09 0.244,0.07 0.441,0.146 0.58,0.226 0.054,0.029 0.094,0.046 0.125,0.046 0.039,0 0.07,-0.017 0.101,-0.046 0.03,-0.029 0.047,-0.07 0.047,-0.121 0,-0.027 -0.017,-0.065 -0.047,-0.105 -0.078,-0.081 -0.275,-0.169 -0.584,-0.268 -0.312,-0.09 -0.605,-0.136 -0.886,-0.136 -0.375,0 -0.666,0.085 -0.889,0.256 -0.225,0.169 -0.334,0.403 -0.334,0.705 v 2.09 h -0.566 c -0.084,0 -0.137,0.016 -0.164,0.045 -0.034,0.033 -0.047,0.072 -0.047,0.12 0,0.051 0.013,0.092 0.047,0.121 0.027,0.031 0.08,0.045 0.164,0.045 h 0.566 v 0.935 c 0,0.067 0.023,0.118 0.049,0.148 0.029,0.04 0.066,0.06 0.121,0.06 0.045,0 0.084,-0.02 0.121,-0.06 0.027,-0.03 0.043,-0.081 0.043,-0.148 z"
             style="fill:#231f20;fill-opacity:1;fill-rule:nonzero;stroke:none"
             id="path320" /></g><g
           id="g322"
           transform="translate(352.2266,658.4248)"><path
             d="m 0,0 v -1.652 h 0.59 c 0.08,0 0.131,-0.017 0.162,-0.046 0.029,-0.031 0.047,-0.064 0.047,-0.107 0,-0.049 -0.018,-0.09 -0.047,-0.118 C 0.721,-1.955 0.67,-1.967 0.59,-1.967 h -1.326 c -0.069,0 -0.125,0.012 -0.166,0.044 -0.03,0.028 -0.045,0.069 -0.045,0.118 0,0.043 0.015,0.076 0.045,0.107 0.041,0.029 0.097,0.046 0.166,0.046 h 0.422 V 2.12 h -0.422 c -0.069,0 -0.125,0.012 -0.166,0.029 -0.03,0.032 -0.045,0.075 -0.045,0.125 0,0.049 0.015,0.089 0.045,0.119 0.041,0.029 0.097,0.045 0.166,0.045 h 1.908 c 0.392,0 0.724,-0.126 0.99,-0.375 C 2.436,1.813 2.574,1.53 2.574,1.218 2.574,0.988 2.486,0.773 2.316,0.575 2.154,0.372 1.879,0.206 1.49,0.078 c 0.219,-0.15 0.408,-0.325 0.573,-0.53 0.158,-0.188 0.421,-0.59 0.779,-1.2 h 0.244 c 0.068,0 0.117,-0.017 0.146,-0.046 0.041,-0.031 0.061,-0.064 0.061,-0.107 0,-0.049 -0.02,-0.09 -0.061,-0.118 C 3.203,-1.955 3.154,-1.967 3.086,-1.967 H 2.662 C 2.27,-1.267 1.969,-0.8 1.746,-0.57 1.535,-0.329 1.289,-0.141 1.008,0 Z m 0,0.319 h 0.873 c 0.27,0 0.516,0.05 0.738,0.148 0.231,0.102 0.393,0.217 0.494,0.346 0.1,0.139 0.153,0.283 0.153,0.421 0,0.209 -0.108,0.412 -0.319,0.602 C 1.73,2.027 1.473,2.12 1.172,2.12 H 0 Z M 7.357,-0.422 H 4.143 c 0.052,-0.397 0.228,-0.726 0.505,-0.975 0.295,-0.251 0.647,-0.375 1.069,-0.375 0.244,0 0.488,0.033 0.738,0.103 0.264,0.08 0.481,0.185 0.65,0.315 0.036,0.043 0.077,0.063 0.118,0.063 0.037,0 0.078,-0.016 0.107,-0.047 0.027,-0.028 0.043,-0.069 0.043,-0.118 0,-0.039 -0.018,-0.08 -0.06,-0.123 C 7.191,-1.698 6.977,-1.815 6.668,-1.923 6.365,-2.035 6.049,-2.09 5.717,-2.09 c -0.541,0 -0.99,0.176 -1.354,0.528 -0.359,0.361 -0.535,0.792 -0.535,1.293 0,0.461 0.164,0.854 0.51,1.172 C 4.676,1.234 5.096,1.401 5.6,1.401 6.111,1.401 6.531,1.227 6.863,0.889 7.205,0.558 7.367,0.124 7.357,-0.422 M 7.039,-0.089 C 6.98,0.252 6.816,0.53 6.545,0.752 6.287,0.972 5.971,1.084 5.6,1.084 5.227,1.084 4.906,0.972 4.637,0.752 4.375,0.541 4.219,0.263 4.156,-0.089 Z m 4.785,2.844 v -4.407 h 0.424 c 0.07,0 0.119,-0.017 0.15,-0.046 0.043,-0.031 0.063,-0.064 0.063,-0.107 0,-0.049 -0.02,-0.09 -0.063,-0.118 -0.031,-0.032 -0.08,-0.044 -0.15,-0.044 H 11.5 v 0.629 c -0.365,-0.5 -0.822,-0.752 -1.389,-0.752 -0.289,0 -0.558,0.076 -0.828,0.225 -0.26,0.155 -0.463,0.37 -0.613,0.647 -0.154,0.282 -0.221,0.572 -0.221,0.874 0,0.302 0.067,0.59 0.221,0.872 0.15,0.282 0.353,0.497 0.613,0.647 0.27,0.15 0.539,0.226 0.828,0.226 0.561,0 1.014,-0.253 1.389,-0.753 v 1.79 h -0.422 c -0.076,0 -0.125,0.015 -0.168,0.045 -0.029,0.03 -0.047,0.067 -0.047,0.106 0,0.049 0.018,0.089 0.047,0.119 0.043,0.032 0.092,0.047 0.168,0.047 z M 11.5,-0.344 c 0,0.401 -0.137,0.737 -0.408,1.008 -0.268,0.279 -0.596,0.42 -0.965,0.42 C 9.754,1.084 9.443,0.943 9.16,0.664 8.893,0.393 8.764,0.057 8.764,-0.344 c 0,-0.402 0.129,-0.74 0.396,-1.022 0.283,-0.274 0.594,-0.406 0.967,-0.406 0.369,0 0.697,0.132 0.965,0.406 0.271,0.282 0.408,0.62 0.408,1.022 m 5.102,-0.078 h -3.223 c 0.062,-0.397 0.234,-0.726 0.514,-0.975 0.289,-0.251 0.648,-0.375 1.068,-0.375 0.24,0 0.488,0.033 0.736,0.103 0.262,0.08 0.479,0.185 0.647,0.315 0.041,0.043 0.082,0.063 0.119,0.063 0.039,0 0.078,-0.016 0.107,-0.047 0.032,-0.028 0.045,-0.069 0.045,-0.118 0,-0.039 -0.021,-0.08 -0.06,-0.123 -0.123,-0.119 -0.34,-0.236 -0.647,-0.344 -0.301,-0.112 -0.617,-0.167 -0.947,-0.167 -0.541,0 -0.996,0.176 -1.354,0.528 -0.361,0.361 -0.541,0.792 -0.541,1.293 0,0.461 0.166,0.854 0.508,1.172 0.348,0.331 0.766,0.498 1.266,0.498 0.512,0 0.931,-0.174 1.264,-0.512 0.337,-0.331 0.507,-0.765 0.498,-1.311 m -0.315,0.333 c -0.064,0.341 -0.228,0.619 -0.502,0.841 -0.258,0.22 -0.57,0.332 -0.945,0.332 -0.373,0 -0.692,-0.112 -0.959,-0.332 -0.266,-0.211 -0.424,-0.489 -0.483,-0.841 z m 4.932,-0.333 h -3.217 c 0.064,-0.397 0.228,-0.726 0.512,-0.975 0.291,-0.251 0.646,-0.375 1.066,-0.375 0.238,0 0.483,0.033 0.742,0.103 0.254,0.08 0.473,0.185 0.637,0.315 0.049,0.043 0.086,0.063 0.127,0.063 0.041,0 0.072,-0.016 0.102,-0.047 0.031,-0.028 0.048,-0.069 0.048,-0.118 0,-0.039 -0.019,-0.08 -0.062,-0.123 -0.119,-0.119 -0.338,-0.236 -0.643,-0.344 -0.302,-0.112 -0.621,-0.167 -0.951,-0.167 -0.543,0 -0.99,0.176 -1.351,0.528 -0.36,0.361 -0.543,0.792 -0.543,1.293 0,0.461 0.169,0.854 0.513,1.172 0.336,0.331 0.76,0.498 1.26,0.498 0.512,0 0.93,-0.174 1.264,-0.512 0.34,-0.331 0.509,-0.765 0.496,-1.311 m -0.313,0.333 C 20.838,0.252 20.68,0.53 20.408,0.752 20.145,0.972 19.83,1.084 19.459,1.084 19.088,1.084 18.766,0.972 18.5,0.752 18.234,0.541 18.078,0.263 18.016,-0.089 Z m 1.795,1.384 V 0.963 c 0.264,0.291 0.537,0.438 0.807,0.438 0.16,0 0.299,-0.048 0.42,-0.135 0.131,-0.081 0.236,-0.21 0.318,-0.393 0.141,0.183 0.277,0.312 0.42,0.393 0.152,0.087 0.295,0.135 0.436,0.135 0.228,0 0.412,-0.076 0.543,-0.226 0.177,-0.191 0.273,-0.399 0.273,-0.617 v -2.21 h 0.268 c 0.07,0 0.117,-0.017 0.148,-0.046 0.045,-0.031 0.066,-0.064 0.066,-0.107 0,-0.049 -0.021,-0.09 -0.066,-0.118 -0.031,-0.032 -0.078,-0.044 -0.148,-0.044 h -0.588 v 2.495 c 0,0.159 -0.047,0.292 -0.149,0.393 -0.09,0.107 -0.201,0.163 -0.334,0.163 -0.121,0 -0.24,-0.044 -0.373,-0.135 -0.117,-0.078 -0.26,-0.252 -0.426,-0.511 v -2.09 h 0.26 c 0.082,0 0.137,-0.017 0.166,-0.046 0.031,-0.031 0.047,-0.064 0.047,-0.107 0,-0.049 -0.016,-0.09 -0.047,-0.118 -0.029,-0.032 -0.084,-0.044 -0.166,-0.044 H 23.99 v 2.466 c 0,0.168 -0.052,0.311 -0.15,0.422 -0.092,0.107 -0.203,0.163 -0.332,0.163 -0.113,0 -0.219,-0.036 -0.324,-0.104 C 23.023,0.871 22.865,0.687 22.701,0.438 v -2.09 h 0.264 c 0.07,0 0.125,-0.017 0.152,-0.046 0.041,-0.031 0.067,-0.064 0.067,-0.107 0,-0.049 -0.026,-0.09 -0.067,-0.118 -0.027,-0.032 -0.082,-0.044 -0.152,-0.044 h -0.856 c -0.072,0 -0.127,0.012 -0.16,0.044 -0.035,0.028 -0.049,0.069 -0.049,0.118 0,0.043 0.014,0.076 0.049,0.107 0.033,0.029 0.088,0.046 0.16,0.046 h 0.274 v 2.615 h -0.274 c -0.072,0 -0.127,0.017 -0.16,0.045 -0.035,0.032 -0.049,0.07 -0.049,0.12 0,0.05 0.014,0.09 0.049,0.12 0.033,0.033 0.088,0.047 0.16,0.047 z"
             style="fill:#231f20;fill-opacity:1;fill-rule:nonzero;stroke:none"
             id="path324" /></g><path
           d="M 281.374,619.667 H 448.041 V 604.706 H 281.374 Z"
           style="fill:#ffffff;fill-opacity:1;fill-rule:nonzero;stroke:#231f20;stroke-width:0.5;stroke-linecap:butt;stroke-linejoin:round;stroke-miterlimit:10;stroke-dasharray:none;stroke-opacity:1"
           id="path326" /><g
           id="g328"
           transform="translate(311.1455,605.6909)"><path
             d="m 0,0 -6.256,9.121 c 1.118,1.647 1.176,3.889 -0.032,5.646 -1.565,2.287 -4.671,2.881 -6.934,1.33 -0.046,-0.032 -0.09,-0.07 -0.133,-0.105 -0.052,-0.032 -0.101,-0.059 -0.15,-0.091 -2.265,-1.547 -2.826,-4.662 -1.257,-6.947 1.12,-1.627 3.015,-2.394 4.831,-2.141 l 0.524,-0.76 c 0.428,0.215 1.008,0.03 1.338,-0.455 0.331,-0.485 0.295,-1.087 -0.059,-1.409 l 0.573,-0.837 c 0.429,0.214 1.003,0.03 1.337,-0.456 C -5.885,2.412 -5.921,1.81 -6.276,1.487 L -5.7,0.649 c 0.426,0.214 1.004,0.031 1.336,-0.455 0.334,-0.484 0.297,-1.086 -0.061,-1.409 l 0.401,-0.581 3.935,-0.462 0.287,0.196 z"
             style="fill:none;stroke:#231f20;stroke-width:0.75;stroke-linecap:butt;stroke-linejoin:round;stroke-miterlimit:4;stroke-dasharray:none;stroke-opacity:1"
             id="path330" /></g><g
           id="g332"
           transform="translate(311.3438,603.6294)"><path
             d="m 0,0 -6.738,10.986 c 1.119,1.647 1.176,3.891 -0.031,5.648 -1.568,2.284 -4.671,2.883 -6.934,1.329 -2.265,-1.548 -2.826,-4.662 -1.257,-6.947 1.12,-1.627 3.015,-2.395 4.831,-2.142 l 0.524,-0.76 c 0.427,0.215 1.007,0.031 1.337,-0.455 0.331,-0.484 0.295,-1.087 -0.058,-1.408 l 0.573,-0.838 c 0.429,0.215 1.003,0.03 1.337,-0.455 0.333,-0.484 0.297,-1.087 -0.059,-1.409 l 0.577,-0.838 c 0.425,0.214 1.003,0.03 1.335,-0.455 0.334,-0.485 0.297,-1.086 -0.06,-1.409 l 0.4,-0.581 3.936,-0.462 z"
             style="fill:#278a2f;fill-opacity:1;fill-rule:nonzero;stroke:none"
             id="path334" /></g><g
           id="g336"
           transform="translate(311.3438,603.6294)"><path
             d="m 0,0 -6.738,10.986 c 1.119,1.647 1.176,3.891 -0.031,5.648 -1.568,2.284 -4.671,2.883 -6.934,1.329 -2.265,-1.548 -2.826,-4.662 -1.257,-6.947 1.12,-1.627 3.015,-2.395 4.831,-2.142 l 0.524,-0.76 c 0.427,0.215 1.007,0.031 1.337,-0.455 0.331,-0.484 0.295,-1.087 -0.058,-1.408 l 0.573,-0.838 c 0.429,0.215 1.003,0.03 1.337,-0.455 0.333,-0.484 0.297,-1.087 -0.059,-1.409 l 0.577,-0.838 c 0.425,0.214 1.003,0.03 1.335,-0.455 0.334,-0.485 0.297,-1.086 -0.06,-1.409 l 0.4,-0.581 3.936,-0.462 z"
             style="fill:none;stroke:#278a2f;stroke-width:0.3;stroke-linecap:butt;stroke-linejoin:round;stroke-miterlimit:4;stroke-dasharray:none;stroke-opacity:1"
             id="path338" /></g></g></g><g
       id="g340"><g
         id="g342"><g
           id="g348"><g
             id="g350"><path
               d="m 297.923,621.787 c -2.262,-1.55 -2.826,-4.663 -1.254,-6.948 v 0 c 1.118,-1.627 3.015,-2.394 4.832,-2.14 v 0 l 0.52,-0.761 c 0.43,0.215 1.007,0.031 1.338,-0.456 v 0 c 0.332,-0.481 0.296,-1.086 -0.058,-1.408 v 0 l 0.575,-0.838 c 0.427,0.214 1.001,0.031 1.336,-0.454 v 0 c 0.332,-0.483 0.296,-1.088 -0.06,-1.411 v 0 l 0.577,-0.837 c 0.425,0.214 1.004,0.031 1.337,-0.452 v 0 c 0.331,-0.485 0.293,-1.087 -0.059,-1.41 v 0 l 0.399,-0.584 3.937,-0.459 -0.198,2.062 -6.256,9.121 c 1.119,1.647 1.177,3.889 -0.032,5.645 v 0 c -0.975,1.426 -2.55,2.194 -4.147,2.194 v 0 c -0.963,0 -1.934,-0.279 -2.787,-0.864"
               style="fill:url(#linearGradient356);stroke:none"
               id="path358" /></g></g></g></g><g
       id="g360"><g
         id="g362"><g
           id="g368"><g
             id="g370"><path
               d="m 298.15,621.457 c -2.076,-1.425 -2.593,-4.289 -1.152,-6.389 v 0 c 1.005,-1.458 2.706,-2.212 4.445,-1.97 v 0 l 0.249,0.035 0.494,-0.724 c 0.543,0.092 1.142,-0.171 1.505,-0.697 v 0 c 0.364,-0.528 0.392,-1.183 0.108,-1.655 v 0 l 0.238,-0.348 c 0.547,0.09 1.146,-0.173 1.506,-0.699 v 0 c 0.362,-0.527 0.391,-1.184 0.111,-1.654 v 0 l 0.238,-0.347 c 0.544,0.091 1.142,-0.172 1.505,-0.7 v 0 c 0.363,-0.526 0.391,-1.182 0.111,-1.655 v 0 l 0.126,-0.188 3.263,-0.38 -0.143,1.464 -6.351,9.257 0.152,0.229 c 1.069,1.572 1.057,3.615 -0.026,5.193 v 0 c -0.899,1.311 -2.353,2.019 -3.824,2.019 v 0 c -0.884,0 -1.775,-0.256 -2.555,-0.791"
               style="fill:url(#linearGradient376);stroke:none"
               id="path378" /></g></g></g></g><g
       id="g380"><g
         id="g382"
         clip-path="url(#clipPath386)"><g
           id="g388"
           transform="translate(303.0078,614.3774)"><path
             d="M 0,0 C -1.808,-1.238 -4.275,-0.778 -5.515,1.026 -6.754,2.834 -6.293,5.302 -4.486,6.541 -2.683,7.783 -0.214,7.32 1.026,5.515 2.266,3.708 1.805,1.239 0,0"
             style="fill:#ffffff;fill-opacity:1;fill-rule:nonzero;stroke:none"
             id="path390" /></g><text
           transform="matrix(0.56564601,-0.82464816,-0.82464816,-0.56564601,297.2321,620.0103)"
           style="font-variant:normal;font-weight:normal;font-stretch:normal;font-size:4.41px;font-family:Arial;-inkscape-font-specification:ArialMT;writing-mode:lr-tb;fill:#231f20;fill-opacity:1;fill-rule:nonzero;stroke:none"
           id="text394"><tspan
             x="0 2.9414713 5.3934326"
             y="0"
             sodipodi:role="line"
             id="tspan392">Pub</tspan></text><g
           id="g396"
           transform="translate(326.1455,605.6909)"><path
             d="m 0,0 -6.256,9.121 c 1.118,1.647 1.176,3.889 -0.032,5.646 -1.565,2.287 -4.671,2.881 -6.934,1.33 -0.046,-0.032 -0.09,-0.07 -0.133,-0.105 -0.052,-0.032 -0.101,-0.059 -0.15,-0.091 -2.265,-1.547 -2.826,-4.662 -1.257,-6.947 1.12,-1.627 3.015,-2.394 4.831,-2.141 l 0.524,-0.76 c 0.428,0.215 1.008,0.03 1.338,-0.455 0.331,-0.485 0.295,-1.087 -0.059,-1.409 l 0.573,-0.837 c 0.429,0.214 1.003,0.03 1.337,-0.456 C -5.885,2.412 -5.921,1.81 -6.276,1.487 L -5.7,0.649 c 0.426,0.214 1.004,0.031 1.336,-0.455 0.334,-0.484 0.297,-1.086 -0.061,-1.409 l 0.401,-0.581 3.935,-0.462 0.287,0.196 z"
             style="fill:none;stroke:#231f20;stroke-width:0.75;stroke-linecap:butt;stroke-linejoin:round;stroke-miterlimit:4;stroke-dasharray:none;stroke-opacity:1"
             id="path398" /></g><g
           id="g400"
           transform="translate(326.3438,603.6294)"><path
             d="m 0,0 -6.738,10.986 c 1.119,1.647 1.176,3.891 -0.031,5.648 -1.568,2.284 -4.671,2.883 -6.934,1.329 -2.265,-1.548 -2.826,-4.662 -1.257,-6.947 1.12,-1.627 3.015,-2.395 4.831,-2.142 l 0.524,-0.76 c 0.427,0.215 1.007,0.031 1.337,-0.455 0.331,-0.484 0.295,-1.087 -0.058,-1.408 l 0.573,-0.838 c 0.429,0.215 1.003,0.03 1.337,-0.455 0.333,-0.484 0.297,-1.087 -0.059,-1.409 l 0.577,-0.838 c 0.425,0.214 1.003,0.03 1.335,-0.455 0.334,-0.485 0.297,-1.086 -0.06,-1.409 l 0.4,-0.581 3.936,-0.462 z"
             style="fill:#278a2f;fill-opacity:1;fill-rule:nonzero;stroke:none"
             id="path402" /></g><g
           id="g404"
           transform="translate(326.3438,603.6294)"><path
             d="m 0,0 -6.738,10.986 c 1.119,1.647 1.176,3.891 -0.031,5.648 -1.568,2.284 -4.671,2.883 -6.934,1.329 -2.265,-1.548 -2.826,-4.662 -1.257,-6.947 1.12,-1.627 3.015,-2.395 4.831,-2.142 l 0.524,-0.76 c 0.427,0.215 1.007,0.031 1.337,-0.455 0.331,-0.484 0.295,-1.087 -0.058,-1.408 l 0.573,-0.838 c 0.429,0.215 1.003,0.03 1.337,-0.455 0.333,-0.484 0.297,-1.087 -0.059,-1.409 l 0.577,-0.838 c 0.425,0.214 1.003,0.03 1.335,-0.455 0.334,-0.485 0.297,-1.086 -0.06,-1.409 l 0.4,-0.581 3.936,-0.462 z"
             style="fill:none;stroke:#278a2f;stroke-width:0.3;stroke-linecap:butt;stroke-linejoin:round;stroke-miterlimit:4;stroke-dasharray:none;stroke-opacity:1"
             id="path406" /></g></g></g><g
       id="g408"><g
         id="g410"><g
           id="g416"><g
             id="g418"><path
               d="m 312.924,621.787 c -2.263,-1.55 -2.826,-4.663 -1.256,-6.948 v 0 c 1.119,-1.627 3.015,-2.394 4.833,-2.14 v 0 l 0.52,-0.761 c 0.431,0.215 1.008,0.031 1.339,-0.456 v 0 c 0.33,-0.481 0.295,-1.086 -0.059,-1.408 v 0 l 0.575,-0.838 c 0.427,0.214 1.001,0.031 1.337,-0.454 v 0 c 0.331,-0.483 0.295,-1.088 -0.061,-1.411 v 0 l 0.577,-0.837 c 0.425,0.214 1.005,0.031 1.338,-0.452 v 0 c 0.329,-0.485 0.292,-1.087 -0.06,-1.41 v 0 l 0.399,-0.584 3.938,-0.459 -0.198,2.062 -6.256,9.121 c 1.118,1.647 1.175,3.889 -0.033,5.645 v 0 c -0.975,1.426 -2.55,2.194 -4.147,2.194 v 0 c -0.963,0 -1.935,-0.279 -2.786,-0.864"
               style="fill:url(#linearGradient424);stroke:none"
               id="path426" /></g></g></g></g><g
       id="g428"><g
         id="g430"><g
           id="g436"><g
             id="g438"><path
               d="m 313.15,621.457 c -2.076,-1.425 -2.593,-4.289 -1.152,-6.389 v 0 c 1.004,-1.458 2.706,-2.212 4.446,-1.97 v 0 l 0.247,0.035 0.494,-0.724 c 0.545,0.092 1.143,-0.171 1.505,-0.697 v 0 c 0.365,-0.528 0.393,-1.183 0.11,-1.655 v 0 l 0.237,-0.348 c 0.547,0.09 1.145,-0.173 1.506,-0.699 v 0 c 0.361,-0.527 0.392,-1.184 0.112,-1.654 v 0 l 0.236,-0.347 c 0.545,0.091 1.143,-0.172 1.505,-0.7 v 0 c 0.365,-0.526 0.392,-1.182 0.112,-1.655 v 0 l 0.127,-0.188 3.261,-0.38 -0.142,1.464 -6.35,9.257 0.152,0.229 c 1.068,1.572 1.056,3.615 -0.026,5.193 v 0 c -0.9,1.311 -2.354,2.019 -3.824,2.019 v 0 c -0.885,0 -1.776,-0.256 -2.556,-0.791"
               style="fill:url(#linearGradient444);stroke:none"
               id="path446" /></g></g></g></g><g
       id="g448"><g
         id="g450"
         clip-path="url(#clipPath454)"><g
           id="g456"
           transform="translate(318.0078,614.3774)"><path
             d="M 0,0 C -1.808,-1.238 -4.275,-0.778 -5.515,1.026 -6.754,2.834 -6.293,5.302 -4.486,6.541 -2.683,7.783 -0.214,7.32 1.026,5.515 2.266,3.708 1.805,1.239 0,0"
             style="fill:#ffffff;fill-opacity:1;fill-rule:nonzero;stroke:none"
             id="path458" /></g><text
           transform="matrix(0.56564601,-0.82464816,-0.82464816,-0.56564601,312.2321,620.0103)"
           style="font-variant:normal;font-weight:normal;font-stretch:normal;font-size:4.41px;font-family:Arial;-inkscape-font-specification:ArialMT;writing-mode:lr-tb;fill:#231f20;fill-opacity:1;fill-rule:nonzero;stroke:none"
           id="text462"><tspan
             x="0 2.9414713 5.3934326"
             y="0"
             sodipodi:role="line"
             id="tspan460">Pub</tspan></text><g
           id="g464"
           transform="translate(341.1455,605.6909)"><path
             d="m 0,0 -6.256,9.121 c 1.118,1.647 1.176,3.889 -0.032,5.646 -1.565,2.287 -4.671,2.881 -6.934,1.33 -0.046,-0.032 -0.09,-0.07 -0.133,-0.105 -0.052,-0.032 -0.101,-0.059 -0.15,-0.091 -2.265,-1.547 -2.826,-4.662 -1.257,-6.947 1.12,-1.627 3.015,-2.394 4.831,-2.141 l 0.524,-0.76 c 0.428,0.215 1.008,0.03 1.338,-0.455 0.331,-0.485 0.295,-1.087 -0.059,-1.409 l 0.573,-0.837 c 0.429,0.214 1.003,0.03 1.337,-0.456 C -5.885,2.412 -5.921,1.81 -6.276,1.487 L -5.7,0.649 c 0.426,0.214 1.004,0.031 1.336,-0.455 0.334,-0.484 0.297,-1.086 -0.061,-1.409 l 0.401,-0.581 3.935,-0.462 0.287,0.196 z"
             style="fill:none;stroke:#231f20;stroke-width:0.75;stroke-linecap:butt;stroke-linejoin:round;stroke-miterlimit:4;stroke-dasharray:none;stroke-opacity:1"
             id="path466" /></g><g
           id="g468"
           transform="translate(341.3438,603.6294)"><path
             d="m 0,0 -6.738,10.986 c 1.119,1.647 1.176,3.891 -0.031,5.648 -1.568,2.284 -4.671,2.883 -6.934,1.329 -2.265,-1.548 -2.826,-4.662 -1.257,-6.947 1.12,-1.627 3.015,-2.395 4.831,-2.142 l 0.524,-0.76 c 0.427,0.215 1.007,0.031 1.337,-0.455 0.331,-0.484 0.295,-1.087 -0.058,-1.408 l 0.573,-0.838 c 0.429,0.215 1.003,0.03 1.337,-0.455 0.333,-0.484 0.297,-1.087 -0.059,-1.409 l 0.577,-0.838 c 0.425,0.214 1.003,0.03 1.335,-0.455 0.334,-0.485 0.297,-1.086 -0.06,-1.409 l 0.4,-0.581 3.936,-0.462 z"
             style="fill:#278a2f;fill-opacity:1;fill-rule:nonzero;stroke:none"
             id="path470" /></g><g
           id="g472"
           transform="translate(341.3438,603.6294)"><path
             d="m 0,0 -6.738,10.986 c 1.119,1.647 1.176,3.891 -0.031,5.648 -1.568,2.284 -4.671,2.883 -6.934,1.329 -2.265,-1.548 -2.826,-4.662 -1.257,-6.947 1.12,-1.627 3.015,-2.395 4.831,-2.142 l 0.524,-0.76 c 0.427,0.215 1.007,0.031 1.337,-0.455 0.331,-0.484 0.295,-1.087 -0.058,-1.408 l 0.573,-0.838 c 0.429,0.215 1.003,0.03 1.337,-0.455 0.333,-0.484 0.297,-1.087 -0.059,-1.409 l 0.577,-0.838 c 0.425,0.214 1.003,0.03 1.335,-0.455 0.334,-0.485 0.297,-1.086 -0.06,-1.409 l 0.4,-0.581 3.936,-0.462 z"
             style="fill:none;stroke:#278a2f;stroke-width:0.3;stroke-linecap:butt;stroke-linejoin:round;stroke-miterlimit:4;stroke-dasharray:none;stroke-opacity:1"
             id="path474" /></g></g></g><g
       id="g476"><g
         id="g478"><g
           id="g484"><g
             id="g486"><path
               d="m 327.924,621.787 c -2.263,-1.55 -2.826,-4.663 -1.256,-6.948 v 0 c 1.119,-1.627 3.016,-2.394 4.833,-2.14 v 0 l 0.521,-0.761 c 0.429,0.215 1.006,0.031 1.337,-0.456 v 0 c 0.331,-0.481 0.296,-1.086 -0.058,-1.408 v 0 l 0.575,-0.838 c 0.426,0.214 1,0.031 1.337,-0.454 v 0 c 0.331,-0.483 0.294,-1.088 -0.061,-1.411 v 0 l 0.578,-0.837 c 0.424,0.214 1.003,0.031 1.336,-0.452 v 0 c 0.33,-0.485 0.294,-1.087 -0.059,-1.41 v 0 l 0.399,-0.584 3.938,-0.459 -0.198,2.062 -6.256,9.121 c 1.118,1.647 1.175,3.889 -0.032,5.645 v 0 c -0.976,1.426 -2.551,2.194 -4.147,2.194 v 0 c -0.964,0 -1.935,-0.279 -2.787,-0.864"
               style="fill:url(#linearGradient492);stroke:none"
               id="path494" /></g></g></g></g><g
       id="g496"><g
         id="g498"><g
           id="g504"><g
             id="g506"><path
               d="m 328.151,621.457 c -2.077,-1.425 -2.594,-4.289 -1.153,-6.389 v 0 c 1.004,-1.458 2.706,-2.212 4.445,-1.97 v 0 l 0.248,0.035 0.494,-0.724 c 0.544,0.092 1.143,-0.171 1.505,-0.697 v 0 c 0.365,-0.528 0.393,-1.183 0.11,-1.655 v 0 l 0.237,-0.348 c 0.547,0.09 1.145,-0.173 1.506,-0.699 v 0 c 0.361,-0.527 0.392,-1.184 0.111,-1.654 v 0 l 0.238,-0.347 c 0.543,0.091 1.142,-0.172 1.504,-0.7 v 0 c 0.365,-0.526 0.392,-1.182 0.112,-1.655 v 0 l 0.127,-0.188 3.262,-0.38 -0.144,1.464 -6.35,9.257 0.153,0.229 c 1.068,1.572 1.057,3.615 -0.027,5.193 v 0 c -0.899,1.311 -2.353,2.019 -3.823,2.019 v 0 c -0.885,0 -1.776,-0.256 -2.555,-0.791"
               style="fill:url(#linearGradient512);stroke:none"
               id="path514" /></g></g></g></g><g
       id="g516"><g
         id="g518"
         clip-path="url(#clipPath522)"><g
           id="g524"
           transform="translate(333.0078,614.3774)"><path
             d="M 0,0 C -1.808,-1.238 -4.275,-0.778 -5.515,1.026 -6.754,2.834 -6.293,5.302 -4.486,6.541 -2.683,7.783 -0.214,7.32 1.026,5.515 2.266,3.708 1.805,1.239 0,0"
             style="fill:#ffffff;fill-opacity:1;fill-rule:nonzero;stroke:none"
             id="path526" /></g><text
           transform="matrix(0.56564601,-0.82464816,-0.82464816,-0.56564601,327.2321,620.0103)"
           style="font-variant:normal;font-weight:normal;font-stretch:normal;font-size:4.41px;font-family:Arial;-inkscape-font-specification:ArialMT;writing-mode:lr-tb;fill:#231f20;fill-opacity:1;fill-rule:nonzero;stroke:none"
           id="text530"><tspan
             x="0 2.9414713 5.3934326"
             y="0"
             sodipodi:role="line"
             id="tspan528">Pub</tspan></text><g
           id="g532"
           transform="translate(287.0195,609.6816)"><path
             d="m 0,0 h 2.818 v 0.141 c 0,0.092 0.018,0.157 0.055,0.19 0.029,0.034 0.07,0.05 0.125,0.05 0.055,0 0.106,-0.016 0.137,-0.05 0.033,-0.033 0.053,-0.098 0.053,-0.19 v -0.507 h -3.542 v 0.543 c 0.745,0.67 1.469,1.35 2.17,2.045 0.325,0.322 0.551,0.554 0.67,0.698 0.129,0.154 0.211,0.289 0.254,0.407 0.047,0.12 0.067,0.233 0.067,0.344 0,0.313 -0.127,0.59 -0.381,0.838 C 2.184,4.752 1.877,4.874 1.512,4.874 1.191,4.874 0.906,4.783 0.66,4.599 0.416,4.41 0.252,4.185 0.176,3.911 0.16,3.845 0.139,3.803 0.115,3.786 0.084,3.749 0.043,3.733 0,3.733 c -0.053,0 -0.094,0.016 -0.127,0.053 -0.033,0.034 -0.051,0.076 -0.051,0.125 0,0.135 0.074,0.324 0.227,0.558 0.154,0.238 0.367,0.425 0.637,0.56 C 0.957,5.174 1.23,5.246 1.512,5.246 1.975,5.246 2.361,5.083 2.689,4.76 3.021,4.45 3.188,4.089 3.188,3.681 3.188,3.514 3.156,3.357 3.1,3.214 3.043,3.078 2.953,2.926 2.818,2.754 2.684,2.595 2.447,2.346 2.107,2.007 1.244,1.152 0.543,0.491 0,0.025 Z m 62.432,2.617 c 0.332,-0.153 0.584,-0.36 0.763,-0.621 0.178,-0.265 0.27,-0.539 0.27,-0.827 0,-0.44 -0.18,-0.83 -0.531,-1.169 -0.362,-0.328 -0.809,-0.492 -1.336,-0.492 -0.317,0 -0.639,0.063 -0.979,0.186 -0.34,0.139 -0.574,0.276 -0.713,0.421 -0.039,0.043 -0.06,0.093 -0.06,0.152 0,0.042 0.019,0.082 0.05,0.114 0.032,0.035 0.065,0.051 0.112,0.051 0.053,0 0.103,-0.02 0.162,-0.064 0.453,-0.329 0.928,-0.494 1.439,-0.494 0.424,0 0.772,0.132 1.053,0.393 0.287,0.263 0.432,0.56 0.432,0.887 0,0.223 -0.074,0.432 -0.215,0.637 -0.137,0.212 -0.338,0.376 -0.594,0.496 -0.269,0.126 -0.535,0.191 -0.806,0.191 -0.088,0 -0.161,0.016 -0.202,0.05 -0.031,0.034 -0.045,0.075 -0.045,0.127 0,0.05 0.014,0.091 0.045,0.125 0.041,0.045 0.102,0.065 0.18,0.065 l 0.301,-0.012 c 0.334,0 0.601,0.101 0.814,0.304 0.219,0.203 0.336,0.436 0.336,0.699 0,0.269 -0.119,0.51 -0.349,0.723 C 62.338,4.77 62.057,4.874 61.684,4.874 61.436,4.874 61.199,4.83 60.986,4.739 60.775,4.652 60.604,4.536 60.477,4.383 60.426,4.321 60.389,4.286 60.363,4.268 60.346,4.259 60.318,4.254 60.291,4.254 c -0.055,0 -0.098,0.017 -0.131,0.05 -0.033,0.035 -0.051,0.079 -0.051,0.13 0,0.117 0.127,0.266 0.383,0.44 0.348,0.25 0.746,0.372 1.192,0.372 0.464,0 0.847,-0.142 1.14,-0.423 0.301,-0.278 0.447,-0.606 0.447,-0.987 0,-0.246 -0.074,-0.479 -0.216,-0.699 -0.141,-0.22 -0.344,-0.393 -0.623,-0.52 M 74.65,2.173 c 0,-0.491 -0.099,-0.944 -0.302,-1.36 -0.198,-0.415 -0.471,-0.739 -0.817,-0.979 -0.349,-0.226 -0.72,-0.343 -1.113,-0.343 -0.598,0 -1.117,0.251 -1.568,0.751 -0.45,0.498 -0.674,1.143 -0.674,1.931 0,0.786 0.224,1.431 0.674,1.929 0.451,0.499 0.97,0.75 1.568,0.75 0.393,0 0.764,-0.118 1.113,-0.357 C 73.877,4.268 74.15,3.946 74.348,3.531 74.551,3.116 74.65,2.663 74.65,2.173 m -0.373,0 c 0,0.598 -0.17,1.137 -0.515,1.613 -0.354,0.473 -0.799,0.709 -1.344,0.709 -0.522,0 -0.965,-0.227 -1.326,-0.684 C 70.73,3.36 70.551,2.817 70.551,2.173 c 0,-0.679 0.187,-1.234 0.568,-1.666 0.381,-0.43 0.811,-0.646 1.299,-0.646 0.545,0 0.99,0.232 1.344,0.698 0.345,0.476 0.515,1.01 0.515,1.614 m 2.7,-0.446 V 0 h 1.255 c 0.084,0 0.149,-0.017 0.182,-0.05 0.039,-0.033 0.059,-0.081 0.059,-0.14 0,-0.05 -0.02,-0.092 -0.059,-0.126 -0.033,-0.036 -0.098,-0.05 -0.182,-0.05 h -2.119 c -0.088,0 -0.154,0.014 -0.187,0.05 -0.037,0.034 -0.055,0.076 -0.055,0.126 0,0.059 0.018,0.107 0.055,0.14 0.033,0.033 0.099,0.05 0.187,0.05 h 0.496 v 4.368 h -0.496 c -0.088,0 -0.154,0.019 -0.187,0.05 -0.037,0.035 -0.055,0.082 -0.055,0.141 0,0.049 0.018,0.093 0.055,0.129 0.033,0.029 0.099,0.051 0.187,0.051 h 2.131 c 0.502,0 0.906,-0.148 1.223,-0.446 0.32,-0.297 0.484,-0.644 0.484,-1.042 C 79.951,3.015 79.9,2.799 79.793,2.603 79.697,2.419 79.572,2.272 79.428,2.173 79.207,2.003 78.98,1.884 78.744,1.817 78.576,1.758 78.365,1.727 78.123,1.727 Z m 0,0.37 h 1.169 c 0.272,0 0.522,0.058 0.762,0.175 0.235,0.122 0.41,0.267 0.506,0.446 0.117,0.177 0.164,0.356 0.164,0.533 0,0.288 -0.123,0.546 -0.365,0.775 -0.244,0.228 -0.561,0.342 -0.942,0.342 h -1.294 z m 8.589,-4.915 h -4.878 c -0.083,0 -0.139,0.017 -0.192,0.05 -0.031,0.034 -0.049,0.081 -0.049,0.14 0,0.051 0.018,0.093 0.049,0.126 0.053,0.034 0.109,0.051 0.192,0.051 h 4.878 c 0.098,0 0.157,-0.017 0.19,-0.051 0.035,-0.033 0.053,-0.075 0.053,-0.126 0,-0.059 -0.018,-0.106 -0.053,-0.14 -0.033,-0.033 -0.092,-0.05 -0.19,-0.05 m 4.541,7.061 v 0.252 c 0,0.089 0.018,0.147 0.051,0.177 0.037,0.042 0.08,0.067 0.143,0.067 0.047,0 0.088,-0.025 0.123,-0.067 0.031,-0.03 0.049,-0.088 0.049,-0.177 V 3.481 c 0,-0.093 -0.018,-0.164 -0.049,-0.206 -0.035,-0.034 -0.076,-0.049 -0.123,-0.049 -0.057,0 -0.094,0.015 -0.131,0.049 -0.035,0.042 -0.057,0.102 -0.063,0.18 -0.007,0.244 -0.14,0.46 -0.396,0.647 -0.336,0.26 -0.717,0.393 -1.15,0.393 -0.28,0 -0.553,-0.061 -0.807,-0.191 C 87.57,4.212 87.424,4.102 87.314,3.974 87.125,3.746 86.977,3.491 86.854,3.214 86.779,3.01 86.744,2.78 86.744,2.528 V 1.88 c 0,-0.543 0.195,-1.016 0.58,-1.422 0.399,-0.398 0.862,-0.597 1.383,-0.597 0.314,0 0.594,0.066 0.838,0.204 0.258,0.135 0.496,0.342 0.725,0.623 0.054,0.059 0.105,0.085 0.166,0.085 0.06,0 0.103,-0.016 0.128,-0.05 0.038,-0.034 0.053,-0.075 0.053,-0.125 0,-0.068 -0.066,-0.169 -0.193,-0.306 -0.238,-0.261 -0.506,-0.459 -0.795,-0.598 -0.305,-0.131 -0.602,-0.203 -0.902,-0.203 -0.282,0 -0.551,0.05 -0.813,0.152 -0.213,0.078 -0.393,0.167 -0.521,0.268 -0.139,0.112 -0.311,0.289 -0.51,0.535 -0.195,0.253 -0.332,0.482 -0.404,0.684 -0.077,0.213 -0.108,0.445 -0.108,0.7 v 0.749 c 0,0.363 0.096,0.731 0.279,1.102 0.198,0.382 0.465,0.671 0.803,0.864 0.338,0.205 0.701,0.307 1.096,0.307 0.607,0 1.123,-0.203 1.558,-0.609 M 95.105,2.107 H 92.676 V 0 h 0.486 c 0.09,0 0.152,-0.017 0.192,-0.05 0.039,-0.033 0.06,-0.081 0.06,-0.14 0,-0.05 -0.021,-0.092 -0.06,-0.126 -0.04,-0.036 -0.102,-0.05 -0.192,-0.05 h -1.269 c -0.092,0 -0.151,0.014 -0.194,0.05 -0.027,0.034 -0.049,0.076 -0.049,0.126 0,0.059 0.022,0.107 0.049,0.14 0.043,0.033 0.102,0.05 0.194,0.05 h 0.42 V 4.368 H 92.08 c -0.094,0 -0.156,0.019 -0.197,0.05 -0.039,0.035 -0.057,0.082 -0.057,0.141 0,0.049 0.018,0.093 0.057,0.129 0.041,0.029 0.103,0.051 0.197,0.051 h 1.082 c 0.09,0 0.152,-0.022 0.192,-0.051 0.039,-0.036 0.06,-0.08 0.06,-0.129 0,-0.059 -0.021,-0.106 -0.06,-0.141 -0.04,-0.031 -0.102,-0.05 -0.192,-0.05 H 92.676 V 2.464 h 2.429 v 1.904 h -0.48 c -0.1,0 -0.164,0.019 -0.205,0.05 -0.037,0.035 -0.053,0.082 -0.053,0.141 0,0.049 0.016,0.093 0.053,0.129 0.041,0.029 0.105,0.051 0.205,0.051 h 1.078 c 0.088,0 0.154,-0.022 0.19,-0.051 0.041,-0.036 0.062,-0.08 0.062,-0.129 0,-0.059 -0.021,-0.106 -0.062,-0.141 -0.036,-0.031 -0.102,-0.05 -0.19,-0.05 H 95.475 V 0 h 0.418 c 0.08,0 0.138,-0.017 0.175,-0.05 0.047,-0.033 0.065,-0.081 0.065,-0.14 0,-0.05 -0.018,-0.092 -0.065,-0.126 -0.037,-0.036 -0.095,-0.05 -0.175,-0.05 h -1.268 c -0.1,0 -0.164,0.014 -0.205,0.05 -0.037,0.034 -0.053,0.076 -0.053,0.126 0,0.059 0.016,0.107 0.053,0.14 0.041,0.033 0.105,0.05 0.205,0.05 h 0.48 z m 2.926,-0.01 V 0 h 2.821 v 1.08 c 0,0.084 0.017,0.145 0.048,0.178 0.03,0.043 0.079,0.062 0.143,0.062 0.051,0 0.088,-0.019 0.123,-0.062 0.033,-0.033 0.047,-0.094 0.047,-0.178 V -0.366 H 97.18 c -0.092,0 -0.166,0.014 -0.205,0.05 -0.032,0.034 -0.051,0.076 -0.051,0.126 0,0.059 0.019,0.107 0.051,0.14 C 97.014,-0.017 97.088,0 97.18,0 h 0.484 V 4.368 H 97.18 c -0.092,0 -0.166,0.019 -0.205,0.05 -0.032,0.035 -0.051,0.082 -0.051,0.141 0,0.049 0.019,0.093 0.051,0.129 0.039,0.029 0.113,0.051 0.205,0.051 h 3.843 V 3.481 c 0,-0.085 -0.017,-0.149 -0.046,-0.192 -0.036,-0.033 -0.077,-0.05 -0.125,-0.05 -0.065,0 -0.112,0.017 -0.145,0.05 -0.029,0.043 -0.045,0.107 -0.045,0.192 V 4.368 H 98.031 V 2.464 h 1.321 v 0.419 c 0,0.084 0.013,0.144 0.048,0.178 0.034,0.042 0.079,0.064 0.131,0.064 0.053,0 0.102,-0.022 0.137,-0.064 0.031,-0.034 0.049,-0.094 0.049,-0.178 V 1.689 c 0,-0.091 -0.018,-0.162 -0.049,-0.204 -0.035,-0.033 -0.084,-0.05 -0.137,-0.05 -0.052,0 -0.097,0.017 -0.131,0.05 -0.035,0.042 -0.048,0.113 -0.048,0.204 v 0.408 z m 8.168,2.146 v 0.252 c 0,0.089 0.02,0.147 0.051,0.177 0.035,0.042 0.08,0.067 0.143,0.067 0.046,0 0.089,-0.025 0.127,-0.067 0.033,-0.03 0.052,-0.088 0.052,-0.177 V 3.481 c 0,-0.093 -0.019,-0.164 -0.052,-0.206 -0.038,-0.034 -0.081,-0.049 -0.127,-0.049 -0.055,0 -0.096,0.015 -0.133,0.049 -0.03,0.042 -0.053,0.102 -0.061,0.18 -0.008,0.244 -0.138,0.46 -0.394,0.647 -0.342,0.26 -0.725,0.393 -1.155,0.393 -0.277,0 -0.541,-0.061 -0.802,-0.191 -0.18,-0.092 -0.33,-0.202 -0.444,-0.33 -0.183,-0.228 -0.338,-0.483 -0.455,-0.76 C 102.873,3.01 102.836,2.78 102.836,2.528 V 1.88 c 0,-0.543 0.193,-1.016 0.58,-1.422 0.398,-0.398 0.861,-0.597 1.389,-0.597 0.312,0 0.595,0.066 0.838,0.204 0.25,0.135 0.492,0.342 0.726,0.623 0.047,0.059 0.1,0.085 0.162,0.085 0.061,0 0.1,-0.016 0.125,-0.05 0.032,-0.034 0.053,-0.075 0.053,-0.125 0,-0.068 -0.068,-0.169 -0.189,-0.306 -0.241,-0.261 -0.506,-0.459 -0.803,-0.598 -0.291,-0.131 -0.598,-0.203 -0.899,-0.203 -0.269,0 -0.548,0.05 -0.816,0.152 -0.213,0.078 -0.387,0.167 -0.518,0.268 -0.138,0.112 -0.306,0.289 -0.509,0.535 -0.192,0.253 -0.33,0.482 -0.403,0.684 -0.072,0.213 -0.107,0.445 -0.107,0.7 v 0.749 c 0,0.363 0.099,0.731 0.279,1.102 0.195,0.382 0.465,0.671 0.803,0.864 0.338,0.205 0.699,0.307 1.088,0.307 0.613,0 1.135,-0.203 1.564,-0.609 m 2.569,-2.617 V 0 h 0.673 c 0.096,0 0.161,-0.017 0.194,-0.05 0.037,-0.033 0.054,-0.081 0.054,-0.14 0,-0.05 -0.017,-0.092 -0.054,-0.126 -0.033,-0.036 -0.098,-0.05 -0.194,-0.05 h -1.533 c -0.08,0 -0.152,0.014 -0.193,0.05 -0.031,0.034 -0.049,0.076 -0.049,0.126 0,0.059 0.018,0.107 0.049,0.14 0.041,0.033 0.113,0.05 0.193,0.05 h 0.49 v 4.368 h -0.49 c -0.08,0 -0.152,0.019 -0.193,0.05 -0.031,0.035 -0.049,0.082 -0.049,0.141 0,0.049 0.018,0.093 0.049,0.129 0.041,0.029 0.113,0.051 0.193,0.051 h 1.533 c 0.096,0 0.161,-0.022 0.194,-0.051 0.037,-0.036 0.054,-0.08 0.054,-0.129 0,-0.059 -0.017,-0.106 -0.054,-0.141 -0.033,-0.031 -0.098,-0.05 -0.194,-0.05 h -0.673 V 2.123 l 2.529,2.245 h -0.408 c -0.082,0 -0.143,0.019 -0.188,0.05 -0.037,0.035 -0.053,0.082 -0.053,0.141 0,0.049 0.016,0.093 0.053,0.129 0.045,0.029 0.106,0.051 0.188,0.051 h 1.082 c 0.097,0 0.158,-0.022 0.187,-0.051 0.037,-0.036 0.053,-0.08 0.053,-0.129 0,-0.059 -0.016,-0.106 -0.053,-0.141 -0.029,-0.031 -0.09,-0.05 -0.187,-0.05 h -0.135 l -2.023,-1.804 c 0.3,-0.117 0.541,-0.269 0.74,-0.457 0.203,-0.176 0.398,-0.433 0.582,-0.772 0.099,-0.197 0.291,-0.639 0.568,-1.335 h 0.455 c 0.094,0 0.16,-0.017 0.192,-0.05 0.046,-0.033 0.068,-0.081 0.068,-0.14 0,-0.05 -0.022,-0.092 -0.068,-0.126 -0.032,-0.036 -0.098,-0.05 -0.192,-0.05 h -0.707 c -0.381,1.048 -0.697,1.72 -0.967,2.017 -0.265,0.305 -0.584,0.522 -0.978,0.647 z m 6.791,-0.457 h -0.42 l -1.412,3.199 H 113.67 V 0 h 0.668 c 0.086,0 0.146,-0.017 0.18,-0.05 0.043,-0.033 0.064,-0.081 0.064,-0.14 0,-0.05 -0.021,-0.092 -0.064,-0.126 -0.034,-0.036 -0.094,-0.05 -0.18,-0.05 h -1.344 c -0.096,0 -0.158,0.014 -0.205,0.05 -0.035,0.034 -0.049,0.076 -0.049,0.126 0,0.059 0.014,0.107 0.049,0.14 0.047,0.033 0.109,0.05 0.205,0.05 h 0.303 v 4.368 h -0.227 c -0.093,0 -0.164,0.019 -0.203,0.05 -0.031,0.035 -0.045,0.082 -0.045,0.141 0,0.049 0.014,0.093 0.045,0.129 0.039,0.029 0.11,0.051 0.203,0.051 h 0.899 l 1.386,-3.164 1.354,3.164 h 0.906 c 0.092,0 0.158,-0.022 0.19,-0.051 0.043,-0.036 0.062,-0.08 0.062,-0.129 0,-0.059 -0.019,-0.106 -0.062,-0.141 -0.032,-0.031 -0.098,-0.05 -0.19,-0.05 h -0.226 V 0 h 0.304 c 0.092,0 0.155,-0.017 0.19,-0.05 0.039,-0.033 0.062,-0.081 0.062,-0.14 0,-0.05 -0.023,-0.092 -0.062,-0.126 -0.035,-0.036 -0.098,-0.05 -0.19,-0.05 h -1.353 c -0.082,0 -0.137,0.014 -0.188,0.05 -0.035,0.034 -0.05,0.076 -0.05,0.126 0,0.059 0.015,0.107 0.05,0.14 0.051,0.033 0.106,0.05 0.188,0.05 h 0.68 v 4.368 h -0.084 z m 6.898,3.199 v -3.06 c 0,-0.518 -0.172,-0.948 -0.521,-1.292 -0.334,-0.348 -0.747,-0.525 -1.243,-0.525 -0.318,0 -0.609,0.072 -0.863,0.203 -0.25,0.146 -0.467,0.363 -0.642,0.648 -0.18,0.298 -0.274,0.62 -0.274,0.966 v 3.06 h -0.301 c -0.095,0 -0.162,0.019 -0.191,0.05 -0.033,0.035 -0.049,0.082 -0.049,0.141 0,0.049 0.016,0.097 0.049,0.141 0.029,0.023 0.096,0.039 0.191,0.039 h 1.342 c 0.098,0 0.154,-0.022 0.193,-0.051 0.043,-0.036 0.061,-0.08 0.061,-0.129 0,-0.059 -0.018,-0.106 -0.061,-0.141 -0.039,-0.031 -0.095,-0.05 -0.193,-0.05 h -0.676 v -3.06 c 0,-0.406 0.145,-0.749 0.407,-1.028 0.283,-0.28 0.613,-0.419 0.998,-0.419 0.244,0 0.462,0.056 0.658,0.164 0.203,0.11 0.373,0.282 0.517,0.508 0.157,0.229 0.231,0.488 0.231,0.775 v 3.06 h -0.67 c -0.086,0 -0.154,0.019 -0.193,0.05 -0.03,0.035 -0.049,0.082 -0.049,0.141 0,0.049 0.019,0.093 0.049,0.129 0.039,0.029 0.107,0.051 0.193,0.051 h 1.342 c 0.097,0 0.154,-0.022 0.193,-0.051 0.041,-0.036 0.066,-0.08 0.066,-0.129 0,-0.059 -0.025,-0.106 -0.066,-0.141 -0.039,-0.031 -0.096,-0.05 -0.193,-0.05 z m 2.949,0 V 0 h 2.444 v 1.46 c 0,0.085 0.015,0.146 0.048,0.18 0.04,0.042 0.081,0.061 0.141,0.061 0.049,0 0.096,-0.019 0.127,-0.061 0.031,-0.034 0.049,-0.095 0.049,-0.18 v -1.826 h -4.049 c -0.082,0 -0.146,0.014 -0.191,0.05 -0.034,0.034 -0.047,0.076 -0.047,0.126 0,0.059 0.013,0.107 0.047,0.14 0.045,0.033 0.109,0.05 0.191,0.05 h 0.883 v 4.368 h -0.883 c -0.082,0 -0.146,0.019 -0.191,0.05 -0.034,0.035 -0.047,0.082 -0.047,0.141 0,0.049 0.013,0.093 0.047,0.129 0.045,0.029 0.109,0.051 0.191,0.051 h 2.125 c 0.082,0 0.139,-0.022 0.17,-0.051 0.047,-0.036 0.066,-0.08 0.066,-0.129 0,-0.059 -0.019,-0.106 -0.066,-0.141 -0.031,-0.031 -0.088,-0.05 -0.17,-0.05 z m 6.194,0 V 0 h 0.945 c 0.086,0 0.15,-0.017 0.189,-0.05 0.043,-0.033 0.061,-0.081 0.061,-0.14 0,-0.05 -0.018,-0.092 -0.061,-0.126 -0.039,-0.036 -0.103,-0.05 -0.189,-0.05 h -2.279 c -0.084,0 -0.151,0.014 -0.188,0.05 -0.035,0.034 -0.051,0.076 -0.051,0.126 0,0.059 0.016,0.107 0.051,0.14 0.037,0.033 0.104,0.05 0.188,0.05 h 0.953 v 4.368 h -1.506 V 3.1 c 0,-0.085 -0.014,-0.149 -0.043,-0.191 -0.029,-0.034 -0.072,-0.05 -0.129,-0.05 -0.061,0 -0.102,0.016 -0.133,0.05 -0.035,0.042 -0.056,0.106 -0.056,0.191 v 1.639 h 4.113 V 3.1 c 0,-0.085 -0.018,-0.149 -0.047,-0.191 -0.035,-0.034 -0.08,-0.05 -0.145,-0.05 -0.048,0 -0.085,0.016 -0.121,0.05 -0.037,0.042 -0.058,0.106 -0.058,0.191 v 1.268 z m 5.367,0 V 0 h 1.254 c 0.088,0 0.146,-0.017 0.181,-0.05 0.039,-0.033 0.063,-0.081 0.063,-0.14 0,-0.05 -0.024,-0.092 -0.063,-0.126 -0.035,-0.036 -0.093,-0.05 -0.181,-0.05 h -2.881 c -0.084,0 -0.147,0.014 -0.192,0.05 -0.031,0.034 -0.052,0.076 -0.052,0.126 0,0.059 0.021,0.107 0.052,0.14 0.045,0.033 0.108,0.05 0.192,0.05 h 1.254 v 4.368 h -1.254 c -0.084,0 -0.147,0.019 -0.192,0.05 -0.031,0.035 -0.052,0.082 -0.052,0.141 0,0.049 0.021,0.093 0.052,0.129 0.045,0.029 0.108,0.051 0.192,0.051 h 2.881 c 0.088,0 0.146,-0.022 0.181,-0.051 0.039,-0.036 0.063,-0.08 0.063,-0.129 0,-0.059 -0.024,-0.106 -0.063,-0.141 -0.035,-0.031 -0.093,-0.05 -0.181,-0.05 z m 6.488,0 v 0.127 c 0,0.089 0.016,0.147 0.041,0.177 0.037,0.042 0.084,0.067 0.141,0.067 0.056,0 0.101,-0.025 0.129,-0.067 0.037,-0.03 0.052,-0.088 0.052,-0.177 V 3.556 c 0,-0.084 -0.015,-0.149 -0.052,-0.191 -0.028,-0.033 -0.073,-0.05 -0.129,-0.05 -0.049,0 -0.088,0.017 -0.129,0.05 -0.033,0.035 -0.053,0.093 -0.053,0.177 -0.016,0.246 -0.139,0.468 -0.377,0.661 -0.238,0.196 -0.549,0.292 -0.939,0.292 -0.399,0 -0.717,-0.103 -0.961,-0.316 -0.24,-0.214 -0.362,-0.458 -0.362,-0.738 0,-0.142 0.036,-0.274 0.104,-0.392 0.068,-0.12 0.156,-0.216 0.268,-0.295 0.109,-0.075 0.234,-0.133 0.367,-0.175 0.14,-0.042 0.365,-0.09 0.66,-0.141 0.502,-0.084 0.842,-0.168 1.025,-0.255 0.256,-0.109 0.446,-0.265 0.578,-0.467 0.135,-0.206 0.202,-0.441 0.202,-0.712 0,-0.423 -0.17,-0.783 -0.512,-1.08 -0.326,-0.288 -0.772,-0.433 -1.344,-0.433 -0.633,0 -1.15,0.2 -1.535,0.598 v -0.215 c 0,-0.086 -0.022,-0.147 -0.053,-0.19 -0.023,-0.036 -0.062,-0.05 -0.125,-0.05 -0.051,0 -0.092,0.014 -0.125,0.05 -0.037,0.043 -0.056,0.104 -0.056,0.19 v 1.015 c 0,0.092 0.019,0.157 0.056,0.191 0.033,0.041 0.074,0.065 0.125,0.065 0.049,0 0.096,-0.024 0.125,-0.065 0.031,-0.034 0.053,-0.09 0.053,-0.166 0.014,-0.268 0.158,-0.516 0.43,-0.737 0.273,-0.209 0.636,-0.316 1.105,-0.316 0.457,0 0.818,0.114 1.076,0.345 0.27,0.226 0.408,0.499 0.408,0.811 0,0.195 -0.044,0.362 -0.152,0.508 -0.098,0.151 -0.256,0.271 -0.461,0.355 -0.127,0.068 -0.422,0.141 -0.871,0.217 -0.603,0.102 -1.037,0.251 -1.307,0.456 -0.271,0.21 -0.406,0.513 -0.406,0.902 0,0.381 0.149,0.706 0.457,0.979 0.315,0.276 0.723,0.418 1.221,0.418 0.512,0 0.955,-0.16 1.326,-0.484 m 4.242,0 V 0 h 1.254 c 0.086,0 0.145,-0.017 0.178,-0.05 0.039,-0.033 0.064,-0.081 0.064,-0.14 0,-0.05 -0.025,-0.092 -0.064,-0.126 -0.033,-0.036 -0.092,-0.05 -0.178,-0.05 h -2.883 c -0.08,0 -0.148,0.014 -0.191,0.05 -0.033,0.034 -0.051,0.076 -0.051,0.126 0,0.059 0.018,0.107 0.051,0.14 0.043,0.033 0.111,0.05 0.191,0.05 h 1.256 v 4.368 h -1.256 c -0.08,0 -0.148,0.019 -0.191,0.05 -0.033,0.035 -0.051,0.082 -0.051,0.141 0,0.049 0.018,0.093 0.051,0.129 0.043,0.029 0.111,0.051 0.191,0.051 h 2.883 c 0.086,0 0.145,-0.022 0.178,-0.051 0.039,-0.036 0.064,-0.08 0.064,-0.129 0,-0.059 -0.025,-0.106 -0.064,-0.141 -0.033,-0.031 -0.092,-0.05 -0.178,-0.05 z m 7.164,-2.843 V -0.05 c -0.283,-0.154 -0.554,-0.266 -0.841,-0.342 -0.274,-0.079 -0.541,-0.117 -0.821,-0.117 -0.4,0 -0.748,0.053 -1.045,0.168 -0.293,0.118 -0.549,0.281 -0.758,0.493 -0.203,0.213 -0.367,0.446 -0.482,0.7 -0.113,0.26 -0.162,0.592 -0.162,0.99 v 0.672 c 0,0.398 0.092,0.787 0.283,1.167 0.207,0.382 0.483,0.671 0.834,0.864 0.342,0.205 0.719,0.307 1.127,0.307 0.588,0 1.096,-0.16 1.5,-0.484 0,0.143 0.004,0.231 0.014,0.255 0.008,0.033 0.027,0.063 0.058,0.077 0.032,0.023 0.075,0.039 0.118,0.039 0.052,0 0.091,-0.025 0.121,-0.067 0.037,-0.03 0.054,-0.088 0.054,-0.177 V 3.671 c 0,-0.095 -0.017,-0.163 -0.054,-0.205 -0.03,-0.034 -0.069,-0.049 -0.121,-0.049 -0.051,0 -0.098,0.015 -0.129,0.049 -0.032,0.034 -0.047,0.094 -0.047,0.18 -0.02,0.244 -0.178,0.449 -0.49,0.608 -0.301,0.162 -0.635,0.241 -0.999,0.241 -0.332,0 -0.64,-0.077 -0.914,-0.227 -0.275,-0.147 -0.525,-0.423 -0.763,-0.838 -0.151,-0.272 -0.231,-0.576 -0.231,-0.916 V 1.842 c 0,-0.608 0.188,-1.093 0.565,-1.449 0.369,-0.354 0.879,-0.532 1.535,-0.532 0.225,0 0.424,0.021 0.603,0.063 0.198,0.051 0.422,0.133 0.68,0.242 v 1.359 h -1.258 c -0.097,0 -0.162,0.016 -0.201,0.05 -0.039,0.034 -0.053,0.082 -0.053,0.141 0,0.049 0.014,0.091 0.053,0.126 0.039,0.033 0.104,0.05 0.201,0.05 h 1.748 c 0.096,0 0.159,-0.017 0.192,-0.05 0.049,-0.035 0.066,-0.077 0.066,-0.126 0,-0.042 -0.01,-0.082 -0.037,-0.116 -0.029,-0.025 -0.057,-0.047 -0.092,-0.064 -0.025,-0.009 -0.109,-0.011 -0.254,-0.011"
             style="fill:#231f20;fill-opacity:1;fill-rule:nonzero;stroke:none"
             id="path534" /></g><g
           id="g536"><g
             id="g538" /><g
             id="g550"><g
               clip-path="url(#clipPath542)"
               id="g548"><g
                 transform="translate(340.2754,641.4819)"
                 id="g546"><path
                   d="M 0,0 -2.7,-1 H 51.601 L 48.902,0 Z"
                   style="fill:#d3d2d2;fill-opacity:1;fill-rule:nonzero;stroke:none"
                   id="path544" /></g></g></g></g></g></g></g></svg>
