<svg xmlns="http://www.w3.org/2000/svg" xmlns:xlink="http://www.w3.org/1999/xlink" width="348.5" height="72.19" viewBox="0 0 348.5 72.19">
  <defs>
    <style>
      .cls-1, .cls-13, .cls-14, .cls-22, .cls-23, .cls-24, .cls-7 {
        fill: none;
      }

      .cls-2 {
        isolation: isolate;
      }

      .cls-3 {
        fill: #fef0e8;
      }

      .cls-4 {
        font-size: 11.5px;
        font-family: Courier;
      }

      .cls-5 {
        font-size: 7px;
      }

      .cls-6 {
        fill: #28708e;
      }

      .cls-16, .cls-17, .cls-6 {
        fill-rule: evenodd;
      }

      .cls-15, .cls-21, .cls-22, .cls-23, .cls-7 {
        stroke: #000;
      }

      .cls-14, .cls-21, .cls-7, .cls-8 {
        stroke-linejoin: round;
      }

      .cls-23, .cls-7 {
        stroke-width: 0.75px;
      }

      .cls-8 {
        fill: #267520;
        stroke: #267520;
      }

      .cls-15, .cls-8 {
        stroke-width: 0.3px;
      }

      .cls-9 {
        fill: url(#linear-gradient);
      }

      .cls-10 {
        fill: url(#linear-gradient-2);
      }

      .cls-11, .cls-21 {
        fill: #fff;
      }

      .cls-12 {
        font-size: 3.67px;
        font-family: ArialMT, Arial;
      }

      .cls-13 {
        stroke: #4d4d4d;
      }

      .cls-13, .cls-21, .cls-22, .cls-24 {
        stroke-width: 0.5px;
      }

      .cls-14 {
        stroke: #e60001;
      }

      .cls-15 {
        fill: #fda452;
      }

      .cls-16 {
        fill: #fbafc5;
      }

      .cls-17 {
        fill: #96c749;
      }

      .cls-18 {
        clip-path: url(#clip-path);
      }

      .cls-19, .cls-20 {
        mix-blend-mode: multiply;
      }

      .cls-19 {
        fill: url(#linear-gradient-3);
      }

      .cls-20 {
        fill: #ccc;
      }

      .cls-23 {
        stroke-miterlimit: 10;
      }

      .cls-24 {
        stroke: #cf957f;
      }
    </style>
    <linearGradient id="linear-gradient" x1="10.19" y1="187" x2="29" y2="187" gradientTransform="translate(499.31 -6.95) rotate(45.85)" gradientUnits="userSpaceOnUse">
      <stop offset="0" stop-color="#5fb749"/>
      <stop offset="1" stop-color="#dbf1c6"/>
    </linearGradient>
    <linearGradient id="linear-gradient-2" x1="10.53" y1="187" x2="28.47" y2="187" gradientTransform="translate(499.31 -6.95) rotate(45.85)" gradientUnits="userSpaceOnUse">
      <stop offset="0" stop-color="#dbf1c6"/>
      <stop offset="1" stop-color="#5fb749"/>
    </linearGradient>
    <clipPath id="clip-path">
      <path transform="translate(-121.75 -123.79)" class="cls-1" d="M279,123.85H205.27c-1.63,11,6.9,17.53,2.52,29.61H279Z"/>
    </clipPath>
    <linearGradient id="linear-gradient-3" x1="306.61" y1="757.86" x2="342.16" y2="757.86" gradientTransform="translate(897.06 -285.17) rotate(90)" gradientUnits="userSpaceOnUse">
      <stop offset="0.16" stop-color="#dedede"/>
      <stop offset="0.56" stop-color="#d9d9d9"/>
      <stop offset="1" stop-color="#ccc"/>
    </linearGradient>
  </defs>
  <g class="cls-2">
    <g id="Layer_2" data-name="Layer 2">
      <g>
        <rect class="cls-3" x="179.25" y="3.06" width="168.75" height="22.82" rx="2"/>
        <text class="cls-4" transform="translate(212.11 17.18)">0</text>
        <text class="cls-4" transform="translate(274.95 17.51)">0.07</text>
        <text class="cls-4" transform="translate(316.97 17.51)">WSH<tspan class="cls-5" x="20.7" y="3">X</tspan></text>
        <path class="cls-6" d="M357,138.45c1.5.69,2.73-.56,4-.79.3.35-.05,1.06.12,1.46.91.66,2.68.42,3.36,1.32-.4.32-.94-.2-1.65-.4-1.22-.34-2.55-.13-2.09-1.92-1.09.51-2.91,1.47-4.18.6a8,8,0,0,1-1.27.66,35.47,35.47,0,0,0-1.33,3.38c-.87-.32-.9-1.53-2-1.66a3.18,3.18,0,0,0-.31,1c.24.06.51-.73.88-.53,0,.5-.54.93-1,1.12-.53-.33-.12-1.08,0-1.65a6.41,6.41,0,0,1-4,1.25,3.57,3.57,0,0,1-1.84-.53c-1.15-.86-.84-3.11-.06-4.17a4.86,4.86,0,0,1,2.91-1.65,16.23,16.23,0,0,0,.82-2c.36,0,.46-.09.57-.46,1.88-.73,4.05-1.16,5.58-2.25-1.95.36-4.08,1-6.08,1.59a4.38,4.38,0,0,1-1.9.39c.07-.39.59-.44.89-.52,1-.31,2.12-.61,3.23-.93a12.54,12.54,0,0,1,4.43-.86c0,.69-.69.89-1.14,1.12-1.38.72-3.27,1.23-4.81,1.86a5.22,5.22,0,0,0,1.39,1.92,10.9,10.9,0,0,1,2.22.26c.75-.91,1.37-2.14,2.08-3.18.2-.28.46-.75.83-.72-.12.77-.77,1.32-1.2,2s-.81,1.38-1.21,2.06c.47.32,1.23.34,1.4,1-.58.13-1-.5-1.53-.6a17.89,17.89,0,0,0-1.83,3.57,13.73,13.73,0,0,0,2.72-1,6.6,6.6,0,0,0,.95-2.52c.17-2.08,1.44-3.29,2.66-4.37a3.62,3.62,0,0,1,.38-.79c.25-.06.23.16.38.2a9.55,9.55,0,0,1,5.83-1.4c.39,0,1.28.15,1.27.67,0,.84-1.36,1.8-2,2.31A71.11,71.11,0,0,1,357,138.45Zm6.65-7.74c-1.74.14-3.84.7-4.75,1.79a14.66,14.66,0,0,0-1.27,2.44c-.48.88-1.63,2.27-1,3.25a68.18,68.18,0,0,0,7.47-5.1,5.73,5.73,0,0,0,2-2.25A5.44,5.44,0,0,0,363.63,130.71Zm-7.16,5.56c.38-1,1.13-2,1.39-2.85A5.47,5.47,0,0,0,356.47,136.27Zm-7.41-.4c.56-.12,1.3-.05,1.84-.2a9.51,9.51,0,0,1-1.21-1.52C349.53,134.78,349.25,135.28,349.06,135.87Zm-.13.4a7.13,7.13,0,0,0-.5,1.65c-.15.54-.18,1.29-.64,1.53-.16-.91.41-2.11.64-3a3.6,3.6,0,0,0-3.11,3.58c0,1.42,1.11,1.93,2.6,1.92,3.16,0,5.47-2.86,3.35-5.69A11.07,11.07,0,0,0,348.93,136.27Zm3.61,2.38c.34-.75.71-1.46,1.08-2.18a12.74,12.74,0,0,0-1.84-.26A6.43,6.43,0,0,1,352.54,138.65Zm3.11.07a2.72,2.72,0,0,0,.57-.27c-.05-.19,0-.46-.19-.53C355.92,138.21,355.75,138.44,355.65,138.72Zm-3.49,2.05c.85.15,1.14.88,1.65,1.39a6.69,6.69,0,0,1,.89-2.32c0-.08,0-.15-.13-.13C353.91,140.21,352.87,140.32,352.16,140.77Z" transform="translate(-121.75 -123.79)"/>
        <g>
          <path class="cls-7" d="M385.36,142l-6.42-6.62a4.19,4.19,0,0,0-6.7-4.75l-.09.11-.11.09a4.18,4.18,0,0,0,4.21,7l.54.55a1,1,0,0,1,1.31,1.36l.59.6a1,1,0,0,1,1.31,1.36l.59.6a.91.91,0,0,1,1.16.19.89.89,0,0,1,.15,1.16l.41.43,3.3-.18.21-.2Z" transform="translate(-121.75 -123.79)"/>
          <path class="cls-8" d="M385.82,143.66l-7.08-8.08a4.14,4.14,0,1,0-2.49,2.21l.54.55a1,1,0,0,1,1.31,1.36l.59.6a1,1,0,0,1,1.31,1.36l.59.6a.91.91,0,0,1,1.16.19.89.89,0,0,1,.15,1.16l.41.43,3.3-.18Z" transform="translate(-121.75 -123.79)"/>
          <path class="cls-9" d="M385.36,142l-6.42-6.62a4.13,4.13,0,1,0-2.48,2.21l.53.56a1,1,0,0,1,1.31,1.35l.59.6a.93.93,0,0,1,1.17.19.92.92,0,0,1,.15,1.17l.59.6a.91.91,0,0,1,1.16.19.9.9,0,0,1,.15,1.16l.41.43,3.3-.18Z" transform="translate(-121.75 -123.79)"/>
          <path class="cls-10" d="M372.43,136.28a3.8,3.8,0,1,1,6.21-1l-.1.2,6.52,6.72.32,1.18-2.73.15-.13-.14a1.35,1.35,0,0,0-1.66-1.71l-.24-.25a1.37,1.37,0,0,0-1.66-1.71l-.24-.25a1.36,1.36,0,0,0-1.66-1.7l-.51-.53-.2.06A3.8,3.8,0,0,1,372.43,136.28Z" transform="translate(-121.75 -123.79)"/>
          <path class="cls-11" d="M377.46,136a3.3,3.3,0,1,1,.07-4.67A3.3,3.3,0,0,1,377.46,136Z" transform="translate(-121.75 -123.79)"/>
          <text class="cls-12" transform="translate(250.19 8.41) rotate(45.85)">Pub</text>
        </g>
        <line class="cls-13" x1="270.17" y1="3.2" x2="270.17" y2="25.62"/>
        <rect class="cls-14" x="179.25" y="3.06" width="168.75" height="22.82" rx="2"/>
        <g>
          <path class="cls-15" d="M306.24,137.84l-1.7-1.91a11.09,11.09,0,0,1,7.34.37,6.48,6.48,0,0,0,3.73.47,3.91,3.91,0,0,0,2.43-1.44c.73-.8,1.55-1.71,4.33-2l1.35,2c-2.2.22-2.78.85-3.45,1.59a5,5,0,0,1-3.09,1.8,9.48,9.48,0,0,1-5.15-.6A8.35,8.35,0,0,0,306.24,137.84Z" transform="translate(-121.75 -123.79)"/>
          <path class="cls-15" d="M309.57,139.66l-1.71-1.91a11,11,0,0,1,7.34.36,6.52,6.52,0,0,0,3.74.48,3.87,3.87,0,0,0,2.43-1.45c.72-.8,1.55-1.7,4.32-2l1.35,2c-2.2.21-2.78.85-3.45,1.59a5,5,0,0,1-3.08,1.8,9.55,9.55,0,0,1-5.15-.6A8.36,8.36,0,0,0,309.57,139.66Z" transform="translate(-121.75 -123.79)"/>
          <path class="cls-15" d="M308.83,141.68l-1.7-1.91a11.09,11.09,0,0,1,7.34.37,6.56,6.56,0,0,0,3.73.48,3.87,3.87,0,0,0,2.43-1.45c.73-.8,1.55-1.71,4.32-2l1.36,2a4.32,4.32,0,0,0-3.46,1.59,5,5,0,0,1-3.08,1.79,9.39,9.39,0,0,1-5.15-.6A8.41,8.41,0,0,0,308.83,141.68Z" transform="translate(-121.75 -123.79)"/>
          <path class="cls-15" d="M312.21,143.48l-1.7-1.91a11.09,11.09,0,0,1,7.34.37,6.48,6.48,0,0,0,3.73.47A3.86,3.86,0,0,0,324,141c.73-.8,1.55-1.71,4.32-2l1.36,2c-2.2.21-2.78.84-3.45,1.58a5,5,0,0,1-3.09,1.8,9.48,9.48,0,0,1-5.15-.6A8.4,8.4,0,0,0,312.21,143.48Z" transform="translate(-121.75 -123.79)"/>
          <path class="cls-15" d="M306.76,135.75l-1.71-1.91a11.12,11.12,0,0,1,7.35.37,6.47,6.47,0,0,0,3.73.47,3.91,3.91,0,0,0,2.43-1.44c.73-.8,1.55-1.71,4.32-2l1.36,2a4.32,4.32,0,0,0-3.45,1.58,5.11,5.11,0,0,1-3.09,1.8,9.47,9.47,0,0,1-5.15-.6A8.41,8.41,0,0,0,306.76,135.75Z" transform="translate(-121.75 -123.79)"/>
          <polygon points="185.12 10.25 187.44 10.05 188.45 10.59 186.94 10.49 185.12 10.25"/>
          <polygon points="191.06 11.43 193.53 12.37 195.14 11.86 193.1 11.6 191.06 11.43"/>
          <polygon points="192.03 14.42 190.28 14.33 189.57 14.81 191.34 14.63 193.61 15.54 195.03 15.52 193.07 14.76 192.03 14.42"/>
          <path d="M324.07,138c-.44,0-1.57.3-1.57.3l-.87,1.42,1.22-.86,1.9-.27Z" transform="translate(-121.75 -123.79)"/>
          <polygon points="203.22 17.71 202.41 18.73 200.58 19.3 201.61 19.74 203.12 19.12 203.22 17.71"/>
          <polygon points="195.55 18.65 193.77 18.11 192.41 18.45 194.04 18.55 195.55 18.65"/>
          <polygon points="189.65 16.45 188.64 16.63 190.05 16.71 189.65 16.45"/>
          <polygon class="cls-16" points="197.87 10.38 196.62 10.73 195.14 11.86 197.17 11.41 197.87 10.38"/>
          <polygon class="cls-16" points="199.47 16.51 197.82 17.31 197.64 17.8 199.23 17.39 199.47 16.51"/>
          <polygon class="cls-16" points="206.53 15.99 204.69 16.67 204.55 17.57 206.08 16.85 206.53 15.99"/>
          <polygon class="cls-16" points="188.53 15.9 187.28 16.96 186.84 16.29 188.53 15.9"/>
          <polygon class="cls-17" points="196.08 13.62 193.81 13.43 195.04 13.99 196.08 13.62"/>
          <path class="cls-17" d="M320.05,143l-2.11-.47s1.09.75,1.39.89a15.68,15.68,0,0,0,2.15.28Z" transform="translate(-121.75 -123.79)"/>
          <polygon class="cls-17" points="189.28 13.86 187.41 13.92 188.13 14.93 189.28 13.86"/>
          <path class="cls-17" d="M322.21,132.16l-2.09.85s-.84,1.22-.5,1.16a11.41,11.41,0,0,0,1.79-1Z" transform="translate(-121.75 -123.79)"/>
        </g>
      </g>
      <g class="cls-18">
        <g>
          <rect class="cls-3" x="75.1" y="3.06" width="80.61" height="22.82" rx="2"/>
          <text class="cls-4" transform="translate(87.88 17.51)">0.08</text>
          <rect class="cls-14" x="75.1" y="3.06" width="80.61" height="22.82" rx="2"/>
        </g>
      </g>
      <polygon class="cls-19" points="278.16 56.98 151.27 21.43 127.91 21.43 0.25 56.98 278.16 56.98"/>
      <path class="cls-20" d="M278,147.67v-1l-1-.25v1.3a1.51,1.51,0,0,1-1.5,1.5h-39.8l-3.66,1h43.46A2.5,2.5,0,0,0,278,147.67Z" transform="translate(-121.75 -123.79)"/>
      <rect class="cls-21" x="0.25" y="56.98" width="277.91" height="14.96"/>
      <path d="M393.12,189.25v1.56a3.75,3.75,0,0,1-.84.35,3.3,3.3,0,0,1-1.86,0,2.45,2.45,0,0,1-.76-.5,2.68,2.68,0,0,1-.48-.69,2.56,2.56,0,0,1-.16-1v-.67a2.55,2.55,0,0,1,.29-1.16,2.07,2.07,0,0,1,.82-.86,2.14,2.14,0,0,1,1.13-.31,2.32,2.32,0,0,1,1.49.48,1.3,1.3,0,0,1,0-.25.13.13,0,0,1,.07-.08.2.2,0,0,1,.11,0,.18.18,0,0,1,.13.06.26.26,0,0,1,.05.18v.82a.34.34,0,0,1-.05.2.19.19,0,0,1-.26,0,.26.26,0,0,1-.05-.18.74.74,0,0,0-.48-.6,2.11,2.11,0,0,0-1-.24,1.79,1.79,0,0,0-.91.23,2,2,0,0,0-.76.83,1.84,1.84,0,0,0-.23.91v.67a1.89,1.89,0,0,0,.56,1.44,2.1,2.1,0,0,0,1.53.53,2.93,2.93,0,0,0,.61-.06,4.63,4.63,0,0,0,.67-.24v-1.35H391.5a.31.31,0,0,1-.21-.06.19.19,0,0,1-.05-.13.17.17,0,0,1,.05-.13.38.38,0,0,1,.21-.05h1.74a.29.29,0,0,1,.19.05.16.16,0,0,1,.07.13.21.21,0,0,1,0,.11l-.09.06A.94.94,0,0,1,393.12,189.25ZM386,186.41v4.35h1.25a.3.3,0,0,1,.18.05.18.18,0,0,1,.06.14.16.16,0,0,1-.06.13.3.3,0,0,1-.18,0h-2.87a.31.31,0,0,1-.19,0,.15.15,0,0,1-.05-.13.17.17,0,0,1,.05-.14.31.31,0,0,1,.19-.05h1.25v-4.35h-1.25a.26.26,0,0,1-.19,0,.16.16,0,0,1-.05-.14.13.13,0,0,1,.05-.12.26.26,0,0,1,.19,0h2.87a.24.24,0,0,1,.18,0,.14.14,0,0,1,.06.12.17.17,0,0,1-.06.14.24.24,0,0,1-.18,0Zm-4.22,0v-.12a.26.26,0,0,1,0-.18.17.17,0,0,1,.14-.06.12.12,0,0,1,.12.06s.05.09.05.18v.93a.26.26,0,0,1-.05.19s-.06.05-.12.05a.17.17,0,0,1-.13-.05.25.25,0,0,1-.05-.17.92.92,0,0,0-.38-.66,1.4,1.4,0,0,0-.93-.29,1.45,1.45,0,0,0-1,.31,1,1,0,0,0-.35.74.76.76,0,0,0,.1.39.94.94,0,0,0,.27.29,1.52,1.52,0,0,0,.36.18c.15,0,.36.08.66.13a4.75,4.75,0,0,1,1,.26,1.14,1.14,0,0,1,.56.47,1.18,1.18,0,0,1,.2.7,1.37,1.37,0,0,1-.5,1.08,2,2,0,0,1-1.34.43,2.07,2.07,0,0,1-1.53-.59v.21a.33.33,0,0,1-.05.19.17.17,0,0,1-.13,0,.21.21,0,0,1-.13,0,.33.33,0,0,1-.05-.19v-1a.27.27,0,0,1,.05-.19.16.16,0,0,1,.26,0,.23.23,0,0,1,.05.16,1.05,1.05,0,0,0,.43.74,1.75,1.75,0,0,0,1.1.31,1.59,1.59,0,0,0,1.08-.34,1.06,1.06,0,0,0,.4-.81.84.84,0,0,0-.15-.5,1,1,0,0,0-.46-.36,4,4,0,0,0-.87-.21,3.07,3.07,0,0,1-1.3-.46,1.08,1.08,0,0,1-.41-.9,1.23,1.23,0,0,1,.46-1,1.73,1.73,0,0,1,1.21-.42A2,2,0,0,1,381.76,186.41Zm-7.84,2.73v1.62h.68a.31.31,0,0,1,.19.05.22.22,0,0,1,0,.14.19.19,0,0,1,0,.13.31.31,0,0,1-.19,0h-1.54a.3.3,0,0,1-.18,0,.16.16,0,0,1-.06-.13.18.18,0,0,1,.06-.14.3.3,0,0,1,.18-.05h.5v-4.35h-.5a.24.24,0,0,1-.18,0,.17.17,0,0,1-.06-.14.14.14,0,0,1,.06-.12.24.24,0,0,1,.18,0h1.54a.26.26,0,0,1,.19,0,.17.17,0,0,1,0,.12.2.2,0,0,1,0,.14.26.26,0,0,1-.19,0h-.68v2.24l2.52-2.24H376a.26.26,0,0,1-.19,0,.16.16,0,0,1-.05-.14.13.13,0,0,1,.05-.12.26.26,0,0,1,.19,0h1.07c.1,0,.16,0,.19,0a.13.13,0,0,1,.05.12.16.16,0,0,1-.05.14s-.09,0-.19,0H377l-2,1.8a2.44,2.44,0,0,1,.74.45,3,3,0,0,1,.58.78q.15.28.57,1.32h.45a.29.29,0,0,1,.19.05.19.19,0,0,1,.07.14.17.17,0,0,1-.07.13.29.29,0,0,1-.19,0h-.71a7.44,7.44,0,0,0-1-2,2.09,2.09,0,0,0-1-.65Zm-2.56-2.6v-.25a.22.22,0,0,1,.06-.18.17.17,0,0,1,.26,0,.26.26,0,0,1,.05.18v1a.34.34,0,0,1-.05.2.15.15,0,0,1-.13.05.13.13,0,0,1-.12-.05.3.3,0,0,1-.07-.18.81.81,0,0,0-.39-.64,1.84,1.84,0,0,0-1.15-.39,1.67,1.67,0,0,0-.79.19,1.32,1.32,0,0,0-.45.33,3.32,3.32,0,0,0-.45.75,1.88,1.88,0,0,0-.12.69v.64a2,2,0,0,0,.58,1.42,1.93,1.93,0,0,0,1.38.59,1.66,1.66,0,0,0,.84-.2,2.54,2.54,0,0,0,.72-.62.21.21,0,0,1,.16-.09.17.17,0,0,1,.13,0,.21.21,0,0,1,.05.13c0,.07-.06.17-.19.3a2.55,2.55,0,0,1-.8.6,2.17,2.17,0,0,1-.89.2,2.32,2.32,0,0,1-.81-.15,2.09,2.09,0,0,1-.52-.27,3.78,3.78,0,0,1-.51-.53,2.65,2.65,0,0,1-.4-.68,2.24,2.24,0,0,1-.1-.7v-.74a2.48,2.48,0,0,1,.27-1.1,2.15,2.15,0,0,1,1.89-1.17A2.15,2.15,0,0,1,371.36,186.54Zm-8.13,2.14v2.08H366v-1.07a.22.22,0,0,1,.06-.18.15.15,0,0,1,.13-.06.16.16,0,0,1,.13.06.26.26,0,0,1,0,.18v1.44h-4a.34.34,0,0,1-.2,0,.15.15,0,0,1-.05-.13.17.17,0,0,1,.05-.14.34.34,0,0,1,.2-.05h.48v-4.35h-.48a.28.28,0,0,1-.2,0,.16.16,0,0,1-.05-.14.13.13,0,0,1,.05-.12.28.28,0,0,1,.2,0h3.83v1.25a.27.27,0,0,1,0,.19.17.17,0,0,1-.13,0,.22.22,0,0,1-.14,0,.33.33,0,0,1-.05-.19v-.89h-2.61v1.9h1.31v-.42a.3.3,0,0,1,0-.18.18.18,0,0,1,.13-.06.18.18,0,0,1,.14.06.3.3,0,0,1,.05.18v1.19a.32.32,0,0,1-.05.2.17.17,0,0,1-.14.05.17.17,0,0,1-.13-.05.32.32,0,0,1,0-.2v-.4Zm-2.92,0H357.9v2.1h.48a.31.31,0,0,1,.19.05.18.18,0,0,1,.06.14.16.16,0,0,1-.06.13.31.31,0,0,1-.19,0h-1.27a.33.33,0,0,1-.19,0,.19.19,0,0,1-.05-.13.22.22,0,0,1,.05-.14.33.33,0,0,1,.19-.05h.42v-4.35h-.23a.28.28,0,0,1-.2,0,.2.2,0,0,1-.05-.14.17.17,0,0,1,.05-.12.28.28,0,0,1,.2,0h1.08a.26.26,0,0,1,.19,0,.14.14,0,0,1,.06.12.17.17,0,0,1-.06.14.26.26,0,0,1-.19,0h-.48v1.9h2.41v-1.9h-.48a.28.28,0,0,1-.2,0,.2.2,0,0,1-.05-.14.17.17,0,0,1,.05-.12.28.28,0,0,1,.2,0h1.08a.26.26,0,0,1,.19,0,.14.14,0,0,1,.06.12.17.17,0,0,1-.06.14.26.26,0,0,1-.19,0h-.23v4.35h.42a.25.25,0,0,1,.17.05.19.19,0,0,1,.07.14.17.17,0,0,1-.07.13.25.25,0,0,1-.17,0h-1.27a.34.34,0,0,1-.2,0,.19.19,0,0,1-.05-.13.22.22,0,0,1,.05-.14.34.34,0,0,1,.2-.05h.48Zm-5-2.12v-.25a.26.26,0,0,1,0-.18.2.2,0,0,1,.15-.06.14.14,0,0,1,.12.06.26.26,0,0,1,.05.18v1a.34.34,0,0,1-.05.2.13.13,0,0,1-.12.05.14.14,0,0,1-.13-.05.3.3,0,0,1-.06-.18.82.82,0,0,0-.4-.64,1.82,1.82,0,0,0-1.15-.39,1.7,1.7,0,0,0-.79.19,1.32,1.32,0,0,0-.45.33,3,3,0,0,0-.45.75,1.88,1.88,0,0,0-.12.69v.64a2,2,0,0,0,.59,1.42,1.89,1.89,0,0,0,1.37.59,1.63,1.63,0,0,0,.84-.2,2.54,2.54,0,0,0,.72-.62.22.22,0,0,1,.16-.09.16.16,0,0,1,.13,0,.17.17,0,0,1,0,.13c0,.07-.06.17-.19.3a2.44,2.44,0,0,1-.8.6,2.17,2.17,0,0,1-.89.2,2.32,2.32,0,0,1-.81-.15,2.09,2.09,0,0,1-.52-.27,4.45,4.45,0,0,1-.51-.53,2.65,2.65,0,0,1-.4-.68,2.24,2.24,0,0,1-.1-.7v-.74a2.36,2.36,0,0,1,.28-1.1,2,2,0,0,1,.79-.86,2,2,0,0,1,1.09-.31A2.19,2.19,0,0,1,355.34,186.54Zm-4.53,7H346a.33.33,0,0,1-.19,0,.16.16,0,0,1,0-.14.17.17,0,0,1,0-.13.33.33,0,0,1,.19-.05h4.85a.27.27,0,0,1,.19.05.17.17,0,0,1,.05.13.16.16,0,0,1-.05.14A.27.27,0,0,1,350.81,193.57Zm-8.55-4.89h1.16a1.64,1.64,0,0,0,.76-.18,1.19,1.19,0,0,0,.51-.44,1,1,0,0,0,.16-.53,1,1,0,0,0-.37-.78,1.33,1.33,0,0,0-.93-.34h-1.29Zm0,.36v1.72h1.25a.3.3,0,0,1,.18.05.18.18,0,0,1,.06.14.16.16,0,0,1-.06.13.3.3,0,0,1-.18,0H341.4a.29.29,0,0,1-.19,0,.19.19,0,0,1,0-.13.22.22,0,0,1,0-.14.29.29,0,0,1,.19-.05h.49v-4.35h-.49c-.09,0-.16,0-.19,0a.2.2,0,0,1,0-.14.17.17,0,0,1,0-.12s.1,0,.19,0h2.12a1.68,1.68,0,0,1,1.22.44,1.39,1.39,0,0,1,.33,1.68,1.22,1.22,0,0,1-.37.43,1.92,1.92,0,0,1-.68.35,1.66,1.66,0,0,1-.62.09Zm-2.69-.44a2.6,2.6,0,0,0-.52-1.6,1.56,1.56,0,0,0-1.34-.71,1.64,1.64,0,0,0-1.31.68,2.47,2.47,0,0,0-.55,1.63,2.41,2.41,0,0,0,.57,1.66,1.69,1.69,0,0,0,1.29.64,1.59,1.59,0,0,0,1.34-.69A2.65,2.65,0,0,0,339.57,188.6Zm.37,0a3,3,0,0,1-.3,1.35,2.4,2.4,0,0,1-.82,1,1.94,1.94,0,0,1-1.11.34,2,2,0,0,1-1.55-.75,3.09,3.09,0,0,1,0-3.84,2,2,0,0,1,1.55-.75,1.89,1.89,0,0,1,1.11.36,2.28,2.28,0,0,1,.82,1A3,3,0,0,1,339.94,188.6Zm-12.73.23v1.93h.94a.29.29,0,0,1,.19.05.19.19,0,0,1,.07.14.17.17,0,0,1-.07.13.29.29,0,0,1-.19,0h-2.26a.31.31,0,0,1-.19,0,.19.19,0,0,1-.05-.13.22.22,0,0,1,.05-.14.31.31,0,0,1,.19-.05h.95v-1.93l-1.61-2.42H325a.24.24,0,0,1-.18,0,.16.16,0,0,1-.05-.14.13.13,0,0,1,.05-.12.24.24,0,0,1,.18,0h1c.08,0,.14,0,.17,0a.13.13,0,0,1,.07.12.15.15,0,0,1-.07.14s-.09,0-.17,0h-.37l1.37,2.05,1.34-2.05H328a.26.26,0,0,1-.19,0,.2.2,0,0,1-.05-.14.17.17,0,0,1,.05-.12.26.26,0,0,1,.19,0h1a.23.23,0,0,1,.18,0,.14.14,0,0,1,.06.12.17.17,0,0,1-.06.14.23.23,0,0,1-.18,0h-.22Zm-6.41-.15v2.08h1.25a.3.3,0,0,1,.18.05.18.18,0,0,1,.06.14.16.16,0,0,1-.06.13.3.3,0,0,1-.18,0h-2.11a.31.31,0,0,1-.19,0,.15.15,0,0,1-.05-.13.17.17,0,0,1,.05-.14.31.31,0,0,1,.19-.05h.49v-4.35h-.49a.26.26,0,0,1-.19,0,.16.16,0,0,1-.05-.14.22.22,0,0,1,.06-.14.36.36,0,0,1,.18,0h4v1.25a.27.27,0,0,1,0,.19.2.2,0,0,1-.14,0,.21.21,0,0,1-.13,0,.33.33,0,0,1-.05-.19v-.89H320.8v1.9h1.3v-.42a.3.3,0,0,1,0-.18.18.18,0,0,1,.14-.06.18.18,0,0,1,.13.06.3.3,0,0,1,.05.18v1.19a.32.32,0,0,1-.05.2.17.17,0,0,1-.13.05.17.17,0,0,1-.14-.05.32.32,0,0,1,0-.2v-.4Zm-4.28-2.27v4.35h1.25a.3.3,0,0,1,.18.05.18.18,0,0,1,.06.14.16.16,0,0,1-.06.13.3.3,0,0,1-.18,0H314.9a.33.33,0,0,1-.19,0,.19.19,0,0,1,0-.13.22.22,0,0,1,0-.14.33.33,0,0,1,.19-.05h1.25v-4.35H314.9a.27.27,0,0,1-.19,0,.2.2,0,0,1,0-.14.17.17,0,0,1,0-.12.27.27,0,0,1,.19,0h2.87a.24.24,0,0,1,.18,0,.14.14,0,0,1,.06.12.17.17,0,0,1-.06.14.24.24,0,0,1-.18,0Zm-6.72,2.09h1a2,2,0,0,0,.86-.18,1.33,1.33,0,0,0,.56-.4.8.8,0,0,0,.18-.48,1,1,0,0,0-.36-.7,1.32,1.32,0,0,0-.9-.33H309.8Zm0,.36v1.9h.68a.3.3,0,0,1,.18.05.18.18,0,0,1,.06.14.16.16,0,0,1-.06.13.3.3,0,0,1-.18,0H309a.34.34,0,0,1-.2,0,.15.15,0,0,1-.05-.13.17.17,0,0,1,.05-.14.34.34,0,0,1,.2-.05h.48v-4.35H309a.28.28,0,0,1-.2,0,.16.16,0,0,1-.05-.14.13.13,0,0,1,.05-.12.28.28,0,0,1,.2,0h2.2a1.61,1.61,0,0,1,1.15.43,1.29,1.29,0,0,1,.47,1,1.2,1.2,0,0,1-.29.75,2.27,2.27,0,0,1-1,.56,3.27,3.27,0,0,1,.67.61,13,13,0,0,1,.88,1.39h.28a.26.26,0,0,1,.18.05.18.18,0,0,1,.06.14.16.16,0,0,1-.06.13.26.26,0,0,1-.18,0h-.48a9.94,9.94,0,0,0-1.06-1.62,2.79,2.79,0,0,0-.85-.65Zm-5.35-.18v2.08h2.81v-1.07a.26.26,0,0,1,.05-.18.18.18,0,0,1,.14-.06.16.16,0,0,1,.13.06.26.26,0,0,1,.05.18v1.44h-4a.38.38,0,0,1-.21,0,.19.19,0,0,1,0-.13.22.22,0,0,1,0-.14.38.38,0,0,1,.21-.05h.48v-4.35h-.48a.31.31,0,0,1-.21,0,.2.2,0,0,1,0-.14.17.17,0,0,1,0-.12.31.31,0,0,1,.21,0h3.83v1.25a.33.33,0,0,1-.05.19.21.21,0,0,1-.13,0,.22.22,0,0,1-.14,0,.33.33,0,0,1-.05-.19v-.89h-2.62v1.9h1.32v-.42a.24.24,0,0,1,.05-.18.16.16,0,0,1,.13-.06.2.2,0,0,1,.14.06.3.3,0,0,1,.05.18v1.19a.32.32,0,0,1-.05.2.19.19,0,0,1-.14.05.15.15,0,0,1-.13-.05.27.27,0,0,1-.05-.2v-.4Zm-3.87,2.45h-.51l-1.84-4.72h-.43a.23.23,0,0,1-.07-.07.43.43,0,0,1,0-.11.29.29,0,0,1,0-.09.13.13,0,0,1,.07-.06l.15,0h1.35a.4.4,0,0,1,.15,0,.13.13,0,0,1,.07.06.16.16,0,0,1,0,.09.23.23,0,0,1,0,.11.27.27,0,0,1-.08.07h-.84l1.7,4.35h0l1.66-4.35h-.84l-.07-.07a.43.43,0,0,1,0-.11.29.29,0,0,1,0-.09.21.21,0,0,1,.08-.06l.14,0h1.36l.14,0a.12.12,0,0,1,.08.06.16.16,0,0,1,0,.09.23.23,0,0,1,0,.11.19.19,0,0,1-.08.07h-.41Zm-6.26-4.72v4.35h2.43v-1.45a.26.26,0,0,1,.05-.18.18.18,0,0,1,.14-.06.18.18,0,0,1,.13.06.26.26,0,0,1,.05.18v1.82h-4a.31.31,0,0,1-.19,0,.16.16,0,0,1-.06-.13.18.18,0,0,1,.06-.14.31.31,0,0,1,.19-.05H294v-4.35h-.87a.26.26,0,0,1-.19,0,.17.17,0,0,1-.06-.14.14.14,0,0,1,.06-.12.26.26,0,0,1,.19,0h2.11c.08,0,.14,0,.17,0a.14.14,0,0,1,.06.12.17.17,0,0,1-.06.14s-.09,0-.17,0Zm-3.65,2.66-1-2.66h-.13l-1,2.66Zm.15.37h-2.4l-.49,1.32h.7a.25.25,0,0,1,.17.05.16.16,0,0,1,.07.14.15.15,0,0,1-.07.13.25.25,0,0,1-.17,0h-1.37a.33.33,0,0,1-.19,0A.19.19,0,0,1,287,191a.22.22,0,0,1,.05-.14.33.33,0,0,1,.19-.05h.28l1.62-4.35h-1.08a.28.28,0,0,1-.2,0,.2.2,0,0,1-.05-.14.17.17,0,0,1,.05-.12.28.28,0,0,1,.2,0h1.84l1.78,4.71H292a.31.31,0,0,1,.19.05.18.18,0,0,1,.06.14.16.16,0,0,1-.06.13.31.31,0,0,1-.19,0h-1.35a.38.38,0,0,1-.21,0,.19.19,0,0,1-.05-.13.22.22,0,0,1,.05-.14.38.38,0,0,1,.21-.05h.69Zm-4.78-3v3.05a1.75,1.75,0,0,1-.52,1.29,1.64,1.64,0,0,1-1.24.52,1.85,1.85,0,0,1-.86-.2,1.9,1.9,0,0,1-.64-.65,1.78,1.78,0,0,1-.27-1v-3.05h-.3c-.1,0-.16,0-.19,0a.2.2,0,0,1,0-.14.27.27,0,0,1,0-.14.38.38,0,0,1,.19,0h1.34c.09,0,.16,0,.19,0a.14.14,0,0,1,.06.12.17.17,0,0,1-.06.14s-.1,0-.19,0h-.67v3.05a1.38,1.38,0,0,0,.4,1,1.35,1.35,0,0,0,1,.42,1.32,1.32,0,0,0,.66-.16,1.48,1.48,0,0,0,.52-.51,1.36,1.36,0,0,0,.22-.77v-3.05H285a.24.24,0,0,1-.18,0,.17.17,0,0,1-.06-.14.14.14,0,0,1,.06-.12.24.24,0,0,1,.18,0h1.34c.1,0,.16,0,.19,0a.13.13,0,0,1,.07.12.15.15,0,0,1-.07.14s-.09,0-.19,0Zm-5.24,2.19a2.6,2.6,0,0,0-.52-1.6,1.58,1.58,0,0,0-1.34-.71,1.64,1.64,0,0,0-1.31.68,2.47,2.47,0,0,0-.55,1.63,2.41,2.41,0,0,0,.57,1.66,1.69,1.69,0,0,0,1.29.64,1.61,1.61,0,0,0,1.34-.69A2.65,2.65,0,0,0,280.8,188.6ZM279,191.27l-.48.37a2.92,2.92,0,0,1,.59-.08,2.21,2.21,0,0,1,.75.14,1.14,1.14,0,0,0,.4.1,1.12,1.12,0,0,0,.57-.2.4.4,0,0,1,.17-.08.15.15,0,0,1,.12,0,.17.17,0,0,1,0,.13.16.16,0,0,1,0,.11,1.16,1.16,0,0,1-.42.26,1.37,1.37,0,0,1-.47.1,1.62,1.62,0,0,1-.52-.12,2,2,0,0,0-.62-.11,4.21,4.21,0,0,0-.52.05l-.71.14a.32.32,0,0,1-.12,0,.17.17,0,0,1-.13-.05.2.2,0,0,1-.05-.14.19.19,0,0,1,.1-.15l.81-.59a2.17,2.17,0,0,1-1.24-.89,2.91,2.91,0,0,1-.52-1.73,2.76,2.76,0,0,1,.68-1.92,2,2,0,0,1,1.55-.75,2,2,0,0,1,1.56.75,3.07,3.07,0,0,1,0,3.83A2,2,0,0,1,279,191.27Zm-6.59-2.59v2.08h2.81v-1.07a.26.26,0,0,1,.05-.18.2.2,0,0,1,.14-.06.18.18,0,0,1,.13.06.26.26,0,0,1,.05.18v1.44h-4a.34.34,0,0,1-.2,0,.15.15,0,0,1-.05-.13.17.17,0,0,1,.05-.14.34.34,0,0,1,.2-.05H272v-4.35h-.48a.28.28,0,0,1-.2,0,.16.16,0,0,1-.05-.14.13.13,0,0,1,.05-.12.28.28,0,0,1,.2,0h3.83v1.25a.33.33,0,0,1-.05.19.21.21,0,0,1-.13,0,.22.22,0,0,1-.14,0,.33.33,0,0,1-.05-.19v-.89h-2.62v1.9h1.32v-.42a.3.3,0,0,1,.05-.18.16.16,0,0,1,.13-.06.18.18,0,0,1,.14.06.3.3,0,0,1,.05.18v1.19a.32.32,0,0,1-.05.2.17.17,0,0,1-.14.05.15.15,0,0,1-.13-.05.32.32,0,0,1-.05-.2v-.4Zm-1.72,4.89h-4.86a.33.33,0,0,1-.19,0,.2.2,0,0,1-.05-.14.21.21,0,0,1,.05-.13.33.33,0,0,1,.19-.05h4.86a.29.29,0,0,1,.19.05.21.21,0,0,1,.05.13.2.2,0,0,1-.05.14A.29.29,0,0,1,270.67,193.57Zm-8.56-4.89h1.17a1.67,1.67,0,0,0,.76-.18,1.22,1.22,0,0,0,.5-.44,1,1,0,0,0,.17-.53,1.07,1.07,0,0,0-.37-.78,1.35,1.35,0,0,0-.94-.34h-1.29Zm0,.36v1.72h1.26a.25.25,0,0,1,.17.05.19.19,0,0,1,.07.14.17.17,0,0,1-.07.13.25.25,0,0,1-.17,0h-2.12a.31.31,0,0,1-.19,0A.19.19,0,0,1,261,191a.22.22,0,0,1,.05-.14.31.31,0,0,1,.19-.05h.5v-4.35h-.5a.26.26,0,0,1-.19,0,.2.2,0,0,1-.05-.14.17.17,0,0,1,.05-.12.26.26,0,0,1,.19,0h2.13a1.66,1.66,0,0,1,1.21.44,1.39,1.39,0,0,1,.33,1.68,1.2,1.2,0,0,1-.36.43,1.88,1.88,0,0,1-.69.35,1.62,1.62,0,0,1-.62.09Zm-2.68-.44a2.66,2.66,0,0,0-.52-1.6,1.59,1.59,0,0,0-1.34-.71,1.64,1.64,0,0,0-1.32.68,2.52,2.52,0,0,0-.54,1.63,2.41,2.41,0,0,0,.57,1.66,1.69,1.69,0,0,0,1.29.64,1.62,1.62,0,0,0,1.34-.69A2.71,2.71,0,0,0,259.43,188.6Zm.36,0a3,3,0,0,1-.3,1.35,2.31,2.31,0,0,1-.81,1,2,2,0,0,1-1.11.34,2,2,0,0,1-1.56-.75,3.09,3.09,0,0,1,0-3.84,2,2,0,0,1,1.56-.75,1.91,1.91,0,0,1,1.11.36,2.19,2.19,0,0,1,.81,1A3,3,0,0,1,259.79,188.6Zm-10.67,0-4,2.2a.32.32,0,0,1-.15,0,.13.13,0,0,1-.12,0,.2.2,0,0,1-.06-.14c0-.06.06-.13.16-.19l3.37-1.87L245,186.72c-.1-.05-.16-.12-.16-.19a.16.16,0,0,1,.06-.13.21.21,0,0,1,.13-.05.47.47,0,0,1,.14.05Zm-6.36.06h-2.41v2.1h.48a.31.31,0,0,1,.19.05.18.18,0,0,1,.06.14.16.16,0,0,1-.06.13.31.31,0,0,1-.19,0h-1.27a.3.3,0,0,1-.18,0,.15.15,0,0,1,0-.13.17.17,0,0,1,0-.14.3.3,0,0,1,.18-.05H240v-4.35h-.22a.31.31,0,0,1-.21,0,.2.2,0,0,1-.05-.14.17.17,0,0,1,.05-.12.31.31,0,0,1,.21,0h1.07a.26.26,0,0,1,.19,0,.14.14,0,0,1,.06.12.17.17,0,0,1-.06.14.26.26,0,0,1-.19,0h-.48v1.9h2.41v-1.9h-.48a.28.28,0,0,1-.2,0,.2.2,0,0,1-.05-.14.17.17,0,0,1,.05-.12.28.28,0,0,1,.2,0h1.08c.09,0,.16,0,.19,0a.14.14,0,0,1,.06.12.17.17,0,0,1-.06.14s-.1,0-.19,0h-.23v4.35h.42a.3.3,0,0,1,.18.05.18.18,0,0,1,.06.14.16.16,0,0,1-.06.13.3.3,0,0,1-.18,0h-1.27a.34.34,0,0,1-.2,0A.19.19,0,0,1,242,191a.22.22,0,0,1,.05-.14.34.34,0,0,1,.2-.05h.48Zm-7.75.48v1.62h.67a.31.31,0,0,1,.19.05.22.22,0,0,1,0,.14.19.19,0,0,1,0,.13.31.31,0,0,1-.19,0h-1.53a.31.31,0,0,1-.19,0,.15.15,0,0,1-.05-.13.17.17,0,0,1,.05-.14.31.31,0,0,1,.19-.05h.49v-4.35h-.49a.26.26,0,0,1-.19,0,.16.16,0,0,1-.05-.14.13.13,0,0,1,.05-.12.26.26,0,0,1,.19,0h1.53a.26.26,0,0,1,.19,0,.17.17,0,0,1,0,.12.2.2,0,0,1,0,.14.26.26,0,0,1-.19,0H235v2.24l2.51-2.24h-.4a.26.26,0,0,1-.19,0,.16.16,0,0,1-.05-.14.13.13,0,0,1,.05-.12.26.26,0,0,1,.19,0h1.07c.1,0,.16,0,.19,0a.13.13,0,0,1,.05.12.16.16,0,0,1-.05.14s-.09,0-.19,0h-.14l-2,1.8a2.44,2.44,0,0,1,.74.45,3,3,0,0,1,.58.78q.15.28.57,1.32h.45a.27.27,0,0,1,.19.05.16.16,0,0,1,.07.14.15.15,0,0,1-.07.13.27.27,0,0,1-.19,0h-.7a7.37,7.37,0,0,0-1-2,2.09,2.09,0,0,0-1-.65Zm-4.95-.46h1.16a1.67,1.67,0,0,0,.76-.18,1.22,1.22,0,0,0,.5-.44,1,1,0,0,0-.2-1.31,1.35,1.35,0,0,0-.94-.34h-1.28Zm0,.36v1.72h1.25a.25.25,0,0,1,.17.05.16.16,0,0,1,.07.14.15.15,0,0,1-.07.13.25.25,0,0,1-.17,0H229.2a.27.27,0,0,1-.19,0A.16.16,0,0,1,229,191a.18.18,0,0,1,.06-.14.27.27,0,0,1,.19-.05h.49v-4.35h-.49c-.1,0-.16,0-.19,0a.17.17,0,0,1-.06-.14.14.14,0,0,1,.06-.12s.09,0,.19,0h2.12a1.66,1.66,0,0,1,1.21.44,1.35,1.35,0,0,1,.33,1.68,1.2,1.2,0,0,1-.36.43,1.88,1.88,0,0,1-.69.35,1.59,1.59,0,0,1-.62.09Zm-6.8-.44,3.94-2.2a.39.39,0,0,1,.14-.05.19.19,0,0,1,.13.05.16.16,0,0,1,.06.13.23.23,0,0,1-.15.19L224,188.6l3.39,1.87a.26.26,0,0,1,.14.19.24.24,0,0,1-.05.14.15.15,0,0,1-.13,0,.32.32,0,0,1-.15,0Zm-7.13-.61a2.65,2.65,0,0,0-.16-.94,2.44,2.44,0,0,0-.32-.72.78.78,0,0,0-.28-.26,1,1,0,0,0-.56-.16,1.07,1.07,0,0,0-1,.63,2.93,2.93,0,0,0-.34,1.45v.81a3.14,3.14,0,0,0,.14,1,3.32,3.32,0,0,0,.32.7,1.39,1.39,0,0,0,.28.26,1.1,1.1,0,0,0,.57.15,1.05,1.05,0,0,0,1-.62,2.91,2.91,0,0,0,.36-1.47Zm.36,0v.89a2.89,2.89,0,0,1-.57,1.88,1.35,1.35,0,0,1-1.1.53,1.64,1.64,0,0,1-.62-.13,1.48,1.48,0,0,1-.48-.35,3.48,3.48,0,0,1-.26-.47,3.05,3.05,0,0,1-.22-.58,3.74,3.74,0,0,1-.1-.88V188a2.91,2.91,0,0,1,.56-1.88,1.36,1.36,0,0,1,1.11-.54,1.27,1.27,0,0,1,.61.14,1.48,1.48,0,0,1,.48.35,2.21,2.21,0,0,1,.28.47,2.89,2.89,0,0,1,.21.57A3.36,3.36,0,0,1,216.49,188Zm-8,1.46a2.17,2.17,0,0,0,.52,1.14,1.16,1.16,0,0,0,.83.33,1.06,1.06,0,0,0,.82-.38,1.37,1.37,0,0,0,.36-1,1.26,1.26,0,0,0-.36-.93,1,1,0,0,0-.78-.38,1.16,1.16,0,0,0-.81.37A2.77,2.77,0,0,0,208.47,189.42Zm-.09-.61a3.06,3.06,0,0,1,.69-.73,1.47,1.47,0,0,1,.8-.24,1.4,1.4,0,0,1,1,.49,1.7,1.7,0,0,1,.46,1.19,2,2,0,0,1-.42,1.21,1.36,1.36,0,0,1-1.14.53,1.57,1.57,0,0,1-.89-.29,2,2,0,0,1-.64-.9,4.63,4.63,0,0,1-.29-1.66,2.89,2.89,0,0,1,.28-1.28,2.52,2.52,0,0,1,.54-.79,2.75,2.75,0,0,1,.82-.57,2.29,2.29,0,0,1,1-.23,1.15,1.15,0,0,1,.61.15.2.2,0,0,1,.11.18.13.13,0,0,1,0,.12.14.14,0,0,1-.12.06.22.22,0,0,1-.13-.06,1.26,1.26,0,0,0-.46-.08,2.08,2.08,0,0,0-1.54.73,2.46,2.46,0,0,0-.7,1.73C208.35,188.47,208.36,188.61,208.38,188.81Zm-4.07-3.21v5.16h1.26a.25.25,0,0,1,.17.05.19.19,0,0,1,.07.14.17.17,0,0,1-.07.13.25.25,0,0,1-.17,0h-2.88a.34.34,0,0,1-.2,0,.19.19,0,0,1-.05-.13.22.22,0,0,1,.05-.14.34.34,0,0,1,.2-.05H204v-4.65l-1.21.37-.12,0a.21.21,0,0,1-.12-.05.17.17,0,0,1-.05-.12.28.28,0,0,1,0-.13.5.5,0,0,1,.15-.08ZM200,188.66H197.6v2.1h.49a.31.31,0,0,1,.19.05.18.18,0,0,1,.06.14.16.16,0,0,1-.06.13.31.31,0,0,1-.19,0h-1.27a.33.33,0,0,1-.19,0,.19.19,0,0,1,0-.13.22.22,0,0,1,0-.14.33.33,0,0,1,.19-.05h.42v-4.35H197a.28.28,0,0,1-.2,0,.16.16,0,0,1-.05-.14.13.13,0,0,1,.05-.12.28.28,0,0,1,.2,0h1.08a.26.26,0,0,1,.19,0,.14.14,0,0,1,.06.12.17.17,0,0,1-.06.14.26.26,0,0,1-.19,0h-.49v1.9H200v-1.9h-.48a.28.28,0,0,1-.2,0,.16.16,0,0,1-.05-.14.13.13,0,0,1,.05-.12.28.28,0,0,1,.2,0h1.08c.09,0,.15,0,.18,0a.13.13,0,0,1,.07.12.15.15,0,0,1-.07.14s-.09,0-.18,0h-.23v4.35h.41a.26.26,0,0,1,.18.05.18.18,0,0,1,.06.14.16.16,0,0,1-.06.13.26.26,0,0,1-.18,0h-1.26a.34.34,0,0,1-.2,0,.15.15,0,0,1-.05-.13.17.17,0,0,1,.05-.14.34.34,0,0,1,.2-.05H200Zm-5.27-2.25v-.12a.34.34,0,0,1,0-.18.18.18,0,0,1,.14-.06.15.15,0,0,1,.13.06.26.26,0,0,1,.05.18v.93a.31.31,0,0,1-.05.19.14.14,0,0,1-.13.05.17.17,0,0,1-.13-.05.25.25,0,0,1-.05-.17.9.9,0,0,0-.37-.66,1.65,1.65,0,0,0-1.9,0,1,1,0,0,0-.36.74.87.87,0,0,0,.1.39.94.94,0,0,0,.27.29,1.41,1.41,0,0,0,.37.18c.14,0,.36.08.65.13a4.75,4.75,0,0,1,1,.26,1.21,1.21,0,0,1,.57.47,1.25,1.25,0,0,1,.2.7,1.38,1.38,0,0,1-.51,1.08,2,2,0,0,1-1.34.43,2.07,2.07,0,0,1-1.53-.59v.21a.27.27,0,0,1-.05.19.14.14,0,0,1-.12,0,.19.19,0,0,1-.13,0,.33.33,0,0,1,0-.19v-1a.27.27,0,0,1,0-.19.17.17,0,0,1,.13-.07.15.15,0,0,1,.12.07.19.19,0,0,1,.05.16,1.05,1.05,0,0,0,.43.74,1.75,1.75,0,0,0,1.1.31,1.57,1.57,0,0,0,1.08-.34,1,1,0,0,0,.4-.81.84.84,0,0,0-.15-.5,1,1,0,0,0-.45-.36,4.12,4.12,0,0,0-.88-.21,3.07,3.07,0,0,1-1.3-.46,1.07,1.07,0,0,1-.4-.9,1.26,1.26,0,0,1,.45-1,1.76,1.76,0,0,1,1.22-.42A2,2,0,0,1,194.75,186.41Zm-5.59,2.66-1-2.66H188l-1,2.66Zm.14.37h-2.39l-.5,1.32h.7a.3.3,0,0,1,.18.05.18.18,0,0,1,.06.14.16.16,0,0,1-.06.13.3.3,0,0,1-.18,0h-1.37a.36.36,0,0,1-.19,0,.19.19,0,0,1-.05-.13.22.22,0,0,1,.05-.14.36.36,0,0,1,.19-.05H186l1.62-4.35h-1.08a.3.3,0,0,1-.2,0,.2.2,0,0,1-.05-.14.17.17,0,0,1,.05-.12.3.3,0,0,1,.2,0h1.84l1.78,4.71h.28a.29.29,0,0,1,.19.05.18.18,0,0,1,.06.14.16.16,0,0,1-.06.13.29.29,0,0,1-.19,0h-1.35a.32.32,0,0,1-.2,0,.16.16,0,0,1-.06-.13.18.18,0,0,1,.06-.14.32.32,0,0,1,.2-.05h.69Zm-5.31-.78h-2.41v2.1h.48a.31.31,0,0,1,.19.05.18.18,0,0,1,.06.14.16.16,0,0,1-.06.13.31.31,0,0,1-.19,0h-1.27a.33.33,0,0,1-.19,0,.19.19,0,0,1,0-.13.22.22,0,0,1,0-.14.33.33,0,0,1,.19-.05h.42v-4.35H181a.28.28,0,0,1-.2,0,.2.2,0,0,1-.05-.14.17.17,0,0,1,.05-.12.28.28,0,0,1,.2,0h1.08a.26.26,0,0,1,.19,0,.14.14,0,0,1,.06.12.17.17,0,0,1-.06.14.26.26,0,0,1-.19,0h-.48v1.9H184v-1.9h-.48a.28.28,0,0,1-.2,0,.16.16,0,0,1-.05-.14.13.13,0,0,1,.05-.12.28.28,0,0,1,.2,0h1.08a.26.26,0,0,1,.19,0,.14.14,0,0,1,.06.12.17.17,0,0,1-.06.14.26.26,0,0,1-.19,0h-.23v4.35h.42a.25.25,0,0,1,.17.05.19.19,0,0,1,.07.14.17.17,0,0,1-.07.13.25.25,0,0,1-.17,0h-1.27a.34.34,0,0,1-.2,0,.15.15,0,0,1-.05-.13.17.17,0,0,1,.05-.14.34.34,0,0,1,.2-.05H184Zm-4.15,4.91H175a.33.33,0,0,1-.19,0,.2.2,0,0,1,0-.14.21.21,0,0,1,0-.13.33.33,0,0,1,.19-.05h4.86a.31.31,0,0,1,.19.05.21.21,0,0,1,.05.13.2.2,0,0,1-.05.14A.31.31,0,0,1,179.84,193.57Zm-8.56-4.89h1.16a1.64,1.64,0,0,0,.76-.18,1.19,1.19,0,0,0,.51-.44,1,1,0,0,0,.16-.53,1.06,1.06,0,0,0-.36-.78,1.37,1.37,0,0,0-.94-.34h-1.29Zm0,.36v1.72h1.25a.26.26,0,0,1,.18.05.18.18,0,0,1,.06.14.16.16,0,0,1-.06.13.26.26,0,0,1-.18,0h-2.11a.31.31,0,0,1-.19,0,.19.19,0,0,1,0-.13.22.22,0,0,1,0-.14.31.31,0,0,1,.19-.05h.5v-4.35h-.5a.26.26,0,0,1-.19,0,.2.2,0,0,1,0-.14.17.17,0,0,1,0-.12.26.26,0,0,1,.19,0h2.13a1.67,1.67,0,0,1,1.21.44,1.39,1.39,0,0,1,.33,1.68,1.13,1.13,0,0,1-.37.43,1.84,1.84,0,0,1-.68.35,1.66,1.66,0,0,1-.62.09Zm-2.69-.44a2.65,2.65,0,0,0-.51-1.6,1.59,1.59,0,0,0-1.35-.71,1.64,1.64,0,0,0-1.31.68,2.52,2.52,0,0,0-.54,1.63,2.41,2.41,0,0,0,.57,1.66,1.68,1.68,0,0,0,1.28.64,1.62,1.62,0,0,0,1.35-.69A2.71,2.71,0,0,0,168.59,188.6Zm.37,0a3,3,0,0,1-.3,1.35,2.46,2.46,0,0,1-.81,1,2,2,0,0,1-1.12.34,2,2,0,0,1-1.55-.75,3.09,3.09,0,0,1,0-3.84,2,2,0,0,1,1.55-.75,1.94,1.94,0,0,1,1.12.36,2.33,2.33,0,0,1,.81,1A3,3,0,0,1,169,188.6Zm-13.71.08h1.17a1.6,1.6,0,0,0,.75-.18,1.19,1.19,0,0,0,.51-.44,1,1,0,0,0,.17-.53,1.07,1.07,0,0,0-.37-.78,1.37,1.37,0,0,0-.94-.34h-1.29Zm0,.36v1.72h1.25a.26.26,0,0,1,.18.05.19.19,0,0,1,.07.14.17.17,0,0,1-.07.13.26.26,0,0,1-.18,0h-2.11a.31.31,0,0,1-.19,0,.19.19,0,0,1,0-.13.22.22,0,0,1,0-.14.31.31,0,0,1,.19-.05h.5v-4.35h-.5a.26.26,0,0,1-.19,0,.2.2,0,0,1,0-.14.17.17,0,0,1,0-.12.26.26,0,0,1,.19,0h2.13a1.66,1.66,0,0,1,1.21.44,1.39,1.39,0,0,1,.33,1.68,1.13,1.13,0,0,1-.37.43,1.84,1.84,0,0,1-.68.35,1.62,1.62,0,0,1-.62.09Zm-2.79-2.63v3.05a1.78,1.78,0,0,1-.51,1.29,1.67,1.67,0,0,1-1.24.52,1.64,1.64,0,0,1-1.51-.85,1.78,1.78,0,0,1-.26-1v-3.05h-.31a.26.26,0,0,1-.19,0,.2.2,0,0,1-.05-.14.27.27,0,0,1,.05-.14.44.44,0,0,1,.19,0H150c.09,0,.16,0,.19,0a.12.12,0,0,1,.06.12.14.14,0,0,1-.06.14s-.1,0-.19,0h-.67v3.05a1.39,1.39,0,0,0,.41,1,1.32,1.32,0,0,0,1,.42,1.29,1.29,0,0,0,.66-.16,1.41,1.41,0,0,0,.52-.51,1.37,1.37,0,0,0,.23-.77v-3.05h-.67a.26.26,0,0,1-.19,0,.16.16,0,0,1-.05-.14.13.13,0,0,1,.05-.12.26.26,0,0,1,.19,0h1.34a.26.26,0,0,1,.19,0,.14.14,0,0,1,.06.12.17.17,0,0,1-.06.14.26.26,0,0,1-.19,0Zm-8.17,4.35h1.33a1.48,1.48,0,0,0,.86-.29,2,2,0,0,0,.81-1.55v-.66a1.48,1.48,0,0,0-.12-.61,2.63,2.63,0,0,0-.44-.73,1.23,1.23,0,0,0-.46-.34,1.34,1.34,0,0,0-.65-.17h-1.33Zm-.37,0v-4.35h-.3a.28.28,0,0,1-.2,0,.16.16,0,0,1,0-.14.13.13,0,0,1,0-.12.28.28,0,0,1,.2,0h2a1.78,1.78,0,0,1,.83.19,1.53,1.53,0,0,1,.59.43,3.18,3.18,0,0,1,.53.87,2.39,2.39,0,0,1,.12.79v.51a2.51,2.51,0,0,1-.25,1.09,2.35,2.35,0,0,1-.82.91,1.78,1.78,0,0,1-1,.29h-2a.34.34,0,0,1-.2,0,.15.15,0,0,1,0-.13.17.17,0,0,1,0-.14.34.34,0,0,1,.2-.05Zm-1.49,2.81h-4.85a.31.31,0,0,1-.19,0,.16.16,0,0,1,0-.14.17.17,0,0,1,0-.13.31.31,0,0,1,.19-.05h4.85a.27.27,0,0,1,.19.05.17.17,0,0,1,0,.13.16.16,0,0,1,0,.14A.27.27,0,0,1,142.43,193.57Zm-8.55-4.89H135a1.64,1.64,0,0,0,.76-.18,1.19,1.19,0,0,0,.51-.44,1,1,0,0,0,.16-.53,1.06,1.06,0,0,0-.36-.78,1.37,1.37,0,0,0-.94-.34h-1.29Zm0,.36v1.72h1.25a.28.28,0,0,1,.18.05.18.18,0,0,1,.06.14.16.16,0,0,1-.06.13.28.28,0,0,1-.18,0H133a.29.29,0,0,1-.19,0,.19.19,0,0,1-.05-.13.22.22,0,0,1,.05-.14.29.29,0,0,1,.19-.05h.49v-4.35H133c-.09,0-.16,0-.19,0a.2.2,0,0,1-.05-.14.17.17,0,0,1,.05-.12s.1,0,.19,0h2.13a1.67,1.67,0,0,1,1.21.44,1.39,1.39,0,0,1,.33,1.68,1.22,1.22,0,0,1-.37.43,1.92,1.92,0,0,1-.68.35,1.66,1.66,0,0,1-.62.09Zm-2.69-.44a2.6,2.6,0,0,0-.52-1.6,1.56,1.56,0,0,0-1.34-.71A1.64,1.64,0,0,0,128,187a2.53,2.53,0,0,0-.55,1.63,2.41,2.41,0,0,0,.57,1.66,1.69,1.69,0,0,0,1.29.64,1.59,1.59,0,0,0,1.34-.69A2.65,2.65,0,0,0,131.19,188.6Zm.37,0a3,3,0,0,1-.3,1.35,2.46,2.46,0,0,1-.81,1,2,2,0,0,1-1.12.34,2,2,0,0,1-1.55-.75,3.09,3.09,0,0,1,0-3.84,2,2,0,0,1,1.55-.75,1.94,1.94,0,0,1,1.12.36,2.33,2.33,0,0,1,.81,1A3,3,0,0,1,131.56,188.6Z" transform="translate(-121.75 -123.79)"/>
      <path d="M280.36,136c.95-.28,1.56-.54,2.33-.84v2.89a23.59,23.59,0,0,0-2.32-.86,16.49,16.49,0,0,0-2.53-.6A17.21,17.21,0,0,0,280.36,136Z" transform="translate(-121.75 -123.79)"/>
      <line class="cls-22" x1="160.73" y1="12.82" x2="183.34" y2="12.82"/>
      <path class="cls-23" d="M207.79,153.46c4.38-12.08-4.15-18.64-2.52-29.61" transform="translate(-121.75 -123.79)"/>
      <g>
        <g>
          <rect class="cls-11" x="126.82" y="7.29" width="25.74" height="14.15" rx="2"/>
          <rect class="cls-24" x="126.82" y="7.29" width="25.74" height="14.15" rx="2"/>
        </g>
        <text class="cls-4" transform="translate(129.31 17.51)">PKH</text>
      </g>
    </g>
  </g>
</svg>
