<?xml version="1.0" encoding="UTF-8" standalone="no"?>
<svg
   xmlns:dc="http://purl.org/dc/elements/1.1/"
   xmlns:cc="http://creativecommons.org/ns#"
   xmlns:rdf="http://www.w3.org/1999/02/22-rdf-syntax-ns#"
   xmlns:svg="http://www.w3.org/2000/svg"
   xmlns="http://www.w3.org/2000/svg"
   xmlns:sodipodi="http://sodipodi.sourceforge.net/DTD/sodipodi-0.dtd"
   xmlns:inkscape="http://www.inkscape.org/namespaces/inkscape"
   version="1.1"
   id="svg2"
   xml:space="preserve"
   width="337.51428"
   height="96.257324"
   viewBox="0 0 337.51428 96.257324"
   sodipodi:docname="10-32.ai"><metadata
     id="metadata8"><rdf:RDF><cc:Work
         rdf:about=""><dc:format>image/svg+xml</dc:format><dc:type
           rdf:resource="http://purl.org/dc/dcmitype/StillImage" /></cc:Work></rdf:RDF></metadata><defs
     id="defs6"><clipPath
       clipPathUnits="userSpaceOnUse"
       id="clipPath18"><path
         d="M 0,792 H 612 V 0 H 0 Z"
         id="path16" /></clipPath><clipPath
       clipPathUnits="userSpaceOnUse"
       id="clipPath38"><path
         d="M 0,792 H 612 V 0 H 0 Z"
         id="path36" /></clipPath><clipPath
       clipPathUnits="userSpaceOnUse"
       id="clipPath154"><path
         d="m 179.702,670.153 c -1.63,-10.969 6.899,-17.537 2.518,-29.608 v 0 h 79.413 v 29.608 z"
         id="path152" /></clipPath><clipPath
       clipPathUnits="userSpaceOnUse"
       id="clipPath174"><path
         d="M 0,792 H 612 V 0 H 0 Z"
         id="path172" /></clipPath><clipPath
       clipPathUnits="userSpaceOnUse"
       id="clipPath182"><path
         d="M 190.429,649.5 H 289.5 v -36.275 h -99.071 z"
         id="path180" /></clipPath><linearGradient
       x1="0"
       y1="0"
       x2="1"
       y2="0"
       gradientUnits="userSpaceOnUse"
       gradientTransform="matrix(0,-36.275391,-36.275391,0,239.96484,649.5)"
       spreadMethod="pad"
       id="linearGradient196"><stop
         style="stop-opacity:1;stop-color:#e2e2e2"
         offset="0"
         id="stop188" /><stop
         style="stop-opacity:1;stop-color:#e2e2e2"
         offset="0.159509"
         id="stop190" /><stop
         style="stop-opacity:1;stop-color:#e2e2e2"
         offset="0.51206017"
         id="stop192" /><stop
         style="stop-opacity:1;stop-color:#d3d2d2"
         offset="1"
         id="stop194" /></linearGradient><clipPath
       clipPathUnits="userSpaceOnUse"
       id="clipPath218"><path
         d="m 219.223,645.545 h 40.872 v -1.712 h -40.872 z"
         id="path216" /></clipPath><clipPath
       clipPathUnits="userSpaceOnUse"
       id="clipPath260"><path
         d="M 0,792 H 612 V 0 H 0 Z"
         id="path258" /></clipPath><linearGradient
       x1="0"
       y1="0"
       x2="1"
       y2="0"
       gradientUnits="userSpaceOnUse"
       gradientTransform="matrix(13.099344,-13.492363,-13.492363,-13.099344,308.99805,647.13916)"
       spreadMethod="pad"
       id="linearGradient300"><stop
         style="stop-opacity:1;stop-color:#5ec45b"
         offset="0"
         id="stop296" /><stop
         style="stop-opacity:1;stop-color:#dbf1cb"
         offset="1"
         id="stop298" /></linearGradient><linearGradient
       x1="0"
       y1="0"
       x2="1"
       y2="0"
       gradientUnits="userSpaceOnUse"
       gradientTransform="matrix(12.500704,-12.875761,-12.875761,-12.500704,309.23145,646.8999)"
       spreadMethod="pad"
       id="linearGradient320"><stop
         style="stop-opacity:1;stop-color:#dbf1cb"
         offset="0"
         id="stop316" /><stop
         style="stop-opacity:1;stop-color:#5ec45b"
         offset="1"
         id="stop318" /></linearGradient><clipPath
       clipPathUnits="userSpaceOnUse"
       id="clipPath330"><path
         d="M 0,792 H 612 V 0 H 0 Z"
         id="path328" /></clipPath><clipPath
       clipPathUnits="userSpaceOnUse"
       id="clipPath346"><path
         d="M 0,792 H 612 V 0 H 0 Z"
         id="path344" /></clipPath><linearGradient
       x1="0"
       y1="0"
       x2="1"
       y2="0"
       gradientUnits="userSpaceOnUse"
       gradientTransform="matrix(0.777382,-0.222525,-0.222525,-0.777382,322.87402,646.4043)"
       spreadMethod="pad"
       id="linearGradient382"><stop
         style="stop-opacity:1;stop-color:#6e6b6c"
         offset="0"
         id="stop370" /><stop
         style="stop-opacity:1;stop-color:#6e6b6c"
         offset="0.07336085"
         id="stop372" /><stop
         style="stop-opacity:1;stop-color:#dad9d9"
         offset="0.312883"
         id="stop374" /><stop
         style="stop-opacity:1;stop-color:#6e6b6c"
         offset="0.72210924"
         id="stop376" /><stop
         style="stop-opacity:1;stop-color:#6e6b6c"
         offset="0.797546"
         id="stop378" /><stop
         style="stop-opacity:1;stop-color:#bdbcbc"
         offset="1"
         id="stop380" /></linearGradient><radialGradient
       fx="0"
       fy="0"
       cx="0"
       cy="0"
       r="1"
       gradientUnits="userSpaceOnUse"
       gradientTransform="matrix(3.996969,0.0649856,0.0649856,-3.996969,322.29687,650.25488)"
       spreadMethod="pad"
       id="radialGradient404"><stop
         style="stop-opacity:1;stop-color:#f7927b"
         offset="0"
         id="stop398" /><stop
         style="stop-opacity:1;stop-color:#e11a22"
         offset="0.70487066"
         id="stop400" /><stop
         style="stop-opacity:1;stop-color:#e11a22"
         offset="1"
         id="stop402" /></radialGradient><clipPath
       clipPathUnits="userSpaceOnUse"
       id="clipPath414"><path
         d="M 0,792 H 612 V 0 H 0 Z"
         id="path412" /></clipPath><clipPath
       clipPathUnits="userSpaceOnUse"
       id="clipPath422"><path
         d="m 323.835,653.288 h 4.467 v -6.22 h -4.467 z"
         id="path420" /></clipPath><linearGradient
       x1="0"
       y1="0"
       x2="1"
       y2="0"
       gradientUnits="userSpaceOnUse"
       gradientTransform="matrix(2.1582391,-2.7239113,-2.7239113,-2.1582391,325.57715,651.07617)"
       spreadMethod="pad"
       id="linearGradient436"><stop
         style="stop-opacity:1;stop-color:#a41217"
         offset="0"
         id="stop428" /><stop
         style="stop-opacity:1;stop-color:#a41217"
         offset="0.288344"
         id="stop430" /><stop
         style="stop-opacity:1;stop-color:#a41217"
         offset="0.37324432"
         id="stop432" /><stop
         style="stop-opacity:1;stop-color:#f57f67"
         offset="1"
         id="stop434" /></linearGradient><linearGradient
       x1="0"
       y1="0"
       x2="1"
       y2="0"
       gradientUnits="userSpaceOnUse"
       gradientTransform="matrix(4.2086511,-1.5937515,-1.5937515,-4.2086511,323.03516,653.47363)"
       spreadMethod="pad"
       id="linearGradient482"><stop
         style="stop-opacity:1;stop-color:#e11a22"
         offset="0"
         id="stop468" /><stop
         style="stop-opacity:1;stop-color:#e11a22"
         offset="0.00613497"
         id="stop470" /><stop
         style="stop-opacity:1;stop-color:#e11a22"
         offset="0.10133118"
         id="stop472" /><stop
         style="stop-opacity:1;stop-color:#f57f67"
         offset="0.312883"
         id="stop474" /><stop
         style="stop-opacity:1;stop-color:#e31b22"
         offset="0.54110577"
         id="stop476" /><stop
         style="stop-opacity:1;stop-color:#e31b22"
         offset="0.797546"
         id="stop478" /><stop
         style="stop-opacity:1;stop-color:#b8151b"
         offset="1"
         id="stop480" /></linearGradient><clipPath
       clipPathUnits="userSpaceOnUse"
       id="clipPath492"><path
         d="M 0,792 H 612 V 0 H 0 Z"
         id="path490" /></clipPath><clipPath
       clipPathUnits="userSpaceOnUse"
       id="clipPath500"><path
         d="m 323.549,655.631 h 4.019 v -4.546 h -4.019 z"
         id="path498" /></clipPath><linearGradient
       x1="0"
       y1="0"
       x2="1"
       y2="0"
       gradientUnits="userSpaceOnUse"
       gradientTransform="matrix(4.1807756,-1.1967436,-1.1967436,-4.1807756,323.41113,654.14941)"
       spreadMethod="pad"
       id="linearGradient510"><stop
         style="stop-opacity:1;stop-color:#a41217"
         offset="0"
         id="stop506" /><stop
         style="stop-opacity:1;stop-color:#f57f67"
         offset="1"
         id="stop508" /></linearGradient><linearGradient
       x1="0"
       y1="0"
       x2="1"
       y2="0"
       gradientUnits="userSpaceOnUse"
       gradientTransform="matrix(5.6801462,-1.6259373,-1.6259373,-5.6801462,323.06738,656.32617)"
       spreadMethod="pad"
       id="linearGradient554"><stop
         style="stop-opacity:1;stop-color:#aa1318"
         offset="0"
         id="stop538" /><stop
         style="stop-opacity:1;stop-color:#aa1318"
         offset="0.00613497"
         id="stop540" /><stop
         style="stop-opacity:1;stop-color:#ee2327"
         offset="0.134969"
         id="stop542" /><stop
         style="stop-opacity:1;stop-color:#ee2327"
         offset="0.2440263"
         id="stop544" /><stop
         style="stop-opacity:1;stop-color:#f57f67"
         offset="0.312883"
         id="stop546" /><stop
         style="stop-opacity:1;stop-color:#ef2f2c"
         offset="0.50524088"
         id="stop548" /><stop
         style="stop-opacity:1;stop-color:#ef2f2c"
         offset="0.797546"
         id="stop550" /><stop
         style="stop-opacity:1;stop-color:#aa1318"
         offset="1"
         id="stop552" /></linearGradient><linearGradient
       x1="0"
       y1="0"
       x2="1"
       y2="0"
       gradientUnits="userSpaceOnUse"
       gradientTransform="matrix(-1.0813334,-3.7775941,-3.7775941,1.0813334,326.83398,658.74707)"
       spreadMethod="pad"
       id="linearGradient574"><stop
         style="stop-opacity:1;stop-color:#f1493c"
         offset="0"
         id="stop570" /><stop
         style="stop-opacity:1;stop-color:#e11a22"
         offset="1"
         id="stop572" /></linearGradient></defs><sodipodi:namedview
     pagecolor="#ffffff"
     bordercolor="#666666"
     borderopacity="1"
     objecttolerance="10"
     gridtolerance="10"
     guidetolerance="10"
     inkscape:pageopacity="0"
     inkscape:pageshadow="2"
     inkscape:window-width="640"
     inkscape:window-height="480"
     id="namedview4" /><g
     id="g10"
     inkscape:groupmode="layer"
     inkscape:label="10-32"
     transform="matrix(1.3333333,0,0,-1.3333333,-238.8217,893.60931)"><g
       id="g12"><g
         id="g14"
         clip-path="url(#clipPath18)"><g
           id="g20"
           transform="translate(431.752,646.333)"><path
             d="m 0,0 c 0,-1.1 -0.9,-2 -2,-2 h -119.084 c -1.1,0 -2,0.9 -2,2 v 18.815 c 0,1.101 0.9,2 2,2 H -2 c 1.1,0 2,-0.899 2,-2 z"
             style="fill:#feefe9;fill-opacity:1;fill-rule:evenodd;stroke:none"
             id="path22" /></g></g></g><text
       transform="matrix(1,0,0,-1,341.5327,652.6992)"
       style="font-variant:normal;font-weight:normal;font-stretch:normal;font-size:11.5px;font-family:Courier;-inkscape-font-specification:Courier;writing-mode:lr-tb;fill:#231f20;fill-opacity:1;fill-rule:nonzero;stroke:none"
       id="text26"><tspan
         x="0 17.1695 24.0695 30.9695 37.869499 59.190498 66.0905 72.990501"
         y="0"
         sodipodi:role="line"
         id="tspan24">00.07WSH</tspan></text><text
       transform="matrix(1,0,0,-1,421.4253,649.6992)"
       style="font-variant:normal;font-weight:normal;font-stretch:normal;font-size:7px;font-family:Courier;-inkscape-font-specification:Courier;writing-mode:lr-tb;fill:#231f20;fill-opacity:1;fill-rule:nonzero;stroke:none"
       id="text30"><tspan
         x="0"
         y="0"
         id="tspan28">X</tspan></text><g
       id="g32"><g
         id="g34"
         clip-path="url(#clipPath38)"><g
           id="g40"
           transform="translate(353.9189,667.0088)"><path
             d="M 0,0 V -22.426"
             style="fill:none;stroke:#656263;stroke-width:0.5;stroke-linecap:butt;stroke-linejoin:miter;stroke-miterlimit:4;stroke-dasharray:none;stroke-opacity:1"
             id="path42" /></g><g
           id="g44"
           transform="translate(431.752,646.333)"><path
             d="m 0,0 c 0,-1.1 -0.9,-2 -2,-2 h -119.084 c -1.1,0 -2,0.9 -2,2 v 18.815 c 0,1.101 0.9,2 2,2 H -2 c 1.1,0 2,-0.899 2,-2 z"
             style="fill:none;stroke:#d91920;stroke-width:1;stroke-linecap:butt;stroke-linejoin:round;stroke-miterlimit:4;stroke-dasharray:none;stroke-opacity:1"
             id="path46" /></g><g
           id="g48"
           transform="translate(313.9072,656.1602)"><path
             d="M 0,0 -1.701,1.912 C 1.484,2.891 3.785,2.143 5.641,1.543 7.014,1.094 8.01,0.773 9.375,1.068 c 1.387,0.299 1.869,0.83 2.43,1.446 0.724,0.799 1.547,1.705 4.324,1.972 l 1.35,-1.98 C 15.279,2.294 14.699,1.658 14.029,0.92 13.43,0.26 12.748,-0.488 10.945,-0.879 8.959,-1.307 7.277,-0.76 5.795,-0.28 4.119,0.266 2.535,0.78 0,0"
             style="fill:#f8a45c;fill-opacity:1;fill-rule:nonzero;stroke:none"
             id="path50" /></g><g
           id="g52"
           transform="translate(313.9072,656.1602)"><path
             d="M 0,0 -1.701,1.912 C 1.484,2.891 3.785,2.143 5.641,1.543 7.014,1.094 8.01,0.773 9.375,1.068 c 1.387,0.299 1.869,0.83 2.43,1.446 0.724,0.799 1.547,1.705 4.324,1.972 l 1.35,-1.98 C 15.279,2.294 14.699,1.658 14.029,0.92 13.43,0.26 12.748,-0.488 10.945,-0.879 8.959,-1.307 7.277,-0.76 5.795,-0.28 4.119,0.266 2.535,0.78 0,0 Z"
             style="fill:none;stroke:#231f20;stroke-width:0.3;stroke-linecap:butt;stroke-linejoin:miter;stroke-miterlimit:4;stroke-dasharray:none;stroke-opacity:1"
             id="path54" /></g><g
           id="g56"
           transform="translate(317.2334,654.3428)"><path
             d="M 0,0 -1.703,1.911 C 1.48,2.893 3.785,2.144 5.637,1.543 7.012,1.096 8.006,0.771 9.375,1.067 c 1.385,0.3 1.867,0.83 2.428,1.448 0.726,0.798 1.549,1.705 4.322,1.97 L 17.479,2.506 C 15.277,2.294 14.699,1.657 14.027,0.919 13.428,0.26 12.748,-0.489 10.943,-0.878 8.957,-1.307 7.277,-0.762 5.793,-0.279 4.119,0.265 2.533,0.778 0,0"
             style="fill:#f8a45c;fill-opacity:1;fill-rule:nonzero;stroke:none"
             id="path58" /></g><g
           id="g60"
           transform="translate(317.2334,654.3428)"><path
             d="M 0,0 -1.703,1.911 C 1.48,2.893 3.785,2.144 5.637,1.543 7.012,1.096 8.006,0.771 9.375,1.067 c 1.385,0.3 1.867,0.83 2.428,1.448 0.726,0.798 1.549,1.705 4.322,1.97 L 17.479,2.506 C 15.277,2.294 14.699,1.657 14.027,0.919 13.428,0.26 12.748,-0.489 10.943,-0.878 8.957,-1.307 7.277,-0.762 5.793,-0.279 4.119,0.265 2.533,0.778 0,0 Z"
             style="fill:none;stroke:#231f20;stroke-width:0.3;stroke-linecap:butt;stroke-linejoin:miter;stroke-miterlimit:4;stroke-dasharray:none;stroke-opacity:1"
             id="path62" /></g><g
           id="g64"
           transform="translate(316.4951,652.3164)"><path
             d="M 0,0 -1.701,1.91 C 1.484,2.893 3.787,2.143 5.641,1.541 7.014,1.096 8.008,0.772 9.375,1.066 c 1.387,0.3 1.869,0.832 2.428,1.45 0.726,0.797 1.549,1.703 4.322,1.969 L 17.479,2.504 C 15.277,2.294 14.701,1.658 14.027,0.918 13.428,0.258 12.75,-0.49 10.945,-0.879 8.961,-1.307 7.281,-0.762 5.795,-0.28 4.121,0.266 2.535,0.779 0,0"
             style="fill:#f8a45c;fill-opacity:1;fill-rule:nonzero;stroke:none"
             id="path66" /></g><g
           id="g68"
           transform="translate(316.4951,652.3164)"><path
             d="M 0,0 -1.701,1.91 C 1.484,2.893 3.787,2.143 5.641,1.541 7.014,1.096 8.008,0.772 9.375,1.066 c 1.387,0.3 1.869,0.832 2.428,1.45 0.726,0.797 1.549,1.703 4.322,1.969 L 17.479,2.504 C 15.277,2.294 14.701,1.658 14.027,0.918 13.428,0.258 12.75,-0.49 10.945,-0.879 8.961,-1.307 7.281,-0.762 5.795,-0.28 4.121,0.266 2.535,0.779 0,0 Z"
             style="fill:none;stroke:#231f20;stroke-width:0.3;stroke-linecap:butt;stroke-linejoin:miter;stroke-miterlimit:4;stroke-dasharray:none;stroke-opacity:1"
             id="path70" /></g><g
           id="g72"
           transform="translate(319.876,650.5176)"><path
             d="m 0,0 -1.701,1.913 c 3.183,0.978 5.49,0.231 7.34,-0.369 1.377,-0.449 2.369,-0.773 3.736,-0.476 1.387,0.299 1.871,0.83 2.428,1.447 0.728,0.799 1.551,1.704 4.324,1.971 l 1.352,-1.98 C 15.279,2.295 14.701,1.658 14.029,0.92 13.43,0.258 12.752,-0.488 10.945,-0.879 8.961,-1.308 7.281,-0.76 5.795,-0.279 4.119,0.266 2.537,0.78 0,0"
             style="fill:#f8a45c;fill-opacity:1;fill-rule:nonzero;stroke:none"
             id="path74" /></g><g
           id="g76"
           transform="translate(319.876,650.5176)"><path
             d="m 0,0 -1.701,1.913 c 3.183,0.978 5.49,0.231 7.34,-0.369 1.377,-0.449 2.369,-0.773 3.736,-0.476 1.387,0.299 1.871,0.83 2.428,1.447 0.728,0.799 1.551,1.704 4.324,1.971 l 1.352,-1.98 C 15.279,2.295 14.701,1.658 14.029,0.92 13.43,0.258 12.752,-0.488 10.945,-0.879 8.961,-1.308 7.281,-0.76 5.795,-0.279 4.119,0.266 2.537,0.78 0,0 Z"
             style="fill:none;stroke:#231f20;stroke-width:0.3;stroke-linecap:butt;stroke-linejoin:miter;stroke-miterlimit:4;stroke-dasharray:none;stroke-opacity:1"
             id="path78" /></g><g
           id="g80"
           transform="translate(314.4268,658.2461)"><path
             d="M 0,0 -1.704,1.914 C 1.482,2.895 3.785,2.145 5.639,1.545 7.012,1.097 8.006,0.775 9.375,1.07 c 1.385,0.299 1.865,0.83 2.428,1.447 0.724,0.799 1.549,1.704 4.32,1.971 l 1.354,-1.981 c -2.2,-0.21 -2.78,-0.849 -3.45,-1.585 -0.601,-0.661 -1.281,-1.408 -3.084,-1.799 -1.986,-0.428 -3.668,0.119 -5.15,0.6 C 4.117,0.267 2.533,0.782 0,0"
             style="fill:#f8a45c;fill-opacity:1;fill-rule:nonzero;stroke:none"
             id="path82" /></g><g
           id="g84"
           transform="translate(314.4268,658.2461)"><path
             d="M 0,0 -1.704,1.914 C 1.482,2.895 3.785,2.145 5.639,1.545 7.012,1.097 8.006,0.775 9.375,1.07 c 1.385,0.299 1.865,0.83 2.428,1.447 0.724,0.799 1.549,1.704 4.32,1.971 l 1.354,-1.981 c -2.2,-0.21 -2.78,-0.849 -3.45,-1.585 -0.601,-0.661 -1.281,-1.408 -3.084,-1.799 -1.986,-0.428 -3.668,0.119 -5.15,0.6 C 4.117,0.267 2.533,0.782 0,0 Z"
             style="fill:none;stroke:#231f20;stroke-width:0.3;stroke-linecap:butt;stroke-linejoin:miter;stroke-miterlimit:4;stroke-dasharray:none;stroke-opacity:1"
             id="path86" /></g><g
           id="g88"
           transform="translate(314.5342,659.9531)"><path
             d="m 0,0 2.324,0.208 1.012,-0.54 -1.514,0.096 z"
             style="fill:#231f20;fill-opacity:1;fill-rule:nonzero;stroke:none"
             id="path90" /></g><g
           id="g92"
           transform="translate(320.4736,658.7734)"><path
             d="m 0,0 2.479,-0.936 1.603,0.507 -2.033,0.265 z"
             style="fill:#231f20;fill-opacity:1;fill-rule:nonzero;stroke:none"
             id="path94" /></g><g
           id="g96"
           transform="translate(321.4482,655.79)"><path
             d="m 0,0 -1.746,0.09 -0.715,-0.486 1.774,0.178 2.265,-0.906 1.424,0.02 -1.961,0.765 z"
             style="fill:#231f20;fill-opacity:1;fill-rule:nonzero;stroke:none"
             id="path98" /></g><g
           id="g100"
           transform="translate(331.7373,655.9844)"><path
             d="m 0,0 c -0.443,-0.045 -1.574,-0.306 -1.574,-0.306 l -0.865,-1.419 1.218,0.862 1.897,0.264 z"
             style="fill:#231f20;fill-opacity:1;fill-rule:nonzero;stroke:none"
             id="path102" /></g><g
           id="g104"
           transform="translate(332.6377,652.5)"><path
             d="m 0,0 -0.805,-1.018 -1.834,-0.578 1.028,-0.438 1.509,0.619 z"
             style="fill:#231f20;fill-opacity:1;fill-rule:nonzero;stroke:none"
             id="path106" /></g><g
           id="g108"
           transform="translate(324.9678,651.5566)"><path
             d="M 0,0 -1.777,0.539 -3.135,0.205 -1.514,0.097 Z"
             style="fill:#231f20;fill-opacity:1;fill-rule:nonzero;stroke:none"
             id="path110" /></g><g
           id="g112"
           transform="translate(319.0713,653.752)"><path
             d="M 0,0 -1.01,-0.176 0.398,-0.255 Z"
             style="fill:#231f20;fill-opacity:1;fill-rule:nonzero;stroke:none"
             id="path114" /></g><g
           id="g116"
           transform="translate(327.2881,659.8262)"><path
             d="m 0,0 -1.252,-0.347 -1.48,-1.134 2.031,0.449 z"
             style="fill:#f9aeca;fill-opacity:1;fill-rule:evenodd;stroke:none"
             id="path118" /></g><g
           id="g120"
           transform="translate(328.8877,653.7012)"><path
             d="m 0,0 -1.648,-0.807 -0.182,-0.486 1.588,0.406 z"
             style="fill:#f9aeca;fill-opacity:1;fill-rule:evenodd;stroke:none"
             id="path122" /></g><g
           id="g124"
           transform="translate(335.9502,654.2129)"><path
             d="m 0,0 -1.848,-0.679 -0.134,-0.9 1.527,0.72 z"
             style="fill:#f9aeca;fill-opacity:1;fill-rule:evenodd;stroke:none"
             id="path126" /></g><g
           id="g128"
           transform="translate(317.9521,654.3057)"><path
             d="m 0,0 -1.25,-1.062 -0.445,0.67 z"
             style="fill:#f9aeca;fill-opacity:1;fill-rule:evenodd;stroke:none"
             id="path130" /></g><g
           id="g132"
           transform="translate(325.4971,656.5898)"><path
             d="m 0,0 -2.264,0.191 1.225,-0.564 z"
             style="fill:#96cd56;fill-opacity:1;fill-rule:evenodd;stroke:none"
             id="path134" /></g><g
           id="g136"
           transform="translate(327.7197,650.9961)"><path
             d="m 0,0 -2.111,0.479 c 0,0 1.09,-0.754 1.394,-0.897 0.307,-0.141 2.143,-0.277 2.143,-0.277 z"
             style="fill:#96cd56;fill-opacity:1;fill-rule:evenodd;stroke:none"
             id="path138" /></g><g
           id="g140"
           transform="translate(318.6943,656.3525)"><path
             d="m 0,0 -1.867,-0.064 0.722,-1.011 z"
             style="fill:#96cd56;fill-opacity:1;fill-rule:evenodd;stroke:none"
             id="path142" /></g><g
           id="g144"
           transform="translate(329.8799,661.8359)"><path
             d="m 0,0 -2.092,-0.851 c 0,0 -0.838,-1.217 -0.5,-1.159 0.336,0.059 1.785,0.992 1.785,0.992 z"
             style="fill:#96cd56;fill-opacity:1;fill-rule:evenodd;stroke:none"
             id="path146" /></g></g></g><g
       id="g148"><g
         id="g150"
         clip-path="url(#clipPath154)"><g
           id="g156"
           transform="translate(260.1328,646.333)"><path
             d="m 0,0 c 0,-1.1 -0.9,-2 -2,-2 h -84.852 c -1.1,0 -2,0.9 -2,2 v 18.815 c 0,1.101 0.9,2 2,2 H -2 c 1.1,0 2,-0.899 2,-2 z"
             style="fill:#feefe9;fill-opacity:1;fill-rule:evenodd;stroke:none"
             id="path158" /></g><text
           transform="matrix(1,0,0,-1,184.0625,652.6992)"
           style="font-variant:normal;font-weight:normal;font-stretch:normal;font-size:11.5px;font-family:Courier;-inkscape-font-specification:Courier;writing-mode:lr-tb;fill:#231f20;fill-opacity:1;fill-rule:nonzero;stroke:none"
           id="text162"><tspan
             x="0 6.9000001 13.8 20.700001"
             y="0"
             sodipodi:role="line"
             id="tspan160">0.08</tspan></text><g
           id="g164"
           transform="translate(260.1328,646.333)"><path
             d="m 0,0 c 0,-1.1 -0.9,-2 -2,-2 h -84.852 c -1.1,0 -2,0.9 -2,2 v 18.815 c 0,1.101 0.9,2 2,2 H -2 c 1.1,0 2,-0.899 2,-2 z"
             style="fill:none;stroke:#d91920;stroke-width:1;stroke-linecap:butt;stroke-linejoin:round;stroke-miterlimit:4;stroke-dasharray:none;stroke-opacity:1"
             id="path166" /></g></g></g><g
       id="g168"><g
         id="g170"
         clip-path="url(#clipPath174)"><g
           id="g176"><g
             id="g178" /><g
             id="g210"><g
               clip-path="url(#clipPath182)"
               id="g208"><g
                 id="g206"><g
                   id="g204"><g
                     id="g202"><g
                       id="g200"><path
                         d="M 289.5,613.225 255.72,649.5 h -31.166 l -34.125,-36.275 z"
                         style="fill:url(#linearGradient196);stroke:none"
                         id="path198" /></g></g></g></g></g></g></g><g
           id="g212"><g
             id="g214" /><g
             id="g226"><g
               clip-path="url(#clipPath218)"
               id="g224"><g
                 transform="translate(260.0947,644.8022)"
                 id="g222"><path
                   d="M 0,0 -0.691,0.743 C -0.957,0.317 -1.425,0.031 -1.962,0.031 h -37.969 l -0.941,-1 h 38.91 c 0.799,0 1.504,0.384 1.962,0.969"
                   style="fill:#d3d2d2;fill-opacity:1;fill-rule:nonzero;stroke:none"
                   id="path220" /></g></g></g></g><path
           d="M 190.429,613.225 H 289.5 v -14.961 h -99.071 z"
           style="fill:#ffffff;fill-opacity:1;fill-rule:nonzero;stroke:#231f20;stroke-width:0.5;stroke-linecap:butt;stroke-linejoin:round;stroke-miterlimit:10;stroke-dasharray:none;stroke-opacity:1"
           id="path228" /><g
           id="g230"
           transform="translate(263.0347,657.9868)"><path
             d="M 0,0 C 0.95,0.282 1.564,0.544 2.326,0.846 L 2.318,-2.049 c -0.269,0.132 -1.376,0.574 -2.32,0.866 -1.015,0.31 -1.935,0.523 -2.53,0.601 0.597,0.07 1.518,0.28 2.532,0.582"
             style="fill:#231f20;fill-opacity:1;fill-rule:nonzero;stroke:none"
             id="path232" /></g><g
           id="g234"
           transform="translate(264.6855,657.3862)"><path
             d="M 0,0 H 48.076"
             style="fill:none;stroke:#231f20;stroke-width:0.5;stroke-linecap:butt;stroke-linejoin:miter;stroke-miterlimit:4;stroke-dasharray:none;stroke-opacity:1"
             id="path236" /></g><g
           id="g238"
           transform="translate(182.2202,640.5449)"><path
             d="M 0,0 C 4.38,12.071 -4.148,18.64 -2.519,29.607"
             style="fill:none;stroke:#231f20;stroke-width:0.75;stroke-linecap:butt;stroke-linejoin:miter;stroke-miterlimit:10;stroke-dasharray:none;stroke-opacity:1"
             id="path240" /></g><g
           id="g242"
           transform="translate(256.8594,651.5)"><path
             d="m 0,0 c 0,-1.1 -0.9,-2 -2,-2 h -29.473 c -1.1,0 -2,0.9 -2,2 v 9.422 c 0,1.1 0.9,2 2,2 H -2 c 1.1,0 2,-0.9 2,-2 z"
             style="fill:#ffffff;fill-opacity:1;fill-rule:evenodd;stroke:none"
             id="path244" /></g><g
           id="g246"
           transform="translate(256.8594,651.5)"><path
             d="m 0,0 c 0,-1.1 -0.9,-2 -2,-2 h -29.473 c -1.1,0 -2,0.9 -2,2 v 9.422 c 0,1.1 0.9,2 2,2 H -2 c 1.1,0 2,-0.9 2,-2 z"
             style="fill:none;stroke:#d39886;stroke-width:0.5;stroke-linecap:butt;stroke-linejoin:miter;stroke-miterlimit:4;stroke-dasharray:none;stroke-opacity:1"
             id="path248" /></g></g></g><text
       transform="matrix(1,0,0,-1,226.6724,652.6992)"
       style="font-variant:normal;font-weight:normal;font-stretch:normal;font-size:11.5px;font-family:Courier;-inkscape-font-specification:Courier;writing-mode:lr-tb;fill:#231f20;fill-opacity:1;fill-rule:nonzero;stroke:none"
       id="text252"><tspan
         x="0 6.9000001 13.8 20.700001"
         y="0"
         sodipodi:role="line"
         id="tspan250">WPKH</tspan></text><g
       id="g254"><g
         id="g256"
         clip-path="url(#clipPath260)"><g
           id="g262"
           transform="translate(200.3037,606.1416)"><path
             d="m 0,0 v -0.921 c 0,-0.808 -0.193,-1.45 -0.585,-1.925 -0.295,-0.366 -0.672,-0.548 -1.13,-0.548 -0.227,0 -0.438,0.043 -0.639,0.13 -0.189,0.088 -0.356,0.21 -0.493,0.365 -0.079,0.104 -0.17,0.264 -0.272,0.482 -0.105,0.215 -0.181,0.415 -0.221,0.598 -0.07,0.252 -0.106,0.55 -0.106,0.898 V 0 c 0,0.817 0.191,1.458 0.572,1.927 0.305,0.373 0.686,0.557 1.145,0.557 0.225,0 0.435,-0.047 0.625,-0.144 C -0.915,2.254 -0.748,2.132 -0.611,1.978 -0.523,1.883 -0.428,1.724 -0.326,1.495 -0.22,1.282 -0.146,1.087 -0.102,0.911 -0.035,0.651 0,0.348 0,0 m -0.376,-0.037 c 0,0.347 -0.052,0.67 -0.157,0.974 -0.096,0.312 -0.207,0.558 -0.339,0.741 -0.068,0.104 -0.164,0.191 -0.285,0.26 -0.172,0.114 -0.364,0.169 -0.572,0.169 -0.417,0 -0.745,-0.216 -0.989,-0.649 -0.233,-0.425 -0.35,-0.922 -0.35,-1.495 v -0.834 c 0,-0.354 0.046,-0.688 0.142,-1 0.105,-0.302 0.216,-0.546 0.34,-0.73 0.078,-0.093 0.171,-0.18 0.285,-0.259 0.172,-0.106 0.369,-0.156 0.586,-0.156 0.417,0 0.739,0.213 0.975,0.637 0.242,0.433 0.364,0.935 0.364,1.508 z M 5.494,0 v -0.921 c 0,-0.808 -0.194,-1.45 -0.586,-1.925 -0.294,-0.366 -0.67,-0.548 -1.131,-0.548 -0.225,0 -0.436,0.043 -0.637,0.13 -0.19,0.088 -0.352,0.21 -0.493,0.365 -0.079,0.104 -0.169,0.264 -0.273,0.482 -0.104,0.215 -0.176,0.415 -0.22,0.598 -0.071,0.252 -0.106,0.55 -0.106,0.898 V 0 c 0,0.817 0.191,1.458 0.573,1.927 C 2.924,2.3 3.306,2.484 3.765,2.484 3.99,2.484 4.2,2.437 4.389,2.34 4.579,2.254 4.745,2.132 4.882,1.978 4.971,1.883 5.065,1.724 5.167,1.495 5.274,1.282 5.349,1.087 5.392,0.911 5.459,0.651 5.494,0.348 5.494,0 M 5.118,-0.037 C 5.118,0.31 5.065,0.633 4.961,0.937 4.865,1.249 4.753,1.495 4.623,1.678 4.555,1.782 4.458,1.869 4.336,1.938 4.165,2.052 3.976,2.107 3.765,2.107 3.351,2.107 3.02,1.891 2.778,1.458 2.543,1.033 2.425,0.536 2.425,-0.037 v -0.834 c 0,-0.354 0.048,-0.688 0.143,-1 0.105,-0.302 0.22,-0.546 0.339,-0.73 0.078,-0.093 0.172,-0.18 0.286,-0.259 0.175,-0.106 0.369,-0.156 0.584,-0.156 0.418,0 0.742,0.213 0.976,0.637 0.244,0.433 0.365,0.935 0.365,1.508 z m 7.334,-0.624 4.059,2.264 c 0.057,0.032 0.106,0.05 0.141,0.05 0.054,0 0.097,-0.018 0.131,-0.05 0.043,-0.037 0.063,-0.08 0.063,-0.132 0,-0.078 -0.049,-0.141 -0.156,-0.195 l -3.484,-1.937 3.484,-1.926 c 0.096,-0.06 0.143,-0.125 0.143,-0.194 0,-0.053 -0.016,-0.101 -0.05,-0.144 -0.034,-0.036 -0.077,-0.051 -0.131,-0.051 -0.035,0 -0.087,0.015 -0.157,0.051 z m 6.183,-2.226 h 2.886 v 0.145 c 0,0.095 0.018,0.159 0.053,0.195 0.034,0.035 0.077,0.051 0.129,0.051 0.062,0 0.109,-0.016 0.143,-0.051 0.035,-0.036 0.051,-0.1 0.051,-0.195 v -0.522 h -3.628 v 0.562 c 0.764,0.681 1.504,1.38 2.226,2.09 0.338,0.33 0.568,0.571 0.689,0.716 0.13,0.159 0.217,0.296 0.262,0.418 0.043,0.121 0.062,0.238 0.062,0.349 0,0.321 -0.129,0.607 -0.389,0.86 -0.25,0.251 -0.563,0.376 -0.936,0.376 -0.331,0 -0.621,-0.094 -0.872,-0.286 C 19.061,1.632 18.893,1.397 18.818,1.12 18.8,1.051 18.778,1.008 18.752,0.99 18.717,0.955 18.679,0.937 18.635,0.937 c -0.052,0 -0.095,0.018 -0.13,0.053 -0.033,0.035 -0.051,0.078 -0.051,0.13 0,0.137 0.078,0.327 0.233,0.573 0.155,0.242 0.374,0.432 0.649,0.572 0.278,0.145 0.56,0.219 0.847,0.219 0.468,0 0.87,-0.164 1.21,-0.492 0.339,-0.322 0.504,-0.691 0.504,-1.106 0,-0.174 -0.029,-0.333 -0.09,-0.483 C 21.756,0.267 21.66,0.11 21.521,-0.064 21.382,-0.229 21.139,-0.484 20.793,-0.832 19.91,-1.707 19.188,-2.385 18.635,-2.86 Z M 27.471,0 v -0.921 c 0,-0.808 -0.195,-1.45 -0.585,-1.925 -0.296,-0.366 -0.673,-0.548 -1.131,-0.548 -0.224,0 -0.44,0.043 -0.637,0.13 -0.191,0.088 -0.357,0.21 -0.495,0.365 -0.079,0.104 -0.17,0.264 -0.273,0.482 -0.103,0.215 -0.178,0.415 -0.221,0.598 -0.069,0.252 -0.103,0.55 -0.103,0.898 V 0 c 0,0.817 0.189,1.458 0.571,1.927 0.304,0.373 0.683,0.557 1.144,0.557 0.224,0 0.434,-0.047 0.625,-0.144 C 26.557,2.254 26.721,2.132 26.861,1.978 26.948,1.883 27.04,1.724 27.146,1.495 27.25,1.282 27.325,1.087 27.366,0.911 27.437,0.651 27.471,0.348 27.471,0 m -0.378,-0.037 c 0,0.347 -0.053,0.67 -0.156,0.974 -0.094,0.312 -0.208,0.558 -0.336,0.741 -0.073,0.104 -0.166,0.191 -0.287,0.26 -0.172,0.114 -0.364,0.169 -0.573,0.169 -0.416,0 -0.747,-0.216 -0.989,-0.649 -0.233,-0.425 -0.351,-0.922 -0.351,-1.495 v -0.834 c 0,-0.354 0.047,-0.688 0.143,-1 0.107,-0.302 0.217,-0.546 0.34,-0.73 0.078,-0.093 0.171,-0.18 0.285,-0.259 0.174,-0.106 0.37,-0.156 0.586,-0.156 0.414,0 0.739,0.213 0.974,0.637 0.244,0.433 0.364,0.935 0.364,1.508 z m 8.219,2.377 v -2.482 c 0.457,0.591 1.012,0.884 1.651,0.884 0.547,0 1.015,-0.198 1.407,-0.597 0.388,-0.4 0.584,-0.885 0.584,-1.457 0,-0.589 -0.201,-1.087 -0.599,-1.496 -0.39,-0.401 -0.853,-0.596 -1.392,-0.596 -0.657,0 -1.208,0.291 -1.651,0.882 V -3.264 H 34.44 c -0.095,0 -0.164,0.017 -0.208,0.052 -0.033,0.036 -0.05,0.08 -0.05,0.132 0,0.059 0.017,0.107 0.05,0.142 0.044,0.034 0.113,0.051 0.208,0.051 h 0.508 V 1.966 H 34.44 c -0.095,0 -0.164,0.016 -0.208,0.052 -0.033,0.034 -0.05,0.082 -0.05,0.142 0,0.051 0.017,0.094 0.05,0.131 0.044,0.035 0.113,0.049 0.208,0.049 z m 3.265,-3.679 c 0,0.477 -0.164,0.881 -0.495,1.212 -0.32,0.329 -0.699,0.492 -1.131,0.492 -0.432,0 -0.815,-0.163 -1.146,-0.492 -0.321,-0.331 -0.48,-0.735 -0.48,-1.212 0,-0.467 0.159,-0.866 0.48,-1.196 0.331,-0.33 0.714,-0.494 1.146,-0.494 0.432,0 0.811,0.164 1.131,0.494 0.331,0.33 0.495,0.729 0.495,1.196 m 3.672,-1.925 -1.743,3.488 h -0.114 c -0.089,0 -0.155,0.016 -0.198,0.049 -0.033,0.044 -0.052,0.092 -0.052,0.144 0,0.036 0.009,0.07 0.027,0.105 0.025,0.036 0.052,0.055 0.078,0.064 0.035,0.017 0.084,0.026 0.145,0.026 h 1.038 c 0.087,0 0.148,-0.022 0.182,-0.065 0.043,-0.035 0.065,-0.078 0.065,-0.13 0,-0.052 -0.022,-0.1 -0.065,-0.144 C 41.578,0.24 41.517,0.224 41.43,0.224 h -0.506 l 1.534,-3.07 1.508,3.07 h -0.508 c -0.086,0 -0.15,0.016 -0.193,0.049 -0.036,0.044 -0.054,0.092 -0.054,0.144 0,0.052 0.018,0.095 0.054,0.13 0.043,0.043 0.107,0.065 0.193,0.065 h 1.028 c 0.085,0 0.147,-0.022 0.182,-0.065 0.044,-0.035 0.065,-0.078 0.065,-0.13 0,-0.043 -0.012,-0.083 -0.038,-0.118 C 44.677,0.273 44.65,0.255 44.617,0.236 44.588,0.227 44.509,0.224 44.369,0.224 l -2.38,-4.84 h 0.584 c 0.097,0 0.163,-0.017 0.198,-0.052 0.032,-0.035 0.05,-0.077 0.05,-0.128 0,-0.054 -0.018,-0.097 -0.05,-0.132 -0.035,-0.043 -0.101,-0.066 -0.198,-0.066 h -2.156 c -0.086,0 -0.152,0.018 -0.196,0.053 -0.036,0.036 -0.052,0.083 -0.052,0.145 0,0.051 0.016,0.093 0.052,0.128 0.044,0.035 0.11,0.052 0.196,0.052 h 1.171 z m 4.701,3.876 h 2.043 c 0.087,0 0.147,-0.022 0.183,-0.065 0.042,-0.035 0.062,-0.078 0.062,-0.13 0,-0.052 -0.02,-0.1 -0.062,-0.144 C 49.14,0.24 49.08,0.224 48.993,0.224 H 46.95 v -2.498 c 0,-0.218 0.088,-0.401 0.26,-0.548 0.175,-0.139 0.43,-0.207 0.769,-0.207 0.25,0 0.523,0.036 0.817,0.104 0.295,0.079 0.526,0.166 0.691,0.26 0.06,0.043 0.113,0.064 0.156,0.064 0.044,0 0.083,-0.021 0.117,-0.064 0.034,-0.034 0.05,-0.077 0.05,-0.13 0,-0.044 -0.016,-0.087 -0.05,-0.13 -0.096,-0.096 -0.329,-0.199 -0.703,-0.314 -0.365,-0.112 -0.717,-0.165 -1.052,-0.165 -0.435,0 -0.783,0.096 -1.043,0.297 -0.258,0.208 -0.39,0.485 -0.39,0.833 V 0.224 H 45.87 c -0.086,0 -0.153,0.016 -0.196,0.049 -0.031,0.044 -0.05,0.092 -0.05,0.144 0,0.052 0.019,0.095 0.05,0.13 0.043,0.043 0.11,0.065 0.196,0.065 h 0.702 v 1.106 c 0,0.086 0.018,0.147 0.054,0.183 0.034,0.043 0.078,0.065 0.13,0.065 0.06,0 0.107,-0.022 0.142,-0.065 0.034,-0.036 0.052,-0.097 0.052,-0.183 z m 8.29,-2.029 h -3.823 c 0.071,-0.484 0.273,-0.875 0.612,-1.17 0.347,-0.295 0.771,-0.442 1.274,-0.442 0.277,0 0.567,0.045 0.87,0.13 0.312,0.096 0.565,0.218 0.756,0.364 0.062,0.053 0.11,0.079 0.142,0.079 0.053,0 0.096,-0.022 0.129,-0.066 0.036,-0.034 0.053,-0.079 0.053,-0.13 0,-0.05 -0.02,-0.098 -0.065,-0.143 -0.146,-0.147 -0.403,-0.285 -0.766,-0.417 -0.365,-0.13 -0.737,-0.192 -1.119,-0.192 -0.649,0 -1.194,0.205 -1.625,0.623 -0.426,0.422 -0.638,0.936 -0.638,1.534 0,0.545 0.199,1.013 0.598,1.405 0.408,0.389 0.91,0.584 1.509,0.584 0.615,0 1.118,-0.198 1.51,-0.597 0.395,-0.4 0.591,-0.92 0.583,-1.562 m -0.377,0.379 c -0.07,0.415 -0.264,0.752 -0.586,1.012 -0.319,0.262 -0.697,0.391 -1.13,0.391 -0.443,0 -0.819,-0.129 -1.13,-0.391 -0.314,-0.251 -0.51,-0.591 -0.586,-1.012 z m 8.531,-0.079 v -1.77 h 1.286 c 0.086,0 0.148,-0.017 0.182,-0.051 0.044,-0.035 0.067,-0.083 0.067,-0.142 0,-0.052 -0.023,-0.096 -0.067,-0.132 -0.034,-0.035 -0.096,-0.052 -0.182,-0.052 h -2.171 c -0.094,0 -0.161,0.017 -0.196,0.052 -0.032,0.036 -0.049,0.08 -0.049,0.132 0,0.059 0.017,0.107 0.049,0.142 0.035,0.034 0.102,0.051 0.196,0.051 h 0.509 v 4.474 h -0.509 c -0.094,0 -0.161,0.018 -0.196,0.053 -0.032,0.035 -0.049,0.084 -0.049,0.142 0,0.052 0.017,0.095 0.049,0.131 0.035,0.036 0.102,0.053 0.196,0.053 h 2.184 c 0.514,0 0.929,-0.154 1.25,-0.457 0.329,-0.304 0.493,-0.657 0.493,-1.066 0,-0.241 -0.05,-0.464 -0.155,-0.662 -0.105,-0.192 -0.229,-0.34 -0.379,-0.442 -0.225,-0.175 -0.458,-0.295 -0.7,-0.365 -0.175,-0.061 -0.388,-0.091 -0.637,-0.091 z m 0,0.377 h 1.196 c 0.278,0 0.539,0.062 0.781,0.181 0.242,0.122 0.415,0.273 0.519,0.457 0.113,0.182 0.169,0.365 0.169,0.545 0,0.294 -0.126,0.559 -0.377,0.793 -0.25,0.235 -0.572,0.351 -0.964,0.351 h -1.324 z m 5.091,-0.481 v -1.666 h 0.688 c 0.096,0 0.16,-0.017 0.194,-0.051 0.036,-0.035 0.054,-0.083 0.054,-0.142 0,-0.052 -0.018,-0.096 -0.054,-0.132 -0.034,-0.035 -0.098,-0.052 -0.194,-0.052 H 67.6 c -0.085,0 -0.151,0.017 -0.195,0.052 -0.035,0.036 -0.053,0.08 -0.053,0.132 0,0.059 0.018,0.107 0.053,0.142 0.044,0.034 0.11,0.051 0.195,0.051 h 0.509 V 1.587 H 67.6 c -0.085,0 -0.151,0.018 -0.195,0.053 -0.035,0.035 -0.053,0.084 -0.053,0.142 0,0.052 0.018,0.095 0.053,0.131 0.044,0.036 0.11,0.053 0.195,0.053 h 1.573 c 0.096,0 0.16,-0.017 0.194,-0.053 0.036,-0.036 0.054,-0.079 0.054,-0.131 0,-0.058 -0.018,-0.107 -0.054,-0.142 C 69.333,1.605 69.269,1.587 69.173,1.587 h -0.688 v -2.301 l 2.588,2.301 h -0.418 c -0.086,0 -0.152,0.018 -0.194,0.053 -0.033,0.035 -0.051,0.084 -0.051,0.142 0,0.052 0.018,0.095 0.051,0.131 0.042,0.036 0.108,0.053 0.194,0.053 h 1.105 c 0.096,0 0.163,-0.017 0.198,-0.053 0.032,-0.036 0.05,-0.079 0.05,-0.131 0,-0.058 -0.018,-0.107 -0.05,-0.142 C 71.923,1.605 71.856,1.587 71.76,1.587 H 71.619 L 69.55,-0.26 c 0.304,-0.119 0.556,-0.278 0.756,-0.467 0.206,-0.184 0.407,-0.448 0.596,-0.793 0.105,-0.202 0.299,-0.653 0.587,-1.367 h 0.469 c 0.093,0 0.16,-0.017 0.195,-0.051 0.043,-0.035 0.065,-0.083 0.065,-0.142 0,-0.052 -0.022,-0.096 -0.065,-0.132 -0.035,-0.035 -0.102,-0.052 -0.195,-0.052 h -0.729 c -0.392,1.076 -0.721,1.765 -0.989,2.068 -0.268,0.312 -0.602,0.535 -1,0.663 z m 7.977,0.494 h -2.483 v -2.16 h 0.494 c 0.095,0 0.158,-0.017 0.194,-0.051 0.044,-0.035 0.066,-0.083 0.066,-0.142 0,-0.052 -0.022,-0.096 -0.066,-0.132 -0.036,-0.035 -0.099,-0.052 -0.194,-0.052 h -1.301 c -0.085,0 -0.151,0.017 -0.195,0.052 -0.034,0.036 -0.053,0.08 -0.053,0.132 0,0.059 0.019,0.107 0.053,0.142 0.044,0.034 0.11,0.051 0.195,0.051 h 0.431 v 4.474 h -0.235 c -0.097,0 -0.166,0.018 -0.209,0.053 -0.035,0.035 -0.054,0.084 -0.054,0.142 0,0.052 0.019,0.095 0.054,0.131 0.043,0.036 0.112,0.053 0.209,0.053 h 1.105 c 0.095,0 0.158,-0.017 0.194,-0.053 0.044,-0.036 0.066,-0.079 0.066,-0.131 0,-0.058 -0.022,-0.107 -0.066,-0.142 C 74.631,1.605 74.568,1.587 74.473,1.587 h -0.494 v -1.95 h 2.483 v 1.95 H 75.97 c -0.097,0 -0.168,0.018 -0.211,0.053 -0.032,0.035 -0.05,0.084 -0.05,0.142 0,0.052 0.018,0.095 0.05,0.131 0.043,0.036 0.114,0.053 0.211,0.053 h 1.105 c 0.095,0 0.157,-0.017 0.194,-0.053 0.044,-0.036 0.064,-0.079 0.064,-0.131 0,-0.058 -0.02,-0.107 -0.064,-0.142 C 77.232,1.605 77.17,1.587 77.075,1.587 H 76.84 v -4.474 h 0.429 c 0.086,0 0.148,-0.017 0.183,-0.051 0.044,-0.035 0.062,-0.083 0.062,-0.142 0,-0.052 -0.018,-0.096 -0.062,-0.132 -0.035,-0.035 -0.097,-0.052 -0.183,-0.052 H 75.97 c -0.097,0 -0.168,0.017 -0.211,0.052 -0.032,0.036 -0.05,0.08 -0.05,0.132 0,0.059 0.018,0.107 0.05,0.142 0.043,0.034 0.114,0.051 0.211,0.051 h 0.492 z m 6.536,0.066 -4.06,-2.264 c -0.066,-0.036 -0.12,-0.051 -0.155,-0.051 -0.051,0 -0.096,0.015 -0.13,0.051 -0.033,0.043 -0.052,0.091 -0.052,0.144 0,0.069 0.052,0.134 0.157,0.194 l 3.471,1.926 -3.471,1.937 c -0.105,0.054 -0.157,0.117 -0.157,0.195 0,0.052 0.019,0.095 0.052,0.132 0.043,0.032 0.091,0.05 0.142,0.05 0.029,0 0.077,-0.018 0.143,-0.05 z"
             style="fill:#231f20;fill-opacity:1;fill-rule:nonzero;stroke:none"
             id="path264" /></g><path
           d="m 328.001,630.25 h -49.334 v 20.669 h 49.334 z"
           style="fill:#feefe9;fill-opacity:1;fill-rule:evenodd;stroke:none"
           id="path266" /><g
           id="g268"
           transform="translate(290.083,636.999)"><path
             d="M 0,0 C 0.846,-0.152 1.141,-0.882 1.646,-1.392 1.785,-0.454 2.154,0.239 2.533,0.928 2.523,1.007 2.514,1.084 2.406,1.062 1.742,0.56 0.707,0.453 0,0 M 3.482,2.054 C 3.717,2.094 3.854,2.237 4.053,2.317 4.01,2.513 4.035,2.784 3.863,2.849 3.76,2.558 3.592,2.333 3.482,2.054 M 0.379,2.119 C 0.717,2.868 1.09,3.583 1.457,4.303 0.904,4.455 0.244,4.495 -0.381,4.566 0.004,3.889 0.254,3.071 0.379,2.119 M -3.23,4.503 C -3.482,4.047 -3.58,3.451 -3.736,2.849 -3.879,2.312 -3.914,1.56 -4.373,1.325 c -0.16,0.904 0.41,2.11 0.637,3.044 -1.725,-0.348 -3.159,-1.651 -3.106,-3.575 0.039,-1.423 1.106,-1.932 2.596,-1.92 3.164,0.028 5.475,2.859 3.357,5.692 -0.625,0.126 -1.525,-0.02 -2.341,-0.063 m 0.125,0.396 c 0.56,0.122 1.3,0.053 1.837,0.2 C -1.725,5.546 -2.102,6.08 -2.471,6.62 -2.633,5.993 -2.912,5.492 -3.105,4.899 M 4.307,4.503 C 4.691,5.49 5.441,6.449 5.701,7.349 5.115,6.57 4.354,5.622 4.307,4.503 m 7.156,5.56 C 9.727,9.917 7.629,9.36 6.713,8.276 6.168,7.63 5.904,6.671 5.445,5.827 4.971,4.948 3.813,3.565 4.434,2.581 c 2.586,1.586 5.193,3.234 7.472,5.098 0.733,0.597 1.625,1.29 1.967,2.252 -0.752,0.294 -1.609,0.199 -2.41,0.132 M 4.812,2.317 C 6.312,1.635 7.547,2.884 8.803,3.11 9.111,2.766 8.756,2.056 8.932,1.654 9.842,0.996 11.611,1.235 12.287,0.331 11.887,0.015 11.346,0.53 10.639,0.728 9.422,1.069 8.092,0.86 8.549,2.648 7.461,2.137 5.635,1.183 4.369,2.054 3.943,1.836 3.584,1.55 3.102,1.392 2.6,0.327 2.182,-0.823 1.771,-1.987 c -0.878,0.316 -0.906,1.524 -1.96,1.656 -0.174,-0.262 -0.237,-0.639 -0.317,-0.993 0.244,-0.068 0.51,0.73 0.885,0.53 0.033,-0.508 -0.539,-0.932 -1.014,-1.126 -0.523,0.333 -0.119,1.083 0,1.656 -0.801,-0.639 -2.422,-1.35 -3.992,-1.258 -0.602,0.034 -1.373,0.183 -1.836,0.531 -1.146,0.859 -0.842,3.113 -0.062,4.168 0.72,0.98 1.754,1.33 2.914,1.656 0.351,0.579 0.541,1.332 0.822,1.985 0.359,0.027 0.453,0.095 0.57,0.464 1.873,0.733 4.041,1.16 5.574,2.252 C 1.41,9.175 -0.723,8.524 -2.727,7.944 -3.361,7.761 -4,7.429 -4.627,7.548 c 0.074,0.393 0.598,0.441 0.891,0.527 1.002,0.302 2.125,0.612 3.23,0.928 1.432,0.412 2.971,1.001 4.434,0.861 C 3.963,9.173 3.238,8.975 2.785,8.738 1.408,8.021 -0.482,7.507 -2.027,6.885 -1.771,6.026 -1.139,5.565 -0.635,4.966 0.197,4.972 0.881,4.83 1.582,4.701 2.336,5.613 2.959,6.839 3.672,7.878 3.865,8.159 4.127,8.634 4.496,8.605 4.377,7.835 3.73,7.279 3.293,6.62 2.855,5.964 2.488,5.239 2.09,4.566 2.559,4.241 3.32,4.22 3.482,3.574 2.91,3.446 2.523,4.069 1.961,4.17 1.148,3.19 0.713,1.812 0.125,0.597 1.178,0.798 1.953,1.292 2.85,1.654 3.207,2.481 3.705,3.013 3.799,4.17 3.967,6.247 5.236,7.466 6.461,8.539 6.523,8.871 6.721,9.063 6.84,9.333 7.086,9.392 7.066,9.173 7.219,9.136 8.51,10.067 10.895,10.7 13.047,10.527 13.436,10.494 14.324,10.386 14.314,9.864 14.299,9.026 12.961,8.06 12.352,7.548 10.104,5.663 7.057,3.733 4.812,2.317"
             style="fill:#2c81ab;fill-opacity:1;fill-rule:evenodd;stroke:none"
             id="path270" /></g><g
           id="g272"
           transform="translate(322.1201,635.7754)"><path
             d="m 0,0 -6.42,6.613 c 0.688,1.51 0.42,3.36 -0.818,4.633 -1.608,1.658 -4.242,1.711 -5.883,0.119 -0.033,-0.033 -0.065,-0.07 -0.096,-0.105 -0.037,-0.033 -0.074,-0.063 -0.109,-0.096 -1.641,-1.59 -1.664,-4.227 -0.057,-5.883 1.149,-1.179 2.813,-1.543 4.27,-1.08 L -8.576,3.65 c 0.32,0.237 0.822,0.166 1.162,-0.185 0.34,-0.352 0.394,-0.852 0.15,-1.166 l 0.588,-0.608 c 0.322,0.237 0.821,0.166 1.162,-0.185 0.342,-0.352 0.397,-0.852 0.151,-1.166 l 0.59,-0.608 c 0.32,0.237 0.82,0.166 1.162,-0.185 0.341,-0.352 0.396,-0.852 0.148,-1.166 l 0.41,-0.422 3.297,0.174 0.209,0.201 z"
             style="fill:none;stroke:#231f20;stroke-width:0.75;stroke-linecap:butt;stroke-linejoin:round;stroke-miterlimit:4;stroke-dasharray:none;stroke-opacity:1"
             id="path274" /></g><g
           id="g276"
           transform="translate(322.5732,634.1094)"><path
             d="m 0,0 -7.078,8.078 c 0.687,1.51 0.42,3.361 -0.818,4.635 -1.61,1.656 -4.243,1.711 -5.883,0.117 -1.641,-1.59 -1.664,-4.226 -0.057,-5.883 1.148,-1.179 2.813,-1.543 4.27,-1.08 l 0.537,-0.551 c 0.32,0.237 0.822,0.166 1.162,-0.185 0.34,-0.352 0.394,-0.852 0.15,-1.166 l 0.588,-0.608 c 0.322,0.237 0.82,0.166 1.162,-0.185 C -5.625,2.82 -5.57,2.32 -5.816,2.006 l 0.589,-0.608 c 0.321,0.237 0.821,0.166 1.163,-0.185 0.341,-0.352 0.396,-0.852 0.148,-1.166 l 0.41,-0.422 3.297,0.174 z"
             style="fill:#278a2f;fill-opacity:1;fill-rule:nonzero;stroke:none"
             id="path278" /></g><g
           id="g280"
           transform="translate(322.5732,634.1094)"><path
             d="m 0,0 -7.078,8.078 c 0.687,1.51 0.42,3.361 -0.818,4.635 -1.61,1.656 -4.243,1.711 -5.883,0.117 -1.641,-1.59 -1.664,-4.226 -0.057,-5.883 1.148,-1.179 2.813,-1.543 4.27,-1.08 l 0.537,-0.551 c 0.32,0.237 0.822,0.166 1.162,-0.185 0.34,-0.352 0.394,-0.852 0.15,-1.166 l 0.588,-0.608 c 0.322,0.237 0.82,0.166 1.162,-0.185 C -5.625,2.82 -5.57,2.32 -5.816,2.006 l 0.589,-0.608 c 0.321,0.237 0.821,0.166 1.163,-0.185 0.341,-0.352 0.396,-0.852 0.148,-1.166 l 0.41,-0.422 3.297,0.174 z"
             style="fill:none;stroke:#278a2f;stroke-width:0.3;stroke-linecap:butt;stroke-linejoin:round;stroke-miterlimit:4;stroke-dasharray:none;stroke-opacity:1"
             id="path282" /></g></g></g><g
       id="g284"><g
         id="g286"><g
           id="g292"><g
             id="g294"><path
               d="m 308.999,647.141 c -1.639,-1.593 -1.664,-4.229 -0.055,-5.886 v 0 c 1.146,-1.179 2.812,-1.542 4.27,-1.077 v 0 l 0.535,-0.553 c 0.322,0.236 0.823,0.166 1.162,-0.186 v 0 c 0.34,-0.349 0.397,-0.851 0.15,-1.165 v 0 l 0.591,-0.608 c 0.32,0.236 0.818,0.166 1.162,-0.185 v 0 c 0.34,-0.35 0.394,-0.853 0.148,-1.167 v 0 l 0.591,-0.607 c 0.319,0.237 0.821,0.166 1.163,-0.184 v 0 c 0.338,-0.351 0.392,-0.851 0.149,-1.165 v 0 l 0.409,-0.424 3.299,0.175 -0.453,1.666 -6.42,6.613 c 0.688,1.511 0.42,3.36 -0.818,4.634 v 0 c -0.825,0.85 -1.921,1.279 -3.014,1.279 v 0 c -1.036,0 -2.07,-0.385 -2.869,-1.16"
               style="fill:url(#linearGradient300);stroke:none"
               id="path302" /></g></g></g></g><g
       id="g304"><g
         id="g306"><g
           id="g312"><g
             id="g314"><path
               d="m 309.231,646.9 c -1.504,-1.462 -1.525,-3.889 -0.049,-5.41 v 0 c 1.03,-1.056 2.534,-1.437 3.928,-0.994 v 0 l 0.2,0.065 0.507,-0.526 c 0.434,0.152 0.963,0.02 1.334,-0.361 v 0 c 0.374,-0.383 0.489,-0.916 0.322,-1.344 v 0 l 0.245,-0.252 c 0.435,0.151 0.965,0.017 1.334,-0.363 v 0 c 0.371,-0.383 0.488,-0.918 0.324,-1.344 v 0 l 0.244,-0.252 c 0.434,0.152 0.963,0.02 1.334,-0.364 v 0 c 0.373,-0.38 0.488,-0.915 0.325,-1.343 v 0 l 0.13,-0.137 2.732,0.147 -0.322,1.181 -6.518,6.713 0.094,0.209 c 0.657,1.442 0.36,3.118 -0.751,4.262 v 0 c -0.76,0.783 -1.77,1.177 -2.777,1.177 v 0 c -0.953,-0.001 -1.903,-0.354 -2.636,-1.064"
               style="fill:url(#linearGradient320);stroke:none"
               id="path322" /></g></g></g></g><g
       id="g324"><g
         id="g326"
         clip-path="url(#clipPath330)"><g
           id="g332"
           transform="translate(314.2158,641.7676)"><path
             d="m 0,0 c -1.311,-1.271 -3.402,-1.24 -4.674,0.068 -1.271,1.311 -1.24,3.403 0.07,4.674 1.307,1.274 3.401,1.24 4.672,-0.068 C 1.34,3.363 1.309,1.271 0,0"
             style="fill:#ffffff;fill-opacity:1;fill-rule:nonzero;stroke:none"
             id="path334" /></g></g></g><text
       transform="matrix(0.69656686,-0.71749189,-0.71749189,-0.69656686,308.6942,645.5668)"
       style="font-variant:normal;font-weight:normal;font-stretch:normal;font-size:3.67502px;font-family:Arial;-inkscape-font-specification:ArialMT;writing-mode:lr-tb;fill:#231f20;fill-opacity:1;fill-rule:nonzero;stroke:none"
       id="text338"><tspan
         x="0 2.451241 4.4945545"
         y="0"
         sodipodi:role="line"
         id="tspan336">Pub</tspan></text><g
       id="g340"><g
         id="g342"
         clip-path="url(#clipPath346)"><path
           d="m 328.001,630.25 h -49.334 v 20.669 h 49.334 z"
           style="fill:none;stroke:#231f20;stroke-width:0.5;stroke-linecap:butt;stroke-linejoin:round;stroke-miterlimit:4;stroke-dasharray:none;stroke-opacity:1"
           id="path348" /><g
           id="g350"
           transform="translate(327.2832,646.4053)"><path
             d="m 0,0 c 0,-1.661 -1.348,-3.009 -3.012,-3.009 -1.66,0 -3.008,1.348 -3.008,3.009 0,1.662 1.348,3.01 3.008,3.01 C -1.348,3.01 0,1.662 0,0"
             style="fill:#d7b9ad;fill-opacity:1;fill-rule:nonzero;stroke:none"
             id="path352" /></g><g
           id="g354"
           transform="translate(323.6045,645.5596)"><path
             d="m 0,0 c -0.086,-0.296 -0.382,-0.466 -0.657,-0.388 -0.291,0.084 -0.45,0.385 -0.367,0.681 0.086,0.295 0.38,0.469 0.671,0.385 C -0.079,0.599 0.083,0.295 0,0"
             style="fill:#231f20;fill-opacity:1;fill-rule:nonzero;stroke:none"
             id="path356" /></g></g></g><g
       id="g358"><g
         id="g360"><g
           id="g366"><g
             id="g368"><path
               d="m 322.654,645.635 c -0.056,-0.198 0.073,-0.403 0.293,-0.466 v 0 c 0.208,-0.062 0.428,0.045 0.484,0.242 v 0 l 0.543,1.893 -0.778,0.223 z"
               style="fill:url(#linearGradient382);stroke:none"
               id="path384" /></g></g></g></g><g
       id="g386"><g
         id="g388"><g
           id="g394"><g
             id="g396"><path
               d="m 320.829,651.745 c -0.006,-0.019 -0.011,-0.037 -0.017,-0.057 v 0 l -0.259,-0.945 c -0.297,-1.455 0.985,-3.039 2.957,-3.604 v 0 c 1.962,-0.563 3.887,0.105 4.403,1.496 v 0 l 0.297,0.997 c 0.454,1.584 -0.829,3.343 -2.86,3.925 v 0 c -0.45,0.129 -0.899,0.19 -1.33,0.19 v 0 c -1.529,0 -2.837,-0.767 -3.191,-2.002"
               style="fill:url(#radialGradient404);stroke:none"
               id="path406" /></g></g></g></g><g
       id="g408"><g
         id="g410"
         clip-path="url(#clipPath414)"><g
           id="g416"><g
             id="g418" /><g
             id="g450"><g
               clip-path="url(#clipPath422)"
               id="g448"><g
                 id="g446"><g
                   id="g444"><g
                     id="g442"><g
                       id="g440"><path
                         d="m 327.913,648.636 0.297,0.996 c 0.397,1.385 -0.536,2.907 -2.138,3.656 l -2.237,-3.382 c 0.844,-0.471 1.945,-1.307 2.072,-2.838 0.954,0.23 1.712,0.776 2.006,1.568"
                         style="fill:url(#linearGradient436);stroke:none"
                         id="path438" /></g></g></g></g></g></g></g><g
           id="g452"
           transform="translate(323.043,649.0557)"><path
             d="m 0,0 c -0.172,-0.232 -0.602,-0.204 -0.955,0.061 -0.353,0.264 -0.499,0.668 -0.324,0.9 0.172,0.231 0.6,0.204 0.953,-0.061 C 0.029,0.637 0.175,0.233 0,0"
             style="fill:#ffffff;fill-opacity:1;fill-rule:nonzero;stroke:none"
             id="path454" /></g></g></g><g
       id="g456"><g
         id="g458"><g
           id="g464"><g
             id="g466"><path
               d="m 325.937,655.629 -2.04,-0.194 -1.476,-3.405 c -0.253,-0.886 0.57,-1.898 1.842,-2.263 v 0 c 1.268,-0.363 2.503,0.059 2.757,0.946 v 0 l 0.548,3.67 -1.627,1.244 v 0.002 h -0.002 l -0.002,0.002 z"
               style="fill:url(#linearGradient482);stroke:none"
               id="path484" /></g></g></g></g><g
       id="g486"><g
         id="g488"
         clip-path="url(#clipPath492)"><g
           id="g494"><g
             id="g496" /><g
             id="g524"><g
               clip-path="url(#clipPath500)"
               id="g522"><g
                 id="g520"><g
                   id="g518"><g
                     id="g516"><g
                       id="g514"><path
                         d="m 325.941,655.627 v 0.002 h -0.003 l -10e-4,0.002 v -0.002 l -2.04,-0.194 -0.348,-0.803 c 0.101,-1.356 2.156,-4.177 3.545,-3.42 l 0.474,3.171 z"
                         style="fill:url(#linearGradient510);stroke:none"
                         id="path512" /></g></g></g></g></g></g></g></g></g><g
       id="g526"><g
         id="g528"><g
           id="g534"><g
             id="g536"><path
               d="m 323.262,657.002 c -0.314,-1.096 0.702,-2.348 2.272,-2.796 v 0 c 1.568,-0.451 3.094,0.074 3.407,1.169 v 0 l 0.182,0.634 -5.681,1.625 z"
               style="fill:url(#linearGradient554);stroke:none"
               id="path556" /></g></g></g></g><g
       id="g558"><g
         id="g560"><g
           id="g566"><g
             id="g568"><path
               d="m 323.442,657.634 c -0.313,-1.095 0.704,-2.348 2.272,-2.797 v 0 c 1.57,-0.448 3.095,0.076 3.409,1.172 v 0 c 0.314,1.094 -0.703,2.346 -2.272,2.795 v 0 c -0.381,0.109 -0.76,0.161 -1.12,0.161 v 0 c -1.119,0 -2.051,-0.502 -2.289,-1.331"
               style="fill:url(#linearGradient574);stroke:none"
               id="path576" /></g></g></g></g></g></svg>
