<?xml version="1.0" encoding="UTF-8" standalone="no"?>
<!DOCTYPE svg PUBLIC "-//W3C//DTD SVG 1.1//EN" "http://www.w3.org/Graphics/SVG/1.1/DTD/svg11.dtd">
<svg xmlns="http://www.w3.org/2000/svg" xmlns:dc="http://purl.org/dc/elements/1.1/" xmlns:xl="http://www.w3.org/1999/xlink" version="1.1" viewBox="-420.5 107.5 813.59375 1121" width="813.59375" height="1121">
  <defs/>
  <metadata> Produced by OmniGraffle 7.12.1 
    <dc:date>2020-02-03 09:23:20 +0000</dc:date>
  </metadata>
  <g id="Canvas_1" fill-opacity="1" stroke-opacity="1" stroke-dasharray="none" fill="none" stroke="none">
    <title>Canvas 1</title>
    <g id="Canvas_1: Layer 1">
      <title>Layer 1</title>
      <g id="Graphic_20">
        <path d="M -111.5 936.5 L -111.5 701.5 L -18.5 701.5 L -18.5 936.5 Z M 78.5 703.269 L 78.5 703.269 C 84.71024 704.4062 108.97306 709.0811 128 716 C 150 724 170 742 183.5 766 C 197 790 196.5 816.5 195 838 C 193.5 859.5 178.5 884.5 169 894 C 159.5 903.5 139 920 123 925 C 109.46037 929.2311 85.53729 933.4623 78.5 934.6635 Z M 78.5 274.50203 L 78.5 274.5 L 78.5 274.50203 Z M 78.5 274.5 L 78.5 107.5 L -18.5 107.5 L -18.5 274.5 L -111.5 274.5 L -111.5 107.5 L -208.5 107.5 L -208.5 274.5 L -420.5 274.5 L -420.5 389 L -285.5 389 L -285.5 936.5 L -391.5 936.5 L -391.5 940 L -420.5 1060 L -391.5 1060 L -208.5 1060 L -208.5 1228.5 L -111.5 1228.5 L -111.5 1060 L -18.5 1060 L -18.5 1228.5 L 78.5 1228.5 L 78.5 1060 L 79.5 1060 L 107.5 1060 L 107.5 1059.2014 C 127.45226 1058.2096 153.77264 1055.9858 171.5 1051 C 203.5 1042 243.5 1030 264.5 1019 C 285.5 1008 309.5 988 324.5 974 C 339.5 960 342.5 951 357.5 930 C 372.5 909 386 871.5 392 834.5 C 398 797.5 378 737.5 364 714.5 C 350 691.5 316.5 663 316.5 663 C 316.5 663 290.5 640 253.5 626 C 252.09834 625.46964 250.6766 624.9307 249.23828 624.3845 C 249.50864 624.2525 249.76268 624.1243 250 624 C 271 613 278.5 608 294 591.5 C 309.5 575 325 552 333.5 519 C 342 486 331.5 435 320.5 412 C 309.5 389 286.5 359 286.5 359 C 286.5 359 244 316.5 210 300.5 C 176 284.5 168 283.5 137.5 279 C 109.34077 274.84536 82.46013 274.5265 78.5 274.50203 M -41.830985 389 C -3.1859337 386.9438 63.075975 394.45057 81.12095 404.42165 C 85.5545 406.22856 92.96946 409.4771 97 412.5 C 103 417 118 432 125 444 C 132 456 140 481 138.5 502.5 C 137 524 131.5 543.5 116 562 C 104.60362 575.60214 88.61219 582.98745 80.94354 585.94456 C 80.63218 586.1415 80.31766 586.3267 80 586.5 C 65.50625 594.4058 20.72688 599.418 -18.5 600.3505 L -18.5 600.5 L -28.510966 600.5 C -30.494438 600.51145 -32.454356 600.5115 -34.385623 600.5 L -111.5 600.5 L -111.5 389 Z" fill="black"/>
      </g>
    </g>
  </g>
</svg>
