<svg id="Ebene_1" data-name="Ebene 1" xmlns="http://www.w3.org/2000/svg" xmlns:xlink="http://www.w3.org/1999/xlink" width="62.35mm" height="101.41mm" viewBox="0 0 176.74 287.46">
  <defs>
    <style>
      .cls-1, .cls-3, .cls-5 {
        fill: none;
      }

      .cls-2, .cls-7 {
        fill: #231f20;
      }

      .cls-3, .cls-5 {
        stroke: #231f20;
        stroke-width: 1.35px;
      }

      .cls-4 {
        fill: #cce4f2;
      }

      .cls-5 {
        stroke-linejoin: round;
      }

      .cls-6 {
        fill: #a87ac4;
      }

      .cls-7 {
        font-size: 18.93px;
        font-family: f-1-0, "f 1-0";
      }

      .cls-8 {
        clip-path: url(#clip-path);
      }
    </style>
    <clipPath id="clip-path" transform="translate(-207 -277.77)">
      <rect class="cls-1" x="208.61" y="276.89" width="178.8" height="284.88"/>
    </clipPath>
  </defs>
  <g>
    <path class="cls-2" d="M326.43,463.85c1.64-2.13,2.9-3.45,4.4-5.09L323.48,456a62.77,62.77,0,0,1,0,6.71,46.8,46.8,0,0,1-.92,7,47.81,47.81,0,0,1,3.91-5.85" transform="translate(-207 -277.77)"/>
    <line class="cls-3" x1="119.55" y1="181.19" x2="133.59" y2="144.27"/>
    <path class="cls-2" d="M275.79,462.69c-.2-2.68-.13-4.49-.1-6.72l-7.32,2.82a62.08,62.08,0,0,1,4.43,5,45.58,45.58,0,0,1,3.95,5.83,46.16,46.16,0,0,1-1-7" transform="translate(-207 -277.77)"/>
    <line class="cls-3" x1="65.63" y1="181.19" x2="51.59" y2="144.27"/>
    <rect class="cls-4" x="16.63" y="101.32" width="148.54" height="47.58"/>
    <rect class="cls-5" x="16.63" y="101.32" width="148.54" height="47.58"/>
    <path class="cls-2" d="M358.79,371.63a65.32,65.32,0,0,1,2.29-6.32l-7.85,0a60.54,60.54,0,0,1,2.35,6.29,46.39,46.39,0,0,1,1.62,6.86,45.09,45.09,0,0,1,1.59-6.86" transform="translate(-207 -277.77)"/>
    <line class="cls-3" x1="150.16" y1="89.24" x2="150.16" y2="59.26"/>
    <path class="cls-2" d="M241.94,371.63c.77-2.58,1.48-4.25,2.3-6.32l-7.85,0a60.54,60.54,0,0,1,2.35,6.29,46.39,46.39,0,0,1,1.62,6.86,46.08,46.08,0,0,1,1.58-6.86" transform="translate(-207 -277.77)"/>
    <line class="cls-3" x1="33.32" y1="89.24" x2="33.32" y2="59.26"/>
    <path class="cls-6" d="M353.91,317.7c0-.85,0-1.48,0-1.91a17.82,17.82,0,0,1,1.06-6.45,15,15,0,0,1,2.5-4.15,49.2,49.2,0,0,1,4.57-4.43,21.88,21.88,0,0,0,4.31-4.64,7.55,7.55,0,0,0,1-3.79,8.77,8.77,0,0,0-2.9-6.5A9.76,9.76,0,0,0,357.3,283a9.57,9.57,0,0,0-6.78,2.55c-1.81,1.69-3,4.35-3.56,7.95l-6.54-.77c.59-4.84,2.35-8.54,5.25-11.1s6.75-3.86,11.54-3.86q7.59,0,12.11,4.15a13,13,0,0,1,4.53,10,12.63,12.63,0,0,1-1.61,6.26,29.25,29.25,0,0,1-6.2,6.95,32.39,32.39,0,0,0-4.07,4.07,9.22,9.22,0,0,0-1.41,3,25.84,25.84,0,0,0-.52,5.51Zm-.37,12.77v-7.26h7.23v7.26h-7.23" transform="translate(-207 -277.77)"/>
    <path class="cls-2" d="M220.09,327.89h1.69V322h6.12v5.93h1.69V315.43H227.9v5.11h-6.12v-5.11h-1.69v12.46Zm19.17-8.36a3.87,3.87,0,0,0-3-1.21,4.32,4.32,0,0,0-3.34,1.35,5.2,5.2,0,0,0-1.24,3.64,4.5,4.5,0,0,0,4.85,4.82,8.62,8.62,0,0,0,1.76-.18,8.52,8.52,0,0,0,1.69-.54V326a7.27,7.27,0,0,1-1.64.65,6.6,6.6,0,0,1-1.72.22,3.28,3.28,0,0,1-2.38-.83,3.56,3.56,0,0,1-1-2.42h7.06v-.75a4.74,4.74,0,0,0-1.09-3.3Zm-5.91,2.86a3,3,0,0,1,.88-2,2.87,2.87,0,0,1,2.06-.73,2.35,2.35,0,0,1,1.82.75,2.91,2.91,0,0,1,.71,2Z" transform="translate(-207 -277.77)"/>
    <path class="cls-2" d="M241.86,327.89h1.54v-13h-1.54v13Zm3.8,0h1.53v-13h-1.53v13Zm9.35-7.3a4.35,4.35,0,0,1,.72,2.64,4.3,4.3,0,0,1-.72,2.63,2.29,2.29,0,0,1-1.94,1,2.32,2.32,0,0,1-2-1,5.26,5.26,0,0,1,0-5.28,2.45,2.45,0,0,1,3.9,0Zm-5.09-1a6.27,6.27,0,0,0,0,7.21,4.45,4.45,0,0,0,6.29,0,6.23,6.23,0,0,0,0-7.21,4.45,4.45,0,0,0-6.29,0Zm10,8.27h1.69v-2.12h-1.69v2.12Zm0-7,.18,3h1.35l.16-3v-5.47h-1.69v5.47Z" transform="translate(-207 -277.77)"/>
    <path class="cls-2" d="M273.36,397.13a11.09,11.09,0,0,0-1.79-.15,4.91,4.91,0,0,0-3.21.95,3.19,3.19,0,0,0-1.16,2.6,3,3,0,0,0,.84,2.23,5.52,5.52,0,0,0,2.73,1.17l1,.2a3.86,3.86,0,0,1,1.84.78,1.82,1.82,0,0,1,.57,1.43,1.86,1.86,0,0,1-.79,1.62,3.73,3.73,0,0,1-2.23.57,7,7,0,0,1-1.93-.29,10.19,10.19,0,0,1-2-.87v1.74a15.07,15.07,0,0,0,2.06.59,10,10,0,0,0,1.88.2,5.7,5.7,0,0,0,3.56-.94,3.24,3.24,0,0,0,1.22-2.74,3.28,3.28,0,0,0-.9-2.42,5.19,5.19,0,0,0-2.78-1.27l-1-.21a4.28,4.28,0,0,1-1.88-.68,1.53,1.53,0,0,1-.5-1.24,1.74,1.74,0,0,1,.75-1.52,3.57,3.57,0,0,1,2.12-.54,6.49,6.49,0,0,1,1.65.23,11.09,11.09,0,0,1,1.81.68v-1.64a14.17,14.17,0,0,0-1.86-.48Zm5.78,12.53h1.69v-5.94H287v5.94h1.69V397.2H287v5.11h-6.12V397.2h-1.69v12.46Z" transform="translate(-207 -277.77)"/>
    <path class="cls-2" d="M297.94,405.06h-4.58l2.28-6.2,2.3,6.2Zm-8,4.6h1.78l1.14-3.2h5.61l1.14,3.2h1.75L296.6,397.2h-1.91l-4.76,12.46Z" transform="translate(-207 -277.77)"/>
    <path class="cls-2" d="M307.63,405c.75-.78,1.19-1.24,1.33-1.4A8,8,0,0,0,310,402a3.79,3.79,0,0,0,.28-1.46,3.21,3.21,0,0,0-1.15-2.59,4.63,4.63,0,0,0-3.08-1,7,7,0,0,0-1.62.2,14,14,0,0,0-1.91.62v1.7a10,10,0,0,1,1.89-.83,5.67,5.67,0,0,1,1.67-.28,2.59,2.59,0,0,1,1.81.63,2.07,2.07,0,0,1,.7,1.62,2.79,2.79,0,0,1-.32,1.24,8.23,8.23,0,0,1-1.13,1.54c-.28.32-1,1-2.08,2.15s-2,2-2.62,2.67v1.42h7.91v-1.42h-5.88c1.36-1.39,2.41-2.46,3.15-3.23Zm4.92-1.55a7,7,0,0,1,1.37-.47,6.21,6.21,0,0,1,1.35-.15,3.26,3.26,0,0,1,2.28.76,2.92,2.92,0,0,1,0,4.12,3.26,3.26,0,0,1-2.28.76,7.2,7.2,0,0,1-1.7-.2,6.57,6.57,0,0,1-1.55-.61v1.69a12.79,12.79,0,0,0,1.68.41,11.12,11.12,0,0,0,1.6.13,5.09,5.09,0,0,0,3.53-1.12,3.93,3.93,0,0,0,1.25-3.12,4,4,0,0,0-1.22-3.1,4.63,4.63,0,0,0-3.3-1.14,4.49,4.49,0,0,0-.73.06,6.7,6.7,0,0,0-.74.19v-3.05h5.07V397.2h-6.61v6.26Zm15.1.07a3.75,3.75,0,0,1,0,4.25,2.26,2.26,0,0,1-1.8.78,2.23,2.23,0,0,1-1.8-.78,3.75,3.75,0,0,1,0-4.25,2.26,2.26,0,0,1,1.8-.77,2.29,2.29,0,0,1,1.8.77Zm.2-6.43a7,7,0,0,0-1.28-.12,4.58,4.58,0,0,0-3.77,1.75,7.36,7.36,0,0,0-1.4,4.71,8.42,8.42,0,0,0,1.14,4.8,3.78,3.78,0,0,0,3.31,1.66,4,4,0,0,0,3-1.16,4.23,4.23,0,0,0,1.13-3.08,4.28,4.28,0,0,0-1.09-3.1,3.89,3.89,0,0,0-3-1.14,3.48,3.48,0,0,0-1.64.39,3.43,3.43,0,0,0-1.23,1.11,6.07,6.07,0,0,1,1-3.4,3.06,3.06,0,0,1,2.55-1.13,5.61,5.61,0,0,1,1.28.16,7,7,0,0,1,1.28.46v-1.53a8.26,8.26,0,0,0-1.34-.38Z" transform="translate(-207 -277.77)"/>
    <text class="cls-7" transform="translate(0 209.7)">334d016f755cd6dc</text>
    <text class="cls-7" transform="translate(0 234.05)">58c53a86e18388</text>
    <text class="cls-7" transform="translate(159.07 234.05)">2</text>
    <g class="cls-8">
      <text class="cls-7" transform="translate(170.47 234.05)">f</text>
    </g>
    <text class="cls-7" transform="translate(0 258.38)">8ec14f52fb053458</text>
    <text class="cls-7" transform="translate(0 282.73)">87c8a5edd42c87b7</text>
  </g>
</svg>
