<?xml version="1.0" encoding="UTF-8" standalone="no"?>
<svg
   xmlns:dc="http://purl.org/dc/elements/1.1/"
   xmlns:cc="http://creativecommons.org/ns#"
   xmlns:rdf="http://www.w3.org/1999/02/22-rdf-syntax-ns#"
   xmlns:svg="http://www.w3.org/2000/svg"
   xmlns="http://www.w3.org/2000/svg"
   xmlns:sodipodi="http://sodipodi.sourceforge.net/DTD/sodipodi-0.dtd"
   xmlns:inkscape="http://www.inkscape.org/namespaces/inkscape"
   version="1.1"
   id="svg2"
   xml:space="preserve"
   width="158.92488"
   height="79.822533"
   viewBox="0 0 158.92488 79.822533"
   sodipodi:docname="u02-02.ai"><metadata
     id="metadata8"><rdf:RDF><cc:Work
         rdf:about=""><dc:format>image/svg+xml</dc:format><dc:type
           rdf:resource="http://purl.org/dc/dcmitype/StillImage" /></cc:Work></rdf:RDF></metadata><defs
     id="defs6"><clipPath
       clipPathUnits="userSpaceOnUse"
       id="clipPath18"><path
         d="M 0,792 H 612 V 0 H 0 Z"
         id="path16" /></clipPath></defs><sodipodi:namedview
     pagecolor="#ffffff"
     bordercolor="#666666"
     borderopacity="1"
     objecttolerance="10"
     gridtolerance="10"
     guidetolerance="10"
     inkscape:pageopacity="0"
     inkscape:pageshadow="2"
     inkscape:window-width="640"
     inkscape:window-height="480"
     id="namedview4" /><g
     id="g10"
     inkscape:groupmode="layer"
     inkscape:label="u02-02"
     transform="matrix(1.3333333,0,0,-1.3333333,-294.32159,856.66691)"><g
       id="g12"><g
         id="g14"
         clip-path="url(#clipPath18)"><g
           id="g20"
           transform="translate(279.0942,642.4292)"><path
             d="m 0,0 v -6.52 h 1.58 c 0.109,0 0.188,-0.021 0.236,-0.065 0.047,-0.04 0.071,-0.096 0.071,-0.165 0,-0.065 -0.024,-0.12 -0.071,-0.164 C 1.768,-6.958 1.689,-6.98 1.58,-6.98 h -3.622 c -0.11,0 -0.188,0.022 -0.236,0.066 -0.048,0.044 -0.072,0.099 -0.072,0.164 0,0.069 0.024,0.125 0.072,0.165 0.048,0.044 0.126,0.065 0.236,0.065 h 1.58 v 5.883 l -1.503,-0.471 c -0.074,-0.022 -0.127,-0.033 -0.16,-0.033 -0.055,0 -0.105,0.022 -0.153,0.066 -0.044,0.048 -0.066,0.102 -0.066,0.165 0,0.055 0.018,0.105 0.055,0.153 0.029,0.029 0.09,0.061 0.182,0.093 z m -5.318,-3.029 c 0,0.435 -0.063,0.84 -0.187,1.213 -0.121,0.377 -0.259,0.676 -0.411,0.9 -0.092,0.128 -0.211,0.237 -0.357,0.329 -0.209,0.128 -0.444,0.192 -0.703,0.192 -0.516,0 -0.92,-0.263 -1.212,-0.79 -0.293,-0.527 -0.44,-1.141 -0.44,-1.844 v -1.015 c 0,-0.435 0.061,-0.842 0.181,-1.219 0.125,-0.377 0.265,-0.676 0.424,-0.899 0.087,-0.125 0.204,-0.233 0.35,-0.324 0.208,-0.132 0.444,-0.198 0.708,-0.198 0.512,0 0.914,0.263 1.207,0.79 0.293,0.531 0.44,1.147 0.44,1.85 z m 0.461,0.06 V -4.11 c 0,-0.992 -0.237,-1.777 -0.708,-2.355 -0.371,-0.453 -0.836,-0.68 -1.4,-0.68 -0.27,0 -0.527,0.055 -0.767,0.165 -0.239,0.106 -0.442,0.255 -0.61,0.45 -0.106,0.121 -0.223,0.314 -0.351,0.582 -0.125,0.266 -0.215,0.511 -0.27,0.735 -0.084,0.315 -0.126,0.682 -0.126,1.103 v 1.141 c 0,0.995 0.236,1.782 0.708,2.361 0.369,0.453 0.836,0.679 1.4,0.679 0.274,0 0.53,-0.054 0.768,-0.164 0.238,-0.106 0.442,-0.256 0.609,-0.45 0.11,-0.124 0.227,-0.32 0.352,-0.587 0.123,-0.267 0.215,-0.511 0.273,-0.73 0.082,-0.315 0.122,-0.684 0.122,-1.109 M -13.49,0 v -6.52 h 1.581 c 0.109,0 0.188,-0.021 0.235,-0.065 0.048,-0.04 0.072,-0.096 0.072,-0.165 0,-0.065 -0.024,-0.12 -0.072,-0.164 -0.047,-0.044 -0.126,-0.066 -0.235,-0.066 h -3.622 c -0.11,0 -0.189,0.022 -0.237,0.066 -0.046,0.044 -0.071,0.099 -0.071,0.164 0,0.069 0.025,0.125 0.071,0.165 0.048,0.044 0.127,0.065 0.237,0.065 h 1.58 v 5.883 l -1.504,-0.471 c -0.072,-0.022 -0.125,-0.033 -0.158,-0.033 -0.055,0 -0.107,0.022 -0.155,0.066 -0.043,0.048 -0.065,0.102 -0.065,0.165 0,0.055 0.019,0.105 0.055,0.153 0.029,0.029 0.089,0.061 0.18,0.093 z m -5.318,-3.029 c 0,0.435 -0.062,0.84 -0.186,1.213 -0.121,0.377 -0.258,0.676 -0.412,0.9 -0.091,0.128 -0.21,0.237 -0.357,0.329 -0.208,0.128 -0.442,0.192 -0.702,0.192 -0.516,0 -0.92,-0.263 -1.213,-0.79 -0.292,-0.527 -0.439,-1.141 -0.439,-1.844 v -1.015 c 0,-0.435 0.06,-0.842 0.181,-1.219 0.124,-0.377 0.266,-0.676 0.423,-0.899 0.088,-0.125 0.205,-0.233 0.351,-0.324 0.208,-0.132 0.445,-0.198 0.708,-0.198 0.512,0 0.914,0.263 1.208,0.79 0.292,0.531 0.438,1.147 0.438,1.85 z m 0.461,0.06 V -4.11 c 0,-0.992 -0.235,-1.777 -0.708,-2.355 -0.369,-0.453 -0.836,-0.68 -1.399,-0.68 -0.271,0 -0.527,0.055 -0.768,0.165 -0.238,0.106 -0.441,0.255 -0.61,0.45 -0.106,0.121 -0.223,0.314 -0.351,0.582 -0.124,0.266 -0.213,0.511 -0.269,0.735 -0.084,0.315 -0.126,0.682 -0.126,1.103 v 1.141 c 0,0.995 0.236,1.782 0.708,2.361 0.37,0.453 0.836,0.679 1.4,0.679 0.274,0 0.53,-0.054 0.768,-0.164 0.238,-0.106 0.44,-0.256 0.609,-0.45 0.11,-0.124 0.227,-0.32 0.351,-0.587 0.125,-0.267 0.217,-0.511 0.275,-0.73 0.08,-0.315 0.12,-0.684 0.12,-1.109 m -13.95,-0.06 c 0,0.435 -0.062,0.84 -0.186,1.213 -0.121,0.377 -0.258,0.676 -0.412,0.9 -0.091,0.128 -0.21,0.237 -0.356,0.329 -0.209,0.128 -0.443,0.192 -0.703,0.192 -0.516,0 -0.921,-0.263 -1.213,-0.79 -0.292,-0.527 -0.439,-1.141 -0.439,-1.844 v -1.015 c 0,-0.435 0.06,-0.842 0.181,-1.219 0.124,-0.377 0.265,-0.676 0.423,-0.899 0.087,-0.125 0.205,-0.233 0.351,-0.324 0.208,-0.132 0.444,-0.198 0.708,-0.198 0.512,0 0.914,0.263 1.207,0.79 0.293,0.531 0.439,1.147 0.439,1.85 z m 0.461,0.06 V -4.11 c 0,-0.992 -0.236,-1.777 -0.708,-2.355 -0.37,-0.453 -0.836,-0.68 -1.399,-0.68 -0.271,0 -0.527,0.055 -0.768,0.165 -0.238,0.106 -0.441,0.255 -0.61,0.45 -0.106,0.121 -0.223,0.314 -0.351,0.582 -0.124,0.266 -0.214,0.511 -0.269,0.735 -0.084,0.315 -0.126,0.682 -0.126,1.103 v 1.141 c 0,0.995 0.236,1.782 0.708,2.361 0.369,0.453 0.836,0.679 1.4,0.679 0.273,0 0.53,-0.054 0.768,-0.164 0.237,-0.106 0.441,-0.256 0.609,-0.45 0.109,-0.124 0.227,-0.32 0.351,-0.587 0.125,-0.267 0.216,-0.511 0.274,-0.73 0.081,-0.315 0.121,-0.684 0.121,-1.109 m -7.206,-0.06 c 0,0.435 -0.062,0.84 -0.186,1.213 -0.121,0.377 -0.258,0.676 -0.412,0.9 -0.091,0.128 -0.21,0.237 -0.357,0.329 -0.208,0.128 -0.442,0.192 -0.702,0.192 -0.516,0 -0.92,-0.263 -1.213,-0.79 -0.292,-0.527 -0.439,-1.141 -0.439,-1.844 v -1.015 c 0,-0.435 0.061,-0.842 0.182,-1.219 0.124,-0.377 0.265,-0.676 0.422,-0.899 0.088,-0.125 0.205,-0.233 0.351,-0.324 0.209,-0.132 0.445,-0.198 0.708,-0.198 0.512,0 0.915,0.263 1.208,0.79 0.292,0.531 0.438,1.147 0.438,1.85 z m 0.461,0.06 V -4.11 c 0,-0.992 -0.235,-1.777 -0.708,-2.355 -0.369,-0.453 -0.836,-0.68 -1.399,-0.68 -0.27,0 -0.527,0.055 -0.768,0.165 -0.238,0.106 -0.441,0.255 -0.609,0.45 -0.106,0.121 -0.224,0.314 -0.352,0.582 -0.124,0.266 -0.213,0.511 -0.269,0.735 -0.084,0.315 -0.126,0.682 -0.126,1.103 v 1.141 c 0,0.995 0.236,1.782 0.708,2.361 0.37,0.453 0.836,0.679 1.399,0.679 0.275,0 0.531,-0.054 0.769,-0.164 0.238,-0.106 0.441,-0.256 0.609,-0.45 0.11,-0.124 0.227,-0.32 0.351,-0.587 0.125,-0.267 0.216,-0.511 0.275,-0.73 0.08,-0.315 0.12,-0.684 0.12,-1.109 M -47.213,0 v -6.52 h 1.581 c 0.11,0 0.188,-0.021 0.236,-0.065 0.047,-0.04 0.071,-0.096 0.071,-0.165 0,-0.065 -0.024,-0.12 -0.071,-0.164 -0.048,-0.044 -0.126,-0.066 -0.236,-0.066 h -3.622 c -0.11,0 -0.189,0.022 -0.236,0.066 -0.048,0.044 -0.072,0.099 -0.072,0.164 0,0.069 0.024,0.125 0.072,0.165 0.047,0.044 0.126,0.065 0.236,0.065 h 1.58 v 5.883 l -1.504,-0.471 c -0.073,-0.022 -0.126,-0.033 -0.158,-0.033 -0.056,0 -0.107,0.022 -0.154,0.066 -0.044,0.048 -0.066,0.102 -0.066,0.165 0,0.055 0.018,0.105 0.055,0.153 0.029,0.029 0.089,0.061 0.181,0.093 z m -6.745,0 v -6.52 h 1.581 c 0.11,0 0.189,-0.021 0.236,-0.065 0.048,-0.04 0.072,-0.096 0.072,-0.165 0,-0.065 -0.024,-0.12 -0.072,-0.164 -0.047,-0.044 -0.126,-0.066 -0.236,-0.066 h -3.622 c -0.11,0 -0.189,0.022 -0.236,0.066 -0.048,0.044 -0.071,0.099 -0.071,0.164 0,0.069 0.023,0.125 0.071,0.165 0.047,0.044 0.126,0.065 0.236,0.065 h 1.581 v 5.883 l -1.504,-0.471 c -0.073,-0.022 -0.126,-0.033 -0.16,-0.033 -0.054,0 -0.106,0.022 -0.153,0.066 -0.044,0.048 -0.066,0.102 -0.066,0.165 0,0.055 0.018,0.105 0.055,0.153 0.029,0.029 0.09,0.061 0.181,0.093 z"
             style="fill:#231f20;fill-opacity:1;fill-rule:nonzero;stroke:none"
             id="path22" /></g><g
           id="g24"
           transform="translate(237.522,621.2466)"><path
             d="m 0,0 c 0.136,0.128 0.275,0.192 0.417,0.192 0.161,0 0.293,-0.058 0.396,-0.175 0.105,-0.114 0.159,-0.304 0.159,-0.572 V -1.278 C 0.972,-1.55 0.918,-1.741 0.813,-1.854 0.71,-1.969 0.575,-2.025 0.406,-2.025 c -0.153,0 -0.283,0.044 -0.389,0.131 -0.077,0.067 -0.138,0.2 -0.182,0.401 -0.043,0.205 -0.149,0.357 -0.317,0.456 -0.297,0.176 -0.676,0.264 -1.137,0.264 -0.53,0 -0.956,-0.157 -1.278,-0.467 -0.318,-0.311 -0.478,-0.704 -0.478,-1.18 0,-0.439 0.154,-0.787 0.461,-1.043 0.308,-0.252 0.818,-0.379 1.531,-0.379 0.468,0 0.851,0.048 1.147,0.143 0.176,0.058 0.342,0.158 0.5,0.297 0.157,0.142 0.299,0.214 0.428,0.214 0.153,0 0.285,-0.057 0.395,-0.17 0.113,-0.114 0.17,-0.247 0.17,-0.401 0,-0.249 -0.17,-0.485 -0.51,-0.708 -0.505,-0.333 -1.244,-0.5 -2.217,-0.5 -0.875,0 -1.555,0.182 -2.042,0.544 -0.658,0.486 -0.988,1.152 -0.988,1.997 0,0.802 0.268,1.464 0.801,1.987 0.535,0.527 1.232,0.791 2.091,0.791 0.311,0 0.601,-0.03 0.867,-0.088 C -0.474,0.205 -0.227,0.117 0,0"
             style="fill:#231f20;fill-opacity:1;fill-rule:nonzero;stroke:none"
             id="path26" /></g><g
           id="g28"
           transform="translate(267.8374,622.4429)"><path
             d="m 0,0 v -1.339 c 0.417,0.132 0.796,0.197 1.136,0.197 0.691,0 1.265,-0.235 1.722,-0.708 0.458,-0.471 0.687,-1.081 0.687,-1.827 0,-0.768 -0.232,-1.372 -0.696,-1.81 -0.461,-0.436 -1.17,-0.654 -2.125,-0.654 -0.841,0 -1.507,0.16 -1.997,0.478 -0.286,0.183 -0.428,0.392 -0.428,0.631 0,0.149 0.055,0.28 0.165,0.389 0.113,0.114 0.246,0.17 0.4,0.17 0.128,0 0.267,-0.062 0.416,-0.186 0.151,-0.121 0.309,-0.205 0.473,-0.252 0.234,-0.07 0.534,-0.105 0.9,-0.105 0.68,0 1.145,0.108 1.394,0.324 0.249,0.219 0.373,0.554 0.373,1.004 0,0.443 -0.12,0.791 -0.362,1.043 -0.239,0.252 -0.545,0.378 -0.922,0.378 -0.407,0 -0.869,-0.131 -1.389,-0.394 -0.117,-0.063 -0.219,-0.094 -0.307,-0.094 -0.161,0 -0.296,0.059 -0.406,0.176 -0.106,0.117 -0.159,0.268 -0.159,0.455 v 3.249 h 3.44 C 2.587,1.125 2.778,1.072 2.892,0.966 3.009,0.863 3.067,0.729 3.067,0.56 3.067,0.396 3.009,0.26 2.892,0.153 2.778,0.052 2.587,0 2.315,0 Z"
             style="fill:#231f20;fill-opacity:1;fill-rule:nonzero;stroke:none"
             id="path30" /></g><g
           id="g32"
           transform="translate(237.7334,597.27)"><path
             d="m 0,0 h 2.464 c 0.136,0.109 0.264,0.164 0.384,0.164 0.173,0 0.308,-0.057 0.406,-0.17 0.103,-0.113 0.154,-0.307 0.154,-0.582 v -0.537 h -5.126 v 1.19 C 0.309,1.737 1.533,2.813 1.954,3.292 2.166,3.537 2.272,3.77 2.272,3.989 2.272,4.264 2.151,4.505 1.91,4.714 1.672,4.926 1.354,5.032 0.955,5.032 0.553,5.032 0.218,4.915 -0.049,4.681 -0.188,4.557 -0.3,4.372 -0.384,4.127 -0.435,3.973 -0.507,3.863 -0.598,3.797 -0.686,3.731 -0.796,3.698 -0.927,3.698 c -0.154,0 -0.287,0.055 -0.401,0.165 -0.11,0.11 -0.165,0.238 -0.165,0.384 0,0.22 0.101,0.494 0.302,0.823 0.205,0.329 0.502,0.593 0.889,0.79 0.392,0.199 0.816,0.297 1.273,0.297 0.71,0 1.292,-0.216 1.745,-0.647 C 3.17,5.081 3.397,4.562 3.397,3.951 3.397,3.64 3.331,3.351 3.2,3.084 3.072,2.82 2.761,2.454 2.267,1.986 1.879,1.616 1.123,0.954 0,0 M -5.12,6.157 V 0 h 1.136 c 0.271,0 0.463,-0.054 0.576,-0.159 0.117,-0.103 0.176,-0.238 0.176,-0.406 0,-0.165 -0.059,-0.3 -0.176,-0.407 -0.113,-0.102 -0.305,-0.153 -0.576,-0.153 h -3.397 c -0.271,0 -0.465,0.051 -0.582,0.153 -0.113,0.107 -0.17,0.243 -0.17,0.411 0,0.165 0.057,0.299 0.17,0.402 C -7.846,-0.054 -7.652,0 -7.381,0 h 1.136 V 4.691 L -7.25,4.429 C -7.411,4.385 -7.531,4.362 -7.612,4.362 c -0.142,0 -0.266,0.057 -0.373,0.17 -0.102,0.114 -0.154,0.253 -0.154,0.418 0,0.15 0.039,0.267 0.116,0.351 0.077,0.088 0.238,0.165 0.483,0.23 z"
             style="fill:#231f20;fill-opacity:1;fill-rule:nonzero;stroke:none"
             id="path34" /></g><g
           id="g36"
           transform="translate(265.9966,599.1245)"><path
             d="m 0,0 v -2.305 c 0,-0.11 -0.022,-0.188 -0.066,-0.236 -0.044,-0.048 -0.101,-0.071 -0.17,-0.071 -0.067,0 -0.121,0.023 -0.165,0.071 -0.044,0.048 -0.066,0.126 -0.066,0.236 V 0 h -2.041 c -0.11,0 -0.189,0.021 -0.236,0.061 -0.048,0.043 -0.072,0.1 -0.072,0.169 0,0.07 0.024,0.124 0.072,0.166 0.047,0.043 0.126,0.065 0.236,0.065 h 2.041 v 2.294 c 0,0.11 0.022,0.188 0.066,0.236 0.044,0.047 0.1,0.072 0.171,0.072 0.065,0 0.12,-0.025 0.164,-0.072 C -0.022,2.943 0,2.865 0,2.755 V 0.461 H 2.041 C 2.15,0.461 2.229,0.439 2.277,0.396 2.324,0.354 2.348,0.3 2.348,0.23 2.348,0.161 2.324,0.104 2.277,0.061 2.229,0.021 2.15,0 2.041,0 Z m -8.249,-0.829 c 0.139,-0.665 0.357,-1.141 0.653,-1.427 0.3,-0.285 0.653,-0.428 1.059,-0.428 0.41,0 0.76,0.16 1.049,0.478 0.293,0.322 0.439,0.739 0.439,1.251 0,0.479 -0.146,0.877 -0.439,1.191 -0.293,0.315 -0.624,0.472 -0.994,0.472 -0.354,0 -0.697,-0.152 -1.026,-0.456 -0.22,-0.201 -0.467,-0.561 -0.741,-1.081 m -0.104,0.764 c 0.285,0.419 0.578,0.731 0.878,0.932 0.304,0.201 0.64,0.302 1.01,0.302 0.49,0 0.926,-0.205 1.306,-0.614 0.38,-0.407 0.571,-0.909 0.571,-1.51 0,-0.549 -0.174,-1.052 -0.521,-1.509 -0.348,-0.454 -0.828,-0.681 -1.439,-0.681 -0.398,0 -0.772,0.123 -1.119,0.368 -0.344,0.246 -0.615,0.623 -0.812,1.131 -0.245,0.632 -0.368,1.333 -0.368,2.101 0,0.578 0.115,1.116 0.346,1.614 0.175,0.384 0.41,0.721 0.702,1.01 0.293,0.292 0.633,0.53 1.021,0.713 0.391,0.187 0.814,0.28 1.268,0.28 0.307,0 0.563,-0.062 0.768,-0.186 0.088,-0.056 0.132,-0.128 0.132,-0.22 0,-0.066 -0.021,-0.121 -0.061,-0.165 -0.04,-0.04 -0.091,-0.06 -0.153,-0.06 -0.048,0 -0.105,0.018 -0.17,0.055 -0.151,0.073 -0.337,0.109 -0.561,0.109 -0.713,0 -1.364,-0.307 -1.953,-0.921 -0.585,-0.612 -0.878,-1.339 -0.878,-2.185 0,-0.12 0.011,-0.309 0.033,-0.564 m -5.142,4.066 v -6.52 h 1.58 c 0.11,0 0.189,-0.022 0.236,-0.066 0.048,-0.04 0.072,-0.095 0.072,-0.164 0,-0.066 -0.024,-0.121 -0.072,-0.165 -0.047,-0.044 -0.126,-0.065 -0.236,-0.065 h -3.622 c -0.109,0 -0.188,0.021 -0.235,0.065 -0.048,0.044 -0.072,0.099 -0.072,0.165 0,0.069 0.024,0.124 0.072,0.164 0.047,0.044 0.126,0.066 0.235,0.066 h 1.581 V 3.364 L -15.46,2.893 c -0.073,-0.023 -0.126,-0.034 -0.159,-0.034 -0.055,0 -0.106,0.022 -0.153,0.066 -0.045,0.048 -0.066,0.102 -0.066,0.165 0,0.055 0.018,0.105 0.054,0.153 0.03,0.029 0.09,0.061 0.181,0.094 z M -20.723,2.02 v 1.575 c 0,0.113 0.022,0.194 0.066,0.241 0.044,0.048 0.101,0.071 0.17,0.071 0.066,0 0.121,-0.023 0.165,-0.071 0.044,-0.047 0.066,-0.128 0.066,-0.241 V 2.02 l 1.498,0.488 c 0.07,0.022 0.122,0.033 0.159,0.033 0.058,0 0.11,-0.023 0.154,-0.071 0.044,-0.044 0.066,-0.097 0.066,-0.159 0,-0.055 -0.017,-0.103 -0.05,-0.143 -0.029,-0.041 -0.092,-0.075 -0.186,-0.105 l -1.499,-0.488 0.928,-1.273 c 0.058,-0.084 0.088,-0.15 0.088,-0.198 0,-0.066 -0.024,-0.123 -0.071,-0.169 -0.044,-0.044 -0.098,-0.067 -0.16,-0.067 -0.08,0 -0.159,0.054 -0.236,0.159 l -0.927,1.28 -0.927,-1.28 c -0.078,-0.105 -0.154,-0.159 -0.231,-0.159 -0.066,0 -0.123,0.023 -0.17,0.067 -0.044,0.046 -0.066,0.103 -0.066,0.169 0,0.048 0.031,0.114 0.093,0.198 l 0.928,1.273 -1.504,0.494 c -0.091,0.03 -0.153,0.062 -0.187,0.099 -0.029,0.04 -0.044,0.088 -0.044,0.143 0,0.062 0.022,0.115 0.066,0.159 0.044,0.048 0.094,0.071 0.148,0.071 0.041,0 0.095,-0.011 0.165,-0.033 z"
             style="fill:#231f20;fill-opacity:1;fill-rule:nonzero;stroke:none"
             id="path38" /></g><g
           id="g40"
           transform="translate(271.561,602.1206)"><path
             d="m 0,0 v -1.339 c 0.417,0.132 0.795,0.197 1.136,0.197 0.691,0 1.265,-0.235 1.723,-0.707 0.457,-0.472 0.686,-1.081 0.686,-1.828 0,-0.768 -0.232,-1.372 -0.697,-1.81 -0.461,-0.436 -1.168,-0.654 -2.123,-0.654 -0.842,0 -1.508,0.16 -1.998,0.478 -0.286,0.183 -0.428,0.393 -0.428,0.631 0,0.15 0.055,0.28 0.164,0.389 0.113,0.114 0.247,0.17 0.4,0.17 0.129,0 0.268,-0.061 0.418,-0.186 0.15,-0.12 0.307,-0.205 0.472,-0.252 0.233,-0.069 0.534,-0.105 0.899,-0.105 0.682,0 1.146,0.109 1.395,0.325 0.248,0.218 0.373,0.553 0.373,1.003 0,0.443 -0.121,0.791 -0.362,1.043 -0.238,0.252 -0.545,0.378 -0.922,0.378 -0.407,0 -0.868,-0.131 -1.389,-0.394 -0.117,-0.063 -0.22,-0.094 -0.308,-0.094 -0.16,0 -0.295,0.059 -0.406,0.176 -0.105,0.117 -0.158,0.268 -0.158,0.456 v 3.248 h 3.44 C 2.586,1.125 2.778,1.072 2.892,0.966 3.009,0.863 3.067,0.729 3.067,0.561 3.067,0.396 3.009,0.26 2.892,0.154 2.778,0.052 2.586,0 2.315,0 Z"
             style="fill:#231f20;fill-opacity:1;fill-rule:nonzero;stroke:none"
             id="path42" /></g><g
           id="g44"
           transform="translate(263.9409,589.0103)"><path
             d="m 0,0 v 0.209 h -3.304 v -0.406 c 0,-0.111 -0.021,-0.189 -0.066,-0.237 -0.04,-0.047 -0.095,-0.071 -0.164,-0.071 -0.067,0 -0.121,0.024 -0.164,0.071 -0.045,0.048 -0.067,0.126 -0.067,0.237 v 0.872 h 4.231 v -0.736 l -1.855,-5.926 c -0.029,-0.095 -0.063,-0.159 -0.104,-0.193 -0.04,-0.028 -0.086,-0.043 -0.137,-0.043 -0.066,0 -0.121,0.022 -0.164,0.066 -0.045,0.044 -0.066,0.094 -0.066,0.153 0,0.037 0.01,0.088 0.033,0.154 z m -6.492,-1.548 c -0.194,0.743 -0.436,1.248 -0.725,1.515 -0.285,0.271 -0.62,0.406 -1.004,0.406 -0.391,0 -0.735,-0.164 -1.031,-0.494 -0.297,-0.329 -0.445,-0.751 -0.445,-1.268 0,-0.501 0.148,-0.916 0.445,-1.245 0.296,-0.326 0.63,-0.488 1.003,-0.488 0.216,0 0.429,0.059 0.637,0.175 0.213,0.117 0.412,0.293 0.598,0.527 0.121,0.157 0.295,0.448 0.522,0.872 m 0.088,-0.767 c -0.238,-0.421 -0.522,-0.738 -0.851,-0.951 -0.326,-0.212 -0.661,-0.317 -1.004,-0.317 -0.319,0 -0.628,0.091 -0.928,0.274 -0.296,0.183 -0.532,0.45 -0.708,0.801 -0.175,0.355 -0.263,0.727 -0.263,1.114 0,0.564 0.174,1.076 0.521,1.537 0.351,0.464 0.82,0.697 1.405,0.697 0.417,0 0.798,-0.13 1.142,-0.39 0.343,-0.26 0.611,-0.637 0.801,-1.131 0.245,-0.632 0.368,-1.368 0.368,-2.206 0,-0.651 -0.105,-1.192 -0.313,-1.624 -0.14,-0.293 -0.344,-0.576 -0.615,-0.85 -0.267,-0.275 -0.569,-0.498 -0.905,-0.67 -0.461,-0.231 -0.941,-0.346 -1.438,-0.346 -0.329,0 -0.599,0.063 -0.807,0.187 -0.095,0.058 -0.143,0.131 -0.143,0.219 0,0.063 0.022,0.114 0.066,0.154 0.044,0.044 0.097,0.066 0.159,0.066 0.044,0 0.108,-0.02 0.192,-0.061 0.143,-0.069 0.308,-0.104 0.495,-0.104 0.778,0 1.448,0.28 2.008,0.84 0.56,0.563 0.84,1.267 0.84,2.113 0,0.153 -0.008,0.369 -0.022,0.648 m -8.408,3.084 v -6.52 h 1.581 c 0.109,0 0.188,-0.022 0.235,-0.066 0.048,-0.04 0.072,-0.095 0.072,-0.164 0,-0.067 -0.024,-0.122 -0.072,-0.165 -0.047,-0.044 -0.126,-0.066 -0.235,-0.066 h -3.622 c -0.11,0 -0.189,0.022 -0.236,0.066 -0.048,0.043 -0.072,0.098 -0.072,0.165 0,0.069 0.024,0.124 0.072,0.164 0.047,0.044 0.126,0.066 0.236,0.066 h 1.58 v 5.883 l -1.503,-0.472 c -0.074,-0.022 -0.127,-0.033 -0.16,-0.033 -0.055,0 -0.106,0.021 -0.153,0.065 -0.044,0.048 -0.066,0.103 -0.066,0.165 0,0.055 0.018,0.107 0.055,0.154 0.029,0.029 0.089,0.06 0.181,0.093 z m -4.456,-4.819 h -5.027 c -0.11,0 -0.188,0.02 -0.236,0.061 -0.048,0.044 -0.071,0.1 -0.071,0.17 0,0.069 0.023,0.124 0.071,0.165 0.048,0.043 0.126,0.065 0.236,0.065 h 5.027 c 0.11,0 0.188,-0.022 0.236,-0.065 0.048,-0.041 0.072,-0.096 0.072,-0.165 0,-0.07 -0.024,-0.126 -0.072,-0.17 -0.048,-0.041 -0.126,-0.061 -0.236,-0.061 m 0,1.652 h -5.027 c -0.11,0 -0.188,0.022 -0.236,0.066 -0.048,0.044 -0.071,0.101 -0.071,0.17 0,0.065 0.023,0.121 0.071,0.165 0.048,0.043 0.126,0.065 0.236,0.065 h 5.027 c 0.11,0 0.188,-0.022 0.236,-0.065 0.048,-0.044 0.072,-0.102 0.072,-0.171 0,-0.065 -0.024,-0.12 -0.072,-0.164 -0.048,-0.044 -0.126,-0.066 -0.236,-0.066"
             style="fill:#231f20;fill-opacity:1;fill-rule:nonzero;stroke:none"
             id="path46" /></g><g
           id="g48"
           transform="translate(250.1172,633.3301)"><path
             d="m 0,0 c 0,-1.84 -2.218,-3.332 -4.955,-3.332 h -4.653 c -2.736,0 -4.956,-1.491 -4.956,-3.332 0,1.841 -2.218,3.332 -4.953,3.332 h -4.653 c -2.737,0 -4.956,1.492 -4.956,3.332"
             style="fill:none;stroke:#231f20;stroke-width:0.5;stroke-linecap:butt;stroke-linejoin:round;stroke-miterlimit:10;stroke-dasharray:none;stroke-opacity:1"
             id="path50" /></g><g
           id="g52"
           transform="translate(282.9243,633.3301)"><path
             d="m 0,0 c 0,-1.84 -2.219,-3.332 -4.955,-3.332 h -4.654 c -2.735,0 -4.955,-1.491 -4.955,-3.332 0,1.841 -2.218,3.332 -4.954,3.332 h -4.653 c -2.737,0 -4.956,1.492 -4.956,3.332"
             style="fill:none;stroke:#231f20;stroke-width:0.5;stroke-linecap:butt;stroke-linejoin:round;stroke-miterlimit:10;stroke-dasharray:none;stroke-opacity:1"
             id="path54" /></g><g
           id="g56"
           transform="translate(273.6177,615.1665)"><path
             d="m 0,0 c 0,-2.661 -3.209,-4.818 -7.167,-4.818 h -6.731 c -3.956,0 -7.167,-2.159 -7.167,-4.82 0,2.661 -3.208,4.82 -7.164,4.82 h -6.73 c -3.959,0 -7.169,2.157 -7.169,4.818"
             style="fill:none;stroke:#231f20;stroke-width:0.5;stroke-linecap:butt;stroke-linejoin:round;stroke-miterlimit:10;stroke-dasharray:none;stroke-opacity:1"
             id="path58" /></g><text
           transform="matrix(1,0,0,-1,288.5244,635.6372)"
           style="font-variant:normal;font-weight:normal;font-stretch:normal;font-size:9px;font-family:Arial;-inkscape-font-specification:ArialMT;writing-mode:lr-tb;fill:#231f20;fill-opacity:1;fill-rule:nonzero;stroke:none"
           id="text66"><tspan
             x="0 6.0029998 8.0010004 10.503"
             y="0"
             sodipodi:role="line"
             id="tspan60">Bits</tspan><tspan
             x="0 6.4980001 11.502 16.002001 21.006001 26.01 31.014 35.514 37.512001 45.008999 50.013"
             y="19.872"
             sodipodi:role="line"
             id="tspan62">Hexadezimal</tspan><tspan
             x="0 6.4980001 11.502 16.002001 18 25.497 30.500999"
             y="39.743999"
             sodipodi:role="line"
             id="tspan64">Dezimal</tspan></text></g></g></g></svg>
