<svg xmlns="http://www.w3.org/2000/svg" xmlns:xlink="http://www.w3.org/1999/xlink" width="121.27" height="288.34" viewBox="0 0 121.27 288.34">
  <defs>
    <style>
      .cls-1, .cls-22, .cls-24, .cls-5 {
        fill: none;
      }

      .cls-2 {
        fill: #7f8587;
      }

      .cls-3 {
        fill: url(#linear-gradient);
      }

      .cls-4 {
        fill: url(#linear-gradient-2);
      }

      .cls-10, .cls-11, .cls-13, .cls-22, .cls-23, .cls-24, .cls-5, .cls-6, .cls-8, .cls-9 {
        stroke: #000;
      }

      .cls-10, .cls-11, .cls-13, .cls-23, .cls-24, .cls-25, .cls-29, .cls-5, .cls-6, .cls-8 {
        stroke-linejoin: round;
      }

      .cls-13, .cls-22, .cls-23, .cls-5, .cls-6, .cls-8 {
        stroke-width: 0.5px;
      }

      .cls-6 {
        fill: #7cb2c9;
      }

      .cls-7 {
        fill: #c4dbe5;
      }

      .cls-9 {
        fill: #fda452;
      }

      .cls-10, .cls-11, .cls-25, .cls-29, .cls-9 {
        stroke-width: 0.3px;
      }

      .cls-10 {
        fill: #ca0127;
      }

      .cls-11 {
        fill: #fb2b34;
      }

      .cls-12 {
        clip-path: url(#clip-path);
      }

      .cls-13 {
        fill: #dbdbdb;
      }

      .cls-14, .cls-15 {
        fill: #fff;
      }

      .cls-15, .cls-16, .cls-17, .cls-18, .cls-19 {
        fill-rule: evenodd;
      }

      .cls-16 {
        fill: #fbafc5;
      }

      .cls-17 {
        fill: #fda655;
      }

      .cls-19 {
        fill: #96c749;
      }

      .cls-20, .cls-32 {
        font-size: 7px;
      }

      .cls-20, .cls-28 {
        font-family: ArialMT, Arial;
      }

      .cls-21 {
        fill: #e6f5f9;
      }

      .cls-23 {
        fill: #cce1e9;
      }

      .cls-25 {
        fill: #a10000;
        stroke: #a10000;
      }

      .cls-26 {
        fill: url(#linear-gradient-3);
      }

      .cls-27 {
        fill: url(#linear-gradient-4);
      }

      .cls-28 {
        font-size: 9.35px;
      }

      .cls-29 {
        fill: #267520;
        stroke: #267520;
      }

      .cls-30 {
        fill: url(#linear-gradient-5);
      }

      .cls-31 {
        fill: url(#linear-gradient-6);
      }

      .cls-32 {
        font-family: Courier;
      }
    </style>
    <linearGradient id="linear-gradient" x1="61.78" y1="74.51" x2="61.78" y2="103.26" gradientUnits="userSpaceOnUse">
      <stop offset="0" stop-color="#797d7e"/>
      <stop offset="0.06" stop-color="#979a9b"/>
      <stop offset="0.15" stop-color="#bcbebf"/>
      <stop offset="0.24" stop-color="#d9dbdb"/>
      <stop offset="0.33" stop-color="#eeefef"/>
      <stop offset="0.42" stop-color="#fbfbfb"/>
      <stop offset="0.5" stop-color="#fff"/>
    </linearGradient>
    <linearGradient id="linear-gradient-2" x1="61.67" y1="90.68" x2="61.67" y2="103.26" gradientUnits="userSpaceOnUse">
      <stop offset="0" stop-color="#eef0f0"/>
      <stop offset="1" stop-color="#cccfd0"/>
    </linearGradient>
    <clipPath id="clip-path">
      <rect transform="translate(-247.98 -158.67)" class="cls-1" x="288.48" y="195.52" width="42.38" height="25.83"/>
    </clipPath>
    <linearGradient id="linear-gradient-3" x1="248.48" y1="321.89" x2="301.25" y2="321.89" gradientUnits="userSpaceOnUse">
      <stop offset="0" stop-color="#ff0001"/>
      <stop offset="0.08" stop-color="#ff1b17"/>
      <stop offset="0.25" stop-color="#fe4f41"/>
      <stop offset="0.42" stop-color="#fe7b64"/>
      <stop offset="0.59" stop-color="#fd9d80"/>
      <stop offset="0.74" stop-color="#fdb593"/>
      <stop offset="0.88" stop-color="#fdc49f"/>
      <stop offset="1" stop-color="#fdc9a3"/>
    </linearGradient>
    <linearGradient id="linear-gradient-4" x1="249.42" y1="321.89" x2="299.78" y2="321.89" gradientUnits="userSpaceOnUse">
      <stop offset="0" stop-color="#fdc9a3"/>
      <stop offset="1" stop-color="#ff0001"/>
    </linearGradient>
    <linearGradient id="linear-gradient-5" x1="248.48" y1="424.87" x2="301.26" y2="424.87" gradientUnits="userSpaceOnUse">
      <stop offset="0" stop-color="#5fb749"/>
      <stop offset="1" stop-color="#dbf1c6"/>
    </linearGradient>
    <linearGradient id="linear-gradient-6" x1="249.42" y1="424.87" x2="299.78" y2="424.87" gradientUnits="userSpaceOnUse">
      <stop offset="0" stop-color="#dbf1c6"/>
      <stop offset="1" stop-color="#5fb749"/>
    </linearGradient>
  </defs>
  <g id="Layer_2" data-name="Layer 2">
    <g>
      <g>
        <path class="cls-2" d="M336,233.64A1.54,1.54,0,0,0,334.4,232H284.91a1.54,1.54,0,0,0-1.55,1.64l1.55,28.21a1.77,1.77,0,0,0,1.74,1.64h46a1.76,1.76,0,0,0,1.74-1.64Z" transform="translate(-247.98 -158.67)"/>
        <polygon class="cls-3" points="38.53 103.26 36.9 74.51 86.66 74.51 84.81 103.26 38.53 103.26"/>
        <polygon class="cls-4" points="38.71 103.26 41.72 90.68 81.85 90.68 84.64 103.26 38.71 103.26"/>
        <path class="cls-5" d="M336,231.59A1.54,1.54,0,0,0,334.4,230H284.91a1.54,1.54,0,0,0-1.55,1.64l1.55,30.26a1.77,1.77,0,0,0,1.74,1.64h46a1.76,1.76,0,0,0,1.74-1.64Z" transform="translate(-247.98 -158.67)"/>
      </g>
      <polygon class="cls-6" points="33.33 68.81 34.07 73.33 89.28 73.33 90.02 68.81 33.33 68.81"/>
      <g>
        <path class="cls-7" d="M333.28,215.08a1.58,1.58,0,0,0-1.37-.92H287.4a1.58,1.58,0,0,0-1.37.92l-4.89,12.3a.63.63,0,0,0,.63.93h55.77a.63.63,0,0,0,.63-.93Z" transform="translate(-247.98 -158.67)"/>
        <path class="cls-5" d="M333.28,215.08a1.58,1.58,0,0,0-1.37-.92H287.4a1.58,1.58,0,0,0-1.37.92l-4.89,12.3a.63.63,0,0,0,.63.93h55.77a.63.63,0,0,0,.63-.93Z" transform="translate(-247.98 -158.67)"/>
      </g>
      <polygon class="cls-8" points="40.36 61.64 39.63 63.47 83.72 63.47 82.98 61.64 40.36 61.64"/>
      <g>
        <path class="cls-9" d="M306.61,250.37l2.34,2.2c2-2.29,2.9-9.41,2.9-19.39h-4.18C307.67,243.38,307.66,249.16,306.61,250.37Z" transform="translate(-247.98 -158.67)"/>
        <path class="cls-9" d="M300.44,250l1.51,2.88c4.22-2.43,5.32-10.91,5.33-19.73H303.1C303.1,236.92,303.61,248.21,300.44,250Z" transform="translate(-247.98 -158.67)"/>
        <path class="cls-9" d="M294.16,249.93l1.08,3.08c7-2.68,7.56-14.24,7.56-19.83h-4.18C298.62,237.65,299.13,248,294.16,249.93Z" transform="translate(-247.98 -158.67)"/>
        <path class="cls-9" d="M287.84,249.89l.83,3.16c9.16-2.62,9.69-14.68,9.69-19.87h-4.18C294.18,238,294.69,247.93,287.84,249.89Z" transform="translate(-247.98 -158.67)"/>
        <path class="cls-9" d="M318.91,250l-1.52,2.88c-4.22-2.43-5.33-10.91-5.33-19.73h4.18C316.24,236.92,315.73,248.21,318.91,250Z" transform="translate(-247.98 -158.67)"/>
        <path class="cls-9" d="M325.18,249.93,324.1,253c-7-2.68-7.56-14.24-7.56-19.83h4.18C320.72,237.65,320.21,248,325.18,249.93Z" transform="translate(-247.98 -158.67)"/>
        <path class="cls-9" d="M331.5,249.89l-.83,3.16c-9.16-2.62-9.69-14.68-9.69-19.87h4.18C325.16,238,324.65,247.93,331.5,249.89Z" transform="translate(-247.98 -158.67)"/>
      </g>
      <path class="cls-10" d="M311.81,225.13c0,.66-1,1.2-2.15,1.2s-2.16-.54-2.16-1.2,1-1.2,2.16-1.2S311.81,224.46,311.81,225.13Z" transform="translate(-247.98 -158.67)"/>
      <path class="cls-11" d="M311.81,224.55c0,.66-1,1.2-2.15,1.2s-2.16-.54-2.16-1.2,1-1.2,2.16-1.2S311.81,223.89,311.81,224.55Z" transform="translate(-247.98 -158.67)"/>
      <g class="cls-12">
        <rect class="cls-13" x="41.48" y="40.37" width="40.4" height="44.61"/>
        <rect class="cls-14" x="43.37" y="42.27" width="36.59" height="40.81"/>
        <g>
          <path class="cls-15" d="M297.23,201H323.3a59.68,59.68,0,0,0-6.75.94,43.14,43.14,0,0,0-12.43,0C302,201.37,299.51,201.27,297.23,201Z" transform="translate(-247.98 -158.67)"/>
          <path class="cls-16" d="M294.39,201.76c2.29-.27,4,1.25,5.27,2.43a4.85,4.85,0,0,0-.81,2.16c.09.41.29-.13.54,0-.23.22-.05.85-.54.81A9.34,9.34,0,0,0,294.39,201.76Z" transform="translate(-247.98 -158.67)"/>
          <path class="cls-17" d="M296.55,201.76c2-.36,4.1.32,6.08.4-.69.62-2.54.79-2.43,1.76C299.26,203.47,298.25,201.91,296.55,201.76Z" transform="translate(-247.98 -158.67)"/>
          <path class="cls-18" d="M310.87,205.14c0,.88-.33,2.57.14,3.64C310.28,207.92,310.46,206.21,310.87,205.14Z" transform="translate(-247.98 -158.67)"/>
          <path class="cls-18" d="M309,211.22c-.34.12-1.24,0-1.35-.27-1.11,2.1-5.44,2.12-5.94-.55-.55,0-.94.24-1.49.28C302.17,208.73,307.28,209.7,309,211.22Zm-2.16-.54c-.78.54-1.87,1.38-3.11.67-.36-.27-.29-1-.81-1.08h-.54C302.32,212.59,306.46,212.77,306.82,210.68Z" transform="translate(-247.98 -158.67)"/>
          <path class="cls-18" d="M320.33,210.54c-.39.38-.95-.21-1.49-.14-.53,2.55-4.88,2.79-5.94.55,0,.35-.69.15-1.35.4C313.07,209.52,318.14,208.94,320.33,210.54Zm-3-.27a1.76,1.76,0,0,1-1.49,1.35c-1,.11-1.48-.74-2.29-.94.52,2,4.34,1.9,4.59-.28A1.17,1.17,0,0,0,317.36,210.27Z" transform="translate(-247.98 -158.67)"/>
          <path class="cls-19" d="M302.36,210.27h.54c.52.11.45.81.81,1.08,1.24.71,2.33-.13,3.11-.67C306.46,212.77,302.32,212.59,302.36,210.27Z" transform="translate(-247.98 -158.67)"/>
          <path class="cls-19" d="M318.17,210.4c-.25,2.18-4.07,2.28-4.59.28.81.2,1.26,1,2.29.94a1.76,1.76,0,0,0,1.49-1.35A1.17,1.17,0,0,1,318.17,210.4Z" transform="translate(-247.98 -158.67)"/>
          <path class="cls-18" d="M311.55,212.57c.44.84-1,.61-1.22,1.21,1.39.38,2.92.6,3.38,1.89-1.58-1.59-5.42-1.5-7,0,.52-1.23,2-1.49,3.37-1.89-.15-.52-1-.37-1.21-.81v-.4A5.48,5.48,0,0,1,311.55,212.57Zm-1.49.67c.23-.72-.46-.52-.94-.54C309.19,213.13,309.73,213.08,310.06,213.24Zm.27,0a1.28,1.28,0,0,0,1.08-.54h-1.08Z" transform="translate(-247.98 -158.67)"/>
          <path class="cls-16" d="M309.12,212.7c.48,0,1.17-.18.94.54C309.73,213.08,309.19,213.13,309.12,212.7Z" transform="translate(-247.98 -158.67)"/>
          <path class="cls-16" d="M310.33,212.7h1.08a1.28,1.28,0,0,1-1.08.54Z" transform="translate(-247.98 -158.67)"/>
          <path class="cls-18" d="M304,213.51c.19-.31.94,0,1.35-.13C305.15,213.69,304.39,213.43,304,213.51Z" transform="translate(-247.98 -158.67)"/>
          <path class="cls-18" d="M315.2,213.51c.27-.31,1.12,0,1.62-.13C316.54,213.69,315.7,213.43,315.2,213.51Z" transform="translate(-247.98 -158.67)"/>
          <path class="cls-18" d="M307.63,213.65c-.9.63-2.33.73-3.51,1.08A6.91,6.91,0,0,1,307.63,213.65Z" transform="translate(-247.98 -158.67)"/>
          <path class="cls-18" d="M311.82,219.19a9.77,9.77,0,0,1-2.84.13c-.87-.12,1.32-.06,1.89-.27S311.35,219.3,311.82,219.19Z" transform="translate(-247.98 -158.67)"/>
          <path class="cls-17" d="M305.2,232c-1,.62-1.25,1.91-1.62,3.11C302.26,234.57,303.58,231.69,305.2,232Z" transform="translate(-247.98 -158.67)"/>
          <path class="cls-17" d="M315.33,232.16c0-.13.17-.11.27-.14a2.13,2.13,0,0,1,1.08.41c.63.55,1.14,2.25.27,2.7C316.52,234.49,316.42,232.57,315.33,232.16Z" transform="translate(-247.98 -158.67)"/>
          <path class="cls-17" d="M324.39,232.56c.56-.4,1.47,1.17.53,1.49C324.65,233.65,324.82,232.8,324.39,232.56Z" transform="translate(-247.98 -158.67)"/>
          <path class="cls-15" d="M294.39,201c-.29.25-1,.08-1.22.4,2.21,1.68,5.29,3.6,5.41,7,.06,1.72-1,3.35-.68,5.54,0,.57.57-.09.68.27a2.45,2.45,0,0,0,.95,2.3c.28.06.25-.2.26-.41a21.66,21.66,0,0,1,1.9,1.35c0,2.93-1.52,4.34-2,6.76-3.72-1.83-6.7,2.34-4.6,5.54-.94,1.21-2.31,2-3,3.51.36.08,1.16-.55,1.62-.81-.19,1-1.27,3.45-.27,4.86.38-.07.25-.65.41-.94.47,1.23.88,2.54,2,3.11.31-.12,0-.7-.14-.82,1.39,1,2.92,3,5.81,3,.12-.27-.67-.77-1.08-1,1.58.11,4,1.45,6.08.68a2.06,2.06,0,0,0-1.08-.41,16.68,16.68,0,0,0,8.92-2.43c-.1-.31-.76,0-1.08-.13.84-.29,1.77-.48,2.56-.82a38.59,38.59,0,0,0-5-.94c.05-.19.34-.12.54-.14-.24-.52-1-.49-1.75-.54a2.49,2.49,0,0,0,.54-1.76,3.91,3.91,0,0,1,.27,1.36c1.95,1.36,5.27,0,7.29-.27,2.89-.41,8.22.83,8.24-1.9,0-1-.93-1.44-1.89-1.75.67-1.19,2-2.46,2-4.33,0-2.5-2.49-4.3-5.27-3.1-.57-2.36-2.08-3.78-2-6.76.58-.4,1.55-1.69,2-.94a2.59,2.59,0,0,0,1.08-2.44c.25-.12.45.41.54,0,.57-2.15-.73-3.89-.67-5.67.11-3.37,3.34-5.2,5.4-7-.14-.31-.62-.27-1.08-.27V201h1.22v40.8H292V201Z" transform="translate(-247.98 -158.67)"/>
          <path class="cls-17" d="M317.9,202.3a27.62,27.62,0,0,1,5.94-.68c-1.28.66-2.66,1.21-3.37,2.44C320.39,203.17,318.91,202.68,317.9,202.3Z" transform="translate(-247.98 -158.67)"/>
          <path class="cls-16" d="M321,206.35c.07-.39.21.21.4.14.42-.66-.21-1.56-.54-2.3a7.43,7.43,0,0,1,5.13-2.57,11,11,0,0,0-4.45,5.68C321.28,207.07,321.33,206.52,321,206.35Z" transform="translate(-247.98 -158.67)"/>
          <path class="cls-17" d="M319.12,203.52c.56.38,1.1.78,1.62,1.21,0,.28-.4,0-.41-.13-.31.27.63.45.54.94-.28,0-.26-.36-.54-.4a27.88,27.88,0,0,1,1.75,8.37c-.78.2-.37,1.61-.8,2.16-.34-.13.18-.51,0-.94-.57.65-1,1.44-1.89,1.76.22-.37.57-.6.81-1a17.86,17.86,0,0,1-8.79,3.24,12.12,12.12,0,0,0,6.89-1.48c0,4.41,4.21,9.68.68,13.64.09.3.45-.25.54-.4.42.22-.28.43-.27.67a6.71,6.71,0,0,0,1.76-6.62c4.59-1.82,5.34,4.45,2.7,6.35-.63.06-.87-.26-1.35,0,.13.22.57.15.81.27-.28.31-1.13,0-1.62.14,1.57.36,3.19.67,2.84,3a5.14,5.14,0,0,1-1.49.27c-.12-1.42-.4-2.66-1.76-2.84a2.5,2.5,0,0,1,1.35,3c-1.44.18-3.25.26-4.46.28.17-2.24-.79-3.35-2.56-3.65-.1-1.12-.36-2.08-.41-3.25.44-.82,1.3-1.22,1.22-2.56a6.54,6.54,0,0,1-1.08,1.62c-.19,0-.12-.34-.14-.54a8.38,8.38,0,0,0-.27,4.86,4,4,0,0,0-1.75,1.35c.66-.14,1.11-.5,1.75-.67,1,.51,1.33,1.64,1.49,3a1.5,1.5,0,0,1-1.22.41,2.74,2.74,0,0,0-1.21-2.71,2.73,2.73,0,0,1,.54,2.57,6.62,6.62,0,0,1-3.38-.13c-.38-2.87-.33-6.16-.95-8.79-.24,3-.14,6.26-.67,8.92a10.36,10.36,0,0,1-3.38,0,2.81,2.81,0,0,1,.54-2.43c-.56.12-1.27,1.25-1.08,2.57-.62.12-.77-.23-1.22-.27,0-1.5.43-2.63,1.49-3.11a7.76,7.76,0,0,1,1.49.67c0-.45-.94-1.13-1.62-1.35a9.22,9.22,0,0,0-.14-5c-.3,0-.06.48-.14.68-.36-.5-.91-.8-.94-1.62a2.2,2.2,0,0,0,1.08,2.43,24.37,24.37,0,0,1-.54,3.38A2.9,2.9,0,0,0,302.5,235a18.7,18.7,0,0,1-4.6-.41c0-1.44.26-2.54,1.49-2.7-1.25-.3-1.77,1.29-1.76,2.7a5,5,0,0,1-1.48-.27c-.53-1.91,1-2.87,2.83-2.84-.27-.31-1.12,0-1.62-.13,0-.3.34-.29.68-.27-.17-.57-.73-.05-1.22-.14-2.73-1.93-2-8.09,2.71-6.35a6.78,6.78,0,0,0,1.62,6.62c.29-.09-.26-.45-.41-.54.12-.37.3.31.54.27a9.2,9.2,0,0,1-1.22-5.13c.29-3.05,2.39-5.17,2.17-8.51a13.57,13.57,0,0,0,6.75,1.62c-3.14-.82-6.56-1.37-8.51-3.38-.14.16.4.77.68,1-.59-.09-1.48-1.05-1.9-1.76-.36.12.19.42,0,.81-.49-.47-.25-2.17-.81-2.16a22.05,22.05,0,0,1,1.76-8.11c0-.28-.42.19-.54.27-.15-.11.25-.82.67-.81-.85,0,.43-1,1.09-1.08-.14-.38-.58,0-.81,0,4.9-2.14,14.2-1.92,19.31-.13C319.76,203.93,319.46,203.37,319.12,203.52ZM311,208.78c-.47-1.07-.1-2.76-.14-3.64C310.46,206.21,310.28,207.92,311,208.78Zm-1.35-.54c-.54,1.07.15.32.26-.54a3.5,3.5,0,0,0-.4-2.43A14.13,14.13,0,0,1,309.66,208.24Zm-9.46,2.44c.55,0,.94-.24,1.49-.28.5,2.67,4.83,2.65,5.94.55.11.28,1,.39,1.35.27C307.28,209.7,302.17,208.73,300.2,210.68Zm11.35.67c.66-.25,1.34,0,1.35-.4,1.06,2.24,5.41,2,5.94-.55.54-.07,1.1.52,1.49.14C318.14,208.94,313.07,209.52,311.55,211.35Zm-2.7,1.22v.4c.24.44,1.06.29,1.21.81-1.35.4-2.85.66-3.37,1.89,1.6-1.5,5.44-1.59,7,0-.46-1.29-2-1.51-3.38-1.89.21-.6,1.66-.37,1.22-1.21A5.48,5.48,0,0,0,308.85,212.57Zm8,.27c-.9.42-2.25-.16-2.7-.14C314.69,213,316.2,213.43,316.82,212.84Zm-13.38,0a2.68,2.68,0,0,0,2.7-.14A5.74,5.74,0,0,1,303.44,212.84Zm1.89.54c-.41.08-1.16-.18-1.35.13C304.39,213.43,305.15,213.69,305.33,213.38Zm11.49,0c-.5.08-1.35-.18-1.62.13C315.7,213.43,316.54,213.69,316.82,213.38Zm-12.7,1.35c1.18-.35,2.61-.45,3.51-1.08A6.91,6.91,0,0,0,304.12,214.73Zm12.29,0c.37,0,.19,0-.13-.14a5.92,5.92,0,0,0-3.51-.81C314.61,214.17,315.32,214.67,316.41,214.73ZM304,216.49c1-.88,2.39-1.4,3.38-2.3A6.31,6.31,0,0,0,304,216.49Zm12.7-.14c-1.13-.62-2.15-2.08-3.51-2C314.36,214.89,315.59,216.14,316.68,216.35Zm-7.56.68c.51.05,1.14-.48.94-.68C309.84,216.67,309.37,216.73,309.12,217Zm2.29,0c-.39-.06-.86-.75-1.08-.54C310.54,216.73,311,217.42,311.41,217Zm-1.75.54c.38-.45.84-.11,1.35,0C311.08,216.85,309.21,217.17,309.66,217.57Zm1.21,1.48c-.57.21-2.76.15-1.89.27a9.77,9.77,0,0,0,2.84-.13C311.35,219.3,311.3,219,310.87,219.05Z" transform="translate(-247.98 -158.67)"/>
          <path class="cls-18" d="M294.39,201h2.84c2.28.32,4.8.42,6.89.94a43.14,43.14,0,0,1,12.43,0,59.68,59.68,0,0,1,6.75-.94h2.84v.13c.46,0,.94,0,1.08.27-2.06,1.83-5.29,3.66-5.4,7-.06,1.78,1.24,3.52.67,5.67-.09.41-.29-.12-.54,0a2.59,2.59,0,0,1-1.08,2.44c-.48-.75-1.45.54-2,.94,0,3,1.46,4.4,2,6.76,2.78-1.2,5.3.6,5.27,3.1,0,1.87-1.36,3.14-2,4.33,1,.31,1.9.75,1.89,1.75,0,2.73-5.35,1.49-8.24,1.9-2,.28-5.34,1.63-7.29.27a3.91,3.91,0,0,0-.27-1.36,2.49,2.49,0,0,1-.54,1.76c.71.05,1.51,0,1.75.54-.2,0-.49,0-.54.14a38.59,38.59,0,0,1,5,.94c-.79.34-1.72.53-2.56.82.32.08,1-.18,1.08.13a16.68,16.68,0,0,1-8.92,2.43,2.06,2.06,0,0,1,1.08.41c-2.09.77-4.5-.57-6.08-.68.41.18,1.2.68,1.08,1-2.89,0-4.42-2-5.81-3,.13.12.45.7.14.82-1.15-.57-1.56-1.88-2-3.11-.16.29,0,.87-.41.94-1-1.41.08-3.88.27-4.86-.46.26-1.26.89-1.62.81.66-1.5,2-2.3,3-3.51-2.1-3.2.88-7.37,4.6-5.54.51-2.42,2-3.83,2-6.76a21.66,21.66,0,0,0-1.9-1.35c0,.21,0,.47-.26.41a2.45,2.45,0,0,1-.95-2.3c-.11-.36-.64.3-.68-.27-.28-2.19.74-3.82.68-5.54-.12-3.43-3.2-5.35-5.41-7C293.4,201,294.1,201.2,294.39,201Zm25.53,2.57c-5.11-1.79-14.41-2-19.31.13.23,0,.67-.38.81,0-.66.1-1.94,1.1-1.09,1.08-.42,0-.82.7-.67.81.12-.08.5-.55.54-.27a22.05,22.05,0,0,0-1.76,8.11c.56,0,.32,1.69.81,2.16.19-.39-.36-.69,0-.81.42.71,1.31,1.67,1.9,1.76-.28-.18-.82-.79-.68-1,1.95,2,5.37,2.56,8.51,3.38a13.57,13.57,0,0,1-6.75-1.62c.22,3.34-1.88,5.46-2.17,8.51a9.2,9.2,0,0,0,1.22,5.13c-.24,0-.42-.64-.54-.27.15.09.7.45.41.54a6.78,6.78,0,0,1-1.62-6.62c-4.71-1.74-5.44,4.42-2.71,6.35.49.09,1.05-.43,1.22.14-.34,0-.66,0-.68.27.5.08,1.35-.18,1.62.13-1.85,0-3.36.93-2.83,2.84a5,5,0,0,0,1.48.27c0-1.41.51-3,1.76-2.7-1.23.16-1.53,1.26-1.49,2.7a18.7,18.7,0,0,0,4.6.41,2.9,2.9,0,0,1,2.43-3.65,24.37,24.37,0,0,0,.54-3.38,2.2,2.2,0,0,1-1.08-2.43c0,.82.58,1.12.94,1.62.08-.2-.16-.7.14-.68a9.22,9.22,0,0,1,.14,5c.68.22,1.62.9,1.62,1.35a7.76,7.76,0,0,0-1.49-.67c-1.06.48-1.45,1.61-1.49,3.11.45,0,.6.39,1.22.27-.19-1.32.52-2.45,1.08-2.57a2.81,2.81,0,0,0-.54,2.43,10.36,10.36,0,0,0,3.38,0c.53-2.66.43-6,.67-8.92.62,2.63.57,5.92.95,8.79a6.62,6.62,0,0,0,3.38.13,2.73,2.73,0,0,0-.54-2.57,2.74,2.74,0,0,1,1.21,2.71,1.5,1.5,0,0,0,1.22-.41c-.16-1.33-.52-2.46-1.49-3-.64.17-1.09.53-1.75.67a4,4,0,0,1,1.75-1.35,8.38,8.38,0,0,1,.27-4.86c0,.2-.05.5.14.54a6.54,6.54,0,0,0,1.08-1.62c.08,1.34-.78,1.74-1.22,2.56.05,1.17.31,2.13.41,3.25,1.77.3,2.73,1.41,2.56,3.65,1.21,0,3-.1,4.46-.28a2.5,2.5,0,0,0-1.35-3c1.36.18,1.64,1.42,1.76,2.84a5.14,5.14,0,0,0,1.49-.27c.35-2.3-1.27-2.61-2.84-3,.49-.09,1.34.17,1.62-.14-.24-.12-.68-.05-.81-.27.48-.26.72.06,1.35,0,2.64-1.9,1.89-8.17-2.7-6.35a6.71,6.71,0,0,1-1.76,6.62c0-.24.69-.45.27-.67-.09.15-.45.7-.54.4,3.53-4-.7-9.23-.68-13.64a12.12,12.12,0,0,1-6.89,1.48,17.86,17.86,0,0,0,8.79-3.24c-.24.35-.59.58-.81,1,.9-.32,1.32-1.11,1.89-1.76.18.43-.34.81,0,.94.43-.55,0-2,.8-2.16a27.88,27.88,0,0,0-1.75-8.37c.28,0,.26.36.54.4.09-.49-.85-.67-.54-.94,0,.1.45.41.41.13-.52-.43-1.06-.83-1.62-1.21C319.46,203.37,319.76,203.93,319.92,203.52Zm-21.07,3.64c.49,0,.31-.59.54-.81-.25-.13-.45.41-.54,0a4.85,4.85,0,0,1,.81-2.16c-1.3-1.18-3-2.7-5.27-2.43A9.34,9.34,0,0,1,298.85,207.16Zm1.35-3.24c-.11-1,1.74-1.14,2.43-1.76-2-.08-4.1-.76-6.08-.4C298.25,201.91,299.26,203.47,300.2,203.92Zm20.27.14c.71-1.23,2.09-1.78,3.37-2.44a27.62,27.62,0,0,0-5.94.68C318.91,202.68,320.39,203.17,320.47,204.06Zm1.08,3.24a11,11,0,0,1,4.45-5.68,7.43,7.43,0,0,0-5.13,2.57c.33.74,1,1.64.54,2.3-.19.07-.33-.53-.4-.14C321.33,206.52,321.28,207.07,321.55,207.3ZM300.2,240.94a3.71,3.71,0,0,1-1.22-1.89,9.33,9.33,0,0,0,5.41,1.89c-.57-.2-1.54-.71-1.49-1.08a13.61,13.61,0,0,0,9.32-1,3.4,3.4,0,0,1-1.62-.4,23.45,23.45,0,0,0,3.38-.95c-1.86-.43-4.07-.52-5.94-.94.08-.19.51,0,.54-.27-1.55-.11-3.35.25-4.46.13,0-.31.39-.15.4-.4-1.19.06-2.79.44-3.91.13.41-.17,1-.2,1.08-.67-2.5-.22-7.68.07-7.16-2.57.17-.92,1.29-1,2-1.62-.41-.22-.84-.42-.95-.95a5.74,5.74,0,0,0-1.75,1.49,8.92,8.92,0,0,1,1.21-.27,5,5,0,0,0-1.35,3.92c.05-.32.14-.59.41-.68a7.3,7.3,0,0,0,.94,3.11c.09-.41-.17-1.17.14-1.35A8.16,8.16,0,0,0,300.2,240.94Zm3.38-5.81c.37-1.2.66-2.49,1.62-3.11C303.58,231.69,302.26,234.57,303.58,235.13Zm13.37,0c.87-.45.36-2.15-.27-2.7a2.13,2.13,0,0,0-1.08-.41c-.1,0-.27,0-.27.14C316.42,232.57,316.52,234.49,317,235.13Zm-21.89-1.62c.18.23.29.53.68.54-.21-.8.43-1.46.27-1.76C295.72,232.72,295.09,232.82,295.06,233.51Zm29.86.54c.94-.32,0-1.89-.53-1.49C324.82,232.8,324.65,233.65,324.92,234.05Zm-22.15,1.76c0-.39.92.11.94-.27C303.28,235.34,302.49,235.46,302.77,235.81Z" transform="translate(-247.98 -158.67)"/>
          <path class="cls-18" d="M309.52,205.27a3.5,3.5,0,0,1,.4,2.43c-.11.86-.8,1.61-.26.54A14.13,14.13,0,0,0,309.52,205.27Z" transform="translate(-247.98 -158.67)"/>
          <path class="cls-18" d="M314.12,212.7c.45,0,1.8.56,2.7.14C316.2,213.43,314.69,213,314.12,212.7Z" transform="translate(-247.98 -158.67)"/>
          <path class="cls-18" d="M306.14,212.7a2.68,2.68,0,0,1-2.7.14A5.74,5.74,0,0,0,306.14,212.7Z" transform="translate(-247.98 -158.67)"/>
          <path class="cls-18" d="M312.77,213.78a5.92,5.92,0,0,1,3.51.81c.32.18.5.16.13.14C315.32,214.67,314.61,214.17,312.77,213.78Z" transform="translate(-247.98 -158.67)"/>
          <path class="cls-18" d="M307.36,214.19c-1,.9-2.36,1.42-3.38,2.3A6.31,6.31,0,0,1,307.36,214.19Z" transform="translate(-247.98 -158.67)"/>
          <path class="cls-18" d="M313.17,214.32c1.36,0,2.38,1.41,3.51,2C315.59,216.14,314.36,214.89,313.17,214.32Z" transform="translate(-247.98 -158.67)"/>
          <path class="cls-18" d="M310.06,216.35c.2.2-.43.73-.94.68C309.37,216.73,309.84,216.67,310.06,216.35Z" transform="translate(-247.98 -158.67)"/>
          <path class="cls-18" d="M310.33,216.49c.22-.21.69.48,1.08.54C311,217.42,310.54,216.73,310.33,216.49Z" transform="translate(-247.98 -158.67)"/>
          <path class="cls-18" d="M311,217.57c-.51-.11-1-.45-1.35,0C309.21,217.17,311.08,216.85,311,217.57Z" transform="translate(-247.98 -158.67)"/>
          <path class="cls-17" d="M295.2,236.62c-.31.18-.05.94-.14,1.35a7.3,7.3,0,0,1-.94-3.11c-.27.09-.36.36-.41.68a5,5,0,0,1,1.35-3.92,8.92,8.92,0,0,0-1.21.27,5.74,5.74,0,0,1,1.75-1.49c.11.53.54.73.95.95-.73.63-1.85.7-2,1.62-.52,2.64,4.66,2.35,7.16,2.57-.12.47-.67.5-1.08.67,1.12.31,2.72-.07,3.91-.13,0,.25-.44.09-.4.4,1.11.12,2.91-.24,4.46-.13,0,.25-.46.08-.54.27,1.87.42,4.08.51,5.94.94a23.45,23.45,0,0,1-3.38.95,3.4,3.4,0,0,0,1.62.4,13.61,13.61,0,0,1-9.32,1c0,.37.92.88,1.49,1.08a9.33,9.33,0,0,1-5.41-1.89,3.71,3.71,0,0,0,1.22,1.89A8.16,8.16,0,0,1,295.2,236.62Z" transform="translate(-247.98 -158.67)"/>
          <path class="cls-15" d="M296,232.29c.16.3-.48,1-.27,1.76-.39,0-.5-.31-.68-.54C295.09,232.82,295.72,232.72,296,232.29Z" transform="translate(-247.98 -158.67)"/>
          <path class="cls-15" d="M303.71,235.54c0,.38-.92-.12-.94.27C302.49,235.46,303.28,235.34,303.71,235.54Z" transform="translate(-247.98 -158.67)"/>
        </g>
        <rect class="cls-5" x="43.37" y="42.27" width="36.59" height="40.81"/>
      </g>
      <rect x="47" y="76.13" width="0.87" height="3.15"/>
      <polygon points="52.98 76.57 51.57 81.13 52.54 82.44 52.54 80.05 52.98 76.57"/>
      <polygon points="55.91 88.74 57.43 84.17 56.24 84.07 55.91 88.74"/>
      <polygon points="56.35 76.68 56.35 79.61 57.22 79.18 57.11 77 56.35 76.68"/>
      <path d="M309.76,240.89c-.54.22-.54,2.5-.76,2.83a29.72,29.72,0,0,0-.54,3.91L310,243.5Z" transform="translate(-247.98 -158.67)"/>
      <polygon points="66.13 79.07 65.36 82.44 66.34 83.31 66.56 85.48 66.89 80.92 66.13 79.07"/>
      <polygon points="70.8 75.59 69.82 77.66 70.47 81.13 71.23 78.85 70.58 77.22 70.8 75.59"/>
      <path d="M325,245.46a14.15,14.15,0,0,0,1.62,2.5,9.66,9.66,0,0,1,1.52,1.73l-.86.65-1.63-1.84Z" transform="translate(-247.98 -158.67)"/>
      <path d="M291.94,248.5l-2.17,1.63s-.22,1.08.11,1.08,2-1.52,2-1.52Z" transform="translate(-247.98 -158.67)"/>
      <text class="cls-20" transform="translate(49.02 102.11)">SHA256</text>
    </g>
    <g>
      <path class="cls-9" d="M289.66,289l-3-3.31c5.52-1.7,9.51-.41,12.72.64,2.39.77,4.11,1.33,6.48.82a6.74,6.74,0,0,0,4.21-2.51c1.26-1.38,2.68-2.95,7.49-3.42l2.34,3.44c-3.81.36-4.81,1.47-6,2.74a8.69,8.69,0,0,1-5.35,3.12c-3.44.75-6.36-.2-8.93-1C296.8,288.55,294.05,287.66,289.66,289Z" transform="translate(-247.98 -158.67)"/>
      <path class="cls-9" d="M295.42,292.16l-2.95-3.31c5.52-1.7,9.51-.41,12.72.63,2.39.78,4.11,1.34,6.48.83a6.71,6.71,0,0,0,4.21-2.51c1.26-1.38,2.69-2.95,7.49-3.42l2.35,3.44c-3.81.37-4.82,1.47-6,2.75a8.74,8.74,0,0,1-5.35,3.11c-3.44.74-6.35-.2-8.92-1C302.56,291.7,299.81,290.81,295.42,292.16Z" transform="translate(-247.98 -158.67)"/>
      <path class="cls-9" d="M294.14,295.67l-2.95-3.31c5.52-1.7,9.52-.4,12.73.64,2.38.77,4.11,1.34,6.48.82a6.72,6.72,0,0,0,4.2-2.51c1.26-1.38,2.69-2.95,7.5-3.41l2.34,3.43c-3.81.37-4.81,1.47-6,2.75a8.79,8.79,0,0,1-5.34,3.12c-3.45.74-6.36-.21-8.93-1C301.29,295.21,298.54,294.32,294.14,295.67Z" transform="translate(-247.98 -158.67)"/>
      <path class="cls-9" d="M300,298.79l-2.95-3.31c5.52-1.7,9.52-.4,12.73.63,2.38.78,4.11,1.34,6.47.83a6.74,6.74,0,0,0,4.22-2.51c1.26-1.38,2.68-2.95,7.49-3.42l2.34,3.44c-3.81.36-4.81,1.47-6,2.75a8.71,8.71,0,0,1-5.34,3.11c-3.44.75-6.36-.2-8.93-1C307.15,298.33,304.4,297.44,300,298.79Z" transform="translate(-247.98 -158.67)"/>
      <path class="cls-9" d="M290.56,285.39l-3-3.31c5.52-1.7,9.52-.4,12.73.64,2.38.77,4.11,1.33,6.48.82A6.77,6.77,0,0,0,311,281c1.26-1.38,2.68-2.95,7.49-3.42l2.34,3.44c-3.81.36-4.81,1.47-6,2.74a8.71,8.71,0,0,1-5.34,3.13c-3.44.74-6.36-.21-8.93-1.05C297.69,284.93,295,284,290.56,285.39Z" transform="translate(-247.98 -158.67)"/>
      <polygon points="42.76 123.76 46.79 123.4 48.54 124.34 45.92 124.17 42.76 123.76"/>
      <polygon points="53.05 125.81 57.35 127.43 60.13 126.55 56.61 126.09 53.05 125.81"/>
      <polygon points="46.03 127.19 45.02 127.45 42.3 128.12 45.48 128.36 46.03 127.19"/>
      <polygon points="54.74 130.98 51.72 130.82 50.48 131.66 53.55 131.35 57.48 132.93 59.95 132.89 56.55 131.57 54.74 130.98"/>
      <path d="M320.57,289.32c-.77.07-2.73.52-2.73.52l-1.5,2.46,2.11-1.49,3.29-.46Z" transform="translate(-247.98 -158.67)"/>
      <polygon points="74.14 136.68 72.75 138.44 69.57 139.45 71.35 140.21 73.97 139.13 74.14 136.68"/>
      <polygon points="60.85 138.31 57.77 137.38 55.41 137.96 58.22 138.15 60.85 138.31"/>
      <polygon points="50.62 134.51 48.88 134.81 51.31 134.95 50.62 134.51"/>
      <polygon class="cls-16" points="64.87 123.98 62.7 124.58 60.13 126.55 63.66 125.77 64.87 123.98"/>
      <polygon class="cls-16" points="67.64 134.6 64.78 136 64.47 136.84 67.22 136.14 67.64 134.6"/>
      <polygon class="cls-16" points="79.88 133.71 76.68 134.89 76.45 136.45 79.1 135.2 79.88 133.71"/>
      <polygon class="cls-16" points="48.69 133.55 46.52 135.39 45.75 134.23 48.69 133.55"/>
      <polygon class="cls-19" points="61.77 129.59 57.84 129.26 59.96 130.24 61.77 129.59"/>
      <path class="cls-19" d="M313.6,298l-3.66-.83s1.89,1.31,2.42,1.56a27.13,27.13,0,0,0,3.71.48Z" transform="translate(-247.98 -158.67)"/>
      <polygon class="cls-19" points="49.97 130 46.73 130.12 47.99 131.87 49.97 130"/>
      <path class="cls-19" d="M317.34,279.17l-3.62,1.48s-1.45,2.11-.87,2a21.66,21.66,0,0,0,3.1-1.73Z" transform="translate(-247.98 -158.67)"/>
    </g>
    <path d="M357.85,365.74v1.71h.83c.08,0,.14,0,.16,0a.15.15,0,0,1,.06.13.14.14,0,0,1-.06.11s-.08,0-.16,0h-2a.29.29,0,0,1-.17,0,.15.15,0,0,1,0-.11.17.17,0,0,1,0-.13.29.29,0,0,1,.17,0h.84v-1.71l-1.42-2.12h-.19a.23.23,0,0,1-.16-.05.17.17,0,0,1-.05-.12.16.16,0,0,1,.05-.11.23.23,0,0,1,.16,0h.9a.21.21,0,0,1,.15,0,.13.13,0,0,1,.05.11.13.13,0,0,1-.05.12.21.21,0,0,1-.15.05h-.33l1.2,1.8,1.19-1.8h-.33a.23.23,0,0,1-.16-.05.17.17,0,0,1-.05-.12.16.16,0,0,1,.05-.11.23.23,0,0,1,.16,0h.89a.22.22,0,0,1,.16,0,.14.14,0,0,1,.06.11.14.14,0,0,1-.06.12.22.22,0,0,1-.16.05h-.2Zm-3.78,2v-.47a2.08,2.08,0,0,1-1.43.59,1,1,0,0,1-.72-.25,1.11,1.11,0,0,1-.32-.78v-2.07h-.42a.3.3,0,0,1-.18-.05.17.17,0,0,1,0-.12.15.15,0,0,1,0-.11.24.24,0,0,1,.18-.06h.74v2.41a.66.66,0,0,0,.21.51.69.69,0,0,0,.5.2,2,2,0,0,0,1.44-.71v-2.07h-.59a.23.23,0,0,1-.17-.05.18.18,0,0,1-.05-.12.16.16,0,0,1,.05-.11.19.19,0,0,1,.17-.06h.91v3h.27a.22.22,0,0,1,.16,0,.15.15,0,0,1,.06.13.14.14,0,0,1-.06.11.22.22,0,0,1-.16,0Zm-6.7-4.48v1.57a2.57,2.57,0,0,1,.54-.17,2.27,2.27,0,0,1,.5-.06,1.33,1.33,0,0,1,1,.42,1.53,1.53,0,0,1,.41,1.12,1.72,1.72,0,0,1-.45,1.24,1.52,1.52,0,0,1-1.15.47,2,2,0,0,1-.88-.2,2.48,2.48,0,0,1-.55-.36c-.09-.07-.14-.14-.14-.19a.17.17,0,0,1,0-.13.17.17,0,0,1,.11,0,.21.21,0,0,1,.15.07,1.83,1.83,0,0,0,1.26.53,1.23,1.23,0,0,0,.92-.38,1.41,1.41,0,0,0,.37-1,1.18,1.18,0,0,0-.32-.87,1,1,0,0,0-.8-.34,2.23,2.23,0,0,0-1,.26.5.5,0,0,1-.17.07.17.17,0,0,1-.12,0,.23.23,0,0,1,0-.13V363h2.24a.25.25,0,0,1,.17,0,.12.12,0,0,1,0,.11.16.16,0,0,1,0,.12.25.25,0,0,1-.17,0Zm-4.49,1.16h1.75a.18.18,0,0,1,.16.06.14.14,0,0,1,.06.11.16.16,0,0,1-.06.12.22.22,0,0,1-.16.05h-1.75v2.14a.58.58,0,0,0,.23.46,1,1,0,0,0,.65.18,3.14,3.14,0,0,0,.71-.09,2.74,2.74,0,0,0,.59-.22.24.24,0,0,1,.13-.06.12.12,0,0,1,.1.06.14.14,0,0,1,0,.11.16.16,0,0,1,0,.11,1.69,1.69,0,0,1-.6.27,2.9,2.9,0,0,1-.9.14,1.48,1.48,0,0,1-.9-.25.88.88,0,0,1-.33-.71v-2.14H342a.26.26,0,0,1-.17-.05.17.17,0,0,1,0-.12.15.15,0,0,1,0-.11.22.22,0,0,1,.17-.06h.6v-.95a.17.17,0,0,1,.05-.15.11.11,0,0,1,.11-.06.14.14,0,0,1,.12.06.21.21,0,0,1,0,.15Zm-2.47,1.67a1.4,1.4,0,0,0-.42-1,1.28,1.28,0,0,0-1-.43,1.32,1.32,0,0,0-1,.43,1.39,1.39,0,0,0-.41,1,1.42,1.42,0,0,0,.41,1,1.35,1.35,0,0,0,1,.42,1.31,1.31,0,0,0,1-.42A1.43,1.43,0,0,0,340.41,366.12ZM337.62,363v2.13a1.72,1.72,0,0,1,1.41-.76,1.65,1.65,0,0,1,1.21.51,1.82,1.82,0,0,1,0,2.53,1.6,1.6,0,0,1-1.19.51,1.71,1.71,0,0,1-1.41-.75v.63h-.75a.3.3,0,0,1-.18,0,.15.15,0,0,1,0-.11.17.17,0,0,1,0-.13.3.3,0,0,1,.18,0h.43v-4.16h-.43a.3.3,0,0,1-.18,0,.16.16,0,0,1,0-.12.12.12,0,0,1,0-.11.3.3,0,0,1,.18,0Zm-2.9,3.13v-2.81h-.16l-1.63,2.81Zm0,.32h-2.13v-.36l1.79-3.09H335v3.13h.27a.25.25,0,0,1,.17,0,.13.13,0,0,1,.06.12.14.14,0,0,1-.06.11.25.25,0,0,1-.17,0H335v1h.27a.25.25,0,0,1,.17,0,.15.15,0,0,1,.06.13.14.14,0,0,1-.06.11.25.25,0,0,1-.17,0h-1.19a.3.3,0,0,1-.18,0,.15.15,0,0,1,0-.11.17.17,0,0,1,0-.13.3.3,0,0,1,.18,0h.6Zm-5.29,1.35-1.49-3h-.1a.26.26,0,0,1-.17-.05.18.18,0,0,1-.05-.12.16.16,0,0,1,0-.09l.06-.06.13,0h.89a.16.16,0,0,1,.15.06.14.14,0,0,1,.06.11.16.16,0,0,1-.06.12.19.19,0,0,1-.15.05h-.44l1.32,2.62,1.29-2.62h-.43a.26.26,0,0,1-.17-.05.17.17,0,0,1,0-.12.15.15,0,0,1,0-.11.22.22,0,0,1,.17-.06h.88a.16.16,0,0,1,.15.06.14.14,0,0,1,.06.11.17.17,0,0,1,0,.1.18.18,0,0,1-.07,0,.67.67,0,0,1-.21,0l-2,4.14h.5a.25.25,0,0,1,.17,0,.17.17,0,0,1,0,.11.16.16,0,0,1,0,.12.25.25,0,0,1-.17.05h-1.85a.29.29,0,0,1-.17,0,.17.17,0,0,1,0-.13.17.17,0,0,1,0-.11.29.29,0,0,1,.17,0h1Zm-3.62,0h-.4l-.71-2.06-.7,2.06h-.41l-.65-3h-.16a.3.3,0,0,1-.18-.05.17.17,0,0,1,0-.12.15.15,0,0,1,0-.11.24.24,0,0,1,.18-.06h.88a.2.2,0,0,1,.16.06.13.13,0,0,1,.05.11.15.15,0,0,1-.05.12.23.23,0,0,1-.16.05h-.41l.57,2.53.69-2h.38l.71,2,.55-2.53h-.41a.25.25,0,0,1-.17-.05.18.18,0,0,1-.05-.12.16.16,0,0,1,.05-.11.21.21,0,0,1,.17-.06h.88a.18.18,0,0,1,.16.06.14.14,0,0,1,.06.11.16.16,0,0,1-.06.12.22.22,0,0,1-.16.05h-.15Zm-5.8,0-1.5-3h-.09a.26.26,0,0,1-.17-.05.18.18,0,0,1-.05-.12.16.16,0,0,1,0-.09.17.17,0,0,1,.06-.06l.13,0h.89a.18.18,0,0,1,.15.06.14.14,0,0,1,.06.11.16.16,0,0,1-.06.12.21.21,0,0,1-.15.05h-.44l1.32,2.62,1.29-2.62h-.43a.26.26,0,0,1-.17-.05.18.18,0,0,1-.05-.12.16.16,0,0,1,.05-.11.22.22,0,0,1,.17-.06h.88a.18.18,0,0,1,.15.06.14.14,0,0,1,.06.11.17.17,0,0,1,0,.1.18.18,0,0,1-.07,0,.67.67,0,0,1-.21,0l-2,4.14h.5a.25.25,0,0,1,.17,0,.17.17,0,0,1,0,.11.16.16,0,0,1,0,.12.25.25,0,0,1-.17.05h-1.85a.27.27,0,0,1-.17,0,.17.17,0,0,1,0-.13.17.17,0,0,1,0-.11.27.27,0,0,1,.17,0h1ZM316.44,365a2.55,2.55,0,0,0-.14-.84,2.18,2.18,0,0,0-.29-.63.73.73,0,0,0-.24-.22.86.86,0,0,0-.49-.15,1,1,0,0,0-.85.56,2.6,2.6,0,0,0-.3,1.28v.71a3,3,0,0,0,.12.86,2.79,2.79,0,0,0,.29.62,1.1,1.1,0,0,0,.25.23.93.93,0,0,0,.5.13.92.92,0,0,0,.83-.55,2.57,2.57,0,0,0,.32-1.29Zm.32,0v.79a2.51,2.51,0,0,1-.5,1.64,1.17,1.17,0,0,1-1,.47,1.26,1.26,0,0,1-.55-.11,1.27,1.27,0,0,1-.42-.31,2.62,2.62,0,0,1-.24-.41,2.61,2.61,0,0,1-.27-1.28V365a2.57,2.57,0,0,1,.48-1.65,1.22,1.22,0,0,1,1-.48,1.18,1.18,0,0,1,.53.12,1.1,1.1,0,0,1,.42.31,1.55,1.55,0,0,1,.25.41,3.27,3.27,0,0,1,.19.5A3.12,3.12,0,0,1,316.76,365Zm-5,1.51a1,1,0,0,0-.34-.73,1.2,1.2,0,0,0-1.65,0,1,1,0,0,0-.32.72,1,1,0,0,0,.33.77,1.21,1.21,0,0,0,.82.31,1.19,1.19,0,0,0,.82-.31A1,1,0,0,0,311.73,366.49Zm-.09-2.3a1,1,0,0,0-.31-.72,1.07,1.07,0,0,0-.76-.3,1.06,1.06,0,0,0-.76.3,1,1,0,0,0-.3.72.88.88,0,0,0,.3.65,1.17,1.17,0,0,0,1.52,0A.89.89,0,0,0,311.64,364.19Zm-.4,1.09a1.46,1.46,0,0,1,.6.52,1.26,1.26,0,0,1,.2.68,1.34,1.34,0,0,1-.44,1,1.39,1.39,0,0,1-1,.41,1.45,1.45,0,0,1-1.05-.41,1.36,1.36,0,0,1-.43-1,1.26,1.26,0,0,1,.2-.68,1.49,1.49,0,0,1,.63-.52,1.51,1.51,0,0,1-.51-.43,1.09,1.09,0,0,1-.23-.68,1.27,1.27,0,0,1,.4-.92,1.37,1.37,0,0,1,1-.4,1.34,1.34,0,0,1,1,.4,1.25,1.25,0,0,1,.41.92,1.15,1.15,0,0,1-.22.68A1.83,1.83,0,0,1,311.24,365.28Zm-5.76-.83v.82a5,5,0,0,1,.93-.73,1.27,1.27,0,0,1,.58-.17.84.84,0,0,1,.54.21c.16.12.24.22.24.28a.21.21,0,0,1,0,.13.15.15,0,0,1-.11,0h-.07l-.1-.09a.83.83,0,0,0-.24-.18.45.45,0,0,0-.19-.05,1.09,1.09,0,0,0-.51.16,7.62,7.62,0,0,0-1,.83v1.76h1.42a.22.22,0,0,1,.16,0,.15.15,0,0,1,.06.13.14.14,0,0,1-.06.11.22.22,0,0,1-.16,0h-2.53a.24.24,0,0,1-.16,0,.13.13,0,0,1,0-.11.13.13,0,0,1,0-.12s.08,0,.16,0h.78v-2.67h-.59a.3.3,0,0,1-.18-.05.17.17,0,0,1,0-.12.15.15,0,0,1,0-.11.24.24,0,0,1,.18-.06Zm-5.27,3h1.17a1.29,1.29,0,0,0,.76-.26,1.74,1.74,0,0,0,.71-1.37v-.58a1.25,1.25,0,0,0-.1-.53,2.29,2.29,0,0,0-.39-.65,1.19,1.19,0,0,0-.4-.3,1.27,1.27,0,0,0-.58-.14h-1.17Zm-.33,0v-3.83h-.26a.28.28,0,0,1-.18-.05.17.17,0,0,1-.05-.12.16.16,0,0,1,.05-.11.28.28,0,0,1,.18,0h1.73a1.63,1.63,0,0,1,.73.17,1.41,1.41,0,0,1,.51.38,2.5,2.5,0,0,1,.47.77,1.87,1.87,0,0,1,.11.7v.45a2.16,2.16,0,0,1-.22.95,2.07,2.07,0,0,1-.73.81,1.51,1.51,0,0,1-.87.25h-1.73a.28.28,0,0,1-.18,0,.16.16,0,0,1-.05-.11.17.17,0,0,1,.05-.13.28.28,0,0,1,.18,0Zm-4.22-1.84v1.84h1.11a.25.25,0,0,1,.16,0,.17.17,0,0,1,.05.13.16.16,0,0,1-.05.11.25.25,0,0,1-.16,0h-1.86a.27.27,0,0,1-.17,0,.16.16,0,0,1-.05-.11.17.17,0,0,1,.05-.13.27.27,0,0,1,.17,0h.43v-3.83h-.43a.26.26,0,0,1-.17-.05.17.17,0,0,1-.05-.12.16.16,0,0,1,.06-.12.22.22,0,0,1,.16,0h3.54v1.11a.24.24,0,0,1,0,.16.17.17,0,0,1-.24,0,.24.24,0,0,1,0-.16v-.78h-2.47v1.67h1.15v-.37a.23.23,0,0,1,.05-.16.17.17,0,0,1,.12-.05.16.16,0,0,1,.11.05.24.24,0,0,1,0,.16V366a.3.3,0,0,1,0,.18.21.21,0,0,1-.11,0,.21.21,0,0,1-.12,0,.3.3,0,0,1-.05-.18v-.36Zm-2.47.51a1.36,1.36,0,0,0-.43-1,1.4,1.4,0,0,0-1-.44,1.44,1.44,0,0,0-1.05.44,1.39,1.39,0,0,0-.42,1,1.43,1.43,0,0,0,.42,1,1.46,1.46,0,0,0,1.05.42,1.42,1.42,0,0,0,1-.42A1.4,1.4,0,0,0,293.19,366.12Zm.34,0a1.69,1.69,0,0,1-.54,1.26,1.82,1.82,0,0,1-2.54,0,1.77,1.77,0,0,1,0-2.51,1.81,1.81,0,0,1,2.54,0A1.69,1.69,0,0,1,293.53,366.12Zm-5.44-2.68v-.15h-2.3v.28a.25.25,0,0,1-.05.17.12.12,0,0,1-.11,0,.14.14,0,0,1-.11,0,.25.25,0,0,1,0-.17V363h3v.51l-1.31,4.14a.2.2,0,0,1-.06.13.19.19,0,0,1-.1,0,.17.17,0,0,1-.12,0,.19.19,0,0,1,0-.11.52.52,0,0,1,0-.11Zm-4.72,1.22a.21.21,0,0,1,.05-.15.13.13,0,0,1,.11-.06.14.14,0,0,1,.12.06.22.22,0,0,1,0,.16v.55a.3.3,0,0,1,0,.18.16.16,0,0,1-.12,0,.14.14,0,0,1-.11,0,.21.21,0,0,1-.05-.15.46.46,0,0,0-.25-.37,1.35,1.35,0,0,0-.82-.22,1.43,1.43,0,0,0-.85.23.48.48,0,0,0-.22.36.44.44,0,0,0,.27.38,1.84,1.84,0,0,0,.7.17,3.48,3.48,0,0,1,.92.17,1.12,1.12,0,0,1,.56.37.79.79,0,0,1,.18.51.93.93,0,0,1-.39.73,1.82,1.82,0,0,1-1.16.31,2,2,0,0,1-1.25-.37.51.51,0,0,1,0,.16.18.18,0,0,1-.05.07l-.08,0a.15.15,0,0,1-.12,0,.23.23,0,0,1-.05-.17v-.67a.21.21,0,0,1,.05-.16.15.15,0,0,1,.12-.05.16.16,0,0,1,.11.05.2.2,0,0,1,0,.13.46.46,0,0,0,.09.29,1,1,0,0,0,.43.31,2.18,2.18,0,0,0,.72.11,1.56,1.56,0,0,0,.93-.22.67.67,0,0,0,.31-.5.54.54,0,0,0-.3-.48,2.5,2.5,0,0,0-.93-.24,4.27,4.27,0,0,1-.86-.16.94.94,0,0,1-.4-.3.78.78,0,0,1-.14-.43.73.73,0,0,1,.4-.65,2,2,0,0,1,2.06.07ZM278.53,366l-.89-2.33h-.12l-.86,2.33Zm.12.33h-2.11l-.43,1.17h.61a.24.24,0,0,1,.16,0,.17.17,0,0,1,.05.13.16.16,0,0,1-.05.11.24.24,0,0,1-.16,0h-1.2a.27.27,0,0,1-.17,0,.16.16,0,0,1-.05-.11.17.17,0,0,1,.05-.13.27.27,0,0,1,.17,0h.24l1.43-3.83h-.95a.3.3,0,0,1-.18-.05.16.16,0,0,1,0-.12.15.15,0,0,1,0-.11.3.3,0,0,1,.18,0h1.62l1.57,4.16h.25a.22.22,0,0,1,.16,0,.15.15,0,0,1,.06.13.14.14,0,0,1-.06.11.22.22,0,0,1-.16,0h-1.2a.3.3,0,0,1-.18,0,.15.15,0,0,1,0-.11.17.17,0,0,1,0-.13.3.3,0,0,1,.18,0h.62ZM273.1,366l1.48,1.42c.09,0,.15,0,.17,0a.11.11,0,0,1,.07.06.12.12,0,0,1,0,.09.15.15,0,0,1,0,.11.25.25,0,0,1-.17,0h-1a.3.3,0,0,1-.18,0,.21.21,0,0,1,0-.11.22.22,0,0,1,0-.13.3.3,0,0,1,.18,0h.54l-1.26-1.19-1.24,1.19h.54a.21.21,0,0,1,.15,0,.15.15,0,0,1,.06.13.14.14,0,0,1-.06.11.21.21,0,0,1-.15,0h-1.05a.27.27,0,0,1-.17,0,.15.15,0,0,1,0-.11s0-.07,0-.09l.06-.06a.39.39,0,0,1,.18,0l1.49-1.42-1.32-1.24a.62.62,0,0,1-.18,0,.17.17,0,0,1-.06-.06.15.15,0,0,1,0-.09.15.15,0,0,1,0-.11.23.23,0,0,1,.18-.06h.88a.18.18,0,0,1,.15.06.14.14,0,0,1,.06.11.16.16,0,0,1-.06.12.21.21,0,0,1-.15.05h-.39l1.08,1,1.09-1h-.38a.29.29,0,0,1-.17-.05.18.18,0,0,1-.05-.12.15.15,0,0,1,0-.11.24.24,0,0,1,.18-.06h.88a.18.18,0,0,1,.16.06.14.14,0,0,1,.06.11.12.12,0,0,1,0,.09.09.09,0,0,1-.06.06.54.54,0,0,1-.17,0Zm-3.35,1.74h-.41l-2.38-4v3.69h.6a.22.22,0,0,1,.16,0,.15.15,0,0,1,.06.13.14.14,0,0,1-.06.11.22.22,0,0,1-.16,0h-1.19a.3.3,0,0,1-.18,0,.21.21,0,0,1,0-.11.22.22,0,0,1,0-.13.3.3,0,0,1,.18,0h.27v-3.83h-.43a.26.26,0,0,1-.17-.05.16.16,0,0,1,0-.12.15.15,0,0,1,0-.11.26.26,0,0,1,.17,0h.84l2.38,4v-3.68h-.59a.3.3,0,0,1-.18-.05.17.17,0,0,1-.05-.12.16.16,0,0,1,.05-.11.3.3,0,0,1,.18,0H270a.23.23,0,0,1,.16,0,.16.16,0,0,1,.05.11.17.17,0,0,1-.05.12.23.23,0,0,1-.16.05h-.27Zm-6.12-4.15v3.83h1.1a.25.25,0,0,1,.16,0,.17.17,0,0,1,.05.13.16.16,0,0,1-.05.11.25.25,0,0,1-.16,0H262.2a.27.27,0,0,1-.17,0,.15.15,0,0,1,0-.11.17.17,0,0,1,0-.13.27.27,0,0,1,.17,0h1.1v-3.83h-1.1a.26.26,0,0,1-.17-.05.16.16,0,0,1,0-.12.15.15,0,0,1,0-.11.26.26,0,0,1,.17,0h2.53a.25.25,0,0,1,.16,0,.16.16,0,0,1,.05.11.17.17,0,0,1-.05.12.25.25,0,0,1-.16.05Z" transform="translate(-247.98 -158.67)"/>
    <path d="M357.92,377h-.45l-1.62-4.16h-.39a.1.1,0,0,1,0-.06.29.29,0,0,1,0-.09.19.19,0,0,1,0-.08.1.1,0,0,1,0-.06l.14,0h1.19l.14,0a.1.1,0,0,1,.05.06.11.11,0,0,1,0,.08.16.16,0,0,1,0,.09.09.09,0,0,1-.06.06h-.74l1.49,3.84h0l1.47-3.84h-.75a.17.17,0,0,1-.06-.06.29.29,0,0,1,0-.09.19.19,0,0,1,0-.08l.07-.06.12,0h1.21l.12,0a.13.13,0,0,1,.07.06.19.19,0,0,1,0,.08.29.29,0,0,1,0,.09.13.13,0,0,1-.07.06h-.37Zm-3.87-1.76a1.3,1.3,0,0,0-.39-1,1.29,1.29,0,0,0-1.86,0,1.3,1.3,0,0,0-.39.95,1.34,1.34,0,0,0,.39,1,1.3,1.3,0,0,0,1.86,0A1.34,1.34,0,0,0,354.05,375.28Zm0-1v-.59h.75a.22.22,0,0,1,.16,0,.15.15,0,0,1,.05.12.16.16,0,0,1-.05.12.22.22,0,0,1-.16,0h-.43v3.21a1.21,1.21,0,0,1-.14.58,1.07,1.07,0,0,1-.31.35,1.48,1.48,0,0,1-.39.25,1,1,0,0,1-.47.08h-.91a.27.27,0,0,1-.17,0,.18.18,0,0,1,0-.13.19.19,0,0,1,0-.12.27.27,0,0,1,.17,0h.92a.9.9,0,0,0,.51-.15,1.22,1.22,0,0,0,.39-.42,1,1,0,0,0,.08-.41v-1a1.6,1.6,0,0,1-1.33.71,1.54,1.54,0,0,1-1.15-.49,1.65,1.65,0,0,1-.48-1.19,1.61,1.61,0,0,1,.48-1.18,1.54,1.54,0,0,1,1.15-.49A1.59,1.59,0,0,1,354.05,374.31Zm-6-.26v2.67h1.42a.21.21,0,0,1,.15,0,.14.14,0,0,1,.06.12.13.13,0,0,1-.06.11.21.21,0,0,1-.15.05h-2.52a.26.26,0,0,1-.17-.05.14.14,0,0,1,0-.11.17.17,0,0,1,0-.12.27.27,0,0,1,.17,0h.78v-2.67H347a.27.27,0,0,1-.17,0,.21.21,0,0,1-.05-.12.18.18,0,0,1,.05-.12.26.26,0,0,1,.17,0h.7v-.48a.92.92,0,0,1,.32-.7,1.27,1.27,0,0,1,.88-.3,6.67,6.67,0,0,1,1,.08c.14,0,.21,0,.23.08s.05.05.05.11a.13.13,0,0,1-.05.11.15.15,0,0,1-.12,0h-.1a6.57,6.57,0,0,0-1-.09,1,1,0,0,0-.66.21.62.62,0,0,0-.22.47v.48h1.51a.22.22,0,0,1,.16,0,.16.16,0,0,1,.06.12.17.17,0,0,1-.06.12.22.22,0,0,1-.16,0Zm-2.94-1.17v2.69a1.54,1.54,0,0,1-.45,1.13,1.47,1.47,0,0,1-1.1.46,1.61,1.61,0,0,1-.76-.18,1.5,1.5,0,0,1-.56-.56,1.61,1.61,0,0,1-.24-.85v-2.69h-.27a.22.22,0,0,1-.16,0,.17.17,0,0,1,0-.24.22.22,0,0,1,.16,0h1.19a.22.22,0,0,1,.16.05.13.13,0,0,1,.06.11.14.14,0,0,1-.06.12.22.22,0,0,1-.16,0h-.59v2.69a1.23,1.23,0,0,0,.35.9,1.19,1.19,0,0,0,.87.37,1.11,1.11,0,0,0,.58-.15,1.2,1.2,0,0,0,.46-.44,1.23,1.23,0,0,0,.2-.68v-2.69h-.59a.27.27,0,0,1-.17,0,.16.16,0,0,1,0-.12.14.14,0,0,1,0-.11.26.26,0,0,1,.17-.05h1.18a.25.25,0,0,1,.17.05.14.14,0,0,1,0,.11.17.17,0,0,1,0,.12.25.25,0,0,1-.17,0Zm-5,0v2.85a1.43,1.43,0,0,1-.43,1,1.46,1.46,0,0,1-1.05.42,1.58,1.58,0,0,1-.72-.17,3.36,3.36,0,0,1-.75-.54v-1.18a.22.22,0,0,1,0-.16.13.13,0,0,1,.11-.05.13.13,0,0,1,.12.05s0,.08,0,.16v1a2.19,2.19,0,0,0,.58.39,1.33,1.33,0,0,0,.57.14,1.27,1.27,0,0,0,.6-.15,1.15,1.15,0,0,0,.38-.38,1,1,0,0,0,.18-.58v-2.85h-1.26a.3.3,0,0,1-.18,0,.17.17,0,0,1-.05-.12.14.14,0,0,1,.05-.11.3.3,0,0,1,.18-.05h2.35a.23.23,0,0,1,.16.05.14.14,0,0,1,.05.11.17.17,0,0,1-.05.12.24.24,0,0,1-.16,0Zm-4.9,1.05a.25.25,0,0,1,.05-.16.13.13,0,0,1,.11,0,.17.17,0,0,1,.12,0,.27.27,0,0,1,0,.17v.55a.3.3,0,0,1,0,.18.16.16,0,0,1-.12,0,.12.12,0,0,1-.11,0,.21.21,0,0,1-.05-.15.57.57,0,0,0-.24-.38,1.75,1.75,0,0,0-1.68,0,.48.48,0,0,0-.22.37.44.44,0,0,0,.27.38,2.05,2.05,0,0,0,.7.17,4.22,4.22,0,0,1,.93.16,1.21,1.21,0,0,1,.55.37.84.84,0,0,1,.18.51.94.94,0,0,1-.39.74,1.82,1.82,0,0,1-1.16.31,2,2,0,0,1-1.25-.38.37.37,0,0,1,0,.17l-.06.07-.07,0a.17.17,0,0,1-.13-.05.24.24,0,0,1,0-.16v-.67a.24.24,0,0,1,0-.16.17.17,0,0,1,.13-.05.16.16,0,0,1,.11.05.17.17,0,0,1,0,.13.48.48,0,0,0,.09.29,1.09,1.09,0,0,0,.42.31,2.29,2.29,0,0,0,.73.11,1.52,1.52,0,0,0,.92-.22.67.67,0,0,0,.32-.51.52.52,0,0,0-.3-.47,2.5,2.5,0,0,0-.93-.24,3.56,3.56,0,0,1-.86-.17.85.85,0,0,1-.4-.29.71.71,0,0,1-.14-.43.75.75,0,0,1,.4-.66,1.89,1.89,0,0,1,1-.24A1.78,1.78,0,0,1,335.19,373.93Zm-5.11.49a1.67,1.67,0,0,1,.67.55,1.31,1.31,0,0,1,.23.72,1.36,1.36,0,0,1-.47,1,1.64,1.64,0,0,1-1.17.43,2.52,2.52,0,0,1-.86-.17,2,2,0,0,1-.62-.36.2.2,0,0,1-.06-.14.14.14,0,0,1,.05-.1.13.13,0,0,1,.1,0,.3.3,0,0,1,.14.05,2.12,2.12,0,0,0,1.26.44,1.31,1.31,0,0,0,.93-.35,1,1,0,0,0,.38-.78.9.9,0,0,0-.19-.55,1.18,1.18,0,0,0-.52-.44,1.66,1.66,0,0,0-.71-.16.3.3,0,0,1-.18-.05.15.15,0,0,1,0-.11.14.14,0,0,1,0-.11.21.21,0,0,1,.16-.06h.27a1,1,0,0,0,.71-.26.84.84,0,0,0,.29-.62.82.82,0,0,0-.3-.63,1,1,0,0,0-.77-.28,1.51,1.51,0,0,0-.61.12,1.16,1.16,0,0,0-.45.31l-.1.1h-.07a.14.14,0,0,1-.15-.15q0-.15.33-.39a1.76,1.76,0,0,1,1.05-.32,1.39,1.39,0,0,1,1,.36,1.14,1.14,0,0,1,.39.87,1.1,1.1,0,0,1-.19.62A1.21,1.21,0,0,1,330.08,374.42Zm-3.82-1.54v2.69a1.51,1.51,0,0,1-.46,1.13,1.44,1.44,0,0,1-1.09.46A1.58,1.58,0,0,1,324,377a1.6,1.6,0,0,1-.57-.56,1.69,1.69,0,0,1-.23-.85v-2.69h-.27a.25.25,0,0,1-.17,0,.2.2,0,0,1,0-.24.25.25,0,0,1,.17,0h1.18a.25.25,0,0,1,.17.05.13.13,0,0,1,.06.11.14.14,0,0,1-.06.12.25.25,0,0,1-.17,0h-.59v2.69a1.24,1.24,0,0,0,.36.9,1.16,1.16,0,0,0,.87.37,1.14,1.14,0,0,0,.58-.15,1.2,1.2,0,0,0,.46-.44,1.22,1.22,0,0,0,.19-.68v-2.69h-.59a.24.24,0,0,1-.16,0,.17.17,0,0,1-.05-.12.14.14,0,0,1,.05-.11.23.23,0,0,1,.16-.05h1.19a.2.2,0,0,1,.16.05.13.13,0,0,1,.06.11.14.14,0,0,1-.06.12s-.08,0-.16,0Zm-5.67,2.49v-2.81h-.17l-1.63,2.81Zm0,.32h-2.13v-.37l1.79-3.08h.66v3.13h.27a.25.25,0,0,1,.17,0,.17.17,0,0,1,0,.24.25.25,0,0,1-.17,0h-.27v1h.27a.25.25,0,0,1,.17,0,.17.17,0,0,1,0,.12.14.14,0,0,1,0,.11.25.25,0,0,1-.17.05H320a.3.3,0,0,1-.18-.05.14.14,0,0,1,0-.11.16.16,0,0,1,0-.12.3.3,0,0,1,.18,0h.6Zm-4.15-1.41a2.55,2.55,0,0,0-.14-.84,2.18,2.18,0,0,0-.29-.63.76.76,0,0,0-.24-.23.93.93,0,0,0-.49-.14.94.94,0,0,0-.85.55,2.67,2.67,0,0,0-.3,1.29V375a2.61,2.61,0,0,0,.41,1.48,1.07,1.07,0,0,0,.25.22.92.92,0,0,0,1.33-.41,2.57,2.57,0,0,0,.32-1.29Zm.32,0V375a2.54,2.54,0,0,1-.5,1.65,1.2,1.2,0,0,1-1,.47,1.24,1.24,0,0,1-1-.42,2.37,2.37,0,0,1-.24-.42,2.48,2.48,0,0,1-.19-.51,2.89,2.89,0,0,1-.08-.77v-.79a2.54,2.54,0,0,1,.48-1.64,1.19,1.19,0,0,1,1-.48,1.18,1.18,0,0,1,.53.12,1.1,1.1,0,0,1,.42.31,1.55,1.55,0,0,1,.25.41,2.92,2.92,0,0,1,.19.5A3.1,3.1,0,0,1,316.76,374.24Zm-6,.72v1.61a.29.29,0,0,1,0,.17.16.16,0,0,1-.12,0,.12.12,0,0,1-.11,0,.23.23,0,0,1,0-.17V375H309a.22.22,0,0,1-.16,0,.14.14,0,0,1-.05-.11.17.17,0,0,1,.05-.12.22.22,0,0,1,.16-.05h1.43V373c0-.08,0-.14,0-.17a.12.12,0,0,1,.11,0,.16.16,0,0,1,.12,0,.25.25,0,0,1,0,.17v1.59h1.43a.23.23,0,0,1,.16.05.17.17,0,0,1,.05.12.14.14,0,0,1-.05.11.23.23,0,0,1-.16,0ZM307.27,377h-.5l-.92-3.19L305,377h-.51l-.47-4.16h-.12a.27.27,0,0,1-.17,0,.16.16,0,0,1,0-.12.14.14,0,0,1,0-.11.26.26,0,0,1,.17-.05h1.19a.25.25,0,0,1,.17.05.13.13,0,0,1,.06.11.14.14,0,0,1-.06.12.25.25,0,0,1-.17,0h-.75l.43,3.79.87-3.12h.49l.89,3.12.42-3.79h-.75a.27.27,0,0,1-.17,0,.16.16,0,0,1,0-.12.14.14,0,0,1,0-.11.26.26,0,0,1,.17-.05h1.19a.22.22,0,0,1,.16.05.14.14,0,0,1,.05.11.17.17,0,0,1-.05.12.22.22,0,0,1-.16,0h-.12Zm-5.91-1.35H301l-1.24-2.81h-.06v3.84h.6a.21.21,0,0,1,.15,0,.14.14,0,0,1,.06.12.13.13,0,0,1-.06.11.21.21,0,0,1-.15.05H299.1a.25.25,0,0,1-.17-.05.14.14,0,0,1-.05-.11.17.17,0,0,1,.05-.12.25.25,0,0,1,.17,0h.27v-3.84h-.2a.3.3,0,0,1-.18,0,.16.16,0,0,1,0-.12.14.14,0,0,1,0-.11.3.3,0,0,1,.18-.05H300l1.22,2.77,1.19-2.77h.79a.25.25,0,0,1,.17.05.13.13,0,0,1,.06.11.14.14,0,0,1-.06.12.25.25,0,0,1-.17,0H303v3.84h.27a.25.25,0,0,1,.17,0,.17.17,0,0,1,.05.12.14.14,0,0,1-.05.11.25.25,0,0,1-.17.05h-1.18a.26.26,0,0,1-.17-.05.14.14,0,0,1-.05-.11.17.17,0,0,1,.05-.12.27.27,0,0,1,.17,0h.59v-3.84h-.07Zm-3.67-2.81v2.85a1.39,1.39,0,0,1-.43,1,1.46,1.46,0,0,1-1.05.42,1.51,1.51,0,0,1-.71-.17,3.18,3.18,0,0,1-.76-.54v-1.18a.22.22,0,0,1,0-.16.13.13,0,0,1,.11-.05.14.14,0,0,1,.13.05.22.22,0,0,1,0,.16v1a2.19,2.19,0,0,0,.58.39,1.36,1.36,0,0,0,.57.14,1.21,1.21,0,0,0,.6-.15,1.15,1.15,0,0,0,.38-.38,1,1,0,0,0,.18-.58v-2.85h-1.26a.3.3,0,0,1-.18,0,.16.16,0,0,1,0-.12.14.14,0,0,1,0-.11.3.3,0,0,1,.18-.05h2.35a.22.22,0,0,1,.16.05.12.12,0,0,1,.05.11.13.13,0,0,1-.05.12.22.22,0,0,1-.16,0Zm-6.18,1.17v2.67h1.42a.21.21,0,0,1,.15,0,.14.14,0,0,1,.06.12.13.13,0,0,1-.06.11.21.21,0,0,1-.15.05h-2.52a.26.26,0,0,1-.17-.05.14.14,0,0,1-.05-.11.17.17,0,0,1,.05-.12.27.27,0,0,1,.17,0h.78v-2.67h-.7a.27.27,0,0,1-.17,0,.21.21,0,0,1-.05-.12.18.18,0,0,1,.05-.12.26.26,0,0,1,.17,0h.7v-.48a.89.89,0,0,1,.32-.7,1.27,1.27,0,0,1,.88-.3,6.67,6.67,0,0,1,1,.08c.14,0,.21,0,.24.08s0,.05,0,.11a.15.15,0,0,1,0,.11.17.17,0,0,1-.13,0h-.1a6.46,6.46,0,0,0-1-.09,1,1,0,0,0-.66.21.62.62,0,0,0-.22.47v.48H293a.22.22,0,0,1,.16,0,.16.16,0,0,1,.06.12.17.17,0,0,1-.06.12.22.22,0,0,1-.16,0Zm-3.24-.26a2.22,2.22,0,0,0-.5-1.06.94.94,0,0,0-.7-.29.93.93,0,0,0-.73.35,1.28,1.28,0,0,0-.31.89,1.32,1.32,0,0,0,.31.87,1,1,0,0,0,.71.33.85.85,0,0,0,.44-.13,1.26,1.26,0,0,0,.42-.36A3.82,3.82,0,0,0,288.27,373.79Zm.07.53a1.93,1.93,0,0,1-.6.66,1.25,1.25,0,0,1-.7.22,1.19,1.19,0,0,1-.64-.19,1.34,1.34,0,0,1-.5-.55,1.78,1.78,0,0,1-.18-.78,1.71,1.71,0,0,1,.36-1.07,1.15,1.15,0,0,1,1-.49,1.23,1.23,0,0,1,.79.28,1.69,1.69,0,0,1,.57.78,4.29,4.29,0,0,1,.25,1.54,2.27,2.27,0,0,1-.64,1.73,2.71,2.71,0,0,1-.64.47,2.32,2.32,0,0,1-1,.23,1.13,1.13,0,0,1-.56-.12.19.19,0,0,1-.1-.16.21.21,0,0,1,0-.11.15.15,0,0,1,.11,0,.3.3,0,0,1,.14,0,.74.74,0,0,0,.34.07,1.89,1.89,0,0,0,1.4-.58,2,2,0,0,0,.59-1.48C288.35,374.66,288.35,374.51,288.34,374.32Zm-4.88,0a2.55,2.55,0,0,0-.13-.84,2.18,2.18,0,0,0-.29-.63.7.7,0,0,0-.25-.23.93.93,0,0,0-.49-.14.94.94,0,0,0-.85.55,2.67,2.67,0,0,0-.3,1.29V375a3,3,0,0,0,.12.86,2.56,2.56,0,0,0,.3.62.85.85,0,0,0,.24.22,1,1,0,0,0,.5.14.94.94,0,0,0,.84-.55,2.57,2.57,0,0,0,.31-1.29Zm.32,0V375a2.48,2.48,0,0,1-.5,1.65,1.19,1.19,0,0,1-1,.47,1.41,1.41,0,0,1-.54-.11,1.35,1.35,0,0,1-.43-.31,3.55,3.55,0,0,1-.42-.93,2.86,2.86,0,0,1-.09-.77v-.79a2.49,2.49,0,0,1,.49-1.64,1.19,1.19,0,0,1,1-.48,1.25,1.25,0,0,1,.54.12,1.27,1.27,0,0,1,.42.31,1.55,1.55,0,0,1,.25.41,2.19,2.19,0,0,1,.18.5A3.1,3.1,0,0,1,283.78,374.24ZM279,372l-2.59,5.53c0,.1-.1.14-.16.14a.2.2,0,0,1-.13,0,.15.15,0,0,1,0-.11.24.24,0,0,1,0-.12l2.59-5.55c0-.06,0-.1.07-.11a.16.16,0,0,1,.1,0,.15.15,0,0,1,.11,0,.13.13,0,0,1,0,.1A.58.58,0,0,1,279,372Zm-5.87,5h-.55l-1.32-3H271a.25.25,0,0,1-.17,0,.16.16,0,0,1-.05-.12.15.15,0,0,1,.05-.12.25.25,0,0,1,.17,0h1.21a.21.21,0,0,1,.15,0,.16.16,0,0,1,.06.12.17.17,0,0,1-.06.12.21.21,0,0,1-.15,0h-.54l1.19,2.67H273l1.15-2.67h-.54a.29.29,0,0,1-.17,0,.19.19,0,0,1,0-.12.17.17,0,0,1,0-.12.29.29,0,0,1,.17,0h1.22a.2.2,0,0,1,.16,0,.18.18,0,0,1,.05.12.21.21,0,0,1-.05.12s-.08,0-.16,0h-.33Zm-4.83-4.16v3.84h1.1c.07,0,.13,0,.15,0a.14.14,0,0,1,.06.12.13.13,0,0,1-.06.11.19.19,0,0,1-.15.05h-2.53a.26.26,0,0,1-.17-.05.14.14,0,0,1,0-.11.16.16,0,0,1,0-.12.27.27,0,0,1,.17,0H268v-3.84h-1.1a.27.27,0,0,1-.17,0,.16.16,0,0,1,0-.12.14.14,0,0,1,0-.11.26.26,0,0,1,.17-.05h2.53a.19.19,0,0,1,.15.05.13.13,0,0,1,.06.11.14.14,0,0,1-.06.12s-.08,0-.15,0Zm-5.57,2h1a1.41,1.41,0,0,0,.67-.16,1,1,0,0,0,.45-.39.92.92,0,0,0,.14-.47.89.89,0,0,0-.32-.67,1.14,1.14,0,0,0-.83-.31h-1.13Zm0,.32v1.52h1.1a.24.24,0,0,1,.16,0,.17.17,0,0,1,.05.12.14.14,0,0,1-.05.11.23.23,0,0,1-.16.05H262a.25.25,0,0,1-.17-.05.14.14,0,0,1,0-.11.16.16,0,0,1,0-.12.25.25,0,0,1,.17,0h.43v-3.84H262a.25.25,0,0,1-.17,0,.16.16,0,0,1,0-.12.14.14,0,0,1,0-.11.25.25,0,0,1,.17-.05h1.87A1.48,1.48,0,0,1,265,373a1.18,1.18,0,0,1,.43.91,1.2,1.2,0,0,1-.14.57,1,1,0,0,1-.32.38,1.91,1.91,0,0,1-.6.31,1.49,1.49,0,0,1-.55.08Z" transform="translate(-247.98 -158.67)"/>
    <path d="M359.32,384.08a2.38,2.38,0,0,0-.45-1.42,1.43,1.43,0,0,0-2.34,0,2.23,2.23,0,0,0-.48,1.44,2.11,2.11,0,0,0,.5,1.46,1.47,1.47,0,0,0,1.13.57,1.43,1.43,0,0,0,1.19-.62A2.33,2.33,0,0,0,359.32,384.08Zm-1.6,2.35-.43.32a3,3,0,0,1,.53-.06,1.92,1.92,0,0,1,.66.12,1,1,0,0,0,.35.09,1,1,0,0,0,.51-.18.25.25,0,0,1,.14-.07.13.13,0,0,1,.11.05.14.14,0,0,1,.05.11.15.15,0,0,1,0,.1.87.87,0,0,1-.37.22,1,1,0,0,1-.41.09,1.47,1.47,0,0,1-.46-.1,1.47,1.47,0,0,0-.54-.1c-.12,0-.27,0-.46,0l-.62.13-.11,0a.21.21,0,0,1-.12,0,.2.2,0,0,1,0-.13c0-.05,0-.09.09-.13l.71-.52a1.94,1.94,0,0,1-1.09-.79,2.56,2.56,0,0,1-.46-1.52,2.43,2.43,0,0,1,.59-1.69,1.76,1.76,0,0,1,2.75,0,2.7,2.7,0,0,1,0,3.37A1.8,1.8,0,0,1,357.72,386.43Zm-3.34-2a1.43,1.43,0,0,0-.5-.87,1.52,1.52,0,0,0-1-.33,1.46,1.46,0,0,0-1,.33,1.38,1.38,0,0,0-.5.87Zm.32.32h-3.28a1.59,1.59,0,0,0,.53,1,1.64,1.64,0,0,0,1.09.38,2.55,2.55,0,0,0,.75-.12,2,2,0,0,0,.65-.31.22.22,0,0,1,.12-.06.13.13,0,0,1,.11.05.15.15,0,0,1,0,.11.21.21,0,0,1,0,.13,2,2,0,0,1-.66.35,2.85,2.85,0,0,1-1,.17,1.91,1.91,0,0,1-1.39-.54,1.76,1.76,0,0,1-.55-1.31,1.61,1.61,0,0,1,.51-1.2,1.78,1.78,0,0,1,1.3-.5,1.72,1.72,0,0,1,1.29.51A1.76,1.76,0,0,1,354.7,384.72Zm-5.19-2.57V385a1.39,1.39,0,0,1-.43,1,1.46,1.46,0,0,1-1.05.42,1.72,1.72,0,0,1-.72-.17,3.36,3.36,0,0,1-.75-.54v-1.18a.22.22,0,0,1,0-.16.14.14,0,0,1,.11-.06.16.16,0,0,1,.13.06.22.22,0,0,1,0,.16v1a2.24,2.24,0,0,0,.58.4,1.33,1.33,0,0,0,.57.14,1.24,1.24,0,0,0,.6-.15,1.09,1.09,0,0,0,.38-.39,1,1,0,0,0,.18-.58v-2.84h-1.26a.3.3,0,0,1-.18,0,.17.17,0,0,1,0-.13.15.15,0,0,1,0-.11.3.3,0,0,1,.18,0h2.35a.22.22,0,0,1,.16,0,.16.16,0,0,1,.05.11.17.17,0,0,1-.05.13.22.22,0,0,1-.16,0Zm-5,2.34-.88-2.34h-.12l-.86,2.34Zm.12.32h-2.11l-.43,1.17h.61a.22.22,0,0,1,.16,0,.13.13,0,0,1,.05.12.13.13,0,0,1-.05.11.22.22,0,0,1-.16.05h-1.2a.26.26,0,0,1-.17-.05.15.15,0,0,1,0-.11.16.16,0,0,1,0-.12.26.26,0,0,1,.17,0h.24l1.43-3.83h-.95a.3.3,0,0,1-.18,0,.17.17,0,0,1,0-.13.15.15,0,0,1,0-.11.3.3,0,0,1,.18,0h1.62l1.57,4.15h.25a.22.22,0,0,1,.16,0,.14.14,0,0,1,.06.12.14.14,0,0,1-.06.11.22.22,0,0,1-.16.05h-1.2a.25.25,0,0,1-.17-.05.13.13,0,0,1-.05-.11.13.13,0,0,1,.05-.12.25.25,0,0,1,.17,0h.62ZM340,385a1,1,0,0,0-.33-.73,1.24,1.24,0,0,0-1.66,0,1,1,0,0,0,0,1.49,1.13,1.13,0,0,0,.81.32,1.18,1.18,0,0,0,.83-.32A1,1,0,0,0,340,385Zm-.09-2.3a.93.93,0,0,0-.31-.71,1.11,1.11,0,0,0-1.52,0,1,1,0,0,0-.3.71.92.92,0,0,0,.3.66,1.12,1.12,0,0,0,.76.27,1.1,1.1,0,0,0,.76-.27A.89.89,0,0,0,339.9,382.72Zm-.4,1.09a1.48,1.48,0,0,1,.6.52,1.21,1.21,0,0,1,.2.69,1.36,1.36,0,0,1-.43,1,1.47,1.47,0,0,1-1,.41,1.49,1.49,0,0,1-1.05-.41,1.39,1.39,0,0,1-.42-1,1.29,1.29,0,0,1,.2-.69,1.61,1.61,0,0,1,.62-.52,1.59,1.59,0,0,1-.51-.42,1.11,1.11,0,0,1-.22-.68,1.24,1.24,0,0,1,.4-.93,1.38,1.38,0,0,1,1-.4,1.36,1.36,0,0,1,1,.4,1.22,1.22,0,0,1,.41.93,1.11,1.11,0,0,1-.22.68A1.44,1.44,0,0,1,339.5,383.81Zm-6.84-.82v.33a1.13,1.13,0,0,1,.82-.44.74.74,0,0,1,.44.13,1,1,0,0,1,.31.4,1.61,1.61,0,0,1,.44-.4.83.83,0,0,1,.44-.13.73.73,0,0,1,.56.22.9.9,0,0,1,.27.63V386h.26a.23.23,0,0,1,.17,0,.14.14,0,0,1,.06.12.14.14,0,0,1-.06.11.23.23,0,0,1-.17.05h-.59v-2.54a.54.54,0,0,0-.15-.4.45.45,0,0,0-.34-.17.69.69,0,0,0-.38.13,2,2,0,0,0-.43.53V386h.27a.21.21,0,0,1,.15,0,.14.14,0,0,1,.06.12.14.14,0,0,1-.06.11.21.21,0,0,1-.15.05H334v-2.52a.6.6,0,0,0-.15-.42.45.45,0,0,0-.34-.17.62.62,0,0,0-.33.11,1.82,1.82,0,0,0-.49.55V386h.27a.21.21,0,0,1,.15,0,.14.14,0,0,1,.06.12.14.14,0,0,1-.06.11.21.21,0,0,1-.15.05h-.87a.26.26,0,0,1-.17-.05.16.16,0,0,1-.05-.11.17.17,0,0,1,.05-.12.26.26,0,0,1,.17,0h.28v-2.66h-.28a.27.27,0,0,1-.17,0,.21.21,0,0,1-.05-.13.16.16,0,0,1,.05-.11.26.26,0,0,1,.17-.05Zm-3.05,1,1.53,2h.12a.23.23,0,0,1,.16,0,.17.17,0,0,1,.05.12.16.16,0,0,1-.05.11.23.23,0,0,1-.16.05h-1a.23.23,0,0,1-.16-.05.16.16,0,0,1-.05-.11.17.17,0,0,1,.05-.12.23.23,0,0,1,.16,0h.52l-1.33-1.7-1.32,1.7h.52a.21.21,0,0,1,.15,0,.14.14,0,0,1,.06.12.14.14,0,0,1-.06.11.21.21,0,0,1-.15.05h-1a.25.25,0,0,1-.17-.05.15.15,0,0,1,0-.11.3.3,0,0,1,0-.1.19.19,0,0,1,.07-.06h.23l1.52-2-1.44-1.86h-.12a.27.27,0,0,1-.17,0,.17.17,0,0,1,0-.13.15.15,0,0,1,0-.11.27.27,0,0,1,.17,0h.88a.21.21,0,0,1,.15,0,.14.14,0,0,1,.06.11.15.15,0,0,1-.06.13.21.21,0,0,1-.15,0h-.37l1.25,1.61,1.22-1.61h-.35a.25.25,0,0,1-.17,0,.17.17,0,0,1,0-.13.15.15,0,0,1,0-.11.25.25,0,0,1,.17,0h.88a.24.24,0,0,1,.16,0,.16.16,0,0,1,.05.11.17.17,0,0,1-.05.13.24.24,0,0,1-.16,0H331Zm-6,2h1.63a1,1,0,0,0,.88-.48.79.79,0,0,0,.12-.42.74.74,0,0,0-.17-.47,1,1,0,0,0-.47-.34,2.35,2.35,0,0,0-.83-.12h-1.16Zm0-2.16h1.14a1.67,1.67,0,0,0,.67-.13.88.88,0,0,0,.35-.31A.78.78,0,0,0,326,383a.72.72,0,0,0-.29-.55,1.06,1.06,0,0,0-.74-.26h-1.27Zm-.32,2.16v-3.83h-.44a.29.29,0,0,1-.17,0,.22.22,0,0,1,0-.13.21.21,0,0,1,0-.11.29.29,0,0,1,.17,0h2a1.35,1.35,0,0,1,1,.34,1.06,1.06,0,0,1-.24,1.78,1.42,1.42,0,0,1,.73.48,1,1,0,0,1,.24.65,1.18,1.18,0,0,1-.16.59,1.31,1.31,0,0,1-.48.45,1.34,1.34,0,0,1-.68.19h-2.41a.29.29,0,0,1-.17-.05.21.21,0,0,1,0-.11.21.21,0,0,1,0-.12.29.29,0,0,1,.17,0Zm-2.25-1.85H319V386h.43a.22.22,0,0,1,.16,0,.14.14,0,0,1,.06.12.14.14,0,0,1-.06.11.22.22,0,0,1-.16.05h-1.12a.26.26,0,0,1-.17-.05.15.15,0,0,1,0-.11.16.16,0,0,1,0-.12.26.26,0,0,1,.17,0h.37v-3.83h-.21a.29.29,0,0,1-.17,0,.17.17,0,0,1-.05-.13.16.16,0,0,1,.05-.11.29.29,0,0,1,.17,0h1a.22.22,0,0,1,.16,0,.14.14,0,0,1,.06.11.15.15,0,0,1-.06.13.22.22,0,0,1-.16,0H319v1.67h2.13v-1.67h-.42a.28.28,0,0,1-.18,0,.17.17,0,0,1-.05-.13.16.16,0,0,1,.05-.11.28.28,0,0,1,.18,0h.94c.09,0,.14,0,.17,0a.14.14,0,0,1,.06.11.15.15,0,0,1-.06.13s-.08,0-.17,0h-.2V386h.37a.23.23,0,0,1,.16,0,.13.13,0,0,1,.05.12.13.13,0,0,1-.05.11.23.23,0,0,1-.16.05h-1.11a.28.28,0,0,1-.18-.05.16.16,0,0,1-.05-.11.17.17,0,0,1,.05-.12.28.28,0,0,1,.18,0h.42Zm-6.85-.14h.88a1.73,1.73,0,0,0,.76-.16,1.26,1.26,0,0,0,.5-.35.76.76,0,0,0,.16-.43.82.82,0,0,0-.33-.61,1.15,1.15,0,0,0-.79-.29h-1.18Zm0,.32V386h.6a.23.23,0,0,1,.16,0,.17.17,0,0,1,.05.12.16.16,0,0,1-.05.11.23.23,0,0,1-.16.05h-1.35a.3.3,0,0,1-.18-.05.15.15,0,0,1,0-.11.16.16,0,0,1,0-.12.3.3,0,0,1,.18,0h.42v-3.83h-.42a.3.3,0,0,1-.18,0,.17.17,0,0,1,0-.13.15.15,0,0,1,0-.11.3.3,0,0,1,.18,0h1.94a1.48,1.48,0,0,1,1,.38,1.13,1.13,0,0,1,.41.85,1,1,0,0,1-.26.66,1.85,1.85,0,0,1-.84.5,3.06,3.06,0,0,1,.59.54,12.63,12.63,0,0,1,.78,1.22h.24a.22.22,0,0,1,.16,0,.13.13,0,0,1,.05.12.13.13,0,0,1-.05.11.22.22,0,0,1-.16.05h-.42a8.23,8.23,0,0,0-.94-1.43,2.33,2.33,0,0,0-.75-.57Zm-4.43-.16V386h1.1a.22.22,0,0,1,.16,0,.17.17,0,0,1,.05.12.16.16,0,0,1-.05.11.22.22,0,0,1-.16.05H309a.26.26,0,0,1-.17-.05.15.15,0,0,1,0-.11.16.16,0,0,1,0-.12.26.26,0,0,1,.17,0h.43v-3.83H309a.27.27,0,0,1-.17,0,.17.17,0,0,1,0-.13.21.21,0,0,1,.05-.12.3.3,0,0,1,.16,0h3.54v1.1a.27.27,0,0,1,0,.17.16.16,0,0,1-.12,0,.12.12,0,0,1-.11,0,.22.22,0,0,1-.05-.17v-.78H309.8v1.67h1.14v-.36a.22.22,0,0,1,.05-.16.14.14,0,0,1,.12-.06.11.11,0,0,1,.11.06.22.22,0,0,1,0,.16v1a.3.3,0,0,1,0,.18.12.12,0,0,1-.11,0,.16.16,0,0,1-.12,0,.3.3,0,0,1-.05-.18v-.35Zm-2.47.51a1.49,1.49,0,0,0-1.48-1.46,1.42,1.42,0,0,0-1,.43,1.44,1.44,0,0,0,0,2.05,1.42,1.42,0,0,0,1,.43,1.39,1.39,0,0,0,1-.43A1.37,1.37,0,0,0,307.33,384.66Zm.33,0a1.72,1.72,0,0,1-.53,1.26,1.77,1.77,0,0,1-1.28.51,1.74,1.74,0,0,1-1.27-.52,1.77,1.77,0,0,1,0-2.51,1.82,1.82,0,0,1,2.55,0A1.69,1.69,0,0,1,307.66,384.66Zm-5.1-1.67v.29l-2.42,2.7h2.19v-.44a.22.22,0,0,1,0-.16.16.16,0,0,1,.11-.05.21.21,0,0,1,.13.05.28.28,0,0,1,0,.16v.77h-2.95V386l2.41-2.7h-2v.44a.23.23,0,0,1-.05.16.16.16,0,0,1-.11.05.17.17,0,0,1-.12-.05.23.23,0,0,1-.05-.16V383Zm-7.16,1.57V386H296a.22.22,0,0,1,.16,0,.13.13,0,0,1,.05.12.13.13,0,0,1-.05.11.22.22,0,0,1-.16.05h-1.35a.26.26,0,0,1-.17-.05.15.15,0,0,1,0-.11.16.16,0,0,1,0-.12.26.26,0,0,1,.17,0h.43v-3.83h-.43a.27.27,0,0,1-.17,0,.17.17,0,0,1,0-.13.15.15,0,0,1,0-.11.27.27,0,0,1,.17,0H296a.22.22,0,0,1,.16,0,.13.13,0,0,1,.05.11.14.14,0,0,1-.05.13.22.22,0,0,1-.16,0h-.59v2l2.22-2h-.36a.29.29,0,0,1-.17,0,.17.17,0,0,1,0-.13.15.15,0,0,1,0-.11.29.29,0,0,1,.17,0h.95a.22.22,0,0,1,.16,0,.16.16,0,0,1,.05.11.17.17,0,0,1-.05.13.22.22,0,0,1-.16,0h-.13l-1.77,1.58a2.17,2.17,0,0,1,.65.4,2.8,2.8,0,0,1,.51.68c.09.17.26.56.5,1.17h.4a.23.23,0,0,1,.17,0,.14.14,0,0,1,.06.12.14.14,0,0,1-.06.11.23.23,0,0,1-.17.05h-.62a6.51,6.51,0,0,0-.85-1.77A1.86,1.86,0,0,0,296,384ZM290.67,386h1.63a1,1,0,0,0,.54-.13,1,1,0,0,0,.34-.35.78.78,0,0,0,0-.89,1,1,0,0,0-.48-.34,2.29,2.29,0,0,0-.82-.12h-1.17Zm0-2.16h1.14a1.6,1.6,0,0,0,.67-.13.85.85,0,0,0,.36-.31A.76.76,0,0,0,293,383a.72.72,0,0,0-.29-.55,1,1,0,0,0-.73-.26h-1.28Zm-.32,2.16v-3.83h-.43a.27.27,0,0,1-.17,0,.17.17,0,0,1,0-.13.15.15,0,0,1,0-.11.27.27,0,0,1,.17,0h2a1.33,1.33,0,0,1,1,.34,1.09,1.09,0,0,1,.39.82,1.1,1.1,0,0,1-.63,1,1.5,1.5,0,0,1,.74.48,1,1,0,0,1,.23.65,1.09,1.09,0,0,1-.16.59,1.43,1.43,0,0,1-1.16.64h-2.4a.26.26,0,0,1-.17-.05.15.15,0,0,1,0-.11.16.16,0,0,1,0-.12.26.26,0,0,1,.17,0Zm-2.18-1a1,1,0,0,0-.33-.73,1.22,1.22,0,0,0-1.65,0,1,1,0,0,0-.33.73,1,1,0,0,0,.34.76,1.13,1.13,0,0,0,.81.32,1.16,1.16,0,0,0,.83-.32A1,1,0,0,0,288.17,385Zm-.09-2.3a.93.93,0,0,0-.31-.71,1.11,1.11,0,0,0-1.52,0,1,1,0,0,0-.3.71.92.92,0,0,0,.3.66,1.12,1.12,0,0,0,.76.27,1.09,1.09,0,0,0,.76-.27A.89.89,0,0,0,288.08,382.72Zm-.4,1.09a1.48,1.48,0,0,1,.6.52,1.21,1.21,0,0,1,.2.69,1.36,1.36,0,0,1-.43,1,1.45,1.45,0,0,1-1,.41A1.49,1.49,0,0,1,286,386a1.39,1.39,0,0,1-.42-1,1.29,1.29,0,0,1,.2-.69,1.61,1.61,0,0,1,.62-.52,1.59,1.59,0,0,1-.51-.42,1.11,1.11,0,0,1-.22-.68,1.24,1.24,0,0,1,.4-.93,1.39,1.39,0,0,1,1-.4,1.34,1.34,0,0,1,1,.4,1.23,1.23,0,0,1,.42.93,1.12,1.12,0,0,1-.23.68A1.44,1.44,0,0,1,287.68,383.81Zm-6,1.06v1.44h-.76a.26.26,0,0,1-.17-.05.16.16,0,0,1-.05-.11.17.17,0,0,1,.05-.12.26.26,0,0,1,.17,0h.43v-4.15h-.43a.26.26,0,0,1-.17-.05.15.15,0,0,1-.05-.12.16.16,0,0,1,.05-.11.27.27,0,0,1,.17,0h.76v3l1.35-1.15h-.15a.3.3,0,0,1-.18,0,.2.2,0,0,1,0-.13.15.15,0,0,1,0-.11.3.3,0,0,1,.18-.05h1a.23.23,0,0,1,.17.05.14.14,0,0,1,.06.11.18.18,0,0,1-.06.13s-.08,0-.17,0h-.36l-1.26,1.05,1.59,1.61h.37a.25.25,0,0,1,.17,0,.17.17,0,0,1,.05.12.16.16,0,0,1-.05.11.25.25,0,0,1-.17.05h-1.05a.29.29,0,0,1-.17-.05.15.15,0,0,1,0-.11.16.16,0,0,1,0-.12.29.29,0,0,1,.17,0h.23L282,384.57ZM276.21,386h2.47v-.12a.25.25,0,0,1,.05-.17.18.18,0,0,1,.11,0,.21.21,0,0,1,.12,0,.25.25,0,0,1,.05.17v.45H275.9v-.48c.65-.59,1.28-1.19,1.9-1.79a8.52,8.52,0,0,0,.59-.62,1.07,1.07,0,0,0,.23-.36,1,1,0,0,0,.05-.3,1,1,0,0,0-.33-.73,1.09,1.09,0,0,0-.81-.32,1.19,1.19,0,0,0-.74.24,1.15,1.15,0,0,0-.43.6c0,.06,0,.1-.05.11a.14.14,0,0,1-.1,0,.18.18,0,0,1-.12,0,.18.18,0,0,1,0-.11,1.06,1.06,0,0,1,.2-.49,1.41,1.41,0,0,1,.56-.49,1.61,1.61,0,0,1,.72-.19,1.4,1.4,0,0,1,1,.43,1.26,1.26,0,0,1,.44.94,1.16,1.16,0,0,1-.08.42,1.93,1.93,0,0,1-.25.4c-.12.14-.32.36-.62.65-.76.75-1.38,1.33-1.85,1.74Zm-2.39-1.49-.88-2.34h-.13l-.85,2.34Zm.12.32h-2.11L271.4,386H272a.22.22,0,0,1,.16,0,.17.17,0,0,1,.05.12.16.16,0,0,1-.05.11.22.22,0,0,1-.16.05h-1.2a.25.25,0,0,1-.17-.05.16.16,0,0,1-.05-.11.17.17,0,0,1,.05-.12.25.25,0,0,1,.17,0h.24l1.43-3.83h-1a.3.3,0,0,1-.18,0,.17.17,0,0,1,0-.13.15.15,0,0,1,0-.11.3.3,0,0,1,.18,0h1.62l1.57,4.15H275a.23.23,0,0,1,.17,0,.14.14,0,0,1,.06.12.14.14,0,0,1-.06.11.23.23,0,0,1-.17.05h-1.19a.3.3,0,0,1-.18-.05.15.15,0,0,1,0-.11.16.16,0,0,1,0-.12.3.3,0,0,1,.18,0h.61Zm-4.51-1.76a2.27,2.27,0,0,0-.5-1.05,1,1,0,0,0-.71-.29,1,1,0,0,0-.72.34,1.27,1.27,0,0,0-.31.89,1.24,1.24,0,0,0,.31.87.92.92,0,0,0,.7.34,1,1,0,0,0,.45-.13,1.3,1.3,0,0,0,.42-.37A4.52,4.52,0,0,0,269.43,383.05Zm.07.54a1.83,1.83,0,0,1-.61.65,1.22,1.22,0,0,1-.7.23,1.16,1.16,0,0,1-.63-.19,1.39,1.39,0,0,1-.51-.56,1.72,1.72,0,0,1-.18-.78,1.81,1.81,0,0,1,.36-1.07,1.19,1.19,0,0,1,1-.49,1.27,1.27,0,0,1,.79.28,1.66,1.66,0,0,1,.57.78,4.13,4.13,0,0,1,.26,1.55,2.46,2.46,0,0,1-.22,1.12,2.35,2.35,0,0,1-.43.61,2.72,2.72,0,0,1-.63.47,2.37,2.37,0,0,1-1,.23,1.09,1.09,0,0,1-.55-.12.19.19,0,0,1-.1-.16.15.15,0,0,1,0-.11.16.16,0,0,1,.11,0,.39.39,0,0,1,.14,0,.86.86,0,0,0,.34.07,1.93,1.93,0,0,0,1.4-.58,2,2,0,0,0,.59-1.48C269.51,383.93,269.5,383.78,269.5,383.59Zm-5.37.1a1.58,1.58,0,0,1,.67.54,1.34,1.34,0,0,1,.23.73,1.36,1.36,0,0,1-.47,1,1.65,1.65,0,0,1-1.17.44,2.52,2.52,0,0,1-.86-.17,1.8,1.8,0,0,1-.62-.37.16.16,0,0,1-.06-.13.18.18,0,0,1,.15-.15.24.24,0,0,1,.14.06,2.12,2.12,0,0,0,1.26.44,1.31,1.31,0,0,0,.93-.35,1,1,0,0,0,.38-.78,1,1,0,0,0-.19-.56A1.2,1.2,0,0,0,264,384a1.6,1.6,0,0,0-.7-.17.3.3,0,0,1-.18,0,.16.16,0,0,1,0-.12.15.15,0,0,1,0-.11.25.25,0,0,1,.16-.05h.27a1,1,0,0,0,.71-.27.82.82,0,0,0,.29-.61.86.86,0,0,0-.3-.64,1.1,1.1,0,0,0-.77-.27,1.51,1.51,0,0,0-.61.12,1.07,1.07,0,0,0-.45.31l-.1.1h-.07a.14.14,0,0,1-.15-.15q0-.17.33-.39a1.77,1.77,0,0,1,1.05-.33,1.42,1.42,0,0,1,1,.37,1.17,1.17,0,0,1,.39.87,1.07,1.07,0,0,1-.19.61A1.17,1.17,0,0,1,264.13,383.69Z" transform="translate(-247.98 -158.67)"/>
    <path d="M359,392.59v-.11a.25.25,0,0,1,.05-.17.14.14,0,0,1,.11-.06.14.14,0,0,1,.12.06.25.25,0,0,1,.05.17v.72a.3.3,0,0,1-.05.18.16.16,0,0,1-.12,0,.15.15,0,0,1-.11,0,.21.21,0,0,1-.05-.15.75.75,0,0,0-.35-.52,1.56,1.56,0,0,0-.91-.24,1.33,1.33,0,0,0-1.09.45,1.55,1.55,0,0,0-.37,1,1.4,1.4,0,0,0,.4,1,1.46,1.46,0,0,0,1.07.4,2.29,2.29,0,0,0,.76-.13,1.76,1.76,0,0,0,.7-.45.25.25,0,0,1,.15-.07.15.15,0,0,1,.11,0,.16.16,0,0,1,.05.11c0,.11-.13.25-.39.43a2.6,2.6,0,0,1-1.4.4,1.77,1.77,0,0,1-1.27-.49,1.86,1.86,0,0,1,0-2.55,1.71,1.71,0,0,1,1.28-.52A1.79,1.79,0,0,1,359,392.59Zm-4.94,3h-.4l-.72-2.06-.7,2.06h-.4l-.66-3H351a.25.25,0,0,1-.17,0,.17.17,0,0,1-.05-.12.16.16,0,0,1,.05-.11.21.21,0,0,1,.17-.06h.88a.18.18,0,0,1,.16.06.14.14,0,0,1,.06.11.14.14,0,0,1-.06.12.22.22,0,0,1-.16,0h-.41l.57,2.54.69-2h.38l.72,2,.54-2.54H354a.26.26,0,0,1-.17,0,.16.16,0,0,1,0-.12.15.15,0,0,1,0-.11.22.22,0,0,1,.17-.06h.88a.21.21,0,0,1,.17.06.16.16,0,0,1,.05.11.17.17,0,0,1-.05.12.25.25,0,0,1-.17,0h-.14Zm-7.21-.32h2.48v-.12a.25.25,0,0,1,0-.17.15.15,0,0,1,.11,0,.16.16,0,0,1,.12,0,.25.25,0,0,1,.05.17v.44h-3.11v-.47c.65-.59,1.29-1.19,1.9-1.8a7.11,7.11,0,0,0,.59-.61,1.07,1.07,0,0,0,.23-.36,1,1,0,0,0,.05-.3,1,1,0,0,0-.33-.73,1.08,1.08,0,0,0-.8-.33,1.23,1.23,0,0,0-.75.25,1.09,1.09,0,0,0-.42.6c0,.06,0,.1-.06.11a.14.14,0,0,1-.1.05.17.17,0,0,1-.16-.16,1.06,1.06,0,0,1,.2-.49,1.48,1.48,0,0,1,.56-.49,1.5,1.5,0,0,1,.73-.19,1.43,1.43,0,0,1,1,.42,1.29,1.29,0,0,1,.44.95,1.07,1.07,0,0,1-.08.41,1.46,1.46,0,0,1-.24.4q-.18.21-.63.66c-.76.75-1.37,1.33-1.85,1.74Zm-1.75-1.44a1.22,1.22,0,0,0-.41-.94,1.32,1.32,0,0,0-1-.4,1.36,1.36,0,0,0-1,.4,1.33,1.33,0,0,0,0,1.9,1.36,1.36,0,0,0,1,.4,1.32,1.32,0,0,0,1-.4A1.25,1.25,0,0,0,345.12,393.81Zm-2.79-1.56v.59a2.26,2.26,0,0,1,.61-.52,1.65,1.65,0,0,1,.79-.18,1.77,1.77,0,0,1,.87.23,1.43,1.43,0,0,1,.62.62,1.64,1.64,0,0,1,.23.82,1.67,1.67,0,0,1-.5,1.2,1.75,1.75,0,0,1-2.62-.22v1.94h.79a.21.21,0,0,1,.15,0,.13.13,0,0,1,.06.11.14.14,0,0,1-.06.11.17.17,0,0,1-.15.05h-1.54a.3.3,0,0,1-.18,0,.16.16,0,0,1,0-.12.14.14,0,0,1,0-.11.3.3,0,0,1,.18,0H342v-4.14h-.43a.3.3,0,0,1-.18,0,.16.16,0,0,1,0-.12.15.15,0,0,1,0-.11.24.24,0,0,1,.18-.06Zm-3.25,3.32h-.45L337,391.42h-.38a.18.18,0,0,1-.05-.07.16.16,0,0,1,0-.09.13.13,0,0,1,0-.08.12.12,0,0,1,.05-.05.28.28,0,0,1,.14,0H338c.07,0,.11,0,.13,0s0,0,.06.05a.13.13,0,0,1,0,.08.16.16,0,0,1,0,.09.23.23,0,0,1-.07.07h-.73l1.49,3.83h0l1.48-3.83h-.75l-.06-.07a.29.29,0,0,1,0-.09.24.24,0,0,1,0-.08l.07-.05s.06,0,.12,0h1.21c.06,0,.1,0,.12,0a.18.18,0,0,1,.07.05.24.24,0,0,1,0,.08.29.29,0,0,1,0,.09l-.07.07h-.37Zm-3.88-4.33v-.14h-2.31v.28a.22.22,0,0,1,0,.16.13.13,0,0,1-.11,0,.18.18,0,0,1-.12,0,.28.28,0,0,1,0-.16v-.61h3v.52l-1.31,4.13a.22.22,0,0,1-.06.13.23.23,0,0,1-.11,0,.15.15,0,0,1-.11,0,.17.17,0,0,1,0-.11.52.52,0,0,1,0-.11Zm-5.31,1.35H328a.29.29,0,0,1-.17,0,.21.21,0,0,1,0-.12.21.21,0,0,1,0-.11.21.21,0,0,1,.17-.06h2.23v3.55a1.26,1.26,0,0,1-.17.69,1.14,1.14,0,0,1-.5.44,1.18,1.18,0,0,1-.55.12h-1a.27.27,0,0,1-.17,0,.2.2,0,0,1,0-.24.26.26,0,0,1,.17,0h1a.87.87,0,0,0,.66-.26,1,1,0,0,0,.26-.67Zm0-2v.83h-.48v-.83Zm-5,3.62h-.37l-1.23-2.81h-.06v3.83h.59a.23.23,0,0,1,.16.05.17.17,0,0,1,.05.12.16.16,0,0,1-.05.11.24.24,0,0,1-.16,0h-1.18a.3.3,0,0,1-.18,0,.15.15,0,0,1,0-.11.16.16,0,0,1,0-.12.3.3,0,0,1,.18-.05h.26v-3.83h-.2a.32.32,0,0,1-.17,0,.21.21,0,0,1-.05-.13.16.16,0,0,1,.05-.11.25.25,0,0,1,.17,0h.8l1.21,2.77,1.2-2.77h.79a.22.22,0,0,1,.16,0,.14.14,0,0,1,.06.11.18.18,0,0,1-.06.13.28.28,0,0,1-.16,0h-.2v3.83h.26a.23.23,0,0,1,.17.05.14.14,0,0,1,.06.12.14.14,0,0,1-.06.11s-.08,0-.17,0H325.6a.29.29,0,0,1-.17,0,.15.15,0,0,1,0-.11.16.16,0,0,1,0-.12.29.29,0,0,1,.17-.05h.59v-3.83h-.07Zm-3.27-.88a2.32,2.32,0,0,0-.46-1.42,1.41,1.41,0,0,0-1.18-.62,1.45,1.45,0,0,0-1.16.6,2.2,2.2,0,0,0-.48,1.44,2.16,2.16,0,0,0,.5,1.46,1.53,1.53,0,0,0,1.14.56,1.4,1.4,0,0,0,1.18-.61A2.31,2.31,0,0,0,321.64,393.35ZM320,395.7l-.42.32a2.26,2.26,0,0,1,.52-.07,1.65,1.65,0,0,1,.66.13.83.83,0,0,0,.86-.09.25.25,0,0,1,.14-.07.16.16,0,0,1,.12,0,.21.21,0,0,1,0,.12.17.17,0,0,1,0,.1,1.21,1.21,0,0,1-.37.22,1,1,0,0,1-.41.09,1.75,1.75,0,0,1-.46-.1,1.56,1.56,0,0,0-.55-.1,2.74,2.74,0,0,0-.45,0l-.63.12-.11,0a.16.16,0,0,1-.11-.05.17.17,0,0,1-.05-.12.15.15,0,0,1,.09-.13l.72-.53a1.89,1.89,0,0,1-1.1-.78,2.55,2.55,0,0,1-.45-1.52,2.43,2.43,0,0,1,.59-1.7,1.77,1.77,0,0,1,2.74,0,2.48,2.48,0,0,1,.59,1.7,2.44,2.44,0,0,1-.59,1.68A1.79,1.79,0,0,1,320,395.7Zm-3.49-3.38a2.31,2.31,0,0,0-.51-1.06,1,1,0,0,0-.7-.29,1,1,0,0,0-.72.35,1.28,1.28,0,0,0-.32.89,1.24,1.24,0,0,0,.32.87.91.91,0,0,0,1.15.21,1.42,1.42,0,0,0,.42-.37A4.52,4.52,0,0,0,316.54,392.32Zm.06.54a1.9,1.9,0,0,1-.6.65,1.23,1.23,0,0,1-.7.22,1.27,1.27,0,0,1-.64-.18,1.52,1.52,0,0,1-.5-.56,1.72,1.72,0,0,1-.18-.78,1.75,1.75,0,0,1,.36-1.07,1.16,1.16,0,0,1,1-.49,1.21,1.21,0,0,1,.79.28,1.66,1.66,0,0,1,.57.78,4.3,4.3,0,0,1,.26,1.55,2.48,2.48,0,0,1-.23,1.12,1.93,1.93,0,0,1-.42.6,2.59,2.59,0,0,1-.63.47,2.24,2.24,0,0,1-1,.24,1.16,1.16,0,0,1-.56-.13.19.19,0,0,1-.1-.15.14.14,0,0,1,.05-.11.16.16,0,0,1,.11-.05.47.47,0,0,1,.14.05.86.86,0,0,0,.34.06,1.87,1.87,0,0,0,1.39-.58,2,2,0,0,0,.6-1.48C316.62,393.2,316.61,393.05,316.6,392.86Zm-5,.95a1.3,1.3,0,0,0-.39-.95,1.25,1.25,0,0,0-.93-.39,1.24,1.24,0,0,0-.92.4,1.28,1.28,0,0,0-.39.94,1.33,1.33,0,0,0,.39,1,1.29,1.29,0,0,0,1.85,0A1.33,1.33,0,0,0,311.65,393.81Zm0-1v-.59h.76a.18.18,0,0,1,.15.06.14.14,0,0,1,.06.11.14.14,0,0,1-.06.12.21.21,0,0,1-.15,0H312v3.21a1.24,1.24,0,0,1-.13.58,1.34,1.34,0,0,1-.31.34,1.78,1.78,0,0,1-.4.26,1.17,1.17,0,0,1-.46.07h-.92a.29.29,0,0,1-.17,0,.2.2,0,0,1,0-.24.29.29,0,0,1,.17,0h.93a1,1,0,0,0,.5-.14,1.26,1.26,0,0,0,.39-.43,1,1,0,0,0,.08-.41v-1a1.59,1.59,0,0,1-2.48.23,1.69,1.69,0,0,1-.48-1.2,1.63,1.63,0,0,1,.48-1.18,1.57,1.57,0,0,1,1.15-.49A1.6,1.6,0,0,1,311.65,392.84Zm-4.71,1a1.3,1.3,0,0,0-.39-.95,1.27,1.27,0,0,0-.93-.39,1.22,1.22,0,0,0-.92.4,1.29,1.29,0,0,0-.4.94,1.34,1.34,0,0,0,.4,1,1.25,1.25,0,0,0,.92.39,1.27,1.27,0,0,0,.93-.39A1.33,1.33,0,0,0,306.94,393.81Zm0-1v-.59h.76a.18.18,0,0,1,.15.06.14.14,0,0,1,.06.11.14.14,0,0,1-.06.12.21.21,0,0,1-.15,0h-.44v3.21a1,1,0,0,1-.45.92,1.55,1.55,0,0,1-.39.26,1.17,1.17,0,0,1-.46.07H305a.29.29,0,0,1-.17,0,.2.2,0,0,1,0-.24.29.29,0,0,1,.17,0H306a1,1,0,0,0,.5-.14,1.17,1.17,0,0,0,.39-.43,1,1,0,0,0,.08-.41v-1a1.59,1.59,0,0,1-2.48.23,1.69,1.69,0,0,1-.48-1.2,1.63,1.63,0,0,1,.48-1.18,1.57,1.57,0,0,1,1.15-.49A1.61,1.61,0,0,1,306.94,392.84ZM302.07,394a3.41,3.41,0,0,0-.48-.09,4.28,4.28,0,0,0-.52,0,1.83,1.83,0,0,0-1.11.3.66.66,0,0,0-.3.54.64.64,0,0,0,.22.49,1,1,0,0,0,.67.19,1.94,1.94,0,0,0,.78-.15,2.62,2.62,0,0,0,.74-.54Zm0,1.6v-.46a2.31,2.31,0,0,1-1.49.59,1.34,1.34,0,0,1-.91-.29,1,1,0,0,1-.32-.72,1,1,0,0,1,.42-.81,1.92,1.92,0,0,1,1.25-.35l.48,0a3.05,3.05,0,0,1,.57.09v-.53a.54.54,0,0,0-.25-.45,1.1,1.1,0,0,0-.73-.2,3.56,3.56,0,0,0-1,.22l-.16,0a.14.14,0,0,1-.15-.15.11.11,0,0,1,0-.1c0-.05.18-.1.44-.17a3.55,3.55,0,0,1,.9-.16,1.38,1.38,0,0,1,.94.3.9.9,0,0,1,.34.68v2.13h.44a.26.26,0,0,1,.17.05.17.17,0,0,1,.05.12.16.16,0,0,1-.05.11.27.27,0,0,1-.17,0Zm-4.39-1.76a1.26,1.26,0,0,0-.41-.94,1.41,1.41,0,0,0-2,0,1.26,1.26,0,0,0-.41.94,1.28,1.28,0,0,0,.41,1,1.41,1.41,0,0,0,2,0A1.28,1.28,0,0,0,297.68,393.81Zm0-1v-.59h.76a.21.21,0,0,1,.17.06.15.15,0,0,1,0,.11.16.16,0,0,1,0,.12.25.25,0,0,1-.17,0H298v4.14h.44a.25.25,0,0,1,.17,0,.14.14,0,0,1,0,.11.15.15,0,0,1,0,.11s-.09.05-.17.05H296.9a.29.29,0,0,1-.17,0,.21.21,0,0,1,0-.12.18.18,0,0,1,0-.11.29.29,0,0,1,.17,0h.78v-1.94a1.66,1.66,0,0,1-1.39.71,1.72,1.72,0,0,1-1.23-.49,1.66,1.66,0,0,1-.49-1.2,1.6,1.6,0,0,1,.49-1.18,1.72,1.72,0,0,1,1.23-.49A1.68,1.68,0,0,1,297.68,392.84Zm-4.88-1.6v-.14h-2.3v.28a.22.22,0,0,1-.05.16.13.13,0,0,1-.11,0,.14.14,0,0,1-.11,0,.22.22,0,0,1-.05-.16v-.61h3v.52l-1.3,4.13a.22.22,0,0,1-.07.13.17.17,0,0,1-.1,0,.12.12,0,0,1-.11,0,.18.18,0,0,1-.05-.11.52.52,0,0,1,0-.11Zm-4.2,2.69a1.43,1.43,0,0,0-.43-1,1.31,1.31,0,0,0-1-.42,1.35,1.35,0,0,0-1,.42,1.45,1.45,0,0,0-.41,1,1.42,1.42,0,0,0,.41,1,1.35,1.35,0,0,0,1,.42,1.31,1.31,0,0,0,1-.42A1.4,1.4,0,0,0,288.6,393.93Zm-2.8-3.16v2.13a1.75,1.75,0,0,1,1.41-.76,1.62,1.62,0,0,1,1.21.52,1.71,1.71,0,0,1,.5,1.24,1.74,1.74,0,0,1-.51,1.28,1.61,1.61,0,0,1-1.2.52,1.72,1.72,0,0,1-1.41-.76v.63h-.75a.3.3,0,0,1-.18,0,.15.15,0,0,1,0-.11.16.16,0,0,1,0-.12.3.3,0,0,1,.18-.05h.43V391.1h-.43a.3.3,0,0,1-.18-.05.16.16,0,0,1,0-.12.15.15,0,0,1,0-.11.3.3,0,0,1,.18-.05Zm-1.92,4.8h-.41l-2.37-4v3.69h.59a.25.25,0,0,1,.17.05.17.17,0,0,1,.05.12.16.16,0,0,1-.05.11.25.25,0,0,1-.17,0h-1.18a.28.28,0,0,1-.18,0,.16.16,0,0,1-.05-.11.17.17,0,0,1,.05-.12.28.28,0,0,1,.18-.05h.26v-3.83h-.43a.35.35,0,0,1-.17,0,.2.2,0,0,1,0-.13.15.15,0,0,1,0-.11.27.27,0,0,1,.17,0h.85l2.37,4v-3.69H283a.4.4,0,0,1-.18,0,.2.2,0,0,1,0-.13.15.15,0,0,1,0-.11.3.3,0,0,1,.18,0h1.18a.22.22,0,0,1,.16,0,.16.16,0,0,1,.05.11.21.21,0,0,1-.05.13.28.28,0,0,1-.16,0h-.27Zm-4.82-1.64a1.38,1.38,0,0,0-.43-1,1.4,1.4,0,0,0-1-.43,1.43,1.43,0,0,0-1,.43,1.46,1.46,0,0,0,0,2.05,1.46,1.46,0,0,0,1,.42,1.43,1.43,0,0,0,1-.42A1.36,1.36,0,0,0,279.06,393.93Zm.34,0a1.66,1.66,0,0,1-.54,1.25,1.8,1.8,0,0,1-2.54,0,1.7,1.7,0,0,1-.53-1.24,1.8,1.8,0,0,1,3.07-1.26A1.66,1.66,0,0,1,279.4,393.93Zm-6.9-1.68v.82a5.36,5.36,0,0,1,.94-.73,1.21,1.21,0,0,1,.58-.16.78.78,0,0,1,.53.2c.17.12.25.22.25.29a.17.17,0,0,1-.06.12.14.14,0,0,1-.11,0h-.07l-.1-.09a.88.88,0,0,0-.23-.17.38.38,0,0,0-.19-.06,1.13,1.13,0,0,0-.51.17,6.51,6.51,0,0,0-1,.82v1.76h1.43a.21.21,0,0,1,.15.05.14.14,0,0,1,.06.12.14.14,0,0,1-.06.11.21.21,0,0,1-.15,0H271.4a.27.27,0,0,1-.17,0,.16.16,0,0,1-.05-.11.14.14,0,0,1,.05-.11.23.23,0,0,1,.17-.05h.78v-2.67h-.59a.26.26,0,0,1-.18,0,.17.17,0,0,1-.05-.12.16.16,0,0,1,.05-.11.22.22,0,0,1,.18-.06Zm-5.37,0v.5a1.92,1.92,0,0,1,.61-.47,1.46,1.46,0,0,1,1.29,0,1.06,1.06,0,0,1,.38.38,1,1,0,0,1,.18.55v2h.27a.22.22,0,0,1,.16.05.14.14,0,0,1,.06.12.14.14,0,0,1-.06.11.22.22,0,0,1-.16,0H269a.24.24,0,0,1-.16,0,.16.16,0,0,1-.05-.11.17.17,0,0,1,.05-.12.23.23,0,0,1,.16-.05h.27v-2a.78.78,0,0,0-.24-.58.93.93,0,0,0-.67-.23,1.09,1.09,0,0,0-.55.13,2.88,2.88,0,0,0-.67.63v2h.37a.23.23,0,0,1,.16.05.17.17,0,0,1,0,.12.16.16,0,0,1,0,.11.24.24,0,0,1-.16,0h-1.06a.29.29,0,0,1-.17,0,.15.15,0,0,1,0-.11.16.16,0,0,1,0-.12.29.29,0,0,1,.17-.05h.37v-2.66h-.27a.3.3,0,0,1-.18,0,.16.16,0,0,1,0-.12.15.15,0,0,1,0-.11.24.24,0,0,1,.18-.06Zm-2.56,3.32h-.4l-.71-2.06-.7,2.06h-.41l-.65-3h-.16a.3.3,0,0,1-.18,0,.16.16,0,0,1,0-.12.15.15,0,0,1,0-.11.24.24,0,0,1,.18-.06h.88a.18.18,0,0,1,.16.06.16.16,0,0,1,.05.11.17.17,0,0,1-.05.12.22.22,0,0,1-.16,0H262l.57,2.54.69-2h.38l.71,2,.55-2.54h-.41a.26.26,0,0,1-.17,0,.17.17,0,0,1-.05-.12.16.16,0,0,1,.05-.11.22.22,0,0,1,.17-.06h.88a.18.18,0,0,1,.16.06.14.14,0,0,1,.06.11.14.14,0,0,1-.06.12.22.22,0,0,1-.16,0h-.15Z" transform="translate(-247.98 -158.67)"/>
    <path d="M279.35,403.34h-3.51a.26.26,0,0,1-.17,0,.16.16,0,0,1,0-.12.15.15,0,0,1,0-.11.27.27,0,0,1,.17,0h3.51a.22.22,0,0,1,.16,0,.13.13,0,0,1,.05.11.13.13,0,0,1-.05.12A.22.22,0,0,1,279.35,403.34Zm0-1.16h-3.51a.26.26,0,0,1-.17-.05.15.15,0,0,1,0-.12.15.15,0,0,1,0-.11.27.27,0,0,1,.17,0h3.51a.22.22,0,0,1,.16,0,.13.13,0,0,1,.05.12c0,.05,0,.09-.05.11A.22.22,0,0,1,279.35,402.18Zm-5.12-.32v-.12a.22.22,0,0,1,0-.16.14.14,0,0,1,.11-.06.15.15,0,0,1,.13.06.22.22,0,0,1,0,.16v.73a.3.3,0,0,1,0,.18.17.17,0,0,1-.13,0,.15.15,0,0,1-.11,0,.21.21,0,0,1,0-.15.78.78,0,0,0-.36-.52,1.44,1.44,0,0,0-.9-.25,1.33,1.33,0,0,0-1.09.46,1.55,1.55,0,0,0-.37,1,1.38,1.38,0,0,0,.4,1,1.45,1.45,0,0,0,1.07.4,2.29,2.29,0,0,0,.76-.13,1.83,1.83,0,0,0,.7-.45.28.28,0,0,1,.15-.08.16.16,0,0,1,.11,0,.15.15,0,0,1,0,.11q0,.17-.39.42a2.48,2.48,0,0,1-1.39.4,1.71,1.71,0,0,1-1.27-.49,1.67,1.67,0,0,1-.51-1.25,1.76,1.76,0,0,1,1.8-1.81A1.79,1.79,0,0,1,274.23,401.86Zm-5.89.9v1.62a.25.25,0,0,1,0,.16.17.17,0,0,1-.12,0,.16.16,0,0,1-.11,0,.25.25,0,0,1-.05-.16v-1.62h-1.42a.23.23,0,0,1-.17-.05.14.14,0,0,1-.05-.11.17.17,0,0,1,.05-.12s.08,0,.17,0H268v-1.6a.22.22,0,0,1,.05-.16.16.16,0,0,1,.11-.05.17.17,0,0,1,.12.05.22.22,0,0,1,0,.16v1.6h1.42a.22.22,0,0,1,.16,0,.14.14,0,0,1,.06.12.13.13,0,0,1-.06.11.22.22,0,0,1-.16.05ZM263.63,400v4.48h1.26a.22.22,0,0,1,.16,0,.15.15,0,0,1,.06.13.14.14,0,0,1-.06.11.22.22,0,0,1-.16,0H262a.3.3,0,0,1-.18,0,.15.15,0,0,1,0-.11.17.17,0,0,1,0-.13.3.3,0,0,1,.18,0h1.26v-4.16h-.92a.3.3,0,0,1-.18,0,.17.17,0,0,1-.05-.12.14.14,0,0,1,.05-.11.24.24,0,0,1,.18,0Z" transform="translate(-247.98 -158.67)"/>
    <g>
      <rect class="cls-21" x="9.56" y="0.25" width="104.25" height="25.5" rx="3"/>
      <rect class="cls-22" x="9.56" y="0.25" width="104.25" height="25.5" rx="3"/>
    </g>
    <path d="M333.13,285.15a24.39,24.39,0,0,1,2.33.85v-2.9c-.28.13-1.38.57-2.33.87a17.55,17.55,0,0,1-2.54.6A16.76,16.76,0,0,1,333.13,285.15Z" transform="translate(-247.98 -158.67)"/>
    <polyline class="cls-22" points="86.85 125.88 121.02 125.88 121.02 277.37 91.68 277.37"/>
    <path d="M310.17,196a23,23,0,0,1,.85-2.34h-2.91A21.07,21.07,0,0,1,309,196a17.55,17.55,0,0,1,.6,2.54A17,17,0,0,1,310.17,196Z" transform="translate(-247.98 -158.67)"/>
    <line class="cls-22" x1="61.58" y1="35.57" x2="61.58" y2="25.86"/>
    <path d="M310.17,275.14a21.94,21.94,0,0,1,.85-2.33h-2.91a19.93,19.93,0,0,1,.87,2.32,17.55,17.55,0,0,1,.6,2.54A17.29,17.29,0,0,1,310.17,275.14Z" transform="translate(-247.98 -158.67)"/>
    <line class="cls-22" x1="61.58" y1="114.76" x2="61.58" y2="105.05"/>
    <path d="M310.17,319.54a21.94,21.94,0,0,1,.85-2.33h-2.91a20.69,20.69,0,0,1,.87,2.32,17.55,17.55,0,0,1,.6,2.54A17.29,17.29,0,0,1,310.17,319.54Z" transform="translate(-247.98 -158.67)"/>
    <line class="cls-22" x1="61.58" y1="159.16" x2="61.58" y2="145.96"/>
    <path d="M310.17,357.76a21.94,21.94,0,0,1,.85-2.33h-2.91a20.29,20.29,0,0,1,.87,2.33,17.47,17.47,0,0,1,.6,2.53A17.29,17.29,0,0,1,310.17,357.76Z" transform="translate(-247.98 -158.67)"/>
    <line class="cls-22" x1="61.58" y1="197.39" x2="61.58" y2="185.34"/>
    <rect class="cls-23" x="27.02" y="163.68" width="69.13" height="21.43"/>
    <text class="cls-20" transform="translate(39.79 176.61)">Verschlsseln</text>
    <g>
      <path class="cls-24" d="M297,317.69H271.15a11.75,11.75,0,0,0-22.67,4.2c0,.14,0,.27,0,.4s0,.27,0,.41a11.75,11.75,0,0,0,22.26,5.12h2.16a2.76,2.76,0,0,1,5.29,0h2.37a2.76,2.76,0,0,1,5.29,0h2.37a2.76,2.76,0,0,1,5.29,0h1.65l6.09-7V320Z" transform="translate(-247.98 -158.67)"/>
      <path class="cls-25" d="M301.25,320l-30.1-1.55a11.62,11.62,0,1,0-.41,9.33h2.16a2.76,2.76,0,0,1,5.29,0h2.37a2.76,2.76,0,0,1,5.29,0h2.37a2.76,2.76,0,0,1,5.29,0h1.65l6.09-7Z" transform="translate(-247.98 -158.67)"/>
      <path class="cls-26" d="M297,317.69H271.15a11.61,11.61,0,1,0-.41,9.33h2.16a2.76,2.76,0,0,1,5.29,0h2.37a2.76,2.76,0,0,1,5.29,0h2.37a2.76,2.76,0,0,1,5.29,0h1.65l6.09-7Z" transform="translate(-247.98 -158.67)"/>
      <path class="cls-27" d="M260.22,332.56A10.67,10.67,0,1,1,270.28,318l.23.6h26.27l3,1.66-5,5.79h-.53a3.8,3.8,0,0,0-6.67,0h-1a3.8,3.8,0,0,0-6.67,0h-1a3.8,3.8,0,0,0-6.67,0h-2l-.26.52A10.73,10.73,0,0,1,260.22,332.56Z" transform="translate(-247.98 -158.67)"/>
      <circle class="cls-14" cx="260.22" cy="321.89" r="9.27" transform="translate(-399.38 119.61) rotate(-45)"/>
      <text class="cls-28" transform="translate(4.11 166.77)">Priv</text>
    </g>
    <path d="M310.17,422.52a21.94,21.94,0,0,1,.85-2.33h-2.91a20.69,20.69,0,0,1,.87,2.32,17.55,17.55,0,0,1,.6,2.54A17.29,17.29,0,0,1,310.17,422.52Z" transform="translate(-247.98 -158.67)"/>
    <line class="cls-22" x1="61.58" y1="262.14" x2="61.58" y2="243.21"/>
    <rect class="cls-23" x="27.02" y="266.66" width="69.13" height="21.43"/>
    <text class="cls-20" transform="translate(39.99 279.59)">Entschlsseln</text>
    <g>
      <path class="cls-24" d="M297,420.67H271.15a11.75,11.75,0,0,0-22.67,4.2c0,.13,0,.27,0,.4s0,.27,0,.4a11.75,11.75,0,0,0,22.26,5.13h2.16a2.76,2.76,0,0,1,5.29,0h2.37a2.76,2.76,0,0,1,5.29,0h2.37a2.76,2.76,0,0,1,5.29,0h1.65l6.1-7V423Z" transform="translate(-247.98 -158.67)"/>
      <path class="cls-29" d="M301.26,423l-30.11-1.54a11.62,11.62,0,1,0-.41,9.33h2.16a2.76,2.76,0,0,1,5.29,0h2.37a2.76,2.76,0,0,1,5.29,0h2.37a2.76,2.76,0,0,1,5.29,0h1.65l6.1-7Z" transform="translate(-247.98 -158.67)"/>
      <path class="cls-30" d="M297,420.67H271.15a11.61,11.61,0,1,0-.41,9.33h2.16a2.76,2.76,0,0,1,5.29,0h2.37a2.76,2.76,0,0,1,5.29,0h2.37a2.76,2.76,0,0,1,5.29,0h1.65l6.1-7Z" transform="translate(-247.98 -158.67)"/>
      <path class="cls-31" d="M260.22,435.54A10.67,10.67,0,1,1,270.28,421l.23.6h26.27l3,1.66-5,5.79h-.53a3.8,3.8,0,0,0-6.67,0h-1a3.8,3.8,0,0,0-6.67,0h-1a3.8,3.8,0,0,0-6.67,0h-2l-.26.52A10.73,10.73,0,0,1,260.22,435.54Z" transform="translate(-247.98 -158.67)"/>
      <path class="cls-14" d="M269.5,424.87a9.28,9.28,0,1,1-9.28-9.27A9.28,9.28,0,0,1,269.5,424.87Z" transform="translate(-247.98 -158.67)"/>
      <text class="cls-28" transform="translate(3.84 269.75)">Pub</text>
    </g>
    <text class="cls-32" transform="translate(20.02 9.58)">Lisa, bitte bewege<tspan x="0" y="8.4">10CT zum Cafe. /John</tspan></text>
  </g>
</svg>
