<?xml version="1.0" encoding="UTF-8" standalone="no"?>
<svg
   xmlns:dc="http://purl.org/dc/elements/1.1/"
   xmlns:cc="http://creativecommons.org/ns#"
   xmlns:rdf="http://www.w3.org/1999/02/22-rdf-syntax-ns#"
   xmlns:svg="http://www.w3.org/2000/svg"
   xmlns="http://www.w3.org/2000/svg"
   xmlns:sodipodi="http://sodipodi.sourceforge.net/DTD/sodipodi-0.dtd"
   xmlns:inkscape="http://www.inkscape.org/namespaces/inkscape"
   version="1.1"
   id="svg2"
   xml:space="preserve"
   width="88.367996"
   height="209.52933"
   viewBox="0 0 88.367996 209.52933"
   sodipodi:docname="u02-04.ai"><metadata
     id="metadata8"><rdf:RDF><cc:Work
         rdf:about=""><dc:format>image/svg+xml</dc:format><dc:type
           rdf:resource="http://purl.org/dc/dcmitype/StillImage" /></cc:Work></rdf:RDF></metadata><defs
     id="defs6"><clipPath
       clipPathUnits="userSpaceOnUse"
       id="clipPath20"><path
         d="M 0,792 H 612 V 0 H 0 Z"
         id="path18" /></clipPath></defs><sodipodi:namedview
     pagecolor="#ffffff"
     bordercolor="#666666"
     borderopacity="1"
     objecttolerance="10"
     gridtolerance="10"
     guidetolerance="10"
     inkscape:pageopacity="0"
     inkscape:pageshadow="2"
     inkscape:window-width="640"
     inkscape:window-height="480"
     id="namedview4" /><g
     id="g10"
     inkscape:groupmode="layer"
     inkscape:label="u02-04"
     transform="matrix(1.3333333,0,0,-1.3333333,-327.25159,884.93064)"><path
       d="M 251.033,572.429 H 305.95 V 554.837 H 251.033 Z"
       style="fill:#cce4f2;fill-opacity:1;fill-rule:nonzero;stroke:#231f20;stroke-width:0.5;stroke-linecap:butt;stroke-linejoin:round;stroke-miterlimit:10;stroke-dasharray:none;stroke-opacity:1"
       id="path12" /><g
       id="g14"><g
         id="g16"
         clip-path="url(#clipPath20)"><text
           transform="matrix(1,0,0,-1,266.7261,561.127)"
           style="font-variant:normal;font-weight:normal;font-stretch:normal;font-size:6.3175px;font-family:Arial;-inkscape-font-specification:ArialMT;writing-mode:lr-tb;fill:#231f20;fill-opacity:1;fill-rule:nonzero;stroke:none"
           id="text24"><tspan
             x="0 4.2137723 8.7750072 12.98878 16.50131 20.01384"
             y="0"
             sodipodi:role="line"
             id="tspan22">SHA256</tspan></text><g
           id="g26"
           transform="translate(279.2261,541.1289)"><path
             d="m 0,0 c 0.283,0.951 0.547,1.57 0.85,2.334 l -2.903,-0.01 c 0.131,-0.271 0.576,-1.379 0.867,-2.326 0.313,-1.018 0.524,-1.939 0.602,-2.537 0.072,0.6 0.281,1.523 0.584,2.539"
             style="fill:#231f20;fill-opacity:1;fill-rule:nonzero;stroke:none"
             id="path28" /></g><g
           id="g30"
           transform="translate(278.6245,542.834)"><path
             d="M 0,0 V 11.833"
             style="fill:none;stroke:#231f20;stroke-width:0.5;stroke-linecap:butt;stroke-linejoin:miter;stroke-miterlimit:4;stroke-dasharray:none;stroke-opacity:1"
             id="path32" /></g><path
           d="M 251.033,606.509 H 305.95 V 588.917 H 251.033 Z"
           style="fill:#cce4f2;fill-opacity:1;fill-rule:nonzero;stroke:#231f20;stroke-width:0.5;stroke-linecap:butt;stroke-linejoin:round;stroke-miterlimit:10;stroke-dasharray:none;stroke-opacity:1"
           id="path34" /><text
           transform="matrix(1,0,0,-1,266.7261,595.207)"
           style="font-variant:normal;font-weight:normal;font-stretch:normal;font-size:6.3175px;font-family:Arial;-inkscape-font-specification:ArialMT;writing-mode:lr-tb;fill:#231f20;fill-opacity:1;fill-rule:nonzero;stroke:none"
           id="text38"><tspan
             x="0 4.2137723 8.7750072 12.98878 16.50131 20.01384"
             y="0"
             sodipodi:role="line"
             id="tspan36">SHA256</tspan></text><g
           id="g40"
           transform="translate(279.2261,575.2085)"><path
             d="m 0,0 c 0.283,0.951 0.547,1.57 0.85,2.334 l -2.903,-0.01 c 0.131,-0.271 0.576,-1.379 0.867,-2.326 0.313,-1.018 0.524,-1.939 0.602,-2.537 0.072,0.6 0.281,1.523 0.584,2.539"
             style="fill:#231f20;fill-opacity:1;fill-rule:nonzero;stroke:none"
             id="path42" /></g><g
           id="g44"
           transform="translate(278.6245,576.9136)"><path
             d="M 0,0 V 11.833"
             style="fill:none;stroke:#231f20;stroke-width:0.5;stroke-linecap:butt;stroke-linejoin:miter;stroke-miterlimit:4;stroke-dasharray:none;stroke-opacity:1"
             id="path46" /></g><g
           id="g48"
           transform="translate(279.2261,609.3291)"><path
             d="m 0,0 c 0.283,0.951 0.547,1.57 0.85,2.334 l -2.903,-0.01 c 0.131,-0.271 0.576,-1.379 0.867,-2.326 0.313,-1.018 0.524,-1.939 0.602,-2.537 0.072,0.6 0.281,1.523 0.584,2.539"
             style="fill:#231f20;fill-opacity:1;fill-rule:nonzero;stroke:none"
             id="path50" /></g><g
           id="g52"
           transform="translate(278.6245,611.0342)"><path
             d="M 0,0 V 11.833"
             style="fill:none;stroke:#231f20;stroke-width:0.5;stroke-linecap:butt;stroke-linejoin:miter;stroke-miterlimit:4;stroke-dasharray:none;stroke-opacity:1"
             id="path54" /></g><path
           d="m 260.343,663.448 h 36.563 v -40.379 h -36.563 z"
           style="fill:#e0e0e0;fill-opacity:1;fill-rule:nonzero;stroke:#231f20;stroke-width:0.5;stroke-linecap:butt;stroke-linejoin:round;stroke-miterlimit:10;stroke-dasharray:none;stroke-opacity:1"
           id="path56" /><path
           d="m 262.063,661.726 h 33.123 V 624.79 h -33.123 z"
           style="fill:#ffffff;fill-opacity:1;fill-rule:nonzero;stroke:none"
           id="path58" /><g
           id="g60"
           transform="translate(267.3745,661.7256)"><path
             d="m 0,0 h 23.602 c -2.024,-0.301 -4.303,-0.343 -6.116,-0.857 -3.238,0.53 -8.019,0.565 -11.25,0 C 4.346,-0.383 2.068,-0.297 0,0"
             style="fill:#ffffff;fill-opacity:1;fill-rule:evenodd;stroke:none"
             id="path62" /></g><g
           id="g64"
           transform="translate(264.8052,660.9907)"><path
             d="M 0,0 C 2.075,0.241 3.598,-1.131 4.77,-2.201 4.421,-2.75 4.126,-3.352 4.036,-4.157 c 0.081,-0.368 0.26,0.116 0.488,0 C 4.315,-4.356 4.479,-4.926 4.036,-4.892 3.308,-2.646 1.897,-1.08 0,0"
             style="fill:#f9aeca;fill-opacity:1;fill-rule:evenodd;stroke:none"
             id="path66" /></g><g
           id="g68"
           transform="translate(266.7632,660.9907)"><path
             d="M 0,0 C 1.788,0.321 3.705,-0.287 5.502,-0.367 4.879,-0.926 3.201,-1.081 3.301,-1.957 2.446,-1.546 1.537,-0.134 0,0"
             style="fill:#f9a75e;fill-opacity:1;fill-rule:evenodd;stroke:none"
             id="path70" /></g><g
           id="g72"
           transform="translate(279.7251,657.9326)"><path
             d="M 0,0 C 0.034,-0.795 -0.298,-2.326 0.122,-3.3 -0.537,-2.516 -0.374,-0.971 0,0"
             style="fill:#231f20;fill-opacity:1;fill-rule:evenodd;stroke:none"
             id="path74" /></g><g
           id="g76"
           transform="translate(276.0562,652.9194)"><path
             d="m 0,0 c -0.706,-0.489 -1.688,-1.254 -2.813,-0.61 -0.326,0.243 -0.261,0.878 -0.732,0.977 h -0.49 C -4.072,-1.727 -0.326,-1.899 0,0 M 1.956,-0.489 C 1.646,-0.603 0.831,-0.499 0.734,-0.244 -0.273,-2.148 -4.187,-2.17 -4.645,0.245 -5.143,0.21 -5.498,0.035 -5.992,0 c 1.781,1.758 6.41,0.882 7.948,-0.489"
             style="fill:#231f20;fill-opacity:1;fill-rule:evenodd;stroke:none"
             id="path78" /></g><g
           id="g80"
           transform="translate(285.5962,653.2861)"><path
             d="m 0,0 c -0.241,-0.695 -0.671,-1.154 -1.345,-1.223 -0.935,-0.096 -1.343,0.671 -2.08,0.856 0.473,-1.814 3.93,-1.719 4.157,0.245 C 0.589,0.019 0.302,0.016 0,0 M 2.69,-0.244 C 2.335,-0.591 1.827,-0.053 1.345,-0.122 0.859,-2.42 -3.074,-2.64 -4.036,-0.61 -4.04,-0.929 -4.665,-0.749 -5.259,-0.977 -3.878,0.68 0.703,1.203 2.69,-0.244"
             style="fill:#231f20;fill-opacity:1;fill-rule:evenodd;stroke:none"
             id="path82" /></g><g
           id="g84"
           transform="translate(272.021,653.2861)"><path
             d="m 0,0 h 0.49 c 0.471,-0.099 0.406,-0.734 0.733,-0.977 1.125,-0.644 2.106,0.122 2.812,0.61 C 3.709,-2.266 -0.037,-2.094 0,0"
             style="fill:#96cd56;fill-opacity:1;fill-rule:evenodd;stroke:none"
             id="path86" /></g><g
           id="g88"
           transform="translate(286.3286,653.1646)"><path
             d="m 0,0 c -0.228,-1.964 -3.685,-2.059 -4.157,-0.245 0.736,-0.185 1.144,-0.953 2.08,-0.856 0.674,0.069 1.103,0.527 1.345,1.223 C -0.431,0.138 -0.144,0.14 0,0"
             style="fill:#96cd56;fill-opacity:1;fill-rule:evenodd;stroke:none"
             id="path90" /></g><g
           id="g92"
           transform="translate(279.2358,650.5962)"><path
             d="M 0,0 C 0.457,0.032 0.785,0.192 0.98,0.488 H 0 Z M -0.245,0 C -0.035,0.656 -0.664,0.476 -1.1,0.488 -1.037,0.104 -0.542,0.15 -0.245,0 M 1.102,0.612 C 1.498,-0.149 0.188,0.059 0,-0.489 1.253,-0.827 2.64,-1.03 3.059,-2.202 c -1.431,1.443 -4.912,1.361 -6.36,0 0.472,1.119 1.826,1.352 3.056,1.713 -0.136,0.474 -0.88,0.342 -1.101,0.733 v 0.368 c 0.552,0.185 1.902,0.217 2.448,0"
             style="fill:#231f20;fill-opacity:1;fill-rule:evenodd;stroke:none"
             id="path94" /></g><g
           id="g96"
           transform="translate(278.1362,651.0845)"><path
             d="M 0,0 C 0.436,-0.012 1.064,0.167 0.854,-0.488 0.558,-0.338 0.063,-0.385 0,0"
             style="fill:#f9aeca;fill-opacity:1;fill-rule:evenodd;stroke:none"
             id="path98" /></g><g
           id="g100"
           transform="translate(279.2358,651.0845)"><path
             d="M 0,0 H 0.98 C 0.785,-0.296 0.457,-0.456 0,-0.488 Z"
             style="fill:#f9aeca;fill-opacity:1;fill-rule:evenodd;stroke:none"
             id="path102" /></g><g
           id="g104"
           transform="translate(273.4897,650.3506)"><path
             d="M 0,0 C 0.168,0.281 0.852,0.046 1.222,0.122 1.051,-0.157 0.371,0.078 0,0"
             style="fill:#231f20;fill-opacity:1;fill-rule:evenodd;stroke:none"
             id="path106" /></g><g
           id="g108"
           transform="translate(283.6401,650.3506)"><path
             d="M 0,0 C 0.249,0.281 1.015,0.045 1.466,0.122 1.219,-0.157 0.451,0.079 0,0"
             style="fill:#231f20;fill-opacity:1;fill-rule:evenodd;stroke:none"
             id="path110" /></g><g
           id="g112"
           transform="translate(276.7905,650.2295)"><path
             d="M 0,0 C -0.811,-0.575 -2.107,-0.664 -3.18,-0.98 -2.281,-0.49 -1.371,-0.015 0,0"
             style="fill:#231f20;fill-opacity:1;fill-rule:evenodd;stroke:none"
             id="path114" /></g><g
           id="g116"
           transform="translate(280.5815,645.2148)"><path
             d="m 0,0 c -0.97,-0.162 -1.888,-0.216 -2.569,-0.123 -0.786,0.11 1.2,0.064 1.713,0.244 C -0.471,0.182 -0.424,-0.098 0,0"
             style="fill:#231f20;fill-opacity:1;fill-rule:evenodd;stroke:none"
             id="path118" /></g><g
           id="g120"
           transform="translate(274.5913,633.5972)"><path
             d="M 0,0 C -0.869,-0.56 -1.133,-1.724 -1.469,-2.813 -2.664,-2.306 -1.469,0.298 0,0"
             style="fill:#f9a75e;fill-opacity:1;fill-rule:evenodd;stroke:none"
             id="path122" /></g><g
           id="g124"
           transform="translate(283.7612,633.4746)"><path
             d="M 0,0 C 0.005,0.119 0.15,0.095 0.244,0.123 0.523,0.087 0.961,-0.011 1.223,-0.245 1.787,-0.744 2.258,-2.279 1.469,-2.691 1.076,-2.109 0.986,-0.373 0,0"
             style="fill:#f9a75e;fill-opacity:1;fill-rule:evenodd;stroke:none"
             id="path126" /></g><g
           id="g128"
           transform="translate(291.9546,633.1079)"><path
             d="M 0,0 C 0.516,0.37 1.334,-1.055 0.49,-1.345 0.24,-0.983 0.396,-0.216 0,0"
             style="fill:#f9a75e;fill-opacity:1;fill-rule:evenodd;stroke:none"
             id="path130" /></g><g
           id="g132"
           transform="translate(264.8052,661.7256)"><path
             d="m 0,0 c -0.26,-0.232 -0.899,-0.079 -1.101,-0.368 1.998,-1.517 4.786,-3.256 4.892,-6.359 0.055,-1.56 -0.864,-3.032 -0.61,-5.014 0.037,-0.518 0.515,0.079 0.61,-0.245 -0.005,-0.984 0.25,-1.707 0.856,-2.078 0.26,-0.059 0.233,0.173 0.245,0.365 0.614,-0.364 1.154,-0.801 1.714,-1.221 0.002,-2.655 -1.377,-3.924 -1.836,-6.116 -3.367,1.65 -6.061,-2.12 -4.158,-5.015 -0.857,-1.098 -2.092,-1.819 -2.69,-3.178 0.319,-0.071 1.046,0.499 1.467,0.733 -0.175,-0.89 -1.156,-3.128 -0.245,-4.401 0.343,0.064 0.226,0.587 0.367,0.855 0.431,-1.119 0.793,-2.304 1.836,-2.813 0.288,0.104 -0.008,0.629 -0.123,0.734 1.255,-0.905 2.64,-2.739 5.257,-2.691 0.112,0.238 -0.607,0.693 -0.978,0.856 1.434,-0.096 3.613,-1.315 5.504,-0.611 -0.282,0.166 -0.546,0.352 -0.979,0.367 3.414,0.01 5.936,0.914 8.073,2.201 -0.092,0.276 -0.687,0.048 -0.979,0.122 0.768,0.252 1.609,0.429 2.324,0.734 -1.498,0.297 -2.855,0.734 -4.526,0.857 0.036,0.167 0.308,0.101 0.491,0.121 -0.221,0.475 -0.942,0.446 -1.591,0.489 0.312,0.384 0.516,0.868 0.489,1.592 0.189,-0.301 0.183,-0.798 0.243,-1.225 1.767,-1.231 4.773,-0.012 6.605,0.245 2.61,0.366 7.44,-0.754 7.461,1.712 0.008,0.911 -0.845,1.305 -1.713,1.59 0.608,1.077 1.815,2.228 1.834,3.915 0.026,2.267 -2.256,3.895 -4.767,2.811 -0.521,2.13 -1.881,3.419 -1.836,6.116 0.522,0.359 1.402,1.529 1.836,0.856 0.65,0.407 0.994,1.122 0.976,2.201 0.23,0.117 0.409,-0.367 0.489,0 0.515,1.95 -0.666,3.52 -0.612,5.136 0.102,3.05 3.024,4.709 4.893,6.359 -0.126,0.283 -0.563,0.252 -0.979,0.245 V 0 h 1.102 V -36.933 H -2.2 V 0 Z"
             style="fill:#ffffff;fill-opacity:1;fill-rule:evenodd;stroke:none"
             id="path134" /></g><g
           id="g136"
           transform="translate(286.0835,660.502)"><path
             d="M 0,0 C 1.582,0.417 3.443,0.553 5.383,0.611 4.217,0.023 2.969,-0.48 2.324,-1.59 2.262,-0.792 0.916,-0.343 0,0"
             style="fill:#f9a75e;fill-opacity:1;fill-rule:evenodd;stroke:none"
             id="path138" /></g><g
           id="g140"
           transform="translate(288.8979,656.834)"><path
             d="M 0,0 C 0.068,0.354 0.189,-0.189 0.365,-0.124 0.75,0.475 0.179,1.291 -0.121,1.956 1.004,3.151 2.358,4.121 4.525,4.279 2.768,2.977 1.201,1.488 0.489,-0.858 0.246,-0.652 0.294,-0.155 0,0"
             style="fill:#f9aeca;fill-opacity:1;fill-rule:evenodd;stroke:none"
             id="path142" /></g><g
           id="g144"
           transform="translate(279.7251,645.3359)"><path
             d="m 0,0 c -0.513,-0.18 -2.499,-0.134 -1.713,-0.244 0.682,-0.093 1.6,-0.039 2.569,0.123 C 0.433,-0.219 0.386,0.061 0,0 m -1.1,1.347 c 0.344,0.399 0.763,0.099 1.222,0 0.061,0.652 -1.621,0.361 -1.222,0 m 1.591,0.49 C 0.132,1.89 -0.291,2.516 -0.489,2.325 -0.301,2.099 0.122,1.475 0.491,1.837 m -2.08,0 c 0.463,-0.05 1.031,0.425 0.855,0.61 -0.201,-0.289 -0.63,-0.348 -0.855,-0.61 m 6.848,0.61 C 4.229,3.008 3.313,4.332 2.078,4.282 3.159,3.771 4.267,2.638 5.259,2.447 M -6.235,2.325 c 0.916,0.794 2.158,1.264 3.056,2.078 -1.3,-0.329 -2.583,-1.329 -3.056,-2.078 M 5.015,3.914 C 5.351,3.896 5.185,3.876 4.893,4.036 4.09,4.478 2.71,4.997 1.714,4.771 3.384,4.419 4.028,3.971 5.015,3.914 m -11.129,0 c 1.072,0.315 2.369,0.404 3.179,0.98 C -4.306,4.879 -5.216,4.403 -6.114,3.914 M 5.381,5.137 C 4.93,5.06 4.164,5.295 3.915,5.015 4.366,5.094 5.134,4.857 5.381,5.137 m -10.395,0 c -0.37,-0.076 -1.053,0.158 -1.221,-0.122 0.371,0.077 1.05,-0.157 1.221,0.122 m -1.713,0.49 C -6.231,5.251 -4.837,5.234 -4.28,5.749 -5.029,5.329 -6.746,5.643 -6.727,5.627 m 12.108,0 C 4.571,5.247 3.349,5.771 2.937,5.749 3.458,5.475 4.819,5.091 5.381,5.627 M -1.835,5.872 V 5.504 C -1.614,5.113 -0.87,5.245 -0.734,4.771 -1.964,4.411 -3.318,4.177 -3.79,3.058 c 1.448,1.361 4.929,1.443 6.359,0 -0.419,1.172 -1.805,1.375 -3.058,1.713 0.187,0.548 1.498,0.34 1.101,1.101 -0.546,0.217 -1.895,0.185 -2.447,0 M 0.612,6.973 C 1.206,7.202 1.831,7.021 1.835,7.34 2.797,5.311 6.73,5.53 7.216,7.829 7.698,7.897 8.206,7.359 8.562,7.706 6.574,9.153 1.993,8.63 0.612,6.973 m -10.273,0.61 c 0.494,0.036 0.849,0.21 1.348,0.246 0.458,-2.416 4.371,-2.393 5.378,-0.489 0.097,-0.256 0.913,-0.36 1.222,-0.245 -1.538,1.37 -6.167,2.246 -7.948,0.488 M -1.1,9.784 c -0.484,-0.963 0.139,-0.285 0.244,0.49 0.111,0.817 -0.037,1.899 -0.366,2.201 0.201,-0.737 0.099,-1.776 0.122,-2.691 M 0.122,9.297 c -0.42,0.974 -0.088,2.504 -0.122,3.3 -0.374,-0.971 -0.537,-2.516 0.122,-3.3 M 7.46,14.065 C 7.972,13.72 8.464,13.356 8.928,12.964 8.967,12.716 8.575,12.99 8.562,13.087 8.282,12.84 9.127,12.68 9.052,12.231 8.802,12.267 8.811,12.562 8.562,12.597 9.323,10.792 9.985,7.825 10.15,5.015 9.437,4.833 9.807,3.567 9.418,3.058 9.114,3.177 9.585,3.527 9.418,3.914 8.907,3.323 8.522,2.608 7.705,2.325 7.907,2.652 8.224,2.866 8.44,3.18 6.707,1.773 3.685,0.598 0.491,0.246 c 2.377,-0.339 4.584,0.551 6.237,1.346 -0.026,-3.991 3.81,-8.765 0.61,-12.354 0.083,-0.266 0.407,0.233 0.489,0.368 0.383,-0.197 -0.251,-0.387 -0.244,-0.611 1.393,1.164 2.195,3.557 1.59,5.992 4.16,1.65 4.834,-4.022 2.447,-5.749 -0.572,-0.054 -0.787,0.241 -1.224,0 0.123,-0.2 0.519,-0.132 0.733,-0.243 -0.248,-0.28 -1.017,-0.045 -1.467,-0.123 1.422,-0.331 2.894,-0.611 2.567,-2.689 -0.463,-0.068 -0.764,-0.298 -1.345,-0.246 -0.102,1.283 -0.363,2.409 -1.589,2.568 0.95,-0.334 1.495,-1.516 1.222,-2.689 -1.301,-0.157 -2.948,-0.234 -4.035,-0.245 0.15,2.024 -0.721,3.03 -2.324,3.301 -0.091,1.009 -0.319,1.881 -0.366,2.937 0.396,0.742 1.17,1.109 1.101,2.321 C 4.638,-6.429 4.296,-6.902 3.915,-7.336 3.749,-7.299 3.812,-7.03 3.792,-6.847 3.276,-8.047 3.203,-9.829 3.548,-11.25 c -0.64,-0.299 -1.221,-0.654 -1.59,-1.223 0.598,0.134 1.007,0.459 1.59,0.612 0.878,-0.468 1.206,-1.484 1.345,-2.691 -0.296,-0.192 -0.523,-0.455 -1.101,-0.367 0.092,1.276 -0.404,1.961 -1.102,2.446 0.395,-0.484 0.86,-1.474 0.491,-2.323 -0.844,-0.248 -2.348,-0.162 -3.059,0.121 -0.342,2.593 -0.297,5.574 -0.856,7.95 -0.213,-2.678 -0.124,-5.664 -0.612,-8.071 -0.93,-0.057 -2.174,-0.282 -3.055,0 -0.243,0.804 0.084,1.683 0.488,2.2 -0.504,-0.111 -1.15,-1.129 -0.979,-2.323 -0.558,-0.111 -0.693,0.204 -1.099,0.244 0.034,1.353 0.391,2.379 1.344,2.814 0.511,-0.142 0.914,-0.393 1.345,-0.612 0.003,0.415 -0.845,1.026 -1.468,1.223 0.484,1.238 0.237,3.368 -0.122,4.525 -0.263,0.021 -0.054,-0.435 -0.122,-0.611 -0.324,0.449 -0.825,0.724 -0.856,1.466 -0.352,-0.925 0.392,-1.808 0.978,-2.198 -0.205,-0.977 -0.15,-2.216 -0.488,-3.06 -1.578,-0.209 -2.525,-1.587 -2.201,-3.301 -1.469,0.039 -3.014,0.005 -4.158,0.366 -0.037,1.302 0.229,2.298 1.343,2.446 -1.128,0.275 -1.597,-1.173 -1.589,-2.446 -0.581,-0.052 -0.881,0.178 -1.344,0.246 -0.478,1.727 0.889,2.596 2.568,2.567 -0.25,0.281 -1.015,0.044 -1.468,0.122 0.017,0.268 0.308,0.263 0.611,0.244 -0.153,0.518 -0.662,0.042 -1.1,0.122 -2.472,1.752 -1.81,7.325 2.446,5.749 -0.709,-2.386 0.212,-4.804 1.468,-5.992 0.267,0.082 -0.233,0.407 -0.367,0.488 0.109,0.332 0.272,-0.278 0.49,-0.245 -0.709,1.411 -1.265,2.869 -1.103,4.649 0.256,2.761 2.158,4.682 1.956,7.705 1.643,-0.886 3.567,-1.49 6.115,-1.469 -2.847,0.738 -5.938,1.237 -7.704,3.057 -0.131,-0.139 0.361,-0.693 0.613,-0.855 -0.532,0.082 -1.332,0.95 -1.713,1.589 -0.334,-0.111 0.17,-0.381 0,-0.734 -0.449,0.43 -0.229,1.968 -0.735,1.957 0.181,2.796 0.611,5.342 1.591,7.338 -0.039,0.259 -0.379,-0.175 -0.489,-0.244 -0.13,0.098 0.225,0.746 0.611,0.733 -0.774,-0.019 0.386,0.89 0.979,0.978 -0.125,0.345 -0.52,-0.033 -0.734,0 4.44,1.934 12.857,1.737 17.488,0.123 -0.151,-0.371 -0.42,0.133 -0.734,0"
             style="fill:#f9a75e;fill-opacity:1;fill-rule:evenodd;stroke:none"
             id="path146" /></g><g
           id="g148"
           transform="translate(272.3882,630.1724)"><path
             d="M 0,0 C 0.016,0.351 0.84,-0.104 0.855,0.245 0.467,0.426 -0.252,0.316 0,0 M 20.057,1.591 C 20.9,1.88 20.082,3.306 19.566,2.936 19.963,2.719 19.807,1.952 20.057,1.591 M -6.971,2.081 C -6.814,1.87 -6.718,1.598 -6.359,1.591 -6.547,2.311 -5.975,2.91 -6.115,3.179 -6.381,2.795 -6.946,2.708 -6.971,2.081 m 19.813,-1.47 c 0.789,0.412 0.318,1.947 -0.246,2.447 -0.262,0.233 -0.7,0.331 -0.979,0.367 C 11.523,3.397 11.378,3.421 11.373,3.302 12.359,2.929 12.449,1.193 12.842,0.611 m -12.108,0 C 1.07,1.701 1.334,2.865 2.203,3.425 0.734,3.723 -0.461,1.119 0.734,0.611 m -3.058,-5.258 c -0.451,0.486 -0.956,0.919 -1.1,1.712 1.188,-0.931 3.15,-1.742 4.891,-1.712 -0.516,0.18 -1.391,0.645 -1.344,0.978 2.753,-0.782 6.494,-0.289 8.438,0.856 -0.545,0.068 -1.127,0.097 -1.467,0.368 1.016,0.285 2.168,0.44 3.057,0.855 -1.69,0.39 -3.688,0.471 -5.382,0.857 0.077,0.168 0.47,0.017 0.489,0.244 C 3.857,-0.395 2.229,-0.72 1.223,-0.612 1.186,-0.33 1.575,-0.475 1.59,-0.244 0.51,-0.305 -0.938,-0.65 -1.957,-0.367 c 0.376,0.155 0.875,0.185 0.98,0.612 -2.263,0.191 -6.949,-0.068 -6.482,2.322 0.16,0.829 1.172,0.9 1.834,1.468 -0.374,0.199 -0.766,0.378 -0.857,0.857 -0.637,-0.341 -1.156,-0.801 -1.59,-1.346 0.396,0.055 0.662,0.235 1.101,0.245 -0.664,-0.845 -1.515,-2.15 -1.223,-3.546 0.042,0.286 0.126,0.526 0.366,0.612 0.156,-1.069 0.348,-2.099 0.857,-2.813 0.076,0.371 -0.158,1.054 0.123,1.223 0.908,-1.825 2.639,-3.477 4.524,-3.914 m 19.323,30.451 c 0.712,2.345 2.278,3.835 4.036,5.137 -2.167,-0.159 -3.521,-1.128 -4.646,-2.323 0.299,-0.666 0.871,-1.482 0.486,-2.08 -0.176,-0.065 -0.297,0.478 -0.365,0.124 0.294,-0.156 0.246,-0.652 0.489,-0.858 M 16.02,28.74 c 0.644,1.11 1.892,1.613 3.058,2.201 -1.939,-0.059 -3.801,-0.195 -5.383,-0.611 0.916,-0.343 2.262,-0.793 2.325,-1.59 m -18.344,0.122 c -0.1,0.875 1.578,1.031 2.201,1.589 -1.797,0.08 -3.714,0.689 -5.502,0.367 1.537,-0.134 2.446,-1.546 3.301,-1.956 m -1.223,-2.935 c 0.443,-0.035 0.279,0.535 0.488,0.735 -0.228,0.115 -0.407,-0.369 -0.488,0 0.09,0.805 0.385,1.406 0.734,1.956 -1.172,1.069 -2.695,2.441 -4.77,2.2 1.897,-1.08 3.308,-2.646 4.036,-4.891 m 19.078,3.302 C 10.9,30.843 2.482,31.04 -1.957,29.105 c 0.214,-0.032 0.609,0.345 0.734,0 -0.593,-0.088 -1.753,-0.996 -0.979,-0.977 -0.386,0.013 -0.741,-0.636 -0.611,-0.733 0.11,0.069 0.45,0.503 0.489,0.243 -0.98,-1.996 -1.41,-4.541 -1.591,-7.338 0.506,0.012 0.286,-1.527 0.735,-1.956 0.17,0.352 -0.334,0.622 0,0.733 0.381,-0.638 1.181,-1.507 1.713,-1.588 -0.252,0.161 -0.744,0.715 -0.613,0.855 1.766,-1.821 4.857,-2.319 7.704,-3.057 C 3.076,15.265 1.152,15.87 -0.491,16.756 -0.289,13.733 -2.191,11.812 -2.447,9.05 -2.609,7.271 -2.053,5.813 -1.344,4.401 -1.563,4.369 -1.725,4.979 -1.834,4.647 -1.7,4.565 -1.2,4.241 -1.467,4.159 c -1.256,1.188 -2.178,3.606 -1.469,5.992 -4.255,1.576 -4.918,-3.997 -2.445,-5.75 0.438,-0.079 0.947,0.396 1.1,-0.122 -0.303,0.019 -0.594,0.024 -0.612,-0.244 0.454,-0.077 1.219,0.159 1.469,-0.121 -1.68,0.028 -3.046,-0.841 -2.568,-2.568 0.463,-0.067 0.763,-0.298 1.344,-0.245 -0.008,1.273 0.46,2.72 1.589,2.445 C -4.173,3.399 -4.439,2.403 -4.402,1.101 -3.258,0.74 -1.713,0.773 -0.244,0.734 -0.568,2.448 0.379,3.826 1.957,4.035 2.295,4.879 2.24,6.119 2.445,7.096 1.859,7.486 1.115,8.368 1.467,9.294 1.498,8.552 1.999,8.276 2.323,7.828 2.391,8.004 2.182,8.459 2.445,8.438 2.804,7.281 3.051,5.152 2.567,3.914 3.189,3.717 4.038,3.105 4.035,2.691 3.604,2.91 3.201,3.161 2.689,3.302 1.737,2.868 1.38,1.841 1.346,0.489 1.752,0.448 1.887,0.134 2.445,0.245 2.273,1.438 2.92,2.457 3.424,2.567 3.02,2.05 2.693,1.171 2.936,0.367 3.817,0.085 5.061,0.311 5.991,0.367 6.479,2.775 6.39,5.76 6.603,8.438 7.162,6.063 7.117,3.082 7.459,0.489 8.17,0.205 9.674,0.119 10.518,0.367 c 0.369,0.849 -0.096,1.84 -0.491,2.324 0.698,-0.486 1.194,-1.17 1.102,-2.446 0.578,-0.089 0.805,0.174 1.1,0.366 C 12.091,1.819 11.763,2.835 10.885,3.302 10.302,3.15 9.893,2.825 9.295,2.691 c 0.369,0.568 0.95,0.924 1.59,1.223 -0.345,1.42 -0.272,3.202 0.244,4.402 0.019,-0.183 -0.043,-0.451 0.123,-0.488 0.381,0.433 0.723,0.907 0.977,1.466 0.07,-1.212 -0.704,-1.579 -1.1,-2.322 0.047,-1.055 0.275,-1.928 0.366,-2.937 1.603,-0.271 2.474,-1.276 2.324,-3.301 1.087,0.012 2.734,0.089 4.035,0.246 0.273,1.173 -0.272,2.355 -1.222,2.689 1.225,-0.159 1.487,-1.285 1.589,-2.568 0.581,-0.053 0.882,0.178 1.345,0.245 0.327,2.079 -1.145,2.359 -2.567,2.689 0.45,0.078 1.219,-0.156 1.467,0.124 -0.214,0.111 -0.611,0.042 -0.734,0.242 0.438,0.242 0.653,-0.053 1.225,0 2.387,1.727 1.713,7.399 -2.447,5.75 0.605,-2.435 -0.197,-4.829 -1.59,-5.992 -0.007,0.224 0.627,0.413 0.244,0.611 -0.082,-0.135 -0.406,-0.634 -0.489,-0.369 3.2,3.589 -0.636,8.364 -0.611,12.355 -1.652,-0.795 -3.859,-1.686 -6.236,-1.347 3.193,0.353 6.216,1.528 7.949,2.935 -0.216,-0.315 -0.533,-0.529 -0.735,-0.855 0.817,0.283 1.202,0.998 1.713,1.588 0.167,-0.387 -0.304,-0.736 0,-0.855 0.389,0.508 0.018,1.775 0.732,1.956 -0.165,2.811 -0.827,5.777 -1.589,7.582 0.249,-0.034 0.241,-0.329 0.491,-0.365 0.075,0.449 -0.77,0.608 -0.491,0.855 0.014,-0.097 0.406,-0.371 0.367,-0.122 -0.464,0.392 -0.956,0.755 -1.468,1.101 0.314,0.132 0.583,-0.372 0.734,0 m -23.114,2.324 h 2.569 c 2.069,-0.297 4.346,-0.383 6.237,-0.857 3.23,0.565 8.011,0.53 11.25,0 1.812,0.514 4.091,0.556 6.115,0.857 h 2.568 v -0.122 c 0.416,0.007 0.853,0.037 0.979,-0.245 -1.869,-1.651 -4.791,-3.31 -4.893,-6.36 -0.054,-1.616 1.127,-3.186 0.612,-5.136 -0.08,-0.367 -0.259,0.117 -0.489,0 0.018,-1.079 -0.326,-1.794 -0.976,-2.201 -0.434,0.674 -1.314,-0.497 -1.836,-0.856 -0.045,-2.696 1.315,-3.986 1.836,-6.115 C 18.9,11.601 21.182,9.974 21.156,7.706 21.137,6.019 19.93,4.869 19.322,3.791 20.19,3.506 21.043,3.112 21.035,2.201 21.014,-0.265 16.184,0.855 13.574,0.489 11.742,0.232 8.736,-0.986 6.969,0.245 6.909,0.671 6.915,1.168 6.726,1.469 6.753,0.746 6.549,0.261 6.237,-0.123 6.886,-0.166 7.607,-0.137 7.828,-0.612 7.645,-0.631 7.373,-0.566 7.337,-0.733 9.008,-0.856 10.365,-1.292 11.863,-1.59 11.148,-1.895 10.307,-2.071 9.539,-2.324 9.831,-2.398 10.426,-2.17 10.518,-2.445 8.381,-3.732 5.859,-4.637 2.445,-4.647 c 0.433,-0.015 0.697,-0.201 0.979,-0.367 -1.891,-0.703 -4.07,0.515 -5.504,0.611 0.371,-0.162 1.09,-0.618 0.978,-0.855 -2.617,-0.049 -4.002,1.785 -5.257,2.69 0.115,-0.105 0.411,-0.63 0.123,-0.734 -1.043,0.51 -1.405,1.694 -1.836,2.813 -0.141,-0.267 -0.024,-0.791 -0.367,-0.855 -0.911,1.273 0.07,3.511 0.245,4.402 -0.421,-0.235 -1.148,-0.805 -1.467,-0.734 0.598,1.36 1.833,2.08 2.69,3.178 -1.903,2.895 0.791,6.665 4.158,5.016 0.459,2.191 1.838,3.461 1.836,6.115 -0.56,0.42 -1.1,0.857 -1.714,1.221 -0.012,-0.191 0.015,-0.423 -0.245,-0.365 -0.606,0.371 -0.861,1.094 -0.856,2.078 -0.095,0.325 -0.573,-0.273 -0.61,0.245 -0.254,1.982 0.665,3.455 0.61,5.014 -0.106,3.104 -2.894,4.842 -4.892,6.36 0.202,0.289 0.841,0.135 1.101,0.367"
             style="fill:#231f20;fill-opacity:1;fill-rule:evenodd;stroke:none"
             id="path150" /></g><g
           id="g152"
           transform="translate(278.5034,657.8105)"><path
             d="M 0,0 C 0.329,-0.302 0.477,-1.384 0.365,-2.2 0.261,-2.976 -0.362,-3.654 0.122,-2.691 0.099,-1.776 0.201,-0.736 0,0"
             style="fill:#231f20;fill-opacity:1;fill-rule:evenodd;stroke:none"
             id="path154" /></g><g
           id="g156"
           transform="translate(282.6616,651.0845)"><path
             d="M 0,0 C 0.412,0.023 1.635,-0.501 2.444,-0.122 1.883,-0.658 0.521,-0.273 0,0"
             style="fill:#231f20;fill-opacity:1;fill-rule:evenodd;stroke:none"
             id="path158" /></g><g
           id="g160"
           transform="translate(275.4448,651.0845)"><path
             d="M 0,0 C -0.557,-0.515 -1.951,-0.498 -2.446,-0.122 -2.466,-0.105 -0.749,-0.419 0,0"
             style="fill:#231f20;fill-opacity:1;fill-rule:evenodd;stroke:none"
             id="path162" /></g><g
           id="g164"
           transform="translate(281.439,650.1074)"><path
             d="M 0,0 C 0.996,0.226 2.376,-0.294 3.179,-0.735 3.471,-0.895 3.637,-0.875 3.301,-0.858 2.314,-0.801 1.67,-0.353 0,0"
             style="fill:#231f20;fill-opacity:1;fill-rule:evenodd;stroke:none"
             id="path166" /></g><g
           id="g168"
           transform="translate(276.5464,649.7393)"><path
             d="M 0,0 C -0.898,-0.814 -2.141,-1.284 -3.057,-2.078 -2.583,-1.329 -1.301,-0.33 0,0"
             style="fill:#231f20;fill-opacity:1;fill-rule:evenodd;stroke:none"
             id="path170" /></g><g
           id="g172"
           transform="translate(281.8032,649.6182)"><path
             d="M 0,0 C 1.235,0.05 2.151,-1.274 3.181,-1.835 2.188,-1.644 1.081,-0.511 0,0"
             style="fill:#231f20;fill-opacity:1;fill-rule:evenodd;stroke:none"
             id="path174" /></g><g
           id="g176"
           transform="translate(278.9907,647.7832)"><path
             d="M 0,0 C 0.177,-0.185 -0.392,-0.66 -0.854,-0.61 -0.63,-0.349 -0.2,-0.289 0,0"
             style="fill:#231f20;fill-opacity:1;fill-rule:evenodd;stroke:none"
             id="path178" /></g><g
           id="g180"
           transform="translate(279.2358,647.6611)"><path
             d="M 0,0 C 0.198,0.191 0.621,-0.436 0.98,-0.488 0.611,-0.85 0.188,-0.227 0,0"
             style="fill:#231f20;fill-opacity:1;fill-rule:evenodd;stroke:none"
             id="path182" /></g><g
           id="g184"
           transform="translate(279.8472,646.6831)"><path
             d="M 0,0 C -0.459,0.099 -0.878,0.398 -1.222,0 -1.621,0.36 0.061,0.651 0,0"
             style="fill:#231f20;fill-opacity:1;fill-rule:evenodd;stroke:none"
             id="path186" /></g><g
           id="g188"
           transform="translate(265.5405,629.4395)"><path
             d="M 0,0 C -0.281,-0.169 -0.047,-0.852 -0.123,-1.223 -0.633,-0.509 -0.824,0.521 -0.98,1.59 -1.221,1.504 -1.305,1.264 -1.347,0.978 c -0.292,1.396 0.56,2.701 1.224,3.546 -0.44,-0.01 -0.705,-0.19 -1.102,-0.245 0.435,0.545 0.954,1.005 1.59,1.346 C 0.457,5.146 0.849,4.967 1.223,4.768 0.561,4.2 -0.451,4.129 -0.611,3.3 -1.078,0.91 3.607,1.169 5.871,0.978 5.766,0.551 5.267,0.521 4.891,0.366 5.91,0.083 7.357,0.428 8.438,0.489 8.423,0.258 8.033,0.403 8.07,0.121 9.076,0.013 10.705,0.338 12.105,0.244 12.087,0.017 11.693,0.168 11.616,0 c 1.695,-0.386 3.693,-0.467 5.383,-0.857 -0.89,-0.415 -2.041,-0.57 -3.058,-0.855 0.34,-0.271 0.922,-0.3 1.467,-0.368 C 13.465,-3.225 9.724,-3.718 6.971,-2.936 6.924,-3.27 7.799,-3.734 8.314,-3.914 6.573,-3.944 4.611,-3.133 3.424,-2.202 3.567,-2.995 4.072,-3.428 4.523,-3.914 2.639,-3.477 0.907,-1.825 0,0"
             style="fill:#f9a75e;fill-opacity:1;fill-rule:evenodd;stroke:none"
             id="path190" /></g><g
           id="g192"
           transform="translate(266.2729,633.3516)"><path
             d="m 0,0 c 0.141,-0.27 -0.432,-0.869 -0.244,-1.588 -0.359,0.007 -0.455,0.279 -0.611,0.489 C -0.831,-0.472 -0.266,-0.384 0,0"
             style="fill:#ffffff;fill-opacity:1;fill-rule:evenodd;stroke:none"
             id="path194" /></g><g
           id="g196"
           transform="translate(273.2437,630.417)"><path
             d="M 0,0 C -0.016,-0.349 -0.84,0.106 -0.855,-0.245 -1.107,0.072 -0.389,0.182 0,0"
             style="fill:#ffffff;fill-opacity:1;fill-rule:evenodd;stroke:none"
             id="path198" /></g><path
           d="m 262.063,661.726 h 33.123 V 624.79 h -33.123 z"
           style="fill:none;stroke:#231f20;stroke-width:0.5;stroke-linecap:butt;stroke-linejoin:round;stroke-miterlimit:10;stroke-dasharray:none;stroke-opacity:1"
           id="path200" /><text
           transform="matrix(1,0,0,-1,244.8857,530.666)"
           style="font-variant:normal;font-weight:normal;font-stretch:normal;font-size:7px;font-family:Courier;-inkscape-font-specification:Courier;writing-mode:lr-tb;fill:#231f20;fill-opacity:1;fill-rule:nonzero;stroke:none"
           id="text210"><tspan
             x="0 4.1999998 8.3999996 12.6 16.799999 21 25.200001 29.4 33.599998 37.799999 42 46.200001 50.400002 54.599998 58.799999 63"
             y="0"
             sodipodi:role="line"
             id="tspan202">64d648b770479d4e</tspan><tspan
             x="0 4.1999998 8.3999996 12.6 16.799999 21 25.200001 29.4 33.599998 37.799999 42 46.200001 50.400002 54.599998 58.799999 63"
             y="8.0010004"
             sodipodi:role="line"
             id="tspan204">072b6c2674065957</tspan><tspan
             x="0 4.1999998 8.3999996 12.6 16.799999 21 25.200001 29.4 33.599998 37.799999 42 46.200001 50.400002 54.599998 58.799999 63"
             y="16.002001"
             sodipodi:role="line"
             id="tspan206">7fce884aa0377c2b</tspan><tspan
             x="0 4.1999998 8.3999996 12.6 16.799999 21 25.200001 29.4 33.599998 37.799999 42 46.200001 50.400002 54.599998 58.799999 63"
             y="24.003"
             sodipodi:role="line"
             id="tspan208">23a6b84940f6def7</tspan></text></g></g></g></svg>
