<svg xmlns="http://www.w3.org/2000/svg" xmlns:xlink="http://www.w3.org/1999/xlink" width="197.68" height="159.85" viewBox="0 0 197.68 159.85">
  <defs>
    <style>
      .cls-1 {
        isolation: isolate;
      }

      .cls-2 {
        fill: #f2f2f2;
      }

      .cls-3 {
        fill: #28708e;
      }

      .cls-12, .cls-13, .cls-14, .cls-15, .cls-20, .cls-3, .cls-4, .cls-5, .cls-6, .cls-7, .cls-8, .cls-9 {
        fill-rule: evenodd;
      }

      .cls-4 {
        fill: #e9e9e9;
      }

      .cls-5 {
        fill: #a7a7a7;
      }

      .cls-11, .cls-6 {
        fill: #fff;
      }

      .cls-7 {
        fill: #7a7a7a;
      }

      .cls-8 {
        fill: #8f8f8f;
      }

      .cls-9 {
        fill: #676767;
      }

      .cls-10 {
        fill: #dbdbdb;
      }

      .cls-10, .cls-16, .cls-22, .cls-23, .cls-24, .cls-25, .cls-27 {
        stroke: #000;
      }

      .cls-10, .cls-16, .cls-17, .cls-22, .cls-23, .cls-27, .cls-28 {
        stroke-linejoin: round;
      }

      .cls-10, .cls-16, .cls-17, .cls-19, .cls-22, .cls-23, .cls-24, .cls-25 {
        stroke-width: 0.5px;
      }

      .cls-12 {
        fill: #fbafc5;
      }

      .cls-13 {
        fill: #fda655;
      }

      .cls-15 {
        fill: #96c749;
      }

      .cls-16, .cls-17, .cls-19, .cls-25, .cls-27 {
        fill: none;
      }

      .cls-17 {
        stroke: gray;
      }

      .cls-18 {
        fill: url(#linear-gradient);
      }

      .cls-19 {
        stroke: #4d4d4d;
        stroke-miterlimit: 10;
      }

      .cls-20 {
        fill: #666;
      }

      .cls-21 {
        fill: #e0e0e0;
        mix-blend-mode: multiply;
      }

      .cls-22 {
        fill: #d0d1bc;
      }

      .cls-23 {
        fill: url(#linear-gradient-2);
      }

      .cls-24 {
        fill: url(#linear-gradient-3);
      }

      .cls-26 {
        fill: #2a8a2f;
      }

      .cls-28 {
        fill: #267520;
        stroke: #267520;
        stroke-width: 0.3px;
      }

      .cls-29 {
        fill: url(#linear-gradient-4);
      }

      .cls-30 {
        fill: url(#linear-gradient-5);
      }

      .cls-31 {
        font-size: 9.35px;
      }

      .cls-31, .cls-32 {
        font-family: ArialMT, Arial;
      }

      .cls-32 {
        font-size: 7px;
      }

      .cls-33 {
        font-family: Arial-BoldMT, Arial;
        font-weight: 700;
      }
    </style>
    <linearGradient id="linear-gradient" x1="98.58" y1="47.85" x2="105.39" y2="47.85" gradientUnits="userSpaceOnUse">
      <stop offset="0" stop-color="#cfcfcf"/>
      <stop offset="0.5" stop-color="#e6e6e6"/>
      <stop offset="0.96" stop-color="gray"/>
      <stop offset="1" stop-color="#787878"/>
    </linearGradient>
    <linearGradient id="linear-gradient-2" x1="320.06" y1="217.66" x2="324.25" y2="214.86" gradientUnits="userSpaceOnUse">
      <stop offset="0"/>
      <stop offset="0.09" stop-color="#040404"/>
      <stop offset="0.19" stop-color="#101010"/>
      <stop offset="0.28" stop-color="#252525"/>
      <stop offset="0.38" stop-color="#414141"/>
      <stop offset="0.47" stop-color="#666"/>
      <stop offset="0.5" stop-color="#737373"/>
      <stop offset="0.54" stop-color="#5f5f5f"/>
      <stop offset="0.63" stop-color="#3d3d3d"/>
      <stop offset="0.72" stop-color="#222"/>
      <stop offset="0.81" stop-color="#0f0f0f"/>
      <stop offset="0.9" stop-color="#040404"/>
      <stop offset="1"/>
    </linearGradient>
    <linearGradient id="linear-gradient-3" x1="293.95" y1="181.9" x2="317.17" y2="200.98" gradientUnits="userSpaceOnUse">
      <stop offset="0" stop-color="#a3a685"/>
      <stop offset="0.14" stop-color="#c4c6b1"/>
      <stop offset="0.3" stop-color="#e4e5db"/>
      <stop offset="0.43" stop-color="#f8f8f5"/>
      <stop offset="0.5" stop-color="#fff"/>
      <stop offset="0.58" stop-color="#fbfbfa"/>
      <stop offset="0.67" stop-color="#eff0ea"/>
      <stop offset="0.78" stop-color="#dcddd0"/>
      <stop offset="0.89" stop-color="#c1c3ad"/>
      <stop offset="1" stop-color="#a3a685"/>
    </linearGradient>
    <linearGradient id="linear-gradient-4" x1="288.54" y1="139.01" x2="341.32" y2="139.01" gradientUnits="userSpaceOnUse">
      <stop offset="0" stop-color="#5fb749"/>
      <stop offset="1" stop-color="#dbf1c6"/>
    </linearGradient>
    <linearGradient id="linear-gradient-5" x1="289.49" y1="139.01" x2="339.84" y2="139.01" gradientUnits="userSpaceOnUse">
      <stop offset="0" stop-color="#dbf1c6"/>
      <stop offset="1" stop-color="#5fb749"/>
    </linearGradient>
  </defs>
  <g class="cls-1">
    <g id="Layer_2" data-name="Layer 2">
      <rect class="cls-2" x="98.58" y="27.6" width="6.83" height="132"/>
      <path class="cls-3" d="M229.56,208.24c3.69,1.68,6.72-1.39,9.81-2,.75.85-.12,2.6.31,3.58,2.24,1.62,6.59,1,8.25,3.25-1,.78-2.31-.49-4.05-1-3-.84-6.26-.33-5.14-4.72-2.67,1.26-7.16,3.6-10.27,1.46a20.92,20.92,0,0,1-3.12,1.63,86.81,86.81,0,0,0-3.26,8.3c-2.17-.78-2.24-3.75-4.83-4.07a8.13,8.13,0,0,0-.78,2.44c.61.17,1.26-1.79,2.18-1.3.08,1.24-1.32,2.29-2.49,2.76-1.28-.81-.29-2.66,0-4.06a15.74,15.74,0,0,1-9.81,3.09,9,9,0,0,1-4.51-1.3c-2.82-2.12-2.07-7.66-.16-10.25,1.78-2.41,4.32-3.26,7.16-4.07a41.93,41.93,0,0,0,2-4.88c.88-.07,1.11-.23,1.4-1.14,4.61-1.8,9.93-2.85,13.7-5.53-4.78.88-10,2.48-14.95,3.9-1.56.45-3.13,1.27-4.67,1,.18-1,1.47-1.09,2.19-1.3,2.46-.74,5.22-1.5,7.93-2.28,3.53-1,7.31-2.46,10.9-2.11.09,1.7-1.69,2.18-2.8,2.76-3.39,1.76-8,3-11.83,4.56.63,2.1,2.19,3.24,3.42,4.71a28.26,28.26,0,0,1,5.45.65c1.85-2.24,3.38-5.25,5.13-7.8.48-.69,1.12-1.86,2-1.79-.29,1.89-1.88,3.26-3,4.88s-2,3.4-2.95,5c1.14.81,3,.85,3.42,2.44-1.41.32-2.35-1.21-3.74-1.46-2,2.41-3.06,5.79-4.51,8.78,2.59-.49,4.49-1.71,6.69-2.6.88-2,2.11-3.34,2.34-6.18.41-5.11,3.53-8.1,6.54-10.74a8.37,8.37,0,0,1,.93-1.95c.6-.15.56.4.93.48,3.17-2.28,9-3.84,14.32-3.41,1,.08,3.14.34,3.12,1.63,0,2.05-3.32,4.43-4.82,5.69C242.56,200,235.07,204.76,229.56,208.24Zm16.34-19c-4.27.36-9.42,1.72-11.67,4.39-1.34,1.58-2,3.94-3.11,6s-4,5.56-2.49,8A168.82,168.82,0,0,0,247,195.07c1.8-1.48,4-3.17,4.83-5.54C250,188.81,247.87,189,245.9,189.21Zm-17.59,13.66c.95-2.43,2.79-4.78,3.43-7C230.3,197.79,228.43,200.12,228.31,202.87Zm-18.21-1c1.37-.3,3.2-.14,4.51-.49a25.17,25.17,0,0,1-3-3.74C211.26,199.21,210.57,200.44,210.1,201.9Zm-.31,1a18.06,18.06,0,0,0-1.24,4.07c-.35,1.31-.44,3.16-1.56,3.74-.4-2.22,1-5.18,1.56-7.48-4.24.86-7.76,4.06-7.64,8.78.1,3.5,2.72,4.75,6.39,4.72,7.77-.07,13.45-7,8.25-14C214,202.4,211.8,202.77,209.79,202.87Zm8.87,5.86c.83-1.84,1.75-3.6,2.65-5.37a32.55,32.55,0,0,0-4.52-.65A16.46,16.46,0,0,1,218.66,208.73Zm7.63.16a6.41,6.41,0,0,0,1.4-.65c-.11-.48,0-1.15-.46-1.3C227,207.65,226.56,208.2,226.29,208.89Zm-8.56,5.05c2.08.37,2.8,2.16,4.05,3.41a16.2,16.2,0,0,1,2.18-5.69c0-.2-.05-.39-.32-.33C222,212.56,219.47,212.83,217.73,213.94Z" transform="translate(-171.59 -126.9)"/>
      <g>
        <path class="cls-4" d="M225.71,277c0,.58-2.41,1.05-5.38,1.05S215,277.57,215,277s2.41-1,5.37-1S225.71,276.42,225.71,277Z" transform="translate(-171.59 -126.9)"/>
        <g>
          <path class="cls-4" d="M219.19,255.56a2.53,2.53,0,0,1,.55,0Z" transform="translate(-171.59 -126.9)"/>
          <path class="cls-4" d="M218.89,255.57s.1,0,.15,0S218.94,255.56,218.89,255.57Z" transform="translate(-171.59 -126.9)"/>
          <path class="cls-5" d="M219,255.56h.85s.1,0,.15,0a6.27,6.27,0,0,1,4,1.42,2.83,2.83,0,0,0,.3.3,4.38,4.38,0,0,1,1,2.11,3.48,3.48,0,0,0-.56,0h0a4.29,4.29,0,0,0-3.45-3.09,10.57,10.57,0,0,0-2-.22c-2.76-.12-4.79,1.2-5.26,3.43-.15,0-.37,0-.52,0s0,0,0,0a4.37,4.37,0,0,1,1.09-2.33,3,3,0,0,0,.25-.25,6.17,6.17,0,0,1,4-1.42C218.94,255.56,219,255.59,219,255.56Z" transform="translate(-171.59 -126.9)"/>
          <path class="cls-4" d="M219.89,255.56s.13,0,.15,0S219.91,255.59,219.89,255.56Z" transform="translate(-171.59 -126.9)"/>
          <path class="cls-4" d="M224.82,259.4a25.26,25.26,0,0,1,.13,4v8.07a5.07,5.07,0,0,1,0,.78,2.05,2.05,0,0,1-.26.47,13.7,13.7,0,0,1-2.21,2.95,3.29,3.29,0,0,1-1.84,1.1,1.76,1.76,0,0,1-1.16-.29,5.18,5.18,0,0,1-.84-.64,1.14,1.14,0,0,0-.19-.19,16.86,16.86,0,0,1-2.29-3.34,2.74,2.74,0,0,0,0-.41,9.28,9.28,0,0,1,0-1.4v-4.31c0-.07,0-.1,0-.16h0c0,.76,0,1.53,0,2.27.13,0,.3,0,.45,0,0-.49,0-1.16,0-1.78,0-.22,0-.45-.07-.54a.29.29,0,0,0-.4,0V264c0-.2.07-.36.1-.55a3.49,3.49,0,0,1,.71-1.32.71.71,0,0,0,.15-.15,2.81,2.81,0,0,1,1.77-.7h.4a3,3,0,0,1,1.86.63,1.62,1.62,0,0,0,.19.18,2.24,2.24,0,0,1,.49,1.27v.14c0,1.57,0,3.2,0,4.79,0,.28-.53.25-.51-.05v-4.85c-.1-1.11-.88-1.53-2-1.58a1.09,1.09,0,0,0-.36,0,2.17,2.17,0,0,0-2.1,1.62,2,2,0,0,0-.13.58c0,.85,0,1.74,0,2.61,0,1.83,0,3.69,0,5.49a14.1,14.1,0,0,0,2.07,3,3.51,3.51,0,0,0,.33.34,2.43,2.43,0,0,0,1.29.71.22.22,0,0,0,.16,0,2.71,2.71,0,0,0,1.48-.86s0,0,0,0l.16-.16a14.87,14.87,0,0,0,2.2-3.07c0-.92,0-1.93,0-2.85,0-.28,0-.59,0-.85v-7.61a3.5,3.5,0,0,0-.13-1.37c-.6-1.94-2.4-2.7-4.86-2.8s-4.28,1-4.74,2.93a31.78,31.78,0,0,0-.1,3.94v5.46c0,.32,0,.67-.2.72a.25.25,0,0,1-.31-.18c0-.45,0-.94,0-1.37v-4.62a36.68,36.68,0,0,1,.08-4c.47-2.23,2.5-3.55,5.26-3.43a10.57,10.57,0,0,1,2,.22,4.29,4.29,0,0,1,3.45,3.09Zm.1,2.19a2.7,2.7,0,0,0,0-.91.27.27,0,0,0-.46,0v7.59h.48C224.93,266.19,224.92,263.78,224.92,261.59Z" transform="translate(-171.59 -126.9)"/>
          <path class="cls-5" d="M224.28,259.4c-.17,0-.31,0-.49,0a2.88,2.88,0,0,0-.61-1.07l-.19-.19a4.7,4.7,0,0,0-3-1s-.11,0-.16,0h-.65s-.13,0-.16,0a4.58,4.58,0,0,0-3,1,1.29,1.29,0,0,0-.17.16,2.73,2.73,0,0,0-.64,1.23,1.16,1.16,0,0,0-.49,0c.46-1.94,2.23-3,4.74-2.93S223.68,257.46,224.28,259.4Z" transform="translate(-171.59 -126.9)"/>
          <path class="cls-4" d="M219,257.13s.11,0,.16,0S219,257.12,219,257.13Z" transform="translate(-171.59 -126.9)"/>
          <path class="cls-4" d="M219.79,257.12c.05,0,.13,0,.16,0S219.82,257.14,219.79,257.12Z" transform="translate(-171.59 -126.9)"/>
          <path class="cls-4" d="M213.54,260v9.45C213.52,266.3,213.52,263.09,213.54,260Z" transform="translate(-171.59 -126.9)"/>
          <path class="cls-5" d="M215.1,260v3.94h0v-.45C215.1,262.31,215.07,261.12,215.1,260Z" transform="translate(-171.59 -126.9)"/>
          <path class="cls-4" d="M225.46,260s0,.1,0,.14S225.47,260,225.46,260Z" transform="translate(-171.59 -126.9)"/>
          <path class="cls-4" d="M225.46,262c0-.6,0-1.23,0-1.81V262Z" transform="translate(-171.59 -126.9)"/>
          <path class="cls-6" d="M224.92,268.26h-.48v-7.59a.27.27,0,0,1,.46,0,2.7,2.7,0,0,1,0,.91C224.92,263.78,224.93,266.19,224.92,268.26Z" transform="translate(-171.59 -126.9)"/>
          <path class="cls-4" d="M218.89,260.78a1.48,1.48,0,0,1,.42,0Z" transform="translate(-171.59 -126.9)"/>
          <path class="cls-5" d="M224.41,260.77v5h0v-2.4C224.41,262.5,224.39,261.61,224.41,260.77Z" transform="translate(-171.59 -126.9)"/>
          <path class="cls-5" d="M218.89,261.3a1.34,1.34,0,0,1,.4,0Z" transform="translate(-171.59 -126.9)"/>
          <path class="cls-5" d="M218.92,261.83a1.09,1.09,0,0,1,.36,0Z" transform="translate(-171.59 -126.9)"/>
          <path class="cls-5" d="M225.46,262h0c0,3.43,0,6.9,0,10.31V262Z" transform="translate(-171.59 -126.9)"/>
          <path class="cls-5" d="M218.92,262.34a1.15,1.15,0,0,1,.37,0Z" transform="translate(-171.59 -126.9)"/>
          <path class="cls-4" d="M222.34,263.12a.19.19,0,0,1,0,.18Z" transform="translate(-171.59 -126.9)"/>
          <path class="cls-4" d="M220.79,263.26v1.55h0C220.78,264.29,220.76,263.75,220.79,263.26Z" transform="translate(-171.59 -126.9)"/>
          <path class="cls-5" d="M222.34,263.35c0,1.67,0,3.38,0,5v-5S222.33,263.35,222.34,263.35Z" transform="translate(-171.59 -126.9)"/>
          <path class="cls-7" d="M225,263.35h.51V266H225Z" transform="translate(-171.59 -126.9)"/>
          <path class="cls-7" d="M223.91,263.36h.49V266h-.49Z" transform="translate(-171.59 -126.9)"/>
          <path class="cls-7" d="M221.83,263.38h.5v2.68a4.1,4.1,0,0,0-.5,0v-2.7Z" transform="translate(-171.59 -126.9)"/>
          <path class="cls-7" d="M220.79,263.4a4.42,4.42,0,0,1,.52,0v.07c0,.42,0,.92,0,1.33v3.45c0-.7,0-1.46,0-2.18a4.21,4.21,0,0,0-.51,0V263.4Z" transform="translate(-171.59 -126.9)"/>
          <path class="cls-7" d="M214.58,263.47h.51v2.68c-.17,0-.36,0-.51,0Z" transform="translate(-171.59 -126.9)"/>
          <path class="cls-7" d="M213.54,263.48h.52v2.68a4.35,4.35,0,0,0-.52,0Z" transform="translate(-171.59 -126.9)"/>
          <path class="cls-8" d="M221.31,263.48v1.33C221.29,264.4,221.29,263.9,221.31,263.48Z" transform="translate(-171.59 -126.9)"/>
          <path class="cls-5" d="M215.63,263.9s0-.12,0-.14S215.65,263.88,215.63,263.9Z" transform="translate(-171.59 -126.9)"/>
          <path class="cls-4" d="M217.18,266.13c0-.76,0-1.56,0-2.3V272C217.17,270.06,217.19,268.08,217.18,266.13Z" transform="translate(-171.59 -126.9)"/>
          <path class="cls-5" d="M215.63,264c0,.18,0,.43,0,.63h0Z" transform="translate(-171.59 -126.9)"/>
          <path class="cls-5" d="M216.15,266c0-.65,0-1.33,0-2v2Z" transform="translate(-171.59 -126.9)"/>
          <path class="cls-5" d="M220.77,264.81h0v3.53C220.76,267.19,220.78,266,220.77,264.81Z" transform="translate(-171.59 -126.9)"/>
          <path class="cls-8" d="M224.4,265.76h0v2.62c0-.75,0-1.56,0-2.34Z" transform="translate(-171.59 -126.9)"/>
          <path class="cls-6" d="M216.16,266v0a.29.29,0,0,1,.4,0c.09.09.07.32.07.54,0,.62,0,1.29,0,1.78-.15,0-.32,0-.45,0C216.15,267.51,216.17,266.74,216.16,266Z" transform="translate(-171.59 -126.9)"/>
          <path class="cls-5" d="M224.43,269.23c0,.92,0,1.93,0,2.85Z" transform="translate(-171.59 -126.9)"/>
          <path class="cls-5" d="M216.15,271.85a2.74,2.74,0,0,1,0,.41A2.74,2.74,0,0,1,216.15,271.85Z" transform="translate(-171.59 -126.9)"/>
          <path class="cls-5" d="M220.38,276.21h.16A.22.22,0,0,1,220.38,276.21Z" transform="translate(-171.59 -126.9)"/>
          <path class="cls-5" d="M220.2,277.24h.18A.28.28,0,0,1,220.2,277.24Z" transform="translate(-171.59 -126.9)"/>
          <path class="cls-4" d="M214.67,257.24a2,2,0,0,1,.25-.25A3,3,0,0,1,214.67,257.24Z" transform="translate(-171.59 -126.9)"/>
          <path class="cls-4" d="M215.81,258.3a1.29,1.29,0,0,1,.17-.16A1.29,1.29,0,0,1,215.81,258.3Z" transform="translate(-171.59 -126.9)"/>
          <path class="cls-4" d="M223,258.15l.19.19A1.7,1.7,0,0,1,223,258.15Z" transform="translate(-171.59 -126.9)"/>
          <path class="cls-4" d="M221.8,274.67a1.59,1.59,0,0,1,.13-.13A.53.53,0,0,1,221.8,274.67Z" transform="translate(-171.59 -126.9)"/>
          <path class="cls-4" d="M219.2,275a1.7,1.7,0,0,1,.19.19Z" transform="translate(-171.59 -126.9)"/>
          <path class="cls-4" d="M217.56,262.87l.12-.12A.46.46,0,0,1,217.56,262.87Z" transform="translate(-171.59 -126.9)"/>
          <path class="cls-4" d="M221.76,261.69l-.14-.14A.93.93,0,0,1,221.76,261.69Z" transform="translate(-171.59 -126.9)"/>
          <path class="cls-5" d="M216.46,261.76l.13-.12A.49.49,0,0,1,216.46,261.76Z" transform="translate(-171.59 -126.9)"/>
          <path class="cls-4" d="M224,257c.1.1.21.19.3.3A2.83,2.83,0,0,1,224,257Z" transform="translate(-171.59 -126.9)"/>
          <path class="cls-5" d="M218.45,275.6a1.14,1.14,0,0,1,.19.19Z" transform="translate(-171.59 -126.9)"/>
          <path class="cls-5" d="M217,262.15l.15-.15A.71.71,0,0,1,217,262.15Z" transform="translate(-171.59 -126.9)"/>
          <path class="cls-5" d="M221.15,261.93a1.07,1.07,0,0,1,.19.18A1.62,1.62,0,0,1,221.15,261.93Z" transform="translate(-171.59 -126.9)"/>
          <path class="cls-5" d="M218.76,275.16l.33.34A3.51,3.51,0,0,1,218.76,275.16Z" transform="translate(-171.59 -126.9)"/>
          <path class="cls-5" d="M222.07,275.31s.06-.06.09-.1,0,0,.07-.06Z" transform="translate(-171.59 -126.9)"/>
          <path class="cls-7" d="M222.72,276l.19-.19Z" transform="translate(-171.59 -126.9)"/>
          <path class="cls-5" d="M218.22,276.18l.17.18A1,1,0,0,1,218.22,276.18Z" transform="translate(-171.59 -126.9)"/>
          <path class="cls-5" d="M218,276l.18.18A.77.77,0,0,1,218,276Z" transform="translate(-171.59 -126.9)"/>
          <path class="cls-7" d="M222,275.35l.14-.14s-.07.06-.09.1S222.05,275.35,222,275.35Z" transform="translate(-171.59 -126.9)"/>
          <path class="cls-8" d="M224.28,259.4a3.5,3.5,0,0,1,.13,1.37c0,.84,0,1.73,0,2.59h-.49v-3.14a3.29,3.29,0,0,0-.12-.81C224,259.42,224.11,259.39,224.28,259.4Z" transform="translate(-171.59 -126.9)"/>
          <path class="cls-8" d="M225.38,259.4a3.38,3.38,0,0,1,.08.58s0,.12,0,.14v.1c0,.58,0,1.21,0,1.81v1.32H225a25.26,25.26,0,0,0-.13-4A3.48,3.48,0,0,1,225.38,259.4Z" transform="translate(-171.59 -126.9)"/>
          <path class="cls-8" d="M214.14,259.52a36.68,36.68,0,0,0-.08,4h-.52V260c0-.14,0-.27,0-.4s0,0,0,0S214,259.55,214.14,259.52Z" transform="translate(-171.59 -126.9)"/>
          <path class="cls-8" d="M215.17,259.53c0,.15-.06.29-.07.45,0,1.14,0,2.33,0,3.49h-.51a31.78,31.78,0,0,1,.1-3.94A1.16,1.16,0,0,1,215.17,259.53Z" transform="translate(-171.59 -126.9)"/>
          <path class="cls-7" d="M216.26,263.47c0,.19-.08.35-.1.55,0,.63,0,1.31,0,2,0,.06,0,.09,0,.16h-.47v-1.55c0-.2,0-.45,0-.63v-.06s0-.1,0-.14a1.32,1.32,0,0,1,0-.29,6,6,0,0,1,.6,0Z" transform="translate(-171.59 -126.9)"/>
          <path class="cls-7" d="M217.25,263.47a1.36,1.36,0,0,0-.05.36c0,.74,0,1.54,0,2.3h-.49V264a2,2,0,0,1,.13-.58A1.48,1.48,0,0,1,217.25,263.47Z" transform="translate(-171.59 -126.9)"/>
          <path class="cls-5" d="M221.82,268.31c0-1.59,0-3.22,0-4.79v2.56C221.83,266.82,221.85,267.59,221.82,268.31Z" transform="translate(-171.59 -126.9)"/>
          <path class="cls-9" d="M224.4,266c0,.78,0,1.59,0,2.34,0,.26,0,.57,0,.85v2.85a14.87,14.87,0,0,1-2.2,3.07s0,.05-.07.06l-.14.14a2.71,2.71,0,0,1-1.48.86h-.16a2.43,2.43,0,0,1-1.29-.71l-.33-.34a14.1,14.1,0,0,1-2.07-3v-6h.49c0,1.95,0,3.93,0,5.85a13.51,13.51,0,0,0,2,3l.19.19a2,2,0,0,0,.39.31.79.79,0,0,0,1,0,4.32,4.32,0,0,0,1-.82.53.53,0,0,0,.13-.13,18.31,18.31,0,0,0,2-2.62c0-1.93,0-3.92,0-5.88Z" transform="translate(-171.59 -126.9)"/>
          <path class="cls-9" d="M222.33,268.38a.77.77,0,0,1-1.54,0v-2.25a4.21,4.21,0,0,1,.51,0c0,.72,0,1.48,0,2.18,0,.3.48.33.51.05,0-.72,0-1.49,0-2.23a4.1,4.1,0,0,1,.5,0Z" transform="translate(-171.59 -126.9)"/>
          <path class="cls-8" d="M215.1,263.92c0,1.85,0,3.73,0,5.56v-5.56Z" transform="translate(-171.59 -126.9)"/>
          <path class="cls-5" d="M214.06,268.1c0,.43,0,.92,0,1.37C214,269,214.07,268.55,214.06,268.1Z" transform="translate(-171.59 -126.9)"/>
          <path class="cls-9" d="M215.09,269.48a.78.78,0,0,1-1.55-.06v-3.24a4.35,4.35,0,0,1,.52,0v1.94c0,.45,0,.94,0,1.37a.25.25,0,0,0,.31.18c.25,0,.2-.4.2-.72v-2.77c.15,0,.34,0,.51,0Z" transform="translate(-171.59 -126.9)"/>
          <path class="cls-5" d="M223.9,271.92c0-3.89,0-7.82,0-11.7V266C223.91,268,223.93,270,223.9,271.92Z" transform="translate(-171.59 -126.9)"/>
          <path class="cls-7" d="M216.69,266.64v5.49c0-1.8,0-3.66,0-5.49Z" transform="translate(-171.59 -126.9)"/>
          <path class="cls-8" d="M215.64,266.14v6.22c0-2.56,0-5.18,0-7.77h0Z" transform="translate(-171.59 -126.9)"/>
          <path class="cls-9" d="M225.46,272.34a19.15,19.15,0,0,1-2.42,3.31s-.08.09-.13.12l-.19.19a3.71,3.71,0,0,1-2.34,1.28h-.18a2.91,2.91,0,0,1-1.81-.88l-.17-.18,0,0L218,276c-.13-.13-.25-.29-.39-.43a18,18,0,0,1-2-3.19v-6.22h.47v4.31a9.28,9.28,0,0,0,0,1.4,2.74,2.74,0,0,0,0,.41,16.86,16.86,0,0,0,2.29,3.34l.19.19a5.18,5.18,0,0,0,.84.64,1.76,1.76,0,0,0,1.16.29,3.29,3.29,0,0,0,1.84-1.1,13.7,13.7,0,0,0,2.21-2.95,2.05,2.05,0,0,0,.26-.47,5.07,5.07,0,0,0,0-.78V266h.51Z" transform="translate(-171.59 -126.9)"/>
          <path class="cls-8" d="M216.59,261.64a3.39,3.39,0,0,1,2.3-.86h.42a3.55,3.55,0,0,1,2.31.77l.14.14a2.23,2.23,0,0,1,.58,1.43v.23s0,0,0,0h-.5a2.24,2.24,0,0,0-.49-1.27,1.07,1.07,0,0,0-.19-.18,3,3,0,0,0-1.86-.63,1.34,1.34,0,0,0-.4,0,2.81,2.81,0,0,0-1.77.7l-.15.15a3.49,3.49,0,0,0-.71,1.32h0a6,6,0,0,0-.6,0,3.18,3.18,0,0,1,.8-1.71A.49.49,0,0,0,216.59,261.64Z" transform="translate(-171.59 -126.9)"/>
          <path class="cls-8" d="M216.82,263.45a2.17,2.17,0,0,1,2.1-1.62h.36c1.15.05,1.93.47,2,1.58a4.42,4.42,0,0,0-.52,0v-.14c0-.78-.76-.86-1.5-.92a1.15,1.15,0,0,0-.37,0,1.94,1.94,0,0,0-1.24.41l-.12.12a1.71,1.71,0,0,0-.31.6A1.48,1.48,0,0,0,216.82,263.45Z" transform="translate(-171.59 -126.9)"/>
          <path class="cls-8" d="M216.69,264v2.61h0C216.68,265.77,216.66,264.88,216.69,264Z" transform="translate(-171.59 -126.9)"/>
        </g>
      </g>
      <g>
        <rect class="cls-10" x="119.08" y="115.02" width="40.37" height="44.59"/>
        <rect class="cls-11" x="120.98" y="116.92" width="36.57" height="40.79"/>
        <g>
          <path class="cls-6" d="M298.43,243.82h26.06a59.68,59.68,0,0,0-6.75.94,43.07,43.07,0,0,0-12.42,0C303.23,244.24,300.71,244.14,298.43,243.82Z" transform="translate(-171.59 -126.9)"/>
          <path class="cls-12" d="M295.59,244.63c2.3-.27,4,1.25,5.27,2.43a4.93,4.93,0,0,0-.81,2.16c.09.4.29-.13.54,0-.23.22,0,.85-.54.81A9.3,9.3,0,0,0,295.59,244.63Z" transform="translate(-171.59 -126.9)"/>
          <path class="cls-13" d="M297.76,244.63c2-.36,4.09.32,6.07.4-.69.62-2.54.79-2.43,1.76C300.46,246.34,299.45,244.78,297.76,244.63Z" transform="translate(-171.59 -126.9)"/>
          <path class="cls-14" d="M312.07,248c0,.88-.33,2.57.13,3.65C311.48,250.78,311.65,249.08,312.07,248Z" transform="translate(-171.59 -126.9)"/>
          <path class="cls-14" d="M310.18,254.08c-.35.13-1.24,0-1.35-.27-1.12,2.1-5.44,2.13-5.94-.54-.55,0-.94.23-1.49.27C303.37,251.6,308.48,252.57,310.18,254.08Zm-2.16-.54c-.78.54-1.87,1.38-3.11.67-.36-.26-.29-1-.81-1.07h-.54C303.52,255.45,307.66,255.64,308,253.54Z" transform="translate(-171.59 -126.9)"/>
          <path class="cls-14" d="M321.52,253.4c-.39.39-.95-.21-1.48-.13-.54,2.54-4.88,2.78-6,.54,0,.35-.69.15-1.35.4C314.27,252.38,319.33,251.81,321.52,253.4Zm-3-.26a1.76,1.76,0,0,1-1.48,1.34c-1,.11-1.49-.73-2.3-.94.52,2,4.34,1.9,4.59-.27C319.2,253.11,318.88,253.12,318.55,253.14Z" transform="translate(-171.59 -126.9)"/>
          <path class="cls-15" d="M303.56,253.14h.54c.52.1.45.81.81,1.07,1.24.71,2.33-.13,3.11-.67C307.66,255.64,303.52,255.45,303.56,253.14Z" transform="translate(-171.59 -126.9)"/>
          <path class="cls-15" d="M319.36,253.27c-.25,2.17-4.07,2.27-4.59.27.81.21,1.26,1.05,2.3.94a1.76,1.76,0,0,0,1.48-1.34C318.88,253.12,319.2,253.11,319.36,253.27Z" transform="translate(-171.59 -126.9)"/>
          <path class="cls-14" d="M312.74,255.43c.44.84-1,.61-1.21,1.22,1.38.37,2.91.59,3.37,1.89-1.57-1.6-5.42-1.51-7,0,.52-1.24,2-1.5,3.38-1.89-.15-.53-1-.38-1.22-.81v-.41A5.61,5.61,0,0,1,312.74,255.43Zm-1.48.68c.23-.73-.47-.53-.95-.54C310.38,256,310.93,255.94,311.26,256.11Zm.27,0a1.34,1.34,0,0,0,1.08-.54h-1.08Z" transform="translate(-171.59 -126.9)"/>
          <path class="cls-12" d="M310.31,255.57c.48,0,1.18-.19.95.54C310.93,255.94,310.38,256,310.31,255.57Z" transform="translate(-171.59 -126.9)"/>
          <path class="cls-12" d="M311.53,255.57h1.08a1.34,1.34,0,0,1-1.08.54Z" transform="translate(-171.59 -126.9)"/>
          <path class="cls-14" d="M305.18,256.38c.19-.31.94-.05,1.35-.14C306.34,256.55,305.59,256.29,305.18,256.38Z" transform="translate(-171.59 -126.9)"/>
          <path class="cls-14" d="M316.39,256.38c.28-.31,1.12-.05,1.62-.14C317.74,256.55,316.89,256.29,316.39,256.38Z" transform="translate(-171.59 -126.9)"/>
          <path class="cls-14" d="M308.83,256.51c-.9.64-2.33.73-3.51,1.08A7,7,0,0,1,308.83,256.51Z" transform="translate(-171.59 -126.9)"/>
          <path class="cls-14" d="M313,262.05a9.7,9.7,0,0,1-2.83.13c-.87-.12,1.32-.07,1.89-.27S312.55,262.15,313,262.05Z" transform="translate(-171.59 -126.9)"/>
          <path class="cls-13" d="M306.4,274.88c-1,.61-1.25,1.9-1.62,3.1C303.46,277.42,304.78,274.55,306.4,274.88Z" transform="translate(-171.59 -126.9)"/>
          <path class="cls-13" d="M316.53,275c0-.13.16-.1.26-.13a2.06,2.06,0,0,1,1.09.4c.62.55,1.14,2.25.27,2.7C317.71,277.34,317.61,275.42,316.53,275Z" transform="translate(-171.59 -126.9)"/>
          <path class="cls-13" d="M325.57,275.41c.57-.4,1.47,1.17.54,1.49C325.84,276.5,326,275.65,325.57,275.41Z" transform="translate(-171.59 -126.9)"/>
          <path class="cls-6" d="M295.59,243.82c-.28.25-1,.08-1.21.4,2.21,1.68,5.28,3.6,5.4,7,.06,1.73-.95,3.35-.68,5.54,0,.57.57-.09.68.27a2.47,2.47,0,0,0,1,2.3c.28.06.25-.2.27-.41a23.1,23.1,0,0,1,1.89,1.35c0,2.93-1.52,4.33-2,6.75-3.72-1.82-6.69,2.35-4.59,5.54-.95,1.21-2.31,2-3,3.51.35.08,1.16-.55,1.62-.81-.19,1-1.28,3.46-.27,4.86.38-.07.25-.65.4-.94.48,1.23.88,2.54,2,3.1.32-.11,0-.69-.13-.81,1.38,1,2.91,3,5.8,3,.12-.26-.67-.76-1.08-.94,1.58.1,4,1.45,6.08.67a2.06,2.06,0,0,0-1.08-.4,16.64,16.64,0,0,0,8.91-2.43c-.1-.31-.76-.06-1.08-.14.85-.28,1.78-.47,2.57-.81a37.57,37.57,0,0,0-5-.94c0-.19.34-.12.54-.14-.24-.52-1-.49-1.76-.54a2.43,2.43,0,0,0,.54-1.75,3.6,3.6,0,0,1,.27,1.35c1.95,1.36,5.27,0,7.3-.27,2.88-.41,8.21.83,8.23-1.89,0-1-.93-1.44-1.89-1.76.67-1.19,2-2.46,2-4.32,0-2.5-2.49-4.3-5.27-3.11-.57-2.35-2.07-3.77-2-6.75.57-.4,1.54-1.69,2-.94a2.57,2.57,0,0,0,1.08-2.43c.25-.13.45.4.54,0,.57-2.16-.73-3.89-.67-5.68.11-3.36,3.33-5.19,5.4-7-.14-.31-.62-.28-1.08-.27v-.13h1.21V284.6H293.16V243.82Z" transform="translate(-171.59 -126.9)"/>
          <path class="cls-13" d="M319.09,245.17a27.62,27.62,0,0,1,5.94-.68c-1.28.65-2.66,1.21-3.37,2.43C321.59,246,320.1,245.55,319.09,245.17Z" transform="translate(-171.59 -126.9)"/>
          <path class="cls-12" d="M322.2,249.22c.07-.39.21.21.4.13.42-.66-.21-1.56-.54-2.29a7.43,7.43,0,0,1,5.13-2.57,11,11,0,0,0-4.45,5.67C322.47,249.94,322.52,249.39,322.2,249.22Z" transform="translate(-171.59 -126.9)"/>
          <path class="cls-13" d="M320.31,246.38c.56.38,1.1.79,1.62,1.22,0,.27-.39,0-.41-.14-.31.28.63.45.54.95-.27,0-.26-.37-.54-.41a28.25,28.25,0,0,1,1.76,8.38c-.79.2-.38,1.6-.81,2.16-.34-.13.18-.52,0-1-.57.65-1,1.44-1.89,1.76.22-.36.57-.6.81-1a17.82,17.82,0,0,1-8.78,3.24,12.13,12.13,0,0,0,6.89-1.48c0,4.4,4.2,9.67.67,13.64.09.29.45-.26.54-.41.42.22-.28.43-.27.67a6.67,6.67,0,0,0,1.76-6.61c4.59-1.82,5.33,4.44,2.7,6.35-.63.06-.87-.27-1.35,0,.13.22.57.14.81.26-.28.31-1.12.05-1.62.14,1.57.37,3.19.68,2.83,3a4.7,4.7,0,0,1-1.48.27c-.12-1.42-.4-2.66-1.76-2.83a2.49,2.49,0,0,1,1.35,3c-1.44.17-3.25.25-4.45.27.16-2.24-.8-3.35-2.57-3.65-.1-1.11-.35-2.08-.41-3.24.44-.82,1.3-1.23,1.22-2.57a6.36,6.36,0,0,1-1.08,1.62c-.18,0-.11-.33-.14-.54a8.5,8.5,0,0,0-.26,4.87,4,4,0,0,0-1.76,1.35c.66-.15,1.11-.51,1.76-.68,1,.52,1.33,1.64,1.48,3a1.5,1.5,0,0,1-1.22.41,2.7,2.7,0,0,0-1.21-2.7,2.68,2.68,0,0,1,.54,2.56,6.52,6.52,0,0,1-3.38-.13c-.37-2.87-.32-6.16-.94-8.78-.24,3-.14,6.25-.68,8.91a10.3,10.3,0,0,1-3.37,0,2.81,2.81,0,0,1,.54-2.43c-.56.12-1.27,1.25-1.08,2.57-.62.12-.77-.23-1.22-.27,0-1.5.43-2.63,1.49-3.11a7.43,7.43,0,0,1,1.48.68c0-.46-.93-1.14-1.62-1.35a9.12,9.12,0,0,0-.13-5c-.3,0-.06.48-.14.67-.36-.49-.91-.8-.94-1.62a2.2,2.2,0,0,0,1.08,2.43,24.13,24.13,0,0,1-.54,3.38,2.9,2.9,0,0,0-2.43,3.65,18.7,18.7,0,0,1-4.6-.41c0-1.44.26-2.54,1.49-2.7-1.25-.3-1.76,1.3-1.75,2.7a4.71,4.71,0,0,1-1.49-.27c-.53-1.91,1-2.87,2.84-2.83-.28-.31-1.13,0-1.63-.14,0-.29.35-.29.68-.27-.17-.57-.73-.05-1.22-.13-2.73-1.94-2-8.09,2.71-6.35a6.77,6.77,0,0,0,1.62,6.61c.29-.09-.26-.44-.41-.53.12-.37.3.3.54.27a9.23,9.23,0,0,1-1.21-5.14c.28-3,2.38-5.17,2.16-8.5a13.54,13.54,0,0,0,6.75,1.62c-3.15-.82-6.56-1.37-8.51-3.38-.15.16.4.77.68,1-.59-.09-1.47-1.05-1.89-1.76-.37.13.18.42,0,.81-.5-.47-.26-2.17-.81-2.16a21.76,21.76,0,0,1,1.75-8.1c0-.29-.42.19-.54.27-.14-.11.25-.83.68-.81-.86,0,.42-1,1.08-1.08-.14-.38-.58,0-.81,0,4.9-2.14,14.19-1.92,19.31-.14C321,246.79,320.65,246.24,320.31,246.38Zm-8.11,5.27c-.46-1.08-.09-2.77-.13-3.65C311.65,249.08,311.48,250.78,312.2,251.65Zm-1.35-.54c-.53,1.06.16.32.27-.54a3.55,3.55,0,0,0-.4-2.43A14.13,14.13,0,0,1,310.85,251.11Zm-9.45,2.43c.55,0,.94-.23,1.49-.27.5,2.67,4.82,2.64,5.94.54.11.28,1,.4,1.35.27C308.48,252.57,303.37,251.6,301.4,253.54Zm11.34.67c.66-.25,1.35-.05,1.35-.4,1.07,2.24,5.41,2,6-.54.53-.08,1.09.52,1.48.13C319.33,251.81,314.27,252.38,312.74,254.21Zm-2.7,1.22v.41c.25.43,1.07.28,1.22.81-1.36.39-2.86.65-3.38,1.89,1.6-1.51,5.45-1.6,7,0-.46-1.3-2-1.52-3.37-1.89.21-.61,1.65-.38,1.21-1.22A5.61,5.61,0,0,0,310,255.43Zm8,.27c-.89.42-2.24-.16-2.7-.13C315.89,255.87,317.39,256.29,318,255.7Zm-13.37,0a2.65,2.65,0,0,0,2.7-.13A5.84,5.84,0,0,1,304.64,255.7Zm1.89.54c-.41.09-1.16-.17-1.35.14C305.59,256.29,306.34,256.55,306.53,256.24Zm11.48,0c-.5.09-1.34-.17-1.62.14C316.89,256.29,317.74,256.55,318,256.24Zm-12.69,1.35c1.18-.35,2.61-.44,3.51-1.08A7,7,0,0,0,305.32,257.59Zm12.29,0c.37,0,.18,0-.14-.13a5.77,5.77,0,0,0-3.51-.81C315.8,257,316.52,257.53,317.61,257.59Zm-12.43,1.76c1-.88,2.39-1.4,3.38-2.3A6.36,6.36,0,0,0,305.18,259.35Zm12.7-.14c-1.14-.62-2.15-2.08-3.52-2C315.56,257.75,316.78,259,317.88,259.21Zm-7.57.68c.52.05,1.14-.47.95-.68C311,259.53,310.56,259.6,310.31,259.89Zm2.3,0c-.4-.06-.86-.75-1.08-.54C311.74,259.6,312.2,260.28,312.61,259.89Zm-1.76.54c.38-.44.85-.11,1.35,0C312.27,259.71,310.41,260,310.85,260.43Zm1.22,1.48c-.57.2-2.76.15-1.89.27a9.7,9.7,0,0,0,2.83-.13C312.55,262.15,312.49,261.85,312.07,261.91Z" transform="translate(-171.59 -126.9)"/>
          <path class="cls-14" d="M295.59,243.82h2.84c2.28.32,4.8.42,6.89.94a43.07,43.07,0,0,1,12.42,0,59.68,59.68,0,0,1,6.75-.94h2.84V244c.46,0,.94,0,1.08.27-2.07,1.83-5.29,3.66-5.4,7-.06,1.79,1.24,3.52.67,5.68-.09.4-.29-.13-.54,0a2.57,2.57,0,0,1-1.08,2.43c-.48-.75-1.45.54-2,.94-.05,3,1.45,4.4,2,6.75,2.78-1.19,5.3.61,5.27,3.11,0,1.86-1.36,3.13-2,4.32,1,.32,1.9.75,1.89,1.76,0,2.72-5.35,1.48-8.23,1.89-2,.28-5.35,1.63-7.3.27a3.6,3.6,0,0,0-.27-1.35,2.43,2.43,0,0,1-.54,1.75c.72,0,1.52,0,1.76.54-.2,0-.5-.05-.54.14a37.57,37.57,0,0,1,5,.94c-.79.34-1.72.53-2.57.81.32.08,1-.17,1.08.14a16.64,16.64,0,0,1-8.91,2.43,2.06,2.06,0,0,1,1.08.4c-2.09.78-4.5-.57-6.08-.67.41.18,1.2.68,1.08.94-2.89.06-4.42-2-5.8-3,.12.12.45.7.13.81-1.15-.56-1.55-1.87-2-3.1-.15.29,0,.87-.4.94-1-1.4.08-3.88.27-4.86-.46.26-1.27.89-1.62.81.66-1.5,2-2.3,3-3.51-2.1-3.19.87-7.36,4.59-5.54.51-2.42,2-3.82,2-6.75a23.1,23.1,0,0,0-1.89-1.35c0,.21,0,.47-.27.41a2.47,2.47,0,0,1-1-2.3c-.11-.36-.63.3-.68-.27-.27-2.19.74-3.81.68-5.54-.12-3.42-3.19-5.34-5.4-7C294.6,243.9,295.31,244.07,295.59,243.82Zm25.53,2.56c-5.12-1.78-14.41-2-19.31.14.23,0,.67-.38.81,0-.66.1-1.94,1.1-1.08,1.08-.43,0-.82.7-.68.81.12-.08.5-.56.54-.27a21.76,21.76,0,0,0-1.75,8.1c.55,0,.31,1.69.81,2.16.18-.39-.37-.68,0-.81.42.71,1.3,1.67,1.89,1.76-.28-.18-.83-.79-.68-1,1.95,2,5.36,2.56,8.51,3.38a13.54,13.54,0,0,1-6.75-1.62c.22,3.33-1.88,5.46-2.16,8.5a9.23,9.23,0,0,0,1.21,5.14c-.24,0-.42-.64-.54-.27.15.09.7.44.41.53a6.77,6.77,0,0,1-1.62-6.61c-4.7-1.74-5.44,4.41-2.71,6.35.49.08,1.05-.44,1.22.13-.33,0-.66,0-.68.27.5.09,1.35-.17,1.63.14-1.86,0-3.37.92-2.84,2.83a4.71,4.71,0,0,0,1.49.27c0-1.4.5-3,1.75-2.7-1.23.16-1.53,1.26-1.49,2.7a18.7,18.7,0,0,0,4.6.41,2.9,2.9,0,0,1,2.43-3.65,24.13,24.13,0,0,0,.54-3.38,2.2,2.2,0,0,1-1.08-2.43c0,.82.58,1.13.94,1.62.08-.19-.16-.69.14-.67a9.12,9.12,0,0,1,.13,5c.69.21,1.63.89,1.62,1.35a7.43,7.43,0,0,0-1.48-.68c-1.06.48-1.45,1.61-1.49,3.11.45,0,.6.39,1.22.27-.19-1.32.52-2.45,1.08-2.57a2.81,2.81,0,0,0-.54,2.43,10.3,10.3,0,0,0,3.37,0c.54-2.66.44-5.95.68-8.91.62,2.62.57,5.91.94,8.78a6.52,6.52,0,0,0,3.38.13,2.68,2.68,0,0,0-.54-2.56,2.7,2.7,0,0,1,1.21,2.7,1.5,1.5,0,0,0,1.22-.41c-.15-1.33-.51-2.45-1.48-3-.65.17-1.1.53-1.76.68a4,4,0,0,1,1.76-1.35,8.5,8.5,0,0,1,.26-4.87c0,.21,0,.5.14.54a6.36,6.36,0,0,0,1.08-1.62c.08,1.34-.78,1.75-1.22,2.57.06,1.16.31,2.13.41,3.24,1.77.3,2.73,1.41,2.57,3.65,1.2,0,3-.1,4.45-.27a2.49,2.49,0,0,0-1.35-3c1.36.17,1.64,1.41,1.76,2.83a4.7,4.7,0,0,0,1.48-.27c.36-2.29-1.26-2.6-2.83-3,.5-.09,1.34.17,1.62-.14-.24-.12-.68,0-.81-.26.48-.27.72.06,1.35,0,2.63-1.91,1.89-8.17-2.7-6.35a6.67,6.67,0,0,1-1.76,6.61c0-.24.69-.45.27-.67-.09.15-.45.7-.54.41,3.53-4-.7-9.24-.67-13.64a12.13,12.13,0,0,1-6.89,1.48,17.82,17.82,0,0,0,8.78-3.24c-.24.35-.59.59-.81,1,.9-.32,1.32-1.11,1.89-1.76.18.43-.34.82,0,1,.43-.56,0-2,.81-2.16a28.25,28.25,0,0,0-1.76-8.38c.28,0,.27.37.54.41.09-.5-.85-.67-.54-.95,0,.11.45.41.41.14-.52-.43-1.06-.84-1.62-1.22C320.65,246.24,321,246.79,321.12,246.38ZM300.05,250c.49,0,.31-.59.54-.81-.25-.13-.45.4-.54,0a4.93,4.93,0,0,1,.81-2.16c-1.29-1.18-3-2.7-5.27-2.43A9.3,9.3,0,0,1,300.05,250Zm1.35-3.24c-.11-1,1.74-1.14,2.43-1.76-2-.08-4.1-.76-6.07-.4C299.45,244.78,300.46,246.34,301.4,246.79Zm20.26.13c.71-1.22,2.09-1.78,3.37-2.43a27.62,27.62,0,0,0-5.94.68C320.1,245.55,321.59,246,321.66,246.92Zm1.08,3.24a11,11,0,0,1,4.45-5.67,7.43,7.43,0,0,0-5.13,2.57c.33.73,1,1.63.54,2.29-.19.08-.33-.52-.4-.13C322.52,249.39,322.47,249.94,322.74,250.16ZM301.4,283.79a3.64,3.64,0,0,1-1.21-1.89,9.27,9.27,0,0,0,5.4,1.89c-.57-.2-1.54-.71-1.49-1.08a13.62,13.62,0,0,0,9.32-.95,3.4,3.4,0,0,1-1.62-.4,24.2,24.2,0,0,0,3.38-.95c-1.87-.43-4.08-.52-5.95-.94.09-.19.52,0,.54-.27-1.54-.11-3.34.25-4.45.13,0-.31.39-.15.4-.4-1.19.07-2.79.45-3.91.13.41-.17,1-.2,1.08-.67-2.5-.22-7.67.07-7.16-2.57.18-.91,1.29-1,2-1.62-.42-.22-.85-.42-.95-.94a5.61,5.61,0,0,0-1.76,1.48,9.07,9.07,0,0,1,1.22-.27,5,5,0,0,0-1.35,3.92c0-.32.14-.58.4-.68a7.45,7.45,0,0,0,.95,3.11c.08-.41-.17-1.17.14-1.35A8.14,8.14,0,0,0,301.4,283.79Zm3.38-5.81c.37-1.2.66-2.49,1.62-3.1C304.78,274.55,303.46,277.42,304.78,278Zm13.37,0c.87-.45.35-2.15-.27-2.7a2.06,2.06,0,0,0-1.09-.4c-.1,0-.26,0-.26.13C317.61,275.42,317.71,277.34,318.15,278Zm-21.88-1.62c.17.23.28.53.68.54-.21-.79.42-1.46.27-1.75C296.92,275.57,296.3,275.67,296.27,276.36Zm29.84.54c.93-.32,0-1.89-.54-1.49C326,275.65,325.84,276.5,326.11,276.9ZM304,278.66c0-.39.92.11.94-.27C304.48,278.19,303.69,278.31,304,278.66Z" transform="translate(-171.59 -126.9)"/>
          <path class="cls-14" d="M310.72,248.14a3.55,3.55,0,0,1,.4,2.43c-.11.86-.8,1.6-.27.54A14.13,14.13,0,0,0,310.72,248.14Z" transform="translate(-171.59 -126.9)"/>
          <path class="cls-14" d="M315.31,255.57c.46,0,1.81.55,2.7.13C317.39,256.29,315.89,255.87,315.31,255.57Z" transform="translate(-171.59 -126.9)"/>
          <path class="cls-14" d="M307.34,255.57a2.65,2.65,0,0,1-2.7.13A5.84,5.84,0,0,0,307.34,255.57Z" transform="translate(-171.59 -126.9)"/>
          <path class="cls-14" d="M314,256.65a5.77,5.77,0,0,1,3.51.81c.32.17.51.15.14.13C316.52,257.53,315.8,257,314,256.65Z" transform="translate(-171.59 -126.9)"/>
          <path class="cls-14" d="M308.56,257.05c-1,.9-2.36,1.42-3.38,2.3A6.36,6.36,0,0,1,308.56,257.05Z" transform="translate(-171.59 -126.9)"/>
          <path class="cls-14" d="M314.36,257.19c1.37-.06,2.38,1.4,3.52,2C316.78,259,315.56,257.75,314.36,257.19Z" transform="translate(-171.59 -126.9)"/>
          <path class="cls-14" d="M311.26,259.21c.19.21-.43.73-.95.68C310.56,259.6,311,259.53,311.26,259.21Z" transform="translate(-171.59 -126.9)"/>
          <path class="cls-14" d="M311.53,259.35c.22-.21.68.48,1.08.54C312.2,260.28,311.74,259.6,311.53,259.35Z" transform="translate(-171.59 -126.9)"/>
          <path class="cls-14" d="M312.2,260.43c-.5-.11-1-.44-1.35,0C310.41,260,312.27,259.71,312.2,260.43Z" transform="translate(-171.59 -126.9)"/>
          <path class="cls-13" d="M296.41,279.47c-.31.18-.06.94-.14,1.35a7.45,7.45,0,0,1-.95-3.11c-.26.1-.36.36-.4.68a5,5,0,0,1,1.35-3.92,9.07,9.07,0,0,0-1.22.27,5.61,5.61,0,0,1,1.76-1.48c.1.52.53.72.95.94-.74.63-1.85.71-2,1.62-.51,2.64,4.66,2.35,7.16,2.57-.12.47-.67.5-1.08.67,1.12.32,2.72-.06,3.91-.13,0,.25-.44.09-.4.4,1.11.12,2.91-.24,4.45-.13,0,.25-.45.08-.54.27,1.87.42,4.08.51,5.95.94a24.2,24.2,0,0,1-3.38.95,3.4,3.4,0,0,0,1.62.4,13.62,13.62,0,0,1-9.32.95c-.05.37.92.88,1.49,1.08a9.27,9.27,0,0,1-5.4-1.89,3.64,3.64,0,0,0,1.21,1.89A8.14,8.14,0,0,1,296.41,279.47Z" transform="translate(-171.59 -126.9)"/>
          <path class="cls-6" d="M297.22,275.15c.15.29-.48,1-.27,1.75-.4,0-.51-.31-.68-.54C296.3,275.67,296.92,275.57,297.22,275.15Z" transform="translate(-171.59 -126.9)"/>
          <path class="cls-6" d="M304.91,278.39c0,.38-.93-.12-.94.27C303.69,278.31,304.48,278.19,304.91,278.39Z" transform="translate(-171.59 -126.9)"/>
        </g>
        <rect class="cls-16" x="120.98" y="116.92" width="36.57" height="40.79"/>
      </g>
      <line class="cls-17" x1="98.58" y1="27.6" x2="98.58" y2="159.6"/>
      <g>
        <rect class="cls-18" x="98.58" y="36.63" width="6.82" height="22.44" rx="1"/>
        <rect class="cls-19" x="98.58" y="36.63" width="6.82" height="22.44" rx="1"/>
      </g>
      <polygon class="cls-20" points="103.72 34.57 100.25 34.57 101.98 31.03 103.72 34.57"/>
      <polygon class="cls-20" points="103.72 61.52 100.25 61.52 101.98 65.06 103.72 61.52"/>
      <rect class="cls-16" x="0.25" y="27.6" width="105.16" height="132"/>
      <g>
        <path class="cls-21" d="M335.43,225.07l-12.29-18.2c-.27-.4-.54-.45-.83-.33l-.8-1.19-.35.24-.65-1a15.49,15.49,0,1,0-2.76,1.83l.67,1-.35.23.81,1.19c-.22.22-.27.49,0,.89L331.17,228a1.74,1.74,0,0,0,2.4.5l1.43-1A1.75,1.75,0,0,0,335.43,225.07ZM299.7,200.14A13.18,13.18,0,1,1,318,203.68,13.18,13.18,0,0,1,299.7,200.14Z" transform="translate(-171.59 -126.9)"/>
        <g>
          <path class="cls-3" d="M306.59,194.15c1.92.87,3.49-.73,5.1-1,.39.44-.06,1.35.16,1.86,1.17.84,3.43.54,4.29,1.69-.51.41-1.2-.25-2.1-.5-1.56-.44-3.26-.17-2.67-2.46-1.4.66-3.73,1.88-5.34.76a10.92,10.92,0,0,1-1.63.85,42.61,42.61,0,0,0-1.69,4.32c-1.13-.41-1.17-2-2.51-2.12a4,4,0,0,0-.41,1.27c.32.09.65-.93,1.13-.68.05.65-.69,1.19-1.29,1.44-.67-.42-.15-1.38,0-2.11a8.24,8.24,0,0,1-5.1,1.6,4.67,4.67,0,0,1-2.35-.67c-1.47-1.1-1.07-4-.08-5.33a6.31,6.31,0,0,1,3.72-2.12,19.77,19.77,0,0,0,1.06-2.53c.45,0,.58-.13.72-.6,2.4-.93,5.17-1.48,7.13-2.88-2.49.46-5.21,1.29-7.77,2a5.61,5.61,0,0,1-2.43.5c.09-.5.76-.56,1.13-.67,1.29-.39,2.72-.78,4.13-1.19,1.83-.52,3.8-1.28,5.67-1.1,0,.89-.88,1.14-1.46,1.44-1.76.92-4.18,1.57-6.15,2.37a7,7,0,0,0,1.78,2.45,14.43,14.43,0,0,1,2.83.34c1-1.17,1.76-2.73,2.67-4.06.25-.36.58-1,1.06-.93-.16,1-1,1.7-1.54,2.54s-1,1.76-1.54,2.62c.6.42,1.57.44,1.78,1.27-.73.16-1.22-.63-1.94-.76a22.09,22.09,0,0,0-2.35,4.57,17.38,17.38,0,0,0,3.48-1.36,8.31,8.31,0,0,0,1.21-3.21c.22-2.66,1.84-4.21,3.41-5.59a4.48,4.48,0,0,1,.48-1c.31-.07.29.21.49.25a12.15,12.15,0,0,1,7.44-1.77c.5,0,1.63.18,1.62.84,0,1.07-1.73,2.31-2.51,3A93.06,93.06,0,0,1,306.59,194.15Zm8.5-9.9c-2.22.19-4.9.9-6.07,2.28a19.49,19.49,0,0,0-1.62,3.13c-.61,1.12-2.09,2.89-1.29,4.15a88.57,88.57,0,0,0,9.55-6.51,7.37,7.37,0,0,0,2.51-2.88A6.8,6.8,0,0,0,315.09,184.25Zm-9.15,7.1c.49-1.26,1.45-2.48,1.78-3.63A6.92,6.92,0,0,0,305.94,191.35Zm-9.47-.5c.72-.16,1.66-.07,2.35-.26a12.16,12.16,0,0,1-1.54-1.94C297.07,189.45,296.72,190.09,296.47,190.85Zm-.16.5a9.8,9.8,0,0,0-.65,2.12c-.18.68-.22,1.64-.81,1.95-.2-1.16.53-2.7.81-3.9a4.6,4.6,0,0,0-4,4.57c.05,1.82,1.41,2.47,3.31,2.46,4,0,7-3.66,4.29-7.28A14.65,14.65,0,0,0,296.31,191.35Zm4.61,3.05c.44-1,.91-1.87,1.38-2.79a18.18,18.18,0,0,0-2.35-.34A8.6,8.6,0,0,1,300.92,194.4Zm4,.08a3.24,3.24,0,0,0,.73-.33c-.06-.25,0-.6-.24-.68C305.24,193.84,305,194.13,304.89,194.48Zm-4.45,2.63c1.08.19,1.46,1.12,2.1,1.77a8.43,8.43,0,0,1,1.14-3c0-.1,0-.2-.17-.17C302.67,196.39,301.34,196.53,300.44,197.11Z" transform="translate(-171.59 -126.9)"/>
          <g>
            <g>
              <polygon class="cls-22" points="144.61 76.92 144.26 77.16 143.38 75.85 140.64 77.7 141.53 79.01 141.18 79.25 142.23 80.8 145.67 78.48 144.61 76.92"/>
              <path class="cls-23" d="M330.12,223.54a1.75,1.75,0,0,1-.43,2.42l-1.43,1a1.74,1.74,0,0,1-2.4-.5l-12.29-18.2c-.54-.81.21-1.06,1-1.59l1.42-1c.78-.52,1.29-1.13,1.84-.33Z" transform="translate(-171.59 -126.9)"/>
            </g>
            <path class="cls-24" d="M296.65,178.43a15.45,15.45,0,1,0,21.45,4.15A15.44,15.44,0,0,0,296.65,178.43Zm16,23.72a13.18,13.18,0,1,1,3.54-18.3A13.17,13.17,0,0,1,312.68,202.15Z" transform="translate(-171.59 -126.9)"/>
          </g>
        </g>
      </g>
      <path d="M311.46,217.87c.28.95.54,1.57.84,2.34h-2.9a22.43,22.43,0,0,0,.87-2.33,17.55,17.55,0,0,0,.6-2.54A15.83,15.83,0,0,0,311.46,217.87Z" transform="translate(-171.59 -126.9)"/>
      <line class="cls-25" x1="139.27" y1="92.68" x2="139.27" y2="114.8"/>
      <path d="M311.46,170.58a24.51,24.51,0,0,1,.84-2.33h-2.9a22.43,22.43,0,0,1,.87,2.33,17.47,17.47,0,0,1,.6,2.53A16.07,16.07,0,0,1,311.46,170.58Z" transform="translate(-171.59 -126.9)"/>
      <line class="cls-25" x1="139.27" y1="41.98" x2="139.27" y2="23.94"/>
      <path d="M284.51,196.61a24.51,24.51,0,0,1-2.33-.84v2.9a22.94,22.94,0,0,1,2.32-.87,17.55,17.55,0,0,1,2.54-.6A16.07,16.07,0,0,1,284.51,196.61Z" transform="translate(-171.59 -126.9)"/>
      <line class="cls-25" x1="111.22" y1="70.32" x2="79.41" y2="70.32"/>
      <path d="M344.73,196.61c-1-.28-1.57-.54-2.34-.84v2.9a22.43,22.43,0,0,1,2.33-.87,17.55,17.55,0,0,1,2.54-.6A15.83,15.83,0,0,1,344.73,196.61Z" transform="translate(-171.59 -126.9)"/>
      <line class="cls-25" x1="171.44" y1="70.32" x2="153.25" y2="70.32"/>
      <path class="cls-26" d="M367.91,191.93a10.93,10.93,0,1,1-14.84-4.3,10.93,10.93,0,0,1,14.84,4.3" transform="translate(-171.59 -126.9)"/>
      <path class="cls-11" d="M351.48,200.18c-1.24-2.43-2-4.3.77-5.84s4,.13,5.34,2.47l.73,1.33c1.38,2.5,2.2,4.42-.67,6s-4.06-.13-5.44-2.63l-.73-1.33m3,1.21c.43.78,1.18,2,2.38,1.34s.55-2,.06-2.88l-1.32-2.39c-.41-.75-1.29-2.43-2.59-1.71s-.36,2.32,0,3.05Z" transform="translate(-171.59 -126.9)"/>
      <path class="cls-11" d="M362.18,201.35,357,192l1.74-1,2.29,4.16,0,0a20.77,20.77,0,0,1-.14-2.85l0-2.47,2-1.09-.09,5.29,5.36,4-2,1.09-3.68-2.79-.06,1.35,1.48,2.68-1.75,1" transform="translate(-171.59 -126.9)"/>
      <g>
        <path class="cls-27" d="M337.08,134.81H311.21a11.75,11.75,0,0,0-22.67,4.2c0,.14,0,.27,0,.4s0,.27,0,.41a11.75,11.75,0,0,0,22.26,5.12H313a2.76,2.76,0,0,1,5.29,0h2.37a2.76,2.76,0,0,1,5.29,0h2.37a2.76,2.76,0,0,1,5.29,0h1.65l6.1-7v-.81Z" transform="translate(-171.59 -126.9)"/>
        <path class="cls-28" d="M341.32,137.15l-30.11-1.54a11.62,11.62,0,1,0-.41,9.33H313a2.76,2.76,0,0,1,5.29,0h2.37a2.76,2.76,0,0,1,5.29,0h2.37a2.76,2.76,0,0,1,5.29,0h1.65l6.1-7Z" transform="translate(-171.59 -126.9)"/>
        <path class="cls-29" d="M337.08,134.81H311.21a11.61,11.61,0,1,0-.41,9.33H313a2.76,2.76,0,0,1,5.29,0h2.37a2.76,2.76,0,0,1,5.29,0h2.37a2.76,2.76,0,0,1,5.29,0h1.65l6.1-7Z" transform="translate(-171.59 -126.9)"/>
        <path class="cls-30" d="M300.28,149.68a10.67,10.67,0,1,1,10.06-14.53l.24.6h26.26l3,1.66-5,5.79h-.54a3.8,3.8,0,0,0-6.67,0h-1a3.8,3.8,0,0,0-6.67,0h-1a3.8,3.8,0,0,0-6.67,0h-2l-.26.52A10.73,10.73,0,0,1,300.28,149.68Z" transform="translate(-171.59 -126.9)"/>
        <path class="cls-11" d="M309.56,139a9.28,9.28,0,1,1-9.28-9.27A9.27,9.27,0,0,1,309.56,139Z" transform="translate(-171.59 -126.9)"/>
        <text class="cls-31" transform="translate(120.3 15.67)">Pub</text>
      </g>
      <path d="M287.85,263.61c-1-.29-1.58-.55-2.34-.85v2.9a22.43,22.43,0,0,1,2.33-.87,17.47,17.47,0,0,1,2.53-.6A16.68,16.68,0,0,1,287.85,263.61Z" transform="translate(-171.59 -126.9)"/>
      <line class="cls-25" x1="114.56" y1="137.31" x2="59.2" y2="137.31"/>
      <path class="cls-11" d="M338.64,186.73a3.93,3.93,0,0,1-3.94,3.93h0a3.94,3.94,0,0,1-3.94-3.93h0a3.94,3.94,0,0,1,3.94-3.94h0a3.93,3.93,0,0,1,3.94,3.94Z" transform="translate(-171.59 -126.9)"/>
      <path d="M334.69,191.59a4.87,4.87,0,1,1,4.86-4.86,4.86,4.86,0,0,1-4.86,4.86m-1.16-2.92-.16.76a2.21,2.21,0,0,0,1.08.25,1.7,1.7,0,0,0,1.81-1.73,1.44,1.44,0,0,0-1-1.48h0a1.45,1.45,0,0,0,.84-1.33,1.31,1.31,0,0,0-1.41-1.36,2.07,2.07,0,0,0-1.12.32l.15.7a1.38,1.38,0,0,1,.73-.24.68.68,0,0,1,.7.77.93.93,0,0,1-1,.87H334v.7h.16a1,1,0,0,1,1.12,1,.88.88,0,0,1-.93,1,1.77,1.77,0,0,1-.85-.23" transform="translate(-171.59 -126.9)"/>
      <text class="cls-32" transform="translate(3.94 37.03)">Hi Fred! Hier ist das verspro-<tspan x="0" y="9">chene Katzenbild. Hier ist</tspan><tspan x="0" y="19">meine digitale Signatur dafür:</tspan><tspan class="cls-33" x="91.05" y="19"> </tspan></text>
      <text class="cls-32" transform="translate(7.6 102.67)">Viel Spaß<tspan x="0" y="9">/Dein Freund</tspan></text>
      <text class="cls-32" transform="translate(23.35 125.63)">Anhang: Cat.jpg</text>
    </g>
  </g>
</svg>
