<?xml version="1.0" encoding="UTF-8" standalone="no"?>
<svg
   xmlns:dc="http://purl.org/dc/elements/1.1/"
   xmlns:cc="http://creativecommons.org/ns#"
   xmlns:rdf="http://www.w3.org/1999/02/22-rdf-syntax-ns#"
   xmlns:svg="http://www.w3.org/2000/svg"
   xmlns="http://www.w3.org/2000/svg"
   xmlns:sodipodi="http://sodipodi.sourceforge.net/DTD/sodipodi-0.dtd"
   xmlns:inkscape="http://www.inkscape.org/namespaces/inkscape"
   version="1.1"
   id="svg2"
   xml:space="preserve"
   width="451.02438"
   height="158.81599"
   viewBox="0 0 451.02438 158.81599"
   sodipodi:docname="u02-06.ai"><metadata
     id="metadata8"><rdf:RDF><cc:Work
         rdf:about=""><dc:format>image/svg+xml</dc:format><dc:type
           rdf:resource="http://purl.org/dc/dcmitype/StillImage" /></cc:Work></rdf:RDF></metadata><defs
     id="defs6"><clipPath
       clipPathUnits="userSpaceOnUse"
       id="clipPath32"><path
         d="M 0,792 H 612 V 0 H 0 Z"
         id="path30" /></clipPath></defs><sodipodi:namedview
     pagecolor="#ffffff"
     bordercolor="#666666"
     borderopacity="1"
     objecttolerance="10"
     gridtolerance="10"
     guidetolerance="10"
     inkscape:pageopacity="0"
     inkscape:pageshadow="2"
     inkscape:window-width="640"
     inkscape:window-height="480"
     id="namedview4" /><g
     id="g10"
     inkscape:groupmode="layer"
     inkscape:label="u02-06"
     transform="matrix(1.3333333,0,0,-1.3333333,-182.01241,889.98891)"><path
       d="m 240.905,656.18 h 51.53 v -97.468 h -51.53 z"
       style="fill:#cce4f2;fill-opacity:1;fill-rule:nonzero;stroke:#231f20;stroke-width:0.5;stroke-linecap:butt;stroke-linejoin:round;stroke-miterlimit:10;stroke-dasharray:none;stroke-opacity:1"
       id="path12" /><g
       id="g14"
       transform="translate(240.9053,650.0308)"><path
         d="M 0,0 H 1"
         style="fill:none;stroke:#231f20;stroke-width:0.5;stroke-linecap:butt;stroke-linejoin:round;stroke-miterlimit:4;stroke-dasharray:none;stroke-opacity:1"
         id="path16" /></g><g
       id="g18"
       transform="translate(242.916,650.0308)"><path
         d="M 0,0 H 48.014"
         style="fill:none;stroke:#231f20;stroke-width:0.5;stroke-linecap:butt;stroke-linejoin:round;stroke-miterlimit:4;stroke-dasharray:2.022, 1.011;stroke-dashoffset:0;stroke-opacity:1"
         id="path20" /></g><g
       id="g22"
       transform="translate(291.4355,650.0308)"><path
         d="M 0,0 H 1"
         style="fill:none;stroke:#231f20;stroke-width:0.5;stroke-linecap:butt;stroke-linejoin:round;stroke-miterlimit:4;stroke-dasharray:none;stroke-opacity:1"
         id="path24" /></g><g
       id="g26"><g
         id="g28"
         clip-path="url(#clipPath32)"><text
           transform="matrix(1,0,0,-1,253.6357,627.4551)"
           style="font-variant:normal;font-weight:normal;font-stretch:normal;font-size:7px;font-family:Arial;-inkscape-font-specification:ArialMT;writing-mode:lr-tb;fill:#231f20;fill-opacity:1;fill-rule:nonzero;stroke:none"
           id="text36"><tspan
             x="0 4.6690001 9.7229996 14.392 18.284 22.176001"
             y="0"
             sodipodi:role="line"
             id="tspan34">SHA256</tspan></text><g
           id="g38"
           transform="translate(238.1445,650.6147)"><path
             d="m 0,0 c -0.951,0.283 -1.57,0.547 -2.334,0.85 l 0.01,-2.903 c 0.271,0.131 1.379,0.576 2.326,0.867 1.018,0.313 1.939,0.524 2.537,0.602 C 1.939,-0.512 1.016,-0.303 0,0"
             style="fill:#231f20;fill-opacity:1;fill-rule:nonzero;stroke:none"
             id="path40" /></g><g
           id="g42"
           transform="translate(236.4395,650.0132)"><path
             d="M 0,0 H -13.027"
             style="fill:none;stroke:#231f20;stroke-width:0.5;stroke-linecap:butt;stroke-linejoin:miter;stroke-miterlimit:4;stroke-dasharray:none;stroke-opacity:1"
             id="path44" /></g><g
           id="g46"
           transform="translate(304.5,650.6147)"><path
             d="m 0,0 c -0.951,0.283 -1.57,0.547 -2.334,0.85 l 0.01,-2.903 c 0.271,0.131 1.379,0.576 2.326,0.867 1.018,0.313 1.939,0.524 2.537,0.602 C 1.939,-0.512 1.016,-0.303 0,0"
             style="fill:#231f20;fill-opacity:1;fill-rule:nonzero;stroke:none"
             id="path48" /></g><g
           id="g50"
           transform="translate(302.7949,650.0132)"><path
             d="M 0,0 H -10.359"
             style="fill:none;stroke:#231f20;stroke-width:0.5;stroke-linecap:butt;stroke-linejoin:miter;stroke-miterlimit:4;stroke-dasharray:none;stroke-opacity:1"
             id="path52" /></g><g
           id="g54"
           transform="translate(240.9053,607.4463)"><path
             d="M 0,0 H 1"
             style="fill:none;stroke:#231f20;stroke-width:0.5;stroke-linecap:butt;stroke-linejoin:round;stroke-miterlimit:4;stroke-dasharray:none;stroke-opacity:1"
             id="path56" /></g><g
           id="g58"
           transform="translate(242.916,607.4463)"><path
             d="M 0,0 H 48.014"
             style="fill:none;stroke:#231f20;stroke-width:0.5;stroke-linecap:butt;stroke-linejoin:round;stroke-miterlimit:4;stroke-dasharray:2.022, 1.011;stroke-dashoffset:0;stroke-opacity:1"
             id="path60" /></g><g
           id="g62"
           transform="translate(291.4355,607.4463)"><path
             d="M 0,0 H 1"
             style="fill:none;stroke:#231f20;stroke-width:0.5;stroke-linecap:butt;stroke-linejoin:round;stroke-miterlimit:4;stroke-dasharray:none;stroke-opacity:1"
             id="path64" /></g><g
           id="g66"
           transform="translate(304.5,608.0303)"><path
             d="m 0,0 c -0.951,0.283 -1.57,0.547 -2.334,0.85 l 0.01,-2.903 c 0.271,0.131 1.379,0.576 2.326,0.867 1.018,0.313 1.939,0.524 2.537,0.602 C 1.939,-0.512 1.016,-0.303 0,0"
             style="fill:#231f20;fill-opacity:1;fill-rule:nonzero;stroke:none"
             id="path68" /></g><g
           id="g70"
           transform="translate(302.7949,607.4287)"><path
             d="M 0,0 H -10.359"
             style="fill:none;stroke:#231f20;stroke-width:0.5;stroke-linecap:butt;stroke-linejoin:miter;stroke-miterlimit:4;stroke-dasharray:none;stroke-opacity:1"
             id="path72" /></g><g
           id="g74"
           transform="translate(238.1445,608.0303)"><path
             d="m 0,0 c -0.951,0.283 -1.57,0.547 -2.334,0.85 l 0.01,-2.903 c 0.271,0.131 1.379,0.576 2.326,0.867 1.018,0.313 1.939,0.524 2.537,0.602 C 1.939,-0.512 1.016,-0.303 0,0"
             style="fill:#231f20;fill-opacity:1;fill-rule:nonzero;stroke:none"
             id="path76" /></g><g
           id="g78"
           transform="translate(236.4395,607.4287)"><path
             d="M 0,0 H -13.027"
             style="fill:none;stroke:#231f20;stroke-width:0.5;stroke-linecap:butt;stroke-linejoin:miter;stroke-miterlimit:4;stroke-dasharray:none;stroke-opacity:1"
             id="path80" /></g><g
           id="g82"
           transform="translate(382.7383,646.6797)"><path
             d="M 0,0 C 8.75,-4 13.616,-17.75 22.75,-17.75"
             style="fill:none;stroke:#231f20;stroke-width:0.3;stroke-linecap:butt;stroke-linejoin:miter;stroke-miterlimit:10;stroke-dasharray:none;stroke-opacity:1"
             id="path84" /></g><g
           id="g86"
           transform="translate(382.4629,644.7612)"><path
             d="M 0,0 -2.168,3.046 1.555,3.401 Z"
             style="fill:#231f20;fill-opacity:1;fill-rule:nonzero;stroke:none"
             id="path88" /></g><g
           id="g90"
           transform="translate(382.7383,611.1797)"><path
             d="M 0,0 C 8.75,4 13.616,17.75 22.75,17.75"
             style="fill:none;stroke:#231f20;stroke-width:0.3;stroke-linecap:butt;stroke-linejoin:miter;stroke-miterlimit:10;stroke-dasharray:none;stroke-opacity:1"
             id="path92" /></g><g
           id="g94"
           transform="translate(384.0088,609.7158)"><path
             d="m 0,0 -3.723,0.354 2.168,3.047 z"
             style="fill:#231f20;fill-opacity:1;fill-rule:nonzero;stroke:none"
             id="path96" /></g><g
           id="g98"
           transform="translate(191.7383,611.1797)"><path
             d="M 0,0 C -10.333,5 -17.333,17.75 -30.833,17.75"
             style="fill:none;stroke:#231f20;stroke-width:0.3;stroke-linecap:butt;stroke-linejoin:miter;stroke-miterlimit:10;stroke-dasharray:none;stroke-opacity:1"
             id="path100" /></g><g
           id="g102"
           transform="translate(192.0557,613.0918)"><path
             d="m 0,0 2.101,-3.093 -3.73,-0.273 z"
             style="fill:#231f20;fill-opacity:1;fill-rule:nonzero;stroke:none"
             id="path104" /></g><g
           id="g106"
           transform="translate(191.7383,646.6797)"><path
             d="M 0,0 C -10.333,-5 -17.333,-17.75 -30.833,-17.75"
             style="fill:none;stroke:#231f20;stroke-width:0.3;stroke-linecap:butt;stroke-linejoin:miter;stroke-miterlimit:10;stroke-dasharray:none;stroke-opacity:1"
             id="path108" /></g><g
           id="g110"
           transform="translate(190.436,648.1152)"><path
             d="M 0,0 3.729,-0.272 1.628,-3.366 Z"
             style="fill:#231f20;fill-opacity:1;fill-rule:nonzero;stroke:none"
             id="path112" /></g><g
           id="g114"
           transform="translate(191.7383,603.9297)"><path
             d="M 0,0 C -8.75,-4 -13.616,-17.75 -22.75,-17.75"
             style="fill:none;stroke:#231f20;stroke-width:0.3;stroke-linecap:butt;stroke-linejoin:miter;stroke-miterlimit:10;stroke-dasharray:none;stroke-opacity:1"
             id="path116" /></g><g
           id="g118"
           transform="translate(190.4678,605.3936)"><path
             d="M 0,0 3.722,-0.354 1.555,-3.401 Z"
             style="fill:#231f20;fill-opacity:1;fill-rule:nonzero;stroke:none"
             id="path120" /></g><g
           id="g122"
           transform="translate(191.7383,568.4297)"><path
             d="M 0,0 C -8.75,4 -13.616,17.75 -22.75,17.75"
             style="fill:none;stroke:#231f20;stroke-width:0.3;stroke-linecap:butt;stroke-linejoin:miter;stroke-miterlimit:10;stroke-dasharray:none;stroke-opacity:1"
             id="path124" /></g><g
           id="g126"
           transform="translate(192.0137,570.3486)"><path
             d="M 0,0 2.168,-3.047 -1.555,-3.401 Z"
             style="fill:#231f20;fill-opacity:1;fill-rule:nonzero;stroke:none"
             id="path128" /></g><g
           id="g130"
           transform="translate(382.7383,600.9297)"><path
             d="M 0,0 C 8.75,-4 13.616,-17.75 22.75,-17.75"
             style="fill:none;stroke:#231f20;stroke-width:0.3;stroke-linecap:butt;stroke-linejoin:miter;stroke-miterlimit:10;stroke-dasharray:none;stroke-opacity:1"
             id="path132" /></g><g
           id="g134"
           transform="translate(382.4629,599.0107)"><path
             d="M 0,0 -2.168,3.047 1.555,3.401 Z"
             style="fill:#231f20;fill-opacity:1;fill-rule:nonzero;stroke:none"
             id="path136" /></g><g
           id="g138"
           transform="translate(382.7383,565.4297)"><path
             d="M 0,0 C 8.75,4 13.616,17.75 22.75,17.75"
             style="fill:none;stroke:#231f20;stroke-width:0.3;stroke-linecap:butt;stroke-linejoin:miter;stroke-miterlimit:10;stroke-dasharray:none;stroke-opacity:1"
             id="path140" /></g><g
           id="g142"
           transform="translate(384.0088,563.9658)"><path
             d="m 0,0 -3.723,0.354 2.168,3.047 z"
             style="fill:#231f20;fill-opacity:1;fill-rule:nonzero;stroke:none"
             id="path144" /></g><text
           transform="matrix(1,0,0,-1,136.5972,628.9727)"
           style="font-variant:normal;font-weight:bold;font-stretch:condensed;font-size:9px;font-family:'Humanst521 Cn BT';-inkscape-font-specification:Humanist521BT-BoldCondensed;writing-mode:lr-tb;fill:#231f20;fill-opacity:1;fill-rule:nonzero;stroke:none"
           id="text156"><tspan
             x="0 3.96 7.9200001 10.08 14.589 18.549"
             y="0"
             sodipodi:role="line"
             id="tspan146">Selber</tspan><tspan
             x="0 2.5380001 7.02 11.529 16.011"
             y="9.5039997"
             sodipodi:role="line"
             id="tspan148">Input</tspan><tspan
             x="0 4.1220002 8.0819998 10.215 13.815 18.306"
             y="35.847"
             sodipodi:role="line"
             id="tspan150">Leicht</tspan><tspan
             x="0 3.7260001 7.6859999 11.079 14.58 18.18 22.671 24.804001 28.764 33.272999 37.233002 41.715"
             y="45.351002"
             sodipodi:role="line"
             id="tspan152">verschiedene</tspan><tspan
             x="0 2.5380001 7.02 11.529 16.011 19.007999"
             y="54.855"
             sodipodi:role="line"
             id="tspan154">Inputs</tspan></text><g
           id="g158"
           transform="translate(200.8564,649.9956)"><path
             d="m 0,0 h -1.842 v -1.601 h 0.365 c 0.071,0 0.12,-0.011 0.145,-0.037 0.031,-0.026 0.047,-0.061 0.047,-0.106 0,-0.04 -0.016,-0.072 -0.047,-0.098 -0.025,-0.026 -0.074,-0.038 -0.145,-0.038 h -0.965 c -0.063,0 -0.113,0.012 -0.143,0.038 -0.026,0.026 -0.04,0.058 -0.04,0.098 0,0.045 0.014,0.08 0.04,0.106 0.03,0.026 0.08,0.037 0.143,0.037 h 0.318 v 3.319 h -0.173 c -0.07,0 -0.122,0.014 -0.155,0.04 -0.026,0.023 -0.037,0.06 -0.037,0.105 0,0.038 0.011,0.07 0.037,0.096 0.033,0.026 0.085,0.038 0.155,0.038 h 0.82 c 0.071,0 0.12,-0.012 0.145,-0.038 0.031,-0.026 0.047,-0.058 0.047,-0.096 0,-0.045 -0.016,-0.082 -0.047,-0.105 -0.025,-0.026 -0.074,-0.04 -0.145,-0.04 H -1.842 V 0.272 H 0 v 1.446 h -0.368 c -0.07,0 -0.122,0.014 -0.155,0.04 -0.026,0.023 -0.038,0.06 -0.038,0.105 0,0.038 0.012,0.07 0.038,0.096 0.033,0.026 0.085,0.038 0.155,0.038 h 0.82 c 0.07,0 0.119,-0.012 0.145,-0.038 C 0.63,1.933 0.645,1.901 0.645,1.863 0.645,1.818 0.63,1.781 0.597,1.758 0.571,1.732 0.522,1.718 0.452,1.718 H 0.279 v -3.319 h 0.318 c 0.064,0 0.109,-0.011 0.134,-0.037 C 0.764,-1.664 0.78,-1.699 0.78,-1.744 0.78,-1.784 0.764,-1.816 0.731,-1.842 0.706,-1.868 0.661,-1.88 0.597,-1.88 h -0.965 c -0.07,0 -0.122,0.012 -0.155,0.038 -0.026,0.026 -0.038,0.058 -0.038,0.098 0,0.045 0.012,0.08 0.038,0.106 0.033,0.026 0.085,0.037 0.155,0.037 H 0 Z M 4.633,-0.511 H 1.797 C 1.849,-0.87 1.999,-1.16 2.25,-1.378 c 0.257,-0.218 0.574,-0.329 0.947,-0.329 0.206,0 0.422,0.033 0.646,0.097 0.23,0.07 0.418,0.161 0.558,0.269 0.045,0.04 0.082,0.059 0.108,0.059 0.037,0 0.07,-0.016 0.096,-0.047 0.026,-0.026 0.038,-0.058 0.038,-0.098 0,-0.038 -0.017,-0.073 -0.047,-0.106 -0.11,-0.11 -0.301,-0.211 -0.57,-0.309 -0.27,-0.096 -0.546,-0.143 -0.829,-0.143 -0.483,0 -0.884,0.154 -1.207,0.462 -0.315,0.315 -0.471,0.695 -0.471,1.138 0,0.406 0.148,0.753 0.443,1.041 0.302,0.29 0.674,0.436 1.118,0.436 0.457,0 0.829,-0.15 1.12,-0.446 0.295,-0.295 0.44,-0.681 0.433,-1.157 M 4.354,-0.23 C 4.303,0.077 4.158,0.328 3.918,0.523 3.682,0.715 3.403,0.811 3.08,0.811 2.751,0.811 2.473,0.715 2.24,0.523 2.011,0.335 1.866,0.084 1.807,-0.23 Z m 2.993,2.508 v -3.879 h 1.09 c 0.073,0 0.119,-0.011 0.145,-0.037 0.033,-0.026 0.05,-0.061 0.05,-0.106 0,-0.04 -0.017,-0.072 -0.05,-0.098 C 8.556,-1.868 8.51,-1.88 8.437,-1.88 H 5.979 c -0.071,0 -0.122,0.012 -0.155,0.038 -0.026,0.026 -0.037,0.058 -0.037,0.098 0,0.045 0.011,0.08 0.037,0.106 0.033,0.026 0.084,0.037 0.155,0.037 H 7.068 V 1.997 H 6.267 c -0.07,0 -0.122,0.014 -0.153,0.039 -0.026,0.026 -0.039,0.062 -0.039,0.106 0,0.04 0.013,0.07 0.039,0.096 0.031,0.026 0.083,0.04 0.153,0.04 z m 4.076,0 v -3.879 h 1.09 c 0.07,0 0.119,-0.011 0.145,-0.037 0.032,-0.026 0.049,-0.061 0.049,-0.106 0,-0.04 -0.017,-0.072 -0.049,-0.098 -0.026,-0.026 -0.075,-0.038 -0.145,-0.038 h -2.459 c -0.07,0 -0.122,0.012 -0.155,0.038 -0.025,0.026 -0.04,0.058 -0.04,0.098 0,0.045 0.015,0.08 0.04,0.106 0.033,0.026 0.085,0.037 0.155,0.037 h 1.09 v 3.598 h -0.802 c -0.07,0 -0.121,0.014 -0.154,0.039 -0.026,0.026 -0.038,0.062 -0.038,0.106 0,0.04 0.012,0.07 0.038,0.096 0.033,0.026 0.084,0.04 0.154,0.04 z m 5.494,-2.73 c 0,-0.424 -0.155,-0.788 -0.465,-1.09 -0.302,-0.295 -0.667,-0.443 -1.099,-0.443 -0.431,0 -0.797,0.15 -1.099,0.452 -0.302,0.303 -0.452,0.663 -0.452,1.081 0,0.424 0.15,0.787 0.452,1.09 0.302,0.302 0.668,0.454 1.099,0.454 0.432,0 0.797,-0.152 1.099,-0.454 0.31,-0.296 0.465,-0.659 0.465,-1.09 m -0.292,0 c 0,0.347 -0.124,0.641 -0.374,0.888 -0.244,0.251 -0.544,0.375 -0.898,0.375 -0.354,0 -0.656,-0.124 -0.907,-0.375 -0.244,-0.247 -0.366,-0.541 -0.366,-0.888 0,-0.34 0.122,-0.638 0.366,-0.889 0.251,-0.243 0.553,-0.366 0.907,-0.366 0.354,0 0.654,0.123 0.898,0.366 0.25,0.246 0.374,0.542 0.374,0.889 m 3.073,2.449 -0.124,-2.248 c -0.007,-0.07 -0.023,-0.122 -0.049,-0.152 -0.026,-0.026 -0.059,-0.04 -0.096,-0.04 -0.04,0 -0.071,0.014 -0.096,0.04 -0.026,0.03 -0.041,0.082 -0.041,0.152 l -0.124,2.248 c -0.006,0.051 -0.009,0.091 -0.009,0.117 0,0.077 0.026,0.14 0.078,0.192 0.049,0.051 0.115,0.077 0.192,0.077 0.077,0 0.14,-0.026 0.192,-0.077 0.051,-0.052 0.077,-0.115 0.077,-0.192 z M 19.37,-1.292 h 0.127 c 0.096,0 0.175,-0.035 0.241,-0.105 0.071,-0.066 0.105,-0.145 0.105,-0.241 0,-0.096 -0.034,-0.178 -0.105,-0.242 -0.072,-0.065 -0.153,-0.096 -0.241,-0.096 H 19.37 c -0.096,0 -0.181,0.031 -0.251,0.096 -0.063,0.07 -0.096,0.151 -0.096,0.242 0,0.103 0.033,0.185 0.096,0.251 0.07,0.063 0.155,0.095 0.251,0.095"
             style="fill:#231f20;fill-opacity:1;fill-rule:nonzero;stroke:none"
             id="path160" /></g><g
           id="g162"
           transform="translate(200.54,606.9873)"><path
             d="m 0,0 h -1.842 v -1.602 h 0.368 c 0.07,0 0.119,-0.011 0.145,-0.037 0.031,-0.025 0.047,-0.062 0.047,-0.107 0,-0.037 -0.016,-0.07 -0.047,-0.096 -0.026,-0.025 -0.075,-0.039 -0.145,-0.039 H -2.44 c -0.063,0 -0.113,0.014 -0.143,0.039 -0.026,0.026 -0.04,0.059 -0.04,0.096 0,0.045 0.014,0.082 0.04,0.107 0.03,0.026 0.08,0.037 0.143,0.037 h 0.319 v 3.32 h -0.173 c -0.071,0 -0.123,0.011 -0.155,0.037 -0.026,0.026 -0.038,0.061 -0.038,0.108 0,0.037 0.012,0.071 0.038,0.096 0.032,0.025 0.084,0.037 0.155,0.037 h 0.82 c 0.07,0 0.119,-0.012 0.145,-0.037 C -1.298,1.934 -1.282,1.9 -1.282,1.863 -1.282,1.816 -1.298,1.781 -1.329,1.755 -1.355,1.729 -1.404,1.718 -1.474,1.718 H -1.842 V 0.27 H 0 v 1.448 h -0.366 c -0.07,0 -0.122,0.011 -0.155,0.037 -0.025,0.026 -0.037,0.061 -0.037,0.108 0,0.037 0.012,0.071 0.037,0.096 0.033,0.025 0.085,0.037 0.155,0.037 H 0.455 C 0.525,1.996 0.574,1.984 0.6,1.959 0.63,1.934 0.646,1.9 0.646,1.863 0.646,1.816 0.63,1.781 0.6,1.755 0.574,1.729 0.525,1.718 0.455,1.718 H 0.281 v -3.32 H 0.6 c 0.063,0 0.108,-0.011 0.134,-0.037 0.032,-0.025 0.049,-0.062 0.049,-0.107 0,-0.037 -0.017,-0.07 -0.049,-0.096 C 0.708,-1.867 0.663,-1.881 0.6,-1.881 h -0.966 c -0.07,0 -0.122,0.014 -0.155,0.039 -0.025,0.026 -0.037,0.059 -0.037,0.096 0,0.045 0.012,0.082 0.037,0.107 0.033,0.026 0.085,0.037 0.155,0.037 H 0 Z M 4.636,-0.512 H 1.8 C 1.851,-0.871 2.001,-1.16 2.252,-1.379 2.51,-1.6 2.826,-1.707 3.199,-1.707 c 0.204,0 0.419,0.031 0.644,0.098 0.233,0.068 0.42,0.158 0.561,0.267 0.044,0.041 0.079,0.059 0.105,0.059 0.04,0 0.073,-0.016 0.098,-0.049 C 4.633,-1.357 4.645,-1.387 4.645,-1.428 4.645,-1.465 4.629,-1.5 4.596,-1.533 4.488,-1.643 4.298,-1.746 4.028,-1.842 3.757,-1.939 3.48,-1.988 3.199,-1.988 c -0.483,0 -0.886,0.156 -1.207,0.465 -0.314,0.314 -0.471,0.693 -0.471,1.138 0,0.404 0.148,0.752 0.442,1.041 0.303,0.29 0.676,0.434 1.119,0.434 0.457,0 0.83,-0.149 1.12,-0.444 0.295,-0.294 0.441,-0.681 0.434,-1.158 m -0.28,0.28 C 4.305,0.077 4.16,0.328 3.921,0.52 3.684,0.715 3.403,0.811 3.082,0.811 2.753,0.811 2.475,0.715 2.243,0.52 2.011,0.335 1.868,0.084 1.809,-0.232 Z M 7.35,2.275 v -3.877 h 1.089 c 0.073,0 0.12,-0.011 0.145,-0.037 0.033,-0.025 0.05,-0.062 0.05,-0.107 0,-0.037 -0.017,-0.07 -0.05,-0.096 C 8.559,-1.867 8.512,-1.881 8.439,-1.881 H 5.981 c -0.07,0 -0.122,0.014 -0.155,0.039 -0.026,0.026 -0.037,0.059 -0.037,0.096 0,0.045 0.011,0.082 0.037,0.107 0.033,0.026 0.085,0.037 0.155,0.037 h 1.09 V 1.996 H 6.269 c -0.07,0 -0.122,0.014 -0.152,0.04 -0.026,0.027 -0.04,0.062 -0.04,0.107 0,0.037 0.014,0.07 0.04,0.095 0.03,0.026 0.082,0.037 0.152,0.037 z m 4.075,0 v -3.877 h 1.09 c 0.07,0 0.119,-0.011 0.145,-0.037 0.033,-0.025 0.047,-0.062 0.047,-0.107 0,-0.037 -0.014,-0.07 -0.047,-0.096 -0.026,-0.025 -0.075,-0.039 -0.145,-0.039 h -2.458 c -0.073,0 -0.125,0.014 -0.155,0.039 -0.026,0.026 -0.04,0.059 -0.04,0.096 0,0.045 0.014,0.082 0.04,0.107 0.03,0.026 0.082,0.037 0.155,0.037 h 1.089 v 3.598 h -0.801 c -0.071,0 -0.122,0.014 -0.155,0.04 -0.025,0.027 -0.037,0.062 -0.037,0.107 0,0.037 0.012,0.07 0.037,0.095 0.033,0.026 0.084,0.037 0.155,0.037 z m 5.493,-2.728 c 0,-0.424 -0.154,-0.787 -0.463,-1.09 -0.303,-0.297 -0.668,-0.445 -1.1,-0.445 -0.431,0 -0.796,0.152 -1.099,0.455 -0.302,0.303 -0.455,0.662 -0.455,1.08 0,0.425 0.153,0.788 0.455,1.09 0.303,0.302 0.668,0.453 1.099,0.453 0.432,0 0.797,-0.151 1.1,-0.453 0.309,-0.295 0.463,-0.658 0.463,-1.09 m -0.29,0 c 0,0.348 -0.124,0.642 -0.375,0.887 -0.246,0.25 -0.544,0.377 -0.898,0.377 -0.354,0 -0.656,-0.127 -0.907,-0.377 -0.243,-0.245 -0.365,-0.539 -0.365,-0.887 0,-0.342 0.122,-0.637 0.365,-0.889 0.251,-0.242 0.553,-0.365 0.907,-0.365 0.354,0 0.652,0.123 0.898,0.365 0.251,0.244 0.375,0.541 0.375,0.889 m 3.073,2.449 -0.127,-2.247 c -0.005,-0.07 -0.021,-0.122 -0.047,-0.155 -0.026,-0.026 -0.058,-0.037 -0.096,-0.037 -0.04,0 -0.07,0.011 -0.096,0.037 -0.026,0.033 -0.04,0.085 -0.04,0.155 l -0.124,2.247 c -0.007,0.053 -0.012,0.092 -0.012,0.117 0,0.076 0.026,0.141 0.077,0.193 0.052,0.051 0.118,0.077 0.195,0.077 0.077,0 0.141,-0.026 0.193,-0.077 0.051,-0.052 0.077,-0.117 0.077,-0.193 z m -0.328,-3.287 h 0.126 c 0.096,0 0.176,-0.035 0.239,-0.109 0.073,-0.063 0.108,-0.143 0.108,-0.239 0,-0.097 -0.035,-0.177 -0.108,-0.242 -0.07,-0.064 -0.15,-0.098 -0.239,-0.098 h -0.126 c -0.097,0 -0.181,0.034 -0.251,0.098 -0.063,0.072 -0.097,0.151 -0.097,0.242 0,0.102 0.034,0.186 0.097,0.252 0.07,0.063 0.154,0.096 0.251,0.096"
             style="fill:#231f20;fill-opacity:1;fill-rule:nonzero;stroke:none"
             id="path164" /></g><g
           id="g166"
           transform="translate(200.8564,566.5361)"><path
             d="m 0,0 h -1.842 v -1.602 h 0.365 c 0.071,0 0.12,-0.013 0.145,-0.039 0.031,-0.027 0.047,-0.062 0.047,-0.105 0,-0.041 -0.016,-0.07 -0.047,-0.098 -0.025,-0.025 -0.074,-0.039 -0.145,-0.039 h -0.965 c -0.063,0 -0.113,0.014 -0.143,0.039 -0.026,0.028 -0.04,0.057 -0.04,0.098 0,0.043 0.014,0.078 0.04,0.105 0.03,0.026 0.08,0.039 0.143,0.039 h 0.318 v 3.317 h -0.173 c -0.07,0 -0.122,0.014 -0.155,0.039 -0.026,0.027 -0.037,0.06 -0.037,0.105 0,0.041 0.011,0.071 0.037,0.096 0.033,0.027 0.085,0.041 0.155,0.041 h 0.82 c 0.071,0 0.12,-0.014 0.145,-0.041 C -1.301,1.93 -1.285,1.9 -1.285,1.859 -1.285,1.814 -1.301,1.781 -1.332,1.754 -1.357,1.729 -1.406,1.715 -1.477,1.715 H -1.842 V 0.27 H 0 v 1.445 h -0.368 c -0.07,0 -0.122,0.014 -0.155,0.039 -0.026,0.027 -0.038,0.06 -0.038,0.105 0,0.041 0.012,0.071 0.038,0.096 0.033,0.027 0.085,0.041 0.155,0.041 h 0.82 c 0.07,0 0.119,-0.014 0.145,-0.041 C 0.63,1.93 0.645,1.9 0.645,1.859 0.645,1.814 0.63,1.781 0.597,1.754 0.571,1.729 0.522,1.715 0.452,1.715 H 0.279 v -3.317 h 0.318 c 0.064,0 0.109,-0.013 0.134,-0.039 0.033,-0.027 0.049,-0.062 0.049,-0.105 0,-0.041 -0.016,-0.07 -0.049,-0.098 -0.025,-0.025 -0.07,-0.039 -0.134,-0.039 h -0.965 c -0.07,0 -0.122,0.014 -0.155,0.039 -0.026,0.028 -0.038,0.057 -0.038,0.098 0,0.043 0.012,0.078 0.038,0.105 0.033,0.026 0.085,0.039 0.155,0.039 H 0 Z M 4.633,-0.512 H 1.797 C 1.849,-0.871 1.999,-1.16 2.25,-1.381 2.507,-1.6 2.824,-1.709 3.197,-1.709 c 0.206,0 0.422,0.033 0.646,0.098 0.23,0.07 0.418,0.16 0.558,0.269 0.045,0.037 0.082,0.059 0.108,0.059 0.037,0 0.07,-0.016 0.096,-0.049 0.026,-0.025 0.038,-0.059 0.038,-0.096 0,-0.041 -0.017,-0.076 -0.047,-0.107 -0.11,-0.11 -0.301,-0.211 -0.57,-0.309 -0.27,-0.095 -0.546,-0.144 -0.829,-0.144 -0.483,0 -0.884,0.156 -1.207,0.463 -0.315,0.316 -0.471,0.695 -0.471,1.138 0,0.405 0.148,0.752 0.443,1.041 C 2.264,0.943 2.636,1.09 3.08,1.09 3.537,1.09 3.909,0.941 4.2,0.646 4.495,0.35 4.64,-0.035 4.633,-0.512 m -0.279,0.28 C 4.303,0.076 4.158,0.328 3.918,0.52 3.682,0.711 3.403,0.811 3.08,0.811 2.751,0.811 2.473,0.711 2.24,0.52 2.011,0.334 1.866,0.084 1.807,-0.232 Z m 2.993,2.507 v -3.877 h 1.09 c 0.073,0 0.119,-0.013 0.145,-0.039 0.033,-0.027 0.05,-0.062 0.05,-0.105 0,-0.041 -0.017,-0.07 -0.05,-0.098 C 8.556,-1.869 8.51,-1.883 8.437,-1.883 H 5.979 c -0.071,0 -0.122,0.014 -0.155,0.039 -0.026,0.028 -0.037,0.057 -0.037,0.098 0,0.043 0.011,0.078 0.037,0.105 0.033,0.026 0.084,0.039 0.155,0.039 H 7.068 V 1.996 H 6.267 c -0.07,0 -0.122,0.012 -0.153,0.037 -0.026,0.026 -0.039,0.061 -0.039,0.108 0,0.039 0.013,0.07 0.039,0.095 0.031,0.028 0.083,0.039 0.153,0.039 z m 4.076,0 v -3.877 h 1.09 c 0.07,0 0.119,-0.013 0.145,-0.039 0.032,-0.027 0.049,-0.062 0.049,-0.105 0,-0.041 -0.017,-0.07 -0.049,-0.098 -0.026,-0.025 -0.075,-0.039 -0.145,-0.039 h -2.459 c -0.07,0 -0.122,0.014 -0.155,0.039 -0.025,0.028 -0.04,0.057 -0.04,0.098 0,0.043 0.015,0.078 0.04,0.105 0.033,0.026 0.085,0.039 0.155,0.039 h 1.09 v 3.598 h -0.802 c -0.07,0 -0.121,0.012 -0.154,0.037 -0.026,0.026 -0.038,0.061 -0.038,0.108 0,0.039 0.012,0.07 0.038,0.095 0.033,0.028 0.084,0.039 0.154,0.039 z m 5.494,-2.73 c 0,-0.424 -0.155,-0.787 -0.465,-1.09 -0.302,-0.295 -0.667,-0.443 -1.099,-0.443 -0.431,0 -0.797,0.152 -1.099,0.453 -0.302,0.303 -0.452,0.664 -0.452,1.08 0,0.426 0.15,0.789 0.452,1.092 0.302,0.299 0.668,0.453 1.099,0.453 0.432,0 0.797,-0.154 1.099,-0.453 0.31,-0.297 0.465,-0.662 0.465,-1.092 m -0.292,0 c 0,0.35 -0.124,0.644 -0.374,0.889 -0.244,0.25 -0.544,0.377 -0.898,0.377 -0.354,0 -0.656,-0.127 -0.907,-0.377 -0.244,-0.245 -0.366,-0.539 -0.366,-0.889 0,-0.34 0.122,-0.635 0.366,-0.887 0.251,-0.244 0.553,-0.367 0.907,-0.367 0.354,0 0.654,0.123 0.898,0.367 0.25,0.244 0.374,0.539 0.374,0.887"
             style="fill:#231f20;fill-opacity:1;fill-rule:nonzero;stroke:none"
             id="path168" /></g><text
           transform="matrix(1,0,0,-1,407.8882,631.0508)"
           style="font-variant:normal;font-weight:bold;font-stretch:condensed;font-size:9px;font-family:'Humanst521 Cn BT';-inkscape-font-specification:Humanist521BT-BoldCondensed;writing-mode:lr-tb;fill:#231f20;fill-opacity:1;fill-rule:nonzero;stroke:none"
           id="text178"><tspan
             x="0 3.96 7.9200001 10.08 14.589 18.549 21.941999 24.246 29.493 33.542999 37.043999"
             y="0"
             sodipodi:role="line"
             id="tspan170">Selber Hash</tspan><tspan
             x="0 4.2750001 8.6219997 10.782 12.942 15.075 19.179001 21.483 25.209 29.169001 32.562 36.063 39.662998 44.153999 46.286999 50.247002 54.756001 58.716 63.198002"
             y="39.969002"
             sodipodi:role="line"
             id="tspan172">Völlig verschiedene</tspan><tspan
             x="0 5.2470002 9.2969999 12.798 17.289 21.249001 24.75 26.937 29.240999 33.291 37.799999 41.759998"
             y="49.473"
             sodipodi:role="line"
             id="tspan174">Hashes, aber</tspan><tspan
             x="0 4.5089998 6.6420002 10.602 14.103 18.063 20.223 24.732 28.691999 30.996 35.118 39.167999 43.650002 47.754002"
             y="58.977001"
             sodipodi:role="line"
             id="tspan176">dieselbe Länge</tspan></text><g
           id="g180"
           transform="translate(240.9053,564.8604)"><path
             d="M 0,0 H 1"
             style="fill:none;stroke:#231f20;stroke-width:0.5;stroke-linecap:butt;stroke-linejoin:round;stroke-miterlimit:4;stroke-dasharray:none;stroke-opacity:1"
             id="path182" /></g><g
           id="g184"
           transform="translate(242.916,564.8604)"><path
             d="M 0,0 H 48.014"
             style="fill:none;stroke:#231f20;stroke-width:0.5;stroke-linecap:butt;stroke-linejoin:round;stroke-miterlimit:4;stroke-dasharray:2.022, 1.011;stroke-dashoffset:0;stroke-opacity:1"
             id="path186" /></g><g
           id="g188"
           transform="translate(291.4355,564.8604)"><path
             d="M 0,0 H 1"
             style="fill:none;stroke:#231f20;stroke-width:0.5;stroke-linecap:butt;stroke-linejoin:round;stroke-miterlimit:4;stroke-dasharray:none;stroke-opacity:1"
             id="path190" /></g><g
           id="g192"
           transform="translate(238.1445,565.4443)"><path
             d="m 0,0 c -0.951,0.283 -1.57,0.547 -2.334,0.85 l 0.01,-2.903 c 0.271,0.131 1.379,0.576 2.326,0.867 1.018,0.313 1.939,0.524 2.537,0.602 C 1.939,-0.512 1.016,-0.303 0,0"
             style="fill:#231f20;fill-opacity:1;fill-rule:nonzero;stroke:none"
             id="path194" /></g><g
           id="g196"
           transform="translate(236.4395,564.8428)"><path
             d="M 0,0 H -13.027"
             style="fill:none;stroke:#231f20;stroke-width:0.5;stroke-linecap:butt;stroke-linejoin:miter;stroke-miterlimit:4;stroke-dasharray:none;stroke-opacity:1"
             id="path198" /></g><g
           id="g200"
           transform="translate(304.5,565.4443)"><path
             d="m 0,0 c -0.951,0.283 -1.57,0.547 -2.334,0.85 l 0.01,-2.903 c 0.271,0.131 1.379,0.576 2.326,0.867 1.018,0.313 1.939,0.524 2.537,0.602 C 1.939,-0.512 1.016,-0.303 0,0"
             style="fill:#231f20;fill-opacity:1;fill-rule:nonzero;stroke:none"
             id="path202" /></g><g
           id="g204"
           transform="translate(302.7949,564.8428)"><path
             d="M 0,0 H -10.359"
             style="fill:none;stroke:#231f20;stroke-width:0.5;stroke-linecap:butt;stroke-linejoin:miter;stroke-miterlimit:4;stroke-dasharray:none;stroke-opacity:1"
             id="path206" /></g><text
           transform="matrix(1,0,0,-1,310.2388,663.1797)"
           style="font-variant:normal;font-weight:normal;font-stretch:normal;font-size:7px;font-family:Courier;-inkscape-font-specification:Courier;writing-mode:lr-tb;fill:#231f20;fill-opacity:1;fill-rule:nonzero;stroke:none"
           id="text232"><tspan
             x="0 4.1999998 8.3999996 12.6 16.799999 21 25.200001 29.4 33.599998 37.799999 42 46.200001 50.400002 54.599998 58.799999 63.007"
             y="0"
             sodipodi:role="line"
             id="tspan208">334d016f755cd6dc</tspan><tspan
             x="0 4.1999998 8.3999996 12.6 16.799999 21 25.200001 29.4 33.599998 37.799999 42 46.200001 50.400002 54.599998 58.799999 63.007"
             y="9.0019999"
             sodipodi:role="line"
             id="tspan210">58c53a86e183882f</tspan><tspan
             x="0 4.1999998 8.3999996 12.6 16.799999 21 25.200001 29.4 33.599998 37.799999 42 46.200001 50.400002 54.599998 58.799999 63.007"
             y="18.004"
             sodipodi:role="line"
             id="tspan212">8ec14f52fb053458</tspan><tspan
             x="0 4.1999998 8.3999996 12.6 16.799999 21 25.200001 29.4 33.599998 37.799999 42 46.200001 50.400002 54.599998 58.799999 63.007"
             y="27.006001"
             sodipodi:role="line"
             id="tspan214">87c8a5edd42c87b7</tspan><tspan
             x="0 4.1999998 8.3999996 12.6 16.799999 21 25.200001 29.4 33.599998 37.799999 42 46.200001 50.400002 54.599998 58.799999 63.007"
             y="43.841"
             sodipodi:role="line"
             id="tspan216">334d016f755cd6dc</tspan><tspan
             x="0 4.1999998 8.3999996 12.6 16.799999 21 25.200001 29.4 33.599998 37.799999 42 46.200001 50.400002 54.599998 58.799999 63.007"
             y="52.842999"
             sodipodi:role="line"
             id="tspan218">58c53a86e183882f</tspan><tspan
             x="0 4.1999998 8.3999996 12.6 16.799999 21 25.200001 29.4 33.599998 37.799999 42 46.200001 50.400002 54.599998 58.799999 63.007"
             y="61.845001"
             sodipodi:role="line"
             id="tspan220">8ec14f52fb053458</tspan><tspan
             x="0 4.1999998 8.3999996 12.6 16.799999 21 25.200001 29.4 33.599998 37.799999 42 46.200001 50.400002 54.599998 58.799999 63.007"
             y="70.847"
             sodipodi:role="line"
             id="tspan222">87c8a5edd42c87b7</tspan><tspan
             x="0 4.1999998 8.3999996 12.6 16.799999 21 25.200001 29.4 33.599998 37.799999 42 46.200001 50.400002 54.599998 58.799999 63.007"
             y="87.681999"
             sodipodi:role="line"
             id="tspan224">185f8db32271fe25</tspan><tspan
             x="0 4.1999998 8.3999996 12.6 16.799999 21 25.200001 29.4 33.599998 37.799999 42 46.200001 50.400002 54.599998 58.799999 63.007"
             y="96.683998"
             sodipodi:role="line"
             id="tspan226">f561a6fc938b2e26</tspan><tspan
             x="0 4.1999998 8.3999996 12.6 16.799999 21 25.200001 29.4 33.599998 37.799999 42 46.200001 50.400002 54.599998 58.799999 63.007"
             y="105.686"
             sodipodi:role="line"
             id="tspan228">4306ec304eda5180</tspan><tspan
             x="0 4.1999998 8.3999996 12.6 16.799999 21 25.200001 29.4 33.599998 37.799999 42 46.200001 50.400002 54.599998 58.799999 63.007"
             y="114.688"
             sodipodi:role="line"
             id="tspan230">07d1764826381969</tspan></text></g></g></g></svg>
