<svg xmlns="http://www.w3.org/2000/svg" width="67.21" height="107.96" viewBox="0 0 67.21 107.96">
  <defs>
    <style>
      .cls-1 {
        fill: #cce1e9;
        stroke-linejoin: round;
      }

      .cls-1, .cls-3 {
        stroke: #000;
        stroke-width: 0.5px;
      }

      .cls-2 {
        font-size: 6.32px;
        font-family: ArialMT, Arial;
      }

      .cls-3 {
        fill: none;
      }

      .cls-4 {
        fill: #a470b5;
      }

      .cls-5 {
        font-size: 7px;
        font-family: Nimbus Mono PS;
      }
    </style>
  </defs>
  <g id="Layer_2" data-name="Layer 2">
    <rect class="cls-1" x="6.15" y="37" width="54.92" height="17.59"/>
    <text class="cls-2" transform="translate(21.84 48.3)">SHA256</text>
    <path d="M279.23,250.87a21.94,21.94,0,0,1,.85-2.33h-2.91a22.94,22.94,0,0,1,.87,2.32,17.55,17.55,0,0,1,.6,2.54A16.07,16.07,0,0,1,279.23,250.87Z" transform="translate(-244.89 -182.57)"/>
    <line class="cls-3" x1="33.74" y1="66.59" x2="33.74" y2="54.76"/>
    <path d="M279.23,216.79a21.94,21.94,0,0,1,.85-2.33h-2.91a22.94,22.94,0,0,1,.87,2.32,17.55,17.55,0,0,1,.6,2.54A16.07,16.07,0,0,1,279.23,216.79Z" transform="translate(-244.89 -182.57)"/>
    <line class="cls-3" x1="33.74" y1="32.51" x2="33.74" y2="21.91"/>
    <path class="cls-4" d="M277.29,202.06v-2.68H280v2.68Zm.13-4.72v-.71a6.52,6.52,0,0,1,.39-2.38,5.6,5.6,0,0,1,.92-1.54,19.8,19.8,0,0,1,1.69-1.64,8.12,8.12,0,0,0,1.6-1.71,2.83,2.83,0,0,0,.36-1.4,3.26,3.26,0,0,0-1.07-2.41,3.64,3.64,0,0,0-2.63-1,3.52,3.52,0,0,0-2.51.94,5,5,0,0,0-1.31,2.94l-2.42-.29a6.29,6.29,0,0,1,1.94-4.1,6.21,6.21,0,0,1,4.27-1.43,6.35,6.35,0,0,1,4.47,1.54,4.78,4.78,0,0,1,1.68,3.69,4.64,4.64,0,0,1-.6,2.32,11,11,0,0,1-2.29,2.57,13,13,0,0,0-1.51,1.5,3.55,3.55,0,0,0-.52,1.11,9.83,9.83,0,0,0-.19,2Z" transform="translate(-244.89 -182.57)"/>
    <text class="cls-5" transform="translate(0 78.09)">334d016f755cd6dc<tspan x="0" y="9">58c53a86e183882f</tspan><tspan x="0" y="18">8ec14f52fb053458</tspan><tspan x="0" y="27">87c8a5edd42c87b7</tspan></text>
  </g>
</svg>
