<?xml version="1.0" encoding="UTF-8" standalone="no"?>
<svg
   xmlns:dc="http://purl.org/dc/elements/1.1/"
   xmlns:cc="http://creativecommons.org/ns#"
   xmlns:rdf="http://www.w3.org/1999/02/22-rdf-syntax-ns#"
   xmlns:svg="http://www.w3.org/2000/svg"
   xmlns="http://www.w3.org/2000/svg"
   version="1.1"
   id="svg2"
   xml:space="preserve"
   width="364.40668"
   height="191.06667"
   viewBox="0 0 364.40668 191.06667"><metadata
     id="metadata8"><rdf:RDF><cc:Work
         rdf:about=""><dc:format>image/svg+xml</dc:format><dc:type
           rdf:resource="http://purl.org/dc/dcmitype/StillImage" /></cc:Work></rdf:RDF></metadata><defs
     id="defs6"><clipPath
       clipPathUnits="userSpaceOnUse"
       id="clipPath18"><path
         d="M 0,792 H 612 V 0 H 0 Z"
         id="path16" /></clipPath></defs><g
     id="g10"
     transform="matrix(1.3333333,0,0,-1.3333333,-228.56346,899.66704)"><g
       id="g12"><g
         id="g14"
         clip-path="url(#clipPath18)"><g
           id="g20"
           transform="translate(347.1006,533.8003)"><path
             d="m 0,0 c 0,-1.154 -0.946,-2.1 -2.101,-2.1 h -171.226 c -1.155,0 -2.101,0.946 -2.101,2.1 v 138.6 c 0,1.155 0.946,2.1 2.101,2.1 H -2.101 C -0.946,140.7 0,139.755 0,138.6 Z"
             style="fill:#e3f0f7;fill-opacity:1;fill-rule:nonzero;stroke:none"
             id="path22" /></g><g
           id="g24"
           transform="translate(347.1006,533.8003)"><path
             d="m 0,0 c 0,-1.154 -0.946,-2.1 -2.101,-2.1 h -171.226 c -1.155,0 -2.101,0.946 -2.101,2.1 v 138.6 c 0,1.155 0.946,2.1 2.101,2.1 H -2.101 C -0.946,140.7 0,139.755 0,138.6 Z"
             style="fill:none;stroke:#918f90;stroke-width:0.5;stroke-linecap:butt;stroke-linejoin:miter;stroke-miterlimit:4;stroke-dasharray:none;stroke-opacity:1"
             id="path26" /></g><g
           id="g28"
           transform="translate(345,674.5)"><path
             d="m 0,0 h -171.227 c -1.155,0 -2.1,-0.944 -2.1,-2.1 V -13.3 H 2.101 V -2.1 C 2.101,-0.944 1.154,0 0,0"
             style="fill:#e7e3e2;fill-opacity:1;fill-rule:nonzero;stroke:none"
             id="path30" /></g><g
           id="g32"
           transform="translate(345,674.5)"><path
             d="m 0,0 h -171.227 c -1.155,0 -2.1,-0.944 -2.1,-2.1 V -13.3 H 2.101 V -2.1 C 2.101,-0.944 1.154,0 0,0 Z"
             style="fill:none;stroke:#918f90;stroke-width:0.5;stroke-linecap:butt;stroke-linejoin:miter;stroke-miterlimit:4;stroke-dasharray:none;stroke-opacity:1"
             id="path34" /></g><g
           id="g36"
           transform="translate(180.7041,668.0234)"><path
             d="M 0,0 C 0,-1.16 -0.94,-2.1 -2.101,-2.1 -3.26,-2.1 -4.2,-1.16 -4.2,0 c 0,1.16 0.94,2.1 2.099,2.1 C -0.94,2.1 0,1.16 0,0"
             style="fill:#f6836c;fill-opacity:1;fill-rule:nonzero;stroke:none"
             id="path38" /></g><g
           id="g40"
           transform="translate(180.7041,668.0234)"><path
             d="M 0,0 C 0,-1.16 -0.94,-2.1 -2.101,-2.1 -3.26,-2.1 -4.2,-1.16 -4.2,0 c 0,1.16 0.94,2.1 2.099,2.1 C -0.94,2.1 0,1.16 0,0 Z"
             style="fill:none;stroke:#918f90;stroke-width:0.5;stroke-linecap:butt;stroke-linejoin:miter;stroke-miterlimit:4;stroke-dasharray:none;stroke-opacity:1"
             id="path42" /></g><g
           id="g44"
           transform="translate(187.043,668.0234)"><path
             d="m 0,0 c 0,-1.16 -0.939,-2.1 -2.1,-2.1 -1.16,0 -2.099,0.94 -2.099,2.1 0,1.16 0.939,2.1 2.099,2.1 C -0.939,2.1 0,1.16 0,0"
             style="fill:#feeea3;fill-opacity:1;fill-rule:nonzero;stroke:none"
             id="path46" /></g><g
           id="g48"
           transform="translate(187.043,668.0234)"><path
             d="m 0,0 c 0,-1.16 -0.939,-2.1 -2.1,-2.1 -1.16,0 -2.099,0.94 -2.099,2.1 0,1.16 0.939,2.1 2.099,2.1 C -0.939,2.1 0,1.16 0,0 Z"
             style="fill:none;stroke:#918f90;stroke-width:0.5;stroke-linecap:butt;stroke-linejoin:miter;stroke-miterlimit:4;stroke-dasharray:none;stroke-opacity:1"
             id="path50" /></g><g
           id="g52"
           transform="translate(193.3828,668.0234)"><path
             d="m 0,0 c 0,-1.16 -0.94,-2.1 -2.1,-2.1 -1.16,0 -2.1,0.94 -2.1,2.1 0,1.16 0.94,2.1 2.1,2.1 C -0.94,2.1 0,1.16 0,0"
             style="fill:#86d38f;fill-opacity:1;fill-rule:nonzero;stroke:none"
             id="path54" /></g><g
           id="g56"
           transform="translate(193.3828,668.0234)"><path
             d="m 0,0 c 0,-1.16 -0.94,-2.1 -2.1,-2.1 -1.16,0 -2.1,0.94 -2.1,2.1 0,1.16 0.94,2.1 2.1,2.1 C -0.94,2.1 0,1.16 0,0 Z"
             style="fill:none;stroke:#918f90;stroke-width:0.5;stroke-linecap:butt;stroke-linejoin:miter;stroke-miterlimit:4;stroke-dasharray:none;stroke-opacity:1"
             id="path58" /></g><g
           id="g60"
           transform="translate(204.6563,665.189)"><path
             d="m 0,0 c 0,-0.275 -0.225,-0.5 -0.5,-0.5 h -5.596 c -0.275,0 -0.5,0.225 -0.5,0.5 v 5.667 c 0,0.275 0.225,0.5 0.5,0.5 H -0.5 c 0.275,0 0.5,-0.225 0.5,-0.5 z"
             style="fill:#f5f4f3;fill-opacity:1;fill-rule:nonzero;stroke:none"
             id="path62" /></g><g
           id="g64"
           transform="translate(204.6563,665.189)"><path
             d="m 0,0 c 0,-0.275 -0.225,-0.5 -0.5,-0.5 h -5.596 c -0.275,0 -0.5,0.225 -0.5,0.5 v 5.667 c 0,0.275 0.225,0.5 0.5,0.5 H -0.5 c 0.275,0 0.5,-0.225 0.5,-0.5 z"
             style="fill:none;stroke:#918f90;stroke-width:0.5;stroke-linecap:butt;stroke-linejoin:miter;stroke-miterlimit:4;stroke-dasharray:none;stroke-opacity:1"
             id="path66" /></g><g
           id="g68"
           transform="translate(202.1123,666.1777)"><path
             d="M 0,0 -2.077,1.846 0,3.691 0.349,3.299 -1.286,1.846 0.349,0.393 Z"
             style="fill:#918f90;fill-opacity:1;fill-rule:nonzero;stroke:none"
             id="path70" /></g><g
           id="g72"
           transform="translate(206.3574,665.189)"><path
             d="m 0,0 c 0,-0.275 0.225,-0.5 0.5,-0.5 h 5.597 c 0.275,0 0.5,0.225 0.5,0.5 v 5.667 c 0,0.275 -0.225,0.5 -0.5,0.5 H 0.5 C 0.225,6.167 0,5.942 0,5.667 Z"
             style="fill:#f5f4f3;fill-opacity:1;fill-rule:nonzero;stroke:none"
             id="path74" /></g><g
           id="g76"
           transform="translate(206.3574,665.189)"><path
             d="m 0,0 c 0,-0.275 0.225,-0.5 0.5,-0.5 h 5.597 c 0.275,0 0.5,0.225 0.5,0.5 v 5.667 c 0,0.275 -0.225,0.5 -0.5,0.5 H 0.5 C 0.225,6.167 0,5.942 0,5.667 Z"
             style="fill:none;stroke:#918f90;stroke-width:0.5;stroke-linecap:butt;stroke-linejoin:miter;stroke-miterlimit:4;stroke-dasharray:none;stroke-opacity:1"
             id="path78" /></g><g
           id="g80"
           transform="translate(217.3174,665.189)"><path
             d="m 0,0 c 0,-0.275 0.225,-0.5 0.5,-0.5 h 114.214 c 0.275,0 0.5,0.225 0.5,0.5 v 5.667 c 0,0.275 -0.225,0.5 -0.5,0.5 H 0.5 C 0.225,6.167 0,5.942 0,5.667 Z"
             style="fill:#f5f4f3;fill-opacity:1;fill-rule:nonzero;stroke:none"
             id="path82" /></g><g
           id="g84"
           transform="translate(217.3174,665.189)"><path
             d="m 0,0 c 0,-0.275 0.225,-0.5 0.5,-0.5 h 114.214 c 0.275,0 0.5,0.225 0.5,0.5 v 5.667 c 0,0.275 -0.225,0.5 -0.5,0.5 H 0.5 C 0.225,6.167 0,5.942 0,5.667 Z"
             style="fill:none;stroke:#918f90;stroke-width:0.5;stroke-linecap:butt;stroke-linejoin:miter;stroke-miterlimit:4;stroke-dasharray:none;stroke-opacity:1"
             id="path86" /></g><g
           id="g88"
           transform="translate(208.9023,666.1777)"><path
             d="M 0,0 -0.349,0.393 1.285,1.846 -0.349,3.299 0,3.691 2.076,1.846 Z"
             style="fill:#918f90;fill-opacity:1;fill-rule:nonzero;stroke:none"
             id="path90" /></g><g
           id="g92"
           transform="translate(327.9336,670.2568)"><path
             d="M 0,0 1.154,-0.688 0,-1.374 Z"
             style="fill:#918f90;fill-opacity:1;fill-rule:nonzero;stroke:none"
             id="path94" /></g><g
           id="g96"
           transform="translate(327.9375,666.2656)"><path
             d="m 0,0 c -0.968,0 -1.758,0.789 -1.758,1.758 0,0.968 0.79,1.757 1.758,1.757 V 3.094 c -0.737,0 -1.337,-0.6 -1.337,-1.336 0,-0.737 0.6,-1.337 1.337,-1.337 0.737,0 1.337,0.6 1.337,1.337 0,0.093 -0.01,0.186 -0.029,0.277 L 1.719,2.122 C 1.743,2.003 1.758,1.88 1.758,1.758 1.758,0.789 0.968,0 0,0"
             style="fill:#918f90;fill-opacity:1;fill-rule:nonzero;stroke:none"
             id="path98" /></g><g
           id="g100"
           transform="translate(338.8828,667.7168)"><path
             d="m 0,0 -1.847,-1.848 0.069,1.178 -0.383,0.024 -0.113,-1.898 1.899,0.112 -0.023,0.383 -1.181,-0.069 1.85,1.847 z"
             style="fill:#918f90;fill-opacity:1;fill-rule:nonzero;stroke:none"
             id="path102" /></g><g
           id="g104"
           transform="translate(339.7295,668.5625)"><path
             d="M 0,0 1.847,1.851 0.67,1.778 0.647,2.161 2.544,2.273 2.433,0.375 2.05,0.398 2.12,1.578 0.269,-0.27 Z"
             style="fill:#918f90;fill-opacity:1;fill-rule:nonzero;stroke:none"
             id="path106" /></g><path
           d="M 340.423,538.471 H 181.753 V 653.34 h 158.67 z"
           style="fill:#bcdaec;fill-opacity:1;fill-rule:nonzero;stroke:none"
           id="path108" /><path
           d="m 338.667,540.117 h -158.67 v 114.869 h 158.67 z"
           style="fill:#ffffff;fill-opacity:1;fill-rule:nonzero;stroke:#231f20;stroke-width:0.5;stroke-linecap:butt;stroke-linejoin:miter;stroke-miterlimit:10;stroke-dasharray:none;stroke-opacity:1"
           id="path110" /><text
           transform="matrix(1,0,0,-1,239.5337,644.041)"
           style="font-variant:normal;font-weight:normal;font-stretch:normal;font-size:7px;font-family:Arial;-inkscape-font-specification:ArialMT;writing-mode:lr-tb;fill:#231f20;fill-opacity:1;fill-rule:nonzero;stroke:none"
           id="text114"><tspan
             x="0 4.6690001 8.5609999 10.892 14.784 18.676001 22.568001 26.068001 29.959999 33.852001 37.743999"
             y="0"
             id="tspan112">Spreadsheet</tspan></text><path
           d="m 237.464,610.289 h -44.166 v 12.289 h 44.166 z"
           style="fill:#ffffff;fill-opacity:1;fill-rule:nonzero;stroke:#7b7979;stroke-width:0.5;stroke-linecap:butt;stroke-linejoin:round;stroke-miterlimit:10;stroke-dasharray:none;stroke-opacity:1"
           id="path116" /><text
           transform="matrix(1,0,0,-1,198.0542,614.2109)"
           style="font-variant:normal;font-weight:normal;font-stretch:normal;font-size:9px;font-family:Arial;-inkscape-font-specification:ArialMT;writing-mode:lr-tb;fill:#7b7979;fill-opacity:1;fill-rule:nonzero;stroke:none"
           id="text120"><tspan
             x="0 2.5020001 5.0040002"
             y="0"
             id="tspan118">...</tspan></text><path
           d="m 237.464,598 h -44.166 v 12.289 h 44.166 z"
           style="fill:#ffffff;fill-opacity:1;fill-rule:nonzero;stroke:#7b7979;stroke-width:0.5;stroke-linecap:butt;stroke-linejoin:round;stroke-miterlimit:10;stroke-dasharray:none;stroke-opacity:1"
           id="path122" /><text
           transform="matrix(1,0,0,-1,198.0542,601.9209)"
           style="font-variant:normal;font-weight:normal;font-stretch:normal;font-size:7px;font-family:Arial;-inkscape-font-specification:ArialMT;writing-mode:lr-tb;fill:#7b7979;fill-opacity:1;fill-rule:nonzero;stroke:none"
           id="text126"><tspan
             x="0 4.6690001 6.223 7.777 11.277"
             y="0"
             id="tspan124">Alice</tspan></text><path
           d="m 237.464,585.71 h -44.166 v 12.289 h 44.166 z"
           style="fill:#ffffff;fill-opacity:1;fill-rule:nonzero;stroke:#7b7979;stroke-width:0.5;stroke-linecap:butt;stroke-linejoin:round;stroke-miterlimit:10;stroke-dasharray:none;stroke-opacity:1"
           id="path128" /><text
           transform="matrix(1,0,0,-1,198.0542,589.6328)"
           style="font-variant:normal;font-weight:normal;font-stretch:normal;font-size:7px;font-family:Arial;-inkscape-font-specification:ArialMT;writing-mode:lr-tb;fill:#7b7979;fill-opacity:1;fill-rule:nonzero;stroke:none"
           id="text132"><tspan
             x="0 5.0539999 8.9460001 10.892"
             y="0"
             id="tspan130">Cafe</tspan></text><path
           d="m 237.464,573.421 h -44.166 v 12.289 h 44.166 z"
           style="fill:#ffffff;fill-opacity:1;fill-rule:nonzero;stroke:#7b7979;stroke-width:0.5;stroke-linecap:butt;stroke-linejoin:round;stroke-miterlimit:10;stroke-dasharray:none;stroke-opacity:1"
           id="path134" /><text
           transform="matrix(1,0,0,-1,198.0542,577.3437)"
           style="font-variant:normal;font-weight:normal;font-stretch:normal;font-size:7px;font-family:Arial;-inkscape-font-specification:ArialMT;writing-mode:lr-tb;fill:#7b7979;fill-opacity:1;fill-rule:nonzero;stroke:none"
           id="text138"><tspan
             x="0 3.892 5.4460001 8.9460001"
             y="0"
             id="tspan136">Lisa</tspan></text><path
           d="m 237.464,561.132 h -44.166 v 12.289 h 44.166 z"
           style="fill:#ffffff;fill-opacity:1;fill-rule:nonzero;stroke:#7b7979;stroke-width:0.5;stroke-linecap:butt;stroke-linejoin:round;stroke-miterlimit:10;stroke-dasharray:none;stroke-opacity:1"
           id="path140" /><text
           transform="matrix(1,0,0,-1,198.0542,565.0547)"
           style="font-variant:normal;font-weight:normal;font-stretch:normal;font-size:7px;font-family:Arial;-inkscape-font-specification:ArialMT;writing-mode:lr-tb;fill:#7b7979;fill-opacity:1;fill-rule:nonzero;stroke:none"
           id="text144"><tspan
             x="0 5.0539999 8.9460001 10.892"
             y="0"
             id="tspan142">Cafe</tspan></text><path
           d="m 281.63,610.289 h -44.166 v 12.289 h 44.166 z"
           style="fill:#ffffff;fill-opacity:1;fill-rule:nonzero;stroke:#7b7979;stroke-width:0.5;stroke-linecap:butt;stroke-linejoin:round;stroke-miterlimit:10;stroke-dasharray:none;stroke-opacity:1"
           id="path146" /><text
           transform="matrix(1,0,0,-1,242.2202,614.2109)"
           style="font-variant:normal;font-weight:normal;font-stretch:normal;font-size:9px;font-family:Arial;-inkscape-font-specification:ArialMT;writing-mode:lr-tb;fill:#7b7979;fill-opacity:1;fill-rule:nonzero;stroke:none"
           id="text150"><tspan
             x="0 2.5020001 5.0040002"
             y="0"
             id="tspan148">...</tspan></text><path
           d="m 281.63,598 h -44.166 v 12.289 h 44.166 z"
           style="fill:#ffffff;fill-opacity:1;fill-rule:nonzero;stroke:#7b7979;stroke-width:0.5;stroke-linecap:butt;stroke-linejoin:round;stroke-miterlimit:10;stroke-dasharray:none;stroke-opacity:1"
           id="path152" /><text
           transform="matrix(1,0,0,-1,242.2202,601.9209)"
           style="font-variant:normal;font-weight:normal;font-stretch:normal;font-size:7px;font-family:Arial;-inkscape-font-specification:ArialMT;writing-mode:lr-tb;fill:#7b7979;fill-opacity:1;fill-rule:nonzero;stroke:none"
           id="text156"><tspan
             x="0 5.0539999 8.9460001 10.892"
             y="0"
             id="tspan154">Cafe</tspan></text><path
           d="m 281.63,585.71 h -44.166 v 12.289 h 44.166 z"
           style="fill:#ffffff;fill-opacity:1;fill-rule:nonzero;stroke:#7b7979;stroke-width:0.5;stroke-linecap:butt;stroke-linejoin:round;stroke-miterlimit:10;stroke-dasharray:none;stroke-opacity:1"
           id="path158" /><text
           transform="matrix(1,0,0,-1,242.2202,589.6328)"
           style="font-variant:normal;font-weight:normal;font-stretch:normal;font-size:7px;font-family:Arial;-inkscape-font-specification:ArialMT;writing-mode:lr-tb;fill:#7b7979;fill-opacity:1;fill-rule:nonzero;stroke:none"
           id="text162"><tspan
             x="0 4.6690001 8.5609999 12.453"
             y="0"
             id="tspan160">Anne</tspan></text><path
           d="M 281.63,573.421 H 237.464 V 585.71 H 281.63 Z"
           style="fill:#ffffff;fill-opacity:1;fill-rule:nonzero;stroke:#7b7979;stroke-width:0.5;stroke-linecap:butt;stroke-linejoin:round;stroke-miterlimit:10;stroke-dasharray:none;stroke-opacity:1"
           id="path164" /><text
           transform="matrix(1,0,0,-1,242.2202,577.3437)"
           style="font-variant:normal;font-weight:normal;font-stretch:normal;font-size:7px;font-family:Arial;-inkscape-font-specification:ArialMT;writing-mode:lr-tb;fill:#7b7979;fill-opacity:1;fill-rule:nonzero;stroke:none"
           id="text168"><tspan
             x="0 5.0539999 8.9460001 10.892"
             y="0"
             id="tspan166">Cafe</tspan></text><path
           d="m 281.63,561.132 h -44.166 v 12.289 h 44.166 z"
           style="fill:#ffffff;fill-opacity:1;fill-rule:nonzero;stroke:#7b7979;stroke-width:0.5;stroke-linecap:butt;stroke-linejoin:round;stroke-miterlimit:10;stroke-dasharray:none;stroke-opacity:1"
           id="path170" /><text
           transform="matrix(1,0,0,-1,242.2202,565.0547)"
           style="font-variant:normal;font-weight:normal;font-stretch:normal;font-size:7px;font-family:Arial;-inkscape-font-specification:ArialMT;writing-mode:lr-tb;fill:#7b7979;fill-opacity:1;fill-rule:nonzero;stroke:none"
           id="text174"><tspan
             x="0 5.0539999 8.9460001 14.777 18.669001 22.561001 26.452999"
             y="0"
             id="tspan172">Company</tspan></text><path
           d="M 325.796,610.289 H 281.63 v 12.289 h 44.166 z"
           style="fill:#ffffff;fill-opacity:1;fill-rule:nonzero;stroke:#7b7979;stroke-width:0.5;stroke-linecap:butt;stroke-linejoin:round;stroke-miterlimit:10;stroke-dasharray:none;stroke-opacity:1"
           id="path176" /><text
           transform="matrix(1,0,0,-1,311.5513,614.2109)"
           style="font-variant:normal;font-weight:normal;font-stretch:normal;font-size:9px;font-family:Arial;-inkscape-font-specification:ArialMT;writing-mode:lr-tb;fill:#7b7979;fill-opacity:1;fill-rule:nonzero;stroke:none"
           id="text180"><tspan
             x="0 2.5020001 5.0040002"
             y="0"
             id="tspan178">...</tspan></text><path
           d="M 325.796,598 H 281.63 v 12.289 h 44.166 z"
           style="fill:#ffffff;fill-opacity:1;fill-rule:nonzero;stroke:#7b7979;stroke-width:0.5;stroke-linecap:butt;stroke-linejoin:round;stroke-miterlimit:10;stroke-dasharray:none;stroke-opacity:1"
           id="path182" /><text
           transform="matrix(1,0,0,-1,311.2671,601.9209)"
           style="font-variant:normal;font-weight:normal;font-stretch:normal;font-size:7px;font-family:Arial;-inkscape-font-specification:ArialMT;writing-mode:lr-tb;fill:#7b7979;fill-opacity:1;fill-rule:nonzero;stroke:none"
           id="text186"><tspan
             x="0 3.892"
             y="0"
             id="tspan184">10</tspan></text><path
           d="M 325.796,585.71 H 281.63 v 12.289 h 44.166 z"
           style="fill:#ffffff;fill-opacity:1;fill-rule:nonzero;stroke:#7b7979;stroke-width:0.5;stroke-linecap:butt;stroke-linejoin:round;stroke-miterlimit:10;stroke-dasharray:none;stroke-opacity:1"
           id="path188" /><text
           transform="matrix(1,0,0,-1,301.5356,589.6328)"
           style="font-variant:normal;font-weight:normal;font-stretch:normal;font-size:7px;font-family:Arial;-inkscape-font-specification:ArialMT;writing-mode:lr-tb;fill:#7b7979;fill-opacity:1;fill-rule:nonzero;stroke:none"
           id="text192"><tspan
             x="0 3.892 5.8379998 9.7299995 13.622"
             y="0"
             id="tspan190">1,000</tspan></text><path
           d="M 325.796,573.421 H 281.63 v 12.289 h 44.166 z"
           style="fill:#ffffff;fill-opacity:1;fill-rule:nonzero;stroke:#7b7979;stroke-width:0.5;stroke-linecap:butt;stroke-linejoin:round;stroke-miterlimit:10;stroke-dasharray:none;stroke-opacity:1"
           id="path194" /><text
           transform="matrix(1,0,0,-1,311.2671,577.3437)"
           style="font-variant:normal;font-weight:normal;font-stretch:normal;font-size:7px;font-family:Arial;-inkscape-font-specification:ArialMT;writing-mode:lr-tb;fill:#7b7979;fill-opacity:1;fill-rule:nonzero;stroke:none"
           id="text198"><tspan
             x="0 3.892"
             y="0"
             id="tspan196">10</tspan></text><path
           d="M 325.796,561.132 H 281.63 v 12.289 h 44.166 z"
           style="fill:#ffffff;fill-opacity:1;fill-rule:nonzero;stroke:#7b7979;stroke-width:0.5;stroke-linecap:butt;stroke-linejoin:round;stroke-miterlimit:10;stroke-dasharray:none;stroke-opacity:1"
           id="path200" /><text
           transform="matrix(1,0,0,-1,297.6431,565.0547)"
           style="font-variant:normal;font-weight:normal;font-stretch:normal;font-size:7px;font-family:Arial;-inkscape-font-specification:ArialMT;writing-mode:lr-tb;fill:#7b7979;fill-opacity:1;fill-rule:nonzero;stroke:none"
           id="text204"><tspan
             x="0 3.892 7.7839999 9.7299995 13.622 17.514"
             y="0"
             id="tspan202">10,000</tspan></text><path
           d="m 237.464,622.578 h -44.166 v 12.289 h 44.166 z"
           style="fill:#e9e9e9;fill-opacity:1;fill-rule:nonzero;stroke:#231f20;stroke-width:0.5;stroke-linecap:butt;stroke-linejoin:round;stroke-miterlimit:10;stroke-dasharray:none;stroke-opacity:1"
           id="path206" /><path
           d="m 281.63,622.578 h -44.166 v 12.289 h 44.166 z"
           style="fill:#e9e9e9;fill-opacity:1;fill-rule:nonzero;stroke:#231f20;stroke-width:0.5;stroke-linecap:butt;stroke-linejoin:round;stroke-miterlimit:10;stroke-dasharray:none;stroke-opacity:1"
           id="path208" /><path
           d="M 325.796,622.578 H 281.63 v 12.289 h 44.166 z"
           style="fill:#e9e9e9;fill-opacity:1;fill-rule:nonzero;stroke:#231f20;stroke-width:0.5;stroke-linecap:butt;stroke-linejoin:round;stroke-miterlimit:10;stroke-dasharray:none;stroke-opacity:1"
           id="path210" /><text
           transform="matrix(1,0,0,-1,207.2212,626.5)"
           style="font-variant:normal;font-weight:normal;font-stretch:normal;font-size:7px;font-family:Arial;-inkscape-font-specification:ArialMT;writing-mode:lr-tb;fill:#231f20;fill-opacity:1;fill-rule:nonzero;stroke:none"
           id="text214"><tspan
             x="0 4.277 6.6079998 10.5 48.250999 52.528 78.799004 83.468002 89.299004 93.191002 97.083 100.975 102.921 104.867 109.921"
             y="0"
             id="tspan212">FromToAmount CT</tspan></text><path
           d="m 237.464,548.843 h -44.166 v 12.289 h 44.166 z"
           style="fill:#ffffff;fill-opacity:1;fill-rule:nonzero;stroke:#231f20;stroke-width:0.5;stroke-linecap:butt;stroke-linejoin:round;stroke-miterlimit:10;stroke-dasharray:none;stroke-opacity:1"
           id="path216" /><path
           d="m 281.63,548.843 h -44.166 v 12.289 h 44.166 z"
           style="fill:#ffffff;fill-opacity:1;fill-rule:nonzero;stroke:#231f20;stroke-width:0.5;stroke-linecap:butt;stroke-linejoin:round;stroke-miterlimit:10;stroke-dasharray:none;stroke-opacity:1"
           id="path218" /><path
           d="M 325.796,548.843 H 281.63 v 12.289 h 44.166 z"
           style="fill:#ffffff;fill-opacity:1;fill-rule:nonzero;stroke:#231f20;stroke-width:0.5;stroke-linecap:butt;stroke-linejoin:round;stroke-miterlimit:10;stroke-dasharray:none;stroke-opacity:1"
           id="path220" /><g
           id="g222"
           transform="translate(193.9526,623.0034)"><path
             d="M 0,0 V 11.19 H 42.971"
             style="fill:none;stroke:#ffffff;stroke-width:0.75;stroke-linecap:butt;stroke-linejoin:round;stroke-miterlimit:10;stroke-dasharray:none;stroke-opacity:1"
             id="path224" /></g><g
           id="g226"
           transform="translate(238.1187,623.0034)"><path
             d="M 0,0 V 11.19 H 42.971"
             style="fill:none;stroke:#ffffff;stroke-width:0.75;stroke-linecap:butt;stroke-linejoin:round;stroke-miterlimit:10;stroke-dasharray:none;stroke-opacity:1"
             id="path228" /></g><g
           id="g230"
           transform="translate(282.2847,623.0034)"><path
             d="M 0,0 V 11.19 H 42.97"
             style="fill:none;stroke:#ffffff;stroke-width:0.75;stroke-linecap:butt;stroke-linejoin:round;stroke-miterlimit:10;stroke-dasharray:none;stroke-opacity:1"
             id="path232" /></g><text
           transform="matrix(1,0,0,-1,198.0542,552.7656)"
           style="font-variant:normal;font-weight:normal;font-stretch:normal;font-size:7px;font-family:Arial;-inkscape-font-specification:ArialMT;writing-mode:lr-tb;fill:#231f20;fill-opacity:1;fill-rule:nonzero;stroke:none"
           id="text236"><tspan
             x="0 4.6690001 6.223 7.777 11.277 44.162998 49.216999 53.109001 55.055 113.211 117.103"
             y="0"
             id="tspan234">AliceCafe10</tspan></text><text
           transform="matrix(1,0,0,-1,363.9438,565.3862)"
           style="font-variant:normal;font-weight:bold;font-stretch:condensed;font-size:9px;font-family:'Humanst521 Cn BT';-inkscape-font-specification:Humanist521BT-BoldCondensed;writing-mode:lr-tb;fill:#231f20;fill-opacity:1;fill-rule:nonzero;stroke:none"
           id="text244"><tspan
             x="0 5.2379999 9.198 14.904 17.208 20.601 24.948 30.653999 33.155998 35.459999 39.582001 41.715 45.216 49.265999 51.57 55.619999 60.129002 64.638 68.598 73.080002 77.588997"
             y="0"
             id="tspan238">New row! Lisa appends</tspan><tspan
             x="0 2.997 7.4879999 11.448 13.752 16.749001 20.142 24.191999 28.674 32.174999 34.487999 38.448002 41.841 44.145 47.141998 51.488998 53.792999 56.790001 61.280998"
             y="9.5039997"
             id="tspan240">the transfer to the</tspan><tspan
             x="0 3.5009999 8.0100002 11.403 15.363 19.413 23.922001 27.423 31.914 35.874001 39.834 42.831001"
             y="19.007999"
             id="tspan242">spreadsheet.</tspan></text><g
           id="g246"
           transform="translate(330.5781,555.1367)"><path
             d="M 0,0 C 11.07,0 25.897,5.019 31.563,5.019"
             style="fill:none;stroke:#231f20;stroke-width:0.3;stroke-linecap:butt;stroke-linejoin:miter;stroke-miterlimit:10;stroke-dasharray:none;stroke-opacity:1"
             id="path248" /></g><g
           id="g250"
           transform="translate(331.125,553.2773)"><path
             d="M 0,0 -3.238,1.87 0,3.739 Z"
             style="fill:#231f20;fill-opacity:1;fill-rule:nonzero;stroke:none"
             id="path252" /></g></g></g></g></svg>
