<?xml version="1.0" encoding="UTF-8" standalone="no"?>
<svg
   xmlns:dc="http://purl.org/dc/elements/1.1/"
   xmlns:cc="http://creativecommons.org/ns#"
   xmlns:rdf="http://www.w3.org/1999/02/22-rdf-syntax-ns#"
   xmlns:svg="http://www.w3.org/2000/svg"
   xmlns="http://www.w3.org/2000/svg"
   version="1.1"
   id="svg2"
   xml:space="preserve"
   width="333.40799"
   height="86.714615"
   viewBox="0 0 333.40799 86.714615"><metadata
     id="metadata8"><rdf:RDF><cc:Work
         rdf:about=""><dc:format>image/svg+xml</dc:format><dc:type
           rdf:resource="http://purl.org/dc/dcmitype/StillImage" /></cc:Work></rdf:RDF></metadata><defs
     id="defs6"><clipPath
       clipPathUnits="userSpaceOnUse"
       id="clipPath24"><path
         d="M 0,792 H 612 V 0 H 0 Z"
         id="path22" /></clipPath><clipPath
       clipPathUnits="userSpaceOnUse"
       id="clipPath38"><path
         d="M 0,792 H 612 V 0 H 0 Z"
         id="path36" /></clipPath><clipPath
       clipPathUnits="userSpaceOnUse"
       id="clipPath52"><path
         d="M 0,792 H 612 V 0 H 0 Z"
         id="path50" /></clipPath><clipPath
       clipPathUnits="userSpaceOnUse"
       id="clipPath66"><path
         d="M 0,792 H 612 V 0 H 0 Z"
         id="path64" /></clipPath><clipPath
       clipPathUnits="userSpaceOnUse"
       id="clipPath80"><path
         d="M 0,792 H 612 V 0 H 0 Z"
         id="path78" /></clipPath><clipPath
       clipPathUnits="userSpaceOnUse"
       id="clipPath94"><path
         d="M 0,792 H 612 V 0 H 0 Z"
         id="path92" /></clipPath><clipPath
       clipPathUnits="userSpaceOnUse"
       id="clipPath108"><path
         d="M 0,792 H 612 V 0 H 0 Z"
         id="path106" /></clipPath><clipPath
       clipPathUnits="userSpaceOnUse"
       id="clipPath122"><path
         d="M 0,792 H 612 V 0 H 0 Z"
         id="path120" /></clipPath><clipPath
       clipPathUnits="userSpaceOnUse"
       id="clipPath136"><path
         d="M 0,792 H 612 V 0 H 0 Z"
         id="path134" /></clipPath><clipPath
       clipPathUnits="userSpaceOnUse"
       id="clipPath150"><path
         d="M 0,792 H 612 V 0 H 0 Z"
         id="path148" /></clipPath><clipPath
       clipPathUnits="userSpaceOnUse"
       id="clipPath166"><path
         d="M 0,792 H 612 V 0 H 0 Z"
         id="path164" /></clipPath><clipPath
       clipPathUnits="userSpaceOnUse"
       id="clipPath180"><path
         d="M 0,792 H 612 V 0 H 0 Z"
         id="path178" /></clipPath><clipPath
       clipPathUnits="userSpaceOnUse"
       id="clipPath194"><path
         d="M 0,792 H 612 V 0 H 0 Z"
         id="path192" /></clipPath><clipPath
       clipPathUnits="userSpaceOnUse"
       id="clipPath218"><path
         d="M 0,792 H 612 V 0 H 0 Z"
         id="path216" /></clipPath></defs><g
     id="g10"
     transform="matrix(1.3333333,0,0,-1.3333333,-227.00266,859.87465)"><path
       d="m 214.668,632.367 h -44.166 v 12.289 h 44.166 z"
       style="fill:#e9e9e9;fill-opacity:1;fill-rule:nonzero;stroke:#231f20;stroke-width:0.5;stroke-linecap:butt;stroke-linejoin:round;stroke-miterlimit:10;stroke-dasharray:none;stroke-opacity:1"
       id="path12" /><path
       d="m 258.834,632.367 h -44.166 v 12.289 h 44.166 z"
       style="fill:#e9e9e9;fill-opacity:1;fill-rule:nonzero;stroke:#231f20;stroke-width:0.5;stroke-linecap:butt;stroke-linejoin:round;stroke-miterlimit:10;stroke-dasharray:none;stroke-opacity:1"
       id="path14" /><path
       d="m 303,632.367 h -44.166 v 12.289 H 303 Z"
       style="fill:#e9e9e9;fill-opacity:1;fill-rule:nonzero;stroke:#231f20;stroke-width:0.5;stroke-linecap:butt;stroke-linejoin:round;stroke-miterlimit:10;stroke-dasharray:none;stroke-opacity:1"
       id="path16" /><g
       id="g18"><g
         id="g20"
         clip-path="url(#clipPath24)"><text
           transform="matrix(1,0,0,-1,184.4253,636.2891)"
           style="font-variant:normal;font-weight:normal;font-stretch:normal;font-size:7px;font-family:Arial;-inkscape-font-specification:ArialMT;writing-mode:lr-tb;fill:#231f20;fill-opacity:1;fill-rule:nonzero;stroke:none"
           id="text28"><tspan
             x="0 4.277 6.6079998 10.5"
             y="0"
             id="tspan26">From</tspan></text></g></g><path
       d="m 214.668,620.078 h -44.166 v 12.289 h 44.166 z"
       style="fill:#ffffff;fill-opacity:1;fill-rule:nonzero;stroke:#231f20;stroke-width:0.5;stroke-linecap:butt;stroke-linejoin:round;stroke-miterlimit:10;stroke-dasharray:none;stroke-opacity:1"
       id="path30" /><g
       id="g32"><g
         id="g34"
         clip-path="url(#clipPath38)"><text
           transform="matrix(1,0,0,-1,175.2583,624)"
           style="font-variant:normal;font-weight:normal;font-stretch:normal;font-size:9px;font-family:Arial;-inkscape-font-specification:ArialMT;writing-mode:lr-tb;fill:#231f20;fill-opacity:1;fill-rule:nonzero;stroke:none"
           id="text42"><tspan
             x="0 2.5020001 5.0040002"
             y="0"
             id="tspan40">...</tspan></text></g></g><path
       d="m 214.668,607.789 h -44.166 v 12.289 h 44.166 z"
       style="fill:#ffffff;fill-opacity:1;fill-rule:nonzero;stroke:#231f20;stroke-width:0.5;stroke-linecap:butt;stroke-linejoin:round;stroke-miterlimit:10;stroke-dasharray:none;stroke-opacity:1"
       id="path44" /><g
       id="g46"><g
         id="g48"
         clip-path="url(#clipPath52)"><text
           transform="matrix(1,0,0,-1,175.2583,611.7109)"
           style="font-variant:normal;font-weight:normal;font-stretch:normal;font-size:7px;font-family:Arial;-inkscape-font-specification:ArialMT;writing-mode:lr-tb;fill:#231f20;fill-opacity:1;fill-rule:nonzero;stroke:none"
           id="text56"><tspan
             x="0 5.0539999 8.9460001 14.777 18.669001 22.561001 26.452999"
             y="0"
             id="tspan54">Company</tspan></text></g></g><path
       d="m 214.668,595.5 h -44.166 v 12.289 h 44.166 z"
       style="fill:#ffffff;fill-opacity:1;fill-rule:nonzero;stroke:#231f20;stroke-width:0.5;stroke-linecap:butt;stroke-linejoin:round;stroke-miterlimit:10;stroke-dasharray:none;stroke-opacity:1"
       id="path58" /><g
       id="g60"><g
         id="g62"
         clip-path="url(#clipPath66)"><text
           transform="matrix(1,0,0,-1,175.2583,599.4209)"
           style="font-variant:normal;font-weight:normal;font-stretch:normal;font-size:7px;font-family:Arial;-inkscape-font-specification:ArialMT;writing-mode:lr-tb;fill:#231f20;fill-opacity:1;fill-rule:nonzero;stroke:none"
           id="text70"><tspan
             x="0 3.5 7.3920002 11.284"
             y="0"
             id="tspan68">John</tspan></text></g></g><path
       d="m 258.834,620.078 h -44.166 v 12.289 h 44.166 z"
       style="fill:#ffffff;fill-opacity:1;fill-rule:nonzero;stroke:#231f20;stroke-width:0.5;stroke-linecap:butt;stroke-linejoin:round;stroke-miterlimit:10;stroke-dasharray:none;stroke-opacity:1"
       id="path72" /><g
       id="g74"><g
         id="g76"
         clip-path="url(#clipPath80)"><text
           transform="matrix(1,0,0,-1,219.4243,624)"
           style="font-variant:normal;font-weight:normal;font-stretch:normal;font-size:9px;font-family:Arial;-inkscape-font-specification:ArialMT;writing-mode:lr-tb;fill:#231f20;fill-opacity:1;fill-rule:nonzero;stroke:none"
           id="text84"><tspan
             x="0 2.5020001 5.0040002"
             y="0"
             id="tspan82">...</tspan></text></g></g><path
       d="m 258.834,607.789 h -44.166 v 12.289 h 44.166 z"
       style="fill:#ffffff;fill-opacity:1;fill-rule:nonzero;stroke:#231f20;stroke-width:0.5;stroke-linecap:butt;stroke-linejoin:round;stroke-miterlimit:10;stroke-dasharray:none;stroke-opacity:1"
       id="path86" /><g
       id="g88"><g
         id="g90"
         clip-path="url(#clipPath94)"><text
           transform="matrix(1,0,0,-1,219.4243,611.7109)"
           style="font-variant:normal;font-weight:normal;font-stretch:normal;font-size:7px;font-family:Arial;-inkscape-font-specification:ArialMT;writing-mode:lr-tb;fill:#231f20;fill-opacity:1;fill-rule:nonzero;stroke:none"
           id="text98"><tspan
             x="0 3.5 7.3920002 11.284"
             y="0"
             id="tspan96">John</tspan></text></g></g><path
       d="m 258.834,595.5 h -44.166 v 12.289 h 44.166 z"
       style="fill:#ffffff;fill-opacity:1;fill-rule:nonzero;stroke:#231f20;stroke-width:0.5;stroke-linecap:butt;stroke-linejoin:round;stroke-miterlimit:10;stroke-dasharray:none;stroke-opacity:1"
       id="path100" /><g
       id="g102"><g
         id="g104"
         clip-path="url(#clipPath108)"><text
           transform="matrix(1,0,0,-1,219.4243,599.4209)"
           style="font-variant:normal;font-weight:normal;font-stretch:normal;font-size:7px;font-family:Arial;-inkscape-font-specification:ArialMT;writing-mode:lr-tb;fill:#231f20;fill-opacity:1;fill-rule:nonzero;stroke:none"
           id="text112"><tspan
             x="0 5.0539999 8.9460001 10.892"
             y="0"
             id="tspan110">Cafe</tspan></text></g></g><path
       d="m 303,620.078 h -44.166 v 12.289 H 303 Z"
       style="fill:#ffffff;fill-opacity:1;fill-rule:nonzero;stroke:#231f20;stroke-width:0.5;stroke-linecap:butt;stroke-linejoin:round;stroke-miterlimit:10;stroke-dasharray:none;stroke-opacity:1"
       id="path114" /><g
       id="g116"><g
         id="g118"
         clip-path="url(#clipPath122)"><text
           transform="matrix(1,0,0,-1,288.7554,624)"
           style="font-variant:normal;font-weight:normal;font-stretch:normal;font-size:9px;font-family:Arial;-inkscape-font-specification:ArialMT;writing-mode:lr-tb;fill:#231f20;fill-opacity:1;fill-rule:nonzero;stroke:none"
           id="text126"><tspan
             x="0 2.5020001 5.0040002"
             y="0"
             id="tspan124">...</tspan></text></g></g><path
       d="m 303,607.789 h -44.166 v 12.289 H 303 Z"
       style="fill:#ffffff;fill-opacity:1;fill-rule:nonzero;stroke:#231f20;stroke-width:0.5;stroke-linecap:butt;stroke-linejoin:round;stroke-miterlimit:10;stroke-dasharray:none;stroke-opacity:1"
       id="path128" /><g
       id="g130"><g
         id="g132"
         clip-path="url(#clipPath136)"><text
           transform="matrix(1,0,0,-1,284.5776,611.7109)"
           style="font-variant:normal;font-weight:normal;font-stretch:normal;font-size:7px;font-family:Arial;-inkscape-font-specification:ArialMT;writing-mode:lr-tb;fill:#231f20;fill-opacity:1;fill-rule:nonzero;stroke:none"
           id="text140"><tspan
             x="0 3.892 7.7839999"
             y="0"
             id="tspan138">100</tspan></text></g></g><path
       d="m 303,595.5 h -44.166 v 12.289 H 303 Z"
       style="fill:#ffffff;fill-opacity:1;fill-rule:nonzero;stroke:#231f20;stroke-width:0.5;stroke-linecap:butt;stroke-linejoin:round;stroke-miterlimit:10;stroke-dasharray:none;stroke-opacity:1"
       id="path142" /><g
       id="g144"><g
         id="g146"
         clip-path="url(#clipPath150)"><text
           transform="matrix(1,0,0,-1,288.4712,599.4209)"
           style="font-variant:normal;font-weight:normal;font-stretch:normal;font-size:7px;font-family:Arial;-inkscape-font-specification:ArialMT;writing-mode:lr-tb;fill:#231f20;fill-opacity:1;fill-rule:nonzero;stroke:none"
           id="text156"><tspan
             x="0 3.892"
             y="0"
             id="tspan152">10</tspan><tspan
             x="-55.797001 -51.52 -25.249001 -20.58 -14.749 -10.857 -6.9650002 -3.073 -1.127 0.81900001 5.8730001"
             y="-36.868999"
             id="tspan154">ToAmount CT</tspan></text></g></g><path
       d="M 214.668,583.211 H 170.502 V 595.5 h 44.166 z"
       style="fill:#ffffff;fill-opacity:1;fill-rule:nonzero;stroke:#231f20;stroke-width:0.5;stroke-linecap:butt;stroke-linejoin:round;stroke-miterlimit:10;stroke-dasharray:none;stroke-opacity:1"
       id="path158" /><g
       id="g160"><g
         id="g162"
         clip-path="url(#clipPath166)"><text
           transform="matrix(1,0,0,-1,175.2583,587.1318)"
           style="font-variant:normal;font-weight:normal;font-stretch:normal;font-size:7px;font-family:Arial;-inkscape-font-specification:ArialMT;writing-mode:lr-tb;fill:#231f20;fill-opacity:1;fill-rule:nonzero;stroke:none"
           id="text170"><tspan
             x="0 3.5 7.3920002 11.284"
             y="0"
             id="tspan168">John</tspan></text></g></g><path
       d="M 258.834,583.211 H 214.668 V 595.5 h 44.166 z"
       style="fill:#ffffff;fill-opacity:1;fill-rule:nonzero;stroke:#231f20;stroke-width:0.5;stroke-linecap:butt;stroke-linejoin:round;stroke-miterlimit:10;stroke-dasharray:none;stroke-opacity:1"
       id="path172" /><g
       id="g174"><g
         id="g176"
         clip-path="url(#clipPath180)"><text
           transform="matrix(1,0,0,-1,219.4243,587.1318)"
           style="font-variant:normal;font-weight:normal;font-stretch:normal;font-size:7px;font-family:Arial;-inkscape-font-specification:ArialMT;writing-mode:lr-tb;fill:#231f20;fill-opacity:1;fill-rule:nonzero;stroke:none"
           id="text184"><tspan
             x="0 5.8309999 9.7229996 11.277 12.831 16.330999 19.830999"
             y="0"
             id="tspan182">Melissa</tspan></text></g></g><path
       d="M 303,583.211 H 258.834 V 595.5 H 303 Z"
       style="fill:#ffffff;fill-opacity:1;fill-rule:nonzero;stroke:#231f20;stroke-width:0.5;stroke-linecap:butt;stroke-linejoin:round;stroke-miterlimit:10;stroke-dasharray:none;stroke-opacity:1"
       id="path186" /><g
       id="g188"><g
         id="g190"
         clip-path="url(#clipPath194)"><text
           transform="matrix(1,0,0,-1,288.4712,587.1318)"
           style="font-variant:normal;font-weight:normal;font-stretch:normal;font-size:7px;font-family:Arial;-inkscape-font-specification:ArialMT;writing-mode:lr-tb;fill:#231f20;fill-opacity:1;fill-rule:nonzero;stroke:none"
           id="text198"><tspan
             x="0 3.892"
             y="0"
             id="tspan196">90</tspan></text></g></g><g
       id="g200"
       transform="translate(171.1567,632.793)"><path
         d="M 0,0 V 11.19 H 42.97"
         style="fill:none;stroke:#ffffff;stroke-width:0.75;stroke-linecap:butt;stroke-linejoin:round;stroke-miterlimit:10;stroke-dasharray:none;stroke-opacity:1"
         id="path202" /></g><g
       id="g204"
       transform="translate(215.3223,632.793)"><path
         d="M 0,0 V 11.19 H 42.971"
         style="fill:none;stroke:#ffffff;stroke-width:0.75;stroke-linecap:butt;stroke-linejoin:round;stroke-miterlimit:10;stroke-dasharray:none;stroke-opacity:1"
         id="path206" /></g><g
       id="g208"
       transform="translate(259.4883,632.793)"><path
         d="M 0,0 V 11.19 H 42.971"
         style="fill:none;stroke:#ffffff;stroke-width:0.75;stroke-linecap:butt;stroke-linejoin:round;stroke-miterlimit:10;stroke-dasharray:none;stroke-opacity:1"
         id="path210" /></g><g
       id="g212"><g
         id="g214"
         clip-path="url(#clipPath218)"><text
           transform="matrix(1,0,0,-1,330.2363,626.4829)"
           style="font-variant:normal;font-weight:bold;font-stretch:condensed;font-size:9px;font-family:'Humanst521 Cn BT';-inkscape-font-specification:Humanist521BT-BoldCondensed;writing-mode:lr-tb;fill:#231f20;fill-opacity:1;fill-rule:nonzero;stroke:none"
           id="text222"><tspan
             x="0 3.438 7.7849998 10.782 14.832 16.992001 19.296 23.805 27.855 30.014999 34.064999 38.547001 42.155998 46.116001"
             y="0"
             id="tspan220">Total balance </tspan></text><text
           transform="matrix(1,0,0,-1,378.6553,626.4829)"
           style="font-variant:normal;font-weight:bold;font-stretch:normal;font-size:8.5px;font-family:Arial;-inkscape-font-specification:Arial-BoldMT;writing-mode:lr-tb;fill:#231f20;fill-opacity:1;fill-rule:nonzero;stroke:none"
           id="text226"><tspan
             x="0"
             y="0"
             id="tspan224">1</tspan></text><text
           transform="matrix(1,0,0,-1,382.958,626.4829)"
           style="font-variant:normal;font-weight:bold;font-stretch:condensed;font-size:9px;font-family:'Humanst521 Cn BT';-inkscape-font-specification:Humanist521BT-BoldCondensed;writing-mode:lr-tb;fill:#231f20;fill-opacity:1;fill-rule:nonzero;stroke:none"
           id="text238"><tspan
             x="0 4.6079998 9.2159996 11.52 15.957"
             y="0"
             id="tspan228">00 CT</tspan><tspan
             x="-52.766998 -48.716999 -44.226002 -42.092999 -38.591999 -36.287998 -30.582001 -26.532 -23.031 -20.726999 -16.955999 -12.996 -9.4949999 -6.4980001 -2.5380001 0.85500002 5.3639998 9.4139996 13.689 15.876"
             y="14.175"
             id="tspan230">This was yesterday’s</tspan><tspan
             x="-52.766998 -49.167 -44.82 -40.473 -36.287998 -34.154999 -30.195 -28.007999 -25.704 -20.862 -16.812 -14.652 -10.602 -6.1199999 -2.52 1.4400001 3.744 5.8769999 9.3780003 11.682 16.136999 20.745001 23.049 27.486 30.636"
             y="23.679001"
             id="tspan232">cookie. Balance is 90 CT.</tspan><tspan
             x="-52.766998 -44.712002 -40.221001 -36.171001 -33.174 -29.907 -27.603001 -25.047001 -20.700001 -16.209 -11.727 -9.4230003 -4.914 -2.7809999 1.728 4.0320001 9.2700005 14.544 18.594 20.898001 24.399 28.358999 32.841 37.349998"
             y="36.999001"
             id="tspan234">What? John did NOT send </tspan><tspan
             x="-52.766998 -48.312 -43.703999 -41.400002 -36.963001 -32.912998 -30.608999 -27.612 -23.264999 -20.961 -14.67 -10.71 -8.5500002 -6.4169998 -2.9159999 0.58499998 4.6350002"
             y="46.502998"
             id="tspan236">90 CT to Melissa!</tspan></text><g
           id="g240"
           transform="translate(307.4414,589.3188)"><path
             d="M 0,0 C 7.639,0 13.298,3.059 20.907,3.059"
             style="fill:none;stroke:#231f20;stroke-width:0.3;stroke-linecap:butt;stroke-linejoin:miter;stroke-miterlimit:10;stroke-dasharray:none;stroke-opacity:1"
             id="path242" /></g><g
           id="g244"
           transform="translate(307.9883,587.4595)"><path
             d="M 0,0 -3.238,1.87 0,3.74 Z"
             style="fill:#231f20;fill-opacity:1;fill-rule:nonzero;stroke:none"
             id="path246" /></g><g
           id="g248"
           transform="translate(308,602.269)"><path
             d="M 0,0 C 8.24,2.473 12.999,11.538 19.999,13.038"
             style="fill:none;stroke:#231f20;stroke-width:0.3;stroke-linecap:butt;stroke-linejoin:miter;stroke-miterlimit:10;stroke-dasharray:none;stroke-opacity:1"
             id="path250" /></g><g
           id="g252"
           transform="translate(309.0586,600.6455)"><path
             d="m 0,0 -3.639,0.86 2.564,2.722 z"
             style="fill:#231f20;fill-opacity:1;fill-rule:nonzero;stroke:none"
             id="path254" /></g><g
           id="g256"
           transform="translate(308,615.6733)"><path
             d="M 0,0 C 8.24,2.473 12.999,11.538 19.999,13.038"
             style="fill:none;stroke:#231f20;stroke-width:0.3;stroke-linecap:butt;stroke-linejoin:miter;stroke-miterlimit:10;stroke-dasharray:none;stroke-opacity:1"
             id="path258" /></g><g
           id="g260"
           transform="translate(309.0586,614.0498)"><path
             d="m 0,0 -3.639,0.86 2.564,2.722 z"
             style="fill:#231f20;fill-opacity:1;fill-rule:nonzero;stroke:none"
             id="path262" /></g></g></g></g></svg>
