<svg xmlns="http://www.w3.org/2000/svg" xmlns:xlink="http://www.w3.org/1999/xlink" width="247.66" height="323.69" viewBox="0 0 247.66 323.69">
  <defs>
    <style>
      .cls-1 {
        fill: #f0f0f0;
      }

      .cls-2, .cls-3, .cls-7 {
        fill: none;
      }

      .cls-2, .cls-3 {
        stroke: #4d4d4d;
      }

      .cls-2 {
        stroke-linecap: round;
      }

      .cls-10, .cls-14, .cls-15, .cls-2, .cls-3, .cls-7, .cls-8, .cls-9 {
        stroke-linejoin: round;
      }

      .cls-10, .cls-14, .cls-15, .cls-2, .cls-3, .cls-7, .cls-9 {
        stroke-width: 0.5px;
      }

      .cls-14, .cls-4 {
        fill: #fff;
      }

      .cls-5 {
        fill: url(#linear-gradient);
      }

      .cls-10, .cls-6 {
        fill: #7cb2c8;
      }

      .cls-10, .cls-14, .cls-15, .cls-23, .cls-7, .cls-8, .cls-9 {
        stroke: #000;
      }

      .cls-8 {
        fill: #f0f9fc;
      }

      .cls-23, .cls-8 {
        stroke-width: 0.3px;
      }

      .cls-9 {
        fill: #ebf3f6;
      }

      .cls-11 {
        fill: url(#linear-gradient-2);
      }

      .cls-12 {
        fill: url(#linear-gradient-3);
      }

      .cls-13, .cls-15 {
        fill: #b3e2ee;
      }

      .cls-16 {
        fill: url(#linear-gradient-4);
      }

      .cls-17 {
        font-size: 8px;
      }

      .cls-17, .cls-18 {
        font-family: ArialMT, Arial;
      }

      .cls-18 {
        font-size: 7px;
      }

      .cls-19 {
        fill: url(#linear-gradient-5);
      }

      .cls-20 {
        fill: url(#linear-gradient-6);
      }

      .cls-21 {
        fill: url(#linear-gradient-7);
      }

      .cls-22 {
        fill: url(#linear-gradient-8);
      }

      .cls-23 {
        fill: #b3b3b3;
      }

      .cls-24 {
        font-size: 5.78px;
        font-family: Courier;
      }
    </style>
    <linearGradient id="linear-gradient" x1="543.06" y1="698.02" x2="587.62" y2="698.02" gradientTransform="translate(835.81 -344.16) rotate(68.86)" gradientUnits="userSpaceOnUse">
      <stop offset="0" stop-color="#cbd8e2"/>
      <stop offset="1" stop-color="#9aa5b5"/>
    </linearGradient>
    <linearGradient id="linear-gradient-2" x1="506.87" y1="731.85" x2="551.44" y2="731.85" xlink:href="#linear-gradient"/>
    <linearGradient id="linear-gradient-3" x1="459.13" y1="815.87" x2="559.44" y2="815.87" xlink:href="#linear-gradient"/>
    <linearGradient id="linear-gradient-4" x1="514.28" y1="676.78" x2="558.85" y2="676.78" xlink:href="#linear-gradient"/>
    <linearGradient id="linear-gradient-5" x1="370.21" y1="781.49" x2="470.52" y2="781.49" xlink:href="#linear-gradient"/>
    <linearGradient id="linear-gradient-6" x1="411.59" y1="674.5" x2="511.9" y2="674.5" xlink:href="#linear-gradient"/>
    <linearGradient id="linear-gradient-7" x1="281.3" y1="747.1" x2="381.61" y2="747.1" xlink:href="#linear-gradient"/>
    <linearGradient id="linear-gradient-8" x1="322.67" y1="640.12" x2="422.98" y2="640.12" xlink:href="#linear-gradient"/>
  </defs>
  <g id="Layer_2" data-name="Layer 2">
    <g>
      <path class="cls-1" d="M191.79,227.65c-9.44-.64-15.14-12.45-7.42-18.63-9.06-6.94-4-20.41,4.46-22.12l.13-.24c-.1-6.74,4-12.95,10.6-16a20.84,20.84,0,0,1,20.39,1.7,15.7,15.7,0,0,1,12-6,15.86,15.86,0,0,1,12.41,5.24,12.88,12.88,0,0,1,10.74-5.13,12.72,12.72,0,0,1,10.43,5.62,14.93,14.93,0,0,1,14.62-2.46,13.28,13.28,0,0,1,8.67,11c11.09.58,12.48,14.77,6,19.59,10.89,14.59-3.6,29.48-16.25,26.69,1.67,10.39-9.54,19.12-23.34,13-5.18,11.07-28.54,13.33-36.82-2-12,7.32-28.77-.44-28.58-10.55" transform="translate(-179.32 -142)"/>
      <path class="cls-2" d="M191.79,227.65c-9.44-.64-15.14-12.45-7.42-18.63-9.06-6.94-4-20.41,4.46-22.12l.13-.24c-.1-6.74,4-12.95,10.6-16a20.84,20.84,0,0,1,20.39,1.7,15.7,15.7,0,0,1,12-6,15.86,15.86,0,0,1,12.41,5.24,12.88,12.88,0,0,1,10.74-5.13,12.72,12.72,0,0,1,10.43,5.62,14.93,14.93,0,0,1,14.62-2.46,13.28,13.28,0,0,1,8.67,11c11.09.58,12.48,14.77,6,19.59,10.89,14.59-3.6,29.48-16.25,26.69,1.67,10.39-9.54,19.12-23.34,13-5.18,11.07-28.54,13.33-36.82-2-12,7.32-28.77-.44-28.58-10.55" transform="translate(-179.32 -142)"/>
      <path class="cls-2" d="M188.83,186.9a16.27,16.27,0,0,0,.28,2.78M220,172.36a18.31,18.31,0,0,1,3.35,3m21.08-3.7a11.53,11.53,0,0,0-1.38,2.53m22.55-2A12.74,12.74,0,0,0,263,175m25.8,5.7a11.61,11.61,0,0,1-.1,2.43m-10.2,43.85a13.51,13.51,0,0,0-.82-3.07M255.2,239.93a16.81,16.81,0,0,0,1.24-3.55M184.37,209a12.75,12.75,0,0,0,3.3,1.65" transform="translate(-179.32 -142)"/>
    </g>
    <line class="cls-3" x1="131.82" x2="131.82" y2="323.69"/>
    <line class="cls-3" x1="16.03" y1="227.95" x2="247.66" y2="227.95"/>
    <line class="cls-3" x1="16.03" y1="17.5" x2="247.66" y2="17.5"/>
    <g>
      <path class="cls-4" d="M402.22,415.37h-31.3a.48.48,0,0,0-.48.48v26.61a.48.48,0,0,0,.48.48h31.3a.48.48,0,0,0,.48-.48V415.85A.48.48,0,0,0,402.22,415.37Z" transform="translate(-179.32 -142)"/>
      <path class="cls-5" d="M402.7,442.46a.48.48,0,0,1-.48.48h-31.3a.48.48,0,0,1-.48-.48v-26a.47.47,0,0,1,.48-.48h31.3a.47.47,0,0,1,.48.48Z" transform="translate(-179.32 -142)"/>
      <path class="cls-6" d="M402.7,442.46a.48.48,0,0,1-.48.48h-31.3a.48.48,0,0,1-.48-.48v-26a.47.47,0,0,1,.48-.48h31.3a.47.47,0,0,1,.48.48Z" transform="translate(-179.32 -142)"/>
      <path class="cls-7" d="M402.22,415.37h-31.3a.48.48,0,0,0-.48.48v26.61a.48.48,0,0,0,.48.48h31.3a.48.48,0,0,0,.48-.48V415.85A.48.48,0,0,0,402.22,415.37Z" transform="translate(-179.32 -142)"/>
      <rect class="cls-8" x="192.99" y="275.52" width="28.53" height="21.95"/>
      <polyline class="cls-9" points="228.34 300.24 223.25 299.11 191.12 299.11 186.16 300.24"/>
      <path class="cls-10" d="M365.47,442.24s1,2.1,2,2.1h38.09c1,0,2.06-2.1,2.06-2.1Z" transform="translate(-179.32 -142)"/>
    </g>
    <g>
      <path class="cls-4" d="M357.61,393.82h-31.3a.48.48,0,0,0-.48.48v26.61a.49.49,0,0,0,.48.49h31.3a.49.49,0,0,0,.48-.49V394.3A.48.48,0,0,0,357.61,393.82Z" transform="translate(-179.32 -142)"/>
      <path class="cls-11" d="M358.09,420.91a.49.49,0,0,1-.48.49h-31.3a.49.49,0,0,1-.48-.49v-26a.47.47,0,0,1,.48-.48h31.3a.47.47,0,0,1,.48.48Z" transform="translate(-179.32 -142)"/>
      <path class="cls-6" d="M358.09,420.91a.49.49,0,0,1-.48.49h-31.3a.49.49,0,0,1-.48-.49v-26a.47.47,0,0,1,.48-.48h31.3a.47.47,0,0,1,.48.48Z" transform="translate(-179.32 -142)"/>
      <path class="cls-7" d="M357.61,393.82h-31.3a.48.48,0,0,0-.48.48v26.61a.49.49,0,0,0,.48.49h31.3a.49.49,0,0,0,.48-.49V394.3A.48.48,0,0,0,357.61,393.82Z" transform="translate(-179.32 -142)"/>
      <rect class="cls-8" x="148.38" y="253.97" width="28.53" height="21.95"/>
      <polyline class="cls-9" points="183.73 278.69 178.64 277.56 146.51 277.56 141.55 278.69"/>
      <path class="cls-10" d="M320.86,420.69s1,2.1,2.05,2.1H361c1,0,2.06-2.1,2.06-2.1Z" transform="translate(-179.32 -142)"/>
    </g>
    <g>
      <path class="cls-4" d="M289,381.16H218.55a1.07,1.07,0,0,0-1.08,1.07v59.89a1.1,1.1,0,0,0,1.08,1.1H289a1.11,1.11,0,0,0,1.09-1.1V382.23A1.08,1.08,0,0,0,289,381.16Z" transform="translate(-179.32 -142)"/>
      <path class="cls-12" d="M290.09,442.12a1.11,1.11,0,0,1-1.09,1.1H218.55a1.1,1.1,0,0,1-1.08-1.1V383.51a1.08,1.08,0,0,1,1.08-1.08H289a1.08,1.08,0,0,1,1.09,1.08Z" transform="translate(-179.32 -142)"/>
      <path class="cls-13" d="M290.09,442.12a1.11,1.11,0,0,1-1.09,1.1H218.55a1.1,1.1,0,0,1-1.08-1.1V383.51a1.08,1.08,0,0,1,1.08-1.08H289a1.08,1.08,0,0,1,1.09,1.08Z" transform="translate(-179.32 -142)"/>
      <path class="cls-7" d="M289,381.16H218.55a1.07,1.07,0,0,0-1.08,1.07v59.89a1.1,1.1,0,0,0,1.08,1.1H289a1.11,1.11,0,0,0,1.09-1.1V382.23A1.08,1.08,0,0,0,289,381.16Z" transform="translate(-179.32 -142)"/>
      <rect class="cls-8" x="42.35" y="244" width="64.22" height="49.4"/>
      <polyline class="cls-14" points="121.93 299.63 110.46 297.09 38.15 297.09 26.99 299.63"/>
      <path class="cls-15" d="M206.29,441.63s2.16,4.73,4.62,4.73h85.72c2.27,0,4.64-4.73,4.64-4.73Z" transform="translate(-179.32 -142)"/>
    </g>
    <g>
      <path class="cls-4" d="M411.65,380.87h-31.3a.48.48,0,0,0-.48.48V408a.49.49,0,0,0,.48.49h31.3a.49.49,0,0,0,.48-.49V381.35A.48.48,0,0,0,411.65,380.87Z" transform="translate(-179.32 -142)"/>
      <path class="cls-16" d="M412.13,408a.49.49,0,0,1-.48.49h-31.3a.49.49,0,0,1-.48-.49v-26a.47.47,0,0,1,.48-.48h31.3a.47.47,0,0,1,.48.48Z" transform="translate(-179.32 -142)"/>
      <path class="cls-6" d="M412.13,408a.49.49,0,0,1-.48.49h-31.3a.49.49,0,0,1-.48-.49v-26a.47.47,0,0,1,.48-.48h31.3a.47.47,0,0,1,.48.48Z" transform="translate(-179.32 -142)"/>
      <path class="cls-7" d="M411.65,380.87h-31.3a.48.48,0,0,0-.48.48V408a.49.49,0,0,0,.48.49h31.3a.49.49,0,0,0,.48-.49V381.35A.48.48,0,0,0,411.65,380.87Z" transform="translate(-179.32 -142)"/>
      <rect class="cls-8" x="202.42" y="241.03" width="28.53" height="21.95"/>
      <polyline class="cls-9" points="237.77 265.74 232.68 264.61 200.55 264.61 195.59 265.74"/>
      <path class="cls-10" d="M374.9,407.74s1,2.1,2.05,2.1H415c1,0,2.06-2.1,2.06-2.1Z" transform="translate(-179.32 -142)"/>
    </g>
    <text class="cls-17" transform="translate(48.6 8.65)">Lower security</text>
    <text class="cls-17" transform="translate(162.11 8.65)">Higher security</text>
    <text class="cls-18" transform="translate(58.05 316.09)">Whole key</text>
    <text class="cls-18" transform="translate(180.98 316.09)">Split key</text>
    <g>
      <path class="cls-4" d="M289,285.82H218.55a1.08,1.08,0,0,0-1.08,1.08v59.89a1.1,1.1,0,0,0,1.08,1.09H289a1.11,1.11,0,0,0,1.09-1.09V286.9A1.09,1.09,0,0,0,289,285.82Z" transform="translate(-179.32 -142)"/>
      <path class="cls-19" d="M290.09,346.79a1.11,1.11,0,0,1-1.09,1.09H218.55a1.1,1.1,0,0,1-1.08-1.09V288.18a1.08,1.08,0,0,1,1.08-1.08H289a1.08,1.08,0,0,1,1.09,1.08Z" transform="translate(-179.32 -142)"/>
      <path class="cls-13" d="M290.09,346.79a1.11,1.11,0,0,1-1.09,1.09H218.55a1.1,1.1,0,0,1-1.08-1.09V288.18a1.08,1.08,0,0,1,1.08-1.08H289a1.08,1.08,0,0,1,1.09,1.08Z" transform="translate(-179.32 -142)"/>
      <path class="cls-7" d="M289,285.82H218.55a1.08,1.08,0,0,0-1.08,1.08v59.89a1.1,1.1,0,0,0,1.08,1.09H289a1.11,1.11,0,0,0,1.09-1.09V286.9A1.09,1.09,0,0,0,289,285.82Z" transform="translate(-179.32 -142)"/>
      <rect class="cls-8" x="42.35" y="148.67" width="64.22" height="49.4"/>
      <polyline class="cls-14" points="121.93 204.3 110.46 201.75 38.15 201.75 26.99 204.3"/>
      <path class="cls-15" d="M206.29,346.3s2.16,4.72,4.62,4.72h85.72c2.27,0,4.64-4.72,4.64-4.72Z" transform="translate(-179.32 -142)"/>
    </g>
    <text class="cls-18" transform="translate(60.38 220.76)">Cleartext</text>
    <g>
      <path class="cls-4" d="M403.71,285.82H333.26a1.08,1.08,0,0,0-1.08,1.08v59.89a1.1,1.1,0,0,0,1.08,1.09h70.45a1.11,1.11,0,0,0,1.09-1.09V286.9A1.09,1.09,0,0,0,403.71,285.82Z" transform="translate(-179.32 -142)"/>
      <path class="cls-20" d="M404.8,346.79a1.11,1.11,0,0,1-1.09,1.09H333.26a1.1,1.1,0,0,1-1.08-1.09V288.18a1.08,1.08,0,0,1,1.08-1.08h70.45a1.08,1.08,0,0,1,1.09,1.08Z" transform="translate(-179.32 -142)"/>
      <path class="cls-6" d="M404.8,346.79a1.11,1.11,0,0,1-1.09,1.09H333.26a1.1,1.1,0,0,1-1.08-1.09V288.18a1.08,1.08,0,0,1,1.08-1.08h70.45a1.08,1.08,0,0,1,1.09,1.08Z" transform="translate(-179.32 -142)"/>
      <path class="cls-7" d="M403.71,285.82H333.26a1.08,1.08,0,0,0-1.08,1.08v59.89a1.1,1.1,0,0,0,1.08,1.09h70.45a1.11,1.11,0,0,0,1.09-1.09V286.9A1.09,1.09,0,0,0,403.71,285.82Z" transform="translate(-179.32 -142)"/>
      <rect class="cls-8" x="157.06" y="148.67" width="64.22" height="49.4"/>
      <polyline class="cls-9" points="236.64 204.3 225.17 201.75 152.86 201.75 141.7 204.3"/>
      <path class="cls-10" d="M321,346.3s2.16,4.72,4.62,4.72h85.72c2.27,0,4.63-4.72,4.63-4.72Z" transform="translate(-179.32 -142)"/>
    </g>
    <text class="cls-18" transform="translate(173.34 220.76)">Encrypted</text>
    <line class="cls-3" x1="16.03" y1="132.62" x2="247.66" y2="132.62"/>
    <g>
      <path class="cls-4" d="M289,190.49H218.55a1.08,1.08,0,0,0-1.08,1.08v59.88a1.1,1.1,0,0,0,1.08,1.1H289a1.11,1.11,0,0,0,1.09-1.1V191.57A1.08,1.08,0,0,0,289,190.49Z" transform="translate(-179.32 -142)"/>
      <path class="cls-21" d="M290.09,251.45a1.11,1.11,0,0,1-1.09,1.1H218.55a1.1,1.1,0,0,1-1.08-1.1V192.84a1.08,1.08,0,0,1,1.08-1.08H289a1.09,1.09,0,0,1,1.09,1.08Z" transform="translate(-179.32 -142)"/>
      <path class="cls-13" d="M290.09,251.45a1.11,1.11,0,0,1-1.09,1.1H218.55a1.1,1.1,0,0,1-1.08-1.1V192.84a1.08,1.08,0,0,1,1.08-1.08H289a1.09,1.09,0,0,1,1.09,1.08Z" transform="translate(-179.32 -142)"/>
      <path class="cls-7" d="M289,190.49H218.55a1.08,1.08,0,0,0-1.08,1.08v59.88a1.1,1.1,0,0,0,1.08,1.1H289a1.11,1.11,0,0,0,1.09-1.1V191.57A1.08,1.08,0,0,0,289,190.49Z" transform="translate(-179.32 -142)"/>
      <rect class="cls-8" x="42.35" y="53.33" width="64.22" height="49.4"/>
      <polyline class="cls-14" points="121.93 108.96 110.46 106.42 38.15 106.42 26.99 108.96"/>
      <path class="cls-15" d="M206.29,251s2.16,4.73,4.62,4.73h85.72c2.27,0,4.64-4.73,4.64-4.73Z" transform="translate(-179.32 -142)"/>
    </g>
    <text class="cls-18" transform="translate(64.27 125.43)">Online</text>
    <text class="cls-18" transform="translate(18.35 42.76)">Internet</text>
    <path d="M267,202.43a.37.37,0,0,1-.13.29.45.45,0,0,1-.34.12.45.45,0,0,1-.33-.12.4.4,0,0,1-.12-.29.37.37,0,0,1,.12-.29.45.45,0,0,1,.33-.12.45.45,0,0,1,.34.12A.35.35,0,0,1,267,202.43Zm0-2a.41.41,0,0,1-.12.3.5.5,0,0,1-.34.11.53.53,0,0,1-.34-.11.41.41,0,0,1-.12-.3.4.4,0,0,1,.12-.29.54.54,0,0,1,.34-.12.5.5,0,0,1,.34.12A.4.4,0,0,1,266.94,200.42Zm-4.48,2.29-1.06-2.09a.3.3,0,0,1-.21-.52.46.46,0,0,1,.31-.09h.57a.46.46,0,0,1,.31.09.31.31,0,0,1,0,.44.45.45,0,0,1-.3.08l.73,1.42.71-1.42a.4.4,0,0,1-.29-.08.3.3,0,0,1-.09-.23.26.26,0,0,1,.09-.21.45.45,0,0,1,.32-.09h.57a.47.47,0,0,1,.32.09.29.29,0,0,1,.09.23.29.29,0,0,1-.32.29l-1.4,2.78a.64.64,0,0,1,.3,0,.29.29,0,0,1,.14.26.27.27,0,0,1-.1.22.48.48,0,0,1-.31.08H261.5a.52.52,0,0,1-.31-.08.29.29,0,0,1-.09-.22.32.32,0,0,1,.09-.23.52.52,0,0,1,.31-.08h.61ZM260,201.07a1,1,0,0,0-.37-.4,1.13,1.13,0,0,0-.54-.13,1.2,1.2,0,0,0-.54.13,1,1,0,0,0-.37.4Zm.67.61h-2.51a.85.85,0,0,0,.34.39,1.28,1.28,0,0,0,.67.14,3.53,3.53,0,0,0,.89-.14,1.65,1.65,0,0,1,.33-.06.27.27,0,0,1,.21.09.26.26,0,0,1,.09.21.3.3,0,0,1-.1.21,1.52,1.52,0,0,1-.59.21,4.57,4.57,0,0,1-.88.1,1.7,1.7,0,0,1-1.19-.41,1.4,1.4,0,0,1-.43-1,1.33,1.33,0,0,1,.47-1,1.75,1.75,0,0,1,1.79-.28,1.52,1.52,0,0,1,.47.29,1.68,1.68,0,0,1,.35.55,1.44,1.44,0,0,1,.09.53Zm-5.71,0v1h-.71a.55.55,0,0,1-.33-.08.3.3,0,0,1-.09-.23.26.26,0,0,1,.09-.21.48.48,0,0,1,.33-.09h.09v-2.66h-.09a.49.49,0,0,1-.33-.08.3.3,0,0,1-.09-.23.27.27,0,0,1,.09-.21.48.48,0,0,1,.33-.09H255v2.06l.48-.38a.48.48,0,0,1-.08-.2.29.29,0,0,1,.09-.23.47.47,0,0,1,.32-.09h.7a.44.44,0,0,1,.31.09.29.29,0,0,1,0,.44.44.44,0,0,1-.31.08h-.17l-.75.61,1,.89h.18a.41.41,0,0,1,.31.09.24.24,0,0,1,.1.21.28.28,0,0,1-.1.23.46.46,0,0,1-.31.08H256a.48.48,0,0,1-.31-.08.28.28,0,0,1-.1-.23.32.32,0,0,1,.1-.23l-.65-.57Zm-6-.64a.9.9,0,0,0-.37-.4,1.17,1.17,0,0,0-1.07,0,1,1,0,0,0-.37.4Zm.67.61h-2.51a.85.85,0,0,0,.34.39,1.28,1.28,0,0,0,.67.14,3.53,3.53,0,0,0,.89-.14,1.65,1.65,0,0,1,.33-.06.31.31,0,0,1,.3.3.26.26,0,0,1-.1.21,1.6,1.6,0,0,1-.59.21,4.48,4.48,0,0,1-.88.1,1.72,1.72,0,0,1-1.19-.41,1.4,1.4,0,0,1-.43-1,1.33,1.33,0,0,1,.47-1,1.67,1.67,0,0,1,1.1-.41,1.75,1.75,0,0,1,.7.13,1.59,1.59,0,0,1,.46.29,1.68,1.68,0,0,1,.35.55,1.44,1.44,0,0,1,.09.53Zm-5.36-1.06v1.24a.33.33,0,0,0,.09.26.76.76,0,0,0,.44.09,1.8,1.8,0,0,0,.87-.2.56.56,0,0,1,.24-.07.26.26,0,0,1,.21.1.25.25,0,0,1,.09.2.33.33,0,0,1-.09.22,2.17,2.17,0,0,1-.59.25,2.82,2.82,0,0,1-.73.12,1.29,1.29,0,0,1-.85-.24.81.81,0,0,1-.29-.61v-1.36h-.23a.46.46,0,0,1-.31-.08.3.3,0,0,1-.09-.23.26.26,0,0,1,.09-.21.46.46,0,0,1,.31-.09h.23v-.55a.51.51,0,0,1,.08-.32.32.32,0,0,1,.23-.09.29.29,0,0,1,.22.09.51.51,0,0,1,.08.32V200h1.14a.44.44,0,0,1,.31.09.29.29,0,0,1,.1.23.3.3,0,0,1-.1.21.44.44,0,0,1-.31.08Zm-3,1a3.41,3.41,0,0,0-.68-.07,1.18,1.18,0,0,0-.65.18.31.31,0,0,0-.16.24.16.16,0,0,0,.08.14.8.8,0,0,0,.41.09,1.57,1.57,0,0,0,.5-.08,1.37,1.37,0,0,0,.5-.24Zm0,1.1v-.14a1.92,1.92,0,0,1-.51.18,2,2,0,0,1-.51.07,1.24,1.24,0,0,1-.8-.26.79.79,0,0,1-.31-.59.91.91,0,0,1,.4-.71,1.62,1.62,0,0,1,1.08-.33,4.12,4.12,0,0,1,.65.06v-.16a.26.26,0,0,0-.12-.22.8.8,0,0,0-.45-.09,3.34,3.34,0,0,0-.71.11,1,1,0,0,1-.25,0,.25.25,0,0,1-.2-.09.34.34,0,0,1-.06-.37.15.15,0,0,1,.08-.08.77.77,0,0,1,.23-.09,3.41,3.41,0,0,1,.46-.1,2.37,2.37,0,0,1,.43,0,1.36,1.36,0,0,1,.88.25.81.81,0,0,1,.32.67v1.27H242a.44.44,0,0,1,.31.09.26.26,0,0,1,.09.21.3.3,0,0,1-.09.23.5.5,0,0,1-.31.08Zm-4.23-.74.66-1.37a1,1,0,0,1-.31,0,.32.32,0,0,1-.14-.28.29.29,0,0,1,.08-.21.48.48,0,0,1,.33-.09h.83a.41.41,0,0,1,.31.09.29.29,0,0,1,0,.44.41.41,0,0,1-.31.08h-.09l-1,2.11h-.65l-1-2.11h-.09a.44.44,0,0,1-.31-.08.28.28,0,0,1-.1-.23.24.24,0,0,1,.1-.21.44.44,0,0,1,.31-.09h.82a.43.43,0,0,1,.31.09.26.26,0,0,1,.1.23.29.29,0,0,1-.14.25.79.79,0,0,1-.33,0Zm-3.37-2v2.11h.74a.44.44,0,0,1,.31.09.27.27,0,0,1,.1.21.31.31,0,0,1-.1.23.5.5,0,0,1-.31.08h-2.09a.54.54,0,0,1-.32-.08.3.3,0,0,1-.09-.23.26.26,0,0,1,.09-.21.47.47,0,0,1,.32-.09h.74v-1.5h-.49a.49.49,0,0,1-.33-.08.3.3,0,0,1-.09-.23.26.26,0,0,1,.09-.21.48.48,0,0,1,.33-.09Zm-.09-1.16v.65h-.73v-.65Zm-4,1.16v.39a3.06,3.06,0,0,1,.61-.37,1,1,0,0,1,.42-.1.88.88,0,0,1,.57.23.37.37,0,0,1,.19.3.31.31,0,0,1-.09.22.29.29,0,0,1-.22.09.37.37,0,0,1-.23-.11.37.37,0,0,0-.22-.12.92.92,0,0,0-.4.17,5.88,5.88,0,0,0-.63.48v.93h.87a.44.44,0,0,1,.32.09.26.26,0,0,1,.09.21.3.3,0,0,1-.09.23.49.49,0,0,1-.32.08h-1.85a.5.5,0,0,1-.31-.08.28.28,0,0,1-.1-.23.24.24,0,0,1,.1-.21.44.44,0,0,1,.31-.09H229v-1.5h-.23a.44.44,0,0,1-.31-.08.3.3,0,0,1-.09-.23.26.26,0,0,1,.09-.21.44.44,0,0,1,.31-.09Zm-3.9.87h.57a1,1,0,0,0,.62-.18.57.57,0,0,0,.24-.45.47.47,0,0,0-.19-.37.78.78,0,0,0-.54-.17h-.7Zm0,.6v.64h.62a.44.44,0,0,1,.31.09.27.27,0,0,1,.1.21.31.31,0,0,1-.1.23.5.5,0,0,1-.31.08H225a.51.51,0,0,1-.32-.08.3.3,0,0,1-.09-.23.27.27,0,0,1,.1-.21.44.44,0,0,1,.31-.09h.1v-2.41H225a.46.46,0,0,1-.32-.08.29.29,0,0,1-.09-.23.27.27,0,0,1,.09-.21.46.46,0,0,1,.32-.08h1.41a1.39,1.39,0,0,1,1,.34,1.1,1.1,0,0,1,.37.82,1,1,0,0,1-.14.51,1,1,0,0,1-.31.36,1.82,1.82,0,0,1-.44.26,1.58,1.58,0,0,1-.59.08Z" transform="translate(-179.32 -142)"/>
    <g>
      <path class="cls-4" d="M403.71,190.49H333.26a1.08,1.08,0,0,0-1.08,1.08v59.88a1.1,1.1,0,0,0,1.08,1.1h70.45a1.11,1.11,0,0,0,1.09-1.1V191.57A1.08,1.08,0,0,0,403.71,190.49Z" transform="translate(-179.32 -142)"/>
      <path class="cls-22" d="M404.8,251.45a1.11,1.11,0,0,1-1.09,1.1H333.26a1.1,1.1,0,0,1-1.08-1.1V192.84a1.08,1.08,0,0,1,1.08-1.08h70.45a1.09,1.09,0,0,1,1.09,1.08Z" transform="translate(-179.32 -142)"/>
      <path class="cls-6" d="M404.8,251.45a1.11,1.11,0,0,1-1.09,1.1H333.26a1.1,1.1,0,0,1-1.08-1.1V192.84a1.08,1.08,0,0,1,1.08-1.08h70.45a1.09,1.09,0,0,1,1.09,1.08Z" transform="translate(-179.32 -142)"/>
      <path class="cls-7" d="M403.71,190.49H333.26a1.08,1.08,0,0,0-1.08,1.08v59.88a1.1,1.1,0,0,0,1.08,1.1h70.45a1.11,1.11,0,0,0,1.09-1.1V191.57A1.08,1.08,0,0,0,403.71,190.49Z" transform="translate(-179.32 -142)"/>
      <rect class="cls-8" x="157.06" y="53.33" width="64.22" height="49.4"/>
      <polyline class="cls-9" points="236.64 108.96 225.17 106.42 152.86 106.42 141.7 108.96"/>
      <path class="cls-10" d="M321,251s2.16,4.73,4.62,4.73h85.72c2.27,0,4.63-4.73,4.63-4.73Z" transform="translate(-179.32 -142)"/>
    </g>
    <text class="cls-18" transform="translate(178.98 125.43)">Offline</text>
    <g>
      <path d="M384.32,297.76a.39.39,0,0,1-.13.29.45.45,0,0,1-.34.12.45.45,0,0,1-.33-.12.38.38,0,0,1-.12-.29.35.35,0,0,1,.12-.28.45.45,0,0,1,.33-.12.45.45,0,0,1,.34.12A.36.36,0,0,1,384.32,297.76Zm0-2a.4.4,0,0,1-.46.41.51.51,0,0,1-.35-.11.41.41,0,0,1-.12-.3.38.38,0,0,1,.12-.28.51.51,0,0,1,.35-.12.45.45,0,0,1,.34.12A.42.42,0,0,1,384.31,295.75ZM379.83,298,378.76,296a.32.32,0,0,1-.22-.1.28.28,0,0,1-.08-.2.31.31,0,0,1,.1-.23.44.44,0,0,1,.31-.08h.56a.47.47,0,0,1,.32.08.3.3,0,0,1,.09.23.26.26,0,0,1-.09.21.45.45,0,0,1-.3.09l.72,1.41.72-1.41a.45.45,0,0,1-.3-.09.31.31,0,0,1-.08-.22.33.33,0,0,1,.08-.22.49.49,0,0,1,.33-.08h.57a.44.44,0,0,1,.31.08.28.28,0,0,1,.1.23.25.25,0,0,1-.09.2.3.3,0,0,1-.24.1l-1.4,2.77a.59.59,0,0,1,.3,0,.28.28,0,0,1,.15.26.3.3,0,0,1-.1.22.44.44,0,0,1-.31.08h-1.34a.44.44,0,0,1-.31-.08.3.3,0,0,1-.1-.22.29.29,0,0,1,.1-.22.44.44,0,0,1,.31-.09h.61Zm-2.47-1.64A1,1,0,0,0,377,296a1,1,0,0,0-.54-.14,1.06,1.06,0,0,0-.54.14,1,1,0,0,0-.37.39Zm.67.61h-2.51a.84.84,0,0,0,.33.4,1.45,1.45,0,0,0,.67.14,4.05,4.05,0,0,0,.9-.14,2.14,2.14,0,0,1,.32-.07.29.29,0,0,1,.22.09.32.32,0,0,1,.08.21.29.29,0,0,1-.09.21,1.6,1.6,0,0,1-.59.21,3.9,3.9,0,0,1-.88.1,1.7,1.7,0,0,1-1.19-.41,1.37,1.37,0,0,1-.43-1,1.3,1.3,0,0,1,.47-1.05,1.65,1.65,0,0,1,1.1-.41,1.74,1.74,0,0,1,.69.14,1.46,1.46,0,0,1,.47.28,1.6,1.6,0,0,1,.34.55,1.29,1.29,0,0,1,.1.53Zm-5.71,0v1h-.72a.46.46,0,0,1-.32-.08.31.31,0,0,1-.1-.23.27.27,0,0,1,.1-.21.45.45,0,0,1,.32-.09h.1V294.8h-.1a.45.45,0,0,1-.32-.09.29.29,0,0,1-.1-.22.3.3,0,0,1,.1-.22.46.46,0,0,1,.32-.08h.72v2.06l.48-.39a.53.53,0,0,1-.09-.2.31.31,0,0,1,.1-.23.44.44,0,0,1,.31-.08h.71a.44.44,0,0,1,.31.08.28.28,0,0,1,.1.23.24.24,0,0,1-.1.21.44.44,0,0,1-.31.09h-.17l-.75.61,1,.88h.18a.41.41,0,0,1,.31.09.24.24,0,0,1,.1.21.28.28,0,0,1-.1.23.41.41,0,0,1-.31.08h-.71a.42.42,0,0,1-.3-.08.28.28,0,0,1-.1-.23.3.3,0,0,1,.1-.22l-.65-.58Zm-6-.65A.93.93,0,0,0,366,296a1,1,0,0,0-.54-.14,1,1,0,0,0-.53.14,1,1,0,0,0-.38.39Zm.67.61h-2.51a.87.87,0,0,0,.34.4,1.39,1.39,0,0,0,.67.14,4.06,4.06,0,0,0,.89-.14,2,2,0,0,1,.33-.07.27.27,0,0,1,.21.09.28.28,0,0,1,.08.21.29.29,0,0,1-.09.21,1.6,1.6,0,0,1-.59.21,3.83,3.83,0,0,1-.88.1,1.7,1.7,0,0,1-1.19-.41,1.37,1.37,0,0,1-.43-1,1.33,1.33,0,0,1,.47-1.05,1.67,1.67,0,0,1,1.1-.41,1.7,1.7,0,0,1,.69.14,1.35,1.35,0,0,1,.47.28,1.79,1.79,0,0,1,.35.55,1.47,1.47,0,0,1,.09.53ZM361.64,296v1.23a.33.33,0,0,0,.08.26.71.71,0,0,0,.45.1,1.81,1.81,0,0,0,.87-.21.75.75,0,0,1,.24-.07.26.26,0,0,1,.2.1.28.28,0,0,1,.1.2.34.34,0,0,1-.1.22,1.61,1.61,0,0,1-.58.25,2.82,2.82,0,0,1-.73.12,1.29,1.29,0,0,1-.85-.24.79.79,0,0,1-.29-.61V296h-.23a.46.46,0,0,1-.31-.09.28.28,0,0,1-.09-.22.29.29,0,0,1,.09-.22.46.46,0,0,1,.31-.08H361v-.55a.57.57,0,0,1,.08-.33.32.32,0,0,1,.23-.09.26.26,0,0,1,.21.09.5.5,0,0,1,.09.33v.55h1.14a.46.46,0,0,1,.31.08.3.3,0,0,1,.09.23.26.26,0,0,1-.09.21.46.46,0,0,1-.31.09Zm-3,1a3.41,3.41,0,0,0-.68-.07,1.18,1.18,0,0,0-.65.18c-.11.08-.17.16-.17.24a.16.16,0,0,0,.09.14.71.71,0,0,0,.41.1,2,2,0,0,0,.5-.08,1.93,1.93,0,0,0,.5-.24Zm0,1.1v-.14a1.92,1.92,0,0,1-.51.18,2,2,0,0,1-.51.07,1.24,1.24,0,0,1-.8-.26.76.76,0,0,1-.31-.59.92.92,0,0,1,.4-.71,1.62,1.62,0,0,1,1.08-.33,4.12,4.12,0,0,1,.65.06v-.16a.26.26,0,0,0-.12-.21.8.8,0,0,0-.46-.1,3.26,3.26,0,0,0-.7.11,1,1,0,0,1-.25,0,.25.25,0,0,1-.2-.09.32.32,0,0,1-.09-.23.59.59,0,0,1,0-.14.32.32,0,0,1,.09-.08,1.11,1.11,0,0,1,.23-.08,2.37,2.37,0,0,1,.46-.11,3.62,3.62,0,0,1,.43,0,1.42,1.42,0,0,1,.88.25.81.81,0,0,1,.32.67v1.27h.11a.46.46,0,0,1,.31.09.26.26,0,0,1,.09.21.3.3,0,0,1-.09.23.46.46,0,0,1-.31.08Zm-4.23-.74.66-1.36a.9.9,0,0,1-.31,0,.34.34,0,0,1-.06-.49.46.46,0,0,1,.32-.08h.84a.41.41,0,0,1,.31.08.31.31,0,0,1,.1.23.27.27,0,0,1-.1.21.41.41,0,0,1-.31.09h-.1l-1,2.1h-.65l-1-2.1H353a.43.43,0,0,1-.31-.09.26.26,0,0,1-.1-.22.27.27,0,0,1,.1-.22.43.43,0,0,1,.31-.08h.82a.44.44,0,0,1,.31.08.28.28,0,0,1,.1.23.29.29,0,0,1-.14.25.74.74,0,0,1-.33,0Zm-3.37-2v2.1h.74a.44.44,0,0,1,.31.09.27.27,0,0,1,.1.21.31.31,0,0,1-.1.23.44.44,0,0,1-.31.08h-2.1a.46.46,0,0,1-.31-.08.3.3,0,0,1-.09-.23.26.26,0,0,1,.09-.21.46.46,0,0,1,.31-.09h.75V296H350a.48.48,0,0,1-.33-.09.28.28,0,0,1-.09-.22.29.29,0,0,1,.09-.22.49.49,0,0,1,.33-.08Zm-.09-1.16v.64h-.73v-.64Zm-4,1.16v.38a3.27,3.27,0,0,1,.61-.37,1.16,1.16,0,0,1,.42-.1.88.88,0,0,1,.57.23.4.4,0,0,1,.19.3.33.33,0,0,1-.09.23.33.33,0,0,1-.22.08.37.37,0,0,1-.24-.11.33.33,0,0,0-.21-.12.92.92,0,0,0-.4.17,4.39,4.39,0,0,0-.63.48v.93h.87a.39.39,0,0,1,.31.09.24.24,0,0,1,.1.21.28.28,0,0,1-.1.23c-.05.06-.15.08-.31.08H346a.43.43,0,0,1-.31-.08.28.28,0,0,1-.1-.23.24.24,0,0,1,.1-.21.43.43,0,0,1,.31-.09h.37V296h-.23a.44.44,0,0,1-.31-.09.29.29,0,0,1-.1-.22.3.3,0,0,1,.1-.22.44.44,0,0,1,.31-.08Zm-3.9.86h.57a1,1,0,0,0,.62-.18.57.57,0,0,0,.24-.44.44.44,0,0,0-.19-.37.73.73,0,0,0-.54-.17h-.7Zm0,.61v.63h.62a.46.46,0,0,1,.31.09.26.26,0,0,1,.09.21.3.3,0,0,1-.09.23.46.46,0,0,1-.31.08h-1.33A.46.46,0,0,1,342,298a.3.3,0,0,1-.09-.23.27.27,0,0,1,.1-.21.43.43,0,0,1,.31-.09h.1v-2.4h-.1A.45.45,0,0,1,342,295a.28.28,0,0,1-.09-.22.29.29,0,0,1,.09-.22.51.51,0,0,1,.32-.08h1.41a1.32,1.32,0,0,1,1,.35,1,1,0,0,1,.37.81,1,1,0,0,1-.13.51,1,1,0,0,1-.31.36,2.27,2.27,0,0,1-.44.27,1.86,1.86,0,0,1-.59.08Z" transform="translate(-179.32 -142)"/>
      <path d="M394.82,305h.11a.36.36,0,0,1,.28.12.37.37,0,0,1,.13.28.42.42,0,0,1-.13.3.36.36,0,0,1-.28.12h-.11a.41.41,0,0,1-.41-.41.37.37,0,0,1,.12-.29A.44.44,0,0,1,394.82,305Zm0-1.88h.11a.36.36,0,0,1,.28.12.43.43,0,0,1,.13.29.42.42,0,0,1-.13.3.39.39,0,0,1-.28.11h-.11a.4.4,0,0,1-.29-.12.38.38,0,0,1-.12-.28.42.42,0,0,1,.12-.3A.44.44,0,0,1,394.82,303.12Zm-4.36,2.35h.92a1,1,0,0,0,.59-.21,1.54,1.54,0,0,0,.42-.5,1.32,1.32,0,0,0,.14-.56v-.45a1.08,1.08,0,0,0-.08-.42,1.71,1.71,0,0,0-.3-.5.92.92,0,0,0-.32-.24.8.8,0,0,0-.45-.12h-.92Zm-.25,0v-3H390a.19.19,0,0,1-.13,0,.1.1,0,0,1,0-.09.13.13,0,0,1,0-.1.19.19,0,0,1,.13,0h1.35a1.2,1.2,0,0,1,.57.13,1,1,0,0,1,.4.3,2,2,0,0,1,.36.61,1.44,1.44,0,0,1,.09.53v.35a1.73,1.73,0,0,1-.18.76,1.55,1.55,0,0,1-.56.62,1.23,1.23,0,0,1-.68.2H390c-.07,0-.11,0-.13,0a.1.1,0,0,1,0-.09.09.09,0,0,1,0-.08s.06,0,.13,0Zm-3.51-1.57h.7a1.37,1.37,0,0,0,.58-.12,1,1,0,0,0,.4-.27.59.59,0,0,0,.12-.34.71.71,0,0,0-.25-.48.9.9,0,0,0-.61-.22h-.94Zm0,.25v1.32h.47c.06,0,.11,0,.13,0a.12.12,0,0,1,0,.08.13.13,0,0,1,0,.09s-.07,0-.13,0h-1.05a.21.21,0,0,1-.14,0,.12.12,0,0,1,0-.09.11.11,0,0,1,0-.08.21.21,0,0,1,.14,0h.33v-3h-.33a.29.29,0,0,1-.14,0,.12.12,0,0,1,0-.09.17.17,0,0,1,0-.1.29.29,0,0,1,.14,0h1.52a1.12,1.12,0,0,1,.79.29.93.93,0,0,1,.32.67.77.77,0,0,1-.21.52,1.29,1.29,0,0,1-.65.39,2.24,2.24,0,0,1,.45.42,7,7,0,0,1,.62,1h.19a.17.17,0,0,1,.13,0,.09.09,0,0,1,0,.08.1.1,0,0,1,0,.09.17.17,0,0,1-.13,0h-.33a5.61,5.61,0,0,0-.73-1.11,1.88,1.88,0,0,0-.59-.46Zm-1.57-.18a1.78,1.78,0,0,0-.36-1.09,1.1,1.1,0,0,0-.92-.48,1.15,1.15,0,0,0-.91.46,1.75,1.75,0,0,0-.37,1.11,1.67,1.67,0,0,0,.39,1.15,1.18,1.18,0,0,0,.89.45,1.1,1.1,0,0,0,.92-.48A1.85,1.85,0,0,0,385.13,304Zm.25,0a2.26,2.26,0,0,1-.2.94,1.68,1.68,0,0,1-.56.67,1.37,1.37,0,0,1-.77.24,1.45,1.45,0,0,1-1.08-.52,2.16,2.16,0,0,1,0-2.64,1.42,1.42,0,0,1,1.08-.52,1.37,1.37,0,0,1,.77.24,1.62,1.62,0,0,1,.56.67A2.17,2.17,0,0,1,385.38,304Zm-4.1,1.75h-.4l-.72-2.49-.69,2.49h-.4l-.37-3.25h-.09a.23.23,0,0,1-.13,0,.1.1,0,0,1,0-.09.13.13,0,0,1,0-.1.23.23,0,0,1,.13,0h.93a.21.21,0,0,1,.13,0,.11.11,0,0,1,.05.1.09.09,0,0,1-.05.09.21.21,0,0,1-.13,0H379l.33,3L380,303h.38l.7,2.44.33-3h-.59a.29.29,0,0,1-.14,0,.12.12,0,0,1,0-.09.17.17,0,0,1,0-.1.29.29,0,0,1,.14,0h.93a.21.21,0,0,1,.13,0,.18.18,0,0,1,0,.1.13.13,0,0,1,0,.09.21.21,0,0,1-.13,0h-.1Zm-3.88-3.25v-.09a.21.21,0,0,1,0-.12.1.1,0,0,1,.08,0,.11.11,0,0,1,.1,0,.16.16,0,0,1,0,.12V303a.17.17,0,0,1,0,.13.13.13,0,0,1-.1,0s-.05,0-.08,0a.17.17,0,0,1,0-.12.58.58,0,0,0-.27-.44.9.9,0,0,0-.63-.2,1,1,0,0,0-.67.21.63.63,0,0,0-.24.5.55.55,0,0,0,.07.28.66.66,0,0,0,.18.19,1.11,1.11,0,0,0,.27.12,3,3,0,0,0,.44.09,3,3,0,0,1,.7.18.84.84,0,0,1,.53.81,1,1,0,0,1-.35.74,1.32,1.32,0,0,1-.92.3,1.39,1.39,0,0,1-1.05-.41v.14a.17.17,0,0,1,0,.13s0,0-.08,0a.13.13,0,0,1-.1,0,.23.23,0,0,1,0-.13v-.69a.19.19,0,0,1,0-.13.13.13,0,0,1,.1,0,.09.09,0,0,1,.08,0,.12.12,0,0,1,0,.11.73.73,0,0,0,.3.5,1.32,1.32,0,0,0,1.49,0,.71.71,0,0,0,.28-.56.61.61,0,0,0-.11-.36.55.55,0,0,0-.31-.24,3.79,3.79,0,0,0-.6-.15,2.16,2.16,0,0,1-.9-.32.73.73,0,0,1-.27-.61.85.85,0,0,1,.31-.67,1.24,1.24,0,0,1,.84-.29A1.36,1.36,0,0,1,377.4,302.47Zm-3.68,0v-.09a.16.16,0,0,1,0-.12.09.09,0,0,1,.08,0,.13.13,0,0,1,.1,0,.21.21,0,0,1,0,.12V303a.23.23,0,0,1,0,.13.18.18,0,0,1-.1,0,.12.12,0,0,1-.08,0s0-.06,0-.12a.56.56,0,0,0-.26-.44.93.93,0,0,0-.64-.2,1,1,0,0,0-.67.21.62.62,0,0,0-.23.5.55.55,0,0,0,.07.28.47.47,0,0,0,.18.19,1,1,0,0,0,.26.12,3.27,3.27,0,0,0,.44.09,3.16,3.16,0,0,1,.71.18.8.8,0,0,1,.39.33.82.82,0,0,1,.13.48,1,1,0,0,1-.34.74,1.32,1.32,0,0,1-.92.3,1.43,1.43,0,0,1-1.06-.41v.14a.23.23,0,0,1,0,.13.12.12,0,0,1-.18,0,.17.17,0,0,1,0-.13v-.69c0-.07,0-.11,0-.13a.1.1,0,0,1,.09,0,.11.11,0,0,1,.09,0,.16.16,0,0,1,0,.11.77.77,0,0,0,.3.5,1.19,1.19,0,0,0,.76.23,1.15,1.15,0,0,0,.74-.23.73.73,0,0,0,.27-.56.61.61,0,0,0-.1-.36.57.57,0,0,0-.32-.24,3.57,3.57,0,0,0-.59-.15,2.05,2.05,0,0,1-.9-.32.72.72,0,0,1-.28-.61.88.88,0,0,1,.31-.67,1.24,1.24,0,0,1,.84-.29A1.34,1.34,0,0,1,373.72,302.47Zm-3.84,1.83-.7-1.83h-.09l-.67,1.83Zm.09.25h-1.65l-.33.92h.48a.12.12,0,0,1,.11,0,.08.08,0,0,1,.05.08.09.09,0,0,1-.05.09.12.12,0,0,1-.11,0h-1a.18.18,0,0,1-.13,0,.1.1,0,0,1,0-.09.09.09,0,0,1,0-.08.18.18,0,0,1,.13,0h.2l1.11-3h-.75a.25.25,0,0,1-.13,0,.12.12,0,0,1,0-.09.17.17,0,0,1,0-.1.25.25,0,0,1,.13,0h1.27l1.23,3.25h.19c.06,0,.1,0,.12,0a.1.1,0,0,1,.05.08.11.11,0,0,1-.05.09s-.06,0-.12,0h-.93a.2.2,0,0,1-.14,0,.1.1,0,0,1,0-.09.09.09,0,0,1,0-.08.2.2,0,0,1,.14,0h.48Zm-5.05-.52h.8a1.14,1.14,0,0,0,.52-.12.86.86,0,0,0,.36-.31.7.7,0,0,0,.12-.36.69.69,0,0,0-.27-.53.88.88,0,0,0-.63-.24h-.9Zm0,.25v1.19h.86c.06,0,.11,0,.13,0a.09.09,0,0,1,0,.08.1.1,0,0,1,0,.09s-.07,0-.13,0h-1.45a.17.17,0,0,1-.13,0,.12.12,0,0,1,0-.09.11.11,0,0,1,0-.08.17.17,0,0,1,.13,0h.34v-3h-.34a.23.23,0,0,1-.13,0,.12.12,0,0,1,0-.09.17.17,0,0,1,0-.1.23.23,0,0,1,.13,0h1.46a1.13,1.13,0,0,1,.84.31.91.91,0,0,1,.34.71.93.93,0,0,1-.11.44,1.31,1.31,0,0,1-.25.31,1.61,1.61,0,0,1-.47.24,1.75,1.75,0,0,1-.43,0Zm-7.63-.38h.7a1.37,1.37,0,0,0,.58-.12,1,1,0,0,0,.4-.27.59.59,0,0,0,.12-.34.71.71,0,0,0-.25-.48.88.88,0,0,0-.61-.22h-.94Zm0,.25v1.32h.47c.07,0,.11,0,.13,0a.09.09,0,0,1,0,.08.1.1,0,0,1,0,.09s-.06,0-.13,0h-1.05a.17.17,0,0,1-.13,0,.1.1,0,0,1,0-.09.09.09,0,0,1,0-.08.17.17,0,0,1,.13,0H357v-3h-.33a.23.23,0,0,1-.13,0,.1.1,0,0,1,0-.09.13.13,0,0,1,0-.1.23.23,0,0,1,.13,0h1.52a1.12,1.12,0,0,1,.79.29.93.93,0,0,1,.32.67.81.81,0,0,1-.2.52,1.38,1.38,0,0,1-.66.39,2,2,0,0,1,.45.42,7,7,0,0,1,.62,1h.2a.16.16,0,0,1,.12,0,.1.1,0,0,1,.05.08.11.11,0,0,1-.05.09.16.16,0,0,1-.12,0h-.34a5.61,5.61,0,0,0-.73-1.11,1.88,1.88,0,0,0-.59-.46Zm-3.67-.12v1.44h1.94v-.74a.24.24,0,0,1,0-.14.15.15,0,0,1,.18,0,.23.23,0,0,1,0,.14v1H353a.17.17,0,0,1-.13,0,.13.13,0,0,1,0-.09.12.12,0,0,1,0-.08.17.17,0,0,1,.13,0h.34v-3H353a.23.23,0,0,1-.13,0,.13.13,0,0,1,0-.09.18.18,0,0,1,0-.1.23.23,0,0,1,.13,0h2.64v.87a.25.25,0,0,1,0,.13.15.15,0,0,1-.1,0,.12.12,0,0,1-.08,0,.18.18,0,0,1,0-.13v-.62h-1.8v1.31h.91v-.28a.24.24,0,0,1,0-.14.14.14,0,0,1,.09,0,.12.12,0,0,1,.09,0,.18.18,0,0,1,0,.14v.81c0,.06,0,.11,0,.13a.1.1,0,0,1-.09,0,.11.11,0,0,1-.09,0,.21.21,0,0,1,0-.13V304Zm-2.73-1.56v3h.65c.06,0,.1,0,.12,0a.08.08,0,0,1,0,.08.09.09,0,0,1,0,.09s-.06,0-.12,0H350a.21.21,0,0,1-.14,0,.12.12,0,0,1,0-.09.11.11,0,0,1,0-.08.21.21,0,0,1,.14,0h.65v-3h-1v.87a.2.2,0,0,1,0,.13.12.12,0,0,1-.1,0,.09.09,0,0,1-.08,0,.21.21,0,0,1,0-.13v-1.12h2.81v1.12a.2.2,0,0,1,0,.13.09.09,0,0,1-.08,0,.12.12,0,0,1-.1,0,.21.21,0,0,1,0-.13v-.87Zm-2.57,3.25H348l-1.85-3.13v2.88h.46c.06,0,.1,0,.12,0a.1.1,0,0,1,0,.08.11.11,0,0,1,0,.09s-.06,0-.12,0h-.93a.17.17,0,0,1-.13,0,.1.1,0,0,1,0-.09.09.09,0,0,1,0-.08.17.17,0,0,1,.13,0h.21v-3h-.33a.21.21,0,0,1-.13,0,.1.1,0,0,1,0-.09.13.13,0,0,1,0-.1.21.21,0,0,1,.13,0h.66l1.85,3.14v-2.89h-.46a.24.24,0,0,1-.14,0,.12.12,0,0,1,0-.09.17.17,0,0,1,0-.1.24.24,0,0,1,.14,0h.92a.23.23,0,0,1,.13,0,.17.17,0,0,1,0,.1.12.12,0,0,1,0,.09.23.23,0,0,1-.13,0h-.21ZM342.59,304v1.44h1.94v-.74a.24.24,0,0,1,0-.14.15.15,0,0,1,.18,0,.18.18,0,0,1,0,.14v1H342a.18.18,0,0,1-.13,0,.13.13,0,0,1,0-.09.12.12,0,0,1,0-.08.18.18,0,0,1,.13,0h.34v-3H342a.25.25,0,0,1-.13,0,.13.13,0,0,1,0-.09.18.18,0,0,1,0-.1.25.25,0,0,1,.13,0h2.65v.87a.25.25,0,0,1,0,.13.18.18,0,0,1-.09,0,.13.13,0,0,1-.09,0,.25.25,0,0,1,0-.13v-.62h-1.81v1.31h.91v-.28a.24.24,0,0,1,0-.14.16.16,0,0,1,.09,0,.12.12,0,0,1,.09,0,.18.18,0,0,1,0,.14v.81c0,.06,0,.11,0,.13a.1.1,0,0,1-.09,0,.12.12,0,0,1-.09,0,.21.21,0,0,1,0-.13V304Z" transform="translate(-179.32 -142)"/>
      <path d="M372.68,318.31v-.86a.17.17,0,0,1,0-.12.12.12,0,0,1,.19,0,.17.17,0,0,1,0,.12v.86l.83-.27.08,0a.1.1,0,0,1,.08.05.09.09,0,0,1,0,.08.29.29,0,0,1,0,.09.32.32,0,0,1-.11,0l-.82.27.51.69a.31.31,0,0,1,.05.11.18.18,0,0,1,0,.1.11.11,0,0,1-.08,0,.19.19,0,0,1-.14-.08l-.5-.7-.51.7a.17.17,0,0,1-.12.08.11.11,0,0,1-.13-.13.24.24,0,0,1,0-.11l.52-.69-.83-.27a.19.19,0,0,1-.09,0,.16.16,0,0,1,0-.09.09.09,0,0,1,0-.08.1.1,0,0,1,.07-.05l.1,0Zm-3.68,0v-.86a.17.17,0,0,1,0-.12.12.12,0,0,1,.1-.05s.05,0,.08.05,0,.06,0,.12v.86l.83-.27.09,0a.1.1,0,0,1,.08.05.11.11,0,0,1,0,.08.15.15,0,0,1,0,.09.32.32,0,0,1-.11,0l-.81.27.5.69a.31.31,0,0,1,.05.11.13.13,0,0,1,0,.1.11.11,0,0,1-.08,0,.17.17,0,0,1-.13-.08l-.5-.7-.52.7a.17.17,0,0,1-.12.08.12.12,0,0,1-.09,0,.13.13,0,0,1,0-.1.31.31,0,0,1,.05-.11l.51-.69-.82-.27-.1,0a.29.29,0,0,1,0-.09.11.11,0,0,1,0-.08s.05-.05.07-.05l.1,0Zm-3.67,0v-.86a.17.17,0,0,1,0-.12.14.14,0,0,1,.1-.05.1.1,0,0,1,.08.05s0,.06,0,.12v.86l.83-.27.08,0a.1.1,0,0,1,.08.05.09.09,0,0,1,0,.08.16.16,0,0,1,0,.09l-.1,0-.82.27.51.69a.24.24,0,0,1,0,.11.17.17,0,0,1,0,.1.16.16,0,0,1-.09,0,.19.19,0,0,1-.13-.08l-.5-.7-.51.7c-.05.05-.09.08-.12.08a.15.15,0,0,1-.1,0,.13.13,0,0,1,0-.1.31.31,0,0,1,.05-.11l.52-.69-.83-.27-.1,0a.29.29,0,0,1,0-.09.09.09,0,0,1,0-.08s0-.05.07-.05l.09,0Zm-3.68,0v-.86c0-.06,0-.1,0-.12a.11.11,0,0,1,.09-.05s.06,0,.09.05a.17.17,0,0,1,0,.12v.86l.83-.27.08,0a.14.14,0,0,1,.09.05.11.11,0,0,1,0,.08.29.29,0,0,1,0,.09.32.32,0,0,1-.11,0l-.81.27.5.69a.31.31,0,0,1,.05.11.13.13,0,0,1,0,.1.11.11,0,0,1-.08,0,.17.17,0,0,1-.13-.08l-.51-.7-.51.7a.17.17,0,0,1-.12.08.11.11,0,0,1-.13-.13.19.19,0,0,1,.05-.11l.51-.69-.83-.27-.09,0a.16.16,0,0,1,0-.09.12.12,0,0,1,0-.08.1.1,0,0,1,.07-.05l.1,0Zm-3.67,0v-.86a.17.17,0,0,1,0-.12.14.14,0,0,1,.1-.05.1.1,0,0,1,.08.05.17.17,0,0,1,0,.12v.86l.82-.27.09,0a.1.1,0,0,1,.08.05.11.11,0,0,1,0,.08.15.15,0,0,1,0,.09.25.25,0,0,1-.11,0l-.81.27.5.69a.31.31,0,0,1,.05.11.17.17,0,0,1,0,.1.16.16,0,0,1-.09,0,.17.17,0,0,1-.13-.08l-.5-.7-.52.7a.17.17,0,0,1-.12.08.12.12,0,0,1-.09,0,.13.13,0,0,1,0-.1.31.31,0,0,1,.05-.11l.51-.69-.82-.27-.1,0a.29.29,0,0,1,0-.09.09.09,0,0,1,0-.08s0-.05.07-.05l.09,0Zm-3.68,0v-.86a.17.17,0,0,1,0-.12.14.14,0,0,1,.1-.05.1.1,0,0,1,.08.05s0,.06,0,.12v.86l.83-.27.08,0a.1.1,0,0,1,.08.05.09.09,0,0,1,0,.08.29.29,0,0,1,0,.09l-.11,0-.81.27.5.69a.24.24,0,0,1,0,.11.17.17,0,0,1,0,.1.13.13,0,0,1-.08,0,.19.19,0,0,1-.14-.08l-.5-.7-.51.7a.17.17,0,0,1-.12.08.15.15,0,0,1-.1,0,.18.18,0,0,1,0-.1.31.31,0,0,1,0-.11l.52-.69-.83-.27a.19.19,0,0,1-.09,0,.16.16,0,0,1,0-.09.09.09,0,0,1,0-.08.1.1,0,0,1,.07-.05l.1,0Zm-3.68,0v-.86c0-.06,0-.1,0-.12a.11.11,0,0,1,.18,0,.17.17,0,0,1,0,.12v.86l.83-.27.08,0s.06,0,.09.05a.11.11,0,0,1,0,.08.15.15,0,0,1,0,.09.32.32,0,0,1-.11,0l-.81.27.5.69a.31.31,0,0,1,.05.11.13.13,0,0,1,0,.1.11.11,0,0,1-.08,0,.17.17,0,0,1-.13-.08l-.51-.7-.51.7a.17.17,0,0,1-.12.08.12.12,0,0,1-.09,0,.13.13,0,0,1,0-.1.19.19,0,0,1,.05-.11l.51-.69-.82-.27-.1,0a.15.15,0,0,1,0-.09.11.11,0,0,1,0-.08s.05-.05.07-.05l.1,0Zm-3.67,0v-.86a.17.17,0,0,1,0-.12.12.12,0,0,1,.1-.05.1.1,0,0,1,.08.05s0,.06,0,.12v.86L348,318l.09,0a.1.1,0,0,1,.08.05.12.12,0,0,1,0,.08.16.16,0,0,1,0,.09.25.25,0,0,1-.11,0l-.81.27.5.69a.19.19,0,0,1,.05.11.17.17,0,0,1,0,.1.14.14,0,0,1-.09,0,.19.19,0,0,1-.13-.08l-.5-.7-.52.7a.15.15,0,0,1-.12.08.12.12,0,0,1-.09,0,.13.13,0,0,1,0-.1.31.31,0,0,1,.05-.11l.52-.69-.83-.27-.1,0a.29.29,0,0,1,0-.09.11.11,0,0,1,0-.08s.05-.05.08-.05l.09,0Zm-3.68,0v-.86c0-.06,0-.1,0-.12a.11.11,0,0,1,.09-.05.14.14,0,0,1,.09.05.17.17,0,0,1,0,.12v.86l.83-.27.08,0a.14.14,0,0,1,.09.05.11.11,0,0,1,0,.08.29.29,0,0,1,0,.09.32.32,0,0,1-.11,0l-.82.27.51.69a.31.31,0,0,1,.05.11.18.18,0,0,1,0,.1.11.11,0,0,1-.08,0,.16.16,0,0,1-.13-.08l-.51-.7-.51.7a.17.17,0,0,1-.12.08.11.11,0,0,1-.13-.13.24.24,0,0,1,0-.11l.52-.69-.83-.27-.09,0a.16.16,0,0,1,0-.09.12.12,0,0,1,0-.08.1.1,0,0,1,.07-.05l.1,0Z" transform="translate(-179.32 -142)"/>
    </g>
    <path class="cls-23" d="M394.06,389.14a6.44,6.44,0,0,1,3.77,10.72l-4.74-4.36Z" transform="translate(-179.32 -142)"/>
    <path class="cls-23" d="M392.08,428.82a6.43,6.43,0,0,1-11.34-.6l5.83-2.72Z" transform="translate(-179.32 -142)"/>
    <path class="cls-23" d="M339.69,411.59a6.42,6.42,0,0,1,5.33-10V408Z" transform="translate(-179.32 -142)"/>
    <text class="cls-24" transform="translate(44.95 68.3)">098dfe2e4d1ca96d<tspan x="0" y="7.44">a810e7de1dbbf945</tspan><tspan x="0" y="14.87">e5b529650b8cae2a</tspan><tspan x="0" y="22.31">59d045c98c8c96c9</tspan></text>
    <path d="M381.66,202.43a.37.37,0,0,1-.13.29.45.45,0,0,1-.34.12.45.45,0,0,1-.33-.12.4.4,0,0,1-.12-.29.37.37,0,0,1,.12-.29.45.45,0,0,1,.33-.12.45.45,0,0,1,.34.12A.35.35,0,0,1,381.66,202.43Zm0-2a.41.41,0,0,1-.12.3.5.5,0,0,1-.34.11.51.51,0,0,1-.34-.11.41.41,0,0,1-.12-.3.4.4,0,0,1,.12-.29.52.52,0,0,1,.34-.12.5.5,0,0,1,.34.12A.4.4,0,0,1,381.65,200.42Zm-4.48,2.29-1.06-2.09a.3.3,0,0,1-.21-.52.44.44,0,0,1,.31-.09h.57a.46.46,0,0,1,.31.09.31.31,0,0,1,0,.44.45.45,0,0,1-.3.08l.73,1.42.71-1.42a.4.4,0,0,1-.29-.08.3.3,0,0,1-.09-.23.26.26,0,0,1,.09-.21.45.45,0,0,1,.32-.09h.57a.43.43,0,0,1,.31.09.26.26,0,0,1,.1.23.29.29,0,0,1-.32.29l-1.4,2.78a.64.64,0,0,1,.3,0,.29.29,0,0,1,.14.26.27.27,0,0,1-.1.22.48.48,0,0,1-.31.08h-1.34a.5.5,0,0,1-.31-.08.29.29,0,0,1-.09-.22.32.32,0,0,1,.09-.23.5.5,0,0,1,.31-.08h.61Zm-2.47-1.64a1,1,0,0,0-.37-.4,1.13,1.13,0,0,0-.54-.13,1.2,1.2,0,0,0-.54.13,1,1,0,0,0-.37.4Zm.67.61h-2.51a.8.8,0,0,0,.34.39,1.28,1.28,0,0,0,.67.14,3.53,3.53,0,0,0,.89-.14l.32-.06a.29.29,0,0,1,.22.09.25.25,0,0,1,.08.21.29.29,0,0,1-.09.21,1.6,1.6,0,0,1-.59.21,4.57,4.57,0,0,1-.88.1,1.7,1.7,0,0,1-1.19-.41,1.4,1.4,0,0,1-.43-1,1.33,1.33,0,0,1,.47-1,1.65,1.65,0,0,1,1.1-.41,1.7,1.7,0,0,1,.69.13,1.52,1.52,0,0,1,.47.29,1.68,1.68,0,0,1,.35.55,1.44,1.44,0,0,1,.09.53Zm-5.71,0v1h-.72a.54.54,0,0,1-.32-.08.3.3,0,0,1-.09-.23.26.26,0,0,1,.09-.21.47.47,0,0,1,.32-.09h.1v-2.66h-.1a.47.47,0,0,1-.32-.08.3.3,0,0,1-.09-.23.27.27,0,0,1,.09-.21.47.47,0,0,1,.32-.09h.72v2.06l.48-.38a.37.37,0,0,1-.08-.2.29.29,0,0,1,.09-.23.46.46,0,0,1,.31-.09h.71a.44.44,0,0,1,.31.09.29.29,0,0,1,.1.23.3.3,0,0,1-.1.21.44.44,0,0,1-.31.08H371l-.75.61,1,.89h.18a.41.41,0,0,1,.31.09.24.24,0,0,1,.1.21.28.28,0,0,1-.1.23.46.46,0,0,1-.31.08h-.7a.48.48,0,0,1-.31-.08.28.28,0,0,1-.1-.23.32.32,0,0,1,.1-.23l-.65-.57Zm-6-.64a1,1,0,0,0-.37-.4,1.17,1.17,0,0,0-1.07,0,1,1,0,0,0-.38.4Zm.67.61h-2.51a.8.8,0,0,0,.34.39,1.28,1.28,0,0,0,.67.14,3.53,3.53,0,0,0,.89-.14,1.65,1.65,0,0,1,.33-.06.27.27,0,0,1,.21.09.26.26,0,0,1,.09.21.3.3,0,0,1-.1.21,1.6,1.6,0,0,1-.59.21,4.48,4.48,0,0,1-.88.1,1.7,1.7,0,0,1-1.19-.41,1.4,1.4,0,0,1-.43-1,1.33,1.33,0,0,1,.47-1,1.67,1.67,0,0,1,1.1-.41,1.78,1.78,0,0,1,.7.13,1.59,1.59,0,0,1,.46.29,1.68,1.68,0,0,1,.35.55,1.44,1.44,0,0,1,.09.53ZM359,200.62v1.24a.37.37,0,0,0,.08.26.8.8,0,0,0,.45.09,1.8,1.8,0,0,0,.87-.2.56.56,0,0,1,.24-.07.35.35,0,0,1,.3.3.3.3,0,0,1-.1.22,2.07,2.07,0,0,1-.58.25,2.82,2.82,0,0,1-.73.12,1.29,1.29,0,0,1-.85-.24.81.81,0,0,1-.29-.61v-1.36h-.23a.46.46,0,0,1-.31-.08.3.3,0,0,1-.09-.23.26.26,0,0,1,.09-.21.46.46,0,0,1,.31-.09h.23v-.55a.51.51,0,0,1,.08-.32.3.3,0,0,1,.23-.09.29.29,0,0,1,.22.09.51.51,0,0,1,.08.32V200h1.14a.46.46,0,0,1,.31.09.31.31,0,0,1,0,.44.46.46,0,0,1-.31.08Zm-3,1a3.41,3.41,0,0,0-.68-.07,1.18,1.18,0,0,0-.65.18c-.11.08-.17.16-.17.24a.17.17,0,0,0,.09.14.8.8,0,0,0,.41.09,1.57,1.57,0,0,0,.5-.08,1.37,1.37,0,0,0,.5-.24Zm0,1.1v-.14a1.92,1.92,0,0,1-.51.18,2,2,0,0,1-.51.07,1.24,1.24,0,0,1-.8-.26.76.76,0,0,1-.31-.59.91.91,0,0,1,.4-.71,1.62,1.62,0,0,1,1.08-.33,4.12,4.12,0,0,1,.65.06v-.16a.26.26,0,0,0-.12-.22.8.8,0,0,0-.45-.09,3.34,3.34,0,0,0-.71.11,1,1,0,0,1-.25,0,.25.25,0,0,1-.2-.09.34.34,0,0,1-.06-.37.15.15,0,0,1,.08-.08.67.67,0,0,1,.23-.09,3.41,3.41,0,0,1,.46-.1,2.29,2.29,0,0,1,.43,0,1.36,1.36,0,0,1,.88.25.81.81,0,0,1,.32.67v1.27h.11a.46.46,0,0,1,.31.09.26.26,0,0,1,.09.21.3.3,0,0,1-.09.23.52.52,0,0,1-.31.08Zm-4.23-.74.66-1.37a1,1,0,0,1-.31,0,.32.32,0,0,1-.14-.28.29.29,0,0,1,.08-.21.45.45,0,0,1,.32-.09h.84a.41.41,0,0,1,.31.09.29.29,0,0,1,0,.44.41.41,0,0,1-.31.08h-.1l-1,2.11h-.65l-1-2.11h-.09a.44.44,0,0,1-.31-.08.28.28,0,0,1-.1-.23.24.24,0,0,1,.1-.21.44.44,0,0,1,.31-.09h.82a.43.43,0,0,1,.31.09.26.26,0,0,1,.1.23.29.29,0,0,1-.14.25.79.79,0,0,1-.33,0Zm-3.37-2v2.11h.74a.44.44,0,0,1,.31.09.27.27,0,0,1,.1.21.31.31,0,0,1-.1.23.5.5,0,0,1-.31.08h-2.1a.52.52,0,0,1-.31-.08.3.3,0,0,1-.09-.23.26.26,0,0,1,.09-.21.46.46,0,0,1,.31-.09h.75v-1.5h-.49a.49.49,0,0,1-.33-.08.3.3,0,0,1-.09-.23.26.26,0,0,1,.09-.21.48.48,0,0,1,.33-.09Zm-.09-1.16v.65h-.73v-.65Zm-4,1.16v.39a2.8,2.8,0,0,1,.61-.37,1,1,0,0,1,.42-.1.88.88,0,0,1,.57.23.37.37,0,0,1,.19.3.31.31,0,0,1-.09.22.29.29,0,0,1-.22.09.42.42,0,0,1-.24-.11.33.33,0,0,0-.21-.12.92.92,0,0,0-.4.17,5,5,0,0,0-.63.48v.93h.87a.39.39,0,0,1,.31.09.24.24,0,0,1,.1.21.28.28,0,0,1-.1.23.44.44,0,0,1-.31.08h-1.85a.5.5,0,0,1-.31-.08.28.28,0,0,1-.1-.23.24.24,0,0,1,.1-.21.44.44,0,0,1,.31-.09h.37v-1.5h-.23a.44.44,0,0,1-.31-.08.31.31,0,0,1-.1-.23.27.27,0,0,1,.1-.21.44.44,0,0,1,.31-.09Zm-3.9.87H341a1,1,0,0,0,.62-.18.57.57,0,0,0,.24-.45.47.47,0,0,0-.19-.37.78.78,0,0,0-.54-.17h-.7Zm0,.6v.64H341a.46.46,0,0,1,.31.09.26.26,0,0,1,.09.21.3.3,0,0,1-.09.23.52.52,0,0,1-.31.08h-1.33a.51.51,0,0,1-.32-.08.3.3,0,0,1-.09-.23.27.27,0,0,1,.1-.21.44.44,0,0,1,.31-.09h.1v-2.41h-.1a.46.46,0,0,1-.32-.08.29.29,0,0,1-.09-.23.27.27,0,0,1,.09-.21.46.46,0,0,1,.32-.08h1.41a1.34,1.34,0,0,1,1,.34,1.07,1.07,0,0,1,.37.82,1,1,0,0,1-.13.51,1,1,0,0,1-.31.36,1.82,1.82,0,0,1-.44.26,1.61,1.61,0,0,1-.59.08Z" transform="translate(-179.32 -142)"/>
    <text class="cls-24" transform="translate(159.65 68.3)">098dfe2e4d1ca96d<tspan x="0" y="7.44">a810e7de1dbbf945</tspan><tspan x="0" y="14.87">e5b529650b8cae2a</tspan><tspan x="0" y="22.31">59d045c98c8c96c9</tspan></text>
    <path d="M267,297.77a.35.35,0,0,1-.13.28.45.45,0,0,1-.34.12.45.45,0,0,1-.33-.12.38.38,0,0,1-.12-.28.36.36,0,0,1,.12-.29.45.45,0,0,1,.33-.12.45.45,0,0,1,.34.12A.34.34,0,0,1,267,297.77Zm0-2a.41.41,0,0,1-.12.3.5.5,0,0,1-.34.11.53.53,0,0,1-.34-.11.41.41,0,0,1-.12-.3.38.38,0,0,1,.12-.28.49.49,0,0,1,.34-.12.45.45,0,0,1,.34.12A.38.38,0,0,1,266.94,295.75ZM262.46,298,261.4,296a.33.33,0,0,1-.23-.1.29.29,0,0,1-.07-.2.3.3,0,0,1,.09-.23.52.52,0,0,1,.31-.08h.57a.52.52,0,0,1,.31.08.3.3,0,0,1,.09.23.26.26,0,0,1-.09.21.45.45,0,0,1-.3.09l.73,1.41.71-1.41a.4.4,0,0,1-.29-.09.28.28,0,0,1-.09-.22.29.29,0,0,1,.09-.22.51.51,0,0,1,.32-.08h.57a.54.54,0,0,1,.32.08.3.3,0,0,1,.09.23.3.3,0,0,1-.08.2.34.34,0,0,1-.24.1l-1.4,2.77a.64.64,0,0,1,.3,0,.29.29,0,0,1,.14.26.27.27,0,0,1-.1.22.43.43,0,0,1-.31.08H261.5a.46.46,0,0,1-.31-.08.29.29,0,0,1-.09-.22.28.28,0,0,1,.09-.22.46.46,0,0,1,.31-.09h.61ZM260,296.4a1,1,0,0,0-.37-.4,1.13,1.13,0,0,0-.54-.13,1.2,1.2,0,0,0-.54.13,1.1,1.1,0,0,0-.37.4Zm.67.61h-2.51a.93.93,0,0,0,.34.4,1.39,1.39,0,0,0,.67.14,4.06,4.06,0,0,0,.89-.14,1.14,1.14,0,0,1,.33-.06.26.26,0,0,1,.21.08.27.27,0,0,1,.09.21.28.28,0,0,1-.1.21,1.52,1.52,0,0,1-.59.21,3.9,3.9,0,0,1-.88.1,1.7,1.7,0,0,1-1.19-.41,1.4,1.4,0,0,1-.43-1,1.33,1.33,0,0,1,.47-1.05,1.67,1.67,0,0,1,1.1-.41,1.84,1.84,0,0,1,.69.13,1.52,1.52,0,0,1,.47.29,1.79,1.79,0,0,1,.35.55,1.44,1.44,0,0,1,.09.53Zm-5.71,0v1h-.71a.49.49,0,0,1-.33-.08.3.3,0,0,1-.09-.23.26.26,0,0,1,.09-.21.48.48,0,0,1,.33-.09h.09V294.8h-.09a.48.48,0,0,1-.33-.09.28.28,0,0,1-.09-.22.29.29,0,0,1,.09-.22.55.55,0,0,1,.33-.08H255v2.06l.48-.39a.48.48,0,0,1-.08-.2.3.3,0,0,1,.09-.23.54.54,0,0,1,.32-.08h.7a.5.5,0,0,1,.31.08.28.28,0,0,1,.1.23.24.24,0,0,1-.1.21.44.44,0,0,1-.31.09h-.17l-.75.61,1,.88h.18a.41.41,0,0,1,.31.09.24.24,0,0,1,.1.21.28.28,0,0,1-.1.23.41.41,0,0,1-.31.08H256a.43.43,0,0,1-.31-.08.28.28,0,0,1-.1-.23.34.34,0,0,1,.1-.23l-.65-.57Zm-6-.65a1,1,0,0,0-.37-.4,1.17,1.17,0,0,0-1.07,0,1,1,0,0,0-.37.4Zm.67.61h-2.51a.93.93,0,0,0,.34.4,1.39,1.39,0,0,0,.67.14,4.06,4.06,0,0,0,.89-.14,1.14,1.14,0,0,1,.33-.06.25.25,0,0,1,.21.08.27.27,0,0,1,.09.21.25.25,0,0,1-.1.21,1.6,1.6,0,0,1-.59.21,3.83,3.83,0,0,1-.88.1,1.72,1.72,0,0,1-1.19-.41,1.4,1.4,0,0,1-.43-1,1.33,1.33,0,0,1,.47-1.05,1.67,1.67,0,0,1,1.1-.41,1.94,1.94,0,0,1,.7.13,1.59,1.59,0,0,1,.46.29,1.79,1.79,0,0,1,.35.55,1.44,1.44,0,0,1,.09.53ZM244.27,296v1.23a.3.3,0,0,0,.09.26.68.68,0,0,0,.44.1,1.92,1.92,0,0,0,.87-.2.6.6,0,0,1,.24-.08.3.3,0,0,1,.21.1.25.25,0,0,1,.09.2.31.31,0,0,1-.09.22,1.68,1.68,0,0,1-.59.25,2.82,2.82,0,0,1-.73.12,1.29,1.29,0,0,1-.85-.24.79.79,0,0,1-.29-.61V296h-.23a.46.46,0,0,1-.31-.09.28.28,0,0,1-.09-.22.29.29,0,0,1,.09-.22.52.52,0,0,1,.31-.08h.23v-.55a.51.51,0,0,1,.08-.32.29.29,0,0,1,.23-.1.27.27,0,0,1,.22.1.51.51,0,0,1,.08.32v.55h1.14a.5.5,0,0,1,.31.08.31.31,0,0,1,.1.23.27.27,0,0,1-.1.21.44.44,0,0,1-.31.09Zm-3,1a3.41,3.41,0,0,0-.68-.07,1.18,1.18,0,0,0-.65.18.31.31,0,0,0-.16.24.16.16,0,0,0,.08.14.71.71,0,0,0,.41.1,1.92,1.92,0,0,0,.5-.08,1.79,1.79,0,0,0,.5-.24Zm0,1.1v-.14a1.92,1.92,0,0,1-.51.18,2,2,0,0,1-.51.07,1.24,1.24,0,0,1-.8-.26.79.79,0,0,1-.31-.59.89.89,0,0,1,.4-.7,1.57,1.57,0,0,1,1.08-.34,4.12,4.12,0,0,1,.65.06v-.15a.26.26,0,0,0-.12-.22.78.78,0,0,0-.45-.1,3.34,3.34,0,0,0-.71.11,1,1,0,0,1-.25,0,.28.28,0,0,1-.2-.08.36.36,0,0,1-.09-.24.35.35,0,0,1,0-.14l.08-.08.23-.08a3.19,3.19,0,0,1,.89-.15,1.36,1.36,0,0,1,.88.26.78.78,0,0,1,.32.67v1.26H242a.44.44,0,0,1,.31.09.26.26,0,0,1,.09.21.3.3,0,0,1-.09.23.44.44,0,0,1-.31.08Zm-4.23-.74.66-1.36a.7.7,0,0,1-.31,0,.31.31,0,0,1-.14-.27.33.33,0,0,1,.08-.22.55.55,0,0,1,.33-.08h.83a.46.46,0,0,1,.31.08.28.28,0,0,1,.1.23.24.24,0,0,1-.1.21.41.41,0,0,1-.31.09h-.09l-1,2.1h-.65l-1-2.1h-.09a.44.44,0,0,1-.31-.09.26.26,0,0,1-.1-.22.27.27,0,0,1,.1-.22.5.5,0,0,1,.31-.08h.82a.48.48,0,0,1,.31.08.28.28,0,0,1,.1.23.29.29,0,0,1-.14.25.74.74,0,0,1-.33,0Zm-3.37-2v2.1h.74a.44.44,0,0,1,.31.09.27.27,0,0,1,.1.21.31.31,0,0,1-.1.23.44.44,0,0,1-.31.08h-2.09A.47.47,0,0,1,232,298a.3.3,0,0,1-.09-.23.26.26,0,0,1,.09-.21.47.47,0,0,1,.32-.09h.74V296h-.49a.48.48,0,0,1-.33-.09.28.28,0,0,1-.09-.22.29.29,0,0,1,.09-.22.55.55,0,0,1,.33-.08Zm-.09-1.16v.64h-.73v-.64Zm-4,1.16v.38a3.63,3.63,0,0,1,.61-.37,1.16,1.16,0,0,1,.42-.1.88.88,0,0,1,.57.23.4.4,0,0,1,.19.3.33.33,0,0,1-.09.23.33.33,0,0,1-.22.08.36.36,0,0,1-.23-.1.35.35,0,0,0-.22-.13.92.92,0,0,0-.4.17q-.24.16-.63.48v.93h.87a.44.44,0,0,1,.32.09.26.26,0,0,1,.09.21.3.3,0,0,1-.09.23.44.44,0,0,1-.32.08h-1.85a.44.44,0,0,1-.31-.08.28.28,0,0,1-.1-.23.24.24,0,0,1,.1-.21.44.44,0,0,1,.31-.09H229V296h-.23a.44.44,0,0,1-.31-.09.28.28,0,0,1-.09-.22.29.29,0,0,1,.09-.22.5.5,0,0,1,.31-.08Zm-3.9.86h.57a1,1,0,0,0,.62-.18.57.57,0,0,0,.24-.44.44.44,0,0,0-.19-.37.73.73,0,0,0-.54-.17h-.7Zm0,.61v.63h.62a.44.44,0,0,1,.31.09.27.27,0,0,1,.1.21.31.31,0,0,1-.1.23.44.44,0,0,1-.31.08H225a.46.46,0,0,1-.32-.08.3.3,0,0,1-.09-.23.27.27,0,0,1,.1-.21.44.44,0,0,1,.31-.09h.1v-2.4H225a.45.45,0,0,1-.32-.09.28.28,0,0,1-.09-.22.29.29,0,0,1,.09-.22.51.51,0,0,1,.32-.08h1.41a1.35,1.35,0,0,1,1,.35,1.07,1.07,0,0,1,.37.81,1,1,0,0,1-.14.51,1,1,0,0,1-.31.36,2.27,2.27,0,0,1-.44.27,1.82,1.82,0,0,1-.59.08Z" transform="translate(-179.32 -142)"/>
    <text class="cls-24" transform="translate(44.95 163.63)">098dfe2e4d1ca96d<tspan x="0" y="7.44">a810e7de1dbbf945</tspan><tspan x="0" y="14.87">e5b529650b8cae2a</tspan><tspan x="0" y="22.31">59d045c98c8c96c9</tspan></text>
    <path d="M267,393.1a.39.39,0,0,1-.13.29.5.5,0,0,1-.34.11.49.49,0,0,1-.33-.11.42.42,0,0,1-.12-.29.37.37,0,0,1,.12-.29.45.45,0,0,1,.33-.12.45.45,0,0,1,.34.12A.35.35,0,0,1,267,393.1Zm0-2a.41.41,0,0,1-.12.3.49.49,0,0,1-.34.1.53.53,0,0,1-.34-.1.41.41,0,0,1-.12-.3.4.4,0,0,1,.12-.29.49.49,0,0,1,.34-.12.45.45,0,0,1,.34.12A.4.4,0,0,1,266.94,391.09Zm-4.48,2.28-1.06-2.08a.37.37,0,0,1-.23-.09.31.31,0,0,1-.07-.21.3.3,0,0,1,.09-.23.52.52,0,0,1,.31-.08h.57a.52.52,0,0,1,.31.08.3.3,0,0,1,.09.23.29.29,0,0,1-.09.22.51.51,0,0,1-.3.08l.73,1.41.71-1.41a.46.46,0,0,1-.29-.08.32.32,0,0,1-.09-.23.29.29,0,0,1,.09-.22.51.51,0,0,1,.32-.08h.57a.54.54,0,0,1,.32.08.3.3,0,0,1,.09.23.32.32,0,0,1-.08.21.38.38,0,0,1-.24.09l-1.4,2.78a.53.53,0,0,1,.3.05.28.28,0,0,1,.14.26.25.25,0,0,1-.1.21.43.43,0,0,1-.31.09H261.5a.46.46,0,0,1-.31-.09.27.27,0,0,1-.09-.21.3.3,0,0,1,.09-.23.46.46,0,0,1,.31-.08h.61ZM260,391.73a1,1,0,0,0-.37-.39,1,1,0,0,0-.54-.13,1,1,0,0,0-.91.52Zm.67.61h-2.51a.93.93,0,0,0,.34.4,1.39,1.39,0,0,0,.67.14,4.06,4.06,0,0,0,.89-.14,1.65,1.65,0,0,1,.33-.06.3.3,0,0,1,.21.08.29.29,0,0,1,.09.22.26.26,0,0,1-.1.2,1.66,1.66,0,0,1-.59.22,4.53,4.53,0,0,1-.88.09,1.7,1.7,0,0,1-1.19-.4,1.42,1.42,0,0,1-.43-1A1.34,1.34,0,0,1,258,391a1.78,1.78,0,0,1,1.79-.27,1.53,1.53,0,0,1,.47.28,1.73,1.73,0,0,1,.35.56,1.38,1.38,0,0,1,.09.52Zm-5.71,0v1h-.71a.48.48,0,0,1-.33-.09.28.28,0,0,1-.09-.22.29.29,0,0,1,.09-.22.49.49,0,0,1,.33-.08h.09v-2.66h-.09a.55.55,0,0,1-.33-.08.32.32,0,0,1-.09-.23.29.29,0,0,1,.09-.22.55.55,0,0,1,.33-.08H255v2.06l.48-.38a.51.51,0,0,1-.08-.21.3.3,0,0,1,.09-.23.54.54,0,0,1,.32-.08h.7a.5.5,0,0,1,.31.08.28.28,0,0,1,.1.23.27.27,0,0,1-.1.22.5.5,0,0,1-.31.08h-.17l-.75.61,1,.89h.18a.41.41,0,0,1,.31.08.27.27,0,0,1,.1.22.26.26,0,0,1-.1.22.41.41,0,0,1-.31.09H256a.43.43,0,0,1-.31-.09.26.26,0,0,1-.1-.22.32.32,0,0,1,.1-.23l-.65-.58Zm-6-.65a.93.93,0,0,0-.37-.39,1,1,0,0,0-.53-.13,1,1,0,0,0-.54.13,1,1,0,0,0-.37.39Zm.67.61h-2.51a.93.93,0,0,0,.34.4,1.39,1.39,0,0,0,.67.14,4.06,4.06,0,0,0,.89-.14,1.65,1.65,0,0,1,.33-.06.29.29,0,0,1,.21.08.29.29,0,0,1,.09.22.23.23,0,0,1-.1.2,1.75,1.75,0,0,1-.59.22,4.46,4.46,0,0,1-.88.09,1.71,1.71,0,0,1-1.19-.4,1.42,1.42,0,0,1-.43-1,1.34,1.34,0,0,1,.47-1.06,1.66,1.66,0,0,1,1.1-.4,1.75,1.75,0,0,1,.7.13,1.59,1.59,0,0,1,.46.28,1.73,1.73,0,0,1,.35.56,1.38,1.38,0,0,1,.09.52Zm-5.36-1v1.23a.34.34,0,0,0,.09.27.76.76,0,0,0,.44.09,1.92,1.92,0,0,0,.87-.2.56.56,0,0,1,.24-.07.31.31,0,0,1,.3.3.3.3,0,0,1-.09.21,1.68,1.68,0,0,1-.59.25,2.82,2.82,0,0,1-.73.12,1.29,1.29,0,0,1-.85-.24.78.78,0,0,1-.29-.61v-1.35h-.23a.52.52,0,0,1-.31-.08A.32.32,0,0,1,243,391a.29.29,0,0,1,.09-.22.52.52,0,0,1,.31-.08h.23v-.55a.51.51,0,0,1,.08-.32.29.29,0,0,1,.23-.1.27.27,0,0,1,.22.1.51.51,0,0,1,.08.32v.55h1.14a.5.5,0,0,1,.31.08.31.31,0,0,1,.1.23.3.3,0,0,1-.1.22.5.5,0,0,1-.31.08Zm-3,1a4.36,4.36,0,0,0-.68-.07,1.18,1.18,0,0,0-.65.18.31.31,0,0,0-.16.24.17.17,0,0,0,.08.15.8.8,0,0,0,.41.09,1.92,1.92,0,0,0,.5-.08,1.79,1.79,0,0,0,.5-.24Zm0,1.11v-.15a1.92,1.92,0,0,1-.51.18,2,2,0,0,1-.51.07,1.19,1.19,0,0,1-.8-.26.77.77,0,0,1-.31-.59.89.89,0,0,1,.4-.7,1.57,1.57,0,0,1,1.08-.34,4.12,4.12,0,0,1,.65.06v-.15a.26.26,0,0,0-.12-.22.8.8,0,0,0-.45-.09,3.21,3.21,0,0,0-.71.1.68.68,0,0,1-.25.05.28.28,0,0,1-.2-.08.34.34,0,0,1-.09-.24.28.28,0,0,1,0-.13.24.24,0,0,1,.08-.09l.23-.08a3.43,3.43,0,0,1,.46-.11l.43,0a1.36,1.36,0,0,1,.88.25.79.79,0,0,1,.32.67v1.27H242a.44.44,0,0,1,.31.08.29.29,0,0,1,.09.22.28.28,0,0,1-.09.22.44.44,0,0,1-.31.09Zm-4.23-.75.66-1.36a1,1,0,0,1-.31,0,.34.34,0,0,1-.14-.28.33.33,0,0,1,.08-.22.55.55,0,0,1,.33-.08h.83a.46.46,0,0,1,.31.08.28.28,0,0,1,.1.23.27.27,0,0,1-.1.22.46.46,0,0,1-.31.08h-.09l-1,2.11h-.65l-1-2.11h-.09a.5.5,0,0,1-.31-.08.29.29,0,0,1-.1-.23.27.27,0,0,1,.1-.22.5.5,0,0,1,.31-.08h.82a.48.48,0,0,1,.31.08.3.3,0,0,1,0,.48.74.74,0,0,1-.33.05Zm-3.37-2v2.11h.74a.44.44,0,0,1,.31.08.3.3,0,0,1,.1.22.29.29,0,0,1-.1.22.44.44,0,0,1-.31.09h-2.09a.47.47,0,0,1-.32-.09.28.28,0,0,1-.09-.22.29.29,0,0,1,.09-.22.47.47,0,0,1,.32-.08h.74v-1.5h-.49a.55.55,0,0,1-.33-.08.32.32,0,0,1-.09-.23.29.29,0,0,1,.09-.22.55.55,0,0,1,.33-.08Zm-.09-1.16v.65h-.73v-.65Zm-4,1.16v.38a4.48,4.48,0,0,1,.61-.37,1.14,1.14,0,0,1,.42-.09.87.87,0,0,1,.57.22.4.4,0,0,1,.19.3.32.32,0,0,1-.09.23.29.29,0,0,1-.22.08.36.36,0,0,1-.23-.1.37.37,0,0,0-.22-.12.81.81,0,0,0-.4.17,7.12,7.12,0,0,0-.63.47v.94h.87a.44.44,0,0,1,.32.08.29.29,0,0,1,.09.22.28.28,0,0,1-.09.22.44.44,0,0,1-.32.09h-1.85a.44.44,0,0,1-.31-.09.26.26,0,0,1-.1-.22.27.27,0,0,1,.1-.22.44.44,0,0,1,.31-.08H229v-1.5h-.23a.5.5,0,0,1-.31-.08.32.32,0,0,1-.09-.23.29.29,0,0,1,.09-.22.5.5,0,0,1,.31-.08Zm-3.9.86h.57a1,1,0,0,0,.62-.18.55.55,0,0,0,.24-.44.46.46,0,0,0-.19-.37.78.78,0,0,0-.54-.17h-.7Zm0,.61v.64h.62a.44.44,0,0,1,.31.08.3.3,0,0,1,.1.22.29.29,0,0,1-.1.22.44.44,0,0,1-.31.09H225a.45.45,0,0,1-.32-.09.28.28,0,0,1-.09-.22.3.3,0,0,1,.1-.22.44.44,0,0,1,.31-.08h.1v-2.41H225a.51.51,0,0,1-.32-.08.3.3,0,0,1-.09-.23.29.29,0,0,1,.09-.22.51.51,0,0,1,.32-.08h1.41a1.39,1.39,0,0,1,1,.35,1.07,1.07,0,0,1,.37.81,1,1,0,0,1-.14.52.9.9,0,0,1-.31.35,1.86,1.86,0,0,1-.44.27,1.82,1.82,0,0,1-.59.08Z" transform="translate(-179.32 -142)"/>
    <text class="cls-24" transform="translate(44.95 258.96)">098dfe2e4d1ca96d<tspan x="0" y="7.44">a810e7de1dbbf945</tspan><tspan x="0" y="14.87">e5b529650b8cae2a</tspan><tspan x="0" y="22.31">59d045c98c8c96c9</tspan></text>
  </g>
</svg>
