<svg xmlns="http://www.w3.org/2000/svg" width="249.6" height="65.03" viewBox="0 0 249.6 65.03">
  <defs>
    <style>
      .cls-1 {
        fill: #e5e5e5;
      }

      .cls-1, .cls-12, .cls-3 {
        stroke: #000;
      }

      .cls-1, .cls-3, .cls-5 {
        stroke-linejoin: round;
      }

      .cls-1, .cls-3 {
        stroke-width: 0.5px;
      }

      .cls-2 {
        font-size: 7px;
      }

      .cls-2, .cls-4 {
        font-family: ArialMT, Arial;
      }

      .cls-3 {
        fill: #fff;
      }

      .cls-4, .cls-6, .cls-9 {
        font-size: 9px;
      }

      .cls-12, .cls-5 {
        fill: none;
      }

      .cls-5 {
        stroke: #fff;
        stroke-width: 0.75px;
      }

      .cls-6, .cls-9 {
        font-family: Humanist521BT-BoldCondensed, Humanst521 Cn BT;
        font-weight: 700;
      }

      .cls-6 {
        letter-spacing: -0.07em;
      }

      .cls-7 {
        letter-spacing: 0em;
      }

      .cls-8 {
        font-size: 8.5px;
        font-family: Arial-BoldMT, Arial;
        letter-spacing: -0.05em;
      }

      .cls-10 {
        letter-spacing: 0.06em;
      }

      .cls-11 {
        letter-spacing: -0.1em;
      }

      .cls-12 {
        stroke-miterlimit: 10;
        stroke-width: 0.3px;
      }
    </style>
  </defs>
  <g id="Layer_2" data-name="Layer 2">
    <rect class="cls-1" x="0.25" y="0.25" width="44.17" height="12.29"/>
    <rect class="cls-1" x="44.42" y="0.25" width="44.17" height="12.29"/>
    <rect class="cls-1" x="88.58" y="0.25" width="44.17" height="12.29"/>
    <text class="cls-2" transform="translate(14.17 8.62)">From</text>
    <rect class="cls-3" x="0.25" y="12.54" width="44.17" height="12.29"/>
    <text class="cls-4" transform="translate(5.01 20.91)">...</text>
    <rect class="cls-3" x="0.25" y="24.83" width="44.17" height="12.29"/>
    <text class="cls-2" transform="translate(5.01 33.2)">Company</text>
    <rect class="cls-3" x="0.25" y="37.12" width="44.17" height="12.29"/>
    <text class="cls-2" transform="translate(5.01 45.49)">John</text>
    <rect class="cls-3" x="44.42" y="12.54" width="44.17" height="12.29"/>
    <text class="cls-4" transform="translate(49.17 20.91)">...</text>
    <rect class="cls-3" x="44.42" y="24.83" width="44.17" height="12.29"/>
    <text class="cls-2" transform="translate(49.17 33.2)">John</text>
    <rect class="cls-3" x="44.42" y="37.12" width="44.17" height="12.29"/>
    <text class="cls-2" transform="translate(49.17 45.49)">Cafe</text>
    <rect class="cls-3" x="88.58" y="12.54" width="44.17" height="12.29"/>
    <text class="cls-4" transform="translate(118.5 20.91)">...</text>
    <rect class="cls-3" x="88.58" y="24.83" width="44.17" height="12.29"/>
    <text class="cls-2" transform="translate(114.33 33.2)">100</text>
    <rect class="cls-3" x="88.58" y="37.12" width="44.17" height="12.29"/>
    <text class="cls-2" transform="translate(118.22 45.49)">10</text>
    <text class="cls-2" transform="translate(62.42 8.62)">To</text>
    <text class="cls-2" transform="translate(92.97 8.62)">Amount CT</text>
    <rect class="cls-3" x="0.25" y="49.41" width="44.17" height="12.29"/>
    <text class="cls-2" transform="translate(5.01 57.77)">John</text>
    <rect class="cls-3" x="44.42" y="49.41" width="44.17" height="12.29"/>
    <text class="cls-2" transform="translate(49.17 57.77)">Melissa</text>
    <rect class="cls-3" x="88.58" y="49.41" width="44.17" height="12.29"/>
    <text class="cls-2" transform="translate(118.22 57.77)">90</text>
    <polyline class="cls-5" points="0.9 12.11 0.9 0.92 43.88 0.92"/>
    <polyline class="cls-5" points="45.07 12.11 45.07 0.92 88.04 0.92"/>
    <polyline class="cls-5" points="89.24 12.11 89.24 0.92 132.21 0.92"/>
    <text class="cls-6" transform="translate(159.98 18.42)">T<tspan class="cls-7" x="3.44" y="0">otal balance </tspan><tspan class="cls-8" x="48.42" y="0">1</tspan><tspan class="cls-7" x="52.72" y="0">00 CT</tspan></text>
    <text class="cls-9" transform="translate(159.94 32.6)">This was yesterda<tspan class="cls-10" x="62.18" y="0">y</tspan><tspan x="66.45" y="0">’s</tspan><tspan x="0" y="9.5">cookie. Balance is 90 C</tspan><tspan class="cls-11" x="80.25" y="9.5">T</tspan><tspan x="83.4" y="9.5">.</tspan></text>
    <g>
      <path d="M332.15,202.62,330,196.37h1.4l1.09,3.5,1.26-3.5h1l1.22,3.47,1.14-3.47h1.34l-2.18,6.25h-.57l-1.45-4.21-1.47,4.21Z" transform="translate(-170.25 -147.09)"/>
      <path d="M338.7,202.51v-6.14h1.22v2.5a1.72,1.72,0,0,1,.55-.46,1.36,1.36,0,0,1,.65-.15,1.05,1.05,0,0,1,.89.42,2,2,0,0,1,.31,1.2v2.63h-1.21v-2.45a1.46,1.46,0,0,0-.11-.65.4.4,0,0,0-.38-.19.53.53,0,0,0-.37.15,1.59,1.59,0,0,0-.33.49v2.65Z" transform="translate(-170.25 -147.09)"/>
      <path d="M345.12,202.07a3.28,3.28,0,0,1-.58.42,1.34,1.34,0,0,1-.55.13,1,1,0,0,1-.75-.3,1,1,0,0,1-.29-.76,1.22,1.22,0,0,1,.48-1,5.22,5.22,0,0,1,1.62-.76v-.34a.3.3,0,0,0-.1-.25.57.57,0,0,0-.33-.08,1.79,1.79,0,0,0-.71.16,2.5,2.5,0,0,0-.68.45v-.95a3,3,0,0,1,.78-.43,2.41,2.41,0,0,1,.85-.14,1.52,1.52,0,0,1,1.07.31,1.4,1.4,0,0,1,.33,1v1.82a.19.19,0,0,0,0,.12s0,0,.08,0a.27.27,0,0,0,.13,0l.2-.1v.78a3.55,3.55,0,0,1-.53.31,1.26,1.26,0,0,1-.43.1.59.59,0,0,1-.4-.14A.77.77,0,0,1,345.12,202.07Zm-.07-.61v-1a2.1,2.1,0,0,0-.71.36.59.59,0,0,0-.23.45.44.44,0,0,0,.1.32.38.38,0,0,0,.28.1.74.74,0,0,0,.28-.06A1.4,1.4,0,0,0,345.05,201.46Z" transform="translate(-170.25 -147.09)"/>
      <path d="M348.36,197.06h.2v1.29h1.1v.77h-1.1V201a.69.69,0,0,0,.11.43.4.4,0,0,0,.34.13,1,1,0,0,0,.26,0c.1,0,.25-.1.43-.19v.94a2.72,2.72,0,0,1-.58.27,2.25,2.25,0,0,1-.58.08,1.16,1.16,0,0,1-.9-.33,1.57,1.57,0,0,1-.29-1v-2.12h-.56V199Z" transform="translate(-170.25 -147.09)"/>
      <path d="M351.08,200.7a2.6,2.6,0,0,1-.28-.55,1.43,1.43,0,0,1,0-1c.06-.18.16-.42.29-.71l.05-.11a1.19,1.19,0,0,0,.15-.51.63.63,0,0,0-.14-.44.6.6,0,0,0-.43-.14,1.12,1.12,0,0,0-.31,0,1.1,1.1,0,0,0-.32.17l.28-1.09a1.59,1.59,0,0,1,.35-.08,2.07,2.07,0,0,1,.35,0,1.7,1.7,0,0,1,1.18.39,1.39,1.39,0,0,1,.42,1.07,1.75,1.75,0,0,1-.08.55,1.91,1.91,0,0,1-.25.52,4.35,4.35,0,0,1-.39.5c-.16.19-.26.31-.29.36a1.83,1.83,0,0,0-.2.43,1.14,1.14,0,0,0-.07.41v.08s0,.08,0,.13Zm-.57,1.18a.71.71,0,0,1,.22-.53.7.7,0,0,1,.52-.21.72.72,0,0,1,.73.74.7.7,0,0,1-.22.52.71.71,0,0,1-1,0A.7.7,0,0,1,350.51,201.88Z" transform="translate(-170.25 -147.09)"/>
      <path d="M355.11,203.19l.18,0h.11a.5.5,0,0,0,.44-.2,1.39,1.39,0,0,0,.13-.69v-6h1.37v6A2.77,2.77,0,0,1,357,204a1.33,1.33,0,0,1-1.17.51l-.28,0a1.56,1.56,0,0,1-.32-.07Z" transform="translate(-170.25 -147.09)"/>
      <path d="M358.14,200.44a2.3,2.3,0,0,1,.52-1.6,2,2,0,0,1,2.84,0,2.3,2.3,0,0,1,.53,1.6,2.27,2.27,0,0,1-.53,1.58,2.05,2.05,0,0,1-2.84,0A2.26,2.26,0,0,1,358.14,200.44Zm1.25,0a2.05,2.05,0,0,0,.17.93.57.57,0,0,0,.52.32.56.56,0,0,0,.52-.32,2.52,2.52,0,0,0,0-1.87.57.57,0,0,0-1,0A2.1,2.1,0,0,0,359.39,200.44Z" transform="translate(-170.25 -147.09)"/>
      <path d="M362.71,202.51v-6.14h1.22v2.5a1.72,1.72,0,0,1,.55-.46,1.36,1.36,0,0,1,.65-.15,1,1,0,0,1,.89.42,2,2,0,0,1,.31,1.2v2.63h-1.21v-2.45a1.46,1.46,0,0,0-.11-.65.4.4,0,0,0-.38-.19.53.53,0,0,0-.37.15,1.59,1.59,0,0,0-.33.49v2.65Z" transform="translate(-170.25 -147.09)"/>
      <path d="M367.2,202.51v-4.16h1.2l0,.52a1.62,1.62,0,0,1,.54-.46,1.38,1.38,0,0,1,.65-.15,1,1,0,0,1,.89.42,1.93,1.93,0,0,1,.31,1.2v2.63h-1.22v-2.45a1.28,1.28,0,0,0-.11-.65.37.37,0,0,0-.36-.19.55.55,0,0,0-.38.15,1.39,1.39,0,0,0-.33.49v2.65Z" transform="translate(-170.25 -147.09)"/>
      <path d="M376.4,202.14a1.37,1.37,0,0,1-.45.35,1.51,1.51,0,0,1-.56.11,1.42,1.42,0,0,1-1.17-.6,2.53,2.53,0,0,1-.45-1.56,2.64,2.64,0,0,1,.44-1.56,1.31,1.31,0,0,1,1.1-.62,1.56,1.56,0,0,1,.57.1,1.67,1.67,0,0,1,.5.33v-2.32h1.21v6.14h-1.16Zm0-.79v-1.8a1.1,1.1,0,0,0-.3-.21.67.67,0,0,0-.31-.07.62.62,0,0,0-.55.31,1.65,1.65,0,0,0-.2.87,1.6,1.6,0,0,0,.2.87.63.63,0,0,0,.57.31.67.67,0,0,0,.31-.07A.85.85,0,0,0,376.38,201.35Z" transform="translate(-170.25 -147.09)"/>
      <path d="M378.4,197a.67.67,0,0,1,.21-.5.66.66,0,0,1,.5-.21.72.72,0,0,1,.5.2.69.69,0,0,1,.2.51.64.64,0,0,1-.2.49.69.69,0,0,1-.5.21.67.67,0,0,1-.5-.21A.65.65,0,0,1,378.4,197Zm.1,5.51v-4.16h1.22v4.16Z" transform="translate(-170.25 -147.09)"/>
      <path d="M383,202.14a1.31,1.31,0,0,1-.46.35,1.44,1.44,0,0,1-1.72-.49,2.53,2.53,0,0,1-.45-1.56,2.64,2.64,0,0,1,.44-1.56,1.3,1.3,0,0,1,1.1-.62,1.47,1.47,0,0,1,.56.1,1.59,1.59,0,0,1,.51.33v-2.32h1.21v6.14h-1.16Zm0-.79v-1.8a1.1,1.1,0,0,0-.3-.21.67.67,0,0,0-.31-.07.62.62,0,0,0-.55.31,1.65,1.65,0,0,0-.2.87,1.6,1.6,0,0,0,.2.87.62.62,0,0,0,.56.31.68.68,0,0,0,.32-.07A.85.85,0,0,0,383,201.35Z" transform="translate(-170.25 -147.09)"/>
      <path d="M387.53,202.51v-6.14h1.28l1.67,3.35v-3.35h1.28v6.14h-1.18L388.82,199v3.51Z" transform="translate(-170.25 -147.09)"/>
      <path d="M392.51,199.45a3.79,3.79,0,0,1,.65-2.31,2.1,2.1,0,0,1,3.4,0,4.51,4.51,0,0,1,0,4.63,2,2,0,0,1-1.7.86,2,2,0,0,1-1.7-.87A3.78,3.78,0,0,1,392.51,199.45Zm1.42,0a3.46,3.46,0,0,0,.25,1.48.71.71,0,0,0,1.37,0,3.61,3.61,0,0,0,.24-1.48,3.65,3.65,0,0,0-.24-1.5.72.72,0,0,0-1.38,0A3.72,3.72,0,0,0,393.93,199.45Z" transform="translate(-170.25 -147.09)"/>
      <path d="M398.83,202.51v-5h-1.25v-1.1h3.89v1.1h-1.26v5Z" transform="translate(-170.25 -147.09)"/>
      <path d="M404.2,202.25v-1a2.83,2.83,0,0,0,.69.33,1.75,1.75,0,0,0,.58.11.53.53,0,0,0,.32-.09.26.26,0,0,0,.12-.24.28.28,0,0,0-.08-.2.93.93,0,0,0-.32-.2,3.27,3.27,0,0,1-1.12-.69,1.14,1.14,0,0,1-.23-.73,1.22,1.22,0,0,1,.39-.92,1.45,1.45,0,0,1,1-.36,2.53,2.53,0,0,1,.67.1,3.11,3.11,0,0,1,.66.28v.89a3.84,3.84,0,0,0-.68-.33,1.78,1.78,0,0,0-.6-.11.69.69,0,0,0-.33.06.25.25,0,0,0-.11.21c0,.16.17.3.51.44l.28.12a2.34,2.34,0,0,1,.85.58,1.11,1.11,0,0,1,.24.73,1.25,1.25,0,0,1-.42,1,1.71,1.71,0,0,1-1.17.35,2.55,2.55,0,0,1-.61-.08A3.83,3.83,0,0,1,404.2,202.25Z" transform="translate(-170.25 -147.09)"/>
      <path d="M410.92,201.41v.8a3.62,3.62,0,0,1-.72.29,2.69,2.69,0,0,1-.67.09,1.89,1.89,0,0,1-1.44-.54,2.22,2.22,0,0,1-.5-1.55,2.48,2.48,0,0,1,.49-1.63,1.66,1.66,0,0,1,1.34-.61,1.44,1.44,0,0,1,1.19.56,2.48,2.48,0,0,1,.44,1.55s0,.06,0,.11v.11h-2.17v0a1.12,1.12,0,0,0,.25.79,1,1,0,0,0,.73.28,2,2,0,0,0,.47-.07A4,4,0,0,0,410.92,201.41ZM408.87,200h1V200a1.43,1.43,0,0,0-.12-.67.43.43,0,0,0-.39-.22.43.43,0,0,0-.38.21,1.36,1.36,0,0,0-.12.63Z" transform="translate(-170.25 -147.09)"/>
      <path d="M411.76,202.51v-4.16H413l0,.52a1.75,1.75,0,0,1,.55-.46,1.33,1.33,0,0,1,.65-.15,1.05,1.05,0,0,1,.89.42,2,2,0,0,1,.31,1.2v2.63h-1.22v-2.45a1.4,1.4,0,0,0-.11-.65.4.4,0,0,0-.37-.19.57.57,0,0,0-.38.15,1.72,1.72,0,0,0-.33.49v2.65Z" transform="translate(-170.25 -147.09)"/>
      <path d="M418.67,202.14a1.52,1.52,0,0,1-.46.35,1.47,1.47,0,0,1-.56.11,1.42,1.42,0,0,1-1.17-.6,2.53,2.53,0,0,1-.45-1.56,2.57,2.57,0,0,1,.45-1.56,1.29,1.29,0,0,1,1.09-.62,1.56,1.56,0,0,1,.57.1,1.67,1.67,0,0,1,.5.33v-2.32h1.21v6.14h-1.16Zm0-.79v-1.8a1.1,1.1,0,0,0-.3-.21.67.67,0,0,0-.31-.07.63.63,0,0,0-.55.31,1.65,1.65,0,0,0-.2.87,1.6,1.6,0,0,0,.2.87.64.64,0,0,0,.57.31.67.67,0,0,0,.31-.07A.76.76,0,0,0,418.64,201.35Z" transform="translate(-170.25 -147.09)"/>
      <path d="M332.42,209.78l-.19,0h-.15a1.53,1.53,0,0,1-1.19-.53,2,2,0,0,1-.47-1.38,2.2,2.2,0,0,1,.55-1.54,1.84,1.84,0,0,1,1.42-.6,1.77,1.77,0,0,1,1.4.6,2.24,2.24,0,0,1,.53,1.58,7.52,7.52,0,0,1-1.39,3.4l0,.06-.44.72h-1.37Zm.59-1.93a1.27,1.27,0,0,0-.17-.72.6.6,0,0,0-1,0,1.33,1.33,0,0,0-.17.73,1.3,1.3,0,0,0,.17.72.53.53,0,0,0,.48.25.55.55,0,0,0,.49-.25A1.3,1.3,0,0,0,333,207.85Z" transform="translate(-170.25 -147.09)"/>
      <path d="M334.92,209a4.21,4.21,0,0,1,.55-2.32,1.71,1.71,0,0,1,3,0,5.19,5.19,0,0,1,0,4.65,1.71,1.71,0,0,1-3,0A4.26,4.26,0,0,1,334.92,209Zm1.28,0a4.48,4.48,0,0,0,.19,1.53c.12.33.31.5.56.5s.44-.17.56-.5a4.8,4.8,0,0,0,.18-1.53,4.9,4.9,0,0,0-.18-1.55c-.12-.33-.31-.5-.56-.5s-.44.17-.56.5A4.61,4.61,0,0,0,336.2,209Z" transform="translate(-170.25 -147.09)"/>
      <path d="M345.67,211.68a2.42,2.42,0,0,1-.63.34,2.26,2.26,0,0,1-.71.1,2.17,2.17,0,0,1-1.8-.85,3.53,3.53,0,0,1-.68-2.27,3.78,3.78,0,0,1,.68-2.36,2.15,2.15,0,0,1,1.8-.88,3,3,0,0,1,.68.08,2.62,2.62,0,0,1,.64.24v1.14a3.68,3.68,0,0,0-.55-.24,1.43,1.43,0,0,0-.46-.09,1.15,1.15,0,0,0-1,.54,2.84,2.84,0,0,0-.35,1.53,2.68,2.68,0,0,0,.32,1.43,1,1,0,0,0,.92.5,1.31,1.31,0,0,0,.5-.1,3.58,3.58,0,0,0,.65-.35Z" transform="translate(-170.25 -147.09)"/>
      <path d="M347.33,212v-5h-1.25v-1.1H350V207h-1.26v5Z" transform="translate(-170.25 -147.09)"/>
      <path d="M353.93,206.56h.19v1.29h1.1v.77h-1.1v1.86a.69.69,0,0,0,.11.43.42.42,0,0,0,.35.13,1.05,1.05,0,0,0,.26,0l.42-.19v.94a2.52,2.52,0,0,1-.58.27,2.18,2.18,0,0,1-.57.08,1.16,1.16,0,0,1-.9-.33,1.51,1.51,0,0,1-.3-1v-2.12h-.56v-.17Z" transform="translate(-170.25 -147.09)"/>
      <path d="M355.57,209.94a2.3,2.3,0,0,1,.53-1.6,2,2,0,0,1,2.84,0,2.3,2.3,0,0,1,.52,1.6,2.26,2.26,0,0,1-.52,1.58,1.83,1.83,0,0,1-1.42.57,1.85,1.85,0,0,1-1.43-.57A2.31,2.31,0,0,1,355.57,209.94Zm1.26,0a1.93,1.93,0,0,0,.17.93.58.58,0,0,0,1,0,2.52,2.52,0,0,0,0-1.87.57.57,0,0,0-1,0A2,2,0,0,0,356.83,209.94Z" transform="translate(-170.25 -147.09)"/>
      <path d="M362.54,212v-6.14h1.28l1.32,2.47,1.33-2.47h1.28V212h-1.33v-3.85l-1.17,2.23H365l-1.14-2.17V212Z" transform="translate(-170.25 -147.09)"/>
      <path d="M371.86,210.91v.8a4.17,4.17,0,0,1-.72.29,2.71,2.71,0,0,1-.68.09,1.86,1.86,0,0,1-1.43-.54,2.18,2.18,0,0,1-.51-1.55,2.48,2.48,0,0,1,.5-1.63,1.64,1.64,0,0,1,1.33-.61,1.44,1.44,0,0,1,1.2.56,2.48,2.48,0,0,1,.43,1.55V210s0,.08,0,.11H369.8v0a1.12,1.12,0,0,0,.26.79,1,1,0,0,0,.72.28,2.06,2.06,0,0,0,.48-.07A4.4,4.4,0,0,0,371.86,210.91Zm-2.06-1.41h1v-.05a1.3,1.3,0,0,0-.13-.67.4.4,0,0,0-.38-.22.42.42,0,0,0-.38.21,1.35,1.35,0,0,0-.13.63Z" transform="translate(-170.25 -147.09)"/>
      <path d="M372.72,212v-6.14h1.22V212Z" transform="translate(-170.25 -147.09)"/>
      <path d="M374.77,206.5a.72.72,0,0,1,.71-.71.72.72,0,0,1,.5.2.69.69,0,0,1,.21.51.65.65,0,0,1-.21.49.69.69,0,0,1-.5.21.67.67,0,0,1-.5-.21A.65.65,0,0,1,374.77,206.5Zm.1,5.51v-4.16h1.22V212Z" transform="translate(-170.25 -147.09)"/>
      <path d="M376.9,211.75v-1a2.79,2.79,0,0,0,.68.33,1.75,1.75,0,0,0,.58.11.53.53,0,0,0,.32-.09.26.26,0,0,0,.12-.24.28.28,0,0,0-.08-.2.83.83,0,0,0-.32-.2,3.38,3.38,0,0,1-1.12-.69,1.14,1.14,0,0,1-.23-.73,1.19,1.19,0,0,1,.4-.92,1.41,1.41,0,0,1,1-.36,2.53,2.53,0,0,1,.67.1,3,3,0,0,1,.67.28V209a3.92,3.92,0,0,0-.69-.33,1.74,1.74,0,0,0-.6-.11.65.65,0,0,0-.32.06.23.23,0,0,0-.11.21c0,.16.17.3.51.44l.27.12a2.34,2.34,0,0,1,.85.58,1.11,1.11,0,0,1,.24.73,1.27,1.27,0,0,1-.41,1,1.75,1.75,0,0,1-1.18.35,2.62,2.62,0,0,1-.61-.08A3.74,3.74,0,0,1,376.9,211.75Z" transform="translate(-170.25 -147.09)"/>
      <path d="M380.4,211.75v-1a2.79,2.79,0,0,0,.68.33,1.75,1.75,0,0,0,.58.11.49.49,0,0,0,.32-.09.26.26,0,0,0,.12-.24.28.28,0,0,0-.08-.2.83.83,0,0,0-.32-.2,3.5,3.5,0,0,1-1.12-.69,1.14,1.14,0,0,1-.23-.73,1.23,1.23,0,0,1,.4-.92,1.44,1.44,0,0,1,1-.36,2.59,2.59,0,0,1,.67.1,3.11,3.11,0,0,1,.66.28V209a3.61,3.61,0,0,0-.69-.33,1.74,1.74,0,0,0-.6-.11.67.67,0,0,0-.32.06.25.25,0,0,0-.11.21c0,.16.17.3.51.44l.27.12a2.26,2.26,0,0,1,.85.58,1.11,1.11,0,0,1,.24.73,1.27,1.27,0,0,1-.41,1,1.75,1.75,0,0,1-1.18.35A2.62,2.62,0,0,1,381,212,3.74,3.74,0,0,1,380.4,211.75Z" transform="translate(-170.25 -147.09)"/>
      <path d="M385.93,211.57a3,3,0,0,1-.58.42,1.34,1.34,0,0,1-.55.13,1,1,0,0,1-.75-.3,1,1,0,0,1-.29-.76,1.22,1.22,0,0,1,.48-1,5.34,5.34,0,0,1,1.62-.76V209a.3.3,0,0,0-.1-.25.57.57,0,0,0-.33-.08,1.79,1.79,0,0,0-.71.16,2.32,2.32,0,0,0-.67.45v-.95a2.74,2.74,0,0,1,.78-.43,2.35,2.35,0,0,1,.84-.14,1.5,1.5,0,0,1,1.07.31,1.4,1.4,0,0,1,.33,1v1.82a.19.19,0,0,0,0,.12s0,0,.08,0a.24.24,0,0,0,.13,0l.2-.1v.78a3.55,3.55,0,0,1-.53.31,1.21,1.21,0,0,1-.42.1.6.6,0,0,1-.41-.14A.77.77,0,0,1,385.93,211.57Zm-.07-.61v-1a2.21,2.21,0,0,0-.71.36.59.59,0,0,0-.23.45.49.49,0,0,0,.1.32.38.38,0,0,0,.28.1.74.74,0,0,0,.28-.06A1.4,1.4,0,0,0,385.86,211Z" transform="translate(-170.25 -147.09)"/>
      <path d="M388.11,211.38a.67.67,0,0,1,.22-.52.69.69,0,0,1,.52-.22.72.72,0,0,1,.74.74.7.7,0,0,1-.22.52.69.69,0,0,1-.52.22.75.75,0,0,1-.74-.74Zm.56-1.19a16.61,16.61,0,0,1-.4-1.87,11.82,11.82,0,0,1-.13-1.57,1.21,1.21,0,0,1,.18-.73.7.7,0,0,1,1.06,0,1.27,1.27,0,0,1,.17.74,10.35,10.35,0,0,1-.13,1.57,19,19,0,0,1-.39,1.87Z" transform="translate(-170.25 -147.09)"/>
    </g>
    <g>
      <path class="cls-12" d="M307.44,202.68c7.64,0,13.3-3.06,20.91-3.06" transform="translate(-170.25 -147.09)"/>
      <polygon points="137.74 57.45 134.5 55.58 137.74 53.71 137.74 57.45"/>
    </g>
    <g>
      <path class="cls-12" d="M308,189.73c8.24-2.47,13-11.54,20-13" transform="translate(-170.25 -147.09)"/>
      <polygon points="138.81 44.26 135.17 43.4 137.73 40.68 138.81 44.26"/>
    </g>
    <g>
      <path class="cls-12" d="M308,176.33c8.24-2.48,13-11.54,20-13" transform="translate(-170.25 -147.09)"/>
      <polygon points="138.81 30.86 135.17 30 137.73 27.27 138.81 30.86"/>
    </g>
  </g>
</svg>
