<?xml version="1.0" standalone="yes"?>

<svg version="1.1" viewBox="0.0 0.0 659.501312335958 219.0" fill="none" stroke="none" stroke-linecap="square" stroke-miterlimit="10" xmlns="http://www.w3.org/2000/svg" xmlns:xlink="http://www.w3.org/1999/xlink"><clipPath id="p.0"><path d="m0 0l659.50134 0l0 219.0l-659.50134 0l0 -219.0z" clip-rule="nonzero"></path></clipPath><g clip-path="url(#p.0)"><path fill="#000000" fill-opacity="0.0" d="m0 0l659.50134 0l0 219.0l-659.50134 0z" fill-rule="evenodd"></path><path fill="#000000" fill-opacity="0.0" d="m122.07087 115.16535l80.50393 0l0 63.49607l-80.50393 0z" fill-rule="evenodd"></path><path fill="#000000" d="m156.4947 154.88536l0 -1.890625q-2.859375 2.40625 -6.109375 2.40625q-2.359375 0 -3.6875 -1.1875q-1.328125 -1.203125 -1.328125 -2.9375q0 -1.90625 1.75 -3.328125q1.75 -1.421875 5.109375 -1.421875q0.90625 0 1.96875 0.125q1.0625 0.109375 2.296875 0.359375l0 -2.125q0 -1.078125 -1.0 -1.875q-1.0 -0.796875 -3.0 -0.796875q-1.53125 0 -4.296875 0.890625q-0.5 0.15625 -0.640625 0.15625q-0.25 0 -0.4375 -0.1875q-0.171875 -0.1875 -0.171875 -0.46875q0 -0.265625 0.15625 -0.421875q0.21875 -0.234375 1.765625 -0.640625q2.4375 -0.65625 3.6875 -0.65625q2.484375 0 3.875 1.234375q1.390625 1.21875 1.390625 2.765625l0 8.6875l1.75 0q0.484375 0 0.6875 0.1875q0.203125 0.171875 0.203125 0.46875q0 0.28125 -0.203125 0.46875q-0.203125 0.1875 -0.6875 0.1875l-3.078125 0zm0 -6.53125q-0.921875 -0.265625 -1.953125 -0.390625q-1.03125 -0.125 -2.171875 -0.125q-2.859375 0 -4.46875 1.234375q-1.21875 0.921875 -1.21875 2.203125q0 1.1875 0.921875 2.0q0.9375 0.8125 2.71875 0.8125q1.703125 0 3.15625 -0.671875q1.46875 -0.6875 3.015625 -2.171875l0 -2.890625zm18.125 -4.140625q1.8125 0.8125 2.765625 2.234375q0.953125 1.40625 0.953125 2.9375q0 2.359375 -1.921875 4.171875q-1.90625 1.796875 -4.78125 1.796875q-1.6875 0 -3.5 -0.71875q-1.8125 -0.71875 -2.53125 -1.46875q-0.234375 -0.25 -0.234375 -0.53125q0 -0.25 0.171875 -0.4375q0.1875 -0.1875 0.4375 -0.1875q0.25 0 0.5625 0.234375q2.421875 1.796875 5.125 1.796875q2.28125 0 3.8125 -1.421875q1.546875 -1.4375 1.546875 -3.1875q0 -1.171875 -0.765625 -2.296875q-0.75 -1.125 -2.171875 -1.765625q-1.421875 -0.65625 -2.875 -0.65625q-0.46875 0 -0.671875 -0.171875q-0.203125 -0.1875 -0.203125 -0.484375q0 -0.28125 0.1875 -0.46875q0.203125 -0.1875 0.59375 -0.1875l1.125 0.015625q1.765625 0 2.90625 -1.078125q1.15625 -1.078125 1.15625 -2.5q0 -1.46875 -1.203125 -2.59375q-1.203125 -1.125 -3.140625 -1.125q-1.359375 0 -2.5 0.46875q-1.140625 0.46875 -1.828125 1.28125q-0.25 0.3125 -0.390625 0.390625q-0.125 0.0625 -0.296875 0.0625q-0.265625 0 -0.453125 -0.171875q-0.1875 -0.1875 -0.1875 -0.4375q0 -0.625 1.359375 -1.578125q1.890625 -1.328125 4.296875 -1.328125q2.484375 0 4.078125 1.5q1.59375 1.484375 1.59375 3.546875q0 1.3125 -0.765625 2.484375q-0.765625 1.171875 -2.25 1.875z" fill-rule="nonzero"></path><path fill="#000000" d="m155.95247 165.57722l0 6.375l1.546875 0q0.15625 0 0.21875 0.0625q0.078125 0.0625 0.078125 0.171875q0 0.09375 -0.078125 0.15625q-0.0625 0.0625 -0.21875 0.0625l-3.546875 0q-0.171875 0 -0.25 -0.0625q-0.0625 -0.0625 -0.0625 -0.15625q0 -0.109375 0.0625 -0.171875q0.078125 -0.0625 0.25 -0.0625l1.546875 0l0 -5.75l-1.484375 0.453125q-0.09375 0.03125 -0.15625 0.03125q-0.078125 0 -0.140625 -0.0625q-0.0625 -0.0625 -0.0625 -0.15625q0 -0.078125 0.046875 -0.15625q0.046875 -0.046875 0.1875 -0.09375l2.0625 -0.640625zm5.022949 3.96875q0.421875 -0.609375 0.859375 -0.90625q0.453125 -0.296875 0.984375 -0.296875q0.71875 0 1.28125 0.609375q0.5625 0.59375 0.5625 1.46875q0 0.8125 -0.515625 1.484375q-0.5 0.65625 -1.40625 0.65625q-0.578125 0 -1.09375 -0.359375q-0.5 -0.359375 -0.796875 -1.109375q-0.359375 -0.921875 -0.359375 -2.046875q0 -0.859375 0.34375 -1.578125q0.25 -0.5625 0.671875 -0.984375q0.4375 -0.4375 1.015625 -0.703125q0.578125 -0.28125 1.234375 -0.28125q0.453125 0 0.75 0.1875q0.140625 0.078125 0.140625 0.21875q0 0.09375 -0.0625 0.15625q-0.0625 0.0625 -0.15625 0.0625q-0.0625 0 -0.15625 -0.0625q-0.234375 -0.109375 -0.5625 -0.109375q-1.046875 0 -1.90625 0.90625q-0.859375 0.90625 -0.859375 2.140625q0 0.171875 0.03125 0.546875zm0.109375 0.75q0.203125 0.984375 0.640625 1.40625q0.4375 0.40625 1.03125 0.40625q0.59375 0 1.015625 -0.46875q0.4375 -0.46875 0.4375 -1.21875q0 -0.703125 -0.4375 -1.15625q-0.421875 -0.46875 -0.96875 -0.46875q-0.515625 0 -1.0 0.453125q-0.328125 0.28125 -0.71875 1.046875zm8.772949 -1.5625q0.609375 0.28125 0.9375 0.765625q0.328125 0.484375 0.328125 1.015625q0 0.8125 -0.65625 1.4375q-0.65625 0.609375 -1.640625 0.609375q-0.578125 0 -1.203125 -0.234375q-0.625 -0.25 -0.875 -0.515625q-0.078125 -0.078125 -0.078125 -0.1875q0 -0.078125 0.0625 -0.140625q0.0625 -0.0625 0.140625 -0.0625q0.09375 0 0.203125 0.078125q0.828125 0.609375 1.765625 0.609375q0.78125 0 1.296875 -0.484375q0.53125 -0.484375 0.53125 -1.09375q0 -0.40625 -0.265625 -0.78125q-0.25 -0.390625 -0.734375 -0.609375q-0.484375 -0.234375 -0.984375 -0.234375q-0.171875 0 -0.25 -0.0625q-0.0625 -0.0625 -0.0625 -0.15625q0 -0.09375 0.0625 -0.15625q0.078125 -0.078125 0.21875 -0.078125l0.375 0.015625q0.609375 0 1.0 -0.375q0.40625 -0.375 0.40625 -0.859375q0 -0.5 -0.421875 -0.890625q-0.40625 -0.390625 -1.078125 -0.390625q-0.46875 0 -0.859375 0.171875q-0.390625 0.15625 -0.625 0.4375q-0.09375 0.109375 -0.140625 0.140625q-0.03125 0.015625 -0.09375 0.015625q-0.09375 0 -0.15625 -0.0625q-0.0625 -0.0625 -0.0625 -0.15625q0 -0.21875 0.46875 -0.546875q0.640625 -0.453125 1.46875 -0.453125q0.859375 0 1.40625 0.515625q0.546875 0.515625 0.546875 1.21875q0 0.453125 -0.265625 0.859375q-0.265625 0.40625 -0.765625 0.640625z" fill-rule="nonzero"></path><path fill="#000000" fill-opacity="0.0" d="m202.5771 115.16535l80.50392 0l0 63.49607l-80.50392 0z" fill-rule="evenodd"></path><path fill="#000000" d="m228.2822 135.27599l0 8.703125q2.375 -3.09375 5.734375 -3.09375q2.875 0 4.921875 2.09375q2.046875 2.078125 2.046875 5.109375q0 3.0625 -2.078125 5.1875q-2.0625 2.125 -4.890625 2.125q-3.4375 0 -5.734375 -3.09375l0 2.578125l-3.078125 0q-0.46875 0 -0.671875 -0.1875q-0.203125 -0.1875 -0.203125 -0.46875q0 -0.296875 0.203125 -0.46875q0.203125 -0.1875 0.671875 -0.1875l1.765625 0l0 -16.96875l-1.765625 0q-0.46875 0 -0.671875 -0.1875q-0.203125 -0.1875 -0.203125 -0.484375q0 -0.28125 0.203125 -0.46875q0.203125 -0.1875 0.671875 -0.1875l3.078125 0zm11.390625 12.875q0 -2.484375 -1.703125 -4.203125q-1.703125 -1.734375 -3.984375 -1.734375q-2.28125 0 -3.984375 1.734375q-1.703125 1.71875 -1.703125 4.203125q0 2.484375 1.703125 4.21875q1.703125 1.71875 3.984375 1.71875q2.28125 0 3.984375 -1.71875q1.703125 -1.734375 1.703125 -4.21875zm9.140625 -11.546875l0 6.421875q1.15625 -0.484375 2.21875 -0.71875q1.0625 -0.25 2.015625 -0.25q2.46875 0 4.125 1.734375q1.671875 1.734375 1.671875 4.5625q0 3.125 -1.875 5.0625q-1.875 1.9375 -4.6875 1.9375q-1.859375 0 -3.578125 -0.828125q-1.21875 -0.578125 -2.21875 -1.4375q-0.59375 -0.515625 -0.59375 -0.859375q0 -0.28125 0.1875 -0.46875q0.1875 -0.203125 0.4375 -0.203125q0.265625 0 0.5625 0.28125q2.359375 2.203125 5.140625 2.203125q2.296875 0 3.796875 -1.5625q1.5 -1.578125 1.5 -4.1875q0 -2.21875 -1.296875 -3.5625q-1.296875 -1.359375 -3.296875 -1.359375q-2.046875 0 -4.09375 1.078125q-0.5 0.25 -0.703125 0.25q-0.28125 0 -0.453125 -0.1875q-0.171875 -0.1875 -0.171875 -0.53125l0 -8.703125l9.15625 0q0.46875 0 0.671875 0.1875q0.203125 0.1875 0.203125 0.484375q0 0.28125 -0.203125 0.46875q-0.203125 0.1875 -0.671875 0.1875l-7.84375 0z" fill-rule="nonzero"></path><path fill="#000000" d="m236.45871 165.57722l0 6.375l1.546875 0q0.15625 0 0.21875 0.0625q0.078125 0.0625 0.078125 0.171875q0 0.09375 -0.078125 0.15625q-0.0625 0.0625 -0.21875 0.0625l-3.546875 0q-0.171875 0 -0.25 -0.0625q-0.0625 -0.0625 -0.0625 -0.15625q0 -0.109375 0.0625 -0.171875q0.078125 -0.0625 0.25 -0.0625l1.546875 0l0 -5.75l-1.484375 0.453125q-0.09375 0.03125 -0.15625 0.03125q-0.078125 0 -0.140625 -0.0625q-0.0625 -0.0625 -0.0625 -0.15625q0 -0.078125 0.046875 -0.15625q0.046875 -0.046875 0.1875 -0.09375l2.0625 -0.640625zm7.304199 3.328125q0.5625 0.28125 0.84375 0.734375q0.28125 0.4375 0.28125 0.953125q0 0.796875 -0.609375 1.390625q-0.59375 0.578125 -1.453125 0.578125q-0.859375 0 -1.46875 -0.578125q-0.59375 -0.59375 -0.59375 -1.390625q0 -0.515625 0.28125 -0.953125q0.296875 -0.453125 0.875 -0.734375q-0.5 -0.28125 -0.71875 -0.59375q-0.3125 -0.421875 -0.3125 -0.953125q0 -0.75 0.5625 -1.296875q0.578125 -0.5625 1.375 -0.5625q0.8125 0 1.375 0.5625q0.578125 0.546875 0.578125 1.296875q0 0.53125 -0.3125 0.953125q-0.21875 0.3125 -0.703125 0.59375zm0.5625 -1.53125q0 -0.578125 -0.4375 -1.0q-0.4375 -0.421875 -1.0625 -0.421875q-0.625 0 -1.0625 0.421875q-0.421875 0.421875 -0.421875 1.0q0 0.515625 0.421875 0.921875q0.4375 0.390625 1.0625 0.390625q0.640625 0 1.0625 -0.390625q0.4375 -0.40625 0.4375 -0.921875zm0.125 3.234375q0 -0.59375 -0.46875 -1.03125q-0.46875 -0.453125 -1.15625 -0.453125q-0.6875 0 -1.15625 0.453125q-0.453125 0.4375 -0.453125 1.015625q0 0.625 0.46875 1.078125q0.46875 0.4375 1.140625 0.4375q0.6875 0 1.15625 -0.4375q0.46875 -0.453125 0.46875 -1.0625zm5.210449 -5.03125l0 6.375l1.546875 0q0.15625 0 0.21875 0.0625q0.078125 0.0625 0.078125 0.171875q0 0.09375 -0.078125 0.15625q-0.0625 0.0625 -0.21875 0.0625l-3.546875 0q-0.171875 0 -0.25 -0.0625q-0.0625 -0.0625 -0.0625 -0.15625q0 -0.109375 0.0625 -0.171875q0.078125 -0.0625 0.25 -0.0625l1.546875 0l0 -5.75l-1.484375 0.453125q-0.09375 0.03125 -0.15625 0.03125q-0.078125 0 -0.140625 -0.0625q-0.0625 -0.0625 -0.0625 -0.15625q0 -0.078125 0.046875 -0.15625q0.046875 -0.046875 0.1875 -0.09375l2.0625 -0.640625z" fill-rule="nonzero"></path><path fill="#000000" fill-opacity="0.0" d="m283.07285 115.16535l80.50394 0l0 63.49607l-80.50394 0z" fill-rule="evenodd"></path><path fill="#000000" d="m308.0748 153.57286l10.078125 0l0 -0.515625q0 -0.46875 0.1875 -0.671875q0.1875 -0.203125 0.484375 -0.203125q0.28125 0 0.46875 0.203125q0.1875 0.203125 0.1875 0.671875l0 1.828125l-12.6875 0l0 -1.9375q4.0 -3.59375 7.78125 -7.3125q1.765625 -1.734375 2.421875 -2.546875q0.65625 -0.8125 0.890625 -1.421875q0.25 -0.625 0.25 -1.25q0 -1.6875 -1.359375 -2.984375q-1.359375 -1.296875 -3.28125 -1.296875q-1.71875 0 -3.046875 0.984375q-1.328125 0.984375 -1.71875 2.4375q-0.09375 0.375 -0.234375 0.484375q-0.1875 0.15625 -0.4375 0.15625q-0.265625 0 -0.453125 -0.171875q-0.171875 -0.1875 -0.171875 -0.4375q0 -0.75 0.8125 -2.03125q0.828125 -1.28125 2.265625 -2.015625q1.453125 -0.734375 2.96875 -0.734375q2.453125 0 4.21875 1.703125q1.765625 1.703125 1.765625 3.859375q0 0.90625 -0.296875 1.671875q-0.296875 0.75 -1.015625 1.65625q-0.703125 0.890625 -2.546875 2.703125q-4.625 4.5625 -7.53125 7.078125l0 0.09375zm30.875 -10.109375l0 3.25q0 4.234375 -2.015625 6.703125q-1.578125 1.9375 -3.984375 1.9375q-1.15625 0 -2.1875 -0.46875q-1.015625 -0.453125 -1.734375 -1.28125q-0.453125 -0.515625 -1.0 -1.65625q-0.53125 -1.140625 -0.765625 -2.09375q-0.359375 -1.34375 -0.359375 -3.140625l0 -3.25q0 -4.25 2.015625 -6.71875q1.578125 -1.9375 3.984375 -1.9375q1.171875 0 2.1875 0.46875q1.015625 0.453125 1.734375 1.28125q0.46875 0.53125 1.0 1.671875q0.53125 1.140625 0.78125 2.078125q0.34375 1.34375 0.34375 3.15625zm-1.3125 0.171875q0 -1.859375 -0.53125 -3.453125q-0.515625 -1.609375 -1.171875 -2.5625q-0.390625 -0.546875 -1.015625 -0.9375q-0.890625 -0.546875 -2.0 -0.546875q-2.203125 0 -3.453125 2.25q-1.25 2.25 -1.25 5.25l0 2.890625q0 1.859375 0.515625 3.46875q0.53125 1.609375 1.203125 2.5625q0.375 0.53125 1.0 0.921875q0.890625 0.5625 2.015625 0.5625q2.1875 0 3.4375 -2.25q1.25 -2.265625 1.25 -5.265625l0 -2.890625z" fill-rule="nonzero"></path><path fill="#000000" d="m320.9581 168.73347q0.609375 0.28125 0.9375 0.765625q0.328125 0.484375 0.328125 1.015625q0 0.8125 -0.65625 1.4375q-0.65625 0.609375 -1.640625 0.609375q-0.578125 0 -1.203125 -0.234375q-0.625 -0.25 -0.875 -0.515625q-0.078125 -0.078125 -0.078125 -0.1875q0 -0.078125 0.0625 -0.140625q0.0625 -0.0625 0.140625 -0.0625q0.09375 0 0.203125 0.078125q0.828125 0.609375 1.765625 0.609375q0.78125 0 1.296875 -0.484375q0.53125 -0.484375 0.53125 -1.09375q0 -0.40625 -0.265625 -0.78125q-0.25 -0.390625 -0.734375 -0.609375q-0.484375 -0.234375 -0.984375 -0.234375q-0.171875 0 -0.25 -0.0625q-0.0625 -0.0625 -0.0625 -0.15625q0 -0.09375 0.0625 -0.15625q0.078125 -0.078125 0.21875 -0.078125l0.375 0.015625q0.609375 0 1.0 -0.375q0.40625 -0.375 0.40625 -0.859375q0 -0.5 -0.421875 -0.890625q-0.40625 -0.390625 -1.078125 -0.390625q-0.46875 0 -0.859375 0.171875q-0.390625 0.15625 -0.625 0.4375q-0.09375 0.109375 -0.140625 0.140625q-0.03125 0.015625 -0.09375 0.015625q-0.09375 0 -0.15625 -0.0625q-0.0625 -0.0625 -0.0625 -0.15625q0 -0.21875 0.46875 -0.546875q0.640625 -0.453125 1.46875 -0.453125q0.859375 0 1.40625 0.515625q0.546875 0.515625 0.546875 1.21875q0 0.453125 -0.265625 0.859375q-0.265625 0.40625 -0.765625 0.640625zm3.7260742 3.21875l3.46875 0l0 -0.171875q0 -0.171875 0.0625 -0.234375q0.0625 -0.0625 0.15625 -0.0625q0.109375 0 0.171875 0.0625q0.0625 0.0625 0.0625 0.234375l0 0.625l-4.359375 0l0 -0.671875q1.375 -1.234375 2.671875 -2.515625q0.609375 -0.59375 0.828125 -0.859375q0.234375 -0.28125 0.3125 -0.5q0.078125 -0.21875 0.078125 -0.421875q0 -0.578125 -0.46875 -1.03125q-0.453125 -0.453125 -1.125 -0.453125q-0.59375 0 -1.046875 0.34375q-0.453125 0.34375 -0.59375 0.84375q-0.03125 0.125 -0.078125 0.15625q-0.0625 0.0625 -0.140625 0.0625q-0.09375 0 -0.15625 -0.0625q-0.0625 -0.0625 -0.0625 -0.15625q0 -0.25 0.28125 -0.6875q0.28125 -0.4375 0.78125 -0.6875q0.5 -0.265625 1.015625 -0.265625q0.84375 0 1.453125 0.59375q0.609375 0.578125 0.609375 1.328125q0 0.3125 -0.109375 0.578125q-0.09375 0.25 -0.34375 0.5625q-0.25 0.296875 -0.875 0.921875q-1.59375 1.578125 -2.59375 2.4375l0 0.03125z" fill-rule="nonzero"></path><path fill="#000000" fill-opacity="0.0" d="m363.5699 115.16535l80.50394 0l0 63.49607l-80.50394 0z" fill-rule="evenodd"></path><path fill="#000000" d="m401.32184 148.43224l-13.375 0q0.34375 2.546875 2.125 4.109375q1.796875 1.546875 4.4375 1.546875q1.46875 0 3.078125 -0.484375q1.609375 -0.484375 2.625 -1.28125q0.296875 -0.234375 0.515625 -0.234375q0.25 0 0.4375 0.203125q0.1875 0.1875 0.1875 0.453125q0 0.265625 -0.25 0.515625q-0.75 0.78125 -2.671875 1.46875q-1.90625 0.671875 -3.921875 0.671875q-3.375 0 -5.640625 -2.203125q-2.25 -2.21875 -2.25 -5.359375q0 -2.859375 2.109375 -4.90625q2.125 -2.046875 5.25 -2.046875q3.21875 0 5.296875 2.109375q2.078125 2.09375 2.046875 5.4375zm-1.328125 -1.328125q-0.390625 -2.171875 -2.0625 -3.53125q-1.65625 -1.359375 -3.953125 -1.359375q-2.296875 0 -3.953125 1.34375q-1.65625 1.34375 -2.0625 3.546875l12.03125 0zm9.515625 -0.515625q1.21875 -1.796875 2.5 -2.65625q1.296875 -0.859375 2.875 -0.859375q2.09375 0 3.71875 1.75q1.625 1.734375 1.625 4.296875q0 2.34375 -1.484375 4.296875q-1.484375 1.9375 -4.09375 1.9375q-1.703125 0 -3.1875 -1.046875q-1.46875 -1.046875 -2.3125 -3.21875q-1.046875 -2.703125 -1.046875 -5.984375q0 -2.46875 0.984375 -4.59375q0.75 -1.640625 2.0 -2.875q1.25 -1.25 2.90625 -2.03125q1.671875 -0.796875 3.609375 -0.796875q1.3125 0 2.1875 0.53125q0.375 0.234375 0.375 0.625q0 0.28125 -0.171875 0.46875q-0.171875 0.171875 -0.4375 0.171875q-0.203125 0 -0.484375 -0.15625q-0.640625 -0.3125 -1.59375 -0.3125q-3.046875 0 -5.5625 2.625q-2.5 2.609375 -2.5 6.21875q0 0.515625 0.09375 1.609375zm0.296875 2.171875q0.59375 2.84375 1.859375 4.0625q1.28125 1.21875 3.015625 1.21875q1.75 0 2.984375 -1.359375q1.25 -1.375 1.25 -3.5625q0 -2.046875 -1.25 -3.390625q-1.25 -1.34375 -2.828125 -1.34375q-1.515625 0 -2.921875 1.296875q-0.9375 0.859375 -2.109375 3.078125z" fill-rule="nonzero"></path><path fill="#000000" d="m395.2796 171.95222l3.46875 0l0 -0.171875q0 -0.171875 0.0625 -0.234375q0.0625 -0.0625 0.15625 -0.0625q0.109375 0 0.171875 0.0625q0.0625 0.0625 0.0625 0.234375l0 0.625l-4.359375 0l0 -0.671875q1.375 -1.234375 2.671875 -2.515625q0.609375 -0.59375 0.828125 -0.859375q0.234375 -0.28125 0.3125 -0.5q0.078125 -0.21875 0.078125 -0.421875q0 -0.578125 -0.46875 -1.03125q-0.453125 -0.453125 -1.125 -0.453125q-0.59375 0 -1.046875 0.34375q-0.453125 0.34375 -0.59375 0.84375q-0.03125 0.125 -0.078125 0.15625q-0.0625 0.0625 -0.140625 0.0625q-0.09375 0 -0.15625 -0.0625q-0.0625 -0.0625 -0.0625 -0.15625q0 -0.25 0.28125 -0.6875q0.28125 -0.4375 0.78125 -0.6875q0.5 -0.265625 1.015625 -0.265625q0.84375 0 1.453125 0.59375q0.609375 0.578125 0.609375 1.328125q0 0.3125 -0.109375 0.578125q-0.09375 0.25 -0.34375 0.5625q-0.25 0.296875 -0.875 0.921875q-1.59375 1.578125 -2.59375 2.4375l0 0.03125zm9.476074 -3.21875q0.609375 0.28125 0.9375 0.765625q0.328125 0.484375 0.328125 1.015625q0 0.8125 -0.65625 1.4375q-0.65625 0.609375 -1.640625 0.609375q-0.578125 0 -1.203125 -0.234375q-0.625 -0.25 -0.875 -0.515625q-0.078125 -0.078125 -0.078125 -0.1875q0 -0.078125 0.0625 -0.140625q0.0625 -0.0625 0.140625 -0.0625q0.09375 0 0.203125 0.078125q0.828125 0.609375 1.765625 0.609375q0.78125 0 1.296875 -0.484375q0.53125 -0.484375 0.53125 -1.09375q0 -0.40625 -0.265625 -0.78125q-0.25 -0.390625 -0.734375 -0.609375q-0.484375 -0.234375 -0.984375 -0.234375q-0.171875 0 -0.25 -0.0625q-0.0625 -0.0625 -0.0625 -0.15625q0 -0.09375 0.0625 -0.15625q0.078125 -0.078125 0.21875 -0.078125l0.375 0.015625q0.609375 0 1.0 -0.375q0.40625 -0.375 0.40625 -0.859375q0 -0.5 -0.421875 -0.890625q-0.40625 -0.390625 -1.078125 -0.390625q-0.46875 0 -0.859375 0.171875q-0.390625 0.15625 -0.625 0.4375q-0.09375 0.109375 -0.140625 0.140625q-0.03125 0.015625 -0.09375 0.015625q-0.09375 0 -0.15625 -0.0625q-0.0625 -0.0625 -0.0625 -0.15625q0 -0.21875 0.46875 -0.546875q0.640625 -0.453125 1.46875 -0.453125q0.859375 0 1.40625 0.515625q0.546875 0.515625 0.546875 1.21875q0 0.453125 -0.265625 0.859375q-0.265625 0.40625 -0.765625 0.640625zm7.741699 -0.25l0 1.109375q0 1.453125 -0.703125 2.3125q-0.53125 0.65625 -1.359375 0.65625q-0.40625 0 -0.765625 -0.15625q-0.34375 -0.15625 -0.59375 -0.4375q-0.140625 -0.1875 -0.328125 -0.578125q-0.1875 -0.390625 -0.265625 -0.71875q-0.125 -0.453125 -0.125 -1.078125l0 -1.109375q0 -1.46875 0.6875 -2.3125q0.546875 -0.671875 1.375 -0.671875q0.40625 0 0.75 0.171875q0.34375 0.15625 0.59375 0.4375q0.15625 0.171875 0.34375 0.578125q0.1875 0.390625 0.265625 0.703125q0.125 0.46875 0.125 1.09375zm-0.453125 0.046875q0 -0.625 -0.1875 -1.171875q-0.171875 -0.5625 -0.40625 -0.890625q-0.125 -0.1875 -0.34375 -0.3125q-0.3125 -0.203125 -0.6875 -0.203125q-0.75 0 -1.1875 0.78125q-0.421875 0.765625 -0.421875 1.796875l0 1.0q0 0.640625 0.171875 1.203125q0.1875 0.546875 0.40625 0.875q0.140625 0.171875 0.34375 0.3125q0.3125 0.1875 0.703125 0.1875q0.75 0 1.171875 -0.765625q0.4375 -0.78125 0.4375 -1.8125l0 -1.0z" fill-rule="nonzero"></path><path fill="#000000" fill-opacity="0.0" d="m496.8084 92.41732l80.50391 0l0 63.49607l-80.50391 0z" fill-rule="evenodd"></path><path fill="#000000" d="m523.54474 123.84045q1.21875 -1.796875 2.5 -2.65625q1.296875 -0.859375 2.875 -0.859375q2.09375 0 3.71875 1.75q1.625 1.734375 1.625 4.296875q0 2.3437576 -1.484375 4.2968826q-1.484375 1.9375 -4.09375 1.9375q-1.703125 0 -3.1875 -1.046875q-1.46875 -1.046875 -2.3125 -3.21875q-1.046875 -2.7031326 -1.046875 -5.9843826q0 -2.46875 0.984375 -4.59375q0.75 -1.640625 2.0 -2.875q1.25 -1.25 2.90625 -2.03125q1.671875 -0.796875 3.609375 -0.796875q1.3125 0 2.1875 0.53125q0.375 0.234375 0.375 0.625q0 0.28125 -0.171875 0.46875q-0.171875 0.171875 -0.4375 0.171875q-0.203125 0 -0.484375 -0.15625q-0.640625 -0.3125 -1.59375 -0.3125q-3.046875 0 -5.5625 2.625q-2.5 2.609375 -2.5 6.21875q0 0.515625 0.09375 1.609375zm0.296875 2.171875q0.59375 2.8437576 1.859375 4.0625076q1.28125 1.21875 3.015625 1.21875q1.75 0 2.984375 -1.359375q1.25 -1.375 1.25 -3.5625076q0 -2.046875 -1.25 -3.390625q-1.25 -1.34375 -2.828125 -1.34375q-1.515625 0 -2.921875 1.296875q-0.9375 0.859375 -2.109375 3.078125zm25.515625 -4.546875q1.8125 0.8125 2.765625 2.234375q0.953125 1.40625 0.953125 2.9375q0 2.3593826 -1.921875 4.1718826q-1.90625 1.796875 -4.78125 1.796875q-1.6875 0 -3.5 -0.71875q-1.8125 -0.71875 -2.53125 -1.46875q-0.234375 -0.25 -0.234375 -0.53125q0 -0.25 0.171875 -0.4375q0.1875 -0.1875 0.4375 -0.1875q0.25 0 0.5625 0.234375q2.421875 1.796875 5.125 1.796875q2.28125 0 3.8125 -1.421875q1.546875 -1.4375 1.546875 -3.1875076q0 -1.171875 -0.765625 -2.296875q-0.75 -1.125 -2.171875 -1.765625q-1.421875 -0.65625 -2.875 -0.65625q-0.46875 0 -0.671875 -0.171875q-0.203125 -0.1875 -0.203125 -0.484375q0 -0.28125 0.1875 -0.46875q0.203125 -0.1875 0.59375 -0.1875l1.125 0.015625q1.765625 0 2.90625 -1.078125q1.15625 -1.078125 1.15625 -2.5q0 -1.46875 -1.203125 -2.59375q-1.203125 -1.125 -3.140625 -1.125q-1.359375 0 -2.5 0.46875q-1.140625 0.46875 -1.828125 1.28125q-0.25 0.3125 -0.390625 0.390625q-0.125 0.0625 -0.296875 0.0625q-0.265625 0 -0.453125 -0.171875q-0.1875 -0.1875 -0.1875 -0.4375q0 -0.625 1.359375 -1.578125q1.890625 -1.328125 4.296875 -1.328125q2.484375 0 4.078125 1.5q1.59375 1.484375 1.59375 3.546875q0 1.3125 -0.765625 2.484375q-0.765625 1.171875 -2.25 1.875z" fill-rule="nonzero"></path><path fill="#000000" d="m535.61554 145.84482q-0.359375 0.609375 -0.84375 0.921875q-0.46875 0.3125 -0.984375 0.3125q-0.453125 0 -0.890625 -0.265625q-0.4375 -0.265625 -0.703125 -0.78125q-0.25 -0.515625 -0.25 -1.09375q0 -0.828125 0.5 -1.5q0.515625 -0.6875 1.375 -0.6875q0.609375 0 1.109375 0.390625q0.515625 0.375 0.796875 1.09375q0.359375 0.9375 0.359375 2.171875q0 0.953125 -0.3125 1.578125q-0.203125 0.4375 -0.59375 0.84375q-0.390625 0.390625 -0.890625 0.65625q-0.671875 0.328125 -1.40625 0.328125q-0.484375 0 -0.78125 -0.171875q-0.140625 -0.09375 -0.140625 -0.21875q0 -0.09375 0.0625 -0.15625q0.0625 -0.0625 0.15625 -0.0625q0.0625 0 0.1875 0.0625q0.203125 0.09375 0.484375 0.09375q1.140625 0 1.953125 -0.8125q0.828125 -0.828125 0.828125 -2.078125q0 -0.21875 -0.015625 -0.625zm-0.09375 -0.75q-0.28125 -1.09375 -0.703125 -1.484375q-0.421875 -0.40625 -0.984375 -0.40625q-0.578125 0 -1.015625 0.484375q-0.4375 0.484375 -0.4375 1.25q0 0.734375 0.4375 1.21875q0.4375 0.46875 0.984375 0.46875q0.3125 0 0.625 -0.171875q0.3125 -0.171875 0.59375 -0.515625q0.171875 -0.21875 0.5 -0.84375zm6.694824 0.75q-0.359375 0.609375 -0.84375 0.921875q-0.46875 0.3125 -0.984375 0.3125q-0.453125 0 -0.890625 -0.265625q-0.4375 -0.265625 -0.703125 -0.78125q-0.25 -0.515625 -0.25 -1.09375q0 -0.828125 0.5 -1.5q0.515625 -0.6875 1.375 -0.6875q0.609375 0 1.109375 0.390625q0.515625 0.375 0.796875 1.09375q0.359375 0.9375 0.359375 2.171875q0 0.953125 -0.3125 1.578125q-0.203125 0.4375 -0.59375 0.84375q-0.390625 0.390625 -0.890625 0.65625q-0.671875 0.328125 -1.40625 0.328125q-0.484375 0 -0.78125 -0.171875q-0.140625 -0.09375 -0.140625 -0.21875q0 -0.09375 0.0625 -0.15625q0.0625 -0.0625 0.15625 -0.0625q0.0625 0 0.1875 0.0625q0.203125 0.09375 0.484375 0.09375q1.140625 0 1.953125 -0.8125q0.828125 -0.828125 0.828125 -2.078125q0 -0.21875 -0.015625 -0.625zm-0.09375 -0.75q-0.28125 -1.09375 -0.703125 -1.484375q-0.421875 -0.40625 -0.984375 -0.40625q-0.578125 0 -1.015625 0.484375q-0.4375 0.484375 -0.4375 1.25q0 0.734375 0.4375 1.21875q0.4375 0.46875 0.984375 0.46875q0.3125 0 0.625 -0.171875q0.3125 -0.171875 0.59375 -0.515625q0.171875 -0.21875 0.5 -0.84375z" fill-rule="nonzero"></path><path fill="#000000" fill-opacity="0.0" d="m122.07768 60.671917l0 44.818897" fill-rule="evenodd"></path><path stroke="#000000" stroke-width="3.0" stroke-linejoin="round" stroke-linecap="butt" d="m122.07768 60.671917l0 34.53764" fill-rule="evenodd"></path><path fill="#000000" stroke="#000000" stroke-width="3.0" stroke-linecap="butt" d="m122.07768 95.20956l-3.3737488 -3.3737564l3.3737488 9.26931l3.3737488 -9.26931z" fill-rule="evenodd"></path><path fill="#000000" fill-opacity="0.0" d="m41.58005 60.671917l0 63.49606l68.944885 0" fill-rule="evenodd"></path><path stroke="#000000" stroke-width="3.0" stroke-linejoin="round" stroke-linecap="butt" d="m41.58005 60.671917l0 63.49606l58.663624 0" fill-rule="evenodd"></path><path fill="#000000" stroke="#000000" stroke-width="3.0" stroke-linecap="butt" d="m100.243675 124.16798l-3.3737488 3.3737564l9.269302 -3.3737564l-9.269302 -3.3737488z" fill-rule="evenodd"></path><path fill="#000000" fill-opacity="0.0" d="m1.328084 -2.824147l80.50394 0l0 63.496063l-80.50394 0z" fill-rule="evenodd"></path><path fill="#000000" d="m35.751926 36.895855l0 -1.890625q-2.859375 2.40625 -6.109375 2.40625q-2.359375 0 -3.6875 -1.1875q-1.328125 -1.203125 -1.328125 -2.9375q0 -1.90625 1.75 -3.328125q1.75 -1.421875 5.109375 -1.421875q0.90625 0 1.96875 0.125q1.0625 0.109375 2.296875 0.359375l0 -2.125q0 -1.078125 -1.0 -1.875q-1.0 -0.796875 -3.0 -0.796875q-1.53125 0 -4.296875 0.890625q-0.5 0.15625 -0.640625 0.15625q-0.25 0 -0.4375 -0.1875q-0.171875 -0.1875 -0.171875 -0.46875q0 -0.265625 0.15625 -0.421875q0.21875 -0.234375 1.765625 -0.640625q2.4375 -0.65625 3.6875 -0.65625q2.484375 0 3.875 1.234375q1.390625 1.21875 1.390625 2.765625l0 8.6875l1.75 0q0.484375 0 0.6875 0.1875q0.203125 0.171875 0.203125 0.46875q0 0.28125 -0.203125 0.46875q-0.203125 0.1875 -0.6875 0.1875l-3.078125 0zm0 -6.53125q-0.921875 -0.265625 -1.953125 -0.390625q-1.03125 -0.125 -2.171875 -0.125q-2.859375 0 -4.46875 1.234375q-1.21875 0.921875 -1.21875 2.203125q0 1.1875 0.921875 2.0q0.9375 0.8125 2.71875 0.8125q1.703125 0 3.15625 -0.671875q1.46875 -0.6875 3.015625 -2.171875l0 -2.890625zm16.078125 -13.34375l0 18.5625l4.5 0q0.46875 0 0.671875 0.1875q0.203125 0.171875 0.203125 0.46875q0 0.28125 -0.203125 0.46875q-0.203125 0.1875 -0.671875 0.1875l-10.3125 0q-0.46875 0 -0.671875 -0.1875q-0.203125 -0.1875 -0.203125 -0.46875q0 -0.296875 0.203125 -0.46875q0.203125 -0.1875 0.671875 -0.1875l4.5 0l0 -16.75l-4.28125 1.34375q-0.3125 0.09375 -0.453125 0.09375q-0.234375 0 -0.4375 -0.1875q-0.1875 -0.203125 -0.1875 -0.46875q0 -0.234375 0.15625 -0.4375q0.125 -0.125 0.515625 -0.265625l6.0 -1.890625z" fill-rule="nonzero"></path><path fill="#000000" d="m35.20969 47.587727l0 6.375l1.546875 0q0.15625 0 0.21875 0.0625q0.078125 0.0625 0.078125 0.171875q0 0.09375 -0.078125 0.15625q-0.0625 0.0625 -0.21875 0.0625l-3.546875 0q-0.171875 0 -0.25 -0.0625q-0.0625 -0.0625 -0.0625 -0.15625q0 -0.109375 0.0625 -0.171875q0.078125 -0.0625 0.25 -0.0625l1.546875 0l0 -5.75l-1.484375 0.453125q-0.09375 0.03125 -0.15625 0.03125q-0.078125 0 -0.140625 -0.0625q-0.0625 -0.0625 -0.0625 -0.15625q0 -0.078125 0.046875 -0.15625q0.046875 -0.046875 0.1875 -0.09375l2.0625 -0.640625zm5.022949 3.96875q0.421875 -0.609375 0.859375 -0.90625q0.453125 -0.296875 0.984375 -0.296875q0.71875 0 1.28125 0.609375q0.5625 0.59375 0.5625 1.46875q0 0.8125 -0.515625 1.484375q-0.5 0.65625 -1.40625 0.65625q-0.578125 0 -1.09375 -0.359375q-0.5 -0.359375 -0.796875 -1.109375q-0.359375 -0.921875 -0.359375 -2.046875q0 -0.859375 0.34375 -1.578125q0.25 -0.5625 0.671875 -0.984375q0.4375 -0.4375 1.015625 -0.703125q0.578125 -0.28125 1.234375 -0.28125q0.453125 0 0.75 0.1875q0.140625 0.078125 0.140625 0.21875q0 0.09375 -0.0625 0.15625q-0.0625 0.0625 -0.15625 0.0625q-0.0625 0 -0.15625 -0.0625q-0.234375 -0.109375 -0.5625 -0.109375q-1.046875 0 -1.90625 0.90625q-0.859375 0.90625 -0.859375 2.140625q0 0.171875 0.03125 0.546875zm0.109375 0.75q0.203125 0.984375 0.640625 1.40625q0.4375 0.40625 1.03125 0.40625q0.59375 0 1.015625 -0.46875q0.4375 -0.46875 0.4375 -1.21875q0 -0.703125 -0.4375 -1.15625q-0.421875 -0.46875 -0.96875 -0.46875q-0.515625 0 -1.0 0.453125q-0.328125 0.28125 -0.71875 1.046875zm8.069824 -4.71875l0 6.375l1.546875 0q0.15625 0 0.21875 0.0625q0.078125 0.0625 0.078125 0.171875q0 0.09375 -0.078125 0.15625q-0.0625 0.0625 -0.21875 0.0625l-3.546875 0q-0.171875 0 -0.25 -0.0625q-0.0625 -0.0625 -0.0625 -0.15625q0 -0.109375 0.0625 -0.171875q0.078125 -0.0625 0.25 -0.0625l1.546875 0l0 -5.75l-1.484375 0.453125q-0.09375 0.03125 -0.15625 0.03125q-0.078125 0 -0.140625 -0.0625q-0.0625 -0.0625 -0.0625 -0.15625q0 -0.078125 0.046875 -0.15625q0.046875 -0.046875 0.1875 -0.09375l2.0625 -0.640625z" fill-rule="nonzero"></path><path fill="#000000" fill-opacity="0.0" d="m81.825714 -2.824147l80.50394 0l0 63.496063l-80.50394 0z" fill-rule="evenodd"></path><path fill="#000000" d="m118.49956 25.47398l0 3.25q0 4.234375 -2.015625 6.703125q-1.578125 1.9375 -3.984375 1.9375q-1.15625 0 -2.1875 -0.46875q-1.015625 -0.453125 -1.734375 -1.28125q-0.453125 -0.515625 -1.0 -1.65625q-0.53125 -1.140625 -0.765625 -2.09375q-0.359375 -1.34375 -0.359375 -3.140625l0 -3.25q0 -4.25 2.015625 -6.71875q1.578125 -1.9375 3.984375 -1.9375q1.171875 0 2.1875 0.46875q1.015625 0.453125 1.734375 1.28125q0.46875 0.53125 1.0 1.671875q0.53125 1.140625 0.78125 2.078125q0.34375 1.34375 0.34375 3.15625zm-1.3125 0.171875q0 -1.859375 -0.53125 -3.453125q-0.515625 -1.609375 -1.171875 -2.5625q-0.390625 -0.546875 -1.015625 -0.9375q-0.890625 -0.546875 -2.0 -0.546875q-2.203125 0 -3.453125 2.25q-1.25 2.25 -1.25 5.25l0 2.890625q0 1.859375 0.515625 3.46875q0.53125 1.609375 1.203125 2.5625q0.375 0.53125 1.0 0.921875q0.890625 0.5625 2.015625 0.5625q2.1875 0 3.4375 -2.25q1.25 -2.265625 1.25 -5.265625l0 -2.890625zm8.84375 9.9375l10.078125 0l0 -0.515625q0 -0.46875 0.1875 -0.671875q0.1875 -0.203125 0.484375 -0.203125q0.28125 0 0.46875 0.203125q0.1875 0.203125 0.1875 0.671875l0 1.828125l-12.6875 0l0 -1.9375q4.0 -3.59375 7.78125 -7.3125q1.765625 -1.734375 2.421875 -2.546875q0.65625 -0.8125 0.890625 -1.421875q0.25 -0.625 0.25 -1.25q0 -1.6875 -1.359375 -2.984375q-1.359375 -1.296875 -3.28125 -1.296875q-1.71875 0 -3.046875 0.984375q-1.328125 0.984375 -1.71875 2.4375q-0.09375 0.375 -0.234375 0.484375q-0.1875 0.15625 -0.4375 0.15625q-0.265625 0 -0.453125 -0.171875q-0.171875 -0.1875 -0.171875 -0.4375q0 -0.75 0.8125 -2.03125q0.828125 -1.28125 2.265625 -2.015625q1.453125 -0.734375 2.96875 -0.734375q2.453125 0 4.21875 1.703125q1.765625 1.703125 1.765625 3.859375q0 0.90625 -0.296875 1.671875q-0.296875 0.75 -1.015625 1.65625q-0.703125 0.890625 -2.546875 2.703125q-4.625 4.5625 -7.53125 7.078125l0 0.09375z" fill-rule="nonzero"></path><path fill="#000000" d="m120.13652 53.962727l3.46875 0l0 -0.171875q0 -0.171875 0.0625 -0.234375q0.0625 -0.0625 0.15625 -0.0625q0.109375 0 0.171875 0.0625q0.0625 0.0625 0.0625 0.234375l0 0.625l-4.359375 0l0 -0.671875q1.375 -1.234375 2.671875 -2.515625q0.609375 -0.59375 0.828125 -0.859375q0.234375 -0.28125 0.3125 -0.5q0.078125 -0.21875 0.078125 -0.421875q0 -0.578125 -0.46875 -1.03125q-0.453125 -0.453125 -1.125 -0.453125q-0.59375 0 -1.046875 0.34375q-0.453125 0.34375 -0.59375 0.84375q-0.03125 0.125 -0.078125 0.15625q-0.0625 0.0625 -0.140625 0.0625q-0.09375 0 -0.15625 -0.0625q-0.0625 -0.0625 -0.0625 -0.15625q0 -0.25 0.28125 -0.6875q0.28125 -0.4375 0.78125 -0.6875q0.5 -0.265625 1.015625 -0.265625q0.84375 0 1.453125 0.59375q0.609375 0.578125 0.609375 1.328125q0 0.3125 -0.109375 0.578125q-0.09375 0.25 -0.34375 0.5625q-0.25 0.296875 -0.875 0.921875q-1.59375 1.578125 -2.59375 2.4375l0 0.03125z" fill-rule="nonzero"></path><path fill="#000000" fill-opacity="0.0" d="m162.32335 -2.824147l80.50394 0l0 63.496063l-80.50394 0z" fill-rule="evenodd"></path><path fill="#000000" d="m193.6222 17.020855l0 18.5625l4.5 0q0.46875 0 0.671875 0.1875q0.203125 0.171875 0.203125 0.46875q0 0.28125 -0.203125 0.46875q-0.203125 0.1875 -0.671875 0.1875l-10.3125 0q-0.46875 0 -0.671875 -0.1875q-0.203125 -0.1875 -0.203125 -0.46875q0 -0.296875 0.203125 -0.46875q0.203125 -0.1875 0.671875 -0.1875l4.5 0l0 -16.75l-4.28125 1.34375q-0.3125 0.09375 -0.453125 0.09375q-0.234375 0 -0.4375 -0.1875q-0.1875 -0.203125 -0.1875 -0.46875q0 -0.234375 0.15625 -0.4375q0.125 -0.125 0.515625 -0.265625l6.0 -1.890625zm12.90625 18.5625l10.078125 0l0 -0.515625q0 -0.46875 0.1875 -0.671875q0.1875 -0.203125 0.484375 -0.203125q0.28125 0 0.46875 0.203125q0.1875 0.203125 0.1875 0.671875l0 1.828125l-12.6875 0l0 -1.9375q4.0 -3.59375 7.78125 -7.3125q1.765625 -1.734375 2.421875 -2.546875q0.65625 -0.8125 0.890625 -1.421875q0.25 -0.625 0.25 -1.25q0 -1.6875 -1.359375 -2.984375q-1.359375 -1.296875 -3.28125 -1.296875q-1.71875 0 -3.046875 0.984375q-1.328125 0.984375 -1.71875 2.4375q-0.09375 0.375 -0.234375 0.484375q-0.1875 0.15625 -0.4375 0.15625q-0.265625 0 -0.453125 -0.171875q-0.171875 -0.1875 -0.171875 -0.4375q0 -0.75 0.8125 -2.03125q0.828125 -1.28125 2.265625 -2.015625q1.453125 -0.734375 2.96875 -0.734375q2.453125 0 4.21875 1.703125q1.765625 1.703125 1.765625 3.859375q0 0.90625 -0.296875 1.671875q-0.296875 0.75 -1.015625 1.65625q-0.703125 0.890625 -2.546875 2.703125q-4.625 4.5625 -7.53125 7.078125l0 0.09375z" fill-rule="nonzero"></path><path fill="#000000" d="m199.5055 47.587727l0 6.375l1.546875 0q0.15625 0 0.21875 0.0625q0.078125 0.0625 0.078125 0.171875q0 0.09375 -0.078125 0.15625q-0.0625 0.0625 -0.21875 0.0625l-3.546875 0q-0.171875 0 -0.25 -0.0625q-0.0625 -0.0625 -0.0625 -0.15625q0 -0.109375 0.0625 -0.171875q0.078125 -0.0625 0.25 -0.0625l1.546875 0l0 -5.75l-1.484375 0.453125q-0.09375 0.03125 -0.15625 0.03125q-0.078125 0 -0.140625 -0.0625q-0.0625 -0.0625 -0.0625 -0.15625q0 -0.078125 0.046875 -0.15625q0.046875 -0.046875 0.1875 -0.09375l2.0625 -0.640625zm7.304199 3.328125q0.5625 0.28125 0.84375 0.734375q0.28125 0.4375 0.28125 0.953125q0 0.796875 -0.609375 1.390625q-0.59375 0.578125 -1.453125 0.578125q-0.859375 0 -1.46875 -0.578125q-0.59375 -0.59375 -0.59375 -1.390625q0 -0.515625 0.28125 -0.953125q0.296875 -0.453125 0.875 -0.734375q-0.5 -0.28125 -0.71875 -0.59375q-0.3125 -0.421875 -0.3125 -0.953125q0 -0.75 0.5625 -1.296875q0.578125 -0.5625 1.375 -0.5625q0.8125 0 1.375 0.5625q0.578125 0.546875 0.578125 1.296875q0 0.53125 -0.3125 0.953125q-0.21875 0.3125 -0.703125 0.59375zm0.5625 -1.53125q0 -0.578125 -0.4375 -1.0q-0.4375 -0.421875 -1.0625 -0.421875q-0.625 0 -1.0625 0.421875q-0.421875 0.421875 -0.421875 1.0q0 0.515625 0.421875 0.921875q0.4375 0.390625 1.0625 0.390625q0.640625 0 1.0625 -0.390625q0.4375 -0.40625 0.4375 -0.921875zm0.125 3.234375q0 -0.59375 -0.46875 -1.03125q-0.46875 -0.453125 -1.15625 -0.453125q-0.6875 0 -1.15625 0.453125q-0.453125 0.4375 -0.453125 1.015625q0 0.625 0.46875 1.078125q0.46875 0.4375 1.140625 0.4375q0.6875 0 1.15625 -0.4375q0.46875 -0.453125 0.46875 -1.0625z" fill-rule="nonzero"></path><path fill="#000000" fill-opacity="0.0" d="m242.82098 -2.824147l80.50394 0l0 63.496063l-80.50394 0z" fill-rule="evenodd"></path><path fill="#000000" d="m269.5573 28.59898q1.21875 -1.796875 2.5 -2.65625q1.296875 -0.859375 2.875 -0.859375q2.09375 0 3.71875 1.75q1.625 1.734375 1.625 4.296875q0 2.34375 -1.484375 4.296875q-1.484375 1.9375 -4.09375 1.9375q-1.703125 0 -3.1875 -1.046875q-1.46875 -1.046875 -2.3125 -3.21875q-1.046875 -2.703125 -1.046875 -5.984375q0 -2.46875 0.984375 -4.59375q0.75 -1.640625 2.0 -2.875q1.25 -1.25 2.90625 -2.03125q1.671875 -0.796875 3.609375 -0.796875q1.3125 0 2.1875 0.53125q0.375 0.234375 0.375 0.625q0 0.28125 -0.171875 0.46875q-0.171875 0.171875 -0.4375 0.171875q-0.203125 0 -0.484375 -0.15625q-0.640625 -0.3125 -1.59375 -0.3125q-3.046875 0 -5.5625 2.625q-2.5 2.609375 -2.5 6.21875q0 0.515625 0.09375 1.609375zm0.296875 2.171875q0.59375 2.84375 1.859375 4.0625q1.28125 1.21875 3.015625 1.21875q1.75 0 2.984375 -1.359375q1.25 -1.375 1.25 -3.5625q0 -2.046875 -1.25 -3.390625q-1.25 -1.34375 -2.828125 -1.34375q-1.515625 0 -2.921875 1.296875q-0.9375 0.859375 -2.109375 3.078125zm17.875 -13.484375l0 8.703125q2.375 -3.09375 5.734375 -3.09375q2.875 0 4.921875 2.09375q2.046875 2.078125 2.046875 5.109375q0 3.0625 -2.078125 5.1875q-2.0625 2.125 -4.890625 2.125q-3.4375 0 -5.734375 -3.09375l0 2.578125l-3.078125 0q-0.46875 0 -0.671875 -0.1875q-0.203125 -0.1875 -0.203125 -0.46875q0 -0.296875 0.203125 -0.46875q0.203125 -0.1875 0.671875 -0.1875l1.765625 0l0 -16.96875l-1.765625 0q-0.46875 0 -0.671875 -0.1875q-0.203125 -0.1875 -0.203125 -0.484375q0 -0.28125 0.203125 -0.46875q0.203125 -0.1875 0.671875 -0.1875l3.078125 0zm11.390625 12.875q0 -2.484375 -1.703125 -4.203125q-1.703125 -1.734375 -3.984375 -1.734375q-2.28125 0 -3.984375 1.734375q-1.703125 1.71875 -1.703125 4.203125q0 2.484375 1.703125 4.21875q1.703125 1.71875 3.984375 1.71875q2.28125 0 3.984375 -1.71875q1.703125 -1.734375 1.703125 -4.21875z" fill-rule="nonzero"></path><path fill="#000000" d="m276.70258 47.587727l0 6.375l1.546875 0q0.15625 0 0.21875 0.0625q0.078125 0.0625 0.078125 0.171875q0 0.09375 -0.078125 0.15625q-0.0625 0.0625 -0.21875 0.0625l-3.546875 0q-0.171875 0 -0.25 -0.0625q-0.0625 -0.0625 -0.0625 -0.15625q0 -0.109375 0.0625 -0.171875q0.078125 -0.0625 0.25 -0.0625l1.546875 0l0 -5.75l-1.484375 0.453125q-0.09375 0.03125 -0.15625 0.03125q-0.078125 0 -0.140625 -0.0625q-0.0625 -0.0625 -0.0625 -0.15625q0 -0.078125 0.046875 -0.15625q0.046875 -0.046875 0.1875 -0.09375l2.0625 -0.640625zm8.444824 2.90625l0 1.109375q0 1.453125 -0.703125 2.3125q-0.53125 0.65625 -1.359375 0.65625q-0.40625 0 -0.765625 -0.15625q-0.34375 -0.15625 -0.59375 -0.4375q-0.140625 -0.1875 -0.328125 -0.578125q-0.1875 -0.390625 -0.265625 -0.71875q-0.125 -0.453125 -0.125 -1.078125l0 -1.109375q0 -1.46875 0.6875 -2.3125q0.546875 -0.671875 1.375 -0.671875q0.40625 0 0.75 0.171875q0.34375 0.15625 0.59375 0.4375q0.15625 0.171875 0.34375 0.578125q0.1875 0.390625 0.265625 0.703125q0.125 0.46875 0.125 1.09375zm-0.453125 0.046875q0 -0.625 -0.1875 -1.171875q-0.171875 -0.5625 -0.40625 -0.890625q-0.125 -0.1875 -0.34375 -0.3125q-0.3125 -0.203125 -0.6875 -0.203125q-0.75 0 -1.1875 0.78125q-0.421875 0.765625 -0.421875 1.796875l0 1.0q0 0.640625 0.171875 1.203125q0.1875 0.546875 0.40625 0.875q0.140625 0.171875 0.34375 0.3125q0.3125 0.1875 0.703125 0.1875q0.75 0 1.171875 -0.765625q0.4375 -0.78125 0.4375 -1.8125l0 -1.0zm6.491699 -2.203125l0 -0.203125l-3.234375 0l0 0.390625q0 0.171875 -0.0625 0.234375q-0.046875 0.0625 -0.15625 0.0625q-0.09375 0 -0.15625 -0.0625q-0.0625 -0.0625 -0.0625 -0.234375l0 -0.84375l4.140625 0l0 0.71875l-1.828125 5.796875q-0.03125 0.140625 -0.09375 0.1875q-0.0625 0.046875 -0.140625 0.046875q-0.09375 0 -0.15625 -0.0625q-0.0625 -0.078125 -0.0625 -0.15625q0 -0.0625 0.03125 -0.15625l1.78125 -5.71875z" fill-rule="nonzero"></path><path fill="#000000" fill-opacity="0.0" d="m323.3186 -2.824147l80.50394 0l0 63.496063l-80.50394 0z" fill-rule="evenodd"></path><path fill="#000000" d="m359.4456 24.69273l0 -0.4375q0 -0.484375 0.1875 -0.6875q0.1875 -0.203125 0.46875 -0.203125q0.296875 0 0.484375 0.203125q0.1875 0.203125 0.1875 0.6875l0 2.96875q-0.015625 0.484375 -0.203125 0.6875q-0.171875 0.203125 -0.46875 0.203125q-0.265625 0 -0.453125 -0.171875q-0.171875 -0.1875 -0.203125 -0.609375q-0.09375 -1.109375 -1.46875 -2.109375q-1.359375 -1.0 -3.671875 -1.0q-2.921875 0 -4.4375 1.828125q-1.515625 1.828125 -1.515625 4.1875q0 2.546875 1.671875 4.203125q1.671875 1.65625 4.328125 1.65625q1.53125 0 3.109375 -0.5625q1.59375 -0.5625 2.875 -1.8125q0.328125 -0.3125 0.578125 -0.3125q0.265625 0 0.4375 0.1875q0.1875 0.171875 0.1875 0.4375q0 0.671875 -1.578125 1.703125q-2.546875 1.671875 -5.671875 1.671875q-3.171875 0 -5.21875 -2.015625q-2.03125 -2.03125 -2.03125 -5.140625q0 -3.171875 2.078125 -5.265625q2.09375 -2.09375 5.265625 -2.09375q3.015625 0 5.0625 1.796875zm9.8125 3.90625q1.21875 -1.796875 2.5 -2.65625q1.296875 -0.859375 2.875 -0.859375q2.09375 0 3.71875 1.75q1.625 1.734375 1.625 4.296875q0 2.34375 -1.484375 4.296875q-1.484375 1.9375 -4.09375 1.9375q-1.703125 0 -3.1875 -1.046875q-1.46875 -1.046875 -2.3125 -3.21875q-1.046875 -2.703125 -1.046875 -5.984375q0 -2.46875 0.984375 -4.59375q0.75 -1.640625 2.0 -2.875q1.25 -1.25 2.90625 -2.03125q1.671875 -0.796875 3.609375 -0.796875q1.3125 0 2.1875 0.53125q0.375 0.234375 0.375 0.625q0 0.28125 -0.171875 0.46875q-0.171875 0.171875 -0.4375 0.171875q-0.203125 0 -0.484375 -0.15625q-0.640625 -0.3125 -1.59375 -0.3125q-3.046875 0 -5.5625 2.625q-2.5 2.609375 -2.5 6.21875q0 0.515625 0.09375 1.609375zm0.296875 2.171875q0.59375 2.84375 1.859375 4.0625q1.28125 1.21875 3.015625 1.21875q1.75 0 2.984375 -1.359375q1.25 -1.375 1.25 -3.5625q0 -2.046875 -1.25 -3.390625q-1.25 -1.34375 -2.828125 -1.34375q-1.515625 0 -2.921875 1.296875q-0.9375 0.859375 -2.109375 3.078125z" fill-rule="nonzero"></path><path fill="#000000" d="m357.20023 47.587727l0 6.375l1.546875 0q0.15625 0 0.21875 0.0625q0.078125 0.0625 0.078125 0.171875q0 0.09375 -0.078125 0.15625q-0.0625 0.0625 -0.21875 0.0625l-3.546875 0q-0.171875 0 -0.25 -0.0625q-0.0625 -0.0625 -0.0625 -0.15625q0 -0.109375 0.0625 -0.171875q0.078125 -0.0625 0.25 -0.0625l1.546875 0l0 -5.75l-1.484375 0.453125q-0.09375 0.03125 -0.15625 0.03125q-0.078125 0 -0.140625 -0.0625q-0.0625 -0.0625 -0.0625 -0.15625q0 -0.078125 0.046875 -0.15625q0.046875 -0.046875 0.1875 -0.09375l2.0625 -0.640625zm8.226074 3.015625q-0.359375 0.609375 -0.84375 0.921875q-0.46875 0.3125 -0.984375 0.3125q-0.453125 0 -0.890625 -0.265625q-0.4375 -0.265625 -0.703125 -0.78125q-0.25 -0.515625 -0.25 -1.09375q0 -0.828125 0.5 -1.5q0.515625 -0.6875 1.375 -0.6875q0.609375 0 1.109375 0.390625q0.515625 0.375 0.796875 1.09375q0.359375 0.9375 0.359375 2.171875q0 0.953125 -0.3125 1.578125q-0.203125 0.4375 -0.59375 0.84375q-0.390625 0.390625 -0.890625 0.65625q-0.671875 0.328125 -1.40625 0.328125q-0.484375 0 -0.78125 -0.171875q-0.140625 -0.09375 -0.140625 -0.21875q0 -0.09375 0.0625 -0.15625q0.0625 -0.0625 0.15625 -0.0625q0.0625 0 0.1875 0.0625q0.203125 0.09375 0.484375 0.09375q1.140625 0 1.953125 -0.8125q0.828125 -0.828125 0.828125 -2.078125q0 -0.21875 -0.015625 -0.625zm-0.09375 -0.75q-0.28125 -1.09375 -0.703125 -1.484375q-0.421875 -0.40625 -0.984375 -0.40625q-0.578125 0 -1.015625 0.484375q-0.4375 0.484375 -0.4375 1.25q0 0.734375 0.4375 1.21875q0.4375 0.46875 0.984375 0.46875q0.3125 0 0.625 -0.171875q0.3125 -0.171875 0.59375 -0.515625q0.171875 -0.21875 0.5 -0.84375zm5.772949 1.0625q0.5625 0.28125 0.84375 0.734375q0.28125 0.4375 0.28125 0.953125q0 0.796875 -0.609375 1.390625q-0.59375 0.578125 -1.453125 0.578125q-0.859375 0 -1.46875 -0.578125q-0.59375 -0.59375 -0.59375 -1.390625q0 -0.515625 0.28125 -0.953125q0.296875 -0.453125 0.875 -0.734375q-0.5 -0.28125 -0.71875 -0.59375q-0.3125 -0.421875 -0.3125 -0.953125q0 -0.75 0.5625 -1.296875q0.578125 -0.5625 1.375 -0.5625q0.8125 0 1.375 0.5625q0.578125 0.546875 0.578125 1.296875q0 0.53125 -0.3125 0.953125q-0.21875 0.3125 -0.703125 0.59375zm0.5625 -1.53125q0 -0.578125 -0.4375 -1.0q-0.4375 -0.421875 -1.0625 -0.421875q-0.625 0 -1.0625 0.421875q-0.421875 0.421875 -0.421875 1.0q0 0.515625 0.421875 0.921875q0.4375 0.390625 1.0625 0.390625q0.640625 0 1.0625 -0.390625q0.4375 -0.40625 0.4375 -0.921875zm0.125 3.234375q0 -0.59375 -0.46875 -1.03125q-0.46875 -0.453125 -1.15625 -0.453125q-0.6875 0 -1.15625 0.453125q-0.453125 0.4375 -0.453125 1.015625q0 0.625 0.46875 1.078125q0.46875 0.4375 1.140625 0.4375q0.6875 0 1.15625 -0.4375q0.46875 -0.453125 0.46875 -1.0625z" fill-rule="nonzero"></path><path fill="#000000" fill-opacity="0.0" d="m403.81625 -2.824147l80.50394 0l0 63.496063l-80.50394 0z" fill-rule="evenodd"></path><path fill="#000000" d="m438.8807 19.208355l0 -0.59375l-9.40625 0l0 1.15625q0 0.46875 -0.1875 0.671875q-0.171875 0.203125 -0.46875 0.203125q-0.28125 0 -0.46875 -0.203125q-0.1875 -0.203125 -0.1875 -0.671875l0 -2.484375l12.046875 0l0 2.09375l-5.28125 16.875q-0.125 0.40625 -0.296875 0.546875q-0.171875 0.125 -0.390625 0.125q-0.28125 0 -0.46875 -0.1875q-0.1875 -0.1875 -0.1875 -0.4375q0 -0.15625 0.09375 -0.4375l5.203125 -16.65625zm21.21875 -1.921875l0 18.296875l1.75 0q0.484375 0 0.6875 0.1875q0.203125 0.171875 0.203125 0.46875q0 0.28125 -0.203125 0.46875q-0.203125 0.1875 -0.6875 0.1875l-3.078125 0l0 -2.609375q-2.28125 3.125 -5.796875 3.125q-1.78125 0 -3.421875 -0.9375q-1.625 -0.953125 -2.578125 -2.703125q-0.9375 -1.75 -0.9375 -3.609375q0 -1.875 0.9375 -3.609375q0.953125 -1.75 2.578125 -2.703125q1.640625 -0.953125 3.4375 -0.953125q3.4375 0 5.78125 3.125l0 -7.40625l-1.75 0q-0.484375 0 -0.6875 -0.1875q-0.203125 -0.1875 -0.203125 -0.484375q0 -0.28125 0.203125 -0.46875q0.203125 -0.1875 0.6875 -0.1875l3.078125 0zm-1.328125 12.875q0 -2.5 -1.6875 -4.21875q-1.6875 -1.71875 -4.015625 -1.71875q-2.34375 0 -4.03125 1.71875q-1.6875 1.71875 -1.6875 4.21875q0 2.484375 1.6875 4.21875q1.6875 1.71875 4.03125 1.71875q2.328125 0 4.015625 -1.71875q1.6875 -1.734375 1.6875 -4.21875z" fill-rule="nonzero"></path><path fill="#000000" d="m437.69785 47.587727l0 6.375l1.546875 0q0.15625 0 0.21875 0.0625q0.078125 0.0625 0.078125 0.171875q0 0.09375 -0.078125 0.15625q-0.0625 0.0625 -0.21875 0.0625l-3.546875 0q-0.171875 0 -0.25 -0.0625q-0.0625 -0.0625 -0.0625 -0.15625q0 -0.109375 0.0625 -0.171875q0.078125 -0.0625 0.25 -0.0625l1.546875 0l0 -5.75l-1.484375 0.453125q-0.09375 0.03125 -0.15625 0.03125q-0.078125 0 -0.140625 -0.0625q-0.0625 -0.0625 -0.0625 -0.15625q0 -0.078125 0.046875 -0.15625q0.046875 -0.046875 0.1875 -0.09375l2.0625 -0.640625zm4.429199 6.375l3.46875 0l0 -0.171875q0 -0.171875 0.0625 -0.234375q0.0625 -0.0625 0.15625 -0.0625q0.109375 0 0.171875 0.0625q0.0625 0.0625 0.0625 0.234375l0 0.625l-4.359375 0l0 -0.671875q1.375 -1.234375 2.671875 -2.515625q0.609375 -0.59375 0.828125 -0.859375q0.234375 -0.28125 0.3125 -0.5q0.078125 -0.21875 0.078125 -0.421875q0 -0.578125 -0.46875 -1.03125q-0.453125 -0.453125 -1.125 -0.453125q-0.59375 0 -1.046875 0.34375q-0.453125 0.34375 -0.59375 0.84375q-0.03125 0.125 -0.078125 0.15625q-0.0625 0.0625 -0.140625 0.0625q-0.09375 0 -0.15625 -0.0625q-0.0625 -0.0625 -0.0625 -0.15625q0 -0.25 0.28125 -0.6875q0.28125 -0.4375 0.78125 -0.6875q0.5 -0.265625 1.015625 -0.265625q0.84375 0 1.453125 0.59375q0.609375 0.578125 0.609375 1.328125q0 0.3125 -0.109375 0.578125q-0.09375 0.25 -0.34375 0.5625q-0.25 0.296875 -0.875 0.921875q-1.59375 1.578125 -2.59375 2.4375l0 0.03125zm7.304199 -5.828125l0 2.203125q0.390625 -0.171875 0.75 -0.25q0.375 -0.078125 0.703125 -0.078125q0.84375 0 1.40625 0.59375q0.578125 0.59375 0.578125 1.5625q0 1.078125 -0.640625 1.75q-0.640625 0.65625 -1.609375 0.65625q-0.640625 0 -1.234375 -0.28125q-0.421875 -0.203125 -0.765625 -0.5q-0.203125 -0.171875 -0.203125 -0.28125q0 -0.109375 0.0625 -0.171875q0.078125 -0.0625 0.15625 -0.0625q0.09375 0 0.203125 0.09375q0.796875 0.75 1.765625 0.75q0.78125 0 1.296875 -0.53125q0.515625 -0.546875 0.515625 -1.4375q0 -0.765625 -0.453125 -1.21875q-0.4375 -0.46875 -1.125 -0.46875q-0.703125 0 -1.40625 0.359375q-0.171875 0.09375 -0.234375 0.09375q-0.109375 0 -0.171875 -0.0625q-0.046875 -0.0625 -0.046875 -0.1875l0 -2.984375l3.140625 0q0.171875 0 0.234375 0.0625q0.0625 0.0625 0.0625 0.15625q0 0.109375 -0.0625 0.171875q-0.0625 0.0625 -0.234375 0.0625l-2.6875 0z" fill-rule="nonzero"></path><path fill="#000000" fill-opacity="0.0" d="m202.57532 60.671917l0 44.818897" fill-rule="evenodd"></path><path stroke="#000000" stroke-width="3.0" stroke-linejoin="round" stroke-linecap="butt" d="m202.57532 60.671917l0 34.53764" fill-rule="evenodd"></path><path fill="#000000" stroke="#000000" stroke-width="3.0" stroke-linecap="butt" d="m202.57532 95.20956l-3.3737488 -3.3737564l3.3737488 9.26931l3.3737488 -9.26931z" fill-rule="evenodd"></path><path fill="#000000" fill-opacity="0.0" d="m140.50131 124.16535l44.0 0" fill-rule="evenodd"></path><path stroke="#000000" stroke-width="3.0" stroke-linejoin="round" stroke-linecap="butt" d="m140.50131 124.16535l33.71875 0" fill-rule="evenodd"></path><path fill="#000000" stroke="#000000" stroke-width="3.0" stroke-linecap="butt" d="m174.22005 124.16535l-3.3737488 3.3737564l9.269302 -3.3737564l-9.269302 -3.3737488z" fill-rule="evenodd"></path><path fill="#000000" fill-opacity="0.0" d="m283.07294 60.671917l0 45.322834" fill-rule="evenodd"></path><path stroke="#000000" stroke-width="3.0" stroke-linejoin="round" stroke-linecap="butt" d="m283.07297 60.671917l0 35.041576" fill-rule="evenodd"></path><path fill="#000000" stroke="#000000" stroke-width="3.0" stroke-linecap="butt" d="m283.07297 95.71349l-3.3737488 -3.3737564l3.3737488 9.26931l3.3737488 -9.26931z" fill-rule="evenodd"></path><path fill="#000000" fill-opacity="0.0" d="m221.50131 124.16535l43.433075 0" fill-rule="evenodd"></path><path stroke="#000000" stroke-width="3.0" stroke-linejoin="round" stroke-linecap="butt" d="m221.50131 124.16535l33.151825 0" fill-rule="evenodd"></path><path fill="#000000" stroke="#000000" stroke-width="3.0" stroke-linecap="butt" d="m254.65312 124.16535l-3.3737488 3.3737564l9.269302 -3.3737564l-9.269302 -3.3737488z" fill-rule="evenodd"></path><path fill="#000000" fill-opacity="0.0" d="m363.5706 60.671917l0 45.322834" fill-rule="evenodd"></path><path stroke="#000000" stroke-width="3.0" stroke-linejoin="round" stroke-linecap="butt" d="m363.5706 60.671917l0 35.041576" fill-rule="evenodd"></path><path fill="#000000" stroke="#000000" stroke-width="3.0" stroke-linecap="butt" d="m363.5706 95.71349l-3.3737488 -3.3737564l3.3737488 9.26931l3.3737488 -9.26931z" fill-rule="evenodd"></path><path fill="#000000" fill-opacity="0.0" d="m301.23035 124.16535l44.188995 0" fill-rule="evenodd"></path><path stroke="#000000" stroke-width="3.0" stroke-linejoin="round" stroke-linecap="butt" d="m301.23035 124.16535l33.907745 0" fill-rule="evenodd"></path><path fill="#000000" stroke="#000000" stroke-width="3.0" stroke-linecap="butt" d="m335.13806 124.16535l-3.3737488 3.3737564l9.269318 -3.3737564l-9.269318 -3.3737488z" fill-rule="evenodd"></path><path fill="#000000" fill-opacity="0.0" d="m444.0682 60.671917l0 45.322834" fill-rule="evenodd"></path><path stroke="#000000" stroke-width="3.0" stroke-linejoin="round" stroke-linecap="butt" d="m444.0682 60.671917l0 35.041576" fill-rule="evenodd"></path><path fill="#000000" stroke="#000000" stroke-width="3.0" stroke-linecap="butt" d="m444.0682 95.71349l-3.3737488 -3.3737564l3.3737488 9.26931l3.3737488 -9.26931z" fill-rule="evenodd"></path><path fill="#000000" fill-opacity="0.0" d="m381.72797 124.16535l44.188965 0" fill-rule="evenodd"></path><path stroke="#000000" stroke-width="3.0" stroke-linejoin="round" stroke-linecap="butt" d="m381.72797 124.16535l33.907745 0" fill-rule="evenodd"></path><path fill="#000000" stroke="#000000" stroke-width="3.0" stroke-linecap="butt" d="m415.63568 124.16535l-3.3737488 3.3737564l9.269318 -3.3737564l-9.269318 -3.3737488z" fill-rule="evenodd"></path><path fill="#000000" fill-opacity="0.0" d="m462.2257 124.16535l34.582703 0" fill-rule="evenodd"></path><path stroke="#000000" stroke-width="3.0" stroke-linejoin="round" stroke-linecap="butt" d="m462.2257 124.16535l24.301453 0" fill-rule="evenodd"></path><path fill="#000000" stroke="#000000" stroke-width="3.0" stroke-linecap="butt" d="m486.52713 124.16535l-3.3737488 3.3737564l9.269318 -3.3737564l-9.269318 -3.3737488z" fill-rule="evenodd"></path><path fill="#000000" fill-opacity="0.0" d="m25.580069 148.70079l76.40945 0l0 34.960632l-76.40945 0z" fill-rule="evenodd"></path><path fill="#a61c00" d="m34.56444 167.94078l3.03125 -7.875l1.109375 0l3.234375 7.875l-1.1875 0l-0.921875 -2.390625l-3.296875 0l-0.859375 2.390625l-1.109375 0zm2.265625 -3.234375l2.671875 0l-0.8125 -2.1875q-0.375 -0.984375 -0.5625 -1.625q-0.15625 0.75 -0.421875 1.5l-0.875 2.3125zm9.2795105 3.234375l0 -0.71875q-0.53125 0.84375 -1.59375 0.84375q-0.671875 0 -1.25 -0.375q-0.578125 -0.375 -0.890625 -1.046875q-0.3125 -0.671875 -0.3125 -1.546875q0 -0.859375 0.28125 -1.546875q0.296875 -0.703125 0.859375 -1.0625q0.5625 -0.375 1.265625 -0.375q0.515625 0 0.921875 0.21875q0.40625 0.21875 0.65625 0.5625l0 -2.828125l0.96875 0l0 7.875l-0.90625 0zm-3.046875 -2.84375q0 1.09375 0.453125 1.640625q0.46875 0.53125 1.09375 0.53125q0.640625 0 1.078125 -0.515625q0.4375 -0.515625 0.4375 -1.578125q0 -1.171875 -0.453125 -1.71875q-0.4375 -0.546875 -1.109375 -0.546875q-0.640625 0 -1.078125 0.53125q-0.421875 0.515625 -0.421875 1.65625zm8.973373 2.84375l0 -0.71875q-0.53125 0.84375 -1.59375 0.84375q-0.671875 0 -1.25 -0.375q-0.578125 -0.375 -0.890625 -1.046875q-0.3125 -0.671875 -0.3125 -1.546875q0 -0.859375 0.28125 -1.546875q0.296875 -0.703125 0.859375 -1.0625q0.5625 -0.375 1.265625 -0.375q0.515625 0 0.921875 0.21875q0.40625 0.21875 0.65625 0.5625l0 -2.828125l0.96875 0l0 7.875l-0.90625 0zm-3.046875 -2.84375q0 1.09375 0.453125 1.640625q0.46875 0.53125 1.09375 0.53125q0.640625 0 1.078125 -0.515625q0.4375 -0.515625 0.4375 -1.578125q0 -1.171875 -0.453125 -1.71875q-0.4375 -0.546875 -1.109375 -0.546875q-0.640625 0 -1.078125 0.53125q-0.421875 0.515625 -0.421875 1.65625zm5.2858734 -3.921875l0 -1.109375l0.96875 0l0 1.109375l-0.96875 0zm0 6.765625l0 -5.703125l0.96875 0l0 5.703125l-0.96875 0zm4.4768524 -0.859375l0.125 0.84375q-0.40625 0.09375 -0.71875 0.09375q-0.53125 0 -0.828125 -0.171875q-0.28125 -0.171875 -0.40625 -0.4375q-0.109375 -0.265625 -0.109375 -1.140625l0 -3.28125l-0.71875 0l0 -0.75l0.71875 0l0 -1.40625l0.953125 -0.59375l0 2.0l0.984375 0l0 0.75l-0.984375 0l0 3.34375q0 0.40625 0.046875 0.53125q0.0625 0.109375 0.171875 0.1875q0.125 0.0625 0.328125 0.0625q0.171875 0 0.4375 -0.03125zm0.8512726 -5.90625l0 -1.109375l0.96875 0l0 1.109375l-0.96875 0zm0 6.765625l0 -5.703125l0.96875 0l0 5.703125l-0.96875 0zm1.9924774 -2.859375q0 -1.578125 0.890625 -2.34375q0.734375 -0.625 1.7968788 -0.625q1.171875 0 1.90625 0.765625q0.75 0.765625 0.75 2.125q0 1.109375 -0.328125 1.75q-0.328125 0.625 -0.96875 0.96875q-0.625 0.34375 -1.359375 0.34375q-1.2031288 0 -1.9531288 -0.765625q-0.734375 -0.765625 -0.734375 -2.21875zm1.0 0q0 1.109375 0.46875 1.65625q0.484375 0.53125 1.2187538 0.53125q0.71875 0 1.1875 -0.546875q0.484375 -0.546875 0.484375 -1.671875q0 -1.046875 -0.484375 -1.59375q-0.484375 -0.546875 -1.1875 -0.546875q-0.7343788 0 -1.2187538 0.546875q-0.46875 0.53125 -0.46875 1.625zm5.285877 2.859375l0 -5.703125l0.875 0l0 0.8125q0.625 -0.9375 1.8125 -0.9375q0.515625 0 0.953125 0.1875q0.4375 0.171875 0.640625 0.484375q0.21875 0.296875 0.3125 0.703125q0.046875 0.28125 0.046875 0.953125l0 3.5l-0.96875 0l0 -3.46875q0 -0.59375 -0.109375 -0.875q-0.109375 -0.296875 -0.40625 -0.46875q-0.28125 -0.1875 -0.671875 -0.1875q-0.609375 0 -1.0625 0.390625q-0.453125 0.390625 -0.453125 1.5l0 3.109375l-0.96875 0z" fill-rule="nonzero"></path><path fill="#a61c00" d="m35.298817 180.94078l0 -5.703125l0.875 0l0 0.796875q0.265625 -0.421875 0.703125 -0.671875q0.453125 -0.25 1.015625 -0.25q0.640625 0 1.046875 0.265625q0.40625 0.25 0.578125 0.734375q0.671875 -1.0 1.75 -1.0q0.859375 0 1.3125 0.46875q0.453125 0.46875 0.453125 1.4375l0 3.921875l-0.953125 0l0 -3.59375q0 -0.578125 -0.09375 -0.828125q-0.09375 -0.265625 -0.34375 -0.421875q-0.25 -0.15625 -0.578125 -0.15625q-0.609375 0 -1.015625 0.40625q-0.390625 0.40625 -0.390625 1.28125l0 3.3125l-0.96875 0l0 -3.703125q0 -0.640625 -0.234375 -0.96875q-0.234375 -0.328125 -0.765625 -0.328125q-0.40625 0 -0.765625 0.21875q-0.34375 0.21875 -0.5 0.640625q-0.15625 0.40625 -0.15625 1.1875l0 2.953125l-0.96875 0zm8.5173645 -2.859375q0 -1.578125 0.890625 -2.34375q0.734375 -0.625 1.796875 -0.625q1.171875 0 1.90625 0.765625q0.75 0.765625 0.75 2.125q0 1.109375 -0.328125 1.75q-0.328125 0.625 -0.96875 0.96875q-0.625 0.34375 -1.359375 0.34375q-1.203125 0 -1.953125 -0.765625q-0.734375 -0.765625 -0.734375 -2.21875zm1.0 0q0 1.109375 0.46875 1.65625q0.484375 0.53125 1.21875 0.53125q0.71875 0 1.1875 -0.546875q0.484375 -0.546875 0.484375 -1.671875q0 -1.046875 -0.484375 -1.59375q-0.484375 -0.546875 -1.1875 -0.546875q-0.734375 0 -1.21875 0.546875q-0.46875 0.53125 -0.46875 1.625zm8.988998 2.859375l0 -0.71875q-0.53125 0.84375 -1.59375 0.84375q-0.671875 0 -1.25 -0.375q-0.578125 -0.375 -0.890625 -1.046875q-0.3125 -0.671875 -0.3125 -1.546875q0 -0.859375 0.28125 -1.546875q0.296875 -0.703125 0.859375 -1.0625q0.5625 -0.375 1.265625 -0.375q0.515625 0 0.921875 0.21875q0.40625 0.21875 0.65625 0.5625l0 -2.828125l0.96875 0l0 7.875l-0.90625 0zm-3.046875 -2.84375q0 1.09375 0.453125 1.640625q0.46875 0.53125 1.09375 0.53125q0.640625 0 1.078125 -0.515625q0.4375 -0.515625 0.4375 -1.578125q0 -1.171875 -0.453125 -1.71875q-0.4375 -0.546875 -1.109375 -0.546875q-0.640625 0 -1.078125 0.53125q-0.421875 0.515625 -0.421875 1.65625zm9.020248 2.84375l0 -0.84375q-0.671875 0.96875 -1.8125 0.96875q-0.5 0 -0.953125 -0.1875q-0.4375 -0.203125 -0.65625 -0.484375q-0.203125 -0.296875 -0.28125 -0.71875q-0.0625 -0.28125 -0.0625 -0.90625l0 -3.53125l0.96875 0l0 3.15625q0 0.765625 0.0625 1.03125q0.09375 0.375 0.375 0.59375q0.296875 0.21875 0.734375 0.21875q0.4375 0 0.8125 -0.21875q0.390625 -0.234375 0.546875 -0.609375q0.15625 -0.390625 0.15625 -1.109375l0 -3.0625l0.96875 0l0 5.703125l-0.859375 0zm2.1608734 0l0 -7.875l0.96875 0l0 7.875l-0.96875 0zm2.0237274 -2.859375q0 -1.578125 0.8906288 -2.34375q0.734375 -0.625 1.796875 -0.625q1.171875 0 1.90625 0.765625q0.75 0.765625 0.75 2.125q0 1.109375 -0.328125 1.75q-0.328125 0.625 -0.96875 0.96875q-0.625 0.34375 -1.359375 0.34375q-1.203125 0 -1.953125 -0.765625q-0.7343788 -0.765625 -0.7343788 -2.21875zm1.0000038 0q0 1.109375 0.46875 1.65625q0.484375 0.53125 1.21875 0.53125q0.71875 0 1.1875 -0.546875q0.484375 -0.546875 0.484375 -1.671875q0 -1.046875 -0.484375 -1.59375q-0.484375 -0.546875 -1.1875 -0.546875q-0.734375 0 -1.21875 0.546875q-0.46875 0.53125 -0.46875 1.625zm13.059021 1.9375l0 0.921875l-5.203125 0q0 -0.34375 0.125 -0.671875q0.1875 -0.53125 0.625 -1.046875q0.4375 -0.515625 1.265625 -1.1875q1.28125 -1.0625 1.734375 -1.671875q0.453125 -0.609375 0.453125 -1.15625q0 -0.578125 -0.40625 -0.96875q-0.40625 -0.40625 -1.078125 -0.40625q-0.6875 0 -1.109375 0.421875q-0.421875 0.421875 -0.421875 1.15625l-1.0 -0.09375q0.109375 -1.109375 0.765625 -1.6875q0.671875 -0.59375 1.796875 -0.59375q1.125 0 1.78125 0.625q0.671875 0.625 0.671875 1.5625q0 0.46875 -0.203125 0.9375q-0.1875 0.453125 -0.640625 0.953125q-0.4375 0.5 -1.484375 1.390625q-0.875 0.71875 -1.125 0.984375q-0.234375 0.265625 -0.40625 0.53125l3.859375 0zm0.8483734 -1.140625l1.015625 -0.09375q0.109375 0.75 0.515625 1.125q0.421875 0.375 1.0 0.375q0.703125 0 1.1875 -0.53125q0.484375 -0.53125 0.484375 -1.390625q0 -0.828125 -0.46875 -1.296875q-0.46875 -0.484375 -1.21875 -0.484375q-0.46875 0 -0.84375 0.21875q-0.375 0.203125 -0.59375 0.53125l-0.90625 -0.109375l0.765625 -4.046875l3.921875 0l0 0.921875l-3.140625 0l-0.4375 2.109375q0.71875 -0.484375 1.5 -0.484375q1.03125 0 1.734375 0.71875q0.703125 0.703125 0.703125 1.828125q0 1.078125 -0.625 1.84375q-0.75 0.96875 -2.0625 0.96875q-1.078125 0 -1.765625 -0.59375q-0.671875 -0.609375 -0.765625 -1.609375zm10.942123 -3.890625l-0.953125 0.078125q-0.125 -0.5625 -0.375 -0.828125q-0.390625 -0.40625 -0.953125 -0.40625q-0.46875 0 -0.8125 0.25q-0.46875 0.34375 -0.734375 0.984375q-0.25 0.625 -0.265625 1.8125q0.34375 -0.53125 0.84375 -0.78125q0.515625 -0.265625 1.0625 -0.265625q0.96875 0 1.640625 0.71875q0.6875 0.703125 0.6875 1.828125q0 0.75 -0.328125 1.390625q-0.3125 0.625 -0.875 0.96875q-0.546875 0.34375 -1.265625 0.34375q-1.203125 0 -1.96875 -0.890625q-0.765625 -0.890625 -0.765625 -2.9375q0 -2.28125 0.84375 -3.3125q0.75 -0.90625 1.984375 -0.90625q0.9375 0 1.53125 0.53125q0.59375 0.515625 0.703125 1.421875zm-3.9375 3.40625q0 0.5 0.203125 0.953125q0.21875 0.453125 0.59375 0.703125q0.390625 0.234375 0.796875 0.234375q0.625 0 1.0625 -0.5q0.4375 -0.5 0.4375 -1.34375q0 -0.8125 -0.4375 -1.28125q-0.4375 -0.46875 -1.09375 -0.46875q-0.65625 0 -1.109375 0.46875q-0.453125 0.46875 -0.453125 1.234375z" fill-rule="nonzero"></path><path fill="#000000" fill-opacity="0.0" d="m61.99537 155.99677l47.244095 -18.992126" fill-rule="evenodd"></path><path stroke="#a61c00" stroke-width="1.0" stroke-linejoin="round" stroke-linecap="butt" d="m61.995365 155.99677l41.677082 -16.75418" fill-rule="evenodd"></path><path fill="#a61c00" stroke="#a61c00" stroke-width="1.0" stroke-linecap="butt" d="m104.28853 140.77512l3.5945282 -3.2252045l-4.8266907 0.16012573z" fill-rule="evenodd"></path><path fill="#ffffff" d="m110.54023 120.47253l7.845688 0l0 -7.84568l7.3856506 0l0 7.84568l7.84568 0l0 7.3856506l-7.84568 0l0 7.84568l-7.3856506 0l0 -7.84568l-7.845688 0z" fill-rule="evenodd"></path><path stroke="#000000" stroke-width="1.0" stroke-linejoin="round" stroke-linecap="butt" d="m110.54023 120.47253l7.845688 0l0 -7.84568l7.3856506 0l0 7.84568l7.84568 0l0 7.3856506l-7.84568 0l0 7.84568l-7.3856506 0l0 -7.84568l-7.845688 0z" fill-rule="evenodd"></path><path fill="#ffffff" d="m191.03761 120.47253l7.8456726 0l0 -7.84568l7.3856506 0l0 7.84568l7.845688 0l0 7.3856506l-7.845688 0l0 7.84568l-7.3856506 0l0 -7.84568l-7.8456726 0z" fill-rule="evenodd"></path><path stroke="#000000" stroke-width="1.0" stroke-linejoin="round" stroke-linecap="butt" d="m191.03761 120.47253l7.8456726 0l0 -7.84568l7.3856506 0l0 7.84568l7.845688 0l0 7.3856506l-7.845688 0l0 7.84568l-7.3856506 0l0 -7.84568l-7.8456726 0z" fill-rule="evenodd"></path><path fill="#ffffff" d="m271.5363 120.47253l7.845703 0l0 -7.84568l7.3856506 0l0 7.84568l7.8456726 0l0 7.3856506l-7.8456726 0l0 7.84568l-7.3856506 0l0 -7.84568l-7.845703 0z" fill-rule="evenodd"></path><path stroke="#000000" stroke-width="1.0" stroke-linejoin="round" stroke-linecap="butt" d="m271.5363 120.47253l7.845703 0l0 -7.84568l7.3856506 0l0 7.84568l7.8456726 0l0 7.3856506l-7.8456726 0l0 7.84568l-7.3856506 0l0 -7.84568l-7.845703 0z" fill-rule="evenodd"></path><path fill="#ffffff" d="m352.03497 120.47253l7.845703 0l0 -7.84568l7.3856506 0l0 7.84568l7.8456726 0l0 7.3856506l-7.8456726 0l0 7.84568l-7.3856506 0l0 -7.84568l-7.845703 0z" fill-rule="evenodd"></path><path stroke="#000000" stroke-width="1.0" stroke-linejoin="round" stroke-linecap="butt" d="m352.03497 120.47253l7.845703 0l0 -7.84568l7.3856506 0l0 7.84568l7.8456726 0l0 7.3856506l-7.8456726 0l0 7.84568l-7.3856506 0l0 -7.84568l-7.845703 0z" fill-rule="evenodd"></path><path fill="#ffffff" d="m432.53235 120.47253l7.845703 0l0 -7.84568l7.3856506 0l0 7.84568l7.8456726 0l0 7.3856506l-7.8456726 0l0 7.84568l-7.3856506 0l0 -7.84568l-7.845703 0z" fill-rule="evenodd"></path><path stroke="#000000" stroke-width="1.0" stroke-linejoin="round" stroke-linecap="butt" d="m432.53235 120.47253l7.845703 0l0 -7.84568l7.3856506 0l0 7.84568l7.8456726 0l0 7.3856506l-7.8456726 0l0 7.84568l-7.3856506 0l0 -7.84568l-7.845703 0z" fill-rule="evenodd"></path><path fill="#000000" fill-opacity="0.0" d="m576.0 164.02362l107.433044 0l0 34.960632l-107.433044 0z" fill-rule="evenodd"></path><path fill="#a61c00" d="m587.21875 183.26363l-2.078125 -7.875l1.0625 0l1.203125 5.15625q0.1875 0.8125 0.328125 1.625q0.296875 -1.265625 0.359375 -1.46875l1.5 -5.3125l1.25 0l1.125 3.984375q0.421875 1.484375 0.609375 2.796875q0.15625 -0.75 0.390625 -1.71875l1.25 -5.0625l1.046875 0l-2.171875 7.875l-1.0 0l-1.65625 -6.0q-0.21875 -0.75 -0.25 -0.921875q-0.125 0.546875 -0.234375 0.921875l-1.671875 6.0l-1.0625 0zm8.557861 0l0 -5.703125l0.859375 0l0 0.859375q0.34375 -0.609375 0.625 -0.796875q0.28125 -0.1875 0.609375 -0.1875q0.5 0 1.0 0.3125l-0.328125 0.890625q-0.359375 -0.203125 -0.71875 -0.203125q-0.3125 0 -0.5625 0.1875q-0.25 0.1875 -0.359375 0.53125q-0.15625 0.515625 -0.15625 1.125l0 2.984375l-0.96875 0zm7.28302 -0.703125q-0.546875 0.453125 -1.046875 0.640625q-0.484375 0.1875 -1.0625 0.1875q-0.9375 0 -1.453125 -0.453125q-0.5 -0.46875 -0.5 -1.171875q0 -0.421875 0.1875 -0.765625q0.203125 -0.34375 0.5 -0.546875q0.3125 -0.21875 0.703125 -0.328125q0.28125 -0.078125 0.859375 -0.140625q1.171875 -0.140625 1.71875 -0.34375q0.015625 -0.1875 0.015625 -0.25q0 -0.59375 -0.28125 -0.828125q-0.359375 -0.328125 -1.09375 -0.328125q-0.6875 0 -1.015625 0.234375q-0.3125 0.234375 -0.46875 0.84375l-0.953125 -0.125q0.125 -0.609375 0.421875 -0.984375q0.296875 -0.375 0.859375 -0.5625q0.5625 -0.203125 1.296875 -0.203125q0.734375 0 1.1875 0.171875q0.453125 0.171875 0.65625 0.4375q0.21875 0.25 0.3125 0.640625q0.046875 0.25 0.046875 0.90625l0 1.28125q0 1.34375 0.0625 1.703125q0.0625 0.359375 0.25 0.6875l-1.015625 0q-0.15625 -0.296875 -0.1875 -0.703125zm-0.09375 -2.15625q-0.515625 0.21875 -1.578125 0.359375q-0.59375 0.09375 -0.84375 0.203125q-0.234375 0.09375 -0.375 0.3125q-0.140625 0.203125 -0.140625 0.453125q0 0.390625 0.296875 0.65625q0.296875 0.25 0.859375 0.25q0.5625 0 0.984375 -0.25q0.4375 -0.25 0.65625 -0.671875q0.140625 -0.328125 0.140625 -0.96875l0 -0.34375zm2.2858276 5.046875l0 -7.890625l0.890625 0l0 0.734375q0.3125 -0.421875 0.703125 -0.640625q0.390625 -0.21875 0.953125 -0.21875q0.71875 0 1.28125 0.375q0.5625 0.375 0.84375 1.0625q0.28125 0.671875 0.28125 1.5q0 0.875 -0.3125 1.578125q-0.3125 0.6875 -0.921875 1.0625q-0.59375 0.375 -1.25 0.375q-0.484375 0 -0.875 -0.203125q-0.375 -0.203125 -0.625 -0.515625l0 2.78125l-0.96875 0zm0.875 -5.0q0 1.09375 0.453125 1.625q0.453125 0.515625 1.078125 0.515625q0.640625 0 1.09375 -0.53125q0.46875 -0.546875 0.46875 -1.703125q0 -1.078125 -0.453125 -1.625q-0.4375 -0.546875 -1.0625 -0.546875q-0.625 0 -1.109375 0.578125q-0.46875 0.578125 -0.46875 1.6875zm11.746521 2.109375q-0.546875 0.453125 -1.046875 0.640625q-0.484375 0.1875 -1.0625 0.1875q-0.9375 0 -1.453125 -0.453125q-0.5 -0.46875 -0.5 -1.171875q0 -0.421875 0.1875 -0.765625q0.203125 -0.34375 0.5 -0.546875q0.3125 -0.21875 0.703125 -0.328125q0.28125 -0.078125 0.859375 -0.140625q1.171875 -0.140625 1.71875 -0.34375q0.015625 -0.1875 0.015625 -0.25q0 -0.59375 -0.28125 -0.828125q-0.359375 -0.328125 -1.09375 -0.328125q-0.6875 0 -1.015625 0.234375q-0.3125 0.234375 -0.46875 0.84375l-0.953125 -0.125q0.125 -0.609375 0.421875 -0.984375q0.296875 -0.375 0.859375 -0.5625q0.5625 -0.203125 1.296875 -0.203125q0.734375 0 1.1875 0.171875q0.453125 0.171875 0.65625 0.4375q0.21875 0.25 0.3125 0.640625q0.046875 0.25 0.046875 0.90625l0 1.28125q0 1.34375 0.0625 1.703125q0.0625 0.359375 0.25 0.6875l-1.015625 0q-0.15625 -0.296875 -0.1875 -0.703125zm-0.09375 -2.15625q-0.515625 0.21875 -1.578125 0.359375q-0.59375 0.09375 -0.84375 0.203125q-0.234375 0.09375 -0.375 0.3125q-0.140625 0.203125 -0.140625 0.453125q0 0.390625 0.296875 0.65625q0.296875 0.25 0.859375 0.25q0.5625 0 0.984375 -0.25q0.4375 -0.25 0.65625 -0.671875q0.140625 -0.328125 0.140625 -0.96875l0 -0.34375zm2.2858887 2.859375l0 -5.703125l0.859375 0l0 0.859375q0.34375 -0.609375 0.625 -0.796875q0.28125 -0.1875 0.609375 -0.1875q0.5 0 1.0 0.3125l-0.328125 0.890625q-0.359375 -0.203125 -0.71875 -0.203125q-0.3125 0 -0.5625 0.1875q-0.25 0.1875 -0.359375 0.53125q-0.15625 0.515625 -0.15625 1.125l0 2.984375l-0.96875 0zm3.18927 -2.859375q0 -1.578125 0.890625 -2.34375q0.734375 -0.625 1.796875 -0.625q1.171875 0 1.90625 0.765625q0.75 0.765625 0.75 2.125q0 1.109375 -0.328125 1.75q-0.328125 0.625 -0.96875 0.96875q-0.625 0.34375 -1.359375 0.34375q-1.203125 0 -1.953125 -0.765625q-0.734375 -0.765625 -0.734375 -2.21875zm1.0 0q0 1.109375 0.46875 1.65625q0.484375 0.53125 1.21875 0.53125q0.71875 0 1.1875 -0.546875q0.484375 -0.546875 0.484375 -1.671875q0 -1.046875 -0.484375 -1.59375q-0.484375 -0.546875 -1.1875 -0.546875q-0.734375 0 -1.21875 0.546875q-0.46875 0.53125 -0.46875 1.625zm9.035828 2.859375l0 -0.84375q-0.671875 0.96875 -1.8125 0.96875q-0.5 0 -0.953125 -0.1875q-0.4375 -0.203125 -0.65625 -0.484375q-0.203125 -0.296875 -0.28125 -0.71875q-0.0625 -0.28125 -0.0625 -0.90625l0 -3.53125l0.96875 0l0 3.15625q0 0.765625 0.0625 1.03125q0.09375 0.375 0.375 0.59375q0.296875 0.21875 0.734375 0.21875q0.4375 0 0.8125 -0.21875q0.390625 -0.234375 0.546875 -0.609375q0.15625 -0.390625 0.15625 -1.109375l0 -3.0625l0.96875 0l0 5.703125l-0.859375 0zm2.1765137 0l0 -5.703125l0.875 0l0 0.8125q0.625 -0.9375 1.8125 -0.9375q0.515625 0 0.953125 0.1875q0.4375 0.171875 0.640625 0.484375q0.21875 0.296875 0.3125 0.703125q0.046875 0.28125 0.046875 0.953125l0 3.5l-0.96875 0l0 -3.46875q0 -0.59375 -0.109375 -0.875q-0.109375 -0.296875 -0.40625 -0.46875q-0.28125 -0.1875 -0.671875 -0.1875q-0.609375 0 -1.0625 0.390625q-0.453125 0.390625 -0.453125 1.5l0 3.109375l-0.96875 0zm9.629639 0l0 -0.71875q-0.53125 0.84375 -1.59375 0.84375q-0.671875 0 -1.25 -0.375q-0.578125 -0.375 -0.890625 -1.046875q-0.3125 -0.671875 -0.3125 -1.546875q0 -0.859375 0.28125 -1.546875q0.296875 -0.703125 0.859375 -1.0625q0.5625 -0.375 1.265625 -0.375q0.515625 0 0.921875 0.21875q0.40625 0.21875 0.65625 0.5625l0 -2.828125l0.96875 0l0 7.875l-0.90625 0zm-3.046875 -2.84375q0 1.09375 0.453125 1.640625q0.46875 0.53125 1.09375 0.53125q0.640625 0 1.078125 -0.515625q0.4375 -0.515625 0.4375 -1.578125q0 -1.171875 -0.453125 -1.71875q-0.4375 -0.546875 -1.109375 -0.546875q-0.640625 0 -1.078125 0.53125q-0.421875 0.515625 -0.421875 1.65625zm5.7858887 0.890625l-0.28125 -4.171875l0 -1.75l1.1875 0l0 1.75l-0.28125 4.171875l-0.625 0zm-0.25 1.953125l0 -1.09375l1.109375 0l0 1.09375l-1.109375 0z" fill-rule="nonzero"></path><path fill="#a61c00" d="m589.09375 196.26363l-0.96875 0l0 -6.15625q-0.34375 0.328125 -0.90625 0.671875q-0.5625 0.328125 -1.015625 0.484375l0 -0.9375q0.8125 -0.375 1.40625 -0.90625q0.609375 -0.546875 0.859375 -1.0625l0.625 0l0 7.90625zm2.2858887 -3.890625q0 -1.390625 0.28125 -2.234375q0.296875 -0.859375 0.859375 -1.3125q0.578125 -0.46875 1.4375 -0.46875q0.625 0 1.09375 0.265625q0.484375 0.25 0.796875 0.734375q0.3125 0.46875 0.484375 1.171875q0.1875 0.6875 0.1875 1.84375q0 1.390625 -0.296875 2.25q-0.28125 0.84375 -0.84375 1.3125q-0.5625 0.46875 -1.421875 0.46875q-1.140625 0 -1.796875 -0.828125q-0.78125 -0.984375 -0.78125 -3.203125zm1.0 0q0 1.953125 0.453125 2.59375q0.453125 0.640625 1.125 0.640625q0.65625 0 1.109375 -0.640625q0.453125 -0.65625 0.453125 -2.59375q0 -1.9375 -0.453125 -2.578125q-0.453125 -0.640625 -1.125 -0.640625q-0.671875 0 -1.0625 0.5625q-0.5 0.71875 -0.5 2.65625zm4.9889526 -2.953125l0 -0.921875l5.109375 0l0 0.75q-0.765625 0.796875 -1.5 2.125q-0.734375 1.328125 -1.140625 2.71875q-0.28125 1.0 -0.375 2.171875l-0.984375 0q0.015625 -0.921875 0.359375 -2.234375q0.359375 -1.328125 1.0 -2.546875q0.65625 -1.21875 1.390625 -2.0625l-3.859375 0zm8.160889 5.578125l0 -2.171875l-2.140625 0l0 -0.890625l2.140625 0l0 -2.15625l0.921875 0l0 2.15625l2.140625 0l0 0.890625l-2.140625 0l0 2.171875l-0.921875 0zm7.5668335 1.265625l-0.96875 0l0 -6.15625q-0.34375 0.328125 -0.90625 0.671875q-0.5625 0.328125 -1.015625 0.484375l0 -0.9375q0.8125 -0.375 1.40625 -0.90625q0.609375 -0.546875 0.859375 -1.0625l0.625 0l0 7.90625zm3.7702637 -4.265625q-0.59375 -0.21875 -0.890625 -0.625q-0.28125 -0.421875 -0.28125 -0.984375q0 -0.859375 0.609375 -1.4375q0.625 -0.59375 1.65625 -0.59375q1.03125 0 1.65625 0.609375q0.625 0.59375 0.625 1.453125q0 0.546875 -0.296875 0.953125q-0.28125 0.40625 -0.859375 0.625q0.71875 0.234375 1.09375 0.765625q0.390625 0.515625 0.390625 1.25q0 1.015625 -0.71875 1.703125q-0.71875 0.6875 -1.875 0.6875q-1.171875 0 -1.890625 -0.6875q-0.703125 -0.703125 -0.703125 -1.734375q0 -0.765625 0.375 -1.28125q0.390625 -0.515625 1.109375 -0.703125zm-0.1875 -1.640625q0 0.5625 0.359375 0.921875q0.359375 0.34375 0.9375 0.34375q0.5625 0 0.90625 -0.34375q0.359375 -0.359375 0.359375 -0.875q0 -0.53125 -0.375 -0.890625q-0.359375 -0.359375 -0.90625 -0.359375q-0.546875 0 -0.921875 0.359375q-0.359375 0.34375 -0.359375 0.84375zm-0.3125 3.640625q0 0.40625 0.1875 0.796875q0.203125 0.390625 0.59375 0.609375q0.390625 0.203125 0.828125 0.203125q0.703125 0 1.140625 -0.4375q0.453125 -0.453125 0.453125 -1.140625q0 -0.703125 -0.46875 -1.15625q-0.453125 -0.453125 -1.15625 -0.453125q-0.671875 0 -1.125 0.453125q-0.453125 0.4375 -0.453125 1.125zm8.582764 2.265625l-0.96875 0l0 -6.15625q-0.34375 0.328125 -0.90625 0.671875q-0.5625 0.328125 -1.015625 0.484375l0 -0.9375q0.8125 -0.375 1.40625 -0.90625q0.609375 -0.546875 0.859375 -1.0625l0.625 0l0 7.90625zm10.605896 -4.625l-5.203125 0l0 -0.90625l5.203125 0l0 0.90625zm0 2.390625l-5.203125 0l0 -0.90625l5.203125 0l0 0.90625zm8.902466 1.3125l0 0.921875l-5.203125 0q0 -0.34375 0.125 -0.671875q0.1875 -0.53125 0.625 -1.046875q0.4375 -0.515625 1.265625 -1.1875q1.28125 -1.0625 1.734375 -1.671875q0.453125 -0.609375 0.453125 -1.15625q0 -0.578125 -0.40625 -0.96875q-0.40625 -0.40625 -1.078125 -0.40625q-0.6875 0 -1.109375 0.421875q-0.421875 0.421875 -0.421875 1.15625l-1.0 -0.09375q0.109375 -1.109375 0.765625 -1.6875q0.671875 -0.59375 1.796875 -0.59375q1.125 0 1.78125 0.625q0.671875 0.625 0.671875 1.5625q0 0.46875 -0.203125 0.9375q-0.1875 0.453125 -0.640625 0.953125q-0.4375 0.5 -1.484375 1.390625q-0.875 0.71875 -1.125 0.984375q-0.234375 0.265625 -0.40625 0.53125l3.859375 0zm2.3327637 -3.34375q-0.59375 -0.21875 -0.890625 -0.625q-0.28125 -0.421875 -0.28125 -0.984375q0 -0.859375 0.609375 -1.4375q0.625 -0.59375 1.65625 -0.59375q1.03125 0 1.65625 0.609375q0.625 0.59375 0.625 1.453125q0 0.546875 -0.296875 0.953125q-0.28125 0.40625 -0.859375 0.625q0.71875 0.234375 1.09375 0.765625q0.390625 0.515625 0.390625 1.25q0 1.015625 -0.71875 1.703125q-0.71875 0.6875 -1.875 0.6875q-1.171875 0 -1.890625 -0.6875q-0.703125 -0.703125 -0.703125 -1.734375q0 -0.765625 0.375 -1.28125q0.390625 -0.515625 1.109375 -0.703125zm-0.1875 -1.640625q0 0.5625 0.359375 0.921875q0.359375 0.34375 0.9375 0.34375q0.5625 0 0.90625 -0.34375q0.359375 -0.359375 0.359375 -0.875q0 -0.53125 -0.375 -0.890625q-0.359375 -0.359375 -0.90625 -0.359375q-0.546875 0 -0.921875 0.359375q-0.359375 0.34375 -0.359375 0.84375zm-0.3125 3.640625q0 0.40625 0.1875 0.796875q0.203125 0.390625 0.59375 0.609375q0.390625 0.203125 0.828125 0.203125q0.703125 0 1.140625 -0.4375q0.453125 -0.453125 0.453125 -1.140625q0 -0.703125 -0.46875 -1.15625q-0.453125 -0.453125 -1.15625 -0.453125q-0.671875 0 -1.125 0.453125q-0.453125 0.4375 -0.453125 1.125zm6.4264526 -2.0q-0.59375 -0.21875 -0.890625 -0.625q-0.28125 -0.421875 -0.28125 -0.984375q0 -0.859375 0.609375 -1.4375q0.625 -0.59375 1.65625 -0.59375q1.03125 0 1.65625 0.609375q0.625 0.59375 0.625 1.453125q0 0.546875 -0.296875 0.953125q-0.28125 0.40625 -0.859375 0.625q0.71875 0.234375 1.09375 0.765625q0.390625 0.515625 0.390625 1.25q0 1.015625 -0.71875 1.703125q-0.71875 0.6875 -1.875 0.6875q-1.171875 0 -1.890625 -0.6875q-0.703125 -0.703125 -0.703125 -1.734375q0 -0.765625 0.375 -1.28125q0.390625 -0.515625 1.109375 -0.703125zm-0.1875 -1.640625q0 0.5625 0.359375 0.921875q0.359375 0.34375 0.9375 0.34375q0.5625 0 0.90625 -0.34375q0.359375 -0.359375 0.359375 -0.875q0 -0.53125 -0.375 -0.890625q-0.359375 -0.359375 -0.90625 -0.359375q-0.546875 0 -0.921875 0.359375q-0.359375 0.34375 -0.359375 0.84375zm-0.3125 3.640625q0 0.40625 0.1875 0.796875q0.203125 0.390625 0.59375 0.609375q0.390625 0.203125 0.828125 0.203125q0.703125 0 1.140625 -0.4375q0.453125 -0.453125 0.453125 -1.140625q0 -0.703125 -0.46875 -1.15625q-0.453125 -0.453125 -1.15625 -0.453125q-0.671875 0 -1.125 0.453125q-0.453125 0.4375 -0.453125 1.125z" fill-rule="nonzero"></path><path fill="#a61c00" d="m590.8125 204.63863l-5.203125 0l0 -0.90625l5.203125 0l0 0.90625zm0 2.390625l-5.203125 0l0 -0.90625l5.203125 0l0 0.90625zm7.464966 2.234375l-0.96875 0l0 -6.15625q-0.34375 0.328125 -0.90625 0.671875q-0.5625 0.328125 -1.015625 0.484375l0 -0.9375q0.8125 -0.375 1.40625 -0.90625q0.609375 -0.546875 0.859375 -1.0625l0.625 0l0 7.90625zm2.1765137 -6.421875l0.25 -0.765625q0.84375 0.296875 1.234375 0.515625q-0.09375 -0.96875 -0.109375 -1.34375l0.78125 0q-0.015625 0.53125 -0.125 1.34375q0.5625 -0.28125 1.265625 -0.515625l0.25 0.765625q-0.671875 0.21875 -1.328125 0.296875q0.328125 0.28125 0.921875 1.015625l-0.640625 0.453125q-0.3125 -0.421875 -0.75 -1.15625q-0.390625 0.765625 -0.6875 1.15625l-0.640625 -0.453125q0.625 -0.765625 0.890625 -1.015625q-0.6875 -0.140625 -1.3125 -0.296875zm9.334473 5.5l0 0.921875l-5.203125 0q0 -0.34375 0.125 -0.671875q0.1875 -0.53125 0.625 -1.046875q0.4375 -0.515625 1.265625 -1.1875q1.28125 -1.0625 1.734375 -1.671875q0.453125 -0.609375 0.453125 -1.15625q0 -0.578125 -0.40625 -0.96875q-0.40625 -0.40625 -1.078125 -0.40625q-0.6875 0 -1.109375 0.421875q-0.421875 0.421875 -0.421875 1.15625l-1.0 -0.09375q0.109375 -1.109375 0.765625 -1.6875q0.671875 -0.59375 1.796875 -0.59375q1.125 0 1.78125 0.625q0.671875 0.625 0.671875 1.5625q0 0.46875 -0.203125 0.9375q-0.1875 0.453125 -0.640625 0.953125q-0.4375 0.5 -1.484375 1.390625q-0.875 0.71875 -1.125 0.984375q-0.234375 0.265625 -0.40625 0.53125l3.859375 0zm0.8483887 -1.140625l1.015625 -0.09375q0.109375 0.75 0.515625 1.125q0.421875 0.375 1.0 0.375q0.703125 0 1.1875 -0.53125q0.484375 -0.53125 0.484375 -1.390625q0 -0.828125 -0.46875 -1.296875q-0.46875 -0.484375 -1.21875 -0.484375q-0.46875 0 -0.84375 0.21875q-0.375 0.203125 -0.59375 0.53125l-0.90625 -0.109375l0.765625 -4.046875l3.921875 0l0 0.921875l-3.140625 0l-0.4375 2.109375q0.71875 -0.484375 1.5 -0.484375q1.03125 0 1.734375 0.71875q0.703125 0.703125 0.703125 1.828125q0 1.078125 -0.625 1.84375q-0.75 0.96875 -2.0625 0.96875q-1.078125 0 -1.765625 -0.59375q-0.671875 -0.609375 -0.765625 -1.609375zm10.942139 -3.890625l-0.953125 0.078125q-0.125 -0.5625 -0.375 -0.828125q-0.390625 -0.40625 -0.953125 -0.40625q-0.46875 0 -0.8125 0.25q-0.46875 0.34375 -0.734375 0.984375q-0.25 0.625 -0.265625 1.8125q0.34375 -0.53125 0.84375 -0.78125q0.515625 -0.265625 1.0625 -0.265625q0.96875 0 1.640625 0.71875q0.6875 0.703125 0.6875 1.828125q0 0.75 -0.328125 1.390625q-0.3125 0.625 -0.875 0.96875q-0.546875 0.34375 -1.265625 0.34375q-1.203125 0 -1.96875 -0.890625q-0.765625 -0.890625 -0.765625 -2.9375q0 -2.28125 0.84375 -3.3125q0.75 -0.90625 1.984375 -0.90625q0.9375 0 1.53125 0.53125q0.59375 0.515625 0.703125 1.421875zm-3.9375 3.40625q0 0.5 0.203125 0.953125q0.21875 0.453125 0.59375 0.703125q0.390625 0.234375 0.796875 0.234375q0.625 0 1.0625 -0.5q0.4375 -0.5 0.4375 -1.34375q0 -0.8125 -0.4375 -1.28125q-0.4375 -0.46875 -1.09375 -0.46875q-0.65625 0 -1.109375 0.46875q-0.453125 0.46875 -0.453125 1.234375zm10.105896 1.28125l0 -2.171875l-2.140625 0l0 -0.890625l2.140625 0l0 -2.15625l0.921875 0l0 2.15625l2.140625 0l0 0.890625l-2.140625 0l0 2.171875l-0.921875 0zm6.902466 -0.8125l0.953125 -0.125q0.171875 0.8125 0.5625 1.1875q0.40625 0.359375 0.984375 0.359375q0.6875 0 1.15625 -0.46875q0.46875 -0.484375 0.46875 -1.171875q0 -0.671875 -0.4375 -1.09375q-0.4375 -0.4375 -1.109375 -0.4375q-0.265625 0 -0.671875 0.09375l0.09375 -0.84375q0.109375 0.015625 0.15625 0.015625q0.625 0 1.109375 -0.3125q0.5 -0.328125 0.5 -1.0q0 -0.53125 -0.359375 -0.875q-0.359375 -0.359375 -0.921875 -0.359375q-0.5625 0 -0.9375 0.359375q-0.375 0.34375 -0.484375 1.0625l-0.96875 -0.171875q0.171875 -0.984375 0.796875 -1.515625q0.640625 -0.53125 1.5625 -0.53125q0.65625 0 1.1875 0.28125q0.546875 0.265625 0.828125 0.75q0.296875 0.484375 0.296875 1.015625q0 0.515625 -0.28125 0.9375q-0.265625 0.40625 -0.8125 0.65625q0.703125 0.15625 1.09375 0.671875q0.390625 0.5 0.390625 1.265625q0 1.03125 -0.765625 1.75q-0.75 0.71875 -1.890625 0.71875q-1.046875 0 -1.734375 -0.609375q-0.671875 -0.625 -0.765625 -1.609375zm10.989014 1.15625l0 0.921875l-5.203125 0q0 -0.34375 0.125 -0.671875q0.1875 -0.53125 0.625 -1.046875q0.4375 -0.515625 1.265625 -1.1875q1.28125 -1.0625 1.734375 -1.671875q0.453125 -0.609375 0.453125 -1.15625q0 -0.578125 -0.40625 -0.96875q-0.40625 -0.40625 -1.078125 -0.40625q-0.6875 0 -1.109375 0.421875q-0.421875 0.421875 -0.421875 1.15625l-1.0 -0.09375q0.109375 -1.109375 0.765625 -1.6875q0.671875 -0.59375 1.796875 -0.59375q1.125 0 1.78125 0.625q0.671875 0.625 0.671875 1.5625q0 0.46875 -0.203125 0.9375q-0.1875 0.453125 -0.640625 0.953125q-0.4375 0.5 -1.484375 1.390625q-0.875 0.71875 -1.125 0.984375q-0.234375 0.265625 -0.40625 0.53125l3.859375 0z" fill-rule="nonzero"></path><path fill="#000000" fill-opacity="0.0" d="m579.50134 193.0l-245.51184 -18.992126" fill-rule="evenodd"></path><path stroke="#a61c00" stroke-width="1.0" stroke-linejoin="round" stroke-linecap="butt" d="m579.50134 193.0l-239.52972 -18.529358" fill-rule="evenodd"></path><path fill="#a61c00" stroke="#a61c00" stroke-width="1.0" stroke-linecap="butt" d="m340.09903 172.82382l-4.6519775 1.2967987l4.3971863 1.9968262z" fill-rule="evenodd"></path><path fill="#000000" fill-opacity="0.0" d="m571.0 98.04462l107.433044 0l0 34.960632l-107.433044 0z" fill-rule="evenodd"></path><path fill="#a61c00" d="m582.21875 117.28462l-2.078125 -7.875l1.0625 0l1.203125 5.15625q0.1875 0.8125 0.328125 1.625q0.296875 -1.265625 0.359375 -1.46875l1.5 -5.3125l1.25 0l1.125 3.984375q0.421875 1.484375 0.609375 2.796875q0.15625 -0.75 0.390625 -1.71875l1.25 -5.0625l1.046875 0l-2.171875 7.875l-1.0 0l-1.65625 -6.0q-0.21875 -0.75 -0.25 -0.921875q-0.125 0.546875 -0.234375 0.921875l-1.671875 6.0l-1.0625 0zm8.557861 0l0 -5.703125l0.859375 0l0 0.859375q0.34375 -0.609375 0.625 -0.796875q0.28125 -0.1875 0.609375 -0.1875q0.5 0 1.0 0.3125l-0.328125 0.890625q-0.359375 -0.203125 -0.71875 -0.203125q-0.3125 0 -0.5625 0.1875q-0.25 0.1875 -0.359375 0.53125q-0.15625 0.515625 -0.15625 1.125l0 2.984375l-0.96875 0zm7.28302 -0.703125q-0.546875 0.453125 -1.046875 0.640625q-0.484375 0.1875 -1.0625 0.1875q-0.9375 0 -1.453125 -0.453125q-0.5 -0.46875 -0.5 -1.171875q0 -0.421875 0.1875 -0.765625q0.203125 -0.34375 0.5 -0.546875q0.3125 -0.21875 0.703125 -0.328125q0.28125 -0.078125 0.859375 -0.140625q1.171875 -0.140625 1.71875 -0.34375q0.015625 -0.1875 0.015625 -0.25q0 -0.59375 -0.28125 -0.828125q-0.359375 -0.328125 -1.09375 -0.328125q-0.6875 0 -1.015625 0.234375q-0.3125 0.234375 -0.46875 0.84375l-0.953125 -0.125q0.125 -0.609375 0.421875 -0.984375q0.296875 -0.375 0.859375 -0.5625q0.5625 -0.203125 1.296875 -0.203125q0.734375 0 1.1875 0.171875q0.453125 0.171875 0.65625 0.4375q0.21875 0.25 0.3125 0.640625q0.046875 0.25 0.046875 0.90625l0 1.28125q0 1.34375 0.0625 1.703125q0.0625 0.359375 0.25 0.6875l-1.015625 0q-0.15625 -0.296875 -0.1875 -0.703125zm-0.09375 -2.15625q-0.515625 0.21875 -1.578125 0.359375q-0.59375 0.09375 -0.84375 0.203125q-0.234375 0.09375 -0.375 0.3125q-0.140625 0.203125 -0.140625 0.453125q0 0.390625 0.296875 0.65625q0.296875 0.25 0.859375 0.25q0.5625 0 0.984375 -0.25q0.4375 -0.25 0.65625 -0.671875q0.140625 -0.328125 0.140625 -0.96875l0 -0.34375zm2.2858276 5.046875l0 -7.890625l0.890625 0l0 0.734375q0.3125 -0.421875 0.703125 -0.640625q0.390625 -0.21875 0.953125 -0.21875q0.71875 0 1.28125 0.375q0.5625 0.375 0.84375 1.0625q0.28125 0.671875 0.28125 1.5q0 0.875 -0.3125 1.578125q-0.3125 0.6875 -0.921875 1.0625q-0.59375 0.375 -1.25 0.375q-0.484375 0 -0.875 -0.203125q-0.375 -0.203125 -0.625 -0.515625l0 2.78125l-0.96875 0zm0.875 -5.0q0 1.09375 0.453125 1.625q0.453125 0.515625 1.078125 0.515625q0.640625 0 1.09375 -0.53125q0.46875 -0.546875 0.46875 -1.703125q0 -1.078125 -0.453125 -1.625q-0.4375 -0.546875 -1.0625 -0.546875q-0.625 0 -1.109375 0.578125q-0.46875 0.578125 -0.46875 1.6875zm11.746521 2.109375q-0.546875 0.453125 -1.046875 0.640625q-0.484375 0.1875 -1.0625 0.1875q-0.9375 0 -1.453125 -0.453125q-0.5 -0.46875 -0.5 -1.171875q0 -0.421875 0.1875 -0.765625q0.203125 -0.34375 0.5 -0.546875q0.3125 -0.21875 0.703125 -0.328125q0.28125 -0.078125 0.859375 -0.140625q1.171875 -0.140625 1.71875 -0.34375q0.015625 -0.1875 0.015625 -0.25q0 -0.59375 -0.28125 -0.828125q-0.359375 -0.328125 -1.09375 -0.328125q-0.6875 0 -1.015625 0.234375q-0.3125 0.234375 -0.46875 0.84375l-0.953125 -0.125q0.125 -0.609375 0.421875 -0.984375q0.296875 -0.375 0.859375 -0.5625q0.5625 -0.203125 1.296875 -0.203125q0.734375 0 1.1875 0.171875q0.453125 0.171875 0.65625 0.4375q0.21875 0.25 0.3125 0.640625q0.046875 0.25 0.046875 0.90625l0 1.28125q0 1.34375 0.0625 1.703125q0.0625 0.359375 0.25 0.6875l-1.015625 0q-0.15625 -0.296875 -0.1875 -0.703125zm-0.09375 -2.15625q-0.515625 0.21875 -1.578125 0.359375q-0.59375 0.09375 -0.84375 0.203125q-0.234375 0.09375 -0.375 0.3125q-0.140625 0.203125 -0.140625 0.453125q0 0.390625 0.296875 0.65625q0.296875 0.25 0.859375 0.25q0.5625 0 0.984375 -0.25q0.4375 -0.25 0.65625 -0.671875q0.140625 -0.328125 0.140625 -0.96875l0 -0.34375zm2.2858887 2.859375l0 -5.703125l0.859375 0l0 0.859375q0.34375 -0.609375 0.625 -0.796875q0.28125 -0.1875 0.609375 -0.1875q0.5 0 1.0 0.3125l-0.328125 0.890625q-0.359375 -0.203125 -0.71875 -0.203125q-0.3125 0 -0.5625 0.1875q-0.25 0.1875 -0.359375 0.53125q-0.15625 0.515625 -0.15625 1.125l0 2.984375l-0.96875 0zm3.18927 -2.859375q0 -1.578125 0.890625 -2.34375q0.734375 -0.625 1.796875 -0.625q1.171875 0 1.90625 0.765625q0.75 0.765625 0.75 2.125q0 1.109375 -0.328125 1.75q-0.328125 0.625 -0.96875 0.96875q-0.625 0.34375 -1.359375 0.34375q-1.203125 0 -1.953125 -0.765625q-0.734375 -0.765625 -0.734375 -2.21875zm1.0 0q0 1.109375 0.46875 1.65625q0.484375 0.53125 1.21875 0.53125q0.71875 0 1.1875 -0.546875q0.484375 -0.546875 0.484375 -1.671875q0 -1.046875 -0.484375 -1.59375q-0.484375 -0.546875 -1.1875 -0.546875q-0.734375 0 -1.21875 0.546875q-0.46875 0.53125 -0.46875 1.625zm9.035828 2.859375l0 -0.84375q-0.671875 0.96875 -1.8125 0.96875q-0.5 0 -0.953125 -0.1875q-0.4375 -0.203125 -0.65625 -0.484375q-0.203125 -0.296875 -0.28125 -0.71875q-0.0625 -0.28125 -0.0625 -0.90625l0 -3.53125l0.96875 0l0 3.15625q0 0.765625 0.0625 1.03125q0.09375 0.375 0.375 0.59375q0.296875 0.21875 0.734375 0.21875q0.4375 0 0.8125 -0.21875q0.390625 -0.234375 0.546875 -0.609375q0.15625 -0.390625 0.15625 -1.109375l0 -3.0625l0.96875 0l0 5.703125l-0.859375 0zm2.1765137 0l0 -5.703125l0.875 0l0 0.8125q0.625 -0.9375 1.8125 -0.9375q0.515625 0 0.953125 0.1875q0.4375 0.171875 0.640625 0.484375q0.21875 0.296875 0.3125 0.703125q0.046875 0.28125 0.046875 0.953125l0 3.5l-0.96875 0l0 -3.46875q0 -0.59375 -0.109375 -0.875q-0.109375 -0.296875 -0.40625 -0.46875q-0.28125 -0.1875 -0.671875 -0.1875q-0.609375 0 -1.0625 0.390625q-0.453125 0.390625 -0.453125 1.5l0 3.109375l-0.96875 0zm9.629639 0l0 -0.71875q-0.53125 0.84375 -1.59375 0.84375q-0.671875 0 -1.25 -0.375q-0.578125 -0.375 -0.890625 -1.046875q-0.3125 -0.671875 -0.3125 -1.546875q0 -0.859375 0.28125 -1.546875q0.296875 -0.703125 0.859375 -1.0625q0.5625 -0.375 1.265625 -0.375q0.515625 0 0.921875 0.21875q0.40625 0.21875 0.65625 0.5625l0 -2.828125l0.96875 0l0 7.875l-0.90625 0zm-3.046875 -2.84375q0 1.09375 0.453125 1.640625q0.46875 0.53125 1.09375 0.53125q0.640625 0 1.078125 -0.515625q0.4375 -0.515625 0.4375 -1.578125q0 -1.171875 -0.453125 -1.71875q-0.4375 -0.546875 -1.109375 -0.546875q-0.640625 0 -1.078125 0.53125q-0.421875 0.515625 -0.421875 1.65625zm5.7858887 0.890625l-0.28125 -4.171875l0 -1.75l1.1875 0l0 1.75l-0.28125 4.171875l-0.625 0zm-0.25 1.953125l0 -1.09375l1.109375 0l0 1.09375l-1.109375 0z" fill-rule="nonzero"></path><path fill="#a61c00" d="m584.09375 130.28462l-0.96875 0l0 -6.1562576q-0.34375 0.328125 -0.90625 0.671875q-0.5625 0.328125 -1.015625 0.484375l0 -0.9375q0.8125 -0.375 1.40625 -0.90625q0.609375 -0.546875 0.859375 -1.0625l0.625 0l0 7.9062576zm7.3640137 -0.921875l0 0.921875l-5.203125 0q0 -0.34375 0.125 -0.671875q0.1875 -0.53125 0.625 -1.046875q0.4375 -0.515625 1.265625 -1.1875076q1.28125 -1.0625 1.734375 -1.671875q0.453125 -0.609375 0.453125 -1.15625q0 -0.578125 -0.40625 -0.96875q-0.40625 -0.40625 -1.078125 -0.40625q-0.6875 0 -1.109375 0.421875q-0.421875 0.421875 -0.421875 1.15625l-1.0 -0.09375q0.109375 -1.109375 0.765625 -1.6875q0.671875 -0.59375 1.796875 -0.59375q1.125 0 1.78125 0.625q0.671875 0.625 0.671875 1.5625q0 0.46875 -0.203125 0.9375q-0.1875 0.453125 -0.640625 0.953125q-0.4375 0.5 -1.484375 1.390625q-0.875 0.7187576 -1.125 0.9843826q-0.234375 0.265625 -0.40625 0.53125l3.859375 0zm0.84832764 -1.140625l1.015625 -0.09375q0.109375 0.75 0.515625 1.125q0.421875 0.375 1.0 0.375q0.703125 0 1.1875 -0.53125q0.484375 -0.53125 0.484375 -1.3906326q0 -0.828125 -0.46875 -1.296875q-0.46875 -0.484375 -1.21875 -0.484375q-0.46875 0 -0.84375 0.21875q-0.375 0.203125 -0.59375 0.53125l-0.90625 -0.109375l0.765625 -4.046875l3.921875 0l0 0.921875l-3.140625 0l-0.4375 2.109375q0.71875 -0.484375 1.5 -0.484375q1.03125 0 1.734375 0.71875q0.703125 0.703125 0.703125 1.828125q0 1.0781326 -0.625 1.8437576q-0.75 0.96875 -2.0625 0.96875q-1.078125 0 -1.765625 -0.59375q-0.671875 -0.609375 -0.765625 -1.609375zm8.223389 0.796875l0 -2.1718826l-2.140625 0l0 -0.890625l2.140625 0l0 -2.15625l0.921875 0l0 2.15625l2.140625 0l0 0.890625l-2.140625 0l0 2.1718826l-0.921875 0zm9.0043335 0.34375l0 0.921875l-5.203125 0q0 -0.34375 0.125 -0.671875q0.1875 -0.53125 0.625 -1.046875q0.4375 -0.515625 1.265625 -1.1875076q1.28125 -1.0625 1.734375 -1.671875q0.453125 -0.609375 0.453125 -1.15625q0 -0.578125 -0.40625 -0.96875q-0.40625 -0.40625 -1.078125 -0.40625q-0.6875 0 -1.109375 0.421875q-0.421875 0.421875 -0.421875 1.15625l-1.0 -0.09375q0.109375 -1.109375 0.765625 -1.6875q0.671875 -0.59375 1.796875 -0.59375q1.125 0 1.78125 0.625q0.671875 0.625 0.671875 1.5625q0 0.46875 -0.203125 0.9375q-0.1875 0.453125 -0.640625 0.953125q-0.4375 0.5 -1.484375 1.390625q-0.875 0.7187576 -1.125 0.9843826q-0.234375 0.265625 -0.40625 0.53125l3.859375 0zm0.8640137 -1.15625l0.953125 -0.125q0.171875 0.8125 0.5625 1.1875q0.40625 0.359375 0.984375 0.359375q0.6875 0 1.15625 -0.46875q0.46875 -0.484375 0.46875 -1.1718826q0 -0.671875 -0.4375 -1.09375q-0.4375 -0.4375 -1.109375 -0.4375q-0.265625 0 -0.671875 0.09375l0.09375 -0.84375q0.109375 0.015625 0.15625 0.015625q0.625 0 1.109375 -0.3125q0.5 -0.328125 0.5 -1.0q0 -0.53125 -0.359375 -0.875q-0.359375 -0.359375 -0.921875 -0.359375q-0.5625 0 -0.9375 0.359375q-0.375 0.34375 -0.484375 1.0625l-0.96875 -0.171875q0.171875 -0.984375 0.796875 -1.515625q0.640625 -0.53125 1.5625 -0.53125q0.65625 0 1.1875 0.28125q0.546875 0.265625 0.828125 0.75q0.296875 0.484375 0.296875 1.015625q0 0.515625 -0.28125 0.9375q-0.265625 0.40625 -0.8125 0.65625q0.703125 0.15625 1.09375 0.671875q0.390625 0.5 0.390625 1.265625q0 1.0312576 -0.765625 1.7500076q-0.75 0.71875 -1.890625 0.71875q-1.046875 0 -1.734375 -0.609375q-0.671875 -0.625 -0.765625 -1.609375zm5.9108887 -1.8125076q0 -1.390625 0.28125 -2.234375q0.296875 -0.859375 0.859375 -1.3125q0.578125 -0.46875 1.4375 -0.46875q0.625 0 1.09375 0.265625q0.484375 0.25 0.796875 0.734375q0.3125 0.46875 0.484375 1.171875q0.1875 0.6875 0.1875 1.84375q0 1.390625 -0.296875 2.2500076q-0.28125 0.84375 -0.84375 1.3125q-0.5625 0.46875 -1.421875 0.46875q-1.140625 0 -1.796875 -0.828125q-0.78125 -0.984375 -0.78125 -3.2031326zm1.0 0q0 1.9531326 0.453125 2.5937576q0.453125 0.640625 1.125 0.640625q0.65625 0 1.109375 -0.640625q0.453125 -0.65625 0.453125 -2.5937576q0 -1.9375 -0.453125 -2.578125q-0.453125 -0.640625 -1.125 -0.640625q-0.671875 0 -1.0625 0.5625q-0.5 0.71875 -0.5 2.65625zm10.285828 -0.734375l-5.203125 0l0 -0.90625l5.203125 0l0 0.90625zm0 2.3906326l-5.203125 0l0 -0.9062576l5.203125 0l0 0.9062576zm0.8793335 0.15625l0.953125 -0.125q0.171875 0.8125 0.5625 1.1875q0.40625 0.359375 0.984375 0.359375q0.6875 0 1.15625 -0.46875q0.46875 -0.484375 0.46875 -1.1718826q0 -0.671875 -0.4375 -1.09375q-0.4375 -0.4375 -1.109375 -0.4375q-0.265625 0 -0.671875 0.09375l0.09375 -0.84375q0.109375 0.015625 0.15625 0.015625q0.625 0 1.109375 -0.3125q0.5 -0.328125 0.5 -1.0q0 -0.53125 -0.359375 -0.875q-0.359375 -0.359375 -0.921875 -0.359375q-0.5625 0 -0.9375 0.359375q-0.375 0.34375 -0.484375 1.0625l-0.96875 -0.171875q0.171875 -0.984375 0.796875 -1.515625q0.640625 -0.53125 1.5625 -0.53125q0.65625 0 1.1875 0.28125q0.546875 0.265625 0.828125 0.75q0.296875 0.484375 0.296875 1.015625q0 0.515625 -0.28125 0.9375q-0.265625 0.40625 -0.8125 0.65625q0.703125 0.15625 1.09375 0.671875q0.390625 0.5 0.390625 1.265625q0 1.0312576 -0.765625 1.7500076q-0.75 0.71875 -1.890625 0.71875q-1.046875 0 -1.734375 -0.609375q-0.671875 -0.625 -0.765625 -1.609375zm5.9108887 0.015625l1.015625 -0.09375q0.109375 0.75 0.515625 1.125q0.421875 0.375 1.0 0.375q0.703125 0 1.1875 -0.53125q0.484375 -0.53125 0.484375 -1.3906326q0 -0.828125 -0.46875 -1.296875q-0.46875 -0.484375 -1.21875 -0.484375q-0.46875 0 -0.84375 0.21875q-0.375 0.203125 -0.59375 0.53125l-0.90625 -0.109375l0.765625 -4.046875l3.921875 0l0 0.921875l-3.140625 0l-0.4375 2.109375q0.71875 -0.484375 1.5 -0.484375q1.03125 0 1.734375 0.71875q0.703125 0.703125 0.703125 1.828125q0 1.0781326 -0.625 1.8437576q-0.75 0.96875 -2.0625 0.96875q-1.078125 0 -1.765625 -0.59375q-0.671875 -0.609375 -0.765625 -1.609375zm5.9265137 0l1.015625 -0.09375q0.109375 0.75 0.515625 1.125q0.421875 0.375 1.0 0.375q0.703125 0 1.1875 -0.53125q0.484375 -0.53125 0.484375 -1.3906326q0 -0.828125 -0.46875 -1.296875q-0.46875 -0.484375 -1.21875 -0.484375q-0.46875 0 -0.84375 0.21875q-0.375 0.203125 -0.59375 0.53125l-0.90625 -0.109375l0.765625 -4.046875l3.921875 0l0 0.921875l-3.140625 0l-0.4375 2.109375q0.71875 -0.484375 1.5 -0.484375q1.03125 0 1.734375 0.71875q0.703125 0.703125 0.703125 1.828125q0 1.0781326 -0.625 1.8437576q-0.75 0.96875 -2.0625 0.96875q-1.078125 0 -1.765625 -0.59375q-0.671875 -0.609375 -0.765625 -1.609375z" fill-rule="nonzero"></path><path fill="#a61c00" d="m585.8125 138.65962l-5.203125 0l0 -0.90625l5.203125 0l0 0.90625zm0 2.390625l-5.203125 0l0 -0.90625l5.203125 0l0 0.90625zm4.5043335 2.234375l-0.96875 0l0 -6.15625q-0.34375 0.328125 -0.90625 0.671875q-0.5625 0.328125 -1.015625 0.484375l0 -0.9375q0.8125 -0.375 1.40625 -0.90625q0.609375 -0.546875 0.859375 -1.0625l0.625 0l0 7.90625zm2.1765137 -6.421875l0.25 -0.765625q0.84375 0.296875 1.234375 0.515625q-0.09375 -0.96875 -0.109375 -1.34375l0.78125 0q-0.015625 0.53125 -0.125 1.34375q0.5625 -0.28125 1.265625 -0.515625l0.25 0.765625q-0.671875 0.21875 -1.328125 0.296875q0.328125 0.28125 0.921875 1.015625l-0.640625 0.453125q-0.3125 -0.421875 -0.75 -1.15625q-0.390625 0.765625 -0.6875 1.15625l-0.640625 -0.453125q0.625 -0.765625 0.890625 -1.015625q-0.6875 -0.140625 -1.3125 -0.296875zm9.334473 5.5l0 0.921875l-5.203125 0q0 -0.34375 0.125 -0.671875q0.1875 -0.53125 0.625 -1.046875q0.4375 -0.515625 1.265625 -1.1875q1.28125 -1.0625 1.734375 -1.671875q0.453125 -0.609375 0.453125 -1.15625q0 -0.578125 -0.40625 -0.96875q-0.40625 -0.40625 -1.078125 -0.40625q-0.6875 0 -1.109375 0.421875q-0.421875 0.421875 -0.421875 1.15625l-1.0 -0.09375q0.109375 -1.109375 0.765625 -1.6875q0.671875 -0.59375 1.796875 -0.59375q1.125 0 1.78125 0.625q0.671875 0.625 0.671875 1.5625q0 0.46875 -0.203125 0.9375q-0.1875 0.453125 -0.640625 0.953125q-0.4375 0.5 -1.484375 1.390625q-0.875 0.71875 -1.125 0.984375q-0.234375 0.265625 -0.40625 0.53125l3.859375 0zm0.8483887 -1.140625l1.015625 -0.09375q0.109375 0.75 0.515625 1.125q0.421875 0.375 1.0 0.375q0.703125 0 1.1875 -0.53125q0.484375 -0.53125 0.484375 -1.390625q0 -0.828125 -0.46875 -1.296875q-0.46875 -0.484375 -1.21875 -0.484375q-0.46875 0 -0.84375 0.21875q-0.375 0.203125 -0.59375 0.53125l-0.90625 -0.109375l0.765625 -4.046875l3.921875 0l0 0.921875l-3.140625 0l-0.4375 2.109375q0.71875 -0.484375 1.5 -0.484375q1.03125 0 1.734375 0.71875q0.703125 0.703125 0.703125 1.828125q0 1.078125 -0.625 1.84375q-0.75 0.96875 -2.0625 0.96875q-1.078125 0 -1.765625 -0.59375q-0.671875 -0.609375 -0.765625 -1.609375zm10.942078 -3.890625l-0.953125 0.078125q-0.125 -0.5625 -0.375 -0.828125q-0.390625 -0.40625 -0.953125 -0.40625q-0.46875 0 -0.8125 0.25q-0.46875 0.34375 -0.734375 0.984375q-0.25 0.625 -0.265625 1.8125q0.34375 -0.53125 0.84375 -0.78125q0.515625 -0.265625 1.0625 -0.265625q0.96875 0 1.640625 0.71875q0.6875 0.703125 0.6875 1.828125q0 0.75 -0.328125 1.390625q-0.3125 0.625 -0.875 0.96875q-0.546875 0.34375 -1.265625 0.34375q-1.203125 0 -1.96875 -0.890625q-0.765625 -0.890625 -0.765625 -2.9375q0 -2.28125 0.84375 -3.3125q0.75 -0.90625 1.984375 -0.90625q0.9375 0 1.53125 0.53125q0.59375 0.515625 0.703125 1.421875zm-3.9375 3.40625q0 0.5 0.203125 0.953125q0.21875 0.453125 0.59375 0.703125q0.390625 0.234375 0.796875 0.234375q0.625 0 1.0625 -0.5q0.4375 -0.5 0.4375 -1.34375q0 -0.8125 -0.4375 -1.28125q-0.4375 -0.46875 -1.09375 -0.46875q-0.65625 0 -1.109375 0.46875q-0.453125 0.46875 -0.453125 1.234375zm7.1452637 1.28125l0 -2.171875l-2.140625 0l0 -0.890625l2.140625 0l0 -2.15625l0.921875 0l0 2.15625l2.140625 0l0 0.890625l-2.140625 0l0 2.171875l-0.921875 0zm4.0824585 -0.5625l0.921875 -0.078125q0.125 0.65625 0.453125 0.953125q0.328125 0.296875 0.859375 0.296875q0.4375 0 0.765625 -0.203125q0.34375 -0.203125 0.5625 -0.546875q0.21875 -0.34375 0.359375 -0.921875q0.140625 -0.578125 0.140625 -1.1875q0 -0.0625 0 -0.1875q-0.296875 0.453125 -0.796875 0.75q-0.5 0.28125 -1.09375 0.28125q-0.96875 0 -1.65625 -0.703125q-0.671875 -0.71875 -0.671875 -1.875q0 -1.203125 0.703125 -1.921875q0.71875 -0.734375 1.78125 -0.734375q0.765625 0 1.390625 0.421875q0.640625 0.40625 0.96875 1.171875q0.34375 0.765625 0.34375 2.21875q0 1.5 -0.328125 2.40625q-0.328125 0.890625 -0.984375 1.359375q-0.640625 0.46875 -1.515625 0.46875q-0.921875 0 -1.515625 -0.515625q-0.578125 -0.515625 -0.6875 -1.453125zm3.953125 -3.46875q0 -0.828125 -0.453125 -1.3125q-0.4375 -0.5 -1.0625 -0.5q-0.640625 0 -1.125 0.53125q-0.46875 0.53125 -0.46875 1.359375q0 0.75 0.453125 1.21875q0.453125 0.46875 1.125 0.46875q0.671875 0 1.09375 -0.46875q0.4375 -0.46875 0.4375 -1.296875zm1.9733887 3.46875l0.921875 -0.078125q0.125 0.65625 0.453125 0.953125q0.328125 0.296875 0.859375 0.296875q0.4375 0 0.765625 -0.203125q0.34375 -0.203125 0.5625 -0.546875q0.21875 -0.34375 0.359375 -0.921875q0.140625 -0.578125 0.140625 -1.1875q0 -0.0625 0 -0.1875q-0.296875 0.453125 -0.796875 0.75q-0.5 0.28125 -1.09375 0.28125q-0.96875 0 -1.65625 -0.703125q-0.671875 -0.71875 -0.671875 -1.875q0 -1.203125 0.703125 -1.921875q0.71875 -0.734375 1.78125 -0.734375q0.765625 0 1.390625 0.421875q0.640625 0.40625 0.96875 1.171875q0.34375 0.765625 0.34375 2.21875q0 1.5 -0.328125 2.40625q-0.328125 0.890625 -0.984375 1.359375q-0.640625 0.46875 -1.515625 0.46875q-0.921875 0 -1.515625 -0.515625q-0.578125 -0.515625 -0.6875 -1.453125zm3.953125 -3.46875q0 -0.828125 -0.453125 -1.3125q-0.4375 -0.5 -1.0625 -0.5q-0.640625 0 -1.125 0.53125q-0.46875 0.53125 -0.46875 1.359375q0 0.75 0.453125 1.21875q0.453125 0.46875 1.125 0.46875q0.671875 0 1.09375 -0.46875q0.4375 -0.46875 0.4375 -1.296875z" fill-rule="nonzero"></path><path fill="#000000" fill-opacity="0.0" d="m576.0 140.50131l-24.0 5.0078735" fill-rule="evenodd"></path><path stroke="#a61c00" stroke-width="1.0" stroke-linejoin="round" stroke-linecap="butt" d="m576.0 140.50131l-18.126526 3.7823029" fill-rule="evenodd"></path><path fill="#a61c00" stroke="#a61c00" stroke-width="1.0" stroke-linecap="butt" d="m557.53613 142.6667l-4.1050415 2.543869l4.779785 0.68995667z" fill-rule="evenodd"></path></g></svg>

