<?xml version="1.0" encoding="UTF-8" standalone="no"?>
<svg
   xmlns:dc="http://purl.org/dc/elements/1.1/"
   xmlns:cc="http://creativecommons.org/ns#"
   xmlns:rdf="http://www.w3.org/1999/02/22-rdf-syntax-ns#"
   xmlns:svg="http://www.w3.org/2000/svg"
   xmlns="http://www.w3.org/2000/svg"
   version="1.1"
   id="svg2"
   xml:space="preserve"
   width="160.16209"
   height="45.559116"
   viewBox="0 0 160.16209 45.559116"><metadata
     id="metadata8"><rdf:RDF><cc:Work
         rdf:about=""><dc:format>image/svg+xml</dc:format><dc:type
           rdf:resource="http://purl.org/dc/dcmitype/StillImage" /></cc:Work></rdf:RDF></metadata><defs
     id="defs6"><clipPath
       clipPathUnits="userSpaceOnUse"
       id="clipPath18"><path
         d="M 0,792 H 612 V 0 H 0 Z"
         id="path16" /></clipPath><linearGradient
       x1="0"
       y1="0"
       x2="1"
       y2="0"
       gradientUnits="userSpaceOnUse"
       gradientTransform="matrix(34.541016,0,0,-34.541016,253.89844,651.80615)"
       spreadMethod="pad"
       id="linearGradient178"><stop
         style="stop-opacity:1;stop-color:#ed1c24"
         offset="0"
         id="stop172" /><stop
         style="stop-opacity:1;stop-color:#fbc7a7"
         offset="0.58054141"
         id="stop174" /><stop
         style="stop-opacity:1;stop-color:#fbc7a7"
         offset="1"
         id="stop176" /></linearGradient><linearGradient
       x1="0"
       y1="0"
       x2="1"
       y2="0"
       gradientUnits="userSpaceOnUse"
       gradientTransform="matrix(32.960937,0,0,-32.960937,254.51367,651.80566)"
       spreadMethod="pad"
       id="linearGradient198"><stop
         style="stop-opacity:1;stop-color:#fbc7a7"
         offset="0"
         id="stop194" /><stop
         style="stop-opacity:1;stop-color:#ed1c24"
         offset="1"
         id="stop196" /></linearGradient><clipPath
       clipPathUnits="userSpaceOnUse"
       id="clipPath208"><path
         d="M 0,792 H 612 V 0 H 0 Z"
         id="path206" /></clipPath><linearGradient
       x1="0"
       y1="0"
       x2="1"
       y2="0"
       gradientUnits="userSpaceOnUse"
       gradientTransform="matrix(34.541504,0,0,-34.541504,278.56494,646.4541)"
       spreadMethod="pad"
       id="linearGradient246"><stop
         style="stop-opacity:1;stop-color:#5ec45b"
         offset="0"
         id="stop242" /><stop
         style="stop-opacity:1;stop-color:#dbf1cb"
         offset="1"
         id="stop244" /></linearGradient><linearGradient
       x1="0"
       y1="0"
       x2="1"
       y2="0"
       gradientUnits="userSpaceOnUse"
       gradientTransform="matrix(32.960449,0,0,-32.960449,279.18018,646.4541)"
       spreadMethod="pad"
       id="linearGradient266"><stop
         style="stop-opacity:1;stop-color:#dbf1cb"
         offset="0"
         id="stop262" /><stop
         style="stop-opacity:1;stop-color:#5ec45b"
         offset="1"
         id="stop264" /></linearGradient><clipPath
       clipPathUnits="userSpaceOnUse"
       id="clipPath276"><path
         d="M 0,792 H 612 V 0 H 0 Z"
         id="path274" /></clipPath><linearGradient
       x1="0"
       y1="0"
       x2="1"
       y2="0"
       gradientUnits="userSpaceOnUse"
       gradientTransform="matrix(34.542969,0,0,-34.542969,329.54687,646.4541)"
       spreadMethod="pad"
       id="linearGradient314"><stop
         style="stop-opacity:1;stop-color:#5ec45b"
         offset="0"
         id="stop310" /><stop
         style="stop-opacity:1;stop-color:#dbf1cb"
         offset="1"
         id="stop312" /></linearGradient><linearGradient
       x1="0"
       y1="0"
       x2="1"
       y2="0"
       gradientUnits="userSpaceOnUse"
       gradientTransform="matrix(32.958984,0,0,-32.958984,330.16406,646.4541)"
       spreadMethod="pad"
       id="linearGradient334"><stop
         style="stop-opacity:1;stop-color:#dbf1cb"
         offset="0"
         id="stop330" /><stop
         style="stop-opacity:1;stop-color:#5ec45b"
         offset="1"
         id="stop332" /></linearGradient><clipPath
       clipPathUnits="userSpaceOnUse"
       id="clipPath344"><path
         d="M 0,792 H 612 V 0 H 0 Z"
         id="path342" /></clipPath></defs><g
     id="g10"
     transform="matrix(1.3333333,0,0,-1.3333333,-325.9571,895.99323)"><g
       id="g12"><g
         id="g14"
         clip-path="url(#clipPath18)"><g
           id="g20"
           transform="translate(260.7822,667.1133)"><path
             d="M 0,0 -2.765,3.845 C -2.996,4.167 -3.508,4.407 -3.903,4.378 L -8.793,4.03 C -9.187,4.002 -9.655,3.689 -9.832,3.335 l -2.228,-4.471 c -0.176,-0.355 -0.131,-0.907 0.1,-1.229 l 1.502,-2.09 c -0.281,0.003 -0.576,-0.062 -0.778,-0.202 l -4.034,-2.786 c -0.326,-0.225 -0.569,-0.733 -0.541,-1.127 l 0.356,-4.983 c 0.028,-0.394 0.348,-0.848 0.71,-1.007 l 4.335,-1.904 c 0.362,-0.16 0.927,-0.099 1.251,0.125 l 4.033,2.781 c 0.327,0.225 0.57,0.732 0.542,1.126 l -0.355,4.983 c -0.029,0.394 -0.361,0.723 -0.544,0.892 l 2.316,0.163 c 0.395,0.028 0.862,0.34 1.039,0.695 l 2.226,4.47 C 0.275,-0.875 0.23,-0.321 0,0"
             style="fill:#231f20;fill-opacity:1;fill-rule:nonzero;stroke:none"
             id="path22" /></g><g
           id="g24"
           transform="translate(260.7822,667.1133)"><path
             d="M 0,0 -2.765,3.845 C -2.996,4.167 -3.508,4.407 -3.903,4.378 L -8.793,4.03 C -9.187,4.002 -9.655,3.689 -9.832,3.335 l -2.228,-4.471 c -0.176,-0.355 -0.131,-0.907 0.1,-1.229 l 1.502,-2.09 c -0.281,0.003 -0.576,-0.062 -0.778,-0.202 l -4.034,-2.786 c -0.326,-0.225 -0.569,-0.733 -0.541,-1.127 l 0.356,-4.983 c 0.028,-0.394 0.348,-0.848 0.71,-1.007 l 4.335,-1.904 c 0.362,-0.16 0.927,-0.099 1.251,0.125 l 4.033,2.781 c 0.327,0.225 0.57,0.732 0.542,1.126 l -0.355,4.983 c -0.029,0.394 -0.361,0.723 -0.544,0.892 l 2.316,0.163 c 0.395,0.028 0.862,0.34 1.039,0.695 l 2.226,4.47 C 0.275,-0.875 0.23,-0.321 0,0 Z"
             style="fill:none;stroke:#231f20;stroke-width:1;stroke-linecap:butt;stroke-linejoin:round;stroke-miterlimit:10;stroke-dasharray:none;stroke-opacity:1"
             id="path26" /></g><g
           id="g28"
           transform="translate(252.3271,660.9648)"><path
             d="m 0,0 c -0.176,-0.355 -0.51,-0.382 -0.741,-0.061 l -2.765,3.845 c -0.23,0.321 -0.275,0.873 -0.099,1.228 l 2.229,4.472 c 0.175,0.355 0.509,0.382 0.74,0.06 L 2.128,5.7 C 2.36,5.378 2.404,4.826 2.228,4.47 Z"
             style="fill:#deddde;fill-opacity:1;fill-rule:nonzero;stroke:none"
             id="path30" /></g><g
           id="g32"
           transform="translate(252.3271,660.9648)"><path
             d="m 0,0 c -0.176,-0.355 -0.51,-0.382 -0.741,-0.061 l -2.765,3.845 c -0.23,0.321 -0.275,0.873 -0.099,1.228 l 2.229,4.472 c 0.175,0.355 0.509,0.382 0.74,0.06 L 2.128,5.7 C 2.36,5.378 2.404,4.826 2.228,4.47 Z"
             style="fill:none;stroke:#231f20;stroke-width:0.3;stroke-linecap:butt;stroke-linejoin:miter;stroke-miterlimit:10;stroke-dasharray:none;stroke-opacity:1"
             id="path34" /></g><g
           id="g36"
           transform="translate(255.5938,666.1299)"><path
             d="M 0,0 C -0.395,-0.028 -0.907,0.211 -1.139,0.533 L -3.902,4.377 C -4.134,4.699 -4,4.985 -3.604,5.013 l 4.89,0.349 C 1.681,5.39 2.192,5.15 2.423,4.829 L 5.188,0.983 C 5.418,0.663 5.285,0.376 4.89,0.348 Z"
             style="fill:#ffffff;fill-opacity:1;fill-rule:nonzero;stroke:none"
             id="path38" /></g><g
           id="g40"
           transform="translate(255.5938,666.1299)"><path
             d="M 0,0 C -0.395,-0.028 -0.907,0.211 -1.139,0.533 L -3.902,4.377 C -4.134,4.699 -4,4.985 -3.604,5.013 l 4.89,0.349 C 1.681,5.39 2.192,5.15 2.423,4.829 L 5.188,0.983 C 5.418,0.663 5.285,0.376 4.89,0.348 Z"
             style="fill:none;stroke:#231f20;stroke-width:0.3;stroke-linecap:butt;stroke-linejoin:miter;stroke-miterlimit:10;stroke-dasharray:none;stroke-opacity:1"
             id="path42" /></g><g
           id="g44"
           transform="translate(258.6538,661.4146)"><path
             d="m 0,0 c -0.177,-0.355 -0.644,-0.667 -1.039,-0.695 l -4.888,-0.344 c -0.395,-0.028 -0.574,0.239 -0.397,0.594 l 2.228,4.471 c 0.176,0.355 0.644,0.667 1.039,0.696 L 1.83,5.064 C 2.225,5.092 2.403,4.825 2.227,4.47 Z"
             style="fill:#bdbcbc;fill-opacity:1;fill-rule:nonzero;stroke:none"
             id="path46" /></g><g
           id="g48"
           transform="translate(258.6538,661.4146)"><path
             d="m 0,0 c -0.177,-0.355 -0.644,-0.667 -1.039,-0.695 l -4.888,-0.344 c -0.395,-0.028 -0.574,0.239 -0.397,0.594 l 2.228,4.471 c 0.176,0.355 0.644,0.667 1.039,0.696 L 1.83,5.064 C 2.225,5.092 2.403,4.825 2.227,4.47 Z"
             style="fill:none;stroke:#231f20;stroke-width:0.3;stroke-linecap:butt;stroke-linejoin:miter;stroke-miterlimit:10;stroke-dasharray:none;stroke-opacity:1"
             id="path50" /></g><g
           id="g52"
           transform="translate(254.9316,664.4009)"><path
             d="M 0,0 C -0.182,0.24 -0.033,0.661 0.334,0.938 0.701,1.216 1.146,1.245 1.329,1.004 1.512,0.762 1.361,0.342 0.996,0.064 0.628,-0.213 0.183,-0.242 0,0"
             style="fill:#231f20;fill-opacity:1;fill-rule:nonzero;stroke:none"
             id="path54" /></g><g
           id="g56"
           transform="translate(251.585,664.8086)"><path
             d="M 0,0 C -0.303,-0.01 -0.56,0.353 -0.575,0.813 -0.594,1.272 -0.36,1.653 -0.06,1.665 0.244,1.675 0.501,1.311 0.518,0.852 0.534,0.391 0.302,0.011 0,0"
             style="fill:#231f20;fill-opacity:1;fill-rule:nonzero;stroke:none"
             id="path58" /></g><g
           id="g60"
           transform="translate(256.1309,666.8936)"><path
             d="m 0,0 c -0.105,-0.282 -0.54,-0.382 -0.97,-0.22 -0.432,0.159 -0.694,0.52 -0.589,0.804 0.106,0.283 0.542,0.382 0.972,0.221 C -0.156,0.644 0.107,0.283 0,0"
             style="fill:#231f20;fill-opacity:1;fill-rule:nonzero;stroke:none"
             id="path62" /></g><g
           id="g64"
           transform="translate(259.8008,667.1558)"><path
             d="m 0,0 c -0.105,-0.283 -0.54,-0.382 -0.97,-0.22 -0.432,0.159 -0.694,0.521 -0.589,0.803 0.106,0.284 0.542,0.383 0.972,0.221 C -0.157,0.644 0.106,0.283 0,0"
             style="fill:#231f20;fill-opacity:1;fill-rule:nonzero;stroke:none"
             id="path66" /></g><g
           id="g68"
           transform="translate(254.0674,669.9727)"><path
             d="M 0,0 C -0.104,-0.283 -0.541,-0.383 -0.97,-0.221 -1.402,-0.062 -1.665,0.3 -1.559,0.583 -1.454,0.866 -1.018,0.964 -0.587,0.804 -0.157,0.643 0.106,0.283 0,0"
             style="fill:#231f20;fill-opacity:1;fill-rule:nonzero;stroke:none"
             id="path70" /></g><g
           id="g72"
           transform="translate(257.7373,670.2339)"><path
             d="m 0,0 c -0.105,-0.282 -0.54,-0.382 -0.971,-0.22 -0.431,0.159 -0.694,0.521 -0.589,0.804 0.106,0.283 0.541,0.382 0.972,0.221 C -0.158,0.644 0.106,0.284 0,0"
             style="fill:#231f20;fill-opacity:1;fill-rule:nonzero;stroke:none"
             id="path74" /></g><g
           id="g76"
           transform="translate(255.9482,662.8271)"><path
             d="M 0,0 C -0.183,0.241 -0.033,0.661 0.334,0.938 0.7,1.215 1.146,1.244 1.328,1.004 1.51,0.762 1.36,0.342 0.994,0.065 0.627,-0.214 0.182,-0.242 0,0"
             style="fill:#231f20;fill-opacity:1;fill-rule:nonzero;stroke:none"
             id="path78" /></g><g
           id="g80"
           transform="translate(257.0298,661.2578)"><path
             d="M 0,0 C -0.182,0.24 -0.032,0.661 0.334,0.938 0.701,1.215 1.146,1.245 1.329,1.004 1.512,0.762 1.361,0.342 0.996,0.064 0.628,-0.213 0.183,-0.243 0,0"
             style="fill:#231f20;fill-opacity:1;fill-rule:nonzero;stroke:none"
             id="path82" /></g><g
           id="g84"
           transform="translate(253.3042,660.9917)"><path
             d="M 0,0 C -0.182,0.241 -0.032,0.661 0.334,0.938 0.701,1.215 1.146,1.244 1.329,1.004 1.511,0.762 1.362,0.341 0.995,0.064 0.628,-0.213 0.183,-0.243 0,0"
             style="fill:#231f20;fill-opacity:1;fill-rule:nonzero;stroke:none"
             id="path86" /></g><g
           id="g88"
           transform="translate(258.7256,664.6724)"><path
             d="M 0,0 C -0.181,0.24 -0.032,0.661 0.335,0.938 0.701,1.215 1.146,1.245 1.329,1.004 1.512,0.762 1.361,0.341 0.996,0.064 0.628,-0.214 0.183,-0.242 0,0"
             style="fill:#231f20;fill-opacity:1;fill-rule:nonzero;stroke:none"
             id="path90" /></g><g
           id="g92"
           transform="translate(250.98,651.0776)"><path
             d="m 0,0 c 0.028,-0.395 -0.246,-0.588 -0.607,-0.429 l -4.336,1.905 c -0.363,0.159 -0.682,0.612 -0.71,1.007 l -0.356,4.983 c -0.028,0.394 0.245,0.587 0.608,0.428 L -1.066,5.99 c 0.362,-0.16 0.682,-0.614 0.71,-1.008 z"
             style="fill:#deddde;fill-opacity:1;fill-rule:nonzero;stroke:none"
             id="path94" /></g><g
           id="g96"
           transform="translate(250.98,651.0776)"><path
             d="m 0,0 c 0.028,-0.395 -0.246,-0.588 -0.607,-0.429 l -4.336,1.905 c -0.363,0.159 -0.682,0.612 -0.71,1.007 l -0.356,4.983 c -0.028,0.394 0.245,0.587 0.608,0.428 L -1.066,5.99 c 0.362,-0.16 0.682,-0.614 0.71,-1.008 z"
             style="fill:none;stroke:#231f20;stroke-width:0.3;stroke-linecap:butt;stroke-linejoin:miter;stroke-miterlimit:10;stroke-dasharray:none;stroke-opacity:1"
             id="path98" /></g><g
           id="g100"
           transform="translate(251.165,657.1865)"><path
             d="m 0,0 c -0.326,-0.225 -0.889,-0.279 -1.251,-0.119 l -4.335,1.904 c -0.363,0.159 -0.393,0.473 -0.067,0.698 l 4.034,2.787 c 0.326,0.225 0.888,0.279 1.251,0.12 L 3.967,3.485 C 4.329,3.326 4.36,3.012 4.034,2.787 Z"
             style="fill:#ffffff;fill-opacity:1;fill-rule:nonzero;stroke:none"
             id="path102" /></g><g
           id="g104"
           transform="translate(251.165,657.1865)"><path
             d="m 0,0 c -0.326,-0.225 -0.889,-0.279 -1.251,-0.119 l -4.335,1.904 c -0.363,0.159 -0.393,0.473 -0.067,0.698 l 4.034,2.787 c 0.326,0.225 0.888,0.279 1.251,0.12 L 3.967,3.485 C 4.329,3.326 4.36,3.012 4.034,2.787 Z"
             style="fill:none;stroke:#231f20;stroke-width:0.3;stroke-linecap:butt;stroke-linejoin:miter;stroke-miterlimit:10;stroke-dasharray:none;stroke-opacity:1"
             id="path106" /></g><g
           id="g108"
           transform="translate(256.1978,654.6812)"><path
             d="M 0,0 C 0.028,-0.394 -0.216,-0.901 -0.542,-1.126 L -4.574,-3.907 C -4.9,-4.132 -5.19,-3.993 -5.219,-3.598 l -0.355,4.983 c -0.028,0.394 0.216,0.902 0.541,1.126 l 4.034,2.782 c 0.326,0.224 0.616,0.085 0.644,-0.31 z"
             style="fill:#bdbcbc;fill-opacity:1;fill-rule:nonzero;stroke:none"
             id="path110" /></g><g
           id="g112"
           transform="translate(256.1978,654.6812)"><path
             d="M 0,0 C 0.028,-0.394 -0.216,-0.901 -0.542,-1.126 L -4.574,-3.907 C -4.9,-4.132 -5.19,-3.993 -5.219,-3.598 l -0.355,4.983 c -0.028,0.394 0.216,0.902 0.541,1.126 l 4.034,2.782 c 0.326,0.224 0.616,0.085 0.644,-0.31 z"
             style="fill:none;stroke:#231f20;stroke-width:0.3;stroke-linecap:butt;stroke-linejoin:miter;stroke-miterlimit:10;stroke-dasharray:none;stroke-opacity:1"
             id="path114" /></g><g
           id="g116"
           transform="translate(251.1758,660.0249)"><path
             d="M 0,0 C 0.021,-0.301 -0.333,-0.572 -0.792,-0.605 -1.25,-0.637 -1.64,-0.419 -1.661,-0.119 -1.682,0.184 -1.329,0.455 -0.869,0.488 -0.411,0.52 -0.022,0.302 0,0"
             style="fill:#231f20;fill-opacity:1;fill-rule:nonzero;stroke:none"
             id="path118" /></g><g
           id="g120"
           transform="translate(246.6255,656.9126)"><path
             d="M 0,0 C -0.252,-0.167 -0.662,0.01 -0.915,0.394 -1.168,0.778 -1.168,1.223 -0.916,1.391 -0.663,1.557 -0.254,1.381 -0.001,0.997 0.252,0.612 0.253,0.166 0,0"
             style="fill:#231f20;fill-opacity:1;fill-rule:nonzero;stroke:none"
             id="path122" /></g><g
           id="g124"
           transform="translate(250.2739,651.519)"><path
             d="M 0,0 C -0.252,-0.167 -0.662,0.01 -0.915,0.394 -1.167,0.778 -1.168,1.224 -0.916,1.39 -0.664,1.557 -0.253,1.38 0,0.996 0.252,0.612 0.253,0.166 0,0"
             style="fill:#231f20;fill-opacity:1;fill-rule:nonzero;stroke:none"
             id="path126" /></g><g
           id="g128"
           transform="translate(251.7212,651.7305)"><path
             d="m 0,0 c -0.263,0.15 -0.291,0.595 -0.062,0.994 0.229,0.399 0.626,0.6 0.889,0.45 C 1.09,1.294 1.117,0.849 0.889,0.45 0.66,0.05 0.261,-0.152 0,0"
             style="fill:#231f20;fill-opacity:1;fill-rule:nonzero;stroke:none"
             id="path130" /></g><g
           id="g132"
           transform="translate(253.1104,654.6938)"><path
             d="m 0,0 c -0.263,0.15 -0.29,0.596 -0.061,0.994 0.228,0.4 0.626,0.6 0.888,0.451 C 1.09,1.295 1.117,0.849 0.889,0.451 0.66,0.052 0.263,-0.151 0,0"
             style="fill:#231f20;fill-opacity:1;fill-rule:nonzero;stroke:none"
             id="path134" /></g><g
           id="g136"
           transform="translate(254.6138,657.6436)"><path
             d="m 0,0 c -0.262,0.151 -0.29,0.595 -0.061,0.995 0.228,0.398 0.626,0.6 0.889,0.45 C 1.091,1.294 1.118,0.85 0.89,0.45 0.661,0.051 0.263,-0.151 0,0"
             style="fill:#231f20;fill-opacity:1;fill-rule:nonzero;stroke:none"
             id="path138" /></g><g
           id="g140"
           transform="translate(326.6777,648.0923)"><path
             d="m 0,0 c -0.951,0.283 -1.57,0.546 -2.334,0.849 l 0.01,-2.902 c 0.271,0.131 1.379,0.576 2.326,0.867 1.018,0.313 1.939,0.524 2.537,0.602 C 1.939,-0.512 1.016,-0.303 0,0"
             style="fill:#231f20;fill-opacity:1;fill-rule:nonzero;stroke:none"
             id="path142" /></g><g
           id="g144"
           transform="translate(324.9727,647.4907)"><path
             d="M 0,0 H -11.465"
             style="fill:none;stroke:#231f20;stroke-width:0.5;stroke-linecap:butt;stroke-linejoin:miter;stroke-miterlimit:4;stroke-dasharray:none;stroke-opacity:1"
             id="path146" /></g><g
           id="g148"
           transform="translate(285.666,654.5562)"><path
             d="m 0,0 h -16.929 c -1.113,2.838 -3.893,4.852 -7.155,4.852 -4.244,0 -7.684,-3.403 -7.684,-7.602 0,-0.089 0.011,-0.176 0.014,-0.264 -0.003,-0.088 -0.014,-0.174 -0.014,-0.263 0,-4.197 3.44,-7.602 7.684,-7.602 3.023,0 5.632,1.733 6.885,4.245 h 1.413 c 0.1,0.726 0.832,1.296 1.731,1.296 0.899,0 1.632,-0.57 1.729,-1.296 h 1.555 c 0.1,0.726 0.83,1.296 1.73,1.296 0.898,0 1.631,-0.57 1.729,-1.296 h 1.556 c 0.099,0.726 0.831,1.296 1.73,1.296 0.899,0 1.63,-0.57 1.729,-1.296 h 1.082 l 3.988,4.571 v 0.527 z"
             style="fill:none;stroke:#231f20;stroke-width:1;stroke-linecap:butt;stroke-linejoin:round;stroke-miterlimit:4;stroke-dasharray:none;stroke-opacity:1"
             id="path150" /></g><g
           id="g152"
           transform="translate(288.4395,653.02)"><path
             d="m 0,0 -19.702,1.009 c -1.113,2.839 -3.893,4.852 -7.156,4.852 -4.243,0 -7.683,-3.403 -7.683,-7.602 0,-4.197 3.44,-7.602 7.683,-7.602 3.024,0 5.633,1.733 6.885,4.245 h 1.414 c 0.1,0.726 0.832,1.296 1.73,1.296 0.9,0 1.632,-0.57 1.73,-1.296 h 1.554 c 0.101,0.726 0.831,1.296 1.731,1.296 0.897,0 1.63,-0.57 1.729,-1.296 h 1.555 c 0.099,0.726 0.831,1.296 1.73,1.296 0.899,0 1.631,-0.57 1.73,-1.296 h 1.082 L 0,-0.527 Z"
             style="fill:#a21217;fill-opacity:1;fill-rule:nonzero;stroke:none"
             id="path154" /></g><g
           id="g156"
           transform="translate(288.4395,653.02)"><path
             d="m 0,0 -19.702,1.009 c -1.113,2.839 -3.893,4.852 -7.156,4.852 -4.243,0 -7.683,-3.403 -7.683,-7.602 0,-4.197 3.44,-7.602 7.683,-7.602 3.024,0 5.633,1.733 6.885,4.245 h 1.414 c 0.1,0.726 0.832,1.296 1.73,1.296 0.9,0 1.632,-0.57 1.73,-1.296 h 1.554 c 0.101,0.726 0.831,1.296 1.731,1.296 0.897,0 1.63,-0.57 1.729,-1.296 h 1.555 c 0.099,0.726 0.831,1.296 1.73,1.296 0.899,0 1.631,-0.57 1.73,-1.296 h 1.082 L 0,-0.527 Z"
             style="fill:none;stroke:#a21217;stroke-width:0.3;stroke-linecap:butt;stroke-linejoin:round;stroke-miterlimit:4;stroke-dasharray:none;stroke-opacity:1"
             id="path158" /></g></g></g><g
       id="g160"><g
         id="g162"><g
           id="g168"><g
             id="g170"><path
               d="m 253.898,651.805 c 0,-4.197 3.441,-7.6 7.683,-7.6 v 0 c 3.024,0 5.633,1.731 6.885,4.245 v 0 h 1.414 c 0.1,0.725 0.833,1.294 1.731,1.294 v 0 c 0.899,0 1.632,-0.569 1.729,-1.294 v 0 h 1.554 c 0.101,0.725 0.831,1.294 1.731,1.294 v 0 c 0.898,0 1.631,-0.569 1.729,-1.294 v 0 h 1.556 c 0.099,0.725 0.831,1.294 1.73,1.294 v 0 c 0.899,0 1.63,-0.569 1.73,-1.294 v 0 h 1.081 l 3.988,4.57 -2.773,1.536 h -16.929 c -1.112,2.838 -3.893,4.851 -7.156,4.851 v 0 c -4.242,0 -7.683,-3.402 -7.683,-7.602"
               style="fill:url(#linearGradient178);stroke:none"
               id="path180" /></g></g></g></g><g
       id="g182"><g
         id="g184"><g
           id="g190"><g
             id="g192"><path
               d="m 254.514,651.805 c 0,-3.851 3.17,-6.986 7.067,-6.986 v 0 c 2.707,0 5.134,1.497 6.336,3.905 v 0 l 0.169,0.342 h 1.341 c 0.352,0.765 1.206,1.294 2.184,1.294 v 0 c 0.979,0 1.832,-0.529 2.184,-1.294 v 0 h 0.646 c 0.353,0.765 1.206,1.294 2.184,1.294 v 0 c 0.979,0 1.831,-0.529 2.184,-1.294 v 0 h 0.646 c 0.353,0.765 1.206,1.294 2.185,1.294 v 0 c 0.978,0 1.83,-0.529 2.184,-1.294 v 0 h 0.347 l 3.303,3.785 -1.967,1.089 h -17.189 l -0.153,0.391 c -1.063,2.71 -3.648,4.461 -6.584,4.461 v 0 c -3.897,0 -7.067,-3.134 -7.067,-6.987"
               style="fill:url(#linearGradient198);stroke:none"
               id="path200" /></g></g></g></g><g
       id="g202"><g
         id="g204"
         clip-path="url(#clipPath208)"><g
           id="g210"
           transform="translate(267.6514,651.8057)"><path
             d="m 0,0 c 0,-3.352 -2.718,-6.07 -6.07,-6.07 -3.352,0 -6.07,2.718 -6.07,6.07 0,3.353 2.718,6.07 6.07,6.07 C -2.718,6.07 0,3.353 0,0"
             style="fill:#ffffff;fill-opacity:1;fill-rule:nonzero;stroke:none"
             id="path212" /></g><text
           transform="matrix(1,0,0,-1,256.2617,649.4785)"
           style="font-variant:normal;font-weight:normal;font-stretch:normal;font-size:6.12px;font-family:Arial;-inkscape-font-specification:ArialMT;writing-mode:lr-tb;fill:#231f20;fill-opacity:1;fill-rule:nonzero;stroke:none"
           id="text216"><tspan
             x="0 4.0820398 6.1199999 7.4786401"
             y="0"
             id="tspan214">Priv</tspan></text><g
           id="g218"
           transform="translate(310.332,649.2046)"><path
             d="m 0,0 h -16.929 c -1.112,2.838 -3.892,4.851 -7.155,4.851 -4.243,0 -7.683,-3.402 -7.683,-7.601 0,-0.089 0.011,-0.176 0.014,-0.264 -0.003,-0.088 -0.014,-0.174 -0.014,-0.263 0,-4.197 3.44,-7.602 7.683,-7.602 3.024,0 5.632,1.733 6.886,4.246 h 1.413 c 0.099,0.726 0.832,1.295 1.73,1.295 0.9,0 1.632,-0.569 1.729,-1.295 h 1.555 c 0.1,0.726 0.831,1.295 1.73,1.295 0.898,0 1.631,-0.569 1.729,-1.295 h 1.556 c 0.099,0.726 0.831,1.295 1.73,1.295 0.899,0 1.63,-0.569 1.729,-1.295 h 1.082 l 3.989,4.57 v 0.527 z"
             style="fill:none;stroke:#231f20;stroke-width:1;stroke-linecap:butt;stroke-linejoin:round;stroke-miterlimit:4;stroke-dasharray:none;stroke-opacity:1"
             id="path220" /></g><g
           id="g222"
           transform="translate(313.1064,647.6685)"><path
             d="m 0,0 -19.703,1.01 c -1.112,2.838 -3.893,4.851 -7.155,4.851 -4.244,0 -7.684,-3.403 -7.684,-7.602 0,-4.197 3.44,-7.602 7.684,-7.602 3.024,0 5.632,1.733 6.885,4.246 h 1.413 c 0.1,0.726 0.832,1.295 1.73,1.295 0.9,0 1.633,-0.569 1.73,-1.295 h 1.555 c 0.1,0.726 0.83,1.295 1.73,1.295 0.898,0 1.63,-0.569 1.729,-1.295 h 1.556 c 0.098,0.726 0.83,1.295 1.73,1.295 0.899,0 1.63,-0.569 1.729,-1.295 h 1.082 L 0,-0.527 Z"
             style="fill:#278a2f;fill-opacity:1;fill-rule:nonzero;stroke:none"
             id="path224" /></g><g
           id="g226"
           transform="translate(313.1064,647.6685)"><path
             d="m 0,0 -19.703,1.01 c -1.112,2.838 -3.893,4.851 -7.155,4.851 -4.244,0 -7.684,-3.403 -7.684,-7.602 0,-4.197 3.44,-7.602 7.684,-7.602 3.024,0 5.632,1.733 6.885,4.246 h 1.413 c 0.1,0.726 0.832,1.295 1.73,1.295 0.9,0 1.633,-0.569 1.73,-1.295 h 1.555 c 0.1,0.726 0.83,1.295 1.73,1.295 0.898,0 1.63,-0.569 1.729,-1.295 h 1.556 c 0.098,0.726 0.83,1.295 1.73,1.295 0.899,0 1.63,-0.569 1.729,-1.295 h 1.082 L 0,-0.527 Z"
             style="fill:none;stroke:#278a2f;stroke-width:0.3;stroke-linecap:butt;stroke-linejoin:round;stroke-miterlimit:4;stroke-dasharray:none;stroke-opacity:1"
             id="path228" /></g></g></g><g
       id="g230"><g
         id="g232"><g
           id="g238"><g
             id="g240"><path
               d="m 278.565,646.454 c 0,-4.197 3.44,-7.602 7.683,-7.602 v 0 c 3.024,0 5.633,1.733 6.886,4.247 v 0 h 1.413 c 0.099,0.725 0.832,1.294 1.729,1.294 v 0 c 0.9,0 1.633,-0.569 1.73,-1.294 v 0 h 1.555 c 0.1,0.725 0.83,1.294 1.73,1.294 v 0 c 0.898,0 1.631,-0.569 1.729,-1.294 v 0 h 1.556 c 0.099,0.725 0.831,1.294 1.73,1.294 v 0 c 0.899,0 1.631,-0.569 1.729,-1.294 v 0 h 1.083 l 3.988,4.57 -2.774,1.535 h -16.928 c -1.113,2.839 -3.893,4.851 -7.156,4.851 v 0 c -4.243,0 -7.683,-3.402 -7.683,-7.601"
               style="fill:url(#linearGradient246);stroke:none"
               id="path248" /></g></g></g></g><g
       id="g250"><g
         id="g252"><g
           id="g258"><g
             id="g260"><path
               d="m 279.18,646.454 c 0,-3.852 3.171,-6.986 7.068,-6.986 v 0 c 2.707,0 5.134,1.497 6.335,3.905 v 0 l 0.169,0.341 h 1.341 c 0.352,0.765 1.206,1.294 2.183,1.294 v 0 c 0.981,0 1.834,-0.529 2.186,-1.294 v 0 h 0.646 c 0.353,0.765 1.206,1.294 2.183,1.294 v 0 c 0.979,0 1.832,-0.529 2.184,-1.294 v 0 h 0.647 c 0.353,0.765 1.206,1.294 2.184,1.294 v 0 c 0.979,0 1.831,-0.529 2.184,-1.294 v 0 h 0.348 l 3.303,3.785 -1.967,1.09 h -17.19 l -0.153,0.39 c -1.063,2.71 -3.647,4.461 -6.583,4.461 v 0 c -3.897,0 -7.068,-3.133 -7.068,-6.986"
               style="fill:url(#linearGradient266);stroke:none"
               id="path268" /></g></g></g></g><g
       id="g270"><g
         id="g272"
         clip-path="url(#clipPath276)"><g
           id="g278"
           transform="translate(292.3179,646.4541)"><path
             d="m 0,0 c 0,-3.353 -2.717,-6.07 -6.07,-6.07 -3.352,0 -6.07,2.717 -6.07,6.07 0,3.353 2.718,6.07 6.07,6.07 C -2.717,6.07 0,3.353 0,0"
             style="fill:#ffffff;fill-opacity:1;fill-rule:nonzero;stroke:none"
             id="path280" /></g><text
           transform="matrix(1,0,0,-1,280.7529,644.127)"
           style="font-variant:normal;font-weight:normal;font-stretch:normal;font-size:6.12px;font-family:Arial;-inkscape-font-specification:ArialMT;writing-mode:lr-tb;fill:#231f20;fill-opacity:1;fill-rule:nonzero;stroke:none"
           id="text284"><tspan
             x="0 4.0820398 7.4847598"
             y="0"
             id="tspan282">Pub</tspan></text><g
           id="g286"
           transform="translate(361.3154,649.2046)"><path
             d="m 0,0 h -16.929 c -1.113,2.838 -3.892,4.851 -7.156,4.851 -4.242,0 -7.684,-3.402 -7.684,-7.601 0,-0.089 0.012,-0.176 0.015,-0.264 -0.003,-0.088 -0.015,-0.174 -0.015,-0.263 0,-4.197 3.442,-7.602 7.684,-7.602 3.025,0 5.633,1.733 6.886,4.246 h 1.413 c 0.099,0.726 0.832,1.295 1.73,1.295 0.9,0 1.631,-0.569 1.729,-1.295 h 1.555 c 0.101,0.726 0.832,1.295 1.73,1.295 0.898,0 1.631,-0.569 1.729,-1.295 h 1.556 c 0.099,0.726 0.832,1.295 1.731,1.295 0.897,0 1.63,-0.569 1.728,-1.295 h 1.084 l 3.988,4.57 v 0.527 z"
             style="fill:none;stroke:#231f20;stroke-width:1;stroke-linecap:butt;stroke-linejoin:round;stroke-miterlimit:4;stroke-dasharray:none;stroke-opacity:1"
             id="path288" /></g><g
           id="g290"
           transform="translate(364.0898,647.6685)"><path
             d="m 0,0 -19.703,1.01 c -1.113,2.838 -3.893,4.851 -7.156,4.851 -4.243,0 -7.684,-3.403 -7.684,-7.602 0,-4.197 3.441,-7.602 7.684,-7.602 3.025,0 5.632,1.733 6.885,4.246 h 1.413 c 0.1,0.726 0.832,1.295 1.731,1.295 0.899,0 1.631,-0.569 1.728,-1.295 h 1.555 c 0.102,0.726 0.832,1.295 1.731,1.295 0.898,0 1.63,-0.569 1.729,-1.295 h 1.556 c 0.098,0.726 0.832,1.295 1.73,1.295 0.898,0 1.631,-0.569 1.729,-1.295 h 1.084 L 0,-0.527 Z"
             style="fill:#278a2f;fill-opacity:1;fill-rule:nonzero;stroke:none"
             id="path292" /></g><g
           id="g294"
           transform="translate(364.0898,647.6685)"><path
             d="m 0,0 -19.703,1.01 c -1.113,2.838 -3.893,4.851 -7.156,4.851 -4.243,0 -7.684,-3.403 -7.684,-7.602 0,-4.197 3.441,-7.602 7.684,-7.602 3.025,0 5.632,1.733 6.885,4.246 h 1.413 c 0.1,0.726 0.832,1.295 1.731,1.295 0.899,0 1.631,-0.569 1.728,-1.295 h 1.555 c 0.102,0.726 0.832,1.295 1.731,1.295 0.898,0 1.63,-0.569 1.729,-1.295 h 1.556 c 0.098,0.726 0.832,1.295 1.73,1.295 0.898,0 1.631,-0.569 1.729,-1.295 h 1.084 L 0,-0.527 Z"
             style="fill:none;stroke:#278a2f;stroke-width:0.3;stroke-linecap:butt;stroke-linejoin:round;stroke-miterlimit:4;stroke-dasharray:none;stroke-opacity:1"
             id="path296" /></g></g></g><g
       id="g298"><g
         id="g300"><g
           id="g306"><g
             id="g308"><path
               d="m 329.547,646.454 c 0,-4.197 3.441,-7.602 7.684,-7.602 v 0 c 3.025,0 5.632,1.733 6.885,4.247 v 0 h 1.413 c 0.1,0.725 0.832,1.294 1.731,1.294 v 0 c 0.9,0 1.63,-0.569 1.728,-1.294 v 0 h 1.555 c 0.102,0.725 0.832,1.294 1.73,1.294 v 0 c 0.899,0 1.631,-0.569 1.73,-1.294 v 0 h 1.556 c 0.099,0.725 0.832,1.294 1.73,1.294 v 0 c 0.897,0 1.631,-0.569 1.728,-1.294 v 0 h 1.085 l 3.988,4.57 -2.774,1.535 h -16.929 c -1.114,2.839 -3.893,4.851 -7.156,4.851 v 0 c -4.243,0 -7.684,-3.402 -7.684,-7.601"
               style="fill:url(#linearGradient314);stroke:none"
               id="path316" /></g></g></g></g><g
       id="g318"><g
         id="g320"><g
           id="g326"><g
             id="g328"><path
               d="m 330.164,646.454 c 0,-3.852 3.169,-6.986 7.067,-6.986 v 0 c 2.706,0 5.134,1.497 6.333,3.905 v 0 l 0.172,0.341 h 1.339 c 0.353,0.765 1.206,1.294 2.185,1.294 v 0 c 0.979,0 1.832,-0.529 2.186,-1.294 v 0 h 0.644 c 0.354,0.765 1.206,1.294 2.183,1.294 v 0 c 0.979,0 1.833,-0.529 2.186,-1.294 v 0 h 0.647 c 0.351,0.765 1.205,1.294 2.183,1.294 v 0 c 0.978,0 1.831,-0.529 2.184,-1.294 v 0 h 0.347 l 3.303,3.785 -1.967,1.09 h -17.189 l -0.153,0.39 c -1.063,2.71 -3.648,4.461 -6.583,4.461 v 0 c -3.898,0 -7.067,-3.133 -7.067,-6.986"
               style="fill:url(#linearGradient334);stroke:none"
               id="path336" /></g></g></g></g><g
       id="g338"><g
         id="g340"
         clip-path="url(#clipPath344)"><g
           id="g346"
           transform="translate(343.3008,646.4541)"><path
             d="m 0,0 c 0,-3.353 -2.718,-6.07 -6.07,-6.07 -3.352,0 -6.071,2.717 -6.071,6.07 0,3.353 2.719,6.07 6.071,6.07 C -2.718,6.07 0,3.353 0,0"
             style="fill:#ffffff;fill-opacity:1;fill-rule:nonzero;stroke:none"
             id="path348" /></g><text
           transform="matrix(1,0,0,-1,331.7354,644.127)"
           style="font-variant:normal;font-weight:normal;font-stretch:normal;font-size:6.12px;font-family:Arial;-inkscape-font-specification:ArialMT;writing-mode:lr-tb;fill:#231f20;fill-opacity:1;fill-rule:nonzero;stroke:none"
           id="text352"><tspan
             x="0 4.0820398 7.4847598"
             y="0"
             id="tspan350">Pub</tspan></text><g
           id="g354"
           transform="translate(289.9443,666.7534)"><path
             d="m 0,0 c 0,-2.176 -1.764,-3.939 -3.939,-3.939 -2.176,0 -3.94,1.763 -3.94,3.939 0,2.176 1.764,3.939 3.94,3.939 C -1.764,3.939 0,2.176 0,0"
             style="fill:#ffffff;fill-opacity:1;fill-rule:nonzero;stroke:none"
             id="path356" /></g><g
           id="g358"
           transform="translate(285.7227,668.8008)"><path
             d="M 0,0 H 0.027 V -4.861 H 0.959 V 0.918 H 0.149 L -1.134,0.216 -0.958,-0.526 0,0 m 0.271,-6.833 c -2.688,0 -4.862,2.174 -4.862,4.862 0,2.687 2.174,4.861 4.862,4.861 2.687,0 4.861,-2.174 4.861,-4.861 0,-2.688 -2.174,-4.862 -4.861,-4.862"
             style="fill:#231f20;fill-opacity:1;fill-rule:nonzero;stroke:none"
             id="path360" /></g></g></g></g></svg>
