<svg xmlns="http://www.w3.org/2000/svg" xmlns:xlink="http://www.w3.org/1999/xlink" width="313.24" height="125.66" viewBox="0 0 313.24 125.66">
  <defs>
    <style>
      .cls-1, .cls-33, .cls-35 {
        fill: #d9d9d9;
      }

      .cls-2 {
        fill: #fef0e8;
      }

      .cls-11, .cls-19, .cls-20, .cls-3 {
        fill: none;
      }

      .cls-3 {
        stroke: #4d4d4d;
      }

      .cls-28, .cls-3 {
        stroke-width: 0.5px;
      }

      .cls-4 {
        font-size: 11.5px;
      }

      .cls-4, .cls-5 {
        font-family: Nimbus Mono PS;
      }

      .cls-5 {
        font-size: 8px;
      }

      .cls-27, .cls-6 {
        font-size: 7px;
      }

      .cls-7 {
        fill: #fda452;
      }

      .cls-11, .cls-20, .cls-7 {
        stroke: #000;
      }

      .cls-12, .cls-20, .cls-33, .cls-7 {
        stroke-width: 0.3px;
      }

      .cls-8 {
        fill: #fbafc5;
      }

      .cls-10, .cls-29, .cls-30, .cls-34, .cls-35, .cls-8, .cls-9 {
        fill-rule: evenodd;
      }

      .cls-9 {
        fill: #96c749;
      }

      .cls-10 {
        fill: #28708e;
      }

      .cls-11, .cls-12, .cls-19, .cls-33 {
        stroke-linejoin: round;
      }

      .cls-11 {
        stroke-width: 0.75px;
      }

      .cls-12 {
        fill: #267520;
        stroke: #267520;
      }

      .cls-13 {
        fill: url(#linear-gradient);
      }

      .cls-14 {
        fill: url(#linear-gradient-2);
      }

      .cls-15, .cls-30 {
        fill: #fff;
      }

      .cls-16 {
        font-size: 3.67px;
      }

      .cls-16, .cls-27 {
        font-family: ArialMT, Arial;
      }

      .cls-17 {
        fill: url(#linear-gradient-3);
      }

      .cls-18 {
        fill: url(#linear-gradient-4);
      }

      .cls-19 {
        stroke: #e60001;
      }

      .cls-20 {
        stroke-miterlimit: 10;
      }

      .cls-21 {
        font-size: 9px;
        font-family: Humanist521BT-BoldCondensed, Humanst521 Cn BT;
        font-weight: 700;
      }

      .cls-22 {
        letter-spacing: 0.02em;
      }

      .cls-23 {
        letter-spacing: -0.07em;
      }

      .cls-24 {
        letter-spacing: 0em;
      }

      .cls-25 {
        letter-spacing: 0.05em;
      }

      .cls-26 {
        letter-spacing: 0.03em;
      }

      .cls-28 {
        fill: #8dac58;
        stroke: #536f2c;
      }

      .cls-31 {
        fill: #3b758e;
      }

      .cls-32 {
        fill: #536f2c;
      }

      .cls-33 {
        stroke: #595959;
      }

      .cls-34 {
        fill: #9e9e9e;
      }

      .cls-36 {
        letter-spacing: -0.04em;
      }
    </style>
    <linearGradient id="linear-gradient" x1="-48.75" y1="313.15" x2="-29.95" y2="313.15" gradientTransform="translate(499.31 -6.95) rotate(45.85)" gradientUnits="userSpaceOnUse">
      <stop offset="0" stop-color="#5fb749"/>
      <stop offset="1" stop-color="#dbf1c6"/>
    </linearGradient>
    <linearGradient id="linear-gradient-2" x1="-48.42" y1="313.15" x2="-30.47" y2="313.15" gradientTransform="translate(499.31 -6.95) rotate(45.85)" gradientUnits="userSpaceOnUse">
      <stop offset="0" stop-color="#dbf1c6"/>
      <stop offset="1" stop-color="#5fb749"/>
    </linearGradient>
    <linearGradient id="linear-gradient-3" x1="-36.53" y1="325.03" x2="-17.72" y2="325.03" xlink:href="#linear-gradient"/>
    <linearGradient id="linear-gradient-4" x1="-36.19" y1="325.03" x2="-18.25" y2="325.03" xlink:href="#linear-gradient-2"/>
  </defs>
  <g id="Layer_2" data-name="Layer 2">
    <polygon class="cls-1" points="293.33 4.17 287.17 7.04 286.37 5.32 285.12 5.9 285.92 7.63 284.96 8.08 284.15 6.35 282.9 6.93 283.71 8.66 260.06 19.69 259.25 17.96 258 18.55 258.81 20.27 257.84 20.72 257.04 18.99 255.79 19.58 256.59 21.3 250.43 24.18 270.32 66.82 313.21 46.81 293.33 4.17"/>
    <g>
      <rect class="cls-2" x="39.83" y="43.7" width="212.67" height="54.82" rx="2"/>
      <line class="cls-3" x1="39.83" y1="80.54" x2="252.49" y2="80.54"/>
      <text class="cls-4" transform="translate(71.69 56.82)">1</text>
      <text class="cls-4" transform="translate(71.69 73.82)">0</text>
      <text class="cls-4" transform="translate(126.87 56.82)">ffffffff</text>
      <text class="cls-4" transform="translate(126.87 73.82)">fffffffe</text>
      <text class="cls-5" transform="translate(76.43 91.9)">LockTime: 2019-04-30 06:39:00</text>
      <text class="cls-4" transform="translate(192.84 56.82)">100</text>
      <text class="cls-4" transform="translate(219.38 56.82)">PKH<tspan class="cls-6" x="20.7" y="3">D</tspan></text>
      <g>
        <path class="cls-7" d="M178.07,183.15l-1.7-1.92a11.08,11.08,0,0,1,7.34.37,6.6,6.6,0,0,0,3.74.48,3.87,3.87,0,0,0,2.43-1.45c.72-.8,1.55-1.7,4.32-2l1.35,2c-2.2.21-2.78.85-3.45,1.59A5,5,0,0,1,189,184a9.55,9.55,0,0,1-5.15-.59A8.32,8.32,0,0,0,178.07,183.15Z" transform="translate(-133.01 -128.73)"/>
        <path class="cls-7" d="M181.4,185l-1.7-1.91a11.09,11.09,0,0,1,7.34.37,6.57,6.57,0,0,0,3.73.48,3.91,3.91,0,0,0,2.43-1.45c.73-.8,1.55-1.71,4.32-2l1.36,2a4.32,4.32,0,0,0-3.45,1.58,5,5,0,0,1-3.09,1.8,9.48,9.48,0,0,1-5.15-.6A8.41,8.41,0,0,0,181.4,185Z" transform="translate(-133.01 -128.73)"/>
        <path class="cls-7" d="M180.66,187l-1.7-1.91a11.09,11.09,0,0,1,7.34.37,6.59,6.59,0,0,0,3.74.47,3.87,3.87,0,0,0,2.42-1.45c.73-.79,1.55-1.7,4.33-2l1.35,2c-2.2.21-2.78.85-3.45,1.59a5,5,0,0,1-3.08,1.8,9.46,9.46,0,0,1-5.15-.6A8.38,8.38,0,0,0,180.66,187Z" transform="translate(-133.01 -128.73)"/>
        <path class="cls-7" d="M184,188.79l-1.7-1.92a11.15,11.15,0,0,1,7.34.37,6.52,6.52,0,0,0,3.74.48,3.84,3.84,0,0,0,2.42-1.45c.73-.8,1.56-1.7,4.33-2l1.35,2c-2.2.21-2.78.85-3.45,1.59a5,5,0,0,1-3.08,1.8,9.46,9.46,0,0,1-5.15-.6A8.38,8.38,0,0,0,184,188.79Z" transform="translate(-133.01 -128.73)"/>
        <path class="cls-7" d="M178.59,181.06l-1.7-1.91a11,11,0,0,1,7.34.36A6.59,6.59,0,0,0,188,180a3.93,3.93,0,0,0,2.43-1.45c.72-.8,1.54-1.7,4.32-2l1.35,2c-2.2.21-2.78.85-3.45,1.59a5,5,0,0,1-3.08,1.8,9.55,9.55,0,0,1-5.15-.6A8.38,8.38,0,0,0,178.59,181.06Z" transform="translate(-133.01 -128.73)"/>
        <polygon points="45.69 50.62 48.02 50.41 49.03 50.95 47.52 50.86 45.69 50.62"/>
        <polygon points="51.63 51.8 54.11 52.74 55.72 52.23 53.68 51.97 51.63 51.8"/>
        <polygon points="52.61 54.78 50.86 54.7 50.15 55.18 51.92 55 54.19 55.91 55.61 55.89 53.65 55.12 52.61 54.78"/>
        <path d="M195.9,183.32c-.44.05-1.57.31-1.57.31l-.87,1.42,1.22-.87,1.9-.26Z" transform="translate(-133.01 -128.73)"/>
        <polygon points="63.8 58.08 62.99 59.09 61.16 59.67 62.19 60.11 63.7 59.49 63.8 58.08"/>
        <polygon points="56.13 59.02 54.35 58.48 52.99 58.81 54.61 58.92 56.13 59.02"/>
        <polygon points="50.23 56.82 49.22 57 50.63 57.08 50.23 56.82"/>
        <polygon class="cls-8" points="58.45 50.75 57.2 51.09 55.72 52.23 57.75 51.78 58.45 50.75"/>
        <polygon class="cls-8" points="60.05 56.87 58.4 57.68 58.22 58.17 59.81 57.76 60.05 56.87"/>
        <polygon class="cls-8" points="67.11 56.36 65.26 57.04 65.13 57.94 66.66 57.22 67.11 56.36"/>
        <polygon class="cls-8" points="49.11 56.27 47.86 57.33 47.42 56.66 49.11 56.27"/>
        <polygon class="cls-9" points="56.66 53.98 54.39 53.79 55.62 54.36 56.66 53.98"/>
        <path class="cls-9" d="M191.89,188.31l-2.12-.48s1.09.75,1.4.9a15.32,15.32,0,0,0,2.14.27Z" transform="translate(-133.01 -128.73)"/>
        <polygon class="cls-9" points="49.85 54.22 47.99 54.29 48.71 55.3 49.85 54.22"/>
        <path class="cls-9" d="M194.05,177.47l-2.1.85s-.83,1.22-.5,1.16a12.29,12.29,0,0,0,1.79-1Z" transform="translate(-133.01 -128.73)"/>
      </g>
      <g>
        <path class="cls-7" d="M178.07,199.31l-1.7-1.91a11.08,11.08,0,0,1,7.34.37,6.51,6.51,0,0,0,3.74.47,3.91,3.91,0,0,0,2.43-1.44c.72-.8,1.55-1.71,4.32-2l1.35,2c-2.2.22-2.78.85-3.45,1.59a5,5,0,0,1-3.08,1.8,9.46,9.46,0,0,1-5.15-.6A8.44,8.44,0,0,0,178.07,199.31Z" transform="translate(-133.01 -128.73)"/>
        <path class="cls-7" d="M181.4,201.13l-1.7-1.91a11,11,0,0,1,7.34.37,6.56,6.56,0,0,0,3.73.47,3.87,3.87,0,0,0,2.43-1.45c.73-.8,1.55-1.7,4.32-2l1.36,2c-2.2.22-2.78.85-3.45,1.59a5,5,0,0,1-3.09,1.8,9.48,9.48,0,0,1-5.15-.6A8.35,8.35,0,0,0,181.4,201.13Z" transform="translate(-133.01 -128.73)"/>
        <path class="cls-7" d="M180.66,203.16l-1.7-1.92a11.09,11.09,0,0,1,7.34.37,6.59,6.59,0,0,0,3.74.48,3.87,3.87,0,0,0,2.42-1.45c.73-.8,1.55-1.7,4.33-2l1.35,2c-2.2.21-2.78.85-3.45,1.59a5,5,0,0,1-3.08,1.79,9.46,9.46,0,0,1-5.15-.59A8.38,8.38,0,0,0,180.66,203.16Z" transform="translate(-133.01 -128.73)"/>
        <path class="cls-7" d="M184,205l-1.7-1.91a11.09,11.09,0,0,1,7.34.37,6.51,6.51,0,0,0,3.74.47,3.83,3.83,0,0,0,2.42-1.44c.73-.8,1.56-1.71,4.33-2l1.35,2a4.32,4.32,0,0,0-3.45,1.58,5,5,0,0,1-3.08,1.8,9.46,9.46,0,0,1-5.15-.6A8.44,8.44,0,0,0,184,205Z" transform="translate(-133.01 -128.73)"/>
        <path class="cls-7" d="M178.59,197.22l-1.7-1.91a11.09,11.09,0,0,1,7.34.37,6.59,6.59,0,0,0,3.74.48,3.93,3.93,0,0,0,2.43-1.45c.72-.8,1.54-1.71,4.32-2l1.35,2a4.32,4.32,0,0,0-3.45,1.58,5,5,0,0,1-3.08,1.8,9.46,9.46,0,0,1-5.15-.6A8.44,8.44,0,0,0,178.59,197.22Z" transform="translate(-133.01 -128.73)"/>
        <polygon points="45.69 66.79 48.02 66.58 49.03 67.12 47.52 67.02 45.69 66.79"/>
        <polygon points="51.63 67.97 54.11 68.9 55.72 68.4 53.68 68.13 51.63 67.97"/>
        <polygon points="52.61 70.95 50.86 70.86 50.15 71.35 51.92 71.17 54.19 72.07 55.61 72.06 53.65 71.29 52.61 70.95"/>
        <path d="M195.9,199.49c-.44,0-1.57.3-1.57.3l-.87,1.42,1.22-.86,1.9-.26Z" transform="translate(-133.01 -128.73)"/>
        <polygon points="63.8 74.24 62.99 75.26 61.16 75.84 62.19 76.28 63.7 75.66 63.8 74.24"/>
        <polygon points="56.13 75.18 54.35 74.64 52.99 74.98 54.61 75.09 56.13 75.18"/>
        <polygon points="50.23 72.99 49.22 73.16 50.63 73.24 50.23 72.99"/>
        <polygon class="cls-8" points="58.45 66.91 57.2 67.26 55.72 68.4 57.75 67.95 58.45 66.91"/>
        <polygon class="cls-8" points="60.05 73.04 58.4 73.85 58.22 74.33 59.81 73.93 60.05 73.04"/>
        <polygon class="cls-8" points="67.11 72.53 65.26 73.21 65.13 74.11 66.66 73.39 67.11 72.53"/>
        <polygon class="cls-8" points="49.11 72.44 47.86 73.5 47.42 72.83 49.11 72.44"/>
        <polygon class="cls-9" points="56.66 70.15 54.39 69.96 55.62 70.52 56.66 70.15"/>
        <path class="cls-9" d="M191.89,204.47l-2.12-.47s1.09.75,1.4.89a15.56,15.56,0,0,0,2.14.28Z" transform="translate(-133.01 -128.73)"/>
        <polygon class="cls-9" points="49.85 70.39 47.99 70.45 48.71 71.46 49.85 70.39"/>
        <path class="cls-9" d="M194.05,193.64l-2.1.85s-.83,1.21-.5,1.15a11.41,11.41,0,0,0,1.79-1Z" transform="translate(-133.01 -128.73)"/>
      </g>
      <path class="cls-10" d="M226.56,184c1.5.68,2.74-.57,4-.8.31.35-.05,1.06.13,1.46.91.66,2.68.42,3.36,1.32-.4.32-.95-.2-1.65-.39-1.22-.34-2.55-.14-2.09-1.92-1.09.51-2.92,1.46-4.18.59a9,9,0,0,1-1.27.66c-.5,1.07-.92,2.22-1.33,3.38-.88-.31-.91-1.52-2-1.65a3.11,3.11,0,0,0-.32,1c.25.07.51-.73.89-.53,0,.51-.54.93-1,1.12-.52-.33-.11-1.08,0-1.65a6.41,6.41,0,0,1-4,1.26,3.76,3.76,0,0,1-1.83-.53c-1.15-.86-.85-3.12-.07-4.17a5,5,0,0,1,2.92-1.66,16.75,16.75,0,0,0,.82-2c.36,0,.45-.1.57-.47,1.87-.73,4-1.16,5.57-2.25-1.94.36-4.07,1-6.08,1.59a4.33,4.33,0,0,1-1.9.4c.08-.4.6-.44.89-.53,1-.3,2.13-.61,3.23-.93a12.55,12.55,0,0,1,4.44-.86c0,.69-.69.89-1.15,1.13-1.37.71-3.26,1.23-4.81,1.85a5.46,5.46,0,0,0,1.39,1.92,10.73,10.73,0,0,1,2.22.26c.76-.91,1.38-2.13,2.09-3.17.19-.28.46-.76.83-.73-.12.77-.77,1.33-1.21,2s-.8,1.39-1.2,2.06c.47.32,1.23.34,1.39,1-.57.13-1-.49-1.52-.6a17.73,17.73,0,0,0-1.84,3.58,13.84,13.84,0,0,0,2.73-1.06,6.76,6.76,0,0,0,1-2.52c.17-2.07,1.44-3.29,2.66-4.36a3.12,3.12,0,0,1,.38-.8c.25-.06.23.16.38.2a9.54,9.54,0,0,1,5.83-1.39c.38,0,1.27.14,1.26.66,0,.84-1.35,1.8-2,2.32A74.3,74.3,0,0,1,226.56,184Zm6.65-7.75c-1.73.15-3.83.7-4.75,1.79a15.15,15.15,0,0,0-1.27,2.45c-.47.88-1.63,2.26-1,3.24a67.3,67.3,0,0,0,7.48-5.09,5.66,5.66,0,0,0,2-2.26A5.43,5.43,0,0,0,233.21,176.29Zm-7.15,5.56c.38-1,1.13-1.94,1.39-2.84A5.26,5.26,0,0,0,226.06,181.85Zm-7.42-.39c.56-.13,1.3-.06,1.84-.2a10,10,0,0,1-1.2-1.53C219.12,180.36,218.84,180.86,218.64,181.46Zm-.12.39a7.73,7.73,0,0,0-.51,1.66c-.14.53-.17,1.28-.63,1.52-.16-.9.41-2.11.63-3a3.58,3.58,0,0,0-3.1,3.57c0,1.42,1.1,1.93,2.59,1.92,3.17,0,5.48-2.86,3.36-5.69A11.07,11.07,0,0,0,218.52,181.85Zm3.61,2.39c.34-.75.71-1.47,1.08-2.19a13.15,13.15,0,0,0-1.84-.26A6.86,6.86,0,0,1,222.13,184.24Zm3.1.06a2.48,2.48,0,0,0,.57-.26c0-.2,0-.47-.19-.53C225.51,183.8,225.34,184,225.23,184.3Zm-3.48,2c.84.16,1.14.89,1.65,1.4a6.41,6.41,0,0,1,.88-2.32c0-.08,0-.16-.12-.14C223.49,185.79,222.46,185.9,221.75,186.35Z" transform="translate(-133.01 -128.73)"/>
      <g>
        <path class="cls-11" d="M253.79,187.58,247.37,181a4.19,4.19,0,0,0-6.71-4.75l-.09.11-.11.09a4.19,4.19,0,0,0,4.21,7l.54.55a1,1,0,0,1,1.31,1.35l.59.61a1,1,0,0,1,1.31,1.35l.59.61a1,1,0,0,1,1.31,1.35l.41.42,3.3-.17.21-.21Z" transform="translate(-133.01 -128.73)"/>
        <path class="cls-12" d="M254.24,189.24l-7.08-8.07a4.14,4.14,0,1,0-2.49,2.21l.54.55a1,1,0,0,1,1.31,1.35l.59.61a1,1,0,0,1,1.31,1.35l.59.61a1,1,0,0,1,1.31,1.35l.41.42,3.3-.17Z" transform="translate(-133.01 -128.73)"/>
        <path class="cls-13" d="M253.79,187.58,247.37,181a4.14,4.14,0,1,0-2.49,2.22l.53.55a1,1,0,0,1,1.32,1.35l.59.61a.9.9,0,0,1,1.16.18.92.92,0,0,1,.15,1.17l.59.61a.9.9,0,0,1,1.16.18.92.92,0,0,1,.15,1.17l.41.42,3.3-.18Z" transform="translate(-133.01 -128.73)"/>
        <path class="cls-14" d="M240.85,181.86a3.8,3.8,0,1,1,6.21-1L247,181l6.52,6.71.32,1.18-2.73.15-.14-.14a1.36,1.36,0,0,0-1.65-1.71L249,187a1.35,1.35,0,0,0-1.66-1.7l-.24-.26a1.28,1.28,0,0,0-.32-1.34,1.31,1.31,0,0,0-1.34-.36l-.5-.53-.2.07A3.84,3.84,0,0,1,240.85,181.86Z" transform="translate(-133.01 -128.73)"/>
        <path class="cls-15" d="M245.88,181.59a3.31,3.31,0,1,1,.07-4.68A3.3,3.3,0,0,1,245.88,181.59Z" transform="translate(-133.01 -128.73)"/>
        <text class="cls-16" transform="translate(107.35 49.05) rotate(45.85)">Pub</text>
      </g>
      <g>
        <path class="cls-11" d="M253.79,204.62,247.37,198a4.19,4.19,0,0,0-6.71-4.75l-.09.1-.11.1a4.18,4.18,0,0,0,4.21,7l.54.55a.9.9,0,0,1,1.16.19.89.89,0,0,1,.15,1.16l.59.61a1,1,0,0,1,1.31,1.35l.59.61a1,1,0,0,1,1.31,1.35l.41.42,3.3-.17.21-.2Z" transform="translate(-133.01 -128.73)"/>
        <path class="cls-12" d="M254.24,206.29l-7.08-8.08a4.14,4.14,0,1,0-2.49,2.21l.54.55a.9.9,0,0,1,1.16.19.89.89,0,0,1,.15,1.16l.59.61a1,1,0,0,1,1.31,1.35l.59.61a1,1,0,0,1,1.31,1.35l.41.42,3.3-.17Z" transform="translate(-133.01 -128.73)"/>
        <path class="cls-17" d="M253.79,204.62,247.37,198a4.14,4.14,0,1,0-2.49,2.21l.53.55a.92.92,0,0,1,1.17.19.9.9,0,0,1,.15,1.16l.59.61a.89.89,0,0,1,1.16.19.9.9,0,0,1,.15,1.16l.59.61a.9.9,0,0,1,1.16.18.92.92,0,0,1,.15,1.17l.41.42,3.3-.17Z" transform="translate(-133.01 -128.73)"/>
        <path class="cls-18" d="M240.85,198.91a3.8,3.8,0,1,1,6.21-1l-.09.21,6.52,6.71.32,1.18-2.73.15-.14-.14a1.35,1.35,0,0,0-1.65-1.7L249,204a1.29,1.29,0,0,0-.32-1.35,1.31,1.31,0,0,0-1.34-.36l-.24-.25a1.35,1.35,0,0,0-1.66-1.71l-.5-.52-.2.06A3.83,3.83,0,0,1,240.85,198.91Z" transform="translate(-133.01 -128.73)"/>
        <path class="cls-15" d="M245.88,198.63A3.3,3.3,0,1,1,246,194,3.3,3.3,0,0,1,245.88,198.63Z" transform="translate(-133.01 -128.73)"/>
        <text class="cls-16" transform="translate(107.35 66.1) rotate(45.85)">Pub</text>
      </g>
      <path class="cls-10" d="M226.56,201.08c1.5.68,2.74-.57,4-.79.31.34-.05,1.05.13,1.45.91.66,2.68.42,3.36,1.33-.4.31-.95-.2-1.65-.4-1.22-.34-2.55-.13-2.09-1.92-1.09.51-2.92,1.46-4.18.59a9,9,0,0,1-1.27.67c-.5,1.06-.92,2.21-1.33,3.37-.88-.31-.91-1.52-2-1.65a3.2,3.2,0,0,0-.32,1c.25.07.51-.73.89-.53,0,.51-.54.93-1,1.13-.52-.33-.11-1.08,0-1.66a6.41,6.41,0,0,1-4,1.26,3.56,3.56,0,0,1-1.83-.53c-1.15-.86-.85-3.11-.07-4.17a5,5,0,0,1,2.92-1.66,16.08,16.08,0,0,0,.82-2c.36,0,.45-.1.57-.46,1.87-.74,4-1.16,5.57-2.26-1.94.36-4.07,1-6.08,1.59a4.2,4.2,0,0,1-1.9.4c.08-.39.6-.44.89-.53,1-.3,2.13-.61,3.23-.93a12.55,12.55,0,0,1,4.44-.86c0,.69-.69.89-1.15,1.13-1.37.72-3.26,1.23-4.81,1.85a5.46,5.46,0,0,0,1.39,1.92,11.43,11.43,0,0,1,2.22.27c.76-.91,1.38-2.14,2.09-3.18.19-.28.46-.76.83-.73-.12.77-.77,1.33-1.21,2s-.8,1.38-1.2,2.05c.47.33,1.23.35,1.39,1-.57.13-1-.49-1.52-.59a17.92,17.92,0,0,0-1.84,3.57,13.25,13.25,0,0,0,2.73-1.06,6.71,6.71,0,0,0,1-2.51,6.39,6.39,0,0,1,2.66-4.37,3.47,3.47,0,0,1,.38-.8c.25-.05.23.16.38.2a9.6,9.6,0,0,1,5.83-1.39c.38,0,1.27.14,1.26.66,0,.84-1.35,1.81-2,2.32A74.3,74.3,0,0,1,226.56,201.08Zm6.65-7.74c-1.73.14-3.83.7-4.75,1.78a16,16,0,0,0-1.27,2.45c-.47.88-1.63,2.26-1,3.25a68.76,68.76,0,0,0,7.48-5.1,5.69,5.69,0,0,0,2-2.25A5.29,5.29,0,0,0,233.21,193.34Zm-7.15,5.55c.38-1,1.13-1.94,1.39-2.84A5.33,5.33,0,0,0,226.06,198.89Zm-7.42-.39c.56-.12,1.3-.05,1.84-.2a9.91,9.91,0,0,1-1.2-1.52C219.12,197.4,218.84,197.91,218.64,198.5Zm-.12.39a7.91,7.91,0,0,0-.51,1.66c-.14.54-.17,1.29-.63,1.52-.16-.9.41-2.11.63-3a3.58,3.58,0,0,0-3.1,3.57c0,1.43,1.1,1.94,2.59,1.92,3.17,0,5.48-2.86,3.36-5.69A11.78,11.78,0,0,0,218.52,198.89Zm3.61,2.39c.34-.75.71-1.46,1.08-2.18a11.81,11.81,0,0,0-1.84-.27A6.92,6.92,0,0,1,222.13,201.28Zm3.1.06a2.48,2.48,0,0,0,.57-.26c0-.2,0-.47-.19-.53C225.51,200.84,225.34,201.07,225.23,201.34Zm-3.48,2.06c.84.15,1.14.88,1.65,1.39a6.41,6.41,0,0,1,.88-2.32c0-.08,0-.16-.12-.13C223.49,202.84,222.46,203,221.75,203.4Z" transform="translate(-133.01 -128.73)"/>
      <line class="cls-3" x1="187.66" y1="43.84" x2="187.66" y2="80.51"/>
      <rect class="cls-19" x="39.83" y="43.7" width="212.67" height="54.82" rx="2"/>
    </g>
    <g>
      <path class="cls-20" d="M261.25,191.5c-9-10.75-15.75-24.25-16.75-33.17" transform="translate(-133.01 -128.73)"/>
      <polygon points="129.32 61.16 129.96 64.84 126.45 63.56 129.32 61.16"/>
    </g>
    <text class="cls-21" transform="translate(40.24 114.04)">LockTime ein Jahr<tspan x="0" y="9.5">in der Zukun</tspan><tspan class="cls-22" x="44.86" y="9.5">f</tspan><tspan x="47.34" y="9.5">t</tspan></text>
    <text class="cls-21" transform="translate(189.82 26.57)">An <tspan class="cls-23" x="11.22" y="0">T</tspan><tspan class="cls-24" x="14.66" y="0">ochter</tspan></text>
    <text class="cls-21" transform="translate(81.86 7.57)">Sequenznummern:<tspan x="0" y="9.5">mindestens eine muss</tspan><tspan class="cls-25"><tspan x="0" y="19">kleiner sein als fffffff</tspan><tspan class="cls-26" x="81.95" y="19">f</tspan><tspan x="84.56" y="19">.</tspan></tspan></text>
    <g>
      <path class="cls-20" d="M265.75,224.75c-6.67,9.33-23.77,16.14-33,16.14" transform="translate(-133.01 -128.73)"/>
      <polygon points="130.91 95.38 134.32 93.83 133.96 97.56 130.91 95.38"/>
    </g>
    <text class="cls-27" transform="translate(44.22 37.05)">Tx<tspan x="7.78" y="2">1</tspan></text>
    <g>
      <rect class="cls-28" x="390.85" y="137.5" width="47.33" height="47.05" transform="translate(-162.22 61.54) rotate(-25)"/>
      <path class="cls-29" d="M389.55,160.62c4.7,10,9.32,20.25,14.08,30.19,10.62-5,21.54-9.89,32.08-15-1.36-2.87-2.83-6.06-4.18-9,2.88-1.34,5.78-2.63,8.6-4-3.4-7.09-6.41-14.25-9.9-21.23C416.87,148.08,403,154.23,389.55,160.62Z" transform="translate(-133.01 -128.73)"/>
      <path class="cls-30" d="M430.25,141.65l9.9,21.23-4.43,13s-21.46,10-32.08,15c-4.76-9.94-9.38-20.16-14.08-30.19C403,154.22,430.25,141.65,430.25,141.65Z" transform="translate(-133.01 -128.73)"/>
      <path class="cls-30" d="M440.13,162.88c1.17,2.3,3.11,6.53,4.19,9-2.42,1-6.24,2.93-8.61,4C436.93,170.89,438.92,166.36,440.13,162.88Z" transform="translate(-133.01 -128.73)"/>
      <g>
        <path class="cls-15" d="M402.39,151.15c-.36-.52-.6-.83-1-1.31l-1.34.66c.11.52.24,1,.38,1.55l0,.08c-.66.32-.88.43-1.49.75l-.06,0c-.1-.61-.12-.76-.34-1.86l-.3-1.59c-.08-.49-.17-1-.26-1.46-.05-.24-.28-1.47-.34-1.75l0-.07c1-.5,1.19-.58,2-1l.07,0,.24.29,1.83,2.14,1.1,1.29.87,1,.31.36,0,.07-1.64.84Zm-2.68-1.93c.3-.14.59-.29.88-.44l-.64-.85c-.42-.57-.52-.71-.81-1.14.13.49.17.64.35,1.44Z" transform="translate(-133.01 -128.73)"/>
        <path class="cls-15" d="M404,144.72l.2.44a1.59,1.59,0,0,1,.76-.91,1.33,1.33,0,0,1,1.33.11,3.44,3.44,0,0,1,1.06,1.33,2.56,2.56,0,0,1-.18,3,3,3,0,0,1-.89.59l.88,1.69,0,.07-.59.28c-.31.15-.59.3-.93.5l-.08,0c-.19-.43-.42-1-.9-2a45.32,45.32,0,0,0-2.15-4.07v-.07c.69-.47.86-.59,1.43-1Zm1.8,3.51a.56.56,0,0,0,.34-.62,3.77,3.77,0,0,0-.33-1c-.21-.43-.58-1.07-.93-.9a.4.4,0,0,0-.19.26C405.2,147.08,405.23,147.14,405.79,148.23Z" transform="translate(-133.01 -128.73)"/>
        <path class="cls-15" d="M410.88,147c-.68.32-.91.44-1.59.8l-.07,0c-.33-.74-.6-1.33-1-2.1-.55-1.11-.92-1.75-1.17-2.16l0-.08a13.51,13.51,0,0,0,1.44-1l.07,0c.13.24.3.61.55,1.12-.17-.91-.09-1.38.53-1.68a.89.89,0,0,1,.26-.09l.08,0c.27.84.34,1,.62,1.8l-.05.06a.71.71,0,0,0-.58,0,.61.61,0,0,0-.33.39,1.51,1.51,0,0,0,.26,1c.13.28.76,1.5,1,1.87Z" transform="translate(-133.01 -128.73)"/>
        <path class="cls-15" d="M411.81,140.32c-.57.37-.74.49-1.29.89l-.08,0c-.26-.53-.32-.65-.6-1.17l0-.07c.62-.39.79-.5,1.33-.89l.08,0c.25.54.29.62.56,1.17Zm2.64,5c-.68.33-.89.43-1.6.82l-.08,0c-.28-.61-.54-1.21-.93-2a24.35,24.35,0,0,0-1.21-2.25l0-.07a17.35,17.35,0,0,0,1.47-1.08l.07,0c.28.61.61,1.29.86,1.8.45.92.91,1.83,1.42,2.71Z" transform="translate(-133.01 -128.73)"/>
        <path class="cls-15" d="M416.93,144.08c-.75.36-.91.44-1.59.81l-.07,0c-.3-.69-.55-1.25-1.17-2.52-1.27-2.6-1.5-3-1.81-3.52v-.07c.59-.42.78-.57,1.44-1.07l.07,0,.66,1.35c1.68,3.45,1.93,3.92,2.48,4.95Z" transform="translate(-133.01 -128.73)"/>
      </g>
      <g>
        <path class="cls-31" d="M398.11,159.77l6.77-3.31c1.5-.73,2.13-1.06,2.9-1.47l.17.12c-.17,1.16-1.08,6.83-1.26,8.11a4.88,4.88,0,0,1,6.77,2.25,5.75,5.75,0,0,1,.57,2.38c0,2.7-1.86,4.67-4.44,5.92a8.83,8.83,0,0,1-4.59,1l-.19-.11c-.36-.85-.46-1.05-.83-2l.14-.18a6.25,6.25,0,0,0,4.5-.46c2.44-1.19,3.29-3.31,2.37-5.2a3.23,3.23,0,0,0-2.12-1.76,4.67,4.67,0,0,0-3.17.5,5.83,5.83,0,0,0-1.71,1.23l-.22-.1c.29-1.45,1.14-5.79,1.36-8.07-2.69,1.31-3.66,1.78-6.11,3.07l-.21-.07a15,15,0,0,0-.75-1.72Z" transform="translate(-133.01 -128.73)"/>
        <path class="cls-31" d="M414.07,161.73a13,13,0,0,1-1.51-5.25,6,6,0,0,1,3.53-5.74,6.6,6.6,0,0,1,2-.61c4.17-.55,6.56,3.58,7.65,5.82,1.95,4,1.62,6.13,1.33,7.21a5.85,5.85,0,0,1-3.34,3.74,5.76,5.76,0,0,1-4.94.27C417.32,166.53,415.73,165.14,414.07,161.73Zm2.86-9.2c-2.19,1.06-1.75,3.61-1.64,4.18a17,17,0,0,0,1.36,3.9,15.28,15.28,0,0,0,1.91,3c.47.55,2.12,2.53,4.42,1.41a3,3,0,0,0,1.75-3.08,13.28,13.28,0,0,0-1.51-4.85,16.74,16.74,0,0,0-1-1.77,7.44,7.44,0,0,0-2.56-2.8A3.11,3.11,0,0,0,416.93,152.53Z" transform="translate(-133.01 -128.73)"/>
      </g>
      <g>
        <path class="cls-32" d="M408.52,185.87c.12.27.14.31.26.55l0,.06-.27.12c-.14.07-2.42,1.19-3.12,1.55l-.06-.06c.28-.89.56-1.78.82-2.67a2.77,2.77,0,0,0,.12-1.84,1,1,0,0,0-1.49-.42,1.78,1.78,0,0,0-.59.46,1.89,1.89,0,0,0-.38.73h-.07l-.32-.66,0-.07a1.88,1.88,0,0,1,.53-.69,3.3,3.3,0,0,1,.66-.44,1.66,1.66,0,0,1,2.36.62c.36.75.16,1.67-.39,3.22l-.2.59.7-.34,1.38-.74Z" transform="translate(-133.01 -128.73)"/>
        <path class="cls-32" d="M408.18,183.82a4,4,0,0,1-.46-1.61,1.82,1.82,0,0,1,1.08-1.76,2.13,2.13,0,0,1,.62-.19c1.27-.17,2,1.1,2.34,1.78a3,3,0,0,1,.41,2.21,1.79,1.79,0,0,1-1,1.15,1.75,1.75,0,0,1-1.51.08A3.09,3.09,0,0,1,408.18,183.82Zm.88-2.82a1.11,1.11,0,0,0-.5,1.28,5.22,5.22,0,0,0,.41,1.19,4.3,4.3,0,0,0,.59.93,1.1,1.1,0,0,0,1.35.43.93.93,0,0,0,.54-.94,4.16,4.16,0,0,0-.47-1.49,4.68,4.68,0,0,0-.3-.54,2.26,2.26,0,0,0-.78-.86A1,1,0,0,0,409.06,181Z" transform="translate(-133.01 -128.73)"/>
        <path class="cls-32" d="M415.44,183.21c-.31.15-.4.19-.75.39l-.06,0c-.53-1.14-.65-1.38-1.3-2.74-.24-.49-.5-1.05-.7-1.45-.3.21-.37.26-.63.46h-.08a4.94,4.94,0,0,0-.2-.51v-.08c.57-.36.77-.49,1.33-.88h.08c.16.39.35.86,1.24,2.69.56,1.14.78,1.57,1.08,2.08Z" transform="translate(-133.01 -128.73)"/>
        <path class="cls-32" d="M419.22,178.66a1.48,1.48,0,0,1,.65.68,1.52,1.52,0,0,1,0,1.34,2.2,2.2,0,0,1-1.08,1,1.67,1.67,0,0,1-2.44-.6,1.35,1.35,0,0,1,.25-1.62,1.18,1.18,0,0,1-1.16-.68,1.31,1.31,0,0,1,0-1.22,2.16,2.16,0,0,1,1-.83c1.07-.52,1.85-.15,2.15.47a1.2,1.2,0,0,1-.21,1.37A1.25,1.25,0,0,1,419.22,178.66Zm-2.52-1.38a.86.86,0,0,0-.51,1.17,1,1,0,0,0,1.68-.93A.87.87,0,0,0,416.7,177.28Zm1,2a1,1,0,0,0-.55,1.39,1.09,1.09,0,1,0,.55-1.39Z" transform="translate(-133.01 -128.73)"/>
      </g>
      <rect class="cls-33" x="389.2" y="144.64" width="1.38" height="3.72" transform="translate(-158.39 49.82) rotate(-25.01)"/>
      <rect class="cls-33" x="391.42" y="143.61" width="1.38" height="3.72" transform="translate(-157.75 50.54) rotate(-24.99)"/>
      <rect class="cls-33" x="416.32" y="132" width="1.38" height="3.72" transform="translate(-150.5 60.1) rotate(-25.01)"/>
      <rect class="cls-33" x="418.53" y="130.97" width="1.38" height="3.72" transform="translate(-149.84 61.09) rotate(-25.03)"/>
      <path class="cls-34" d="M440.13,162.88c-.08,3.61-1.43,8.64-4.83,14a9.23,9.23,0,0,0,.71-4.61l2.34-7Z" transform="translate(-133.01 -128.73)"/>
      <path class="cls-35" d="M440.15,162.88c-.38.71-4.07,2.55-8.6,4,3.9,2.65,4.67,8.1,4.17,9Z" transform="translate(-133.01 -128.73)"/>
    </g>
    <g>
      <path class="cls-20" d="M259.75,175.5a90.88,90.88,0,0,1-15.25-17.17" transform="translate(-133.01 -128.73)"/>
      <polygon points="127.56 45.01 128.76 48.55 125.09 47.82 127.56 45.01"/>
    </g>
    <g>
      <path class="cls-20" d="M358.92,175.5a90.88,90.88,0,0,1-15.25-17.17" transform="translate(-133.01 -128.73)"/>
      <polygon points="226.73 45.01 227.93 48.55 224.26 47.82 226.73 45.01"/>
    </g>
    <g>
      <path class="cls-20" d="M178.5,191.83c-5.67-3.33-12-5-19.83-5" transform="translate(-133.01 -128.73)"/>
      <polygon points="45.97 61.22 47.81 64.48 44.07 64.45 45.97 61.22"/>
    </g>
    <g>
      <path class="cls-20" d="M178.5,175.53c-5.67-3.34-12-5-19.83-5" transform="translate(-133.01 -128.73)"/>
      <polygon points="45.97 44.91 47.81 48.17 44.07 48.14 45.97 44.91"/>
    </g>
    <text class="cls-21" transform="translate(0.3 45.27)">30 B<tspan class="cls-36" x="15.46" y="0">T</tspan><tspan x="19.2" y="0">C</tspan></text>
    <text class="cls-21" transform="translate(0 62.32)">70 B<tspan class="cls-36" x="15.77" y="0">T</tspan><tspan x="19.5" y="0">C</tspan></text>
  </g>
</svg>
