<svg xmlns="http://www.w3.org/2000/svg" xmlns:xlink="http://www.w3.org/1999/xlink" width="313.24" height="130.66" viewBox="0 0 313.24 130.66">
  <defs>
    <style>
      .cls-1, .cls-30, .cls-32 {
        fill: #d9d9d9;
      }

      .cls-2 {
        fill: #fef0e8;
      }

      .cls-11, .cls-19, .cls-20, .cls-3 {
        fill: none;
      }

      .cls-3 {
        stroke: #4d4d4d;
      }

      .cls-25, .cls-3 {
        stroke-width: 0.5px;
      }

      .cls-4 {
        font-size: 11.5px;
      }

      .cls-4, .cls-5 {
        font-family: Courier;
      }

      .cls-5 {
        font-size: 8px;
      }

      .cls-6 {
        font-size: 7px;
      }

      .cls-7 {
        fill: #fda452;
      }

      .cls-11, .cls-20, .cls-7 {
        stroke: #000;
      }

      .cls-12, .cls-20, .cls-30, .cls-7 {
        stroke-width: 0.3px;
      }

      .cls-8 {
        fill: #fbafc5;
      }

      .cls-10, .cls-26, .cls-27, .cls-31, .cls-32, .cls-8, .cls-9 {
        fill-rule: evenodd;
      }

      .cls-9 {
        fill: #96c749;
      }

      .cls-10 {
        fill: #28708e;
      }

      .cls-11, .cls-12, .cls-19, .cls-30 {
        stroke-linejoin: round;
      }

      .cls-11 {
        stroke-width: 0.75px;
      }

      .cls-12 {
        fill: #267520;
        stroke: #267520;
      }

      .cls-13 {
        fill: url(#linear-gradient);
      }

      .cls-14 {
        fill: url(#linear-gradient-2);
      }

      .cls-15, .cls-27 {
        fill: #fff;
      }

      .cls-16 {
        font-size: 3.67px;
        font-family: ArialMT, Arial;
      }

      .cls-17 {
        fill: url(#linear-gradient-3);
      }

      .cls-18 {
        fill: url(#linear-gradient-4);
      }

      .cls-19 {
        stroke: #e60001;
      }

      .cls-20 {
        stroke-miterlimit: 10;
      }

      .cls-21 {
        font-size: 9px;
        font-family: Humanist521BT-BoldCondensed, Humanst521 Cn BT;
        font-weight: 700;
      }

      .cls-22 {
        letter-spacing: 0.02em;
      }

      .cls-23 {
        letter-spacing: 0.05em;
      }

      .cls-24 {
        letter-spacing: 0.03em;
      }

      .cls-25 {
        fill: #8dac58;
        stroke: #536f2c;
      }

      .cls-28 {
        fill: #3b758e;
      }

      .cls-29 {
        fill: #536f2c;
      }

      .cls-30 {
        stroke: #595959;
      }

      .cls-31 {
        fill: #9e9e9e;
      }

      .cls-33 {
        letter-spacing: -0.04em;
      }

      .cls-34 {
        letter-spacing: -0.07em;
      }

      .cls-35 {
        letter-spacing: 0em;
      }
    </style>
    <linearGradient id="linear-gradient" x1="-39.2" y1="293.39" x2="-20.4" y2="293.39" gradientTransform="translate(499.31 -6.95) rotate(45.85)" gradientUnits="userSpaceOnUse">
      <stop offset="0" stop-color="#5fb749"/>
      <stop offset="1" stop-color="#dbf1c6"/>
    </linearGradient>
    <linearGradient id="linear-gradient-2" x1="-38.87" y1="293.39" x2="-20.92" y2="293.39" gradientTransform="translate(499.31 -6.95) rotate(45.85)" gradientUnits="userSpaceOnUse">
      <stop offset="0" stop-color="#dbf1c6"/>
      <stop offset="1" stop-color="#5fb749"/>
    </linearGradient>
    <linearGradient id="linear-gradient-3" x1="-26.98" y1="305.26" x2="-8.17" y2="305.26" xlink:href="#linear-gradient"/>
    <linearGradient id="linear-gradient-4" x1="-26.64" y1="305.26" x2="-8.7" y2="305.26" xlink:href="#linear-gradient-2"/>
  </defs>
  <g id="Layer_2" data-name="Layer 2">
    <polygon class="cls-1" points="293.33 9.17 287.17 12.04 286.37 10.32 285.12 10.9 285.92 12.63 284.96 13.07 284.15 11.35 282.9 11.93 283.71 13.66 260.06 24.69 259.25 22.96 258 23.55 258.81 25.27 257.84 25.72 257.04 23.99 255.79 24.58 256.59 26.3 250.43 29.18 270.32 71.82 313.21 51.81 293.33 9.17"/>
    <g>
      <rect class="cls-2" x="39.83" y="48.7" width="212.67" height="54.82" rx="2"/>
      <line class="cls-3" x1="39.83" y1="85.54" x2="252.49" y2="85.54"/>
      <text class="cls-4" transform="translate(71.69 61.82)">1</text>
      <text class="cls-4" transform="translate(71.69 78.82)">0</text>
      <text class="cls-4" transform="translate(126.87 61.82)">ffffffff</text>
      <text class="cls-4" transform="translate(126.87 78.82)">fffffffe</text>
      <text class="cls-5" transform="translate(107.63 96.9)">LockTime: 571019</text>
      <text class="cls-4" transform="translate(192.84 61.82)">100</text>
      <text class="cls-4" transform="translate(219.38 61.82)">PKH<tspan class="cls-6" x="20.7" y="3">D</tspan></text>
      <g>
        <path class="cls-7" d="M198.91,176.23l-1.7-1.91a11.09,11.09,0,0,1,7.34.37,6.55,6.55,0,0,0,3.73.47,3.87,3.87,0,0,0,2.43-1.45c.73-.8,1.55-1.7,4.33-2l1.34,2a4.29,4.29,0,0,0-3.44,1.59,5.08,5.08,0,0,1-3.09,1.8,9.47,9.47,0,0,1-5.15-.6A8.35,8.35,0,0,0,198.91,176.23Z" transform="translate(-153.84 -116.81)"/>
        <path class="cls-7" d="M202.23,178.05l-1.7-1.92a11.09,11.09,0,0,1,7.34.37,6.59,6.59,0,0,0,3.74.48,3.9,3.9,0,0,0,2.43-1.45c.72-.8,1.54-1.7,4.32-2l1.35,2c-2.2.21-2.78.85-3.45,1.59a5,5,0,0,1-3.08,1.79,9.46,9.46,0,0,1-5.15-.59A8.38,8.38,0,0,0,202.23,178.05Z" transform="translate(-153.84 -116.81)"/>
        <path class="cls-7" d="M201.49,180.07l-1.7-1.91a11.12,11.12,0,0,1,7.35.37,6.56,6.56,0,0,0,3.73.48,3.91,3.91,0,0,0,2.43-1.45c.72-.8,1.55-1.71,4.32-2l1.35,2c-2.2.21-2.77.84-3.45,1.58a5,5,0,0,1-3.08,1.8,9.46,9.46,0,0,1-5.15-.6A8.44,8.44,0,0,0,201.49,180.07Z" transform="translate(-153.84 -116.81)"/>
        <path class="cls-7" d="M204.88,181.87,203.17,180a11.08,11.08,0,0,1,7.34.37,6.51,6.51,0,0,0,3.74.47,3.91,3.91,0,0,0,2.43-1.44c.73-.8,1.55-1.71,4.32-2l1.35,2c-2.2.21-2.77.84-3.45,1.58a5,5,0,0,1-3.08,1.8,9.48,9.48,0,0,1-5.15-.6A8.41,8.41,0,0,0,204.88,181.87Z" transform="translate(-153.84 -116.81)"/>
        <path class="cls-7" d="M199.43,174.14l-1.71-1.91a11.08,11.08,0,0,1,7.34.37,6.51,6.51,0,0,0,3.74.47,3.91,3.91,0,0,0,2.43-1.44c.72-.8,1.55-1.71,4.32-2l1.35,2c-2.2.21-2.78.84-3.45,1.58a5,5,0,0,1-3.08,1.8,9.46,9.46,0,0,1-5.15-.6A8.41,8.41,0,0,0,199.43,174.14Z" transform="translate(-153.84 -116.81)"/>
        <polygon points="45.69 55.62 48.02 55.41 49.03 55.95 47.52 55.86 45.69 55.62"/>
        <polygon points="51.63 56.8 54.11 57.74 55.72 57.23 53.68 56.97 51.63 56.8"/>
        <polygon points="52.61 59.78 50.86 59.69 50.15 60.18 51.92 60 54.19 60.91 55.61 60.89 53.65 60.12 52.61 59.78"/>
        <path d="M216.74,176.4c-.45,0-1.58.31-1.58.31l-.86,1.42,1.22-.86,1.89-.27Z" transform="translate(-153.84 -116.81)"/>
        <polygon points="63.8 63.07 62.99 64.09 61.16 64.67 62.19 65.11 63.7 64.49 63.8 63.07"/>
        <polygon points="56.13 64.02 54.35 63.48 52.99 63.81 54.61 63.92 56.13 64.02"/>
        <polygon points="50.23 61.82 49.22 62 50.63 62.08 50.23 61.82"/>
        <polygon class="cls-8" points="58.45 55.75 57.2 56.09 55.72 57.23 57.75 56.78 58.45 55.75"/>
        <polygon class="cls-8" points="60.05 61.87 58.4 62.68 58.22 63.17 59.81 62.76 60.05 61.87"/>
        <polygon class="cls-8" points="67.11 61.36 65.26 62.04 65.13 62.94 66.66 62.22 67.11 61.36"/>
        <polygon class="cls-8" points="49.11 61.27 47.86 62.33 47.42 61.66 49.11 61.27"/>
        <polygon class="cls-9" points="56.66 58.98 54.39 58.79 55.62 59.36 56.66 58.98"/>
        <path class="cls-9" d="M212.72,181.39l-2.11-.48s1.09.76,1.39.9a15.56,15.56,0,0,0,2.14.28Z" transform="translate(-153.84 -116.81)"/>
        <polygon class="cls-9" points="49.85 59.22 47.99 59.29 48.71 60.3 49.85 59.22"/>
        <path class="cls-9" d="M214.88,170.55l-2.09.85s-.84,1.22-.5,1.16a12.65,12.65,0,0,0,1.78-1Z" transform="translate(-153.84 -116.81)"/>
      </g>
      <g>
        <path class="cls-7" d="M198.91,192.39l-1.7-1.91a11.09,11.09,0,0,1,7.34.37,6.56,6.56,0,0,0,3.73.48,3.87,3.87,0,0,0,2.43-1.45c.73-.8,1.55-1.7,4.33-2l1.34,2a4.32,4.32,0,0,0-3.44,1.58,5,5,0,0,1-3.09,1.8,9.57,9.57,0,0,1-5.15-.59A8.35,8.35,0,0,0,198.91,192.39Z" transform="translate(-153.84 -116.81)"/>
        <path class="cls-7" d="M202.23,194.21l-1.7-1.91a11.09,11.09,0,0,1,7.34.37,6.5,6.5,0,0,0,3.74.47A3.89,3.89,0,0,0,214,191.7c.72-.8,1.54-1.71,4.32-2l1.35,2c-2.2.21-2.78.84-3.45,1.58a5,5,0,0,1-3.08,1.8,9.46,9.46,0,0,1-5.15-.6A8.44,8.44,0,0,0,202.23,194.21Z" transform="translate(-153.84 -116.81)"/>
        <path class="cls-7" d="M201.49,196.24l-1.7-1.91a11.12,11.12,0,0,1,7.35.37,6.55,6.55,0,0,0,3.73.47,3.87,3.87,0,0,0,2.43-1.45c.72-.79,1.55-1.7,4.32-2l1.35,2a4.31,4.31,0,0,0-3.45,1.59,5,5,0,0,1-3.08,1.8,9.46,9.46,0,0,1-5.15-.6A8.38,8.38,0,0,0,201.49,196.24Z" transform="translate(-153.84 -116.81)"/>
        <path class="cls-7" d="M204.88,198l-1.71-1.92a11.14,11.14,0,0,1,7.34.37,6.52,6.52,0,0,0,3.74.48,3.87,3.87,0,0,0,2.43-1.45c.73-.8,1.55-1.7,4.32-2l1.35,2a4.31,4.31,0,0,0-3.45,1.59,5.06,5.06,0,0,1-3.08,1.8,9.48,9.48,0,0,1-5.15-.6A8.36,8.36,0,0,0,204.88,198Z" transform="translate(-153.84 -116.81)"/>
        <path class="cls-7" d="M199.43,190.31l-1.71-1.92a11.08,11.08,0,0,1,7.34.37,6.6,6.6,0,0,0,3.74.48,3.87,3.87,0,0,0,2.43-1.45c.72-.8,1.55-1.7,4.32-2l1.35,2c-2.2.21-2.78.85-3.45,1.59a5.09,5.09,0,0,1-3.08,1.8,9.55,9.55,0,0,1-5.15-.6A8.36,8.36,0,0,0,199.43,190.31Z" transform="translate(-153.84 -116.81)"/>
        <polygon points="45.69 71.79 48.02 71.58 49.03 72.12 47.52 72.02 45.69 71.79"/>
        <polygon points="51.63 72.97 54.11 73.9 55.72 73.4 53.68 73.13 51.63 72.97"/>
        <polygon points="52.61 75.95 50.86 75.86 50.15 76.34 51.92 76.17 54.19 77.07 55.61 77.05 53.65 76.29 52.61 75.95"/>
        <path d="M216.74,192.57c-.45.05-1.58.31-1.58.31l-.86,1.41,1.22-.86,1.89-.26Z" transform="translate(-153.84 -116.81)"/>
        <polygon points="63.8 79.24 62.99 80.26 61.16 80.84 62.19 81.28 63.7 80.66 63.8 79.24"/>
        <polygon points="56.13 80.18 54.35 79.64 52.99 79.98 54.61 80.09 56.13 80.18"/>
        <polygon points="50.23 77.99 49.22 78.16 50.63 78.24 50.23 77.99"/>
        <polygon class="cls-8" points="58.45 71.91 57.2 72.26 55.72 73.4 57.75 72.95 58.45 71.91"/>
        <polygon class="cls-8" points="60.05 78.04 58.4 78.84 58.22 79.33 59.81 78.92 60.05 78.04"/>
        <polygon class="cls-8" points="67.11 77.53 65.26 78.21 65.13 79.11 66.66 78.39 67.11 77.53"/>
        <polygon class="cls-8" points="49.11 77.44 47.86 78.5 47.42 77.83 49.11 77.44"/>
        <polygon class="cls-9" points="56.66 75.15 54.39 74.96 55.62 75.52 56.66 75.15"/>
        <path class="cls-9" d="M212.72,197.56l-2.11-.48s1.09.75,1.39.9a15.32,15.32,0,0,0,2.14.27Z" transform="translate(-153.84 -116.81)"/>
        <polygon class="cls-9" points="49.85 75.39 47.99 75.45 48.71 76.46 49.85 75.39"/>
        <path class="cls-9" d="M214.88,186.72l-2.09.85s-.84,1.22-.5,1.16a12.65,12.65,0,0,0,1.78-1Z" transform="translate(-153.84 -116.81)"/>
      </g>
      <path class="cls-10" d="M247.39,177.12c1.5.68,2.74-.57,4-.79.31.34,0,1,.13,1.45.91.66,2.68.42,3.36,1.33-.4.31-.94-.2-1.65-.4-1.22-.34-2.55-.13-2.09-1.92-1.09.51-2.91,1.47-4.18.59a8,8,0,0,1-1.27.67,35.47,35.47,0,0,0-1.33,3.38c-.88-.32-.9-1.53-2-1.66a3.2,3.2,0,0,0-.31,1c.24.07.51-.73.88-.53,0,.51-.54.93-1,1.13-.53-.34-.12-1.09,0-1.66a6.41,6.41,0,0,1-4,1.26,3.57,3.57,0,0,1-1.84-.53c-1.15-.86-.84-3.11-.06-4.17A4.93,4.93,0,0,1,239,174.6a16.08,16.08,0,0,0,.82-2c.36,0,.46-.1.57-.46,1.88-.74,4-1.16,5.58-2.26-1.95.36-4.08,1-6.08,1.59a4.25,4.25,0,0,1-1.9.4c.07-.39.59-.44.89-.53,1-.3,2.12-.61,3.23-.92a12.34,12.34,0,0,1,4.43-.87c0,.7-.69.89-1.14,1.13-1.38.72-3.27,1.23-4.82,1.85a5.36,5.36,0,0,0,1.4,1.92,11.42,11.42,0,0,1,2.21.27c.76-.92,1.38-2.14,2.09-3.18.2-.28.46-.76.83-.73-.12.77-.77,1.33-1.2,2s-.81,1.38-1.21,2.05c.47.33,1.23.35,1.39,1-.57.13-.95-.49-1.52-.59a17.38,17.38,0,0,0-1.83,3.57,13.16,13.16,0,0,0,2.72-1.06,6.48,6.48,0,0,0,.95-2.51A6.39,6.39,0,0,1,249,170.9a3.94,3.94,0,0,1,.38-.8c.25,0,.23.17.38.2a9.62,9.62,0,0,1,5.83-1.39c.39,0,1.28.14,1.27.66,0,.84-1.36,1.81-2,2.32A73.2,73.2,0,0,1,247.39,177.12Zm6.65-7.74c-1.73.14-3.83.7-4.75,1.78a16,16,0,0,0-1.26,2.45c-.48.88-1.64,2.26-1,3.25a69.61,69.61,0,0,0,7.47-5.1,5.8,5.8,0,0,0,2-2.25A5.33,5.33,0,0,0,254,169.38Zm-7.15,5.56c.38-1,1.13-1.95,1.39-2.85A5.47,5.47,0,0,0,246.89,174.94Zm-7.41-.4c.56-.12,1.3,0,1.83-.2a10.57,10.57,0,0,1-1.2-1.52C240,173.44,239.67,174,239.48,174.54Zm-.13.4a7.13,7.13,0,0,0-.5,1.65c-.15.54-.18,1.29-.64,1.52-.16-.9.41-2.11.64-3a3.59,3.59,0,0,0-3.11,3.57c0,1.43,1.11,1.94,2.6,1.92,3.16,0,5.47-2.86,3.35-5.69A11.13,11.13,0,0,0,239.35,174.94Zm3.61,2.38c.34-.75.71-1.47,1.08-2.18a11.46,11.46,0,0,0-1.84-.27A6.54,6.54,0,0,1,243,177.32Zm3.1.06a2.3,2.3,0,0,0,.57-.26c0-.19,0-.47-.18-.53C246.34,176.88,246.17,177.1,246.06,177.38Zm-3.48,2.06c.85.15,1.14.88,1.65,1.39a6.61,6.61,0,0,1,.89-2.32c0-.08,0-.16-.13-.13C244.32,178.88,243.29,179,242.58,179.44Z" transform="translate(-153.84 -116.81)"/>
      <g>
        <path class="cls-11" d="M274.62,180.66l-6.42-6.61a4.19,4.19,0,0,0-6.7-4.75.94.94,0,0,0-.1.1,1.09,1.09,0,0,1-.11.1,4.19,4.19,0,0,0,4.22,7l.53.55a1,1,0,0,1,1.32,1.35l.58.61a1,1,0,0,1,1.32,1.35l.59.61a.9.9,0,0,1,1.16.18.92.92,0,0,1,.15,1.17l.41.42,3.29-.17.21-.2Z" transform="translate(-153.84 -116.81)"/>
        <path class="cls-12" d="M275.07,182.33,268,174.25a4.13,4.13,0,1,0-2.48,2.21l.53.55a1,1,0,0,1,1.32,1.35l.58.61a1,1,0,0,1,1.32,1.35l.59.61a.9.9,0,0,1,1.16.18.92.92,0,0,1,.15,1.17l.41.42,3.29-.17Z" transform="translate(-153.84 -116.81)"/>
        <path class="cls-13" d="M274.62,180.66l-6.42-6.61a4.14,4.14,0,1,0-2.49,2.21l.54.55a.91.91,0,0,1,1.16.19.89.89,0,0,1,.15,1.16l.59.61a1,1,0,0,1,1.31,1.35l.59.61a1,1,0,0,1,1.31,1.35l.41.42,3.3-.17Z" transform="translate(-153.84 -116.81)"/>
        <path class="cls-14" d="M261.68,175a3.8,3.8,0,1,1,6.21-1l-.09.21,6.52,6.71.32,1.19-2.73.14-.13-.14a1.36,1.36,0,0,0-1.66-1.7l-.24-.25a1.32,1.32,0,0,0-.33-1.35,1.3,1.3,0,0,0-1.33-.36l-.25-.25a1.35,1.35,0,0,0-1.65-1.71l-.51-.52-.2.06A3.85,3.85,0,0,1,261.68,175Z" transform="translate(-153.84 -116.81)"/>
        <path class="cls-15" d="M266.71,174.67a3.3,3.3,0,1,1,.07-4.67A3.3,3.3,0,0,1,266.71,174.67Z" transform="translate(-153.84 -116.81)"/>
        <text class="cls-16" transform="translate(107.35 54.05) rotate(45.85)">Pub</text>
      </g>
      <g>
        <path class="cls-11" d="M274.62,197.7l-6.42-6.61a4.19,4.19,0,0,0-6.7-4.75.94.94,0,0,0-.1.1.52.52,0,0,1-.11.1,4.19,4.19,0,0,0,4.22,7l.53.55a1,1,0,0,1,1.32,1.36l.58.6a.93.93,0,0,1,1.17.19.9.9,0,0,1,.15,1.16l.59.61a.91.91,0,0,1,1.16.19.9.9,0,0,1,.15,1.16l.41.43,3.29-.18.21-.2Z" transform="translate(-153.84 -116.81)"/>
        <path class="cls-12" d="M275.07,199.37,268,191.29a4.13,4.13,0,1,0-2.48,2.21l.53.55a1,1,0,0,1,1.32,1.36l.58.6a.93.93,0,0,1,1.17.19.9.9,0,0,1,.15,1.16l.59.61a.91.91,0,0,1,1.16.19.9.9,0,0,1,.15,1.16l.41.43,3.29-.18Z" transform="translate(-153.84 -116.81)"/>
        <path class="cls-17" d="M274.62,197.7l-6.42-6.61a4.14,4.14,0,1,0-2.49,2.21l.54.55a1,1,0,0,1,1.31,1.36l.59.6a1,1,0,0,1,1.31,1.36l.59.6a.91.91,0,0,1,1.16.19.89.89,0,0,1,.15,1.16l.41.43,3.3-.18Z" transform="translate(-153.84 -116.81)"/>
        <path class="cls-18" d="M261.68,192a3.8,3.8,0,1,1,6.21-1l-.09.21,6.52,6.72.32,1.18-2.73.14-.13-.13a1.36,1.36,0,0,0-1.66-1.71l-.24-.25a1.3,1.3,0,0,0-.33-1.34,1.28,1.28,0,0,0-1.33-.37l-.25-.25a1.28,1.28,0,0,0-.32-1.34,1.3,1.3,0,0,0-1.33-.37l-.51-.52-.2.06A3.81,3.81,0,0,1,261.68,192Z" transform="translate(-153.84 -116.81)"/>
        <path class="cls-15" d="M266.71,191.71a3.3,3.3,0,1,1,.07-4.67A3.3,3.3,0,0,1,266.71,191.71Z" transform="translate(-153.84 -116.81)"/>
        <text class="cls-16" transform="translate(107.35 71.1) rotate(45.85)">Pub</text>
      </g>
      <path class="cls-10" d="M247.39,194.16c1.5.69,2.74-.56,4-.79.31.35,0,1.06.13,1.46.91.66,2.68.42,3.36,1.32-.4.32-.94-.2-1.65-.4-1.22-.34-2.55-.13-2.09-1.92-1.09.52-2.91,1.47-4.18.6a8,8,0,0,1-1.27.66c-.5,1.06-.92,2.22-1.33,3.38-.88-.32-.9-1.53-2-1.66a3.18,3.18,0,0,0-.31,1c.24.06.51-.73.88-.53,0,.5-.54.93-1,1.12-.53-.33-.12-1.08,0-1.65a6.41,6.41,0,0,1-4,1.25,3.57,3.57,0,0,1-1.84-.53c-1.15-.86-.84-3.11-.06-4.17a4.91,4.91,0,0,1,2.91-1.65,16.23,16.23,0,0,0,.82-2c.36,0,.46-.09.57-.46,1.88-.73,4-1.16,5.58-2.25-1.95.36-4.08,1-6.08,1.59a4.38,4.38,0,0,1-1.9.39c.07-.39.59-.44.89-.52,1-.31,2.12-.61,3.23-.93a12.54,12.54,0,0,1,4.43-.86c0,.69-.69.89-1.14,1.12-1.38.72-3.27,1.23-4.82,1.86a5.36,5.36,0,0,0,1.4,1.92,10.72,10.72,0,0,1,2.21.26c.76-.91,1.38-2.14,2.09-3.18.2-.28.46-.75.83-.72-.12.77-.77,1.32-1.2,2s-.81,1.38-1.21,2.06c.47.32,1.23.34,1.39,1-.57.12-.95-.5-1.52-.6a17.38,17.38,0,0,0-1.83,3.57,13.73,13.73,0,0,0,2.72-1,6.6,6.6,0,0,0,.95-2.52c.17-2.08,1.44-3.29,2.66-4.37a3.62,3.62,0,0,1,.38-.79c.25-.06.23.16.38.2a9.55,9.55,0,0,1,5.83-1.4c.39,0,1.28.15,1.27.67,0,.83-1.36,1.8-2,2.31A70.19,70.19,0,0,1,247.39,194.16Zm6.65-7.74c-1.73.14-3.83.7-4.75,1.78a16,16,0,0,0-1.26,2.45c-.48.88-1.64,2.27-1,3.25a68.18,68.18,0,0,0,7.47-5.1,5.8,5.8,0,0,0,2-2.25A5.47,5.47,0,0,0,254,186.42ZM246.89,192c.38-1,1.13-1.95,1.39-2.85A5.47,5.47,0,0,0,246.89,192Zm-7.41-.4c.56-.12,1.3-.05,1.83-.2a10,10,0,0,1-1.2-1.52C240,190.49,239.67,191,239.48,191.58Zm-.13.4a7.28,7.28,0,0,0-.5,1.65c-.15.54-.18,1.29-.64,1.53-.16-.91.41-2.11.64-3a3.6,3.6,0,0,0-3.11,3.58c0,1.42,1.11,1.93,2.6,1.92,3.16,0,5.47-2.86,3.35-5.69A11.07,11.07,0,0,0,239.35,192Zm3.61,2.38c.34-.75.71-1.46,1.08-2.18a12.74,12.74,0,0,0-1.84-.26A6.43,6.43,0,0,1,243,194.36Zm3.1.07a2.31,2.31,0,0,0,.57-.27c0-.19,0-.46-.18-.53C246.34,193.92,246.17,194.15,246.06,194.43Zm-3.48,2c.85.15,1.14.88,1.65,1.39a6.69,6.69,0,0,1,.89-2.32c0-.08,0-.15-.13-.13C244.32,195.92,243.29,196,242.58,196.48Z" transform="translate(-153.84 -116.81)"/>
      <line class="cls-3" x1="187.66" y1="48.84" x2="187.66" y2="85.51"/>
      <rect class="cls-19" x="39.83" y="48.7" width="212.67" height="54.82" rx="2"/>
    </g>
    <g>
      <path class="cls-20" d="M282,185.25c-13-12.25-17.67-28.42-18.67-40.42" transform="translate(-153.84 -116.81)"/>
      <polygon points="129.04 66.71 130.11 70.29 126.47 69.43 129.04 66.71"/>
    </g>
    <text class="cls-21" transform="translate(60.24 119.04)">LockTime etwa ein<tspan x="0" y="9.5">Jahr in der Zukun</tspan><tspan class="cls-22" x="61.66" y="9.5">f</tspan><tspan x="64.13" y="9.5">t</tspan></text>
    <text class="cls-21" transform="translate(39.86 7.57)">Sequenznummern: mindestens eine muss<tspan class="cls-23" x="0" y="9.5">kleiner sein als fffffff</tspan><tspan class="cls-24" x="81.95" y="9.5">f</tspan><tspan class="cls-23" x="84.56" y="9.5">, </tspan><tspan x="89.95" y="9.5">damit die</tspan><tspan x="0" y="19">Lock Time wirksam wird.</tspan></text>
    <g>
      <path class="cls-20" d="M313.58,217.83c-6.66,9.34-23.77,16.14-33,16.14" transform="translate(-153.84 -116.81)"/>
      <polygon points="157.91 100.38 161.32 98.83 160.96 102.56 157.91 100.38"/>
    </g>
    <g>
      <rect class="cls-25" x="411.69" y="130.59" width="47.33" height="47.05" transform="translate(-178.18 81.61) rotate(-25)"/>
      <path class="cls-26" d="M410.38,153.71c4.71,10,9.32,20.25,14.08,30.19,10.63-5,21.54-9.9,32.09-15-1.36-2.88-2.84-6.07-4.18-9,2.87-1.35,5.78-2.64,8.6-4-3.41-7.09-6.42-14.26-9.9-21.23C437.7,141.16,423.8,147.31,410.38,153.71Z" transform="translate(-153.84 -116.81)"/>
      <path class="cls-27" d="M451.08,134.73,461,156l-4.42,13s-21.46,9.95-32.09,15c-4.76-9.94-9.37-20.16-14.07-30.19C423.81,147.31,451.08,134.73,451.08,134.73Z" transform="translate(-153.84 -116.81)"/>
      <path class="cls-27" d="M461,156c1.17,2.3,3.1,6.52,4.19,8.95-2.42,1.06-6.24,2.93-8.61,4A128.66,128.66,0,0,1,461,156Z" transform="translate(-153.84 -116.81)"/>
      <g>
        <path class="cls-15" d="M423.23,144.23c-.37-.52-.6-.82-1-1.31l-1.35.66q.16.79.39,1.56l0,.07c-.65.32-.88.43-1.49.75l-.06,0c-.09-.62-.12-.76-.34-1.87l-.29-1.59c-.09-.49-.17-1-.27-1.45,0-.25-.28-1.48-.33-1.76l0-.07c1-.5,1.18-.58,2-1l.07,0a3.47,3.47,0,0,0,.25.29c1.07,1.27,1.15,1.35,1.82,2.14l1.1,1.29c.25.29.63.76.87,1l.31.35v.07l-1.64.85Zm-2.69-1.93c.31-.14.6-.29.89-.44l-.65-.85c-.42-.56-.52-.7-.81-1.13.13.48.17.63.36,1.43Z" transform="translate(-153.84 -116.81)"/>
        <path class="cls-15" d="M424.82,137.8l.2.45a1.57,1.57,0,0,1,.76-.92,1.33,1.33,0,0,1,1.33.11,3.54,3.54,0,0,1,1.06,1.34,2.54,2.54,0,0,1-.18,3,2.82,2.82,0,0,1-.89.59l.88,1.69,0,.08a6.46,6.46,0,0,0-.6.27c-.31.15-.59.31-.93.5l-.07,0c-.19-.43-.42-.94-.91-1.94a41.29,41.29,0,0,0-2.15-4.07v-.07c.69-.47.86-.6,1.43-1Zm1.8,3.51a.55.55,0,0,0,.34-.62,3.28,3.28,0,0,0-.33-1c-.21-.44-.57-1.07-.93-.9a.45.45,0,0,0-.19.26C426,140.16,426.07,140.22,426.62,141.31Z" transform="translate(-153.84 -116.81)"/>
        <path class="cls-15" d="M431.71,140.12c-.68.32-.91.44-1.59.81l-.07,0c-.33-.74-.6-1.33-1-2.1a23.69,23.69,0,0,0-1.17-2.15l0-.08a14.58,14.58,0,0,0,1.43-1l.07,0c.13.24.3.61.55,1.13-.16-.92-.09-1.38.53-1.69a1,1,0,0,1,.26-.09l.08,0c.27.84.34,1,.62,1.8l-.05.07a.7.7,0,0,0-.58,0,.66.66,0,0,0-.33.4,1.58,1.58,0,0,0,.26,1l.95,1.86Z" transform="translate(-153.84 -116.81)"/>
        <path class="cls-15" d="M432.64,133.4c-.56.37-.74.49-1.29.89l-.07,0c-.26-.53-.32-.66-.61-1.18l0-.07a14.62,14.62,0,0,0,1.33-.89l.08,0c.25.54.29.62.56,1.17Zm2.65,5c-.69.32-.9.42-1.61.81l-.08,0c-.27-.62-.54-1.22-.92-2s-.76-1.52-1.21-2.25v-.07a15.44,15.44,0,0,0,1.48-1.07l.07,0,.85,1.8c.45.91.91,1.82,1.43,2.7Z" transform="translate(-153.84 -116.81)"/>
        <path class="cls-15" d="M437.77,137.17c-.76.35-.91.43-1.6.8l-.06,0c-.31-.69-.56-1.24-1.18-2.51-1.27-2.61-1.5-3-1.81-3.53v-.07c.59-.42.78-.57,1.44-1.07l.08,0c.24.52.42.89.65,1.36,1.68,3.44,1.93,3.91,2.49,4.94Z" transform="translate(-153.84 -116.81)"/>
      </g>
      <g>
        <path class="cls-28" d="M419,152.85l6.76-3.3c1.5-.73,2.13-1.07,2.91-1.47l.17.11c-.18,1.17-1.09,6.83-1.26,8.11a4.89,4.89,0,0,1,6.77,2.26,5.7,5.7,0,0,1,.56,2.37c0,2.71-1.86,4.67-4.43,5.93a8.88,8.88,0,0,1-4.6,1l-.19-.1c-.36-.85-.46-1.06-.83-2l.14-.18a6.36,6.36,0,0,0,4.51-.47c2.44-1.19,3.28-3.31,2.36-5.2a3.27,3.27,0,0,0-2.11-1.76,4.75,4.75,0,0,0-3.18.5,6.23,6.23,0,0,0-1.71,1.23l-.22-.09c.29-1.46,1.14-5.8,1.37-8.08-2.7,1.32-3.67,1.79-6.12,3.07l-.2-.07c-.33-.84-.42-1-.75-1.72Z" transform="translate(-153.84 -116.81)"/>
        <path class="cls-28" d="M434.9,154.81a12.92,12.92,0,0,1-1.51-5.25,6,6,0,0,1,3.53-5.74,6.6,6.6,0,0,1,2-.61c4.17-.55,6.56,3.59,7.65,5.82,2,4,1.63,6.13,1.33,7.22a6.52,6.52,0,0,1-8.28,4C438.15,159.61,436.56,158.22,434.9,154.81Zm2.86-9.2c-2.19,1.07-1.74,3.61-1.63,4.19a16.58,16.58,0,0,0,1.36,3.89,15.13,15.13,0,0,0,1.9,3c.47.54,2.12,2.52,4.42,1.4a3,3,0,0,0,1.75-3.07,13.17,13.17,0,0,0-1.51-4.85,18,18,0,0,0-1-1.78,7.26,7.26,0,0,0-2.56-2.79A3.07,3.07,0,0,0,437.76,145.61Z" transform="translate(-153.84 -116.81)"/>
      </g>
      <g>
        <path class="cls-29" d="M429.36,179a4.93,4.93,0,0,0,.25.56l0,.05-.27.12c-.14.07-2.42,1.19-3.11,1.55l-.07-.06c.29-.89.56-1.77.82-2.67a2.75,2.75,0,0,0,.12-1.83,1,1,0,0,0-1.48-.43,2,2,0,0,0-.6.47,1.9,1.9,0,0,0-.38.73h-.07c-.12-.27-.14-.31-.31-.66v-.08a1.83,1.83,0,0,1,.54-.69,2.68,2.68,0,0,1,.66-.43,1.64,1.64,0,0,1,2.35.62c.36.74.16,1.66-.38,3.22l-.21.58.7-.34c.53-.27.61-.32,1.38-.74Z" transform="translate(-153.84 -116.81)"/>
        <path class="cls-29" d="M429,176.9a4,4,0,0,1-.46-1.61,1.92,1.92,0,0,1,1.7-1.94c1.28-.17,2,1.09,2.34,1.78a3,3,0,0,1,.41,2.21,1.78,1.78,0,0,1-1,1.14,1.8,1.8,0,0,1-1.52.09A3.16,3.16,0,0,1,429,176.9Zm.88-2.82a1.13,1.13,0,0,0-.5,1.28,4.84,4.84,0,0,0,.42,1.2,4.36,4.36,0,0,0,.58.93,1.12,1.12,0,0,0,1.35.43.94.94,0,0,0,.54-.95,4,4,0,0,0-.46-1.48c-.1-.19-.19-.37-.3-.54a2.21,2.21,0,0,0-.79-.86A.94.94,0,0,0,429.89,174.08Z" transform="translate(-153.84 -116.81)"/>
        <path class="cls-29" d="M436.27,176.29c-.31.15-.39.19-.74.39l-.07,0c-.53-1.14-.64-1.38-1.29-2.74l-.71-1.45-.63.46h-.08c-.08-.22-.11-.3-.2-.51l0-.07c.56-.36.76-.5,1.33-.89H434c.16.4.35.87,1.24,2.69.56,1.14.78,1.57,1.08,2.09Z" transform="translate(-153.84 -116.81)"/>
        <path class="cls-29" d="M440.05,171.74a1.52,1.52,0,0,1,.65.68,1.49,1.49,0,0,1,0,1.34,2.17,2.17,0,0,1-1.09,1,1.67,1.67,0,0,1-2.44-.6,1.37,1.37,0,0,1,.25-1.62,1.18,1.18,0,0,1-1.16-.68,1.29,1.29,0,0,1,0-1.21,2.13,2.13,0,0,1,1-.84c1.07-.52,1.85-.15,2.16.47a1.2,1.2,0,0,1-.22,1.37A1.25,1.25,0,0,1,440.05,171.74Zm-2.52-1.38a.86.86,0,0,0-.51,1.18.85.85,0,0,0,1.23.29.84.84,0,0,0,.46-1.22A.88.88,0,0,0,437.53,170.36Zm1,2a1,1,0,0,0-.55,1.4,1,1,0,0,0,1.42.42,1,1,0,1,0-.87-1.82Z" transform="translate(-153.84 -116.81)"/>
      </g>
      <rect class="cls-30" x="410.04" y="137.73" width="1.38" height="3.72" transform="translate(-174.34 69.9) rotate(-25.01)"/>
      <rect class="cls-30" x="412.25" y="136.7" width="1.38" height="3.72" transform="translate(-173.71 70.61) rotate(-24.99)"/>
      <rect class="cls-30" x="437.15" y="125.08" width="1.38" height="3.72" transform="translate(-166.46 80.17) rotate(-25.01)"/>
      <rect class="cls-30" x="439.37" y="124.05" width="1.38" height="3.72" transform="translate(-165.79 81.15) rotate(-25.02)"/>
      <path class="cls-31" d="M461,156c-.09,3.61-1.43,8.64-4.83,14a9.26,9.26,0,0,0,.7-4.6l2.34-7Z" transform="translate(-153.84 -116.81)"/>
      <path class="cls-32" d="M461,156c-.38.71-4.06,2.56-8.6,4,3.9,2.65,4.68,8.11,4.18,9Z" transform="translate(-153.84 -116.81)"/>
    </g>
    <g>
      <path class="cls-20" d="M281.08,169.08c-10.25-7.5-16-19.5-17.75-24.25" transform="translate(-153.84 -116.81)"/>
      <polygon points="127.9 50.45 129.41 53.87 125.69 53.46 127.9 50.45"/>
    </g>
    <g>
      <path class="cls-20" d="M199.33,184.92c-5.66-3.34-12-5-19.83-5" transform="translate(-153.84 -116.81)"/>
      <polygon points="45.97 66.22 47.81 69.48 44.07 69.45 45.97 66.22"/>
    </g>
    <g>
      <path class="cls-20" d="M199.33,168.61c-5.66-3.33-12-5-19.83-5" transform="translate(-153.84 -116.81)"/>
      <polygon points="45.97 49.91 47.81 53.17 44.07 53.14 45.97 49.91"/>
    </g>
    <text class="cls-21" transform="translate(0.3 50.27)">30 B<tspan class="cls-33" x="15.46" y="0">T</tspan><tspan x="19.2" y="0">C</tspan></text>
    <text class="cls-21" transform="translate(0 67.32)">70 B<tspan class="cls-33" x="15.77" y="0">T</tspan><tspan x="19.5" y="0">C</tspan></text>
    <text class="cls-21" transform="translate(207.13 15.57)">An<tspan class="cls-34"><tspan x="0" y="9.5">T</tspan><tspan class="cls-35" x="3.44" y="9.5">ochter</tspan></tspan></text>
    <g>
      <path class="cls-20" d="M384.46,167.83c0-12.75-9.13-12-9.13-21.75" transform="translate(-153.84 -116.81)"/>
      <polygon points="232.48 50.47 230.61 53.71 228.74 50.47 232.48 50.47"/>
    </g>
  </g>
</svg>
