<svg xmlns="http://www.w3.org/2000/svg" width="361.19" height="89.12" viewBox="0 0 361.19 89.12">
  <defs>
    <style>
      .cls-1 {
        fill: #fee5d8;
      }

      .cls-1, .cls-3, .cls-7 {
        stroke: #000;
      }

      .cls-1, .cls-7 {
        stroke-width: 0.5px;
      }

      .cls-2 {
        font-size: 10px;
        font-family: Nimbus Mono PS;
      }

      .cls-3, .cls-7 {
        fill: none;
      }

      .cls-3 {
        stroke-miterlimit: 10;
        stroke-width: 0.3px;
      }

      .cls-4, .cls-6 {
        font-size: 9px;
        font-family: Humanist521BT-BoldCondensed, Humanst521 Cn BT;
      }

      .cls-4 {
        font-weight: 700;
      }

      .cls-5 {
        font-size: 8.5px;
        font-family: Arial-BoldMT, Arial;
      }

      .cls-7 {
        stroke-linejoin: round;
      }
    </style>
  </defs>
  <g id="Layer_2" data-name="Layer 2">
    <rect class="cls-1" x="0.25" y="51.55" width="11.27" height="11.27"/>
    <text class="cls-2" transform="translate(2.88 60.33)">0</text>
    <rect class="cls-1" x="11.52" y="51.55" width="11.27" height="11.27"/>
    <text class="cls-2" transform="translate(14.16 60.33)">0</text>
    <rect class="cls-1" x="22.79" y="51.55" width="11.27" height="11.27"/>
    <text class="cls-2" transform="translate(25.43 60.33)">0</text>
    <rect class="cls-1" x="34.06" y="51.55" width="11.27" height="11.27"/>
    <text class="cls-2" transform="translate(36.7 60.33)">0</text>
    <rect class="cls-1" x="45.34" y="51.55" width="11.27" height="11.27"/>
    <text class="cls-2" transform="translate(47.97 60.33)">0</text>
    <rect class="cls-1" x="56.61" y="51.55" width="11.27" height="11.27"/>
    <text class="cls-2" transform="translate(59.24 60.33)">0</text>
    <rect class="cls-1" x="67.88" y="51.55" width="11.27" height="11.27"/>
    <text class="cls-2" transform="translate(70.51 60.33)">0</text>
    <rect class="cls-1" x="79.15" y="51.55" width="11.27" height="11.27"/>
    <text class="cls-2" transform="translate(81.78 60.33)">0</text>
    <rect class="cls-1" x="90.42" y="51.55" width="11.27" height="11.27"/>
    <text class="cls-2" transform="translate(93.06 60.33)">0</text>
    <rect class="cls-1" x="101.69" y="51.55" width="11.27" height="11.27"/>
    <text class="cls-2" transform="translate(104.33 60.33)">1</text>
    <rect class="cls-1" x="112.96" y="51.55" width="11.27" height="11.27"/>
    <text class="cls-2" transform="translate(115.6 60.33)">0</text>
    <rect class="cls-1" x="124.24" y="51.55" width="11.27" height="11.27"/>
    <text class="cls-2" transform="translate(126.87 60.33)">0</text>
    <rect class="cls-1" x="135.51" y="51.55" width="11.27" height="11.27"/>
    <text class="cls-2" transform="translate(138.14 60.33)">0</text>
    <rect class="cls-1" x="146.78" y="51.55" width="11.27" height="11.27"/>
    <text class="cls-2" transform="translate(149.41 60.33)">0</text>
    <rect class="cls-1" x="158.05" y="51.55" width="11.27" height="11.27"/>
    <text class="cls-2" transform="translate(160.69 60.33)">0</text>
    <rect class="cls-1" x="169.32" y="51.55" width="11.27" height="11.27"/>
    <text class="cls-2" transform="translate(171.96 60.33)">0</text>
    <rect class="cls-1" x="180.59" y="51.55" width="11.27" height="11.27"/>
    <text class="cls-2" transform="translate(183.23 60.33)">0</text>
    <rect class="cls-1" x="191.87" y="51.55" width="11.27" height="11.27"/>
    <text class="cls-2" transform="translate(194.5 60.33)">0</text>
    <rect class="cls-1" x="203.14" y="51.55" width="11.27" height="11.27"/>
    <text class="cls-2" transform="translate(205.77 60.33)">0</text>
    <rect class="cls-1" x="214.41" y="51.55" width="11.27" height="11.27"/>
    <text class="cls-2" transform="translate(217.04 60.33)">1</text>
    <rect class="cls-1" x="225.68" y="51.55" width="11.27" height="11.27"/>
    <text class="cls-2" transform="translate(228.31 60.33)">0</text>
    <rect class="cls-1" x="236.95" y="51.55" width="11.27" height="11.27"/>
    <text class="cls-2" transform="translate(239.59 60.33)">0</text>
    <rect class="cls-1" x="248.22" y="51.55" width="11.27" height="11.27"/>
    <text class="cls-2" transform="translate(250.86 60.33)">1</text>
    <rect class="cls-1" x="259.49" y="51.55" width="11.27" height="11.27"/>
    <text class="cls-2" transform="translate(262.13 60.33)">1</text>
    <rect class="cls-1" x="270.77" y="51.55" width="11.27" height="11.27"/>
    <text class="cls-2" transform="translate(273.4 60.33)">1</text>
    <rect class="cls-1" x="282.04" y="51.55" width="11.27" height="11.27"/>
    <text class="cls-2" transform="translate(284.67 60.33)">1</text>
    <rect class="cls-1" x="293.31" y="51.55" width="11.27" height="11.27"/>
    <text class="cls-2" transform="translate(295.94 60.33)">0</text>
    <rect class="cls-1" x="304.58" y="51.55" width="11.27" height="11.27"/>
    <text class="cls-2" transform="translate(307.21 60.33)">0</text>
    <rect class="cls-1" x="315.85" y="51.55" width="11.27" height="11.27"/>
    <text class="cls-2" transform="translate(318.49 60.33)">0</text>
    <rect class="cls-1" x="327.12" y="51.55" width="11.27" height="11.27"/>
    <text class="cls-2" transform="translate(329.76 60.33)">1</text>
    <rect class="cls-1" x="338.39" y="51.55" width="11.27" height="11.27"/>
    <text class="cls-2" transform="translate(341.03 60.33)">1</text>
    <rect class="cls-1" x="349.67" y="51.55" width="11.27" height="11.27"/>
    <text class="cls-2" transform="translate(352.3 60.33)">0</text>
    <text class="cls-2" transform="translate(20.26 85.03)">0</text>
    <g>
      <path class="cls-3" d="M230.83,183.83c7-12.66,21.84-20,31.5-20" transform="translate(-121.75 -137.33)"/>
      <polygon points="110.98 46.92 107.77 48.85 107.7 45.12 110.98 46.92"/>
    </g>
    <g>
      <path class="cls-3" d="M128.67,183.83c1.58-8.33,8.08-18.08,14.66-18.83" transform="translate(-121.75 -137.33)"/>
      <polygon points="8.85 46.31 6.41 49.15 5.17 45.62 8.85 46.31"/>
    </g>
    <text class="cls-4" transform="translate(15.14 7.57)">Bit 0:<tspan x="0" y="9.5">0 = Relative Lock Time anschalten</tspan><tspan class="cls-5"><tspan x="-0.34" y="19">1 </tspan><tspan class="cls-6" x="6.75" y="19">= ausschalten</tspan></tspan></text>
    <g>
      <path d="M354.4,146.83v-6.15H356a3.93,3.93,0,0,1,1.14.14,1.86,1.86,0,0,1,.75.48,2.74,2.74,0,0,1,.67,1.06,3.94,3.94,0,0,1,.22,1.39,4.07,4.07,0,0,1-.22,1.4,2.94,2.94,0,0,1-.67,1.06,1.84,1.84,0,0,1-.75.47,3.58,3.58,0,0,1-1.14.15Zm1.37-5v3.87h.47a.9.9,0,0,0,.81-.51,2.9,2.9,0,0,0,.28-1.42,3,3,0,0,0-.28-1.43.9.9,0,0,0-.81-.51Z" transform="translate(-121.75 -137.33)"/>
      <path d="M359.4,141.31a.72.72,0,0,1,.71-.71.72.72,0,0,1,.5.2.69.69,0,0,1,.2.51.64.64,0,0,1-.2.49.69.69,0,0,1-.5.21.67.67,0,0,1-.5-.21A.65.65,0,0,1,359.4,141.31Zm.1,5.52v-4.17h1.22v4.17Z" transform="translate(-121.75 -137.33)"/>
      <path d="M364.74,145.72v.8a3.62,3.62,0,0,1-.72.29,2.69,2.69,0,0,1-.67.09,1.89,1.89,0,0,1-1.44-.54,2.22,2.22,0,0,1-.5-1.55,2.48,2.48,0,0,1,.49-1.63,1.65,1.65,0,0,1,1.34-.6,1.41,1.41,0,0,1,1.19.56,2.46,2.46,0,0,1,.44,1.55.51.51,0,0,1,0,.1v.11h-2.17v0a1.1,1.1,0,0,0,.25.79.92.92,0,0,0,.73.28,2,2,0,0,0,.47-.07A4,4,0,0,0,364.74,145.72Zm-2.05-1.41h1v-.05a1.43,1.43,0,0,0-.12-.67.41.41,0,0,0-.39-.22.43.43,0,0,0-.38.21,1.36,1.36,0,0,0-.12.63Z" transform="translate(-121.75 -137.33)"/>
      <path d="M370.78,146.83h-1.16v-4.4a4,4,0,0,1-1.51.88v-1.05a3.32,3.32,0,0,0,1-.57,2.2,2.2,0,0,0,.74-1h.94Z" transform="translate(-121.75 -137.33)"/>
      <path d="M374.34,142.91l.2,0h.14a1.53,1.53,0,0,1,1.2.53,2,2,0,0,1,.46,1.38,2.19,2.19,0,0,1-.55,1.55,1.84,1.84,0,0,1-1.42.6,1.81,1.81,0,0,1-1.41-.6,2.32,2.32,0,0,1-.53-1.58,7.55,7.55,0,0,1,1.4-3.41l0-.06.43-.71h1.39Zm-.58,1.93a1.32,1.32,0,0,0,.16.73.54.54,0,0,0,.49.25.53.53,0,0,0,.48-.25,1.63,1.63,0,0,0,0-1.45.6.6,0,0,0-1,0A1.33,1.33,0,0,0,373.76,144.84Z" transform="translate(-121.75 -137.33)"/>
      <path d="M379.38,146.83v-4.17h1.16V144a4,4,0,0,1,.51-1.09.75.75,0,0,1,.58-.37,1.21,1.21,0,0,1,.37.07,1.3,1.3,0,0,1,.36.2l-.29,1.11a.79.79,0,0,0-.23-.14.67.67,0,0,0-.24,0c-.3,0-.54.21-.72.64a4.6,4.6,0,0,0-.27,1.74v.67Z" transform="translate(-121.75 -137.33)"/>
      <path d="M385.88,145.72v.8a3.62,3.62,0,0,1-.72.29,2.69,2.69,0,0,1-.67.09,1.89,1.89,0,0,1-1.44-.54,2.22,2.22,0,0,1-.5-1.55,2.48,2.48,0,0,1,.49-1.63,1.65,1.65,0,0,1,1.34-.6,1.41,1.41,0,0,1,1.19.56,2.46,2.46,0,0,1,.44,1.55.51.51,0,0,1,0,.1v.11h-2.17v0a1.1,1.1,0,0,0,.25.79.92.92,0,0,0,.73.28,2.14,2.14,0,0,0,.48-.07A4.34,4.34,0,0,0,385.88,145.72Zm-2.05-1.41h1v-.05a1.43,1.43,0,0,0-.12-.67.41.41,0,0,0-.39-.22.4.4,0,0,0-.37.21,1.23,1.23,0,0,0-.13.63Z" transform="translate(-121.75 -137.33)"/>
      <path d="M389.62,146.64a2.88,2.88,0,0,1-.56.2,2.6,2.6,0,0,1-.56.06,1.87,1.87,0,0,1-1.45-.58,2.22,2.22,0,0,1-.54-1.57,2.27,2.27,0,0,1,.54-1.59,1.86,1.86,0,0,1,1.45-.59,2.31,2.31,0,0,1,.52.06,3,3,0,0,1,.54.21v1a4.21,4.21,0,0,0-.47-.19,1.42,1.42,0,0,0-.38-.06.84.84,0,0,0-.68.32,1.33,1.33,0,0,0-.25.86,1.29,1.29,0,0,0,.25.85.84.84,0,0,0,.7.31,1.46,1.46,0,0,0,.4-.07,2.79,2.79,0,0,0,.49-.22Z" transform="translate(-121.75 -137.33)"/>
      <path d="M390.33,146.83v-6.15h1.22v2.5a1.75,1.75,0,0,1,.55-.46,1.34,1.34,0,0,1,.64-.14,1.05,1.05,0,0,1,.9.41,2,2,0,0,1,.3,1.2v2.64h-1.2v-2.46a1.31,1.31,0,0,0-.12-.65.38.38,0,0,0-.37-.19.53.53,0,0,0-.37.15,1.72,1.72,0,0,0-.33.49v2.66Z" transform="translate(-121.75 -137.33)"/>
      <path d="M395.94,141.37h.2v1.29h1.1v.77h-1.1v1.87a.62.62,0,0,0,.11.42.4.4,0,0,0,.34.13.69.69,0,0,0,.26,0l.43-.19v.94a2.72,2.72,0,0,1-.58.27,1.89,1.89,0,0,1-.58.08,1.16,1.16,0,0,1-.9-.33,1.51,1.51,0,0,1-.3-1v-2.12h-.55v-.17Z" transform="translate(-121.75 -137.33)"/>
      <path d="M400.93,145.72v.8a3.87,3.87,0,0,1-.72.29,2.71,2.71,0,0,1-.68.09,1.88,1.88,0,0,1-1.43-.54,2.17,2.17,0,0,1-.5-1.55,2.48,2.48,0,0,1,.49-1.63,1.64,1.64,0,0,1,1.33-.6,1.42,1.42,0,0,1,1.2.56,2.46,2.46,0,0,1,.43,1.55v.21h-2.17v0a1.1,1.1,0,0,0,.25.79.92.92,0,0,0,.73.28,2,2,0,0,0,.47-.07A4,4,0,0,0,400.93,145.72Zm-2.05-1.41h1v-.05a1.3,1.3,0,0,0-.13-.67.4.4,0,0,0-.38-.22.42.42,0,0,0-.38.21,1.36,1.36,0,0,0-.12.63Z" transform="translate(-121.75 -137.33)"/>
      <path d="M401.67,146.56v-1a3.35,3.35,0,0,0,.69.34,2,2,0,0,0,.58.1.53.53,0,0,0,.32-.09.26.26,0,0,0,.12-.24.28.28,0,0,0-.08-.2,1.11,1.11,0,0,0-.32-.2,3.27,3.27,0,0,1-1.12-.69,1.12,1.12,0,0,1-.23-.73,1.18,1.18,0,0,1,.39-.91,1.45,1.45,0,0,1,1-.36,2.52,2.52,0,0,1,.67.09,3.11,3.11,0,0,1,.66.28v.89a3.84,3.84,0,0,0-.68-.33,2.07,2.07,0,0,0-.6-.11.58.58,0,0,0-.33.07.22.22,0,0,0-.11.2c0,.16.17.3.51.44l.28.12a2.48,2.48,0,0,1,.85.58,1.13,1.13,0,0,1,.24.73,1.25,1.25,0,0,1-.42,1,1.71,1.71,0,0,1-1.17.35,2.13,2.13,0,0,1-.61-.08A3.83,3.83,0,0,1,401.67,146.56Z" transform="translate(-121.75 -137.33)"/>
      <path d="M406.4,141.37h.2v1.29h1.1v.77h-1.1v1.87a.69.69,0,0,0,.1.42.43.43,0,0,0,.35.13.69.69,0,0,0,.26,0l.42-.19v.94a2.45,2.45,0,0,1-.57.27,1.89,1.89,0,0,1-.58.08,1.16,1.16,0,0,1-.9-.33,1.51,1.51,0,0,1-.3-1v-2.12h-.55v-.17Z" transform="translate(-121.75 -137.33)"/>
      <path d="M411.39,145.72v.8a4.17,4.17,0,0,1-.72.29,2.71,2.71,0,0,1-.68.09,1.88,1.88,0,0,1-1.43-.54,2.18,2.18,0,0,1-.51-1.55,2.48,2.48,0,0,1,.5-1.63,1.63,1.63,0,0,1,1.33-.6,1.42,1.42,0,0,1,1.2.56,2.46,2.46,0,0,1,.43,1.55v.1c0,.05,0,.08,0,.11h-2.17v0a1.11,1.11,0,0,0,.26.79.91.91,0,0,0,.72.28,2.06,2.06,0,0,0,.48-.07A4.4,4.4,0,0,0,411.39,145.72Zm-2.06-1.41h1v-.05a1.3,1.3,0,0,0-.13-.67.4.4,0,0,0-.38-.22.42.42,0,0,0-.38.21,1.35,1.35,0,0,0-.13.63Z" transform="translate(-121.75 -137.33)"/>
      <path d="M412.23,146.83v-4.17h1.2l0,.52a1.62,1.62,0,0,1,.54-.46,1.38,1.38,0,0,1,.65-.14,1,1,0,0,1,.89.41,1.93,1.93,0,0,1,.31,1.2v2.64h-1.22v-2.46a1.28,1.28,0,0,0-.11-.65.37.37,0,0,0-.36-.19.55.55,0,0,0-.38.15,1.49,1.49,0,0,0-.33.49v2.66Z" transform="translate(-121.75 -137.33)"/>
      <path d="M419.11,146.83v-6.15H421a2.11,2.11,0,0,1,1.39.41,1.43,1.43,0,0,1,.5,1.15,1.38,1.38,0,0,1-.19.72,1.45,1.45,0,0,1-.57.52,1.75,1.75,0,0,1,.71.63,1.61,1.61,0,0,1,.24.88,1.76,1.76,0,0,1-.54,1.37,2.39,2.39,0,0,1-1.59.47Zm1.33-3.68h.22a1,1,0,0,0,.66-.17.68.68,0,0,0,.2-.55.64.64,0,0,0-.75-.75h-.33Zm0,2.69h.43a.75.75,0,0,0,.6-.22.86.86,0,0,0,.2-.64.85.85,0,0,0-.21-.64,1,1,0,0,0-.69-.2h-.33Z" transform="translate(-121.75 -137.33)"/>
      <path d="M423.77,141.31a.7.7,0,0,1,.2-.5.71.71,0,0,1,1.21.5.71.71,0,0,1-1.41,0Zm.1,5.52v-4.17h1.21v4.17Z" transform="translate(-121.75 -137.33)"/>
      <path d="M427.11,141.37h.2v1.29h1.1v.77h-1.1v1.87a.68.68,0,0,0,.11.42.41.41,0,0,0,.34.13.69.69,0,0,0,.26,0,4.15,4.15,0,0,0,.43-.19v.94a2.72,2.72,0,0,1-.58.27,1.89,1.89,0,0,1-.58.08,1.12,1.12,0,0,1-.89-.33,1.51,1.51,0,0,1-.3-1v-2.12h-.56v-.17Z" transform="translate(-121.75 -137.33)"/>
      <path d="M428.89,146.56v-1a3.3,3.3,0,0,0,.68.34,2.08,2.08,0,0,0,.58.1.49.49,0,0,0,.32-.09.26.26,0,0,0,.12-.24.27.27,0,0,0-.07-.2,1.11,1.11,0,0,0-.32-.2,3.46,3.46,0,0,1-1.13-.69,1.12,1.12,0,0,1-.22-.73,1.18,1.18,0,0,1,.39-.91,1.44,1.44,0,0,1,1-.36,2.57,2.57,0,0,1,.67.09,3.11,3.11,0,0,1,.66.28v.89a3.84,3.84,0,0,0-.68-.33,2.13,2.13,0,0,0-.61-.11.56.56,0,0,0-.32.07.22.22,0,0,0-.11.2c0,.16.17.3.51.44l.27.12a2.54,2.54,0,0,1,.86.58,1.18,1.18,0,0,1,.23.73,1.24,1.24,0,0,1-.41,1,1.75,1.75,0,0,1-1.18.35,2.18,2.18,0,0,1-.61-.08A3.74,3.74,0,0,1,428.89,146.56Z" transform="translate(-121.75 -137.33)"/>
      <path d="M354.21,156.06v-1a3.3,3.3,0,0,0,.68.34,2.08,2.08,0,0,0,.58.1.49.49,0,0,0,.32-.09.26.26,0,0,0,.12-.24.27.27,0,0,0-.07-.2,1.11,1.11,0,0,0-.32-.2,3.46,3.46,0,0,1-1.13-.69,1.12,1.12,0,0,1-.22-.73,1.18,1.18,0,0,1,.39-.91,1.44,1.44,0,0,1,1-.36,2.57,2.57,0,0,1,.67.09,3.11,3.11,0,0,1,.66.28v.89a3.84,3.84,0,0,0-.68-.33,2.13,2.13,0,0,0-.61-.11.56.56,0,0,0-.32.07.22.22,0,0,0-.11.2c0,.16.17.3.51.44l.27.12a2.54,2.54,0,0,1,.86.58,1.18,1.18,0,0,1,.23.73,1.24,1.24,0,0,1-.41,1,1.73,1.73,0,0,1-1.18.35,2.18,2.18,0,0,1-.61-.08A3.74,3.74,0,0,1,354.21,156.06Z" transform="translate(-121.75 -137.33)"/>
      <path d="M357.72,150.81a.67.67,0,0,1,.21-.5.65.65,0,0,1,.49-.21.68.68,0,0,1,.71.71.68.68,0,0,1-.2.49.69.69,0,0,1-.51.21.67.67,0,0,1-.49-.21A.65.65,0,0,1,357.72,150.81Zm.1,5.52v-4.17H359v4.17Z" transform="translate(-121.75 -137.33)"/>
      <path d="M359.94,156.33v-4.17h1.2l0,.52a1.72,1.72,0,0,1,.54-.46,1.38,1.38,0,0,1,.65-.14,1.05,1.05,0,0,1,.9.41,2,2,0,0,1,.3,1.2v2.64h-1.21v-2.46a1.4,1.4,0,0,0-.11-.65.4.4,0,0,0-.37-.19.55.55,0,0,0-.38.15,1.49,1.49,0,0,0-.33.49v2.66Z" transform="translate(-121.75 -137.33)"/>
      <path d="M366.84,156a1.31,1.31,0,0,1-.46.35,1.44,1.44,0,0,1-1.72-.49,2.53,2.53,0,0,1-.45-1.56,2.64,2.64,0,0,1,.44-1.56,1.3,1.3,0,0,1,1.1-.62,1.47,1.47,0,0,1,.56.1,1.59,1.59,0,0,1,.51.33v-2.32H368v6.15h-1.16Zm0-.78v-1.81a1.1,1.1,0,0,0-.3-.21.67.67,0,0,0-.31-.07.62.62,0,0,0-.55.31,1.67,1.67,0,0,0-.2.87,1.6,1.6,0,0,0,.2.87.62.62,0,0,0,.56.31.68.68,0,0,0,.32-.07A1,1,0,0,0,366.82,155.17Z" transform="translate(-121.75 -137.33)"/>
      <path d="M373.66,156a1.52,1.52,0,0,1-.46.35,1.47,1.47,0,0,1-.56.11,1.42,1.42,0,0,1-1.17-.6,2.53,2.53,0,0,1-.45-1.56,2.64,2.64,0,0,1,.44-1.56,1.31,1.31,0,0,1,1.1-.62,1.56,1.56,0,0,1,.57.1,1.67,1.67,0,0,1,.5.33v-2.32h1.21v6.15h-1.16Zm0-.78v-1.81a1.1,1.1,0,0,0-.3-.21.67.67,0,0,0-.31-.07.62.62,0,0,0-.55.31,1.67,1.67,0,0,0-.2.87,1.6,1.6,0,0,0,.2.87.63.63,0,0,0,.57.31.67.67,0,0,0,.31-.07A.86.86,0,0,0,373.63,155.17Z" transform="translate(-121.75 -137.33)"/>
      <path d="M375.66,150.81a.66.66,0,0,1,.2-.5.67.67,0,0,1,.5-.21.72.72,0,0,1,.5.2.69.69,0,0,1,.21.51.65.65,0,0,1-.21.49.7.7,0,0,1-1,0A.64.64,0,0,1,375.66,150.81Zm.09,5.52v-4.17H377v4.17Z" transform="translate(-121.75 -137.33)"/>
      <path d="M381,155.22v.8a3.62,3.62,0,0,1-.72.29,2.69,2.69,0,0,1-.67.09,1.89,1.89,0,0,1-1.44-.54,2.22,2.22,0,0,1-.5-1.55,2.48,2.48,0,0,1,.49-1.63,1.65,1.65,0,0,1,1.34-.6,1.41,1.41,0,0,1,1.19.56,2.46,2.46,0,0,1,.44,1.55.51.51,0,0,1,0,.1v.11h-2.17v0a1.1,1.1,0,0,0,.25.79.92.92,0,0,0,.73.28,2,2,0,0,0,.47-.07A4,4,0,0,0,381,155.22Zm-2.05-1.41h1v-.05a1.43,1.43,0,0,0-.12-.67.41.41,0,0,0-.39-.22.4.4,0,0,0-.37.21,1.23,1.23,0,0,0-.13.63Z" transform="translate(-121.75 -137.33)"/>
      <path d="M383.65,156.33l1.52-6.15h1.45l1.56,6.15H386.8l-.25-1.27h-1.31l-.26,1.27Zm1.8-2.31h.9l-.46-2.12Z" transform="translate(-121.75 -137.33)"/>
      <path d="M388.58,156.33v-4.17h1.2v.52a1.75,1.75,0,0,1,.55-.46,1.35,1.35,0,0,1,.65-.14,1,1,0,0,1,.89.41,2,2,0,0,1,.31,1.2v2.64H391v-2.46a1.4,1.4,0,0,0-.11-.65.37.37,0,0,0-.36-.19.6.6,0,0,0-.39.15,1.88,1.88,0,0,0-.33.49v2.66Z" transform="translate(-121.75 -137.33)"/>
      <path d="M392.59,156.33l1.69-3.23h-1.43v-.94h3.26l-1.69,3.21H396v1Z" transform="translate(-121.75 -137.33)"/>
      <path d="M398.57,155.88a3,3,0,0,1-.58.42,1.34,1.34,0,0,1-.55.13,1,1,0,0,1-1-1.06,1.18,1.18,0,0,1,.47-1,5.09,5.09,0,0,1,1.62-.77v-.34a.3.3,0,0,0-.1-.25.58.58,0,0,0-.33-.07,1.81,1.81,0,0,0-.71.15,2.32,2.32,0,0,0-.67.45v-1a3,3,0,0,1,.78-.43,2.39,2.39,0,0,1,.84-.14,1.46,1.46,0,0,1,1.07.32,1.37,1.37,0,0,1,.33,1v1.82a.16.16,0,0,0,0,.11s0,0,.09,0l.12,0,.2-.11V156a2.85,2.85,0,0,1-.53.31,1.16,1.16,0,0,1-.42.1.6.6,0,0,1-.41-.14A.84.84,0,0,1,398.57,155.88Zm-.07-.61v-1a2.21,2.21,0,0,0-.71.36.58.58,0,0,0-.22.45.47.47,0,0,0,.09.32.36.36,0,0,0,.28.1.74.74,0,0,0,.28-.06A1.4,1.4,0,0,0,398.5,155.27Z" transform="translate(-121.75 -137.33)"/>
      <path d="M400.7,156.33v-6.15h1.22v2.5a1.75,1.75,0,0,1,.55-.46,1.31,1.31,0,0,1,.64-.14,1,1,0,0,1,.89.41,1.93,1.93,0,0,1,.31,1.2v2.64H403.1v-2.46a1.33,1.33,0,0,0-.11-.65.39.39,0,0,0-.37-.19.55.55,0,0,0-.38.15,1.72,1.72,0,0,0-.32.49v2.66Z" transform="translate(-121.75 -137.33)"/>
      <path d="M405.2,156.33v-6.15h1.22v6.15Z" transform="translate(-121.75 -137.33)"/>
      <path d="M410.75,156.4l-1.64-4.24h1.28l.52,1.51c0,.09.06.2.09.32a3.52,3.52,0,0,1,.1.41,2.62,2.62,0,0,1,.09-.38,3.37,3.37,0,0,1,.1-.34l.54-1.52H413l-1.6,4.24Z" transform="translate(-121.75 -137.33)"/>
      <path d="M413.15,154.25a2.26,2.26,0,0,1,.52-1.59,2,2,0,0,1,2.85,0,2.3,2.3,0,0,1,.52,1.59,2.26,2.26,0,0,1-.52,1.58,2.07,2.07,0,0,1-2.85,0A2.26,2.26,0,0,1,413.15,154.25Zm1.25,0a1.91,1.91,0,0,0,.18.93.57.57,0,0,0,.52.32.58.58,0,0,0,.52-.32,2,2,0,0,0,.17-.93,2.1,2.1,0,0,0-.17-.94.57.57,0,0,0-.52-.32.55.55,0,0,0-.52.32A2,2,0,0,0,414.4,154.25Z" transform="translate(-121.75 -137.33)"/>
      <path d="M417.72,156.33v-4.17h1.2l0,.52a1.62,1.62,0,0,1,.54-.46,1.38,1.38,0,0,1,.65-.14,1,1,0,0,1,.89.41,1.93,1.93,0,0,1,.31,1.2v2.64h-1.21v-2.46a1.26,1.26,0,0,0-.12-.65.37.37,0,0,0-.36-.19.55.55,0,0,0-.38.15,1.49,1.49,0,0,0-.33.49v2.66Z" transform="translate(-121.75 -137.33)"/>
      <path d="M354.17,165.66v-1.1a2.4,2.4,0,0,0,1.08.27,1,1,0,0,0,.73-.25.78.78,0,0,0,.28-.63.77.77,0,0,0-.3-.65,1.53,1.53,0,0,0-.9-.23l-.31,0-.35,0,.13-3.46h2.9v1.1h-1.84l0,1.32h0a2,2,0,0,1,1.45.5,1.81,1.81,0,0,1,.53,1.37,1.85,1.85,0,0,1-.57,1.42,2.1,2.1,0,0,1-1.51.54,3.86,3.86,0,0,1-.7-.07A2.5,2.5,0,0,1,354.17,165.66Z" transform="translate(-121.75 -137.33)"/>
      <path d="M360.9,165.83h-1.16v-4.4a4,4,0,0,1-1.51.88v-1.05a3.2,3.2,0,0,0,1-.57,2.13,2.13,0,0,0,.74-1h.94Z" transform="translate(-121.75 -137.33)"/>
      <path d="M362.39,165.83A20.45,20.45,0,0,0,364,163.3a4.07,4.07,0,0,0,.54-1.68.92.92,0,0,0-.21-.65.76.76,0,0,0-.59-.23,1.34,1.34,0,0,0-.49.1,2.7,2.7,0,0,0-.61.31V160a3.45,3.45,0,0,1,.75-.32,2.65,2.65,0,0,1,.74-.11,1.63,1.63,0,0,1,1.22.47,1.74,1.74,0,0,1,.45,1.27,3.69,3.69,0,0,1-.36,1.43,14.5,14.5,0,0,1-1.13,2h1.82v1.13Z" transform="translate(-121.75 -137.33)"/>
      <path d="M366.57,164.29V163.2h2.33v1.09Z" transform="translate(-121.75 -137.33)"/>
      <path d="M369.53,165.4v-1.35a4,4,0,0,0,.71.52,1.14,1.14,0,0,0,.56.17.48.48,0,0,0,.38-.14.49.49,0,0,0,.15-.38,1.68,1.68,0,0,0-.6-1l-.06-.06a6.05,6.05,0,0,1-.95-1.17,1.85,1.85,0,0,1-.21-.86A1.46,1.46,0,0,1,370,160a1.85,1.85,0,0,1,1.27-.42,2.5,2.5,0,0,1,.66.09,3.14,3.14,0,0,1,.64.27v1.15a4.59,4.59,0,0,0-.7-.32,1.53,1.53,0,0,0-.55-.11.5.5,0,0,0-.34.11.44.44,0,0,0-.12.32c0,.17.2.45.59.86l.15.15a5.78,5.78,0,0,1,1,1.2,2,2,0,0,1,.21.89,1.67,1.67,0,0,1-.49,1.26,1.75,1.75,0,0,1-1.27.49,2.29,2.29,0,0,1-.73-.13A3.18,3.18,0,0,1,369.53,165.4Z" transform="translate(-121.75 -137.33)"/>
      <path d="M376.66,164.72v.8a3.62,3.62,0,0,1-.72.29,2.69,2.69,0,0,1-.67.09,1.89,1.89,0,0,1-1.44-.54,2.22,2.22,0,0,1-.5-1.55,2.48,2.48,0,0,1,.49-1.63,1.65,1.65,0,0,1,1.34-.6,1.41,1.41,0,0,1,1.19.56,2.46,2.46,0,0,1,.44,1.55.51.51,0,0,1,0,.1v.11h-2.17v0a1.1,1.1,0,0,0,.25.79.94.94,0,0,0,.73.28,2.14,2.14,0,0,0,.48-.07A4.34,4.34,0,0,0,376.66,164.72Zm-2.05-1.41h1v-.05a1.43,1.43,0,0,0-.12-.67.44.44,0,0,0-.76,0,1.23,1.23,0,0,0-.13.63Z" transform="translate(-121.75 -137.33)"/>
      <path d="M377.5,165.83v-6.15h1.2v4l1.16-2h1.27l-1.17,2,1.35,2.17h-1.37l-1.24-2.05v2.05Z" transform="translate(-121.75 -137.33)"/>
      <path d="M384.06,165.3a1.62,1.62,0,0,1-.55.46,1.35,1.35,0,0,1-.65.14,1,1,0,0,1-.89-.41,1.92,1.92,0,0,1-.31-1.19v-2.64h1.21v2.46a1.41,1.41,0,0,0,.11.64.4.4,0,0,0,.37.19.55.55,0,0,0,.38-.15,1.59,1.59,0,0,0,.33-.49v-2.65h1.21v4.17h-1.2Z" transform="translate(-121.75 -137.33)"/>
      <path d="M386.17,165.83v-4.17h1.2l0,.52a1.72,1.72,0,0,1,.54-.46,1.38,1.38,0,0,1,.65-.14,1,1,0,0,1,.89.41,1.93,1.93,0,0,1,.31,1.2v2.64h-1.21v-2.46a1.4,1.4,0,0,0-.11-.65.4.4,0,0,0-.37-.19.55.55,0,0,0-.38.15,1.49,1.49,0,0,0-.33.49v2.66Z" transform="translate(-121.75 -137.33)"/>
      <path d="M393.07,165.45a1.37,1.37,0,0,1-.45.35,1.51,1.51,0,0,1-.56.11,1.41,1.41,0,0,1-1.17-.6,2.53,2.53,0,0,1-.45-1.56,2.64,2.64,0,0,1,.44-1.56,1.3,1.3,0,0,1,1.1-.62,1.47,1.47,0,0,1,.56.1,1.59,1.59,0,0,1,.51.33v-2.32h1.21v6.15H393.1Zm0-.78v-1.81a1.1,1.1,0,0,0-.3-.21.7.7,0,0,0-.31-.07.62.62,0,0,0-.55.31,1.67,1.67,0,0,0-.2.87,1.6,1.6,0,0,0,.2.87.63.63,0,0,0,.57.31.67.67,0,0,0,.31-.07A1,1,0,0,0,393.05,164.67Z" transform="translate(-121.75 -137.33)"/>
      <path d="M398.28,164.72v.8a4.17,4.17,0,0,1-.72.29,2.71,2.71,0,0,1-.68.09,1.88,1.88,0,0,1-1.43-.54,2.22,2.22,0,0,1-.5-1.55,2.48,2.48,0,0,1,.49-1.63,1.63,1.63,0,0,1,1.33-.6,1.42,1.42,0,0,1,1.2.56,2.46,2.46,0,0,1,.43,1.55v.21h-2.18v0a1.11,1.11,0,0,0,.26.79.92.92,0,0,0,.73.28,2,2,0,0,0,.47-.07A4,4,0,0,0,398.28,164.72Zm-2.06-1.41h1v-.05a1.43,1.43,0,0,0-.12-.67.43.43,0,0,0-.39-.22.42.42,0,0,0-.38.21,1.35,1.35,0,0,0-.13.63Z" transform="translate(-121.75 -137.33)"/>
      <path d="M399.12,165.83v-4.17h1.2l0,.52a1.72,1.72,0,0,1,.54-.46,1.38,1.38,0,0,1,.65-.14,1.05,1.05,0,0,1,.9.41,2,2,0,0,1,.3,1.2v2.64h-1.21v-2.46a1.4,1.4,0,0,0-.11-.65.4.4,0,0,0-.37-.19.55.55,0,0,0-.38.15,1.66,1.66,0,0,0-.33.49v2.66Z" transform="translate(-121.75 -137.33)"/>
      <path d="M406,165.83v-6.15h1.4v6.15Z" transform="translate(-121.75 -137.33)"/>
      <path d="M408.45,165.83v-4.17h1.2v.52a1.75,1.75,0,0,1,.55-.46,1.35,1.35,0,0,1,.65-.14,1,1,0,0,1,.89.41,1.93,1.93,0,0,1,.31,1.2v2.64h-1.22v-2.46a1.4,1.4,0,0,0-.11-.65.37.37,0,0,0-.36-.19.6.6,0,0,0-.39.15,1.88,1.88,0,0,0-.33.49v2.66Z" transform="translate(-121.75 -137.33)"/>
      <path d="M414.05,160.37h.2v1.29h1.1v.77h-1.1v1.87a.68.68,0,0,0,.11.42.41.41,0,0,0,.34.13.69.69,0,0,0,.26,0,4.15,4.15,0,0,0,.43-.19v.94a2.72,2.72,0,0,1-.58.27,1.89,1.89,0,0,1-.58.08,1.16,1.16,0,0,1-.9-.33,1.57,1.57,0,0,1-.29-1v-2.12h-.56v-.17Z" transform="translate(-121.75 -137.33)"/>
      <path d="M419,164.72v.8a3.79,3.79,0,0,1-.71.29,2.77,2.77,0,0,1-.68.09,1.85,1.85,0,0,1-1.43-.54,2.18,2.18,0,0,1-.51-1.55,2.48,2.48,0,0,1,.5-1.63,1.62,1.62,0,0,1,1.33-.6,1.41,1.41,0,0,1,1.19.56,2.46,2.46,0,0,1,.44,1.55.51.51,0,0,1,0,.1v.11H417v0a1.1,1.1,0,0,0,.25.79.94.94,0,0,0,.73.28,2.14,2.14,0,0,0,.48-.07A4.34,4.34,0,0,0,419,164.72ZM417,163.31h1v-.05a1.43,1.43,0,0,0-.12-.67.44.44,0,0,0-.76,0,1.23,1.23,0,0,0-.13.63Z" transform="translate(-121.75 -137.33)"/>
      <path d="M419.89,165.83v-4.17h1.17V163a3.73,3.73,0,0,1,.5-1.09.77.77,0,0,1,.58-.37,1.16,1.16,0,0,1,.37.07,1.3,1.3,0,0,1,.36.2l-.28,1.11a1,1,0,0,0-.24-.14.67.67,0,0,0-.24,0c-.3,0-.54.21-.72.64a4.6,4.6,0,0,0-.27,1.74v.67Z" transform="translate(-121.75 -137.33)"/>
      <path d="M424.71,165.9l-1.64-4.24h1.28l.52,1.51c0,.09.06.2.09.32a3.52,3.52,0,0,1,.1.41,2.62,2.62,0,0,1,.09-.38,3.37,3.37,0,0,1,.1-.34l.54-1.52H427l-1.6,4.24Z" transform="translate(-121.75 -137.33)"/>
      <path d="M429.26,165.38a2.69,2.69,0,0,1-.58.42,1.26,1.26,0,0,1-.54.13,1,1,0,0,1-.75-.3,1,1,0,0,1-.29-.76,1.19,1.19,0,0,1,.48-1,4.87,4.87,0,0,1,1.62-.77v-.34a.31.31,0,0,0-.11-.25.52.52,0,0,0-.32-.07,1.78,1.78,0,0,0-.71.15,2.36,2.36,0,0,0-.68.45v-1a3,3,0,0,1,.78-.43,2.41,2.41,0,0,1,.85-.14,1.47,1.47,0,0,1,1.07.32,1.37,1.37,0,0,1,.33,1v1.82s0,.09,0,.11a.12.12,0,0,0,.09,0l.13,0,.2-.11v.78a2.88,2.88,0,0,1-.54.31,1.16,1.16,0,0,1-.42.1.57.57,0,0,1-.4-.14A.78.78,0,0,1,429.26,165.38Zm-.06-.61v-1a2,2,0,0,0-.71.36.59.59,0,0,0-.23.45.47.47,0,0,0,.09.32.38.38,0,0,0,.29.1.66.66,0,0,0,.27-.06A1.46,1.46,0,0,0,429.2,164.77Z" transform="translate(-121.75 -137.33)"/>
      <path d="M431.4,165.83v-6.15h1.22v6.15Z" transform="translate(-121.75 -137.33)"/>
      <path d="M433.57,165.83v-6.15h1.21v6.15Z" transform="translate(-121.75 -137.33)"/>
      <path d="M438.83,164.72v.8a4.17,4.17,0,0,1-.72.29,2.71,2.71,0,0,1-.68.09,1.86,1.86,0,0,1-1.43-.54,2.18,2.18,0,0,1-.51-1.55,2.48,2.48,0,0,1,.5-1.63,1.63,1.63,0,0,1,1.33-.6,1.42,1.42,0,0,1,1.2.56,2.46,2.46,0,0,1,.43,1.55v.1c0,.05,0,.08,0,.11h-2.17v0a1.11,1.11,0,0,0,.26.79.91.91,0,0,0,.72.28,2.06,2.06,0,0,0,.48-.07A4.4,4.4,0,0,0,438.83,164.72Zm-2.06-1.41h1v-.05a1.3,1.3,0,0,0-.13-.67.4.4,0,0,0-.38-.22.42.42,0,0,0-.38.21,1.35,1.35,0,0,0-.13.63Z" transform="translate(-121.75 -137.33)"/>
      <path d="M439.67,165.83v-4.17h1.2l0,.52a1.62,1.62,0,0,1,.54-.46,1.38,1.38,0,0,1,.65-.14,1,1,0,0,1,.89.41,1.93,1.93,0,0,1,.31,1.2v2.64h-1.22v-2.46a1.43,1.43,0,0,0-.1-.65.4.4,0,0,0-.37-.19.55.55,0,0,0-.38.15,1.49,1.49,0,0,0-.33.49v2.66Z" transform="translate(-121.75 -137.33)"/>
      <path d="M444.1,165.21a.69.69,0,0,1,.21-.5.67.67,0,0,1,.49-.21.64.64,0,0,1,.49.21.68.68,0,0,1,0,1,.7.7,0,0,1-1.19-.48Z" transform="translate(-121.75 -137.33)"/>
    </g>
    <text class="cls-4" transform="translate(142.5 10.57)">Bit 9:<tspan class="cls-5"><tspan x="-0.34" y="9.5">1 </tspan><tspan class="cls-6" x="6.75" y="9.5">= Benutze Zeit</tspan></tspan><tspan x="0" y="19">0 = Benutze Blockzahl</tspan></text>
    <path class="cls-7" d="M122,203.05c0,2.93,3.53,5.3,7.89,5.3h6.77c4.35,0,7.88,2.37,7.88,5.3,0-2.93,3.53-5.3,7.89-5.3h6.77c4.35,0,7.89-2.37,7.89-5.3" transform="translate(-121.75 -137.33)"/>
    <text class="cls-2" transform="translate(65.35 85.03)">0</text>
    <path class="cls-7" d="M167.09,203.05c0,2.93,3.53,5.3,7.88,5.3h6.77c4.36,0,7.89,2.37,7.89,5.3,0-2.93,3.53-5.3,7.88-5.3h6.78c4.35,0,7.88-2.37,7.88-5.3" transform="translate(-121.75 -137.33)"/>
    <text class="cls-2" transform="translate(110.44 85.03)">4</text>
    <path class="cls-7" d="M212.17,203.05c0,2.93,3.53,5.3,7.89,5.3h6.77c4.35,0,7.88,2.37,7.88,5.3,0-2.93,3.54-5.3,7.89-5.3h6.77c4.36,0,7.89-2.37,7.89-5.3" transform="translate(-121.75 -137.33)"/>
    <text class="cls-2" transform="translate(155.52 85.03)">0</text>
    <path class="cls-7" d="M257.26,203.05c0,2.93,3.53,5.3,7.88,5.3h6.77c4.36,0,7.89,2.37,7.89,5.3,0-2.93,3.53-5.3,7.89-5.3h6.77c4.35,0,7.88-2.37,7.88-5.3" transform="translate(-121.75 -137.33)"/>
    <text class="cls-2" transform="translate(200.61 85.03)">1</text>
    <path class="cls-7" d="M302.34,203.05c0,2.93,3.53,5.3,7.89,5.3H317c4.35,0,7.89,2.37,7.89,5.3,0-2.93,3.53-5.3,7.88-5.3h6.77c4.36,0,7.89-2.37,7.89-5.3" transform="translate(-121.75 -137.33)"/>
    <text class="cls-2" transform="translate(245.69 85.03)">3</text>
    <path class="cls-7" d="M347.43,203.05c0,2.93,3.53,5.3,7.89,5.3h6.77c4.35,0,7.88,2.37,7.88,5.3,0-2.93,3.53-5.3,7.89-5.3h6.77c4.35,0,7.89-2.37,7.89-5.3" transform="translate(-121.75 -137.33)"/>
    <text class="cls-2" transform="translate(290.78 85.03)">c</text>
    <path class="cls-7" d="M392.52,203.05c0,2.93,3.53,5.3,7.88,5.3h6.77c4.36,0,7.89,2.37,7.89,5.3,0-2.93,3.53-5.3,7.88-5.3h6.77c4.36,0,7.89-2.37,7.89-5.3" transform="translate(-121.75 -137.33)"/>
    <path class="cls-7" d="M302.34,186c0-2.93,3.53-5.3,7.89-5.3h74.06c4.35,0,7.88-2.37,7.88-5.3,0,2.93,3.53,5.3,7.89,5.3h74.05c4.36,0,7.89,2.37,7.89,5.3" transform="translate(-121.75 -137.33)"/>
    <text class="cls-2" transform="translate(335.87 85.03)">6</text>
    <path class="cls-7" d="M437.6,203.05c0,2.93,3.53,5.3,7.89,5.3h6.77c4.35,0,7.88,2.37,7.88,5.3,0-2.93,3.54-5.3,7.89-5.3h6.77c4.36,0,7.89-2.37,7.89-5.3" transform="translate(-121.75 -137.33)"/>
    <line class="cls-7" x1="270.42" y1="38.04" x2="270.42" y2="30.92"/>
  </g>
</svg>
