<?xml version="1.0" encoding="UTF-8" standalone="no"?>
<svg
   xmlns:dc="http://purl.org/dc/elements/1.1/"
   xmlns:cc="http://creativecommons.org/ns#"
   xmlns:rdf="http://www.w3.org/1999/02/22-rdf-syntax-ns#"
   xmlns:svg="http://www.w3.org/2000/svg"
   xmlns="http://www.w3.org/2000/svg"
   xmlns:sodipodi="http://sodipodi.sourceforge.net/DTD/sodipodi-0.dtd"
   xmlns:inkscape="http://www.inkscape.org/namespaces/inkscape"
   version="1.1"
   id="svg2"
   xml:space="preserve"
   width="481.58398"
   height="111.81564"
   viewBox="0 0 481.58398 111.81564"
   sodipodi:docname="09-06.ai"><metadata
     id="metadata8"><rdf:RDF><cc:Work
         rdf:about=""><dc:format>image/svg+xml</dc:format><dc:type
           rdf:resource="http://purl.org/dc/dcmitype/StillImage" /></cc:Work></rdf:RDF></metadata><defs
     id="defs6"><clipPath
       clipPathUnits="userSpaceOnUse"
       id="clipPath20"><path
         d="M 0,792 H 612 V 0 H 0 Z"
         id="path18" /></clipPath><clipPath
       clipPathUnits="userSpaceOnUse"
       id="clipPath34"><path
         d="M 0,792 H 612 V 0 H 0 Z"
         id="path32" /></clipPath><clipPath
       clipPathUnits="userSpaceOnUse"
       id="clipPath48"><path
         d="M 0,792 H 612 V 0 H 0 Z"
         id="path46" /></clipPath><clipPath
       clipPathUnits="userSpaceOnUse"
       id="clipPath62"><path
         d="M 0,792 H 612 V 0 H 0 Z"
         id="path60" /></clipPath><clipPath
       clipPathUnits="userSpaceOnUse"
       id="clipPath76"><path
         d="M 0,792 H 612 V 0 H 0 Z"
         id="path74" /></clipPath><clipPath
       clipPathUnits="userSpaceOnUse"
       id="clipPath90"><path
         d="M 0,792 H 612 V 0 H 0 Z"
         id="path88" /></clipPath><clipPath
       clipPathUnits="userSpaceOnUse"
       id="clipPath104"><path
         d="M 0,792 H 612 V 0 H 0 Z"
         id="path102" /></clipPath><clipPath
       clipPathUnits="userSpaceOnUse"
       id="clipPath118"><path
         d="M 0,792 H 612 V 0 H 0 Z"
         id="path116" /></clipPath><clipPath
       clipPathUnits="userSpaceOnUse"
       id="clipPath132"><path
         d="M 0,792 H 612 V 0 H 0 Z"
         id="path130" /></clipPath><clipPath
       clipPathUnits="userSpaceOnUse"
       id="clipPath146"><path
         d="M 0,792 H 612 V 0 H 0 Z"
         id="path144" /></clipPath><clipPath
       clipPathUnits="userSpaceOnUse"
       id="clipPath160"><path
         d="M 0,792 H 612 V 0 H 0 Z"
         id="path158" /></clipPath><clipPath
       clipPathUnits="userSpaceOnUse"
       id="clipPath174"><path
         d="M 0,792 H 612 V 0 H 0 Z"
         id="path172" /></clipPath><clipPath
       clipPathUnits="userSpaceOnUse"
       id="clipPath188"><path
         d="M 0,792 H 612 V 0 H 0 Z"
         id="path186" /></clipPath><clipPath
       clipPathUnits="userSpaceOnUse"
       id="clipPath202"><path
         d="M 0,792 H 612 V 0 H 0 Z"
         id="path200" /></clipPath><clipPath
       clipPathUnits="userSpaceOnUse"
       id="clipPath216"><path
         d="M 0,792 H 612 V 0 H 0 Z"
         id="path214" /></clipPath><clipPath
       clipPathUnits="userSpaceOnUse"
       id="clipPath230"><path
         d="M 0,792 H 612 V 0 H 0 Z"
         id="path228" /></clipPath><clipPath
       clipPathUnits="userSpaceOnUse"
       id="clipPath244"><path
         d="M 0,792 H 612 V 0 H 0 Z"
         id="path242" /></clipPath><clipPath
       clipPathUnits="userSpaceOnUse"
       id="clipPath258"><path
         d="M 0,792 H 612 V 0 H 0 Z"
         id="path256" /></clipPath><clipPath
       clipPathUnits="userSpaceOnUse"
       id="clipPath272"><path
         d="M 0,792 H 612 V 0 H 0 Z"
         id="path270" /></clipPath><clipPath
       clipPathUnits="userSpaceOnUse"
       id="clipPath286"><path
         d="M 0,792 H 612 V 0 H 0 Z"
         id="path284" /></clipPath><clipPath
       clipPathUnits="userSpaceOnUse"
       id="clipPath300"><path
         d="M 0,792 H 612 V 0 H 0 Z"
         id="path298" /></clipPath><clipPath
       clipPathUnits="userSpaceOnUse"
       id="clipPath314"><path
         d="M 0,792 H 612 V 0 H 0 Z"
         id="path312" /></clipPath><clipPath
       clipPathUnits="userSpaceOnUse"
       id="clipPath328"><path
         d="M 0,792 H 612 V 0 H 0 Z"
         id="path326" /></clipPath><clipPath
       clipPathUnits="userSpaceOnUse"
       id="clipPath342"><path
         d="M 0,792 H 612 V 0 H 0 Z"
         id="path340" /></clipPath><clipPath
       clipPathUnits="userSpaceOnUse"
       id="clipPath356"><path
         d="M 0,792 H 612 V 0 H 0 Z"
         id="path354" /></clipPath><clipPath
       clipPathUnits="userSpaceOnUse"
       id="clipPath370"><path
         d="M 0,792 H 612 V 0 H 0 Z"
         id="path368" /></clipPath><clipPath
       clipPathUnits="userSpaceOnUse"
       id="clipPath384"><path
         d="M 0,792 H 612 V 0 H 0 Z"
         id="path382" /></clipPath><clipPath
       clipPathUnits="userSpaceOnUse"
       id="clipPath398"><path
         d="M 0,792 H 612 V 0 H 0 Z"
         id="path396" /></clipPath><clipPath
       clipPathUnits="userSpaceOnUse"
       id="clipPath412"><path
         d="M 0,792 H 612 V 0 H 0 Z"
         id="path410" /></clipPath><clipPath
       clipPathUnits="userSpaceOnUse"
       id="clipPath426"><path
         d="M 0,792 H 612 V 0 H 0 Z"
         id="path424" /></clipPath><clipPath
       clipPathUnits="userSpaceOnUse"
       id="clipPath440"><path
         d="M 0,792 H 612 V 0 H 0 Z"
         id="path438" /></clipPath><clipPath
       clipPathUnits="userSpaceOnUse"
       id="clipPath454"><path
         d="M 0,792 H 612 V 0 H 0 Z"
         id="path452" /></clipPath></defs><sodipodi:namedview
     pagecolor="#ffffff"
     bordercolor="#666666"
     borderopacity="1"
     objecttolerance="10"
     gridtolerance="10"
     guidetolerance="10"
     inkscape:pageopacity="0"
     inkscape:pageshadow="2"
     inkscape:window-width="640"
     inkscape:window-height="480"
     id="namedview4" /><g
     id="g10"
     inkscape:groupmode="layer"
     inkscape:label="09-06"
     transform="matrix(1.3333333,0,0,-1.3333333,-162.33333,871.12308)"><path
       d="M 133.271,591.854 H 122 v 11.271 h 11.271 z"
       style="fill:#fde3da;fill-opacity:1;fill-rule:nonzero;stroke:#231f20;stroke-width:0.5;stroke-linecap:butt;stroke-linejoin:miter;stroke-miterlimit:4;stroke-dasharray:none;stroke-opacity:1"
       id="path12" /><g
       id="g14"><g
         id="g16"
         clip-path="url(#clipPath20)"><text
           transform="matrix(1,0,0,-1,124.6343,594.3418)"
           style="font-variant:normal;font-weight:normal;font-stretch:normal;font-size:10px;font-family:Courier;-inkscape-font-specification:Courier;writing-mode:lr-tb;fill:#231f20;fill-opacity:1;fill-rule:nonzero;stroke:none"
           id="text24"><tspan
             x="0"
             y="0"
             id="tspan22">0</tspan></text></g></g><path
       d="m 144.543,591.854 h -11.271 v 11.271 h 11.271 z"
       style="fill:#fde3da;fill-opacity:1;fill-rule:nonzero;stroke:#231f20;stroke-width:0.5;stroke-linecap:butt;stroke-linejoin:miter;stroke-miterlimit:4;stroke-dasharray:none;stroke-opacity:1"
       id="path26" /><g
       id="g28"><g
         id="g30"
         clip-path="url(#clipPath34)"><text
           transform="matrix(1,0,0,-1,135.9058,594.3418)"
           style="font-variant:normal;font-weight:normal;font-stretch:normal;font-size:10px;font-family:Courier;-inkscape-font-specification:Courier;writing-mode:lr-tb;fill:#231f20;fill-opacity:1;fill-rule:nonzero;stroke:none"
           id="text38"><tspan
             x="0"
             y="0"
             id="tspan36">0</tspan></text></g></g><path
       d="m 155.814,591.854 h -11.271 v 11.271 h 11.271 z"
       style="fill:#fde3da;fill-opacity:1;fill-rule:nonzero;stroke:#231f20;stroke-width:0.5;stroke-linecap:butt;stroke-linejoin:miter;stroke-miterlimit:4;stroke-dasharray:none;stroke-opacity:1"
       id="path40" /><g
       id="g42"><g
         id="g44"
         clip-path="url(#clipPath48)"><text
           transform="matrix(1,0,0,-1,147.1772,594.3418)"
           style="font-variant:normal;font-weight:normal;font-stretch:normal;font-size:10px;font-family:Courier;-inkscape-font-specification:Courier;writing-mode:lr-tb;fill:#231f20;fill-opacity:1;fill-rule:nonzero;stroke:none"
           id="text52"><tspan
             x="0"
             y="0"
             id="tspan50">0</tspan></text></g></g><path
       d="m 167.086,591.854 h -11.271 v 11.271 h 11.271 z"
       style="fill:#fde3da;fill-opacity:1;fill-rule:nonzero;stroke:#231f20;stroke-width:0.5;stroke-linecap:butt;stroke-linejoin:miter;stroke-miterlimit:4;stroke-dasharray:none;stroke-opacity:1"
       id="path54" /><g
       id="g56"><g
         id="g58"
         clip-path="url(#clipPath62)"><text
           transform="matrix(1,0,0,-1,158.4487,594.3418)"
           style="font-variant:normal;font-weight:normal;font-stretch:normal;font-size:10px;font-family:Courier;-inkscape-font-specification:Courier;writing-mode:lr-tb;fill:#231f20;fill-opacity:1;fill-rule:nonzero;stroke:none"
           id="text66"><tspan
             x="0"
             y="0"
             id="tspan64">0</tspan></text></g></g><path
       d="m 178.357,591.854 h -11.271 v 11.271 h 11.271 z"
       style="fill:#fde3da;fill-opacity:1;fill-rule:nonzero;stroke:#231f20;stroke-width:0.5;stroke-linecap:butt;stroke-linejoin:miter;stroke-miterlimit:4;stroke-dasharray:none;stroke-opacity:1"
       id="path68" /><g
       id="g70"><g
         id="g72"
         clip-path="url(#clipPath76)"><text
           transform="matrix(1,0,0,-1,169.7202,594.3418)"
           style="font-variant:normal;font-weight:normal;font-stretch:normal;font-size:10px;font-family:Courier;-inkscape-font-specification:Courier;writing-mode:lr-tb;fill:#231f20;fill-opacity:1;fill-rule:nonzero;stroke:none"
           id="text80"><tspan
             x="0"
             y="0"
             id="tspan78">0</tspan></text></g></g><path
       d="m 189.629,591.854 h -11.271 v 11.271 h 11.271 z"
       style="fill:#fde3da;fill-opacity:1;fill-rule:nonzero;stroke:#231f20;stroke-width:0.5;stroke-linecap:butt;stroke-linejoin:miter;stroke-miterlimit:4;stroke-dasharray:none;stroke-opacity:1"
       id="path82" /><g
       id="g84"><g
         id="g86"
         clip-path="url(#clipPath90)"><text
           transform="matrix(1,0,0,-1,180.9917,594.3418)"
           style="font-variant:normal;font-weight:normal;font-stretch:normal;font-size:10px;font-family:Courier;-inkscape-font-specification:Courier;writing-mode:lr-tb;fill:#231f20;fill-opacity:1;fill-rule:nonzero;stroke:none"
           id="text94"><tspan
             x="0"
             y="0"
             id="tspan92">0</tspan></text></g></g><path
       d="m 200.9,591.854 h -11.271 v 11.271 H 200.9 Z"
       style="fill:#fde3da;fill-opacity:1;fill-rule:nonzero;stroke:#231f20;stroke-width:0.5;stroke-linecap:butt;stroke-linejoin:miter;stroke-miterlimit:4;stroke-dasharray:none;stroke-opacity:1"
       id="path96" /><g
       id="g98"><g
         id="g100"
         clip-path="url(#clipPath104)"><text
           transform="matrix(1,0,0,-1,192.2632,594.3418)"
           style="font-variant:normal;font-weight:normal;font-stretch:normal;font-size:10px;font-family:Courier;-inkscape-font-specification:Courier;writing-mode:lr-tb;fill:#231f20;fill-opacity:1;fill-rule:nonzero;stroke:none"
           id="text108"><tspan
             x="0"
             y="0"
             id="tspan106">0</tspan></text></g></g><path
       d="m 212.172,591.854 h -11.271 v 11.271 h 11.271 z"
       style="fill:#fde3da;fill-opacity:1;fill-rule:nonzero;stroke:#231f20;stroke-width:0.5;stroke-linecap:butt;stroke-linejoin:miter;stroke-miterlimit:4;stroke-dasharray:none;stroke-opacity:1"
       id="path110" /><g
       id="g112"><g
         id="g114"
         clip-path="url(#clipPath118)"><text
           transform="matrix(1,0,0,-1,203.5347,594.3418)"
           style="font-variant:normal;font-weight:normal;font-stretch:normal;font-size:10px;font-family:Courier;-inkscape-font-specification:Courier;writing-mode:lr-tb;fill:#231f20;fill-opacity:1;fill-rule:nonzero;stroke:none"
           id="text122"><tspan
             x="0"
             y="0"
             id="tspan120">0</tspan></text></g></g><path
       d="m 223.443,591.854 h -11.271 v 11.271 h 11.271 z"
       style="fill:#fde3da;fill-opacity:1;fill-rule:nonzero;stroke:#231f20;stroke-width:0.5;stroke-linecap:butt;stroke-linejoin:miter;stroke-miterlimit:4;stroke-dasharray:none;stroke-opacity:1"
       id="path124" /><g
       id="g126"><g
         id="g128"
         clip-path="url(#clipPath132)"><text
           transform="matrix(1,0,0,-1,214.8062,594.3418)"
           style="font-variant:normal;font-weight:normal;font-stretch:normal;font-size:10px;font-family:Courier;-inkscape-font-specification:Courier;writing-mode:lr-tb;fill:#231f20;fill-opacity:1;fill-rule:nonzero;stroke:none"
           id="text136"><tspan
             x="0"
             y="0"
             id="tspan134">0</tspan></text></g></g><path
       d="m 234.715,591.854 h -11.271 v 11.271 h 11.271 z"
       style="fill:#fde3da;fill-opacity:1;fill-rule:nonzero;stroke:#231f20;stroke-width:0.5;stroke-linecap:butt;stroke-linejoin:miter;stroke-miterlimit:4;stroke-dasharray:none;stroke-opacity:1"
       id="path138" /><g
       id="g140"><g
         id="g142"
         clip-path="url(#clipPath146)"><text
           transform="matrix(1,0,0,-1,226.0776,594.3418)"
           style="font-variant:normal;font-weight:normal;font-stretch:normal;font-size:10px;font-family:Courier;-inkscape-font-specification:Courier;writing-mode:lr-tb;fill:#231f20;fill-opacity:1;fill-rule:nonzero;stroke:none"
           id="text150"><tspan
             x="0"
             y="0"
             id="tspan148">1</tspan></text></g></g><path
       d="m 245.986,591.854 h -11.271 v 11.271 h 11.271 z"
       style="fill:#fde3da;fill-opacity:1;fill-rule:nonzero;stroke:#231f20;stroke-width:0.5;stroke-linecap:butt;stroke-linejoin:miter;stroke-miterlimit:4;stroke-dasharray:none;stroke-opacity:1"
       id="path152" /><g
       id="g154"><g
         id="g156"
         clip-path="url(#clipPath160)"><text
           transform="matrix(1,0,0,-1,237.3491,594.3418)"
           style="font-variant:normal;font-weight:normal;font-stretch:normal;font-size:10px;font-family:Courier;-inkscape-font-specification:Courier;writing-mode:lr-tb;fill:#231f20;fill-opacity:1;fill-rule:nonzero;stroke:none"
           id="text164"><tspan
             x="0"
             y="0"
             id="tspan162">0</tspan></text></g></g><path
       d="m 257.258,591.854 h -11.271 v 11.271 h 11.271 z"
       style="fill:#fde3da;fill-opacity:1;fill-rule:nonzero;stroke:#231f20;stroke-width:0.5;stroke-linecap:butt;stroke-linejoin:miter;stroke-miterlimit:4;stroke-dasharray:none;stroke-opacity:1"
       id="path166" /><g
       id="g168"><g
         id="g170"
         clip-path="url(#clipPath174)"><text
           transform="matrix(1,0,0,-1,248.6206,594.3418)"
           style="font-variant:normal;font-weight:normal;font-stretch:normal;font-size:10px;font-family:Courier;-inkscape-font-specification:Courier;writing-mode:lr-tb;fill:#231f20;fill-opacity:1;fill-rule:nonzero;stroke:none"
           id="text178"><tspan
             x="0"
             y="0"
             id="tspan176">0</tspan></text></g></g><path
       d="m 268.529,591.854 h -11.271 v 11.271 h 11.271 z"
       style="fill:#fde3da;fill-opacity:1;fill-rule:nonzero;stroke:#231f20;stroke-width:0.5;stroke-linecap:butt;stroke-linejoin:miter;stroke-miterlimit:4;stroke-dasharray:none;stroke-opacity:1"
       id="path180" /><g
       id="g182"><g
         id="g184"
         clip-path="url(#clipPath188)"><text
           transform="matrix(1,0,0,-1,259.8921,594.3418)"
           style="font-variant:normal;font-weight:normal;font-stretch:normal;font-size:10px;font-family:Courier;-inkscape-font-specification:Courier;writing-mode:lr-tb;fill:#231f20;fill-opacity:1;fill-rule:nonzero;stroke:none"
           id="text192"><tspan
             x="0"
             y="0"
             id="tspan190">0</tspan></text></g></g><path
       d="M 279.801,591.854 H 268.53 v 11.271 h 11.271 z"
       style="fill:#fde3da;fill-opacity:1;fill-rule:nonzero;stroke:#231f20;stroke-width:0.5;stroke-linecap:butt;stroke-linejoin:miter;stroke-miterlimit:4;stroke-dasharray:none;stroke-opacity:1"
       id="path194" /><g
       id="g196"><g
         id="g198"
         clip-path="url(#clipPath202)"><text
           transform="matrix(1,0,0,-1,271.1636,594.3418)"
           style="font-variant:normal;font-weight:normal;font-stretch:normal;font-size:10px;font-family:Courier;-inkscape-font-specification:Courier;writing-mode:lr-tb;fill:#231f20;fill-opacity:1;fill-rule:nonzero;stroke:none"
           id="text206"><tspan
             x="0"
             y="0"
             id="tspan204">0</tspan></text></g></g><path
       d="m 291.072,591.854 h -11.271 v 11.271 h 11.271 z"
       style="fill:#fde3da;fill-opacity:1;fill-rule:nonzero;stroke:#231f20;stroke-width:0.5;stroke-linecap:butt;stroke-linejoin:miter;stroke-miterlimit:4;stroke-dasharray:none;stroke-opacity:1"
       id="path208" /><g
       id="g210"><g
         id="g212"
         clip-path="url(#clipPath216)"><text
           transform="matrix(1,0,0,-1,282.4351,594.3418)"
           style="font-variant:normal;font-weight:normal;font-stretch:normal;font-size:10px;font-family:Courier;-inkscape-font-specification:Courier;writing-mode:lr-tb;fill:#231f20;fill-opacity:1;fill-rule:nonzero;stroke:none"
           id="text220"><tspan
             x="0"
             y="0"
             id="tspan218">0</tspan></text></g></g><path
       d="m 302.344,591.854 h -11.271 v 11.271 h 11.271 z"
       style="fill:#fde3da;fill-opacity:1;fill-rule:nonzero;stroke:#231f20;stroke-width:0.5;stroke-linecap:butt;stroke-linejoin:miter;stroke-miterlimit:4;stroke-dasharray:none;stroke-opacity:1"
       id="path222" /><g
       id="g224"><g
         id="g226"
         clip-path="url(#clipPath230)"><text
           transform="matrix(1,0,0,-1,293.7065,594.3418)"
           style="font-variant:normal;font-weight:normal;font-stretch:normal;font-size:10px;font-family:Courier;-inkscape-font-specification:Courier;writing-mode:lr-tb;fill:#231f20;fill-opacity:1;fill-rule:nonzero;stroke:none"
           id="text234"><tspan
             x="0"
             y="0"
             id="tspan232">0</tspan></text></g></g><path
       d="m 313.615,591.854 h -11.271 v 11.271 h 11.271 z"
       style="fill:#fde3da;fill-opacity:1;fill-rule:nonzero;stroke:#231f20;stroke-width:0.5;stroke-linecap:butt;stroke-linejoin:miter;stroke-miterlimit:4;stroke-dasharray:none;stroke-opacity:1"
       id="path236" /><g
       id="g238"><g
         id="g240"
         clip-path="url(#clipPath244)"><text
           transform="matrix(1,0,0,-1,304.978,594.3418)"
           style="font-variant:normal;font-weight:normal;font-stretch:normal;font-size:10px;font-family:Courier;-inkscape-font-specification:Courier;writing-mode:lr-tb;fill:#231f20;fill-opacity:1;fill-rule:nonzero;stroke:none"
           id="text248"><tspan
             x="0"
             y="0"
             id="tspan246">0</tspan></text></g></g><path
       d="m 324.887,591.854 h -11.271 v 11.271 h 11.271 z"
       style="fill:#fde3da;fill-opacity:1;fill-rule:nonzero;stroke:#231f20;stroke-width:0.5;stroke-linecap:butt;stroke-linejoin:miter;stroke-miterlimit:4;stroke-dasharray:none;stroke-opacity:1"
       id="path250" /><g
       id="g252"><g
         id="g254"
         clip-path="url(#clipPath258)"><text
           transform="matrix(1,0,0,-1,316.2495,594.3418)"
           style="font-variant:normal;font-weight:normal;font-stretch:normal;font-size:10px;font-family:Courier;-inkscape-font-specification:Courier;writing-mode:lr-tb;fill:#231f20;fill-opacity:1;fill-rule:nonzero;stroke:none"
           id="text262"><tspan
             x="0"
             y="0"
             id="tspan260">0</tspan></text></g></g><path
       d="m 336.158,591.854 h -11.271 v 11.271 h 11.271 z"
       style="fill:#fde3da;fill-opacity:1;fill-rule:nonzero;stroke:#231f20;stroke-width:0.5;stroke-linecap:butt;stroke-linejoin:miter;stroke-miterlimit:4;stroke-dasharray:none;stroke-opacity:1"
       id="path264" /><g
       id="g266"><g
         id="g268"
         clip-path="url(#clipPath272)"><text
           transform="matrix(1,0,0,-1,327.521,594.3418)"
           style="font-variant:normal;font-weight:normal;font-stretch:normal;font-size:10px;font-family:Courier;-inkscape-font-specification:Courier;writing-mode:lr-tb;fill:#231f20;fill-opacity:1;fill-rule:nonzero;stroke:none"
           id="text276"><tspan
             x="0"
             y="0"
             id="tspan274">0</tspan></text></g></g><path
       d="m 347.43,591.854 h -11.271 v 11.271 h 11.271 z"
       style="fill:#fde3da;fill-opacity:1;fill-rule:nonzero;stroke:#231f20;stroke-width:0.5;stroke-linecap:butt;stroke-linejoin:miter;stroke-miterlimit:4;stroke-dasharray:none;stroke-opacity:1"
       id="path278" /><g
       id="g280"><g
         id="g282"
         clip-path="url(#clipPath286)"><text
           transform="matrix(1,0,0,-1,338.7925,594.3418)"
           style="font-variant:normal;font-weight:normal;font-stretch:normal;font-size:10px;font-family:Courier;-inkscape-font-specification:Courier;writing-mode:lr-tb;fill:#231f20;fill-opacity:1;fill-rule:nonzero;stroke:none"
           id="text290"><tspan
             x="0"
             y="0"
             id="tspan288">1</tspan></text></g></g><path
       d="M 358.701,591.854 H 347.43 v 11.271 h 11.271 z"
       style="fill:#fde3da;fill-opacity:1;fill-rule:nonzero;stroke:#231f20;stroke-width:0.5;stroke-linecap:butt;stroke-linejoin:miter;stroke-miterlimit:4;stroke-dasharray:none;stroke-opacity:1"
       id="path292" /><g
       id="g294"><g
         id="g296"
         clip-path="url(#clipPath300)"><text
           transform="matrix(1,0,0,-1,350.064,594.3418)"
           style="font-variant:normal;font-weight:normal;font-stretch:normal;font-size:10px;font-family:Courier;-inkscape-font-specification:Courier;writing-mode:lr-tb;fill:#231f20;fill-opacity:1;fill-rule:nonzero;stroke:none"
           id="text304"><tspan
             x="0"
             y="0"
             id="tspan302">0</tspan></text></g></g><path
       d="m 369.973,591.854 h -11.271 v 11.271 h 11.271 z"
       style="fill:#fde3da;fill-opacity:1;fill-rule:nonzero;stroke:#231f20;stroke-width:0.5;stroke-linecap:butt;stroke-linejoin:miter;stroke-miterlimit:4;stroke-dasharray:none;stroke-opacity:1"
       id="path306" /><g
       id="g308"><g
         id="g310"
         clip-path="url(#clipPath314)"><text
           transform="matrix(1,0,0,-1,361.3354,594.3418)"
           style="font-variant:normal;font-weight:normal;font-stretch:normal;font-size:10px;font-family:Courier;-inkscape-font-specification:Courier;writing-mode:lr-tb;fill:#231f20;fill-opacity:1;fill-rule:nonzero;stroke:none"
           id="text318"><tspan
             x="0"
             y="0"
             id="tspan316">0</tspan></text></g></g><path
       d="m 381.244,591.854 h -11.271 v 11.271 h 11.271 z"
       style="fill:#fde3da;fill-opacity:1;fill-rule:nonzero;stroke:#231f20;stroke-width:0.5;stroke-linecap:butt;stroke-linejoin:miter;stroke-miterlimit:4;stroke-dasharray:none;stroke-opacity:1"
       id="path320" /><g
       id="g322"><g
         id="g324"
         clip-path="url(#clipPath328)"><text
           transform="matrix(1,0,0,-1,372.6069,594.3418)"
           style="font-variant:normal;font-weight:normal;font-stretch:normal;font-size:10px;font-family:Courier;-inkscape-font-specification:Courier;writing-mode:lr-tb;fill:#231f20;fill-opacity:1;fill-rule:nonzero;stroke:none"
           id="text332"><tspan
             x="0"
             y="0"
             id="tspan330">1</tspan></text></g></g><path
       d="m 392.516,591.854 h -11.271 v 11.271 h 11.271 z"
       style="fill:#fde3da;fill-opacity:1;fill-rule:nonzero;stroke:#231f20;stroke-width:0.5;stroke-linecap:butt;stroke-linejoin:miter;stroke-miterlimit:4;stroke-dasharray:none;stroke-opacity:1"
       id="path334" /><g
       id="g336"><g
         id="g338"
         clip-path="url(#clipPath342)"><text
           transform="matrix(1,0,0,-1,383.8784,594.3418)"
           style="font-variant:normal;font-weight:normal;font-stretch:normal;font-size:10px;font-family:Courier;-inkscape-font-specification:Courier;writing-mode:lr-tb;fill:#231f20;fill-opacity:1;fill-rule:nonzero;stroke:none"
           id="text346"><tspan
             x="0"
             y="0"
             id="tspan344">1</tspan></text></g></g><path
       d="m 403.787,591.854 h -11.271 v 11.271 h 11.271 z"
       style="fill:#fde3da;fill-opacity:1;fill-rule:nonzero;stroke:#231f20;stroke-width:0.5;stroke-linecap:butt;stroke-linejoin:miter;stroke-miterlimit:4;stroke-dasharray:none;stroke-opacity:1"
       id="path348" /><g
       id="g350"><g
         id="g352"
         clip-path="url(#clipPath356)"><text
           transform="matrix(1,0,0,-1,395.1499,594.3418)"
           style="font-variant:normal;font-weight:normal;font-stretch:normal;font-size:10px;font-family:Courier;-inkscape-font-specification:Courier;writing-mode:lr-tb;fill:#231f20;fill-opacity:1;fill-rule:nonzero;stroke:none"
           id="text360"><tspan
             x="0"
             y="0"
             id="tspan358">1</tspan></text></g></g><path
       d="m 415.059,591.854 h -11.271 v 11.271 h 11.271 z"
       style="fill:#fde3da;fill-opacity:1;fill-rule:nonzero;stroke:#231f20;stroke-width:0.5;stroke-linecap:butt;stroke-linejoin:miter;stroke-miterlimit:4;stroke-dasharray:none;stroke-opacity:1"
       id="path362" /><g
       id="g364"><g
         id="g366"
         clip-path="url(#clipPath370)"><text
           transform="matrix(1,0,0,-1,406.4214,594.3418)"
           style="font-variant:normal;font-weight:normal;font-stretch:normal;font-size:10px;font-family:Courier;-inkscape-font-specification:Courier;writing-mode:lr-tb;fill:#231f20;fill-opacity:1;fill-rule:nonzero;stroke:none"
           id="text374"><tspan
             x="0"
             y="0"
             id="tspan372">1</tspan></text></g></g><path
       d="m 426.33,591.854 h -11.271 v 11.271 h 11.271 z"
       style="fill:#fde3da;fill-opacity:1;fill-rule:nonzero;stroke:#231f20;stroke-width:0.5;stroke-linecap:butt;stroke-linejoin:miter;stroke-miterlimit:4;stroke-dasharray:none;stroke-opacity:1"
       id="path376" /><g
       id="g378"><g
         id="g380"
         clip-path="url(#clipPath384)"><text
           transform="matrix(1,0,0,-1,417.6929,594.3418)"
           style="font-variant:normal;font-weight:normal;font-stretch:normal;font-size:10px;font-family:Courier;-inkscape-font-specification:Courier;writing-mode:lr-tb;fill:#231f20;fill-opacity:1;fill-rule:nonzero;stroke:none"
           id="text388"><tspan
             x="0"
             y="0"
             id="tspan386">0</tspan></text></g></g><path
       d="m 437.602,591.854 h -11.271 v 11.271 h 11.271 z"
       style="fill:#fde3da;fill-opacity:1;fill-rule:nonzero;stroke:#231f20;stroke-width:0.5;stroke-linecap:butt;stroke-linejoin:miter;stroke-miterlimit:4;stroke-dasharray:none;stroke-opacity:1"
       id="path390" /><g
       id="g392"><g
         id="g394"
         clip-path="url(#clipPath398)"><text
           transform="matrix(1,0,0,-1,428.9644,594.3418)"
           style="font-variant:normal;font-weight:normal;font-stretch:normal;font-size:10px;font-family:Courier;-inkscape-font-specification:Courier;writing-mode:lr-tb;fill:#231f20;fill-opacity:1;fill-rule:nonzero;stroke:none"
           id="text402"><tspan
             x="0"
             y="0"
             id="tspan400">0</tspan></text></g></g><path
       d="m 448.873,591.854 h -11.271 v 11.271 h 11.271 z"
       style="fill:#fde3da;fill-opacity:1;fill-rule:nonzero;stroke:#231f20;stroke-width:0.5;stroke-linecap:butt;stroke-linejoin:miter;stroke-miterlimit:4;stroke-dasharray:none;stroke-opacity:1"
       id="path404" /><g
       id="g406"><g
         id="g408"
         clip-path="url(#clipPath412)"><text
           transform="matrix(1,0,0,-1,440.2358,594.3418)"
           style="font-variant:normal;font-weight:normal;font-stretch:normal;font-size:10px;font-family:Courier;-inkscape-font-specification:Courier;writing-mode:lr-tb;fill:#231f20;fill-opacity:1;fill-rule:nonzero;stroke:none"
           id="text416"><tspan
             x="0"
             y="0"
             id="tspan414">0</tspan></text></g></g><path
       d="m 460.145,591.854 h -11.271 v 11.271 h 11.271 z"
       style="fill:#fde3da;fill-opacity:1;fill-rule:nonzero;stroke:#231f20;stroke-width:0.5;stroke-linecap:butt;stroke-linejoin:miter;stroke-miterlimit:4;stroke-dasharray:none;stroke-opacity:1"
       id="path418" /><g
       id="g420"><g
         id="g422"
         clip-path="url(#clipPath426)"><text
           transform="matrix(1,0,0,-1,451.5073,594.3418)"
           style="font-variant:normal;font-weight:normal;font-stretch:normal;font-size:10px;font-family:Courier;-inkscape-font-specification:Courier;writing-mode:lr-tb;fill:#231f20;fill-opacity:1;fill-rule:nonzero;stroke:none"
           id="text430"><tspan
             x="0"
             y="0"
             id="tspan428">1</tspan></text></g></g><path
       d="m 471.416,591.854 h -11.271 v 11.271 h 11.271 z"
       style="fill:#fde3da;fill-opacity:1;fill-rule:nonzero;stroke:#231f20;stroke-width:0.5;stroke-linecap:butt;stroke-linejoin:miter;stroke-miterlimit:4;stroke-dasharray:none;stroke-opacity:1"
       id="path432" /><g
       id="g434"><g
         id="g436"
         clip-path="url(#clipPath440)"><text
           transform="matrix(1,0,0,-1,462.7788,594.3418)"
           style="font-variant:normal;font-weight:normal;font-stretch:normal;font-size:10px;font-family:Courier;-inkscape-font-specification:Courier;writing-mode:lr-tb;fill:#231f20;fill-opacity:1;fill-rule:nonzero;stroke:none"
           id="text444"><tspan
             x="0"
             y="0"
             id="tspan442">1</tspan></text></g></g><path
       d="m 482.688,591.854 h -11.271 v 11.271 h 11.271 z"
       style="fill:#fde3da;fill-opacity:1;fill-rule:nonzero;stroke:#231f20;stroke-width:0.5;stroke-linecap:butt;stroke-linejoin:miter;stroke-miterlimit:4;stroke-dasharray:none;stroke-opacity:1"
       id="path446" /><g
       id="g448"><g
         id="g450"
         clip-path="url(#clipPath454)"><text
           transform="matrix(1,0,0,-1,474.0503,594.3418)"
           style="font-variant:normal;font-weight:normal;font-stretch:normal;font-size:10px;font-family:Courier;-inkscape-font-specification:Courier;writing-mode:lr-tb;fill:#231f20;fill-opacity:1;fill-rule:nonzero;stroke:none"
           id="text460"><tspan
             x="0"
             y="0"
             id="tspan456">0</tspan><tspan
             x="-332.04001"
             y="24.700001"
             id="tspan458">0</tspan></text><g
           id="g462"
           transform="translate(230.8335,608.1665)"><path
             d="M 0,0 C 7,12.667 21.833,20 31.5,20"
             style="fill:none;stroke:#231f20;stroke-width:0.3;stroke-linecap:butt;stroke-linejoin:miter;stroke-miterlimit:10;stroke-dasharray:none;stroke-opacity:1"
             id="path464" /></g><g
           id="g466"
           transform="translate(232.7256,607.7461)"><path
             d="m 0,0 -3.203,-1.93 -0.07,3.739 z"
             style="fill:#231f20;fill-opacity:1;fill-rule:nonzero;stroke:none"
             id="path468" /></g><g
           id="g470"
           transform="translate(128.667,608.1665)"><path
             d="M 0,0 C 1.583,8.333 8.083,18.083 14.667,18.833"
             style="fill:none;stroke:#231f20;stroke-width:0.3;stroke-linecap:butt;stroke-linejoin:miter;stroke-miterlimit:10;stroke-dasharray:none;stroke-opacity:1"
             id="path472" /></g><g
           id="g474"
           transform="translate(130.5957,608.3569)"><path
             d="M 0,0 -2.441,-2.833 -3.674,0.698 Z"
             style="fill:#231f20;fill-opacity:1;fill-rule:nonzero;stroke:none"
             id="path476" /></g><text
           transform="matrix(1,0,0,-1,136.8945,647.0977)"
           style="font-variant:normal;font-weight:bold;font-stretch:condensed;font-size:9px;font-family:'Humanst521 Cn BT';-inkscape-font-specification:Humanist521BT-BoldCondensed;writing-mode:lr-tb;fill:#231f20;fill-opacity:1;fill-rule:nonzero;stroke:none"
           id="text482"><tspan
             x="0 4.842 6.9749999 9.9720001 12.276 16.884001"
             y="0"
             sodipodi:role="line"
             id="tspan478">Bit 0:</tspan><tspan
             x="0 4.6079998 6.9120002 14.409 16.712999 21.438 25.398001 27.558001 31.608 34.605 36.737999 40.464001 44.424 46.728001 50.849998 55.196999 58.797001 62.981998 65.286003 69.335999 71.469002 78.209999 82.169998 84.473999 88.524002 93.005997 96.507004 100.107 104.598 108.648 110.808 113.805 117.765"
             y="9.5039997"
             sodipodi:role="line"
             id="tspan480">0 = Relative Lock Time anschalten</tspan></text><text
           transform="matrix(1,0,0,-1,136.5547,628.0977)"
           style="font-variant:normal;font-weight:bold;font-stretch:normal;font-size:8.5px;font-family:Arial;-inkscape-font-specification:Arial-BoldMT;writing-mode:lr-tb;fill:#231f20;fill-opacity:1;fill-rule:nonzero;stroke:none"
           id="text486"><tspan
             x="0 4.7259998"
             y="0"
             sodipodi:role="line"
             id="tspan484">1 </tspan></text><text
           transform="matrix(1,0,0,-1,143.6436,628.0977)"
           style="font-variant:normal;font-weight:bold;font-stretch:condensed;font-size:9px;font-family:'Humanst521 Cn BT';-inkscape-font-specification:Humanist521BT-BoldCondensed;writing-mode:lr-tb;fill:#231f20;fill-opacity:1;fill-rule:nonzero;stroke:none"
           id="text492"><tspan
             x="0 7.4970002 9.8009996 13.851 18.333 21.834 25.334999 28.934999 33.425999 37.476002 39.636002 42.632999 46.592999"
             y="0"
             sodipodi:role="line"
             id="tspan488">= ausschalten</tspan><tspan
             x="210.213 215.397 217.53 221.49001"
             y="-17.073"
             sodipodi:role="line"
             id="tspan490">Die </tspan></text><text
           transform="matrix(1,0,0,-1,367.4375,645.1748)"
           style="font-variant:normal;font-weight:bold;font-stretch:normal;font-size:8.5px;font-family:Arial;-inkscape-font-specification:Arial-BoldMT;writing-mode:lr-tb;fill:#231f20;fill-opacity:1;fill-rule:nonzero;stroke:none"
           id="text496"><tspan
             x="0"
             y="0"
             id="tspan494">1</tspan></text><text
           transform="matrix(1,0,0,-1,372.165,645.1748)"
           style="font-variant:normal;font-weight:bold;font-stretch:condensed;font-size:9px;font-family:'Humanst521 Cn BT';-inkscape-font-specification:Humanist521BT-BoldCondensed;writing-mode:lr-tb;fill:#231f20;fill-opacity:1;fill-rule:nonzero;stroke:none"
           id="text504"><tspan
             x="0 4.4549999 6.7589998 10.152 14.112 17.712 22.202999 25.200001 29.16 32.660999 35.658001 39.618 44.099998 46.403999 51.245998 53.379002 56.375999 59.876999"
             y="0"
             sodipodi:role="line"
             id="tspan498">6 rechtesten Bits </tspan><tspan
             x="-18.306 -14.805 -12.672 -8.1899996 -3.681 -1.377 3.132 5.2649999 9.2250004 11.529 15.966 20.448 24.030001 28.08 32.570999 34.730999 37.035 40.761002 45.108002"
             y="9.5039997"
             sodipodi:role="line"
             id="tspan500">sind die Anzahl von</tspan><tspan
             x="-18.306"
             y="19.007999"
             id="tspan502">5</tspan></text><text
           transform="matrix(1,0,0,-1,357.5591,626.1748)"
           style="font-variant:normal;font-weight:bold;font-stretch:normal;font-size:8.5px;font-family:Arial;-inkscape-font-specification:Arial-BoldMT;writing-mode:lr-tb;fill:#231f20;fill-opacity:1;fill-rule:nonzero;stroke:none"
           id="text508"><tspan
             x="0"
             y="0"
             id="tspan506">1</tspan></text><text
           transform="matrix(1,0,0,-1,362.2861,626.1748)"
           style="font-variant:normal;font-weight:bold;font-stretch:condensed;font-size:9px;font-family:'Humanst521 Cn BT';-inkscape-font-specification:Humanist521BT-BoldCondensed;writing-mode:lr-tb;fill:#231f20;fill-opacity:1;fill-rule:nonzero;stroke:none"
           id="text514"><tspan
             x="0 4.0500002 6.849 10.809 14.769 18.954 23.436001 27.917999 32.426998 36.387001 40.868999 43.173 45.710999 50.193001 53.189999 57.150002 60.875999 64.601997 68.652 70.811996 72.972 76.931999 81.414001"
             y="0"
             sodipodi:role="line"
             id="tspan510">2-Sekunden Intervallen.</tspan><tspan
             x="-98.037003 -93.195 -91.061996 -88.065002 -85.761002 -81.306"
             y="-17.919001"
             sodipodi:role="line"
             id="tspan512">Bit 9:</tspan></text><text
           transform="matrix(1,0,0,-1,263.9131,634.5977)"
           style="font-variant:normal;font-weight:bold;font-stretch:normal;font-size:8.5px;font-family:Arial;-inkscape-font-specification:Arial-BoldMT;writing-mode:lr-tb;fill:#231f20;fill-opacity:1;fill-rule:nonzero;stroke:none"
           id="text518"><tspan
             x="0 4.7259998"
             y="0"
             sodipodi:role="line"
             id="tspan516">1 </tspan></text><text
           transform="matrix(1,0,0,-1,271.002,634.5977)"
           style="font-variant:normal;font-weight:bold;font-stretch:condensed;font-size:9px;font-family:'Humanst521 Cn BT';-inkscape-font-specification:Humanist521BT-BoldCondensed;writing-mode:lr-tb;fill:#231f20;fill-opacity:1;fill-rule:nonzero;stroke:none"
           id="text524"><tspan
             x="0 7.4970002 9.8009996 14.643 18.603001 23.084999 27.566999 30.563999 34.146 38.105999 40.41 44.558998 48.519001 50.652"
             y="0"
             sodipodi:role="line"
             id="tspan520">= Benutze Zeit</tspan><tspan
             x="-6.75 -2.142 0.162 7.6589999 9.9630003 14.805 18.764999 23.247 27.729 30.726 34.307999 38.268002 40.571999 45.414001 47.574001 51.921001 55.521 59.706001 63.287998 67.337997 71.829002"
             y="9.5039997"
             sodipodi:role="line"
             id="tspan522">0 = Benutze Blockzahl</tspan></text><g
           id="g526"
           transform="translate(122,588.9526)"><path
             d="m 0,0 c 0,-2.929 3.53,-5.302 7.886,-5.302 h 6.77 c 4.355,0 7.887,-2.375 7.887,-5.303 0,2.928 3.531,5.303 7.884,5.303 h 6.772 c 4.356,0 7.887,2.373 7.887,5.302"
             style="fill:none;stroke:#231f20;stroke-width:0.5;stroke-linecap:butt;stroke-linejoin:round;stroke-miterlimit:10;stroke-dasharray:none;stroke-opacity:1"
             id="path528" /></g><text
           transform="matrix(1,0,0,-1,187.1006,569.6406)"
           style="font-variant:normal;font-weight:normal;font-stretch:normal;font-size:10px;font-family:Courier;-inkscape-font-specification:Courier;writing-mode:lr-tb;fill:#231f20;fill-opacity:1;fill-rule:nonzero;stroke:none"
           id="text532"><tspan
             x="0"
             y="0"
             id="tspan530">0</tspan></text><g
           id="g534"
           transform="translate(167.0859,588.9526)"><path
             d="m 0,0 c 0,-2.929 3.53,-5.302 7.886,-5.302 h 6.77 c 4.355,0 7.887,-2.375 7.887,-5.303 0,2.928 3.531,5.303 7.884,5.303 h 6.772 c 4.356,0 7.887,2.373 7.887,5.302"
             style="fill:none;stroke:#231f20;stroke-width:0.5;stroke-linecap:butt;stroke-linejoin:round;stroke-miterlimit:10;stroke-dasharray:none;stroke-opacity:1"
             id="path536" /></g><text
           transform="matrix(1,0,0,-1,232.1865,569.6406)"
           style="font-variant:normal;font-weight:normal;font-stretch:normal;font-size:10px;font-family:Courier;-inkscape-font-specification:Courier;writing-mode:lr-tb;fill:#231f20;fill-opacity:1;fill-rule:nonzero;stroke:none"
           id="text540"><tspan
             x="0"
             y="0"
             id="tspan538">4</tspan></text><g
           id="g542"
           transform="translate(212.1719,588.9526)"><path
             d="m 0,0 c 0,-2.929 3.53,-5.302 7.886,-5.302 h 6.77 c 4.355,0 7.887,-2.375 7.887,-5.303 0,2.928 3.531,5.303 7.884,5.303 h 6.772 c 4.356,0 7.887,2.373 7.887,5.302"
             style="fill:none;stroke:#231f20;stroke-width:0.5;stroke-linecap:butt;stroke-linejoin:round;stroke-miterlimit:10;stroke-dasharray:none;stroke-opacity:1"
             id="path544" /></g><text
           transform="matrix(1,0,0,-1,277.2725,569.6406)"
           style="font-variant:normal;font-weight:normal;font-stretch:normal;font-size:10px;font-family:Courier;-inkscape-font-specification:Courier;writing-mode:lr-tb;fill:#231f20;fill-opacity:1;fill-rule:nonzero;stroke:none"
           id="text548"><tspan
             x="0"
             y="0"
             id="tspan546">0</tspan></text><g
           id="g550"
           transform="translate(257.2578,588.9526)"><path
             d="m 0,0 c 0,-2.929 3.53,-5.302 7.886,-5.302 h 6.77 c 4.355,0 7.887,-2.375 7.887,-5.303 0,2.928 3.531,5.303 7.884,5.303 h 6.772 c 4.356,0 7.887,2.373 7.887,5.302"
             style="fill:none;stroke:#231f20;stroke-width:0.5;stroke-linecap:butt;stroke-linejoin:round;stroke-miterlimit:10;stroke-dasharray:none;stroke-opacity:1"
             id="path552" /></g><text
           transform="matrix(1,0,0,-1,322.3584,569.6406)"
           style="font-variant:normal;font-weight:normal;font-stretch:normal;font-size:10px;font-family:Courier;-inkscape-font-specification:Courier;writing-mode:lr-tb;fill:#231f20;fill-opacity:1;fill-rule:nonzero;stroke:none"
           id="text556"><tspan
             x="0"
             y="0"
             id="tspan554">1</tspan></text><g
           id="g558"
           transform="translate(302.3438,588.9526)"><path
             d="m 0,0 c 0,-2.929 3.53,-5.302 7.887,-5.302 h 6.769 c 4.355,0 7.887,-2.375 7.887,-5.303 0,2.928 3.531,5.303 7.885,5.303 h 6.771 c 4.356,0 7.887,2.373 7.887,5.302"
             style="fill:none;stroke:#231f20;stroke-width:0.5;stroke-linecap:butt;stroke-linejoin:round;stroke-miterlimit:10;stroke-dasharray:none;stroke-opacity:1"
             id="path560" /></g><text
           transform="matrix(1,0,0,-1,367.4443,569.6406)"
           style="font-variant:normal;font-weight:normal;font-stretch:normal;font-size:10px;font-family:Courier;-inkscape-font-specification:Courier;writing-mode:lr-tb;fill:#231f20;fill-opacity:1;fill-rule:nonzero;stroke:none"
           id="text564"><tspan
             x="0"
             y="0"
             id="tspan562">3</tspan></text><g
           id="g566"
           transform="translate(347.4297,588.9526)"><path
             d="m 0,0 c 0,-2.929 3.53,-5.302 7.887,-5.302 h 6.769 c 4.355,0 7.887,-2.375 7.887,-5.303 0,2.928 3.531,5.303 7.885,5.303 h 6.771 c 4.356,0 7.887,2.373 7.887,5.302"
             style="fill:none;stroke:#231f20;stroke-width:0.5;stroke-linecap:butt;stroke-linejoin:round;stroke-miterlimit:10;stroke-dasharray:none;stroke-opacity:1"
             id="path568" /></g><text
           transform="matrix(1,0,0,-1,412.5303,569.6406)"
           style="font-variant:normal;font-weight:normal;font-stretch:normal;font-size:10px;font-family:Courier;-inkscape-font-specification:Courier;writing-mode:lr-tb;fill:#231f20;fill-opacity:1;fill-rule:nonzero;stroke:none"
           id="text572"><tspan
             x="0"
             y="0"
             id="tspan570">c</tspan></text><g
           id="g574"
           transform="translate(392.5156,588.9526)"><path
             d="m 0,0 c 0,-2.929 3.53,-5.302 7.887,-5.302 h 6.769 c 4.355,0 7.887,-2.375 7.887,-5.303 0,2.928 3.531,5.303 7.885,5.303 h 6.771 c 4.356,0 7.887,2.373 7.887,5.302"
             style="fill:none;stroke:#231f20;stroke-width:0.5;stroke-linecap:butt;stroke-linejoin:round;stroke-miterlimit:10;stroke-dasharray:none;stroke-opacity:1"
             id="path576" /></g><g
           id="g578"
           transform="translate(302.3438,606.0269)"><path
             d="m 0,0 c 0,2.929 3.53,5.302 7.887,5.302 h 74.054 c 4.355,0 7.887,2.375 7.887,5.303 0,-2.928 3.531,-5.303 7.885,-5.303 h 74.057 c 4.355,0 7.886,-2.373 7.886,-5.302"
             style="fill:none;stroke:#231f20;stroke-width:0.5;stroke-linecap:butt;stroke-linejoin:round;stroke-miterlimit:10;stroke-dasharray:none;stroke-opacity:1"
             id="path580" /></g><text
           transform="matrix(1,0,0,-1,457.6162,569.6406)"
           style="font-variant:normal;font-weight:normal;font-stretch:normal;font-size:10px;font-family:Courier;-inkscape-font-specification:Courier;writing-mode:lr-tb;fill:#231f20;fill-opacity:1;fill-rule:nonzero;stroke:none"
           id="text584"><tspan
             x="0"
             y="0"
             id="tspan582">6</tspan></text><g
           id="g586"
           transform="translate(437.6016,588.9526)"><path
             d="m 0,0 c 0,-2.929 3.53,-5.302 7.887,-5.302 h 6.769 c 4.355,0 7.887,-2.375 7.887,-5.303 0,2.928 3.531,5.303 7.885,5.303 h 6.771 c 4.356,0 7.887,2.373 7.887,5.302"
             style="fill:none;stroke:#231f20;stroke-width:0.5;stroke-linecap:butt;stroke-linejoin:round;stroke-miterlimit:10;stroke-dasharray:none;stroke-opacity:1"
             id="path588" /></g><g
           id="g590"
           transform="translate(392.1719,616.6323)"><path
             d="M 0,0 V 7.118"
             style="fill:none;stroke:#231f20;stroke-width:0.5;stroke-linecap:butt;stroke-linejoin:round;stroke-miterlimit:10;stroke-dasharray:none;stroke-opacity:1"
             id="path592" /></g></g></g></g></svg>
