<svg xmlns="http://www.w3.org/2000/svg" xmlns:xlink="http://www.w3.org/1999/xlink" width="380.13" height="182.76" viewBox="0 0 380.13 182.76">
  <defs>
    <style>
      .cls-1, .cls-10, .cls-11, .cls-12, .cls-17, .cls-18, .cls-22, .cls-4 {
        fill: none;
      }

      .cls-2 {
        clip-path: url(#clip-path);
      }

      .cls-3 {
        fill: #fef0e8;
      }

      .cls-12, .cls-17, .cls-18, .cls-19, .cls-22, .cls-4 {
        stroke: #000;
      }

      .cls-11, .cls-22, .cls-4, .cls-5 {
        stroke-linejoin: round;
      }

      .cls-5 {
        fill: #267520;
        stroke: #267520;
      }

      .cls-17, .cls-19, .cls-5 {
        stroke-width: 0.3px;
      }

      .cls-6 {
        fill: url(#linear-gradient);
      }

      .cls-7 {
        fill: url(#linear-gradient-2);
      }

      .cls-8 {
        fill: #fff;
      }

      .cls-9 {
        font-size: 3.67px;
        font-family: ArialMT, Arial;
      }

      .cls-10 {
        stroke: #4d4d4d;
      }

      .cls-10, .cls-18, .cls-22 {
        stroke-width: 0.5px;
      }

      .cls-11 {
        stroke: #e60001;
      }

      .cls-12, .cls-17 {
        stroke-miterlimit: 10;
      }

      .cls-12 {
        stroke-width: 0.75px;
      }

      .cls-13 {
        font-size: 11.5px;
      }

      .cls-13, .cls-31 {
        font-family: Nimbus Mono PS;
      }

      .cls-14 {
        fill: #28708e;
      }

      .cls-14, .cls-20, .cls-21 {
        fill-rule: evenodd;
      }

      .cls-15 {
        fill: url(#linear-gradient-3);
      }

      .cls-16 {
        fill: url(#linear-gradient-4);
      }

      .cls-19 {
        fill: #fda452;
      }

      .cls-20 {
        fill: #fbafc5;
      }

      .cls-21 {
        fill: #96c749;
      }

      .cls-23, .cls-26 {
        font-size: 9px;
        font-family: Humanist521BT-BoldCondensed, Humanst521 Cn BT;
        font-weight: 700;
      }

      .cls-23 {
        fill: #141011;
      }

      .cls-24 {
        letter-spacing: -0.04em;
      }

      .cls-25 {
        letter-spacing: 0em;
      }

      .cls-27 {
        letter-spacing: -0.07em;
      }

      .cls-28 {
        fill: url(#linear-gradient-5);
      }

      .cls-29 {
        fill: url(#linear-gradient-6);
      }

      .cls-30 {
        font-size: 8px;
        font-family: Helvetica;
      }

      .cls-31 {
        font-size: 12px;
      }

      .cls-32 {
        letter-spacing: -0.04em;
      }
    </style>
    <clipPath id="clip-path">
      <path transform="translate(-122.67 -141.47)" class="cls-1" d="M210,141.42H124.8c.08,9.88,5.32,17.13,1.85,27.08H210Z"/>
    </clipPath>
    <linearGradient id="linear-gradient" x1="-145.18" y1="372.38" x2="-126.37" y2="372.38" gradientTransform="translate(499.31 -6.95) rotate(45.85)" gradientUnits="userSpaceOnUse">
      <stop offset="0" stop-color="#5fb749"/>
      <stop offset="1" stop-color="#dbf1c6"/>
    </linearGradient>
    <linearGradient id="linear-gradient-2" x1="-144.84" y1="372.38" x2="-126.9" y2="372.38" gradientTransform="translate(499.31 -6.95) rotate(45.85)" gradientUnits="userSpaceOnUse">
      <stop offset="0" stop-color="#dbf1c6"/>
      <stop offset="1" stop-color="#5fb749"/>
    </linearGradient>
    <linearGradient id="linear-gradient-3" x1="-33.61" y1="257.47" x2="-14.81" y2="257.47" xlink:href="#linear-gradient"/>
    <linearGradient id="linear-gradient-4" x1="-33.28" y1="257.47" x2="-15.33" y2="257.47" xlink:href="#linear-gradient-2"/>
    <linearGradient id="linear-gradient-5" x1="0.36" y1="290.46" x2="19.17" y2="290.46" xlink:href="#linear-gradient"/>
    <linearGradient id="linear-gradient-6" x1="0.7" y1="290.46" x2="18.64" y2="290.46" xlink:href="#linear-gradient-2"/>
  </defs>
  <g id="Layer_2" data-name="Layer 2">
    <g class="cls-2">
      <rect class="cls-3" x="0.5" y="2.42" width="84.58" height="21.55" rx="2"/>
      <g>
        <path class="cls-4" d="M144.12,159.65,137.7,153a4.19,4.19,0,0,0-6.7-4.75.94.94,0,0,1-.1.1,1.09,1.09,0,0,1-.11.1,4.19,4.19,0,0,0,4.22,7l.53.55a1,1,0,0,1,1.32,1.35l.59.61a.89.89,0,0,1,1.16.19.9.9,0,0,1,.15,1.16l.59.61a1,1,0,0,1,1.31,1.35l.41.42,3.3-.17.2-.2Z" transform="translate(-122.67 -141.47)"/>
        <path class="cls-5" d="M144.57,161.32l-7.07-8.08a4.21,4.21,0,0,0-.82-4.64,4.14,4.14,0,1,0-1.67,6.85l.53.55a1,1,0,0,1,1.32,1.35l.59.61a.89.89,0,0,1,1.16.19.9.9,0,0,1,.15,1.16l.59.61a1,1,0,0,1,1.31,1.35l.41.42,3.3-.17Z" transform="translate(-122.67 -141.47)"/>
        <path class="cls-6" d="M144.12,159.65,137.7,153a4.14,4.14,0,1,0-2.49,2.21l.54.55a.9.9,0,0,1,1.16.19.89.89,0,0,1,.15,1.16l.59.61a.9.9,0,0,1,1.16.19.89.89,0,0,1,.15,1.16l.59.61a.91.91,0,0,1,1.17.18.9.9,0,0,1,.14,1.17l.42.42,3.29-.17Z" transform="translate(-122.67 -141.47)"/>
        <path class="cls-7" d="M131.18,153.94a3.8,3.8,0,1,1,6.22-1l-.1.21,6.52,6.71.32,1.18-2.73.15-.13-.13a1.35,1.35,0,0,0-1.66-1.71l-.24-.25a1.32,1.32,0,0,0-.33-1.35,1.3,1.3,0,0,0-1.33-.36l-.25-.25a1.35,1.35,0,0,0-1.65-1.71l-.51-.52-.2.06A3.86,3.86,0,0,1,131.18,153.94Z" transform="translate(-122.67 -141.47)"/>
        <path class="cls-8" d="M136.22,153.66a3.31,3.31,0,1,1,.06-4.67A3.31,3.31,0,0,1,136.22,153.66Z" transform="translate(-122.67 -141.47)"/>
        <text class="cls-9" transform="translate(8.03 8.39) rotate(45.85)">Pub</text>
      </g>
      <line class="cls-10" x1="28.83" y1="2.56" x2="28.83" y2="23.95"/>
      <rect class="cls-11" x="0.5" y="2.42" width="84.58" height="21.55" rx="2"/>
      <path d="M196,154.39h-3.16v2.73h.64a.35.35,0,0,1,.24.06.23.23,0,0,1,.08.17.23.23,0,0,1-.08.18.35.35,0,0,1-.24.06h-1.64a.4.4,0,0,1-.25-.06.23.23,0,0,1-.07-.18.22.22,0,0,1,.07-.17.4.4,0,0,1,.25-.06h.53v-5.67h-.3a.38.38,0,0,1-.24-.06.22.22,0,0,1,0-.34.33.33,0,0,1,.24-.07h1.41a.3.3,0,0,1,.24.07.22.22,0,0,1,0,.34.35.35,0,0,1-.24.06h-.64v2.47H196v-2.47h-.64a.4.4,0,0,1-.25-.06.24.24,0,0,1,0-.34.34.34,0,0,1,.25-.07h1.41a.3.3,0,0,1,.24.07.22.22,0,0,1,0,.34.35.35,0,0,1-.24.06h-.3v5.67h.54a.38.38,0,0,1,.24.06.23.23,0,0,1,.08.17.23.23,0,0,1-.08.18.38.38,0,0,1-.24.06H195.4a.4.4,0,0,1-.25-.06.27.27,0,0,1-.07-.18.26.26,0,0,1,.07-.17.4.4,0,0,1,.25-.06H196Zm-10.1.62v2.11h.88a.35.35,0,0,1,.24.06.23.23,0,0,1,.08.17.23.23,0,0,1-.08.18.35.35,0,0,1-.24.06h-2a.4.4,0,0,1-.25-.06.27.27,0,0,1-.07-.18.26.26,0,0,1,.07-.17.4.4,0,0,1,.25-.06h.63v-5.67h-.63a.4.4,0,0,1-.25-.06.24.24,0,0,1,0-.34.34.34,0,0,1,.25-.07h2a.3.3,0,0,1,.24.07.22.22,0,0,1,0,.34.35.35,0,0,1-.24.06h-.88v2.93l3.27-2.93h-.51a.43.43,0,0,1-.26-.06.27.27,0,0,1,0-.34.37.37,0,0,1,.26-.07h1.39a.36.36,0,0,1,.25.07.24.24,0,0,1,0,.34.42.42,0,0,1-.25.06h-.19l-2.61,2.33a3.43,3.43,0,0,1,1,.6,4.07,4.07,0,0,1,.75,1c.13.25.38.82.75,1.73h.59a.44.44,0,0,1,.25.06.26.26,0,0,1,.07.17.27.27,0,0,1-.07.18.44.44,0,0,1-.25.06h-.92a9.76,9.76,0,0,0-1.25-2.61,2.65,2.65,0,0,0-1.28-.83Zm-6.43-.61H181a2.17,2.17,0,0,0,1-.22,1.71,1.71,0,0,0,.68-.57,1.32,1.32,0,0,0,.21-.7,1.34,1.34,0,0,0-.49-1,1.74,1.74,0,0,0-1.21-.45h-1.68Zm0,.48v2.24h1.63a.35.35,0,0,1,.23.06.2.2,0,0,1,.08.17.21.21,0,0,1-.08.18.35.35,0,0,1-.23.06h-2.75a.38.38,0,0,1-.24-.06.23.23,0,0,1-.08-.18.23.23,0,0,1,.08-.17.38.38,0,0,1,.24-.06H179v-5.67h-.64a.38.38,0,0,1-.24-.06.22.22,0,0,1,0-.34.33.33,0,0,1,.24-.07h2.76a2.21,2.21,0,0,1,1.59.58,1.75,1.75,0,0,1,.62,1.35,1.67,1.67,0,0,1-.2.83,1.7,1.7,0,0,1-.48.57,2.75,2.75,0,0,1-.88.46,2.59,2.59,0,0,1-.81.11Zm-12.62-4.47v6.71h1.62a.38.38,0,0,1,.24.06.23.23,0,0,1,.08.17.23.23,0,0,1-.08.18.38.38,0,0,1-.24.06h-3.73a.44.44,0,0,1-.25-.06.23.23,0,0,1-.07-.18.22.22,0,0,1,.07-.17.44.44,0,0,1,.25-.06h1.63v-6.05l-1.55.48-.17,0a.29.29,0,0,1-.16-.06.32.32,0,0,1-.06-.18.25.25,0,0,1,.05-.15.78.78,0,0,1,.19-.1Zm-6.95,0v6.71h1.63a.37.37,0,0,1,.23.06.23.23,0,0,1,.08.17.23.23,0,0,1-.08.18.37.37,0,0,1-.23.06h-3.74a.38.38,0,0,1-.24-.06.23.23,0,0,1-.08-.18.23.23,0,0,1,.08-.17.38.38,0,0,1,.24-.06h1.64v-6.05l-1.56.48-.16,0a.25.25,0,0,1-.16-.06.34.34,0,0,1-.07-.18.2.2,0,0,1,.06-.15.62.62,0,0,1,.19-.1Z" transform="translate(-122.67 -141.47)"/>
      <path d="M200.24,157.31v4.24h1a.21.21,0,0,1,.15,0,.12.12,0,0,1,.05.1.18.18,0,0,1-.05.12.21.21,0,0,1-.15,0h-2.35a.27.27,0,0,1-.17,0,.24.24,0,0,1,0-.12.15.15,0,0,1,0-.1.26.26,0,0,1,.17,0h1v-3.82l-1,.31-.1,0a.17.17,0,0,1-.11,0,.2.2,0,0,1,0-.11.19.19,0,0,1,0-.1l.12-.07Z" transform="translate(-122.67 -141.47)"/>
    </g>
    <path class="cls-12" d="M126.65,168.5c3.5-9.64-1.87-17.9-1.87-27" transform="translate(-122.67 -141.47)"/>
    <rect class="cls-3" x="100.67" y="2.42" width="179.67" height="42.14" rx="2"/>
    <text class="cls-13" transform="translate(132.53 16.15)">0</text>
    <path class="cls-14" d="M277.06,156.11c1.5.68,2.74-.57,4-.79.31.34,0,1.05.13,1.45.91.66,2.68.42,3.36,1.33-.4.31-.94-.2-1.65-.4-1.22-.34-2.55-.13-2.09-1.92-1.09.51-2.92,1.46-4.18.59a9,9,0,0,1-1.27.67c-.5,1.06-.92,2.21-1.33,3.37-.88-.31-.9-1.52-2-1.65a3.49,3.49,0,0,0-.32,1c.25.07.51-.73.89-.53,0,.51-.54.93-1,1.13-.53-.34-.12-1.09,0-1.66a6.46,6.46,0,0,1-4,1.26,3.56,3.56,0,0,1-1.83-.53c-1.15-.86-.84-3.11-.07-4.17a5,5,0,0,1,2.92-1.66,16.08,16.08,0,0,0,.82-2c.36,0,.45-.1.57-.46,1.88-.74,4-1.17,5.58-2.26-1.95.36-4.08,1-6.09,1.59a4.2,4.2,0,0,1-1.9.4c.08-.39.6-.44.89-.53l3.23-.93a12.59,12.59,0,0,1,4.44-.86c0,.69-.69.89-1.14,1.13-1.38.72-3.27,1.23-4.82,1.85a5.36,5.36,0,0,0,1.4,1.92,11.42,11.42,0,0,1,2.21.27c.76-.92,1.38-2.14,2.09-3.18.2-.28.46-.76.83-.73-.12.77-.77,1.33-1.21,2s-.8,1.38-1.2,2.05c.47.33,1.23.35,1.39,1-.57.13-1-.49-1.52-.59a17.13,17.13,0,0,0-1.83,3.57,13.38,13.38,0,0,0,2.72-1.06,6.55,6.55,0,0,0,.95-2.51,6.39,6.39,0,0,1,2.66-4.37,3.28,3.28,0,0,1,.38-.8c.25-.05.23.16.38.2a9.6,9.6,0,0,1,5.83-1.39c.39,0,1.27.14,1.26.66,0,.84-1.35,1.81-2,2.32A74.3,74.3,0,0,1,277.06,156.11Zm6.65-7.75c-1.73.15-3.83.71-4.75,1.79a16,16,0,0,0-1.26,2.45c-.48.88-1.64,2.26-1,3.25a68.76,68.76,0,0,0,7.48-5.1,5.69,5.69,0,0,0,2-2.25A5.43,5.43,0,0,0,283.71,148.36Zm-7.15,5.56c.38-1,1.13-1.94,1.39-2.84A5.41,5.41,0,0,0,276.56,153.92Zm-7.42-.39c.57-.12,1.31-.06,1.84-.2a10.57,10.57,0,0,1-1.2-1.52C269.62,152.43,269.34,152.94,269.14,153.53Zm-.12.39a7.91,7.91,0,0,0-.51,1.66c-.14.54-.17,1.29-.63,1.52-.16-.9.41-2.11.63-3a3.59,3.59,0,0,0-3.1,3.57c0,1.43,1.1,1.94,2.59,1.92,3.17,0,5.48-2.86,3.36-5.69A11.07,11.07,0,0,0,269,153.92Zm3.61,2.39c.34-.75.71-1.47,1.08-2.19a12.94,12.94,0,0,0-1.84-.26A6.92,6.92,0,0,1,272.63,156.31Zm3.1.06a2.48,2.48,0,0,0,.57-.26c0-.2,0-.47-.19-.53C276,155.87,275.84,156.09,275.73,156.37Zm-3.48,2.06c.85.15,1.14.88,1.65,1.39a6.8,6.8,0,0,1,.88-2.32c0-.08,0-.16-.12-.13C274,157.87,273,158,272.25,158.43Z" transform="translate(-122.67 -141.47)"/>
    <g>
      <path class="cls-4" d="M304.29,159.65,297.87,153a4.19,4.19,0,0,0-6.7-4.75.94.94,0,0,0-.1.1l-.11.1a4.19,4.19,0,0,0,4.21,7l.54.55a.9.9,0,0,1,1.16.19.89.89,0,0,1,.15,1.16l.59.61a1,1,0,0,1,1.31,1.35l.59.61a1,1,0,0,1,1.32,1.35l.41.42,3.29-.17.21-.2Z" transform="translate(-122.67 -141.47)"/>
      <path class="cls-5" d="M304.74,161.32l-7.08-8.08a4.14,4.14,0,1,0-2.49,2.21l.54.55a.9.9,0,0,1,1.16.19.89.89,0,0,1,.15,1.16l.59.61a1,1,0,0,1,1.31,1.35l.59.61a1,1,0,0,1,1.32,1.35l.41.42,3.29-.17Z" transform="translate(-122.67 -141.47)"/>
      <path class="cls-15" d="M304.29,159.65,297.87,153a4.14,4.14,0,1,0-2.49,2.21l.54.55a1,1,0,0,1,1.31,1.35l.59.61A.9.9,0,0,1,299,158a.89.89,0,0,1,.15,1.16l.59.61a1,1,0,0,1,1.31,1.35l.41.42,3.3-.17Z" transform="translate(-122.67 -141.47)"/>
      <path class="cls-16" d="M291.35,153.94a3.8,3.8,0,1,1,6.21-1l-.09.21,6.52,6.71.32,1.18-2.73.15-.13-.13a1.36,1.36,0,0,0-1.66-1.71l-.25-.25a1.35,1.35,0,0,0-1.65-1.71l-.25-.25a1.35,1.35,0,0,0-1.65-1.71l-.51-.52-.2.06A3.85,3.85,0,0,1,291.35,153.94Z" transform="translate(-122.67 -141.47)"/>
      <path class="cls-8" d="M296.38,153.66a3.3,3.3,0,1,1,.07-4.67A3.3,3.3,0,0,1,296.38,153.66Z" transform="translate(-122.67 -141.47)"/>
      <text class="cls-9" transform="translate(168.19 8.39) rotate(45.85)">Pub</text>
    </g>
    <line class="cls-10" x1="189" y1="2.56" x2="189" y2="44.54"/>
    <rect class="cls-11" x="100.67" y="2.42" width="179.67" height="42.14" rx="2"/>
    <g>
      <path class="cls-17" d="M406.83,156.83c8.23,0,16.37-8.5,21.5-8.5" transform="translate(-122.67 -141.47)"/>
      <polygon points="284.71 17.22 281.48 15.35 284.71 13.48 284.71 17.22"/>
    </g>
    <g>
      <path class="cls-17" d="M261.32,277.17c8.23,0,19.5-9.5,28.84-9.5" transform="translate(-122.67 -141.47)"/>
      <polygon points="139.2 137.56 135.97 135.69 139.2 133.82 139.2 137.56"/>
    </g>
    <path d="M210.7,152.61c1-.29,1.57-.55,2.33-.85v2.9a22.94,22.94,0,0,0-2.32-.87,17.55,17.55,0,0,0-2.54-.6A17,17,0,0,0,210.7,152.61Z" transform="translate(-122.67 -141.47)"/>
    <line class="cls-18" x1="89.54" y1="11.67" x2="105.31" y2="11.67"/>
    <g>
      <path class="cls-19" d="M228.57,154.34l-1.7-1.91a11.08,11.08,0,0,1,7.34.37,6.51,6.51,0,0,0,3.74.47,3.91,3.91,0,0,0,2.43-1.44c.72-.8,1.55-1.71,4.32-2l1.35,2c-2.2.22-2.78.85-3.45,1.59a5,5,0,0,1-3.08,1.8,9.46,9.46,0,0,1-5.15-.6A8.44,8.44,0,0,0,228.57,154.34Z" transform="translate(-122.67 -141.47)"/>
      <path class="cls-19" d="M231.9,156.16l-1.7-1.91a11.09,11.09,0,0,1,7.34.36,6.49,6.49,0,0,0,3.73.48,3.87,3.87,0,0,0,2.43-1.45c.73-.8,1.55-1.7,4.33-2l1.35,2c-2.2.21-2.78.85-3.45,1.59a5,5,0,0,1-3.09,1.8,9.58,9.58,0,0,1-5.15-.6A8.35,8.35,0,0,0,231.9,156.16Z" transform="translate(-122.67 -141.47)"/>
      <path class="cls-19" d="M231.16,158.18l-1.7-1.91a11.09,11.09,0,0,1,7.34.37,6.6,6.6,0,0,0,3.74.48,3.84,3.84,0,0,0,2.42-1.45c.73-.8,1.55-1.7,4.33-2l1.35,2c-2.2.21-2.78.85-3.45,1.59a5,5,0,0,1-3.08,1.79,9.36,9.36,0,0,1-5.15-.6A8.44,8.44,0,0,0,231.16,158.18Z" transform="translate(-122.67 -141.47)"/>
      <path class="cls-19" d="M234.54,160l-1.7-1.91a11.08,11.08,0,0,1,7.34.37,6.51,6.51,0,0,0,3.74.47,3.89,3.89,0,0,0,2.43-1.44c.72-.8,1.55-1.71,4.32-2l1.35,2a4.32,4.32,0,0,0-3.45,1.58,5,5,0,0,1-3.08,1.8,9.46,9.46,0,0,1-5.15-.6A8.44,8.44,0,0,0,234.54,160Z" transform="translate(-122.67 -141.47)"/>
      <path class="cls-19" d="M229.09,152.25l-1.7-1.91a11.09,11.09,0,0,1,7.34.37,6.51,6.51,0,0,0,3.74.47,4,4,0,0,0,2.43-1.44c.72-.8,1.55-1.71,4.32-2l1.35,2a4.32,4.32,0,0,0-3.45,1.58,5,5,0,0,1-3.08,1.8,9.46,9.46,0,0,1-5.15-.6A8.44,8.44,0,0,0,229.09,152.25Z" transform="translate(-122.67 -141.47)"/>
      <polygon points="106.53 9.08 108.86 8.87 109.87 9.41 108.35 9.31 106.53 9.08"/>
      <polygon points="112.47 10.26 114.95 11.19 116.56 10.69 114.52 10.42 112.47 10.26"/>
      <polygon points="113.45 13.24 111.7 13.15 110.99 13.64 112.76 13.46 115.03 14.36 116.45 14.34 114.49 13.58 113.45 13.24"/>
      <path d="M246.4,154.52c-.44,0-1.57.3-1.57.3l-.87,1.42,1.22-.86,1.9-.27Z" transform="translate(-122.67 -141.47)"/>
      <polygon points="124.64 16.53 123.83 17.55 122 18.13 123.03 18.56 124.54 17.95 124.64 16.53"/>
      <polygon points="116.97 17.47 115.19 16.93 113.83 17.27 115.45 17.38 116.97 17.47"/>
      <polygon points="111.07 15.28 110.06 15.45 111.47 15.53 111.07 15.28"/>
      <polygon class="cls-20" points="119.29 9.2 118.03 9.55 116.56 10.69 118.59 10.24 119.29 9.2"/>
      <polygon class="cls-20" points="120.89 15.33 119.24 16.14 119.06 16.62 120.64 16.21 120.89 15.33"/>
      <polygon class="cls-20" points="127.95 14.82 126.1 15.5 125.97 16.4 127.5 15.68 127.95 14.82"/>
      <polygon class="cls-20" points="109.95 14.72 108.7 15.79 108.25 15.12 109.95 14.72"/>
      <polygon class="cls-21" points="117.5 12.44 115.23 12.25 116.46 12.81 117.5 12.44"/>
      <path class="cls-21" d="M242.39,159.5l-2.12-.47s1.1.75,1.4.89a15.56,15.56,0,0,0,2.14.28Z" transform="translate(-122.67 -141.47)"/>
      <polygon class="cls-21" points="110.69 12.68 108.83 12.74 109.55 13.75 110.69 12.68"/>
      <path class="cls-21" d="M244.55,148.66l-2.1.86s-.83,1.21-.49,1.15a11.71,11.71,0,0,0,1.78-1Z" transform="translate(-122.67 -141.47)"/>
    </g>
    <path d="M205.53,318a2.84,2.84,0,0,0,.67,1.46,1.54,1.54,0,0,0,1.08.43,1.38,1.38,0,0,0,1.06-.49,1.83,1.83,0,0,0,.44-1.27,1.75,1.75,0,0,0-.44-1.21,1.37,1.37,0,0,0-1-.47,1.54,1.54,0,0,0-1,.45A4.6,4.6,0,0,0,205.53,318Zm-.1-.77a3.24,3.24,0,0,1,.89-.94,1.78,1.78,0,0,1,1-.31,1.73,1.73,0,0,1,1.32.63,2.12,2.12,0,0,1,.58,1.52,2.46,2.46,0,0,1-.52,1.53,1.72,1.72,0,0,1-1.46.7,1.92,1.92,0,0,1-1.13-.38,2.46,2.46,0,0,1-.83-1.14,5.9,5.9,0,0,1-.37-2.14,3.85,3.85,0,0,1,.35-1.63,3.57,3.57,0,0,1,.71-1,3.82,3.82,0,0,1,1-.73,3.08,3.08,0,0,1,1.29-.28,1.49,1.49,0,0,1,.77.19.27.27,0,0,1,.14.23.22.22,0,0,1-.07.16.2.2,0,0,1-.15.06.32.32,0,0,1-.17-.06,1.41,1.41,0,0,0-.57-.11,2.66,2.66,0,0,0-2,.94,3.11,3.11,0,0,0-.89,2.22Q205.4,316.85,205.43,317.24ZM198,319.73h3.59v-.18a.38.38,0,0,1,.06-.24.25.25,0,0,1,.18-.08.21.21,0,0,1,.16.08.33.33,0,0,1,.08.24v.65h-4.52v-.7c.95-.85,1.87-1.71,2.76-2.6q.63-.61.87-.9a2.16,2.16,0,0,0,.31-.51,1,1,0,0,0,.1-.45,1.44,1.44,0,0,0-.49-1.06,1.62,1.62,0,0,0-1.17-.47,1.76,1.76,0,0,0-1.09.36,1.56,1.56,0,0,0-.61.87.27.27,0,0,1-.08.17.25.25,0,0,1-.31,0,.18.18,0,0,1-.07-.15A1.51,1.51,0,0,1,198,314a2,2,0,0,1,.81-.72,2.26,2.26,0,0,1,1.06-.27,2.11,2.11,0,0,1,1.5.61A1.85,1.85,0,0,1,202,315a1.64,1.64,0,0,1-.11.6,2.17,2.17,0,0,1-.36.59,12.24,12.24,0,0,1-.91,1c-1.09,1.08-2,1.92-2.68,2.52Zm-6.85,0h3.6v-.18a.38.38,0,0,1,.06-.24.23.23,0,0,1,.18-.08.21.21,0,0,1,.16.08.33.33,0,0,1,.07.24v.65h-4.51v-.7c.94-.85,1.87-1.71,2.76-2.6a11.44,11.44,0,0,0,.86-.9,2,2,0,0,0,.32-.51,1,1,0,0,0,.1-.45,1.44,1.44,0,0,0-.49-1.06,1.66,1.66,0,0,0-1.17-.47,1.76,1.76,0,0,0-1.09.36,1.56,1.56,0,0,0-.61.87.33.33,0,0,1-.08.17.24.24,0,0,1-.16,0,.2.2,0,0,1-.15-.06.18.18,0,0,1-.07-.15,1.51,1.51,0,0,1,.29-.72,1.89,1.89,0,0,1,.81-.72,2.23,2.23,0,0,1,1.06-.27,2.11,2.11,0,0,1,1.5.61,1.85,1.85,0,0,1,.63,1.37,1.64,1.64,0,0,1-.11.6,2.46,2.46,0,0,1-.36.59c-.17.21-.48.54-.91,1-1.1,1.08-2,1.92-2.69,2.52Z" transform="translate(-122.67 -141.47)"/>
    <path d="M391.09,154.41h-3.15v2.72h.64a.31.31,0,0,1,.24.07.24.24,0,0,1,0,.34.36.36,0,0,1-.24.07h-1.65a.38.38,0,0,1-.24-.07.24.24,0,0,1,0-.34.33.33,0,0,1,.24-.07h.54v-5.66h-.29a.38.38,0,0,1-.25-.06.22.22,0,0,1,0-.34.33.33,0,0,1,.25-.07h1.4a.31.31,0,0,1,.24.07.24.24,0,0,1,0,.34.37.37,0,0,1-.24.06h-.64v2.47h3.15v-2.47h-.63a.4.4,0,0,1-.25-.06.24.24,0,0,1,0-.34.34.34,0,0,1,.25-.07h1.4a.33.33,0,0,1,.25.07.22.22,0,0,1,0,.34.38.38,0,0,1-.25.06h-.29v5.66h.54a.33.33,0,0,1,.24.07.22.22,0,0,1,0,.34.38.38,0,0,1-.24.07h-1.65a.39.39,0,0,1-.25-.07.24.24,0,0,1,0-.34.34.34,0,0,1,.25-.07h.63ZM381,155v2.11h.88a.34.34,0,0,1,.25.07.22.22,0,0,1,0,.34.39.39,0,0,1-.25.07h-2a.38.38,0,0,1-.24-.07.24.24,0,0,1,0-.34.33.33,0,0,1,.24-.07h.65v-5.66h-.65a.38.38,0,0,1-.24-.06.24.24,0,0,1,0-.34.33.33,0,0,1,.24-.07h2a.34.34,0,0,1,.25.07.22.22,0,0,1,0,.34.4.4,0,0,1-.25.06H381v2.92l3.28-2.92h-.52a.42.42,0,0,1-.25-.06.24.24,0,0,1,0-.34.36.36,0,0,1,.25-.07h1.39a.33.33,0,0,1,.25.07.22.22,0,0,1,0,.34.38.38,0,0,1-.25.06H385l-2.6,2.33a3.27,3.27,0,0,1,1,.6,3.88,3.88,0,0,1,.74,1,18.69,18.69,0,0,1,.75,1.72h.59a.34.34,0,0,1,.25.07.24.24,0,0,1,0,.34.39.39,0,0,1-.25.07h-.91a9.8,9.8,0,0,0-1.26-2.62,2.69,2.69,0,0,0-1.27-.83Zm-6.41-.6h1.5a2.14,2.14,0,0,0,1-.23,1.57,1.57,0,0,0,.68-.57,1.32,1.32,0,0,0,.21-.7,1.36,1.36,0,0,0-.48-1,1.74,1.74,0,0,0-1.22-.45h-1.67Zm0,.47v2.24h1.61a.34.34,0,0,1,.25.07.22.22,0,0,1,0,.34.39.39,0,0,1-.25.07h-2.73a.41.41,0,0,1-.25-.07.22.22,0,0,1,0-.34.36.36,0,0,1,.25-.07h.63v-5.66h-.63a.42.42,0,0,1-.25-.06.22.22,0,0,1,0-.34.36.36,0,0,1,.25-.07h2.74a2.2,2.2,0,0,1,1.6.58,1.74,1.74,0,0,1,.63,1.34,1.63,1.63,0,0,1-.21.83,1.6,1.6,0,0,1-.48.57,2.79,2.79,0,0,1-.88.47,2.63,2.63,0,0,1-.81.1Zm-11.16-1.35a3.9,3.9,0,0,0-.19-1.25,3.3,3.3,0,0,0-.42-.92,1.11,1.11,0,0,0-.37-.34,1.26,1.26,0,0,0-.71-.21,1.43,1.43,0,0,0-1.27.82,4,4,0,0,0-.44,1.9v1a3.86,3.86,0,0,0,.19,1.25,3.3,3.3,0,0,0,.44.94,1,1,0,0,0,.35.33,1.38,1.38,0,0,0,2-.61,3.93,3.93,0,0,0,.45-1.91Zm.48-.06v1.17a3.68,3.68,0,0,1-.73,2.42,1.77,1.77,0,0,1-1.43.7,1.86,1.86,0,0,1-.79-.16,1.78,1.78,0,0,1-.64-.47,3,3,0,0,1-.35-.59,4.51,4.51,0,0,1-.28-.76,4.67,4.67,0,0,1-.14-1.14v-1.17a3.7,3.7,0,0,1,.74-2.42,1.78,1.78,0,0,1,1.44-.71,1.85,1.85,0,0,1,.78.17,1.74,1.74,0,0,1,.63.47,2.67,2.67,0,0,1,.36.6,4.23,4.23,0,0,1,.29.75A4.75,4.75,0,0,1,363.91,153.48ZM355,150.42v6.71h1.63a.32.32,0,0,1,.23.07.24.24,0,0,1,0,.34.37.37,0,0,1-.23.07h-3.73a.39.39,0,0,1-.25-.07.21.21,0,0,1,0-.34.34.34,0,0,1,.25-.07h1.61v-6l-1.54.48-.16,0a.21.21,0,0,1-.16-.07.25.25,0,0,1-.08-.17.18.18,0,0,1,.07-.15.54.54,0,0,1,.19-.1Z" transform="translate(-122.67 -141.47)"/>
    <path d="M394.17,161.56h1.51a1,1,0,0,0,.5-.12,1,1,0,0,0,.33-.32.77.77,0,0,0,.11-.4.72.72,0,0,0-.16-.44A.92.92,0,0,0,396,160a2.29,2.29,0,0,0-.77-.11h-1.08Zm0-2h1.06a1.48,1.48,0,0,0,.61-.13.72.72,0,0,0,.35-.29.65.65,0,0,0-.15-.9,1,1,0,0,0-.69-.23h-1.18Zm-.3,2V158h-.4a.22.22,0,0,1-.16,0,.16.16,0,0,1,0-.12.11.11,0,0,1,0-.1.22.22,0,0,1,.16-.05h1.88a1.27,1.27,0,0,1,.91.32,1,1,0,0,1,.34.76,1,1,0,0,1-.57.89,1.37,1.37,0,0,1,.67.45.94.94,0,0,1,.22.61,1.09,1.09,0,0,1-.14.54,1.3,1.3,0,0,1-.44.43,1.17,1.17,0,0,1-.64.18h-2.23a.28.28,0,0,1-.16,0,.19.19,0,0,1,0-.12.12.12,0,0,1,0-.1.22.22,0,0,1,.16-.05Z" transform="translate(-122.67 -141.47)"/>
    <path d="M391.09,173.3h-3.15V176h.64a.38.38,0,0,1,.24.06.22.22,0,0,1,.07.17.21.21,0,0,1-.07.17.33.33,0,0,1-.24.07h-1.65a.33.33,0,0,1-.24-.07.21.21,0,0,1-.07-.17.22.22,0,0,1,.07-.17.38.38,0,0,1,.24-.06h.54v-5.66h-.3a.42.42,0,0,1-.25-.06.23.23,0,0,1-.07-.18.21.21,0,0,1,.07-.17.36.36,0,0,1,.25-.07h1.41a.33.33,0,0,1,.24.07.21.21,0,0,1,.07.17.23.23,0,0,1-.07.18.38.38,0,0,1-.24.06h-.64v2.46h3.15v-2.46h-.63a.4.4,0,0,1-.25-.06.23.23,0,0,1-.07-.18.21.21,0,0,1,.07-.17.34.34,0,0,1,.25-.07h1.4a.34.34,0,0,1,.25.07.21.21,0,0,1,.08.17.23.23,0,0,1-.08.18.4.4,0,0,1-.25.06h-.29V176h.54a.38.38,0,0,1,.24.06.22.22,0,0,1,.07.17.21.21,0,0,1-.07.17.33.33,0,0,1-.24.07h-1.65a.34.34,0,0,1-.25-.07.21.21,0,0,1-.07-.17.22.22,0,0,1,.07-.17.4.4,0,0,1,.25-.06h.63Zm-10.09.61V176h.88a.35.35,0,0,1,.24.06.21.21,0,0,1,.09.17.2.2,0,0,1-.09.17.3.3,0,0,1-.24.07h-2a.33.33,0,0,1-.24-.07.21.21,0,0,1-.07-.17.22.22,0,0,1,.07-.17.38.38,0,0,1,.24-.06h.64v-5.66h-.64a.38.38,0,0,1-.24-.06.23.23,0,0,1-.07-.18.21.21,0,0,1,.07-.17.33.33,0,0,1,.24-.07h2a.3.3,0,0,1,.24.07.2.2,0,0,1,.09.17.21.21,0,0,1-.09.18.35.35,0,0,1-.24.06H381v2.92l3.28-2.92h-.52a.4.4,0,0,1-.25-.06.27.27,0,0,1-.07-.18.24.24,0,0,1,.07-.17.34.34,0,0,1,.25-.07h1.39a.34.34,0,0,1,.25.07.21.21,0,0,1,.08.17.23.23,0,0,1-.08.18.4.4,0,0,1-.25.06H385l-2.6,2.33a3.25,3.25,0,0,1,1,.59,3.82,3.82,0,0,1,.73,1,15.06,15.06,0,0,1,.76,1.73h.59a.42.42,0,0,1,.25.06.22.22,0,0,1,.07.17.21.21,0,0,1-.07.17.36.36,0,0,1-.25.07h-.91a10,10,0,0,0-1.26-2.62,2.7,2.7,0,0,0-1.28-.82Zm-6.42-.6h1.51a2.14,2.14,0,0,0,1-.22,1.64,1.64,0,0,0,.68-.57,1.41,1.41,0,0,0,.2-.7,1.39,1.39,0,0,0-.47-1,1.77,1.77,0,0,0-1.22-.44h-1.68Zm0,.48V176h1.62a.42.42,0,0,1,.25.06.22.22,0,0,1,.07.17.21.21,0,0,1-.07.17.36.36,0,0,1-.25.07h-2.73a.36.36,0,0,1-.25-.07.21.21,0,0,1-.08-.17.23.23,0,0,1,.08-.17.42.42,0,0,1,.25-.06h.63v-5.66h-.63a.42.42,0,0,1-.25-.06.23.23,0,0,1-.08-.18.21.21,0,0,1,.08-.17.36.36,0,0,1,.25-.07h2.74a2.24,2.24,0,0,1,1.6.58,1.8,1.8,0,0,1,.63,1.35,1.65,1.65,0,0,1-.21.83,1.82,1.82,0,0,1-.48.57,3.13,3.13,0,0,1-.88.47,2.63,2.63,0,0,1-.81.1Zm-11-2.09a3.52,3.52,0,0,0-.75-1.56,1.44,1.44,0,0,0-1-.42,1.35,1.35,0,0,0-1.06.52,2,2,0,0,0,0,2.58,1.33,1.33,0,0,0,1,.5,1.3,1.3,0,0,0,.65-.18,1.83,1.83,0,0,0,.62-.54A8.51,8.51,0,0,0,363.59,171.7Zm.08.79a2.91,2.91,0,0,1-.86,1,2,2,0,0,1-1,.32,1.87,1.87,0,0,1-1-.28,2,2,0,0,1-.73-.83,2.58,2.58,0,0,1-.27-1.14,2.55,2.55,0,0,1,.54-1.59,1.72,1.72,0,0,1,1.45-.71,1.88,1.88,0,0,1,1.17.4,2.6,2.6,0,0,1,.83,1.15,6.38,6.38,0,0,1,.37,2.28,3.74,3.74,0,0,1-.32,1.67,3.33,3.33,0,0,1-.64.88,3.54,3.54,0,0,1-.93.68,3.16,3.16,0,0,1-1.47.36,1.55,1.55,0,0,1-.83-.19.27.27,0,0,1-.15-.23.26.26,0,0,1,.07-.16.23.23,0,0,1,.16-.06.45.45,0,0,1,.19.06,1.24,1.24,0,0,0,.52.11,2.83,2.83,0,0,0,2.07-.87,3,3,0,0,0,.86-2.18Q363.7,172.93,363.67,172.49Zm-7-.79a3.62,3.62,0,0,0-.76-1.56,1.46,1.46,0,0,0-1-.42,1.35,1.35,0,0,0-1.06.52,2,2,0,0,0,0,2.58,1.33,1.33,0,0,0,1,.5,1.3,1.3,0,0,0,.64-.18,2,2,0,0,0,.63-.54Q356.29,172.36,356.66,171.7Zm.08.79a3,3,0,0,1-.87,1,1.94,1.94,0,0,1-1,.32,1.85,1.85,0,0,1-1-.28,2,2,0,0,1-.74-.83,2.57,2.57,0,0,1-.26-1.14,2.6,2.6,0,0,1,.53-1.59,1.74,1.74,0,0,1,1.46-.71,1.88,1.88,0,0,1,1.16.4,2.53,2.53,0,0,1,.83,1.15,6.37,6.37,0,0,1,.38,2.28,3.2,3.2,0,0,1-1,2.55,3.77,3.77,0,0,1-.94.68,3.15,3.15,0,0,1-1.46.36,1.5,1.5,0,0,1-.83-.19.27.27,0,0,1-.15-.23.25.25,0,0,1,.06-.16.23.23,0,0,1,.16-.06.49.49,0,0,1,.2.06,1.14,1.14,0,0,0,.52.11,2.82,2.82,0,0,0,2.06-.87,3,3,0,0,0,.87-2.18Q356.77,172.93,356.74,172.49Zm-7-.79a3.41,3.41,0,0,0-.75-1.56,1.46,1.46,0,0,0-1-.42,1.35,1.35,0,0,0-1.07.52,2,2,0,0,0,0,2.58,1.33,1.33,0,0,0,1,.5,1.27,1.27,0,0,0,.64-.18,1.86,1.86,0,0,0,.63-.54A9,9,0,0,0,349.71,171.7Zm.09.79a2.93,2.93,0,0,1-.87,1,1.94,1.94,0,0,1-1,.32,1.85,1.85,0,0,1-1-.28,2,2,0,0,1-.74-.83,2.71,2.71,0,0,1-.26-1.14,2.6,2.6,0,0,1,.53-1.59,1.74,1.74,0,0,1,1.46-.71,1.88,1.88,0,0,1,1.16.4,2.6,2.6,0,0,1,.83,1.15,6.37,6.37,0,0,1,.38,2.28,3.88,3.88,0,0,1-.32,1.67,3.57,3.57,0,0,1-.64.88,3.71,3.71,0,0,1-.93.68,3.19,3.19,0,0,1-1.47.36,1.52,1.52,0,0,1-.83-.19.27.27,0,0,1-.15-.23.21.21,0,0,1,.22-.22.49.49,0,0,1,.2.06,1.14,1.14,0,0,0,.52.11,2.82,2.82,0,0,0,2.06-.87,3,3,0,0,0,.87-2.18Q349.83,172.93,349.8,172.49Zm-7-.79a3.31,3.31,0,0,0-.75-1.56,1.42,1.42,0,0,0-1-.42,1.37,1.37,0,0,0-1.07.52,2,2,0,0,0,0,2.58,1.36,1.36,0,0,0,1,.5,1.3,1.3,0,0,0,.65-.18,2,2,0,0,0,.62-.54A9,9,0,0,0,342.77,171.7Zm.09.79a3,3,0,0,1-.86,1,2,2,0,0,1-1,.32,1.87,1.87,0,0,1-1-.28,2,2,0,0,1-.73-.83,2.58,2.58,0,0,1-.27-1.14,2.55,2.55,0,0,1,.54-1.59,1.71,1.71,0,0,1,1.45-.71,1.9,1.9,0,0,1,1.17.4,2.58,2.58,0,0,1,.82,1.15,6.16,6.16,0,0,1,.38,2.28,3.2,3.2,0,0,1-1,2.55,3.71,3.71,0,0,1-.93.68,3.19,3.19,0,0,1-1.47.36,1.55,1.55,0,0,1-.83-.19.27.27,0,0,1-.15-.23.22.22,0,0,1,.23-.22.45.45,0,0,1,.19.06,1.21,1.21,0,0,0,.52.11,2.82,2.82,0,0,0,2.06-.87,3,3,0,0,0,.87-2.18Q342.89,172.93,342.86,172.49Zm-7-.79a3.31,3.31,0,0,0-.75-1.56,1.42,1.42,0,0,0-1-.42,1.38,1.38,0,0,0-1.07.52,2,2,0,0,0,0,2.58,1.36,1.36,0,0,0,1,.5,1.3,1.3,0,0,0,.65-.18,1.93,1.93,0,0,0,.62-.54A7.35,7.35,0,0,0,335.83,171.7Zm.09.79a2.83,2.83,0,0,1-.87,1,1.94,1.94,0,0,1-1,.32,1.87,1.87,0,0,1-1-.28,2,2,0,0,1-.73-.83,2.58,2.58,0,0,1-.27-1.14,2.55,2.55,0,0,1,.54-1.59,1.71,1.71,0,0,1,1.45-.71,1.9,1.9,0,0,1,1.17.4,2.58,2.58,0,0,1,.82,1.15,6.16,6.16,0,0,1,.38,2.28,3.74,3.74,0,0,1-.32,1.67,3.57,3.57,0,0,1-.64.88,3.71,3.71,0,0,1-.93.68,3.19,3.19,0,0,1-1.47.36,1.55,1.55,0,0,1-.83-.19.27.27,0,0,1-.15-.23.21.21,0,0,1,.07-.16.23.23,0,0,1,.16-.06.45.45,0,0,1,.19.06,1.21,1.21,0,0,0,.52.11,2.79,2.79,0,0,0,2.06-.87,3,3,0,0,0,.87-2.18Q336,172.93,335.92,172.49Zm-9,2.65h.22a.7.7,0,0,1,.54.23.69.69,0,0,1,.22.53.75.75,0,0,1-.76.77h-.22a.71.71,0,0,1-.53-.22.73.73,0,0,1-.22-.54.71.71,0,0,1,.23-.55A.7.7,0,0,1,326.93,175.14Zm-5.13-2.71a3.84,3.84,0,0,0-.19-1.24,3.38,3.38,0,0,0-.42-.93,1.51,1.51,0,0,0-.37-.34,1.34,1.34,0,0,0-.72-.2,1.38,1.38,0,0,0-1.25.82,3.83,3.83,0,0,0-.45,1.89v1a3.9,3.9,0,0,0,.19,1.25,3.69,3.69,0,0,0,.43.93,1.31,1.31,0,0,0,.36.34,1.4,1.4,0,0,0,.73.2,1.36,1.36,0,0,0,1.24-.82,3.9,3.9,0,0,0,.45-1.9Zm.48-.06v1.17a3.78,3.78,0,0,1-.73,2.43,1.77,1.77,0,0,1-1.44.7,1.93,1.93,0,0,1-.79-.17,1.8,1.8,0,0,1-.62-.46,2.92,2.92,0,0,1-.37-.59,4.47,4.47,0,0,1-.27-.77,4.23,4.23,0,0,1-.14-1.14v-1.17a3.66,3.66,0,0,1,.74-2.42,1.77,1.77,0,0,1,1.43-.7,1.82,1.82,0,0,1,1.42.63,2.54,2.54,0,0,1,.36.6,5.67,5.67,0,0,1,.29.75A4.81,4.81,0,0,1,322.28,172.37Z" transform="translate(-122.67 -141.47)"/>
    <path d="M393.85,180.46h2.31v-.12a.21.21,0,0,1,0-.15.16.16,0,0,1,.11-.05.12.12,0,0,1,.1.05.21.21,0,0,1,0,.15v.42h-2.9v-.45c.61-.54,1.2-1.1,1.78-1.66.26-.27.45-.46.55-.58a1.25,1.25,0,0,0,.2-.33.71.71,0,0,0,.06-.28,1,1,0,0,0-.32-.69,1,1,0,0,0-.74-.29,1.12,1.12,0,0,0-.69.23,1,1,0,0,0-.39.55.27.27,0,0,1-.06.11.17.17,0,0,1-.1,0,.12.12,0,0,1-.1,0,.1.1,0,0,1,0-.09,1,1,0,0,1,.18-.47,1.34,1.34,0,0,1,.52-.45,1.4,1.4,0,0,1,.68-.17,1.28,1.28,0,0,1,1,.39,1.18,1.18,0,0,1,.4.88,1.21,1.21,0,0,1-.06.38,1.6,1.6,0,0,1-.23.38,7.29,7.29,0,0,1-.59.61c-.7.7-1.27,1.24-1.72,1.62Z" transform="translate(-122.67 -141.47)"/>
    <path d="M219.85,247.11v6.62h1.6a.4.4,0,0,1,.24.06.26.26,0,0,1,.07.17.24.24,0,0,1-.07.17.4.4,0,0,1-.24.06h-3.67a.4.4,0,0,1-.25-.06.21.21,0,0,1-.07-.17.22.22,0,0,1,.07-.17.4.4,0,0,1,.25-.06h1.6v-6l-1.53.48-.16,0a.23.23,0,0,1-.16-.07.25.25,0,0,1-.06-.16.24.24,0,0,1,.05-.16.56.56,0,0,1,.19-.09Zm-6.84,0v6.62h1.6a.4.4,0,0,1,.24.06.26.26,0,0,1,.07.17.24.24,0,0,1-.07.17.4.4,0,0,1-.24.06h-3.67a.4.4,0,0,1-.25-.06.21.21,0,0,1-.07-.17.22.22,0,0,1,.07-.17.4.4,0,0,1,.25-.06h1.6v-6l-1.53.48-.16,0a.21.21,0,0,1-.16-.07.26.26,0,0,1-.07-.16.25.25,0,0,1,.06-.16.56.56,0,0,1,.19-.09Z" transform="translate(-122.67 -141.47)"/>
    <path d="M248.81,261.13a3.38,3.38,0,0,0-.74-1.54,1.45,1.45,0,0,0-1-.41,1.36,1.36,0,0,0-1.05.51,2,2,0,0,0,0,2.55,1.34,1.34,0,0,0,1,.49,1.36,1.36,0,0,0,.64-.17,2,2,0,0,0,.61-.54A7.85,7.85,0,0,0,248.81,261.13Zm.08.78a2.72,2.72,0,0,1-.85,1,1.8,1.8,0,0,1-1,.32,1.77,1.77,0,0,1-1-.28,2,2,0,0,1-.72-.82,2.57,2.57,0,0,1,.27-2.69,1.73,1.73,0,0,1,1.43-.7,1.88,1.88,0,0,1,1.15.39,2.64,2.64,0,0,1,.82,1.15,6.15,6.15,0,0,1,.37,2.24,3.82,3.82,0,0,1-.32,1.65,3.2,3.2,0,0,1-.63.86,3.43,3.43,0,0,1-.92.68,3.2,3.2,0,0,1-1.45.35,1.57,1.57,0,0,1-.81-.18.26.26,0,0,1-.15-.23.21.21,0,0,1,.22-.22.49.49,0,0,1,.2.06,1.12,1.12,0,0,0,.5.1,2.78,2.78,0,0,0,2-.85,2.9,2.9,0,0,0,.85-2.15C248.92,262.41,248.91,262.2,248.89,261.91Zm-6.92-.78a3.38,3.38,0,0,0-.74-1.54,1.45,1.45,0,0,0-1-.41,1.36,1.36,0,0,0-1.05.51,2,2,0,0,0,0,2.55,1.36,1.36,0,0,0,1,.49,1.39,1.39,0,0,0,.64-.17,2,2,0,0,0,.61-.54A7.85,7.85,0,0,0,242,261.13Zm.08.78a2.72,2.72,0,0,1-.85,1,1.8,1.8,0,0,1-1,.32,1.77,1.77,0,0,1-1-.28,2,2,0,0,1-.72-.82,2.43,2.43,0,0,1-.27-1.12,2.51,2.51,0,0,1,.54-1.57,1.71,1.71,0,0,1,1.42-.7,1.91,1.91,0,0,1,1.16.39,2.55,2.55,0,0,1,.81,1.15,6.15,6.15,0,0,1,.38,2.24,3.82,3.82,0,0,1-.32,1.65,3.2,3.2,0,0,1-.63.86,3.43,3.43,0,0,1-.92.68,3.2,3.2,0,0,1-1.45.35,1.63,1.63,0,0,1-.82-.18.27.27,0,0,1-.14-.23.21.21,0,0,1,.22-.22.53.53,0,0,1,.2.06,1.12,1.12,0,0,0,.5.1,2.78,2.78,0,0,0,2-.85,2.94,2.94,0,0,0,.85-2.15C242.08,262.41,242.07,262.2,242.05,261.91Zm-6.92-.78a3.28,3.28,0,0,0-.75-1.54,1.41,1.41,0,0,0-1-.41,1.36,1.36,0,0,0-1.05.51,2,2,0,0,0,0,2.55,1.34,1.34,0,0,0,1,.49,1.4,1.4,0,0,0,.65-.17,2.16,2.16,0,0,0,.61-.54A9.75,9.75,0,0,0,235.13,261.13Zm.08.78a2.72,2.72,0,0,1-.85,1,1.83,1.83,0,0,1-1,.32,1.74,1.74,0,0,1-.94-.28,2,2,0,0,1-.72-.82,2.43,2.43,0,0,1-.27-1.12,2.51,2.51,0,0,1,.54-1.57,1.71,1.71,0,0,1,1.42-.7,1.93,1.93,0,0,1,1.16.39,2.55,2.55,0,0,1,.81,1.15,6.15,6.15,0,0,1,.38,2.24,3.82,3.82,0,0,1-.32,1.65,3.43,3.43,0,0,1-.63.86,3.6,3.6,0,0,1-.92.68,3.2,3.2,0,0,1-1.45.35,1.63,1.63,0,0,1-.82-.18.28.28,0,0,1-.15-.23.2.2,0,0,1,.07-.16.21.21,0,0,1,.16-.06.45.45,0,0,1,.19.06,1.19,1.19,0,0,0,.51.1,2.74,2.74,0,0,0,2-.85,2.91,2.91,0,0,0,.86-2.15C235.24,262.41,235.23,262.2,235.21,261.91Zm-8.86,2.61h.21a.74.74,0,0,1,.53.23.7.7,0,0,1,.23.52.75.75,0,0,1-.23.55.76.76,0,0,1-.53.21h-.21a.76.76,0,0,1-.53-.21.73.73,0,0,1-.22-.54.71.71,0,0,1,.23-.54A.74.74,0,0,1,226.35,264.52Zm-5.06-2.67a4.11,4.11,0,0,0-.18-1.23,3.69,3.69,0,0,0-.43-.91,1.23,1.23,0,0,0-.35-.33,1.28,1.28,0,0,0-.72-.2,1.37,1.37,0,0,0-1.23.81,3.71,3.71,0,0,0-.44,1.86v1a4.08,4.08,0,0,0,.18,1.24,4.21,4.21,0,0,0,.42.92,1.45,1.45,0,0,0,.36.33,1.37,1.37,0,0,0,1.94-.61,3.79,3.79,0,0,0,.45-1.88Zm.47-.05V263a3.68,3.68,0,0,1-.72,2.39,1.77,1.77,0,0,1-1.42.69,1.85,1.85,0,0,1-1.4-.62,3,3,0,0,1-.35-.59,3.43,3.43,0,0,1-.27-.75,4.1,4.1,0,0,1-.13-1.12V261.8a3.67,3.67,0,0,1,.72-2.4,1.75,1.75,0,0,1,1.41-.69,1.79,1.79,0,0,1,.78.17,1.68,1.68,0,0,1,.62.46,2.56,2.56,0,0,1,.36.59,5.42,5.42,0,0,1,.28.74A4.66,4.66,0,0,1,221.76,261.8Zm-8.75-3v6.61h1.6a.4.4,0,0,1,.24.06.24.24,0,0,1,0,.34.4.4,0,0,1-.24.07h-3.67a.39.39,0,0,1-.25-.07.24.24,0,0,1,0-.34.4.4,0,0,1,.25-.06h1.6v-6l-1.53.48-.16,0a.21.21,0,0,1-.16-.07.26.26,0,0,1-.07-.17.24.24,0,0,1,.06-.15.56.56,0,0,1,.19-.09Z" transform="translate(-122.67 -141.47)"/>
    <line class="cls-22" x1="5.92" y1="127.78" x2="142.76" y2="127.78"/>
    <path d="M248.66,276.87a3.76,3.76,0,0,0-.19-1.22,3.23,3.23,0,0,0-.42-.91,1.18,1.18,0,0,0-.36-.34,1.33,1.33,0,0,0-.71-.2,1.37,1.37,0,0,0-1.24.81,3.82,3.82,0,0,0-.44,1.86v1a4.06,4.06,0,0,0,.19,1.23,3.62,3.62,0,0,0,.42.92,1.15,1.15,0,0,0,.36.33,1.35,1.35,0,0,0,1.94-.61,3.78,3.78,0,0,0,.45-1.87Zm.47-.05V278a3.61,3.61,0,0,1-.73,2.39,1.72,1.72,0,0,1-1.41.7,1.85,1.85,0,0,1-.78-.17,1.76,1.76,0,0,1-.62-.46,2.89,2.89,0,0,1-.35-.58,4.77,4.77,0,0,1-.28-.75,4.68,4.68,0,0,1-.13-1.13v-1.15a3.65,3.65,0,0,1,.72-2.39,1.78,1.78,0,0,1,1.42-.7,1.85,1.85,0,0,1,.78.17,1.76,1.76,0,0,1,.62.46,2.46,2.46,0,0,1,.35.59,5.58,5.58,0,0,1,.29.74A4.72,4.72,0,0,1,249.13,276.82Zm-7.31.05a4,4,0,0,0-.19-1.22,3.9,3.9,0,0,0-.42-.91,1.3,1.3,0,0,0-.36-.34,1.33,1.33,0,0,0-.71-.2,1.37,1.37,0,0,0-1.24.81,3.82,3.82,0,0,0-.44,1.86v1a3.78,3.78,0,0,0,.19,1.23,3.3,3.3,0,0,0,.42.92,1.15,1.15,0,0,0,.36.33,1.35,1.35,0,0,0,1.94-.61,3.78,3.78,0,0,0,.45-1.87Zm.47-.05V278a3.67,3.67,0,0,1-.73,2.39,1.72,1.72,0,0,1-1.41.7,1.85,1.85,0,0,1-.78-.17,1.76,1.76,0,0,1-.62-.46,2.84,2.84,0,0,1-.36-.58,5.84,5.84,0,0,1-.27-.75A4.68,4.68,0,0,1,238,278v-1.15a3.65,3.65,0,0,1,.72-2.39,1.78,1.78,0,0,1,1.42-.7,1.85,1.85,0,0,1,.78.17,1.76,1.76,0,0,1,.62.46,2.46,2.46,0,0,1,.35.59,4.36,4.36,0,0,1,.28.74A4.23,4.23,0,0,1,242.29,276.82Zm-7.32.05a4,4,0,0,0-.18-1.22,3.9,3.9,0,0,0-.42-.91,1.46,1.46,0,0,0-.36-.34,1.33,1.33,0,0,0-.71-.2,1.37,1.37,0,0,0-1.24.81,3.82,3.82,0,0,0-.44,1.86v1a3.78,3.78,0,0,0,.19,1.23,3.3,3.3,0,0,0,.42.92,1,1,0,0,0,.36.33,1.35,1.35,0,0,0,1.94-.61,3.88,3.88,0,0,0,.44-1.87Zm.47-.05V278a3.66,3.66,0,0,1-.72,2.39,1.72,1.72,0,0,1-1.41.7,1.85,1.85,0,0,1-.78-.17,1.68,1.68,0,0,1-.62-.46,2.84,2.84,0,0,1-.36-.58,5.84,5.84,0,0,1-.27-.75,4.23,4.23,0,0,1-.13-1.13v-1.15a3.65,3.65,0,0,1,.72-2.39,1.78,1.78,0,0,1,1.42-.7,1.85,1.85,0,0,1,.78.17,1.76,1.76,0,0,1,.62.46,2.46,2.46,0,0,1,.35.59,4.36,4.36,0,0,1,.28.74A4.72,4.72,0,0,1,235.44,276.82Zm-9.09,2.73h.21a.77.77,0,0,1,.76.75.74.74,0,0,1-.23.54.77.77,0,0,1-.53.22h-.21a.77.77,0,0,1-.53-.22.73.73,0,0,1-.22-.53.75.75,0,0,1,.23-.55A.73.73,0,0,1,226.35,279.55Zm-5.06-2.68a4,4,0,0,0-.18-1.22,3.52,3.52,0,0,0-.43-.91,1.26,1.26,0,0,0-.35-.34,1.36,1.36,0,0,0-2,.61,3.71,3.71,0,0,0-.44,1.86v1a4.06,4.06,0,0,0,.18,1.23,4,4,0,0,0,.42.92,1.15,1.15,0,0,0,.36.33,1.35,1.35,0,0,0,1.94-.61,3.78,3.78,0,0,0,.45-1.87Zm.47-.05V278a3.66,3.66,0,0,1-.72,2.39,1.75,1.75,0,0,1-1.42.7,1.84,1.84,0,0,1-.77-.17,1.71,1.71,0,0,1-.63-.46,2.89,2.89,0,0,1-.35-.58,3.84,3.84,0,0,1-.27-.75,4.23,4.23,0,0,1-.13-1.13v-1.15a3.65,3.65,0,0,1,.72-2.39,1.76,1.76,0,0,1,1.41-.7,1.79,1.79,0,0,1,.78.17,1.68,1.68,0,0,1,.62.46,2.81,2.81,0,0,1,.36.59,5.42,5.42,0,0,1,.28.74A4.72,4.72,0,0,1,221.76,276.82Z" transform="translate(-122.67 -141.47)"/>
    <line class="cls-22" x1="5.92" y1="166.32" x2="88.05" y2="166.32"/>
    <text class="cls-23" transform="translate(169.93 118.56)">0.0002 B<tspan class="cls-24" x="31.83" y="0">T</tspan><tspan class="cls-25" x="35.56" y="0">C =</tspan><tspan x="0" y="9.5">0.00020000 B</tspan><tspan class="cls-24" x="50.26" y="9.5">T</tspan><tspan class="cls-25" x="54" y="9.5">C =</tspan><tspan x="0" y="19">20,000 satoshi (sat)</tspan></text>
    <text class="cls-26" transform="translate(307.5 9.72)">Deine alte<tspan x="0" y="9.5">“steckengebliebene”</tspan><tspan class="cls-27" x="0" y="19">T</tspan><tspan x="3.44" y="19">ransaktion</tspan></text>
    <rect class="cls-3" x="100.67" y="49.78" width="179.67" height="42.14" rx="2"/>
    <text class="cls-13" transform="translate(132.53 63.51)">0</text>
    <path class="cls-14" d="M277.06,203.47c1.5.68,2.74-.57,4-.8.31.35,0,1.06.13,1.46.91.66,2.68.42,3.36,1.32-.4.32-.94-.2-1.65-.39-1.22-.34-2.55-.14-2.09-1.92-1.09.51-2.92,1.46-4.18.59a8,8,0,0,1-1.27.66c-.5,1.07-.92,2.22-1.33,3.38-.88-.31-.9-1.52-2-1.65a3.39,3.39,0,0,0-.32,1c.25.07.51-.73.89-.53,0,.51-.54.93-1,1.13-.53-.34-.12-1.09,0-1.66a6.46,6.46,0,0,1-4,1.26,3.76,3.76,0,0,1-1.83-.53c-1.15-.86-.84-3.12-.07-4.17a5,5,0,0,1,2.92-1.66,16.75,16.75,0,0,0,.82-2c.36,0,.45-.1.57-.47,1.88-.73,4-1.16,5.58-2.25-1.95.36-4.08,1-6.09,1.59a4.33,4.33,0,0,1-1.9.4c.08-.4.6-.44.89-.53l3.23-.93a12.59,12.59,0,0,1,4.44-.86c0,.69-.69.89-1.14,1.13-1.38.71-3.27,1.23-4.82,1.85a5.36,5.36,0,0,0,1.4,1.92,11.45,11.45,0,0,1,2.21.26c.76-.91,1.38-2.13,2.09-3.17.2-.28.46-.76.83-.73-.12.77-.77,1.33-1.21,2s-.8,1.39-1.2,2.06c.47.32,1.23.35,1.39,1-.57.13-1-.49-1.52-.59a16.88,16.88,0,0,0-1.83,3.57,14,14,0,0,0,2.72-1.06,6.61,6.61,0,0,0,.95-2.51,6.39,6.39,0,0,1,2.66-4.37,3.12,3.12,0,0,1,.38-.8c.25-.06.23.16.38.2a9.6,9.6,0,0,1,5.83-1.39c.39,0,1.27.14,1.26.66,0,.84-1.35,1.81-2,2.32A74.3,74.3,0,0,1,277.06,203.47Zm6.65-7.75c-1.73.15-3.83.7-4.75,1.79A15.14,15.14,0,0,0,277.7,200c-.48.88-1.64,2.26-1,3.24a67.3,67.3,0,0,0,7.48-5.09,5.66,5.66,0,0,0,2-2.26A5.58,5.58,0,0,0,283.71,195.72Zm-7.15,5.56c.38-1,1.13-1.94,1.39-2.84A5.33,5.33,0,0,0,276.56,201.28Zm-7.42-.39c.57-.12,1.31-.06,1.84-.2a10.13,10.13,0,0,1-1.2-1.53C269.62,199.79,269.34,200.29,269.14,200.89Zm-.12.39a7.73,7.73,0,0,0-.51,1.66c-.14.53-.17,1.29-.63,1.52-.16-.9.41-2.11.63-3a3.59,3.59,0,0,0-3.1,3.57c0,1.42,1.1,1.93,2.59,1.92,3.17,0,5.48-2.86,3.36-5.69A11.07,11.07,0,0,0,269,201.28Zm3.61,2.39c.34-.75.71-1.47,1.08-2.19a12.94,12.94,0,0,0-1.84-.26A6.86,6.86,0,0,1,272.63,203.67Zm3.1.06a2.48,2.48,0,0,0,.57-.26c0-.2,0-.47-.19-.53C276,203.23,275.84,203.45,275.73,203.73Zm-3.48,2.06c.85.15,1.14.88,1.65,1.39a6.8,6.8,0,0,1,.88-2.32c0-.08,0-.16-.12-.14C274,205.23,273,205.33,272.25,205.79Z" transform="translate(-122.67 -141.47)"/>
    <g>
      <path class="cls-4" d="M304.29,207l-6.42-6.61a4.19,4.19,0,0,0-6.7-4.76l-.1.11-.11.09a4.19,4.19,0,0,0,4.21,7l.54.55a1,1,0,0,1,1.31,1.35l.59.61a1,1,0,0,1,1.31,1.35l.59.61a1,1,0,0,1,1.32,1.35l.41.42,3.29-.17.21-.2Z" transform="translate(-122.67 -141.47)"/>
      <path class="cls-5" d="M304.74,208.68l-7.08-8.08a4.14,4.14,0,1,0-2.49,2.21l.54.55a1,1,0,0,1,1.31,1.35l.59.61a1,1,0,0,1,1.31,1.35l.59.61a1,1,0,0,1,1.32,1.35l.41.42,3.29-.17Z" transform="translate(-122.67 -141.47)"/>
      <path class="cls-28" d="M304.29,207l-6.42-6.61a4.14,4.14,0,1,0-2.49,2.21l.54.55a.9.9,0,0,1,1.16.18.92.92,0,0,1,.15,1.17l.59.61a1,1,0,0,1,1.31,1.35l.59.61a1,1,0,0,1,1.31,1.35l.41.42,3.3-.17Z" transform="translate(-122.67 -141.47)"/>
      <path class="cls-29" d="M291.35,201.29a3.8,3.8,0,1,1,6.21-1l-.09.21,6.52,6.71.32,1.18-2.73.15-.13-.14a1.36,1.36,0,0,0-1.66-1.7l-.25-.26a1.28,1.28,0,0,0-.32-1.34,1.3,1.3,0,0,0-1.33-.36l-.25-.25a1.35,1.35,0,0,0-1.65-1.71l-.51-.53-.2.07A3.84,3.84,0,0,1,291.35,201.29Z" transform="translate(-122.67 -141.47)"/>
      <path class="cls-8" d="M296.38,201a3.31,3.31,0,1,1,.07-4.68A3.3,3.3,0,0,1,296.38,201Z" transform="translate(-122.67 -141.47)"/>
      <text class="cls-9" transform="translate(168.19 55.75) rotate(45.85)">Pub</text>
    </g>
    <line class="cls-10" x1="189" y1="49.92" x2="189" y2="91.89"/>
    <rect class="cls-11" x="100.67" y="49.78" width="179.67" height="42.14" rx="2"/>
    <g>
      <path class="cls-17" d="M406.83,204.19c8.23,0,16.37-8.5,21.5-8.5" transform="translate(-122.67 -141.47)"/>
      <polygon points="284.71 64.58 281.48 62.71 284.71 60.84 284.71 64.58"/>
    </g>
    <g>
      <path class="cls-17" d="M406.83,218.11c8.23,0,16.37,6.75,21.5,6.75" transform="translate(-122.67 -141.47)"/>
      <polygon points="284.71 78.5 281.48 76.63 284.71 74.76 284.71 78.5"/>
    </g>
    <path d="M210.7,156.73a24.39,24.39,0,0,0,2.33-.85v2.9a23.59,23.59,0,0,0-2.32-.86,16.54,16.54,0,0,0-2.54-.61A17,17,0,0,0,210.7,156.73Z" transform="translate(-122.67 -141.47)"/>
    <path class="cls-18" d="M212.21,157.26C227,157.26,205,200.5,228,200.5" transform="translate(-122.67 -141.47)"/>
    <g>
      <path class="cls-19" d="M228.57,201.7l-1.7-1.91a11.08,11.08,0,0,1,7.34.37,6.6,6.6,0,0,0,3.74.47,3.87,3.87,0,0,0,2.43-1.45c.72-.8,1.55-1.7,4.32-2l1.35,2c-2.2.21-2.78.85-3.45,1.59a5,5,0,0,1-3.08,1.8,9.55,9.55,0,0,1-5.15-.6A8.38,8.38,0,0,0,228.57,201.7Z" transform="translate(-122.67 -141.47)"/>
      <path class="cls-19" d="M231.9,203.52l-1.7-1.92a11.09,11.09,0,0,1,7.34.37,6.57,6.57,0,0,0,3.73.48A3.87,3.87,0,0,0,243.7,201c.73-.8,1.55-1.7,4.33-2l1.35,2c-2.2.21-2.78.85-3.45,1.59a5,5,0,0,1-3.09,1.79,9.39,9.39,0,0,1-5.15-.6A8.42,8.42,0,0,0,231.9,203.52Z" transform="translate(-122.67 -141.47)"/>
      <path class="cls-19" d="M231.16,205.54l-1.7-1.91a11.09,11.09,0,0,1,7.34.37,6.6,6.6,0,0,0,3.74.48A3.88,3.88,0,0,0,243,203c.73-.8,1.55-1.71,4.33-2l1.35,2c-2.2.21-2.78.84-3.45,1.58a5,5,0,0,1-3.08,1.8,9.46,9.46,0,0,1-5.15-.6A8.44,8.44,0,0,0,231.16,205.54Z" transform="translate(-122.67 -141.47)"/>
      <path class="cls-19" d="M234.54,207.34l-1.7-1.91a11.08,11.08,0,0,1,7.34.37,6.51,6.51,0,0,0,3.74.47,3.94,3.94,0,0,0,2.43-1.44c.72-.8,1.55-1.71,4.32-2l1.35,2c-2.2.22-2.78.85-3.45,1.59a5,5,0,0,1-3.08,1.8,9.46,9.46,0,0,1-5.15-.6A8.38,8.38,0,0,0,234.54,207.34Z" transform="translate(-122.67 -141.47)"/>
      <path class="cls-19" d="M229.09,199.61l-1.7-1.91a11.09,11.09,0,0,1,7.34.37,6.51,6.51,0,0,0,3.74.47,4,4,0,0,0,2.43-1.44c.72-.8,1.55-1.71,4.32-2l1.35,2c-2.2.21-2.78.84-3.45,1.58a5,5,0,0,1-3.08,1.8,9.46,9.46,0,0,1-5.15-.6A8.44,8.44,0,0,0,229.09,199.61Z" transform="translate(-122.67 -141.47)"/>
      <polygon points="106.53 56.44 108.86 56.23 109.87 56.77 108.35 56.67 106.53 56.44"/>
      <polygon points="112.47 57.62 114.95 58.55 116.56 58.04 114.52 57.78 112.47 57.62"/>
      <polygon points="113.45 60.6 111.7 60.51 110.99 60.99 112.76 60.82 115.03 61.72 116.45 61.7 114.49 60.94 113.45 60.6"/>
      <path d="M246.4,201.87c-.44,0-1.57.31-1.57.31L244,203.6l1.22-.86,1.9-.27Z" transform="translate(-122.67 -141.47)"/>
      <polygon points="124.64 63.89 123.83 64.91 122 65.48 123.03 65.92 124.54 65.3 124.64 63.89"/>
      <polygon points="116.97 64.83 115.19 64.29 113.83 64.63 115.45 64.73 116.97 64.83"/>
      <polygon points="111.07 62.64 110.06 62.81 111.47 62.89 111.07 62.64"/>
      <polygon class="cls-20" points="119.29 56.56 118.03 56.91 116.56 58.04 118.59 57.59 119.29 56.56"/>
      <polygon class="cls-20" points="120.89 62.69 119.24 63.49 119.06 63.98 120.64 63.57 120.89 62.69"/>
      <polygon class="cls-20" points="127.95 62.18 126.1 62.85 125.97 63.75 127.5 63.03 127.95 62.18"/>
      <polygon class="cls-20" points="109.95 62.08 108.7 63.14 108.25 62.47 109.95 62.08"/>
      <polygon class="cls-21" points="117.5 59.8 115.23 59.61 116.46 60.17 117.5 59.8"/>
      <path class="cls-21" d="M242.39,206.86l-2.12-.48s1.1.76,1.4.9a15.56,15.56,0,0,0,2.14.28Z" transform="translate(-122.67 -141.47)"/>
      <polygon class="cls-21" points="110.69 60.04 108.83 60.1 109.55 61.11 110.69 60.04"/>
      <path class="cls-21" d="M244.55,196l-2.1.85s-.83,1.22-.49,1.16a12.65,12.65,0,0,0,1.78-1Z" transform="translate(-122.67 -141.47)"/>
    </g>
    <path d="M391.09,201.77h-3.15v2.72h.64a.31.31,0,0,1,.24.07.19.19,0,0,1,.07.16.23.23,0,0,1-.07.18.37.37,0,0,1-.24.06h-1.65a.38.38,0,0,1-.24-.06.27.27,0,0,1-.07-.18.22.22,0,0,1,.07-.16.33.33,0,0,1,.24-.07h.54v-5.66h-.29a.38.38,0,0,1-.25-.06.22.22,0,0,1-.08-.18.23.23,0,0,1,.08-.17.38.38,0,0,1,.25-.06h1.4a.37.37,0,0,1,.24.06.22.22,0,0,1,.07.17.21.21,0,0,1-.07.18.37.37,0,0,1-.24.06h-.64v2.46h3.15v-2.46h-.63a.4.4,0,0,1-.25-.06.25.25,0,0,1-.07-.18.26.26,0,0,1,.07-.17.4.4,0,0,1,.25-.06h1.4a.38.38,0,0,1,.25.06.23.23,0,0,1,.08.17.22.22,0,0,1-.08.18.38.38,0,0,1-.25.06h-.29v5.66h.54a.33.33,0,0,1,.24.07.19.19,0,0,1,.08.16.23.23,0,0,1-.08.18.38.38,0,0,1-.24.06h-1.65a.4.4,0,0,1-.25-.06.27.27,0,0,1-.07-.18.22.22,0,0,1,.07-.16.34.34,0,0,1,.25-.07h.63Zm-10.09.61v2.11h.88a.34.34,0,0,1,.25.07.19.19,0,0,1,.08.16.23.23,0,0,1-.08.18.4.4,0,0,1-.25.06h-2a.38.38,0,0,1-.24-.06.23.23,0,0,1-.07-.18.19.19,0,0,1,.07-.16.33.33,0,0,1,.24-.07h.65v-5.66h-.65a.38.38,0,0,1-.24-.06.21.21,0,0,1-.07-.18.22.22,0,0,1,.07-.17.38.38,0,0,1,.24-.06h2a.4.4,0,0,1,.25.06.23.23,0,0,1,.08.17.22.22,0,0,1-.08.18.4.4,0,0,1-.25.06H381v2.92l3.28-2.92h-.52a.42.42,0,0,1-.25-.06.25.25,0,0,1-.07-.18.26.26,0,0,1,.07-.17.42.42,0,0,1,.25-.06h1.39a.38.38,0,0,1,.25.06.23.23,0,0,1,.08.17.22.22,0,0,1-.08.18.38.38,0,0,1-.25.06H385l-2.6,2.33a3.27,3.27,0,0,1,1,.6,3.72,3.72,0,0,1,.74,1,17.45,17.45,0,0,1,.75,1.72h.59a.34.34,0,0,1,.25.07.19.19,0,0,1,.07.16.23.23,0,0,1-.07.18.4.4,0,0,1-.25.06h-.91a9.85,9.85,0,0,0-1.26-2.61,2.69,2.69,0,0,0-1.27-.83Zm-6.41-.6h1.5a2.14,2.14,0,0,0,1-.23,1.64,1.64,0,0,0,.68-.57,1.32,1.32,0,0,0,.21-.7,1.36,1.36,0,0,0-.48-1,1.77,1.77,0,0,0-1.22-.44h-1.67Zm0,.47v2.24h1.61a.34.34,0,0,1,.25.07.19.19,0,0,1,.08.16.23.23,0,0,1-.08.18.4.4,0,0,1-.25.06h-2.73a.42.42,0,0,1-.25-.06.23.23,0,0,1-.08-.18.19.19,0,0,1,.08-.16.36.36,0,0,1,.25-.07h.63v-5.66h-.63a.42.42,0,0,1-.25-.06.22.22,0,0,1-.08-.18.23.23,0,0,1,.08-.17.42.42,0,0,1,.25-.06h2.74a2.2,2.2,0,0,1,1.6.58,1.74,1.74,0,0,1,.63,1.34,1.63,1.63,0,0,1-.21.83,1.7,1.7,0,0,1-.48.57,3,3,0,0,1-.88.47,2.63,2.63,0,0,1-.81.1Zm-11.16-1.35a3.86,3.86,0,0,0-.19-1.25,3.53,3.53,0,0,0-.42-.93,1.08,1.08,0,0,0-.37-.33,1.26,1.26,0,0,0-.71-.21,1.43,1.43,0,0,0-1.27.82,4,4,0,0,0-.44,1.9v1a3.86,3.86,0,0,0,.19,1.25,3.1,3.1,0,0,0,.44.93,1,1,0,0,0,.35.34,1.37,1.37,0,0,0,2-.62,3.87,3.87,0,0,0,.45-1.9Zm.48-.06V202a3.68,3.68,0,0,1-.73,2.42,1.77,1.77,0,0,1-1.43.7A1.86,1.86,0,0,1,361,205a1.64,1.64,0,0,1-.64-.46,3,3,0,0,1-.35-.59,4.51,4.51,0,0,1-.28-.76,4.74,4.74,0,0,1-.14-1.14v-1.17a3.7,3.7,0,0,1,.74-2.42,1.78,1.78,0,0,1,1.44-.71,1.71,1.71,0,0,1,.78.17,1.63,1.63,0,0,1,.63.47,2.45,2.45,0,0,1,.36.6,4.47,4.47,0,0,1,.29.74A4.89,4.89,0,0,1,363.91,200.84ZM355,197.78v6.71h1.63a.32.32,0,0,1,.23.07.19.19,0,0,1,.07.16.23.23,0,0,1-.07.18.37.37,0,0,1-.23.06h-3.73a.4.4,0,0,1-.25-.06.21.21,0,0,1-.09-.18.18.18,0,0,1,.09-.16.34.34,0,0,1,.25-.07h1.61v-6.05l-1.54.49-.16,0a.26.26,0,0,1-.16-.07.25.25,0,0,1-.08-.18.21.21,0,0,1,.07-.15.56.56,0,0,1,.19-.09Z" transform="translate(-122.67 -141.47)"/>
    <path d="M394.17,208.92h1.51a1,1,0,0,0,.5-.12,1,1,0,0,0,.33-.32.8.8,0,0,0,.11-.4.72.72,0,0,0-.16-.44.92.92,0,0,0-.44-.32,2.29,2.29,0,0,0-.77-.11h-1.08Zm0-2h1.06a1.48,1.48,0,0,0,.61-.12.72.72,0,0,0,.35-.29.65.65,0,0,0-.15-.9,1,1,0,0,0-.69-.24h-1.18Zm-.3,2v-3.57h-.4a.3.3,0,0,1-.16,0,.17.17,0,0,1,0-.12.11.11,0,0,1,0-.1s.08,0,.16,0h1.88a1.27,1.27,0,0,1,.91.32,1,1,0,0,1,.34.76,1,1,0,0,1-.57.89,1.43,1.43,0,0,1,.67.44,1,1,0,0,1,.22.62,1.09,1.09,0,0,1-.14.54,1.3,1.3,0,0,1-.44.43,1.25,1.25,0,0,1-.64.17h-2.23a.3.3,0,0,1-.16,0,.19.19,0,0,1,0-.12.11.11,0,0,1,0-.1s.08-.05.16-.05Z" transform="translate(-122.67 -141.47)"/>
    <path d="M391.09,220.66h-3.15v2.72h.64a.33.33,0,0,1,.24.07.24.24,0,0,1,0,.34.33.33,0,0,1-.24.07h-1.65a.33.33,0,0,1-.24-.07.24.24,0,0,1,0-.34.33.33,0,0,1,.24-.07h.54v-5.66h-.3a.52.52,0,0,1-.25-.05.27.27,0,0,1,0-.36.42.42,0,0,1,.25-.06h1.41a.38.38,0,0,1,.24.06.27.27,0,0,1,0,.36.48.48,0,0,1-.24.05h-.64v2.47h3.15v-2.47h-.63a.49.49,0,0,1-.25-.05.27.27,0,0,1,0-.36.4.4,0,0,1,.25-.06h1.4a.4.4,0,0,1,.25.06.24.24,0,0,1,0,.36.49.49,0,0,1-.25.05h-.29v5.66h.54a.33.33,0,0,1,.24.07.24.24,0,0,1,0,.34.33.33,0,0,1-.24.07h-1.65a.34.34,0,0,1-.25-.07.24.24,0,0,1,0-.34.34.34,0,0,1,.25-.07h.63Zm-10.09.61v2.11h.88a.3.3,0,0,1,.24.07.21.21,0,0,1,0,.34.3.3,0,0,1-.24.07h-2a.33.33,0,0,1-.24-.07.24.24,0,0,1,0-.34.33.33,0,0,1,.24-.07h.64v-5.66h-.64a.48.48,0,0,1-.24-.05.27.27,0,0,1,0-.36.38.38,0,0,1,.24-.06h2a.35.35,0,0,1,.24.06.22.22,0,0,1,0,.36.43.43,0,0,1-.24.05H381v2.92l3.28-2.92h-.52a.49.49,0,0,1-.25-.05.27.27,0,0,1,0-.36.4.4,0,0,1,.25-.06h1.39a.4.4,0,0,1,.25.06.24.24,0,0,1,0,.36.49.49,0,0,1-.25.05H385l-2.6,2.33a3.27,3.27,0,0,1,1,.6,3.66,3.66,0,0,1,.73,1,15.48,15.48,0,0,1,.76,1.72h.59a.36.36,0,0,1,.25.07.24.24,0,0,1,0,.34.36.36,0,0,1-.25.07h-.91a10,10,0,0,0-1.26-2.62,2.63,2.63,0,0,0-1.28-.82Zm-6.42-.6h1.51a2.27,2.27,0,0,0,1-.22,1.72,1.72,0,0,0,.68-.57,1.43,1.43,0,0,0,.2-.7,1.39,1.39,0,0,0-.47-1,1.78,1.78,0,0,0-1.22-.45h-1.68Zm0,.48v2.23h1.62a.36.36,0,0,1,.25.07.24.24,0,0,1,0,.34.36.36,0,0,1-.25.07h-2.73a.36.36,0,0,1-.25-.07.22.22,0,0,1,0-.34.36.36,0,0,1,.25-.07h.63v-5.66h-.63a.52.52,0,0,1-.25-.05.24.24,0,0,1,0-.36.42.42,0,0,1,.25-.06h2.74a2.2,2.2,0,0,1,1.6.58,1.8,1.8,0,0,1,.63,1.35,1.68,1.68,0,0,1-.21.83,1.82,1.82,0,0,1-.48.57,3.1,3.1,0,0,1-.88.46,2.59,2.59,0,0,1-.81.11Zm-17.47-2.09a3.46,3.46,0,0,0-.75-1.56,1.46,1.46,0,0,0-1-.42,1.37,1.37,0,0,0-1.06.51,1.85,1.85,0,0,0-.46,1.31,1.83,1.83,0,0,0,.46,1.28,1.37,1.37,0,0,0,1,.5,1.27,1.27,0,0,0,.64-.18,2.22,2.22,0,0,0,.63-.54A10.35,10.35,0,0,0,357.11,219.06Zm.09.79a3,3,0,0,1-.87,1,1.94,1.94,0,0,1-1,.32,1.77,1.77,0,0,1-1-.29,1.88,1.88,0,0,1-.74-.83,2.49,2.49,0,0,1-.26-1.13,2.65,2.65,0,0,1,.53-1.6,1.76,1.76,0,0,1,1.45-.71,1.9,1.9,0,0,1,1.17.4,2.63,2.63,0,0,1,.83,1.16,6.33,6.33,0,0,1,.38,2.28,3.92,3.92,0,0,1-.32,1.67,3.35,3.35,0,0,1-.64.87,3.19,3.19,0,0,1-.94.68,3,3,0,0,1-1.46.37,1.5,1.5,0,0,1-.83-.19.28.28,0,0,1-.15-.23.23.23,0,0,1,.06-.16.21.21,0,0,1,.16-.07.4.4,0,0,1,.2.07,1.15,1.15,0,0,0,.52.1,2.81,2.81,0,0,0,2.06-.86,3,3,0,0,0,.87-2.18Q357.23,220.29,357.2,219.85Zm-7-.79a3.36,3.36,0,0,0-.75-1.56,1.44,1.44,0,0,0-1-.42,1.37,1.37,0,0,0-1.07.51,1.85,1.85,0,0,0-.46,1.31,1.83,1.83,0,0,0,.46,1.28,1.37,1.37,0,0,0,1,.5,1.33,1.33,0,0,0,.65-.18,2.19,2.19,0,0,0,.62-.54A10.35,10.35,0,0,0,350.17,219.06Zm.08.79a2.89,2.89,0,0,1-.85,1,2,2,0,0,1-1,.32,1.79,1.79,0,0,1-1-.29,1.88,1.88,0,0,1-.74-.83,2.63,2.63,0,0,1-.26-1.13,2.6,2.6,0,0,1,.54-1.6,1.73,1.73,0,0,1,1.45-.71,1.93,1.93,0,0,1,1.17.4,2.62,2.62,0,0,1,.82,1.16,6.33,6.33,0,0,1,.38,2.28,3.92,3.92,0,0,1-.32,1.67,3.6,3.6,0,0,1-.64.87,3.42,3.42,0,0,1-.93.68,3.11,3.11,0,0,1-1.47.37,1.55,1.55,0,0,1-.83-.19.28.28,0,0,1-.15-.23.2.2,0,0,1,.07-.16.18.18,0,0,1,.15-.07.4.4,0,0,1,.2.07,1.21,1.21,0,0,0,.52.1,2.81,2.81,0,0,0,2.06-.86,3,3,0,0,0,.87-2.18C350.29,220.36,350.28,220.14,350.25,219.85Zm-7-.79a3.26,3.26,0,0,0-.75-1.56,1.44,1.44,0,0,0-1-.42,1.4,1.4,0,0,0-1.07.51,1.85,1.85,0,0,0-.46,1.31,1.83,1.83,0,0,0,.46,1.28,1.4,1.4,0,0,0,1,.5,1.3,1.3,0,0,0,.65-.18,2.19,2.19,0,0,0,.62-.54A8.25,8.25,0,0,0,343.23,219.06Zm.09.79a2.83,2.83,0,0,1-.87,1,1.94,1.94,0,0,1-1,.32,1.79,1.79,0,0,1-1-.29,1.92,1.92,0,0,1-.73-.83,2.51,2.51,0,0,1-.27-1.13,2.6,2.6,0,0,1,.54-1.6,1.73,1.73,0,0,1,1.45-.71,1.9,1.9,0,0,1,1.17.4,2.62,2.62,0,0,1,.82,1.16,6.12,6.12,0,0,1,.38,2.28,3.92,3.92,0,0,1-.32,1.67,3.35,3.35,0,0,1-.64.87,3.28,3.28,0,0,1-.93.68,3.08,3.08,0,0,1-1.47.37,1.55,1.55,0,0,1-.83-.19.28.28,0,0,1-.15-.23.23.23,0,0,1,.06-.16.22.22,0,0,1,.17-.07.37.37,0,0,1,.19.07,1.21,1.21,0,0,0,.52.1,2.81,2.81,0,0,0,2.06-.86,3,3,0,0,0,.87-2.18C343.35,220.36,343.33,220.14,343.32,219.85Zm-9,2.65h.21a.77.77,0,0,1,.77.76.73.73,0,0,1-.23.55.7.7,0,0,1-.54.22h-.21a.71.71,0,0,1-.53-.22.74.74,0,0,1-.23-.54.71.71,0,0,1,.24-.55A.69.69,0,0,1,334.33,222.5Zm-5.13-2.71a3.94,3.94,0,0,0-.19-1.25,3.3,3.3,0,0,0-.43-.92,1.18,1.18,0,0,0-.36-.34,1.26,1.26,0,0,0-.72-.2,1.38,1.38,0,0,0-1.25.82,3.8,3.8,0,0,0-.45,1.89v1.05a3.9,3.9,0,0,0,.19,1.25,3.69,3.69,0,0,0,.43.93,1.31,1.31,0,0,0,.36.34,1.4,1.4,0,0,0,.73.19,1.36,1.36,0,0,0,1.24-.82,3.83,3.83,0,0,0,.45-1.89Zm.48-.06v1.17a3.78,3.78,0,0,1-.73,2.43,1.8,1.8,0,0,1-1.44.7,1.93,1.93,0,0,1-.79-.17,1.74,1.74,0,0,1-.63-.47,3.53,3.53,0,0,1-.36-.59,4.4,4.4,0,0,1-.27-.76,4.23,4.23,0,0,1-.14-1.14v-1.17a3.66,3.66,0,0,1,.74-2.42,1.78,1.78,0,0,1,1.43-.71,1.86,1.86,0,0,1,.79.17,1.74,1.74,0,0,1,.63.47,2.93,2.93,0,0,1,.36.6,5.05,5.05,0,0,1,.28.75A4.31,4.31,0,0,1,329.68,219.73Z" transform="translate(-122.67 -141.47)"/>
    <path d="M393.85,227.81h2.31v-.11a.21.21,0,0,1,0-.15.13.13,0,0,1,.11-.05.1.1,0,0,1,.1.05.21.21,0,0,1,0,.15v.42h-2.9v-.45c.61-.55,1.2-1.1,1.78-1.66l.55-.58a1.25,1.25,0,0,0,.2-.33.71.71,0,0,0,.06-.28.93.93,0,0,0-.32-.69,1,1,0,0,0-.74-.29,1.12,1.12,0,0,0-.69.23,1,1,0,0,0-.39.55.36.36,0,0,1-.06.11.17.17,0,0,1-.1,0,.12.12,0,0,1-.1,0,.1.1,0,0,1,0-.09,1,1,0,0,1,.18-.47,1.34,1.34,0,0,1,.52-.45,1.41,1.41,0,0,1,.68-.18,1.29,1.29,0,0,1,1,.4,1.17,1.17,0,0,1,.4.88,1.21,1.21,0,0,1-.06.38,1.83,1.83,0,0,1-.23.38c-.11.13-.31.33-.59.61-.7.7-1.27,1.23-1.72,1.61Z" transform="translate(-122.67 -141.47)"/>
    <text class="cls-26" transform="translate(307.78 86.22)">Dein Rückgeld ist<tspan x="0" y="9.5">0.9998 B</tspan><tspan class="cls-24" x="31.73" y="9.5">T</tspan><tspan x="35.46" y="9.5">C.</tspan></text>
    <g>
      <path class="cls-17" d="M390.25,237.61c9.25,15.5,32.28,16.75,37.42,16.75" transform="translate(-122.67 -141.47)"/>
      <polygon points="266.27 97.56 266.21 93.82 269.48 95.64 266.27 97.56"/>
    </g>
    <text class="cls-26" transform="translate(307.78 115.92)">Grösse: 226 Bytes</text>
    <g>
      <path d="M430.16,198.54l2.12-5h-1.86V192.4h3.77l-2.12,5h2.09v1.09Z" transform="translate(-122.67 -141.47)"/>
      <path d="M436.7,198.1a3.28,3.28,0,0,1-.58.42,1.34,1.34,0,0,1-.55.13,1,1,0,0,1-.75-.3,1,1,0,0,1-.29-.76,1.22,1.22,0,0,1,.48-1,5.22,5.22,0,0,1,1.62-.76v-.34a.3.3,0,0,0-.1-.25.57.57,0,0,0-.33-.08,1.63,1.63,0,0,0-.71.16,2.5,2.5,0,0,0-.68.45v-.95a3,3,0,0,1,.78-.43,2.41,2.41,0,0,1,.85-.14,1.52,1.52,0,0,1,1.07.31,1.4,1.4,0,0,1,.33,1v1.82a.19.19,0,0,0,0,.12s0,0,.08,0a.27.27,0,0,0,.13,0l.2-.1v.78a3.55,3.55,0,0,1-.53.31,1.26,1.26,0,0,1-.43.1.59.59,0,0,1-.4-.14A.77.77,0,0,1,436.7,198.1Zm-.07-.61v-1a2.1,2.1,0,0,0-.71.36.59.59,0,0,0-.23.45.44.44,0,0,0,.1.32.38.38,0,0,0,.28.1.74.74,0,0,0,.28-.06A1.4,1.4,0,0,0,436.63,197.49Z" transform="translate(-122.67 -141.47)"/>
      <path d="M438.83,198.54V192.4H440v2.5a1.94,1.94,0,0,1,.56-.47,1.44,1.44,0,0,1,.64-.14,1,1,0,0,1,.89.42,1.93,1.93,0,0,1,.31,1.2v2.63h-1.21v-2.45a1.46,1.46,0,0,0-.11-.65.4.4,0,0,0-.37-.19.55.55,0,0,0-.38.15,1.59,1.59,0,0,0-.33.49v2.65Z" transform="translate(-122.67 -141.47)"/>
      <path d="M443.33,198.54V192.4h1.21v6.14Z" transform="translate(-122.67 -141.47)"/>
      <path d="M448.59,197.44v.8a3.87,3.87,0,0,1-.72.29,2.71,2.71,0,0,1-.68.09,1.88,1.88,0,0,1-1.43-.54,2.19,2.19,0,0,1-.5-1.55,2.48,2.48,0,0,1,.49-1.63,1.64,1.64,0,0,1,1.33-.61,1.44,1.44,0,0,1,1.2.56,2.5,2.5,0,0,1,.43,1.55v.22h-2.17v0a1.12,1.12,0,0,0,.25.79,1,1,0,0,0,.73.28,2,2,0,0,0,.47-.07A5.42,5.42,0,0,0,448.59,197.44Zm-2-1.41h1V196a1.3,1.3,0,0,0-.13-.67.4.4,0,0,0-.38-.22.42.42,0,0,0-.38.21,1.36,1.36,0,0,0-.12.63Z" transform="translate(-122.67 -141.47)"/>
      <path d="M452.33,198.54h-1.17v-4.39a3.93,3.93,0,0,1-1.51.88V194a3.1,3.1,0,0,0,1-.56,2.15,2.15,0,0,0,.73-1h.95Z" transform="translate(-122.67 -141.47)"/>
      <path d="M453.55,195.48a4.21,4.21,0,0,1,.56-2.32,1.71,1.71,0,0,1,3,0,5.28,5.28,0,0,1,0,4.65,1.71,1.71,0,0,1-3,0A4.2,4.2,0,0,1,453.55,195.48Zm1.29,0A4.48,4.48,0,0,0,455,197c.12.33.31.5.56.5s.44-.17.56-.5a4.8,4.8,0,0,0,.18-1.53,4.9,4.9,0,0,0-.18-1.55c-.12-.33-.31-.5-.56-.5s-.44.17-.56.5A4.61,4.61,0,0,0,454.84,195.48Z" transform="translate(-122.67 -141.47)"/>
      <path d="M460.74,198.54V192.4h1.89a2.1,2.1,0,0,1,1.39.41,1.41,1.41,0,0,1,.5,1.15,1.29,1.29,0,0,1-.19.72,1.53,1.53,0,0,1-.57.52,1.75,1.75,0,0,1,.71.63,1.61,1.61,0,0,1,.24.88,1.73,1.73,0,0,1-.54,1.37,2.38,2.38,0,0,1-1.59.46Zm1.33-3.67h.22a1,1,0,0,0,.66-.17.68.68,0,0,0,.2-.55.63.63,0,0,0-.75-.75h-.33Zm0,2.69h.43a.82.82,0,0,0,.61-.22.91.91,0,0,0,.2-.64.85.85,0,0,0-.22-.64,1,1,0,0,0-.69-.21h-.33Z" transform="translate(-122.67 -141.47)"/>
      <path d="M466.37,198.54v-5h-1.25v-1.1H469v1.1h-1.25v5Z" transform="translate(-122.67 -141.47)"/>
      <path d="M472.88,198.21a2.42,2.42,0,0,1-.63.34,2.26,2.26,0,0,1-.71.1,2.17,2.17,0,0,1-1.8-.85,3.53,3.53,0,0,1-.68-2.27,3.78,3.78,0,0,1,.68-2.36,2.15,2.15,0,0,1,1.8-.88,3.1,3.1,0,0,1,.69.08,2.71,2.71,0,0,1,.63.24v1.14a3.68,3.68,0,0,0-.55-.24,1.38,1.38,0,0,0-.46-.09,1.12,1.12,0,0,0-1,.54,2.75,2.75,0,0,0-.36,1.53,2.68,2.68,0,0,0,.32,1.43,1,1,0,0,0,.92.5,1.31,1.31,0,0,0,.5-.1,3.58,3.58,0,0,0,.65-.35Z" transform="translate(-122.67 -141.47)"/>
      <path d="M476,198.54v-3.39h-.42v-.77H476a.49.49,0,0,0,0-.11v-.1a2,2,0,0,1,.43-1.36,1.59,1.59,0,0,1,1.23-.47l.25,0,.22,0v.91h-.08l-.2,0a.59.59,0,0,0-.48.18.9.9,0,0,0-.15.58v.33h.49v.77h-.49v3.39Z" transform="translate(-122.67 -141.47)"/>
      <path d="M480.64,198a1.7,1.7,0,0,1-.54.46,1.38,1.38,0,0,1-.65.14,1.05,1.05,0,0,1-.9-.41,2,2,0,0,1-.3-1.2v-2.63h1.21v2.45a1.31,1.31,0,0,0,.11.65.38.38,0,0,0,.37.19.53.53,0,0,0,.37-.15,1.59,1.59,0,0,0,.33-.49v-2.65h1.22v4.16h-1.2Zm-1.84-4.93a.46.46,0,0,1,.16-.35.47.47,0,0,1,.35-.15.45.45,0,0,1,.34.15.49.49,0,0,1,.15.35.52.52,0,0,1-.14.36.48.48,0,0,1-.35.14.5.5,0,0,1-.51-.5Zm1.52,0a.51.51,0,0,1,.5-.5.47.47,0,0,1,.35.15.49.49,0,0,1,.15.35.48.48,0,0,1-.5.5.51.51,0,0,1-.5-.5Z" transform="translate(-122.67 -141.47)"/>
      <path d="M482.76,198.54v-4.16h1.17v1.38a3.73,3.73,0,0,1,.5-1.09.74.74,0,0,1,.58-.37,1.16,1.16,0,0,1,.37.07,1.3,1.3,0,0,1,.36.2l-.28,1.11a1,1,0,0,0-.24-.14.69.69,0,0,0-.24,0c-.3,0-.54.22-.72.65a4.6,4.6,0,0,0-.27,1.74v.66Z" transform="translate(-122.67 -141.47)"/>
      <path d="M433,207.67a1.52,1.52,0,0,1-.46.35,1.47,1.47,0,0,1-.56.11,1.39,1.39,0,0,1-1.16-.6,2.47,2.47,0,0,1-.46-1.56,2.57,2.57,0,0,1,.45-1.56,1.3,1.3,0,0,1,1.09-.62,1.48,1.48,0,0,1,.57.1,1.67,1.67,0,0,1,.5.33V201.9h1.21V208h-1.15Zm0-.79v-1.8a.93.93,0,0,0-.29-.21.71.71,0,0,0-.32-.07.6.6,0,0,0-.54.31,1.56,1.56,0,0,0-.2.87,1.51,1.51,0,0,0,.2.87.62.62,0,0,0,.56.31.67.67,0,0,0,.31-.07A.76.76,0,0,0,433,206.88Z" transform="translate(-122.67 -141.47)"/>
      <path d="M437.06,207.6a3.28,3.28,0,0,1-.58.42,1.34,1.34,0,0,1-.55.13,1,1,0,0,1-.75-.3,1,1,0,0,1-.29-.76,1.22,1.22,0,0,1,.48-1,5.22,5.22,0,0,1,1.62-.76V205a.3.3,0,0,0-.1-.25.57.57,0,0,0-.33-.08,1.63,1.63,0,0,0-.71.16,2.5,2.5,0,0,0-.68.45v-.95a2.93,2.93,0,0,1,.79-.43,2.32,2.32,0,0,1,.84-.14,1.52,1.52,0,0,1,1.07.31,1.4,1.4,0,0,1,.33,1V207a.19.19,0,0,0,0,.12s0,0,.08,0a.27.27,0,0,0,.13,0l.2-.1v.78a3.55,3.55,0,0,1-.53.31,1.26,1.26,0,0,1-.43.1.59.59,0,0,1-.4-.14A.77.77,0,0,1,437.06,207.6ZM437,207v-1a2.21,2.21,0,0,0-.71.36.59.59,0,0,0-.23.45.44.44,0,0,0,.1.32.38.38,0,0,0,.28.1.74.74,0,0,0,.28-.06A1.4,1.4,0,0,0,437,207Z" transform="translate(-122.67 -141.47)"/>
      <path d="M439.08,207.78v-1a2.79,2.79,0,0,0,.68.33,1.8,1.8,0,0,0,.58.11.54.54,0,0,0,.33-.09.28.28,0,0,0,.11-.24.27.27,0,0,0-.07-.2.93.93,0,0,0-.32-.2,3.27,3.27,0,0,1-1.12-.69,1.08,1.08,0,0,1-.23-.73,1.18,1.18,0,0,1,.39-.91,1.44,1.44,0,0,1,1-.37,2.53,2.53,0,0,1,.67.1,3.11,3.11,0,0,1,.66.28v.89a3.84,3.84,0,0,0-.68-.33,1.84,1.84,0,0,0-.61-.11.67.67,0,0,0-.32.06.25.25,0,0,0-.11.21c0,.16.17.3.51.44l.28.12a2.34,2.34,0,0,1,.85.58,1.11,1.11,0,0,1,.24.73,1.25,1.25,0,0,1-.42,1,1.79,1.79,0,0,1-1.18.35,2.62,2.62,0,0,1-.61-.08A4.1,4.1,0,0,1,439.08,207.78Z" transform="translate(-122.67 -141.47)"/>
      <path d="M445.08,208V201.9H447a2.12,2.12,0,0,1,1.4.41,1.41,1.41,0,0,1,.5,1.15,1.38,1.38,0,0,1-.19.72,1.53,1.53,0,0,1-.57.52,1.72,1.72,0,0,1,.7.63,1.61,1.61,0,0,1,.24.88,1.73,1.73,0,0,1-.54,1.37,2.35,2.35,0,0,1-1.58.46Zm1.33-3.67h.22a1,1,0,0,0,.66-.17.68.68,0,0,0,.2-.55.79.79,0,0,0-.18-.58.81.81,0,0,0-.57-.17h-.33Zm0,2.69h.43a.78.78,0,0,0,.6-.22.86.86,0,0,0,.2-.64.85.85,0,0,0-.21-.64,1,1,0,0,0-.69-.21h-.33Z" transform="translate(-122.67 -141.47)"/>
      <path d="M452.2,207.52a1.62,1.62,0,0,1-.55.46,1.35,1.35,0,0,1-.65.14,1,1,0,0,1-.89-.41,2,2,0,0,1-.31-1.2v-2.63H451v2.45a1.43,1.43,0,0,0,.11.65.4.4,0,0,0,.37.19.55.55,0,0,0,.38-.15,1.59,1.59,0,0,0,.33-.49v-2.65h1.21V208h-1.2Z" transform="translate(-122.67 -141.47)"/>
      <path d="M457.21,207.85a2.55,2.55,0,0,1-.56.21,2.69,2.69,0,0,1-.57.06,1.88,1.88,0,0,1-1.45-.58,2.22,2.22,0,0,1-.54-1.57,2.26,2.26,0,0,1,.55-1.59,1.84,1.84,0,0,1,1.44-.59,2.33,2.33,0,0,1,.53.06,3.72,3.72,0,0,1,.54.21v1a3.31,3.31,0,0,0-.47-.19,1.48,1.48,0,0,0-.38-.06.81.81,0,0,0-.68.32,1.32,1.32,0,0,0-.26.86,1.29,1.29,0,0,0,.26.85.87.87,0,0,0,.7.31,1.53,1.53,0,0,0,.4-.07,3.16,3.16,0,0,0,.49-.22Z" transform="translate(-122.67 -141.47)"/>
      <path d="M457.92,208V201.9h1.21v2.5a1.94,1.94,0,0,1,.56-.47,1.44,1.44,0,0,1,.64-.14,1,1,0,0,1,.89.42,1.93,1.93,0,0,1,.31,1.2V208h-1.21v-2.45a1.46,1.46,0,0,0-.11-.65.4.4,0,0,0-.37-.19.55.55,0,0,0-.38.15,1.59,1.59,0,0,0-.33.49V208Z" transform="translate(-122.67 -141.47)"/>
      <path d="M462.35,207.42a.67.67,0,0,1,.21-.49.68.68,0,0,1,1,0,.64.64,0,0,1,.2.49.7.7,0,0,1-.2.49.66.66,0,0,1-.49.2.64.64,0,0,1-.49-.2A.67.67,0,0,1,462.35,207.42Z" transform="translate(-122.67 -141.47)"/>
    </g>
    <text class="cls-30" transform="translate(6.31 123.4)">–</text>
    <text class="cls-30" transform="translate(6.18 138.56)">=</text>
    <text class="cls-31" transform="translate(94.39 169.88)">=</text>
    <text class="cls-30" transform="translate(15.31 113)">Summe Inputs:<tspan x="0" y="10">Summe Outputs:</tspan></text>
    <text class="cls-30" transform="translate(15.31 138.56)"><tspan class="cls-32">T</tspan><tspan x="4.59" y="0">ransaktionsgebühr:</tspan></text>
    <text class="cls-30" transform="translate(8.46 178.92)">Grösse (Bytes):</text>
    <text class="cls-30" transform="translate(8.46 161.37)">Geb. (sat):</text>
    <path d="M363.85,222a1.47,1.47,0,0,0-.48-1.09,1.79,1.79,0,0,0-2.42,0,1.44,1.44,0,0,0-.48,1.08,1.55,1.55,0,0,0,.48,1.12,1.79,1.79,0,0,0,2.42,0A1.52,1.52,0,0,0,363.85,222Zm-.13-3.39a1.37,1.37,0,0,0-.45-1.05,1.5,1.5,0,0,0-1.11-.44,1.52,1.52,0,0,0-1.11.44,1.38,1.38,0,0,0-.46,1,1.32,1.32,0,0,0,.45,1,1.63,1.63,0,0,0,1.12.41,1.6,1.6,0,0,0,1.11-.41A1.28,1.28,0,0,0,363.72,218.58Zm-.59,1.6a2,2,0,0,1,.89.77,1.74,1.74,0,0,1,.31,1,1.94,1.94,0,0,1-.64,1.45,2.11,2.11,0,0,1-1.53.62,2.15,2.15,0,0,1-1.54-.62A2,2,0,0,1,360,222a1.82,1.82,0,0,1,.31-1,2.08,2.08,0,0,1,.9-.77,2.24,2.24,0,0,1-.76-.62,1.72,1.72,0,0,1-.32-1,1.85,1.85,0,0,1,.59-1.36,2,2,0,0,1,1.45-.59,2,2,0,0,1,1.45.59,1.82,1.82,0,0,1,.6,1.36,1.67,1.67,0,0,1-.33,1A2.2,2.2,0,0,1,363.13,220.18Z" transform="translate(-122.67 -141.47)"/>
    <path d="M255.49,264a1.41,1.41,0,0,0-.48-1.07,1.77,1.77,0,0,0-2.38,0,1.4,1.4,0,0,0-.48,1.06,1.49,1.49,0,0,0,.48,1.1,1.63,1.63,0,0,0,1.19.47,1.6,1.6,0,0,0,1.19-.47A1.48,1.48,0,0,0,255.49,264Zm-.12-3.35a1.38,1.38,0,0,0-.45-1,1.59,1.59,0,0,0-2.2,0,1.37,1.37,0,0,0-.45,1,1.31,1.31,0,0,0,.44,1,1.62,1.62,0,0,0,1.11.41,1.58,1.58,0,0,0,1.1-.41A1.26,1.26,0,0,0,255.37,260.65Zm-.59,1.58a2.14,2.14,0,0,1,.88.76,1.8,1.8,0,0,1,.3,1,1.91,1.91,0,0,1-.63,1.43,2.06,2.06,0,0,1-1.51.61,2.1,2.1,0,0,1-1.52-.61,1.94,1.94,0,0,1-.62-1.43,1.89,1.89,0,0,1,.3-1,2.24,2.24,0,0,1,.89-.76,2.28,2.28,0,0,1-.75-.61,1.69,1.69,0,0,1-.32-1,1.8,1.8,0,0,1,.6-1.34,1.92,1.92,0,0,1,1.42-.58,2,2,0,0,1,1.43.58,1.8,1.8,0,0,1,.6,1.34,1.64,1.64,0,0,1-.33,1A2.14,2.14,0,0,1,254.78,262.23Z" transform="translate(-122.67 -141.47)"/>
    <path d="M251.89,280.6h3.59v-.18a.31.31,0,0,1,.07-.24.19.19,0,0,1,.18-.08.17.17,0,0,1,.15.08.31.31,0,0,1,.08.24v.65h-4.52v-.7c.95-.85,1.87-1.72,2.77-2.6.41-.41.7-.71.86-.9a2.26,2.26,0,0,0,.32-.51,1.2,1.2,0,0,0,.09-.45,1.41,1.41,0,0,0-.49-1.06,1.62,1.62,0,0,0-1.17-.47,1.78,1.78,0,0,0-1.09.36,1.54,1.54,0,0,0-.6.87.27.27,0,0,1-.09.17.25.25,0,0,1-.15.05.23.23,0,0,1-.16-.06.21.21,0,0,1-.07-.15,1.44,1.44,0,0,1,.3-.72,2,2,0,0,1,.8-.73,2.4,2.4,0,0,1,1.06-.26,2.07,2.07,0,0,1,1.5.61,1.85,1.85,0,0,1,.63,1.37,1.89,1.89,0,0,1-.1.6,2.24,2.24,0,0,1-.37.59c-.17.21-.47.53-.91,1-1.09,1.08-2,1.92-2.68,2.52Z" transform="translate(-122.67 -141.47)"/>
    <path d="M208.5,298.55a4.11,4.11,0,0,0-.18-1.23,3.44,3.44,0,0,0-.43-.9,1.14,1.14,0,0,0-.35-.34,1.33,1.33,0,0,0-.71-.2,1.37,1.37,0,0,0-1.24.81,3.71,3.71,0,0,0-.44,1.86v1a4.08,4.08,0,0,0,.18,1.24,3.78,3.78,0,0,0,.43.92,1,1,0,0,0,.35.33,1.39,1.39,0,0,0,.72.2,1.34,1.34,0,0,0,1.22-.81,3.79,3.79,0,0,0,.45-1.88Zm.47-.05v1.15a3.66,3.66,0,0,1-.72,2.39,1.76,1.76,0,0,1-1.42.7,1.84,1.84,0,0,1-.77-.17,1.68,1.68,0,0,1-.62-.46,2.56,2.56,0,0,1-.36-.59,4.93,4.93,0,0,1-.27-.75,4.1,4.1,0,0,1-.13-1.12V298.5a3.63,3.63,0,0,1,.72-2.39,1.75,1.75,0,0,1,1.42-.7,1.77,1.77,0,0,1,.77.17,1.68,1.68,0,0,1,.62.46,2.25,2.25,0,0,1,.36.59,5.42,5.42,0,0,1,.28.74A4.66,4.66,0,0,1,209,298.5Zm-7.31.05a3.82,3.82,0,0,0-.19-1.23,3.15,3.15,0,0,0-.42-.9,1.14,1.14,0,0,0-.35-.34,1.37,1.37,0,0,0-.72-.2,1.39,1.39,0,0,0-1.24.81,3.82,3.82,0,0,0-.44,1.86v1a4.08,4.08,0,0,0,.19,1.24,4.21,4.21,0,0,0,.42.92,1.15,1.15,0,0,0,.36.33,1.35,1.35,0,0,0,1.94-.61,3.79,3.79,0,0,0,.45-1.88Zm.47-.05v1.15a3.66,3.66,0,0,1-.72,2.39,1.78,1.78,0,0,1-1.42.7,1.92,1.92,0,0,1-.78-.17,1.64,1.64,0,0,1-.61-.46,2.56,2.56,0,0,1-.36-.59,3.43,3.43,0,0,1-.27-.75,4.07,4.07,0,0,1-.14-1.12V298.5a3.63,3.63,0,0,1,.73-2.39,1.72,1.72,0,0,1,1.41-.7,1.85,1.85,0,0,1,.78.17,1.68,1.68,0,0,1,.62.46,2.56,2.56,0,0,1,.36.59,5.42,5.42,0,0,1,.28.74A4.66,4.66,0,0,1,202.13,298.5Zm-7.31.05a3.82,3.82,0,0,0-.19-1.23,3.15,3.15,0,0,0-.42-.9,1.07,1.07,0,0,0-.36-.34,1.33,1.33,0,0,0-.71-.2,1.38,1.38,0,0,0-1.24.81,3.82,3.82,0,0,0-.44,1.86v1a4.11,4.11,0,0,0,.61,2.16,1.15,1.15,0,0,0,.36.33,1.35,1.35,0,0,0,1.94-.61,3.79,3.79,0,0,0,.45-1.88Zm.47-.05v1.15a3.66,3.66,0,0,1-.72,2.39,1.78,1.78,0,0,1-1.42.7,1.89,1.89,0,0,1-.78-.17,1.76,1.76,0,0,1-.62-.46,3,3,0,0,1-.35-.59,4.14,4.14,0,0,1-.28-.75,4.54,4.54,0,0,1-.13-1.12V298.5a3.58,3.58,0,0,1,.73-2.39,1.72,1.72,0,0,1,1.41-.7,1.85,1.85,0,0,1,.78.17,1.76,1.76,0,0,1,.62.46,2.27,2.27,0,0,1,.35.59,5.58,5.58,0,0,1,.29.74A4.66,4.66,0,0,1,195.29,298.5Zm-11.09.05a3.82,3.82,0,0,0-.19-1.23,3.15,3.15,0,0,0-.42-.9,1.07,1.07,0,0,0-.36-.34,1.33,1.33,0,0,0-.71-.2,1.38,1.38,0,0,0-1.24.81,3.82,3.82,0,0,0-.44,1.86v1a3.79,3.79,0,0,0,.19,1.24,4.21,4.21,0,0,0,.42.92,1.15,1.15,0,0,0,.36.33,1.35,1.35,0,0,0,1.94-.61,3.79,3.79,0,0,0,.45-1.88Zm.47-.05v1.15A3.66,3.66,0,0,1,184,302a1.78,1.78,0,0,1-1.42.7,1.89,1.89,0,0,1-.78-.17,1.76,1.76,0,0,1-.62-.46,3,3,0,0,1-.35-.59,4.14,4.14,0,0,1-.28-.75,4.54,4.54,0,0,1-.13-1.12V298.5a3.58,3.58,0,0,1,.73-2.39,1.72,1.72,0,0,1,1.41-.7,1.85,1.85,0,0,1,.78.17,1.68,1.68,0,0,1,.62.46,2.56,2.56,0,0,1,.36.59,7.16,7.16,0,0,1,.28.74A4.66,4.66,0,0,1,184.67,298.5Zm-11,3.6h3.59v-.18a.41.41,0,0,1,.07-.25.24.24,0,0,1,.34,0,.36.36,0,0,1,.07.25v.65h-4.52v-.7c.95-.85,1.88-1.72,2.77-2.61a10.15,10.15,0,0,0,.86-.89,2.26,2.26,0,0,0,.32-.51,1.2,1.2,0,0,0,.09-.45,1.43,1.43,0,0,0-.48-1.06,1.66,1.66,0,0,0-1.18-.47,1.76,1.76,0,0,0-1.08.36,1.51,1.51,0,0,0-.61.87.27.27,0,0,1-.09.17.25.25,0,0,1-.31,0,.24.24,0,0,1-.06-.15,1.41,1.41,0,0,1,.29-.72,2,2,0,0,1,.81-.73,2.33,2.33,0,0,1,1.05-.26,2,2,0,0,1,1.5.61,1.85,1.85,0,0,1,.63,1.37,1.64,1.64,0,0,1-.1.6,2.24,2.24,0,0,1-.37.59,10.56,10.56,0,0,1-.91,1c-1.09,1.08-2,1.92-2.68,2.52Z" transform="translate(-122.67 -141.47)"/>
    <path d="M304.35,308.65a2,2,0,0,0-.73-1.26,2.31,2.31,0,0,0-2.82,0,2.08,2.08,0,0,0-.73,1.26Zm.48.48h-4.77a2.29,2.29,0,0,0,2.34,2,3.66,3.66,0,0,0,1.1-.18,2.94,2.94,0,0,0,.94-.45.3.3,0,0,1,.18-.09.19.19,0,0,1,.15.08.19.19,0,0,1,.07.16.22.22,0,0,1-.09.17,2.4,2.4,0,0,1-.95.53,4.21,4.21,0,0,1-1.4.24,2.74,2.74,0,0,1-2-.78,2.59,2.59,0,0,1-.81-1.92,2.36,2.36,0,0,1,.75-1.74,2.6,2.6,0,0,1,1.88-.73,2.52,2.52,0,0,1,1.88.75A2.6,2.6,0,0,1,304.83,309.13Zm-10.34-2.53H297a.36.36,0,0,1,.24.07.24.24,0,0,1,0,.34.37.37,0,0,1-.24.06h-2.54v3.12a.85.85,0,0,0,.33.68,1.48,1.48,0,0,0,1,.28,3.93,3.93,0,0,0,1-.15,4,4,0,0,0,.86-.32.38.38,0,0,1,.18-.07.23.23,0,0,1,.16.08.21.21,0,0,1,.07.15.19.19,0,0,1-.08.15,2.32,2.32,0,0,1-.86.41,4.53,4.53,0,0,1-1.32.21,2.1,2.1,0,0,1-1.31-.38,1.26,1.26,0,0,1-.48-1v-3.12h-.86a.44.44,0,0,1-.25-.06.27.27,0,0,1,0-.34.44.44,0,0,1,.25-.07H294v-1.37a.41.41,0,0,1,.07-.25.21.21,0,0,1,.17-.07.19.19,0,0,1,.16.07.36.36,0,0,1,.07.25Zm-5.85,4.83-2.16-4.36h-.14a.4.4,0,0,1-.25-.06.22.22,0,0,1-.07-.17.19.19,0,0,1,0-.12.16.16,0,0,1,.09-.09.68.68,0,0,1,.19,0h1.27a.41.41,0,0,1,.25.07.24.24,0,0,1,0,.34.42.42,0,0,1-.25.06H287l1.92,3.84,1.88-3.84h-.64a.37.37,0,0,1-.23-.06.22.22,0,0,1,0-.34.37.37,0,0,1,.23-.07h1.28a.34.34,0,0,1,.24.07.23.23,0,0,1,.08.17.24.24,0,0,1-.05.14.18.18,0,0,1-.09.08h-.31l-3,6h.73a.38.38,0,0,1,.24.07.21.21,0,0,1,.08.17.23.23,0,0,1-.08.17.38.38,0,0,1-.24.06h-2.69a.4.4,0,0,1-.25-.06.27.27,0,0,1,0-.34.39.39,0,0,1,.25-.07h1.46ZM284.07,309a2.07,2.07,0,0,0-.61-1.5,2,2,0,0,0-2.84,0,2.1,2.1,0,0,0-.6,1.5,2.07,2.07,0,0,0,.6,1.5,1.92,1.92,0,0,0,2.84,0A2,2,0,0,0,284.07,309ZM280,304.44v3.1a2.5,2.5,0,0,1,2-1.1,2.37,2.37,0,0,1,1.76.75,2.47,2.47,0,0,1,.73,1.82,2.54,2.54,0,0,1-.74,1.84,2.35,2.35,0,0,1-1.75.76,2.47,2.47,0,0,1-2-1.1v.92h-1.1a.38.38,0,0,1-.24-.07.24.24,0,0,1-.07-.17.26.26,0,0,1,.07-.17.38.38,0,0,1,.24-.06h.63v-6h-.63a.33.33,0,0,1-.24-.07.24.24,0,0,1-.07-.16.29.29,0,0,1,.07-.18.38.38,0,0,1,.24-.06Zm-3-.34-3.76,8.06c-.06.14-.14.2-.24.2a.24.24,0,0,1-.17-.06.19.19,0,0,1-.07-.15.41.41,0,0,1,.06-.19l3.75-8.06a.31.31,0,0,1,.12-.16.17.17,0,0,1,.13-.05.18.18,0,0,1,.16.08.19.19,0,0,1,.08.14A.45.45,0,0,1,277,304.1Zm-9.91,2.5h2.54a.36.36,0,0,1,.24.07.24.24,0,0,1,0,.34.37.37,0,0,1-.24.06h-2.54v3.12a.85.85,0,0,0,.33.68,1.48,1.48,0,0,0,1,.28,3.93,3.93,0,0,0,1-.15,4,4,0,0,0,.86-.32.38.38,0,0,1,.18-.07.21.21,0,0,1,.16.08.21.21,0,0,1,.07.15.19.19,0,0,1-.08.15,2.32,2.32,0,0,1-.86.41,4.53,4.53,0,0,1-1.32.21,2.1,2.1,0,0,1-1.31-.38,1.26,1.26,0,0,1-.48-1v-3.12h-.86a.38.38,0,0,1-.24-.06.24.24,0,0,1,0-.34.38.38,0,0,1,.24-.07h.86v-1.37a.36.36,0,0,1,.07-.25.21.21,0,0,1,.17-.07.22.22,0,0,1,.17.07.42.42,0,0,1,.06.25Zm-4.53,2.5a4.82,4.82,0,0,0-.7-.14,6.23,6.23,0,0,0-.77,0,2.57,2.57,0,0,0-1.59.44,1,1,0,0,0-.44.79.91.91,0,0,0,.33.71,1.41,1.41,0,0,0,1,.3,2.66,2.66,0,0,0,1.12-.25,4.1,4.1,0,0,0,1.08-.77Zm0,2.33v-.68a3.33,3.33,0,0,1-2.18.86,1.89,1.89,0,0,1-1.31-.42,1.39,1.39,0,0,1-.47-1.05,1.52,1.52,0,0,1,.62-1.19,2.82,2.82,0,0,1,1.82-.51,5.91,5.91,0,0,1,.7.05,7.24,7.24,0,0,1,.82.13v-.76a.82.82,0,0,0-.36-.66,1.63,1.63,0,0,0-1.07-.29,5.18,5.18,0,0,0-1.53.32l-.22,0a.23.23,0,0,1-.16-.06.23.23,0,0,1-.07-.17.18.18,0,0,1,.06-.15,1.72,1.72,0,0,1,.64-.23,5.7,5.7,0,0,1,1.31-.23,2,2,0,0,1,1.38.44,1.25,1.25,0,0,1,.49,1V311h.62a.4.4,0,0,1,.25.06.22.22,0,0,1,.07.17.21.21,0,0,1-.07.17.39.39,0,0,1-.25.07ZM256,306.91a.29.29,0,0,1,.07-.23.21.21,0,0,1,.16-.08.21.21,0,0,1,.17.08.31.31,0,0,1,.07.24v.8a.37.37,0,0,1-.07.25.24.24,0,0,1-.17.06.28.28,0,0,1-.16,0,.4.4,0,0,1-.07-.21.75.75,0,0,0-.35-.54,2,2,0,0,0-1.21-.32,2,2,0,0,0-1.22.32.69.69,0,0,0-.32.53.64.64,0,0,0,.38.56,3.13,3.13,0,0,0,1,.24,6,6,0,0,1,1.35.24,1.67,1.67,0,0,1,.8.54,1.17,1.17,0,0,1,.27.74,1.38,1.38,0,0,1-.57,1.07,2.62,2.62,0,0,1-1.69.46,2.8,2.8,0,0,1-1.81-.56.59.59,0,0,1,0,.24.17.17,0,0,1-.07.1.28.28,0,0,1-.13,0,.24.24,0,0,1-.17-.07.33.33,0,0,1-.07-.24v-1a.29.29,0,0,1,.07-.23.21.21,0,0,1,.17-.08.23.23,0,0,1,.17.08.24.24,0,0,1,.06.17.73.73,0,0,0,.13.43,1.45,1.45,0,0,0,.62.45,3,3,0,0,0,1.05.18,2.23,2.23,0,0,0,1.35-.34,1,1,0,0,0,.45-.73.79.79,0,0,0-.45-.69,3.52,3.52,0,0,0-1.33-.35,5.84,5.84,0,0,1-1.25-.23,1.39,1.39,0,0,1-.59-.44,1,1,0,0,1-.21-.62,1.07,1.07,0,0,1,.59-1,2.73,2.73,0,0,1,1.41-.35A2.48,2.48,0,0,1,256,306.91Zm-13.56,2.65a1.42,1.42,0,0,0-.48-1.07,1.77,1.77,0,0,0-2.38,0,1.4,1.4,0,0,0-.48,1.06,1.51,1.51,0,0,0,.48,1.11,1.77,1.77,0,0,0,2.38,0A1.5,1.5,0,0,0,242.39,309.56Zm-.12-3.35a1.35,1.35,0,0,0-.46-1,1.51,1.51,0,0,0-1.09-.44,1.53,1.53,0,0,0-1.1.44,1.37,1.37,0,0,0-.45,1,1.31,1.31,0,0,0,.44,1,1.6,1.6,0,0,0,1.11.41,1.54,1.54,0,0,0,1.09-.41A1.24,1.24,0,0,0,242.27,306.21Zm-.6,1.59a2,2,0,0,1,.88.76,1.76,1.76,0,0,1,.31,1,2,2,0,0,1-.63,1.44,2.21,2.21,0,0,1-3,0,2,2,0,0,1-.62-1.44,1.75,1.75,0,0,1,.3-1,2.09,2.09,0,0,1,.89-.76,2.56,2.56,0,0,1-.75-.61,1.7,1.7,0,0,1-.32-1,1.82,1.82,0,0,1,.59-1.34,2.05,2.05,0,0,1,2.86,0,1.79,1.79,0,0,1,.59,1.34,1.7,1.7,0,0,1-.32,1A2.32,2.32,0,0,1,241.67,307.8Zm-6.13,1.76a1.45,1.45,0,0,0-.47-1.07,1.78,1.78,0,0,0-2.39,0,1.43,1.43,0,0,0-.47,1.06,1.54,1.54,0,0,0,.47,1.11,1.68,1.68,0,0,0,1.2.46,1.64,1.64,0,0,0,1.19-.46A1.53,1.53,0,0,0,235.54,309.56Zm-.12-3.35a1.38,1.38,0,0,0-.45-1,1.58,1.58,0,0,0-2.19,0,1.37,1.37,0,0,0-.45,1,1.27,1.27,0,0,0,.44,1,1.6,1.6,0,0,0,1.11.41,1.55,1.55,0,0,0,1.09-.41A1.26,1.26,0,0,0,235.42,306.21Zm-.59,1.59a2,2,0,0,1,.88.76,1.75,1.75,0,0,1,.3,1,2,2,0,0,1-.63,1.44,2.07,2.07,0,0,1-1.5.6,2.11,2.11,0,0,1-1.52-.6,2,2,0,0,1-.62-1.44,1.75,1.75,0,0,1,.3-1,2,2,0,0,1,.89-.76,2.44,2.44,0,0,1-.75-.61,1.63,1.63,0,0,1-.32-1,1.82,1.82,0,0,1,.59-1.34,2.05,2.05,0,0,1,2.86,0,1.82,1.82,0,0,1,.59,1.34,1.64,1.64,0,0,1-.33,1A2.27,2.27,0,0,1,234.83,307.8Z" transform="translate(-122.67 -141.47)"/>
    <path d="M187.32,304.65h-.66l.89-3h1Z" transform="translate(-122.67 -141.47)"/>
  </g>
</svg>
