<svg xmlns="http://www.w3.org/2000/svg" xmlns:xlink="http://www.w3.org/1999/xlink" width="96.94" height="115.56" viewBox="0 0 96.94 115.56">
  <defs>
    <style>
      .cls-1, .cls-21, .cls-24, .cls-5 {
        fill: none;
      }

      .cls-2 {
        fill: #7f8587;
      }

      .cls-3 {
        fill: url(#linear-gradient);
      }

      .cls-4 {
        fill: url(#linear-gradient-2);
      }

      .cls-10, .cls-11, .cls-13, .cls-21, .cls-24, .cls-5, .cls-6, .cls-8, .cls-9 {
        stroke: #000;
      }

      .cls-10, .cls-11, .cls-13, .cls-5, .cls-6, .cls-8 {
        stroke-linejoin: round;
      }

      .cls-13, .cls-24, .cls-5, .cls-6, .cls-8 {
        stroke-width: 0.5px;
      }

      .cls-6 {
        fill: #7cb2c9;
      }

      .cls-7 {
        fill: #c4dbe5;
      }

      .cls-9 {
        fill: #fda452;
      }

      .cls-10, .cls-11, .cls-21, .cls-9 {
        stroke-width: 0.3px;
      }

      .cls-10 {
        fill: #ca0127;
      }

      .cls-11 {
        fill: #fb2b34;
      }

      .cls-12 {
        clip-path: url(#clip-path);
      }

      .cls-13 {
        fill: #dbdbdb;
      }

      .cls-14, .cls-15 {
        fill: #fff;
      }

      .cls-15, .cls-16, .cls-17, .cls-18, .cls-19 {
        fill-rule: evenodd;
      }

      .cls-16 {
        fill: #fbafc5;
      }

      .cls-17 {
        fill: #fda655;
      }

      .cls-19 {
        fill: #96c749;
      }

      .cls-20 {
        font-size: 7px;
      }

      .cls-20, .cls-25 {
        font-family: ArialMT, Arial;
      }

      .cls-21 {
        stroke-miterlimit: 10;
      }

      .cls-22 {
        font-size: 9px;
        fill: #141011;
        font-family: Humanist521BT-BoldCondensed, Humanst521 Cn BT;
        font-weight: 700;
      }

      .cls-23 {
        letter-spacing: -0.02em;
      }

      .cls-25 {
        font-size: 10px;
      }
    </style>
    <linearGradient id="linear-gradient" x1="24.43" y1="59.6" x2="24.43" y2="83.88" gradientUnits="userSpaceOnUse">
      <stop offset="0" stop-color="#797d7e"/>
      <stop offset="0.06" stop-color="#979a9b"/>
      <stop offset="0.15" stop-color="#bcbebf"/>
      <stop offset="0.24" stop-color="#d9dbdb"/>
      <stop offset="0.33" stop-color="#eeefef"/>
      <stop offset="0.42" stop-color="#fbfbfb"/>
      <stop offset="0.5" stop-color="#fff"/>
    </linearGradient>
    <linearGradient id="linear-gradient-2" x1="24.34" y1="73.26" x2="24.34" y2="83.88" gradientUnits="userSpaceOnUse">
      <stop offset="0" stop-color="#eef0f0"/>
      <stop offset="1" stop-color="#cccfd0"/>
    </linearGradient>
    <clipPath id="clip-path" transform="translate(-249.91 -116.16)">
      <rect class="cls-1" x="256.36" y="143.97" width="35.78" height="21.8"/>
    </clipPath>
  </defs>
  <g id="Layer_2" data-name="Layer 2">
    <g>
      <g>
        <path class="cls-2" d="M296.44,176.15a1.3,1.3,0,0,0-1.31-1.38H253.35a1.3,1.3,0,0,0-1.31,1.38L253.35,200a1.5,1.5,0,0,0,1.47,1.38h38.85a1.48,1.48,0,0,0,1.46-1.38Z" transform="translate(-249.91 -116.16)"/>
        <polygon class="cls-3" points="4.8 83.88 3.42 59.6 45.43 59.6 43.87 83.88 4.8 83.88"/>
        <polygon class="cls-4" points="4.95 83.88 7.49 73.26 41.37 73.26 43.72 83.88 4.95 83.88"/>
        <path class="cls-5" d="M296.44,174.42a1.3,1.3,0,0,0-1.31-1.38H253.35a1.3,1.3,0,0,0-1.31,1.38L253.35,200a1.5,1.5,0,0,0,1.47,1.38h38.85a1.48,1.48,0,0,0,1.46-1.38Z" transform="translate(-249.91 -116.16)"/>
      </g>
      <polygon class="cls-6" points="0.4 54.8 1.03 58.61 47.64 58.61 48.27 54.8 0.4 54.8"/>
      <g>
        <path class="cls-7" d="M294.25,160.63a1.61,1.61,0,0,0-1.37-.93H255.61a1.59,1.59,0,0,0-1.37.93l-4,10.09a.63.63,0,0,0,.63.93h46.78a.63.63,0,0,0,.63-.93Z" transform="translate(-249.91 -116.16)"/>
        <path class="cls-5" d="M294.25,160.63a1.61,1.61,0,0,0-1.37-.93H255.61a1.59,1.59,0,0,0-1.37.93l-4,10.09a.63.63,0,0,0,.63.93h46.78a.63.63,0,0,0,.63-.93Z" transform="translate(-249.91 -116.16)"/>
      </g>
      <polygon class="cls-8" points="6.34 48.74 5.73 50.28 42.95 50.28 42.33 48.74 6.34 48.74"/>
      <g>
        <path class="cls-9" d="M271.67,190.27l2,1.86c1.67-1.93,2.45-7.94,2.45-16.37h-3.53C272.57,184.37,272.56,189.25,271.67,190.27Z" transform="translate(-249.91 -116.16)"/>
        <path class="cls-9" d="M266.46,190l1.28,2.43c3.56-2,4.49-9.21,4.49-16.66h-3.52C268.71,178.92,269.14,188.45,266.46,190Z" transform="translate(-249.91 -116.16)"/>
        <path class="cls-9" d="M261.16,189.9l.92,2.6c5.93-2.26,6.37-12,6.37-16.74h-3.52C264.93,179.53,265.35,188.3,261.16,189.9Z" transform="translate(-249.91 -116.16)"/>
        <path class="cls-9" d="M255.83,189.86l.7,2.68c7.73-2.21,8.18-12.4,8.18-16.78h-3.53C261.18,179.82,261.61,188.21,255.83,189.86Z" transform="translate(-249.91 -116.16)"/>
        <path class="cls-9" d="M282.05,190l-1.28,2.43c-3.56-2-4.5-9.21-4.5-16.66h3.53C279.8,178.92,279.37,188.45,282.05,190Z" transform="translate(-249.91 -116.16)"/>
        <path class="cls-9" d="M287.35,189.9l-.91,2.6c-5.94-2.26-6.39-12-6.39-16.74h3.54C283.59,179.53,283.16,188.3,287.35,189.9Z" transform="translate(-249.91 -116.16)"/>
        <path class="cls-9" d="M292.68,189.86l-.7,2.68c-7.73-2.21-8.18-12.4-8.18-16.78h3.53C287.33,179.82,286.9,188.21,292.68,189.86Z" transform="translate(-249.91 -116.16)"/>
      </g>
      <path class="cls-10" d="M276.06,169c0,.56-.81,1-1.81,1s-1.83-.45-1.83-1,.82-1,1.83-1S276.06,168.4,276.06,169Z" transform="translate(-249.91 -116.16)"/>
      <path class="cls-11" d="M276.06,168.48c0,.55-.81,1-1.81,1s-1.83-.46-1.83-1,.82-1,1.83-1S276.06,167.92,276.06,168.48Z" transform="translate(-249.91 -116.16)"/>
      <g class="cls-12">
        <rect class="cls-13" x="7.28" y="30.78" width="34.11" height="37.66"/>
        <rect class="cls-14" x="8.89" y="32.39" width="30.89" height="34.45"/>
        <g>
          <path class="cls-15" d="M263.75,148.55h22a49.09,49.09,0,0,0-5.71.8,35.8,35.8,0,0,0-10.49,0A57.51,57.51,0,0,0,263.75,148.55Z" transform="translate(-249.91 -116.16)"/>
          <path class="cls-16" d="M261.36,149.23c1.93-.22,3.35,1.06,4.44,2.06a4.12,4.12,0,0,0-.68,1.82c.07.34.24-.11.45,0-.19.18,0,.72-.45.68A7.94,7.94,0,0,0,261.36,149.23Z" transform="translate(-249.91 -116.16)"/>
          <path class="cls-17" d="M263.18,149.23c1.67-.3,3.46.27,5.13.35-.58.52-2.14.66-2.05,1.48C265.46,150.67,264.62,149.36,263.18,149.23Z" transform="translate(-249.91 -116.16)"/>
          <path class="cls-18" d="M275.27,152.09c0,.74-.28,2.16.11,3.07A3.44,3.44,0,0,1,275.27,152.09Z" transform="translate(-249.91 -116.16)"/>
          <path class="cls-18" d="M273.67,157.22c-.29.1-1.05,0-1.14-.23-.94,1.77-4.59,1.8-5-.46-.46,0-.79.2-1.25.23C267.92,155.12,272.24,155.94,273.67,157.22Zm-1.82-.46c-.66.46-1.58,1.17-2.62.57-.31-.23-.25-.82-.69-.91h-.46C268.05,158.37,271.54,158.53,271.85,156.76Z" transform="translate(-249.91 -116.16)"/>
          <path class="cls-18" d="M283.25,156.65c-.33.32-.8-.18-1.25-.12-.45,2.15-4.12,2.35-5,.46,0,.29-.59.13-1.14.34C277.13,155.78,281.4,155.3,283.25,156.65Zm-2.5-.23a1.49,1.49,0,0,1-1.26,1.14c-.87.09-1.25-.63-1.94-.8.44,1.69,3.67,1.6,3.88-.23A.94.94,0,0,0,280.75,156.42Z" transform="translate(-249.91 -116.16)"/>
          <path class="cls-19" d="M268.08,156.42h.46c.44.09.38.68.69.91,1,.6,2-.11,2.62-.57C271.54,158.53,268.05,158.37,268.08,156.42Z" transform="translate(-249.91 -116.16)"/>
          <path class="cls-19" d="M281.43,156.53c-.21,1.83-3.44,1.92-3.88.23.69.17,1.07.89,1.94.8a1.49,1.49,0,0,0,1.26-1.14A.94.94,0,0,1,281.43,156.53Z" transform="translate(-249.91 -116.16)"/>
          <path class="cls-18" d="M275.84,158.36c.37.71-.85.51-1,1,1.17.32,2.47.51,2.85,1.6-1.33-1.35-4.57-1.27-5.92,0,.44-1,1.7-1.26,2.85-1.6-.13-.44-.82-.31-1-.68v-.34A4.63,4.63,0,0,1,275.84,158.36Zm-1.25.57c.19-.62-.4-.45-.8-.46C273.85,158.83,274.31,158.79,274.59,158.93Zm.22,0a1.11,1.11,0,0,0,.92-.46h-.92Z" transform="translate(-249.91 -116.16)"/>
          <path class="cls-16" d="M273.79,158.47c.4,0,1-.16.8.46C274.31,158.79,273.85,158.83,273.79,158.47Z" transform="translate(-249.91 -116.16)"/>
          <path class="cls-16" d="M274.81,158.47h.92a1.11,1.11,0,0,1-.92.46Z" transform="translate(-249.91 -116.16)"/>
          <path class="cls-18" d="M269.45,159.16c.16-.26.8,0,1.14-.12C270.43,159.3,269.8,159.09,269.45,159.16Z" transform="translate(-249.91 -116.16)"/>
          <path class="cls-18" d="M278.92,159.16c.23-.27.95,0,1.37-.12C280.06,159.3,279.34,159.08,278.92,159.16Z" transform="translate(-249.91 -116.16)"/>
          <path class="cls-18" d="M272.53,159.27a10.27,10.27,0,0,1-3,.91A5.86,5.86,0,0,1,272.53,159.27Z" transform="translate(-249.91 -116.16)"/>
          <path class="cls-18" d="M276.07,164a8.44,8.44,0,0,1-2.4.11c-.73-.1,1.12-.06,1.6-.23S275.67,164,276.07,164Z" transform="translate(-249.91 -116.16)"/>
          <path class="cls-17" d="M270.48,174.78c-.81.52-1.06,1.61-1.37,2.63C268,176.93,269.11,174.5,270.48,174.78Z" transform="translate(-249.91 -116.16)"/>
          <path class="cls-17" d="M279,174.9c0-.11.13-.09.23-.12a1.91,1.91,0,0,1,.91.35c.52.46,1,1.89.22,2.28C280,176.86,280,175.25,279,174.9Z" transform="translate(-249.91 -116.16)"/>
          <path class="cls-17" d="M286.68,175.24c.48-.34,1.24,1,.45,1.25C286.9,176.16,287.05,175.44,286.68,175.24Z" transform="translate(-249.91 -116.16)"/>
          <path class="cls-15" d="M261.36,148.55c-.25.21-.84.07-1,.34,1.86,1.41,4.46,3,4.56,5.93.05,1.46-.8,2.83-.57,4.68,0,.48.48-.08.57.23a2.1,2.1,0,0,0,.8,1.94c.24.05.22-.17.23-.34a16.3,16.3,0,0,1,1.59,1.13c0,2.48-1.28,3.66-1.71,5.71-3.14-1.54-5.65,2-3.88,4.68-.79,1-1.95,1.69-2.5,3,.29.06,1-.47,1.37-.68-.17.83-1.09,2.91-.24,4.1.33-.06.22-.55.35-.8.4,1,.74,2.15,1.71,2.63.27-.1,0-.59-.11-.69,1.17.85,2.46,2.56,4.9,2.51.1-.22-.57-.64-.91-.8,1.33.09,3.37,1.23,5.13.58a1.78,1.78,0,0,0-.91-.35,14.11,14.11,0,0,0,7.53-2.05c-.09-.26-.64,0-.92-.11.72-.24,1.51-.4,2.17-.69a32.58,32.58,0,0,0-4.22-.8c0-.15.29-.09.46-.11-.21-.44-.88-.42-1.48-.46a2.12,2.12,0,0,0,.45-1.48,3.2,3.2,0,0,1,.23,1.14c1.65,1.15,4.45,0,6.16-.23,2.43-.34,6.94.71,7-1.6,0-.85-.79-1.21-1.6-1.48.56-1,1.69-2.08,1.71-3.65,0-2.12-2.1-3.63-4.45-2.62-.48-2-1.75-3.19-1.71-5.71.49-.33,1.31-1.42,1.71-.79a2.17,2.17,0,0,0,.91-2.06c.22-.11.39.34.46,0,.48-1.82-.62-3.28-.57-4.79.09-2.84,2.82-4.39,4.56-5.93-.11-.26-.52-.23-.91-.23v-.11h1V183H259.3V148.55Z" transform="translate(-249.91 -116.16)"/>
          <path class="cls-17" d="M281.2,149.69a22.71,22.71,0,0,1,5-.57,6.2,6.2,0,0,0-2.85,2C283.31,150.43,282.06,150,281.2,149.69Z" transform="translate(-249.91 -116.16)"/>
          <path class="cls-16" d="M283.83,153.11c.06-.33.17.18.34.12.35-.56-.18-1.32-.46-1.94a6.25,6.25,0,0,1,4.34-2.17,9.25,9.25,0,0,0-3.77,4.79C284.05,153.72,284.1,153.25,283.83,153.11Z" transform="translate(-249.91 -116.16)"/>
          <path class="cls-17" d="M282.23,150.71c.48.33.93.67,1.37,1,0,.23-.33,0-.35-.11-.25.23.53.38.46.8-.23,0-.22-.31-.46-.34a23.37,23.37,0,0,1,1.49,7.07c-.67.17-.32,1.35-.69,1.82-.28-.11.16-.44,0-.8-.47.55-.83,1.22-1.59,1.49.19-.31.48-.51.68-.8a15.07,15.07,0,0,1-7.41,2.74,10.28,10.28,0,0,0,5.81-1.26c0,3.72,3.56,8.17.58,11.52.07.25.37-.22.45-.34.36.18-.23.36-.23.57a5.67,5.67,0,0,0,1.49-5.59c3.88-1.54,4.51,3.75,2.28,5.36-.54,0-.74-.22-1.14,0,.11.19.48.13.68.23-.23.26-.95,0-1.37.11,1.33.31,2.7.57,2.4,2.51a4,4,0,0,1-1.26.23c-.09-1.2-.34-2.25-1.48-2.39a2.09,2.09,0,0,1,1.14,2.5,37.22,37.22,0,0,1-3.76.23c.14-1.89-.68-2.82-2.17-3.08-.09-.94-.3-1.75-.35-2.74.38-.69,1.1-1,1-2.16a5.36,5.36,0,0,1-.91,1.37c-.16,0-.09-.29-.12-.46a7.2,7.2,0,0,0-.22,4.11,3.33,3.33,0,0,0-1.48,1.14c.55-.13.94-.43,1.48-.57a3,3,0,0,1,1.25,2.51,1.22,1.22,0,0,1-1,.34,2.29,2.29,0,0,0-1-2.28,2.26,2.26,0,0,1,.46,2.16,5.4,5.4,0,0,1-2.86-.11c-.31-2.42-.27-5.2-.79-7.41a70.5,70.5,0,0,1-.57,7.52,8.32,8.32,0,0,1-2.86,0,2.42,2.42,0,0,1,.46-2,2,2,0,0,0-.91,2.17c-.52.1-.65-.19-1-.23,0-1.26.37-2.22,1.26-2.62a6.2,6.2,0,0,1,1.25.57c0-.39-.79-1-1.37-1.14a7.74,7.74,0,0,0-.11-4.22c-.25,0,0,.4-.12.57-.3-.42-.77-.68-.79-1.37a1.85,1.85,0,0,0,.91,2.05,18.65,18.65,0,0,1-.46,2.85,2.45,2.45,0,0,0-2.05,3.08,15.12,15.12,0,0,1-3.88-.34c0-1.21.22-2.14,1.25-2.28-1.05-.26-1.48,1.09-1.48,2.28a3.92,3.92,0,0,1-1.25-.23c-.45-1.61.83-2.42,2.39-2.39-.23-.26-.94,0-1.37-.12,0-.25.29-.24.57-.22-.14-.49-.61,0-1-.12-2.31-1.63-1.69-6.83,2.28-5.36a5.75,5.75,0,0,0,1.37,5.59c.25-.08-.22-.38-.34-.46.1-.31.25.26.45.23a7.76,7.76,0,0,1-1-4.33c.24-2.58,2-4.37,1.83-7.19a11.32,11.32,0,0,0,5.7,1.37c-2.65-.69-5.54-1.16-7.18-2.85-.13.13.33.64.57.8-.5-.08-1.24-.89-1.6-1.49-.31.11.16.36,0,.69-.42-.4-.21-1.84-.68-1.83a18.41,18.41,0,0,1,1.48-6.84c0-.24-.35.16-.46.23-.12-.1.21-.7.57-.69-.72,0,.36-.83.92-.91-.12-.32-.49,0-.69,0,4.14-1.8,12-1.62,16.31-.12C282.77,151.06,282.52,150.59,282.23,150.71Zm-6.85,4.45c-.39-.91-.08-2.33-.11-3.07A3.44,3.44,0,0,0,275.38,155.16Zm-1.13-.45c-.46.9.12.26.22-.46a3,3,0,0,0-.34-2.05A12.54,12.54,0,0,1,274.25,154.71Zm-8,2c.46,0,.79-.19,1.25-.23.43,2.26,4.08,2.23,5,.46.09.24.85.33,1.14.23C272.24,155.94,267.92,155.12,266.26,156.76Zm9.58.57c.55-.21,1.14-.05,1.14-.34.9,1.89,4.57,1.69,5-.46.45-.06.92.44,1.25.12C281.4,155.3,277.13,155.78,275.84,157.33Zm-2.28,1v.34c.21.37.9.24,1,.68-1.15.34-2.41.56-2.85,1.6,1.35-1.27,4.59-1.35,5.92,0-.38-1.09-1.68-1.28-2.85-1.6.18-.51,1.4-.31,1-1A4.63,4.63,0,0,0,273.56,158.36Zm6.73.23c-.76.35-1.9-.14-2.28-.12C278.49,158.73,279.76,159.09,280.29,158.59Zm-11.29,0a2.28,2.28,0,0,0,2.28-.12A5,5,0,0,1,269,158.59Zm1.59.45c-.34.07-1-.14-1.14.12C269.8,159.09,270.43,159.3,270.59,159Zm9.7,0c-.42.07-1.14-.15-1.37.12C279.34,159.08,280.06,159.3,280.29,159Zm-10.72,1.14a10.27,10.27,0,0,0,3-.91A5.86,5.86,0,0,0,269.57,160.18Zm10.38,0c.31,0,.16,0-.12-.11a4.9,4.9,0,0,0-3-.69A29.87,29.87,0,0,0,280,160.18Zm-10.5,1.49c.86-.75,2-1.18,2.85-1.94A5.38,5.38,0,0,0,269.45,161.67Zm10.73-.12c-1-.52-1.82-1.76-3-1.71C278.21,160.32,279.25,161.37,280.18,161.55Zm-6.39.57c.43,0,1-.4.8-.57C274.4,161.82,274,161.88,273.79,162.12Zm1.94,0c-.34-.05-.73-.63-.92-.45C275,161.88,275.38,162.46,275.73,162.12Zm-1.48.46c.31-.37.71-.1,1.13,0C275.44,162,273.87,162.24,274.25,162.58Zm1,1.25c-.48.17-2.33.13-1.6.23a8.44,8.44,0,0,0,2.4-.11C275.67,164,275.63,163.78,275.27,163.83Z" transform="translate(-249.91 -116.16)"/>
          <path class="cls-18" d="M261.36,148.55h2.39a57.51,57.51,0,0,1,5.82.8,35.8,35.8,0,0,1,10.49,0,49.09,49.09,0,0,1,5.71-.8h2.39v.11c.39,0,.8,0,.91.23-1.74,1.54-4.47,3.09-4.56,5.93-.05,1.51,1.05,3,.57,4.79-.07.34-.24-.11-.46,0a2.17,2.17,0,0,1-.91,2.06c-.4-.63-1.22.46-1.71.79,0,2.52,1.23,3.72,1.71,5.71,2.35-1,4.47.5,4.45,2.62,0,1.57-1.15,2.65-1.71,3.65.81.27,1.6.63,1.6,1.48,0,2.31-4.53,1.26-7,1.6-1.71.24-4.51,1.38-6.16.23a3.2,3.2,0,0,0-.23-1.14,2.12,2.12,0,0,1-.45,1.48c.6,0,1.27,0,1.48.46-.17,0-.42,0-.46.11a32.58,32.58,0,0,1,4.22.8c-.66.29-1.45.45-2.17.69.28.06.83-.15.92.11a14.11,14.11,0,0,1-7.53,2.05,1.78,1.78,0,0,1,.91.35c-1.76.65-3.8-.49-5.13-.58.34.16,1,.58.91.8-2.44.05-3.73-1.66-4.9-2.51.1.1.38.59.11.69-1-.48-1.31-1.58-1.71-2.63-.13.25,0,.74-.35.8-.85-1.19.07-3.27.24-4.1-.4.21-1.08.74-1.37.68.55-1.27,1.71-1.94,2.5-3-1.77-2.7.74-6.22,3.88-4.68.43-2,1.72-3.23,1.71-5.71a16.3,16.3,0,0,0-1.59-1.13c0,.17,0,.39-.23.34a2.1,2.1,0,0,1-.8-1.94c-.09-.31-.54.25-.57-.23-.23-1.85.62-3.22.57-4.68-.1-2.89-2.7-4.52-4.56-5.93C260.52,148.62,261.11,148.76,261.36,148.55Zm21.55,2.16c-4.32-1.5-12.17-1.68-16.31.12.2,0,.57-.32.69,0-.56.08-1.64.93-.92.91-.36,0-.69.59-.57.69.11-.07.42-.47.46-.23a18.41,18.41,0,0,0-1.48,6.84c.47,0,.26,1.43.68,1.83.16-.33-.31-.58,0-.69.36.6,1.1,1.41,1.6,1.49-.24-.16-.7-.67-.57-.8,1.64,1.69,4.53,2.16,7.18,2.85a11.32,11.32,0,0,1-5.7-1.37c.19,2.82-1.59,4.61-1.83,7.19a7.76,7.76,0,0,0,1,4.33c-.2,0-.35-.54-.45-.23.12.08.59.38.34.46a5.75,5.75,0,0,1-1.37-5.59c-4-1.47-4.59,3.73-2.28,5.36.41.08.88-.37,1,.12-.28,0-.55,0-.57.22.43.08,1.14-.14,1.37.12-1.56,0-2.84.78-2.39,2.39a3.92,3.92,0,0,0,1.25.23c0-1.19.43-2.54,1.48-2.28-1,.14-1.28,1.07-1.25,2.28a15.12,15.12,0,0,0,3.88.34,2.45,2.45,0,0,1,2.05-3.08,18.65,18.65,0,0,0,.46-2.85,1.85,1.85,0,0,1-.91-2.05c0,.69.49.95.79,1.37.07-.17-.13-.59.12-.57a7.74,7.74,0,0,1,.11,4.22c.58.18,1.37.75,1.37,1.14a6.2,6.2,0,0,0-1.25-.57c-.89.4-1.23,1.36-1.26,2.62.38,0,.51.33,1,.23a2,2,0,0,1,.91-2.17,2.42,2.42,0,0,0-.46,2,8.32,8.32,0,0,0,2.86,0,70.5,70.5,0,0,0,.57-7.52c.52,2.21.48,5,.79,7.41a5.4,5.4,0,0,0,2.86.11,2.26,2.26,0,0,0-.46-2.16,2.29,2.29,0,0,1,1,2.28,1.22,1.22,0,0,0,1-.34,3,3,0,0,0-1.25-2.51c-.54.14-.93.44-1.48.57a3.33,3.33,0,0,1,1.48-1.14,7.2,7.2,0,0,1,.22-4.11c0,.17,0,.42.12.46a5.36,5.36,0,0,0,.91-1.37c.07,1.13-.65,1.47-1,2.16.05,1,.26,1.8.35,2.74,1.49.26,2.31,1.19,2.17,3.08a37.22,37.22,0,0,0,3.76-.23,2.09,2.09,0,0,0-1.14-2.5c1.14.14,1.39,1.19,1.48,2.39a4,4,0,0,0,1.26-.23c.3-1.94-1.07-2.2-2.4-2.51.42-.07,1.14.15,1.37-.11-.2-.1-.57,0-.68-.23.4-.22.6,0,1.14,0,2.23-1.61,1.6-6.9-2.28-5.36a5.67,5.67,0,0,1-1.49,5.59c0-.21.59-.39.23-.57-.08.12-.38.59-.45.34,3-3.35-.6-7.8-.58-11.52a10.28,10.28,0,0,1-5.81,1.26,15.07,15.07,0,0,0,7.41-2.74c-.2.29-.49.49-.68.8.76-.27,1.12-.94,1.59-1.49.16.36-.28.69,0,.8.37-.47,0-1.65.69-1.82a23.37,23.37,0,0,0-1.49-7.07c.24,0,.23.3.46.34.07-.42-.71-.57-.46-.8,0,.09.38.34.35.11-.44-.36-.89-.7-1.37-1C282.52,150.59,282.77,151.06,282.91,150.71Zm-17.79,3.08c.41,0,.26-.5.45-.68-.21-.11-.38.34-.45,0a4.12,4.12,0,0,1,.68-1.82c-1.09-1-2.51-2.28-4.44-2.06A7.94,7.94,0,0,1,265.12,153.79Zm1.14-2.73c-.09-.82,1.47-1,2.05-1.48-1.67-.08-3.46-.65-5.13-.35C264.62,149.36,265.46,150.67,266.26,151.06Zm17.11.11a6.2,6.2,0,0,1,2.85-2,22.71,22.71,0,0,0-5,.57C282.06,150,283.31,150.43,283.37,151.17Zm.91,2.74a9.25,9.25,0,0,1,3.77-4.79,6.25,6.25,0,0,0-4.34,2.17c.28.62.81,1.38.46,1.94-.17.06-.28-.45-.34-.12C284.1,153.25,284.05,153.72,284.28,153.91Zm-18,28.4a3.15,3.15,0,0,1-1-1.6,7.84,7.84,0,0,0,4.57,1.6c-.49-.17-1.3-.6-1.26-.91a11.49,11.49,0,0,0,7.87-.8,2.91,2.91,0,0,1-1.37-.34,20.27,20.27,0,0,0,2.86-.8c-1.58-.36-3.45-.44-5-.8.08-.16.44,0,.46-.23-1.3-.08-2.82.22-3.76.12,0-.27.33-.13.34-.34a11.93,11.93,0,0,1-3.31.11c.35-.15.82-.17.91-.57-2.11-.18-6.47.06-6-2.17.15-.77,1.09-.84,1.71-1.37-.35-.18-.71-.35-.8-.8a4.75,4.75,0,0,0-1.48,1.26,7.63,7.63,0,0,1,1-.23,4.23,4.23,0,0,0-1.13,3.31c0-.27.11-.49.34-.57a6.13,6.13,0,0,0,.79,2.62c.08-.34-.14-1,.12-1.14A6.87,6.87,0,0,0,266.26,182.31Zm2.85-4.9c.31-1,.56-2.11,1.37-2.63C269.11,174.5,268,176.93,269.11,177.41Zm11.29,0c.74-.39.3-1.82-.22-2.28a1.91,1.91,0,0,0-.91-.35c-.1,0-.23,0-.23.12C280,175.25,280,176.86,280.4,177.41ZM261.92,176c.15.19.24.45.58.45-.18-.67.35-1.23.22-1.48C262.47,175.37,262,175.45,261.92,176Zm25.21.45c.79-.27,0-1.59-.45-1.25C287.05,175.44,286.9,176.16,287.13,176.49ZM268.43,178c0-.33.78.1.8-.23C268.86,177.58,268.19,177.68,268.43,178Z" transform="translate(-249.91 -116.16)"/>
          <path class="cls-18" d="M274.13,152.2a3,3,0,0,1,.34,2.05c-.1.72-.68,1.36-.22.46A12.54,12.54,0,0,0,274.13,152.2Z" transform="translate(-249.91 -116.16)"/>
          <path class="cls-18" d="M278,158.47c.38,0,1.52.47,2.28.12C279.76,159.09,278.49,158.73,278,158.47Z" transform="translate(-249.91 -116.16)"/>
          <path class="cls-18" d="M271.28,158.47a2.28,2.28,0,0,1-2.28.12A5,5,0,0,0,271.28,158.47Z" transform="translate(-249.91 -116.16)"/>
          <path class="cls-18" d="M276.87,159.38a4.9,4.9,0,0,1,3,.69c.28.15.43.13.12.11A29.87,29.87,0,0,1,276.87,159.38Z" transform="translate(-249.91 -116.16)"/>
          <path class="cls-18" d="M272.3,159.73c-.84.76-2,1.19-2.85,1.94A5.38,5.38,0,0,1,272.3,159.73Z" transform="translate(-249.91 -116.16)"/>
          <path class="cls-18" d="M277.21,159.84c1.15-.05,2,1.19,3,1.71C279.25,161.37,278.21,160.32,277.21,159.84Z" transform="translate(-249.91 -116.16)"/>
          <path class="cls-18" d="M274.59,161.55c.16.17-.37.62-.8.57C274,161.88,274.4,161.82,274.59,161.55Z" transform="translate(-249.91 -116.16)"/>
          <path class="cls-18" d="M274.81,161.67c.19-.18.58.4.92.45C275.38,162.46,275,161.88,274.81,161.67Z" transform="translate(-249.91 -116.16)"/>
          <path class="cls-18" d="M275.38,162.58c-.42-.1-.82-.37-1.13,0C273.87,162.24,275.44,162,275.38,162.58Z" transform="translate(-249.91 -116.16)"/>
          <path class="cls-17" d="M262,178.66c-.26.16,0,.8-.12,1.14a6.13,6.13,0,0,1-.79-2.62c-.23.08-.31.3-.34.57a4.23,4.23,0,0,1,1.13-3.31,7.63,7.63,0,0,0-1,.23,4.75,4.75,0,0,1,1.48-1.26c.09.45.45.62.8.8-.62.53-1.56.6-1.71,1.37-.43,2.23,3.93,2,6,2.17-.09.4-.56.42-.91.57a11.93,11.93,0,0,0,3.31-.11c0,.21-.38.07-.34.34.94.1,2.46-.2,3.76-.12,0,.21-.38.07-.46.23,1.58.36,3.45.44,5,.8a20.27,20.27,0,0,1-2.86.8,2.91,2.91,0,0,0,1.37.34,11.49,11.49,0,0,1-7.87.8c0,.31.77.74,1.26.91a7.84,7.84,0,0,1-4.57-1.6,3.15,3.15,0,0,0,1,1.6A6.87,6.87,0,0,1,262,178.66Z" transform="translate(-249.91 -116.16)"/>
          <path class="cls-15" d="M262.72,175c.13.25-.4.81-.22,1.48-.34,0-.43-.26-.58-.45C262,175.45,262.47,175.37,262.72,175Z" transform="translate(-249.91 -116.16)"/>
          <path class="cls-15" d="M269.23,177.75c0,.33-.79-.1-.8.23C268.19,177.68,268.86,177.58,269.23,177.75Z" transform="translate(-249.91 -116.16)"/>
        </g>
        <rect class="cls-5" x="8.89" y="32.39" width="30.89" height="34.45"/>
      </g>
      <rect x="11.95" y="60.98" width="0.73" height="2.66"/>
      <polygon points="17 61.34 15.8 65.19 16.63 66.3 16.63 64.28 17 61.34"/>
      <polygon points="19.47 71.62 20.76 67.77 19.75 67.67 19.47 71.62"/>
      <polygon points="19.84 61.44 19.84 63.91 20.57 63.55 20.48 61.71 19.84 61.44"/>
      <path d="M274.33,182.27c-.45.19-.45,2.11-.64,2.39a26.16,26.16,0,0,0-.46,3.3l1.29-3.49Z" transform="translate(-249.91 -116.16)"/>
      <polygon points="28.09 63.45 27.45 66.3 28.28 67.03 28.46 68.86 28.74 65.01 28.09 63.45"/>
      <polygon points="32.04 60.52 31.21 62.26 31.76 65.19 32.41 63.27 31.86 61.89 32.04 60.52"/>
      <path d="M287.18,186.12a11.87,11.87,0,0,0,1.37,2.11,8.76,8.76,0,0,1,1.29,1.47l-.74.55-1.37-1.56Z" transform="translate(-249.91 -116.16)"/>
      <path d="M259.29,188.69l-1.84,1.38s-.18.92.09.92,1.66-1.29,1.66-1.29Z" transform="translate(-249.91 -116.16)"/>
    </g>
    <text class="cls-20" transform="translate(11.31 83.14)">SHA256</text>
    <g>
      <path class="cls-21" d="M283.09,123c10.6,0,14.82,8,25.53,8" transform="translate(-249.91 -116.16)"/>
      <polygon points="33.73 8.68 30.49 6.81 33.73 4.94 33.73 8.68"/>
    </g>
    <g>
      <path class="cls-21" d="M283.08,224.68c10.59,0,14.81-8,25.52-8" transform="translate(-249.91 -116.16)"/>
      <polygon points="33.72 110.38 30.48 108.51 33.72 106.64 33.72 110.38"/>
    </g>
    <text class="cls-22" transform="translate(60.42 7.57)">Johns<tspan x="0" y="9.5">geheimes</tspan><tspan class="cls-23" x="0" y="19">P</tspan><tspan x="4.47" y="19">re-Image</tspan></text>
    <text class="cls-22" transform="translate(61.41 93.92)">Hashwert,<tspan x="0" y="9.5">den beide</tspan><tspan x="0" y="19">kennen</tspan></text>
    <path d="M273.66,144.16c-.28-.95-.55-1.57-.85-2.34h2.9a22.43,22.43,0,0,0-.87,2.33,17.55,17.55,0,0,0-.6,2.54A16.76,16.76,0,0,0,273.66,144.16Z" transform="translate(-249.91 -116.16)"/>
    <line class="cls-24" x1="24.35" y1="26.29" x2="24.35" y2="12.92"/>
    <path d="M273.64,216.66a21.94,21.94,0,0,0-.85-2.33h2.91a19.93,19.93,0,0,0-.87,2.32,17.55,17.55,0,0,0-.6,2.54A17,17,0,0,0,273.64,216.66Z" transform="translate(-249.91 -116.16)"/>
    <line class="cls-24" x1="24.34" y1="98.8" x2="24.34" y2="85.42"/>
    <text class="cls-25" transform="translate(21.02 10.38)">S</text>
    <text class="cls-25" transform="translate(20.73 112.31)">H</text>
  </g>
</svg>
