<svg xmlns="http://www.w3.org/2000/svg" xmlns:xlink="http://www.w3.org/1999/xlink" width="253.25" height="150.86" viewBox="0 0 253.25 150.86">
  <defs>
    <style>
      .cls-1 {
        isolation: isolate;
      }

      .cls-2 {
        font-size: 9px;
      }

      .cls-2, .cls-23 {
        font-family: Humanist521BT-BoldCondensed, Humanst521 Cn BT;
        font-weight: 700;
      }

      .cls-3 {
        letter-spacing: -0.02em;
      }

      .cls-4 {
        letter-spacing: 0.06em;
      }

      .cls-5 {
        letter-spacing: 0em;
      }

      .cls-6 {
        fill: #fef0e8;
      }

      .cls-7 {
        font-size: 11.5px;
      }

      .cls-34, .cls-35, .cls-7 {
        font-family: Nimbus Mono PS;
      }

      .cls-23, .cls-35, .cls-8 {
        font-size: 7px;
      }

      .cls-9 {
        fill: #fda452;
      }

      .cls-13, .cls-21, .cls-22, .cls-33, .cls-9 {
        stroke: #000;
      }

      .cls-14, .cls-21, .cls-9 {
        stroke-width: 0.3px;
      }

      .cls-10 {
        fill: #fbafc5;
      }

      .cls-10, .cls-11, .cls-12 {
        fill-rule: evenodd;
      }

      .cls-11 {
        fill: #96c749;
      }

      .cls-12 {
        fill: #28708e;
      }

      .cls-13, .cls-19, .cls-20, .cls-21, .cls-22 {
        fill: none;
      }

      .cls-13, .cls-14, .cls-20, .cls-22 {
        stroke-linejoin: round;
      }

      .cls-14 {
        fill: #267520;
        stroke: #267520;
      }

      .cls-15 {
        fill: url(#linear-gradient);
      }

      .cls-16 {
        fill: url(#linear-gradient-2);
      }

      .cls-17 {
        fill: #fff;
      }

      .cls-18 {
        font-size: 3.67px;
        font-family: ArialMT, Arial;
      }

      .cls-19 {
        stroke: #4d4d4d;
      }

      .cls-19, .cls-22, .cls-33 {
        stroke-width: 0.5px;
      }

      .cls-20 {
        stroke: #e60001;
      }

      .cls-21 {
        stroke-miterlimit: 10;
      }

      .cls-23 {
        fill: #141011;
      }

      .cls-24, .cls-25, .cls-26, .cls-27, .cls-28, .cls-29, .cls-30, .cls-31, .cls-32 {
        mix-blend-mode: multiply;
      }

      .cls-24 {
        fill: url(#linear-gradient-3);
      }

      .cls-25 {
        fill: #b5b5b5;
      }

      .cls-26 {
        fill: url(#linear-gradient-4);
      }

      .cls-27 {
        fill: url(#linear-gradient-5);
      }

      .cls-28 {
        fill: url(#linear-gradient-6);
      }

      .cls-29 {
        fill: url(#linear-gradient-7);
      }

      .cls-30 {
        fill: url(#linear-gradient-8);
      }

      .cls-31 {
        fill: url(#linear-gradient-9);
      }

      .cls-32 {
        fill: url(#linear-gradient-10);
      }

      .cls-33 {
        fill: #fee5d8;
      }

      .cls-34 {
        font-size: 10px;
      }
    </style>
    <linearGradient id="linear-gradient" x1="28.21" y1="242.83" x2="47.01" y2="242.83" gradientTransform="translate(499.31 -6.95) rotate(45.85)" gradientUnits="userSpaceOnUse">
      <stop offset="0" stop-color="#5fb749"/>
      <stop offset="1" stop-color="#dbf1c6"/>
    </linearGradient>
    <linearGradient id="linear-gradient-2" x1="28.54" y1="242.83" x2="46.49" y2="242.83" gradientTransform="translate(499.31 -6.95) rotate(45.85)" gradientUnits="userSpaceOnUse">
      <stop offset="0" stop-color="#dbf1c6"/>
      <stop offset="1" stop-color="#5fb749"/>
    </linearGradient>
    <linearGradient id="linear-gradient-3" x1="342" y1="184.1" x2="342" y2="169.43" gradientTransform="matrix(1, 0, 0, -1, -169.58, 275.2)" gradientUnits="userSpaceOnUse">
      <stop offset="0" stop-color="#e5e5e5"/>
      <stop offset="0.27" stop-color="#e0e0e0"/>
      <stop offset="0.6" stop-color="#d1d1d1"/>
      <stop offset="0.95" stop-color="#b9b9b9"/>
      <stop offset="1" stop-color="#b5b5b5"/>
    </linearGradient>
    <linearGradient id="linear-gradient-4" x1="115.5" y1="58.61" x2="115.5" y2="43.3" gradientTransform="matrix(1, 0, 0, 1, 0, 0)" xlink:href="#linear-gradient-3"/>
    <linearGradient id="linear-gradient-5" x1="139.26" y1="57.96" x2="139.26" y2="43.29" gradientTransform="matrix(1, 0, 0, 1, 0, 0)" xlink:href="#linear-gradient-3"/>
    <linearGradient id="linear-gradient-6" x1="399" y1="190.33" x2="399" y2="169.47" xlink:href="#linear-gradient-3"/>
    <linearGradient id="linear-gradient-7" x1="293.76" y1="193.77" x2="293.76" y2="169.49" xlink:href="#linear-gradient-3"/>
    <linearGradient id="linear-gradient-8" x1="229.26" y1="57.96" x2="229.26" y2="43.29" gradientTransform="matrix(1, 0, 0, 1, 0, 0)" xlink:href="#linear-gradient-3"/>
    <linearGradient id="linear-gradient-9" x1="163.01" y1="56.48" x2="163.01" y2="43.28" gradientTransform="matrix(1, 0, 0, 1, 0, 0)" xlink:href="#linear-gradient-3"/>
    <linearGradient id="linear-gradient-10" x1="186.76" y1="56.48" x2="186.76" y2="43.28" gradientTransform="matrix(1, 0, 0, 1, 0, 0)" xlink:href="#linear-gradient-3"/>
  </defs>
  <g class="cls-1">
    <g id="Layer_3" data-name="Layer 3">
      <text class="cls-2" transform="translate(94.55 7.57)">These are<tspan class="cls-3" x="33.67" y="0">n</tspan><tspan x="38" y="0">’t</tspan><tspan x="0" y="9.5">tested individually</tspan></text>
      <text class="cls-2" transform="translate(94.55 139.24)">But the<tspan class="cls-4" x="26.07" y="0">y</tspan><tspan class="cls-5" x="30.34" y="0">’re</tspan><tspan x="0" y="9.5">tested together</tspan></text>
      <rect class="cls-6" x="103.76" y="53.2" width="149" height="36.83" rx="2"/>
      <text class="cls-7" transform="translate(135.62 66.31)">4</text>
      <text class="cls-7" transform="translate(203.24 66.31)">2</text>
      <text class="cls-7" transform="translate(218.64 66.31)">PKH<tspan class="cls-8" x="20.7" y="3">A</tspan></text>
      <text class="cls-7" transform="translate(196.34 83.31)">35</text>
      <text class="cls-7" transform="translate(218.64 83.31)">PKH<tspan class="cls-8" x="20.7" y="3">B</tspan></text>
      <g>
        <path class="cls-9" d="M278.57,188.5l-1.7-1.91a11.08,11.08,0,0,1,7.34.37,6.51,6.51,0,0,0,3.74.47,3.91,3.91,0,0,0,2.43-1.44c.72-.8,1.55-1.71,4.32-2l1.35,2c-2.2.22-2.78.85-3.45,1.59a5,5,0,0,1-3.08,1.8,9.46,9.46,0,0,1-5.15-.6A8.38,8.38,0,0,0,278.57,188.5Z" transform="translate(-169.58 -125.47)"/>
        <path class="cls-9" d="M281.9,190.32l-1.7-1.91a11,11,0,0,1,7.34.36,6.49,6.49,0,0,0,3.73.48,3.87,3.87,0,0,0,2.43-1.45c.73-.8,1.55-1.7,4.32-2l1.36,2c-2.2.21-2.78.85-3.45,1.59a5,5,0,0,1-3.09,1.8,9.58,9.58,0,0,1-5.15-.6A8.35,8.35,0,0,0,281.9,190.32Z" transform="translate(-169.58 -125.47)"/>
        <path class="cls-9" d="M281.16,192.34l-1.7-1.91a11.09,11.09,0,0,1,7.34.37,6.59,6.59,0,0,0,3.74.48,3.87,3.87,0,0,0,2.42-1.45c.73-.8,1.55-1.71,4.33-2l1.35,2c-2.2.21-2.78.85-3.45,1.59a5,5,0,0,1-3.08,1.79,9.36,9.36,0,0,1-5.15-.6A8.44,8.44,0,0,0,281.16,192.34Z" transform="translate(-169.58 -125.47)"/>
        <path class="cls-9" d="M284.54,194.14l-1.7-1.91a11.09,11.09,0,0,1,7.34.37,6.51,6.51,0,0,0,3.74.47,3.94,3.94,0,0,0,2.43-1.44c.72-.8,1.55-1.71,4.32-2l1.35,2c-2.2.21-2.78.84-3.45,1.58a5,5,0,0,1-3.08,1.8,9.46,9.46,0,0,1-5.15-.6A8.44,8.44,0,0,0,284.54,194.14Z" transform="translate(-169.58 -125.47)"/>
        <path class="cls-9" d="M279.09,186.41l-1.7-1.91a11.09,11.09,0,0,1,7.34.37,6.5,6.5,0,0,0,3.74.47,4,4,0,0,0,2.43-1.44c.72-.8,1.54-1.71,4.32-2l1.35,2a4.32,4.32,0,0,0-3.45,1.58,5,5,0,0,1-3.08,1.8,9.46,9.46,0,0,1-5.15-.6A8.44,8.44,0,0,0,279.09,186.41Z" transform="translate(-169.58 -125.47)"/>
        <polygon points="109.62 59.24 111.94 59.03 112.96 59.57 111.44 59.47 109.62 59.24"/>
        <polygon points="115.56 60.42 118.04 61.35 119.64 60.85 117.61 60.58 115.56 60.42"/>
        <polygon points="116.54 63.4 114.79 63.31 114.08 63.8 115.85 63.62 118.11 64.52 119.54 64.5 117.58 63.74 116.54 63.4"/>
        <path d="M296.4,188.68c-.44,0-1.57.3-1.57.3L294,190.4l1.22-.86,1.9-.27Z" transform="translate(-169.58 -125.47)"/>
        <polygon points="127.73 66.69 126.92 67.71 125.09 68.29 126.11 68.72 127.63 68.11 127.73 66.69"/>
        <polygon points="120.06 67.63 118.28 67.09 116.92 67.43 118.54 67.54 120.06 67.63"/>
        <polygon points="114.16 65.44 113.15 65.61 114.56 65.69 114.16 65.44"/>
        <polygon class="cls-10" points="122.38 59.36 121.12 59.71 119.64 60.85 121.68 60.4 122.38 59.36"/>
        <polygon class="cls-10" points="123.98 65.49 122.33 66.3 122.15 66.78 123.73 66.38 123.98 65.49"/>
        <polygon class="cls-10" points="131.04 64.98 129.19 65.66 129.06 66.56 130.58 65.84 131.04 64.98"/>
        <polygon class="cls-10" points="113.04 64.89 111.79 65.95 111.34 65.28 113.04 64.89"/>
        <polygon class="cls-11" points="120.58 62.6 118.32 62.41 119.55 62.97 120.58 62.6"/>
        <path class="cls-11" d="M292.39,193.66l-2.12-.47s1.09.75,1.4.89a15.56,15.56,0,0,0,2.14.28Z" transform="translate(-169.58 -125.47)"/>
        <polygon class="cls-11" points="113.78 62.84 111.92 62.9 112.64 63.91 113.78 62.84"/>
        <path class="cls-11" d="M294.55,182.82l-2.1.85s-.83,1.22-.5,1.16a11.41,11.41,0,0,0,1.79-1Z" transform="translate(-169.58 -125.47)"/>
      </g>
      <path class="cls-12" d="M328,190.27c1.5.68,2.74-.57,4-.79.31.34,0,1.05.13,1.45.91.66,2.68.42,3.36,1.33-.4.31-.95-.2-1.65-.4-1.22-.34-2.55-.13-2.09-1.92-1.09.51-2.92,1.46-4.18.59a9,9,0,0,1-1.27.67c-.5,1.06-.92,2.21-1.33,3.37-.88-.31-.91-1.52-2-1.65a3,3,0,0,0-.32,1c.25.07.51-.73.89-.53,0,.51-.54.93-1,1.13-.52-.34-.12-1.09,0-1.66a6.41,6.41,0,0,1-4,1.26,3.56,3.56,0,0,1-1.83-.53c-1.15-.86-.85-3.12-.07-4.17a5,5,0,0,1,2.92-1.66,16.75,16.75,0,0,0,.82-2c.36,0,.45-.1.57-.47,1.87-.73,4-1.16,5.57-2.25-1.94.36-4.07,1-6.08,1.59a4.2,4.2,0,0,1-1.9.4c.07-.39.6-.44.89-.53,1-.3,2.13-.61,3.23-.93a12.55,12.55,0,0,1,4.44-.86c0,.69-.69.89-1.15,1.13-1.37.72-3.26,1.23-4.81,1.85a5.46,5.46,0,0,0,1.39,1.92,10.79,10.79,0,0,1,2.22.27c.75-.92,1.38-2.14,2.09-3.18.19-.28.45-.76.82-.73-.11.77-.76,1.33-1.2,2s-.8,1.38-1.2,2.05c.47.33,1.23.35,1.39,1-.57.13-1-.49-1.52-.59a17.65,17.65,0,0,0-1.84,3.57,13.84,13.84,0,0,0,2.73-1.06,6.78,6.78,0,0,0,.95-2.51,6.35,6.35,0,0,1,2.66-4.37,3.28,3.28,0,0,1,.38-.8c.24-.05.22.16.38.2a9.6,9.6,0,0,1,5.83-1.39c.38,0,1.27.14,1.26.66,0,.84-1.35,1.81-2,2.32A75.43,75.43,0,0,1,328,190.27Zm6.65-7.75c-1.74.15-3.83.71-4.75,1.79a16,16,0,0,0-1.27,2.45c-.47.88-1.63,2.26-1,3.25a67.67,67.67,0,0,0,7.47-5.1,5.64,5.64,0,0,0,2-2.25A5.43,5.43,0,0,0,334.69,182.52Zm-7.15,5.56c.38-1,1.13-1.94,1.39-2.84A5.33,5.33,0,0,0,327.54,188.08Zm-7.42-.39c.56-.12,1.3-.06,1.84-.2a9.91,9.91,0,0,1-1.2-1.52C320.59,186.59,320.32,187.09,320.12,187.69Zm-.12.39a7.91,7.91,0,0,0-.51,1.66c-.14.53-.18,1.29-.63,1.52-.16-.9.41-2.11.63-3a3.58,3.58,0,0,0-3.1,3.57c0,1.43,1.1,1.94,2.59,1.92,3.17,0,5.48-2.86,3.36-5.69A11,11,0,0,0,320,188.08Zm3.61,2.39c.34-.75.71-1.47,1.08-2.19a13.15,13.15,0,0,0-1.84-.26A6.92,6.92,0,0,1,323.61,190.47Zm3.1.06a2.48,2.48,0,0,0,.57-.26c0-.2,0-.47-.19-.53C327,190,326.82,190.25,326.71,190.53Zm-3.48,2.06c.84.15,1.14.88,1.65,1.39a6.41,6.41,0,0,1,.88-2.32c0-.08,0-.16-.13-.13C325,192,323.94,192.13,323.23,192.59Z" transform="translate(-169.58 -125.47)"/>
      <g>
        <path class="cls-13" d="M357.86,193.81l-6.42-6.61a4.19,4.19,0,0,0-6.7-4.75.94.94,0,0,0-.1.1l-.11.1a4.18,4.18,0,0,0,4.21,7l.54.55a.9.9,0,0,1,1.16.19.89.89,0,0,1,.15,1.16l.59.61a1,1,0,0,1,1.31,1.35l.59.61a1,1,0,0,1,1.31,1.35l.41.42,3.3-.17.21-.2Z" transform="translate(-169.58 -125.47)"/>
        <path class="cls-14" d="M358.31,195.48l-7.08-8.08a4.14,4.14,0,1,0-2.49,2.21l.54.55a.9.9,0,0,1,1.16.19.89.89,0,0,1,.15,1.16l.59.61a1,1,0,0,1,1.31,1.35l.59.61a1,1,0,0,1,1.31,1.35l.41.42,3.3-.17Z" transform="translate(-169.58 -125.47)"/>
        <path class="cls-15" d="M357.86,193.81l-6.42-6.61a4.14,4.14,0,1,0-2.49,2.21l.54.55a1,1,0,0,1,1.31,1.35l.59.61a.89.89,0,0,1,1.16.19.9.9,0,0,1,.15,1.16l.59.61a.9.9,0,0,1,1.16.18.92.92,0,0,1,.15,1.17l.41.42,3.3-.17Z" transform="translate(-169.58 -125.47)"/>
        <path class="cls-16" d="M344.92,188.1a3.8,3.8,0,1,1,6.21-1l-.09.21,6.52,6.71.32,1.18-2.73.15-.14-.14a1.28,1.28,0,0,0-.32-1.34,1.3,1.3,0,0,0-1.33-.36l-.25-.25a1.29,1.29,0,0,0-.32-1.35,1.31,1.31,0,0,0-1.34-.36l-.24-.25a1.35,1.35,0,0,0-1.66-1.71l-.5-.52-.2.06A3.85,3.85,0,0,1,344.92,188.1Z" transform="translate(-169.58 -125.47)"/>
        <path class="cls-17" d="M350,187.82a3.3,3.3,0,1,1,.07-4.67A3.3,3.3,0,0,1,350,187.82Z" transform="translate(-169.58 -125.47)"/>
        <text class="cls-18" transform="translate(174.85 58.55) rotate(45.85)">Pub</text>
      </g>
      <line class="cls-19" x1="192.75" y1="53.34" x2="192.75" y2="90.01"/>
      <rect class="cls-20" x="103.76" y="53.2" width="149" height="36.83" rx="2"/>
      <g>
        <path class="cls-21" d="M293.67,243.64c0,4.54-5.34,6.86-5.34,13.36" transform="translate(-169.58 -125.47)"/>
        <polygon points="122.23 118.72 124.1 115.48 125.97 118.72 122.23 118.72"/>
      </g>
      <g>
        <path class="cls-21" d="M285.5,157c3.5-7,11.25-6.17,11.25-12.67" transform="translate(-169.58 -125.47)"/>
        <polygon points="117.83 31.87 114.71 33.93 114.48 30.2 117.83 31.87"/>
      </g>
      <g>
        <path class="cls-21" d="M308,157c-3.5-7-11.25-6.17-11.25-12.67" transform="translate(-169.58 -125.47)"/>
        <polygon points="139.84 30.21 139.62 33.94 136.5 31.88 139.84 30.21"/>
      </g>
      <path class="cls-22" d="M313.43,194.83v1.06c0,2.93-3.53,5.31-7.89,5.31h-3.89c-4.36,0-7.89,2.37-7.89,5.3,0-2.93-3.53-5.3-7.88-5.3h-2.65c-4.36,0-7.89-2.38-7.89-5.31v-1.31" transform="translate(-169.58 -125.47)"/>
      <text class="cls-23" transform="translate(107.56 42.06)">1, 6, 6</text>
      <text class="cls-23" transform="translate(164.96 111.56)">1, 3, 7</text>
      <polygon class="cls-24" points="180.69 105.86 172.42 90.86 164.16 105.86 180.69 105.86"/>
      <text class="cls-23" transform="translate(221.38 111.56)">0, 0, 1</text>
      <text class="cls-23" transform="translate(115.74 111.56)">4, 5, 6</text>
      <text class="cls-23" transform="translate(131.03 42.06)">3, 6, 7</text>
      <text class="cls-23" transform="translate(221.05 42.06)">2, 5, 7</text>
      <text class="cls-23" transform="translate(155.3 42.06)">1, 4, 7</text>
      <polygon class="cls-25" points="121.02 53.7 121.28 52.7 114.78 52.7 115.57 53.7 121.02 53.7"/>
      <polygon class="cls-25" points="141.74 53.7 142.29 52.7 136.22 52.7 136.78 53.7 141.74 53.7"/>
      <polygon class="cls-25" points="227.49 89.53 227.1 90.53 231.75 90.53 231.36 89.53 227.49 89.53"/>
      <polygon class="cls-25" points="121.36 89.53 121.02 90.53 127.35 90.53 127.01 89.53 121.36 89.53"/>
      <polygon class="cls-25" points="231.74 53.7 232.29 52.7 226.23 52.7 226.78 53.7 231.74 53.7"/>
      <polygon class="cls-25" points="161.41 53.7 162.35 52.7 157.45 52.7 157.73 53.7 161.41 53.7"/>
      <polygon class="cls-25" points="184.57 53.7 185.57 52.7 180.67 52.7 180.9 53.7 184.57 53.7"/>
      <polygon class="cls-26" points="123.77 43.2 119.67 58.86 107.24 43.2 123.77 43.2"/>
      <polygon class="cls-27" points="147.52 43.2 139.26 58.2 130.99 43.2 147.52 43.2"/>
      <polygon class="cls-28" points="237.69 105.86 229.42 84.53 221.16 105.86 237.69 105.86"/>
      <polygon class="cls-29" points="132.45 105.86 124.19 81.03 115.92 105.86 132.45 105.86"/>
      <polygon class="cls-30" points="237.52 43.2 229.26 58.2 220.99 43.2 237.52 43.2"/>
      <polygon class="cls-31" points="171.27 43.2 158.59 56.7 154.74 43.2 171.27 43.2"/>
      <polygon class="cls-32" points="195.02 43.2 181.59 56.7 178.49 43.2 195.02 43.2"/>
      <text class="cls-23" transform="translate(178.32 42.06)">0, 2, 2</text>
    </g>
    <g id="Layer_2" data-name="Layer 2">
      <rect class="cls-33" x="0.25" y="53.2" width="11.27" height="11.27"/>
      <text class="cls-34" transform="translate(2.88 61.98)">0</text>
      <rect class="cls-33" x="11.52" y="53.2" width="11.27" height="11.27"/>
      <text class="cls-34" transform="translate(14.16 61.98)">1</text>
      <rect class="cls-33" x="22.79" y="53.2" width="11.27" height="11.27"/>
      <text class="cls-34" transform="translate(25.43 61.98)">0</text>
      <rect class="cls-33" x="34.06" y="53.2" width="11.27" height="11.27"/>
      <text class="cls-34" transform="translate(36.7 61.98)">0</text>
      <rect class="cls-33" x="45.34" y="53.2" width="11.27" height="11.27"/>
      <text class="cls-34" transform="translate(47.97 61.98)">0</text>
      <rect class="cls-33" x="56.61" y="53.2" width="11.27" height="11.27"/>
      <text class="cls-34" transform="translate(59.24 61.98)">1</text>
      <rect class="cls-33" x="67.88" y="53.2" width="11.27" height="11.27"/>
      <text class="cls-34" transform="translate(70.51 61.98)">1</text>
      <rect class="cls-33" x="79.15" y="53.2" width="11.27" height="11.27"/>
      <text class="cls-34" transform="translate(81.78 61.98)">1</text>
      <text class="cls-35" transform="translate(3.78 72.81)">0</text>
      <text class="cls-35" transform="translate(15.06 72.81)">1</text>
      <text class="cls-35" transform="translate(26.33 72.81)">2</text>
      <text class="cls-35" transform="translate(37.6 72.81)">3</text>
      <text class="cls-35" transform="translate(48.87 72.81)">4</text>
      <text class="cls-35" transform="translate(60.14 72.81)">5</text>
      <text class="cls-35" transform="translate(71.41 72.81)">6</text>
      <text class="cls-35" transform="translate(82.68 72.81)">7</text>
    </g>
  </g>
</svg>
