<?xml version="1.0" encoding="UTF-8" standalone="no"?>
<svg
   xmlns:dc="http://purl.org/dc/elements/1.1/"
   xmlns:cc="http://creativecommons.org/ns#"
   xmlns:rdf="http://www.w3.org/1999/02/22-rdf-syntax-ns#"
   xmlns:svg="http://www.w3.org/2000/svg"
   xmlns="http://www.w3.org/2000/svg"
   version="1.1"
   id="svg2"
   xml:space="preserve"
   width="544.99945"
   height="101.58533"
   viewBox="0 0 544.99945 101.58533"><metadata
     id="metadata8"><rdf:RDF><cc:Work
         rdf:about=""><dc:format>image/svg+xml</dc:format><dc:type
           rdf:resource="http://purl.org/dc/dcmitype/StillImage" /></cc:Work></rdf:RDF></metadata><defs
     id="defs6"><clipPath
       clipPathUnits="userSpaceOnUse"
       id="clipPath18"><path
         d="M 0,792 H 612 V 0 H 0 Z"
         id="path16" /></clipPath><clipPath
       clipPathUnits="userSpaceOnUse"
       id="clipPath142"><path
         d="m 198,653.497 h 47.917 V 625.625 H 198 Z"
         id="path140" /></clipPath><linearGradient
       x1="0"
       y1="0"
       x2="1"
       y2="0"
       gradientUnits="userSpaceOnUse"
       gradientTransform="matrix(47.91748,0,0,-47.91748,198,639.56055)"
       spreadMethod="pad"
       id="linearGradient156"><stop
         style="stop-opacity:1;stop-color:#ededed"
         offset="0"
         id="stop148" /><stop
         style="stop-opacity:1;stop-color:#ededed"
         offset="0.0122681"
         id="stop150" /><stop
         style="stop-opacity:1;stop-color:#ededed"
         offset="0.42658073"
         id="stop152" /><stop
         style="stop-opacity:1;stop-color:#d3d2d2"
         offset="1"
         id="stop154" /></linearGradient><clipPath
       clipPathUnits="userSpaceOnUse"
       id="clipPath178"><path
         d="m 205.375,624.344 h 40.542 V 606.96 h -40.542 z"
         id="path176" /></clipPath><linearGradient
       x1="0"
       y1="0"
       x2="1"
       y2="0"
       gradientUnits="userSpaceOnUse"
       gradientTransform="matrix(40.54248,0,0,-40.54248,205.375,615.65234)"
       spreadMethod="pad"
       id="linearGradient192"><stop
         style="stop-opacity:1;stop-color:#ededed"
         offset="0"
         id="stop184" /><stop
         style="stop-opacity:1;stop-color:#ededed"
         offset="0.0122681"
         id="stop186" /><stop
         style="stop-opacity:1;stop-color:#ededed"
         offset="0.42658073"
         id="stop188" /><stop
         style="stop-opacity:1;stop-color:#d3d2d2"
         offset="1"
         id="stop190" /></linearGradient><clipPath
       clipPathUnits="userSpaceOnUse"
       id="clipPath214"><path
         d="m 217.5,605.68 h 28.417 V 577.808 H 217.5 Z"
         id="path212" /></clipPath><linearGradient
       x1="0"
       y1="0"
       x2="1"
       y2="0"
       gradientUnits="userSpaceOnUse"
       gradientTransform="matrix(28.41748,0,0,-28.41748,217.5,591.74414)"
       spreadMethod="pad"
       id="linearGradient228"><stop
         style="stop-opacity:1;stop-color:#ededed"
         offset="0"
         id="stop220" /><stop
         style="stop-opacity:1;stop-color:#ededed"
         offset="0.0122681"
         id="stop222" /><stop
         style="stop-opacity:1;stop-color:#ededed"
         offset="0.42658073"
         id="stop224" /><stop
         style="stop-opacity:1;stop-color:#d3d2d2"
         offset="1"
         id="stop226" /></linearGradient><clipPath
       clipPathUnits="userSpaceOnUse"
       id="clipPath250"><path
         d="m 208.556,643.625 h 13.842 v -12.878 h -13.842 z"
         id="path248" /></clipPath><clipPath
       clipPathUnits="userSpaceOnUse"
       id="clipPath266"><path
         d="m 221.398,623.342 h 1 v -15.38 h -1 z"
         id="path264" /></clipPath><clipPath
       clipPathUnits="userSpaceOnUse"
       id="clipPath282"><path
         d="m 220.95,604.241 h 1.448 v -14.635 h -1.448 z"
         id="path280" /></clipPath></defs><g
     id="g10"
     transform="matrix(1.3333333,0,0,-1.3333333,-130.00053,871.66264)"><g
       id="g12"><g
         id="g14"
         clip-path="url(#clipPath18)"><g
           id="g20"
           transform="translate(221.8984,591.1255)"><path
             d="m 0,0 c 0,-1.1 -0.9,-2 -2,-2 h -119.898 c -1.101,0 -2,0.9 -2,2 v 50 c 0,1.1 0.899,2 2,2 H -2 c 1.1,0 2,-0.9 2,-2 z"
             style="fill:#feefe9;fill-opacity:1;fill-rule:evenodd;stroke:none"
             id="path22" /></g><g
           id="g24"
           transform="translate(156.7827,642.9858)"><path
             d="M 0,0 V -53.775"
             style="fill:none;stroke:#656263;stroke-width:0.5;stroke-linecap:butt;stroke-linejoin:miter;stroke-miterlimit:4;stroke-dasharray:none;stroke-opacity:1"
             id="path26" /></g><g
           id="g28"
           transform="translate(221.8984,591.1255)"><path
             d="m 0,0 c 0,-1.1 -0.9,-2 -2,-2 h -119.898 c -1.101,0 -2,0.9 -2,2 v 50 c 0,1.1 0.899,2 2,2 H -2 c 1.1,0 2,-0.9 2,-2 z"
             style="fill:none;stroke:#d91920;stroke-width:1;stroke-linecap:butt;stroke-linejoin:round;stroke-miterlimit:4;stroke-dasharray:none;stroke-opacity:1"
             id="path30" /></g><text
           transform="matrix(1,0,0,-1,131.1982,630.0088)"
           style="font-variant:normal;font-weight:normal;font-stretch:normal;font-size:11.5px;font-family:Courier;-inkscape-font-specification:Courier;writing-mode:lr-tb;fill:#231f20;fill-opacity:1;fill-rule:nonzero;stroke:none"
           id="text34"><tspan
             x="0"
             y="0"
             id="tspan32">7</tspan></text><g
           id="g36"
           transform="translate(103.2397,632.415)"><path
             d="M 0,0 -1.701,1.912 C 1.484,2.891 3.786,2.143 5.64,1.543 7.014,1.094 8.009,0.773 9.375,1.068 c 1.387,0.299 1.87,0.83 2.43,1.446 0.725,0.799 1.547,1.705 4.324,1.972 l 1.35,-1.98 C 15.279,2.294 14.7,1.658 14.03,0.92 13.43,0.26 12.749,-0.488 10.946,-0.879 8.959,-1.307 7.278,-0.76 5.795,-0.28 4.119,0.266 2.534,0.78 0,0"
             style="fill:#f8a45c;fill-opacity:1;fill-rule:nonzero;stroke:none"
             id="path38" /></g><g
           id="g40"
           transform="translate(103.2397,632.415)"><path
             d="M 0,0 -1.701,1.912 C 1.484,2.891 3.786,2.143 5.64,1.543 7.014,1.094 8.009,0.773 9.375,1.068 c 1.387,0.299 1.87,0.83 2.43,1.446 0.725,0.799 1.547,1.705 4.324,1.972 l 1.35,-1.98 C 15.279,2.294 14.7,1.658 14.03,0.92 13.43,0.26 12.749,-0.488 10.946,-0.879 8.959,-1.307 7.278,-0.76 5.795,-0.28 4.119,0.266 2.534,0.78 0,0 Z"
             style="fill:none;stroke:#231f20;stroke-width:0.3;stroke-linecap:butt;stroke-linejoin:miter;stroke-miterlimit:4;stroke-dasharray:none;stroke-opacity:1"
             id="path42" /></g><g
           id="g44"
           transform="translate(106.5649,630.5977)"><path
             d="m 0,0 -1.703,1.911 c 3.184,0.982 5.489,0.233 7.34,-0.368 1.376,-0.447 2.37,-0.772 3.738,-0.476 1.386,0.3 1.869,0.83 2.429,1.448 0.726,0.798 1.549,1.705 4.322,1.97 L 17.479,2.506 C 15.278,2.294 14.7,1.657 14.028,0.919 13.429,0.26 12.749,-0.489 10.944,-0.878 8.958,-1.307 7.279,-0.762 5.794,-0.279 4.119,0.265 2.534,0.778 0,0"
             style="fill:#f8a45c;fill-opacity:1;fill-rule:nonzero;stroke:none"
             id="path46" /></g><g
           id="g48"
           transform="translate(106.5649,630.5977)"><path
             d="m 0,0 -1.703,1.911 c 3.184,0.982 5.489,0.233 7.34,-0.368 1.376,-0.447 2.37,-0.772 3.738,-0.476 1.386,0.3 1.869,0.83 2.429,1.448 0.726,0.798 1.549,1.705 4.322,1.97 L 17.479,2.506 C 15.278,2.294 14.7,1.657 14.028,0.919 13.429,0.26 12.749,-0.489 10.944,-0.878 8.958,-1.307 7.279,-0.762 5.794,-0.279 4.119,0.265 2.534,0.778 0,0 Z"
             style="fill:none;stroke:#231f20;stroke-width:0.3;stroke-linecap:butt;stroke-linejoin:miter;stroke-miterlimit:4;stroke-dasharray:none;stroke-opacity:1"
             id="path50" /></g><g
           id="g52"
           transform="translate(105.8281,628.5713)"><path
             d="M 0,0 -1.702,1.91 C 1.483,2.893 3.786,2.143 5.641,1.541 7.013,1.096 8.008,0.772 9.375,1.066 c 1.387,0.3 1.868,0.832 2.428,1.45 0.726,0.797 1.548,1.703 4.322,1.969 L 17.478,2.504 C 15.277,2.294 14.701,1.658 14.027,0.918 13.427,0.258 12.75,-0.49 10.945,-0.879 8.96,-1.307 7.28,-0.762 5.795,-0.28 4.12,0.266 2.535,0.779 0,0"
             style="fill:#f8a45c;fill-opacity:1;fill-rule:nonzero;stroke:none"
             id="path54" /></g><g
           id="g56"
           transform="translate(105.8281,628.5713)"><path
             d="M 0,0 -1.702,1.91 C 1.483,2.893 3.786,2.143 5.641,1.541 7.013,1.096 8.008,0.772 9.375,1.066 c 1.387,0.3 1.868,0.832 2.428,1.45 0.726,0.797 1.548,1.703 4.322,1.969 L 17.478,2.504 C 15.277,2.294 14.701,1.658 14.027,0.918 13.427,0.258 12.75,-0.49 10.945,-0.879 8.96,-1.307 7.28,-0.762 5.795,-0.28 4.12,0.266 2.535,0.779 0,0 Z"
             style="fill:none;stroke:#231f20;stroke-width:0.3;stroke-linecap:butt;stroke-linejoin:miter;stroke-miterlimit:4;stroke-dasharray:none;stroke-opacity:1"
             id="path58" /></g><g
           id="g60"
           transform="translate(109.209,626.7725)"><path
             d="M 0,0 -1.702,1.913 C 1.482,2.891 3.789,2.144 5.639,1.544 7.016,1.095 8.008,0.771 9.375,1.068 c 1.386,0.299 1.871,0.83 2.427,1.447 0.729,0.799 1.551,1.704 4.324,1.971 l 1.352,-1.98 C 15.279,2.295 14.701,1.658 14.029,0.92 13.429,0.258 12.751,-0.488 10.945,-0.879 8.961,-1.308 7.28,-0.76 5.795,-0.279 4.119,0.266 2.536,0.78 0,0"
             style="fill:#f8a45c;fill-opacity:1;fill-rule:nonzero;stroke:none"
             id="path62" /></g><g
           id="g64"
           transform="translate(109.209,626.7725)"><path
             d="M 0,0 -1.702,1.913 C 1.482,2.891 3.789,2.144 5.639,1.544 7.016,1.095 8.008,0.771 9.375,1.068 c 1.386,0.299 1.871,0.83 2.427,1.447 0.729,0.799 1.551,1.704 4.324,1.971 l 1.352,-1.98 C 15.279,2.295 14.701,1.658 14.029,0.92 13.429,0.258 12.751,-0.488 10.945,-0.879 8.961,-1.308 7.28,-0.76 5.795,-0.279 4.119,0.266 2.536,0.78 0,0 Z"
             style="fill:none;stroke:#231f20;stroke-width:0.3;stroke-linecap:butt;stroke-linejoin:miter;stroke-miterlimit:4;stroke-dasharray:none;stroke-opacity:1"
             id="path66" /></g><g
           id="g68"
           transform="translate(103.7588,634.501)"><path
             d="M 0,0 -1.704,1.914 C 1.482,2.895 3.786,2.145 5.638,1.545 7.013,1.097 8.006,0.775 9.375,1.07 c 1.386,0.299 1.866,0.83 2.428,1.447 0.725,0.799 1.55,1.704 4.321,1.971 l 1.353,-1.981 c -2.199,-0.21 -2.779,-0.849 -3.45,-1.585 -0.6,-0.661 -1.28,-1.408 -3.084,-1.799 -1.985,-0.428 -3.667,0.119 -5.15,0.6 C 4.117,0.267 2.534,0.782 0,0"
             style="fill:#f8a45c;fill-opacity:1;fill-rule:nonzero;stroke:none"
             id="path70" /></g><g
           id="g72"
           transform="translate(103.7588,634.501)"><path
             d="M 0,0 -1.704,1.914 C 1.482,2.895 3.786,2.145 5.638,1.545 7.013,1.097 8.006,0.775 9.375,1.07 c 1.386,0.299 1.866,0.83 2.428,1.447 0.725,0.799 1.55,1.704 4.321,1.971 l 1.353,-1.981 c -2.199,-0.21 -2.779,-0.849 -3.45,-1.585 -0.6,-0.661 -1.28,-1.408 -3.084,-1.799 -1.985,-0.428 -3.667,0.119 -5.15,0.6 C 4.117,0.267 2.534,0.782 0,0 Z"
             style="fill:none;stroke:#231f20;stroke-width:0.3;stroke-linecap:butt;stroke-linejoin:miter;stroke-miterlimit:4;stroke-dasharray:none;stroke-opacity:1"
             id="path74" /></g><g
           id="g76"
           transform="translate(103.8667,636.208)"><path
             d="m 0,0 2.323,0.208 1.012,-0.54 -1.514,0.096 z"
             style="fill:#231f20;fill-opacity:1;fill-rule:nonzero;stroke:none"
             id="path78" /></g><g
           id="g80"
           transform="translate(109.8062,635.0283)"><path
             d="m 0,0 2.479,-0.936 1.604,0.507 -2.035,0.265 z"
             style="fill:#231f20;fill-opacity:1;fill-rule:nonzero;stroke:none"
             id="path82" /></g><g
           id="g84"
           transform="translate(110.7803,632.0449)"><path
             d="m 0,0 -1.745,0.09 -0.715,-0.486 1.772,0.178 2.267,-0.906 1.424,0.02 -1.962,0.765 z"
             style="fill:#231f20;fill-opacity:1;fill-rule:nonzero;stroke:none"
             id="path86" /></g><g
           id="g88"
           transform="translate(121.0698,632.2393)"><path
             d="m 0,0 c -0.443,-0.045 -1.574,-0.306 -1.574,-0.306 l -0.865,-1.419 1.218,0.862 1.897,0.264 z"
             style="fill:#231f20;fill-opacity:1;fill-rule:nonzero;stroke:none"
             id="path90" /></g><g
           id="g92"
           transform="translate(121.9702,628.7549)"><path
             d="m 0,0 -0.805,-1.018 -1.834,-0.578 1.028,-0.438 1.509,0.619 z"
             style="fill:#231f20;fill-opacity:1;fill-rule:nonzero;stroke:none"
             id="path94" /></g><g
           id="g96"
           transform="translate(114.2998,627.8115)"><path
             d="M 0,0 -1.776,0.539 -3.135,0.205 -1.514,0.097 Z"
             style="fill:#231f20;fill-opacity:1;fill-rule:nonzero;stroke:none"
             id="path98" /></g><g
           id="g100"
           transform="translate(108.4028,630.0068)"><path
             d="M 0,0 -1.008,-0.176 0.398,-0.255 Z"
             style="fill:#231f20;fill-opacity:1;fill-rule:nonzero;stroke:none"
             id="path102" /></g><g
           id="g104"
           transform="translate(116.6211,636.0811)"><path
             d="m 0,0 -1.253,-0.347 -1.479,-1.134 2.031,0.449 z"
             style="fill:#f9aeca;fill-opacity:1;fill-rule:evenodd;stroke:none"
             id="path106" /></g><g
           id="g108"
           transform="translate(118.2207,629.9561)"><path
             d="m 0,0 -1.649,-0.807 -0.181,-0.486 1.588,0.406 z"
             style="fill:#f9aeca;fill-opacity:1;fill-rule:evenodd;stroke:none"
             id="path110" /></g><g
           id="g112"
           transform="translate(125.2827,630.4678)"><path
             d="m 0,0 -1.848,-0.679 -0.134,-0.9 1.527,0.72 z"
             style="fill:#f9aeca;fill-opacity:1;fill-rule:evenodd;stroke:none"
             id="path114" /></g><g
           id="g116"
           transform="translate(107.2852,630.5605)"><path
             d="m 0,0 -1.25,-1.062 -0.447,0.67 z"
             style="fill:#f9aeca;fill-opacity:1;fill-rule:evenodd;stroke:none"
             id="path118" /></g><g
           id="g120"
           transform="translate(114.8301,632.8447)"><path
             d="m 0,0 -2.265,0.191 1.226,-0.564 z"
             style="fill:#96cd56;fill-opacity:1;fill-rule:evenodd;stroke:none"
             id="path122" /></g><g
           id="g124"
           transform="translate(117.0527,627.251)"><path
             d="m 0,0 -2.112,0.479 c 0,0 1.091,-0.754 1.395,-0.897 0.307,-0.141 2.142,-0.277 2.142,-0.277 z"
             style="fill:#96cd56;fill-opacity:1;fill-rule:evenodd;stroke:none"
             id="path126" /></g><g
           id="g128"
           transform="translate(108.0269,632.6074)"><path
             d="m 0,0 -1.867,-0.064 0.722,-1.011 z"
             style="fill:#96cd56;fill-opacity:1;fill-rule:evenodd;stroke:none"
             id="path130" /></g><g
           id="g132"
           transform="translate(119.2124,638.0908)"><path
             d="m 0,0 -2.092,-0.851 c 0,0 -0.837,-1.217 -0.499,-1.159 0.336,0.059 1.784,0.992 1.784,0.992 z"
             style="fill:#96cd56;fill-opacity:1;fill-rule:evenodd;stroke:none"
             id="path134" /></g><g
           id="g136"><g
             id="g138" /><g
             id="g170"><g
               clip-path="url(#clipPath142)"
               id="g168"><g
                 id="g166"><g
                   id="g164"><g
                     id="g162"><g
                       id="g160"><path
                         d="M 245.917,653.497 198,639.554 v -13.929 l 47.917,10.488 z"
                         style="fill:url(#linearGradient156);stroke:none"
                         id="path158" /></g></g></g></g></g></g></g><g
           id="g172"><g
             id="g174" /><g
             id="g206"><g
               clip-path="url(#clipPath178)"
               id="g204"><g
                 id="g202"><g
                   id="g200"><g
                     id="g198"><g
                       id="g196"><path
                         d="m 245.917,624.344 -40.542,-1.727 v -13.929 l 40.542,-1.728 z"
                         style="fill:url(#linearGradient192);stroke:none"
                         id="path194" /></g></g></g></g></g></g></g><g
           id="g208"><g
             id="g210" /><g
             id="g242"><g
               clip-path="url(#clipPath214)"
               id="g240"><g
                 id="g238"><g
                   id="g236"><g
                     id="g234"><g
                       id="g232"><path
                         d="M 245.917,595.191 217.5,605.68 v -13.93 l 28.417,-13.942 z"
                         style="fill:url(#linearGradient228);stroke:none"
                         id="path230" /></g></g></g></g></g></g></g><g
           id="g244"><g
             id="g246" /><g
             id="g258"><g
               clip-path="url(#clipPath250)"
               id="g256"><g
                 transform="translate(219.8984,642.6255)"
                 id="g254"><path
                   d="m 0,0 c 0.827,0 1.5,-0.673 1.5,-1.5 v -10.379 l 1,0.219 V -1.5 C 2.5,-0.122 1.378,1 0,1 h -7.906 l -3.437,-1 z"
                   style="fill:#d3d2d2;fill-opacity:1;fill-rule:nonzero;stroke:none"
                   id="path252" /></g></g></g></g><g
           id="g260"><g
             id="g262" /><g
             id="g274"><g
               clip-path="url(#clipPath266)"
               id="g272"><g
                 transform="translate(221.3984,608.0049)"
                 id="g270"><path
                   d="M 0,0 1,-0.042 V 15.337 L 0,15.294 Z"
                   style="fill:#d3d2d2;fill-opacity:1;fill-rule:nonzero;stroke:none"
                   id="path268" /></g></g></g></g><g
           id="g276"><g
             id="g278" /><g
             id="g290"><g
               clip-path="url(#clipPath282)"
               id="g288"><g
                 transform="translate(221.3984,591.1255)"
                 id="g286"><path
                   d="M 0,0 C 0,-0.417 -0.172,-0.795 -0.449,-1.067 L 0.472,-1.519 C 0.798,-1.097 1,-0.574 1,0 v 12.746 l -1,0.369 z"
                   style="fill:#d3d2d2;fill-opacity:1;fill-rule:nonzero;stroke:none"
                   id="path284" /></g></g></g></g><path
           d="M 245.917,624.344 H 506 V 606.961 H 245.917 Z"
           style="fill:#ffffff;fill-opacity:1;fill-rule:nonzero;stroke:#231f20;stroke-width:0.5;stroke-linecap:butt;stroke-linejoin:round;stroke-miterlimit:10;stroke-dasharray:none;stroke-opacity:1"
           id="path292" /><text
           transform="matrix(1,0,0,-1,161.6992,630.0078)"
           style="font-variant:normal;font-weight:normal;font-stretch:normal;font-size:11.5px;font-family:Courier;-inkscape-font-specification:Courier;writing-mode:lr-tb;fill:#231f20;fill-opacity:1;fill-rule:nonzero;stroke:none"
           id="text296"><tspan
             x="0 6.9000001"
             y="0"
             id="tspan294">10</tspan></text><text
           transform="matrix(1,0,0,-1,250.0474,613.1309)"
           style="font-variant:normal;font-weight:normal;font-stretch:normal;font-size:8.7699px;font-family:Courier;-inkscape-font-specification:Courier;writing-mode:lr-tb;fill:#231f20;fill-opacity:1;fill-rule:nonzero;stroke:none"
           id="text300"><tspan
             x="0 5.26194 10.52388 15.78582 21.04776 26.3097 31.57164 36.83358 42.09552 47.35746 52.6194 57.88134 63.14328 68.40522"
             y="0"
             id="tspan298">OP_HASH160 &lt;SH</tspan></text><text
           transform="matrix(1,0,0,-1,323.7266,610.8433)"
           style="font-variant:normal;font-weight:normal;font-stretch:normal;font-size:5.3382px;font-family:Courier;-inkscape-font-specification:Courier;writing-mode:lr-tb;fill:#231f20;fill-opacity:1;fill-rule:nonzero;stroke:none"
           id="text304"><tspan
             x="0 3.20292 6.4058399"
             y="0"
             id="tspan302">FEJ</tspan></text><text
           transform="matrix(1,0,0,-1,333.3369,613.1309)"
           style="font-variant:normal;font-weight:normal;font-stretch:normal;font-size:8.7699px;font-family:Courier;-inkscape-font-specification:Courier;writing-mode:lr-tb;fill:#231f20;fill-opacity:1;fill-rule:nonzero;stroke:none"
           id="text308"><tspan
             x="0 5.26194 10.52388 15.78582 21.04776 26.3097 31.57164 36.83358 42.09552 47.35746"
             y="0"
             id="tspan306">&gt; OP_EQUAL</tspan></text><path
           d="M 245.917,595.191 H 506 V 577.808 H 245.917 Z"
           style="fill:#ffffff;fill-opacity:1;fill-rule:nonzero;stroke:#231f20;stroke-width:0.5;stroke-linecap:butt;stroke-linejoin:round;stroke-miterlimit:10;stroke-dasharray:none;stroke-opacity:1"
           id="path310" /><text
           transform="matrix(1,0,0,-1,250.0474,583.9785)"
           style="font-variant:normal;font-weight:normal;font-stretch:normal;font-size:8.7699px;font-family:Courier;-inkscape-font-specification:Courier;writing-mode:lr-tb;fill:#231f20;fill-opacity:1;fill-rule:nonzero;stroke:none"
           id="text314"><tspan
             x="0 5.26194 10.52388 15.78582 21.04776 26.3097 31.57164 36.83358 42.09552 47.35746 52.6194 57.88134 63.14328 68.40522 73.66716 78.9291 84.19104 89.45298 94.71492 99.97686 105.2388 110.50074"
             y="0"
             id="tspan312">OP_DUP OP_HASH160 &lt;PKH</tspan></text><text
           transform="matrix(1,0,0,-1,365.8291,581.6909)"
           style="font-variant:normal;font-weight:normal;font-stretch:normal;font-size:5.3382px;font-family:Courier;-inkscape-font-specification:Courier;writing-mode:lr-tb;fill:#231f20;fill-opacity:1;fill-rule:nonzero;stroke:none"
           id="text318"><tspan
             x="0 3.20292 6.4058399 9.6087599 12.81168 16.014601"
             y="0"
             id="tspan316">CHANGE</tspan></text><text
           transform="matrix(1,0,0,-1,385.0488,583.9785)"
           style="font-variant:normal;font-weight:normal;font-stretch:normal;font-size:8.7699px;font-family:Courier;-inkscape-font-specification:Courier;writing-mode:lr-tb;fill:#231f20;fill-opacity:1;fill-rule:nonzero;stroke:none"
           id="text322"><tspan
             x="0 5.26194 10.52388 15.78582 21.04776 26.3097 31.57164 36.83358 42.09552 47.35746 52.6194 57.88134 63.14328 68.40522 73.66716 78.9291 84.19104 89.45298 94.71492 99.97686 105.2388 110.50074"
             y="0"
             id="tspan320">&gt; OP_EQUAL OP_CHECKSIG</tspan></text><path
           d="M 245.917,653.497 H 506 V 636.114 H 245.917 Z"
           style="fill:#ffffff;fill-opacity:1;fill-rule:nonzero;stroke:#231f20;stroke-width:0.5;stroke-linecap:butt;stroke-linejoin:round;stroke-miterlimit:10;stroke-dasharray:none;stroke-opacity:1"
           id="path324" /><text
           transform="matrix(1,0,0,-1,250.0474,642.2842)"
           style="font-variant:normal;font-weight:normal;font-stretch:normal;font-size:8.7699px;font-family:Courier;-inkscape-font-specification:Courier;writing-mode:lr-tb;fill:#231f20;fill-opacity:1;fill-rule:nonzero;stroke:none"
           id="text328"><tspan
             x="0 5.26194 10.52388 15.78582 21.04776 26.3097 31.57164 36.83358 42.09552 47.35746 52.6194 57.88134 63.14328 68.40522 73.66716 78.9291 84.19104 89.45298 94.71492 99.97686 105.2388 110.50074"
             y="0"
             id="tspan326">OP_DUP OP_HASH160 &lt;PKH</tspan></text><text
           transform="matrix(1,0,0,-1,365.8291,639.9966)"
           style="font-variant:normal;font-weight:normal;font-stretch:normal;font-size:5.3382px;font-family:Courier;-inkscape-font-specification:Courier;writing-mode:lr-tb;fill:#231f20;fill-opacity:1;fill-rule:nonzero;stroke:none"
           id="text332"><tspan
             x="0"
             y="0"
             id="tspan330">C</tspan></text><text
           transform="matrix(1,0,0,-1,369.0322,642.2842)"
           style="font-variant:normal;font-weight:normal;font-stretch:normal;font-size:8.7699px;font-family:Courier;-inkscape-font-specification:Courier;writing-mode:lr-tb;fill:#231f20;fill-opacity:1;fill-rule:nonzero;stroke:none"
           id="text336"><tspan
             x="0 5.26194 10.52388 15.78582 21.04776 26.3097 31.57164 36.83358 42.09552 47.35746 52.6194 57.88134 63.14328 68.40522 73.66716 78.9291 84.19104 89.45298 94.71492 99.97686 105.2388 110.50074"
             y="0"
             id="tspan334">&gt; OP_EQUAL OP_CHECKSIG</tspan></text><text
           transform="matrix(1,0,0,-1,161.6992,613.3418)"
           style="font-variant:normal;font-weight:normal;font-stretch:normal;font-size:11.5px;font-family:Courier;-inkscape-font-specification:Courier;writing-mode:lr-tb;fill:#231f20;fill-opacity:1;fill-rule:nonzero;stroke:none"
           id="text342"><tspan
             x="0 6.9000001"
             y="0"
             id="tspan338">40</tspan><tspan
             x="0 6.9000001"
             y="16.6635"
             id="tspan340">50</tspan></text><path
           d="m 198,625.625 h -19.5 v 13.929 H 198 Z"
           style="fill:#ffffff;fill-opacity:1;fill-rule:nonzero;stroke:#d39886;stroke-width:0.5;stroke-linecap:butt;stroke-linejoin:miter;stroke-miterlimit:4;stroke-dasharray:none;stroke-opacity:1"
           id="path344" /><path
           d="M 205.375,608.688 H 178.5 v 13.929 h 26.875 z"
           style="fill:#ffffff;fill-opacity:1;fill-rule:nonzero;stroke:#d39886;stroke-width:0.5;stroke-linecap:butt;stroke-linejoin:miter;stroke-miterlimit:4;stroke-dasharray:none;stroke-opacity:1"
           id="path346" /><path
           d="m 217.5,591.75 h -39 v 13.93 h 39 z"
           style="fill:#ffffff;fill-opacity:1;fill-rule:nonzero;stroke:#d39886;stroke-width:0.5;stroke-linecap:butt;stroke-linejoin:miter;stroke-miterlimit:4;stroke-dasharray:none;stroke-opacity:1"
           id="path348" /><text
           transform="matrix(1,0,0,-1,182.1191,630.0078)"
           style="font-variant:normal;font-weight:normal;font-stretch:normal;font-size:11.5px;font-family:Courier;-inkscape-font-specification:Courier;writing-mode:lr-tb;fill:#231f20;fill-opacity:1;fill-rule:nonzero;stroke:none"
           id="text352"><tspan
             x="0"
             y="0"
             id="tspan350">@</tspan></text><text
           transform="matrix(1,0,0,-1,189.0205,627.0078)"
           style="font-variant:normal;font-weight:normal;font-stretch:normal;font-size:7px;font-family:Courier;-inkscape-font-specification:Courier;writing-mode:lr-tb;fill:#231f20;fill-opacity:1;fill-rule:nonzero;stroke:none"
           id="text356"><tspan
             x="0"
             y="0"
             id="tspan354">C</tspan></text><text
           transform="matrix(1,0,0,-1,182.1191,596.6758)"
           style="font-variant:normal;font-weight:normal;font-stretch:normal;font-size:11.5px;font-family:Courier;-inkscape-font-specification:Courier;writing-mode:lr-tb;fill:#231f20;fill-opacity:1;fill-rule:nonzero;stroke:none"
           id="text360"><tspan
             x="0"
             y="0"
             id="tspan358">@</tspan></text><text
           transform="matrix(1,0,0,-1,189.0205,593.6758)"
           style="font-variant:normal;font-weight:normal;font-stretch:normal;font-size:7px;font-family:Courier;-inkscape-font-specification:Courier;writing-mode:lr-tb;fill:#231f20;fill-opacity:1;fill-rule:nonzero;stroke:none"
           id="text364"><tspan
             x="0 4.1999998 8.3999996 12.6 16.799999 21"
             y="0"
             id="tspan362">CHANGE</tspan></text><text
           transform="matrix(1,0,0,-1,182.1191,613.2598)"
           style="font-variant:normal;font-weight:normal;font-stretch:normal;font-size:11.5px;font-family:Courier;-inkscape-font-specification:Courier;writing-mode:lr-tb;fill:#231f20;fill-opacity:1;fill-rule:nonzero;stroke:none"
           id="text368"><tspan
             x="0"
             y="0"
             id="tspan366">@</tspan></text><text
           transform="matrix(1,0,0,-1,189.0205,610.2598)"
           style="font-variant:normal;font-weight:normal;font-stretch:normal;font-size:7px;font-family:Courier;-inkscape-font-specification:Courier;writing-mode:lr-tb;fill:#231f20;fill-opacity:1;fill-rule:nonzero;stroke:none"
           id="text372"><tspan
             x="0 4.1999998 8.3999996"
             y="0"
             id="tspan370">FEJ</tspan></text></g></g></g></svg>
