<svg xmlns="http://www.w3.org/2000/svg" xmlns:xlink="http://www.w3.org/1999/xlink" width="358.36" height="153.82" viewBox="0 0 358.36 153.82">
  <defs>
    <style>
      .cls-1, .cls-12, .cls-2, .cls-20, .cls-7 {
        fill: none;
      }

      .cls-1, .cls-12, .cls-2, .cls-3, .cls-7, .cls-8, .cls-9 {
        stroke: #000;
      }

      .cls-1 {
        stroke-miterlimit: 10;
      }

      .cls-1, .cls-8 {
        stroke-width: 0.3px;
      }

      .cls-12, .cls-2, .cls-3, .cls-7, .cls-9 {
        stroke-width: 0.5px;
      }

      .cls-3, .cls-4 {
        fill: #fff;
      }

      .cls-20, .cls-3, .cls-7, .cls-8, .cls-9 {
        stroke-linejoin: round;
      }

      .cls-5 {
        fill: url(#linear-gradient);
      }

      .cls-6, .cls-9 {
        fill: #b3e2ee;
      }

      .cls-8 {
        fill: #f0f9fc;
      }

      .cls-10 {
        font-size: 7px;
        font-family: ArialMT, Arial;
      }

      .cls-11 {
        fill: url(#linear-gradient-2);
      }

      .cls-12 {
        stroke-dasharray: 2 1;
      }

      .cls-13 {
        font-size: 9px;
        font-family: Humanist521BT-BoldCondensed, Humanst521 Cn BT;
        font-weight: 700;
      }

      .cls-14 {
        letter-spacing: -0.02em;
      }

      .cls-15 {
        letter-spacing: 0em;
      }

      .cls-16 {
        letter-spacing: 0em;
      }

      .cls-17 {
        letter-spacing: -0.07em;
      }

      .cls-18 {
        letter-spacing: -0.07em;
      }

      .cls-19 {
        fill: #fef0e8;
      }

      .cls-20 {
        stroke: #e60001;
      }
    </style>
    <linearGradient id="linear-gradient" x1="318.12" y1="612.31" x2="379.32" y2="612.31" gradientTransform="translate(835.81 -344.16) rotate(68.86)" gradientUnits="userSpaceOnUse">
      <stop offset="0" stop-color="#cbd8e2"/>
      <stop offset="1" stop-color="#9aa5b5"/>
    </linearGradient>
    <linearGradient id="linear-gradient-2" x1="243.79" y1="804.53" x2="304.98" y2="804.53" xlink:href="#linear-gradient"/>
  </defs>
  <g id="Layer_2" data-name="Layer 2">
    <g>
      <path class="cls-1" d="M334.33,176c21-11.67,55.17-14.67,79.34-14" transform="translate(-121.9 -108.98)"/>
      <polygon points="213.82 68.38 210.08 68.32 212 65.11 213.82 68.38"/>
    </g>
    <g>
      <path class="cls-1" d="M235,221c-18.5,0-64.6,7.5-66.35,23.5" transform="translate(-121.9 -108.98)"/>
      <polygon points="112.56 110.16 115.8 112.03 112.56 113.9 112.56 110.16"/>
    </g>
    <g>
      <path class="cls-1" d="M235,151c-13.32,0-54.85-2.5-63.1-12.5" transform="translate(-121.9 -108.98)"/>
      <polygon points="112.56 40.16 115.8 42.03 112.56 43.9 112.56 40.16"/>
    </g>
    <line class="cls-2" x1="238.62" y1="51.47" x2="81.82" y2="51.47"/>
    <path class="cls-3" d="M362.43,159.85c-.95-.29-1.57-.55-2.33-.85v2.9a22.94,22.94,0,0,1,2.32-.87,17.55,17.55,0,0,1,2.54-.6A17,17,0,0,1,362.43,159.85Z" transform="translate(-121.9 -108.98)"/>
    <g>
      <path class="cls-4" d="M409.08,175.12h-43a.66.66,0,0,0-.65.66v36.53a.67.67,0,0,0,.65.67h43a.67.67,0,0,0,.65-.67V175.78A.66.66,0,0,0,409.08,175.12Z" transform="translate(-121.9 -108.98)"/>
      <path class="cls-5" d="M409.73,212.31a.67.67,0,0,1-.65.67h-43a.67.67,0,0,1-.65-.67V176.56a.66.66,0,0,1,.65-.66h43a.66.66,0,0,1,.65.66Z" transform="translate(-121.9 -108.98)"/>
      <path class="cls-6" d="M409.73,212.31a.67.67,0,0,1-.65.67h-43a.67.67,0,0,1-.65-.67V176.56a.66.66,0,0,1,.65-.66h43a.66.66,0,0,1,.65.66Z" transform="translate(-121.9 -108.98)"/>
      <path class="cls-7" d="M409.08,175.12h-43a.66.66,0,0,0-.65.66v36.53a.67.67,0,0,0,.65.67h43a.67.67,0,0,0,.65-.67V175.78A.66.66,0,0,0,409.08,175.12Z" transform="translate(-121.9 -108.98)"/>
      <rect class="cls-8" x="246.1" y="69.1" width="39.17" height="30.14"/>
      <polyline class="cls-3" points="294.64 103.04 287.65 101.49 243.54 101.49 236.74 103.04"/>
      <path class="cls-9" d="M358.62,212s1.31,2.89,2.82,2.89h52.29c1.39,0,2.82-2.89,2.82-2.89Z" transform="translate(-121.9 -108.98)"/>
    </g>
    <text class="cls-10" transform="translate(262.16 86.63)">Qi</text>
    <g>
      <path class="cls-4" d="M203,175.12H160a.67.67,0,0,0-.66.66v36.53a.67.67,0,0,0,.66.67h43a.67.67,0,0,0,.66-.67V175.78A.67.67,0,0,0,203,175.12Z" transform="translate(-121.9 -108.98)"/>
      <path class="cls-11" d="M203.64,212.31a.67.67,0,0,1-.66.67H160a.67.67,0,0,1-.66-.67V176.56a.67.67,0,0,1,.66-.66h43a.67.67,0,0,1,.66.66Z" transform="translate(-121.9 -108.98)"/>
      <path class="cls-6" d="M203.64,212.31a.67.67,0,0,1-.66.67H160a.67.67,0,0,1-.66-.67V176.56a.67.67,0,0,1,.66-.66h43a.67.67,0,0,1,.66.66Z" transform="translate(-121.9 -108.98)"/>
      <path class="cls-7" d="M203,175.12H160a.67.67,0,0,0-.66.66v36.53a.67.67,0,0,0,.66.67h43a.67.67,0,0,0,.66-.67V175.78A.67.67,0,0,0,203,175.12Z" transform="translate(-121.9 -108.98)"/>
      <rect class="cls-8" x="40.01" y="69.1" width="39.17" height="30.14"/>
      <polyline class="cls-3" points="88.55 103.04 81.56 101.49 37.45 101.49 30.64 103.04"/>
      <path class="cls-9" d="M152.52,212s1.32,2.89,2.82,2.89h52.29c1.39,0,2.83-2.89,2.83-2.89Z" transform="translate(-121.9 -108.98)"/>
    </g>
    <text class="cls-10" transform="translate(52.57 86.63)">Tom</text>
    <polyline class="cls-12" points="118.15 51.02 118.15 28.61 207.13 28.61 207.13 51.02"/>
    <path d="M253,217.37l1.5,1.44a.53.53,0,0,1,.18,0,.11.11,0,0,1,.07.06.13.13,0,0,1,0,.09.14.14,0,0,1,0,.11s-.09,0-.17,0h-1.06a.24.24,0,0,1-.18,0,.14.14,0,0,1-.05-.11.17.17,0,0,1,.05-.12.24.24,0,0,1,.18-.05h.55l-1.29-1.22-1.26,1.22h.55a.19.19,0,0,1,.16.05.17.17,0,0,1,.05.12.14.14,0,0,1-.05.11.19.19,0,0,1-.16,0H251a.22.22,0,0,1-.17,0,.14.14,0,0,1,0-.11.12.12,0,0,1,0-.09.17.17,0,0,1,.06-.06.66.66,0,0,1,.19,0l1.51-1.44-1.34-1.28H251A.22.22,0,0,1,251,216a.15.15,0,0,1,0-.2.24.24,0,0,1,.18-.06h.9a.18.18,0,0,1,.16.06.13.13,0,0,1,.05.11.17.17,0,0,1-.05.13.22.22,0,0,1-.16,0h-.4l1.1,1.06,1.12-1.06h-.39a.29.29,0,0,1-.17,0,.17.17,0,0,1-.05-.13.15.15,0,0,1,0-.11.24.24,0,0,1,.18-.06h.9a.18.18,0,0,1,.16.06.13.13,0,0,1,.05.11.16.16,0,0,1,0,.09.12.12,0,0,1-.07.07h-.17Zm-5.7-1.62h1.78a.22.22,0,0,1,.17.06.16.16,0,0,1,.05.11.21.21,0,0,1-.05.13.27.27,0,0,1-.17,0H247.3v2.19a.6.6,0,0,0,.23.47,1,1,0,0,0,.67.19,2.64,2.64,0,0,0,.71-.1,2.48,2.48,0,0,0,.61-.22.24.24,0,0,1,.13-.06.15.15,0,0,1,.11.06.17.17,0,0,1,0,.22,1.64,1.64,0,0,1-.62.28,3,3,0,0,1-.92.15,1.49,1.49,0,0,1-.91-.26.9.9,0,0,1-.34-.73v-2.19h-.61a.25.25,0,0,1-.17,0,.17.17,0,0,1-.05-.13.13.13,0,0,1,.05-.11.21.21,0,0,1,.17-.06H247v-1a.22.22,0,0,1,.05-.16.11.11,0,0,1,.11-.06.14.14,0,0,1,.12.06s.05.08.05.16Z" transform="translate(-121.9 -108.98)"/>
    <path d="M257.87,146.83h-.55L256,143.78h-.33a.3.3,0,0,1-.18,0,.21.21,0,0,1,0-.13.16.16,0,0,1,0-.11.24.24,0,0,1,.18-.06h1.23a.18.18,0,0,1,.16.06.14.14,0,0,1,.06.11.18.18,0,0,1-.06.13.22.22,0,0,1-.16,0h-.55l1.21,2.72h.15l1.17-2.72h-.55a.29.29,0,0,1-.17,0,.2.2,0,0,1,0-.13.15.15,0,0,1,0-.11.24.24,0,0,1,.17-.06h1.24a.19.19,0,0,1,.17.06.16.16,0,0,1,.05.11.21.21,0,0,1-.05.13s-.08,0-.17,0h-.33Zm-6.15-3.39v.5a2.08,2.08,0,0,1,.61-.47,1.34,1.34,0,0,1,.64-.14,1.39,1.39,0,0,1,.68.16,1.08,1.08,0,0,1,.39.38,1,1,0,0,1,.18.56v2.07h.28c.08,0,.13,0,.16.05a.14.14,0,0,1,.06.12.13.13,0,0,1-.06.11.22.22,0,0,1-.16.05h-.88a.25.25,0,0,1-.17-.05.12.12,0,0,1,0-.11.13.13,0,0,1,0-.12s.09-.05.17-.05h.27v-2a.8.8,0,0,0-.25-.59,1,1,0,0,0-.68-.24,1.1,1.1,0,0,0-.56.13,2.88,2.88,0,0,0-.68.65v2.06h.37c.08,0,.13,0,.16.05a.14.14,0,0,1,.06.12.13.13,0,0,1-.06.11.22.22,0,0,1-.16.05H251a.29.29,0,0,1-.17-.05.14.14,0,0,1,0-.11.16.16,0,0,1,0-.12.23.23,0,0,1,.17-.05h.38v-2.72h-.28a.3.3,0,0,1-.18,0,.2.2,0,0,1,0-.13.15.15,0,0,1,0-.11.24.24,0,0,1,.18-.06Zm-3.57,0v3.06h1.29c.08,0,.14,0,.17.05a.13.13,0,0,1,0,.12.12.12,0,0,1,0,.11.25.25,0,0,1-.17.05h-2.91a.25.25,0,0,1-.17-.05.14.14,0,0,1-.05-.11.17.17,0,0,1,.05-.12s.09-.05.17-.05h1.29v-2.72h-1a.25.25,0,0,1-.17,0,.21.21,0,0,1-.05-.13.16.16,0,0,1,.05-.11.21.21,0,0,1,.17-.06Zm0-1.68v.85h-.49v-.85Z" transform="translate(-121.9 -108.98)"/>
    <path d="M306.29,153.62a1.55,1.55,0,0,1,.69.56,1.26,1.26,0,0,1,.23.73,1.42,1.42,0,0,1-.47,1.05,1.67,1.67,0,0,1-1.19.44,2.33,2.33,0,0,1-.88-.17,1.82,1.82,0,0,1-.64-.37.19.19,0,0,1,0-.14.13.13,0,0,1,0-.1.14.14,0,0,1,.1-.05.24.24,0,0,1,.15.06,2.16,2.16,0,0,0,1.29.44,1.29,1.29,0,0,0,.94-.35,1,1,0,0,0,.38-.79,1,1,0,0,0-.19-.57,1.24,1.24,0,0,0-.53-.45,1.72,1.72,0,0,0-.72-.17.3.3,0,0,1-.18,0,.17.17,0,0,1-.05-.12.16.16,0,0,1,.05-.11.21.21,0,0,1,.16-.06h.27a1,1,0,0,0,.73-.27.81.81,0,0,0,.29-.62.86.86,0,0,0-.3-.65,1.1,1.1,0,0,0-.79-.29,1.44,1.44,0,0,0-.62.13,1,1,0,0,0-.45.32l-.11.1h-.07a.15.15,0,0,1-.11,0,.18.18,0,0,1-.05-.12c0-.1.12-.24.34-.4a1.91,1.91,0,0,1,1.07-.33,1.45,1.45,0,0,1,1,.38,1.2,1.2,0,0,1,.39.89,1.1,1.1,0,0,1-.19.62A1.25,1.25,0,0,1,306.29,153.62ZM299.4,156h2.52v-.12a.28.28,0,0,1,.05-.18.15.15,0,0,1,.11,0,.18.18,0,0,1,.13,0,.28.28,0,0,1,0,.18v.45h-3.17v-.49q1-.9,1.95-1.83.44-.43.6-.63a1,1,0,0,0,.22-.36.85.85,0,0,0,.06-.31,1,1,0,0,0-.34-.75,1.11,1.11,0,0,0-.82-.33,1.26,1.26,0,0,0-.76.25,1.19,1.19,0,0,0-.43.62c0,.06,0,.1-.06.11a.14.14,0,0,1-.1.05.13.13,0,0,1-.11-.05.13.13,0,0,1-.05-.11,1.09,1.09,0,0,1,.2-.5,1.46,1.46,0,0,1,.57-.5,1.58,1.58,0,0,1,.74-.2,1.46,1.46,0,0,1,1.06.44,1.31,1.31,0,0,1,.44,1,1,1,0,0,1-.08.42,1.45,1.45,0,0,1-.25.41c-.12.15-.33.37-.63.67-.77.77-1.41,1.36-1.89,1.78Zm-3.22-4.64V156h1.12c.08,0,.13,0,.16,0a.14.14,0,0,1,.06.12.13.13,0,0,1-.06.11s-.08,0-.16,0h-2.58a.24.24,0,0,1-.18,0,.14.14,0,0,1-.05-.11.17.17,0,0,1,.05-.12.24.24,0,0,1,.18,0h1.13v-4.18l-1.08.33-.12,0a.14.14,0,0,1-.1,0,.14.14,0,0,1-.05-.11.28.28,0,0,1,0-.12.38.38,0,0,1,.14-.06ZM292.49,153a2.35,2.35,0,0,0-.51-1.08,1,1,0,0,0-.72-.3,1,1,0,0,0-.74.36,1.29,1.29,0,0,0-.32.91,1.27,1.27,0,0,0,.32.88.94.94,0,0,0,.71.34,1,1,0,0,0,.46-.12,1.37,1.37,0,0,0,.43-.38A3.69,3.69,0,0,0,292.49,153Zm.06.55a2,2,0,0,1-.61.67,1.31,1.31,0,0,1-.72.23,1.2,1.2,0,0,1-.64-.2,1.37,1.37,0,0,1-.52-.57,1.82,1.82,0,0,1,.19-1.89,1.19,1.19,0,0,1,1-.5,1.32,1.32,0,0,1,.81.29,1.76,1.76,0,0,1,.57.79,4.31,4.31,0,0,1,.27,1.59,2.54,2.54,0,0,1-.23,1.14,2.24,2.24,0,0,1-.43.62,2.51,2.51,0,0,1-.65.47,2.18,2.18,0,0,1-1,.24,1.15,1.15,0,0,1-.57-.12.19.19,0,0,1-.1-.16.14.14,0,0,1,0-.11.13.13,0,0,1,.11,0,.26.26,0,0,1,.14,0,1,1,0,0,0,.35.06,1.89,1.89,0,0,0,1.42-.59,2,2,0,0,0,.61-1.51C292.57,153.86,292.56,153.71,292.55,153.52ZM288.41,156a.38.38,0,0,1-.12.28.42.42,0,0,1-.29.11.43.43,0,0,1-.28-.11.38.38,0,0,1-.12-.28.38.38,0,0,1,.12-.29.43.43,0,0,1,.28-.11.42.42,0,0,1,.29.11A.38.38,0,0,1,288.41,156Zm-1.61,0a.38.38,0,0,1-.12.28.41.41,0,0,1-.56,0A.38.38,0,0,1,286,156a.38.38,0,0,1,.12-.29.41.41,0,0,1,.56,0A.38.38,0,0,1,286.8,156Zm-1.61,0a.37.37,0,0,1-.11.28.42.42,0,0,1-.29.11.38.38,0,0,1-.39-.39.42.42,0,0,1,.11-.29.41.41,0,0,1,.28-.11.42.42,0,0,1,.29.11A.38.38,0,0,1,285.19,156Zm-3-1.42v-2.87H282l-1.66,2.87Zm0,.32H280v-.37l1.82-3.15h.68v3.2h.27c.09,0,.14,0,.17,0a.15.15,0,0,1,.06.13.14.14,0,0,1-.06.11s-.08,0-.17,0h-.27V156h.27c.09,0,.14,0,.17,0a.14.14,0,0,1,.06.12.13.13,0,0,1-.06.11s-.08,0-.17,0H281.6a.26.26,0,0,1-.19,0,.14.14,0,0,1,0-.11.16.16,0,0,1,0-.12.26.26,0,0,1,.19,0h.61Zm-4-1.67v-.11a.25.25,0,0,1,0-.17.15.15,0,0,1,.24,0,.25.25,0,0,1,.05.17v.74a.3.3,0,0,1-.05.18.17.17,0,0,1-.24,0,.21.21,0,0,1,0-.15.78.78,0,0,0-.37-.53,1.48,1.48,0,0,0-.92-.25,1.34,1.34,0,0,0-1.11.46,1.61,1.61,0,0,0-.38,1,1.44,1.44,0,0,0,.41,1.05,1.53,1.53,0,0,0,1.1.41,2.42,2.42,0,0,0,.77-.14,1.77,1.77,0,0,0,.71-.46.28.28,0,0,1,.15-.08.17.17,0,0,1,.12.05.21.21,0,0,1,0,.11c0,.12-.13.26-.4.44a2.58,2.58,0,0,1-1.42.4,1.78,1.78,0,0,1-1.3-.5,1.73,1.73,0,0,1-.51-1.28,1.79,1.79,0,0,1,.53-1.32,1.76,1.76,0,0,1,1.31-.52A1.86,1.86,0,0,1,278.17,153.24Zm-5,1.74a1,1,0,0,0-.34-.75,1.17,1.17,0,0,0-.84-.33,1.14,1.14,0,0,0-.84.33,1,1,0,0,0-.34.74,1,1,0,0,0,.35.78,1.14,1.14,0,0,0,.83.32,1.16,1.16,0,0,0,.84-.32A1,1,0,0,0,273.17,155Zm-.09-2.35a1,1,0,0,0-.32-.73,1.11,1.11,0,0,0-1.54,0,1,1,0,0,0-.31.73.9.9,0,0,0,.31.67,1.11,1.11,0,0,0,.77.28,1.09,1.09,0,0,0,.77-.28A.91.91,0,0,0,273.08,152.63Zm-.41,1.11a1.57,1.57,0,0,1,.62.54,1.29,1.29,0,0,1,.2.69,1.34,1.34,0,0,1-.45,1,1.42,1.42,0,0,1-1.05.42,1.5,1.5,0,0,1-1.07-.42,1.35,1.35,0,0,1-.43-1,1.29,1.29,0,0,1,.2-.69,1.64,1.64,0,0,1,.64-.54,1.45,1.45,0,0,1-.52-.43,1.06,1.06,0,0,1-.23-.69,1.26,1.26,0,0,1,.41-1,1.39,1.39,0,0,1,1-.41,1.37,1.37,0,0,1,1,.41,1.27,1.27,0,0,1,.42,1,1.12,1.12,0,0,1-.23.69A1.41,1.41,0,0,1,272.67,153.74Zm-4.87.85v-2.87h-.17L266,154.59Zm0,.32h-2.17v-.37l1.81-3.15h.69v3.2h.27c.09,0,.14,0,.17,0a.15.15,0,0,1,.06.13.14.14,0,0,1-.06.11s-.08,0-.17,0h-.27V156h.27c.09,0,.14,0,.17,0a.14.14,0,0,1,.06.12.13.13,0,0,1-.06.11s-.08,0-.17,0h-1.21a.26.26,0,0,1-.19,0,.14.14,0,0,1,0-.11.16.16,0,0,1,0-.12.26.26,0,0,1,.19,0h.61Zm-8.43-.15h-3.58a.29.29,0,0,1-.17,0,.2.2,0,0,1,0-.24.29.29,0,0,1,.17-.05h3.58a.22.22,0,0,1,.16.05.15.15,0,0,1,0,.24A.22.22,0,0,1,259.37,154.76Zm0-1.19h-3.58a.29.29,0,0,1-.17,0,.17.17,0,0,1,0-.13.15.15,0,0,1,0-.11.29.29,0,0,1,.17,0h3.58a.22.22,0,0,1,.16,0,.15.15,0,0,1,0,.24A.22.22,0,0,1,259.37,153.57Zm-6.37,1,1.5,1.44a.53.53,0,0,1,.18,0,.11.11,0,0,1,.07.06.13.13,0,0,1,0,.09.14.14,0,0,1,0,.11s-.09,0-.17,0h-1.06a.24.24,0,0,1-.18,0,.14.14,0,0,1-.05-.11.17.17,0,0,1,.05-.12.24.24,0,0,1,.18,0h.55l-1.29-1.22L251.51,156h.55a.19.19,0,0,1,.16,0,.17.17,0,0,1,.05.12.14.14,0,0,1-.05.11.19.19,0,0,1-.16,0H251a.22.22,0,0,1-.17,0,.14.14,0,0,1,0-.11.12.12,0,0,1,0-.09.17.17,0,0,1,.06-.06.66.66,0,0,1,.19,0l1.51-1.44-1.34-1.28H251a.22.22,0,0,1-.06-.07.15.15,0,0,1,0-.2.24.24,0,0,1,.18-.06h.9a.18.18,0,0,1,.16.06.13.13,0,0,1,.05.11.17.17,0,0,1-.05.13.22.22,0,0,1-.16,0h-.4l1.1,1.06,1.12-1.06h-.39a.29.29,0,0,1-.17,0,.17.17,0,0,1-.05-.13.15.15,0,0,1,0-.11.24.24,0,0,1,.18-.06h.9a.18.18,0,0,1,.16.06.13.13,0,0,1,.05.11.16.16,0,0,1,0,.09.12.12,0,0,1-.07.07h-.17Zm-5.7-1.62h1.78a.22.22,0,0,1,.17.06.16.16,0,0,1,.05.11.21.21,0,0,1-.05.13.27.27,0,0,1-.17,0H247.3v2.19a.6.6,0,0,0,.23.47,1,1,0,0,0,.67.19,2.64,2.64,0,0,0,.71-.1,3,3,0,0,0,.61-.22.24.24,0,0,1,.13-.06.15.15,0,0,1,.11.06.17.17,0,0,1,0,.22,1.64,1.64,0,0,1-.62.28,3.37,3.37,0,0,1-.92.14,1.43,1.43,0,0,1-.91-.26.86.86,0,0,1-.34-.72v-2.19h-.61a.25.25,0,0,1-.17,0,.17.17,0,0,1-.05-.13.13.13,0,0,1,.05-.11.21.21,0,0,1,.17-.06H247v-1a.22.22,0,0,1,.05-.16.11.11,0,0,1,.11-.06.14.14,0,0,1,.12.06s.05.08.05.16Z" transform="translate(-121.9 -108.98)"/>
    <line class="cls-2" x1="86.74" y1="87.63" x2="243.53" y2="87.63"/>
    <path class="cls-3" d="M206.71,196a21.94,21.94,0,0,0,2.33-.85v2.91a21.07,21.07,0,0,0-2.33-.87,16.3,16.3,0,0,0-2.54-.6A17,17,0,0,0,206.71,196Z" transform="translate(-121.9 -108.98)"/>
    <polyline class="cls-12" points="118.15 87.18 118.15 64.77 207.13 64.77 207.13 87.18"/>
    <path d="M288.41,192.16a.4.4,0,0,1-.12.29.42.42,0,0,1-.29.11.43.43,0,0,1-.28-.11.4.4,0,0,1-.12-.29.36.36,0,0,1,.12-.28.39.39,0,0,1,.28-.12.38.38,0,0,1,.29.12A.36.36,0,0,1,288.41,192.16Zm-1.61,0a.4.4,0,0,1-.12.29.41.41,0,0,1-.56,0,.4.4,0,0,1-.12-.29.4.4,0,0,1,.8,0Zm-1.61,0a.39.39,0,0,1-.11.29.42.42,0,0,1-.29.11.41.41,0,0,1-.28-.11.44.44,0,0,1-.11-.29.39.39,0,0,1,.11-.28.38.38,0,0,1,.28-.12.38.38,0,0,1,.29.12A.36.36,0,0,1,285.19,192.16Z" transform="translate(-121.9 -108.98)"/>
    <line class="cls-2" x1="238.62" y1="123.78" x2="81.82" y2="123.78"/>
    <path class="cls-3" d="M362.43,232.16c-.95-.29-1.57-.55-2.33-.85v2.9a22.94,22.94,0,0,1,2.32-.87,17.55,17.55,0,0,1,2.54-.6A17,17,0,0,1,362.43,232.16Z" transform="translate(-121.9 -108.98)"/>
    <polyline class="cls-12" points="118.15 123.33 118.15 100.92 207.13 100.92 207.13 123.33"/>
    <path d="M277.73,181.35a1.86,1.86,0,0,0-.48-.09,4.56,4.56,0,0,0-.54,0,1.78,1.78,0,0,0-1.12.31.67.67,0,0,0-.31.56.64.64,0,0,0,.23.5,1.06,1.06,0,0,0,.68.19,1.86,1.86,0,0,0,.79-.16,2.52,2.52,0,0,0,.75-.54Zm0,1.63v-.47a2.31,2.31,0,0,1-1.52.6,1.32,1.32,0,0,1-.92-.3.92.92,0,0,1-.33-.72,1.06,1.06,0,0,1,.43-.83,1.93,1.93,0,0,1,1.28-.37,2.74,2.74,0,0,1,.48,0,3,3,0,0,1,.58.09v-.54a.56.56,0,0,0-.25-.46,1.12,1.12,0,0,0-.75-.21,3.76,3.76,0,0,0-1.06.23l-.16,0a.16.16,0,0,1-.12,0,.15.15,0,0,1,0-.11.14.14,0,0,1,0-.11,1.19,1.19,0,0,1,.45-.17,4.3,4.3,0,0,1,.92-.16,1.34,1.34,0,0,1,.95.31.9.9,0,0,1,.36.69v2.18h.44a.25.25,0,0,1,.17,0,.15.15,0,0,1,.06.13.14.14,0,0,1-.06.11.25.25,0,0,1-.17,0Zm-6.41-3.38h1.78a.22.22,0,0,1,.16.05.14.14,0,0,1,.06.12.17.17,0,0,1-.06.12.22.22,0,0,1-.16.05h-1.78v2.18a.61.61,0,0,0,.22.48,1.07,1.07,0,0,0,.67.18,3.22,3.22,0,0,0,.72-.09,2.6,2.6,0,0,0,.6-.23.24.24,0,0,1,.14-.05.11.11,0,0,1,.1.05.17.17,0,0,1,.05.12.21.21,0,0,1-.05.11,1.77,1.77,0,0,1-.61.27,3.1,3.1,0,0,1-.92.15,1.49,1.49,0,0,1-.91-.26.88.88,0,0,1-.34-.73v-2.18h-.62a.29.29,0,0,1-.17-.05.19.19,0,0,1,0-.12.16.16,0,0,1,0-.12.29.29,0,0,1,.17-.05H271v-1a.22.22,0,0,1,0-.16.15.15,0,0,1,.24,0,.22.22,0,0,1,.05.16Zm-3.19,1.75a1.93,1.93,0,0,0-.49-.09,4.56,4.56,0,0,0-.54,0,1.8,1.8,0,0,0-1.12.31.66.66,0,0,0-.08,1.06,1.06,1.06,0,0,0,.68.19,1.91,1.91,0,0,0,.8-.16,2.79,2.79,0,0,0,.75-.54Zm0,1.63v-.47a2.35,2.35,0,0,1-1.53.6,1.32,1.32,0,0,1-.92-.3.92.92,0,0,1-.33-.72,1,1,0,0,1,.44-.83,1.91,1.91,0,0,1,1.27-.37,2.93,2.93,0,0,1,.49,0,3.29,3.29,0,0,1,.58.09v-.54a.56.56,0,0,0-.25-.46,1.16,1.16,0,0,0-.75-.21,3.81,3.81,0,0,0-1.07.23l-.16,0a.14.14,0,0,1-.11,0,.13.13,0,0,1-.05-.11.12.12,0,0,1,.05-.11,1.11,1.11,0,0,1,.44-.17,4.3,4.3,0,0,1,.92-.16,1.33,1.33,0,0,1,1,.31.9.9,0,0,1,.36.69v2.18h.44a.25.25,0,0,1,.17,0,.15.15,0,0,1,.06.13.14.14,0,0,1-.06.11.25.25,0,0,1-.17,0Zm-4.48-1.68a1.48,1.48,0,0,0-.42-1.06,1.37,1.37,0,0,0-1-.43,1.39,1.39,0,0,0-1,.43,1.48,1.48,0,0,0-.42,1.06,1.46,1.46,0,0,0,.42,1,1.35,1.35,0,0,0,1,.43,1.33,1.33,0,0,0,1-.43A1.46,1.46,0,0,0,263.65,181.3Zm.35-3.21v4.57h.43a.25.25,0,0,1,.17,0,.14.14,0,0,1,0,.13.13.13,0,0,1,0,.11.25.25,0,0,1-.17,0h-.78v-.64a1.72,1.72,0,0,1-2.29.54,1.68,1.68,0,0,1-.65-.67,1.88,1.88,0,0,1-.24-.91,1.84,1.84,0,0,1,.24-.9,1.7,1.7,0,0,1,.65-.68,1.63,1.63,0,0,1,.85-.24,1.73,1.73,0,0,1,1.44.79v-1.86h-.43a.3.3,0,0,1-.18,0,.17.17,0,0,1,0-.24.3.3,0,0,1,.18,0Zm-7.1,1.51h1.79a.22.22,0,0,1,.16.05.14.14,0,0,1,.06.12.17.17,0,0,1-.06.12.22.22,0,0,1-.16.05H256.9v2.18a.62.62,0,0,0,.23.48,1.1,1.1,0,0,0,.68.18,3.14,3.14,0,0,0,.71-.09,2.6,2.6,0,0,0,.6-.23.24.24,0,0,1,.14-.05.11.11,0,0,1,.1.05.17.17,0,0,1,.05.12.21.21,0,0,1-.05.11,1.77,1.77,0,0,1-.61.27,3.1,3.1,0,0,1-.92.15,1.49,1.49,0,0,1-.91-.26.88.88,0,0,1-.34-.73v-2.18H256a.29.29,0,0,1-.17-.05.19.19,0,0,1,0-.12.16.16,0,0,1,0-.12.29.29,0,0,1,.17-.05h.62v-1a.22.22,0,0,1,0-.16.15.15,0,0,1,.24,0,.22.22,0,0,1,0,.16ZM254.22,181a1.34,1.34,0,0,0-.52-.88,1.56,1.56,0,0,0-2,0,1.32,1.32,0,0,0-.51.88Zm.33.33H251.2a1.6,1.6,0,0,0,.54,1,1.64,1.64,0,0,0,1.11.39,3,3,0,0,0,.77-.11,2.07,2.07,0,0,0,.65-.32.23.23,0,0,1,.13-.07.14.14,0,0,1,.11.06.16.16,0,0,1,.05.11.18.18,0,0,1-.06.13,1.77,1.77,0,0,1-.67.36,3,3,0,0,1-1,.17,2,2,0,0,1-1.42-.55,1.81,1.81,0,0,1-.55-1.34,1.68,1.68,0,0,1,.52-1.23,1.83,1.83,0,0,1,1.32-.51A1.78,1.78,0,0,1,254,180,1.82,1.82,0,0,1,254.55,181.37Zm-5.48-.18a1.35,1.35,0,0,0-.39-1,1.3,1.3,0,0,0-1.89,0,1.31,1.31,0,0,0-.4,1,1.36,1.36,0,0,0,.4,1,1.32,1.32,0,0,0,1.89,0A1.39,1.39,0,0,0,249.07,181.19Zm0-1v-.6h.78a.23.23,0,0,1,.16.05.17.17,0,0,1,.05.12.21.21,0,0,1-.05.12.23.23,0,0,1-.16.05h-.45v3.27a1.25,1.25,0,0,1-.13.59,1.45,1.45,0,0,1-.32.36,2.22,2.22,0,0,1-.4.26,1.26,1.26,0,0,1-.48.08h-.93a.29.29,0,0,1-.17-.05.17.17,0,0,1-.05-.12.21.21,0,0,1,.05-.13.29.29,0,0,1,.17,0h.94a.9.9,0,0,0,.51-.15,1,1,0,0,0,.4-.43.93.93,0,0,0,.08-.42v-1a1.62,1.62,0,0,1-2.52.23,1.69,1.69,0,0,1-.49-1.22,1.67,1.67,0,0,1,.49-1.21,1.62,1.62,0,0,1,2.52.22Z" transform="translate(-121.9 -108.98)"/>
    <path d="M306.29,189.77a1.62,1.62,0,0,1,.69.56,1.29,1.29,0,0,1,.23.74,1.46,1.46,0,0,1-.47,1.05,1.72,1.72,0,0,1-1.19.44,2.54,2.54,0,0,1-.88-.17A1.82,1.82,0,0,1,304,192a.17.17,0,0,1,0-.13.15.15,0,0,1,0-.11.18.18,0,0,1,.1,0,.3.3,0,0,1,.15.05,2.11,2.11,0,0,0,1.29.45,1.33,1.33,0,0,0,.94-.35,1.05,1.05,0,0,0,.38-.8,1,1,0,0,0-.19-.57,1.22,1.22,0,0,0-.53-.44,1.72,1.72,0,0,0-.72-.17.3.3,0,0,1-.18-.05.14.14,0,0,1-.05-.11.18.18,0,0,1,.05-.12.25.25,0,0,1,.16-.05h.27a1,1,0,0,0,.73-.27.81.81,0,0,0,.29-.63.88.88,0,0,0-.3-.65,1.09,1.09,0,0,0-.79-.28,1.44,1.44,0,0,0-.62.13,1.07,1.07,0,0,0-.45.31l-.11.11h-.07a.17.17,0,0,1-.16-.16c0-.11.12-.24.34-.4a1.83,1.83,0,0,1,1.07-.33,1.45,1.45,0,0,1,1,.37,1.21,1.21,0,0,1,.39.89,1.13,1.13,0,0,1-.19.63A1.24,1.24,0,0,1,306.29,189.77Zm-6.89,2.35h2.52V192a.25.25,0,0,1,.05-.17.16.16,0,0,1,.11,0,.19.19,0,0,1,.13,0,.25.25,0,0,1,0,.17v.45h-3.17V192q1-.9,1.95-1.83.44-.44.6-.63a1.15,1.15,0,0,0,.22-.37.8.8,0,0,0,.06-.3,1,1,0,0,0-.34-.75,1.11,1.11,0,0,0-.82-.33,1.2,1.2,0,0,0-.76.25,1.17,1.17,0,0,0-.43.61.33.33,0,0,1-.06.12.13.13,0,0,1-.1,0,.12.12,0,0,1-.11,0,.13.13,0,0,1-.05-.12,1.09,1.09,0,0,1,.2-.5,1.46,1.46,0,0,1,.57-.5,1.57,1.57,0,0,1,.74-.19,1.45,1.45,0,0,1,1.06.43,1.31,1.31,0,0,1,.44,1,1,1,0,0,1-.08.42,1.45,1.45,0,0,1-.25.41c-.12.14-.33.37-.63.67-.77.77-1.41,1.36-1.89,1.77Zm-3.22-4.64v4.64h1.12a.22.22,0,0,1,.16,0,.15.15,0,0,1,.06.13.14.14,0,0,1-.06.11.22.22,0,0,1-.16,0h-2.58a.3.3,0,0,1-.18,0,.16.16,0,0,1-.05-.11.17.17,0,0,1,.05-.13.3.3,0,0,1,.18,0h1.13v-4.19l-1.08.33-.12,0a.13.13,0,0,1-.1,0,.17.17,0,0,1-.05-.12.3.3,0,0,1,0-.11.35.35,0,0,1,.14-.07Zm-3.69,1.65a2.3,2.3,0,0,0-.51-1.08,1,1,0,0,0-.72-.3,1,1,0,0,0-.74.35,1.33,1.33,0,0,0-.32.91,1.3,1.3,0,0,0,.32.89.94.94,0,0,0,.71.34.87.87,0,0,0,.46-.13,1.33,1.33,0,0,0,.43-.37A4.2,4.2,0,0,0,292.49,189.13Zm.06.54a1.82,1.82,0,0,1-.61.67,1.31,1.31,0,0,1-.72.23,1.28,1.28,0,0,1-.64-.19,1.37,1.37,0,0,1-.52-.57,1.84,1.84,0,0,1-.18-.8,1.75,1.75,0,0,1,.37-1.09,1.19,1.19,0,0,1,1-.5,1.26,1.26,0,0,1,.81.29,1.66,1.66,0,0,1,.57.79,4.29,4.29,0,0,1,.27,1.58,2.62,2.62,0,0,1-.23,1.15,2.2,2.2,0,0,1-.43.61,2.81,2.81,0,0,1-.65.48,2.31,2.31,0,0,1-1,.24,1,1,0,0,1-.57-.13.17.17,0,0,1-.1-.16.14.14,0,0,1,.15-.15.33.33,0,0,1,.14,0,.78.78,0,0,0,.35.07,1.93,1.93,0,0,0,1.42-.59,2,2,0,0,0,.61-1.51C292.57,190,292.56,189.87,292.55,189.67Zm-4.14,2.49a.36.36,0,0,1-.12.28.38.38,0,0,1-.29.12.39.39,0,0,1-.28-.12.39.39,0,0,1,0-.56.39.39,0,0,1,.28-.12.38.38,0,0,1,.29.12A.36.36,0,0,1,288.41,192.16Zm-1.61,0a.41.41,0,1,1-.12-.28A.36.36,0,0,1,286.8,192.16Zm-1.61,0a.36.36,0,0,1-.11.28.38.38,0,0,1-.29.12.38.38,0,0,1-.28-.12.41.41,0,0,1,0-.56.38.38,0,0,1,.28-.12.38.38,0,0,1,.29.12A.36.36,0,0,1,285.19,192.16Zm-3-1.42v-2.86H282l-1.66,2.86Zm0,.33H280v-.38l1.82-3.15h.68v3.2h.27c.09,0,.14,0,.17,0a.14.14,0,0,1,.06.12.13.13,0,0,1-.06.11.23.23,0,0,1-.17,0h-.27v1.05h.27c.09,0,.14,0,.17,0a.15.15,0,0,1,.06.13.14.14,0,0,1-.06.11s-.08,0-.17,0H281.6a.32.32,0,0,1-.19,0,.15.15,0,0,1,0-.11.17.17,0,0,1,0-.13.32.32,0,0,1,.19,0h.61Zm-4-1.67v-.12a.25.25,0,0,1,0-.17.17.17,0,0,1,.24,0,.25.25,0,0,1,.05.17V190a.31.31,0,0,1-.05.19.2.2,0,0,1-.24,0,.21.21,0,0,1,0-.15.8.8,0,0,0-.37-.54,1.55,1.55,0,0,0-.92-.25,1.34,1.34,0,0,0-1.11.47,1.59,1.59,0,0,0-.38,1,1.42,1.42,0,0,0,.41,1,1.53,1.53,0,0,0,1.1.41,2.42,2.42,0,0,0,.77-.14,1.86,1.86,0,0,0,.71-.45.28.28,0,0,1,.15-.08.16.16,0,0,1,.12,0,.25.25,0,0,1,0,.12c0,.11-.13.26-.4.43a2.59,2.59,0,0,1-1.42.41,1.82,1.82,0,0,1-1.3-.5,1.74,1.74,0,0,1-.51-1.28,1.81,1.81,0,0,1,1.84-1.85A1.87,1.87,0,0,1,278.17,189.4Zm-5,1.74a1,1,0,0,0-.34-.75,1.17,1.17,0,0,0-.84-.33,1.14,1.14,0,0,0-.84.33,1,1,0,0,0-.34.74,1,1,0,0,0,.35.78,1.18,1.18,0,0,0,.83.32,1.2,1.2,0,0,0,.84-.32A1,1,0,0,0,273.17,191.14Zm-.09-2.36a1,1,0,0,0-.32-.72,1.11,1.11,0,0,0-1.54,0,1,1,0,0,0-.31.72.88.88,0,0,0,.31.67,1.12,1.12,0,0,0,.77.29,1.1,1.1,0,0,0,.77-.29A.89.89,0,0,0,273.08,188.78Zm-.41,1.12a1.48,1.48,0,0,1,.62.53,1.32,1.32,0,0,1,.2.7,1.37,1.37,0,0,1-.45,1,1.42,1.42,0,0,1-1.05.42,1.5,1.5,0,0,1-1.07-.42,1.39,1.39,0,0,1-.43-1,1.32,1.32,0,0,1,.2-.7,1.54,1.54,0,0,1,.64-.53,1.56,1.56,0,0,1-.52-.43,1.11,1.11,0,0,1-.23-.7,1.25,1.25,0,0,1,.41-.94,1.39,1.39,0,0,1,1-.41,1.37,1.37,0,0,1,1,.41,1.26,1.26,0,0,1,.42.94,1.17,1.17,0,0,1-.23.7A1.51,1.51,0,0,1,272.67,189.9Zm-4.87.84v-2.86h-.17L266,190.74Zm0,.33h-2.17v-.38l1.81-3.15h.69v3.2h.27c.09,0,.14,0,.17,0a.14.14,0,0,1,.06.12.13.13,0,0,1-.06.11.23.23,0,0,1-.17,0h-.27v1.05h.27c.09,0,.14,0,.17,0a.15.15,0,0,1,.06.13.14.14,0,0,1-.06.11s-.08,0-.17,0h-1.21a.32.32,0,0,1-.19,0,.15.15,0,0,1,0-.11.17.17,0,0,1,0-.13.32.32,0,0,1,.19,0h.61Zm-8.43-.16h-3.58a.39.39,0,0,1-.17,0,.2.2,0,0,1,0-.13.17.17,0,0,1,0-.12.39.39,0,0,1,.17,0h3.58a.28.28,0,0,1,.16,0,.16.16,0,0,1,.06.12.18.18,0,0,1-.06.13A.28.28,0,0,1,259.37,190.91Zm0-1.18h-3.58a.29.29,0,0,1-.17,0,.2.2,0,0,1,0-.24.29.29,0,0,1,.17,0h3.58a.22.22,0,0,1,.16,0,.16.16,0,0,1,.06.13.14.14,0,0,1-.06.11A.22.22,0,0,1,259.37,189.73Zm-6.37.94,1.5,1.45c.1,0,.16,0,.18,0a.13.13,0,0,1,.07.05.18.18,0,0,1,0,.1.16.16,0,0,1,0,.11.25.25,0,0,1-.17,0h-1.06a.3.3,0,0,1-.18,0,.16.16,0,0,1-.05-.11.17.17,0,0,1,.05-.13.3.3,0,0,1,.18,0h.55l-1.29-1.22-1.26,1.22h.55a.24.24,0,0,1,.16,0,.17.17,0,0,1,.05.13.16.16,0,0,1-.05.11.24.24,0,0,1-.16,0H251a.27.27,0,0,1-.17,0,.16.16,0,0,1,0-.11.17.17,0,0,1,0-.1l.06-.05a.42.42,0,0,1,.19,0l1.51-1.45-1.34-1.27H251l-.06-.07a.16.16,0,0,1,0-.09.17.17,0,0,1,.05-.12.3.3,0,0,1,.18-.05h.9a.22.22,0,0,1,.16.05.13.13,0,0,1,.05.12.16.16,0,0,1-.05.12.22.22,0,0,1-.16.05h-.4l1.1,1.06,1.12-1.06h-.39a.29.29,0,0,1-.17-.05.18.18,0,0,1,0-.24.3.3,0,0,1,.18-.05h.9a.22.22,0,0,1,.16.05.13.13,0,0,1,.05.12.16.16,0,0,1,0,.09.16.16,0,0,1-.07.07h-.17Zm-5.7-1.61h1.78a.26.26,0,0,1,.17.05.17.17,0,0,1,.05.12.21.21,0,0,1-.05.12.26.26,0,0,1-.17.05H247.3v2.18a.62.62,0,0,0,.23.48,1.05,1.05,0,0,0,.67.18,3.07,3.07,0,0,0,.71-.09,2.91,2.91,0,0,0,.61-.23.21.21,0,0,1,.13,0,.14.14,0,0,1,.11,0,.16.16,0,0,1,0,.12.19.19,0,0,1,0,.11,1.86,1.86,0,0,1-.62.27,3,3,0,0,1-.92.15,1.49,1.49,0,0,1-.91-.26.88.88,0,0,1-.34-.73V189.4h-.61a.25.25,0,0,1-.17-.05.16.16,0,0,1-.05-.12.13.13,0,0,1,.05-.12.25.25,0,0,1,.17-.05H247v-1a.22.22,0,0,1,.05-.16s.06-.05.11-.05a.13.13,0,0,1,.12.05s.05.08.05.16Z" transform="translate(-121.9 -108.98)"/>
    <text class="cls-13" transform="translate(294.03 36.56)">Qi checks if she<tspan x="0" y="9.5">already has the</tspan><tspan x="0" y="19">tx. She does</tspan><tspan class="cls-14" x="42.27" y="19">n</tspan><tspan class="cls-15" x="46.6" y="19">’t,</tspan><tspan x="0" y="28.5">so she requests it.</tspan></text>
    <text class="cls-13" transform="translate(0.04 7.57)">An inv message informs Qi’s<tspan x="0" y="9.5">node that Joh</tspan><tspan class="cls-14" x="47.83" y="9.5">n</tspan><tspan class="cls-16" x="52.16" y="9.5">’s transaction</tspan><tspan x="0" y="19">can be fetched from </tspan><tspan class="cls-17" x="72.43" y="19">T</tspan><tspan class="cls-16" x="75.87" y="19">om’s</tspan><tspan x="0" y="28.5">node.</tspan></text>
    <text class="cls-13" transform="translate(0.2 142.2)"><tspan class="cls-18">T<tspan class="cls-15" x="3.44" y="0">om’s node has the requested</tspan></tspan><tspan x="0" y="9.5">tx, so he sends it.</tspan></text>
    <g>
      <rect class="cls-19" x="165.77" y="102.88" width="34.9" height="18.93" rx="2"/>
      <rect class="cls-20" x="165.77" y="102.88" width="34.9" height="18.93" rx="2"/>
    </g>
    <text class="cls-10" transform="translate(179.33 114.44)">Tx</text>
  </g>
</svg>
