<svg xmlns="http://www.w3.org/2000/svg" xmlns:xlink="http://www.w3.org/1999/xlink" width="346.25" height="96.13" viewBox="0 0 346.25 96.13">
  <defs>
    <style>
      .cls-1 {
        fill: #fee5d8;
      }

      .cls-1, .cls-10, .cls-12, .cls-14, .cls-15, .cls-16, .cls-18, .cls-2, .cls-6 {
        stroke: #000;
      }

      .cls-1, .cls-10, .cls-12, .cls-14, .cls-15, .cls-16, .cls-17, .cls-2, .cls-3 {
        stroke-width: 0.5px;
      }

      .cls-2, .cls-4 {
        fill: #fff;
      }

      .cls-12, .cls-14, .cls-15, .cls-18, .cls-2, .cls-23 {
        stroke-linejoin: round;
      }

      .cls-3, .cls-5 {
        fill: #8dac58;
      }

      .cls-3 {
        stroke: #3b5c18;
      }

      .cls-6 {
        fill: #fda452;
      }

      .cls-18, .cls-6 {
        stroke-width: 0.3px;
      }

      .cls-7 {
        fill: #fbafc5;
      }

      .cls-7, .cls-8, .cls-9 {
        fill-rule: evenodd;
      }

      .cls-8 {
        fill: #96c749;
      }

      .cls-9 {
        fill: #28708e;
      }

      .cls-10, .cls-16, .cls-17, .cls-23 {
        fill: none;
      }

      .cls-11 {
        fill: url(#linear-gradient);
      }

      .cls-12 {
        fill: url(#linear-gradient-2);
      }

      .cls-13 {
        fill: #dff0f4;
      }

      .cls-14 {
        fill: #e0e0e0;
      }

      .cls-16, .cls-17 {
        stroke-miterlimit: 10;
      }

      .cls-17 {
        stroke: #fff;
      }

      .cls-18 {
        fill: #d1eef5;
      }

      .cls-19 {
        font-size: 10px;
        font-family: Courier;
      }

      .cls-20 {
        font-size: 8px;
        font-family: Wingdings-Regular, Wingdings;
      }

      .cls-21 {
        font-size: 7px;
        font-family: ArialMT, Arial;
      }

      .cls-22 {
        fill: #fef0e8;
      }

      .cls-23 {
        stroke: #e60001;
      }
    </style>
    <linearGradient id="linear-gradient" x1="216" y1="818.76" x2="275.72" y2="818.76" gradientTransform="translate(835.81 -344.16) rotate(68.86)" gradientUnits="userSpaceOnUse">
      <stop offset="0" stop-color="#cbd8e2"/>
      <stop offset="1" stop-color="#9aa5b5"/>
    </linearGradient>
    <linearGradient id="linear-gradient-2" x1="136.12" y1="173.15" x2="179.88" y2="173.15" gradientUnits="userSpaceOnUse">
      <stop offset="0"/>
      <stop offset="0.08" stop-color="#050505"/>
      <stop offset="0.17" stop-color="#131313"/>
      <stop offset="0.27" stop-color="#2b2b2b"/>
      <stop offset="0.38" stop-color="#4b4b4b"/>
      <stop offset="0.48" stop-color="#757575"/>
      <stop offset="0.51" stop-color="gray"/>
      <stop offset="0.57" stop-color="#626262"/>
      <stop offset="0.65" stop-color="#3f3f3f"/>
      <stop offset="0.74" stop-color="#232323"/>
      <stop offset="0.82" stop-color="#101010"/>
      <stop offset="0.91" stop-color="#040404"/>
      <stop offset="1"/>
    </linearGradient>
  </defs>
  <g id="Layer_2" data-name="Layer 2">
    <rect class="cls-1" x="131.04" y="12.2" width="11.27" height="11.27"/>
    <rect class="cls-2" x="222.3" y="58.13" width="74.02" height="13.94"/>
    <g>
      <path class="cls-3" d="M397.63,198a4.62,4.62,0,1,0,4.62-4.62A4.62,4.62,0,0,0,397.63,198Z" transform="translate(-129.67 -132.64)"/>
      <path class="cls-4" d="M398.47,198a3.79,3.79,0,1,0,3.78-3.79A3.79,3.79,0,0,0,398.47,198Z" transform="translate(-129.67 -132.64)"/>
      <polygon points="272.24 65.11 272.93 65.5 274.42 62.09 274.36 62.06 272.24 65.11"/>
      <polygon points="272.39 65.65 272.77 64.96 270.52 64.11 270.49 64.16 272.39 65.65"/>
      <g>
        <path class="cls-5" d="M401.94,197.77a.37.37,0,0,0,.14.49.36.36,0,0,0,.48-.14.36.36,0,0,0-.62-.35Z" transform="translate(-129.67 -132.64)"/>
        <path d="M402.25,198.46h0a.54.54,0,0,1-.25-.06.52.52,0,0,1-.2-.71.52.52,0,0,1,.7-.19.51.51,0,0,1-.25,1Zm0-.85a.34.34,0,0,0-.3.17.36.36,0,0,0,.13.47.37.37,0,0,0,.47-.13.35.35,0,0,0-.13-.47A.33.33,0,0,0,402.25,197.61Z" transform="translate(-129.67 -132.64)"/>
      </g>
    </g>
    <g>
      <path class="cls-6" d="M377,197.85l-1.3-1.46a8.49,8.49,0,0,1,5.62.28,5.09,5.09,0,0,0,2.86.37,3,3,0,0,0,1.86-1.11,4.23,4.23,0,0,1,3.31-1.51l1,1.52a3.27,3.27,0,0,0-2.64,1.21,3.9,3.9,0,0,1-2.36,1.38,7.29,7.29,0,0,1-3.94-.46A6.46,6.46,0,0,0,377,197.85Z" transform="translate(-129.67 -132.64)"/>
      <path class="cls-6" d="M379.5,199.25l-1.31-1.47a8.48,8.48,0,0,1,5.62.28,5,5,0,0,0,2.86.37,3,3,0,0,0,1.86-1.11,4.25,4.25,0,0,1,3.31-1.51l1,1.52a3.28,3.28,0,0,0-2.64,1.21,3.85,3.85,0,0,1-2.36,1.38,7.25,7.25,0,0,1-3.95-.46A6.38,6.38,0,0,0,379.5,199.25Z" transform="translate(-129.67 -132.64)"/>
      <path class="cls-6" d="M378.93,200.8l-1.3-1.47a8.48,8.48,0,0,1,5.62.29,5.1,5.1,0,0,0,2.86.36,3,3,0,0,0,1.86-1.11,4.29,4.29,0,0,1,3.31-1.51l1,1.52a3.32,3.32,0,0,0-2.64,1.21,3.85,3.85,0,0,1-2.36,1.38,7.21,7.21,0,0,1-3.94-.46A6.4,6.4,0,0,0,378.93,200.8Z" transform="translate(-129.67 -132.64)"/>
      <path class="cls-6" d="M381.52,202.17l-1.3-1.46a8.49,8.49,0,0,1,5.62.28,5,5,0,0,0,2.86.36,3,3,0,0,0,1.86-1.1,4.23,4.23,0,0,1,3.31-1.51l1,1.51a3.3,3.3,0,0,0-2.64,1.22,3.9,3.9,0,0,1-2.36,1.38,7.4,7.4,0,0,1-3.94-.46A6.4,6.4,0,0,0,381.52,202.17Z" transform="translate(-129.67 -132.64)"/>
      <path class="cls-6" d="M377.35,196.26l-1.3-1.47a8.56,8.56,0,0,1,5.62.28,5,5,0,0,0,2.86.37,3,3,0,0,0,1.86-1.11,4.24,4.24,0,0,1,3.3-1.51l1,1.52a3.28,3.28,0,0,0-2.64,1.21,3.85,3.85,0,0,1-2.36,1.38,7.25,7.25,0,0,1-4-.46A6.38,6.38,0,0,0,377.35,196.26Z" transform="translate(-129.67 -132.64)"/>
      <polygon points="247.77 62.31 249.54 62.15 250.32 62.56 249.16 62.49 247.77 62.31"/>
      <polygon points="252.31 63.21 254.21 63.93 255.44 63.54 253.88 63.34 252.31 63.21"/>
      <polygon points="253.06 65.49 251.72 65.42 251.18 65.8 252.53 65.66 254.27 66.35 255.36 66.34 253.85 65.75 253.06 65.49"/>
      <path d="M390.6,198c-.34,0-1.2.23-1.2.23l-.66,1.09.93-.66,1.45-.2Z" transform="translate(-129.67 -132.64)"/>
      <polygon points="261.63 68.01 261.01 68.79 259.6 69.23 260.39 69.57 261.55 69.09 261.63 68.01"/>
      <polygon points="255.75 68.73 254.39 68.32 253.35 68.58 254.59 68.66 255.75 68.73"/>
      <polygon points="251.24 67.05 250.47 67.19 251.54 67.25 251.24 67.05"/>
      <polygon class="cls-7" points="257.53 62.4 256.57 62.67 255.44 63.54 256.99 63.2 257.53 62.4"/>
      <polygon class="cls-7" points="258.75 67.09 257.49 67.71 257.35 68.08 258.57 67.77 258.75 67.09"/>
      <polygon class="cls-7" points="264.16 66.7 262.74 67.22 262.64 67.91 263.81 67.36 264.16 66.7"/>
      <polygon class="cls-7" points="250.38 66.63 249.43 67.44 249.08 66.93 250.38 66.63"/>
      <polygon class="cls-8" points="256.16 64.88 254.43 64.73 255.36 65.17 256.16 64.88"/>
      <path class="cls-8" d="M387.52,201.81l-1.61-.37s.83.58,1.07.69a12.88,12.88,0,0,0,1.64.21Z" transform="translate(-129.67 -132.64)"/>
      <polygon class="cls-8" points="250.95 65.06 249.52 65.11 250.07 65.89 250.95 65.06"/>
      <path class="cls-8" d="M389.18,193.51l-1.6.65s-.64.93-.38.89a10.21,10.21,0,0,0,1.36-.76Z" transform="translate(-129.67 -132.64)"/>
    </g>
    <path class="cls-9" d="M417.35,199.08c.94.42,1.72-.36,2.5-.5.19.22,0,.66.08.91.57.41,1.68.26,2.11.83-.26.2-.6-.12-1-.25-.76-.21-1.59-.08-1.31-1.2-.68.32-1.83.92-2.62.37a4.94,4.94,0,0,1-.79.42,18.89,18.89,0,0,0-.83,2.11c-.55-.19-.57-1-1.23-1a1.88,1.88,0,0,0-.2.62c.15,0,.32-.46.56-.33,0,.32-.34.58-.64.7-.33-.21-.08-.68,0-1a4,4,0,0,1-2.5.78,2.21,2.21,0,0,1-1.15-.33c-.72-.54-.53-2,0-2.61a3,3,0,0,1,1.82-1,9.76,9.76,0,0,0,.51-1.24c.23,0,.29-.06.36-.3a15.62,15.62,0,0,0,3.5-1.41c-1.22.23-2.56.64-3.81,1a2.86,2.86,0,0,1-1.19.25c0-.25.37-.28.55-.33l2-.58a7.76,7.76,0,0,1,2.78-.54c0,.43-.43.55-.72.7-.86.45-2.05.77-3,1.16a3.36,3.36,0,0,0,.87,1.21,6.63,6.63,0,0,1,1.39.16c.47-.57.86-1.34,1.31-2,.12-.18.28-.47.51-.45-.07.48-.48.83-.75,1.24s-.5.87-.76,1.29c.3.2.78.21.88.62-.36.08-.6-.31-.95-.38a11.27,11.27,0,0,0-1.16,2.24,8.1,8.1,0,0,0,1.71-.66,4.11,4.11,0,0,0,.6-1.58,4,4,0,0,1,1.67-2.73,1.91,1.91,0,0,1,.23-.5c.15,0,.14.1.24.12a6,6,0,0,1,3.65-.87c.25,0,.8.09.8.42,0,.52-.85,1.13-1.23,1.45A46.37,46.37,0,0,1,417.35,199.08Zm4.17-4.86a4.71,4.71,0,0,0-3,1.12,10.07,10.07,0,0,0-.79,1.54c-.3.55-1,1.41-.64,2a43.39,43.39,0,0,0,4.69-3.19,3.57,3.57,0,0,0,1.23-1.41A3.34,3.34,0,0,0,421.52,194.22ZM417,197.71c.24-.62.72-1.22.88-1.79A3.41,3.41,0,0,0,417,197.71Zm-4.64-.25c.35-.08.81,0,1.15-.13a5.81,5.81,0,0,1-.75-1C412.68,196.77,412.51,197.09,412.39,197.46Zm-.08.25a4.62,4.62,0,0,0-.32,1c-.08.34-.11.81-.4,1a5.78,5.78,0,0,1,.4-1.91,2.25,2.25,0,0,0-1.94,2.24c0,.89.69,1.21,1.62,1.2,2,0,3.43-1.79,2.11-3.56A6.75,6.75,0,0,0,412.31,197.71Zm2.27,1.49c.21-.47.44-.92.67-1.37a8.17,8.17,0,0,0-1.15-.16A4.37,4.37,0,0,1,414.58,199.2Zm1.94,0c.15,0,.23-.11.36-.16,0-.13,0-.3-.12-.34C416.69,198.93,416.59,199.07,416.52,199.24Zm-2.19,1.29c.54.09.72.55,1,.87a4.3,4.3,0,0,1,.55-1.45s0-.1-.08-.09C415.43,200.18,414.78,200.25,414.33,200.53Z" transform="translate(-129.67 -132.64)"/>
    <path d="M348.57,197.28c.73-.22,1.21-.42,1.8-.65v2.23a17.59,17.59,0,0,0-1.79-.67,12.94,12.94,0,0,0-1.95-.46A14,14,0,0,0,348.57,197.28Z" transform="translate(-129.67 -132.64)"/>
    <line class="cls-10" x1="220.14" y1="65.08" x2="226.39" y2="65.08"/>
    <rect class="cls-2" x="63.52" y="58.13" width="74.02" height="13.94"/>
    <g>
      <path class="cls-3" d="M238.85,198a4.62,4.62,0,1,0,4.62-4.62A4.62,4.62,0,0,0,238.85,198Z" transform="translate(-129.67 -132.64)"/>
      <path class="cls-4" d="M239.69,198a3.79,3.79,0,1,0,3.78-3.79A3.79,3.79,0,0,0,239.69,198Z" transform="translate(-129.67 -132.64)"/>
      <polygon points="113.46 65.11 114.15 65.5 115.64 62.09 115.58 62.06 113.46 65.11"/>
      <polygon points="113.61 65.65 114 64.96 111.74 64.11 111.71 64.16 113.61 65.65"/>
      <g>
        <path class="cls-5" d="M243.16,197.77a.37.37,0,0,0,.14.49.36.36,0,0,0,.48-.14.35.35,0,0,0-.13-.48A.36.36,0,0,0,243.16,197.77Z" transform="translate(-129.67 -132.64)"/>
        <path d="M243.47,198.46h0a.54.54,0,0,1-.25-.06.52.52,0,0,1-.2-.71.53.53,0,0,1,.71-.19.51.51,0,0,1-.26,1Zm0-.85a.34.34,0,0,0-.3.17.36.36,0,0,0,.13.47.37.37,0,0,0,.47-.13.35.35,0,0,0-.13-.47A.33.33,0,0,0,243.47,197.61Z" transform="translate(-129.67 -132.64)"/>
      </g>
    </g>
    <g>
      <path class="cls-6" d="M196.89,197.85l-1.31-1.46a8.49,8.49,0,0,1,5.62.28,5.1,5.1,0,0,0,2.86.37,3,3,0,0,0,1.86-1.11,4.25,4.25,0,0,1,3.31-1.51l1,1.52a3.29,3.29,0,0,0-2.64,1.21,3.87,3.87,0,0,1-2.36,1.38,7.31,7.31,0,0,1-3.94-.46A6.43,6.43,0,0,0,196.89,197.85Z" transform="translate(-129.67 -132.64)"/>
      <path class="cls-6" d="M199.43,199.25l-1.3-1.47a8.49,8.49,0,0,1,5.62.28,5,5,0,0,0,2.86.37,3,3,0,0,0,1.86-1.11,4.21,4.21,0,0,1,3.3-1.51l1,1.52a3.3,3.3,0,0,0-2.64,1.21,3.85,3.85,0,0,1-2.36,1.38,7.2,7.2,0,0,1-3.94-.46A6.41,6.41,0,0,0,199.43,199.25Z" transform="translate(-129.67 -132.64)"/>
      <path class="cls-6" d="M198.87,200.8l-1.31-1.47a8.47,8.47,0,0,1,5.62.29A5.11,5.11,0,0,0,206,200a3,3,0,0,0,1.86-1.11,4.29,4.29,0,0,1,3.31-1.51l1,1.52a3.33,3.33,0,0,0-2.65,1.21,3.82,3.82,0,0,1-2.35,1.38,7.24,7.24,0,0,1-3.95-.46A6.38,6.38,0,0,0,198.87,200.8Z" transform="translate(-129.67 -132.64)"/>
      <path class="cls-6" d="M201.46,202.17l-1.31-1.46a8.49,8.49,0,0,1,5.62.28,5,5,0,0,0,2.86.36,3,3,0,0,0,1.86-1.1,4.25,4.25,0,0,1,3.31-1.51l1,1.51a3.32,3.32,0,0,0-2.64,1.22,3.87,3.87,0,0,1-2.36,1.38,7.4,7.4,0,0,1-3.94-.46A6.37,6.37,0,0,0,201.46,202.17Z" transform="translate(-129.67 -132.64)"/>
      <path class="cls-6" d="M197.28,196.26l-1.3-1.47a8.55,8.55,0,0,1,5.62.28,5,5,0,0,0,2.86.37,3,3,0,0,0,1.86-1.11,4.24,4.24,0,0,1,3.3-1.51l1,1.52a3.3,3.3,0,0,0-2.64,1.21,3.85,3.85,0,0,1-2.36,1.38,7.2,7.2,0,0,1-3.94-.46A6.41,6.41,0,0,0,197.28,196.26Z" transform="translate(-129.67 -132.64)"/>
      <polygon points="67.7 62.31 69.48 62.15 70.25 62.56 69.09 62.49 67.7 62.31"/>
      <polygon points="72.25 63.21 74.14 63.93 75.37 63.54 73.81 63.34 72.25 63.21"/>
      <polygon points="72.99 65.49 71.65 65.42 71.11 65.8 72.46 65.66 74.2 66.35 75.29 66.34 73.79 65.75 72.99 65.49"/>
      <path d="M210.53,198c-.33,0-1.2.23-1.2.23l-.66,1.09.93-.66,1.45-.2Z" transform="translate(-129.67 -132.64)"/>
      <polygon points="81.56 68.01 80.94 68.79 79.54 69.23 80.32 69.57 81.48 69.09 81.56 68.01"/>
      <polygon points="75.69 68.73 74.33 68.32 73.28 68.58 74.53 68.66 75.69 68.73"/>
      <polygon points="71.17 67.05 70.4 67.19 71.48 67.25 71.17 67.05"/>
      <polygon class="cls-7" points="77.46 62.4 76.5 62.67 75.37 63.54 76.92 63.2 77.46 62.4"/>
      <polygon class="cls-7" points="78.69 67.09 77.42 67.71 77.28 68.08 78.5 67.77 78.69 67.09"/>
      <polygon class="cls-7" points="84.09 66.7 82.68 67.22 82.57 67.91 83.74 67.36 84.09 66.7"/>
      <polygon class="cls-7" points="70.32 66.63 69.36 67.44 69.02 66.93 70.32 66.63"/>
      <polygon class="cls-8" points="76.09 64.88 74.36 64.73 75.29 65.17 76.09 64.88"/>
      <path class="cls-8" d="M207.46,201.81l-1.62-.37s.84.58,1.07.69a13.1,13.1,0,0,0,1.64.21Z" transform="translate(-129.67 -132.64)"/>
      <polygon class="cls-8" points="70.88 65.06 69.45 65.11 70.01 65.89 70.88 65.06"/>
      <path class="cls-8" d="M209.11,193.51l-1.6.65s-.64.93-.38.89a9.8,9.8,0,0,0,1.37-.76Z" transform="translate(-129.67 -132.64)"/>
    </g>
    <g>
      <path class="cls-6" d="M218.18,197.85l-1.31-1.46a8.49,8.49,0,0,1,5.62.28,5.1,5.1,0,0,0,2.86.37,3,3,0,0,0,1.86-1.11,4.25,4.25,0,0,1,3.31-1.51l1,1.52a3.29,3.29,0,0,0-2.64,1.21,3.9,3.9,0,0,1-2.36,1.38,7.31,7.31,0,0,1-3.94-.46A6.43,6.43,0,0,0,218.18,197.85Z" transform="translate(-129.67 -132.64)"/>
      <path class="cls-6" d="M220.72,199.25l-1.3-1.47a8.49,8.49,0,0,1,5.62.28,5,5,0,0,0,2.86.37,2.94,2.94,0,0,0,1.85-1.11,4.25,4.25,0,0,1,3.31-1.51l1,1.52a3.28,3.28,0,0,0-2.64,1.21,3.85,3.85,0,0,1-2.36,1.38,7.25,7.25,0,0,1-3.95-.46A6.38,6.38,0,0,0,220.72,199.25Z" transform="translate(-129.67 -132.64)"/>
      <path class="cls-6" d="M220.16,200.8l-1.31-1.47a8.48,8.48,0,0,1,5.62.29,5.1,5.1,0,0,0,2.86.36,3,3,0,0,0,1.86-1.11,4.29,4.29,0,0,1,3.31-1.51l1,1.52a3.33,3.33,0,0,0-2.65,1.21,3.85,3.85,0,0,1-2.36,1.38,7.21,7.21,0,0,1-3.94-.46A6.38,6.38,0,0,0,220.16,200.8Z" transform="translate(-129.67 -132.64)"/>
      <path class="cls-6" d="M222.75,202.17l-1.31-1.46a8.49,8.49,0,0,1,5.62.28,5,5,0,0,0,2.86.36,3,3,0,0,0,1.86-1.1,4.23,4.23,0,0,1,3.31-1.51l1,1.51a3.32,3.32,0,0,0-2.64,1.22,3.9,3.9,0,0,1-2.36,1.38,7.4,7.4,0,0,1-3.94-.46A6.37,6.37,0,0,0,222.75,202.17Z" transform="translate(-129.67 -132.64)"/>
      <path class="cls-6" d="M218.57,196.26l-1.3-1.47a8.55,8.55,0,0,1,5.62.28,5,5,0,0,0,2.86.37,3,3,0,0,0,1.86-1.11,4.24,4.24,0,0,1,3.3-1.51l1,1.52a3.3,3.3,0,0,0-2.64,1.21,3.85,3.85,0,0,1-2.36,1.38,7.2,7.2,0,0,1-3.94-.46A6.41,6.41,0,0,0,218.57,196.26Z" transform="translate(-129.67 -132.64)"/>
      <polygon points="88.99 62.31 90.77 62.15 91.54 62.56 90.38 62.49 88.99 62.31"/>
      <polygon points="93.53 63.21 95.43 63.93 96.66 63.54 95.1 63.34 93.53 63.21"/>
      <polygon points="94.28 65.49 92.94 65.42 92.4 65.8 93.75 65.66 95.49 66.35 96.58 66.34 95.08 65.75 94.28 65.49"/>
      <path d="M231.82,198c-.34,0-1.2.23-1.2.23l-.66,1.09.93-.66,1.45-.2Z" transform="translate(-129.67 -132.64)"/>
      <polygon points="102.84 68.01 102.23 68.79 100.83 69.23 101.61 69.57 102.77 69.09 102.84 68.01"/>
      <polygon points="96.97 68.73 95.61 68.32 94.57 68.58 95.81 68.66 96.97 68.73"/>
      <polygon points="92.46 67.05 91.69 67.19 92.77 67.25 92.46 67.05"/>
      <polygon class="cls-7" points="98.75 62.4 97.79 62.67 96.66 63.54 98.21 63.2 98.75 62.4"/>
      <polygon class="cls-7" points="99.97 67.09 98.71 67.71 98.57 68.08 99.79 67.77 99.97 67.09"/>
      <polygon class="cls-7" points="105.38 66.7 103.97 67.22 103.86 67.91 105.03 67.36 105.38 66.7"/>
      <polygon class="cls-7" points="91.6 66.63 90.65 67.44 90.31 66.93 91.6 66.63"/>
      <polygon class="cls-8" points="97.38 64.88 95.64 64.73 96.58 65.17 97.38 64.88"/>
      <path class="cls-8" d="M228.75,201.81l-1.62-.37s.84.58,1.07.69a12.88,12.88,0,0,0,1.64.21Z" transform="translate(-129.67 -132.64)"/>
      <polygon class="cls-8" points="92.17 65.06 90.74 65.11 91.3 65.89 92.17 65.06"/>
      <path class="cls-8" d="M230.4,193.51l-1.6.65s-.64.93-.38.89a9.6,9.6,0,0,0,1.36-.76Z" transform="translate(-129.67 -132.64)"/>
    </g>
    <path class="cls-9" d="M258.57,199.08c.94.42,1.72-.36,2.51-.5.19.22,0,.66.07.91.58.41,1.69.26,2.11.83-.25.2-.59-.12-1-.25-.77-.21-1.6-.08-1.31-1.2-.69.32-1.83.92-2.62.37a5.52,5.52,0,0,1-.8.42,21,21,0,0,0-.83,2.11c-.55-.19-.57-1-1.23-1a1.88,1.88,0,0,0-.2.62c.15,0,.32-.46.56-.33,0,.32-.34.58-.64.7-.33-.21-.08-.68,0-1a4,4,0,0,1-2.5.78,2.24,2.24,0,0,1-1.15-.33c-.72-.54-.53-2,0-2.61a3,3,0,0,1,1.82-1,9.8,9.8,0,0,0,.52-1.24c.22,0,.28-.06.35-.3a15.62,15.62,0,0,0,3.5-1.41c-1.22.23-2.56.64-3.81,1a2.86,2.86,0,0,1-1.19.25c0-.25.37-.28.56-.33.62-.19,1.33-.38,2-.58a7.76,7.76,0,0,1,2.78-.54c0,.43-.43.55-.72.7-.86.45-2.05.77-3,1.16a3.36,3.36,0,0,0,.87,1.21,6.63,6.63,0,0,1,1.39.16c.47-.57.86-1.34,1.31-2,.12-.18.28-.47.51-.45a3.28,3.28,0,0,1-.75,1.24c-.27.41-.5.87-.75,1.29.29.2.77.21.87.62-.36.08-.6-.31-.95-.38a11.82,11.82,0,0,0-1.16,2.24,8.1,8.1,0,0,0,1.71-.66,4.11,4.11,0,0,0,.6-1.58,4,4,0,0,1,1.67-2.73,2.3,2.3,0,0,1,.23-.5c.16,0,.15.1.24.12a6,6,0,0,1,3.65-.87c.25,0,.8.09.8.42,0,.52-.85,1.13-1.23,1.45A46.37,46.37,0,0,1,258.57,199.08Zm4.17-4.86a4.74,4.74,0,0,0-3,1.12,10.07,10.07,0,0,0-.79,1.54c-.3.55-1,1.41-.63,2a43.25,43.25,0,0,0,4.68-3.19,3.57,3.57,0,0,0,1.23-1.41A3.34,3.34,0,0,0,262.74,194.22Zm-4.48,3.49c.24-.62.71-1.22.87-1.79A3.39,3.39,0,0,0,258.26,197.71Zm-4.65-.25c.35-.08.82,0,1.15-.13a6.4,6.4,0,0,1-.75-1C253.91,196.77,253.73,197.09,253.61,197.46Zm-.08.25a4.63,4.63,0,0,0-.31,1c-.09.34-.12.81-.4,1a5.32,5.32,0,0,1,.4-1.91,2.25,2.25,0,0,0-1.95,2.24c0,.89.69,1.21,1.63,1.2,2,0,3.43-1.79,2.1-3.56A6.75,6.75,0,0,0,253.53,197.71Zm2.27,1.49c.21-.47.44-.92.67-1.37a8.17,8.17,0,0,0-1.15-.16A4.37,4.37,0,0,1,255.8,199.2Zm1.94,0c.15,0,.23-.11.36-.16,0-.13,0-.3-.12-.34C257.91,198.93,257.81,199.07,257.74,199.24Zm-2.18,1.29c.53.09.71.55,1,.87a4.3,4.3,0,0,1,.55-1.45s0-.1-.07-.09C256.65,200.18,256,200.25,255.56,200.53Z" transform="translate(-129.67 -132.64)"/>
    <rect class="cls-2" x="142.79" y="58.13" width="74.02" height="13.94"/>
    <g>
      <path class="cls-3" d="M318.12,198a4.62,4.62,0,1,0,4.62-4.62A4.62,4.62,0,0,0,318.12,198Z" transform="translate(-129.67 -132.64)"/>
      <path class="cls-4" d="M319,198a3.79,3.79,0,1,0,3.79-3.79A3.79,3.79,0,0,0,319,198Z" transform="translate(-129.67 -132.64)"/>
      <polygon points="192.73 65.11 193.41 65.5 194.91 62.09 194.85 62.06 192.73 65.11"/>
      <polygon points="192.88 65.65 193.27 64.96 191.01 64.11 190.98 64.16 192.88 65.65"/>
      <g>
        <path class="cls-5" d="M322.43,197.77a.36.36,0,1,0,.62.35.36.36,0,0,0-.14-.48A.35.35,0,0,0,322.43,197.77Z" transform="translate(-129.67 -132.64)"/>
        <path d="M322.74,198.46h0a.58.58,0,0,1-.26-.06.53.53,0,0,1-.19-.71.52.52,0,0,1,.7-.19.51.51,0,0,1,.2.7A.52.52,0,0,1,322.74,198.46Zm0-.85a.34.34,0,0,0-.3.17.36.36,0,0,0,.13.47.37.37,0,0,0,.47-.13.35.35,0,0,0-.13-.47A.33.33,0,0,0,322.74,197.61Z" transform="translate(-129.67 -132.64)"/>
      </g>
    </g>
    <g>
      <path class="cls-6" d="M297.44,197.85l-1.3-1.46a8.49,8.49,0,0,1,5.62.28,5.09,5.09,0,0,0,2.86.37,3,3,0,0,0,1.86-1.11,4.22,4.22,0,0,1,3.31-1.51l1,1.52a3.27,3.27,0,0,0-2.64,1.21,3.9,3.9,0,0,1-2.36,1.38,7.29,7.29,0,0,1-3.94-.46A6.46,6.46,0,0,0,297.44,197.85Z" transform="translate(-129.67 -132.64)"/>
      <path class="cls-6" d="M300,199.25l-1.31-1.47a8.48,8.48,0,0,1,5.62.28,5,5,0,0,0,2.86.37,3,3,0,0,0,1.86-1.11,4.25,4.25,0,0,1,3.31-1.51l1,1.52a3.33,3.33,0,0,0-2.65,1.21,3.79,3.79,0,0,1-2.36,1.38,7.21,7.21,0,0,1-3.94-.46A6.38,6.38,0,0,0,300,199.25Z" transform="translate(-129.67 -132.64)"/>
      <path class="cls-6" d="M299.42,200.8l-1.3-1.47a8.48,8.48,0,0,1,5.62.29,5.09,5.09,0,0,0,2.86.36,3,3,0,0,0,1.86-1.11,4.25,4.25,0,0,1,3.31-1.51l1,1.52a3.32,3.32,0,0,0-2.64,1.21,3.85,3.85,0,0,1-2.36,1.38,7.2,7.2,0,0,1-3.94-.46A6.41,6.41,0,0,0,299.42,200.8Z" transform="translate(-129.67 -132.64)"/>
      <path class="cls-6" d="M302,202.17l-1.3-1.46a8.49,8.49,0,0,1,5.62.28,5,5,0,0,0,2.86.36,2.94,2.94,0,0,0,1.85-1.1,4.25,4.25,0,0,1,3.31-1.51l1,1.51a3.3,3.3,0,0,0-2.64,1.22,3.9,3.9,0,0,1-2.36,1.38,7.39,7.39,0,0,1-3.94-.46A6.41,6.41,0,0,0,302,202.17Z" transform="translate(-129.67 -132.64)"/>
      <path class="cls-6" d="M297.84,196.26l-1.3-1.47a8.52,8.52,0,0,1,5.61.28,5,5,0,0,0,2.86.37,3,3,0,0,0,1.86-1.11,4.29,4.29,0,0,1,3.31-1.51l1,1.52a3.28,3.28,0,0,0-2.64,1.21,3.85,3.85,0,0,1-2.37,1.38,7.22,7.22,0,0,1-3.94-.46A6.38,6.38,0,0,0,297.84,196.26Z" transform="translate(-129.67 -132.64)"/>
      <polygon points="168.25 62.31 170.03 62.15 170.81 62.56 169.65 62.49 168.25 62.31"/>
      <polygon points="172.8 63.21 174.7 63.93 175.93 63.54 174.37 63.34 172.8 63.21"/>
      <polygon points="173.55 65.49 172.21 65.42 171.66 65.8 173.02 65.66 174.75 66.35 175.84 66.34 174.34 65.75 173.55 65.49"/>
      <path d="M311.09,198c-.34,0-1.21.23-1.21.23l-.66,1.09.94-.66,1.45-.2Z" transform="translate(-129.67 -132.64)"/>
      <polygon points="182.11 68.01 181.5 68.79 180.09 69.23 180.88 69.57 182.03 69.09 182.11 68.01"/>
      <polygon points="176.24 68.73 174.88 68.32 173.84 68.58 175.08 68.66 176.24 68.73"/>
      <polygon points="171.73 67.05 170.96 67.19 172.03 67.25 171.73 67.05"/>
      <polygon class="cls-7" points="178.02 62.4 177.06 62.67 175.93 63.54 177.48 63.2 178.02 62.4"/>
      <polygon class="cls-7" points="179.24 67.09 177.98 67.71 177.84 68.08 179.06 67.77 179.24 67.09"/>
      <polygon class="cls-7" points="184.65 66.7 183.23 67.22 183.13 67.91 184.3 67.36 184.65 66.7"/>
      <polygon class="cls-7" points="170.87 66.63 169.91 67.44 169.57 66.93 170.87 66.63"/>
      <polygon class="cls-8" points="176.65 64.88 174.91 64.73 175.85 65.17 176.65 64.88"/>
      <path class="cls-8" d="M308,201.81l-1.61-.37s.83.58,1.07.69a12.88,12.88,0,0,0,1.64.21Z" transform="translate(-129.67 -132.64)"/>
      <polygon class="cls-8" points="171.44 65.06 170.01 65.11 170.56 65.89 171.44 65.06"/>
      <path class="cls-8" d="M309.67,193.51l-1.6.65s-.64.93-.39.89a9.8,9.8,0,0,0,1.37-.76Z" transform="translate(-129.67 -132.64)"/>
    </g>
    <path class="cls-9" d="M337.84,199.08c.94.42,1.71-.36,2.5-.5.19.22,0,.66.08.91.57.41,1.68.26,2.11.83-.26.2-.6-.12-1-.25-.76-.21-1.59-.08-1.31-1.2-.68.32-1.83.92-2.62.37a4.94,4.94,0,0,1-.79.42,21.07,21.07,0,0,0-.84,2.11c-.54-.19-.56-1-1.23-1a2.51,2.51,0,0,0-.2.62c.16,0,.33-.46.56-.33,0,.32-.34.58-.64.7-.32-.21-.07-.68,0-1a4,4,0,0,1-2.5.78,2.27,2.27,0,0,1-1.15-.33c-.72-.54-.52-2,0-2.61a3,3,0,0,1,1.82-1,11.52,11.52,0,0,0,.52-1.24c.22,0,.28-.06.35-.3a15.62,15.62,0,0,0,3.5-1.41c-1.22.23-2.56.64-3.82,1a2.8,2.8,0,0,1-1.19.25c.05-.25.38-.28.56-.33l2-.58a7.81,7.81,0,0,1,2.79-.54c0,.43-.44.55-.72.7-.87.45-2.05.77-3,1.16a3.48,3.48,0,0,0,.87,1.21,6.48,6.48,0,0,1,1.39.16c.48-.57.87-1.34,1.32-2,.12-.18.28-.47.51-.45-.07.48-.48.83-.75,1.24s-.5.87-.76,1.29c.3.2.77.21.88.62-.36.08-.6-.31-1-.38a11.24,11.24,0,0,0-1.15,2.24,8.1,8.1,0,0,0,1.71-.66,4.1,4.1,0,0,0,.59-1.58,4,4,0,0,1,1.67-2.73,2.32,2.32,0,0,1,.24-.5c.15,0,.14.1.24.12a6,6,0,0,1,3.65-.87c.25,0,.8.09.8.42,0,.52-.85,1.13-1.23,1.45A46.37,46.37,0,0,1,337.84,199.08Zm4.17-4.86a4.71,4.71,0,0,0-3,1.12,10.07,10.07,0,0,0-.79,1.54c-.3.55-1,1.41-.64,2a43.39,43.39,0,0,0,4.69-3.19,3.57,3.57,0,0,0,1.23-1.41A3.34,3.34,0,0,0,342,194.22Zm-4.49,3.49c.24-.62.72-1.22.88-1.79A3.41,3.41,0,0,0,337.52,197.71Zm-4.64-.25c.35-.08.81,0,1.15-.13a6.46,6.46,0,0,1-.76-1C333.17,196.77,333,197.09,332.88,197.46Zm-.08.25a4.62,4.62,0,0,0-.32,1c-.09.34-.11.81-.4,1a5.54,5.54,0,0,1,.4-1.91,2.26,2.26,0,0,0-2,2.24c0,.89.7,1.21,1.63,1.2,2,0,3.43-1.79,2.11-3.56A6.75,6.75,0,0,0,332.8,197.71Zm2.26,1.49c.21-.47.45-.92.68-1.37a8.11,8.11,0,0,0-1.16-.16A4,4,0,0,1,335.06,199.2Zm1.95,0a1.39,1.39,0,0,0,.35-.16c0-.13,0-.3-.11-.34C337.18,198.93,337.08,199.07,337,199.24Zm-2.18,1.29c.52.09.71.55,1,.87a4.1,4.1,0,0,1,.56-1.45s0-.1-.08-.09C335.92,200.18,335.27,200.25,334.83,200.53Z" transform="translate(-129.67 -132.64)"/>
    <path d="M269.3,197.26a17.24,17.24,0,0,0,1.79-.65v2.23a17.71,17.71,0,0,0-1.78-.67,12.94,12.94,0,0,0-1.95-.46A11.61,11.61,0,0,0,269.3,197.26Z" transform="translate(-129.67 -132.64)"/>
    <line class="cls-10" x1="140.98" y1="65.08" x2="146.88" y2="65.08"/>
    <g>
      <path class="cls-11" d="M179.88,190.5a.66.66,0,0,1-.65.65H136.77a.66.66,0,0,1-.65-.65V155.79a.65.65,0,0,1,.65-.64h42.46a.65.65,0,0,1,.65.64Z" transform="translate(-129.67 -132.64)"/>
      <path class="cls-12" d="M179.88,190.5a.66.66,0,0,1-.65.65H136.77a.66.66,0,0,1-.65-.65V155.79a.65.65,0,0,1,.65-.64h42.46a.65.65,0,0,1,.65.64Z" transform="translate(-129.67 -132.64)"/>
      <rect class="cls-13" x="8.2" y="24.04" width="40.26" height="30.43"/>
      <polyline class="cls-14" points="56.4 57.55 50.44 56.04 6.23 56.04 0.26 57.55"/>
      <path class="cls-15" d="M129.92,190.19v.52c0,.58,6.12,1.1,6.71,1.1h42.73c.59,0,6.72-.52,6.72-1.1v-.52Z" transform="translate(-129.67 -132.64)"/>
      <path class="cls-14" d="M162.63,191a.52.52,0,0,1-.53.52h-8.2a.53.53,0,1,1,0-1.05h8.2A.52.52,0,0,1,162.63,191Z" transform="translate(-129.67 -132.64)"/>
    </g>
    <line class="cls-10" x1="302.88" y1="52.13" x2="50.5" y2="52.13"/>
    <path d="M434.35,184.17a23,23,0,0,1-2.34-.85v2.91a22.43,22.43,0,0,1,2.33-.87,17.55,17.55,0,0,1,2.54-.6A15.83,15.83,0,0,1,434.35,184.17Z" transform="translate(-129.67 -132.64)"/>
    <line class="cls-10" x1="54.8" y1="29.93" x2="307.6" y2="29.93"/>
    <path d="M182.66,162a22.16,22.16,0,0,0,2.34-.85V164a20.29,20.29,0,0,0-2.33-.87,16.23,16.23,0,0,0-2.53-.6A16.92,16.92,0,0,0,182.66,162Z" transform="translate(-129.67 -132.64)"/>
    <g>
      <g>
        <rect x="307.48" y="6.66" width="38.52" height="74.62" rx="5.06"/>
        <rect class="cls-16" x="307.48" y="6.66" width="38.52" height="74.62" rx="5.06"/>
      </g>
      <path class="cls-17" d="M460.26,207.7a3.85,3.85,0,1,1-3.85-3.85A3.85,3.85,0,0,1,460.26,207.7Z" transform="translate(-129.67 -132.64)"/>
      <rect class="cls-17" x="325.61" y="73.93" width="2.26" height="2.25" rx="0.61"/>
      <rect class="cls-4" x="310.39" y="15.71" width="32.69" height="53.13"/>
      <rect class="cls-18" x="310.39" y="10.2" width="32.69" height="58.64"/>
    </g>
    <text class="cls-19" transform="translate(133.68 20.98)">1</text>
    <rect class="cls-1" x="142.31" y="12.2" width="11.27" height="11.27"/>
    <text class="cls-19" transform="translate(144.95 20.98)">0</text>
    <rect class="cls-1" x="153.59" y="12.2" width="11.27" height="11.27"/>
    <text class="cls-19" transform="translate(156.22 20.98)">1</text>
    <rect class="cls-1" x="164.86" y="12.2" width="11.27" height="11.27"/>
    <text class="cls-19" transform="translate(167.49 20.98)">1</text>
    <rect class="cls-1" x="176.13" y="12.2" width="11.27" height="11.27"/>
    <text class="cls-19" transform="translate(178.76 20.98)">0</text>
    <rect class="cls-1" x="187.4" y="12.2" width="11.27" height="11.27"/>
    <text class="cls-19" transform="translate(190.03 20.98)">1</text>
    <rect class="cls-1" x="198.67" y="12.2" width="11.27" height="11.27"/>
    <text class="cls-19" transform="translate(201.31 20.98)">1</text>
    <rect class="cls-1" x="209.94" y="12.2" width="11.27" height="11.27"/>
    <text class="cls-19" transform="translate(212.58 20.98)">0</text>
    <text class="cls-20" transform="translate(153.12 7.02)"><tspan class="cls-21" x="7.13" y="0" xml:space="preserve"> Bloom filter:</tspan></text>
    <text class="cls-20" transform="translate(132.89 47.17)"><tspan class="cls-21" x="7.13" y="0" xml:space="preserve"> Headers and transactions</tspan></text>
    <g>
      <path class="cls-6" d="M355.67,197.85l-1.31-1.46a8.49,8.49,0,0,1,5.62.28,5.09,5.09,0,0,0,2.86.37,3,3,0,0,0,1.86-1.11,4.22,4.22,0,0,1,3.31-1.51l1,1.52a3.29,3.29,0,0,0-2.64,1.21,3.87,3.87,0,0,1-2.36,1.38,7.31,7.31,0,0,1-3.94-.46A6.43,6.43,0,0,0,355.67,197.85Z" transform="translate(-129.67 -132.64)"/>
      <path class="cls-6" d="M358.21,199.25l-1.3-1.47a8.46,8.46,0,0,1,5.61.28,5.05,5.05,0,0,0,2.87.37,2.94,2.94,0,0,0,1.85-1.11,4.25,4.25,0,0,1,3.31-1.51l1,1.52a3.28,3.28,0,0,0-2.64,1.21,3.85,3.85,0,0,1-2.37,1.38,7.18,7.18,0,0,1-3.93-.46A6.41,6.41,0,0,0,358.21,199.25Z" transform="translate(-129.67 -132.64)"/>
      <path class="cls-6" d="M357.65,200.8l-1.31-1.47a8.52,8.52,0,0,1,5.63.29,5.05,5.05,0,0,0,2.85.36,3,3,0,0,0,1.86-1.11,4.27,4.27,0,0,1,3.31-1.51l1,1.52a3.32,3.32,0,0,0-2.64,1.21,3.82,3.82,0,0,1-2.36,1.38,7.21,7.21,0,0,1-3.94-.46A6.38,6.38,0,0,0,357.65,200.8Z" transform="translate(-129.67 -132.64)"/>
      <path class="cls-6" d="M360.23,202.17l-1.3-1.46a8.49,8.49,0,0,1,5.62.28,5,5,0,0,0,2.86.36,3,3,0,0,0,1.86-1.1,4.23,4.23,0,0,1,3.31-1.51l1,1.51a3.32,3.32,0,0,0-2.64,1.22,3.9,3.9,0,0,1-2.36,1.38,7.4,7.4,0,0,1-3.94-.46A6.4,6.4,0,0,0,360.23,202.17Z" transform="translate(-129.67 -132.64)"/>
      <path class="cls-6" d="M356.06,196.26l-1.3-1.47a8.56,8.56,0,0,1,5.62.28,5,5,0,0,0,2.86.37,2.94,2.94,0,0,0,1.85-1.11,4.29,4.29,0,0,1,3.32-1.51l1,1.52a3.28,3.28,0,0,0-2.64,1.21,3.85,3.85,0,0,1-2.36,1.38,7.2,7.2,0,0,1-3.94-.46A6.41,6.41,0,0,0,356.06,196.26Z" transform="translate(-129.67 -132.64)"/>
      <polygon points="226.48 62.31 228.26 62.15 229.03 62.56 227.87 62.49 226.48 62.31"/>
      <polygon points="231.02 63.21 232.92 63.93 234.15 63.54 232.59 63.34 231.02 63.21"/>
      <polygon points="231.77 65.49 230.43 65.42 229.89 65.8 231.24 65.66 232.98 66.35 234.07 66.34 232.56 65.75 231.77 65.49"/>
      <path d="M369.31,198c-.34,0-1.2.23-1.2.23l-.66,1.09.93-.66,1.45-.2Z" transform="translate(-129.67 -132.64)"/>
      <polygon points="240.33 68.01 239.72 68.79 238.31 69.23 239.1 69.57 240.26 69.09 240.33 68.01"/>
      <polygon points="234.46 68.73 233.1 68.32 232.06 68.58 233.3 68.66 234.46 68.73"/>
      <polygon points="229.95 67.05 229.18 67.19 230.25 67.25 229.95 67.05"/>
      <polygon class="cls-7" points="236.24 62.4 235.28 62.67 234.15 63.54 235.7 63.2 236.24 62.4"/>
      <polygon class="cls-7" points="237.47 67.09 236.2 67.71 236.06 68.08 237.28 67.77 237.47 67.09"/>
      <polygon class="cls-7" points="242.87 66.7 241.46 67.22 241.35 67.91 242.52 67.36 242.87 66.7"/>
      <polygon class="cls-7" points="229.09 66.63 228.14 67.44 227.79 66.93 229.09 66.63"/>
      <polygon class="cls-8" points="234.87 64.88 233.13 64.73 234.07 65.17 234.87 64.88"/>
      <path class="cls-8" d="M366.24,201.81l-1.62-.37s.84.58,1.07.69a12.88,12.88,0,0,0,1.64.21Z" transform="translate(-129.67 -132.64)"/>
      <polygon class="cls-8" points="229.66 65.06 228.23 65.11 228.78 65.89 229.66 65.06"/>
      <path class="cls-8" d="M367.89,193.51l-1.6.65s-.64.93-.38.89a10.21,10.21,0,0,0,1.36-.76Z" transform="translate(-129.67 -132.64)"/>
    </g>
    <g>
      <path class="cls-6" d="M276.15,197.85l-1.3-1.46a8.49,8.49,0,0,1,5.62.28,5.09,5.09,0,0,0,2.86.37,3,3,0,0,0,1.86-1.11,4.22,4.22,0,0,1,3.31-1.51l1,1.52a3.27,3.27,0,0,0-2.64,1.21,3.9,3.9,0,0,1-2.36,1.38,7.29,7.29,0,0,1-3.94-.46A6.46,6.46,0,0,0,276.15,197.85Z" transform="translate(-129.67 -132.64)"/>
      <path class="cls-6" d="M278.7,199.25l-1.31-1.47a8.48,8.48,0,0,1,5.62.28,5,5,0,0,0,2.86.37,3,3,0,0,0,1.86-1.11,4.25,4.25,0,0,1,3.31-1.51l1,1.52a3.28,3.28,0,0,0-2.64,1.21,3.85,3.85,0,0,1-2.37,1.38,7.21,7.21,0,0,1-3.94-.46A6.38,6.38,0,0,0,278.7,199.25Z" transform="translate(-129.67 -132.64)"/>
      <path class="cls-6" d="M278.13,200.8l-1.3-1.47a8.48,8.48,0,0,1,5.62.29,5.09,5.09,0,0,0,2.86.36,3,3,0,0,0,1.86-1.11,4.25,4.25,0,0,1,3.31-1.51l1,1.52a3.32,3.32,0,0,0-2.64,1.21,3.85,3.85,0,0,1-2.36,1.38,7.21,7.21,0,0,1-3.94-.46A6.41,6.41,0,0,0,278.13,200.8Z" transform="translate(-129.67 -132.64)"/>
      <path class="cls-6" d="M280.72,202.17l-1.3-1.46A8.49,8.49,0,0,1,285,201a5,5,0,0,0,2.86.36,3,3,0,0,0,1.86-1.1,4.22,4.22,0,0,1,3.31-1.51l1,1.51a3.3,3.3,0,0,0-2.64,1.22,3.9,3.9,0,0,1-2.36,1.38,7.39,7.39,0,0,1-3.94-.46A6.4,6.4,0,0,0,280.72,202.17Z" transform="translate(-129.67 -132.64)"/>
      <path class="cls-6" d="M276.55,196.26l-1.3-1.47a8.56,8.56,0,0,1,5.62.28,5,5,0,0,0,2.86.37,3,3,0,0,0,1.85-1.11,4.29,4.29,0,0,1,3.31-1.51l1,1.52a3.28,3.28,0,0,0-2.64,1.21,3.85,3.85,0,0,1-2.36,1.38,7.25,7.25,0,0,1-3.95-.46A6.38,6.38,0,0,0,276.55,196.26Z" transform="translate(-129.67 -132.64)"/>
      <polygon points="146.97 62.31 148.74 62.15 149.52 62.56 148.36 62.49 146.97 62.31"/>
      <polygon points="151.51 63.21 153.41 63.93 154.64 63.54 153.08 63.34 151.51 63.21"/>
      <polygon points="152.26 65.49 150.92 65.42 150.37 65.8 151.73 65.66 153.47 66.35 154.56 66.34 153.05 65.75 152.26 65.49"/>
      <path d="M289.8,198c-.34,0-1.2.23-1.2.23l-.67,1.09.94-.66,1.45-.2Z" transform="translate(-129.67 -132.64)"/>
      <polygon points="160.82 68.01 160.21 68.79 158.8 69.23 159.59 69.57 160.75 69.09 160.82 68.01"/>
      <polygon points="154.95 68.73 153.59 68.32 152.55 68.58 153.79 68.66 154.95 68.73"/>
      <polygon points="150.44 67.05 149.66 67.19 150.74 67.25 150.44 67.05"/>
      <polygon class="cls-7" points="156.73 62.4 155.77 62.67 154.64 63.54 156.19 63.2 156.73 62.4"/>
      <polygon class="cls-7" points="157.95 67.09 156.69 67.71 156.55 68.08 157.77 67.77 157.95 67.09"/>
      <polygon class="cls-7" points="163.36 66.7 161.94 67.22 161.84 67.91 163.01 67.36 163.36 66.7"/>
      <polygon class="cls-7" points="149.58 66.63 148.62 67.44 148.28 66.93 149.58 66.63"/>
      <polygon class="cls-8" points="155.36 64.88 153.62 64.73 154.56 65.17 155.36 64.88"/>
      <path class="cls-8" d="M286.73,201.81l-1.62-.37s.83.58,1.07.69a12.88,12.88,0,0,0,1.64.21Z" transform="translate(-129.67 -132.64)"/>
      <polygon class="cls-8" points="150.15 65.06 148.72 65.11 149.27 65.89 150.15 65.06"/>
      <path class="cls-8" d="M288.38,193.51l-1.6.65s-.64.93-.39.89a9.8,9.8,0,0,0,1.37-.76Z" transform="translate(-129.67 -132.64)"/>
    </g>
    <polyline class="cls-10" points="178.79 70.34 178.79 79.01 168.13 79.01 168.13 86.13"/>
    <polyline class="cls-10" points="178.79 79.01 189.29 79.01 189.29 86.13"/>
    <g>
      <rect class="cls-22" x="161.35" y="86.13" width="13.55" height="9.5" rx="1"/>
      <rect class="cls-23" x="161.35" y="86.13" width="13.55" height="9.5" rx="1"/>
    </g>
    <g>
      <rect class="cls-22" x="182.52" y="86.13" width="13.55" height="9.5" rx="1"/>
      <rect class="cls-23" x="182.52" y="86.13" width="13.55" height="9.5" rx="1"/>
    </g>
  </g>
</svg>
