<?xml version="1.0" encoding="UTF-8" standalone="no"?>
<svg
   xmlns:dc="http://purl.org/dc/elements/1.1/"
   xmlns:cc="http://creativecommons.org/ns#"
   xmlns:rdf="http://www.w3.org/1999/02/22-rdf-syntax-ns#"
   xmlns:svg="http://www.w3.org/2000/svg"
   xmlns="http://www.w3.org/2000/svg"
   version="1.1"
   id="svg2"
   xml:space="preserve"
   width="478.54889"
   height="216.23897"
   viewBox="0 0 478.54889 216.23897"><metadata
     id="metadata8"><rdf:RDF><cc:Work
         rdf:about=""><dc:format>image/svg+xml</dc:format><dc:type
           rdf:resource="http://purl.org/dc/dcmitype/StillImage" /></cc:Work></rdf:RDF></metadata><defs
     id="defs6"><clipPath
       clipPathUnits="userSpaceOnUse"
       id="clipPath18"><path
         d="M 0,792 H 612 V 0 H 0 Z"
         id="path16" /></clipPath><linearGradient
       x1="0"
       y1="0"
       x2="1"
       y2="0"
       gradientUnits="userSpaceOnUse"
       gradientTransform="matrix(22.071777,-57.073303,-57.073303,-22.071777,379.45703,618.58203)"
       spreadMethod="pad"
       id="linearGradient76"><stop
         style="stop-opacity:1;stop-color:#cbdbeb"
         offset="0"
         id="stop72" /><stop
         style="stop-opacity:1;stop-color:#9cadc5"
         offset="1"
         id="stop74" /></linearGradient><clipPath
       clipPathUnits="userSpaceOnUse"
       id="clipPath86"><path
         d="M 0,792 H 612 V 0 H 0 Z"
         id="path84" /></clipPath><linearGradient
       x1="0"
       y1="0"
       x2="1"
       y2="0"
       gradientUnits="userSpaceOnUse"
       gradientTransform="matrix(47.754517,-32.023682,-32.023682,-47.754517,154.43408,611.80566)"
       spreadMethod="pad"
       id="linearGradient232"><stop
         style="stop-opacity:1;stop-color:#322f30"
         offset="0"
         id="stop222" /><stop
         style="stop-opacity:1;stop-color:#322f30"
         offset="0.22797495"
         id="stop224" /><stop
         style="stop-opacity:1;stop-color:#7d7b7b"
         offset="0.466263"
         id="stop226" /><stop
         style="stop-opacity:1;stop-color:#322f30"
         offset="0.65637549"
         id="stop228" /><stop
         style="stop-opacity:1;stop-color:#322f30"
         offset="1"
         id="stop230" /></linearGradient><linearGradient
       x1="0"
       y1="0"
       x2="1"
       y2="0"
       gradientUnits="userSpaceOnUse"
       gradientTransform="matrix(0,10.031403,10.031403,0,179.81348,549.56445)"
       spreadMethod="pad"
       id="linearGradient256"><stop
         style="stop-opacity:1;stop-color:#918f90"
         offset="0"
         id="stop248" /><stop
         style="stop-opacity:1;stop-color:#302c2d"
         offset="0.25468407"
         id="stop250" /><stop
         style="stop-opacity:1;stop-color:#302c2d"
         offset="0.478531"
         id="stop252" /><stop
         style="stop-opacity:1;stop-color:#231f20"
         offset="1"
         id="stop254" /></linearGradient><clipPath
       clipPathUnits="userSpaceOnUse"
       id="clipPath266"><path
         d="M 0,792 H 612 V 0 H 0 Z"
         id="path264" /></clipPath></defs><g
     id="g10"
     transform="matrix(1.3333333,0,0,-1.3333333,-162.46946,908.91282)"><g
       id="g12"><g
         id="g14"
         clip-path="url(#clipPath18)"><g
           id="g20"
           transform="translate(334.333,616)"><path
             d="M 0,0 C 21,11.667 56.834,16 79.834,14.667"
             style="fill:none;stroke:#231f20;stroke-width:0.3;stroke-linecap:butt;stroke-linejoin:miter;stroke-miterlimit:10;stroke-dasharray:none;stroke-opacity:1"
             id="path22" /></g><g
           id="g24"
           transform="translate(335.7139,614.6406)"><path
             d="m 0,0 -3.738,0.062 1.923,3.207 z"
             style="fill:#231f20;fill-opacity:1;fill-rule:nonzero;stroke:none"
             id="path26" /></g><g
           id="g28"
           transform="translate(243.6665,659.6665)"><path
             d="M 0,0 C -5.333,6.833 -12.667,8.833 -19.75,8.833"
             style="fill:none;stroke:#231f20;stroke-width:0.3;stroke-linecap:butt;stroke-linejoin:miter;stroke-miterlimit:10;stroke-dasharray:none;stroke-opacity:1"
             id="path30" /></g><g
           id="g32"
           transform="translate(244.7954,661.2417)"><path
             d="m 0,0 0.519,-3.703 -3.467,1.402 z"
             style="fill:#231f20;fill-opacity:1;fill-rule:nonzero;stroke:none"
             id="path34" /></g><g
           id="g36"
           transform="translate(262.3335,555)"><path
             d="M 0,0 C -3.333,-12.333 -15,-21.333 -27.333,-22"
             style="fill:none;stroke:#231f20;stroke-width:0.3;stroke-linecap:butt;stroke-linejoin:miter;stroke-miterlimit:10;stroke-dasharray:none;stroke-opacity:1"
             id="path38" /></g><g
           id="g40"
           transform="translate(260.396,554.957)"><path
             d="M 0,0 2.649,2.638 3.61,-0.976 Z"
             style="fill:#231f20;fill-opacity:1;fill-rule:nonzero;stroke:none"
             id="path42" /></g><g
           id="g44"
           transform="translate(353.0117,631.5503)"><path
             d="M 0,0 H -149.306"
             style="fill:none;stroke:#231f20;stroke-width:0.5;stroke-linecap:butt;stroke-linejoin:miter;stroke-miterlimit:4;stroke-dasharray:none;stroke-opacity:1"
             id="path46" /></g><g
           id="g48"
           transform="translate(354.9316,632.1519)"><path
             d="m 0,0 c -0.951,0.283 -1.57,0.547 -2.334,0.85 l 0.01,-2.903 c 0.271,0.131 1.379,0.576 2.326,0.867 1.018,0.313 1.939,0.524 2.537,0.602 C 1.939,-0.512 1.016,-0.303 0,0"
             style="fill:#ffffff;fill-opacity:1;fill-rule:nonzero;stroke:none"
             id="path50" /></g><g
           id="g52"
           transform="translate(354.9316,632.1519)"><path
             d="m 0,0 c -0.951,0.283 -1.57,0.547 -2.334,0.85 l 0.01,-2.903 c 0.271,0.131 1.379,0.576 2.326,0.867 1.018,0.313 1.939,0.524 2.537,0.602 C 1.939,-0.512 1.016,-0.303 0,0 Z"
             style="fill:none;stroke:#231f20;stroke-width:0.5;stroke-linecap:butt;stroke-linejoin:round;stroke-miterlimit:4;stroke-dasharray:none;stroke-opacity:1"
             id="path54" /></g><g
           id="g56"
           transform="translate(409.0762,616.875)"><path
             d="m 0,0 h -42.982 c -0.362,0 -0.657,-0.295 -0.657,-0.657 v -0.778 -34.978 -0.775 c 0,-0.359 0.295,-0.669 0.657,-0.669 H 0 c 0.363,0 0.658,0.31 0.658,0.669 v 0.775 34.978 0.778 C 0.658,-0.295 0.363,0 0,0"
             style="fill:#ffffff;fill-opacity:1;fill-rule:nonzero;stroke:none"
             id="path58" /></g></g></g><g
       id="g60"><g
         id="g62"><g
           id="g68"><g
             id="g70"><path
               d="m 366.094,616.099 c -0.362,0 -0.656,-0.296 -0.656,-0.658 v 0 -35.755 c 0,-0.358 0.294,-0.668 0.656,-0.668 v 0 h 42.982 c 0.364,0 0.658,0.31 0.658,0.668 v 0 35.755 c 0,0.362 -0.294,0.658 -0.658,0.658 v 0 z"
               style="fill:url(#linearGradient76);stroke:none"
               id="path78" /></g></g></g></g><g
       id="g80"><g
         id="g82"
         clip-path="url(#clipPath86)"><g
           id="g88"
           transform="translate(409.7344,579.6865)"><path
             d="m 0,0 c 0,-0.358 -0.295,-0.669 -0.658,-0.669 h -42.983 c -0.361,0 -0.656,0.311 -0.656,0.669 v 35.754 c 0,0.363 0.295,0.658 0.656,0.658 H -0.658 C -0.295,36.412 0,36.117 0,35.754 Z"
             style="fill:#b3e6fa;fill-opacity:1;fill-rule:nonzero;stroke:none"
             id="path90" /></g><g
           id="g92"
           transform="translate(409.0762,616.875)"><path
             d="m 0,0 h -42.982 c -0.362,0 -0.657,-0.295 -0.657,-0.657 v -0.778 -34.978 -0.775 c 0,-0.359 0.295,-0.669 0.657,-0.669 H 0 c 0.363,0 0.658,0.31 0.658,0.669 v 0.775 34.978 0.778 C 0.658,-0.295 0.363,0 0,0 Z"
             style="fill:none;stroke:#231f20;stroke-width:0.5;stroke-linecap:butt;stroke-linejoin:round;stroke-miterlimit:10;stroke-dasharray:none;stroke-opacity:1"
             id="path94" /></g><path
           d="M 407.172,583.784 H 368 v 30.136 h 39.172 z"
           style="fill:#f0fafe;fill-opacity:1;fill-rule:nonzero;stroke:#231f20;stroke-width:0.3;stroke-linecap:butt;stroke-linejoin:round;stroke-miterlimit:4;stroke-dasharray:none;stroke-opacity:1"
           id="path96" /><g
           id="g98"
           transform="translate(416.541,579.9854)"><path
             d="m 0,0 -6.994,1.549 h -44.11 L -57.91,0"
             style="fill:#ffffff;fill-opacity:1;fill-rule:nonzero;stroke:#231f20;stroke-width:0.5;stroke-linecap:butt;stroke-linejoin:round;stroke-miterlimit:10;stroke-dasharray:none;stroke-opacity:1"
             id="path100" /></g><g
           id="g102"
           transform="translate(358.6172,579.9854)"><path
             d="M 0,0 C 0,0 1.316,-2.886 2.818,-2.886 H 55.113 C 56.498,-2.886 57.938,0 57.938,0 Z"
             style="fill:#b3e6fa;fill-opacity:1;fill-rule:nonzero;stroke:none"
             id="path104" /></g><g
           id="g106"
           transform="translate(358.6172,579.9854)"><path
             d="M 0,0 C 0,0 1.316,-2.886 2.818,-2.886 H 55.113 C 56.498,-2.886 57.938,0 57.938,0 Z"
             style="fill:none;stroke:#231f20;stroke-width:0.5;stroke-linecap:butt;stroke-linejoin:round;stroke-miterlimit:10;stroke-dasharray:none;stroke-opacity:1"
             id="path108" /></g><text
           transform="matrix(1,0,0,-1,380.5576,596.3945)"
           style="font-variant:normal;font-weight:normal;font-stretch:normal;font-size:7px;font-family:Arial;-inkscape-font-specification:ArialMT;writing-mode:lr-tb;fill:#231f20;fill-opacity:1;fill-rule:nonzero;stroke:none"
           id="text112"><tspan
             x="0 4.277 8.1689997"
             y="0"
             id="tspan110">Tom</tspan></text><g
           id="g114"
           transform="translate(240.0469,632)"><path
             d="M 0,0 V 22.411 H 88.982 V 0"
             style="fill:none;stroke:#231f20;stroke-width:0.5;stroke-linecap:butt;stroke-linejoin:miter;stroke-miterlimit:4;stroke-dasharray:2, 1;stroke-dashoffset:0;stroke-opacity:1"
             id="path116" /></g><g
           id="g118"
           transform="translate(247.2993,576.2466)"><path
             d="m 0,0 h 1.785 c 0.076,0 0.127,-0.017 0.161,-0.056 0.036,-0.03 0.056,-0.067 0.056,-0.114 0,-0.044 -0.02,-0.086 -0.056,-0.124 C 1.912,-0.326 1.861,-0.34 1.785,-0.34 H 0 V -2.522 C 0,-2.713 0.077,-2.872 0.228,-3 c 0.151,-0.121 0.376,-0.182 0.669,-0.182 0.22,0 0.46,0.028 0.716,0.091 0.259,0.067 0.461,0.143 0.604,0.227 0.054,0.038 0.099,0.056 0.137,0.056 0.039,0 0.071,-0.018 0.103,-0.056 0.029,-0.03 0.044,-0.069 0.044,-0.113 0,-0.038 -0.015,-0.077 -0.044,-0.114 -0.084,-0.084 -0.289,-0.175 -0.615,-0.275 -0.32,-0.096 -0.626,-0.146 -0.92,-0.146 -0.38,0 -0.685,0.087 -0.911,0.26 -0.228,0.183 -0.341,0.426 -0.341,0.73 v 2.182 h -0.613 c -0.077,0 -0.134,0.014 -0.17,0.046 -0.032,0.038 -0.046,0.08 -0.046,0.124 0,0.047 0.014,0.084 0.046,0.114 C -1.077,-0.017 -1.02,0 -0.943,0 h 0.613 v 0.967 c 0,0.077 0.017,0.131 0.046,0.159 0.029,0.038 0.067,0.058 0.113,0.058 0.053,0 0.095,-0.02 0.125,-0.058 C -0.014,1.098 0,1.044 0,0.967 Z m 5.702,-1.613 1.499,-1.444 c 0.099,0 0.161,-0.007 0.184,-0.024 0.029,-0.007 0.053,-0.025 0.069,-0.057 0.022,-0.023 0.034,-0.051 0.034,-0.089 0,-0.047 -0.016,-0.085 -0.047,-0.113 -0.03,-0.033 -0.086,-0.047 -0.17,-0.047 H 6.213 c -0.085,0 -0.143,0.014 -0.18,0.047 -0.032,0.028 -0.048,0.066 -0.048,0.113 0,0.052 0.016,0.094 0.048,0.123 0.037,0.033 0.095,0.047 0.18,0.047 H 6.76 L 5.475,-1.84 4.211,-3.057 h 0.547 c 0.075,0 0.128,-0.014 0.16,-0.047 0.037,-0.029 0.057,-0.071 0.057,-0.123 0,-0.047 -0.02,-0.085 -0.057,-0.113 C 4.886,-3.373 4.833,-3.387 4.758,-3.387 H 3.689 c -0.076,0 -0.132,0.014 -0.169,0.047 -0.033,0.028 -0.047,0.066 -0.047,0.113 0,0.038 0.006,0.066 0.025,0.089 0.022,0.032 0.044,0.05 0.065,0.057 0.023,0.017 0.085,0.024 0.184,0.024 l 1.512,1.444 -1.342,1.273 c -0.092,0 -0.153,0.004 -0.183,0.012 -0.022,0.015 -0.045,0.037 -0.066,0.07 -0.018,0.029 -0.024,0.059 -0.024,0.088 0,0.047 0.014,0.084 0.045,0.114 C 3.727,-0.017 3.789,0 3.87,0 h 0.9 c 0.077,0 0.128,-0.017 0.158,-0.056 0.04,-0.03 0.057,-0.067 0.057,-0.114 0,-0.044 -0.017,-0.086 -0.057,-0.124 C 4.898,-0.326 4.847,-0.34 4.77,-0.34 H 4.372 L 5.475,-1.398 6.589,-0.34 H 6.203 c -0.077,0 -0.133,0.014 -0.17,0.046 -0.04,0.038 -0.056,0.08 -0.056,0.124 0,0.047 0.013,0.084 0.043,0.114 C 6.058,-0.017 6.119,0 6.203,0 H 7.1 C 7.177,0 7.229,-0.017 7.259,-0.056 7.298,-0.086 7.314,-0.123 7.314,-0.17 7.314,-0.199 7.306,-0.229 7.283,-0.258 7.269,-0.291 7.243,-0.313 7.214,-0.328 7.191,-0.336 7.135,-0.34 7.043,-0.34 Z"
             style="fill:#231f20;fill-opacity:1;fill-rule:nonzero;stroke:none"
             id="path120" /></g><path
           d="m 248.14,649.388 h -0.488 v 0.853 h 0.488 z m 0.013,-0.828 v -3.06 h 1.284 c 0.084,0 0.142,-0.014 0.17,-0.046 0.039,-0.031 0.058,-0.073 0.058,-0.125 0,-0.046 -0.019,-0.083 -0.058,-0.113 -0.028,-0.029 -0.086,-0.047 -0.17,-0.047 h -2.911 c -0.077,0 -0.133,0.018 -0.17,0.047 -0.03,0.03 -0.045,0.067 -0.045,0.113 0,0.052 0.015,0.094 0.045,0.125 0.037,0.032 0.093,0.046 0.17,0.046 h 1.295 v 2.716 h -0.965 c -0.074,0 -0.132,0.017 -0.171,0.047 -0.029,0.037 -0.046,0.079 -0.046,0.124 0,0.047 0.017,0.083 0.046,0.115 0.039,0.038 0.097,0.058 0.171,0.058 z m 3.562,0 v -0.502 c 0.229,0.235 0.434,0.395 0.616,0.477 0.188,0.091 0.401,0.138 0.636,0.138 0.251,0 0.479,-0.054 0.681,-0.16 0.145,-0.077 0.274,-0.205 0.389,-0.386 0.121,-0.183 0.179,-0.368 0.179,-0.558 V 645.5 h 0.284 c 0.078,0 0.132,-0.014 0.162,-0.046 0.036,-0.031 0.055,-0.073 0.055,-0.125 0,-0.046 -0.019,-0.083 -0.055,-0.113 -0.03,-0.029 -0.084,-0.047 -0.162,-0.047 h -0.884 c -0.076,0 -0.133,0.018 -0.17,0.047 -0.032,0.03 -0.047,0.067 -0.047,0.113 0,0.052 0.015,0.094 0.047,0.125 0.037,0.032 0.094,0.046 0.17,0.046 h 0.272 v 2.012 c 0,0.234 -0.084,0.432 -0.25,0.591 -0.167,0.16 -0.395,0.239 -0.681,0.239 -0.212,0 -0.399,-0.044 -0.559,-0.135 -0.158,-0.085 -0.386,-0.299 -0.683,-0.648 V 645.5 h 0.377 c 0.075,0 0.127,-0.014 0.158,-0.046 0.04,-0.031 0.056,-0.073 0.056,-0.125 0,-0.046 -0.016,-0.083 -0.056,-0.113 -0.031,-0.029 -0.083,-0.047 -0.158,-0.047 h -1.081 c -0.076,0 -0.134,0.018 -0.17,0.047 -0.03,0.03 -0.044,0.067 -0.044,0.113 0,0.052 0.014,0.094 0.044,0.125 0.036,0.032 0.094,0.046 0.17,0.046 h 0.376 v 2.716 h -0.274 c -0.082,0 -0.144,0.017 -0.181,0.047 -0.031,0.037 -0.047,0.079 -0.047,0.124 0,0.047 0.016,0.083 0.047,0.115 0.037,0.038 0.099,0.058 0.181,0.058 z m 6.159,-3.391 h -0.558 l -1.352,3.047 h -0.331 c -0.084,0 -0.144,0.017 -0.18,0.047 -0.034,0.037 -0.048,0.079 -0.048,0.124 0,0.047 0.014,0.083 0.048,0.115 0.036,0.038 0.096,0.058 0.18,0.058 h 1.228 c 0.077,0 0.128,-0.02 0.159,-0.058 0.038,-0.032 0.056,-0.068 0.056,-0.115 0,-0.045 -0.018,-0.087 -0.056,-0.124 -0.031,-0.03 -0.082,-0.047 -0.159,-0.047 h -0.547 l 1.207,-2.716 h 0.147 l 1.172,2.716 h -0.546 c -0.076,0 -0.133,0.017 -0.17,0.047 -0.031,0.037 -0.047,0.079 -0.047,0.124 0,0.047 0.016,0.083 0.047,0.115 0.037,0.038 0.094,0.058 0.17,0.058 h 1.238 c 0.085,0 0.14,-0.02 0.171,-0.058 0.032,-0.032 0.047,-0.068 0.047,-0.115 0,-0.045 -0.015,-0.087 -0.047,-0.124 -0.031,-0.03 -0.086,-0.047 -0.171,-0.047 h -0.328 z"
           style="fill:#231f20;fill-opacity:1;fill-rule:nonzero;stroke:none"
           id="path122" /><g
           id="g124"
           transform="translate(247.2993,639.0977)"><path
             d="M 0,0 H 1.785 C 1.861,0 1.912,-0.018 1.946,-0.057 1.982,-0.086 2.002,-0.124 2.002,-0.17 2.002,-0.215 1.982,-0.257 1.946,-0.294 1.912,-0.327 1.861,-0.341 1.785,-0.341 H 0 V -2.523 C 0,-2.713 0.077,-2.872 0.228,-3 c 0.151,-0.121 0.376,-0.183 0.669,-0.183 0.22,0 0.46,0.03 0.716,0.091 0.259,0.07 0.461,0.144 0.604,0.228 0.054,0.037 0.099,0.057 0.137,0.057 0.039,0 0.071,-0.02 0.103,-0.057 0.029,-0.03 0.044,-0.07 0.044,-0.114 0,-0.037 -0.015,-0.077 -0.044,-0.114 -0.084,-0.083 -0.289,-0.175 -0.615,-0.274 -0.32,-0.096 -0.626,-0.145 -0.92,-0.145 -0.38,0 -0.685,0.086 -0.911,0.259 -0.228,0.183 -0.341,0.425 -0.341,0.729 v 2.182 h -0.613 c -0.077,0 -0.134,0.014 -0.17,0.047 -0.032,0.037 -0.046,0.079 -0.046,0.124 0,0.046 0.014,0.084 0.046,0.113 C -1.077,-0.018 -1.02,0 -0.943,0 h 0.613 v 0.966 c 0,0.076 0.017,0.131 0.046,0.161 0.029,0.037 0.067,0.057 0.113,0.057 0.053,0 0.095,-0.02 0.125,-0.057 C -0.014,1.097 0,1.042 0,0.966 Z m 5.702,-1.614 1.499,-1.443 c 0.099,0 0.161,-0.007 0.184,-0.025 0.029,-0.007 0.053,-0.024 0.069,-0.057 0.022,-0.022 0.034,-0.052 0.034,-0.088 0,-0.047 -0.016,-0.085 -0.047,-0.114 -0.03,-0.032 -0.086,-0.048 -0.17,-0.048 H 6.213 c -0.085,0 -0.143,0.016 -0.18,0.048 -0.032,0.029 -0.048,0.067 -0.048,0.114 0,0.052 0.016,0.093 0.048,0.123 0.037,0.032 0.095,0.047 0.18,0.047 H 6.76 L 5.475,-1.841 4.211,-3.057 h 0.547 c 0.075,0 0.128,-0.015 0.16,-0.047 0.037,-0.03 0.057,-0.071 0.057,-0.123 0,-0.047 -0.02,-0.085 -0.057,-0.114 C 4.886,-3.373 4.833,-3.389 4.758,-3.389 H 3.689 c -0.076,0 -0.132,0.016 -0.169,0.048 -0.033,0.029 -0.047,0.067 -0.047,0.114 0,0.036 0.006,0.066 0.025,0.088 0.022,0.033 0.044,0.05 0.065,0.057 0.023,0.018 0.085,0.025 0.184,0.025 l 1.512,1.443 -1.342,1.273 c -0.092,0 -0.153,0.005 -0.183,0.012 -0.022,0.015 -0.045,0.037 -0.066,0.069 -0.018,0.03 -0.024,0.06 -0.024,0.09 0,0.046 0.014,0.084 0.045,0.113 C 3.727,-0.018 3.789,0 3.87,0 h 0.9 C 4.847,0 4.898,-0.018 4.928,-0.057 4.968,-0.086 4.985,-0.124 4.985,-0.17 4.985,-0.215 4.968,-0.257 4.928,-0.294 4.898,-0.327 4.847,-0.341 4.77,-0.341 H 4.372 l 1.103,-1.058 1.114,1.058 H 6.203 c -0.077,0 -0.133,0.014 -0.17,0.047 -0.04,0.037 -0.056,0.079 -0.056,0.124 0,0.046 0.013,0.084 0.043,0.113 C 6.058,-0.018 6.119,0 6.203,0 H 7.1 C 7.177,0 7.229,-0.018 7.259,-0.057 7.298,-0.086 7.314,-0.124 7.314,-0.17 7.314,-0.2 7.306,-0.23 7.283,-0.26 7.269,-0.292 7.243,-0.314 7.214,-0.329 7.191,-0.336 7.135,-0.341 7.043,-0.341 Z m 6.372,0.945 H 8.493 c -0.076,0 -0.133,0.014 -0.17,0.044 -0.032,0.032 -0.047,0.071 -0.047,0.125 0,0.045 0.015,0.085 0.047,0.114 0.037,0.03 0.094,0.045 0.17,0.045 h 3.581 c 0.077,0 0.129,-0.015 0.158,-0.045 0.039,-0.029 0.058,-0.072 0.058,-0.126 0,-0.044 -0.019,-0.081 -0.058,-0.113 -0.029,-0.03 -0.081,-0.044 -0.158,-0.044 m 0,-1.184 H 8.493 c -0.076,0 -0.133,0.017 -0.17,0.046 -0.032,0.03 -0.047,0.072 -0.047,0.124 0,0.047 0.015,0.084 0.047,0.114 0.037,0.031 0.094,0.047 0.17,0.047 h 3.581 c 0.077,0 0.129,-0.016 0.158,-0.047 0.039,-0.03 0.058,-0.067 0.058,-0.114 0,-0.052 -0.019,-0.094 -0.058,-0.124 -0.029,-0.029 -0.081,-0.046 -0.158,-0.046 m 8.425,-0.159 h -2.172 v 0.376 l 1.819,3.149 h 0.681 v -3.196 h 0.275 c 0.085,0 0.14,-0.015 0.171,-0.045 0.037,-0.029 0.055,-0.071 0.055,-0.125 0,-0.045 -0.018,-0.083 -0.055,-0.114 -0.031,-0.03 -0.086,-0.045 -0.171,-0.045 h -0.275 v -1.045 h 0.275 c 0.085,0 0.14,-0.015 0.171,-0.047 0.037,-0.03 0.055,-0.071 0.055,-0.123 0,-0.047 -0.018,-0.085 -0.055,-0.114 -0.031,-0.032 -0.086,-0.048 -0.171,-0.048 h -1.215 c -0.085,0 -0.147,0.016 -0.184,0.048 -0.029,0.029 -0.045,0.067 -0.045,0.114 0,0.052 0.016,0.093 0.045,0.123 0.037,0.032 0.099,0.047 0.184,0.047 h 0.612 z m 0,0.329 v 2.867 h -0.171 l -1.661,-2.867 z m 4.871,0.843 c 0.273,-0.137 0.478,-0.314 0.616,-0.534 0.135,-0.213 0.205,-0.445 0.205,-0.695 0,-0.385 -0.15,-0.724 -0.446,-1.013 -0.287,-0.279 -0.639,-0.42 -1.057,-0.42 -0.415,0 -0.771,0.141 -1.067,0.42 -0.29,0.289 -0.433,0.628 -0.433,1.013 0,0.25 0.069,0.482 0.206,0.695 0.142,0.22 0.354,0.397 0.636,0.534 -0.244,0.136 -0.418,0.279 -0.524,0.432 -0.151,0.205 -0.227,0.435 -0.227,0.692 0,0.365 0.136,0.68 0.409,0.944 0.282,0.274 0.614,0.41 1,0.41 0.396,0 0.729,-0.136 1,-0.41 0.283,-0.264 0.423,-0.579 0.423,-0.944 0,-0.257 -0.077,-0.487 -0.227,-0.692 -0.106,-0.153 -0.277,-0.296 -0.514,-0.432 m 0.41,1.114 c 0,0.279 -0.106,0.521 -0.319,0.726 -0.213,0.206 -0.47,0.31 -0.773,0.31 -0.302,0 -0.562,-0.104 -0.771,-0.31 -0.206,-0.205 -0.31,-0.447 -0.31,-0.726 0,-0.249 0.104,-0.474 0.31,-0.672 0.209,-0.187 0.469,-0.284 0.771,-0.284 0.312,0 0.567,0.097 0.773,0.284 0.213,0.198 0.319,0.423 0.319,0.672 m 0.091,-2.355 c 0,0.289 -0.113,0.539 -0.341,0.751 -0.226,0.22 -0.509,0.331 -0.842,0.331 -0.335,0 -0.613,-0.111 -0.841,-0.331 -0.22,-0.212 -0.331,-0.46 -0.331,-0.739 0,-0.304 0.114,-0.566 0.344,-0.783 0.228,-0.212 0.502,-0.319 0.828,-0.319 0.333,0 0.616,0.107 0.842,0.319 0.228,0.217 0.341,0.477 0.341,0.771 m 4.997,1.74 v 0.113 c 0,0.084 0.015,0.142 0.044,0.171 0.033,0.039 0.069,0.057 0.114,0.057 0.054,0 0.097,-0.018 0.127,-0.057 0.029,-0.029 0.043,-0.087 0.043,-0.171 v -0.739 c 0,-0.081 -0.014,-0.143 -0.043,-0.179 -0.03,-0.033 -0.073,-0.048 -0.127,-0.048 -0.045,0 -0.081,0.015 -0.114,0.048 -0.029,0.028 -0.044,0.078 -0.044,0.147 -0.014,0.188 -0.136,0.366 -0.363,0.534 -0.228,0.166 -0.536,0.25 -0.922,0.25 -0.491,0 -0.865,-0.156 -1.114,-0.467 -0.25,-0.301 -0.376,-0.65 -0.376,-1.046 0,-0.425 0.136,-0.773 0.41,-1.045 0.279,-0.274 0.646,-0.41 1.093,-0.41 0.25,0 0.507,0.044 0.77,0.136 0.268,0.091 0.505,0.242 0.716,0.455 0.064,0.054 0.111,0.081 0.149,0.081 0.046,0 0.085,-0.017 0.115,-0.047 0.028,-0.029 0.046,-0.067 0.046,-0.113 0,-0.114 -0.133,-0.257 -0.399,-0.433 -0.424,-0.271 -0.898,-0.407 -1.422,-0.407 -0.52,0 -0.954,0.165 -1.296,0.499 -0.34,0.341 -0.51,0.768 -0.51,1.284 0,0.532 0.172,0.972 0.521,1.32 0.35,0.348 0.786,0.522 1.31,0.522 0.507,0 0.931,-0.151 1.272,-0.455 m 4.039,-1.671 h -2.168 v 0.376 l 1.819,3.149 h 0.682 v -3.196 h 0.271 c 0.085,0 0.142,-0.015 0.172,-0.045 0.038,-0.029 0.056,-0.071 0.056,-0.125 0,-0.045 -0.018,-0.083 -0.056,-0.114 -0.03,-0.03 -0.087,-0.045 -0.172,-0.045 H 35.24 v -1.045 h 0.271 c 0.085,0 0.142,-0.015 0.172,-0.047 0.038,-0.03 0.056,-0.071 0.056,-0.123 0,-0.047 -0.018,-0.085 -0.056,-0.114 -0.03,-0.032 -0.087,-0.048 -0.172,-0.048 h -1.215 c -0.085,0 -0.144,0.016 -0.184,0.048 -0.029,0.029 -0.044,0.067 -0.044,0.114 0,0.052 0.015,0.093 0.044,0.123 0.04,0.032 0.099,0.047 0.184,0.047 h 0.611 z m 0,0.329 v 2.867 h -0.169 l -1.659,-2.867 z m 2.987,-1.421 c 0,-0.113 -0.038,-0.208 -0.115,-0.285 -0.077,-0.073 -0.169,-0.113 -0.284,-0.113 -0.112,0 -0.207,0.04 -0.283,0.113 -0.076,0.077 -0.115,0.172 -0.115,0.285 0,0.113 0.039,0.21 0.115,0.284 0.076,0.076 0.171,0.114 0.283,0.114 0.115,0 0.207,-0.038 0.284,-0.114 0.077,-0.074 0.115,-0.171 0.115,-0.284 m 1.603,0 c 0,-0.113 -0.037,-0.208 -0.114,-0.285 -0.075,-0.073 -0.168,-0.113 -0.284,-0.113 -0.113,0 -0.209,0.04 -0.283,0.113 -0.077,0.077 -0.116,0.172 -0.116,0.285 0,0.113 0.039,0.21 0.116,0.284 0.074,0.076 0.17,0.114 0.283,0.114 0.116,0 0.209,-0.038 0.284,-0.114 0.077,-0.074 0.114,-0.171 0.114,-0.284 m 1.614,0 c 0,-0.113 -0.043,-0.208 -0.125,-0.285 -0.076,-0.073 -0.168,-0.113 -0.283,-0.113 -0.107,0 -0.203,0.04 -0.283,0.113 -0.077,0.077 -0.115,0.172 -0.115,0.285 0,0.113 0.038,0.21 0.115,0.284 0.08,0.076 0.176,0.114 0.283,0.114 0.115,0 0.207,-0.038 0.283,-0.114 0.082,-0.074 0.125,-0.171 0.125,-0.284 m 4.144,2.491 c -0.173,-0.297 -0.379,-0.519 -0.611,-0.672 -0.229,-0.151 -0.47,-0.228 -0.72,-0.228 -0.219,0 -0.436,0.067 -0.646,0.196 -0.213,0.128 -0.383,0.318 -0.512,0.568 -0.123,0.249 -0.182,0.514 -0.182,0.795 0,0.401 0.121,0.767 0.362,1.093 0.25,0.332 0.584,0.499 1.001,0.499 0.298,0 0.567,-0.094 0.809,-0.284 0.249,-0.183 0.442,-0.447 0.577,-0.795 0.177,-0.455 0.264,-0.981 0.264,-1.582 0,-0.462 -0.075,-0.846 -0.228,-1.147 -0.1,-0.213 -0.243,-0.417 -0.431,-0.615 -0.19,-0.191 -0.408,-0.349 -0.649,-0.477 -0.326,-0.161 -0.669,-0.24 -1.022,-0.24 -0.236,0 -0.427,0.043 -0.57,0.127 -0.068,0.043 -0.1,0.098 -0.1,0.158 0,0.046 0.013,0.083 0.044,0.113 0.03,0.032 0.068,0.047 0.112,0.047 0.03,0 0.077,-0.015 0.138,-0.047 0.097,-0.044 0.216,-0.067 0.351,-0.067 0.556,0 1.027,0.195 1.423,0.591 0.402,0.403 0.602,0.907 0.602,1.512 0,0.107 -0.004,0.257 -0.012,0.455 m -0.067,0.546 C 45.05,0.465 44.878,0.823 44.677,1.014 44.472,1.211 44.232,1.31 43.961,1.31 43.679,1.31 43.432,1.19 43.22,0.957 43.009,0.722 42.902,0.418 42.902,0.046 c 0,-0.355 0.107,-0.652 0.318,-0.886 0.212,-0.228 0.451,-0.341 0.715,-0.341 0.153,0 0.304,0.041 0.459,0.123 0.149,0.084 0.294,0.21 0.427,0.376 0.085,0.106 0.206,0.311 0.367,0.615 m 3.69,1.648 v -4.638 h 1.124 c 0.077,0 0.128,-0.015 0.158,-0.047 0.039,-0.03 0.057,-0.071 0.057,-0.123 0,-0.047 -0.018,-0.085 -0.057,-0.114 -0.03,-0.032 -0.081,-0.048 -0.158,-0.048 h -2.58 c -0.085,0 -0.145,0.016 -0.184,0.048 -0.029,0.029 -0.043,0.067 -0.043,0.114 0,0.052 0.014,0.093 0.043,0.123 0.039,0.032 0.099,0.047 0.184,0.047 h 1.124 V 1.127 L 47.466,0.795 C 47.422,0.781 47.382,0.773 47.354,0.773 c -0.039,0 -0.073,0.015 -0.103,0.048 -0.032,0.028 -0.046,0.066 -0.046,0.113 0,0.037 0.012,0.075 0.033,0.113 0.023,0.023 0.072,0.045 0.138,0.068 z m 3.223,-4.638 h 2.523 v 0.123 c 0,0.084 0.014,0.141 0.046,0.171 0.031,0.032 0.066,0.047 0.112,0.047 0.053,0 0.095,-0.015 0.126,-0.047 0.031,-0.03 0.046,-0.087 0.046,-0.171 v -0.455 h -3.173 v 0.49 c 0.667,0.598 1.316,1.209 1.946,1.831 0.294,0.287 0.497,0.497 0.601,0.626 0.114,0.135 0.19,0.256 0.228,0.363 0.038,0.106 0.058,0.21 0.058,0.307 0,0.281 -0.114,0.531 -0.343,0.751 C 54.053,1.198 53.778,1.31 53.453,1.31 53.165,1.31 52.911,1.226 52.69,1.058 52.471,0.892 52.328,0.687 52.258,0.444 52.243,0.383 52.224,0.345 52.201,0.331 c -0.03,-0.03 -0.064,-0.047 -0.1,-0.047 -0.049,0 -0.085,0.017 -0.115,0.047 -0.033,0.03 -0.047,0.066 -0.047,0.113 0,0.122 0.069,0.287 0.206,0.499 0.134,0.214 0.326,0.382 0.567,0.502 0.244,0.129 0.489,0.193 0.741,0.193 0.408,0 0.763,-0.143 1.057,-0.432 0.296,-0.279 0.444,-0.604 0.444,-0.967 0,-0.15 -0.026,-0.291 -0.081,-0.42 -0.044,-0.12 -0.128,-0.259 -0.249,-0.41 -0.122,-0.143 -0.335,-0.368 -0.637,-0.669 -0.771,-0.766 -1.403,-1.357 -1.886,-1.775 z m 6.893,2.343 c 0.296,-0.139 0.523,-0.324 0.683,-0.559 0.162,-0.234 0.239,-0.481 0.239,-0.739 0,-0.395 -0.161,-0.743 -0.476,-1.045 -0.32,-0.297 -0.717,-0.445 -1.193,-0.445 -0.282,0 -0.574,0.057 -0.878,0.17 -0.302,0.122 -0.514,0.248 -0.637,0.376 -0.038,0.038 -0.055,0.084 -0.055,0.136 0,0.04 0.013,0.071 0.044,0.104 0.03,0.029 0.064,0.045 0.102,0.045 0.047,0 0.095,-0.02 0.148,-0.057 0.402,-0.294 0.83,-0.443 1.286,-0.443 0.379,0 0.694,0.116 0.942,0.351 0.259,0.235 0.385,0.502 0.385,0.796 0,0.198 -0.063,0.388 -0.191,0.569 -0.121,0.189 -0.3,0.337 -0.535,0.444 -0.234,0.114 -0.473,0.171 -0.715,0.171 -0.083,0 -0.145,0.014 -0.184,0.044 -0.029,0.032 -0.046,0.069 -0.046,0.114 0,0.047 0.017,0.084 0.046,0.114 0.039,0.039 0.093,0.056 0.16,0.056 l 0.272,-0.009 c 0.297,0 0.541,0.091 0.729,0.271 0.197,0.183 0.294,0.391 0.294,0.625 0,0.243 -0.102,0.46 -0.308,0.648 C 58.909,1.214 58.651,1.31 58.324,1.31 58.097,1.31 57.888,1.268 57.698,1.184 57.509,1.107 57.359,1 57.246,0.865 57.197,0.813 57.164,0.778 57.142,0.764 57.127,0.756 57.104,0.75 57.075,0.75 c -0.049,0 -0.085,0.017 -0.114,0.045 -0.033,0.033 -0.047,0.07 -0.047,0.115 0,0.106 0.112,0.238 0.341,0.4 0.311,0.217 0.667,0.328 1.069,0.328 0.418,0 0.757,-0.125 1.026,-0.375 0.261,-0.249 0.396,-0.546 0.396,-0.888 0,-0.22 -0.065,-0.427 -0.191,-0.625 -0.129,-0.197 -0.318,-0.351 -0.561,-0.464"
             style="fill:#231f20;fill-opacity:1;fill-rule:nonzero;stroke:none"
             id="path126" /></g><g
           id="g128"
           transform="translate(208.6226,595.3955)"><path
             d="M 0,0 H 156.807"
             style="fill:none;stroke:#231f20;stroke-width:0.5;stroke-linecap:butt;stroke-linejoin:miter;stroke-miterlimit:4;stroke-dasharray:none;stroke-opacity:1"
             id="path130" /></g><g
           id="g132"
           transform="translate(206.7026,595.9971)"><path
             d="m 0,0 c 0.951,0.283 1.57,0.547 2.334,0.85 l -0.01,-2.903 c -0.271,0.131 -1.379,0.576 -2.326,0.867 -1.018,0.313 -1.939,0.524 -2.537,0.602 0.6,0.072 1.523,0.281 2.539,0.584"
             style="fill:#ffffff;fill-opacity:1;fill-rule:nonzero;stroke:none"
             id="path134" /></g><g
           id="g136"
           transform="translate(206.7026,595.9971)"><path
             d="m 0,0 c 0.951,0.283 1.57,0.547 2.334,0.85 l -0.01,-2.903 c -0.271,0.131 -1.379,0.576 -2.326,0.867 -1.018,0.313 -1.939,0.524 -2.537,0.602 0.6,0.072 1.523,0.281 2.539,0.584 z"
             style="fill:none;stroke:#231f20;stroke-width:0.5;stroke-linecap:butt;stroke-linejoin:round;stroke-miterlimit:4;stroke-dasharray:none;stroke-opacity:1"
             id="path138" /></g><g
           id="g140"
           transform="translate(240.0469,595.8452)"><path
             d="M 0,0 V 22.411 H 88.982 V 0"
             style="fill:none;stroke:#231f20;stroke-width:0.5;stroke-linecap:butt;stroke-linejoin:miter;stroke-miterlimit:4;stroke-dasharray:2, 1;stroke-dashoffset:0;stroke-opacity:1"
             id="path142" /></g><g
           id="g144"
           transform="translate(285.1929,599.8389)"><path
             d="m 0,0 c 0,-0.113 -0.037,-0.208 -0.114,-0.285 -0.077,-0.073 -0.169,-0.113 -0.284,-0.113 -0.113,0 -0.207,0.04 -0.284,0.113 -0.076,0.077 -0.115,0.172 -0.115,0.285 0,0.113 0.039,0.21 0.115,0.284 0.077,0.076 0.171,0.114 0.284,0.114 0.115,0 0.207,-0.038 0.284,-0.114 C -0.037,0.21 0,0.113 0,0 m 1.604,0 c 0,-0.113 -0.038,-0.208 -0.115,-0.285 -0.075,-0.073 -0.168,-0.113 -0.284,-0.113 -0.112,0 -0.209,0.04 -0.282,0.113 C 0.846,-0.208 0.807,-0.113 0.807,0 c 0,0.113 0.039,0.21 0.116,0.284 0.073,0.076 0.17,0.114 0.282,0.114 0.116,0 0.209,-0.038 0.284,-0.114 C 1.566,0.21 1.604,0.113 1.604,0 m 1.614,0 c 0,-0.113 -0.043,-0.208 -0.125,-0.285 -0.076,-0.073 -0.168,-0.113 -0.283,-0.113 -0.108,0 -0.204,0.04 -0.284,0.113 C 2.449,-0.208 2.411,-0.113 2.411,0 2.411,0.113 2.449,0.21 2.526,0.284 2.606,0.36 2.702,0.398 2.81,0.398 2.925,0.398 3.017,0.36 3.093,0.284 3.175,0.21 3.218,0.113 3.218,0"
             style="fill:#231f20;fill-opacity:1;fill-rule:nonzero;stroke:none"
             id="path146" /></g><g
           id="g148"
           transform="translate(353.0117,559.2407)"><path
             d="M 0,0 H -149.306"
             style="fill:none;stroke:#231f20;stroke-width:0.5;stroke-linecap:butt;stroke-linejoin:miter;stroke-miterlimit:4;stroke-dasharray:none;stroke-opacity:1"
             id="path150" /></g><g
           id="g152"
           transform="translate(354.9316,559.8423)"><path
             d="m 0,0 c -0.951,0.283 -1.57,0.547 -2.334,0.85 l 0.01,-2.903 c 0.271,0.131 1.379,0.576 2.326,0.867 1.018,0.313 1.939,0.524 2.537,0.602 C 1.939,-0.512 1.016,-0.303 0,0"
             style="fill:#ffffff;fill-opacity:1;fill-rule:nonzero;stroke:none"
             id="path154" /></g><g
           id="g156"
           transform="translate(354.9316,559.8423)"><path
             d="m 0,0 c -0.951,0.283 -1.57,0.547 -2.334,0.85 l 0.01,-2.903 c 0.271,0.131 1.379,0.576 2.326,0.867 1.018,0.313 1.939,0.524 2.537,0.602 C 1.939,-0.512 1.016,-0.303 0,0 Z"
             style="fill:none;stroke:#231f20;stroke-width:0.5;stroke-linecap:butt;stroke-linejoin:round;stroke-miterlimit:4;stroke-dasharray:none;stroke-opacity:1"
             id="path158" /></g><g
           id="g160"
           transform="translate(240.0469,559.6904)"><path
             d="M 0,0 V 22.411 H 88.982 V 0"
             style="fill:none;stroke:#231f20;stroke-width:0.5;stroke-linecap:butt;stroke-linejoin:miter;stroke-miterlimit:4;stroke-dasharray:2, 1;stroke-dashoffset:0;stroke-opacity:1"
             id="path162" /></g><g
           id="g164"
           transform="translate(249.0747,611.8003)"><path
             d="m 0,0 v 0.603 h 0.771 c 0.076,0 0.13,-0.02 0.16,-0.057 C 0.969,0.517 0.988,0.477 0.988,0.433 0.988,0.388 0.969,0.346 0.931,0.307 0.901,0.277 0.847,0.262 0.771,0.262 H 0.327 V -3.013 C 0.327,-3.232 0.284,-3.43 0.192,-3.603 0.13,-3.717 0.023,-3.835 -0.126,-3.957 -0.271,-4.078 -0.403,-4.164 -0.523,-4.219 -0.646,-4.271 -0.806,-4.297 -1.001,-4.297 h -0.936 c -0.072,0 -0.129,0.015 -0.168,0.045 -0.032,0.031 -0.046,0.071 -0.046,0.125 0,0.045 0.014,0.087 0.046,0.124 0.039,0.032 0.096,0.046 0.168,0.046 l 0.946,-0.012 c 0.19,0 0.36,0.05 0.511,0.148 0.161,0.099 0.292,0.243 0.398,0.433 C -0.027,-3.274 0,-3.133 0,-2.968 v 0.989 c -0.353,-0.485 -0.801,-0.727 -1.355,-0.727 -0.454,0 -0.844,0.166 -1.172,0.499 -0.326,0.341 -0.489,0.749 -0.489,1.219 0,0.469 0.163,0.872 0.489,1.203 0.328,0.334 0.718,0.502 1.172,0.502 C -0.801,0.717 -0.353,0.477 0,0 m 0,-0.988 c 0,0.385 -0.134,0.711 -0.398,0.976 -0.26,0.267 -0.574,0.4 -0.945,0.4 -0.364,0 -0.679,-0.138 -0.943,-0.41 -0.268,-0.264 -0.398,-0.588 -0.398,-0.966 0,-0.388 0.13,-0.717 0.398,-0.991 0.264,-0.265 0.579,-0.398 0.943,-0.398 0.371,0 0.685,0.133 0.945,0.398 C -0.134,-1.705 0,-1.376 0,-0.988 M 5.474,-1.171 H 2.13 c 0.061,-0.425 0.24,-0.767 0.534,-1.023 0.304,-0.257 0.674,-0.386 1.114,-0.386 0.243,0 0.496,0.038 0.763,0.113 0.272,0.082 0.492,0.189 0.658,0.318 0.054,0.046 0.097,0.068 0.125,0.068 0.045,0 0.085,-0.019 0.114,-0.056 0.03,-0.03 0.045,-0.07 0.045,-0.113 0,-0.045 -0.017,-0.087 -0.057,-0.127 C 5.298,-2.505 5.076,-2.627 4.757,-2.74 4.438,-2.854 4.111,-2.912 3.778,-2.912 c -0.568,0 -1.041,0.184 -1.422,0.547 -0.37,0.371 -0.555,0.819 -0.555,1.342 0,0.477 0.174,0.887 0.522,1.228 0.358,0.341 0.795,0.512 1.319,0.512 0.539,0 0.978,-0.176 1.32,-0.524 C 5.31,-0.156 5.481,-0.61 5.474,-1.171 M 5.142,-0.84 C 5.083,-0.477 4.912,-0.183 4.63,0.044 4.351,0.274 4.021,0.388 3.642,0.388 3.256,0.388 2.926,0.274 2.653,0.044 2.379,-0.173 2.209,-0.47 2.142,-0.84 Z M 7.83,0.603 h 1.787 c 0.076,0 0.129,-0.02 0.158,-0.057 C 9.815,0.517 9.832,0.477 9.832,0.433 9.832,0.388 9.815,0.346 9.775,0.307 9.746,0.277 9.693,0.262 9.617,0.262 H 7.83 v -2.185 c 0,-0.187 0.077,-0.348 0.229,-0.476 0.152,-0.122 0.375,-0.181 0.671,-0.181 0.221,0 0.459,0.03 0.717,0.089 0.256,0.069 0.456,0.146 0.603,0.227 0.051,0.04 0.098,0.057 0.136,0.057 0.037,0 0.071,-0.017 0.1,-0.057 0.033,-0.029 0.049,-0.067 0.049,-0.113 0,-0.038 -0.016,-0.074 -0.049,-0.114 C 10.205,-2.573 10,-2.665 9.674,-2.763 9.356,-2.862 9.049,-2.912 8.753,-2.912 c -0.379,0 -0.683,0.087 -0.909,0.264 -0.229,0.181 -0.342,0.424 -0.342,0.725 V 0.262 H 6.89 c -0.077,0 -0.133,0.015 -0.172,0.045 -0.031,0.039 -0.046,0.081 -0.046,0.126 0,0.044 0.015,0.084 0.046,0.113 0.039,0.037 0.095,0.057 0.172,0.057 h 0.612 v 0.966 c 0,0.077 0.015,0.129 0.046,0.159 0.031,0.039 0.067,0.057 0.113,0.057 0.053,0 0.096,-0.018 0.125,-0.057 C 7.815,1.698 7.83,1.646 7.83,1.569 Z m 7.091,1.512 v -4.571 h 0.433 c 0.084,0 0.139,-0.016 0.169,-0.044 0.038,-0.03 0.057,-0.073 0.057,-0.127 0,-0.044 -0.019,-0.084 -0.057,-0.113 -0.03,-0.031 -0.085,-0.045 -0.169,-0.045 h -0.775 v 0.648 c -0.378,-0.516 -0.859,-0.775 -1.442,-0.775 -0.297,0 -0.581,0.078 -0.853,0.228 -0.275,0.161 -0.489,0.384 -0.65,0.673 -0.158,0.294 -0.238,0.598 -0.238,0.909 0,0.311 0.08,0.61 0.238,0.897 0.161,0.296 0.375,0.524 0.65,0.682 0.272,0.161 0.556,0.24 0.853,0.24 0.575,0 1.057,-0.262 1.442,-0.786 v 1.854 h -0.433 c -0.083,0 -0.143,0.016 -0.179,0.047 -0.032,0.028 -0.047,0.071 -0.047,0.123 0,0.046 0.015,0.084 0.047,0.113 0.036,0.033 0.096,0.047 0.179,0.047 z m -0.342,-3.217 c 0,0.415 -0.141,0.769 -0.419,1.058 -0.282,0.286 -0.616,0.432 -1.002,0.432 -0.395,0 -0.73,-0.146 -1.012,-0.432 -0.281,-0.289 -0.421,-0.643 -0.421,-1.058 0,-0.41 0.14,-0.758 0.421,-1.047 0.282,-0.288 0.617,-0.431 1.012,-0.431 0.386,0 0.72,0.143 1.002,0.431 0.278,0.289 0.419,0.637 0.419,1.047 m 4.473,-1.683 v 0.477 c -0.477,-0.403 -0.984,-0.604 -1.522,-0.604 -0.395,0 -0.701,0.099 -0.922,0.297 -0.22,0.198 -0.329,0.44 -0.329,0.727 0,0.319 0.145,0.596 0.433,0.83 0.295,0.243 0.72,0.363 1.272,0.363 0.151,0 0.314,-0.009 0.49,-0.032 0.179,-0.017 0.375,-0.046 0.578,-0.091 v 0.534 c 0,0.182 -0.081,0.339 -0.248,0.467 -0.166,0.136 -0.417,0.205 -0.75,0.205 -0.252,0 -0.608,-0.077 -1.071,-0.23 -0.084,-0.022 -0.135,-0.032 -0.157,-0.032 -0.048,0 -0.084,0.015 -0.114,0.044 -0.032,0.03 -0.047,0.07 -0.047,0.114 0,0.048 0.015,0.08 0.047,0.104 0.03,0.045 0.178,0.101 0.442,0.171 0.404,0.103 0.709,0.158 0.922,0.158 0.407,0 0.728,-0.101 0.954,-0.307 0.235,-0.205 0.354,-0.437 0.354,-0.694 v -2.172 h 0.441 c 0.085,0 0.14,-0.016 0.172,-0.044 0.039,-0.03 0.055,-0.073 0.055,-0.127 0,-0.044 -0.016,-0.084 -0.055,-0.113 -0.032,-0.031 -0.087,-0.045 -0.172,-0.045 z m 0,1.636 c -0.15,0.047 -0.314,0.077 -0.487,0.091 -0.168,0.022 -0.345,0.035 -0.536,0.035 -0.477,0 -0.853,-0.102 -1.125,-0.307 -0.205,-0.153 -0.306,-0.338 -0.306,-0.558 0,-0.195 0.074,-0.362 0.228,-0.499 0.157,-0.129 0.386,-0.193 0.683,-0.193 0.285,0 0.553,0.052 0.796,0.158 0.24,0.114 0.49,0.297 0.747,0.546 z m 3.19,1.752 h 1.785 c 0.077,0 0.128,-0.02 0.161,-0.057 0.037,-0.029 0.056,-0.069 0.056,-0.113 0,-0.045 -0.019,-0.087 -0.056,-0.126 -0.033,-0.03 -0.084,-0.045 -0.161,-0.045 h -1.785 v -2.185 c 0,-0.187 0.077,-0.348 0.227,-0.476 0.151,-0.122 0.377,-0.181 0.671,-0.181 0.219,0 0.46,0.03 0.715,0.089 0.261,0.069 0.462,0.146 0.604,0.227 0.056,0.04 0.099,0.057 0.136,0.057 0.04,0 0.071,-0.017 0.104,-0.057 0.03,-0.029 0.044,-0.067 0.044,-0.113 0,-0.038 -0.014,-0.074 -0.044,-0.114 -0.084,-0.082 -0.289,-0.174 -0.616,-0.272 -0.318,-0.099 -0.625,-0.149 -0.919,-0.149 -0.382,0 -0.683,0.087 -0.909,0.264 -0.228,0.181 -0.343,0.424 -0.343,0.725 v 2.185 h -0.613 c -0.077,0 -0.134,0.015 -0.171,0.045 -0.028,0.039 -0.045,0.081 -0.045,0.126 0,0.044 0.017,0.084 0.045,0.113 0.037,0.037 0.094,0.057 0.171,0.057 h 0.613 v 0.966 c 0,0.077 0.016,0.129 0.046,0.159 0.031,0.039 0.069,0.057 0.113,0.057 0.053,0 0.094,-0.018 0.127,-0.057 0.03,-0.03 0.044,-0.082 0.044,-0.159 z m 6.418,-3.388 v 0.477 c -0.476,-0.403 -0.985,-0.604 -1.522,-0.604 -0.396,0 -0.702,0.099 -0.921,0.297 -0.22,0.198 -0.332,0.44 -0.332,0.727 0,0.319 0.146,0.596 0.432,0.83 0.298,0.243 0.722,0.363 1.276,0.363 0.15,0 0.313,-0.009 0.487,-0.032 0.184,-0.017 0.376,-0.046 0.58,-0.091 v 0.534 c 0,0.182 -0.083,0.339 -0.25,0.467 -0.168,0.136 -0.417,0.205 -0.752,0.205 -0.249,0 -0.605,-0.077 -1.065,-0.23 -0.084,-0.022 -0.14,-0.032 -0.161,-0.032 -0.044,0 -0.083,0.015 -0.115,0.044 -0.028,0.03 -0.045,0.07 -0.045,0.114 0,0.048 0.017,0.08 0.045,0.104 0.032,0.045 0.179,0.101 0.445,0.171 0.399,0.103 0.711,0.158 0.92,0.158 0.41,0 0.728,-0.101 0.956,-0.307 0.235,-0.205 0.353,-0.437 0.353,-0.694 v -2.172 h 0.443 c 0.084,0 0.141,-0.016 0.17,-0.044 0.038,-0.03 0.058,-0.073 0.058,-0.127 0,-0.044 -0.02,-0.084 -0.058,-0.113 -0.029,-0.031 -0.086,-0.045 -0.17,-0.045 z m 0,1.636 c -0.15,0.047 -0.314,0.077 -0.488,0.091 -0.167,0.022 -0.344,0.035 -0.535,0.035 -0.478,0 -0.852,-0.102 -1.126,-0.307 -0.202,-0.153 -0.307,-0.338 -0.307,-0.558 0,-0.195 0.076,-0.362 0.228,-0.499 0.161,-0.129 0.388,-0.193 0.682,-0.193 0.288,0 0.554,0.052 0.794,0.158 0.245,0.114 0.495,0.297 0.752,0.546 z"
             style="fill:#231f20;fill-opacity:1;fill-rule:nonzero;stroke:none"
             id="path166" /></g><g
           id="g168"
           transform="translate(247.2993,602.9434)"><path
             d="m 0,0 h 1.785 c 0.076,0 0.127,-0.019 0.161,-0.056 0.036,-0.03 0.056,-0.069 0.056,-0.114 0,-0.047 -0.02,-0.086 -0.056,-0.127 C 1.912,-0.326 1.861,-0.341 1.785,-0.341 H 0 v -2.184 c 0,-0.188 0.077,-0.349 0.228,-0.477 0.151,-0.121 0.376,-0.181 0.669,-0.181 0.22,0 0.46,0.03 0.716,0.089 0.259,0.07 0.461,0.146 0.604,0.228 0.054,0.039 0.099,0.057 0.137,0.057 0.039,0 0.071,-0.018 0.103,-0.057 0.029,-0.03 0.044,-0.067 0.044,-0.114 0,-0.038 -0.015,-0.073 -0.044,-0.114 -0.084,-0.082 -0.289,-0.173 -0.615,-0.271 -0.32,-0.099 -0.626,-0.148 -0.92,-0.148 -0.38,0 -0.685,0.086 -0.911,0.262 -0.228,0.182 -0.341,0.424 -0.341,0.726 v 2.184 h -0.613 c -0.077,0 -0.134,0.015 -0.17,0.044 -0.032,0.041 -0.046,0.08 -0.046,0.127 0,0.045 0.014,0.084 0.046,0.114 C -1.077,-0.019 -1.02,0 -0.943,0 h 0.613 v 0.966 c 0,0.077 0.017,0.129 0.046,0.159 0.029,0.039 0.067,0.057 0.113,0.057 0.053,0 0.095,-0.018 0.125,-0.057 C -0.014,1.095 0,1.043 0,0.966 Z m 5.702,-1.616 1.499,-1.443 c 0.099,0 0.161,-0.007 0.184,-0.023 0.029,-0.007 0.053,-0.027 0.069,-0.056 0.022,-0.022 0.034,-0.054 0.034,-0.092 0,-0.044 -0.016,-0.083 -0.047,-0.113 -0.03,-0.03 -0.086,-0.045 -0.17,-0.045 H 6.213 c -0.085,0 -0.143,0.015 -0.18,0.045 -0.032,0.03 -0.048,0.069 -0.048,0.113 0,0.054 0.016,0.094 0.048,0.126 0.037,0.03 0.095,0.045 0.18,0.045 H 6.76 L 5.475,-1.843 4.211,-3.059 h 0.547 c 0.075,0 0.128,-0.015 0.16,-0.045 0.037,-0.032 0.057,-0.072 0.057,-0.126 0,-0.044 -0.02,-0.083 -0.057,-0.113 -0.032,-0.03 -0.085,-0.045 -0.16,-0.045 H 3.689 c -0.076,0 -0.132,0.015 -0.169,0.045 -0.033,0.03 -0.047,0.069 -0.047,0.113 0,0.038 0.006,0.07 0.025,0.092 0.022,0.029 0.044,0.049 0.065,0.056 0.023,0.016 0.085,0.023 0.184,0.023 l 1.512,1.443 -1.342,1.275 c -0.092,0 -0.153,0.003 -0.183,0.01 -0.022,0.017 -0.045,0.039 -0.066,0.07 -0.018,0.029 -0.024,0.061 -0.024,0.091 0,0.045 0.014,0.084 0.045,0.114 C 3.727,-0.019 3.789,0 3.87,0 h 0.9 c 0.077,0 0.128,-0.019 0.158,-0.056 0.04,-0.03 0.057,-0.069 0.057,-0.114 0,-0.047 -0.017,-0.086 -0.057,-0.127 C 4.898,-0.326 4.847,-0.341 4.77,-0.341 H 4.372 l 1.103,-1.058 1.114,1.058 H 6.203 c -0.077,0 -0.133,0.015 -0.17,0.044 -0.04,0.041 -0.056,0.08 -0.056,0.127 0,0.045 0.013,0.084 0.043,0.114 C 6.058,-0.019 6.119,0 6.203,0 H 7.1 C 7.177,0 7.229,-0.019 7.259,-0.056 7.298,-0.086 7.314,-0.125 7.314,-0.17 7.314,-0.2 7.306,-0.232 7.283,-0.261 7.269,-0.292 7.243,-0.314 7.214,-0.331 7.191,-0.338 7.135,-0.341 7.043,-0.341 Z m 6.372,0.944 H 8.493 c -0.076,0 -0.133,0.015 -0.17,0.047 -0.032,0.029 -0.047,0.072 -0.047,0.124 0,0.046 0.015,0.084 0.047,0.114 0.037,0.032 0.094,0.046 0.17,0.046 h 3.581 c 0.077,0 0.129,-0.014 0.158,-0.046 0.039,-0.03 0.058,-0.072 0.058,-0.124 0,-0.047 -0.019,-0.085 -0.058,-0.114 -0.029,-0.032 -0.081,-0.047 -0.158,-0.047 m 0,-1.182 H 8.493 c -0.076,0 -0.133,0.016 -0.17,0.045 -0.032,0.032 -0.047,0.073 -0.047,0.127 0,0.044 0.015,0.083 0.047,0.114 0.037,0.029 0.094,0.044 0.17,0.044 h 3.581 c 0.077,0 0.129,-0.015 0.158,-0.044 0.039,-0.031 0.058,-0.07 0.058,-0.114 0,-0.054 -0.019,-0.095 -0.058,-0.127 -0.029,-0.029 -0.081,-0.045 -0.158,-0.045 m 8.425,-0.159 h -2.172 v 0.375 l 1.819,3.151 h 0.681 v -3.195 h 0.275 c 0.085,0 0.14,-0.016 0.171,-0.047 0.037,-0.031 0.055,-0.072 0.055,-0.125 0,-0.047 -0.018,-0.083 -0.055,-0.113 -0.031,-0.029 -0.086,-0.046 -0.171,-0.046 h -0.275 v -1.046 h 0.275 c 0.085,0 0.14,-0.015 0.171,-0.045 0.037,-0.032 0.055,-0.072 0.055,-0.126 0,-0.044 -0.018,-0.083 -0.055,-0.113 -0.031,-0.03 -0.086,-0.045 -0.171,-0.045 h -1.215 c -0.085,0 -0.147,0.015 -0.184,0.045 -0.029,0.03 -0.045,0.069 -0.045,0.113 0,0.054 0.016,0.094 0.045,0.126 0.037,0.03 0.099,0.045 0.184,0.045 h 0.612 z m 0,0.331 v 2.864 h -0.171 l -1.661,-2.864 z m 4.871,0.84 c 0.273,-0.136 0.478,-0.314 0.616,-0.534 0.135,-0.212 0.205,-0.442 0.205,-0.694 0,-0.386 -0.15,-0.725 -0.446,-1.012 -0.287,-0.281 -0.639,-0.419 -1.057,-0.419 -0.415,0 -0.771,0.138 -1.067,0.419 -0.29,0.287 -0.433,0.626 -0.433,1.012 0,0.252 0.069,0.482 0.206,0.694 0.142,0.22 0.354,0.398 0.636,0.534 -0.244,0.138 -0.418,0.281 -0.524,0.433 -0.151,0.204 -0.227,0.436 -0.227,0.694 0,0.363 0.136,0.676 0.409,0.944 0.282,0.271 0.614,0.407 1,0.407 0.396,0 0.729,-0.136 1,-0.407 0.283,-0.268 0.423,-0.581 0.423,-0.944 0,-0.258 -0.077,-0.49 -0.227,-0.694 -0.106,-0.152 -0.277,-0.295 -0.514,-0.433 m 0.41,1.114 c 0,0.281 -0.106,0.524 -0.319,0.729 -0.213,0.205 -0.47,0.306 -0.773,0.306 -0.302,0 -0.562,-0.101 -0.771,-0.306 -0.206,-0.205 -0.31,-0.448 -0.31,-0.729 0,-0.25 0.104,-0.472 0.31,-0.669 0.209,-0.19 0.469,-0.285 0.771,-0.285 0.312,0 0.567,0.095 0.773,0.285 0.213,0.197 0.319,0.419 0.319,0.669 m 0.091,-2.353 c 0,0.287 -0.113,0.54 -0.341,0.749 -0.226,0.22 -0.509,0.331 -0.842,0.331 -0.335,0 -0.613,-0.111 -0.841,-0.331 -0.22,-0.209 -0.331,-0.457 -0.331,-0.738 0,-0.303 0.114,-0.564 0.344,-0.784 0.228,-0.212 0.502,-0.318 0.828,-0.318 0.333,0 0.616,0.106 0.842,0.318 0.228,0.22 0.341,0.477 0.341,0.773 m 4.997,1.74 v 0.114 c 0,0.084 0.015,0.141 0.044,0.171 0.033,0.037 0.069,0.056 0.114,0.056 0.054,0 0.097,-0.019 0.127,-0.056 0.029,-0.03 0.043,-0.087 0.043,-0.171 v -0.739 c 0,-0.084 -0.014,-0.146 -0.043,-0.183 -0.03,-0.029 -0.073,-0.044 -0.127,-0.044 -0.045,0 -0.081,0.015 -0.114,0.044 -0.029,0.03 -0.044,0.08 -0.044,0.148 -0.014,0.191 -0.136,0.368 -0.363,0.534 -0.228,0.168 -0.536,0.25 -0.922,0.25 -0.491,0 -0.865,-0.153 -1.114,-0.465 -0.25,-0.304 -0.376,-0.652 -0.376,-1.047 0,-0.423 0.136,-0.771 0.41,-1.046 0.279,-0.271 0.646,-0.408 1.093,-0.408 0.25,0 0.507,0.045 0.77,0.137 0.268,0.091 0.505,0.242 0.716,0.454 0.064,0.051 0.111,0.079 0.149,0.079 0.046,0 0.085,-0.014 0.115,-0.045 0.028,-0.032 0.046,-0.069 0.046,-0.113 0,-0.114 -0.133,-0.26 -0.399,-0.433 -0.424,-0.274 -0.898,-0.409 -1.422,-0.409 -0.52,0 -0.954,0.168 -1.296,0.501 -0.34,0.341 -0.51,0.768 -0.51,1.283 0,0.531 0.172,0.97 0.521,1.32 0.35,0.348 0.786,0.522 1.31,0.522 0.507,0 0.931,-0.153 1.272,-0.454 m 4.039,-1.672 h -2.168 v 0.375 l 1.819,3.151 h 0.682 v -3.195 h 0.271 c 0.085,0 0.142,-0.016 0.172,-0.047 0.038,-0.031 0.056,-0.072 0.056,-0.125 0,-0.047 -0.018,-0.083 -0.056,-0.113 -0.03,-0.029 -0.087,-0.046 -0.172,-0.046 H 35.24 v -1.046 h 0.271 c 0.085,0 0.142,-0.015 0.172,-0.045 0.038,-0.032 0.056,-0.072 0.056,-0.126 0,-0.044 -0.018,-0.083 -0.056,-0.113 -0.03,-0.03 -0.087,-0.045 -0.172,-0.045 h -1.215 c -0.085,0 -0.144,0.015 -0.184,0.045 -0.029,0.03 -0.044,0.069 -0.044,0.113 0,0.054 0.015,0.094 0.044,0.126 0.04,0.03 0.099,0.045 0.184,0.045 h 0.611 z m 0,0.331 v 2.864 h -0.169 l -1.659,-2.864 z m 2.987,-1.422 c 0,-0.114 -0.038,-0.209 -0.115,-0.284 -0.077,-0.076 -0.169,-0.113 -0.284,-0.113 -0.112,0 -0.207,0.037 -0.283,0.113 -0.076,0.075 -0.115,0.17 -0.115,0.284 0,0.114 0.039,0.208 0.115,0.285 0.076,0.073 0.171,0.113 0.283,0.113 0.115,0 0.207,-0.04 0.284,-0.113 0.077,-0.077 0.115,-0.171 0.115,-0.285 m 1.603,0 c 0,-0.114 -0.037,-0.209 -0.114,-0.284 -0.075,-0.076 -0.168,-0.113 -0.284,-0.113 -0.113,0 -0.209,0.037 -0.283,0.113 -0.077,0.075 -0.116,0.17 -0.116,0.284 0,0.114 0.039,0.208 0.116,0.285 0.074,0.073 0.17,0.113 0.283,0.113 0.116,0 0.209,-0.04 0.284,-0.113 0.077,-0.077 0.114,-0.171 0.114,-0.285 m 1.614,0 c 0,-0.114 -0.043,-0.209 -0.125,-0.284 -0.076,-0.076 -0.168,-0.113 -0.283,-0.113 -0.107,0 -0.203,0.037 -0.283,0.113 -0.077,0.075 -0.115,0.17 -0.115,0.284 0,0.114 0.038,0.208 0.115,0.285 0.08,0.073 0.176,0.113 0.283,0.113 0.115,0 0.207,-0.04 0.283,-0.113 0.082,-0.077 0.125,-0.171 0.125,-0.285 m 4.144,2.489 c -0.173,-0.295 -0.379,-0.519 -0.611,-0.67 -0.229,-0.151 -0.47,-0.227 -0.72,-0.227 -0.219,0 -0.436,0.064 -0.646,0.193 -0.213,0.128 -0.383,0.318 -0.512,0.569 -0.123,0.249 -0.182,0.516 -0.182,0.794 0,0.404 0.121,0.767 0.362,1.093 0.25,0.334 0.584,0.499 1.001,0.499 0.298,0 0.567,-0.094 0.809,-0.284 0.249,-0.18 0.442,-0.448 0.577,-0.796 0.177,-0.454 0.264,-0.98 0.264,-1.579 0,-0.462 -0.075,-0.845 -0.228,-1.149 -0.1,-0.213 -0.243,-0.418 -0.431,-0.613 -0.19,-0.19 -0.408,-0.351 -0.649,-0.479 -0.326,-0.158 -0.669,-0.237 -1.022,-0.237 -0.236,0 -0.427,0.042 -0.57,0.123 -0.068,0.046 -0.1,0.099 -0.1,0.16 0,0.046 0.013,0.082 0.044,0.114 0.03,0.03 0.068,0.045 0.112,0.045 0.03,0 0.077,-0.015 0.138,-0.045 0.097,-0.046 0.216,-0.068 0.351,-0.068 0.556,0 1.027,0.197 1.423,0.59 0.402,0.403 0.602,0.907 0.602,1.513 0,0.105 -0.004,0.259 -0.012,0.454 m -0.067,0.546 c -0.138,0.53 -0.31,0.893 -0.511,1.08 -0.205,0.197 -0.445,0.296 -0.716,0.296 -0.282,0 -0.529,-0.118 -0.741,-0.353 -0.211,-0.234 -0.318,-0.537 -0.318,-0.91 0,-0.355 0.107,-0.651 0.318,-0.886 0.212,-0.227 0.451,-0.341 0.715,-0.341 0.153,0 0.304,0.041 0.459,0.125 0.149,0.085 0.294,0.208 0.427,0.376 0.085,0.107 0.206,0.312 0.367,0.613 m 3.69,1.649 v -4.639 h 1.124 c 0.077,0 0.128,-0.015 0.158,-0.045 0.039,-0.032 0.057,-0.072 0.057,-0.126 0,-0.044 -0.018,-0.083 -0.057,-0.113 -0.03,-0.03 -0.081,-0.045 -0.158,-0.045 h -2.58 c -0.085,0 -0.145,0.015 -0.184,0.045 -0.029,0.03 -0.043,0.069 -0.043,0.113 0,0.054 0.014,0.094 0.043,0.126 0.039,0.03 0.099,0.045 0.184,0.045 h 1.124 V 1.125 L 47.466,0.796 C 47.422,0.782 47.382,0.774 47.354,0.774 c -0.039,0 -0.073,0.015 -0.103,0.043 -0.032,0.031 -0.046,0.071 -0.046,0.115 0,0.037 0.012,0.076 0.033,0.113 0.023,0.022 0.072,0.048 0.138,0.069 z m 3.223,-4.639 h 2.523 v 0.126 c 0,0.082 0.014,0.138 0.046,0.17 0.031,0.03 0.066,0.046 0.112,0.046 0.053,0 0.095,-0.016 0.126,-0.046 0.031,-0.032 0.046,-0.088 0.046,-0.17 v -0.455 h -3.173 v 0.49 c 0.667,0.598 1.316,1.208 1.946,1.829 0.294,0.288 0.497,0.496 0.601,0.624 0.114,0.139 0.19,0.26 0.228,0.367 0.038,0.105 0.058,0.207 0.058,0.306 0,0.279 -0.114,0.53 -0.343,0.751 -0.218,0.217 -0.493,0.328 -0.818,0.328 -0.288,0 -0.542,-0.083 -0.763,-0.249 C 52.471,0.89 52.328,0.686 52.258,0.443 52.243,0.384 52.224,0.344 52.201,0.33 c -0.03,-0.031 -0.064,-0.045 -0.1,-0.045 -0.049,0 -0.085,0.014 -0.115,0.045 -0.033,0.031 -0.047,0.068 -0.047,0.113 0,0.12 0.069,0.289 0.206,0.501 0.134,0.212 0.326,0.379 0.567,0.499 0.244,0.129 0.489,0.193 0.741,0.193 0.408,0 0.763,-0.143 1.057,-0.43 0.296,-0.281 0.444,-0.603 0.444,-0.968 0,-0.151 -0.026,-0.292 -0.081,-0.421 -0.044,-0.121 -0.128,-0.257 -0.249,-0.408 -0.122,-0.145 -0.335,-0.368 -0.637,-0.672 -0.771,-0.765 -1.403,-1.356 -1.886,-1.774 z m 6.893,2.343 c 0.296,-0.136 0.523,-0.321 0.683,-0.559 0.162,-0.234 0.239,-0.48 0.239,-0.738 0,-0.394 -0.161,-0.742 -0.476,-1.046 -0.32,-0.296 -0.717,-0.442 -1.193,-0.442 -0.282,0 -0.574,0.056 -0.878,0.169 -0.302,0.123 -0.514,0.246 -0.637,0.377 -0.038,0.037 -0.055,0.081 -0.055,0.136 0,0.037 0.013,0.071 0.044,0.102 0.03,0.029 0.064,0.046 0.102,0.046 0.047,0 0.095,-0.019 0.148,-0.057 0.402,-0.296 0.83,-0.444 1.286,-0.444 0.379,0 0.694,0.119 0.942,0.353 0.259,0.234 0.385,0.499 0.385,0.796 0,0.197 -0.063,0.385 -0.191,0.568 -0.121,0.19 -0.3,0.336 -0.535,0.442 -0.234,0.114 -0.473,0.171 -0.715,0.171 -0.083,0 -0.145,0.014 -0.184,0.046 -0.029,0.03 -0.046,0.067 -0.046,0.114 0,0.045 0.017,0.081 0.046,0.114 0.039,0.037 0.093,0.057 0.16,0.057 l 0.272,-0.012 c 0.297,0 0.541,0.09 0.729,0.273 0.197,0.181 0.294,0.391 0.294,0.626 0,0.242 -0.102,0.457 -0.308,0.648 -0.197,0.189 -0.455,0.283 -0.782,0.283 -0.227,0 -0.436,-0.042 -0.626,-0.125 C 57.509,1.107 57.359,1.001 57.246,0.865 57.197,0.811 57.164,0.777 57.142,0.761 57.127,0.753 57.104,0.749 57.075,0.749 c -0.049,0 -0.085,0.017 -0.114,0.047 -0.033,0.03 -0.047,0.069 -0.047,0.113 0,0.106 0.112,0.24 0.341,0.398 0.311,0.221 0.667,0.329 1.069,0.329 0.418,0 0.757,-0.123 1.026,-0.374 0.261,-0.251 0.396,-0.546 0.396,-0.886 0,-0.22 -0.065,-0.43 -0.191,-0.626 -0.129,-0.197 -0.318,-0.353 -0.561,-0.466"
             style="fill:#231f20;fill-opacity:1;fill-rule:nonzero;stroke:none"
             id="path170" /></g><text
           transform="matrix(1,0,0,-1,415.9258,646.46)"
           style="font-variant:normal;font-weight:bold;font-stretch:condensed;font-size:9px;font-family:'Humanst521 Cn BT';-inkscape-font-specification:Humanist521BT-BoldCondensed;writing-mode:lr-tb;fill:#231f20;fill-opacity:1;fill-rule:nonzero;stroke:none"
           id="text192"><tspan
             x="0 3.438 7.7849998 14.526 16.83 20.43 24.921 28.881001 32.480999 36.666 40.167 42.471001 44.604 46.917 49.221001 53.712002"
             y="0"
             id="tspan172">Tom checks if he</tspan><tspan
             x="0 4.0500002 6.21 9.6029997 13.563 17.613001 22.122 25.893 28.197001 32.688 36.737999 40.238998 42.542999 45.540001 50.030998 53.991001 56.294998 59.292 63.044998"
             y="9.5039997"
             id="tspan174">already has the tx.</tspan><tspan
             x="0 5.2470002 9.2069998 11.511 16.02 20.367001 24.327 27.827999 32.147999 34.334999 37.332001 39.519001 41.823002 45.324001 49.671001 51.974998 56.466"
             y="19.007999"
             id="tspan176">He doesnt, so he</tspan><tspan
             x="0 3.3929999 7.3530002 11.862 16.344 20.304001 23.805 26.802 30.302999 32.606998 34.740002 37.737"
             y="28.511999"
             id="tspan178">requests it.</tspan><tspan
             x="-293.99399 -289.55701 -285.07501 -282.771 -280.638 -276.15601 -272.42999 -270.12601 -263.38501 -259.42499 -255.924 -252.423 -248.373 -244.269 -240.30901 -238.005 -235.87199 -231.39 -229.077 -224.73 -221.33701 -214.59599 -211.095 -208.791 -205.353 -201.006 -194.265 -192.078"
             y="-28.98"
             id="tspan180">An inv message informs Toms</tspan><tspan
             x="-293.99399 -289.51199 -285.16501 -280.65601 -276.69601 -274.392 -271.39499 -266.90399 -262.854 -259.85699 -257.55301 -254.99699 -250.64999 -246.159 -241.839 -239.65199 -236.151 -233.847 -230.85001 -227.457 -223.407 -218.925 -215.424 -211.37399 -207.774 -204.77699 -202.644 -198.297"
             y="-19.476"
             id="tspan182">node that Johns transaction</tspan><tspan
             x="-293.99399 -290.39401 -286.34399 -281.862 -279.55801 -275.04901 -271.08899 -268.785 -266.47198 -262.51199 -259.51501 -255.91499 -251.424 -247.464 -242.955 -240.651 -238.338 -234.94501 -230.59801 -223.85699 -221.55299 -218.99699 -214.64999 -210.159 -205.839 -203.65199"
             y="-9.9720001"
             id="tspan184">can be fetched from Johns</tspan><tspan
             x="-293.99399 -288.28799 -284.23801 -282.078 -279.918 -275.95801 -272.961"
             y="-0.46799999"
             id="tspan186">wallet.</tspan><tspan
             x="-293.832 -291.276 -286.92899 -282.43799 -278.11801 -275.931 -272.42999 -270.12601 -264.42001 -260.37 -258.20999 -256.04999 -252.09 -249.093 -246.789 -242.298 -238.248 -234.74699 -232.44299 -229.446 -224.955 -220.995 -218.69099 -215.298 -211.338 -206.82899 -202.347 -198.38699 -194.886 -191.88901 -187.929"
             y="116.163"
             id="tspan188">Johns wallet has the requested</tspan><tspan
             x="-293.832 -290.83499 -287.082 -284.89499 -282.591 -279.09 -274.74301 -272.439 -267.948 -263.98801 -261.68399 -258.18301 -254.22301 -249.741 -245.23199 -241.731 -239.427 -237.29401 -234.297"
             y="125.667"
             id="tspan190">tx, so he sends it.</tspan></text><g
           id="g194"
           transform="translate(287.6675,578.1445)"><path
             d="m 0,0 c 0,1.1 0.9,2 2,2 h 30.897 c 1.1,0 2,-0.9 2,-2 v -14.933 c 0,-1.1 -0.9,-2 -2,-2 H 2 c -1.1,0 -2,0.9 -2,2 z"
             style="fill:#feefe9;fill-opacity:1;fill-rule:nonzero;stroke:none"
             id="path196" /></g><g
           id="g198"
           transform="translate(287.6675,578.1445)"><path
             d="m 0,0 c 0,1.1 0.9,2 2,2 h 30.897 c 1.1,0 2,-0.9 2,-2 v -14.933 c 0,-1.1 -0.9,-2 -2,-2 H 2 c -1.1,0 -2,0.9 -2,2 z"
             style="fill:none;stroke:#d91920;stroke-width:1;stroke-linecap:butt;stroke-linejoin:round;stroke-miterlimit:4;stroke-dasharray:none;stroke-opacity:1"
             id="path200" /></g><text
           transform="matrix(1,0,0,-1,301.228,568.5864)"
           style="font-variant:normal;font-weight:normal;font-stretch:normal;font-size:7px;font-family:Arial;-inkscape-font-specification:ArialMT;writing-mode:lr-tb;fill:#231f20;fill-opacity:1;fill-rule:nonzero;stroke:none"
           id="text204"><tspan
             x="0 4.277"
             y="0"
             id="tspan202">Tx</tspan></text><g
           id="g206"
           transform="translate(195.0298,643.3291)"><path
             d="m 0,0 c 2.425,0 4.636,-0.83 6.229,-2.338 1.555,-1.471 2.408,-3.469 2.408,-5.624 v -81.055 c 0,-4.391 -3.572,-7.962 -7.961,-7.962 h -31.785 c -4.391,0 -7.963,3.571 -7.963,7.962 v 81.055 c 0,2.095 0.801,4.096 2.254,5.635 1.394,1.478 3.23,2.327 5.033,2.327 L 0,0"
             style="fill:#d1d0d0;fill-opacity:1;fill-rule:nonzero;stroke:#231f20;stroke-width:0.5;stroke-linecap:butt;stroke-linejoin:miter;stroke-miterlimit:10;stroke-dasharray:none;stroke-opacity:1"
             id="path208" /></g></g></g><g
       id="g210"><g
         id="g212"><g
           id="g218"><g
             id="g220"><path
               d="m 163.245,642.516 c -1.581,0 -3.198,-0.754 -4.44,-2.072 v 0 c -1.311,-1.387 -2.033,-3.192 -2.033,-5.077 v 0 -81.054 c 0,-3.943 3.207,-7.15 7.149,-7.15 v 0 h 31.785 c 3.942,0 7.148,3.207 7.148,7.15 v 0 81.054 c 0,1.929 -0.766,3.718 -2.157,5.032 v 0 c -1.44,1.365 -3.456,2.117 -5.667,2.117 v 0 z"
               style="fill:url(#linearGradient232);stroke:none"
               id="path234" /></g></g></g></g><g
       id="g236"><g
         id="g238"><g
           id="g244"><g
             id="g246"><path
               d="m 174.665,554.63 c 0,-2.841 2.303,-5.149 5.15,-5.149 v 0 c 2.843,0 5.148,2.308 5.148,5.149 v 0 c 0,2.844 -2.305,5.151 -5.148,5.151 v 0 c -2.847,0 -5.15,-2.307 -5.15,-5.151"
               style="fill:url(#linearGradient256);stroke:none"
               id="path258" /></g></g></g></g><g
       id="g260"><g
         id="g262"
         clip-path="url(#clipPath266)"><g
           id="g268"
           transform="translate(186.2881,637.2285)"><path
             d="m 0,0 c 0,-0.497 -0.404,-0.901 -0.902,-0.901 h -11.143 c -0.498,0 -0.903,0.404 -0.903,0.901 0,0.497 0.405,0.902 0.903,0.902 H -0.902 C -0.404,0.902 0,0.497 0,0"
             style="fill:#939192;fill-opacity:1;fill-rule:nonzero;stroke:none"
             id="path270" /></g><g
           id="g272"
           transform="translate(171.0044,637.2285)"><path
             d="m 0,0 c 0,-0.464 -0.376,-0.841 -0.84,-0.841 -0.468,0 -0.843,0.377 -0.843,0.841 0,0.463 0.375,0.841 0.843,0.841 C -0.376,0.841 0,0.463 0,0"
             style="fill:#939192;fill-opacity:1;fill-rule:nonzero;stroke:none"
             id="path274" /></g><g
           id="g276"
           transform="translate(179.1191,555.8159)"><path
             d="m 0,0 c -0.27,0 -0.492,-0.22 -0.492,-0.491 v -1.387 c 0,-0.271 0.222,-0.493 0.492,-0.493 h 1.388 c 0.271,0 0.489,0.222 0.489,0.493 v 1.387 C 1.877,-0.22 1.659,0 1.388,0 Z M 1.388,-3.014 H 0 c -0.625,0 -1.133,0.511 -1.133,1.136 v 1.387 c 0,0.624 0.508,1.135 1.133,1.135 h 1.388 c 0.624,0 1.133,-0.511 1.133,-1.135 v -1.387 c 0,-0.625 -0.509,-1.136 -1.133,-1.136"
             style="fill:#918f90;fill-opacity:1;fill-rule:nonzero;stroke:none"
             id="path278" /></g><path
           d="m 199.815,562.944 h -40.009 v 71.01 h 40.009 z"
           style="fill:#e0f2f9;fill-opacity:1;fill-rule:nonzero;stroke:none"
           id="path280" /><path
           d="m 195.106,567.334 h -30.922 v 11.807 h 30.922 z"
           style="fill:#fde17e;fill-opacity:1;fill-rule:nonzero;stroke:#231f20;stroke-width:0.5;stroke-linecap:butt;stroke-linejoin:miter;stroke-miterlimit:10;stroke-dasharray:none;stroke-opacity:1"
           id="path282" /><text
           transform="matrix(1,0,0,-1,173.373,624.1177)"
           style="font-variant:normal;font-weight:normal;font-stretch:normal;font-size:7px;font-family:Arial;-inkscape-font-specification:ArialMT;writing-mode:lr-tb;fill:#231f20;fill-opacity:1;fill-rule:nonzero;stroke:none"
           id="text290"><tspan
             x="0 4.6690001 8.5609999"
             y="0"
             id="tspan284">Pay</tspan><tspan
             x="-3.5 0.39199999 4.2839999 6.23 11.284"
             y="9.0019999"
             id="tspan286">10 CT</tspan><tspan
             x="0.97299999 5.25 9.1420002"
             y="18.004"
             id="tspan288">To:</tspan></text><g
           id="g292"
           transform="translate(164.1958,602.5757)"><path
             d="m 0,0 v -4.422 h 1.067 c 0.074,0 0.122,-0.009 0.152,-0.04 0.036,-0.028 0.054,-0.07 0.054,-0.12 0,-0.043 -0.018,-0.076 -0.054,-0.106 -0.03,-0.031 -0.078,-0.049 -0.152,-0.049 h -2.459 c -0.083,0 -0.136,0.018 -0.18,0.049 -0.025,0.03 -0.036,0.063 -0.036,0.106 0,0.05 0.011,0.092 0.036,0.12 0.044,0.031 0.097,0.04 0.18,0.04 h 1.075 v 3.991 l -1.037,-0.312 c -0.038,-0.017 -0.071,-0.025 -0.108,-0.025 -0.033,0 -0.061,0.011 -0.088,0.047 -0.035,0.025 -0.051,0.064 -0.051,0.11 0,0.032 0.012,0.07 0.029,0.1 0.033,0.028 0.071,0.043 0.142,0.074 z M 5.702,-2.092 C 5.537,-2.371 5.343,-2.587 5.116,-2.727 4.898,-2.874 4.672,-2.946 4.436,-2.946 c -0.212,0 -0.422,0.06 -0.62,0.187 -0.205,0.118 -0.367,0.299 -0.491,0.543 -0.111,0.237 -0.172,0.486 -0.172,0.751 0,0.388 0.113,0.734 0.35,1.042 0.236,0.32 0.557,0.479 0.952,0.479 0.283,0 0.539,-0.091 0.771,-0.269 0.233,-0.174 0.421,-0.431 0.552,-0.762 0.166,-0.43 0.248,-0.936 0.248,-1.504 0,-0.439 -0.075,-0.805 -0.215,-1.098 C 5.719,-3.774 5.577,-3.971 5.397,-4.16 5.217,-4.341 5.01,-4.49 4.78,-4.617 4.469,-4.765 4.144,-4.84 3.802,-4.84 c -0.222,0 -0.402,0.039 -0.543,0.117 -0.061,0.042 -0.098,0.094 -0.098,0.154 0,0.04 0.018,0.079 0.046,0.107 0.031,0.031 0.07,0.04 0.107,0.04 0.03,0 0.073,-0.009 0.134,-0.04 0.091,-0.045 0.202,-0.067 0.333,-0.067 0.529,0 0.98,0.188 1.354,0.563 0.386,0.382 0.575,0.863 0.575,1.445 0,0.099 -0.002,0.243 -0.008,0.429 M 5.635,-1.57 C 5.508,-1.062 5.343,-0.716 5.151,-0.537 4.953,-0.352 4.725,-0.26 4.463,-0.26 4.202,-0.26 3.962,-0.371 3.758,-0.591 3.558,-0.816 3.46,-1.107 3.46,-1.465 c 0,-0.333 0.098,-0.613 0.298,-0.843 0.204,-0.213 0.432,-0.329 0.681,-0.329 0.149,0 0.289,0.047 0.439,0.121 0.145,0.082 0.279,0.203 0.409,0.363 0.084,0.103 0.193,0.297 0.348,0.583 m 4.873,0.878 v -2.609 c 0,-0.44 -0.149,-0.811 -0.447,-1.105 -0.291,-0.302 -0.643,-0.445 -1.059,-0.445 -0.274,0 -0.521,0.057 -0.734,0.17 -0.219,0.124 -0.409,0.308 -0.558,0.554 -0.155,0.25 -0.227,0.526 -0.227,0.826 v 2.609 H 7.221 c -0.076,0 -0.131,0.016 -0.16,0.046 -0.033,0.029 -0.047,0.067 -0.047,0.118 0,0.045 0.014,0.08 0.047,0.118 0.029,0.023 0.084,0.034 0.16,0.034 h 1.151 c 0.079,0 0.135,-0.019 0.16,-0.047 0.036,-0.029 0.06,-0.06 0.06,-0.105 0,-0.051 -0.024,-0.089 -0.06,-0.118 -0.025,-0.03 -0.081,-0.046 -0.16,-0.046 H 7.797 v -2.609 c 0,-0.347 0.118,-0.64 0.349,-0.882 0.241,-0.239 0.518,-0.355 0.842,-0.355 0.208,0 0.403,0.048 0.565,0.141 0.174,0.092 0.317,0.237 0.444,0.431 0.135,0.196 0.192,0.418 0.192,0.665 v 2.609 H 9.615 c -0.069,0 -0.125,0.016 -0.156,0.046 -0.034,0.029 -0.047,0.067 -0.047,0.118 0,0.045 0.013,0.076 0.047,0.105 0.031,0.028 0.087,0.047 0.156,0.047 h 1.15 c 0.085,0 0.134,-0.019 0.163,-0.047 0.04,-0.029 0.056,-0.06 0.056,-0.105 0,-0.051 -0.016,-0.089 -0.056,-0.118 -0.029,-0.03 -0.078,-0.046 -0.163,-0.046 z m 4.434,-0.811 v -0.284 l -2.344,-2.635 h 2.116 v 0.436 c 0,0.072 0.017,0.126 0.05,0.154 0.028,0.034 0.063,0.051 0.102,0.051 0.052,0 0.096,-0.017 0.119,-0.051 0.03,-0.028 0.046,-0.082 0.046,-0.154 l -0.01,-0.751 h -2.862 v 0.286 l 2.341,2.623 h -1.948 v -0.424 c 0,-0.069 -0.014,-0.128 -0.047,-0.161 -0.028,-0.03 -0.067,-0.047 -0.104,-0.047 -0.055,0 -0.093,0.017 -0.121,0.047 -0.03,0.033 -0.046,0.092 -0.046,0.161 v 0.749 z m 4.744,-3.234 h -0.402 l -2.307,3.908 v -3.593 h 0.575 c 0.081,0 0.135,-0.009 0.161,-0.04 0.037,-0.028 0.055,-0.07 0.055,-0.12 0,-0.043 -0.018,-0.076 -0.055,-0.106 -0.026,-0.031 -0.08,-0.049 -0.161,-0.049 h -1.147 c -0.084,0 -0.14,0.018 -0.174,0.049 -0.035,0.03 -0.047,0.063 -0.047,0.106 0,0.05 0.012,0.092 0.047,0.12 0.034,0.031 0.09,0.04 0.174,0.04 h 0.259 v 3.73 h -0.425 c -0.069,0 -0.129,0.016 -0.165,0.046 -0.029,0.029 -0.04,0.067 -0.04,0.118 0,0.045 0.011,0.076 0.04,0.105 0.036,0.028 0.096,0.047 0.165,0.047 h 0.823 l 2.308,-3.903 v 3.587 h -0.576 c -0.076,0 -0.135,0.016 -0.172,0.046 -0.029,0.029 -0.04,0.067 -0.04,0.118 0,0.045 0.011,0.076 0.04,0.105 0.037,0.028 0.096,0.047 0.172,0.047 h 1.154 c 0.07,0 0.124,-0.019 0.15,-0.047 0.037,-0.029 0.052,-0.06 0.052,-0.105 0,-0.051 -0.015,-0.089 -0.052,-0.118 -0.026,-0.03 -0.08,-0.046 -0.15,-0.046 h -0.262 z m 2.295,2.1 v -1.785 h 1.069 c 0.074,0 0.125,-0.009 0.151,-0.04 0.038,-0.028 0.055,-0.07 0.055,-0.12 0,-0.043 -0.017,-0.076 -0.055,-0.106 -0.026,-0.031 -0.077,-0.049 -0.151,-0.049 h -1.803 c -0.078,0 -0.136,0.018 -0.173,0.049 -0.024,0.03 -0.036,0.063 -0.036,0.106 0,0.05 0.012,0.092 0.036,0.12 0.037,0.031 0.095,0.04 0.173,0.04 h 0.418 v 3.73 h -0.418 c -0.078,0 -0.136,0.016 -0.173,0.046 -0.024,0.029 -0.036,0.067 -0.036,0.118 0,0.045 0.013,0.08 0.048,0.118 0.034,0.023 0.083,0.034 0.161,0.034 h 3.441 v -1.071 c 0,-0.074 -0.019,-0.129 -0.049,-0.163 -0.022,-0.032 -0.062,-0.047 -0.116,-0.047 -0.044,0 -0.078,0.015 -0.107,0.047 -0.029,0.034 -0.043,0.089 -0.043,0.163 v 0.755 h -2.392 v -1.626 h 1.113 v 0.359 c 0,0.072 0.016,0.122 0.045,0.151 0.026,0.038 0.063,0.057 0.117,0.057 0.041,0 0.077,-0.019 0.111,-0.057 0.029,-0.029 0.04,-0.079 0.04,-0.151 v -1.02 c 0,-0.082 -0.011,-0.138 -0.04,-0.174 -0.034,-0.029 -0.07,-0.042 -0.111,-0.042 -0.054,0 -0.091,0.013 -0.117,0.042 -0.029,0.036 -0.045,0.092 -0.045,0.174 v 0.342 z m 6.7,-2.1 H 28.19 l -0.888,3.102 -0.868,-3.102 h -0.496 l -0.455,4.045 h -0.118 c -0.073,0 -0.129,0.016 -0.164,0.046 -0.029,0.029 -0.041,0.067 -0.041,0.118 0,0.045 0.012,0.076 0.041,0.105 0.035,0.028 0.091,0.047 0.164,0.047 h 1.16 c 0.078,0 0.133,-0.019 0.162,-0.047 0.038,-0.029 0.051,-0.06 0.051,-0.105 0,-0.051 -0.013,-0.089 -0.051,-0.118 -0.029,-0.03 -0.084,-0.046 -0.162,-0.046 h -0.727 l 0.412,-3.682 0.845,3.032 h 0.474 l 0.871,-3.032 0.408,3.682 H 28.07 c -0.07,0 -0.123,0.016 -0.158,0.046 -0.031,0.029 -0.044,0.067 -0.044,0.118 0,0.045 0.013,0.076 0.044,0.105 0.035,0.028 0.088,0.047 0.158,0.047 h 1.162 c 0.074,0 0.121,-0.019 0.152,-0.047 0.04,-0.029 0.052,-0.06 0.052,-0.105 0,-0.051 -0.012,-0.089 -0.052,-0.118 -0.031,-0.03 -0.078,-0.046 -0.152,-0.046 h -0.119 z"
             style="fill:#231f20;fill-opacity:1;fill-rule:nonzero;stroke:none"
             id="path294" /></g><g
           id="g296"
           transform="translate(164.6626,590.9302)"><path
             d="m 0,0 h -2.067 v 0.357 l 1.733,3.001 H 0.311 V 0.316 H 0.573 C 0.652,0.316 0.711,0.301 0.74,0.269 0.771,0.24 0.792,0.2 0.792,0.15 0.792,0.104 0.771,0.07 0.74,0.042 0.711,0.013 0.652,0 0.573,0 H 0.311 V -1 H 0.573 C 0.652,-1 0.711,-1.009 0.74,-1.04 0.771,-1.068 0.792,-1.11 0.792,-1.16 0.792,-1.203 0.771,-1.236 0.74,-1.267 0.711,-1.297 0.652,-1.315 0.573,-1.315 H -0.59 c -0.071,0 -0.132,0.018 -0.17,0.048 -0.03,0.031 -0.043,0.064 -0.043,0.107 0,0.05 0.013,0.092 0.043,0.12 0.038,0.031 0.099,0.04 0.17,0.04 H 0 Z m 0,0.316 v 2.73 H -0.164 L -1.747,0.316 Z M 3.243,0.785 V -1 h 1.075 c 0.069,0 0.121,-0.009 0.154,-0.04 0.034,-0.028 0.054,-0.07 0.054,-0.12 0,-0.043 -0.02,-0.076 -0.054,-0.107 C 4.439,-1.297 4.387,-1.315 4.318,-1.315 H 2.506 c -0.07,0 -0.127,0.018 -0.16,0.048 -0.032,0.031 -0.045,0.064 -0.045,0.107 0,0.05 0.013,0.092 0.045,0.12 0.033,0.031 0.09,0.04 0.16,0.04 H 2.934 V 2.729 H 2.506 c -0.07,0 -0.127,0.017 -0.16,0.046 -0.032,0.03 -0.045,0.068 -0.045,0.119 0,0.044 0.016,0.08 0.054,0.118 0.029,0.023 0.081,0.034 0.151,0.034 H 5.95 V 1.975 C 5.95,1.9 5.943,1.846 5.912,1.812 5.882,1.78 5.841,1.765 5.795,1.765 5.745,1.765 5.709,1.78 5.686,1.812 5.655,1.846 5.641,1.9 5.641,1.975 V 2.729 H 3.243 V 1.104 h 1.116 v 0.359 c 0,0.072 0.014,0.122 0.047,0.151 0.031,0.038 0.067,0.057 0.12,0.057 C 4.565,1.671 4.6,1.652 4.633,1.614 4.661,1.585 4.677,1.535 4.677,1.463 V 0.443 C 4.677,0.361 4.661,0.305 4.633,0.269 4.6,0.24 4.565,0.227 4.526,0.227 4.473,0.227 4.437,0.24 4.406,0.269 4.373,0.305 4.359,0.361 4.359,0.443 v 0.342 z m 6.541,0.56 v 0.574 h 0.736 c 0.083,0 0.131,-0.019 0.168,-0.054 0.025,-0.03 0.036,-0.065 0.036,-0.113 0,-0.039 -0.011,-0.08 -0.036,-0.117 C 10.651,1.61 10.603,1.594 10.52,1.594 H 10.101 V -2.44 h 0.419 c 0.083,0 0.131,-0.012 0.168,-0.045 0.025,-0.023 0.036,-0.064 0.036,-0.105 0,-0.045 -0.011,-0.082 -0.036,-0.114 C 10.651,-2.732 10.603,-2.76 10.52,-2.76 H 9.025 c -0.071,0 -0.126,0.021 -0.164,0.05 -0.025,0.03 -0.04,0.071 -0.04,0.12 0,0.041 0.015,0.082 0.04,0.105 0.038,0.033 0.093,0.045 0.164,0.045 h 0.759 v 1.886 C 9.436,-1.009 8.986,-1.235 8.43,-1.235 c -0.468,0 -0.868,0.162 -1.192,0.474 -0.316,0.327 -0.476,0.714 -0.476,1.162 0,0.449 0.16,0.834 0.476,1.15 0.324,0.32 0.724,0.472 1.192,0.472 0.556,0 1.006,-0.223 1.354,-0.678 m 0,-0.944 c 0,0.364 -0.131,0.669 -0.4,0.921 C 9.122,1.581 8.804,1.713 8.43,1.713 8.053,1.713 7.731,1.581 7.463,1.322 7.208,1.07 7.075,0.765 7.075,0.401 c 0,-0.362 0.133,-0.674 0.388,-0.931 0.268,-0.263 0.59,-0.391 0.967,-0.391 0.374,0 0.692,0.128 0.954,0.391 0.269,0.257 0.4,0.569 0.4,0.931 m 4.019,0.713 c 0.255,-0.129 0.453,-0.298 0.584,-0.507 0.129,-0.203 0.194,-0.427 0.194,-0.66 0,-0.375 -0.143,-0.692 -0.424,-0.969 -0.275,-0.265 -0.607,-0.396 -1.011,-0.396 -0.396,0 -0.731,0.131 -1.014,0.396 -0.278,0.277 -0.412,0.594 -0.412,0.969 0,0.233 0.067,0.457 0.198,0.66 0.135,0.209 0.335,0.378 0.607,0.507 -0.236,0.132 -0.405,0.269 -0.503,0.412 -0.147,0.193 -0.217,0.419 -0.217,0.662 0,0.349 0.132,0.646 0.39,0.903 0.267,0.256 0.585,0.387 0.951,0.387 0.376,0 0.693,-0.131 0.959,-0.387 0.263,-0.257 0.399,-0.554 0.399,-0.903 0,-0.243 -0.069,-0.469 -0.214,-0.662 -0.105,-0.143 -0.268,-0.28 -0.487,-0.412 m 0.383,1.065 c 0,0.267 -0.098,0.5 -0.303,0.692 -0.195,0.194 -0.441,0.291 -0.737,0.291 -0.285,0 -0.531,-0.097 -0.731,-0.291 -0.199,-0.192 -0.3,-0.425 -0.3,-0.692 0,-0.238 0.101,-0.453 0.3,-0.641 0.2,-0.184 0.446,-0.269 0.731,-0.269 0.298,0 0.544,0.085 0.737,0.269 0.205,0.188 0.303,0.403 0.303,0.641 m 0.091,-2.242 c 0,0.268 -0.109,0.51 -0.327,0.712 -0.217,0.209 -0.48,0.313 -0.804,0.313 -0.315,0 -0.583,-0.104 -0.801,-0.313 -0.208,-0.202 -0.309,-0.437 -0.309,-0.702 0,-0.293 0.108,-0.541 0.319,-0.747 0.216,-0.207 0.486,-0.307 0.791,-0.307 0.324,0 0.587,0.1 0.804,0.307 0.218,0.206 0.327,0.452 0.327,0.737 m 4.533,-1.252 h -0.39 l -0.691,2.01 -0.682,-2.01 h -0.395 l -0.637,2.909 h -0.153 c -0.077,0 -0.138,0.016 -0.174,0.041 -0.028,0.037 -0.039,0.078 -0.039,0.117 0,0.048 0.011,0.083 0.039,0.113 0.036,0.035 0.097,0.054 0.174,0.054 h 0.856 c 0.071,0 0.126,-0.019 0.155,-0.054 0.036,-0.03 0.052,-0.065 0.052,-0.113 0,-0.039 -0.016,-0.08 -0.052,-0.117 C 16.844,1.61 16.789,1.594 16.718,1.594 h -0.399 l 0.554,-2.473 0.673,1.977 h 0.365 l 0.695,-1.977 0.528,2.473 h -0.401 c -0.071,0 -0.126,0.016 -0.158,0.041 -0.029,0.037 -0.047,0.078 -0.047,0.117 0,0.048 0.018,0.083 0.047,0.113 0.032,0.035 0.087,0.054 0.158,0.054 h 0.857 c 0.08,0 0.136,-0.019 0.167,-0.054 C 19.789,1.835 19.81,1.8 19.81,1.752 19.81,1.713 19.789,1.672 19.757,1.635 19.726,1.61 19.67,1.594 19.59,1.594 h -0.139 z"
             style="fill:#231f20;fill-opacity:1;fill-rule:nonzero;stroke:none"
             id="path298" /></g><text
           transform="matrix(1,0,0,-1,174.8208,570.5659)"
           style="font-variant:normal;font-weight:normal;font-stretch:normal;font-size:6.948px;font-family:Arial;-inkscape-font-specification:ArialMT;writing-mode:lr-tb;fill:#231f20;fill-opacity:1;fill-rule:nonzero;stroke:none"
           id="text302"><tspan
             x="0 5.4055438"
             y="0"
             id="tspan300">OK</tspan></text><text
           transform="matrix(1,0,0,-1,185.5532,589.7803)"
           style="font-variant:normal;font-weight:normal;font-stretch:normal;font-size:5px;font-family:Courier;-inkscape-font-specification:Courier;writing-mode:lr-tb;fill:#231f20;fill-opacity:1;fill-rule:nonzero;stroke:none"
           id="text306"><tspan
             x="0 3 6"
             y="0"
             id="tspan304">...</tspan></text></g></g></g></svg>
