<svg xmlns="http://www.w3.org/2000/svg" xmlns:xlink="http://www.w3.org/1999/xlink" width="380.14" height="171.14" viewBox="0 0 380.14 171.14">
  <defs>
    <style>
      .cls-1 {
        fill: #f0f0f0;
      }

      .cls-15, .cls-2, .cls-21, .cls-24, .cls-5, .cls-9 {
        fill: none;
      }

      .cls-2 {
        stroke: #4d4d4d;
        stroke-linecap: round;
      }

      .cls-10, .cls-11, .cls-12, .cls-2, .cls-24, .cls-9 {
        stroke-linejoin: round;
      }

      .cls-11, .cls-12, .cls-2, .cls-22, .cls-5, .cls-9 {
        stroke-width: 0.5px;
      }

      .cls-3 {
        font-size: 9px;
        font-family: Humanist521BT-BoldCondensed, Humanst521 Cn BT;
        font-weight: 700;
      }

      .cls-4 {
        letter-spacing: -0.07em;
      }

      .cls-10, .cls-11, .cls-12, .cls-14, .cls-15, .cls-21, .cls-22, .cls-5, .cls-9 {
        stroke: #000;
      }

      .cls-11, .cls-6 {
        fill: #fff;
      }

      .cls-7 {
        fill: url(#linear-gradient);
      }

      .cls-12, .cls-8 {
        fill: #b3e2ee;
      }

      .cls-10 {
        fill: #f0f9fc;
      }

      .cls-10, .cls-14, .cls-15, .cls-21 {
        stroke-width: 0.3px;
      }

      .cls-13 {
        fill: #018335;
      }

      .cls-14, .cls-22 {
        fill: #fffae3;
      }

      .cls-16 {
        fill: url(#linear-gradient-2);
      }

      .cls-17 {
        fill: url(#linear-gradient-3);
      }

      .cls-18 {
        fill: url(#linear-gradient-4);
      }

      .cls-19 {
        fill: url(#linear-gradient-5);
      }

      .cls-20, .cls-28 {
        font-size: 8px;
      }

      .cls-20, .cls-25 {
        font-family: Nimbus Mono PS;
      }

      .cls-21 {
        stroke-miterlimit: 10;
      }

      .cls-23 {
        fill: #fef0e8;
      }

      .cls-24 {
        stroke: #e60001;
      }

      .cls-25 {
        font-size: 7px;
      }

      .cls-26 {
        letter-spacing: 0.15em;
      }

      .cls-27 {
        letter-spacing: 0.1em;
      }

      .cls-28 {
        font-family: ArialMT, Arial;
      }
    </style>
    <linearGradient id="linear-gradient" x1="235.5" y1="816.51" x2="276.29" y2="816.51" gradientTransform="translate(835.81 -344.16) rotate(68.86)" gradientUnits="userSpaceOnUse">
      <stop offset="0" stop-color="#cbd8e2"/>
      <stop offset="1" stop-color="#9aa5b5"/>
    </linearGradient>
    <linearGradient id="linear-gradient-2" x1="289.26" y1="822.51" x2="330.06" y2="822.51" xlink:href="#linear-gradient"/>
    <linearGradient id="linear-gradient-3" x1="272.6" y1="677.02" x2="313.4" y2="677.02" xlink:href="#linear-gradient"/>
    <linearGradient id="linear-gradient-4" x1="219.2" y1="767.08" x2="259.99" y2="767.08" xlink:href="#linear-gradient"/>
    <linearGradient id="linear-gradient-5" x1="323.91" y1="726.03" x2="364.7" y2="726.03" xlink:href="#linear-gradient"/>
  </defs>
  <g id="Layer_2" data-name="Layer 2">
    <path class="cls-1" d="M357.87,186.2c12.11-8.28,5.81-28.45-8.55-26.74-.87-19.41-24.79-25.85-36.94-19.56-7.79-17.9-36.1-20.94-51.71-1.9-6.57-12.34-32.34-17.67-46-5.67-7.34-6.66-22.34-8-33-.34l-.14-.11c-9.13-8.25-34.9-6.35-35.33,17.55-14.12-3.12-22.37,16.33-11.14,25.76-17.33,6.24-18.29,31.86.81,39.1-11.25,10.15-9,42.74,19.85,42.61,2.88,9.41,17.63,18.14,29.94,9.81,7.8,13.79,28.6,9.32,31.91,1.68,12.4,12.53,33,4.4,36.46-10.38h0c11.59,16.11,42.71,11.57,48.47-2.26,11.74,9.46,23.69,19.72,25.87,9.82,31,5,38.32-32.93,27.11-43.48C370.91,216.52,374.5,194.12,357.87,186.2Z" transform="translate(-121.55 -124.52)"/>
    <path class="cls-2" d="M181.53,131.88c-9.13-8.25-34.9-6.35-35.33,17.55-14.12-3.12-22.37,16.33-11.14,25.76-17.33,6.24-18.29,31.86.81,39.1" transform="translate(-121.55 -124.52)"/>
    <path class="cls-2" d="M355.48,222.09a16.11,16.11,0,0,1,4.29,8.26" transform="translate(-121.55 -124.52)"/>
    <path class="cls-2" d="M312.53,139.75c12.32-6.15,35.92.3,36.79,19.71,14.36-1.71,20.66,18.46,8.55,26.74,16.63,7.92,13,30.32-2.39,35.89" transform="translate(-121.55 -124.52)"/>
    <path class="cls-2" d="M260.67,138c14.66-20,46-16.31,52.48,4.28" transform="translate(-121.55 -124.52)"/>
    <path class="cls-2" d="M154.51,251c.74,15.56,19.17,24.15,31.15,15.71,7.8,13.79,28.6,9.32,31.91,1.68,7.62,9,29.93,10.14,36.46-10.38,1.59,3.61,8.22,8.49,14.59,9.11" transform="translate(-121.55 -124.52)"/>
    <path class="cls-2" d="M135.87,214.29c-11.25,10.15-9,42.74,19.85,42.61" transform="translate(-121.55 -124.52)"/>
    <path class="cls-2" d="M214.67,132.33c-17.92-13-34.42-1.08-37,4.48" transform="translate(-121.55 -124.52)"/>
    <path class="cls-2" d="M260.67,138c-4.6-8.65-27.17-19.62-46.17-5.38" transform="translate(-121.55 -124.52)"/>
    <g>
      <path d="M385.24,210.09V204h1.57a3.61,3.61,0,0,1,1.14.14,1.86,1.86,0,0,1,.75.48,2.78,2.78,0,0,1,.67,1.05,4.56,4.56,0,0,1,0,2.8,2.82,2.82,0,0,1-.67,1.05,1.86,1.86,0,0,1-.75.48,3.61,3.61,0,0,1-1.14.14Zm1.37-5V209h.47a.9.9,0,0,0,.81-.51,2.9,2.9,0,0,0,.28-1.42,3,3,0,0,0-.28-1.43.9.9,0,0,0-.81-.51Z" transform="translate(-121.55 -124.52)"/>
      <path d="M390.24,204.58a.72.72,0,0,1,.71-.71.72.72,0,0,1,.5.2.69.69,0,0,1,.2.51.64.64,0,0,1-.2.49.69.69,0,0,1-.5.21.67.67,0,0,1-.5-.21A.65.65,0,0,1,390.24,204.58Zm.1,5.51v-4.16h1.22v4.16Z" transform="translate(-121.55 -124.52)"/>
      <path d="M395.58,209v.8a3.62,3.62,0,0,1-.72.29,2.69,2.69,0,0,1-.67.09,1.89,1.89,0,0,1-1.44-.54,2.24,2.24,0,0,1-.5-1.55,2.48,2.48,0,0,1,.49-1.63,1.63,1.63,0,0,1,1.34-.61,1.44,1.44,0,0,1,1.19.56,2.48,2.48,0,0,1,.44,1.55.46.46,0,0,1,0,.1v.12h-2.17v.05a1.12,1.12,0,0,0,.25.79,1,1,0,0,0,.73.28,2,2,0,0,0,.47-.07A5.42,5.42,0,0,0,395.58,209Zm-2.05-1.41h1v-.05a1.43,1.43,0,0,0-.12-.67.41.41,0,0,0-.39-.22.43.43,0,0,0-.38.21,1.36,1.36,0,0,0-.12.63Z" transform="translate(-121.55 -124.52)"/>
      <path d="M396.33,209.83v-1a3,3,0,0,0,.68.33,1.75,1.75,0,0,0,.58.11.53.53,0,0,0,.32-.09.29.29,0,0,0,.12-.24.28.28,0,0,0-.08-.2.93.93,0,0,0-.32-.2,3.38,3.38,0,0,1-1.12-.69,1.14,1.14,0,0,1-.23-.73,1.18,1.18,0,0,1,.4-.92,1.41,1.41,0,0,1,1-.36,2.53,2.53,0,0,1,.67.1,3.42,3.42,0,0,1,.67.28v.89a3.32,3.32,0,0,0-.69-.33,1.74,1.74,0,0,0-.6-.11.72.72,0,0,0-.33.06.24.24,0,0,0-.1.21c0,.16.17.3.51.44l.27.12a2.34,2.34,0,0,1,.85.58,1.11,1.11,0,0,1,.24.73,1.27,1.27,0,0,1-.41,1,1.75,1.75,0,0,1-1.18.35,2.62,2.62,0,0,1-.61-.08A3.44,3.44,0,0,1,396.33,209.83Z" transform="translate(-121.55 -124.52)"/>
      <path d="M403,209v.8a3.62,3.62,0,0,1-.72.29,2.69,2.69,0,0,1-.67.09,1.89,1.89,0,0,1-1.44-.54,2.24,2.24,0,0,1-.5-1.55,2.48,2.48,0,0,1,.49-1.63,1.63,1.63,0,0,1,1.34-.61,1.44,1.44,0,0,1,1.19.56,2.48,2.48,0,0,1,.44,1.55.46.46,0,0,1,0,.1v.12H401v.05a1.12,1.12,0,0,0,.25.79,1,1,0,0,0,.73.28,2.14,2.14,0,0,0,.48-.07A6.26,6.26,0,0,0,403,209ZM401,207.58h1v-.05a1.43,1.43,0,0,0-.12-.67.41.41,0,0,0-.39-.22.4.4,0,0,0-.37.21,1.23,1.23,0,0,0-.13.63Z" transform="translate(-121.55 -124.52)"/>
      <path d="M403.89,210.09v-4.16h1.17v1.38a3.73,3.73,0,0,1,.5-1.09.74.74,0,0,1,.58-.37,1.16,1.16,0,0,1,.37.07,1.3,1.3,0,0,1,.36.2l-.28,1.11a1,1,0,0,0-.24-.14.69.69,0,0,0-.24-.05c-.3,0-.54.22-.72.65a4.6,4.6,0,0,0-.27,1.74v.66Z" transform="translate(-121.55 -124.52)"/>
      <path d="M409.67,210.09V204H411l1.66,3.35V204h1.29v6.14h-1.19L411,206.58v3.51Z" transform="translate(-121.55 -124.52)"/>
      <path d="M414.59,208a2.3,2.3,0,0,1,.53-1.6,2,2,0,0,1,2.84,0,2.3,2.3,0,0,1,.52,1.6,2.26,2.26,0,0,1-.52,1.58,2.05,2.05,0,0,1-2.84,0A2.27,2.27,0,0,1,414.59,208Zm1.26,0a1.93,1.93,0,0,0,.17.93.58.58,0,0,0,1,0,2,2,0,0,0,.18-.93,1.93,1.93,0,0,0-.18-.94.57.57,0,0,0-1,0A2,2,0,0,0,415.85,208Z" transform="translate(-121.55 -124.52)"/>
      <path d="M421.59,209.72a1.52,1.52,0,0,1-.46.35,1.47,1.47,0,0,1-.56.11,1.42,1.42,0,0,1-1.17-.6A2.53,2.53,0,0,1,419,208a2.64,2.64,0,0,1,.44-1.56,1.31,1.31,0,0,1,1.1-.62,1.56,1.56,0,0,1,.57.1,1.67,1.67,0,0,1,.5.33V204h1.21v6.14h-1.16Zm0-.79v-1.8a1.1,1.1,0,0,0-.3-.21.67.67,0,0,0-.31-.07.62.62,0,0,0-.55.31,1.65,1.65,0,0,0-.2.87,1.6,1.6,0,0,0,.2.87.63.63,0,0,0,.57.31.67.67,0,0,0,.31-.07A.76.76,0,0,0,421.56,208.93Z" transform="translate(-121.55 -124.52)"/>
      <path d="M426.79,209v.8a3.87,3.87,0,0,1-.72.29,2.69,2.69,0,0,1-.67.09,1.89,1.89,0,0,1-1.44-.54,2.24,2.24,0,0,1-.5-1.55,2.48,2.48,0,0,1,.49-1.63,1.63,1.63,0,0,1,1.34-.61,1.44,1.44,0,0,1,1.19.56,2.48,2.48,0,0,1,.44,1.55s0,.05,0,.1v.12h-2.17v.05a1.12,1.12,0,0,0,.25.79,1,1,0,0,0,.73.28,2,2,0,0,0,.47-.07A5.42,5.42,0,0,0,426.79,209Zm-2.05-1.41h1v-.05a1.43,1.43,0,0,0-.12-.67.43.43,0,0,0-.39-.22.42.42,0,0,0-.38.21,1.36,1.36,0,0,0-.12.63Z" transform="translate(-121.55 -124.52)"/>
      <path d="M431.38,212.08a7.33,7.33,0,0,1-1.25-2,5.44,5.44,0,0,1,0-4.24,7.14,7.14,0,0,1,1.25-2h.81a5.94,5.94,0,0,0-.87,1.83,9.42,9.42,0,0,0,0,4.56,6.1,6.1,0,0,0,.87,1.84Z" transform="translate(-121.55 -124.52)"/>
      <path d="M432.2,211a.8.8,0,0,0,.45-.32,1.29,1.29,0,0,0,.13-.68v-4H434v4.39a2,2,0,0,1-.37,1.26,1.75,1.75,0,0,1-1.12.57Zm.48-6.39a.66.66,0,0,1,.21-.5.69.69,0,0,1,.5-.21.73.73,0,0,1,.51.2.69.69,0,0,1,.21.51.65.65,0,0,1-.21.49.71.71,0,0,1-1,0A.67.67,0,0,1,432.68,204.58Z" transform="translate(-121.55 -124.52)"/>
      <path d="M438,209v.8a3.87,3.87,0,0,1-.72.29,2.69,2.69,0,0,1-.67.09,1.89,1.89,0,0,1-1.44-.54,2.24,2.24,0,0,1-.5-1.55,2.48,2.48,0,0,1,.49-1.63,1.62,1.62,0,0,1,1.33-.61,1.44,1.44,0,0,1,1.2.56,2.48,2.48,0,0,1,.43,1.55v.22H436v.05a1.12,1.12,0,0,0,.25.79,1,1,0,0,0,.73.28,2,2,0,0,0,.47-.07A5.42,5.42,0,0,0,438,209ZM436,207.58h1v-.05a1.43,1.43,0,0,0-.12-.67.43.43,0,0,0-.39-.22.42.42,0,0,0-.38.21,1.36,1.36,0,0,0-.12.63Z" transform="translate(-121.55 -124.52)"/>
      <path d="M441.27,209.72a1.31,1.31,0,0,1-.46.35,1.42,1.42,0,0,1-.55.11,1.4,1.4,0,0,1-1.17-.6,2.53,2.53,0,0,1-.45-1.56,2.64,2.64,0,0,1,.44-1.56,1.3,1.3,0,0,1,1.09-.62,1.48,1.48,0,0,1,.57.1,1.59,1.59,0,0,1,.51.33V204h1.21v6.14H441.3Zm0-.79v-1.8a1.1,1.1,0,0,0-.3-.21.7.7,0,0,0-.31-.07.61.61,0,0,0-.55.31,1.65,1.65,0,0,0-.2.87,1.6,1.6,0,0,0,.2.87.62.62,0,0,0,.56.31.64.64,0,0,0,.31-.07A.79.79,0,0,0,441.25,208.93Z" transform="translate(-121.55 -124.52)"/>
      <path d="M446.48,209v.8a4.17,4.17,0,0,1-.72.29,2.71,2.71,0,0,1-.68.09,1.86,1.86,0,0,1-1.43-.54,2.19,2.19,0,0,1-.51-1.55,2.48,2.48,0,0,1,.5-1.63,1.61,1.61,0,0,1,1.33-.61,1.44,1.44,0,0,1,1.2.56,2.48,2.48,0,0,1,.43,1.55v.1s0,.09,0,.12h-2.17v.05a1.12,1.12,0,0,0,.26.79,1,1,0,0,0,.72.28,2.06,2.06,0,0,0,.48-.07A6.31,6.31,0,0,0,446.48,209Zm-2.06-1.41h1v-.05a1.3,1.3,0,0,0-.13-.67.4.4,0,0,0-.38-.22.42.42,0,0,0-.38.21,1.35,1.35,0,0,0-.13.63Z" transform="translate(-121.55 -124.52)"/>
      <path d="M447.33,210.09v-4.16h1.16v1.38a4,4,0,0,1,.5-1.09.76.76,0,0,1,.59-.37,1.27,1.27,0,0,1,.37.07,1.3,1.3,0,0,1,.36.2l-.29,1.11a.79.79,0,0,0-.23-.14.74.74,0,0,0-.25-.05c-.29,0-.53.22-.71.65a4.58,4.58,0,0,0-.28,1.74v.66Z" transform="translate(-121.55 -124.52)"/>
      <path d="M453.11,210.09V204h1.28l1.67,3.35V204h1.28v6.14h-1.18l-1.76-3.51v3.51Z" transform="translate(-121.55 -124.52)"/>
      <path d="M458,208a2.3,2.3,0,0,1,.52-1.6,2,2,0,0,1,2.85,0,2.35,2.35,0,0,1,.52,1.6,2.31,2.31,0,0,1-.52,1.58,2.07,2.07,0,0,1-2.85,0A2.26,2.26,0,0,1,458,208Zm1.25,0a1.91,1.91,0,0,0,.18.93.56.56,0,0,0,.52.32.57.57,0,0,0,.52-.32,2,2,0,0,0,.17-.93,1.82,1.82,0,0,0-.18-.94.57.57,0,0,0-1,0A1.93,1.93,0,0,0,459.28,208Z" transform="translate(-121.55 -124.52)"/>
      <path d="M465,209.72a1.39,1.39,0,0,1-2.18-.14,2.54,2.54,0,0,1-.46-1.56,2.57,2.57,0,0,1,.45-1.56,1.3,1.3,0,0,1,1.09-.62,1.48,1.48,0,0,1,.57.1,1.55,1.55,0,0,1,.5.33V204h1.21v6.14h-1.15Zm0-.79v-1.8a.93.93,0,0,0-.29-.21.71.71,0,0,0-.32-.07.6.6,0,0,0-.54.31,1.56,1.56,0,0,0-.2.87,1.51,1.51,0,0,0,.2.87.62.62,0,0,0,.56.31.64.64,0,0,0,.31-.07A.76.76,0,0,0,465,208.93Z" transform="translate(-121.55 -124.52)"/>
      <path d="M470.22,209v.8a3.79,3.79,0,0,1-.71.29,2.77,2.77,0,0,1-.68.09,1.86,1.86,0,0,1-1.43-.54,2.19,2.19,0,0,1-.51-1.55,2.48,2.48,0,0,1,.5-1.63,1.61,1.61,0,0,1,1.33-.61,1.44,1.44,0,0,1,1.2.56,2.48,2.48,0,0,1,.43,1.55v.1a.57.57,0,0,0,0,.12h-2.17v.05a1.12,1.12,0,0,0,.26.79,1,1,0,0,0,.72.28,2.14,2.14,0,0,0,.48-.07A6.26,6.26,0,0,0,470.22,209Zm-2.05-1.41h1v-.05a1.3,1.3,0,0,0-.13-.67.4.4,0,0,0-.38-.22.41.41,0,0,0-.38.21,1.23,1.23,0,0,0-.13.63Z" transform="translate(-121.55 -124.52)"/>
      <path d="M471.55,203.85a7.14,7.14,0,0,1,1.25,2,5.33,5.33,0,0,1,0,4.24,7.33,7.33,0,0,1-1.25,2h-.8a6.14,6.14,0,0,0,.86-1.83,9.5,9.5,0,0,0,0-4.58,6,6,0,0,0-.86-1.82Z" transform="translate(-121.55 -124.52)"/>
      <path d="M387.51,219.07a1.62,1.62,0,0,1-.54.46,1.35,1.35,0,0,1-.65.14,1,1,0,0,1-.89-.41,2,2,0,0,1-.31-1.2v-2.63h1.21v2.45a1.43,1.43,0,0,0,.11.65.4.4,0,0,0,.37.19.55.55,0,0,0,.38-.15,1.43,1.43,0,0,0,.32-.49v-2.65h1.22v4.16h-1.2Zm-1.83-4.93a.51.51,0,0,1,.5-.5.47.47,0,0,1,.35.15.52.52,0,0,1,.14.35.57.57,0,0,1-.13.36.51.51,0,0,1-.36.14.52.52,0,0,1-.36-.14A.48.48,0,0,1,385.68,214.14Zm1.52,0a.49.49,0,0,1,.15-.35.45.45,0,0,1,.35-.15.45.45,0,0,1,.34.15.49.49,0,0,1,.15.35.52.52,0,0,1-.14.36.48.48,0,0,1-.35.14.48.48,0,0,1-.36-.15A.48.48,0,0,1,387.2,214.14Z" transform="translate(-121.55 -124.52)"/>
      <path d="M389.64,219.59v-6.14h1.21v2.26a1.83,1.83,0,0,1,.49-.27,1.38,1.38,0,0,1,.49-.1A1.4,1.4,0,0,1,393,216a2.53,2.53,0,0,1,.47,1.57,2.42,2.42,0,0,1-.47,1.54,1.48,1.48,0,0,1-1.21.6,1.17,1.17,0,0,1-.49-.11,1.55,1.55,0,0,1-.47-.33l-.07.37Zm1.21-3v1.73a1.05,1.05,0,0,0,.3.24.6.6,0,0,0,.31.08.64.64,0,0,0,.55-.3,1.6,1.6,0,0,0,.19-.85,1.56,1.56,0,0,0-.2-.87.6.6,0,0,0-.54-.31.71.71,0,0,0-.32.07A.93.93,0,0,0,390.85,216.63Z" transform="translate(-121.55 -124.52)"/>
      <path d="M397.25,218.49v.8a3.79,3.79,0,0,1-.71.29,2.77,2.77,0,0,1-.68.09,1.85,1.85,0,0,1-1.43-.54,2.19,2.19,0,0,1-.51-1.55,2.48,2.48,0,0,1,.5-1.63,1.61,1.61,0,0,1,1.33-.61,1.44,1.44,0,0,1,1.2.56,2.48,2.48,0,0,1,.43,1.55v.1a.57.57,0,0,0,0,.12H395.2v.05a1.12,1.12,0,0,0,.26.79.93.93,0,0,0,.72.28,2.14,2.14,0,0,0,.48-.07A6.26,6.26,0,0,0,397.25,218.49Zm-2.05-1.41h1V217a1.41,1.41,0,0,0-.13-.67.4.4,0,0,0-.38-.22.41.41,0,0,0-.38.21,1.23,1.23,0,0,0-.13.63Z" transform="translate(-121.55 -124.52)"/>
      <path d="M398.11,219.59v-4.16h1.16v1.38a3.73,3.73,0,0,1,.5-1.09.74.74,0,0,1,.59-.37,1.15,1.15,0,0,1,.36.07,1.3,1.3,0,0,1,.36.2l-.28,1.11a1,1,0,0,0-.24-.14.69.69,0,0,0-.24-.05c-.3,0-.53.22-.72.65a4.6,4.6,0,0,0-.27,1.74v.66Z" transform="translate(-121.55 -124.52)"/>
      <path d="M401.49,219.59v-4.16h1.2l0,.52a1.62,1.62,0,0,1,.54-.46,1.38,1.38,0,0,1,.65-.15,1,1,0,0,1,.89.42,1.93,1.93,0,0,1,.31,1.2v2.63h-1.22v-2.45a1.28,1.28,0,0,0-.11-.65.37.37,0,0,0-.36-.19.55.55,0,0,0-.38.15,1.39,1.39,0,0,0-.33.49v2.65Z" transform="translate(-121.55 -124.52)"/>
      <path d="M405.88,214.08a.72.72,0,0,1,.71-.71.72.72,0,0,1,.5.2.69.69,0,0,1,.2.51.64.64,0,0,1-.2.49.69.69,0,0,1-.5.21.67.67,0,0,1-.5-.21A.65.65,0,0,1,405.88,214.08Zm.1,5.51v-4.16h1.22v4.16Z" transform="translate(-121.55 -124.52)"/>
      <path d="M408.1,219.59v-4.16h1.19V216a1.84,1.84,0,0,1,.54-.46,1.21,1.21,0,0,1,.6-.15,1.15,1.15,0,0,1,.65.18,1.24,1.24,0,0,1,.44.53,1.84,1.84,0,0,1,.59-.54,1.4,1.4,0,0,1,.68-.17,1,1,0,0,1,.87.42A2,2,0,0,1,414,217v2.63h-1.19v-2.45a1.43,1.43,0,0,0-.11-.65.37.37,0,0,0-.36-.19.56.56,0,0,0-.39.16,1.46,1.46,0,0,0-.29.48v2.65h-1.17v-2.45a1.43,1.43,0,0,0-.11-.65.4.4,0,0,0-.37-.19.54.54,0,0,0-.38.16,1.31,1.31,0,0,0-.29.48v2.65Z" transform="translate(-121.55 -124.52)"/>
      <path d="M414.84,219.59v-4.16H416V216a1.84,1.84,0,0,1,.54-.46,1.21,1.21,0,0,1,.6-.15,1.15,1.15,0,0,1,.65.18,1.24,1.24,0,0,1,.44.53,1.84,1.84,0,0,1,.59-.54,1.4,1.4,0,0,1,.68-.17,1,1,0,0,1,.87.42,2,2,0,0,1,.3,1.2v2.63h-1.2v-2.45a1.43,1.43,0,0,0-.11-.65.37.37,0,0,0-.36-.19.56.56,0,0,0-.39.16,1.46,1.46,0,0,0-.29.48v2.65h-1.17v-2.45a1.43,1.43,0,0,0-.11-.65.39.39,0,0,0-.36-.19.56.56,0,0,0-.39.16,1.46,1.46,0,0,0-.29.48v2.65Z" transform="translate(-121.55 -124.52)"/>
      <path d="M422.71,214.14h.2v1.29H424v.77h-1.1v1.86a.63.63,0,0,0,.11.43.4.4,0,0,0,.34.13,1,1,0,0,0,.26-.05c.1,0,.25-.1.43-.19v.94a2.26,2.26,0,0,1-.58.26,1.9,1.9,0,0,1-.58.09,1.16,1.16,0,0,1-.9-.33,1.53,1.53,0,0,1-.29-1V216.2h-.56V216Z" transform="translate(-121.55 -124.52)"/>
      <path d="M429.31,219.22a1.52,1.52,0,0,1-.46.35,1.47,1.47,0,0,1-.56.11,1.42,1.42,0,0,1-1.17-.6,2.53,2.53,0,0,1-.45-1.56,2.57,2.57,0,0,1,.45-1.56,1.29,1.29,0,0,1,1.09-.62,1.56,1.56,0,0,1,.57.1,1.67,1.67,0,0,1,.5.33v-2.32h1.21v6.14h-1.16Zm0-.79v-1.8a1.1,1.1,0,0,0-.3-.21.67.67,0,0,0-.31-.07.63.63,0,0,0-.55.31,1.65,1.65,0,0,0-.2.87,1.6,1.6,0,0,0,.2.87.64.64,0,0,0,.57.31.67.67,0,0,0,.31-.07A.76.76,0,0,0,429.28,218.43Z" transform="translate(-121.55 -124.52)"/>
      <path d="M431.31,214.08a.69.69,0,0,1,.2-.5.67.67,0,0,1,.5-.21.7.7,0,0,1,.5.2.69.69,0,0,1,.21.51.65.65,0,0,1-.21.49.67.67,0,0,1-.5.21.69.69,0,0,1-.5-.21A.68.68,0,0,1,431.31,214.08Zm.09,5.51v-4.16h1.22v4.16Z" transform="translate(-121.55 -124.52)"/>
      <path d="M436.64,218.49v.8a3.62,3.62,0,0,1-.72.29,2.69,2.69,0,0,1-.67.09,1.85,1.85,0,0,1-1.43-.54,2.19,2.19,0,0,1-.51-1.55,2.48,2.48,0,0,1,.49-1.63,1.63,1.63,0,0,1,1.34-.61,1.44,1.44,0,0,1,1.19.56,2.48,2.48,0,0,1,.44,1.55.46.46,0,0,1,0,.1v.12h-2.17v.05a1.12,1.12,0,0,0,.25.79,1,1,0,0,0,.73.28,2.14,2.14,0,0,0,.48-.07A6.26,6.26,0,0,0,436.64,218.49Zm-2.05-1.41h1V217a1.43,1.43,0,0,0-.12-.67.44.44,0,0,0-.76,0,1.23,1.23,0,0,0-.13.63Z" transform="translate(-121.55 -124.52)"/>
      <path d="M439.88,219.59v-6.14H443v1.08h-1.76v1.37H443V217h-1.71v2.62Z" transform="translate(-121.55 -124.52)"/>
      <path d="M446.21,219.07a1.75,1.75,0,0,1-.55.46,1.33,1.33,0,0,1-.65.14,1,1,0,0,1-.89-.41,2,2,0,0,1-.31-1.2v-2.63H445v2.45a1.43,1.43,0,0,0,.11.65.4.4,0,0,0,.37.19.54.54,0,0,0,.38-.15,1.59,1.59,0,0,0,.33-.49v-2.65h1.22v4.16h-1.2Zm-1.84-4.93a.49.49,0,0,1,.15-.35.49.49,0,0,1,.36-.15.45.45,0,0,1,.34.15.47.47,0,0,1,.14.35.52.52,0,0,1-.13.36.48.48,0,0,1-.35.14.53.53,0,0,1-.37-.14A.52.52,0,0,1,444.37,214.14Zm1.52,0a.49.49,0,0,1,.15-.35.47.47,0,0,1,.35-.15.49.49,0,0,1,.35.15.47.47,0,0,1,.14.35.48.48,0,0,1-.49.5.51.51,0,0,1-.5-.5Z" transform="translate(-121.55 -124.52)"/>
      <path d="M448.33,219.59v-6.14h1.22V216a1.79,1.79,0,0,1,.55-.47,1.47,1.47,0,0,1,.64-.14,1,1,0,0,1,.89.42,1.93,1.93,0,0,1,.31,1.2v2.63h-1.21v-2.45a1.33,1.33,0,0,0-.11-.65.39.39,0,0,0-.37-.19.51.51,0,0,0-.37.15,1.59,1.59,0,0,0-.33.49v2.65Z" transform="translate(-121.55 -124.52)"/>
      <path d="M452.82,219.59v-4.16H454v1.38a3.73,3.73,0,0,1,.5-1.09.73.73,0,0,1,.58-.37,1.16,1.16,0,0,1,.37.07,1.3,1.3,0,0,1,.36.2l-.28,1.11a1,1,0,0,0-.24-.14.69.69,0,0,0-.24-.05c-.3,0-.54.22-.72.65a4.6,4.6,0,0,0-.27,1.74v.66Z" transform="translate(-121.55 -124.52)"/>
      <path d="M458.74,219.07a1.72,1.72,0,0,1-.54.46,1.38,1.38,0,0,1-.65.14,1.05,1.05,0,0,1-.9-.41,2,2,0,0,1-.3-1.2v-2.63h1.2v2.45a1.29,1.29,0,0,0,.12.65.39.39,0,0,0,.37.19.53.53,0,0,0,.37-.15,1.59,1.59,0,0,0,.33-.49v-2.65H460v4.16h-1.2Z" transform="translate(-121.55 -124.52)"/>
      <path d="M460.86,219.59v-4.16h1.19l0,.52a1.75,1.75,0,0,1,.55-.46,1.33,1.33,0,0,1,.65-.15,1,1,0,0,1,.89.42,1.93,1.93,0,0,1,.31,1.2v2.63h-1.22v-2.45a1.4,1.4,0,0,0-.11-.65.37.37,0,0,0-.36-.19.58.58,0,0,0-.39.15,1.72,1.72,0,0,0-.33.49v2.65Z" transform="translate(-121.55 -124.52)"/>
      <path d="M465.87,218.25a1.27,1.27,0,0,1-.53-.52,1.52,1.52,0,0,1-.17-.76,1.41,1.41,0,0,1,.48-1.14,2.09,2.09,0,0,1,1.37-.4h1.81v.75h-.76a1.58,1.58,0,0,1,.27.44,1.44,1.44,0,0,1,.09.53,1.33,1.33,0,0,1-.32.91,1.7,1.7,0,0,1-.95.46,4.08,4.08,0,0,1-.49.07c-.33,0-.49.11-.49.23s.25.22.75.24h.28a2,2,0,0,1,1.17.38,1,1,0,0,1,.44.87,1.11,1.11,0,0,1-.54,1,2.74,2.74,0,0,1-1.52.35,2.65,2.65,0,0,1-1.35-.29,1,1,0,0,1-.49-.83.77.77,0,0,1,.22-.54,1.48,1.48,0,0,1,.63-.37,1.07,1.07,0,0,1-.41-.26.65.65,0,0,1-.13-.39.7.7,0,0,1,.16-.44A1.12,1.12,0,0,1,465.87,218.25Zm1,1.7a1.34,1.34,0,0,0-.68.13.41.41,0,0,0-.22.39.36.36,0,0,0,.21.35,2,2,0,0,0,1.32,0,.42.42,0,0,0,.23-.37.39.39,0,0,0-.21-.37A1.36,1.36,0,0,0,466.91,220Zm-.63-2.9a1.23,1.23,0,0,0,.13.63.45.45,0,0,0,.4.2.43.43,0,0,0,.4-.2,1.14,1.14,0,0,0,.13-.63,1.08,1.08,0,0,0-.13-.62.43.43,0,0,0-.4-.19.44.44,0,0,0-.4.19A1.15,1.15,0,0,0,466.28,217.05Z" transform="translate(-121.55 -124.52)"/>
      <path d="M387.51,228.57a1.62,1.62,0,0,1-.54.46,1.35,1.35,0,0,1-.65.14,1,1,0,0,1-.89-.41,2,2,0,0,1-.31-1.2v-2.63h1.21v2.45a1.43,1.43,0,0,0,.11.65.4.4,0,0,0,.37.19.55.55,0,0,0,.38-.15,1.43,1.43,0,0,0,.32-.49v-2.65h1.22v4.16h-1.2Z" transform="translate(-121.55 -124.52)"/>
      <path d="M389.63,229.09v-4.16h1.2l0,.52a1.62,1.62,0,0,1,.54-.46,1.36,1.36,0,0,1,.65-.15,1,1,0,0,1,.89.42,1.93,1.93,0,0,1,.31,1.2v2.63H392v-2.45a1.28,1.28,0,0,0-.11-.65.37.37,0,0,0-.36-.19.55.55,0,0,0-.38.15,1.39,1.39,0,0,0-.33.49v2.65Z" transform="translate(-121.55 -124.52)"/>
      <path d="M396.53,228.72a1.39,1.39,0,0,1-2.18-.14,2.53,2.53,0,0,1-.45-1.56,2.57,2.57,0,0,1,.44-1.56,1.3,1.3,0,0,1,1.09-.62,1.48,1.48,0,0,1,.57.1,1.7,1.7,0,0,1,.51.33V223h1.2v6.14h-1.15Zm0-.79v-1.8a1.1,1.1,0,0,0-.3-.21.71.71,0,0,0-.32-.07.6.6,0,0,0-.54.31,1.56,1.56,0,0,0-.2.87,1.51,1.51,0,0,0,.2.87.62.62,0,0,0,.56.31.64.64,0,0,0,.31-.07A.79.79,0,0,0,396.51,227.93Z" transform="translate(-121.55 -124.52)"/>
      <path d="M404,228v.8a3.87,3.87,0,0,1-.72.29,2.71,2.71,0,0,1-.68.09,1.88,1.88,0,0,1-1.43-.54,2.24,2.24,0,0,1-.5-1.55,2.48,2.48,0,0,1,.49-1.63,1.63,1.63,0,0,1,1.34-.61,1.44,1.44,0,0,1,1.19.56,2.48,2.48,0,0,1,.44,1.55s0,.05,0,.1v.12H402v.05a1.12,1.12,0,0,0,.25.79,1,1,0,0,0,.73.28,2,2,0,0,0,.47-.07A5.42,5.42,0,0,0,404,228ZM402,226.58h1v-.05a1.43,1.43,0,0,0-.12-.67.43.43,0,0,0-.39-.22.42.42,0,0,0-.38.21,1.36,1.36,0,0,0-.12.63Z" transform="translate(-121.55 -124.52)"/>
      <path d="M404.89,229.09v-4.16h1.16v1.38a4,4,0,0,1,.51-1.09.73.73,0,0,1,.58-.37,1.21,1.21,0,0,1,.37.07,1.3,1.3,0,0,1,.36.2l-.29,1.11a.79.79,0,0,0-.23-.14.69.69,0,0,0-.24-.05c-.3,0-.54.22-.72.65a4.6,4.6,0,0,0-.27,1.74v.66Z" transform="translate(-121.55 -124.52)"/>
      <path d="M408,229.09l1.69-3.22h-1.44v-.94h3.27l-1.7,3.21h1.59v1Z" transform="translate(-121.55 -124.52)"/>
      <path d="M415.14,228v.8a3.62,3.62,0,0,1-.72.29,2.69,2.69,0,0,1-.67.09,1.89,1.89,0,0,1-1.44-.54,2.24,2.24,0,0,1-.5-1.55,2.48,2.48,0,0,1,.49-1.63,1.63,1.63,0,0,1,1.34-.61,1.44,1.44,0,0,1,1.19.56,2.48,2.48,0,0,1,.44,1.55s0,.05,0,.1v.12h-2.17v.05a1.12,1.12,0,0,0,.25.79,1,1,0,0,0,.73.28,2,2,0,0,0,.47-.07A5.42,5.42,0,0,0,415.14,228Zm-2.05-1.41h1v-.05a1.43,1.43,0,0,0-.12-.67.43.43,0,0,0-.39-.22.42.42,0,0,0-.38.21,1.36,1.36,0,0,0-.12.63Z" transform="translate(-121.55 -124.52)"/>
      <path d="M418.35,228.57a1.72,1.72,0,0,1-.54.46,1.38,1.38,0,0,1-.65.14,1.05,1.05,0,0,1-.9-.41,2,2,0,0,1-.3-1.2v-2.63h1.2v2.45a1.29,1.29,0,0,0,.12.65.38.38,0,0,0,.37.19.53.53,0,0,0,.37-.15,1.59,1.59,0,0,0,.33-.49v-2.65h1.22v4.16h-1.2Z" transform="translate(-121.55 -124.52)"/>
      <path d="M421,227.75a1.27,1.27,0,0,1-.53-.52,1.53,1.53,0,0,1-.18-.76,1.42,1.42,0,0,1,.49-1.14,2.09,2.09,0,0,1,1.37-.4H424v.75h-.77a1.42,1.42,0,0,1,.28.44,1.44,1.44,0,0,1,.08.53,1.28,1.28,0,0,1-.32.91,1.67,1.67,0,0,1-1,.46,3.61,3.61,0,0,1-.48.07c-.33,0-.5.11-.5.23s.25.22.76.24h.28a2,2,0,0,1,1.17.38,1.07,1.07,0,0,1,.44.87,1.11,1.11,0,0,1-.54,1,2.74,2.74,0,0,1-1.52.35,2.65,2.65,0,0,1-1.35-.29.93.93,0,0,1-.49-.83.73.73,0,0,1,.22-.54,1.37,1.37,0,0,1,.63-.37,1,1,0,0,1-.41-.26.59.59,0,0,1-.13-.39.65.65,0,0,1,.16-.44A1.12,1.12,0,0,1,421,227.75Zm1,1.7a1.32,1.32,0,0,0-.67.13.41.41,0,0,0-.23.39.36.36,0,0,0,.22.35,2,2,0,0,0,1.32,0,.41.41,0,0,0,.22-.37.39.39,0,0,0-.21-.37A1.34,1.34,0,0,0,422,229.45Zm-.62-2.9a1.14,1.14,0,0,0,.13.63.44.44,0,0,0,.4.2.43.43,0,0,0,.4-.2,1.25,1.25,0,0,0,.12-.63,1.18,1.18,0,0,0-.12-.62.43.43,0,0,0-.4-.19.44.44,0,0,0-.4.19A1.15,1.15,0,0,0,421.41,226.55Z" transform="translate(-121.55 -124.52)"/>
      <path d="M430,228v.8a3.87,3.87,0,0,1-.72.29,2.71,2.71,0,0,1-.68.09,1.88,1.88,0,0,1-1.43-.54,2.24,2.24,0,0,1-.5-1.55,2.48,2.48,0,0,1,.49-1.63,1.62,1.62,0,0,1,1.33-.61,1.44,1.44,0,0,1,1.2.56,2.48,2.48,0,0,1,.44,1.55s0,.05,0,.1v.12h-2.17v.05a1.12,1.12,0,0,0,.25.79,1,1,0,0,0,.73.28,2,2,0,0,0,.47-.07A5.42,5.42,0,0,0,430,228Zm-2.05-1.41h1v-.05a1.43,1.43,0,0,0-.12-.67.43.43,0,0,0-.39-.22.42.42,0,0,0-.38.21,1.36,1.36,0,0,0-.12.63Z" transform="translate(-121.55 -124.52)"/>
      <path d="M430.74,223.58a.72.72,0,0,1,.71-.71.72.72,0,0,1,.5.2.69.69,0,0,1,.2.51.64.64,0,0,1-.2.49.69.69,0,0,1-.5.21.67.67,0,0,1-.5-.21A.65.65,0,0,1,430.74,223.58Zm.1,5.51v-4.16h1.22v4.16Z" transform="translate(-121.55 -124.52)"/>
      <path d="M433,229.09v-4.16h1.2l0,.52a1.84,1.84,0,0,1,.54-.46,1.4,1.4,0,0,1,.66-.15,1,1,0,0,1,.89.42,2,2,0,0,1,.31,1.2v2.63h-1.22v-2.45a1.4,1.4,0,0,0-.11-.65.4.4,0,0,0-.37-.19.57.57,0,0,0-.38.15,1.72,1.72,0,0,0-.33.49v2.65Z" transform="translate(-121.55 -124.52)"/>
      <path d="M440.56,228v.8a3.62,3.62,0,0,1-.72.29,2.69,2.69,0,0,1-.67.09,1.85,1.85,0,0,1-1.43-.54,2.19,2.19,0,0,1-.51-1.55,2.48,2.48,0,0,1,.49-1.63,1.63,1.63,0,0,1,1.34-.61,1.44,1.44,0,0,1,1.19.56,2.48,2.48,0,0,1,.44,1.55.46.46,0,0,1,0,.1v.12h-2.17v.05a1.12,1.12,0,0,0,.25.79,1,1,0,0,0,.73.28,2.14,2.14,0,0,0,.48-.07A6.26,6.26,0,0,0,440.56,228Zm-2.05-1.41h1v-.05a1.43,1.43,0,0,0-.12-.67.44.44,0,0,0-.76,0,1.23,1.23,0,0,0-.13.63Z" transform="translate(-121.55 -124.52)"/>
      <path d="M441.4,229.09v-4.16h1.2l0,.52a1.75,1.75,0,0,1,.55-.46,1.33,1.33,0,0,1,.65-.15,1,1,0,0,1,.89.42,2,2,0,0,1,.31,1.2v2.63H443.8v-2.45a1.4,1.4,0,0,0-.11-.65.37.37,0,0,0-.36-.19.58.58,0,0,0-.39.15,1.72,1.72,0,0,0-.33.49v2.65Z" transform="translate(-121.55 -124.52)"/>
      <path d="M448.19,229.09v-4.16h1.2l0,.52A1.62,1.62,0,0,1,450,225a1.38,1.38,0,0,1,.65-.15,1,1,0,0,1,.89.42,1.93,1.93,0,0,1,.31,1.2v2.63h-1.22v-2.45a1.28,1.28,0,0,0-.11-.65.37.37,0,0,0-.36-.19.55.55,0,0,0-.38.15,1.39,1.39,0,0,0-.33.49v2.65Z" transform="translate(-121.55 -124.52)"/>
      <path d="M455.79,228v.8a3.87,3.87,0,0,1-.72.29,2.71,2.71,0,0,1-.68.09,1.88,1.88,0,0,1-1.43-.54,2.19,2.19,0,0,1-.5-1.55,2.48,2.48,0,0,1,.49-1.63,1.63,1.63,0,0,1,1.34-.61,1.44,1.44,0,0,1,1.19.56,2.48,2.48,0,0,1,.44,1.55s0,.05,0,.1v.12h-2.17v.05a1.12,1.12,0,0,0,.25.79,1,1,0,0,0,.73.28,2,2,0,0,0,.47-.07A5.42,5.42,0,0,0,455.79,228Zm-2.05-1.41h1v-.05a1.3,1.3,0,0,0-.13-.67.4.4,0,0,0-.38-.22.42.42,0,0,0-.38.21,1.36,1.36,0,0,0-.12.63Z" transform="translate(-121.55 -124.52)"/>
      <path d="M459,228.57a1.84,1.84,0,0,1-.54.46,1.39,1.39,0,0,1-.66.14,1,1,0,0,1-.89-.41,2,2,0,0,1-.3-1.2v-2.63h1.2v2.45a1.29,1.29,0,0,0,.12.65.38.38,0,0,0,.37.19.53.53,0,0,0,.37-.15,1.59,1.59,0,0,0,.33-.49v-2.65h1.22v4.16H459Z" transform="translate(-121.55 -124.52)"/>
      <path d="M464.23,228v.8a3.62,3.62,0,0,1-.72.29,2.69,2.69,0,0,1-.67.09,1.89,1.89,0,0,1-1.44-.54,2.24,2.24,0,0,1-.5-1.55,2.48,2.48,0,0,1,.49-1.63,1.63,1.63,0,0,1,1.34-.61,1.44,1.44,0,0,1,1.19.56,2.48,2.48,0,0,1,.44,1.55.46.46,0,0,1,0,.1v.12h-2.17v.05a1.12,1.12,0,0,0,.25.79,1,1,0,0,0,.73.28,2,2,0,0,0,.47-.07A5.42,5.42,0,0,0,464.23,228Zm-2.05-1.41h1v-.05a1.43,1.43,0,0,0-.12-.67.41.41,0,0,0-.39-.22.43.43,0,0,0-.38.21,1.36,1.36,0,0,0-.12.63Z" transform="translate(-121.55 -124.52)"/>
      <path d="M465.07,229.09v-4.16h1.2l0,.52a1.75,1.75,0,0,1,.55-.46,1.33,1.33,0,0,1,.65-.15,1,1,0,0,1,.89.42,2,2,0,0,1,.31,1.2v2.63h-1.22v-2.45a1.4,1.4,0,0,0-.11-.65.39.39,0,0,0-.37-.19.57.57,0,0,0-.38.15,1.72,1.72,0,0,0-.33.49v2.65Z" transform="translate(-121.55 -124.52)"/>
      <path d="M472,229.09V223h1.89a2.08,2.08,0,0,1,1.39.41,1.41,1.41,0,0,1,.5,1.15,1.37,1.37,0,0,1-.18.72,1.65,1.65,0,0,1-.58.52,1.69,1.69,0,0,1,.71.63,1.61,1.61,0,0,1,.24.88,1.73,1.73,0,0,1-.54,1.37,2.36,2.36,0,0,1-1.58.46Zm1.33-3.67h.23a1.07,1.07,0,0,0,.66-.17.69.69,0,0,0,.19-.56.63.63,0,0,0-.74-.74h-.34Zm0,2.68h.43a.82.82,0,0,0,.61-.21.91.91,0,0,0,.2-.64.81.81,0,0,0-.22-.64.94.94,0,0,0-.68-.21h-.34Z" transform="translate(-121.55 -124.52)"/>
      <path d="M476.72,229.09V223h1.22v6.14Z" transform="translate(-121.55 -124.52)"/>
      <path d="M478.64,227a2.3,2.3,0,0,1,.52-1.6,2,2,0,0,1,2.85,0,2.35,2.35,0,0,1,.52,1.6,2.26,2.26,0,0,1-.52,1.58,2.07,2.07,0,0,1-2.85,0A2.26,2.26,0,0,1,478.64,227Zm1.25,0a1.91,1.91,0,0,0,.18.93.57.57,0,0,0,.52.32.58.58,0,0,0,.52-.32,2,2,0,0,0,.18-.93,2.05,2.05,0,0,0-.18-.94.58.58,0,0,0-.52-.33.56.56,0,0,0-.52.33A1.93,1.93,0,0,0,479.89,227Z" transform="translate(-121.55 -124.52)"/>
      <path d="M486.11,228.9a2.55,2.55,0,0,1-.56.21,2.67,2.67,0,0,1-.56.06,1.89,1.89,0,0,1-1.46-.58A2.22,2.22,0,0,1,483,227a2.26,2.26,0,0,1,.55-1.59,1.84,1.84,0,0,1,1.45-.59,2.31,2.31,0,0,1,.52.06,3.72,3.72,0,0,1,.54.21v1a3.31,3.31,0,0,0-.47-.19,1.42,1.42,0,0,0-.38-.06.81.81,0,0,0-.68.32,1.32,1.32,0,0,0-.26.86,1.29,1.29,0,0,0,.26.85.87.87,0,0,0,.7.31,1.53,1.53,0,0,0,.4-.07,3.16,3.16,0,0,0,.49-.22Z" transform="translate(-121.55 -124.52)"/>
      <path d="M486.8,229.09V223H488v4l1.15-2h1.28l-1.17,2,1.34,2.16h-1.36l-1.24-2v2Z" transform="translate(-121.55 -124.52)"/>
    </g>
    <text class="cls-3" transform="translate(283.89 143.6)">Zwei neue <tspan class="cls-4" x="37.43" y="0">T</tspan><tspan x="40.87" y="0">ransaktionen</tspan><tspan x="0" y="9.5">gehen in den neuen Block.</tspan></text>
    <text class="cls-3" transform="translate(263.18 10.87)">Alle Nodes verifizieren den neuen<tspan x="0" y="9.5">Block und hängen ihn an</tspan><tspan x="0" y="19">ihre Blockchain.</tspan></text>
    <line class="cls-5" x1="102.05" y1="21.29" x2="193.28" y2="42.84"/>
    <line class="cls-5" x1="183.96" y1="61.17" x2="155.55" y2="116.33"/>
    <line class="cls-5" x1="75.77" y1="111.16" x2="149.74" y2="111.14"/>
    <g>
      <g>
        <path class="cls-6" d="M179,171.14H150.29a.44.44,0,0,0-.44.44v24.36a.44.44,0,0,0,.44.44H179a.44.44,0,0,0,.44-.44V171.58A.44.44,0,0,0,179,171.14Z" transform="translate(-121.55 -124.52)"/>
        <path class="cls-7" d="M179.39,195.94a.44.44,0,0,1-.44.44H150.29a.44.44,0,0,1-.44-.44V172.1a.44.44,0,0,1,.44-.44H179a.44.44,0,0,1,.44.44Z" transform="translate(-121.55 -124.52)"/>
        <path class="cls-8" d="M179.39,195.94a.44.44,0,0,1-.44.44H150.29a.44.44,0,0,1-.44-.44V172.1a.44.44,0,0,1,.44-.44H179a.44.44,0,0,1,.44.44Z" transform="translate(-121.55 -124.52)"/>
        <path class="cls-9" d="M179,171.14H150.29a.44.44,0,0,0-.44.44v24.36a.44.44,0,0,0,.44.44H179a.44.44,0,0,0,.44-.44V171.58A.44.44,0,0,0,179,171.14Z" transform="translate(-121.55 -124.52)"/>
        <rect class="cls-10" x="30.01" y="48.59" width="26.11" height="20.09"/>
        <polyline class="cls-11" points="62.37 71.22 57.7 70.18 28.3 70.18 23.76 71.22"/>
        <path class="cls-12" d="M145.31,195.74s.87,1.92,1.88,1.92h34.86c.92,0,1.88-1.92,1.88-1.92Z" transform="translate(-121.55 -124.52)"/>
      </g>
      <g>
        <path class="cls-13" d="M171.41,179.31a7.67,7.67,0,1,1-10.42-3A7.68,7.68,0,0,1,171.41,179.31Z" transform="translate(-121.55 -124.52)"/>
        <g>
          <path class="cls-6" d="M159.88,185.1c-.87-1.7-1.42-3,.54-4.1s2.77.09,3.75,1.74l.51.93c1,1.75,1.54,3.1-.47,4.21s-2.85-.09-3.82-1.84ZM162,186c.3.54.83,1.4,1.67.93s.39-1.38,0-2l-.92-1.69c-.29-.52-.91-1.7-1.82-1.2s-.25,1.64,0,2.14Z" transform="translate(-121.55 -124.52)"/>
          <path class="cls-6" d="M167.39,185.93l-3.62-6.57,1.23-.67,1.6,2.91h0a16.64,16.64,0,0,1-.1-2l0-1.73,1.39-.77-.07,3.71,3.76,2.82-1.38.76-2.58-2,0,1,1,1.88Z" transform="translate(-121.55 -124.52)"/>
        </g>
      </g>
    </g>
    <g>
      <path class="cls-14" d="M185.64,192.67V204.8H174.09V189.36h8.65a3.49,3.49,0,0,1,1.78,1.11A3.4,3.4,0,0,1,185.64,192.67Z" transform="translate(-121.55 -124.52)"/>
      <path class="cls-15" d="M182.74,189.36v2.39s1.53,0,2.17,0a.7.7,0,0,1,.65.45" transform="translate(-121.55 -124.52)"/>
    </g>
    <g>
      <g>
        <path class="cls-6" d="M192.73,223.46H164.08a.44.44,0,0,0-.44.44v24.35a.45.45,0,0,0,.44.45h28.65a.45.45,0,0,0,.44-.45V223.9A.43.43,0,0,0,192.73,223.46Z" transform="translate(-121.55 -124.52)"/>
        <path class="cls-16" d="M193.17,248.25a.45.45,0,0,1-.44.45H164.08a.45.45,0,0,1-.44-.45V224.41a.44.44,0,0,1,.44-.44h28.65a.44.44,0,0,1,.44.44Z" transform="translate(-121.55 -124.52)"/>
        <path class="cls-8" d="M193.17,248.25a.45.45,0,0,1-.44.45H164.08a.45.45,0,0,1-.44-.45V224.41a.44.44,0,0,1,.44-.44h28.65a.44.44,0,0,1,.44.44Z" transform="translate(-121.55 -124.52)"/>
        <path class="cls-9" d="M192.73,223.46H164.08a.44.44,0,0,0-.44.44v24.35a.45.45,0,0,0,.44.45h28.65a.45.45,0,0,0,.44-.45V223.9A.43.43,0,0,0,192.73,223.46Z" transform="translate(-121.55 -124.52)"/>
        <rect class="cls-10" x="43.79" y="100.91" width="26.12" height="20.09"/>
        <polyline class="cls-11" points="76.16 123.53 71.49 122.5 42.09 122.5 37.55 123.53"/>
        <path class="cls-12" d="M159.09,248.05S160,250,161,250h34.87c.92,0,1.88-1.92,1.88-1.92Z" transform="translate(-121.55 -124.52)"/>
      </g>
      <g>
        <path class="cls-13" d="M185.2,231.62a7.67,7.67,0,1,1-10.42-3A7.67,7.67,0,0,1,185.2,231.62Z" transform="translate(-121.55 -124.52)"/>
        <g>
          <path class="cls-6" d="M173.66,237.41c-.86-1.7-1.42-3,.54-4.09s2.78.09,3.75,1.73l.52.94c1,1.75,1.54,3.1-.47,4.21s-2.85-.1-3.82-1.85Zm2.12.86c.3.54.83,1.4,1.67.94s.39-1.39,0-2l-.93-1.68c-.29-.53-.9-1.71-1.81-1.2s-.25,1.63,0,2.14Z" transform="translate(-121.55 -124.52)"/>
          <path class="cls-6" d="M181.18,238.24l-3.62-6.57,1.22-.67,1.61,2.91h0a14.81,14.81,0,0,1-.1-2l0-1.73,1.38-.76-.06,3.71,3.76,2.81-1.38.76-2.59-1.95,0,.94,1,1.88Z" transform="translate(-121.55 -124.52)"/>
        </g>
      </g>
    </g>
    <g>
      <path class="cls-14" d="M199.45,245v12.12H187.9V241.69h8.65a3.48,3.48,0,0,1,1.78,1.12A3.4,3.4,0,0,1,199.45,245Z" transform="translate(-121.55 -124.52)"/>
      <path class="cls-15" d="M196.55,241.69v2.39s1.53,0,2.17,0a.72.72,0,0,1,.65.45" transform="translate(-121.55 -124.52)"/>
    </g>
    <line class="cls-5" x1="61.53" y1="58.84" x2="159.93" y2="111.7"/>
    <g>
      <g>
        <path class="cls-6" d="M322.42,155.44H293.77a.44.44,0,0,0-.44.44v24.35a.45.45,0,0,0,.44.45h28.65a.45.45,0,0,0,.44-.45V155.88A.44.44,0,0,0,322.42,155.44Z" transform="translate(-121.55 -124.52)"/>
        <path class="cls-17" d="M322.86,180.23a.45.45,0,0,1-.44.45H293.77a.45.45,0,0,1-.44-.45V156.4a.44.44,0,0,1,.44-.44h28.65a.44.44,0,0,1,.44.44Z" transform="translate(-121.55 -124.52)"/>
        <path class="cls-8" d="M322.86,180.23a.45.45,0,0,1-.44.45H293.77a.45.45,0,0,1-.44-.45V156.4a.44.44,0,0,1,.44-.44h28.65a.44.44,0,0,1,.44.44Z" transform="translate(-121.55 -124.52)"/>
        <path class="cls-9" d="M322.42,155.44H293.77a.44.44,0,0,0-.44.44v24.35a.45.45,0,0,0,.44.45h28.65a.45.45,0,0,0,.44-.45V155.88A.44.44,0,0,0,322.42,155.44Z" transform="translate(-121.55 -124.52)"/>
        <rect class="cls-10" x="173.49" y="32.89" width="26.11" height="20.09"/>
        <polyline class="cls-11" points="205.85 55.51 201.18 54.48 171.78 54.48 167.24 55.51"/>
        <path class="cls-12" d="M288.79,180s.87,1.92,1.87,1.92h34.87c.92,0,1.88-1.92,1.88-1.92Z" transform="translate(-121.55 -124.52)"/>
      </g>
      <g>
        <path class="cls-13" d="M314.88,163.61a7.66,7.66,0,1,1-10.41-3A7.65,7.65,0,0,1,314.88,163.61Z" transform="translate(-121.55 -124.52)"/>
        <g>
          <path class="cls-6" d="M303.36,169.4c-.87-1.7-1.43-3,.54-4.1s2.77.09,3.74,1.73l.52.94c1,1.75,1.54,3.1-.47,4.21s-2.85-.09-3.82-1.85Zm2.11.85c.3.55.83,1.41,1.67.94s.39-1.39,0-2l-.93-1.68c-.29-.52-.9-1.7-1.81-1.2s-.25,1.63,0,2.14Z" transform="translate(-121.55 -124.52)"/>
          <path class="cls-6" d="M310.87,170.22l-3.62-6.56,1.22-.68,1.61,2.92h0a14.89,14.89,0,0,1-.1-2l0-1.74,1.38-.76-.06,3.71,3.76,2.81-1.38.77-2.59-2,0,.95,1,1.88Z" transform="translate(-121.55 -124.52)"/>
        </g>
      </g>
    </g>
    <g>
      <path class="cls-14" d="M328.17,177.35v12.13H316.62V174h8.66a3.48,3.48,0,0,1,1.77,1.12A3.38,3.38,0,0,1,328.17,177.35Z" transform="translate(-121.55 -124.52)"/>
      <path class="cls-15" d="M325.28,174v2.39s1.52,0,2.16,0a.7.7,0,0,1,.65.45" transform="translate(-121.55 -124.52)"/>
    </g>
    <g>
      <g>
        <path class="cls-6" d="M219.17,138.11H190.51a.44.44,0,0,0-.44.44V162.9a.45.45,0,0,0,.44.45h28.66a.45.45,0,0,0,.44-.45V138.55A.44.44,0,0,0,219.17,138.11Z" transform="translate(-121.55 -124.52)"/>
        <path class="cls-18" d="M219.61,162.9a.45.45,0,0,1-.44.45H190.51a.45.45,0,0,1-.44-.45V139.07a.44.44,0,0,1,.44-.44h28.66a.44.44,0,0,1,.44.44Z" transform="translate(-121.55 -124.52)"/>
        <path class="cls-8" d="M219.61,162.9a.45.45,0,0,1-.44.45H190.51a.45.45,0,0,1-.44-.45V139.07a.44.44,0,0,1,.44-.44h28.66a.44.44,0,0,1,.44.44Z" transform="translate(-121.55 -124.52)"/>
        <path class="cls-9" d="M219.17,138.11H190.51a.44.44,0,0,0-.44.44V162.9a.45.45,0,0,0,.44.45h28.66a.45.45,0,0,0,.44-.45V138.55A.44.44,0,0,0,219.17,138.11Z" transform="translate(-121.55 -124.52)"/>
        <rect class="cls-10" x="70.23" y="15.56" width="26.12" height="20.09"/>
        <polyline class="cls-11" points="102.59 38.18 97.93 37.15 68.52 37.15 63.98 38.18"/>
        <path class="cls-12" d="M185.53,162.7s.87,1.93,1.88,1.93h34.86c.92,0,1.88-1.93,1.88-1.93Z" transform="translate(-121.55 -124.52)"/>
      </g>
      <g>
        <path class="cls-13" d="M211.63,146.28a7.67,7.67,0,1,1-10.42-3A7.66,7.66,0,0,1,211.63,146.28Z" transform="translate(-121.55 -124.52)"/>
        <g>
          <path class="cls-6" d="M200.1,152.07c-.87-1.7-1.42-3,.54-4.1s2.77.09,3.75,1.73l.51.94c1,1.75,1.54,3.1-.47,4.21s-2.85-.1-3.82-1.85Zm2.11.85c.3.54.83,1.41,1.67.94s.39-1.39,0-2l-.92-1.68c-.29-.52-.91-1.7-1.82-1.2s-.25,1.63,0,2.14Z" transform="translate(-121.55 -124.52)"/>
          <path class="cls-6" d="M207.61,152.89,204,146.33l1.23-.68,1.6,2.92h0a16.74,16.74,0,0,1-.1-2l0-1.74,1.39-.76-.07,3.71,3.76,2.81-1.38.76-2.58-2,0,1,1,1.88Z" transform="translate(-121.55 -124.52)"/>
        </g>
      </g>
    </g>
    <g>
      <path class="cls-14" d="M225.34,161.13v12.13H213.79V157.82h8.65a3.48,3.48,0,0,1,1.78,1.12A3.38,3.38,0,0,1,225.34,161.13Z" transform="translate(-121.55 -124.52)"/>
      <path class="cls-15" d="M222.44,157.82v2.39s1.52,0,2.17,0a.7.7,0,0,1,.65.45" transform="translate(-121.55 -124.52)"/>
    </g>
    <g>
      <path class="cls-14" d="M187.57,194.6v12.13H176V191.29h8.66a3.48,3.48,0,0,1,1.77,1.12A3.38,3.38,0,0,1,187.57,194.6Z" transform="translate(-121.55 -124.52)"/>
      <path class="cls-15" d="M184.68,191.29v2.39s1.52,0,2.16,0a.74.74,0,0,1,.66.45" transform="translate(-121.55 -124.52)"/>
    </g>
    <g>
      <path class="cls-14" d="M201.38,246.94v12.13H189.83V243.62h8.66a3.48,3.48,0,0,1,1.77,1.12A3.4,3.4,0,0,1,201.38,246.94Z" transform="translate(-121.55 -124.52)"/>
      <path class="cls-15" d="M198.49,243.62V246s1.52,0,2.16,0a.72.72,0,0,1,.65.45" transform="translate(-121.55 -124.52)"/>
    </g>
    <g>
      <path class="cls-14" d="M330.11,179.29v12.13H318.55V176h8.66a3.48,3.48,0,0,1,1.77,1.12A3.38,3.38,0,0,1,330.11,179.29Z" transform="translate(-121.55 -124.52)"/>
      <path class="cls-15" d="M327.21,176v2.39s1.52,0,2.17,0a.74.74,0,0,1,.65.45" transform="translate(-121.55 -124.52)"/>
    </g>
    <g>
      <path class="cls-14" d="M227.27,163.07V175.2H215.72V159.75h8.65a3.48,3.48,0,0,1,1.78,1.12A3.4,3.4,0,0,1,227.27,163.07Z" transform="translate(-121.55 -124.52)"/>
      <path class="cls-15" d="M224.37,159.75v2.39s1.53,0,2.17,0a.72.72,0,0,1,.65.45" transform="translate(-121.55 -124.52)"/>
    </g>
    <g>
      <path class="cls-14" d="M332,181.22v12.13H320.49V177.9h8.65a3.44,3.44,0,0,1,1.77,1.12A3.38,3.38,0,0,1,332,181.22Z" transform="translate(-121.55 -124.52)"/>
      <path class="cls-15" d="M329.14,177.9v2.39s1.52,0,2.17,0a.74.74,0,0,1,.65.45" transform="translate(-121.55 -124.52)"/>
    </g>
    <g>
      <path class="cls-14" d="M229.2,165v12.13H217.65V161.68h8.66a3.48,3.48,0,0,1,1.77,1.12A3.4,3.4,0,0,1,229.2,165Z" transform="translate(-121.55 -124.52)"/>
      <path class="cls-15" d="M226.31,161.68v2.4s1.52,0,2.16,0a.72.72,0,0,1,.66.44" transform="translate(-121.55 -124.52)"/>
    </g>
    <g>
      <g>
        <path class="cls-6" d="M295.22,221H266.57a.44.44,0,0,0-.44.44v24.35a.45.45,0,0,0,.44.45h28.65a.45.45,0,0,0,.44-.45V221.41A.44.44,0,0,0,295.22,221Z" transform="translate(-121.55 -124.52)"/>
        <path class="cls-19" d="M295.66,245.76a.45.45,0,0,1-.44.45H266.57a.45.45,0,0,1-.44-.45V221.93a.44.44,0,0,1,.44-.44h28.65a.44.44,0,0,1,.44.44Z" transform="translate(-121.55 -124.52)"/>
        <path class="cls-8" d="M295.66,245.76a.45.45,0,0,1-.44.45H266.57a.45.45,0,0,1-.44-.45V221.93a.44.44,0,0,1,.44-.44h28.65a.44.44,0,0,1,.44.44Z" transform="translate(-121.55 -124.52)"/>
        <path class="cls-9" d="M295.22,221H266.57a.44.44,0,0,0-.44.44v24.35a.45.45,0,0,0,.44.45h28.65a.45.45,0,0,0,.44-.45V221.41A.44.44,0,0,0,295.22,221Z" transform="translate(-121.55 -124.52)"/>
        <rect class="cls-10" x="146.28" y="98.42" width="26.11" height="20.09"/>
        <polyline class="cls-11" points="178.65 121.04 173.98 120.01 144.58 120.01 140.04 121.04"/>
        <path class="cls-12" d="M261.58,245.56s.88,1.93,1.88,1.93h34.87c.92,0,1.88-1.93,1.88-1.93Z" transform="translate(-121.55 -124.52)"/>
      </g>
      <g>
        <path class="cls-13" d="M287.69,229.14a7.67,7.67,0,1,1-10.42-3A7.66,7.66,0,0,1,287.69,229.14Z" transform="translate(-121.55 -124.52)"/>
        <g>
          <path class="cls-6" d="M276.15,234.93c-.86-1.7-1.42-3,.54-4.1s2.78.09,3.75,1.73l.52.94c1,1.75,1.54,3.1-.48,4.21s-2.85-.1-3.81-1.85Zm2.12.85c.3.54.83,1.4,1.67.94s.39-1.39,0-2l-.93-1.68c-.29-.52-.9-1.7-1.81-1.2s-.25,1.63,0,2.14Z" transform="translate(-121.55 -124.52)"/>
          <path class="cls-6" d="M283.67,235.75l-3.62-6.56,1.22-.68,1.61,2.92h0a13.47,13.47,0,0,1-.1-2l0-1.74,1.38-.76-.06,3.71,3.76,2.81-1.39.76-2.58-1.95,0,.95,1,1.88Z" transform="translate(-121.55 -124.52)"/>
        </g>
      </g>
    </g>
    <g>
      <path class="cls-14" d="M203.32,248.87V261H191.76V245.56h8.66a4.31,4.31,0,0,1,2.9,3.31Z" transform="translate(-121.55 -124.52)"/>
      <path class="cls-15" d="M200.42,245.56V248s1.52,0,2.17,0a.72.72,0,0,1,.65.45" transform="translate(-121.55 -124.52)"/>
    </g>
    <g>
      <path class="cls-14" d="M189.51,196.54v12.13H178V193.22h8.65a3.48,3.48,0,0,1,1.77,1.12A3.38,3.38,0,0,1,189.51,196.54Z" transform="translate(-121.55 -124.52)"/>
      <path class="cls-15" d="M186.61,193.22v2.39s1.52,0,2.17,0a.74.74,0,0,1,.65.45" transform="translate(-121.55 -124.52)"/>
    </g>
    <path class="cls-11" d="M181.53,183.11a21.63,21.63,0,0,1,1.44,1.62l1.19-2.22c-.26,0-1.29-.14-2.14-.31a14.86,14.86,0,0,1-2.19-.59A14.43,14.43,0,0,1,181.53,183.11Z" transform="translate(-121.55 -124.52)"/>
    <path class="cls-11" d="M222.28,145a19.6,19.6,0,0,0,2.14-.26l-.58,2.46A18.55,18.55,0,0,0,222,146a17,17,0,0,0-2-1A13.74,13.74,0,0,0,222.28,145Z" transform="translate(-121.55 -124.52)"/>
    <path class="cls-11" d="M195.84,235.16c.83-.25,1.37-.48,2-.74v2.52a18.12,18.12,0,0,0-2-.75,15,15,0,0,0-2.2-.51A15,15,0,0,0,195.84,235.16Z" transform="translate(-121.55 -124.52)"/>
    <path class="cls-11" d="M306.65,184.61c-.15.85-.19,1.43-.26,2.15l-2.24-1.16a19.82,19.82,0,0,0,1.59-1.46,15.35,15.35,0,0,0,1.47-1.73A14.91,14.91,0,0,0,306.65,184.61Z" transform="translate(-121.55 -124.52)"/>
    <text class="cls-20" transform="translate(98.84 44.11)">Y<tspan x="0" y="7">X</tspan></text>
    <text class="cls-20" transform="translate(72.95 127.99)">Y<tspan x="0" y="7">X</tspan></text>
    <text class="cls-20" transform="translate(59.14 75.65)">Y<tspan x="0" y="7">X</tspan></text>
    <text class="cls-20" transform="translate(201.67 60.33)">Y<tspan x="0" y="7">X</tspan></text>
    <g>
      <path class="cls-21" d="M384.62,271.5c5.44,0,13.13-7,18.89-7" transform="translate(-121.55 -124.52)"/>
      <polygon points="263.62 148.84 260.38 146.97 263.62 145.1 263.62 148.84"/>
    </g>
    <g>
      <path class="cls-21" d="M327.26,164c15-3,39.49-10.5,54.25-22" transform="translate(-121.55 -124.52)"/>
      <polygon points="206.6 41.19 203.06 40 205.87 37.53 206.6 41.19"/>
    </g>
    <g>
      <path class="cls-21" d="M340,231.5c4.7-19.46,23-48.8,41.5-55.84" transform="translate(-121.55 -124.52)"/>
      <polygon points="220.39 106.88 217.81 109.59 216.75 106 220.39 106.88"/>
    </g>
    <g>
      <path class="cls-21" d="M302,225c22.33-13.33,57-20.67,80.13-18.29" transform="translate(-121.55 -124.52)"/>
      <polygon points="181.87 101.79 178.13 101.85 179.95 98.58 181.87 101.79"/>
    </g>
    <g>
      <path class="cls-21" d="M384.62,254.75c6.33,0,14.84,9.75,18.89,9.75" transform="translate(-121.55 -124.52)"/>
      <polygon points="263.62 132.09 260.38 130.22 263.62 128.35 263.62 132.09"/>
    </g>
    <text class="cls-3" transform="translate(263.14 54.05)">Bitcoin Ledger<tspan x="0" y="9.5">(die Blockchain)</tspan></text>
    <g>
      <path class="cls-21" d="M224.76,138.5C282.25,120,364.84,142,381.51,142" transform="translate(-121.55 -124.52)"/>
      <polygon points="104.29 15.58 100.64 14.79 103.15 12.02 104.29 15.58"/>
    </g>
    <g>
      <g>
        <path class="cls-14" d="M263.76,148.24v16H248.51V143.86h11.42a4.61,4.61,0,0,1,2.34,1.48A4.45,4.45,0,0,1,263.76,148.24Z" transform="translate(-121.55 -124.52)"/>
        <path class="cls-15" d="M259.93,143.86V147s2,0,2.86,0a.94.94,0,0,1,.86.59" transform="translate(-121.55 -124.52)"/>
      </g>
      <text class="cls-20" transform="translate(131.97 29.31)">Y<tspan x="0" y="7">X</tspan></text>
    </g>
    <g>
      <g>
        <path class="cls-14" d="M227,196.1v16H211.7V191.72h11.42a4.65,4.65,0,0,1,2.35,1.48A4.47,4.47,0,0,1,227,196.1Z" transform="translate(-121.55 -124.52)"/>
        <path class="cls-15" d="M223.12,191.72v3.16s2,0,2.86,0a.94.94,0,0,1,.86.59" transform="translate(-121.55 -124.52)"/>
      </g>
      <text class="cls-20" transform="translate(95.17 77.17)">Y<tspan x="0" y="7">X</tspan></text>
    </g>
    <g>
      <g>
        <path class="cls-14" d="M303.63,197.43v16H288.38V193.06h11.43a4.57,4.57,0,0,1,2.34,1.47A4.49,4.49,0,0,1,303.63,197.43Z" transform="translate(-121.55 -124.52)"/>
        <path class="cls-15" d="M299.81,193.06v3.15s2,0,2.86,0a1,1,0,0,1,.86.59" transform="translate(-121.55 -124.52)"/>
      </g>
      <text class="cls-20" transform="translate(171.85 78.51)">Y<tspan x="0" y="7">X</tspan></text>
    </g>
    <g>
      <g>
        <path class="cls-14" d="M240.46,230.85v16H225.22V226.47h11.42A4.65,4.65,0,0,1,239,228,4.47,4.47,0,0,1,240.46,230.85Z" transform="translate(-121.55 -124.52)"/>
        <path class="cls-15" d="M236.64,226.47v3.16s2,0,2.86,0a.94.94,0,0,1,.86.59" transform="translate(-121.55 -124.52)"/>
      </g>
      <text class="cls-20" transform="translate(108.68 111.92)">Y<tspan x="0" y="7">X</tspan></text>
    </g>
    <g>
      <path class="cls-21" d="M337.5,182.5c15-9.25,31.37-12,44-6.84" transform="translate(-121.55 -124.52)"/>
      <polygon points="217.39 59.27 213.65 59.38 215.42 56.09 217.39 59.27"/>
    </g>
    <g>
      <g>
        <path class="cls-22" d="M374.1,243.52v46H289.44v-53.4h78.23s1.61.18,3.94,2.49A7.52,7.52,0,0,1,374.1,243.52Z" transform="translate(-121.55 -124.52)"/>
        <path class="cls-5" d="M367.67,236.15v5.32s3.38-.07,4.81,0a1.59,1.59,0,0,1,1.45,1" transform="translate(-121.55 -124.52)"/>
      </g>
      <g>
        <path class="cls-22" d="M377,246.45v46H292.37v-53.4h78.22s1.61.18,4,2.49A7.52,7.52,0,0,1,377,246.45Z" transform="translate(-121.55 -124.52)"/>
        <path class="cls-5" d="M370.59,239.08v5.32s3.39-.07,4.82,0a1.59,1.59,0,0,1,1.45,1" transform="translate(-121.55 -124.52)"/>
      </g>
      <g>
        <path class="cls-22" d="M380,249.38v46H295.3V242h78.22s1.61.18,4,2.49A7.52,7.52,0,0,1,380,249.38Z" transform="translate(-121.55 -124.52)"/>
        <path class="cls-5" d="M373.52,242v5.32s3.39-.07,4.82,0a1.59,1.59,0,0,1,1.45,1" transform="translate(-121.55 -124.52)"/>
      </g>
    </g>
    <g>
      <g>
        <rect class="cls-23" x="176.57" y="141.83" width="79" height="11.24" rx="2"/>
        <rect class="cls-24" x="176.57" y="141.83" width="79" height="11.24" rx="2"/>
      </g>
      <text class="cls-25" transform="translate(178.75 149.56)">1 Alice<tspan class="cls-26" x="29.41" y="0"> </tspan><tspan x="34.66" y="0">Bob</tspan></text>
      <g>
        <path d="M360.05,273c0,.21-.1.32-.26.32a.56.56,0,0,1-.21,0,3.09,3.09,0,0,0,.26,1.14.3.3,0,0,1-.13.21.47.47,0,0,1-.26.08.6.6,0,0,1-.27-.07,1.08,1.08,0,0,1-.08-.5c0-.06,0-.17,0-.33v-.33a.62.62,0,0,0,0-.24,1.12,1.12,0,0,0-.25,0l-.24,0a11.72,11.72,0,0,0-1.35.12,3.36,3.36,0,0,0-1.21.28,1.85,1.85,0,0,0-.19.72c0,.35-.08.62-.09.78a.15.15,0,0,1-.14.07.44.44,0,0,1-.29-.13.34.34,0,0,1-.16-.25.83.83,0,0,1,.08-.27c.05-.14.08-.22.09-.26a13,13,0,0,1,.65-2.45q1.32-3.75,2-3.75c.51,0,.91.65,1.19,2,.1.46.22,1.34.35,2.64a1,1,0,0,0,.3.11C360,272.84,360.05,272.89,360.05,273Zm-1-.29c-.17-1.17-.27-1.88-.32-2.13-.22-1.12-.46-1.68-.7-1.67s-.61.53-1,1.54l-.69,1.92a2.19,2.19,0,0,0-.13.39c0,.16,0,.24.14.24s.25,0,.61-.1S357.94,272.75,359.07,272.68Z" transform="translate(-121.55 -124.52)"/>
        <path d="M361.53,274.76c0,.18-.1.26-.28.26s-.44-.6-.43-1.81l0-4.49a1.45,1.45,0,0,0,0-.31,2.39,2.39,0,0,1,0-.31.61.61,0,0,1,.32-.14.53.53,0,0,1,.28.1.28.28,0,0,1,.14.24,1,1,0,0,1,0,.26c-.05.13-.07.22-.08.25a11.57,11.57,0,0,0-.12,1.9c0,1.31,0,2,0,1.9a10.67,10.67,0,0,0,.16,1.85.33.33,0,0,0,.05.14A.41.41,0,0,1,361.53,274.76Z" transform="translate(-121.55 -124.52)"/>
        <path d="M363.15,271a2.46,2.46,0,0,1-.09.54,3,3,0,0,0-.08.54v2.21a2.31,2.31,0,0,0,.1.6c0,.06-.06.08-.11.08-.33,0-.49-.16-.49-.47v-3.67a.48.48,0,0,1,.5,0C363.09,270.83,363.15,270.88,363.15,271Zm.19-1.5c0,.23-.11.34-.32.34a.54.54,0,0,1-.35-.14.43.43,0,0,1-.16-.32.3.3,0,0,1,.34-.34.49.49,0,0,1,.35.13A.45.45,0,0,1,363.34,269.45Z" transform="translate(-121.55 -124.52)"/>
        <path d="M367.38,273.82a1.08,1.08,0,0,1-.41.65,1.76,1.76,0,0,1-.67.48,1.86,1.86,0,0,1-.58.11,1.3,1.3,0,0,1-1.12-.53,1.94,1.94,0,0,1-.36-1.22,5.35,5.35,0,0,1,.33-1.73c.28-.79.61-1.18,1-1.18a1.71,1.71,0,0,1,.78.29c.31.19.49.37.53.54a2.6,2.6,0,0,1,.07.61c0,.73-.11,1.1-.33,1.1a.45.45,0,0,1-.19-.06c-.07,0-.11-.08-.11-.14a.16.16,0,0,1,0-.1c0-.05.05-.07.05-.09a2.46,2.46,0,0,0,0-.6c0-.74-.17-1.11-.5-1.11s-.67.34-.9,1a4.87,4.87,0,0,0-.26,1.49,2.16,2.16,0,0,0,.17.9.75.75,0,0,0,.71.47,1.19,1.19,0,0,0,.68-.3,1.75,1.75,0,0,0,.52-.58c0-.06.07-.16.12-.28a.16.16,0,0,1,.14-.07s.09,0,.14.14A.45.45,0,0,1,367.38,273.82Z" transform="translate(-121.55 -124.52)"/>
        <path d="M371.21,273.87a1,1,0,0,1-.59.79,1.86,1.86,0,0,1-1,.32c-.89,0-1.34-.57-1.34-1.7a5.37,5.37,0,0,1,.27-1.61c.24-.75.54-1.12.92-1.12a1.66,1.66,0,0,1,1,.49,1.31,1.31,0,0,1,.57,1,1.45,1.45,0,0,1-.5,1.08,1.61,1.61,0,0,1-1.13.46.7.7,0,0,1-.25-.1,1,1,0,0,0-.27-.1c-.09,0-.13,0-.13.08,0,.77.25,1.15.76,1.15a1.1,1.1,0,0,0,.72-.26,2.57,2.57,0,0,0,.44-.47c.13-.17.21-.25.25-.25S371.21,273.68,371.21,273.87Zm-.69-1.84a1.11,1.11,0,0,0-.2-.65.6.6,0,0,0-.53-.31.76.76,0,0,0-.65.5,1.92,1.92,0,0,0-.21.87.71.71,0,0,0,.18.49.65.65,0,0,0,.48.19.8.8,0,0,0,.68-.35A1.14,1.14,0,0,0,370.52,272Z" transform="translate(-121.55 -124.52)"/>
      </g>
      <path d="M332.47,270.7a5.22,5.22,0,0,0,1.79,1.45v.18a5.22,5.22,0,0,0-.86.55,8.16,8.16,0,0,0-.95.94h-.33a4.84,4.84,0,0,1,.85-1.35h-2.52V272H333a7.3,7.3,0,0,1-.47-.59c-.07-.15-.2-.39-.38-.73Z" transform="translate(-121.55 -124.52)"/>
    </g>
    <g>
      <g>
        <rect class="cls-23" x="176.57" y="125.13" width="79" height="11.24" rx="2"/>
        <rect class="cls-24" x="176.57" y="125.13" width="79" height="11.24" rx="2"/>
      </g>
      <text class="cls-25" transform="translate(178.75 132.86)">5 Wilma<tspan class="cls-27" x="29.41" y="0"> </tspan><tspan x="34.31" y="0">Lisa</tspan></text>
      <g>
        <path d="M360.75,253.55a11.83,11.83,0,0,1-.31,2.59c-.31,1.28-.72,1.93-1.22,1.93s-.64-.25-.81-.73a6.15,6.15,0,0,1-.27-1.49,11.42,11.42,0,0,0-.15-1.26l-.4,1.8c-.27,1.24-.58,1.86-.94,1.86a.74.74,0,0,1-.56-.28,5.85,5.85,0,0,1-.6-2.72c-.09-1-.13-2.1-.13-3.16,0-.41.15-.61.46-.61a.84.84,0,0,1,.41.13v.27a.29.29,0,0,0-.2.11.71.71,0,0,0-.08.33,3.63,3.63,0,0,0,0,.47v.38a23.26,23.26,0,0,0,.13,2.5c.13,1.22.31,1.84.56,1.84s.27-.25.44-.76a7.72,7.72,0,0,0,.27-1,14.75,14.75,0,0,0,.36-2.88s0-.1.13-.17a.4.4,0,0,1,.2-.1.69.69,0,0,1,.41.15.46.46,0,0,1,.2.36,1.79,1.79,0,0,0-.18.92,14.92,14.92,0,0,0,.13,2c.13,1,.33,1.46.6,1.46s.64-.59.86-1.77a12.63,12.63,0,0,0,.24-2.27,2.88,2.88,0,0,0-.1-.87c-.06-.14-.11-.28-.16-.43a1.23,1.23,0,0,1-.1-.42c0-.36.1-.53.27-.53s.33.33.44,1A10.43,10.43,0,0,1,360.75,253.55Z" transform="translate(-121.55 -124.52)"/>
        <path d="M362.42,254.25a3,3,0,0,1-.08.54,2.46,2.46,0,0,0-.09.54v2.21a2.38,2.38,0,0,0,.1.6.12.12,0,0,1-.11.08.43.43,0,0,1-.49-.47v-3.67a.48.48,0,0,1,.5,0C362.37,254.12,362.42,254.18,362.42,254.25Zm.19-1.5a.3.3,0,0,1-.32.34.52.52,0,0,1-.35-.14.42.42,0,0,1-.16-.32.3.3,0,0,1,.34-.34.47.47,0,0,1,.34.13A.37.37,0,0,1,362.61,252.75Z" transform="translate(-121.55 -124.52)"/>
        <path d="M364.25,258.06c0,.17-.09.26-.28.26s-.44-.6-.43-1.81l0-4.49a2.36,2.36,0,0,0,0-.32,2.44,2.44,0,0,1,0-.3.54.54,0,0,1,.32-.14.46.46,0,0,1,.28.1.28.28,0,0,1,.14.24.77.77,0,0,1-.05.26,1.45,1.45,0,0,0-.07.25A11.49,11.49,0,0,0,364,254c0,1.31,0,1.94,0,1.9a10.77,10.77,0,0,0,.16,1.85.4.4,0,0,0,0,.13A.35.35,0,0,1,364.25,258.06Z" transform="translate(-121.55 -124.52)"/>
        <path d="M369.74,258.23a.76.76,0,0,1-.32.13.47.47,0,0,1-.2-.07v-1.08q0-3.09-.63-3.09c-.25,0-.46.32-.65,1a4.69,4.69,0,0,0-.22,1.3v1a.91.91,0,0,0,0,.22.79.79,0,0,1,0,.22c0,.05,0,.1-.11.16a.37.37,0,0,1-.19.08c-.06,0-.12,0-.2-.13a.36.36,0,0,1-.11-.21v-2a4,4,0,0,0-.11-.81c-.09-.42-.21-.62-.34-.62s-.18.09-.33.28a3.7,3.7,0,0,0-.75,2.36c0,.11,0,.28,0,.5a4,4,0,0,1,0,.5c0,.2-.08.3-.25.3a.26.26,0,0,1-.21-.1,1.85,1.85,0,0,1-.09-.45c0-.24-.05-.4-.05-.49v-2.36q0-1,.24-1a.32.32,0,0,1,.21.09.28.28,0,0,1,.1.2,2.52,2.52,0,0,1-.06.55c0,.29-.06.47-.07.55l.05.05c.13-.29.25-.58.38-.86s.4-.55.64-.55.65.37.9,1.12a2,2,0,0,0,.25-.5,2.19,2.19,0,0,1,.27-.54.6.6,0,0,1,.48-.24.88.88,0,0,1,.59.36,3.44,3.44,0,0,1,.61,2.35Z" transform="translate(-121.55 -124.52)"/>
        <path d="M373.75,258.45c0,.09-.07.14-.22.14a.28.28,0,0,1-.29-.2s0-.15,0-.39a.35.35,0,0,0,0-.16,2,2,0,0,1-1.21.41,1.74,1.74,0,0,1-.87-.25.82.82,0,0,1-.48-.7c0-.28.19-.54.57-.8a1.74,1.74,0,0,1,1-.36h1a.29.29,0,0,0,.06-.21,3.23,3.23,0,0,0-.11-1,.7.7,0,0,0-.71-.57.89.89,0,0,0-.7.48,1.55,1.55,0,0,0-.29.84v.11c0,.05,0,.08-.08.08a.35.35,0,0,1-.22-.12.33.33,0,0,1-.12-.21,2.05,2.05,0,0,1,.17-.71,2.3,2.3,0,0,1,.37-.64.83.83,0,0,1,.62-.27,1.71,1.71,0,0,1,1.05.36,1.16,1.16,0,0,1,.52.94Zm-.53-1.59c0-.27-.21-.4-.62-.4a1.94,1.94,0,0,0-.86.17.71.71,0,0,0-.47.66.48.48,0,0,0,.25.42,1,1,0,0,0,.5.13,1.42,1.42,0,0,0,.82-.28A.85.85,0,0,0,373.22,256.86Z" transform="translate(-121.55 -124.52)"/>
      </g>
      <path d="M332.09,254a5.28,5.28,0,0,0,1.78,1.44v.19a5,5,0,0,0-.86.55,8,8,0,0,0-.94.93h-.34a5.27,5.27,0,0,1,.85-1.34h-2.52v-.45h2.52c-.21-.26-.36-.46-.46-.6s-.21-.38-.39-.72Z" transform="translate(-121.55 -124.52)"/>
    </g>
    <text class="cls-28" transform="translate(155.13 134.05)">Y</text>
    <line class="cls-15" x1="162.82" y1="130.77" x2="176.07" y2="130.77"/>
    <text class="cls-28" transform="translate(155.13 150.72)">X</text>
    <line class="cls-15" x1="162.82" y1="147.42" x2="176.07" y2="147.42"/>
  </g>
</svg>
