<svg xmlns="http://www.w3.org/2000/svg" width="303.63" height="209.34" viewBox="0 0 303.63 209.34">
  <defs>
    <style>
      .cls-1 {
        fill: #f2f2f2;
      }

      .cls-1, .cls-2 {
        stroke: #a6a6a6;
      }

      .cls-1, .cls-10, .cls-11, .cls-2, .cls-3, .cls-7 {
        stroke-miterlimit: 10;
      }

      .cls-1, .cls-11, .cls-2, .cls-3 {
        stroke-width: 0.5px;
      }

      .cls-10, .cls-11, .cls-12, .cls-2, .cls-3, .cls-4, .cls-7 {
        fill: none;
      }

      .cls-3 {
        stroke: #999;
      }

      .cls-11, .cls-12, .cls-4, .cls-7 {
        stroke: #000;
      }

      .cls-4 {
        stroke-linejoin: round;
      }

      .cls-4, .cls-7 {
        stroke-width: 0.3px;
      }

      .cls-5 {
        font-size: 7px;
      }

      .cls-5, .cls-6 {
        font-family: ArialMT, Arial;
      }

      .cls-6 {
        font-size: 8px;
      }

      .cls-8 {
        font-size: 9px;
        font-family: Humanist521BT-BoldCondensed, Humanst521 Cn BT;
        font-weight: 700;
      }

      .cls-9 {
        letter-spacing: -0.05em;
      }

      .cls-10 {
        stroke: #0862a9;
      }

      .cls-12 {
        stroke-dasharray: 3 2;
      }
    </style>
  </defs>
  <g id="Layer_2" data-name="Layer 2">
    <rect class="cls-1" x="26.55" y="16.99" width="276.83" height="167.64"/>
    <line class="cls-2" x1="26.37" y1="160.68" x2="303.38" y2="160.68"/>
    <line class="cls-2" x1="159.48" y1="86.83" x2="159.48" y2="184.42"/>
    <line class="cls-2" x1="158.06" y1="16.5" x2="158.06" y2="67.17"/>
    <line class="cls-2" x1="32.23" y1="16.74" x2="32.23" y2="184.66"/>
    <line class="cls-2" x1="95.86" y1="16.5" x2="95.86" y2="184.42"/>
    <line class="cls-2" x1="223.11" y1="17.1" x2="223.11" y2="184.18"/>
    <line class="cls-2" x1="286.73" y1="16.02" x2="286.73" y2="184.45"/>
    <line class="cls-2" x1="26.37" y1="136.74" x2="303.38" y2="136.74"/>
    <line class="cls-2" x1="26.37" y1="112.79" x2="303.38" y2="112.79"/>
    <line class="cls-2" x1="148.57" y1="88.84" x2="303.38" y2="88.84"/>
    <line class="cls-2" x1="26.37" y1="88.84" x2="123.73" y2="88.84"/>
    <line class="cls-2" x1="26.37" y1="64.89" x2="303.38" y2="64.89"/>
    <line class="cls-2" x1="26.37" y1="40.94" x2="303.38" y2="40.94"/>
    <line class="cls-3" x1="26.37" y1="16.99" x2="303.38" y2="16.99"/>
    <g>
      <path class="cls-4" d="M272,197.5c-13-1.9-34,.48-46.51-9.91" transform="translate(-147.77 -125.5)"/>
      <polygon points="79.4 61.05 75.74 60.27 76.89 63.83 79.4 61.05"/>
    </g>
    <g>
      <path class="cls-4" d="M272,197.5c-19.34,0-57.28,20.35-67.06,25.78" transform="translate(-147.77 -125.5)"/>
      <polygon points="56.77 95.91 54.84 99.11 58.58 99.19 56.77 95.91"/>
    </g>
    <text class="cls-5" transform="translate(24.45 193.83)">2010</text>
    <text class="cls-5" transform="translate(18.36 187.32)">0</text>
    <text class="cls-5" transform="translate(18.36 163.31)">3</text>
    <text class="cls-5" transform="translate(18.36 139.29)">6</text>
    <text class="cls-5" transform="translate(18.36 115.28)">9</text>
    <text class="cls-5" transform="translate(14.46 91.26)">12</text>
    <text class="cls-5" transform="translate(14.46 67.24)">15</text>
    <text class="cls-5" transform="translate(14.46 43.23)">18</text>
    <text class="cls-5" transform="translate(14.46 19.21)">21</text>
    <text class="cls-5" transform="translate(88.07 193.83)">2020</text>
    <text class="cls-6" transform="translate(26.37 6.87)">Bitcoins Geldmenge</text>
    <text class="cls-5" transform="translate(151.7 193.83)">2030</text>
    <text class="cls-6" transform="translate(156.45 206.74)">Jahr</text>
    <text class="cls-6" transform="translate(6.87 131.45) rotate(-90)">Millionen bitcoins</text>
    <text class="cls-5" transform="translate(215.32 193.83)">2040</text>
    <text class="cls-5" transform="translate(278.95 193.83)">2050</text>
    <g>
      <path class="cls-7" d="M365.67,147.33c9,10.34,34.66,7.67,34.66,17.67" transform="translate(-147.77 -125.5)"/>
      <polygon points="216.86 23.47 216.14 19.8 219.68 21.01 216.86 23.47"/>
    </g>
    <g>
      <path class="cls-7" d="M249,167.25c13.5,15,10.5,26.75,23,30.25" transform="translate(-147.77 -125.5)"/>
      <polygon points="100.22 43.4 99.44 39.74 103 40.9 100.22 43.4"/>
    </g>
    <text class="cls-8" transform="translate(126.76 74.71)"><tspan class="cls-9">W</tspan><tspan x="7.56" y="0">achstum der</tspan><tspan x="0" y="9.5">Geldmenge halbiert</tspan><tspan x="0" y="19">sich alle vier Jahre</tspan></text>
    <text class="cls-8" transform="translate(230.14 50.31)">Übersteigt nie<tspan x="0" y="9.5">21,000,000</tspan></text>
    <polyline class="cls-10" points="26.55 184.63 33.99 159.87 40.55 136.74 47.43 112.79 51.05 100.8 70.36 64.89 73.47 58.91 98.61 37.95 122.45 27.83 148.2 22.12 174.3 19.62 200.95 18.24 270.74 17.45 303.11 17.45"/>
    <polyline class="cls-11" points="26.36 16.74 26.36 184.63 303.38 184.63"/>
    <line class="cls-12" x1="26.37" y1="16.99" x2="303.38" y2="16.99"/>
  </g>
</svg>
