<?xml version="1.0" encoding="UTF-8" standalone="no"?>
<svg
   xmlns:dc="http://purl.org/dc/elements/1.1/"
   xmlns:cc="http://creativecommons.org/ns#"
   xmlns:rdf="http://www.w3.org/1999/02/22-rdf-syntax-ns#"
   xmlns:svg="http://www.w3.org/2000/svg"
   xmlns="http://www.w3.org/2000/svg"
   xmlns:sodipodi="http://sodipodi.sourceforge.net/DTD/sodipodi-0.dtd"
   xmlns:inkscape="http://www.inkscape.org/namespaces/inkscape"
   version="1.1"
   id="svg2"
   xml:space="preserve"
   width="314.694"
   height="154.16864"
   viewBox="0 0 314.694 154.16864"
   sodipodi:docname="u01-08.ai"><metadata
     id="metadata8"><rdf:RDF><cc:Work
         rdf:about=""><dc:format>image/svg+xml</dc:format><dc:type
           rdf:resource="http://purl.org/dc/dcmitype/StillImage" /></cc:Work></rdf:RDF></metadata><defs
     id="defs6"><linearGradient
       x1="0"
       y1="0"
       x2="1"
       y2="0"
       gradientUnits="userSpaceOnUse"
       gradientTransform="matrix(0,-4.9152527,-4.9152527,0,286.42041,558.68457)"
       spreadMethod="pad"
       id="linearGradient28"><stop
         style="stop-opacity:1;stop-color:#a4c7d6"
         offset="0"
         id="stop24" /><stop
         style="stop-opacity:1;stop-color:#ffffff"
         offset="1"
         id="stop26" /></linearGradient><linearGradient
       x1="0"
       y1="0"
       x2="1"
       y2="0"
       gradientUnits="userSpaceOnUse"
       gradientTransform="matrix(0,-19.463638,-19.463638,0,287.32373,592.38379)"
       spreadMethod="pad"
       id="linearGradient48"><stop
         style="stop-opacity:1;stop-color:#f7d353"
         offset="0"
         id="stop44" /><stop
         style="stop-opacity:1;stop-color:#f5b842"
         offset="1"
         id="stop46" /></linearGradient><clipPath
       clipPathUnits="userSpaceOnUse"
       id="clipPath58"><path
         d="M 0,792 H 612 V 0 H 0 Z"
         id="path56" /></clipPath><linearGradient
       x1="0"
       y1="0"
       x2="1"
       y2="0"
       gradientUnits="userSpaceOnUse"
       gradientTransform="matrix(0,-3.2690277,-3.2690277,0,225.91162,561.46631)"
       spreadMethod="pad"
       id="linearGradient134"><stop
         style="stop-opacity:1;stop-color:#95c6d6"
         offset="0"
         id="stop128" /><stop
         style="stop-opacity:1;stop-color:#e1eef3"
         offset="0.845749"
         id="stop130" /><stop
         style="stop-opacity:1;stop-color:#e1eef3"
         offset="1"
         id="stop132" /></linearGradient><linearGradient
       x1="0"
       y1="0"
       x2="1"
       y2="0"
       gradientUnits="userSpaceOnUse"
       gradientTransform="matrix(0,4.9109192,4.9109192,0,226.37939,576.70752)"
       spreadMethod="pad"
       id="linearGradient154"><stop
         style="stop-opacity:1;stop-color:#dbaa55"
         offset="0"
         id="stop150" /><stop
         style="stop-opacity:1;stop-color:#cf9127"
         offset="1"
         id="stop152" /></linearGradient><clipPath
       clipPathUnits="userSpaceOnUse"
       id="clipPath164"><path
         d="M 0,792 H 612 V 0 H 0 Z"
         id="path162" /></clipPath><linearGradient
       x1="0"
       y1="0"
       x2="1"
       y2="0"
       gradientUnits="userSpaceOnUse"
       gradientTransform="matrix(0,-20.108017,-20.108017,0,226.3291,581.14307)"
       spreadMethod="pad"
       id="linearGradient186"><stop
         style="stop-opacity:1;stop-color:#efdc24"
         offset="0"
         id="stop182" /><stop
         style="stop-opacity:1;stop-color:#c48323"
         offset="1"
         id="stop184" /></linearGradient><clipPath
       clipPathUnits="userSpaceOnUse"
       id="clipPath196"><path
         d="M 0,792 H 612 V 0 H 0 Z"
         id="path194" /></clipPath><linearGradient
       x1="0"
       y1="0"
       x2="1"
       y2="0"
       gradientUnits="userSpaceOnUse"
       gradientTransform="matrix(0,-17.176071,-17.176071,0,215.58643,579.3501)"
       spreadMethod="pad"
       id="linearGradient218"><stop
         style="stop-opacity:1;stop-color:#e2c223"
         offset="0"
         id="stop214" /><stop
         style="stop-opacity:1;stop-color:#b07828"
         offset="1"
         id="stop216" /></linearGradient><linearGradient
       x1="0"
       y1="0"
       x2="1"
       y2="0"
       gradientUnits="userSpaceOnUse"
       gradientTransform="matrix(0,-17.651367,-17.651367,0,237.03467,579.63281)"
       spreadMethod="pad"
       id="linearGradient238"><stop
         style="stop-opacity:1;stop-color:#e2c223"
         offset="0"
         id="stop234" /><stop
         style="stop-opacity:1;stop-color:#b07828"
         offset="1"
         id="stop236" /></linearGradient><linearGradient
       x1="0"
       y1="0"
       x2="1"
       y2="0"
       gradientUnits="userSpaceOnUse"
       gradientTransform="matrix(0,-12.281799,-12.281799,0,226.37939,593.69434)"
       spreadMethod="pad"
       id="linearGradient258"><stop
         style="stop-opacity:1;stop-color:#dbaa55"
         offset="0"
         id="stop254" /><stop
         style="stop-opacity:1;stop-color:#cf9127"
         offset="1"
         id="stop256" /></linearGradient><clipPath
       clipPathUnits="userSpaceOnUse"
       id="clipPath268"><path
         d="M 0,792 H 612 V 0 H 0 Z"
         id="path266" /></clipPath><linearGradient
       x1="0"
       y1="0"
       x2="1"
       y2="0"
       gradientUnits="userSpaceOnUse"
       gradientTransform="matrix(0,-9.2569275,-9.2569275,0,226.38721,598.60254)"
       spreadMethod="pad"
       id="linearGradient308"><stop
         style="stop-opacity:1;stop-color:#393536"
         offset="0"
         id="stop302" /><stop
         style="stop-opacity:1;stop-color:#393536"
         offset="0.0122681"
         id="stop304" /><stop
         style="stop-opacity:1;stop-color:#231f20"
         offset="1"
         id="stop306" /></linearGradient><clipPath
       clipPathUnits="userSpaceOnUse"
       id="clipPath318"><path
         d="M 0,792 H 612 V 0 H 0 Z"
         id="path316" /></clipPath><linearGradient
       x1="0"
       y1="0"
       x2="1"
       y2="0"
       gradientUnits="userSpaceOnUse"
       gradientTransform="matrix(0,-5.0068359,-5.0068359,0,349.14844,576.16553)"
       spreadMethod="pad"
       id="linearGradient378"><stop
         style="stop-opacity:1;stop-color:#a4c7d6"
         offset="0"
         id="stop374" /><stop
         style="stop-opacity:1;stop-color:#ffffff"
         offset="1"
         id="stop376" /></linearGradient><linearGradient
       x1="0"
       y1="0"
       x2="1"
       y2="0"
       gradientUnits="userSpaceOnUse"
       gradientTransform="matrix(0,-18.852005,-18.852005,0,258.23389,609.33984)"
       spreadMethod="pad"
       id="linearGradient400"><stop
         style="stop-opacity:1;stop-color:#424448"
         offset="0"
         id="stop394" /><stop
         style="stop-opacity:1;stop-color:#1a1b21"
         offset="0.62080568"
         id="stop396" /><stop
         style="stop-opacity:1;stop-color:#1a1b21"
         offset="1"
         id="stop398" /></linearGradient><clipPath
       clipPathUnits="userSpaceOnUse"
       id="clipPath410"><path
         d="M 0,792 H 612 V 0 H 0 Z"
         id="path408" /></clipPath><linearGradient
       x1="0"
       y1="0"
       x2="1"
       y2="0"
       gradientUnits="userSpaceOnUse"
       gradientTransform="matrix(0,-4.7610779,-4.7610779,0,258.23389,576.7002)"
       spreadMethod="pad"
       id="linearGradient432"><stop
         style="stop-opacity:1;stop-color:#a4c7d6"
         offset="0"
         id="stop428" /><stop
         style="stop-opacity:1;stop-color:#ffffff"
         offset="1"
         id="stop430" /></linearGradient><clipPath
       clipPathUnits="userSpaceOnUse"
       id="clipPath442"><path
         d="M 0,792 H 612 V 0 H 0 Z"
         id="path440" /></clipPath><linearGradient
       x1="0"
       y1="0"
       x2="1"
       y2="0"
       gradientUnits="userSpaceOnUse"
       gradientTransform="matrix(0,-8.7062683,-8.7062683,0,349.12793,609.79297)"
       spreadMethod="pad"
       id="linearGradient562"><stop
         style="stop-opacity:1;stop-color:#424448"
         offset="0"
         id="stop556" /><stop
         style="stop-opacity:1;stop-color:#1a1b21"
         offset="0.62080568"
         id="stop558" /><stop
         style="stop-opacity:1;stop-color:#1a1b21"
         offset="1"
         id="stop560" /></linearGradient><clipPath
       clipPathUnits="userSpaceOnUse"
       id="clipPath572"><path
         d="M 0,792 H 612 V 0 H 0 Z"
         id="path570" /></clipPath><linearGradient
       x1="0"
       y1="0"
       x2="1"
       y2="0"
       gradientUnits="userSpaceOnUse"
       gradientTransform="matrix(0,-4.7599182,-4.7599182,0,316.80566,565.49854)"
       spreadMethod="pad"
       id="linearGradient594"><stop
         style="stop-opacity:1;stop-color:#a4c7d6"
         offset="0"
         id="stop590" /><stop
         style="stop-opacity:1;stop-color:#ffffff"
         offset="1"
         id="stop592" /></linearGradient><clipPath
       clipPathUnits="userSpaceOnUse"
       id="clipPath604"><path
         d="M 0,792 H 612 V 0 H 0 Z"
         id="path602" /></clipPath><linearGradient
       x1="0"
       y1="0"
       x2="1"
       y2="0"
       gradientUnits="userSpaceOnUse"
       gradientTransform="matrix(0,-31.24028,-31.24028,0,317.25781,581.79053)"
       spreadMethod="pad"
       id="linearGradient662"><stop
         style="stop-opacity:1;stop-color:#f4f3f6"
         offset="0"
         id="stop658" /><stop
         style="stop-opacity:1;stop-color:#ccd1e4"
         offset="1"
         id="stop660" /></linearGradient><linearGradient
       x1="0"
       y1="0"
       x2="1"
       y2="0"
       gradientUnits="userSpaceOnUse"
       gradientTransform="matrix(0,-14.778412,-14.778412,0,317.25293,578.42529)"
       spreadMethod="pad"
       id="linearGradient682"><stop
         style="stop-opacity:1;stop-color:#e71b23"
         offset="0"
         id="stop678" /><stop
         style="stop-opacity:1;stop-color:#e7e4ec"
         offset="1"
         id="stop680" /></linearGradient><linearGradient
       x1="0"
       y1="0"
       x2="1"
       y2="0"
       gradientUnits="userSpaceOnUse"
       gradientTransform="matrix(0,-5.0101166,-5.0101166,0,317.24219,581.20215)"
       spreadMethod="pad"
       id="linearGradient702"><stop
         style="stop-opacity:1;stop-color:#f4f3f6"
         offset="0"
         id="stop698" /><stop
         style="stop-opacity:1;stop-color:#adb8d5"
         offset="1"
         id="stop700" /></linearGradient><linearGradient
       x1="0"
       y1="0"
       x2="1"
       y2="0"
       gradientUnits="userSpaceOnUse"
       gradientTransform="matrix(0,-19.04895,-19.04895,0,307.16895,584.24512)"
       spreadMethod="pad"
       id="linearGradient722"><stop
         style="stop-opacity:1;stop-color:#f4f3f6"
         offset="0"
         id="stop718" /><stop
         style="stop-opacity:1;stop-color:#ccd1e4"
         offset="1"
         id="stop720" /></linearGradient><linearGradient
       x1="0"
       y1="0"
       x2="1"
       y2="0"
       gradientUnits="userSpaceOnUse"
       gradientTransform="matrix(0,-19.04895,-19.04895,0,327.39746,584.24512)"
       spreadMethod="pad"
       id="linearGradient742"><stop
         style="stop-opacity:1;stop-color:#f4f3f6"
         offset="0"
         id="stop738" /><stop
         style="stop-opacity:1;stop-color:#ccd1e4"
         offset="1"
         id="stop740" /></linearGradient><linearGradient
       x1="0"
       y1="0"
       x2="1"
       y2="0"
       gradientUnits="userSpaceOnUse"
       gradientTransform="matrix(0,-20.66864,-20.66864,0,377.74902,594.67334)"
       spreadMethod="pad"
       id="linearGradient762"><stop
         style="stop-opacity:1;stop-color:#b5813c"
         offset="0"
         id="stop758" /><stop
         style="stop-opacity:1;stop-color:#9e5c39"
         offset="1"
         id="stop760" /></linearGradient><linearGradient
       x1="0"
       y1="0"
       x2="1"
       y2="0"
       gradientUnits="userSpaceOnUse"
       gradientTransform="matrix(0,6.6739197,6.6739197,0,377.36133,569.89941)"
       spreadMethod="pad"
       id="linearGradient782"><stop
         style="stop-opacity:1;stop-color:#ddba48"
         offset="0"
         id="stop778" /><stop
         style="stop-opacity:1;stop-color:#ea9c44"
         offset="1"
         id="stop780" /></linearGradient><linearGradient
       x1="0"
       y1="0"
       x2="1"
       y2="0"
       gradientUnits="userSpaceOnUse"
       gradientTransform="matrix(0,-3.0929718,-3.0929718,0,377.18848,557.14453)"
       spreadMethod="pad"
       id="linearGradient804"><stop
         style="stop-opacity:1;stop-color:#95c6d6"
         offset="0"
         id="stop798" /><stop
         style="stop-opacity:1;stop-color:#e1eef3"
         offset="0.845749"
         id="stop800" /><stop
         style="stop-opacity:1;stop-color:#e1eef3"
         offset="1"
         id="stop802" /></linearGradient><clipPath
       clipPathUnits="userSpaceOnUse"
       id="clipPath814"><path
         d="M 0,792 H 612 V 0 H 0 Z"
         id="path812" /></clipPath><linearGradient
       x1="0"
       y1="0"
       x2="1"
       y2="0"
       gradientUnits="userSpaceOnUse"
       gradientTransform="matrix(0,-18.32753,-18.32753,0,377.36133,575.02979)"
       spreadMethod="pad"
       id="linearGradient836"><stop
         style="stop-opacity:1;stop-color:#46a0a0"
         offset="0"
         id="stop832" /><stop
         style="stop-opacity:1;stop-color:#297ea3"
         offset="1"
         id="stop834" /></linearGradient><clipPath
       clipPathUnits="userSpaceOnUse"
       id="clipPath846"><path
         d="M 0,792 H 612 V 0 H 0 Z"
         id="path844" /></clipPath><linearGradient
       x1="0"
       y1="0"
       x2="1"
       y2="0"
       gradientUnits="userSpaceOnUse"
       gradientTransform="matrix(0,-16.231338,-16.231338,0,385.9668,573.50928)"
       spreadMethod="pad"
       id="linearGradient868"><stop
         style="stop-opacity:1;stop-color:#389691"
         offset="0"
         id="stop864" /><stop
         style="stop-opacity:1;stop-color:#1c6593"
         offset="1"
         id="stop866" /></linearGradient><linearGradient
       x1="0"
       y1="0"
       x2="1"
       y2="0"
       gradientUnits="userSpaceOnUse"
       gradientTransform="matrix(0,-16.371811,-16.371811,0,368.91699,573.38037)"
       spreadMethod="pad"
       id="linearGradient888"><stop
         style="stop-opacity:1;stop-color:#389691"
         offset="0"
         id="stop884" /><stop
         style="stop-opacity:1;stop-color:#1c6593"
         offset="1"
         id="stop886" /></linearGradient><linearGradient
       x1="0"
       y1="0"
       x2="1"
       y2="0"
       gradientUnits="userSpaceOnUse"
       gradientTransform="matrix(0,-10.205093,-10.205093,0,377.48242,587.34375)"
       spreadMethod="pad"
       id="linearGradient908"><stop
         style="stop-opacity:1;stop-color:#f7d353"
         offset="0"
         id="stop904" /><stop
         style="stop-opacity:1;stop-color:#eeac60"
         offset="1"
         id="stop906" /></linearGradient><clipPath
       clipPathUnits="userSpaceOnUse"
       id="clipPath918"><path
         d="M 0,792 H 612 V 0 H 0 Z"
         id="path916" /></clipPath></defs><sodipodi:namedview
     pagecolor="#ffffff"
     bordercolor="#666666"
     borderopacity="1"
     objecttolerance="10"
     gridtolerance="10"
     guidetolerance="10"
     inkscape:pageopacity="0"
     inkscape:pageshadow="2"
     inkscape:window-width="640"
     inkscape:window-height="480"
     id="namedview4" /><g
     id="g10"
     inkscape:groupmode="layer"
     inkscape:label="u01-08"
     transform="matrix(1.3333333,0,0,-1.3333333,-245.99186,892.47129)"><g
       id="g12"><g
         id="g14"><g
           id="g20"><g
             id="g22"><path
               d="m 276.507,557.261 c -5.475,-0.808 -5.475,-2.119 0,-2.928 v 0 c 5.475,-0.808 14.353,-0.808 19.827,0 v 0 c 5.475,0.809 5.475,2.12 0,2.928 v 0 c -2.737,0.405 -6.325,0.607 -9.913,0.607 v 0 c -3.588,0 -7.177,-0.202 -9.914,-0.607"
               style="fill:url(#linearGradient28);stroke:none"
               id="path30" /></g></g></g></g><g
       id="g32"><g
         id="g34"><g
           id="g40"><g
             id="g42"><path
               d="m 279.496,582.605 0.638,-4.719 c 0.554,-1.469 -0.626,-2.068 -1.282,-2.13 v 0 c -0.658,-0.059 2.639,-2.76 8.472,-2.76 v 0 c 5.835,0 9.13,2.701 8.473,2.76 v 0 c -0.656,0.062 -1.836,0.661 -1.28,2.13 v 0 c 0.553,1.469 0.636,4.719 0.636,4.719 v 0 c 0,5.608 -3.513,10.155 -7.829,10.155 v 0 c -4.315,0 -7.828,-4.547 -7.828,-10.155"
               style="fill:url(#linearGradient48);stroke:none"
               id="path50" /></g></g></g></g><g
       id="g52"><g
         id="g54"
         clip-path="url(#clipPath58)"><g
           id="g60"
           transform="translate(287.3242,572.9956)"><path
             d="m 0,0 c 5.835,0 9.13,2.701 8.473,2.761 -0.657,0.061 -1.836,0.66 -1.281,2.13 0.554,1.468 0.637,4.718 0.637,4.718 0,5.609 -3.514,10.156 -7.829,10.156 -4.314,0 -7.828,-4.547 -7.828,-10.156 L -7.19,4.891 C -6.636,3.421 -7.816,2.822 -8.473,2.761 -9.13,2.701 -5.833,0 0,0 Z"
             style="fill:none;stroke:#dbb11c;stroke-width:0.5;stroke-linecap:round;stroke-linejoin:round;stroke-miterlimit:4;stroke-dasharray:none;stroke-opacity:1"
             id="path62" /></g><g
           id="g64"
           transform="translate(287.2363,577.6421)"><path
             d="m 0,0 c -0.825,0 -2.208,1.103 -2.296,-0.245 -0.248,-3.869 -3.896,-2.312 -3.896,-3.758 0,-2.649 4.376,-6.221 6.192,-6.221 1.815,0 6.052,3.65 6.052,6.299 0,1.446 -3.505,-0.189 -3.756,3.68 C 2.209,1.103 0.825,0 0,0"
             style="fill:#a17035;fill-opacity:1;fill-rule:nonzero;stroke:none"
             id="path66" /></g><g
           id="g68"
           transform="translate(287.2363,566.9116)"><path
             d="m 0,0 c -2.022,0 -6.445,3.694 -6.445,6.473 0,0.756 0.712,0.911 1.398,1.059 1.105,0.24 2.357,0.511 2.499,2.716 0.05,0.75 0.468,0.906 0.811,0.906 0.29,0 0.621,-0.113 0.939,-0.223 0.287,-0.099 0.584,-0.201 0.798,-0.201 0.217,0 0.511,0.102 0.798,0.201 0.319,0.11 0.65,0.223 0.94,0.223 0.343,0 0.761,-0.156 0.81,-0.906 C 2.689,8.046 3.891,7.802 4.949,7.586 5.616,7.45 6.304,7.31 6.304,6.553 6.304,3.74 1.979,0 0,0"
             style="fill:#a17035;fill-opacity:1;fill-rule:nonzero;stroke:none"
             id="path70" /></g><g
           id="g72"
           transform="translate(285.499,577.561)"><path
             d="m 0,0 c -0.116,0 -0.277,0 -0.305,-0.434 -0.168,-2.585 -1.81,-2.941 -2.897,-3.177 -0.726,-0.159 -0.999,-0.247 -0.999,-0.566 0,-2.434 4.17,-5.966 5.938,-5.966 1.728,0 5.798,3.579 5.798,6.046 0,0.299 -0.214,0.389 -0.948,0.538 C 5.535,-3.345 3.947,-3.021 3.78,-0.434 3.752,0 3.593,0 3.476,0 3.27,0 2.98,-0.1 2.699,-0.196 2.374,-0.31 2.037,-0.425 1.737,-0.425 c -0.3,0 -0.634,0.115 -0.962,0.229 C 0.494,-0.1 0.205,0 0,0"
             style="fill:#f0b15a;fill-opacity:1;fill-rule:nonzero;stroke:none"
             id="path74" /></g><g
           id="g76"
           transform="translate(293.3799,584.6138)"><path
             d="m 0,0 c -0.132,0.024 -0.266,0.008 -0.395,-0.04 -3.418,0.533 -7.301,3.11 -7.301,3.11 -2.315,-2.64 -3.916,-3.127 -3.916,-3.127 -0.142,0.062 -0.291,0.083 -0.437,0.057 -0.575,-0.103 -0.916,-0.888 -0.762,-1.757 0.133,-0.748 0.588,-1.311 1.079,-1.389 0.49,-3.229 2.868,-5.682 5.73,-5.682 2.865,0 5.247,2.456 5.733,5.692 0.471,0.106 0.903,0.657 1.029,1.379 C 0.914,-0.888 0.574,-0.103 0,0"
             style="fill:#f0b15a;fill-opacity:1;fill-rule:nonzero;stroke:none"
             id="path78" /></g><g
           id="g80"
           transform="translate(292.8975,581.5093)"><path
             d="M 0,0 0.022,0.146 0.168,0.178 C 0.509,0.245 0.917,0.721 1.03,1.387 1.054,1.516 1.063,1.642 1.063,1.764 1.064,2.075 0.99,2.355 0.875,2.553 0.758,2.753 0.608,2.864 0.445,2.894 L 0.483,3.104 0.444,2.894 C 0.416,2.896 0.391,2.9 0.363,2.9 0.298,2.9 0.231,2.889 0.164,2.861 L -0.066,2.776 -0.178,3.254 0.246,3.323 C 0.284,3.328 0.324,3.332 0.363,3.332 0.414,3.332 0.468,3.328 0.52,3.317 0.836,3.262 1.087,3.048 1.247,2.771 1.41,2.492 1.496,2.141 1.496,1.764 1.496,1.616 1.481,1.465 1.455,1.312 1.324,0.594 0.934,0.006 0.406,-0.195 c -0.543,-3.252 -2.968,-5.74 -5.926,-5.743 -2.95,0.003 -5.373,2.481 -5.92,5.722 -0.554,0.185 -0.965,0.788 -1.101,1.527 -0.025,0.154 -0.04,0.305 -0.04,0.453 0,0.377 0.087,0.728 0.249,1.007 0.161,0.277 0.411,0.491 0.724,0.546 0.056,0.011 0.111,0.015 0.164,0.015 0.052,0 0.106,-0.004 0.159,-0.014 0.286,-0.058 0.409,-0.132 0.409,-0.132 l -0.103,-0.439 -0.238,0.103 c -0.078,0.034 -0.154,0.05 -0.227,0.05 -0.031,0 -0.058,-0.002 -0.087,-0.006 -0.164,-0.03 -0.312,-0.142 -0.43,-0.341 -0.116,-0.198 -0.188,-0.478 -0.188,-0.789 0,-0.122 0.01,-0.248 0.032,-0.377 0.117,-0.69 0.553,-1.172 0.9,-1.216 l 0.156,-0.025 0.024,-0.156 C -10.559,-3.158 -8.25,-5.512 -5.52,-5.507 -2.785,-5.512 -0.477,-3.153 0,0"
             style="fill:#a17035;fill-opacity:1;fill-rule:nonzero;stroke:none"
             id="path82" /></g><g
           id="g84"
           transform="translate(289.7715,583.6372)"><path
             d="m 0,0 c 0,-0.36 -0.229,-0.652 -0.513,-0.652 -0.282,0 -0.511,0.292 -0.511,0.652 0,0.36 0.229,0.653 0.511,0.653 C -0.229,0.653 0,0.36 0,0"
             style="fill:#855333;fill-opacity:1;fill-rule:nonzero;stroke:none"
             id="path86" /></g><g
           id="g88"
           transform="translate(285.9512,583.6372)"><path
             d="m 0,0 c 0,-0.36 -0.229,-0.652 -0.513,-0.652 -0.282,0 -0.512,0.292 -0.512,0.652 0,0.36 0.23,0.653 0.512,0.653 C -0.229,0.653 0,0.36 0,0"
             style="fill:#855333;fill-opacity:1;fill-rule:nonzero;stroke:none"
             id="path90" /></g><g
           id="g92"
           transform="translate(285.167,579.2104)"><path
             d="m 0,0 c -0.104,0.057 -0.143,0.188 -0.086,0.293 0.058,0.103 0.19,0.142 0.293,0.084 0.515,-0.283 1.189,-0.459 1.93,-0.459 0.732,0 1.4,0.171 1.913,0.449 C 4.154,0.426 4.285,0.388 4.342,0.282 4.4,0.178 4.36,0.047 4.256,-0.01 3.672,-0.327 2.935,-0.514 2.137,-0.514 1.329,-0.514 0.588,-0.324 0,0"
             style="fill:#855333;fill-opacity:1;fill-rule:nonzero;stroke:none"
             id="path94" /></g><g
           id="g96"
           transform="translate(287.3359,580.6782)"><path
             d="m 0,0 c -0.437,-0.001 -0.833,0.2 -1.128,0.516 -0.081,0.088 -0.078,0.223 0.01,0.305 0.086,0.081 0.222,0.076 0.305,-0.009 C -0.583,0.566 -0.302,0.431 0,0.431 0.297,0.431 0.568,0.56 0.797,0.789 0.879,0.874 1.017,0.876 1.101,0.794 1.187,0.709 1.188,0.573 1.104,0.489 0.813,0.188 0.427,0 0.003,0 Z"
             style="fill:#855333;fill-opacity:1;fill-rule:nonzero;stroke:none"
             id="path98" /></g><g
           id="g100"
           transform="translate(286.8125,556.562)"><path
             d="m 0,0 c -6.238,0 -9.071,1.64 -10.349,3.017 -1.187,1.278 -1.357,2.611 -1.291,3.504 0.003,0.038 0.006,0.094 0.011,0.168 0.306,4.933 1.358,8.358 2.962,9.646 0.857,0.69 2.218,1.211 4.04,1.551 l 0.282,0.052 -0.027,-0.285 c -0.003,-0.028 -0.244,-2.671 1.258,-4.329 0.817,-0.899 2.004,-1.356 3.531,-1.356 1.529,0 2.73,0.458 3.567,1.362 1.54,1.66 1.36,4.301 1.357,4.327 l -0.021,0.279 0.276,-0.05 c 1.822,-0.34 3.182,-0.861 4.04,-1.551 1.605,-1.288 2.654,-4.713 2.961,-9.646 0.006,-0.074 0.007,-0.13 0.011,-0.168 C 12.675,5.629 12.505,4.298 11.317,3.018 10.04,1.643 7.206,0 0.964,0 0.806,0 0.645,0 0.479,0.003 0.323,0 0.161,0 0.001,0 Z"
             style="fill:#45379a;fill-opacity:1;fill-rule:nonzero;stroke:none"
             id="path102" /></g><g
           id="g104"
           transform="translate(281.9932,573.9702)"><path
             d="m 0,0 c -1.615,-0.325 -2.818,-0.798 -3.578,-1.408 -1.508,-1.212 -2.504,-4.529 -2.801,-9.338 -0.004,-0.077 -0.008,-0.136 -0.011,-0.173 -0.059,-0.808 0.096,-2.015 1.177,-3.179 1.219,-1.314 3.95,-2.88 10.032,-2.88 0.159,-10e-4 0.319,0 0.48,0.005 0.168,-0.005 0.328,-0.005 0.484,-0.005 6.087,0 8.818,1.568 10.037,2.882 1.082,1.164 1.237,2.369 1.178,3.177 -0.003,0.037 -0.007,0.096 -0.012,0.173 -0.298,4.809 -1.292,8.126 -2.8,9.338 -0.762,0.61 -1.966,1.085 -3.584,1.41 0.007,-0.759 -0.102,-2.885 -1.48,-4.371 -0.923,-0.998 -2.231,-1.503 -3.886,-1.503 -1.654,0 -2.951,0.505 -3.853,1.5 C 0.04,-2.886 -0.025,-0.765 0,0"
             style="fill:#5e68b5;fill-opacity:1;fill-rule:nonzero;stroke:none"
             id="path106" /></g><g
           id="g108"
           transform="translate(278.8408,572.8569)"><path
             d="m 0,0 c -0.149,-0.094 -0.29,-0.191 -0.418,-0.295 -1.196,-0.949 -1.921,-3.165 -2.31,-5.223 -0.392,-2.06 -0.475,-3.946 -0.501,-4.288 -0.008,-0.097 -0.011,-0.197 -0.011,-0.297 0.003,-1.283 0.609,-2.697 2.316,-3.822 1.762,-1.041 2.915,-1.325 5.037,-1.749 -2.922,0.753 -6.183,3.525 -4.662,8.785 C 0.649,-2.745 0,0 0,0"
             style="fill:#445baa;fill-opacity:1;fill-rule:nonzero;stroke:none"
             id="path110" /></g><g
           id="g112"
           transform="translate(295.7793,572.8569)"><path
             d="m 0,0 c 0.15,-0.094 0.29,-0.191 0.419,-0.295 1.196,-0.949 1.92,-3.165 2.309,-5.223 0.394,-2.06 0.477,-3.946 0.501,-4.288 0.008,-0.097 0.011,-0.197 0.011,-0.297 -0.001,-1.283 -0.609,-2.697 -2.314,-3.822 -1.764,-1.041 -2.917,-1.325 -5.04,-1.749 2.923,0.753 6.185,3.525 4.664,8.785 C -0.649,-2.745 0,0 0,0"
             style="fill:#445baa;fill-opacity:1;fill-rule:nonzero;stroke:none"
             id="path114" /></g></g></g><g
       id="g116"><g
         id="g118"><g
           id="g124"><g
             id="g126"><path
               d="m 217.333,561.126 c -4.74,-0.701 -4.74,-1.834 0,-2.534 v 0 c 4.737,-0.699 12.417,-0.699 17.157,0 v 0 c 4.738,0.7 4.738,1.833 0,2.534 v 0 c -2.37,0.349 -5.475,0.523 -8.58,0.523 v 0 c -3.104,0 -6.209,-0.174 -8.577,-0.523"
               style="fill:url(#linearGradient134);stroke:none"
               id="path136" /></g></g></g></g><g
       id="g138"><g
         id="g140"><g
           id="g146"><g
             id="g148"><path
               d="m 226.451,584.198 c -0.843,0 -2.256,1.127 -2.343,-0.249 v 0 c -0.257,-3.95 -3.98,-2.362 -3.98,-3.838 v 0 c 0,-2.704 4.471,-6.35 6.323,-6.35 v 0 c 1.855,0 6.18,3.726 6.18,6.431 v 0 c 0,1.476 -3.581,-0.193 -3.837,3.757 v 0 c -0.034,0.521 -0.258,0.683 -0.569,0.683 v 0 c -0.509,0.001 -1.252,-0.434 -1.774,-0.434"
               style="fill:url(#linearGradient154);stroke:none"
               id="path156" /></g></g></g></g><g
       id="g158"><g
         id="g160"
         clip-path="url(#clipPath164)"><g
           id="g166"
           transform="translate(224.6787,584.1157)"><path
             d="m 0,0 c -0.121,0 -0.285,0 -0.314,-0.442 -0.171,-2.64 -1.847,-3.003 -2.957,-3.245 -0.74,-0.16 -1.021,-0.251 -1.021,-0.576 0,-2.487 4.259,-6.091 6.064,-6.091 1.762,0 5.918,3.652 5.918,6.173 0,0.305 -0.217,0.395 -0.969,0.548 C 5.648,-3.414 4.028,-3.084 3.859,-0.442 3.828,0 3.665,0 3.546,0 3.337,0 3.041,-0.102 2.756,-0.2 2.423,-0.315 2.078,-0.435 1.772,-0.435 1.465,-0.435 1.122,-0.315 0.789,-0.2 0.502,-0.102 0.208,0 0,0 m 1.772,-10.871 c -2.065,0 -6.58,3.77 -6.58,6.608 0,0.771 0.726,0.929 1.427,1.08 1.128,0.247 2.406,0.524 2.553,2.775 0.05,0.763 0.476,0.925 0.828,0.925 0.294,0 0.631,-0.117 0.957,-0.23 0.292,-0.1 0.596,-0.205 0.815,-0.205 0.218,0 0.522,0.105 0.814,0.205 0.326,0.113 0.664,0.23 0.96,0.23 0.349,0 0.775,-0.162 0.827,-0.925 0.145,-2.25 1.369,-2.499 2.451,-2.719 0.679,-0.138 1.385,-0.281 1.385,-1.054 0,-2.873 -4.417,-6.69 -6.437,-6.69"
             style="fill:#855333;fill-opacity:1;fill-rule:nonzero;stroke:none"
             id="path168" /></g></g></g><g
       id="g170"><g
         id="g172"><g
           id="g178"><g
             id="g180"><path
               d="m 229.721,580.894 c -0.341,-1.961 -1.917,-1.706 -2.65,-3.901 v 0 c -0.149,-0.449 -0.382,-0.571 -0.743,-0.577 v 0 c -0.36,0.006 -0.592,0.128 -0.743,0.577 v 0 c -0.733,2.195 -2.308,1.94 -2.651,3.901 v 0 c -0.146,0.83 -1.029,0.821 -1.337,0.424 v 0 c -0.496,-0.637 -1.329,-0.747 -2.278,-0.931 v 0 c -1.149,-0.225 -2.038,-0.675 -3.109,-1.457 v 0 c -2.875,-2.101 -3.197,-10.967 -3.254,-11.652 v 0 c -0.235,-2.87 2.643,-6.554 13.373,-6.433 v 0 c 10.729,-0.121 13.607,3.563 13.373,6.433 v 0 c -0.056,0.685 -0.377,9.551 -3.255,11.652 v 0 c -1.069,0.782 -1.958,1.232 -3.108,1.457 v 0 c -0.949,0.184 -1.784,0.294 -2.278,0.931 v 0 c -0.128,0.164 -0.353,0.262 -0.584,0.262 v 0 c -0.328,0 -0.668,-0.198 -0.756,-0.686 m -3.365,-20.048 c 0,0 0,0 0,0"
               style="fill:url(#linearGradient186);stroke:none"
               id="path188" /></g></g></g></g><g
       id="g190"><g
         id="g192"
         clip-path="url(#clipPath196)"><g
           id="g198"
           transform="translate(226.2998,576.4155)"><path
             d="m 0,0 v -0.22 c 0.108,0 0.214,0.007 0.318,0.032 0.156,0.034 0.307,0.113 0.424,0.233 C 0.857,0.167 0.94,0.32 1.004,0.513 1.181,1.04 1.402,1.409 1.643,1.706 2.001,2.151 2.417,2.434 2.805,2.812 2.998,3 3.179,3.214 3.328,3.479 3.479,3.743 3.595,4.057 3.664,4.444 3.699,4.647 3.781,4.767 3.87,4.84 3.959,4.911 4.064,4.943 4.176,4.943 4.333,4.945 4.486,4.873 4.562,4.775 4.702,4.594 4.869,4.449 5.054,4.333 5.33,4.159 5.64,4.05 5.965,3.967 6.291,3.883 6.636,3.824 6.986,3.755 7.543,3.647 8.027,3.486 8.511,3.257 8.992,3.027 9.468,2.728 9.996,2.342 10.324,2.103 10.627,1.756 10.9,1.327 c 0.482,-0.75 0.868,-1.745 1.166,-2.824 0.453,-1.619 0.716,-3.422 0.872,-4.874 0.078,-0.724 0.126,-1.363 0.162,-1.849 0.034,-0.486 0.048,-0.812 0.058,-0.934 0.01,-0.1 0.014,-0.2 0.014,-0.303 -0.002,-0.657 -0.173,-1.346 -0.586,-2.016 -0.616,-1.004 -1.77,-1.97 -3.701,-2.69 -1.933,-0.72 -4.644,-1.189 -8.343,-1.189 -0.176,0 -0.356,10e-4 -0.539,0.004 v -0.221 -0.221 h 0.054 v 0.221 l -0.005,0.221 c -0.181,-0.003 -0.36,-0.004 -0.539,-0.004 -4.931,0 -8.105,0.834 -10.022,1.984 -0.961,0.573 -1.61,1.225 -2.02,1.895 -0.411,0.67 -0.586,1.359 -0.586,2.016 0,0.103 0.004,0.203 0.012,0.303 0.009,0.093 0.018,0.303 0.039,0.615 0.07,1.089 0.244,3.382 0.711,5.622 0.234,1.119 0.543,2.227 0.944,3.157 0.398,0.933 0.895,1.684 1.471,2.102 0.528,0.386 1.005,0.685 1.486,0.915 0.479,0.229 0.967,0.39 1.522,0.498 0.471,0.093 0.923,0.166 1.342,0.306 0.209,0.07 0.408,0.156 0.592,0.272 0.184,0.116 0.351,0.261 0.492,0.442 0.073,0.098 0.23,0.17 0.387,0.168 0.107,0 0.215,-0.032 0.304,-0.103 0.089,-0.073 0.17,-0.193 0.207,-0.396 0.089,-0.517 0.266,-0.904 0.494,-1.215 0.169,-0.233 0.363,-0.422 0.56,-0.599 0.296,-0.265 0.6,-0.501 0.876,-0.817 0.278,-0.314 0.53,-0.708 0.73,-1.3 0.042,-0.128 0.091,-0.239 0.157,-0.334 0.094,-0.144 0.225,-0.255 0.376,-0.319 0.151,-0.062 0.31,-0.08 0.47,-0.08 V 0.221 H 0 V -0.22 0 -0.22 h 0.057 v 0.441 c -0.08,0 -0.147,0.007 -0.198,0.019 -0.077,0.019 -0.126,0.042 -0.178,0.098 -0.056,0.054 -0.112,0.149 -0.163,0.303 -0.19,0.57 -0.441,0.993 -0.71,1.328 -0.411,0.501 -0.856,0.803 -1.201,1.143 -0.17,0.169 -0.322,0.348 -0.449,0.568 -0.123,0.221 -0.222,0.486 -0.284,0.834 -0.05,0.282 -0.181,0.507 -0.366,0.655 -0.18,0.148 -0.41,0.217 -0.625,0.216 C -4.425,5.384 -4.72,5.259 -4.901,5.03 -5.007,4.893 -5.131,4.785 -5.273,4.696 -5.485,4.561 -5.742,4.468 -6.041,4.392 -6.337,4.315 -6.674,4.257 -7.031,4.188 -7.626,4.07 -8.158,3.894 -8.679,3.647 -9.195,3.4 -9.7,3.082 -10.242,2.686 -10.635,2.399 -10.969,2.01 -11.264,1.548 c -0.514,-0.806 -0.907,-1.834 -1.215,-2.938 -0.461,-1.653 -0.728,-3.472 -0.884,-4.937 -0.078,-0.733 -0.132,-1.377 -0.163,-1.864 -0.035,-0.488 -0.051,-0.826 -0.06,-0.93 -0.01,-0.109 -0.017,-0.222 -0.017,-0.336 0,-0.727 0.199,-1.494 0.65,-2.231 0.677,-1.106 1.931,-2.135 3.941,-2.883 2.012,-0.748 4.782,-1.221 8.525,-1.221 0.181,0 0.362,10e-4 0.546,0.002 l -0.002,0.442 H 0.003 l -0.005,-0.442 c 0.183,-0.001 0.365,-0.002 0.544,-0.002 4.992,10e-4 8.255,0.839 10.291,2.055 1.018,0.608 1.727,1.313 2.178,2.049 0.451,0.737 0.646,1.504 0.646,2.231 0,0.114 -0.005,0.227 -0.013,0.336 -0.007,0.078 -0.019,0.295 -0.04,0.607 -0.067,1.098 -0.243,3.407 -0.717,5.679 -0.24,1.137 -0.55,2.267 -0.969,3.236 C 11.501,1.37 10.983,2.184 10.299,2.686 9.755,3.082 9.254,3.4 8.733,3.647 8.218,3.894 7.685,4.07 7.088,4.188 6.607,4.278 6.172,4.353 5.813,4.474 5.633,4.535 5.471,4.606 5.33,4.696 5.189,4.785 5.065,4.893 4.957,5.03 4.774,5.26 4.481,5.384 4.176,5.385 3.959,5.386 3.729,5.317 3.548,5.169 3.362,5.021 3.232,4.796 3.184,4.514 3.102,4.05 2.951,3.733 2.764,3.472 2.622,3.276 2.457,3.111 2.27,2.944 1.989,2.693 1.662,2.442 1.355,2.09 1.043,1.737 0.753,1.282 0.537,0.641 0.506,0.538 0.469,0.461 0.432,0.405 0.374,0.323 0.326,0.288 0.267,0.262 0.207,0.235 0.122,0.22 0,0.221 V -0.22 Z"
             style="fill:#855333;fill-opacity:1;fill-rule:nonzero;stroke:none"
             id="path200" /></g></g></g><g
       id="g202"><g
         id="g204"><g
           id="g210"><g
             id="g212"><path
               d="m 216.353,578.758 c -1.336,-0.959 -2.166,-3.528 -2.599,-5.928 v 0 c -0.442,-2.403 -0.54,-5.215 -0.566,-5.568 v 0 c -0.009,-0.1 -0.011,-0.201 -0.011,-0.303 v 0 c 0.002,-1.313 0.683,-2.763 2.602,-3.912 v 0 c 0.604,-0.365 1.341,-0.697 2.217,-0.982 v 0 17.651 c -0.6,-0.222 -1.22,-0.648 -1.643,-0.958"
               style="fill:url(#linearGradient218);stroke:none"
               id="path220" /></g></g></g></g><g
       id="g222"><g
         id="g224"><g
           id="g230"><g
             id="g232"><path
               d="m 234.623,562.065 c 0.879,0.285 1.614,0.617 2.222,0.982 v 0 c 1.915,1.149 2.599,2.599 2.601,3.912 v 0 c 0,0.102 -0.005,0.203 -0.013,0.303 v 0 c -0.029,0.353 -0.122,3.165 -0.567,5.568 v 0 c -0.434,2.4 -1.26,4.969 -2.597,5.928 v 0 c -0.422,0.31 -1.041,0.736 -1.646,0.958 v 0 z"
               style="fill:url(#linearGradient238);stroke:none"
               id="path240" /></g></g></g></g><g
       id="g242"><g
         id="g244"><g
           id="g250"><g
             id="g252"><path
               d="m 220.376,590.473 c -0.151,0.066 -0.311,0.09 -0.469,0.062 v 0 c -0.617,-0.11 -0.98,-0.953 -0.817,-1.887 v 0 c 0.143,-0.804 0.631,-1.411 1.157,-1.493 v 0 c 0.527,-3.47 3.084,-6.103 6.158,-6.103 v 0 c 3.075,0 5.635,2.638 6.158,6.113 v 0 c 0.506,0.115 0.97,0.706 1.106,1.483 v 0 c 0.164,0.934 -0.201,1.777 -0.818,1.887 v 0 c -0.143,0.025 -0.286,0.007 -0.423,-0.044 v 0 c -0.739,3.125 -3.155,5.418 -6.023,5.418 v 0 c -2.875,0 -5.295,-2.301 -6.029,-5.436"
               style="fill:url(#linearGradient258);stroke:none"
               id="path260" /></g></g></g></g><g
       id="g262"><g
         id="g264"
         clip-path="url(#clipPath268)"><g
           id="g270"
           transform="translate(232.333,587.1997)"><path
             d="M 0,0 0.023,0.157 0.178,0.191 C 0.546,0.264 0.984,0.773 1.106,1.488 1.13,1.627 1.142,1.762 1.142,1.894 1.142,2.23 1.064,2.529 0.939,2.742 0.811,2.956 0.654,3.076 0.479,3.106 L 0.516,3.335 0.479,3.106 C 0.446,3.113 0.417,3.114 0.389,3.115 0.32,3.114 0.248,3.103 0.174,3.074 L -0.07,2.982 -0.131,3.238 c -0.72,3.044 -3.062,5.241 -5.799,5.239 -2.742,0.002 -5.086,-2.204 -5.801,-5.256 l -0.065,-0.27 -0.253,0.11 c -0.085,0.037 -0.167,0.054 -0.248,0.054 -0.029,0 -0.06,-0.001 -0.092,-0.009 -0.174,-0.03 -0.334,-0.15 -0.462,-0.364 -0.124,-0.213 -0.203,-0.512 -0.203,-0.848 0,-0.131 0.013,-0.267 0.039,-0.406 0.125,-0.741 0.589,-1.259 0.966,-1.304 l 0.166,-0.027 0.026,-0.168 C -11.344,-3.393 -8.861,-5.92 -5.93,-5.917 -2.994,-5.92 -0.511,-3.388 0,0 m -12.291,-0.23 c -0.594,0.197 -1.038,0.845 -1.181,1.637 -0.028,0.166 -0.045,0.328 -0.045,0.487 10e-4,0.406 0.092,0.782 0.268,1.083 0.173,0.297 0.442,0.527 0.78,0.586 0.059,0.011 0.117,0.016 0.172,0.016 0.061,0 0.116,-0.005 0.173,-0.016 0.815,3.096 3.263,5.375 6.194,5.377 2.931,-0.002 5.374,-2.278 6.194,-5.369 0.041,0.004 0.083,0.008 0.125,0.008 0.055,0 0.114,-0.005 0.17,-0.016 C 0.898,3.504 1.167,3.273 1.341,2.977 1.514,2.676 1.605,2.3 1.605,1.894 1.605,1.735 1.593,1.573 1.563,1.407 1.423,0.637 1.001,0.007 0.435,-0.211 -0.148,-3.705 -2.752,-6.375 -5.93,-6.38 c -3.171,0.005 -5.772,2.666 -6.361,6.15"
             style="fill:#855333;fill-opacity:1;fill-rule:nonzero;stroke:none"
             id="path272" /></g><g
           id="g274"
           transform="translate(229.0049,589.8794)"><path
             d="m 0,0 c 0,-0.386 -0.245,-0.7 -0.551,-0.7 -0.303,0 -0.549,0.314 -0.549,0.7 0,0.388 0.246,0.7 0.549,0.7 C -0.245,0.7 0,0.388 0,0"
             style="fill:#231f20;fill-opacity:1;fill-rule:nonzero;stroke:none"
             id="path276" /></g><g
           id="g278"
           transform="translate(224.9033,589.8794)"><path
             d="m 0,0 c 0,-0.386 -0.248,-0.7 -0.551,-0.7 -0.303,0 -0.55,0.314 -0.55,0.7 0,0.388 0.247,0.7 0.55,0.7 C -0.248,0.7 0,0.388 0,0"
             style="fill:#231f20;fill-opacity:1;fill-rule:nonzero;stroke:none"
             id="path280" /></g><g
           id="g282"
           transform="translate(228.418,585.4204)"><path
             d="m 0,0 c -0.555,-0.3 -1.275,-0.485 -2.062,-0.485 -0.794,0 -1.524,0.188 -2.078,0.495 -0.106,0.058 -0.242,0.018 -0.3,-0.088 -0.058,-0.106 -0.022,-0.24 0.086,-0.298 0.63,-0.347 1.425,-0.551 2.292,-0.551 0.858,0 1.646,0.199 2.27,0.539 0.109,0.058 0.146,0.193 0.091,0.299 C 0.24,0.019 0.105,0.058 0,0"
             style="fill:#855333;fill-opacity:1;fill-rule:nonzero;stroke:none"
             id="path284" /></g><g
           id="g286"
           transform="translate(227.2529,587.5415)"><path
             d="m 0,0 c -0.242,-0.25 -0.54,-0.389 -0.86,-0.39 -0.331,0.001 -0.636,0.149 -0.885,0.412 -0.083,0.09 -0.223,0.094 -0.312,0.011 -0.089,-0.084 -0.093,-0.222 -0.01,-0.31 0.317,-0.339 0.739,-0.554 1.207,-0.553 0.451,-0.001 0.865,0.201 1.175,0.521 0.087,0.087 0.087,0.226 -0.002,0.312 C 0.225,0.088 0.086,0.087 0,0"
             style="fill:#855333;fill-opacity:1;fill-rule:nonzero;stroke:none"
             id="path288" /></g></g></g><g
       id="g290"><g
         id="g292"><g
           id="g298"><g
             id="g300"><path
               d="m 218.962,589.919 c 0.462,0.999 1.127,0.962 1.688,0.705 v 0 l -0.111,-0.473 c 0,0 0.155,-0.382 0.811,-0.479 v 0 c 0.895,1.79 1.087,2.287 1.151,4.295 v 0 c 0,0 1.753,-0.372 3.907,-0.372 v 0 l 3.909,0.372 c 0.061,-2.008 0.256,-2.505 1.149,-4.295 v 0 l 0.797,0.51 c 0,0 -0.075,0.347 -0.099,0.442 v 0 c 0.549,0.29 1.271,0.21 1.648,-0.752 v 0 c 0.143,4.265 -0.458,8.912 -7.404,8.912 v 0 c -6.946,0 -7.591,-4.599 -7.446,-8.865"
               style="fill:url(#linearGradient308);stroke:none"
               id="path310" /></g></g></g></g><g
       id="g312"><g
         id="g314"
         clip-path="url(#clipPath318)"><g
           id="g320"
           transform="translate(396.5664,639.9497)"><path
             d="m 0,0 c -13.088,0 -23.698,-6.303 -23.698,-14.078 0,-5.032 4.449,-9.446 11.135,-11.935 l -3.169,-15.437 7.444,14.182 c 2.58,-0.573 5.372,-0.887 8.288,-0.887 13.088,0 23.698,6.302 23.698,14.077 C 23.698,-6.303 13.088,0 0,0"
             style="fill:#c0e7b4;fill-opacity:1;fill-rule:nonzero;stroke:none"
             id="path322" /></g><g
           id="g324"
           transform="translate(396.5664,639.9497)"><path
             d="m 0,0 c -13.088,0 -23.698,-6.303 -23.698,-14.078 0,-5.032 4.449,-9.446 11.135,-11.935 l -3.169,-15.437 7.444,14.182 c 2.58,-0.573 5.372,-0.887 8.288,-0.887 13.088,0 23.698,6.302 23.698,14.077 C 23.698,-6.303 13.088,0 0,0 Z"
             style="fill:none;stroke:#231f20;stroke-width:0.5;stroke-linecap:butt;stroke-linejoin:round;stroke-miterlimit:10;stroke-dasharray:none;stroke-opacity:1"
             id="path326" /></g><text
           transform="matrix(1,0,0,-1,382.5068,629.543)"
           style="font-variant:normal;font-weight:normal;font-stretch:normal;font-size:7px;font-family:Arial;-inkscape-font-specification:ArialMT;writing-mode:lr-tb;fill:#231f20;fill-opacity:1;fill-rule:nonzero;stroke:none"
           id="text332"><tspan
             x="0 4.6690001 8.5609999 12.453 14.399 18.291 20.237 23.737"
             y="0"
             sodipodi:role="line"
             id="tspan328">Kaufe zu</tspan><tspan
             x="-1.757 2.135 6.027 7.973 11.865 15.757 19.649 21.594999 25.487"
             y="9.0019999"
             sodipodi:role="line"
             id="tspan330">$1,005.00</tspan></text><g
           id="g334"
           transform="translate(307.8379,639.9497)"><path
             d="m 0,0 c -13.088,0 -23.698,-6.303 -23.698,-14.078 0,-5.032 4.449,-9.446 11.135,-11.935 l -4.107,-18.103 8.382,16.848 c 2.58,-0.573 5.372,-0.887 8.288,-0.887 13.088,0 23.697,6.302 23.697,14.077 C 23.697,-6.303 13.088,0 0,0"
             style="fill:#f9a790;fill-opacity:1;fill-rule:nonzero;stroke:none"
             id="path336" /></g><g
           id="g338"
           transform="translate(307.8379,639.9497)"><path
             d="m 0,0 c -13.088,0 -23.698,-6.303 -23.698,-14.078 0,-5.032 4.449,-9.446 11.135,-11.935 l -4.107,-18.103 8.382,16.848 c 2.58,-0.573 5.372,-0.887 8.288,-0.887 13.088,0 23.697,6.302 23.697,14.077 C 23.697,-6.303 13.088,0 0,0 Z"
             style="fill:none;stroke:#231f20;stroke-width:0.5;stroke-linecap:butt;stroke-linejoin:round;stroke-miterlimit:10;stroke-dasharray:none;stroke-opacity:1"
             id="path340" /></g><text
           transform="matrix(1,0,0,-1,288.916,629.543)"
           style="font-variant:normal;font-weight:normal;font-stretch:normal;font-size:7px;font-family:Arial;-inkscape-font-specification:ArialMT;writing-mode:lr-tb;fill:#231f20;fill-opacity:1;fill-rule:nonzero;stroke:none"
           id="text346"><tspan
             x="0 4.6690001 8.5609999 10.892 14.392 18.284 22.176001 24.122 28.014 29.959999 33.459999"
             y="0"
             sodipodi:role="line"
             id="tspan342">Verkaufe zu</tspan><tspan
             x="3.108 7 10.892 12.838 16.73 20.622 24.514 26.459999 30.351999"
             y="9.0019999"
             sodipodi:role="line"
             id="tspan344">$1,010.00</tspan></text><g
           id="g348"
           transform="translate(208.4419,639.9497)"><path
             d="m 0,0 c 13.088,0 23.698,-6.303 23.698,-14.078 0,-5.032 -4.449,-9.446 -11.135,-11.935 l 2.496,-12.103 -6.771,10.848 C 5.708,-27.841 2.916,-28.155 0,-28.155 c -13.088,0 -23.698,6.302 -23.698,14.077 C -23.698,-6.303 -13.088,0 0,0"
             style="fill:#c0e7b4;fill-opacity:1;fill-rule:nonzero;stroke:none"
             id="path350" /></g><g
           id="g352"
           transform="translate(208.4419,639.9497)"><path
             d="m 0,0 c 13.088,0 23.698,-6.303 23.698,-14.078 0,-5.032 -4.449,-9.446 -11.135,-11.935 l 2.496,-12.103 -6.771,10.848 C 5.708,-27.841 2.916,-28.155 0,-28.155 c -13.088,0 -23.698,6.302 -23.698,14.077 C -23.698,-6.303 -13.088,0 0,0 Z"
             style="fill:none;stroke:#231f20;stroke-width:0.5;stroke-linecap:butt;stroke-linejoin:round;stroke-miterlimit:10;stroke-dasharray:none;stroke-opacity:1"
             id="path354" /></g><text
           transform="matrix(1,0,0,-1,189.5073,629.543)"
           style="font-variant:normal;font-weight:normal;font-stretch:normal;font-size:7px;font-family:Arial;-inkscape-font-specification:ArialMT;writing-mode:lr-tb;fill:#231f20;fill-opacity:1;fill-rule:nonzero;stroke:none"
           id="text360"><tspan
             x="0 4.6690001 8.5609999 10.892 14.392 18.284 22.176001 24.122 28.014 29.959999 33.459999"
             y="0"
             sodipodi:role="line"
             id="tspan356">Verkaufe zu</tspan><tspan
             x="3.108 7 10.892 12.838 16.73 20.622 24.514 26.459999 30.351999"
             y="9.0019999"
             sodipodi:role="line"
             id="tspan358">$1,005.00</tspan></text></g></g><g
       id="g362"><g
         id="g364"><g
           id="g370"><g
             id="g372"><path
               d="m 339.048,574.716 c -5.578,-0.825 -5.578,-2.158 0,-2.982 v 0 c 5.576,-0.824 14.622,-0.824 20.198,0 v 0 c 5.58,0.824 5.58,2.157 0,2.982 v 0 c -2.788,0.411 -6.443,0.617 -10.099,0.617 v 0 c -3.655,0 -7.311,-0.206 -10.099,-0.617"
               style="fill:url(#linearGradient378);stroke:none"
               id="path380" /></g></g></g></g><g
       id="g382"><g
         id="g384"><g
           id="g390"><g
             id="g392"><path
               d="m 250.652,599.867 c 0,0 0.078,-3.147 0.616,-4.571 v 0 c 0.539,-1.423 -0.605,-2.003 -1.242,-2.061 v 0 c -0.634,-0.058 2.557,-2.674 8.207,-2.674 v 0 c 5.652,0 8.845,2.616 8.208,2.674 v 0 c -0.634,0.058 -1.78,0.638 -1.241,2.061 v 0 c 0.538,1.424 0.615,4.571 0.615,4.571 v 0 c 0,5.432 -3.401,9.838 -7.582,9.838 v 0 c -4.177,0 -7.581,-4.406 -7.581,-9.838"
               style="fill:url(#linearGradient400);stroke:none"
               id="path402" /></g></g></g></g><g
       id="g404"><g
         id="g406"
         clip-path="url(#clipPath410)"><g
           id="g412"
           transform="translate(266.4414,593.2349)"><path
             d="m 0,0 c -0.635,0.058 -1.78,0.639 -1.241,2.062 0.537,1.423 0.615,4.57 0.615,4.57 0,5.432 -3.401,9.838 -7.582,9.838 -4.178,0 -7.582,-4.406 -7.582,-9.838 0,0 0.079,-3.147 0.617,-4.57 0.539,-1.423 -0.605,-2.004 -1.242,-2.062 -0.635,-0.059 2.557,-2.674 8.207,-2.674 5.652,0 8.845,2.615 8.208,2.674 z"
             style="fill:none;stroke:#231f20;stroke-width:0.5;stroke-linecap:round;stroke-linejoin:round;stroke-miterlimit:4;stroke-dasharray:none;stroke-opacity:1"
             id="path414" /></g></g></g><g
       id="g416"><g
         id="g418"><g
           id="g424"><g
             id="g426"><path
               d="m 248.632,575.321 c -5.301,-0.784 -5.301,-2.051 0,-2.836 v 0 c 5.304,-0.783 13.902,-0.783 19.202,0 v 0 c 5.303,0.785 5.303,2.052 0,2.836 v 0 c -2.65,0.392 -6.125,0.588 -9.6,0.588 v 0 c -3.475,0 -6.95,-0.196 -9.602,-0.588"
               style="fill:url(#linearGradient432);stroke:none"
               id="path434" /></g></g></g></g><g
       id="g436"><g
         id="g438"
         clip-path="url(#clipPath442)"><g
           id="g444"
           transform="translate(258.1504,595.061)"><path
             d="M 0,0 C -0.799,0 -2.14,1.067 -2.223,-0.238 -2.467,-3.984 -6,-2.478 -6,-3.878 c 0,-2.565 4.239,-6.024 6,-6.024 1.758,0 5.859,3.535 5.859,6.101 0,1.4 -3.394,-0.183 -3.637,3.563 C 2.137,1.067 0.8,0 0,0"
             style="fill:#a17035;fill-opacity:1;fill-rule:nonzero;stroke:none"
             id="path446" /></g><g
           id="g448"
           transform="translate(258.1504,584.6685)"><path
             d="m 0,0 c -1.959,0 -6.242,3.578 -6.242,6.27 0,0.732 0.686,0.881 1.352,1.025 1.071,0.233 2.283,0.496 2.421,2.631 0.048,0.725 0.452,0.878 0.785,0.878 0.282,0 0.601,-0.111 0.911,-0.218 0.278,-0.095 0.563,-0.193 0.773,-0.193 0.209,0 0.495,0.098 0.771,0.193 0.308,0.107 0.629,0.218 0.911,0.218 0.333,0 0.736,-0.153 0.784,-0.878 C 2.604,7.792 3.767,7.557 4.791,7.348 5.437,7.217 6.103,7.081 6.103,6.347 6.103,3.621 1.915,0 0,0"
             style="fill:#6b4126;fill-opacity:1;fill-rule:nonzero;stroke:none"
             id="path450" /></g><g
           id="g452"
           transform="translate(256.4668,594.9819)"><path
             d="M 0,0 C -0.114,0 -0.269,0 -0.297,-0.419 -0.46,-2.924 -2.05,-3.27 -3.103,-3.498 -3.806,-3.65 -4.07,-3.736 -4.07,-4.044 c 0,-2.358 4.04,-5.779 5.754,-5.779 1.67,0 5.613,3.465 5.613,5.856 0,0.29 -0.207,0.375 -0.919,0.521 -1.017,0.208 -2.555,0.52 -2.717,3.027 C 3.635,0 3.479,0 3.365,0 3.166,0 2.888,-0.097 2.615,-0.189 2.299,-0.299 1.972,-0.411 1.684,-0.411 1.392,-0.411 1.066,-0.299 0.75,-0.189 0.479,-0.097 0.198,0 0,0"
             style="fill:#cd974d;fill-opacity:1;fill-rule:nonzero;stroke:none"
             id="path454" /></g><g
           id="g456"
           transform="translate(264.0977,601.813)"><path
             d="m 0,0 c -0.126,0.023 -0.255,0.007 -0.38,-0.04 v 0.002 c -3.311,0.516 -7.073,3.012 -7.073,3.012 -2.24,-2.557 -3.792,-3.029 -3.792,-3.029 -0.137,0.059 -0.281,0.081 -0.423,0.055 -0.557,-0.099 -0.888,-0.86 -0.737,-1.701 0.129,-0.725 0.568,-1.271 1.044,-1.347 0.475,-3.128 2.778,-5.502 5.549,-5.502 2.775,0 5.081,2.379 5.553,5.512 0.455,0.103 0.873,0.637 0.996,1.337 C 0.888,-0.86 0.557,-0.099 0,0"
             style="fill:#cd974d;fill-opacity:1;fill-rule:nonzero;stroke:none"
             id="path458" /></g><g
           id="g460"
           transform="translate(263.6318,598.8071)"><path
             d="m 0,0 0.021,0.141 0.14,0.032 c 0.331,0.064 0.728,0.524 0.838,1.168 0.022,0.125 0.032,0.247 0.032,0.365 0,0.303 -0.07,0.574 -0.183,0.766 -0.114,0.193 -0.258,0.3 -0.417,0.33 L 0.469,3.006 0.431,2.802 C 0.404,2.806 0.378,2.808 0.352,2.81 0.288,2.808 0.224,2.796 0.159,2.771 L -0.063,2.688 -0.17,3.151 0.237,3.218 C 0.275,3.223 0.313,3.226 0.352,3.226 0.401,3.226 0.453,3.222 0.504,3.212 0.811,3.158 1.053,2.951 1.208,2.683 1.366,2.412 1.448,2.073 1.448,1.706 1.448,1.564 1.436,1.417 1.408,1.27 1.283,0.574 0.904,0.006 0.393,-0.19 c -0.525,-3.15 -2.874,-5.558 -5.739,-5.563 -2.859,0.005 -5.203,2.404 -5.733,5.545 -0.536,0.177 -0.936,0.762 -1.067,1.478 -0.026,0.148 -0.039,0.294 -0.039,0.436 0,0.367 0.082,0.706 0.241,0.977 0.156,0.268 0.398,0.475 0.702,0.529 0.054,0.01 0.106,0.014 0.158,0.014 0.052,0 0.104,-0.003 0.154,-0.014 0.276,-0.055 0.397,-0.129 0.397,-0.129 l -0.1,-0.423 -0.23,0.1 c -0.076,0.033 -0.152,0.05 -0.221,0.05 -0.029,0 -0.055,-0.004 -0.082,-0.008 -0.16,-0.03 -0.304,-0.137 -0.418,-0.33 -0.114,-0.192 -0.184,-0.463 -0.184,-0.766 0,-0.118 0.011,-0.24 0.034,-0.364 0.112,-0.668 0.534,-1.136 0.871,-1.178 l 0.152,-0.022 0.022,-0.151 c 0.464,-3.051 2.7,-5.33 5.343,-5.326 C -2.697,-5.339 -0.462,-3.055 0,0"
             style="fill:#6b4126;fill-opacity:1;fill-rule:nonzero;stroke:none"
             id="path462" /></g><g
           id="g464"
           transform="translate(260.6045,600.8677)"><path
             d="m 0,0 c 0,-0.35 -0.223,-0.632 -0.494,-0.632 -0.277,0 -0.498,0.282 -0.498,0.632 0,0.349 0.221,0.632 0.498,0.632 C -0.223,0.632 0,0.349 0,0"
             style="fill:#231f20;fill-opacity:1;fill-rule:nonzero;stroke:none"
             id="path466" /></g><g
           id="g468"
           transform="translate(256.9033,600.8677)"><path
             d="m 0,0 c 0,-0.35 -0.223,-0.632 -0.494,-0.632 -0.276,0 -0.497,0.282 -0.497,0.632 0,0.349 0.221,0.632 0.497,0.632 C -0.223,0.632 0,0.349 0,0"
             style="fill:#231f20;fill-opacity:1;fill-rule:nonzero;stroke:none"
             id="path470" /></g><g
           id="g472"
           transform="translate(256.1445,596.5796)"><path
             d="M 0,0 C -0.101,0.055 -0.139,0.183 -0.082,0.283 -0.027,0.385 0.101,0.421 0.201,0.365 0.698,0.09 1.354,-0.08 2.07,-0.08 2.778,-0.08 3.428,0.088 3.922,0.357 4.024,0.412 4.15,0.375 4.206,0.274 4.262,0.172 4.224,0.045 4.122,-0.01 3.556,-0.317 2.844,-0.497 2.07,-0.497 1.288,-0.497 0.569,-0.313 0,0"
             style="fill:#6b4126;fill-opacity:1;fill-rule:nonzero;stroke:none"
             id="path474" /></g><g
           id="g476"
           transform="translate(258.2451,598.0015)"><path
             d="M 0,0 C -0.423,-0.002 -0.807,0.194 -1.093,0.499 -1.172,0.583 -1.168,0.716 -1.082,0.795 -1,0.874 -0.865,0.869 -0.788,0.785 -0.564,0.549 -0.291,0.417 0,0.417 0.287,0.417 0.553,0.541 0.771,0.764 0.852,0.846 0.983,0.85 1.065,0.769 1.147,0.688 1.15,0.555 1.07,0.473 0.788,0.183 0.414,0 0.003,0 Z"
             style="fill:#6b4126;fill-opacity:1;fill-rule:nonzero;stroke:none"
             id="path478" /></g><g
           id="g480"
           transform="translate(257.7393,574.644)"><path
             d="m 0,0 c -6.043,0 -8.785,1.588 -10.024,2.923 -1.149,1.237 -1.314,2.529 -1.25,3.393 0.003,0.038 0.006,0.091 0.011,0.163 0.295,4.777 1.315,8.095 2.868,9.343 0.832,0.668 2.148,1.173 3.913,1.501 l 0.273,0.05 -0.027,-0.275 c -0.001,-0.027 -0.236,-2.587 1.219,-4.193 0.79,-0.871 1.94,-1.313 3.42,-1.313 1.482,0 2.644,0.443 3.454,1.319 1.494,1.607 1.318,4.166 1.315,4.191 l -0.021,0.27 0.268,-0.049 C 7.184,16.995 8.501,16.49 9.332,15.822 10.886,14.574 11.902,11.256 12.198,6.479 12.203,6.407 12.206,6.354 12.21,6.316 12.274,5.452 12.11,4.163 10.961,2.924 9.723,1.591 6.979,0 0.934,0 0.779,0 0.623,0.002 0.464,0.003 0.313,0.002 0.156,0 0.001,0 Z"
             style="fill:#653778;fill-opacity:1;fill-rule:nonzero;stroke:none"
             id="path482" /></g><g
           id="g484"
           transform="translate(253.0713,591.5054)"><path
             d="m 0,0 c -1.564,-0.315 -2.73,-0.773 -3.466,-1.365 -1.462,-1.173 -2.424,-4.385 -2.712,-9.043 -0.005,-0.074 -0.007,-0.131 -0.01,-0.168 -0.059,-0.781 0.091,-1.951 1.139,-3.078 1.179,-1.274 3.826,-2.788 9.717,-2.788 0.153,-0.001 0.309,0 0.464,0.002 0.163,-0.002 0.317,-0.002 0.47,-0.002 5.893,0 8.54,1.516 9.719,2.79 1.049,1.127 1.2,2.295 1.141,3.076 -0.004,0.037 -0.006,0.094 -0.011,0.168 -0.289,4.658 -1.252,7.87 -2.713,9.043 -0.737,0.592 -1.904,1.051 -3.472,1.366 0.009,-0.734 -0.098,-2.794 -1.431,-4.233 -0.894,-0.965 -2.162,-1.456 -3.764,-1.456 -1.603,0 -2.858,0.49 -3.73,1.454 C 0.039,-2.796 -0.023,-0.742 0,0"
             style="fill:#c6a7d9;fill-opacity:1;fill-rule:nonzero;stroke:none"
             id="path486" /></g><g
           id="g488"
           transform="translate(250.0186,590.4263)"><path
             d="m 0,0 c -0.144,-0.089 -0.281,-0.186 -0.406,-0.286 -1.159,-0.919 -1.86,-3.065 -2.237,-5.058 -0.38,-1.995 -0.461,-3.821 -0.486,-4.153 -0.007,-0.095 -0.012,-0.19 -0.012,-0.286 0.005,-1.243 0.591,-2.614 2.244,-3.703 1.708,-1.008 2.824,-1.285 4.88,-1.694 -2.831,0.73 -5.989,3.413 -4.513,8.508 C 0.629,-2.659 0,0 0,0"
             style="fill:#9961b7;fill-opacity:1;fill-rule:nonzero;stroke:none"
             id="path490" /></g><g
           id="g492"
           transform="translate(266.4219,590.4263)"><path
             d="m 0,0 c 0.146,-0.089 0.281,-0.186 0.406,-0.286 1.159,-0.919 1.861,-3.065 2.236,-5.058 0.381,-1.995 0.463,-3.821 0.487,-4.153 0.008,-0.095 0.012,-0.19 0.012,-0.286 -0.004,-1.243 -0.592,-2.614 -2.244,-3.703 -1.709,-1.008 -2.824,-1.285 -4.88,-1.694 2.83,0.73 5.99,3.413 4.516,8.508 C -0.627,-2.659 0,0 0,0"
             style="fill:#9961b7;fill-opacity:1;fill-rule:nonzero;stroke:none"
             id="path494" /></g><g
           id="g496"
           transform="translate(349.1865,596.2446)"><path
             d="m 0,0 c -0.792,0 -2.119,1.06 -2.203,-0.235 -0.239,-3.715 -3.743,-2.221 -3.743,-3.609 0,-2.545 4.202,-5.973 5.946,-5.973 1.744,0 5.813,3.504 5.813,6.048 0,1.388 -3.366,-0.181 -3.609,3.534 C 2.121,1.06 0.793,0 0,0"
             style="fill:#c78b3a;fill-opacity:1;fill-rule:nonzero;stroke:none"
             id="path498" /></g><g
           id="g500"
           transform="translate(347.5176,596.1675)"><path
             d="m 0,0 c -0.112,0 -0.265,0 -0.29,-0.416 -0.162,-2.482 -1.739,-2.826 -2.785,-3.053 -0.696,-0.151 -0.957,-0.236 -0.957,-0.541 0,-2.341 4.004,-5.73 5.701,-5.73 1.659,0 5.568,3.434 5.568,5.806 0,0.288 -0.206,0.371 -0.912,0.516 C 5.318,-3.213 3.792,-2.902 3.632,-0.416 3.604,0 3.451,0 3.338,0 3.142,0 2.864,-0.097 2.594,-0.189 2.283,-0.297 1.96,-0.409 1.669,-0.409 c -0.287,0 -0.611,0.112 -0.925,0.22 C 0.476,-0.097 0.199,0 0,0 m 1.669,-10.227 c -1.94,0 -6.19,3.547 -6.19,6.217 0,0.725 0.682,0.872 1.343,1.016 1.062,0.231 2.264,0.492 2.403,2.609 0.044,0.719 0.446,0.87 0.775,0.87 0.279,0 0.596,-0.108 0.902,-0.215 0.277,-0.095 0.561,-0.193 0.767,-0.193 0.206,0 0.492,0.098 0.766,0.193 0.306,0.107 0.627,0.215 0.903,0.215 0.328,0 0.731,-0.151 0.78,-0.87 0.135,-2.115 1.287,-2.351 2.304,-2.557 0.64,-0.129 1.302,-0.265 1.302,-0.992 0,-2.702 -4.155,-6.293 -6.055,-6.293"
             style="fill:#855333;fill-opacity:1;fill-rule:nonzero;stroke:none"
             id="path502" /></g><g
           id="g504"
           transform="translate(349.0459,588.9233)"><path
             d="M 0,0 C 0.354,0 0.58,0.109 0.726,0.542 1.414,2.609 2.895,2.369 3.221,4.213 3.356,4.994 4.186,4.985 4.477,4.612 4.943,4.013 5.729,3.909 6.619,3.735 7.701,3.524 8.538,3.102 9.545,2.366 12.251,0.389 12.553,-7.95 12.607,-8.595 12.83,-11.297 10.114,-14.766 0,-14.645 h 0.053 c -10.117,-0.121 -12.828,3.348 -12.608,6.05 0.056,0.645 0.356,8.984 3.061,10.961 1.011,0.736 1.844,1.158 2.927,1.369 0.893,0.174 1.678,0.278 2.144,0.877 0.29,0.373 1.12,0.382 1.254,-0.399 C -2.843,2.369 -1.361,2.609 -0.673,0.542 -0.527,0.109 -0.3,0 0.055,0 Z"
             style="fill:#9fcbe5;fill-opacity:1;fill-rule:nonzero;stroke:none"
             id="path506" /></g><g
           id="g508"
           transform="translate(349.0459,588.9233)"><path
             d="m 0,0 v -0.207 c 0.101,0 0.199,0.008 0.298,0.03 0.147,0.033 0.29,0.107 0.398,0.22 0.109,0.114 0.188,0.259 0.248,0.439 0.164,0.497 0.373,0.844 0.599,1.123 0.339,0.418 0.73,0.685 1.094,1.04 C 2.818,2.822 2.99,3.022 3.133,3.272 3.271,3.521 3.381,3.816 3.445,4.181 3.479,4.372 3.556,4.484 3.64,4.553 3.725,4.622 3.822,4.649 3.928,4.649 4.073,4.652 4.22,4.584 4.291,4.492 4.422,4.322 4.581,4.186 4.751,4.075 5.014,3.913 5.304,3.811 5.611,3.732 5.918,3.653 6.24,3.598 6.574,3.533 7.095,3.432 7.551,3.278 8.004,3.063 8.459,2.848 8.906,2.565 9.403,2.202 9.71,1.978 9.997,1.652 10.254,1.248 c 0.451,-0.704 0.814,-1.642 1.096,-2.656 0.425,-1.523 0.673,-3.218 0.82,-4.584 0.074,-0.682 0.121,-1.282 0.151,-1.739 0.033,-0.457 0.047,-0.766 0.056,-0.879 0.009,-0.094 0.015,-0.19 0.015,-0.285 -0.003,-0.618 -0.165,-1.266 -0.551,-1.896 -0.581,-0.945 -1.667,-1.854 -3.484,-2.531 -1.818,-0.677 -4.368,-1.118 -7.847,-1.118 -0.166,0 -0.335,0.002 -0.508,0.002 L 0,-14.645 v -0.207 h 0.053 v 0.207 l -0.004,0.207 c -0.171,0 -0.34,-0.002 -0.508,-0.002 -4.639,0 -7.622,0.785 -9.427,1.865 -0.902,0.54 -1.514,1.153 -1.901,1.784 -0.387,0.63 -0.548,1.278 -0.548,1.896 0,0.095 0,0.191 0.011,0.285 0.006,0.087 0.014,0.285 0.033,0.579 0.066,1.022 0.23,3.179 0.673,5.288 0.218,1.053 0.509,2.095 0.886,2.97 0.375,0.877 0.841,1.584 1.382,1.975 0.497,0.363 0.947,0.646 1.398,0.861 0.454,0.215 0.909,0.369 1.432,0.47 0.443,0.087 0.871,0.155 1.263,0.286 0.195,0.067 0.384,0.148 0.557,0.256 0.172,0.111 0.329,0.247 0.463,0.417 0.067,0.092 0.216,0.16 0.363,0.157 0.103,0 0.202,-0.027 0.288,-0.096 0.082,-0.069 0.159,-0.181 0.193,-0.372 0.086,-0.486 0.252,-0.85 0.465,-1.143 0.157,-0.22 0.34,-0.398 0.528,-0.564 0.279,-0.249 0.564,-0.471 0.825,-0.767 0.261,-0.297 0.498,-0.667 0.684,-1.225 0.037,-0.12 0.088,-0.224 0.148,-0.315 0.089,-0.133 0.21,-0.239 0.354,-0.297 0.141,-0.061 0.29,-0.077 0.442,-0.077 V 0.208 H 0 V -0.207 0 -0.207 h 0.053 v 0.415 c -0.074,0 -0.137,0.007 -0.186,0.018 -0.073,0.017 -0.118,0.04 -0.17,0.091 -0.049,0.052 -0.102,0.141 -0.15,0.285 -0.18,0.537 -0.415,0.935 -0.671,1.25 C -1.51,2.324 -1.928,2.609 -2.252,2.927 -2.413,3.087 -2.553,3.255 -2.673,3.462 -2.789,3.67 -2.882,3.919 -2.942,4.247 -2.987,4.513 -3.11,4.723 -3.283,4.862 -3.457,5.002 -3.672,5.066 -3.874,5.065 -4.162,5.065 -4.439,4.947 -4.61,4.733 -4.71,4.603 -4.828,4.502 -4.961,4.418 -5.158,4.291 -5.402,4.203 -5.682,4.131 -5.963,4.06 -6.276,4.005 -6.614,3.938 -7.174,3.829 -7.676,3.663 -8.166,3.432 -8.65,3.198 -9.124,2.899 -9.634,2.527 c -0.369,-0.269 -0.685,-0.635 -0.961,-1.07 -0.485,-0.758 -0.854,-1.727 -1.143,-2.765 -0.436,-1.553 -0.686,-3.265 -0.834,-4.643 -0.074,-0.69 -0.121,-1.295 -0.153,-1.753 -0.031,-0.46 -0.047,-0.777 -0.055,-0.875 -0.007,-0.105 -0.013,-0.209 -0.013,-0.316 0,-0.685 0.182,-1.406 0.606,-2.099 0.639,-1.041 1.82,-2.009 3.71,-2.713 1.892,-0.703 4.498,-1.147 8.018,-1.147 0.168,0 0.341,0 0.514,0.002 l -0.002,0.414 H 0 l -0.005,-0.414 c 0.176,-0.002 0.347,-0.002 0.515,-0.002 4.693,0 7.765,0.789 9.678,1.931 0.958,0.573 1.625,1.236 2.048,1.929 0.428,0.693 0.61,1.414 0.61,2.099 0,0.107 -0.004,0.211 -0.012,0.316 -0.004,0.073 -0.019,0.278 -0.037,0.572 -0.064,1.03 -0.23,3.202 -0.675,5.341 -0.226,1.069 -0.52,2.132 -0.912,3.044 C 10.818,1.289 10.331,2.055 9.687,2.527 9.176,2.899 8.703,3.198 8.216,3.432 7.729,3.663 7.229,3.829 6.668,3.938 6.217,4.025 5.806,4.095 5.468,4.21 5.297,4.266 5.145,4.333 5.014,4.418 4.88,4.502 4.765,4.603 4.662,4.733 4.492,4.947 4.214,5.065 3.928,5.065 3.723,5.066 3.509,5.002 3.338,4.862 3.162,4.723 3.042,4.513 2.994,4.247 2.916,3.811 2.775,3.513 2.602,3.268 2.466,3.083 2.309,2.927 2.133,2.771 1.87,2.534 1.563,2.298 1.273,1.966 0.979,1.634 0.707,1.207 0.506,0.602 0.474,0.507 0.439,0.434 0.405,0.383 0.352,0.304 0.307,0.271 0.248,0.246 0.194,0.222 0.112,0.208 0,0.208 v -0.415 z"
             style="fill:#2a607f;fill-opacity:1;fill-rule:nonzero;stroke:none"
             id="path510" /></g><g
           id="g512"
           transform="translate(341.2344,592.0288)"><path
             d="m 0,0 c -0.566,-0.209 -1.147,-0.609 -1.547,-0.901 -1.254,-0.903 -2.034,-3.32 -2.443,-5.576 -0.419,-2.262 -0.505,-4.907 -0.533,-5.238 -0.01,-0.095 -0.012,-0.19 -0.012,-0.287 0.002,-1.234 0.645,-2.597 2.446,-3.679 0.572,-0.342 1.264,-0.655 2.089,-0.923 z"
             style="fill:#508eaf;fill-opacity:1;fill-rule:nonzero;stroke:none"
             id="path514" /></g><g
           id="g516"
           transform="translate(356.876,592.0288)"><path
             d="m 0,0 c 0.566,-0.209 1.15,-0.609 1.546,-0.901 1.258,-0.903 2.036,-3.32 2.444,-5.576 0.416,-2.262 0.506,-4.907 0.533,-5.238 0.008,-0.095 0.012,-0.19 0.012,-0.287 C 4.533,-13.236 3.891,-14.599 2.089,-15.681 1.517,-16.023 0.825,-16.336 0,-16.604 Z"
             style="fill:#508eaf;fill-opacity:1;fill-rule:nonzero;stroke:none"
             id="path518" /></g><g
           id="g520"
           transform="translate(355.208,602.2065)"><path
             d="m 0,0 c -0.134,0.023 -0.27,0.006 -0.397,-0.043 -0.696,2.939 -2.969,5.097 -5.666,5.097 -2.706,0 -4.98,-2.165 -5.672,-5.114 -0.144,0.063 -0.293,0.085 -0.44,0.06 -0.58,-0.104 -0.926,-0.898 -0.77,-1.776 0.133,-0.756 0.594,-1.327 1.09,-1.405 0.495,-3.264 2.898,-5.741 5.792,-5.741 2.893,0 5.298,2.483 5.791,5.751 0.475,0.107 0.911,0.664 1.041,1.395 C 0.926,-0.898 0.578,-0.104 0,0"
             style="fill:#c78b3a;fill-opacity:1;fill-rule:nonzero;stroke:none"
             id="path522" /></g><g
           id="g524"
           transform="translate(354.7197,599.0679)"><path
             d="M 0,0 0.021,0.147 0.168,0.18 C 0.516,0.247 0.928,0.728 1.041,1.4 1.065,1.529 1.076,1.658 1.076,1.781 1.076,2.098 1.004,2.379 0.882,2.579 0.766,2.781 0.615,2.895 0.45,2.923 L 0.488,3.139 0.45,2.923 C 0.422,2.928 0.392,2.931 0.366,2.931 0.301,2.931 0.232,2.918 0.166,2.893 L -0.065,2.805 -0.123,3.046 C -0.801,5.91 -3.002,7.977 -5.578,7.974 -8.156,7.977 -10.361,5.901 -11.035,3.029 l -0.06,-0.254 -0.24,0.105 c -0.079,0.033 -0.156,0.051 -0.231,0.051 -0.03,0 -0.057,-0.003 -0.084,-0.008 -0.166,-0.028 -0.317,-0.142 -0.436,-0.344 -0.117,-0.2 -0.192,-0.481 -0.192,-0.798 0,-0.123 0.012,-0.251 0.035,-0.381 0.119,-0.696 0.556,-1.183 0.908,-1.227 l 0.158,-0.026 0.026,-0.156 c 0.483,-3.182 2.815,-5.561 5.573,-5.556 C -2.816,-5.57 -0.481,-3.187 0,0 m -11.562,-0.217 c -0.557,0.186 -0.974,0.795 -1.11,1.541 -0.026,0.156 -0.041,0.31 -0.041,0.457 0,0.384 0.088,0.736 0.252,1.018 0.161,0.281 0.414,0.497 0.733,0.554 0.055,0.008 0.108,0.013 0.162,0.013 0.054,0 0.108,-0.005 0.163,-0.013 0.767,2.911 3.067,5.055 5.825,5.057 C -2.821,8.408 -0.522,6.267 0.249,3.358 0.287,3.364 0.327,3.366 0.366,3.366 0.42,3.366 0.473,3.361 0.525,3.353 0.846,3.296 1.098,3.08 1.259,2.799 1.424,2.517 1.512,2.165 1.512,1.781 1.512,1.634 1.498,1.479 1.47,1.324 1.336,0.6 0.942,0.007 0.41,-0.199 c -0.548,-3.286 -2.998,-5.798 -5.988,-5.802 -2.981,0.004 -5.43,2.508 -5.984,5.784"
             style="fill:#805031;fill-opacity:1;fill-rule:nonzero;stroke:none"
             id="path526" /></g><g
           id="g528"
           transform="translate(351.5908,601.5884)"><path
             d="m 0,0 c 0,-0.363 -0.232,-0.659 -0.518,-0.659 -0.286,0 -0.517,0.296 -0.517,0.659 0,0.364 0.231,0.659 0.517,0.659 C -0.232,0.659 0,0.364 0,0"
             style="fill:#3a1d0e;fill-opacity:1;fill-rule:nonzero;stroke:none"
             id="path530" /></g><g
           id="g532"
           transform="translate(347.7314,601.5884)"><path
             d="m 0,0 c 0,-0.363 -0.232,-0.659 -0.52,-0.659 -0.282,0 -0.516,0.296 -0.516,0.659 0,0.364 0.234,0.659 0.516,0.659 C -0.232,0.659 0,0.364 0,0"
             style="fill:#3a1d0e;fill-opacity:1;fill-rule:nonzero;stroke:none"
             id="path534" /></g><g
           id="g536"
           transform="translate(351.0381,597.395)"><path
             d="m 0,0 c -0.521,-0.283 -1.199,-0.457 -1.939,-0.457 -0.749,0 -1.434,0.177 -1.954,0.465 -0.102,0.055 -0.23,0.019 -0.284,-0.081 -0.054,-0.101 -0.017,-0.227 0.081,-0.282 0.592,-0.326 1.342,-0.517 2.157,-0.518 0.804,0.001 1.547,0.187 2.136,0.507 0.101,0.055 0.136,0.181 0.084,0.282 C 0.225,0.018 0.101,0.054 0,0"
             style="fill:#805031;fill-opacity:1;fill-rule:nonzero;stroke:none"
             id="path538" /></g><g
           id="g540"
           transform="translate(349.9434,599.3892)"><path
             d="m 0,0 c -0.231,-0.234 -0.511,-0.365 -0.811,-0.367 -0.31,0.002 -0.597,0.14 -0.831,0.388 -0.078,0.085 -0.21,0.089 -0.294,0.011 -0.085,-0.079 -0.086,-0.21 -0.009,-0.294 0.296,-0.317 0.694,-0.519 1.134,-0.518 0.427,-0.001 0.816,0.189 1.108,0.491 0.079,0.081 0.079,0.212 -0.004,0.292 C 0.211,0.084 0.08,0.082 0,0"
             style="fill:#805031;fill-opacity:1;fill-rule:nonzero;stroke:none"
             id="path542" /></g></g></g><g
       id="g544"><g
         id="g546"><g
           id="g552"><g
             id="g554"><path
               d="m 342.142,601.626 c 0.435,0.941 1.061,0.905 1.59,0.665 v 0 l -0.106,-0.446 c 0,0 0.146,-0.362 0.763,-0.451 v 0 c 0.841,1.684 1.024,2.15 1.082,4.039 v 0 c 0,0 1.651,-0.35 3.676,-0.35 v 0 l 3.677,0.35 c 0.061,-1.889 0.241,-2.355 1.083,-4.039 v 0 l 0.747,0.478 c 0,0 -0.069,0.327 -0.094,0.419 v 0 c 0.517,0.27 1.197,0.195 1.552,-0.709 v 0 c 0.136,4.014 -0.433,8.381 -6.965,8.381 v 0 c -6.533,0 -7.139,-4.325 -7.005,-8.337"
               style="fill:url(#linearGradient562);stroke:none"
               id="path564" /></g></g></g></g><g
       id="g566"><g
         id="g568"
         clip-path="url(#clipPath572)"><g
           id="g574"
           transform="translate(349.1465,609.9634)"><path
             d="M 0,0 C 6.532,0 7.102,-4.368 6.966,-8.382 6.61,-7.478 5.931,-7.402 5.414,-7.673 5.438,-7.765 5.508,-8.091 5.508,-8.091 L 4.761,-8.569 C 3.919,-6.885 3.738,-6.419 3.678,-4.53 L 0,-4.88 c -2.024,0 -3.675,0.35 -3.675,0.35 -0.058,-1.889 -0.241,-2.355 -1.083,-4.039 -0.616,0.09 -0.763,0.451 -0.763,0.451 l 0.107,0.445 c -0.529,0.24 -1.155,0.277 -1.59,-0.665 C -7.139,-4.325 -6.532,0 0,0 Z"
             style="fill:none;stroke:#231f20;stroke-width:0.5;stroke-linecap:round;stroke-linejoin:round;stroke-miterlimit:4;stroke-dasharray:none;stroke-opacity:1"
             id="path576" /></g></g></g><g
       id="g578"><g
         id="g580"><g
           id="g586"><g
             id="g588"><path
               d="m 307.203,564.121 c -5.301,-0.785 -5.301,-2.052 0,-2.835 v 0 c 5.304,-0.784 13.902,-0.784 19.203,0 v 0 c 5.302,0.783 5.302,2.05 0,2.835 v 0 c -2.651,0.391 -6.125,0.586 -9.6,0.586 v 0 c -3.475,0 -6.951,-0.195 -9.603,-0.586"
               style="fill:url(#linearGradient594);stroke:none"
               id="path596" /></g></g></g></g><g
       id="g598"><g
         id="g600"
         clip-path="url(#clipPath604)"><g
           id="g606"
           transform="translate(317.29,574.2954)"><path
             d="m 0,0 c -2.1,0 -6.691,3.836 -6.691,6.721 0,0.784 0.737,0.945 1.451,1.099 1.146,0.25 2.447,0.532 2.594,2.821 0.05,0.778 0.486,0.941 0.841,0.941 0.302,0 0.647,-0.118 0.976,-0.233 0.3,-0.102 0.605,-0.208 0.829,-0.208 0.225,0 0.531,0.106 0.829,0.208 0.331,0.115 0.675,0.233 0.975,0.233 0.356,0 0.791,-0.163 0.841,-0.941 C 2.793,8.354 4.039,8.101 5.139,7.877 5.83,7.736 6.544,7.59 6.544,6.803 6.544,3.883 2.054,0 0,0"
             style="fill:#a17035;fill-opacity:1;fill-rule:nonzero;stroke:none"
             id="path608" /></g><g
           id="g610"
           transform="translate(315.4854,585.3521)"><path
             d="m 0,0 c -0.123,0 -0.288,0 -0.316,-0.449 -0.173,-2.684 -1.879,-3.056 -3.008,-3.301 -0.754,-0.162 -1.037,-0.255 -1.037,-0.586 0,-2.528 4.33,-6.195 6.166,-6.195 1.793,0 6.021,3.715 6.021,6.277 0,0.311 -0.222,0.403 -0.988,0.56 -1.09,0.222 -2.737,0.557 -2.912,3.245 C 3.896,0 3.729,0 3.608,0 3.396,0 3.096,-0.104 2.804,-0.203 2.466,-0.32 2.117,-0.441 1.805,-0.441 1.494,-0.441 1.143,-0.32 0.806,-0.203 0.515,-0.104 0.213,0 0,0"
             style="fill:#f0b15a;fill-opacity:1;fill-rule:nonzero;stroke:none"
             id="path612" /></g><g
           id="g614"
           transform="translate(311.2178,588.4194)"><path
             d="m 0,0 c -0.563,0.188 -0.983,0.802 -1.119,1.555 -0.028,0.156 -0.042,0.31 -0.042,0.461 0,0.385 0.087,0.741 0.252,1.026 0.164,0.283 0.419,0.5 0.738,0.558 0.058,0.01 0.113,0.015 0.165,0.015 0.057,0 0.11,-0.005 0.163,-0.015 0.776,2.936 3.096,5.097 5.878,5.101 2.778,-0.004 5.097,-2.161 5.872,-5.095 0.042,0.004 0.081,0.009 0.122,0.009 0.053,0 0.106,-0.005 0.159,-0.015 0.323,-0.058 0.579,-0.275 0.744,-0.558 0.165,-0.285 0.25,-0.641 0.252,-1.026 0,-0.151 -0.016,-0.305 -0.041,-0.461 C 13.009,0.823 12.609,0.226 12.072,0.019 11.52,-3.296 9.049,-5.829 6.035,-5.834 3.025,-5.829 0.558,-3.305 0,0"
             style="fill:#a17035;fill-opacity:1;fill-rule:nonzero;stroke:none"
             id="path616" /></g><g
           id="g618"
           transform="translate(322.8779,588.6382)"><path
             d="M 0,0 0.021,0.149 0.168,0.182 C 0.517,0.25 0.934,0.735 1.05,1.412 1.072,1.544 1.083,1.673 1.083,1.797 1.083,2.115 1.01,2.4 0.89,2.602 0.771,2.805 0.619,2.918 0.452,2.947 L 0.49,3.165 0.451,2.948 C 0.423,2.953 0.396,2.956 0.369,2.957 0.303,2.956 0.234,2.944 0.165,2.917 L -0.066,2.829 -0.123,3.073 C -0.81,5.96 -3.029,8.045 -5.625,8.042 -8.227,8.045 -10.449,5.952 -11.129,3.057 L -11.191,2.8 -11.432,2.905 c -0.08,0.034 -0.157,0.052 -0.234,0.052 -0.028,0 -0.057,-0.004 -0.084,-0.01 -0.168,-0.029 -0.32,-0.142 -0.438,-0.345 -0.121,-0.202 -0.194,-0.487 -0.194,-0.805 0,-0.124 0.009,-0.253 0.034,-0.385 0.118,-0.702 0.561,-1.194 0.916,-1.237 l 0.159,-0.026 0.024,-0.158 c 0.49,-3.209 2.842,-5.606 5.624,-5.604 C -2.841,-5.615 -0.485,-3.214 0,0"
             style="fill:#f0b15a;fill-opacity:1;fill-rule:nonzero;stroke:none"
             id="path620" /></g><g
           id="g622"
           transform="translate(319.7217,591.1812)"><path
             d="m 0,0 c 0,-0.368 -0.234,-0.664 -0.522,-0.664 -0.29,0 -0.523,0.296 -0.523,0.664 0,0.367 0.233,0.665 0.523,0.665 C -0.234,0.665 0,0.367 0,0"
             style="fill:#855333;fill-opacity:1;fill-rule:nonzero;stroke:none"
             id="path624" /></g><g
           id="g626"
           transform="translate(315.8291,591.1812)"><path
             d="m 0,0 c 0,-0.368 -0.234,-0.664 -0.522,-0.664 -0.291,0 -0.523,0.296 -0.523,0.664 0,0.367 0.232,0.665 0.523,0.665 C -0.234,0.665 0,0.367 0,0"
             style="fill:#855333;fill-opacity:1;fill-rule:nonzero;stroke:none"
             id="path628" /></g><g
           id="g630"
           transform="translate(319.1631,586.9507)"><path
             d="m 0,0 c -0.526,-0.284 -1.209,-0.46 -1.956,-0.46 -0.753,0 -1.444,0.179 -1.971,0.47 -0.1,0.054 -0.228,0.018 -0.284,-0.083 -0.056,-0.102 -0.018,-0.229 0.081,-0.284 0.598,-0.33 1.354,-0.522 2.174,-0.522 0.813,0 1.561,0.189 2.156,0.511 0.101,0.056 0.138,0.181 0.083,0.284 C 0.229,0.018 0.102,0.056 0,0"
             style="fill:#855333;fill-opacity:1;fill-rule:nonzero;stroke:none"
             id="path632" /></g><g
           id="g634"
           transform="translate(318.0566,588.9614)"><path
             d="m 0,0 c -0.231,-0.235 -0.513,-0.367 -0.816,-0.367 -0.312,0 -0.603,0.14 -0.838,0.39 -0.077,0.085 -0.212,0.088 -0.296,0.01 -0.084,-0.078 -0.089,-0.212 -0.009,-0.295 0.296,-0.32 0.7,-0.525 1.143,-0.524 0.429,-0.001 0.822,0.191 1.115,0.495 C 0.382,-0.208 0.38,-0.076 0.297,0.005 0.215,0.085 0.083,0.084 0,0"
             style="fill:#855333;fill-opacity:1;fill-rule:nonzero;stroke:none"
             id="path636" /></g><g
           id="g638"
           transform="translate(312.8408,592.563)"><path
             d="M 0,0 C 0.461,1.33 1.578,2.694 1.578,2.694 3.205,0.664 8.606,1.071 8.606,1.071 L 8.9,-0.552 c 0,-1.063 0.21,-1.298 0.735,-1.218 0.256,0.04 0.386,0.254 0.336,0.674 -0.041,0.778 0.938,0.553 1.174,0.218 0.405,0.866 0.514,5.06 -2.352,7.258 C 5.836,8.646 2.466,8.264 0.526,6.549 -2.28,6.064 -3.328,1.533 -2.712,-1.545 c 0.394,1.376 1.645,1.154 1.558,0.42 -0.083,-0.732 0.386,-0.722 0.551,-0.725 C -0.059,-1.857 -0.286,-0.819 0,0"
             style="fill:#9e5c39;fill-opacity:1;fill-rule:nonzero;stroke:none"
             id="path640" /></g><g
           id="g642"
           transform="translate(317.7725,562.8569)"><path
             d="M 0,0 C -0.17,0 -0.343,0.001 -0.518,0.003 -0.686,0.001 -0.857,0 -1.028,0 c -6.888,0 -9.898,1.699 -11.21,3.124 -1.108,1.2 -1.26,2.431 -1.194,3.25 0.006,0.045 0.011,0.125 0.016,0.239 0.245,4.139 0.998,9.409 3.175,11 1.104,0.804 1.987,1.219 3.049,1.425 0.165,0.033 0.317,0.056 0.463,0.078 0.643,0.098 1.067,0.162 1.754,0.871 0.147,0.152 0.296,0.226 0.457,0.226 0.325,0 0.567,-0.282 0.971,-0.75 1.017,-1.177 1.491,-1.68 2.154,-2.203 l 0.105,-0.085 c 0.231,-0.189 0.472,-0.384 0.77,-0.384 0.305,0 0.544,0.195 0.777,0.384 l 0.104,0.085 c 0.664,0.523 1.139,1.026 2.136,2.18 0.423,0.491 0.668,0.773 0.99,0.773 0.161,0 0.31,-0.074 0.456,-0.226 0.686,-0.709 1.112,-0.773 1.753,-0.871 0.148,-0.022 0.298,-0.045 0.464,-0.078 1.063,-0.206 1.944,-0.621 3.049,-1.425 2.178,-1.591 2.928,-6.861 3.174,-11 C 12.391,6.499 12.396,6.419 12.4,6.374 12.466,5.554 12.313,4.323 11.209,3.123 9.897,1.697 6.886,0 0,0"
             style="fill:#bac6e0;fill-opacity:1;fill-rule:nonzero;stroke:none"
             id="path644" /></g></g></g><g
       id="g646"><g
         id="g648"><g
           id="g654"><g
             id="g656"><path
               d="m 320.661,581.999 c -0.995,-1.15 -1.516,-1.711 -2.222,-2.267 v 0 l -0.098,-0.079 c -0.258,-0.21 -0.608,-0.495 -1.081,-0.495 v 0 c -0.478,0 -0.828,0.285 -1.086,0.495 v 0 l -0.097,0.079 c -0.706,0.556 -1.227,1.117 -2.201,2.244 v 0 c -0.256,0.296 -0.521,0.603 -0.621,0.603 v 0 c -0.012,0 -0.047,-0.016 -0.105,-0.076 v 0 c -0.801,-0.827 -1.374,-0.914 -2.033,-1.014 v 0 c -0.139,-0.022 -0.284,-0.043 -0.441,-0.075 v 0 c -1,-0.195 -1.8,-0.57 -2.857,-1.341 v 0 c -1.577,-1.153 -2.633,-4.929 -2.972,-10.632 v 0 c -0.008,-0.118 -0.014,-0.204 -0.016,-0.25 v 0 c -0.059,-0.723 0.077,-1.808 1.065,-2.878 v 0 c 1.243,-1.353 4.138,-2.965 10.848,-2.965 v 0 c 0.169,0 0.339,0 0.51,0.002 v 0 c 0.18,-0.002 0.35,-0.002 0.519,-0.002 v 0 c 6.709,0 9.601,1.612 10.847,2.964 v 0 c 0.986,1.071 1.124,2.156 1.063,2.879 v 0 c -0.002,0.046 -0.009,0.132 -0.015,0.25 v 0 c -0.339,5.703 -1.394,9.479 -2.973,10.632 v 0 c -1.056,0.771 -1.855,1.146 -2.855,1.341 v 0 c -0.158,0.032 -0.302,0.053 -0.441,0.075 v 0 c -0.661,0.1 -1.231,0.187 -2.032,1.014 v 0 c -0.06,0.06 -0.094,0.076 -0.106,0.076 v 0 c -0.1,0 -0.365,-0.307 -0.6,-0.58"
               style="fill:url(#linearGradient662);stroke:none"
               id="path664" /></g></g></g></g><g
       id="g666"><g
         id="g668"><g
           id="g674"><g
             id="g676"><path
               d="m 316.181,577.064 0.741,-1.278 c -0.706,0.554 -0.741,-12.169 -0.741,-12.169 v 0 h 2.145 c 0,0 -0.037,12.723 -0.744,12.169 v 0 l 0.744,1.278 c -0.248,0.535 -0.594,1.402 -1.073,1.402 v 0 c -0.478,0 -0.826,-0.867 -1.072,-1.402"
               style="fill:url(#linearGradient682);stroke:none"
               id="path684" /></g></g></g></g><g
       id="g686"><g
         id="g688"><g
           id="g694"><g
             id="g696"><path
               d="m 321.499,581.083 c -0.364,-0.416 -0.75,-1.248 -1.162,-2.131 v 0 c -0.347,-0.745 -0.707,-1.518 -0.988,-1.871 v 0 c -0.139,-0.176 -0.198,-0.181 -0.198,-0.181 v 0 c 0,0 -0.065,0.006 -0.222,0.212 v 0 c -0.047,0.062 -0.127,0.221 -0.215,0.386 v 0 c -0.332,0.634 -0.745,1.422 -1.291,1.422 v 0 h -0.006 -0.346 -0.006 c -0.549,0 -0.962,-0.788 -1.295,-1.422 v 0 c -0.088,-0.165 -0.169,-0.324 -0.216,-0.386 v 0 c -0.154,-0.206 -0.222,-0.212 -0.222,-0.212 v 0 c 0,0 -0.055,0.005 -0.195,0.181 v 0 c -0.285,0.353 -0.643,1.126 -0.989,1.871 v 0 c -0.412,0.883 -0.8,1.715 -1.16,2.131 v 0 c -0.09,0.103 -0.245,0.113 -0.348,0.024 v 0 c -0.102,-0.088 -0.113,-0.243 -0.023,-0.345 v 0 c 0.317,-0.364 0.706,-1.205 1.085,-2.017 v 0 c 0.377,-0.809 0.732,-1.571 1.053,-1.972 v 0 c 0.137,-0.171 0.332,-0.368 0.584,-0.364 v 0 c 0.267,0.003 0.465,0.22 0.606,0.408 v 0 c 0.072,0.094 0.155,0.253 0.261,0.453 v 0 c 0.164,0.319 0.611,1.158 0.86,1.16 v 0 h 0.353 0.002 c 0.252,0 0.693,-0.842 0.858,-1.16 v 0 c 0.106,-0.2 0.19,-0.359 0.261,-0.453 v 0 c 0.142,-0.188 0.338,-0.405 0.605,-0.408 v 0 h 0.007 c 0.253,0 0.441,0.194 0.578,0.364 v 0 c 0.322,0.401 0.675,1.163 1.053,1.972 v 0 c 0.378,0.812 0.77,1.653 1.085,2.017 v 0 c 0.09,0.102 0.078,0.257 -0.024,0.345 v 0 c -0.047,0.04 -0.105,0.06 -0.162,0.06 v 0 c -0.068,0 -0.135,-0.028 -0.183,-0.084"
               style="fill:url(#linearGradient702);stroke:none"
               id="path704" /></g></g></g></g><g
       id="g706"><g
         id="g708"><g
           id="g714"><g
             id="g716"><path
               d="m 307.908,580.054 c -1.292,-0.909 -2.092,-3.347 -2.513,-5.624 v 0 c -0.428,-2.28 -0.519,-4.948 -0.548,-5.283 v 0 c -0.008,-0.096 -0.01,-0.191 -0.01,-0.289 v 0 c 0.002,-1.245 0.661,-2.619 2.516,-3.711 v 0 c 0.587,-0.345 1.299,-0.662 2.147,-0.931 v 0 16.748 c -0.584,-0.212 -1.182,-0.616 -1.592,-0.91"
               style="fill:url(#linearGradient722);stroke:none"
               id="path724" /></g></g></g></g><g
       id="g726"><g
         id="g728"><g
           id="g734"><g
             id="g736"><path
               d="m 325.066,564.216 c 0.849,0.269 1.561,0.586 2.148,0.931 v 0 c 1.852,1.092 2.512,2.466 2.515,3.711 v 0 c 0,0.098 -0.003,0.193 -0.011,0.289 v 0 c -0.026,0.335 -0.118,3.003 -0.549,5.283 v 0 c -0.42,2.277 -1.219,4.715 -2.512,5.624 v 0 c -0.409,0.294 -1.007,0.698 -1.591,0.91 v 0 z"
               style="fill:url(#linearGradient742);stroke:none"
               id="path744" /></g></g></g></g><g
       id="g746"><g
         id="g748"><g
           id="g754"><g
             id="g756"><path
               d="m 368.939,584.238 c 0.047,-2.549 0.086,-3.453 0.675,-5.013 v 0 c 0.59,-1.561 1.441,-5.191 7.639,-5.191 v 0 c 6.195,0 8.848,2.259 9.3,4.574 v 0 c 0.133,0.688 -1.295,0.117 -1.363,2.262 v 0 c -0.049,1.667 0.377,3.368 0.377,3.368 v 0 c 0.995,6.707 -3.733,10.786 -8.314,10.786 v 0 c -4.582,0 -8.426,-5.091 -8.314,-10.786"
               style="fill:url(#linearGradient762);stroke:none"
               id="path764" /></g></g></g></g><g
       id="g766"><g
         id="g768"><g
           id="g774"><g
             id="g776"><path
               d="m 377.436,578.788 c -0.875,0 -2.345,1.174 -2.437,-0.259 v 0 c -0.267,-4.109 -4.138,-2.456 -4.138,-3.991 v 0 c 0,-2.813 4.647,-6.607 6.575,-6.607 v 0 c 1.927,0 6.427,3.877 6.427,6.69 v 0 c 0,1.536 -3.723,-0.201 -3.989,3.908 v 0 c -0.036,0.543 -0.269,0.712 -0.592,0.712 v 0 c -0.53,0 -1.302,-0.453 -1.846,-0.453"
               style="fill:url(#linearGradient782);stroke:none"
               id="path784" /></g></g></g></g><g
       id="g786"><g
         id="g788"><g
           id="g794"><g
             id="g796"><path
               d="m 369.074,556.822 c -4.48,-0.662 -4.48,-1.733 0,-2.396 v 0 c 4.482,-0.662 11.747,-0.662 16.228,0 v 0 c 4.48,0.663 4.48,1.734 0,2.396 v 0 c -2.241,0.33 -5.177,0.495 -8.114,0.495 v 0 c -2.937,0 -5.873,-0.165 -8.114,-0.495"
               style="fill:url(#linearGradient804);stroke:none"
               id="path806" /></g></g></g></g><g
       id="g808"><g
         id="g810"
         clip-path="url(#clipPath814)"><g
           id="g816"
           transform="translate(375.5898,578.7046)"><path
             d="M 0,0 C -0.124,0 -0.294,0 -0.325,-0.461 -0.5,-3.206 -2.246,-3.586 -3.399,-3.837 -4.172,-4.003 -4.46,-4.099 -4.46,-4.435 c 0,-2.587 4.428,-6.338 6.306,-6.338 1.833,0 6.158,3.799 6.158,6.421 0,0.318 -0.228,0.412 -1.01,0.572 -1.114,0.226 -2.8,0.57 -2.979,3.319 C 3.985,0 3.815,0 3.691,0 3.474,0 3.165,-0.106 2.868,-0.21 2.523,-0.328 2.166,-0.452 1.846,-0.452 1.527,-0.452 1.17,-0.328 0.825,-0.21 0.525,-0.106 0.22,0 0,0 m 1.846,-11.31 c -2.148,0 -6.844,3.922 -6.844,6.875 0,0.802 0.754,0.965 1.485,1.123 1.172,0.255 2.502,0.543 2.655,2.886 0.05,0.795 0.494,0.962 0.858,0.962 0.31,0 0.66,-0.121 1,-0.238 0.305,-0.105 0.618,-0.214 0.846,-0.214 0.229,0 0.544,0.109 0.848,0.214 0.338,0.117 0.69,0.238 0.997,0.238 0.364,0 0.81,-0.167 0.862,-0.962 0.149,-2.34 1.425,-2.598 2.55,-2.827 0.706,-0.145 1.438,-0.295 1.438,-1.099 0,-2.988 -4.593,-6.958 -6.695,-6.958"
             style="fill:#855333;fill-opacity:1;fill-rule:nonzero;stroke:none"
             id="path818" /></g></g></g><g
       id="g820"><g
         id="g822"><g
           id="g828"><g
             id="g830"><path
               d="m 377.288,568.877 c -5.735,2.488 -5.328,6.084 -5.314,6.288 v 0 c -1.025,-0.134 -3.177,-0.788 -4.189,-1.6 v 0 c -2.714,-2.18 -3.019,-9.55 -3.071,-10.262 v 0 c -0.223,-2.98 2.497,-6.81 12.645,-6.675 v 0 c 10.149,-0.135 12.871,3.695 12.65,6.675 v 0 c -0.054,0.712 -0.356,8.082 -3.07,10.262 v 0 c -1.013,0.812 -2.6,1.304 -4.192,1.6 v 0 c 0,0 0.722,-3.571 -5.459,-6.288"
               style="fill:url(#linearGradient836);stroke:none"
               id="path838" /></g></g></g></g><g
       id="g840"><g
         id="g842"
         clip-path="url(#clipPath846)"><g
           id="g848"
           transform="translate(377.3574,556.896)"><path
             d="m 0,0 c 0.176,-0.003 0.347,-0.004 0.515,-0.004 6.447,0.001 9.339,1.657 10.63,3.047 1.138,1.228 1.302,2.497 1.238,3.345 l -0.011,0.183 c -0.316,5.1 -1.366,8.61 -2.961,9.889 C 8.619,17.099 7.366,17.595 5.688,17.938 5.701,16.905 5.233,14.019 0.04,11.735 l -0.109,-0.048 -0.107,0.046 c -4.904,2.13 -5.459,5.113 -5.484,6.22 -1.117,-0.209 -2.898,-0.811 -3.745,-1.493 -1.596,-1.279 -2.645,-4.793 -2.958,-9.891 l -0.012,-0.181 c -0.064,-0.85 0.099,-2.119 1.238,-3.346 1.289,-1.39 4.179,-3.046 10.628,-3.046 0.166,0 0.336,0.001 0.509,0.004 M 0.515,-0.54 C 0.343,-0.54 0.172,-0.539 0,-0.537 -0.168,-0.539 -0.338,-0.54 -0.509,-0.54 c -6.642,0 -9.661,1.749 -11.022,3.217 -1.271,1.368 -1.451,2.796 -1.382,3.751 l 0.013,0.175 c 0.187,3.041 0.847,8.42 3.158,10.277 1.044,0.838 3.221,1.512 4.323,1.655 l 0.326,0.042 -0.022,-0.325 c -0.051,-0.625 -0.03,-3.732 5.046,-5.98 5.767,2.582 5.203,5.912 5.195,5.946 l -0.074,0.386 0.386,-0.07 C 7.382,18.172 8.832,17.615 9.749,16.88 12.059,15.023 12.718,9.646 12.908,6.604 L 12.919,6.428 C 12.991,5.473 12.809,4.048 11.538,2.679 10.177,1.21 7.156,-0.54 0.515,-0.54"
             style="fill:#21787f;fill-opacity:1;fill-rule:nonzero;stroke:none"
             id="path850" /></g></g></g><g
       id="g852"><g
         id="g854"><g
           id="g860"><g
             id="g862"><path
               d="m 387.013,566.39 c 1.615,-5.587 -1.849,-8.53 -4.951,-9.329 v 0 c 2.252,0.449 3.476,0.751 5.351,1.856 v 0 c 1.81,1.194 2.456,2.697 2.46,4.061 v 0 c 0,0.105 -0.006,0.211 -0.013,0.313 v 0 c -0.027,0.364 -0.115,2.368 -0.534,4.556 v 0 c -0.413,2.185 -1.181,4.539 -2.452,5.546 v 0 c -0.137,0.11 -0.286,0.215 -0.446,0.314 v 0 c 0,0 -0.689,-2.916 0.585,-7.317"
               style="fill:url(#linearGradient868);stroke:none"
               id="path870" /></g></g></g></g><g
       id="g872"><g
         id="g874"><g
           id="g880"><g
             id="g882"><path
               d="m 368.011,573.403 c -1.271,-1.008 -2.041,-3.362 -2.454,-5.547 v 0 c -0.419,-2.188 -0.507,-4.191 -0.532,-4.555 v 0 c -0.008,-0.103 -0.013,-0.209 -0.013,-0.314 v 0 c 0.002,-1.363 0.647,-2.867 2.46,-4.061 v 0 c 1.873,-1.104 3.097,-1.407 5.35,-1.855 v 0 c -3.103,0.798 -6.568,3.741 -4.951,9.328 v 0 c 1.274,4.4 0.583,7.319 0.583,7.319 v 0 c -0.158,-0.1 -0.307,-0.206 -0.443,-0.315"
               style="fill:url(#linearGradient888);stroke:none"
               id="path890" /></g></g></g></g><g
       id="g892"><g
         id="g894"><g
           id="g900"><g
             id="g902"><path
               d="m 371.547,586.31 c -0.149,0.065 -0.308,0.089 -0.464,0.062 v 0 c -0.61,-0.108 -0.972,-0.944 -0.808,-1.867 v 0 c 0.14,-0.795 0.626,-1.393 1.146,-1.476 v 0 c 0.521,-3.431 3.044,-6.034 6.086,-6.034 v 0 c 3.043,0 5.572,2.609 6.087,6.045 v 0 c 0.501,0.111 0.959,0.698 1.096,1.465 v 0 c 0.162,0.923 -0.199,1.759 -0.809,1.867 v 0 c -0.14,0.023 -0.282,0.008 -0.419,-0.045 v 0 c -3.631,0.566 -3.038,2.901 -3.038,2.901 v 0 c -2.458,-2.803 -8.877,-2.918 -8.877,-2.918"
               style="fill:url(#linearGradient908);stroke:none"
               id="path910" /></g></g></g></g><g
       id="g912"><g
         id="g914"
         clip-path="url(#clipPath918)"><g
           id="g920"
           transform="translate(383.3701,583.0747)"><path
             d="m 0,0 0.023,0.154 0.153,0.034 c 0.363,0.071 0.799,0.576 0.918,1.283 0.024,0.136 0.035,0.27 0.035,0.4 C 1.13,2.203 1.053,2.5 0.928,2.71 0.804,2.922 0.645,3.041 0.473,3.071 L 0.512,3.297 0.473,3.071 C 0.44,3.076 0.414,3.079 0.385,3.079 0.315,3.079 0.245,3.065 0.176,3.038 L -0.07,2.947 -0.191,3.454 0.26,3.529 c 0.039,0.005 0.082,0.008 0.125,0.008 0.054,0 0.112,-0.006 0.167,-0.015 V 3.521 C 0.887,3.463 1.153,3.235 1.323,2.941 1.496,2.645 1.588,2.273 1.588,1.871 1.588,1.715 1.572,1.555 1.545,1.392 1.405,0.629 0.99,0.007 0.432,-0.21 c -0.578,-3.454 -3.155,-6.094 -6.295,-6.099 -3.135,0.005 -5.707,2.636 -6.287,6.08 -0.588,0.195 -1.027,0.835 -1.17,1.62 -0.029,0.164 -0.04,0.324 -0.04,0.48 0,0.402 0.089,0.774 0.26,1.07 0.173,0.294 0.438,0.522 0.772,0.58 0.058,0.012 0.116,0.016 0.171,0.016 0.058,0 0.115,-0.003 0.169,-0.015 0.304,-0.061 0.437,-0.14 0.437,-0.14 l -0.11,-0.466 -0.252,0.109 c -0.086,0.037 -0.165,0.054 -0.244,0.054 -0.031,0 -0.061,-0.002 -0.089,-0.008 -0.175,-0.03 -0.333,-0.15 -0.456,-0.361 -0.125,-0.21 -0.204,-0.507 -0.201,-0.839 0,-0.129 0.01,-0.264 0.034,-0.399 0.125,-0.733 0.584,-1.246 0.956,-1.29 l 0.165,-0.028 0.025,-0.165 c 0.509,-3.344 2.959,-5.844 5.86,-5.84 C -2.959,-5.855 -0.506,-3.351 0,0"
             style="fill:#855333;fill-opacity:1;fill-rule:nonzero;stroke:none"
             id="path922" /></g><g
           id="g924"
           transform="translate(380.0498,585.3335)"><path
             d="m 0,0 c 0,-0.382 -0.244,-0.692 -0.546,-0.692 -0.3,0 -0.545,0.31 -0.545,0.692 0,0.382 0.245,0.692 0.545,0.692 C -0.244,0.692 0,0.382 0,0"
             style="fill:#855333;fill-opacity:1;fill-rule:nonzero;stroke:none"
             id="path926" /></g><g
           id="g928"
           transform="translate(375.9922,585.3335)"><path
             d="m 0,0 c 0,-0.382 -0.245,-0.692 -0.544,-0.692 -0.303,0 -0.545,0.31 -0.545,0.692 0,0.382 0.242,0.692 0.545,0.692 C -0.245,0.692 0,0.382 0,0"
             style="fill:#855333;fill-opacity:1;fill-rule:nonzero;stroke:none"
             id="path930" /></g><g
           id="g932"
           transform="translate(375.1592,580.5435)"><path
             d="m 0,0 c -0.114,0.06 -0.152,0.199 -0.091,0.311 0.06,0.109 0.199,0.15 0.31,0.089 0.547,-0.302 1.263,-0.488 2.05,-0.488 0.778,0 1.488,0.183 2.032,0.479 C 4.41,0.451 4.55,0.41 4.609,0.299 4.672,0.188 4.63,0.049 4.519,-0.012 3.898,-0.349 3.117,-0.545 2.269,-0.547 1.41,-0.545 0.621,-0.344 0,0"
             style="fill:#855333;fill-opacity:1;fill-rule:nonzero;stroke:none"
             id="path934" /></g><g
           id="g936"
           transform="translate(377.4629,582.1899)"><path
             d="m 0,0 c -0.466,0 -0.888,0.214 -1.2,0.549 -0.086,0.092 -0.08,0.237 0.011,0.324 0.094,0.085 0.237,0.08 0.324,-0.011 C -0.621,0.604 -0.322,0.458 0,0.458 0.313,0.458 0.604,0.595 0.844,0.839 0.932,0.93 1.079,0.932 1.169,0.844 1.259,0.754 1.261,0.61 1.172,0.519 0.862,0.201 0.452,0 0.001,0 Z"
             style="fill:#855333;fill-opacity:1;fill-rule:nonzero;stroke:none"
             id="path938" /></g><g
           id="g940"
           transform="translate(238.7524,638.9888)"><path
             d="M 0,0 C 20.94,21.505 63.082,1.493 63.082,22.401"
             style="fill:none;stroke:#231f20;stroke-width:0.3;stroke-linecap:butt;stroke-linejoin:miter;stroke-miterlimit:10;stroke-dasharray:none;stroke-opacity:1"
             id="path942" /></g><g
           id="g944"
           transform="translate(240.4663,638.0835)"><path
             d="m 0,0 -3.599,-1.016 0.92,3.625 z"
             style="fill:#231f20;fill-opacity:1;fill-rule:nonzero;stroke:none"
             id="path946" /></g><g
           id="g948"
           transform="translate(364.916,638.9888)"><path
             d="M 0,0 C -20.94,21.505 -63.082,1.493 -63.082,22.401"
             style="fill:none;stroke:#231f20;stroke-width:0.3;stroke-linecap:butt;stroke-linejoin:miter;stroke-miterlimit:10;stroke-dasharray:none;stroke-opacity:1"
             id="path950" /></g><g
           id="g952"
           transform="translate(365.8662,640.6777)"><path
             d="m 0,0 0.92,-3.624 -3.599,1.016 z"
             style="fill:#231f20;fill-opacity:1;fill-rule:nonzero;stroke:none"
             id="path954" /></g><text
           transform="matrix(1,0,0,-1,290.2485,663.8027)"
           style="font-variant:normal;font-weight:bold;font-stretch:condensed;font-size:8px;font-family:'Humanst521 Cn BT';-inkscape-font-specification:Humanist521BT-BoldCondensed;writing-mode:lr-tb;fill:#231f20;fill-opacity:1;fill-rule:nonzero;stroke:none"
           id="text958"><tspan
             x="0 3.056 6.072 9.592 11.648 13.704 17.224001 20.24"
             y="0"
             sodipodi:role="line"
             id="tspan956">Treffer!</tspan></text></g></g></g></svg>
