<svg id="Layer_2" data-name="Layer 2" xmlns="http://www.w3.org/2000/svg" width="253.97" height="253.06" viewBox="0 0 253.97 253.06">
  <defs>
    <style>
      .cls-1 {
        fill: #d5e2ef;
      }

      .cls-2 {
        fill: #616161;
      }

      .cls-3 {
        fill: #bfbfbf;
      }

      .cls-4 {
        fill: gray;
      }

      .cls-5 {
        fill: #333;
      }
    </style>
  </defs>
  <g>
    <g>
      <polygon class="cls-1" points="6.05 42.41 29.27 129.96 196.71 146.78 228.42 30.85 6.05 42.41"/>
      <path class="cls-2" d="M384.79,413.5,210.2,396,184.67,299.7l234.58-12.19ZM217.58,387.29,377.86,403.4l29-105.88L196.66,308.44Z" transform="translate(-184.62 -261.67)"/>
    </g>
    <path class="cls-2" d="M237.79,398.62a4.68,4.68,0,0,1-4.59-3.85L216.75,303.3a4.67,4.67,0,0,1,9.2-1.65l16.45,91.46a4.67,4.67,0,0,1-3.77,5.43A4.78,4.78,0,0,1,237.79,398.62Z" transform="translate(-184.62 -261.67)"/>
    <path class="cls-2" d="M294.53,404.46a4.67,4.67,0,0,1-4.68-4.67V298.68a4.68,4.68,0,1,1,9.35,0V399.79A4.67,4.67,0,0,1,294.53,404.46Z" transform="translate(-184.62 -261.67)"/>
    <path class="cls-2" d="M356,411.26a4.71,4.71,0,0,1-4.61-5.5l20.08-112.14a4.67,4.67,0,1,1,9.2,1.64L360.6,407.4A4.67,4.67,0,0,1,356,411.26Z" transform="translate(-184.62 -261.67)"/>
    <path class="cls-2" d="M323.85,407.49l-.47,0a4.69,4.69,0,0,1-4.19-5.12l10.62-106.11a4.67,4.67,0,1,1,9.3.93L328.5,403.28A4.69,4.69,0,0,1,323.85,407.49Z" transform="translate(-184.62 -261.67)"/>
    <path class="cls-2" d="M265.53,401.41a4.69,4.69,0,0,1-4.64-4.14l-11.2-96a4.67,4.67,0,1,1,9.28-1.09l11.21,96a4.67,4.67,0,0,1-4.1,5.18A5.28,5.28,0,0,1,265.53,401.41Z" transform="translate(-184.62 -261.67)"/>
    <g>
      <path class="cls-2" d="M414.9,479.51H223.55a4.68,4.68,0,0,1,0-9.35H414.9a4.68,4.68,0,1,1,0,9.35Z" transform="translate(-184.62 -261.67)"/>
      <polygon class="cls-3" points="38.94 207.49 230.28 208.49 38.94 209.49 38.94 207.49"/>
    </g>
    <path class="cls-2" d="M414.9,479.51a4.68,4.68,0,0,1-4.67-4.68v-11l-33.79-47.6-16.2-2.05,25.22,48.17a4.56,4.56,0,0,1,.54,2.17v10.28a4.68,4.68,0,1,1-9.35,0V465.7l-28.84-55.08a4.67,4.67,0,0,1,4.73-6.81l27.11,3.43a4.69,4.69,0,0,1,3.22,1.93l35.84,50.49a4.7,4.7,0,0,1,.87,2.71v12.46A4.69,4.69,0,0,1,414.9,479.51Z" transform="translate(-184.62 -261.67)"/>
    <path class="cls-2" d="M348.52,479.51a4.67,4.67,0,0,1-4-7.12l5.92-9.66a4.65,4.65,0,0,1,4-2.23H414.9a4.67,4.67,0,1,1,0,9.34H357.06l-4.55,7.43A4.69,4.69,0,0,1,348.52,479.51Z" transform="translate(-184.62 -261.67)"/>
    <g>
      <path class="cls-2" d="M351.94,414.06a5.61,5.61,0,0,1-4.89-8.35l57.12-102.28,5.22-27.84a5.63,5.63,0,0,1,2.93-3.95l18.08-9.35a5.61,5.61,0,1,1,5.15,10l-15.64,8.09-4.88,26a5.67,5.67,0,0,1-.61,1.7l-57.57,103.1A5.61,5.61,0,0,1,351.94,414.06Z" transform="translate(-184.62 -261.67)"/>
      <path class="cls-3" d="M412.32,271.64a34.08,34.08,0,0,1,4.16-3q2.16-1.37,4.42-2.54t4.62-2.14a32.93,32.93,0,0,1,4.88-1.65,33.41,33.41,0,0,1-4.16,3q-2.16,1.37-4.42,2.54T417.2,270A34.52,34.52,0,0,1,412.32,271.64Z" transform="translate(-184.62 -261.67)"/>
    </g>
    <path class="cls-2" d="M265.31,498.52a16.21,16.21,0,1,1-16.2-16.21A16.2,16.2,0,0,1,265.31,498.52Z" transform="translate(-184.62 -261.67)"/>
    <polyline class="cls-4" points="44.96 215.66 44.96 231.24 66.98 242.46 69.71 236.23 57.34 215.66"/>
    <line class="cls-4" x1="57.34" y1="215.66" x2="44.96" y2="215.66"/>
    <line class="cls-4" x1="220.22" y1="215.66" x2="207.85" y2="215.66"/>
    <g>
      <path class="cls-2" d="M428.2,498.52A16.21,16.21,0,1,1,412,482.31,16.2,16.2,0,0,1,428.2,498.52Z" transform="translate(-184.62 -261.67)"/>
      <path class="cls-5" d="M426.73,496c.81,9.86-6.42,17.15-16.2,16.21C417.9,508.44,424.18,503.76,426.73,496Z" transform="translate(-184.62 -261.67)"/>
      <path class="cls-5" d="M262.4,496c.81,9.86-6.42,17.15-16.2,16.21C253.57,508.44,259.85,503.76,262.4,496Z" transform="translate(-184.62 -261.67)"/>
    </g>
    <polygon class="cls-4" points="207.85 215.66 207.85 231.24 229.87 242.46 232.6 236.23 220.22 215.66 207.85 215.66"/>
    <g>
      <path class="cls-2" d="M405,326.63H195.41a4.68,4.68,0,1,1,0-9.35H405a4.68,4.68,0,0,1,0,9.35Z" transform="translate(-184.62 -261.67)"/>
      <polygon class="cls-3" points="10.79 54.62 220.36 55.62 10.79 56.62 10.79 54.62"/>
    </g>
    <g>
      <path class="cls-2" d="M395.35,361.85h-.17L203.3,355.11a4.68,4.68,0,0,1,.32-9.35l191.89,6.75a4.67,4.67,0,0,1-.16,9.34Z" transform="translate(-184.62 -261.67)"/>
      <polygon class="cls-3" points="19.04 83.1 210.9 90.84 18.97 85.1 19.04 83.1"/>
    </g>
    <g>
      <path class="cls-2" d="M388.05,388.55h-.33L208.33,376.22a4.67,4.67,0,1,1,.64-9.32l179.4,12.31a4.68,4.68,0,0,1-.32,9.34Z" transform="translate(-184.62 -261.67)"/>
      <polygon class="cls-3" points="24.42 104.23 203.75 117.54 24.29 106.23 24.42 104.23"/>
    </g>
    <polygon class="cls-3" points="0 37.04 234.63 25.85 0.1 39.03 0 37.04"/>
    <path class="cls-3" d="M242,477.32c-1,.19-2.06.33-3.09.45s-2.06.21-3.1.28c-2.06.14-4.12.24-6.18.25l1-1c0,1.3,0,2.6,0,3.9s-.09,2.6-.14,3.9a68.88,68.88,0,0,1-.83,7.79,66.68,66.68,0,0,1-.84-7.79c-.05-1.3-.13-2.6-.13-3.9s0-2.6,0-3.9l0-1h1c2.06,0,4.12.11,6.18.25,1,.07,2.07.17,3.1.28S240.92,477.13,242,477.32Z" transform="translate(-184.62 -261.67)"/>
    <path class="cls-3" d="M404.84,477.32c-1,.19-2.06.33-3.1.45s-2.06.21-3.09.28c-2.06.14-4.12.24-6.19.25l1-1c0,1.3,0,2.6,0,3.9s-.09,2.6-.13,3.9a66.68,66.68,0,0,1-.84,7.79,68.88,68.88,0,0,1-.83-7.79c-.05-1.3-.13-2.6-.14-3.9s0-2.6,0-3.9l0-1h.95c2.07,0,4.13.11,6.19.25,1,.07,2.06.17,3.09.28S403.81,477.13,404.84,477.32Z" transform="translate(-184.62 -261.67)"/>
    <polygon class="cls-5" points="200.07 152.83 25.59 134.28 200.27 150.84 200.07 152.83"/>
  </g>
</svg>
