<?xml version="1.0" encoding="UTF-8" standalone="no"?>
<svg
   xmlns:dc="http://purl.org/dc/elements/1.1/"
   xmlns:cc="http://creativecommons.org/ns#"
   xmlns:rdf="http://www.w3.org/1999/02/22-rdf-syntax-ns#"
   xmlns:svg="http://www.w3.org/2000/svg"
   xmlns="http://www.w3.org/2000/svg"
   xmlns:sodipodi="http://sodipodi.sourceforge.net/DTD/sodipodi-0.dtd"
   xmlns:inkscape="http://www.inkscape.org/namespaces/inkscape"
   version="1.1"
   id="svg2"
   xml:space="preserve"
   width="476.54776"
   height="199.74994"
   viewBox="0 0 476.54776 199.74994"
   sodipodi:docname="08-31.ai"><metadata
     id="metadata8"><rdf:RDF><cc:Work
         rdf:about=""><dc:format>image/svg+xml</dc:format><dc:type
           rdf:resource="http://purl.org/dc/dcmitype/StillImage" /></cc:Work></rdf:RDF></metadata><defs
     id="defs6"><clipPath
       clipPathUnits="userSpaceOnUse"
       id="clipPath22"><path
         d="M 0,792 H 612 V 0 H 0 Z"
         id="path20" /></clipPath><linearGradient
       x1="0"
       y1="0"
       x2="1"
       y2="0"
       gradientUnits="userSpaceOnUse"
       gradientTransform="matrix(22.072205,-57.074417,-57.074417,-22.072205,428.37109,573.54004)"
       spreadMethod="pad"
       id="linearGradient50"><stop
         style="stop-opacity:1;stop-color:#cbdbeb"
         offset="0"
         id="stop46" /><stop
         style="stop-opacity:1;stop-color:#9cadc5"
         offset="1"
         id="stop48" /></linearGradient><clipPath
       clipPathUnits="userSpaceOnUse"
       id="clipPath60"><path
         d="M 0,792 H 612 V 0 H 0 Z"
         id="path58" /></clipPath><linearGradient
       x1="0"
       y1="0"
       x2="1"
       y2="0"
       gradientUnits="userSpaceOnUse"
       gradientTransform="matrix(22.071777,-57.073303,-57.073303,-22.071777,159.64844,573.53906)"
       spreadMethod="pad"
       id="linearGradient106"><stop
         style="stop-opacity:1;stop-color:#cbdbeb"
         offset="0"
         id="stop102" /><stop
         style="stop-opacity:1;stop-color:#9cadc5"
         offset="1"
         id="stop104" /></linearGradient><clipPath
       clipPathUnits="userSpaceOnUse"
       id="clipPath116"><path
         d="M 0,792 H 612 V 0 H 0 Z"
         id="path114" /></clipPath></defs><sodipodi:namedview
     pagecolor="#ffffff"
     bordercolor="#666666"
     borderopacity="1"
     objecttolerance="10"
     gridtolerance="10"
     guidetolerance="10"
     inkscape:pageopacity="0"
     inkscape:pageshadow="2"
     inkscape:window-width="640"
     inkscape:window-height="480"
     id="namedview4" /><g
     id="g10"
     inkscape:groupmode="layer"
     inkscape:label="08-31"
     transform="matrix(1.3333333,0,0,-1.3333333,-167.8978,866.59735)"><g
       id="g12"
       transform="translate(409.4258,597.2798)"><path
         d="M 0,0 H -219.426"
         style="fill:none;stroke:#231f20;stroke-width:0.5;stroke-linecap:butt;stroke-linejoin:miter;stroke-miterlimit:4;stroke-dasharray:none;stroke-opacity:1"
         id="path14" /></g><g
       id="g16"><g
         id="g18"
         clip-path="url(#clipPath22)"><g
           id="g24"
           transform="translate(411.3457,597.8813)"><path
             d="m 0,0 c -0.951,0.283 -1.57,0.547 -2.334,0.85 l 0.01,-2.903 c 0.271,0.131 1.379,0.576 2.326,0.867 1.018,0.313 1.939,0.524 2.537,0.602 C 1.939,-0.512 1.016,-0.303 0,0"
             style="fill:#ffffff;fill-opacity:1;fill-rule:nonzero;stroke:none"
             id="path26" /></g><g
           id="g28"
           transform="translate(411.3457,597.8813)"><path
             d="m 0,0 c -0.951,0.283 -1.57,0.547 -2.334,0.85 l 0.01,-2.903 c 0.271,0.131 1.379,0.576 2.326,0.867 1.018,0.313 1.939,0.524 2.537,0.602 C 1.939,-0.512 1.016,-0.303 0,0 Z"
             style="fill:none;stroke:#231f20;stroke-width:0.5;stroke-linecap:butt;stroke-linejoin:round;stroke-miterlimit:4;stroke-dasharray:none;stroke-opacity:1"
             id="path30" /></g><g
           id="g32"
           transform="translate(457.9902,571.8325)"><path
             d="m 0,0 h -42.982 c -0.362,0 -0.657,-0.295 -0.657,-0.657 v -0.778 -34.978 -0.775 c 0,-0.359 0.295,-0.669 0.657,-0.669 H 0 c 0.363,0 0.658,0.31 0.658,0.669 v 0.775 34.978 0.778 C 0.658,-0.295 0.363,0 0,0"
             style="fill:#ffffff;fill-opacity:1;fill-rule:nonzero;stroke:none"
             id="path34" /></g></g></g><g
       id="g36"><g
         id="g38"><g
           id="g44"><path
             d="m 415.008,571.056 c -0.362,0 -0.656,-0.295 -0.656,-0.659 v 0 -35.753 c 0,-0.358 0.294,-0.669 0.656,-0.669 v 0 h 42.982 c 0.364,0 0.658,0.311 0.658,0.669 v 0 35.753 c 0,0.364 -0.294,0.659 -0.658,0.659 v 0 z"
             style="fill:url(#linearGradient50);stroke:none"
             id="path52" /></g></g></g><g
       id="g54"><g
         id="g56"
         clip-path="url(#clipPath60)"><g
           id="g62"
           transform="translate(458.6484,534.644)"><path
             d="m 0,0 c 0,-0.358 -0.295,-0.669 -0.658,-0.669 h -42.983 c -0.361,0 -0.656,0.311 -0.656,0.669 v 35.754 c 0,0.363 0.295,0.658 0.656,0.658 H -0.658 C -0.295,36.412 0,36.117 0,35.754 Z"
             style="fill:#b3e6fa;fill-opacity:1;fill-rule:nonzero;stroke:none"
             id="path64" /></g><g
           id="g66"
           transform="translate(457.9902,571.8325)"><path
             d="m 0,0 h -42.982 c -0.362,0 -0.657,-0.295 -0.657,-0.657 v -0.778 -34.978 -0.775 c 0,-0.359 0.295,-0.669 0.657,-0.669 H 0 c 0.363,0 0.658,0.31 0.658,0.669 v 0.775 34.978 0.778 C 0.658,-0.295 0.363,0 0,0 Z"
             style="fill:none;stroke:#231f20;stroke-width:0.5;stroke-linecap:butt;stroke-linejoin:round;stroke-miterlimit:10;stroke-dasharray:none;stroke-opacity:1"
             id="path68" /></g><path
           d="m 456.086,538.742 h -39.172 v 30.136 h 39.172 z"
           style="fill:#f0fafe;fill-opacity:1;fill-rule:nonzero;stroke:#231f20;stroke-width:0.3;stroke-linecap:butt;stroke-linejoin:round;stroke-miterlimit:4;stroke-dasharray:none;stroke-opacity:1"
           id="path70" /><g
           id="g72"
           transform="translate(465.4551,534.9429)"><path
             d="m 0,0 -6.994,1.549 h -44.11 L -57.91,0"
             style="fill:#ffffff;fill-opacity:1;fill-rule:nonzero;stroke:#231f20;stroke-width:0.5;stroke-linecap:butt;stroke-linejoin:round;stroke-miterlimit:10;stroke-dasharray:none;stroke-opacity:1"
             id="path74" /></g><g
           id="g76"
           transform="translate(407.5313,534.9429)"><path
             d="M 0,0 C 0,0 1.316,-2.886 2.818,-2.886 H 55.113 C 56.498,-2.886 57.938,0 57.938,0 Z"
             style="fill:#b3e6fa;fill-opacity:1;fill-rule:nonzero;stroke:none"
             id="path78" /></g><g
           id="g80"
           transform="translate(407.5313,534.9429)"><path
             d="M 0,0 C 0,0 1.316,-2.886 2.818,-2.886 H 55.113 C 56.498,-2.886 57.938,0 57.938,0 Z"
             style="fill:none;stroke:#231f20;stroke-width:0.5;stroke-linecap:butt;stroke-linejoin:round;stroke-miterlimit:10;stroke-dasharray:none;stroke-opacity:1"
             id="path82" /></g><text
           transform="matrix(1,0,0,-1,432.9717,551.3516)"
           style="font-variant:normal;font-weight:normal;font-stretch:normal;font-size:7px;font-family:Arial;-inkscape-font-specification:ArialMT;writing-mode:lr-tb;fill:#231f20;fill-opacity:1;fill-rule:nonzero;stroke:none"
           id="text86"><tspan
             x="0 5.4460001"
             y="0"
             sodipodi:role="line"
             id="tspan84">Qi</tspan></text><g
           id="g88"
           transform="translate(189.2666,571.8325)"><path
             d="m 0,0 h -42.982 c -0.362,0 -0.657,-0.295 -0.657,-0.657 v -0.778 -34.978 -0.775 c 0,-0.359 0.295,-0.669 0.657,-0.669 H 0 c 0.363,0 0.658,0.31 0.658,0.669 v 0.775 34.978 0.778 C 0.658,-0.295 0.363,0 0,0"
             style="fill:#ffffff;fill-opacity:1;fill-rule:nonzero;stroke:none"
             id="path90" /></g></g></g><g
       id="g92"><g
         id="g94"><g
           id="g100"><path
             d="m 146.284,571.056 c -0.362,0 -0.656,-0.295 -0.656,-0.659 v 0 -35.753 c 0,-0.358 0.294,-0.669 0.656,-0.669 v 0 h 42.982 c 0.364,0 0.659,0.311 0.659,0.669 v 0 35.753 c 0,0.364 -0.295,0.659 -0.659,0.659 v 0 z"
             style="fill:url(#linearGradient106);stroke:none"
             id="path108" /></g></g></g><g
       id="g110"><g
         id="g112"
         clip-path="url(#clipPath116)"><g
           id="g118"
           transform="translate(189.9248,534.644)"><path
             d="m 0,0 c 0,-0.358 -0.295,-0.669 -0.658,-0.669 h -42.983 c -0.361,0 -0.656,0.311 -0.656,0.669 v 35.754 c 0,0.363 0.295,0.658 0.656,0.658 H -0.658 C -0.295,36.412 0,36.117 0,35.754 Z"
             style="fill:#b3e6fa;fill-opacity:1;fill-rule:nonzero;stroke:none"
             id="path120" /></g><g
           id="g122"
           transform="translate(189.2666,571.8325)"><path
             d="m 0,0 h -42.982 c -0.362,0 -0.657,-0.295 -0.657,-0.657 v -0.778 -34.978 -0.775 c 0,-0.359 0.295,-0.669 0.657,-0.669 H 0 c 0.363,0 0.658,0.31 0.658,0.669 v 0.775 34.978 0.778 C 0.658,-0.295 0.363,0 0,0 Z"
             style="fill:none;stroke:#231f20;stroke-width:0.5;stroke-linecap:butt;stroke-linejoin:round;stroke-miterlimit:10;stroke-dasharray:none;stroke-opacity:1"
             id="path124" /></g><path
           d="M 187.362,538.742 H 148.19 v 30.136 h 39.172 z"
           style="fill:#f0fafe;fill-opacity:1;fill-rule:nonzero;stroke:#231f20;stroke-width:0.3;stroke-linecap:butt;stroke-linejoin:round;stroke-miterlimit:4;stroke-dasharray:none;stroke-opacity:1"
           id="path126" /><g
           id="g128"
           transform="translate(196.7314,534.9429)"><path
             d="m 0,0 -6.994,1.549 h -44.11 L -57.91,0"
             style="fill:#ffffff;fill-opacity:1;fill-rule:nonzero;stroke:#231f20;stroke-width:0.5;stroke-linecap:butt;stroke-linejoin:round;stroke-miterlimit:10;stroke-dasharray:none;stroke-opacity:1"
             id="path130" /></g><g
           id="g132"
           transform="translate(138.8076,534.9429)"><path
             d="M 0,0 C 0,0 1.316,-2.886 2.818,-2.886 H 55.113 C 56.498,-2.886 57.938,0 57.938,0 Z"
             style="fill:#b3e6fa;fill-opacity:1;fill-rule:nonzero;stroke:none"
             id="path134" /></g><g
           id="g136"
           transform="translate(138.8076,534.9429)"><path
             d="M 0,0 C 0,0 1.316,-2.886 2.818,-2.886 H 55.113 C 56.498,-2.886 57.938,0 57.938,0 Z"
             style="fill:none;stroke:#231f20;stroke-width:0.5;stroke-linecap:butt;stroke-linejoin:round;stroke-miterlimit:10;stroke-dasharray:none;stroke-opacity:1"
             id="path138" /></g><text
           transform="matrix(1,0,0,-1,157.8276,551.3516)"
           style="font-variant:normal;font-weight:normal;font-stretch:normal;font-size:7px;font-family:Arial;-inkscape-font-specification:ArialMT;writing-mode:lr-tb;fill:#231f20;fill-opacity:1;fill-rule:nonzero;stroke:none"
           id="text142"><tspan
             x="0 4.6690001 8.5609999 10.115 15.946"
             y="0"
             sodipodi:role="line"
             id="tspan140">Selma</tspan></text><g
           id="g144"
           transform="translate(214.8335,597.7295)"><path
             d="M 0,0 V 22.411 H 168.996 V 0"
             style="fill:none;stroke:#231f20;stroke-width:0.5;stroke-linecap:butt;stroke-linejoin:miter;stroke-miterlimit:4;stroke-dasharray:2, 1;stroke-dashoffset:0;stroke-opacity:1"
             id="path146" /></g><g
           id="g148"
           transform="translate(194.917,564.9849)"><path
             d="M 0,0 H 219.427"
             style="fill:none;stroke:#231f20;stroke-width:0.5;stroke-linecap:butt;stroke-linejoin:miter;stroke-miterlimit:4;stroke-dasharray:none;stroke-opacity:1"
             id="path150" /></g><g
           id="g152"
           transform="translate(192.9971,565.5864)"><path
             d="m 0,0 c 0.951,0.283 1.57,0.547 2.334,0.85 l -0.01,-2.903 c -0.271,0.131 -1.379,0.576 -2.326,0.867 -1.018,0.313 -1.939,0.524 -2.537,0.602 0.6,0.072 1.523,0.281 2.539,0.584"
             style="fill:#ffffff;fill-opacity:1;fill-rule:nonzero;stroke:none"
             id="path154" /></g><g
           id="g156"
           transform="translate(192.9971,565.5864)"><path
             d="m 0,0 c 0.951,0.283 1.57,0.547 2.334,0.85 l -0.01,-2.903 c -0.271,0.131 -1.379,0.576 -2.326,0.867 -1.018,0.313 -1.939,0.524 -2.537,0.602 0.6,0.072 1.523,0.281 2.539,0.584 z"
             style="fill:none;stroke:#231f20;stroke-width:0.5;stroke-linecap:butt;stroke-linejoin:round;stroke-miterlimit:4;stroke-dasharray:none;stroke-opacity:1"
             id="path158" /></g><g
           id="g160"
           transform="translate(214.8335,565.4346)"><path
             d="M 0,0 V 22.411 H 168.996 V 0"
             style="fill:none;stroke:#231f20;stroke-width:0.5;stroke-linecap:butt;stroke-linejoin:miter;stroke-miterlimit:4;stroke-dasharray:2, 1;stroke-dashoffset:0;stroke-opacity:1"
             id="path162" /></g><g
           id="g164"
           transform="translate(194.459,542.4668)"><path
             d="M 0,0 H 219.426"
             style="fill:none;stroke:#231f20;stroke-width:0.5;stroke-linecap:butt;stroke-linejoin:miter;stroke-miterlimit:4;stroke-dasharray:none;stroke-opacity:1"
             id="path166" /></g><g
           id="g168"
           transform="translate(192.5391,543.0684)"><path
             d="m 0,0 c 0.951,0.283 1.57,0.547 2.334,0.85 l -0.01,-2.903 c -0.271,0.131 -1.379,0.576 -2.326,0.867 -1.018,0.313 -1.939,0.524 -2.537,0.602 0.6,0.072 1.523,0.281 2.539,0.584"
             style="fill:#ffffff;fill-opacity:1;fill-rule:nonzero;stroke:none"
             id="path170" /></g><g
           id="g172"
           transform="translate(192.5391,543.0684)"><path
             d="m 0,0 c 0.951,0.283 1.57,0.547 2.334,0.85 l -0.01,-2.903 c -0.271,0.131 -1.379,0.576 -2.326,0.867 -1.018,0.313 -1.939,0.524 -2.537,0.602 0.6,0.072 1.523,0.281 2.539,0.584 z"
             style="fill:none;stroke:#231f20;stroke-width:0.5;stroke-linecap:butt;stroke-linejoin:round;stroke-miterlimit:4;stroke-dasharray:none;stroke-opacity:1"
             id="path174" /></g><g
           id="g176"
           transform="translate(259.6807,542.9165)"><path
             d="M 0,0 V 13.083 H 88.982 V 0"
             style="fill:none;stroke:#231f20;stroke-width:0.5;stroke-linecap:butt;stroke-linejoin:miter;stroke-miterlimit:4;stroke-dasharray:2, 1;stroke-dashoffset:0;stroke-opacity:1"
             id="path178" /></g><text
           transform="matrix(1,0,0,-1,125.8882,643.7124)"
           style="font-variant:normal;font-weight:bold;font-stretch:condensed;font-size:9px;font-family:'Humanst521 Cn BT';-inkscape-font-specification:Humanist521BT-BoldCondensed;writing-mode:lr-tb;fill:#231f20;fill-opacity:1;fill-rule:nonzero;stroke:none"
           id="text198"><tspan
             x="0 5.184 9.1440001 12.537 14.841 17.000999 20.961 23.958 27.540001 30.537001 34.497002 36.800999 41.643002 43.803001 48.150002 51.75 55.935001"
             y="0"
             sodipodi:role="line"
             id="tspan180">Der letzte Block,</tspan><tspan
             x="0 4.5089998 8.4689999 12.951 15.255 19.215 23.174999 25.334999 32.076 36.125999"
             y="9.5039997"
             sodipodi:role="line"
             id="tspan182">den Selma </tspan><tspan
             x="0 4.1040001 8.0640001 11.565 15.525 20.016001 23.976 28.458 30.761999 35.252998 39.303001"
             y="19.007999"
             sodipodi:role="line"
             id="tspan184">gesehen hat</tspan><tspan
             x="15.003 18.962999 22.923 25.083 31.823999 35.874001 38.178001 42.687 46.646999 50.147999 53.145 57.195 60.192001 62.325001 66.429001 69.426003 296.505 301.77899 303.91199 306.216 310.72501 314.685 318.186 321.18301 325.233 328.23001 330.36301 334.46701 337.46399"
             y="141.507"
             sodipodi:role="line"
             id="tspan186">Selma bestätigt.Qi bestätigt.</tspan><tspan
             x="296.505 301.77899 303.91199 307.41299 309.71701 311.87701 315.83701 318.83401 322.41599 325.41299 329.37299 332.76599 335.07001 339.91199 342.07199 346.41901 350.01901"
             y="61.011002"
             sodipodi:role="line"
             id="tspan188">Qis letzter Block</tspan><tspan
             x="79.892998 84.365997 87.759003 92.106003 95.102997 99.449997 103.635 107.982 110.142 112.302"
             y="0.0089999996"
             sodipodi:role="line"
             id="tspan190">Protokoll-</tspan><tspan
             x="79.892998 83.619003 87.579002 90.972 94.473 96.606003 100.953"
             y="9.5129995"
             sodipodi:role="line"
             id="tspan192">version</tspan><tspan
             x="275.202 279.16199 283.509 285.98401 288.98099 294.68701 298.737 302.13 306.09 308.39401 310.93201 315.44101 319.401 323.883 326.88 329.013 331.32599 333.45901 337.64401 341.694 344.69101 346.82401 351.17099 355.65302"
             y="0.0089999996"
             sodipodi:role="line"
             id="tspan194">Software Identifikation.</tspan><tspan
             x="275.202 279.63901 281.79901 283.95901 287.91901 291.42001 293.724 295.85699 299.358 302.35501 304.659 308.61899 312.01199 314.172 318.22198 322.70401 327.21301 330.20999"
             y="9.5129995"
             sodipodi:role="line"
             id="tspan196">Alles ist erlaubt.</tspan></text><g
           id="g200"
           transform="translate(267.1631,547.0439)"><path
             d="m 0,0 h -0.59 l -1.431,3.227 h -0.348 c -0.09,0 -0.154,0.016 -0.192,0.047 -0.033,0.039 -0.049,0.083 -0.049,0.131 0,0.05 0.016,0.092 0.049,0.121 0.038,0.041 0.102,0.062 0.192,0.062 h 1.301 c 0.08,0 0.134,-0.021 0.168,-0.062 C -0.861,3.497 -0.84,3.455 -0.84,3.405 -0.84,3.357 -0.861,3.313 -0.9,3.274 -0.934,3.243 -0.988,3.227 -1.068,3.227 h -0.58 L -0.373,0.35 h 0.158 l 1.242,2.877 h -0.58 c -0.082,0 -0.142,0.016 -0.179,0.047 -0.034,0.039 -0.049,0.083 -0.049,0.131 0,0.05 0.015,0.092 0.049,0.121 0.037,0.041 0.097,0.062 0.179,0.062 H 1.76 C 1.846,3.588 1.908,3.567 1.938,3.526 1.971,3.497 1.986,3.455 1.986,3.405 1.986,3.357 1.971,3.313 1.938,3.274 1.908,3.243 1.846,3.227 1.76,3.227 H 1.41 Z M 6.65,1.71 H 3.113 C 3.176,1.261 3.365,0.899 3.678,0.627 3.998,0.355 4.393,0.216 4.857,0.216 c 0.256,0 0.526,0.042 0.807,0.123 0.289,0.087 0.52,0.2 0.699,0.336 0.055,0.048 0.098,0.071 0.131,0.071 0.047,0 0.09,-0.021 0.121,-0.059 C 6.646,0.654 6.662,0.614 6.662,0.566 6.662,0.518 6.645,0.474 6.602,0.432 6.467,0.298 6.23,0.17 5.891,0.049 5.555,-0.072 5.211,-0.133 4.857,-0.133 4.256,-0.133 3.752,0.062 3.352,0.447 2.959,0.84 2.764,1.312 2.764,1.866 c 0,0.507 0.185,0.938 0.554,1.301 0.375,0.359 0.842,0.541 1.395,0.541 0.57,0 1.035,-0.185 1.396,-0.554 C 6.477,2.785 6.658,2.304 6.65,1.71 M 6.303,2.059 C 6.236,2.445 6.057,2.757 5.76,2.999 5.463,3.238 5.113,3.357 4.713,3.357 4.305,3.357 3.953,3.238 3.666,2.999 3.377,2.765 3.199,2.452 3.123,2.059 Z M 9.447,3.588 V 2.709 c 0.451,0.409 0.787,0.669 1.012,0.782 0.227,0.12 0.436,0.181 0.627,0.181 0.209,0 0.402,-0.072 0.576,-0.217 0.178,-0.137 0.266,-0.241 0.266,-0.312 0,-0.048 -0.02,-0.095 -0.061,-0.135 -0.031,-0.03 -0.07,-0.048 -0.121,-0.048 -0.029,0 -0.053,0.004 -0.068,0.013 -0.02,0.015 -0.055,0.048 -0.11,0.096 -0.097,0.098 -0.179,0.161 -0.254,0.194 -0.072,0.039 -0.14,0.06 -0.203,0.06 -0.154,0 -0.338,-0.06 -0.556,-0.18 C 10.34,3.021 9.971,2.726 9.447,2.25 v -1.9 h 1.541 c 0.082,0 0.137,-0.015 0.168,-0.048 0.043,-0.033 0.061,-0.077 0.061,-0.132 0,-0.049 -0.018,-0.09 -0.061,-0.121 C 11.125,0.015 11.07,0 10.988,0 H 8.258 C 8.176,0 8.117,0.015 8.076,0.049 8.045,0.08 8.031,0.121 8.031,0.17 c 0,0.046 0.014,0.088 0.045,0.12 0.031,0.032 0.092,0.049 0.182,0.049 H 9.1 V 3.227 H 8.461 C 8.373,3.227 8.309,3.243 8.27,3.274 8.238,3.313 8.221,3.357 8.221,3.405 c 0,0.05 0.017,0.092 0.049,0.121 0.039,0.041 0.103,0.062 0.191,0.062 z M 15.943,0 v 0.507 c -0.507,-0.427 -1.045,-0.64 -1.615,-0.64 -0.418,0 -0.74,0.104 -0.973,0.315 -0.232,0.208 -0.351,0.466 -0.351,0.77 0,0.337 0.152,0.629 0.459,0.879 0.312,0.255 0.762,0.385 1.348,0.385 0.162,0 0.332,-0.013 0.515,-0.036 0.195,-0.017 0.401,-0.05 0.617,-0.098 V 2.65 c 0,0.191 -0.089,0.354 -0.265,0.493 -0.178,0.144 -0.444,0.214 -0.795,0.214 -0.264,0 -0.643,-0.078 -1.131,-0.239 -0.088,-0.023 -0.145,-0.037 -0.168,-0.037 -0.049,0 -0.09,0.016 -0.121,0.048 -0.031,0.033 -0.049,0.075 -0.049,0.121 0,0.048 0.018,0.084 0.049,0.107 0.031,0.048 0.187,0.108 0.469,0.184 0.425,0.11 0.75,0.167 0.974,0.167 0.436,0 0.772,-0.108 1.012,-0.326 0.25,-0.215 0.373,-0.462 0.373,-0.732 v -2.3 h 0.469 c 0.09,0 0.15,-0.015 0.181,-0.048 C 16.98,0.269 17.002,0.225 17.002,0.17 17.002,0.121 16.98,0.08 16.941,0.049 16.91,0.015 16.85,0 16.76,0 Z m 0,1.733 c -0.162,0.05 -0.336,0.081 -0.519,0.098 -0.176,0.023 -0.363,0.035 -0.565,0.035 -0.505,0 -0.9,-0.109 -1.193,-0.327 -0.217,-0.157 -0.324,-0.354 -0.324,-0.587 0,-0.21 0.08,-0.386 0.242,-0.53 0.168,-0.137 0.408,-0.206 0.721,-0.206 0.304,0 0.586,0.059 0.841,0.169 0.256,0.122 0.522,0.313 0.797,0.578 z m 5.541,1.494 v 0.12 c 0,0.088 0.018,0.15 0.047,0.179 0.033,0.041 0.074,0.062 0.123,0.062 0.055,0 0.1,-0.021 0.131,-0.062 0.031,-0.029 0.049,-0.091 0.049,-0.179 V 2.564 c 0,-0.087 -0.018,-0.152 -0.049,-0.191 -0.031,-0.033 -0.076,-0.049 -0.131,-0.049 -0.049,0 -0.09,0.016 -0.123,0.049 -0.029,0.03 -0.047,0.083 -0.047,0.153 -0.013,0.203 -0.142,0.391 -0.384,0.569 -0.241,0.174 -0.567,0.262 -0.977,0.262 -0.519,0 -0.914,-0.163 -1.18,-0.492 -0.261,-0.322 -0.396,-0.691 -0.396,-1.108 0,-0.448 0.144,-0.817 0.433,-1.107 0.299,-0.289 0.684,-0.434 1.157,-0.434 0.263,0 0.537,0.048 0.818,0.145 0.281,0.098 0.531,0.255 0.758,0.483 0.066,0.055 0.115,0.083 0.158,0.083 0.045,0 0.088,-0.017 0.119,-0.049 0.033,-0.03 0.049,-0.071 0.049,-0.119 0,-0.121 -0.141,-0.272 -0.424,-0.457 -0.447,-0.289 -0.947,-0.435 -1.502,-0.435 -0.552,0 -1.011,0.179 -1.373,0.532 -0.361,0.36 -0.541,0.814 -0.541,1.358 0,0.562 0.186,1.028 0.553,1.397 0.369,0.369 0.832,0.554 1.385,0.554 0.537,0 0.986,-0.162 1.347,-0.481 m 2.93,-1.673 V 0 h -0.818 c -0.08,0 -0.141,0.015 -0.18,0.049 -0.031,0.031 -0.049,0.072 -0.049,0.121 0,0.055 0.018,0.099 0.049,0.132 0.039,0.033 0.1,0.048 0.18,0.048 h 0.47 v 4.488 h -0.47 c -0.08,0 -0.141,0.016 -0.18,0.049 -0.031,0.032 -0.049,0.076 -0.049,0.134 0,0.046 0.018,0.087 0.049,0.119 0.039,0.033 0.1,0.05 0.18,0.05 h 0.818 V 1.988 l 1.471,1.239 h -0.168 c -0.09,0 -0.154,0.016 -0.196,0.047 -0.031,0.039 -0.048,0.083 -0.048,0.131 0,0.05 0.017,0.092 0.048,0.121 0.042,0.041 0.106,0.062 0.196,0.062 h 1.105 c 0.088,0 0.149,-0.021 0.18,-0.062 0.039,-0.029 0.061,-0.071 0.061,-0.121 0,-0.048 -0.022,-0.092 -0.061,-0.131 C 26.971,3.243 26.91,3.227 26.822,3.227 H 26.426 L 25.064,2.094 26.785,0.35 h 0.397 c 0.089,0 0.15,-0.015 0.183,-0.048 0.039,-0.033 0.061,-0.077 0.061,-0.132 0,-0.049 -0.022,-0.09 -0.061,-0.121 C 27.332,0.015 27.271,0 27.182,0 h -1.131 c -0.08,0 -0.139,0.015 -0.18,0.049 -0.031,0.031 -0.047,0.072 -0.047,0.121 0,0.055 0.016,0.099 0.047,0.132 0.041,0.033 0.1,0.048 0.18,0.048 h 0.252 l -1.492,1.529 z"
             style="fill:#231f20;fill-opacity:1;fill-rule:nonzero;stroke:none"
             id="path202" /></g><g
           id="g204"
           transform="translate(409.4258,519.5166)"><path
             d="M 0,0 H -219.426"
             style="fill:none;stroke:#231f20;stroke-width:0.5;stroke-linecap:butt;stroke-linejoin:miter;stroke-miterlimit:4;stroke-dasharray:none;stroke-opacity:1"
             id="path206" /></g><g
           id="g208"
           transform="translate(411.3457,520.1182)"><path
             d="m 0,0 c -0.951,0.283 -1.57,0.547 -2.334,0.85 l 0.01,-2.903 c 0.271,0.131 1.379,0.576 2.326,0.867 1.018,0.313 1.939,0.524 2.537,0.602 C 1.939,-0.512 1.016,-0.303 0,0"
             style="fill:#ffffff;fill-opacity:1;fill-rule:nonzero;stroke:none"
             id="path210" /></g><g
           id="g212"
           transform="translate(411.3457,520.1182)"><path
             d="m 0,0 c -0.951,0.283 -1.57,0.547 -2.334,0.85 l 0.01,-2.903 c 0.271,0.131 1.379,0.576 2.326,0.867 1.018,0.313 1.939,0.524 2.537,0.602 C 1.939,-0.512 1.016,-0.303 0,0 Z"
             style="fill:none;stroke:#231f20;stroke-width:0.5;stroke-linecap:butt;stroke-linejoin:round;stroke-miterlimit:4;stroke-dasharray:none;stroke-opacity:1"
             id="path214" /></g><g
           id="g216"
           transform="translate(259.6807,519.9663)"><path
             d="M 0,0 V 13.083 H 88.982 V 0"
             style="fill:none;stroke:#231f20;stroke-width:0.5;stroke-linecap:butt;stroke-linejoin:miter;stroke-miterlimit:4;stroke-dasharray:2, 1;stroke-dashoffset:0;stroke-opacity:1"
             id="path218" /></g><g
           id="g220"
           transform="translate(267.1631,524.0938)"><path
             d="m 0,0 h -0.59 l -1.431,3.227 h -0.348 c -0.09,0 -0.154,0.016 -0.192,0.047 -0.033,0.039 -0.049,0.083 -0.049,0.131 0,0.05 0.016,0.092 0.049,0.121 0.038,0.041 0.102,0.062 0.192,0.062 h 1.301 c 0.08,0 0.134,-0.021 0.168,-0.062 C -0.861,3.497 -0.84,3.455 -0.84,3.405 -0.84,3.357 -0.861,3.313 -0.9,3.274 -0.934,3.243 -0.988,3.227 -1.068,3.227 h -0.58 L -0.373,0.35 h 0.158 l 1.242,2.877 h -0.58 c -0.082,0 -0.142,0.016 -0.179,0.047 -0.034,0.039 -0.049,0.083 -0.049,0.131 0,0.05 0.015,0.092 0.049,0.121 0.037,0.041 0.097,0.062 0.179,0.062 H 1.76 C 1.846,3.588 1.908,3.567 1.938,3.526 1.971,3.497 1.986,3.455 1.986,3.405 1.986,3.357 1.971,3.313 1.938,3.274 1.908,3.243 1.846,3.227 1.76,3.227 H 1.41 Z M 6.65,1.71 H 3.113 C 3.176,1.261 3.365,0.899 3.678,0.627 3.998,0.355 4.393,0.216 4.857,0.216 c 0.256,0 0.526,0.042 0.807,0.123 0.289,0.087 0.52,0.2 0.699,0.336 0.055,0.048 0.098,0.071 0.131,0.071 0.047,0 0.09,-0.021 0.121,-0.059 C 6.646,0.654 6.662,0.614 6.662,0.566 6.662,0.518 6.645,0.474 6.602,0.432 6.467,0.298 6.23,0.17 5.891,0.049 5.555,-0.072 5.211,-0.133 4.857,-0.133 4.256,-0.133 3.752,0.062 3.352,0.447 2.959,0.84 2.764,1.312 2.764,1.866 c 0,0.507 0.185,0.938 0.554,1.301 0.375,0.359 0.842,0.541 1.395,0.541 0.57,0 1.035,-0.185 1.396,-0.554 C 6.477,2.785 6.658,2.304 6.65,1.71 M 6.303,2.059 C 6.236,2.445 6.057,2.757 5.76,2.999 5.463,3.238 5.113,3.357 4.713,3.357 4.305,3.357 3.953,3.238 3.666,2.999 3.377,2.765 3.199,2.452 3.123,2.059 Z M 9.447,3.588 V 2.709 c 0.451,0.409 0.787,0.669 1.012,0.782 0.227,0.12 0.436,0.181 0.627,0.181 0.209,0 0.402,-0.072 0.576,-0.217 0.178,-0.137 0.266,-0.241 0.266,-0.312 0,-0.048 -0.02,-0.095 -0.061,-0.135 -0.031,-0.03 -0.07,-0.048 -0.121,-0.048 -0.029,0 -0.053,0.004 -0.068,0.013 -0.02,0.015 -0.055,0.048 -0.11,0.096 -0.097,0.098 -0.179,0.161 -0.254,0.194 -0.072,0.039 -0.14,0.06 -0.203,0.06 -0.154,0 -0.338,-0.06 -0.556,-0.18 C 10.34,3.021 9.971,2.726 9.447,2.25 v -1.9 h 1.541 c 0.082,0 0.137,-0.015 0.168,-0.048 0.043,-0.033 0.061,-0.077 0.061,-0.132 0,-0.049 -0.018,-0.09 -0.061,-0.121 C 11.125,0.015 11.07,0 10.988,0 H 8.258 C 8.176,0 8.117,0.015 8.076,0.049 8.045,0.08 8.031,0.121 8.031,0.17 c 0,0.046 0.014,0.088 0.045,0.12 0.031,0.032 0.092,0.049 0.182,0.049 H 9.1 V 3.227 H 8.461 C 8.373,3.227 8.309,3.243 8.27,3.274 8.238,3.313 8.221,3.357 8.221,3.405 c 0,0.05 0.017,0.092 0.049,0.121 0.039,0.041 0.103,0.062 0.191,0.062 z M 15.943,0 v 0.507 c -0.507,-0.427 -1.045,-0.64 -1.615,-0.64 -0.418,0 -0.74,0.104 -0.973,0.315 -0.232,0.208 -0.351,0.466 -0.351,0.77 0,0.337 0.152,0.629 0.459,0.879 0.312,0.255 0.762,0.385 1.348,0.385 0.162,0 0.332,-0.013 0.515,-0.036 0.195,-0.017 0.401,-0.05 0.617,-0.098 V 2.65 c 0,0.191 -0.089,0.354 -0.265,0.493 -0.178,0.144 -0.444,0.214 -0.795,0.214 -0.264,0 -0.643,-0.078 -1.131,-0.239 -0.088,-0.023 -0.145,-0.037 -0.168,-0.037 -0.049,0 -0.09,0.016 -0.121,0.048 -0.031,0.033 -0.049,0.075 -0.049,0.121 0,0.048 0.018,0.084 0.049,0.107 0.031,0.048 0.187,0.108 0.469,0.184 0.425,0.11 0.75,0.167 0.974,0.167 0.436,0 0.772,-0.108 1.012,-0.326 0.25,-0.215 0.373,-0.462 0.373,-0.732 v -2.3 h 0.469 c 0.09,0 0.15,-0.015 0.181,-0.048 C 16.98,0.269 17.002,0.225 17.002,0.17 17.002,0.121 16.98,0.08 16.941,0.049 16.91,0.015 16.85,0 16.76,0 Z m 0,1.733 c -0.162,0.05 -0.336,0.081 -0.519,0.098 -0.176,0.023 -0.363,0.035 -0.565,0.035 -0.505,0 -0.9,-0.109 -1.193,-0.327 -0.217,-0.157 -0.324,-0.354 -0.324,-0.587 0,-0.21 0.08,-0.386 0.242,-0.53 0.168,-0.137 0.408,-0.206 0.721,-0.206 0.304,0 0.586,0.059 0.841,0.169 0.256,0.122 0.522,0.313 0.797,0.578 z m 5.541,1.494 v 0.12 c 0,0.088 0.018,0.15 0.047,0.179 0.033,0.041 0.074,0.062 0.123,0.062 0.055,0 0.1,-0.021 0.131,-0.062 0.031,-0.029 0.049,-0.091 0.049,-0.179 V 2.564 c 0,-0.087 -0.018,-0.152 -0.049,-0.191 -0.031,-0.033 -0.076,-0.049 -0.131,-0.049 -0.049,0 -0.09,0.016 -0.123,0.049 -0.029,0.03 -0.047,0.083 -0.047,0.153 -0.013,0.203 -0.142,0.391 -0.384,0.569 -0.241,0.174 -0.567,0.262 -0.977,0.262 -0.519,0 -0.914,-0.163 -1.18,-0.492 -0.261,-0.322 -0.396,-0.691 -0.396,-1.108 0,-0.448 0.144,-0.817 0.433,-1.107 0.299,-0.289 0.684,-0.434 1.157,-0.434 0.263,0 0.537,0.048 0.818,0.145 0.281,0.098 0.531,0.255 0.758,0.483 0.066,0.055 0.115,0.083 0.158,0.083 0.045,0 0.088,-0.017 0.119,-0.049 0.033,-0.03 0.049,-0.071 0.049,-0.119 0,-0.121 -0.141,-0.272 -0.424,-0.457 -0.447,-0.289 -0.947,-0.435 -1.502,-0.435 -0.552,0 -1.011,0.179 -1.373,0.532 -0.361,0.36 -0.541,0.814 -0.541,1.358 0,0.562 0.186,1.028 0.553,1.397 0.369,0.369 0.832,0.554 1.385,0.554 0.537,0 0.986,-0.162 1.347,-0.481 m 2.93,-1.673 V 0 h -0.818 c -0.08,0 -0.141,0.015 -0.18,0.049 -0.031,0.031 -0.049,0.072 -0.049,0.121 0,0.055 0.018,0.099 0.049,0.132 0.039,0.033 0.1,0.048 0.18,0.048 h 0.47 v 4.488 h -0.47 c -0.08,0 -0.141,0.016 -0.18,0.049 -0.031,0.032 -0.049,0.076 -0.049,0.134 0,0.046 0.018,0.087 0.049,0.119 0.039,0.033 0.1,0.05 0.18,0.05 h 0.818 V 1.988 l 1.471,1.239 h -0.168 c -0.09,0 -0.154,0.016 -0.196,0.047 -0.031,0.039 -0.048,0.083 -0.048,0.131 0,0.05 0.017,0.092 0.048,0.121 0.042,0.041 0.106,0.062 0.196,0.062 h 1.105 c 0.088,0 0.149,-0.021 0.18,-0.062 0.039,-0.029 0.061,-0.071 0.061,-0.121 0,-0.048 -0.022,-0.092 -0.061,-0.131 C 26.971,3.243 26.91,3.227 26.822,3.227 H 26.426 L 25.064,2.094 26.785,0.35 h 0.397 c 0.089,0 0.15,-0.015 0.183,-0.048 0.039,-0.033 0.061,-0.077 0.061,-0.132 0,-0.049 -0.022,-0.09 -0.061,-0.121 C 27.332,0.015 27.271,0 27.182,0 h -1.131 c -0.08,0 -0.139,0.015 -0.18,0.049 -0.031,0.031 -0.047,0.072 -0.047,0.121 0,0.055 0.016,0.099 0.047,0.132 0.041,0.033 0.1,0.048 0.18,0.048 h 0.252 l -1.492,1.529 z"
             style="fill:#231f20;fill-opacity:1;fill-rule:nonzero;stroke:none"
             id="path222" /></g><g
           id="g224"
           transform="translate(266.167,620.1665)"><path
             d="M 0,0 C -8.833,10.333 -25,16.319 -32.333,16.319"
             style="fill:none;stroke:#231f20;stroke-width:0.3;stroke-linecap:butt;stroke-linejoin:miter;stroke-miterlimit:10;stroke-dasharray:none;stroke-opacity:1"
             id="path226" /></g><g
           id="g228"
           transform="translate(267.2246,621.7905)"><path
             d="M 0,0 0.683,-3.676 -2.842,-2.43 Z"
             style="fill:#231f20;fill-opacity:1;fill-rule:nonzero;stroke:none"
             id="path230" /></g><g
           id="g232"
           transform="translate(268.8335,589)"><path
             d="M 0,0 C -4.167,16 -16.667,38.833 -35,47.486"
             style="fill:none;stroke:#231f20;stroke-width:0.3;stroke-linecap:butt;stroke-linejoin:miter;stroke-miterlimit:10;stroke-dasharray:none;stroke-opacity:1"
             id="path234" /></g><g
           id="g236"
           transform="translate(270.4951,589.998)"><path
             d="m 0,0 -0.993,-3.605 -2.626,2.663 z"
             style="fill:#231f20;fill-opacity:1;fill-rule:nonzero;stroke:none"
             id="path238" /></g><g
           id="g240"
           transform="translate(356.75,620.25)"><path
             d="M 0,0 C 12.341,14.465 34.417,16.417 41.75,16.417"
             style="fill:none;stroke:#231f20;stroke-width:0.3;stroke-linecap:butt;stroke-linejoin:miter;stroke-miterlimit:10;stroke-dasharray:none;stroke-opacity:1"
             id="path242" /></g><g
           id="g244"
           transform="translate(358.5195,619.4595)"><path
             d="m 0,0 -3.523,-1.25 0.678,3.677 z"
             style="fill:#231f20;fill-opacity:1;fill-rule:nonzero;stroke:none"
             id="path246" /></g><g
           id="g248"
           transform="translate(349.5,584.75)"><path
             d="M 0,0 C 39.667,14.583 38.75,39.5 49,51.917"
             style="fill:none;stroke:#231f20;stroke-width:0.3;stroke-linecap:butt;stroke-linejoin:miter;stroke-miterlimit:10;stroke-dasharray:none;stroke-opacity:1"
             id="path250" /></g><g
           id="g252"
           transform="translate(350.6553,583.1938)"><path
             d="M 0,0 -3.685,0.637 -1.29,3.51 Z"
             style="fill:#231f20;fill-opacity:1;fill-rule:nonzero;stroke:none"
             id="path254" /></g><g
           id="g256"
           transform="translate(217.5,608.6665)"><path
             d="M 0,0 C -14.667,6.833 -23.879,27.193 -38.264,27.193"
             style="fill:none;stroke:#231f20;stroke-width:0.3;stroke-linecap:butt;stroke-linejoin:miter;stroke-miterlimit:10;stroke-dasharray:none;stroke-opacity:1"
             id="path258" /></g><g
           id="g260"
           transform="translate(217.7891,610.583)"><path
             d="M 0,0 2.146,-3.063 -1.579,-3.39 Z"
             style="fill:#231f20;fill-opacity:1;fill-rule:nonzero;stroke:none"
             id="path262" /></g><g
           id="g264"
           transform="translate(253.5,525)"><path
             d="M 0,0 C -26,-2.75 -39.365,-20.25 -53.75,-20.25"
             style="fill:none;stroke:#231f20;stroke-width:0.3;stroke-linecap:butt;stroke-linejoin:miter;stroke-miterlimit:10;stroke-dasharray:none;stroke-opacity:1"
             id="path266" /></g><g
           id="g268"
           transform="translate(252.7603,526.7915)"><path
             d="m 0,0 3.417,-1.519 -3.023,-2.2 z"
             style="fill:#231f20;fill-opacity:1;fill-rule:nonzero;stroke:none"
             id="path270" /></g><g
           id="g272"
           transform="translate(354.75,548)"><path
             d="M 0,0 C 29.666,-7.333 42.583,-43 64.917,-43"
             style="fill:none;stroke:#231f20;stroke-width:0.3;stroke-linecap:butt;stroke-linejoin:miter;stroke-miterlimit:10;stroke-dasharray:none;stroke-opacity:1"
             id="path274" /></g><g
           id="g276"
           transform="translate(354.835,546.064)"><path
             d="M 0,0 -2.695,2.592 0.897,3.63 Z"
             style="fill:#231f20;fill-opacity:1;fill-rule:nonzero;stroke:none"
             id="path278" /></g><g
           id="g280"
           transform="translate(293,571.25)"><path
             d="M 0,0 C 53.25,-5.667 98.333,13.75 126.333,13.75"
             style="fill:none;stroke:#231f20;stroke-width:0.3;stroke-linecap:butt;stroke-linejoin:miter;stroke-miterlimit:10;stroke-dasharray:none;stroke-opacity:1"
             id="path282" /></g><g
           id="g284"
           transform="translate(293.3472,569.3433)"><path
             d="M 0,0 -3.022,2.202 0.396,3.718 Z"
             style="fill:#231f20;fill-opacity:1;fill-rule:nonzero;stroke:none"
             id="path286" /></g><text
           transform="matrix(1,0,0,-1,288.6743,611.125)"
           style="font-variant:normal;font-weight:normal;font-stretch:normal;font-size:9px;font-family:Courier;-inkscape-font-specification:Courier;writing-mode:lr-tb;fill:#201d1c;fill-opacity:1;fill-rule:nonzero;stroke:none"
           id="text294"><tspan
             x="0"
             y="0"
             id="tspan288">&quot;</tspan><tspan
             x="2.9159999 49.5"
             y="32.337002"
             sodipodi:role="line"
             id="tspan290">&quot;&quot;</tspan><tspan
             x="72.414001"
             y="0"
             id="tspan292">&quot;</tspan></text><g
           id="g296"
           transform="translate(367.8652,612.3154)"><path
             d="M 0,0 H 1.072 L -0.09,-2.178 c -0.08,-0.124 -0.168,-0.19 -0.267,-0.19 -0.061,0 -0.116,0.023 -0.159,0.071 -0.048,0.045 -0.07,0.092 -0.07,0.154 0,0.031 0.004,0.061 0.012,0.093 z m -7.828,1.649 c 0,0.305 -0.045,0.587 -0.139,0.858 -0.082,0.271 -0.181,0.493 -0.295,0.648 -0.06,0.093 -0.144,0.17 -0.254,0.232 -0.152,0.101 -0.32,0.15 -0.504,0.15 -0.363,0 -0.652,-0.192 -0.869,-0.573 -0.205,-0.372 -0.306,-0.815 -0.306,-1.315 V 0.916 c 0,-0.311 0.039,-0.609 0.127,-0.882 0.089,-0.271 0.187,-0.48 0.295,-0.643 0.068,-0.085 0.152,-0.154 0.252,-0.225 0.152,-0.093 0.32,-0.139 0.513,-0.139 0.365,0 0.653,0.19 0.86,0.562 0.214,0.379 0.32,0.822 0.32,1.327 z m 0.332,0.029 V 0.867 c 0,-0.703 -0.172,-1.27 -0.516,-1.689 -0.258,-0.325 -0.588,-0.48 -0.996,-0.48 -0.197,0 -0.385,0.039 -0.56,0.106 -0.166,0.08 -0.313,0.188 -0.434,0.328 -0.066,0.094 -0.148,0.229 -0.24,0.422 -0.092,0.187 -0.156,0.365 -0.196,0.528 -0.06,0.216 -0.093,0.483 -0.093,0.785 v 0.811 c 0,0.721 0.172,1.286 0.506,1.697 0.267,0.326 0.603,0.492 1.005,0.492 0.202,0 0.381,-0.042 0.549,-0.127 0.168,-0.077 0.315,-0.179 0.438,-0.318 0.074,-0.086 0.16,-0.229 0.252,-0.422 0.09,-0.195 0.156,-0.366 0.195,-0.516 0.063,-0.234 0.09,-0.497 0.09,-0.806 m -6.428,-1.922 h 0.151 c 0.144,0 0.269,-0.046 0.369,-0.155 0.107,-0.101 0.158,-0.228 0.158,-0.375 0,-0.148 -0.051,-0.276 -0.158,-0.384 -0.1,-0.093 -0.225,-0.144 -0.369,-0.144 h -0.151 c -0.139,0 -0.267,0.051 -0.375,0.144 -0.107,0.108 -0.158,0.236 -0.158,0.384 0,0.147 0.051,0.274 0.158,0.375 0.108,0.109 0.236,0.155 0.375,0.155 m -3.654,3.503 V 3.41 h -2.367 V 3.123 c 0,-0.081 -0.014,-0.139 -0.045,-0.169 -0.024,-0.032 -0.061,-0.048 -0.115,-0.048 -0.043,0 -0.083,0.016 -0.118,0.048 -0.027,0.03 -0.043,0.088 -0.043,0.169 V 3.74 h 3.034 V 3.213 l -1.34,-4.243 c -0.016,-0.071 -0.039,-0.117 -0.071,-0.14 -0.029,-0.026 -0.064,-0.036 -0.099,-0.036 -0.049,0 -0.084,0.017 -0.117,0.048 -0.032,0.038 -0.047,0.076 -0.047,0.116 0,0.03 0.01,0.069 0.025,0.115 z M -23.35,3.81 v -4.666 h 1.137 c 0.072,0 0.129,-0.017 0.158,-0.047 0.035,-0.032 0.057,-0.073 0.057,-0.127 0,-0.047 -0.022,-0.086 -0.057,-0.117 -0.029,-0.03 -0.086,-0.049 -0.158,-0.049 h -2.601 c -0.082,0 -0.143,0.019 -0.182,0.049 -0.031,0.031 -0.047,0.07 -0.047,0.117 0,0.054 0.016,0.095 0.047,0.127 0.039,0.03 0.1,0.047 0.182,0.047 h 1.132 V 3.351 L -24.768,3.022 C -24.814,3.006 -24.852,3 -24.881,3 c -0.039,0 -0.074,0.015 -0.103,0.046 -0.032,0.031 -0.045,0.066 -0.045,0.109 0,0.038 0.009,0.077 0.033,0.115 0.023,0.024 0.066,0.047 0.137,0.07 z m -5.074,-4.054 h 0.151 c 0.142,0 0.267,-0.046 0.365,-0.155 0.105,-0.101 0.16,-0.228 0.16,-0.375 0,-0.148 -0.055,-0.276 -0.16,-0.384 -0.098,-0.093 -0.223,-0.144 -0.365,-0.144 h -0.151 c -0.142,0 -0.269,0.051 -0.375,0.144 -0.109,0.108 -0.164,0.236 -0.164,0.384 0,0.147 0.055,0.274 0.164,0.375 0.106,0.109 0.233,0.155 0.375,0.155 m -3.572,1.893 c 0,0.305 -0.047,0.587 -0.141,0.858 -0.082,0.271 -0.181,0.493 -0.295,0.648 -0.064,0.093 -0.146,0.17 -0.254,0.232 -0.152,0.101 -0.322,0.15 -0.505,0.15 -0.36,0 -0.653,-0.192 -0.866,-0.573 -0.207,-0.372 -0.308,-0.815 -0.308,-1.315 V 0.916 c 0,-0.311 0.039,-0.609 0.125,-0.882 0.092,-0.271 0.193,-0.48 0.297,-0.643 0.07,-0.085 0.152,-0.154 0.25,-0.225 0.15,-0.093 0.326,-0.139 0.515,-0.139 0.365,0 0.651,0.19 0.86,0.562 0.214,0.379 0.322,0.822 0.322,1.327 z m 0.33,0.029 V 0.867 c 0,-0.703 -0.172,-1.27 -0.512,-1.689 -0.26,-0.325 -0.593,-0.48 -1,-0.48 -0.195,0 -0.383,0.039 -0.56,0.106 -0.166,0.08 -0.309,0.188 -0.432,0.328 -0.07,0.094 -0.15,0.229 -0.244,0.422 -0.092,0.187 -0.156,0.365 -0.193,0.528 -0.063,0.216 -0.092,0.483 -0.092,0.785 v 0.811 c 0,0.721 0.166,1.286 0.504,1.697 0.267,0.326 0.603,0.492 1.004,0.492 0.201,0 0.382,-0.042 0.55,-0.127 0.172,-0.077 0.315,-0.179 0.44,-0.318 0.076,-0.086 0.158,-0.229 0.25,-0.422 0.088,-0.195 0.156,-0.366 0.195,-0.516 0.055,-0.234 0.09,-0.497 0.09,-0.806 m -6.422,-1.922 h 0.149 c 0.142,0 0.265,-0.046 0.365,-0.155 0.107,-0.101 0.156,-0.228 0.156,-0.375 0,-0.148 -0.049,-0.276 -0.156,-0.384 -0.1,-0.093 -0.223,-0.144 -0.365,-0.144 h -0.149 c -0.146,0 -0.275,0.051 -0.383,0.144 -0.107,0.108 -0.158,0.236 -0.158,0.384 0,0.147 0.051,0.274 0.158,0.375 0.108,0.109 0.237,0.155 0.383,0.155 m 0,2.461 h 0.149 c 0.142,0 0.265,-0.053 0.365,-0.157 0.107,-0.106 0.156,-0.235 0.156,-0.382 0,-0.148 -0.049,-0.279 -0.156,-0.388 -0.1,-0.1 -0.223,-0.144 -0.365,-0.144 h -0.149 c -0.146,0 -0.275,0.048 -0.383,0.156 -0.107,0.11 -0.158,0.237 -0.158,0.376 0,0.155 0.051,0.281 0.158,0.382 0.108,0.104 0.237,0.157 0.383,0.157 m -4.588,0 v -3.073 h 1.295 c 0.086,0 0.143,-0.017 0.174,-0.047 0.035,-0.032 0.057,-0.073 0.057,-0.127 0,-0.047 -0.022,-0.086 -0.057,-0.117 -0.031,-0.03 -0.088,-0.049 -0.174,-0.049 h -2.932 c -0.076,0 -0.132,0.019 -0.169,0.049 -0.032,0.031 -0.047,0.07 -0.047,0.117 0,0.054 0.015,0.095 0.047,0.127 0.037,0.03 0.093,0.047 0.169,0.047 h 1.307 v 2.731 h -0.971 c -0.074,0 -0.134,0.017 -0.173,0.046 -0.032,0.038 -0.047,0.082 -0.047,0.128 0,0.048 0.015,0.084 0.047,0.11 0.039,0.038 0.099,0.058 0.173,0.058 z m -0.012,0.841 h -0.488 v 0.855 h 0.488 z M -48.777,3.74 V 1.713 c 0.211,0.232 0.414,0.395 0.601,0.48 0.196,0.094 0.416,0.14 0.662,0.14 0.246,0 0.459,-0.046 0.639,-0.14 0.174,-0.085 0.328,-0.227 0.453,-0.422 0.117,-0.178 0.18,-0.376 0.18,-0.584 v -2.043 h 0.375 c 0.082,0 0.137,-0.017 0.17,-0.047 0.031,-0.032 0.045,-0.073 0.045,-0.127 0,-0.047 -0.014,-0.086 -0.045,-0.117 -0.033,-0.03 -0.088,-0.049 -0.17,-0.049 h -1.08 c -0.074,0 -0.133,0.019 -0.17,0.049 -0.033,0.031 -0.047,0.07 -0.047,0.117 0,0.054 0.014,0.095 0.047,0.127 0.037,0.03 0.096,0.047 0.17,0.047 h 0.377 v 2.025 c 0,0.234 -0.088,0.435 -0.264,0.59 -0.166,0.162 -0.406,0.244 -0.717,0.244 -0.236,0 -0.443,-0.058 -0.625,-0.173 -0.121,-0.086 -0.32,-0.279 -0.601,-0.598 v -2.088 h 0.379 c 0.072,0 0.125,-0.017 0.156,-0.047 0.037,-0.032 0.058,-0.073 0.058,-0.127 0,-0.047 -0.021,-0.086 -0.058,-0.117 -0.031,-0.03 -0.084,-0.049 -0.156,-0.049 h -1.075 c -0.084,0 -0.142,0.019 -0.181,0.049 -0.035,0.031 -0.047,0.07 -0.047,0.117 0,0.054 0.012,0.095 0.047,0.127 0.039,0.03 0.097,0.047 0.181,0.047 h 0.362 V 3.41 h -0.442 c -0.076,0 -0.136,0.015 -0.172,0.048 -0.027,0.03 -0.046,0.073 -0.046,0.124 0,0.042 0.019,0.081 0.046,0.11 0.036,0.033 0.096,0.048 0.172,0.048 z m -2.647,-1.737 c 0,0.078 0.016,0.13 0.047,0.156 0.029,0.038 0.068,0.058 0.115,0.058 0.049,0 0.094,-0.02 0.123,-0.058 0.03,-0.026 0.047,-0.082 0.047,-0.167 V 1.431 c 0,-0.087 -0.017,-0.147 -0.047,-0.187 -0.029,-0.032 -0.074,-0.048 -0.123,-0.048 -0.047,0 -0.086,0.016 -0.115,0.048 -0.031,0.03 -0.047,0.081 -0.047,0.151 -0.014,0.156 -0.097,0.28 -0.25,0.387 -0.217,0.148 -0.504,0.221 -0.851,0.221 -0.373,0 -0.661,-0.077 -0.866,-0.232 -0.154,-0.112 -0.228,-0.237 -0.228,-0.376 0,-0.154 0.09,-0.279 0.273,-0.387 0.131,-0.077 0.367,-0.136 0.717,-0.175 0.457,-0.046 0.775,-0.104 0.955,-0.166 0.26,-0.094 0.447,-0.221 0.567,-0.385 0.125,-0.155 0.181,-0.333 0.181,-0.526 0,-0.279 -0.129,-0.528 -0.396,-0.752 -0.264,-0.217 -0.666,-0.318 -1.192,-0.318 -0.517,0 -0.943,0.125 -1.283,0.387 0,-0.085 -0.006,-0.142 -0.017,-0.174 -0.012,-0.023 -0.03,-0.046 -0.062,-0.069 -0.02,-0.013 -0.051,-0.026 -0.078,-0.026 -0.058,0 -0.099,0.019 -0.129,0.049 -0.033,0.039 -0.043,0.097 -0.043,0.174 v 0.69 c 0,0.07 0.01,0.124 0.043,0.155 0.03,0.04 0.071,0.059 0.129,0.059 0.043,0 0.083,-0.019 0.112,-0.059 0.031,-0.031 0.045,-0.073 0.045,-0.127 0,-0.117 0.035,-0.218 0.094,-0.296 0.094,-0.13 0.242,-0.232 0.433,-0.317 0.207,-0.077 0.457,-0.117 0.745,-0.117 0.423,0 0.748,0.078 0.953,0.226 0.215,0.162 0.32,0.337 0.32,0.515 0,0.21 -0.102,0.376 -0.309,0.492 -0.22,0.124 -0.544,0.206 -0.953,0.243 -0.4,0.048 -0.697,0.106 -0.877,0.176 -0.175,0.062 -0.312,0.166 -0.416,0.305 -0.098,0.14 -0.147,0.281 -0.147,0.434 0,0.28 0.14,0.509 0.413,0.679 0.281,0.163 0.615,0.248 0.992,0.248 0.455,0 0.834,-0.113 1.125,-0.33 m -4.425,-1.5 c 0,0.413 -0.149,0.76 -0.448,1.055 -0.287,0.294 -0.641,0.445 -1.06,0.445 -0.423,0 -0.779,-0.151 -1.081,-0.445 -0.287,-0.295 -0.429,-0.642 -0.429,-1.055 0,-0.403 0.142,-0.758 0.429,-1.054 0.302,-0.286 0.658,-0.434 1.081,-0.434 0.419,0 0.773,0.148 1.06,0.434 0.299,0.287 0.448,0.644 0.448,1.054 m 0.343,0 c 0,-0.503 -0.182,-0.934 -0.55,-1.29 -0.358,-0.356 -0.792,-0.527 -1.301,-0.527 -0.514,0 -0.952,0.175 -1.305,0.54 -0.358,0.355 -0.539,0.782 -0.539,1.277 0,0.505 0.181,0.935 0.539,1.29 0.353,0.361 0.791,0.54 1.305,0.54 0.509,0 0.943,-0.179 1.301,-0.54 0.368,-0.348 0.55,-0.778 0.55,-1.29 m -7.363,1.714 h 1.801 c 0.076,0 0.129,-0.02 0.158,-0.058 0.039,-0.026 0.055,-0.062 0.055,-0.11 0,-0.046 -0.016,-0.09 -0.055,-0.128 -0.029,-0.029 -0.082,-0.046 -0.158,-0.046 h -1.801 v -2.193 c 0,-0.193 0.078,-0.356 0.228,-0.48 0.155,-0.124 0.381,-0.187 0.679,-0.187 0.224,0 0.464,0.031 0.722,0.093 0.258,0.07 0.461,0.139 0.603,0.225 0.057,0.04 0.1,0.058 0.139,0.058 0.035,0 0.07,-0.018 0.1,-0.058 0.031,-0.03 0.046,-0.07 0.046,-0.107 0,-0.039 -0.015,-0.08 -0.046,-0.118 -0.082,-0.084 -0.288,-0.177 -0.614,-0.278 -0.321,-0.093 -0.632,-0.144 -0.931,-0.144 -0.377,0 -0.684,0.082 -0.911,0.26 -0.233,0.186 -0.347,0.427 -0.347,0.736 v 2.193 h -0.616 c -0.079,0 -0.133,0.017 -0.172,0.046 -0.031,0.038 -0.046,0.082 -0.046,0.128 0,0.048 0.015,0.084 0.046,0.11 0.039,0.038 0.093,0.058 0.172,0.058 h 0.616 v 0.972 c 0,0.078 0.015,0.133 0.048,0.162 0.029,0.04 0.066,0.059 0.114,0.059 0.052,0 0.096,-0.019 0.125,-0.059 0.03,-0.029 0.045,-0.084 0.045,-0.162 z m -3.209,-1.76 c -0.151,0.046 -0.316,0.078 -0.491,0.093 -0.168,0.023 -0.348,0.034 -0.536,0.034 -0.484,0 -0.861,-0.103 -1.133,-0.313 -0.208,-0.147 -0.311,-0.337 -0.311,-0.554 0,-0.202 0.077,-0.372 0.229,-0.504 0.16,-0.132 0.391,-0.198 0.687,-0.198 0.291,0 0.556,0.055 0.801,0.163 0.243,0.11 0.498,0.295 0.754,0.546 z m 0,-1.653 v 0.484 c -0.479,-0.404 -0.992,-0.602 -1.532,-0.602 -0.397,0 -0.706,0.092 -0.928,0.294 -0.221,0.202 -0.331,0.443 -0.331,0.737 0,0.317 0.148,0.593 0.435,0.833 0.297,0.241 0.726,0.366 1.282,0.366 0.152,0 0.317,-0.012 0.49,-0.036 0.183,-0.015 0.381,-0.047 0.584,-0.093 v 0.538 c 0,0.186 -0.084,0.341 -0.25,0.468 -0.169,0.141 -0.42,0.21 -0.758,0.21 -0.248,0 -0.609,-0.077 -1.074,-0.232 -0.084,-0.024 -0.138,-0.035 -0.16,-0.035 -0.045,0 -0.083,0.016 -0.114,0.046 -0.032,0.031 -0.046,0.07 -0.046,0.117 0,0.046 0.014,0.081 0.046,0.104 0.031,0.046 0.177,0.105 0.445,0.167 0.406,0.108 0.717,0.163 0.929,0.163 0.412,0 0.732,-0.104 0.962,-0.306 0.232,-0.209 0.352,-0.439 0.352,-0.702 v -2.181 h 0.449 c 0.083,0 0.138,-0.017 0.169,-0.047 0.038,-0.032 0.058,-0.073 0.058,-0.127 0,-0.047 -0.02,-0.086 -0.058,-0.117 -0.031,-0.03 -0.086,-0.049 -0.169,-0.049 z m -4.593,4.275 v 0.11 c 0,0.078 0.011,0.133 0.032,0.162 0.032,0.04 0.073,0.059 0.128,0.059 0.055,0 0.092,-0.019 0.116,-0.059 0.029,-0.029 0.044,-0.084 0.044,-0.162 V 2.344 c 0,-0.077 -0.015,-0.136 -0.044,-0.174 -0.024,-0.026 -0.061,-0.04 -0.116,-0.04 -0.046,0 -0.084,0.014 -0.115,0.04 -0.029,0.032 -0.045,0.085 -0.045,0.163 -0.014,0.225 -0.129,0.418 -0.343,0.597 -0.212,0.175 -0.496,0.259 -0.846,0.259 -0.36,0 -0.651,-0.091 -0.869,-0.283 -0.215,-0.193 -0.323,-0.41 -0.323,-0.666 0,-0.124 0.033,-0.244 0.093,-0.354 0.059,-0.108 0.142,-0.196 0.24,-0.258 0.1,-0.07 0.208,-0.124 0.332,-0.163 0.129,-0.04 0.327,-0.082 0.596,-0.128 0.449,-0.078 0.756,-0.153 0.925,-0.225 0.227,-0.101 0.401,-0.245 0.515,-0.425 0.122,-0.184 0.184,-0.399 0.184,-0.64 0,-0.38 -0.153,-0.71 -0.459,-0.974 -0.298,-0.262 -0.701,-0.387 -1.211,-0.387 -0.575,0 -1.035,0.175 -1.384,0.54 v -0.199 c 0,-0.077 -0.018,-0.135 -0.048,-0.174 -0.021,-0.03 -0.061,-0.049 -0.114,-0.049 -0.045,0 -0.083,0.019 -0.112,0.049 -0.034,0.039 -0.047,0.097 -0.047,0.174 v 0.914 c 0,0.086 0.013,0.144 0.047,0.175 0.029,0.039 0.067,0.059 0.112,0.059 0.045,0 0.086,-0.02 0.114,-0.059 0.03,-0.031 0.048,-0.082 0.048,-0.15 0.015,-0.243 0.143,-0.466 0.388,-0.667 0.247,-0.186 0.575,-0.284 0.996,-0.284 0.412,0 0.735,0.105 0.971,0.307 0.245,0.21 0.367,0.45 0.367,0.737 0,0.17 -0.045,0.325 -0.14,0.457 -0.09,0.139 -0.227,0.239 -0.407,0.317 -0.124,0.062 -0.388,0.127 -0.791,0.197 -0.542,0.095 -0.937,0.226 -1.179,0.412 -0.244,0.193 -0.367,0.461 -0.367,0.808 0,0.351 0.137,0.641 0.41,0.882 0.284,0.255 0.651,0.384 1.1,0.384 0.467,0 0.866,-0.148 1.202,-0.437 M -82.183,0 h 1.077 l -1.168,-2.178 c -0.075,-0.124 -0.162,-0.19 -0.264,-0.19 -0.06,0 -0.112,0.023 -0.16,0.071 -0.043,0.045 -0.067,0.092 -0.067,0.154 0,0.031 0.004,0.061 0.012,0.093 z m -5.084,3.41 V 1.793 c 0.191,0.086 0.373,0.148 0.55,0.187 0.181,0.039 0.354,0.059 0.514,0.059 0.412,0 0.754,-0.147 1.03,-0.435 0.282,-0.294 0.423,-0.673 0.423,-1.147 0,-0.526 -0.156,-0.953 -0.469,-1.279 -0.311,-0.325 -0.706,-0.48 -1.178,-0.48 -0.314,0 -0.616,0.062 -0.904,0.201 -0.207,0.101 -0.393,0.226 -0.559,0.364 -0.101,0.086 -0.151,0.155 -0.151,0.21 0,0.054 0.016,0.096 0.047,0.128 0.037,0.03 0.075,0.046 0.113,0.046 0.046,0 0.098,-0.023 0.149,-0.069 0.39,-0.365 0.819,-0.551 1.294,-0.551 0.381,0 0.698,0.132 0.95,0.388 0.25,0.271 0.376,0.619 0.376,1.053 0,0.373 -0.11,0.675 -0.33,0.892 -0.215,0.233 -0.49,0.34 -0.825,0.34 -0.343,0 -0.687,-0.081 -1.03,-0.258 -0.083,-0.047 -0.143,-0.07 -0.172,-0.07 -0.053,0 -0.096,0.016 -0.126,0.046 -0.023,0.032 -0.034,0.078 -0.034,0.14 V 3.74 h 2.299 c 0.085,0 0.142,-0.015 0.173,-0.048 0.031,-0.029 0.045,-0.068 0.045,-0.11 0,-0.051 -0.014,-0.094 -0.045,-0.124 C -85.158,3.425 -85.215,3.41 -85.3,3.41 Z m -3.757,0.4 v -4.666 h 1.131 c 0.077,0 0.129,-0.017 0.161,-0.047 0.037,-0.032 0.056,-0.073 0.056,-0.127 0,-0.047 -0.019,-0.086 -0.056,-0.117 -0.032,-0.03 -0.084,-0.049 -0.161,-0.049 h -2.597 c -0.083,0 -0.146,0.019 -0.183,0.049 -0.031,0.031 -0.046,0.07 -0.046,0.117 0,0.054 0.015,0.095 0.046,0.127 0.037,0.03 0.1,0.047 0.183,0.047 h 1.133 V 3.351 L -92.445,3.022 C -92.49,3.006 -92.528,3 -92.559,3 c -0.037,0 -0.071,0.015 -0.103,0.046 -0.029,0.031 -0.045,0.066 -0.045,0.109 0,0.038 0.011,0.077 0.034,0.115 0.023,0.024 0.069,0.047 0.136,0.07 z m -3.817,-2.161 c 0,0.305 -0.046,0.587 -0.138,0.858 -0.084,0.271 -0.182,0.493 -0.297,0.648 -0.062,0.093 -0.146,0.17 -0.252,0.232 -0.153,0.101 -0.32,0.15 -0.502,0.15 -0.368,0 -0.656,-0.192 -0.871,-0.573 C -97.106,2.592 -97.21,2.149 -97.21,1.649 V 0.916 c 0,-0.311 0.042,-0.609 0.127,-0.882 0.091,-0.271 0.189,-0.48 0.296,-0.643 0.068,-0.085 0.153,-0.154 0.252,-0.225 0.153,-0.093 0.325,-0.139 0.515,-0.139 0.368,0 0.652,0.19 0.859,0.562 0.212,0.379 0.32,0.822 0.32,1.327 z m 0.331,0.029 V 0.867 c 0,-0.703 -0.171,-1.27 -0.514,-1.689 -0.26,-0.325 -0.59,-0.48 -0.996,-0.48 -0.198,0 -0.386,0.039 -0.56,0.106 -0.17,0.08 -0.314,0.188 -0.435,0.328 -0.068,0.094 -0.15,0.229 -0.241,0.422 -0.091,0.187 -0.156,0.365 -0.194,0.528 -0.061,0.216 -0.09,0.483 -0.09,0.785 v 0.811 c 0,0.721 0.166,1.286 0.501,1.697 0.268,0.326 0.603,0.492 1.009,0.492 0.198,0 0.381,-0.042 0.548,-0.127 0.167,-0.077 0.313,-0.179 0.434,-0.318 0.078,-0.086 0.161,-0.229 0.254,-0.422 0.089,-0.195 0.155,-0.366 0.193,-0.516 0.062,-0.234 0.091,-0.497 0.091,-0.806 m -5.167,-0.029 c 0,0.305 -0.045,0.587 -0.136,0.858 -0.083,0.271 -0.182,0.493 -0.297,0.648 -0.061,0.093 -0.146,0.17 -0.251,0.232 -0.153,0.101 -0.322,0.15 -0.504,0.15 -0.367,0 -0.657,-0.192 -0.87,-0.573 -0.206,-0.372 -0.309,-0.815 -0.309,-1.315 V 0.916 c 0,-0.311 0.043,-0.609 0.127,-0.882 0.091,-0.271 0.19,-0.48 0.296,-0.643 0.07,-0.085 0.153,-0.154 0.253,-0.225 0.151,-0.093 0.324,-0.139 0.515,-0.139 0.367,0 0.651,0.19 0.858,0.562 0.212,0.379 0.318,0.822 0.318,1.327 z m 0.334,0.029 V 0.867 c 0,-0.703 -0.172,-1.27 -0.516,-1.689 -0.259,-0.325 -0.59,-0.48 -0.994,-0.48 -0.2,0 -0.386,0.039 -0.561,0.106 -0.169,0.08 -0.313,0.188 -0.434,0.328 -0.069,0.094 -0.151,0.229 -0.242,0.422 -0.091,0.187 -0.155,0.365 -0.193,0.528 -0.061,0.216 -0.092,0.483 -0.092,0.785 v 0.811 c 0,0.721 0.167,1.286 0.503,1.697 0.268,0.326 0.602,0.492 1.007,0.492 0.198,0 0.381,-0.042 0.549,-0.127 0.168,-0.077 0.313,-0.179 0.435,-0.318 0.076,-0.086 0.159,-0.229 0.251,-0.422 0.092,-0.195 0.158,-0.366 0.195,-0.516 0.062,-0.234 0.092,-0.497 0.092,-0.806 m -5.247,1.581 V 3.41 h -2.368 V 3.123 c 0,-0.081 -0.016,-0.139 -0.046,-0.169 -0.023,-0.032 -0.06,-0.048 -0.114,-0.048 -0.045,0 -0.083,0.016 -0.114,0.048 -0.031,0.03 -0.046,0.088 -0.046,0.169 V 3.74 h 3.032 V 3.213 l -1.338,-4.243 c -0.016,-0.071 -0.039,-0.117 -0.069,-0.14 -0.031,-0.026 -0.065,-0.036 -0.103,-0.036 -0.046,0 -0.085,0.017 -0.115,0.048 -0.031,0.038 -0.046,0.076 -0.046,0.116 0,0.03 0.008,0.069 0.022,0.115 z M -116.431,2.217 V 1.713 c 0.229,0.241 0.433,0.403 0.618,0.48 0.19,0.094 0.404,0.14 0.641,0.14 0.251,0 0.479,-0.055 0.686,-0.163 0.144,-0.07 0.275,-0.202 0.39,-0.388 0.121,-0.178 0.182,-0.368 0.182,-0.562 v -2.076 h 0.286 c 0.077,0 0.13,-0.017 0.16,-0.047 0.038,-0.032 0.058,-0.073 0.058,-0.127 0,-0.047 -0.02,-0.086 -0.058,-0.117 -0.03,-0.03 -0.083,-0.049 -0.16,-0.049 h -0.893 c -0.075,0 -0.133,0.019 -0.172,0.049 -0.03,0.031 -0.045,0.07 -0.045,0.117 0,0.054 0.015,0.095 0.045,0.127 0.039,0.03 0.097,0.047 0.172,0.047 h 0.275 v 2.025 c 0,0.234 -0.084,0.435 -0.252,0.59 -0.169,0.162 -0.396,0.244 -0.686,0.244 -0.214,0 -0.4,-0.045 -0.561,-0.139 -0.16,-0.086 -0.389,-0.298 -0.686,-0.655 v -2.065 h 0.377 c 0.077,0 0.13,-0.017 0.16,-0.047 0.038,-0.032 0.058,-0.073 0.058,-0.127 0,-0.047 -0.02,-0.086 -0.058,-0.117 -0.03,-0.03 -0.083,-0.049 -0.16,-0.049 h -1.086 c -0.077,0 -0.135,0.019 -0.173,0.049 -0.031,0.031 -0.045,0.07 -0.045,0.117 0,0.054 0.014,0.095 0.045,0.127 0.038,0.03 0.096,0.047 0.173,0.047 h 0.377 v 2.731 h -0.275 c -0.084,0 -0.145,0.017 -0.182,0.046 -0.031,0.038 -0.047,0.082 -0.047,0.128 0,0.048 0.016,0.084 0.047,0.11 0.037,0.038 0.098,0.058 0.182,0.058 z m -2.26,-1.714 c 0,0.413 -0.149,0.76 -0.446,1.055 -0.29,0.294 -0.646,0.445 -1.066,0.445 -0.418,0 -0.776,-0.151 -1.074,-0.445 -0.289,-0.295 -0.435,-0.642 -0.435,-1.055 0,-0.403 0.146,-0.758 0.435,-1.054 0.298,-0.286 0.656,-0.434 1.074,-0.434 0.42,0 0.776,0.148 1.066,0.434 0.297,0.287 0.446,0.644 0.446,1.054 m 0.343,0 c 0,-0.503 -0.182,-0.934 -0.549,-1.29 -0.359,-0.356 -0.793,-0.527 -1.306,-0.527 -0.51,0 -0.944,0.175 -1.303,0.54 -0.358,0.355 -0.536,0.782 -0.536,1.277 0,0.505 0.178,0.935 0.536,1.29 0.359,0.361 0.793,0.54 1.303,0.54 0.513,0 0.947,-0.179 1.306,-0.54 0.367,-0.348 0.549,-0.778 0.549,-1.29 m -6.503,1.714 v -3.073 h 1.291 c 0.085,0 0.142,-0.017 0.172,-0.047 0.038,-0.032 0.057,-0.073 0.057,-0.127 0,-0.047 -0.019,-0.086 -0.057,-0.117 -0.03,-0.03 -0.087,-0.049 -0.172,-0.049 h -2.929 c -0.077,0 -0.134,0.019 -0.172,0.049 -0.03,0.031 -0.044,0.07 -0.044,0.117 0,0.054 0.014,0.095 0.044,0.127 0.038,0.03 0.095,0.047 0.172,0.047 h 1.305 v 2.731 h -0.973 c -0.076,0 -0.132,0.017 -0.171,0.046 -0.03,0.038 -0.045,0.082 -0.045,0.128 0,0.048 0.015,0.084 0.045,0.11 0.039,0.038 0.095,0.058 0.171,0.058 z m -0.012,0.841 h -0.492 v 0.855 h 0.492 z m -3.907,-1.055 c 0,0.078 0.017,0.13 0.046,0.156 0.03,0.038 0.069,0.058 0.114,0.058 0.051,0 0.093,-0.02 0.124,-0.058 0.031,-0.026 0.046,-0.082 0.046,-0.167 V 1.431 c 0,-0.087 -0.015,-0.147 -0.046,-0.187 -0.031,-0.032 -0.073,-0.048 -0.124,-0.048 -0.045,0 -0.084,0.016 -0.114,0.048 -0.029,0.03 -0.046,0.081 -0.046,0.151 -0.015,0.156 -0.101,0.28 -0.254,0.387 -0.211,0.148 -0.496,0.221 -0.845,0.221 -0.373,0 -0.664,-0.077 -0.868,-0.232 -0.156,-0.112 -0.233,-0.237 -0.233,-0.376 0,-0.154 0.093,-0.279 0.279,-0.387 0.128,-0.077 0.368,-0.136 0.716,-0.175 0.459,-0.046 0.778,-0.104 0.951,-0.166 0.262,-0.094 0.45,-0.221 0.572,-0.385 0.124,-0.155 0.187,-0.333 0.187,-0.526 0,-0.279 -0.136,-0.528 -0.402,-0.752 -0.27,-0.217 -0.665,-0.318 -1.191,-0.318 -0.52,0 -0.945,0.125 -1.28,0.387 0,-0.085 -0.008,-0.142 -0.022,-0.174 -0.008,-0.023 -0.028,-0.046 -0.059,-0.069 -0.023,-0.013 -0.05,-0.026 -0.081,-0.026 -0.054,0 -0.096,0.019 -0.129,0.049 -0.029,0.039 -0.044,0.097 -0.044,0.174 v 0.69 c 0,0.07 0.015,0.124 0.044,0.155 0.033,0.04 0.075,0.059 0.129,0.059 0.047,0 0.085,-0.019 0.117,-0.059 0.03,-0.031 0.045,-0.073 0.045,-0.127 0,-0.117 0.03,-0.218 0.091,-0.296 0.088,-0.13 0.234,-0.232 0.434,-0.317 0.204,-0.077 0.455,-0.117 0.744,-0.117 0.426,0 0.744,0.078 0.948,0.226 0.216,0.162 0.321,0.337 0.321,0.515 0,0.21 -0.102,0.376 -0.309,0.492 -0.22,0.124 -0.538,0.206 -0.949,0.243 -0.403,0.048 -0.698,0.106 -0.879,0.176 -0.18,0.062 -0.315,0.166 -0.412,0.305 -0.101,0.14 -0.151,0.281 -0.151,0.434 0,0.28 0.14,0.509 0.411,0.679 0.284,0.163 0.617,0.248 0.996,0.248 0.457,0 0.831,-0.113 1.123,-0.33 m -6.322,0.214 V 1.383 c 0.426,0.388 0.745,0.64 0.961,0.747 0.212,0.11 0.411,0.168 0.596,0.168 0.196,0 0.382,-0.069 0.548,-0.201 0.167,-0.131 0.252,-0.233 0.252,-0.304 0,-0.046 -0.019,-0.088 -0.058,-0.125 -0.031,-0.025 -0.071,-0.04 -0.116,-0.04 -0.028,0 -0.052,0.003 -0.067,0.011 -0.015,0.013 -0.048,0.039 -0.1,0.086 -0.093,0.093 -0.175,0.154 -0.244,0.185 -0.07,0.038 -0.133,0.058 -0.191,0.058 -0.148,0 -0.324,-0.058 -0.527,-0.175 -0.209,-0.115 -0.558,-0.394 -1.054,-0.843 v -1.806 h 1.465 c 0.078,0 0.13,-0.017 0.16,-0.047 0.036,-0.032 0.055,-0.073 0.055,-0.127 0,-0.047 -0.019,-0.086 -0.055,-0.117 -0.03,-0.03 -0.082,-0.049 -0.16,-0.049 h -2.6 c -0.078,0 -0.133,0.019 -0.17,0.049 -0.028,0.031 -0.043,0.07 -0.043,0.117 0,0.045 0.015,0.085 0.043,0.115 0.031,0.031 0.085,0.047 0.17,0.047 h 0.803 v 2.743 h -0.605 c -0.085,0 -0.148,0.017 -0.186,0.046 -0.032,0.038 -0.047,0.082 -0.047,0.128 0,0.048 0.015,0.084 0.047,0.11 0.038,0.038 0.101,0.058 0.186,0.058 z m -2.992,-1.453 c -0.063,0.371 -0.232,0.667 -0.515,0.895 -0.28,0.227 -0.617,0.344 -0.997,0.344 -0.387,0 -0.717,-0.117 -0.996,-0.344 -0.271,-0.221 -0.445,-0.516 -0.515,-0.895 z m 0.328,-0.329 h -3.363 c 0.062,-0.427 0.244,-0.768 0.538,-1.032 0.309,-0.257 0.683,-0.388 1.124,-0.388 0.241,0 0.5,0.04 0.764,0.117 0.278,0.085 0.497,0.187 0.667,0.317 0.053,0.048 0.096,0.071 0.127,0.071 0.045,0 0.081,-0.02 0.11,-0.06 0.03,-0.03 0.045,-0.069 0.045,-0.115 0,-0.046 -0.019,-0.089 -0.056,-0.119 -0.126,-0.133 -0.354,-0.256 -0.673,-0.373 -0.321,-0.109 -0.65,-0.167 -0.984,-0.167 -0.573,0 -1.049,0.178 -1.429,0.551 -0.371,0.371 -0.563,0.822 -0.563,1.347 0,0.482 0.179,0.893 0.528,1.234 0.357,0.341 0.798,0.515 1.325,0.515 0.543,0 0.985,-0.176 1.325,-0.527 0.356,-0.349 0.523,-0.806 0.515,-1.371 m -6.322,-1.631 h -0.554 L -146,1.875 h -0.329 c -0.085,0 -0.147,0.017 -0.187,0.046 -0.027,0.038 -0.039,0.082 -0.039,0.128 0,0.048 0.012,0.084 0.039,0.11 0.04,0.038 0.102,0.058 0.187,0.058 h 1.234 c 0.075,0 0.13,-0.02 0.161,-0.058 0.039,-0.026 0.059,-0.062 0.059,-0.11 0,-0.046 -0.02,-0.09 -0.059,-0.128 -0.031,-0.029 -0.086,-0.046 -0.161,-0.046 h -0.544 l 1.209,-2.731 h 0.151 l 1.175,2.731 h -0.543 c -0.078,0 -0.135,0.017 -0.174,0.046 -0.032,0.038 -0.047,0.082 -0.047,0.128 0,0.048 0.015,0.084 0.047,0.11 0.039,0.038 0.096,0.058 0.174,0.058 h 1.243 c 0.086,0 0.144,-0.02 0.175,-0.058 0.029,-0.026 0.042,-0.062 0.042,-0.11 0,-0.046 -0.013,-0.09 -0.042,-0.128 -0.031,-0.029 -0.089,-0.046 -0.175,-0.046 h -0.329 z"
             style="fill:#231f20;fill-opacity:1;fill-rule:nonzero;stroke:none"
             id="path298" /></g><g
           id="g300"
           transform="translate(258.522,605.2407)"><path
             d="M 0,0 C 0,0.308 -0.046,0.594 -0.139,0.857 -0.22,1.137 -0.32,1.35 -0.435,1.512 -0.495,1.605 -0.58,1.683 -0.686,1.745 -0.838,1.837 -1.007,1.887 -1.189,1.887 -1.557,1.887 -1.846,1.702 -2.06,1.316 -2.266,0.943 -2.368,0.504 -2.368,0 v -0.727 c 0,-0.319 0.041,-0.609 0.124,-0.884 0.093,-0.268 0.192,-0.481 0.3,-0.64 0.068,-0.084 0.152,-0.162 0.25,-0.233 0.152,-0.089 0.325,-0.133 0.516,-0.133 0.366,0 0.651,0.184 0.858,0.559 0.212,0.385 0.32,0.827 0.32,1.331 z m 0.332,0.035 v -0.809 c 0,-0.714 -0.172,-1.277 -0.515,-1.698 -0.26,-0.318 -0.59,-0.481 -0.995,-0.481 -0.199,0 -0.386,0.039 -0.561,0.118 -0.168,0.076 -0.313,0.185 -0.434,0.317 -0.071,0.093 -0.15,0.236 -0.242,0.426 -0.091,0.19 -0.156,0.368 -0.194,0.524 -0.061,0.224 -0.091,0.486 -0.091,0.794 v 0.809 c 0,0.722 0.168,1.281 0.503,1.698 0.267,0.326 0.602,0.492 1.008,0.492 0.197,0 0.38,-0.042 0.549,-0.127 C -0.474,2.02 -0.327,1.912 -0.206,1.776 -0.129,1.694 -0.046,1.551 0.046,1.35 0.137,1.164 0.203,0.988 0.24,0.836 0.302,0.609 0.332,0.341 0.332,0.035 M -4.216,-1.29 h -3.605 c -0.075,0 -0.133,0.015 -0.171,0.048 -0.031,0.029 -0.046,0.072 -0.046,0.122 0,0.044 0.015,0.082 0.046,0.113 0.038,0.031 0.096,0.047 0.171,0.047 h 3.605 c 0.076,0 0.13,-0.016 0.16,-0.047 C -4.018,-1.038 -4,-1.076 -4,-1.12 -4,-1.17 -4.018,-1.213 -4.056,-1.242 -4.086,-1.275 -4.14,-1.29 -4.216,-1.29 m 0,1.186 h -3.605 c -0.075,0 -0.133,0.016 -0.171,0.046 -0.031,0.031 -0.046,0.074 -0.046,0.129 0,0.046 0.015,0.084 0.046,0.117 0.038,0.03 0.096,0.046 0.171,0.046 h 3.605 c 0.076,0 0.13,-0.016 0.16,-0.046 C -4.018,0.155 -4,0.114 -4,0.059 c 0,-0.047 -0.018,-0.086 -0.056,-0.117 -0.03,-0.03 -0.084,-0.046 -0.16,-0.046 m -7.316,0.679 h 1.796 c 0.076,0 0.129,-0.02 0.159,-0.059 C -9.538,0.485 -9.52,0.446 -9.52,0.4 -9.52,0.355 -9.538,0.316 -9.577,0.28 -9.607,0.249 -9.66,0.234 -9.736,0.234 h -1.796 v -2.202 c 0,-0.186 0.075,-0.349 0.228,-0.481 0.152,-0.121 0.377,-0.179 0.675,-0.179 0.22,0 0.461,0.03 0.72,0.089 0.261,0.067 0.461,0.145 0.608,0.229 0.052,0.039 0.099,0.059 0.137,0.059 0.038,0 0.072,-0.02 0.102,-0.059 0.031,-0.03 0.045,-0.069 0.045,-0.115 0,-0.039 -0.014,-0.077 -0.045,-0.114 -0.084,-0.081 -0.289,-0.174 -0.618,-0.274 -0.32,-0.101 -0.629,-0.151 -0.926,-0.151 -0.382,0 -0.686,0.088 -0.915,0.268 -0.229,0.178 -0.345,0.425 -0.345,0.728 v 2.202 h -0.617 c -0.077,0 -0.133,0.015 -0.172,0.046 -0.03,0.036 -0.044,0.075 -0.044,0.12 0,0.046 0.014,0.085 0.044,0.116 0.039,0.039 0.095,0.059 0.172,0.059 h 0.617 v 0.971 c 0,0.079 0.015,0.133 0.046,0.164 0.031,0.038 0.07,0.055 0.115,0.055 0.054,0 0.096,-0.017 0.127,-0.055 0.03,-0.031 0.046,-0.085 0.046,-0.164 z M -16.78,2.098 V 0.071 c 0.216,0.23 0.416,0.387 0.608,0.48 0.19,0.093 0.405,0.139 0.652,0.139 0.25,0 0.466,-0.046 0.64,-0.139 0.184,-0.093 0.337,-0.232 0.458,-0.423 0.121,-0.186 0.183,-0.376 0.183,-0.585 v -2.049 h 0.365 c 0.084,0 0.142,-0.015 0.173,-0.044 0.031,-0.03 0.047,-0.07 0.047,-0.124 0,-0.045 -0.016,-0.085 -0.047,-0.116 -0.031,-0.03 -0.089,-0.045 -0.173,-0.045 h -1.073 c -0.076,0 -0.134,0.015 -0.172,0.045 -0.032,0.031 -0.047,0.071 -0.047,0.116 0,0.054 0.015,0.094 0.047,0.124 0.038,0.029 0.096,0.044 0.172,0.044 h 0.377 v 2.026 c 0,0.241 -0.088,0.434 -0.264,0.597 -0.167,0.163 -0.41,0.238 -0.72,0.238 -0.238,0 -0.443,-0.054 -0.618,-0.167 -0.123,-0.086 -0.324,-0.288 -0.608,-0.598 v -2.096 h 0.379 c 0.075,0 0.129,-0.015 0.159,-0.044 0.038,-0.03 0.057,-0.07 0.057,-0.124 0,-0.045 -0.019,-0.085 -0.057,-0.116 -0.03,-0.03 -0.084,-0.045 -0.159,-0.045 h -1.075 c -0.085,0 -0.147,0.015 -0.185,0.045 -0.031,0.031 -0.046,0.071 -0.046,0.116 0,0.054 0.015,0.094 0.046,0.124 0.038,0.029 0.1,0.044 0.185,0.044 h 0.364 v 4.271 h -0.444 c -0.078,0 -0.136,0.015 -0.174,0.043 -0.03,0.029 -0.045,0.072 -0.045,0.126 0,0.046 0.015,0.086 0.045,0.116 0.038,0.032 0.096,0.048 0.174,0.048 z m -2.635,-3.128 c 0,0.391 -0.135,0.72 -0.4,0.984 -0.262,0.271 -0.576,0.401 -0.952,0.401 -0.368,0 -0.682,-0.133 -0.948,-0.413 -0.269,-0.263 -0.404,-0.588 -0.404,-0.972 0,-0.387 0.135,-0.718 0.404,-0.997 0.266,-0.262 0.58,-0.398 0.948,-0.398 0.376,0 0.69,0.136 0.952,0.398 0.265,0.279 0.4,0.61 0.4,0.997 m 0,0.997 v 0.608 h 0.775 c 0.078,0 0.132,-0.02 0.163,-0.059 0.039,-0.031 0.058,-0.07 0.058,-0.116 0,-0.045 -0.019,-0.084 -0.058,-0.12 -0.031,-0.031 -0.085,-0.046 -0.163,-0.046 h -0.445 v -3.297 c 0,-0.222 -0.046,-0.424 -0.139,-0.594 -0.058,-0.116 -0.165,-0.237 -0.318,-0.357 -0.146,-0.121 -0.279,-0.21 -0.399,-0.263 -0.124,-0.055 -0.284,-0.082 -0.481,-0.082 h -0.937 c -0.078,0 -0.136,0.015 -0.175,0.047 -0.031,0.03 -0.046,0.074 -0.046,0.127 0,0.047 0.015,0.088 0.046,0.125 0.039,0.031 0.097,0.046 0.175,0.046 l 0.948,-0.011 c 0.19,0 0.361,0.048 0.517,0.147 0.157,0.1 0.29,0.247 0.398,0.434 0.055,0.114 0.081,0.259 0.081,0.424 v 0.993 c -0.352,-0.486 -0.806,-0.727 -1.362,-0.727 -0.459,0 -0.854,0.167 -1.18,0.503 -0.326,0.341 -0.492,0.748 -0.492,1.221 0,0.472 0.166,0.88 0.492,1.218 0.326,0.332 0.721,0.502 1.18,0.502 0.556,0 1.01,-0.244 1.362,-0.723 m -5.759,0.608 v -3.081 h 1.29 c 0.085,0 0.144,-0.015 0.173,-0.044 0.037,-0.03 0.057,-0.07 0.057,-0.124 0,-0.045 -0.02,-0.085 -0.057,-0.116 -0.029,-0.03 -0.088,-0.045 -0.173,-0.045 h -2.93 c -0.078,0 -0.136,0.015 -0.173,0.045 -0.03,0.031 -0.044,0.071 -0.044,0.116 0,0.054 0.014,0.094 0.044,0.124 0.037,0.029 0.095,0.044 0.173,0.044 h 1.303 v 2.74 h -0.973 c -0.074,0 -0.129,0.015 -0.167,0.046 -0.031,0.036 -0.047,0.075 -0.047,0.12 0,0.046 0.016,0.085 0.047,0.116 0.038,0.039 0.093,0.059 0.167,0.059 z m -0.012,0.832 h -0.493 v 0.861 h 0.493 z m -3.555,-2.286 c -0.063,0.363 -0.232,0.667 -0.515,0.891 -0.28,0.233 -0.617,0.343 -0.997,0.343 -0.387,0 -0.716,-0.11 -0.996,-0.343 -0.271,-0.218 -0.445,-0.519 -0.515,-0.891 z m 0.328,-0.329 h -3.363 c 0.062,-0.429 0.244,-0.775 0.539,-1.031 0.308,-0.263 0.682,-0.389 1.124,-0.389 0.24,0 0.499,0.037 0.763,0.11 0.279,0.085 0.497,0.194 0.667,0.326 0.053,0.045 0.097,0.066 0.127,0.066 0.045,0 0.081,-0.018 0.11,-0.055 0.03,-0.031 0.046,-0.07 0.046,-0.118 0,-0.045 -0.019,-0.087 -0.057,-0.126 -0.126,-0.13 -0.354,-0.249 -0.672,-0.365 -0.322,-0.116 -0.651,-0.174 -0.984,-0.174 -0.574,0 -1.05,0.186 -1.43,0.551 -0.371,0.372 -0.562,0.825 -0.562,1.348 0,0.481 0.178,0.897 0.527,1.241 0.357,0.34 0.799,0.514 1.325,0.514 0.543,0 0.985,-0.178 1.326,-0.527 0.355,-0.351 0.523,-0.809 0.514,-1.371 m -7.705,3.306 V 0.071 c 0.217,0.23 0.415,0.387 0.609,0.48 0.194,0.093 0.407,0.139 0.655,0.139 0.248,0 0.465,-0.046 0.636,-0.139 0.185,-0.093 0.341,-0.232 0.457,-0.423 0.123,-0.186 0.186,-0.376 0.186,-0.585 v -2.049 h 0.364 c 0.085,0 0.143,-0.015 0.175,-0.044 0.031,-0.03 0.045,-0.07 0.045,-0.124 0,-0.045 -0.014,-0.085 -0.045,-0.116 -0.032,-0.03 -0.09,-0.045 -0.175,-0.045 h -1.077 c -0.07,0 -0.129,0.015 -0.167,0.045 -0.032,0.031 -0.045,0.071 -0.045,0.116 0,0.054 0.013,0.094 0.045,0.124 0.038,0.029 0.097,0.044 0.167,0.044 h 0.382 v 2.026 c 0,0.241 -0.087,0.434 -0.266,0.597 -0.163,0.163 -0.408,0.238 -0.718,0.238 -0.24,0 -0.441,-0.054 -0.619,-0.167 -0.124,-0.086 -0.321,-0.288 -0.609,-0.598 v -2.096 h 0.376 c 0.077,0 0.132,-0.015 0.163,-0.044 0.039,-0.03 0.059,-0.07 0.059,-0.124 0,-0.045 -0.02,-0.085 -0.059,-0.116 -0.031,-0.03 -0.086,-0.045 -0.163,-0.045 h -1.069 c -0.085,0 -0.147,0.015 -0.186,0.045 -0.031,0.031 -0.046,0.071 -0.046,0.116 0,0.054 0.015,0.094 0.046,0.124 0.039,0.029 0.101,0.044 0.186,0.044 h 0.365 v 4.271 h -0.447 c -0.076,0 -0.135,0.015 -0.174,0.043 -0.031,0.029 -0.047,0.072 -0.047,0.126 0,0.046 0.016,0.086 0.047,0.116 0.039,0.032 0.098,0.048 0.174,0.048 z"
             style="fill:#231f20;fill-opacity:1;fill-rule:nonzero;stroke:none"
             id="path302" /></g><g
           id="g304"
           transform="translate(344.4316,580.0938)"><path
             d="m 0,0 h 1.125 l -1.223,-2.288 c -0.08,-0.13 -0.171,-0.195 -0.274,-0.195 -0.066,0 -0.121,0.023 -0.171,0.069 -0.048,0.046 -0.069,0.1 -0.069,0.178 0,0.036 0.002,0.066 0.011,0.096 z M -7.929,2.334 V 2.015 l -2.599,-2.919 h 2.348 v 0.48 c 0,0.078 0.015,0.131 0.044,0.163 0.035,0.06 0.076,0.078 0.121,0.078 0.058,0 0.1,-0.018 0.133,-0.078 0.033,-0.032 0.049,-0.085 0.049,-0.163 l -0.014,-0.81 h -3.164 v 0.296 l 2.592,2.907 h -2.16 V 1.5 c 0,-0.078 -0.019,-0.133 -0.046,-0.172 -0.031,-0.035 -0.077,-0.053 -0.12,-0.053 -0.059,0 -0.101,0.018 -0.132,0.053 -0.033,0.039 -0.05,0.094 -0.05,0.172 v 0.834 z m -5.065,-1.521 c -0.064,0.366 -0.245,0.687 -0.537,0.925 -0.297,0.242 -0.647,0.356 -1.051,0.356 -0.404,0 -0.749,-0.114 -1.037,-0.356 -0.292,-0.231 -0.475,-0.551 -0.544,-0.925 z m 0.348,-0.355 h -3.531 c 0.067,-0.45 0.254,-0.816 0.57,-1.076 0.319,-0.281 0.708,-0.411 1.174,-0.411 0.255,0 0.525,0.038 0.805,0.114 0.287,0.085 0.52,0.214 0.694,0.344 0.057,0.045 0.101,0.069 0.131,0.069 0.047,0 0.088,-0.02 0.118,-0.059 0.033,-0.03 0.052,-0.067 0.052,-0.114 0,-0.046 -0.023,-0.11 -0.059,-0.149 -0.137,-0.129 -0.376,-0.252 -0.706,-0.366 -0.338,-0.137 -0.685,-0.194 -1.035,-0.194 -0.598,0 -1.099,0.206 -1.5,0.572 -0.393,0.397 -0.588,0.87 -0.588,1.419 0,0.503 0.182,0.939 0.551,1.304 0.381,0.358 0.844,0.539 1.388,0.539 0.569,0 1.039,-0.187 1.394,-0.55 0.369,-0.374 0.548,-0.854 0.542,-1.442 m -6.753,3.468 v -4.83 h 1.345 c 0.09,0 0.152,-0.014 0.185,-0.045 0.041,-0.03 0.063,-0.072 0.063,-0.127 0,-0.045 -0.022,-0.084 -0.063,-0.114 -0.033,-0.03 -0.095,-0.044 -0.185,-0.044 h -3.053 c -0.085,0 -0.151,0.014 -0.188,0.044 -0.035,0.03 -0.051,0.069 -0.051,0.114 0,0.055 0.016,0.097 0.051,0.127 0.037,0.031 0.103,0.045 0.188,0.045 h 1.361 v 4.475 h -0.999 c -0.091,0 -0.152,0.015 -0.193,0.045 -0.032,0.031 -0.051,0.078 -0.051,0.138 0,0.052 0.019,0.093 0.051,0.126 0.041,0.03 0.102,0.046 0.193,0.046 z m -4.06,-5.16 v 0.48 c -0.474,-0.406 -0.991,-0.63 -1.539,-0.63 -0.337,0 -0.59,0.088 -0.763,0.285 -0.237,0.23 -0.358,0.52 -0.358,0.826 v 2.242 h -0.451 c -0.088,0 -0.154,0.015 -0.194,0.046 -0.029,0.038 -0.045,0.079 -0.045,0.126 0,0.047 0.016,0.092 0.045,0.128 0.04,0.044 0.106,0.065 0.194,0.065 h 0.809 v -2.607 c 0,-0.215 0.072,-0.391 0.216,-0.551 0.143,-0.136 0.319,-0.205 0.533,-0.205 0.557,0 1.079,0.244 1.553,0.756 v 2.242 h -0.643 c -0.09,0 -0.151,0.015 -0.18,0.046 -0.034,0.038 -0.05,0.079 -0.05,0.126 0,0.047 0.016,0.092 0.05,0.128 0.029,0.044 0.09,0.065 0.18,0.065 h 0.985 v -3.238 h 0.29 c 0.087,0 0.145,-0.014 0.179,-0.045 0.037,-0.03 0.059,-0.072 0.059,-0.127 0,-0.045 -0.022,-0.084 -0.059,-0.114 -0.034,-0.03 -0.092,-0.044 -0.179,-0.044 z m -6.669,3.568 v -0.88 c 0.454,0.412 0.792,0.66 1.007,0.774 0.227,0.131 0.436,0.187 0.627,0.187 0.207,0 0.398,-0.069 0.578,-0.227 0.173,-0.132 0.265,-0.23 0.265,-0.299 0,-0.046 -0.018,-0.093 -0.064,-0.139 -0.03,-0.036 -0.07,-0.056 -0.117,-0.056 -0.032,0 -0.059,0.006 -0.074,0.015 -0.014,0.018 -0.053,0.056 -0.107,0.109 -0.099,0.093 -0.183,0.155 -0.257,0.185 -0.068,0.039 -0.135,0.058 -0.205,0.058 -0.149,0 -0.332,-0.058 -0.549,-0.172 -0.212,-0.124 -0.58,-0.421 -1.104,-0.892 v -1.901 h 1.537 c 0.078,0 0.134,-0.014 0.167,-0.045 0.038,-0.03 0.06,-0.072 0.06,-0.127 0,-0.045 -0.022,-0.084 -0.06,-0.114 -0.033,-0.03 -0.089,-0.044 -0.167,-0.044 h -2.72 c -0.082,0 -0.139,0.014 -0.179,0.044 -0.03,0.03 -0.048,0.069 -0.048,0.114 0,0.047 0.018,0.085 0.048,0.116 0.032,0.03 0.09,0.045 0.179,0.045 h 0.835 v 2.884 h -0.635 c -0.086,0 -0.147,0.015 -0.188,0.046 -0.033,0.038 -0.049,0.079 -0.049,0.126 0,0.047 0.016,0.092 0.049,0.128 0.041,0.044 0.102,0.065 0.188,0.065 z m -9.533,0 v -3.238 h 1.358 c 0.088,0 0.148,-0.014 0.18,-0.045 0.039,-0.03 0.06,-0.072 0.06,-0.127 0,-0.045 -0.021,-0.084 -0.06,-0.114 -0.032,-0.03 -0.092,-0.044 -0.18,-0.044 h -3.07 c -0.08,0 -0.14,0.014 -0.18,0.044 -0.032,0.03 -0.049,0.069 -0.049,0.114 0,0.055 0.017,0.097 0.049,0.127 0.04,0.031 0.1,0.045 0.18,0.045 h 1.366 v 2.873 h -1.02 c -0.081,0 -0.135,0.015 -0.177,0.046 -0.032,0.038 -0.047,0.079 -0.047,0.126 0,0.047 0.015,0.092 0.047,0.128 0.042,0.044 0.096,0.065 0.177,0.065 z m -0.01,0.863 h -0.514 v 0.9 h 0.514 z m -3.47,-2.051 c 0,0.568 -0.163,1.078 -0.496,1.52 -0.323,0.451 -0.748,0.687 -1.267,0.687 -0.489,0 -0.904,-0.228 -1.246,-0.659 -0.348,-0.418 -0.516,-0.935 -0.516,-1.548 0,-0.634 0.179,-1.156 0.539,-1.57 0.359,-0.411 0.767,-0.605 1.223,-0.605 0.519,0 0.944,0.21 1.267,0.653 0.333,0.449 0.496,0.956 0.496,1.522 m -1.727,-2.53 -0.457,-0.332 c 0.225,0.046 0.412,0.069 0.562,0.069 0.243,0 0.479,-0.042 0.71,-0.149 0.17,-0.061 0.292,-0.091 0.384,-0.091 0.159,0 0.342,0.061 0.539,0.204 0.072,0.047 0.124,0.07 0.156,0.07 0.057,0 0.096,-0.016 0.12,-0.046 0.033,-0.03 0.048,-0.069 0.048,-0.137 0,-0.046 -0.013,-0.079 -0.035,-0.103 -0.057,-0.069 -0.187,-0.144 -0.396,-0.229 -0.154,-0.061 -0.3,-0.091 -0.446,-0.091 -0.119,0 -0.282,0.033 -0.492,0.103 -0.197,0.068 -0.395,0.102 -0.588,0.102 -0.127,0 -0.29,-0.015 -0.489,-0.047 -0.28,-0.043 -0.502,-0.087 -0.675,-0.125 -0.052,-0.014 -0.092,-0.022 -0.117,-0.022 -0.046,0 -0.086,0.015 -0.122,0.044 -0.027,0.033 -0.046,0.074 -0.046,0.127 0,0.055 0.033,0.099 0.096,0.138 l 0.768,0.561 c -0.457,0.13 -0.845,0.397 -1.176,0.847 -0.325,0.457 -0.493,1.003 -0.493,1.637 0,0.754 0.214,1.357 0.638,1.831 0.419,0.472 0.914,0.699 1.475,0.699 0.559,0 1.052,-0.227 1.474,-0.699 0.424,-0.474 0.636,-1.077 0.636,-1.831 0,-0.726 -0.212,-1.325 -0.636,-1.797 -0.416,-0.474 -0.895,-0.725 -1.438,-0.733 M -55.735,0 h 1.129 l -1.225,-2.288 c -0.078,-0.13 -0.169,-0.195 -0.275,-0.195 -0.064,0 -0.119,0.023 -0.169,0.069 -0.045,0.046 -0.07,0.1 -0.07,0.178 0,0.036 0.004,0.066 0.012,0.096 z m -5.869,-0.904 h 2.662 v 0.128 c 0,0.105 0.018,0.162 0.049,0.193 0.031,0.031 0.072,0.045 0.121,0.045 0.056,0 0.1,-0.014 0.13,-0.045 0.033,-0.031 0.05,-0.088 0.05,-0.193 v -0.458 h -3.348 v 0.513 c 0.706,0.625 1.388,1.263 2.052,1.912 0.312,0.312 0.521,0.529 0.637,0.675 0.118,0.137 0.198,0.259 0.237,0.375 0.039,0.12 0.062,0.224 0.062,0.322 0,0.307 -0.121,0.558 -0.361,0.802 -0.233,0.221 -0.52,0.338 -0.863,0.338 -0.305,0 -0.572,-0.091 -0.803,-0.259 -0.235,-0.177 -0.385,-0.396 -0.456,-0.646 -0.017,-0.069 -0.036,-0.114 -0.061,-0.132 -0.033,-0.029 -0.069,-0.045 -0.108,-0.045 -0.047,0 -0.087,0.016 -0.121,0.045 -0.03,0.036 -0.047,0.081 -0.047,0.132 0,0.128 0.073,0.296 0.217,0.529 0.143,0.217 0.341,0.394 0.598,0.529 0.258,0.13 0.516,0.195 0.781,0.195 0.432,0 0.803,-0.144 1.116,-0.457 0.31,-0.288 0.468,-0.63 0.468,-1.019 0,-0.153 -0.03,-0.302 -0.085,-0.447 -0.049,-0.121 -0.137,-0.259 -0.265,-0.434 -0.127,-0.145 -0.352,-0.37 -0.671,-0.697 -0.814,-0.816 -1.479,-1.435 -1.991,-1.876 z m -3.398,4.899 v -4.899 h 1.186 c 0.081,0 0.135,-0.014 0.169,-0.045 0.039,-0.03 0.058,-0.072 0.058,-0.127 0,-0.045 -0.019,-0.084 -0.058,-0.114 -0.034,-0.03 -0.088,-0.044 -0.169,-0.044 h -2.722 c -0.087,0 -0.152,0.014 -0.191,0.044 -0.033,0.03 -0.049,0.069 -0.049,0.114 0,0.055 0.016,0.097 0.049,0.127 0.039,0.031 0.104,0.045 0.191,0.045 h 1.187 v 4.418 l -1.14,-0.354 c -0.047,-0.015 -0.087,-0.024 -0.119,-0.024 -0.039,0 -0.075,0.015 -0.109,0.049 -0.03,0.035 -0.047,0.078 -0.047,0.13 0,0.042 0.013,0.08 0.037,0.119 0.023,0.023 0.071,0.046 0.143,0.069 z m -4,-2.271 c 0,0.321 -0.048,0.63 -0.144,0.897 -0.088,0.298 -0.192,0.515 -0.312,0.694 -0.064,0.096 -0.153,0.171 -0.264,0.233 -0.16,0.099 -0.335,0.155 -0.527,0.155 -0.385,0 -0.687,-0.197 -0.913,-0.6 -0.215,-0.392 -0.323,-0.848 -0.323,-1.379 V 0.962 c 0,-0.336 0.045,-0.629 0.134,-0.926 0.094,-0.279 0.199,-0.506 0.31,-0.664 0.071,-0.084 0.16,-0.184 0.264,-0.251 0.16,-0.093 0.34,-0.139 0.54,-0.139 0.384,0 0.683,0.188 0.899,0.583 0.223,0.405 0.336,0.871 0.336,1.397 z m 0.347,0.041 V 0.916 c 0,-0.755 -0.179,-1.342 -0.539,-1.785 -0.271,-0.321 -0.619,-0.504 -1.043,-0.504 -0.208,0 -0.405,0.039 -0.588,0.139 -0.176,0.074 -0.327,0.182 -0.456,0.319 -0.07,0.091 -0.157,0.256 -0.252,0.445 -0.095,0.192 -0.163,0.391 -0.203,0.552 -0.064,0.243 -0.096,0.506 -0.096,0.834 v 0.849 c 0,0.75 0.175,1.338 0.527,1.772 0.28,0.35 0.631,0.514 1.056,0.514 0.208,0 0.399,-0.041 0.575,-0.125 0.175,-0.079 0.327,-0.198 0.455,-0.343 0.082,-0.084 0.169,-0.226 0.266,-0.447 0.094,-0.189 0.162,-0.372 0.203,-0.537 0.064,-0.229 0.095,-0.518 0.095,-0.834 M -74.07,1.724 c 0,0.321 -0.047,0.63 -0.143,0.897 -0.087,0.298 -0.19,0.515 -0.311,0.694 -0.063,0.096 -0.153,0.171 -0.264,0.233 -0.159,0.099 -0.337,0.155 -0.528,0.155 -0.384,0 -0.688,-0.197 -0.912,-0.6 -0.216,-0.392 -0.323,-0.848 -0.323,-1.379 V 0.962 c 0,-0.336 0.045,-0.629 0.134,-0.926 0.094,-0.279 0.197,-0.506 0.311,-0.664 0.071,-0.084 0.158,-0.184 0.263,-0.251 0.158,-0.093 0.34,-0.139 0.539,-0.139 0.385,0 0.683,0.188 0.901,0.583 0.221,0.405 0.333,0.871 0.333,1.397 z m 0.349,0.041 V 0.916 c 0,-0.755 -0.179,-1.342 -0.541,-1.785 -0.271,-0.321 -0.618,-0.504 -1.042,-0.504 -0.208,0 -0.405,0.039 -0.588,0.139 -0.176,0.074 -0.328,0.182 -0.454,0.319 -0.071,0.091 -0.157,0.256 -0.253,0.445 -0.096,0.192 -0.164,0.391 -0.204,0.552 -0.063,0.243 -0.095,0.506 -0.095,0.834 v 0.849 c 0,0.75 0.174,1.338 0.527,1.772 0.281,0.35 0.631,0.514 1.055,0.514 0.208,0 0.4,-0.041 0.574,-0.125 0.178,-0.079 0.33,-0.198 0.457,-0.343 0.08,-0.084 0.168,-0.226 0.264,-0.447 0.096,-0.189 0.165,-0.372 0.204,-0.537 0.065,-0.229 0.096,-0.518 0.096,-0.834 m -5.499,1.658 v 0.148 h -2.481 V 3.275 c 0,-0.094 -0.017,-0.154 -0.048,-0.185 -0.025,-0.03 -0.064,-0.046 -0.12,-0.046 -0.048,0 -0.088,0.016 -0.12,0.046 -0.032,0.031 -0.049,0.091 -0.049,0.185 v 0.651 h 3.179 v -0.55 l -1.403,-4.452 c -0.016,-0.068 -0.04,-0.114 -0.072,-0.137 -0.033,-0.021 -0.067,-0.057 -0.107,-0.057 -0.049,0 -0.091,0.039 -0.122,0.068 -0.032,0.038 -0.048,0.077 -0.048,0.115 0,0.031 0.009,0.069 0.024,0.115 z M -91.629,2.334 V 1.805 c 0.238,0.24 0.453,0.404 0.646,0.503 0.2,0.095 0.424,0.142 0.672,0.142 0.263,0 0.502,-0.054 0.72,-0.168 0.15,-0.091 0.288,-0.221 0.407,-0.404 0.128,-0.206 0.192,-0.393 0.192,-0.589 v -2.193 h 0.3 c 0.08,0 0.136,-0.014 0.167,-0.045 0.04,-0.03 0.06,-0.072 0.06,-0.127 0,-0.045 -0.02,-0.084 -0.06,-0.114 -0.031,-0.03 -0.087,-0.044 -0.167,-0.044 h -0.936 c -0.08,0 -0.141,0.014 -0.181,0.044 -0.031,0.03 -0.047,0.069 -0.047,0.114 0,0.055 0.016,0.097 0.047,0.127 0.04,0.031 0.101,0.045 0.181,0.045 h 0.288 v 2.121 c 0,0.256 -0.088,0.455 -0.264,0.637 -0.177,0.161 -0.416,0.24 -0.72,0.24 -0.223,0 -0.419,-0.045 -0.588,-0.136 -0.167,-0.085 -0.407,-0.325 -0.717,-0.683 v -2.179 h 0.394 c 0.08,0 0.136,-0.014 0.168,-0.045 0.04,-0.03 0.06,-0.072 0.06,-0.127 0,-0.045 -0.02,-0.084 -0.06,-0.114 -0.032,-0.03 -0.088,-0.044 -0.168,-0.044 h -1.14 c -0.079,0 -0.139,0.014 -0.179,0.044 -0.033,0.03 -0.048,0.069 -0.048,0.114 0,0.055 0.015,0.097 0.048,0.127 0.04,0.031 0.1,0.045 0.179,0.045 h 0.397 v 2.873 h -0.289 c -0.088,0 -0.151,0.015 -0.19,0.046 -0.033,0.038 -0.048,0.079 -0.048,0.126 0,0.047 0.015,0.092 0.048,0.128 0.039,0.044 0.102,0.065 0.19,0.065 z m -2.37,-1.807 c 0,0.435 -0.156,0.808 -0.467,1.099 -0.306,0.321 -0.678,0.468 -1.117,0.468 -0.438,0 -0.815,-0.147 -1.127,-0.468 -0.302,-0.291 -0.456,-0.664 -0.456,-1.099 0,-0.427 0.154,-0.8 0.456,-1.098 0.312,-0.312 0.689,-0.458 1.127,-0.458 0.439,0 0.811,0.146 1.117,0.458 0.311,0.291 0.467,0.664 0.467,1.098 m 0.36,0 c 0,-0.527 -0.193,-0.98 -0.576,-1.362 -0.375,-0.352 -0.83,-0.549 -1.368,-0.549 -0.535,0 -0.989,0.202 -1.366,0.56 -0.376,0.382 -0.562,0.832 -0.562,1.351 0,0.526 0.186,0.98 0.562,1.362 0.377,0.37 0.831,0.561 1.366,0.561 0.538,0 0.993,-0.191 1.368,-0.561 0.383,-0.373 0.576,-0.828 0.576,-1.362 m -6.817,1.807 v -3.238 h 1.354 c 0.089,0 0.149,-0.014 0.18,-0.045 0.04,-0.03 0.06,-0.072 0.06,-0.127 0,-0.045 -0.02,-0.084 -0.06,-0.114 -0.031,-0.03 -0.091,-0.044 -0.18,-0.044 h -3.07 c -0.08,0 -0.14,0.014 -0.18,0.044 -0.032,0.03 -0.046,0.069 -0.046,0.114 0,0.055 0.014,0.097 0.046,0.127 0.04,0.031 0.1,0.045 0.18,0.045 h 1.368 v 2.873 h -1.02 c -0.08,0 -0.139,0.015 -0.179,0.046 -0.032,0.038 -0.048,0.079 -0.048,0.126 0,0.047 0.016,0.092 0.048,0.128 0.04,0.044 0.099,0.065 0.179,0.065 z m -0.012,0.863 h -0.516 v 0.9 h 0.516 z m -4.096,-1.103 c 0,0.077 0.017,0.139 0.048,0.175 0.032,0.044 0.073,0.065 0.12,0.065 0.056,0 0.1,-0.021 0.132,-0.065 0.033,-0.036 0.047,-0.101 0.047,-0.186 V 1.5 c 0,-0.084 -0.014,-0.145 -0.047,-0.184 -0.032,-0.036 -0.076,-0.055 -0.132,-0.055 -0.047,0 -0.088,0.019 -0.12,0.055 -0.031,0.031 -0.048,0.081 -0.048,0.15 -0.016,0.151 -0.105,0.293 -0.264,0.412 -0.224,0.144 -0.52,0.216 -0.886,0.216 -0.393,0 -0.697,-0.075 -0.911,-0.228 -0.161,-0.128 -0.242,-0.264 -0.242,-0.4 0,-0.153 0.096,-0.305 0.29,-0.413 0.135,-0.076 0.387,-0.133 0.753,-0.172 0.481,-0.046 0.813,-0.11 0.996,-0.193 0.272,-0.092 0.472,-0.217 0.599,-0.378 0.128,-0.183 0.194,-0.359 0.194,-0.571 0,-0.283 -0.141,-0.558 -0.42,-0.781 -0.281,-0.235 -0.697,-0.342 -1.248,-0.342 -0.544,0 -0.99,0.153 -1.343,0.412 0,-0.084 -0.009,-0.143 -0.023,-0.172 -0.008,-0.023 -0.029,-0.046 -0.061,-0.069 -0.024,-0.015 -0.052,-0.021 -0.084,-0.021 -0.056,0 -0.1,0.014 -0.134,0.044 -0.031,0.038 -0.048,0.096 -0.048,0.172 v 0.71 c 0,0.099 0.017,0.152 0.048,0.183 0.034,0.038 0.078,0.057 0.134,0.057 0.048,0 0.088,-0.019 0.121,-0.057 0.031,-0.031 0.047,-0.074 0.047,-0.148 0,-0.123 0.031,-0.223 0.096,-0.298 0.095,-0.13 0.247,-0.259 0.454,-0.344 0.217,-0.076 0.477,-0.114 0.782,-0.114 0.447,0 0.779,0.076 0.993,0.228 0.225,0.183 0.337,0.356 0.337,0.54 0,0.227 -0.108,0.392 -0.324,0.528 -0.232,0.129 -0.563,0.21 -0.995,0.249 -0.423,0.046 -0.732,0.103 -0.922,0.172 -0.186,0.083 -0.331,0.193 -0.433,0.331 -0.104,0.137 -0.156,0.305 -0.156,0.458 0,0.297 0.145,0.53 0.432,0.698 0.295,0.19 0.644,0.275 1.043,0.275 0.48,0 0.871,-0.111 1.175,-0.356 m -6.625,0.24 v -0.88 c 0.446,0.412 0.782,0.66 1.007,0.774 0.222,0.131 0.432,0.187 0.625,0.187 0.206,0 0.4,-0.069 0.573,-0.227 0.177,-0.132 0.266,-0.23 0.266,-0.299 0,-0.046 -0.02,-0.093 -0.06,-0.139 -0.033,-0.036 -0.074,-0.056 -0.122,-0.056 -0.03,0 -0.056,0.006 -0.073,0.015 -0.015,0.018 -0.049,0.056 -0.104,0.109 -0.096,0.093 -0.182,0.155 -0.254,0.185 -0.073,0.039 -0.141,0.058 -0.202,0.058 -0.154,0 -0.338,-0.058 -0.551,-0.172 -0.219,-0.124 -0.585,-0.421 -1.105,-0.892 v -1.901 h 1.536 c 0.08,0 0.135,-0.014 0.167,-0.045 0.037,-0.03 0.058,-0.072 0.058,-0.127 0,-0.045 -0.021,-0.084 -0.058,-0.114 -0.032,-0.03 -0.087,-0.044 -0.167,-0.044 h -2.727 c -0.078,0 -0.137,0.014 -0.176,0.044 -0.029,0.03 -0.045,0.069 -0.045,0.114 0,0.047 0.016,0.085 0.045,0.116 0.033,0.03 0.091,0.045 0.176,0.045 h 0.843 v 2.884 h -0.634 c -0.09,0 -0.156,0.015 -0.196,0.046 -0.033,0.038 -0.048,0.079 -0.048,0.126 0,0.047 0.015,0.092 0.048,0.128 0.04,0.044 0.106,0.065 0.196,0.065 z m -3.14,-1.521 c -0.063,0.366 -0.237,0.687 -0.538,0.925 -0.291,0.242 -0.64,0.356 -1.043,0.356 -0.41,0 -0.75,-0.114 -1.042,-0.356 -0.291,-0.231 -0.468,-0.551 -0.538,-0.925 z m 0.351,-0.355 h -3.524 c 0.062,-0.45 0.246,-0.816 0.562,-1.076 0.325,-0.281 0.711,-0.411 1.172,-0.411 0.261,0 0.525,0.038 0.807,0.114 0.29,0.085 0.52,0.214 0.694,0.344 0.058,0.045 0.104,0.069 0.137,0.069 0.047,0 0.086,-0.02 0.117,-0.059 0.032,-0.03 0.047,-0.067 0.047,-0.114 0,-0.046 -0.019,-0.11 -0.058,-0.149 -0.136,-0.129 -0.375,-0.252 -0.71,-0.366 -0.332,-0.137 -0.68,-0.194 -1.034,-0.194 -0.599,0 -1.098,0.206 -1.501,0.572 -0.38,0.397 -0.585,0.87 -0.585,1.419 0,0.503 0.19,0.939 0.55,1.304 0.38,0.358 0.845,0.539 1.394,0.539 0.566,0 1.031,-0.187 1.393,-0.55 0.37,-0.374 0.547,-0.854 0.539,-1.442 m -6.62,-1.692 h -0.6 l -1.414,3.203 h -0.352 c -0.085,0 -0.147,0.015 -0.193,0.046 -0.037,0.038 -0.052,0.079 -0.052,0.126 0,0.047 0.015,0.092 0.052,0.128 0.046,0.044 0.108,0.065 0.193,0.065 h 1.303 c 0.075,0 0.13,-0.021 0.161,-0.065 0.039,-0.036 0.058,-0.081 0.058,-0.128 0,-0.047 -0.019,-0.088 -0.058,-0.126 -0.031,-0.031 -0.086,-0.046 -0.161,-0.046 h -0.59 l 1.278,-2.873 h 0.15 l 1.244,2.873 h -0.572 c -0.094,0 -0.151,0.015 -0.19,0.046 -0.033,0.038 -0.047,0.079 -0.047,0.126 0,0.047 0.014,0.092 0.047,0.128 0.039,0.044 0.096,0.065 0.19,0.065 h 1.296 c 0.085,0 0.148,-0.021 0.185,-0.065 0.035,-0.036 0.051,-0.081 0.051,-0.128 0,-0.047 -0.016,-0.088 -0.051,-0.126 -0.037,-0.031 -0.1,-0.046 -0.185,-0.046 h -0.349 z"
             style="fill:#231f20;fill-opacity:1;fill-rule:nonzero;stroke:none"
             id="path306" /></g><g
           id="g308"
           transform="translate(284.9629,571.4673)"><path
             d="M 0,0 V 3.02 H -0.18 L -1.931,0 Z m 0,-0.347 h -2.291 v 0.394 l 1.919,3.326 H 0.349 V 0 h 0.287 c 0.088,0 0.148,-0.016 0.179,-0.047 0.04,-0.031 0.061,-0.073 0.061,-0.13 0,-0.049 -0.021,-0.09 -0.061,-0.122 C 0.784,-0.332 0.724,-0.347 0.636,-0.347 H 0.349 V -1.45 h 0.287 c 0.088,0 0.148,-0.017 0.179,-0.049 0.04,-0.03 0.061,-0.074 0.061,-0.129 0,-0.05 -0.021,-0.089 -0.061,-0.121 C 0.784,-1.782 0.724,-1.798 0.636,-1.798 h -1.284 c -0.087,0 -0.152,0.016 -0.191,0.049 -0.033,0.032 -0.049,0.071 -0.049,0.121 0,0.055 0.016,0.099 0.049,0.129 0.039,0.032 0.104,0.049 0.191,0.049 H 0 Z m -4.468,1.523 c 0,0.317 -0.047,0.624 -0.142,0.897 -0.089,0.294 -0.191,0.515 -0.312,0.69 C -4.989,2.859 -5.076,2.935 -5.186,2.996 -5.344,3.1 -5.522,3.154 -5.714,3.154 -6.098,3.154 -6.401,2.955 -6.625,2.552 -6.841,2.162 -6.948,1.705 -6.948,1.176 V 0.41 c 0,-0.331 0.045,-0.636 0.133,-0.926 0.093,-0.279 0.199,-0.502 0.309,-0.67 0.071,-0.088 0.161,-0.168 0.264,-0.24 0.16,-0.096 0.341,-0.142 0.54,-0.142 0.385,0 0.682,0.193 0.901,0.586 0.223,0.4 0.333,0.865 0.333,1.392 z m 0.347,0.037 v -0.85 c 0,-0.747 -0.179,-1.339 -0.539,-1.778 -0.271,-0.334 -0.618,-0.504 -1.042,-0.504 -0.209,0 -0.404,0.041 -0.588,0.121 -0.177,0.081 -0.326,0.194 -0.456,0.335 -0.069,0.097 -0.154,0.246 -0.253,0.445 -0.095,0.198 -0.162,0.386 -0.203,0.55 -0.063,0.235 -0.095,0.507 -0.095,0.831 v 0.85 c 0,0.749 0.177,1.339 0.528,1.772 0.278,0.349 0.631,0.515 1.055,0.515 0.207,0 0.399,-0.042 0.575,-0.127 0.176,-0.076 0.328,-0.195 0.456,-0.341 0.08,-0.086 0.168,-0.228 0.265,-0.444 0.096,-0.194 0.164,-0.376 0.203,-0.539 0.064,-0.233 0.094,-0.52 0.094,-0.836 M -10.6,3.442 V -1.45 h 1.186 c 0.081,0 0.137,-0.017 0.169,-0.049 0.039,-0.03 0.059,-0.074 0.059,-0.129 0,-0.05 -0.02,-0.089 -0.059,-0.121 -0.032,-0.033 -0.088,-0.049 -0.169,-0.049 h -2.72 c -0.091,0 -0.155,0.016 -0.194,0.049 -0.032,0.032 -0.048,0.071 -0.048,0.121 0,0.055 0.016,0.099 0.048,0.129 0.039,0.032 0.103,0.049 0.194,0.049 h 1.185 v 4.411 l -1.14,-0.348 c -0.045,-0.016 -0.087,-0.025 -0.119,-0.025 -0.04,0 -0.075,0.018 -0.107,0.05 -0.034,0.033 -0.048,0.075 -0.048,0.125 0,0.041 0.012,0.08 0.035,0.119 0.024,0.023 0.073,0.046 0.144,0.068 z M -16.795,3.02 V 1.335 c 0.202,0.086 0.393,0.147 0.575,0.185 0.192,0.042 0.372,0.063 0.541,0.063 0.43,0 0.792,-0.151 1.078,-0.457 0.296,-0.299 0.445,-0.701 0.445,-1.196 0,-0.551 -0.164,-0.999 -0.492,-1.345 -0.328,-0.334 -0.739,-0.504 -1.235,-0.504 -0.329,0 -0.643,0.073 -0.948,0.218 -0.214,0.105 -0.412,0.231 -0.586,0.382 -0.104,0.089 -0.156,0.161 -0.156,0.218 0,0.053 0.014,0.098 0.048,0.131 0.039,0.031 0.08,0.047 0.119,0.047 0.049,0 0.1,-0.024 0.155,-0.073 0.408,-0.382 0.86,-0.572 1.356,-0.572 0.401,0 0.731,0.134 0.996,0.408 0.263,0.277 0.395,0.644 0.395,1.101 0,0.394 -0.117,0.703 -0.348,0.938 -0.223,0.236 -0.511,0.358 -0.864,0.358 -0.359,0 -0.719,-0.093 -1.079,-0.277 -0.087,-0.046 -0.147,-0.07 -0.18,-0.07 -0.056,0 -0.1,0.016 -0.132,0.046 -0.023,0.032 -0.037,0.077 -0.037,0.143 v 2.294 h 2.413 c 0.086,0 0.148,-0.014 0.179,-0.045 0.033,-0.031 0.048,-0.074 0.048,-0.124 0,-0.058 -0.015,-0.104 -0.048,-0.137 C -14.583,3.034 -14.645,3.02 -14.731,3.02 Z M -20.266,0 v 3.02 h -0.18 L -22.198,0 Z m 0,-0.347 h -2.291 v 0.394 l 1.919,3.326 h 0.72 V 0 h 0.288 c 0.087,0 0.149,-0.016 0.18,-0.047 0.04,-0.031 0.059,-0.073 0.059,-0.13 0,-0.049 -0.019,-0.09 -0.059,-0.122 -0.031,-0.033 -0.093,-0.048 -0.18,-0.048 h -0.288 V -1.45 h 0.288 c 0.087,0 0.149,-0.017 0.18,-0.049 0.04,-0.03 0.059,-0.074 0.059,-0.129 0,-0.05 -0.019,-0.089 -0.059,-0.121 -0.031,-0.033 -0.093,-0.049 -0.18,-0.049 h -1.284 c -0.087,0 -0.151,0.016 -0.193,0.049 -0.032,0.032 -0.047,0.071 -0.047,0.121 0,0.055 0.015,0.099 0.047,0.129 0.042,0.032 0.106,0.049 0.193,0.049 h 0.648 z M -26.927,3.02 V 1.335 c 0.199,0.086 0.39,0.147 0.575,0.185 0.191,0.042 0.372,0.063 0.539,0.063 0.432,0 0.792,-0.151 1.08,-0.457 0.296,-0.299 0.444,-0.701 0.444,-1.196 0,-0.551 -0.164,-0.999 -0.491,-1.345 -0.329,-0.334 -0.741,-0.504 -1.238,-0.504 -0.327,0 -0.642,0.073 -0.945,0.218 -0.216,0.105 -0.412,0.231 -0.588,0.382 -0.104,0.089 -0.157,0.161 -0.157,0.218 0,0.053 0.016,0.098 0.048,0.131 0.041,0.031 0.081,0.047 0.12,0.047 0.048,0 0.101,-0.024 0.157,-0.073 0.407,-0.382 0.859,-0.572 1.353,-0.572 0.402,0 0.734,0.134 0.998,0.408 0.262,0.277 0.395,0.644 0.395,1.101 0,0.394 -0.116,0.703 -0.348,0.938 -0.224,0.236 -0.512,0.358 -0.864,0.358 -0.359,0 -0.719,-0.093 -1.078,-0.277 -0.089,-0.046 -0.149,-0.07 -0.181,-0.07 -0.057,0 -0.099,0.016 -0.131,0.046 -0.025,0.032 -0.037,0.077 -0.037,0.143 v 2.294 h 2.411 c 0.088,0 0.147,-0.014 0.18,-0.045 0.031,-0.031 0.048,-0.074 0.048,-0.124 0,-0.058 -0.017,-0.104 -0.048,-0.137 -0.033,-0.033 -0.092,-0.047 -0.18,-0.047 z m -2.225,-3.197 h -3.778 c -0.078,0 -0.139,0.015 -0.179,0.049 -0.033,0.031 -0.049,0.072 -0.049,0.128 0,0.047 0.016,0.088 0.049,0.119 0.04,0.033 0.101,0.048 0.179,0.048 h 3.778 c 0.08,0 0.136,-0.015 0.168,-0.048 0.04,-0.031 0.06,-0.072 0.06,-0.119 0,-0.056 -0.02,-0.097 -0.06,-0.128 -0.032,-0.034 -0.088,-0.049 -0.168,-0.049 m 0,1.243 h -3.778 c -0.078,0 -0.139,0.017 -0.179,0.049 -0.033,0.033 -0.049,0.077 -0.049,0.135 0,0.049 0.016,0.09 0.049,0.121 0.04,0.031 0.101,0.046 0.179,0.046 h 3.778 c 0.08,0 0.136,-0.015 0.168,-0.046 0.04,-0.031 0.06,-0.076 0.06,-0.134 0,-0.049 -0.02,-0.089 -0.06,-0.122 -0.032,-0.032 -0.088,-0.049 -0.168,-0.049 m -7.668,0.712 h 1.882 c 0.08,0 0.135,-0.021 0.167,-0.062 0.042,-0.032 0.061,-0.072 0.061,-0.122 0,-0.049 -0.019,-0.093 -0.061,-0.131 -0.032,-0.031 -0.087,-0.046 -0.167,-0.046 h -1.882 v -2.304 c 0,-0.198 0.079,-0.367 0.24,-0.504 0.159,-0.126 0.395,-0.191 0.706,-0.191 0.232,0 0.483,0.031 0.756,0.096 0.271,0.071 0.483,0.151 0.637,0.24 0.054,0.041 0.103,0.06 0.142,0.06 0.04,0 0.076,-0.019 0.108,-0.06 0.033,-0.032 0.048,-0.073 0.048,-0.12 0,-0.041 -0.015,-0.08 -0.048,-0.12 -0.089,-0.087 -0.302,-0.184 -0.648,-0.288 -0.334,-0.104 -0.658,-0.155 -0.971,-0.155 -0.4,0 -0.718,0.09 -0.959,0.276 -0.238,0.19 -0.361,0.448 -0.361,0.766 v 2.304 h -0.647 c -0.08,0 -0.138,0.015 -0.179,0.046 -0.031,0.038 -0.046,0.082 -0.046,0.131 0,0.05 0.015,0.09 0.046,0.122 0.041,0.041 0.099,0.062 0.179,0.062 h 0.647 V 2.8 c 0,0.078 0.017,0.132 0.049,0.161 0.034,0.039 0.074,0.059 0.121,0.059 0.056,0 0.099,-0.02 0.132,-0.059 0.031,-0.029 0.048,-0.083 0.048,-0.161 z m -5.5,1.595 V 1.25 c 0.226,0.236 0.436,0.406 0.637,0.504 0.199,0.098 0.426,0.143 0.684,0.143 0.262,0 0.488,-0.045 0.67,-0.143 0.193,-0.098 0.353,-0.25 0.48,-0.443 0.126,-0.196 0.192,-0.397 0.192,-0.613 V -1.45 h 0.383 c 0.088,0 0.149,-0.017 0.182,-0.049 0.032,-0.03 0.048,-0.074 0.048,-0.129 0,-0.05 -0.016,-0.089 -0.048,-0.121 -0.033,-0.033 -0.094,-0.049 -0.182,-0.049 h -1.125 c -0.08,0 -0.14,0.016 -0.18,0.049 -0.034,0.032 -0.049,0.071 -0.049,0.121 0,0.055 0.015,0.099 0.049,0.129 0.04,0.032 0.1,0.049 0.18,0.049 h 0.396 v 2.123 c 0,0.249 -0.093,0.453 -0.278,0.626 -0.175,0.164 -0.428,0.246 -0.755,0.246 -0.248,0 -0.463,-0.059 -0.647,-0.174 -0.129,-0.087 -0.34,-0.3 -0.637,-0.624 V -1.45 h 0.397 c 0.079,0 0.135,-0.017 0.168,-0.049 0.039,-0.03 0.059,-0.074 0.059,-0.129 0,-0.05 -0.02,-0.089 -0.059,-0.121 -0.033,-0.033 -0.089,-0.049 -0.168,-0.049 h -1.127 c -0.09,0 -0.153,0.016 -0.193,0.049 -0.032,0.032 -0.048,0.071 -0.048,0.121 0,0.055 0.016,0.099 0.048,0.129 0.04,0.032 0.103,0.049 0.193,0.049 h 0.382 v 4.47 h -0.467 c -0.08,0 -0.14,0.014 -0.18,0.047 -0.032,0.033 -0.047,0.079 -0.047,0.137 0,0.05 0.015,0.093 0.047,0.124 0.04,0.031 0.1,0.045 0.18,0.045 z m -2.763,-3.277 c 0,0.406 -0.14,0.757 -0.419,1.03 -0.272,0.283 -0.604,0.419 -0.998,0.419 -0.383,0 -0.714,-0.139 -0.994,-0.43 -0.279,-0.275 -0.421,-0.619 -0.421,-1.019 0,-0.408 0.142,-0.753 0.421,-1.043 0.28,-0.279 0.611,-0.419 0.994,-0.419 0.394,0 0.726,0.14 0.998,0.419 0.279,0.29 0.419,0.635 0.419,1.043 m 0,1.043 v 0.639 h 0.814 c 0.081,0 0.137,-0.021 0.169,-0.062 0.041,-0.032 0.061,-0.072 0.061,-0.122 0,-0.049 -0.02,-0.093 -0.061,-0.131 -0.032,-0.031 -0.088,-0.046 -0.169,-0.046 h -0.467 v -3.455 c 0,-0.232 -0.047,-0.44 -0.144,-0.624 -0.062,-0.119 -0.176,-0.243 -0.335,-0.371 -0.152,-0.128 -0.293,-0.219 -0.42,-0.276 -0.128,-0.056 -0.296,-0.084 -0.503,-0.084 h -0.983 c -0.08,0 -0.14,0.016 -0.181,0.048 -0.031,0.032 -0.047,0.075 -0.047,0.131 0,0.048 0.016,0.093 0.047,0.134 0.041,0.032 0.101,0.047 0.181,0.047 l 0.995,-0.012 c 0.2,0 0.379,0.052 0.54,0.156 0.167,0.103 0.307,0.257 0.419,0.456 0.056,0.12 0.084,0.268 0.084,0.443 v 1.043 c -0.368,-0.511 -0.843,-0.767 -1.427,-0.767 -0.482,0 -0.893,0.175 -1.235,0.528 -0.344,0.36 -0.516,0.786 -0.516,1.282 0,0.495 0.172,0.917 0.516,1.275 0.342,0.351 0.753,0.526 1.235,0.526 0.584,0 1.059,-0.253 1.427,-0.758 m -6.035,0.639 V -1.45 h 1.353 c 0.088,0 0.149,-0.017 0.18,-0.049 0.038,-0.03 0.059,-0.074 0.059,-0.129 0,-0.05 -0.021,-0.089 -0.059,-0.121 -0.031,-0.033 -0.092,-0.049 -0.18,-0.049 h -3.073 c -0.081,0 -0.14,0.016 -0.178,0.049 -0.032,0.032 -0.047,0.071 -0.047,0.121 0,0.055 0.015,0.099 0.047,0.129 0.038,0.032 0.097,0.049 0.178,0.049 h 1.368 v 2.867 h -1.019 c -0.078,0 -0.136,0.015 -0.177,0.046 -0.033,0.038 -0.049,0.082 -0.049,0.131 0,0.05 0.016,0.09 0.049,0.122 0.041,0.041 0.099,0.062 0.177,0.062 z m -0.012,0.873 h -0.517 v 0.895 h 0.517 z m -3.73,-2.398 c -0.063,0.383 -0.237,0.694 -0.538,0.935 -0.291,0.241 -0.641,0.357 -1.043,0.357 -0.411,0 -0.75,-0.116 -1.042,-0.357 -0.291,-0.232 -0.468,-0.544 -0.538,-0.935 z m 0.351,-0.345 h -3.524 c 0.062,-0.451 0.245,-0.812 0.561,-1.082 0.326,-0.272 0.711,-0.408 1.173,-0.408 0.26,0 0.525,0.04 0.806,0.119 0.29,0.088 0.52,0.2 0.695,0.337 0.057,0.048 0.104,0.071 0.136,0.071 0.048,0 0.087,-0.018 0.118,-0.058 0.031,-0.031 0.047,-0.073 0.047,-0.121 0,-0.048 -0.019,-0.093 -0.059,-0.132 -0.135,-0.136 -0.374,-0.262 -0.709,-0.383 -0.332,-0.122 -0.68,-0.18 -1.034,-0.18 -0.599,0 -1.098,0.191 -1.501,0.575 -0.381,0.391 -0.586,0.862 -0.586,1.414 0,0.503 0.191,0.934 0.551,1.299 0.379,0.357 0.844,0.538 1.394,0.538 0.566,0 1.031,-0.184 1.393,-0.549 0.369,-0.372 0.547,-0.852 0.539,-1.44 m -8.073,3.465 V 1.25 c 0.217,0.236 0.438,0.406 0.632,0.504 0.194,0.098 0.43,0.143 0.679,0.143 0.27,0 0.487,-0.045 0.681,-0.143 0.185,-0.098 0.341,-0.25 0.48,-0.443 0.123,-0.196 0.186,-0.397 0.186,-0.613 V -1.45 h 0.387 c 0.085,0 0.143,-0.017 0.175,-0.049 0.03,-0.03 0.045,-0.074 0.045,-0.129 0,-0.05 -0.015,-0.089 -0.045,-0.121 -0.032,-0.033 -0.09,-0.049 -0.175,-0.049 h -1.123 c -0.093,0 -0.152,0.016 -0.19,0.049 -0.032,0.032 -0.046,0.071 -0.046,0.121 0,0.055 0.014,0.099 0.046,0.129 0.038,0.032 0.097,0.049 0.19,0.049 h 0.382 v 2.123 c 0,0.249 -0.087,0.453 -0.266,0.626 -0.185,0.164 -0.431,0.246 -0.764,0.246 -0.24,0 -0.464,-0.059 -0.642,-0.174 -0.124,-0.087 -0.344,-0.3 -0.632,-0.624 V -1.45 h 0.399 c 0.078,0 0.132,-0.017 0.163,-0.049 0.039,-0.03 0.059,-0.074 0.059,-0.129 0,-0.05 -0.02,-0.089 -0.059,-0.121 -0.031,-0.033 -0.085,-0.049 -0.163,-0.049 h -1.138 c -0.085,0 -0.147,0.016 -0.186,0.049 -0.031,0.032 -0.046,0.071 -0.046,0.121 0,0.055 0.015,0.099 0.046,0.129 0.039,0.032 0.101,0.049 0.186,0.049 h 0.388 v 4.47 h -0.469 c -0.077,0 -0.136,0.014 -0.175,0.047 -0.03,0.033 -0.047,0.079 -0.047,0.137 0,0.05 0.017,0.093 0.047,0.124 0.039,0.031 0.098,0.045 0.175,0.045 z"
             style="fill:#231f20;fill-opacity:1;fill-rule:nonzero;stroke:none"
             id="path310" /></g></g></g></g></svg>
