<?xml version="1.0" encoding="UTF-8" standalone="no"?>
<svg
   xmlns:dc="http://purl.org/dc/elements/1.1/"
   xmlns:cc="http://creativecommons.org/ns#"
   xmlns:rdf="http://www.w3.org/1999/02/22-rdf-syntax-ns#"
   xmlns:svg="http://www.w3.org/2000/svg"
   xmlns="http://www.w3.org/2000/svg"
   xmlns:sodipodi="http://sodipodi.sourceforge.net/DTD/sodipodi-0.dtd"
   xmlns:inkscape="http://www.inkscape.org/namespaces/inkscape"
   version="1.1"
   id="svg2"
   xml:space="preserve"
   width="316.27838"
   height="239.65546"
   viewBox="0 0 316.27838 239.65546"
   sodipodi:docname="u08-01.ai"><metadata
     id="metadata8"><rdf:RDF><cc:Work
         rdf:about=""><dc:format>image/svg+xml</dc:format><dc:type
           rdf:resource="http://purl.org/dc/dcmitype/StillImage" /></cc:Work></rdf:RDF></metadata><defs
     id="defs6"><clipPath
       clipPathUnits="userSpaceOnUse"
       id="clipPath18"><path
         d="M 0,792 H 612 V 0 H 0 Z"
         id="path16" /></clipPath><clipPath
       clipPathUnits="userSpaceOnUse"
       id="clipPath94"><path
         d="M 0,792 H 612 V 0 H 0 Z"
         id="path92" /></clipPath><clipPath
       clipPathUnits="userSpaceOnUse"
       id="clipPath114"><path
         d="M 0,792 H 612 V 0 H 0 Z"
         id="path112" /></clipPath><clipPath
       clipPathUnits="userSpaceOnUse"
       id="clipPath134"><path
         d="M 0,792 H 612 V 0 H 0 Z"
         id="path132" /></clipPath><linearGradient
       x1="0"
       y1="0"
       x2="1"
       y2="0"
       gradientUnits="userSpaceOnUse"
       gradientTransform="matrix(14.714944,-38.04998,-38.04998,-14.714944,204.33154,616.00781)"
       spreadMethod="pad"
       id="linearGradient164"><stop
         style="stop-opacity:1;stop-color:#cbdbeb"
         offset="0"
         id="stop160" /><stop
         style="stop-opacity:1;stop-color:#9cadc5"
         offset="1"
         id="stop162" /></linearGradient><clipPath
       clipPathUnits="userSpaceOnUse"
       id="clipPath174"><path
         d="M 0,792 H 612 V 0 H 0 Z"
         id="path172" /></clipPath><linearGradient
       x1="0"
       y1="0"
       x2="1"
       y2="0"
       gradientUnits="userSpaceOnUse"
       gradientTransform="matrix(14.714944,-38.04998,-38.04998,-14.714944,242.81934,537.9873)"
       spreadMethod="pad"
       id="linearGradient218"><stop
         style="stop-opacity:1;stop-color:#cbdbeb"
         offset="0"
         id="stop214" /><stop
         style="stop-opacity:1;stop-color:#9cadc5"
         offset="1"
         id="stop216" /></linearGradient><clipPath
       clipPathUnits="userSpaceOnUse"
       id="clipPath228"><path
         d="M 0,792 H 612 V 0 H 0 Z"
         id="path226" /></clipPath><linearGradient
       x1="0"
       y1="0"
       x2="1"
       y2="0"
       gradientUnits="userSpaceOnUse"
       gradientTransform="matrix(14.714515,-38.04887,-38.04887,-14.714515,367.44922,621.29785)"
       spreadMethod="pad"
       id="linearGradient272"><stop
         style="stop-opacity:1;stop-color:#cbdbeb"
         offset="0"
         id="stop268" /><stop
         style="stop-opacity:1;stop-color:#9cadc5"
         offset="1"
         id="stop270" /></linearGradient><clipPath
       clipPathUnits="userSpaceOnUse"
       id="clipPath282"><path
         d="M 0,792 H 612 V 0 H 0 Z"
         id="path280" /></clipPath><linearGradient
       x1="0"
       y1="0"
       x2="1"
       y2="0"
       gradientUnits="userSpaceOnUse"
       gradientTransform="matrix(14.714299,-38.048317,-38.048317,-14.714299,282.81836,651.32031)"
       spreadMethod="pad"
       id="linearGradient326"><stop
         style="stop-opacity:1;stop-color:#cbdbeb"
         offset="0"
         id="stop322" /><stop
         style="stop-opacity:1;stop-color:#9cadc5"
         offset="1"
         id="stop324" /></linearGradient><clipPath
       clipPathUnits="userSpaceOnUse"
       id="clipPath336"><path
         d="M 0,792 H 612 V 0 H 0 Z"
         id="path334" /></clipPath><linearGradient
       x1="0"
       y1="0"
       x2="1"
       y2="0"
       gradientUnits="userSpaceOnUse"
       gradientTransform="matrix(14.714944,-38.04998,-38.04998,-14.714944,331.60254,548.06348)"
       spreadMethod="pad"
       id="linearGradient380"><stop
         style="stop-opacity:1;stop-color:#cbdbeb"
         offset="0"
         id="stop376" /><stop
         style="stop-opacity:1;stop-color:#9cadc5"
         offset="1"
         id="stop378" /></linearGradient><clipPath
       clipPathUnits="userSpaceOnUse"
       id="clipPath390"><path
         d="M 0,792 H 612 V 0 H 0 Z"
         id="path388" /></clipPath><clipPath
       clipPathUnits="userSpaceOnUse"
       id="clipPath432"><path
         d="M 0,792 H 612 V 0 H 0 Z"
         id="path430" /></clipPath><clipPath
       clipPathUnits="userSpaceOnUse"
       id="clipPath446"><path
         d="M 0,792 H 612 V 0 H 0 Z"
         id="path444" /></clipPath></defs><sodipodi:namedview
     pagecolor="#ffffff"
     bordercolor="#666666"
     borderopacity="1"
     objecttolerance="10"
     gridtolerance="10"
     guidetolerance="10"
     inkscape:pageopacity="0"
     inkscape:pageshadow="2"
     inkscape:window-width="640"
     inkscape:window-height="480"
     id="namedview4" /><g
     id="g10"
     inkscape:groupmode="layer"
     inkscape:label="u08-01"
     transform="matrix(1.3333333,0,0,-1.3333333,-230.14708,887.96384)"><g
       id="g12"><g
         id="g14"
         clip-path="url(#clipPath18)"><g
           id="g20"
           transform="translate(183.0459,595.7456)"><path
             d="M 0,0 C -13.3,8.05 -6.785,28.666 11.199,26.95 9.45,49.351 38.5,59.5 51.1,48.3 c 3.85,18.2 27.64,28.962 46.263,15.53 4.049,7.395 18.309,8.847 22.424,0.308 7.875,4.987 23.002,6.877 30.857,-9.339 12.871,12.706 26.268,7.756 32.406,-5.448 9.101,4.549 23.188,-0.526 23.451,-17.851 14.349,0 25.023,-23.275 11.373,-38.675 l 0.351,-0.176 c 7.35,-6.824 10.5,-13.561 6.825,-29.311 -2.619,-11.225 -14.962,-19.163 -20.65,-17.676 4.375,-5.949 7,-32.024 -22.925,-27.737 -1.837,-17.587 -22.837,-18.9 -30.188,-14.175 -11.287,-18.2 -37.887,-12.6 -42.437,-4.2 -11.201,-15.4 -40.6,-8.75 -44.45,5.6 -9.45,-12.95 -32.55,-4.55 -32.55,8.4 -6.65,-0.35 -18.9,7.7 -13.65,18.2 -19.6,-2.8 -31.501,22.138 -20.388,37.013 C -10.675,-27.038 -15.313,-6.737 0,0"
             style="fill:#f2f2f2;fill-opacity:1;fill-rule:nonzero;stroke:none"
             id="path22" /></g><g
           id="g24"
           transform="translate(233.6201,644.5708)"><path
             d="m 0,0 c -12.6,9.975 -41.124,0.525 -39.375,-21.875 -17.984,1.716 -24.499,-18.9 -11.199,-26.95 -6.913,-1.662 -17.676,-17.412 -2.45,-31.325"
             style="fill:none;stroke:#656263;stroke-width:0.5;stroke-linecap:butt;stroke-linejoin:miter;stroke-miterlimit:10;stroke-dasharray:none;stroke-opacity:1"
             id="path26" /></g><g
           id="g28"
           transform="translate(400.9199,588.5708)"><path
             d="m 0,0 v 0 c 7.351,-6.825 10.851,-13.737 7.176,-29.487 -2.619,-11.225 -14.962,-19.163 -20.65,-17.676 4.375,-5.949 7,-32.025 -22.925,-27.737 -1.837,-17.587 -22.837,-18.9 -30.188,-14.175 -11.287,-18.2 -37.887,-12.6 -42.437,-4.2 -11.201,-15.4 -40.6,-8.75 -44.45,5.6 -9.45,-12.95 -32.55,-4.551 -32.55,8.4 -6.65,-0.35 -18.9,7.7 -13.65,18.2 -19.6,-2.8 -34.563,23.538 -16.45,41.65"
             style="fill:none;stroke:#656263;stroke-width:0.5;stroke-linecap:butt;stroke-linejoin:miter;stroke-miterlimit:10;stroke-dasharray:none;stroke-opacity:1"
             id="path30" /></g><g
           id="g32"
           transform="translate(233.0957,637.7456)"><path
             d="m 0,0 c 1.75,25.2 28.69,35.262 47.313,21.83 4.049,7.395 18.309,8.847 22.424,0.308 7.875,4.987 23.002,6.877 30.857,-9.339 12.345,12.443 26.268,7.756 32.406,-5.448 9.102,4.549 23.188,-0.526 23.451,-17.851 15.75,-0.35 29.049,-28.351 3.675,-44.975"
             style="fill:#f2f2f2;fill-opacity:1;fill-rule:nonzero;stroke:#656263;stroke-width:0.5;stroke-linecap:butt;stroke-linejoin:miter;stroke-miterlimit:10;stroke-dasharray:none;stroke-opacity:1"
             id="path34" /></g><g
           id="g36"
           transform="translate(320.3926,537.9912)"><path
             d="m 0,0 c -0.635,0.761 -1.006,1.323 -1.476,1.997 l -1.596,-2.424 c 0.3,-0.042 1.469,-0.28 2.42,-0.563 1.021,-0.302 1.904,-0.636 2.445,-0.9 C 1.334,-1.498 0.68,-0.815 0,0"
             style="fill:#231f20;fill-opacity:1;fill-rule:nonzero;stroke:none"
             id="path38" /></g><g
           id="g40"
           transform="translate(220.79,603.71)"><path
             d="M 0,0 97.958,-65.351"
             style="fill:none;stroke:#231f20;stroke-width:0.5;stroke-linecap:butt;stroke-linejoin:miter;stroke-miterlimit:4;stroke-dasharray:none;stroke-opacity:1"
             id="path42" /></g><g
           id="g44"
           transform="translate(270.3745,640.0581)"><path
             d="m 0,0 c -0.951,-0.28 -1.616,-0.396 -2.42,-0.559 l 1.588,-2.428 c 0.159,0.258 0.842,1.235 1.48,1.994 0.683,0.816 1.341,1.495 1.799,1.887 C 1.905,0.628 1.018,0.299 0,0"
             style="fill:#231f20;fill-opacity:1;fill-rule:nonzero;stroke:none"
             id="path46" /></g><g
           id="g48"
           transform="translate(218.9819,606.1841)"><path
             d="M 0,0 50.399,32.512"
             style="fill:none;stroke:#231f20;stroke-width:0.5;stroke-linecap:butt;stroke-linejoin:miter;stroke-miterlimit:4;stroke-dasharray:none;stroke-opacity:1"
             id="path50" /></g><g
           id="g52"
           transform="translate(244.6494,539.5708)"><path
             d="M 0,0 C -0.279,0.952 -0.396,1.616 -0.558,2.421 L -2.987,0.833 c 0.258,-0.158 1.236,-0.843 1.993,-1.48 0.817,-0.684 1.496,-1.342 1.887,-1.799 C 0.627,-1.905 0.299,-1.018 0,0"
             style="fill:#231f20;fill-opacity:1;fill-rule:nonzero;stroke:none"
             id="path54" /></g><g
           id="g56"
           transform="translate(211.1445,590.4307)"><path
             d="M 0,0 32.143,-49.867"
             style="fill:none;stroke:#231f20;stroke-width:0.5;stroke-linecap:butt;stroke-linejoin:miter;stroke-miterlimit:4;stroke-dasharray:none;stroke-opacity:1"
             id="path58" /></g><g
           id="g60"
           transform="translate(252.8359,539.1733)"><path
             d="M 0,0 C 0.644,0.754 1.136,1.215 1.722,1.789 L -0.935,2.957 C -0.928,2.655 -0.967,1.461 -1.086,0.478 -1.213,-0.58 -1.393,-1.507 -1.562,-2.084 -1.254,-1.566 -0.69,-0.806 0,0"
             style="fill:#231f20;fill-opacity:1;fill-rule:nonzero;stroke:none"
             id="path62" /></g><g
           id="g64"
           transform="translate(290.7754,625.5957)"><path
             d="M 0,0 -37.853,-84.739"
             style="fill:none;stroke:#231f20;stroke-width:0.5;stroke-linecap:butt;stroke-linejoin:miter;stroke-miterlimit:4;stroke-dasharray:none;stroke-opacity:1"
             id="path66" /></g><g
           id="g68"
           transform="translate(258.5,524)"><path
             d="M 0,0 67.5,7.5"
             style="fill:none;stroke:#231f20;stroke-width:0.5;stroke-linecap:butt;stroke-linejoin:miter;stroke-miterlimit:4;stroke-dasharray:none;stroke-opacity:1"
             id="path70" /></g><g
           id="g72"
           transform="translate(335.5,544)"><path
             d="M 0,0 37.367,50.606"
             style="fill:none;stroke:#231f20;stroke-width:0.5;stroke-linecap:butt;stroke-linejoin:miter;stroke-miterlimit:4;stroke-dasharray:none;stroke-opacity:1"
             id="path74" /></g><g
           id="g76"
           transform="translate(238.3062,593.46)"><path
             d="m 0,0 c 0,1.1 0.9,2 2,2 h 20.027 c 1.1,0 2,-0.9 2,-2 v -9.793 c 0,-1.101 -0.9,-2 -2,-2 H 2 c -1.1,0 -2,0.899 -2,2 z"
             style="fill:#feefe9;fill-opacity:1;fill-rule:nonzero;stroke:none"
             id="path78" /></g><g
           id="g80"
           transform="translate(238.3062,593.46)"><path
             d="m 0,0 c 0,1.1 0.9,2 2,2 h 20.027 c 1.1,0 2,-0.9 2,-2 v -9.793 c 0,-1.101 -0.9,-2 -2,-2 H 2 c -1.1,0 -2,0.899 -2,2 z"
             style="fill:none;stroke:#d91920;stroke-width:1;stroke-linecap:butt;stroke-linejoin:round;stroke-miterlimit:4;stroke-dasharray:none;stroke-opacity:1"
             id="path82" /></g></g></g><text
       transform="matrix(1,0,0,-1,246.4316,585.9619)"
       style="font-variant:normal;font-weight:normal;font-stretch:normal;font-size:7px;font-family:Arial;-inkscape-font-specification:ArialMT;writing-mode:lr-tb;fill:#231f20;fill-opacity:1;fill-rule:nonzero;stroke:none"
       id="text86"><tspan
         x="0 4.277"
         y="0"
         sodipodi:role="line"
         id="tspan84">Tx</tspan></text><g
       id="g88"><g
         id="g90"
         clip-path="url(#clipPath94)"><g
           id="g96"
           transform="translate(215.4727,569.2935)"><path
             d="m 0,0 c 0,1.1 0.9,2 2,2 h 20.027 c 1.1,0 2,-0.9 2,-2 v -9.793 c 0,-1.101 -0.9,-2 -2,-2 H 2 c -1.1,0 -2,0.899 -2,2 z"
             style="fill:#feefe9;fill-opacity:1;fill-rule:nonzero;stroke:none"
             id="path98" /></g><g
           id="g100"
           transform="translate(215.4727,569.2935)"><path
             d="m 0,0 c 0,1.1 0.9,2 2,2 h 20.027 c 1.1,0 2,-0.9 2,-2 v -9.793 c 0,-1.101 -0.9,-2 -2,-2 H 2 c -1.1,0 -2,0.899 -2,2 z"
             style="fill:none;stroke:#d91920;stroke-width:1;stroke-linecap:butt;stroke-linejoin:round;stroke-miterlimit:4;stroke-dasharray:none;stroke-opacity:1"
             id="path102" /></g></g></g><text
       transform="matrix(1,0,0,-1,223.5981,561.7959)"
       style="font-variant:normal;font-weight:normal;font-stretch:normal;font-size:7px;font-family:Arial;-inkscape-font-specification:ArialMT;writing-mode:lr-tb;fill:#231f20;fill-opacity:1;fill-rule:nonzero;stroke:none"
       id="text106"><tspan
         x="0 4.277"
         y="0"
         sodipodi:role="line"
         id="tspan104">Tx</tspan></text><g
       id="g108"><g
         id="g110"
         clip-path="url(#clipPath114)"><g
           id="g116"
           transform="translate(234.2227,631.2935)"><path
             d="m 0,0 c 0,1.1 0.9,2 2,2 h 20.027 c 1.1,0 2,-0.9 2,-2 v -9.793 c 0,-1.101 -0.9,-2 -2,-2 H 2 c -1.1,0 -2,0.899 -2,2 z"
             style="fill:#feefe9;fill-opacity:1;fill-rule:nonzero;stroke:none"
             id="path118" /></g><g
           id="g120"
           transform="translate(234.2227,631.2935)"><path
             d="m 0,0 c 0,1.1 0.9,2 2,2 h 20.027 c 1.1,0 2,-0.9 2,-2 v -9.793 c 0,-1.101 -0.9,-2 -2,-2 H 2 c -1.1,0 -2,0.899 -2,2 z"
             style="fill:none;stroke:#d91920;stroke-width:1;stroke-linecap:butt;stroke-linejoin:round;stroke-miterlimit:4;stroke-dasharray:none;stroke-opacity:1"
             id="path122" /></g></g></g><text
       transform="matrix(1,0,0,-1,242.3481,623.7959)"
       style="font-variant:normal;font-weight:normal;font-stretch:normal;font-size:7px;font-family:Arial;-inkscape-font-specification:ArialMT;writing-mode:lr-tb;fill:#231f20;fill-opacity:1;fill-rule:nonzero;stroke:none"
       id="text126"><tspan
         x="0 4.277"
         y="0"
         sodipodi:role="line"
         id="tspan124">Tx</tspan></text><g
       id="g128"><g
         id="g130"
         clip-path="url(#clipPath134)"><g
           id="g136"
           transform="translate(355.8955,609.9292)"><path
             d="m 0,0 c -0.705,0.695 -1.13,1.218 -1.663,1.843 l -1.353,-2.569 c 0.303,-0.012 1.491,-0.135 2.464,-0.323 C 0.495,-1.25 1.405,-1.496 1.97,-1.705 1.475,-1.36 0.757,-0.745 0,0"
             style="fill:#231f20;fill-opacity:1;fill-rule:nonzero;stroke:none"
             id="path138" /></g><g
           id="g140"
           transform="translate(299.9248,639.1191)"><path
             d="M 0,0 54.298,-28.984"
             style="fill:none;stroke:#231f20;stroke-width:0.5;stroke-linecap:butt;stroke-linejoin:miter;stroke-miterlimit:4;stroke-dasharray:none;stroke-opacity:1"
             id="path142" /></g><g
           id="g144"
           transform="translate(224.0776,614.8691)"><path
             d="m 0,0 h -28.655 c -0.241,0 -0.438,-0.196 -0.438,-0.438 v -0.518 -23.319 -0.517 c 0,-0.239 0.197,-0.446 0.438,-0.446 H 0 c 0.241,0 0.438,0.207 0.438,0.446 v 0.517 23.319 0.518 C 0.438,-0.196 0.241,0 0,0"
             style="fill:#ffffff;fill-opacity:1;fill-rule:nonzero;stroke:none"
             id="path146" /></g></g></g><g
       id="g148"><g
         id="g150"><g
           id="g156"><g
             id="g158"><path
               d="m 195.422,614.352 c -0.241,0 -0.438,-0.197 -0.438,-0.439 v 0 -23.836 c 0,-0.24 0.197,-0.447 0.438,-0.447 v 0 h 28.655 c 0.242,0 0.439,0.207 0.439,0.447 v 0 23.836 c 0,0.242 -0.197,0.439 -0.439,0.439 v 0 z"
               style="fill:url(#linearGradient164);stroke:none"
               id="path166" /></g></g></g></g><g
       id="g168"><g
         id="g170"
         clip-path="url(#clipPath174)"><g
           id="g176"
           transform="translate(224.5161,590.0767)"><path
             d="m 0,0 c 0,-0.239 -0.197,-0.446 -0.438,-0.446 h -28.656 c -0.241,0 -0.438,0.207 -0.438,0.446 v 23.836 c 0,0.243 0.197,0.439 0.438,0.439 H -0.438 C -0.197,24.275 0,24.079 0,23.836 Z"
             style="fill:#b3e6fa;fill-opacity:1;fill-rule:nonzero;stroke:none"
             id="path178" /></g><g
           id="g180"
           transform="translate(224.0776,614.8691)"><path
             d="m 0,0 h -28.655 c -0.241,0 -0.438,-0.196 -0.438,-0.438 v -0.518 -23.319 -0.517 c 0,-0.239 0.197,-0.446 0.438,-0.446 H 0 c 0.241,0 0.438,0.207 0.438,0.446 v 0.517 23.319 0.518 C 0.438,-0.196 0.241,0 0,0 Z"
             style="fill:none;stroke:#231f20;stroke-width:0.5;stroke-linecap:butt;stroke-linejoin:round;stroke-miterlimit:10;stroke-dasharray:none;stroke-opacity:1"
             id="path182" /></g><path
           d="m 222.807,592.809 h -26.115 v 20.09 h 26.115 z"
           style="fill:#f0fafe;fill-opacity:1;fill-rule:nonzero;stroke:#231f20;stroke-width:0.3;stroke-linecap:butt;stroke-linejoin:round;stroke-miterlimit:4;stroke-dasharray:none;stroke-opacity:1"
           id="path184" /><g
           id="g186"
           transform="translate(229.0542,590.2764)"><path
             d="M 0,0 -4.663,1.033 H -34.07 L -38.608,0"
             style="fill:#ffffff;fill-opacity:1;fill-rule:nonzero;stroke:#231f20;stroke-width:0.5;stroke-linecap:butt;stroke-linejoin:round;stroke-miterlimit:10;stroke-dasharray:none;stroke-opacity:1"
             id="path188" /></g><g
           id="g190"
           transform="translate(190.438,590.2764)"><path
             d="M 0,0 C 0,0 0.877,-1.924 1.879,-1.924 H 36.742 C 37.665,-1.924 38.625,0 38.625,0 Z"
             style="fill:#b3e6fa;fill-opacity:1;fill-rule:nonzero;stroke:none"
             id="path192" /></g><g
           id="g194"
           transform="translate(190.438,590.2764)"><path
             d="M 0,0 C 0,0 0.877,-1.924 1.879,-1.924 H 36.742 C 37.665,-1.924 38.625,0 38.625,0 Z"
             style="fill:none;stroke:#231f20;stroke-width:0.5;stroke-linecap:butt;stroke-linejoin:round;stroke-miterlimit:10;stroke-dasharray:none;stroke-opacity:1"
             id="path196" /></g><g
           id="g198"
           transform="translate(262.5654,536.8496)"><path
             d="m 0,0 h -28.655 c -0.241,0 -0.438,-0.196 -0.438,-0.438 v -0.518 -23.319 -0.517 c 0,-0.239 0.197,-0.446 0.438,-0.446 H 0 c 0.241,0 0.438,0.207 0.438,0.446 v 0.517 23.319 0.518 C 0.438,-0.196 0.241,0 0,0"
             style="fill:#ffffff;fill-opacity:1;fill-rule:nonzero;stroke:none"
             id="path200" /></g></g></g><g
       id="g202"><g
         id="g204"><g
           id="g210"><g
             id="g212"><path
               d="m 233.91,536.332 c -0.241,0 -0.437,-0.197 -0.437,-0.439 v 0 -23.836 c 0,-0.239 0.196,-0.446 0.437,-0.446 v 0 h 28.655 c 0.241,0 0.439,0.207 0.439,0.446 v 0 23.836 c 0,0.242 -0.198,0.439 -0.439,0.439 v 0 z"
               style="fill:url(#linearGradient218);stroke:none"
               id="path220" /></g></g></g></g><g
       id="g222"><g
         id="g224"
         clip-path="url(#clipPath228)"><g
           id="g230"
           transform="translate(263.0039,512.0571)"><path
             d="m 0,0 c 0,-0.239 -0.197,-0.446 -0.438,-0.446 h -28.656 c -0.241,0 -0.438,0.207 -0.438,0.446 v 23.836 c 0,0.243 0.197,0.439 0.438,0.439 H -0.438 C -0.197,24.275 0,24.079 0,23.836 Z"
             style="fill:#b3e6fa;fill-opacity:1;fill-rule:nonzero;stroke:none"
             id="path232" /></g><g
           id="g234"
           transform="translate(262.5654,536.8496)"><path
             d="m 0,0 h -28.655 c -0.241,0 -0.438,-0.196 -0.438,-0.438 v -0.518 -23.319 -0.517 c 0,-0.239 0.197,-0.446 0.438,-0.446 H 0 c 0.241,0 0.438,0.207 0.438,0.446 v 0.517 23.319 0.518 C 0.438,-0.196 0.241,0 0,0 Z"
             style="fill:none;stroke:#231f20;stroke-width:0.5;stroke-linecap:butt;stroke-linejoin:round;stroke-miterlimit:10;stroke-dasharray:none;stroke-opacity:1"
             id="path236" /></g><path
           d="M 261.295,514.79 H 235.18 v 20.09 h 26.115 z"
           style="fill:#f0fafe;fill-opacity:1;fill-rule:nonzero;stroke:#231f20;stroke-width:0.3;stroke-linecap:butt;stroke-linejoin:round;stroke-miterlimit:4;stroke-dasharray:none;stroke-opacity:1"
           id="path238" /><g
           id="g240"
           transform="translate(267.542,512.2568)"><path
             d="M 0,0 -4.663,1.033 H -34.07 L -38.608,0"
             style="fill:#ffffff;fill-opacity:1;fill-rule:nonzero;stroke:#231f20;stroke-width:0.5;stroke-linecap:butt;stroke-linejoin:round;stroke-miterlimit:10;stroke-dasharray:none;stroke-opacity:1"
             id="path242" /></g><g
           id="g244"
           transform="translate(228.9258,512.2568)"><path
             d="M 0,0 C 0,0 0.877,-1.924 1.879,-1.924 H 36.742 C 37.665,-1.924 38.625,0 38.625,0 Z"
             style="fill:#b3e6fa;fill-opacity:1;fill-rule:nonzero;stroke:none"
             id="path246" /></g><g
           id="g248"
           transform="translate(228.9258,512.2568)"><path
             d="M 0,0 C 0,0 0.877,-1.924 1.879,-1.924 H 36.742 C 37.665,-1.924 38.625,0 38.625,0 Z"
             style="fill:none;stroke:#231f20;stroke-width:0.5;stroke-linecap:butt;stroke-linejoin:round;stroke-miterlimit:10;stroke-dasharray:none;stroke-opacity:1"
             id="path250" /></g><g
           id="g252"
           transform="translate(387.1943,620.1606)"><path
             d="m 0,0 h -28.655 c -0.241,0 -0.438,-0.196 -0.438,-0.438 v -0.518 -23.319 -0.517 c 0,-0.239 0.197,-0.446 0.438,-0.446 H 0 c 0.242,0 0.439,0.207 0.439,0.446 v 0.517 23.319 0.518 C 0.439,-0.196 0.242,0 0,0"
             style="fill:#ffffff;fill-opacity:1;fill-rule:nonzero;stroke:none"
             id="path254" /></g></g></g><g
       id="g256"><g
         id="g258"><g
           id="g264"><g
             id="g266"><path
               d="m 358.539,619.643 c -0.241,0 -0.437,-0.196 -0.437,-0.439 v 0 -23.836 c 0,-0.239 0.196,-0.446 0.437,-0.446 v 0 h 28.655 c 0.242,0 0.44,0.207 0.44,0.446 v 0 23.836 c 0,0.243 -0.198,0.439 -0.44,0.439 v 0 z"
               style="fill:url(#linearGradient272);stroke:none"
               id="path274" /></g></g></g></g><g
       id="g276"><g
         id="g278"
         clip-path="url(#clipPath282)"><g
           id="g284"
           transform="translate(387.6338,595.3682)"><path
             d="m 0,0 c 0,-0.239 -0.197,-0.446 -0.439,-0.446 h -28.656 c -0.241,0 -0.437,0.207 -0.437,0.446 v 23.836 c 0,0.243 0.196,0.439 0.437,0.439 H -0.439 C -0.197,24.275 0,24.079 0,23.836 Z"
             style="fill:#b3e6fa;fill-opacity:1;fill-rule:nonzero;stroke:none"
             id="path286" /></g><g
           id="g288"
           transform="translate(387.1943,620.1606)"><path
             d="m 0,0 h -28.655 c -0.241,0 -0.438,-0.196 -0.438,-0.438 v -0.518 -23.319 -0.517 c 0,-0.239 0.197,-0.446 0.438,-0.446 H 0 c 0.242,0 0.439,0.207 0.439,0.446 v 0.517 23.319 0.518 C 0.439,-0.196 0.242,0 0,0 Z"
             style="fill:none;stroke:#231f20;stroke-width:0.5;stroke-linecap:butt;stroke-linejoin:round;stroke-miterlimit:10;stroke-dasharray:none;stroke-opacity:1"
             id="path290" /></g><path
           d="m 385.925,598.101 h -26.116 v 20.09 h 26.116 z"
           style="fill:#f0fafe;fill-opacity:1;fill-rule:nonzero;stroke:#231f20;stroke-width:0.3;stroke-linecap:butt;stroke-linejoin:round;stroke-miterlimit:4;stroke-dasharray:none;stroke-opacity:1"
           id="path292" /><g
           id="g294"
           transform="translate(392.1709,595.5679)"><path
             d="M 0,0 -4.662,1.033 H -34.069 L -38.608,0"
             style="fill:#ffffff;fill-opacity:1;fill-rule:nonzero;stroke:#231f20;stroke-width:0.5;stroke-linecap:butt;stroke-linejoin:round;stroke-miterlimit:10;stroke-dasharray:none;stroke-opacity:1"
             id="path296" /></g><g
           id="g298"
           transform="translate(353.5547,595.5679)"><path
             d="M 0,0 C 0,0 0.877,-1.924 1.879,-1.924 H 36.743 C 37.665,-1.924 38.626,0 38.626,0 Z"
             style="fill:#b3e6fa;fill-opacity:1;fill-rule:nonzero;stroke:none"
             id="path300" /></g><g
           id="g302"
           transform="translate(353.5547,595.5679)"><path
             d="M 0,0 C 0,0 0.877,-1.924 1.879,-1.924 H 36.743 C 37.665,-1.924 38.626,0 38.626,0 Z"
             style="fill:none;stroke:#231f20;stroke-width:0.5;stroke-linecap:butt;stroke-linejoin:round;stroke-miterlimit:10;stroke-dasharray:none;stroke-opacity:1"
             id="path304" /></g><g
           id="g306"
           transform="translate(302.5654,650.1831)"><path
             d="m 0,0 h -28.655 c -0.241,0 -0.438,-0.196 -0.438,-0.438 v -0.518 -23.319 -0.517 c 0,-0.239 0.197,-0.446 0.438,-0.446 H 0 c 0.241,0 0.438,0.207 0.438,0.446 v 0.517 23.319 0.518 C 0.438,-0.196 0.241,0 0,0"
             style="fill:#ffffff;fill-opacity:1;fill-rule:nonzero;stroke:none"
             id="path308" /></g></g></g><g
       id="g310"><g
         id="g312"><g
           id="g318"><g
             id="g320"><path
               d="m 273.91,649.666 c -0.241,0 -0.438,-0.197 -0.438,-0.439 v 0 -23.837 c 0,-0.238 0.197,-0.445 0.438,-0.445 v 0 h 28.656 c 0.241,0 0.438,0.207 0.438,0.445 v 0 23.837 c 0,0.242 -0.197,0.439 -0.438,0.439 v 0 z"
               style="fill:url(#linearGradient326);stroke:none"
               id="path328" /></g></g></g></g><g
       id="g330"><g
         id="g332"
         clip-path="url(#clipPath336)"><g
           id="g338"
           transform="translate(303.0039,625.3906)"><path
             d="m 0,0 c 0,-0.239 -0.197,-0.446 -0.438,-0.446 h -28.656 c -0.241,0 -0.437,0.207 -0.437,0.446 v 23.836 c 0,0.243 0.196,0.439 0.437,0.439 H -0.438 C -0.197,24.275 0,24.079 0,23.836 Z"
             style="fill:#b3e6fa;fill-opacity:1;fill-rule:nonzero;stroke:none"
             id="path340" /></g><g
           id="g342"
           transform="translate(302.5654,650.1831)"><path
             d="m 0,0 h -28.655 c -0.241,0 -0.438,-0.196 -0.438,-0.438 v -0.518 -23.319 -0.517 c 0,-0.239 0.197,-0.446 0.438,-0.446 H 0 c 0.241,0 0.438,0.207 0.438,0.446 v 0.517 23.319 0.518 C 0.438,-0.196 0.241,0 0,0 Z"
             style="fill:none;stroke:#231f20;stroke-width:0.5;stroke-linecap:butt;stroke-linejoin:round;stroke-miterlimit:10;stroke-dasharray:none;stroke-opacity:1"
             id="path344" /></g><path
           d="M 301.295,628.123 H 275.18 v 20.09 h 26.115 z"
           style="fill:#f0fafe;fill-opacity:1;fill-rule:nonzero;stroke:#231f20;stroke-width:0.3;stroke-linecap:butt;stroke-linejoin:round;stroke-miterlimit:4;stroke-dasharray:none;stroke-opacity:1"
           id="path346" /><g
           id="g348"
           transform="translate(307.542,625.5903)"><path
             d="M 0,0 -4.663,1.033 H -34.069 L -38.608,0"
             style="fill:#ffffff;fill-opacity:1;fill-rule:nonzero;stroke:#231f20;stroke-width:0.5;stroke-linecap:butt;stroke-linejoin:round;stroke-miterlimit:10;stroke-dasharray:none;stroke-opacity:1"
             id="path350" /></g><g
           id="g352"
           transform="translate(268.9258,625.5903)"><path
             d="M 0,0 C 0,0 0.877,-1.924 1.879,-1.924 H 36.742 C 37.665,-1.924 38.625,0 38.625,0 Z"
             style="fill:#b3e6fa;fill-opacity:1;fill-rule:nonzero;stroke:none"
             id="path354" /></g><g
           id="g356"
           transform="translate(268.9258,625.5903)"><path
             d="M 0,0 C 0,0 0.877,-1.924 1.879,-1.924 H 36.742 C 37.665,-1.924 38.625,0 38.625,0 Z"
             style="fill:none;stroke:#231f20;stroke-width:0.5;stroke-linecap:butt;stroke-linejoin:round;stroke-miterlimit:10;stroke-dasharray:none;stroke-opacity:1"
             id="path358" /></g><g
           id="g360"
           transform="translate(351.3486,546.9258)"><path
             d="m 0,0 h -28.655 c -0.241,0 -0.438,-0.196 -0.438,-0.438 v -0.518 -23.319 -0.517 c 0,-0.239 0.197,-0.446 0.438,-0.446 H 0 c 0.241,0 0.438,0.207 0.438,0.446 v 0.517 23.319 0.518 C 0.438,-0.196 0.241,0 0,0"
             style="fill:#ffffff;fill-opacity:1;fill-rule:nonzero;stroke:none"
             id="path362" /></g></g></g><g
       id="g364"><g
         id="g366"><g
           id="g372"><g
             id="g374"><path
               d="m 322.693,546.408 c -0.241,0 -0.437,-0.196 -0.437,-0.438 v 0 -23.837 c 0,-0.238 0.196,-0.445 0.437,-0.445 v 0 h 28.655 c 0.242,0 0.44,0.207 0.44,0.445 v 0 23.837 c 0,0.242 -0.198,0.438 -0.44,0.438 v 0 z"
               style="fill:url(#linearGradient380);stroke:none"
               id="path382" /></g></g></g></g><g
       id="g384"><g
         id="g386"
         clip-path="url(#clipPath390)"><g
           id="g392"
           transform="translate(351.7871,522.1333)"><path
             d="m 0,0 c 0,-0.239 -0.197,-0.446 -0.438,-0.446 h -28.656 c -0.241,0 -0.437,0.207 -0.437,0.446 v 23.836 c 0,0.243 0.196,0.439 0.437,0.439 H -0.438 C -0.197,24.275 0,24.079 0,23.836 Z"
             style="fill:#b3e6fa;fill-opacity:1;fill-rule:nonzero;stroke:none"
             id="path394" /></g><g
           id="g396"
           transform="translate(351.3486,546.9258)"><path
             d="m 0,0 h -28.655 c -0.241,0 -0.438,-0.196 -0.438,-0.438 v -0.518 -23.319 -0.517 c 0,-0.239 0.197,-0.446 0.438,-0.446 H 0 c 0.241,0 0.438,0.207 0.438,0.446 v 0.517 23.319 0.518 C 0.438,-0.196 0.241,0 0,0 Z"
             style="fill:none;stroke:#231f20;stroke-width:0.5;stroke-linecap:butt;stroke-linejoin:round;stroke-miterlimit:10;stroke-dasharray:none;stroke-opacity:1"
             id="path398" /></g><path
           d="m 350.078,524.866 h -26.115 v 20.09 h 26.115 z"
           style="fill:#f0fafe;fill-opacity:1;fill-rule:nonzero;stroke:#231f20;stroke-width:0.3;stroke-linecap:butt;stroke-linejoin:round;stroke-miterlimit:4;stroke-dasharray:none;stroke-opacity:1"
           id="path400" /><g
           id="g402"
           transform="translate(356.3252,522.333)"><path
             d="M 0,0 -4.663,1.033 H -34.069 L -38.608,0"
             style="fill:#ffffff;fill-opacity:1;fill-rule:nonzero;stroke:#231f20;stroke-width:0.5;stroke-linecap:butt;stroke-linejoin:round;stroke-miterlimit:10;stroke-dasharray:none;stroke-opacity:1"
             id="path404" /></g><g
           id="g406"
           transform="translate(317.709,522.333)"><path
             d="M 0,0 C 0,0 0.877,-1.924 1.879,-1.924 H 36.742 C 37.665,-1.924 38.625,0 38.625,0 Z"
             style="fill:#b3e6fa;fill-opacity:1;fill-rule:nonzero;stroke:none"
             id="path408" /></g><g
           id="g410"
           transform="translate(317.709,522.333)"><path
             d="M 0,0 C 0,0 0.877,-1.924 1.879,-1.924 H 36.742 C 37.665,-1.924 38.625,0 38.625,0 Z"
             style="fill:none;stroke:#231f20;stroke-width:0.5;stroke-linecap:butt;stroke-linejoin:round;stroke-miterlimit:10;stroke-dasharray:none;stroke-opacity:1"
             id="path412" /></g></g></g><text
       transform="matrix(1,0,0,-1,244.7891,522.6709)"
       style="font-variant:normal;font-weight:normal;font-stretch:normal;font-size:7px;font-family:Arial;-inkscape-font-specification:ArialMT;writing-mode:lr-tb;fill:#231f20;fill-opacity:1;fill-rule:nonzero;stroke:none"
       id="text424"><tspan
         x="0 5.4460001"
         y="0"
         sodipodi:role="line"
         id="tspan414">Qi</tspan><tspan
         x="-42.112 -37.834999 -33.943001"
         y="-78.442001"
         sodipodi:role="line"
         id="tspan416">Tom</tspan><tspan
         x="37.015999 40.908001 42.462002 45.962002"
         y="-113.372"
         sodipodi:role="line"
         id="tspan418">Lisa</tspan><tspan
         x="120.442 125.496 129.388 131.334"
         y="-83.061996"
         sodipodi:role="line"
         id="tspan420">Cafe</tspan><tspan
         x="81.410004 86.463997 90.356003 93.856003 97.748001 99.302002"
         y="-10.157"
         sodipodi:role="line"
         id="tspan422">Rashid</tspan></text><g
       id="g426"><g
         id="g428"
         clip-path="url(#clipPath432)"><path
           d="m 344.27,617.289 h -28.706 v 11.756 h 28.706 z"
           style="fill:#ffffff;fill-opacity:1;fill-rule:nonzero;stroke:#231f20;stroke-width:0.5;stroke-linecap:butt;stroke-linejoin:miter;stroke-miterlimit:4;stroke-dasharray:2, 1;stroke-dashoffset:0;stroke-opacity:1"
           id="path434" /></g></g><text
       transform="matrix(1,0,0,-1,323.6162,621.0586)"
       style="font-variant:normal;font-weight:normal;font-stretch:normal;font-size:7px;font-family:Courier;-inkscape-font-specification:Courier;writing-mode:lr-tb;fill:#231f20;fill-opacity:1;fill-rule:nonzero;stroke:none"
       id="text438"><tspan
         x="0 4.1999998 8.3999996"
         y="0"
         sodipodi:role="line"
         id="tspan436">inv</tspan></text><g
       id="g440"><g
         id="g442"
         clip-path="url(#clipPath446)"><path
           d="m 295.667,599.667 h -28.706 v 11.756 h 28.706 z"
           style="fill:#ffffff;fill-opacity:1;fill-rule:nonzero;stroke:#231f20;stroke-width:0.5;stroke-linecap:butt;stroke-linejoin:miter;stroke-miterlimit:4;stroke-dasharray:2, 1;stroke-dashoffset:0;stroke-opacity:1"
           id="path448" /></g></g><text
       transform="matrix(1,0,0,-1,275.0132,603.4355)"
       style="font-variant:normal;font-weight:normal;font-stretch:normal;font-size:7px;font-family:Courier;-inkscape-font-specification:Courier;writing-mode:lr-tb;fill:#231f20;fill-opacity:1;fill-rule:nonzero;stroke:none"
       id="text452"><tspan
         x="0 4.1999998 8.3999996"
         y="0"
         sodipodi:role="line"
         id="tspan450">inv</tspan></text></g></svg>
