<?xml version="1.0" encoding="UTF-8" standalone="no"?>
<svg
   xmlns:dc="http://purl.org/dc/elements/1.1/"
   xmlns:cc="http://creativecommons.org/ns#"
   xmlns:rdf="http://www.w3.org/1999/02/22-rdf-syntax-ns#"
   xmlns:svg="http://www.w3.org/2000/svg"
   xmlns="http://www.w3.org/2000/svg"
   xmlns:sodipodi="http://sodipodi.sourceforge.net/DTD/sodipodi-0.dtd"
   xmlns:inkscape="http://www.inkscape.org/namespaces/inkscape"
   version="1.1"
   id="svg2"
   xml:space="preserve"
   width="184.51921"
   height="228.17667"
   viewBox="0 0 184.51921 228.17667"
   sodipodi:docname="u08-08.ai"><metadata
     id="metadata8"><rdf:RDF><cc:Work
         rdf:about=""><dc:format>image/svg+xml</dc:format><dc:type
           rdf:resource="http://purl.org/dc/dcmitype/StillImage" /></cc:Work></rdf:RDF></metadata><defs
     id="defs6"><clipPath
       clipPathUnits="userSpaceOnUse"
       id="clipPath22"><path
         d="M 0,792 H 612 V 0 H 0 Z"
         id="path20" /></clipPath><linearGradient
       x1="0"
       y1="0"
       x2="1"
       y2="0"
       gradientUnits="userSpaceOnUse"
       gradientTransform="matrix(18.393143,-47.561081,-47.561081,-18.393143,286.35352,557.13281)"
       spreadMethod="pad"
       id="linearGradient42"><stop
         style="stop-opacity:1;stop-color:#cbdbeb"
         offset="0"
         id="stop38" /><stop
         style="stop-opacity:1;stop-color:#9cadc5"
         offset="1"
         id="stop40" /></linearGradient><clipPath
       clipPathUnits="userSpaceOnUse"
       id="clipPath52"><path
         d="M 0,792 H 612 V 0 H 0 Z"
         id="path50" /></clipPath><linearGradient
       x1="0"
       y1="0"
       x2="1"
       y2="0"
       gradientUnits="userSpaceOnUse"
       gradientTransform="matrix(26.674881,-27.475204,-27.475204,-26.674881,328.02148,571.17822)"
       spreadMethod="pad"
       id="linearGradient386"><stop
         style="stop-opacity:1;stop-color:#5ec45b"
         offset="0"
         id="stop382" /><stop
         style="stop-opacity:1;stop-color:#dbf1cb"
         offset="1"
         id="stop384" /></linearGradient><linearGradient
       x1="0"
       y1="0"
       x2="1"
       y2="0"
       gradientUnits="userSpaceOnUse"
       gradientTransform="matrix(25.457199,-26.220978,-26.220978,-25.457184,328.49414,570.69189)"
       spreadMethod="pad"
       id="linearGradient404"><stop
         style="stop-opacity:1;stop-color:#dbf1cb"
         offset="0"
         id="stop400" /><stop
         style="stop-opacity:1;stop-color:#5ec45b"
         offset="1"
         id="stop402" /></linearGradient><clipPath
       clipPathUnits="userSpaceOnUse"
       id="clipPath414"><path
         d="M 0,792 H 612 V 0 H 0 Z"
         id="path412" /></clipPath></defs><sodipodi:namedview
     pagecolor="#ffffff"
     bordercolor="#666666"
     borderopacity="1"
     objecttolerance="10"
     gridtolerance="10"
     guidetolerance="10"
     inkscape:pageopacity="0"
     inkscape:pageshadow="2"
     inkscape:window-width="640"
     inkscape:window-height="480"
     id="namedview4" /><g
     id="g10"
     inkscape:groupmode="layer"
     inkscape:label="u08-08"
     transform="matrix(1.3333333,0,0,-1.3333333,-299.13606,896.86791)"><g
       id="g12"
       transform="translate(316.2256,540.6919)"><path
         d="M 0,0 H 17.693 V 45.958"
         style="fill:none;stroke:#231f20;stroke-width:0.5;stroke-linecap:butt;stroke-linejoin:miter;stroke-miterlimit:4;stroke-dasharray:none;stroke-opacity:1"
         id="path14" /></g><g
       id="g16"><g
         id="g18"
         clip-path="url(#clipPath22)"><g
           id="g24"
           transform="translate(311.0371,555.7104)"><path
             d="m 0,0 h -35.819 c -0.302,0 -0.548,-0.245 -0.548,-0.548 v -0.647 -29.148 -0.647 c 0,-0.299 0.246,-0.558 0.548,-0.558 H 0 c 0.302,0 0.548,0.259 0.548,0.558 v 0.647 29.148 0.647 C 0.548,-0.245 0.302,0 0,0"
             style="fill:#ffffff;fill-opacity:1;fill-rule:nonzero;stroke:none"
             id="path26" /></g></g></g><g
       id="g28"><g
         id="g30"><g
           id="g36"><path
             d="m 275.218,555.063 c -0.302,0 -0.548,-0.245 -0.548,-0.548 v 0 -29.795 c 0,-0.299 0.246,-0.557 0.548,-0.557 v 0 h 35.819 c 0.302,0 0.548,0.258 0.548,0.557 v 0 29.795 c 0,0.303 -0.246,0.548 -0.548,0.548 v 0 z"
             style="fill:url(#linearGradient42);stroke:none"
             id="path44" /></g></g></g><g
       id="g46"><g
         id="g48"
         clip-path="url(#clipPath52)"><g
           id="g54"
           transform="translate(311.585,524.7202)"><path
             d="m 0,0 c 0,-0.299 -0.246,-0.558 -0.548,-0.558 h -35.819 c -0.302,0 -0.548,0.259 -0.548,0.558 v 29.795 c 0,0.303 0.246,0.548 0.548,0.548 H -0.548 C -0.246,30.343 0,30.098 0,29.795 Z"
             style="fill:#b3e6fa;fill-opacity:1;fill-rule:nonzero;stroke:none"
             id="path56" /></g><g
           id="g58"
           transform="translate(311.0371,555.7104)"><path
             d="m 0,0 h -35.819 c -0.302,0 -0.548,-0.245 -0.548,-0.548 v -0.647 -29.148 -0.647 c 0,-0.299 0.246,-0.558 0.548,-0.558 H 0 c 0.302,0 0.548,0.259 0.548,0.558 v 0.647 29.148 0.647 C 0.548,-0.245 0.302,0 0,0 Z"
             style="fill:none;stroke:#231f20;stroke-width:0.5;stroke-linecap:butt;stroke-linejoin:round;stroke-miterlimit:10;stroke-dasharray:none;stroke-opacity:1"
             id="path60" /></g><path
           d="m 309.448,528.135 h -32.643 v 25.113 h 32.643 z"
           style="fill:#f0fafe;fill-opacity:1;fill-rule:nonzero;stroke:#231f20;stroke-width:0.3;stroke-linecap:butt;stroke-linejoin:round;stroke-miterlimit:4;stroke-dasharray:none;stroke-opacity:1"
           id="path62" /><g
           id="g64"
           transform="translate(317.2578,524.9692)"><path
             d="M 0,0 -5.829,1.291 H -42.588 L -48.26,0"
             style="fill:#ffffff;fill-opacity:1;fill-rule:nonzero;stroke:#231f20;stroke-width:0.5;stroke-linecap:butt;stroke-linejoin:round;stroke-miterlimit:10;stroke-dasharray:none;stroke-opacity:1"
             id="path66" /></g><g
           id="g68"
           transform="translate(268.9873,524.9692)"><path
             d="M 0,0 C 0,0 1.096,-2.404 2.349,-2.404 H 45.928 C 47.081,-2.404 48.281,0 48.281,0 Z"
             style="fill:#b3e6fa;fill-opacity:1;fill-rule:nonzero;stroke:none"
             id="path70" /></g><g
           id="g72"
           transform="translate(268.9873,524.9692)"><path
             d="M 0,0 C 0,0 1.096,-2.404 2.349,-2.404 H 45.928 C 47.081,-2.404 48.281,0 48.281,0 Z"
             style="fill:none;stroke:#231f20;stroke-width:0.5;stroke-linecap:butt;stroke-linejoin:round;stroke-miterlimit:10;stroke-dasharray:none;stroke-opacity:1"
             id="path74" /></g><text
           transform="matrix(1,0,0,-1,224.7402,513.0659)"
           style="font-variant:normal;font-weight:bold;font-stretch:condensed;font-size:9px;font-family:'Humanst521 Cn BT';-inkscape-font-specification:Humanist521BT-BoldCondensed;writing-mode:lr-tb;fill:#231f20;fill-opacity:1;fill-rule:nonzero;stroke:none"
           id="text80"><tspan
             x="0 4.473 7.8660002 12.213 16.316999 19.709999 23.76 30.500999 95.634003 99.414001 103.374 106.767 108.9 111.213 113.346 116.946 120.996 123.993 126.126 130.47301"
             y="0"
             sodipodi:role="line"
             id="tspan76">ProgrammVerification</tspan><tspan
             x="95.634003 100.593 104.553"
             y="9.5039997"
             sodipodi:role="line"
             id="tspan78">Key</tspan></text><text
           transform="matrix(1,0,0,-1,283.0601,531.9424)"
           style="font-variant:normal;font-weight:normal;font-stretch:normal;font-size:7px;font-family:Arial;-inkscape-font-specification:ArialMT;writing-mode:lr-tb;fill:#231f20;fill-opacity:1;fill-rule:nonzero;stroke:none"
           id="text84"><tspan
             x="0 4.6690001 8.5609999 10.115 15.946"
             y="0"
             sodipodi:role="line"
             id="tspan82">Selma</tspan></text><g
           id="g86"
           transform="translate(298.9087,544.8677)"><path
             d="m 0,0 c 0,-3.262 -2.645,-5.912 -5.907,-5.912 -3.264,0 -5.909,2.65 -5.909,5.912 0,3.263 2.645,5.91 5.909,5.91 C -2.645,5.91 0,3.263 0,0"
             style="fill:#f68624;fill-opacity:1;fill-rule:nonzero;stroke:none"
             id="path88" /></g><g
           id="g90"
           transform="translate(294.0894,543.353)"><path
             d="m 0,0 c -0.041,-0.064 -0.087,-0.114 -0.14,-0.157 -0.053,-0.042 -0.121,-0.075 -0.199,-0.099 -0.08,-0.025 -0.156,-0.044 -0.228,-0.056 -0.071,-0.01 -0.158,-0.014 -0.254,-0.014 -0.1,0 -0.19,0.003 -0.26,0.008 -0.071,0.005 -0.161,0.015 -0.262,0.03 -0.101,0.014 -0.18,0.026 -0.236,0.036 -0.056,0.01 -0.126,0.024 -0.212,0.042 -0.084,0.017 -0.139,0.028 -0.163,0.032 l 0.276,1.493 C -1.653,1.312 -1.583,1.298 -1.466,1.28 -1.349,1.263 -1.253,1.249 -1.181,1.231 -1.111,1.219 -1.009,1.197 -0.877,1.162 -0.751,1.129 -0.644,1.097 -0.559,1.062 -0.474,1.03 -0.382,0.984 -0.285,0.929 -0.187,0.874 -0.112,0.813 -0.055,0.745 0,0.68 0.041,0.603 0.07,0.513 0.099,0.421 0.104,0.322 0.084,0.217 0.068,0.135 0.041,0.062 0,0 M -1.299,3.353 C -1.281,3.348 -1.224,3.337 -1.126,3.321 -1.029,3.306 -0.952,3.291 -0.885,3.281 -0.821,3.273 -0.738,3.252 -0.632,3.225 -0.526,3.196 -0.438,3.166 -0.367,3.139 -0.296,3.108 -0.22,3.069 -0.137,3.02 -0.055,2.971 0.008,2.915 0.052,2.858 0.096,2.799 0.13,2.729 0.152,2.647 0.174,2.564 0.177,2.476 0.159,2.378 0.145,2.294 0.117,2.224 0.078,2.16 0.039,2.097 -0.011,2.048 -0.073,2.011 -0.134,1.976 -0.195,1.944 -0.258,1.923 -0.32,1.897 -0.397,1.886 -0.487,1.88 -0.579,1.877 -0.657,1.875 -0.724,1.875 c -0.067,0 -0.149,0.006 -0.248,0.021 -0.099,0.012 -0.17,0.023 -0.221,0.031 -0.05,0.008 -0.119,0.019 -0.206,0.036 -0.087,0.019 -0.137,0.029 -0.151,0.032 z M 1.378,0.819 C 1.249,1.069 1.019,1.27 0.69,1.417 1.17,1.558 1.433,1.904 1.479,2.449 1.497,2.648 1.475,2.826 1.413,2.983 1.348,3.143 1.248,3.281 1.111,3.396 0.974,3.512 0.82,3.607 0.648,3.687 0.477,3.766 0.276,3.838 0.048,3.901 l 0.206,1.114 -0.68,0.124 -0.2,-1.081 C -0.744,4.08 -0.923,4.111 -1.169,4.148 L -0.966,5.24 -1.644,5.364 -1.85,4.252 c -0.098,0.016 -0.242,0.04 -0.429,0.076 L -3.215,4.506 -3.35,3.78 -2.859,3.689 c 0.223,-0.04 0.336,-0.164 0.338,-0.374 L -2.756,2.049 C -2.727,2.044 -2.704,2.04 -2.687,2.032 L -2.758,2.045 -3.085,0.27 C -3.137,0.124 -3.236,0.064 -3.384,0.091 l -0.491,0.091 -0.285,-0.783 0.882,-0.163 c 0.057,-0.009 0.138,-0.027 0.244,-0.046 0.105,-0.023 0.185,-0.036 0.238,-0.048 l -0.209,-1.124 0.68,-0.128 0.206,1.113 c 0.124,-0.027 0.304,-0.061 0.538,-0.104 l -0.205,-1.109 0.684,-0.125 0.203,1.126 c 0.247,-0.032 0.464,-0.052 0.657,-0.053 0.193,-0.003 0.38,0.015 0.565,0.053 0.184,0.038 0.343,0.099 0.476,0.179 0.134,0.083 0.253,0.195 0.357,0.342 0.105,0.144 0.187,0.319 0.245,0.526 0.116,0.4 0.106,0.728 -0.023,0.981"
             style="fill:#ffffff;fill-opacity:1;fill-rule:nonzero;stroke:none"
             id="path92" /></g><text
           transform="matrix(1,0,0,-1,223.8667,647.4219)"
           style="font-variant:normal;font-weight:normal;font-stretch:normal;font-size:7px;font-family:Arial;-inkscape-font-specification:ArialMT;writing-mode:lr-tb;fill:#231f20;fill-opacity:1;fill-rule:nonzero;stroke:none"
           id="text96"><tspan
             x="0 3.892 5.8379998 7.7839999 11.676 15.176 17.122 19.068001 21.014 24.906 26.459999 28.406 31.906 35.798 37.352001 41.243999 44.743999 48.636002 50.966999 54.859001 56.805 60.696999 63.028"
             y="0"
             sodipodi:role="line"
             id="tspan94">https://bitcoincore.org</tspan></text><text
           transform="matrix(1,0,0,-1,278.0405,627.0039)"
           style="font-variant:normal;font-weight:bold;font-stretch:condensed;font-size:9px;font-family:'Humanst521 Cn BT';-inkscape-font-specification:Humanist521BT-BoldCondensed;writing-mode:lr-tb;fill:#231f20;fill-opacity:1;fill-rule:nonzero;stroke:none"
           id="text106"><tspan
             x="0 3.96 6.0929999 10.197 14.679 18.729 21.726 26.208"
             y="0"
             sodipodi:role="line"
             id="tspan98">Signatur</tspan><tspan
             x="24.48 29.726999 34.074001 36.234001 38.537998 43.047001 45.18 48.573002 50.876999 55.386002 59.346001"
             y="-39.419998"
             sodipodi:role="line"
             id="tspan100">Hol dir den</tspan><tspan
             x="24.48 28.26 32.220001 35.612999 37.745998 40.058998 42.192001 45.792 49.841999 52.839001 54.972 59.319 63.800999 66.105003 71.064003 75.024002"
             y="-29.916"
             sodipodi:role="line"
             id="tspan102">Verification Key</tspan><tspan
             x="24.48 28.205999 32.553001 37.035 39.339001 41.472 44.865002 48.969002 52.929001 57.410999 61.919998 67.625999 71.973 76.463997 80.424004 82.907997"
             y="-20.412001"
             sodipodi:role="line"
             id="tspan104">von irgendwoher.</tspan></text><g
           id="g108"
           transform="translate(254.7598,636.8237)"><path
             d="M 0,0 C 0,2.875 2.509,6.208 2.509,9.125"
             style="fill:none;stroke:#231f20;stroke-width:0.3;stroke-linecap:butt;stroke-linejoin:miter;stroke-miterlimit:10;stroke-dasharray:none;stroke-opacity:1"
             id="path110" /></g><g
           id="g112"
           transform="translate(256.6191,637.3706)"><path
             d="M 0,0 -1.87,-3.238 -3.739,0 Z"
             style="fill:#231f20;fill-opacity:1;fill-rule:nonzero;stroke:none"
             id="path114" /></g><g
           id="g116"
           transform="translate(333.9189,636.8237)"><path
             d="M 0,0 C 0,2.875 -2.708,5.472 -2.708,8.389"
             style="fill:none;stroke:#231f20;stroke-width:0.3;stroke-linecap:butt;stroke-linejoin:miter;stroke-miterlimit:10;stroke-dasharray:none;stroke-opacity:1"
             id="path118" /></g><g
           id="g120"
           transform="translate(335.7783,637.3711)"><path
             d="M 0,0 -1.87,-3.238 -3.739,0 Z"
             style="fill:#231f20;fill-opacity:1;fill-rule:nonzero;stroke:none"
             id="path122" /></g><g
           id="g124"
           transform="translate(299.9609,607.2129)"><path
             d="M 0,0 C 1.5,5.75 1.25,13.5 -3.25,17.75"
             style="fill:none;stroke:#231f20;stroke-width:0.3;stroke-linecap:butt;stroke-linejoin:miter;stroke-miterlimit:10;stroke-dasharray:none;stroke-opacity:1"
             id="path126" /></g><g
           id="g128"
           transform="translate(301.8979,607.2729)"><path
             d="M 0,0 -2.626,-2.662 -3.618,0.944 Z"
             style="fill:#231f20;fill-opacity:1;fill-rule:nonzero;stroke:none"
             id="path130" /></g><g
           id="g132"
           transform="translate(245.4609,555.3589)"><path
             d="M 0,0 C 0,-10.75 -6.667,-21.375 -6.667,-35.75"
             style="fill:none;stroke:#231f20;stroke-width:0.3;stroke-linecap:butt;stroke-linejoin:miter;stroke-miterlimit:10;stroke-dasharray:none;stroke-opacity:1"
             id="path134" /></g><g
           id="g136"
           transform="translate(243.6016,554.8115)"><path
             d="M 0,0 1.87,3.238 3.739,0 Z"
             style="fill:#231f20;fill-opacity:1;fill-rule:nonzero;stroke:none"
             id="path138" /></g><g
           id="g140"
           transform="translate(342.7949,542.6919)"><path
             d="M 0,0 C 0,-6.666 -2.667,-14.916 -2.667,-21.333"
             style="fill:none;stroke:#231f20;stroke-width:0.3;stroke-linecap:butt;stroke-linejoin:miter;stroke-miterlimit:10;stroke-dasharray:none;stroke-opacity:1"
             id="path142" /></g><g
           id="g144"
           transform="translate(340.9355,542.145)"><path
             d="M 0,0 1.869,3.238 3.739,0 Z"
             style="fill:#231f20;fill-opacity:1;fill-rule:nonzero;stroke:none"
             id="path146" /></g><path
           d="m 343.795,586.692 h -19.752 v 44.387 h 19.752 z"
           style="fill:#9fcbe5;fill-opacity:1;fill-rule:nonzero;stroke:none"
           id="path148" /><path
           d="m 343.795,612.064 h -19.752 v 0.659 h 19.752 z"
           style="fill:#ffffff;fill-opacity:1;fill-rule:nonzero;stroke:none"
           id="path150" /><path
           d="m 343.795,617.928 h -19.752 v 0.66 h 19.752 z"
           style="fill:#ffffff;fill-opacity:1;fill-rule:nonzero;stroke:none"
           id="path152" /><path
           d="m 343.795,623.562 h -19.752 v 0.659 h 19.752 z"
           style="fill:#ffffff;fill-opacity:1;fill-rule:nonzero;stroke:none"
           id="path154" /><path
           d="m 343.795,628.381 h -19.752 v 0.663 h 19.752 z"
           style="fill:#ffffff;fill-opacity:1;fill-rule:nonzero;stroke:none"
           id="path156" /><g
           id="g158"
           transform="translate(324.043,612.8794)"><path
             d="M 0,0 H 19.752"
             style="fill:none;stroke:#231f20;stroke-width:0.5;stroke-linecap:butt;stroke-linejoin:miter;stroke-miterlimit:4;stroke-dasharray:none;stroke-opacity:1"
             id="path160" /></g><g
           id="g162"
           transform="translate(324.043,589.5581)"><path
             d="M 0,0 H 19.752"
             style="fill:none;stroke:#231f20;stroke-width:0.5;stroke-linecap:butt;stroke-linejoin:miter;stroke-miterlimit:4;stroke-dasharray:none;stroke-opacity:1"
             id="path164" /></g><g
           id="g166"
           transform="translate(324.043,618.7476)"><path
             d="M 0,0 H 19.752"
             style="fill:none;stroke:#231f20;stroke-width:0.5;stroke-linecap:butt;stroke-linejoin:miter;stroke-miterlimit:4;stroke-dasharray:none;stroke-opacity:1"
             id="path168" /></g><g
           id="g170"
           transform="translate(324.043,624.3784)"><path
             d="M 0,0 H 19.752"
             style="fill:none;stroke:#231f20;stroke-width:0.5;stroke-linecap:butt;stroke-linejoin:miter;stroke-miterlimit:4;stroke-dasharray:none;stroke-opacity:1"
             id="path172" /></g><g
           id="g174"
           transform="translate(324.043,629.2007)"><path
             d="M 0,0 H 19.752"
             style="fill:none;stroke:#231f20;stroke-width:0.5;stroke-linecap:butt;stroke-linejoin:miter;stroke-miterlimit:4;stroke-dasharray:none;stroke-opacity:1"
             id="path176" /></g><g
           id="g178"
           transform="translate(337.1475,618.7476)"><path
             d="m 0,0 h -6.455 l 0.258,-0.908 h 5.943 z"
             style="fill:#231f20;fill-opacity:1;fill-rule:nonzero;stroke:none"
             id="path180" /></g><path
           d="m 343.795,586.692 h -19.752 v 44.387 h 19.752 z"
           style="fill:none;stroke:#231f20;stroke-width:0.5;stroke-linecap:butt;stroke-linejoin:round;stroke-miterlimit:4;stroke-dasharray:none;stroke-opacity:1"
           id="path182" /><g
           id="g184"
           transform="translate(343.7949,631.0786)"><path
             d="m 0,0 h -19.752 l 2.078,1.481 h 15.595 z"
             style="fill:#dfedf6;fill-opacity:1;fill-rule:nonzero;stroke:none"
             id="path186" /></g><g
           id="g188"
           transform="translate(343.7949,631.0786)"><path
             d="m 0,0 h -19.752 l 2.078,1.481 h 15.595 z"
             style="fill:none;stroke:#231f20;stroke-width:0.5;stroke-linecap:butt;stroke-linejoin:round;stroke-miterlimit:10;stroke-dasharray:none;stroke-opacity:1"
             id="path190" /></g><g
           id="g192"
           transform="translate(333.916,603.9243)"><path
             d="m 0,0 c -1.24,0 -2.254,-1.014 -2.254,-2.258 0,-1.244 1.014,-2.257 2.254,-2.257 1.246,0 2.256,1.013 2.256,2.257 C 2.256,-1.014 1.246,0 0,0 m 0,-4.971 c -1.495,0 -2.711,1.217 -2.711,2.713 0,1.496 1.216,2.712 2.711,2.712 1.5,0 2.716,-1.216 2.716,-2.712 C 2.716,-3.754 1.5,-4.971 0,-4.971"
             style="fill:#6b9db9;fill-opacity:1;fill-rule:nonzero;stroke:none"
             id="path194" /></g><path
           d="m 334.148,601.667 h -0.457 v 1.842 h 0.457 z"
           style="fill:#6b9db9;fill-opacity:1;fill-rule:nonzero;stroke:none"
           id="path196" /><g
           id="g198"
           transform="translate(334.4199,603.1685)"><path
             d="m 0,0 v -0.491 c 0.371,-0.186 0.625,-0.567 0.625,-1.011 0,-0.622 -0.505,-1.128 -1.129,-1.128 -0.619,0 -1.124,0.506 -1.124,1.128 0,0.444 0.256,0.825 0.628,1.011 V 0 c -0.629,-0.21 -1.086,-0.804 -1.086,-1.502 0,-0.873 0.712,-1.584 1.582,-1.584 0.876,0 1.588,0.711 1.588,1.584 C 1.084,-0.804 0.629,-0.21 0,0"
             style="fill:#6b9db9;fill-opacity:1;fill-rule:nonzero;stroke:none"
             id="path200" /></g><g
           id="g202"
           transform="translate(287.5029,585.3657)"><path
             d="M 0,0 C 1.323,-0.238 1.784,-1.378 2.574,-2.174 2.792,-0.709 3.369,0.375 3.958,1.45 3.945,1.573 3.928,1.694 3.762,1.659 2.724,0.875 1.106,0.708 0,0 M 5.441,3.209 C 5.808,3.271 6.022,3.496 6.335,3.622 6.266,3.927 6.306,4.351 6.038,4.452 5.876,3.996 5.615,3.646 5.441,3.209 M 0.593,3.312 C 1.123,4.481 1.702,5.6 2.278,6.724 1.413,6.962 0.384,7.023 -0.595,7.135 0.009,6.076 0.396,4.799 0.593,3.312 M -5.046,7.036 C -5.438,6.323 -5.594,5.393 -5.838,4.452 -6.059,3.612 -6.116,2.438 -6.83,2.071 c -0.25,1.411 0.639,3.296 0.992,4.756 -2.692,-0.544 -4.934,-2.58 -4.852,-5.586 0.062,-2.223 1.727,-3.018 4.056,-3 4.944,0.044 8.555,4.468 5.247,8.894 -0.976,0.198 -2.384,-0.031 -3.659,-0.099 m 0.195,0.619 c 0.876,0.191 2.034,0.083 2.871,0.313 -0.713,0.698 -1.301,1.533 -1.88,2.376 C -4.114,9.364 -4.549,8.582 -4.851,7.655 M 6.73,7.036 C 7.331,8.579 8.503,10.077 8.908,11.483 7.994,10.266 6.804,8.785 6.73,7.036 m 11.182,8.687 C 15.197,15.496 11.92,14.625 10.49,12.932 9.639,11.923 9.229,10.424 8.511,9.105 7.769,7.732 5.959,5.571 6.927,4.033 c 4.041,2.479 8.117,5.054 11.678,7.965 1.143,0.934 2.54,2.016 3.072,3.519 -1.176,0.46 -2.515,0.312 -3.765,0.206 M 7.521,3.622 C 9.865,2.555 11.794,4.506 13.757,4.859 14.238,4.321 13.682,3.212 13.957,2.586 15.378,1.557 18.146,1.93 19.199,0.518 18.574,0.023 17.73,0.829 16.626,1.137 14.723,1.671 12.644,1.344 13.359,4.139 11.659,3.339 8.806,1.848 6.829,3.209 6.164,2.869 5.602,2.422 4.849,2.174 4.063,0.512 3.409,-1.285 2.771,-3.104 c -1.374,0.493 -1.418,2.381 -3.067,2.587 -0.271,-0.41 -0.367,-0.998 -0.494,-1.552 0.383,-0.105 0.799,1.141 1.383,0.829 0.052,-0.793 -0.842,-1.456 -1.584,-1.759 -0.817,0.52 -0.185,1.691 0,2.588 -1.252,-1 -3.784,-2.11 -6.236,-1.968 -0.942,0.054 -2.147,0.288 -2.871,0.83 -1.792,1.343 -1.313,4.865 -0.097,6.514 1.128,1.53 2.743,2.077 4.552,2.588 0.552,0.904 0.847,2.08 1.288,3.101 0.558,0.04 0.708,0.148 0.888,0.724 2.93,1.145 6.315,1.814 8.711,3.519 -3.038,-0.561 -6.372,-1.578 -9.502,-2.484 -0.991,-0.286 -1.991,-0.806 -2.969,-0.62 0.114,0.615 0.931,0.691 1.389,0.825 1.567,0.472 3.32,0.955 5.048,1.449 2.238,0.644 4.641,1.564 6.928,1.347 C 6.193,14.332 5.061,14.023 4.354,13.653 2.2,12.534 -0.751,11.729 -3.167,10.758 c 0.4,-1.342 1.39,-2.062 2.176,-2.998 1.3,0.009 2.369,-0.212 3.465,-0.414 1.178,1.425 2.15,3.34 3.265,4.964 0.301,0.439 0.709,1.18 1.287,1.136 C 6.841,12.242 5.829,11.375 5.146,10.344 4.463,9.318 3.89,8.188 3.268,7.135 3.997,6.627 5.188,6.593 5.441,5.585 4.547,5.385 3.945,6.358 3.066,6.516 1.797,4.985 1.116,2.832 0.195,0.933 1.842,1.246 3.054,2.02 4.453,2.586 c 0.56,1.292 1.338,2.122 1.485,3.93 0.263,3.246 2.247,5.15 4.16,6.826 0.097,0.519 0.406,0.818 0.591,1.242 0.382,0.09 0.352,-0.252 0.592,-0.309 2.016,1.456 5.742,2.445 9.107,2.174 0.607,-0.052 1.996,-0.22 1.978,-1.035 -0.022,-1.31 -2.112,-2.82 -3.064,-3.621 C 15.788,8.849 11.026,5.834 7.521,3.622"
             style="fill:#2c81ab;fill-opacity:1;fill-rule:evenodd;stroke:none"
             id="path204" /></g><g
           id="g206"
           transform="translate(265.2109,631.1538)"><path
             d="m 0,0 h -21.125 l 2.143,1.527 h 16.839 z"
             style="fill:#dfedf6;fill-opacity:1;fill-rule:nonzero;stroke:none"
             id="path208" /></g><g
           id="g210"
           transform="translate(265.2109,631.1538)"><path
             d="m 0,0 h -21.125 l 2.143,1.527 h 16.839 z"
             style="fill:none;stroke:#231f20;stroke-width:0.5;stroke-linecap:butt;stroke-linejoin:round;stroke-miterlimit:10;stroke-dasharray:none;stroke-opacity:1"
             id="path212" /></g><path
           d="m 244.086,631.154 h 21.125 v -44.462 h -21.125 z"
           style="fill:#93c6e2;fill-opacity:1;fill-rule:nonzero;stroke:#231f20;stroke-width:0.5;stroke-linecap:butt;stroke-linejoin:round;stroke-miterlimit:10;stroke-dasharray:none;stroke-opacity:1"
           id="path214" /><path
           d="m 263.908,587.984 h -18.519 v 41.864 h 18.519 z"
           style="fill:#2b9ac7;fill-opacity:1;fill-rule:nonzero;stroke:none"
           id="path216" /><path
           d="m 263.908,629.082 h -18.519 v 0.763 h 18.519 z"
           style="fill:#dfedf6;fill-opacity:1;fill-rule:nonzero;stroke:none"
           id="path218" /><path
           d="m 263.908,624.904 h -18.519 v 0.762 h 18.519 z"
           style="fill:#dfedf6;fill-opacity:1;fill-rule:nonzero;stroke:none"
           id="path220" /><path
           d="m 263.908,620.725 h -18.519 v 0.761 h 18.519 z"
           style="fill:#dfedf6;fill-opacity:1;fill-rule:nonzero;stroke:none"
           id="path222" /><path
           d="m 263.908,616.546 h -18.519 v 0.764 h 18.519 z"
           style="fill:#dfedf6;fill-opacity:1;fill-rule:nonzero;stroke:none"
           id="path224" /><path
           d="m 263.908,612.368 h -18.519 v 0.759 h 18.519 z"
           style="fill:#dfedf6;fill-opacity:1;fill-rule:nonzero;stroke:none"
           id="path226" /><path
           d="m 263.908,608.187 h -18.519 v 0.761 h 18.519 z"
           style="fill:#dfedf6;fill-opacity:1;fill-rule:nonzero;stroke:none"
           id="path228" /><path
           d="m 263.908,604.009 h -18.519 v 0.765 h 18.519 z"
           style="fill:#dfedf6;fill-opacity:1;fill-rule:nonzero;stroke:none"
           id="path230" /><path
           d="m 263.908,599.832 h -18.519 v 0.761 h 18.519 z"
           style="fill:#dfedf6;fill-opacity:1;fill-rule:nonzero;stroke:none"
           id="path232" /><path
           d="m 263.908,595.654 h -18.519 v 0.76 h 18.519 z"
           style="fill:#dfedf6;fill-opacity:1;fill-rule:nonzero;stroke:none"
           id="path234" /><path
           d="m 263.908,591.473 h -18.519 v 0.762 h 18.519 z"
           style="fill:#dfedf6;fill-opacity:1;fill-rule:nonzero;stroke:none"
           id="path236" /><g
           id="g238"
           transform="translate(263.9082,592.1714)"><path
             d="M 0,0 H -18.519"
             style="fill:none;stroke:#231f20;stroke-width:0.5;stroke-linecap:butt;stroke-linejoin:round;stroke-miterlimit:4;stroke-dasharray:none;stroke-opacity:1"
             id="path240" /></g><g
           id="g242"
           transform="translate(263.9082,596.3589)"><path
             d="M 0,0 H -18.519"
             style="fill:none;stroke:#231f20;stroke-width:0.5;stroke-linecap:butt;stroke-linejoin:round;stroke-miterlimit:4;stroke-dasharray:none;stroke-opacity:1"
             id="path244" /></g><g
           id="g246"
           transform="translate(263.9082,600.5425)"><path
             d="M 0,0 H -18.519"
             style="fill:none;stroke:#231f20;stroke-width:0.5;stroke-linecap:butt;stroke-linejoin:round;stroke-miterlimit:4;stroke-dasharray:none;stroke-opacity:1"
             id="path248" /></g><g
           id="g250"
           transform="translate(263.9082,604.731)"><path
             d="M 0,0 H -18.519"
             style="fill:none;stroke:#231f20;stroke-width:0.5;stroke-linecap:butt;stroke-linejoin:round;stroke-miterlimit:4;stroke-dasharray:none;stroke-opacity:1"
             id="path252" /></g><g
           id="g254"
           transform="translate(263.9082,608.9175)"><path
             d="M 0,0 H -18.519"
             style="fill:none;stroke:#231f20;stroke-width:0.5;stroke-linecap:butt;stroke-linejoin:round;stroke-miterlimit:4;stroke-dasharray:none;stroke-opacity:1"
             id="path256" /></g><g
           id="g258"
           transform="translate(263.9082,613.105)"><path
             d="M 0,0 H -18.519"
             style="fill:none;stroke:#231f20;stroke-width:0.5;stroke-linecap:butt;stroke-linejoin:round;stroke-miterlimit:4;stroke-dasharray:none;stroke-opacity:1"
             id="path260" /></g><g
           id="g262"
           transform="translate(263.9082,617.2905)"><path
             d="M 0,0 H -18.519"
             style="fill:none;stroke:#231f20;stroke-width:0.5;stroke-linecap:butt;stroke-linejoin:round;stroke-miterlimit:4;stroke-dasharray:none;stroke-opacity:1"
             id="path264" /></g><g
           id="g266"
           transform="translate(263.9082,621.478)"><path
             d="M 0,0 H -18.519"
             style="fill:none;stroke:#231f20;stroke-width:0.5;stroke-linecap:butt;stroke-linejoin:round;stroke-miterlimit:4;stroke-dasharray:none;stroke-opacity:1"
             id="path268" /></g><g
           id="g270"
           transform="translate(263.9082,625.6655)"><path
             d="M 0,0 H -18.519"
             style="fill:none;stroke:#231f20;stroke-width:0.5;stroke-linecap:butt;stroke-linejoin:round;stroke-miterlimit:4;stroke-dasharray:none;stroke-opacity:1"
             id="path272" /></g><path
           d="m 263.908,587.984 h -18.519 v 41.864 h 18.519 z"
           style="fill:none;stroke:#231f20;stroke-width:0.5;stroke-linecap:butt;stroke-linejoin:round;stroke-miterlimit:4;stroke-dasharray:none;stroke-opacity:1"
           id="path274" /><path
           d="m 255.278,622.349 h -9.175 v 2.006 h 9.175 z"
           style="fill:#9fcbe5;fill-opacity:1;fill-rule:nonzero;stroke:none"
           id="path276" /><path
           d="m 255.278,618.169 h -9.175 v 2.01 h 9.175 z"
           style="fill:#9fcbe5;fill-opacity:1;fill-rule:nonzero;stroke:none"
           id="path278" /><path
           d="m 255.278,613.99 h -9.175 v 2.009 h 9.175 z"
           style="fill:#9fcbe5;fill-opacity:1;fill-rule:nonzero;stroke:none"
           id="path280" /><path
           d="m 255.278,609.811 h -9.175 v 2.009 h 9.175 z"
           style="fill:#9fcbe5;fill-opacity:1;fill-rule:nonzero;stroke:none"
           id="path282" /><path
           d="m 255.278,605.632 h -9.175 v 2.011 h 9.175 z"
           style="fill:#9fcbe5;fill-opacity:1;fill-rule:nonzero;stroke:none"
           id="path284" /><path
           d="m 255.278,601.456 h -9.175 v 2.007 h 9.175 z"
           style="fill:#9fcbe5;fill-opacity:1;fill-rule:nonzero;stroke:none"
           id="path286" /><path
           d="m 255.278,597.276 h -9.175 v 2.01 h 9.175 z"
           style="fill:#9fcbe5;fill-opacity:1;fill-rule:nonzero;stroke:none"
           id="path288" /><path
           d="m 255.278,593.1 h -9.175 v 2.008 h 9.175 z"
           style="fill:#9fcbe5;fill-opacity:1;fill-rule:nonzero;stroke:none"
           id="path290" /><path
           d="m 255.278,588.917 h -9.175 v 2.011 h 9.175 z"
           style="fill:#9fcbe5;fill-opacity:1;fill-rule:nonzero;stroke:none"
           id="path292" /><path
           d="m 255.278,626.534 h -9.175 v 2.011 h 9.175 z"
           style="fill:#9fcbe5;fill-opacity:1;fill-rule:nonzero;stroke:none"
           id="path294" /><g
           id="g296"
           transform="translate(262.9058,627.5405)"><path
             d="m 0,0 c 0,-0.258 -0.204,-0.467 -0.462,-0.467 -0.256,0 -0.468,0.209 -0.468,0.467 0,0.258 0.212,0.467 0.468,0.467 C -0.204,0.467 0,0.258 0,0"
             style="fill:#9fcbe5;fill-opacity:1;fill-rule:nonzero;stroke:none"
             id="path298" /></g><g
           id="g300"
           transform="translate(262.9058,623.353)"><path
             d="m 0,0 c 0,-0.256 -0.204,-0.467 -0.462,-0.467 -0.256,0 -0.468,0.211 -0.468,0.467 0,0.256 0.212,0.465 0.468,0.465 C -0.204,0.465 0,0.256 0,0"
             style="fill:#9fcbe5;fill-opacity:1;fill-rule:nonzero;stroke:none"
             id="path302" /></g><g
           id="g304"
           transform="translate(262.9058,619.1655)"><path
             d="m 0,0 c 0,-0.254 -0.204,-0.465 -0.462,-0.465 -0.256,0 -0.468,0.211 -0.468,0.465 0,0.258 0.212,0.467 0.468,0.467 C -0.204,0.467 0,0.258 0,0"
             style="fill:#9fcbe5;fill-opacity:1;fill-rule:nonzero;stroke:none"
             id="path306" /></g><g
           id="g308"
           transform="translate(262.9058,614.981)"><path
             d="m 0,0 c 0,-0.256 -0.204,-0.465 -0.462,-0.465 -0.256,0 -0.468,0.209 -0.468,0.465 0,0.255 0.212,0.466 0.468,0.466 C -0.204,0.466 0,0.255 0,0"
             style="fill:#9fcbe5;fill-opacity:1;fill-rule:nonzero;stroke:none"
             id="path310" /></g><g
           id="g312"
           transform="translate(262.9058,610.7954)"><path
             d="m 0,0 c 0,-0.259 -0.204,-0.466 -0.462,-0.466 -0.256,0 -0.468,0.207 -0.468,0.466 0,0.256 0.212,0.462 0.468,0.462 C -0.204,0.462 0,0.256 0,0"
             style="fill:#9fcbe5;fill-opacity:1;fill-rule:nonzero;stroke:none"
             id="path314" /></g><g
           id="g316"
           transform="translate(262.9058,606.6069)"><path
             d="m 0,0 c 0,-0.256 -0.204,-0.465 -0.462,-0.465 -0.256,0 -0.468,0.209 -0.468,0.465 0,0.258 0.212,0.47 0.468,0.47 C -0.204,0.47 0,0.258 0,0"
             style="fill:#9fcbe5;fill-opacity:1;fill-rule:nonzero;stroke:none"
             id="path318" /></g><g
           id="g320"
           transform="translate(262.9058,602.4253)"><path
             d="m 0,0 c 0,-0.26 -0.204,-0.471 -0.462,-0.471 -0.256,0 -0.468,0.211 -0.468,0.471 0,0.256 0.212,0.462 0.468,0.462 C -0.204,0.462 0,0.256 0,0"
             style="fill:#9fcbe5;fill-opacity:1;fill-rule:nonzero;stroke:none"
             id="path322" /></g><g
           id="g324"
           transform="translate(262.9058,598.2358)"><path
             d="m 0,0 c 0,-0.257 -0.204,-0.465 -0.462,-0.465 -0.256,0 -0.468,0.208 -0.468,0.465 0,0.258 0.212,0.465 0.468,0.465 C -0.204,0.465 0,0.258 0,0"
             style="fill:#9fcbe5;fill-opacity:1;fill-rule:nonzero;stroke:none"
             id="path326" /></g><g
           id="g328"
           transform="translate(262.9058,594.0483)"><path
             d="m 0,0 c 0,-0.256 -0.204,-0.465 -0.462,-0.465 -0.256,0 -0.468,0.209 -0.468,0.465 0,0.258 0.212,0.469 0.468,0.469 C -0.204,0.469 0,0.258 0,0"
             style="fill:#9fcbe5;fill-opacity:1;fill-rule:nonzero;stroke:none"
             id="path330" /></g><g
           id="g332"
           transform="translate(262.9058,589.8628)"><path
             d="m 0,0 c 0,-0.254 -0.204,-0.465 -0.462,-0.465 -0.256,0 -0.468,0.211 -0.468,0.465 0,0.258 0.212,0.465 0.468,0.465 C -0.204,0.465 0,0.258 0,0"
             style="fill:#9fcbe5;fill-opacity:1;fill-rule:nonzero;stroke:none"
             id="path334" /></g><g
           id="g336"
           transform="translate(270.0293,540.6919)"><path
             d="M 0,0 H -15.381 V 45.901"
             style="fill:none;stroke:#231f20;stroke-width:0.5;stroke-linecap:butt;stroke-linejoin:miter;stroke-miterlimit:4;stroke-dasharray:none;stroke-opacity:1"
             id="path338" /></g><g
           id="g340"
           transform="translate(271.9302,540.0864)"><path
             d="m 0,0 c -0.951,-0.283 -1.57,-0.547 -2.334,-0.85 l 0.01,2.903 C -2.053,1.922 -0.945,1.477 0.002,1.186 1.02,0.873 1.941,0.662 2.539,0.584 1.939,0.512 1.016,0.303 0,0"
             style="fill:#231f20;fill-opacity:1;fill-rule:nonzero;stroke:none"
             id="path342" /></g><g
           id="g344"
           transform="translate(314.3242,540.0864)"><path
             d="M 0,0 C 0.951,-0.283 1.57,-0.547 2.334,-0.85 L 2.324,2.053 C 2.053,1.922 0.945,1.477 -0.002,1.186 -1.02,0.873 -1.941,0.662 -2.539,0.584 -1.939,0.512 -1.016,0.303 0,0"
             style="fill:#231f20;fill-opacity:1;fill-rule:nonzero;stroke:none"
             id="path346" /></g><g
           id="g348"
           transform="translate(292.9805,560.3921)"><path
             d="M 0,0 V 20.973"
             style="fill:none;stroke:#231f20;stroke-width:0.5;stroke-linecap:butt;stroke-linejoin:miter;stroke-miterlimit:4;stroke-dasharray:none;stroke-opacity:1"
             id="path350" /></g><g
           id="g352"
           transform="translate(292.9805,602.8647)"><path
             d="M 0,0 V 6.051 H -27.77"
             style="fill:none;stroke:#231f20;stroke-width:0.5;stroke-linecap:butt;stroke-linejoin:miter;stroke-miterlimit:4;stroke-dasharray:none;stroke-opacity:1"
             id="path354" /></g><g
           id="g356"
           transform="translate(293.5859,558.4917)"><path
             d="m 0,0 c 0.283,0.951 0.547,1.57 0.85,2.334 l -2.903,-0.01 c 0.131,-0.271 0.576,-1.379 0.867,-2.326 0.313,-1.018 0.524,-1.939 0.602,-2.537 0.072,0.6 0.281,1.523 0.584,2.539"
             style="fill:#231f20;fill-opacity:1;fill-rule:nonzero;stroke:none"
             id="path358" /></g><g
           id="g360"
           transform="translate(354.7402,548.0366)"><path
             d="m 0,0 -13.074,13.465 c 1.402,3.076 0.855,6.844 -1.665,9.436 -3.277,3.376 -8.641,3.484 -11.982,0.24 -0.068,-0.067 -0.129,-0.142 -0.197,-0.211 -0.076,-0.071 -0.15,-0.129 -0.221,-0.194 -3.34,-3.242 -3.388,-8.608 -0.113,-11.982 2.338,-2.401 5.726,-3.141 8.694,-2.197 l 1.09,-1.125 c 0.655,0.486 1.678,0.338 2.366,-0.379 0.694,-0.713 0.807,-1.733 0.309,-2.373 l 1.197,-1.239 c 0.655,0.484 1.67,0.34 2.367,-0.376 0.696,-0.713 0.807,-1.733 0.309,-2.375 l 1.197,-1.235 c 0.657,0.48 1.674,0.334 2.368,-0.378 0.695,-0.718 0.806,-1.735 0.302,-2.374 l 0.834,-0.858 6.717,0.353 0.425,0.407 z"
             style="fill:none;stroke:#231f20;stroke-width:0.75;stroke-linecap:butt;stroke-linejoin:round;stroke-miterlimit:4;stroke-dasharray:none;stroke-opacity:1"
             id="path362" /></g><g
           id="g364"
           transform="translate(355.6631,544.6421)"><path
             d="m 0,0 -14.414,16.451 c 1.401,3.073 0.854,6.846 -1.67,9.44 -3.274,3.372 -8.635,3.482 -11.978,0.24 -3.339,-3.242 -3.388,-8.609 -0.113,-11.983 2.338,-2.401 5.726,-3.14 8.695,-2.197 l 1.089,-1.125 c 0.656,0.487 1.678,0.338 2.367,-0.379 0.693,-0.713 0.806,-1.732 0.308,-2.373 l 1.197,-1.238 c 0.655,0.483 1.67,0.34 2.367,-0.376 0.696,-0.714 0.807,-1.733 0.309,-2.375 l 1.197,-1.235 c 0.657,0.479 1.674,0.334 2.368,-0.378 0.695,-0.718 0.806,-1.736 0.302,-2.374 l 0.834,-0.859 6.717,0.354 z"
             style="fill:#278a2f;fill-opacity:1;fill-rule:nonzero;stroke:none"
             id="path366" /></g><g
           id="g368"
           transform="translate(355.6631,544.6421)"><path
             d="m 0,0 -14.414,16.451 c 1.401,3.073 0.854,6.846 -1.67,9.44 -3.274,3.372 -8.635,3.482 -11.978,0.24 -3.339,-3.242 -3.388,-8.609 -0.113,-11.983 2.338,-2.401 5.726,-3.14 8.695,-2.197 l 1.089,-1.125 c 0.656,0.487 1.678,0.338 2.367,-0.379 0.693,-0.713 0.806,-1.732 0.308,-2.373 l 1.197,-1.238 c 0.655,0.483 1.67,0.34 2.367,-0.376 0.696,-0.714 0.807,-1.733 0.309,-2.375 l 1.197,-1.235 c 0.657,0.479 1.674,0.334 2.368,-0.378 0.695,-0.718 0.806,-1.736 0.302,-2.374 l 0.834,-0.859 6.717,0.354 z"
             style="fill:none;stroke:#278a2f;stroke-width:0.3;stroke-linecap:butt;stroke-linejoin:round;stroke-miterlimit:4;stroke-dasharray:none;stroke-opacity:1"
             id="path370" /></g></g></g><g
       id="g372"><g
         id="g374"><g
           id="g380"><path
             d="m 328.019,571.177 c -3.338,-3.238 -3.386,-8.607 -0.109,-11.98 v 0 c 2.332,-2.405 5.723,-3.14 8.694,-2.198 v 0 l 1.089,-1.122 c 0.653,0.48 1.674,0.336 2.364,-0.376 v 0 c 0.693,-0.714 0.808,-1.734 0.309,-2.379 v 0 l 1.198,-1.235 c 0.655,0.483 1.669,0.337 2.367,-0.38 v 0 c 0.695,-0.711 0.808,-1.732 0.303,-2.37 v 0 l 1.208,-1.241 c 0.648,0.483 1.667,0.338 2.365,-0.371 v 0 c 0.69,-0.717 0.798,-1.734 0.301,-2.378 v 0 l 0.835,-0.864 6.72,0.359 -0.923,3.395 -13.074,13.465 c 1.402,3.075 0.855,6.843 -1.665,9.436 v 0 c -1.681,1.732 -3.912,2.604 -6.137,2.604 v 0 c -2.111,0 -4.218,-0.785 -5.845,-2.365"
             style="fill:url(#linearGradient386);stroke:none"
             id="path388" /></g></g></g><g
       id="g390"><g
         id="g392"><g
           id="g398"><path
             d="m 328.492,570.691 c -3.062,-2.977 -3.107,-7.917 -0.096,-11.014 v 0 c 2.093,-2.155 5.155,-2.93 7.994,-2.025 v 0 l 0.406,0.128 1.037,-1.068 c 0.884,0.308 1.962,0.04 2.713,-0.738 v 0 c 0.761,-0.778 0.995,-1.865 0.659,-2.737 v 0 l 0.496,-0.513 c 0.889,0.308 1.965,0.037 2.718,-0.742 v 0 c 0.757,-0.775 0.993,-1.864 0.661,-2.733 v 0 l 0.498,-0.514 c 0.88,0.312 1.961,0.042 2.715,-0.736 v 0 c 0.758,-0.779 0.994,-1.867 0.659,-2.742 v 0 l 0.27,-0.273 5.559,0.294 -0.654,2.411 -13.274,13.668 0.192,0.426 c 1.336,2.936 0.733,6.347 -1.532,8.678 v 0 c -1.547,1.594 -3.603,2.395 -5.653,2.395 v 0 c -1.941,0 -3.877,-0.719 -5.368,-2.165"
             style="fill:url(#linearGradient404);stroke:none"
             id="path406" /></g></g></g><g
       id="g408"><g
         id="g410"
         clip-path="url(#clipPath414)"><g
           id="g416"
           transform="translate(338.6426,560.2378)"><path
             d="m 0,0 c -2.667,-2.586 -6.93,-2.523 -9.516,0.141 -2.591,2.668 -2.529,6.931 0.141,9.517 2.662,2.592 6.926,2.526 9.512,-0.14 C 2.727,6.852 2.664,2.589 0,0"
             style="fill:#ffffff;fill-opacity:1;fill-rule:nonzero;stroke:none"
             id="path418" /></g><text
           transform="matrix(0.69655996,-0.71749858,-0.71749858,-0.69655996,327.4043,567.9694)"
           style="font-variant:normal;font-weight:normal;font-stretch:normal;font-size:7.48378px;font-family:Arial;-inkscape-font-specification:ArialMT;writing-mode:lr-tb;fill:#231f20;fill-opacity:1;fill-rule:nonzero;stroke:none"
           id="text422"><tspan
             x="0 4.9916797 9.1526604"
             y="0"
             sodipodi:role="line"
             id="tspan420">Pub</tspan></text><g
           id="g424"
           transform="translate(280.1279,562.1968)"><path
             d="m 0,0 c 0,-0.825 -0.675,-1.5 -1.5,-1.5 h -51.043 c -0.826,0 -1.5,0.675 -1.5,1.5 v 9.828 c 0,0.825 0.674,1.5 1.5,1.5 H -1.5 c 0.825,0 1.5,-0.675 1.5,-1.5 z"
             style="fill:#f2f2f2;fill-opacity:1;fill-rule:nonzero;stroke:none"
             id="path426" /></g><g
           id="g428"
           transform="translate(280.1279,562.1968)"><path
             d="m 0,0 c 0,-0.825 -0.675,-1.5 -1.5,-1.5 h -51.043 c -0.826,0 -1.5,0.675 -1.5,1.5 v 9.828 c 0,0.825 0.674,1.5 1.5,1.5 H -1.5 c 0.825,0 1.5,-0.675 1.5,-1.5 z"
             style="fill:none;stroke:#b2b1b1;stroke-width:0.5;stroke-linecap:butt;stroke-linejoin:miter;stroke-miterlimit:4;stroke-dasharray:none;stroke-opacity:1"
             id="path430" /></g><g
           id="g432"
           transform="translate(237.5854,567.1108)"><path
             d="m 0,0 c 0,-2.645 -2.146,-4.791 -4.792,-4.791 -2.646,0 -4.791,2.146 -4.791,4.791 0,2.646 2.145,4.791 4.791,4.791 C -2.146,4.791 0,2.646 0,0"
             style="fill:#f68624;fill-opacity:1;fill-rule:nonzero;stroke:none"
             id="path434" /></g><g
           id="g436"
           transform="translate(233.6772,565.8823)"><path
             d="m 0,0 c -0.033,-0.051 -0.071,-0.092 -0.114,-0.127 -0.044,-0.033 -0.098,-0.061 -0.161,-0.08 -0.065,-0.022 -0.126,-0.035 -0.185,-0.045 -0.058,-0.01 -0.128,-0.014 -0.207,-0.014 -0.081,0 -0.151,0.004 -0.211,0.008 -0.059,0.006 -0.131,0.014 -0.212,0.024 -0.082,0.013 -0.146,0.023 -0.191,0.031 -0.045,0.008 -0.102,0.019 -0.171,0.033 -0.069,0.014 -0.113,0.024 -0.133,0.027 L -1.36,1.066 C -1.341,1.064 -1.285,1.055 -1.189,1.039 -1.095,1.023 -1.018,1.012 -0.958,1 -0.898,0.988 -0.816,0.971 -0.713,0.943 -0.609,0.918 -0.523,0.891 -0.454,0.863 -0.385,0.834 -0.311,0.799 -0.231,0.752 -0.152,0.707 -0.091,0.658 -0.045,0.605 0,0.553 0.032,0.49 0.057,0.416 0.08,0.342 0.084,0.264 0.067,0.178 0.056,0.109 0.032,0.051 0,0 M -1.055,2.719 C -1.038,2.715 -0.991,2.707 -0.914,2.693 -0.835,2.68 -0.771,2.67 -0.719,2.66 -0.667,2.652 -0.599,2.637 -0.513,2.615 -0.428,2.59 -0.355,2.568 -0.299,2.545 -0.24,2.521 -0.178,2.49 -0.111,2.449 -0.045,2.408 0.006,2.365 0.041,2.316 0.077,2.27 0.104,2.213 0.122,2.146 0.142,2.08 0.144,2.008 0.129,1.93 0.116,1.861 0.095,1.803 0.063,1.752 0.031,1.701 -0.01,1.662 -0.06,1.633 -0.109,1.604 -0.16,1.578 -0.21,1.561 -0.26,1.541 -0.322,1.529 -0.396,1.525 -0.47,1.521 -0.533,1.52 -0.587,1.52 c -0.055,0 -0.121,0.005 -0.201,0.017 -0.08,0.012 -0.141,0.02 -0.181,0.026 -0.04,0.005 -0.096,0.017 -0.166,0.031 -0.071,0.013 -0.111,0.023 -0.123,0.025 z M 1.117,0.664 C 1.012,0.869 0.825,1.029 0.559,1.148 0.948,1.266 1.162,1.543 1.199,1.986 1.214,2.146 1.195,2.291 1.145,2.42 1.093,2.551 1.012,2.66 0.9,2.754 0.789,2.848 0.664,2.926 0.525,2.99 0.387,3.055 0.224,3.113 0.038,3.164 L 0.206,4.066 -0.346,4.168 -0.508,3.291 C -0.604,3.309 -0.75,3.334 -0.946,3.365 L -0.783,4.25 -1.335,4.352 -1.501,3.449 C -1.581,3.461 -1.697,3.48 -1.849,3.51 L -2.608,3.654 -2.717,3.066 -2.319,2.992 C -2.138,2.959 -2.047,2.857 -2.046,2.689 L -2.235,1.662 C -2.212,1.658 -2.193,1.652 -2.18,1.648 L -2.237,1.658 -2.503,0.219 C -2.544,0.102 -2.625,0.053 -2.745,0.074 l -0.398,0.074 -0.231,-0.634 0.716,-0.133 c 0.045,-0.008 0.111,-0.022 0.197,-0.039 0.085,-0.018 0.149,-0.03 0.193,-0.037 l -0.17,-0.914 0.552,-0.102 0.167,0.904 c 0.101,-0.021 0.246,-0.05 0.437,-0.086 l -0.167,-0.898 0.553,-0.102 0.167,0.913 c 0.199,-0.028 0.375,-0.041 0.532,-0.043 0.157,-0.002 0.308,0.013 0.458,0.043 0.148,0.031 0.278,0.08 0.386,0.146 0.109,0.066 0.206,0.158 0.291,0.275 0.084,0.12 0.151,0.26 0.198,0.426 0.093,0.326 0.087,0.592 -0.019,0.797"
             style="fill:#ffffff;fill-opacity:1;fill-rule:nonzero;stroke:none"
             id="path438" /></g><text
           transform="matrix(1,0,0,-1,240.0806,564.5771)"
           style="font-variant:normal;font-weight:normal;font-stretch:normal;font-size:7px;font-family:Arial;-inkscape-font-specification:ArialMT;writing-mode:lr-tb;fill:#231f20;fill-opacity:1;fill-rule:nonzero;stroke:none"
           id="text442"><tspan
             x="0 4.6690001 6.223 8.1689997 11.669 15.561 17.115"
             y="0"
             sodipodi:role="line"
             id="tspan440">Bitcoin</tspan></text><text
           transform="matrix(1,0,0,-1,261.0876,564.5771)"
           style="font-variant:normal;font-weight:bold;font-stretch:normal;font-size:7px;font-family:Arial;-inkscape-font-specification:Arial-BoldMT;writing-mode:lr-tb;fill:#231f20;fill-opacity:1;fill-rule:nonzero;stroke:none"
           id="text446"><tspan
             x="0 5.0539999 9.3310003 12.054"
             y="0"
             sodipodi:role="line"
             id="tspan444">Core</tspan></text></g></g></g></svg>
