<svg xmlns="http://www.w3.org/2000/svg" xmlns:xlink="http://www.w3.org/1999/xlink" width="139.27" height="172.47" viewBox="0 0 139.27 172.47">
  <defs>
    <style>
      .cls-1, .cls-15, .cls-23, .cls-29, .cls-5 {
        fill: none;
      }

      .cls-1, .cls-15, .cls-17, .cls-20, .cls-23, .cls-5, .cls-6, .cls-7, .cls-8 {
        stroke: #000;
      }

      .cls-1, .cls-17, .cls-20, .cls-29, .cls-5, .cls-7, .cls-8 {
        stroke-width: 0.5px;
      }

      .cls-2, .cls-7 {
        fill: #fff;
      }

      .cls-3 {
        fill: url(#linear-gradient);
      }

      .cls-4, .cls-8 {
        fill: #b3e2ee;
      }

      .cls-17, .cls-20, .cls-23, .cls-24, .cls-5, .cls-6, .cls-7, .cls-8 {
        stroke-linejoin: round;
      }

      .cls-6 {
        fill: #f0f9fc;
      }

      .cls-15, .cls-24, .cls-6 {
        stroke-width: 0.3px;
      }

      .cls-9 {
        font-size: 9px;
        font-family: Humanist521BT-BoldCondensed, Humanst521 Cn BT;
      }

      .cls-30, .cls-9 {
        font-weight: 700;
      }

      .cls-10 {
        letter-spacing: -0.02em;
      }

      .cls-11 {
        font-size: 7px;
      }

      .cls-11, .cls-27 {
        font-family: ArialMT, Arial;
      }

      .cls-12 {
        fill: #fe8013;
      }

      .cls-13 {
        letter-spacing: -0.05em;
      }

      .cls-14 {
        letter-spacing: -0.1em;
      }

      .cls-15 {
        stroke-miterlimit: 10;
      }

      .cls-16 {
        fill: #9ec5d5;
      }

      .cls-17, .cls-22 {
        fill: #e0ecf1;
      }

      .cls-18 {
        fill: #6791a3;
      }

      .cls-19 {
        fill: #28708e;
        fill-rule: evenodd;
      }

      .cls-20 {
        fill: #92bfd1;
      }

      .cls-21 {
        fill: #2a8ea6;
      }

      .cls-23 {
        stroke-width: 0.75px;
      }

      .cls-24 {
        fill: #267520;
        stroke: #267520;
      }

      .cls-25 {
        fill: url(#linear-gradient-2);
      }

      .cls-26 {
        fill: url(#linear-gradient-3);
      }

      .cls-27 {
        font-size: 7.48px;
      }

      .cls-28 {
        fill: #f0f0f0;
      }

      .cls-29 {
        stroke: #a6a6a6;
      }

      .cls-30 {
        font-family: Arial-BoldMT, Arial;
      }
    </style>
    <linearGradient id="linear-gradient" x1="341.85" y1="721.31" x2="392.85" y2="721.31" gradientTransform="translate(835.81 -344.16) rotate(68.86)" gradientUnits="userSpaceOnUse">
      <stop offset="0" stop-color="#cbd8e2"/>
      <stop offset="1" stop-color="#9aa5b5"/>
    </linearGradient>
    <linearGradient id="linear-gradient-2" x1="44.1" y1="281.55" x2="82.39" y2="281.55" gradientTransform="translate(499.31 -6.95) rotate(45.85)" gradientUnits="userSpaceOnUse">
      <stop offset="0" stop-color="#5fb749"/>
      <stop offset="1" stop-color="#dbf1c6"/>
    </linearGradient>
    <linearGradient id="linear-gradient-3" x1="44.78" y1="281.55" x2="81.32" y2="281.55" gradientTransform="translate(499.31 -6.95) rotate(45.85)" gradientUnits="userSpaceOnUse">
      <stop offset="0" stop-color="#dbf1c6"/>
      <stop offset="1" stop-color="#5fb749"/>
    </linearGradient>
  </defs>
  <g id="Layer_2" data-name="Layer 2">
    <polyline class="cls-1" points="92.36 133.3 110.05 133.3 110.05 87.34"/>
    <g>
      <path class="cls-2" d="M311,236.29H275.22a.55.55,0,0,0-.55.55v30.44a.56.56,0,0,0,.55.56H311a.56.56,0,0,0,.54-.56V236.84A.54.54,0,0,0,311,236.29Z" transform="translate(-223.87 -118.01)"/>
      <path class="cls-3" d="M311.58,267.28a.56.56,0,0,1-.54.56H275.22a.56.56,0,0,1-.55-.56v-29.8a.55.55,0,0,1,.55-.54H311a.54.54,0,0,1,.54.54Z" transform="translate(-223.87 -118.01)"/>
      <path class="cls-4" d="M311.58,267.28a.56.56,0,0,1-.54.56H275.22a.56.56,0,0,1-.55-.56v-29.8a.55.55,0,0,1,.55-.54H311a.54.54,0,0,1,.54.54Z" transform="translate(-223.87 -118.01)"/>
      <path class="cls-5" d="M311,236.29H275.22a.55.55,0,0,0-.55.55v30.44a.56.56,0,0,0,.55.56H311a.56.56,0,0,0,.54-.56V236.84A.54.54,0,0,0,311,236.29Z" transform="translate(-223.87 -118.01)"/>
      <rect class="cls-6" x="52.94" y="120.75" width="32.64" height="25.11"/>
      <polyline class="cls-7" points="93.39 149.03 87.56 147.73 50.8 147.73 45.13 149.03"/>
      <path class="cls-8" d="M269,267s1.09,2.41,2.35,2.41h43.58c1.15,0,2.35-2.41,2.35-2.41Z" transform="translate(-223.87 -118.01)"/>
    </g>
    <text class="cls-9" transform="translate(0.87 160.93)"><tspan class="cls-10">P</tspan><tspan x="4.47" y="0">rogramm</tspan></text>
    <g>
      <path d="M322.21,279l-2-6.25h1.42l.65,2.36a4.79,4.79,0,0,1,.14.6c0,.14.05.28.07.41a2.61,2.61,0,0,1,.07-.42c0-.16.08-.35.15-.59l.65-2.36h1.42l-2,6.25Z" transform="translate(-223.87 -118.01)"/>
      <path d="M327.72,277.83v.8a3.79,3.79,0,0,1-.71.29,2.77,2.77,0,0,1-.68.09,1.85,1.85,0,0,1-1.43-.54,2.19,2.19,0,0,1-.51-1.55,2.48,2.48,0,0,1,.5-1.63,1.63,1.63,0,0,1,1.33-.61,1.43,1.43,0,0,1,1.19.56,2.48,2.48,0,0,1,.44,1.55.54.54,0,0,1,0,.11V277h-2.17v.05a1.12,1.12,0,0,0,.25.79,1,1,0,0,0,.73.28,2.14,2.14,0,0,0,.48-.07A4.34,4.34,0,0,0,327.72,277.83Zm-2.05-1.41h1v-.05a1.43,1.43,0,0,0-.12-.67.44.44,0,0,0-.76,0,1.23,1.23,0,0,0-.13.63Z" transform="translate(-223.87 -118.01)"/>
      <path d="M328.57,278.93v-4.16h1.17v1.38a3.73,3.73,0,0,1,.5-1.09.74.74,0,0,1,.58-.37,1.16,1.16,0,0,1,.37.07,1.3,1.3,0,0,1,.36.2l-.28,1.11a1,1,0,0,0-.24-.14.69.69,0,0,0-.24-.05c-.3,0-.54.22-.72.65a4.6,4.6,0,0,0-.27,1.74v.66Z" transform="translate(-223.87 -118.01)"/>
      <path d="M331.87,273.42a.7.7,0,0,1,.2-.5.71.71,0,0,1,1.21.5.71.71,0,0,1-1.41,0Zm.1,5.51v-4.16h1.21v4.16Z" transform="translate(-223.87 -118.01)"/>
      <path d="M334.15,278.93v-3.39h-.42v-.77h.42a.49.49,0,0,0,0-.11v-.1a2,2,0,0,1,.43-1.36,1.58,1.58,0,0,1,1.23-.47l.24,0,.23.05v.91h-.08l-.2,0a.59.59,0,0,0-.48.18.9.9,0,0,0-.15.58v.33h.49v.77h-.49v3.39Z" transform="translate(-223.87 -118.01)"/>
      <path d="M336.31,273.42a.67.67,0,0,1,.21-.5.66.66,0,0,1,.5-.21.72.72,0,0,1,.5.2.69.69,0,0,1,.2.51.64.64,0,0,1-.2.49.69.69,0,0,1-.5.21.67.67,0,0,1-.5-.21A.65.65,0,0,1,336.31,273.42Zm.1,5.51v-4.16h1.22v4.16Z" transform="translate(-223.87 -118.01)"/>
      <path d="M341.43,278.75a2.88,2.88,0,0,1-.56.2,2.6,2.6,0,0,1-.56.06,1.85,1.85,0,0,1-1.45-.58,2.22,2.22,0,0,1-.54-1.57,2.25,2.25,0,0,1,.54-1.59,1.84,1.84,0,0,1,1.45-.59,2.31,2.31,0,0,1,.52.06,3,3,0,0,1,.54.21v1a3.31,3.31,0,0,0-.47-.19,1.42,1.42,0,0,0-.38-.06.81.81,0,0,0-.68.32,1.33,1.33,0,0,0-.25.86,1.29,1.29,0,0,0,.25.85.87.87,0,0,0,.7.31,1.46,1.46,0,0,0,.4-.07,2.79,2.79,0,0,0,.49-.22Z" transform="translate(-223.87 -118.01)"/>
      <path d="M344.06,278.49a2.69,2.69,0,0,1-.58.42,1.34,1.34,0,0,1-.54.13,1,1,0,0,1-.75-.3,1,1,0,0,1-.29-.76,1.24,1.24,0,0,1,.47-1,5.3,5.3,0,0,1,1.63-.76v-.34a.31.31,0,0,0-.11-.25.57.57,0,0,0-.33-.08,1.83,1.83,0,0,0-.71.16,2.46,2.46,0,0,0-.67.45v-.95a2.74,2.74,0,0,1,.78-.43,2.41,2.41,0,0,1,.85-.14,1.49,1.49,0,0,1,1.06.31,1.4,1.4,0,0,1,.33,1v1.82a.19.19,0,0,0,0,.12.12.12,0,0,0,.09,0,.3.3,0,0,0,.13,0l.19-.1v.78a3.55,3.55,0,0,1-.53.31,1.16,1.16,0,0,1-.42.1.57.57,0,0,1-.4-.14A.78.78,0,0,1,344.06,278.49Zm-.06-.61v-1a2.17,2.17,0,0,0-.72.36.58.58,0,0,0-.22.45.49.49,0,0,0,.09.32.4.4,0,0,0,.29.1.7.7,0,0,0,.27-.06A1.46,1.46,0,0,0,344,277.88Z" transform="translate(-223.87 -118.01)"/>
      <path d="M347.31,273.48h.2v1.29h1.09v.77h-1.09v1.86a.7.7,0,0,0,.1.43.43.43,0,0,0,.35.13,1,1,0,0,0,.26,0l.42-.19v.94a2.45,2.45,0,0,1-.57.27,2.32,2.32,0,0,1-.58.08,1.16,1.16,0,0,1-.9-.33,1.51,1.51,0,0,1-.3-1v-2.12h-.55v-.17Z" transform="translate(-223.87 -118.01)"/>
      <path d="M349.09,273.42a.67.67,0,0,1,.21-.5.66.66,0,0,1,.5-.21.68.68,0,0,1,.7.71.68.68,0,0,1-.2.49.69.69,0,0,1-.5.21.67.67,0,0,1-.5-.21A.65.65,0,0,1,349.09,273.42Zm.1,5.51v-4.16h1.22v4.16Z" transform="translate(-223.87 -118.01)"/>
      <path d="M351.09,276.86a2.3,2.3,0,0,1,.52-1.6,2,2,0,0,1,2.84,0,2.67,2.67,0,0,1,0,3.18A1.85,1.85,0,0,1,353,279a1.83,1.83,0,0,1-1.42-.57A2.26,2.26,0,0,1,351.09,276.86Zm1.25,0a1.91,1.91,0,0,0,.18.93.57.57,0,0,0,1,0,2.52,2.52,0,0,0,0-1.87.56.56,0,0,0-.52-.33.55.55,0,0,0-.51.33A2,2,0,0,0,352.34,276.86Z" transform="translate(-223.87 -118.01)"/>
      <path d="M355.66,278.93v-4.16h1.2l0,.52a1.62,1.62,0,0,1,.54-.46,1.36,1.36,0,0,1,.65-.15,1,1,0,0,1,.89.42,1.93,1.93,0,0,1,.31,1.2v2.63h-1.22v-2.45a1.28,1.28,0,0,0-.11-.65.37.37,0,0,0-.36-.19.55.55,0,0,0-.38.15,1.39,1.39,0,0,0-.33.49v2.65Z" transform="translate(-223.87 -118.01)"/>
      <path d="M320.93,288.43v-6.14h1.38v2.91l1.43-2.91h1.38l-1.43,2.91,1.8,3.23H324l-1.64-2.92v2.92Z" transform="translate(-223.87 -118.01)"/>
      <path d="M328.9,287.33v.8a4.17,4.17,0,0,1-.72.29,2.77,2.77,0,0,1-.68.09,1.86,1.86,0,0,1-1.43-.54,2.19,2.19,0,0,1-.51-1.55,2.48,2.48,0,0,1,.5-1.63,1.64,1.64,0,0,1,1.33-.61,1.44,1.44,0,0,1,1.2.56,2.48,2.48,0,0,1,.43,1.55v.11s0,.08,0,.11h-2.17v.05a1.12,1.12,0,0,0,.26.79,1,1,0,0,0,.72.28,2.06,2.06,0,0,0,.48-.07A5,5,0,0,0,328.9,287.33Zm-2.06-1.41h1v-.05a1.3,1.3,0,0,0-.13-.67.4.4,0,0,0-.38-.22.42.42,0,0,0-.38.21,1.35,1.35,0,0,0-.13.63Z" transform="translate(-223.87 -118.01)"/>
      <path d="M329.5,290.48l1.08-2.83-1.4-3.38h1.28l.75,1.86.71-1.86h1.26l-2.44,6.21Z" transform="translate(-223.87 -118.01)"/>
    </g>
    <text class="cls-11" transform="translate(59.19 142.05)">Selma</text>
    <g>
      <path class="cls-12" d="M298.91,247.13a5.91,5.91,0,1,1-5.91-5.91A5.92,5.92,0,0,1,298.91,247.13Z" transform="translate(-223.87 -118.01)"/>
      <path class="cls-2" d="M295.47,247.83a1.38,1.38,0,0,0-.69-.6,1.07,1.07,0,0,0,.79-1,1.18,1.18,0,0,0-.07-.54,1,1,0,0,0-.3-.41,2.39,2.39,0,0,0-.46-.29,3.48,3.48,0,0,0-.6-.21l.2-1.12-.68-.12-.2,1.08-.54-.09.2-1.09-.67-.13-.21,1.12-.43-.08-.94-.18-.13.73.49.09a.36.36,0,0,1,.34.37l-.24,1.27h0l-.33,1.78a.25.25,0,0,1-.29.18l-.5-.09-.28.78.88.16.25.05.23,0-.21,1.12.68.13.21-1.12.54.11-.21,1.11.69.12.2-1.12a5.57,5.57,0,0,0,.66,0,3.43,3.43,0,0,0,.56,0,1.6,1.6,0,0,0,.48-.18,1.64,1.64,0,0,0,.36-.34,1.85,1.85,0,0,0,.24-.53,1.3,1.3,0,0,0,0-1Zm-2.68-2.54.17,0,.24,0a1.91,1.91,0,0,1,.26,0l.26.09.23.12a.62.62,0,0,1,.19.16.51.51,0,0,1,.1.21.6.6,0,0,1,0,.27.83.83,0,0,1-.08.22.54.54,0,0,1-.15.15l-.19.08a.71.71,0,0,1-.23.05h-.23a1.19,1.19,0,0,1-.25,0l-.22,0-.21,0-.15,0,.25-1.36Zm1.3,3.36a.67.67,0,0,1-.14.15.42.42,0,0,1-.2.1l-.23.06H293l-.26,0-.24,0-.21,0-.16,0,.27-1.49.21,0a1.55,1.55,0,0,1,.29,0l.3.06a2.33,2.33,0,0,1,.32.11,1.11,1.11,0,0,1,.27.13.62.62,0,0,1,.23.18.65.65,0,0,1,.13.23.61.61,0,0,1,0,.3.53.53,0,0,1-.08.22Zm0,0" transform="translate(-223.87 -118.01)"/>
    </g>
    <text class="cls-11" transform="translate(0 26.57)">https://bitcoincore.org</text>
    <text class="cls-9" transform="translate(54.17 46.99)">Signatur</text>
    <text class="cls-9" transform="translate(78.65 7.57)">Hol dir den<tspan class="cls-13" x="0" y="9.5">V</tspan><tspan x="3.78" y="9.5">erification Key</tspan><tspan x="0" y="19">von irgendwohe</tspan><tspan class="cls-14" x="55.94" y="19">r</tspan><tspan x="58.43" y="19">.</tspan></text>
    <g>
      <path class="cls-15" d="M254.76,155.18c0-2.88,2.51-6.21,2.51-9.13" transform="translate(-223.87 -118.01)"/>
      <polygon points="32.75 36.62 30.88 39.86 29.01 36.62 32.75 36.62"/>
    </g>
    <g>
      <path class="cls-15" d="M333.92,155.18c0-2.88-2.71-5.48-2.71-8.39" transform="translate(-223.87 -118.01)"/>
      <polygon points="111.91 36.62 110.04 39.86 108.17 36.62 111.91 36.62"/>
    </g>
    <g>
      <path class="cls-15" d="M300,184.79c1.5-5.75,1.25-13.5-3.25-17.75" transform="translate(-223.87 -118.01)"/>
      <polygon points="78.03 66.72 75.41 69.38 74.41 65.78 78.03 66.72"/>
    </g>
    <g>
      <path class="cls-15" d="M245.46,236.64c0,10.75-6.67,21.38-6.67,35.75" transform="translate(-223.87 -118.01)"/>
      <polygon points="19.73 119.18 21.6 115.94 23.47 119.18 19.73 119.18"/>
    </g>
    <g>
      <path class="cls-15" d="M342.79,249.31c0,6.66-2.66,14.91-2.66,21.33" transform="translate(-223.87 -118.01)"/>
      <polygon points="117.07 131.85 118.94 128.61 120.81 131.85 117.07 131.85"/>
    </g>
    <g>
      <rect class="cls-16" x="100.18" y="42.92" width="19.75" height="44.39"/>
      <rect class="cls-2" x="100.18" y="61.27" width="19.75" height="0.66"/>
      <rect class="cls-2" x="100.18" y="55.41" width="19.75" height="0.66"/>
      <rect class="cls-2" x="100.18" y="49.77" width="19.75" height="0.66"/>
      <rect class="cls-2" x="100.18" y="44.95" width="19.75" height="0.66"/>
      <line class="cls-1" x1="100.18" y1="61.11" x2="119.93" y2="61.11"/>
      <line class="cls-1" x1="100.18" y1="84.44" x2="119.93" y2="84.44"/>
      <line class="cls-1" x1="100.18" y1="55.25" x2="119.93" y2="55.25"/>
      <line class="cls-1" x1="100.18" y1="49.62" x2="119.93" y2="49.62"/>
      <line class="cls-1" x1="100.18" y1="44.79" x2="119.93" y2="44.79"/>
      <polygon points="113.28 55.25 106.83 55.25 107.08 56.16 113.03 56.16 113.28 55.25"/>
      <rect class="cls-5" x="100.18" y="42.92" width="19.75" height="44.39"/>
      <polygon class="cls-17" points="119.93 42.92 100.18 42.92 102.25 41.43 117.85 41.43 119.93 42.92"/>
    </g>
    <g>
      <path class="cls-18" d="M333.92,193.05a2.72,2.72,0,1,1,2.71-2.72A2.71,2.71,0,0,1,333.92,193.05Zm0-5a2.26,2.26,0,1,0,2.25,2.25A2.26,2.26,0,0,0,333.92,188.08Z" transform="translate(-223.87 -118.01)"/>
      <rect class="cls-18" x="109.82" y="70.49" width="0.46" height="1.84"/>
      <path class="cls-18" d="M334.42,188.83v.49a1.13,1.13,0,0,1,.62,1,1.13,1.13,0,1,1-2.25,0,1.14,1.14,0,0,1,.63-1v-.49a1.58,1.58,0,1,0,1,0Z" transform="translate(-223.87 -118.01)"/>
    </g>
    <path class="cls-19" d="M295,203c2.35,1.07,4.28-.88,6.24-1.24.48.54-.08,1.65.2,2.28,1.42,1,4.19.65,5.24,2.07-.62.49-1.47-.31-2.57-.62-1.9-.54-4-.21-3.27-3-1.7.8-4.55,2.29-6.53.93a13.7,13.7,0,0,1-2,1c-.78,1.66-1.44,3.46-2.08,5.28-1.37-.49-1.41-2.38-3.06-2.59a5,5,0,0,0-.5,1.55c.39.11.8-1.14,1.39-.83,0,.8-.85,1.46-1.59,1.76-.81-.52-.18-1.69,0-2.58a10,10,0,0,1-6.23,2,5.57,5.57,0,0,1-2.87-.83c-1.8-1.34-1.32-4.86-.1-6.51s2.74-2.08,4.55-2.59a25.47,25.47,0,0,0,1.29-3.1c.56,0,.71-.15.89-.72,2.93-1.15,6.31-1.82,8.71-3.52-3,.56-6.37,1.57-9.5,2.48a6.7,6.7,0,0,1-3,.62c.11-.61.93-.69,1.38-.82,1.57-.48,3.33-1,5-1.45,2.24-.65,4.64-1.57,6.93-1.35.06,1.08-1.08,1.39-1.78,1.76-2.16,1.12-5.11,1.92-7.52,2.9.4,1.34,1.39,2.06,2.17,3a18.31,18.31,0,0,1,3.47.42c1.18-1.43,2.15-3.34,3.26-5,.3-.43.71-1.18,1.29-1.13-.19,1.2-1.2,2.07-1.88,3.1s-1.26,2.16-1.88,3.21c.73.51,1.92.54,2.17,1.55-.89.2-1.49-.77-2.37-.93-1.27,1.53-1.95,3.68-2.87,5.58a21.8,21.8,0,0,0,4.26-1.65c.56-1.29,1.33-2.12,1.48-3.93.26-3.25,2.25-5.15,4.16-6.83a5.47,5.47,0,0,1,.59-1.24c.38-.09.35.25.59.31a14.9,14.9,0,0,1,9.11-2.17c.61.05,2,.22,2,1,0,1.31-2.11,2.82-3.07,3.62A112.72,112.72,0,0,1,295,203Zm10.39-12.1c-2.71.23-6,1.1-7.42,2.79-.85,1-1.26,2.51-2,3.83s-2.55,3.53-1.58,5.07a106.55,106.55,0,0,0,11.68-8c1.14-.94,2.54-2,3.07-3.52A8.55,8.55,0,0,0,305.41,190.91Zm-11.18,8.69c.6-1.54,1.78-3,2.18-4.45C295.5,196.37,294.31,197.85,294.23,199.6ZM282.65,199c.88-.19,2-.08,2.87-.31a16.28,16.28,0,0,1-1.88-2.38C283.39,197.27,283,198.05,282.65,199Zm-.19.62a11.52,11.52,0,0,0-.8,2.58c-.22.84-.27,2-1,2.38-.25-1.41.64-3.29,1-4.75-2.69.54-4.93,2.58-4.85,5.58.07,2.23,1.73,3,4.06,3,4.94,0,8.55-4.46,5.25-8.89A17,17,0,0,0,282.46,199.6Zm5.64,3.72c.53-1.17,1.11-2.29,1.68-3.41a19.25,19.25,0,0,0-2.87-.41A10.59,10.59,0,0,1,288.1,203.32Zm4.84.11a4.14,4.14,0,0,0,.9-.42c-.07-.3,0-.73-.3-.83C293.38,202.64,293.12,203,292.94,203.43Zm-5.44,3.2c1.33.24,1.79,1.38,2.58,2.18a10.25,10.25,0,0,1,1.38-3.63c0-.12,0-.24-.2-.2C290.23,205.76,288.61,205.93,287.5,206.63Z" transform="translate(-223.87 -118.01)"/>
    <g>
      <polygon class="cls-17" points="41.34 42.84 20.22 42.84 22.36 41.31 39.2 41.31 41.34 42.84"/>
      <rect class="cls-20" x="20.22" y="42.84" width="21.12" height="44.46"/>
      <rect class="cls-21" x="21.52" y="44.15" width="18.52" height="41.86"/>
      <rect class="cls-22" x="21.52" y="44.15" width="18.52" height="0.76"/>
      <rect class="cls-22" x="21.52" y="48.33" width="18.52" height="0.76"/>
      <rect class="cls-22" x="21.52" y="52.51" width="18.52" height="0.76"/>
      <rect class="cls-22" x="21.52" y="56.68" width="18.52" height="0.76"/>
      <rect class="cls-22" x="21.52" y="60.87" width="18.52" height="0.76"/>
      <rect class="cls-22" x="21.52" y="65.05" width="18.52" height="0.76"/>
      <rect class="cls-22" x="21.52" y="69.22" width="18.52" height="0.76"/>
      <rect class="cls-22" x="21.52" y="73.4" width="18.52" height="0.76"/>
      <rect class="cls-22" x="21.52" y="77.58" width="18.52" height="0.76"/>
      <rect class="cls-22" x="21.52" y="81.76" width="18.52" height="0.76"/>
      <line class="cls-5" x1="40.04" y1="81.82" x2="21.52" y2="81.82"/>
      <line class="cls-5" x1="40.04" y1="77.64" x2="21.52" y2="77.64"/>
      <line class="cls-5" x1="40.04" y1="73.45" x2="21.52" y2="73.45"/>
      <line class="cls-5" x1="40.04" y1="69.26" x2="21.52" y2="69.26"/>
      <line class="cls-5" x1="40.04" y1="65.08" x2="21.52" y2="65.08"/>
      <line class="cls-5" x1="40.04" y1="60.89" x2="21.52" y2="60.89"/>
      <line class="cls-5" x1="40.04" y1="56.7" x2="21.52" y2="56.7"/>
      <line class="cls-5" x1="40.04" y1="52.52" x2="21.52" y2="52.52"/>
      <line class="cls-5" x1="40.04" y1="48.33" x2="21.52" y2="48.33"/>
      <rect class="cls-5" x="21.52" y="44.15" width="18.52" height="41.86"/>
      <rect class="cls-16" x="22.24" y="49.64" width="9.17" height="2.01"/>
      <rect class="cls-16" x="22.24" y="53.81" width="9.17" height="2.01"/>
      <rect class="cls-16" x="22.24" y="58" width="9.17" height="2.01"/>
      <rect class="cls-16" x="22.24" y="62.17" width="9.17" height="2.01"/>
      <rect class="cls-16" x="22.24" y="66.35" width="9.17" height="2.01"/>
      <rect class="cls-16" x="22.24" y="70.53" width="9.17" height="2.01"/>
      <rect class="cls-16" x="22.24" y="74.71" width="9.17" height="2.01"/>
      <rect class="cls-16" x="22.24" y="78.89" width="9.17" height="2.01"/>
      <rect class="cls-16" x="22.24" y="83.07" width="9.17" height="2.01"/>
      <rect class="cls-16" x="22.24" y="45.45" width="9.17" height="2.01"/>
      <path class="cls-16" d="M262.91,164.46a.47.47,0,1,1-.47-.47A.47.47,0,0,1,262.91,164.46Z" transform="translate(-223.87 -118.01)"/>
      <path class="cls-16" d="M262.91,168.65a.47.47,0,1,1-.47-.47A.47.47,0,0,1,262.91,168.65Z" transform="translate(-223.87 -118.01)"/>
      <path class="cls-16" d="M262.91,172.83a.47.47,0,1,1-.47-.46A.47.47,0,0,1,262.91,172.83Z" transform="translate(-223.87 -118.01)"/>
      <path class="cls-16" d="M262.91,177a.47.47,0,1,1-.47-.47A.47.47,0,0,1,262.91,177Z" transform="translate(-223.87 -118.01)"/>
      <path class="cls-16" d="M262.91,181.2a.47.47,0,1,1-.47-.46A.47.47,0,0,1,262.91,181.2Z" transform="translate(-223.87 -118.01)"/>
      <path class="cls-16" d="M262.91,185.39a.47.47,0,1,1-.47-.47A.48.48,0,0,1,262.91,185.39Z" transform="translate(-223.87 -118.01)"/>
      <path class="cls-16" d="M262.91,189.57a.47.47,0,1,1-.93,0,.47.47,0,0,1,.93,0Z" transform="translate(-223.87 -118.01)"/>
      <path class="cls-16" d="M262.91,193.76a.47.47,0,1,1-.47-.46A.47.47,0,0,1,262.91,193.76Z" transform="translate(-223.87 -118.01)"/>
      <path class="cls-16" d="M262.91,198a.47.47,0,1,1-.47-.47A.47.47,0,0,1,262.91,198Z" transform="translate(-223.87 -118.01)"/>
      <path class="cls-16" d="M262.91,202.14a.47.47,0,1,1-.47-.47A.47.47,0,0,1,262.91,202.14Z" transform="translate(-223.87 -118.01)"/>
    </g>
    <polyline class="cls-1" points="46.16 133.3 30.78 133.3 30.78 87.4"/>
    <path d="M271.93,251.91c-.95.29-1.57.55-2.33.85v-2.9a22,22,0,0,0,2.32.87,17.55,17.55,0,0,0,2.54.6A17,17,0,0,0,271.93,251.91Z" transform="translate(-223.87 -118.01)"/>
    <path d="M314.32,251.91c1,.29,1.57.55,2.34.85v-2.9a22.43,22.43,0,0,1-2.33.87,17.78,17.78,0,0,1-2.53.6A17,17,0,0,1,314.32,251.91Z" transform="translate(-223.87 -118.01)"/>
    <line class="cls-1" x1="69.11" y1="113.6" x2="69.11" y2="92.63"/>
    <polyline class="cls-1" points="69.11 71.13 69.11 65.08 41.34 65.08"/>
    <path d="M293.59,233.51a23,23,0,0,1,.85-2.34h-2.91a23.39,23.39,0,0,1,.87,2.33,17.55,17.55,0,0,1,.6,2.54A15.83,15.83,0,0,1,293.59,233.51Z" transform="translate(-223.87 -118.01)"/>
    <g>
      <path class="cls-23" d="M354.74,244,341.67,230.5A8.53,8.53,0,0,0,328,220.82l-.2.21-.22.2a8.53,8.53,0,0,0,8.58,14.18l1.09,1.12a2,2,0,0,1,2.68,2.75l1.19,1.24a2,2,0,0,1,2.68,2.75l1.2,1.24a2,2,0,0,1,2.67,2.75l.83.86,6.72-.35.42-.41Z" transform="translate(-223.87 -118.01)"/>
      <path class="cls-24" d="M355.66,247.36l-14.41-16.45a8.43,8.43,0,1,0-5.07,4.5l1.09,1.12a2,2,0,0,1,2.68,2.75l1.19,1.24a2,2,0,0,1,2.68,2.75l1.2,1.24a2,2,0,0,1,2.67,2.75l.83.86,6.72-.35Z" transform="translate(-223.87 -118.01)"/>
      <path class="cls-25" d="M354.74,244,341.67,230.5a8.43,8.43,0,1,0-5.07,4.5l1.09,1.12a2,2,0,0,1,2.68,2.76l1.19,1.23a1.86,1.86,0,0,1,2.37.38,1.81,1.81,0,0,1,.3,2.37l1.21,1.24a1.86,1.86,0,0,1,2.37.38,1.84,1.84,0,0,1,.3,2.37l.83.87,6.72-.36Z" transform="translate(-223.87 -118.01)"/>
      <path class="cls-26" d="M328.4,232.32a7.74,7.74,0,1,1,12.64-2.1l-.19.42,13.28,13.67.65,2.41-5.56.3-.27-.28a2.76,2.76,0,0,0-3.37-3.48l-.5-.51a2.76,2.76,0,0,0-3.38-3.47l-.49-.52a2.76,2.76,0,0,0-3.38-3.47l-1-1.07-.41.13A7.78,7.78,0,0,1,328.4,232.32Z" transform="translate(-223.87 -118.01)"/>
      <path class="cls-2" d="M338.64,231.76a6.73,6.73,0,1,1,.14-9.52A6.72,6.72,0,0,1,338.64,231.76Z" transform="translate(-223.87 -118.01)"/>
      <text class="cls-27" transform="translate(103.54 106.02) rotate(45.85)">Pub</text>
    </g>
    <g>
      <g>
        <rect class="cls-28" x="2.22" y="100.47" width="54.04" height="12.83" rx="1.5"/>
        <rect class="cls-29" x="2.22" y="100.47" width="54.04" height="12.83" rx="1.5"/>
      </g>
      <g>
        <path class="cls-12" d="M237.59,224.89a4.8,4.8,0,1,1-4.8-4.79A4.8,4.8,0,0,1,237.59,224.89Z" transform="translate(-223.87 -118.01)"/>
        <path class="cls-2" d="M234.79,225.45a1.1,1.1,0,0,0-.55-.48.88.88,0,0,0,.64-.84,1,1,0,0,0-.06-.43.88.88,0,0,0-.24-.34,1.6,1.6,0,0,0-.38-.23,2.67,2.67,0,0,0-.48-.18l.16-.9-.55-.1-.16.88-.44-.08.16-.88-.55-.1-.16.9-.35-.06-.76-.15-.11.59.4.08a.28.28,0,0,1,.27.3l-.19,1h0l-.27,1.44a.19.19,0,0,1-.24.14l-.4-.07-.23.63.72.14.2,0,.19,0-.17.92.55.1.17-.91a3.27,3.27,0,0,0,.44.09l-.17.9.55.1.17-.91a3.49,3.49,0,0,0,.53,0,2.32,2.32,0,0,0,.46,0,1,1,0,0,0,.38-.15.93.93,0,0,0,.29-.27,1.14,1.14,0,0,0,.2-.43,1,1,0,0,0,0-.8Zm-2.17-2,.14,0,.2,0,.2,0,.22.07.19.1a.64.64,0,0,1,.15.13.67.67,0,0,1,.08.17.54.54,0,0,1,0,.22,1,1,0,0,1-.07.18.25.25,0,0,1-.12.11l-.15.08a.54.54,0,0,1-.19,0h-.19l-.2,0-.18,0-.17,0-.12,0,.2-1.1Zm1.06,2.72a.46.46,0,0,1-.12.12.27.27,0,0,1-.16.08.61.61,0,0,1-.18.05h-.42l-.21,0-.19,0-.17,0-.14,0,.23-1.21.17,0,.23,0,.24,0,.26.08.23.12a.66.66,0,0,1,.18.14.44.44,0,0,1,.1.19.39.39,0,0,1,0,.24.48.48,0,0,1-.06.18Zm0,0" transform="translate(-223.87 -118.01)"/>
      </g>
      <text class="cls-11" transform="translate(16.21 109.42)">Bitcoin<tspan class="cls-30" x="21.01" y="0">Core</tspan></text>
    </g>
  </g>
</svg>
