<svg xmlns="http://www.w3.org/2000/svg" xmlns:xlink="http://www.w3.org/1999/xlink" width="124.74" height="125.38" viewBox="0 0 124.74 125.38">
  <defs>
    <style>
      .cls-1, .cls-13, .cls-6 {
        fill: #fff;
      }

      .cls-2 {
        fill: url(#linear-gradient);
      }

      .cls-3, .cls-7 {
        fill: #b3e2ee;
      }

      .cls-12, .cls-15, .cls-4 {
        fill: none;
      }

      .cls-12, .cls-13, .cls-4, .cls-5, .cls-6, .cls-7 {
        stroke: #000;
      }

      .cls-4, .cls-5, .cls-6, .cls-7 {
        stroke-linejoin: round;
      }

      .cls-12, .cls-13, .cls-15, .cls-4, .cls-6, .cls-7 {
        stroke-width: 0.5px;
      }

      .cls-5 {
        fill: #f0f9fc;
        stroke-width: 0.3px;
      }

      .cls-8 {
        fill: url(#linear-gradient-2);
      }

      .cls-14, .cls-9 {
        font-size: 7px;
      }

      .cls-9 {
        font-family: ArialMT, Arial;
      }

      .cls-10 {
        fill: #fe8013;
      }

      .cls-11 {
        fill: url(#linear-gradient-3);
      }

      .cls-13 {
        stroke-dasharray: 2 1;
      }

      .cls-14 {
        font-family: FreeMono;font-phase: bold;
      }

      .cls-15 {
        stroke: gray;
      }

      .cls-16 {
        fill: gray;
      }
    </style>
    <linearGradient id="linear-gradient" x1="264.36" y1="712.54" x2="305.66" y2="712.54" gradientTransform="translate(835.81 -344.16) rotate(68.86)" gradientUnits="userSpaceOnUse">
      <stop offset="0" stop-color="#cbd8e2"/>
      <stop offset="1" stop-color="#9aa5b5"/>
    </linearGradient>
    <linearGradient id="linear-gradient-2" x1="354.17" y1="710.13" x2="405.16" y2="710.13" xlink:href="#linear-gradient"/>
    <linearGradient id="linear-gradient-3" x1="290.18" y1="645.77" x2="331.48" y2="645.77" xlink:href="#linear-gradient"/>
  </defs>
  <g id="Layer_2" data-name="Layer 2">
    <g>
      <path class="cls-1" d="M286.57,160.57h-29a.44.44,0,0,0-.44.45v24.66a.45.45,0,0,0,.44.45h29a.45.45,0,0,0,.45-.45V161A.45.45,0,0,0,286.57,160.57Z" transform="translate(-245.42 -151.76)"/>
      <path class="cls-2" d="M287,185.68a.45.45,0,0,1-.45.45h-29a.45.45,0,0,1-.44-.45V161.54a.44.44,0,0,1,.44-.44h29a.45.45,0,0,1,.45.44Z" transform="translate(-245.42 -151.76)"/>
      <path class="cls-3" d="M287,185.68a.45.45,0,0,1-.45.45h-29a.45.45,0,0,1-.44-.45V161.54a.44.44,0,0,1,.44-.44h29a.45.45,0,0,1,.45.44Z" transform="translate(-245.42 -151.76)"/>
      <path class="cls-4" d="M286.57,160.57h-29a.44.44,0,0,0-.44.45v24.66a.45.45,0,0,0,.44.45h29a.45.45,0,0,0,.45-.45V161A.45.45,0,0,0,286.57,160.57Z" transform="translate(-245.42 -151.76)"/>
      <rect class="cls-5" x="13.43" y="10.81" width="26.44" height="20.34"/>
      <polyline class="cls-6" points="46.2 33.72 41.47 32.67 11.7 32.67 7.11 33.72"/>
      <path class="cls-7" d="M252.51,185.47s.89,1.95,1.9,1.95h35.3c.94,0,1.91-1.95,1.91-1.95Z" transform="translate(-245.42 -151.76)"/>
    </g>
    <g>
      <path class="cls-1" d="M325.91,243.74H290.09a.55.55,0,0,0-.55.55v30.44a.56.56,0,0,0,.55.56h35.82a.56.56,0,0,0,.55-.56V244.29A.55.55,0,0,0,325.91,243.74Z" transform="translate(-245.42 -151.76)"/>
      <path class="cls-8" d="M326.46,274.73a.56.56,0,0,1-.55.56H290.09a.56.56,0,0,1-.55-.56V244.94a.55.55,0,0,1,.55-.55h35.82a.55.55,0,0,1,.55.55Z" transform="translate(-245.42 -151.76)"/>
      <path class="cls-3" d="M326.46,274.73a.56.56,0,0,1-.55.56H290.09a.56.56,0,0,1-.55-.56V244.94a.55.55,0,0,1,.55-.55h35.82a.55.55,0,0,1,.55.55Z" transform="translate(-245.42 -151.76)"/>
      <path class="cls-4" d="M325.91,243.74H290.09a.55.55,0,0,0-.55.55v30.44a.56.56,0,0,0,.55.56h35.82a.56.56,0,0,0,.55-.56V244.29A.55.55,0,0,0,325.91,243.74Z" transform="translate(-245.42 -151.76)"/>
      <rect class="cls-5" x="46.26" y="94.45" width="32.64" height="25.11"/>
      <polyline class="cls-6" points="86.71 122.73 80.88 121.44 44.13 121.44 38.45 122.73"/>
      <path class="cls-7" d="M283.86,274.49s1.1,2.4,2.35,2.4h43.58c1.15,0,2.35-2.4,2.35-2.4Z" transform="translate(-245.42 -151.76)"/>
    </g>
    <text class="cls-9" transform="translate(52.52 115.76)">Selma</text>
    <g>
      <path class="cls-10" d="M313.78,254.59a5.91,5.91,0,1,1-5.91-5.91A5.91,5.91,0,0,1,313.78,254.59Z" transform="translate(-245.42 -151.76)"/>
      <path class="cls-1" d="M310.34,255.28a1.32,1.32,0,0,0-.69-.59,1.08,1.08,0,0,0,.79-1,1,1,0,0,0-.07-.53.93.93,0,0,0-.3-.41,1.56,1.56,0,0,0-.46-.29,3.45,3.45,0,0,0-.6-.22l.2-1.11-.67-.13-.21,1.08-.54-.09.21-1.09-.68-.12-.21,1.11-.43-.08-.93-.17-.14.72.49.09a.36.36,0,0,1,.34.38l-.23,1.26.06,0h-.07l-.32,1.77a.24.24,0,0,1-.3.18l-.49-.09-.29.78.88.17.25,0,.24,0-.21,1.12.68.13.2-1.11.54.1-.2,1.11.68.13.2-1.13a5.73,5.73,0,0,0,.66.05,2.09,2.09,0,0,0,.56-.05,1.5,1.5,0,0,0,.48-.18,1.27,1.27,0,0,0,.36-.34,1.73,1.73,0,0,0,.24-.53,1.3,1.3,0,0,0,0-1Zm-2.68-2.53.17,0,.25,0,.25.06.26.08a1.27,1.27,0,0,1,.23.12.64.64,0,0,1,.19.16.5.5,0,0,1,.1.22.46.46,0,0,1,0,.26.48.48,0,0,1-.08.22.43.43,0,0,1-.15.15.66.66,0,0,1-.19.09.53.53,0,0,1-.23,0h-.23l-.25,0-.22,0-.21,0-.15,0,.25-1.36Zm1.3,3.35a.44.44,0,0,1-.14.16.75.75,0,0,1-.2.1l-.23.05-.25,0h-.26l-.26,0-.24,0-.21,0-.16,0,.27-1.49.22,0,.28.05.3.07a2.49,2.49,0,0,1,.32.1,2.28,2.28,0,0,1,.28.13.9.9,0,0,1,.23.19.71.71,0,0,1,.12.23.57.57,0,0,1,0,.29.63.63,0,0,1-.09.22Zm0,0" transform="translate(-245.42 -151.76)"/>
    </g>
    <text class="cls-9" transform="translate(23.03 23.4)">Qi</text>
    <g>
      <path class="cls-1" d="M358.16,160.57h-29a.45.45,0,0,0-.44.45v24.65a.45.45,0,0,0,.44.46h29a.45.45,0,0,0,.44-.46V161A.45.45,0,0,0,358.16,160.57Z" transform="translate(-245.42 -151.76)"/>
      <path class="cls-11" d="M358.6,185.67a.45.45,0,0,1-.44.46h-29a.45.45,0,0,1-.44-.46V161.54a.44.44,0,0,1,.44-.44h29a.44.44,0,0,1,.44.44Z" transform="translate(-245.42 -151.76)"/>
      <path class="cls-3" d="M358.6,185.67a.45.45,0,0,1-.44.46h-29a.45.45,0,0,1-.44-.46V161.54a.44.44,0,0,1,.44-.44h29a.44.44,0,0,1,.44.44Z" transform="translate(-245.42 -151.76)"/>
      <path class="cls-4" d="M358.16,160.57h-29a.45.45,0,0,0-.44.45v24.65a.45.45,0,0,0,.44.46h29a.45.45,0,0,0,.44-.46V161A.45.45,0,0,0,358.16,160.57Z" transform="translate(-245.42 -151.76)"/>
      <rect class="cls-5" x="85.02" y="10.81" width="26.44" height="20.34"/>
      <polyline class="cls-6" points="117.78 33.72 113.06 32.67 83.28 32.67 78.69 33.72"/>
      <path class="cls-7" d="M324.1,185.47s.89,1.95,1.9,1.95h35.3c.93,0,1.91-1.95,1.91-1.95Z" transform="translate(-245.42 -151.76)"/>
    </g>
    <text class="cls-9" transform="translate(87.73 23.4)">Rashid</text>
    <path d="M298.46,152.38h-1.23a.32.32,0,0,1-.08.23.29.29,0,0,1-.38,0,.41.41,0,0,1-.07-.27v-.48H299v.54l-.87,2.57a.61.61,0,0,1-.12.22.25.25,0,0,1-.16.06.27.27,0,0,1-.2-.09.23.23,0,0,1-.07-.17.54.54,0,0,1,0-.19Zm-4.19,1.84a.9.9,0,0,0,.22.43.72.72,0,0,0,.42.11.5.5,0,0,0,.4-.14.47.47,0,0,0,.15-.37.64.64,0,0,0-.17-.45.5.5,0,0,0-.37-.19.55.55,0,0,0-.34.17A1.27,1.27,0,0,0,294.27,154.22Zm-.07-.82a1.05,1.05,0,0,1,.37-.24,1,1,0,0,1,.37-.08,1,1,0,0,1,.73.33,1.19,1.19,0,0,1,.32.84,1,1,0,0,1-.3.76,1.08,1.08,0,0,1-.79.29,1.15,1.15,0,0,1-.69-.19,1.33,1.33,0,0,1-.42-.61,2.86,2.86,0,0,1-.13-.91,1.76,1.76,0,0,1,.27-1,2.08,2.08,0,0,1,.65-.61,1.49,1.49,0,0,1,.78-.22.92.92,0,0,1,.51.12.28.28,0,0,1,.12.22.29.29,0,0,1-.09.21.24.24,0,0,1-.18.07.42.42,0,0,1-.18-.06.27.27,0,0,0-.14,0,1.13,1.13,0,0,0-.53.15,1.23,1.23,0,0,0-.47.44A1.5,1.5,0,0,0,294.2,153.4Zm-3.15-1V153a1.78,1.78,0,0,1,.53-.09,1.09,1.09,0,0,1,.82.33,1.18,1.18,0,0,1,.33.87,1.14,1.14,0,0,1-.34.86,1.38,1.38,0,0,1-1,.32,1.73,1.73,0,0,1-.95-.23.37.37,0,0,1-.21-.3.27.27,0,0,1,.08-.19.24.24,0,0,1,.19-.08.26.26,0,0,1,.2.09.65.65,0,0,0,.22.11,1.27,1.27,0,0,0,.43.06,1.07,1.07,0,0,0,.67-.16.6.6,0,0,0,.18-.47.67.67,0,0,0-.18-.5.57.57,0,0,0-.44-.18,1.6,1.6,0,0,0-.66.19.31.31,0,0,1-.15,0,.27.27,0,0,1-.19-.08.33.33,0,0,1-.08-.22v-1.54h1.64a.32.32,0,0,1,.27.09.23.23,0,0,1,.09.18.25.25,0,0,1-.09.2.36.36,0,0,1-.27.08Zm-2.51,1.55v-1.31l-.79,1.32Zm.53-2.09v2.09a.36.36,0,0,1,.25.08.21.21,0,0,1,.08.18.23.23,0,0,1-.08.2.36.36,0,0,1-.25.08v.21a.36.36,0,0,1,.25.08.22.22,0,0,1,.08.18.23.23,0,0,1-.08.2.41.41,0,0,1-.28.08h-.71a.41.41,0,0,1-.28-.08A.22.22,0,0,1,288,155a.23.23,0,0,1,.09-.19.41.41,0,0,1,.28-.07h.21v-.22h-1.46V154l1.28-2.18ZM285.49,155a.32.32,0,0,1-.12.25.38.38,0,0,1-.29.11.4.4,0,0,1-.29-.11.34.34,0,0,1-.11-.25.33.33,0,0,1,.11-.25.39.39,0,0,1,.29-.1.38.38,0,0,1,.29.1A.3.3,0,0,1,285.49,155Zm0-1.75a.36.36,0,0,1-.11.26.42.42,0,0,1-.29.09.47.47,0,0,1-.3-.09.36.36,0,0,1-.11-.26.34.34,0,0,1,.11-.25.47.47,0,0,1,.3-.11.38.38,0,0,1,.29.11A.34.34,0,0,1,285.48,153.22Zm-2.85.23a1.08,1.08,0,0,1,.36.38,1,1,0,0,1,.11.47,1,1,0,0,1-.15.53,1,1,0,0,1-.45.36,1.87,1.87,0,0,1-.77.13,1.67,1.67,0,0,1-.93-.2.31.31,0,0,1-.18-.26.32.32,0,0,1,.07-.19.29.29,0,0,1,.19-.08.37.37,0,0,1,.16,0,.76.76,0,0,0,.22.11,2.26,2.26,0,0,0,.42,0,1.42,1.42,0,0,0,.68-.12.38.38,0,0,0,.21-.34.47.47,0,0,0-.12-.31.68.68,0,0,0-.33-.24,1.23,1.23,0,0,0-.39-.08.27.27,0,0,1-.21-.07.34.34,0,0,1-.07-.19.27.27,0,0,1,.08-.19.28.28,0,0,1,.2-.08H282l.21-.06a.44.44,0,0,0,.16-.17.37.37,0,0,0,.08-.21.38.38,0,0,0-.16-.29.71.71,0,0,0-.45-.12.69.69,0,0,0-.58.23.48.48,0,0,1-.11.08l-.11,0a.27.27,0,0,1-.2-.07.3.3,0,0,1-.08-.2c0-.12.09-.23.24-.34a1.5,1.5,0,0,1,.88-.26,1.18,1.18,0,0,1,.8.28.91.91,0,0,1,.3.68.76.76,0,0,1-.1.39A.88.88,0,0,1,282.63,153.45Zm-3.34-.19a1.23,1.23,0,0,0-.24-.76.44.44,0,0,0-.39-.19.46.46,0,0,0-.39.2,1.16,1.16,0,0,0-.24.75v.58a1.16,1.16,0,0,0,.25.76.45.45,0,0,0,.38.18.47.47,0,0,0,.4-.2,1.21,1.21,0,0,0,.23-.74Zm.54,0v.58a1.85,1.85,0,0,1-.3,1,1,1,0,0,1-.87.48,1,1,0,0,1-.55-.14,1.46,1.46,0,0,1-.42-.52,1.8,1.8,0,0,1-.2-.81v-.59a1.78,1.78,0,0,1,.31-1,.94.94,0,0,1,.85-.48,1,1,0,0,1,.55.14,1.29,1.29,0,0,1,.42.52A1.67,1.67,0,0,1,279.83,153.26ZM275,154.71h1.17a.34.34,0,0,1,.19-.08.26.26,0,0,1,.19.08.41.41,0,0,1,.07.27v.26h-2.43v-.57q1.44-1.2,1.74-1.53a.54.54,0,0,0,.15-.34.42.42,0,0,0-.17-.34.66.66,0,0,0-.46-.16.6.6,0,0,0-.63.44.32.32,0,0,1-.1.16.24.24,0,0,1-.15,0,.27.27,0,0,1-.2-.07.28.28,0,0,1-.07-.19.71.71,0,0,1,.14-.38,1,1,0,0,1,.42-.38,1.27,1.27,0,0,1,.6-.15,1.19,1.19,0,0,1,.84.31,1,1,0,0,1,.32.74.91.91,0,0,1-.09.41,2,2,0,0,1-.45.52C275.85,153.94,275.49,154.25,275,154.71Zm-2.3.27a.33.33,0,0,1-.11.26.44.44,0,0,1-.29.09.42.42,0,0,1-.29-.09.36.36,0,0,1-.11-.26.34.34,0,0,1,.11-.25.38.38,0,0,1,.29-.11.4.4,0,0,1,.29.11A.31.31,0,0,1,272.65,155Zm-2.85-1.51a.93.93,0,0,1,.47.84.92.92,0,0,1-.16.53.89.89,0,0,1-.44.37,2.11,2.11,0,0,1-.78.13,1.72,1.72,0,0,1-.92-.2c-.12-.08-.18-.16-.18-.26a.25.25,0,0,1,.07-.19.29.29,0,0,1,.19-.08.27.27,0,0,1,.16,0,.67.67,0,0,0,.21.1,2.46,2.46,0,0,0,.43,0,1.58,1.58,0,0,0,.68-.11.38.38,0,0,0,.21-.35.45.45,0,0,0-.13-.31.73.73,0,0,0-.32-.24,1.38,1.38,0,0,0-.4-.07.24.24,0,0,1-.2-.07.28.28,0,0,1-.07-.19.26.26,0,0,1,.08-.19.27.27,0,0,1,.19-.08h.29a.58.58,0,0,0,.21-.07.41.41,0,0,0,.16-.16.37.37,0,0,0,.08-.21.38.38,0,0,0-.16-.29.65.65,0,0,0-.45-.13.72.72,0,0,0-.58.23l-.11.09-.11,0a.28.28,0,0,1-.2-.08.27.27,0,0,1-.08-.19.45.45,0,0,1,.24-.35,1.47,1.47,0,0,1,.88-.25,1.09,1.09,0,0,1,.79.28.87.87,0,0,1,.31.68.76.76,0,0,1-.1.39A1.07,1.07,0,0,1,269.8,153.47Zm-4.4.79a.81.81,0,0,0,.22.42.66.66,0,0,0,.42.12.54.54,0,0,0,.4-.14.46.46,0,0,0,.14-.37.62.62,0,0,0-.16-.45.47.47,0,0,0-.37-.19.55.55,0,0,0-.34.17A1.27,1.27,0,0,0,265.4,154.26Zm-.07-.83a1.6,1.6,0,0,1,.36-.24,1,1,0,0,1,.38-.07,1,1,0,0,1,.73.33,1.16,1.16,0,0,1,.32.83,1.06,1.06,0,0,1-.29.77,1.12,1.12,0,0,1-.8.29,1.15,1.15,0,0,1-.69-.2,1.17,1.17,0,0,1-.41-.6,2.6,2.6,0,0,1-.14-.91,1.73,1.73,0,0,1,.27-1,2.24,2.24,0,0,1,.65-.62,1.59,1.59,0,0,1,.78-.22.91.91,0,0,1,.51.13.26.26,0,0,1,.12.22.29.29,0,0,1-.09.21.29.29,0,0,1-.19.07.38.38,0,0,1-.17-.06.3.3,0,0,0-.14-.05,1.13,1.13,0,0,0-.53.15,1.34,1.34,0,0,0-.47.45A1.45,1.45,0,0,0,265.33,153.43ZM263,155a.36.36,0,0,1-.11.26.44.44,0,0,1-.29.09.45.45,0,0,1-.3-.09.35.35,0,0,1-.1-.26.33.33,0,0,1,.1-.25.4.4,0,0,1,.3-.1.39.39,0,0,1,.29.1A.34.34,0,0,1,263,155Zm-3.36-1v-1.31l-.78,1.31Zm.53-2.09V154a.41.41,0,0,1,.25.07.22.22,0,0,1,.08.19.24.24,0,0,1-.08.2.36.36,0,0,1-.25.07v.22a.36.36,0,0,1,.25.08.21.21,0,0,1,.08.18.23.23,0,0,1-.08.2.41.41,0,0,1-.28.07h-.71a.41.41,0,0,1-.28-.08.24.24,0,0,1-.09-.2.21.21,0,0,1,.09-.18.41.41,0,0,1,.28-.08h.21v-.22h-1.46v-.45l1.28-2.18Zm-3.23,1.6a1,1,0,0,1,.36.37,1,1,0,0,1,.11.47.94.94,0,0,1-.16.53,1,1,0,0,1-.45.37,2,2,0,0,1-.77.12,1.69,1.69,0,0,1-.93-.2.31.31,0,0,1-.17-.25.25.25,0,0,1,.07-.19.26.26,0,0,1,.19-.09.24.24,0,0,1,.15.06.84.84,0,0,0,.22.1,2.46,2.46,0,0,0,.43,0,1.45,1.45,0,0,0,.68-.12.37.37,0,0,0,.21-.34.45.45,0,0,0-.13-.31.61.61,0,0,0-.32-.24,1.1,1.1,0,0,0-.4-.07.29.29,0,0,1-.21-.08.3.3,0,0,1-.06-.18.29.29,0,0,1,.07-.19.28.28,0,0,1,.2-.09h.29a.41.41,0,0,0,.2-.06.46.46,0,0,0,.17-.17.37.37,0,0,0,.08-.2.39.39,0,0,0-.16-.3.71.71,0,0,0-.45-.12.76.76,0,0,0-.59.23.31.31,0,0,1-.1.08.22.22,0,0,1-.12,0,.26.26,0,0,1-.19-.07.28.28,0,0,1-.08-.2c0-.12.08-.23.24-.34a1.47,1.47,0,0,1,.88-.25,1.09,1.09,0,0,1,.79.28.86.86,0,0,1,.31.68.75.75,0,0,1-.1.38A1,1,0,0,1,257,153.49Zm-4.47,1.25h1.17a.26.26,0,0,1,.19-.08.24.24,0,0,1,.19.08.48.48,0,0,1,.07.27v.26h-2.43v-.56q1.44-1.2,1.74-1.53a.54.54,0,0,0,.15-.34.45.45,0,0,0-.17-.34.63.63,0,0,0-.46-.16.68.68,0,0,0-.47.17.6.6,0,0,0-.17.27.35.35,0,0,1-.09.16.27.27,0,0,1-.16,0,.29.29,0,0,1-.2-.07.28.28,0,0,1-.07-.19.8.8,0,0,1,.15-.39.93.93,0,0,1,.41-.37,1.28,1.28,0,0,1,.61-.15,1.21,1.21,0,0,1,.84.31,1,1,0,0,1,.32.74.91.91,0,0,1-.09.41,2.46,2.46,0,0,1-.45.52C253.39,154,253,154.28,252.5,154.74Zm-2.3.27a.36.36,0,0,1-.11.26.45.45,0,0,1-.3.09.44.44,0,0,1-.29-.09.35.35,0,0,1-.1-.26.33.33,0,0,1,.1-.25.4.4,0,0,1,.29-.11.41.41,0,0,1,.3.11A.34.34,0,0,1,250.2,155Zm-3.34-3.19v2.93h.54a.4.4,0,0,1,.27.07.23.23,0,0,1,.09.19.25.25,0,0,1-.09.2.4.4,0,0,1-.27.07h-1.62a.43.43,0,0,1-.28-.07.26.26,0,0,1-.07-.2.26.26,0,0,1,.07-.19.43.43,0,0,1,.28-.07h.55v-2.23l-.49.13-.17,0a.23.23,0,0,1-.18-.09.27.27,0,0,1-.07-.2.21.21,0,0,1,.05-.16.54.54,0,0,1,.24-.11Z" transform="translate(-245.42 -151.76)"/>
    <path d="M369.71,153.45a1.06,1.06,0,0,1,.34.36.94.94,0,0,1,.11.45,1,1,0,0,1-.15.51,1,1,0,0,1-.43.35,1.94,1.94,0,0,1-.74.12,1.61,1.61,0,0,1-.89-.19.28.28,0,0,1-.17-.25.24.24,0,0,1,.07-.18.25.25,0,0,1,.18-.08.37.37,0,0,1,.15.05.75.75,0,0,0,.2.1,2.34,2.34,0,0,0,.42,0,1.36,1.36,0,0,0,.65-.11.37.37,0,0,0,.19-.33.43.43,0,0,0-.11-.3.7.7,0,0,0-.32-.23,1.14,1.14,0,0,0-.37-.07.24.24,0,0,1-.2-.07.28.28,0,0,1-.06-.18.24.24,0,0,1,.07-.18.26.26,0,0,1,.19-.08h.27l.2-.06a.49.49,0,0,0,.16-.16.4.4,0,0,0,.07-.2.35.35,0,0,0-.15-.28.67.67,0,0,0-.43-.12.71.71,0,0,0-.56.22.33.33,0,0,1-.11.08.16.16,0,0,1-.1,0,.24.24,0,0,1-.26-.26c0-.11.07-.22.23-.33a1.39,1.39,0,0,1,.84-.24,1.09,1.09,0,0,1,.76.27.87.87,0,0,1,.29.65.78.78,0,0,1-.09.37A1.21,1.21,0,0,1,369.71,153.45Zm-3.08,0a.9.9,0,0,1,.34.36.88.88,0,0,1,.11.45.87.87,0,0,1-.15.51.88.88,0,0,1-.43.35,1.85,1.85,0,0,1-.74.13,1.76,1.76,0,0,1-.89-.19.33.33,0,0,1-.17-.25.25.25,0,0,1,.07-.18.24.24,0,0,1,.18-.08.23.23,0,0,1,.15,0l.21.1a2.22,2.22,0,0,0,.41,0,1.29,1.29,0,0,0,.65-.12.36.36,0,0,0,.2-.33.53.53,0,0,0-.11-.3.68.68,0,0,0-.32-.22,1,1,0,0,0-.38-.07.23.23,0,0,1-.26-.25.26.26,0,0,1,.26-.26H366a.48.48,0,0,0,.2-.07.41.41,0,0,0,.16-.16.3.3,0,0,0,.07-.19.36.36,0,0,0-.15-.29.69.69,0,0,0-.43-.12.71.71,0,0,0-.56.23l-.1.08-.11,0a.24.24,0,0,1-.26-.26.42.42,0,0,1,.23-.33,1.52,1.52,0,0,1,.84-.25,1.05,1.05,0,0,1,.76.27.84.84,0,0,1,.29.65.75.75,0,0,1-.09.37A.83.83,0,0,1,366.63,153.45Zm-3.07,0a1,1,0,0,1,.34.36.94.94,0,0,1,.11.45.92.92,0,0,1-.58.86,1.91,1.91,0,0,1-.74.12,1.66,1.66,0,0,1-.89-.19.31.31,0,0,1-.17-.25.24.24,0,0,1,.07-.18.25.25,0,0,1,.18-.08.3.3,0,0,1,.15,0,.67.67,0,0,0,.21.1,2.22,2.22,0,0,0,.41,0,1.46,1.46,0,0,0,.65-.11.38.38,0,0,0,.2-.33.44.44,0,0,0-.12-.3.67.67,0,0,0-.31-.23,1.21,1.21,0,0,0-.38-.07.26.26,0,0,1-.2-.07.28.28,0,0,1-.06-.18.24.24,0,0,1,.07-.18.27.27,0,0,1,.19-.08H363a.76.76,0,0,0,.2-.06.49.49,0,0,0,.16-.16.33.33,0,0,0-.08-.48.65.65,0,0,0-.43-.12.69.69,0,0,0-.56.22.31.31,0,0,1-.1.08l-.11,0a.24.24,0,0,1-.26-.26c0-.11.08-.22.23-.33a1.43,1.43,0,0,1,.84-.24,1.07,1.07,0,0,1,.76.27.87.87,0,0,1,.29.65.81.81,0,0,1-.09.37A1,1,0,0,1,363.56,153.46Zm-3.19.87a.48.48,0,0,0-.18-.36.61.61,0,0,0-.43-.17.58.58,0,0,0-.43.17.47.47,0,0,0-.17.36.35.35,0,0,0,.15.28.71.71,0,0,0,.45.12.74.74,0,0,0,.46-.12A.35.35,0,0,0,360.37,154.33Zm-.06-1.51a.42.42,0,0,0-.15-.32.59.59,0,0,0-.4-.14.58.58,0,0,0-.41.14.42.42,0,0,0-.15.32.43.43,0,0,0,.15.33.58.58,0,0,0,.41.13.58.58,0,0,0,.4-.13A.43.43,0,0,0,360.31,152.82Zm.17.71a1.1,1.1,0,0,1,.3.35,1,1,0,0,1,.1.42,1,1,0,0,1-.13.48.82.82,0,0,1-.39.34,1.45,1.45,0,0,1-1.2,0,.77.77,0,0,1-.39-.34.94.94,0,0,1,0-.9.9.9,0,0,1,.3-.35,1,1,0,0,1-.26-.34.82.82,0,0,1-.09-.38.89.89,0,0,1,.3-.67,1.06,1.06,0,0,1,.77-.29,1.08,1.08,0,0,1,.77.29.89.89,0,0,1,.3.67.82.82,0,0,1-.09.38A1,1,0,0,1,360.48,153.53Zm-3.41,1.4a.3.3,0,0,1-.11.24.4.4,0,0,1-.28.1.41.41,0,0,1-.28-.1.37.37,0,0,1-.1-.24.33.33,0,0,1,.1-.24.37.37,0,0,1,.28-.1.36.36,0,0,1,.28.1A.28.28,0,0,1,357.07,154.93Zm0-1.68a.33.33,0,0,1-.1.25.39.39,0,0,1-.28.09.46.46,0,0,1-.29-.09.37.37,0,0,1-.1-.25.33.33,0,0,1,.1-.24.41.41,0,0,1,.29-.1.36.36,0,0,1,.28.1A.3.3,0,0,1,357.06,153.25Zm-3.86,1a.75.75,0,0,0,.21.41.68.68,0,0,0,.4.11.49.49,0,0,0,.38-.13.45.45,0,0,0,.14-.36.59.59,0,0,0-.16-.43.44.44,0,0,0-.35-.18.51.51,0,0,0-.33.16A1.24,1.24,0,0,0,353.2,154.22Zm-.07-.79a1.31,1.31,0,0,1,.35-.23.86.86,0,0,1,.36-.07.94.94,0,0,1,.7.32,1.12,1.12,0,0,1,.3.8,1,1,0,0,1-.28.73,1,1,0,0,1-.76.28,1.07,1.07,0,0,1-.66-.19,1.28,1.28,0,0,1-.4-.58,2.65,2.65,0,0,1-.13-.87,1.72,1.72,0,0,1,.26-1,2.16,2.16,0,0,1,.62-.59,1.47,1.47,0,0,1,.75-.21.87.87,0,0,1,.49.12.28.28,0,0,1,.11.21.28.28,0,0,1-.08.2.24.24,0,0,1-.18.07.38.38,0,0,1-.17-.06.22.22,0,0,0-.13,0,1.16,1.16,0,0,0-.51.14,1.31,1.31,0,0,0-.45.43A1.34,1.34,0,0,0,353.13,153.43Zm-2.35.52v-1.26L350,154Zm.51-2v2a.4.4,0,0,1,.24.07.25.25,0,0,1,.08.18.24.24,0,0,1-.08.19.34.34,0,0,1-.24.07v.21a.4.4,0,0,1,.24.07.25.25,0,0,1,.08.18.24.24,0,0,1-.08.19.41.41,0,0,1-.27.08h-.68a.44.44,0,0,1-.27-.07.26.26,0,0,1-.08-.19.22.22,0,0,1,.08-.18.38.38,0,0,1,.27-.07h.2v-.21h-1.4V154l1.23-2.1ZM347,154.68h1.13a.25.25,0,0,1,.18-.08.21.21,0,0,1,.17.08.37.37,0,0,1,.08.26v.25h-2.33v-.54c.91-.77,1.47-1.26,1.67-1.47a.53.53,0,0,0,.13-.32.43.43,0,0,0-.15-.33.64.64,0,0,0-.45-.15.67.67,0,0,0-.45.16.89.89,0,0,0-.16.26.22.22,0,0,1-.08.15.26.26,0,0,1-.15,0,.25.25,0,0,1-.19-.07.24.24,0,0,1-.07-.18.69.69,0,0,1,.14-.37.94.94,0,0,1,.4-.36,1.27,1.27,0,0,1,.58-.14,1.08,1.08,0,0,1,.79.3.93.93,0,0,1,.32.71.86.86,0,0,1-.09.39,2.09,2.09,0,0,1-.44.5C347.84,153.94,347.5,154.24,347,154.68Zm-2.2.25a.3.3,0,0,1-.11.25.39.39,0,0,1-.28.09.41.41,0,0,1-.28-.09.36.36,0,0,1-.1-.25.37.37,0,0,1,.1-.24.41.41,0,0,1,.28-.1.4.4,0,0,1,.28.1A.3.3,0,0,1,344.78,154.93Zm-3.2-3.05v2.81h.52a.37.37,0,0,1,.26.07.22.22,0,0,1,.08.18.26.26,0,0,1-.08.19.43.43,0,0,1-.26.07h-1.55a.38.38,0,0,1-.27-.07.25.25,0,0,1-.07-.19.24.24,0,0,1,.07-.18.38.38,0,0,1,.27-.07h.52v-2.14l-.46.12-.17,0a.25.25,0,0,1-.17-.08.28.28,0,0,1-.07-.19.21.21,0,0,1,.05-.16.45.45,0,0,1,.23-.1Zm-2.6,1.61a1.06,1.06,0,0,1,.34.36.94.94,0,0,1,.11.45,1,1,0,0,1-.15.51,1,1,0,0,1-.43.35,1.94,1.94,0,0,1-.74.12,1.64,1.64,0,0,1-.89-.19.28.28,0,0,1-.17-.25.24.24,0,0,1,.07-.18.25.25,0,0,1,.17-.08.37.37,0,0,1,.16,0,.67.67,0,0,0,.21.1,2.15,2.15,0,0,0,.41,0,1.41,1.41,0,0,0,.64-.11.37.37,0,0,0,.21-.33.41.41,0,0,0-.13-.3.64.64,0,0,0-.3-.23,1.28,1.28,0,0,0-.38-.07.24.24,0,0,1-.2-.07.28.28,0,0,1-.06-.18.24.24,0,0,1,.07-.18.26.26,0,0,1,.19-.08h.27l.2-.06a.49.49,0,0,0,.16-.16.4.4,0,0,0,.07-.2.35.35,0,0,0-.15-.28.67.67,0,0,0-.43-.12.71.71,0,0,0-.56.22l-.1.08a.22.22,0,0,1-.11,0,.24.24,0,0,1-.26-.26c0-.11.07-.22.23-.33a1.39,1.39,0,0,1,.84-.24,1.09,1.09,0,0,1,.76.27.87.87,0,0,1,.29.65.78.78,0,0,1-.09.37A1.21,1.21,0,0,1,339,153.49Zm-3.42,1.45a.3.3,0,0,1-.11.25.39.39,0,0,1-.28.09.36.36,0,0,1-.28-.08.38.38,0,0,1-.1-.26.33.33,0,0,1,.1-.23.38.38,0,0,1,.28-.11.4.4,0,0,1,.28.1A.3.3,0,0,1,335.56,154.94Zm-3.87-.69a.75.75,0,0,0,.21.41.66.66,0,0,0,.4.11.49.49,0,0,0,.38-.13.45.45,0,0,0,.14-.36.57.57,0,0,0-.16-.43.44.44,0,0,0-.35-.18.51.51,0,0,0-.33.16A1.24,1.24,0,0,0,331.69,154.25Zm-.07-.79a1.31,1.31,0,0,1,.35-.23.86.86,0,0,1,.36-.07.94.94,0,0,1,.7.32,1.12,1.12,0,0,1,.3.8,1,1,0,0,1-.28.73,1.2,1.2,0,0,1-1.42.09,1.21,1.21,0,0,1-.4-.58,2.65,2.65,0,0,1-.13-.87,1.67,1.67,0,0,1,.26-1,2.16,2.16,0,0,1,.62-.59,1.47,1.47,0,0,1,.75-.21.87.87,0,0,1,.49.12.28.28,0,0,1,.11.21.3.3,0,0,1-.08.2.27.27,0,0,1-.18.07.38.38,0,0,1-.17-.06.22.22,0,0,0-.13,0,1.16,1.16,0,0,0-.51.14,1.31,1.31,0,0,0-.45.43A1.34,1.34,0,0,0,331.62,153.46Zm-1.94-.4a1,1,0,0,0-.25-.51.53.53,0,0,0-.37-.15.5.5,0,0,0-.37.17.65.65,0,0,0-.15.44.7.7,0,0,0,.15.47.44.44,0,0,0,.36.17C329.27,153.65,329.48,153.46,329.68,153.06Zm.07.8a1.22,1.22,0,0,1-.35.24.8.8,0,0,1-.34.07.94.94,0,0,1-.72-.33A1.13,1.13,0,0,1,328,153a1.23,1.23,0,0,1,.21-.7.94.94,0,0,1,.82-.43,1,1,0,0,1,.66.23,1.33,1.33,0,0,1,.41.65,3,3,0,0,1,.14.89,1.54,1.54,0,0,1-.61,1.26,1.63,1.63,0,0,1-1,.37.74.74,0,0,1-.48-.13.24.24,0,0,1-.12-.22.21.21,0,0,1,.07-.17.22.22,0,0,1,.19-.08l.13,0a.36.36,0,0,0,.21.05,1.08,1.08,0,0,0,.71-.26A1.09,1.09,0,0,0,329.75,153.86Zm-3.54-2v2.81h.52a.41.41,0,0,1,.27.07.22.22,0,0,1,.08.18.26.26,0,0,1-.08.19.48.48,0,0,1-.27.07h-1.55a.41.41,0,0,1-.27-.07.29.29,0,0,1-.06-.19.26.26,0,0,1,.06-.18.41.41,0,0,1,.27-.07h.53v-2.14l-.47.12-.16,0a.25.25,0,0,1-.17-.08.29.29,0,0,1-.08-.19.25.25,0,0,1,.05-.16.49.49,0,0,1,.23-.1ZM323.27,155a.34.34,0,0,1-.11.25.48.48,0,0,1-.56,0,.36.36,0,0,1-.1-.25.4.4,0,0,1,.66-.24A.34.34,0,0,1,323.27,155Zm-2.93-2.46h-1.18a.41.41,0,0,1-.08.22.24.24,0,0,1-.17.06.26.26,0,0,1-.19-.08.38.38,0,0,1-.07-.26V152h2.23v.52l-.83,2.48a.78.78,0,0,1-.12.21.24.24,0,0,1-.15,0,.26.26,0,0,1-.19-.07.25.25,0,0,1-.07-.17.49.49,0,0,1,0-.18ZM317,154v-1.26l-.75,1.26Zm.5-2v2a.33.33,0,0,1,.24.07.19.19,0,0,1,.08.18.22.22,0,0,1-.08.19.38.38,0,0,1-.24.07v.21a.33.33,0,0,1,.24.07.19.19,0,0,1,.08.18.22.22,0,0,1-.08.19.43.43,0,0,1-.26.07h-.68a.38.38,0,0,1-.27-.07.22.22,0,0,1-.08-.19.22.22,0,0,1,.08-.18.38.38,0,0,1,.27-.07h.2v-.21h-1.41v-.43l1.24-2.09Z" transform="translate(-245.42 -151.76)"/>
    <path d="M294.44,241.21c0-.86,0-1.45.09-2.16l-2.4.78a19.49,19.49,0,0,1,1.33,1.7,13.93,13.93,0,0,1,1.17,1.93A14.64,14.64,0,0,1,294.44,241.21Z" transform="translate(-245.42 -151.76)"/>
    <line class="cls-12" x1="48.08" y1="88.2" x2="32.21" y2="39.49"/>
    <path d="M276.65,189.88a20.69,20.69,0,0,1-.08,2.16l2.4-.78a19.49,19.49,0,0,1-1.33-1.7,16,16,0,0,1-1.18-1.94A13.5,13.5,0,0,1,276.65,189.88Z" transform="translate(-245.42 -151.76)"/>
    <path d="M321.28,241.21c0-.86,0-1.45-.09-2.16l2.4.78a19.49,19.49,0,0,0-1.33,1.7,13.93,13.93,0,0,0-1.17,1.93A16,16,0,0,0,321.28,241.21Z" transform="translate(-245.42 -151.76)"/>
    <line class="cls-12" x1="76.81" y1="88.2" x2="92.68" y2="39.49"/>
    <path d="M339.07,189.88a20.69,20.69,0,0,0,.08,2.16l-2.4-.78a19.49,19.49,0,0,0,1.33-1.7,16,16,0,0,0,1.18-1.94A13.5,13.5,0,0,0,339.07,189.88Z" transform="translate(-245.42 -151.76)"/>
    <rect class="cls-13" x="16.28" y="68.32" width="39.8" height="11.76"/>
    <text class="cls-14" transform="translate(22.31 76.31)">version</text>
    <rect class="cls-13" x="6.28" y="52.9" width="39.8" height="11.76"/>
    <text class="cls-14" transform="translate(10.65 60.88)">version</text>
    <rect class="cls-13" x="68.8" y="68.32" width="39.8" height="11.76"/>
    <text class="cls-14" transform="translate(73.17 76.31)">version</text>
    <line class="cls-15" x1="38.65" y1="46.04" x2="42.33" y2="56.92"/>
    <path class="cls-16" d="M288.73,210a21,21,0,0,1,.06-2.16l-2.39.8a20,20,0,0,1,1.35,1.69,14.42,14.42,0,0,1,1.19,1.93A15.55,15.55,0,0,1,288.73,210Z" transform="translate(-245.42 -151.76)"/>
    <rect class="cls-13" x="78.8" y="52.9" width="39.8" height="11.76"/>
    <text class="cls-14" transform="translate(84.83 60.88)">version</text>
    <line class="cls-15" x1="86.23" y1="46.04" x2="82.56" y2="56.92"/>
    <path class="cls-16" d="M327,210c0-.86,0-1.44-.06-2.16l2.39.8a18.14,18.14,0,0,0-1.35,1.69,13.44,13.44,0,0,0-1.19,1.93A15.55,15.55,0,0,0,327,210Z" transform="translate(-245.42 -151.76)"/>
    <line class="cls-15" x1="101.8" y1="88.69" x2="105.3" y2="77.74"/>
    <path class="cls-16" d="M350.73,227.82a20.68,20.68,0,0,1-1.33,1.7l2.4.77a17.85,17.85,0,0,1-.08-2.15,14.89,14.89,0,0,1,.18-2.26A14.54,14.54,0,0,1,350.73,227.82Z" transform="translate(-245.42 -151.76)"/>
    <line class="cls-15" x1="23.7" y1="88.44" x2="20.03" y2="77.56"/>
    <path class="cls-16" d="M264.46,228a20.86,20.86,0,0,1-.07,2.16l2.39-.8a20.09,20.09,0,0,1-1.34-1.69,13.44,13.44,0,0,1-1.19-1.93A15.55,15.55,0,0,1,264.46,228Z" transform="translate(-245.42 -151.76)"/>
  </g>
</svg>
