<svg xmlns="http://www.w3.org/2000/svg" xmlns:xlink="http://www.w3.org/1999/xlink" width="249.15" height="204.95" viewBox="0 0 249.15 204.95">
  <defs>
    <style>
      .cls-1 {
        fill: #f7f7f7;
      }

      .cls-13, .cls-2, .cls-24, .cls-27, .cls-28, .cls-3, .cls-30, .cls-38, .cls-41, .cls-45, .cls-7 {
        fill: none;
      }

      .cls-2 {
        stroke: #a6a6a6;
        stroke-linecap: round;
      }

      .cls-10, .cls-2, .cls-24, .cls-27, .cls-30, .cls-31, .cls-33, .cls-34, .cls-41, .cls-7, .cls-8, .cls-9 {
        stroke-linejoin: round;
      }

      .cls-10, .cls-19, .cls-2, .cls-28, .cls-3, .cls-30, .cls-33, .cls-34, .cls-36, .cls-7, .cls-9 {
        stroke-width: 0.5px;
      }

      .cls-10, .cls-12, .cls-13, .cls-19, .cls-3, .cls-7, .cls-8, .cls-9 {
        stroke: gray;
      }

      .cls-33, .cls-4, .cls-9 {
        fill: #fff;
      }

      .cls-5 {
        fill: url(#linear-gradient);
      }

      .cls-10, .cls-6 {
        fill: #d9f1f6;
      }

      .cls-8 {
        fill: #f7fcfd;
      }

      .cls-12, .cls-13, .cls-31, .cls-37, .cls-38, .cls-45, .cls-8 {
        stroke-width: 0.3px;
      }

      .cls-11 {
        fill: #7dc57c;
      }

      .cls-12, .cls-19 {
        fill: #fffcf1;
      }

      .cls-14 {
        fill: url(#linear-gradient-2);
      }

      .cls-15, .cls-20 {
        fill: gray;
      }

      .cls-16 {
        fill: url(#linear-gradient-3);
      }

      .cls-17 {
        fill: url(#linear-gradient-4);
      }

      .cls-18 {
        fill: url(#linear-gradient-5);
      }

      .cls-20, .cls-39 {
        font-size: 6.3px;
        font-family: FreeMono;font-phase: bold;
      }

      .cls-21 {
        letter-spacing: 0.15em;
      }

      .cls-22 {
        letter-spacing: 0em;
      }

      .cls-23 {
        fill: #fff7f4;
      }

      .cls-24 {
        stroke: #ef7a5b;
      }

      .cls-25 {
        letter-spacing: 0.1em;
      }

      .cls-26 {
        fill: #f0f0f0;
      }

      .cls-27, .cls-41 {
        stroke: #e60001;
      }

      .cls-27 {
        stroke-width: 1.5px;
      }

      .cls-28, .cls-30, .cls-31, .cls-33, .cls-34, .cls-36, .cls-37, .cls-38, .cls-45 {
        stroke: #000;
      }

      .cls-29, .cls-34 {
        fill: #b3e2ee;
      }

      .cls-31 {
        fill: #f0f9fc;
      }

      .cls-32 {
        fill: url(#linear-gradient-6);
      }

      .cls-35 {
        fill: #018335;
      }

      .cls-36, .cls-37 {
        fill: #fffae3;
      }

      .cls-40 {
        fill: #fef0e8;
      }

      .cls-42 {
        font-size: 9px;
        font-family: Humanist521BT-BoldCondensed, Humanst521 Cn BT;
        font-weight: 700;
      }

      .cls-43 {
        letter-spacing: 0.02em;
      }

      .cls-44 {
        letter-spacing: 0.02em;
      }

      .cls-45 {
        stroke-miterlimit: 10;
      }
    </style>
    <linearGradient id="linear-gradient" x1="270.85" y1="744.13" x2="311.64" y2="744.13" gradientTransform="translate(625.75 -473.08) rotate(68.86)" gradientUnits="userSpaceOnUse">
      <stop offset="0" stop-color="#e5ebf0"/>
      <stop offset="1" stop-color="#cbd0d6"/>
    </linearGradient>
    <linearGradient id="linear-gradient-2" x1="339.18" y1="748.31" x2="379.97" y2="748.31" gradientTransform="translate(835.81 -344.16) rotate(68.86)" xlink:href="#linear-gradient"/>
    <linearGradient id="linear-gradient-3" x1="311.73" y1="599.24" x2="352.52" y2="599.24" gradientTransform="translate(835.81 -344.16) rotate(68.86)" xlink:href="#linear-gradient"/>
    <linearGradient id="linear-gradient-4" x1="259.89" y1="674.12" x2="300.68" y2="674.12" gradientTransform="translate(835.81 -344.16) rotate(68.86)" xlink:href="#linear-gradient"/>
    <linearGradient id="linear-gradient-5" x1="371.68" y1="660.12" x2="412.47" y2="660.12" gradientTransform="translate(835.81 -344.16) rotate(68.86)" xlink:href="#linear-gradient"/>
    <linearGradient id="linear-gradient-6" x1="371.68" y1="660.12" x2="412.47" y2="660.12" gradientTransform="translate(835.81 -344.16) rotate(68.86)" gradientUnits="userSpaceOnUse">
      <stop offset="0" stop-color="#cbd8e2"/>
      <stop offset="1" stop-color="#9aa5b5"/>
    </linearGradient>
  </defs>
  <g id="Layer_2" data-name="Layer 2">
    <path class="cls-1" d="M247.33,278.1c0,10.16,21.33,17.65,29.67,5.9,3.5,12.25,29.25,16,38.75,2.5,1,6.75,29.25,13.17,36.58-4.5,6.49,4.29,24.53.39,26.15-15.57l6.51-9.19c13.9,2.35,17.41-11,13.73-16,22.53-4,22.28-31.27,13.59-40l.7-4.32c13-10,7-28.51-.93-30.24,3.67-5.42-1.08-12.42-6.17-12.7-1.66-13-18.16-13.72-21.87-8.26-4.79-11.71-23.29-16.46-32.78-5.38C346,126.67,331,129.28,324,133.81c-3.64-7.75-17.88-4.95-20,4.52-15.9-9-32,4.17-30.5,16.67-8.5-9.75-30.25-5-31.75,8.25-15.88-1.56-24.25,10.75-20.75,23-7.25,2.75-8.5,19.25,1.33,22.75-17.08,9-16.33,35.25,4.67,42.5C220.25,265.12,226.75,281.25,247.33,278.1Z" transform="translate(-210.06 -128.92)"/>
    <path class="cls-2" d="M230.75,245c-13.75,19-4,36.25,16.58,33.1,0,10.16,21.33,17.65,29.67,5.9,3.5,12.25,29.25,16,38.75,2.5,1,6.75,29.25,13.17,36.58-4.5,6.49,4.29,24.53.39,26.15-15.57l6.51-9.19c13.9,2.35,17.41-11,13.73-16,22.53-4,22.28-31.27,13.59-40l.7-4.32c13-10,7-28.51-.93-30.24,3.67-5.42-1.08-12.42-6.17-12.7-1.66-13-18.16-13.72-21.87-8.26" transform="translate(-210.06 -128.92)"/>
    <path class="cls-2" d="M385.5,150.75c-2-16.75-24.75-21.5-34.24-10.42C346,126.67,331,129.28,324,133.81c-3.64-7.75-17.36-5.48-20,4.52-15-9-32,4.17-30.5,16.67-8.5-9.75-30.25-5-31.75,8.25-15.88-1.56-24.25,10.75-20.75,23-7.25,2.75-8.5,19.25,1.33,22.75-17.08,9-16.33,35.5,4.67,42.5" transform="translate(-210.06 -128.92)"/>
    <line class="cls-3" x1="114.67" y1="19.33" x2="195.25" y2="47.57"/>
    <line class="cls-3" x1="175.69" y1="65.16" x2="148.15" y2="119.09"/>
    <line class="cls-3" x1="74.26" y1="124.69" x2="144.17" y2="124.69"/>
    <g>
      <g>
        <path class="cls-4" d="M259.21,178H230.55a.44.44,0,0,0-.44.44V202.8a.45.45,0,0,0,.44.45h28.66a.45.45,0,0,0,.44-.45V178.45A.44.44,0,0,0,259.21,178Z" transform="translate(-210.06 -128.92)"/>
        <rect class="cls-5" x="20.05" y="49.6" width="29.53" height="24.72" rx="0.44"/>
        <rect class="cls-6" x="20.05" y="49.6" width="29.53" height="24.72" rx="0.44"/>
        <path class="cls-7" d="M259.21,178H230.55a.44.44,0,0,0-.44.44V202.8a.45.45,0,0,0,.44.45h28.66a.45.45,0,0,0,.44-.45V178.45A.44.44,0,0,0,259.21,178Z" transform="translate(-210.06 -128.92)"/>
        <rect class="cls-8" x="21.76" y="51.06" width="26.11" height="20.09"/>
        <polyline class="cls-9" points="54.12 73.68 49.46 72.65 20.05 72.65 15.51 73.68"/>
        <path class="cls-10" d="M225.57,202.6s.87,1.93,1.88,1.93h34.86c.92,0,1.88-1.93,1.88-1.93Z" transform="translate(-210.06 -128.92)"/>
      </g>
      <g>
        <path class="cls-11" d="M251.67,186.18a7.67,7.67,0,1,1-10.42-3A7.66,7.66,0,0,1,251.67,186.18Z" transform="translate(-210.06 -128.92)"/>
        <g>
          <path class="cls-4" d="M240.14,192c-.87-1.71-1.42-3,.54-4.1s2.77.09,3.75,1.73l.51.94c1,1.75,1.54,3.1-.47,4.21s-2.85-.1-3.82-1.85Zm2.11.85c.3.54.83,1.4,1.67.94s.39-1.39,0-2l-.92-1.68c-.29-.52-.91-1.7-1.82-1.2s-.25,1.63,0,2.14Z" transform="translate(-210.06 -128.92)"/>
          <path class="cls-4" d="M247.65,192.79,244,186.23l1.23-.68,1.6,2.92h0a16.85,16.85,0,0,1-.1-2l0-1.74,1.39-.76-.07,3.71,3.76,2.81-1.38.76-2.58-2,0,.94,1,1.89Z" transform="translate(-210.06 -128.92)"/>
        </g>
      </g>
    </g>
    <g>
      <path class="cls-12" d="M265.9,199.54v12.13H254.35V196.22H263a3.48,3.48,0,0,1,1.78,1.12A3.4,3.4,0,0,1,265.9,199.54Z" transform="translate(-210.06 -128.92)"/>
      <path class="cls-13" d="M263,196.22v2.39s1.53,0,2.17,0a.72.72,0,0,1,.65.45" transform="translate(-210.06 -128.92)"/>
    </g>
    <g>
      <g>
        <path class="cls-4" d="M280,243.25H251.3a.43.43,0,0,0-.44.44V268a.45.45,0,0,0,.44.45H280a.45.45,0,0,0,.44-.45V243.69A.44.44,0,0,0,280,243.25Z" transform="translate(-210.06 -128.92)"/>
        <path class="cls-14" d="M280.39,268a.45.45,0,0,1-.44.45H251.3a.45.45,0,0,1-.44-.45V244.2a.44.44,0,0,1,.44-.44H280a.44.44,0,0,1,.44.44Z" transform="translate(-210.06 -128.92)"/>
        <path class="cls-6" d="M280.39,268a.45.45,0,0,1-.44.45H251.3a.45.45,0,0,1-.44-.45V244.2a.44.44,0,0,1,.44-.44H280a.44.44,0,0,1,.44.44Z" transform="translate(-210.06 -128.92)"/>
        <path class="cls-7" d="M280,243.25H251.3a.43.43,0,0,0-.44.44V268a.45.45,0,0,0,.44.45H280a.45.45,0,0,0,.44-.45V243.69A.44.44,0,0,0,280,243.25Z" transform="translate(-210.06 -128.92)"/>
        <rect class="cls-8" x="42.5" y="116.29" width="26.11" height="20.09"/>
        <polyline class="cls-9" points="74.86 138.92 70.2 137.88 40.8 137.88 36.26 138.92"/>
        <path class="cls-10" d="M246.31,267.84s.88,1.92,1.88,1.92h34.86c.93,0,1.89-1.92,1.89-1.92Z" transform="translate(-210.06 -128.92)"/>
      </g>
      <g>
        <path class="cls-11" d="M272.41,251.41a7.67,7.67,0,1,1-10.41-3A7.66,7.66,0,0,1,272.41,251.41Z" transform="translate(-210.06 -128.92)"/>
        <g>
          <path class="cls-4" d="M260.88,257.2c-.87-1.7-1.42-3,.54-4.09s2.78.09,3.75,1.73l.52.94c1,1.75,1.53,3.1-.48,4.21s-2.85-.1-3.81-1.85Zm2.12.86c.29.54.83,1.4,1.67.94s.38-1.39,0-2l-.93-1.68c-.29-.53-.9-1.71-1.81-1.2s-.26,1.63,0,2.14Z" transform="translate(-210.06 -128.92)"/>
          <path class="cls-4" d="M268.39,258l-3.61-6.57,1.22-.67,1.61,2.91h0a14.8,14.8,0,0,1-.09-2l0-1.73,1.38-.76-.07,3.71,3.77,2.81-1.39.76-2.58-2,0,.94,1,1.88Z" transform="translate(-210.06 -128.92)"/>
        </g>
      </g>
    </g>
    <g>
      <path class="cls-12" d="M286.67,264.8v12.12H275.12V261.48h8.65a3.48,3.48,0,0,1,1.77,1.12A3.38,3.38,0,0,1,286.67,264.8Z" transform="translate(-210.06 -128.92)"/>
      <path class="cls-13" d="M283.77,261.48v2.39s1.52,0,2.17,0a.74.74,0,0,1,.65.45" transform="translate(-210.06 -128.92)"/>
    </g>
    <path class="cls-15" d="M353.81,239.41a21,21,0,0,1-.54-2.09l-2.07,1.43A20.16,20.16,0,0,1,353,240a14.68,14.68,0,0,1,1.68,1.52A14.94,14.94,0,0,1,353.81,239.41Z" transform="translate(-210.06 -128.92)"/>
    <line class="cls-3" x1="53.01" y1="59.22" x2="146.44" y2="120.79"/>
    <g>
      <g>
        <path class="cls-4" d="M409.09,163.88H380.43a.44.44,0,0,0-.44.43v24.36a.44.44,0,0,0,.44.44h28.66a.44.44,0,0,0,.44-.44V164.31A.44.44,0,0,0,409.09,163.88Z" transform="translate(-210.06 -128.92)"/>
        <path class="cls-16" d="M409.53,188.67a.44.44,0,0,1-.44.44H380.43a.44.44,0,0,1-.44-.44V164.83a.44.44,0,0,1,.44-.44h28.66a.44.44,0,0,1,.44.44Z" transform="translate(-210.06 -128.92)"/>
        <path class="cls-6" d="M409.53,188.67a.44.44,0,0,1-.44.44H380.43a.44.44,0,0,1-.44-.44V164.83a.44.44,0,0,1,.44-.44h28.66a.44.44,0,0,1,.44.44Z" transform="translate(-210.06 -128.92)"/>
        <path class="cls-7" d="M409.09,163.88H380.43a.44.44,0,0,0-.44.43v24.36a.44.44,0,0,0,.44.44h28.66a.44.44,0,0,0,.44-.44V164.31A.44.44,0,0,0,409.09,163.88Z" transform="translate(-210.06 -128.92)"/>
        <rect class="cls-8" x="171.64" y="36.92" width="26.12" height="20.09"/>
        <polyline class="cls-9" points="204 59.55 199.34 58.51 169.93 58.51 165.39 59.55"/>
        <path class="cls-10" d="M375.45,188.47s.87,1.92,1.88,1.92h34.86c.92,0,1.88-1.92,1.88-1.92Z" transform="translate(-210.06 -128.92)"/>
      </g>
      <g>
        <path class="cls-11" d="M401.55,172a7.67,7.67,0,1,1-10.42-3A7.68,7.68,0,0,1,401.55,172Z" transform="translate(-210.06 -128.92)"/>
        <g>
          <path class="cls-4" d="M390,177.83c-.87-1.7-1.42-3,.54-4.1s2.77.1,3.75,1.74l.51.93c1,1.76,1.54,3.11-.47,4.22s-2.85-.1-3.82-1.85Zm2.11.86c.3.54.83,1.4,1.67.94s.39-1.39,0-2l-.92-1.68c-.29-.53-.91-1.71-1.82-1.21s-.25,1.64,0,2.15Z" transform="translate(-210.06 -128.92)"/>
          <path class="cls-4" d="M397.53,178.66l-3.62-6.57,1.23-.67,1.6,2.91h0a16.64,16.64,0,0,1-.1-2l0-1.73,1.39-.77-.07,3.72,3.76,2.81-1.38.76-2.58-2,0,.95,1,1.88Z" transform="translate(-210.06 -128.92)"/>
        </g>
      </g>
    </g>
    <g>
      <path class="cls-12" d="M414.83,185.79v12.13H403.28V182.47h8.66a3.48,3.48,0,0,1,1.77,1.12A3.4,3.4,0,0,1,414.83,185.79Z" transform="translate(-210.06 -128.92)"/>
      <path class="cls-13" d="M411.94,182.47v2.39s1.52,0,2.17,0a.74.74,0,0,1,.65.45" transform="translate(-210.06 -128.92)"/>
    </g>
    <g>
      <g>
        <path class="cls-4" d="M320.55,142.53H291.9a.44.44,0,0,0-.44.44v24.36a.44.44,0,0,0,.44.44h28.65a.45.45,0,0,0,.44-.44V143A.44.44,0,0,0,320.55,142.53Z" transform="translate(-210.06 -128.92)"/>
        <path class="cls-17" d="M321,167.33a.45.45,0,0,1-.44.44H291.9a.44.44,0,0,1-.44-.44V143.49a.44.44,0,0,1,.44-.44h28.65a.44.44,0,0,1,.44.44Z" transform="translate(-210.06 -128.92)"/>
        <path class="cls-6" d="M321,167.33a.45.45,0,0,1-.44.44H291.9a.44.44,0,0,1-.44-.44V143.49a.44.44,0,0,1,.44-.44h28.65a.44.44,0,0,1,.44.44Z" transform="translate(-210.06 -128.92)"/>
        <path class="cls-7" d="M320.55,142.53H291.9a.44.44,0,0,0-.44.44v24.36a.44.44,0,0,0,.44.44h28.65a.45.45,0,0,0,.44-.44V143A.44.44,0,0,0,320.55,142.53Z" transform="translate(-210.06 -128.92)"/>
        <rect class="cls-8" x="83.1" y="15.58" width="26.12" height="20.09"/>
        <polyline class="cls-9" points="115.46 38.2 110.8 37.17 81.39 37.17 76.86 38.2"/>
        <path class="cls-10" d="M286.91,167.13s.88,1.92,1.88,1.92h34.86c.93,0,1.89-1.92,1.89-1.92Z" transform="translate(-210.06 -128.92)"/>
      </g>
      <g>
        <path class="cls-11" d="M313,150.7a7.67,7.67,0,1,1-10.41-3A7.67,7.67,0,0,1,313,150.7Z" transform="translate(-210.06 -128.92)"/>
        <g>
          <path class="cls-4" d="M301.48,156.49c-.87-1.7-1.42-3,.54-4.1s2.78.09,3.75,1.74l.52.93c1,1.75,1.53,3.1-.48,4.21s-2.85-.09-3.81-1.84Zm2.12.85c.29.55.83,1.41,1.67.94s.38-1.38,0-2l-.93-1.68c-.29-.52-.9-1.7-1.81-1.2s-.26,1.64,0,2.14Z" transform="translate(-210.06 -128.92)"/>
          <path class="cls-4" d="M309,157.31l-3.61-6.56,1.22-.68,1.61,2.92h0a14.8,14.8,0,0,1-.09-2l0-1.74,1.38-.76-.07,3.71,3.77,2.81-1.39.77-2.58-2,0,.95,1,1.88Z" transform="translate(-210.06 -128.92)"/>
        </g>
      </g>
    </g>
    <g>
      <path class="cls-12" d="M324,165v12.12H312.42V161.69h8.65a3.48,3.48,0,0,1,1.78,1.12A3.4,3.4,0,0,1,324,165Z" transform="translate(-210.06 -128.92)"/>
      <path class="cls-13" d="M321.07,161.69v2.39s1.52,0,2.17,0a.72.72,0,0,1,.65.45" transform="translate(-210.06 -128.92)"/>
    </g>
    <g>
      <path class="cls-12" d="M267.83,201.47V213.6H256.28V198.15h8.66a3.48,3.48,0,0,1,1.77,1.12A3.4,3.4,0,0,1,267.83,201.47Z" transform="translate(-210.06 -128.92)"/>
      <path class="cls-13" d="M264.94,198.15v2.4s1.52,0,2.16,0a.72.72,0,0,1,.66.44" transform="translate(-210.06 -128.92)"/>
    </g>
    <g>
      <path class="cls-12" d="M288.6,266.73v12.13H277.05V263.41h8.65a3.48,3.48,0,0,1,1.78,1.12A3.4,3.4,0,0,1,288.6,266.73Z" transform="translate(-210.06 -128.92)"/>
      <path class="cls-13" d="M285.7,263.41v2.39s1.52,0,2.17,0a.72.72,0,0,1,.65.45" transform="translate(-210.06 -128.92)"/>
    </g>
    <g>
      <path class="cls-12" d="M416.77,187.72v12.13H405.22V184.4h8.65a3.44,3.44,0,0,1,1.77,1.12A3.38,3.38,0,0,1,416.77,187.72Z" transform="translate(-210.06 -128.92)"/>
      <path class="cls-13" d="M413.87,184.4v2.4s1.52,0,2.17,0a.72.72,0,0,1,.65.44" transform="translate(-210.06 -128.92)"/>
    </g>
    <g>
      <path class="cls-12" d="M325.9,166.94v12.13H314.35V163.62H323a3.48,3.48,0,0,1,1.78,1.12A3.4,3.4,0,0,1,325.9,166.94Z" transform="translate(-210.06 -128.92)"/>
      <path class="cls-13" d="M323,163.62V166s1.53,0,2.17,0a.72.72,0,0,1,.65.45" transform="translate(-210.06 -128.92)"/>
    </g>
    <g>
      <path class="cls-12" d="M418.7,189.65v12.13H407.15V186.34h8.65a3.49,3.49,0,0,1,1.78,1.11A3.4,3.4,0,0,1,418.7,189.65Z" transform="translate(-210.06 -128.92)"/>
      <path class="cls-13" d="M415.8,186.34v2.39s1.53,0,2.17,0a.7.7,0,0,1,.65.45" transform="translate(-210.06 -128.92)"/>
    </g>
    <g>
      <path class="cls-12" d="M327.83,168.87V181H316.28V165.56h8.66a4.27,4.27,0,0,1,2.89,3.31Z" transform="translate(-210.06 -128.92)"/>
      <path class="cls-13" d="M324.94,165.56V168s1.52,0,2.16,0a.73.73,0,0,1,.66.45" transform="translate(-210.06 -128.92)"/>
    </g>
    <g>
      <g>
        <path class="cls-4" d="M373.93,241.75H345.28a.44.44,0,0,0-.44.44v24.35a.45.45,0,0,0,.44.45h28.65a.45.45,0,0,0,.44-.45V242.19A.44.44,0,0,0,373.93,241.75Z" transform="translate(-210.06 -128.92)"/>
        <path class="cls-18" d="M374.37,266.54a.45.45,0,0,1-.44.45H345.28a.45.45,0,0,1-.44-.45V242.71a.44.44,0,0,1,.44-.44h28.65a.44.44,0,0,1,.44.44Z" transform="translate(-210.06 -128.92)"/>
        <path class="cls-6" d="M374.37,266.54a.45.45,0,0,1-.44.45H345.28a.45.45,0,0,1-.44-.45V242.71a.44.44,0,0,1,.44-.44h28.65a.44.44,0,0,1,.44.44Z" transform="translate(-210.06 -128.92)"/>
        <path class="cls-7" d="M373.93,241.75H345.28a.44.44,0,0,0-.44.44v24.35a.45.45,0,0,0,.44.45h28.65a.45.45,0,0,0,.44-.45V242.19A.44.44,0,0,0,373.93,241.75Z" transform="translate(-210.06 -128.92)"/>
        <rect class="cls-8" x="136.48" y="114.8" width="26.12" height="20.09"/>
        <polyline class="cls-9" points="168.84 137.42 164.18 136.39 134.78 136.39 130.24 137.42"/>
        <path class="cls-10" d="M340.29,266.34s.88,1.93,1.88,1.93H377c.93,0,1.89-1.93,1.89-1.93Z" transform="translate(-210.06 -128.92)"/>
      </g>
      <g>
        <path class="cls-11" d="M366.39,249.92a7.67,7.67,0,1,1-10.41-3A7.65,7.65,0,0,1,366.39,249.92Z" transform="translate(-210.06 -128.92)"/>
        <g>
          <path class="cls-4" d="M354.86,255.71c-.87-1.7-1.42-3,.54-4.1s2.78.09,3.75,1.73l.52.94c1,1.75,1.54,3.1-.48,4.21s-2.85-.1-3.81-1.85Zm2.12.85c.3.54.83,1.4,1.67.94s.38-1.39,0-2l-.93-1.68c-.29-.52-.9-1.7-1.81-1.2s-.26,1.63,0,2.14Z" transform="translate(-210.06 -128.92)"/>
          <path class="cls-4" d="M362.37,256.53,358.76,250l1.22-.68,1.61,2.92h0a15,15,0,0,1-.09-2l0-1.74,1.38-.76-.07,3.71,3.77,2.81-1.39.76L362.6,253l0,.95,1,1.88Z" transform="translate(-210.06 -128.92)"/>
        </g>
      </g>
    </g>
    <g>
      <path class="cls-19" d="M445.2,252.31v41.23H369V245.67h70.4s1.45.16,3.55,2.24A6.78,6.78,0,0,1,445.2,252.31Z" transform="translate(-210.06 -128.92)"/>
      <path class="cls-3" d="M439.4,245.67v4.79s3.05-.06,4.34,0a1.44,1.44,0,0,1,1.3.89" transform="translate(-210.06 -128.92)"/>
    </g>
    <g>
      <path class="cls-12" d="M290.53,268.66v12.13H279V265.35h8.65a4.26,4.26,0,0,1,2.9,3.31Z" transform="translate(-210.06 -128.92)"/>
      <path class="cls-13" d="M287.63,265.35v2.39s1.53,0,2.17,0a.7.7,0,0,1,.65.45" transform="translate(-210.06 -128.92)"/>
    </g>
    <g>
      <path class="cls-12" d="M269.77,203.4v12.13H258.22V200.09h8.65a3.49,3.49,0,0,1,1.77,1.11A3.38,3.38,0,0,1,269.77,203.4Z" transform="translate(-210.06 -128.92)"/>
      <path class="cls-13" d="M266.87,200.09v2.39s1.52,0,2.17,0a.72.72,0,0,1,.65.45" transform="translate(-210.06 -128.92)"/>
    </g>
    <path class="cls-9" d="M261.55,187.76a19.57,19.57,0,0,1,1.28,1.74l1.4-2.1a20,20,0,0,1-2.11-.5,15.88,15.88,0,0,1-2.12-.79A14.64,14.64,0,0,1,261.55,187.76Z" transform="translate(-210.06 -128.92)"/>
    <path class="cls-9" d="M323.57,147.2c.86.09,1.44.09,2.16.11l-1,2.32a21.59,21.59,0,0,0-1.57-1.49,16.13,16.13,0,0,0-1.83-1.34A14.82,14.82,0,0,0,323.57,147.2Z" transform="translate(-210.06 -128.92)"/>
    <path class="cls-9" d="M282.84,253.1a20.75,20.75,0,0,0,2-.75v2.53a18.55,18.55,0,0,0-2-.75,15.37,15.37,0,0,0-2.21-.52A15.1,15.1,0,0,0,282.84,253.1Z" transform="translate(-210.06 -128.92)"/>
    <path class="cls-9" d="M386.89,193a21.56,21.56,0,0,0-.27,2.14L384.38,194a20.5,20.5,0,0,0,1.59-1.47,14.11,14.11,0,0,0,1.46-1.73A15.31,15.31,0,0,0,386.89,193Z" transform="translate(-210.06 -128.92)"/>
    <g>
      <g>
        <path class="cls-12" d="M327.72,247.8v16H312.47V243.42h11.42a5.69,5.69,0,0,1,3.83,4.38Z" transform="translate(-210.06 -128.92)"/>
        <path class="cls-13" d="M323.89,243.42v3.16s2,0,2.86,0a.94.94,0,0,1,.86.59" transform="translate(-210.06 -128.92)"/>
      </g>
      <g>
        <text class="cls-20" transform="translate(104.24 130.53)">A<tspan class="cls-21" x="3.78" y="0"> </tspan><tspan class="cls-22" x="8.51" y="0">B</tspan></text>
        <path class="cls-15" d="M320.64,256.3a4.88,4.88,0,0,0,1.61,1.3v.17a4,4,0,0,0-.77.49,7.23,7.23,0,0,0-.85.84h-.31a4.78,4.78,0,0,1,.77-1.21h-2.27v-.4h2.27q-.29-.35-.42-.54c-.06-.13-.18-.35-.35-.65Z" transform="translate(-210.06 -128.92)"/>
      </g>
      <g>
        <text class="cls-20" transform="translate(104.24 124.17)">W<tspan class="cls-21" x="3.78" y="0"> </tspan><tspan class="cls-22" x="8.51" y="0">L</tspan></text>
        <path class="cls-15" d="M320.64,249.94a4.82,4.82,0,0,0,1.61,1.29v.17a4.6,4.6,0,0,0-.77.5,7.23,7.23,0,0,0-.85.84h-.31a4.78,4.78,0,0,1,.77-1.21h-2.27v-.41h2.27l-.42-.53c-.06-.14-.18-.35-.35-.65Z" transform="translate(-210.06 -128.92)"/>
      </g>
    </g>
    <g>
      <g>
        <path class="cls-12" d="M360.47,148.39v16H345.22V144h11.42a4.61,4.61,0,0,1,2.34,1.48A4.45,4.45,0,0,1,360.47,148.39Z" transform="translate(-210.06 -128.92)"/>
        <path class="cls-13" d="M356.64,144v3.16s2,0,2.86,0a.94.94,0,0,1,.86.59" transform="translate(-210.06 -128.92)"/>
      </g>
      <g>
        <text class="cls-20" transform="translate(136.99 31.12)">A<tspan class="cls-21" x="3.78" y="0"> </tspan><tspan class="cls-22" x="8.51" y="0">B</tspan></text>
        <path class="cls-15" d="M353.4,156.89a4.76,4.76,0,0,0,1.6,1.3v.17a5.26,5.26,0,0,0-.77.49,7.46,7.46,0,0,0-.85.85h-.3a4.78,4.78,0,0,1,.76-1.21h-2.26v-.41h2.26l-.42-.53c-.06-.14-.18-.35-.34-.66Z" transform="translate(-210.06 -128.92)"/>
      </g>
      <g>
        <text class="cls-20" transform="translate(136.99 24.76)">W<tspan class="cls-21" x="3.78" y="0"> </tspan><tspan class="cls-22" x="8.51" y="0">L</tspan></text>
        <path class="cls-15" d="M353.4,150.53a4.76,4.76,0,0,0,1.6,1.3V152a4.54,4.54,0,0,0-.77.49,8.13,8.13,0,0,0-.85.84h-.3a5,5,0,0,1,.76-1.21h-2.26v-.4h2.26q-.29-.34-.42-.54c-.06-.13-.18-.34-.34-.65Z" transform="translate(-210.06 -128.92)"/>
      </g>
    </g>
    <g>
      <g>
        <path class="cls-12" d="M379.29,211.67v16H364.05V207.29h11.42a4.57,4.57,0,0,1,2.34,1.47A4.5,4.5,0,0,1,379.29,211.67Z" transform="translate(-210.06 -128.92)"/>
        <path class="cls-13" d="M375.47,207.29v3.15s2,0,2.86,0a1,1,0,0,1,.86.6" transform="translate(-210.06 -128.92)"/>
      </g>
      <g>
        <text class="cls-20" transform="translate(155.82 94.4)">A<tspan class="cls-21" x="3.78" y="0"> </tspan><tspan class="cls-22" x="8.51" y="0">B</tspan></text>
        <path class="cls-15" d="M372.22,220.17a4.78,4.78,0,0,0,1.61,1.3v.17a4.39,4.39,0,0,0-.78.49,7.28,7.28,0,0,0-.84.84h-.31a4.78,4.78,0,0,1,.77-1.21H370.4v-.4h2.27q-.29-.35-.42-.54c-.06-.13-.18-.35-.35-.65Z" transform="translate(-210.06 -128.92)"/>
      </g>
      <g>
        <text class="cls-20" transform="translate(155.82 88.03)">W<tspan class="cls-21" x="3.78" y="0"> </tspan><tspan class="cls-22" x="8.51" y="0">L</tspan></text>
        <path class="cls-15" d="M372.22,213.8a4.66,4.66,0,0,0,1.61,1.3v.17a5.13,5.13,0,0,0-.78.5,6.55,6.55,0,0,0-.84.84h-.31a4.78,4.78,0,0,1,.77-1.21H370.4V215h2.27l-.42-.53c-.06-.14-.18-.35-.35-.66Z" transform="translate(-210.06 -128.92)"/>
      </g>
    </g>
    <g>
      <path class="cls-19" d="M450.26,255.12v41.24H374.07V248.49h70.4s1.45.16,3.55,2.24A6.78,6.78,0,0,1,450.26,255.12Z" transform="translate(-210.06 -128.92)"/>
      <path class="cls-3" d="M444.47,248.49v4.78s3-.06,4.33,0a1.44,1.44,0,0,1,1.31.9" transform="translate(-210.06 -128.92)"/>
    </g>
    <g>
      <g>
        <rect class="cls-23" x="166.55" y="141.47" width="71.1" height="10.11" rx="2"/>
        <rect class="cls-24" x="166.55" y="141.47" width="71.1" height="10.11" rx="2"/>
      </g>
      <text class="cls-20" transform="translate(168.51 148.42)">2 Nick<tspan class="cls-21" x="22.68" y="0"> </tspan><tspan x="27.41" y="0">Alice</tspan></text>
      <g>
        <path class="cls-15" d="M432.14,272a.12.12,0,0,1-.09.12l-.17.07c-.08.05-.16.32-.22.81a6.32,6.32,0,0,0-.08.94l0,2.73a3,3,0,0,1-.15.78c-.13.37-.29.55-.48.55s-.57-.28-.82-.82c-.1-.22-.24-.63-.43-1.23l-.81-2.71c-.07,0-.1.07-.11.18s-.06.58-.14,1.26a9.48,9.48,0,0,0-.1,1.26,4,4,0,0,0,.18,1.67l.1.16c0,.07-.05.13-.13.19a.45.45,0,0,1-.24.09c-.24,0-.36-.39-.36-1.18,0-.11,0-.26,0-.46s0-.35,0-.46a8.86,8.86,0,0,1,.12-1.18,8.44,8.44,0,0,0,.11-1.19v-1.16a.15.15,0,0,0,0-.06.18.18,0,0,1,0-.06c0-.16.15-.23.46-.23a.56.56,0,0,1,.52.23,1.49,1.49,0,0,1,.07.4c0,.14,0,.29,0,.44a19.5,19.5,0,0,0,.65,2.36c.42,1.27.72,1.91.9,1.91s.24-.32.24-1l0-2.71a3.94,3.94,0,0,1,.17-1.06c.15-.51.35-.77.59-.77A.54.54,0,0,1,432.14,272Z" transform="translate(-210.06 -128.92)"/>
        <path class="cls-15" d="M433.19,274.53a2.52,2.52,0,0,1-.08.49,2.18,2.18,0,0,0-.07.48v2a2.8,2.8,0,0,0,.08.54.09.09,0,0,1-.09.07q-.45,0-.45-.42v-3.3a.41.41,0,0,1,.46,0Q433.19,274.44,433.19,274.53Zm.17-1.35c0,.2-.1.31-.29.31a.52.52,0,0,1-.32-.13.38.38,0,0,1-.14-.29c0-.2.1-.3.31-.3a.49.49,0,0,1,.31.11A.42.42,0,0,1,433.36,273.18Z" transform="translate(-210.06 -128.92)"/>
        <path class="cls-15" d="M437,277.12a1,1,0,0,1-.36.58,1.63,1.63,0,0,1-.61.43,1.67,1.67,0,0,1-.52.1,1.18,1.18,0,0,1-1-.48,1.79,1.79,0,0,1-.32-1.1,4.75,4.75,0,0,1,.3-1.55c.24-.71.55-1.07.91-1.07a1.52,1.52,0,0,1,.7.26c.28.17.45.34.48.49a2.67,2.67,0,0,1,.07.55q0,1-.3,1a.41.41,0,0,1-.17-.05c-.07,0-.1-.08-.1-.13a.23.23,0,0,1,0-.09l.05-.08a2.61,2.61,0,0,0,0-.54c0-.67-.16-1-.45-1s-.61.31-.81.91a4.18,4.18,0,0,0-.24,1.34,2,2,0,0,0,.15.81.68.68,0,0,0,.64.42,1,1,0,0,0,.61-.27,1.52,1.52,0,0,0,.47-.52l.11-.25a.15.15,0,0,1,.13-.06s.08,0,.13.12A.37.37,0,0,1,437,277.12Z" transform="translate(-210.06 -128.92)"/>
        <path class="cls-15" d="M441,278.4a.66.66,0,0,1-.36.18c-.13,0-.36-.19-.68-.57s-.63-.74-.65-.76a3,3,0,0,1-.38-.42,1.78,1.78,0,0,0-.42-.39l-.16.21v.9a.61.61,0,0,0,.06.22.7.7,0,0,1,.06.23s0,.07-.07.11a.3.3,0,0,1-.14.05q-.36,0-.36-.39v-1.26c0-.08,0-.19,0-.35a2.75,2.75,0,0,0,0-.34v-2.49a6.09,6.09,0,0,0,0-.83.82.82,0,0,0,0-.2,1,1,0,0,1,0-.21c0-.06.05-.12.14-.18a.51.51,0,0,1,.25-.09.45.45,0,0,1,.18.05.14.14,0,0,1,.09.12,1.33,1.33,0,0,1,0,.22,4.74,4.74,0,0,0-.06.94l0,2.61,0,.05a5,5,0,0,0,.8-.67l.63-.65a2.34,2.34,0,0,1,.61-.52.24.24,0,0,1,.21.12.42.42,0,0,1,.08.26v0a10.69,10.69,0,0,0-1,.81c-.51.45-.76.74-.76.89s.08.18.27.4l.84,1a3.39,3.39,0,0,0,1,.81Z" transform="translate(-210.06 -128.92)"/>
      </g>
      <path class="cls-15" d="M403.47,274.24a4.76,4.76,0,0,0,1.6,1.3v.17a5.26,5.26,0,0,0-.77.49,7.46,7.46,0,0,0-.85.85h-.31a4.87,4.87,0,0,1,.77-1.21h-2.26v-.41h2.26q-.29-.35-.42-.54c-.06-.13-.18-.34-.35-.65Z" transform="translate(-210.06 -128.92)"/>
    </g>
    <g>
      <g>
        <rect class="cls-23" x="166.55" y="126.44" width="71.1" height="10.11" rx="2"/>
        <rect class="cls-24" x="166.55" y="126.44" width="71.1" height="10.11" rx="2"/>
      </g>
      <text class="cls-20" transform="translate(168.51 133.39)">1 Rick<tspan class="cls-21" x="22.68" y="0"> </tspan><tspan x="27.41" y="0">Mike</tspan></text>
      <g>
        <path class="cls-15" d="M432.63,263v0a.18.18,0,0,1-.15.09.23.23,0,0,1-.17-.05c-.05-.24-.45-.63-1.21-1.17a3.77,3.77,0,0,0-1.56-.81H429v.56a5.13,5.13,0,0,0,.06.54,1.71,1.71,0,0,0,.1.5,1.25,1.25,0,0,0,.15.22c0,.14-.07.21-.23.21a.46.46,0,0,1-.4-.19,5.64,5.64,0,0,1-.13-1.76c0-.09-.1-.16-.32-.23s-.31-.14-.31-.23.19-.25.58-.36a7.67,7.67,0,0,0,.08-.87c0-.45,0-.74.05-.87s0-.25.08-.54a3.15,3.15,0,0,0,.06-.55.59.59,0,0,0-.24,0c-.13,0-.2-.05-.2-.15a.22.22,0,0,1,.18-.23l.26-.08a.59.59,0,0,1,.12-.19l.15,0a.29.29,0,0,1,.2.1.33.33,0,0,0,.18.1l.13,0h.12a3.28,3.28,0,0,1,1.69.41,1.55,1.55,0,0,1,.83,1.43,1.8,1.8,0,0,1-.45,1.26,4.85,4.85,0,0,1-1.12.76.43.43,0,0,0-.13.05,7,7,0,0,0,.81.58,6.37,6.37,0,0,1,.9.68A1.11,1.11,0,0,1,432.63,263Zm-.87-4.2a1.15,1.15,0,0,0-.62-1,2.33,2.33,0,0,0-1.24-.31,1.74,1.74,0,0,0-.43,0l-.12.18a1.2,1.2,0,0,0-.14.55,3.48,3.48,0,0,1,0,.58,10.29,10.29,0,0,0-.14,1.63,3.46,3.46,0,0,0,.82.25,1.18,1.18,0,0,0,.36-.07,2.25,2.25,0,0,0,1.08-.66A1.62,1.62,0,0,0,431.76,258.77Z" transform="translate(-210.06 -128.92)"/>
        <path class="cls-15" d="M434,259.5a2.34,2.34,0,0,1-.07.49,2.34,2.34,0,0,0-.08.48v2a2.29,2.29,0,0,0,.09.54.1.1,0,0,1-.1.07c-.29,0-.44-.14-.44-.42v-3.3a.4.4,0,0,1,.45,0Q434,259.41,434,259.5Zm.18-1.35c0,.2-.1.31-.29.31a.5.5,0,0,1-.32-.13.38.38,0,0,1-.14-.29.27.27,0,0,1,.3-.3.42.42,0,0,1,.31.11A.39.39,0,0,1,434.21,258.15Z" transform="translate(-210.06 -128.92)"/>
        <path class="cls-15" d="M437.84,262.09c0,.14-.12.33-.37.58a1.54,1.54,0,0,1-.6.43,1.72,1.72,0,0,1-.52.1,1.17,1.17,0,0,1-1-.48,1.74,1.74,0,0,1-.33-1.1,4.75,4.75,0,0,1,.3-1.55c.25-.71.55-1.06.92-1.06a1.45,1.45,0,0,1,.69.25c.29.17.45.34.49.49a2.64,2.64,0,0,1,.06.55q0,1-.3,1a.51.51,0,0,1-.17-.05c-.06,0-.1-.08-.1-.13a.31.31,0,0,1,0-.09l.05-.08a2.91,2.91,0,0,0,0-.54c0-.67-.15-1-.45-1s-.6.31-.81.91a4.15,4.15,0,0,0-.23,1.34,2,2,0,0,0,.15.81.68.68,0,0,0,.64.42,1,1,0,0,0,.61-.27,1.62,1.62,0,0,0,.47-.52c0-.06.06-.14.11-.25a.14.14,0,0,1,.12-.06s.08,0,.13.12A.41.41,0,0,1,437.84,262.09Z" transform="translate(-210.06 -128.92)"/>
        <path class="cls-15" d="M441.81,263.37a.66.66,0,0,1-.36.18q-.19,0-.69-.57c-.41-.48-.62-.74-.65-.76a3.88,3.88,0,0,1-.38-.42,1.59,1.59,0,0,0-.41-.39l-.17.21v.9a.49.49,0,0,0,.07.22.7.7,0,0,1,.06.23s0,.07-.07.11a.33.33,0,0,1-.15.05c-.23,0-.36-.13-.36-.39v-1.26a3,3,0,0,1,0-.35,2.75,2.75,0,0,0,0-.34V258.3a6.09,6.09,0,0,0,0-.83s0-.1,0-.2a1,1,0,0,1,0-.21c0-.06.05-.12.14-.18a.48.48,0,0,1,.25-.09.41.41,0,0,1,.17,0c.07,0,.1.07.1.12s0,.08-.05.22a4.51,4.51,0,0,0-.07.94l0,2.61.05,0a5,5,0,0,0,.79-.67c.22-.21.43-.43.64-.65s.54-.52.6-.52a.25.25,0,0,1,.22.12.41.41,0,0,1,.07.26v.05a12.25,12.25,0,0,0-1,.8c-.51.45-.77.75-.77.9a1.14,1.14,0,0,0,.27.4q.44.5.84,1a3.44,3.44,0,0,0,1,.81Z" transform="translate(-210.06 -128.92)"/>
      </g>
      <path class="cls-15" d="M403.35,259.21a4.78,4.78,0,0,0,1.61,1.3v.17a5.94,5.94,0,0,0-.78.49,7.51,7.51,0,0,0-.84.85H403a4.78,4.78,0,0,1,.77-1.21h-2.27v-.41h2.27l-.42-.53c-.06-.14-.18-.35-.35-.66Z" transform="translate(-210.06 -128.92)"/>
    </g>
    <path class="cls-15" d="M329.89,264.4a20.18,20.18,0,0,0,2.13.34l-1.23,2.2a19.49,19.49,0,0,0-1.4-1.64,14.34,14.34,0,0,0-1.68-1.53A14.85,14.85,0,0,0,329.89,264.4Z" transform="translate(-210.06 -128.92)"/>
    <g>
      <path class="cls-19" d="M459,285.74V327H382.77V279.11h70.4s1.45.16,3.55,2.23A6.79,6.79,0,0,1,459,285.74Z" transform="translate(-210.06 -128.92)"/>
      <path class="cls-3" d="M453.17,279.11v4.78s3-.06,4.33,0a1.44,1.44,0,0,1,1.31.9" transform="translate(-210.06 -128.92)"/>
    </g>
    <g>
      <g>
        <rect class="cls-23" x="175.25" y="172.45" width="71.1" height="10.11" rx="2"/>
        <rect class="cls-24" x="175.25" y="172.45" width="71.1" height="10.11" rx="2"/>
      </g>
      <text class="cls-20" transform="translate(177.21 179.4)">1 Alice<tspan class="cls-21" x="26.46" y="0"> </tspan><tspan class="cls-22" x="31.19" y="0">Bob</tspan></text>
      <g>
        <path class="cls-15" d="M441,307.33c0,.19-.07.29-.22.29a.43.43,0,0,1-.19,0,2.81,2.81,0,0,0,.22,1,.23.23,0,0,1-.11.19.48.48,0,0,1-.23.07.6.6,0,0,1-.24-.06,1.06,1.06,0,0,1-.07-.45v-.6a.5.5,0,0,0,0-.21h-.23a1,1,0,0,1-.21,0,11.09,11.09,0,0,0-1.22.11,3.12,3.12,0,0,0-1.09.25,1.65,1.65,0,0,0-.17.65c-.05.32-.07.55-.08.7a.16.16,0,0,1-.13.07.46.46,0,0,1-.26-.12.32.32,0,0,1-.14-.23,1.8,1.8,0,0,1,.07-.24,1.22,1.22,0,0,0,.08-.23,12.64,12.64,0,0,1,.59-2.21c.79-2.25,1.4-3.37,1.83-3.37s.82.58,1.08,1.76c.09.41.19,1.21.31,2.38a1,1,0,0,0,.27.1C441,307.21,441,307.26,441,307.33Zm-.87-.26c-.15-1.06-.25-1.7-.29-1.92q-.3-1.51-.63-1.5t-.93,1.38c-.21.58-.41,1.16-.62,1.73,0,.08-.07.2-.11.35s0,.22.12.22l.55-.09C438.51,307.19,439.15,307.13,440.16,307.07Z" transform="translate(-210.06 -128.92)"/>
        <path class="cls-15" d="M442.37,308.94c0,.16-.08.23-.25.23s-.39-.54-.39-1.62l0-4.05a1.91,1.91,0,0,0,0-.28c0-.12,0-.21,0-.27a.48.48,0,0,1,.29-.13.45.45,0,0,1,.25.09.26.26,0,0,1,.12.22.79.79,0,0,1,0,.23c0,.12-.06.2-.07.23a10.68,10.68,0,0,0-.1,1.71c0,1.18,0,1.75,0,1.71a10,10,0,0,0,.14,1.66.79.79,0,0,0,0,.12A.34.34,0,0,1,442.37,308.94Z" transform="translate(-210.06 -128.92)"/>
        <path class="cls-15" d="M443.83,305.51a1.93,1.93,0,0,1-.08.49,2.27,2.27,0,0,0-.07.48v2a2.29,2.29,0,0,0,.09.54c0,.05-.06.07-.1.07-.3,0-.44-.14-.44-.42v-3.3a.49.49,0,0,1,.22-.06.49.49,0,0,1,.23.06Q443.83,305.42,443.83,305.51Zm.17-1.35c0,.21-.09.31-.29.31a.45.45,0,0,1-.31-.13.36.36,0,0,1-.15-.29.27.27,0,0,1,.31-.3.49.49,0,0,1,.31.11A.38.38,0,0,1,444,304.16Z" transform="translate(-210.06 -128.92)"/>
        <path class="cls-15" d="M447.64,308.1a1,1,0,0,1-.37.58,1.57,1.57,0,0,1-.6.43,1.72,1.72,0,0,1-.52.1,1.17,1.17,0,0,1-1-.48,1.74,1.74,0,0,1-.33-1.1,4.75,4.75,0,0,1,.3-1.55c.25-.71.55-1.06.92-1.06a1.49,1.49,0,0,1,.69.25c.29.17.45.34.49.49a2.64,2.64,0,0,1,.06.55q0,1-.3,1a.45.45,0,0,1-.17-.05c-.06,0-.1-.08-.1-.13a.16.16,0,0,1,0-.09l0-.08a2,2,0,0,0,0-.54c0-.66-.15-1-.45-1s-.6.31-.81.91a4.15,4.15,0,0,0-.23,1.34,2,2,0,0,0,.15.81.69.69,0,0,0,.64.43,1.09,1.09,0,0,0,.61-.28,1.71,1.71,0,0,0,.47-.51c0-.06.06-.15.11-.26a.14.14,0,0,1,.12-.06s.08,0,.13.12A.41.41,0,0,1,447.64,308.1Z" transform="translate(-210.06 -128.92)"/>
        <path class="cls-15" d="M451.08,308.14c0,.26-.17.5-.53.71a1.73,1.73,0,0,1-.9.29q-1.2,0-1.2-1.53a4.93,4.93,0,0,1,.24-1.45c.22-.67.49-1,.83-1a1.51,1.51,0,0,1,.94.44,1.18,1.18,0,0,1,.52.87,1.29,1.29,0,0,1-.45,1,1.49,1.49,0,0,1-1,.41.7.7,0,0,1-.23-.09.72.72,0,0,0-.24-.09c-.08,0-.11,0-.11.07,0,.69.22,1,.68,1a1.07,1.07,0,0,0,.65-.23,2.13,2.13,0,0,0,.39-.43c.12-.15.19-.22.23-.22S451.08,308,451.08,308.14Zm-.62-1.66a1.07,1.07,0,0,0-.18-.59.55.55,0,0,0-.47-.27.67.67,0,0,0-.59.45,1.79,1.79,0,0,0-.19.78.62.62,0,0,0,.17.44.54.54,0,0,0,.43.17.74.74,0,0,0,.61-.31A1,1,0,0,0,450.46,306.48Z" transform="translate(-210.06 -128.92)"/>
      </g>
      <path class="cls-15" d="M416.22,305.29a4.88,4.88,0,0,0,1.61,1.3v.17a4.39,4.39,0,0,0-.78.49,8.18,8.18,0,0,0-.84.84h-.31a4.78,4.78,0,0,1,.77-1.21H414.4v-.4h2.27q-.29-.35-.42-.54c-.06-.13-.18-.35-.35-.65Z" transform="translate(-210.06 -128.92)"/>
    </g>
    <g>
      <g>
        <rect class="cls-23" x="175.25" y="157.42" width="71.1" height="10.11" rx="2"/>
        <rect class="cls-24" x="175.25" y="157.42" width="71.1" height="10.11" rx="2"/>
      </g>
      <text class="cls-20" transform="translate(177.21 164.37)">5 Wilma<tspan class="cls-25" x="26.46" y="0"> </tspan><tspan x="30.88" y="0">Lisa</tspan></text>
      <g>
        <path class="cls-15" d="M441.67,289.85a10.08,10.08,0,0,1-.29,2.33c-.27,1.16-.63,1.74-1.09,1.74s-.57-.22-.72-.66a5.6,5.6,0,0,1-.25-1.34c-.06-.64-.1-1-.13-1.13q0,.1-.36,1.62c-.24,1.11-.52,1.67-.85,1.67a.66.66,0,0,1-.5-.25,5.38,5.38,0,0,1-.54-2.45c-.08-.94-.12-1.88-.12-2.84,0-.37.14-.55.41-.55a.85.85,0,0,1,.37.11v.25a.26.26,0,0,0-.18.1.71.71,0,0,0-.07.29,3,3,0,0,0,0,.43v.34a21.2,21.2,0,0,0,.12,2.25c.11,1.1.28,1.65.5,1.65s.25-.22.4-.68a5.85,5.85,0,0,0,.24-.88,13,13,0,0,0,.32-2.59c0-.05,0-.1.12-.16a.36.36,0,0,1,.18-.09.61.61,0,0,1,.37.14.44.44,0,0,1,.18.32,1.62,1.62,0,0,0-.16.83,13.38,13.38,0,0,0,.12,1.77c.12.88.29,1.32.53,1.32s.58-.53.78-1.6a11.67,11.67,0,0,0,.22-2,2.69,2.69,0,0,0-.09-.78l-.15-.39a1.18,1.18,0,0,1-.09-.38c0-.31.08-.47.24-.47s.3.3.39.91A8.53,8.53,0,0,1,441.67,289.85Z" transform="translate(-210.06 -128.92)"/>
        <path class="cls-15" d="M443.17,290.48a2.34,2.34,0,0,1-.07.49,2.34,2.34,0,0,0-.08.48v2a2.29,2.29,0,0,0,.09.54.1.1,0,0,1-.1.07c-.29,0-.44-.14-.44-.42v-3.3a.4.4,0,0,1,.45,0Q443.17,290.39,443.17,290.48Zm.18-1.35c0,.2-.1.31-.29.31a.5.5,0,0,1-.32-.13.38.38,0,0,1-.14-.29c0-.2.1-.3.31-.3a.46.46,0,0,1,.3.11A.39.39,0,0,1,443.35,289.13Z" transform="translate(-210.06 -128.92)"/>
        <path class="cls-15" d="M444.82,293.91c0,.16-.08.23-.25.23s-.39-.54-.39-1.63l0-4a1.91,1.91,0,0,0,0-.28,1.53,1.53,0,0,1,0-.27.49.49,0,0,1,.28-.13.4.4,0,0,1,.25.09.25.25,0,0,1,.13.22.79.79,0,0,1,0,.23l-.07.22a10.64,10.64,0,0,0-.11,1.71V292a9.07,9.07,0,0,0,.14,1.67.31.31,0,0,0,0,.12A.34.34,0,0,1,444.82,293.91Z" transform="translate(-210.06 -128.92)"/>
        <path class="cls-15" d="M449.76,294.06a.59.59,0,0,1-.29.12.46.46,0,0,1-.18-.06v-1c0-1.85-.19-2.78-.56-2.78s-.42.29-.59.87a4.47,4.47,0,0,0-.2,1.17v.9a.71.71,0,0,0,.05.2,1.3,1.3,0,0,1,0,.19.22.22,0,0,1-.1.15.32.32,0,0,1-.17.07.26.26,0,0,1-.18-.11.31.31,0,0,1-.1-.2v-1.81a3.82,3.82,0,0,0-.1-.72c-.09-.38-.19-.56-.31-.56s-.16.08-.3.25a3.34,3.34,0,0,0-.67,2.12,3.15,3.15,0,0,0,0,.46c0,.2,0,.35,0,.44s-.07.27-.22.27a.23.23,0,0,1-.19-.09,1.16,1.16,0,0,1-.08-.4,4.4,4.4,0,0,1-.05-.44V291c0-.61.07-.91.22-.91a.24.24,0,0,1,.18.08.24.24,0,0,1,.1.18,2.67,2.67,0,0,1-.06.49c0,.27-.05.43-.06.5l.05,0c.11-.26.22-.51.34-.77s.35-.5.57-.5.58.34.81,1a1.76,1.76,0,0,0,.23-.45,2.46,2.46,0,0,1,.24-.49.51.51,0,0,1,.42-.21.81.81,0,0,1,.54.32,3.1,3.1,0,0,1,.55,2.12Z" transform="translate(-210.06 -128.92)"/>
        <path class="cls-15" d="M453.37,294.26c0,.08-.07.13-.2.13a.24.24,0,0,1-.26-.18s0-.14,0-.35a.34.34,0,0,0,0-.15,1.79,1.79,0,0,1-1.09.37,1.65,1.65,0,0,1-.79-.22.75.75,0,0,1-.43-.63c0-.25.17-.49.52-.72a1.53,1.53,0,0,1,.86-.33h.89a.24.24,0,0,0,.06-.19,3,3,0,0,0-.11-.91.63.63,0,0,0-.63-.51.78.78,0,0,0-.63.43,1.38,1.38,0,0,0-.27.76v.1c0,.05,0,.07-.07.07a.29.29,0,0,1-.19-.11.26.26,0,0,1-.11-.19A1.77,1.77,0,0,1,451,291a1.81,1.81,0,0,1,.33-.58.75.75,0,0,1,.56-.25,1.55,1.55,0,0,1,.95.33,1,1,0,0,1,.46.84Zm-.47-1.43c0-.24-.19-.36-.56-.36a1.87,1.87,0,0,0-.78.15.63.63,0,0,0-.42.6.41.41,0,0,0,.22.37.84.84,0,0,0,.45.12,1.22,1.22,0,0,0,.74-.25A.77.77,0,0,0,452.9,292.83Z" transform="translate(-210.06 -128.92)"/>
      </g>
      <path class="cls-15" d="M415.88,290.28a4.76,4.76,0,0,0,1.6,1.3v.17a5.26,5.26,0,0,0-.77.49,8.13,8.13,0,0,0-.85.84h-.3a4.44,4.44,0,0,1,.77-1.2h-2.27v-.41h2.27a6,6,0,0,1-.42-.54c-.07-.13-.19-.34-.35-.65Z" transform="translate(-210.06 -128.92)"/>
    </g>
    <g>
      <path class="cls-26" d="M333.92,189.67c-34.68,0-62.79,20.18-62.79,45.08s28.11,45.08,62.79,45.08c17.68,0,33.64-5.26,45.05-13.7l4.72-6.27c.75.11,1.47.18,2.16.22,6.85-7.22,10.86-15.94,10.86-25.33C396.71,209.85,368.6,189.67,333.92,189.67Z" transform="translate(-210.06 -128.92)"/>
      <path class="cls-27" d="M378.67,265.47a55.12,55.12,0,0,0,7.06-6.42c-.71-.05-1.44-.12-2.21-.25Z" transform="translate(-210.06 -128.92)"/>
    </g>
    <line class="cls-28" x1="170.37" y1="75.76" x2="148.15" y2="119.09"/>
    <line class="cls-28" x1="74.26" y1="124.69" x2="144.17" y2="124.69"/>
    <g>
      <path class="cls-4" d="M280.39,258.36V243.68a.44.44,0,0,0-.44-.43H272" transform="translate(-210.06 -128.92)"/>
      <path class="cls-29" d="M272.1,243.76H280a.44.44,0,0,1,.44.44v14.16" transform="translate(-210.06 -128.92)"/>
      <path class="cls-30" d="M280.39,258.36V243.68a.44.44,0,0,0-.44-.43H272" transform="translate(-210.06 -128.92)"/>
      <polyline class="cls-31" points="62.62 116.29 68.62 116.29 68.62 127.94"/>
    </g>
    <line class="cls-28" x1="77.79" y1="75.44" x2="146.44" y2="120.79"/>
    <g>
      <g>
        <path class="cls-4" d="M373.93,241.75H345.28a.44.44,0,0,0-.44.44v24.35a.45.45,0,0,0,.44.45h28.65a.45.45,0,0,0,.44-.45V242.19A.44.44,0,0,0,373.93,241.75Z" transform="translate(-210.06 -128.92)"/>
        <path class="cls-32" d="M374.37,266.54a.45.45,0,0,1-.44.45H345.28a.45.45,0,0,1-.44-.45V242.71a.44.44,0,0,1,.44-.44h28.65a.44.44,0,0,1,.44.44Z" transform="translate(-210.06 -128.92)"/>
        <path class="cls-29" d="M374.37,266.54a.45.45,0,0,1-.44.45H345.28a.45.45,0,0,1-.44-.45V242.71a.44.44,0,0,1,.44-.44h28.65a.44.44,0,0,1,.44.44Z" transform="translate(-210.06 -128.92)"/>
        <path class="cls-30" d="M373.93,241.75H345.28a.44.44,0,0,0-.44.44v24.35a.45.45,0,0,0,.44.45h28.65a.45.45,0,0,0,.44-.45V242.19A.44.44,0,0,0,373.93,241.75Z" transform="translate(-210.06 -128.92)"/>
        <rect class="cls-31" x="136.48" y="114.8" width="26.12" height="20.09"/>
        <polyline class="cls-33" points="168.84 137.42 164.18 136.39 134.78 136.39 130.24 137.42"/>
        <path class="cls-34" d="M340.29,266.34s.88,1.93,1.88,1.93H375c.92,0,2.33-1.93,2.33-1.93Z" transform="translate(-210.06 -128.92)"/>
      </g>
      <g>
        <path class="cls-35" d="M366.39,249.92a7.67,7.67,0,1,1-10.41-3A7.65,7.65,0,0,1,366.39,249.92Z" transform="translate(-210.06 -128.92)"/>
        <g>
          <path class="cls-4" d="M354.86,255.71c-.87-1.7-1.42-3,.54-4.1s2.78.09,3.75,1.73l.52.94c1,1.75,1.54,3.1-.48,4.21s-2.85-.1-3.81-1.85Zm2.12.85c.3.54.83,1.4,1.67.94s.38-1.39,0-2l-.93-1.68c-.29-.52-.9-1.7-1.81-1.2s-.26,1.63,0,2.14Z" transform="translate(-210.06 -128.92)"/>
          <path class="cls-4" d="M362.37,256.53,358.76,250l1.22-.68,1.61,2.92h0a15,15,0,0,1-.09-2l0-1.74,1.38-.76-.07,3.71,3.77,2.81-1.39.76L362.6,253l0,.94,1,1.89Z" transform="translate(-210.06 -128.92)"/>
        </g>
      </g>
    </g>
    <path class="cls-36" d="M369,272.21V245.67h26s-3.71,9.79-11,16.41A75.12,75.12,0,0,1,369,272.21Z" transform="translate(-210.06 -128.92)"/>
    <path class="cls-33" d="M282.84,253.1a20.75,20.75,0,0,0,2-.75v2.53a18.55,18.55,0,0,0-2-.75,15.37,15.37,0,0,0-2.21-.52A15.1,15.1,0,0,0,282.84,253.1Z" transform="translate(-210.06 -128.92)"/>
    <g>
      <g>
        <path class="cls-37" d="M322.38,247.79v16H307.13V243.42h11.42a4.53,4.53,0,0,1,2.34,1.47A4.47,4.47,0,0,1,322.38,247.79Z" transform="translate(-210.06 -128.92)"/>
        <path class="cls-38" d="M318.55,243.42v3.15s2,0,2.86,0a1,1,0,0,1,.86.6" transform="translate(-210.06 -128.92)"/>
      </g>
      <g>
        <text class="cls-39" transform="translate(98.9 130.53)">A<tspan class="cls-21" x="3.78" y="0"> </tspan><tspan class="cls-22" x="8.51" y="0">B</tspan></text>
        <path d="M315.31,256.3a4.76,4.76,0,0,0,1.6,1.3v.17a4,4,0,0,0-.77.49,7.23,7.23,0,0,0-.85.84H315a5.07,5.07,0,0,1,.77-1.21h-2.26v-.4h2.26q-.28-.35-.42-.54c-.06-.13-.18-.35-.35-.65Z" transform="translate(-210.06 -128.92)"/>
      </g>
      <g>
        <text class="cls-39" transform="translate(98.9 124.17)">W<tspan class="cls-21" x="3.78" y="0"> </tspan><tspan class="cls-22" x="8.51" y="0">L</tspan></text>
        <path d="M315.31,249.93a4.64,4.64,0,0,0,1.6,1.3v.17a4.6,4.6,0,0,0-.77.5,6.51,6.51,0,0,0-.85.84H315a5.07,5.07,0,0,1,.77-1.21h-2.26v-.41h2.26l-.42-.53c-.06-.14-.18-.35-.35-.66Z" transform="translate(-210.06 -128.92)"/>
      </g>
    </g>
    <g>
      <g>
        <path class="cls-37" d="M379.29,211.66v16H364.05V207.29h11.42a4.57,4.57,0,0,1,2.34,1.47A4.49,4.49,0,0,1,379.29,211.66Z" transform="translate(-210.06 -128.92)"/>
        <path class="cls-38" d="M375.47,207.29v3.15s2,0,2.86,0a1,1,0,0,1,.86.6" transform="translate(-210.06 -128.92)"/>
      </g>
      <g>
        <text class="cls-39" transform="translate(155.82 94.4)">A<tspan class="cls-21" x="3.78" y="0"> </tspan><tspan class="cls-22" x="8.51" y="0">B</tspan></text>
        <path d="M372.22,220.17a4.61,4.61,0,0,0,1.61,1.29v.18a4.39,4.39,0,0,0-.78.49,7.28,7.28,0,0,0-.84.84h-.31a4.78,4.78,0,0,1,.77-1.21H370.4v-.4h2.27c-.19-.24-.33-.41-.42-.54s-.18-.35-.35-.65Z" transform="translate(-210.06 -128.92)"/>
      </g>
      <g>
        <text class="cls-39" transform="translate(155.82 88.03)">W<tspan class="cls-21" x="3.78" y="0"> </tspan><tspan class="cls-22" x="8.51" y="0">L</tspan></text>
        <path d="M372.22,213.8a4.78,4.78,0,0,0,1.61,1.3v.17a5.13,5.13,0,0,0-.78.5,6.55,6.55,0,0,0-.84.84h-.31a4.78,4.78,0,0,1,.77-1.21H370.4V215h2.27l-.42-.53c-.06-.14-.18-.35-.35-.66Z" transform="translate(-210.06 -128.92)"/>
      </g>
    </g>
    <g>
      <g>
        <path class="cls-37" d="M313.33,210.66v16H298.08V206.28h11.43a4.57,4.57,0,0,1,2.34,1.47A4.5,4.5,0,0,1,313.33,210.66Z" transform="translate(-210.06 -128.92)"/>
        <path class="cls-38" d="M309.51,206.28v3.16s2,0,2.86,0a.94.94,0,0,1,.86.59" transform="translate(-210.06 -128.92)"/>
      </g>
      <g>
        <text class="cls-39" transform="translate(89.85 93.39)">A<tspan class="cls-21" x="3.78" y="0"> </tspan><tspan class="cls-22" x="8.51" y="0">B</tspan></text>
        <path d="M306.26,219.16a4.78,4.78,0,0,0,1.61,1.3v.17a5,5,0,0,0-.78.49,8.2,8.2,0,0,0-.84.84h-.31a4.52,4.52,0,0,1,.77-1.21h-2.27v-.4h2.27a6,6,0,0,1-.42-.54c-.06-.13-.18-.35-.35-.65Z" transform="translate(-210.06 -128.92)"/>
      </g>
      <g>
        <text class="cls-39" transform="translate(89.85 87.03)">W<tspan class="cls-21" x="3.78" y="0"> </tspan><tspan class="cls-22" x="8.51" y="0">L</tspan></text>
        <path d="M306.26,212.8a4.61,4.61,0,0,0,1.61,1.29v.18a4.39,4.39,0,0,0-.78.49,7.28,7.28,0,0,0-.84.84h-.31a4.52,4.52,0,0,1,.77-1.21h-2.27V214h2.27c-.2-.24-.33-.42-.42-.54s-.18-.35-.35-.65Z" transform="translate(-210.06 -128.92)"/>
      </g>
    </g>
    <polyline class="cls-36" points="164 140.28 164 119.57 183.69 119.57"/>
    <g>
      <g>
        <path class="cls-40" d="M389.79,255.36H378.62a2,2,0,0,0-2,2v6.11a1.86,1.86,0,0,0,1.67,2H380" transform="translate(-210.06 -128.92)"/>
        <path class="cls-41" d="M389.79,255.36H378.62a2,2,0,0,0-2,2v6.11a1.86,1.86,0,0,0,1.67,2H380" transform="translate(-210.06 -128.92)"/>
      </g>
      <text class="cls-39" transform="translate(168.51 133.39)">1 </text>
    </g>
    <path class="cls-27" d="M396.71,234.75c0,24.89-28.11,45.08-62.79,45.08s-62.79-20.19-62.79-45.08,28.11-45.08,62.79-45.08S396.71,209.85,396.71,234.75Z" transform="translate(-210.06 -128.92)"/>
    <text class="cls-42" transform="translate(48.72 183.82)">Dieser Node (irgendein Node)<tspan x="0" y="9.5">übernimmt die Füh</tspan><tspan class="cls-43" x="67.67" y="9.5">r</tspan><tspan x="71.23" y="9.5">ung und</tspan><tspan x="0" y="19">e</tspan><tspan class="cls-44" x="3.96" y="19">r</tspan><tspan x="7.52" y="19">zeugt einen neuen Block.</tspan></text>
    <g>
      <path class="cls-45" d="M339.25,260.75c-19.5,12-26.75,33.75-26.25,44.5" transform="translate(-210.06 -128.92)"/>
      <polygon points="127.75 130.53 131.48 130.42 129.71 133.71 127.75 130.53"/>
    </g>
  </g>
</svg>
