<svg xmlns="http://www.w3.org/2000/svg" xmlns:xlink="http://www.w3.org/1999/xlink" width="278.46" height="115.49" viewBox="0 0 278.46 115.49">
  <defs>
    <style>
      .cls-1 {
        fill: #fff2ba;
      }

      .cls-1, .cls-13, .cls-14, .cls-17, .cls-7 {
        stroke: #000;
      }

      .cls-1, .cls-13, .cls-14, .cls-7 {
        stroke-width: 0.5px;
      }

      .cls-18, .cls-2 {
        font-size: 7px;
      }

      .cls-2 {
        font-family: ArialMT, Arial;
      }

      .cls-3 {
        fill: url(#linear-gradient);
      }

      .cls-4, .cls-5, .cls-8 {
        fill: #fff;
      }

      .cls-4 {
        stroke: #b3b3b3;
      }

      .cls-17, .cls-4 {
        stroke-width: 0.3px;
      }

      .cls-6 {
        font-size: 6.3px;
        font-family: Arial-BoldMT, Arial;
      }

      .cls-15, .cls-6 {
        font-weight: 700;
      }

      .cls-7 {
        fill: #dbdbdb;
      }

      .cls-13, .cls-7 {
        stroke-linejoin: round;
      }

      .cls-10, .cls-11, .cls-12, .cls-8, .cls-9 {
        fill-rule: evenodd;
      }

      .cls-9 {
        fill: #fbafc5;
      }

      .cls-10 {
        fill: #fda655;
      }

      .cls-12 {
        fill: #96c749;
      }

      .cls-13, .cls-14, .cls-17 {
        fill: none;
      }

      .cls-15 {
        font-size: 9px;
        font-family: Humanist521BT-BoldCondensed, Humanst521 Cn BT;
      }

      .cls-16 {
        letter-spacing: 0.02em;
      }

      .cls-17 {
        stroke-miterlimit: 10;
      }

      .cls-18 {
        font-family: Nimbus Mono PS;
      }
    </style>
    <linearGradient id="linear-gradient" x1="132.75" y1="53.25" x2="163.43" y2="70.67" gradientUnits="userSpaceOnUse">
      <stop offset="0"/>
      <stop offset="0.08" stop-color="#050505"/>
      <stop offset="0.18" stop-color="#151515"/>
      <stop offset="0.29" stop-color="#2f2f2f"/>
      <stop offset="0.41" stop-color="#525252"/>
      <stop offset="0.45" stop-color="#616161"/>
      <stop offset="0.52" stop-color="#4e4e4e"/>
      <stop offset="0.65" stop-color="#2c2c2c"/>
      <stop offset="0.78" stop-color="#141414"/>
      <stop offset="0.9" stop-color="#050505"/>
      <stop offset="1"/>
    </linearGradient>
  </defs>
  <g id="Layer_2" data-name="Layer 2">
    <rect class="cls-1" x="113.17" y="48.22" width="67.6" height="46.45"/>
    <text class="cls-2" transform="translate(121.68 79.37)">Kryptographisce<tspan x="4.86" y="9">Hashfunktion</tspan></text>
    <g>
      <rect class="cls-3" x="124.68" y="53.72" width="44.58" height="15.21" rx="1.8"/>
      <path class="cls-4" d="M331.21,195.57h-41a2.14,2.14,0,0,1-2.14-2.14v-11.6a2.14,2.14,0,0,1,2.14-2.14h41a2.14,2.14,0,0,1,2.14,2.14v11.6A2.14,2.14,0,0,1,331.21,195.57Zm-41-15.21a1.46,1.46,0,0,0-1.46,1.47v11.6a1.46,1.46,0,0,0,1.46,1.47h41a1.46,1.46,0,0,0,1.46-1.47v-11.6a1.46,1.46,0,0,0-1.46-1.47Z" transform="translate(-163.75 -126.31)"/>
      <g>
        <path class="cls-5" d="M328.24,188.15a.7.7,0,0,0,0-1l-5.94-5.52c-.31-.28-.5-.16-.43.29l.26,1.7a.63.63,0,0,1-.59.8H292.86V191h28.68a.63.63,0,0,1,.59.8l-.26,1.64c-.07.44.12.56.43.28Z" transform="translate(-163.75 -126.31)"/>
        <path class="cls-5" d="M322,194.05h0a.37.37,0,0,1-.28-.13.71.71,0,0,1-.09-.57l.26-1.64a.48.48,0,0,0-.1-.41.34.34,0,0,0-.27-.13H292.86a.22.22,0,0,1-.23-.22v-6.57a.22.22,0,0,1,.23-.22h28.68a.35.35,0,0,0,.27-.13.48.48,0,0,0,.1-.41l-.27-1.71a.75.75,0,0,1,.1-.57c.16-.18.44-.16.71.09l5.94,5.52a.9.9,0,0,1,0,1.36l-5.94,5.52A.64.64,0,0,1,322,194.05Zm-28.94-3.33h28.46a.82.82,0,0,1,.62.28,1,1,0,0,1,.19.78l-.26,1.64a.76.76,0,0,0,0,.14.17.17,0,0,0,.06-.06l5.95-5.52a.46.46,0,0,0,0-.7l-5.95-5.52a.17.17,0,0,0-.06-.06.76.76,0,0,0,0,.14l.27,1.71a1,1,0,0,1-.21.78.78.78,0,0,1-.61.28H293.08Z" transform="translate(-163.75 -126.31)"/>
      </g>
      <text class="cls-6" transform="translate(131.39 63.66) scale(0.9 1)">EINBAHN</text>
    </g>
    <g>
      <rect class="cls-7" x="0.25" y="26.96" width="79.94" height="88.28"/>
      <rect class="cls-5" x="4.01" y="30.72" width="72.41" height="80.75"/>
      <g>
        <path class="cls-8" d="M179.37,157H231c-4.42.65-9.41.74-13.37,1.87a84.43,84.43,0,0,0-24.59,0C188.87,157.87,183.89,157.68,179.37,157Z" transform="translate(-163.75 -126.31)"/>
        <path class="cls-9" d="M173.75,158.64c4.54-.53,7.87,2.47,10.43,4.81a9.77,9.77,0,0,0-1.6,4.28c.18.8.57-.25,1.07,0-.46.43-.11,1.68-1.07,1.61A18.51,18.51,0,0,0,173.75,158.64Z" transform="translate(-163.75 -126.31)"/>
        <path class="cls-10" d="M178,158.64c3.91-.7,8.11.63,12,.8-1.36,1.23-5,1.56-4.81,3.48C183.38,162,181.4,158.93,178,158.64Z" transform="translate(-163.75 -126.31)"/>
        <path class="cls-11" d="M206.37,165.33c.08,1.73-.65,5.08.27,7.21C205.2,170.83,205.55,167.45,206.37,165.33Z" transform="translate(-163.75 -126.31)"/>
        <path class="cls-11" d="M202.63,177.35c-.68.25-2.46,0-2.67-.53-2.21,4.16-10.76,4.21-11.76-1.07-1.09.08-1.86.46-2.95.54C189.14,172.44,199.26,174.36,202.63,177.35Zm-4.28-1.06c-1.54,1.06-3.69,2.74-6.14,1.33-.72-.53-.58-1.92-1.61-2.14h-1.07C189.45,180.06,197.64,180.44,198.35,176.29Z" transform="translate(-163.75 -126.31)"/>
        <path class="cls-11" d="M225.09,176c-.78.76-1.89-.42-2.94-.27-1.06,5-9.66,5.51-11.77,1.07,0,.7-1.37.3-2.67.8C210.73,174,220.75,172.86,225.09,176Zm-5.88-.54a3.5,3.5,0,0,1-2.94,2.68c-2.05.21-2.94-1.47-4.55-1.87,1,4,8.6,3.76,9.09-.54A2.27,2.27,0,0,0,219.21,175.48Z" transform="translate(-163.75 -126.31)"/>
        <path class="cls-12" d="M189.53,175.48h1.07c1,.22.89,1.61,1.61,2.14,2.45,1.41,4.6-.27,6.14-1.33C197.64,180.44,189.45,180.06,189.53,175.48Z" transform="translate(-163.75 -126.31)"/>
        <path class="cls-12" d="M220.81,175.75c-.49,4.3-8.06,4.5-9.09.54,1.61.4,2.5,2.08,4.55,1.87a3.5,3.5,0,0,0,2.94-2.68A2.27,2.27,0,0,1,220.81,175.75Z" transform="translate(-163.75 -126.31)"/>
        <path class="cls-11" d="M207.71,180c.87,1.66-2,1.21-2.41,2.41,2.74.73,5.77,1.18,6.69,3.74-3.13-3.15-10.74-3-13.9,0,1-2.45,4-3,6.68-3.74-.3-1-1.92-.75-2.41-1.61V180A11,11,0,0,1,207.71,180Zm-2.94,1.34c.46-1.44-.92-1-1.87-1.07C203,181.14,204.12,181,204.77,181.37Zm.53,0a2.58,2.58,0,0,0,2.14-1.07H205.3Z" transform="translate(-163.75 -126.31)"/>
        <path class="cls-9" d="M202.9,180.3c.95,0,2.33-.37,1.87,1.07C204.12,181,203,181.14,202.9,180.3Z" transform="translate(-163.75 -126.31)"/>
        <path class="cls-9" d="M205.3,180.3h2.14a2.58,2.58,0,0,1-2.14,1.07Z" transform="translate(-163.75 -126.31)"/>
        <path class="cls-11" d="M192.74,181.9c.37-.61,1.86-.1,2.67-.27C195,182.24,193.55,181.73,192.74,181.9Z" transform="translate(-163.75 -126.31)"/>
        <path class="cls-11" d="M214.93,181.9c.55-.61,2.22-.1,3.21-.27C217.59,182.25,215.92,181.73,214.93,181.9Z" transform="translate(-163.75 -126.31)"/>
        <path class="cls-11" d="M200,182.17c-1.77,1.26-4.61,1.45-7,2.14A13.74,13.74,0,0,1,200,182.17Z" transform="translate(-163.75 -126.31)"/>
        <path class="cls-11" d="M208.24,193.13a20.19,20.19,0,0,1-5.61.27c-1.72-.24,2.62-.14,3.74-.53C207.22,192.73,207.32,193.34,208.24,193.13Z" transform="translate(-163.75 -126.31)"/>
        <path class="cls-10" d="M195.15,218.53c-1.9,1.23-2.48,3.77-3.21,6.15C189.33,223.57,191.94,217.88,195.15,218.53Z" transform="translate(-163.75 -126.31)"/>
        <path class="cls-10" d="M215.2,218.8c0-.26.33-.21.53-.27a4.25,4.25,0,0,1,2.14.8c1.23,1.1,2.26,4.45.54,5.35C217.55,223.41,217.36,219.61,215.2,218.8Z" transform="translate(-163.75 -126.31)"/>
        <path class="cls-10" d="M233.11,219.6c1.13-.81,2.92,2.31,1.07,2.94C233.64,221.75,234,220.07,233.11,219.6Z" transform="translate(-163.75 -126.31)"/>
        <path class="cls-8" d="M173.75,157c-.56.5-2,.17-2.4.8,4.37,3.32,10.46,7.12,10.69,13.9.12,3.41-1.89,6.63-1.33,11,.08,1.14,1.12-.17,1.33.54,0,2.15.55,3.73,1.88,4.54.57.13.5-.38.53-.8,1.34.8,2.52,1.76,3.75,2.67,0,5.81-3,8.58-4,13.37-7.36-3.6-13.25,4.64-9.09,11-1.87,2.4-4.57,4-5.88,6.95.7.15,2.29-1.09,3.21-1.61-.38,1.95-2.53,6.84-.54,9.63.75-.14.5-1.29.8-1.87.94,2.44,1.74,5,4,6.15.63-.23,0-1.38-.27-1.61,2.74,2,5.78,6,11.5,5.88.24-.51-1.34-1.51-2.14-1.87,3.13.21,7.89,2.88,12,1.34a4.16,4.16,0,0,0-2.14-.8,33,33,0,0,0,17.65-4.82c-.2-.6-1.5-.1-2.14-.26,1.68-.55,3.52-.94,5.08-1.61-3.27-.65-6.24-1.6-9.9-1.87.09-.36.67-.22,1.07-.26-.47-1-2.05-1-3.47-1.07a4.91,4.91,0,0,0,1.07-3.48,7.58,7.58,0,0,1,.53,2.67c3.86,2.7,10.44,0,14.44-.53,5.7-.8,16.27,1.65,16.31-3.74,0-2-1.85-2.86-3.74-3.48,1.32-2.36,4-4.87,4-8.56,0-4.95-4.94-8.52-10.43-6.15-1.14-4.65-4.11-7.47-4-13.37,1.14-.78,3.07-3.34,4-1.87,1.43-.89,2.18-2.45,2.14-4.81.5-.25.89.8,1.07,0,1.12-4.26-1.46-7.7-1.34-11.23.22-6.67,6.61-10.29,10.69-13.9-.27-.62-1.22-.55-2.13-.54V157H239v80.74H168.94V157Z" transform="translate(-163.75 -126.31)"/>
        <path class="cls-10" d="M220.28,159.71A54.23,54.23,0,0,1,232,158.37c-2.54,1.29-5.28,2.39-6.68,4.82C225.22,161.44,222.28,160.46,220.28,159.71Z" transform="translate(-163.75 -126.31)"/>
        <path class="cls-9" d="M226.43,167.73c.15-.77.41.41.8.27.83-1.31-.41-3.09-1.07-4.55a14.67,14.67,0,0,1,10.16-5.08c-3.84,2.85-7.27,6.11-8.82,11.23C227,169.15,227.07,168.07,226.43,167.73Z" transform="translate(-163.75 -126.31)"/>
        <path class="cls-10" d="M222.68,162.12a36.71,36.71,0,0,1,3.21,2.4c.08.55-.77-.05-.8-.26-.61.54,1.24.88,1.07,1.87-.54-.08-.53-.73-1.07-.8a55.36,55.36,0,0,1,3.48,16.57c-1.57.4-.76,3.17-1.61,4.28-.66-.26.37-1,0-1.87-1.11,1.29-2,2.85-3.74,3.47.44-.71,1.13-1.18,1.6-1.87-3.78,3.08-10.39,5.65-17.38,6.42,5.2.74,10-1.21,13.64-2.94-.05,8.72,8.33,19.16,1.34,27,.18.59.89-.5,1.06-.8.84.43-.54.85-.53,1.34,3.05-2.55,4.8-7.78,3.48-13.11,9.1-3.6,10.57,8.8,5.35,12.57-1.25.12-1.73-.52-2.68,0,.27.44,1.14.29,1.6.54-.54.61-2.21.09-3.2.27,3.11.72,6.32,1.33,5.61,5.88-1,.14-1.67.65-2.94.53-.22-2.8-.79-5.26-3.48-5.61,2.08.73,3.27,3.31,2.68,5.88-2.85.34-6.45.51-8.82.53.32-4.43-1.58-6.62-5.08-7.21-.2-2.21-.71-4.12-.81-6.42.87-1.63,2.56-2.43,2.41-5.08a12.79,12.79,0,0,1-2.14,3.2c-.36-.08-.22-.66-.27-1.06a16.68,16.68,0,0,0-.53,9.62,7.92,7.92,0,0,0-3.48,2.68c1.31-.3,2.21-1,3.48-1.34,1.92,1,2.64,3.24,2.94,5.88a2.86,2.86,0,0,1-2.41.8,5.39,5.39,0,0,0-2.4-5.34c.86,1.05,1.88,3.22,1.07,5.07a12.87,12.87,0,0,1-6.69-.26c-.75-5.67-.65-12.19-1.87-17.38-.47,5.85-.27,12.38-1.34,17.64-2,.13-4.75.62-6.68,0a5.61,5.61,0,0,1,1.07-4.81c-1.1.25-2.52,2.47-2.14,5.08-1.22.25-1.52-.44-2.41-.53.08-3,.86-5.2,2.95-6.15a15.39,15.39,0,0,1,2.93,1.34c0-.91-1.84-2.25-3.2-2.68,1.05-2.71.51-7.36-.27-9.89-.58,0-.12,1-.27,1.33-.71-1-1.8-1.58-1.87-3.2-.77,2,.86,4,2.14,4.81-.45,2.13-.33,4.84-1.07,6.69-3.45.45-5.52,3.47-4.81,7.21-3.22-.08-6.59,0-9.09-.8-.08-2.84.5-5,2.94-5.35-2.48-.6-3.5,2.57-3.48,5.35-1.27.12-1.93-.39-2.94-.53-1-3.78,1.94-5.68,5.61-5.62-.54-.61-2.21-.09-3.2-.26,0-.59.67-.58,1.33-.54-.33-1.13-1.44-.09-2.4-.27-5.41-3.83-4-16,5.35-12.57a13.47,13.47,0,0,0,3.21,13.11c.58-.18-.51-.89-.81-1.07.24-.73.6.61,1.07.53-1.54-3.08-2.76-6.27-2.41-10.16.56-6,4.72-10.23,4.28-16.84a26.68,26.68,0,0,0,13.37,3.21c-6.23-1.62-13-2.71-16.84-6.69-.29.31.79,1.52,1.34,1.87-1.17-.18-2.92-2.07-3.75-3.47-.73.24.37.83,0,1.6-1-.94-.5-4.3-1.6-4.28.39-6.11,1.33-11.67,3.47-16-.09-.57-.83.38-1.07.54-.28-.22.49-1.64,1.34-1.61-1.69,0,.84-1.94,2.14-2.14-.27-.75-1.14.08-1.61,0,9.71-4.22,28.11-3.79,38.24-.26C224,162.93,223.37,161.83,222.68,162.12Zm-16,10.42c-.92-2.13-.19-5.48-.27-7.21C205.55,167.45,205.2,170.83,206.64,172.54ZM204,171.48c-1.06,2.1.3.62.53-1.08s-.08-4.14-.8-4.81C204.14,167.2,203.92,169.48,204,171.48Zm-18.72,4.81c1.09-.08,1.86-.46,2.95-.54,1,5.28,9.55,5.23,11.76,1.07.21.56,2,.78,2.67.53C199.26,174.36,189.14,172.44,185.25,176.29Zm22.46,1.33c1.3-.5,2.67-.1,2.67-.8,2.11,4.44,10.71,4,11.77-1.07,1-.15,2.16,1,2.94.27C220.75,172.86,210.73,174,207.71,177.62ZM202.36,180v.8c.49.86,2.11.57,2.41,1.61-2.69.78-5.65,1.29-6.68,3.74,3.16-3,10.77-3.15,13.9,0-.92-2.56-4-3-6.69-3.74.41-1.2,3.28-.75,2.41-2.41A11,11,0,0,0,202.36,180Zm15.78.53c-1.77.83-4.44-.31-5.35-.26C213.93,180.9,216.91,181.74,218.14,180.56Zm-26.47,0c1.08.83,4.13.87,5.35-.26C195.38,181.22,191.62,180.53,191.67,180.56Zm3.74,1.07c-.81.17-2.3-.34-2.67.27C193.55,181.73,195,182.24,195.41,181.63Zm22.73,0c-1,.17-2.66-.34-3.21.27C215.92,181.73,217.59,182.25,218.14,181.63ZM193,184.31c2.34-.69,5.18-.88,7-2.14A13.74,13.74,0,0,0,193,184.31Zm24.33,0c.73,0,.37.08-.27-.27-1.76-1-4.77-2.1-6.95-1.6C213.77,183.2,215.18,184.19,217.34,184.31Zm-24.6,3.47c2-1.73,4.72-2.76,6.68-4.54A12.56,12.56,0,0,0,192.74,187.78Zm10.16,1.07c1,.11,2.25-.93,1.87-1.33C204.33,188.15,203.39,188.28,202.9,188.85Zm4.54,0c-.78-.12-1.7-1.48-2.14-1.07C205.71,188.28,206.64,189.64,207.44,188.85ZM204,189.92c.75-.87,1.67-.22,2.67,0C206.77,188.5,203.09,189.13,204,189.92Zm2.4,3c-1.12.39-5.46.29-3.74.53a20.19,20.19,0,0,0,5.61-.27C207.32,193.34,207.22,192.73,206.37,192.87Z" transform="translate(-163.75 -126.31)"/>
        <path class="cls-11" d="M173.75,157h5.62c4.52.64,9.5.83,13.64,1.87a84.43,84.43,0,0,1,24.59,0c4-1.13,9-1.22,13.37-1.87h5.62v.26c.91,0,1.86-.08,2.13.54-4.08,3.61-10.47,7.23-10.69,13.9-.12,3.53,2.46,7,1.34,11.23-.18.8-.57-.25-1.07,0,0,2.36-.71,3.92-2.14,4.81-.94-1.47-2.87,1.09-4,1.87-.1,5.9,2.87,8.72,4,13.37,5.49-2.37,10.48,1.2,10.43,6.15,0,3.69-2.69,6.2-4,8.56,1.89.62,3.76,1.49,3.74,3.48,0,5.39-10.61,2.94-16.31,3.74-4,.56-10.58,3.23-14.44.53a7.58,7.58,0,0,0-.53-2.67,4.91,4.91,0,0,1-1.07,3.48c1.42.09,3,0,3.47,1.07-.4,0-1-.1-1.07.26,3.66.27,6.63,1.22,9.9,1.87-1.56.67-3.4,1.06-5.08,1.61.64.16,1.94-.34,2.14.26a33,33,0,0,1-17.65,4.82,4.16,4.16,0,0,1,2.14.8c-4.14,1.54-8.9-1.13-12-1.34.8.36,2.38,1.36,2.14,1.87-5.72.11-8.76-3.9-11.5-5.88.25.23.9,1.38.27,1.61-2.28-1.12-3.08-3.71-4-6.15-.3.58-.05,1.73-.8,1.87-2-2.79.16-7.68.54-9.63-.92.52-2.51,1.76-3.21,1.61,1.31-3,4-4.55,5.88-6.95-4.16-6.33,1.73-14.57,9.09-11,1-4.79,4-7.56,4-13.37-1.23-.91-2.41-1.87-3.75-2.67,0,.42,0,.93-.53.8-1.33-.81-1.89-2.39-1.88-4.54-.21-.71-1.25.6-1.33-.54-.56-4.33,1.45-7.55,1.33-11-.23-6.78-6.32-10.58-10.69-13.9C171.79,157.21,173.19,157.54,173.75,157Zm50.54,5.08c-10.13-3.53-28.53-4-38.24.26.47.08,1.34-.75,1.61,0-1.3.2-3.83,2.18-2.14,2.14-.85,0-1.62,1.39-1.34,1.61.24-.16,1-1.11,1.07-.54-2.14,4.37-3.08,9.93-3.47,16,1.1,0,.62,3.34,1.6,4.28.37-.77-.73-1.36,0-1.6.83,1.4,2.58,3.29,3.75,3.47-.55-.35-1.63-1.56-1.34-1.87,3.86,4,10.61,5.07,16.84,6.69a26.68,26.68,0,0,1-13.37-3.21c.44,6.61-3.72,10.81-4.28,16.84-.35,3.89.87,7.08,2.41,10.16-.47.08-.83-1.26-1.07-.53.3.18,1.39.89.81,1.07a13.47,13.47,0,0,1-3.21-13.11c-9.31-3.44-10.76,8.74-5.35,12.57,1,.18,2.07-.86,2.4.27-.66,0-1.29,0-1.33.54,1,.17,2.66-.35,3.2.26-3.67-.06-6.65,1.84-5.61,5.62,1,.14,1.67.65,2.94.53,0-2.78,1-6,3.48-5.35-2.44.33-3,2.51-2.94,5.35,2.5.79,5.87.72,9.09.8-.71-3.74,1.36-6.76,4.81-7.21.74-1.85.62-4.56,1.07-6.69-1.28-.86-2.91-2.79-2.14-4.81.07,1.62,1.16,2.23,1.87,3.2.15-.38-.31-1.38.27-1.33.78,2.53,1.32,7.18.27,9.89,1.36.43,3.21,1.77,3.2,2.68a15.39,15.39,0,0,0-2.93-1.34c-2.09.95-2.87,3.19-2.95,6.15.89.09,1.19.78,2.41.53-.38-2.61,1-4.83,2.14-5.08a5.61,5.61,0,0,0-1.07,4.81c1.93.62,4.65.13,6.68,0,1.07-5.26.87-11.79,1.34-17.64,1.22,5.19,1.12,11.71,1.87,17.38a12.87,12.87,0,0,0,6.69.26c.81-1.85-.21-4-1.07-5.07a5.39,5.39,0,0,1,2.4,5.34,2.86,2.86,0,0,0,2.41-.8c-.3-2.64-1-4.86-2.94-5.88-1.27.33-2.17,1-3.48,1.34a7.92,7.92,0,0,1,3.48-2.68,16.68,16.68,0,0,1,.53-9.62c.05.4-.09,1,.27,1.06a12.79,12.79,0,0,0,2.14-3.2c.15,2.65-1.54,3.45-2.41,5.08.1,2.3.61,4.21.81,6.42,3.5.59,5.4,2.78,5.08,7.21,2.37,0,6-.19,8.82-.53.59-2.57-.6-5.15-2.68-5.88,2.69.35,3.26,2.81,3.48,5.61,1.27.12,1.93-.39,2.94-.53.71-4.55-2.5-5.16-5.61-5.88,1-.18,2.66.34,3.2-.27-.46-.25-1.33-.1-1.6-.54,1-.52,1.43.12,2.68,0,5.22-3.77,3.75-16.17-5.35-12.57,1.32,5.33-.43,10.56-3.48,13.11,0-.49,1.37-.91.53-1.34-.17.3-.88,1.39-1.06.8,7-7.84-1.39-18.28-1.34-27-3.61,1.73-8.44,3.68-13.64,2.94,7-.77,13.6-3.34,17.38-6.42-.47.69-1.16,1.16-1.6,1.87,1.79-.62,2.63-2.18,3.74-3.47.37.84-.66,1.61,0,1.87.85-1.11,0-3.88,1.61-4.28a55.36,55.36,0,0,0-3.48-16.57c.54.07.53.72,1.07.8.17-1-1.68-1.33-1.07-1.87,0,.21.88.81.8.26a36.71,36.71,0,0,0-3.21-2.4C223.37,161.83,224,162.93,224.29,162.12Zm-41.71,7.22c1,.07.61-1.18,1.07-1.61-.5-.25-.89.8-1.07,0a9.77,9.77,0,0,1,1.6-4.28c-2.56-2.34-5.89-5.34-10.43-4.81A18.51,18.51,0,0,1,182.58,169.34Zm2.67-6.42c-.21-1.92,3.45-2.25,4.81-3.48-3.92-.17-8.12-1.5-12-.8C181.4,158.93,183.38,162,185.25,162.92Zm40.11.27c1.4-2.43,4.14-3.53,6.68-4.82a54.23,54.23,0,0,0-11.76,1.34C222.28,160.46,225.22,161.44,225.36,163.19Zm2.14,6.41c1.55-5.12,5-8.38,8.82-11.23a14.67,14.67,0,0,0-10.16,5.08c.66,1.46,1.9,3.24,1.07,4.55-.39.14-.65-1-.8-.27C227.07,168.07,227,169.15,227.5,169.6Zm-42.25,66.58c-1-1.06-2.09-2-2.41-3.75a18.42,18.42,0,0,0,10.7,3.75c-1.13-.4-3-1.41-2.94-2.14,6,1.71,14.2.63,18.45-1.87a6.78,6.78,0,0,1-3.21-.81c2.23-.62,4.74-1,6.68-1.87-3.69-.85-8.06-1-11.76-1.87.16-.37,1,0,1.07-.53-3.06-.21-6.62.5-8.82.27-.08-.62.77-.3.8-.81-2.36.14-5.53.89-7.76.27.82-.34,1.91-.4,2.15-1.34-4.95-.42-15.19.15-14.18-5.08.36-1.81,2.57-2,4-3.2-.81-.44-1.67-.83-1.87-1.88a11.27,11.27,0,0,0-3.48,2.94,18.94,18.94,0,0,1,2.41-.53c-1.45,1.85-3.31,4.7-2.67,7.75.09-.62.27-1.15.8-1.33.34,2.33.76,4.58,1.87,6.15.17-.82-.34-2.31.27-2.68C177.34,231.61,181.13,235.22,185.25,236.18Zm6.69-11.5c.73-2.38,1.31-4.92,3.21-6.15C191.94,217.88,189.33,223.57,191.94,224.68Zm26.47,0c1.72-.9.69-4.25-.54-5.35a4.25,4.25,0,0,0-2.14-.8c-.2.06-.52,0-.53.27C217.36,219.61,217.55,223.41,218.41,224.68Zm-43.32-3.21c.34.46.56,1.05,1.34,1.07-.41-1.57.84-2.88.53-3.47C176.38,219.91,175.14,220.1,175.09,221.47Zm59.09,1.07c1.85-.63.06-3.75-1.07-2.94C234,220.07,233.64,221.75,234.18,222.54ZM190.33,226c0-.77,1.84.23,1.88-.54C191.35,225.09,189.78,225.32,190.33,226Z" transform="translate(-163.75 -126.31)"/>
        <path class="cls-11" d="M203.7,165.59c.72.67,1,3,.8,4.81s-1.59,3.18-.53,1.08C203.92,169.48,204.14,167.2,203.7,165.59Z" transform="translate(-163.75 -126.31)"/>
        <path class="cls-11" d="M212.79,180.3c.91-.05,3.58,1.09,5.35.26C216.91,181.74,213.93,180.9,212.79,180.3Z" transform="translate(-163.75 -126.31)"/>
        <path class="cls-11" d="M197,180.3c-1.22,1.13-4.27,1.09-5.35.26C191.62,180.53,195.38,181.22,197,180.3Z" transform="translate(-163.75 -126.31)"/>
        <path class="cls-11" d="M210.12,182.44c2.18-.5,5.19.64,6.95,1.6.64.35,1,.31.27.27C215.18,184.19,213.77,183.2,210.12,182.44Z" transform="translate(-163.75 -126.31)"/>
        <path class="cls-11" d="M199.42,183.24c-2,1.78-4.67,2.81-6.68,4.54A12.56,12.56,0,0,1,199.42,183.24Z" transform="translate(-163.75 -126.31)"/>
        <path class="cls-11" d="M204.77,187.52c.38.4-.86,1.44-1.87,1.33C203.39,188.28,204.33,188.15,204.77,187.52Z" transform="translate(-163.75 -126.31)"/>
        <path class="cls-11" d="M205.3,187.78c.44-.41,1.36.95,2.14,1.07C206.64,189.64,205.71,188.28,205.3,187.78Z" transform="translate(-163.75 -126.31)"/>
        <path class="cls-11" d="M206.64,189.92c-1-.22-1.92-.87-2.67,0C203.09,189.13,206.77,188.5,206.64,189.92Z" transform="translate(-163.75 -126.31)"/>
        <path class="cls-10" d="M175.36,227.62c-.61.37-.1,1.86-.27,2.68-1.11-1.57-1.53-3.82-1.87-6.15-.53.18-.71.71-.8,1.33-.64-3,1.22-5.9,2.67-7.75a18.94,18.94,0,0,0-2.41.53,11.27,11.27,0,0,1,3.48-2.94c.2,1.05,1.06,1.44,1.87,1.88-1.44,1.24-3.65,1.39-4,3.2-1,5.23,9.23,4.66,14.18,5.08-.24.94-1.33,1-2.15,1.34,2.23.62,5.4-.13,7.76-.27,0,.51-.88.19-.8.81,2.2.23,5.76-.48,8.82-.27,0,.49-.91.16-1.07.53,3.7.85,8.07,1,11.76,1.87-1.94.91-4.45,1.25-6.68,1.87a6.78,6.78,0,0,0,3.21.81c-4.25,2.5-12.43,3.58-18.45,1.87-.1.73,1.81,1.74,2.94,2.14a18.42,18.42,0,0,1-10.7-3.75c.32,1.74,1.43,2.69,2.41,3.75C181.13,235.22,177.34,231.61,175.36,227.62Z" transform="translate(-163.75 -126.31)"/>
        <path class="cls-8" d="M177,219.07c.31.59-.94,1.9-.53,3.47-.78,0-1-.61-1.34-1.07C175.14,220.1,176.38,219.91,177,219.07Z" transform="translate(-163.75 -126.31)"/>
        <path class="cls-8" d="M192.21,225.48c0,.77-1.84-.23-1.88.54C189.78,225.32,191.35,225.09,192.21,225.48Z" transform="translate(-163.75 -126.31)"/>
      </g>
      <rect class="cls-13" x="4.01" y="30.72" width="72.41" height="80.75"/>
    </g>
    <path d="M274.08,197.15c-.95-.29-1.57-.55-2.34-.85v2.9a22.43,22.43,0,0,1,2.33-.87,17.55,17.55,0,0,1,2.54-.6A16.76,16.76,0,0,1,274.08,197.15Z" transform="translate(-163.75 -126.31)"/>
    <line class="cls-14" x1="108.62" y1="71.44" x2="80.33" y2="71.44"/>
    <text class="cls-15" transform="translate(50.58 7.57)">Fehlendes Schnurrhaar! Jetzt hat<tspan x="0" y="9.5">sie G</tspan><tspan class="cls-16" x="17.1" y="9.5">r</tspan><tspan x="20.66" y="9.5">und zu schlechter Laune.  </tspan></text>
    <text class="cls-15" transform="translate(179.83 7.57)">Völlig anders als der<tspan x="0" y="9.5">vorangegangene Hash!</tspan></text>
    <g>
      <path class="cls-17" d="M222,184.17c27.5-7.84,38.25-24.34,39-38.84" transform="translate(-163.75 -126.31)"/>
      <polygon points="59.29 59.5 55.66 58.59 58.26 55.9 59.29 59.5"/>
    </g>
    <g>
      <path class="cls-17" d="M400.58,176c-9.91-9.33-16.08-20.67-16.08-30.67" transform="translate(-163.75 -126.31)"/>
      <polygon points="237.71 47.96 238.79 51.54 235.15 50.69 237.71 47.96"/>
    </g>
    <path d="M370.09,197.15c-.95-.29-1.57-.55-2.33-.85v2.9a22.94,22.94,0,0,1,2.32-.87,17.55,17.55,0,0,1,2.54-.6A17,17,0,0,1,370.09,197.15Z" transform="translate(-163.75 -126.31)"/>
    <line class="cls-14" x1="204.64" y1="71.44" x2="180.77" y2="71.44"/>
    <text class="cls-18" transform="translate(211.25 59.36)">d2ca4f53c8257301<tspan x="0" y="9">86db9ea585075f96</tspan><tspan x="0" y="18">cd6df1bfd4fb7c68</tspan><tspan x="0" y="27">7a23b912b2b39bf6</tspan></text>
  </g>
</svg>
