<?xml version="1.0" encoding="UTF-8" standalone="no"?>
<svg
   xmlns:dc="http://purl.org/dc/elements/1.1/"
   xmlns:cc="http://creativecommons.org/ns#"
   xmlns:rdf="http://www.w3.org/1999/02/22-rdf-syntax-ns#"
   xmlns:svg="http://www.w3.org/2000/svg"
   xmlns="http://www.w3.org/2000/svg"
   xmlns:sodipodi="http://sodipodi.sourceforge.net/DTD/sodipodi-0.dtd"
   xmlns:inkscape="http://www.inkscape.org/namespaces/inkscape"
   version="1.1"
   id="svg2"
   xml:space="preserve"
   width="208.5396"
   height="142.26682"
   viewBox="0 0 208.5396 142.26682"
   sodipodi:docname="07-29.ai"><metadata
     id="metadata8"><rdf:RDF><cc:Work
         rdf:about=""><dc:format>image/svg+xml</dc:format><dc:type
           rdf:resource="http://purl.org/dc/dcmitype/StillImage" /></cc:Work></rdf:RDF></metadata><defs
     id="defs6"><clipPath
       clipPathUnits="userSpaceOnUse"
       id="clipPath18"><path
         d="M 0,792 H 612 V 0 H 0 Z"
         id="path16" /></clipPath><clipPath
       clipPathUnits="userSpaceOnUse"
       id="clipPath64"><path
         d="M 0,792 H 612 V 0 H 0 Z"
         id="path62" /></clipPath><clipPath
       clipPathUnits="userSpaceOnUse"
       id="clipPath82"><path
         d="M 0,792 H 612 V 0 H 0 Z"
         id="path80" /></clipPath><clipPath
       clipPathUnits="userSpaceOnUse"
       id="clipPath100"><path
         d="M 0,792 H 612 V 0 H 0 Z"
         id="path98" /></clipPath><clipPath
       clipPathUnits="userSpaceOnUse"
       id="clipPath118"><path
         d="M 0,792 H 612 V 0 H 0 Z"
         id="path116" /></clipPath></defs><sodipodi:namedview
     pagecolor="#ffffff"
     bordercolor="#666666"
     borderopacity="1"
     objecttolerance="10"
     gridtolerance="10"
     guidetolerance="10"
     inkscape:pageopacity="0"
     inkscape:pageshadow="2"
     inkscape:window-width="640"
     inkscape:window-height="480"
     id="namedview4" /><g
     id="g10"
     inkscape:groupmode="layer"
     inkscape:label="07-29"
     transform="matrix(1.3333333,0,0,-1.3333333,-298.50266,879.13331)"><g
       id="g12"><g
         id="g14"
         clip-path="url(#clipPath18)"><g
           id="g20"
           transform="translate(304,606)"><path
             d="M 0,0 V 53.2 C 29.381,53.2 53.199,29.381 53.199,0 53.199,-13.398 48.94,-24.79 40.15,-34.902 Z"
             style="fill:#9fcbe5;fill-opacity:1;fill-rule:nonzero;stroke:none"
             id="path22" /></g><g
           id="g24"
           transform="translate(304,606)"><path
             d="M 0,0 V 53.2 C 29.381,53.2 53.199,29.381 53.199,0 53.199,-13.398 48.94,-24.79 40.15,-34.902 Z"
             style="fill:none;stroke:#231f20;stroke-width:0.3;stroke-linecap:butt;stroke-linejoin:round;stroke-miterlimit:4;stroke-dasharray:none;stroke-opacity:1"
             id="path26" /></g><g
           id="g28"
           transform="translate(304,606)"><path
             d="m 0,0 40.15,-34.902 c -19.276,-22.175 -52.879,-24.525 -75.053,-5.249 -2.04,1.773 -3.476,3.209 -5.247,5.249 z"
             style="fill:#fef0c1;fill-opacity:1;fill-rule:nonzero;stroke:none"
             id="path30" /></g><g
           id="g32"
           transform="translate(304,606)"><path
             d="m 0,0 40.15,-34.902 c -19.276,-22.175 -52.879,-24.525 -75.053,-5.249 -2.04,1.773 -3.476,3.209 -5.247,5.249 z"
             style="fill:none;stroke:#231f20;stroke-width:0.3;stroke-linecap:butt;stroke-linejoin:round;stroke-miterlimit:4;stroke-dasharray:none;stroke-opacity:1"
             id="path34" /></g><g
           id="g36"
           transform="translate(304,606)"><path
             d="m 0,0 -40.15,-34.902 c -14.034,16.143 -17.151,37.001 -8.452,56.54 z"
             style="fill:#7cad57;fill-opacity:1;fill-rule:nonzero;stroke:none"
             id="path38" /></g><g
           id="g40"
           transform="translate(304,606)"><path
             d="m 0,0 -40.15,-34.902 c -14.034,16.143 -17.151,37.001 -8.452,56.54 z"
             style="fill:none;stroke:#231f20;stroke-width:0.3;stroke-linecap:butt;stroke-linejoin:round;stroke-miterlimit:4;stroke-dasharray:none;stroke-opacity:1"
             id="path42" /></g><g
           id="g44"
           transform="translate(304,606)"><path
             d="M 0,0 -48.602,21.638 C -39.949,41.072 -21.273,53.2 0,53.2 Z"
             style="fill:#c79ed5;fill-opacity:1;fill-rule:nonzero;stroke:none"
             id="path46" /></g><g
           id="g48"
           transform="translate(304,606)"><path
             d="M 0,0 -48.602,21.638 C -39.949,41.072 -21.273,53.2 0,53.2 Z"
             style="fill:none;stroke:#231f20;stroke-width:0.3;stroke-linecap:butt;stroke-linejoin:round;stroke-miterlimit:4;stroke-dasharray:none;stroke-opacity:1"
             id="path50" /></g></g></g><text
       transform="matrix(1,0,0,-1,223.9478,652.4258)"
       style="font-variant:normal;font-weight:normal;font-stretch:normal;font-size:7px;font-family:Arial;-inkscape-font-specification:ArialMT;writing-mode:lr-tb;fill:#231f20;fill-opacity:1;fill-rule:nonzero;stroke:none"
       id="text56"><tspan
         x="0 5.4460001"
         y="0"
         sodipodi:role="line"
         id="tspan52">Qi</tspan><tspan
         x="0 3.892 7.7839999 9.7299995 13.622"
         y="10.997"
         sodipodi:role="line"
         id="tspan54">18.2%</tspan></text><g
       id="g58"><g
         id="g60"
         clip-path="url(#clipPath64)"><g
           id="g66"
           transform="translate(223.877,649.1245)"><path
             d="M 0,0 H 56.414"
             style="fill:none;stroke:#231f20;stroke-width:0.5;stroke-linecap:butt;stroke-linejoin:miter;stroke-miterlimit:4;stroke-dasharray:none;stroke-opacity:1"
             id="path68" /></g></g></g><text
       transform="matrix(1,0,0,-1,223.9478,597.0098)"
       style="font-variant:normal;font-weight:normal;font-stretch:normal;font-size:7px;font-family:Arial;-inkscape-font-specification:ArialMT;writing-mode:lr-tb;fill:#231f20;fill-opacity:1;fill-rule:nonzero;stroke:none"
       id="text74"><tspan
         x="0 4.277 8.1689997"
         y="0"
         sodipodi:role="line"
         id="tspan70">Tom</tspan><tspan
         x="0 3.892 7.7839999 9.7299995 13.622"
         y="10.997"
         sodipodi:role="line"
         id="tspan72">18.2%</tspan></text><g
       id="g76"><g
         id="g78"
         clip-path="url(#clipPath82)"><g
           id="g84"
           transform="translate(223.877,593.708)"><path
             d="M 0,0 H 31.987"
             style="fill:none;stroke:#231f20;stroke-width:0.5;stroke-linecap:butt;stroke-linejoin:miter;stroke-miterlimit:4;stroke-dasharray:none;stroke-opacity:1"
             id="path86" /></g></g></g><text
       transform="matrix(1,0,0,-1,365.8267,645.2598)"
       style="font-variant:normal;font-weight:normal;font-stretch:normal;font-size:7px;font-family:Arial;-inkscape-font-specification:ArialMT;writing-mode:lr-tb;fill:#231f20;fill-opacity:1;fill-rule:nonzero;stroke:none"
       id="text92"><tspan
         x="0 3.892 5.4460001 8.9460001"
         y="0"
         sodipodi:role="line"
         id="tspan88">Lisa</tspan><tspan
         x="-7.007 -3.115 0.77700001 2.723 6.6149998"
         y="10.997"
         sodipodi:role="line"
         id="tspan90">36.4%</tspan></text><g
       id="g94"><g
         id="g96"
         clip-path="url(#clipPath100)"><g
           id="g102"
           transform="translate(337.0527,641.958)"><path
             d="M 0,0 H 43.229"
             style="fill:none;stroke:#231f20;stroke-width:0.5;stroke-linecap:butt;stroke-linejoin:miter;stroke-miterlimit:4;stroke-dasharray:none;stroke-opacity:1"
             id="path104" /></g></g></g><text
       transform="matrix(1,0,0,-1,356.8784,569.5937)"
       style="font-variant:normal;font-weight:normal;font-stretch:normal;font-size:7px;font-family:Arial;-inkscape-font-specification:ArialMT;writing-mode:lr-tb;fill:#231f20;fill-opacity:1;fill-rule:nonzero;stroke:none"
       id="text110"><tspan
         x="0 5.0539999 8.9460001 12.446 16.337999 17.892"
         y="0"
         sodipodi:role="line"
         id="tspan106">Rashid</tspan><tspan
         x="1.939 5.8309999 9.7229996 11.669 15.561"
         y="10.997"
         sodipodi:role="line"
         id="tspan108">27.3%</tspan></text><g
       id="g112"><g
         id="g114"
         clip-path="url(#clipPath118)"><g
           id="g120"
           transform="translate(329.2812,566.292)"><path
             d="M 0,0 H 51"
             style="fill:none;stroke:#231f20;stroke-width:0.5;stroke-linecap:butt;stroke-linejoin:miter;stroke-miterlimit:4;stroke-dasharray:none;stroke-opacity:1"
             id="path122" /></g><g
           id="g124"
           transform="translate(281.5312,649.1245)"><path
             d="m 0,0 c 0,-0.552 -0.448,-1 -1,-1 -0.552,0 -1,0.448 -1,1 0,0.552 0.448,1 1,1 0.552,0 1,-0.448 1,-1"
             style="fill:#231f20;fill-opacity:1;fill-rule:nonzero;stroke:none"
             id="path126" /></g><g
           id="g128"
           transform="translate(256.8643,593.708)"><path
             d="m 0,0 c 0,-0.553 -0.448,-1 -1,-1 -0.552,0 -1,0.447 -1,1 0,0.553 0.448,1 1,1 0.552,0 1,-0.447 1,-1"
             style="fill:#231f20;fill-opacity:1;fill-rule:nonzero;stroke:none"
             id="path130" /></g><g
           id="g132"
           transform="translate(338.0527,641.958)"><path
             d="m 0,0 c 0,-0.552 -0.448,-1 -1,-1 -0.552,0 -1,0.448 -1,1 0,0.552 0.448,1 1,1 0.552,0 1,-0.448 1,-1"
             style="fill:#231f20;fill-opacity:1;fill-rule:nonzero;stroke:none"
             id="path134" /></g><g
           id="g136"
           transform="translate(330.2812,566.292)"><path
             d="m 0,0 c 0,-0.553 -0.449,-1 -1,-1 -0.553,0 -1,0.447 -1,1 0,0.552 0.447,1 1,1 0.551,0 1,-0.448 1,-1"
             style="fill:#231f20;fill-opacity:1;fill-rule:nonzero;stroke:none"
             id="path138" /></g></g></g></g></svg>
