<svg xmlns="http://www.w3.org/2000/svg" xmlns:xlink="http://www.w3.org/1999/xlink" width="420.4" height="130.07" viewBox="0 0 420.4 130.07">
  <defs>
    <style>
      .cls-1, .cls-10, .cls-14, .cls-22, .cls-23, .cls-30, .cls-32, .cls-40, .cls-41 {
        fill: none;
      }

      .cls-2 {
        fill: url(#linear-gradient);
      }

      .cls-3 {
        fill: url(#linear-gradient-2);
      }

      .cls-4 {
        fill: url(#linear-gradient-3);
      }

      .cls-5 {
        fill: url(#linear-gradient-4);
      }

      .cls-6 {
        fill: url(#linear-gradient-5);
      }

      .cls-7 {
        fill: url(#linear-gradient-6);
      }

      .cls-8 {
        fill: url(#linear-gradient-7);
      }

      .cls-9 {
        font-size: 7px;
        font-family: ArialMT, Arial;
      }

      .cls-10, .cls-15, .cls-22, .cls-23, .cls-41 {
        stroke: #000;
      }

      .cls-10, .cls-14, .cls-15, .cls-30, .cls-32, .cls-33 {
        stroke-linejoin: round;
      }

      .cls-10, .cls-15, .cls-16, .cls-23, .cls-30, .cls-33, .cls-34, .cls-40 {
        stroke-width: 0.5px;
      }

      .cls-11 {
        clip-path: url(#clip-path);
      }

      .cls-12 {
        fill: #deebf0;
      }

      .cls-13 {
        fill: #fef0e8;
      }

      .cls-14 {
        stroke: #e60001;
      }

      .cls-14, .cls-32, .cls-41 {
        stroke-width: 0.75px;
      }

      .cls-15, .cls-17, .cls-33 {
        fill: #fff;
      }

      .cls-16, .cls-18 {
        fill: #8dac58;
      }

      .cls-16 {
        stroke: #3b5c18;
      }

      .cls-19 {
        fill: #e80001;
      }

      .cls-19, .cls-20, .cls-21, .cls-37, .cls-38, .cls-39 {
        fill-rule: evenodd;
      }

      .cls-21 {
        fill: #28708e;
      }

      .cls-22, .cls-41 {
        stroke-miterlimit: 10;
      }

      .cls-22 {
        stroke-width: 0.3px;
      }

      .cls-24 {
        font-size: 9px;
        font-family: Humanist521BT-BoldCondensed, Humanst521 Cn BT;
        font-weight: 700;
      }

      .cls-25 {
        letter-spacing: 0.02em;
      }

      .cls-26 {
        letter-spacing: -0.02em;
      }

      .cls-27 {
        letter-spacing: -0.05em;
      }

      .cls-28 {
        letter-spacing: -0.07em;
      }

      .cls-29 {
        fill: #eff5f7;
      }

      .cls-30, .cls-33, .cls-40 {
        stroke: gray;
      }

      .cls-31 {
        fill: #fff7f4;
      }

      .cls-32 {
        stroke: #ef7a5b;
      }

      .cls-34, .cls-36 {
        fill: #c6d5a1;
      }

      .cls-34 {
        stroke: #8fa368;
      }

      .cls-35, .cls-38 {
        fill: gray;
      }

      .cls-37 {
        fill: #f07b5b;
      }

      .cls-39 {
        fill: #88afbe;
      }
    </style>
    <linearGradient id="linear-gradient" x1="234.21" y1="120.51" x2="234.21" y2="97.21" gradientUnits="userSpaceOnUse">
      <stop offset="0.29" stop-color="#e5e5e5"/>
      <stop offset="0.51" stop-color="#e0e0e0"/>
      <stop offset="0.78" stop-color="#d1d1d1"/>
      <stop offset="1" stop-color="#bfbfbf"/>
    </linearGradient>
    <linearGradient id="linear-gradient-2" x1="234.53" y1="119.73" x2="234.53" y2="48.76" gradientUnits="userSpaceOnUse">
      <stop offset="0.25" stop-color="#ebebeb"/>
      <stop offset="0.83" stop-color="#e3e3e3"/>
      <stop offset="0.9" stop-color="#e0e0e0"/>
      <stop offset="0.95" stop-color="#d8d8d8"/>
      <stop offset="0.98" stop-color="#cacaca"/>
      <stop offset="1" stop-color="#bfbfbf"/>
    </linearGradient>
    <linearGradient id="linear-gradient-3" x1="156.68" y1="120.52" x2="156.68" y2="97.63" gradientUnits="userSpaceOnUse">
      <stop offset="0.29" stop-color="#f0f0f0"/>
      <stop offset="0.48" stop-color="#ebebeb"/>
      <stop offset="0.71" stop-color="#dcdcdc"/>
      <stop offset="0.95" stop-color="#c4c4c4"/>
      <stop offset="1" stop-color="#bfbfbf"/>
    </linearGradient>
    <linearGradient id="linear-gradient-4" x1="374.7" y1="120.51" x2="374.7" y2="97.21" xlink:href="#linear-gradient-3"/>
    <linearGradient id="linear-gradient-5" x1="304.62" y1="120.51" x2="304.62" y2="97.21" xlink:href="#linear-gradient-3"/>
    <linearGradient id="linear-gradient-6" x1="94.28" y1="120.5" x2="94.28" y2="96.6" xlink:href="#linear-gradient-3"/>
    <linearGradient id="linear-gradient-7" x1="32.03" y1="120.51" x2="32.03" y2="97.21" xlink:href="#linear-gradient-3"/>
    <clipPath id="clip-path">
      <path transform="translate(-95.53 -164.61)" class="cls-1" d="M151.48,220H101.23c.16,16.21,10.59,28.09,3.68,44.42h46.57Z"/>
    </clipPath>
  </defs>
  <g id="Layer_2" data-name="Layer 2">
    <polygon class="cls-2" points="264.11 97.18 227.47 120.89 204.32 97.06 264.11 97.18"/>
    <polygon class="cls-3" points="264.98 48.42 222.97 120.89 204.09 48.3 264.98 48.42"/>
    <polygon class="cls-4" points="193.39 97.56 119.97 120.89 134.64 97.48 193.39 97.56"/>
    <polygon class="cls-5" points="404.6 97.18 383.48 120.89 344.81 97.06 404.6 97.18"/>
    <polygon class="cls-6" points="334.58 97.18 276.98 120.89 274.67 97.06 334.58 97.18"/>
    <polygon class="cls-7" points="124.69 96.44 94.97 120.89 63.87 96.94 124.69 96.44"/>
    <polygon class="cls-8" points="53.68 97.06 20.48 120.89 10.38 97.67 53.68 97.06"/>
    <text class="cls-9" transform="translate(394.31 115.32)">Zeit</text>
    <text x="-95.53" y="-164.61"/>    <line class="cls-10" x1="20.47" y1="121.54" x2="20.47" y2="128.04"/>
    <line class="cls-10" x1="94.97" y1="121.54" x2="94.97" y2="128.04"/>
    <line class="cls-10" x1="119.97" y1="121.54" x2="119.97" y2="128.04"/>
    <line class="cls-10" x1="222.97" y1="121.54" x2="222.97" y2="128.04"/>
    <line class="cls-10" x1="227.47" y1="121.54" x2="227.47" y2="128.04"/>
    <line class="cls-10" x1="276.97" y1="121.54" x2="276.97" y2="128.04"/>
    <line class="cls-10" x1="383.47" y1="121.54" x2="383.47" y2="128.04"/>
  </g>
  <g id="Layer_4" data-name="Layer 4">
    <g class="cls-11">
      <g>
        <g>
          <rect class="cls-12" x="0.25" y="57.78" width="54.67" height="39.77" rx="3"/>
          <rect class="cls-10" x="0.25" y="57.78" width="54.67" height="39.77" rx="3"/>
        </g>
        <g>
          <rect class="cls-13" x="19.51" y="85.32" width="8.42" height="7.68" rx="0.5"/>
          <rect class="cls-14" x="19.51" y="85.32" width="8.42" height="7.68" rx="0.5"/>
        </g>
        <g>
          <rect class="cls-13" x="31.42" y="85.32" width="8.42" height="7.68" rx="0.5"/>
          <rect class="cls-14" x="31.42" y="85.32" width="8.42" height="7.68" rx="0.5"/>
        </g>
        <g>
          <rect class="cls-13" x="43.33" y="85.48" width="8.42" height="7.68" rx="0.5"/>
          <rect class="cls-14" x="43.33" y="85.48" width="8.42" height="7.68" rx="0.5"/>
        </g>
        <g>
          <rect class="cls-13" x="7.6" y="85.32" width="8.42" height="7.68" rx="0.5"/>
          <rect class="cls-14" x="7.6" y="85.32" width="8.42" height="7.68" rx="0.5"/>
        </g>
        <rect class="cls-15" x="3.42" y="61.26" width="48.33" height="19.37"/>
      </g>
      <g>
        <path class="cls-16" d="M100.14,243.13a8,8,0,0,0,1.48.14,7.72,7.72,0,0,0,0-15.44A7.43,7.43,0,0,0,100,228" transform="translate(-95.53 -164.61)"/>
        <path class="cls-17" d="M99.54,241.53a6.48,6.48,0,0,0,2.08.35,6.34,6.34,0,0,0,0-12.67,6.49,6.49,0,0,0-1.93.3" transform="translate(-95.53 -164.61)"/>
        <polygon points="5.52 70.62 6.66 71.27 9.16 65.57 9.05 65.52 5.52 70.62"/>
        <polygon points="5.77 71.51 6.41 70.37 2.64 68.94 2.59 69.03 5.77 71.51"/>
        <g>
          <path class="cls-18" d="M101.1,235.25a.59.59,0,1,0,.81-.22A.6.6,0,0,0,101.1,235.25Z" transform="translate(-95.53 -164.61)"/>
          <path d="M101.61,236.41h0a.91.91,0,0,1-.42-.11.86.86,0,0,1-.32-1.18.87.87,0,0,1,1.17-.32.86.86,0,0,1,.33,1.17A.89.89,0,0,1,101.61,236.41Zm0-1.43a.57.57,0,0,0-.29,1.07.6.6,0,0,0,.78-.22.57.57,0,0,0-.21-.78A.58.58,0,0,0,101.62,235Z" transform="translate(-95.53 -164.61)"/>
        </g>
      </g>
      <g>
        <path class="cls-19" d="M115.63,235.61a4.93,4.93,0,1,0,4.93-4.91A4.92,4.92,0,0,0,115.63,235.61Zm-2.7,0a7.63,7.63,0,1,1,7.63,7.62A7.62,7.62,0,0,1,112.93,235.61Z" transform="translate(-95.53 -164.61)"/>
        <polygon class="cls-20" points="27.69 67.17 25.03 69.8 22.37 67.17 27.69 67.17"/>
        <polygon class="cls-20" points="22.37 74.94 25.03 72.3 27.69 74.94 22.37 74.94"/>
      </g>
      <path class="cls-21" d="M142.75,242h-1.17c-1.31-1.48-2.57-3-3.86-4.54-1.12-1.32-2.25-2.66-3.35-4-.16-.19-.3-.44-.57-.49-.18.24-.11.58-.11.89v5.05a3.92,3.92,0,0,0,.22,1.8,1.22,1.22,0,0,0,.89.44,2.52,2.52,0,0,1,.63.09c.12.11.07.54,0,.65-1.48,0-3,0-4.45,0a.75.75,0,0,1,0-.67,3.72,3.72,0,0,0,1.14-.21c.72-.34.59-1.56.59-2.64V232.2a10.08,10.08,0,0,0,0-1.23.35.35,0,0,0,0-.11,1.77,1.77,0,0,0-1.56-1.12.74.74,0,0,1,0-.65c1,0,2.15,0,3.22,0,2.31,2.68,4.57,5.41,6.89,8.11.13.16.36.5.55.43s.12-.6.12-.86v-4.89a3.35,3.35,0,0,0-.27-1.69c-.28-.39-.91-.38-1.47-.48a.59.59,0,0,1,0-.6c1.45,0,3,0,4.46,0a.74.74,0,0,1,0,.65,3.38,3.38,0,0,0-1.25.28c-.62.38-.49,1.65-.49,2.61,0,3.08-.06,6.4.1,9.24Z" transform="translate(-95.53 -164.61)"/>
    </g>
    <g>
      <g>
        <rect class="cls-12" x="203.26" y="57.78" width="62.39" height="39.77" rx="3"/>
        <rect class="cls-10" x="203.26" y="57.78" width="62.39" height="39.77" rx="3"/>
      </g>
      <g>
        <rect class="cls-13" x="230.24" y="85.32" width="8.42" height="7.68" rx="0.5"/>
        <rect class="cls-14" x="230.24" y="85.32" width="8.42" height="7.68" rx="0.5"/>
      </g>
      <g>
        <rect class="cls-13" x="242.16" y="85.32" width="8.42" height="7.68" rx="0.5"/>
        <rect class="cls-14" x="242.16" y="85.32" width="8.42" height="7.68" rx="0.5"/>
      </g>
      <g>
        <rect class="cls-13" x="218.33" y="85.32" width="8.42" height="7.68" rx="0.5"/>
        <rect class="cls-14" x="218.33" y="85.32" width="8.42" height="7.68" rx="0.5"/>
      </g>
      <g>
        <rect class="cls-13" x="206.43" y="85.27" width="8.42" height="7.68" rx="0.5"/>
        <rect class="cls-14" x="206.43" y="85.27" width="8.42" height="7.68" rx="0.5"/>
      </g>
      <rect class="cls-15" x="206.43" y="61.26" width="56.06" height="19.37"/>
    </g>
    <g>
      <path class="cls-22" d="M138.18,225.83c0-5.3,2.15-8.16,2.15-14" transform="translate(-95.53 -164.61)"/>
      <polygon points="44.51 60.67 42.64 63.91 40.77 60.67 44.51 60.67"/>
    </g>
    <g>
      <path class="cls-22" d="M300.67,218.67c-9.5-13.34-24.84-21.5-31.67-21.5" transform="translate(-95.53 -164.61)"/>
      <polygon points="206.34 52.54 206.69 56.26 203.29 54.71 206.34 52.54"/>
    </g>
    <g>
      <path class="cls-22" d="M364.67,219.83c6.5-5.83,5.66-14.83,11-14.83" transform="translate(-95.53 -164.61)"/>
      <polygon points="270.79 56.25 267.13 57.02 268.29 53.46 270.79 56.25"/>
    </g>
    <g>
      <path class="cls-22" d="M398.67,217.5c1.33-5.33,6.83-10.67,12.16-10.67" transform="translate(-95.53 -164.61)"/>
      <polygon points="305.08 52.81 302.48 55.5 301.45 51.91 305.08 52.81"/>
    </g>
    <g>
      <path class="cls-22" d="M452.83,217.5c1.34-5.33,6.84-10.67,12.17-10.67" transform="translate(-95.53 -164.61)"/>
      <polygon points="359.25 52.81 356.65 55.5 355.62 51.91 359.25 52.81"/>
    </g>
    <g>
      <path class="cls-22" d="M365.83,188.17c4.84-3.5,5.34-8.84,9.5-8.84" transform="translate(-95.53 -164.61)"/>
      <polygon points="271.84 24.75 268.12 25.13 269.65 21.72 271.84 24.75"/>
    </g>
    <line class="cls-23" x1="196.68" y1="70.95" x2="206.43" y2="70.95"/>
    <line class="cls-23" x1="266.92" y1="70.95" x2="276.67" y2="70.95"/>
    <line class="cls-23" x1="126.44" y1="70.95" x2="136.18" y2="70.95"/>
    <line class="cls-23" x1="56.19" y1="70.95" x2="65.94" y2="70.95"/>
    <text class="cls-24" transform="translate(281.55 7.57)">Lisas<tspan x="0" y="9.5">Block</tspan></text>
    <text class="cls-24" transform="translate(281.55 33.18)">Qis<tspan x="0" y="9.5">Block</tspan></text>
    <text class="cls-24" transform="translate(8.84 20.18)">Blocke<tspan class="cls-25" x="23.09" y="0">r</tspan><tspan x="26.65" y="0">zeuger nicht</tspan><tspan x="0" y="9.5">bekannt, aber der</tspan><tspan class="cls-26" x="0" y="19">P</tspan><tspan x="4.47" y="19">roof of </tspan><tspan class="cls-27" x="30.13" y="19">W</tspan><tspan x="37.69" y="19">ork</tspan><tspan x="0" y="28.5">ist gültig.</tspan></text>
    <text class="cls-24" transform="translate(113.14 24.68)">Zwei Blocks werden<tspan x="0" y="9.5">etwa gleichzeitig</tspan><tspan x="0" y="19">e</tspan><tspan class="cls-25" x="3.96" y="19">r</tspan><tspan x="7.52" y="19">zeugt.</tspan></text>
    <text class="cls-24" transform="translate(371.71 24.18)">Jeder arbeitet<tspan x="0" y="9.5">nun auf Basis</tspan><tspan x="0" y="19">dieses Blocks.</tspan></text>
    <text class="cls-24" transform="translate(316.98 24.68)"><tspan class="cls-28">T</tspan><tspan x="3.44" y="0">oms Block</tspan><tspan x="0" y="9.5">schlichtet</tspan><tspan x="0" y="19">den Streit</tspan></text>
    <g>
      <path class="cls-16" d="M304.63,235.55a7.72,7.72,0,1,0,7.72-7.72A7.72,7.72,0,0,0,304.63,235.55Z" transform="translate(-95.53 -164.61)"/>
      <path class="cls-17" d="M306,235.55a6.33,6.33,0,1,0,6.33-6.34A6.33,6.33,0,0,0,306,235.55Z" transform="translate(-95.53 -164.61)"/>
      <polygon points="216.25 70.62 217.4 71.27 219.89 65.57 219.79 65.52 216.25 70.62"/>
      <polygon points="216.5 71.51 217.14 70.37 213.37 68.94 213.32 69.03 216.5 71.51"/>
      <g>
        <path class="cls-18" d="M311.83,235.25a.59.59,0,1,0,.81-.22A.6.6,0,0,0,311.83,235.25Z" transform="translate(-95.53 -164.61)"/>
        <path d="M312.35,236.41h0a.92.92,0,0,1-.43-.11.87.87,0,1,1,.43.11Zm0-1.43a.57.57,0,0,0-.5.29.58.58,0,0,0,.22.78.59.59,0,0,0,.77-.22.57.57,0,0,0-.21-.78A.55.55,0,0,0,312.35,235Z" transform="translate(-95.53 -164.61)"/>
      </g>
    </g>
    <g>
      <path class="cls-19" d="M326.37,235.61a4.92,4.92,0,1,0,4.92-4.91A4.91,4.91,0,0,0,326.37,235.61Zm-2.71,0a7.63,7.63,0,1,1,7.63,7.62A7.62,7.62,0,0,1,323.66,235.61Z" transform="translate(-95.53 -164.61)"/>
      <polygon class="cls-20" points="238.43 67.17 235.77 69.8 233.1 67.17 238.43 67.17"/>
      <polygon class="cls-20" points="233.1 74.94 235.77 72.3 238.43 74.94 233.1 74.94"/>
    </g>
    <path class="cls-21" d="M353.48,242h-1.17c-1.31-1.48-2.57-3-3.86-4.54-1.12-1.32-2.24-2.66-3.35-4-.16-.19-.3-.44-.57-.49-.18.24-.11.58-.11.89v5.05a3.78,3.78,0,0,0,.23,1.8,1.19,1.19,0,0,0,.88.44,2.45,2.45,0,0,1,.63.09c.12.11.07.54,0,.65-1.47,0-3,0-4.45,0a.82.82,0,0,1,0-.67,3.72,3.72,0,0,0,1.14-.21c.72-.34.59-1.56.59-2.64V232.2a8.41,8.41,0,0,0,0-1.23s0-.08,0-.11a1.77,1.77,0,0,0-1.56-1.12.78.78,0,0,1,0-.65c1,0,2.15,0,3.23,0,2.31,2.68,4.57,5.41,6.88,8.11.13.16.36.5.55.43s.12-.6.12-.86v-4.89a3.35,3.35,0,0,0-.27-1.69c-.28-.39-.91-.38-1.47-.48a.61.61,0,0,1,0-.6c1.45,0,3,0,4.46,0a.74.74,0,0,1,0,.65,3.38,3.38,0,0,0-1.25.28c-.61.38-.49,1.65-.49,2.61,0,3.08-.06,6.4.1,9.24Z" transform="translate(-95.53 -164.61)"/>
    <g>
      <g>
        <rect class="cls-12" x="273.5" y="57.78" width="62.4" height="39.77" rx="3"/>
        <rect class="cls-10" x="273.5" y="57.78" width="62.4" height="39.77" rx="3"/>
      </g>
      <g>
        <rect class="cls-13" x="276.67" y="85.27" width="8.42" height="7.68" rx="0.5"/>
        <rect class="cls-14" x="276.67" y="85.27" width="8.42" height="7.68" rx="0.5"/>
      </g>
      <rect class="cls-15" x="276.67" y="61.26" width="56.06" height="19.37"/>
    </g>
    <g>
      <path class="cls-16" d="M374.87,235.55a7.72,7.72,0,1,0,7.72-7.72A7.72,7.72,0,0,0,374.87,235.55Z" transform="translate(-95.53 -164.61)"/>
      <path class="cls-17" d="M376.26,235.55a6.34,6.34,0,1,0,6.33-6.34A6.34,6.34,0,0,0,376.26,235.55Z" transform="translate(-95.53 -164.61)"/>
      <polygon points="286.5 70.62 287.64 71.27 290.13 65.57 290.03 65.52 286.5 70.62"/>
      <polygon points="286.74 71.51 287.39 70.37 283.61 68.94 283.56 69.03 286.74 71.51"/>
      <g>
        <path class="cls-18" d="M382.08,235.25a.59.59,0,1,0,.8-.22A.59.59,0,0,0,382.08,235.25Z" transform="translate(-95.53 -164.61)"/>
        <path d="M382.59,236.41h0a.86.86,0,1,1,.43-1.61.86.86,0,0,1-.43,1.61Zm0-1.43a.59.59,0,0,0-.5.29.59.59,0,0,0,.22.78.6.6,0,0,0,.78-.22.57.57,0,0,0-.22-.78A.53.53,0,0,0,382.59,235Z" transform="translate(-95.53 -164.61)"/>
      </g>
    </g>
    <g>
      <path class="cls-19" d="M396.61,235.61a4.93,4.93,0,1,0,4.93-4.91A4.92,4.92,0,0,0,396.61,235.61Zm-2.71,0a7.64,7.64,0,1,1,7.64,7.62A7.63,7.63,0,0,1,393.9,235.61Z" transform="translate(-95.53 -164.61)"/>
      <polygon class="cls-20" points="308.67 67.17 306.01 69.8 303.35 67.17 308.67 67.17"/>
      <polygon class="cls-20" points="303.35 74.94 306.01 72.3 308.67 74.94 303.35 74.94"/>
    </g>
    <path class="cls-21" d="M423.73,242h-1.17c-1.31-1.48-2.57-3-3.86-4.54-1.13-1.32-2.25-2.66-3.36-4-.15-.19-.3-.44-.56-.49-.18.24-.11.58-.11.89v5.05a3.92,3.92,0,0,0,.22,1.8,1.19,1.19,0,0,0,.88.44,2.6,2.6,0,0,1,.64.09c.12.11.07.54,0,.65-1.48,0-3,0-4.46,0a.79.79,0,0,1,0-.67,3.78,3.78,0,0,0,1.14-.21c.71-.34.59-1.56.59-2.64V232.2a10.08,10.08,0,0,0,0-1.23.35.35,0,0,0,0-.11,1.77,1.77,0,0,0-1.56-1.12.78.78,0,0,1,0-.65c1.05,0,2.16,0,3.23,0,2.31,2.68,4.57,5.41,6.88,8.11.14.16.37.5.56.43s.11-.6.11-.86v-4.89a3.36,3.36,0,0,0-.26-1.69c-.29-.39-.91-.38-1.48-.48a.61.61,0,0,1,0-.6c1.46,0,3,0,4.46,0a.71.71,0,0,1,0,.65,3.37,3.37,0,0,0-1.24.28c-.62.38-.5,1.65-.5,2.61,0,3.08-.06,6.4.11,9.24Z" transform="translate(-95.53 -164.61)"/>
    <g>
      <g>
        <rect class="cls-12" x="343.75" y="57.78" width="62.4" height="39.77" rx="3"/>
        <rect class="cls-10" x="343.75" y="57.78" width="62.4" height="39.77" rx="3"/>
      </g>
      <g>
        <rect class="cls-13" x="370.73" y="85.32" width="8.42" height="7.68" rx="0.5"/>
        <rect class="cls-14" x="370.73" y="85.32" width="8.42" height="7.68" rx="0.5"/>
      </g>
      <g>
        <rect class="cls-13" x="382.64" y="85.32" width="8.42" height="7.68" rx="0.5"/>
        <rect class="cls-14" x="382.64" y="85.32" width="8.42" height="7.68" rx="0.5"/>
      </g>
      <g>
        <rect class="cls-13" x="394.55" y="85.48" width="8.42" height="7.68" rx="0.5"/>
        <rect class="cls-14" x="394.55" y="85.48" width="8.42" height="7.68" rx="0.5"/>
      </g>
      <g>
        <rect class="cls-13" x="358.82" y="85.32" width="8.42" height="7.68" rx="0.5"/>
        <rect class="cls-14" x="358.82" y="85.32" width="8.42" height="7.68" rx="0.5"/>
      </g>
      <g>
        <rect class="cls-13" x="346.91" y="85.27" width="8.42" height="7.68" rx="0.5"/>
        <rect class="cls-14" x="346.91" y="85.27" width="8.42" height="7.68" rx="0.5"/>
      </g>
      <rect class="cls-15" x="346.91" y="61.26" width="56.06" height="19.37"/>
    </g>
    <g>
      <path class="cls-16" d="M445.12,235.55a7.72,7.72,0,1,0,7.72-7.72A7.72,7.72,0,0,0,445.12,235.55Z" transform="translate(-95.53 -164.61)"/>
      <path class="cls-17" d="M446.51,235.55a6.33,6.33,0,1,0,6.33-6.34A6.33,6.33,0,0,0,446.51,235.55Z" transform="translate(-95.53 -164.61)"/>
      <polygon points="356.74 70.62 357.88 71.27 360.38 65.57 360.27 65.52 356.74 70.62"/>
      <polygon points="356.99 71.51 357.63 70.37 353.86 68.94 353.81 69.03 356.99 71.51"/>
      <g>
        <path class="cls-18" d="M452.32,235.25a.59.59,0,1,0,.81-.22A.6.6,0,0,0,452.32,235.25Z" transform="translate(-95.53 -164.61)"/>
        <path d="M452.83,236.41h0a.91.91,0,0,1-.42-.11.86.86,0,1,1,1.18-.33A.89.89,0,0,1,452.83,236.41Zm0-1.43a.57.57,0,0,0-.29,1.07.6.6,0,0,0,.78-.22.57.57,0,0,0-.21-.78A.58.58,0,0,0,452.84,235Z" transform="translate(-95.53 -164.61)"/>
      </g>
    </g>
    <g>
      <path class="cls-19" d="M466.86,235.61a4.92,4.92,0,1,0,4.92-4.91A4.91,4.91,0,0,0,466.86,235.61Zm-2.71,0a7.63,7.63,0,1,1,7.63,7.62A7.62,7.62,0,0,1,464.15,235.61Z" transform="translate(-95.53 -164.61)"/>
      <polygon class="cls-20" points="378.92 67.17 376.25 69.8 373.59 67.17 378.92 67.17"/>
      <polygon class="cls-20" points="373.59 74.94 376.25 72.3 378.92 74.94 373.59 74.94"/>
    </g>
    <path class="cls-21" d="M494,242H492.8c-1.31-1.48-2.57-3-3.86-4.54-1.12-1.32-2.25-2.66-3.35-4-.16-.19-.3-.44-.57-.49-.18.24-.11.58-.11.89v5.05a3.92,3.92,0,0,0,.22,1.8,1.22,1.22,0,0,0,.89.44,2.45,2.45,0,0,1,.63.09c.12.11.07.54,0,.65-1.48,0-3,0-4.45,0a.82.82,0,0,1,0-.67,3.72,3.72,0,0,0,1.14-.21c.72-.34.59-1.56.59-2.64V232.2a10.08,10.08,0,0,0,0-1.23.35.35,0,0,0,0-.11,1.77,1.77,0,0,0-1.56-1.12.78.78,0,0,1,0-.65c1,0,2.15,0,3.23,0,2.3,2.68,4.56,5.41,6.88,8.11.13.16.36.5.55.43s.12-.6.12-.86v-4.89a3.35,3.35,0,0,0-.27-1.69c-.28-.39-.91-.38-1.47-.48a.59.59,0,0,1,0-.6c1.45,0,3,0,4.46,0a.74.74,0,0,1,0,.65,3.38,3.38,0,0,0-1.25.28c-.62.38-.49,1.65-.49,2.61,0,3.08-.06,6.4.1,9.24Z" transform="translate(-95.53 -164.61)"/>
    <g>
      <g>
        <rect class="cls-12" x="133.01" y="57.78" width="62.39" height="39.77" rx="3"/>
        <rect class="cls-10" x="133.01" y="57.78" width="62.39" height="39.77" rx="3"/>
      </g>
      <g>
        <rect class="cls-13" x="148.09" y="85.32" width="8.42" height="7.68" rx="0.5"/>
        <rect class="cls-14" x="148.09" y="85.32" width="8.42" height="7.68" rx="0.5"/>
      </g>
      <g>
        <rect class="cls-13" x="136.18" y="85.27" width="8.42" height="7.68" rx="0.5"/>
        <rect class="cls-14" x="136.18" y="85.27" width="8.42" height="7.68" rx="0.5"/>
      </g>
      <rect class="cls-15" x="136.18" y="61.26" width="56.06" height="19.37"/>
    </g>
    <g>
      <path class="cls-16" d="M234.38,235.55a7.72,7.72,0,1,0,7.72-7.72A7.72,7.72,0,0,0,234.38,235.55Z" transform="translate(-95.53 -164.61)"/>
      <path class="cls-17" d="M235.77,235.55a6.34,6.34,0,1,0,6.33-6.34A6.34,6.34,0,0,0,235.77,235.55Z" transform="translate(-95.53 -164.61)"/>
      <polygon points="146.01 70.62 147.15 71.27 149.65 65.57 149.54 65.52 146.01 70.62"/>
      <polygon points="146.26 71.51 146.9 70.37 143.13 68.94 143.07 69.03 146.26 71.51"/>
      <g>
        <path class="cls-18" d="M241.59,235.25a.59.59,0,1,0,.8-.22A.59.59,0,0,0,241.59,235.25Z" transform="translate(-95.53 -164.61)"/>
        <path d="M242.1,236.41h0a.91.91,0,0,1-.42-.11.86.86,0,0,1-.32-1.18.86.86,0,0,1,1.5.85A.89.89,0,0,1,242.1,236.41Zm0-1.43a.56.56,0,0,0-.49.29.57.57,0,0,0,.21.78.6.6,0,0,0,.78-.22.56.56,0,0,0-.22-.78A.53.53,0,0,0,242.1,235Z" transform="translate(-95.53 -164.61)"/>
      </g>
    </g>
    <g>
      <path class="cls-19" d="M256.12,235.61a4.93,4.93,0,1,0,4.93-4.91A4.92,4.92,0,0,0,256.12,235.61Zm-2.71,0a7.64,7.64,0,1,1,7.64,7.62A7.63,7.63,0,0,1,253.41,235.61Z" transform="translate(-95.53 -164.61)"/>
      <polygon class="cls-20" points="168.18 67.17 165.52 69.8 162.86 67.17 168.18 67.17"/>
      <polygon class="cls-20" points="162.86 74.94 165.52 72.3 168.18 74.94 162.86 74.94"/>
    </g>
    <path class="cls-21" d="M283.24,242h-1.17c-1.31-1.48-2.57-3-3.86-4.54-1.12-1.32-2.25-2.66-3.35-4-.16-.19-.3-.44-.57-.49-.18.24-.11.58-.11.89v5.05a3.92,3.92,0,0,0,.22,1.8,1.2,1.2,0,0,0,.89.44,2.52,2.52,0,0,1,.63.09c.12.11.07.54,0,.65-1.48,0-3,0-4.45,0a.75.75,0,0,1,0-.67,3.72,3.72,0,0,0,1.14-.21c.72-.34.59-1.56.59-2.64V232.2a10.08,10.08,0,0,0,0-1.23.35.35,0,0,0,0-.11,1.77,1.77,0,0,0-1.56-1.12.78.78,0,0,1,0-.65c1,0,2.16,0,3.23,0,2.31,2.68,4.57,5.41,6.88,8.11.14.16.37.5.56.43s.11-.6.11-.86v-4.89a3.36,3.36,0,0,0-.26-1.69c-.28-.39-.91-.38-1.48-.48a.64.64,0,0,1,0-.6c1.46,0,3,0,4.47,0a.74.74,0,0,1,0,.65,3.38,3.38,0,0,0-1.25.28c-.62.38-.49,1.65-.49,2.61,0,3.08-.06,6.4.1,9.24Z" transform="translate(-95.53 -164.61)"/>
    <g>
      <g>
        <rect class="cls-12" x="62.77" y="57.78" width="62.4" height="39.77" rx="3"/>
        <rect class="cls-10" x="62.77" y="57.78" width="62.4" height="39.77" rx="3"/>
      </g>
      <g>
        <rect class="cls-13" x="89.76" y="85.32" width="8.42" height="7.68" rx="0.5"/>
        <rect class="cls-14" x="89.76" y="85.32" width="8.42" height="7.68" rx="0.5"/>
      </g>
      <g>
        <rect class="cls-13" x="101.67" y="85.32" width="8.42" height="7.68" rx="0.5"/>
        <rect class="cls-14" x="101.67" y="85.32" width="8.42" height="7.68" rx="0.5"/>
      </g>
      <g>
        <rect class="cls-13" x="77.85" y="85.32" width="8.42" height="7.68" rx="0.5"/>
        <rect class="cls-14" x="77.85" y="85.32" width="8.42" height="7.68" rx="0.5"/>
      </g>
      <g>
        <rect class="cls-13" x="65.94" y="85.27" width="8.42" height="7.68" rx="0.5"/>
        <rect class="cls-14" x="65.94" y="85.27" width="8.42" height="7.68" rx="0.5"/>
      </g>
      <rect class="cls-15" x="65.94" y="61.26" width="56.06" height="19.37"/>
    </g>
    <g>
      <path class="cls-16" d="M164.14,235.55a7.72,7.72,0,1,0,7.72-7.72A7.72,7.72,0,0,0,164.14,235.55Z" transform="translate(-95.53 -164.61)"/>
      <path class="cls-17" d="M165.53,235.55a6.33,6.33,0,1,0,6.33-6.34A6.34,6.34,0,0,0,165.53,235.55Z" transform="translate(-95.53 -164.61)"/>
      <polygon points="75.77 70.62 76.91 71.27 79.4 65.57 79.3 65.52 75.77 70.62"/>
      <polygon points="76.01 71.51 76.66 70.37 72.88 68.94 72.83 69.03 76.01 71.51"/>
      <g>
        <path class="cls-18" d="M171.34,235.25a.59.59,0,0,0,.23.81.6.6,0,0,0,.81-.22.59.59,0,0,0-.23-.81A.6.6,0,0,0,171.34,235.25Z" transform="translate(-95.53 -164.61)"/>
        <path d="M171.86,236.41h0a1,1,0,0,1-.43-.11.86.86,0,0,1,.85-1.5.85.85,0,0,1,.33,1.17A.86.86,0,0,1,171.86,236.41Zm0-1.43a.57.57,0,0,0-.5.29.58.58,0,0,0,.22.78.61.61,0,0,0,.78-.22.58.58,0,0,0-.22-.78A.55.55,0,0,0,171.86,235Z" transform="translate(-95.53 -164.61)"/>
      </g>
    </g>
    <g>
      <path class="cls-19" d="M185.88,235.61a4.92,4.92,0,1,0,4.92-4.91A4.91,4.91,0,0,0,185.88,235.61Zm-2.71,0a7.63,7.63,0,1,1,7.63,7.62A7.63,7.63,0,0,1,183.17,235.61Z" transform="translate(-95.53 -164.61)"/>
      <polygon class="cls-20" points="97.94 67.17 95.28 69.8 92.61 67.17 97.94 67.17"/>
      <polygon class="cls-20" points="92.61 74.94 95.28 72.3 97.94 74.94 92.61 74.94"/>
    </g>
    <path class="cls-21" d="M213,242h-1.18c-1.31-1.48-2.57-3-3.86-4.54-1.12-1.32-2.24-2.66-3.35-4-.15-.19-.3-.44-.57-.49a1.54,1.54,0,0,0-.11.89v5.05a3.91,3.91,0,0,0,.23,1.8,1.19,1.19,0,0,0,.88.44,2.45,2.45,0,0,1,.63.09c.13.11.07.54,0,.65-1.48,0-3,0-4.46,0a.79.79,0,0,1,0-.67,3.72,3.72,0,0,0,1.13-.21c.72-.34.6-1.56.6-2.64V232.2a10.08,10.08,0,0,0,0-1.23.61.61,0,0,1,0-.11,1.77,1.77,0,0,0-1.56-1.12.78.78,0,0,1,0-.65c1,0,2.15,0,3.23,0,2.31,2.68,4.57,5.41,6.88,8.11.14.16.37.5.55.43s.12-.6.12-.86v-4.89a3.35,3.35,0,0,0-.27-1.69c-.28-.39-.9-.38-1.47-.48a.61.61,0,0,1,0-.6c1.45,0,3,0,4.46,0a.71.71,0,0,1,0,.65,3.37,3.37,0,0,0-1.24.28c-.62.38-.5,1.65-.5,2.61,0,3.08-.06,6.4.1,9.24Z" transform="translate(-95.53 -164.61)"/>
    <line class="cls-23" x1="337.17" y1="70.95" x2="346.91" y2="70.95"/>
    <g>
      <g>
        <rect class="cls-29" x="203.26" y="9.63" width="62.4" height="39.77" rx="3"/>
        <rect class="cls-30" x="203.26" y="9.63" width="62.4" height="39.77" rx="3"/>
      </g>
      <g>
        <rect class="cls-31" x="230.24" y="37.17" width="8.42" height="7.68" rx="0.5"/>
        <rect class="cls-32" x="230.24" y="37.17" width="8.42" height="7.68" rx="0.5"/>
      </g>
      <g>
        <rect class="cls-31" x="242.16" y="37.17" width="8.42" height="7.68" rx="0.5"/>
        <rect class="cls-32" x="242.16" y="37.17" width="8.42" height="7.68" rx="0.5"/>
      </g>
      <g>
        <rect class="cls-31" x="254.07" y="37.33" width="8.42" height="7.68" rx="0.5"/>
        <rect class="cls-32" x="254.07" y="37.33" width="8.42" height="7.68" rx="0.5"/>
      </g>
      <g>
        <rect class="cls-31" x="218.33" y="37.17" width="8.42" height="7.68" rx="0.5"/>
        <rect class="cls-32" x="218.33" y="37.17" width="8.42" height="7.68" rx="0.5"/>
      </g>
      <g>
        <rect class="cls-31" x="206.42" y="37.12" width="8.42" height="7.68" rx="0.5"/>
        <rect class="cls-32" x="206.42" y="37.12" width="8.42" height="7.68" rx="0.5"/>
      </g>
      <rect class="cls-33" x="206.42" y="13.11" width="56.06" height="19.37"/>
    </g>
    <g>
      <path class="cls-34" d="M304.63,187.4a7.72,7.72,0,1,0,7.72-7.73A7.72,7.72,0,0,0,304.63,187.4Z" transform="translate(-95.53 -164.61)"/>
      <path class="cls-17" d="M306,187.4a6.33,6.33,0,1,0,6.33-6.34A6.33,6.33,0,0,0,306,187.4Z" transform="translate(-95.53 -164.61)"/>
      <polygon class="cls-35" points="216.25 22.47 217.4 23.11 219.89 17.41 219.79 17.36 216.25 22.47"/>
      <polygon class="cls-35" points="216.5 23.36 217.14 22.22 213.37 20.79 213.32 20.88 216.5 23.36"/>
      <g>
        <path class="cls-36" d="M311.83,187.1a.59.59,0,1,0,.81-.22A.6.6,0,0,0,311.83,187.1Z" transform="translate(-95.53 -164.61)"/>
        <path class="cls-35" d="M312.35,188.26h0a.92.92,0,0,1-.43-.11.86.86,0,0,1,.85-1.5.86.86,0,0,1-.42,1.61Zm0-1.44a.58.58,0,0,0-.5.3.56.56,0,0,0,.22.77.58.58,0,0,0,.77-.21.58.58,0,0,0-.49-.86Z" transform="translate(-95.53 -164.61)"/>
      </g>
    </g>
    <g>
      <path class="cls-37" d="M326.37,187.46a4.92,4.92,0,1,0,4.92-4.91A4.91,4.91,0,0,0,326.37,187.46Zm-2.71,0a7.63,7.63,0,1,1,7.63,7.61A7.62,7.62,0,0,1,323.66,187.46Z" transform="translate(-95.53 -164.61)"/>
      <polygon class="cls-38" points="238.43 19.02 235.77 21.65 233.1 19.02 238.43 19.02"/>
      <polygon class="cls-38" points="233.1 26.78 235.77 24.15 238.43 26.78 233.1 26.78"/>
    </g>
    <path class="cls-39" d="M353.48,193.82h-1.17c-1.31-1.48-2.57-3-3.86-4.54-1.12-1.32-2.24-2.66-3.35-4-.16-.19-.3-.44-.57-.49-.18.24-.11.58-.11.89v5a3.8,3.8,0,0,0,.23,1.81,1.19,1.19,0,0,0,.88.44c.12,0,.55,0,.63.09s.07.54,0,.65c-1.47,0-3,0-4.45,0a.82.82,0,0,1,0-.67,3.72,3.72,0,0,0,1.14-.21c.72-.34.59-1.56.59-2.64v-6.15a8.55,8.55,0,0,0,0-1.24s0-.07,0-.1a1.75,1.75,0,0,0-1.56-1.12.8.8,0,0,1,0-.66c1,0,2.15,0,3.23,0,2.31,2.68,4.57,5.41,6.88,8.11.13.16.36.5.55.43s.12-.6.12-.86v-4.89a3.35,3.35,0,0,0-.27-1.69c-.28-.39-.91-.38-1.47-.48a.63.63,0,0,1,0-.61c1.45,0,3,0,4.46,0a.76.76,0,0,1,0,.66,3.38,3.38,0,0,0-1.25.28c-.61.38-.49,1.65-.49,2.61,0,3.08-.06,6.4.1,9.24Z" transform="translate(-95.53 -164.61)"/>
    <path d="M431,236.16a22.16,22.16,0,0,1,2.34.85V234.1A22.43,22.43,0,0,1,431,235a17.47,17.47,0,0,1-2.53.6A15.75,15.75,0,0,1,431,236.16Z" transform="translate(-95.53 -164.61)"/>
    <path d="M360.77,236.16a23,23,0,0,1,2.34.85V234.1a22.43,22.43,0,0,1-2.33.87,17.55,17.55,0,0,1-2.54.6A15.83,15.83,0,0,1,360.77,236.16Z" transform="translate(-95.53 -164.61)"/>
    <path d="M290.53,236.16a21.94,21.94,0,0,1,2.33.85V234.1a22,22,0,0,1-2.32.87,17.55,17.55,0,0,1-2.54.6A16.07,16.07,0,0,1,290.53,236.16Z" transform="translate(-95.53 -164.61)"/>
    <line class="cls-40" x1="203.02" y1="22.64" x2="206.22" y2="22.64"/>
    <polyline class="cls-23" points="196.68 64.89 200.47 64.89 200.47 22.64 203.02 22.64"/>
    <path d="M290.53,230.1a21.94,21.94,0,0,1,2.33.85V228a19.93,19.93,0,0,1-2.32.87,16.3,16.3,0,0,1-2.54.6A17.29,17.29,0,0,1,290.53,230.1Z" transform="translate(-95.53 -164.61)"/>
    <path d="M220.29,236.16a21.94,21.94,0,0,1,2.33.85V234.1a22.94,22.94,0,0,1-2.32.87,17.55,17.55,0,0,1-2.54.6A16.07,16.07,0,0,1,220.29,236.16Z" transform="translate(-95.53 -164.61)"/>
    <path d="M150.05,236.16a21.94,21.94,0,0,1,2.33.85V234.1A22.43,22.43,0,0,1,150,235a17.47,17.47,0,0,1-2.53.6A16.07,16.07,0,0,1,150.05,236.16Z" transform="translate(-95.53 -164.61)"/>
    <path class="cls-41" d="M104.91,264.4c7-15.81-3.73-29.36-3.73-44.35" transform="translate(-95.53 -164.61)"/>
    <g>
      <path class="cls-22" d="M294.83,182.17c-9.33.5-18.5,15-25.83,15" transform="translate(-95.53 -164.61)"/>
      <polygon points="198.66 15.73 202 17.43 198.86 19.47 198.66 15.73"/>
    </g>
  </g>
</svg>
