<?xml version="1.0" encoding="UTF-8" standalone="no"?>
<svg
   xmlns:dc="http://purl.org/dc/elements/1.1/"
   xmlns:cc="http://creativecommons.org/ns#"
   xmlns:rdf="http://www.w3.org/1999/02/22-rdf-syntax-ns#"
   xmlns:svg="http://www.w3.org/2000/svg"
   xmlns="http://www.w3.org/2000/svg"
   version="1.1"
   id="svg2"
   xml:space="preserve"
   width="297.55444"
   height="164.68517"
   viewBox="0 0 297.55444 164.68517"><metadata
     id="metadata8"><rdf:RDF><cc:Work
         rdf:about=""><dc:format>image/svg+xml</dc:format><dc:type
           rdf:resource="http://purl.org/dc/dcmitype/StillImage" /></cc:Work></rdf:RDF></metadata><defs
     id="defs6"><clipPath
       clipPathUnits="userSpaceOnUse"
       id="clipPath18"><path
         d="M 0,792 H 612 V 0 H 0 Z"
         id="path16" /></clipPath><linearGradient
       x1="0"
       y1="0"
       x2="1"
       y2="0"
       gradientUnits="userSpaceOnUse"
       gradientTransform="matrix(50.90918,0,0,-50.90918,258.05566,595.75488)"
       spreadMethod="pad"
       id="linearGradient266"><stop
         style="stop-opacity:1;stop-color:#afe1a1"
         offset="0"
         id="stop262" /><stop
         style="stop-opacity:1;stop-color:#edf8e5"
         offset="1"
         id="stop264" /></linearGradient><linearGradient
       x1="0"
       y1="0"
       x2="1"
       y2="0"
       gradientUnits="userSpaceOnUse"
       gradientTransform="matrix(48.57666,0,0,-48.57666,258.96436,595.75488)"
       spreadMethod="pad"
       id="linearGradient286"><stop
         style="stop-opacity:1;stop-color:#edf8e5"
         offset="0"
         id="stop282" /><stop
         style="stop-opacity:1;stop-color:#afe1a1"
         offset="1"
         id="stop284" /></linearGradient><clipPath
       clipPathUnits="userSpaceOnUse"
       id="clipPath296"><path
         d="M 0,792 H 612 V 0 H 0 Z"
         id="path294" /></clipPath><linearGradient
       x1="0"
       y1="0"
       x2="1"
       y2="0"
       gradientUnits="userSpaceOnUse"
       gradientTransform="matrix(50.910156,0,0,-50.910156,258.05957,551.13574)"
       spreadMethod="pad"
       id="linearGradient336"><stop
         style="stop-opacity:1;stop-color:#ed1c24"
         offset="0"
         id="stop330" /><stop
         style="stop-opacity:1;stop-color:#fbc7a7"
         offset="0.58054141"
         id="stop332" /><stop
         style="stop-opacity:1;stop-color:#fbc7a7"
         offset="1"
         id="stop334" /></linearGradient><linearGradient
       x1="0"
       y1="0"
       x2="1"
       y2="0"
       gradientUnits="userSpaceOnUse"
       gradientTransform="matrix(48.583008,0,0,-48.583008,258.9668,551.13525)"
       spreadMethod="pad"
       id="linearGradient356"><stop
         style="stop-opacity:1;stop-color:#fbc7a7"
         offset="0"
         id="stop352" /><stop
         style="stop-opacity:1;stop-color:#ed1c24"
         offset="1"
         id="stop354" /></linearGradient><clipPath
       clipPathUnits="userSpaceOnUse"
       id="clipPath366"><path
         d="M 0,792 H 612 V 0 H 0 Z"
         id="path364" /></clipPath><linearGradient
       x1="0"
       y1="0"
       x2="1"
       y2="0"
       gradientUnits="userSpaceOnUse"
       gradientTransform="matrix(50.910156,0,0,-50.910156,185.05908,590.54541)"
       spreadMethod="pad"
       id="linearGradient406"><stop
         style="stop-opacity:1;stop-color:#ed1c24"
         offset="0"
         id="stop400" /><stop
         style="stop-opacity:1;stop-color:#fbc7a7"
         offset="0.58054141"
         id="stop402" /><stop
         style="stop-opacity:1;stop-color:#fbc7a7"
         offset="1"
         id="stop404" /></linearGradient><linearGradient
       x1="0"
       y1="0"
       x2="1"
       y2="0"
       gradientUnits="userSpaceOnUse"
       gradientTransform="matrix(48.583008,0,0,-48.583008,185.96631,590.54492)"
       spreadMethod="pad"
       id="linearGradient426"><stop
         style="stop-opacity:1;stop-color:#fbc7a7"
         offset="0"
         id="stop422" /><stop
         style="stop-opacity:1;stop-color:#ed1c24"
         offset="1"
         id="stop424" /></linearGradient><clipPath
       clipPathUnits="userSpaceOnUse"
       id="clipPath436"><path
         d="M 0,792 H 612 V 0 H 0 Z"
         id="path434" /></clipPath></defs><g
     id="g10"
     transform="matrix(1.3333333,0,0,-1.3333333,-233.95108,872.44854)"><g
       id="g12"><g
         id="g14"
         clip-path="url(#clipPath18)"><g
           id="g20"
           transform="translate(177.7134,593.3394)"><path
             d="m 0,0 c 0.987,0.054 1.215,0.116 2.25,0.272 5.985,0.9 8.594,3.403 10.583,4.935 2.223,1.707 4.139,3.179 11.433,3.671 l -4.824,3.815 C 10.233,12.072 7.508,9.976 5.101,8.125 3.933,7.231 2.869,6.414 1.1,5.758 L 1.667,4.383 0.75,3.747 -0.583,3.464 -0.167,1.979 Z"
             style="fill:#f8a45c;fill-opacity:1;fill-rule:nonzero;stroke:none"
             id="path22" /></g><g
           id="g24"
           transform="translate(177.7134,593.3394)"><path
             d="m 0,0 c 0.987,0.054 1.215,0.116 2.25,0.272 5.985,0.9 8.594,3.403 10.583,4.935 2.223,1.707 4.139,3.179 11.433,3.671 l -4.824,3.815 C 10.233,12.072 7.508,9.976 5.101,8.125 3.933,7.231 2.869,6.414 1.1,5.758 L 1.667,4.383 0.75,3.747 -0.583,3.464 -0.167,1.979 Z"
             style="fill:none;stroke:#231f20;stroke-width:0.3;stroke-linecap:butt;stroke-linejoin:miter;stroke-miterlimit:4;stroke-dasharray:none;stroke-opacity:1"
             id="path26" /></g><g
           id="g28"
           transform="translate(176.6162,590.1909)"><path
             d="m 0,0 c 4.242,-0.896 8.968,-1.602 14.374,-0.79 5.987,0.903 8.242,2.636 10.233,4.164 2.222,1.71 4.143,3.181 11.441,3.676 l -4.49,4.581 C 22.361,11.015 19.633,8.918 17.225,7.065 15.366,5.64 13.769,4.411 9.168,3.717 5.983,3.236 3.407,3.462 0.573,4 0.573,4 -0.153,4.068 -0.736,4.492 -0.903,3.926 -0.319,3.078 0.097,2.724 L 0.264,1.947 -0.57,1.805 Z"
             style="fill:#f8a45c;fill-opacity:1;fill-rule:nonzero;stroke:none"
             id="path30" /></g><g
           id="g32"
           transform="translate(176.6162,590.1909)"><path
             d="m 0,0 c 4.242,-0.896 8.968,-1.602 14.374,-0.79 5.987,0.903 8.242,2.636 10.233,4.164 2.222,1.71 4.143,3.181 11.441,3.676 l -4.49,4.581 C 22.361,11.015 19.633,8.918 17.225,7.065 15.366,5.64 13.769,4.411 9.168,3.717 5.983,3.236 3.407,3.462 0.573,4 0.573,4 -0.153,4.068 -0.736,4.492 -0.903,3.926 -0.319,3.078 0.097,2.724 L 0.264,1.947 -0.57,1.805 Z"
             style="fill:none;stroke:#231f20;stroke-width:0.3;stroke-linecap:butt;stroke-linejoin:miter;stroke-miterlimit:4;stroke-dasharray:none;stroke-opacity:1"
             id="path34" /></g><g
           id="g36"
           transform="translate(179.3223,584.4517)"><path
             d="m 0,0 c 3.197,-0.399 6.655,-0.504 10.434,0.142 5.964,1.025 8.182,2.806 10.138,4.372 2.196,1.758 5.027,3.527 12.318,4.164 l -4.581,4.494 C 19.123,12.366 15.489,9.955 13.119,8.058 11.291,6.595 9.722,5.329 5.137,4.542 3.243,4.217 1.56,4.148 -0.094,4.246 L 1.382,2.508 0.484,1.571 Z"
             style="fill:#f8a45c;fill-opacity:1;fill-rule:nonzero;stroke:none"
             id="path38" /></g><g
           id="g40"
           transform="translate(179.3223,584.4517)"><path
             d="m 0,0 c 3.197,-0.399 6.655,-0.504 10.434,0.142 5.964,1.025 8.182,2.806 10.138,4.372 2.196,1.758 5.027,3.527 12.318,4.164 l -4.581,4.494 C 19.123,12.366 15.489,9.955 13.119,8.058 11.291,6.595 9.722,5.329 5.137,4.542 3.243,4.217 1.56,4.148 -0.094,4.246 L 1.382,2.508 0.484,1.571 Z"
             style="fill:none;stroke:#231f20;stroke-width:0.3;stroke-linecap:butt;stroke-linejoin:miter;stroke-miterlimit:4;stroke-dasharray:none;stroke-opacity:1"
             id="path42" /></g><g
           id="g44"
           transform="translate(176.811,584.1675)"><path
             d="m 0,0 c 1.743,-0.456 3.388,-1.004 5.061,-1.563 4.678,-1.552 9.965,-3.317 16.677,-2.932 6.102,0.349 8.676,1.835 10.918,3.193 3.329,2.014 5.745,3.431 12.033,2.603 L 41.104,6.254 C 31.865,6.48 28.769,4.651 26.03,3.035 23.928,1.79 22.108,0.716 17.417,0.448 12.793,0.183 9.667,1.225 5.34,2.669 4.034,3.104 2.656,3.562 1.182,3.998 L 0.735,1.536 -1.181,1.465 c 0,0 0.112,-1.021 1.181,-1.465"
             style="fill:#f8a45c;fill-opacity:1;fill-rule:nonzero;stroke:none"
             id="path46" /></g><g
           id="g48"
           transform="translate(176.811,584.1675)"><path
             d="m 0,0 c 1.743,-0.456 3.388,-1.004 5.061,-1.563 4.678,-1.552 9.965,-3.317 16.677,-2.932 6.102,0.349 8.676,1.835 10.918,3.193 3.329,2.014 5.745,3.431 12.033,2.603 L 41.104,6.254 C 31.865,6.48 28.769,4.651 26.03,3.035 23.928,1.79 22.108,0.716 17.417,0.448 12.793,0.183 9.667,1.225 5.34,2.669 4.034,3.104 2.656,3.562 1.182,3.998 L 0.735,1.536 -1.181,1.465 c 0,0 0.112,-1.021 1.181,-1.465 z"
             style="fill:none;stroke:#231f20;stroke-width:0.3;stroke-linecap:butt;stroke-linejoin:miter;stroke-miterlimit:4;stroke-dasharray:none;stroke-opacity:1"
             id="path50" /></g><g
           id="g52"
           transform="translate(177.6089,598.0923)"><path
             d="m 0,0 c 1.313,0.029 2.668,0.137 4.07,0.348 5.988,0.907 8.242,2.637 10.231,4.17 2.224,1.702 4.144,3.183 11.444,3.669 l -4.492,4.586 C 14.271,12.788 10.604,10.288 7.854,8.371 6.097,7.146 3.744,5.769 0.002,5.051 c 0,0 -0.814,-0.048 -1.398,0.094 0,0 0.834,-1.272 2,-1.414 L -0.813,2.812 -0.729,1.61 Z"
             style="fill:#f8a45c;fill-opacity:1;fill-rule:nonzero;stroke:none"
             id="path54" /></g><g
           id="g56"
           transform="translate(177.6089,598.0923)"><path
             d="m 0,0 c 1.313,0.029 2.668,0.137 4.07,0.348 5.988,0.907 8.242,2.637 10.231,4.17 2.224,1.702 4.144,3.183 11.444,3.669 l -4.492,4.586 C 14.271,12.788 10.604,10.288 7.854,8.371 6.097,7.146 3.744,5.769 0.002,5.051 c 0,0 -0.814,-0.048 -1.398,0.094 0,0 0.834,-1.272 2,-1.414 L -0.813,2.812 -0.729,1.61 Z"
             style="fill:none;stroke:#231f20;stroke-width:0.3;stroke-linecap:butt;stroke-linejoin:miter;stroke-miterlimit:4;stroke-dasharray:none;stroke-opacity:1"
             id="path58" /></g><g
           id="g60"
           transform="translate(202.8027,595.2368)"><path
             d="m 0,0 c -1.468,-0.104 -5.221,-0.708 -5.221,-0.708 l -2.872,-3.283 4.045,1.994 6.289,0.614 z"
             style="fill:#96cd56;fill-opacity:1;fill-rule:nonzero;stroke:none"
             id="path62" /></g><g
           id="g64"
           transform="translate(205.7891,587.1704)"><path
             d="m 0,0 -2.67,-2.356 -6.082,-1.339 3.407,-1.017 5.008,1.435 z"
             style="fill:#f9aeca;fill-opacity:1;fill-rule:nonzero;stroke:none"
             id="path66" /></g><g
           id="g68"
           transform="translate(188.043,604.1333)"><path
             d="m 0,0 -4.153,-0.804 -4.909,-2.629 6.741,1.043 z"
             style="fill:#231f20;fill-opacity:1;fill-rule:evenodd;stroke:none"
             id="path70" /></g><g
           id="g72"
           transform="translate(193.3486,589.9507)"><path
             d="m 0,0 -5.467,-1.868 -0.6,-1.126 5.265,0.94 z"
             style="fill:#f9aeca;fill-opacity:1;fill-rule:evenodd;stroke:none"
             id="path74" /></g><g
           id="g76"
           transform="translate(198.0142,603.8501)"><path
             d="m 0,0 -5.467,-1.868 -0.6,-1.126 5.265,0.94 z"
             style="fill:#f9aeca;fill-opacity:1;fill-rule:evenodd;stroke:none"
             id="path78" /></g><g
           id="g80"
           transform="translate(215.02,588.4712)"><path
             d="m 0,0 -6.123,-1.571 -0.449,-2.085 5.068,1.668 z"
             style="fill:#231f20;fill-opacity:1;fill-rule:evenodd;stroke:none"
             id="path82" /></g><g
           id="g84"
           transform="translate(185.3545,596.1099)"><path
             d="m 0,0 -7.512,0.444 4.063,-1.308 z"
             style="fill:#96cd56;fill-opacity:1;fill-rule:evenodd;stroke:none"
             id="path86" /></g><g
           id="g88"
           transform="translate(188.105,583.4775)"><path
             d="m 0,0 -6.738,1.736 c 0,0 3.258,-2.06 4.199,-2.48 0.949,-0.417 6.926,-1.287 6.926,-1.287 z"
             style="fill:#96cd56;fill-opacity:1;fill-rule:evenodd;stroke:none"
             id="path90" /></g><g
           id="g92"
           transform="translate(196.6377,608.7847)"><path
             d="m 0,0 -6.938,-1.969 c 0,0 -2.775,-2.818 -1.657,-2.682 1.116,0.134 5.923,2.297 5.923,2.297 z"
             style="fill:#96cd56;fill-opacity:1;fill-rule:evenodd;stroke:none"
             id="path94" /></g><g
           id="g96"
           transform="translate(263.4634,629.5474)"><path
             d="m 0,0 c 0.987,0.054 1.215,0.116 2.25,0.272 5.985,0.9 8.594,3.403 10.583,4.935 2.223,1.707 4.139,3.179 11.433,3.671 l -4.824,3.815 C 10.233,12.072 7.508,9.976 5.101,8.125 3.933,7.231 2.869,6.414 1.1,5.758 L 1.667,4.383 0.75,3.747 -0.583,3.464 -0.167,1.979 Z"
             style="fill:#f8a45c;fill-opacity:1;fill-rule:nonzero;stroke:none"
             id="path98" /></g><g
           id="g100"
           transform="translate(263.4634,629.5474)"><path
             d="m 0,0 c 0.987,0.054 1.215,0.116 2.25,0.272 5.985,0.9 8.594,3.403 10.583,4.935 2.223,1.707 4.139,3.179 11.433,3.671 l -4.824,3.815 C 10.233,12.072 7.508,9.976 5.101,8.125 3.933,7.231 2.869,6.414 1.1,5.758 L 1.667,4.383 0.75,3.747 -0.583,3.464 -0.167,1.979 Z"
             style="fill:none;stroke:#231f20;stroke-width:0.3;stroke-linecap:butt;stroke-linejoin:miter;stroke-miterlimit:4;stroke-dasharray:none;stroke-opacity:1"
             id="path102" /></g><g
           id="g104"
           transform="translate(262.3662,626.3989)"><path
             d="m 0,0 c 4.242,-0.896 8.968,-1.602 14.374,-0.79 5.987,0.903 8.242,2.636 10.233,4.164 2.222,1.71 4.143,3.181 11.441,3.676 l -4.49,4.581 C 22.361,11.015 19.633,8.918 17.225,7.065 15.366,5.64 13.769,4.411 9.168,3.717 5.983,3.236 3.407,3.462 0.573,4 0.573,4 -0.153,4.068 -0.736,4.492 -0.903,3.926 -0.319,3.078 0.097,2.724 L 0.264,1.947 -0.57,1.805 Z"
             style="fill:#f8a45c;fill-opacity:1;fill-rule:nonzero;stroke:none"
             id="path106" /></g><g
           id="g108"
           transform="translate(262.3662,626.3989)"><path
             d="m 0,0 c 4.242,-0.896 8.968,-1.602 14.374,-0.79 5.987,0.903 8.242,2.636 10.233,4.164 2.222,1.71 4.143,3.181 11.441,3.676 l -4.49,4.581 C 22.361,11.015 19.633,8.918 17.225,7.065 15.366,5.64 13.769,4.411 9.168,3.717 5.983,3.236 3.407,3.462 0.573,4 0.573,4 -0.153,4.068 -0.736,4.492 -0.903,3.926 -0.319,3.078 0.097,2.724 L 0.264,1.947 -0.57,1.805 Z"
             style="fill:none;stroke:#231f20;stroke-width:0.3;stroke-linecap:butt;stroke-linejoin:miter;stroke-miterlimit:4;stroke-dasharray:none;stroke-opacity:1"
             id="path110" /></g><g
           id="g112"
           transform="translate(265.0723,620.6597)"><path
             d="m 0,0 c 3.197,-0.399 6.655,-0.504 10.434,0.142 5.964,1.025 8.182,2.806 10.138,4.372 2.196,1.758 5.027,3.527 12.318,4.164 l -4.581,4.494 C 19.123,12.366 15.489,9.955 13.119,8.058 11.291,6.595 9.722,5.329 5.137,4.542 3.243,4.217 1.56,4.148 -0.094,4.246 L 1.382,2.508 0.484,1.571 Z"
             style="fill:#f8a45c;fill-opacity:1;fill-rule:nonzero;stroke:none"
             id="path114" /></g><g
           id="g116"
           transform="translate(265.0723,620.6597)"><path
             d="m 0,0 c 3.197,-0.399 6.655,-0.504 10.434,0.142 5.964,1.025 8.182,2.806 10.138,4.372 2.196,1.758 5.027,3.527 12.318,4.164 l -4.581,4.494 C 19.123,12.366 15.489,9.955 13.119,8.058 11.291,6.595 9.722,5.329 5.137,4.542 3.243,4.217 1.56,4.148 -0.094,4.246 L 1.382,2.508 0.484,1.571 Z"
             style="fill:none;stroke:#231f20;stroke-width:0.3;stroke-linecap:butt;stroke-linejoin:miter;stroke-miterlimit:4;stroke-dasharray:none;stroke-opacity:1"
             id="path118" /></g><g
           id="g120"
           transform="translate(262.561,620.3755)"><path
             d="m 0,0 c 1.743,-0.456 3.388,-1.004 5.061,-1.563 4.678,-1.552 9.965,-3.317 16.677,-2.932 6.102,0.349 8.676,1.835 10.918,3.193 3.329,2.014 5.745,3.431 12.033,2.603 L 41.104,6.254 C 31.865,6.48 28.769,4.651 26.03,3.035 23.928,1.79 22.108,0.716 17.417,0.448 12.793,0.183 9.667,1.225 5.34,2.669 4.034,3.104 2.656,3.562 1.182,3.998 L 0.735,1.536 -1.181,1.465 c 0,0 0.112,-1.021 1.181,-1.465"
             style="fill:#f8a45c;fill-opacity:1;fill-rule:nonzero;stroke:none"
             id="path122" /></g><g
           id="g124"
           transform="translate(262.561,620.3755)"><path
             d="m 0,0 c 1.743,-0.456 3.388,-1.004 5.061,-1.563 4.678,-1.552 9.965,-3.317 16.677,-2.932 6.102,0.349 8.676,1.835 10.918,3.193 3.329,2.014 5.745,3.431 12.033,2.603 L 41.104,6.254 C 31.865,6.48 28.769,4.651 26.03,3.035 23.928,1.79 22.108,0.716 17.417,0.448 12.793,0.183 9.667,1.225 5.34,2.669 4.034,3.104 2.656,3.562 1.182,3.998 L 0.735,1.536 -1.181,1.465 c 0,0 0.112,-1.021 1.181,-1.465 z"
             style="fill:none;stroke:#231f20;stroke-width:0.3;stroke-linecap:butt;stroke-linejoin:miter;stroke-miterlimit:4;stroke-dasharray:none;stroke-opacity:1"
             id="path126" /></g><g
           id="g128"
           transform="translate(263.3589,634.3003)"><path
             d="m 0,0 c 1.313,0.029 2.668,0.137 4.07,0.348 5.988,0.907 8.242,2.637 10.231,4.17 2.224,1.702 4.144,3.183 11.444,3.669 l -4.492,4.586 C 14.271,12.788 10.604,10.288 7.854,8.371 6.097,7.146 3.744,5.769 0.002,5.051 c 0,0 -0.814,-0.048 -1.398,0.094 0,0 0.834,-1.272 2,-1.414 L -0.813,2.812 -0.729,1.61 Z"
             style="fill:#f8a45c;fill-opacity:1;fill-rule:nonzero;stroke:none"
             id="path130" /></g><g
           id="g132"
           transform="translate(263.3589,634.3003)"><path
             d="m 0,0 c 1.313,0.029 2.668,0.137 4.07,0.348 5.988,0.907 8.242,2.637 10.231,4.17 2.224,1.702 4.144,3.183 11.444,3.669 l -4.492,4.586 C 14.271,12.788 10.604,10.288 7.854,8.371 6.097,7.146 3.744,5.769 0.002,5.051 c 0,0 -0.814,-0.048 -1.398,0.094 0,0 0.834,-1.272 2,-1.414 L -0.813,2.812 -0.729,1.61 Z"
             style="fill:none;stroke:#231f20;stroke-width:0.3;stroke-linecap:butt;stroke-linejoin:miter;stroke-miterlimit:4;stroke-dasharray:none;stroke-opacity:1"
             id="path134" /></g><g
           id="g136"
           transform="translate(288.5527,631.4448)"><path
             d="m 0,0 c -1.468,-0.104 -5.221,-0.708 -5.221,-0.708 l -2.872,-3.283 4.045,1.994 6.289,0.614 z"
             style="fill:#96cd56;fill-opacity:1;fill-rule:nonzero;stroke:none"
             id="path138" /></g><g
           id="g140"
           transform="translate(291.5391,623.3784)"><path
             d="m 0,0 -2.67,-2.356 -6.082,-1.339 3.407,-1.017 5.008,1.435 z"
             style="fill:#f9aeca;fill-opacity:1;fill-rule:nonzero;stroke:none"
             id="path142" /></g><g
           id="g144"
           transform="translate(273.793,640.3413)"><path
             d="m 0,0 -4.153,-0.804 -4.909,-2.629 6.741,1.043 z"
             style="fill:#231f20;fill-opacity:1;fill-rule:evenodd;stroke:none"
             id="path146" /></g><g
           id="g148"
           transform="translate(279.0986,626.1587)"><path
             d="m 0,0 -5.467,-1.868 -0.6,-1.126 5.265,0.94 z"
             style="fill:#f9aeca;fill-opacity:1;fill-rule:evenodd;stroke:none"
             id="path150" /></g><g
           id="g152"
           transform="translate(283.7642,640.0581)"><path
             d="m 0,0 -5.467,-1.868 -0.6,-1.126 5.265,0.94 z"
             style="fill:#f9aeca;fill-opacity:1;fill-rule:evenodd;stroke:none"
             id="path154" /></g><g
           id="g156"
           transform="translate(300.77,624.6792)"><path
             d="m 0,0 -6.123,-1.571 -0.449,-2.085 5.068,1.668 z"
             style="fill:#231f20;fill-opacity:1;fill-rule:evenodd;stroke:none"
             id="path158" /></g><g
           id="g160"
           transform="translate(271.1045,632.3179)"><path
             d="m 0,0 -7.512,0.444 4.063,-1.308 z"
             style="fill:#96cd56;fill-opacity:1;fill-rule:evenodd;stroke:none"
             id="path162" /></g><g
           id="g164"
           transform="translate(273.855,619.6855)"><path
             d="m 0,0 -6.738,1.736 c 0,0 3.258,-2.06 4.199,-2.48 0.949,-0.417 6.926,-1.287 6.926,-1.287 z"
             style="fill:#96cd56;fill-opacity:1;fill-rule:evenodd;stroke:none"
             id="path166" /></g><g
           id="g168"
           transform="translate(282.3877,644.9927)"><path
             d="m 0,0 -6.938,-1.969 c 0,0 -2.775,-2.818 -1.657,-2.682 1.116,0.134 5.923,2.297 5.923,2.297 z"
             style="fill:#96cd56;fill-opacity:1;fill-rule:evenodd;stroke:none"
             id="path170" /></g><g
           id="g172"
           transform="translate(315.21,597.084)"><path
             d="M 0,0 C 8.791,0 11.791,4.25 20.791,4.25"
             style="fill:none;stroke:#231f20;stroke-width:0.3;stroke-linecap:butt;stroke-linejoin:miter;stroke-miterlimit:10;stroke-dasharray:none;stroke-opacity:1"
             id="path174" /></g><g
           id="g176"
           transform="translate(315.7568,595.2246)"><path
             d="M 0,0 -3.237,1.87 0,3.739 Z"
             style="fill:#231f20;fill-opacity:1;fill-rule:nonzero;stroke:none"
             id="path178" /></g><g
           id="g180"
           transform="translate(214.937,580.2495)"><path
             d="M 0,0 C 0,-8.791 4.25,-11.791 4.25,-20.791"
             style="fill:none;stroke:#231f20;stroke-width:0.3;stroke-linecap:butt;stroke-linejoin:miter;stroke-miterlimit:10;stroke-dasharray:none;stroke-opacity:1"
             id="path182" /></g><g
           id="g184"
           transform="translate(213.0776,579.7026)"><path
             d="M 0,0 1.87,3.238 3.74,0 Z"
             style="fill:#231f20;fill-opacity:1;fill-rule:nonzero;stroke:none"
             id="path186" /></g><text
           transform="matrix(1,0,0,-1,193.668,551.874)"
           style="font-variant:normal;font-weight:bold;font-stretch:condensed;font-size:9px;font-family:'Humanst521 Cn BT';-inkscape-font-specification:Humanist521BT-BoldCondensed;writing-mode:lr-tb;fill:#231f20;fill-opacity:1;fill-rule:nonzero;stroke:none"
           id="text200"><tspan
             x="0 5.184 9.1440001 13.626 17.973 20.969999 24.93 28.431 30.735001 34.785"
             y="0"
             id="tspan188">Denotes an</tspan><tspan
             x="0 3.96 7.7129998 10.71 14.67 19.152 23.660999 27.621"
             y="9.5039997"
             id="tspan190">extended</tspan><tspan
             x="0 4.5089998 7.902 10.035 13.761 17.811001 20.808001 24.768 27.072001 31.257 35.216999"
             y="19.007999"
             id="tspan192">private key</tspan><tspan
             x="145.66499 150.291 154.77299 159.282 161.442 163.575 167.175 169.479 173.664 177.62399"
             y="-56.537998"
             id="tspan194">Public key</tspan><tspan
             x="145.66499 150.174 154.134 157.52699 159.66 163.386 167.436 171.94501 174.105 178.065 180.369 182.68201 186.075 190.422"
             y="-47.034"
             id="tspan196">derivable from</tspan><tspan
             x="145.66499 150.174 153.567 155.7 159.42599 163.476 166.47301 170.433 172.737 176.922 180.882"
             y="-37.529999"
             id="tspan198">private key</tspan></text><g
           id="g202"
           transform="translate(315.21,552.3335)"><path
             d="M 0,0 C 8.791,0 11.791,4.25 20.791,4.25"
             style="fill:none;stroke:#231f20;stroke-width:0.3;stroke-linecap:butt;stroke-linejoin:miter;stroke-miterlimit:10;stroke-dasharray:none;stroke-opacity:1"
             id="path204" /></g><g
           id="g206"
           transform="translate(315.7568,550.4741)"><path
             d="M 0,0 -3.237,1.87 0,3.739 Z"
             style="fill:#231f20;fill-opacity:1;fill-rule:nonzero;stroke:none"
             id="path208" /></g><text
           transform="matrix(1,0,0,-1,339.3354,553.999)"
           style="font-variant:normal;font-weight:bold;font-stretch:condensed;font-size:9px;font-family:'Humanst521 Cn BT';-inkscape-font-specification:Humanist521BT-BoldCondensed;writing-mode:lr-tb;fill:#231f20;fill-opacity:1;fill-rule:nonzero;stroke:none"
           id="text212"><tspan
             x="0 4.473 7.8660002 9.9989996 13.725 17.775 20.771999 24.732 27.035999 31.221001 35.181"
             y="0"
             id="tspan210">Private key</tspan></text><g
           id="g214"
           transform="translate(315.21,636.7505)"><path
             d="M 0,0 C 8.791,0 11.791,4.25 20.791,4.25"
             style="fill:none;stroke:#231f20;stroke-width:0.3;stroke-linecap:butt;stroke-linejoin:miter;stroke-miterlimit:10;stroke-dasharray:none;stroke-opacity:1"
             id="path216" /></g><g
           id="g218"
           transform="translate(315.7568,634.8911)"><path
             d="M 0,0 -3.237,1.87 0,3.739 Z"
             style="fill:#231f20;fill-opacity:1;fill-rule:nonzero;stroke:none"
             id="path220" /></g><text
           transform="matrix(1,0,0,-1,339.3354,648.083)"
           style="font-variant:normal;font-weight:bold;font-stretch:condensed;font-size:9px;font-family:'Humanst521 Cn BT';-inkscape-font-specification:Humanist521BT-BoldCondensed;writing-mode:lr-tb;fill:#231f20;fill-opacity:1;fill-rule:nonzero;stroke:none"
           id="text228"><tspan
             x="0 4.4369998 8.9280005 12.978 15.111 19.593 21.896999 25.497 29.844 34.353001 38.313 40.617001 45.098999 48.599998 52.560001"
             y="0"
             id="tspan222">Chain code used</tspan><tspan
             x="0 2.997 7.3439999 9.6479998 13.752 17.712 22.194 26.153999 29.547001 33.597 36.594002 40.554001 42.858002 46.458 50.949001 53.082001 55.242001"
             y="9.5039997"
             id="tspan224">to generate child</tspan><tspan
             x="0 4.1849999 8.1450005 11.916"
             y="19.007999"
             id="tspan226">keys</tspan></text><g
           id="g230"
           transform="translate(269.3799,579.0049)"><path
             d="M 0,0 V -16.377"
             style="fill:none;stroke:#231f20;stroke-width:0.5;stroke-linecap:butt;stroke-linejoin:miter;stroke-miterlimit:4;stroke-dasharray:none;stroke-opacity:1"
             id="path232" /></g><g
           id="g234"
           transform="translate(268.7783,580.71)"><path
             d="m 0,0 c -0.283,-0.951 -0.547,-1.57 -0.85,-2.334 l 2.903,0.01 C 1.922,-2.053 1.477,-0.945 1.186,0.002 0.873,1.02 0.662,1.941 0.584,2.539 0.512,1.939 0.303,1.016 0,0"
             style="fill:#231f20;fill-opacity:1;fill-rule:nonzero;stroke:none"
             id="path236" /></g><g
           id="g238"
           transform="translate(304.8765,599.8081)"><path
             d="m 0,0 h -24.951 c -1.639,4.184 -5.737,7.15 -10.546,7.15 -6.252,0 -11.324,-5.014 -11.324,-11.202 0,-0.131 0.017,-0.261 0.022,-0.389 -0.005,-0.131 -0.022,-0.256 -0.022,-0.389 0,-6.185 5.072,-11.204 11.324,-11.204 4.457,0 8.301,2.554 10.149,6.258 h 2.082 c 0.147,1.069 1.228,1.908 2.551,1.908 1.324,0 2.405,-0.839 2.548,-1.908 h 2.293 c 0.145,1.069 1.224,1.908 2.548,1.908 1.325,0 2.404,-0.839 2.55,-1.908 h 2.292 c 0.144,1.069 1.224,1.908 2.548,1.908 1.325,0 2.405,-0.839 2.551,-1.908 h 1.596 l 5.877,6.736 v 0.777 z"
             style="fill:none;stroke:#918f90;stroke-width:1;stroke-linecap:butt;stroke-linejoin:round;stroke-miterlimit:4;stroke-dasharray:none;stroke-opacity:1"
             id="path240" /></g><g
           id="g242"
           transform="translate(308.9648,597.5449)"><path
             d="m 0,0 -29.04,1.487 c -1.638,4.182 -5.736,7.151 -10.545,7.151 -6.252,0 -11.324,-5.015 -11.324,-11.205 0,-6.184 5.072,-11.204 11.324,-11.204 4.457,0 8.3,2.554 10.149,6.258 h 2.082 c 0.146,1.07 1.228,1.908 2.551,1.908 1.324,0 2.405,-0.838 2.548,-1.908 h 2.293 c 0.145,1.07 1.223,1.908 2.547,1.908 1.326,0 2.405,-0.838 2.55,-1.908 h 2.292 c 0.145,1.07 1.225,1.908 2.549,1.908 1.324,0 2.404,-0.838 2.551,-1.908 h 1.596 L 0,-0.777 Z"
             style="fill:#87bf7c;fill-opacity:1;fill-rule:nonzero;stroke:none"
             id="path244" /></g><g
           id="g246"
           transform="translate(308.9648,597.5449)"><path
             d="m 0,0 -29.04,1.487 c -1.638,4.182 -5.736,7.151 -10.545,7.151 -6.252,0 -11.324,-5.015 -11.324,-11.205 0,-6.184 5.072,-11.204 11.324,-11.204 4.457,0 8.3,2.554 10.149,6.258 h 2.082 c 0.146,1.07 1.228,1.908 2.551,1.908 1.324,0 2.405,-0.838 2.548,-1.908 h 2.293 c 0.145,1.07 1.223,1.908 2.547,1.908 1.326,0 2.405,-0.838 2.55,-1.908 h 2.292 c 0.145,1.07 1.225,1.908 2.549,1.908 1.324,0 2.404,-0.838 2.551,-1.908 h 1.596 L 0,-0.777 Z"
             style="fill:none;stroke:#87bf7c;stroke-width:0.3;stroke-linecap:butt;stroke-linejoin:round;stroke-miterlimit:4;stroke-dasharray:none;stroke-opacity:1"
             id="path248" /></g></g></g><g
       id="g250"><g
         id="g252"><g
           id="g258"><g
             id="g260"><path
               d="m 258.056,595.756 c 0,-6.188 5.072,-11.204 11.324,-11.204 v 0 c 4.457,0 8.301,2.553 10.149,6.257 v 0 h 2.082 c 0.147,1.07 1.228,1.908 2.55,1.908 v 0 c 1.324,0 2.406,-0.838 2.548,-1.908 v 0 h 2.294 c 0.144,1.07 1.223,1.908 2.548,1.908 v 0 c 1.324,0 2.403,-0.838 2.549,-1.908 v 0 h 2.292 c 0.144,1.07 1.224,1.908 2.549,1.908 v 0 c 1.324,0 2.404,-0.838 2.551,-1.908 v 0 h 1.596 l 5.877,6.736 -4.088,2.263 h -24.952 c -1.639,4.184 -5.736,7.15 -10.545,7.15 v 0 c -6.252,0 -11.324,-5.015 -11.324,-11.202"
               style="fill:url(#linearGradient266);stroke:none"
               id="path268" /></g></g></g></g><g
       id="g270"><g
         id="g272"><g
           id="g278"><g
             id="g280"><path
               d="m 258.964,595.756 c 0,-5.677 4.672,-10.298 10.416,-10.298 v 0 c 3.989,0 7.567,2.205 9.336,5.756 v 0 l 0.251,0.503 h 1.974 c 0.52,1.127 1.78,1.907 3.22,1.907 v 0 c 1.444,0 2.7,-0.78 3.22,-1.907 v 0 h 0.95 c 0.524,1.127 1.78,1.907 3.22,1.907 v 0 c 1.442,0 2.699,-0.78 3.218,-1.907 v 0 h 0.953 c 0.522,1.127 1.779,1.907 3.219,1.907 v 0 c 1.442,0 2.699,-0.78 3.22,-1.907 v 0 h 0.513 l 4.867,5.577 -2.899,1.608 h -25.334 l -0.224,0.575 c -1.569,3.994 -5.377,6.574 -9.704,6.574 v 0 c -5.744,0 -10.416,-4.619 -10.416,-10.295"
               style="fill:url(#linearGradient286);stroke:none"
               id="path288" /></g></g></g></g><g
       id="g290"><g
         id="g292"
         clip-path="url(#clipPath296)"><g
           id="g298"
           transform="translate(278.3257,595.7559)"><path
             d="m 0,0 c 0,-4.943 -4.004,-8.947 -8.946,-8.947 -4.941,0 -8.947,4.004 -8.947,8.947 0,4.941 4.006,8.945 8.947,8.945 C -4.004,8.945 0,4.941 0,0"
             style="fill:#ffffff;fill-opacity:1;fill-rule:nonzero;stroke:none"
             id="path300" /></g><text
           transform="matrix(1,0,0,-1,261.2798,592.3252)"
           style="font-variant:normal;font-weight:normal;font-stretch:normal;font-size:9.0198px;font-family:Arial;-inkscape-font-specification:ArialMT;writing-mode:lr-tb;fill:#918f90;fill-opacity:1;fill-rule:nonzero;stroke:none"
           id="text304"><tspan
             x="0 6.0162067 11.031216"
             y="0"
             id="tspan302">Pub</tspan></text><g
           id="g306"
           transform="translate(304.8818,555.189)"><path
             d="m 0,0 h -24.951 c -1.643,4.182 -5.738,7.15 -10.551,7.15 -6.25,0 -11.32,-5.014 -11.32,-11.203 0,-0.131 0.015,-0.26 0.019,-0.386 -0.004,-0.132 -0.019,-0.26 -0.019,-0.391 0,-6.186 5.07,-11.205 11.32,-11.205 4.46,0 8.308,2.555 10.152,6.256 h 2.082 c 0.149,1.074 1.227,1.912 2.553,1.912 1.322,0 2.401,-0.838 2.551,-1.912 h 2.289 c 0.145,1.074 1.223,1.912 2.552,1.912 1.319,0 2.405,-0.838 2.548,-1.912 h 2.291 c 0.146,1.074 1.226,1.912 2.55,1.912 1.329,0 2.405,-0.838 2.547,-1.912 h 1.598 l 5.877,6.738 v 0.777 z"
             style="fill:none;stroke:#231f20;stroke-width:1;stroke-linecap:butt;stroke-linejoin:round;stroke-miterlimit:4;stroke-dasharray:none;stroke-opacity:1"
             id="path308" /></g><g
           id="g310"
           transform="translate(308.9697,552.9253)"><path
             d="m 0,0 -29.039,1.486 c -1.643,4.186 -5.738,7.152 -10.551,7.152 -6.25,0 -11.32,-5.015 -11.32,-11.204 0,-6.186 5.07,-11.205 11.32,-11.205 4.46,0 8.308,2.554 10.152,6.255 h 2.083 c 0.148,1.075 1.226,1.912 2.552,1.912 1.323,0 2.401,-0.837 2.551,-1.912 h 2.289 c 0.145,1.075 1.223,1.912 2.552,1.912 1.319,0 2.405,-0.837 2.548,-1.912 h 2.291 c 0.146,1.075 1.226,1.912 2.551,1.912 1.328,0 2.404,-0.837 2.546,-1.912 h 1.598 L 0,-0.777 Z"
             style="fill:#a21217;fill-opacity:1;fill-rule:nonzero;stroke:none"
             id="path312" /></g><g
           id="g314"
           transform="translate(308.9697,552.9253)"><path
             d="m 0,0 -29.039,1.486 c -1.643,4.186 -5.738,7.152 -10.551,7.152 -6.25,0 -11.32,-5.015 -11.32,-11.204 0,-6.186 5.07,-11.205 11.32,-11.205 4.46,0 8.308,2.554 10.152,6.255 h 2.083 c 0.148,1.075 1.226,1.912 2.552,1.912 1.323,0 2.401,-0.837 2.551,-1.912 h 2.289 c 0.145,1.075 1.223,1.912 2.552,1.912 1.319,0 2.405,-0.837 2.548,-1.912 h 2.291 c 0.146,1.075 1.226,1.912 2.551,1.912 1.328,0 2.404,-0.837 2.546,-1.912 h 1.598 L 0,-0.777 Z"
             style="fill:none;stroke:#a21217;stroke-width:0.3;stroke-linecap:butt;stroke-linejoin:round;stroke-miterlimit:4;stroke-dasharray:none;stroke-opacity:1"
             id="path316" /></g></g></g><g
       id="g318"><g
         id="g320"><g
           id="g326"><g
             id="g328"><path
               d="m 258.06,551.137 c 0,-6.188 5.07,-11.205 11.32,-11.205 v 0 c 4.459,0 8.308,2.554 10.152,6.258 v 0 h 2.083 c 0.148,1.069 1.226,1.906 2.552,1.906 v 0 c 1.322,0 2.4,-0.837 2.55,-1.906 v 0 h 2.29 c 0.144,1.069 1.222,1.906 2.552,1.906 v 0 c 1.319,0 2.405,-0.837 2.548,-1.906 v 0 h 2.291 c 0.146,1.069 1.226,1.906 2.55,1.906 v 0 c 1.328,0 2.404,-0.837 2.547,-1.906 v 0 h 1.598 l 5.877,6.735 -4.088,2.264 h -24.951 c -1.643,4.182 -5.739,7.15 -10.551,7.15 v 0 c -6.25,0 -11.32,-5.014 -11.32,-11.202"
               style="fill:url(#linearGradient336);stroke:none"
               id="path338" /></g></g></g></g><g
       id="g340"><g
         id="g342"><g
           id="g348"><g
             id="g350"><path
               d="m 258.967,551.137 c 0,-5.679 4.671,-10.298 10.413,-10.298 v 0 c 3.994,0 7.569,2.205 9.34,5.755 v 0 l 0.25,0.503 h 1.974 c 0.522,1.127 1.777,1.907 3.223,1.907 v 0 c 1.442,0 2.699,-0.78 3.216,-1.907 v 0 h 0.952 c 0.524,1.127 1.779,1.907 3.224,1.907 v 0 c 1.442,0 2.696,-0.78 3.215,-1.907 v 0 h 0.955 c 0.518,1.127 1.781,1.907 3.219,1.907 v 0 c 1.441,0 2.7,-0.78 3.221,-1.907 v 0 h 0.51 l 4.871,5.576 -2.905,1.607 h -25.332 l -0.228,0.578 c -1.568,3.995 -5.373,6.574 -9.705,6.574 v 0 c -5.742,0 -10.413,-4.617 -10.413,-10.295"
               style="fill:url(#linearGradient356);stroke:none"
               id="path358" /></g></g></g></g><g
       id="g360"><g
         id="g362"
         clip-path="url(#clipPath366)"><g
           id="g368"
           transform="translate(278.3271,551.1362)"><path
             d="m 0,0 c 0,-4.941 -4.002,-8.947 -8.947,-8.947 -4.938,0 -8.942,4.006 -8.942,8.947 0,4.94 4.004,8.947 8.942,8.947 C -4.002,8.947 0,4.94 0,0"
             style="fill:#ffffff;fill-opacity:1;fill-rule:nonzero;stroke:none"
             id="path370" /></g><text
           transform="matrix(1,0,0,-1,261.5381,547.708)"
           style="font-variant:normal;font-weight:normal;font-stretch:normal;font-size:9.0204px;font-family:Arial;-inkscape-font-specification:ArialMT;writing-mode:lr-tb;fill:#231f20;fill-opacity:1;fill-rule:nonzero;stroke:none"
           id="text374"><tspan
             x="0 6.0166068 9.0204 11.022929"
             y="0"
             id="tspan372">Priv</tspan></text><g
           id="g376"
           transform="translate(231.8813,594.5986)"><path
             d="m 0,0 h -24.951 c -1.643,4.182 -5.738,7.15 -10.551,7.15 -6.25,0 -11.32,-5.014 -11.32,-11.203 0,-0.131 0.015,-0.26 0.019,-0.386 -0.004,-0.132 -0.019,-0.26 -0.019,-0.391 0,-6.186 5.07,-11.205 11.32,-11.205 4.46,0 8.308,2.555 10.152,6.256 h 2.082 c 0.149,1.074 1.227,1.912 2.553,1.912 1.322,0 2.401,-0.838 2.551,-1.912 h 2.289 c 0.145,1.074 1.223,1.912 2.552,1.912 1.319,0 2.405,-0.838 2.548,-1.912 h 2.291 c 0.146,1.074 1.226,1.912 2.55,1.912 1.329,0 2.405,-0.838 2.547,-1.912 h 1.598 l 5.877,6.738 v 0.777 z"
             style="fill:none;stroke:#231f20;stroke-width:1;stroke-linecap:butt;stroke-linejoin:round;stroke-miterlimit:4;stroke-dasharray:none;stroke-opacity:1"
             id="path378" /></g><g
           id="g380"
           transform="translate(235.9692,592.335)"><path
             d="m 0,0 -29.039,1.486 c -1.643,4.186 -5.738,7.152 -10.551,7.152 -6.25,0 -11.32,-5.015 -11.32,-11.204 0,-6.186 5.07,-11.205 11.32,-11.205 4.46,0 8.308,2.554 10.152,6.255 h 2.083 c 0.148,1.075 1.226,1.912 2.552,1.912 1.323,0 2.401,-0.837 2.551,-1.912 h 2.289 c 0.145,1.075 1.223,1.912 2.552,1.912 1.319,0 2.405,-0.837 2.548,-1.912 h 2.291 c 0.146,1.075 1.226,1.912 2.551,1.912 1.328,0 2.404,-0.837 2.546,-1.912 h 1.598 L 0,-0.777 Z"
             style="fill:#a21217;fill-opacity:1;fill-rule:nonzero;stroke:none"
             id="path382" /></g><g
           id="g384"
           transform="translate(235.9692,592.335)"><path
             d="m 0,0 -29.039,1.486 c -1.643,4.186 -5.738,7.152 -10.551,7.152 -6.25,0 -11.32,-5.015 -11.32,-11.204 0,-6.186 5.07,-11.205 11.32,-11.205 4.46,0 8.308,2.554 10.152,6.255 h 2.083 c 0.148,1.075 1.226,1.912 2.552,1.912 1.323,0 2.401,-0.837 2.551,-1.912 h 2.289 c 0.145,1.075 1.223,1.912 2.552,1.912 1.319,0 2.405,-0.837 2.548,-1.912 h 2.291 c 0.146,1.075 1.226,1.912 2.551,1.912 1.328,0 2.404,-0.837 2.546,-1.912 h 1.598 L 0,-0.777 Z"
             style="fill:none;stroke:#a21217;stroke-width:0.3;stroke-linecap:butt;stroke-linejoin:round;stroke-miterlimit:4;stroke-dasharray:none;stroke-opacity:1"
             id="path386" /></g></g></g><g
       id="g388"><g
         id="g390"><g
           id="g396"><g
             id="g398"><path
               d="m 185.059,590.546 c 0,-6.188 5.071,-11.204 11.32,-11.204 v 0 c 4.46,0 8.308,2.554 10.153,6.257 v 0 h 2.082 c 0.148,1.07 1.226,1.907 2.552,1.907 v 0 c 1.323,0 2.401,-0.837 2.552,-1.907 v 0 h 2.288 c 0.145,1.07 1.223,1.907 2.552,1.907 v 0 c 1.319,0 2.406,-0.837 2.548,-1.907 v 0 h 2.291 c 0.147,1.07 1.227,1.907 2.551,1.907 v 0 c 1.328,0 2.404,-0.837 2.547,-1.907 v 0 h 1.597 l 5.877,6.736 -4.088,2.264 H 206.93 c -1.643,4.181 -5.738,7.15 -10.551,7.15 v 0 c -6.249,0 -11.32,-5.015 -11.32,-11.203"
               style="fill:url(#linearGradient406);stroke:none"
               id="path408" /></g></g></g></g><g
       id="g410"><g
         id="g412"><g
           id="g418"><g
             id="g420"><path
               d="m 185.966,590.546 c 0,-5.678 4.671,-10.298 10.413,-10.298 v 0 c 3.994,0 7.57,2.205 9.34,5.755 v 0 l 0.251,0.504 h 1.974 c 0.521,1.126 1.778,1.906 3.222,1.906 v 0 c 1.442,0 2.7,-0.78 3.217,-1.906 v 0 h 0.952 c 0.523,1.126 1.779,1.906 3.223,1.906 v 0 c 1.443,0 2.696,-0.78 3.215,-1.906 v 0 h 0.956 c 0.518,1.126 1.781,1.906 3.219,1.906 v 0 c 1.441,0 2.699,-0.78 3.221,-1.906 v 0 h 0.509 l 4.871,5.576 -2.904,1.607 h -25.332 l -0.228,0.577 c -1.569,3.995 -5.373,6.575 -9.706,6.575 v 0 c -5.742,0 -10.413,-4.617 -10.413,-10.296"
               style="fill:url(#linearGradient426);stroke:none"
               id="path428" /></g></g></g></g><g
       id="g430"><g
         id="g432"
         clip-path="url(#clipPath436)"><g
           id="g438"
           transform="translate(205.3267,590.5459)"><path
             d="m 0,0 c 0,-4.941 -4.002,-8.947 -8.947,-8.947 -4.938,0 -8.942,4.006 -8.942,8.947 0,4.94 4.004,8.947 8.942,8.947 C -4.002,8.947 0,4.94 0,0"
             style="fill:#ffffff;fill-opacity:1;fill-rule:nonzero;stroke:none"
             id="path440" /></g><text
           transform="matrix(1,0,0,-1,188.5376,587.1182)"
           style="font-variant:normal;font-weight:normal;font-stretch:normal;font-size:9.0204px;font-family:Arial;-inkscape-font-specification:ArialMT;writing-mode:lr-tb;fill:#231f20;fill-opacity:1;fill-rule:nonzero;stroke:none"
           id="text444"><tspan
             x="0 6.0166068 9.0204 11.022929"
             y="0"
             id="tspan442">Priv</tspan></text><g
           id="g446"
           transform="translate(258.5005,535.7505)"><path
             d="M 0,0 H -6.333 V 112.75 H 0"
             style="fill:none;stroke:#231f20;stroke-width:0.5;stroke-linecap:butt;stroke-linejoin:miter;stroke-miterlimit:4;stroke-dasharray:none;stroke-opacity:1"
             id="path448" /></g><g
           id="g450"
           transform="translate(235.9648,592.125)"><path
             d="M 0,0 H 16.202"
             style="fill:none;stroke:#231f20;stroke-width:0.5;stroke-linecap:butt;stroke-linejoin:miter;stroke-miterlimit:4;stroke-dasharray:none;stroke-opacity:1"
             id="path452" /></g></g></g></g></svg>
