<svg xmlns="http://www.w3.org/2000/svg" xmlns:xlink="http://www.w3.org/1999/xlink" width="363.72" height="158.25" viewBox="0 0 363.72 158.25">
  <defs>
    <style>
      .cls-1, .cls-2, .cls-23, .cls-33, .cls-51, .cls-9 {
        fill: none;
      }

      .cls-2, .cls-23, .cls-3, .cls-33, .cls-34, .cls-36, .cls-37, .cls-38, .cls-40, .cls-9 {
        stroke: #000;
      }

      .cls-2, .cls-33, .cls-34, .cls-36, .cls-40, .cls-51 {
        stroke-width: 0.5px;
      }

      .cls-3 {
        fill: #fda452;
      }

      .cls-10, .cls-15, .cls-23, .cls-3, .cls-37, .cls-38 {
        stroke-width: 0.3px;
      }

      .cls-4, .cls-8 {
        fill: #96c749;
      }

      .cls-5, .cls-7 {
        fill: #fbafc5;
      }

      .cls-41, .cls-42, .cls-6, .cls-7, .cls-8 {
        fill-rule: evenodd;
      }

      .cls-10, .cls-15, .cls-33, .cls-34, .cls-36, .cls-37, .cls-38, .cls-40, .cls-9 {
        stroke-linejoin: round;
      }

      .cls-10 {
        fill: #267520;
        stroke: #267520;
      }

      .cls-11 {
        fill: url(#linear-gradient);
      }

      .cls-12 {
        fill: url(#linear-gradient-2);
      }

      .cls-13, .cls-41 {
        fill: #fff;
      }

      .cls-14 {
        font-size: 8.57px;
      }

      .cls-14, .cls-18 {
        font-family: ArialMT, Arial;
      }

      .cls-15 {
        fill: #a10000;
        stroke: #a10000;
      }

      .cls-16 {
        fill: url(#linear-gradient-3);
      }

      .cls-17 {
        fill: url(#linear-gradient-4);
      }

      .cls-18 {
        font-size: 8.57px;
      }

      .cls-19 {
        fill: url(#linear-gradient-5);
      }

      .cls-20 {
        fill: url(#linear-gradient-6);
      }

      .cls-21 {
        fill: url(#linear-gradient-7);
      }

      .cls-22 {
        fill: url(#linear-gradient-8);
      }

      .cls-23 {
        stroke-miterlimit: 10;
      }

      .cls-24 {
        fill: url(#linear-gradient-9);
      }

      .cls-25 {
        fill: url(#linear-gradient-10);
      }

      .cls-26, .cls-44 {
        font-size: 9px;
        font-family: Humanist521BT-BoldCondensed, Humanst521 Cn BT;
        font-weight: 700;
      }

      .cls-27 {
        letter-spacing: -0.04em;
      }

      .cls-28 {
        letter-spacing: -0.02em;
      }

      .cls-29 {
        letter-spacing: 0.02em;
      }

      .cls-30 {
        fill: #7f8587;
      }

      .cls-31 {
        fill: url(#linear-gradient-11);
      }

      .cls-32 {
        fill: url(#linear-gradient-12);
      }

      .cls-34 {
        fill: #7cb2c9;
      }

      .cls-35 {
        fill: #c4dbe5;
      }

      .cls-37 {
        fill: #ca0127;
      }

      .cls-38 {
        fill: #fb2b34;
      }

      .cls-39 {
        clip-path: url(#clip-path);
      }

      .cls-40 {
        fill: #dbdbdb;
      }

      .cls-42 {
        fill: #fda655;
      }

      .cls-43 {
        letter-spacing: -0.04em;
      }

      .cls-44 {
        fill: #141011;
      }

      .cls-45 {
        letter-spacing: -0.07em;
      }

      .cls-46 {
        letter-spacing: 0.02em;
      }

      .cls-47 {
        letter-spacing: -0.09em;
      }

      .cls-48 {
        letter-spacing: 0em;
      }

      .cls-49 {
        font-size: 8px;
      }

      .cls-49, .cls-50 {
        font-family: FreeMono;font-phase: bold;
      }

      .cls-50 {
        font-size: 21px;
        fill: #3d6516;
      }

      .cls-51 {
        stroke: #4d4d4d;
      }
    </style>
    <linearGradient id="linear-gradient" x1="187.85" y1="179.02" x2="236.21" y2="179.02" gradientUnits="userSpaceOnUse">
      <stop offset="0" stop-color="#5fb749"/>
      <stop offset="1" stop-color="#dbf1c6"/>
    </linearGradient>
    <linearGradient id="linear-gradient-2" x1="188.71" y1="179.02" x2="234.86" y2="179.02" gradientUnits="userSpaceOnUse">
      <stop offset="0" stop-color="#dbf1c6"/>
      <stop offset="1" stop-color="#5fb749"/>
    </linearGradient>
    <linearGradient id="linear-gradient-3" x1="187.85" y1="216.64" x2="236.21" y2="216.64" gradientUnits="userSpaceOnUse">
      <stop offset="0" stop-color="#ff0001"/>
      <stop offset="0.08" stop-color="#ff1b17"/>
      <stop offset="0.25" stop-color="#fe4f41"/>
      <stop offset="0.42" stop-color="#fe7b64"/>
      <stop offset="0.59" stop-color="#fd9d80"/>
      <stop offset="0.74" stop-color="#fdb593"/>
      <stop offset="0.88" stop-color="#fdc49f"/>
      <stop offset="1" stop-color="#fdc9a3"/>
    </linearGradient>
    <linearGradient id="linear-gradient-4" x1="188.71" y1="216.64" x2="234.87" y2="216.64" gradientUnits="userSpaceOnUse">
      <stop offset="0" stop-color="#fdc9a3"/>
      <stop offset="1" stop-color="#ff0001"/>
    </linearGradient>
    <linearGradient id="linear-gradient-5" x1="370.76" y1="203.67" x2="419.12" y2="203.67" xlink:href="#linear-gradient-3"/>
    <linearGradient id="linear-gradient-6" x1="371.62" y1="203.67" x2="417.78" y2="203.67" xlink:href="#linear-gradient-4"/>
    <linearGradient id="linear-gradient-7" x1="437.32" y1="178.2" x2="485.68" y2="178.2" xlink:href="#linear-gradient-3"/>
    <linearGradient id="linear-gradient-8" x1="438.18" y1="178.2" x2="484.33" y2="178.2" xlink:href="#linear-gradient-4"/>
    <linearGradient id="linear-gradient-9" x1="131.58" y1="178.96" x2="179.95" y2="178.96" xlink:href="#linear-gradient-3"/>
    <linearGradient id="linear-gradient-10" x1="132.44" y1="178.96" x2="178.6" y2="178.96" xlink:href="#linear-gradient-4"/>
    <linearGradient id="linear-gradient-11" x1="143.55" y1="56.05" x2="143.55" y2="73.65" gradientUnits="userSpaceOnUse">
      <stop offset="0" stop-color="#797d7e"/>
      <stop offset="0.06" stop-color="#979a9b"/>
      <stop offset="0.15" stop-color="#bcbebf"/>
      <stop offset="0.24" stop-color="#d9dbdb"/>
      <stop offset="0.33" stop-color="#eeefef"/>
      <stop offset="0.42" stop-color="#fbfbfb"/>
      <stop offset="0.5" stop-color="#fff"/>
    </linearGradient>
    <linearGradient id="linear-gradient-12" x1="143.49" y1="65.95" x2="143.49" y2="73.65" gradientUnits="userSpaceOnUse">
      <stop offset="0" stop-color="#eef0f0"/>
      <stop offset="1" stop-color="#cccfd0"/>
    </linearGradient>
    <clipPath id="clip-path">
      <rect transform="translate(-122.46 -123.83)" class="cls-1" x="252.98" y="156.82" width="25.95" height="15.81"/>
    </clipPath>
  </defs>
  <g id="Layer_2" data-name="Layer 2">
    <polyline class="cls-2" points="143.49 30.4 143.49 20.16 97.33 20.16"/>
    <path d="M266.53,156.21a21.94,21.94,0,0,1,.85-2.33h-2.9a23.59,23.59,0,0,1,.86,2.32,16.3,16.3,0,0,1,.6,2.54A18.7,18.7,0,0,1,266.53,156.21Z" transform="translate(-122.46 -123.83)"/>
    <g>
      <path class="cls-3" d="M189.71,150.64a16.84,16.84,0,0,0,2.14-.26,18.59,18.59,0,0,0,10.05-4.69c2.11-1.62,3.93-3,10.86-3.49l-4.58-3.62c-8.75.59-11.34,2.58-13.63,4.34a13.59,13.59,0,0,1-3.8,2.25l.54,1.3-.87.61-1.27.27.4,1.41Z" transform="translate(-122.46 -123.83)"/>
      <path class="cls-3" d="M188.66,153.63a37.38,37.38,0,0,0,13.66.75c5.69-.86,7.83-2.5,9.72-3.95,2.11-1.63,3.94-3,10.87-3.5l-4.26-4.35c-8.74.59-11.33,2.58-13.62,4.34a13.8,13.8,0,0,1-7.66,3.18,22.83,22.83,0,0,1-8.16-.27,2.72,2.72,0,0,1-1.24-.47c-.16.54.39,1.35.79,1.68l.16.74-.8.13Z" transform="translate(-122.46 -123.83)"/>
      <path class="cls-3" d="M191.24,159.08a33.44,33.44,0,0,0,9.91-.13c5.66-1,7.77-2.67,9.63-4.16,2.09-1.67,4.78-3.35,11.7-3.95l-4.35-4.27c-8.73.77-12.18,3.06-14.43,4.86a13.77,13.77,0,0,1-7.58,3.34,21.42,21.42,0,0,1-5,.28l1.4,1.65-.85.89Z" transform="translate(-122.46 -123.83)"/>
      <path class="cls-3" d="M188.85,159.35c1.66.44,3.22,1,4.81,1.49,4.44,1.47,9.46,3.15,15.84,2.78,5.8-.33,8.24-1.74,10.37-3,3.17-1.91,5.46-3.26,11.44-2.47l-3.41-4.71c-8.78-.21-11.72,1.52-14.32,3.06a15.13,15.13,0,0,1-8.18,2.46c-4.4.25-7.36-.74-11.48-2.11-1.24-.42-2.55-.85-3.95-1.27l-.42,2.34-1.82.07A1.83,1.83,0,0,0,188.85,159.35Z" transform="translate(-122.46 -123.83)"/>
      <path class="cls-3" d="M189.61,146.12a29,29,0,0,0,3.86-.33c5.69-.86,7.83-2.5,9.72-4,2.12-1.62,3.94-3,10.88-3.48L209.8,134a19.93,19.93,0,0,0-12.73,4.18,18.47,18.47,0,0,1-7.46,3.16,5.81,5.81,0,0,1-1.33-.09,3.2,3.2,0,0,0,1.9,1.34l-1.34.87.08,1.14Z" transform="translate(-122.46 -123.83)"/>
      <path class="cls-4" d="M213.54,148.84c-1.39.1-5,.67-5,.67l-2.73,3.12,3.85-1.9,6-.58Z" transform="translate(-122.46 -123.83)"/>
      <polygon class="cls-5" points="93.92 32.66 91.39 34.9 85.61 36.17 88.84 37.14 93.6 35.78 93.92 32.66"/>
      <polygon class="cls-6" points="77.06 16.55 73.12 17.31 68.45 19.81 74.86 18.82 77.06 16.55"/>
      <polygon class="cls-7" points="82.1 30.02 76.91 31.8 76.34 32.87 81.34 31.98 82.1 30.02"/>
      <polygon class="cls-7" points="86.67 16.49 81.47 18.27 80.9 19.34 85.9 18.44 86.67 16.49"/>
      <polygon class="cls-6" points="102.69 31.43 96.87 32.92 96.45 34.9 101.26 33.32 102.69 31.43"/>
      <polygon class="cls-8" points="74.51 24.17 67.37 23.75 71.23 24.99 74.51 24.17"/>
      <path class="cls-8" d="M199.58,160l-6.4-1.65s3.09,1.95,4,2.35a64.85,64.85,0,0,0,6.58,1.23Z" transform="translate(-122.46 -123.83)"/>
      <path class="cls-8" d="M207.69,136l-6.6,1.87s-2.63,2.67-1.57,2.55a45.52,45.52,0,0,0,5.63-2.19Z" transform="translate(-122.46 -123.83)"/>
    </g>
    <g>
      <path class="cls-3" d="M370.74,150.64a16.84,16.84,0,0,0,2.14-.26,18.59,18.59,0,0,0,10.05-4.69c2.11-1.62,3.93-3,10.86-3.49l-4.58-3.62c-8.75.59-11.34,2.58-13.63,4.34a13.59,13.59,0,0,1-3.8,2.25l.54,1.3-.87.61-1.27.27.4,1.41Z" transform="translate(-122.46 -123.83)"/>
      <path class="cls-3" d="M369.7,153.63a37.33,37.33,0,0,0,13.65.75c5.69-.86,7.83-2.5,9.72-3.95,2.11-1.63,3.94-3,10.87-3.5l-4.26-4.35c-8.74.59-11.33,2.58-13.62,4.34a13.8,13.8,0,0,1-7.65,3.18,22.88,22.88,0,0,1-8.17-.27,2.72,2.72,0,0,1-1.24-.47c-.16.54.39,1.35.79,1.68l.16.74-.8.13Z" transform="translate(-122.46 -123.83)"/>
      <path class="cls-3" d="M372.27,159.08a33.44,33.44,0,0,0,9.91-.13c5.66-1,7.77-2.67,9.63-4.16,2.09-1.67,4.78-3.35,11.7-3.95l-4.35-4.27c-8.73.77-12.18,3.06-14.43,4.86a13.77,13.77,0,0,1-7.58,3.34,21.42,21.42,0,0,1-5,.28l1.4,1.65-.85.89Z" transform="translate(-122.46 -123.83)"/>
      <path class="cls-3" d="M369.88,159.35c1.66.44,3.22,1,4.81,1.49,4.44,1.47,9.47,3.15,15.84,2.78,5.8-.33,8.24-1.74,10.37-3,3.17-1.91,5.46-3.26,11.43-2.47l-3.4-4.71c-8.78-.21-11.72,1.52-14.32,3.06a15.13,15.13,0,0,1-8.18,2.46c-4.4.25-7.36-.74-11.48-2.11-1.24-.42-2.55-.85-3.95-1.27l-.42,2.34-1.82.07A1.83,1.83,0,0,0,369.88,159.35Z" transform="translate(-122.46 -123.83)"/>
      <path class="cls-3" d="M370.64,146.12a29,29,0,0,0,3.86-.33c5.69-.86,7.83-2.5,9.73-4,2.11-1.62,3.93-3,10.87-3.48L390.83,134a19.93,19.93,0,0,0-12.73,4.18,18.47,18.47,0,0,1-7.46,3.16,5.81,5.81,0,0,1-1.33-.09,3.2,3.2,0,0,0,1.9,1.34l-1.34.87.08,1.14Z" transform="translate(-122.46 -123.83)"/>
      <path class="cls-4" d="M394.57,148.84c-1.39.1-5,.67-5,.67l-2.73,3.12,3.85-1.9,6-.58Z" transform="translate(-122.46 -123.83)"/>
      <polygon class="cls-5" points="274.95 32.66 272.42 34.9 266.64 36.17 269.87 37.14 274.63 35.78 274.95 32.66"/>
      <polygon class="cls-6" points="258.09 16.55 254.15 17.31 249.48 19.81 255.89 18.82 258.09 16.55"/>
      <polygon class="cls-7" points="263.13 30.02 257.94 31.8 257.37 32.87 262.37 31.98 263.13 30.02"/>
      <polygon class="cls-7" points="267.69 16.49 262.5 18.27 261.93 19.34 266.93 18.44 267.69 16.49"/>
      <polygon class="cls-6" points="283.72 31.43 277.9 32.92 277.48 34.9 282.29 33.32 283.72 31.43"/>
      <polygon class="cls-8" points="255.54 24.17 248.4 23.75 252.26 24.99 255.54 24.17"/>
      <path class="cls-8" d="M380.61,160l-6.4-1.65s3.09,1.95,4,2.35a64.85,64.85,0,0,0,6.58,1.23Z" transform="translate(-122.46 -123.83)"/>
      <path class="cls-8" d="M388.72,136l-6.6,1.87s-2.63,2.67-1.57,2.55a45.52,45.52,0,0,0,5.63-2.19Z" transform="translate(-122.46 -123.83)"/>
    </g>
    <line class="cls-2" x1="76.15" y1="71.28" x2="76.15" y2="81.8"/>
    <path d="M198,193.41a23,23,0,0,1-.85,2.34h2.91a21.07,21.07,0,0,1-.87-2.33,16.3,16.3,0,0,1-.6-2.54A17,17,0,0,1,198,193.41Z" transform="translate(-122.46 -123.83)"/>
    <g>
      <path class="cls-9" d="M232.32,175.17h-23.7A10.77,10.77,0,0,0,187.85,179c0,.12,0,.25,0,.37s0,.24,0,.37a10.77,10.77,0,0,0,20.39,4.7h2a2.52,2.52,0,0,1,4.84,0h2.18a2.53,2.53,0,0,1,4.85,0h2.17a2.53,2.53,0,0,1,4.85,0h1.51l5.59-6.4v-.74Z" transform="translate(-122.46 -123.83)"/>
      <path class="cls-10" d="M236.21,177.32l-27.59-1.41a10.65,10.65,0,1,0-.38,8.55h2a2.52,2.52,0,0,1,4.84,0h2.18a2.53,2.53,0,0,1,4.85,0h2.17a2.53,2.53,0,0,1,4.85,0h1.51l5.59-6.4Z" transform="translate(-122.46 -123.83)"/>
      <path class="cls-11" d="M232.32,175.17h-23.7a10.65,10.65,0,1,0-.38,8.55h2a2.52,2.52,0,0,1,4.84,0h2.18a2.53,2.53,0,0,1,4.85,0h2.17a2.53,2.53,0,0,1,4.85,0h1.51l5.59-6.4Z" transform="translate(-122.46 -123.83)"/>
      <path class="cls-12" d="M198.6,188.8a9.78,9.78,0,1,1,9.22-13.32l.21.55H232.1l2.76,1.53-4.63,5.3h-.49a3.47,3.47,0,0,0-6.11,0h-.91a3.47,3.47,0,0,0-6.11,0h-.91a3.47,3.47,0,0,0-6.11,0h-1.88l-.24.47A9.83,9.83,0,0,1,198.6,188.8Z" transform="translate(-122.46 -123.83)"/>
      <path class="cls-13" d="M207.1,179a8.5,8.5,0,1,1-8.5-8.5A8.49,8.49,0,0,1,207.1,179Z" transform="translate(-122.46 -123.83)"/>
      <text class="cls-14" transform="translate(68.45 58.44)">Pub</text>
    </g>
    <g>
      <path class="cls-9" d="M232.33,212.79h-23.7a10.77,10.77,0,0,0-20.78,3.85c0,.12,0,.25,0,.37s0,.24,0,.37a10.77,10.77,0,0,0,20.4,4.7h2a2.52,2.52,0,0,1,4.84,0h2.18a2.52,2.52,0,0,1,4.84,0h2.18a2.52,2.52,0,0,1,4.84,0h1.52l5.58-6.4v-.74Z" transform="translate(-122.46 -123.83)"/>
      <path class="cls-15" d="M236.21,214.94l-27.58-1.41a10.65,10.65,0,1,0-.38,8.55h2a2.52,2.52,0,0,1,4.84,0h2.18a2.52,2.52,0,0,1,4.84,0h2.18a2.52,2.52,0,0,1,4.84,0h1.52l5.58-6.4Z" transform="translate(-122.46 -123.83)"/>
      <path class="cls-16" d="M232.33,212.79h-23.7a10.65,10.65,0,1,0-.38,8.55h2a2.52,2.52,0,0,1,4.84,0h2.18a2.52,2.52,0,0,1,4.84,0h2.18a2.52,2.52,0,0,1,4.84,0h1.52l5.58-6.4Z" transform="translate(-122.46 -123.83)"/>
      <path class="cls-17" d="M198.6,226.42a9.78,9.78,0,1,1,9.22-13.32l.22.55h24.07l2.76,1.53-4.63,5.3h-.49a3.47,3.47,0,0,0-6.11,0h-.91a3.48,3.48,0,0,0-6.12,0h-.9a3.48,3.48,0,0,0-6.12,0h-1.88l-.23.47A9.85,9.85,0,0,1,198.6,226.42Z" transform="translate(-122.46 -123.83)"/>
      <path class="cls-13" d="M207.1,216.64a8.5,8.5,0,1,1-8.5-8.5A8.5,8.5,0,0,1,207.1,216.64Z" transform="translate(-122.46 -123.83)"/>
      <text class="cls-18" transform="translate(68.7 96.06)">Priv</text>
    </g>
    <g>
      <path class="cls-9" d="M415.24,199.82h-23.7a10.77,10.77,0,0,0-20.78,3.85c0,.13,0,.25,0,.37s0,.25,0,.37a10.77,10.77,0,0,0,20.4,4.7h2a2.53,2.53,0,0,1,4.85,0h2.17a2.52,2.52,0,0,1,4.84,0h2.18a2.52,2.52,0,0,1,4.84,0h1.52l5.58-6.4V202Z" transform="translate(-122.46 -123.83)"/>
      <path class="cls-15" d="M419.12,202l-27.58-1.41a10.66,10.66,0,1,0-.38,8.55h2a2.53,2.53,0,0,1,4.85,0h2.17a2.52,2.52,0,0,1,4.84,0h2.18a2.52,2.52,0,0,1,4.84,0h1.52l5.58-6.4Z" transform="translate(-122.46 -123.83)"/>
      <path class="cls-19" d="M415.24,199.82h-23.7a10.65,10.65,0,1,0-.38,8.55h2a2.53,2.53,0,0,1,4.85,0h2.17a2.52,2.52,0,0,1,4.84,0h2.18a2.52,2.52,0,0,1,4.84,0h1.52l5.58-6.4Z" transform="translate(-122.46 -123.83)"/>
      <path class="cls-20" d="M381.51,213.45a9.78,9.78,0,1,1,9.22-13.31l.22.54H415l2.76,1.53-4.63,5.3h-.49a3.48,3.48,0,0,0-6.11,0h-.91a3.49,3.49,0,0,0-6.12,0h-.9a3.49,3.49,0,0,0-6.12,0h-1.88l-.23.48A9.86,9.86,0,0,1,381.51,213.45Z" transform="translate(-122.46 -123.83)"/>
      <path class="cls-13" d="M390,203.67a8.5,8.5,0,1,1-8.5-8.5A8.49,8.49,0,0,1,390,203.67Z" transform="translate(-122.46 -123.83)"/>
      <text class="cls-18" transform="translate(251.61 83.09)">Priv</text>
    </g>
    <g>
      <path class="cls-3" d="M430.34,175.54a16.56,16.56,0,0,0,2.14-.25,18.73,18.73,0,0,0,10-4.69c2.11-1.62,3.93-3,10.86-3.49l-4.58-3.62c-8.75.59-11.34,2.58-13.63,4.34a13.34,13.34,0,0,1-3.8,2.24l.54,1.31-.87.61-1.26.26.39,1.41Z" transform="translate(-122.46 -123.83)"/>
      <path class="cls-3" d="M429.3,178.54a37.33,37.33,0,0,0,13.65.75c5.69-.86,7.83-2.51,9.72-4,2.11-1.62,3.94-3,10.87-3.49l-4.26-4.35c-8.74.58-11.33,2.57-13.62,4.33A13.66,13.66,0,0,1,438,175a22.89,22.89,0,0,1-8.17-.26,2.87,2.87,0,0,1-1.24-.47c-.16.54.39,1.34.79,1.68l.16.74-.8.13Z" transform="translate(-122.46 -123.83)"/>
      <path class="cls-3" d="M431.87,184a33.13,33.13,0,0,0,9.91-.14c5.67-1,7.77-2.66,9.63-4.15,2.09-1.67,4.78-3.35,11.7-4l-4.35-4.27c-8.73.77-12.18,3.06-14.43,4.86a13.7,13.7,0,0,1-7.58,3.34,21.45,21.45,0,0,1-5,.29l1.4,1.65-.85.89Z" transform="translate(-122.46 -123.83)"/>
      <path class="cls-3" d="M429.48,184.26c1.66.43,3.22,1,4.81,1.48,4.44,1.48,9.47,3.15,15.84,2.79,5.8-.33,8.24-1.75,10.37-3,3.17-1.92,5.46-3.26,11.44-2.48l-3.41-4.7c-8.78-.22-11.72,1.52-14.32,3.05a15,15,0,0,1-8.18,2.46c-4.39.26-7.36-.74-11.48-2.11-1.24-.41-2.54-.85-3.94-1.26l-.43,2.34-1.82.07A1.83,1.83,0,0,0,429.48,184.26Z" transform="translate(-122.46 -123.83)"/>
      <path class="cls-3" d="M430.24,171a31.11,31.11,0,0,0,3.87-.33c5.68-.86,7.83-2.51,9.72-4,2.11-1.62,3.93-3,10.87-3.49l-4.27-4.36a19.93,19.93,0,0,0-12.73,4.19,18.41,18.41,0,0,1-7.46,3.15,5.24,5.24,0,0,1-1.33-.09,3.24,3.24,0,0,0,1.9,1.35l-1.34.87.08,1.14Z" transform="translate(-122.46 -123.83)"/>
      <path class="cls-4" d="M454.17,173.74c-1.39.1-5,.67-5,.67l-2.72,3.12,3.84-1.89,6-.58Z" transform="translate(-122.46 -123.83)"/>
      <polygon class="cls-5" points="334.55 57.57 332.01 59.81 326.24 61.08 329.48 62.05 334.23 60.68 334.55 57.57"/>
      <polygon class="cls-6" points="317.69 41.46 313.75 42.22 309.09 44.72 315.49 43.73 317.69 41.46"/>
      <polygon class="cls-7" points="322.74 54.93 317.54 56.7 316.97 57.77 321.97 56.88 322.74 54.93"/>
      <polygon class="cls-7" points="327.17 41.73 321.97 43.5 321.4 44.57 326.4 43.67 327.17 41.73"/>
      <polygon class="cls-6" points="343.32 56.34 337.5 57.83 337.08 59.81 341.89 58.22 343.32 56.34"/>
      <polygon class="cls-8" points="315.14 49.08 308 48.66 311.86 49.9 315.14 49.08"/>
      <path class="cls-8" d="M440.21,184.91l-6.4-1.64s3.09,1.95,4,2.35a64.42,64.42,0,0,0,6.58,1.22Z" transform="translate(-122.46 -123.83)"/>
      <path class="cls-8" d="M448.32,160.87l-6.59,1.87s-2.64,2.68-1.58,2.55a45.74,45.74,0,0,0,5.63-2.18Z" transform="translate(-122.46 -123.83)"/>
    </g>
    <g>
      <path class="cls-9" d="M481.8,174.35H458.09a10.76,10.76,0,0,0-20.77,3.85c0,.12,0,.24,0,.36s0,.25,0,.38a10.77,10.77,0,0,0,20.39,4.7h2a2.53,2.53,0,0,1,4.85,0h2.18a2.52,2.52,0,0,1,4.84,0h2.18a2.52,2.52,0,0,1,4.84,0h1.52l5.58-6.4v-.74Z" transform="translate(-122.46 -123.83)"/>
      <path class="cls-15" d="M485.68,176.5l-27.59-1.41a10.65,10.65,0,1,0-.38,8.55h2a2.53,2.53,0,0,1,4.85,0h2.18a2.52,2.52,0,0,1,4.84,0h2.18a2.52,2.52,0,0,1,4.84,0h1.52l5.58-6.4Z" transform="translate(-122.46 -123.83)"/>
      <path class="cls-21" d="M481.8,174.35H458.09a10.65,10.65,0,1,0-.38,8.55h2a2.53,2.53,0,0,1,4.85,0h2.18a2.52,2.52,0,0,1,4.84,0h2.18a2.52,2.52,0,0,1,4.84,0h1.52l5.58-6.4Z" transform="translate(-122.46 -123.83)"/>
      <path class="cls-22" d="M448.07,188a9.79,9.79,0,1,1,9.22-13.32l.22.55h24.06l2.76,1.53L479.71,182h-.49a3.49,3.49,0,0,0-6.12,0h-.9a3.49,3.49,0,0,0-6.12,0h-.91a3.48,3.48,0,0,0-6.11,0h-1.88l-.24.48A9.84,9.84,0,0,1,448.07,188Z" transform="translate(-122.46 -123.83)"/>
      <path class="cls-13" d="M456.57,178.2a8.5,8.5,0,1,1-8.5-8.5A8.5,8.5,0,0,1,456.57,178.2Z" transform="translate(-122.46 -123.83)"/>
      <text class="cls-18" transform="translate(318.16 57.62)">Priv</text>
    </g>
    <line class="cls-2" x1="306.84" y1="54.57" x2="300.74" y2="54.57"/>
    <polyline class="cls-2" points="296.24 97.87 300.74 97.87 300.74 12.5 296.24 12.5"/>
    <line class="cls-2" x1="55.14" y1="54.42" x2="61.88" y2="54.42"/>
    <polyline class="cls-2" points="66.38 107.81 61.88 107.81 61.88 7.23 66.38 7.23"/>
    <line class="cls-2" x1="160.55" y1="54.57" x2="166.87" y2="54.57"/>
    <polyline class="cls-2" points="173.25 79.89 166.91 79.89 166.91 25.98 242.08 25.98"/>
    <g>
      <path class="cls-3" d="M124.6,176.31a16.41,16.41,0,0,0,2.14-.26,18.59,18.59,0,0,0,10.06-4.69c2.11-1.62,3.93-3,10.86-3.48l-4.59-3.63c-8.74.59-11.33,2.58-13.62,4.34a13.35,13.35,0,0,1-3.8,2.25l.54,1.31-.87.6-1.27.27.4,1.41Z" transform="translate(-122.46 -123.83)"/>
      <path class="cls-3" d="M123.56,179.3a37.37,37.37,0,0,0,13.66.75c5.69-.86,7.83-2.5,9.72-4,2.11-1.63,3.93-3,10.87-3.5l-4.27-4.35c-8.73.59-11.33,2.58-13.61,4.34a13.84,13.84,0,0,1-7.66,3.18,22.83,22.83,0,0,1-8.16-.27,2.78,2.78,0,0,1-1.25-.47c-.15.54.4,1.35.79,1.68l.16.74-.79.14Z" transform="translate(-122.46 -123.83)"/>
      <path class="cls-3" d="M126.13,184.75a33.44,33.44,0,0,0,9.91-.13c5.67-1,7.78-2.67,9.64-4.15,2.08-1.67,4.77-3.35,11.7-4L153,172.24c-8.73.77-12.18,3.06-14.43,4.86a13.77,13.77,0,0,1-7.59,3.34,21.42,21.42,0,0,1-5,.28l1.41,1.65-.86.89Z" transform="translate(-122.46 -123.83)"/>
      <path class="cls-3" d="M123.75,185c1.65.44,3.22,1,4.81,1.49,4.44,1.47,9.46,3.15,15.84,2.78,5.8-.33,8.24-1.74,10.37-3,3.16-1.91,5.46-3.26,11.43-2.47l-3.41-4.71c-8.77-.21-11.71,1.53-14.31,3.06a15.14,15.14,0,0,1-8.19,2.46c-4.39.25-7.36-.74-11.47-2.11-1.24-.41-2.55-.85-3.95-1.26l-.42,2.33-1.83.07A1.83,1.83,0,0,0,123.75,185Z" transform="translate(-122.46 -123.83)"/>
      <path class="cls-3" d="M124.5,171.8a33,33,0,0,0,3.87-.33c5.69-.87,7.83-2.51,9.72-4,2.11-1.61,3.94-3,10.87-3.48l-4.26-4.36A19.91,19.91,0,0,0,132,163.84a18.47,18.47,0,0,1-7.46,3.16,5.79,5.79,0,0,1-1.33-.09,3.16,3.16,0,0,0,1.9,1.34l-1.35.87.08,1.15Z" transform="translate(-122.46 -123.83)"/>
      <path class="cls-4" d="M148.44,174.51c-1.4.1-5,.67-5,.67l-2.73,3.12,3.84-1.9,6-.58Z" transform="translate(-122.46 -123.83)"/>
      <polygon class="cls-5" points="28.82 58.34 26.28 60.57 20.5 61.85 23.74 62.81 28.5 61.45 28.82 58.34"/>
      <polygon class="cls-6" points="11.96 42.22 8.01 42.98 3.35 45.48 9.75 44.49 11.96 42.22"/>
      <polygon class="cls-7" points="17 55.69 11.81 57.47 11.23 58.54 16.24 57.65 17 55.69"/>
      <polygon class="cls-7" points="21.43 42.49 16.24 44.27 15.67 45.34 20.67 44.44 21.43 42.49"/>
      <polygon class="cls-6" points="37.59 57.1 31.77 58.59 31.34 60.57 36.16 58.99 37.59 57.1"/>
      <polygon class="cls-8" points="9.4 49.84 2.27 49.42 6.13 50.66 9.4 49.84"/>
      <path class="cls-8" d="M134.48,185.68,128.07,184s3.1,2,4,2.36,6.58,1.22,6.58,1.22Z" transform="translate(-122.46 -123.83)"/>
      <path class="cls-8" d="M142.58,161.64,136,163.51s-2.63,2.68-1.57,2.55a45.49,45.49,0,0,0,5.62-2.18Z" transform="translate(-122.46 -123.83)"/>
    </g>
    <g>
      <path class="cls-23" d="M141.75,194.61c0,7.39,2.92,10.72,2.92,18.72" transform="translate(-122.46 -123.83)"/>
      <polygon points="17.43 71.33 19.3 68.09 21.17 71.33 17.43 71.33"/>
    </g>
    <g>
      <path class="cls-23" d="M206.25,230.75c3.25,5.75,3.5,9.94,3.5,17.06" transform="translate(-122.46 -123.83)"/>
      <polygon points="82.44 108.31 82.48 104.57 85.7 106.47 82.44 108.31"/>
    </g>
    <g>
      <path class="cls-23" d="M248.25,210c9.5,12,14.45,31.6,14.45,43.4" transform="translate(-122.46 -123.83)"/>
      <polygon points="124.67 87.75 124.13 84.05 127.61 85.43 124.67 87.75"/>
    </g>
    <g>
      <path class="cls-23" d="M318.57,222.2c0,12.4-4.37,18-4.37,31.2" transform="translate(-122.46 -123.83)"/>
      <polygon points="194.25 98.91 196.12 95.67 197.99 98.91 194.25 98.91"/>
    </g>
    <g>
      <path class="cls-23" d="M359.62,209.83c8.63,9.29,18.92,30.32,18.92,43.57" transform="translate(-122.46 -123.83)"/>
      <polygon points="236.17 87.67 235.34 84.02 238.91 85.12 236.17 87.67"/>
    </g>
    <g>
      <path class="cls-23" d="M403.63,213.15c10.37,7.85,19.62,24.2,19.62,37.6" transform="translate(-122.46 -123.83)"/>
      <polygon points="280.49 91.12 279.04 87.68 282.75 88.14 280.49 91.12"/>
    </g>
    <g>
      <path class="cls-9" d="M176.06,175.11h-23.7A10.77,10.77,0,0,0,131.58,179c0,.13,0,.25,0,.37s0,.25,0,.37a10.77,10.77,0,0,0,20.4,4.7h2a2.53,2.53,0,0,1,4.85,0H161a2.53,2.53,0,0,1,4.85,0H168a2.53,2.53,0,0,1,4.85,0h1.51L180,178v-.74Z" transform="translate(-122.46 -123.83)"/>
      <path class="cls-15" d="M180,177.26l-27.59-1.41a10.66,10.66,0,1,0-.38,8.55h2a2.53,2.53,0,0,1,4.85,0H161a2.53,2.53,0,0,1,4.85,0H168a2.53,2.53,0,0,1,4.85,0h1.51L180,178Z" transform="translate(-122.46 -123.83)"/>
      <path class="cls-24" d="M176.06,175.11h-23.7a10.66,10.66,0,1,0-.38,8.55h2a2.53,2.53,0,0,1,4.85,0H161a2.53,2.53,0,0,1,4.85,0H168a2.53,2.53,0,0,1,4.85,0h1.51l5.59-6.4Z" transform="translate(-122.46 -123.83)"/>
      <path class="cls-25" d="M142.34,188.74a9.78,9.78,0,1,1,9.22-13.31l.21.55h24.07l2.76,1.52L174,182.8h-.48a3.49,3.49,0,0,0-6.12,0h-.91a3.49,3.49,0,0,0-6.12,0h-.9a3.49,3.49,0,0,0-6.12,0h-1.87l-.24.48A9.84,9.84,0,0,1,142.34,188.74Z" transform="translate(-122.46 -123.83)"/>
      <path class="cls-13" d="M150.84,179a8.5,8.5,0,1,1-8.5-8.5A8.5,8.5,0,0,1,150.84,179Z" transform="translate(-122.46 -123.83)"/>
      <text class="cls-18" transform="translate(12.43 58.38)">Priv</text>
    </g>
    <text class="cls-26" transform="translate(7.75 95.91)"><tspan class="cls-27">P</tspan><tspan x="4.31" y="0">arent</tspan><tspan x="0" y="9.5">extended</tspan><tspan x="0" y="19">private key</tspan></text>
    <g>
      <path class="cls-23" d="M449.5,194.61c0,8.39,3.75,11.14,3.75,20.64" transform="translate(-122.46 -123.83)"/>
      <polygon points="325.18 71.33 327.05 68.09 328.92 71.33 325.18 71.33"/>
    </g>
    <text class="cls-26" transform="translate(319.34 100.57)">Child<tspan x="0" y="9.5">extended</tspan><tspan x="0" y="19">private key</tspan></text>
    <line class="cls-2" x1="121.64" y1="54.42" x2="113.88" y2="54.42"/>
    <path d="M246.08,177.67c-1-.29-1.57-.55-2.33-.85v2.9a22.94,22.94,0,0,1,2.32-.87,17.55,17.55,0,0,1,2.54-.6A17,17,0,0,1,246.08,177.67Z" transform="translate(-122.46 -123.83)"/>
    <line class="cls-2" x1="219.2" y1="79.82" x2="211.13" y2="79.82"/>
    <path d="M343.64,203.07a24.39,24.39,0,0,1-2.33-.85v2.9a22,22,0,0,1,2.32-.87,17.55,17.55,0,0,1,2.54-.6A17,17,0,0,1,343.64,203.07Z" transform="translate(-122.46 -123.83)"/>
    <line class="cls-2" x1="243.43" y1="79.82" x2="239.18" y2="79.82"/>
    <path d="M367.86,203.07a24.39,24.39,0,0,1-2.33-.85v2.9a22.43,22.43,0,0,1,2.33-.87,17.17,17.17,0,0,1,2.53-.6A17,17,0,0,1,367.86,203.07Z" transform="translate(-122.46 -123.83)"/>
    <path d="M297.12,203.07a23.67,23.67,0,0,1-2.34-.85v2.9a22.43,22.43,0,0,1,2.33-.87,17.47,17.47,0,0,1,2.53-.6A16.68,16.68,0,0,1,297.12,203.07Z" transform="translate(-122.46 -123.83)"/>
    <path d="M366.39,149.23c-.95-.29-1.57-.55-2.33-.85v2.9a22.94,22.94,0,0,1,2.32-.87,17.55,17.55,0,0,1,2.54-.6A17,17,0,0,1,366.39,149.23Z" transform="translate(-122.46 -123.83)"/>
    <polyline class="cls-2" points="231.56 92.38 231.56 114.17 76.15 114.17 76.15 104.64"/>
    <path d="M354.6,214.24a24.39,24.39,0,0,0,.85,2.33h-2.9a22.61,22.61,0,0,0,.86-2.32,15.22,15.22,0,0,0,.6-2.54A18.36,18.36,0,0,0,354.6,214.24Z" transform="translate(-122.46 -123.83)"/>
    <g>
      <path class="cls-23" d="M273.1,154.2c0-7.53,4.9-12.87,4.9-19.87" transform="translate(-122.46 -123.83)"/>
      <polygon points="152.5 29.82 150.63 33.06 148.76 29.82 152.5 29.82"/>
    </g>
    <g>
      <path class="cls-23" d="M351.5,193c-2.75-9-11.5-8-11.5-14.75" transform="translate(-122.46 -123.83)"/>
      <polygon points="230.66 68.1 229.82 71.74 227.08 69.19 230.66 68.1"/>
    </g>
    <g>
      <path class="cls-23" d="M363.14,144c-4.72-.22-13.47-5.86-13.64-11" transform="translate(-122.46 -123.83)"/>
      <polygon points="240.23 18.31 243.37 20.34 240.05 22.05 240.23 18.31"/>
    </g>
    <text class="cls-26" transform="translate(133.79 7.57)">HM<tspan class="cls-28" x="11.54" y="0">A</tspan><tspan class="cls-29" x="15.82" y="0">C</tspan><tspan x="20.47" y="0">-SHA512</tspan></text>
    <text class="cls-26" transform="translate(197.66 7.57)">Child chain code</text>
    <g>
      <g>
        <path class="cls-30" d="M282,180.16a.94.94,0,0,0-1-1h-30.3a.94.94,0,0,0-.95,1l.95,17.28a1.08,1.08,0,0,0,1.06,1H280a1.08,1.08,0,0,0,1.06-1Z" transform="translate(-122.46 -123.83)"/>
        <polygon class="cls-31" points="129.31 73.65 128.32 56.05 158.79 56.05 157.65 73.65 129.31 73.65"/>
        <polygon class="cls-32" points="129.42 73.65 131.27 65.95 155.84 65.95 157.55 73.65 129.42 73.65"/>
        <path class="cls-33" d="M282,178.91a.94.94,0,0,0-1-1h-30.3a1,1,0,0,0-.95,1l.95,18.53a1.08,1.08,0,0,0,1.06,1H280a1.08,1.08,0,0,0,1.06-1Z" transform="translate(-122.46 -123.83)"/>
      </g>
      <polygon class="cls-34" points="126.13 52.56 126.58 55.32 160.39 55.32 160.84 52.56 126.13 52.56"/>
      <g>
        <path class="cls-35" d="M280.55,169.16a1.59,1.59,0,0,0-1.37-.93H252.7a1.61,1.61,0,0,0-1.37.93l-2.71,6.8a.63.63,0,0,0,.63.93h33.38a.63.63,0,0,0,.63-.93Z" transform="translate(-122.46 -123.83)"/>
        <path class="cls-33" d="M280.55,169.16a1.59,1.59,0,0,0-1.37-.93H252.7a1.61,1.61,0,0,0-1.37.93l-2.71,6.8a.63.63,0,0,0,.63.93h33.38a.63.63,0,0,0,.63-.93Z" transform="translate(-122.46 -123.83)"/>
      </g>
      <polygon class="cls-36" points="130.43 48.17 129.99 49.29 156.98 49.29 156.54 48.17 130.43 48.17"/>
      <g>
        <path class="cls-3" d="M264.08,190.41l1.43,1.34c1.21-1.4,1.78-5.76,1.78-11.87h-2.56C264.73,186.12,264.72,189.66,264.08,190.41Z" transform="translate(-122.46 -123.83)"/>
        <path class="cls-3" d="M260.3,190.2l.92,1.76c2.59-1.49,3.26-6.68,3.27-12.08h-2.56C261.93,182.17,262.24,189.08,260.3,190.2Z" transform="translate(-122.46 -123.83)"/>
        <path class="cls-3" d="M256.45,190.13l.67,1.89c4.3-1.64,4.62-8.72,4.62-12.14h-2.55C259.19,182.61,259.49,189,256.45,190.13Z" transform="translate(-122.46 -123.83)"/>
        <path class="cls-3" d="M252.58,190.11l.52,1.94c5.6-1.61,5.93-9,5.93-12.17h-2.56C256.47,182.82,256.78,188.91,252.58,190.11Z" transform="translate(-122.46 -123.83)"/>
        <path class="cls-3" d="M271.61,190.2l-.93,1.76c-2.59-1.49-3.26-6.68-3.26-12.08H270C270,182.17,269.66,189.08,271.61,190.2Z" transform="translate(-122.46 -123.83)"/>
        <path class="cls-3" d="M275.45,190.13l-.66,1.89c-4.31-1.64-4.63-8.72-4.63-12.14h2.56C272.72,182.61,272.41,189,275.45,190.13Z" transform="translate(-122.46 -123.83)"/>
        <path class="cls-3" d="M279.32,190.11l-.51,1.94c-5.61-1.61-5.94-9-5.94-12.17h2.57C275.44,182.82,275.12,188.91,279.32,190.11Z" transform="translate(-122.46 -123.83)"/>
      </g>
      <path class="cls-37" d="M267.26,175c0,.4-.59.73-1.32.73s-1.32-.33-1.32-.73.59-.74,1.32-.74S267.26,174.54,267.26,175Z" transform="translate(-122.46 -123.83)"/>
      <path class="cls-38" d="M267.26,174.6c0,.4-.59.73-1.32.73s-1.32-.33-1.32-.73.59-.74,1.32-.74S267.26,174.19,267.26,174.6Z" transform="translate(-122.46 -123.83)"/>
      <g class="cls-39">
        <rect class="cls-40" x="131.12" y="35.14" width="24.74" height="27.32"/>
        <rect class="cls-13" x="132.28" y="36.3" width="22.41" height="24.99"/>
        <g>
          <path class="cls-41" d="M258.33,160.14h16a34.7,34.7,0,0,0-4.14.58,26.23,26.23,0,0,0-7.61,0C261.27,160.4,259.73,160.34,258.33,160.14Z" transform="translate(-122.46 -123.83)"/>
          <path class="cls-7" d="M256.59,160.64a4.11,4.11,0,0,1,3.23,1.49,2.9,2.9,0,0,0-.5,1.32c.06.25.18-.08.33,0-.14.13,0,.52-.33.5A5.69,5.69,0,0,0,256.59,160.64Z" transform="translate(-122.46 -123.83)"/>
          <path class="cls-42" d="M257.92,160.64a16.64,16.64,0,0,1,3.72.25c-.42.37-1.56.48-1.49,1.07C259.57,161.68,259,160.73,257.92,160.64Z" transform="translate(-122.46 -123.83)"/>
          <path class="cls-6" d="M266.69,162.71a6.54,6.54,0,0,0,.08,2.23A2.46,2.46,0,0,1,266.69,162.71Z" transform="translate(-122.46 -123.83)"/>
          <path class="cls-6" d="M265.53,166.43c-.21.08-.76,0-.83-.17-.68,1.29-3.33,1.31-3.64-.33-.33,0-.57.14-.91.17C261.36,164.91,264.49,165.5,265.53,166.43Zm-1.32-.33c-.48.33-1.15.85-1.91.41-.22-.16-.17-.59-.49-.66h-.34C261.45,167.27,264,167.38,264.21,166.1Z" transform="translate(-122.46 -123.83)"/>
          <path class="cls-6" d="M272.48,166c-.24.24-.58-.12-.91-.08-.33,1.56-3,1.71-3.64.33,0,.22-.43.1-.83.25C268,165.39,271.14,165,272.48,166Zm-1.82-.16a1.08,1.08,0,0,1-.91.83c-.63.06-.91-.46-1.41-.58.32,1.22,2.66,1.16,2.82-.17A.76.76,0,0,0,270.66,165.85Z" transform="translate(-122.46 -123.83)"/>
          <path class="cls-8" d="M261.47,165.85h.34c.32.07.27.5.49.66.76.44,1.43-.08,1.91-.41C264,167.38,261.45,167.27,261.47,165.85Z" transform="translate(-122.46 -123.83)"/>
          <path class="cls-8" d="M271.16,165.93c-.16,1.33-2.5,1.39-2.82.17.5.12.78.64,1.41.58a1.08,1.08,0,0,0,.91-.83A.76.76,0,0,1,271.16,165.93Z" transform="translate(-122.46 -123.83)"/>
          <path class="cls-6" d="M267.1,167.26c.27.51-.62.37-.74.74.84.23,1.78.37,2.06,1.16a3.59,3.59,0,0,0-4.29,0c.31-.76,1.23-.92,2.06-1.16-.09-.32-.6-.23-.74-.5v-.24A3.29,3.29,0,0,1,267.1,167.26Zm-.91.41c.14-.45-.28-.32-.58-.33C265.65,167.6,266,167.57,266.19,167.67Zm.17,0a.79.79,0,0,0,.66-.33h-.66Z" transform="translate(-122.46 -123.83)"/>
          <path class="cls-7" d="M265.61,167.34c.3,0,.72-.12.58.33C266,167.57,265.65,167.6,265.61,167.34Z" transform="translate(-122.46 -123.83)"/>
          <path class="cls-7" d="M266.36,167.34H267a.79.79,0,0,1-.66.33Z" transform="translate(-122.46 -123.83)"/>
          <path class="cls-6" d="M262.47,167.84c.11-.19.57,0,.82-.09C263.18,167.94,262.72,167.78,262.47,167.84Z" transform="translate(-122.46 -123.83)"/>
          <path class="cls-6" d="M269.34,167.84c.16-.19.68,0,1-.09C270.16,167.94,269.64,167.78,269.34,167.84Z" transform="translate(-122.46 -123.83)"/>
          <path class="cls-6" d="M264.7,167.92a7.53,7.53,0,0,1-2.15.66A4.27,4.27,0,0,1,264.7,167.92Z" transform="translate(-122.46 -123.83)"/>
          <path class="cls-6" d="M267.27,171.31a5.91,5.91,0,0,1-1.74.08c-.53-.07.81,0,1.16-.16S267,171.38,267.27,171.31Z" transform="translate(-122.46 -123.83)"/>
          <path class="cls-42" d="M263.21,179.17a3.32,3.32,0,0,0-1,1.9C261.41,180.73,262.22,179,263.21,179.17Z" transform="translate(-122.46 -123.83)"/>
          <path class="cls-42" d="M269.42,179.25c0-.08.1-.06.17-.08a1.29,1.29,0,0,1,.66.25c.38.34.69,1.37.16,1.65C270.15,180.68,270.08,179.5,269.42,179.25Z" transform="translate(-122.46 -123.83)"/>
          <path class="cls-42" d="M275,179.5c.35-.25.9.72.33.91C275.12,180.16,275.23,179.65,275,179.5Z" transform="translate(-122.46 -123.83)"/>
          <path class="cls-41" d="M256.59,160.14c-.17.16-.6.05-.74.25,1.35,1,3.24,2.2,3.31,4.3,0,1.06-.59,2.05-.42,3.39,0,.35.35-.05.42.17a1.52,1.52,0,0,0,.58,1.41c.17,0,.16-.12.16-.25a12.08,12.08,0,0,1,1.16.82c0,1.8-.93,2.66-1.24,4.14a2.26,2.26,0,0,0-2.81,3.39c-.58.75-1.42,1.23-1.82,2.15.21.05.71-.33,1-.49-.12.6-.78,2.11-.17,3,.24-.05.16-.4.25-.58.29.75.54,1.56,1.25,1.9.19-.07,0-.43-.09-.5.85.62,1.79,1.86,3.56,1.82.07-.16-.41-.46-.66-.58,1,.07,2.44.89,3.72.42a1.31,1.31,0,0,0-.66-.25,10.25,10.25,0,0,0,5.46-1.49c-.06-.19-.46,0-.66-.08.52-.17,1.09-.29,1.57-.5a23.07,23.07,0,0,0-3.06-.58c0-.11.2-.07.33-.08-.15-.32-.64-.3-1.08-.33a1.52,1.52,0,0,0,.33-1.08,2.31,2.31,0,0,1,.17.83c1.19.83,3.23,0,4.47-.17,1.76-.24,5,.52,5-1.15,0-.62-.57-.88-1.15-1.08.41-.73,1.22-1.51,1.24-2.65a2.19,2.19,0,0,0-3.23-1.9c-.35-1.44-1.27-2.31-1.24-4.14.35-.24.95-1,1.24-.57a1.59,1.59,0,0,0,.66-1.49c.16-.08.28.24.34,0,.34-1.32-.46-2.39-.42-3.48.07-2.06,2.05-3.18,3.31-4.3-.09-.19-.38-.17-.66-.17v-.08h.74v25H255.1v-25Z" transform="translate(-122.46 -123.83)"/>
          <path class="cls-42" d="M271,161a16.85,16.85,0,0,1,3.64-.42,4.53,4.53,0,0,0-2.07,1.49C272.52,161.5,271.61,161.2,271,161Z" transform="translate(-122.46 -123.83)"/>
          <path class="cls-7" d="M272.89,163.45c.05-.24.13.13.25.08.26-.4-.13-.95-.33-1.4a4.54,4.54,0,0,1,3.14-1.58,6.83,6.83,0,0,0-2.73,3.48C273.06,163.89,273.09,163.55,272.89,163.45Z" transform="translate(-122.46 -123.83)"/>
          <path class="cls-42" d="M271.74,161.71c.34.24.67.48,1,.75,0,.17-.24,0-.25-.09-.19.17.38.28.33.58-.17,0-.16-.22-.33-.24a16.93,16.93,0,0,1,1.07,5.13c-.48.12-.23,1-.49,1.32-.21-.08.11-.32,0-.58-.35.4-.61.88-1.16,1.08.14-.23.35-.37.5-.58a11,11,0,0,1-5.38,2,7.4,7.4,0,0,0,4.22-.91c0,2.7,2.58,5.93.41,8.36.06.18.28-.16.33-.25.26.13-.17.26-.16.41a4.09,4.09,0,0,0,1.07-4c2.82-1.12,3.27,2.72,1.66,3.89-.39,0-.53-.17-.83,0,.09.13.35.09.5.16-.17.19-.69,0-1,.09,1,.22,2,.41,1.74,1.82a3.08,3.08,0,0,1-.91.16c-.07-.87-.24-1.63-1.07-1.74a1.54,1.54,0,0,1,.83,1.82c-.89.11-2,.16-2.74.17.1-1.37-.48-2.05-1.57-2.23-.06-.69-.22-1.28-.25-2,.27-.5.8-.75.75-1.57a4.07,4.07,0,0,1-.66,1c-.12,0-.07-.21-.09-.33a5.16,5.16,0,0,0-.16,3,2.42,2.42,0,0,0-1.08.83c.41-.1.68-.32,1.08-.42a2.21,2.21,0,0,1,.91,1.82.9.9,0,0,1-.75.25,1.64,1.64,0,0,0-.74-1.65,1.62,1.62,0,0,1,.33,1.57,3.9,3.9,0,0,1-2.07-.09c-.23-1.75-.2-3.76-.58-5.37a49.25,49.25,0,0,1-.41,5.46,6.25,6.25,0,0,1-2.07,0,1.73,1.73,0,0,1,.33-1.49,1.44,1.44,0,0,0-.66,1.57c-.38.08-.47-.14-.74-.17,0-.91.26-1.6.9-1.9a4.76,4.76,0,0,1,.91.42c0-.28-.57-.7-1-.83a5.57,5.57,0,0,0-.08-3.06c-.18,0,0,.29-.09.41-.22-.3-.55-.49-.57-1a1.35,1.35,0,0,0,.66,1.49,14.22,14.22,0,0,1-.33,2.07,1.77,1.77,0,0,0-1.49,2.23,11.21,11.21,0,0,1-2.82-.25c0-.88.16-1.55.91-1.65-.76-.19-1.08.79-1.07,1.65a3.08,3.08,0,0,1-.91-.16c-.32-1.17.6-1.76,1.74-1.74-.17-.19-.69,0-1-.08,0-.18.21-.18.42-.17-.1-.35-.45,0-.75-.08-1.67-1.19-1.22-5,1.66-3.89a4.16,4.16,0,0,0,1,4c.18,0-.16-.27-.25-.33.08-.22.19.19.33.17a5.64,5.64,0,0,1-.74-3.15c.17-1.87,1.46-3.16,1.32-5.21a8.3,8.3,0,0,0,4.14,1c-1.93-.5-4-.84-5.21-2.07-.09.09.24.47.41.58-.36-.06-.9-.65-1.16-1.08-.22.08.12.26,0,.5-.3-.29-.15-1.33-.5-1.33a13.64,13.64,0,0,1,1.08-5c0-.18-.25.12-.33.16s.15-.5.41-.49c-.52,0,.27-.61.67-.66-.09-.24-.35,0-.5,0,3-1.31,8.7-1.18,11.83-.09C272.13,162,272,161.62,271.74,161.71Zm-5,3.23a6.54,6.54,0,0,1-.08-2.23A2.46,2.46,0,0,0,266.77,164.94Zm-.83-.33c-.32.65.1.19.17-.33a2.23,2.23,0,0,0-.25-1.49A8.19,8.19,0,0,1,265.94,164.61Zm-5.79,1.49c.34,0,.58-.14.91-.17.31,1.64,3,1.62,3.64.33.07.18.62.25.83.17C264.49,165.5,261.36,164.91,260.15,166.1Zm7,.41c.4-.15.83,0,.83-.25.65,1.38,3.31,1.23,3.64-.33.33,0,.67.32.91.08C271.14,165,268,165.39,267.1,166.51Zm-1.65.75v.24c.14.27.65.18.74.5-.83.24-1.75.4-2.06,1.16a3.59,3.59,0,0,1,4.29,0c-.28-.79-1.22-.93-2.06-1.16.12-.37,1-.23.74-.74A3.29,3.29,0,0,0,265.45,167.26Zm4.88.16c-.55.26-1.38-.1-1.66-.08C269,167.52,270,167.78,270.33,167.42Zm-8.19,0a1.61,1.61,0,0,0,1.65-.08A3.55,3.55,0,0,1,262.14,167.42Zm1.15.33c-.25.05-.71-.1-.82.09C262.72,167.78,263.18,167.94,263.29,167.75Zm7,0c-.31.06-.83-.1-1,.09C269.64,167.78,270.16,167.94,270.33,167.75Zm-7.78.83a7.53,7.53,0,0,0,2.15-.66A4.27,4.27,0,0,0,262.55,168.58Zm7.53,0c.23,0,.12,0-.08-.08a3.58,3.58,0,0,0-2.15-.5A22.18,22.18,0,0,0,270.08,168.58Zm-7.61,1.08c.62-.54,1.46-.86,2.07-1.41A3.84,3.84,0,0,0,262.47,169.66Zm7.78-.09c-.7-.38-1.32-1.27-2.16-1.24C268.82,168.68,269.57,169.44,270.25,169.57Zm-4.64.42c.32,0,.7-.29.58-.42C266.06,169.77,265.77,169.81,265.61,170Zm1.41,0c-.24,0-.53-.46-.66-.33C266.48,169.81,266.77,170.23,267,170Zm-1.08.33c.24-.27.52-.07.83,0C266.81,169.88,265.67,170.07,265.94,170.32Zm.75.91c-.35.12-1.69.09-1.16.16a5.91,5.91,0,0,0,1.74-.08C267,171.38,267,171.19,266.69,171.23Z" transform="translate(-122.46 -123.83)"/>
          <path class="cls-6" d="M256.59,160.14h1.74c1.4.2,2.94.26,4.22.58a26.23,26.23,0,0,1,7.61,0,34.7,34.7,0,0,1,4.14-.58H276v.08c.28,0,.57,0,.66.17-1.26,1.12-3.24,2.24-3.31,4.3,0,1.09.76,2.16.42,3.48-.06.24-.18-.08-.34,0a1.59,1.59,0,0,1-.66,1.49c-.29-.46-.89.33-1.24.57,0,1.83.89,2.7,1.24,4.14a2.19,2.19,0,0,1,3.23,1.9c0,1.14-.83,1.92-1.24,2.65.58.2,1.16.46,1.15,1.08,0,1.67-3.28.91-5,1.15-1.24.18-3.28,1-4.47.17a2.31,2.31,0,0,0-.17-.83,1.52,1.52,0,0,1-.33,1.08c.44,0,.93,0,1.08.33-.13,0-.31,0-.33.08a23.07,23.07,0,0,1,3.06.58c-.48.21-1.05.33-1.57.5.2.05.6-.11.66.08a10.25,10.25,0,0,1-5.46,1.49,1.31,1.31,0,0,1,.66.25c-1.28.47-2.75-.35-3.72-.42.25.12.73.42.66.58-1.77,0-2.71-1.2-3.56-1.82.08.07.28.43.09.5-.71-.34-1-1.15-1.25-1.9-.09.18,0,.53-.25.58-.61-.87.05-2.38.17-3-.28.16-.78.54-1,.49.4-.92,1.24-1.4,1.82-2.15a2.26,2.26,0,0,1,2.81-3.39c.31-1.48,1.24-2.34,1.24-4.14a12.08,12.08,0,0,0-1.16-.82c0,.13,0,.28-.16.25a1.52,1.52,0,0,1-.58-1.41c-.07-.22-.39.18-.42-.17-.17-1.34.45-2.33.42-3.39-.07-2.1-2-3.27-3.31-4.3C256,160.19,256.42,160.3,256.59,160.14Zm15.64,1.57c-3.13-1.09-8.83-1.22-11.83.09.15,0,.41-.24.5,0-.4,0-1.19.67-.67.66-.26,0-.5.43-.41.49s.31-.34.33-.16a13.64,13.64,0,0,0-1.08,5c.35,0,.2,1,.5,1.33.12-.24-.22-.42,0-.5.26.43.8,1,1.16,1.08-.17-.11-.5-.49-.41-.58,1.19,1.23,3.28,1.57,5.21,2.07a8.3,8.3,0,0,1-4.14-1c.14,2-1.15,3.34-1.32,5.21a5.64,5.64,0,0,0,.74,3.15c-.14,0-.25-.39-.33-.17.09.06.43.28.25.33a4.16,4.16,0,0,1-1-4c-2.88-1.07-3.33,2.7-1.66,3.89.3.05.65-.27.75.08-.21,0-.4,0-.42.17.31.05.83-.11,1,.08-1.14,0-2.06.57-1.74,1.74a3.08,3.08,0,0,0,.91.16c0-.86.31-1.84,1.07-1.65-.75.1-.93.77-.91,1.65a11.21,11.21,0,0,0,2.82.25,1.77,1.77,0,0,1,1.49-2.23,14.22,14.22,0,0,0,.33-2.07,1.35,1.35,0,0,1-.66-1.49c0,.5.35.69.57,1,0-.12-.09-.43.09-.41a5.57,5.57,0,0,1,.08,3.06c.42.13,1,.55,1,.83a4.76,4.76,0,0,0-.91-.42c-.64.3-.88,1-.9,1.9.27,0,.36.25.74.17a1.44,1.44,0,0,1,.66-1.57,1.73,1.73,0,0,0-.33,1.49,6.25,6.25,0,0,0,2.07,0,49.25,49.25,0,0,0,.41-5.46c.38,1.61.35,3.62.58,5.37a3.9,3.9,0,0,0,2.07.09,1.62,1.62,0,0,0-.33-1.57,1.64,1.64,0,0,1,.74,1.65.9.9,0,0,0,.75-.25,2.21,2.21,0,0,0-.91-1.82c-.4.1-.67.32-1.08.42a2.42,2.42,0,0,1,1.08-.83,5.16,5.16,0,0,1,.16-3c0,.12,0,.31.09.33a4.07,4.07,0,0,0,.66-1c.05.82-.48,1.07-.75,1.57,0,.71.19,1.3.25,2,1.09.18,1.67.86,1.57,2.23.74,0,1.85-.06,2.74-.17A1.54,1.54,0,0,0,273,179c.83.11,1,.87,1.07,1.74a3.08,3.08,0,0,0,.91-.16c.22-1.41-.78-1.6-1.74-1.82.31-.06.83.1,1-.09-.15-.07-.41,0-.5-.16.3-.17.44,0,.83,0,1.61-1.17,1.16-5-1.66-3.89a4.09,4.09,0,0,1-1.07,4c0-.15.42-.28.16-.41-.05.09-.27.43-.33.25,2.17-2.43-.43-5.66-.41-8.36a7.4,7.4,0,0,1-4.22.91,11,11,0,0,0,5.38-2c-.15.21-.36.35-.5.58.55-.2.81-.68,1.16-1.08.11.26-.21.5,0,.58.26-.34,0-1.2.49-1.32a16.93,16.93,0,0,0-1.07-5.13c.17,0,.16.22.33.24.05-.3-.52-.41-.33-.58,0,.07.27.26.25.09-.32-.27-.65-.51-1-.75C272,161.62,272.13,162,272.23,161.71ZM259.32,164c.3,0,.19-.37.33-.5-.15-.08-.27.25-.33,0a2.9,2.9,0,0,1,.5-1.32,4.11,4.11,0,0,0-3.23-1.49A5.69,5.69,0,0,1,259.32,164Zm.83-2c-.07-.59,1.07-.7,1.49-1.07a16.64,16.64,0,0,0-3.72-.25C259,160.73,259.57,161.68,260.15,162Zm12.41.08a4.53,4.53,0,0,1,2.07-1.49A16.85,16.85,0,0,0,271,161C271.61,161.2,272.52,161.5,272.56,162Zm.66,2a6.83,6.83,0,0,1,2.73-3.48,4.54,4.54,0,0,0-3.14,1.58c.2.45.59,1,.33,1.4-.12.05-.2-.32-.25-.08C273.09,163.55,273.06,163.89,273.22,164Zm-13.07,20.6a2.23,2.23,0,0,1-.74-1.16,5.68,5.68,0,0,0,3.31,1.16c-.35-.12-1-.44-.91-.66a8.38,8.38,0,0,0,5.71-.58,2.23,2.23,0,0,1-1-.25,13.9,13.9,0,0,0,2.07-.58c-1.14-.26-2.49-.32-3.64-.58.05-.11.32,0,.33-.16-.95-.07-2,.15-2.73.08,0-.19.24-.09.25-.25a8.1,8.1,0,0,1-2.4.08c.25-.1.59-.12.66-.41-1.53-.13-4.7.05-4.38-1.57.1-.56.79-.61,1.24-1-.25-.14-.52-.26-.58-.58a3.52,3.52,0,0,0-1.08.91,5.5,5.5,0,0,1,.75-.17,3.06,3.06,0,0,0-.83,2.4c0-.19.08-.36.25-.41a4.3,4.3,0,0,0,.58,1.9c.05-.25-.11-.71.08-.83A5,5,0,0,0,260.15,184.63Zm2.07-3.56a3.32,3.32,0,0,1,1-1.9C262.22,179,261.41,180.73,262.22,181.07Zm8.19,0c.53-.28.22-1.31-.16-1.65a1.29,1.29,0,0,0-.66-.25c-.07,0-.17,0-.17.08C270.08,179.5,270.15,180.68,270.41,181.07Zm-13.4-1c.1.14.17.33.41.33-.12-.49.26-.89.17-1.07C257.41,179.6,257,179.66,257,180.08Zm18.28.33c.57-.19,0-1.16-.33-.91C275.23,179.65,275.12,180.16,275.29,180.41Zm-13.57,1.08c0-.24.57.07.58-.17C262,181.2,261.55,181.27,261.72,181.49Z" transform="translate(-122.46 -123.83)"/>
          <path class="cls-6" d="M265.86,162.79a2.23,2.23,0,0,1,.25,1.49c-.07.52-.49,1-.17.33A8.19,8.19,0,0,0,265.86,162.79Z" transform="translate(-122.46 -123.83)"/>
          <path class="cls-6" d="M268.67,167.34c.28,0,1.11.34,1.66.08C270,167.78,269,167.52,268.67,167.34Z" transform="translate(-122.46 -123.83)"/>
          <path class="cls-6" d="M263.79,167.34a1.61,1.61,0,0,1-1.65.08A3.55,3.55,0,0,0,263.79,167.34Z" transform="translate(-122.46 -123.83)"/>
          <path class="cls-6" d="M267.85,168a3.58,3.58,0,0,1,2.15.5c.2.11.31.09.08.08A22.18,22.18,0,0,1,267.85,168Z" transform="translate(-122.46 -123.83)"/>
          <path class="cls-6" d="M264.54,168.25c-.61.55-1.45.87-2.07,1.41A3.84,3.84,0,0,1,264.54,168.25Z" transform="translate(-122.46 -123.83)"/>
          <path class="cls-6" d="M268.09,168.33c.84,0,1.46.86,2.16,1.24C269.57,169.44,268.82,168.68,268.09,168.33Z" transform="translate(-122.46 -123.83)"/>
          <path class="cls-6" d="M266.19,169.57c.12.13-.26.45-.58.42C265.77,169.81,266.06,169.77,266.19,169.57Z" transform="translate(-122.46 -123.83)"/>
          <path class="cls-6" d="M266.36,169.66c.13-.13.42.29.66.33C266.77,170.23,266.48,169.81,266.36,169.66Z" transform="translate(-122.46 -123.83)"/>
          <path class="cls-6" d="M266.77,170.32c-.31-.07-.59-.27-.83,0C265.67,170.07,266.81,169.88,266.77,170.32Z" transform="translate(-122.46 -123.83)"/>
          <path class="cls-42" d="M257.09,182c-.19.12,0,.58-.08.83a4.3,4.3,0,0,1-.58-1.9c-.17.05-.22.22-.25.41a3.06,3.06,0,0,1,.83-2.4,5.5,5.5,0,0,0-.75.17,3.52,3.52,0,0,1,1.08-.91c.06.32.33.44.58.58-.45.38-1.14.43-1.24,1-.32,1.62,2.85,1.44,4.38,1.57-.07.29-.41.31-.66.41a8.1,8.1,0,0,0,2.4-.08c0,.16-.27.06-.25.25.68.07,1.78-.15,2.73-.08,0,.15-.28.05-.33.16,1.15.26,2.5.32,3.64.58a13.9,13.9,0,0,1-2.07.58,2.23,2.23,0,0,0,1,.25,8.38,8.38,0,0,1-5.71.58c0,.22.56.54.91.66a5.68,5.68,0,0,1-3.31-1.16,2.23,2.23,0,0,0,.74,1.16A5,5,0,0,1,257.09,182Z" transform="translate(-122.46 -123.83)"/>
          <path class="cls-41" d="M257.59,179.34c.09.18-.29.58-.17,1.07-.24,0-.31-.19-.41-.33C257,179.66,257.41,179.6,257.59,179.34Z" transform="translate(-122.46 -123.83)"/>
          <path class="cls-41" d="M262.3,181.32c0,.24-.57-.07-.58.17C261.55,181.27,262,181.2,262.3,181.32Z" transform="translate(-122.46 -123.83)"/>
        </g>
        <rect class="cls-33" x="132.28" y="36.3" width="22.41" height="24.99"/>
      </g>
      <rect x="134.5" y="57.04" width="0.53" height="1.93"/>
      <polygon points="138.16 57.3 137.3 60.1 137.89 60.9 137.89 59.44 138.16 57.3"/>
      <polygon points="139.96 64.76 140.89 61.96 140.16 61.9 139.96 64.76"/>
      <polygon points="140.22 57.37 140.22 59.17 140.75 58.9 140.69 57.57 140.22 57.37"/>
      <path d="M266,184.6c-.33.13-.33,1.53-.47,1.73a19.2,19.2,0,0,0-.33,2.4l.93-2.53Z" transform="translate(-122.46 -123.83)"/>
      <polygon points="146.21 58.84 145.74 60.9 146.34 61.43 146.48 62.76 146.68 59.97 146.21 58.84"/>
      <polygon points="149.07 56.71 148.48 57.97 148.87 60.1 149.34 58.7 148.94 57.7 149.07 56.71"/>
      <path d="M275.32,187.39a8.65,8.65,0,0,0,1,1.54,6,6,0,0,1,.93,1.06l-.53.4-1-1.13Z" transform="translate(-122.46 -123.83)"/>
      <path d="M255.1,189.26l-1.34,1s-.13.66.07.66S255,190,255,190Z" transform="translate(-122.46 -123.83)"/>
    </g>
    <g>
      <path class="cls-3" d="M334,208.76c-5,.32-9.4-.87-13.34-1.93-5.28-1.43-10.27-2.78-18.26-.73l-5.36-5c10-2.57,17.29-.61,23.13,1,4.33,1.17,7.46,2,11.77,1.24a16.52,16.52,0,0,0,3.85-1.11l-.69,1.56.64.8.08,1.37-.24,2.4Z" transform="translate(-122.46 -123.83)"/>
      <path class="cls-3" d="M333.7,212.28c-.88-.22-1.74-.45-2.58-.68-5.27-1.43-10.27-2.78-18.25-.73l-5.37-5c10-2.57,17.3-.61,23.13,1,1.29.35,2.47.67,3.61.93,0,0,1.25.48,2,.8l-1.11.64.16,1-.63,1.05L336,212Z" transform="translate(-122.46 -123.83)"/>
      <path class="cls-3" d="M334.54,218.41a57.05,57.05,0,0,1-5.74-1.49c-5.27-1.43-10.27-2.77-18.26-.73l-5.36-5c10-2.57,17.3-.61,23.14,1a41.42,41.42,0,0,0,6.79,1.46l-1.68,1.69.32,1.44Z" transform="translate(-122.46 -123.83)"/>
      <path class="cls-3" d="M333.88,219.11a28.41,28.41,0,0,0-13.18-.94l-4.53-5.56a38,38,0,0,1,18.83,2l-.46.78.87,1.21-.24,2.4Z" transform="translate(-122.46 -123.83)"/>
      <path class="cls-3" d="M334.64,203.32a41.79,41.79,0,0,1-12.36-2c-5.29-1.43-10.27-2.78-18.26-.73l-5.36-5c10-2.57,17.29-.61,23.13,1,4.33,1.18,7.46,2,11.77,1.26l1.08-.22a2.37,2.37,0,0,1-1.37,1.41l1.67.64.47,1.29Z" transform="translate(-122.46 -123.83)"/>
      <polygon points="181.91 72.31 189.22 71.76 192.41 73.18 187.65 72.93 181.91 72.31"/>
      <polygon points="199.44 75.5 207.26 77.95 212.31 76.63 205.9 75.94 199.44 75.5"/>
      <polygon points="187.86 77.51 186.01 77.89 181.07 78.92 186.86 79.27 187.86 77.51"/>
      <polygon points="202.81 83.09 197.31 82.85 195.06 84.12 200.64 83.66 207.79 86.04 212.27 85.99 206.09 83.98 202.81 83.09"/>
      <polygon points="211.81 92.42 206.22 91.01 201.93 91.89 207.04 92.17 211.81 92.42"/>
      <polygon points="196.2 88.58 193.02 89.05 197.46 89.26 196.2 88.58"/>
      <polygon class="cls-7" points="192.68 87.13 188.74 89.92 187.33 88.16 192.68 87.13"/>
      <polygon class="cls-8" points="212.89 81.38 205.75 80.87 209.61 82.36 212.89 81.38"/>
      <polygon class="cls-8" points="195.01 81.76 189.13 81.93 191.41 84.58 195.01 81.76"/>
    </g>
    <text class="cls-26" transform="translate(70.06 130.13)"><tspan class="cls-43">P</tspan><tspan x="4.31" y="0">arent</tspan><tspan x="0" y="9.5">private key</tspan></text>
    <text class="cls-44" transform="translate(201.39 42.57)">Normal<tspan x="0" y="9.5">addition</tspan></text>
    <text class="cls-26" transform="translate(122.54 137.13)">Desired<tspan x="0" y="9.5">child index</tspan></text>
    <text class="cls-26" transform="translate(170.81 137.13)"><tspan class="cls-45">T</tspan><tspan x="3.44" y="0">reat the le</tspan><tspan class="cls-46" x="40.02" y="0">f</tspan><tspan x="42.5" y="0">t</tspan><tspan x="0" y="9.5">256 bits as a</tspan><tspan x="0" y="19">number…</tspan></text>
    <text class="cls-26" transform="translate(230.06 137.13)">…and add it<tspan x="0" y="9.5">to the parent</tspan><tspan x="0" y="19">private ke</tspan><tspan class="cls-47" x="35.21" y="19">y</tspan><tspan class="cls-48" x="38.2" y="19">.</tspan></text>
    <text class="cls-26" transform="translate(290.1 137.13)">Child<tspan x="0" y="9.5">private key</tspan></text>
    <line class="cls-2" x1="118.88" y1="73.67" x2="118.88" y2="54.42"/>
    <text class="cls-49" transform="translate(116.62 81.06)">1</text>
    <text class="cls-50" transform="translate(225.27 86.17)">+</text>
    <path class="cls-51" d="M246.39,202.56a5.06,5.06,0,1,1-5.06-5.06A5.06,5.06,0,0,1,246.39,202.56Z" transform="translate(-122.46 -123.83)"/>
  </g>
</svg>
