<?xml version="1.0" encoding="UTF-8" standalone="no"?>
<svg
   xmlns:dc="http://purl.org/dc/elements/1.1/"
   xmlns:cc="http://creativecommons.org/ns#"
   xmlns:rdf="http://www.w3.org/1999/02/22-rdf-syntax-ns#"
   xmlns:svg="http://www.w3.org/2000/svg"
   xmlns="http://www.w3.org/2000/svg"
   version="1.1"
   id="svg2"
   xml:space="preserve"
   width="390.39584"
   height="247.01183"
   viewBox="0 0 390.39584 247.01183"><metadata
     id="metadata8"><rdf:RDF><cc:Work
         rdf:about=""><dc:format>image/svg+xml</dc:format><dc:type
           rdf:resource="http://purl.org/dc/dcmitype/StillImage" /></cc:Work></rdf:RDF></metadata><defs
     id="defs6"><clipPath
       clipPathUnits="userSpaceOnUse"
       id="clipPath22"><path
         d="M 0,792 H 612 V 0 H 0 Z"
         id="path20" /></clipPath><linearGradient
       x1="0"
       y1="0"
       x2="1"
       y2="0"
       gradientUnits="userSpaceOnUse"
       gradientTransform="matrix(50.908203,0,0,-50.908203,194.33789,541.76514)"
       spreadMethod="pad"
       id="linearGradient138"><stop
         style="stop-opacity:1;stop-color:#5ec45b"
         offset="0"
         id="stop134" /><stop
         style="stop-opacity:1;stop-color:#dbf1cb"
         offset="1"
         id="stop136" /></linearGradient><linearGradient
       x1="0"
       y1="0"
       x2="1"
       y2="0"
       gradientUnits="userSpaceOnUse"
       gradientTransform="matrix(48.576172,0,0,-48.576172,195.24609,541.76514)"
       spreadMethod="pad"
       id="linearGradient156"><stop
         style="stop-opacity:1;stop-color:#dbf1cb"
         offset="0"
         id="stop152" /><stop
         style="stop-opacity:1;stop-color:#5ec45b"
         offset="1"
         id="stop154" /></linearGradient><clipPath
       clipPathUnits="userSpaceOnUse"
       id="clipPath166"><path
         d="M 0,792 H 612 V 0 H 0 Z"
         id="path164" /></clipPath><linearGradient
       x1="0"
       y1="0"
       x2="1"
       y2="0"
       gradientUnits="userSpaceOnUse"
       gradientTransform="matrix(50.908203,0,0,-50.908203,392.34277,541.76514)"
       spreadMethod="pad"
       id="linearGradient202"><stop
         style="stop-opacity:1;stop-color:#5ec45b"
         offset="0"
         id="stop198" /><stop
         style="stop-opacity:1;stop-color:#dbf1cb"
         offset="1"
         id="stop200" /></linearGradient><linearGradient
       x1="0"
       y1="0"
       x2="1"
       y2="0"
       gradientUnits="userSpaceOnUse"
       gradientTransform="matrix(48.576172,0,0,-48.576172,393.25098,541.76514)"
       spreadMethod="pad"
       id="linearGradient220"><stop
         style="stop-opacity:1;stop-color:#dbf1cb"
         offset="0"
         id="stop216" /><stop
         style="stop-opacity:1;stop-color:#5ec45b"
         offset="1"
         id="stop218" /></linearGradient><clipPath
       clipPathUnits="userSpaceOnUse"
       id="clipPath230"><path
         d="M 0,792 H 612 V 0 H 0 Z"
         id="path228" /></clipPath><linearGradient
       x1="0"
       y1="0"
       x2="1"
       y2="0"
       gradientUnits="userSpaceOnUse"
       gradientTransform="matrix(50.908203,0,0,-50.908203,328.06152,579.51172)"
       spreadMethod="pad"
       id="linearGradient266"><stop
         style="stop-opacity:1;stop-color:#5ec45b"
         offset="0"
         id="stop262" /><stop
         style="stop-opacity:1;stop-color:#dbf1cb"
         offset="1"
         id="stop264" /></linearGradient><linearGradient
       x1="0"
       y1="0"
       x2="1"
       y2="0"
       gradientUnits="userSpaceOnUse"
       gradientTransform="matrix(48.576172,0,0,-48.576172,328.96973,579.51172)"
       spreadMethod="pad"
       id="linearGradient284"><stop
         style="stop-opacity:1;stop-color:#dbf1cb"
         offset="0"
         id="stop280" /><stop
         style="stop-opacity:1;stop-color:#5ec45b"
         offset="1"
         id="stop282" /></linearGradient><clipPath
       clipPathUnits="userSpaceOnUse"
       id="clipPath294"><path
         d="M 0,792 H 612 V 0 H 0 Z"
         id="path292" /></clipPath><linearGradient
       x1="0"
       y1="0"
       x2="1"
       y2="0"
       gradientUnits="userSpaceOnUse"
       gradientTransform="matrix(50.910156,0,0,-50.910156,194.3418,634.37256)"
       spreadMethod="pad"
       id="linearGradient340"><stop
         style="stop-opacity:1;stop-color:#ed1c24"
         offset="0"
         id="stop334" /><stop
         style="stop-opacity:1;stop-color:#fbc7a7"
         offset="0.58054141"
         id="stop336" /><stop
         style="stop-opacity:1;stop-color:#fbc7a7"
         offset="1"
         id="stop338" /></linearGradient><linearGradient
       x1="0"
       y1="0"
       x2="1"
       y2="0"
       gradientUnits="userSpaceOnUse"
       gradientTransform="matrix(48.583984,0,0,-48.583984,195.24805,634.37256)"
       spreadMethod="pad"
       id="linearGradient358"><stop
         style="stop-opacity:1;stop-color:#fbc7a7"
         offset="0"
         id="stop354" /><stop
         style="stop-opacity:1;stop-color:#ed1c24"
         offset="1"
         id="stop356" /></linearGradient><clipPath
       clipPathUnits="userSpaceOnUse"
       id="clipPath368"><path
         d="M 0,792 H 612 V 0 H 0 Z"
         id="path366" /></clipPath><linearGradient
       x1="0"
       y1="0"
       x2="1"
       y2="0"
       gradientUnits="userSpaceOnUse"
       gradientTransform="matrix(50.910156,0,0,-50.910156,392.34668,634.37256)"
       spreadMethod="pad"
       id="linearGradient412"><stop
         style="stop-opacity:1;stop-color:#ed1c24"
         offset="0"
         id="stop406" /><stop
         style="stop-opacity:1;stop-color:#fbc7a7"
         offset="0.58054141"
         id="stop408" /><stop
         style="stop-opacity:1;stop-color:#fbc7a7"
         offset="1"
         id="stop410" /></linearGradient><linearGradient
       x1="0"
       y1="0"
       x2="1"
       y2="0"
       gradientUnits="userSpaceOnUse"
       gradientTransform="matrix(48.583984,0,0,-48.583984,393.25293,634.37256)"
       spreadMethod="pad"
       id="linearGradient430"><stop
         style="stop-opacity:1;stop-color:#fbc7a7"
         offset="0"
         id="stop426" /><stop
         style="stop-opacity:1;stop-color:#ed1c24"
         offset="1"
         id="stop428" /></linearGradient><clipPath
       clipPathUnits="userSpaceOnUse"
       id="clipPath440"><path
         d="M 0,792 H 612 V 0 H 0 Z"
         id="path438" /></clipPath></defs><g
     id="g10"
     transform="matrix(1.3333333,0,0,-1.3333333,-201.28001,908.38853)"><g
       id="g12"
       transform="translate(327.6172,542.6543)"><path
         d="M 0,0 H -82.083"
         style="fill:none;stroke:#231f20;stroke-width:0.5;stroke-linecap:butt;stroke-linejoin:miter;stroke-miterlimit:4;stroke-dasharray:none;stroke-opacity:1"
         id="path14" /></g><g
       id="g16"><g
         id="g18"
         clip-path="url(#clipPath22)"><g
           id="g24"
           transform="translate(206.2637,596.5366)"><path
             d="m 0,0 c 0.283,0.951 0.547,1.57 0.85,2.334 l -2.903,-0.01 c 0.131,-0.271 0.576,-1.379 0.867,-2.326 0.313,-1.018 0.524,-1.939 0.602,-2.537 0.072,0.6 0.281,1.523 0.584,2.539"
             style="fill:#231f20;fill-opacity:1;fill-rule:nonzero;stroke:none"
             id="path26" /></g><g
           id="g28"
           transform="translate(328.0332,543.2383)"><path
             d="m 0,0 c -0.951,0.283 -1.57,0.547 -2.334,0.85 l 0.01,-2.903 c 0.271,0.131 1.379,0.576 2.326,0.867 1.018,0.313 1.939,0.524 2.537,0.602 C 1.939,-0.512 1.016,-0.303 0,0"
             style="fill:#231f20;fill-opacity:1;fill-rule:nonzero;stroke:none"
             id="path30" /></g><g
           id="g32"
           transform="translate(389.0146,542.6543)"><path
             d="M 0,0 H -39.428"
             style="fill:none;stroke:#231f20;stroke-width:0.5;stroke-linecap:butt;stroke-linejoin:miter;stroke-miterlimit:4;stroke-dasharray:none;stroke-opacity:1"
             id="path34" /></g><g
           id="g36"
           transform="translate(389.4307,543.2383)"><path
             d="m 0,0 c -0.951,0.283 -1.57,0.547 -2.334,0.85 l 0.01,-2.903 c 0.271,0.131 1.379,0.576 2.326,0.867 1.018,0.313 1.939,0.524 2.537,0.602 C 1.939,-0.512 1.016,-0.303 0,0"
             style="fill:#231f20;fill-opacity:1;fill-rule:nonzero;stroke:none"
             id="path38" /></g><g
           id="g40"
           transform="translate(205.6621,622.0269)"><path
             d="M 0,0 V -23.709"
             style="fill:none;stroke:#231f20;stroke-width:0.5;stroke-linecap:butt;stroke-linejoin:miter;stroke-miterlimit:4;stroke-dasharray:none;stroke-opacity:1"
             id="path42" /></g><g
           id="g44"
           transform="translate(206.2637,556.002)"><path
             d="m 0,0 c 0.283,0.951 0.547,1.57 0.85,2.334 l -2.903,-0.01 c 0.131,-0.271 0.576,-1.379 0.867,-2.326 0.313,-1.018 0.524,-1.939 0.602,-2.537 0.072,0.6 0.281,1.523 0.584,2.539"
             style="fill:#231f20;fill-opacity:1;fill-rule:nonzero;stroke:none"
             id="path46" /></g><g
           id="g48"
           transform="translate(205.6621,581.4922)"><path
             d="M 0,0 V -23.709"
             style="fill:none;stroke:#231f20;stroke-width:0.5;stroke-linecap:butt;stroke-linejoin:miter;stroke-miterlimit:4;stroke-dasharray:none;stroke-opacity:1"
             id="path50" /></g><g
           id="g52"
           transform="translate(339.9873,622.9863)"><path
             d="m 0,0 c 0.283,-0.951 0.547,-1.57 0.85,-2.334 l -2.903,0.01 c 0.131,0.271 0.576,1.379 0.867,2.326 0.313,1.018 0.524,1.939 0.602,2.537 C -0.512,1.939 -0.303,1.016 0,0"
             style="fill:#231f20;fill-opacity:1;fill-rule:nonzero;stroke:none"
             id="path54" /></g><g
           id="g56"
           transform="translate(287.8945,609.042)"><path
             d="M 0,0 H 51.491 V 12.163"
             style="fill:none;stroke:#231f20;stroke-width:0.5;stroke-linecap:butt;stroke-linejoin:miter;stroke-miterlimit:4;stroke-dasharray:none;stroke-opacity:1"
             id="path58" /></g><text
           transform="matrix(1,0,0,-1,332.7876,628.2476)"
           style="font-variant:normal;font-weight:normal;font-stretch:normal;font-size:22.0712px;font-family:Courier;-inkscape-font-specification:Courier;writing-mode:lr-tb;fill:#457c2a;fill-opacity:1;fill-rule:nonzero;stroke:none"
           id="text62"><tspan
             x="0"
             y="0"
             id="tspan60">+</tspan></text><text
           transform="matrix(0.70710678,0.70710678,0.70710678,-0.70710678,205.857,578.5308)"
           style="font-variant:normal;font-weight:normal;font-stretch:normal;font-size:22.0001px;font-family:Courier;-inkscape-font-specification:Courier;writing-mode:lr-tb;fill:#9b69b8;fill-opacity:1;fill-rule:nonzero;stroke:none"
           id="text66"><tspan
             x="0"
             y="0"
             id="tspan64">+</tspan></text><g
           id="g68"
           transform="translate(404.2686,596.5366)"><path
             d="m 0,0 c 0.283,0.951 0.547,1.57 0.85,2.334 l -2.903,-0.01 c 0.131,-0.271 0.576,-1.379 0.867,-2.326 0.313,-1.018 0.524,-1.939 0.602,-2.537 0.072,0.6 0.281,1.523 0.584,2.539"
             style="fill:#231f20;fill-opacity:1;fill-rule:nonzero;stroke:none"
             id="path70" /></g><g
           id="g72"
           transform="translate(403.667,622.0269)"><path
             d="M 0,0 V -23.709"
             style="fill:none;stroke:#231f20;stroke-width:0.5;stroke-linecap:butt;stroke-linejoin:miter;stroke-miterlimit:4;stroke-dasharray:none;stroke-opacity:1"
             id="path74" /></g><g
           id="g76"
           transform="translate(305.0259,589.208)"><path
             d="m 0,0 c 0.283,0.951 0.547,1.57 0.85,2.334 l -2.903,-0.01 c 0.131,-0.271 0.576,-1.379 0.867,-2.326 0.313,-1.018 0.524,-1.939 0.602,-2.537 0.072,0.6 0.281,1.523 0.584,2.539"
             style="fill:#231f20;fill-opacity:1;fill-rule:nonzero;stroke:none"
             id="path78" /></g><g
           id="g80"
           transform="translate(304.4243,608.9614)"><path
             d="M 0,0 V -17.972"
             style="fill:none;stroke:#231f20;stroke-width:0.5;stroke-linecap:butt;stroke-linejoin:miter;stroke-miterlimit:4;stroke-dasharray:none;stroke-opacity:1"
             id="path82" /></g><g
           id="g84"
           transform="translate(339.9873,553.7773)"><path
             d="m 0,0 c 0.283,0.951 0.547,1.57 0.85,2.334 l -2.903,-0.01 c 0.131,-0.271 0.576,-1.379 0.867,-2.326 0.313,-1.018 0.524,-1.939 0.602,-2.537 0.072,0.6 0.281,1.523 0.584,2.539"
             style="fill:#231f20;fill-opacity:1;fill-rule:nonzero;stroke:none"
             id="path86" /></g><g
           id="g88"
           transform="translate(339.3857,567.5313)"><path
             d="M 0,0 V -11.973"
             style="fill:none;stroke:#231f20;stroke-width:0.5;stroke-linecap:butt;stroke-linejoin:miter;stroke-miterlimit:4;stroke-dasharray:none;stroke-opacity:1"
             id="path90" /></g><g
           id="g92"
           transform="translate(404.2686,556.002)"><path
             d="m 0,0 c 0.283,0.951 0.547,1.57 0.85,2.334 l -2.903,-0.01 c 0.131,-0.271 0.576,-1.379 0.867,-2.326 0.313,-1.018 0.524,-1.939 0.602,-2.537 0.072,0.6 0.281,1.523 0.584,2.539"
             style="fill:#231f20;fill-opacity:1;fill-rule:nonzero;stroke:none"
             id="path94" /></g><g
           id="g96"
           transform="translate(403.667,581.4922)"><path
             d="M 0,0 V -23.709"
             style="fill:none;stroke:#231f20;stroke-width:0.5;stroke-linecap:butt;stroke-linejoin:miter;stroke-miterlimit:4;stroke-dasharray:none;stroke-opacity:1"
             id="path98" /></g><text
           transform="matrix(0.70710678,0.70710678,0.70710678,-0.70710678,403.861,578.5308)"
           style="font-variant:normal;font-weight:normal;font-stretch:normal;font-size:22.0001px;font-family:Courier;-inkscape-font-specification:Courier;writing-mode:lr-tb;fill:#9b69b8;fill-opacity:1;fill-rule:nonzero;stroke:none"
           id="text102"><tspan
             x="0"
             y="0"
             id="tspan100">+</tspan></text><g
           id="g104"
           transform="translate(327.4785,635.2598)"><path
             d="M 0,0 H -81.944"
             style="fill:none;stroke:#231f20;stroke-width:0.5;stroke-linecap:butt;stroke-linejoin:miter;stroke-miterlimit:4;stroke-dasharray:none;stroke-opacity:1"
             id="path106" /></g><g
           id="g108"
           transform="translate(327.8945,635.8438)"><path
             d="m 0,0 c -0.951,0.283 -1.57,0.547 -2.334,0.85 l 0.01,-2.903 c 0.271,0.131 1.379,0.576 2.326,0.867 1.018,0.313 1.939,0.524 2.537,0.602 C 1.939,-0.512 1.016,-0.303 0,0"
             style="fill:#231f20;fill-opacity:1;fill-rule:nonzero;stroke:none"
             id="path110" /></g><g
           id="g112"
           transform="translate(241.1582,545.8179)"><path
             d="m 0,0 h -24.951 c -1.639,4.184 -5.737,7.15 -10.545,7.15 -6.252,0 -11.324,-5.013 -11.324,-11.202 0,-0.131 0.015,-0.261 0.021,-0.388 -0.006,-0.131 -0.021,-0.257 -0.021,-0.39 0,-6.184 5.072,-11.203 11.324,-11.203 4.457,0 8.299,2.554 10.148,6.258 h 2.082 c 0.147,1.069 1.227,1.908 2.551,1.908 1.324,0 2.404,-0.839 2.547,-1.908 h 2.293 c 0.146,1.069 1.225,1.908 2.549,1.908 1.324,0 2.404,-0.839 2.549,-1.908 h 2.293 c 0.144,1.069 1.224,1.908 2.548,1.908 1.325,0 2.405,-0.839 2.551,-1.908 h 1.596 l 5.877,6.736 v 0.776 z"
             style="fill:none;stroke:#231f20;stroke-width:1;stroke-linecap:butt;stroke-linejoin:round;stroke-miterlimit:4;stroke-dasharray:none;stroke-opacity:1"
             id="path114" /></g><g
           id="g116"
           transform="translate(245.2461,543.5552)"><path
             d="m 0,0 -29.039,1.487 c -1.639,4.182 -5.736,7.151 -10.545,7.151 -6.252,0 -11.324,-5.016 -11.324,-11.205 0,-6.184 5.072,-11.204 11.324,-11.204 4.457,0 8.299,2.554 10.148,6.258 h 2.082 c 0.147,1.07 1.227,1.909 2.551,1.909 1.324,0 2.405,-0.839 2.547,-1.909 h 2.293 c 0.147,1.07 1.225,1.909 2.549,1.909 1.324,0 2.404,-0.839 2.549,-1.909 h 2.293 c 0.144,1.07 1.224,1.909 2.549,1.909 1.324,0 2.404,-0.839 2.55,-1.909 h 1.596 L 0,-0.776 Z"
             style="fill:#278a2f;fill-opacity:1;fill-rule:nonzero;stroke:none"
             id="path118" /></g><g
           id="g120"
           transform="translate(245.2461,543.5552)"><path
             d="m 0,0 -29.039,1.487 c -1.639,4.182 -5.736,7.151 -10.545,7.151 -6.252,0 -11.324,-5.016 -11.324,-11.205 0,-6.184 5.072,-11.204 11.324,-11.204 4.457,0 8.299,2.554 10.148,6.258 h 2.082 c 0.147,1.07 1.227,1.909 2.551,1.909 1.324,0 2.405,-0.839 2.547,-1.909 h 2.293 c 0.147,1.07 1.225,1.909 2.549,1.909 1.324,0 2.404,-0.839 2.549,-1.909 h 2.293 c 0.144,1.07 1.224,1.909 2.549,1.909 1.324,0 2.404,-0.839 2.55,-1.909 h 1.596 L 0,-0.776 Z"
             style="fill:none;stroke:#278a2f;stroke-width:0.3;stroke-linecap:butt;stroke-linejoin:round;stroke-miterlimit:4;stroke-dasharray:none;stroke-opacity:1"
             id="path122" /></g></g></g><g
       id="g124"><g
         id="g126"><g
           id="g132"><path
             d="m 194.338,541.766 c 0,-6.188 5.072,-11.204 11.324,-11.204 v 0 c 4.457,0 8.299,2.553 10.148,6.256 v 0 h 2.083 c 0.146,1.071 1.226,1.909 2.55,1.909 v 0 c 1.324,0 2.405,-0.838 2.547,-1.909 v 0 h 2.293 c 0.146,1.071 1.224,1.909 2.549,1.909 v 0 c 1.324,0 2.404,-0.838 2.549,-1.909 v 0 h 2.292 c 0.145,1.071 1.225,1.909 2.55,1.909 v 0 c 1.324,0 2.404,-0.838 2.551,-1.909 v 0 h 1.595 l 5.877,6.737 -4.087,2.263 h -24.952 c -1.639,4.184 -5.737,7.15 -10.545,7.15 v 0 c -6.252,0 -11.324,-5.014 -11.324,-11.202"
             style="fill:url(#linearGradient138);stroke:none"
             id="path140" /></g></g></g><g
       id="g142"><g
         id="g144"><g
           id="g150"><path
             d="m 195.246,541.766 c 0,-5.677 4.672,-10.298 10.416,-10.298 v 0 c 3.988,0 7.567,2.205 9.336,5.756 v 0 l 0.25,0.502 h 1.975 c 0.519,1.129 1.778,1.909 3.22,1.909 v 0 c 1.444,0 2.699,-0.78 3.219,-1.909 v 0 h 0.951 c 0.524,1.129 1.779,1.909 3.219,1.909 v 0 c 1.443,0 2.699,-0.78 3.219,-1.909 v 0 h 0.953 c 0.522,1.129 1.779,1.909 3.219,1.909 v 0 c 1.441,0 2.699,-0.78 3.218,-1.909 v 0 h 0.514 l 4.868,5.578 -2.899,1.608 H 215.59 l -0.225,0.574 c -1.568,3.995 -5.377,6.576 -9.703,6.576 v 0 c -5.744,0 -10.416,-4.619 -10.416,-10.296"
             style="fill:url(#linearGradient156);stroke:none"
             id="path158" /></g></g></g><g
       id="g160"><g
         id="g162"
         clip-path="url(#clipPath166)"><g
           id="g168"
           transform="translate(214.6074,541.7661)"><path
             d="m 0,0 c 0,-4.943 -4.004,-8.947 -8.945,-8.947 -4.942,0 -8.948,4.004 -8.948,8.947 0,4.94 4.006,8.945 8.948,8.945 C -4.004,8.945 0,4.94 0,0"
             style="fill:#ffffff;fill-opacity:1;fill-rule:nonzero;stroke:none"
             id="path170" /></g><text
           transform="matrix(1,0,0,-1,197.5615,538.3291)"
           style="font-variant:normal;font-weight:normal;font-stretch:normal;font-size:9.0198px;font-family:Arial;-inkscape-font-specification:ArialMT;writing-mode:lr-tb;fill:#231f20;fill-opacity:1;fill-rule:nonzero;stroke:none"
           id="text174"><tspan
             x="0 6.0162067 11.031216"
             y="0"
             id="tspan172">Pub</tspan></text><g
           id="g176"
           transform="translate(439.1631,545.8179)"><path
             d="m 0,0 h -24.951 c -1.639,4.184 -5.737,7.15 -10.545,7.15 -6.252,0 -11.324,-5.013 -11.324,-11.202 0,-0.131 0.015,-0.261 0.021,-0.388 -0.006,-0.131 -0.021,-0.257 -0.021,-0.39 0,-6.184 5.072,-11.203 11.324,-11.203 4.457,0 8.299,2.554 10.148,6.258 h 2.082 c 0.147,1.069 1.227,1.908 2.551,1.908 1.324,0 2.404,-0.839 2.547,-1.908 h 2.293 c 0.146,1.069 1.225,1.908 2.549,1.908 1.324,0 2.404,-0.839 2.549,-1.908 h 2.293 c 0.144,1.069 1.224,1.908 2.548,1.908 1.325,0 2.405,-0.839 2.551,-1.908 h 1.596 l 5.877,6.736 v 0.776 z"
             style="fill:none;stroke:#231f20;stroke-width:1;stroke-linecap:butt;stroke-linejoin:round;stroke-miterlimit:4;stroke-dasharray:none;stroke-opacity:1"
             id="path178" /></g><g
           id="g180"
           transform="translate(443.251,543.5552)"><path
             d="m 0,0 -29.039,1.487 c -1.639,4.182 -5.736,7.151 -10.545,7.151 -6.252,0 -11.324,-5.016 -11.324,-11.205 0,-6.184 5.072,-11.204 11.324,-11.204 4.457,0 8.299,2.554 10.148,6.258 h 2.082 c 0.147,1.07 1.227,1.909 2.551,1.909 1.324,0 2.405,-0.839 2.547,-1.909 h 2.293 c 0.147,1.07 1.225,1.909 2.549,1.909 1.324,0 2.404,-0.839 2.549,-1.909 h 2.293 c 0.144,1.07 1.224,1.909 2.549,1.909 1.324,0 2.404,-0.839 2.55,-1.909 h 1.596 L 0,-0.776 Z"
             style="fill:#278a2f;fill-opacity:1;fill-rule:nonzero;stroke:none"
             id="path182" /></g><g
           id="g184"
           transform="translate(443.251,543.5552)"><path
             d="m 0,0 -29.039,1.487 c -1.639,4.182 -5.736,7.151 -10.545,7.151 -6.252,0 -11.324,-5.016 -11.324,-11.205 0,-6.184 5.072,-11.204 11.324,-11.204 4.457,0 8.299,2.554 10.148,6.258 h 2.082 c 0.147,1.07 1.227,1.909 2.551,1.909 1.324,0 2.405,-0.839 2.547,-1.909 h 2.293 c 0.147,1.07 1.225,1.909 2.549,1.909 1.324,0 2.404,-0.839 2.549,-1.909 h 2.293 c 0.144,1.07 1.224,1.909 2.549,1.909 1.324,0 2.404,-0.839 2.55,-1.909 h 1.596 L 0,-0.776 Z"
             style="fill:none;stroke:#278a2f;stroke-width:0.3;stroke-linecap:butt;stroke-linejoin:round;stroke-miterlimit:4;stroke-dasharray:none;stroke-opacity:1"
             id="path186" /></g></g></g><g
       id="g188"><g
         id="g190"><g
           id="g196"><path
             d="m 392.342,541.766 c 0,-6.188 5.073,-11.204 11.325,-11.204 v 0 c 4.457,0 8.299,2.553 10.148,6.256 v 0 h 2.082 c 0.147,1.071 1.227,1.909 2.551,1.909 v 0 c 1.325,0 2.405,-0.838 2.547,-1.909 v 0 h 2.293 c 0.147,1.071 1.225,1.909 2.549,1.909 v 0 c 1.324,0 2.405,-0.838 2.549,-1.909 v 0 h 2.293 c 0.144,1.071 1.225,1.909 2.549,1.909 v 0 c 1.323,0 2.404,-0.838 2.55,-1.909 v 0 h 1.596 l 5.877,6.737 -4.088,2.263 h -24.952 c -1.638,4.184 -5.735,7.15 -10.544,7.15 v 0 c -6.252,0 -11.325,-5.014 -11.325,-11.202"
             style="fill:url(#linearGradient202);stroke:none"
             id="path204" /></g></g></g><g
       id="g206"><g
         id="g208"><g
           id="g214"><path
             d="m 393.251,541.766 c 0,-5.677 4.671,-10.298 10.416,-10.298 v 0 c 3.988,0 7.566,2.205 9.336,5.756 v 0 l 0.25,0.502 h 1.975 c 0.519,1.129 1.779,1.909 3.22,1.909 v 0 c 1.443,0 2.7,-0.78 3.219,-1.909 v 0 h 0.951 c 0.523,1.129 1.78,1.909 3.219,1.909 v 0 c 1.443,0 2.699,-0.78 3.219,-1.909 v 0 h 0.953 c 0.521,1.129 1.779,1.909 3.219,1.909 v 0 c 1.44,0 2.699,-0.78 3.218,-1.909 v 0 h 0.514 l 4.867,5.578 -2.898,1.608 h -25.334 l -0.225,0.574 c -1.569,3.995 -5.377,6.576 -9.703,6.576 v 0 c -5.745,0 -10.416,-4.619 -10.416,-10.296"
             style="fill:url(#linearGradient220);stroke:none"
             id="path222" /></g></g></g><g
       id="g224"><g
         id="g226"
         clip-path="url(#clipPath230)"><g
           id="g232"
           transform="translate(412.6123,541.7661)"><path
             d="m 0,0 c 0,-4.943 -4.004,-8.947 -8.945,-8.947 -4.942,0 -8.948,4.004 -8.948,8.947 0,4.94 4.006,8.945 8.948,8.945 C -4.004,8.945 0,4.94 0,0"
             style="fill:#ffffff;fill-opacity:1;fill-rule:nonzero;stroke:none"
             id="path234" /></g><text
           transform="matrix(1,0,0,-1,395.5703,538.3291)"
           style="font-variant:normal;font-weight:normal;font-stretch:normal;font-size:9.0198px;font-family:Arial;-inkscape-font-specification:ArialMT;writing-mode:lr-tb;fill:#231f20;fill-opacity:1;fill-rule:nonzero;stroke:none"
           id="text238"><tspan
             x="0 6.0162067 11.031216"
             y="0"
             id="tspan236">Pub</tspan></text><g
           id="g240"
           transform="translate(374.8818,583.5645)"><path
             d="m 0,0 h -24.951 c -1.639,4.184 -5.737,7.15 -10.545,7.15 -6.252,0 -11.324,-5.013 -11.324,-11.202 0,-0.131 0.015,-0.261 0.021,-0.388 -0.006,-0.131 -0.021,-0.257 -0.021,-0.39 0,-6.184 5.072,-11.203 11.324,-11.203 4.457,0 8.299,2.554 10.148,6.258 h 2.082 c 0.147,1.069 1.227,1.908 2.551,1.908 1.324,0 2.404,-0.839 2.547,-1.908 h 2.293 c 0.146,1.069 1.225,1.908 2.549,1.908 1.324,0 2.404,-0.839 2.549,-1.908 h 2.293 c 0.144,1.069 1.224,1.908 2.548,1.908 1.325,0 2.405,-0.839 2.551,-1.908 h 1.596 l 5.877,6.736 v 0.776 z"
             style="fill:none;stroke:#231f20;stroke-width:1;stroke-linecap:butt;stroke-linejoin:round;stroke-miterlimit:4;stroke-dasharray:none;stroke-opacity:1"
             id="path242" /></g><g
           id="g244"
           transform="translate(378.9697,581.3018)"><path
             d="m 0,0 -29.039,1.487 c -1.639,4.182 -5.736,7.151 -10.545,7.151 -6.252,0 -11.324,-5.016 -11.324,-11.205 0,-6.184 5.072,-11.204 11.324,-11.204 4.457,0 8.299,2.554 10.148,6.258 h 2.082 c 0.147,1.07 1.227,1.909 2.551,1.909 1.324,0 2.405,-0.839 2.547,-1.909 h 2.293 c 0.147,1.07 1.225,1.909 2.549,1.909 1.324,0 2.404,-0.839 2.549,-1.909 h 2.293 c 0.144,1.07 1.224,1.909 2.549,1.909 1.324,0 2.404,-0.839 2.55,-1.909 h 1.596 L 0,-0.776 Z"
             style="fill:#278a2f;fill-opacity:1;fill-rule:nonzero;stroke:none"
             id="path246" /></g><g
           id="g248"
           transform="translate(378.9697,581.3018)"><path
             d="m 0,0 -29.039,1.487 c -1.639,4.182 -5.736,7.151 -10.545,7.151 -6.252,0 -11.324,-5.016 -11.324,-11.205 0,-6.184 5.072,-11.204 11.324,-11.204 4.457,0 8.299,2.554 10.148,6.258 h 2.082 c 0.147,1.07 1.227,1.909 2.551,1.909 1.324,0 2.405,-0.839 2.547,-1.909 h 2.293 c 0.147,1.07 1.225,1.909 2.549,1.909 1.324,0 2.404,-0.839 2.549,-1.909 h 2.293 c 0.144,1.07 1.224,1.909 2.549,1.909 1.324,0 2.404,-0.839 2.55,-1.909 h 1.596 L 0,-0.776 Z"
             style="fill:none;stroke:#278a2f;stroke-width:0.3;stroke-linecap:butt;stroke-linejoin:round;stroke-miterlimit:4;stroke-dasharray:none;stroke-opacity:1"
             id="path250" /></g></g></g><g
       id="g252"><g
         id="g254"><g
           id="g260"><path
             d="m 328.062,579.513 c 0,-6.188 5.072,-11.204 11.323,-11.204 v 0 c 4.458,0 8.299,2.552 10.149,6.256 v 0 h 2.082 c 0.146,1.07 1.227,1.908 2.551,1.908 v 0 c 1.324,0 2.404,-0.838 2.547,-1.908 v 0 h 2.292 c 0.147,1.07 1.225,1.908 2.55,1.908 v 0 c 1.324,0 2.404,-0.838 2.549,-1.908 v 0 h 2.292 c 0.145,1.07 1.225,1.908 2.549,1.908 v 0 c 1.325,0 2.405,-0.838 2.551,-1.908 v 0 h 1.596 l 5.876,6.737 -4.087,2.263 h -24.951 c -1.639,4.183 -5.737,7.15 -10.546,7.15 v 0 c -6.251,0 -11.323,-5.014 -11.323,-11.202"
             style="fill:url(#linearGradient266);stroke:none"
             id="path268" /></g></g></g><g
       id="g270"><g
         id="g272"><g
           id="g278"><path
             d="m 328.97,579.513 c 0,-5.677 4.672,-10.298 10.415,-10.298 v 0 c 3.989,0 7.567,2.205 9.337,5.755 v 0 l 0.249,0.503 h 1.975 c 0.52,1.128 1.779,1.908 3.221,1.908 v 0 c 1.444,0 2.699,-0.78 3.218,-1.908 v 0 h 0.952 c 0.524,1.128 1.779,1.908 3.219,1.908 v 0 c 1.443,0 2.699,-0.78 3.219,-1.908 v 0 h 0.953 c 0.521,1.128 1.779,1.908 3.218,1.908 v 0 c 1.442,0 2.699,-0.78 3.219,-1.908 v 0 h 0.513 l 4.868,5.578 -2.899,1.608 h -25.334 l -0.224,0.574 c -1.568,3.994 -5.377,6.576 -9.704,6.576 v 0 c -5.743,0 -10.415,-4.62 -10.415,-10.296"
             style="fill:url(#linearGradient284);stroke:none"
             id="path286" /></g></g></g><g
       id="g288"><g
         id="g290"
         clip-path="url(#clipPath294)"><g
           id="g296"
           transform="translate(348.3311,579.5127)"><path
             d="m 0,0 c 0,-4.943 -4.004,-8.947 -8.945,-8.947 -4.942,0 -8.948,4.004 -8.948,8.947 0,4.94 4.006,8.945 8.948,8.945 C -4.004,8.945 0,4.94 0,0"
             style="fill:#ffffff;fill-opacity:1;fill-rule:nonzero;stroke:none"
             id="path298" /></g><text
           transform="matrix(1,0,0,-1,331.292,576.0762)"
           style="font-variant:normal;font-weight:normal;font-stretch:normal;font-size:9.0198px;font-family:Arial;-inkscape-font-specification:ArialMT;writing-mode:lr-tb;fill:#231f20;fill-opacity:1;fill-rule:nonzero;stroke:none"
           id="text302"><tspan
             x="0 6.0162067 11.031216"
             y="0"
             id="tspan300">Pub</tspan></text><text
           transform="matrix(1,0,0,-1,150.7271,517.084)"
           style="font-variant:normal;font-weight:bold;font-stretch:condensed;font-size:9px;font-family:'Humanst521 Cn BT';-inkscape-font-specification:Humanist521BT-BoldCondensed;writing-mode:lr-tb;fill:#231f20;fill-opacity:1;fill-rule:nonzero;stroke:none"
           id="text310"><tspan
             x="0 3.96 8.4689999 12.429 16.028999 18.162001 22.212"
             y="0"
             id="tspan304">Special</tspan><tspan
             x="0 4.1040001 8.6129999 13.095 17.604 19.764 21.896999 25.497 27.801001 31.986 35.945999"
             y="9.5039997"
             id="tspan306">“public key</tspan><tspan
             x="0 6.7410002 11.223 13.383 16.379999 18.513 23.021999 25.181999 27.315001 30.915001 34.965 37.962002 40.095001 44.442001 48.762001"
             y="19.007999"
             id="tspan308">multiplication”</tspan></text><g
           id="g312"
           transform="translate(241.1641,638.4253)"><path
             d="m 0,0 h -24.951 c -1.643,4.182 -5.738,7.15 -10.551,7.15 -6.25,0 -11.32,-5.013 -11.32,-11.203 0,-0.131 0.015,-0.26 0.019,-0.386 -0.004,-0.131 -0.019,-0.26 -0.019,-0.391 0,-6.186 5.07,-11.205 11.32,-11.205 4.459,0 8.307,2.555 10.152,6.256 h 2.082 c 0.149,1.074 1.227,1.912 2.553,1.912 1.322,0 2.401,-0.838 2.551,-1.912 h 2.289 c 0.145,1.074 1.223,1.912 2.551,1.912 1.32,0 2.406,-0.838 2.549,-1.912 h 2.291 c 0.146,1.074 1.226,1.912 2.55,1.912 1.329,0 2.405,-0.838 2.547,-1.912 h 1.598 l 5.877,6.738 v 0.777 z"
             style="fill:none;stroke:#231f20;stroke-width:1;stroke-linecap:butt;stroke-linejoin:round;stroke-miterlimit:4;stroke-dasharray:none;stroke-opacity:1"
             id="path314" /></g><g
           id="g316"
           transform="translate(245.252,636.1616)"><path
             d="m 0,0 -29.039,1.486 c -1.643,4.186 -5.738,7.153 -10.551,7.153 -6.25,0 -11.32,-5.016 -11.32,-11.205 0,-6.186 5.07,-11.205 11.32,-11.205 4.459,0 8.307,2.554 10.152,6.255 h 2.083 c 0.148,1.075 1.226,1.912 2.552,1.912 1.323,0 2.401,-0.837 2.551,-1.912 h 2.289 c 0.145,1.075 1.223,1.912 2.551,1.912 1.32,0 2.406,-0.837 2.549,-1.912 h 2.291 c 0.146,1.075 1.226,1.912 2.551,1.912 1.328,0 2.404,-0.837 2.546,-1.912 h 1.598 L 0,-0.777 Z"
             style="fill:#a21217;fill-opacity:1;fill-rule:nonzero;stroke:none"
             id="path318" /></g><g
           id="g320"
           transform="translate(245.252,636.1616)"><path
             d="m 0,0 -29.039,1.486 c -1.643,4.186 -5.738,7.153 -10.551,7.153 -6.25,0 -11.32,-5.016 -11.32,-11.205 0,-6.186 5.07,-11.205 11.32,-11.205 4.459,0 8.307,2.554 10.152,6.255 h 2.083 c 0.148,1.075 1.226,1.912 2.552,1.912 1.323,0 2.401,-0.837 2.551,-1.912 h 2.289 c 0.145,1.075 1.223,1.912 2.551,1.912 1.32,0 2.406,-0.837 2.549,-1.912 h 2.291 c 0.146,1.075 1.226,1.912 2.551,1.912 1.328,0 2.404,-0.837 2.546,-1.912 h 1.598 L 0,-0.777 Z"
             style="fill:none;stroke:#a21217;stroke-width:0.3;stroke-linecap:butt;stroke-linejoin:round;stroke-miterlimit:4;stroke-dasharray:none;stroke-opacity:1"
             id="path322" /></g></g></g><g
       id="g324"><g
         id="g326"><g
           id="g332"><path
             d="m 194.341,634.372 c 0,-6.187 5.071,-11.203 11.321,-11.203 v 0 c 4.459,0 8.307,2.553 10.153,6.259 v 0 h 2.081 c 0.149,1.068 1.227,1.906 2.554,1.906 v 0 c 1.322,0 2.4,-0.838 2.55,-1.906 v 0 h 2.289 c 0.145,1.068 1.223,1.906 2.55,1.906 v 0 c 1.321,0 2.407,-0.838 2.549,-1.906 v 0 h 2.292 c 0.146,1.068 1.226,1.906 2.55,1.906 v 0 c 1.329,0 2.405,-0.838 2.547,-1.906 v 0 h 1.598 l 5.877,6.733 -4.088,2.264 h -24.951 c -1.643,4.182 -5.738,7.15 -10.551,7.15 v 0 c -6.25,0 -11.321,-5.013 -11.321,-11.203"
             style="fill:url(#linearGradient340);stroke:none"
             id="path342" /></g></g></g><g
       id="g344"><g
         id="g346"><g
           id="g352"><path
             d="m 195.248,634.372 c 0,-5.677 4.672,-10.297 10.414,-10.297 v 0 c 3.994,0 7.569,2.205 9.34,5.757 v 0 l 0.25,0.502 h 1.975 c 0.521,1.127 1.777,1.906 3.223,1.906 v 0 c 1.441,0 2.699,-0.779 3.214,-1.906 v 0 h 0.953 c 0.523,1.127 1.78,1.906 3.222,1.906 v 0 c 1.444,0 2.698,-0.779 3.218,-1.906 v 0 h 0.955 c 0.517,1.127 1.781,1.906 3.218,1.906 v 0 c 1.442,0 2.699,-0.779 3.221,-1.906 v 0 h 0.51 l 4.871,5.575 -2.905,1.608 h -25.331 l -0.229,0.578 c -1.568,3.995 -5.373,6.574 -9.705,6.574 v 0 c -5.742,0 -10.414,-4.617 -10.414,-10.297"
             style="fill:url(#linearGradient358);stroke:none"
             id="path360" /></g></g></g><g
       id="g362"><g
         id="g364"
         clip-path="url(#clipPath368)"><g
           id="g370"
           transform="translate(214.6094,634.3726)"><path
             d="m 0,0 c 0,-4.941 -4.002,-8.947 -8.947,-8.947 -4.938,0 -8.942,4.006 -8.942,8.947 0,4.941 4.004,8.947 8.942,8.947 C -4.002,8.947 0,4.941 0,0"
             style="fill:#ffffff;fill-opacity:1;fill-rule:nonzero;stroke:none"
             id="path372" /></g><text
           transform="matrix(1,0,0,-1,197.8198,630.9443)"
           style="font-variant:normal;font-weight:normal;font-stretch:normal;font-size:9.0204px;font-family:Arial;-inkscape-font-specification:ArialMT;writing-mode:lr-tb;fill:#231f20;fill-opacity:1;fill-rule:nonzero;stroke:none"
           id="text376"><tspan
             x="0 6.0166068 9.0204 11.022929"
             y="0"
             id="tspan374">Priv</tspan></text><text
           transform="matrix(1,0,0,-1,233.1348,620.1426)"
           style="font-variant:normal;font-weight:normal;font-stretch:normal;font-size:8px;font-family:Arial;-inkscape-font-specification:ArialMT;writing-mode:lr-tb;fill:#231f20;fill-opacity:1;fill-rule:nonzero;stroke:none"
           id="text382"><tspan
             x="0"
             y="0"
             id="tspan378">p</tspan><tspan
             x="57.208"
             y="2.6240001"
             id="tspan380">h</tspan></text><g
           id="g384"
           transform="translate(439.1689,638.4253)"><path
             d="m 0,0 h -24.951 c -1.643,4.182 -5.738,7.15 -10.551,7.15 -6.25,0 -11.32,-5.013 -11.32,-11.203 0,-0.131 0.015,-0.26 0.019,-0.386 -0.004,-0.131 -0.019,-0.26 -0.019,-0.391 0,-6.186 5.07,-11.205 11.32,-11.205 4.459,0 8.307,2.555 10.152,6.256 h 2.082 c 0.149,1.074 1.227,1.912 2.553,1.912 1.322,0 2.401,-0.838 2.551,-1.912 h 2.289 c 0.145,1.074 1.223,1.912 2.551,1.912 1.32,0 2.406,-0.838 2.549,-1.912 h 2.291 c 0.146,1.074 1.226,1.912 2.55,1.912 1.329,0 2.405,-0.838 2.547,-1.912 h 1.598 l 5.877,6.738 v 0.777 z"
             style="fill:none;stroke:#231f20;stroke-width:1;stroke-linecap:butt;stroke-linejoin:round;stroke-miterlimit:4;stroke-dasharray:none;stroke-opacity:1"
             id="path386" /></g><g
           id="g388"
           transform="translate(443.2568,636.1616)"><path
             d="m 0,0 -29.039,1.486 c -1.643,4.186 -5.738,7.153 -10.551,7.153 -6.25,0 -11.32,-5.016 -11.32,-11.205 0,-6.186 5.07,-11.205 11.32,-11.205 4.459,0 8.307,2.554 10.152,6.255 h 2.083 c 0.148,1.075 1.226,1.912 2.552,1.912 1.323,0 2.401,-0.837 2.551,-1.912 h 2.289 c 0.145,1.075 1.223,1.912 2.551,1.912 1.32,0 2.406,-0.837 2.549,-1.912 h 2.291 c 0.146,1.075 1.226,1.912 2.551,1.912 1.328,0 2.404,-0.837 2.546,-1.912 h 1.598 L 0,-0.777 Z"
             style="fill:#a21217;fill-opacity:1;fill-rule:nonzero;stroke:none"
             id="path390" /></g><g
           id="g392"
           transform="translate(443.2568,636.1616)"><path
             d="m 0,0 -29.039,1.486 c -1.643,4.186 -5.738,7.153 -10.551,7.153 -6.25,0 -11.32,-5.016 -11.32,-11.205 0,-6.186 5.07,-11.205 11.32,-11.205 4.459,0 8.307,2.554 10.152,6.255 h 2.083 c 0.148,1.075 1.226,1.912 2.552,1.912 1.323,0 2.401,-0.837 2.551,-1.912 h 2.289 c 0.145,1.075 1.223,1.912 2.551,1.912 1.32,0 2.406,-0.837 2.549,-1.912 h 2.291 c 0.146,1.075 1.226,1.912 2.551,1.912 1.328,0 2.404,-0.837 2.546,-1.912 h 1.598 L 0,-0.777 Z"
             style="fill:none;stroke:#a21217;stroke-width:0.3;stroke-linecap:butt;stroke-linejoin:round;stroke-miterlimit:4;stroke-dasharray:none;stroke-opacity:1"
             id="path394" /></g></g></g><g
       id="g396"><g
         id="g398"><g
           id="g404"><path
             d="m 392.347,634.372 c 0,-6.187 5.07,-11.203 11.32,-11.203 v 0 c 4.459,0 8.306,2.553 10.152,6.259 v 0 h 2.083 c 0.148,1.068 1.226,1.906 2.552,1.906 v 0 c 1.322,0 2.4,-0.838 2.551,-1.906 v 0 h 2.289 c 0.144,1.068 1.223,1.906 2.551,1.906 v 0 c 1.32,0 2.406,-0.838 2.549,-1.906 v 0 h 2.29 c 0.147,1.068 1.227,1.906 2.552,1.906 v 0 c 1.327,0 2.404,-0.838 2.546,-1.906 v 0 h 1.598 l 5.877,6.733 -4.089,2.264 h -24.95 c -1.643,4.182 -5.739,7.15 -10.551,7.15 v 0 c -6.25,0 -11.32,-5.013 -11.32,-11.203"
             style="fill:url(#linearGradient412);stroke:none"
             id="path414" /></g></g></g><g
       id="g416"><g
         id="g418"><g
           id="g424"><path
             d="m 393.253,634.372 c 0,-5.677 4.672,-10.297 10.414,-10.297 v 0 c 3.994,0 7.568,2.205 9.339,5.757 v 0 l 0.251,0.502 h 1.974 c 0.522,1.127 1.778,1.906 3.223,1.906 v 0 c 1.442,0 2.699,-0.779 3.215,-1.906 v 0 h 0.953 c 0.524,1.127 1.779,1.906 3.223,1.906 v 0 c 1.443,0 2.697,-0.779 3.216,-1.906 v 0 h 0.955 c 0.518,1.127 1.781,1.906 3.22,1.906 v 0 c 1.441,0 2.699,-0.779 3.22,-1.906 v 0 h 0.51 l 4.871,5.575 -2.904,1.608 H 413.6 l -0.228,0.578 c -1.568,3.995 -5.373,6.574 -9.705,6.574 v 0 c -5.742,0 -10.414,-4.617 -10.414,-10.297"
             style="fill:url(#linearGradient430);stroke:none"
             id="path432" /></g></g></g><g
       id="g434"><g
         id="g436"
         clip-path="url(#clipPath440)"><g
           id="g442"
           transform="translate(412.6143,634.3726)"><path
             d="m 0,0 c 0,-4.941 -4.002,-8.947 -8.947,-8.947 -4.938,0 -8.942,4.006 -8.942,8.947 0,4.941 4.004,8.947 8.942,8.947 C -4.002,8.947 0,4.941 0,0"
             style="fill:#ffffff;fill-opacity:1;fill-rule:nonzero;stroke:none"
             id="path444" /></g><text
           transform="matrix(1,0,0,-1,395.8242,630.9443)"
           style="font-variant:normal;font-weight:normal;font-stretch:normal;font-size:9.0204px;font-family:Arial;-inkscape-font-specification:ArialMT;writing-mode:lr-tb;fill:#231f20;fill-opacity:1;fill-rule:nonzero;stroke:none"
           id="text448"><tspan
             x="0 6.0166068 9.0204 11.022929"
             y="0"
             id="tspan446">Priv</tspan></text><text
           transform="matrix(1,0,0,-1,431.1392,620.1426)"
           style="font-variant:normal;font-weight:normal;font-stretch:normal;font-size:8px;font-family:Arial;-inkscape-font-specification:ArialMT;writing-mode:lr-tb;fill:#231f20;fill-opacity:1;fill-rule:nonzero;stroke:none"
           id="text454"><tspan
             x="0"
             y="0"
             id="tspan450">c</tspan><tspan
             x="-198.008 -0.079999998"
             y="93.575996"
             id="tspan452">PC</tspan></text><g
           id="g456"
           transform="translate(389.0146,635.2598)"><path
             d="M 0,0 H -39.566"
             style="fill:none;stroke:#231f20;stroke-width:0.5;stroke-linecap:butt;stroke-linejoin:miter;stroke-miterlimit:4;stroke-dasharray:none;stroke-opacity:1"
             id="path458" /></g><g
           id="g460"
           transform="translate(389.4307,635.8438)"><path
             d="m 0,0 c -0.951,0.283 -1.57,0.547 -2.334,0.85 l 0.01,-2.903 c 0.271,0.131 1.379,0.576 2.326,0.867 1.018,0.313 1.939,0.524 2.537,0.602 C 1.939,-0.512 1.016,-0.303 0,0"
             style="fill:#231f20;fill-opacity:1;fill-rule:nonzero;stroke:none"
             id="path462" /></g><text
           transform="matrix(1,0,0,-1,332.9482,535.9209)"
           style="font-variant:normal;font-weight:normal;font-stretch:normal;font-size:22px;font-family:Courier;-inkscape-font-specification:Courier;writing-mode:lr-tb;fill:#9b69b8;fill-opacity:1;fill-rule:nonzero;stroke:none"
           id="text466"><tspan
             x="0"
             y="0"
             id="tspan464">+</tspan></text><text
           transform="matrix(1,0,0,-1,166.7251,582.001)"
           style="font-variant:normal;font-weight:normal;font-stretch:normal;font-size:21px;font-family:Courier;-inkscape-font-specification:Courier;writing-mode:lr-tb;fill:#231f20;fill-opacity:1;fill-rule:nonzero;stroke:none"
           id="text470"><tspan
             x="0 264.55801"
             y="0"
             id="tspan468">GG</tspan></text><g
           id="g472"
           transform="translate(195.7651,588.0127)"><path
             d="M 0,0 H -12.521"
             style="fill:none;stroke:#231f20;stroke-width:0.5;stroke-linecap:butt;stroke-linejoin:miter;stroke-miterlimit:4;stroke-dasharray:none;stroke-opacity:1"
             id="path474" /></g><g
           id="g476"
           transform="translate(196.1812,588.5967)"><path
             d="m 0,0 c -0.951,0.283 -1.57,0.547 -2.334,0.85 l 0.01,-2.903 c 0.271,0.131 1.379,0.576 2.326,0.867 1.018,0.313 1.939,0.524 2.537,0.602 C 1.939,-0.512 1.016,-0.303 0,0"
             style="fill:#231f20;fill-opacity:1;fill-rule:nonzero;stroke:none"
             id="path478" /></g><text
           transform="matrix(0.70710678,0.70710678,0.70710678,-0.70710678,304.3571,570.0308)"
           style="font-variant:normal;font-weight:normal;font-stretch:normal;font-size:22.0001px;font-family:Courier;-inkscape-font-specification:Courier;writing-mode:lr-tb;fill:#9b69b8;fill-opacity:1;fill-rule:nonzero;stroke:none"
           id="text482"><tspan
             x="0"
             y="0"
             id="tspan480">+</tspan></text><text
           transform="matrix(1,0,0,-1,265.2251,573.501)"
           style="font-variant:normal;font-weight:normal;font-stretch:normal;font-size:21px;font-family:Courier;-inkscape-font-specification:Courier;writing-mode:lr-tb;fill:#231f20;fill-opacity:1;fill-rule:nonzero;stroke:none"
           id="text486"><tspan
             x="0"
             y="0"
             id="tspan484">G</tspan></text><g
           id="g488"
           transform="translate(294.2651,579.5127)"><path
             d="M 0,0 H -12.521"
             style="fill:none;stroke:#231f20;stroke-width:0.5;stroke-linecap:butt;stroke-linejoin:miter;stroke-miterlimit:4;stroke-dasharray:none;stroke-opacity:1"
             id="path490" /></g><g
           id="g492"
           transform="translate(294.6812,580.0967)"><path
             d="m 0,0 c -0.951,0.283 -1.57,0.547 -2.334,0.85 l 0.01,-2.903 c 0.271,0.131 1.379,0.576 2.326,0.867 1.018,0.313 1.939,0.524 2.537,0.602 C 1.939,-0.512 1.016,-0.303 0,0"
             style="fill:#231f20;fill-opacity:1;fill-rule:nonzero;stroke:none"
             id="path494" /></g><g
           id="g496"
           transform="translate(324.6875,579.5127)"><path
             d="M 0,0 H -12.521"
             style="fill:none;stroke:#231f20;stroke-width:0.5;stroke-linecap:butt;stroke-linejoin:miter;stroke-miterlimit:4;stroke-dasharray:none;stroke-opacity:1"
             id="path498" /></g><g
           id="g500"
           transform="translate(325.1035,580.0967)"><path
             d="m 0,0 c -0.951,0.283 -1.57,0.547 -2.334,0.85 l 0.01,-2.903 c 0.271,0.131 1.379,0.576 2.326,0.867 1.018,0.313 1.939,0.524 2.537,0.602 C 1.939,-0.512 1.016,-0.303 0,0"
             style="fill:#231f20;fill-opacity:1;fill-rule:nonzero;stroke:none"
             id="path502" /></g><g
           id="g504"
           transform="translate(414.958,588.0127)"><path
             d="M 0,0 H 12.521"
             style="fill:none;stroke:#231f20;stroke-width:0.5;stroke-linecap:butt;stroke-linejoin:miter;stroke-miterlimit:4;stroke-dasharray:none;stroke-opacity:1"
             id="path506" /></g><g
           id="g508"
           transform="translate(414.542,588.5967)"><path
             d="m 0,0 c 0.951,0.283 1.57,0.547 2.334,0.85 l -0.01,-2.903 c -0.271,0.131 -1.379,0.576 -2.326,0.867 -1.018,0.313 -1.939,0.524 -2.537,0.602 0.6,0.072 1.523,0.281 2.539,0.584"
             style="fill:#231f20;fill-opacity:1;fill-rule:nonzero;stroke:none"
             id="path510" /></g><text
           transform="matrix(1,0,0,-1,340.5601,665.543)"
           style="font-variant:normal;font-weight:bold;font-stretch:condensed;font-size:9px;font-family:'Humanst521 Cn BT';-inkscape-font-specification:Humanist521BT-BoldCondensed;writing-mode:lr-tb;fill:#231f20;fill-opacity:1;fill-rule:nonzero;stroke:none"
           id="text522"><tspan
             x="0 5.2379999 9.585 12.978 19.719 23.768999"
             y="0"
             id="tspan512">Normal</tspan><tspan
             x="0 4.0500002 8.559 13.068 15.201 18.198 20.330999 24.677999"
             y="9.5039997"
             id="tspan514">addition</tspan><tspan
             x="-123.498 -119.448 -114.957 -110.997 -108.693 -106.533 -102.573 -100.098 -97.100998 -94.796997 -90.747002 -86.688004 -82.233002 -79.929001 -75.419998 -73.287003 -70.290001 -66.789001 -64.485001 -60.138 -57.825001 -55.521 -52.523998 -48.033001 -44.073002 -41.769001 -37.278 -33.228001 -29.726999"
             y="-9.4949999"
             id="tspan516">The left 256 bits of the hash</tspan><tspan
             x="-123.498 -119.448 -116.055 -112.095 -109.791 -105.309 -101.808 -97.848 -93.338997 -91.035004 -88.722 -84.375 -80.982002 -78.678001 -74.168999 -69.821999 -66.824997 -62.334 -60.029999 -55.521 -52.127998 -49.994999 -46.269001 -42.219002 -39.222 -35.262001 -32.958 -28.908001 -24.426001"
             y="0.0089999996"
             id="tspan518">are used for both private and</tspan><tspan
             x="-123.498 -118.989 -114.507 -109.998 -107.838 -105.705 -102.105 -99.801003 -96.200996 -91.709999 -89.577003 -87.417 -82.907997 -80.603996 -76.418999 -72.459 -68.688004 -66.384003 -61.875 -57.915001 -54.521999 -52.389 -48.662998 -44.612999 -41.616001 -39.483002 -35.136002 -30.653999"
             y="9.5129995"
             id="tspan520">public child key derivation.</tspan></text><g
           id="g524"
           transform="translate(347.8193,641.6885)"><path
             d="M 0,0 C 4.998,3.025 6.941,6.766 6.941,12.433"
             style="fill:none;stroke:#231f20;stroke-width:0.3;stroke-linecap:butt;stroke-linejoin:miter;stroke-miterlimit:10;stroke-dasharray:none;stroke-opacity:1"
             id="path526" /></g><g
           id="g528"
           transform="translate(349.251,640.3813)"><path
             d="m 0,0 -3.738,-0.078 1.802,3.277 z"
             style="fill:#231f20;fill-opacity:1;fill-rule:nonzero;stroke:none"
             id="path530" /></g><text
           transform="matrix(1,0,0,-1,150.7271,634.293)"
           style="font-variant:normal;font-weight:bold;font-stretch:condensed;font-size:9px;font-family:'Humanst521 Cn BT';-inkscape-font-specification:Humanist521BT-BoldCondensed;writing-mode:lr-tb;fill:#231f20;fill-opacity:1;fill-rule:nonzero;stroke:none"
           id="text538"><tspan
             x="0 3.96 6.9569998 11.007 14.4 17.396999 19.530001 24.011999"
             y="0"
             id="tspan532">Starting</tspan><tspan
             x="0 4.5089998 8.8559999 10.989 15.471 18.468 20.771999 25.118999"
             y="9.5039997"
             id="tspan534">point on</tspan><tspan
             x="0 3.5999999 8.0819998 11.799 15.525"
             y="19.007999"
             id="tspan536">curve</tspan></text><g
           id="g540"
           transform="translate(171.75,599.5)"><path
             d="M 0,0 C -2.25,6.5 -7.083,6.75 -7.322,12.622"
             style="fill:none;stroke:#231f20;stroke-width:0.3;stroke-linecap:butt;stroke-linejoin:miter;stroke-miterlimit:10;stroke-dasharray:none;stroke-opacity:1"
             id="path542" /></g><g
           id="g544"
           transform="translate(173.3281,600.625)"><path
             d="m 0,0 -0.708,-3.671 -2.826,2.448 z"
             style="fill:#231f20;fill-opacity:1;fill-rule:nonzero;stroke:none"
             id="path546" /></g><g
           id="g548"
           transform="translate(196.4971,581.0146)"><path
             d="M 0,0 C -15.261,-14.072 -23.585,-33.296 -23.585,-55.098"
             style="fill:none;stroke:#231f20;stroke-width:0.3;stroke-linecap:butt;stroke-linejoin:miter;stroke-miterlimit:10;stroke-dasharray:none;stroke-opacity:1"
             id="path550" /></g><g
           id="g552"
           transform="translate(194.8345,582.0107)"><path
             d="M 0,0 3.648,0.821 2.535,-2.749 Z"
             style="fill:#231f20;fill-opacity:1;fill-rule:nonzero;stroke:none"
             id="path554" /></g><text
           transform="matrix(1,0,0,-1,278.1484,517.084)"
           style="font-variant:normal;font-weight:bold;font-stretch:condensed;font-size:9px;font-family:'Humanst521 Cn BT';-inkscape-font-specification:Humanist521BT-BoldCondensed;writing-mode:lr-tb;fill:#231f20;fill-opacity:1;fill-rule:nonzero;stroke:none"
           id="text568"><tspan
             x="0 4.1040001 8.7299995 13.212 17.721001 19.881001 22.014 25.614 27.917999 32.103001 36.063 40.338001"
             y="0"
             id="tspan556">“Public key”</tspan><tspan
             x="0 4.5089998 8.4689999 11.862 13.995 17.721001 21.681 26.190001 28.493999 30.806999 34.200001 38.547001"
             y="9.5039997"
             id="tspan558">derived from</tspan><tspan
             x="0 2.1600001 6.1199999 8.5950003 11.592 14.391 18.882 22.931999 25.091999 27.405001 29.709 34.200001 38.25 41.759998"
             y="19.007999"
             id="tspan560">left-half hash</tspan><tspan
             x="68.084999 72.044998 76.554001 80.514 84.113998 86.247002 90.296997"
             y="0.0089999996"
             id="tspan562">Special</tspan><tspan
             x="68.084999 72.189003 76.697998 81.18 85.689003 87.848999 89.982002 93.582001 95.886002 100.071 104.031"
             y="9.5129995"
             id="tspan564">“public key</tspan><tspan
             x="68.084999 72.135002 76.643997 81.153 83.286003 86.282997 88.416 92.763 97.083"
             y="19.017"
             id="tspan566">addition”</tspan></text><g
           id="g570"
           transform="translate(324.5,569.75)"><path
             d="M 0,0 C -15.5,-10 -24.167,-28.608 -24.167,-43.833"
             style="fill:none;stroke:#231f20;stroke-width:0.3;stroke-linecap:butt;stroke-linejoin:miter;stroke-miterlimit:10;stroke-dasharray:none;stroke-opacity:1"
             id="path572" /></g><g
           id="g574"
           transform="translate(323.0322,571.0156)"><path
             d="M 0,0 3.734,0.185 2.027,-3.142 Z"
             style="fill:#231f20;fill-opacity:1;fill-rule:nonzero;stroke:none"
             id="path576" /></g><g
           id="g578"
           transform="translate(348.25,538)"><path
             d="M 0,0 C 6.25,-2 11.25,-8.737 11.25,-12.75"
             style="fill:none;stroke:#231f20;stroke-width:0.3;stroke-linecap:butt;stroke-linejoin:miter;stroke-miterlimit:10;stroke-dasharray:none;stroke-opacity:1"
             id="path580" /></g><g
           id="g582"
           transform="translate(348.2041,536.0625)"><path
             d="M 0,0 -2.514,2.768 1.14,3.562 Z"
             style="fill:#231f20;fill-opacity:1;fill-rule:nonzero;stroke:none"
             id="path584" /></g><g
           id="g586"
           transform="translate(271.0005,625.418)"><path
             d="M 0,0 C 0,11.955 -5.312,17.458 -5.312,27.755"
             style="fill:none;stroke:#231f20;stroke-width:0.3;stroke-linecap:butt;stroke-linejoin:miter;stroke-miterlimit:10;stroke-dasharray:none;stroke-opacity:1"
             id="path588" /></g><g
           id="g590"
           transform="translate(272.8599,625.9648)"><path
             d="M 0,0 -1.87,-3.238 -3.739,0 Z"
             style="fill:#231f20;fill-opacity:1;fill-rule:nonzero;stroke:none"
             id="path592" /></g><g
           id="g594"
           transform="translate(286.1396,605.7163)"><path
             d="m 0,0 c -5.29,-0.34 -9.901,0.894 -14.047,1.998 -5.557,1.488 -10.815,2.895 -19.22,0.766 l -5.645,5.217 c 10.566,2.67 18.199,0.628 24.348,-1.01 4.558,-1.222 7.859,-2.099 12.393,-1.292 1.711,0.303 3.006,0.695 4.055,1.153 L 1.157,5.211 1.825,4.378 1.907,2.961 1.657,0.461 Z"
             style="fill:#f8a45c;fill-opacity:1;fill-rule:nonzero;stroke:none"
             id="path596" /></g><g
           id="g598"
           transform="translate(286.1396,605.7163)"><path
             d="m 0,0 c -5.29,-0.34 -9.901,0.894 -14.047,1.998 -5.557,1.488 -10.815,2.895 -19.22,0.766 l -5.645,5.217 c 10.566,2.67 18.199,0.628 24.348,-1.01 4.558,-1.222 7.859,-2.099 12.393,-1.292 1.711,0.303 3.006,0.695 4.055,1.153 L 1.157,5.211 1.825,4.378 1.907,2.961 1.657,0.461 Z"
             style="fill:none;stroke:#231f20;stroke-width:0.3;stroke-linecap:butt;stroke-linejoin:miter;stroke-miterlimit:4;stroke-dasharray:none;stroke-opacity:1"
             id="path600" /></g><g
           id="g602"
           transform="translate(285.8262,602.0503)"><path
             d="m 0,0 c -0.925,0.23 -1.826,0.472 -2.707,0.707 -5.556,1.486 -10.815,2.887 -19.218,0.76 l -5.65,5.221 c 10.562,2.674 18.207,0.63 24.348,-1.007 1.356,-0.365 2.601,-0.699 3.799,-0.967 0,0 1.317,-0.504 2.067,-0.837 L 1.471,3.211 1.639,2.127 0.971,1.044 l 1.5,-0.75 z"
             style="fill:#f8a45c;fill-opacity:1;fill-rule:nonzero;stroke:none"
             id="path604" /></g><g
           id="g606"
           transform="translate(285.8262,602.0503)"><path
             d="m 0,0 c -0.925,0.23 -1.826,0.472 -2.707,0.707 -5.556,1.486 -10.815,2.887 -19.218,0.76 l -5.65,5.221 c 10.562,2.674 18.207,0.63 24.348,-1.007 1.356,-0.365 2.601,-0.699 3.799,-0.967 0,0 1.317,-0.504 2.067,-0.837 L 1.471,3.211 1.639,2.127 0.971,1.044 l 1.5,-0.75 z"
             style="fill:none;stroke:#231f20;stroke-width:0.3;stroke-linecap:butt;stroke-linejoin:miter;stroke-miterlimit:4;stroke-dasharray:none;stroke-opacity:1"
             id="path608" /></g><g
           id="g610"
           transform="translate(286.7148,595.6777)"><path
             d="m 0,0 c -2.352,0.404 -3.948,0.988 -6.038,1.547 -5.557,1.487 -10.813,2.888 -19.221,0.761 l -5.646,5.217 c 10.56,2.68 18.207,0.632 24.353,-1.008 C -3.907,5.811 -1.685,5.216 0.602,5 l -1.77,-1.75 0.334,-1.5 z"
             style="fill:#f8a45c;fill-opacity:1;fill-rule:nonzero;stroke:none"
             id="path612" /></g><g
           id="g614"
           transform="translate(286.7148,595.6777)"><path
             d="m 0,0 c -2.352,0.404 -3.948,0.988 -6.038,1.547 -5.557,1.487 -10.813,2.888 -19.221,0.761 l -5.646,5.217 c 10.56,2.68 18.207,0.632 24.353,-1.008 C -3.907,5.811 -1.685,5.216 0.602,5 l -1.77,-1.75 0.334,-1.5 z"
             style="fill:none;stroke:#231f20;stroke-width:0.3;stroke-linecap:butt;stroke-linejoin:miter;stroke-miterlimit:4;stroke-dasharray:none;stroke-opacity:1"
             id="path616" /></g><g
           id="g618"
           transform="translate(286.0205,594.9507)"><path
             d="m 0,0 c -3.749,1.155 -7.952,1.805 -13.875,0.98 l -4.768,5.782 C -10.188,7.936 -3.924,6.486 1.182,4.711 L 0.694,3.894 1.61,2.644 1.36,0.144 Z"
             style="fill:#f8a45c;fill-opacity:1;fill-rule:nonzero;stroke:none"
             id="path620" /></g><g
           id="g622"
           transform="translate(286.0205,594.9507)"><path
             d="m 0,0 c -3.749,1.155 -7.952,1.805 -13.875,0.98 l -4.768,5.782 C -10.188,7.936 -3.924,6.486 1.182,4.711 L 0.694,3.894 1.61,2.644 1.36,0.144 Z"
             style="fill:none;stroke:#231f20;stroke-width:0.3;stroke-linecap:butt;stroke-linejoin:miter;stroke-miterlimit:4;stroke-dasharray:none;stroke-opacity:1"
             id="path624" /></g><g
           id="g626"
           transform="translate(286.8184,611.3633)"><path
             d="m 0,0 c -4.858,-0.127 -9.138,1.018 -13.011,2.052 -5.562,1.485 -10.809,2.891 -19.215,0.759 l -5.65,5.217 c 10.563,2.677 18.207,0.632 24.35,-1.003 4.56,-1.225 7.858,-2.105 12.395,-1.299 0.401,0.071 0.777,0.148 1.133,0.228 0,0 -0.44,-1.223 -1.44,-1.473 l 1.751,-0.667 0.5,-1.333 z"
             style="fill:#f8a45c;fill-opacity:1;fill-rule:nonzero;stroke:none"
             id="path628" /></g><g
           id="g630"
           transform="translate(286.8184,611.3633)"><path
             d="m 0,0 c -4.858,-0.127 -9.138,1.018 -13.011,2.052 -5.562,1.485 -10.809,2.891 -19.215,0.759 l -5.65,5.217 c 10.563,2.677 18.207,0.632 24.35,-1.003 4.56,-1.225 7.858,-2.105 12.395,-1.299 0.401,0.071 0.777,0.148 1.133,0.228 0,0 -0.44,-1.223 -1.44,-1.473 l 1.751,-0.667 0.5,-1.333 z"
             style="fill:none;stroke:#231f20;stroke-width:0.3;stroke-linecap:butt;stroke-linejoin:miter;stroke-miterlimit:4;stroke-dasharray:none;stroke-opacity:1"
             id="path632" /></g><g
           id="g634"
           transform="translate(254.9502,618.8276)"><path
             d="m 0,0 7.705,0.567 3.358,-1.47 -5.02,0.26 z"
             style="fill:#231f20;fill-opacity:1;fill-rule:nonzero;stroke:none"
             id="path636" /></g><g
           id="g638"
           transform="translate(273.4111,615.5073)"><path
             d="m 0,0 8.228,-2.551 5.316,1.379 -6.743,0.723 z"
             style="fill:#231f20;fill-opacity:1;fill-rule:nonzero;stroke:none"
             id="path640" /></g><g
           id="g642"
           transform="translate(261.2139,613.4243)"><path
             d="m 0,0 -1.942,-0.396 -5.201,-1.068 6.091,-0.372 z"
             style="fill:#231f20;fill-opacity:1;fill-rule:nonzero;stroke:none"
             id="path644" /></g><g
           id="g646"
           transform="translate(276.9541,607.6206)"><path
             d="m 0,0 -5.789,0.248 -2.372,-1.324 5.876,0.484 7.522,-2.471 4.721,0.051 -6.505,2.088 z"
             style="fill:#231f20;fill-opacity:1;fill-rule:nonzero;stroke:none"
             id="path648" /></g><g
           id="g650"
           transform="translate(286.4297,597.9175)"><path
             d="M 0,0 -5.89,1.47 -10.397,0.554 -5.023,0.262 Z"
             style="fill:#231f20;fill-opacity:1;fill-rule:nonzero;stroke:none"
             id="path652" /></g><g
           id="g654"
           transform="translate(269.9961,601.9077)"><path
             d="M 0,0 -3.345,-0.48 1.323,-0.699 Z"
             style="fill:#231f20;fill-opacity:1;fill-rule:nonzero;stroke:none"
             id="path656" /></g><g
           id="g658"
           transform="translate(266.2871,603.4175)"><path
             d="m 0,0 -4.146,-2.898 -1.479,1.83 z"
             style="fill:#f9aeca;fill-opacity:1;fill-rule:evenodd;stroke:none"
             id="path660" /></g><g
           id="g662"
           transform="translate(287.5645,609.4019)"><path
             d="m 0,0 -7.513,0.523 4.064,-1.542 z"
             style="fill:#96cd56;fill-opacity:1;fill-rule:evenodd;stroke:none"
             id="path664" /></g><g
           id="g666"
           transform="translate(268.748,609.0024)"><path
             d="m 0,0 -6.192,-0.174 2.396,-2.762 z"
             style="fill:#96cd56;fill-opacity:1;fill-rule:evenodd;stroke:none"
             id="path668" /></g></g></g></g></svg>
