<svg xmlns="http://www.w3.org/2000/svg" xmlns:xlink="http://www.w3.org/1999/xlink" width="293.16" height="186.66" viewBox="0 0 293.16 186.66">
  <defs>
    <style>
      .cls-1, .cls-26, .cls-4 {
        fill: none;
      }

      .cls-1, .cls-26, .cls-30, .cls-4 {
        stroke: #000;
      }

      .cls-1 {
        stroke-width: 0.5px;
      }

      .cls-2 {
        font-size: 22.07px;
        fill: #3d6516;
      }

      .cls-2, .cls-24, .cls-3 {
        font-family: Nimbus Mono PS;
      }

      .cls-3 {
        font-size: 22px;
        fill: #965da8;
      }

      .cls-17, .cls-4, .cls-5 {
        stroke-linejoin: round;
      }

      .cls-5 {
        fill: #267520;
        stroke: #267520;
      }

      .cls-17, .cls-26, .cls-30, .cls-5 {
        stroke-width: 0.3px;
      }

      .cls-6 {
        fill: url(#linear-gradient);
      }

      .cls-7 {
        fill: url(#linear-gradient-2);
      }

      .cls-8 {
        fill: #fff;
      }

      .cls-9 {
        font-size: 9.02px;
      }

      .cls-20, .cls-21, .cls-9 {
        font-family: ArialMT, Arial;
      }

      .cls-10 {
        fill: url(#linear-gradient-3);
      }

      .cls-11 {
        fill: url(#linear-gradient-4);
      }

      .cls-12 {
        fill: url(#linear-gradient-5);
      }

      .cls-13 {
        fill: url(#linear-gradient-6);
      }

      .cls-14 {
        font-size: 9px;
        font-family: Humanist521BT-BoldCondensed, Humanst521 Cn BT;
        font-weight: 700;
      }

      .cls-15 {
        letter-spacing: -0.02em;
      }

      .cls-16 {
        letter-spacing: 0em;
      }

      .cls-17 {
        fill: #a10000;
        stroke: #a10000;
      }

      .cls-18 {
        fill: url(#linear-gradient-7);
      }

      .cls-19 {
        fill: url(#linear-gradient-8);
      }

      .cls-20 {
        font-size: 9.02px;
      }

      .cls-21 {
        font-size: 8px;
      }

      .cls-22 {
        fill: url(#linear-gradient-9);
      }

      .cls-23 {
        fill: url(#linear-gradient-10);
      }

      .cls-24 {
        font-size: 21px;
      }

      .cls-25 {
        letter-spacing: 0.02em;
      }

      .cls-26 {
        stroke-miterlimit: 10;
      }

      .cls-27 {
        letter-spacing: 0.04em;
      }

      .cls-28 {
        letter-spacing: 0.06em;
      }

      .cls-29 {
        letter-spacing: 0em;
      }

      .cls-30 {
        fill: #fda452;
      }

      .cls-31 {
        fill: #fbafc5;
      }

      .cls-31, .cls-32 {
        fill-rule: evenodd;
      }

      .cls-32 {
        fill: #96c749;
      }
    </style>
    <linearGradient id="linear-gradient" x1="194.34" y1="250.23" x2="245.25" y2="250.23" gradientUnits="userSpaceOnUse">
      <stop offset="0" stop-color="#5fb749"/>
      <stop offset="1" stop-color="#dbf1c6"/>
    </linearGradient>
    <linearGradient id="linear-gradient-2" x1="195.25" y1="250.23" x2="243.82" y2="250.23" gradientUnits="userSpaceOnUse">
      <stop offset="0" stop-color="#dbf1c6"/>
      <stop offset="1" stop-color="#5fb749"/>
    </linearGradient>
    <linearGradient id="linear-gradient-3" x1="392.34" y1="250.23" x2="443.25" y2="250.23" xlink:href="#linear-gradient"/>
    <linearGradient id="linear-gradient-4" x1="393.25" y1="250.23" x2="441.83" y2="250.23" xlink:href="#linear-gradient-2"/>
    <linearGradient id="linear-gradient-5" x1="328.06" y1="212.49" x2="378.97" y2="212.49" xlink:href="#linear-gradient"/>
    <linearGradient id="linear-gradient-6" x1="328.97" y1="212.49" x2="377.55" y2="212.49" xlink:href="#linear-gradient-2"/>
    <linearGradient id="linear-gradient-7" x1="194.34" y1="157.63" x2="245.25" y2="157.63" gradientUnits="userSpaceOnUse">
      <stop offset="0" stop-color="#ff0001"/>
      <stop offset="0.08" stop-color="#ff1b17"/>
      <stop offset="0.25" stop-color="#fe4f41"/>
      <stop offset="0.42" stop-color="#fe7b64"/>
      <stop offset="0.59" stop-color="#fd9d80"/>
      <stop offset="0.74" stop-color="#fdb593"/>
      <stop offset="0.88" stop-color="#fdc49f"/>
      <stop offset="1" stop-color="#fdc9a3"/>
    </linearGradient>
    <linearGradient id="linear-gradient-8" x1="195.25" y1="157.63" x2="243.83" y2="157.63" gradientUnits="userSpaceOnUse">
      <stop offset="0" stop-color="#fdc9a3"/>
      <stop offset="1" stop-color="#ff0001"/>
    </linearGradient>
    <linearGradient id="linear-gradient-9" x1="392.35" y1="157.63" x2="443.26" y2="157.63" xlink:href="#linear-gradient-7"/>
    <linearGradient id="linear-gradient-10" x1="393.25" y1="157.63" x2="441.84" y2="157.63" xlink:href="#linear-gradient-8"/>
  </defs>
  <g id="Layer_2" data-name="Layer 2">
    <line class="cls-1" x1="176.89" y1="139.96" x2="94.81" y2="139.96"/>
    <path d="M206.26,195.46c.29-1,.55-1.57.85-2.33h-2.9a22.43,22.43,0,0,1,.87,2.33,17.17,17.17,0,0,1,.6,2.53A17,17,0,0,1,206.26,195.46Z" transform="translate(-150.73 -109.38)"/>
    <path d="M328,248.76a24.39,24.39,0,0,1-2.33-.85v2.9A23.05,23.05,0,0,1,328,250a14.93,14.93,0,0,1,2.53-.6A18.7,18.7,0,0,1,328,248.76Z" transform="translate(-150.73 -109.38)"/>
    <line class="cls-1" x1="238.29" y1="139.96" x2="198.86" y2="139.96"/>
    <path d="M389.43,248.76a24.39,24.39,0,0,1-2.33-.85v2.9a23.59,23.59,0,0,1,2.32-.86,15.22,15.22,0,0,1,2.54-.6A18.7,18.7,0,0,1,389.43,248.76Z" transform="translate(-150.73 -109.38)"/>
    <line class="cls-1" x1="54.94" y1="60.59" x2="54.94" y2="84.3"/>
    <path d="M206.26,236c.29-.95.55-1.57.85-2.34h-2.9a23.39,23.39,0,0,1,.87,2.33,17.55,17.55,0,0,1,.6,2.54A16.76,16.76,0,0,1,206.26,236Z" transform="translate(-150.73 -109.38)"/>
    <line class="cls-1" x1="54.94" y1="101.12" x2="54.94" y2="124.83"/>
    <path d="M340,169a23,23,0,0,0,.85,2.34h-2.91a20.29,20.29,0,0,0,.87-2.33,16.3,16.3,0,0,0,.6-2.54A17,17,0,0,0,340,169Z" transform="translate(-150.73 -109.38)"/>
    <polyline class="cls-1" points="137.17 73.57 188.66 73.57 188.66 61.41"/>
    <text class="cls-2" transform="translate(182.06 54.37)">+</text>
    <text class="cls-3" transform="translate(55.13 104.09) rotate(-45)">+</text>
    <path d="M404.27,195.46a24.39,24.39,0,0,1,.85-2.33h-2.9a23.05,23.05,0,0,1,.86,2.33,14.93,14.93,0,0,1,.6,2.53A18.7,18.7,0,0,1,404.27,195.46Z" transform="translate(-150.73 -109.38)"/>
    <line class="cls-1" x1="252.94" y1="60.59" x2="252.94" y2="84.3"/>
    <path d="M305,202.79a21.94,21.94,0,0,1,.85-2.33H303a22.94,22.94,0,0,1,.87,2.32,17.55,17.55,0,0,1,.6,2.54A16.07,16.07,0,0,1,305,202.79Z" transform="translate(-150.73 -109.38)"/>
    <line class="cls-1" x1="153.7" y1="73.65" x2="153.7" y2="91.63"/>
    <path d="M340,238.22a21.94,21.94,0,0,1,.85-2.33h-2.91a20.69,20.69,0,0,1,.87,2.32,16.3,16.3,0,0,1,.6,2.54A17.29,17.29,0,0,1,340,238.22Z" transform="translate(-150.73 -109.38)"/>
    <line class="cls-1" x1="188.66" y1="115.08" x2="188.66" y2="127.06"/>
    <path d="M404.27,236c.28-.95.55-1.57.85-2.34h-2.9a24.05,24.05,0,0,1,.86,2.33,15.22,15.22,0,0,1,.6,2.54A18.36,18.36,0,0,1,404.27,236Z" transform="translate(-150.73 -109.38)"/>
    <line class="cls-1" x1="252.94" y1="101.12" x2="252.94" y2="124.83"/>
    <text class="cls-3" transform="translate(253.13 104.09) rotate(-45)">+</text>
    <line class="cls-1" x1="176.75" y1="47.36" x2="94.81" y2="47.36"/>
    <path d="M327.89,156.16c-.95-.29-1.57-.55-2.33-.85v2.9a22.43,22.43,0,0,1,2.33-.87,17.47,17.47,0,0,1,2.53-.6A17,17,0,0,1,327.89,156.16Z" transform="translate(-150.73 -109.38)"/>
    <g>
      <path class="cls-4" d="M241.16,246.18H216.21a11.34,11.34,0,0,0-21.87,4c0,.13,0,.26,0,.39s0,.26,0,.39a11.34,11.34,0,0,0,21.47,5h2.08a2.66,2.66,0,0,1,5.1,0h2.29a2.66,2.66,0,0,1,5.1,0h2.29a2.66,2.66,0,0,1,5.1,0h1.6l5.88-6.74v-.78Z" transform="translate(-150.73 -109.38)"/>
      <path class="cls-5" d="M245.25,248.44l-29-1.48a11.22,11.22,0,1,0-.4,9h2.08a2.66,2.66,0,0,1,5.1,0h2.29a2.66,2.66,0,0,1,5.1,0h2.29a2.66,2.66,0,0,1,5.1,0h1.6l5.88-6.74Z" transform="translate(-150.73 -109.38)"/>
      <path class="cls-6" d="M241.16,246.18H216.21a11.22,11.22,0,1,0-.4,9h2.08a2.66,2.66,0,0,1,5.1,0h2.29a2.66,2.66,0,0,1,5.1,0h2.29a2.66,2.66,0,0,1,5.1,0h1.6l5.88-6.74Z" transform="translate(-150.73 -109.38)"/>
      <path class="cls-7" d="M205.66,260.53a10.3,10.3,0,1,1,9.71-14l.22.58h25.33l2.9,1.61L239,254.27h-.52a3.68,3.68,0,0,0-6.44,0h-.95a3.68,3.68,0,0,0-6.44,0h-1a3.68,3.68,0,0,0-6.44,0h-2l-.25.51A10.36,10.36,0,0,1,205.66,260.53Z" transform="translate(-150.73 -109.38)"/>
      <path class="cls-8" d="M214.61,250.23a9,9,0,1,1-9-8.94A8.95,8.95,0,0,1,214.61,250.23Z" transform="translate(-150.73 -109.38)"/>
      <text class="cls-9" transform="translate(46.83 144.29)">Pub</text>
    </g>
    <g>
      <path class="cls-4" d="M439.16,246.18h-25a11.34,11.34,0,0,0-21.87,4c0,.13,0,.26,0,.39s0,.26,0,.39a11.34,11.34,0,0,0,21.48,5h2.08a2.66,2.66,0,0,1,5.1,0h2.29a2.66,2.66,0,0,1,5.1,0h2.29a2.66,2.66,0,0,1,5.1,0h1.59l5.88-6.74v-.78Z" transform="translate(-150.73 -109.38)"/>
      <path class="cls-5" d="M443.25,248.44l-29-1.48a11.2,11.2,0,1,0-.39,9h2.08a2.66,2.66,0,0,1,5.1,0h2.29a2.66,2.66,0,0,1,5.1,0h2.29a2.66,2.66,0,0,1,5.1,0h1.59l5.88-6.74Z" transform="translate(-150.73 -109.38)"/>
      <path class="cls-10" d="M439.16,246.18h-25a11.2,11.2,0,1,0-.39,9h2.08a2.66,2.66,0,0,1,5.1,0h2.29a2.66,2.66,0,0,1,5.1,0h2.29a2.66,2.66,0,0,1,5.1,0h1.59l5.88-6.74Z" transform="translate(-150.73 -109.38)"/>
      <path class="cls-11" d="M403.67,260.53a10.3,10.3,0,1,1,9.7-14l.22.58h25.34l2.9,1.61L437,254.27h-.51a3.68,3.68,0,0,0-6.44,0h-.95a3.68,3.68,0,0,0-6.44,0h-.95a3.68,3.68,0,0,0-6.44,0h-2l-.25.51A10.35,10.35,0,0,1,403.67,260.53Z" transform="translate(-150.73 -109.38)"/>
      <path class="cls-8" d="M412.61,250.23a8.95,8.95,0,1,1-8.94-8.94A8.94,8.94,0,0,1,412.61,250.23Z" transform="translate(-150.73 -109.38)"/>
      <text class="cls-9" transform="translate(244.84 144.29)">Pub</text>
    </g>
    <g>
      <path class="cls-4" d="M374.88,208.44H349.93a11.34,11.34,0,0,0-21.87,4.05c0,.13,0,.26,0,.39s0,.25,0,.39a11.34,11.34,0,0,0,21.47,4.94h2.09a2.65,2.65,0,0,1,5.09,0H359a2.65,2.65,0,0,1,5.09,0h2.3a2.66,2.66,0,0,1,5.1,0h1.59l5.88-6.74v-.77Z" transform="translate(-150.73 -109.38)"/>
      <path class="cls-5" d="M379,210.7l-29-1.49a11.22,11.22,0,1,0-.4,9h2.09a2.65,2.65,0,0,1,5.09,0H359a2.65,2.65,0,0,1,5.09,0h2.3a2.66,2.66,0,0,1,5.1,0h1.59l5.88-6.74Z" transform="translate(-150.73 -109.38)"/>
      <path class="cls-12" d="M374.88,208.44H349.93a11.21,11.21,0,1,0-.4,9h2.09a2.65,2.65,0,0,1,5.09,0H359a2.65,2.65,0,0,1,5.09,0h2.3a2.66,2.66,0,0,1,5.1,0h1.59L379,210.7Z" transform="translate(-150.73 -109.38)"/>
      <path class="cls-13" d="M339.39,222.79a10.3,10.3,0,1,1,9.7-14l.22.57h25.34l2.9,1.61-4.87,5.58h-.51a3.67,3.67,0,0,0-6.44,0h-1a3.66,3.66,0,0,0-6.43,0h-.95a3.67,3.67,0,0,0-6.44,0h-2l-.25.5A10.37,10.37,0,0,1,339.39,222.79Z" transform="translate(-150.73 -109.38)"/>
      <path class="cls-8" d="M348.33,212.49a8.95,8.95,0,1,1-8.94-9A8.94,8.94,0,0,1,348.33,212.49Z" transform="translate(-150.73 -109.38)"/>
      <text class="cls-9" transform="translate(180.56 106.54)">Pub</text>
    </g>
    <text class="cls-14" transform="translate(0 165.53)">Special<tspan x="0" y="9.5">“public key</tspan><tspan x="0" y="19">multiplicatio</tspan><tspan class="cls-15" x="44.44" y="19">n</tspan><tspan class="cls-16" x="48.77" y="19">”</tspan></text>
    <g>
      <path class="cls-4" d="M241.16,153.57H216.21a11.34,11.34,0,0,0-21.87,4.06c0,.13,0,.26,0,.38s0,.26,0,.39a11.34,11.34,0,0,0,21.47,4.95h2.09a2.66,2.66,0,0,1,5.1,0h2.29a2.66,2.66,0,0,1,5.1,0h2.29a2.66,2.66,0,0,1,5.1,0h1.6l5.87-6.73v-.78Z" transform="translate(-150.73 -109.38)"/>
      <path class="cls-17" d="M245.25,155.84l-29-1.49a11.22,11.22,0,1,0-.4,9h2.09a2.66,2.66,0,0,1,5.1,0h2.29a2.66,2.66,0,0,1,5.1,0h2.29a2.66,2.66,0,0,1,5.1,0h1.6l5.87-6.73Z" transform="translate(-150.73 -109.38)"/>
      <path class="cls-18" d="M241.16,153.57H216.21a11.22,11.22,0,1,0-.4,9h2.09a2.66,2.66,0,0,1,5.1,0h2.29a2.66,2.66,0,0,1,5.1,0h2.29a2.66,2.66,0,0,1,5.1,0h1.6l5.87-6.73Z" transform="translate(-150.73 -109.38)"/>
      <path class="cls-19" d="M205.66,167.92a10.3,10.3,0,1,1,9.71-14l.23.58h25.33l2.9,1.61L239,161.67h-.51a3.67,3.67,0,0,0-6.44,0h-.95a3.67,3.67,0,0,0-6.44,0h-1a3.66,3.66,0,0,0-6.43,0h-2l-.25.5A10.35,10.35,0,0,1,205.66,167.92Z" transform="translate(-150.73 -109.38)"/>
      <path class="cls-8" d="M214.61,157.63a8.95,8.95,0,1,1-9-8.95A8.94,8.94,0,0,1,214.61,157.63Z" transform="translate(-150.73 -109.38)"/>
      <text class="cls-20" transform="translate(47.09 51.67)">Priv</text>
    </g>
    <text class="cls-21" transform="translate(82.41 62.47)">p</text>
    <text class="cls-21" transform="translate(139.62 65.09)">h</text>
    <g>
      <path class="cls-4" d="M439.17,153.57H414.22a11.34,11.34,0,0,0-21.87,4.06c0,.13,0,.26,0,.38s0,.26,0,.39a11.34,11.34,0,0,0,21.47,4.95h2.08a2.66,2.66,0,0,1,5.1,0h2.29a2.66,2.66,0,0,1,5.1,0h2.29a2.66,2.66,0,0,1,5.1,0h1.6l5.88-6.73v-.78Z" transform="translate(-150.73 -109.38)"/>
      <path class="cls-17" d="M443.26,155.84l-29-1.49a11.22,11.22,0,1,0-.4,9h2.08a2.66,2.66,0,0,1,5.1,0h2.29a2.66,2.66,0,0,1,5.1,0h2.29a2.66,2.66,0,0,1,5.1,0h1.6l5.88-6.73Z" transform="translate(-150.73 -109.38)"/>
      <path class="cls-22" d="M439.17,153.57H414.22a11.22,11.22,0,1,0-.4,9h2.08a2.66,2.66,0,0,1,5.1,0h2.29a2.66,2.66,0,0,1,5.1,0h2.29a2.66,2.66,0,0,1,5.1,0h1.6l5.88-6.73Z" transform="translate(-150.73 -109.38)"/>
      <path class="cls-23" d="M403.67,167.92a10.3,10.3,0,1,1,9.7-14l.23.58h25.33l2.91,1.61L437,161.67h-.51a3.67,3.67,0,0,0-6.44,0h-1a3.67,3.67,0,0,0-6.44,0h-.95a3.67,3.67,0,0,0-6.44,0h-2l-.25.5A10.36,10.36,0,0,1,403.67,167.92Z" transform="translate(-150.73 -109.38)"/>
      <path class="cls-8" d="M412.61,157.63a8.94,8.94,0,1,1-8.94-8.95A8.94,8.94,0,0,1,412.61,157.63Z" transform="translate(-150.73 -109.38)"/>
      <text class="cls-20" transform="translate(245.1 51.67)">Priv</text>
    </g>
    <text class="cls-21" transform="translate(280.41 62.47)">c</text>
    <text class="cls-21" transform="translate(82.41 156.05)">P</text>
    <text class="cls-21" transform="translate(280.34 156.05)">C</text>
    <line class="cls-1" x1="238.29" y1="47.36" x2="198.72" y2="47.36"/>
    <path d="M389.43,156.16c-.95-.29-1.57-.55-2.33-.85v2.9a22.94,22.94,0,0,1,2.32-.87,17.55,17.55,0,0,1,2.54-.6A17,17,0,0,1,389.43,156.16Z" transform="translate(-150.73 -109.38)"/>
    <text class="cls-3" transform="translate(182.22 146.7)">+</text>
    <text class="cls-24" transform="translate(16 100.62)">G</text>
    <text class="cls-24" transform="translate(280.56 100.62)">G</text>
    <line class="cls-1" x1="45.04" y1="94.6" x2="32.52" y2="94.6"/>
    <path d="M196.18,203.4a21.94,21.94,0,0,1-2.33-.85v2.91a22.94,22.94,0,0,1,2.32-.87,17.55,17.55,0,0,1,2.54-.6A17.29,17.29,0,0,1,196.18,203.4Z" transform="translate(-150.73 -109.38)"/>
    <text class="cls-3" transform="translate(153.63 112.59) rotate(-45)">+</text>
    <text class="cls-24" transform="translate(114.5 109.12)">G</text>
    <line class="cls-1" x1="143.54" y1="103.1" x2="131.02" y2="103.1"/>
    <path d="M294.68,211.9a21.94,21.94,0,0,1-2.33-.85V214a22.94,22.94,0,0,1,2.32-.87,17.55,17.55,0,0,1,2.54-.6A17.29,17.29,0,0,1,294.68,211.9Z" transform="translate(-150.73 -109.38)"/>
    <line class="cls-1" x1="173.96" y1="103.1" x2="161.44" y2="103.1"/>
    <path d="M325.1,211.9a21.94,21.94,0,0,1-2.33-.85V214a22.43,22.43,0,0,1,2.33-.87,17.17,17.17,0,0,1,2.53-.6A17.29,17.29,0,0,1,325.1,211.9Z" transform="translate(-150.73 -109.38)"/>
    <line class="cls-1" x1="264.23" y1="94.6" x2="276.75" y2="94.6"/>
    <path d="M414.54,203.4a23,23,0,0,0,2.34-.85v2.91a23.39,23.39,0,0,0-2.33-.87A17.55,17.55,0,0,0,412,204,17,17,0,0,0,414.54,203.4Z" transform="translate(-150.73 -109.38)"/>
    <text class="cls-14" transform="translate(189.83 17.07)">Normal<tspan x="0" y="9.5">addition</tspan></text>
    <text class="cls-14" transform="translate(66.33 7.57)">The le<tspan class="cls-25" x="20.93" y="0">f</tspan><tspan x="23.41" y="0">t 256 bits of the hash</tspan><tspan x="0" y="9.5">are used for both private and</tspan><tspan x="0" y="19">public child key derivation.</tspan></text>
    <g>
      <path class="cls-26" d="M347.82,150.31c5-3,6.94-6.76,6.94-12.43" transform="translate(-150.73 -109.38)"/>
      <polygon points="198.52 42.23 194.79 42.31 196.59 39.04 198.52 42.23"/>
    </g>
    <text class="cls-14" transform="translate(0 48.32)">Starting<tspan x="0" y="9.5">point on</tspan><tspan x="0" y="19">cu</tspan><tspan class="cls-27" x="8.08" y="19">r</tspan><tspan x="11.8" y="19">ve</tspan></text>
    <g>
      <path class="cls-26" d="M171.75,192.5c-2.25-6.5-7.08-6.75-7.32-12.62" transform="translate(-150.73 -109.38)"/>
      <polygon points="22.6 81.99 21.89 85.66 19.07 83.21 22.6 81.99"/>
    </g>
    <g>
      <path class="cls-26" d="M196.5,211c-15.26,14.07-23.59,33.29-23.59,55.09" transform="translate(-150.73 -109.38)"/>
      <polygon points="44.11 100.61 47.76 99.78 46.64 103.36 44.11 100.61"/>
    </g>
    <text class="cls-14" transform="translate(127.42 165.53)">“Public ke<tspan class="cls-28" x="36.06" y="0">y</tspan><tspan x="40.33" y="0">”</tspan><tspan x="0" y="9.5">derived from</tspan><tspan x="0" y="19">le</tspan><tspan class="cls-25" x="6.12" y="19">f</tspan><tspan class="cls-16" x="8.6" y="19">t-half hash</tspan></text>
    <text class="cls-14" transform="translate(195.5 165.53)">Special<tspan x="0" y="9.5">“public key</tspan><tspan x="0" y="19">additio</tspan><tspan class="cls-15" x="24.68" y="19">n</tspan><tspan class="cls-29" x="29" y="19">”</tspan></text>
    <g>
      <path class="cls-26" d="M324.5,222.25c-15.5,10-24.17,28.61-24.17,43.83" transform="translate(-150.73 -109.38)"/>
      <polygon points="172.31 111.6 176.04 111.42 174.33 114.74 172.31 111.6"/>
    </g>
    <g>
      <path class="cls-26" d="M348.25,254c6.25,2,11.25,8.74,11.25,12.75" transform="translate(-150.73 -109.38)"/>
      <polygon points="197.48 146.55 194.96 143.79 198.62 142.99 197.48 146.55"/>
    </g>
    <g>
      <path class="cls-26" d="M271,166.58c0-12-5.31-17.46-5.31-27.75" transform="translate(-150.73 -109.38)"/>
      <polygon points="122.13 56.65 120.26 59.89 118.39 56.65 122.13 56.65"/>
    </g>
    <g>
      <path class="cls-30" d="M286.14,186.28c-5.29.34-9.9-.89-14.05-2-5.55-1.49-10.81-2.9-19.22-.77l-5.64-5.22c10.56-2.67,18.2-.63,24.35,1,4.55,1.22,7.85,2.1,12.39,1.29a17.55,17.55,0,0,0,4-1.15l-.72,1.62.66.84.09,1.41-.25,2.5Z" transform="translate(-150.73 -109.38)"/>
      <path class="cls-30" d="M285.83,190c-.93-.23-1.83-.47-2.71-.71-5.56-1.48-10.82-2.88-19.22-.76l-5.65-5.22c10.56-2.67,18.21-.63,24.35,1,1.36.36,2.6.7,3.8,1,0,0,1.31.5,2.06.83l-1.16.67.16,1.08-.66,1.09,1.5.75Z" transform="translate(-150.73 -109.38)"/>
      <path class="cls-30" d="M286.71,196.32a58.82,58.82,0,0,1-6-1.55c-5.56-1.48-10.82-2.88-19.22-.76l-5.65-5.21c10.56-2.68,18.21-.63,24.35,1a44,44,0,0,0,7.16,1.51l-1.77,1.75.33,1.5Z" transform="translate(-150.73 -109.38)"/>
      <path class="cls-30" d="M286,197.05a30.19,30.19,0,0,0-13.87-1l-4.77-5.78a40.35,40.35,0,0,1,19.82,2.05l-.49.82.92,1.25-.25,2.5Z" transform="translate(-150.73 -109.38)"/>
      <path class="cls-30" d="M286.82,180.64a44.62,44.62,0,0,1-13-2.06c-5.56-1.48-10.81-2.89-19.22-.75l-5.65-5.22c10.56-2.68,18.21-.63,24.35,1,4.56,1.23,7.86,2.11,12.4,1.3.4-.07.77-.15,1.13-.23a2.48,2.48,0,0,1-1.44,1.48l1.75.66.5,1.34Z" transform="translate(-150.73 -109.38)"/>
      <polygon points="104.22 63.79 111.93 63.22 115.29 64.69 110.27 64.43 104.22 63.79"/>
      <polygon points="122.68 67.11 130.91 69.66 136.23 68.28 129.49 67.56 122.68 67.11"/>
      <polygon points="110.49 69.19 108.54 69.59 103.34 70.66 109.44 71.03 110.49 69.19"/>
      <polygon points="126.23 75 120.44 74.75 118.07 76.07 123.94 75.59 131.46 78.06 136.19 78.01 129.68 75.92 126.23 75"/>
      <polygon points="135.7 84.7 129.81 83.23 125.31 84.14 130.68 84.44 135.7 84.7"/>
      <polygon points="119.27 80.71 115.92 81.19 120.59 81.41 119.27 80.71"/>
      <polygon class="cls-31" points="115.56 79.2 111.42 82.1 109.94 80.27 115.56 79.2"/>
      <polygon class="cls-32" points="136.84 73.21 129.32 72.69 133.39 74.23 136.84 73.21"/>
      <polygon class="cls-32" points="118.02 73.61 111.83 73.79 114.22 76.55 118.02 73.61"/>
    </g>
  </g>
</svg>
