<?xml version="1.0" encoding="UTF-8" standalone="no"?>
<svg
   xmlns:dc="http://purl.org/dc/elements/1.1/"
   xmlns:cc="http://creativecommons.org/ns#"
   xmlns:rdf="http://www.w3.org/1999/02/22-rdf-syntax-ns#"
   xmlns:svg="http://www.w3.org/2000/svg"
   xmlns="http://www.w3.org/2000/svg"
   version="1.1"
   id="svg2"
   xml:space="preserve"
   width="125.97639"
   height="95.3638"
   viewBox="0 0 125.97639 95.3638"><metadata
     id="metadata8"><rdf:RDF><cc:Work
         rdf:about=""><dc:format>image/svg+xml</dc:format><dc:type
           rdf:resource="http://purl.org/dc/dcmitype/StillImage" /></cc:Work></rdf:RDF></metadata><defs
     id="defs6"><clipPath
       clipPathUnits="userSpaceOnUse"
       id="clipPath18"><path
         d="M 0,792 H 612 V 0 H 0 Z"
         id="path16" /></clipPath><linearGradient
       x1="0"
       y1="0"
       x2="1"
       y2="0"
       gradientUnits="userSpaceOnUse"
       gradientTransform="matrix(42.983002,-31.894989,-31.894989,-42.983002,305.6875,575.89795)"
       spreadMethod="pad"
       id="linearGradient198"><stop
         style="stop-opacity:1;stop-color:#a1a5a8"
         offset="0"
         id="stop192" /><stop
         style="stop-opacity:1;stop-color:#eff0f0"
         offset="0.503067"
         id="stop194" /><stop
         style="stop-opacity:1;stop-color:#a1a5a8"
         offset="1"
         id="stop196" /></linearGradient><clipPath
       clipPathUnits="userSpaceOnUse"
       id="clipPath208"><path
         d="M 0,792 H 612 V 0 H 0 Z"
         id="path206" /></clipPath><linearGradient
       x1="0"
       y1="0"
       x2="1"
       y2="0"
       gradientUnits="userSpaceOnUse"
       gradientTransform="matrix(42.984283,-31.89595,-31.89595,-42.984283,305.68799,575.89844)"
       spreadMethod="pad"
       id="linearGradient238"><stop
         style="stop-opacity:1;stop-color:#a1a5a8"
         offset="0"
         id="stop232" /><stop
         style="stop-opacity:1;stop-color:#eff0f0"
         offset="0.503067"
         id="stop234" /><stop
         style="stop-opacity:1;stop-color:#a1a5a8"
         offset="1"
         id="stop236" /></linearGradient><clipPath
       clipPathUnits="userSpaceOnUse"
       id="clipPath248"><path
         d="M 0,792 H 612 V 0 H 0 Z"
         id="path246" /></clipPath><linearGradient
       x1="0"
       y1="0"
       x2="1"
       y2="0"
       gradientUnits="userSpaceOnUse"
       gradientTransform="matrix(0,-4.2520599,-4.2520599,0,327.58789,585.75732)"
       spreadMethod="pad"
       id="linearGradient272"><stop
         style="stop-opacity:1;stop-color:#a1a5a8"
         offset="0"
         id="stop268" /><stop
         style="stop-opacity:1;stop-color:#eff0f0"
         offset="1"
         id="stop270" /></linearGradient><clipPath
       clipPathUnits="userSpaceOnUse"
       id="clipPath282"><path
         d="M 0,792 H 612 V 0 H 0 Z"
         id="path280" /></clipPath><linearGradient
       x1="0"
       y1="0"
       x2="1"
       y2="0"
       gradientUnits="userSpaceOnUse"
       gradientTransform="matrix(4.9013062,-3.4319305,-3.4319305,-4.9013062,341.24707,569.6709)"
       spreadMethod="pad"
       id="linearGradient314"><stop
         style="stop-opacity:1;stop-color:#6e7275"
         offset="0"
         id="stop304" /><stop
         style="stop-opacity:1;stop-color:#6e7275"
         offset="0.11440319"
         id="stop306" /><stop
         style="stop-opacity:1;stop-color:#eff0f0"
         offset="0.503067"
         id="stop308" /><stop
         style="stop-opacity:1;stop-color:#6e7275"
         offset="0.86341405"
         id="stop310" /><stop
         style="stop-opacity:1;stop-color:#6e7275"
         offset="1"
         id="stop312" /></linearGradient><clipPath
       clipPathUnits="userSpaceOnUse"
       id="clipPath324"><path
         d="M 0,792 H 612 V 0 H 0 Z"
         id="path322" /></clipPath><linearGradient
       x1="0"
       y1="0"
       x2="1"
       y2="0"
       gradientUnits="userSpaceOnUse"
       gradientTransform="matrix(4.9013062,-3.4319305,-3.4319305,-4.9013062,341.24805,553.13574)"
       spreadMethod="pad"
       id="linearGradient360"><stop
         style="stop-opacity:1;stop-color:#6e7275"
         offset="0"
         id="stop350" /><stop
         style="stop-opacity:1;stop-color:#6e7275"
         offset="0.11440319"
         id="stop352" /><stop
         style="stop-opacity:1;stop-color:#eff0f0"
         offset="0.503067"
         id="stop354" /><stop
         style="stop-opacity:1;stop-color:#6e7275"
         offset="0.86341405"
         id="stop356" /><stop
         style="stop-opacity:1;stop-color:#6e7275"
         offset="1"
         id="stop358" /></linearGradient><clipPath
       clipPathUnits="userSpaceOnUse"
       id="clipPath370"><path
         d="M 0,792 H 612 V 0 H 0 Z"
         id="path368" /></clipPath><linearGradient
       x1="0"
       y1="0"
       x2="1"
       y2="0"
       gradientUnits="userSpaceOnUse"
       gradientTransform="matrix(0,-16.563278,-16.563278,0,312.42773,567.1416)"
       spreadMethod="pad"
       id="linearGradient406"><stop
         style="stop-opacity:1;stop-color:#1f1d21"
         offset="0"
         id="stop396" /><stop
         style="stop-opacity:1;stop-color:#eff0f0"
         offset="0.134964"
         id="stop398" /><stop
         style="stop-opacity:1;stop-color:#252428"
         offset="0.47416485"
         id="stop400" /><stop
         style="stop-opacity:1;stop-color:#252428"
         offset="0.93251"
         id="stop402" /><stop
         style="stop-opacity:1;stop-color:#252428"
         offset="1"
         id="stop404" /></linearGradient><clipPath
       clipPathUnits="userSpaceOnUse"
       id="clipPath416"><path
         d="M 0,792 H 612 V 0 H 0 Z"
         id="path414" /></clipPath><radialGradient
       fx="0"
       fy="0"
       cx="0"
       cy="0"
       r="1"
       gradientUnits="userSpaceOnUse"
       gradientTransform="matrix(8.8172455,0,0,-8.8172455,327.58789,561.40332)"
       spreadMethod="pad"
       id="radialGradient464"><stop
         style="stop-opacity:1;stop-color:#eff0f0"
         offset="0"
         id="stop458" /><stop
         style="stop-opacity:1;stop-color:#888c8f"
         offset="0.66222534"
         id="stop460" /><stop
         style="stop-opacity:1;stop-color:#888c8f"
         offset="1"
         id="stop462" /></radialGradient><clipPath
       clipPathUnits="userSpaceOnUse"
       id="clipPath474"><path
         d="M 0,792 H 612 V 0 H 0 Z"
         id="path472" /></clipPath><linearGradient
       x1="0"
       y1="0"
       x2="1"
       y2="0"
       gradientUnits="userSpaceOnUse"
       gradientTransform="matrix(0,-8.7778015,-8.7778015,0,327.58887,569.37695)"
       spreadMethod="pad"
       id="linearGradient506"><stop
         style="stop-opacity:1;stop-color:#eff0f0"
         offset="0"
         id="stop500" /><stop
         style="stop-opacity:1;stop-color:#888c8f"
         offset="0.56736623"
         id="stop502" /><stop
         style="stop-opacity:1;stop-color:#888c8f"
         offset="1"
         id="stop504" /></linearGradient><clipPath
       clipPathUnits="userSpaceOnUse"
       id="clipPath516"><path
         d="M 0,792 H 612 V 0 H 0 Z"
         id="path514" /></clipPath><linearGradient
       x1="0"
       y1="0"
       x2="1"
       y2="0"
       gradientUnits="userSpaceOnUse"
       gradientTransform="matrix(7.9385986,4.653656,4.653656,-7.9385986,318.55957,553.58643)"
       spreadMethod="pad"
       id="linearGradient540"><stop
         style="stop-opacity:1;stop-color:#eff0f0"
         offset="0"
         id="stop534" /><stop
         style="stop-opacity:1;stop-color:#888c8f"
         offset="0.56736623"
         id="stop536" /><stop
         style="stop-opacity:1;stop-color:#888c8f"
         offset="1"
         id="stop538" /></linearGradient><clipPath
       clipPathUnits="userSpaceOnUse"
       id="clipPath550"><path
         d="M 0,792 H 612 V 0 H 0 Z"
         id="path548" /></clipPath><linearGradient
       x1="0"
       y1="0"
       x2="1"
       y2="0"
       gradientUnits="userSpaceOnUse"
       gradientTransform="matrix(-7.9386749,4.5625458,4.5625458,7.9386749,336.71289,553.58008)"
       spreadMethod="pad"
       id="linearGradient574"><stop
         style="stop-opacity:1;stop-color:#eff0f0"
         offset="0"
         id="stop568" /><stop
         style="stop-opacity:1;stop-color:#888c8f"
         offset="0.56736623"
         id="stop570" /><stop
         style="stop-opacity:1;stop-color:#888c8f"
         offset="1"
         id="stop572" /></linearGradient><clipPath
       clipPathUnits="userSpaceOnUse"
       id="clipPath584"><path
         d="M 0,792 H 612 V 0 H 0 Z"
         id="path582" /></clipPath><radialGradient
       fx="0"
       fy="0"
       cx="0"
       cy="0"
       r="1"
       gradientUnits="userSpaceOnUse"
       gradientTransform="matrix(1.7643585,0,0,-1.7643585,327.20605,559.32568)"
       spreadMethod="pad"
       id="radialGradient608"><stop
         style="stop-opacity:1;stop-color:#ffffff"
         offset="0"
         id="stop602" /><stop
         style="stop-opacity:1;stop-color:#888c8f"
         offset="0.44183858"
         id="stop604" /><stop
         style="stop-opacity:1;stop-color:#888c8f"
         offset="1"
         id="stop606" /></radialGradient><clipPath
       clipPathUnits="userSpaceOnUse"
       id="clipPath618"><path
         d="M 0,792 H 612 V 0 H 0 Z"
         id="path616" /></clipPath></defs><g
     id="g10"
     transform="matrix(1.3333333,0,0,-1.3333333,-339.93372,811.41085)"><g
       id="g12"><g
         id="g14"
         clip-path="url(#clipPath18)"><g
           id="g20"
           transform="translate(272.626,590.7744)"><path
             d="M 0,0 C 0,3.739 2.374,6.207 2.374,10.226"
             style="fill:none;stroke:#231f20;stroke-width:0.3;stroke-linecap:butt;stroke-linejoin:miter;stroke-miterlimit:10;stroke-dasharray:none;stroke-opacity:1"
             id="path22" /></g><g
           id="g24"
           transform="translate(274.4854,591.3213)"><path
             d="M 0,0 -1.87,-3.238 -3.739,0 Z"
             style="fill:#231f20;fill-opacity:1;fill-rule:nonzero;stroke:none"
             id="path26" /></g><text
           transform="matrix(1,0,0,-1,262.502,602.4102)"
           style="font-variant:normal;font-weight:bold;font-stretch:condensed;font-size:9px;font-family:'Humanst521 Cn BT';-inkscape-font-specification:Humanist521BT-BoldCondensed;writing-mode:lr-tb;fill:#201d1c;fill-opacity:1;fill-rule:nonzero;stroke:none"
           id="text30"><tspan
             x="0 4.842 8.8920002 12.492 16.677 21.159"
             y="0"
             id="tspan28">Backup</tspan></text><g
           id="g32"
           transform="translate(292.4463,578.4053)"><path
             d="M 0,0 V -41.12 H -37.246 V 8.557 h 29.768 c 0,0 1.873,-0.204 4.581,-2.883 C 0,2.809 0,0 0,0"
             style="fill:#ffffff;fill-opacity:1;fill-rule:nonzero;stroke:none"
             id="path34" /></g><g
           id="g36"
           transform="translate(292.4463,578.4053)"><path
             d="M 0,0 V -41.12 H -37.246 V 8.557 h 29.768 c 0,0 1.873,-0.204 4.581,-2.883 C 0,2.809 0,0 0,0 Z"
             style="fill:none;stroke:#231f20;stroke-width:0.5;stroke-linecap:butt;stroke-linejoin:miter;stroke-miterlimit:4;stroke-dasharray:none;stroke-opacity:1"
             id="path38" /></g><g
           id="g40"
           transform="translate(284.9688,586.9624)"><path
             d="m 0,0 v -6.173 c 0,0 3.929,0.079 5.593,0 1.31,-0.064 1.684,-1.156 1.684,-1.156"
             style="fill:none;stroke:#231f20;stroke-width:0.5;stroke-linecap:butt;stroke-linejoin:miter;stroke-miterlimit:4;stroke-dasharray:none;stroke-opacity:1"
             id="path42" /></g><g
           id="g44"
           transform="translate(303.0908,562.7251)"><path
             d="m 0,0 c -0.951,0.283 -1.57,0.547 -2.334,0.85 l 0.01,-2.903 c 0.271,0.131 1.379,0.576 2.326,0.867 1.018,0.313 1.939,0.524 2.537,0.602 C 1.939,-0.512 1.016,-0.303 0,0"
             style="fill:#231f20;fill-opacity:1;fill-rule:nonzero;stroke:none"
             id="path46" /></g><g
           id="g48"
           transform="translate(301.3857,562.1235)"><path
             d="M 0,0 H -8.88"
             style="fill:none;stroke:#231f20;stroke-width:0.5;stroke-linecap:butt;stroke-linejoin:miter;stroke-miterlimit:4;stroke-dasharray:none;stroke-opacity:1"
             id="path50" /></g><g
           id="g52"
           transform="translate(258.0688,573.4575)"><path
             d="m 0,0 c -0.017,-0.09 -0.119,-0.158 -0.221,-0.158 -0.136,0 -0.243,0.118 -0.243,0.271 0,0.159 0.13,0.266 0.243,0.289 l 1.172,0.685 c 0.125,0.074 0.215,0.136 0.334,0.136 0.147,0 0.238,-0.085 0.238,-0.209 0,-0.08 -0.04,-0.148 -0.08,-0.193 v -2.949 c 0.023,-0.029 0.052,-0.068 0.052,-0.147 0,-0.12 -0.08,-0.227 -0.374,-0.227 -0.193,0 -0.289,0.011 -0.289,0.198 0,0.085 0.04,0.142 0.079,0.187 v 2.655 z"
             style="fill:#231f20;fill-opacity:1;fill-rule:nonzero;stroke:none"
             id="path54" /></g><g
           id="g56"
           transform="translate(263.6431,572.4897)"><path
             d="m 0,0 c 0,0.175 -0.142,0.43 -0.504,0.43 -0.543,0 -1.104,-0.566 -1.466,-1.093 0.113,-0.26 0.396,-0.481 0.69,-0.481 C -0.827,-1.144 0,-0.81 0,0 m -2.361,-1.076 c -0.141,-0.011 -0.3,0.187 -0.221,0.391 -0.096,0.204 -0.141,0.453 -0.141,0.64 0,1.081 0.866,2.304 2.021,2.304 0.572,0 1.013,-0.255 1.013,-0.606 0,-0.158 -0.136,-0.26 -0.306,-0.26 -0.237,0 -0.294,0.175 -0.255,0.266 -0.056,0.096 -0.243,0.147 -0.498,0.147 -0.832,0 -1.438,-1.014 -1.438,-1.749 0,-0.079 0.018,-0.204 0.04,-0.278 0.385,0.561 1.019,1.104 1.67,1.104 0.776,0 1.048,-0.475 1.048,-0.861 0,-1.081 -1.059,-1.618 -1.829,-1.618 -0.453,0 -0.759,0.158 -1.104,0.52"
             style="fill:#231f20;fill-opacity:1;fill-rule:nonzero;stroke:none"
             id="path58" /></g><g
           id="g60"
           transform="translate(266.5674,573.8599)"><path
             d="M 0,0 -1.279,-1.495 0,-1.308 Z m -1.545,-1.999 c -0.051,-0.034 -0.147,-0.067 -0.238,-0.067 -0.198,0 -0.266,0.124 -0.266,0.299 0,0.091 0.091,0.193 0.17,0.238 l 1.811,2.106 c 0.006,0.108 0.136,0.215 0.329,0.215 0.198,0 0.322,-0.124 0.322,-0.26 0,-0.079 -0.011,-0.153 -0.045,-0.198 v -1.557 l 0.504,0.079 c 0.045,0.045 0.107,0.068 0.158,0.068 0.142,0 0.244,-0.056 0.244,-0.272 0,-0.215 -0.102,-0.328 -0.227,-0.328 -0.05,0 -0.118,0.023 -0.158,0.057 L 0.538,-1.687 v -0.792 c 0.04,-0.035 0.079,-0.103 0.079,-0.159 0,-0.17 -0.141,-0.272 -0.413,-0.272 -0.198,0 -0.255,0.119 -0.255,0.232 0,0.062 0.017,0.119 0.051,0.147 v 0.759 z"
             style="fill:#231f20;fill-opacity:1;fill-rule:nonzero;stroke:none"
             id="path62" /></g><g
           id="g64"
           transform="translate(269.1299,574.1992)"><path
             d="m 0,0 v -0.187 c 0.028,-0.034 0.04,-0.09 0.04,-0.152 0,-0.097 -0.142,-0.216 -0.3,-0.216 -0.193,0 -0.283,0.102 -0.283,0.187 0,0.097 0.028,0.181 0.067,0.198 v 0.391 c 0,0.13 0.08,0.232 0.244,0.232 h 2.049 c 0.159,0 0.249,-0.074 0.249,-0.187 0,-0.141 -0.062,-0.221 -0.147,-0.311 L 1.178,-0.798 c 0.101,0.028 0.186,0.04 0.367,0.04 0.419,0 0.844,-0.329 0.844,-0.934 0,-1.133 -0.951,-1.608 -2.083,-1.608 -0.498,0 -0.957,0.294 -0.957,0.872 0,0.192 0.147,0.356 0.34,0.356 0.209,0 0.283,-0.124 0.283,-0.238 0,-0.147 -0.074,-0.141 -0.102,-0.175 0.062,-0.244 0.238,-0.357 0.56,-0.357 0.799,0 1.404,0.38 1.404,1.082 0,0.266 -0.152,0.566 -0.486,0.566 -0.652,0 -0.867,-0.3 -1.082,-0.3 -0.147,0 -0.238,0.136 -0.238,0.288 0,0.261 0.272,0.153 0.521,0.402 L 1.325,0 Z"
             style="fill:#231f20;fill-opacity:1;fill-rule:nonzero;stroke:none"
             id="path66" /></g><g
           id="g68"
           transform="translate(274.8853,570.9839)"><path
             d="m 0,0 h -2.055 c -0.051,-0.04 -0.136,-0.074 -0.283,-0.074 -0.164,0 -0.244,0.091 -0.244,0.148 0,0.305 0.17,0.583 0.312,0.803 0.425,0.657 0.957,0.889 1.285,1.093 0.328,0.193 0.527,0.481 0.527,0.81 0,0.305 -0.227,0.464 -0.555,0.464 -0.482,0 -0.719,-0.164 -0.895,-0.464 -0.022,-0.029 -0.011,-0.097 -0.011,-0.136 0,-0.068 -0.136,-0.204 -0.323,-0.204 -0.203,0 -0.322,0.136 -0.322,0.289 0,0.096 0.079,0.215 0.164,0.215 0.305,0.549 0.764,0.753 1.443,0.753 0.645,0 1.059,-0.374 1.059,-0.895 0,-0.702 -0.43,-1.008 -0.815,-1.211 -0.464,-0.255 -0.94,-0.572 -1.178,-1.138 h 1.579 c 0,0.237 0.041,0.328 0.29,0.328 0.152,0 0.237,-0.102 0.237,-0.464 C 0.215,0.09 0.17,0 0,0"
             style="fill:#231f20;fill-opacity:1;fill-rule:nonzero;stroke:none"
             id="path70" /></g><g
           id="g72"
           transform="translate(277.4536,572.2632)"><path
             d="m 0,0 c -0.753,-0.09 -1.274,-0.543 -1.274,-0.798 0,-0.097 0.079,-0.13 0.187,-0.13 0.419,0 1.087,0.492 1.087,0.753 z m 0.011,0.64 c 0,0.147 -0.056,0.22 -0.204,0.22 -0.311,0 -0.572,-0.107 -0.781,-0.243 0.012,-0.045 -0.073,-0.159 -0.238,-0.159 -0.136,0 -0.237,0.153 -0.237,0.267 0,0.107 0.136,0.254 0.254,0.232 0.295,0.187 0.691,0.311 1.2,0.311 0.289,0 0.516,-0.186 0.516,-0.509 v -1.733 c 0.028,-0.022 0.045,-0.079 0.045,-0.135 0,-0.17 -0.198,-0.204 -0.374,-0.204 -0.187,0 -0.237,0.079 -0.237,0.181 0,0.051 0.022,0.09 0.045,0.136 v 0.254 h -0.012 c -0.402,-0.441 -0.792,-0.639 -1.262,-0.639 -0.289,0 -0.521,0.164 -0.521,0.453 0,0.498 0.617,1.143 1.806,1.279 z"
             style="fill:#231f20;fill-opacity:1;fill-rule:nonzero;stroke:none"
             id="path74" /></g><g
           id="g76"
           transform="translate(281.3677,570.9839)"><path
             d="m 0,0 h -2.055 c -0.051,-0.04 -0.136,-0.074 -0.283,-0.074 -0.164,0 -0.244,0.091 -0.244,0.148 0,0.305 0.17,0.583 0.312,0.803 0.425,0.657 0.957,0.889 1.285,1.093 0.328,0.193 0.527,0.481 0.527,0.81 0,0.305 -0.227,0.464 -0.555,0.464 -0.482,0 -0.719,-0.164 -0.895,-0.464 -0.022,-0.029 -0.011,-0.097 -0.011,-0.136 0,-0.068 -0.136,-0.204 -0.323,-0.204 -0.203,0 -0.322,0.136 -0.322,0.289 0,0.096 0.079,0.215 0.164,0.215 0.305,0.549 0.764,0.753 1.443,0.753 0.645,0 1.059,-0.374 1.059,-0.895 0,-0.702 -0.43,-1.008 -0.815,-1.211 -0.464,-0.255 -0.94,-0.572 -1.178,-1.138 h 1.579 c 0,0.237 0.041,0.328 0.29,0.328 0.152,0 0.237,-0.102 0.237,-0.464 C 0.215,0.09 0.17,0 0,0"
             style="fill:#231f20;fill-opacity:1;fill-rule:nonzero;stroke:none"
             id="path78" /></g><g
           id="g80"
           transform="translate(282.8262,572.2295)"><path
             d="m 0,0 c 0,-0.617 0.312,-0.855 0.651,-0.855 0.504,0 1.534,0.459 1.534,1.925 0,0.566 -0.294,0.906 -0.781,0.906 C 0.787,1.976 0,1.438 0,0 m 2.746,1.115 c 0,-1.936 -1.523,-2.446 -2.095,-2.446 -0.713,0 -1.223,0.436 -1.223,1.303 0,1.766 1.155,2.479 1.999,2.479 0.583,0 1.319,-0.39 1.319,-1.336"
             style="fill:#231f20;fill-opacity:1;fill-rule:nonzero;stroke:none"
             id="path82" /></g><g
           id="g84"
           transform="translate(286.7476,573.8765)"><path
             d="m 0,0 c 0.028,-0.034 0.045,-0.073 0.045,-0.119 0,-0.107 -0.164,-0.226 -0.339,-0.22 -0.159,0.005 -0.249,0.135 -0.249,0.209 0,0.051 0.022,0.102 0.056,0.142 v 0.413 c 0,0.141 0.045,0.221 0.278,0.232 L 1.823,0.753 C 1.976,0.765 1.993,0.804 2.021,0.849 2.043,0.889 2.072,0.934 2.23,0.934 2.4,0.934 2.524,0.838 2.524,0.725 2.524,0.634 2.502,0.51 2.4,0.436 2.264,0.198 1.947,-0.407 1.568,-1.16 1.194,-1.891 0.945,-2.372 0.849,-2.615 0.854,-2.864 0.764,-2.989 0.503,-2.989 c -0.169,0 -0.254,0.131 -0.254,0.295 0,0.113 0.096,0.277 0.164,0.419 L 1.749,0.329 C 1.692,0.312 1.585,0.3 1.466,0.294 L 0,0.209 Z"
             style="fill:#231f20;fill-opacity:1;fill-rule:nonzero;stroke:none"
             id="path86" /></g><g
           id="g88"
           transform="translate(257.9614,566.6646)"><path
             d="m 0,0 c 0.028,-0.034 0.045,-0.073 0.045,-0.119 0,-0.107 -0.164,-0.226 -0.339,-0.22 -0.159,0.005 -0.249,0.135 -0.249,0.209 0,0.051 0.022,0.102 0.056,0.142 v 0.413 c 0,0.141 0.045,0.221 0.278,0.232 L 1.823,0.753 C 1.976,0.765 1.993,0.804 2.021,0.849 2.043,0.889 2.072,0.934 2.23,0.934 2.4,0.934 2.524,0.838 2.524,0.725 2.524,0.634 2.502,0.51 2.4,0.436 2.264,0.198 1.947,-0.407 1.568,-1.16 1.194,-1.891 0.945,-2.372 0.849,-2.615 0.854,-2.864 0.764,-2.989 0.503,-2.989 c -0.169,0 -0.254,0.131 -0.254,0.295 0,0.113 0.096,0.277 0.164,0.419 L 1.749,0.329 C 1.692,0.312 1.585,0.3 1.466,0.294 L 0,0.209 Z"
             style="fill:#231f20;fill-opacity:1;fill-rule:nonzero;stroke:none"
             id="path90" /></g><g
           id="g92"
           transform="translate(262.6069,567.1006)"><path
             d="m 0,0 c -0.419,0 -0.725,-0.249 -0.725,-0.657 0,-0.232 0.136,-0.362 0.267,-0.379 0.175,0.068 0.486,0.13 0.656,0.153 0.142,0.119 0.278,0.345 0.278,0.527 C 0.476,-0.147 0.34,0 0,0 m -1.2,-2.514 c 0,-0.243 0.345,-0.418 0.509,-0.418 0.742,0 1.755,0.622 1.755,1.217 0,0.204 -0.243,0.373 -0.69,0.373 -0.736,0 -1.574,-0.549 -1.574,-1.172 M -1.75,-2.53 c 0,0.549 0.482,1.064 0.822,1.245 v 0.012 c -0.181,0.09 -0.329,0.249 -0.329,0.583 0,0.747 0.64,1.126 1.359,1.126 0.588,0 0.922,-0.283 0.922,-0.634 0,-0.249 -0.124,-0.544 -0.288,-0.685 L 0.742,-0.895 C 1.064,-0.9 1.63,-1.104 1.63,-1.67 c 0,-0.928 -1.398,-1.721 -2.355,-1.721 -0.384,0 -1.025,0.278 -1.025,0.861"
             style="fill:#231f20;fill-opacity:1;fill-rule:nonzero;stroke:none"
             id="path94" /></g><g
           id="g96"
           transform="translate(267.1226,567.0044)"><path
             d="m 0,0 -1.63,-0.113 c 0,-0.079 -0.04,-0.73 -0.085,-0.968 0.56,0.402 0.956,0.413 1.234,0.413 0.538,0 1.177,-0.227 1.177,-1.008 0,-1.155 -1.126,-1.641 -1.845,-1.641 -0.561,0 -0.85,0.158 -1.048,0.379 -0.141,0.034 -0.181,0.13 -0.181,0.232 0,0.142 0.028,0.345 0.312,0.345 0.203,0 0.243,-0.136 0.243,-0.26 0,-0.068 0.204,-0.243 0.617,-0.243 0.77,0 1.347,0.509 1.347,1.109 0,0.385 -0.237,0.634 -0.702,0.634 -0.866,0.006 -1.149,-0.606 -1.46,-0.606 -0.142,0 -0.266,0.08 -0.266,0.216 0,0.113 0.079,0.277 0.096,0.481 0.045,0.436 0.057,1.087 0.057,1.183 0,0.124 0.101,0.164 0.226,0.17 l 1.817,0.124 C 0,0.498 0.085,0.526 0.147,0.526 0.339,0.526 0.424,0.391 0.424,0.232 0.424,0.034 0.322,-0.051 0.153,-0.051 0.09,-0.051 0.04,-0.028 0,0"
             style="fill:#231f20;fill-opacity:1;fill-rule:nonzero;stroke:none"
             id="path98" /></g><g
           id="g100"
           transform="translate(268.9771,565.2271)"><path
             d="M 0,0 C 1.002,0.175 1.144,0.26 1.144,0.339 1.144,0.475 1.047,0.628 0.798,0.628 0.476,0.628 0.17,0.362 0,0 m 1.647,0.362 c 0,-0.255 -0.175,-0.487 -1.488,-0.719 l -0.261,-0.045 c -0.028,-0.091 -0.04,-0.193 -0.04,-0.306 0,-0.283 0.148,-0.396 0.391,-0.396 0.391,0 0.719,0.227 0.821,0.379 -0.017,0.13 0.097,0.249 0.283,0.249 0.21,0 0.255,-0.136 0.255,-0.249 0,-0.158 -0.493,-0.82 -1.421,-0.82 -0.481,0 -0.849,0.209 -0.849,0.792 0,1.053 0.742,1.812 1.483,1.812 0.639,0 0.826,-0.476 0.826,-0.697"
             style="fill:#231f20;fill-opacity:1;fill-rule:nonzero;stroke:none"
             id="path102" /></g><g
           id="g104"
           transform="translate(273.2026,565.8438)"><path
             d="m 0,0 c 0,-0.158 -0.102,-0.277 -0.328,-0.277 -0.125,0 -0.153,0.073 -0.181,0.141 -0.034,0.068 -0.074,0.142 -0.266,0.142 -0.199,0 -0.369,-0.102 -0.533,-0.283 -0.192,-0.193 -0.396,-0.515 -0.396,-0.9 0,-0.345 0.176,-0.55 0.516,-0.55 0.129,0 0.249,0.052 0.362,0.12 0.124,0.073 0.26,0.197 0.334,0.339 0.034,0.153 0.068,0.266 0.249,0.266 0.215,0 0.277,-0.153 0.277,-0.238 0,-0.062 -0.17,-0.419 -0.492,-0.651 -0.244,-0.192 -0.504,-0.288 -0.855,-0.288 -0.561,0 -0.912,0.385 -0.912,0.917 0,0.651 0.249,0.956 0.583,1.302 0.159,0.181 0.55,0.402 0.855,0.402 C -0.351,0.442 0,0.244 0,0"
             style="fill:#231f20;fill-opacity:1;fill-rule:nonzero;stroke:none"
             id="path106" /></g><g
           id="g108"
           transform="translate(276.1211,567.0044)"><path
             d="m 0,0 -1.63,-0.113 c 0,-0.079 -0.04,-0.73 -0.085,-0.968 0.56,0.402 0.956,0.413 1.234,0.413 0.538,0 1.177,-0.227 1.177,-1.008 0,-1.155 -1.127,-1.641 -1.845,-1.641 -0.561,0 -0.85,0.158 -1.048,0.379 -0.141,0.034 -0.181,0.13 -0.181,0.232 0,0.142 0.028,0.345 0.312,0.345 0.203,0 0.243,-0.136 0.243,-0.26 0,-0.068 0.204,-0.243 0.617,-0.243 0.77,0 1.347,0.509 1.347,1.109 0,0.385 -0.237,0.634 -0.702,0.634 -0.866,0.006 -1.149,-0.606 -1.46,-0.606 -0.142,0 -0.266,0.08 -0.266,0.216 0,0.113 0.079,0.277 0.096,0.481 0.045,0.436 0.057,1.087 0.057,1.183 0,0.124 0.101,0.164 0.226,0.17 l 1.817,0.124 C 0,0.498 0.085,0.526 0.147,0.526 0.339,0.526 0.424,0.391 0.424,0.232 0.424,0.034 0.322,-0.051 0.153,-0.051 0.09,-0.051 0.04,-0.028 0,0"
             style="fill:#231f20;fill-opacity:1;fill-rule:nonzero;stroke:none"
             id="path110" /></g><g
           id="g112"
           transform="translate(279.5493,565.8438)"><path
             d="m 0,0 c 0,-0.158 -0.102,-0.277 -0.328,-0.277 -0.125,0 -0.153,0.073 -0.181,0.141 -0.034,0.068 -0.074,0.142 -0.266,0.142 -0.199,0 -0.369,-0.102 -0.533,-0.283 -0.192,-0.193 -0.396,-0.515 -0.396,-0.9 0,-0.345 0.176,-0.55 0.516,-0.55 0.129,0 0.249,0.052 0.362,0.12 0.124,0.073 0.26,0.197 0.334,0.339 0.034,0.153 0.068,0.266 0.249,0.266 0.215,0 0.277,-0.153 0.277,-0.238 0,-0.062 -0.17,-0.419 -0.492,-0.651 -0.244,-0.192 -0.504,-0.288 -0.855,-0.288 -0.561,0 -0.912,0.385 -0.912,0.917 0,0.651 0.249,0.956 0.583,1.302 0.159,0.181 0.55,0.402 0.855,0.402 C -0.351,0.442 0,0.244 0,0"
             style="fill:#231f20;fill-opacity:1;fill-rule:nonzero;stroke:none"
             id="path114" /></g><g
           id="g116"
           transform="translate(281.9121,566.6479)"><path
             d="M 0,0 -1.279,-1.495 0,-1.308 Z m -1.545,-1.999 c -0.051,-0.034 -0.147,-0.067 -0.238,-0.067 -0.198,0 -0.266,0.124 -0.266,0.299 0,0.091 0.091,0.193 0.17,0.238 l 1.811,2.106 c 0.006,0.108 0.136,0.215 0.329,0.215 0.198,0 0.322,-0.124 0.322,-0.26 0,-0.079 -0.011,-0.153 -0.045,-0.198 v -1.557 l 0.504,0.079 c 0.045,0.045 0.107,0.068 0.158,0.068 0.142,0 0.244,-0.056 0.244,-0.272 0,-0.215 -0.102,-0.328 -0.227,-0.328 -0.05,0 -0.118,0.023 -0.158,0.057 L 0.538,-1.687 v -0.792 c 0.04,-0.035 0.079,-0.103 0.079,-0.159 0,-0.17 -0.141,-0.272 -0.413,-0.272 -0.198,0 -0.255,0.119 -0.255,0.232 0,0.062 0.017,0.119 0.051,0.147 v 0.759 z"
             style="fill:#231f20;fill-opacity:1;fill-rule:nonzero;stroke:none"
             id="path118" /></g><g
           id="g120"
           transform="translate(284.3218,565.2271)"><path
             d="M 0,0 C 1.002,0.175 1.144,0.26 1.144,0.339 1.144,0.475 1.047,0.628 0.798,0.628 0.476,0.628 0.17,0.362 0,0 m 1.647,0.362 c 0,-0.255 -0.175,-0.487 -1.488,-0.719 l -0.261,-0.045 c -0.028,-0.091 -0.04,-0.193 -0.04,-0.306 0,-0.283 0.148,-0.396 0.391,-0.396 0.391,0 0.719,0.227 0.821,0.379 -0.017,0.13 0.097,0.249 0.283,0.249 0.21,0 0.255,-0.136 0.255,-0.249 0,-0.158 -0.493,-0.82 -1.421,-0.82 -0.481,0 -0.849,0.209 -0.849,0.792 0,1.053 0.742,1.812 1.483,1.812 0.639,0 0.826,-0.476 0.826,-0.697"
             style="fill:#231f20;fill-opacity:1;fill-rule:nonzero;stroke:none"
             id="path122" /></g><g
           id="g124"
           transform="translate(288.8369,567.0044)"><path
             d="m 0,0 -1.63,-0.113 c 0,-0.079 -0.04,-0.73 -0.085,-0.968 0.56,0.402 0.956,0.413 1.234,0.413 0.538,0 1.177,-0.227 1.177,-1.008 0,-1.155 -1.127,-1.641 -1.845,-1.641 -0.561,0 -0.85,0.158 -1.048,0.379 -0.141,0.034 -0.181,0.13 -0.181,0.232 0,0.142 0.028,0.345 0.312,0.345 0.203,0 0.243,-0.136 0.243,-0.26 0,-0.068 0.204,-0.243 0.617,-0.243 0.77,0 1.347,0.509 1.347,1.109 0,0.385 -0.237,0.634 -0.702,0.634 -0.866,0.006 -1.149,-0.606 -1.46,-0.606 -0.142,0 -0.266,0.08 -0.266,0.216 0,0.113 0.079,0.277 0.096,0.481 0.045,0.436 0.057,1.087 0.057,1.183 0,0.124 0.101,0.164 0.226,0.17 l 1.817,0.124 C 0,0.498 0.085,0.526 0.147,0.526 0.339,0.526 0.424,0.391 0.424,0.232 0.424,0.034 0.322,-0.051 0.153,-0.051 0.09,-0.051 0.04,-0.028 0,0"
             style="fill:#231f20;fill-opacity:1;fill-rule:nonzero;stroke:none"
             id="path126" /></g><g
           id="g128"
           transform="translate(258.8672,557.8389)"><path
             d="m 0,0 c -0.753,-0.09 -1.274,-0.543 -1.274,-0.798 0,-0.097 0.079,-0.13 0.187,-0.13 0.419,0 1.087,0.492 1.087,0.753 z m 0.011,0.64 c 0,0.147 -0.056,0.22 -0.204,0.22 -0.311,0 -0.572,-0.107 -0.781,-0.243 0.012,-0.045 -0.073,-0.159 -0.238,-0.159 -0.136,0 -0.237,0.153 -0.237,0.267 0,0.107 0.136,0.254 0.254,0.232 0.295,0.187 0.691,0.311 1.2,0.311 0.289,0 0.516,-0.186 0.516,-0.509 v -1.733 c 0.028,-0.022 0.045,-0.079 0.045,-0.135 0,-0.17 -0.198,-0.204 -0.374,-0.204 -0.187,0 -0.237,0.079 -0.237,0.181 0,0.051 0.022,0.09 0.045,0.136 v 0.254 h -0.012 c -0.402,-0.441 -0.792,-0.639 -1.262,-0.639 -0.289,0 -0.521,0.164 -0.521,0.453 0,0.498 0.617,1.143 1.806,1.279 z"
             style="fill:#231f20;fill-opacity:1;fill-rule:nonzero;stroke:none"
             id="path130" /></g><g
           id="g132"
           transform="translate(262.7813,556.5596)"><path
             d="m 0,0 h -2.055 c -0.051,-0.04 -0.136,-0.074 -0.283,-0.074 -0.164,0 -0.244,0.091 -0.244,0.148 0,0.305 0.17,0.583 0.312,0.803 0.424,0.657 0.957,0.889 1.285,1.093 0.328,0.193 0.527,0.481 0.527,0.81 0,0.305 -0.227,0.464 -0.555,0.464 -0.482,0 -0.719,-0.164 -0.895,-0.464 -0.022,-0.029 -0.011,-0.097 -0.011,-0.136 0,-0.068 -0.136,-0.204 -0.323,-0.204 -0.203,0 -0.322,0.136 -0.322,0.289 0,0.096 0.079,0.215 0.164,0.215 0.305,0.549 0.764,0.753 1.443,0.753 0.645,0 1.059,-0.374 1.059,-0.895 0,-0.702 -0.43,-1.008 -0.815,-1.211 -0.464,-0.255 -0.94,-0.572 -1.178,-1.138 h 1.579 c 0,0.237 0.041,0.328 0.29,0.328 0.152,0 0.237,-0.102 0.237,-0.464 C 0.215,0.091 0.17,0 0,0"
             style="fill:#231f20;fill-opacity:1;fill-rule:nonzero;stroke:none"
             id="path134" /></g><g
           id="g136"
           transform="translate(266.4985,556.5596)"><path
             d="m 0,0 h -2.055 c -0.051,-0.04 -0.136,-0.074 -0.283,-0.074 -0.164,0 -0.244,0.091 -0.244,0.148 0,0.305 0.17,0.583 0.312,0.803 0.425,0.657 0.957,0.889 1.285,1.093 0.328,0.193 0.527,0.481 0.527,0.81 0,0.305 -0.227,0.464 -0.555,0.464 -0.482,0 -0.719,-0.164 -0.895,-0.464 -0.022,-0.029 -0.011,-0.097 -0.011,-0.136 0,-0.068 -0.136,-0.204 -0.323,-0.204 -0.203,0 -0.322,0.136 -0.322,0.289 0,0.096 0.079,0.215 0.164,0.215 0.305,0.549 0.764,0.753 1.443,0.753 0.645,0 1.059,-0.374 1.059,-0.895 0,-0.702 -0.43,-1.008 -0.815,-1.211 -0.464,-0.255 -0.94,-0.572 -1.178,-1.138 h 1.579 c 0,0.237 0.041,0.328 0.29,0.328 0.152,0 0.237,-0.102 0.237,-0.464 C 0.215,0.091 0.17,0 0,0"
             style="fill:#231f20;fill-opacity:1;fill-rule:nonzero;stroke:none"
             id="path138" /></g><g
           id="g140"
           transform="translate(270.1255,558.0654)"><path
             d="m 0,0 c 0,0.175 -0.142,0.43 -0.504,0.43 -0.543,0 -1.104,-0.566 -1.466,-1.093 0.113,-0.26 0.396,-0.481 0.69,-0.481 C -0.827,-1.144 0,-0.81 0,0 m -2.361,-1.076 c -0.141,-0.011 -0.3,0.187 -0.221,0.391 -0.096,0.204 -0.141,0.453 -0.141,0.64 0,1.081 0.866,2.304 2.021,2.304 0.572,0 1.013,-0.255 1.013,-0.606 0,-0.158 -0.136,-0.26 -0.306,-0.26 -0.237,0 -0.294,0.175 -0.255,0.266 -0.056,0.096 -0.243,0.147 -0.498,0.147 -0.832,0 -1.438,-1.014 -1.438,-1.749 0,-0.079 0.018,-0.204 0.04,-0.278 0.385,0.561 1.019,1.104 1.67,1.104 0.776,0 1.048,-0.475 1.048,-0.861 0,-1.081 -1.059,-1.619 -1.829,-1.619 -0.453,0 -0.759,0.159 -1.104,0.521"
             style="fill:#231f20;fill-opacity:1;fill-rule:nonzero;stroke:none"
             id="path142" /></g><g
           id="g144"
           transform="translate(271.7422,558.0146)"><path
             d="M 0,0 C 1.002,0.175 1.144,0.26 1.144,0.339 1.144,0.475 1.047,0.628 0.798,0.628 0.476,0.628 0.17,0.362 0,0 m 1.647,0.362 c 0,-0.255 -0.175,-0.487 -1.488,-0.719 l -0.261,-0.045 c -0.028,-0.091 -0.04,-0.193 -0.04,-0.306 0,-0.283 0.148,-0.396 0.391,-0.396 0.391,0 0.719,0.227 0.821,0.379 -0.017,0.13 0.097,0.249 0.283,0.249 0.21,0 0.255,-0.136 0.255,-0.249 0,-0.158 -0.493,-0.821 -1.421,-0.821 -0.481,0 -0.849,0.21 -0.849,0.793 0,1.053 0.742,1.812 1.483,1.812 0.639,0 0.826,-0.476 0.826,-0.697"
             style="fill:#231f20;fill-opacity:1;fill-rule:nonzero;stroke:none"
             id="path146" /></g><g
           id="g148"
           transform="translate(274.5469,559.7749)"><path
             d="m 0,0 v -0.187 c 0.028,-0.034 0.04,-0.09 0.04,-0.152 0,-0.097 -0.142,-0.216 -0.3,-0.216 -0.193,0 -0.283,0.102 -0.283,0.187 0,0.097 0.028,0.181 0.067,0.198 v 0.391 c 0,0.13 0.08,0.232 0.244,0.232 h 2.049 c 0.159,0 0.249,-0.074 0.249,-0.187 0,-0.141 -0.062,-0.221 -0.147,-0.311 L 1.178,-0.798 c 0.101,0.028 0.186,0.04 0.367,0.04 0.419,0 0.844,-0.329 0.844,-0.934 0,-1.133 -0.951,-1.608 -2.083,-1.608 -0.498,0 -0.957,0.294 -0.957,0.872 0,0.192 0.147,0.356 0.34,0.356 0.209,0 0.283,-0.124 0.283,-0.238 0,-0.147 -0.074,-0.141 -0.102,-0.175 0.062,-0.244 0.238,-0.357 0.56,-0.357 0.799,0 1.404,0.38 1.404,1.082 0,0.265 -0.152,0.566 -0.486,0.566 -0.652,0 -0.867,-0.301 -1.082,-0.301 -0.147,0 -0.238,0.137 -0.238,0.289 0,0.261 0.272,0.153 0.521,0.402 L 1.325,0 Z"
             style="fill:#231f20;fill-opacity:1;fill-rule:nonzero;stroke:none"
             id="path150" /></g><g
           id="g152"
           transform="translate(278.1567,556.9956)"><path
             d="M 0,0 C 0.566,0.192 1.189,0.781 1.189,1.426 1.189,1.568 1.002,1.585 0.94,1.585 0.719,1.585 0.323,1.426 0,1.098 Z M 0,1.579 0.011,1.568 c 0.283,0.244 0.708,0.464 1.167,0.464 0.334,0 0.549,-0.176 0.549,-0.577 0,-0.787 -1.037,-1.97 -2.027,-1.97 -0.209,0 -0.317,0.062 -0.317,0.232 0,0.068 0.045,0.164 0.091,0.192 V 2.87 C -0.578,2.938 -0.6,3.006 -0.6,3.074 c 0,0.147 0.249,0.209 0.385,0.209 0.13,0 0.26,-0.045 0.26,-0.209 C 0.045,3.023 0.028,2.966 0,2.921 Z"
             style="fill:#231f20;fill-opacity:1;fill-rule:nonzero;stroke:none"
             id="path154" /></g><g
           id="g156"
           transform="translate(280.5825,557.2388)"><path
             d="m 0,0 c 0,-0.175 0.057,-0.3 0.266,-0.3 0.277,0 0.561,0.204 0.798,0.453 0.221,0.221 0.391,0.385 0.391,0.708 0,0.215 -0.119,0.373 -0.362,0.373 C 0.634,1.234 0,0.464 0,0 M 1.466,2.599 C 1.41,2.627 1.387,2.7 1.387,2.791 c 0,0.142 0.147,0.244 0.34,0.244 0.187,0 0.283,-0.125 0.283,-0.261 L 1.993,2.582 v -2.916 c 0.028,-0.017 0.073,-0.074 0.073,-0.142 0,-0.175 -0.107,-0.237 -0.345,-0.237 -0.193,0 -0.283,0.073 -0.283,0.226 0,0.057 0,0.108 0.028,0.131 v 0.39 C 1.189,-0.391 0.583,-0.781 0.085,-0.781 c -0.334,0 -0.623,0.226 -0.623,0.668 0,0.889 0.906,1.778 1.625,1.778 0.159,0 0.277,-0.029 0.379,-0.097 z"
             style="fill:#231f20;fill-opacity:1;fill-rule:nonzero;stroke:none"
             id="path158" /></g><g
           id="g160"
           transform="translate(283.7612,558.0146)"><path
             d="M 0,0 C 1.002,0.175 1.144,0.26 1.144,0.339 1.144,0.475 1.047,0.628 0.798,0.628 0.476,0.628 0.17,0.362 0,0 m 1.647,0.362 c 0,-0.255 -0.175,-0.487 -1.488,-0.719 l -0.261,-0.045 c -0.028,-0.091 -0.04,-0.193 -0.04,-0.306 0,-0.283 0.148,-0.396 0.391,-0.396 0.391,0 0.719,0.227 0.821,0.379 -0.017,0.13 0.097,0.249 0.283,0.249 0.21,0 0.255,-0.136 0.255,-0.249 0,-0.158 -0.493,-0.821 -1.421,-0.821 -0.481,0 -0.849,0.21 -0.849,0.793 0,1.053 0.742,1.812 1.483,1.812 0.639,0 0.826,-0.476 0.826,-0.697"
             style="fill:#231f20;fill-opacity:1;fill-rule:nonzero;stroke:none"
             id="path162" /></g><g
           id="g164"
           transform="translate(258.8896,552.6763)"><path
             d="m 0,0 c -0.419,0 -0.725,-0.249 -0.725,-0.657 0,-0.232 0.136,-0.362 0.267,-0.379 0.175,0.068 0.486,0.13 0.656,0.153 0.142,0.119 0.278,0.345 0.278,0.527 C 0.476,-0.147 0.34,0 0,0 m -1.2,-2.513 c 0,-0.244 0.345,-0.419 0.509,-0.419 0.742,0 1.755,0.622 1.755,1.217 0,0.204 -0.243,0.373 -0.69,0.373 -0.736,0 -1.574,-0.549 -1.574,-1.171 M -1.75,-2.53 c 0,0.549 0.482,1.064 0.822,1.245 v 0.012 c -0.181,0.09 -0.329,0.249 -0.329,0.583 0,0.747 0.64,1.126 1.359,1.126 0.588,0 0.922,-0.283 0.922,-0.634 0,-0.249 -0.124,-0.544 -0.288,-0.685 L 0.742,-0.895 C 1.064,-0.9 1.63,-1.104 1.63,-1.67 c 0,-0.928 -1.398,-1.721 -2.355,-1.721 -0.384,0 -1.025,0.278 -1.025,0.861"
             style="fill:#231f20;fill-opacity:1;fill-rule:nonzero;stroke:none"
             id="path166" /></g><g
           id="g168"
           transform="translate(261.7861,551.8213)"><path
             d="m 0,0 c -0.017,-0.09 -0.119,-0.158 -0.221,-0.158 -0.136,0 -0.243,0.118 -0.243,0.271 0,0.159 0.13,0.266 0.243,0.289 l 1.172,0.685 c 0.125,0.074 0.215,0.136 0.334,0.136 0.147,0 0.238,-0.085 0.238,-0.209 0,-0.08 -0.04,-0.148 -0.08,-0.193 v -2.949 c 0.023,-0.029 0.052,-0.068 0.052,-0.147 0,-0.12 -0.08,-0.227 -0.374,-0.227 -0.193,0 -0.289,0.011 -0.289,0.198 0,0.085 0.04,0.142 0.079,0.187 v 2.655 z"
             style="fill:#231f20;fill-opacity:1;fill-rule:nonzero;stroke:none"
             id="path170" /></g><g
           id="g172"
           transform="translate(265.4014,551.731)"><path
             d="m 0,0 c 0,-0.198 0.391,-0.447 0.611,-0.447 0.583,0 1.201,0.419 1.201,0.815 0,0.226 -0.289,0.521 -0.719,0.521 C 0.498,0.889 0,0.6 0,0 M 2.208,0.77 C 2.344,0.725 2.412,0.538 2.412,0.408 2.412,0.362 2.406,0.328 2.389,0.3 c 0.045,-0.181 0.09,-0.385 0.09,-0.606 0,-1.285 -0.939,-2.179 -1.947,-2.179 -0.566,0 -0.888,0.243 -1.104,0.623 -0.074,0.011 -0.141,0.101 -0.141,0.203 0,0.244 0.204,0.323 0.328,0.323 0.26,0 0.345,-0.187 0.295,-0.317 0.096,-0.198 0.334,-0.379 0.594,-0.379 0.855,0 1.432,0.843 1.432,1.517 0,0.079 -0.005,0.17 -0.017,0.243 H 1.908 C 1.704,-0.594 1.104,-0.9 0.549,-0.9 c -0.656,0 -1.11,0.555 -1.11,0.849 0,0.917 0.714,1.393 1.71,1.393 0.436,0 0.798,-0.227 1.059,-0.572"
             style="fill:#231f20;fill-opacity:1;fill-rule:nonzero;stroke:none"
             id="path174" /></g><g
           id="g176"
           transform="translate(268.7563,550.0269)"><path
             d="m 0,0 c 0,-0.175 0.057,-0.3 0.266,-0.3 0.277,0 0.561,0.204 0.798,0.453 0.221,0.221 0.391,0.385 0.391,0.708 0,0.215 -0.119,0.373 -0.362,0.373 C 0.634,1.234 0,0.464 0,0 M 1.466,2.599 C 1.41,2.627 1.387,2.7 1.387,2.791 c 0,0.142 0.147,0.244 0.34,0.244 0.187,0 0.283,-0.125 0.283,-0.261 L 1.993,2.582 v -2.916 c 0.028,-0.017 0.073,-0.074 0.073,-0.142 0,-0.175 -0.107,-0.237 -0.345,-0.237 -0.193,0 -0.283,0.073 -0.283,0.226 0,0.057 0,0.108 0.028,0.131 v 0.39 C 1.189,-0.391 0.583,-0.781 0.085,-0.781 c -0.334,0 -0.623,0.226 -0.623,0.668 0,0.889 0.906,1.778 1.625,1.778 0.159,0 0.277,-0.029 0.379,-0.097 z"
             style="fill:#231f20;fill-opacity:1;fill-rule:nonzero;stroke:none"
             id="path178" /></g></g></g><g
       id="g180"><g
         id="g182"><g
           id="g188"><g
             id="g190"><path
               d="m 306.815,581.093 c -0.452,0 -0.82,-0.37 -0.82,-0.822 v 0 -41.248 c 0,-0.451 0.368,-0.822 0.82,-0.822 v 0 h 41.546 c 0.45,0 0.822,0.371 0.822,0.822 v 0 41.248 c 0,0.452 -0.372,0.822 -0.822,0.822 v 0 z"
               style="fill:url(#linearGradient198);stroke:none"
               id="path200" /></g></g></g></g><g
       id="g202"><g
         id="g204"
         clip-path="url(#clipPath208)"><g
           id="g210"
           transform="translate(349.1826,539.0229)"><path
             d="m 0,0 c 0,-0.452 -0.371,-0.822 -0.821,-0.822 h -41.546 c -0.453,0 -0.821,0.37 -0.821,0.822 v 41.249 c 0,0.452 0.368,0.821 0.821,0.821 H -0.821 C -0.371,42.07 0,41.701 0,41.249 Z"
             style="fill:none;stroke:#231f20;stroke-width:0.5;stroke-linecap:butt;stroke-linejoin:round;stroke-miterlimit:4;stroke-dasharray:none;stroke-opacity:1"
             id="path212" /></g><g
           id="g214"
           transform="translate(348.6797,579.9146)"><path
             d="m 0,0 v -40.39 c 0,-0.451 -0.37,-0.821 -0.821,-0.821 h -41.34"
             style="fill:none;stroke:#676b6e;stroke-width:0.5;stroke-linecap:round;stroke-linejoin:round;stroke-miterlimit:4;stroke-dasharray:none;stroke-opacity:1"
             id="path216" /></g><path
           d="m 345.344,541.813 h -34.951 v 34.952 h 34.951 z"
           style="fill:#7c8184;fill-opacity:1;fill-rule:nonzero;stroke:#7c8184;stroke-width:0.5;stroke-linecap:butt;stroke-linejoin:round;stroke-miterlimit:4;stroke-dasharray:none;stroke-opacity:1"
           id="path218" /></g></g><g
       id="g220"><g
         id="g222"><g
           id="g228"><g
             id="g230"><path
               d="m 310.111,542.172 h 34.954 v 34.951 h -34.954 z"
               style="fill:url(#linearGradient238);stroke:none"
               id="path240" /></g></g></g></g><g
       id="g242"><g
         id="g244"
         clip-path="url(#clipPath248)"><path
           d="m 345.065,542.171 h -34.954 v 34.952 h 34.954 z"
           style="fill:none;stroke:#231f20;stroke-width:0.3;stroke-linecap:butt;stroke-linejoin:round;stroke-miterlimit:4;stroke-dasharray:none;stroke-opacity:1"
           id="path250" /><g
           id="g252"
           transform="translate(310.6563,542.519)"><path
             d="M 0,0 V 34.04 H 34.145"
             style="fill:none;stroke:#ffffff;stroke-width:0.5;stroke-linecap:butt;stroke-linejoin:round;stroke-miterlimit:4;stroke-dasharray:none;stroke-opacity:1"
             id="path254" /></g></g></g><g
       id="g256"><g
         id="g258"><g
           id="g264"><g
             id="g266"><path
               d="m 311.219,585.877 -4.979,-5.04 c 0.279,0.268 0.576,0.256 0.576,0.256 v 0 h 41.543 c 0,0 0.298,0.012 0.575,-0.256 v 0 l -4.977,5.04 z"
               style="fill:url(#linearGradient272);stroke:none"
               id="path274" /></g></g></g></g><g
       id="g276"><g
         id="g278"
         clip-path="url(#clipPath282)"><g
           id="g284"
           transform="translate(343.957,585.8765)"><path
             d="m 0,0 h -32.738 l -4.979,-5.039 c 0.279,0.267 0.576,0.255 0.576,0.255 H 4.402 c 0,0 0.298,0.012 0.576,-0.255 z"
             style="fill:none;stroke:#231f20;stroke-width:0.5;stroke-linecap:butt;stroke-linejoin:round;stroke-miterlimit:4;stroke-dasharray:none;stroke-opacity:1"
             id="path286" /></g><g
           id="g288"
           transform="translate(314.2773,550.168)"><path
             d="m 0,0 c 0,-0.454 -0.37,-0.821 -0.823,-0.821 -0.453,0 -0.822,0.367 -0.822,0.821 v 15.879 c 0,0.454 0.369,0.821 0.822,0.821 C -0.37,16.7 0,16.333 0,15.879 Z"
             style="fill:#b1b5b7;fill-opacity:1;fill-rule:nonzero;stroke:none"
             id="path290" /></g></g></g><g
       id="g292"><g
         id="g294"><g
           id="g300"><g
             id="g302"><path
               d="m 344.501,569.414 v -0.145 h -3.106 c -0.453,0 -0.823,-0.37 -0.823,-0.821 v 0 -1.067 c 0,-0.452 0.37,-0.82 0.823,-0.82 v 0 h 3.106 v -0.145 c 0,-0.298 0.243,-0.54 0.541,-0.54 v 0 c 0.3,0 0.538,0.242 0.538,0.54 v 0 0.145 h 0.795 v 2.708 h -0.795 v 0.145 c 0,0.298 -0.238,0.538 -0.538,0.538 v 0 c -0.298,0 -0.541,-0.24 -0.541,-0.538"
               style="fill:url(#linearGradient314);stroke:none"
               id="path316" /></g></g></g></g><g
       id="g318"><g
         id="g320"
         clip-path="url(#clipPath324)"><g
           id="g326"
           transform="translate(346.375,569.269)"><path
             d="m 0,0 h -0.795 v 0.145 c 0,0.298 -0.238,0.538 -0.538,0.538 -0.298,0 -0.541,-0.24 -0.541,-0.538 V 0 h -3.105 c -0.455,0 -0.825,-0.37 -0.825,-0.821 v -1.068 c 0,-0.451 0.37,-0.819 0.825,-0.819 h 3.105 v -0.146 c 0,-0.297 0.243,-0.54 0.541,-0.54 0.3,0 0.538,0.243 0.538,0.54 v 0.146 H 0 Z"
             style="fill:none;stroke:#4b4748;stroke-width:0.3;stroke-linecap:butt;stroke-linejoin:round;stroke-miterlimit:4;stroke-dasharray:none;stroke-opacity:1"
             id="path328" /></g><g
           id="g330"
           transform="translate(341.8916,568.5444)"><path
             d="m 0,0 c 0,-0.17 -0.135,-0.308 -0.308,-0.308 -0.169,0 -0.308,0.138 -0.308,0.308 0,0.17 0.139,0.308 0.308,0.308 C -0.135,0.308 0,0.17 0,0"
             style="fill:#ebebeb;fill-opacity:1;fill-rule:nonzero;stroke:none"
             id="path332" /></g><g
           id="g334"
           transform="translate(341.8916,567.2832)"><path
             d="m 0,0 c 0,-0.169 -0.135,-0.307 -0.308,-0.307 -0.169,0 -0.308,0.138 -0.308,0.307 0,0.171 0.139,0.309 0.308,0.309 C -0.135,0.309 0,0.171 0,0"
             style="fill:#ebebeb;fill-opacity:1;fill-rule:nonzero;stroke:none"
             id="path336" /></g></g></g><g
       id="g338"><g
         id="g340"><g
           id="g346"><g
             id="g348"><path
               d="m 344.501,552.878 v -0.144 h -3.106 c -0.453,0 -0.823,-0.369 -0.823,-0.821 v 0 -1.066 c 0,-0.452 0.37,-0.822 0.823,-0.822 v 0 h 3.106 v -0.144 c 0,-0.298 0.243,-0.54 0.541,-0.54 v 0 c 0.3,0 0.538,0.242 0.538,0.54 v 0 0.144 h 0.795 v 2.709 h -0.795 v 0.144 c 0,0.299 -0.238,0.541 -0.538,0.541 v 0 c -0.298,0 -0.541,-0.242 -0.541,-0.541"
               style="fill:url(#linearGradient360);stroke:none"
               id="path362" /></g></g></g></g><g
       id="g364"><g
         id="g366"
         clip-path="url(#clipPath370)"><g
           id="g372"
           transform="translate(346.375,552.7339)"><path
             d="m 0,0 h -0.795 v 0.145 c 0,0.298 -0.238,0.54 -0.538,0.54 -0.298,0 -0.541,-0.242 -0.541,-0.54 V 0 h -3.105 c -0.455,0 -0.825,-0.369 -0.825,-0.821 v -1.066 c 0,-0.452 0.37,-0.821 0.825,-0.821 h 3.105 v -0.145 c 0,-0.298 0.243,-0.54 0.541,-0.54 0.3,0 0.538,0.242 0.538,0.54 v 0.145 H 0 Z"
             style="fill:none;stroke:#4b4748;stroke-width:0.3;stroke-linecap:butt;stroke-linejoin:round;stroke-miterlimit:4;stroke-dasharray:none;stroke-opacity:1"
             id="path374" /></g><g
           id="g376"
           transform="translate(341.8916,552.0107)"><path
             d="m 0,0 c 0,-0.171 -0.135,-0.308 -0.308,-0.308 -0.169,0 -0.308,0.137 -0.308,0.308 0,0.17 0.139,0.308 0.308,0.308 C -0.135,0.308 0,0.17 0,0"
             style="fill:#ebebeb;fill-opacity:1;fill-rule:nonzero;stroke:none"
             id="path378" /></g><g
           id="g380"
           transform="translate(341.8916,550.75)"><path
             d="m 0,0 c 0,-0.17 -0.135,-0.308 -0.308,-0.308 -0.169,0 -0.308,0.138 -0.308,0.308 0,0.17 0.139,0.308 0.308,0.308 C -0.135,0.308 0,0.17 0,0"
             style="fill:#ebebeb;fill-opacity:1;fill-rule:nonzero;stroke:none"
             id="path382" /></g></g></g><g
       id="g384"><g
         id="g386"><g
           id="g392"><g
             id="g394"><path
               d="m 311.606,566.8 v -15.879 c 0,-0.454 0.368,-0.822 0.822,-0.822 v 0 c 0.452,0 0.822,0.368 0.822,0.822 v 0 15.879 c 0,0.454 -0.37,0.821 -0.822,0.821 v 0 c -0.454,0 -0.822,-0.367 -0.822,-0.821"
               style="fill:url(#linearGradient406);stroke:none"
               id="path408" /></g></g></g></g><g
       id="g410"><g
         id="g412"
         clip-path="url(#clipPath416)"><g
           id="g418"
           transform="translate(313.25,550.9209)"><path
             d="m 0,0 c 0,-0.454 -0.369,-0.822 -0.822,-0.822 -0.453,0 -0.822,0.368 -0.822,0.822 v 15.879 c 0,0.454 0.369,0.821 0.822,0.821 C -0.369,16.7 0,16.333 0,15.879 Z"
             style="fill:none;stroke:#231f20;stroke-width:0.3;stroke-linecap:butt;stroke-linejoin:miter;stroke-miterlimit:4;stroke-dasharray:none;stroke-opacity:1"
             id="path420" /></g><g
           id="g422"
           transform="translate(312.0986,566.6396)"><path
             d="M 0,0 V -2.007"
             style="fill:none;stroke:#ffffff;stroke-width:0.5;stroke-linecap:round;stroke-linejoin:round;stroke-miterlimit:4;stroke-dasharray:none;stroke-opacity:1"
             id="path424" /></g><g
           id="g426"
           transform="translate(328.1357,561.5396)"><path
             d="m 0,0 c -1.845,0 -3.341,-1.5 -3.341,-3.341 0,-1.842 1.496,-3.341 3.341,-3.341 1.841,0 3.34,1.499 3.34,3.341 C 3.34,-1.5 1.841,0 0,0 m 0,-8.05 c -2.596,0 -4.709,2.112 -4.709,4.709 0,2.597 2.113,4.709 4.709,4.709 2.599,0 4.709,-2.112 4.709,-4.709 C 4.709,-5.938 2.599,-8.05 0,-8.05"
             style="fill:#b1b5b7;fill-opacity:1;fill-rule:nonzero;stroke:none"
             id="path428" /></g><g
           id="g430"
           transform="translate(328.6367,558.7007)"><path
             d="m 0,0 c 0,-0.277 -0.224,-0.502 -0.501,-0.502 -0.278,0 -0.503,0.225 -0.503,0.502 v 9.764 c 0,0.278 0.225,0.502 0.503,0.502 C -0.224,10.266 0,10.042 0,9.764 Z"
             style="fill:#b1b5b7;fill-opacity:1;fill-rule:nonzero;stroke:none"
             id="path432" /></g><g
           id="g434"
           transform="translate(327.4492,558.3823)"><path
             d="M 0,0 C 0.239,0.139 0.548,0.057 0.687,-0.184 0.825,-0.424 0.743,-0.73 0.503,-0.87 l -8.457,-4.881 c -0.24,-0.14 -0.547,-0.057 -0.686,0.184 -0.139,0.24 -0.055,0.546 0.184,0.686 z"
             style="fill:#b1b5b7;fill-opacity:1;fill-rule:nonzero;stroke:none"
             id="path436" /></g><g
           id="g438"
           transform="translate(328.3193,557.5127)"><path
             d="m 0,0 c -0.24,0.139 -0.322,0.446 -0.184,0.686 0.139,0.24 0.445,0.322 0.687,0.184 L 8.959,-4.012 C 9.199,-4.151 9.28,-4.458 9.142,-4.698 9.004,-4.939 8.696,-5.021 8.458,-4.883 Z"
             style="fill:#b1b5b7;fill-opacity:1;fill-rule:nonzero;stroke:none"
             id="path440" /></g><g
           id="g442"
           transform="translate(329.7314,558.1987)"><path
             d="m 0,0 c 0,-0.883 -0.712,-1.598 -1.596,-1.598 -0.882,0 -1.597,0.715 -1.597,1.598 0,0.881 0.715,1.598 1.597,1.598 C -0.712,1.598 0,0.881 0,0"
             style="fill:#b1b5b7;fill-opacity:1;fill-rule:nonzero;stroke:none"
             id="path444" /></g></g></g><g
       id="g446"><g
         id="g448"><g
           id="g454"><g
             id="g456"><path
               d="m 327.087,569.104 v -5.584 c -2.362,-0.252 -4.208,-2.257 -4.208,-4.683 v 0 c 0,-0.679 0.147,-1.321 0.405,-1.904 v 0 l -4.838,-2.793 c -0.241,-0.14 -0.324,-0.447 -0.184,-0.687 v 0 c 0.138,-0.239 0.446,-0.323 0.685,-0.183 v 0 l 4.844,2.794 c 0.855,-1.171 2.238,-1.936 3.797,-1.936 v 0 c 1.559,0 2.941,0.765 3.796,1.936 v 0 l 4.843,-2.795 c 0.242,-0.139 0.55,-0.056 0.686,0.184 v 0 c 0.139,0.24 0.058,0.547 -0.183,0.687 v 0 l -4.837,2.793 c 0.257,0.582 0.404,1.225 0.404,1.904 v 0 c 0,2.426 -1.845,4.431 -4.207,4.683 v 0 5.584 c 0,0.276 -0.225,0.501 -0.502,0.501 v 0 c -0.277,0 -0.501,-0.225 -0.501,-0.501 m 2.065,-10.59 c 0.022,0.104 0.034,0.213 0.034,0.323 v 0 c 0,0.706 -0.46,1.298 -1.096,1.508 v 0 1.791 c 1.605,-0.244 2.836,-1.628 2.836,-3.299 v 0 c 0,-0.429 -0.082,-0.838 -0.231,-1.215 v 0 z m -4.904,0.323 c 0,1.671 1.232,3.055 2.839,3.299 v 0 -1.791 c -0.634,-0.21 -1.098,-0.802 -1.098,-1.508 v 0 c 0,-0.11 0.013,-0.218 0.036,-0.323 v 0 l -1.546,-0.891 c -0.146,0.377 -0.231,0.786 -0.231,1.214 m 4.397,-1.189 1.55,-0.895 c -0.613,-0.765 -1.555,-1.256 -2.607,-1.256 v 0 c -1.054,0 -1.993,0.491 -2.607,1.256 v 0 l 1.552,0.895 c 0.281,-0.251 0.648,-0.408 1.055,-0.408 v 0 c 0.407,0 0.774,0.157 1.057,0.408"
               style="fill:url(#radialGradient464);stroke:none"
               id="path466" /></g></g></g></g><g
       id="g468"><g
         id="g470"
         clip-path="url(#clipPath474)"><g
           id="g476"
           transform="translate(327.5879,555.4971)"><path
             d="m 0,0 c -1.054,0 -1.993,0.492 -2.606,1.257 l 1.55,0.894 C -0.773,1.9 -0.407,1.743 0,1.743 0.407,1.743 0.774,1.9 1.057,2.151 L 2.606,1.256 C 1.994,0.492 1.053,0 0,0 Z m -3.34,3.34 c 0,1.671 1.233,3.056 2.839,3.299 V 4.849 C -1.135,4.638 -1.599,4.046 -1.599,3.34 c 0,-0.11 0.013,-0.218 0.036,-0.323 L -3.109,2.125 C -3.255,2.503 -3.34,2.911 -3.34,3.34 Z m 6.678,0 C 3.338,2.911 3.257,2.502 3.107,2.125 L 1.563,3.017 c 0.023,0.105 0.035,0.213 0.035,0.323 0,0.706 -0.46,1.298 -1.095,1.509 v 1.79 C 2.107,6.396 3.338,5.011 3.338,3.34 Z M 9.142,-1.357 4.305,1.436 c 0.258,0.582 0.404,1.226 0.404,1.904 0,2.427 -1.845,4.431 -4.206,4.682 v 5.585 c 0,0.277 -0.226,0.501 -0.503,0.501 -0.276,0 -0.501,-0.224 -0.501,-0.501 V 8.022 C -2.862,7.771 -4.709,5.767 -4.709,3.34 c 0,-0.678 0.147,-1.321 0.405,-1.904 l -4.838,-2.793 c -0.241,-0.14 -0.324,-0.446 -0.183,-0.686 0.137,-0.241 0.445,-0.324 0.684,-0.185 l 4.844,2.795 c 0.856,-1.171 2.238,-1.936 3.797,-1.936 1.56,0 2.94,0.765 3.796,1.936 l 4.843,-2.795 c 0.243,-0.139 0.55,-0.056 0.686,0.184 0.139,0.241 0.058,0.547 -0.183,0.687 z"
             style="fill:none;stroke:#46474b;stroke-width:0.5;stroke-linecap:butt;stroke-linejoin:round;stroke-miterlimit:4;stroke-dasharray:none;stroke-opacity:1"
             id="path478" /></g><g
           id="g480"
           transform="translate(327.5879,562.1782)"><path
             d="m 0,0 c -1.841,0 -3.34,-1.499 -3.34,-3.341 0,-1.842 1.499,-3.34 3.34,-3.34 1.842,0 3.338,1.498 3.338,3.34 C 3.338,-1.499 1.842,0 0,0 m 0,-8.05 c -2.599,0 -4.709,2.112 -4.709,4.709 0,2.597 2.11,4.71 4.709,4.71 2.597,0 4.709,-2.113 4.709,-4.71 C 4.709,-5.938 2.597,-8.05 0,-8.05"
             style="fill:#7e8285;fill-opacity:1;fill-rule:nonzero;stroke:none"
             id="path482" /></g><g
           id="g484"
           transform="translate(327.5879,562.1782)"><path
             d="m 0,0 c -1.841,0 -3.34,-1.499 -3.34,-3.341 0,-1.842 1.499,-3.34 3.34,-3.34 1.842,0 3.338,1.498 3.338,3.34 C 3.338,-1.499 1.842,0 0,0 Z m 0,-8.05 c -2.599,0 -4.709,2.112 -4.709,4.709 0,2.597 2.11,4.71 4.709,4.71 2.597,0 4.709,-2.113 4.709,-4.71 C 4.709,-5.938 2.597,-8.05 0,-8.05 Z"
             style="fill:none;stroke:#46474b;stroke-width:0.3;stroke-linecap:butt;stroke-linejoin:round;stroke-miterlimit:4;stroke-dasharray:none;stroke-opacity:1"
             id="path486" /></g></g></g><g
       id="g488"><g
         id="g490"><g
           id="g496"><g
             id="g498"><path
               d="m 327.087,569.104 v -9.765 c 0,-0.276 0.224,-0.502 0.501,-0.502 v 0 c 0.277,0 0.502,0.226 0.502,0.502 v 0 9.765 c 0,0.276 -0.225,0.501 -0.502,0.501 v 0 c -0.277,0 -0.501,-0.225 -0.501,-0.501"
               style="fill:url(#linearGradient506);stroke:none"
               id="path508" /></g></g></g></g><g
       id="g510"><g
         id="g512"
         clip-path="url(#clipPath516)"><g
           id="g518"
           transform="translate(328.0908,559.3394)"><path
             d="m 0,0 c 0,-0.277 -0.226,-0.502 -0.503,-0.502 -0.276,0 -0.501,0.225 -0.501,0.502 v 9.765 c 0,0.277 0.225,0.501 0.501,0.501 C -0.226,10.266 0,10.042 0,9.765 Z"
             style="fill:none;stroke:#46474b;stroke-width:0.3;stroke-linecap:butt;stroke-linejoin:round;stroke-miterlimit:4;stroke-dasharray:none;stroke-opacity:1"
             id="path520" /></g></g></g><g
       id="g522"><g
         id="g524"><g
           id="g530"><g
             id="g532"><path
               d="m 326.904,559.021 -8.458,-4.881 c -0.241,-0.14 -0.324,-0.447 -0.184,-0.687 v 0 c 0.138,-0.239 0.446,-0.323 0.685,-0.183 v 0 l 8.459,4.882 c 0.238,0.139 0.322,0.446 0.182,0.685 v 0 c -0.093,0.162 -0.262,0.252 -0.435,0.252 v 0 c -0.085,0 -0.17,-0.022 -0.249,-0.068"
               style="fill:url(#linearGradient540);stroke:none"
               id="path542" /></g></g></g></g><g
       id="g544"><g
         id="g546"
         clip-path="url(#clipPath550)"><g
           id="g552"
           transform="translate(326.9043,559.0215)"><path
             d="M 0,0 C 0.237,0.139 0.545,0.057 0.684,-0.185 0.823,-0.424 0.74,-0.731 0.501,-0.87 l -8.458,-4.882 c -0.239,-0.139 -0.547,-0.056 -0.685,0.184 -0.14,0.24 -0.057,0.547 0.184,0.686 z"
             style="fill:none;stroke:#46474b;stroke-width:0.3;stroke-linecap:butt;stroke-linejoin:round;stroke-miterlimit:4;stroke-dasharray:none;stroke-opacity:1"
             id="path554" /></g></g></g><g
       id="g556"><g
         id="g558"><g
           id="g564"><g
             id="g566"><path
               d="m 327.588,558.837 c -0.139,-0.239 -0.057,-0.547 0.185,-0.686 v 0 l 8.454,-4.882 c 0.242,-0.139 0.55,-0.056 0.686,0.184 v 0 c 0.139,0.24 0.058,0.547 -0.183,0.687 v 0 l -8.458,4.881 c -0.078,0.046 -0.164,0.068 -0.249,0.068 v 0 c -0.173,0 -0.341,-0.091 -0.435,-0.252"
               style="fill:url(#linearGradient574);stroke:none"
               id="path576" /></g></g></g></g><g
       id="g578"><g
         id="g580"
         clip-path="url(#clipPath584)"><g
           id="g586"
           transform="translate(327.7725,558.1514)"><path
             d="M 0,0 C -0.242,0.139 -0.323,0.446 -0.185,0.686 -0.045,0.926 0.261,1.008 0.5,0.87 L 8.957,-4.012 C 9.198,-4.151 9.279,-4.458 9.141,-4.698 9.005,-4.938 8.697,-5.021 8.454,-4.882 Z"
             style="fill:none;stroke:#46474b;stroke-width:0.3;stroke-linecap:butt;stroke-linejoin:round;stroke-miterlimit:4;stroke-dasharray:none;stroke-opacity:1"
             id="path588" /></g></g></g><g
       id="g590"><g
         id="g592"><g
           id="g598"><g
             id="g600"><path
               d="m 325.989,558.837 c 0,-0.882 0.719,-1.597 1.599,-1.597 v 0 c 0.884,0 1.598,0.715 1.598,1.597 v 0 c 0,0.882 -0.714,1.598 -1.598,1.598 v 0 c -0.88,0 -1.599,-0.716 -1.599,-1.598"
               style="fill:url(#radialGradient608);stroke:none"
               id="path610" /></g></g></g></g><g
       id="g612"><g
         id="g614"
         clip-path="url(#clipPath618)"><g
           id="g620"
           transform="translate(329.1855,558.8369)"><path
             d="m 0,0 c 0,-0.882 -0.714,-1.597 -1.598,-1.597 -0.88,0 -1.598,0.715 -1.598,1.597 0,0.882 0.718,1.598 1.598,1.598 C -0.714,1.598 0,0.882 0,0 Z"
             style="fill:none;stroke:#46474b;stroke-width:0.3;stroke-linecap:butt;stroke-linejoin:round;stroke-miterlimit:4;stroke-dasharray:none;stroke-opacity:1"
             id="path622" /></g><g
           id="g624"
           transform="translate(323.5674,558.8369)"><path
             d="M 0,0 C 0,1.667 1.012,3.096 2.458,3.705"
             style="fill:none;stroke:#f3f4f5;stroke-width:0.5;stroke-linecap:round;stroke-linejoin:miter;stroke-miterlimit:10;stroke-dasharray:none;stroke-opacity:1"
             id="path626" /></g><g
           id="g628"
           transform="translate(330.4316,555.9937)"><path
             d="m 0,0 c -0.727,-0.728 -1.732,-1.177 -2.844,-1.177 -0.276,0 -0.547,0.028 -0.809,0.081"
             style="fill:none;stroke:#f3f4f5;stroke-width:0.5;stroke-linecap:round;stroke-linejoin:miter;stroke-miterlimit:10;stroke-dasharray:none;stroke-opacity:1"
             id="path630" /></g><g
           id="g632"
           transform="translate(306.4199,539.0317)"><path
             d="m 0,0 v 40.843 c 0,0.453 0.369,0.822 0.821,0.822 h 40.61 c 0.45,0 0.818,-0.369 0.818,-0.822"
             style="fill:none;stroke:#ffffff;stroke-width:0.5;stroke-linecap:round;stroke-linejoin:round;stroke-miterlimit:4;stroke-dasharray:none;stroke-opacity:1"
             id="path634" /></g></g></g></g></svg>
