<?xml version="1.0" encoding="UTF-8" standalone="no"?>
<svg
   xmlns:dc="http://purl.org/dc/elements/1.1/"
   xmlns:cc="http://creativecommons.org/ns#"
   xmlns:rdf="http://www.w3.org/1999/02/22-rdf-syntax-ns#"
   xmlns:svg="http://www.w3.org/2000/svg"
   xmlns="http://www.w3.org/2000/svg"
   version="1.1"
   id="svg2"
   xml:space="preserve"
   width="103.06687"
   height="124.53922"
   viewBox="0 0 103.06687 124.53922"><metadata
     id="metadata8"><rdf:RDF><cc:Work
         rdf:about=""><dc:format>image/svg+xml</dc:format><dc:type
           rdf:resource="http://purl.org/dc/dcmitype/StillImage" /></cc:Work></rdf:RDF></metadata><defs
     id="defs6"><clipPath
       clipPathUnits="userSpaceOnUse"
       id="clipPath18"><path
         d="M 0,792 H 612 V 0 H 0 Z"
         id="path16" /></clipPath><linearGradient
       x1="0"
       y1="0"
       x2="1"
       y2="0"
       gradientUnits="userSpaceOnUse"
       gradientTransform="matrix(58.518555,0,0,-58.518555,301.97363,593.17725)"
       spreadMethod="pad"
       id="linearGradient168"><stop
         style="stop-opacity:1;stop-color:#5ec45b"
         offset="0"
         id="stop164" /><stop
         style="stop-opacity:1;stop-color:#dbf1cb"
         offset="1"
         id="stop166" /></linearGradient><linearGradient
       x1="0"
       y1="0"
       x2="1"
       y2="0"
       gradientUnits="userSpaceOnUse"
       gradientTransform="matrix(55.834961,0,0,-55.834961,303.01953,593.17969)"
       spreadMethod="pad"
       id="linearGradient188"><stop
         style="stop-opacity:1;stop-color:#dbf1cb"
         offset="0"
         id="stop184" /><stop
         style="stop-opacity:1;stop-color:#5ec45b"
         offset="1"
         id="stop186" /></linearGradient><clipPath
       clipPathUnits="userSpaceOnUse"
       id="clipPath198"><path
         d="M 0,792 H 612 V 0 H 0 Z"
         id="path196" /></clipPath><linearGradient
       x1="0"
       y1="0"
       x2="1"
       y2="0"
       gradientUnits="userSpaceOnUse"
       gradientTransform="matrix(58.546875,0,0,-58.546875,301.97852,637.45215)"
       spreadMethod="pad"
       id="linearGradient246"><stop
         style="stop-opacity:1;stop-color:#ed1c24"
         offset="0"
         id="stop240" /><stop
         style="stop-opacity:1;stop-color:#fbc7a7"
         offset="0.58054141"
         id="stop242" /><stop
         style="stop-opacity:1;stop-color:#fbc7a7"
         offset="1"
         id="stop244" /></linearGradient><linearGradient
       x1="0"
       y1="0"
       x2="1"
       y2="0"
       gradientUnits="userSpaceOnUse"
       gradientTransform="matrix(55.871094,0,0,-55.871094,303.02148,637.45166)"
       spreadMethod="pad"
       id="linearGradient266"><stop
         style="stop-opacity:1;stop-color:#fbc7a7"
         offset="0"
         id="stop262" /><stop
         style="stop-opacity:1;stop-color:#ed1c24"
         offset="1"
         id="stop264" /></linearGradient><clipPath
       clipPathUnits="userSpaceOnUse"
       id="clipPath276"><path
         d="M 0,792 H 612 V 0 H 0 Z"
         id="path274" /></clipPath></defs><g
     id="g10"
     transform="matrix(1.3333333,0,0,-1.3333333,-378.30005,896.41441)"><g
       id="g12"><g
         id="g14"
         clip-path="url(#clipPath18)"><g
           id="g20"
           transform="translate(314.5342,663.4136)"><path
             d="m 0,0 -5.299,7.37 c -0.442,0.616 -1.424,1.075 -2.18,1.022 L -16.854,7.724 C -17.608,7.669 -18.506,7.07 -18.843,6.393 l -4.271,-8.571 c -0.337,-0.68 -0.252,-1.739 0.19,-2.356 l 2.882,-4.004 c -0.542,0.005 -1.105,-0.118 -1.494,-0.388 l -7.733,-5.34 c -0.623,-0.431 -1.088,-1.405 -1.035,-2.161 l 0.682,-9.549 c 0.055,-0.755 0.666,-1.626 1.361,-1.931 l 8.31,-3.65 c 0.693,-0.306 1.773,-0.19 2.396,0.239 l 7.731,5.331 c 0.625,0.429 1.091,1.404 1.037,2.159 l -0.679,9.551 c -0.055,0.755 -0.693,1.385 -1.044,1.709 l 4.44,0.312 c 0.757,0.054 1.652,0.652 1.992,1.333 l 4.266,8.567 C 0.527,-1.677 0.442,-0.614 0,0"
             style="fill:#231f20;fill-opacity:1;fill-rule:nonzero;stroke:none"
             id="path22" /></g><g
           id="g24"
           transform="translate(314.5342,663.4136)"><path
             d="m 0,0 -5.299,7.37 c -0.442,0.616 -1.424,1.075 -2.18,1.022 L -16.854,7.724 C -17.608,7.669 -18.506,7.07 -18.843,6.393 l -4.271,-8.571 c -0.337,-0.68 -0.252,-1.739 0.19,-2.356 l 2.882,-4.004 c -0.542,0.005 -1.105,-0.118 -1.494,-0.388 l -7.733,-5.34 c -0.623,-0.431 -1.088,-1.405 -1.035,-2.161 l 0.682,-9.549 c 0.055,-0.755 0.666,-1.626 1.361,-1.931 l 8.31,-3.65 c 0.693,-0.306 1.773,-0.19 2.396,0.239 l 7.731,5.331 c 0.625,0.429 1.091,1.404 1.037,2.159 l -0.679,9.551 c -0.055,0.755 -0.693,1.385 -1.044,1.709 l 4.44,0.312 c 0.757,0.054 1.652,0.652 1.992,1.333 l 4.266,8.567 C 0.527,-1.677 0.442,-0.614 0,0 Z"
             style="fill:none;stroke:#231f20;stroke-width:1;stroke-linecap:butt;stroke-linejoin:round;stroke-miterlimit:10;stroke-dasharray:none;stroke-opacity:1"
             id="path26" /></g><g
           id="g28"
           transform="translate(298.3301,651.6284)"><path
             d="M 0,0 C -0.34,-0.681 -0.979,-0.732 -1.421,-0.116 L -6.72,7.251 c -0.442,0.617 -0.527,1.676 -0.19,2.356 l 4.271,8.571 c 0.337,0.68 0.975,0.73 1.42,0.115 L 4.077,10.924 C 4.522,10.309 4.606,9.249 4.27,8.568 Z"
             style="fill:#deddde;fill-opacity:1;fill-rule:nonzero;stroke:none"
             id="path30" /></g><g
           id="g32"
           transform="translate(298.3301,651.6284)"><path
             d="M 0,0 C -0.34,-0.681 -0.979,-0.732 -1.421,-0.116 L -6.72,7.251 c -0.442,0.617 -0.527,1.676 -0.19,2.356 l 4.271,8.571 c 0.337,0.68 0.975,0.73 1.42,0.115 L 4.077,10.924 C 4.522,10.309 4.606,9.249 4.27,8.568 Z"
             style="fill:none;stroke:#231f20;stroke-width:0.3;stroke-linecap:butt;stroke-linejoin:miter;stroke-miterlimit:10;stroke-dasharray:none;stroke-opacity:1"
             id="path34" /></g><g
           id="g36"
           transform="translate(304.5908,661.5278)"><path
             d="m 0,0 c -0.757,-0.054 -1.738,0.405 -2.184,1.022 l -5.295,7.369 c -0.446,0.616 -0.189,1.164 0.569,1.218 l 9.374,0.668 C 3.221,10.331 4.202,9.872 4.645,9.256 L 9.943,1.886 C 10.386,1.271 10.13,0.721 9.372,0.667 Z"
             style="fill:#ffffff;fill-opacity:1;fill-rule:nonzero;stroke:none"
             id="path38" /></g><g
           id="g40"
           transform="translate(304.5908,661.5278)"><path
             d="m 0,0 c -0.757,-0.054 -1.738,0.405 -2.184,1.022 l -5.295,7.369 c -0.446,0.616 -0.189,1.164 0.569,1.218 l 9.374,0.668 C 3.221,10.331 4.202,9.872 4.645,9.256 L 9.943,1.886 C 10.386,1.271 10.13,0.721 9.372,0.667 Z"
             style="fill:none;stroke:#231f20;stroke-width:0.3;stroke-linecap:butt;stroke-linejoin:miter;stroke-miterlimit:10;stroke-dasharray:none;stroke-opacity:1"
             id="path42" /></g><g
           id="g44"
           transform="translate(310.4561,652.4907)"><path
             d="m 0,0 c -0.34,-0.681 -1.234,-1.279 -1.992,-1.333 l -9.368,-0.659 c -0.758,-0.054 -1.1,0.458 -0.761,1.138 l 4.27,8.571 c 0.337,0.68 1.234,1.279 1.992,1.333 L 3.507,9.705 C 4.265,9.76 4.605,9.247 4.267,8.566 Z"
             style="fill:#bdbcbc;fill-opacity:1;fill-rule:nonzero;stroke:none"
             id="path46" /></g><g
           id="g48"
           transform="translate(310.4561,652.4907)"><path
             d="m 0,0 c -0.34,-0.681 -1.234,-1.279 -1.992,-1.333 l -9.368,-0.659 c -0.758,-0.054 -1.1,0.458 -0.761,1.138 l 4.27,8.571 c 0.337,0.68 1.234,1.279 1.992,1.333 L 3.507,9.705 C 4.265,9.76 4.605,9.247 4.267,8.566 Z"
             style="fill:none;stroke:#231f20;stroke-width:0.3;stroke-linecap:butt;stroke-linejoin:miter;stroke-miterlimit:10;stroke-dasharray:none;stroke-opacity:1"
             id="path50" /></g><g
           id="g52"
           transform="translate(303.3213,658.2144)"><path
             d="M 0,0 C -0.348,0.461 -0.062,1.267 0.642,1.798 1.343,2.331 2.197,2.385 2.547,1.925 2.897,1.461 2.609,0.655 1.908,0.124 1.202,-0.408 0.351,-0.463 0,0"
             style="fill:#231f20;fill-opacity:1;fill-rule:nonzero;stroke:none"
             id="path54" /></g><g
           id="g56"
           transform="translate(296.9063,658.9956)"><path
             d="m 0,0 c -0.579,-0.018 -1.072,0.677 -1.103,1.559 -0.034,0.88 0.414,1.61 0.99,1.632 C 0.467,3.211 0.963,2.512 0.992,1.634 1.024,0.75 0.58,0.021 0,0"
             style="fill:#231f20;fill-opacity:1;fill-rule:nonzero;stroke:none"
             id="path58" /></g><g
           id="g60"
           transform="translate(305.6201,662.9917)"><path
             d="M 0,0 C -0.202,-0.541 -1.034,-0.731 -1.859,-0.422 -2.688,-0.116 -3.19,0.576 -2.988,1.12 -2.786,1.662 -1.95,1.852 -1.126,1.543 -0.299,1.235 0.206,0.543 0,0"
             style="fill:#231f20;fill-opacity:1;fill-rule:nonzero;stroke:none"
             id="path62" /></g><g
           id="g64"
           transform="translate(312.6533,663.4946)"><path
             d="m 0,0 c -0.202,-0.541 -1.036,-0.732 -1.86,-0.423 -0.828,0.307 -1.328,1 -1.126,1.541 0.202,0.544 1.037,0.734 1.861,0.424 C -0.3,1.234 0.204,0.543 0,0"
             style="fill:#231f20;fill-opacity:1;fill-rule:nonzero;stroke:none"
             id="path66" /></g><g
           id="g68"
           transform="translate(301.6641,668.8931)"><path
             d="m 0,0 c -0.2,-0.541 -1.035,-0.733 -1.86,-0.424 -0.828,0.307 -1.328,1 -1.126,1.541 0.202,0.544 1.038,0.733 1.862,0.425 C -0.299,1.231 0.204,0.542 0,0"
             style="fill:#231f20;fill-opacity:1;fill-rule:nonzero;stroke:none"
             id="path70" /></g><g
           id="g72"
           transform="translate(308.6982,669.395)"><path
             d="m 0,0 c -0.202,-0.543 -1.035,-0.732 -1.861,-0.422 -0.826,0.305 -1.33,0.998 -1.128,1.54 0.202,0.543 1.038,0.733 1.863,0.425 C -0.302,1.234 0.205,0.542 0,0"
             style="fill:#231f20;fill-opacity:1;fill-rule:nonzero;stroke:none"
             id="path74" /></g><g
           id="g76"
           transform="translate(305.2705,655.1987)"><path
             d="M 0,0 C -0.351,0.46 -0.064,1.267 0.639,1.798 1.342,2.328 2.194,2.384 2.544,1.924 2.895,1.461 2.606,0.654 1.905,0.123 1.202,-0.41 0.348,-0.464 0,0"
             style="fill:#231f20;fill-opacity:1;fill-rule:nonzero;stroke:none"
             id="path78" /></g><g
           id="g80"
           transform="translate(307.3428,652.1899)"><path
             d="M 0,0 C -0.348,0.462 -0.062,1.267 0.642,1.798 1.343,2.329 2.197,2.386 2.548,1.925 2.897,1.461 2.609,0.656 1.908,0.125 1.202,-0.409 0.351,-0.465 0,0"
             style="fill:#231f20;fill-opacity:1;fill-rule:nonzero;stroke:none"
             id="path82" /></g><g
           id="g84"
           transform="translate(300.2031,651.6802)"><path
             d="M 0,0 C -0.351,0.461 -0.063,1.267 0.639,1.797 1.342,2.329 2.196,2.383 2.545,1.925 2.895,1.46 2.608,0.654 1.905,0.123 1.202,-0.409 0.351,-0.465 0,0"
             style="fill:#231f20;fill-opacity:1;fill-rule:nonzero;stroke:none"
             id="path86" /></g><g
           id="g88"
           transform="translate(310.5938,658.7349)"><path
             d="M 0,0 C -0.348,0.461 -0.063,1.267 0.641,1.797 1.342,2.329 2.196,2.386 2.547,1.924 2.897,1.46 2.608,0.655 1.907,0.124 1.202,-0.41 0.35,-0.464 0,0"
             style="fill:#231f20;fill-opacity:1;fill-rule:nonzero;stroke:none"
             id="path90" /></g><g
           id="g92"
           transform="translate(295.748,632.6782)"><path
             d="m 0,0 c 0.054,-0.757 -0.472,-1.128 -1.165,-0.821 l -8.31,3.649 c -0.695,0.306 -1.306,1.176 -1.361,1.932 l -0.682,9.549 c -0.053,0.755 0.469,1.126 1.165,0.821 l 8.306,-3.651 c 0.696,-0.305 1.311,-1.174 1.365,-1.93 z"
             style="fill:#deddde;fill-opacity:1;fill-rule:nonzero;stroke:none"
             id="path94" /></g><g
           id="g96"
           transform="translate(295.748,632.6782)"><path
             d="m 0,0 c 0.054,-0.757 -0.472,-1.128 -1.165,-0.821 l -8.31,3.649 c -0.695,0.306 -1.306,1.176 -1.361,1.932 l -0.682,9.549 c -0.053,0.755 0.469,1.126 1.165,0.821 l 8.306,-3.651 c 0.696,-0.305 1.311,-1.174 1.365,-1.93 z"
             style="fill:none;stroke:#231f20;stroke-width:0.3;stroke-linecap:butt;stroke-linejoin:miter;stroke-miterlimit:10;stroke-dasharray:none;stroke-opacity:1"
             id="path98" /></g><g
           id="g100"
           transform="translate(296.1006,644.3872)"><path
             d="m 0,0 c -0.622,-0.432 -1.703,-0.535 -2.399,-0.229 l -8.306,3.65 c -0.696,0.305 -0.753,0.908 -0.13,1.34 l 7.732,5.34 c 0.624,0.43 1.705,0.535 2.4,0.228 L 7.604,6.681 C 8.299,6.374 8.358,5.772 7.733,5.341 Z"
             style="fill:#ffffff;fill-opacity:1;fill-rule:nonzero;stroke:none"
             id="path102" /></g><g
           id="g104"
           transform="translate(296.1006,644.3872)"><path
             d="m 0,0 c -0.622,-0.432 -1.703,-0.535 -2.399,-0.229 l -8.306,3.65 c -0.696,0.305 -0.753,0.908 -0.13,1.34 l 7.732,5.34 c 0.624,0.43 1.705,0.535 2.4,0.228 L 7.604,6.681 C 8.299,6.374 8.358,5.772 7.733,5.341 Z"
             style="fill:none;stroke:#231f20;stroke-width:0.3;stroke-linecap:butt;stroke-linejoin:miter;stroke-miterlimit:10;stroke-dasharray:none;stroke-opacity:1"
             id="path106" /></g><g
           id="g108"
           transform="translate(305.7471,639.5854)"><path
             d="M 0,0 C 0.054,-0.755 -0.412,-1.729 -1.037,-2.159 L -8.768,-7.49 c -0.623,-0.43 -1.179,-0.163 -1.234,0.593 l -0.683,9.551 c -0.053,0.756 0.416,1.729 1.039,2.159 l 7.733,5.331 c 0.622,0.43 1.18,0.163 1.234,-0.593 z"
             style="fill:#bdbcbc;fill-opacity:1;fill-rule:nonzero;stroke:none"
             id="path110" /></g><g
           id="g112"
           transform="translate(305.7471,639.5854)"><path
             d="M 0,0 C 0.054,-0.755 -0.412,-1.729 -1.037,-2.159 L -8.768,-7.49 c -0.623,-0.43 -1.179,-0.163 -1.234,0.593 l -0.683,9.551 c -0.053,0.756 0.416,1.729 1.039,2.159 l 7.733,5.331 c 0.622,0.43 1.18,0.163 1.234,-0.593 z"
             style="fill:none;stroke:#231f20;stroke-width:0.3;stroke-linecap:butt;stroke-linejoin:miter;stroke-miterlimit:10;stroke-dasharray:none;stroke-opacity:1"
             id="path114" /></g><g
           id="g116"
           transform="translate(296.123,649.8276)"><path
             d="m 0,0 c 0.04,-0.578 -0.64,-1.097 -1.519,-1.159 -0.877,-0.064 -1.625,0.354 -1.665,0.931 -0.041,0.58 0.637,1.099 1.517,1.162 C -0.787,0.997 -0.044,0.579 0,0"
             style="fill:#231f20;fill-opacity:1;fill-rule:nonzero;stroke:none"
             id="path118" /></g><g
           id="g120"
           transform="translate(287.4004,643.8618)"><path
             d="M 0,0 C -0.482,-0.319 -1.267,0.02 -1.752,0.754 -2.237,1.491 -2.237,2.345 -1.755,2.666 -1.27,2.983 -0.485,2.646 0,1.911 0.485,1.174 0.485,0.318 0,0"
             style="fill:#231f20;fill-opacity:1;fill-rule:nonzero;stroke:none"
             id="path122" /></g><g
           id="g124"
           transform="translate(294.3945,633.5239)"><path
             d="m 0,0 c -0.485,-0.319 -1.27,0.019 -1.754,0.755 -0.485,0.737 -0.485,1.59 0,1.91 C -1.272,2.983 -0.487,2.646 -0.002,1.91 0.482,1.174 0.485,0.317 0,0"
             style="fill:#231f20;fill-opacity:1;fill-rule:nonzero;stroke:none"
             id="path126" /></g><g
           id="g128"
           transform="translate(297.168,633.9292)"><path
             d="M 0,0 C -0.504,0.287 -0.558,1.141 -0.118,1.904 0.318,2.671 1.081,3.056 1.585,2.769 2.089,2.479 2.14,1.627 1.704,0.862 1.264,0.098 0.501,-0.291 0,0"
             style="fill:#231f20;fill-opacity:1;fill-rule:nonzero;stroke:none"
             id="path130" /></g><g
           id="g132"
           transform="translate(299.8311,639.6079)"><path
             d="M 0,0 C -0.504,0.289 -0.555,1.144 -0.119,1.906 0.321,2.672 1.084,3.058 1.585,2.771 2.089,2.483 2.141,1.629 1.704,0.866 1.265,0.101 0.501,-0.288 0,0"
             style="fill:#231f20;fill-opacity:1;fill-rule:nonzero;stroke:none"
             id="path134" /></g><g
           id="g136"
           transform="translate(302.7129,645.2632)"><path
             d="M 0,0 C -0.502,0.288 -0.556,1.141 -0.117,1.905 0.32,2.67 1.083,3.057 1.587,2.768 2.091,2.479 2.143,1.628 1.702,0.862 1.267,0.098 0.503,-0.29 0,0"
             style="fill:#231f20;fill-opacity:1;fill-rule:nonzero;stroke:none"
             id="path138" /></g><g
           id="g140"
           transform="translate(355.792,597.8374)"><path
             d="m 0,0 h -28.679 c -1.885,4.808 -6.595,8.218 -12.116,8.218 -7.191,0 -13.023,-5.763 -13.023,-12.881 0,-0.145 0.018,-0.292 0.026,-0.443 -0.008,-0.147 -0.026,-0.298 -0.026,-0.447 0,-7.107 5.832,-12.878 13.023,-12.878 5.12,0 9.533,2.939 11.662,7.193 h 2.392 c 0.167,1.229 1.408,2.194 2.93,2.194 1.524,0 2.765,-0.965 2.931,-2.194 h 2.636 c 0.165,1.229 1.404,2.194 2.928,2.194 1.521,0 2.762,-0.965 2.929,-2.194 h 2.634 c 0.169,1.229 1.411,2.194 2.931,2.194 1.521,0 2.765,-0.965 2.932,-2.194 h 1.835 L 4.7,-3.494 v 0.892 z"
             style="fill:none;stroke:#231f20;stroke-width:1;stroke-linecap:butt;stroke-linejoin:round;stroke-miterlimit:4;stroke-dasharray:none;stroke-opacity:1"
             id="path142" /></g><g
           id="g144"
           transform="translate(360.4922,595.2358)"><path
             d="m 0,0 -33.379,1.71 c -1.886,4.806 -6.596,8.219 -12.116,8.219 -7.192,0 -13.024,-5.766 -13.024,-12.88 0,-7.108 5.832,-12.878 13.024,-12.878 5.12,0 9.533,2.938 11.662,7.192 h 2.392 c 0.167,1.23 1.408,2.195 2.93,2.195 1.524,0 2.765,-0.965 2.931,-2.195 h 2.636 c 0.165,1.23 1.404,2.195 2.927,2.195 1.522,0 2.763,-0.965 2.93,-2.195 h 2.634 c 0.169,1.23 1.411,2.195 2.931,2.195 1.521,0 2.765,-0.965 2.932,-2.195 h 1.835 L 0,-0.893 Z"
             style="fill:#278a2f;fill-opacity:1;fill-rule:nonzero;stroke:none"
             id="path146" /></g><g
           id="g148"
           transform="translate(360.4922,595.2358)"><path
             d="m 0,0 -33.379,1.71 c -1.886,4.806 -6.596,8.219 -12.116,8.219 -7.192,0 -13.024,-5.766 -13.024,-12.88 0,-7.108 5.832,-12.878 13.024,-12.878 5.12,0 9.533,2.938 11.662,7.192 h 2.392 c 0.167,1.23 1.408,2.195 2.93,2.195 1.524,0 2.765,-0.965 2.931,-2.195 h 2.636 c 0.165,1.23 1.404,2.195 2.927,2.195 1.522,0 2.763,-0.965 2.93,-2.195 h 2.634 c 0.169,1.23 1.411,2.195 2.931,2.195 1.521,0 2.765,-0.965 2.932,-2.195 h 1.835 L 0,-0.893 Z"
             style="fill:none;stroke:#278a2f;stroke-width:0.3;stroke-linecap:butt;stroke-linejoin:round;stroke-miterlimit:4;stroke-dasharray:none;stroke-opacity:1"
             id="path150" /></g></g></g><g
       id="g152"><g
         id="g154"><g
           id="g160"><g
             id="g162"><path
               d="m 301.973,593.175 c 0,-7.109 5.832,-12.876 13.024,-12.876 v 0 c 5.12,0 9.533,2.938 11.662,7.195 v 0 h 2.392 c 0.167,1.227 1.408,2.192 2.93,2.192 v 0 c 1.524,0 2.765,-0.965 2.932,-2.192 v 0 h 2.635 c 0.165,1.227 1.404,2.192 2.927,2.192 v 0 c 1.522,0 2.763,-0.965 2.93,-2.192 v 0 h 2.634 c 0.169,1.227 1.411,2.192 2.931,2.192 v 0 c 1.521,0 2.765,-0.965 2.933,-2.192 v 0 h 1.834 l 6.755,7.742 -4.7,2.602 h -28.679 c -1.885,4.807 -6.595,8.217 -12.116,8.217 v 0 c -7.192,0 -13.024,-5.762 -13.024,-12.88"
               style="fill:url(#linearGradient168);stroke:none"
               id="path170" /></g></g></g></g><g
       id="g172"><g
         id="g174"><g
           id="g180"><g
             id="g182"><path
               d="m 303.019,593.175 c 0,-6.521 5.37,-11.831 11.978,-11.831 v 0 c 4.58,0 8.692,2.533 10.724,6.615 v 0 l 0.291,0.576 h 2.268 c 0.598,1.299 2.045,2.194 3.701,2.194 v 0 c 1.66,0 3.103,-0.895 3.7,-2.194 v 0 h 1.097 c 0.599,1.299 2.041,2.194 3.697,2.194 v 0 c 1.659,0 3.103,-0.895 3.701,-2.194 v 0 h 1.097 c 0.597,1.299 2.041,2.194 3.697,2.194 v 0 c 1.656,0 3.103,-0.895 3.699,-2.194 v 0 h 0.592 l 5.593,6.413 -3.332,1.848 h -29.121 l -0.256,0.661 c -1.802,4.59 -6.181,7.558 -11.148,7.558 v 0 c -6.608,0 -11.978,-5.309 -11.978,-11.84"
               style="fill:url(#linearGradient188);stroke:none"
               id="path190" /></g></g></g></g><g
       id="g192"><g
         id="g194"
         clip-path="url(#clipPath198)"><g
           id="g200"
           transform="translate(325.2754,593.1743)"><path
             d="m 0,0 c 0,-5.677 -4.604,-10.281 -10.278,-10.281 -5.686,0 -10.294,4.604 -10.294,10.281 0,5.684 4.608,10.292 10.294,10.292 C -4.604,10.292 0,5.684 0,0"
             style="fill:#ffffff;fill-opacity:1;fill-rule:nonzero;stroke:none"
             id="path202" /></g><text
           transform="matrix(1,0,0,-1,305.6836,589.2285)"
           style="font-variant:normal;font-weight:normal;font-stretch:normal;font-size:10.3681px;font-family:Arial;-inkscape-font-specification:ArialMT;writing-mode:lr-tb;fill:#231f20;fill-opacity:1;fill-rule:nonzero;stroke:none"
           id="text206"><tspan
             x="0 6.9155226 12.680186"
             y="0"
             id="tspan204">Pub</tspan></text><g
           id="g208"
           transform="translate(315.0107,610.7788)"><path
             d="M 0,0 V 12.476"
             style="fill:none;stroke:#231f20;stroke-width:0.5;stroke-linecap:butt;stroke-linejoin:miter;stroke-miterlimit:4;stroke-dasharray:none;stroke-opacity:1"
             id="path210" /></g><g
           id="g212"
           transform="translate(314.4092,609.0732)"><path
             d="M 0,0 C -0.283,0.951 -0.547,1.571 -0.85,2.334 L 2.053,2.325 C 1.922,2.053 1.477,0.945 1.186,-0.002 0.873,-1.02 0.662,-1.941 0.584,-2.539 0.512,-1.939 0.303,-1.016 0,0"
             style="fill:#231f20;fill-opacity:1;fill-rule:nonzero;stroke:none"
             id="path214" /></g><g
           id="g216"
           transform="translate(355.8242,642.1133)"><path
             d="m 0,0 h -28.694 c -1.889,4.809 -6.599,8.223 -12.133,8.223 -7.188,0 -13.019,-5.767 -13.019,-12.883 0,-0.151 0.018,-0.3 0.023,-0.445 -0.005,-0.152 -0.023,-0.299 -0.023,-0.45 0,-7.113 5.831,-12.885 13.019,-12.885 5.129,0 9.554,2.938 11.675,7.194 h 2.394 c 0.171,1.235 1.41,2.199 2.936,2.199 1.52,0 2.76,-0.964 2.933,-2.199 h 2.632 c 0.167,1.235 1.406,2.199 2.935,2.199 1.517,0 2.766,-0.964 2.93,-2.199 h 2.635 c 0.168,1.235 1.41,2.199 2.933,2.199 1.527,0 2.765,-0.964 2.929,-2.199 h 1.837 l 6.759,7.749 v 0.893 z"
             style="fill:none;stroke:#231f20;stroke-width:1;stroke-linecap:butt;stroke-linejoin:round;stroke-miterlimit:4;stroke-dasharray:none;stroke-opacity:1"
             id="path218" /></g><g
           id="g220"
           transform="translate(360.5254,639.5098)"><path
             d="m 0,0 -33.396,1.71 c -1.888,4.813 -6.598,8.224 -12.132,8.224 -7.188,0 -13.019,-5.767 -13.019,-12.885 0,-7.113 5.831,-12.886 13.019,-12.886 5.129,0 9.553,2.939 11.674,7.194 h 2.395 c 0.171,1.236 1.41,2.2 2.936,2.2 1.52,0 2.76,-0.964 2.933,-2.2 h 2.632 c 0.167,1.236 1.406,2.2 2.935,2.2 1.517,0 2.766,-0.964 2.93,-2.2 h 2.635 c 0.168,1.236 1.41,2.2 2.933,2.2 1.527,0 2.765,-0.964 2.929,-2.2 h 1.837 L 0,-0.894 Z"
             style="fill:#a21217;fill-opacity:1;fill-rule:nonzero;stroke:none"
             id="path222" /></g><g
           id="g224"
           transform="translate(360.5254,639.5098)"><path
             d="m 0,0 -33.396,1.71 c -1.888,4.813 -6.598,8.224 -12.132,8.224 -7.188,0 -13.019,-5.767 -13.019,-12.885 0,-7.113 5.831,-12.886 13.019,-12.886 5.129,0 9.553,2.939 11.674,7.194 h 2.395 c 0.171,1.236 1.41,2.2 2.936,2.2 1.52,0 2.76,-0.964 2.933,-2.2 h 2.632 c 0.167,1.236 1.406,2.2 2.935,2.2 1.517,0 2.766,-0.964 2.93,-2.2 h 2.635 c 0.168,1.236 1.41,2.2 2.933,2.2 1.527,0 2.765,-0.964 2.929,-2.2 h 1.837 L 0,-0.894 Z"
             style="fill:none;stroke:#a21217;stroke-width:0.3;stroke-linecap:butt;stroke-linejoin:round;stroke-miterlimit:4;stroke-dasharray:none;stroke-opacity:1"
             id="path226" /></g></g></g><g
       id="g228"><g
         id="g230"><g
           id="g236"><g
             id="g238"><path
               d="m 301.979,637.453 c 0,-7.116 5.831,-12.885 13.018,-12.885 v 0 c 5.129,0 9.554,2.937 11.675,7.197 v 0 h 2.394 c 0.171,1.229 1.41,2.192 2.936,2.192 v 0 c 1.521,0 2.761,-0.963 2.934,-2.192 v 0 h 2.632 c 0.166,1.229 1.405,2.192 2.933,2.192 v 0 c 1.519,0 2.767,-0.963 2.932,-2.192 v 0 h 2.634 c 0.168,1.229 1.41,2.192 2.933,2.192 v 0 c 1.527,0 2.766,-0.963 2.93,-2.192 v 0 h 1.837 l 6.759,7.744 -4.702,2.604 H 327.13 c -1.889,4.809 -6.599,8.223 -12.133,8.223 v 0 c -7.187,0 -13.018,-5.767 -13.018,-12.883"
               style="fill:url(#linearGradient246);stroke:none"
               id="path248" /></g></g></g></g><g
       id="g250"><g
         id="g252"><g
           id="g258"><g
             id="g260"><path
               d="m 303.022,637.453 c 0,-6.53 5.371,-11.842 11.975,-11.842 v 0 c 4.593,0 8.704,2.536 10.74,6.618 v 0 l 0.29,0.579 h 2.269 c 0.599,1.295 2.044,2.192 3.706,2.192 v 0 c 1.657,0 3.104,-0.897 3.698,-2.192 v 0 h 1.095 c 0.602,1.295 2.047,2.192 3.706,2.192 v 0 c 1.66,0 3.103,-0.897 3.7,-2.192 v 0 h 1.097 c 0.596,1.295 2.05,2.192 3.702,2.192 v 0 c 1.658,0 3.104,-0.897 3.704,-2.192 v 0 h 0.586 l 5.603,6.412 -3.34,1.849 h -29.132 l -0.264,0.663 c -1.802,4.595 -6.178,7.561 -11.16,7.561 v 0 c -6.604,0 -11.975,-5.31 -11.975,-11.84"
               style="fill:url(#linearGradient266);stroke:none"
               id="path268" /></g></g></g></g><g
       id="g270"><g
         id="g272"
         clip-path="url(#clipPath276)"><g
           id="g278"
           transform="translate(325.2861,637.4531)"><path
             d="m 0,0 c 0,-5.683 -4.603,-10.29 -10.289,-10.29 -5.679,0 -10.283,4.607 -10.283,10.29 0,5.681 4.604,10.289 10.283,10.289 C -4.603,10.289 0,5.681 0,0"
             style="fill:#ffffff;fill-opacity:1;fill-rule:nonzero;stroke:none"
             id="path280" /></g><text
           transform="matrix(1,0,0,-1,305.9785,633.5103)"
           style="font-variant:normal;font-weight:normal;font-stretch:normal;font-size:10.3734px;font-family:Arial;-inkscape-font-specification:ArialMT;writing-mode:lr-tb;fill:#231f20;fill-opacity:1;fill-rule:nonzero;stroke:none"
           id="text284"><tspan
             x="0 6.9190578 10.3734 12.676294"
             y="0"
             id="tspan282">Priv</tspan></text></g></g></g></svg>
