<?xml version="1.0" encoding="UTF-8" standalone="no"?>
<svg
   xmlns:dc="http://purl.org/dc/elements/1.1/"
   xmlns:cc="http://creativecommons.org/ns#"
   xmlns:rdf="http://www.w3.org/1999/02/22-rdf-syntax-ns#"
   xmlns:svg="http://www.w3.org/2000/svg"
   xmlns="http://www.w3.org/2000/svg"
   version="1.1"
   id="svg2"
   xml:space="preserve"
   width="481.21713"
   height="212.40065"
   viewBox="0 0 481.21713 212.40065"><metadata
     id="metadata8"><rdf:RDF><cc:Work
         rdf:about=""><dc:format>image/svg+xml</dc:format><dc:type
           rdf:resource="http://purl.org/dc/dcmitype/StillImage" /></cc:Work></rdf:RDF></metadata><defs
     id="defs6"><clipPath
       clipPathUnits="userSpaceOnUse"
       id="clipPath18"><path
         d="M 0,792 H 612 V 0 H 0 Z"
         id="path16" /></clipPath><clipPath
       clipPathUnits="userSpaceOnUse"
       id="clipPath72"><path
         d="m 122.03,639.5 c 0.108,-10.784 7.047,-18.693 2.45,-29.556 v 0 h 14.667 V 639.5 Z"
         id="path70" /></clipPath><clipPath
       clipPathUnits="userSpaceOnUse"
       id="clipPath88"><path
         d="M 0,792 H 612 V 0 H 0 Z"
         id="path86" /></clipPath></defs><g
     id="g10"
     transform="matrix(1.3333333,0,0,-1.3333333,-162.16733,910.61002)"><g
       id="g12"><g
         id="g14"
         clip-path="url(#clipPath18)"><text
           transform="matrix(1,0,0,-1,177.9404,676.7129)"
           style="font-variant:normal;font-weight:bold;font-stretch:condensed;font-size:9px;font-family:'Humanst521 Cn BT';-inkscape-font-specification:Humanist521BT-BoldCondensed;writing-mode:lr-tb;fill:#231f20;fill-opacity:1;fill-rule:nonzero;stroke:none"
           id="text64"><tspan
             x="0 5.2740002 7.434 11.943 14.247 18.729 23.076 27.584999 31.545 35.046001 37.349998 39.483002 43.587002 48.069 52.416 55.808998"
             y="0"
             id="tspan20">Old nodes ignore</tspan><tspan
             x="0 3.7709999 8.118 12.6 15.993 18.297001 22.806 24.966 29.313 32.912998 37.098 39.402 43.452 47.933998"
             y="9.5039997"
             id="tspan22">your block and</tspan><tspan
             x="0 4.5089998 8.9910002 11.124 13.284 17.792999 20.097 24.444 28.926001 31.23 36.504002 38.664001 43.173 45.477001 49.986 52.146 56.493 60.092999 64.278 67.778999"
             y="19.007999"
             id="tspan24">build on Old blocks.</tspan><tspan
             x="235.026 240.3 242.46001 246.96899 249.27299 253.755 258.10199 262.61099 266.57101 270.07199 272.37601 274.509 278.61301 283.095 287.44199 290.83499"
             y="0.0089999996"
             id="tspan26">Old nodes ignore</tspan><tspan
             x="235.026 238.797 243.144 247.62601 251.019 253.323 257.832 259.992 264.33899 267.939 272.12399 274.42801 278.478 282.95999"
             y="9.5129995"
             id="tspan28">your block and</tspan><tspan
             x="235.026 239.535 244.017 246.14999 248.31 252.819 255.123 259.47 263.952 266.25601 271.53 273.69 278.19901 280.50299 285.01199 287.172 291.51901 295.11899 299.30399 302.80499"
             y="19.017"
             id="tspan30">build on Old blocks.</tspan><tspan
             x="67.112999 70.596001 74.943001 79.425003 81.728996 85.230003 90.935997 93.069 96.066002 99.666 104.157 106.452 109.449"
             y="92.906998"
             id="tspan32">You switch to</tspan><tspan
             x="67.112999 70.110001 74.600998 76.734001 80.235001 82.539001 87.047997 89.208 93.555 97.154999 101.34 103.644 107.694 111.798 115.848 117.981"
             y="102.411"
             id="tspan34">this block again</tspan><tspan
             x="67.112999 71.163002 75.644997 80.153999 82.458 86.967003 90.360001 94.707001 99.216003 101.52 105.291 109.638 114.12"
             y="111.915"
             id="tspan36">and drop your</tspan><tspan
             x="67.112999 71.622002 75.014999 78.974998 82.700996 84.834 89.181 93.663002 97.164001 99.468002 103.977 106.137 110.484 114.084 118.269"
             y="121.419"
             id="tspan38">previous block.</tspan><tspan
             x="135.153 138.636 142.983 147.465 149.769 154.278 158.75999 160.89301 163.05299 167.562 169.866 173.916 176.22 180.729 182.88901 187.23599 190.836"
             y="92.916"
             id="tspan40">You build a block</tspan><tspan
             x="135.153 139.5 141.813 144.117 147.825 150.01199 154.62 159.228 163.836 166.02299 170.631 175.239 179.847 182.151 190.20599 195.435"
             y="102.42"
             id="tspan42">of 3,000,000 WU.</tspan><tspan
             x="135.153 137.69099 140.688 142.875 146.38499 148.689 152.739 156.339 159.939 163.899 168.408 171.405 175.36501 179.87399 182.17799 186.687"
             y="111.924"
             id="tspan44">It’s accepted by</tspan><tspan
             x="135.153 139.995 142.12801 145.125 148.72501 153.07201 155.205 159.687 161.991 167.265 169.425 173.93401"
             y="121.428"
             id="tspan46">Bitcoin Old.</tspan><tspan
             x="-4.6890001 -1.206 3.141 7.6230001 9.927 14.436 18.917999 21.051001 23.211 27.719999 30.024 34.074001 36.377998 40.887001 43.047001 47.394001 50.993999"
             y="124.425"
             id="tspan48">You build a block</tspan><tspan
             x="-4.6890001 -0.34200001 1.971 4.2750001 8.7299995 10.917 15.525 20.132999 24.740999 26.927999 31.535999 36.144001 40.751999 43.056 51.111 56.34"
             y="133.929"
             id="tspan50">of 6,000,000 WU.</tspan><tspan
             x="-4.6890001 -2.151 0.84600002 3.033 6.5339999 8.8380003 12.231 16.191 18.315001 22.275 25.875 28.872 32.832001 37.341 39.645 44.153999"
             y="143.433"
             id="tspan52">It’s rejected by</tspan><tspan
             x="-4.6890001 0.153 2.286 5.283 8.8830004 13.23 15.363 19.844999 22.149 27.423 29.583 34.091999"
             y="152.937"
             id="tspan54">Bitcoin Old.</tspan><tspan
             x="241.785 245.26801 249.61501 254.097 256.401 260.91 265.392 267.52499 269.685 274.194 276.49799 280.548 282.85199 287.36099 289.521 293.86801 297.46799"
             y="124.434"
             id="tspan56">You build a block</tspan><tspan
             x="241.785 246.132 248.44501 250.74899 254.808 256.995 261.603 266.211 270.819 273.00601 277.61401 282.22198 286.82999 289.134 297.189 302.418"
             y="133.938"
             id="tspan58">of 5,000,000 WU.</tspan><tspan
             x="241.785 244.323 247.32001 249.507 253.017 255.321 258.71399 262.67401 264.798 268.758 272.358 275.35501 279.315 283.82401 286.12799 290.63699"
             y="143.442"
             id="tspan60">It’s rejected by</tspan><tspan
             x="241.785 246.627 248.75999 251.757 255.35699 259.70401 261.83701 266.319 268.62299 273.897 276.05701 280.56601"
             y="152.946"
             id="tspan62">Bitcoin Old.</tspan></text></g></g><g
       id="g66"><g
         id="g68"
         clip-path="url(#clipPath72)"><g
           id="g74"
           transform="translate(137.2666,613.4473)"><path
             d="m 0,0 c 0,-1.1 -0.9,-2 -2,-2 h -15.769 c -1.1,0 -2,0.9 -2,2 v 22.459 c 0,1.1 0.9,2 2,2 H -2 c 1.1,0 2,-0.9 2,-2 z"
             style="fill:#deecf5;fill-opacity:1;fill-rule:nonzero;stroke:none"
             id="path76" /></g><g
           id="g78"
           transform="translate(137.2666,613.4473)"><path
             d="m 0,0 c 0,-1.1 -0.9,-2 -2,-2 h -15.769 c -1.1,0 -2,0.9 -2,2 v 22.459 c 0,1.1 0.9,2 2,2 H -2 c 1.1,0 2,-0.9 2,-2 z"
             style="fill:none;stroke:#231f20;stroke-width:0.5;stroke-linecap:butt;stroke-linejoin:round;stroke-miterlimit:14.336;stroke-dasharray:none;stroke-opacity:1"
             id="path80" /></g></g></g><g
       id="g82"><g
         id="g84"
         clip-path="url(#clipPath88)"><g
           id="g90"
           transform="translate(124.4795,609.9443)"><path
             d="M 0,0 C 4.629,10.522 -2.479,19.538 -2.479,29.507"
             style="fill:none;stroke:#231f20;stroke-width:0.75;stroke-linecap:butt;stroke-linejoin:miter;stroke-miterlimit:10;stroke-dasharray:none;stroke-opacity:1"
             id="path92" /></g><g
           id="g94"
           transform="translate(142.0469,624.6777)"><path
             d="M 0,0 H 5.452"
             style="fill:none;stroke:#231f20;stroke-width:0.5;stroke-linecap:butt;stroke-linejoin:miter;stroke-miterlimit:4;stroke-dasharray:none;stroke-opacity:1"
             id="path96" /></g><g
           id="g98"
           transform="translate(140.0322,625.2832)"><path
             d="m 0,0 c 0.951,0.283 1.57,0.546 2.334,0.849 l -0.01,-2.902 c -0.271,0.131 -1.379,0.576 -2.326,0.867 -1.018,0.313 -1.939,0.524 -2.537,0.602 0.6,0.072 1.523,0.281 2.539,0.584"
             style="fill:#231f20;fill-opacity:1;fill-rule:nonzero;stroke:none"
             id="path100" /></g><g
           id="g102"
           transform="translate(176.2197,613.5371)"><path
             d="m 0,0 c 0,-1.1 -0.9,-2 -2,-2 h -24.47 c -1.1,0 -2,0.9 -2,2 v 22.459 c 0,1.1 0.9,2 2,2 H -2 c 1.1,0 2,-0.9 2,-2 z"
             style="fill:#deecf5;fill-opacity:1;fill-rule:nonzero;stroke:none"
             id="path104" /></g><g
           id="g106"
           transform="translate(176.2197,613.5371)"><path
             d="m 0,0 c 0,-1.1 -0.9,-2 -2,-2 h -24.47 c -1.1,0 -2,0.9 -2,2 v 22.459 c 0,1.1 0.9,2 2,2 H -2 c 1.1,0 2,-0.9 2,-2 z"
             style="fill:none;stroke:#231f20;stroke-width:0.5;stroke-linecap:butt;stroke-linejoin:round;stroke-miterlimit:14.336;stroke-dasharray:none;stroke-opacity:1"
             id="path108" /></g><text
           transform="matrix(1,0,0,-1,156.5386,622.021)"
           style="font-variant:normal;font-weight:normal;font-stretch:normal;font-size:7px;font-family:Arial;-inkscape-font-specification:ArialMT;writing-mode:lr-tb;fill:#231f20;fill-opacity:1;fill-rule:nonzero;stroke:none"
           id="text112"><tspan
             x="0 5.4460001 7 -31.549 -29.995001"
             y="0"
             id="tspan110">Oldld</tspan></text><g
           id="g114"
           transform="translate(430.7998,624.6777)"><path
             d="M 0,0 H 22.479"
             style="fill:none;stroke:#231f20;stroke-width:0.5;stroke-linecap:butt;stroke-linejoin:miter;stroke-miterlimit:4;stroke-dasharray:none;stroke-opacity:1"
             id="path116" /></g><g
           id="g118"
           transform="translate(428.7852,625.2832)"><path
             d="m 0,0 c 0.951,0.283 1.57,0.546 2.334,0.849 l -0.01,-2.902 c -0.271,0.131 -1.379,0.576 -2.326,0.867 -1.018,0.313 -1.939,0.524 -2.537,0.602 0.6,0.072 1.523,0.281 2.539,0.584"
             style="fill:#231f20;fill-opacity:1;fill-rule:nonzero;stroke:none"
             id="path120" /></g><g
           id="g122"
           transform="translate(482,613.5371)"><path
             d="m 0,0 c 0,-1.1 -0.9,-2 -2,-2 h -24.47 c -1.099,0 -2,0.9 -2,2 v 22.459 c 0,1.1 0.901,2 2,2 H -2 c 1.1,0 2,-0.9 2,-2 z"
             style="fill:#deecf5;fill-opacity:1;fill-rule:nonzero;stroke:none"
             id="path124" /></g><g
           id="g126"
           transform="translate(482,613.5371)"><path
             d="m 0,0 c 0,-1.1 -0.9,-2 -2,-2 h -24.47 c -1.099,0 -2,0.9 -2,2 v 22.459 c 0,1.1 0.901,2 2,2 H -2 c 1.1,0 2,-0.9 2,-2 z"
             style="fill:none;stroke:#231f20;stroke-width:0.5;stroke-linecap:butt;stroke-linejoin:round;stroke-miterlimit:14.336;stroke-dasharray:none;stroke-opacity:1"
             id="path128" /></g><text
           transform="matrix(1,0,0,-1,462.3188,622.021)"
           style="font-variant:normal;font-weight:normal;font-stretch:normal;font-size:7px;font-family:Arial;-inkscape-font-specification:ArialMT;writing-mode:lr-tb;fill:#231f20;fill-opacity:1;fill-rule:nonzero;stroke:none"
           id="text132"><tspan
             x="0 5.4460001 7"
             y="0"
             id="tspan130">Old</tspan></text><g
           id="g134"
           transform="translate(391.8271,624.6777)"><path
             d="M 0,0 H 5.452"
             style="fill:none;stroke:#231f20;stroke-width:0.5;stroke-linecap:butt;stroke-linejoin:miter;stroke-miterlimit:4;stroke-dasharray:none;stroke-opacity:1"
             id="path136" /></g><g
           id="g138"
           transform="translate(389.8125,625.2832)"><path
             d="m 0,0 c 0.951,0.283 1.57,0.546 2.334,0.849 l -0.01,-2.902 c -0.271,0.131 -1.379,0.576 -2.326,0.867 -1.018,0.313 -1.939,0.524 -2.537,0.602 0.6,0.072 1.523,0.281 2.539,0.584"
             style="fill:#231f20;fill-opacity:1;fill-rule:nonzero;stroke:none"
             id="path140" /></g><g
           id="g142"
           transform="translate(426,613.5371)"><path
             d="m 0,0 c 0,-1.1 -0.9,-2 -2,-2 h -24.47 c -1.099,0 -2,0.9 -2,2 v 22.459 c 0,1.1 0.901,2 2,2 H -2 c 1.1,0 2,-0.9 2,-2 z"
             style="fill:#deecf5;fill-opacity:1;fill-rule:nonzero;stroke:none"
             id="path144" /></g><g
           id="g146"
           transform="translate(426,613.5371)"><path
             d="m 0,0 c 0,-1.1 -0.9,-2 -2,-2 h -24.47 c -1.099,0 -2,0.9 -2,2 v 22.459 c 0,1.1 0.901,2 2,2 H -2 c 1.1,0 2,-0.9 2,-2 z"
             style="fill:none;stroke:#231f20;stroke-width:0.5;stroke-linecap:butt;stroke-linejoin:round;stroke-miterlimit:14.336;stroke-dasharray:none;stroke-opacity:1"
             id="path148" /></g><text
           transform="matrix(1,0,0,-1,406.3188,622.021)"
           style="font-variant:normal;font-weight:normal;font-stretch:normal;font-size:7px;font-family:Arial;-inkscape-font-specification:ArialMT;writing-mode:lr-tb;fill:#231f20;fill-opacity:1;fill-rule:nonzero;stroke:none"
           id="text152"><tspan
             x="0 5.4460001 7"
             y="0"
             id="tspan150">Old</tspan></text><g
           id="g154"
           transform="translate(352.8271,624.6777)"><path
             d="M 0,0 H 5.452"
             style="fill:none;stroke:#231f20;stroke-width:0.5;stroke-linecap:butt;stroke-linejoin:miter;stroke-miterlimit:4;stroke-dasharray:none;stroke-opacity:1"
             id="path156" /></g><g
           id="g158"
           transform="translate(350.8125,625.2832)"><path
             d="m 0,0 c 0.951,0.283 1.57,0.546 2.334,0.849 l -0.01,-2.902 c -0.271,0.131 -1.379,0.576 -2.326,0.867 -1.018,0.313 -1.939,0.524 -2.537,0.602 0.6,0.072 1.523,0.281 2.539,0.584"
             style="fill:#231f20;fill-opacity:1;fill-rule:nonzero;stroke:none"
             id="path160" /></g><g
           id="g162"
           transform="translate(387,613.5371)"><path
             d="m 0,0 c 0,-1.1 -0.9,-2 -2,-2 h -24.47 c -1.099,0 -2,0.9 -2,2 v 22.459 c 0,1.1 0.901,2 2,2 H -2 c 1.1,0 2,-0.9 2,-2 z"
             style="fill:#deecf5;fill-opacity:1;fill-rule:nonzero;stroke:none"
             id="path164" /></g><g
           id="g166"
           transform="translate(387,613.5371)"><path
             d="m 0,0 c 0,-1.1 -0.9,-2 -2,-2 h -24.47 c -1.099,0 -2,0.9 -2,2 v 22.459 c 0,1.1 0.901,2 2,2 H -2 c 1.1,0 2,-0.9 2,-2 z"
             style="fill:none;stroke:#231f20;stroke-width:0.5;stroke-linecap:butt;stroke-linejoin:round;stroke-miterlimit:14.336;stroke-dasharray:none;stroke-opacity:1"
             id="path168" /></g><text
           transform="matrix(1,0,0,-1,367.3188,622.021)"
           style="font-variant:normal;font-weight:normal;font-stretch:normal;font-size:7px;font-family:Arial;-inkscape-font-specification:ArialMT;writing-mode:lr-tb;fill:#231f20;fill-opacity:1;fill-rule:nonzero;stroke:none"
           id="text172"><tspan
             x="0 5.4460001 7"
             y="0"
             id="tspan170">Old</tspan></text><g
           id="g174"
           transform="translate(313.8271,624.6777)"><path
             d="M 0,0 H 5.452"
             style="fill:none;stroke:#231f20;stroke-width:0.5;stroke-linecap:butt;stroke-linejoin:miter;stroke-miterlimit:4;stroke-dasharray:none;stroke-opacity:1"
             id="path176" /></g><g
           id="g178"
           transform="translate(311.8125,625.2832)"><path
             d="m 0,0 c 0.951,0.283 1.57,0.546 2.334,0.849 l -0.01,-2.902 c -0.271,0.131 -1.379,0.576 -2.326,0.867 -1.018,0.313 -1.939,0.524 -2.537,0.602 0.6,0.072 1.523,0.281 2.539,0.584"
             style="fill:#231f20;fill-opacity:1;fill-rule:nonzero;stroke:none"
             id="path180" /></g><g
           id="g182"
           transform="translate(348,613.5371)"><path
             d="m 0,0 c 0,-1.1 -0.9,-2 -2,-2 h -24.47 c -1.099,0 -2,0.9 -2,2 v 22.459 c 0,1.1 0.901,2 2,2 H -2 c 1.1,0 2,-0.9 2,-2 z"
             style="fill:#d9c4e6;fill-opacity:1;fill-rule:nonzero;stroke:none"
             id="path184" /></g><g
           id="g186"
           transform="translate(348,613.5371)"><path
             d="m 0,0 c 0,-1.1 -0.9,-2 -2,-2 h -24.47 c -1.099,0 -2,0.9 -2,2 v 22.459 c 0,1.1 0.901,2 2,2 H -2 c 1.1,0 2,-0.9 2,-2 z"
             style="fill:none;stroke:#231f20;stroke-width:0.5;stroke-linecap:butt;stroke-linejoin:round;stroke-miterlimit:14.336;stroke-dasharray:none;stroke-opacity:1"
             id="path188" /></g><text
           transform="matrix(1,0,0,-1,326.7632,622.021)"
           style="font-variant:normal;font-weight:normal;font-stretch:normal;font-size:7px;font-family:Arial;-inkscape-font-specification:ArialMT;writing-mode:lr-tb;fill:#231f20;fill-opacity:1;fill-rule:nonzero;stroke:none"
           id="text192"><tspan
             x="0 5.0539999 8.9460001"
             y="0"
             id="tspan190">New</tspan></text><g
           id="g194"
           transform="translate(222.9697,580.791)"><path
             d="m 0,0 c 0,-1.1 -0.9,-2 -2,-2 h -24.47 c -1.099,0 -2,0.9 -2,2 v 22.459 c 0,1.1 0.901,2 2,2 H -2 c 1.1,0 2,-0.9 2,-2 z"
             style="fill:#d9c4e6;fill-opacity:1;fill-rule:nonzero;stroke:none"
             id="path196" /></g><g
           id="g198"
           transform="translate(222.9697,580.791)"><path
             d="m 0,0 c 0,-1.1 -0.9,-2 -2,-2 h -24.47 c -1.099,0 -2,0.9 -2,2 v 22.459 c 0,1.1 0.901,2 2,2 H -2 c 1.1,0 2,-0.9 2,-2 z"
             style="fill:none;stroke:#231f20;stroke-width:0.5;stroke-linecap:butt;stroke-linejoin:round;stroke-miterlimit:14.336;stroke-dasharray:none;stroke-opacity:1"
             id="path200" /></g><text
           transform="matrix(1,0,0,-1,201.7329,589.2749)"
           style="font-variant:normal;font-weight:normal;font-stretch:normal;font-size:7px;font-family:Arial;-inkscape-font-specification:ArialMT;writing-mode:lr-tb;fill:#231f20;fill-opacity:1;fill-rule:nonzero;stroke:none"
           id="text204"><tspan
             x="0 5.0539999 8.9460001"
             y="0"
             id="tspan202">New</tspan></text><g
           id="g206"
           transform="translate(274.8271,624.6777)"><path
             d="M 0,0 H 5.452"
             style="fill:none;stroke:#231f20;stroke-width:0.5;stroke-linecap:butt;stroke-linejoin:miter;stroke-miterlimit:4;stroke-dasharray:none;stroke-opacity:1"
             id="path208" /></g><g
           id="g210"
           transform="translate(272.8125,625.2832)"><path
             d="m 0,0 c 0.951,0.283 1.57,0.546 2.334,0.849 l -0.01,-2.902 c -0.271,0.131 -1.379,0.576 -2.326,0.867 -1.018,0.313 -1.939,0.524 -2.537,0.602 0.6,0.072 1.523,0.281 2.539,0.584"
             style="fill:#231f20;fill-opacity:1;fill-rule:nonzero;stroke:none"
             id="path212" /></g><g
           id="g214"
           transform="translate(309,613.5371)"><path
             d="m 0,0 c 0,-1.1 -0.9,-2 -2,-2 h -24.47 c -1.1,0 -2,0.9 -2,2 v 22.459 c 0,1.1 0.9,2 2,2 H -2 c 1.1,0 2,-0.9 2,-2 z"
             style="fill:#deecf5;fill-opacity:1;fill-rule:nonzero;stroke:none"
             id="path216" /></g><g
           id="g218"
           transform="translate(309,613.5371)"><path
             d="m 0,0 c 0,-1.1 -0.9,-2 -2,-2 h -24.47 c -1.1,0 -2,0.9 -2,2 v 22.459 c 0,1.1 0.9,2 2,2 H -2 c 1.1,0 2,-0.9 2,-2 z"
             style="fill:none;stroke:#231f20;stroke-width:0.5;stroke-linecap:butt;stroke-linejoin:round;stroke-miterlimit:14.336;stroke-dasharray:none;stroke-opacity:1"
             id="path220" /></g><text
           transform="matrix(1,0,0,-1,289.3188,622.021)"
           style="font-variant:normal;font-weight:normal;font-stretch:normal;font-size:7px;font-family:Arial;-inkscape-font-specification:ArialMT;writing-mode:lr-tb;fill:#231f20;fill-opacity:1;fill-rule:nonzero;stroke:none"
           id="text224"><tspan
             x="0 5.4460001 7"
             y="0"
             id="tspan222">Old</tspan></text><g
           id="g226"
           transform="translate(180.9248,624.6777)"><path
             d="M 0,0 H 21.354"
             style="fill:none;stroke:#231f20;stroke-width:0.5;stroke-linecap:butt;stroke-linejoin:miter;stroke-miterlimit:4;stroke-dasharray:none;stroke-opacity:1"
             id="path228" /></g><g
           id="g230"
           transform="translate(178.9102,625.2832)"><path
             d="m 0,0 c 0.951,0.283 1.57,0.546 2.334,0.849 l -0.01,-2.902 c -0.271,0.131 -1.379,0.576 -2.326,0.867 -1.018,0.313 -1.939,0.524 -2.537,0.602 0.6,0.072 1.523,0.281 2.539,0.584"
             style="fill:#231f20;fill-opacity:1;fill-rule:nonzero;stroke:none"
             id="path232" /></g><g
           id="g234"
           transform="translate(180.9248,621.1973)"><path
             d="m 0,0 h 6.45 v -29.302 h 7"
             style="fill:none;stroke:#231f20;stroke-width:0.5;stroke-linecap:butt;stroke-linejoin:miter;stroke-miterlimit:4;stroke-dasharray:none;stroke-opacity:1"
             id="path236" /></g><g
           id="g238"
           transform="translate(178.9102,621.8027)"><path
             d="m 0,0 c 0.951,0.283 1.57,0.546 2.334,0.849 l -0.01,-2.902 c -0.271,0.131 -1.379,0.576 -2.326,0.867 -1.018,0.313 -1.939,0.524 -2.537,0.602 0.6,0.072 1.523,0.281 2.539,0.584"
             style="fill:#231f20;fill-opacity:1;fill-rule:nonzero;stroke:none"
             id="path240" /></g><g
           id="g242"
           transform="translate(472.75,580.791)"><path
             d="m 0,0 c 0,-1.1 -0.9,-2 -2,-2 h -24.47 c -1.099,0 -2,0.9 -2,2 v 22.459 c 0,1.1 0.901,2 2,2 H -2 c 1.1,0 2,-0.9 2,-2 z"
             style="fill:#d9c4e6;fill-opacity:1;fill-rule:nonzero;stroke:none"
             id="path244" /></g><g
           id="g246"
           transform="translate(472.75,580.791)"><path
             d="m 0,0 c 0,-1.1 -0.9,-2 -2,-2 h -24.47 c -1.099,0 -2,0.9 -2,2 v 22.459 c 0,1.1 0.901,2 2,2 H -2 c 1.1,0 2,-0.9 2,-2 z"
             style="fill:none;stroke:#231f20;stroke-width:0.5;stroke-linecap:butt;stroke-linejoin:round;stroke-miterlimit:14.336;stroke-dasharray:none;stroke-opacity:1"
             id="path248" /></g><text
           transform="matrix(1,0,0,-1,451.5132,589.2749)"
           style="font-variant:normal;font-weight:normal;font-stretch:normal;font-size:7px;font-family:Arial;-inkscape-font-specification:ArialMT;writing-mode:lr-tb;fill:#231f20;fill-opacity:1;fill-rule:nonzero;stroke:none"
           id="text252"><tspan
             x="0 5.0539999 8.9460001"
             y="0"
             id="tspan250">New</tspan></text><g
           id="g254"
           transform="translate(430.7051,621.1973)"><path
             d="m 0,0 h 6.45 v -29.302 h 7"
             style="fill:none;stroke:#231f20;stroke-width:0.5;stroke-linecap:butt;stroke-linejoin:miter;stroke-miterlimit:4;stroke-dasharray:none;stroke-opacity:1"
             id="path256" /></g><g
           id="g258"
           transform="translate(428.6904,621.8027)"><path
             d="m 0,0 c 0.951,0.283 1.57,0.546 2.334,0.849 l -0.01,-2.902 c -0.271,0.131 -1.379,0.576 -2.326,0.867 -1.018,0.313 -1.939,0.524 -2.537,0.602 0.6,0.072 1.523,0.281 2.539,0.584"
             style="fill:#231f20;fill-opacity:1;fill-rule:nonzero;stroke:none"
             id="path260" /></g><g
           id="g262"
           transform="translate(231,613.5371)"><path
             d="m 0,0 c 0,-1.1 -0.9,-2 -2,-2 h -24.47 c -1.1,0 -2,0.9 -2,2 v 22.459 c 0,1.1 0.9,2 2,2 H -2 c 1.1,0 2,-0.9 2,-2 z"
             style="fill:#deecf5;fill-opacity:1;fill-rule:nonzero;stroke:none"
             id="path264" /></g><g
           id="g266"
           transform="translate(231,613.5371)"><path
             d="m 0,0 c 0,-1.1 -0.9,-2 -2,-2 h -24.47 c -1.1,0 -2,0.9 -2,2 v 22.459 c 0,1.1 0.9,2 2,2 H -2 c 1.1,0 2,-0.9 2,-2 z"
             style="fill:none;stroke:#231f20;stroke-width:0.5;stroke-linecap:butt;stroke-linejoin:round;stroke-miterlimit:14.336;stroke-dasharray:none;stroke-opacity:1"
             id="path268" /></g><text
           transform="matrix(1,0,0,-1,211.3188,622.021)"
           style="font-variant:normal;font-weight:normal;font-stretch:normal;font-size:7px;font-family:Arial;-inkscape-font-specification:ArialMT;writing-mode:lr-tb;fill:#231f20;fill-opacity:1;fill-rule:nonzero;stroke:none"
           id="text272"><tspan
             x="0 5.4460001 7"
             y="0"
             id="tspan270">Old</tspan></text><g
           id="g274"
           transform="translate(235.8271,624.6777)"><path
             d="M 0,0 H 5.452"
             style="fill:none;stroke:#231f20;stroke-width:0.5;stroke-linecap:butt;stroke-linejoin:miter;stroke-miterlimit:4;stroke-dasharray:none;stroke-opacity:1"
             id="path276" /></g><g
           id="g278"
           transform="translate(233.8125,625.2832)"><path
             d="m 0,0 c 0.951,0.283 1.57,0.546 2.334,0.849 l -0.01,-2.902 c -0.271,0.131 -1.379,0.576 -2.326,0.867 -1.018,0.313 -1.939,0.524 -2.537,0.602 0.6,0.072 1.523,0.281 2.539,0.584"
             style="fill:#231f20;fill-opacity:1;fill-rule:nonzero;stroke:none"
             id="path280" /></g><g
           id="g282"
           transform="translate(270,613.5371)"><path
             d="m 0,0 c 0,-1.1 -0.9,-2 -2,-2 h -24.47 c -1.1,0 -2,0.9 -2,2 v 22.459 c 0,1.1 0.9,2 2,2 H -2 c 1.1,0 2,-0.9 2,-2 z"
             style="fill:#deecf5;fill-opacity:1;fill-rule:nonzero;stroke:none"
             id="path284" /></g><g
           id="g286"
           transform="translate(270,613.5371)"><path
             d="m 0,0 c 0,-1.1 -0.9,-2 -2,-2 h -24.47 c -1.1,0 -2,0.9 -2,2 v 22.459 c 0,1.1 0.9,2 2,2 H -2 c 1.1,0 2,-0.9 2,-2 z"
             style="fill:none;stroke:#231f20;stroke-width:0.5;stroke-linecap:butt;stroke-linejoin:round;stroke-miterlimit:14.336;stroke-dasharray:none;stroke-opacity:1"
             id="path288" /></g><text
           transform="matrix(1,0,0,-1,250.3188,622.021)"
           style="font-variant:normal;font-weight:normal;font-stretch:normal;font-size:7px;font-family:Arial;-inkscape-font-specification:ArialMT;writing-mode:lr-tb;fill:#231f20;fill-opacity:1;fill-rule:nonzero;stroke:none"
           id="text292"><tspan
             x="0 5.4460001 7"
             y="0"
             id="tspan290">Old</tspan></text><g
           id="g294"
           transform="translate(216.7651,642.2393)"><path
             d="M 0,0 C 0,4.761 -3.127,10.004 -3.127,14.261"
             style="fill:none;stroke:#231f20;stroke-width:0.3;stroke-linecap:butt;stroke-linejoin:miter;stroke-miterlimit:10;stroke-dasharray:none;stroke-opacity:1"
             id="path296" /></g><g
           id="g298"
           transform="translate(218.6245,642.7861)"><path
             d="M 0,0 -1.87,-3.238 -3.74,0 Z"
             style="fill:#231f20;fill-opacity:1;fill-rule:nonzero;stroke:none"
             id="path300" /></g><g
           id="g302"
           transform="translate(209.4214,574.79)"><path
             d="M 0,0 C 0,-4.761 -3.127,-10.004 -3.127,-14.261"
             style="fill:none;stroke:#231f20;stroke-width:0.3;stroke-linecap:butt;stroke-linejoin:miter;stroke-miterlimit:10;stroke-dasharray:none;stroke-opacity:1"
             id="path304" /></g><g
           id="g306"
           transform="translate(207.562,574.2432)"><path
             d="M 0,0 1.87,3.238 3.74,0 Z"
             style="fill:#231f20;fill-opacity:1;fill-rule:nonzero;stroke:none"
             id="path308" /></g><g
           id="g310"
           transform="translate(458.627,574.79)"><path
             d="M 0,0 C 0,-4.761 -3.127,-10.004 -3.127,-14.261"
             style="fill:none;stroke:#231f20;stroke-width:0.3;stroke-linecap:butt;stroke-linejoin:miter;stroke-miterlimit:10;stroke-dasharray:none;stroke-opacity:1"
             id="path312" /></g><g
           id="g314"
           transform="translate(456.7676,574.2432)"><path
             d="M 0,0 1.87,3.238 3.74,0 Z"
             style="fill:#231f20;fill-opacity:1;fill-rule:nonzero;stroke:none"
             id="path316" /></g><g
           id="g318"
           transform="translate(257.5151,606.1255)"><path
             d="M 0,0 C 0,-4.761 8.485,-10.004 8.485,-14.261"
             style="fill:none;stroke:#231f20;stroke-width:0.3;stroke-linecap:butt;stroke-linejoin:miter;stroke-miterlimit:10;stroke-dasharray:none;stroke-opacity:1"
             id="path320" /></g><g
           id="g322"
           transform="translate(255.6558,605.5781)"><path
             d="M 0,0 1.87,3.238 3.74,0 Z"
             style="fill:#231f20;fill-opacity:1;fill-rule:nonzero;stroke:none"
             id="path324" /></g><g
           id="g326"
           transform="translate(334,606.1255)"><path
             d="M 0,0 C 0,-4.761 8.484,-10.004 8.484,-14.261"
             style="fill:none;stroke:#231f20;stroke-width:0.3;stroke-linecap:butt;stroke-linejoin:miter;stroke-miterlimit:10;stroke-dasharray:none;stroke-opacity:1"
             id="path328" /></g><g
           id="g330"
           transform="translate(332.1406,605.5781)"><path
             d="M 0,0 1.869,3.238 3.74,0 Z"
             style="fill:#231f20;fill-opacity:1;fill-rule:nonzero;stroke:none"
             id="path332" /></g><g
           id="g334"
           transform="translate(464.334,642.2393)"><path
             d="M 0,0 C -3.334,7.427 -13,7.761 -13,14.261"
             style="fill:none;stroke:#231f20;stroke-width:0.3;stroke-linecap:butt;stroke-linejoin:miter;stroke-miterlimit:10;stroke-dasharray:none;stroke-opacity:1"
             id="path336" /></g><g
           id="g338"
           transform="translate(465.8066,643.5)"><path
             d="m 0,0 -0.38,-3.72 -3.032,2.188 z"
             style="fill:#231f20;fill-opacity:1;fill-rule:nonzero;stroke:none"
             id="path340" /></g></g></g></g></svg>
