<svg xmlns="http://www.w3.org/2000/svg" xmlns:xlink="http://www.w3.org/1999/xlink" width="339.01" height="104.35" viewBox="0 0 339.01 104.35">
  <defs>
    <style>
      .cls-1 {
        fill: #fef0e8;
      }

      .cls-2 {
        font-size: 11.5px;
        font-family: Nimbus Mono PS;
      }

      .cls-11, .cls-22, .cls-3, .cls-4, .cls-5 {
        fill: none;
      }

      .cls-3 {
        stroke: #4d4d4d;
      }

      .cls-22, .cls-3 {
        stroke-width: 0.5px;
      }

      .cls-4 {
        stroke: #e60001;
      }

      .cls-11, .cls-12, .cls-4 {
        stroke-linejoin: round;
      }

      .cls-11, .cls-22, .cls-5, .cls-7 {
        stroke: #000;
      }

      .cls-5 {
        stroke-miterlimit: 10;
      }

      .cls-12, .cls-5, .cls-7 {
        stroke-width: 0.3px;
      }

      .cls-6 {
        font-size: 7px;
      }

      .cls-7 {
        fill: #fda452;
      }

      .cls-8 {
        fill: #fbafc5;
      }

      .cls-10, .cls-8, .cls-9 {
        fill-rule: evenodd;
      }

      .cls-9 {
        fill: #96c749;
      }

      .cls-10 {
        fill: #28708e;
      }

      .cls-11 {
        stroke-width: 0.75px;
      }

      .cls-12 {
        fill: #267520;
        stroke: #267520;
      }

      .cls-13 {
        fill: url(#linear-gradient);
      }

      .cls-14 {
        fill: url(#linear-gradient-2);
      }

      .cls-15 {
        fill: #fff;
      }

      .cls-16 {
        font-size: 3.67px;
        font-family: ArialMT, Arial;
      }

      .cls-17 {
        fill: url(#linear-gradient-3);
      }

      .cls-18 {
        fill: url(#linear-gradient-4);
      }

      .cls-19 {
        font-size: 9px;
        font-family: Humanist521BT-BoldCondensed, Humanst521 Cn BT;
        font-weight: 700;
      }

      .cls-20 {
        letter-spacing: 0.02em;
      }

      .cls-21 {
        letter-spacing: -0.07em;
      }
    </style>
    <linearGradient id="linear-gradient" x1="-74.41" y1="339.58" x2="-55.61" y2="339.58" gradientTransform="translate(499.31 -6.95) rotate(45.85)" gradientUnits="userSpaceOnUse">
      <stop offset="0" stop-color="#5fb749"/>
      <stop offset="1" stop-color="#dbf1c6"/>
    </linearGradient>
    <linearGradient id="linear-gradient-2" x1="-74.08" y1="339.58" x2="-56.13" y2="339.58" gradientTransform="translate(499.31 -6.95) rotate(45.85)" gradientUnits="userSpaceOnUse">
      <stop offset="0" stop-color="#dbf1c6"/>
      <stop offset="1" stop-color="#5fb749"/>
    </linearGradient>
    <linearGradient id="linear-gradient-3" x1="-62.18" y1="351.45" x2="-43.38" y2="351.45" xlink:href="#linear-gradient"/>
    <linearGradient id="linear-gradient-4" x1="-61.85" y1="351.45" x2="-43.9" y2="351.45" xlink:href="#linear-gradient-2"/>
  </defs>
  <g id="Layer_2" data-name="Layer 2">
    <rect class="cls-1" x="196.5" y="55.7" width="140" height="22.17" rx="2"/>
    <text class="cls-2" transform="translate(228.36 68.82)">0</text>
    <text class="cls-2" transform="translate(256.89 68.82)">0.09</text>
    <line class="cls-3" x1="253.17" y1="55.84" x2="253.17" y2="77.62"/>
    <rect class="cls-4" x="196.5" y="55.7" width="140" height="22.17" rx="2"/>
    <g>
      <path class="cls-5" d="M380.3,176.5c0-8.35-4.12-15.33-4.12-20.83" transform="translate(-135.5 -116.73)"/>
      <polygon points="246.66 59.22 244.79 62.46 242.92 59.22 246.66 59.22"/>
    </g>
    <g>
      <path class="cls-5" d="M366,199c0,3.75,2.5,6.75,2.5,12.5" transform="translate(-135.5 -116.73)"/>
      <polygon points="228.64 82.81 230.51 79.58 232.38 82.81 228.64 82.81"/>
    </g>
    <g>
      <path class="cls-5" d="M442.67,167.75c0-3.75,2.5-6.75,2.5-12.5" transform="translate(-135.5 -116.73)"/>
      <polygon points="309.03 50.47 307.16 53.71 305.29 50.47 309.03 50.47"/>
    </g>
    <g>
      <rect class="cls-1" x="0.5" y="55.7" width="163" height="37.57" rx="2"/>
      <text class="cls-2" transform="translate(32.36 68.82)">0</text>
      <text class="cls-2" transform="translate(32.36 85.82)">3</text>
      <text class="cls-2" transform="translate(90.27 68.82)">0.1</text>
      <text class="cls-2" transform="translate(125.22 68.82)">WPKH<tspan class="cls-6" x="27.6" y="3">X</tspan></text>
      <g>
        <path class="cls-7" d="M141.24,199.31l-1.7-1.91a11.09,11.09,0,0,1,7.34.37,6.5,6.5,0,0,0,3.74.47A3.91,3.91,0,0,0,153,196.8c.73-.8,1.55-1.71,4.33-2l1.35,2c-2.2.22-2.78.85-3.45,1.59a5,5,0,0,1-3.08,1.8,9.46,9.46,0,0,1-5.15-.6A8.44,8.44,0,0,0,141.24,199.31Z" transform="translate(-135.5 -116.73)"/>
        <path class="cls-7" d="M144.57,201.13l-1.71-1.91a11,11,0,0,1,7.34.37,6.6,6.6,0,0,0,3.74.47,3.87,3.87,0,0,0,2.43-1.45c.73-.8,1.55-1.7,4.32-2l1.35,2c-2.2.22-2.77.85-3.45,1.59a5,5,0,0,1-3.08,1.8,9.46,9.46,0,0,1-5.15-.6A8.36,8.36,0,0,0,144.57,201.13Z" transform="translate(-135.5 -116.73)"/>
        <path class="cls-7" d="M143.83,203.16l-1.7-1.92a11.09,11.09,0,0,1,7.34.37,6.57,6.57,0,0,0,3.73.48,3.87,3.87,0,0,0,2.43-1.45c.73-.8,1.55-1.7,4.32-2l1.36,2c-2.2.21-2.78.85-3.45,1.59a5,5,0,0,1-3.09,1.79,9.48,9.48,0,0,1-5.15-.59A8.35,8.35,0,0,0,143.83,203.16Z" transform="translate(-135.5 -116.73)"/>
        <path class="cls-7" d="M147.21,205l-1.7-1.91a11.09,11.09,0,0,1,7.34.37,6.48,6.48,0,0,0,3.73.47,3.83,3.83,0,0,0,2.43-1.44c.73-.8,1.55-1.71,4.33-2l1.35,2a4.32,4.32,0,0,0-3.45,1.58,5,5,0,0,1-3.09,1.8,9.48,9.48,0,0,1-5.15-.6A8.4,8.4,0,0,0,147.21,205Z" transform="translate(-135.5 -116.73)"/>
        <path class="cls-7" d="M141.76,197.22l-1.7-1.91a11.09,11.09,0,0,1,7.34.37,6.57,6.57,0,0,0,3.73.48,3.87,3.87,0,0,0,2.43-1.45c.73-.8,1.55-1.71,4.32-2l1.36,2a4.32,4.32,0,0,0-3.45,1.58,5,5,0,0,1-3.09,1.8,9.48,9.48,0,0,1-5.15-.6A8.41,8.41,0,0,0,141.76,197.22Z" transform="translate(-135.5 -116.73)"/>
        <polygon points="6.37 78.79 8.69 78.58 9.7 79.12 8.19 79.02 6.37 78.79"/>
        <polygon points="12.31 79.97 14.79 80.9 16.39 80.39 14.36 80.13 12.31 79.97"/>
        <polygon points="13.28 82.95 11.54 82.86 10.82 83.34 12.59 83.17 14.86 84.07 16.28 84.05 14.32 83.29 13.28 82.95"/>
        <path d="M159.07,199.49c-.44,0-1.57.3-1.57.3l-.87,1.42,1.22-.86,1.9-.26Z" transform="translate(-135.5 -116.73)"/>
        <polygon points="24.47 86.24 23.67 87.26 21.83 87.83 22.86 88.27 24.37 87.65 24.47 86.24"/>
        <polygon points="16.8 87.18 15.02 86.64 13.66 86.98 15.29 87.09 16.8 87.18"/>
        <polygon points="10.9 84.99 9.89 85.16 11.3 85.24 10.9 84.99"/>
        <polygon class="cls-8" points="19.12 78.91 17.87 79.26 16.39 80.39 18.42 79.94 19.12 78.91"/>
        <polygon class="cls-8" points="20.72 85.04 19.07 85.84 18.89 86.33 20.48 85.92 20.72 85.04"/>
        <polygon class="cls-8" points="27.78 84.53 25.93 85.2 25.8 86.11 27.33 85.39 27.78 84.53"/>
        <polygon class="cls-8" points="9.79 84.43 8.54 85.5 8.09 84.82 9.79 84.43"/>
        <polygon class="cls-9" points="17.33 82.15 15.07 81.96 16.29 82.52 17.33 82.15"/>
        <path class="cls-9" d="M155.05,204.47l-2.11-.47s1.09.75,1.4.89a15.38,15.38,0,0,0,2.14.28Z" transform="translate(-135.5 -116.73)"/>
        <polygon class="cls-9" points="10.53 82.39 8.66 82.45 9.38 83.46 10.53 82.39"/>
        <path class="cls-9" d="M157.21,193.64l-2.09.85s-.84,1.21-.5,1.15a11.41,11.41,0,0,0,1.79-1Z" transform="translate(-135.5 -116.73)"/>
      </g>
      <path class="cls-10" d="M189.73,184c1.5.68,2.73-.57,4-.8.31.35-.05,1.06.13,1.46.91.66,2.68.42,3.35,1.32-.4.32-.94-.2-1.65-.39-1.21-.34-2.54-.14-2.09-1.92-1.08.51-2.91,1.46-4.17.59A9,9,0,0,1,188,185c-.5,1.07-.92,2.22-1.33,3.38-.88-.31-.91-1.52-2-1.65a2.88,2.88,0,0,0-.32,1c.24.07.51-.73.88-.53,0,.51-.53.93-1,1.12-.52-.33-.12-1.08,0-1.65a6.41,6.41,0,0,1-4,1.26,3.83,3.83,0,0,1-1.84-.53c-1.14-.86-.84-3.12-.06-4.17a4.93,4.93,0,0,1,2.91-1.66,15.25,15.25,0,0,0,.83-2c.36,0,.45-.1.57-.47,1.87-.73,4-1.16,5.57-2.25-1.94.36-4.08,1-6.08,1.59a4.36,4.36,0,0,1-1.9.4c.07-.4.6-.44.89-.53,1-.3,2.12-.61,3.23-.93a12.54,12.54,0,0,1,4.43-.86c0,.69-.69.89-1.14,1.13-1.38.71-3.27,1.23-4.81,1.85a5.34,5.34,0,0,0,1.39,1.92,10.82,10.82,0,0,1,2.22.26c.75-.91,1.38-2.13,2.09-3.17.19-.28.45-.76.82-.73a5.38,5.38,0,0,1-1.2,2c-.44.66-.81,1.39-1.2,2.06.46.32,1.23.34,1.39,1-.57.13-1-.49-1.52-.6a17.24,17.24,0,0,0-1.84,3.58,14.08,14.08,0,0,0,2.73-1.06,6.76,6.76,0,0,0,.94-2.52c.17-2.07,1.44-3.29,2.67-4.36a3.12,3.12,0,0,1,.38-.8c.24-.06.22.16.37.2a9.57,9.57,0,0,1,5.83-1.39c.39,0,1.28.14,1.27.66,0,.84-1.35,1.8-2,2.32A75.43,75.43,0,0,1,189.73,184Zm6.65-7.75c-1.74.15-3.84.7-4.75,1.79a14.39,14.39,0,0,0-1.27,2.45c-.47.88-1.63,2.26-1,3.24a67.16,67.16,0,0,0,7.47-5.09,5.68,5.68,0,0,0,2-2.26A5.43,5.43,0,0,0,196.38,176.29Zm-7.16,5.56c.39-1,1.14-1.94,1.4-2.84A5.35,5.35,0,0,0,189.22,181.85Zm-7.41-.39c.56-.13,1.3-.06,1.84-.2a9.41,9.41,0,0,1-1.2-1.53C182.28,180.36,182,180.86,181.81,181.46Zm-.12.39a7.21,7.21,0,0,0-.51,1.66c-.14.53-.18,1.28-.64,1.52-.16-.9.41-2.11.64-3a3.59,3.59,0,0,0-3.11,3.57c0,1.42,1.11,1.93,2.6,1.92,3.16,0,5.47-2.86,3.36-5.69A11,11,0,0,0,181.69,181.85Zm3.6,2.39c.34-.75.72-1.47,1.08-2.19a12.8,12.8,0,0,0-1.83-.26A6.66,6.66,0,0,1,185.29,184.24Zm3.11.06A2.69,2.69,0,0,0,189,184c0-.2,0-.47-.19-.53C188.68,183.8,188.51,184,188.4,184.3Zm-3.48,2c.84.16,1.14.89,1.64,1.4a6.61,6.61,0,0,1,.89-2.32c0-.08,0-.16-.13-.14C186.66,185.79,185.62,185.9,184.92,186.35Z" transform="translate(-135.5 -116.73)"/>
      <g>
        <path class="cls-11" d="M217,187.58,210.53,181a4.19,4.19,0,0,0-6.7-4.75l-.09.11-.11.09a4.19,4.19,0,0,0,4.21,7l.54.55a.9.9,0,0,1,1.16.18.92.92,0,0,1,.15,1.17l.59.61a1,1,0,0,1,1.31,1.35l.59.61a1,1,0,0,1,1.31,1.35l.41.42,3.3-.17.21-.21Z" transform="translate(-135.5 -116.73)"/>
        <path class="cls-12" d="M217.41,189.24l-7.08-8.07a4.14,4.14,0,1,0-2.49,2.21l.54.55a.9.9,0,0,1,1.16.18.92.92,0,0,1,.15,1.17l.59.61a1,1,0,0,1,1.31,1.35l.59.61a1,1,0,0,1,1.31,1.35l.41.42,3.3-.17Z" transform="translate(-135.5 -116.73)"/>
        <path class="cls-13" d="M217,187.58,210.53,181a4.13,4.13,0,1,0-2.48,2.22l.53.55a1,1,0,0,1,1.31,1.35l.59.61a.91.91,0,0,1,1.17.18.9.9,0,0,1,.14,1.17l.6.61a.9.9,0,0,1,1.16.18.92.92,0,0,1,.15,1.17l.41.42,3.3-.18Z" transform="translate(-135.5 -116.73)"/>
        <path class="cls-14" d="M204,181.86a3.8,3.8,0,1,1,6.21-1l-.1.21,6.52,6.71.32,1.18-2.73.15-.13-.14a1.28,1.28,0,0,0-.32-1.34,1.29,1.29,0,0,0-1.34-.37l-.24-.25a1.29,1.29,0,0,0-.33-1.34,1.27,1.27,0,0,0-1.33-.36l-.24-.26a1.36,1.36,0,0,0-1.66-1.7l-.51-.53-.2.07A3.82,3.82,0,0,1,204,181.86Z" transform="translate(-135.5 -116.73)"/>
        <path class="cls-15" d="M209.05,181.59a3.31,3.31,0,1,1,.07-4.68A3.3,3.3,0,0,1,209.05,181.59Z" transform="translate(-135.5 -116.73)"/>
        <text class="cls-16" transform="translate(68.03 61.05) rotate(45.85)">Pub</text>
      </g>
      <g>
        <path class="cls-11" d="M217,204.62,210.53,198a4.19,4.19,0,0,0-6.7-4.75l-.09.1a.52.52,0,0,0-.11.1,4.18,4.18,0,0,0,4.21,7l.54.55a1,1,0,0,1,1.31,1.35l.59.61a1,1,0,0,1,1.31,1.35l.59.61a1,1,0,0,1,1.31,1.35l.41.42,3.3-.17.21-.2Z" transform="translate(-135.5 -116.73)"/>
        <path class="cls-12" d="M217.41,206.29l-7.08-8.08a4.14,4.14,0,1,0-2.49,2.21l.54.55a1,1,0,0,1,1.31,1.35l.59.61a1,1,0,0,1,1.31,1.35l.59.61a1,1,0,0,1,1.31,1.35l.41.42,3.3-.17Z" transform="translate(-135.5 -116.73)"/>
        <path class="cls-17" d="M217,204.62,210.53,198a4.13,4.13,0,1,0-2.48,2.21l.53.55a.91.91,0,0,1,1.16.19.89.89,0,0,1,.15,1.16l.59.61a.9.9,0,0,1,1.17.19.89.89,0,0,1,.14,1.16l.6.61a.9.9,0,0,1,1.16.18.92.92,0,0,1,.15,1.17l.41.42,3.3-.17Z" transform="translate(-135.5 -116.73)"/>
        <path class="cls-18" d="M204,198.91a3.8,3.8,0,1,1,6.21-1l-.1.21,6.52,6.71L217,206l-2.73.15-.13-.14a1.35,1.35,0,0,0-1.66-1.7l-.24-.25a1.36,1.36,0,0,0-1.66-1.71l-.24-.25a1.36,1.36,0,0,0-1.66-1.71l-.51-.52-.2.06A3.82,3.82,0,0,1,204,198.91Z" transform="translate(-135.5 -116.73)"/>
        <path class="cls-15" d="M209.05,198.63a3.3,3.3,0,1,1,.07-4.67A3.3,3.3,0,0,1,209.05,198.63Z" transform="translate(-135.5 -116.73)"/>
        <text class="cls-16" transform="translate(68.03 78.1) rotate(45.85)">Pub</text>
      </g>
      <path class="cls-10" d="M189.73,201.08c1.5.68,2.73-.57,4-.79.31.34-.05,1.05.13,1.45.91.66,2.68.42,3.35,1.33-.4.31-.94-.2-1.65-.4-1.21-.34-2.54-.13-2.09-1.92-1.08.51-2.91,1.46-4.17.59A9,9,0,0,1,188,202c-.5,1.06-.92,2.21-1.33,3.37-.88-.31-.91-1.52-2-1.65a3,3,0,0,0-.32,1c.24.07.51-.73.88-.53,0,.51-.53.93-1,1.13-.52-.33-.12-1.08,0-1.66a6.41,6.41,0,0,1-4,1.26,3.62,3.62,0,0,1-1.84-.53c-1.14-.86-.84-3.11-.06-4.17a4.93,4.93,0,0,1,2.91-1.66,14.69,14.69,0,0,0,.83-2c.36,0,.45-.1.57-.46,1.87-.74,4-1.16,5.57-2.26-1.94.36-4.08,1-6.08,1.59a4.22,4.22,0,0,1-1.9.4c.07-.39.6-.44.89-.53,1-.3,2.12-.61,3.23-.93a12.54,12.54,0,0,1,4.43-.86c0,.69-.69.89-1.14,1.13-1.38.72-3.27,1.23-4.81,1.85a5.34,5.34,0,0,0,1.39,1.92,11.53,11.53,0,0,1,2.22.27c.75-.91,1.38-2.14,2.09-3.18.19-.28.45-.76.82-.73a5.5,5.5,0,0,1-1.2,2c-.44.65-.81,1.38-1.2,2.05.46.33,1.23.35,1.39,1-.57.13-1-.49-1.52-.59A17.41,17.41,0,0,0,185,202.8a13.47,13.47,0,0,0,2.73-1.06,6.71,6.71,0,0,0,.94-2.51c.17-2.08,1.44-3.3,2.67-4.37a3.47,3.47,0,0,1,.38-.8c.24-.05.22.16.37.2a9.64,9.64,0,0,1,5.83-1.39c.39,0,1.28.14,1.27.66,0,.84-1.35,1.81-2,2.32A75.43,75.43,0,0,1,189.73,201.08Zm6.65-7.74c-1.74.14-3.84.7-4.75,1.78a15.18,15.18,0,0,0-1.27,2.45c-.47.88-1.63,2.26-1,3.25a68.63,68.63,0,0,0,7.47-5.1,5.72,5.72,0,0,0,2-2.25A5.29,5.29,0,0,0,196.38,193.34Zm-7.16,5.55c.39-1,1.14-1.94,1.4-2.84A5.42,5.42,0,0,0,189.22,198.89Zm-7.41-.39c.56-.12,1.3-.05,1.84-.2a9.34,9.34,0,0,1-1.2-1.52C182.28,197.4,182,197.91,181.81,198.5Zm-.12.39a7.36,7.36,0,0,0-.51,1.66c-.14.54-.18,1.29-.64,1.52-.16-.9.41-2.11.64-3a3.6,3.6,0,0,0-3.11,3.57c0,1.43,1.11,1.94,2.6,1.92,3.16,0,5.47-2.86,3.36-5.69A11.75,11.75,0,0,0,181.69,198.89Zm3.6,2.39c.34-.75.72-1.46,1.08-2.18a11.5,11.5,0,0,0-1.83-.27A6.72,6.72,0,0,1,185.29,201.28Zm3.11.06a2.69,2.69,0,0,0,.57-.26c0-.2,0-.47-.19-.53C188.68,200.84,188.51,201.07,188.4,201.34Zm-3.48,2.06c.84.15,1.14.88,1.64,1.39a6.61,6.61,0,0,1,.89-2.32c0-.08,0-.16-.13-.13C186.66,202.84,185.62,203,184.92,203.4Z" transform="translate(-135.5 -116.73)"/>
      <line class="cls-3" x1="86.67" y1="55.84" x2="86.67" y2="93.02"/>
      <rect class="cls-4" x="0.5" y="55.7" width="163" height="37.57" rx="2"/>
      <g>
        <path class="cls-7" d="M141.24,183.42l-1.7-1.91a11.09,11.09,0,0,1,7.34.37,6.5,6.5,0,0,0,3.74.47,3.86,3.86,0,0,0,2.42-1.44c.73-.8,1.55-1.71,4.33-2l1.35,2c-2.2.21-2.78.84-3.45,1.58a5,5,0,0,1-3.08,1.8,9.46,9.46,0,0,1-5.15-.6A8.44,8.44,0,0,0,141.24,183.42Z" transform="translate(-135.5 -116.73)"/>
        <path class="cls-7" d="M144.57,185.24l-1.71-1.91a11.08,11.08,0,0,1,7.34.37,6.6,6.6,0,0,0,3.74.47,3.91,3.91,0,0,0,2.43-1.44c.73-.8,1.55-1.71,4.32-2l1.35,2c-2.2.22-2.77.85-3.45,1.59a5,5,0,0,1-3.08,1.8,9.46,9.46,0,0,1-5.15-.6A8.41,8.41,0,0,0,144.57,185.24Z" transform="translate(-135.5 -116.73)"/>
        <path class="cls-7" d="M143.83,187.27l-1.7-1.91a11,11,0,0,1,7.34.37,6.65,6.65,0,0,0,3.73.47,3.87,3.87,0,0,0,2.43-1.45c.73-.8,1.55-1.7,4.32-2l1.36,2c-2.2.21-2.78.85-3.45,1.59a5,5,0,0,1-3.09,1.8,9.58,9.58,0,0,1-5.15-.6A8.35,8.35,0,0,0,143.83,187.27Z" transform="translate(-135.5 -116.73)"/>
        <path class="cls-7" d="M147.21,189.07l-1.7-1.92a11.09,11.09,0,0,1,7.34.37,6.57,6.57,0,0,0,3.73.48,3.84,3.84,0,0,0,2.43-1.45c.73-.8,1.55-1.7,4.33-2l1.35,2c-2.2.21-2.78.85-3.45,1.59a5,5,0,0,1-3.09,1.79,9.39,9.39,0,0,1-5.15-.6A8.41,8.41,0,0,0,147.21,189.07Z" transform="translate(-135.5 -116.73)"/>
        <path class="cls-7" d="M141.76,181.34l-1.7-1.92a11.09,11.09,0,0,1,7.34.37,6.57,6.57,0,0,0,3.73.48,3.87,3.87,0,0,0,2.43-1.45c.73-.8,1.55-1.7,4.32-2l1.36,2a4.32,4.32,0,0,0-3.45,1.58,5,5,0,0,1-3.09,1.8,9.48,9.48,0,0,1-5.15-.6A8.36,8.36,0,0,0,141.76,181.34Z" transform="translate(-135.5 -116.73)"/>
        <polygon points="6.37 62.9 8.69 62.69 9.7 63.23 8.19 63.13 6.37 62.9"/>
        <polygon points="12.31 64.08 14.79 65.01 16.39 64.51 14.36 64.24 12.31 64.08"/>
        <polygon points="13.28 67.06 11.54 66.97 10.82 67.46 12.59 67.28 14.86 68.19 16.28 68.17 14.32 67.4 13.28 67.06"/>
        <path d="M159.07,183.6c-.44,0-1.57.3-1.57.3l-.87,1.42,1.22-.86,1.9-.26Z" transform="translate(-135.5 -116.73)"/>
        <polygon points="24.47 70.35 23.67 71.37 21.83 71.95 22.86 72.39 24.37 71.77 24.47 70.35"/>
        <polygon points="16.8 71.29 15.02 70.75 13.66 71.09 15.29 71.2 16.8 71.29"/>
        <polygon points="10.9 69.1 9.89 69.27 11.3 69.35 10.9 69.1"/>
        <polygon class="cls-8" points="19.12 63.02 17.87 63.37 16.39 64.51 18.42 64.06 19.12 63.02"/>
        <polygon class="cls-8" points="20.72 69.15 19.07 69.96 18.89 70.44 20.48 70.04 20.72 69.15"/>
        <polygon class="cls-8" points="27.78 68.64 25.93 69.32 25.8 70.22 27.33 69.5 27.78 68.64"/>
        <polygon class="cls-8" points="9.79 68.55 8.54 69.61 8.09 68.94 9.79 68.55"/>
        <polygon class="cls-9" points="17.33 66.26 15.07 66.07 16.29 66.63 17.33 66.26"/>
        <path class="cls-9" d="M155.05,188.59l-2.11-.48s1.09.75,1.4.89a14,14,0,0,0,2.14.28Z" transform="translate(-135.5 -116.73)"/>
        <polygon class="cls-9" points="10.53 66.5 8.66 66.56 9.38 67.57 10.53 66.5"/>
        <path class="cls-9" d="M157.21,177.75l-2.09.85s-.84,1.22-.5,1.16a12.2,12.2,0,0,0,1.79-1Z" transform="translate(-135.5 -116.73)"/>
      </g>
    </g>
    <text class="cls-19" transform="translate(211.31 102.23)">No witness!</text>
    <text class="cls-19" transform="translate(94.2 7.57)"><tspan class="cls-20">W</tspan><tspan x="8.22" y="0">itness</tspan><tspan x="0" y="9.5">version and</tspan><tspan x="0" y="19">witness</tspan><tspan x="0" y="28.5">program</tspan></text>
    <text class="cls-19" transform="translate(150.17 7.57)"><tspan class="cls-21">T</tspan><tspan x="3.44" y="0">reated as</tspan><tspan x="0" y="9.5">“anyone can</tspan><tspan x="0" y="19">spend” on</tspan><tspan x="0" y="28.5">Old nodes</tspan></text>
    <text class="cls-19" transform="translate(224.5 17.07)">Empty<tspan x="0" y="9.5">signature</tspan><tspan x="0" y="19">script</tspan></text>
    <text class="cls-19" transform="translate(283.55 17.07)">Old node adds<tspan x="0" y="9.5">this transaction</tspan><tspan x="0" y="19">to its block.</tspan></text>
    <path d="M302.05,182.15c.95-.29,1.57-.55,2.33-.85v2.9a23.39,23.39,0,0,0-2.33-.87,17.55,17.55,0,0,0-2.54-.6A16.76,16.76,0,0,0,302.05,182.15Z" transform="translate(-135.5 -116.73)"/>
    <line class="cls-22" x1="168.19" y1="66.02" x2="201.62" y2="66.02"/>
    <text class="cls-2" transform="translate(298.55 68.82)">WPKH<tspan class="cls-6" x="27.6" y="3">Y</tspan></text>
    <g>
      <path class="cls-5" d="M284.5,175c4.5-7.54,14.75-13.87,14.75-19.37" transform="translate(-135.5 -116.73)"/>
      <polygon points="150.88 58.79 147.61 60.61 147.67 56.87 150.88 58.79"/>
    </g>
    <g>
      <path class="cls-5" d="M263,175c-4.5-7.54-14.75-13.87-14.75-19.37" transform="translate(-135.5 -116.73)"/>
      <polygon points="128.81 56.88 128.87 60.62 125.6 58.8 128.81 56.88"/>
    </g>
    <g>
      <path class="cls-7" d="M337.24,183.42l-1.7-1.91a11.09,11.09,0,0,1,7.34.37,6.5,6.5,0,0,0,3.74.47,3.86,3.86,0,0,0,2.42-1.44c.73-.8,1.55-1.71,4.33-2l1.35,2c-2.2.21-2.78.84-3.45,1.58a5,5,0,0,1-3.08,1.8,9.46,9.46,0,0,1-5.15-.6A8.44,8.44,0,0,0,337.24,183.42Z" transform="translate(-135.5 -116.73)"/>
      <path class="cls-7" d="M340.57,185.24l-1.71-1.91a11.08,11.08,0,0,1,7.34.37,6.6,6.6,0,0,0,3.74.47,3.91,3.91,0,0,0,2.43-1.44c.73-.8,1.55-1.71,4.32-2l1.35,2c-2.2.22-2.77.85-3.45,1.59a5,5,0,0,1-3.08,1.8,9.46,9.46,0,0,1-5.15-.6A8.41,8.41,0,0,0,340.57,185.24Z" transform="translate(-135.5 -116.73)"/>
      <path class="cls-7" d="M339.83,187.27l-1.7-1.91a11,11,0,0,1,7.34.37,6.65,6.65,0,0,0,3.73.47,3.87,3.87,0,0,0,2.43-1.45c.73-.8,1.55-1.7,4.32-2l1.36,2c-2.2.21-2.78.85-3.45,1.59a5,5,0,0,1-3.09,1.8,9.58,9.58,0,0,1-5.15-.6A8.35,8.35,0,0,0,339.83,187.27Z" transform="translate(-135.5 -116.73)"/>
      <path class="cls-7" d="M343.21,189.07l-1.7-1.92a11.09,11.09,0,0,1,7.34.37,6.57,6.57,0,0,0,3.73.48,3.84,3.84,0,0,0,2.43-1.45c.73-.8,1.55-1.7,4.33-2l1.35,2c-2.2.21-2.78.85-3.45,1.59a5,5,0,0,1-3.09,1.79,9.39,9.39,0,0,1-5.15-.6A8.41,8.41,0,0,0,343.21,189.07Z" transform="translate(-135.5 -116.73)"/>
      <path class="cls-7" d="M337.76,181.34l-1.71-1.92a11.12,11.12,0,0,1,7.35.37,6.57,6.57,0,0,0,3.73.48,3.87,3.87,0,0,0,2.43-1.45c.73-.8,1.55-1.7,4.32-2l1.36,2a4.32,4.32,0,0,0-3.45,1.58,5,5,0,0,1-3.09,1.8,9.48,9.48,0,0,1-5.15-.6A8.36,8.36,0,0,0,337.76,181.34Z" transform="translate(-135.5 -116.73)"/>
      <polygon points="202.37 62.9 204.69 62.69 205.7 63.23 204.19 63.13 202.37 62.9"/>
      <polygon points="208.31 64.08 210.78 65.01 212.39 64.51 210.35 64.24 208.31 64.08"/>
      <polygon points="209.28 67.06 207.53 66.97 206.82 67.46 208.59 67.28 210.86 68.19 212.28 68.17 210.32 67.4 209.28 67.06"/>
      <path d="M355.07,183.6c-.44,0-1.57.3-1.57.3l-.87,1.42,1.22-.86,1.9-.26Z" transform="translate(-135.5 -116.73)"/>
      <polygon points="220.47 70.35 219.67 71.37 217.83 71.95 218.86 72.39 220.37 71.77 220.47 70.35"/>
      <polygon points="212.8 71.29 211.02 70.75 209.66 71.09 211.29 71.2 212.8 71.29"/>
      <polygon points="206.9 69.1 205.89 69.27 207.3 69.35 206.9 69.1"/>
      <polygon class="cls-8" points="215.12 63.02 213.87 63.37 212.39 64.51 214.42 64.06 215.12 63.02"/>
      <polygon class="cls-8" points="216.72 69.15 215.07 69.96 214.89 70.44 216.48 70.04 216.72 69.15"/>
      <polygon class="cls-8" points="223.78 68.64 221.94 69.32 221.8 70.22 223.33 69.5 223.78 68.64"/>
      <polygon class="cls-8" points="205.78 68.55 204.53 69.61 204.09 68.94 205.78 68.55"/>
      <polygon class="cls-9" points="213.33 66.26 211.07 66.07 212.29 66.63 213.33 66.26"/>
      <path class="cls-9" d="M351.05,188.59l-2.11-.48s1.09.75,1.4.89a14,14,0,0,0,2.14.28Z" transform="translate(-135.5 -116.73)"/>
      <polygon class="cls-9" points="206.53 66.5 204.66 66.56 205.38 67.57 206.53 66.5"/>
      <path class="cls-9" d="M353.21,177.75l-2.09.85s-.84,1.22-.5,1.16a12.2,12.2,0,0,0,1.79-1Z" transform="translate(-135.5 -116.73)"/>
    </g>
  </g>
</svg>
