<?xml version="1.0" standalone="yes"?>

<svg version="1.1" viewBox="0.0 0.0 258.65354330708664 185.03674540682414" fill="none" stroke="none" stroke-linecap="square" stroke-miterlimit="10" xmlns="http://www.w3.org/2000/svg" xmlns:xlink="http://www.w3.org/1999/xlink"><clipPath id="p.0"><path d="m0 0l258.65353 0l0 185.03674l-258.65353 0l0 -185.03674z" clip-rule="nonzero"></path></clipPath><g clip-path="url(#p.0)"><path fill="#000000" fill-opacity="0.0" d="m0 0l258.65353 0l0 185.03674l-258.65353 0z" fill-rule="evenodd"></path><path fill="#000000" fill-opacity="0.0" d="m11.220546 94.16718l0 0c0 -45.739613 37.086334 -82.81889 82.83465 -82.81889l0 0c21.969116 0 43.038437 8.725538 58.572937 24.257095c15.534515 15.531555 24.261703 36.596867 24.261703 58.561802l0 0c0 45.739616 -37.086334 82.8189 -82.83464 82.8189l0 0c-45.74831 0 -82.83465 -37.079285 -82.83465 -82.8189z" fill-rule="evenodd"></path><path stroke="#000000" stroke-width="1.0" stroke-linejoin="round" stroke-linecap="butt" d="m11.220546 94.16718l0 0c0 -45.739613 37.086334 -82.81889 82.83465 -82.81889l0 0c21.969116 0 43.038437 8.725538 58.572937 24.257095c15.534515 15.531555 24.261703 36.596867 24.261703 58.561802l0 0c0 45.739616 -37.086334 82.8189 -82.83464 82.8189l0 0c-45.74831 0 -82.83465 -37.079285 -82.83465 -82.8189z" fill-rule="evenodd"></path><path fill="#000000" fill-opacity="0.0" d="m85.507744 94.16905l0 0c0 -45.748314 37.086334 -82.83465 82.83465 -82.83465l0 0c21.969116 0 43.03842 8.727196 58.572937 24.261705c15.5345 15.534512 24.261703 36.603825 24.261703 58.57294l0 0c0 45.748306 -37.086334 82.83464 -82.83464 82.83464l0 0c-45.748314 0 -82.83465 -37.086334 -82.83465 -82.83464z" fill-rule="evenodd"></path><path stroke="#000000" stroke-width="1.0" stroke-linejoin="round" stroke-linecap="butt" d="m85.507744 94.16905l0 0c0 -45.748314 37.086334 -82.83465 82.83465 -82.83465l0 0c21.969116 0 43.03842 8.727196 58.572937 24.261705c15.5345 15.534512 24.261703 36.603825 24.261703 58.57294l0 0c0 45.748306 -37.086334 82.83464 -82.83464 82.83464l0 0c-45.748314 0 -82.83465 -37.086334 -82.83465 -82.83464z" fill-rule="evenodd"></path><path fill="#000000" fill-opacity="0.0" d="m136.8459 66.137l155.08662 0l0 56.06299l-155.08662 0z" fill-rule="evenodd"></path><path fill="#000000" d="m202.60796 105.8885l-3.015625 0l-11.453125 -17.53125l0 17.53125l-3.015625 0l0 -22.75l3.015625 0l11.484375 17.609375l0 -17.609375l2.984375 0l0 22.75zm11.890625 0.3125q-3.4375 0 -5.59375 -2.25q-2.15625 -2.265625 -2.15625 -6.046875l0 -0.53125q0 -2.515625 0.953125 -4.484375q0.96875 -1.984375 2.6875 -3.09375q1.734375 -1.125 3.75 -1.125q3.296875 0 5.125 2.171875q1.828125 2.171875 1.828125 6.21875l0 1.203125l-11.453125 0q0.0625 2.5 1.453125 4.046875q1.40625 1.53125 3.5625 1.53125q1.53125 0 2.59375 -0.625q1.0625 -0.625 1.859375 -1.65625l1.765625 1.375q-2.125 3.265625 -6.375 3.265625zm-0.359375 -15.15625q-1.75 0 -2.9375 1.28125q-1.1875 1.265625 -1.46875 3.5625l8.46875 0l0 -0.21875q-0.125 -2.203125 -1.1875 -3.40625q-1.0625 -1.21875 -2.875 -1.21875zm25.265625 10.859375l3.25 -12.921875l2.890625 0l-4.921875 16.90625l-2.34375 0l-4.109375 -12.8125l-4.0 12.8125l-2.34375 0l-4.90625 -16.90625l2.875 0l3.328125 12.65625l3.9375 -12.65625l2.328125 0l4.015625 12.921875z" fill-rule="nonzero"></path><path fill="#000000" fill-opacity="0.0" d="m-39.99914 55.113377l165.6693 0l0 78.110245l-165.6693 0z" fill-rule="evenodd"></path><path fill="#000000" d="m39.06988 95.24787q0 3.34375 -1.125 5.84375q-1.125 2.484375 -3.1875 3.796875q-2.0625 1.3125 -4.8125 1.3125q-2.6875 0 -4.765625 -1.3125q-2.078125 -1.328125 -3.234375 -3.765625q-1.140625 -2.453125 -1.171875 -5.671875l0 -1.640625q0 -3.28125 1.140625 -5.796875q1.140625 -2.515625 3.21875 -3.84375q2.09375 -1.34375 4.78125 -1.34375q2.734375 0 4.8125 1.328125q2.09375 1.3125 3.21875 3.828125q1.125 2.5 1.125 5.828125l0 1.4375zm-2.984375 -1.46875q0 -4.046875 -1.625 -6.203125q-1.625 -2.171875 -4.546875 -2.171875q-2.84375 0 -4.484375 2.171875q-1.625 2.15625 -1.671875 6.0l0 1.671875q0 3.921875 1.640625 6.171875q1.65625 2.234375 4.546875 2.234375q2.90625 0 4.5 -2.109375q1.59375 -2.125 1.640625 -6.078125l0 -1.6875zm10.171875 12.109375l-2.890625 0l0 -24.0l2.890625 0l0 24.0zm3.921875 -8.59375q0 -3.890625 1.84375 -6.25q1.84375 -2.375 4.828125 -2.375q2.96875 0 4.703125 2.03125l0 -8.8125l2.8906288 0l0 24.0l-2.6562538 0l-0.140625 -1.8125q-1.734375 2.125 -4.828125 2.125q-2.9375 0 -4.796875 -2.40625q-1.84375 -2.40625 -1.84375 -6.28125l0 -0.21875zm2.890625 0.328125q0 2.875 1.1875 4.5q1.1875 1.625 3.28125 1.625q2.75 0 4.015625 -2.46875l0 -7.765625q-1.296875 -2.390625 -3.984375 -2.390625q-2.125 0 -3.3125 1.640625q-1.1875 1.640625 -1.1875 4.859375z" fill-rule="nonzero"></path></g></svg>

