<?xml version="1.0" encoding="UTF-8" standalone="no"?>
<svg
   xmlns:dc="http://purl.org/dc/elements/1.1/"
   xmlns:cc="http://creativecommons.org/ns#"
   xmlns:rdf="http://www.w3.org/1999/02/22-rdf-syntax-ns#"
   xmlns:svg="http://www.w3.org/2000/svg"
   xmlns="http://www.w3.org/2000/svg"
   version="1.1"
   id="svg2"
   xml:space="preserve"
   width="259.63867"
   height="95.62133"
   viewBox="0 0 259.63867 95.62133"><metadata
     id="metadata8"><rdf:RDF><cc:Work
         rdf:about=""><dc:format>image/svg+xml</dc:format><dc:type
           rdf:resource="http://purl.org/dc/dcmitype/StillImage" /></cc:Work></rdf:RDF></metadata><defs
     id="defs6"><clipPath
       clipPathUnits="userSpaceOnUse"
       id="clipPath18"><path
         d="M 0,792 H 612 V 0 H 0 Z"
         id="path16" /></clipPath></defs><g
     id="g10"
     transform="matrix(1.3333333,0,0,-1.3333333,-281.36199,896.33344)"><g
       id="g12"><g
         id="g14"
         clip-path="url(#clipPath18)"><g
           id="g20"
           transform="translate(211.2715,636.3921)"><path
             d="m 0,0 v 0 c 0,19.666 43.48,35.608 97.114,35.608 53.635,0 97.115,-15.942 97.115,-35.608 0,-19.666 -43.48,-35.608 -97.115,-35.608 C 43.48,-35.608 0,-19.666 0,0"
             style="fill:#d9c4e6;fill-opacity:1;fill-rule:nonzero;stroke:none"
             id="path22" /></g><g
           id="g24"
           transform="translate(211.2715,636.3921)"><path
             d="m 0,0 v 0 c 0,19.666 43.48,35.608 97.114,35.608 53.635,0 97.115,-15.942 97.115,-35.608 0,-19.666 -43.48,-35.608 -97.115,-35.608 C 43.48,-35.608 0,-19.666 0,0 Z"
             style="fill:none;stroke:#231f20;stroke-width:0.5;stroke-linecap:butt;stroke-linejoin:miter;stroke-miterlimit:4;stroke-dasharray:none;stroke-opacity:1"
             id="path26" /></g><g
           id="g28"
           transform="translate(229.8726,626.2891)"><path
             d="m 0,0 c 0,12.828 35.151,23.228 78.513,23.228 43.362,0 78.514,-10.4 78.514,-23.228 0,-12.827 -35.152,-23.226 -78.514,-23.226 C 35.151,-23.226 0,-12.827 0,0"
             style="fill:#deecf5;fill-opacity:1;fill-rule:nonzero;stroke:none"
             id="path30" /></g><g
           id="g32"
           transform="translate(229.8726,626.2891)"><path
             d="m 0,0 c 0,12.828 35.151,23.228 78.513,23.228 43.362,0 78.514,-10.4 78.514,-23.228 0,-12.827 -35.152,-23.226 -78.514,-23.226 C 35.151,-23.226 0,-12.827 0,0 Z"
             style="fill:none;stroke:#231f20;stroke-width:0.5;stroke-linecap:butt;stroke-linejoin:round;stroke-miterlimit:14.336;stroke-dasharray:none;stroke-opacity:1"
             id="path34" /></g><text
           transform="matrix(1,0,0,-1,294.3774,657.626)"
           style="font-variant:normal;font-weight:normal;font-stretch:normal;font-size:7px;font-family:Arial;-inkscape-font-specification:ArialMT;writing-mode:lr-tb;fill:#231f20;fill-opacity:1;fill-rule:nonzero;stroke:none"
           id="text40"><tspan
             x="0 5.4460001 7 10.892 12.838 15.169 19.061001 20.615 24.507"
             y="0"
             id="tspan36">Old rules</tspan><tspan
             x="-19.837999 -15.561 -14.007 -10.115 -6.223 -4.277 -0.38499999 1.946 3.892 6.223 10.115 11.669 15.561 19.061001 21.007 22.952999 26.452999 30.344999 32.291 34.237 36.182999 38.129002 42.021 44.352001"
             y="22.995001"
             id="tspan38">Tighter rules: soft fork</tspan></text></g></g></g></svg>
