<?xml version="1.0" encoding="UTF-8" standalone="no"?>
<svg
   xmlns:dc="http://purl.org/dc/elements/1.1/"
   xmlns:cc="http://creativecommons.org/ns#"
   xmlns:rdf="http://www.w3.org/1999/02/22-rdf-syntax-ns#"
   xmlns:svg="http://www.w3.org/2000/svg"
   xmlns="http://www.w3.org/2000/svg"
   version="1.1"
   id="svg2"
   xml:space="preserve"
   width="544.48547"
   height="230.28212"
   viewBox="0 0 544.48547 230.28212"><metadata
     id="metadata8"><rdf:RDF><cc:Work
         rdf:about=""><dc:format>image/svg+xml</dc:format><dc:type
           rdf:resource="http://purl.org/dc/dcmitype/StillImage" /></cc:Work></rdf:RDF></metadata><defs
     id="defs6"><clipPath
       clipPathUnits="userSpaceOnUse"
       id="clipPath18"><path
         d="M 0,792 H 612 V 0 H 0 Z"
         id="path16" /></clipPath></defs><g
     id="g10"
     transform="matrix(1.3333333,0,0,-1.3333333,-130.33333,880.27477)"><g
       id="g12"><g
         id="g14"
         clip-path="url(#clipPath18)"><g
           id="g20"
           transform="translate(205.9214,500.1313)"><path
             d="m 0,0 c 0,-1.1 -0.9,-2 -2,-2 h -44.491 c -1.1,0 -2,0.9 -2,2 v 15.285 c 0,1.1 0.9,2 2,2 H -2 c 1.1,0 2,-0.9 2,-2 z"
             style="fill:#d9c4e6;fill-opacity:1;fill-rule:nonzero;stroke:none"
             id="path22" /></g><g
           id="g24"
           transform="translate(205.9214,500.1313)"><path
             d="m 0,0 c 0,-1.1 -0.9,-2 -2,-2 h -44.491 c -1.1,0 -2,0.9 -2,2 v 15.285 c 0,1.1 0.9,2 2,2 H -2 c 1.1,0 2,-0.9 2,-2 z"
             style="fill:none;stroke:#231f20;stroke-width:0.5;stroke-linecap:butt;stroke-linejoin:round;stroke-miterlimit:14.336;stroke-dasharray:none;stroke-opacity:1"
             id="path26" /></g><text
           transform="matrix(1,0,0,-1,169.6162,505.0288)"
           style="font-variant:normal;font-weight:normal;font-stretch:normal;font-size:7px;font-family:Arial;-inkscape-font-specification:ArialMT;writing-mode:lr-tb;fill:#231f20;fill-opacity:1;fill-rule:nonzero;stroke:none"
           id="text30"><tspan
             x="0 3.892 8.5609999 10.507 14.399 19.068001"
             y="0"
             id="tspan28">FAILED</tspan></text><g
           id="g32"
           transform="translate(152.834,547.1665)"><path
             d="m 0,0 c 0,-1.1 -0.9,-2 -2,-2 h -50.834 c -1.1,0 -2,0.9 -2,2 v 12.852 c 0,1.1 0.9,2 2,2 H -2 c 1.1,0 2,-0.9 2,-2 z"
             style="fill:#deecf5;fill-opacity:1;fill-rule:nonzero;stroke:none"
             id="path34" /></g><g
           id="g36"
           transform="translate(152.834,547.1665)"><path
             d="m 0,0 c 0,-1.1 -0.9,-2 -2,-2 h -50.834 c -1.1,0 -2,0.9 -2,2 v 12.852 c 0,1.1 0.9,2 2,2 H -2 c 1.1,0 2,-0.9 2,-2 z"
             style="fill:none;stroke:#231f20;stroke-width:0.5;stroke-linecap:butt;stroke-linejoin:round;stroke-miterlimit:14.336;stroke-dasharray:none;stroke-opacity:1"
             id="path38" /></g><text
           transform="matrix(1,0,0,-1,110.0557,550.8472)"
           style="font-variant:normal;font-weight:normal;font-stretch:normal;font-size:7px;font-family:Arial;-inkscape-font-specification:ArialMT;writing-mode:lr-tb;fill:#231f20;fill-opacity:1;fill-rule:nonzero;stroke:none"
           id="text42"><tspan
             x="0 5.0539999 9.7229996 14 15.946 21 25.669001"
             y="0"
             id="tspan40">DEFINED</tspan></text><g
           id="g44"
           transform="translate(478.335,547.1665)"><path
             d="m 0,0 c 0,-1.1 -0.9,-2 -2,-2 h -50.834 c -1.1,0 -2,0.9 -2,2 v 12.852 c 0,1.1 0.9,2 2,2 H -2 c 1.1,0 2,-0.9 2,-2 z"
             style="fill:#deecf5;fill-opacity:1;fill-rule:nonzero;stroke:none"
             id="path46" /></g><g
           id="g48"
           transform="translate(478.335,547.1665)"><path
             d="m 0,0 c 0,-1.1 -0.9,-2 -2,-2 h -50.834 c -1.1,0 -2,0.9 -2,2 v 12.852 c 0,1.1 0.9,2 2,2 H -2 c 1.1,0 2,-0.9 2,-2 z"
             style="fill:none;stroke:#231f20;stroke-width:0.5;stroke-linecap:butt;stroke-linejoin:round;stroke-miterlimit:14.336;stroke-dasharray:none;stroke-opacity:1"
             id="path50" /></g><text
           transform="matrix(1,0,0,-1,438.2769,550.8472)"
           style="font-variant:normal;font-weight:normal;font-stretch:normal;font-size:7px;font-family:Arial;-inkscape-font-specification:ArialMT;writing-mode:lr-tb;fill:#231f20;fill-opacity:1;fill-rule:nonzero;stroke:none"
           id="text54"><tspan
             x="0 4.6690001 9.7229996 14 15.946 20.615"
             y="0"
             id="tspan52">ACTIVE</tspan></text><g
           id="g56"
           transform="translate(371.834,547.1665)"><path
             d="m 0,0 c 0,-1.1 -0.9,-2 -2,-2 h -50.834 c -1.1,0 -2,0.9 -2,2 v 12.852 c 0,1.1 0.9,2 2,2 H -2 c 1.1,0 2,-0.9 2,-2 z"
             style="fill:#deecf5;fill-opacity:1;fill-rule:nonzero;stroke:none"
             id="path58" /></g><g
           id="g60"
           transform="translate(371.834,547.1665)"><path
             d="m 0,0 c 0,-1.1 -0.9,-2 -2,-2 h -50.834 c -1.1,0 -2,0.9 -2,2 v 12.852 c 0,1.1 0.9,2 2,2 H -2 c 1.1,0 2,-0.9 2,-2 z"
             style="fill:none;stroke:#231f20;stroke-width:0.5;stroke-linecap:butt;stroke-linejoin:round;stroke-miterlimit:14.336;stroke-dasharray:none;stroke-opacity:1"
             id="path62" /></g><text
           transform="matrix(1,0,0,-1,324.5776,550.8472)"
           style="font-variant:normal;font-weight:normal;font-stretch:normal;font-size:7px;font-family:Arial;-inkscape-font-specification:ArialMT;writing-mode:lr-tb;fill:#231f20;fill-opacity:1;fill-rule:nonzero;stroke:none"
           id="text66"><tspan
             x="0 3.892 9.3380003 14.392 19.061001 23.73 28.784 32.675999 34.622002"
             y="0"
             id="tspan64">LOCKED_IN</tspan></text><g
           id="g68"
           transform="translate(265.333,547.1665)"><path
             d="m 0,0 c 0,-1.1 -0.9,-2 -2,-2 h -50.834 c -1.101,0 -2,0.9 -2,2 v 12.852 c 0,1.1 0.899,2 2,2 H -2 c 1.1,0 2,-0.9 2,-2 z"
             style="fill:#deecf5;fill-opacity:1;fill-rule:nonzero;stroke:none"
             id="path70" /></g><g
           id="g72"
           transform="translate(265.333,547.1665)"><path
             d="m 0,0 c 0,-1.1 -0.9,-2 -2,-2 h -50.834 c -1.101,0 -2,0.9 -2,2 v 12.852 c 0,1.1 0.899,2 2,2 H -2 c 1.1,0 2,-0.9 2,-2 z"
             style="fill:none;stroke:#231f20;stroke-width:0.5;stroke-linecap:butt;stroke-linejoin:round;stroke-miterlimit:14.336;stroke-dasharray:none;stroke-opacity:1"
             id="path74" /></g><text
           transform="matrix(1,0,0,-1,221.9048,550.8472)"
           style="font-variant:normal;font-weight:normal;font-stretch:normal;font-size:7px;font-family:Arial;-inkscape-font-specification:ArialMT;writing-mode:lr-tb;fill:#231f20;fill-opacity:1;fill-rule:nonzero;stroke:none"
           id="text78"><tspan
             x="0 4.6690001 8.4280005 13.097 18.025 22.302 26.971001"
             y="0"
             id="tspan76">STARTED</tspan></text><g
           id="g80"
           transform="translate(179.5044,522.27)"><path
             d="m 0,0 v 14.219 h -54.087 v 8.45"
             style="fill:none;stroke:#231f20;stroke-width:0.5;stroke-linecap:butt;stroke-linejoin:miter;stroke-miterlimit:4;stroke-dasharray:none;stroke-opacity:1"
             id="path82" /></g><g
           id="g84"
           transform="translate(180.1099,520.2554)"><path
             d="m 0,0 c 0.283,0.951 0.546,1.57 0.849,2.334 l -2.902,-0.01 c 0.131,-0.271 0.576,-1.379 0.867,-2.326 0.313,-1.018 0.524,-1.939 0.602,-2.537 0.072,0.6 0.281,1.523 0.584,2.539"
             style="fill:#231f20;fill-opacity:1;fill-rule:nonzero;stroke:none"
             id="path86" /></g><g
           id="g88"
           transform="translate(205.7295,553.6665)"><path
             d="M 0,0 H -52.755"
             style="fill:none;stroke:#231f20;stroke-width:0.5;stroke-linecap:butt;stroke-linejoin:miter;stroke-miterlimit:4;stroke-dasharray:none;stroke-opacity:1"
             id="path90" /></g><g
           id="g92"
           transform="translate(207.7451,554.272)"><path
             d="m 0,0 c -0.951,0.283 -1.57,0.546 -2.334,0.849 l 0.01,-2.902 c 0.271,0.131 1.379,0.576 2.326,0.867 1.018,0.313 1.939,0.524 2.537,0.602 C 1.939,-0.512 1.016,-0.303 0,0"
             style="fill:#231f20;fill-opacity:1;fill-rule:nonzero;stroke:none"
             id="path94" /></g><g
           id="g96"
           transform="translate(138.8271,564.4141)"><path
             d="M 0,0 C 0.624,0.772 1.102,1.244 1.672,1.836 L -1.015,2.931 C -0.997,2.63 -1.006,1.436 -1.098,0.449 -1.195,-0.61 -1.35,-1.544 -1.505,-2.126 -1.211,-1.6 -0.666,-0.824 0,0"
             style="fill:#231f20;fill-opacity:1;fill-rule:nonzero;stroke:none"
             id="path98" /></g><g
           id="g100"
           transform="translate(312.1885,553.6665)"><path
             d="M 0,0 H -46.758"
             style="fill:none;stroke:#231f20;stroke-width:0.5;stroke-linecap:butt;stroke-linejoin:miter;stroke-miterlimit:4;stroke-dasharray:none;stroke-opacity:1"
             id="path102" /></g><g
           id="g104"
           transform="translate(314.2041,554.272)"><path
             d="m 0,0 c -0.951,0.283 -1.57,0.546 -2.334,0.849 l 0.01,-2.902 c 0.271,0.131 1.379,0.576 2.326,0.867 1.018,0.313 1.939,0.524 2.537,0.602 C 1.939,-0.512 1.016,-0.303 0,0"
             style="fill:#231f20;fill-opacity:1;fill-rule:nonzero;stroke:none"
             id="path106" /></g><g
           id="g108"
           transform="translate(418.7529,553.6665)"><path
             d="M 0,0 H -46.758"
             style="fill:none;stroke:#231f20;stroke-width:0.5;stroke-linecap:butt;stroke-linejoin:miter;stroke-miterlimit:4;stroke-dasharray:none;stroke-opacity:1"
             id="path110" /></g><g
           id="g112"
           transform="translate(420.7686,554.272)"><path
             d="m 0,0 c -0.951,0.283 -1.57,0.546 -2.334,0.849 l 0.01,-2.902 c 0.271,0.131 1.379,0.576 2.326,0.867 1.018,0.313 1.939,0.524 2.537,0.602 C 1.939,-0.512 1.016,-0.303 0,0"
             style="fill:#231f20;fill-opacity:1;fill-rule:nonzero;stroke:none"
             id="path114" /></g><text
           transform="matrix(1,0,0,-1,241.6875,520.9023)"
           style="font-variant:normal;font-weight:bold;font-stretch:condensed;font-size:9px;font-family:'Humanst521 Cn BT';-inkscape-font-specification:Humanist521BT-BoldCondensed;writing-mode:lr-tb;fill:#231f20;fill-opacity:1;fill-rule:nonzero;stroke:none"
           id="text156"><tspan
             x="0 5.2740002 9.7559996 13.356 17.316 19.620001 21.933001 25.983 28.115999 30.275999 34.236 38.744999"
             y="0"
             id="tspan116">Once failed,</tspan><tspan
             x="0 4.0500002 6.21 11.916 15.966 19.737 23.238001 25.542 27.855 31.905001 34.037998 36.198002 40.158001"
             y="9.5039997"
             id="tspan118">always failed</tspan><tspan
             x="-132.77699 -128.72701 -126.594 -119.853 -115.893 -111.546 -107.064 -104.067"
             y="0"
             id="tspan120">Timeout </tspan><tspan
             x="-132.77699 -128.26801 -124.218 -120.717 -117.216 -113.256"
             y="9.5039997"
             id="tspan122">passed</tspan><tspan
             x="-143.487 -139.05 -136.746 -133.02 -129.06 -125.667 -122.166 -120.033 -115.686 -111.204 -108.9 -104.391 -102.267"
             y="-96.147003"
             id="tspan124">A version bit</tspan><tspan
             x="-143.487 -141.354 -137.853 -135.549 -131.03999 -127.08 -124.767 -122.634 -118.152 -114.192 -109.683 -107.379 -101.682 -99.549004 -96.552002 -92.060997"
             y="-86.642998"
             id="tspan126">is defined with </tspan><tspan
             x="-143.487 -139.437 -137.133 -133.632 -130.63499 -126.585 -123.192 -120.195 -117.891 -114.894 -112.761 -106.02 -102.06"
             y="-77.139"
             id="tspan128">a start time </tspan><tspan
             x="-143.487 -139.437 -134.955 -130.446 -128.142 -125.145 -123.012 -116.271 -112.311 -107.964 -103.482 -100.485"
             y="-67.635002"
             id="tspan130">and timeout.</tspan><tspan
             x="-77.849998 -73.889999 -70.892998 -66.843002 -63.450001"
             y="-96.138"
             id="tspan132">Start</tspan><tspan
             x="-77.849998 -74.852997 -72.720001 -65.978996"
             y="-86.634003"
             id="tspan134">time</tspan><tspan
             x="-77.849998 -73.359001 -69.308998 -65.807999 -61.479 -59.292"
             y="-77.129997"
             id="tspan136">hasn’t</tspan><tspan
             x="-77.849998 -73.341003 -69.291 -65.790001 -62.289001 -58.328999 -53.82"
             y="-67.625999"
             id="tspan138">passed.</tspan><tspan
             x="-40.923 -36.963001 -33.966 -29.916 -26.523001"
             y="-86.625"
             id="tspan140">Start</tspan><tspan
             x="-40.923 -37.925999 -35.792999 -29.052 -25.091999 -22.788 -18.297001 -14.247"
             y="-77.121002"
             id="tspan142">time has</tspan><tspan
             x="-40.923 -36.414001 -32.363998 -28.863001 -25.362 -21.402 -16.893"
             y="-67.616997"
             id="tspan144">passed.</tspan><tspan
             x="80.783997 85.085999 89.432999 91.566002 96.047997 99.044998 101.349 105.696"
             y="-77.121002"
             id="tspan146">Point of</tspan><tspan
             x="80.783997 85.265999 89.612999 91.917 95.309998 99.269997 102.267 106.749 110.142"
             y="-67.616997"
             id="tspan148">no return</tspan><tspan
             x="126.684 131.121 133.28101 138.987 143.037 146.808"
             y="-96.120003"
             id="tspan150">Always</tspan><tspan
             x="126.684 133.425 137.772 141.498 145.45799 147.76199 152.10899"
             y="-86.615997"
             id="tspan152">move on</tspan><tspan
             x="126.684 130.73399 133.218 136.215 140.175 143.56799 145.87199 149.922 152.10899"
             y="-77.112"
             id="tspan154">after 2,0</tspan></text><text
           transform="matrix(1,0,0,-1,398.3892,598.0566)"
           style="font-variant:normal;font-weight:bold;font-stretch:normal;font-size:8.5px;font-family:Arial;-inkscape-font-specification:Arial-BoldMT;writing-mode:lr-tb;fill:#231f20;fill-opacity:1;fill-rule:nonzero;stroke:none"
           id="text160"><tspan
             x="0"
             y="0"
             id="tspan158">1</tspan></text><text
           transform="matrix(1,0,0,-1,403.1167,598.0566)"
           style="font-variant:normal;font-weight:bold;font-stretch:condensed;font-size:9px;font-family:'Humanst521 Cn BT';-inkscape-font-specification:Humanist521BT-BoldCondensed;writing-mode:lr-tb;fill:#231f20;fill-opacity:1;fill-rule:nonzero;stroke:none"
           id="text178"><tspan
             x="0"
             y="0"
             id="tspan162">6</tspan><tspan
             x="-34.757999 -30.249001 -28.089001 -23.742001 -20.142 -15.957 -12.456"
             y="9.5039997"
             id="tspan164">blocks.</tspan><tspan
             x="18.486 22.923 27.405001 29.718 34.064999 37.458 41.057999 45.018002 47.321999 52.560001 56.52"
             y="-9.4949999"
             id="tspan166">Enforce New</tspan><tspan
             x="18.486 22.041 26.523001 28.683001 32.643002 36.144001 38.448002 40.761002 44.153999 48.500999"
             y="0.0089999996"
             id="tspan168">rules from</tspan><tspan
             x="18.486 22.968 27.315001 33.021 35.325001 39.672001 44.153999"
             y="9.5129995"
             id="tspan170">now on.</tspan><tspan
             x="70.334999 74.294998 77.292 81.342003 85.112999 87.417 89.550003"
             y="-9.4860001"
             id="tspan172">Stay in</tspan><tspan
             x="70.334999 73.332001 77.822998 79.956001 83.457001 85.761002 89.262001 92.259003 96.308998 99.306"
             y="0.017999999"
             id="tspan174">this state</tspan><tspan
             x="70.334999 72.648003 76.995003 80.388 84.348 88.073997 92.033997 94.517998"
             y="9.5220003"
             id="tspan176">forever.</tspan></text><g
           id="g180"
           transform="translate(124.5,566.8145)"><path
             d="M 0,0 C 0,9.102 -4,10.102 -4,19.352"
             style="fill:none;stroke:#231f20;stroke-width:0.3;stroke-linecap:butt;stroke-linejoin:miter;stroke-miterlimit:10;stroke-dasharray:none;stroke-opacity:1"
             id="path182" /></g><g
           id="g184"
           transform="translate(126.3594,567.3618)"><path
             d="M 0,0 -1.87,-3.238 -3.739,0 Z"
             style="fill:#231f20;fill-opacity:1;fill-rule:nonzero;stroke:none"
             id="path186" /></g><g
           id="g188"
           transform="translate(158.8335,532.333)"><path
             d="M 0,0 C -6,-7.333 -15.833,-9 -19.333,-9"
             style="fill:none;stroke:#231f20;stroke-width:0.3;stroke-linecap:butt;stroke-linejoin:miter;stroke-miterlimit:10;stroke-dasharray:none;stroke-opacity:1"
             id="path190" /></g><g
           id="g192"
           transform="translate(157.0479,533.0869)"><path
             d="M 0,0 3.498,1.322 2.895,-2.368 Z"
             style="fill:#231f20;fill-opacity:1;fill-rule:nonzero;stroke:none"
             id="path194" /></g><g
           id="g196"
           transform="translate(222.25,508.6665)"><path
             d="M 0,0 C 3.375,2.625 9.25,5.301 17.125,5.301"
             style="fill:none;stroke:#231f20;stroke-width:0.3;stroke-linecap:butt;stroke-linejoin:miter;stroke-miterlimit:10;stroke-dasharray:none;stroke-opacity:1"
             id="path198" /></g><g
           id="g200"
           transform="translate(223.8232,507.5347)"><path
             d="m 0,0 -3.704,-0.512 1.408,3.464 z"
             style="fill:#231f20;fill-opacity:1;fill-rule:nonzero;stroke:none"
             id="path202" /></g><g
           id="g204"
           transform="translate(169.75,571.1665)"><path
             d="M 0,0 C 4.25,3.25 7.5,9.75 7,15.25"
             style="fill:none;stroke:#231f20;stroke-width:0.3;stroke-linecap:butt;stroke-linejoin:miter;stroke-miterlimit:10;stroke-dasharray:none;stroke-opacity:1"
             id="path206" /></g><g
           id="g208"
           transform="translate(171.314,570.022)"><path
             d="M 0,0 -3.708,-0.482 -2.271,2.97 Z"
             style="fill:#231f20;fill-opacity:1;fill-rule:nonzero;stroke:none"
             id="path210" /></g><g
           id="g212"
           transform="translate(196.6665,559.333)"><path
             d="M 0,0 C 0,10 16.75,18.667 16.75,27.083"
             style="fill:none;stroke:#231f20;stroke-width:0.3;stroke-linecap:butt;stroke-linejoin:miter;stroke-miterlimit:10;stroke-dasharray:none;stroke-opacity:1"
             id="path214" /></g><g
           id="g216"
           transform="translate(198.5259,559.8804)"><path
             d="M 0,0 -1.87,-3.238 -3.74,0 Z"
             style="fill:#231f20;fill-opacity:1;fill-rule:nonzero;stroke:none"
             id="path218" /></g><g
           id="g220"
           transform="translate(405.083,559.333)"><path
             d="M 0,0 C 0,10 -16.75,18.667 -16.75,27.083"
             style="fill:none;stroke:#231f20;stroke-width:0.3;stroke-linecap:butt;stroke-linejoin:miter;stroke-miterlimit:10;stroke-dasharray:none;stroke-opacity:1"
             id="path222" /></g><g
           id="g224"
           transform="translate(406.9424,559.8804)"><path
             d="M 0,0 -1.869,-3.238 -3.739,0 Z"
             style="fill:#231f20;fill-opacity:1;fill-rule:nonzero;stroke:none"
             id="path226" /></g><g
           id="g228"
           transform="translate(296.6665,559.333)"><path
             d="M 0,0 C 0,16.333 13.333,29.5 13.333,52.833"
             style="fill:none;stroke:#231f20;stroke-width:0.3;stroke-linecap:butt;stroke-linejoin:miter;stroke-miterlimit:10;stroke-dasharray:none;stroke-opacity:1"
             id="path230" /></g><g
           id="g232"
           transform="translate(298.5259,559.8799)"><path
             d="M 0,0 -1.87,-3.238 -3.74,0 Z"
             style="fill:#231f20;fill-opacity:1;fill-rule:nonzero;stroke:none"
             id="path234" /></g><g
           id="g236"
           transform="translate(261.6665,579.6665)"><path
             d="M 0,0 C 0,11.833 -4.667,22.833 -4.667,32.833"
             style="fill:none;stroke:#231f20;stroke-width:0.3;stroke-linecap:butt;stroke-linejoin:miter;stroke-miterlimit:10;stroke-dasharray:none;stroke-opacity:1"
             id="path238" /></g><g
           id="g240"
           transform="translate(263.5259,580.2139)"><path
             d="M 0,0 -1.87,-3.238 -3.74,0 Z"
             style="fill:#231f20;fill-opacity:1;fill-rule:nonzero;stroke:none"
             id="path242" /></g><g
           id="g244"
           transform="translate(492.75,574.9165)"><path
             d="M 0,0 C 2.75,4.5 0.5,10.25 -0.75,11.5"
             style="fill:none;stroke:#231f20;stroke-width:0.3;stroke-linecap:butt;stroke-linejoin:miter;stroke-miterlimit:10;stroke-dasharray:none;stroke-opacity:1"
             id="path246" /></g><g
           id="g248"
           transform="translate(494.6221,574.4136)"><path
             d="M 0,0 -3.284,-1.788 -3.191,1.95 Z"
             style="fill:#231f20;fill-opacity:1;fill-rule:nonzero;stroke:none"
             id="path250" /></g><g
           id="g252"
           transform="translate(344,567.4165)"><path
             d="M 0,0 C 0,7.75 -7.25,11.75 -7.25,19"
             style="fill:none;stroke:#231f20;stroke-width:0.3;stroke-linecap:butt;stroke-linejoin:miter;stroke-miterlimit:10;stroke-dasharray:none;stroke-opacity:1"
             id="path254" /></g><g
           id="g256"
           transform="translate(345.8594,567.9634)"><path
             d="M 0,0 -1.869,-3.238 -3.739,0 Z"
             style="fill:#231f20;fill-opacity:1;fill-rule:nonzero;stroke:none"
             id="path258" /></g><g
           id="g260"
           transform="translate(449.334,567.4165)"><path
             d="M 0,0 C 0,7.75 -7.25,11.75 -7.25,19"
             style="fill:none;stroke:#231f20;stroke-width:0.3;stroke-linecap:butt;stroke-linejoin:miter;stroke-miterlimit:10;stroke-dasharray:none;stroke-opacity:1"
             id="path262" /></g><g
           id="g264"
           transform="translate(451.1934,567.9634)"><path
             d="M 0,0 -1.869,-3.238 -3.739,0 Z"
             style="fill:#231f20;fill-opacity:1;fill-rule:nonzero;stroke:none"
             id="path266" /></g><g
           id="g268"
           transform="translate(139.043,566.5908)"><path
             d="m 0,0 c 1.778,4.141 7.289,7.159 13.812,7.159 7.962,0 14.416,-4.496 14.416,-10.042 0,-5.545 -6.454,-10.041 -14.416,-10.041"
             style="fill:none;stroke:#231f20;stroke-width:0.5;stroke-linecap:butt;stroke-linejoin:miter;stroke-miterlimit:4;stroke-dasharray:none;stroke-opacity:1"
             id="path270" /></g><g
           id="g272"
           transform="translate(251.3262,564.4141)"><path
             d="M 0,0 C 0.624,0.772 1.102,1.244 1.672,1.836 L -1.015,2.931 C -0.997,2.63 -1.006,1.436 -1.098,0.449 -1.195,-0.61 -1.35,-1.544 -1.505,-2.126 -1.211,-1.6 -0.666,-0.824 0,0"
             style="fill:#231f20;fill-opacity:1;fill-rule:nonzero;stroke:none"
             id="path274" /></g><g
           id="g276"
           transform="translate(251.542,566.5908)"><path
             d="m 0,0 c 1.778,4.141 7.289,7.159 13.812,7.159 7.962,0 14.416,-4.496 14.416,-10.042 0,-5.545 -6.454,-10.041 -14.416,-10.041"
             style="fill:none;stroke:#231f20;stroke-width:0.5;stroke-linecap:butt;stroke-linejoin:miter;stroke-miterlimit:4;stroke-dasharray:none;stroke-opacity:1"
             id="path278" /></g><g
           id="g280"
           transform="translate(208.6992,508.3638)"><path
             d="M 0,0 C 0.951,0.285 1.568,0.549 2.332,0.854 L 2.33,-2.047 c -0.271,0.129 -1.381,0.573 -2.329,0.861 -1.018,0.31 -1.94,0.519 -2.538,0.596 C -1.938,-0.517 -1.014,-0.305 0,0"
             style="fill:#231f20;fill-opacity:1;fill-rule:nonzero;stroke:none"
             id="path282" /></g><g
           id="g284"
           transform="translate(464.3281,564.4141)"><path
             d="M 0,0 C 0.623,0.772 1.102,1.244 1.672,1.836 L -1.015,2.931 C -0.997,2.63 -1.006,1.436 -1.098,0.449 -1.195,-0.61 -1.35,-1.544 -1.506,-2.126 -1.211,-1.6 -0.666,-0.824 0,0"
             style="fill:#231f20;fill-opacity:1;fill-rule:nonzero;stroke:none"
             id="path286" /></g><g
           id="g288"
           transform="translate(464.5439,566.5908)"><path
             d="m 0,0 c 1.778,4.141 7.289,7.159 13.812,7.159 7.962,0 14.416,-4.496 14.416,-10.042 0,-5.545 -6.454,-10.041 -14.416,-10.041"
             style="fill:none;stroke:#231f20;stroke-width:0.5;stroke-linecap:butt;stroke-linejoin:miter;stroke-miterlimit:4;stroke-dasharray:none;stroke-opacity:1"
             id="path290" /></g><g
           id="g292"
           transform="translate(207.9751,507.8755)"><path
             d="m 0,0 c 8.389,0 15.19,-4.506 15.19,-10.065 0,-5.56 -6.801,-10.066 -15.19,-10.066 -8.389,0 -15.189,4.506 -15.189,10.066 0,0.082 10e-4,0.165 0.004,0.247"
             style="fill:none;stroke:#231f20;stroke-width:0.5;stroke-linecap:butt;stroke-linejoin:miter;stroke-miterlimit:4;stroke-dasharray:none;stroke-opacity:1"
             id="path294" /></g><text
           transform="matrix(1,0,0,-1,229.3027,653.8516)"
           style="font-variant:normal;font-weight:bold;font-stretch:condensed;font-size:9px;font-family:'Humanst521 Cn BT';-inkscape-font-specification:Humanist521BT-BoldCondensed;writing-mode:lr-tb;fill:#231f20;fill-opacity:1;fill-rule:nonzero;stroke:none"
           id="text316"><tspan
             x="0 7.4970002 11.952 16.011 22.490999 24.795 29.142 31.455 33.758999 36.756001 41.247002"
             y="0"
             id="tspan296">&lt;95% of the</tspan><tspan
             x="0 4.5089998 6.6690001 11.016 14.616 18.801001 22.302 24.606001 28.107 30.24 34.344002 38.826 42.875999"
             y="9.5039997"
             id="tspan298">blocks signal</tspan><tspan
             x="0 3.5009999 7.9829998 12.492 17.000999 21.348 24.740999 27.738001 30.042 34.479 39.716999"
             y="19.007999"
             id="tspan300">support AND</tspan><tspan
             x="0 2.997 7.4879999 11.448 13.752 16.749001 18.882 25.622999 29.583 33.93 38.411999 41.409"
             y="28.511999"
             id="tspan302">the timeout </tspan><tspan
             x="0 4.4910002 8.5410004 12.042 16.371 18.558001 21.555 23.858999 28.368 32.417999 35.918999 39.419998 43.380001 47.889"
             y="38.015999"
             id="tspan304">hasn’t passed.</tspan><tspan
             x="61.902 69.399002 73.853996 77.913002 84.392998 86.696999 91.043999 93.357002 95.661003 98.657997 103.149"
             y="0.017999999"
             id="tspan306"> 95% of the</tspan><tspan
             x="61.902 66.411003 68.570999 72.917999 76.517998 80.703003 84.204002 86.508003 90.009003 92.141998 96.246002 100.728 104.778"
             y="9.5220003"
             id="tspan308">blocks signal</tspan><tspan
             x="61.902 65.403 69.885002 74.393997 78.903 83.25 86.642998 89.639999 91.944 97.218002"
             y="19.025999"
             id="tspan310">support OR</tspan><tspan
             x="61.902 64.899002 69.389999 73.349998 75.653999 78.651001 80.783997 87.525002 91.485001 95.832001 100.314"
             y="28.530001"
             id="tspan312">the timeout</tspan><tspan
             x="61.902 66.392998 70.443001 73.944 76.248001 80.757004 84.806999 88.307999 91.808998 95.768997 100.278"
             y="38.034"
             id="tspan314">has passed.</tspan></text><g
           id="g318"
           transform="translate(292.333,659.3374)"><path
             d="M 0,0 5.221,-1.692 V -2.457 L 0,-4.148 V -3.23 L 3.656,-2.079 0,-0.918 Z m -0.009,-4.597 h 5.238 v -0.866 h -5.238 z"
             style="fill:#231f20;fill-opacity:1;fill-rule:nonzero;stroke:none"
             id="path320" /></g></g></g></g></svg>
