<?xml version="1.0" encoding="UTF-8" standalone="no"?>
<svg
   xmlns:dc="http://purl.org/dc/elements/1.1/"
   xmlns:cc="http://creativecommons.org/ns#"
   xmlns:rdf="http://www.w3.org/1999/02/22-rdf-syntax-ns#"
   xmlns:svg="http://www.w3.org/2000/svg"
   xmlns="http://www.w3.org/2000/svg"
   version="1.1"
   id="svg2"
   xml:space="preserve"
   width="196.36836"
   height="112.35628"
   viewBox="0 0 196.36836 112.35628"><metadata
     id="metadata8"><rdf:RDF><cc:Work
         rdf:about=""><dc:format>image/svg+xml</dc:format><dc:type
           rdf:resource="http://purl.org/dc/dcmitype/StillImage" /></cc:Work></rdf:RDF></metadata><defs
     id="defs6"><clipPath
       clipPathUnits="userSpaceOnUse"
       id="clipPath18"><path
         d="M 0,792 H 612 V 0 H 0 Z"
         id="path16" /></clipPath></defs><g
     id="g10"
     transform="matrix(1.3333333,0,0,-1.3333333,-325.19199,902.22318)"><g
       id="g12"><g
         id="g14"
         clip-path="url(#clipPath18)"><g
           id="g20"
           transform="translate(303.5625,619.8188)"><path
             d="M 0,0 22.139,22.007 C 9.395,30.025 9.661,42.126 22.757,49.966 35.851,57.806 57.488,58.818 72.741,52.304 87.995,45.79 91.876,33.881 81.706,24.792 71.535,15.704 50.643,12.41 33.438,17.181 Z"
             style="fill:#ffffff;fill-opacity:1;fill-rule:nonzero;stroke:none"
             id="path22" /></g><g
           id="g24"
           transform="translate(303.5625,619.8188)"><path
             d="M 0,0 22.139,22.007 C 9.395,30.025 9.661,42.126 22.757,49.966 35.851,57.806 57.488,58.818 72.741,52.304 87.995,45.79 91.876,33.881 81.706,24.792 71.535,15.704 50.643,12.41 33.438,17.181 Z"
             style="fill:none;stroke:#7b7979;stroke-width:0.5;stroke-linecap:butt;stroke-linejoin:round;stroke-miterlimit:10;stroke-dasharray:none;stroke-opacity:1"
             id="path26" /></g><text
           transform="matrix(1,0,0,-1,333.4126,661.3818)"
           style="font-variant:normal;font-weight:normal;font-stretch:normal;font-size:7px;font-family:Arial;-inkscape-font-specification:ArialMT;writing-mode:lr-tb;fill:#231f20;fill-opacity:1;fill-rule:nonzero;stroke:none"
           id="text34"><tspan
             x="0 6.4819999 10.374 11.928 13.482 15.036 16.982 20.874001 24.766001 26.712 30.604 32.935001 36.435001"
             y="0"
             id="tspan28">We’ll enforce</tspan><tspan
             x="-1.8200001 1.6799999 5.572 9.4639997 14.518 16.072001 18.018 19.964001 25.018 26.572001 28.518 32.41 36.301998 40.194"
             y="9.0019999"
             id="tspan30">segwit without</tspan><tspan
             x="8.6870003 14.518 16.072001 19.964001 23.856001 26.187 29.687"
             y="18.004"
             id="tspan32">miners.</tspan></text><text
           transform="matrix(1,0,0,-1,245.0425,592.8623)"
           style="font-variant:normal;font-weight:bold;font-stretch:normal;font-size:20.0917px;font-family:Helvetica;-inkscape-font-specification:Helvetica-Bold;writing-mode:lr-tb;fill:#231f20;fill-opacity:1;fill-rule:nonzero;stroke:none"
           id="text38"><tspan
             x="0 14.506207 29.012415 42.413578"
             y="0"
             id="tspan36">UASF</tspan></text><g
           id="g40"
           transform="translate(278.188,631.0747)"><path
             d="M 0,0 C 0.209,0.209 0.949,0.743 0.941,0.939 0.939,0.982 0.203,1.678 0,1.881 -4.764,6.645 -9.862,11.693 -14.42,16.236 -19.514,11.299 -24.801,6.013 -29.843,0.814 c 5.188,-5.05 10.183,-10.295 15.423,-15.294 2.068,2.194 4.318,4.207 6.333,6.457 -2.984,2.971 -6.024,5.886 -8.903,8.962 1.995,1.914 3.886,3.931 5.893,5.831 0.681,-0.802 1.488,-1.479 2.194,-2.256 -1.227,-1.217 -2.513,-2.377 -3.636,-3.7 C -7.351,-4.236 -2.355,-9.481 2.885,-14.48 8.049,-9.427 13.074,-4.232 18.245,0.814 13.922,5.343 9.203,9.918 4.766,14.355 4.531,14.589 3.098,16.311 2.822,16.299 2.654,16.291 2.231,15.646 2.069,15.484 0.393,13.809 -1.112,12.303 -2.758,10.656 -2.904,10.511 -3.584,10.086 -3.573,9.842 -3.57,9.76 -2.693,8.963 -2.445,8.713 -0.029,6.299 1.971,4.299 4.326,1.943 4.629,1.641 5.379,1.08 5.33,0.814 5.313,0.727 4.859,0.285 4.64,0.063 2.896,-1.704 1.169,-3.297 -0.438,-4.952 -1.279,-4.31 -1.959,-3.506 -2.695,-2.758 -1.763,-1.802 -0.967,-0.968 0,0 m -14.482,20.75 h 0.062 c 2.837,-2.889 5.7,-5.752 8.59,-8.589 2.961,2.786 5.769,5.724 8.652,8.589 H 2.885 C 9.462,14.121 16.066,7.518 22.696,0.939 16.191,-5.804 9.441,-12.303 2.885,-18.994 H 2.822 c -2.415,2.506 -5.021,5.019 -7.587,7.585 -0.256,0.255 -0.876,1.071 -1.065,1.065 -0.19,-0.006 -0.845,-0.915 -1.066,-1.129 -2.521,-2.433 -5.107,-5.039 -7.524,-7.521 h -0.062 c -4.939,5.023 -9.983,9.98 -14.922,14.92 -1.661,1.66 -3.356,3.289 -4.89,5.077 6.664,6.522 13.187,13.185 19.812,19.747"
             style="fill:#231f20;fill-opacity:1;fill-rule:evenodd;stroke:none"
             id="path42" /></g></g></g></g></svg>
