<?xml version="1.0" standalone="yes"?>

<svg version="1.1" viewBox="0.0 0.0 795.5748031496063 100.0" fill="none" stroke="none" stroke-linecap="square" stroke-miterlimit="10" xmlns="http://www.w3.org/2000/svg" xmlns:xlink="http://www.w3.org/1999/xlink"><clipPath id="p.0"><path d="m0 0l795.5748 0l0 100.0l-795.5748 0l0 -100.0z" clip-rule="nonzero"></path></clipPath><g clip-path="url(#p.0)"><path fill="#000000" fill-opacity="0.0" d="m0 0l795.5748 0l0 100.0l-795.5748 0z" fill-rule="evenodd"></path><path fill="#ffffff" d="m155.2717 11.163764l24.462234 0l0 17.983318l-24.462234 0z" fill-rule="evenodd"></path><path stroke="#000000" stroke-width="1.0" stroke-linejoin="round" stroke-linecap="butt" d="m155.2717 11.163764l24.462234 0l0 17.983318l-24.462234 0z" fill-rule="evenodd"></path><path fill="#000000" d="m172.0842 20.296675l0 1.625q0 2.125 -1.0 3.359375q-0.796875 0.96875 -2.0 0.96875q-0.578125 0 -1.09375 -0.234375q-0.5 -0.234375 -0.859375 -0.640625q-0.234375 -0.265625 -0.5 -0.828125q-0.265625 -0.578125 -0.390625 -1.046875q-0.171875 -0.671875 -0.171875 -1.578125l0 -1.625q0 -2.125 1.0 -3.359375q0.796875 -0.96875095 2.0 -0.96875095q0.578125 0 1.078125 0.23437595q0.515625 0.234375 0.875 0.640625q0.234375 0.265625 0.5 0.84375q0.265625 0.5625 0.390625 1.03125q0.171875 0.671875 0.171875 1.578125zm-0.65625 0.09375q0 -0.9375 -0.265625 -1.734375q-0.25 -0.796875 -0.578125 -1.28125q-0.203125 -0.265625 -0.515625 -0.46875q-0.4375 -0.265625 -1.0 -0.265625q-1.09375 0 -1.71875 1.125q-0.625 1.125 -0.625 2.625l0 1.4375q0 0.9375 0.25 1.75q0.265625 0.796875 0.609375 1.265625q0.1875 0.265625 0.5 0.46875q0.4375 0.28125 1.0 0.28125q1.09375 0 1.71875 -1.125q0.625 -1.140625 0.625 -2.640625l0 -1.4375z" fill-rule="nonzero"></path><path fill="#ffffff" d="m179.73393 11.163764l24.462234 0l0 17.983318l-24.462234 0z" fill-rule="evenodd"></path><path stroke="#000000" stroke-width="1.0" stroke-linejoin="round" stroke-linecap="butt" d="m179.73393 11.163764l24.462234 0l0 17.983318l-24.462234 0z" fill-rule="evenodd"></path><path fill="#000000" d="m196.54643 20.296675l0 1.625q0 2.125 -1.0 3.359375q-0.796875 0.96875 -2.0 0.96875q-0.578125 0 -1.09375 -0.234375q-0.5 -0.234375 -0.859375 -0.640625q-0.234375 -0.265625 -0.5 -0.828125q-0.265625 -0.578125 -0.390625 -1.046875q-0.171875 -0.671875 -0.171875 -1.578125l0 -1.625q0 -2.125 1.0 -3.359375q0.796875 -0.96875095 2.0 -0.96875095q0.578125 0 1.078125 0.23437595q0.515625 0.234375 0.875 0.640625q0.234375 0.265625 0.5 0.84375q0.265625 0.5625 0.390625 1.03125q0.171875 0.671875 0.171875 1.578125zm-0.65625 0.09375q0 -0.9375 -0.265625 -1.734375q-0.25 -0.796875 -0.578125 -1.28125q-0.203125 -0.265625 -0.515625 -0.46875q-0.4375 -0.265625 -1.0 -0.265625q-1.09375 0 -1.71875 1.125q-0.625 1.125 -0.625 2.625l0 1.4375q0 0.9375 0.25 1.75q0.265625 0.796875 0.609375 1.265625q0.1875 0.265625 0.5 0.46875q0.4375 0.28125 1.0 0.28125q1.09375 0 1.71875 -1.125q0.625 -1.140625 0.625 -2.640625l0 -1.4375z" fill-rule="nonzero"></path><path fill="#ffffff" d="m106.41851 11.163764l24.462227 0l0 17.983318l-24.462227 0z" fill-rule="evenodd"></path><path stroke="#000000" stroke-width="1.0" stroke-linejoin="round" stroke-linecap="butt" d="m106.41851 11.163764l24.462227 0l0 17.983318l-24.462227 0z" fill-rule="evenodd"></path><path fill="#000000" d="m123.23101 20.296675l0 1.625q0 2.125 -1.0 3.359375q-0.796875 0.96875 -2.0 0.96875q-0.578125 0 -1.09375 -0.234375q-0.5 -0.234375 -0.859375 -0.640625q-0.234375 -0.265625 -0.5 -0.828125q-0.265625 -0.578125 -0.390625 -1.046875q-0.171875 -0.671875 -0.171875 -1.578125l0 -1.625q0 -2.125 1.0 -3.359375q0.796875 -0.96875095 2.0 -0.96875095q0.578125 0 1.078125 0.23437595q0.515625 0.234375 0.875 0.640625q0.234375 0.265625 0.5 0.84375q0.265625 0.5625 0.390625 1.03125q0.171875 0.671875 0.171875 1.578125zm-0.65625 0.09375q0 -0.9375 -0.265625 -1.734375q-0.25 -0.796875 -0.578125 -1.28125q-0.203125 -0.265625 -0.515625 -0.46875q-0.4375 -0.265625 -1.0 -0.265625q-1.09375 0 -1.71875 1.125q-0.625 1.125 -0.625 2.625l0 1.4375q0 0.9375 0.25 1.75q0.265625 0.796875 0.609375 1.265625q0.1875 0.265625 0.5 0.46875q0.4375 0.28125 1.0 0.28125q1.09375 0 1.71875 -1.125q0.625 -1.140625 0.625 -2.640625l0 -1.4375z" fill-rule="nonzero"></path><path fill="#ffffff" d="m130.88074 11.163764l24.462234 0l0 17.983318l-24.462234 0z" fill-rule="evenodd"></path><path stroke="#000000" stroke-width="1.0" stroke-linejoin="round" stroke-linecap="butt" d="m130.88074 11.163764l24.462234 0l0 17.983318l-24.462234 0z" fill-rule="evenodd"></path><path fill="#000000" d="m147.69324 20.296675l0 1.625q0 2.125 -1.0 3.359375q-0.796875 0.96875 -2.0 0.96875q-0.578125 0 -1.09375 -0.234375q-0.5 -0.234375 -0.859375 -0.640625q-0.234375 -0.265625 -0.5 -0.828125q-0.265625 -0.578125 -0.390625 -1.046875q-0.171875 -0.671875 -0.171875 -1.578125l0 -1.625q0 -2.125 1.0 -3.359375q0.796875 -0.96875095 2.0 -0.96875095q0.578125 0 1.078125 0.23437595q0.515625 0.234375 0.875 0.640625q0.234375 0.265625 0.5 0.84375q0.265625 0.5625 0.390625 1.03125q0.171875 0.671875 0.171875 1.578125zm-0.65625 0.09375q0 -0.9375 -0.265625 -1.734375q-0.25 -0.796875 -0.578125 -1.28125q-0.203125 -0.265625 -0.515625 -0.46875q-0.4375 -0.265625 -1.0 -0.265625q-1.09375 0 -1.71875 1.125q-0.625 1.125 -0.625 2.625l0 1.4375q0 0.9375 0.25 1.75q0.265625 0.796875 0.609375 1.265625q0.1875 0.265625 0.5 0.46875q0.4375 0.28125 1.0 0.28125q1.09375 0 1.71875 -1.125q0.625 -1.140625 0.625 -2.640625l0 -1.4375z" fill-rule="nonzero"></path><path fill="#ffffff" d="m57.565323 11.163764l24.462234 0l0 17.983318l-24.462234 0z" fill-rule="evenodd"></path><path stroke="#000000" stroke-width="1.0" stroke-linejoin="round" stroke-linecap="butt" d="m57.565323 11.163764l24.462234 0l0 17.983318l-24.462234 0z" fill-rule="evenodd"></path><path fill="#000000" d="m71.69032 16.077925l0 9.28125l2.25 0q0.234375 0 0.328125 0.09375q0.109375 0.078125 0.109375 0.234375q0 0.140625 -0.109375 0.234375q-0.09375 0.09375 -0.328125 0.09375l-5.15625 0q-0.234375 0 -0.34375 -0.09375q-0.09375 -0.09375 -0.09375 -0.234375q0 -0.15625 0.09375 -0.234375q0.109375 -0.09375 0.34375 -0.09375l2.25 0l0 -8.375l-2.140625 0.671875q-0.15625 0.046875 -0.21875 0.046875q-0.125 0 -0.21875 -0.09375q-0.09375 -0.109375 -0.09375 -0.234375q0 -0.125 0.078125 -0.21875q0.0625 -0.0625 0.25 -0.140625l3.0 -0.9375z" fill-rule="nonzero"></path><path fill="#ffffff" d="m82.02756 11.163764l24.462234 0l0 17.983318l-24.462234 0z" fill-rule="evenodd"></path><path stroke="#000000" stroke-width="1.0" stroke-linejoin="round" stroke-linecap="butt" d="m82.02756 11.163764l24.462234 0l0 17.983318l-24.462234 0z" fill-rule="evenodd"></path><path fill="#000000" d="m98.84006 20.296675l0 1.625q0 2.125 -1.0 3.359375q-0.796875 0.96875 -2.0 0.96875q-0.578125 0 -1.09375 -0.234375q-0.5 -0.234375 -0.859375 -0.640625q-0.234375 -0.265625 -0.5 -0.828125q-0.265625 -0.578125 -0.390625 -1.046875q-0.171875 -0.671875 -0.171875 -1.578125l0 -1.625q0 -2.125 1.0 -3.359375q0.796875 -0.96875095 2.0 -0.96875095q0.578125 0 1.078125 0.23437595q0.515625 0.234375 0.875 0.640625q0.234375 0.265625 0.5 0.84375q0.265625 0.5625 0.390625 1.03125q0.171875 0.671875 0.171875 1.578125zm-0.65625 0.09375q0 -0.9375 -0.265625 -1.734375q-0.25 -0.796875 -0.578125 -1.28125q-0.203125 -0.265625 -0.515625 -0.46875q-0.4375 -0.265625 -1.0 -0.265625q-1.09375 0 -1.71875 1.125q-0.625 1.125 -0.625 2.625l0 1.4375q0 0.9375 0.25 1.75q0.265625 0.796875 0.609375 1.265625q0.1875 0.265625 0.5 0.46875q0.4375 0.28125 1.0 0.28125q1.09375 0 1.71875 -1.125q0.625 -1.140625 0.625 -2.640625l0 -1.4375z" fill-rule="nonzero"></path><path fill="#ffffff" d="m8.712133 11.163764l24.462233 0l0 17.983318l-24.462233 0z" fill-rule="evenodd"></path><path stroke="#000000" stroke-width="1.0" stroke-linejoin="round" stroke-linecap="butt" d="m8.712133 11.163764l24.462233 0l0 17.983318l-24.462233 0z" fill-rule="evenodd"></path><path fill="#000000" d="m25.524633 20.296675l0 1.625q0 2.125 -1.0 3.359375q-0.796875 0.96875 -2.0 0.96875q-0.578125 0 -1.09375 -0.234375q-0.5 -0.234375 -0.859375 -0.640625q-0.234375 -0.265625 -0.5 -0.828125q-0.265625 -0.578125 -0.390625 -1.046875q-0.171875 -0.671875 -0.171875 -1.578125l0 -1.625q0 -2.125 1.0 -3.359375q0.796875 -0.96875095 2.0 -0.96875095q0.578125 0 1.078125 0.23437595q0.515625 0.234375 0.875 0.640625q0.234375 0.265625 0.5 0.84375q0.265625 0.5625 0.390625 1.03125q0.171875 0.671875 0.171875 1.578125zm-0.65625 0.09375q0 -0.9375 -0.265625 -1.734375q-0.25 -0.796875 -0.578125 -1.28125q-0.203125 -0.265625 -0.515625 -0.46875q-0.4375 -0.265625 -1.0 -0.265625q-1.09375 0 -1.71875 1.125q-0.625 1.125 -0.625 2.625l0 1.4375q0 0.9375 0.25 1.75q0.265625 0.796875 0.609375 1.265625q0.1875 0.265625 0.5 0.46875q0.4375 0.28125 1.0 0.28125q1.09375 0 1.71875 -1.125q0.625 -1.140625 0.625 -2.640625l0 -1.4375z" fill-rule="nonzero"></path><path fill="#ffffff" d="m33.174366 11.163764l24.462234 0l0 17.983318l-24.462234 0z" fill-rule="evenodd"></path><path stroke="#000000" stroke-width="1.0" stroke-linejoin="round" stroke-linecap="butt" d="m33.174366 11.163764l24.462234 0l0 17.983318l-24.462234 0z" fill-rule="evenodd"></path><path fill="#000000" d="m49.986866 20.296675l0 1.625q0 2.125 -1.0 3.359375q-0.796875 0.96875 -2.0 0.96875q-0.578125 0 -1.09375 -0.234375q-0.5 -0.234375 -0.859375 -0.640625q-0.234375 -0.265625 -0.5 -0.828125q-0.265625 -0.578125 -0.390625 -1.046875q-0.171875 -0.671875 -0.171875 -1.578125l0 -1.625q0 -2.125 1.0 -3.359375q0.796875 -0.96875095 2.0 -0.96875095q0.578125 0 1.078125 0.23437595q0.515625 0.234375 0.875 0.640625q0.234375 0.265625 0.5 0.84375q0.265625 0.5625 0.390625 1.03125q0.171875 0.671875 0.171875 1.578125zm-0.65625 0.09375q0 -0.9375 -0.265625 -1.734375q-0.25 -0.796875 -0.578125 -1.28125q-0.203125 -0.265625 -0.515625 -0.46875q-0.4375 -0.265625 -1.0 -0.265625q-1.09375 0 -1.71875 1.125q-0.625 1.125 -0.625 2.625l0 1.4375q0 0.9375 0.25 1.75q0.265625 0.796875 0.609375 1.265625q0.1875 0.265625 0.5 0.46875q0.4375 0.28125 1.0 0.28125q1.09375 0 1.71875 -1.125q0.625 -1.140625 0.625 -2.640625l0 -1.4375z" fill-rule="nonzero"></path><path fill="#ffffff" d="m350.8998 11.163764l24.46225 0l0 17.983318l-24.46225 0z" fill-rule="evenodd"></path><path stroke="#000000" stroke-width="1.0" stroke-linejoin="round" stroke-linecap="butt" d="m350.8998 11.163764l24.46225 0l0 17.983318l-24.46225 0z" fill-rule="evenodd"></path><path fill="#000000" d="m367.7123 20.296675l0 1.625q0 2.125 -1.0 3.359375q-0.796875 0.96875 -2.0 0.96875q-0.578125 0 -1.09375 -0.234375q-0.5 -0.234375 -0.859375 -0.640625q-0.234375 -0.265625 -0.5 -0.828125q-0.265625 -0.578125 -0.390625 -1.046875q-0.171875 -0.671875 -0.171875 -1.578125l0 -1.625q0 -2.125 1.0 -3.359375q0.796875 -0.96875095 2.0 -0.96875095q0.578125 0 1.078125 0.23437595q0.515625 0.234375 0.875 0.640625q0.234375 0.265625 0.5 0.84375q0.265625 0.5625 0.390625 1.03125q0.171875 0.671875 0.171875 1.578125zm-0.65625 0.09375q0 -0.9375 -0.265625 -1.734375q-0.25 -0.796875 -0.578125 -1.28125q-0.203125 -0.265625 -0.515625 -0.46875q-0.4375 -0.265625 -1.0 -0.265625q-1.09375 0 -1.71875 1.125q-0.625 1.125 -0.625 2.625l0 1.4375q0 0.9375 0.25 1.75q0.265625 0.796875 0.609375 1.265625q0.1875 0.265625 0.5 0.46875q0.4375 0.28125 1.0 0.28125q1.09375 0 1.71875 -1.125q0.625 -1.140625 0.625 -2.640625l0 -1.4375z" fill-rule="nonzero"></path><path fill="#ffffff" d="m375.36206 11.163764l24.46222 0l0 17.983318l-24.46222 0z" fill-rule="evenodd"></path><path stroke="#000000" stroke-width="1.0" stroke-linejoin="round" stroke-linecap="butt" d="m375.36206 11.163764l24.46222 0l0 17.983318l-24.46222 0z" fill-rule="evenodd"></path><path fill="#000000" d="m392.17456 20.296675l0 1.625q0 2.125 -1.0 3.359375q-0.796875 0.96875 -2.0 0.96875q-0.578125 0 -1.09375 -0.234375q-0.5 -0.234375 -0.859375 -0.640625q-0.234375 -0.265625 -0.5 -0.828125q-0.265625 -0.578125 -0.390625 -1.046875q-0.171875 -0.671875 -0.171875 -1.578125l0 -1.625q0 -2.125 1.0 -3.359375q0.796875 -0.96875095 2.0 -0.96875095q0.578125 0 1.078125 0.23437595q0.515625 0.234375 0.875 0.640625q0.234375 0.265625 0.5 0.84375q0.265625 0.5625 0.390625 1.03125q0.171875 0.671875 0.171875 1.578125zm-0.65625 0.09375q0 -0.9375 -0.265625 -1.734375q-0.25 -0.796875 -0.578125 -1.28125q-0.203125 -0.265625 -0.515625 -0.46875q-0.4375 -0.265625 -1.0 -0.265625q-1.09375 0 -1.71875 1.125q-0.625 1.125 -0.625 2.625l0 1.4375q0 0.9375 0.25 1.75q0.265625 0.796875 0.609375 1.265625q0.1875 0.265625 0.5 0.46875q0.4375 0.28125 1.0 0.28125q1.09375 0 1.71875 -1.125q0.625 -1.140625 0.625 -2.640625l0 -1.4375z" fill-rule="nonzero"></path><path fill="#ffffff" d="m302.04663 11.163764l24.46222 0l0 17.983318l-24.46222 0z" fill-rule="evenodd"></path><path stroke="#000000" stroke-width="1.0" stroke-linejoin="round" stroke-linecap="butt" d="m302.04663 11.163764l24.46222 0l0 17.983318l-24.46222 0z" fill-rule="evenodd"></path><path fill="#000000" d="m318.85913 20.296675l0 1.625q0 2.125 -1.0 3.359375q-0.796875 0.96875 -2.0 0.96875q-0.578125 0 -1.09375 -0.234375q-0.5 -0.234375 -0.859375 -0.640625q-0.234375 -0.265625 -0.5 -0.828125q-0.265625 -0.578125 -0.390625 -1.046875q-0.171875 -0.671875 -0.171875 -1.578125l0 -1.625q0 -2.125 1.0 -3.359375q0.796875 -0.96875095 2.0 -0.96875095q0.578125 0 1.078125 0.23437595q0.515625 0.234375 0.875 0.640625q0.234375 0.265625 0.5 0.84375q0.265625 0.5625 0.390625 1.03125q0.171875 0.671875 0.171875 1.578125zm-0.65625 0.09375q0 -0.9375 -0.265625 -1.734375q-0.25 -0.796875 -0.578125 -1.28125q-0.203125 -0.265625 -0.515625 -0.46875q-0.4375 -0.265625 -1.0 -0.265625q-1.09375 0 -1.71875 1.125q-0.625 1.125 -0.625 2.625l0 1.4375q0 0.9375 0.25 1.75q0.265625 0.796875 0.609375 1.265625q0.1875 0.265625 0.5 0.46875q0.4375 0.28125 1.0 0.28125q1.09375 0 1.71875 -1.125q0.625 -1.140625 0.625 -2.640625l0 -1.4375z" fill-rule="nonzero"></path><path fill="#ffffff" d="m326.50885 11.163764l24.46225 0l0 17.983318l-24.46225 0z" fill-rule="evenodd"></path><path stroke="#000000" stroke-width="1.0" stroke-linejoin="round" stroke-linecap="butt" d="m326.50885 11.163764l24.46225 0l0 17.983318l-24.46225 0z" fill-rule="evenodd"></path><path fill="#000000" d="m343.32135 20.296675l0 1.625q0 2.125 -1.0 3.359375q-0.796875 0.96875 -2.0 0.96875q-0.578125 0 -1.09375 -0.234375q-0.5 -0.234375 -0.859375 -0.640625q-0.234375 -0.265625 -0.5 -0.828125q-0.265625 -0.578125 -0.390625 -1.046875q-0.171875 -0.671875 -0.171875 -1.578125l0 -1.625q0 -2.125 1.0 -3.359375q0.796875 -0.96875095 2.0 -0.96875095q0.578125 0 1.078125 0.23437595q0.515625 0.234375 0.875 0.640625q0.234375 0.265625 0.5 0.84375q0.265625 0.5625 0.390625 1.03125q0.171875 0.671875 0.171875 1.578125zm-0.65625 0.09375q0 -0.9375 -0.265625 -1.734375q-0.25 -0.796875 -0.578125 -1.28125q-0.203125 -0.265625 -0.515625 -0.46875q-0.4375 -0.265625 -1.0 -0.265625q-1.09375 0 -1.71875 1.125q-0.625 1.125 -0.625 2.625l0 1.4375q0 0.9375 0.25 1.75q0.265625 0.796875 0.609375 1.265625q0.1875 0.265625 0.5 0.46875q0.4375 0.28125 1.0 0.28125q1.09375 0 1.71875 -1.125q0.625 -1.140625 0.625 -2.640625l0 -1.4375z" fill-rule="nonzero"></path><path fill="#ffffff" d="m253.19344 11.163764l24.462234 0l0 17.983318l-24.462234 0z" fill-rule="evenodd"></path><path stroke="#000000" stroke-width="1.0" stroke-linejoin="round" stroke-linecap="butt" d="m253.19344 11.163764l24.462234 0l0 17.983318l-24.462234 0z" fill-rule="evenodd"></path><path fill="#000000" d="m270.00595 20.296675l0 1.625q0 2.125 -1.0 3.359375q-0.796875 0.96875 -2.0 0.96875q-0.578125 0 -1.09375 -0.234375q-0.5 -0.234375 -0.859375 -0.640625q-0.234375 -0.265625 -0.5 -0.828125q-0.265625 -0.578125 -0.390625 -1.046875q-0.171875 -0.671875 -0.171875 -1.578125l0 -1.625q0 -2.125 1.0 -3.359375q0.796875 -0.96875095 2.0 -0.96875095q0.578125 0 1.078125 0.23437595q0.515625 0.234375 0.875 0.640625q0.234375 0.265625 0.5 0.84375q0.265625 0.5625 0.390625 1.03125q0.171875 0.671875 0.171875 1.578125zm-0.65625 0.09375q0 -0.9375 -0.265625 -1.734375q-0.25 -0.796875 -0.578125 -1.28125q-0.203125 -0.265625 -0.515625 -0.46875q-0.4375 -0.265625 -1.0 -0.265625q-1.09375 0 -1.71875 1.125q-0.625 1.125 -0.625 2.625l0 1.4375q0 0.9375 0.25 1.75q0.265625 0.796875 0.609375 1.265625q0.1875 0.265625 0.5 0.46875q0.4375 0.28125 1.0 0.28125q1.09375 0 1.71875 -1.125q0.625 -1.140625 0.625 -2.640625l0 -1.4375z" fill-rule="nonzero"></path><path fill="#ffffff" d="m277.65567 11.163764l24.46225 0l0 17.983318l-24.46225 0z" fill-rule="evenodd"></path><path stroke="#000000" stroke-width="1.0" stroke-linejoin="round" stroke-linecap="butt" d="m277.65567 11.163764l24.46225 0l0 17.983318l-24.46225 0z" fill-rule="evenodd"></path><path fill="#000000" d="m294.46817 20.296675l0 1.625q0 2.125 -1.0 3.359375q-0.796875 0.96875 -2.0 0.96875q-0.578125 0 -1.09375 -0.234375q-0.5 -0.234375 -0.859375 -0.640625q-0.234375 -0.265625 -0.5 -0.828125q-0.265625 -0.578125 -0.390625 -1.046875q-0.171875 -0.671875 -0.171875 -1.578125l0 -1.625q0 -2.125 1.0 -3.359375q0.796875 -0.96875095 2.0 -0.96875095q0.578125 0 1.078125 0.23437595q0.515625 0.234375 0.875 0.640625q0.234375 0.265625 0.5 0.84375q0.265625 0.5625 0.390625 1.03125q0.171875 0.671875 0.171875 1.578125zm-0.65625 0.09375q0 -0.9375 -0.265625 -1.734375q-0.25 -0.796875 -0.578125 -1.28125q-0.203125 -0.265625 -0.515625 -0.46875q-0.4375 -0.265625 -1.0 -0.265625q-1.09375 0 -1.71875 1.125q-0.625 1.125 -0.625 2.625l0 1.4375q0 0.9375 0.25 1.75q0.265625 0.796875 0.609375 1.265625q0.1875 0.265625 0.5 0.46875q0.4375 0.28125 1.0 0.28125q1.09375 0 1.71875 -1.125q0.625 -1.140625 0.625 -2.640625l0 -1.4375z" fill-rule="nonzero"></path><path fill="#ffffff" d="m204.34026 11.163764l24.462234 0l0 17.983318l-24.462234 0z" fill-rule="evenodd"></path><path stroke="#000000" stroke-width="1.0" stroke-linejoin="round" stroke-linecap="butt" d="m204.34026 11.163764l24.462234 0l0 17.983318l-24.462234 0z" fill-rule="evenodd"></path><path fill="#000000" d="m221.15276 20.296675l0 1.625q0 2.125 -1.0 3.359375q-0.796875 0.96875 -2.0 0.96875q-0.578125 0 -1.09375 -0.234375q-0.5 -0.234375 -0.859375 -0.640625q-0.234375 -0.265625 -0.5 -0.828125q-0.265625 -0.578125 -0.390625 -1.046875q-0.171875 -0.671875 -0.171875 -1.578125l0 -1.625q0 -2.125 1.0 -3.359375q0.796875 -0.96875095 2.0 -0.96875095q0.578125 0 1.078125 0.23437595q0.515625 0.234375 0.875 0.640625q0.234375 0.265625 0.5 0.84375q0.265625 0.5625 0.390625 1.03125q0.171875 0.671875 0.171875 1.578125zm-0.65625 0.09375q0 -0.9375 -0.265625 -1.734375q-0.25 -0.796875 -0.578125 -1.28125q-0.203125 -0.265625 -0.515625 -0.46875q-0.4375 -0.265625 -1.0 -0.265625q-1.09375 0 -1.71875 1.125q-0.625 1.125 -0.625 2.625l0 1.4375q0 0.9375 0.25 1.75q0.265625 0.796875 0.609375 1.265625q0.1875 0.265625 0.5 0.46875q0.4375 0.28125 1.0 0.28125q1.09375 0 1.71875 -1.125q0.625 -1.140625 0.625 -2.640625l0 -1.4375z" fill-rule="nonzero"></path><path fill="#ffffff" d="m228.80249 11.163764l24.462234 0l0 17.983318l-24.462234 0z" fill-rule="evenodd"></path><path stroke="#000000" stroke-width="1.0" stroke-linejoin="round" stroke-linecap="butt" d="m228.80249 11.163764l24.462234 0l0 17.983318l-24.462234 0z" fill-rule="evenodd"></path><path fill="#000000" d="m245.61499 20.296675l0 1.625q0 2.125 -1.0 3.359375q-0.796875 0.96875 -2.0 0.96875q-0.578125 0 -1.09375 -0.234375q-0.5 -0.234375 -0.859375 -0.640625q-0.234375 -0.265625 -0.5 -0.828125q-0.265625 -0.578125 -0.390625 -1.046875q-0.171875 -0.671875 -0.171875 -1.578125l0 -1.625q0 -2.125 1.0 -3.359375q0.796875 -0.96875095 2.0 -0.96875095q0.578125 0 1.078125 0.23437595q0.515625 0.234375 0.875 0.640625q0.234375 0.265625 0.5 0.84375q0.265625 0.5625 0.390625 1.03125q0.171875 0.671875 0.171875 1.578125zm-0.65625 0.09375q0 -0.9375 -0.265625 -1.734375q-0.25 -0.796875 -0.578125 -1.28125q-0.203125 -0.265625 -0.515625 -0.46875q-0.4375 -0.265625 -1.0 -0.265625q-1.09375 0 -1.71875 1.125q-0.625 1.125 -0.625 2.625l0 1.4375q0 0.9375 0.25 1.75q0.265625 0.796875 0.609375 1.265625q0.1875 0.265625 0.5 0.46875q0.4375 0.28125 1.0 0.28125q1.09375 0 1.71875 -1.125q0.625 -1.140625 0.625 -2.640625l0 -1.4375z" fill-rule="nonzero"></path><path fill="#ffffff" d="m546.52893 11.163764l24.46222 0l0 17.983318l-24.46222 0z" fill-rule="evenodd"></path><path stroke="#000000" stroke-width="1.0" stroke-linejoin="round" stroke-linecap="butt" d="m546.52893 11.163764l24.46222 0l0 17.983318l-24.46222 0z" fill-rule="evenodd"></path><path fill="#000000" d="m563.34143 20.296675l0 1.625q0 2.125 -1.0 3.359375q-0.796875 0.96875 -2.0 0.96875q-0.578125 0 -1.09375 -0.234375q-0.5 -0.234375 -0.859375 -0.640625q-0.234375 -0.265625 -0.5 -0.828125q-0.265625 -0.578125 -0.390625 -1.046875q-0.171875 -0.671875 -0.171875 -1.578125l0 -1.625q0 -2.125 1.0 -3.359375q0.796875 -0.96875095 2.0 -0.96875095q0.578125 0 1.078125 0.23437595q0.515625 0.234375 0.875 0.640625q0.234375 0.265625 0.5 0.84375q0.265625 0.5625 0.390625 1.03125q0.171875 0.671875 0.171875 1.578125zm-0.65625 0.09375q0 -0.9375 -0.265625 -1.734375q-0.25 -0.796875 -0.578125 -1.28125q-0.203125 -0.265625 -0.515625 -0.46875q-0.4375 -0.265625 -1.0 -0.265625q-1.09375 0 -1.71875 1.125q-0.625 1.125 -0.625 2.625l0 1.4375q0 0.9375 0.25 1.75q0.265625 0.796875 0.609375 1.265625q0.1875 0.265625 0.5 0.46875q0.4375 0.28125 1.0 0.28125q1.09375 0 1.71875 -1.125q0.625 -1.140625 0.625 -2.640625l0 -1.4375z" fill-rule="nonzero"></path><path fill="#ffffff" d="m570.99115 11.163764l24.46222 0l0 17.983318l-24.46222 0z" fill-rule="evenodd"></path><path stroke="#000000" stroke-width="1.0" stroke-linejoin="round" stroke-linecap="butt" d="m570.99115 11.163764l24.46222 0l0 17.983318l-24.46222 0z" fill-rule="evenodd"></path><path fill="#000000" d="m587.80365 20.296675l0 1.625q0 2.125 -1.0 3.359375q-0.796875 0.96875 -2.0 0.96875q-0.578125 0 -1.09375 -0.234375q-0.5 -0.234375 -0.859375 -0.640625q-0.234375 -0.265625 -0.5 -0.828125q-0.265625 -0.578125 -0.390625 -1.046875q-0.171875 -0.671875 -0.171875 -1.578125l0 -1.625q0 -2.125 1.0 -3.359375q0.796875 -0.96875095 2.0 -0.96875095q0.578125 0 1.078125 0.23437595q0.515625 0.234375 0.875 0.640625q0.234375 0.265625 0.5 0.84375q0.265625 0.5625 0.390625 1.03125q0.171875 0.671875 0.171875 1.578125zm-0.65625 0.09375q0 -0.9375 -0.265625 -1.734375q-0.25 -0.796875 -0.578125 -1.28125q-0.203125 -0.265625 -0.515625 -0.46875q-0.4375 -0.265625 -1.0 -0.265625q-1.09375 0 -1.71875 1.125q-0.625 1.125 -0.625 2.625l0 1.4375q0 0.9375 0.25 1.75q0.265625 0.796875 0.609375 1.265625q0.1875 0.265625 0.5 0.46875q0.4375 0.28125 1.0 0.28125q1.09375 0 1.71875 -1.125q0.625 -1.140625 0.625 -2.640625l0 -1.4375z" fill-rule="nonzero"></path><path fill="#ffffff" d="m497.67572 11.163764l24.46222 0l0 17.983318l-24.46222 0z" fill-rule="evenodd"></path><path stroke="#000000" stroke-width="1.0" stroke-linejoin="round" stroke-linecap="butt" d="m497.67572 11.163764l24.46222 0l0 17.983318l-24.46222 0z" fill-rule="evenodd"></path><path fill="#000000" d="m514.4882 20.296675l0 1.625q0 2.125 -1.0 3.359375q-0.796875 0.96875 -2.0 0.96875q-0.578125 0 -1.09375 -0.234375q-0.5 -0.234375 -0.859375 -0.640625q-0.234375 -0.265625 -0.5 -0.828125q-0.265625 -0.578125 -0.390625 -1.046875q-0.171875 -0.671875 -0.171875 -1.578125l0 -1.625q0 -2.125 1.0 -3.359375q0.796875 -0.96875095 2.0 -0.96875095q0.578125 0 1.078125 0.23437595q0.515625 0.234375 0.875 0.640625q0.234375 0.265625 0.5 0.84375q0.265625 0.5625 0.390625 1.03125q0.171875 0.671875 0.171875 1.578125zm-0.65625 0.09375q0 -0.9375 -0.265625 -1.734375q-0.25 -0.796875 -0.578125 -1.28125q-0.203125 -0.265625 -0.515625 -0.46875q-0.4375 -0.265625 -1.0 -0.265625q-1.09375 0 -1.71875 1.125q-0.625 1.125 -0.625 2.625l0 1.4375q0 0.9375 0.25 1.75q0.265625 0.796875 0.609375 1.265625q0.1875 0.265625 0.5 0.46875q0.4375 0.28125 1.0 0.28125q1.09375 0 1.71875 -1.125q0.625 -1.140625 0.625 -2.640625l0 -1.4375z" fill-rule="nonzero"></path><path fill="#ffffff" d="m522.13794 11.163764l24.46228 0l0 17.983318l-24.46228 0z" fill-rule="evenodd"></path><path stroke="#000000" stroke-width="1.0" stroke-linejoin="round" stroke-linecap="butt" d="m522.13794 11.163764l24.46228 0l0 17.983318l-24.46228 0z" fill-rule="evenodd"></path><path fill="#000000" d="m536.26294 16.077925l0 9.28125l2.25 0q0.234375 0 0.328125 0.09375q0.109375 0.078125 0.109375 0.234375q0 0.140625 -0.109375 0.234375q-0.09375 0.09375 -0.328125 0.09375l-5.15625 0q-0.234375 0 -0.34375 -0.09375q-0.09375 -0.09375 -0.09375 -0.234375q0 -0.15625 0.09375 -0.234375q0.109375 -0.09375 0.34375 -0.09375l2.25 0l0 -8.375l-2.140625 0.671875q-0.15625 0.046875 -0.21875 0.046875q-0.125 0 -0.21875 -0.09375q-0.09375 -0.109375 -0.09375 -0.234375q0 -0.125 0.078125 -0.21875q0.0625 -0.0625 0.25 -0.140625l3.0 -0.9375z" fill-rule="nonzero"></path><path fill="#ffffff" d="m448.82254 11.163764l24.46222 0l0 17.983318l-24.46222 0z" fill-rule="evenodd"></path><path stroke="#000000" stroke-width="1.0" stroke-linejoin="round" stroke-linecap="butt" d="m448.82254 11.163764l24.46222 0l0 17.983318l-24.46222 0z" fill-rule="evenodd"></path><path fill="#000000" d="m465.63504 20.296675l0 1.625q0 2.125 -1.0 3.359375q-0.796875 0.96875 -2.0 0.96875q-0.578125 0 -1.09375 -0.234375q-0.5 -0.234375 -0.859375 -0.640625q-0.234375 -0.265625 -0.5 -0.828125q-0.265625 -0.578125 -0.390625 -1.046875q-0.171875 -0.671875 -0.171875 -1.578125l0 -1.625q0 -2.125 1.0 -3.359375q0.796875 -0.96875095 2.0 -0.96875095q0.578125 0 1.078125 0.23437595q0.515625 0.234375 0.875 0.640625q0.234375 0.265625 0.5 0.84375q0.265625 0.5625 0.390625 1.03125q0.171875 0.671875 0.171875 1.578125zm-0.65625 0.09375q0 -0.9375 -0.265625 -1.734375q-0.25 -0.796875 -0.578125 -1.28125q-0.203125 -0.265625 -0.515625 -0.46875q-0.4375 -0.265625 -1.0 -0.265625q-1.09375 0 -1.71875 1.125q-0.625 1.125 -0.625 2.625l0 1.4375q0 0.9375 0.25 1.75q0.265625 0.796875 0.609375 1.265625q0.1875 0.265625 0.5 0.46875q0.4375 0.28125 1.0 0.28125q1.09375 0 1.71875 -1.125q0.625 -1.140625 0.625 -2.640625l0 -1.4375z" fill-rule="nonzero"></path><path fill="#ffffff" d="m473.28476 11.163764l24.46225 0l0 17.983318l-24.46225 0z" fill-rule="evenodd"></path><path stroke="#000000" stroke-width="1.0" stroke-linejoin="round" stroke-linecap="butt" d="m473.28476 11.163764l24.46225 0l0 17.983318l-24.46225 0z" fill-rule="evenodd"></path><path fill="#000000" d="m490.09726 20.296675l0 1.625q0 2.125 -1.0 3.359375q-0.796875 0.96875 -2.0 0.96875q-0.578125 0 -1.09375 -0.234375q-0.5 -0.234375 -0.859375 -0.640625q-0.234375 -0.265625 -0.5 -0.828125q-0.265625 -0.578125 -0.390625 -1.046875q-0.171875 -0.671875 -0.171875 -1.578125l0 -1.625q0 -2.125 1.0 -3.359375q0.796875 -0.96875095 2.0 -0.96875095q0.578125 0 1.078125 0.23437595q0.515625 0.234375 0.875 0.640625q0.234375 0.265625 0.5 0.84375q0.265625 0.5625 0.390625 1.03125q0.171875 0.671875 0.171875 1.578125zm-0.65625 0.09375q0 -0.9375 -0.265625 -1.734375q-0.25 -0.796875 -0.578125 -1.28125q-0.203125 -0.265625 -0.515625 -0.46875q-0.4375 -0.265625 -1.0 -0.265625q-1.09375 0 -1.71875 1.125q-0.625 1.125 -0.625 2.625l0 1.4375q0 0.9375 0.25 1.75q0.265625 0.796875 0.609375 1.265625q0.1875 0.265625 0.5 0.46875q0.4375 0.28125 1.0 0.28125q1.09375 0 1.71875 -1.125q0.625 -1.140625 0.625 -2.640625l0 -1.4375z" fill-rule="nonzero"></path><path fill="#ffffff" d="m399.96936 11.163764l24.46222 0l0 17.983318l-24.46222 0z" fill-rule="evenodd"></path><path stroke="#000000" stroke-width="1.0" stroke-linejoin="round" stroke-linecap="butt" d="m399.96936 11.163764l24.46222 0l0 17.983318l-24.46222 0z" fill-rule="evenodd"></path><path fill="#000000" d="m416.78186 20.296675l0 1.625q0 2.125 -1.0 3.359375q-0.796875 0.96875 -2.0 0.96875q-0.578125 0 -1.09375 -0.234375q-0.5 -0.234375 -0.859375 -0.640625q-0.234375 -0.265625 -0.5 -0.828125q-0.265625 -0.578125 -0.390625 -1.046875q-0.171875 -0.671875 -0.171875 -1.578125l0 -1.625q0 -2.125 1.0 -3.359375q0.796875 -0.96875095 2.0 -0.96875095q0.578125 0 1.078125 0.23437595q0.515625 0.234375 0.875 0.640625q0.234375 0.265625 0.5 0.84375q0.265625 0.5625 0.390625 1.03125q0.171875 0.671875 0.171875 1.578125zm-0.65625 0.09375q0 -0.9375 -0.265625 -1.734375q-0.25 -0.796875 -0.578125 -1.28125q-0.203125 -0.265625 -0.515625 -0.46875q-0.4375 -0.265625 -1.0 -0.265625q-1.09375 0 -1.71875 1.125q-0.625 1.125 -0.625 2.625l0 1.4375q0 0.9375 0.25 1.75q0.265625 0.796875 0.609375 1.265625q0.1875 0.265625 0.5 0.46875q0.4375 0.28125 1.0 0.28125q1.09375 0 1.71875 -1.125q0.625 -1.140625 0.625 -2.640625l0 -1.4375z" fill-rule="nonzero"></path><path fill="#ffffff" d="m424.43158 11.163764l24.46225 0l0 17.983318l-24.46225 0z" fill-rule="evenodd"></path><path stroke="#000000" stroke-width="1.0" stroke-linejoin="round" stroke-linecap="butt" d="m424.43158 11.163764l24.46225 0l0 17.983318l-24.46225 0z" fill-rule="evenodd"></path><path fill="#000000" d="m441.24408 20.296675l0 1.625q0 2.125 -1.0 3.359375q-0.796875 0.96875 -2.0 0.96875q-0.578125 0 -1.09375 -0.234375q-0.5 -0.234375 -0.859375 -0.640625q-0.234375 -0.265625 -0.5 -0.828125q-0.265625 -0.578125 -0.390625 -1.046875q-0.171875 -0.671875 -0.171875 -1.578125l0 -1.625q0 -2.125 1.0 -3.359375q0.796875 -0.96875095 2.0 -0.96875095q0.578125 0 1.078125 0.23437595q0.515625 0.234375 0.875 0.640625q0.234375 0.265625 0.5 0.84375q0.265625 0.5625 0.390625 1.03125q0.171875 0.671875 0.171875 1.578125zm-0.65625 0.09375q0 -0.9375 -0.265625 -1.734375q-0.25 -0.796875 -0.578125 -1.28125q-0.203125 -0.265625 -0.515625 -0.46875q-0.4375 -0.265625 -1.0 -0.265625q-1.09375 0 -1.71875 1.125q-0.625 1.125 -0.625 2.625l0 1.4375q0 0.9375 0.25 1.75q0.265625 0.796875 0.609375 1.265625q0.1875 0.265625 0.5 0.46875q0.4375 0.28125 1.0 0.28125q1.09375 0 1.71875 -1.125q0.625 -1.140625 0.625 -2.640625l0 -1.4375z" fill-rule="nonzero"></path><path fill="#ffffff" d="m742.15704 11.163764l24.46222 0l0 17.983318l-24.46222 0z" fill-rule="evenodd"></path><path stroke="#000000" stroke-width="1.0" stroke-linejoin="round" stroke-linecap="butt" d="m742.15704 11.163764l24.46222 0l0 17.983318l-24.46222 0z" fill-rule="evenodd"></path><path fill="#000000" d="m758.96954 20.296675l0 1.625q0 2.125 -1.0 3.359375q-0.796875 0.96875 -2.0 0.96875q-0.578125 0 -1.09375 -0.234375q-0.5 -0.234375 -0.859375 -0.640625q-0.234375 -0.265625 -0.5 -0.828125q-0.265625 -0.578125 -0.390625 -1.046875q-0.171875 -0.671875 -0.171875 -1.578125l0 -1.625q0 -2.125 1.0 -3.359375q0.796875 -0.96875095 2.0 -0.96875095q0.578125 0 1.078125 0.23437595q0.515625 0.234375 0.875 0.640625q0.234375 0.265625 0.5 0.84375q0.265625 0.5625 0.390625 1.03125q0.171875 0.671875 0.171875 1.578125zm-0.65625 0.09375q0 -0.9375 -0.265625 -1.734375q-0.25 -0.796875 -0.578125 -1.28125q-0.203125 -0.265625 -0.515625 -0.46875q-0.4375 -0.265625 -1.0 -0.265625q-1.09375 0 -1.71875 1.125q-0.625 1.125 -0.625 2.625l0 1.4375q0 0.9375 0.25 1.75q0.265625 0.796875 0.609375 1.265625q0.1875 0.265625 0.5 0.46875q0.4375 0.28125 1.0 0.28125q1.09375 0 1.71875 -1.125q0.625 -1.140625 0.625 -2.640625l0 -1.4375z" fill-rule="nonzero"></path><path fill="#ffffff" d="m766.61926 11.163764l24.46222 0l0 17.983318l-24.46222 0z" fill-rule="evenodd"></path><path stroke="#000000" stroke-width="1.0" stroke-linejoin="round" stroke-linecap="butt" d="m766.61926 11.163764l24.46222 0l0 17.983318l-24.46222 0z" fill-rule="evenodd"></path><path fill="#000000" d="m783.43176 20.296675l0 1.625q0 2.125 -1.0 3.359375q-0.796875 0.96875 -2.0 0.96875q-0.578125 0 -1.09375 -0.234375q-0.5 -0.234375 -0.859375 -0.640625q-0.234375 -0.265625 -0.5 -0.828125q-0.265625 -0.578125 -0.390625 -1.046875q-0.171875 -0.671875 -0.171875 -1.578125l0 -1.625q0 -2.125 1.0 -3.359375q0.796875 -0.96875095 2.0 -0.96875095q0.578125 0 1.078125 0.23437595q0.515625 0.234375 0.875 0.640625q0.234375 0.265625 0.5 0.84375q0.265625 0.5625 0.390625 1.03125q0.171875 0.671875 0.171875 1.578125zm-0.65625 0.09375q0 -0.9375 -0.265625 -1.734375q-0.25 -0.796875 -0.578125 -1.28125q-0.203125 -0.265625 -0.515625 -0.46875q-0.4375 -0.265625 -1.0 -0.265625q-1.09375 0 -1.71875 1.125q-0.625 1.125 -0.625 2.625l0 1.4375q0 0.9375 0.25 1.75q0.265625 0.796875 0.609375 1.265625q0.1875 0.265625 0.5 0.46875q0.4375 0.28125 1.0 0.28125q1.09375 0 1.71875 -1.125q0.625 -1.140625 0.625 -2.640625l0 -1.4375z" fill-rule="nonzero"></path><path fill="#ffffff" d="m693.30383 11.163764l24.46222 0l0 17.983318l-24.46222 0z" fill-rule="evenodd"></path><path stroke="#000000" stroke-width="1.0" stroke-linejoin="round" stroke-linecap="butt" d="m693.30383 11.163764l24.46222 0l0 17.983318l-24.46222 0z" fill-rule="evenodd"></path><path fill="#000000" d="m710.11633 20.296675l0 1.625q0 2.125 -1.0 3.359375q-0.796875 0.96875 -2.0 0.96875q-0.578125 0 -1.09375 -0.234375q-0.5 -0.234375 -0.859375 -0.640625q-0.234375 -0.265625 -0.5 -0.828125q-0.265625 -0.578125 -0.390625 -1.046875q-0.171875 -0.671875 -0.171875 -1.578125l0 -1.625q0 -2.125 1.0 -3.359375q0.796875 -0.96875095 2.0 -0.96875095q0.578125 0 1.078125 0.23437595q0.515625 0.234375 0.875 0.640625q0.234375 0.265625 0.5 0.84375q0.265625 0.5625 0.390625 1.03125q0.171875 0.671875 0.171875 1.578125zm-0.65625 0.09375q0 -0.9375 -0.265625 -1.734375q-0.25 -0.796875 -0.578125 -1.28125q-0.203125 -0.265625 -0.515625 -0.46875q-0.4375 -0.265625 -1.0 -0.265625q-1.09375 0 -1.71875 1.125q-0.625 1.125 -0.625 2.625l0 1.4375q0 0.9375 0.25 1.75q0.265625 0.796875 0.609375 1.265625q0.1875 0.265625 0.5 0.46875q0.4375 0.28125 1.0 0.28125q1.09375 0 1.71875 -1.125q0.625 -1.140625 0.625 -2.640625l0 -1.4375z" fill-rule="nonzero"></path><path fill="#ffffff" d="m717.76605 11.163764l24.46228 0l0 17.983318l-24.46228 0z" fill-rule="evenodd"></path><path stroke="#000000" stroke-width="1.0" stroke-linejoin="round" stroke-linecap="butt" d="m717.76605 11.163764l24.46228 0l0 17.983318l-24.46228 0z" fill-rule="evenodd"></path><path fill="#000000" d="m734.57855 20.296675l0 1.625q0 2.125 -1.0 3.359375q-0.796875 0.96875 -2.0 0.96875q-0.578125 0 -1.09375 -0.234375q-0.5 -0.234375 -0.859375 -0.640625q-0.234375 -0.265625 -0.5 -0.828125q-0.265625 -0.578125 -0.390625 -1.046875q-0.171875 -0.671875 -0.171875 -1.578125l0 -1.625q0 -2.125 1.0 -3.359375q0.796875 -0.96875095 2.0 -0.96875095q0.578125 0 1.078125 0.23437595q0.515625 0.234375 0.875 0.640625q0.234375 0.265625 0.5 0.84375q0.265625 0.5625 0.390625 1.03125q0.171875 0.671875 0.171875 1.578125zm-0.65625 0.09375q0 -0.9375 -0.265625 -1.734375q-0.25 -0.796875 -0.578125 -1.28125q-0.203125 -0.265625 -0.515625 -0.46875q-0.4375 -0.265625 -1.0 -0.265625q-1.09375 0 -1.71875 1.125q-0.625 1.125 -0.625 2.625l0 1.4375q0 0.9375 0.25 1.75q0.265625 0.796875 0.609375 1.265625q0.1875 0.265625 0.5 0.46875q0.4375 0.28125 1.0 0.28125q1.09375 0 1.71875 -1.125q0.625 -1.140625 0.625 -2.640625l0 -1.4375z" fill-rule="nonzero"></path><path fill="#ffffff" d="m644.4507 11.163764l24.46222 0l0 17.983318l-24.46222 0z" fill-rule="evenodd"></path><path stroke="#000000" stroke-width="1.0" stroke-linejoin="round" stroke-linecap="butt" d="m644.4507 11.163764l24.46222 0l0 17.983318l-24.46222 0z" fill-rule="evenodd"></path><path fill="#000000" d="m661.2632 20.296675l0 1.625q0 2.125 -1.0 3.359375q-0.796875 0.96875 -2.0 0.96875q-0.578125 0 -1.09375 -0.234375q-0.5 -0.234375 -0.859375 -0.640625q-0.234375 -0.265625 -0.5 -0.828125q-0.265625 -0.578125 -0.390625 -1.046875q-0.171875 -0.671875 -0.171875 -1.578125l0 -1.625q0 -2.125 1.0 -3.359375q0.796875 -0.96875095 2.0 -0.96875095q0.578125 0 1.078125 0.23437595q0.515625 0.234375 0.875 0.640625q0.234375 0.265625 0.5 0.84375q0.265625 0.5625 0.390625 1.03125q0.171875 0.671875 0.171875 1.578125zm-0.65625 0.09375q0 -0.9375 -0.265625 -1.734375q-0.25 -0.796875 -0.578125 -1.28125q-0.203125 -0.265625 -0.515625 -0.46875q-0.4375 -0.265625 -1.0 -0.265625q-1.09375 0 -1.71875 1.125q-0.625 1.125 -0.625 2.625l0 1.4375q0 0.9375 0.25 1.75q0.265625 0.796875 0.609375 1.265625q0.1875 0.265625 0.5 0.46875q0.4375 0.28125 1.0 0.28125q1.09375 0 1.71875 -1.125q0.625 -1.140625 0.625 -2.640625l0 -1.4375z" fill-rule="nonzero"></path><path fill="#ffffff" d="m668.9129 11.163764l24.46222 0l0 17.983318l-24.46222 0z" fill-rule="evenodd"></path><path stroke="#000000" stroke-width="1.0" stroke-linejoin="round" stroke-linecap="butt" d="m668.9129 11.163764l24.46222 0l0 17.983318l-24.46222 0z" fill-rule="evenodd"></path><path fill="#000000" d="m685.7254 20.296675l0 1.625q0 2.125 -1.0 3.359375q-0.796875 0.96875 -2.0 0.96875q-0.578125 0 -1.09375 -0.234375q-0.5 -0.234375 -0.859375 -0.640625q-0.234375 -0.265625 -0.5 -0.828125q-0.265625 -0.578125 -0.390625 -1.046875q-0.171875 -0.671875 -0.171875 -1.578125l0 -1.625q0 -2.125 1.0 -3.359375q0.796875 -0.96875095 2.0 -0.96875095q0.578125 0 1.078125 0.23437595q0.515625 0.234375 0.875 0.640625q0.234375 0.265625 0.5 0.84375q0.265625 0.5625 0.390625 1.03125q0.171875 0.671875 0.171875 1.578125zm-0.65625 0.09375q0 -0.9375 -0.265625 -1.734375q-0.25 -0.796875 -0.578125 -1.28125q-0.203125 -0.265625 -0.515625 -0.46875q-0.4375 -0.265625 -1.0 -0.265625q-1.09375 0 -1.71875 1.125q-0.625 1.125 -0.625 2.625l0 1.4375q0 0.9375 0.25 1.75q0.265625 0.796875 0.609375 1.265625q0.1875 0.265625 0.5 0.46875q0.4375 0.28125 1.0 0.28125q1.09375 0 1.71875 -1.125q0.625 -1.140625 0.625 -2.640625l0 -1.4375z" fill-rule="nonzero"></path><path fill="#ffffff" d="m595.5975 11.163764l24.46222 0l0 17.983318l-24.46222 0z" fill-rule="evenodd"></path><path stroke="#000000" stroke-width="1.0" stroke-linejoin="round" stroke-linecap="butt" d="m595.5975 11.163764l24.46222 0l0 17.983318l-24.46222 0z" fill-rule="evenodd"></path><path fill="#000000" d="m612.41 20.296675l0 1.625q0 2.125 -1.0 3.359375q-0.796875 0.96875 -2.0 0.96875q-0.578125 0 -1.09375 -0.234375q-0.5 -0.234375 -0.859375 -0.640625q-0.234375 -0.265625 -0.5 -0.828125q-0.265625 -0.578125 -0.390625 -1.046875q-0.171875 -0.671875 -0.171875 -1.578125l0 -1.625q0 -2.125 1.0 -3.359375q0.796875 -0.96875095 2.0 -0.96875095q0.578125 0 1.078125 0.23437595q0.515625 0.234375 0.875 0.640625q0.234375 0.265625 0.5 0.84375q0.265625 0.5625 0.390625 1.03125q0.171875 0.671875 0.171875 1.578125zm-0.65625 0.09375q0 -0.9375 -0.265625 -1.734375q-0.25 -0.796875 -0.578125 -1.28125q-0.203125 -0.265625 -0.515625 -0.46875q-0.4375 -0.265625 -1.0 -0.265625q-1.09375 0 -1.71875 1.125q-0.625 1.125 -0.625 2.625l0 1.4375q0 0.9375 0.25 1.75q0.265625 0.796875 0.609375 1.265625q0.1875 0.265625 0.5 0.46875q0.4375 0.28125 1.0 0.28125q1.09375 0 1.71875 -1.125q0.625 -1.140625 0.625 -2.640625l0 -1.4375z" fill-rule="nonzero"></path><path fill="#ffffff" d="m620.0597 11.163764l24.46222 0l0 17.983318l-24.46222 0z" fill-rule="evenodd"></path><path stroke="#000000" stroke-width="1.0" stroke-linejoin="round" stroke-linecap="butt" d="m620.0597 11.163764l24.46222 0l0 17.983318l-24.46222 0z" fill-rule="evenodd"></path><path fill="#000000" d="m636.8722 20.296675l0 1.625q0 2.125 -1.0 3.359375q-0.796875 0.96875 -2.0 0.96875q-0.578125 0 -1.09375 -0.234375q-0.5 -0.234375 -0.859375 -0.640625q-0.234375 -0.265625 -0.5 -0.828125q-0.265625 -0.578125 -0.390625 -1.046875q-0.171875 -0.671875 -0.171875 -1.578125l0 -1.625q0 -2.125 1.0 -3.359375q0.796875 -0.96875095 2.0 -0.96875095q0.578125 0 1.078125 0.23437595q0.515625 0.234375 0.875 0.640625q0.234375 0.265625 0.5 0.84375q0.265625 0.5625 0.390625 1.03125q0.171875 0.671875 0.171875 1.578125zm-0.65625 0.09375q0 -0.9375 -0.265625 -1.734375q-0.25 -0.796875 -0.578125 -1.28125q-0.203125 -0.265625 -0.515625 -0.46875q-0.4375 -0.265625 -1.0 -0.265625q-1.09375 0 -1.71875 1.125q-0.625 1.125 -0.625 2.625l0 1.4375q0 0.9375 0.25 1.75q0.265625 0.796875 0.609375 1.265625q0.1875 0.265625 0.5 0.46875q0.4375 0.28125 1.0 0.28125q1.09375 0 1.71875 -1.125q0.625 -1.140625 0.625 -2.640625l0 -1.4375z" fill-rule="nonzero"></path><path fill="#000000" fill-opacity="0.0" d="m404.94226 62.485565l87.37009 0l0 29.574799l-87.37009 0z" fill-rule="evenodd"></path><path fill="#a61c00" d="m420.6454 72.94797l0 1.125l-6.296875 0q-0.015625 -0.421875 0.140625 -0.8125q0.234375 -0.640625 0.765625 -1.265625q0.53125 -0.625 1.53125 -1.453125q1.5625 -1.265625 2.109375 -2.015625q0.546875 -0.75 0.546875 -1.40625q0 -0.703125 -0.5 -1.171875q-0.5 -0.484375 -1.296875 -0.484375q-0.859375 0 -1.375 0.515625q-0.5 0.5 -0.5 1.390625l-1.203125 -0.109375q0.125 -1.359375 0.921875 -2.0625q0.8125 -0.703125 2.171875 -0.703125q1.375 0 2.171875 0.765625q0.8125 0.75 0.8125 1.875q0 0.578125 -0.234375 1.140625q-0.234375 0.546875 -0.78125 1.15625q-0.546875 0.609375 -1.8125 1.671875q-1.046875 0.890625 -1.359375 1.21875q-0.296875 0.3125 -0.484375 0.625l4.671875 0zm1.4437256 -1.078125l1.125 -0.109375q0.140625 0.796875 0.546875 1.15625q0.40625 0.359375 1.03125 0.359375q0.53125 0 0.9375 -0.25q0.421875 -0.25 0.671875 -0.65625q0.265625 -0.421875 0.4375 -1.125q0.171875 -0.703125 0.171875 -1.421875q0 -0.078125 0 -0.234375q-0.359375 0.546875 -0.96875 0.90625q-0.59375 0.34375 -1.3125 0.34375q-1.1875 0 -2.015625 -0.859375q-0.8125 -0.859375 -0.8125 -2.265625q0 -1.453125 0.859375 -2.328125q0.859375 -0.890625 2.140625 -0.890625q0.9375 0 1.703125 0.5q0.78125 0.5 1.171875 1.4375q0.40625 0.921875 0.40625 2.671875q0 1.828125 -0.40625 2.921875q-0.390625 1.078125 -1.171875 1.640625q-0.78125 0.5625 -1.84375 0.5625q-1.109375 0 -1.828125 -0.609375q-0.703125 -0.625 -0.84375 -1.75zm4.796875 -4.21875q0 -1.0 -0.546875 -1.59375q-0.53125 -0.59375 -1.28125 -0.59375q-0.78125 0 -1.375 0.640625q-0.578125 0.640625 -0.578125 1.65625q0 0.90625 0.546875 1.484375q0.5625 0.5625 1.359375 0.5625q0.828125 0 1.34375 -0.5625q0.53125 -0.578125 0.53125 -1.59375zm8.381073 6.421875l-2.625 -6.90625l1.234375 0l1.484375 4.140625q0.234375 0.65625 0.4375 1.390625q0.15625 -0.546875 0.4375 -1.3125l1.53125 -4.21875l1.21875 0l-2.625 6.90625l-1.09375 0zm9.4765625 -2.21875l1.203125 0.140625q-0.28125 1.0625 -1.0625 1.65625q-0.765625 0.578125 -1.96875 0.578125q-1.515625 0 -2.40625 -0.9375q-0.890625 -0.9375 -0.890625 -2.609375q0 -1.75 0.890625 -2.703125q0.90625 -0.96875 2.34375 -0.96875q1.390625 0 2.265625 0.9375q0.875 0.9375 0.875 2.65625q0 0.109375 0 0.3125l-5.15625 0q0.0625 1.140625 0.640625 1.75q0.578125 0.59375 1.4375 0.59375q0.65625 0 1.109375 -0.328125q0.453125 -0.34375 0.71875 -1.078125zm-3.84375 -1.90625l3.859375 0q-0.078125 -0.859375 -0.4375 -1.296875q-0.5625 -0.6875 -1.453125 -0.6875q-0.8125 0 -1.359375 0.546875q-0.546875 0.53125 -0.609375 1.4375zm6.5062256 4.125l0 -6.90625l1.0625 0l0 1.046875q0.40625 -0.734375 0.734375 -0.96875q0.34375 -0.234375 0.765625 -0.234375q0.59375 0 1.203125 0.375l-0.40625 1.078125q-0.4375 -0.25 -0.859375 -0.25q-0.390625 0 -0.703125 0.234375q-0.296875 0.234375 -0.421875 0.640625q-0.203125 0.625 -0.203125 1.359375l0 3.625l-1.171875 0zm3.98526 -2.0625l1.15625 -0.1875q0.109375 0.703125 0.546875 1.078125q0.453125 0.359375 1.25 0.359375q0.8125 0 1.203125 -0.328125q0.390625 -0.328125 0.390625 -0.765625q0 -0.390625 -0.359375 -0.625q-0.234375 -0.15625 -1.1875 -0.390625q-1.296875 -0.328125 -1.796875 -0.5625q-0.484375 -0.25 -0.75 -0.65625q-0.25 -0.421875 -0.25 -0.9375q0 -0.453125 0.203125 -0.84375q0.21875 -0.40625 0.578125 -0.671875q0.28125 -0.1875 0.75 -0.328125q0.46875 -0.140625 1.015625 -0.140625q0.8125 0 1.421875 0.234375q0.609375 0.234375 0.90625 0.640625q0.296875 0.390625 0.40625 1.0625l-1.140625 0.15625q-0.078125 -0.53125 -0.453125 -0.828125q-0.375 -0.3125 -1.0625 -0.3125q-0.8125 0 -1.15625 0.265625q-0.34375 0.265625 -0.34375 0.625q0 0.234375 0.140625 0.421875q0.15625 0.1875 0.453125 0.3125q0.171875 0.0625 1.03125 0.296875q1.25 0.328125 1.734375 0.546875q0.5 0.203125 0.78125 0.609375q0.28125 0.40625 0.28125 1.0q0 0.59375 -0.34375 1.109375q-0.34375 0.515625 -1.0 0.796875q-0.640625 0.28125 -1.453125 0.28125q-1.34375 0 -2.046875 -0.5625q-0.703125 -0.5625 -0.90625 -1.65625zm7.1484375 -6.125l0 -1.359375l1.171875 0l0 1.359375l-1.171875 0zm0 8.1875l0 -6.90625l1.171875 0l0 6.90625l-1.171875 0zm2.507965 -3.453125q0 -1.921875 1.078125 -2.84375q0.890625 -0.765625 2.171875 -0.765625q1.421875 0 2.328125 0.9375q0.90625 0.921875 0.90625 2.578125q0 1.328125 -0.40625 2.09375q-0.390625 0.765625 -1.15625 1.1875q-0.765625 0.421875 -1.671875 0.421875q-1.453125 0 -2.359375 -0.921875q-0.890625 -0.9375 -0.890625 -2.6875zm1.203125 0q0 1.328125 0.578125 1.984375q0.59375 0.65625 1.46875 0.65625q0.875 0 1.453125 -0.65625q0.578125 -0.671875 0.578125 -2.03125q0 -1.28125 -0.59375 -1.9375q-0.578125 -0.65625 -1.4375 -0.65625q-0.875 0 -1.46875 0.65625q-0.578125 0.65625 -0.578125 1.984375zm6.6468506 3.453125l0 -6.90625l1.0625 0l0 0.984375q0.75 -1.140625 2.1875 -1.140625q0.625 0 1.15625 0.21875q0.53125 0.21875 0.78125 0.59375q0.265625 0.359375 0.375 0.859375q0.0625 0.328125 0.0625 1.140625l0 4.25l-1.171875 0l0 -4.203125q0 -0.71875 -0.140625 -1.0625q-0.140625 -0.359375 -0.484375 -0.5625q-0.34375 -0.21875 -0.8125 -0.21875q-0.75 0 -1.296875 0.46875q-0.546875 0.46875 -0.546875 1.796875l0 3.78125l-1.171875 0z" fill-rule="nonzero"></path><path fill="#a61c00" d="m415.8954 90.07297l-1.078125 0l0 -9.546875l1.171875 0l0 3.40625q0.734375 -0.921875 1.890625 -0.921875q0.640625 0 1.203125 0.265625q0.578125 0.25 0.9375 0.71875q0.375 0.453125 0.578125 1.109375q0.203125 0.65625 0.203125 1.40625q0 1.78125 -0.875 2.75q-0.875 0.96875 -2.109375 0.96875q-1.21875 0 -1.921875 -1.015625l0 0.859375zm0 -3.5q0 1.234375 0.328125 1.78125q0.5625 0.90625 1.5 0.90625q0.765625 0 1.328125 -0.65625q0.5625 -0.671875 0.5625 -2.0q0 -1.34375 -0.546875 -1.984375q-0.53125 -0.65625 -1.296875 -0.65625q-0.765625 0 -1.328125 0.671875q-0.546875 0.671875 -0.546875 1.9375zm6.3499756 -4.6875l0 -1.359375l1.171875 0l0 1.359375l-1.171875 0zm0 8.1875l0 -6.90625l1.171875 0l0 6.90625l-1.171875 0zm5.507965 -1.046875l0.171875 1.03125q-0.5 0.109375 -0.890625 0.109375q-0.640625 0 -1.0 -0.203125q-0.34375 -0.203125 -0.484375 -0.53125q-0.140625 -0.328125 -0.140625 -1.390625l0 -3.96875l-0.859375 0l0 -0.90625l0.859375 0l0 -1.71875l1.171875 -0.703125l0 2.421875l1.171875 0l0 0.90625l-1.171875 0l0 4.046875q0 0.5 0.046875 0.640625q0.0625 0.140625 0.203125 0.234375q0.140625 0.078125 0.40625 0.078125q0.203125 0 0.515625 -0.046875zm0.6717224 -1.015625l1.15625 -0.1875q0.109375 0.703125 0.546875 1.078125q0.453125 0.359375 1.25 0.359375q0.8125 0 1.203125 -0.328125q0.390625 -0.328125 0.390625 -0.765625q0 -0.390625 -0.359375 -0.625q-0.234375 -0.15625 -1.1875 -0.390625q-1.296875 -0.328125 -1.796875 -0.5625q-0.484375 -0.25 -0.75 -0.65625q-0.25 -0.421875 -0.25 -0.9375q0 -0.453125 0.203125 -0.84375q0.21875 -0.40625 0.578125 -0.671875q0.28125 -0.1875 0.75 -0.328125q0.46875 -0.140625 1.015625 -0.140625q0.8125 0 1.421875 0.234375q0.609375 0.234375 0.90625 0.640625q0.296875 0.390625 0.40625 1.0625l-1.140625 0.15625q-0.078125 -0.53125 -0.453125 -0.828125q-0.375 -0.3125 -1.0625 -0.3125q-0.8125 0 -1.15625 0.265625q-0.34375 0.265625 -0.34375 0.625q0 0.234375 0.140625 0.421875q0.15625 0.1875 0.453125 0.3125q0.171875 0.0625 1.03125 0.296875q1.25 0.328125 1.734375 0.546875q0.5 0.203125 0.78125 0.609375q0.28125 0.40625 0.28125 1.0q0 0.59375 -0.34375 1.109375q-0.34375 0.515625 -1.0 0.796875q-0.640625 0.28125 -1.453125 0.28125q-1.34375 0 -2.046875 -0.5625q-0.703125 -0.5625 -0.90625 -1.65625z" fill-rule="nonzero"></path><path fill="#000000" fill-opacity="0.0" d="m448.6273 62.485565l-12.094482 -20.472443" fill-rule="evenodd"></path><path stroke="#a61c00" stroke-width="1.0" stroke-linejoin="round" stroke-linecap="butt" d="m448.6273 62.485565l-9.042633 -15.306564" fill-rule="evenodd"></path><path fill="#a61c00" stroke="#a61c00" stroke-width="1.0" stroke-linecap="butt" d="m441.00674 46.33886l-3.7303467 -3.06707l0.8861389 4.747345z" fill-rule="evenodd"></path><path fill="#000000" fill-opacity="0.0" d="m791.15485 30.391077l0 0c0 1.5411777 -0.7645874 3.0192356 -2.1256104 4.1090145c-1.3609619 1.0897789 -3.2068481 1.7020073 -5.131592 1.7020073l-340.1156 0c-4.0079956 0 -7.257141 2.6016846 -7.257141 5.8110237l0 0c0 -3.2093391 -3.2491455 -5.8110237 -7.2571716 -5.8110237l-340.1156 0c-4.0080185 0 -7.2571564 -2.6016846 -7.2571564 -5.811022z" fill-rule="evenodd"></path><path fill="#000000" fill-opacity="0.0" d="m791.15485 30.391077l0 0c0 1.5411777 -0.7645874 3.0192356 -2.1256104 4.1090145c-1.3609619 1.0897789 -3.2068481 1.7020073 -5.131592 1.7020073l-340.1156 0c-4.0079956 0 -7.257141 2.6016846 -7.257141 5.8110237l0 0c0 -3.2093391 -3.2491455 -5.8110237 -7.2571716 -5.8110237l-340.1156 0c-4.0080185 0 -7.2571564 -2.6016846 -7.2571564 -5.811022" fill-rule="evenodd"></path><path stroke="#000000" stroke-width="1.0" stroke-linejoin="round" stroke-linecap="butt" d="m791.15485 30.391077l0 0c0 1.5411777 -0.7645874 3.0192356 -2.1256104 4.1090145c-1.3609619 1.0897789 -3.2068481 1.7020073 -5.131592 1.7020073l-340.1156 0c-4.0079956 0 -7.257141 2.6016846 -7.257141 5.8110237l0 0c0 -3.2093391 -3.2491455 -5.8110237 -7.2571716 -5.8110237l-340.1156 0c-4.0080185 0 -7.2571564 -2.6016846 -7.2571564 -5.811022" fill-rule="evenodd"></path><path fill="#000000" fill-opacity="0.0" d="m81.84278 30.391077l0 0c0 1.5411777 -0.7645874 3.0192356 -2.1255722 4.1090145c-1.3609772 1.0897789 -3.2068634 1.7020073 -5.1315765 1.7020073l-21.737663 0c-4.0080147 0 -7.2571526 2.6016846 -7.2571526 5.8110237l0 0c0 -3.2093391 -3.2491417 -5.8110237 -7.2571564 -5.8110237l-21.737658 0c-4.0080166 0 -7.2571554 -2.6016846 -7.2571554 -5.811022z" fill-rule="evenodd"></path><path fill="#000000" fill-opacity="0.0" d="m81.84278 30.391077l0 0c0 1.5411777 -0.7645874 3.0192356 -2.1255722 4.1090145c-1.3609772 1.0897789 -3.2068634 1.7020073 -5.1315765 1.7020073l-21.737663 0c-4.0080147 0 -7.2571526 2.6016846 -7.2571526 5.8110237l0 0c0 -3.2093391 -3.2491417 -5.8110237 -7.2571564 -5.8110237l-21.737658 0c-4.0080166 0 -7.2571554 -2.6016846 -7.2571554 -5.811022" fill-rule="evenodd"></path><path stroke="#000000" stroke-width="1.0" stroke-linejoin="round" stroke-linecap="butt" d="m81.84278 30.391077l0 0c0 1.5411777 -0.7645874 3.0192356 -2.1255722 4.1090145c-1.3609772 1.0897789 -3.2068634 1.7020073 -5.1315765 1.7020073l-21.737663 0c-4.0080147 0 -7.2571526 2.6016846 -7.2571526 5.8110237l0 0c0 -3.2093391 -3.2491417 -5.8110237 -7.2571564 -5.8110237l-21.737658 0c-4.0080166 0 -7.2571554 -2.6016846 -7.2571554 -5.811022" fill-rule="evenodd"></path><path fill="#000000" fill-opacity="0.0" d="m-6.454068 59.2231l87.37008 0l0 36.09449l-87.37008 0z" fill-rule="evenodd"></path><path fill="#a61c00" d="m5.999057 74.07034l0 -8.421875l-3.140625 0l0 -1.125l7.5625 0l0 1.125l-3.15625 0l0 8.421875l-1.265625 0zm5.1257324 -3.453125q0 -1.921875 1.078125 -2.84375q0.890625 -0.765625 2.171875 -0.765625q1.421875 0 2.328124 0.9375q0.90625 0.921875 0.90625 2.578125q0 1.328125 -0.40625 2.09375q-0.390625 0.765625 -1.15625 1.1875q-0.76562405 0.421875 -1.671874 0.421875q-1.453125 0 -2.359375 -0.921875q-0.890625 -0.9375 -0.890625 -2.6875zm1.203125 0q0 1.328125 0.578125 1.984375q0.59375 0.65625 1.46875 0.65625q0.875 0 1.453125 -0.65625q0.57812405 -0.671875 0.57812405 -2.03125q0 -1.28125 -0.59374905 -1.9375q-0.578125 -0.65625 -1.4375 -0.65625q-0.875 0 -1.46875 0.65625q-0.578125 0.65625 -0.578125 1.984375zm6.6468496 6.109375l0 -9.5625l1.078125 0l0 0.890625q0.375 -0.53125 0.84375 -0.78125q0.484375 -0.265625 1.15625 -0.265625q0.875 0 1.546875 0.453125q0.6875 0.453125 1.03125 1.28125q0.34375 0.828125 0.34375 1.828125q0 1.046875 -0.375 1.90625q-0.375 0.84375 -1.109375 1.296875q-0.71875 0.453125 -1.53125 0.453125q-0.578125 0 -1.046875 -0.25q-0.46875 -0.25 -0.765625 -0.625l0 3.375l-1.171875 0zm1.0625 -6.078125q0 1.34375 0.53125 1.984375q0.546875 0.625 1.3125 0.625q0.78125 0 1.34375 -0.65625q0.5625 -0.65625 0.5625 -2.046875q0 -1.3125 -0.546875 -1.96875q-0.546875 -0.671875 -1.296875 -0.671875q-0.75 0 -1.328125 0.703125q-0.578125 0.703125 -0.578125 2.03125zm11.131088 3.421875l-1.078125 0l0 -9.546875l1.171875 0l0 3.40625q0.734375 -0.921875 1.8906269 -0.921875q0.640625 0 1.203125 0.265625q0.578125 0.25 0.9375 0.71875q0.375 0.453125 0.578125 1.109375q0.203125 0.65625 0.203125 1.40625q0 1.78125 -0.875 2.75q-0.875 0.96875 -2.109375 0.96875q-1.2187519 0 -1.9218769 -1.015625l0 0.859375zm0 -3.5q0 1.234375 0.328125 1.78125q0.5625019 0.90625 1.5000019 0.90625q0.765625 0 1.328125 -0.65625q0.5625 -0.671875 0.5625 -2.0q0 -1.34375 -0.546875 -1.984375q-0.53125 -0.65625 -1.296875 -0.65625q-0.765625 0 -1.3281269 0.671875q-0.546875 0.671875 -0.546875 1.9375zm6.3499775 -4.6875l0 -1.359375l1.171875 0l0 1.359375l-1.171875 0zm0 8.1875l0 -6.90625l1.171875 0l0 6.90625l-1.171875 0zm5.507965 -1.046875l0.171875 1.03125q-0.5 0.109375 -0.890625 0.109375q-0.640625 0 -1.0 -0.203125q-0.34375 -0.203125 -0.484375 -0.53125q-0.140625 -0.328125 -0.140625 -1.390625l0 -3.96875l-0.859375 0l0 -0.90625l0.859375 0l0 -1.71875l1.171875 -0.703125l0 2.421875l1.171875 0l0 0.90625l-1.171875 0l0 4.046875q0 0.5 0.046875 0.640625q0.0625 0.140625 0.203125 0.234375q0.140625 0.078125 0.40625 0.078125q0.203125 0 0.515625 -0.046875zm0.6717377 -1.015625l1.15625 -0.1875q0.109375 0.703125 0.546875 1.078125q0.453125 0.359375 1.25 0.359375q0.8125 0 1.203125 -0.328125q0.390625 -0.328125 0.390625 -0.765625q0 -0.390625 -0.359375 -0.625q-0.234375 -0.15625 -1.1875 -0.390625q-1.296875 -0.328125 -1.796875 -0.5625q-0.484375 -0.25 -0.75 -0.65625q-0.25 -0.421875 -0.25 -0.9375q0 -0.453125 0.203125 -0.84375q0.21875 -0.40625 0.578125 -0.671875q0.28125 -0.1875 0.75 -0.328125q0.46875 -0.140625 1.015625 -0.140625q0.8125 0 1.421875 0.234375q0.609375 0.234375 0.90625 0.640625q0.296875 0.390625 0.40625 1.0625l-1.140625 0.15625q-0.078125 -0.53125 -0.453125 -0.828125q-0.375 -0.3125 -1.0625 -0.3125q-0.8125 0 -1.15625 0.265625q-0.34375 0.265625 -0.34375 0.625q0 0.234375 0.140625 0.421875q0.15625 0.1875 0.453125 0.3125q0.171875 0.0625 1.03125 0.296875q1.25 0.328125 1.734375 0.546875q0.5 0.203125 0.78125 0.609375q0.28125 0.40625 0.28125 1.0q0 0.59375 -0.34375 1.109375q-0.34375 0.515625 -1.0 0.796875q-0.640625 0.28125 -1.453125 0.28125q-1.34375 0 -2.046875 -0.5625q-0.703125 -0.5625 -0.90625 -1.65625z" fill-rule="nonzero"></path><path fill="#a61c00" d="m7.936557 89.21097q-0.65625 0.5625 -1.265625 0.796875q-0.59375 0.21875 -1.28125 0.21875q-1.140625 0 -1.75 -0.546875q-0.609375 -0.5625 -0.609375 -1.4375q0 -0.5 0.21875 -0.921875q0.234375 -0.421875 0.609375 -0.671875q0.375 -0.25 0.84375 -0.390625q0.34375 -0.078125 1.046875 -0.171875q1.421875 -0.171875 2.09375 -0.40625q0 -0.234375 0 -0.296875q0 -0.71875 -0.328125 -1.015625q-0.453125 -0.390625 -1.34375 -0.390625q-0.8125 0 -1.21875 0.296875q-0.390625 0.28125 -0.578125 1.015625l-1.140625 -0.15625q0.15625 -0.734375 0.515625 -1.1875q0.359375 -0.453125 1.03125 -0.6875q0.671875 -0.25 1.5625 -0.25q0.890625 0 1.4375 0.203125q0.5625 0.203125 0.8125 0.53125q0.265625 0.3125 0.375 0.796875q0.046875 0.296875 0.046875 1.078125l0 1.5625q0 1.625 0.078125 2.0625q0.078125 0.4375 0.296875 0.828125l-1.21875 0q-0.1875 -0.359375 -0.234375 -0.859375zm-0.09375 -2.609375q-0.640625 0.265625 -1.921875 0.4375q-0.71875 0.109375 -1.015625 0.25q-0.296875 0.125 -0.46875 0.375q-0.15625 0.25 -0.15625 0.546875q0 0.46875 0.34375 0.78125q0.359375 0.3125 1.046875 0.3125q0.671875 0 1.203125 -0.296875q0.53125 -0.296875 0.78125 -0.8125q0.1875 -0.390625 0.1875 -1.171875l0 -0.421875zm2.9749756 3.46875l0 -9.546875l1.171875 0l0 9.546875l-1.171875 0zm4.257965 0l-2.125 -6.90625l1.21875 0l1.09375 3.984375l0.421875 1.484375q0.015625 -0.109375 0.35937405 -1.421875l1.09375 -4.046875l1.203125 0l1.03125 4.0l0.34375 1.328125l0.40625 -1.34375l1.171875 -3.984375l1.140625 0l-2.15625 6.90625l-1.21875 0l-1.09375 -4.140625l-0.265625 -1.171875l-1.40625 5.3125l-1.218749 0zm12.859527 -0.859375q-0.65625 0.5625 -1.265625 0.796875q-0.59375 0.21875 -1.28125 0.21875q-1.140625 0 -1.75 -0.546875q-0.609375 -0.5625 -0.609375 -1.4375q0 -0.5 0.21875 -0.921875q0.234375 -0.421875 0.609375 -0.671875q0.375 -0.25 0.84375 -0.390625q0.34375 -0.078125 1.046875 -0.171875q1.421875 -0.171875 2.09375 -0.40625q0 -0.234375 0 -0.296875q0 -0.71875 -0.328125 -1.015625q-0.453125 -0.390625 -1.34375 -0.390625q-0.8125 0 -1.21875 0.296875q-0.390625 0.28125 -0.578125 1.015625l-1.140625 -0.15625q0.15625 -0.734375 0.515625 -1.1875q0.359375 -0.453125 1.03125 -0.6875q0.671875 -0.25 1.5625 -0.25q0.890625 0 1.4375 0.203125q0.5625 0.203125 0.8125 0.53125q0.265625 0.3125 0.375 0.796875q0.046875 0.296875 0.046875 1.078125l0 1.5625q0 1.625 0.078125 2.0625q0.078125 0.4375 0.296875 0.828125l-1.21875 0q-0.1875 -0.359375 -0.234375 -0.859375zm-0.09375 -2.609375q-0.640625 0.265625 -1.921875 0.4375q-0.71875 0.109375 -1.015625 0.25q-0.296875 0.125 -0.46875 0.375q-0.15625 0.25 -0.15625 0.546875q0 0.46875 0.34375 0.78125q0.359375 0.3125 1.046875 0.3125q0.671875 0 1.203125 -0.296875q0.53125 -0.296875 0.78125 -0.8125q0.1875 -0.390625 0.1875 -1.171875l0 -0.421875zm2.9437256 6.125l-0.125 -1.09375q0.375 0.109375 0.65625 0.109375q0.390625 0 0.625 -0.140625q0.2343769 -0.125 0.3906269 -0.359375q0.109375 -0.171875 0.359375 -0.875q0.03125 -0.09375 0.109375 -0.28125l-2.625002 -6.921875l1.265625 0l1.4375019 4.0q0.28125 0.765625 0.5 1.59375q0.203125 -0.796875 0.46875 -1.578125l1.484375 -4.015625l1.171875 0l-2.625 7.015625q-0.421875 1.140625 -0.65625 1.578125q-0.3125 0.578125 -0.71875 0.84375q-0.40625 0.28125 -0.9687519 0.28125q-0.328125 0 -0.75 -0.15625zm6.2421894 -4.71875l1.15625 -0.1875q0.109375 0.703125 0.546875 1.078125q0.453125 0.359375 1.25 0.359375q0.8125 0 1.203125 -0.328125q0.390625 -0.328125 0.390625 -0.765625q0 -0.390625 -0.359375 -0.625q-0.234375 -0.15625 -1.1875 -0.390625q-1.296875 -0.328125 -1.796875 -0.5625q-0.484375 -0.25 -0.75 -0.65625q-0.25 -0.421875 -0.25 -0.9375q0 -0.453125 0.203125 -0.84375q0.21875 -0.40625 0.578125 -0.671875q0.28125 -0.1875 0.75 -0.328125q0.46875 -0.140625 1.015625 -0.140625q0.8125 0 1.421875 0.234375q0.609375 0.234375 0.90625 0.640625q0.296875 0.390625 0.40625 1.0625l-1.140625 0.15625q-0.078125 -0.53125 -0.453125 -0.828125q-0.375 -0.3125 -1.0625 -0.3125q-0.8125 0 -1.15625 0.265625q-0.34375 0.265625 -0.34375 0.625q0 0.234375 0.140625 0.421875q0.15625 0.1875 0.453125 0.3125q0.171875 0.0625 1.03125 0.296875q1.25 0.328125 1.734375 0.546875q0.5 0.203125 0.78125 0.609375q0.28125 0.40625 0.28125 1.0q0 0.59375 -0.34375 1.109375q-0.34375 0.515625 -1.0 0.796875q-0.640625 0.28125 -1.453125 0.28125q-1.34375 0 -2.046875 -0.5625q-0.703125 -0.5625 -0.90625 -1.65625zm10.507675 -2.640625q0 -1.6875 0.34375 -2.71875q0.359375 -1.03125 1.046875 -1.59375q0.6875 -0.5625 1.71875 -0.5625q0.78125 0 1.359375 0.3125q0.578125 0.296875 0.953125 0.890625q0.375 0.578125 0.59375 1.421875q0.21875 0.828125 0.21875 2.25q0 1.671875 -0.359375 2.703125q-0.34375 1.03125 -1.03125 1.59375q-0.671875 0.5625 -1.734375 0.5625q-1.375 0 -2.15625 -0.984375q-0.953125 -1.1875 -0.953125 -3.875zm1.203125 0q0 2.34375 0.546875 3.125q0.5625 0.78125 1.359375 0.78125q0.8125 0 1.359375 -0.78125q0.5625 -0.78125 0.5625 -3.125q0 -2.359375 -0.5625 -3.125q-0.546875 -0.78125 -1.359375 -0.78125q-0.8125 0 -1.296875 0.6875q-0.609375 0.875 -0.609375 3.21875zm6.2093506 0q0 -1.6875 0.34375 -2.71875q0.359375 -1.03125 1.046875 -1.59375q0.6875 -0.5625 1.71875 -0.5625q0.78125 0 1.359375 0.3125q0.578125 0.296875 0.953125 0.890625q0.375 0.578125 0.59375 1.421875q0.21875 0.828125 0.21875 2.25q0 1.671875 -0.359375 2.703125q-0.34375 1.03125 -1.03125 1.59375q-0.671875 0.5625 -1.734375 0.5625q-1.375 0 -2.15625 -0.984375q-0.953125 -1.1875 -0.953125 -3.875zm1.203125 0q0 2.34375 0.546875 3.125q0.5625 0.78125 1.359375 0.78125q0.8125 0 1.359375 -0.78125q0.5625 -0.78125 0.5625 -3.125q0 -2.359375 -0.5625 -3.125q-0.546875 -0.78125 -1.359375 -0.78125q-0.8125 0 -1.296875 0.6875q-0.609375 0.875 -0.609375 3.21875zm10.631222 4.703125l-1.171875 0l0 -7.46875q-0.421875 0.40625 -1.109375 0.8125q-0.6874962 0.40625 -1.2343712 0.609375l0 -1.140625q0.9843712 -0.453125 1.7187462 -1.109375q0.734375 -0.671875 1.03125 -1.28125l0.765625 0l0 9.578125z" fill-rule="nonzero"></path><path fill="#000000" fill-opacity="0.0" d="m37.230972 59.2231l8.346455 -17.196854" fill-rule="evenodd"></path><path stroke="#a61c00" stroke-width="1.0" stroke-linejoin="round" stroke-linecap="butt" d="m37.230972 59.2231l5.726631 -11.799023" fill-rule="evenodd"></path><path fill="#a61c00" stroke="#a61c00" stroke-width="1.0" stroke-linecap="butt" d="m44.443565 48.14528l0.49554062 -4.8038483l-3.4674644 3.361435z" fill-rule="evenodd"></path><path fill="#000000" fill-opacity="0.0" d="m713.084 54.485565l87.370056 0l0 29.574799l-87.370056 0z" fill-rule="evenodd"></path><path fill="#a61c00" d="m725.834 66.07297l-3.6875 -9.546879l1.359375 0l2.484375 6.9375q0.296875 0.8281288 0.5 1.5625038q0.21875 -0.78125 0.515625 -1.5625038l2.578125 -6.9375l1.28125 0l-3.734375 9.546879l-1.296875 0zm10.7491455 -2.2187538l1.203125 0.140625q-0.28125 1.0625038 -1.0625 1.6562538q-0.765625 0.578125 -1.96875 0.578125q-1.515625 0 -2.40625 -0.9375q-0.890625 -0.9375 -0.890625 -2.6093788q0 -1.75 0.890625 -2.703125q0.90625 -0.96875 2.34375 -0.96875q1.390625 0 2.265625 0.9375q0.875 0.9375 0.875 2.65625q0 0.109375 0 0.3125l-5.15625 0q0.0625 1.1406288 0.640625 1.7500038q0.578125 0.59375 1.4375 0.59375q0.65625 0 1.109375 -0.328125q0.453125 -0.34375 0.71875 -1.0781288zm-3.84375 -1.90625l3.859375 0q-0.078125 -0.859375 -0.4375 -1.296875q-0.5625 -0.6875 -1.453125 -0.6875q-0.8125 0 -1.359375 0.546875q-0.546875 0.53125 -0.609375 1.4375zm6.5062256 4.125004l0 -6.906254l1.0625 0l0 1.046875q0.40625 -0.734375 0.734375 -0.96875q0.34375 -0.234375 0.765625 -0.234375q0.59375 0 1.203125 0.375l-0.40625 1.078125q-0.4375 -0.25 -0.859375 -0.25q-0.390625 0 -0.703125 0.234375q-0.296875 0.234375 -0.421875 0.640625q-0.203125 0.625 -0.203125 1.359375l0 3.6250038l-1.171875 0zm3.9852295 -2.0625l1.15625 -0.18750381q0.109375 0.7031288 0.546875 1.0781288q0.453125 0.359375 1.25 0.359375q0.8125 0 1.203125 -0.328125q0.390625 -0.328125 0.390625 -0.765625q0 -0.3906288 -0.359375 -0.6250038q-0.234375 -0.15625 -1.1875 -0.390625q-1.296875 -0.328125 -1.796875 -0.5625q-0.484375 -0.25 -0.75 -0.65625q-0.25 -0.421875 -0.25 -0.9375q0 -0.453125 0.203125 -0.84375q0.21875 -0.40625 0.578125 -0.671875q0.28125 -0.1875 0.75 -0.328125q0.46875 -0.140625 1.015625 -0.140625q0.8125 0 1.421875 0.234375q0.609375 0.234375 0.90625 0.640625q0.296875 0.390625 0.40625 1.0625l-1.140625 0.15625q-0.078125 -0.53125 -0.453125 -0.828125q-0.375 -0.3125 -1.0625 -0.3125q-0.8125 0 -1.15625 0.265625q-0.34375 0.265625 -0.34375 0.625q0 0.234375 0.140625 0.421875q0.15625 0.1875 0.453125 0.3125q0.171875 0.0625 1.03125 0.296875q1.25 0.328125 1.734375 0.546875q0.5 0.203125 0.78125 0.609375q0.28125 0.40625 0.28125 1.0000038q0 0.59375 -0.34375 1.109375q-0.34375 0.515625 -1.0 0.796875q-0.640625 0.28125 -1.453125 0.28125q-1.34375 0 -2.046875 -0.5625q-0.703125 -0.5625 -0.90625 -1.65625zm7.1484375 -6.125004l0 -1.359375l1.171875 0l0 1.359375l-1.171875 0zm0 8.187504l0 -6.906254l1.171875 0l0 6.906254l-1.171875 0zm2.5079956 -3.4531288q0 -1.921875 1.078125 -2.84375q0.890625 -0.765625 2.171875 -0.765625q1.421875 0 2.328125 0.9375q0.90625 0.921875 0.90625 2.578125q0 1.328125 -0.40625 2.0937538q-0.390625 0.765625 -1.15625 1.1875q-0.765625 0.421875 -1.671875 0.421875q-1.453125 0 -2.359375 -0.921875q-0.890625 -0.9375 -0.890625 -2.6875038zm1.203125 0q0 1.328125 0.578125 1.9843788q0.59375 0.65625 1.46875 0.65625q0.875 0 1.453125 -0.65625q0.578125 -0.6718788 0.578125 -2.0312538q0 -1.28125 -0.59375 -1.9375q-0.578125 -0.65625 -1.4375 -0.65625q-0.875 0 -1.46875 0.65625q-0.578125 0.65625 -0.578125 1.984375zm6.6468506 3.4531288l0 -6.906254l1.0625 0l0 0.984375q0.75 -1.140625 2.1875 -1.140625q0.625 0 1.15625 0.21875q0.53125 0.21875 0.78125 0.59375q0.265625 0.359375 0.375 0.859375q0.0625 0.328125 0.0625 1.140625l0 4.250004l-1.171875 0l0 -4.203129q0 -0.71875 -0.140625 -1.0625q-0.140625 -0.359375 -0.484375 -0.5625q-0.34375 -0.21875 -0.8125 -0.21875q-0.75 0 -1.296875 0.46875q-0.546875 0.46875 -0.546875 1.796875l0 3.7812538l-1.171875 0zm12.1935425 0l-1.078125 0l0 -9.546879l1.171875 0l0 3.40625q0.734375 -0.921875 1.890625 -0.921875q0.640625 0 1.203125 0.265625q0.578125 0.25 0.9375 0.71875q0.375 0.453125 0.578125 1.109375q0.203125 0.65625 0.203125 1.40625q0 1.7812538 -0.875 2.7500038q-0.875 0.96875 -2.109375 0.96875q-1.21875 0 -1.921875 -1.015625l0 0.859375zm0 -3.5000038q0 1.234375 0.328125 1.7812538q0.5625 0.90625 1.5 0.90625q0.765625 0 1.328125 -0.65625q0.5625 -0.6718788 0.5625 -2.0000038q0 -1.34375 -0.546875 -1.984375q-0.53125 -0.65625 -1.296875 -0.65625q-0.765625 0 -1.328125 0.671875q-0.546875 0.671875 -0.546875 1.9375zm6.3499756 -4.6875l0 -1.359375l1.171875 0l0 1.359375l-1.171875 0zm0 8.187504l0 -6.906254l1.171875 0l0 6.906254l-1.171875 0zm5.5079956 -1.046875l0.171875 1.03125q-0.5 0.109375 -0.890625 0.109375q-0.640625 0 -1.0 -0.203125q-0.34375 -0.203125 -0.484375 -0.53125q-0.140625 -0.328125 -0.140625 -1.390625l0 -3.9687538l-0.859375 0l0 -0.90625l0.859375 0l0 -1.71875l1.171875 -0.703125l0 2.421875l1.171875 0l0 0.90625l-1.171875 0l0 4.046879q0 0.5 0.046875 0.640625q0.0625 0.140625 0.203125 0.234375q0.140625 0.078125 0.40625 0.078125q0.203125 0 0.515625 -0.046875z" fill-rule="nonzero"></path><path fill="#a61c00" d="m722.63086 77.36984q0 -1.6875 0.34375 -2.71875q0.359375 -1.03125 1.046875 -1.59375q0.6875 -0.5625 1.71875 -0.5625q0.78125 0 1.359375 0.3125q0.578125 0.296875 0.953125 0.890625q0.375 0.578125 0.59375 1.421875q0.21875 0.828125 0.21875 2.25q0 1.671875 -0.359375 2.703125q-0.34375 1.03125 -1.03125 1.59375q-0.671875 0.5625 -1.734375 0.5625q-1.375 0 -2.15625 -0.984375q-0.953125 -1.1875 -0.953125 -3.875zm1.203125 0q0 2.34375 0.546875 3.125q0.5625 0.78125 1.359375 0.78125q0.8125 0 1.359375 -0.78125q0.5625 -0.78125 0.5625 -3.125q0 -2.359375 -0.5625 -3.125q-0.546875 -0.78125 -1.359375 -0.78125q-0.8125 0 -1.296875 0.6875q-0.609375 0.875 -0.609375 3.21875zm14.7248535 4.703125l0 -0.875q-0.65625 1.03125 -1.9375 1.03125q-0.8125 0 -1.515625 -0.453125q-0.6875 -0.453125 -1.078125 -1.265625q-0.375 -0.828125 -0.375 -1.890625q0 -1.03125 0.34375 -1.875q0.34375 -0.84375 1.03125 -1.28125q0.703125 -0.453125 1.546875 -0.453125q0.625 0 1.109375 0.265625q0.5 0.25 0.796875 0.671875l0 -3.421875l1.171875 0l0 9.546875l-1.09375 0zm-3.703125 -3.453125q0 1.328125 0.5625 1.984375q0.5625 0.65625 1.328125 0.65625q0.765625 0 1.296875 -0.625q0.53125 -0.625 0.53125 -1.90625q0 -1.421875 -0.546875 -2.078125q-0.546875 -0.671875 -1.34375 -0.671875q-0.78125 0 -1.3125 0.640625q-0.515625 0.625 -0.515625 2.0zm6.6468506 -4.734375l0 -1.359375l1.171875 0l0 1.359375l-1.171875 0zm0 8.1875l0 -6.90625l1.171875 0l0 6.90625l-1.171875 0zm2.4766846 -2.0625l1.15625 -0.1875q0.109375 0.703125 0.546875 1.078125q0.453125 0.359375 1.25 0.359375q0.8125 0 1.203125 -0.328125q0.390625 -0.328125 0.390625 -0.765625q0 -0.390625 -0.359375 -0.625q-0.234375 -0.15625 -1.1875 -0.390625q-1.296875 -0.328125 -1.796875 -0.5625q-0.484375 -0.25 -0.75 -0.65625q-0.25 -0.421875 -0.25 -0.9375q0 -0.453125 0.203125 -0.84375q0.21875 -0.40625 0.578125 -0.671875q0.28125 -0.1875 0.75 -0.328125q0.46875 -0.140625 1.015625 -0.140625q0.8125 0 1.421875 0.234375q0.609375 0.234375 0.90625 0.640625q0.296875 0.390625 0.40625 1.0625l-1.140625 0.15625q-0.078125 -0.53125 -0.453125 -0.828125q-0.375 -0.3125 -1.0625 -0.3125q-0.8125 0 -1.15625 0.265625q-0.34375 0.265625 -0.34375 0.625q0 0.234375 0.140625 0.421875q0.15625 0.1875 0.453125 0.3125q0.171875 0.0625 1.03125 0.296875q1.25 0.328125 1.734375 0.546875q0.5 0.203125 0.78125 0.609375q0.28125 0.40625 0.28125 1.0q0 0.59375 -0.34375 1.109375q-0.34375 0.515625 -1.0 0.796875q-0.640625 0.28125 -1.453125 0.28125q-1.34375 0 -2.046875 -0.5625q-0.703125 -0.5625 -0.90625 -1.65625zm11.6484375 1.203125q-0.65625 0.5625 -1.265625 0.796875q-0.59375 0.21875 -1.28125 0.21875q-1.140625 0 -1.75 -0.546875q-0.609375 -0.5625 -0.609375 -1.4375q0 -0.5 0.21875 -0.921875q0.234375 -0.421875 0.609375 -0.671875q0.375 -0.25 0.84375 -0.390625q0.34375 -0.078125 1.046875 -0.171875q1.421875 -0.171875 2.09375 -0.40625q0 -0.234375 0 -0.296875q0 -0.71875 -0.328125 -1.015625q-0.453125 -0.390625 -1.34375 -0.390625q-0.8125 0 -1.21875 0.296875q-0.390625 0.28125 -0.578125 1.015625l-1.140625 -0.15625q0.15625 -0.734375 0.515625 -1.1875q0.359375 -0.453125 1.03125 -0.6875q0.671875 -0.25 1.5625 -0.25q0.890625 0 1.4375 0.203125q0.5625 0.203125 0.8125 0.53125q0.265625 0.3125 0.375 0.796875q0.046875 0.296875 0.046875 1.078125l0 1.5625q0 1.625 0.078125 2.0625q0.078125 0.4375 0.296875 0.828125l-1.21875 0q-0.1875 -0.359375 -0.234375 -0.859375zm-0.09375 -2.609375q-0.640625 0.265625 -1.921875 0.4375q-0.71875 0.109375 -1.015625 0.25q-0.296875 0.125 -0.46875 0.375q-0.15625 0.25 -0.15625 0.546875q0 0.46875 0.34375 0.78125q0.359375 0.3125 1.046875 0.3125q0.671875 0 1.203125 -0.296875q0.53125 -0.296875 0.78125 -0.8125q0.1875 -0.390625 0.1875 -1.171875l0 -0.421875zm4.0687256 3.46875l-1.078125 0l0 -9.546875l1.171875 0l0 3.40625q0.734375 -0.921875 1.890625 -0.921875q0.640625 0 1.203125 0.265625q0.578125 0.25 0.9375 0.71875q0.375 0.453125 0.578125 1.109375q0.203125 0.65625 0.203125 1.40625q0 1.78125 -0.875 2.75q-0.875 0.96875 -2.109375 0.96875q-1.21875 0 -1.921875 -1.015625l0 0.859375zm0 -3.5q0 1.234375 0.328125 1.78125q0.5625 0.90625 1.5 0.90625q0.765625 0 1.328125 -0.65625q0.5625 -0.671875 0.5625 -2.0q0 -1.34375 -0.546875 -1.984375q-0.53125 -0.65625 -1.296875 -0.65625q-0.765625 0 -1.328125 0.671875q-0.546875 0.671875 -0.546875 1.9375zm6.3187256 3.5l0 -9.546875l1.171875 0l0 9.546875l-1.171875 0zm7.7111206 -2.21875l1.203125 0.140625q-0.28125 1.0625 -1.0625 1.65625q-0.765625 0.578125 -1.96875 0.578125q-1.515625 0 -2.40625 -0.9375q-0.890625 -0.9375 -0.890625 -2.609375q0 -1.75 0.890625 -2.703125q0.90625 -0.96875 2.34375 -0.96875q1.390625 0 2.265625 0.9375q0.875 0.9375 0.875 2.65625q0 0.109375 0 0.3125l-5.15625 0q0.0625 1.140625 0.640625 1.75q0.578125 0.59375 1.4375 0.59375q0.65625 0 1.109375 -0.328125q0.453125 -0.34375 0.71875 -1.078125zm-3.84375 -1.90625l3.859375 0q-0.078125 -0.859375 -0.4375 -1.296875q-0.5625 -0.6875 -1.453125 -0.6875q-0.8125 0 -1.359375 0.546875q-0.546875 0.53125 -0.609375 1.4375zm11.006226 4.125l0 -0.875q-0.65625 1.03125 -1.9375 1.03125q-0.8125 0 -1.515625 -0.453125q-0.6875 -0.453125 -1.078125 -1.265625q-0.375 -0.828125 -0.375 -1.890625q0 -1.03125 0.34375 -1.875q0.34375 -0.84375 1.03125 -1.28125q0.703125 -0.453125 1.546875 -0.453125q0.625 0 1.109375 0.265625q0.5 0.25 0.796875 0.671875l0 -3.421875l1.171875 0l0 9.546875l-1.09375 0zm-3.703125 -3.453125q0 1.328125 0.5625 1.984375q0.5625 0.65625 1.328125 0.65625q0.765625 0 1.296875 -0.625q0.53125 -0.625 0.53125 -1.90625q0 -1.421875 -0.546875 -2.078125q-0.546875 -0.671875 -1.34375 -0.671875q-0.78125 0 -1.3125 0.640625q-0.515625 0.625 -0.515625 2.0z" fill-rule="nonzero"></path><path fill="#000000" fill-opacity="0.0" d="m756.76904 54.485565l22.078735 -25.322836" fill-rule="evenodd"></path><path stroke="#a61c00" stroke-width="1.0" stroke-linejoin="round" stroke-linecap="butt" d="m756.76904 54.485565l18.13562 -20.800411" fill-rule="evenodd"></path><path fill="#a61c00" stroke="#a61c00" stroke-width="1.0" stroke-linecap="butt" d="m776.14966 34.77063l1.7373657 -4.50601l-4.227295 2.3350544z" fill-rule="evenodd"></path><path fill="#000000" fill-opacity="0.0" d="m73.47507 62.485565l119.62204 0l0 29.574799l-119.62204 0z" fill-rule="evenodd"></path><path fill="#a61c00" d="m86.22507 74.07297l-3.6875 -9.546875l1.359375 0l2.484375 6.9375q0.296875 0.828125 0.5 1.5625q0.21875 -0.78125 0.515625 -1.5625l2.578125 -6.9375l1.28125 0l-3.734375 9.546875l-1.296875 0zm10.74913 -2.21875l1.203125 0.140625q-0.28125 1.0625 -1.0625 1.65625q-0.765625 0.578125 -1.96875 0.578125q-1.515625 0 -2.40625 -0.9375q-0.890625 -0.9375 -0.890625 -2.609375q0 -1.75 0.890625 -2.703125q0.90625 -0.96875 2.34375 -0.96875q1.390625 0 2.265625 0.9375q0.875 0.9375 0.875 2.65625q0 0.109375 0 0.3125l-5.15625 0q0.0625 1.140625 0.640625 1.75q0.578125 0.59375 1.4375 0.59375q0.65625 0 1.109375 -0.328125q0.453125 -0.34375 0.71875 -1.078125zm-3.84375 -1.90625l3.859375 0q-0.078125 -0.859375 -0.4375 -1.296875q-0.5625 -0.6875 -1.453125 -0.6875q-0.8125 0 -1.359375 0.546875q-0.546875 0.53125 -0.609375 1.4375zm6.5062256 4.125l0 -6.90625l1.0625 0l0 1.046875q0.40625 -0.734375 0.734375 -0.96875q0.34375 -0.234375 0.765625 -0.234375q0.59375 0 1.203125 0.375l-0.40625 1.078125q-0.4375 -0.25 -0.859375 -0.25q-0.390625 0 -0.703125 0.234375q-0.296875 0.234375 -0.421875 0.640625q-0.203125 0.625 -0.203125 1.359375l0 3.625l-1.171875 0zm3.9852448 -2.0625l1.15625 -0.1875q0.109375 0.703125 0.546875 1.078125q0.453125 0.359375 1.25 0.359375q0.8125 0 1.203125 -0.328125q0.390625 -0.328125 0.390625 -0.765625q0 -0.390625 -0.359375 -0.625q-0.234375 -0.15625 -1.1875 -0.390625q-1.296875 -0.328125 -1.796875 -0.5625q-0.484375 -0.25 -0.75 -0.65625q-0.25 -0.421875 -0.25 -0.9375q0 -0.453125 0.203125 -0.84375q0.21875 -0.40625 0.578125 -0.671875q0.28125 -0.1875 0.75 -0.328125q0.46875 -0.140625 1.015625 -0.140625q0.8125 0 1.421875 0.234375q0.609375 0.234375 0.90625 0.640625q0.296875 0.390625 0.40625 1.0625l-1.140625 0.15625q-0.078125 -0.53125 -0.453125 -0.828125q-0.375 -0.3125 -1.0625 -0.3125q-0.8125 0 -1.15625 0.265625q-0.34375 0.265625 -0.34375 0.625q0 0.234375 0.140625 0.421875q0.15625 0.1875 0.453125 0.3125q0.171875 0.0625 1.03125 0.296875q1.25 0.328125 1.734375 0.546875q0.5 0.203125 0.78125 0.609375q0.28125 0.40625 0.28125 1.0q0 0.59375 -0.34375 1.109375q-0.34375 0.515625 -1.0 0.796875q-0.640625 0.28125 -1.453125 0.28125q-1.34375 0 -2.046875 -0.5625q-0.703125 -0.5625 -0.90625 -1.65625zm7.1484375 -6.125l0 -1.359375l1.171875 0l0 1.359375l-1.171875 0zm0 8.1875l0 -6.90625l1.171875 0l0 6.90625l-1.171875 0zm2.507965 -3.453125q0 -1.921875 1.078125 -2.84375q0.890625 -0.765625 2.171875 -0.765625q1.421875 0 2.328125 0.9375q0.90625 0.921875 0.90625 2.578125q0 1.328125 -0.40625 2.09375q-0.390625 0.765625 -1.15625 1.1875q-0.765625 0.421875 -1.671875 0.421875q-1.453125 0 -2.359375 -0.921875q-0.890625 -0.9375 -0.890625 -2.6875zm1.203125 0q0 1.328125 0.578125 1.984375q0.59375 0.65625 1.46875 0.65625q0.875 0 1.453125 -0.65625q0.578125 -0.671875 0.578125 -2.03125q0 -1.28125 -0.59375 -1.9375q-0.578125 -0.65625 -1.4375 -0.65625q-0.875 0 -1.46875 0.65625q-0.578125 0.65625 -0.578125 1.984375zm6.6468506 3.453125l0 -6.90625l1.0625 0l0 0.984375q0.75 -1.140625 2.1875 -1.140625q0.625 0 1.15625 0.21875q0.53125 0.21875 0.78125 0.59375q0.265625 0.359375 0.375 0.859375q0.0625 0.328125 0.0625 1.140625l0 4.25l-1.171875 0l0 -4.203125q0 -0.71875 -0.140625 -1.0625q-0.140625 -0.359375 -0.484375 -0.5625q-0.34375 -0.21875 -0.8125 -0.21875q-0.75 0 -1.296875 0.46875q-0.546875 0.46875 -0.546875 1.796875l0 3.78125l-1.171875 0zm12.193588 0l-1.078125 0l0 -9.546875l1.171875 0l0 3.40625q0.734375 -0.921875 1.890625 -0.921875q0.640625 0 1.203125 0.265625q0.578125 0.25 0.9375 0.71875q0.375 0.453125 0.578125 1.109375q0.203125 0.65625 0.203125 1.40625q0 1.78125 -0.875 2.75q-0.875 0.96875 -2.109375 0.96875q-1.21875 0 -1.921875 -1.015625l0 0.859375zm0 -3.5q0 1.234375 0.328125 1.78125q0.5625 0.90625 1.5 0.90625q0.765625 0 1.328125 -0.65625q0.5625 -0.671875 0.5625 -2.0q0 -1.34375 -0.546875 -1.984375q-0.53125 -0.65625 -1.296875 -0.65625q-0.765625 0 -1.328125 0.671875q-0.546875 0.671875 -0.546875 1.9375zm6.3499756 -4.6875l0 -1.359375l1.171875 0l0 1.359375l-1.171875 0zm0 8.1875l0 -6.90625l1.171875 0l0 6.90625l-1.171875 0zm5.507965 -1.046875l0.171875 1.03125q-0.5 0.109375 -0.890625 0.109375q-0.640625 0 -1.0 -0.203125q-0.34375 -0.203125 -0.484375 -0.53125q-0.140625 -0.328125 -0.140625 -1.390625l0 -3.96875l-0.859375 0l0 -0.90625l0.859375 0l0 -1.71875l1.171875 -0.703125l0 2.421875l1.171875 0l0 0.90625l-1.171875 0l0 4.046875q0 0.5 0.046875 0.640625q0.0625 0.140625 0.203125 0.234375q0.140625 0.078125 0.40625 0.078125q0.203125 0 0.515625 -0.046875zm10.6716 -0.078125l0 1.125l-6.296875 0q-0.015625 -0.421875 0.140625 -0.8125q0.234375 -0.640625 0.765625 -1.265625q0.53125 -0.625 1.53125 -1.453125q1.5625 -1.265625 2.109375 -2.015625q0.546875 -0.75 0.546875 -1.40625q0 -0.703125 -0.5 -1.171875q-0.5 -0.484375 -1.296875 -0.484375q-0.859375 0 -1.375 0.515625q-0.5 0.5 -0.5 1.390625l-1.203125 -0.109375q0.125 -1.359375 0.921875 -2.0625q0.8125 -0.703125 2.171875 -0.703125q1.375 0 2.171875 0.765625q0.8125 0.75 0.8125 1.875q0 0.578125 -0.234375 1.140625q-0.234375 0.546875 -0.78125 1.15625q-0.546875 0.609375 -1.8125 1.671875q-1.046875 0.890625 -1.359375 1.21875q-0.296875 0.3125 -0.484375 0.625l4.671875 0zm1.3343506 -7.171875l0 -1.125l6.1875 0l0 0.921875q-0.921875 0.96875 -1.8125 2.578125q-0.890625 1.59375 -1.375 3.296875q-0.359375 1.203125 -0.453125 2.625l-1.203125 0q0.015625 -1.125 0.4375 -2.71875q0.421875 -1.59375 1.203125 -3.078125q0.796875 -1.484375 1.6875 -2.5l-4.671875 0z" fill-rule="nonzero"></path><path fill="#a61c00" d="m87.86569 89.21359q-0.65625 0.5625 -1.265625 0.796875q-0.59375 0.21875 -1.28125 0.21875q-1.140625 0 -1.75 -0.546875q-0.609375 -0.5625 -0.609375 -1.4375q0 -0.5 0.21875 -0.921875q0.234375 -0.421875 0.609375 -0.671875q0.375 -0.25 0.84375 -0.390625q0.34375 -0.078125 1.046875 -0.171875q1.421875 -0.171875 2.09375 -0.40625q0 -0.234375 0 -0.296875q0 -0.71875 -0.328125 -1.015625q-0.453125 -0.390625 -1.34375 -0.390625q-0.8125 0 -1.21875 0.296875q-0.390625 0.28125 -0.578125 1.015625l-1.140625 -0.15625q0.15625 -0.734375 0.515625 -1.1875q0.359375 -0.453125 1.03125 -0.6875q0.671875 -0.25 1.5625 -0.25q0.890625 0 1.4375 0.203125q0.5625 0.203125 0.8125 0.53125q0.265625 0.3125 0.375 0.796875q0.046875 0.296875 0.046875 1.078125l0 1.5625q0 1.625 0.078125 2.0625q0.078125 0.4375 0.296875 0.828125l-1.21875 0q-0.1875 -0.359375 -0.234375 -0.859375zm-0.09375 -2.609375q-0.640625 0.265625 -1.921875 0.4375q-0.71875 0.109375 -1.015625 0.25q-0.296875 0.125 -0.46875 0.375q-0.15625 0.25 -0.15625 0.546875q0 0.46875 0.34375 0.78125q0.359375 0.3125 1.046875 0.3125q0.671875 0 1.203125 -0.296875q0.53125 -0.296875 0.78125 -0.8125q0.1875 -0.390625 0.1875 -1.171875l0 -0.421875zm2.9906006 3.46875l0 -6.90625l1.0625 0l0 0.984375q0.75 -1.140625 2.1875 -1.140625q0.625 0 1.15625 0.21875q0.53125 0.21875 0.78125 0.59375q0.265625 0.359375 0.375 0.859375q0.0625 0.328125 0.0625 1.140625l0 4.25l-1.171875 0l0 -4.203125q0 -0.71875 -0.140625 -1.0625q-0.140625 -0.359375 -0.484375 -0.5625q-0.34375 -0.21875 -0.8125 -0.21875q-0.75 0 -1.296875 0.46875q-0.546875 0.46875 -0.546875 1.796875l0 3.78125l-1.171875 0zm11.896851 0l0 -0.875q-0.65625 1.03125 -1.9375 1.03125q-0.8125 0 -1.515625 -0.453125q-0.6875 -0.453125 -1.078125 -1.265625q-0.375 -0.828125 -0.375 -1.890625q0 -1.03125 0.34375 -1.875q0.34375 -0.84375 1.03125 -1.28125q0.703125 -0.453125 1.546875 -0.453125q0.625 0 1.109375 0.265625q0.5 0.25 0.796875 0.671875l0 -3.421875l1.171875 0l0 9.546875l-1.09375 0zm-3.703125 -3.453125q0 1.328125 0.5625 1.984375q0.5625 0.65625 1.328125 0.65625q0.765625 0 1.296875 -0.625q0.53125 -0.625 0.53125 -1.90625q0 -1.421875 -0.546875 -2.078125q-0.546875 -0.671875 -1.34375 -0.671875q-0.78125 0 -1.3125 0.640625q-0.515625 0.625 -0.515625 2.0zm16.162338 2.328125l0 1.125l-6.296875 0q-0.015625 -0.421875 0.140625 -0.8125q0.234375 -0.640625 0.765625 -1.265625q0.53125 -0.625 1.53125 -1.453125q1.5625 -1.265625 2.109375 -2.015625q0.546875 -0.75 0.546875 -1.40625q0 -0.703125 -0.5 -1.171875q-0.5 -0.484375 -1.296875 -0.484375q-0.859375 0 -1.375 0.515625q-0.5 0.5 -0.5 1.390625l-1.203125 -0.109375q0.125 -1.359375 0.921875 -2.0625q0.8125 -0.703125 2.171875 -0.703125q1.375 0 2.171875 0.765625q0.8125 0.75 0.8125 1.875q0 0.578125 -0.234375 1.140625q-0.234375 0.546875 -0.78125 1.15625q-0.546875 0.609375 -1.8125 1.671875q-1.046875 0.890625 -1.359375 1.21875q-0.296875 0.3125 -0.484375 0.625l4.671875 0zm3.0687256 -4.046875q-0.734375 -0.265625 -1.09375 -0.765625q-0.34375 -0.5 -0.34375 -1.1875q0 -1.03125 0.75 -1.734375q0.75 -0.71875 1.984375 -0.71875q1.25 0 2.015625 0.734375q0.765625 0.71875 0.765625 1.75q0 0.671875 -0.359375 1.171875q-0.34375 0.484375 -1.046875 0.75q0.875 0.28125 1.328125 0.921875q0.46875 0.640625 0.46875 1.515625q0 1.234375 -0.875 2.0625q-0.859375 0.828125 -2.265625 0.828125q-1.421875 0 -2.28125 -0.828125q-0.859375 -0.84375 -0.859375 -2.09375q0 -0.921875 0.46875 -1.546875q0.46875 -0.640625 1.34375 -0.859375zm-0.234375 -1.984375q0 0.671875 0.4375 1.109375q0.4375 0.421875 1.125 0.421875q0.671875 0 1.109375 -0.421875q0.4375 -0.421875 0.4375 -1.046875q0 -0.640625 -0.453125 -1.078125q-0.4375 -0.4375 -1.109375 -0.4375q-0.671875 0 -1.109375 0.4375q-0.4375 0.421875 -0.4375 1.015625zm-0.375 4.40625q0 0.5 0.234375 0.96875q0.234375 0.46875 0.703125 0.734375q0.46875 0.25 1.015625 0.25q0.828125 0 1.375 -0.53125q0.546875 -0.546875 0.546875 -1.390625q0 -0.84375 -0.5625 -1.390625q-0.5625 -0.5625 -1.40625 -0.5625q-0.828125 0 -1.375 0.546875q-0.53125 0.546875 -0.53125 1.375zm14.724838 2.75l0 -0.875q-0.65625 1.03125 -1.9375 1.03125q-0.8125 0 -1.515625 -0.453125q-0.6875 -0.453125 -1.078125 -1.265625q-0.375 -0.828125 -0.375 -1.890625q0 -1.03125 0.34375 -1.875q0.34375 -0.84375 1.03125 -1.28125q0.703125 -0.453125 1.546875 -0.453125q0.625 0 1.109375 0.265625q0.5 0.25 0.796875 0.671875l0 -3.421875l1.171875 0l0 9.546875l-1.09375 0zm-3.703125 -3.453125q0 1.328125 0.5625 1.984375q0.5625 0.65625 1.328125 0.65625q0.765625 0 1.296875 -0.625q0.53125 -0.625 0.53125 -1.90625q0 -1.421875 -0.546875 -2.078125q-0.546875 -0.671875 -1.34375 -0.671875q-0.78125 0 -1.3125 0.640625q-0.515625 0.625 -0.515625 2.0zm6.6468506 -4.734375l0 -1.359375l1.171875 0l0 1.359375l-1.171875 0zm0 8.1875l0 -6.90625l1.171875 0l0 6.90625l-1.171875 0zm2.476715 -2.0625l1.15625 -0.1875q0.109375 0.703125 0.546875 1.078125q0.453125 0.359375 1.25 0.359375q0.8125 0 1.203125 -0.328125q0.390625 -0.328125 0.390625 -0.765625q0 -0.390625 -0.359375 -0.625q-0.234375 -0.15625 -1.1875 -0.390625q-1.296875 -0.328125 -1.796875 -0.5625q-0.484375 -0.25 -0.75 -0.65625q-0.25 -0.421875 -0.25 -0.9375q0 -0.453125 0.203125 -0.84375q0.21875 -0.40625 0.578125 -0.671875q0.28125 -0.1875 0.75 -0.328125q0.46875 -0.140625 1.015625 -0.140625q0.8125 0 1.421875 0.234375q0.609375 0.234375 0.90625 0.640625q0.296875 0.390625 0.40625 1.0625l-1.140625 0.15625q-0.078125 -0.53125 -0.453125 -0.828125q-0.375 -0.3125 -1.0625 -0.3125q-0.8125 0 -1.15625 0.265625q-0.34375 0.265625 -0.34375 0.625q0 0.234375 0.140625 0.421875q0.15625 0.1875 0.453125 0.3125q0.171875 0.0625 1.03125 0.296875q1.25 0.328125 1.734375 0.546875q0.5 0.203125 0.78125 0.609375q0.28125 0.40625 0.28125 1.0q0 0.59375 -0.34375 1.109375q-0.34375 0.515625 -1.0 0.796875q-0.640625 0.28125 -1.453125 0.28125q-1.34375 0 -2.046875 -0.5625q-0.703125 -0.5625 -0.90625 -1.65625zm11.6484375 1.203125q-0.65625 0.5625 -1.265625 0.796875q-0.59375 0.21875 -1.28125 0.21875q-1.140625 0 -1.75 -0.546875q-0.609375 -0.5625 -0.609375 -1.4375q0 -0.5 0.21875 -0.921875q0.234375 -0.421875 0.609375 -0.671875q0.375 -0.25 0.84375 -0.390625q0.34375 -0.078125 1.046875 -0.171875q1.421875 -0.171875 2.09375 -0.40625q0 -0.234375 0 -0.296875q0 -0.71875 -0.328125 -1.015625q-0.453125 -0.390625 -1.34375 -0.390625q-0.8125 0 -1.21875 0.296875q-0.390625 0.28125 -0.578125 1.015625l-1.140625 -0.15625q0.15625 -0.734375 0.515625 -1.1875q0.359375 -0.453125 1.03125 -0.6875q0.671875 -0.25 1.5625 -0.25q0.890625 0 1.4375 0.203125q0.5625 0.203125 0.8125 0.53125q0.265625 0.3125 0.375 0.796875q0.046875 0.296875 0.046875 1.078125l0 1.5625q0 1.625 0.078125 2.0625q0.078125 0.4375 0.296875 0.828125l-1.21875 0q-0.1875 -0.359375 -0.234375 -0.859375zm-0.09375 -2.609375q-0.640625 0.265625 -1.921875 0.4375q-0.71875 0.109375 -1.015625 0.25q-0.296875 0.125 -0.46875 0.375q-0.15625 0.25 -0.15625 0.546875q0 0.46875 0.34375 0.78125q0.359375 0.3125 1.046875 0.3125q0.671875 0 1.203125 -0.296875q0.53125 -0.296875 0.78125 -0.8125q0.1875 -0.390625 0.1875 -1.171875l0 -0.421875zm4.0687256 3.46875l-1.078125 0l0 -9.546875l1.171875 0l0 3.40625q0.734375 -0.921875 1.890625 -0.921875q0.640625 0 1.203125 0.265625q0.578125 0.25 0.9375 0.71875q0.375 0.453125 0.578125 1.109375q0.203125 0.65625 0.203125 1.40625q0 1.78125 -0.875 2.75q-0.875 0.96875 -2.109375 0.96875q-1.21875 0 -1.921875 -1.015625l0 0.859375zm0 -3.5q0 1.234375 0.328125 1.78125q0.5625 0.90625 1.5 0.90625q0.765625 0 1.328125 -0.65625q0.5625 -0.671875 0.5625 -2.0q0 -1.34375 -0.546875 -1.984375q-0.53125 -0.65625 -1.296875 -0.65625q-0.765625 0 -1.328125 0.671875q-0.546875 0.671875 -0.546875 1.9375zm6.3187256 3.5l0 -9.546875l1.171875 0l0 9.546875l-1.171875 0zm7.71109 -2.21875l1.203125 0.140625q-0.28125 1.0625 -1.0625 1.65625q-0.765625 0.578125 -1.96875 0.578125q-1.515625 0 -2.40625 -0.9375q-0.890625 -0.9375 -0.890625 -2.609375q0 -1.75 0.890625 -2.703125q0.90625 -0.96875 2.34375 -0.96875q1.390625 0 2.265625 0.9375q0.875 0.9375 0.875 2.65625q0 0.109375 0 0.3125l-5.15625 0q0.0625 1.140625 0.640625 1.75q0.578125 0.59375 1.4375 0.59375q0.65625 0 1.109375 -0.328125q0.453125 -0.34375 0.71875 -1.078125zm-3.84375 -1.90625l3.859375 0q-0.078125 -0.859375 -0.4375 -1.296875q-0.5625 -0.6875 -1.453125 -0.6875q-0.8125 0 -1.359375 0.546875q-0.546875 0.53125 -0.609375 1.4375zm11.006226 4.125l0 -0.875q-0.65625 1.03125 -1.9375 1.03125q-0.8125 0 -1.515625 -0.453125q-0.6875 -0.453125 -1.078125 -1.265625q-0.375 -0.828125 -0.375 -1.890625q0 -1.03125 0.34375 -1.875q0.34375 -0.84375 1.03125 -1.28125q0.703125 -0.453125 1.546875 -0.453125q0.625 0 1.109375 0.265625q0.5 0.25 0.796875 0.671875l0 -3.421875l1.171875 0l0 9.546875l-1.09375 0zm-3.703125 -3.453125q0 1.328125 0.5625 1.984375q0.5625 0.65625 1.328125 0.65625q0.765625 0 1.296875 -0.625q0.53125 -0.625 0.53125 -1.90625q0 -1.421875 -0.546875 -2.078125q-0.546875 -0.671875 -1.34375 -0.671875q-0.78125 0 -1.3125 0.640625q-0.515625 0.625 -0.515625 2.0z" fill-rule="nonzero"></path><path fill="#000000" fill-opacity="0.0" d="m133.28609 62.485565l-14.645668 -33.322838" fill-rule="evenodd"></path><path stroke="#a61c00" stroke-width="1.0" stroke-linejoin="round" stroke-linecap="butt" d="m133.28609 62.485565l-12.231499 -27.829952" fill-rule="evenodd"></path><path fill="#a61c00" stroke="#a61c00" stroke-width="1.0" stroke-linecap="butt" d="m122.56672 33.99102l-3.338089 -3.4899464l0.3138275 4.8191357z" fill-rule="evenodd"></path><path fill="#000000" fill-opacity="0.0" d="m506.93176 54.485565l87.370056 0l0 29.574799l-87.370056 0z" fill-rule="evenodd"></path><path fill="#a61c00" d="m519.68176 66.07297l-3.6875 -9.546879l1.359375 0l2.484375 6.9375q0.296875 0.8281288 0.5 1.5625038q0.21875 -0.78125 0.515625 -1.5625038l2.578125 -6.9375l1.28125 0l-3.734375 9.546879l-1.296875 0zm10.7491455 -2.2187538l1.203125 0.140625q-0.28125 1.0625038 -1.0625 1.6562538q-0.765625 0.578125 -1.96875 0.578125q-1.515625 0 -2.40625 -0.9375q-0.890625 -0.9375 -0.890625 -2.6093788q0 -1.75 0.890625 -2.703125q0.90625 -0.96875 2.34375 -0.96875q1.390625 0 2.265625 0.9375q0.875 0.9375 0.875 2.65625q0 0.109375 0 0.3125l-5.15625 0q0.0625 1.1406288 0.640625 1.7500038q0.578125 0.59375 1.4375 0.59375q0.65625 0 1.109375 -0.328125q0.453125 -0.34375 0.71875 -1.0781288zm-3.84375 -1.90625l3.859375 0q-0.078125 -0.859375 -0.4375 -1.296875q-0.5625 -0.6875 -1.453125 -0.6875q-0.8125 0 -1.359375 0.546875q-0.546875 0.53125 -0.609375 1.4375zm6.5062256 4.125004l0 -6.906254l1.0625 0l0 1.046875q0.40625 -0.734375 0.734375 -0.96875q0.34375 -0.234375 0.765625 -0.234375q0.59375 0 1.203125 0.375l-0.40625 1.078125q-0.4375 -0.25 -0.859375 -0.25q-0.390625 0 -0.703125 0.234375q-0.296875 0.234375 -0.421875 0.640625q-0.203125 0.625 -0.203125 1.359375l0 3.6250038l-1.171875 0zm3.9852295 -2.0625l1.15625 -0.18750381q0.109375 0.7031288 0.546875 1.0781288q0.453125 0.359375 1.25 0.359375q0.8125 0 1.203125 -0.328125q0.390625 -0.328125 0.390625 -0.765625q0 -0.3906288 -0.359375 -0.6250038q-0.234375 -0.15625 -1.1875 -0.390625q-1.296875 -0.328125 -1.796875 -0.5625q-0.484375 -0.25 -0.75 -0.65625q-0.25 -0.421875 -0.25 -0.9375q0 -0.453125 0.203125 -0.84375q0.21875 -0.40625 0.578125 -0.671875q0.28125 -0.1875 0.75 -0.328125q0.46875 -0.140625 1.015625 -0.140625q0.8125 0 1.421875 0.234375q0.609375 0.234375 0.90625 0.640625q0.296875 0.390625 0.40625 1.0625l-1.140625 0.15625q-0.078125 -0.53125 -0.453125 -0.828125q-0.375 -0.3125 -1.0625 -0.3125q-0.8125 0 -1.15625 0.265625q-0.34375 0.265625 -0.34375 0.625q0 0.234375 0.140625 0.421875q0.15625 0.1875 0.453125 0.3125q0.171875 0.0625 1.03125 0.296875q1.25 0.328125 1.734375 0.546875q0.5 0.203125 0.78125 0.609375q0.28125 0.40625 0.28125 1.0000038q0 0.59375 -0.34375 1.109375q-0.34375 0.515625 -1.0 0.796875q-0.640625 0.28125 -1.453125 0.28125q-1.34375 0 -2.046875 -0.5625q-0.703125 -0.5625 -0.90625 -1.65625zm7.1484375 -6.125004l0 -1.359375l1.171875 0l0 1.359375l-1.171875 0zm0 8.187504l0 -6.906254l1.171875 0l0 6.906254l-1.171875 0zm2.5079346 -3.4531288q0 -1.921875 1.078125 -2.84375q0.890625 -0.765625 2.171875 -0.765625q1.421875 0 2.328125 0.9375q0.90625 0.921875 0.90625 2.578125q0 1.328125 -0.40625 2.0937538q-0.390625 0.765625 -1.15625 1.1875q-0.765625 0.421875 -1.671875 0.421875q-1.453125 0 -2.359375 -0.921875q-0.890625 -0.9375 -0.890625 -2.6875038zm1.203125 0q0 1.328125 0.578125 1.9843788q0.59375 0.65625 1.46875 0.65625q0.875 0 1.453125 -0.65625q0.578125 -0.6718788 0.578125 -2.0312538q0 -1.28125 -0.59375 -1.9375q-0.578125 -0.65625 -1.4375 -0.65625q-0.875 0 -1.46875 0.65625q-0.578125 0.65625 -0.578125 1.984375zm6.6468506 3.4531288l0 -6.906254l1.0625 0l0 0.984375q0.75 -1.140625 2.1875 -1.140625q0.625 0 1.15625 0.21875q0.53125 0.21875 0.78125 0.59375q0.265625 0.359375 0.375 0.859375q0.0625 0.328125 0.0625 1.140625l0 4.250004l-1.171875 0l0 -4.203129q0 -0.71875 -0.140625 -1.0625q-0.140625 -0.359375 -0.484375 -0.5625q-0.34375 -0.21875 -0.8125 -0.21875q-0.75 0 -1.296875 0.46875q-0.546875 0.46875 -0.546875 1.796875l0 3.7812538l-1.171875 0zm12.1936035 0l-1.078125 0l0 -9.546879l1.171875 0l0 3.40625q0.734375 -0.921875 1.890625 -0.921875q0.640625 0 1.203125 0.265625q0.578125 0.25 0.9375 0.71875q0.375 0.453125 0.578125 1.109375q0.203125 0.65625 0.203125 1.40625q0 1.7812538 -0.875 2.7500038q-0.875 0.96875 -2.109375 0.96875q-1.21875 0 -1.921875 -1.015625l0 0.859375zm0 -3.5000038q0 1.234375 0.328125 1.7812538q0.5625 0.90625 1.5 0.90625q0.765625 0 1.328125 -0.65625q0.5625 -0.6718788 0.5625 -2.0000038q0 -1.34375 -0.546875 -1.984375q-0.53125 -0.65625 -1.296875 -0.65625q-0.765625 0 -1.328125 0.671875q-0.546875 0.671875 -0.546875 1.9375zm6.3499756 -4.6875l0 -1.359375l1.171875 0l0 1.359375l-1.171875 0zm0 8.187504l0 -6.906254l1.171875 0l0 6.906254l-1.171875 0zm5.5079956 -1.046875l0.171875 1.03125q-0.5 0.109375 -0.890625 0.109375q-0.640625 0 -1.0 -0.203125q-0.34375 -0.203125 -0.484375 -0.53125q-0.140625 -0.328125 -0.140625 -1.390625l0 -3.9687538l-0.859375 0l0 -0.90625l0.859375 0l0 -1.71875l1.171875 -0.703125l0 2.421875l1.171875 0l0 0.90625l-1.171875 0l0 4.046879q0 0.5 0.046875 0.640625q0.0625 0.140625 0.203125 0.234375q0.140625 0.078125 0.40625 0.078125q0.203125 0 0.515625 -0.046875z" fill-rule="nonzero"></path><path fill="#a61c00" d="m520.9005 82.07297l-1.171875 0l0 -7.46875q-0.421875 0.40625 -1.109375 0.8125q-0.6875 0.40625 -1.234375 0.609375l0 -1.140625q0.984375 -0.453125 1.71875 -1.109375q0.734375 -0.671875 1.03125 -1.28125l0.765625 0l0 9.578125zm2.9906006 -4.703125q0 -1.6875 0.34375 -2.71875q0.359375 -1.03125 1.046875 -1.59375q0.6875 -0.5625 1.71875 -0.5625q0.78125 0 1.359375 0.3125q0.578125 0.296875 0.953125 0.890625q0.375 0.578125 0.59375 1.421875q0.21875 0.828125 0.21875 2.25q0 1.671875 -0.359375 2.703125q-0.34375 1.03125 -1.03125 1.59375q-0.671875 0.5625 -1.734375 0.5625q-1.375 0 -2.15625 -0.984375q-0.953125 -1.1875 -0.953125 -3.875zm1.203125 0q0 2.34375 0.546875 3.125q0.5625 0.78125 1.359375 0.78125q0.8125 0 1.359375 -0.78125q0.5625 -0.78125 0.5625 -3.125q0 -2.359375 -0.5625 -3.125q-0.546875 -0.78125 -1.359375 -0.78125q-0.8125 0 -1.296875 0.6875q-0.609375 0.875 -0.609375 3.21875zm14.9748535 2.484375l1.203125 0.140625q-0.28125 1.0625 -1.0625 1.65625q-0.765625 0.578125 -1.96875 0.578125q-1.515625 0 -2.40625 -0.9375q-0.890625 -0.9375 -0.890625 -2.609375q0 -1.75 0.890625 -2.703125q0.90625 -0.96875 2.34375 -0.96875q1.390625 0 2.265625 0.9375q0.875 0.9375 0.875 2.65625q0 0.109375 0 0.3125l-5.15625 0q0.0625 1.140625 0.640625 1.75q0.578125 0.59375 1.4375 0.59375q0.65625 0 1.109375 -0.328125q0.453125 -0.34375 0.71875 -1.078125zm-3.84375 -1.90625l3.859375 0q-0.078125 -0.859375 -0.4375 -1.296875q-0.5625 -0.6875 -1.453125 -0.6875q-0.8125 0 -1.359375 0.546875q-0.546875 0.53125 -0.609375 1.4375zm6.5218506 4.125l0 -6.90625l1.0625 0l0 0.984375q0.75 -1.140625 2.1875 -1.140625q0.625 0 1.15625 0.21875q0.53125 0.21875 0.78125 0.59375q0.265625 0.359375 0.375 0.859375q0.0625 0.328125 0.0625 1.140625l0 4.25l-1.171875 0l0 -4.203125q0 -0.71875 -0.140625 -1.0625q-0.140625 -0.359375 -0.484375 -0.5625q-0.34375 -0.21875 -0.8125 -0.21875q-0.75 0 -1.296875 0.46875q-0.546875 0.46875 -0.546875 1.796875l0 3.78125l-1.171875 0zm11.928101 -0.859375q-0.65625 0.5625 -1.265625 0.796875q-0.59375 0.21875 -1.28125 0.21875q-1.140625 0 -1.75 -0.546875q-0.609375 -0.5625 -0.609375 -1.4375q0 -0.5 0.21875 -0.921875q0.234375 -0.421875 0.609375 -0.671875q0.375 -0.25 0.84375 -0.390625q0.34375 -0.078125 1.046875 -0.171875q1.421875 -0.171875 2.09375 -0.40625q0 -0.234375 0 -0.296875q0 -0.71875 -0.328125 -1.015625q-0.453125 -0.390625 -1.34375 -0.390625q-0.8125 0 -1.21875 0.296875q-0.390625 0.28125 -0.578125 1.015625l-1.140625 -0.15625q0.15625 -0.734375 0.515625 -1.1875q0.359375 -0.453125 1.03125 -0.6875q0.671875 -0.25 1.5625 -0.25q0.890625 0 1.4375 0.203125q0.5625 0.203125 0.8125 0.53125q0.265625 0.3125 0.375 0.796875q0.046875 0.296875 0.046875 1.078125l0 1.5625q0 1.625 0.078125 2.0625q0.078125 0.4375 0.296875 0.828125l-1.21875 0q-0.1875 -0.359375 -0.234375 -0.859375zm-0.09375 -2.609375q-0.640625 0.265625 -1.921875 0.4375q-0.71875 0.109375 -1.015625 0.25q-0.296875 0.125 -0.46875 0.375q-0.15625 0.25 -0.15625 0.546875q0 0.46875 0.34375 0.78125q0.359375 0.3125 1.046875 0.3125q0.671875 0 1.203125 -0.296875q0.53125 -0.296875 0.78125 -0.8125q0.1875 -0.390625 0.1875 -1.171875l0 -0.421875zm4.0687256 3.46875l-1.078125 0l0 -9.546875l1.171875 0l0 3.40625q0.734375 -0.921875 1.890625 -0.921875q0.640625 0 1.203125 0.265625q0.578125 0.25 0.9375 0.71875q0.375 0.453125 0.578125 1.109375q0.203125 0.65625 0.203125 1.40625q0 1.78125 -0.875 2.75q-0.875 0.96875 -2.109375 0.96875q-1.21875 0 -1.921875 -1.015625l0 0.859375zm0 -3.5q0 1.234375 0.328125 1.78125q0.5625 0.90625 1.5 0.90625q0.765625 0 1.328125 -0.65625q0.5625 -0.671875 0.5625 -2.0q0 -1.34375 -0.546875 -1.984375q-0.53125 -0.65625 -1.296875 -0.65625q-0.765625 0 -1.328125 0.671875q-0.546875 0.671875 -0.546875 1.9375zm6.3187256 3.5l0 -9.546875l1.171875 0l0 9.546875l-1.171875 0zm7.7110596 -2.21875l1.203125 0.140625q-0.28125 1.0625 -1.0625 1.65625q-0.765625 0.578125 -1.96875 0.578125q-1.515625 0 -2.40625 -0.9375q-0.890625 -0.9375 -0.890625 -2.609375q0 -1.75 0.890625 -2.703125q0.90625 -0.96875 2.34375 -0.96875q1.390625 0 2.265625 0.9375q0.875 0.9375 0.875 2.65625q0 0.109375 0 0.3125l-5.15625 0q0.0625 1.140625 0.640625 1.75q0.578125 0.59375 1.4375 0.59375q0.65625 0 1.109375 -0.328125q0.453125 -0.34375 0.71875 -1.078125zm-3.84375 -1.90625l3.859375 0q-0.078125 -0.859375 -0.4375 -1.296875q-0.5625 -0.6875 -1.453125 -0.6875q-0.8125 0 -1.359375 0.546875q-0.546875 0.53125 -0.609375 1.4375zm11.006226 4.125l0 -0.875q-0.65625 1.03125 -1.9375 1.03125q-0.8125 0 -1.515625 -0.453125q-0.6875 -0.453125 -1.078125 -1.265625q-0.375 -0.828125 -0.375 -1.890625q0 -1.03125 0.34375 -1.875q0.34375 -0.84375 1.03125 -1.28125q0.703125 -0.453125 1.546875 -0.453125q0.625 0 1.109375 0.265625q0.5 0.25 0.796875 0.671875l0 -3.421875l1.171875 0l0 9.546875l-1.09375 0zm-3.703125 -3.453125q0 1.328125 0.5625 1.984375q0.5625 0.65625 1.328125 0.65625q0.765625 0 1.296875 -0.625q0.53125 -0.625 0.53125 -1.90625q0 -1.421875 -0.546875 -2.078125q-0.546875 -0.671875 -1.34375 -0.671875q-0.78125 0 -1.3125 0.640625q-0.515625 0.625 -0.515625 2.0z" fill-rule="nonzero"></path><path fill="#000000" fill-opacity="0.0" d="m550.6168 54.485565l-16.252014 -25.322836" fill-rule="evenodd"></path><path stroke="#a61c00" stroke-width="1.0" stroke-linejoin="round" stroke-linecap="butt" d="m550.6168 54.485565l-13.01123 -20.27332" fill-rule="evenodd"></path><path fill="#a61c00" stroke="#a61c00" stroke-width="1.0" stroke-linecap="butt" d="m538.99567 33.32011l-3.8412476 -2.927063l1.0610962 4.711338z" fill-rule="evenodd"></path><path fill="#000000" fill-opacity="0.0" d="m133.28609 62.485565l-39.02362 -33.322838" fill-rule="evenodd"></path><path stroke="#a61c00" stroke-width="1.0" stroke-linejoin="round" stroke-linecap="butt" d="m133.28609 62.485565l-34.460815 -29.426586" fill-rule="evenodd"></path><path fill="#a61c00" stroke="#a61c00" stroke-width="1.0" stroke-linecap="butt" d="m99.89787 31.802889l-4.523674 -1.690836l2.3784866 4.203018z" fill-rule="evenodd"></path></g></svg>

