<?xml version="1.0" encoding="UTF-8" standalone="no"?>
<svg
   xmlns:dc="http://purl.org/dc/elements/1.1/"
   xmlns:cc="http://creativecommons.org/ns#"
   xmlns:rdf="http://www.w3.org/1999/02/22-rdf-syntax-ns#"
   xmlns:svg="http://www.w3.org/2000/svg"
   xmlns="http://www.w3.org/2000/svg"
   version="1.1"
   id="svg2"
   xml:space="preserve"
   width="380.444"
   height="83.743332"
   viewBox="0 0 380.444 83.743332"><metadata
     id="metadata8"><rdf:RDF><cc:Work
         rdf:about=""><dc:format>image/svg+xml</dc:format><dc:type
           rdf:resource="http://purl.org/dc/dcmitype/StillImage" /></cc:Work></rdf:RDF></metadata><defs
     id="defs6"><clipPath
       clipPathUnits="userSpaceOnUse"
       id="clipPath18"><path
         d="m 166.442,665.169 c -1.068,-16.035 13.147,-34.131 4.466,-53.868 v 0 h 125.554 l 0.021,53.868 z"
         id="path16" /></clipPath><clipPath
       clipPathUnits="userSpaceOnUse"
       id="clipPath316"><path
         d="M 0,792 H 612 V 0 H 0 Z"
         id="path314" /></clipPath></defs><g
     id="g10"
     transform="matrix(1.3333333,0,0,-1.3333333,-221.42253,885.07638)"><g
       id="g12"><g
         id="g14"
         clip-path="url(#clipPath18)"><g
           id="g20"
           transform="translate(293.3682,615.4395)"><path
             d="m 0,0 c 0,-1.65 -1.35,-3 -3,-3 h -138.08 c -1.649,0 -3,1.35 -3,3 v 44.154 c 0,1.65 1.351,3 3,3 H -3 c 1.65,0 3,-1.35 3,-3 z"
             style="fill:#deecf5;fill-opacity:1;fill-rule:nonzero;stroke:none"
             id="path22" /></g><g
           id="g24"
           transform="translate(293.3682,615.4395)"><path
             d="m 0,0 c 0,-1.65 -1.35,-3 -3,-3 h -138.08 c -1.649,0 -3,1.35 -3,3 v 44.154 c 0,1.65 1.351,3 3,3 H -3 c 1.65,0 3,-1.35 3,-3 z"
             style="fill:none;stroke:#231f20;stroke-width:0.5;stroke-linecap:butt;stroke-linejoin:round;stroke-miterlimit:14.336;stroke-dasharray:none;stroke-opacity:1"
             id="path26" /></g><g
           id="g28"
           transform="translate(209.5693,632.9199)"><path
             d="m 0,0 c 0,1.1 0.9,2 2,2 h 19.518 c 1.1,0 2,-0.9 2,-2 v -12.49 c 0,-1.1 -0.9,-2 -2,-2 H 2 c -1.1,0 -2,0.9 -2,2 z"
             style="fill:#feefe9;fill-opacity:1;fill-rule:nonzero;stroke:none"
             id="path30" /></g><g
           id="g32"
           transform="translate(209.5693,632.9199)"><path
             d="m 0,0 c 0,1.1 0.9,2 2,2 h 19.518 c 1.1,0 2,-0.9 2,-2 v -12.49 c 0,-1.1 -0.9,-2 -2,-2 H 2 c -1.1,0 -2,0.9 -2,2 z"
             style="fill:none;stroke:#d91920;stroke-width:1;stroke-linecap:butt;stroke-linejoin:round;stroke-miterlimit:4;stroke-dasharray:none;stroke-opacity:1"
             id="path34" /></g><g
           id="g36"
           transform="translate(237.6909,632.9199)"><path
             d="m 0,0 c 0,1.1 0.9,2 2,2 h 19.52 c 1.1,0 2,-0.9 2,-2 v -12.49 c 0,-1.1 -0.9,-2 -2,-2 H 2 c -1.1,0 -2,0.9 -2,2 z"
             style="fill:#feefe9;fill-opacity:1;fill-rule:nonzero;stroke:none"
             id="path38" /></g><g
           id="g40"
           transform="translate(237.6909,632.9199)"><path
             d="m 0,0 c 0,1.1 0.9,2 2,2 h 19.52 c 1.1,0 2,-0.9 2,-2 v -12.49 c 0,-1.1 -0.9,-2 -2,-2 H 2 c -1.1,0 -2,0.9 -2,2 z"
             style="fill:none;stroke:#d91920;stroke-width:1;stroke-linecap:butt;stroke-linejoin:round;stroke-miterlimit:4;stroke-dasharray:none;stroke-opacity:1"
             id="path42" /></g><g
           id="g44"
           transform="translate(265.8135,632.7168)"><path
             d="m 0,0 c 0,1.1 0.9,2 2,2 h 19.52 c 1.099,0 2,-0.9 2,-2 v -12.49 c 0,-1.1 -0.901,-2 -2,-2 H 2 c -1.1,0 -2,0.9 -2,2 z"
             style="fill:#feefe9;fill-opacity:1;fill-rule:nonzero;stroke:none"
             id="path46" /></g><g
           id="g48"
           transform="translate(265.8135,632.7168)"><path
             d="m 0,0 c 0,1.1 0.9,2 2,2 h 19.52 c 1.099,0 2,-0.9 2,-2 v -12.49 c 0,-1.1 -0.901,-2 -2,-2 H 2 c -1.1,0 -2,0.9 -2,2 z"
             style="fill:none;stroke:#d91920;stroke-width:1;stroke-linecap:butt;stroke-linejoin:round;stroke-miterlimit:4;stroke-dasharray:none;stroke-opacity:1"
             id="path50" /></g><text
           transform="matrix(1,0,0,-1,273.8242,623.8984)"
           style="font-variant:normal;font-weight:normal;font-stretch:normal;font-size:7px;font-family:Arial;-inkscape-font-specification:ArialMT;writing-mode:lr-tb;fill:#231f20;fill-opacity:1;fill-rule:nonzero;stroke:none"
           id="text54"><tspan
             x="0 4.277 -28.174999 -23.898001 -56.349998 -52.073002"
             y="0"
             id="tspan52">TxTxTx</tspan></text><g
           id="g56"
           transform="translate(181.4463,632.9199)"><path
             d="m 0,0 c 0,1.1 0.9,2 2,2 h 19.52 c 1.1,0 2,-0.9 2,-2 v -12.49 c 0,-1.1 -0.9,-2 -2,-2 H 2 c -1.1,0 -2,0.9 -2,2 z"
             style="fill:#feefe9;fill-opacity:1;fill-rule:nonzero;stroke:none"
             id="path58" /></g><g
           id="g60"
           transform="translate(181.4463,632.9199)"><path
             d="m 0,0 c 0,1.1 0.9,2 2,2 h 19.52 c 1.1,0 2,-0.9 2,-2 v -12.49 c 0,-1.1 -0.9,-2 -2,-2 H 2 c -1.1,0 -2,0.9 -2,2 z"
             style="fill:none;stroke:#d91920;stroke-width:1;stroke-linecap:butt;stroke-linejoin:round;stroke-miterlimit:4;stroke-dasharray:none;stroke-opacity:1"
             id="path62" /></g><g
           id="g64"
           transform="translate(153.3237,632.9839)"><path
             d="m 0,0 c 0,1.1 0.9,2 2,2 h 19.52 c 1.1,0 2,-0.9 2,-2 v -12.487 c 0,-1.1 -0.9,-2 -2,-2 H 2 c -1.1,0 -2,0.9 -2,2 z"
             style="fill:#feefe9;fill-opacity:1;fill-rule:nonzero;stroke:none"
             id="path66" /></g><g
           id="g68"
           transform="translate(153.3237,632.9839)"><path
             d="m 0,0 c 0,1.1 0.9,2 2,2 h 19.52 c 1.1,0 2,-0.9 2,-2 v -12.487 c 0,-1.1 -0.9,-2 -2,-2 H 2 c -1.1,0 -2,0.9 -2,2 z"
             style="fill:none;stroke:#d91920;stroke-width:1;stroke-linecap:butt;stroke-linejoin:round;stroke-miterlimit:4;stroke-dasharray:none;stroke-opacity:1"
             id="path70" /></g><path
           d="M 153.324,659.006 H 289.333 V 639.045 H 153.324 Z"
           style="fill:#ffffff;fill-opacity:1;fill-rule:nonzero;stroke:#231f20;stroke-width:0.5;stroke-linecap:butt;stroke-linejoin:round;stroke-miterlimit:14.336;stroke-dasharray:none;stroke-opacity:1"
           id="path72" /><text
           transform="matrix(1,0,0,-1,189.293,623.8984)"
           style="font-variant:normal;font-weight:normal;font-stretch:normal;font-size:7px;font-family:Arial;-inkscape-font-specification:ArialMT;writing-mode:lr-tb;fill:#231f20;fill-opacity:1;fill-rule:nonzero;stroke:none"
           id="text76"><tspan
             x="0 4.277 -28.195999 -23.919001"
             y="0"
             id="tspan74">TxTx</tspan></text><g
           id="g78"
           transform="translate(236.3193,648.7363)"><path
             d="m 0,0 c 0,-4.059 3.289,-7.349 7.348,-7.349 4.058,0 7.349,3.29 7.349,7.349 0,4.06 -3.291,7.351 -7.349,7.351 C 3.289,7.351 0,4.06 0,0"
             style="fill:#8eb769;fill-opacity:1;fill-rule:nonzero;stroke:none"
             id="path80" /></g><g
           id="g82"
           transform="translate(236.3193,648.7363)"><path
             d="m 0,0 c 0,-4.059 3.289,-7.349 7.348,-7.349 4.058,0 7.349,3.29 7.349,7.349 0,4.06 -3.291,7.351 -7.349,7.351 C 3.289,7.351 0,4.06 0,0 Z"
             style="fill:none;stroke:#437029;stroke-width:0.5;stroke-linecap:butt;stroke-linejoin:miter;stroke-miterlimit:4;stroke-dasharray:none;stroke-opacity:1"
             id="path84" /></g><g
           id="g86"
           transform="translate(237.6416,648.7368)"><path
             d="m 0,0 c 0,-3.328 2.699,-6.026 6.025,-6.026 3.329,0 6.028,2.698 6.028,6.026 0,3.33 -2.699,6.027 -6.028,6.027 C 2.699,6.027 0,3.33 0,0"
             style="fill:#ffffff;fill-opacity:1;fill-rule:nonzero;stroke:none"
             id="path88" /></g><g
           id="g90"
           transform="translate(243.124,649.0435)"><path
             d="M 0,0 1.086,-0.614 3.459,4.81 3.363,4.857 Z"
             style="fill:#231f20;fill-opacity:1;fill-rule:nonzero;stroke:none"
             id="path92" /></g><g
           id="g94"
           transform="translate(243.3604,648.1938)"><path
             d="M 0,0 0.613,1.086 -2.98,2.444 -3.029,2.36 Z"
             style="fill:#231f20;fill-opacity:1;fill-rule:nonzero;stroke:none"
             id="path96" /></g><g
           id="g98"
           transform="translate(243.1748,649.0142)"><path
             d="M 0,0 C -0.152,-0.271 -0.057,-0.615 0.213,-0.769 0.486,-0.922 0.83,-0.825 0.984,-0.554 1.135,-0.283 1.041,0.061 0.768,0.214 0.498,0.368 0.152,0.271 0,0"
             style="fill:#8eb769;fill-opacity:1;fill-rule:nonzero;stroke:none"
             id="path100" /></g><g
           id="g102"
           transform="translate(243.667,649.2803)"><path
             d="m 0,0 c -0.197,0 -0.379,-0.105 -0.475,-0.276 -0.146,-0.262 -0.054,-0.594 0.205,-0.742 0.254,-0.14 0.6,-0.045 0.743,0.207 0.146,0.262 0.054,0.595 -0.207,0.74 C 0.184,-0.024 0.092,0 0,0 m -0.002,-1.366 v 0 c -0.141,0 -0.279,0.037 -0.404,0.107 -0.395,0.223 -0.532,0.724 -0.309,1.119 C -0.504,0.24 0.02,0.387 0.402,0.171 0.797,-0.05 0.938,-0.551 0.715,-0.947 0.57,-1.205 0.293,-1.366 -0.002,-1.366"
             style="fill:#231f20;fill-opacity:1;fill-rule:nonzero;stroke:none"
             id="path104" /></g><g
           id="g106"
           transform="translate(164.4097,648.8745)"><path
             d="M 0,0 -1.975,2.218 C 1.721,3.353 4.391,2.486 6.541,1.789 8.135,1.27 9.289,0.896 10.873,1.239 c 1.609,0.347 2.168,0.963 2.818,1.677 0.842,0.927 1.795,1.977 5.016,2.287 L 20.271,2.906 C 17.721,2.66 17.049,1.923 16.273,1.067 15.578,0.3 14.787,-0.567 12.695,-1.019 10.391,-1.516 8.441,-0.882 6.721,-0.325 4.777,0.308 2.939,0.905 0,0"
             style="fill:#f8a45c;fill-opacity:1;fill-rule:nonzero;stroke:none"
             id="path108" /></g><g
           id="g110"
           transform="translate(164.4097,648.8745)"><path
             d="M 0,0 -1.975,2.218 C 1.721,3.353 4.391,2.486 6.541,1.789 8.135,1.27 9.289,0.896 10.873,1.239 c 1.609,0.347 2.168,0.963 2.818,1.677 0.842,0.927 1.795,1.977 5.016,2.287 L 20.271,2.906 C 17.721,2.66 17.049,1.923 16.273,1.067 15.578,0.3 14.787,-0.567 12.695,-1.019 10.391,-1.516 8.441,-0.882 6.721,-0.325 4.777,0.308 2.939,0.905 0,0 Z"
             style="fill:none;stroke:#231f20;stroke-width:0.3;stroke-linecap:butt;stroke-linejoin:miter;stroke-miterlimit:4;stroke-dasharray:none;stroke-opacity:1"
             id="path112" /></g><g
           id="g114"
           transform="translate(168.2671,646.7656)"><path
             d="m 0,0 -1.977,2.218 c 3.694,1.138 6.368,0.269 8.516,-0.427 1.594,-0.52 2.748,-0.895 4.334,-0.552 1.607,0.347 2.166,0.963 2.816,1.678 0.842,0.928 1.797,1.978 5.014,2.287 l 1.57,-2.296 C 17.721,2.661 17.049,1.923 16.271,1.067 15.576,0.302 14.787,-0.567 12.693,-1.018 10.391,-1.515 8.441,-0.882 6.721,-0.323 4.777,0.308 2.938,0.905 0,0"
             style="fill:#f8a45c;fill-opacity:1;fill-rule:nonzero;stroke:none"
             id="path116" /></g><g
           id="g118"
           transform="translate(168.2671,646.7656)"><path
             d="m 0,0 -1.977,2.218 c 3.694,1.138 6.368,0.269 8.516,-0.427 1.594,-0.52 2.748,-0.895 4.334,-0.552 1.607,0.347 2.166,0.963 2.816,1.678 0.842,0.928 1.797,1.978 5.014,2.287 l 1.57,-2.296 C 17.721,2.661 17.049,1.923 16.271,1.067 15.576,0.302 14.787,-0.567 12.693,-1.018 10.391,-1.515 8.441,-0.882 6.721,-0.323 4.777,0.308 2.938,0.905 0,0 Z"
             style="fill:none;stroke:#231f20;stroke-width:0.3;stroke-linecap:butt;stroke-linejoin:miter;stroke-miterlimit:4;stroke-dasharray:none;stroke-opacity:1"
             id="path120" /></g><g
           id="g122"
           transform="translate(167.4097,644.415)"><path
             d="M 0,0 -1.973,2.217 C 1.721,3.355 4.395,2.486 6.543,1.789 8.137,1.272 9.291,0.896 10.875,1.238 c 1.609,0.348 2.168,0.965 2.818,1.68 0.84,0.925 1.795,1.977 5.012,2.285 l 1.57,-2.297 C 17.723,2.662 17.053,1.924 16.271,1.066 15.576,0.301 14.789,-0.568 12.695,-1.02 10.393,-1.515 8.445,-0.884 6.723,-0.324 4.779,0.309 2.941,0.905 0,0"
             style="fill:#f8a45c;fill-opacity:1;fill-rule:nonzero;stroke:none"
             id="path124" /></g><g
           id="g126"
           transform="translate(167.4097,644.415)"><path
             d="M 0,0 -1.973,2.217 C 1.721,3.355 4.395,2.486 6.543,1.789 8.137,1.272 9.291,0.896 10.875,1.238 c 1.609,0.348 2.168,0.965 2.818,1.68 0.84,0.925 1.795,1.977 5.012,2.285 l 1.57,-2.297 C 17.723,2.662 17.053,1.924 16.271,1.066 15.576,0.301 14.789,-0.568 12.695,-1.02 10.393,-1.515 8.445,-0.884 6.723,-0.324 4.779,0.309 2.941,0.905 0,0 Z"
             style="fill:none;stroke:#231f20;stroke-width:0.3;stroke-linecap:butt;stroke-linejoin:miter;stroke-miterlimit:4;stroke-dasharray:none;stroke-opacity:1"
             id="path128" /></g><g
           id="g130"
           transform="translate(171.3335,642.3291)"><path
             d="M 0,0 -1.975,2.219 C 1.719,3.354 4.393,2.487 6.539,1.791 8.135,1.271 9.287,0.896 10.873,1.24 c 1.609,0.347 2.17,0.964 2.816,1.677 0.844,0.928 1.799,1.977 5.016,2.287 L 20.273,2.908 C 17.721,2.662 17.049,1.923 16.271,1.066 15.576,0.301 14.789,-0.565 12.695,-1.019 10.393,-1.516 8.443,-0.881 6.721,-0.323 4.777,0.309 2.939,0.906 0,0"
             style="fill:#f8a45c;fill-opacity:1;fill-rule:nonzero;stroke:none"
             id="path132" /></g><g
           id="g134"
           transform="translate(171.3335,642.3291)"><path
             d="M 0,0 -1.975,2.219 C 1.719,3.354 4.393,2.487 6.539,1.791 8.135,1.271 9.287,0.896 10.873,1.24 c 1.609,0.347 2.17,0.964 2.816,1.677 0.844,0.928 1.799,1.977 5.016,2.287 L 20.273,2.908 C 17.721,2.662 17.049,1.923 16.271,1.066 15.576,0.301 14.789,-0.565 12.695,-1.019 10.393,-1.516 8.443,-0.881 6.721,-0.323 4.777,0.309 2.939,0.906 0,0 Z"
             style="fill:none;stroke:#231f20;stroke-width:0.3;stroke-linecap:butt;stroke-linejoin:miter;stroke-miterlimit:4;stroke-dasharray:none;stroke-opacity:1"
             id="path136" /></g><g
           id="g138"
           transform="translate(165.0112,651.2949)"><path
             d="M 0,0 -1.977,2.218 C 1.719,3.355 4.391,2.486 6.539,1.791 8.133,1.271 9.287,0.897 10.875,1.24 c 1.605,0.347 2.164,0.963 2.814,1.678 0.842,0.927 1.797,1.978 5.012,2.287 l 1.57,-2.298 C 17.721,2.663 17.049,1.923 16.27,1.069 15.574,0.302 14.787,-0.565 12.693,-1.019 10.391,-1.515 8.439,-0.88 6.719,-0.322 4.773,0.308 2.939,0.906 0,0"
             style="fill:#f8a45c;fill-opacity:1;fill-rule:nonzero;stroke:none"
             id="path140" /></g><g
           id="g142"
           transform="translate(165.0112,651.2949)"><path
             d="M 0,0 -1.977,2.218 C 1.719,3.355 4.391,2.486 6.539,1.791 8.133,1.271 9.287,0.897 10.875,1.24 c 1.605,0.347 2.164,0.963 2.814,1.678 0.842,0.927 1.797,1.978 5.012,2.287 l 1.57,-2.298 C 17.721,2.663 17.049,1.923 16.27,1.069 15.574,0.302 14.787,-0.565 12.693,-1.019 10.391,-1.515 8.439,-0.88 6.719,-0.322 4.773,0.308 2.939,0.906 0,0 Z"
             style="fill:none;stroke:#231f20;stroke-width:0.3;stroke-linecap:butt;stroke-linejoin:miter;stroke-miterlimit:4;stroke-dasharray:none;stroke-opacity:1"
             id="path144" /></g><g
           id="g146"
           transform="translate(165.1362,653.2734)"><path
             d="M 0,0 2.695,0.241 3.869,-0.384 2.113,-0.273 Z"
             style="fill:#231f20;fill-opacity:1;fill-rule:nonzero;stroke:none"
             id="path148" /></g><g
           id="g150"
           transform="translate(172.0249,651.9063)"><path
             d="m 0,0 2.877,-1.085 1.859,0.586 -2.359,0.308 z"
             style="fill:#231f20;fill-opacity:1;fill-rule:nonzero;stroke:none"
             id="path152" /></g><g
           id="g154"
           transform="translate(173.1558,648.4453)"><path
             d="m 0,0 -2.025,0.104 -0.829,-0.562 2.055,0.206 2.631,-1.051 1.65,0.022 -2.275,0.887 z"
             style="fill:#231f20;fill-opacity:1;fill-rule:nonzero;stroke:none"
             id="path156" /></g><g
           id="g158"
           transform="translate(185.0913,648.6699)"><path
             d="M 0,0 C -0.514,-0.052 -1.826,-0.354 -1.826,-0.354 L -2.83,-2 l 1.414,1 2.199,0.307 z"
             style="fill:#231f20;fill-opacity:1;fill-rule:nonzero;stroke:none"
             id="path160" /></g><g
           id="g162"
           transform="translate(186.1343,644.6289)"><path
             d="m 0,0 -0.934,-1.18 -2.127,-0.671 1.194,-0.509 1.75,0.718 z"
             style="fill:#231f20;fill-opacity:1;fill-rule:nonzero;stroke:none"
             id="path164" /></g><g
           id="g166"
           transform="translate(177.2378,643.5356)"><path
             d="M 0,0 -2.061,0.625 -3.637,0.236 -1.756,0.111 Z"
             style="fill:#231f20;fill-opacity:1;fill-rule:nonzero;stroke:none"
             id="path168" /></g><g
           id="g170"
           transform="translate(170.3979,646.0815)"><path
             d="M 0,0 -1.17,-0.204 0.461,-0.296 Z"
             style="fill:#231f20;fill-opacity:1;fill-rule:nonzero;stroke:none"
             id="path172" /></g><g
           id="g174"
           transform="translate(179.9292,653.1265)"><path
             d="m 0,0 -1.453,-0.402 -1.715,-1.317 2.355,0.522 z"
             style="fill:#f9aeca;fill-opacity:1;fill-rule:evenodd;stroke:none"
             id="path176" /></g><g
           id="g178"
           transform="translate(181.7847,646.022)"><path
             d="m 0,0 -1.912,-0.936 -0.209,-0.563 1.84,0.471 z"
             style="fill:#f9aeca;fill-opacity:1;fill-rule:evenodd;stroke:none"
             id="path180" /></g><g
           id="g182"
           transform="translate(189.9761,646.6147)"><path
             d="m 0,0 -2.143,-0.787 -0.156,-1.044 1.774,0.834 z"
             style="fill:#f9aeca;fill-opacity:1;fill-rule:evenodd;stroke:none"
             id="path184" /></g><g
           id="g186"
           transform="translate(169.1011,646.7236)"><path
             d="m 0,0 -1.449,-1.232 -0.52,0.778 z"
             style="fill:#f9aeca;fill-opacity:1;fill-rule:evenodd;stroke:none"
             id="path188" /></g><g
           id="g190"
           transform="translate(177.853,649.3726)"><path
             d="m 0,0 -2.627,0.223 1.42,-0.656 z"
             style="fill:#96cd56;fill-opacity:1;fill-rule:evenodd;stroke:none"
             id="path192" /></g><g
           id="g194"
           transform="translate(180.4312,642.8848)"><path
             d="m 0,0 -2.449,0.555 c 0,0 1.263,-0.875 1.617,-1.039 0.355,-0.164 2.486,-0.323 2.486,-0.323 z"
             style="fill:#96cd56;fill-opacity:1;fill-rule:evenodd;stroke:none"
             id="path196" /></g><g
           id="g198"
           transform="translate(169.9604,649.0977)"><path
             d="m 0,0 -2.164,-0.075 0.838,-1.173 z"
             style="fill:#96cd56;fill-opacity:1;fill-rule:evenodd;stroke:none"
             id="path200" /></g><g
           id="g202"
           transform="translate(182.9351,655.4575)"><path
             d="m 0,0 -2.426,-0.987 c 0,0 -0.97,-1.411 -0.58,-1.344 0.391,0.068 2.07,1.151 2.07,1.151 z"
             style="fill:#96cd56;fill-opacity:1;fill-rule:evenodd;stroke:none"
             id="path204" /></g><g
           id="g206"
           transform="translate(199.7974,648.8745)"><path
             d="m 0,0 -1.975,2.218 c 3.696,1.135 6.366,0.268 8.514,-0.429 1.594,-0.519 2.75,-0.893 4.334,-0.55 1.609,0.347 2.168,0.963 2.818,1.677 0.84,0.927 1.795,1.977 5.015,2.287 L 20.272,2.906 C 17.721,2.66 17.049,1.923 16.272,1.067 15.577,0.3 14.787,-0.567 12.693,-1.019 10.391,-1.516 8.441,-0.882 6.721,-0.325 4.777,0.308 2.939,0.905 0,0"
             style="fill:#f8a45c;fill-opacity:1;fill-rule:nonzero;stroke:none"
             id="path208" /></g><g
           id="g210"
           transform="translate(199.7974,648.8745)"><path
             d="m 0,0 -1.975,2.218 c 3.696,1.135 6.366,0.268 8.514,-0.429 1.594,-0.519 2.75,-0.893 4.334,-0.55 1.609,0.347 2.168,0.963 2.818,1.677 0.84,0.927 1.795,1.977 5.015,2.287 L 20.272,2.906 C 17.721,2.66 17.049,1.923 16.272,1.067 15.577,0.3 14.787,-0.567 12.693,-1.019 10.391,-1.516 8.441,-0.882 6.721,-0.325 4.777,0.308 2.939,0.905 0,0 Z"
             style="fill:none;stroke:#231f20;stroke-width:0.3;stroke-linecap:butt;stroke-linejoin:miter;stroke-miterlimit:4;stroke-dasharray:none;stroke-opacity:1"
             id="path212" /></g><g
           id="g214"
           transform="translate(203.6548,646.7656)"><path
             d="m 0,0 -1.977,2.218 c 3.694,1.138 6.368,0.269 8.516,-0.427 1.594,-0.52 2.748,-0.895 4.334,-0.552 1.608,0.347 2.167,0.963 2.817,1.678 0.842,0.928 1.797,1.978 5.012,2.287 L 20.27,2.908 C 17.719,2.661 17.049,1.923 16.272,1.067 15.577,0.302 14.786,-0.567 12.694,-1.018 10.391,-1.515 8.439,-0.882 6.719,-0.323 4.777,0.308 2.938,0.905 0,0"
             style="fill:#f8a45c;fill-opacity:1;fill-rule:nonzero;stroke:none"
             id="path216" /></g><g
           id="g218"
           transform="translate(203.6548,646.7656)"><path
             d="m 0,0 -1.977,2.218 c 3.694,1.138 6.368,0.269 8.516,-0.427 1.594,-0.52 2.748,-0.895 4.334,-0.552 1.608,0.347 2.167,0.963 2.817,1.678 0.842,0.928 1.797,1.978 5.012,2.287 L 20.27,2.908 C 17.719,2.661 17.049,1.923 16.272,1.067 15.577,0.302 14.786,-0.567 12.694,-1.018 10.391,-1.515 8.439,-0.882 6.719,-0.323 4.777,0.308 2.938,0.905 0,0 Z"
             style="fill:none;stroke:#231f20;stroke-width:0.3;stroke-linecap:butt;stroke-linejoin:miter;stroke-miterlimit:4;stroke-dasharray:none;stroke-opacity:1"
             id="path220" /></g><g
           id="g222"
           transform="translate(202.7974,644.415)"><path
             d="M 0,0 -1.973,2.217 C 1.721,3.355 4.393,2.486 6.543,1.789 8.137,1.272 9.291,0.896 10.875,1.238 c 1.609,0.348 2.168,0.965 2.817,1.68 0.844,0.925 1.797,1.977 5.012,2.285 l 1.57,-2.297 C 17.723,2.662 17.053,1.924 16.272,1.066 15.577,0.301 14.79,-0.568 12.696,-1.02 10.393,-1.515 8.443,-0.884 6.723,-0.324 4.779,0.309 2.941,0.905 0,0"
             style="fill:#f8a45c;fill-opacity:1;fill-rule:nonzero;stroke:none"
             id="path224" /></g><g
           id="g226"
           transform="translate(202.7974,644.415)"><path
             d="M 0,0 -1.973,2.217 C 1.721,3.355 4.393,2.486 6.543,1.789 8.137,1.272 9.291,0.896 10.875,1.238 c 1.609,0.348 2.168,0.965 2.817,1.68 0.844,0.925 1.797,1.977 5.012,2.285 l 1.57,-2.297 C 17.723,2.662 17.053,1.924 16.272,1.066 15.577,0.301 14.79,-0.568 12.696,-1.02 10.393,-1.515 8.443,-0.884 6.723,-0.324 4.779,0.309 2.941,0.905 0,0 Z"
             style="fill:none;stroke:#231f20;stroke-width:0.3;stroke-linecap:butt;stroke-linejoin:miter;stroke-miterlimit:4;stroke-dasharray:none;stroke-opacity:1"
             id="path228" /></g><g
           id="g230"
           transform="translate(206.7212,642.3291)"><path
             d="M 0,0 -1.975,2.219 C 1.719,3.354 4.393,2.487 6.539,1.791 8.135,1.271 9.288,0.896 10.874,1.24 c 1.609,0.347 2.169,0.964 2.816,1.677 0.842,0.928 1.797,1.977 5.014,2.287 L 20.272,2.908 C 17.719,2.662 17.047,1.923 16.27,1.066 15.575,0.301 14.788,-0.565 12.696,-1.019 10.393,-1.516 8.443,-0.881 6.721,-0.323 4.777,0.309 2.939,0.906 0,0"
             style="fill:#f8a45c;fill-opacity:1;fill-rule:nonzero;stroke:none"
             id="path232" /></g><g
           id="g234"
           transform="translate(206.7212,642.3291)"><path
             d="M 0,0 -1.975,2.219 C 1.719,3.354 4.393,2.487 6.539,1.791 8.135,1.271 9.288,0.896 10.874,1.24 c 1.609,0.347 2.169,0.964 2.816,1.677 0.842,0.928 1.797,1.977 5.014,2.287 L 20.272,2.908 C 17.719,2.662 17.047,1.923 16.27,1.066 15.575,0.301 14.788,-0.565 12.696,-1.019 10.393,-1.516 8.443,-0.881 6.721,-0.323 4.777,0.309 2.939,0.906 0,0 Z"
             style="fill:none;stroke:#231f20;stroke-width:0.3;stroke-linecap:butt;stroke-linejoin:miter;stroke-miterlimit:4;stroke-dasharray:none;stroke-opacity:1"
             id="path236" /></g><g
           id="g238"
           transform="translate(200.3989,651.2949)"><path
             d="M 0,0 -1.977,2.218 C 1.719,3.355 4.391,2.486 6.539,1.791 8.133,1.271 9.287,0.897 10.873,1.24 c 1.607,0.347 2.166,0.963 2.816,1.678 0.842,0.927 1.798,1.978 5.013,2.287 l 1.57,-2.298 C 17.721,2.663 17.049,1.923 16.27,1.069 15.575,0.302 14.787,-0.565 12.693,-1.019 10.391,-1.515 8.439,-0.88 6.719,-0.322 4.773,0.308 2.939,0.906 0,0"
             style="fill:#f8a45c;fill-opacity:1;fill-rule:nonzero;stroke:none"
             id="path240" /></g><g
           id="g242"
           transform="translate(200.3989,651.2949)"><path
             d="M 0,0 -1.977,2.218 C 1.719,3.355 4.391,2.486 6.539,1.791 8.133,1.271 9.287,0.897 10.873,1.24 c 1.607,0.347 2.166,0.963 2.816,1.678 0.842,0.927 1.798,1.978 5.013,2.287 l 1.57,-2.298 C 17.721,2.663 17.049,1.923 16.27,1.069 15.575,0.302 14.787,-0.565 12.693,-1.019 10.391,-1.515 8.439,-0.88 6.719,-0.322 4.773,0.308 2.939,0.906 0,0 Z"
             style="fill:none;stroke:#231f20;stroke-width:0.3;stroke-linecap:butt;stroke-linejoin:miter;stroke-miterlimit:4;stroke-dasharray:none;stroke-opacity:1"
             id="path244" /></g><g
           id="g246"
           transform="translate(200.5239,653.2734)"><path
             d="M 0,0 2.693,0.241 3.869,-0.384 2.113,-0.273 Z"
             style="fill:#231f20;fill-opacity:1;fill-rule:nonzero;stroke:none"
             id="path248" /></g><g
           id="g250"
           transform="translate(207.4126,651.9063)"><path
             d="m 0,0 2.877,-1.085 1.857,0.586 -2.357,0.308 z"
             style="fill:#231f20;fill-opacity:1;fill-rule:nonzero;stroke:none"
             id="path252" /></g><g
           id="g254"
           transform="translate(208.5435,648.4453)"><path
             d="m 0,0 -2.025,0.104 -0.829,-0.562 2.055,0.206 2.629,-1.051 1.65,0.022 -2.273,0.887 z"
             style="fill:#231f20;fill-opacity:1;fill-rule:nonzero;stroke:none"
             id="path256" /></g><g
           id="g258"
           transform="translate(220.4795,648.6699)"><path
             d="M 0,0 C -0.514,-0.052 -1.828,-0.354 -1.828,-0.354 L -2.83,-2 l 1.414,1 2.197,0.307 z"
             style="fill:#231f20;fill-opacity:1;fill-rule:nonzero;stroke:none"
             id="path260" /></g><g
           id="g262"
           transform="translate(221.5205,644.6289)"><path
             d="m 0,0 -0.932,-1.18 -2.127,-0.671 1.192,-0.509 1.75,0.718 z"
             style="fill:#231f20;fill-opacity:1;fill-rule:nonzero;stroke:none"
             id="path264" /></g><g
           id="g266"
           transform="translate(212.6235,643.5356)"><path
             d="M 0,0 -2.059,0.625 -3.635,0.236 -1.756,0.111 Z"
             style="fill:#231f20;fill-opacity:1;fill-rule:nonzero;stroke:none"
             id="path268" /></g><g
           id="g270"
           transform="translate(205.7856,646.0815)"><path
             d="M 0,0 -1.17,-0.204 0.461,-0.296 Z"
             style="fill:#231f20;fill-opacity:1;fill-rule:nonzero;stroke:none"
             id="path272" /></g><g
           id="g274"
           transform="translate(215.3169,653.1265)"><path
             d="m 0,0 -1.453,-0.402 -1.717,-1.317 2.357,0.522 z"
             style="fill:#f9aeca;fill-opacity:1;fill-rule:evenodd;stroke:none"
             id="path276" /></g><g
           id="g278"
           transform="translate(217.1729,646.022)"><path
             d="m 0,0 -1.913,-0.936 -0.211,-0.563 1.843,0.471 z"
             style="fill:#f9aeca;fill-opacity:1;fill-rule:evenodd;stroke:none"
             id="path280" /></g><g
           id="g282"
           transform="translate(225.3623,646.6147)"><path
             d="m 0,0 -2.143,-0.787 -0.156,-1.044 1.774,0.834 z"
             style="fill:#f9aeca;fill-opacity:1;fill-rule:evenodd;stroke:none"
             id="path284" /></g><g
           id="g286"
           transform="translate(204.4888,646.7236)"><path
             d="m 0,0 -1.449,-1.232 -0.52,0.778 z"
             style="fill:#f9aeca;fill-opacity:1;fill-rule:evenodd;stroke:none"
             id="path288" /></g><g
           id="g290"
           transform="translate(213.2388,649.3726)"><path
             d="m 0,0 -2.625,0.223 1.42,-0.656 z"
             style="fill:#96cd56;fill-opacity:1;fill-rule:evenodd;stroke:none"
             id="path292" /></g><g
           id="g294"
           transform="translate(215.8193,642.8848)"><path
             d="m 0,0 -2.452,0.555 c 0,0 1.266,-0.875 1.619,-1.039 0.356,-0.164 2.487,-0.323 2.487,-0.323 z"
             style="fill:#96cd56;fill-opacity:1;fill-rule:evenodd;stroke:none"
             id="path296" /></g><g
           id="g298"
           transform="translate(205.3481,649.0977)"><path
             d="m 0,0 -2.166,-0.075 0.84,-1.173 z"
             style="fill:#96cd56;fill-opacity:1;fill-rule:evenodd;stroke:none"
             id="path300" /></g><g
           id="g302"
           transform="translate(218.3232,655.4575)"><path
             d="m 0,0 -2.426,-0.987 c 0,0 -0.971,-1.411 -0.58,-1.344 0.391,0.068 2.07,1.151 2.07,1.151 z"
             style="fill:#96cd56;fill-opacity:1;fill-rule:evenodd;stroke:none"
             id="path304" /></g><g
           id="g306"
           transform="translate(268.666,644.3877)"><path
             d="M 0,0 C 0.889,-0.16 1.197,-0.925 1.729,-1.46 1.875,-0.476 2.262,0.252 2.658,0.974 2.649,1.057 2.639,1.138 2.526,1.114 1.828,0.588 0.742,0.476 0,0 M 3.655,2.156 C 3.901,2.198 4.045,2.35 4.256,2.433 4.209,2.638 4.236,2.922 4.056,2.99 3.947,2.685 3.771,2.449 3.655,2.156 M 0.398,2.225 C 0.753,3.011 1.143,3.76 1.529,4.517 0.949,4.677 0.258,4.718 -0.4,4.793 0.004,4.082 0.266,3.224 0.398,2.225 M -3.391,4.727 C -3.654,4.248 -3.758,3.623 -3.923,2.99 -4.07,2.427 -4.109,1.638 -4.589,1.391 -4.758,2.339 -4.16,3.606 -3.923,4.586 -5.731,4.22 -7.238,2.854 -7.183,0.833 c 0.041,-1.493 1.162,-2.027 2.726,-2.015 3.32,0.03 5.746,3.001 3.524,5.975 -0.655,0.134 -1.601,-0.022 -2.458,-0.066 m 0.131,0.417 c 0.588,0.126 1.365,0.055 1.929,0.208 -0.48,0.47 -0.874,1.031 -1.263,1.598 C -2.765,6.292 -3.057,5.765 -3.26,5.144 M 4.521,4.727 C 4.924,5.764 5.712,6.77 5.984,7.714 5.369,6.897 4.57,5.901 4.521,4.727 m 7.512,5.836 C 10.209,10.41 8.008,9.826 7.047,8.688 6.475,8.01 6.199,7.003 5.717,6.116 5.219,5.194 4.002,3.743 4.653,2.71 c 2.714,1.665 5.452,3.395 7.845,5.351 0.768,0.627 1.707,1.354 2.065,2.363 -0.79,0.309 -1.69,0.209 -2.53,0.139 M 5.052,2.433 C 6.627,1.717 7.922,3.026 9.241,3.266 9.564,2.903 9.191,2.158 9.375,1.737 10.331,1.046 12.189,1.297 12.896,0.348 12.478,0.016 11.91,0.557 11.169,0.764 9.891,1.122 8.494,0.904 8.975,2.78 7.832,2.244 5.914,1.242 4.588,2.156 4.141,1.927 3.762,1.626 3.256,1.46 2.729,0.343 2.289,-0.864 1.86,-2.085 c -0.922,0.332 -0.952,1.6 -2.059,1.737 -0.183,-0.274 -0.246,-0.669 -0.333,-1.042 0.259,-0.07 0.536,0.767 0.93,0.557 0.034,-0.534 -0.566,-0.979 -1.064,-1.182 -0.55,0.348 -0.125,1.136 0,1.738 -0.842,-0.67 -2.543,-1.417 -4.19,-1.321 -0.633,0.036 -1.443,0.193 -1.929,0.557 -1.203,0.903 -0.882,3.269 -0.066,4.377 0.758,1.027 1.843,1.394 3.06,1.738 0.37,0.607 0.568,1.398 0.863,2.083 0.377,0.029 0.477,0.1 0.598,0.488 1.969,0.769 4.242,1.217 5.851,2.364 C 1.48,9.631 -0.759,8.948 -2.861,8.34 -3.527,8.147 -4.199,7.798 -4.856,7.923 c 0.077,0.413 0.626,0.464 0.933,0.555 1.053,0.315 2.231,0.64 3.391,0.973 1.505,0.432 3.118,1.05 4.655,0.904 C 4.16,9.629 3.399,9.421 2.925,9.173 1.477,8.42 -0.506,7.88 -2.128,7.227 -1.859,6.326 -1.195,5.842 -0.666,5.213 0.206,5.219 0.926,5.07 1.66,4.935 2.453,5.892 3.105,7.179 3.855,8.269 4.057,8.565 4.332,9.064 4.719,9.034 4.595,8.225 3.915,7.641 3.457,6.95 2.998,6.26 2.613,5.5 2.194,4.793 2.685,4.452 3.484,4.43 3.655,3.752 3.054,3.618 2.649,4.271 2.059,4.377 1.207,3.349 0.75,1.903 0.131,0.627 c 1.105,0.21 1.92,0.729 2.859,1.11 0.377,0.868 0.899,1.426 0.997,2.64 0.178,2.181 1.51,3.46 2.795,4.587 0.066,0.348 0.274,0.549 0.398,0.834 0.258,0.061 0.237,-0.169 0.398,-0.208 1.354,0.978 3.858,1.642 6.117,1.461 0.409,-0.035 1.342,-0.149 1.33,-0.696 C 15.01,9.475 13.605,8.461 12.967,7.923 10.605,5.945 7.406,3.919 5.052,2.433"
             style="fill:#2c81ab;fill-opacity:1;fill-rule:evenodd;stroke:none"
             id="path308" /></g></g></g><g
       id="g310"><g
         id="g312"
         clip-path="url(#clipPath316)"><g
           id="g318"
           transform="translate(448.5,615.4395)"><path
             d="m 0,0 c 0,-1.65 -1.35,-3 -3,-3 h -141.275 c -1.65,0 -3,1.35 -3,3 v 44.154 c 0,1.65 1.35,3 3,3 H -3 c 1.65,0 3,-1.35 3,-3 z"
             style="fill:#deecf5;fill-opacity:1;fill-rule:nonzero;stroke:none"
             id="path320" /></g><g
           id="g322"
           transform="translate(448.5,615.4395)"><path
             d="m 0,0 c 0,-1.65 -1.35,-3 -3,-3 h -141.275 c -1.65,0 -3,1.35 -3,3 v 44.154 c 0,1.65 1.35,3 3,3 H -3 c 1.65,0 3,-1.35 3,-3 z"
             style="fill:none;stroke:#231f20;stroke-width:0.5;stroke-linecap:butt;stroke-linejoin:round;stroke-miterlimit:14.336;stroke-dasharray:none;stroke-opacity:1"
             id="path324" /></g><g
           id="g326"
           transform="translate(390.8779,632.9199)"><path
             d="m 0,0 c 0,1.1 0.9,2 2,2 h 19.52 c 1.099,0 2,-0.9 2,-2 v -12.49 c 0,-1.1 -0.901,-2 -2,-2 H 2 c -1.1,0 -2,0.9 -2,2 z"
             style="fill:#feefe9;fill-opacity:1;fill-rule:nonzero;stroke:none"
             id="path328" /></g><g
           id="g330"
           transform="translate(390.8779,632.9199)"><path
             d="m 0,0 c 0,1.1 0.9,2 2,2 h 19.52 c 1.099,0 2,-0.9 2,-2 v -12.49 c 0,-1.1 -0.901,-2 -2,-2 H 2 c -1.1,0 -2,0.9 -2,2 z"
             style="fill:none;stroke:#d91920;stroke-width:1;stroke-linecap:butt;stroke-linejoin:round;stroke-miterlimit:4;stroke-dasharray:none;stroke-opacity:1"
             id="path332" /></g><text
           transform="matrix(1,0,0,-1,398.749,623.8984)"
           style="font-variant:normal;font-weight:normal;font-stretch:normal;font-size:7px;font-family:Arial;-inkscape-font-specification:ArialMT;writing-mode:lr-tb;fill:#231f20;fill-opacity:1;fill-rule:nonzero;stroke:none"
           id="text336"><tspan
             x="0 4.277"
             y="0"
             id="tspan334">Tx</tspan></text><g
           id="g338"
           transform="translate(334.6328,632.9199)"><path
             d="m 0,0 c 0,1.1 0.9,2 2,2 h 19.52 c 1.099,0 2,-0.9 2,-2 v -12.49 c 0,-1.1 -0.901,-2 -2,-2 H 2 c -1.1,0 -2,0.9 -2,2 z"
             style="fill:#feefe9;fill-opacity:1;fill-rule:nonzero;stroke:none"
             id="path340" /></g><g
           id="g342"
           transform="translate(334.6328,632.9199)"><path
             d="m 0,0 c 0,1.1 0.9,2 2,2 h 19.52 c 1.099,0 2,-0.9 2,-2 v -12.49 c 0,-1.1 -0.901,-2 -2,-2 H 2 c -1.1,0 -2,0.9 -2,2 z"
             style="fill:none;stroke:#d91920;stroke-width:1;stroke-linecap:butt;stroke-linejoin:round;stroke-miterlimit:4;stroke-dasharray:none;stroke-opacity:1"
             id="path344" /></g><g
           id="g346"
           transform="translate(306.5103,632.9839)"><path
             d="m 0,0 c 0,1.1 0.9,2 2,2 h 19.519 c 1.1,0 2,-0.9 2,-2 v -12.487 c 0,-1.1 -0.9,-2 -2,-2 H 2 c -1.1,0 -2,0.9 -2,2 z"
             style="fill:#feefe9;fill-opacity:1;fill-rule:nonzero;stroke:none"
             id="path348" /></g><g
           id="g350"
           transform="translate(306.5103,632.9839)"><path
             d="m 0,0 c 0,1.1 0.9,2 2,2 h 19.519 c 1.1,0 2,-0.9 2,-2 v -12.487 c 0,-1.1 -0.9,-2 -2,-2 H 2 c -1.1,0 -2,0.9 -2,2 z"
             style="fill:none;stroke:#d91920;stroke-width:1;stroke-linecap:butt;stroke-linejoin:round;stroke-miterlimit:4;stroke-dasharray:none;stroke-opacity:1"
             id="path352" /></g><path
           d="M 306.755,659.006 H 442.764 V 639.045 H 306.755 Z"
           style="fill:#ffffff;fill-opacity:1;fill-rule:nonzero;stroke:#231f20;stroke-width:0.5;stroke-linecap:butt;stroke-linejoin:round;stroke-miterlimit:14.336;stroke-dasharray:none;stroke-opacity:1"
           id="path354" /><text
           transform="matrix(1,0,0,-1,342.5044,623.8984)"
           style="font-variant:normal;font-weight:normal;font-stretch:normal;font-size:7px;font-family:Arial;-inkscape-font-specification:ArialMT;writing-mode:lr-tb;fill:#231f20;fill-opacity:1;fill-rule:nonzero;stroke:none"
           id="text358"><tspan
             x="0 4.277 -28.125999 -23.849001"
             y="0"
             id="tspan356">TxTx</tspan></text><g
           id="g360"
           transform="translate(389.5059,648.7363)"><path
             d="m 0,0 c 0,-4.059 3.289,-7.349 7.348,-7.349 4.058,0 7.349,3.29 7.349,7.349 0,4.06 -3.291,7.351 -7.349,7.351 C 3.289,7.351 0,4.06 0,0"
             style="fill:#8eb769;fill-opacity:1;fill-rule:nonzero;stroke:none"
             id="path362" /></g><g
           id="g364"
           transform="translate(389.5059,648.7363)"><path
             d="m 0,0 c 0,-4.059 3.289,-7.349 7.348,-7.349 4.058,0 7.349,3.29 7.349,7.349 0,4.06 -3.291,7.351 -7.349,7.351 C 3.289,7.351 0,4.06 0,0 Z"
             style="fill:none;stroke:#437029;stroke-width:0.5;stroke-linecap:butt;stroke-linejoin:miter;stroke-miterlimit:4;stroke-dasharray:none;stroke-opacity:1"
             id="path366" /></g><g
           id="g368"
           transform="translate(390.8281,648.7368)"><path
             d="m 0,0 c 0,-3.328 2.699,-6.026 6.025,-6.026 3.329,0 6.028,2.698 6.028,6.026 0,3.33 -2.699,6.027 -6.028,6.027 C 2.699,6.027 0,3.33 0,0"
             style="fill:#ffffff;fill-opacity:1;fill-rule:nonzero;stroke:none"
             id="path370" /></g><g
           id="g372"
           transform="translate(396.3105,649.0435)"><path
             d="M 0,0 1.086,-0.614 3.459,4.81 3.363,4.857 Z"
             style="fill:#231f20;fill-opacity:1;fill-rule:nonzero;stroke:none"
             id="path374" /></g><g
           id="g376"
           transform="translate(396.5469,648.1938)"><path
             d="M 0,0 0.613,1.086 -2.98,2.444 -3.029,2.36 Z"
             style="fill:#231f20;fill-opacity:1;fill-rule:nonzero;stroke:none"
             id="path378" /></g><g
           id="g380"
           transform="translate(396.3613,649.0142)"><path
             d="M 0,0 C -0.152,-0.271 -0.057,-0.615 0.213,-0.769 0.486,-0.922 0.83,-0.825 0.984,-0.554 1.135,-0.283 1.041,0.061 0.768,0.214 0.498,0.368 0.152,0.271 0,0"
             style="fill:#8eb769;fill-opacity:1;fill-rule:nonzero;stroke:none"
             id="path382" /></g><g
           id="g384"
           transform="translate(396.8535,649.2803)"><path
             d="m 0,0 c -0.197,0 -0.379,-0.105 -0.475,-0.276 -0.146,-0.262 -0.054,-0.594 0.205,-0.742 0.254,-0.14 0.6,-0.045 0.743,0.207 0.146,0.262 0.054,0.595 -0.207,0.74 C 0.184,-0.024 0.092,0 0,0 m -0.002,-1.366 v 0 c -0.141,0 -0.279,0.037 -0.404,0.107 -0.395,0.223 -0.532,0.724 -0.309,1.119 C -0.504,0.24 0.02,0.387 0.402,0.171 0.797,-0.05 0.938,-0.551 0.715,-0.947 0.57,-1.205 0.293,-1.366 -0.002,-1.366"
             style="fill:#231f20;fill-opacity:1;fill-rule:nonzero;stroke:none"
             id="path386" /></g><g
           id="g388"
           transform="translate(317.5957,648.8745)"><path
             d="M 0,0 -1.975,2.218 C 1.721,3.353 4.391,2.486 6.541,1.789 8.135,1.27 9.289,0.896 10.873,1.239 c 1.609,0.347 2.168,0.963 2.818,1.677 0.842,0.927 1.795,1.977 5.016,2.287 L 20.271,2.906 C 17.721,2.66 17.049,1.923 16.273,1.067 15.578,0.3 14.787,-0.567 12.695,-1.019 10.391,-1.516 8.441,-0.882 6.721,-0.325 4.777,0.308 2.939,0.905 0,0"
             style="fill:#f8a45c;fill-opacity:1;fill-rule:nonzero;stroke:none"
             id="path390" /></g><g
           id="g392"
           transform="translate(317.5957,648.8745)"><path
             d="M 0,0 -1.975,2.218 C 1.721,3.353 4.391,2.486 6.541,1.789 8.135,1.27 9.289,0.896 10.873,1.239 c 1.609,0.347 2.168,0.963 2.818,1.677 0.842,0.927 1.795,1.977 5.016,2.287 L 20.271,2.906 C 17.721,2.66 17.049,1.923 16.273,1.067 15.578,0.3 14.787,-0.567 12.695,-1.019 10.391,-1.516 8.441,-0.882 6.721,-0.325 4.777,0.308 2.939,0.905 0,0 Z"
             style="fill:none;stroke:#231f20;stroke-width:0.3;stroke-linecap:butt;stroke-linejoin:miter;stroke-miterlimit:4;stroke-dasharray:none;stroke-opacity:1"
             id="path394" /></g><g
           id="g396"
           transform="translate(321.4531,646.7656)"><path
             d="m 0,0 -1.977,2.218 c 3.694,1.138 6.368,0.269 8.516,-0.427 1.594,-0.52 2.748,-0.895 4.334,-0.552 1.607,0.347 2.166,0.963 2.816,1.678 0.842,0.928 1.797,1.978 5.014,2.287 l 1.57,-2.296 C 17.721,2.661 17.049,1.923 16.271,1.067 15.576,0.302 14.787,-0.567 12.693,-1.018 10.391,-1.515 8.441,-0.882 6.721,-0.323 4.777,0.308 2.938,0.905 0,0"
             style="fill:#f8a45c;fill-opacity:1;fill-rule:nonzero;stroke:none"
             id="path398" /></g><g
           id="g400"
           transform="translate(321.4531,646.7656)"><path
             d="m 0,0 -1.977,2.218 c 3.694,1.138 6.368,0.269 8.516,-0.427 1.594,-0.52 2.748,-0.895 4.334,-0.552 1.607,0.347 2.166,0.963 2.816,1.678 0.842,0.928 1.797,1.978 5.014,2.287 l 1.57,-2.296 C 17.721,2.661 17.049,1.923 16.271,1.067 15.576,0.302 14.787,-0.567 12.693,-1.018 10.391,-1.515 8.441,-0.882 6.721,-0.323 4.777,0.308 2.938,0.905 0,0 Z"
             style="fill:none;stroke:#231f20;stroke-width:0.3;stroke-linecap:butt;stroke-linejoin:miter;stroke-miterlimit:4;stroke-dasharray:none;stroke-opacity:1"
             id="path402" /></g><g
           id="g404"
           transform="translate(320.5957,644.415)"><path
             d="M 0,0 -1.973,2.217 C 1.721,3.355 4.395,2.486 6.543,1.789 8.137,1.272 9.291,0.896 10.875,1.238 c 1.609,0.348 2.168,0.965 2.818,1.68 0.84,0.925 1.795,1.977 5.012,2.285 l 1.57,-2.297 C 17.723,2.662 17.053,1.924 16.271,1.066 15.576,0.301 14.789,-0.568 12.695,-1.02 10.393,-1.515 8.445,-0.884 6.723,-0.324 4.779,0.309 2.941,0.905 0,0"
             style="fill:#f8a45c;fill-opacity:1;fill-rule:nonzero;stroke:none"
             id="path406" /></g><g
           id="g408"
           transform="translate(320.5957,644.415)"><path
             d="M 0,0 -1.973,2.217 C 1.721,3.355 4.395,2.486 6.543,1.789 8.137,1.272 9.291,0.896 10.875,1.238 c 1.609,0.348 2.168,0.965 2.818,1.68 0.84,0.925 1.795,1.977 5.012,2.285 l 1.57,-2.297 C 17.723,2.662 17.053,1.924 16.271,1.066 15.576,0.301 14.789,-0.568 12.695,-1.02 10.393,-1.515 8.445,-0.884 6.723,-0.324 4.779,0.309 2.941,0.905 0,0 Z"
             style="fill:none;stroke:#231f20;stroke-width:0.3;stroke-linecap:butt;stroke-linejoin:miter;stroke-miterlimit:4;stroke-dasharray:none;stroke-opacity:1"
             id="path410" /></g><g
           id="g412"
           transform="translate(324.5195,642.3291)"><path
             d="M 0,0 -1.975,2.219 C 1.719,3.354 4.393,2.487 6.539,1.791 8.135,1.271 9.287,0.896 10.873,1.24 c 1.609,0.347 2.17,0.964 2.816,1.677 0.844,0.928 1.799,1.977 5.016,2.287 L 20.273,2.908 C 17.721,2.662 17.049,1.923 16.271,1.066 15.576,0.301 14.789,-0.565 12.695,-1.019 10.393,-1.516 8.443,-0.881 6.721,-0.323 4.777,0.309 2.939,0.906 0,0"
             style="fill:#f8a45c;fill-opacity:1;fill-rule:nonzero;stroke:none"
             id="path414" /></g><g
           id="g416"
           transform="translate(324.5195,642.3291)"><path
             d="M 0,0 -1.975,2.219 C 1.719,3.354 4.393,2.487 6.539,1.791 8.135,1.271 9.287,0.896 10.873,1.24 c 1.609,0.347 2.17,0.964 2.816,1.677 0.844,0.928 1.799,1.977 5.016,2.287 L 20.273,2.908 C 17.721,2.662 17.049,1.923 16.271,1.066 15.576,0.301 14.789,-0.565 12.695,-1.019 10.393,-1.516 8.443,-0.881 6.721,-0.323 4.777,0.309 2.939,0.906 0,0 Z"
             style="fill:none;stroke:#231f20;stroke-width:0.3;stroke-linecap:butt;stroke-linejoin:miter;stroke-miterlimit:4;stroke-dasharray:none;stroke-opacity:1"
             id="path418" /></g><g
           id="g420"
           transform="translate(318.1973,651.2949)"><path
             d="M 0,0 -1.977,2.218 C 1.719,3.355 4.391,2.486 6.539,1.791 8.133,1.271 9.287,0.897 10.875,1.24 c 1.605,0.347 2.164,0.963 2.814,1.678 0.842,0.927 1.797,1.978 5.012,2.287 l 1.57,-2.298 C 17.721,2.663 17.049,1.923 16.27,1.069 15.574,0.302 14.787,-0.565 12.693,-1.019 10.391,-1.515 8.439,-0.88 6.719,-0.322 4.773,0.308 2.939,0.906 0,0"
             style="fill:#f8a45c;fill-opacity:1;fill-rule:nonzero;stroke:none"
             id="path422" /></g><g
           id="g424"
           transform="translate(318.1973,651.2949)"><path
             d="M 0,0 -1.977,2.218 C 1.719,3.355 4.391,2.486 6.539,1.791 8.133,1.271 9.287,0.897 10.875,1.24 c 1.605,0.347 2.164,0.963 2.814,1.678 0.842,0.927 1.797,1.978 5.012,2.287 l 1.57,-2.298 C 17.721,2.663 17.049,1.923 16.27,1.069 15.574,0.302 14.787,-0.565 12.693,-1.019 10.391,-1.515 8.439,-0.88 6.719,-0.322 4.773,0.308 2.939,0.906 0,0 Z"
             style="fill:none;stroke:#231f20;stroke-width:0.3;stroke-linecap:butt;stroke-linejoin:miter;stroke-miterlimit:4;stroke-dasharray:none;stroke-opacity:1"
             id="path426" /></g><g
           id="g428"
           transform="translate(318.3223,653.2734)"><path
             d="M 0,0 2.695,0.241 3.869,-0.384 2.113,-0.273 Z"
             style="fill:#231f20;fill-opacity:1;fill-rule:nonzero;stroke:none"
             id="path430" /></g><g
           id="g432"
           transform="translate(325.2109,651.9063)"><path
             d="m 0,0 2.877,-1.085 1.859,0.586 -2.359,0.308 z"
             style="fill:#231f20;fill-opacity:1;fill-rule:nonzero;stroke:none"
             id="path434" /></g><g
           id="g436"
           transform="translate(326.3418,648.4453)"><path
             d="m 0,0 -2.025,0.104 -0.829,-0.562 2.055,0.206 2.631,-1.051 1.65,0.022 -2.275,0.887 z"
             style="fill:#231f20;fill-opacity:1;fill-rule:nonzero;stroke:none"
             id="path438" /></g><g
           id="g440"
           transform="translate(338.2773,648.6699)"><path
             d="M 0,0 C -0.514,-0.052 -1.826,-0.354 -1.826,-0.354 L -2.83,-2 l 1.414,1 2.199,0.307 z"
             style="fill:#231f20;fill-opacity:1;fill-rule:nonzero;stroke:none"
             id="path442" /></g><g
           id="g444"
           transform="translate(339.3203,644.6289)"><path
             d="m 0,0 -0.934,-1.18 -2.127,-0.671 1.194,-0.509 1.75,0.718 z"
             style="fill:#231f20;fill-opacity:1;fill-rule:nonzero;stroke:none"
             id="path446" /></g><g
           id="g448"
           transform="translate(330.4238,643.5356)"><path
             d="M 0,0 -2.061,0.625 -3.637,0.236 -1.756,0.111 Z"
             style="fill:#231f20;fill-opacity:1;fill-rule:nonzero;stroke:none"
             id="path450" /></g><g
           id="g452"
           transform="translate(323.584,646.0815)"><path
             d="M 0,0 -1.17,-0.204 0.461,-0.296 Z"
             style="fill:#231f20;fill-opacity:1;fill-rule:nonzero;stroke:none"
             id="path454" /></g><g
           id="g456"
           transform="translate(333.1152,653.1265)"><path
             d="m 0,0 -1.453,-0.402 -1.715,-1.317 2.355,0.522 z"
             style="fill:#f9aeca;fill-opacity:1;fill-rule:evenodd;stroke:none"
             id="path458" /></g><g
           id="g460"
           transform="translate(334.9707,646.022)"><path
             d="m 0,0 -1.912,-0.936 -0.209,-0.563 1.84,0.471 z"
             style="fill:#f9aeca;fill-opacity:1;fill-rule:evenodd;stroke:none"
             id="path462" /></g><g
           id="g464"
           transform="translate(343.1621,646.6147)"><path
             d="m 0,0 -2.143,-0.787 -0.156,-1.044 1.774,0.834 z"
             style="fill:#f9aeca;fill-opacity:1;fill-rule:evenodd;stroke:none"
             id="path466" /></g><g
           id="g468"
           transform="translate(322.2871,646.7236)"><path
             d="m 0,0 -1.449,-1.232 -0.52,0.778 z"
             style="fill:#f9aeca;fill-opacity:1;fill-rule:evenodd;stroke:none"
             id="path470" /></g><g
           id="g472"
           transform="translate(331.0391,649.3726)"><path
             d="m 0,0 -2.627,0.223 1.42,-0.656 z"
             style="fill:#96cd56;fill-opacity:1;fill-rule:evenodd;stroke:none"
             id="path474" /></g><g
           id="g476"
           transform="translate(333.6172,642.8848)"><path
             d="m 0,0 -2.449,0.555 c 0,0 1.263,-0.875 1.617,-1.039 0.355,-0.164 2.486,-0.323 2.486,-0.323 z"
             style="fill:#96cd56;fill-opacity:1;fill-rule:evenodd;stroke:none"
             id="path478" /></g><g
           id="g480"
           transform="translate(323.1465,649.0977)"><path
             d="m 0,0 -2.164,-0.075 0.838,-1.173 z"
             style="fill:#96cd56;fill-opacity:1;fill-rule:evenodd;stroke:none"
             id="path482" /></g><g
           id="g484"
           transform="translate(336.1211,655.4575)"><path
             d="m 0,0 -2.426,-0.987 c 0,0 -0.97,-1.411 -0.58,-1.344 0.391,0.068 2.07,1.151 2.07,1.151 z"
             style="fill:#96cd56;fill-opacity:1;fill-rule:evenodd;stroke:none"
             id="path486" /></g><g
           id="g488"
           transform="translate(352.9844,648.8745)"><path
             d="m 0,0 -1.975,2.218 c 3.696,1.135 6.366,0.268 8.514,-0.429 1.594,-0.519 2.75,-0.893 4.334,-0.55 1.609,0.347 2.168,0.963 2.818,1.677 0.84,0.927 1.795,1.977 5.014,2.287 L 20.271,2.906 C 17.721,2.66 17.049,1.923 16.271,1.067 15.576,0.3 14.787,-0.567 12.693,-1.019 10.391,-1.516 8.441,-0.882 6.721,-0.325 4.777,0.308 2.939,0.905 0,0"
             style="fill:#f8a45c;fill-opacity:1;fill-rule:nonzero;stroke:none"
             id="path490" /></g><g
           id="g492"
           transform="translate(352.9844,648.8745)"><path
             d="m 0,0 -1.975,2.218 c 3.696,1.135 6.366,0.268 8.514,-0.429 1.594,-0.519 2.75,-0.893 4.334,-0.55 1.609,0.347 2.168,0.963 2.818,1.677 0.84,0.927 1.795,1.977 5.014,2.287 L 20.271,2.906 C 17.721,2.66 17.049,1.923 16.271,1.067 15.576,0.3 14.787,-0.567 12.693,-1.019 10.391,-1.516 8.441,-0.882 6.721,-0.325 4.777,0.308 2.939,0.905 0,0 Z"
             style="fill:none;stroke:#231f20;stroke-width:0.3;stroke-linecap:butt;stroke-linejoin:miter;stroke-miterlimit:4;stroke-dasharray:none;stroke-opacity:1"
             id="path494" /></g><g
           id="g496"
           transform="translate(356.8418,646.7656)"><path
             d="m 0,0 -1.977,2.218 c 3.694,1.138 6.368,0.269 8.516,-0.427 1.594,-0.52 2.748,-0.895 4.334,-0.552 1.607,0.347 2.166,0.963 2.816,1.678 0.842,0.928 1.797,1.978 5.012,2.287 L 20.27,2.908 C 17.719,2.661 17.049,1.923 16.271,1.067 15.576,0.302 14.785,-0.567 12.693,-1.018 10.391,-1.515 8.439,-0.882 6.719,-0.323 4.777,0.308 2.938,0.905 0,0"
             style="fill:#f8a45c;fill-opacity:1;fill-rule:nonzero;stroke:none"
             id="path498" /></g><g
           id="g500"
           transform="translate(356.8418,646.7656)"><path
             d="m 0,0 -1.977,2.218 c 3.694,1.138 6.368,0.269 8.516,-0.427 1.594,-0.52 2.748,-0.895 4.334,-0.552 1.607,0.347 2.166,0.963 2.816,1.678 0.842,0.928 1.797,1.978 5.012,2.287 L 20.27,2.908 C 17.719,2.661 17.049,1.923 16.271,1.067 15.576,0.302 14.785,-0.567 12.693,-1.018 10.391,-1.515 8.439,-0.882 6.719,-0.323 4.777,0.308 2.938,0.905 0,0 Z"
             style="fill:none;stroke:#231f20;stroke-width:0.3;stroke-linecap:butt;stroke-linejoin:miter;stroke-miterlimit:4;stroke-dasharray:none;stroke-opacity:1"
             id="path502" /></g><g
           id="g504"
           transform="translate(355.9844,644.415)"><path
             d="M 0,0 -1.973,2.217 C 1.721,3.355 4.393,2.486 6.543,1.789 8.137,1.272 9.291,0.896 10.875,1.238 c 1.609,0.348 2.168,0.965 2.816,1.68 0.844,0.925 1.797,1.977 5.012,2.285 l 1.57,-2.297 C 17.723,2.662 17.053,1.924 16.271,1.066 15.576,0.301 14.789,-0.568 12.695,-1.02 10.393,-1.515 8.443,-0.884 6.723,-0.324 4.779,0.309 2.941,0.905 0,0"
             style="fill:#f8a45c;fill-opacity:1;fill-rule:nonzero;stroke:none"
             id="path506" /></g><g
           id="g508"
           transform="translate(355.9844,644.415)"><path
             d="M 0,0 -1.973,2.217 C 1.721,3.355 4.393,2.486 6.543,1.789 8.137,1.272 9.291,0.896 10.875,1.238 c 1.609,0.348 2.168,0.965 2.816,1.68 0.844,0.925 1.797,1.977 5.012,2.285 l 1.57,-2.297 C 17.723,2.662 17.053,1.924 16.271,1.066 15.576,0.301 14.789,-0.568 12.695,-1.02 10.393,-1.515 8.443,-0.884 6.723,-0.324 4.779,0.309 2.941,0.905 0,0 Z"
             style="fill:none;stroke:#231f20;stroke-width:0.3;stroke-linecap:butt;stroke-linejoin:miter;stroke-miterlimit:4;stroke-dasharray:none;stroke-opacity:1"
             id="path510" /></g><g
           id="g512"
           transform="translate(359.9082,642.3291)"><path
             d="M 0,0 -1.975,2.219 C 1.719,3.354 4.393,2.487 6.539,1.791 8.135,1.271 9.287,0.896 10.873,1.24 c 1.609,0.347 2.17,0.964 2.816,1.677 0.842,0.928 1.797,1.977 5.014,2.287 L 20.271,2.908 C 17.719,2.662 17.047,1.923 16.27,1.066 15.574,0.301 14.787,-0.565 12.695,-1.019 10.393,-1.516 8.443,-0.881 6.721,-0.323 4.777,0.309 2.939,0.906 0,0"
             style="fill:#f8a45c;fill-opacity:1;fill-rule:nonzero;stroke:none"
             id="path514" /></g><g
           id="g516"
           transform="translate(359.9082,642.3291)"><path
             d="M 0,0 -1.975,2.219 C 1.719,3.354 4.393,2.487 6.539,1.791 8.135,1.271 9.287,0.896 10.873,1.24 c 1.609,0.347 2.17,0.964 2.816,1.677 0.842,0.928 1.797,1.977 5.014,2.287 L 20.271,2.908 C 17.719,2.662 17.047,1.923 16.27,1.066 15.574,0.301 14.787,-0.565 12.695,-1.019 10.393,-1.516 8.443,-0.881 6.721,-0.323 4.777,0.309 2.939,0.906 0,0 Z"
             style="fill:none;stroke:#231f20;stroke-width:0.3;stroke-linecap:butt;stroke-linejoin:miter;stroke-miterlimit:4;stroke-dasharray:none;stroke-opacity:1"
             id="path518" /></g><g
           id="g520"
           transform="translate(353.5859,651.2949)"><path
             d="M 0,0 -1.977,2.218 C 1.719,3.355 4.391,2.486 6.539,1.791 8.133,1.271 9.287,0.897 10.873,1.24 c 1.607,0.347 2.166,0.963 2.816,1.678 0.842,0.927 1.797,1.978 5.012,2.287 l 1.57,-2.298 C 17.721,2.663 17.049,1.923 16.27,1.069 15.574,0.302 14.787,-0.565 12.693,-1.019 10.391,-1.515 8.439,-0.88 6.719,-0.322 4.773,0.308 2.939,0.906 0,0"
             style="fill:#f8a45c;fill-opacity:1;fill-rule:nonzero;stroke:none"
             id="path522" /></g><g
           id="g524"
           transform="translate(353.5859,651.2949)"><path
             d="M 0,0 -1.977,2.218 C 1.719,3.355 4.391,2.486 6.539,1.791 8.133,1.271 9.287,0.897 10.873,1.24 c 1.607,0.347 2.166,0.963 2.816,1.678 0.842,0.927 1.797,1.978 5.012,2.287 l 1.57,-2.298 C 17.721,2.663 17.049,1.923 16.27,1.069 15.574,0.302 14.787,-0.565 12.693,-1.019 10.391,-1.515 8.439,-0.88 6.719,-0.322 4.773,0.308 2.939,0.906 0,0 Z"
             style="fill:none;stroke:#231f20;stroke-width:0.3;stroke-linecap:butt;stroke-linejoin:miter;stroke-miterlimit:4;stroke-dasharray:none;stroke-opacity:1"
             id="path526" /></g><g
           id="g528"
           transform="translate(353.7109,653.2734)"><path
             d="M 0,0 2.693,0.241 3.869,-0.384 2.113,-0.273 Z"
             style="fill:#231f20;fill-opacity:1;fill-rule:nonzero;stroke:none"
             id="path530" /></g><g
           id="g532"
           transform="translate(360.5996,651.9063)"><path
             d="m 0,0 2.877,-1.085 1.857,0.586 -2.357,0.308 z"
             style="fill:#231f20;fill-opacity:1;fill-rule:nonzero;stroke:none"
             id="path534" /></g><g
           id="g536"
           transform="translate(361.7305,648.4453)"><path
             d="m 0,0 -2.025,0.104 -0.829,-0.562 2.055,0.206 2.629,-1.051 1.65,0.022 -2.273,0.887 z"
             style="fill:#231f20;fill-opacity:1;fill-rule:nonzero;stroke:none"
             id="path538" /></g><g
           id="g540"
           transform="translate(373.666,648.6699)"><path
             d="M 0,0 C -0.514,-0.052 -1.828,-0.354 -1.828,-0.354 L -2.83,-2 l 1.414,1 2.197,0.307 z"
             style="fill:#231f20;fill-opacity:1;fill-rule:nonzero;stroke:none"
             id="path542" /></g><g
           id="g544"
           transform="translate(374.707,644.6289)"><path
             d="m 0,0 -0.932,-1.18 -2.127,-0.671 1.192,-0.509 1.75,0.718 z"
             style="fill:#231f20;fill-opacity:1;fill-rule:nonzero;stroke:none"
             id="path546" /></g><g
           id="g548"
           transform="translate(365.8105,643.5356)"><path
             d="M 0,0 -2.059,0.625 -3.635,0.236 -1.756,0.111 Z"
             style="fill:#231f20;fill-opacity:1;fill-rule:nonzero;stroke:none"
             id="path550" /></g><g
           id="g552"
           transform="translate(358.9727,646.0815)"><path
             d="M 0,0 -1.17,-0.204 0.461,-0.296 Z"
             style="fill:#231f20;fill-opacity:1;fill-rule:nonzero;stroke:none"
             id="path554" /></g><g
           id="g556"
           transform="translate(368.5039,653.1265)"><path
             d="m 0,0 -1.453,-0.402 -1.717,-1.317 2.357,0.522 z"
             style="fill:#f9aeca;fill-opacity:1;fill-rule:evenodd;stroke:none"
             id="path558" /></g><g
           id="g560"
           transform="translate(370.3594,646.022)"><path
             d="m 0,0 -1.912,-0.936 -0.211,-0.563 1.842,0.471 z"
             style="fill:#f9aeca;fill-opacity:1;fill-rule:evenodd;stroke:none"
             id="path562" /></g><g
           id="g564"
           transform="translate(378.5488,646.6147)"><path
             d="m 0,0 -2.143,-0.787 -0.156,-1.044 1.774,0.834 z"
             style="fill:#f9aeca;fill-opacity:1;fill-rule:evenodd;stroke:none"
             id="path566" /></g><g
           id="g568"
           transform="translate(357.6758,646.7236)"><path
             d="m 0,0 -1.449,-1.232 -0.52,0.778 z"
             style="fill:#f9aeca;fill-opacity:1;fill-rule:evenodd;stroke:none"
             id="path570" /></g><g
           id="g572"
           transform="translate(366.4258,649.3726)"><path
             d="m 0,0 -2.625,0.223 1.42,-0.656 z"
             style="fill:#96cd56;fill-opacity:1;fill-rule:evenodd;stroke:none"
             id="path574" /></g><g
           id="g576"
           transform="translate(369.0059,642.8848)"><path
             d="m 0,0 -2.451,0.555 c 0,0 1.265,-0.875 1.619,-1.039 0.355,-0.164 2.486,-0.323 2.486,-0.323 z"
             style="fill:#96cd56;fill-opacity:1;fill-rule:evenodd;stroke:none"
             id="path578" /></g><g
           id="g580"
           transform="translate(358.5352,649.0977)"><path
             d="m 0,0 -2.166,-0.075 0.84,-1.173 z"
             style="fill:#96cd56;fill-opacity:1;fill-rule:evenodd;stroke:none"
             id="path582" /></g><g
           id="g584"
           transform="translate(371.5098,655.4575)"><path
             d="m 0,0 -2.426,-0.987 c 0,0 -0.97,-1.411 -0.58,-1.344 0.391,0.068 2.07,1.151 2.07,1.151 z"
             style="fill:#96cd56;fill-opacity:1;fill-rule:evenodd;stroke:none"
             id="path586" /></g><g
           id="g588"
           transform="translate(292.1133,649.6592)"><path
             d="m 0,0 c 0.951,0.283 1.57,0.547 2.334,0.85 l -0.01,-2.903 c -0.271,0.131 -1.379,0.576 -2.326,0.867 -1.018,0.313 -1.939,0.524 -2.537,0.602 0.6,0.072 1.523,0.281 2.539,0.584"
             style="fill:#231f20;fill-opacity:1;fill-rule:nonzero;stroke:none"
             id="path590" /></g><g
           id="g592"
           transform="translate(294.125,649.0576)"><path
             d="M 0,0 H 23.25"
             style="fill:none;stroke:#231f20;stroke-width:0.5;stroke-linecap:butt;stroke-linejoin:miter;stroke-miterlimit:4;stroke-dasharray:none;stroke-opacity:1"
             id="path594" /></g><g
           id="g596"
           transform="translate(421.8525,644.3877)"><path
             d="M 0,0 C 0.889,-0.16 1.197,-0.925 1.729,-1.46 1.875,-0.476 2.262,0.252 2.658,0.974 2.649,1.057 2.639,1.138 2.526,1.114 1.828,0.588 0.742,0.476 0,0 M 3.655,2.156 C 3.901,2.198 4.045,2.35 4.256,2.433 4.209,2.638 4.236,2.922 4.056,2.99 3.947,2.685 3.771,2.449 3.655,2.156 M 0.398,2.225 C 0.753,3.011 1.143,3.76 1.529,4.517 0.949,4.677 0.258,4.718 -0.4,4.793 0.004,4.082 0.266,3.224 0.398,2.225 M -3.391,4.727 C -3.654,4.248 -3.758,3.623 -3.923,2.99 -4.07,2.427 -4.109,1.638 -4.589,1.391 -4.758,2.339 -4.16,3.606 -3.923,4.586 -5.731,4.22 -7.238,2.854 -7.183,0.833 c 0.041,-1.493 1.162,-2.027 2.726,-2.015 3.32,0.03 5.746,3.001 3.524,5.975 -0.655,0.134 -1.601,-0.022 -2.458,-0.066 m 0.131,0.417 c 0.588,0.126 1.365,0.055 1.929,0.208 -0.48,0.47 -0.874,1.031 -1.263,1.598 C -2.765,6.292 -3.057,5.765 -3.26,5.144 M 4.521,4.727 C 4.924,5.764 5.712,6.77 5.984,7.714 5.369,6.897 4.57,5.901 4.521,4.727 m 7.512,5.836 C 10.209,10.41 8.008,9.826 7.047,8.688 6.475,8.01 6.199,7.003 5.717,6.116 5.219,5.194 4.002,3.743 4.653,2.71 c 2.714,1.665 5.452,3.395 7.845,5.351 0.768,0.627 1.707,1.354 2.065,2.363 -0.79,0.309 -1.69,0.209 -2.53,0.139 M 5.052,2.433 C 6.627,1.717 7.922,3.026 9.241,3.266 9.564,2.903 9.191,2.158 9.375,1.737 10.331,1.046 12.189,1.297 12.896,0.348 12.478,0.016 11.91,0.557 11.169,0.764 9.891,1.122 8.494,0.904 8.975,2.78 7.832,2.244 5.914,1.242 4.588,2.156 4.141,1.927 3.762,1.626 3.256,1.46 2.729,0.343 2.289,-0.864 1.86,-2.085 c -0.922,0.332 -0.952,1.6 -2.059,1.737 -0.183,-0.274 -0.246,-0.669 -0.333,-1.042 0.259,-0.07 0.536,0.767 0.93,0.557 0.034,-0.534 -0.566,-0.979 -1.064,-1.182 -0.55,0.348 -0.125,1.136 0,1.738 -0.842,-0.67 -2.543,-1.417 -4.19,-1.321 -0.633,0.036 -1.443,0.193 -1.929,0.557 -1.203,0.903 -0.882,3.269 -0.066,4.377 0.758,1.027 1.843,1.394 3.06,1.738 0.37,0.607 0.568,1.398 0.863,2.083 0.377,0.029 0.477,0.1 0.598,0.488 1.969,0.769 4.242,1.217 5.851,2.364 C 1.48,9.631 -0.759,8.948 -2.861,8.34 -3.527,8.147 -4.199,7.798 -4.856,7.923 c 0.077,0.413 0.626,0.464 0.933,0.555 1.053,0.315 2.231,0.64 3.391,0.973 1.505,0.432 3.118,1.05 4.655,0.904 C 4.16,9.629 3.399,9.421 2.925,9.173 1.477,8.42 -0.506,7.88 -2.128,7.227 -1.859,6.326 -1.195,5.842 -0.666,5.213 0.206,5.219 0.926,5.07 1.66,4.935 2.453,5.892 3.105,7.179 3.855,8.269 4.057,8.565 4.332,9.064 4.719,9.034 4.595,8.225 3.915,7.641 3.457,6.95 2.998,6.26 2.613,5.5 2.194,4.793 2.685,4.452 3.484,4.43 3.655,3.752 3.054,3.618 2.649,4.271 2.059,4.377 1.207,3.349 0.75,1.903 0.131,0.627 c 1.105,0.21 1.92,0.729 2.859,1.11 0.377,0.868 0.899,1.426 0.997,2.64 0.178,2.181 1.51,3.46 2.795,4.587 0.066,0.348 0.274,0.549 0.398,0.834 0.258,0.061 0.237,-0.169 0.398,-0.208 1.354,0.978 3.858,1.642 6.117,1.461 0.409,-0.035 1.342,-0.149 1.33,-0.696 C 15.01,9.475 13.605,8.461 12.967,7.923 10.605,5.945 7.406,3.919 5.052,2.433"
             style="fill:#2c81ab;fill-opacity:1;fill-rule:evenodd;stroke:none"
             id="path598" /></g><g
           id="g600"
           transform="translate(170.9619,611.3003)"><path
             d="M 0,0 C 8.435,19.18 -4.52,36.81 -4.52,52.507"
             style="fill:none;stroke:#231f20;stroke-width:0.75;stroke-linecap:butt;stroke-linejoin:miter;stroke-miterlimit:10;stroke-dasharray:none;stroke-opacity:1"
             id="path602" /></g><g
           id="g604"
           transform="translate(444.8779,617.4092)"><path
             d="M 0,0 C 0.76,-0.641 1.224,-1.133 1.802,-1.713 L 2.951,0.951 C 2.65,0.939 1.457,0.973 0.474,1.084 -0.584,1.208 -1.514,1.381 -2.092,1.549 -1.57,1.241 -0.81,0.678 0,0"
             style="fill:#231f20;fill-opacity:1;fill-rule:nonzero;stroke:none"
             id="path606" /></g><g
           id="g608"
           transform="translate(446.9209,617.2148)"><path
             d="m 0,0 c 2.717,-1.415 4.229,-2.983 4.229,-4.634 0,-6.258 -21.719,-11.331 -48.512,-11.331 -26.792,0 -48.512,5.073 -48.512,11.331 0,2.418 3.241,4.658 8.765,6.498"
             style="fill:none;stroke:#231f20;stroke-width:0.5;stroke-linecap:butt;stroke-linejoin:miter;stroke-miterlimit:4;stroke-dasharray:none;stroke-opacity:1"
             id="path610" /></g><g
           id="g612"
           transform="translate(419,632.7168)"><path
             d="m 0,0 c 0,1.1 0.9,2 2,2 h 19.52 c 1.099,0 2,-0.9 2,-2 v -12.49 c 0,-1.1 -0.901,-2 -2,-2 H 2 c -1.1,0 -2,0.9 -2,2 z"
             style="fill:#feefe9;fill-opacity:1;fill-rule:nonzero;stroke:none"
             id="path614" /></g><g
           id="g616"
           transform="translate(419,632.7168)"><path
             d="m 0,0 c 0,1.1 0.9,2 2,2 h 19.52 c 1.099,0 2,-0.9 2,-2 v -12.49 c 0,-1.1 -0.901,-2 -2,-2 H 2 c -1.1,0 -2,0.9 -2,2 z"
             style="fill:none;stroke:#d91920;stroke-width:1;stroke-linecap:butt;stroke-linejoin:round;stroke-miterlimit:4;stroke-dasharray:none;stroke-opacity:1"
             id="path618" /></g><text
           transform="matrix(1,0,0,-1,426.8711,623.8984)"
           style="font-variant:normal;font-weight:normal;font-stretch:normal;font-size:7px;font-family:Arial;-inkscape-font-specification:ArialMT;writing-mode:lr-tb;fill:#231f20;fill-opacity:1;fill-rule:nonzero;stroke:none"
           id="text622"><tspan
             x="0 4.277"
             y="0"
             id="tspan620">Tx</tspan></text><g
           id="g624"
           transform="translate(362.7559,632.9199)"><path
             d="m 0,0 c 0,1.1 0.9,2 2,2 h 19.518 c 1.099,0 2,-0.9 2,-2 v -12.49 c 0,-1.1 -0.901,-2 -2,-2 H 2 c -1.1,0 -2,0.9 -2,2 z"
             style="fill:#feefe9;fill-opacity:1;fill-rule:nonzero;stroke:none"
             id="path626" /></g><g
           id="g628"
           transform="translate(362.7559,632.9199)"><path
             d="m 0,0 c 0,1.1 0.9,2 2,2 h 19.518 c 1.099,0 2,-0.9 2,-2 v -12.49 c 0,-1.1 -0.901,-2 -2,-2 H 2 c -1.1,0 -2,0.9 -2,2 z"
             style="fill:none;stroke:#d91920;stroke-width:1;stroke-linecap:butt;stroke-linejoin:round;stroke-miterlimit:4;stroke-dasharray:none;stroke-opacity:1"
             id="path630" /></g><text
           transform="matrix(1,0,0,-1,370.6265,623.8984)"
           style="font-variant:normal;font-weight:normal;font-stretch:normal;font-size:7px;font-family:Arial;-inkscape-font-specification:ArialMT;writing-mode:lr-tb;fill:#231f20;fill-opacity:1;fill-rule:nonzero;stroke:none"
           id="text634"><tspan
             x="0 4.277"
             y="0"
             id="tspan632">Tx</tspan></text></g></g></g></svg>
