<svg xmlns="http://www.w3.org/2000/svg" width="372.32" height="138.51" viewBox="0 0 372.32 138.51">
  <defs>
    <style>
      .cls-1, .cls-11, .cls-9 {
        font-size: 7px;
      }

      .cls-1 {
        font-family: ArialMT, Arial;
      }

      .cls-2, .cls-4 {
        fill: #f0f0f0;
      }

      .cls-2 {
        stroke: #4d4d4d;
        stroke-dasharray: 2 1;
      }

      .cls-13, .cls-16, .cls-17, .cls-2, .cls-24 {
        stroke-width: 0.5px;
      }

      .cls-14, .cls-16, .cls-3, .cls-5 {
        fill: #fff;
      }

      .cls-13, .cls-16, .cls-19, .cls-23, .cls-24, .cls-3 {
        stroke: #000;
      }

      .cls-16, .cls-24, .cls-3 {
        stroke-linejoin: round;
      }

      .cls-19, .cls-23, .cls-3 {
        stroke-width: 0.3px;
      }

      .cls-6 {
        letter-spacing: -0.06em;
      }

      .cls-7, .cls-9 {
        letter-spacing: 0em;
      }

      .cls-8 {
        font-size: 9px;
      }

      .cls-14, .cls-15, .cls-8 {
        font-family: Humanist521BT-BoldCondensed, Humanst521 Cn BT;
        font-weight: 700;
      }

      .cls-10 {
        letter-spacing: 0em;
      }

      .cls-12 {
        letter-spacing: -0.04em;
      }

      .cls-13, .cls-23, .cls-24 {
        fill: none;
      }

      .cls-14, .cls-15 {
        font-size: 19px;
      }

      .cls-14 {
        stroke: #fff;
        stroke-width: 2px;
      }

      .cls-15 {
        fill: #499822;
      }

      .cls-17, .cls-18 {
        fill: #8dac58;
      }

      .cls-17 {
        stroke: #3b5c18;
      }

      .cls-19 {
        fill: #fda452;
      }

      .cls-20 {
        fill: #fbafc5;
      }

      .cls-20, .cls-21, .cls-22 {
        fill-rule: evenodd;
      }

      .cls-21 {
        fill: #96c749;
      }

      .cls-22 {
        fill: #28708e;
      }

      .cls-23 {
        stroke-miterlimit: 10;
      }

      .cls-25 {
        fill: #018536;
      }

      .cls-26 {
        fill: #ff0001;
      }
    </style>
  </defs>
  <g id="Layer_2" data-name="Layer 2">
    <text class="cls-1" transform="translate(0 6.01)">Commits to <tspan x="0" y="9">an interesting</tspan><tspan x="0" y="18">tx?</tspan><tspan x="0" y="29" xml:space="preserve">     = yes</tspan><tspan x="0" y="38" xml:space="preserve">     = no</tspan></text>
    <rect class="cls-2" x="283.38" y="79.89" width="88.7" height="56"/>
    <rect class="cls-3" x="285.34" y="82.14" width="70.73" height="11.75"/>
    <rect class="cls-4" x="283.38" y="1.1" width="88.7" height="65.8" rx="3"/>
    <rect class="cls-5" x="285.07" y="95.23" width="84.67" height="38.33" rx="3"/>
    <text class="cls-1" transform="translate(290.4 8.28)">Each step:<tspan x="0" y="10">•</tspan><tspan class="cls-6" x="2.45" y="10"> </tspan><tspan class="cls-7" x="4.01" y="10">Add the flag to the</tspan><tspan x="0" y="19" xml:space="preserve">  list of flags.</tspan><tspan x="0" y="28" xml:space="preserve">• If the flag is     or if the</tspan><tspan x="0" y="37" xml:space="preserve">  hash is an interesting</tspan><tspan x="0" y="46" xml:space="preserve">  txid, add the hash to</tspan><tspan x="0" y="55" xml:space="preserve">  the list of hashes.</tspan></text>
    <text class="cls-8" transform="translate(148.39 124.89)">Interesting txid<tspan x="0" y="9.5">of Tx</tspan><tspan class="cls-9" x="16.77" y="11.5">2 </tspan><tspan class="cls-10" x="21.71" y="9.5">and Tx</tspan><tspan class="cls-11" x="44.86" y="11.5">3</tspan></text>
    <text class="cls-8" transform="translate(247.57 107.79)"><tspan class="cls-12">P</tspan><tspan x="4.31" y="0">artial</tspan><tspan x="0" y="9.5">merkle</tspan><tspan x="0" y="19">tree</tspan></text>
    <text class="cls-1" transform="translate(283.35 76.23)">Send to wallet:</text>
    <text class="cls-1" transform="translate(287.69 102.11)">Number of tx: 3</text>
    <text class="cls-1" transform="translate(287.69 115.26)">Flags:</text>
    <text class="cls-1" transform="translate(287.69 128.42)">Hashes:</text>
    <polyline class="cls-13" points="83.71 82.39 104.57 82.39 104.57 97.68"/>
    <polyline class="cls-13" points="60.1 82.39 40.57 82.39 40.57 97.68"/>
    <line class="cls-13" x1="132.61" y1="31.45" x2="132.61" y2="47.08"/>
    <path d="M256.71,125.46a23,23,0,0,0-2.34.85v-2.9a23.05,23.05,0,0,0,2.33.86,15.22,15.22,0,0,0,2.54.6A18.36,18.36,0,0,0,256.71,125.46Z" transform="translate(-133.93 -73.11)"/>
    <line class="cls-13" x1="120.68" y1="51.75" x2="82.66" y2="51.75"/>
    <text class="cls-14" transform="translate(124.69 57.47)">+</text>
    <text class="cls-15" transform="translate(124.69 57.47)">+</text>
    <rect class="cls-16" x="49.55" y="0.89" width="171.86" height="29.94"/>
    <g>
      <path class="cls-17" d="M293.75,89.4a9.92,9.92,0,1,0,9.92-9.92A9.93,9.93,0,0,0,293.75,89.4Z" transform="translate(-133.93 -73.11)"/>
      <path class="cls-5" d="M295.53,89.4a8.14,8.14,0,1,0,8.14-8.13A8.14,8.14,0,0,0,295.53,89.4Z" transform="translate(-133.93 -73.11)"/>
      <polygon points="169.01 15.88 170.47 16.71 173.68 9.39 173.55 9.32 169.01 15.88"/>
      <polygon points="169.32 17.03 170.16 15.56 165.3 13.73 165.24 13.84 169.32 17.03"/>
      <g>
        <path class="cls-18" d="M303,89a.76.76,0,0,0,1.33.75A.76.76,0,0,0,303,89Z" transform="translate(-133.93 -73.11)"/>
        <path d="M303.67,90.51h0a1.18,1.18,0,0,1-.55-.14,1.1,1.1,0,0,1-.42-1.51,1.14,1.14,0,0,1,1.51-.42,1.11,1.11,0,0,1,.42,1.51A1.1,1.1,0,0,1,303.67,90.51Zm0-1.84A.73.73,0,0,0,303.3,90a.77.77,0,0,0,1-.28.75.75,0,0,0-.28-1A.8.8,0,0,0,303.67,88.67Z" transform="translate(-133.93 -73.11)"/>
      </g>
    </g>
    <g>
      <path class="cls-19" d="M192.79,89.88l-2.67-3c5-1.53,8.6-.36,11.5.58,2.15.7,3.71,1.21,5.85.75a6.08,6.08,0,0,0,3.8-2.27c1.14-1.25,2.43-2.67,6.77-3.09L220.16,86c-3.45.33-4.35,1.32-5.4,2.48a7.93,7.93,0,0,1-4.83,2.81c-3.11.68-5.74-.18-8.07-.93C199.24,89.46,196.76,88.66,192.79,89.88Z" transform="translate(-133.93 -73.11)"/>
      <path class="cls-19" d="M198,92.73l-2.67-3c5-1.53,8.6-.36,11.49.58,2.16.7,3.72,1.21,5.86.74a6.11,6.11,0,0,0,3.8-2.26c1.14-1.25,2.43-2.67,6.77-3.09l2.12,3.1c-3.45.33-4.35,1.33-5.41,2.49a7.87,7.87,0,0,1-4.83,2.81c-3.11.67-5.74-.18-8.06-.94C204.45,92.31,202,91.5,198,92.73Z" transform="translate(-133.93 -73.11)"/>
      <path class="cls-19" d="M196.84,95.9l-2.66-3c5-1.54,8.59-.37,11.5.57,2.15.7,3.7,1.21,5.84.75A6.15,6.15,0,0,0,215.33,92c1.13-1.25,2.42-2.67,6.76-3.08l2.12,3.1c-3.44.33-4.35,1.32-5.4,2.48A7.93,7.93,0,0,1,214,97.28c-3.11.66-5.74-.19-8.06-.94C203.29,95.48,200.81,94.68,196.84,95.9Z" transform="translate(-133.93 -73.11)"/>
      <path class="cls-19" d="M202.14,98.71l-2.67-3c5-1.53,8.6-.36,11.5.58,2.15.7,3.71,1.21,5.85.74a6.08,6.08,0,0,0,3.8-2.26c1.14-1.25,2.42-2.67,6.77-3.09l2.12,3.1c-3.45.33-4.36,1.33-5.41,2.49a7.87,7.87,0,0,1-4.82,2.81c-3.11.67-5.74-.18-8.07-.94C208.59,98.3,206.11,97.49,202.14,98.71Z" transform="translate(-133.93 -73.11)"/>
      <path class="cls-19" d="M193.6,86.61l-2.66-3c5-1.54,8.59-.36,11.49.57,2.15.71,3.71,1.21,5.85.75a6,6,0,0,0,3.8-2.27c1.14-1.25,2.43-2.67,6.77-3.08l2.12,3.1c-3.44.33-4.35,1.33-5.4,2.48A7.93,7.93,0,0,1,210.74,88c-3.11.67-5.74-.19-8.07-.94C200.05,86.2,197.57,85.39,193.6,86.61Z" transform="translate(-133.93 -73.11)"/>
      <polygon points="59.84 10.83 63.48 10.51 65.06 11.35 62.7 11.2 59.84 10.83"/>
      <polygon points="69.14 12.68 73.03 14.14 75.54 13.35 72.35 12.94 69.14 12.68"/>
      <polygon points="70.67 17.35 67.94 17.21 66.82 17.97 69.59 17.69 73.14 19.11 75.37 19.08 72.3 17.88 70.67 17.35"/>
      <path d="M220.71,90.16c-.69.07-2.46.47-2.46.47l-1.36,2.22,1.91-1.35,3-.41Z" transform="translate(-133.93 -73.11)"/>
      <polygon points="88.19 22.5 86.93 24.1 84.06 25 85.67 25.69 88.03 24.72 88.19 22.5"/>
      <polygon points="76.18 23.98 73.4 23.14 71.27 23.66 73.81 23.83 76.18 23.98"/>
      <polygon points="66.95 20.54 65.37 20.82 67.57 20.94 66.95 20.54"/>
      <polygon class="cls-20" points="79.82 11.03 77.85 11.57 75.54 13.35 78.72 12.65 79.82 11.03"/>
      <polygon class="cls-20" points="82.32 20.62 79.74 21.89 79.46 22.65 81.94 22.01 82.32 20.62"/>
      <polygon class="cls-20" points="93.38 19.82 90.49 20.88 90.28 22.29 92.67 21.17 93.38 19.82"/>
      <polygon class="cls-20" points="65.2 19.68 63.24 21.34 62.54 20.29 65.2 19.68"/>
      <polygon class="cls-21" points="77.01 16.1 73.47 15.8 75.38 16.68 77.01 16.1"/>
      <path class="cls-21" d="M214.42,98l-3.31-.74s1.71,1.18,2.19,1.4a23.93,23.93,0,0,0,3.35.43Z" transform="translate(-133.93 -73.11)"/>
      <polygon class="cls-21" points="66.36 16.47 63.43 16.57 64.57 18.16 66.36 16.47"/>
      <path class="cls-21" d="M217.8,81l-3.27,1.33s-1.31,1.91-.79,1.82a19,19,0,0,0,2.8-1.55Z" transform="translate(-133.93 -73.11)"/>
    </g>
    <g>
      <path class="cls-19" d="M245.87,89.88l-2.66-3c5-1.53,8.59-.36,11.49.58,2.15.7,3.71,1.21,5.85.75a6.07,6.07,0,0,0,3.81-2.27c1.13-1.25,2.42-2.67,6.76-3.09L273.24,86c-3.44.33-4.35,1.32-5.4,2.48A7.9,7.9,0,0,1,263,91.25c-3.11.68-5.74-.18-8.07-.93C252.32,89.46,249.84,88.66,245.87,89.88Z" transform="translate(-133.93 -73.11)"/>
      <path class="cls-19" d="M251.08,92.73l-2.67-3c5-1.53,8.6-.36,11.5.58,2.15.7,3.71,1.21,5.85.74a6.11,6.11,0,0,0,3.8-2.26c1.14-1.25,2.43-2.67,6.77-3.09l2.12,3.1c-3.45.33-4.36,1.33-5.4,2.49a7.93,7.93,0,0,1-4.83,2.81c-3.11.67-5.75-.18-8.07-.94C257.53,92.31,255.05,91.5,251.08,92.73Z" transform="translate(-133.93 -73.11)"/>
      <path class="cls-19" d="M249.92,95.9l-2.66-3c5-1.54,8.59-.37,11.49.57,2.16.7,3.72,1.21,5.85.75A6.12,6.12,0,0,0,268.41,92c1.14-1.25,2.42-2.67,6.77-3.08l2.11,3.1c-3.44.33-4.35,1.32-5.4,2.48a7.9,7.9,0,0,1-4.83,2.82c-3.11.66-5.74-.19-8.06-.94C256.38,95.48,253.9,94.68,249.92,95.9Z" transform="translate(-133.93 -73.11)"/>
      <path class="cls-19" d="M255.22,98.71l-2.67-3c5-1.53,8.6-.36,11.5.58,2.15.7,3.71,1.21,5.85.74a6.08,6.08,0,0,0,3.8-2.26c1.14-1.25,2.43-2.67,6.77-3.09l2.12,3.1c-3.45.33-4.35,1.33-5.4,2.49a7.93,7.93,0,0,1-4.83,2.81c-3.11.67-5.74-.18-8.07-.94C261.67,98.3,259.19,97.49,255.22,98.71Z" transform="translate(-133.93 -73.11)"/>
      <path class="cls-19" d="M246.68,86.61l-2.66-3c5-1.54,8.59-.36,11.49.57,2.15.71,3.71,1.21,5.85.75a6,6,0,0,0,3.8-2.27c1.14-1.25,2.43-2.67,6.77-3.08l2.12,3.1c-3.44.33-4.35,1.33-5.4,2.48A7.9,7.9,0,0,1,263.82,88c-3.11.67-5.74-.19-8.07-.94C253.13,86.2,250.65,85.39,246.68,86.61Z" transform="translate(-133.93 -73.11)"/>
      <polygon points="112.92 10.83 116.56 10.51 118.15 11.35 115.78 11.2 112.92 10.83"/>
      <polygon points="122.23 12.68 126.11 14.14 128.62 13.35 125.44 12.94 122.23 12.68"/>
      <polygon points="123.75 17.35 121.02 17.21 119.9 17.97 122.67 17.69 126.22 19.11 128.45 19.08 125.38 17.88 123.75 17.35"/>
      <path d="M273.79,90.16c-.69.07-2.46.47-2.46.47L270,92.85l1.91-1.35,3-.41Z" transform="translate(-133.93 -73.11)"/>
      <polygon points="141.28 22.5 140.01 24.1 137.14 25 138.75 25.69 141.12 24.72 141.28 22.5"/>
      <polygon points="129.26 23.98 126.48 23.14 124.35 23.66 126.89 23.83 129.26 23.98"/>
      <polygon points="120.03 20.54 118.45 20.82 120.65 20.94 120.03 20.54"/>
      <polygon class="cls-20" points="132.9 11.03 130.94 11.57 128.62 13.35 131.8 12.65 132.9 11.03"/>
      <polygon class="cls-20" points="135.4 20.62 132.82 21.89 132.54 22.65 135.02 22.01 135.4 20.62"/>
      <polygon class="cls-20" points="146.46 19.82 143.57 20.88 143.36 22.29 145.75 21.17 146.46 19.82"/>
      <polygon class="cls-20" points="118.28 19.68 116.32 21.34 115.62 20.29 118.28 19.68"/>
      <polygon class="cls-21" points="130.09 16.1 126.55 15.8 128.46 16.68 130.09 16.1"/>
      <path class="cls-21" d="M267.5,98l-3.31-.74s1.71,1.18,2.19,1.4a23.93,23.93,0,0,0,3.35.43Z" transform="translate(-133.93 -73.11)"/>
      <polygon class="cls-21" points="119.44 16.47 116.52 16.57 117.65 18.16 119.44 16.47"/>
      <path class="cls-21" d="M270.88,81l-3.27,1.33s-1.31,1.91-.79,1.82a19,19,0,0,0,2.8-1.55Z" transform="translate(-133.93 -73.11)"/>
    </g>
    <path class="cls-22" d="M337.2,91.24c2,.91,3.68-.77,5.37-1.07.41.46-.07,1.42.17,2,1.23.88,3.61.56,4.52,1.78-.54.43-1.27-.27-2.22-.53-1.64-.46-3.43-.18-2.81-2.59-1.47.69-3.93,2-5.63.8a11.5,11.5,0,0,1-1.71.89A43.9,43.9,0,0,0,333.11,97c-1.19-.43-1.23-2-2.65-2.23a4.3,4.3,0,0,0-.42,1.34c.33.09.68-1,1.19-.72,0,.69-.73,1.26-1.37,1.52-.7-.45-.16-1.46,0-2.23a8.66,8.66,0,0,1-5.37,1.7,4.92,4.92,0,0,1-2.47-.72c-1.55-1.16-1.14-4.19-.09-5.61a6.61,6.61,0,0,1,3.92-2.23A21.34,21.34,0,0,0,327,85.18c.49,0,.61-.13.77-.63,2.52-1,5.44-1.56,7.5-3-2.61.48-5.49,1.36-8.18,2.14a5.8,5.8,0,0,1-2.56.53c.1-.53.8-.59,1.2-.71,1.35-.4,2.86-.82,4.35-1.24,1.92-.56,4-1.35,6-1.16,0,.93-.93,1.19-1.54,1.51-1.86,1-4.4,1.66-6.48,2.5a7.21,7.21,0,0,0,1.87,2.58,14.49,14.49,0,0,1,3,.36c1-1.23,1.85-2.88,2.81-4.28.26-.38.61-1,1.11-1-.16,1-1,1.79-1.62,2.67s-1.08,1.86-1.62,2.77c.63.44,1.66.46,1.88,1.33-.78.17-1.29-.66-2.05-.8-1.1,1.32-1.68,3.17-2.48,4.81a18.18,18.18,0,0,0,3.67-1.42c.49-1.12,1.15-1.83,1.28-3.39.23-2.79,1.94-4.44,3.59-5.88a4.41,4.41,0,0,1,.51-1.07c.32-.08.3.22.51.27a12.84,12.84,0,0,1,7.84-1.88c.52,0,1.72.19,1.71.9,0,1.12-1.82,2.42-2.64,3.11A100.65,100.65,0,0,1,337.2,91.24Zm8.95-10.43c-2.34.19-5.16.94-6.4,2.4a20.75,20.75,0,0,0-1.7,3.3c-.64,1.19-2.2,3-1.36,4.37A90.79,90.79,0,0,0,346.75,84a7.66,7.66,0,0,0,2.64-3A7.21,7.21,0,0,0,346.15,80.81Zm-9.63,7.48c.51-1.33,1.52-2.62,1.87-3.83A7.25,7.25,0,0,0,336.52,88.29Zm-10-.53c.75-.16,1.75-.07,2.47-.27a13.05,13.05,0,0,1-1.62-2C327.17,86.29,326.8,87,326.54,87.76Zm-.17.53a10.09,10.09,0,0,0-.68,2.23c-.19.72-.24,1.73-.86,2-.21-1.21.55-2.84.86-4.1a4.84,4.84,0,0,0-4.18,4.82c.05,1.91,1.48,2.6,3.49,2.58,4.26,0,7.37-3.85,4.52-7.66A15.49,15.49,0,0,0,326.37,88.29Zm4.86,3.21c.45-1,.95-2,1.45-2.94a17,17,0,0,0-2.48-.35A9,9,0,0,1,331.23,91.5Zm4.18.09a3.85,3.85,0,0,0,.77-.35c-.07-.27,0-.63-.26-.72C335.78,90.91,335.55,91.21,335.41,91.59Zm-4.69,2.77c1.14.2,1.53,1.18,2.21,1.87a9.11,9.11,0,0,1,1.19-3.12c0-.11,0-.21-.16-.18C333.06,93.6,331.67,93.75,330.72,94.36Z" transform="translate(-133.93 -73.11)"/>
    <g>
      <path class="cls-17" d="M461.67,161.24A4.23,4.23,0,1,0,465.9,157,4.23,4.23,0,0,0,461.67,161.24Z" transform="translate(-133.93 -73.11)"/>
      <path class="cls-5" d="M462.43,161.24a3.47,3.47,0,1,0,3.47-3.47A3.47,3.47,0,0,0,462.43,161.24Z" transform="translate(-133.93 -73.11)"/>
      <polygon points="331.66 87.96 332.28 88.31 333.65 85.19 333.59 85.16 331.66 87.96"/>
      <polygon points="331.79 88.45 332.15 87.82 330.08 87.04 330.05 87.09 331.79 88.45"/>
      <g>
        <path class="cls-18" d="M465.61,161.08a.32.32,0,0,0,.13.44.32.32,0,0,0,.44-.12.32.32,0,0,0-.13-.44A.33.33,0,0,0,465.61,161.08Z" transform="translate(-133.93 -73.11)"/>
        <path d="M465.9,161.71h0a.5.5,0,0,1-.24-.06.47.47,0,0,1-.17-.64.48.48,0,0,1,.64-.18.47.47,0,0,1-.23.88Zm0-.78a.32.32,0,0,0-.28.16.31.31,0,0,0,.12.42.33.33,0,0,0,.43-.11.32.32,0,0,0-.12-.43A.28.28,0,0,0,465.9,160.93Z" transform="translate(-133.93 -73.11)"/>
      </g>
    </g>
    <g>
      <path class="cls-19" d="M424.14,161.16,423,159.89a7.34,7.34,0,0,1,4.89.24,4.36,4.36,0,0,0,2.5.32,2.63,2.63,0,0,0,1.62-1,3.67,3.67,0,0,1,2.88-1.32l.9,1.32a2.87,2.87,0,0,0-2.3,1.06,3.35,3.35,0,0,1-2.06,1.2,6.37,6.37,0,0,1-3.43-.4A5.63,5.63,0,0,0,424.14,161.16Z" transform="translate(-133.93 -73.11)"/>
      <path class="cls-19" d="M426.36,162.38l-1.14-1.28a7.36,7.36,0,0,1,4.9.25,4.42,4.42,0,0,0,2.49.31,2.63,2.63,0,0,0,1.63-1,3.67,3.67,0,0,1,2.88-1.32l.9,1.32a2.87,2.87,0,0,0-2.3,1.06,3.35,3.35,0,0,1-2.06,1.2,6.27,6.27,0,0,1-3.43-.4A5.58,5.58,0,0,0,426.36,162.38Z" transform="translate(-133.93 -73.11)"/>
      <path class="cls-19" d="M425.87,163.73l-1.14-1.28a7.43,7.43,0,0,1,4.9.25,4.42,4.42,0,0,0,2.49.32,2.58,2.58,0,0,0,1.62-1,3.74,3.74,0,0,1,2.89-1.32l.9,1.33a2.87,2.87,0,0,0-2.3,1.05,3.38,3.38,0,0,1-2.06,1.2,6.18,6.18,0,0,1-3.43-.4A5.64,5.64,0,0,0,425.87,163.73Z" transform="translate(-133.93 -73.11)"/>
      <path class="cls-19" d="M428.12,164.93,427,163.65a7.43,7.43,0,0,1,4.9.25,4.32,4.32,0,0,0,2.49.31,2.57,2.57,0,0,0,1.62-1,3.72,3.72,0,0,1,2.89-1.32l.9,1.32a2.88,2.88,0,0,0-2.3,1.06,3.42,3.42,0,0,1-2.06,1.2,6.3,6.3,0,0,1-3.44-.4A5.64,5.64,0,0,0,428.12,164.93Z" transform="translate(-133.93 -73.11)"/>
      <path class="cls-19" d="M424.49,159.77l-1.14-1.28a7.43,7.43,0,0,1,4.9.25,4.42,4.42,0,0,0,2.49.32,2.58,2.58,0,0,0,1.62-1,3.74,3.74,0,0,1,2.89-1.32l.9,1.33a2.83,2.83,0,0,0-2.3,1.06,3.4,3.4,0,0,1-2.06,1.2,6.39,6.39,0,0,1-3.44-.4A5.55,5.55,0,0,0,424.49,159.77Z" transform="translate(-133.93 -73.11)"/>
      <polygon points="290.63 85.52 292.18 85.39 292.86 85.75 291.85 85.68 290.63 85.52"/>
      <polygon points="294.59 86.31 296.25 86.94 297.32 86.6 295.96 86.42 294.59 86.31"/>
      <polygon points="295.25 88.3 294.08 88.24 293.6 88.56 294.79 88.45 296.3 89.05 297.25 89.04 295.94 88.53 295.25 88.3"/>
      <path d="M436,161.28c-.3,0-1.05.2-1.05.2l-.58,1,.81-.58,1.27-.17Z" transform="translate(-133.93 -73.11)"/>
      <polygon points="302.71 90.5 302.18 91.18 300.95 91.56 301.64 91.85 302.65 91.44 302.71 90.5"/>
      <polygon points="297.59 91.13 296.41 90.77 295.5 90.99 296.58 91.06 297.59 91.13"/>
      <polygon points="293.66 89.66 292.99 89.78 293.92 89.83 293.66 89.66"/>
      <polygon class="cls-20" points="299.14 85.61 298.31 85.84 297.32 86.6 298.67 86.3 299.14 85.61"/>
      <polygon class="cls-20" points="300.21 89.69 299.11 90.23 298.99 90.56 300.05 90.29 300.21 89.69"/>
      <polygon class="cls-20" points="304.92 89.35 303.69 89.81 303.6 90.41 304.62 89.93 304.92 89.35"/>
      <polygon class="cls-20" points="292.92 89.29 292.08 90 291.78 89.55 292.92 89.29"/>
      <polygon class="cls-21" points="297.95 87.77 296.44 87.64 297.25 88.02 297.95 87.77"/>
      <path class="cls-21" d="M433.36,164.61l-1.41-.32s.73.5.93.6a10.85,10.85,0,0,0,1.43.18Z" transform="translate(-133.93 -73.11)"/>
      <polygon class="cls-21" points="293.41 87.93 292.16 87.97 292.64 88.64 293.41 87.93"/>
      <path class="cls-21" d="M434.8,157.38l-1.4.56s-.56.81-.33.78a8.41,8.41,0,0,0,1.19-.67Z" transform="translate(-133.93 -73.11)"/>
    </g>
    <g>
      <path class="cls-19" d="M442.77,161.16l-1.13-1.27a7.35,7.35,0,0,1,4.89.24,4.36,4.36,0,0,0,2.5.32,2.63,2.63,0,0,0,1.62-1,3.67,3.67,0,0,1,2.88-1.32l.9,1.32a2.89,2.89,0,0,0-2.3,1.06,3.35,3.35,0,0,1-2.06,1.2,6.37,6.37,0,0,1-3.43-.4A5.63,5.63,0,0,0,442.77,161.16Z" transform="translate(-133.93 -73.11)"/>
      <path class="cls-19" d="M445,162.38l-1.14-1.28a7.36,7.36,0,0,1,4.9.25,4.44,4.44,0,0,0,2.5.31,2.63,2.63,0,0,0,1.62-1,3.67,3.67,0,0,1,2.88-1.32l.9,1.32a2.89,2.89,0,0,0-2.3,1.06,3.35,3.35,0,0,1-2.06,1.2,6.27,6.27,0,0,1-3.43-.4A5.58,5.58,0,0,0,445,162.38Z" transform="translate(-133.93 -73.11)"/>
      <path class="cls-19" d="M444.5,163.73l-1.14-1.28a7.42,7.42,0,0,1,4.9.25,4.42,4.42,0,0,0,2.49.32,2.58,2.58,0,0,0,1.62-1,3.74,3.74,0,0,1,2.89-1.32l.9,1.33a2.87,2.87,0,0,0-2.3,1.05,3.35,3.35,0,0,1-2.06,1.2,6.16,6.16,0,0,1-3.43-.4A5.64,5.64,0,0,0,444.5,163.73Z" transform="translate(-133.93 -73.11)"/>
      <path class="cls-19" d="M446.75,164.93l-1.13-1.28a7.43,7.43,0,0,1,4.9.25,4.33,4.33,0,0,0,2.49.31,2.57,2.57,0,0,0,1.62-1,3.72,3.72,0,0,1,2.89-1.32l.9,1.32a2.88,2.88,0,0,0-2.3,1.06,3.38,3.38,0,0,1-2.06,1.2,6.3,6.3,0,0,1-3.44-.4A5.64,5.64,0,0,0,446.75,164.93Z" transform="translate(-133.93 -73.11)"/>
      <path class="cls-19" d="M443.12,159.77,442,158.49a7.43,7.43,0,0,1,4.9.25,4.42,4.42,0,0,0,2.49.32,2.58,2.58,0,0,0,1.62-1,3.74,3.74,0,0,1,2.89-1.32l.9,1.33a2.84,2.84,0,0,0-2.3,1.06,3.43,3.43,0,0,1-2.06,1.2A6.39,6.39,0,0,1,447,160,5.55,5.55,0,0,0,443.12,159.77Z" transform="translate(-133.93 -73.11)"/>
      <polygon points="309.26 85.52 310.81 85.39 311.49 85.75 310.48 85.68 309.26 85.52"/>
      <polygon points="313.22 86.31 314.88 86.94 315.95 86.6 314.59 86.42 313.22 86.31"/>
      <polygon points="313.88 88.3 312.71 88.24 312.24 88.56 313.42 88.45 314.93 89.05 315.88 89.04 314.57 88.53 313.88 88.3"/>
      <path d="M454.67,161.28c-.3,0-1.05.2-1.05.2l-.58,1,.81-.58,1.27-.17Z" transform="translate(-133.93 -73.11)"/>
      <polygon points="321.34 90.5 320.8 91.18 319.58 91.56 320.27 91.85 321.27 91.44 321.34 90.5"/>
      <polygon points="316.22 91.13 315.04 90.77 314.13 90.99 315.21 91.06 316.22 91.13"/>
      <polygon points="312.29 89.66 311.62 89.78 312.56 89.83 312.29 89.66"/>
      <polygon class="cls-20" points="317.77 85.61 316.94 85.84 315.95 86.6 317.31 86.3 317.77 85.61"/>
      <polygon class="cls-20" points="318.84 89.69 317.74 90.23 317.62 90.56 318.68 90.29 318.84 89.69"/>
      <polygon class="cls-20" points="323.55 89.35 322.32 89.81 322.23 90.41 323.25 89.93 323.55 89.35"/>
      <polygon class="cls-20" points="311.54 89.29 310.71 90 310.41 89.55 311.54 89.29"/>
      <polygon class="cls-21" points="316.58 87.77 315.07 87.64 315.88 88.02 316.58 87.77"/>
      <path class="cls-21" d="M452,164.61l-1.41-.32s.73.5.93.6a10.65,10.65,0,0,0,1.43.18Z" transform="translate(-133.93 -73.11)"/>
      <polygon class="cls-21" points="312.04 87.93 310.79 87.97 311.27 88.64 312.04 87.93"/>
      <path class="cls-21" d="M453.43,157.38l-1.4.56s-.56.81-.33.78a8.41,8.41,0,0,0,1.19-.67Z" transform="translate(-133.93 -73.11)"/>
    </g>
    <path class="cls-22" d="M480.74,162.28c.86.39,1.57-.32,2.29-.45.18.19,0,.6.08.83.52.38,1.53.24,1.92.76-.23.18-.54-.11-.95-.23-.69-.19-1.46-.07-1.19-1.1-.63.29-1.68.84-2.4.34a4.59,4.59,0,0,1-.73.38,18.62,18.62,0,0,0-.76,1.94c-.51-.18-.52-.87-1.13-.95a1.91,1.91,0,0,0-.18.57c.14,0,.29-.42.51-.3,0,.29-.31.53-.58.64-.3-.19-.07-.62,0-1a3.62,3.62,0,0,1-2.29.72,2.11,2.11,0,0,1-1.06-.3c-.65-.49-.48-1.79,0-2.39a2.72,2.72,0,0,1,1.67-.95,10.48,10.48,0,0,0,.47-1.14c.21,0,.26-.06.33-.27a14.76,14.76,0,0,0,3.2-1.29c-1.12.21-2.34.58-3.49.91a2.43,2.43,0,0,1-1.09.23c0-.23.34-.25.51-.3.57-.18,1.22-.35,1.85-.54a7.31,7.31,0,0,1,2.55-.49c0,.4-.4.51-.66.65-.79.41-1.88.7-2.76,1.06a3,3,0,0,0,.8,1.1,7,7,0,0,1,1.27.15c.43-.52.79-1.22,1.2-1.82.11-.16.26-.43.47-.42-.07.44-.44.76-.69,1.14s-.46.79-.69,1.18c.27.19.71.2.8.57-.33.07-.55-.28-.87-.34a9.9,9.9,0,0,0-1.06,2.05,8.14,8.14,0,0,0,1.57-.61,3.83,3.83,0,0,0,.54-1.44,3.71,3.71,0,0,1,1.53-2.51,1.78,1.78,0,0,1,.22-.46c.13,0,.12.1.21.12a5.45,5.45,0,0,1,3.34-.8c.23,0,.74.08.73.38,0,.48-.77,1-1.12,1.33A41.7,41.7,0,0,1,480.74,162.28Zm3.82-4.44a4.33,4.33,0,0,0-2.73,1,8.44,8.44,0,0,0-.72,1.41c-.28.5-.94,1.29-.58,1.86a39.36,39.36,0,0,0,4.28-2.93,3.21,3.21,0,0,0,1.13-1.29A3.05,3.05,0,0,0,484.56,157.84ZM480.45,161c.22-.57.66-1.12.8-1.64A3.17,3.17,0,0,0,480.45,161Zm-4.25-.23c.32-.07.75,0,1.05-.12a5.34,5.34,0,0,1-.68-.87C476.47,160.17,476.31,160.46,476.2,160.8Zm-.07.23a3.94,3.94,0,0,0-.29.95c-.08.3-.1.73-.37.87a5.09,5.09,0,0,1,.37-1.75,2.06,2.06,0,0,0-1.78,2.05c0,.82.63,1.11,1.48,1.11,1.82,0,3.15-1.64,1.93-3.27A6.19,6.19,0,0,0,476.13,161Zm2.07,1.36c.19-.43.41-.84.62-1.25a6.94,6.94,0,0,0-1.06-.15A4,4,0,0,1,478.2,162.39Zm1.78,0a1.4,1.4,0,0,0,.33-.15c0-.11,0-.27-.11-.3C480.14,162.14,480,162.27,480,162.43Zm-2,1.18c.49.09.66.51.95.8a3.88,3.88,0,0,1,.5-1.33c0-.05,0-.09-.07-.08C479,163.29,478.39,163.35,478,163.61Z" transform="translate(-133.93 -73.11)"/>
    <path d="M267.14,102.46c.29,1,.55,1.57.85,2.33h-2.9a22,22,0,0,0,.87-2.32,17.55,17.55,0,0,0,.6-2.54A17,17,0,0,0,267.14,102.46Z" transform="translate(-133.93 -73.11)"/>
    <g>
      <path class="cls-19" d="M185.14,126.17l-2.67-3c5-1.53,8.59-.36,11.5.58,2.15.7,3.71,1.2,5.85.74a6.11,6.11,0,0,0,3.8-2.26c1.14-1.25,2.42-2.67,6.77-3.09l2.11,3.1c-3.44.33-4.35,1.33-5.39,2.48a7.89,7.89,0,0,1-4.83,2.82c-3.12.67-5.75-.19-8.07-.94C191.59,125.76,189.1,125,185.14,126.17Z" transform="translate(-133.93 -73.11)"/>
      <path class="cls-19" d="M190.34,129l-2.66-3c5-1.54,8.59-.37,11.49.57,2.16.7,3.71,1.21,5.85.75a6.1,6.1,0,0,0,3.81-2.27c1.13-1.25,2.42-2.67,6.76-3.08l2.12,3.09c-3.44.34-4.35,1.33-5.4,2.49a7.88,7.88,0,0,1-4.83,2.81c-3.11.68-5.74-.18-8.06-.93C196.79,128.6,194.31,127.8,190.34,129Z" transform="translate(-133.93 -73.11)"/>
      <path class="cls-19" d="M189.19,132.19l-2.67-3c5-1.54,8.6-.36,11.5.58,2.15.7,3.71,1.2,5.85.74a6.08,6.08,0,0,0,3.8-2.27c1.14-1.24,2.43-2.66,6.77-3.08l2.12,3.1c-3.45.33-4.35,1.33-5.41,2.48a7.86,7.86,0,0,1-4.82,2.82c-3.11.67-5.74-.18-8.07-.94C195.64,131.78,193.16,131,189.19,132.19Z" transform="translate(-133.93 -73.11)"/>
      <path class="cls-19" d="M194.48,135l-2.66-3c5-1.53,8.59-.36,11.49.58,2.15.7,3.71,1.21,5.85.75a6,6,0,0,0,3.8-2.27c1.15-1.25,2.43-2.67,6.78-3.08l2.11,3.1c-3.44.33-4.35,1.32-5.4,2.48a7.9,7.9,0,0,1-4.83,2.81c-3.1.68-5.74-.18-8.06-.93C200.93,134.59,198.45,133.79,194.48,135Z" transform="translate(-133.93 -73.11)"/>
      <path class="cls-19" d="M186,122.91l-2.67-3c5-1.53,8.6-.36,11.5.58,2.15.7,3.71,1.2,5.85.74a6.11,6.11,0,0,0,3.8-2.26c1.14-1.26,2.43-2.67,6.77-3.09l2.11,3.1c-3.44.33-4.35,1.33-5.4,2.48a7.86,7.86,0,0,1-4.83,2.82c-3.11.67-5.74-.19-8.06-.94C192.39,122.49,189.92,121.68,186,122.91Z" transform="translate(-133.93 -73.11)"/>
      <polygon points="52.19 47.13 55.83 46.8 57.41 47.65 55.04 47.5 52.19 47.13"/>
      <polygon points="61.49 48.97 65.37 50.44 67.88 49.65 64.7 49.23 61.49 48.97"/>
      <polygon points="63.02 53.65 60.28 53.51 59.16 54.27 61.94 53.99 65.49 55.41 67.72 55.38 64.64 54.18 63.02 53.65"/>
      <path d="M213.06,126.45c-.7.07-2.47.48-2.47.48l-1.35,2.22,1.91-1.35,3-.41Z" transform="translate(-133.93 -73.11)"/>
      <polygon points="80.54 58.8 79.28 60.39 76.41 61.3 78.02 61.98 80.38 61.01 80.54 58.8"/>
      <polygon points="68.53 60.27 65.75 59.43 63.62 59.95 66.16 60.12 68.53 60.27"/>
      <polygon points="59.3 56.84 57.71 57.11 59.92 57.24 59.3 56.84"/>
      <polygon class="cls-20" points="72.16 47.33 70.2 47.87 67.88 49.65 71.06 48.94 72.16 47.33"/>
      <polygon class="cls-20" points="74.67 56.92 72.08 58.18 71.8 58.94 74.29 58.3 74.67 56.92"/>
      <polygon class="cls-20" points="85.72 56.12 82.83 57.18 82.62 58.59 85.01 57.46 85.72 56.12"/>
      <polygon class="cls-20" points="57.54 55.97 55.59 57.63 54.88 56.58 57.54 55.97"/>
      <polygon class="cls-21" points="69.36 52.4 65.81 52.09 67.73 52.98 69.36 52.4"/>
      <path class="cls-21" d="M206.77,134.26l-3.31-.75s1.7,1.18,2.18,1.4a24.29,24.29,0,0,0,3.36.44Z" transform="translate(-133.93 -73.11)"/>
      <polygon class="cls-21" points="58.7 52.77 55.78 52.87 56.91 54.45 58.7 52.77"/>
      <path class="cls-21" d="M210.15,117.29l-3.28,1.33s-1.31,1.9-.78,1.81a19.3,19.3,0,0,0,2.79-1.55Z" transform="translate(-133.93 -73.11)"/>
    </g>
    <path d="M276.38,125.46a21.94,21.94,0,0,1,2.33.85v-2.9a23.05,23.05,0,0,1-2.33.86,15.15,15.15,0,0,1-2.53.6A18.7,18.7,0,0,1,276.38,125.46Z" transform="translate(-133.93 -73.11)"/>
    <line class="cls-13" x1="144.55" y1="51.75" x2="174.92" y2="51.75"/>
    <g>
      <path class="cls-19" d="M306.31,126.17l-2.66-3c5-1.53,8.59-.36,11.49.58,2.15.7,3.71,1.2,5.85.74a6.14,6.14,0,0,0,3.81-2.26c1.13-1.25,2.42-2.67,6.77-3.09l2.11,3.1c-3.44.33-4.35,1.33-5.4,2.48a7.86,7.86,0,0,1-4.83,2.82c-3.11.67-5.74-.19-8.06-.94C312.76,125.76,310.28,125,306.31,126.17Z" transform="translate(-133.93 -73.11)"/>
      <path class="cls-19" d="M311.52,129l-2.67-3c5-1.54,8.6-.37,11.5.57,2.15.7,3.71,1.21,5.85.75a6.08,6.08,0,0,0,3.8-2.27c1.14-1.25,2.43-2.67,6.77-3.08l2.12,3.09c-3.45.34-4.35,1.33-5.4,2.49a7.88,7.88,0,0,1-4.84,2.81c-3.1.68-5.73-.18-8.06-.93C318,128.6,315.49,127.8,311.52,129Z" transform="translate(-133.93 -73.11)"/>
      <path class="cls-19" d="M310.36,132.19l-2.66-3c5-1.54,8.59-.36,11.5.58,2.15.7,3.71,1.2,5.84.74a6.07,6.07,0,0,0,3.81-2.27c1.13-1.24,2.42-2.66,6.77-3.08l2.11,3.1c-3.44.33-4.35,1.33-5.4,2.48a7.86,7.86,0,0,1-4.83,2.82c-3.11.67-5.74-.18-8.06-.94C316.82,131.78,314.33,131,310.36,132.19Z" transform="translate(-133.93 -73.11)"/>
      <path class="cls-19" d="M315.66,135,313,132c5-1.53,8.59-.36,11.49.58,2.15.7,3.71,1.21,5.85.75a6,6,0,0,0,3.8-2.27c1.14-1.25,2.43-2.67,6.77-3.08l2.12,3.1c-3.45.33-4.35,1.32-5.41,2.48a7.87,7.87,0,0,1-4.82,2.81c-3.11.68-5.74-.18-8.07-.93C322.11,134.59,319.63,133.79,315.66,135Z" transform="translate(-133.93 -73.11)"/>
      <path class="cls-19" d="M307.12,122.91l-2.66-3c5-1.53,8.59-.36,11.49.58,2.15.7,3.71,1.2,5.85.74a6.08,6.08,0,0,0,3.8-2.26c1.14-1.26,2.43-2.67,6.77-3.09l2.12,3.1c-3.44.33-4.35,1.33-5.4,2.48a7.86,7.86,0,0,1-4.83,2.82c-3.11.67-5.74-.19-8.07-.94C313.57,122.49,311.09,121.68,307.12,122.91Z" transform="translate(-133.93 -73.11)"/>
      <polygon points="173.37 47.13 177 46.8 178.59 47.65 176.22 47.5 173.37 47.13"/>
      <polygon points="182.67 48.97 186.55 50.44 189.06 49.65 185.87 49.23 182.67 48.97"/>
      <polygon points="184.19 53.65 181.46 53.51 180.34 54.27 183.11 53.99 186.66 55.41 188.89 55.38 185.82 54.18 184.19 53.65"/>
      <path d="M334.23,126.45c-.69.07-2.46.48-2.46.48l-1.36,2.22,1.91-1.35,3-.41Z" transform="translate(-133.93 -73.11)"/>
      <polygon points="201.71 58.8 200.46 60.39 197.58 61.3 199.19 61.98 201.56 61.01 201.71 58.8"/>
      <polygon points="189.7 60.27 186.92 59.43 184.79 59.95 187.33 60.12 189.7 60.27"/>
      <polygon points="180.47 56.84 178.89 57.11 181.09 57.24 180.47 56.84"/>
      <polygon class="cls-20" points="193.34 47.33 191.38 47.87 189.06 49.65 192.24 48.94 193.34 47.33"/>
      <polygon class="cls-20" points="195.84 56.92 193.26 58.18 192.98 58.94 195.46 58.3 195.84 56.92"/>
      <polygon class="cls-20" points="206.9 56.12 204.01 57.18 203.8 58.59 206.19 57.46 206.9 56.12"/>
      <polygon class="cls-20" points="178.72 55.97 176.76 57.63 176.06 56.58 178.72 55.97"/>
      <polygon class="cls-21" points="190.53 52.4 186.99 52.09 188.91 52.98 190.53 52.4"/>
      <path class="cls-21" d="M327.94,134.26l-3.31-.75s1.71,1.18,2.19,1.4a24.18,24.18,0,0,0,3.35.44Z" transform="translate(-133.93 -73.11)"/>
      <polygon class="cls-21" points="179.88 52.77 176.96 52.87 178.09 54.45 179.88 52.77"/>
      <path class="cls-21" d="M331.32,117.29l-3.27,1.33s-1.31,1.9-.78,1.81a19.3,19.3,0,0,0,2.79-1.55Z" transform="translate(-133.93 -73.11)"/>
    </g>
    <line class="cls-13" x1="72.04" y1="67.8" x2="72.04" y2="77.72"/>
    <path d="M196.13,156.1a24.39,24.39,0,0,0-2.33.85v-2.9a24.59,24.59,0,0,0,2.32.87,17.55,17.55,0,0,0,2.54.6A17,17,0,0,0,196.13,156.1Z" transform="translate(-133.93 -73.11)"/>
    <text class="cls-14" transform="translate(64.11 88.12)">+</text>
    <text class="cls-15" transform="translate(64.11 88.12)">+</text>
    <path d="M206.57,138.81a21.94,21.94,0,0,0,.85,2.33h-2.91a22.94,22.94,0,0,0,.87-2.32,17.55,17.55,0,0,0,.6-2.54A16.07,16.07,0,0,0,206.57,138.81Z" transform="translate(-133.93 -73.11)"/>
    <g>
      <path class="cls-19" d="M160.51,174.62l-2.66-3c5-1.54,8.59-.37,11.49.57,2.16.71,3.71,1.21,5.86.75a6.08,6.08,0,0,0,3.8-2.27c1.13-1.25,2.42-2.67,6.77-3.08l2.11,3.1c-3.44.33-4.35,1.32-5.4,2.48a7.85,7.85,0,0,1-4.83,2.81c-3.11.68-5.74-.18-8.06-.93C167,174.2,164.48,173.4,160.51,174.62Z" transform="translate(-133.93 -73.11)"/>
      <path class="cls-19" d="M165.72,177.47l-2.67-3c5-1.53,8.6-.36,11.5.58,2.15.7,3.71,1.21,5.85.74a6.08,6.08,0,0,0,3.8-2.26c1.14-1.25,2.43-2.67,6.77-3.09l2.12,3.1c-3.45.33-4.35,1.33-5.4,2.49a7.93,7.93,0,0,1-4.83,2.81c-3.11.67-5.74-.18-8.07-.94C172.17,177.05,169.69,176.24,165.72,177.47Z" transform="translate(-133.93 -73.11)"/>
      <path class="cls-19" d="M164.57,180.64l-2.67-3c5-1.54,8.6-.37,11.5.58,2.15.69,3.71,1.2,5.85.74a6.08,6.08,0,0,0,3.8-2.27c1.14-1.25,2.43-2.67,6.77-3.08l2.12,3.1c-3.45.33-4.35,1.32-5.41,2.48a7.9,7.9,0,0,1-4.82,2.82c-3.11.67-5.74-.19-8.07-.94C171,180.22,168.54,179.42,164.57,180.64Z" transform="translate(-133.93 -73.11)"/>
      <path class="cls-19" d="M169.86,183.46l-2.66-3c5-1.53,8.59-.36,11.49.58,2.15.7,3.71,1.21,5.85.74a6.08,6.08,0,0,0,3.8-2.26c1.14-1.25,2.43-2.67,6.77-3.09l2.12,3.1c-3.44.33-4.35,1.33-5.4,2.49a7.9,7.9,0,0,1-4.83,2.81c-3.11.67-5.74-.18-8.06-.94C176.31,183,173.83,182.23,169.86,183.46Z" transform="translate(-133.93 -73.11)"/>
      <path class="cls-19" d="M161.33,171.35l-2.67-3c5-1.54,8.6-.36,11.5.57,2.15.71,3.71,1.21,5.85.75a6.1,6.1,0,0,0,3.8-2.27c1.14-1.25,2.43-2.67,6.76-3.08l2.12,3.1c-3.44.33-4.35,1.33-5.4,2.48a7.9,7.9,0,0,1-4.83,2.82c-3.11.67-5.74-.19-8.06-.94C167.77,170.94,165.3,170.13,161.33,171.35Z" transform="translate(-133.93 -73.11)"/>
      <polygon points="27.57 95.57 31.21 95.25 32.79 96.09 30.42 95.94 27.57 95.57"/>
      <polygon points="36.87 97.42 40.75 98.88 43.26 98.09 40.08 97.68 36.87 97.42"/>
      <polygon points="38.39 102.09 35.66 101.95 34.54 102.71 37.32 102.43 40.87 103.85 43.1 103.82 40.02 102.62 38.39 102.09"/>
      <path d="M188.43,174.9c-.69.07-2.46.47-2.46.47l-1.36,2.23,1.91-1.36,3-.41Z" transform="translate(-133.93 -73.11)"/>
      <polygon points="55.92 107.24 54.66 108.84 51.79 109.74 53.39 110.43 55.76 109.46 55.92 107.24"/>
      <polygon points="43.91 108.72 41.13 107.88 38.99 108.4 41.53 108.57 43.91 108.72"/>
      <polygon points="34.67 105.28 33.09 105.56 35.29 105.68 34.67 105.28"/>
      <polygon class="cls-20" points="47.54 95.77 45.58 96.31 43.26 98.09 46.44 97.39 47.54 95.77"/>
      <polygon class="cls-20" points="50.05 105.36 47.46 106.63 47.18 107.39 49.66 106.75 50.05 105.36"/>
      <polygon class="cls-20" points="61.1 104.56 58.21 105.62 58 107.03 60.39 105.91 61.1 104.56"/>
      <polygon class="cls-20" points="32.92 104.42 30.96 106.08 30.26 105.03 32.92 104.42"/>
      <polygon class="cls-21" points="44.73 100.84 41.19 100.54 43.11 101.42 44.73 100.84"/>
      <path class="cls-21" d="M182.14,182.71l-3.3-.75s1.7,1.18,2.18,1.4a24.29,24.29,0,0,0,3.36.44Z" transform="translate(-133.93 -73.11)"/>
      <polygon class="cls-21" points="34.08 101.21 31.16 101.31 32.29 102.9 34.08 101.21"/>
      <path class="cls-21" d="M185.53,165.73l-3.28,1.33s-1.31,1.91-.78,1.82a19.3,19.3,0,0,0,2.79-1.55Z" transform="translate(-133.93 -73.11)"/>
    </g>
    <path d="M215.8,156.1a24.39,24.39,0,0,1,2.33.85v-2.9c-.27.13-1.38.57-2.32.87a17.55,17.55,0,0,1-2.54.6A17,17,0,0,1,215.8,156.1Z" transform="translate(-133.93 -73.11)"/>
    <g>
      <path class="cls-19" d="M222.64,174.62l-2.66-3c5-1.54,8.59-.37,11.49.57,2.15.71,3.71,1.21,5.85.75a6.1,6.1,0,0,0,3.81-2.27c1.13-1.25,2.42-2.67,6.77-3.08l2.11,3.1c-3.44.33-4.35,1.32-5.4,2.48a7.85,7.85,0,0,1-4.83,2.81c-3.11.68-5.74-.18-8.06-.93C229.09,174.2,226.61,173.4,222.64,174.62Z" transform="translate(-133.93 -73.11)"/>
      <path class="cls-19" d="M227.85,177.47l-2.67-3c5-1.53,8.6-.36,11.5.58,2.15.7,3.71,1.21,5.85.74a6.11,6.11,0,0,0,3.8-2.26c1.14-1.25,2.43-2.67,6.77-3.09l2.12,3.1c-3.45.33-4.35,1.33-5.4,2.49a7.93,7.93,0,0,1-4.84,2.81c-3.1.67-5.73-.18-8.06-.94C234.3,177.05,231.82,176.24,227.85,177.47Z" transform="translate(-133.93 -73.11)"/>
      <path class="cls-19" d="M226.7,180.64l-2.67-3c5-1.54,8.59-.37,11.5.58,2.15.69,3.71,1.2,5.85.74a6.08,6.08,0,0,0,3.8-2.27c1.13-1.25,2.42-2.67,6.77-3.08l2.11,3.1c-3.44.33-4.35,1.32-5.4,2.48a7.9,7.9,0,0,1-4.83,2.82c-3.11.67-5.74-.19-8.06-.94C233.15,180.22,230.66,179.42,226.7,180.64Z" transform="translate(-133.93 -73.11)"/>
      <path class="cls-19" d="M232,183.46l-2.66-3c5-1.53,8.59-.36,11.49.58,2.15.7,3.71,1.21,5.85.74a6.08,6.08,0,0,0,3.8-2.26c1.14-1.25,2.43-2.67,6.77-3.09l2.12,3.1c-3.45.33-4.35,1.33-5.4,2.49a7.93,7.93,0,0,1-4.83,2.81c-3.11.67-5.74-.18-8.07-.94C238.44,183,236,182.23,232,183.46Z" transform="translate(-133.93 -73.11)"/>
      <path class="cls-19" d="M223.46,171.35l-2.67-3c5-1.54,8.59-.36,11.49.57,2.15.71,3.71,1.21,5.85.75a6,6,0,0,0,3.8-2.27c1.14-1.25,2.43-2.67,6.77-3.08l2.12,3.1c-3.44.33-4.35,1.33-5.4,2.48a7.9,7.9,0,0,1-4.83,2.82c-3.11.67-5.74-.19-8.07-.94C229.9,170.94,227.42,170.13,223.46,171.35Z" transform="translate(-133.93 -73.11)"/>
      <polygon points="89.7 95.57 93.34 95.25 94.92 96.09 92.55 95.94 89.7 95.57"/>
      <polygon points="99 97.42 102.88 98.88 105.39 98.09 102.2 97.68 99 97.42"/>
      <polygon points="100.52 102.09 97.79 101.95 96.67 102.71 99.44 102.43 103 103.85 105.22 103.82 102.15 102.62 100.52 102.09"/>
      <path d="M250.56,174.9c-.69.07-2.46.47-2.46.47l-1.36,2.23,1.91-1.36,3-.41Z" transform="translate(-133.93 -73.11)"/>
      <polygon points="118.04 107.24 116.78 108.84 113.91 109.74 115.52 110.43 117.89 109.46 118.04 107.24"/>
      <polygon points="106.03 108.72 103.25 107.88 101.12 108.4 103.66 108.57 106.03 108.72"/>
      <polygon points="96.8 105.28 95.22 105.56 97.42 105.68 96.8 105.28"/>
      <polygon class="cls-20" points="109.67 95.77 107.71 96.31 105.39 98.09 108.57 97.39 109.67 95.77"/>
      <polygon class="cls-20" points="112.17 105.36 109.59 106.63 109.31 107.39 111.79 106.75 112.17 105.36"/>
      <polygon class="cls-20" points="123.23 104.56 120.34 105.62 120.13 107.03 122.52 105.91 123.23 104.56"/>
      <polygon class="cls-20" points="95.05 104.42 93.09 106.08 92.39 105.03 95.05 104.42"/>
      <polygon class="cls-21" points="106.86 100.84 103.32 100.54 105.24 101.42 106.86 100.84"/>
      <path class="cls-21" d="M244.27,182.71,241,182s1.71,1.18,2.19,1.4a24.18,24.18,0,0,0,3.35.44Z" transform="translate(-133.93 -73.11)"/>
      <polygon class="cls-21" points="96.21 101.21 93.29 101.31 94.42 102.9 96.21 101.21"/>
      <path class="cls-21" d="M247.65,165.73l-3.27,1.33s-1.31,1.91-.78,1.82a19.3,19.3,0,0,0,2.79-1.55Z" transform="translate(-133.93 -73.11)"/>
    </g>
    <polyline class="cls-13" points="199.71 82.39 220.57 82.39 220.57 97.68"/>
    <polyline class="cls-13" points="176.1 82.39 156.57 82.39 156.57 97.68"/>
    <line class="cls-13" x1="188.04" y1="66.31" x2="188.04" y2="77.72"/>
    <path d="M312.13,156.1a24.39,24.39,0,0,0-2.33.85v-2.9a24.59,24.59,0,0,0,2.32.87,17.55,17.55,0,0,0,2.54.6A17,17,0,0,0,312.13,156.1Z" transform="translate(-133.93 -73.11)"/>
    <text class="cls-14" transform="translate(180.11 88.12)">+</text>
    <text class="cls-15" transform="translate(180.11 88.12)">+</text>
    <path d="M322.57,137.32a21.94,21.94,0,0,0,.85,2.33h-2.91a22,22,0,0,0,.87-2.32,17.55,17.55,0,0,0,.6-2.54A16.07,16.07,0,0,0,322.57,137.32Z" transform="translate(-133.93 -73.11)"/>
    <g>
      <path class="cls-19" d="M276.51,174.62l-2.66-3c5-1.54,8.59-.37,11.49.57,2.16.71,3.71,1.21,5.86.75a6.08,6.08,0,0,0,3.8-2.27c1.13-1.25,2.42-2.67,6.77-3.08l2.11,3.1c-3.44.33-4.35,1.32-5.4,2.48a7.85,7.85,0,0,1-4.83,2.81c-3.11.68-5.74-.18-8.06-.93C283,174.2,280.48,173.4,276.51,174.62Z" transform="translate(-133.93 -73.11)"/>
      <path class="cls-19" d="M281.72,177.47l-2.67-3c5-1.53,8.6-.36,11.5.58,2.15.7,3.71,1.21,5.85.74a6.08,6.08,0,0,0,3.8-2.26c1.14-1.25,2.43-2.67,6.77-3.09l2.12,3.1c-3.45.33-4.35,1.33-5.4,2.49a7.93,7.93,0,0,1-4.83,2.81c-3.11.67-5.74-.18-8.07-.94C288.17,177.05,285.69,176.24,281.72,177.47Z" transform="translate(-133.93 -73.11)"/>
      <path class="cls-19" d="M280.57,180.64l-2.67-3c5-1.54,8.6-.37,11.5.58,2.15.69,3.71,1.2,5.85.74a6.08,6.08,0,0,0,3.8-2.27c1.14-1.25,2.43-2.67,6.77-3.08l2.12,3.1c-3.45.33-4.35,1.32-5.41,2.48a7.9,7.9,0,0,1-4.82,2.82c-3.11.67-5.74-.19-8.07-.94C287,180.22,284.54,179.42,280.57,180.64Z" transform="translate(-133.93 -73.11)"/>
      <path class="cls-19" d="M285.86,183.46l-2.66-3c5-1.53,8.59-.36,11.49.58,2.15.7,3.71,1.21,5.85.74a6.08,6.08,0,0,0,3.8-2.26c1.14-1.25,2.43-2.67,6.77-3.09l2.12,3.1c-3.44.33-4.35,1.33-5.4,2.49a7.9,7.9,0,0,1-4.83,2.81c-3.11.67-5.74-.18-8.06-.94C292.31,183,289.83,182.23,285.86,183.46Z" transform="translate(-133.93 -73.11)"/>
      <path class="cls-19" d="M277.33,171.35l-2.67-3c5-1.54,8.6-.36,11.5.57,2.15.71,3.71,1.21,5.85.75a6.1,6.1,0,0,0,3.8-2.27c1.14-1.25,2.43-2.67,6.76-3.08l2.12,3.1c-3.44.33-4.35,1.33-5.4,2.48a7.9,7.9,0,0,1-4.83,2.82c-3.11.67-5.74-.19-8.06-.94C283.77,170.94,281.3,170.13,277.33,171.35Z" transform="translate(-133.93 -73.11)"/>
      <polygon points="143.57 95.57 147.21 95.25 148.79 96.09 146.42 95.94 143.57 95.57"/>
      <polygon points="152.87 97.42 156.75 98.88 159.26 98.09 156.08 97.68 152.87 97.42"/>
      <polygon points="154.39 102.09 151.66 101.95 150.54 102.71 153.32 102.43 156.87 103.85 159.1 103.82 156.02 102.62 154.39 102.09"/>
      <path d="M304.43,174.9c-.69.07-2.46.47-2.46.47l-1.36,2.23,1.91-1.36,3-.41Z" transform="translate(-133.93 -73.11)"/>
      <polygon points="171.92 107.24 170.66 108.84 167.79 109.74 169.39 110.43 171.76 109.46 171.92 107.24"/>
      <polygon points="159.91 108.72 157.13 107.88 155 108.4 157.53 108.57 159.91 108.72"/>
      <polygon points="150.67 105.28 149.09 105.56 151.29 105.68 150.67 105.28"/>
      <polygon class="cls-20" points="163.54 95.77 161.58 96.31 159.26 98.09 162.44 97.39 163.54 95.77"/>
      <polygon class="cls-20" points="166.04 105.36 163.46 106.63 163.18 107.39 165.66 106.75 166.04 105.36"/>
      <polygon class="cls-20" points="177.1 104.56 174.21 105.62 174 107.03 176.39 105.91 177.1 104.56"/>
      <polygon class="cls-20" points="148.92 104.42 146.96 106.08 146.26 105.03 148.92 104.42"/>
      <polygon class="cls-21" points="160.73 100.84 157.19 100.54 159.11 101.42 160.73 100.84"/>
      <path class="cls-21" d="M298.14,182.71l-3.3-.75s1.7,1.18,2.18,1.4a24.29,24.29,0,0,0,3.36.44Z" transform="translate(-133.93 -73.11)"/>
      <polygon class="cls-21" points="150.08 101.21 147.16 101.31 148.29 102.9 150.08 101.21"/>
      <path class="cls-21" d="M301.53,165.73l-3.28,1.33s-1.31,1.91-.78,1.82a19.3,19.3,0,0,0,2.79-1.55Z" transform="translate(-133.93 -73.11)"/>
    </g>
    <path d="M331.8,156.1a24.39,24.39,0,0,1,2.33.85v-2.9c-.27.13-1.38.57-2.32.87a17.55,17.55,0,0,1-2.54.6A17,17,0,0,1,331.8,156.1Z" transform="translate(-133.93 -73.11)"/>
    <g>
      <path class="cls-19" d="M338.64,174.62l-2.66-3c5-1.54,8.59-.37,11.49.57,2.15.71,3.71,1.21,5.85.75a6.1,6.1,0,0,0,3.81-2.27c1.13-1.25,2.42-2.67,6.77-3.08l2.11,3.1c-3.44.33-4.35,1.32-5.4,2.48a7.85,7.85,0,0,1-4.83,2.81c-3.11.68-5.74-.18-8.06-.93C345.09,174.2,342.61,173.4,338.64,174.62Z" transform="translate(-133.93 -73.11)"/>
      <path class="cls-19" d="M343.85,177.47l-2.67-3c5-1.53,8.6-.36,11.5.58,2.15.7,3.71,1.21,5.85.74a6.11,6.11,0,0,0,3.8-2.26c1.14-1.25,2.43-2.67,6.77-3.09l2.12,3.1c-3.45.33-4.35,1.33-5.4,2.49a7.93,7.93,0,0,1-4.84,2.81c-3.1.67-5.73-.18-8.06-.94C350.3,177.05,347.82,176.24,343.85,177.47Z" transform="translate(-133.93 -73.11)"/>
      <path class="cls-19" d="M342.7,180.64l-2.67-3c5-1.54,8.59-.37,11.5.58,2.15.69,3.71,1.2,5.85.74a6.08,6.08,0,0,0,3.8-2.27c1.13-1.25,2.42-2.67,6.77-3.08l2.11,3.1c-3.44.33-4.35,1.32-5.4,2.48a7.9,7.9,0,0,1-4.83,2.82c-3.11.67-5.74-.19-8.06-.94C349.15,180.22,346.66,179.42,342.7,180.64Z" transform="translate(-133.93 -73.11)"/>
      <path class="cls-19" d="M348,183.46l-2.66-3c5-1.53,8.59-.36,11.49.58,2.15.7,3.71,1.21,5.85.74a6.08,6.08,0,0,0,3.8-2.26c1.14-1.25,2.43-2.67,6.77-3.09l2.12,3.1c-3.44.33-4.35,1.33-5.4,2.49a7.93,7.93,0,0,1-4.83,2.81c-3.11.67-5.74-.18-8.07-.94C354.44,183,352,182.23,348,183.46Z" transform="translate(-133.93 -73.11)"/>
      <path class="cls-19" d="M339.46,171.35l-2.67-3c5-1.54,8.59-.36,11.49.57,2.15.71,3.71,1.21,5.85.75a6,6,0,0,0,3.8-2.27c1.14-1.25,2.43-2.67,6.77-3.08l2.12,3.1c-3.44.33-4.35,1.33-5.4,2.48a7.9,7.9,0,0,1-4.83,2.82c-3.11.67-5.74-.19-8.07-.94C345.9,170.94,343.42,170.13,339.46,171.35Z" transform="translate(-133.93 -73.11)"/>
      <polygon points="205.7 95.57 209.34 95.25 210.92 96.09 208.55 95.94 205.7 95.57"/>
      <polygon points="215 97.42 218.88 98.88 221.39 98.09 218.2 97.68 215 97.42"/>
      <polygon points="216.52 102.09 213.79 101.95 212.67 102.71 215.44 102.43 219 103.85 221.22 103.82 218.15 102.62 216.52 102.09"/>
      <path d="M366.56,174.9c-.69.07-2.46.47-2.46.47l-1.36,2.23,1.91-1.36,3-.41Z" transform="translate(-133.93 -73.11)"/>
      <polygon points="234.04 107.24 232.78 108.84 229.91 109.74 231.52 110.43 233.89 109.46 234.04 107.24"/>
      <polygon points="222.03 108.72 219.25 107.88 217.12 108.4 219.66 108.57 222.03 108.72"/>
      <polygon points="212.8 105.28 211.22 105.56 213.42 105.68 212.8 105.28"/>
      <polygon class="cls-20" points="225.67 95.77 223.71 96.31 221.39 98.09 224.57 97.39 225.67 95.77"/>
      <polygon class="cls-20" points="228.17 105.36 225.59 106.63 225.31 107.39 227.79 106.75 228.17 105.36"/>
      <polygon class="cls-20" points="239.23 104.56 236.34 105.62 236.13 107.03 238.52 105.91 239.23 104.56"/>
      <polygon class="cls-20" points="211.05 104.42 209.09 106.08 208.39 105.03 211.05 104.42"/>
      <polygon class="cls-21" points="222.86 100.84 219.32 100.54 221.24 101.42 222.86 100.84"/>
      <path class="cls-21" d="M360.27,182.71,357,182s1.71,1.18,2.19,1.4a24.18,24.18,0,0,0,3.35.44Z" transform="translate(-133.93 -73.11)"/>
      <polygon class="cls-21" points="212.21 101.21 209.29 101.31 210.42 102.9 212.21 101.21"/>
      <path class="cls-21" d="M363.65,165.73l-3.27,1.33s-1.31,1.91-.78,1.82a19.3,19.3,0,0,0,2.79-1.55Z" transform="translate(-133.93 -73.11)"/>
    </g>
    <g>
      <path class="cls-23" d="M254.67,188.33c5.66,4.34,15.66,6.67,24.66,6.67" transform="translate(-133.93 -73.11)"/>
      <polygon points="120.05 117.03 118.61 113.58 122.32 114.06 120.05 117.03"/>
    </g>
    <path class="cls-5" d="M264.94,167.4a3.94,3.94,0,0,1-3.94,3.94h0a3.94,3.94,0,0,1-3.94-3.94h0a3.93,3.93,0,0,1,3.94-3.94h0a3.93,3.93,0,0,1,3.94,3.94Z" transform="translate(-133.93 -73.11)"/>
    <path class="cls-5" d="M202,167.4a3.94,3.94,0,0,1-3.94,3.94h0a4,4,0,0,1-3.94-3.94h0a3.94,3.94,0,0,1,3.94-3.94h0A3.93,3.93,0,0,1,202,167.4Z" transform="translate(-133.93 -73.11)"/>
    <path class="cls-5" d="M225.28,115.58a3.93,3.93,0,0,1-3.93,3.94h0a3.93,3.93,0,0,1-3.94-3.94h0a3.93,3.93,0,0,1,3.94-3.94h0a3.93,3.93,0,0,1,3.93,3.94Z" transform="translate(-133.93 -73.11)"/>
    <path class="cls-5" d="M286,80.69A3.94,3.94,0,0,1,282,84.63h0a4,4,0,0,1-3.94-3.94h0A3.94,3.94,0,0,1,282,76.75h0A3.93,3.93,0,0,1,286,80.69Z" transform="translate(-133.93 -73.11)"/>
    <path d="M282,85.47a4.86,4.86,0,1,1,4.86-4.86A4.85,4.85,0,0,1,282,85.47m-.27-6.83h0V83.5h.93V77.72h-.81l-1.28.71.17.74,1-.53" transform="translate(-133.93 -73.11)"/>
    <path d="M221.33,120.44a4.86,4.86,0,1,1,4.86-4.86,4.86,4.86,0,0,1-4.86,4.86m-.24-7c.5,0,.77.35.77.89a5.16,5.16,0,0,1-1.42,2.82l-.54.71v.62h3v-.84h-1.84l.36-.46a4.92,4.92,0,0,0,1.38-2.91,1.45,1.45,0,0,0-1.54-1.62,2.24,2.24,0,0,0-1.2.37l.18.73a1.64,1.64,0,0,1,.86-.3" transform="translate(-133.93 -73.11)"/>
    <path d="M198,172.26a4.86,4.86,0,1,1,4.86-4.86,4.85,4.85,0,0,1-4.86,4.86m-1.16-2.92-.16.76a2.2,2.2,0,0,0,1.08.26,1.71,1.71,0,0,0,1.81-1.73,1.46,1.46,0,0,0-1-1.49h0a1.46,1.46,0,0,0,.83-1.33,1.3,1.3,0,0,0-1.4-1.36,2.07,2.07,0,0,0-1.12.32l.15.71a1.31,1.31,0,0,1,.73-.25.68.68,0,0,1,.7.77.93.93,0,0,1-1,.87h-.12v.7h.16a1,1,0,0,1,1.12,1,.88.88,0,0,1-.93,1,1.77,1.77,0,0,1-.85-.23" transform="translate(-133.93 -73.11)"/>
    <path d="M261,172.26a4.86,4.86,0,1,1,4.86-4.86,4.85,4.85,0,0,1-4.86,4.86m-.1-7.75L259,168.17v.63h2v1.49h.85V168.8h.6v-.75h-.6v-3.54h-.92m.07,3.54h-1.12v0l.7-1.42c.17-.33.29-.6.45-1h0c0,.34-.06.69-.06,1v1.38" transform="translate(-133.93 -73.11)"/>
    <path class="cls-5" d="M346.62,115.58a3.94,3.94,0,0,1-3.94,3.94h0a3.93,3.93,0,0,1-3.94-3.94h0a3.93,3.93,0,0,1,3.94-3.94h0a3.94,3.94,0,0,1,3.94,3.94Z" transform="translate(-133.93 -73.11)"/>
    <path d="M342.67,120.44a4.86,4.86,0,1,1,4.86-4.86,4.85,4.85,0,0,1-4.86,4.86m-1.25-2.93-.16.74a2.1,2.1,0,0,0,1,.25,1.87,1.87,0,0,0,1.89-2,1.7,1.7,0,0,0-.5-1.32,1.84,1.84,0,0,0-1.08-.45h-.2l.19-1.25h1.54v-.83H341.9l-.35,2.8c.12,0,.25,0,.43,0,.7,0,1.28.31,1.28,1.15a1,1,0,0,1-1,1.13,2,2,0,0,1-.83-.2" transform="translate(-133.93 -73.11)"/>
    <path class="cls-24" d="M418.84,169.21c-2.93,0-5.3,3.53-5.3,7.89v3.07c0,4.35-2.37,7.88-5.3,7.88,2.93,0,5.3,3.53,5.3,7.89v2.73c0,4.36,2.37,7.89,5.3,7.89" transform="translate(-133.93 -73.11)"/>
    <g>
      <path class="cls-23" d="M272,180c-3.33,3.67-1.67,15,7.33,15" transform="translate(-133.93 -73.11)"/>
      <polygon points="136.33 106.05 139.89 104.91 139.1 108.56 136.33 106.05"/>
    </g>
    <path d="M314,172.26a4.88,4.88,0,1,1,4.87-4.88,4.88,4.88,0,0,1-4.87,4.88m1.08-7.85c-.11,0-.29,0-.52.07a2.48,2.48,0,0,0-1.41.84,4,4,0,0,0-.85,2.66c0,1.39.58,2.38,1.62,2.38s1.58-1,1.58-2-.53-1.79-1.3-1.79a1.14,1.14,0,0,0-.93.51h0a2,2,0,0,1,1.37-1.8,2.07,2.07,0,0,1,.46-.05v-.79M314,169.65h-.05c-.39,0-.67-.53-.67-1.48a1.37,1.37,0,0,1,.05-.44.67.67,0,0,1,.59-.48c.42,0,.65.44.65,1.11,0,.83-.23,1.29-.57,1.29" transform="translate(-133.93 -73.11)"/>
    <path d="M375.5,172.26a4.88,4.88,0,1,1,4.88-4.88,4.88,4.88,0,0,1-4.88,4.88m-1.33-7.78v.84h2v0l-1.81,4.94h.93l1.84-5.2v-.61h-3" transform="translate(-133.93 -73.11)"/>
    <path class="cls-25" d="M145.54,100.58a2,2,0,0,1-.64,1.37l-.07.07-3.71,3.91a23.66,23.66,0,0,1-2,1.93,2.56,2.56,0,0,1-1.17.68,1.88,1.88,0,0,1-.9-.34,1.68,1.68,0,0,1-.69-.7,5.54,5.54,0,0,1-.25-1.28,17.28,17.28,0,0,1-.12-2.11,1.58,1.58,0,0,1,.52-1.14,1.56,1.56,0,0,1,1.14-.53c.4,0,.63.36.71,1.09,0,.08,0,.14,0,.19a5.51,5.51,0,0,0,.22,1.16c.08.22.2.33.34.33a.73.73,0,0,0,.34-.19,8,8,0,0,0,.59-.54l3.82-3.78a5,5,0,0,1,.86-.72,1.19,1.19,0,0,1,.64-.25.29.29,0,0,1,.28.15,1,1,0,0,1,.09.5Z" transform="translate(-133.93 -73.11)"/>
    <path class="cls-26" d="M140.68,110.64c-.6.53-1.25,1.15-1.87,1.78l-.69-1.7c-.24-.57-2-.57-1.62.48.3.81.63,1.72,1,2.6l-.51.55c-1.09,1.22-2.53,2.68-1.91,3.81.53,1,1.47.2,1.79-.38a18.3,18.3,0,0,1,1.42-2c.19.43.36.81.51,1.1.73,1.41,1.15,1.83,1.65.92s.31-1-.85-3.61c1.11-1.29,2.14-2.39,2.59-2.9S142.15,109.32,140.68,110.64Z" transform="translate(-133.93 -73.11)"/>
    <path class="cls-26" d="M472.26,103.15c-.6.54-1.25,1.16-1.87,1.78-.27-.65-.52-1.28-.69-1.69-.24-.58-2-.57-1.62.48.3.8.63,1.72,1,2.6l-.51.55c-1.09,1.22-2.53,2.67-1.91,3.8.53,1,1.47.21,1.8-.37a16.51,16.51,0,0,1,1.41-2c.19.44.36.82.51,1.11.73,1.4,1.15,1.83,1.65.91s.31-1-.85-3.6c1.11-1.29,2.14-2.39,2.6-2.91S473.73,101.84,472.26,103.15Z" transform="translate(-133.93 -73.11)"/>
  </g>
</svg>
