<?xml version="1.0" encoding="UTF-8" standalone="no"?>
<svg
   xmlns:dc="http://purl.org/dc/elements/1.1/"
   xmlns:cc="http://creativecommons.org/ns#"
   xmlns:rdf="http://www.w3.org/1999/02/22-rdf-syntax-ns#"
   xmlns:svg="http://www.w3.org/2000/svg"
   xmlns="http://www.w3.org/2000/svg"
   version="1.1"
   id="svg2"
   xml:space="preserve"
   width="405.61105"
   height="119.76202"
   viewBox="0 0 405.61105 119.76202"><metadata
     id="metadata8"><rdf:RDF><cc:Work
         rdf:about=""><dc:format>image/svg+xml</dc:format><dc:type
           rdf:resource="http://purl.org/dc/dcmitype/StillImage" /></cc:Work></rdf:RDF></metadata><defs
     id="defs6"><clipPath
       clipPathUnits="userSpaceOnUse"
       id="clipPath18"><path
         d="M 0,792 H 612 V 0 H 0 Z"
         id="path16" /></clipPath><linearGradient
       x1="0"
       y1="0"
       x2="1"
       y2="0"
       gradientUnits="userSpaceOnUse"
       gradientTransform="matrix(15.850372,-16.325928,-16.325928,-15.850372,345.76367,683.42822)"
       spreadMethod="pad"
       id="linearGradient172"><stop
         style="stop-opacity:1;stop-color:#5ec45b"
         offset="0"
         id="stop168" /><stop
         style="stop-opacity:1;stop-color:#dbf1cb"
         offset="1"
         id="stop170" /></linearGradient><linearGradient
       x1="0"
       y1="0"
       x2="1"
       y2="0"
       gradientUnits="userSpaceOnUse"
       gradientTransform="matrix(15.125885,-15.579697,-15.579697,-15.125885,346.0459,683.13721)"
       spreadMethod="pad"
       id="linearGradient192"><stop
         style="stop-opacity:1;stop-color:#dbf1cb"
         offset="0"
         id="stop188" /><stop
         style="stop-opacity:1;stop-color:#5ec45b"
         offset="1"
         id="stop190" /></linearGradient><clipPath
       clipPathUnits="userSpaceOnUse"
       id="clipPath202"><path
         d="M 0,792 H 612 V 0 H 0 Z"
         id="path200" /></clipPath></defs><g
     id="g10"
     transform="matrix(1.3333333,0,0,-1.3333333,-179.65066,944.97613)"><g
       id="g12"><g
         id="g14"
         clip-path="url(#clipPath18)"><g
           id="g20"
           transform="translate(438.4463,645.4336)"><path
             d="m 0,0 c 0,-1.1 -0.9,-2 -2,-2 h -170.76 c -1.1,0 -2,0.9 -2,2 v 40.566 c 0,1.101 0.9,2 2,2 H -2 c 1.1,0 2,-0.899 2,-2 z"
             style="fill:#feefe9;fill-opacity:1;fill-rule:evenodd;stroke:none"
             id="path22" /></g><text
           transform="matrix(1,0,0,-1,302.9673,672.1299)"
           style="font-variant:normal;font-weight:normal;font-stretch:normal;font-size:11.5px;font-family:'Nimbus Mono PS';-inkscape-font-specification:'Nimbus Mono PS, Normal';writing-mode:lr-tb;fill:#231f20;fill-opacity:1;fill-rule:nonzero;stroke:none"
           id="text26"><tspan
             x="0 80.511497 97.692497 104.5925 111.4925"
             y="0"
             id="tspan24">42PKH</tspan></text><text
           transform="matrix(1,0,0,-1,421.3711,669.1299)"
           style="font-variant:normal;font-weight:normal;font-stretch:normal;font-size:10px;font-family:'Nimbus Mono PS';-inkscape-font-specification:'Nimbus Mono PS, Normal';writing-mode:lr-tb;fill:#231f20;fill-opacity:1;fill-rule:nonzero;stroke:none"
           id="text30"><tspan
             x="0"
             y="0"
             id="tspan28">A</tspan></text><g
           id="g32"
           transform="translate(270.0264,676.1035)"><path
             d="m 0,0 -2.058,2.313 c 3.854,1.183 6.64,0.279 8.882,-0.447 1.662,-0.543 2.867,-0.931 4.522,-0.574 1.676,0.361 2.259,1.005 2.938,1.749 0.877,0.968 1.872,2.063 5.231,2.387 L 21.148,3.031 C 18.486,2.774 17.787,2.006 16.978,1.112 16.251,0.313 15.426,-0.592 13.244,-1.064 10.842,-1.581 8.807,-0.92 7.013,-0.34 4.984,0.32 3.066,0.943 0,0"
             style="fill:#f8a45c;fill-opacity:1;fill-rule:nonzero;stroke:none"
             id="path34" /></g><g
           id="g36"
           transform="translate(270.0264,676.1035)"><path
             d="m 0,0 -2.058,2.313 c 3.854,1.183 6.64,0.279 8.882,-0.447 1.662,-0.543 2.867,-0.931 4.522,-0.574 1.676,0.361 2.259,1.005 2.938,1.749 0.877,0.968 1.872,2.063 5.231,2.387 L 21.148,3.031 C 18.486,2.774 17.787,2.006 16.978,1.112 16.251,0.313 15.426,-0.592 13.244,-1.064 10.842,-1.581 8.807,-0.92 7.013,-0.34 4.984,0.32 3.066,0.943 0,0 Z"
             style="fill:none;stroke:#231f20;stroke-width:0.3;stroke-linecap:butt;stroke-linejoin:miter;stroke-miterlimit:4;stroke-dasharray:none;stroke-opacity:1"
             id="path38" /></g><g
           id="g40"
           transform="translate(274.0498,673.9033)"><path
             d="M 0,0 -2.061,2.313 C 1.792,3.5 4.581,2.595 6.821,1.867 8.487,1.325 9.689,0.934 11.344,1.292 c 1.677,0.362 2.262,1.005 2.939,1.751 0.877,0.967 1.874,2.062 5.23,2.385 L 21.149,3.032 C 18.487,2.775 17.787,2.006 16.976,1.113 16.251,0.314 15.427,-0.592 13.242,-1.063 10.841,-1.581 8.808,-0.922 7.013,-0.337 4.984,0.321 3.066,0.943 0,0"
             style="fill:#f8a45c;fill-opacity:1;fill-rule:nonzero;stroke:none"
             id="path42" /></g><g
           id="g44"
           transform="translate(274.0498,673.9033)"><path
             d="M 0,0 -2.061,2.313 C 1.792,3.5 4.581,2.595 6.821,1.867 8.487,1.325 9.689,0.934 11.344,1.292 c 1.677,0.362 2.262,1.005 2.939,1.751 0.877,0.967 1.874,2.062 5.23,2.385 L 21.149,3.032 C 18.487,2.775 17.787,2.006 16.976,1.113 16.251,0.314 15.427,-0.592 13.242,-1.063 10.841,-1.581 8.808,-0.922 7.013,-0.337 4.984,0.321 3.066,0.943 0,0 Z"
             style="fill:none;stroke:#231f20;stroke-width:0.3;stroke-linecap:butt;stroke-linejoin:miter;stroke-miterlimit:4;stroke-dasharray:none;stroke-opacity:1"
             id="path46" /></g><g
           id="g48"
           transform="translate(273.1592,671.4512)"><path
             d="M 0,0 -2.061,2.312 C 1.794,3.5 4.58,2.593 6.825,1.865 8.485,1.327 9.689,0.936 11.343,1.292 c 1.678,0.362 2.26,1.006 2.939,1.752 0.878,0.964 1.873,2.061 5.229,2.384 L 21.149,3.031 C 18.485,2.776 17.787,2.007 16.973,1.111 16.248,0.313 15.425,-0.592 13.243,-1.063 10.84,-1.581 8.808,-0.922 7.012,-0.339 4.984,0.322 3.065,0.944 0,0"
             style="fill:#f8a45c;fill-opacity:1;fill-rule:nonzero;stroke:none"
             id="path50" /></g><g
           id="g52"
           transform="translate(273.1592,671.4512)"><path
             d="M 0,0 -2.061,2.312 C 1.794,3.5 4.58,2.593 6.825,1.865 8.485,1.327 9.689,0.936 11.343,1.292 c 1.678,0.362 2.26,1.006 2.939,1.752 0.878,0.964 1.873,2.061 5.229,2.384 L 21.149,3.031 C 18.485,2.776 17.787,2.007 16.973,1.111 16.248,0.313 15.425,-0.592 13.243,-1.063 10.84,-1.581 8.808,-0.922 7.012,-0.339 4.984,0.322 3.065,0.944 0,0 Z"
             style="fill:none;stroke:#231f20;stroke-width:0.3;stroke-linecap:butt;stroke-linejoin:miter;stroke-miterlimit:4;stroke-dasharray:none;stroke-opacity:1"
             id="path54" /></g><g
           id="g56"
           transform="translate(277.25,669.2744)"><path
             d="m 0,0 -2.06,2.315 c 3.853,1.184 6.644,0.28 8.883,-0.446 1.664,-0.543 2.866,-0.935 4.521,-0.574 1.677,0.36 2.261,1.003 2.937,1.748 0.88,0.969 1.875,2.062 5.233,2.387 L 21.149,3.034 C 18.488,2.777 17.786,2.007 16.975,1.113 16.25,0.313 15.428,-0.59 13.244,-1.063 10.842,-1.581 8.809,-0.919 7.013,-0.336 4.984,0.322 3.067,0.944 0,0"
             style="fill:#f8a45c;fill-opacity:1;fill-rule:nonzero;stroke:none"
             id="path58" /></g><g
           id="g60"
           transform="translate(277.25,669.2744)"><path
             d="m 0,0 -2.06,2.315 c 3.853,1.184 6.644,0.28 8.883,-0.446 1.664,-0.543 2.866,-0.935 4.521,-0.574 1.677,0.36 2.261,1.003 2.937,1.748 0.88,0.969 1.875,2.062 5.233,2.387 L 21.149,3.034 C 18.488,2.777 17.786,2.007 16.975,1.113 16.25,0.313 15.428,-0.59 13.244,-1.063 10.842,-1.581 8.809,-0.919 7.013,-0.336 4.984,0.322 3.067,0.944 0,0 Z"
             style="fill:none;stroke:#231f20;stroke-width:0.3;stroke-linecap:butt;stroke-linejoin:miter;stroke-miterlimit:4;stroke-dasharray:none;stroke-opacity:1"
             id="path62" /></g><text
           transform="matrix(1,0,0,-1,376.5811,651.5078)"
           style="font-variant:normal;font-weight:normal;font-stretch:normal;font-size:11.5px;font-family:'Nimbus Mono PS';-inkscape-font-specification:'Nimbus Mono PS, Normal';writing-mode:lr-tb;fill:#231f20;fill-opacity:1;fill-rule:nonzero;stroke:none"
           id="text66"><tspan
             x="0 6.9000001 24.092501 30.9925 37.892502"
             y="0"
             id="tspan64">35PKH</tspan></text><text
           transform="matrix(1,0,0,-1,421.3711,648.5078)"
           style="font-variant:normal;font-weight:normal;font-stretch:normal;font-size:10px;font-family:'Nimbus Mono PS';-inkscape-font-specification:'Nimbus Mono PS, Normal';writing-mode:lr-tb;fill:#231f20;fill-opacity:1;fill-rule:nonzero;stroke:none"
           id="text70"><tspan
             x="0"
             y="0"
             id="tspan68">B</tspan></text><g
           id="g72"
           transform="translate(270.6543,678.6279)"><path
             d="m 0,0 -2.061,2.314 c 3.855,1.187 6.642,0.28 8.883,-0.445 1.664,-0.544 2.866,-0.932 4.522,-0.576 1.677,0.363 2.259,1.005 2.937,1.751 0.879,0.967 1.876,2.062 5.23,2.385 L 21.149,3.032 C 18.485,2.777 17.786,2.006 16.973,1.114 16.247,0.314 15.425,-0.59 13.242,-1.063 10.84,-1.58 8.806,-0.919 7.01,-0.336 4.982,0.321 3.065,0.945 0,0"
             style="fill:#f8a45c;fill-opacity:1;fill-rule:nonzero;stroke:none"
             id="path74" /></g><g
           id="g76"
           transform="translate(270.6543,678.6279)"><path
             d="m 0,0 -2.061,2.314 c 3.855,1.187 6.642,0.28 8.883,-0.445 1.664,-0.544 2.866,-0.932 4.522,-0.576 1.677,0.363 2.259,1.005 2.937,1.751 0.879,0.967 1.876,2.062 5.23,2.385 L 21.149,3.032 C 18.485,2.777 17.786,2.006 16.973,1.114 16.247,0.314 15.425,-0.59 13.242,-1.063 10.84,-1.58 8.806,-0.919 7.01,-0.336 4.982,0.321 3.065,0.945 0,0 Z"
             style="fill:none;stroke:#231f20;stroke-width:0.3;stroke-linecap:butt;stroke-linejoin:miter;stroke-miterlimit:4;stroke-dasharray:none;stroke-opacity:1"
             id="path78" /></g><g
           id="g80"
           transform="translate(270.7852,680.6914)"><path
             d="M 0,0 2.812,0.252 4.036,-0.4 2.204,-0.285 Z"
             style="fill:#231f20;fill-opacity:1;fill-rule:nonzero;stroke:none"
             id="path82" /></g><g
           id="g84"
           transform="translate(277.9717,679.2646)"><path
             d="m 0,0 3,-1.132 1.94,0.613 -2.461,0.321 z"
             style="fill:#231f20;fill-opacity:1;fill-rule:nonzero;stroke:none"
             id="path86" /></g><g
           id="g88"
           transform="translate(279.1504,675.6543)"><path
             d="m 0,0 -2.111,0.109 -0.865,-0.587 2.144,0.215 2.744,-1.095 1.723,0.023 -2.375,0.925 z"
             style="fill:#231f20;fill-opacity:1;fill-rule:nonzero;stroke:none"
             id="path90" /></g><g
           id="g92"
           transform="translate(291.6025,675.8896)"><path
             d="m 0,0 c -0.537,-0.055 -1.904,-0.369 -1.904,-0.369 l -1.048,-1.717 1.474,1.043 2.294,0.319 z"
             style="fill:#231f20;fill-opacity:1;fill-rule:nonzero;stroke:none"
             id="path94" /></g><g
           id="g96"
           transform="translate(292.6914,671.6729)"><path
             d="m 0,0 -0.975,-1.23 -2.217,-0.7 1.242,-0.531 1.828,0.75 z"
             style="fill:#231f20;fill-opacity:1;fill-rule:nonzero;stroke:none"
             id="path98" /></g><g
           id="g100"
           transform="translate(283.4082,670.5332)"><path
             d="M 0,0 -2.147,0.652 -3.793,0.246 -1.831,0.116 Z"
             style="fill:#231f20;fill-opacity:1;fill-rule:nonzero;stroke:none"
             id="path102" /></g><g
           id="g104"
           transform="translate(276.2744,673.1895)"><path
             d="M 0,0 -1.221,-0.213 0.481,-0.309 Z"
             style="fill:#231f20;fill-opacity:1;fill-rule:nonzero;stroke:none"
             id="path106" /></g><g
           id="g108"
           transform="translate(286.2188,680.5391)"><path
             d="m 0,0 -1.517,-0.42 -1.79,-1.373 2.458,0.543 z"
             style="fill:#f9aeca;fill-opacity:1;fill-rule:evenodd;stroke:none"
             id="path110" /></g><g
           id="g112"
           transform="translate(288.1543,673.1279)"><path
             d="m 0,0 -1.997,-0.977 -0.217,-0.587 1.92,0.491 z"
             style="fill:#f9aeca;fill-opacity:1;fill-rule:evenodd;stroke:none"
             id="path114" /></g><g
           id="g116"
           transform="translate(296.6973,673.7451)"><path
             d="m 0,0 -2.233,-0.82 -0.163,-1.089 1.848,0.87 z"
             style="fill:#f9aeca;fill-opacity:1;fill-rule:evenodd;stroke:none"
             id="path118" /></g><g
           id="g120"
           transform="translate(274.9219,673.8584)"><path
             d="m 0,0 -1.513,-1.285 -0.541,0.812 z"
             style="fill:#f9aeca;fill-opacity:1;fill-rule:evenodd;stroke:none"
             id="path122" /></g><g
           id="g124"
           transform="translate(284.0518,676.6221)"><path
             d="m 0,0 -2.741,0.233 1.482,-0.684 z"
             style="fill:#96cd56;fill-opacity:1;fill-rule:evenodd;stroke:none"
             id="path126" /></g><g
           id="g128"
           transform="translate(286.7402,669.8545)"><path
             d="m 0,0 -2.557,0.579 c 0,0 1.321,-0.913 1.691,-1.085 0.37,-0.171 2.592,-0.336 2.592,-0.336 z"
             style="fill:#96cd56;fill-opacity:1;fill-rule:evenodd;stroke:none"
             id="path130" /></g><g
           id="g132"
           transform="translate(275.8193,676.335)"><path
             d="m 0,0 -2.26,-0.078 0.875,-1.224 z"
             style="fill:#96cd56;fill-opacity:1;fill-rule:evenodd;stroke:none"
             id="path134" /></g><g
           id="g136"
           transform="translate(289.3535,682.9697)"><path
             d="m 0,0 -2.532,-1.029 c 0,0 -1.011,-1.473 -0.603,-1.402 0.405,0.071 2.16,1.2 2.16,1.2 z"
             style="fill:#96cd56;fill-opacity:1;fill-rule:evenodd;stroke:none"
             id="path138" /></g><g
           id="g140"
           transform="translate(323.4297,670.5073)"><path
             d="M 0,0 C 1.024,-0.185 1.382,-1.066 1.994,-1.683 2.161,-0.549 2.608,0.29 3.065,1.123 3.055,1.219 3.042,1.313 2.913,1.284 2.109,0.679 0.857,0.548 0,0 M 4.214,2.485 C 4.499,2.533 4.664,2.709 4.905,2.804 4.853,3.042 4.885,3.368 4.676,3.447 4.551,3.096 4.348,2.822 4.214,2.485 M 0.46,2.564 C 0.869,3.472 1.319,4.335 1.765,5.206 1.096,5.391 0.297,5.439 -0.461,5.525 0.007,4.705 0.308,3.716 0.46,2.564 M -3.907,5.449 C -4.212,4.896 -4.331,4.176 -4.521,3.447 -4.692,2.798 -4.736,1.888 -5.289,1.604 -5.483,2.696 -4.793,4.156 -4.521,5.287 -6.606,4.864 -8.343,3.29 -8.278,0.961 c 0.049,-1.722 1.339,-2.338 3.142,-2.322 3.826,0.033 6.624,3.459 4.062,6.886 C -1.83,5.679 -2.92,5.5 -3.907,5.449 m 0.15,0.48 c 0.68,0.145 1.575,0.064 2.225,0.24 -0.553,0.542 -1.01,1.187 -1.456,1.842 C -3.185,7.253 -3.522,6.646 -3.757,5.929 M 5.212,5.449 C 5.679,6.644 6.586,7.804 6.898,8.892 6.19,7.951 5.27,6.803 5.212,5.449 m 8.659,6.727 C 11.77,11.999 9.23,11.327 8.124,10.016 7.465,9.233 7.146,8.073 6.591,7.051 6.016,5.987 4.615,4.314 5.364,3.124 c 3.13,1.919 6.286,3.914 9.044,6.167 0.887,0.725 1.966,1.562 2.379,2.725 -0.91,0.356 -1.946,0.241 -2.916,0.16 M 5.824,2.804 C 7.64,1.979 9.133,3.489 10.653,3.765 11.025,3.347 10.596,2.487 10.809,2.002 11.91,1.206 14.051,1.496 14.869,0.401 14.385,0.018 13.729,0.643 12.875,0.88 11.401,1.294 9.792,1.041 10.346,3.205 9.029,2.586 6.819,1.433 5.288,2.485 4.772,2.222 4.338,1.875 3.755,1.684 3.147,0.396 2.641,-0.996 2.146,-2.403 c -1.064,0.382 -1.098,1.842 -2.375,2.002 -0.21,-0.315 -0.285,-0.772 -0.383,-1.202 0.298,-0.081 0.619,0.885 1.072,0.642 0.038,-0.613 -0.652,-1.127 -1.227,-1.362 -0.632,0.403 -0.144,1.31 0,2.005 -0.97,-0.774 -2.931,-1.634 -4.83,-1.523 -0.729,0.04 -1.662,0.222 -2.221,0.642 -1.389,1.04 -1.02,3.766 -0.077,5.044 0.873,1.185 2.124,1.608 3.527,2.004 0.426,0.7 0.654,1.612 0.995,2.401 0.433,0.032 0.548,0.115 0.688,0.563 2.268,0.885 4.89,1.403 6.747,2.724 -2.354,-0.435 -4.935,-1.222 -7.36,-1.924 -0.767,-0.221 -1.54,-0.624 -2.299,-0.479 0.088,0.475 0.722,0.533 1.076,0.637 1.213,0.366 2.572,0.74 3.909,1.124 1.733,0.498 3.595,1.209 5.367,1.043 C 4.797,11.1 3.92,10.859 3.372,10.574 1.704,9.706 -0.582,9.084 -2.451,8.331 -2.142,7.291 -1.376,6.733 -0.767,6.009 0.238,6.018 1.067,5.844 1.915,5.688 2.828,6.793 3.58,8.276 4.444,9.532 4.679,9.872 4.994,10.448 5.442,10.413 5.298,9.481 4.514,8.808 3.986,8.011 3.457,7.216 3.012,6.34 2.53,5.525 3.096,5.132 4.018,5.106 4.214,4.325 3.521,4.171 3.055,4.924 2.374,5.046 1.392,3.861 0.863,2.193 0.151,0.723 c 1.276,0.242 2.213,0.84 3.297,1.279 0.434,1.002 1.037,1.644 1.15,3.044 0.204,2.513 1.74,3.987 3.221,5.286 0.076,0.402 0.315,0.634 0.459,0.962 0.296,0.069 0.273,-0.194 0.458,-0.24 1.562,1.128 4.448,1.894 7.052,1.684 0.471,-0.041 1.546,-0.172 1.532,-0.8 C 17.304,10.922 15.685,9.752 14.946,9.134 12.227,6.853 8.539,4.518 5.824,2.804"
             style="fill:#2c81ab;fill-opacity:1;fill-rule:evenodd;stroke:none"
             id="path142" /></g><g
           id="g144"
           transform="translate(361.6396,669.6768)"><path
             d="m 0,0 -7.768,8.001 c 0.831,1.829 0.508,4.065 -0.989,5.606 -1.946,2.006 -5.134,2.072 -7.119,0.145 -0.04,-0.041 -0.077,-0.085 -0.115,-0.128 -0.045,-0.04 -0.09,-0.074 -0.133,-0.115 -1.985,-1.925 -2.014,-5.113 -0.068,-7.117 1.389,-1.429 3.403,-1.868 5.166,-1.308 l 0.65,-0.667 c 0.388,0.286 0.994,0.2 1.406,-0.225 0.411,-0.424 0.477,-1.03 0.182,-1.412 l 0.711,-0.734 c 0.389,0.286 0.992,0.201 1.406,-0.225 0.413,-0.424 0.479,-1.03 0.182,-1.409 l 0.714,-0.736 c 0.386,0.286 0.993,0.201 1.406,-0.223 0.414,-0.426 0.479,-1.032 0.18,-1.412 l 0.496,-0.511 3.988,0.211 0.254,0.242 z"
             style="fill:none;stroke:#231f20;stroke-width:0.75;stroke-linecap:butt;stroke-linejoin:round;stroke-miterlimit:4;stroke-dasharray:none;stroke-opacity:1"
             id="path146" /></g><g
           id="g148"
           transform="translate(362.1885,667.6602)"><path
             d="m 0,0 -8.564,9.776 c 0.831,1.826 0.507,4.066 -0.991,5.607 -1.947,2.006 -5.133,2.07 -7.118,0.142 -1.985,-1.924 -2.014,-5.113 -0.068,-7.117 1.389,-1.429 3.403,-1.867 5.166,-1.307 l 0.65,-0.667 c 0.388,0.286 0.994,0.2 1.406,-0.225 0.412,-0.425 0.477,-1.03 0.182,-1.412 l 0.711,-0.734 c 0.39,0.286 0.992,0.201 1.406,-0.225 0.413,-0.424 0.479,-1.03 0.182,-1.409 l 0.714,-0.737 c 0.386,0.287 0.993,0.202 1.406,-0.222 0.414,-0.426 0.48,-1.032 0.18,-1.412 l 0.496,-0.511 3.988,0.211 z"
             style="fill:#278a2f;fill-opacity:1;fill-rule:nonzero;stroke:none"
             id="path150" /></g><g
           id="g152"
           transform="translate(362.1885,667.6602)"><path
             d="m 0,0 -8.564,9.776 c 0.831,1.826 0.507,4.066 -0.991,5.607 -1.947,2.006 -5.133,2.07 -7.118,0.142 -1.985,-1.924 -2.014,-5.113 -0.068,-7.117 1.389,-1.429 3.403,-1.867 5.166,-1.307 l 0.65,-0.667 c 0.388,0.286 0.994,0.2 1.406,-0.225 0.412,-0.425 0.477,-1.03 0.182,-1.412 l 0.711,-0.734 c 0.39,0.286 0.992,0.201 1.406,-0.225 0.413,-0.424 0.479,-1.03 0.182,-1.409 l 0.714,-0.737 c 0.386,0.287 0.993,0.202 1.406,-0.222 0.414,-0.426 0.48,-1.032 0.18,-1.412 l 0.496,-0.511 3.988,0.211 z"
             style="fill:none;stroke:#278a2f;stroke-width:0.3;stroke-linecap:butt;stroke-linejoin:round;stroke-miterlimit:4;stroke-dasharray:none;stroke-opacity:1"
             id="path154" /></g></g></g><g
       id="g156"><g
         id="g158"><g
           id="g164"><g
             id="g166"><path
               d="m 345.764,683.428 c -1.983,-1.924 -2.014,-5.114 -0.066,-7.119 v 0 c 1.387,-1.429 3.404,-1.868 5.166,-1.306 v 0 l 0.648,-0.668 c 0.39,0.287 0.995,0.2 1.406,-0.225 v 0 c 0.41,-0.423 0.48,-1.03 0.182,-1.409 v 0 l 0.713,-0.735 c 0.387,0.285 0.989,0.199 1.405,-0.225 v 0 c 0.412,-0.425 0.478,-1.03 0.18,-1.412 v 0 l 0.718,-0.735 c 0.383,0.287 0.991,0.202 1.405,-0.223 v 0 c 0.408,-0.423 0.475,-1.03 0.18,-1.41 v 0 l 0.495,-0.514 3.993,0.213 -0.549,2.017 -7.768,8 c 0.831,1.83 0.507,4.066 -0.989,5.607 v 0 c -0.999,1.03 -2.326,1.548 -3.648,1.548 v 0 c -1.254,0 -2.505,-0.466 -3.471,-1.404"
               style="fill:url(#linearGradient172);stroke:none"
               id="path174" /></g></g></g></g><g
       id="g176"><g
         id="g178"><g
           id="g184"><g
             id="g186"><path
               d="m 346.045,683.138 c -1.819,-1.769 -1.845,-4.705 -0.059,-6.546 v 0 c 1.247,-1.28 3.065,-1.74 4.752,-1.202 v 0 l 0.241,0.077 0.616,-0.636 c 0.523,0.184 1.164,0.024 1.613,-0.438 v 0 c 0.451,-0.462 0.591,-1.108 0.389,-1.625 v 0 l 0.296,-0.305 c 0.527,0.183 1.168,0.022 1.614,-0.439 v 0 c 0.449,-0.463 0.591,-1.11 0.393,-1.627 v 0 l 0.296,-0.306 c 0.523,0.186 1.163,0.024 1.613,-0.438 v 0 c 0.45,-0.462 0.591,-1.109 0.392,-1.626 v 0 l 0.159,-0.164 3.306,0.176 -0.39,1.43 -7.887,8.123 0.114,0.253 c 0.794,1.744 0.436,3.772 -0.909,5.157 v 0 c -0.919,0.947 -2.14,1.423 -3.358,1.423 v 0 c -1.154,0 -2.305,-0.427 -3.191,-1.287"
               style="fill:url(#linearGradient192);stroke:none"
               id="path194" /></g></g></g></g><g
       id="g196"><g
         id="g198"
         clip-path="url(#clipPath202)"><g
           id="g204"
           transform="translate(352.0771,676.9287)"><path
             d="M 0,0 C -1.587,-1.539 -4.118,-1.501 -5.656,0.082 -7.194,1.667 -7.157,4.199 -5.571,5.737 -3.99,7.277 -1.457,7.236 0.082,5.653 1.619,4.068 1.582,1.537 0,0"
             style="fill:#ffffff;fill-opacity:1;fill-rule:nonzero;stroke:none"
             id="path206" /></g><text
           transform="matrix(0.69654962,-0.71750863,-0.71750863,-0.69654962,345.4031,681.5171)"
           style="font-variant:normal;font-weight:normal;font-stretch:normal;font-size:4.44678px;font-family:Arial;-inkscape-font-specification:ArialMT;writing-mode:lr-tb;fill:#231f20;fill-opacity:1;fill-rule:nonzero;stroke:none"
           id="text210"><tspan
             x="0 2.9659994 5.4384069"
             y="0"
             id="tspan208">Pub</tspan></text><g
           id="g212"
           transform="translate(366.2461,687.833)"><path
             d="M 0,0 V -44.373"
             style="fill:none;stroke:#656263;stroke-width:0.5;stroke-linecap:butt;stroke-linejoin:miter;stroke-miterlimit:4;stroke-dasharray:none;stroke-opacity:1"
             id="path214" /></g><g
           id="g216"
           transform="translate(438.4463,645.4336)"><path
             d="m 0,0 c 0,-1.1 -0.9,-2 -2,-2 h -170.76 c -1.1,0 -2,0.9 -2,2 v 40.566 c 0,1.101 0.9,2 2,2 H -2 c 1.1,0 2,-0.899 2,-2 z"
             style="fill:none;stroke:#d91920;stroke-width:1;stroke-linecap:butt;stroke-linejoin:round;stroke-miterlimit:4;stroke-dasharray:none;stroke-opacity:1"
             id="path218" /></g><text
           transform="matrix(1,0,0,-1,278.1514,620.5215)"
           style="font-variant:normal;font-weight:bold;font-stretch:condensed;font-size:9px;font-family:'Humanst521 Cn BT';-inkscape-font-specification:Humanist521BT-BoldCondensed;writing-mode:lr-tb;fill:#231f20;fill-opacity:1;fill-rule:nonzero;stroke:none"
           id="text222"><tspan
             x="0 4.2750001 6.4619999 8.7659998 12.825 15.012 17.316"
             y="0"
             id="tspan220">4, 5, 6</tspan></text><text
           transform="matrix(1,0,0,-1,336.376,620.1982)"
           style="font-variant:normal;font-weight:bold;font-stretch:normal;font-size:8.5px;font-family:Arial;-inkscape-font-specification:Arial-BoldMT;writing-mode:lr-tb;fill:#231f20;fill-opacity:1;fill-rule:nonzero;stroke:none"
           id="text226"><tspan
             x="0"
             y="0"
             id="tspan224">1</tspan></text><text
           transform="matrix(1,0,0,-1,340.2529,620.1982)"
           style="font-variant:normal;font-weight:bold;font-stretch:condensed;font-size:9px;font-family:'Humanst521 Cn BT';-inkscape-font-specification:Humanist521BT-BoldCondensed;writing-mode:lr-tb;fill:#231f20;fill-opacity:1;fill-rule:nonzero;stroke:none"
           id="text232"><tspan
             x="0 2.187 4.4910002 8.1990004 10.386 12.69"
             y="0"
             id="tspan228">, 3, 7</tspan><tspan
             x="67.058998 71.667 73.853996 76.157997 80.765999 82.053001"
             y="-0.063000001"
             id="tspan230">0, 0, </tspan></text><text
           transform="matrix(1,0,0,-1,425.1191,620.2646)"
           style="font-variant:normal;font-weight:bold;font-stretch:normal;font-size:8.5px;font-family:Arial;-inkscape-font-specification:Arial-BoldMT;writing-mode:lr-tb;fill:#231f20;fill-opacity:1;fill-rule:nonzero;stroke:none"
           id="text238"><tspan
             x="0"
             y="0"
             id="tspan234">1</tspan><tspan
             x="-166.787"
             y="-82.126999"
             id="tspan236">1</tspan></text><text
           transform="matrix(1,0,0,-1,262.2104,702.3887)"
           style="font-variant:normal;font-weight:bold;font-stretch:condensed;font-size:9px;font-family:'Humanst521 Cn BT';-inkscape-font-specification:Humanist521BT-BoldCondensed;writing-mode:lr-tb;fill:#231f20;fill-opacity:1;fill-rule:nonzero;stroke:none"
           id="text244"><tspan
             x="0 2.187 4.4910002 8.9460001 11.133 13.437"
             y="0"
             id="tspan240">, 6, 6</tspan><tspan
             x="30.591 34.299 36.486 38.790001 43.244999 45.431999 47.736"
             y="-0.090000004"
             id="tspan242">3, 6, 7</tspan></text><text
           transform="matrix(1,0,0,-1,325.2275,702.3887)"
           style="font-variant:normal;font-weight:bold;font-stretch:normal;font-size:8.5px;font-family:Arial;-inkscape-font-specification:Arial-BoldMT;writing-mode:lr-tb;fill:#231f20;fill-opacity:1;fill-rule:nonzero;stroke:none"
           id="text248"><tspan
             x="0"
             y="0"
             id="tspan246">1</tspan></text><text
           transform="matrix(1,0,0,-1,329.1045,702.3887)"
           style="font-variant:normal;font-weight:bold;font-stretch:condensed;font-size:9px;font-family:'Humanst521 Cn BT';-inkscape-font-specification:Humanist521BT-BoldCondensed;writing-mode:lr-tb;fill:#231f20;fill-opacity:1;fill-rule:nonzero;stroke:none"
           id="text256"><tspan
             x="0 2.187 4.4910002 8.7659998 10.953 13.257"
             y="0"
             id="tspan250">, 4, 7</tspan><tspan
             x="78.984001 83.033997 85.221001 87.525002 91.584 93.771004 96.074997"
             y="0.071999997"
             id="tspan252">2, 5, 7</tspan><tspan
             x="28.179001 32.786999 34.973999 37.278 41.327999 43.514999 45.819"
             y="-0.090000004"
             id="tspan254">0, 2, 2</tspan></text><g
           id="g258"
           transform="translate(266.2002,671)"><path
             d="m 0,0 v -4.895 c 0,-2.928 3.531,-5.301 7.887,-5.301 h 7.31 c 4.352,0 7.883,-2.375 7.883,-5.304 0,2.929 3.532,5.304 7.886,5.304 h 6.982 c 4.356,0 7.885,2.373 7.885,5.301 V 0.25"
             style="fill:none;stroke:#231f20;stroke-width:0.5;stroke-linecap:butt;stroke-linejoin:round;stroke-miterlimit:10;stroke-dasharray:none;stroke-opacity:1"
             id="path260" /></g><g
           id="g262"
           transform="translate(344.1963,639)"><path
             d="M 0,0 C 0,-3.833 2.333,-6.167 2.333,-10.667"
             style="fill:none;stroke:#231f20;stroke-width:0.3;stroke-linecap:butt;stroke-linejoin:miter;stroke-miterlimit:10;stroke-dasharray:none;stroke-opacity:1"
             id="path264" /></g><g
           id="g266"
           transform="translate(342.3369,638.4531)"><path
             d="M 0,0 1.87,3.238 3.739,0 Z"
             style="fill:#231f20;fill-opacity:1;fill-rule:nonzero;stroke:none"
             id="path268" /></g><g
           id="g270"
           transform="translate(279.4463,685)"><path
             d="M 0,0 C 0,6.25 -7,9.75 -7,15"
             style="fill:none;stroke:#231f20;stroke-width:0.3;stroke-linecap:butt;stroke-linejoin:miter;stroke-miterlimit:10;stroke-dasharray:none;stroke-opacity:1"
             id="path272" /></g><g
           id="g274"
           transform="translate(281.3057,685.5469)"><path
             d="M 0,0 -1.87,-3.238 -3.739,0 Z"
             style="fill:#231f20;fill-opacity:1;fill-rule:nonzero;stroke:none"
             id="path276" /></g><g
           id="g278"
           transform="translate(412.1563,685)"><path
             d="M 0,0 C 0,6.25 7,9.75 7,15"
             style="fill:none;stroke:#231f20;stroke-width:0.3;stroke-linecap:butt;stroke-linejoin:miter;stroke-miterlimit:10;stroke-dasharray:none;stroke-opacity:1"
             id="path280" /></g><g
           id="g282"
           transform="translate(414.0156,685.5469)"><path
             d="M 0,0 -1.87,-3.238 -3.739,0 Z"
             style="fill:#231f20;fill-opacity:1;fill-rule:nonzero;stroke:none"
             id="path284" /></g><g
           id="g286"
           transform="translate(330.167,685.5)"><path
             d="M 0,0 C 0,5.667 5.279,9.167 5.279,14.5"
             style="fill:none;stroke:#231f20;stroke-width:0.3;stroke-linecap:butt;stroke-linejoin:miter;stroke-miterlimit:10;stroke-dasharray:none;stroke-opacity:1"
             id="path288" /></g><g
           id="g290"
           transform="translate(332.0264,686.0469)"><path
             d="M 0,0 -1.87,-3.238 -3.739,0 Z"
             style="fill:#231f20;fill-opacity:1;fill-rule:nonzero;stroke:none"
             id="path292" /></g><g
           id="g294"
           transform="translate(307.1963,685.5)"><path
             d="M 0,0 C 0,3.833 -2.75,10 -2.75,14.5"
             style="fill:none;stroke:#231f20;stroke-width:0.3;stroke-linecap:butt;stroke-linejoin:miter;stroke-miterlimit:10;stroke-dasharray:none;stroke-opacity:1"
             id="path296" /></g><g
           id="g298"
           transform="translate(309.0557,686.0469)"><path
             d="M 0,0 -1.87,-3.238 -3.739,0 Z"
             style="fill:#231f20;fill-opacity:1;fill-rule:nonzero;stroke:none"
             id="path300" /></g><g
           id="g302"
           transform="translate(358.1963,683.5)"><path
             d="M 0,0 C 4.75,2.5 8.75,12 8.75,16.5"
             style="fill:none;stroke:#231f20;stroke-width:0.3;stroke-linecap:butt;stroke-linejoin:miter;stroke-miterlimit:10;stroke-dasharray:none;stroke-opacity:1"
             id="path304" /></g><g
           id="g306"
           transform="translate(359.5459,682.1094)"><path
             d="m 0,0 -3.735,0.146 1.994,3.163 z"
             style="fill:#231f20;fill-opacity:1;fill-rule:nonzero;stroke:none"
             id="path308" /></g><g
           id="g310"
           transform="translate(412.9463,646.75)"><path
             d="M 0,0 C 0,-4.917 5.75,-11.723 5.75,-18.348"
             style="fill:none;stroke:#231f20;stroke-width:0.3;stroke-linecap:butt;stroke-linejoin:miter;stroke-miterlimit:10;stroke-dasharray:none;stroke-opacity:1"
             id="path312" /></g><g
           id="g314"
           transform="translate(411.0869,646.2031)"><path
             d="M 0,0 1.869,3.238 3.739,0 Z"
             style="fill:#231f20;fill-opacity:1;fill-rule:nonzero;stroke:none"
             id="path316" /></g><g
           id="g318"
           transform="translate(289.2798,655.5)"><path
             d="M 0,0 V -26.276"
             style="fill:none;stroke:#231f20;stroke-width:0.5;stroke-linecap:butt;stroke-linejoin:round;stroke-miterlimit:10;stroke-dasharray:none;stroke-opacity:1"
             id="path320" /></g><path
           d="m 148.626,674.311 h -13.638 v 13.639 h 13.638 z"
           style="fill:#fde3da;fill-opacity:1;fill-rule:nonzero;stroke:#231f20;stroke-width:0.5;stroke-linecap:butt;stroke-linejoin:miter;stroke-miterlimit:4;stroke-dasharray:none;stroke-opacity:1"
           id="path322" /><path
           d="m 162.265,674.311 h -13.639 v 13.639 h 13.639 z"
           style="fill:#fde3da;fill-opacity:1;fill-rule:nonzero;stroke:#231f20;stroke-width:0.5;stroke-linecap:butt;stroke-linejoin:miter;stroke-miterlimit:4;stroke-dasharray:none;stroke-opacity:1"
           id="path324" /><path
           d="m 175.902,674.311 h -13.638 v 13.639 h 13.638 z"
           style="fill:#fde3da;fill-opacity:1;fill-rule:nonzero;stroke:#231f20;stroke-width:0.5;stroke-linecap:butt;stroke-linejoin:miter;stroke-miterlimit:4;stroke-dasharray:none;stroke-opacity:1"
           id="path326" /><path
           d="m 189.541,674.311 h -13.639 v 13.639 h 13.639 z"
           style="fill:#fde3da;fill-opacity:1;fill-rule:nonzero;stroke:#231f20;stroke-width:0.5;stroke-linecap:butt;stroke-linejoin:miter;stroke-miterlimit:4;stroke-dasharray:none;stroke-opacity:1"
           id="path328" /><path
           d="m 203.181,674.311 h -13.64 v 13.639 h 13.64 z"
           style="fill:#fde3da;fill-opacity:1;fill-rule:nonzero;stroke:#231f20;stroke-width:0.5;stroke-linecap:butt;stroke-linejoin:miter;stroke-miterlimit:4;stroke-dasharray:none;stroke-opacity:1"
           id="path330" /><path
           d="M 216.818,674.311 H 203.18 v 13.639 h 13.638 z"
           style="fill:#fde3da;fill-opacity:1;fill-rule:nonzero;stroke:#231f20;stroke-width:0.5;stroke-linecap:butt;stroke-linejoin:miter;stroke-miterlimit:4;stroke-dasharray:none;stroke-opacity:1"
           id="path332" /><path
           d="m 230.457,674.311 h -13.639 v 13.639 h 13.639 z"
           style="fill:#fde3da;fill-opacity:1;fill-rule:nonzero;stroke:#231f20;stroke-width:0.5;stroke-linecap:butt;stroke-linejoin:miter;stroke-miterlimit:4;stroke-dasharray:none;stroke-opacity:1"
           id="path334" /><path
           d="m 244.095,674.311 h -13.638 v 13.639 h 13.638 z"
           style="fill:#fde3da;fill-opacity:1;fill-rule:nonzero;stroke:#231f20;stroke-width:0.5;stroke-linecap:butt;stroke-linejoin:miter;stroke-miterlimit:4;stroke-dasharray:none;stroke-opacity:1"
           id="path336" /><text
           transform="matrix(1,0,0,-1,139.2632,664.2148)"
           style="font-variant:normal;font-weight:normal;font-stretch:normal;font-size:8.47px;font-family:'Nimbus Mono PS';-inkscape-font-specification:'Nimbus Mono PS, Normal';writing-mode:lr-tb;fill:#231f20;fill-opacity:1;fill-rule:nonzero;stroke:none"
           id="text340"><tspan
             x="0 13.6367 27.273399 40.910099 54.546799 68.183502 81.820198 95.456902"
             y="0"
             id="tspan338">01234567</tspan></text></g></g></g></svg>
