<?xml version="1.0" encoding="UTF-8" standalone="no"?>
<svg
   xmlns:dc="http://purl.org/dc/elements/1.1/"
   xmlns:cc="http://creativecommons.org/ns#"
   xmlns:rdf="http://www.w3.org/1999/02/22-rdf-syntax-ns#"
   xmlns:svg="http://www.w3.org/2000/svg"
   xmlns="http://www.w3.org/2000/svg"
   version="1.1"
   id="svg2"
   xml:space="preserve"
   width="393.58371"
   height="284.87427"
   viewBox="0 0 393.58371 284.87426"><metadata
     id="metadata8"><rdf:RDF><cc:Work
         rdf:about=""><dc:format>image/svg+xml</dc:format><dc:type
           rdf:resource="http://purl.org/dc/dcmitype/StillImage" /></cc:Work></rdf:RDF></metadata><defs
     id="defs6"><clipPath
       clipPathUnits="userSpaceOnUse"
       id="clipPath18"><path
         d="M 0,841.89 H 595.276 V 0 H 0 Z"
         id="path16" /></clipPath><clipPath
       clipPathUnits="userSpaceOnUse"
       id="clipPath72"><path
         d="m 339,520.344 h 10 v 7.203 h -10 z"
         id="path70" /></clipPath><clipPath
       clipPathUnits="userSpaceOnUse"
       id="clipPath84"><path
         d="m 349,520.344 h 2 v 7.203 h -2 z"
         id="path82" /></clipPath><clipPath
       clipPathUnits="userSpaceOnUse"
       id="clipPath94"><path
         d="m 351,520.344 h 10 v 7.203 h -10 z"
         id="path92" /></clipPath><clipPath
       clipPathUnits="userSpaceOnUse"
       id="clipPath106"><path
         d="m 361,520.344 h 8 v 7.203 h -8 z"
         id="path104" /></clipPath><clipPath
       clipPathUnits="userSpaceOnUse"
       id="clipPath118"><path
         d="m 369,520.344 h 8 v 7.203 h -8 z"
         id="path116" /></clipPath><clipPath
       clipPathUnits="userSpaceOnUse"
       id="clipPath130"><path
         d="M 0,841.89 H 595.276 V 0 H 0 Z"
         id="path128" /></clipPath><clipPath
       clipPathUnits="userSpaceOnUse"
       id="clipPath140"><path
         d="m 387,520.344 h 6 v 7.203 h -6 z"
         id="path138" /></clipPath><clipPath
       clipPathUnits="userSpaceOnUse"
       id="clipPath152"><path
         d="m 395,520.344 h 8 v 7.203 h -8 z"
         id="path150" /></clipPath><clipPath
       clipPathUnits="userSpaceOnUse"
       id="clipPath164"><path
         d="M 0,841.89 H 595.276 V 0 H 0 Z"
         id="path162" /></clipPath><clipPath
       clipPathUnits="userSpaceOnUse"
       id="clipPath174"><path
         d="m 407,520.344 h 10 v 7.203 h -10 z"
         id="path172" /></clipPath><clipPath
       clipPathUnits="userSpaceOnUse"
       id="clipPath186"><path
         d="m 417,520.344 h 10 v 7.203 h -10 z"
         id="path184" /></clipPath><clipPath
       clipPathUnits="userSpaceOnUse"
       id="clipPath198"><path
         d="m 425,520.344 h 6 v 7.203 h -6 z"
         id="path196" /></clipPath><clipPath
       clipPathUnits="userSpaceOnUse"
       id="clipPath210"><path
         d="M 0,841.89 H 595.276 V 0 H 0 Z"
         id="path208" /></clipPath><clipPath
       clipPathUnits="userSpaceOnUse"
       id="clipPath344"><path
         d="m 311,514.344 h 22 v 13.203 h -22 z"
         id="path342" /></clipPath><clipPath
       clipPathUnits="userSpaceOnUse"
       id="clipPath356"><path
         d="m 305,510.344 h 32 v 17.203 h -32 z"
         id="path354" /></clipPath><clipPath
       clipPathUnits="userSpaceOnUse"
       id="clipPath368"><path
         d="M 0,841.89 H 595.276 V 0 H 0 Z"
         id="path366" /></clipPath><clipPath
       clipPathUnits="userSpaceOnUse"
       id="clipPath502"><path
         d="M 301,334.345 H 444.203 V 528.001 H 301 Z"
         id="path500" /></clipPath><clipPath
       clipPathUnits="userSpaceOnUse"
       id="clipPath512"><path
         d="M 0,841.89 H 595.276 V 0 H 0 Z"
         id="path510" /></clipPath></defs><g
     id="g10"
     transform="matrix(1.3333333,0,0,-1.3333333,-198.66693,703.99998)"><g
       id="g12"><g
         id="g14"
         clip-path="url(#clipPath18)"><g
           id="g20"
           transform="translate(331.9063,315.9053)"><path
             d="m 0,0 c 0.344,-0.5 0.844,-0.906 1.438,-1.186 0.625,-0.25 1.375,-0.375 2.281,-0.375 0.719,0 1.375,0.125 1.937,0.375 0.563,0.28 1,0.625 1.313,1.094 0.313,0.469 0.469,0.969 0.469,1.5 C 7.438,1.969 7.282,2.439 7,2.844 6.719,3.25 6.313,3.594 5.719,3.844 5.313,4.033 4.594,4.25 3.5,4.5 2.438,4.75 1.75,4.969 1.5,5.219 1.25,5.469 1.094,5.75 1.094,6.127 c 0,0.406 0.188,0.75 0.562,1.031 0.376,0.311 0.938,0.469 1.75,0.469 0.782,0 1.344,-0.188 1.75,-0.5 C 5.563,6.814 5.782,6.314 5.844,5.689 L 7.125,5.783 C 7.094,6.377 6.938,6.908 6.625,7.377 6.344,7.844 5.906,8.189 5.313,8.408 4.75,8.658 4.094,8.783 3.375,8.783 2.688,8.783 2.063,8.689 1.532,8.439 0.969,8.219 0.563,7.877 0.282,7.439 -0.031,7 -0.156,6.533 -0.156,6 -0.156,5.564 -0.063,5.158 0.188,4.783 0.438,4.408 0.782,4.094 1.25,3.844 1.625,3.627 2.282,3.439 3.188,3.219 4.094,3 4.719,2.814 4.969,2.719 5.406,2.564 5.688,2.377 5.875,2.127 6.063,1.908 6.156,1.627 6.156,1.314 6.156,1 6.063,0.719 5.875,0.469 5.688,0.189 5.406,-0.031 5,-0.186 4.594,-0.342 4.156,-0.406 3.656,-0.406 c -0.562,0 -1.062,0.095 -1.531,0.314 -0.469,0.186 -0.781,0.436 -1,0.781 C 0.906,1 0.75,1.408 0.688,1.939 L -0.531,1.814 C -0.531,1.158 -0.344,0.533 0,0"
             style="fill:#1e1c1c;fill-opacity:1;fill-rule:nonzero;stroke:none"
             id="path22" /></g><g
           id="g24"
           transform="translate(342.2188,314.499)"><path
             d="m 0,0 v 3.971 c 0,0.562 0.063,1 0.22,1.343 0.124,0.311 0.343,0.561 0.655,0.75 0.345,0.186 0.656,0.282 1.031,0.282 0.5,0 0.875,-0.125 1.125,-0.407 C 3.313,5.656 3.438,5.221 3.438,4.596 V 0 h 1.218 v 4.596 c 0,0.718 -0.093,1.25 -0.25,1.625 C 4.25,6.596 3.938,6.875 3.563,7.096 3.156,7.314 2.688,7.406 2.156,7.406 1.281,7.406 0.563,7.096 0,6.406 v 3.627 H -1.219 V 0 Z"
             style="fill:#1e1c1c;fill-opacity:1;fill-rule:nonzero;stroke:none"
             id="path26" /></g><g
           id="g28"
           transform="translate(353.4063,317.6885)"><path
             d="M 0,0 C 0,-0.533 -0.063,-0.939 -0.188,-1.219 -0.375,-1.564 -0.625,-1.844 -1,-2.064 c -0.375,-0.219 -0.781,-0.311 -1.281,-0.311 -0.469,0 -0.844,0.125 -1.094,0.311 -0.25,0.22 -0.375,0.5 -0.375,0.845 0,0.186 0.062,0.405 0.187,0.563 0.095,0.187 0.282,0.312 0.469,0.406 C -2.875,-0.156 -2.5,-0.094 -2,0 -1.125,0.125 -0.438,0.281 0,0.436 Z M 0.344,-3.189 H 1.625 C 1.469,-2.906 1.375,-2.625 1.313,-2.314 1.282,-2 1.25,-1.283 1.25,-0.156 V 1.5 c 0,0.531 0,0.906 -0.062,1.125 C 1.125,2.967 1,3.25 0.813,3.467 0.625,3.686 0.344,3.875 -0.031,4 -0.438,4.156 -0.938,4.217 -1.563,4.217 -2.188,4.217 -2.75,4.156 -3.218,3.967 -3.688,3.811 -4.063,3.561 -4.313,3.25 -4.563,2.936 -4.75,2.5 -4.844,2 l 1.188,-0.189 c 0.125,0.533 0.343,0.906 0.625,1.095 0.281,0.219 0.687,0.311 1.281,0.311 0.625,0 1.094,-0.156 1.406,-0.436 C -0.094,2.594 0,2.25 0,1.75 V 1.406 C -0.468,1.25 -1.188,1.125 -2.188,1 -2.688,0.936 -3.031,0.875 -3.281,0.811 -3.625,0.717 -3.906,0.594 -4.188,0.406 -4.438,0.217 -4.656,0 -4.813,-0.314 c -0.155,-0.28 -0.25,-0.592 -0.25,-0.969 0,-0.592 0.219,-1.092 0.657,-1.467 0.438,-0.406 1.031,-0.594 1.843,-0.594 0.469,0 0.938,0.094 1.345,0.25 0.437,0.155 0.874,0.438 1.312,0.811 0.062,-0.342 0.125,-0.623 0.25,-0.906"
             style="fill:#1e1c1c;fill-opacity:1;fill-rule:nonzero;stroke:none"
             id="path30" /></g><g
           id="g32"
           transform="translate(357.7813,314.499)"><path
             d="m 0,0 v 3.783 c 0,0.531 0.063,1 0.188,1.467 0.093,0.283 0.25,0.5 0.469,0.656 0.187,0.158 0.437,0.25 0.718,0.25 0.282,0 0.594,-0.092 0.906,-0.25 L 2.688,7.033 C 2.281,7.283 1.844,7.406 1.438,7.406 1.157,7.406 0.875,7.346 0.657,7.156 0.407,7 0.125,6.656 -0.125,6.156 V 7.283 H -1.25 V 0 Z"
             style="fill:#1e1c1c;fill-opacity:1;fill-rule:nonzero;stroke:none"
             id="path34" /></g><g
           id="g36"
           transform="translate(362.7891,320.3447)"><path
             d="m 0,0 c 0.375,0.375 0.844,0.561 1.406,0.561 0.625,0 1.125,-0.217 1.532,-0.717 0.25,-0.315 0.406,-0.75 0.468,-1.375 H -0.656 C -0.625,-0.875 -0.406,-0.375 0,0 M 2.625,-4.625 C 2.313,-4.875 1.938,-5 1.469,-5 c -0.594,0 -1.125,0.219 -1.531,0.625 -0.407,0.436 -0.625,1.062 -0.657,1.844 h 5.407 v 0.31 C 4.688,-1 4.375,-0.063 3.781,0.594 3.156,1.25 2.375,1.561 1.406,1.561 c -1,0 -1.812,-0.311 -2.437,-1 -0.656,-0.657 -0.938,-1.624 -0.938,-2.842 0,-1.158 0.282,-2.094 0.938,-2.75 C -0.437,-5.689 0.406,-6 1.469,-6 2.313,-6 3,-5.781 3.563,-5.375 c 0.531,0.404 0.906,0.969 1.093,1.719 L 3.375,-3.5 C 3.188,-4 2.938,-4.375 2.625,-4.625"
             style="fill:#1e1c1c;fill-opacity:1;fill-rule:nonzero;stroke:none"
             id="path38" /></g><g
           id="g40"
           transform="translate(370.3525,320.2197)"><path
             d="m 0,0 c 0.375,0.469 0.812,0.686 1.375,0.686 0.562,0 1.03,-0.25 1.405,-0.717 0.375,-0.44 0.595,-1.19 0.595,-2.19 0,-0.875 -0.188,-1.56 -0.563,-2 -0.375,-0.435 -0.844,-0.654 -1.407,-0.654 -0.53,0 -1,0.219 -1.375,0.687 -0.405,0.467 -0.593,1.157 -0.593,2.092 0,0.94 0.188,1.658 0.563,2.096 M 4.468,-5.721 V 4.313 H 3.25 V 0.686 C 3.03,1 2.75,1.25 2.405,1.404 2.062,1.594 1.687,1.686 1.25,1.686 0.655,1.686 0.125,1.563 -0.375,1.219 -0.845,0.904 -1.22,0.469 -1.47,-0.125 c -0.218,-0.596 -0.343,-1.25 -0.343,-1.971 0,-0.75 0.125,-1.404 0.406,-1.968 0.25,-0.561 0.625,-1 1.125,-1.342 0.469,-0.315 1,-0.469 1.594,-0.469 0.875,0 1.563,0.375 2.031,1.094 v -0.94 z"
             style="fill:#1e1c1c;fill-opacity:1;fill-rule:nonzero;stroke:none"
             id="path42" /></g><g
           id="g44"
           transform="translate(382.1953,314.499)"><path
             d="M 0,0 V 6.314 H 1.407 V 7.283 H 0 V 7.939 C 0,8.375 0.063,8.656 0.25,8.814 0.375,8.971 0.657,9.064 1.032,9.064 1.25,9.064 1.5,9.033 1.75,9 l 0.188,1.064 C 1.5,10.156 1.125,10.189 0.782,10.189 0.25,10.189 -0.156,10.096 -0.468,9.906 -0.781,9.689 -0.968,9.439 -1.093,9.125 -1.188,8.875 -1.218,8.533 -1.218,8.033 V 7.283 H -2.313 V 6.314 h 1.095 V 0 Z"
             style="fill:#1e1c1c;fill-opacity:1;fill-rule:nonzero;stroke:none"
             id="path46" /></g><g
           id="g48"
           transform="translate(385.9922,320.2197)"><path
             d="M 0,0 C 0.406,0.469 0.906,0.686 1.531,0.686 2.125,0.686 2.625,0.469 3.031,0 3.438,-0.471 3.656,-1.156 3.656,-2.064 3.656,-3 3.438,-3.688 3.031,-4.156 2.625,-4.625 2.125,-4.875 1.531,-4.875 c -0.625,0 -1.125,0.219 -1.531,0.687 -0.406,0.467 -0.625,1.157 -0.625,2.092 0,0.94 0.219,1.625 0.625,2.096 m -0.938,-4.906 c 0.625,-0.658 1.438,-0.969 2.469,-0.969 0.625,0 1.219,0.154 1.75,0.437 0.532,0.313 0.938,0.717 1.219,1.25 0.281,0.532 0.438,1.282 0.438,2.217 0,1.125 -0.344,2.034 -0.969,2.69 C 3.344,1.375 2.531,1.686 1.531,1.686 0.625,1.686 -0.125,1.436 -0.75,0.875 -1.5,0.25 -1.875,-0.75 -1.875,-2.096 c 0,-1.218 0.312,-2.154 0.937,-2.81"
             style="fill:#1e1c1c;fill-opacity:1;fill-rule:nonzero;stroke:none"
             id="path50" /></g><path
           d="m 392.336,324.532 h 1.219 v -10.031 h -1.219 z"
           style="fill:#1e1c1c;fill-opacity:1;fill-rule:nonzero;stroke:none"
           id="path52" /><g
           id="g54"
           transform="translate(396.8203,320.2197)"><path
             d="m 0,0 c 0.375,0.469 0.813,0.686 1.375,0.686 0.563,0 1.032,-0.25 1.407,-0.717 0.375,-0.44 0.593,-1.19 0.593,-2.19 0,-0.875 -0.187,-1.56 -0.562,-2 -0.375,-0.435 -0.844,-0.654 -1.406,-0.654 -0.532,0 -1,0.219 -1.375,0.687 -0.407,0.467 -0.595,1.157 -0.595,2.092 0,0.94 0.188,1.658 0.563,2.096 M 4.469,-5.721 V 4.313 H 3.25 V 0.686 C 3.032,1 2.75,1.25 2.407,1.404 2.063,1.594 1.688,1.686 1.25,1.686 0.657,1.686 0.125,1.563 -0.375,1.219 -0.843,0.904 -1.218,0.469 -1.468,-0.125 c -0.22,-0.596 -0.345,-1.25 -0.345,-1.971 0,-0.75 0.125,-1.404 0.407,-1.968 0.25,-0.561 0.625,-1 1.125,-1.342 0.469,-0.315 1,-0.469 1.594,-0.469 0.875,0 1.562,0.375 2.031,1.094 v -0.94 z"
             style="fill:#1e1c1c;fill-opacity:1;fill-rule:nonzero;stroke:none"
             id="path56" /></g><g
           id="g58"
           transform="translate(404.8281,320.3447)"><path
             d="m 0,0 c 0.375,0.375 0.844,0.561 1.406,0.561 0.625,0 1.125,-0.217 1.532,-0.717 0.25,-0.315 0.406,-0.75 0.468,-1.375 H -0.656 C -0.625,-0.875 -0.406,-0.375 0,0 M 2.625,-4.625 C 2.313,-4.875 1.938,-5 1.469,-5 c -0.594,0 -1.125,0.219 -1.532,0.625 -0.406,0.436 -0.624,1.062 -0.656,1.844 h 5.407 v 0.31 C 4.688,-1 4.375,-0.063 3.781,0.594 3.156,1.25 2.375,1.561 1.406,1.561 c -1,0 -1.812,-0.311 -2.437,-1 -0.657,-0.657 -0.938,-1.624 -0.938,-2.842 0,-1.158 0.281,-2.094 0.938,-2.75 C -0.438,-5.689 0.406,-6 1.469,-6 2.313,-6 3,-5.781 3.563,-5.375 c 0.531,0.404 0.906,0.969 1.093,1.719 L 3.375,-3.5 C 3.188,-4 2.938,-4.375 2.625,-4.625"
             style="fill:#1e1c1c;fill-opacity:1;fill-rule:nonzero;stroke:none"
             id="path60" /></g><g
           id="g62"
           transform="translate(412.2734,314.499)"><path
             d="m 0,0 v 3.783 c 0,0.531 0.063,1 0.188,1.467 0.093,0.283 0.25,0.5 0.468,0.656 0.188,0.158 0.438,0.25 0.719,0.25 0.281,0 0.594,-0.092 0.906,-0.25 L 2.688,7.033 C 2.281,7.283 1.844,7.406 1.438,7.406 1.156,7.406 0.875,7.346 0.656,7.156 0.406,7 0.125,6.656 -0.125,6.156 V 7.283 H -1.25 V 0 Z"
             style="fill:#1e1c1c;fill-opacity:1;fill-rule:nonzero;stroke:none"
             id="path64" /></g></g></g><g
       id="g66"><g
         id="g68"
         clip-path="url(#clipPath72)"><g
           id="g74"
           transform="translate(342.6406,528.438)"><path
             d="m 0,0 c 0.469,0.531 0.969,0.781 1.594,0.781 0.594,0 1.125,-0.25 1.562,-0.75 0.438,-0.5 0.657,-1.313 0.657,-2.407 0,-1.062 -0.25,-1.843 -0.688,-2.374 -0.437,-0.532 -0.969,-0.813 -1.594,-0.813 -0.75,0 -1.343,0.375 -1.781,1.094 -0.281,0.437 -0.406,1.156 -0.406,2.156 0,1 0.218,1.781 0.656,2.313 m -0.656,-5.5 c 0.562,-0.813 1.344,-1.219 2.312,-1.219 0.969,0 1.813,0.406 2.532,1.187 0.687,0.75 1.062,1.875 1.062,3.282 0,0.593 -0.094,1.156 -0.281,1.687 C 4.813,-0.063 4.594,0.406 4.281,0.781 4,1.156 3.625,1.437 3.188,1.656 2.719,1.843 2.219,1.937 1.719,1.937 0.813,1.937 0.031,1.593 -0.563,0.843 V 4.937 H -1.969 V -6.532 h 1.313 z"
             style="fill:#1e1c1c;fill-opacity:1;fill-rule:nonzero;stroke:none"
             id="path76" /></g></g></g><g
       id="g78"><g
         id="g80"
         clip-path="url(#clipPath84)"><path
           d="m 349.57,533.375 h 1.405 v -11.469 h -1.405 z"
           style="fill:#1e1c1c;fill-opacity:1;fill-rule:nonzero;stroke:none"
           id="path86" /></g></g><g
       id="g88"><g
         id="g90"
         clip-path="url(#clipPath94)"><g
           id="g96"
           transform="translate(354.7734,528.438)"><path
             d="M 0,0 C 0.438,0.531 1.031,0.781 1.719,0.781 2.438,0.781 3,0.531 3.469,0 3.938,-0.532 4.188,-1.313 4.188,-2.344 4.188,-3.438 3.938,-4.219 3.469,-4.75 3,-5.282 2.438,-5.563 1.719,-5.563 c -0.688,0 -1.281,0.25 -1.719,0.781 -0.469,0.532 -0.719,1.344 -0.719,2.406 0,1.032 0.25,1.844 0.719,2.376 m -1.094,-5.594 c 0.719,-0.75 1.657,-1.125 2.813,-1.125 0.75,0 1.406,0.187 2.031,0.531 0.594,0.344 1.063,0.781 1.375,1.406 0.344,0.625 0.5,1.438 0.5,2.532 0,1.312 -0.375,2.312 -1.094,3.093 -0.718,0.75 -1.656,1.094 -2.812,1.094 -1,0 -1.875,-0.281 -2.594,-0.906 -0.844,-0.75 -1.281,-1.875 -1.281,-3.407 0,-1.406 0.343,-2.468 1.062,-3.218"
             style="fill:#1e1c1c;fill-opacity:1;fill-rule:nonzero;stroke:none"
             id="path98" /></g></g></g><g
       id="g100"><g
         id="g102"
         clip-path="url(#clipPath106)"><g
           id="g108"
           transform="translate(366.7656,523.4063)"><path
             d="m 0,0 c -0.375,-0.344 -0.844,-0.531 -1.375,-0.531 -0.688,0 -1.25,0.25 -1.688,0.75 -0.437,0.531 -0.625,1.313 -0.625,2.437 0,1.094 0.219,1.907 0.657,2.407 0.437,0.5 1,0.75 1.718,0.75 0.469,0 0.875,-0.125 1.219,-0.407 C 0.219,5.125 0.469,4.719 0.594,4.156 L 1.938,4.344 C 1.781,5.188 1.406,5.844 0.844,6.282 0.281,6.75 -0.469,6.969 -1.375,6.969 -2.063,6.969 -2.75,6.813 -3.344,6.469 -3.938,6.156 -4.406,5.625 -4.688,4.969 -5,4.282 -5.156,3.5 -5.156,2.625 c 0,-1.375 0.375,-2.437 1.062,-3.187 0.688,-0.75 1.594,-1.125 2.719,-1.125 0.906,0 1.688,0.281 2.313,0.812 0.593,0.531 1,1.281 1.125,2.219 L 0.688,1.532 C 0.594,0.844 0.375,0.313 0,0"
             style="fill:#1e1c1c;fill-opacity:1;fill-rule:nonzero;stroke:none"
             id="path110" /></g></g></g><g
       id="g112"><g
         id="g114"
         clip-path="url(#clipPath118)"><g
           id="g120"
           transform="translate(371.4531,521.9063)"><path
             d="M 0,0 V 3.282 L 0.969,4.25 3.75,0 h 1.719 l -3.5,5.219 3.187,3.094 H 3.313 L 0,4.938 v 6.531 H -1.406 V 0 Z"
             style="fill:#1e1c1c;fill-opacity:1;fill-rule:nonzero;stroke:none"
             id="path122" /></g></g></g><g
       id="g124"><g
         id="g126"
         clip-path="url(#clipPath130)"><path
           d="m 376.734,519.719 h 9.312 v -1 h -9.312 z"
           style="fill:#1e1c1c;fill-opacity:1;fill-rule:nonzero;stroke:none"
           id="path132" /></g></g><g
       id="g134"><g
         id="g136"
         clip-path="url(#clipPath140)"><g
           id="g142"
           transform="translate(391.8203,533.4063)"><path
             d="M 0,0 H -0.906 C -1.125,-0.5 -1.563,-1 -2.156,-1.531 -2.75,-2.062 -3.438,-2.5 -4.218,-2.875 V -4.25 c 0.437,0.188 0.937,0.438 1.5,0.75 0.53,0.313 1,0.625 1.312,0.969 V -11.5 H 0 Z"
             style="fill:#1e1c1c;fill-opacity:1;fill-rule:nonzero;stroke:none"
             id="path144" /></g></g></g><g
       id="g146"><g
         id="g148"
         clip-path="url(#clipPath152)"><g
           id="g154"
           transform="translate(400.7734,527.7192)"><path
             d="m 0,0 c -0.406,-0.438 -0.969,-0.688 -1.594,-0.688 -0.656,0 -1.219,0.25 -1.625,0.688 -0.437,0.469 -0.656,1.062 -0.656,1.781 0,0.812 0.219,1.469 0.687,1.969 0.438,0.531 1,0.781 1.625,0.781 0.594,0 1.125,-0.25 1.532,-0.719 C 0.406,3.343 0.625,2.687 0.625,1.906 0.625,1.093 0.406,0.469 0,0 m -4.094,-5.25 c 0.563,-0.5 1.281,-0.75 2.188,-0.75 0.843,0 1.593,0.219 2.219,0.656 0.625,0.469 1.093,1.125 1.406,2 0.312,0.844 0.469,2.031 0.469,3.5 0,1.406 -0.157,2.469 -0.469,3.219 C 1.406,4.125 0.938,4.687 0.313,5.093 -0.313,5.469 -1,5.687 -1.719,5.687 -2.781,5.687 -3.625,5.343 -4.313,4.625 -5,3.906 -5.313,3 -5.313,1.812 c 0,-1.125 0.313,-2.031 0.969,-2.719 0.656,-0.687 1.438,-1.031 2.406,-1.031 0.563,0 1.094,0.157 1.563,0.438 0.5,0.281 0.875,0.625 1.156,1.093 0,-0.156 0.032,-0.218 0.032,-0.281 0,-0.593 -0.094,-1.187 -0.25,-1.719 -0.125,-0.562 -0.282,-1.031 -0.5,-1.343 -0.219,-0.344 -0.469,-0.594 -0.813,-0.813 -0.313,-0.187 -0.688,-0.281 -1.125,-0.281 -0.5,0 -0.938,0.125 -1.25,0.437 -0.313,0.282 -0.531,0.719 -0.656,1.376 L -5.125,-3.157 C -5,-4.063 -4.688,-4.75 -4.094,-5.25"
             style="fill:#1e1c1c;fill-opacity:1;fill-rule:nonzero;stroke:none"
             id="path156" /></g></g></g><g
       id="g158"><g
         id="g160"
         clip-path="url(#clipPath164)"><path
           d="m 405.141,523.5 h 1.595 v -1.594 h -1.595 z"
           style="fill:#1e1c1c;fill-opacity:1;fill-rule:nonzero;stroke:none"
           id="path166" /></g></g><g
       id="g168"><g
         id="g170"
         clip-path="url(#clipPath174)"><g
           id="g176"
           transform="translate(410.7188,528.438)"><path
             d="M 0,0 C 0.438,0.531 0.938,0.781 1.594,0.781 2.22,0.781 2.75,0.5 3.188,-0.032 3.625,-0.563 3.844,-1.376 3.844,-2.5 c 0,-1.032 -0.188,-1.813 -0.624,-2.313 -0.439,-0.5 -0.97,-0.75 -1.595,-0.75 -0.594,0 -1.125,0.25 -1.594,0.781 -0.437,0.532 -0.656,1.344 -0.656,2.406 C -0.625,-1.313 -0.406,-0.5 0,0 M 5.125,-6.532 V 4.937 H 3.72 V 0.781 C 3.5,1.156 3.156,1.406 2.781,1.624 2.375,1.843 1.938,1.937 1.438,1.937 0.75,1.937 0.156,1.781 -0.406,1.406 -0.969,1.062 -1.375,0.531 -1.656,-0.126 c -0.25,-0.687 -0.407,-1.437 -0.407,-2.25 0,-0.874 0.157,-1.624 0.469,-2.281 0.281,-0.625 0.719,-1.125 1.281,-1.5 0.563,-0.375 1.157,-0.562 1.813,-0.562 1.031,0 1.781,0.437 2.313,1.25 v -1.063 z"
             style="fill:#1e1c1c;fill-opacity:1;fill-rule:nonzero;stroke:none"
             id="path178" /></g></g></g><g
       id="g180"><g
         id="g182"
         clip-path="url(#clipPath186)"><g
           id="g188"
           transform="translate(423.3906,525.562)"><path
             d="m 0,0 c 0,-0.624 -0.094,-1.093 -0.25,-1.406 -0.188,-0.406 -0.5,-0.718 -0.938,-0.968 -0.406,-0.25 -0.875,-0.344 -1.437,-0.344 -0.563,0 -0.969,0.125 -1.25,0.344 -0.281,0.281 -0.406,0.562 -0.406,0.968 0,0.219 0.062,0.469 0.187,0.656 0.125,0.188 0.313,0.344 0.563,0.469 0.218,0.094 0.656,0.188 1.218,0.25 C -1.281,0.126 -0.531,0.282 0,0.5 Z M 0.375,-3.656 H 1.844 C 1.688,-3.343 1.563,-3 1.5,-2.656 1.438,-2.312 1.406,-1.468 1.406,-0.187 v 1.875 c 0,0.625 0,1.062 -0.062,1.281 C 1.25,3.376 1.125,3.688 0.906,3.938 0.688,4.188 0.375,4.407 -0.063,4.563 -0.531,4.75 -1.094,4.813 -1.813,4.813 -2.531,4.813 -3.156,4.719 -3.688,4.532 -4.219,4.313 -4.656,4.063 -4.938,3.688 -5.219,3.344 -5.438,2.844 -5.563,2.25 l 1.375,-0.187 c 0.157,0.594 0.375,1.031 0.719,1.25 0.313,0.219 0.781,0.344 1.469,0.344 0.687,0 1.25,-0.157 1.594,-0.469 C -0.125,2.938 0,2.563 0,1.969 V 1.594 C -0.563,1.407 -1.375,1.25 -2.531,1.126 -3.094,1.063 -3.5,0.969 -3.781,0.907 c -0.375,-0.094 -0.719,-0.25 -1,-0.438 -0.313,-0.219 -0.563,-0.5 -0.75,-0.843 -0.157,-0.313 -0.282,-0.688 -0.282,-1.094 0,-0.688 0.25,-1.25 0.75,-1.688 0.5,-0.437 1.188,-0.687 2.125,-0.687 0.532,0 1.063,0.093 1.532,0.281 0.5,0.188 0.968,0.5 1.5,0.938 0.062,-0.407 0.125,-0.719 0.281,-1.032"
             style="fill:#1e1c1c;fill-opacity:1;fill-rule:nonzero;stroke:none"
             id="path190" /></g></g></g><g
       id="g192"><g
         id="g194"
         clip-path="url(#clipPath198)"><g
           id="g200"
           transform="translate(429.4141,523.0942)"><path
             d="M 0,0 C -0.219,0 -0.375,0.031 -0.469,0.094 -0.594,0.187 -0.656,0.281 -0.719,0.406 -0.75,0.5 -0.781,0.75 -0.781,1.156 V 6.031 H 0.625 V 7.125 H -0.781 V 10 L -2.219,9.156 V 7.125 H -3.25 V 6.031 h 1.031 V 1.25 c 0,-0.844 0.094,-1.406 0.188,-1.656 0.125,-0.282 0.312,-0.5 0.594,-0.657 0.281,-0.156 0.687,-0.25 1.187,-0.25 0.313,0 0.656,0.063 1.063,0.157 L 0.625,0.062 C 0.344,0.031 0.156,0 0,0"
             style="fill:#1e1c1c;fill-opacity:1;fill-rule:nonzero;stroke:none"
             id="path202" /></g></g></g><g
       id="g204"><g
         id="g206"
         clip-path="url(#clipPath210)"><g
           id="g212"
           transform="translate(342.6406,488.4526)"><path
             d="m 0,0 c 0.469,0.532 0.969,0.782 1.594,0.782 0.594,0 1.125,-0.25 1.562,-0.75 0.438,-0.5 0.657,-1.313 0.657,-2.407 0,-1.062 -0.25,-1.843 -0.688,-2.375 -0.437,-0.531 -0.969,-0.812 -1.594,-0.812 -0.75,0 -1.343,0.375 -1.781,1.094 -0.281,0.437 -0.406,1.156 -0.406,2.156 0,1 0.218,1.781 0.656,2.312 m -0.656,-5.5 c 0.562,-0.812 1.344,-1.218 2.312,-1.218 0.969,0 1.813,0.406 2.532,1.187 0.687,0.75 1.062,1.875 1.062,3.281 0,0.594 -0.094,1.157 -0.281,1.688 C 4.813,-0.062 4.594,0.407 4.281,0.782 4,1.157 3.625,1.438 3.188,1.657 2.719,1.844 2.219,1.938 1.719,1.938 0.813,1.938 0.031,1.594 -0.563,0.844 V 4.938 H -1.969 V -6.531 h 1.313 z"
             style="fill:#1e1c1c;fill-opacity:1;fill-rule:nonzero;stroke:none"
             id="path214" /></g><path
           d="m 349.57,493.391 h 1.405 v -11.469 h -1.405 z"
           style="fill:#1e1c1c;fill-opacity:1;fill-rule:nonzero;stroke:none"
           id="path216" /><g
           id="g218"
           transform="translate(354.7734,488.4526)"><path
             d="M 0,0 C 0.438,0.532 1.031,0.782 1.719,0.782 2.438,0.782 3,0.532 3.469,0 3.938,-0.531 4.188,-1.312 4.188,-2.343 4.188,-3.437 3.938,-4.218 3.469,-4.75 3,-5.281 2.438,-5.562 1.719,-5.562 c -0.688,0 -1.281,0.25 -1.719,0.781 -0.469,0.531 -0.719,1.344 -0.719,2.406 0,1.032 0.25,1.844 0.719,2.375 m -1.094,-5.593 c 0.719,-0.75 1.657,-1.125 2.813,-1.125 0.75,0 1.406,0.187 2.031,0.531 0.594,0.344 1.063,0.781 1.375,1.406 0.344,0.625 0.5,1.438 0.5,2.531 0,1.313 -0.375,2.313 -1.094,3.094 -0.718,0.75 -1.656,1.094 -2.812,1.094 -1,0 -1.875,-0.281 -2.594,-0.906 -0.844,-0.75 -1.281,-1.875 -1.281,-3.407 0,-1.406 0.343,-2.468 1.062,-3.218"
             style="fill:#1e1c1c;fill-opacity:1;fill-rule:nonzero;stroke:none"
             id="path220" /></g><g
           id="g222"
           transform="translate(366.7656,483.4219)"><path
             d="m 0,0 c -0.375,-0.344 -0.844,-0.531 -1.375,-0.531 -0.688,0 -1.25,0.25 -1.688,0.75 -0.437,0.531 -0.625,1.312 -0.625,2.437 0,1.094 0.219,1.907 0.657,2.407 0.437,0.5 1,0.75 1.718,0.75 0.469,0 0.875,-0.125 1.219,-0.407 C 0.219,5.125 0.469,4.719 0.594,4.156 L 1.938,4.344 C 1.781,5.188 1.406,5.844 0.844,6.281 0.281,6.75 -0.469,6.969 -1.375,6.969 -2.063,6.969 -2.75,6.813 -3.344,6.469 -3.938,6.156 -4.406,5.625 -4.688,4.969 -5,4.281 -5.156,3.5 -5.156,2.625 c 0,-1.375 0.375,-2.437 1.062,-3.187 0.688,-0.75 1.594,-1.125 2.719,-1.125 0.906,0 1.688,0.281 2.313,0.812 0.593,0.531 1,1.281 1.125,2.219 L 0.688,1.531 C 0.594,0.844 0.375,0.313 0,0"
             style="fill:#1e1c1c;fill-opacity:1;fill-rule:nonzero;stroke:none"
             id="path224" /></g><g
           id="g226"
           transform="translate(371.4531,481.9219)"><path
             d="M 0,0 V 3.281 L 0.969,4.25 3.75,0 h 1.719 l -3.5,5.219 3.187,3.094 H 3.313 L 0,4.938 v 6.531 H -1.406 V 0 Z"
             style="fill:#1e1c1c;fill-opacity:1;fill-rule:nonzero;stroke:none"
             id="path228" /></g><path
           d="m 376.734,479.735 h 9.312 v -1 h -9.312 z"
           style="fill:#1e1c1c;fill-opacity:1;fill-rule:nonzero;stroke:none"
           id="path230" /><g
           id="g232"
           transform="translate(388.2891,483.2656)"><path
             d="M 0,0 C 0.156,0.25 0.375,0.5 0.625,0.781 0.844,1 1.406,1.5 2.219,2.219 c 1.031,0.843 1.75,1.5 2.187,2 0.438,0.5 0.75,0.968 0.938,1.406 0.187,0.437 0.281,0.875 0.281,1.344 0,0.906 -0.312,1.656 -0.969,2.281 -0.625,0.594 -1.5,0.906 -2.593,0.906 -1.094,0 -1.969,-0.281 -2.625,-0.844 -0.657,-0.562 -1,-1.406 -1.094,-2.468 l 1.437,-0.125 c 0,0.718 0.188,1.25 0.625,1.656 C 0.781,8.781 1.344,9 2.031,9 2.656,9 3.188,8.812 3.594,8.406 4,8.031 4.188,7.562 4.188,7 4.188,6.469 3.969,5.906 3.531,5.312 3.094,4.719 2.219,3.906 1,2.875 0.188,2.25 -0.406,1.656 -0.844,1.156 -1.281,0.656 -1.562,0.156 -1.781,-0.375 -1.906,-0.656 -1.969,-1 -1.937,-1.344 H 5.656 V 0 Z"
             style="fill:#1e1c1c;fill-opacity:1;fill-rule:nonzero;stroke:none"
             id="path234" /></g><g
           id="g236"
           transform="translate(397.6172,491.4526)"><path
             d="M 0,0 C 0.375,0.532 0.906,0.813 1.531,0.813 2.188,0.813 2.75,0.5 3.188,-0.125 3.625,-0.75 3.844,-2 3.844,-3.875 c 0,-1.906 -0.219,-3.156 -0.656,-3.781 -0.438,-0.625 -1,-0.906 -1.625,-0.906 -0.657,0 -1.188,0.281 -1.626,0.906 -0.437,0.625 -0.656,1.875 -0.656,3.781 C -0.719,-2 -0.5,-0.718 0,0 m -1.031,-8.531 c 0.625,-0.781 1.469,-1.187 2.594,-1.187 0.812,0 1.531,0.218 2.062,0.656 0.563,0.469 0.969,1.094 1.25,1.937 0.25,0.813 0.406,1.907 0.406,3.25 0,1.125 -0.062,2.032 -0.25,2.688 C 4.844,-0.5 4.625,0.063 4.313,0.532 4.031,1 3.625,1.344 3.188,1.594 2.719,1.844 2.156,1.969 1.563,1.969 0.719,1.969 0.031,1.75 -0.5,1.313 -1.063,0.844 -1.469,0.219 -1.75,-0.593 c -0.281,-0.844 -0.406,-1.938 -0.406,-3.282 0,-2.156 0.375,-3.718 1.125,-4.656"
             style="fill:#1e1c1c;fill-opacity:1;fill-rule:nonzero;stroke:none"
             id="path238" /></g><path
           d="m 405.141,483.516 h 1.595 v -1.594 h -1.595 z"
           style="fill:#1e1c1c;fill-opacity:1;fill-rule:nonzero;stroke:none"
           id="path240" /><g
           id="g242"
           transform="translate(410.7188,488.4526)"><path
             d="M 0,0 C 0.438,0.532 0.938,0.782 1.594,0.782 2.22,0.782 2.75,0.5 3.188,-0.031 3.625,-0.562 3.844,-1.375 3.844,-2.5 c 0,-1.031 -0.188,-1.812 -0.624,-2.312 -0.439,-0.5 -0.97,-0.75 -1.595,-0.75 -0.594,0 -1.125,0.25 -1.594,0.781 -0.437,0.531 -0.656,1.344 -0.656,2.406 C -0.625,-1.312 -0.406,-0.5 0,0 M 5.125,-6.531 V 4.938 H 3.72 V 0.782 C 3.5,1.157 3.156,1.407 2.781,1.625 2.375,1.844 1.938,1.938 1.438,1.938 0.75,1.938 0.156,1.782 -0.406,1.407 -0.969,1.063 -1.375,0.532 -1.656,-0.125 c -0.25,-0.687 -0.407,-1.437 -0.407,-2.25 0,-0.875 0.157,-1.625 0.469,-2.281 0.281,-0.625 0.719,-1.125 1.281,-1.5 0.563,-0.375 1.157,-0.562 1.813,-0.562 1.031,0 1.781,0.437 2.313,1.25 v -1.063 z"
             style="fill:#1e1c1c;fill-opacity:1;fill-rule:nonzero;stroke:none"
             id="path244" /></g><g
           id="g246"
           transform="translate(423.3906,485.5776)"><path
             d="m 0,0 c 0,-0.625 -0.094,-1.093 -0.25,-1.406 -0.188,-0.406 -0.5,-0.719 -0.938,-0.969 -0.406,-0.25 -0.875,-0.343 -1.437,-0.343 -0.563,0 -0.969,0.125 -1.25,0.343 -0.281,0.282 -0.406,0.563 -0.406,0.969 0,0.219 0.062,0.469 0.187,0.656 0.125,0.188 0.313,0.344 0.563,0.469 0.218,0.094 0.656,0.188 1.218,0.25 C -1.281,0.125 -0.531,0.282 0,0.5 Z M 0.375,-3.656 H 1.844 C 1.688,-3.343 1.563,-3 1.5,-2.656 1.438,-2.312 1.406,-1.468 1.406,-0.187 v 1.875 c 0,0.625 0,1.062 -0.062,1.281 C 1.25,3.375 1.125,3.688 0.906,3.938 0.688,4.188 0.375,4.407 -0.063,4.563 -0.531,4.75 -1.094,4.813 -1.813,4.813 -2.531,4.813 -3.156,4.719 -3.688,4.532 -4.219,4.313 -4.656,4.063 -4.938,3.688 -5.219,3.344 -5.438,2.844 -5.563,2.25 l 1.375,-0.187 c 0.157,0.594 0.375,1.031 0.719,1.25 0.313,0.219 0.781,0.344 1.469,0.344 0.687,0 1.25,-0.157 1.594,-0.469 C -0.125,2.938 0,2.563 0,1.969 V 1.594 C -0.563,1.407 -1.375,1.25 -2.531,1.125 -3.094,1.063 -3.5,0.969 -3.781,0.907 c -0.375,-0.094 -0.719,-0.25 -1,-0.438 -0.313,-0.219 -0.563,-0.5 -0.75,-0.844 -0.157,-0.312 -0.282,-0.687 -0.282,-1.093 0,-0.688 0.25,-1.25 0.75,-1.688 0.5,-0.437 1.188,-0.687 2.125,-0.687 0.532,0 1.063,0.093 1.532,0.281 0.5,0.187 0.968,0.5 1.5,0.937 0.062,-0.406 0.125,-0.718 0.281,-1.031"
             style="fill:#1e1c1c;fill-opacity:1;fill-rule:nonzero;stroke:none"
             id="path248" /></g><g
           id="g250"
           transform="translate(429.4141,483.1099)"><path
             d="M 0,0 C -0.219,0 -0.375,0.031 -0.469,0.093 -0.594,0.187 -0.656,0.281 -0.719,0.406 -0.75,0.5 -0.781,0.75 -0.781,1.156 V 6.031 H 0.625 V 7.125 H -0.781 V 10 L -2.219,9.156 V 7.125 H -3.25 V 6.031 h 1.031 V 1.25 c 0,-0.844 0.094,-1.407 0.188,-1.657 0.125,-0.281 0.312,-0.5 0.594,-0.656 0.281,-0.156 0.687,-0.25 1.187,-0.25 0.313,0 0.656,0.063 1.063,0.156 L 0.625,0.062 C 0.344,0.031 0.156,0 0,0"
             style="fill:#1e1c1c;fill-opacity:1;fill-rule:nonzero;stroke:none"
             id="path252" /></g><g
           id="g254"
           transform="translate(342.6406,446.3208)"><path
             d="m 0,0 c 0.469,0.531 0.969,0.781 1.594,0.781 0.594,0 1.125,-0.25 1.562,-0.75 0.438,-0.5 0.657,-1.313 0.657,-2.406 0,-1.063 -0.25,-1.844 -0.688,-2.375 -0.437,-0.532 -0.969,-0.813 -1.594,-0.813 -0.75,0 -1.343,0.375 -1.781,1.094 -0.281,0.437 -0.406,1.156 -0.406,2.156 0,1 0.218,1.781 0.656,2.313 m -0.656,-5.5 c 0.562,-0.813 1.344,-1.219 2.312,-1.219 0.969,0 1.813,0.406 2.532,1.187 0.687,0.75 1.062,1.875 1.062,3.282 0,0.593 -0.094,1.156 -0.281,1.687 C 4.813,-0.063 4.594,0.406 4.281,0.781 4,1.156 3.625,1.437 3.188,1.656 2.719,1.843 2.219,1.937 1.719,1.937 0.813,1.937 0.031,1.593 -0.563,0.843 V 4.937 H -1.969 V -6.532 h 1.313 z"
             style="fill:#1e1c1c;fill-opacity:1;fill-rule:nonzero;stroke:none"
             id="path256" /></g><path
           d="m 349.57,451.258 h 1.405 v -11.469 h -1.405 z"
           style="fill:#1e1c1c;fill-opacity:1;fill-rule:nonzero;stroke:none"
           id="path258" /><g
           id="g260"
           transform="translate(354.7734,446.3208)"><path
             d="M 0,0 C 0.438,0.531 1.031,0.781 1.719,0.781 2.438,0.781 3,0.531 3.469,0 3.938,-0.532 4.188,-1.313 4.188,-2.344 4.188,-3.438 3.938,-4.219 3.469,-4.75 3,-5.282 2.438,-5.563 1.719,-5.563 c -0.688,0 -1.281,0.25 -1.719,0.781 -0.469,0.532 -0.719,1.344 -0.719,2.407 0,1.031 0.25,1.843 0.719,2.375 m -1.094,-5.594 c 0.719,-0.75 1.657,-1.125 2.813,-1.125 0.75,0 1.406,0.187 2.031,0.531 0.594,0.344 1.063,0.781 1.375,1.406 0.344,0.625 0.5,1.438 0.5,2.532 0,1.312 -0.375,2.312 -1.094,3.093 -0.718,0.75 -1.656,1.094 -2.812,1.094 -1,0 -1.875,-0.281 -2.594,-0.906 -0.844,-0.75 -1.281,-1.875 -1.281,-3.406 0,-1.407 0.343,-2.469 1.062,-3.219"
             style="fill:#1e1c1c;fill-opacity:1;fill-rule:nonzero;stroke:none"
             id="path262" /></g><g
           id="g264"
           transform="translate(366.7656,441.2886)"><path
             d="m 0,0 c -0.375,-0.343 -0.844,-0.531 -1.375,-0.531 -0.688,0 -1.25,0.25 -1.688,0.75 -0.437,0.531 -0.625,1.313 -0.625,2.438 0,1.093 0.219,1.906 0.657,2.406 0.437,0.5 1,0.75 1.718,0.75 0.469,0 0.875,-0.125 1.219,-0.406 C 0.219,5.125 0.469,4.719 0.594,4.157 L 1.938,4.344 C 1.781,5.188 1.406,5.844 0.844,6.282 0.281,6.75 -0.469,6.969 -1.375,6.969 -2.063,6.969 -2.75,6.813 -3.344,6.469 -3.938,6.157 -4.406,5.625 -4.688,4.969 -5,4.282 -5.156,3.5 -5.156,2.625 c 0,-1.375 0.375,-2.437 1.062,-3.187 0.688,-0.75 1.594,-1.125 2.719,-1.125 0.906,0 1.688,0.281 2.313,0.812 0.593,0.532 1,1.282 1.125,2.219 L 0.688,1.532 C 0.594,0.844 0.375,0.313 0,0"
             style="fill:#1e1c1c;fill-opacity:1;fill-rule:nonzero;stroke:none"
             id="path266" /></g><g
           id="g268"
           transform="translate(371.4531,439.7886)"><path
             d="M 0,0 V 3.282 L 0.969,4.25 3.75,0 h 1.719 l -3.5,5.219 3.187,3.094 H 3.313 L 0,4.938 v 6.531 H -1.406 V 0 Z"
             style="fill:#1e1c1c;fill-opacity:1;fill-rule:nonzero;stroke:none"
             id="path270" /></g><path
           d="m 376.734,437.602 h 9.312 v -1 h -9.312 z"
           style="fill:#1e1c1c;fill-opacity:1;fill-rule:nonzero;stroke:none"
           id="path272" /><g
           id="g274"
           transform="translate(388.2891,441.1328)"><path
             d="M 0,0 C 0.156,0.25 0.375,0.5 0.625,0.781 0.844,1 1.406,1.5 2.219,2.219 c 1.031,0.844 1.75,1.5 2.187,2 0.438,0.5 0.75,0.969 0.938,1.406 0.187,0.438 0.281,0.875 0.281,1.344 0,0.906 -0.312,1.656 -0.969,2.281 -0.625,0.594 -1.5,0.906 -2.593,0.906 -1.094,0 -1.969,-0.281 -2.625,-0.843 -0.657,-0.563 -1,-1.407 -1.094,-2.469 l 1.437,-0.125 c 0,0.719 0.188,1.25 0.625,1.656 C 0.781,8.781 1.344,9 2.031,9 2.656,9 3.188,8.813 3.594,8.406 4,8.031 4.188,7.563 4.188,7 4.188,6.469 3.969,5.906 3.531,5.313 3.094,4.719 2.219,3.906 1,2.875 0.188,2.25 -0.406,1.656 -0.844,1.156 -1.281,0.656 -1.562,0.156 -1.781,-0.375 -1.906,-0.656 -1.969,-1 -1.937,-1.344 H 5.656 V 0 Z"
             style="fill:#1e1c1c;fill-opacity:1;fill-rule:nonzero;stroke:none"
             id="path276" /></g><g
           id="g278"
           transform="translate(400.7109,451.2891)"><path
             d="M 0,0 H -0.906 C -1.125,-0.5 -1.563,-1 -2.156,-1.531 -2.75,-2.062 -3.438,-2.5 -4.219,-2.875 V -4.25 c 0.438,0.188 0.938,0.438 1.5,0.75 0.531,0.313 1,0.625 1.313,0.969 V -11.5 H 0 Z"
             style="fill:#1e1c1c;fill-opacity:1;fill-rule:nonzero;stroke:none"
             id="path280" /></g><path
           d="m 405.141,441.383 h 1.595 v -1.594 h -1.595 z"
           style="fill:#1e1c1c;fill-opacity:1;fill-rule:nonzero;stroke:none"
           id="path282" /><g
           id="g284"
           transform="translate(410.7188,446.3208)"><path
             d="M 0,0 C 0.438,0.531 0.938,0.781 1.594,0.781 2.22,0.781 2.75,0.5 3.188,-0.032 3.625,-0.563 3.844,-1.375 3.844,-2.5 c 0,-1.032 -0.188,-1.813 -0.624,-2.313 -0.439,-0.5 -0.97,-0.75 -1.595,-0.75 -0.594,0 -1.125,0.25 -1.594,0.781 -0.437,0.532 -0.656,1.344 -0.656,2.407 C -0.625,-1.313 -0.406,-0.5 0,0 M 5.125,-6.532 V 4.937 H 3.72 V 0.781 C 3.5,1.156 3.156,1.406 2.781,1.625 2.375,1.843 1.938,1.937 1.438,1.937 0.75,1.937 0.156,1.781 -0.406,1.406 -0.969,1.062 -1.375,0.531 -1.656,-0.125 c -0.25,-0.688 -0.407,-1.438 -0.407,-2.25 0,-0.875 0.157,-1.625 0.469,-2.282 0.281,-0.625 0.719,-1.125 1.281,-1.5 0.563,-0.375 1.157,-0.562 1.813,-0.562 1.031,0 1.781,0.437 2.313,1.25 v -1.063 z"
             style="fill:#1e1c1c;fill-opacity:1;fill-rule:nonzero;stroke:none"
             id="path286" /></g><g
           id="g288"
           transform="translate(423.3906,443.4458)"><path
             d="m 0,0 c 0,-0.625 -0.094,-1.094 -0.25,-1.407 -0.188,-0.406 -0.5,-0.718 -0.938,-0.968 -0.406,-0.25 -0.875,-0.344 -1.437,-0.344 -0.563,0 -0.969,0.125 -1.25,0.344 -0.281,0.281 -0.406,0.562 -0.406,0.968 0,0.219 0.062,0.469 0.187,0.657 0.125,0.187 0.313,0.343 0.563,0.468 0.218,0.094 0.656,0.188 1.218,0.25 C -1.281,0.125 -0.531,0.281 0,0.5 Z M 0.375,-3.657 H 1.844 C 1.688,-3.344 1.563,-3 1.5,-2.657 1.438,-2.313 1.406,-1.469 1.406,-0.188 v 1.875 c 0,0.625 0,1.063 -0.062,1.281 C 1.25,3.375 1.125,3.687 0.906,3.937 0.688,4.187 0.375,4.406 -0.063,4.562 -0.531,4.75 -1.094,4.812 -1.813,4.812 -2.531,4.812 -3.156,4.718 -3.688,4.531 -4.219,4.312 -4.656,4.062 -4.938,3.687 -5.219,3.343 -5.438,2.843 -5.563,2.25 l 1.375,-0.188 c 0.157,0.594 0.375,1.031 0.719,1.25 0.313,0.219 0.781,0.344 1.469,0.344 0.687,0 1.25,-0.156 1.594,-0.469 C -0.125,2.937 0,2.562 0,1.968 V 1.593 C -0.563,1.406 -1.375,1.25 -2.531,1.125 -3.094,1.062 -3.5,0.968 -3.781,0.906 c -0.375,-0.094 -0.719,-0.25 -1,-0.438 -0.313,-0.218 -0.563,-0.5 -0.75,-0.843 -0.157,-0.313 -0.282,-0.688 -0.282,-1.094 0,-0.688 0.25,-1.25 0.75,-1.688 0.5,-0.437 1.188,-0.687 2.125,-0.687 0.532,0 1.063,0.094 1.532,0.281 0.5,0.188 0.968,0.5 1.5,0.938 0.062,-0.407 0.125,-0.719 0.281,-1.032"
             style="fill:#1e1c1c;fill-opacity:1;fill-rule:nonzero;stroke:none"
             id="path290" /></g><g
           id="g292"
           transform="translate(429.4141,440.9771)"><path
             d="M 0,0 C -0.219,0 -0.375,0.031 -0.469,0.094 -0.594,0.187 -0.656,0.281 -0.719,0.406 -0.75,0.5 -0.781,0.75 -0.781,1.156 V 6.031 H 0.625 V 7.125 H -0.781 V 10 L -2.219,9.156 V 7.125 H -3.25 V 6.031 h 1.031 V 1.25 c 0,-0.844 0.094,-1.406 0.188,-1.656 0.125,-0.282 0.312,-0.5 0.594,-0.657 0.281,-0.156 0.687,-0.25 1.187,-0.25 0.313,0 0.656,0.063 1.063,0.157 L 0.625,0.062 C 0.344,0.031 0.156,0 0,0"
             style="fill:#1e1c1c;fill-opacity:1;fill-rule:nonzero;stroke:none"
             id="path294" /></g><g
           id="g296"
           transform="translate(342.6406,405.9775)"><path
             d="m 0,0 c 0.469,0.529 0.969,0.781 1.594,0.781 0.594,0 1.125,-0.252 1.562,-0.75 0.438,-0.502 0.657,-1.312 0.657,-2.406 0,-1.064 -0.25,-1.846 -0.688,-2.375 -0.437,-0.531 -0.969,-0.814 -1.594,-0.814 -0.75,0 -1.343,0.375 -1.781,1.095 -0.281,0.438 -0.406,1.155 -0.406,2.155 0,1 0.218,1.783 0.656,2.314 m -0.656,-5.5 c 0.562,-0.814 1.344,-1.219 2.312,-1.219 0.969,0 1.813,0.405 2.532,1.188 0.687,0.75 1.062,1.875 1.062,3.281 0,0.594 -0.094,1.156 -0.281,1.686 -0.156,0.5 -0.375,0.97 -0.688,1.345 C 4,1.156 3.625,1.436 3.188,1.654 2.719,1.844 2.219,1.936 1.719,1.936 0.813,1.936 0.031,1.594 -0.563,0.844 V 4.936 H -1.969 V -6.531 h 1.313 z"
             style="fill:#1e1c1c;fill-opacity:1;fill-rule:nonzero;stroke:none"
             id="path298" /></g><path
           d="m 349.57,410.913 h 1.405 v -11.469 h -1.405 z"
           style="fill:#1e1c1c;fill-opacity:1;fill-rule:nonzero;stroke:none"
           id="path300" /><g
           id="g302"
           transform="translate(354.7734,405.9775)"><path
             d="M 0,0 C 0.438,0.529 1.031,0.781 1.719,0.781 2.438,0.781 3,0.529 3.469,0 3.938,-0.531 4.188,-1.314 4.188,-2.346 4.188,-3.439 3.938,-4.221 3.469,-4.75 3,-5.281 2.438,-5.564 1.719,-5.564 c -0.688,0 -1.281,0.25 -1.719,0.783 -0.469,0.531 -0.719,1.342 -0.719,2.406 0,1.029 0.25,1.844 0.719,2.375 m -1.094,-5.594 c 0.719,-0.75 1.657,-1.125 2.813,-1.125 0.75,0 1.406,0.188 2.031,0.53 0.594,0.343 1.063,0.783 1.375,1.408 0.344,0.625 0.5,1.437 0.5,2.531 0,1.311 -0.375,2.311 -1.094,3.094 -0.718,0.75 -1.656,1.092 -2.812,1.092 -1,0 -1.875,-0.282 -2.594,-0.907 -0.844,-0.75 -1.281,-1.875 -1.281,-3.404 0,-1.406 0.343,-2.469 1.062,-3.219"
             style="fill:#1e1c1c;fill-opacity:1;fill-rule:nonzero;stroke:none"
             id="path304" /></g><g
           id="g306"
           transform="translate(366.7656,400.9463)"><path
             d="m 0,0 c -0.375,-0.344 -0.844,-0.533 -1.375,-0.533 -0.688,0 -1.25,0.25 -1.688,0.75 -0.437,0.533 -0.625,1.314 -0.625,2.439 0,1.094 0.219,1.905 0.657,2.407 0.437,0.498 1,0.75 1.718,0.75 0.469,0 0.875,-0.127 1.219,-0.407 C 0.219,5.125 0.469,4.717 0.594,4.156 L 1.938,4.342 C 1.781,5.186 1.406,5.842 0.844,6.281 0.281,6.75 -0.469,6.967 -1.375,6.967 -2.063,6.967 -2.75,6.811 -3.344,6.467 -3.938,6.156 -4.406,5.625 -4.688,4.967 -5,4.281 -5.156,3.5 -5.156,2.625 c 0,-1.375 0.375,-2.437 1.062,-3.188 0.688,-0.75 1.594,-1.125 2.719,-1.125 0.906,0 1.688,0.28 2.313,0.813 0.593,0.531 1,1.281 1.125,2.217 L 0.688,1.531 C 0.594,0.842 0.375,0.311 0,0"
             style="fill:#1e1c1c;fill-opacity:1;fill-rule:nonzero;stroke:none"
             id="path308" /></g><g
           id="g310"
           transform="translate(371.4531,399.4463)"><path
             d="M 0,0 V 3.281 L 0.969,4.25 3.75,0 h 1.719 l -3.5,5.217 3.187,3.094 H 3.313 L 0,4.936 v 6.531 H -1.406 V 0 Z"
             style="fill:#1e1c1c;fill-opacity:1;fill-rule:nonzero;stroke:none"
             id="path312" /></g><path
           d="m 376.734,397.257 h 9.312 v -0.998 h -9.312 z"
           style="fill:#1e1c1c;fill-opacity:1;fill-rule:nonzero;stroke:none"
           id="path314" /><g
           id="g316"
           transform="translate(388.2891,400.7881)"><path
             d="M 0,0 C 0.156,0.25 0.375,0.5 0.625,0.783 0.844,1 1.406,1.5 2.219,2.221 c 1.031,0.843 1.75,1.5 2.187,1.998 0.438,0.5 0.75,0.97 0.938,1.406 0.187,0.439 0.281,0.875 0.281,1.344 0,0.906 -0.312,1.656 -0.969,2.281 -0.625,0.594 -1.5,0.908 -2.593,0.908 -1.094,0 -1.969,-0.283 -2.625,-0.844 -0.657,-0.564 -1,-1.406 -1.094,-2.47 l 1.437,-0.123 c 0,0.718 0.188,1.248 0.625,1.654 C 0.781,8.783 1.344,9 2.031,9 2.656,9 3.188,8.814 3.594,8.408 4,8.033 4.188,7.564 4.188,7 4.188,6.469 3.969,5.908 3.531,5.314 3.094,4.719 2.219,3.908 1,2.875 0.188,2.25 -0.406,1.658 -0.844,1.158 -1.281,0.658 -1.562,0.158 -1.781,-0.375 -1.906,-0.656 -1.969,-1 -1.937,-1.342 H 5.656 V 0 Z"
             style="fill:#1e1c1c;fill-opacity:1;fill-rule:nonzero;stroke:none"
             id="path318" /></g><g
           id="g320"
           transform="translate(397.1797,400.7881)"><path
             d="M 0,0 C 0.156,0.25 0.375,0.5 0.625,0.783 0.844,1 1.406,1.5 2.219,2.221 c 1.031,0.843 1.75,1.5 2.187,1.998 0.438,0.5 0.75,0.97 0.938,1.406 0.187,0.439 0.281,0.875 0.281,1.344 0,0.906 -0.312,1.656 -0.969,2.281 -0.625,0.594 -1.5,0.908 -2.593,0.908 -1.094,0 -1.969,-0.283 -2.626,-0.844 -0.656,-0.564 -1,-1.406 -1.093,-2.47 l 1.437,-0.123 c 0,0.718 0.188,1.248 0.625,1.654 C 0.781,8.783 1.344,9 2.031,9 2.656,9 3.188,8.814 3.594,8.408 4,8.033 4.188,7.564 4.188,7 4.188,6.469 3.969,5.908 3.531,5.314 3.094,4.719 2.219,3.908 1,2.875 0.188,2.25 -0.406,1.658 -0.844,1.158 -1.281,0.658 -1.563,0.158 -1.781,-0.375 -1.906,-0.656 -1.969,-1 -1.938,-1.342 H 5.656 V 0 Z"
             style="fill:#1e1c1c;fill-opacity:1;fill-rule:nonzero;stroke:none"
             id="path322" /></g><path
           d="m 405.141,401.038 h 1.595 v -1.594 h -1.595 z"
           style="fill:#1e1c1c;fill-opacity:1;fill-rule:nonzero;stroke:none"
           id="path324" /><g
           id="g326"
           transform="translate(410.7188,405.9775)"><path
             d="M 0,0 C 0.438,0.529 0.938,0.781 1.594,0.781 2.22,0.781 2.75,0.5 3.188,-0.031 3.625,-0.564 3.844,-1.375 3.844,-2.5 c 0,-1.031 -0.188,-1.814 -0.624,-2.314 -0.439,-0.5 -0.97,-0.75 -1.595,-0.75 -0.594,0 -1.125,0.25 -1.594,0.783 -0.437,0.531 -0.656,1.342 -0.656,2.406 C -0.625,-1.314 -0.406,-0.5 0,0 M 5.125,-6.531 V 4.936 H 3.72 V 0.781 C 3.5,1.156 3.156,1.404 2.781,1.625 2.375,1.844 1.938,1.936 1.438,1.936 0.75,1.936 0.156,1.779 -0.406,1.404 -0.969,1.061 -1.375,0.529 -1.656,-0.125 c -0.25,-0.689 -0.407,-1.439 -0.407,-2.25 0,-0.875 0.157,-1.625 0.469,-2.281 0.281,-0.625 0.719,-1.125 1.281,-1.5 0.563,-0.375 1.157,-0.563 1.813,-0.563 1.031,0 1.781,0.438 2.313,1.248 v -1.06 z"
             style="fill:#1e1c1c;fill-opacity:1;fill-rule:nonzero;stroke:none"
             id="path328" /></g><g
           id="g330"
           transform="translate(423.3906,403.1025)"><path
             d="m 0,0 c 0,-0.625 -0.094,-1.096 -0.25,-1.406 -0.188,-0.408 -0.5,-0.719 -0.938,-0.969 -0.406,-0.25 -0.875,-0.344 -1.437,-0.344 -0.563,0 -0.969,0.123 -1.25,0.344 -0.281,0.279 -0.406,0.561 -0.406,0.969 0,0.217 0.062,0.467 0.187,0.656 0.125,0.186 0.313,0.344 0.563,0.469 0.218,0.092 0.656,0.187 1.218,0.25 C -1.281,0.125 -0.531,0.281 0,0.5 Z M 0.375,-3.656 H 1.844 C 1.688,-3.346 1.563,-3 1.5,-2.656 1.438,-2.314 1.406,-1.471 1.406,-0.189 v 1.875 c 0,0.625 0,1.064 -0.062,1.283 C 1.25,3.375 1.125,3.686 0.906,3.936 0.688,4.186 0.375,4.406 -0.063,4.561 -0.531,4.75 -1.094,4.811 -1.813,4.811 -2.531,4.811 -3.156,4.719 -3.688,4.529 -4.219,4.311 -4.656,4.061 -4.938,3.686 -5.219,3.344 -5.438,2.844 -5.563,2.25 l 1.375,-0.189 c 0.157,0.593 0.375,1.033 0.719,1.25 0.313,0.218 0.781,0.345 1.469,0.345 0.687,0 1.25,-0.156 1.594,-0.47 C -0.125,2.936 0,2.561 0,1.969 V 1.594 C -0.563,1.406 -1.375,1.25 -2.531,1.125 -3.094,1.061 -3.5,0.969 -3.781,0.904 -4.156,0.811 -4.5,0.656 -4.781,0.469 c -0.313,-0.219 -0.563,-0.5 -0.75,-0.844 -0.157,-0.314 -0.282,-0.689 -0.282,-1.096 0,-0.685 0.25,-1.248 0.75,-1.685 0.5,-0.44 1.188,-0.688 2.125,-0.688 0.532,0 1.063,0.094 1.532,0.28 0.5,0.189 0.968,0.5 1.5,0.939 0.062,-0.406 0.125,-0.721 0.281,-1.031"
             style="fill:#1e1c1c;fill-opacity:1;fill-rule:nonzero;stroke:none"
             id="path332" /></g><g
           id="g334"
           transform="translate(429.4141,400.6318)"><path
             d="m 0,0 c -0.219,0 -0.375,0.031 -0.469,0.096 -0.125,0.093 -0.187,0.185 -0.25,0.31 -0.031,0.096 -0.062,0.344 -0.062,0.75 V 6.031 H 0.625 V 7.125 H -0.781 V 10 L -2.219,9.156 V 7.125 H -3.25 V 6.031 h 1.031 V 1.252 c 0,-0.846 0.094,-1.406 0.188,-1.656 0.125,-0.282 0.312,-0.5 0.594,-0.657 0.281,-0.158 0.687,-0.25 1.187,-0.25 0.313,0 0.656,0.061 1.063,0.157 L 0.625,0.064 C 0.344,0.031 0.156,0 0,0"
             style="fill:#1e1c1c;fill-opacity:1;fill-rule:nonzero;stroke:none"
             id="path336" /></g></g></g><g
       id="g338"><g
         id="g340"
         clip-path="url(#clipPath344)"><g
           id="g346"
           transform="translate(332.0391,540.8198)"><path
             d="M 0,0 V -24.875 H -20.93 V 5.172 h 16.727 c 0,0 1.055,-0.117 2.57,-1.742 C 0,1.696 0,0 0,0"
             style="fill:#f3eef8;fill-opacity:1;fill-rule:nonzero;stroke:none"
             id="path348" /></g></g></g><g
       id="g350"><g
         id="g352"
         clip-path="url(#clipPath356)"><g
           id="g358"
           transform="translate(332.0391,540.8198)"><path
             d="M 0,0 V -24.875 H -20.93 V 5.172 h 16.727 c 0,0 1.055,-0.117 2.57,-1.742 C 0,1.696 0,0 0,0 Z"
             style="fill:none;stroke:#1e1c1c;stroke-width:0.8;stroke-linecap:butt;stroke-linejoin:miter;stroke-miterlimit:4;stroke-dasharray:none;stroke-opacity:1"
             id="path360" /></g></g></g><g
       id="g362"><g
         id="g364"
         clip-path="url(#clipPath368)"><path
           d="m 314.961,525.563 h 12.875 v -1.633 h -12.875 z"
           style="fill:#a678c2;fill-opacity:1;fill-rule:nonzero;stroke:none"
           id="path370" /><path
           d="m 314.961,521.821 h 12.875 v -1.633 h -12.875 z"
           style="fill:#a678c2;fill-opacity:1;fill-rule:nonzero;stroke:none"
           id="path372" /><g
           id="g374"
           transform="translate(332.0391,498.9458)"><path
             d="M 0,0 V -24.883 H -20.922 V 5.171 h 16.719 c 0,0 1.055,-0.125 2.578,-1.742 C 0,1.695 0,0 0,0"
             style="fill:#f3eef8;fill-opacity:1;fill-rule:nonzero;stroke:none"
             id="path376" /></g><g
           id="g378"
           transform="translate(327.8359,504.1172)"><path
             d="m 0,0 v -3.734 c 0,0 2.211,0.047 3.142,0 0.733,-0.039 0.944,-0.695 0.944,-0.695 M 4.203,-5.172 V -30.055 H -16.719 V 0 H 0 c 0,0 1.055,-0.125 2.578,-1.742 1.625,-1.734 1.625,-3.43 1.625,-3.43 z"
             style="fill:none;stroke:#1e1c1c;stroke-width:0.8;stroke-linecap:butt;stroke-linejoin:miter;stroke-miterlimit:4;stroke-dasharray:none;stroke-opacity:1"
             id="path380" /></g><path
           d="m 314.969,498.672 h 12.867 v -1.633 h -12.867 z"
           style="fill:#a678c2;fill-opacity:1;fill-rule:nonzero;stroke:none"
           id="path382" /><path
           d="m 314.969,494.93 h 12.867 v -1.633 h -12.867 z"
           style="fill:#a678c2;fill-opacity:1;fill-rule:nonzero;stroke:none"
           id="path384" /><path
           d="m 314.969,491.18 h 12.867 v -1.633 h -12.867 z"
           style="fill:#a678c2;fill-opacity:1;fill-rule:nonzero;stroke:none"
           id="path386" /><path
           d="m 314.969,487.43 h 12.867 v -1.633 h -12.867 z"
           style="fill:#a678c2;fill-opacity:1;fill-rule:nonzero;stroke:none"
           id="path388" /><path
           d="m 314.969,483.688 h 12.867 v -1.633 h -12.867 z"
           style="fill:#a678c2;fill-opacity:1;fill-rule:nonzero;stroke:none"
           id="path390" /><path
           d="m 314.969,479.938 h 12.867 v -1.633 h -12.867 z"
           style="fill:#a678c2;fill-opacity:1;fill-rule:nonzero;stroke:none"
           id="path392" /><g
           id="g394"
           transform="translate(332.0391,457.063)"><path
             d="M 0,0 V -24.875 H -20.922 V 5.172 h 16.719 c 0,0 1.055,-0.118 2.578,-1.743 C 0,1.695 0,0 0,0"
             style="fill:#f3eef8;fill-opacity:1;fill-rule:nonzero;stroke:none"
             id="path396" /></g><g
           id="g398"
           transform="translate(327.8359,462.2339)"><path
             d="m 0,0 v -3.726 c 0,0 2.211,0.047 3.142,0 0.733,-0.039 0.944,-0.703 0.944,-0.703 M 4.203,-5.172 V -30.046 H -16.719 V 0 H 0 c 0,0 1.055,-0.117 2.578,-1.742 1.625,-1.734 1.625,-3.43 1.625,-3.43 z"
             style="fill:none;stroke:#1e1c1c;stroke-width:0.8;stroke-linecap:butt;stroke-linejoin:miter;stroke-miterlimit:4;stroke-dasharray:none;stroke-opacity:1"
             id="path400" /></g><path
           d="m 314.969,456.797 h 12.867 v -1.633 h -12.867 z"
           style="fill:#a678c2;fill-opacity:1;fill-rule:nonzero;stroke:none"
           id="path402" /><path
           d="m 314.969,453.047 h 12.867 v -1.633 h -12.867 z"
           style="fill:#a678c2;fill-opacity:1;fill-rule:nonzero;stroke:none"
           id="path404" /><path
           d="m 314.969,449.305 h 12.867 v -1.633 h -12.867 z"
           style="fill:#a678c2;fill-opacity:1;fill-rule:nonzero;stroke:none"
           id="path406" /><path
           d="m 314.969,445.555 h 12.867 v -1.633 h -12.867 z"
           style="fill:#a678c2;fill-opacity:1;fill-rule:nonzero;stroke:none"
           id="path408" /><path
           d="m 314.969,441.805 h 12.867 v -1.633 h -12.867 z"
           style="fill:#a678c2;fill-opacity:1;fill-rule:nonzero;stroke:none"
           id="path410" /><path
           d="m 314.969,438.063 h 12.867 v -1.633 h -12.867 z"
           style="fill:#a678c2;fill-opacity:1;fill-rule:nonzero;stroke:none"
           id="path412" /><g
           id="g414"
           transform="translate(342.6406,362.5635)"><path
             d="m 0,0 c 0.469,0.531 0.969,0.781 1.594,0.781 0.594,0 1.125,-0.25 1.562,-0.75 0.438,-0.5 0.657,-1.312 0.657,-2.406 0,-1.064 -0.25,-1.844 -0.688,-2.375 -0.437,-0.531 -0.969,-0.814 -1.594,-0.814 -0.75,0 -1.343,0.375 -1.781,1.095 -0.281,0.438 -0.406,1.155 -0.406,2.155 0,1 0.218,1.783 0.656,2.314 m -0.656,-5.5 c 0.562,-0.814 1.344,-1.219 2.312,-1.219 0.969,0 1.813,0.405 2.532,1.188 0.687,0.75 1.062,1.873 1.062,3.281 0,0.592 -0.094,1.156 -0.281,1.686 -0.156,0.5 -0.375,0.97 -0.688,1.345 C 4,1.156 3.625,1.436 3.188,1.656 2.719,1.842 2.219,1.936 1.719,1.936 0.813,1.936 0.031,1.592 -0.563,0.842 V 4.936 H -1.969 V -6.531 h 1.313 z"
             style="fill:#1e1c1c;fill-opacity:1;fill-rule:nonzero;stroke:none"
             id="path416" /></g><path
           d="m 349.57,367.499 h 1.405 V 356.03 h -1.405 z"
           style="fill:#1e1c1c;fill-opacity:1;fill-rule:nonzero;stroke:none"
           id="path418" /><g
           id="g420"
           transform="translate(354.7734,362.5635)"><path
             d="M 0,0 C 0.438,0.531 1.031,0.781 1.719,0.781 2.438,0.781 3,0.531 3.469,0 3.938,-0.531 4.188,-1.314 4.188,-2.344 4.188,-3.439 3.938,-4.219 3.469,-4.75 3,-5.281 2.438,-5.564 1.719,-5.564 c -0.688,0 -1.281,0.25 -1.719,0.783 -0.469,0.531 -0.719,1.342 -0.719,2.406 0,1.031 0.25,1.844 0.719,2.375 m -1.094,-5.594 c 0.719,-0.75 1.657,-1.125 2.813,-1.125 0.75,0 1.406,0.188 2.031,0.53 0.594,0.345 1.063,0.781 1.375,1.408 0.344,0.623 0.5,1.437 0.5,2.531 0,1.311 -0.375,2.311 -1.094,3.092 -0.718,0.75 -1.656,1.094 -2.812,1.094 -1,0 -1.875,-0.28 -2.594,-0.905 -0.844,-0.75 -1.281,-1.875 -1.281,-3.406 0,-1.406 0.343,-2.469 1.062,-3.219"
             style="fill:#1e1c1c;fill-opacity:1;fill-rule:nonzero;stroke:none"
             id="path422" /></g><g
           id="g424"
           transform="translate(366.7656,357.5322)"><path
             d="m 0,0 c -0.375,-0.344 -0.844,-0.533 -1.375,-0.533 -0.688,0 -1.25,0.25 -1.688,0.75 -0.437,0.533 -0.625,1.314 -0.625,2.439 0,1.094 0.219,1.907 0.657,2.407 0.437,0.5 1,0.75 1.718,0.75 0.469,0 0.875,-0.125 1.219,-0.407 C 0.219,5.123 0.469,4.717 0.594,4.156 L 1.938,4.342 C 1.781,5.188 1.406,5.842 0.844,6.281 0.281,6.75 -0.469,6.967 -1.375,6.967 -2.063,6.967 -2.75,6.813 -3.344,6.467 -3.938,6.156 -4.406,5.623 -4.688,4.967 -5,4.281 -5.156,3.5 -5.156,2.623 c 0,-1.373 0.375,-2.435 1.062,-3.186 0.688,-0.75 1.594,-1.125 2.719,-1.125 0.906,0 1.688,0.28 2.313,0.811 0.593,0.533 1,1.283 1.125,2.219 L 0.688,1.531 C 0.594,0.842 0.375,0.313 0,0"
             style="fill:#1e1c1c;fill-opacity:1;fill-rule:nonzero;stroke:none"
             id="path426" /></g><g
           id="g428"
           transform="translate(371.4531,356.0322)"><path
             d="M 0,0 V 3.281 L 0.969,4.25 3.75,0 h 1.719 l -3.5,5.217 3.187,3.096 H 3.313 L 0,4.938 v 6.529 H -1.406 V 0 Z"
             style="fill:#1e1c1c;fill-opacity:1;fill-rule:nonzero;stroke:none"
             id="path430" /></g><path
           d="m 376.734,353.845 h 9.312 v -1 h -9.312 z"
           style="fill:#1e1c1c;fill-opacity:1;fill-rule:nonzero;stroke:none"
           id="path432" /><g
           id="g434"
           transform="translate(388.2891,357.374)"><path
             d="M 0,0 C 0.156,0.25 0.375,0.5 0.625,0.781 0.844,1 1.406,1.5 2.219,2.221 c 1.031,0.843 1.75,1.5 2.187,2 0.438,0.5 0.75,0.968 0.938,1.404 0.187,0.439 0.281,0.875 0.281,1.346 0,0.904 -0.312,1.654 -0.969,2.279 -0.625,0.596 -1.5,0.908 -2.593,0.908 -1.094,0 -1.969,-0.283 -2.625,-0.844 -0.657,-0.564 -1,-1.406 -1.094,-2.468 l 1.437,-0.125 c 0,0.718 0.188,1.25 0.625,1.654 C 0.781,8.781 1.344,9 2.031,9 2.656,9 3.188,8.814 3.594,8.408 4,8.031 4.188,7.564 4.188,7 4.188,6.471 3.969,5.908 3.531,5.314 3.094,4.721 2.219,3.908 1,2.875 0.188,2.25 -0.406,1.658 -0.844,1.158 -1.281,0.658 -1.562,0.158 -1.781,-0.375 -1.906,-0.654 -1.969,-1 -1.937,-1.342 H 5.656 V 0 Z"
             style="fill:#1e1c1c;fill-opacity:1;fill-rule:nonzero;stroke:none"
             id="path436" /></g><g
           id="g438"
           transform="translate(396.5859,356.749)"><path
             d="m 0,0 c 0.656,-0.594 1.5,-0.904 2.5,-0.904 1.125,0 2.031,0.343 2.781,1.029 C 6,0.846 6.375,1.689 6.375,2.689 6.375,3.439 6.156,4.033 5.813,4.533 5.438,5.033 4.906,5.346 4.219,5.5 4.75,5.75 5.125,6.064 5.406,6.471 5.688,6.875 5.813,7.346 5.813,7.814 5.813,8.346 5.656,8.846 5.375,9.283 5.094,9.75 4.688,10.125 4.156,10.375 3.656,10.656 3.094,10.783 2.438,10.783 1.563,10.783 0.781,10.533 0.156,10 -0.438,9.5 -0.813,8.75 -1,7.814 l 1.406,-0.25 c 0.125,0.686 0.344,1.219 0.719,1.561 0.344,0.346 0.813,0.5 1.375,0.5 0.531,0 0.969,-0.154 1.344,-0.5 0.344,-0.342 0.531,-0.75 0.531,-1.279 0,-0.657 -0.25,-1.125 -0.719,-1.44 -0.5,-0.31 -1.031,-0.467 -1.625,-0.467 -0.062,0 -0.156,0 -0.25,0.032 L 1.656,4.721 C 2.031,4.846 2.375,4.875 2.625,4.875 3.281,4.875 3.813,4.689 4.25,4.25 4.656,3.814 4.875,3.314 4.875,2.656 4.875,1.971 4.656,1.406 4.188,0.939 3.75,0.471 3.188,0.25 2.5,0.25 1.938,0.25 1.469,0.439 1.094,0.783 0.688,1.125 0.438,1.721 0.281,2.5 L -1.125,2.314 C -1.031,1.375 -0.656,0.596 0,0"
             style="fill:#1e1c1c;fill-opacity:1;fill-rule:nonzero;stroke:none"
             id="path440" /></g><path
           d="m 405.141,357.624 h 1.595 v -1.594 h -1.595 z"
           style="fill:#1e1c1c;fill-opacity:1;fill-rule:nonzero;stroke:none"
           id="path442" /><g
           id="g444"
           transform="translate(410.7188,362.5635)"><path
             d="M 0,0 C 0.438,0.531 0.938,0.781 1.594,0.781 2.22,0.781 2.75,0.5 3.188,-0.031 3.625,-0.564 3.844,-1.375 3.844,-2.5 c 0,-1.031 -0.188,-1.814 -0.624,-2.314 -0.439,-0.5 -0.97,-0.75 -1.595,-0.75 -0.594,0 -1.125,0.25 -1.594,0.783 -0.437,0.531 -0.656,1.342 -0.656,2.406 C -0.625,-1.314 -0.406,-0.5 0,0 M 5.125,-6.531 V 4.936 H 3.72 V 0.781 C 3.5,1.156 3.156,1.406 2.781,1.625 2.375,1.842 1.938,1.936 1.438,1.936 0.75,1.936 0.156,1.781 -0.406,1.406 -0.969,1.061 -1.375,0.531 -1.656,-0.125 c -0.25,-0.689 -0.407,-1.439 -0.407,-2.25 0,-0.875 0.157,-1.625 0.469,-2.283 0.281,-0.623 0.719,-1.123 1.281,-1.5 0.563,-0.373 1.157,-0.561 1.813,-0.561 1.031,0 1.781,0.438 2.313,1.25 v -1.062 z"
             style="fill:#1e1c1c;fill-opacity:1;fill-rule:nonzero;stroke:none"
             id="path446" /></g><g
           id="g448"
           transform="translate(423.3906,359.6885)"><path
             d="m 0,0 c 0,-0.625 -0.094,-1.094 -0.25,-1.406 -0.188,-0.408 -0.5,-0.719 -0.938,-0.969 -0.406,-0.25 -0.875,-0.344 -1.437,-0.344 -0.563,0 -0.969,0.125 -1.25,0.344 -0.281,0.281 -0.406,0.561 -0.406,0.969 0,0.217 0.062,0.467 0.187,0.656 0.125,0.186 0.313,0.344 0.563,0.467 0.218,0.094 0.656,0.189 1.218,0.25 C -1.281,0.125 -0.531,0.281 0,0.5 Z M 0.375,-3.656 H 1.844 C 1.688,-3.344 1.563,-3 1.5,-2.656 1.438,-2.314 1.406,-1.469 1.406,-0.189 v 1.875 c 0,0.625 0,1.064 -0.062,1.281 -0.094,0.408 -0.219,0.719 -0.438,0.969 -0.218,0.25 -0.531,0.47 -0.969,0.625 -0.468,0.189 -1.031,0.25 -1.75,0.25 -0.718,0 -1.343,-0.094 -1.875,-0.28 -0.531,-0.22 -0.968,-0.47 -1.25,-0.845 -0.281,-0.342 -0.5,-0.842 -0.625,-1.436 l 1.375,-0.189 c 0.157,0.595 0.375,1.033 0.719,1.25 0.313,0.22 0.781,0.345 1.469,0.345 0.687,0 1.25,-0.156 1.594,-0.47 C -0.125,2.936 0,2.561 0,1.967 V 1.594 C -0.563,1.406 -1.375,1.25 -2.531,1.125 -3.094,1.061 -3.5,0.967 -3.781,0.906 c -0.375,-0.095 -0.719,-0.25 -1,-0.439 -0.313,-0.217 -0.563,-0.5 -0.75,-0.842 -0.157,-0.314 -0.282,-0.689 -0.282,-1.094 0,-0.687 0.25,-1.25 0.75,-1.687 0.5,-0.438 1.188,-0.688 2.125,-0.688 0.532,0 1.063,0.094 1.532,0.28 0.5,0.189 0.968,0.5 1.5,0.939 0.062,-0.408 0.125,-0.719 0.281,-1.031"
             style="fill:#1e1c1c;fill-opacity:1;fill-rule:nonzero;stroke:none"
             id="path450" /></g><g
           id="g452"
           transform="translate(429.4141,357.2197)"><path
             d="M 0,0 C -0.219,0 -0.375,0.029 -0.469,0.094 -0.594,0.186 -0.656,0.279 -0.719,0.404 -0.75,0.5 -0.781,0.75 -0.781,1.154 V 6.029 H 0.625 V 7.125 H -0.781 V 10 L -2.219,9.154 V 7.125 H -3.25 V 6.029 h 1.031 V 1.25 c 0,-0.846 0.094,-1.406 0.188,-1.656 0.125,-0.282 0.312,-0.5 0.594,-0.658 0.281,-0.157 0.687,-0.25 1.187,-0.25 0.313,0 0.656,0.064 1.063,0.158 L 0.625,0.063 C 0.344,0.029 0.156,0 0,0"
             style="fill:#1e1c1c;fill-opacity:1;fill-rule:nonzero;stroke:none"
             id="path454" /></g><g
           id="g456"
           transform="translate(332.0391,373.3057)"><path
             d="M 0,0 V -24.875 H -20.922 V 5.172 h 16.719 c 0,0 1.055,-0.117 2.578,-1.742 C 0,1.693 0,0 0,0"
             style="fill:#f3eef8;fill-opacity:1;fill-rule:nonzero;stroke:none"
             id="path458" /></g><g
           id="g460"
           transform="translate(327.8359,378.4775)"><path
             d="m 0,0 v -3.727 c 0,0 2.211,0.047 3.142,0 C 3.875,-3.766 4.086,-4.43 4.086,-4.43 M 4.203,-5.172 V -30.047 H -16.719 V 0 H 0 c 0,0 1.055,-0.119 2.578,-1.744 1.625,-1.733 1.625,-3.428 1.625,-3.428 z"
             style="fill:none;stroke:#1e1c1c;stroke-width:0.8;stroke-linecap:butt;stroke-linejoin:miter;stroke-miterlimit:4;stroke-dasharray:none;stroke-opacity:1"
             id="path462" /></g><path
           d="m 314.969,373.038 h 12.867 v -1.633 h -12.867 z"
           style="fill:#a678c2;fill-opacity:1;fill-rule:nonzero;stroke:none"
           id="path464" /><path
           d="m 314.969,369.288 h 12.867 v -1.633 h -12.867 z"
           style="fill:#a678c2;fill-opacity:1;fill-rule:nonzero;stroke:none"
           id="path466" /><path
           d="m 314.969,365.546 h 12.867 v -1.633 h -12.867 z"
           style="fill:#a678c2;fill-opacity:1;fill-rule:nonzero;stroke:none"
           id="path468" /><path
           d="m 314.969,361.796 h 12.867 v -1.633 h -12.867 z"
           style="fill:#a678c2;fill-opacity:1;fill-rule:nonzero;stroke:none"
           id="path470" /><path
           d="m 314.969,358.046 h 12.867 v -1.633 h -12.867 z"
           style="fill:#a678c2;fill-opacity:1;fill-rule:nonzero;stroke:none"
           id="path472" /><path
           d="m 314.969,354.306 h 12.867 v -1.635 h -12.867 z"
           style="fill:#a678c2;fill-opacity:1;fill-rule:nonzero;stroke:none"
           id="path474" /><g
           id="g476"
           transform="translate(332.0391,415.1885)"><path
             d="M 0,0 V -24.883 H -20.922 V 5.171 h 16.719 c 0,0 1.055,-0.125 2.578,-1.743 C 0,1.695 0,0 0,0"
             style="fill:#f3eef8;fill-opacity:1;fill-rule:nonzero;stroke:none"
             id="path478" /></g><g
           id="g480"
           transform="translate(327.8359,420.3589)"><path
             d="m 0,0 v -3.733 c 0,0 2.211,0.047 3.142,0 0.733,-0.039 0.944,-0.695 0.944,-0.695 M 4.203,-5.17 V -30.053 H -16.719 V 0 H 0 C 0,0 1.055,-0.125 2.578,-1.743 4.203,-3.475 4.203,-5.17 4.203,-5.17 Z"
             style="fill:none;stroke:#1e1c1c;stroke-width:0.8;stroke-linecap:butt;stroke-linejoin:miter;stroke-miterlimit:4;stroke-dasharray:none;stroke-opacity:1"
             id="path482" /></g><path
           d="m 314.969,414.913 h 12.867 v -1.633 h -12.867 z"
           style="fill:#a678c2;fill-opacity:1;fill-rule:nonzero;stroke:none"
           id="path484" /><path
           d="m 314.969,411.171 h 12.867 v -1.633 h -12.867 z"
           style="fill:#a678c2;fill-opacity:1;fill-rule:nonzero;stroke:none"
           id="path486" /><path
           d="m 314.969,407.421 h 12.867 v -1.633 h -12.867 z"
           style="fill:#a678c2;fill-opacity:1;fill-rule:nonzero;stroke:none"
           id="path488" /><path
           d="m 314.969,403.671 h 12.867 v -1.633 h -12.867 z"
           style="fill:#a678c2;fill-opacity:1;fill-rule:nonzero;stroke:none"
           id="path490" /><path
           d="m 314.969,399.931 h 12.867 v -1.635 h -12.867 z"
           style="fill:#a678c2;fill-opacity:1;fill-rule:nonzero;stroke:none"
           id="path492" /><path
           d="m 314.969,396.181 h 12.867 v -1.635 h -12.867 z"
           style="fill:#a678c2;fill-opacity:1;fill-rule:nonzero;stroke:none"
           id="path494" /></g></g><g
       id="g496"><g
         id="g498"
         clip-path="url(#clipPath502)"><path
           d="m 302.438,527.5 h 141.25 V 335.983 h -141.25 z"
           style="fill:none;stroke:#1e1c1c;stroke-width:1;stroke-linecap:butt;stroke-linejoin:miter;stroke-miterlimit:10;stroke-dasharray:none;stroke-opacity:1"
           id="path504" /></g></g><g
       id="g506"><g
         id="g508"
         clip-path="url(#clipPath512)"><g
           id="g514"
           transform="translate(152.9692,419.9849)"><path
             d="M 0,0 V 7.593 L 2.281,3.25 H 2.75 L 5.062,7.718 V 0 H 7.719 V 12.281 H 5.156 L 2.5,7.343 -0.157,12.281 H -2.688 V 0 Z"
             style="fill:#1e1c1c;fill-opacity:1;fill-rule:nonzero;stroke:none"
             id="path516" /></g><g
           id="g518"
           transform="translate(166.9531,420.0469)"><path
             d="m 0,0 c 0.219,-0.156 0.5,-0.25 0.813,-0.25 0.25,0 0.562,0.063 0.843,0.188 0.313,0.125 0.688,0.312 1.063,0.625 V 2.125 C 2.563,2 2.438,1.938 2.344,1.906 2.219,1.844 2.125,1.813 2.094,1.813 2,1.813 1.938,1.844 1.906,1.906 1.875,1.938 1.844,2 1.844,2.125 V 5.75 C 1.844,6.719 1.625,7.375 1.188,7.813 0.75,8.25 0.031,8.438 -0.937,8.438 -1.531,8.438 -2.125,8.375 -2.625,8.156 -3.156,7.969 -3.687,7.688 -4.187,7.313 V 5.406 c 0.437,0.407 0.875,0.719 1.343,0.907 0.469,0.187 0.938,0.312 1.407,0.312 0.312,0 0.531,-0.062 0.687,-0.156 0.125,-0.125 0.188,-0.281 0.188,-0.5 V 5.281 C -2.094,4.813 -3.156,4.281 -3.812,3.75 -4.437,3.219 -4.75,2.594 -4.75,1.844 c 0,-0.625 0.188,-1.125 0.563,-1.531 0.375,-0.375 0.875,-0.563 1.5,-0.563 0.375,0 0.75,0.094 1.093,0.25 0.344,0.156 0.75,0.469 1.157,0.844 C -0.312,0.469 -0.187,0.188 0,0 M -1.125,1.719 C -1.312,1.625 -1.5,1.594 -1.687,1.594 c -0.25,0 -0.438,0.062 -0.563,0.187 -0.125,0.157 -0.187,0.344 -0.187,0.625 0,0.344 0.156,0.657 0.468,0.907 0.282,0.25 0.75,0.5 1.407,0.718 v -2 C -0.75,1.906 -0.937,1.781 -1.125,1.719"
             style="fill:#1e1c1c;fill-opacity:1;fill-rule:nonzero;stroke:none"
             id="path520" /></g><g
           id="g522"
           transform="translate(173.1479,419.9849)"><path
             d="M 0,0 V 4.093 L 2.5,0 H 5.219 L 2.532,4.312 4.875,8.343 H 2.313 L 0,4.375 v 7.906 H -2.406 V 0 Z"
             style="fill:#1e1c1c;fill-opacity:1;fill-rule:nonzero;stroke:none"
             id="path524" /></g><g
           id="g526"
           transform="translate(184.1802,421.7349)"><path
             d="m 0,0 c -0.344,-0.063 -0.657,-0.125 -0.938,-0.125 -0.656,0 -1.125,0.187 -1.469,0.562 -0.343,0.344 -0.5,0.875 -0.5,1.563 v 0.093 h 4.344 v 0.25 0.188 C 1.437,3.843 1.156,4.875 0.593,5.625 0,6.375 -0.813,6.75 -1.813,6.75 c -1.125,0 -2.031,-0.407 -2.656,-1.219 -0.688,-0.781 -1,-1.875 -1,-3.25 0,-1.344 0.344,-2.375 1,-3.094 0.687,-0.75 1.656,-1.095 2.875,-1.095 0.437,0 0.875,0.064 1.344,0.189 0.468,0.125 0.968,0.344 1.437,0.594 V 0.468 C 0.718,0.25 0.312,0.093 0,0 m -2.907,3.468 c 0,0.563 0.094,1 0.25,1.25 0.188,0.313 0.438,0.438 0.75,0.438 0.344,0 0.625,-0.125 0.782,-0.438 C -0.969,4.437 -0.875,4 -0.875,3.375 V 3.281 h -2.032 z"
             style="fill:#1e1c1c;fill-opacity:1;fill-rule:nonzero;stroke:none"
             id="path528" /></g><g
           id="g530"
           transform="translate(194.0781,419.9849)"><path
             d="M 0,0 V 5.312 C 0.219,5.75 0.438,6.093 0.656,6.281 0.875,6.468 1.156,6.593 1.406,6.593 1.75,6.593 2,6.468 2.156,6.218 2.313,5.968 2.375,5.531 2.375,4.906 V 0 H 4.813 V 5.281 C 4.813,6.312 4.594,7.125 4.188,7.656 3.781,8.218 3.188,8.5 2.406,8.5 1.906,8.5 1.469,8.406 1.125,8.218 0.75,8.031 0.375,7.718 0.031,7.281 L -0.031,8.343 H -2.406 V 0 Z"
             style="fill:#1e1c1c;fill-opacity:1;fill-rule:nonzero;stroke:none"
             id="path532" /></g><g
           id="g534"
           transform="translate(205.6719,421.7349)"><path
             d="m 0,0 c -0.344,-0.063 -0.656,-0.125 -0.938,-0.125 -0.656,0 -1.125,0.187 -1.468,0.562 -0.344,0.344 -0.5,0.875 -0.5,1.563 v 0.093 h 4.343 v 0.25 0.188 C 1.437,3.843 1.156,4.875 0.594,5.625 0,6.375 -0.813,6.75 -1.813,6.75 c -1.125,0 -2.031,-0.407 -2.656,-1.219 -0.687,-0.781 -1,-1.875 -1,-3.25 0,-1.344 0.344,-2.375 1,-3.094 0.688,-0.75 1.656,-1.095 2.875,-1.095 0.438,0 0.875,0.064 1.344,0.189 0.469,0.125 0.969,0.344 1.437,0.594 V 0.468 C 0.719,0.25 0.312,0.093 0,0 m -2.906,3.468 c 0,0.563 0.093,1 0.25,1.25 0.187,0.313 0.437,0.438 0.75,0.438 0.343,0 0.625,-0.125 0.781,-0.438 C -0.969,4.437 -0.875,4 -0.875,3.375 V 3.281 h -2.031 z"
             style="fill:#1e1c1c;fill-opacity:1;fill-rule:nonzero;stroke:none"
             id="path536" /></g><g
           id="g538"
           transform="translate(211.6479,419.8271)"><path
             d="M 0,0 1.407,4.033 C 1.469,4.22 1.532,4.375 1.563,4.595 1.625,4.783 1.657,5.033 1.719,5.283 1.75,5.033 1.782,4.783 1.844,4.563 1.875,4.375 1.938,4.158 2,4 L 3.313,0 H 4.594 L 7.625,8.5 H 5.219 L 4.313,5.438 4.282,5.408 C 4.125,4.813 4,4.345 3.938,4 3.875,4.283 3.813,4.563 3.75,4.813 3.657,5.063 3.594,5.283 3.532,5.47 L 2.5,8.5 H 0.875 L -0.218,5.283 C -0.281,5.095 -0.343,4.875 -0.406,4.688 -0.468,4.47 -0.5,4.25 -0.531,4 c 0,0.095 -0.031,0.22 -0.062,0.345 -0.094,0.5 -0.157,0.843 -0.219,1 L -1.75,8.5 H -4.156 L -1.25,0 Z"
             style="fill:#1e1c1c;fill-opacity:1;fill-rule:nonzero;stroke:none"
             id="path540" /></g><g
           id="g542"
           transform="translate(153.5942,400.8271)"><path
             d="M 0,0 3.187,8.5 H 0.844 L -0.219,5.439 C -0.313,5.219 -0.375,5 -0.438,4.75 -0.5,4.5 -0.563,4.25 -0.594,4 -0.656,4.283 -0.719,4.594 -0.782,4.814 -0.875,5.064 -0.906,5.283 -1,5.469 L -2,8.5 H -4.594 L -1.282,0 Z"
             style="fill:#1e1c1c;fill-opacity:1;fill-rule:nonzero;stroke:none"
             id="path544" /></g><g
           id="g546"
           transform="translate(162.5781,402.7354)"><path
             d="m 0,0 c -0.344,-0.064 -0.656,-0.125 -0.937,-0.125 -0.657,0 -1.125,0.186 -1.469,0.561 -0.344,0.345 -0.5,0.875 -0.5,1.564 v 0.092 h 4.344 v 0.25 0.189 C 1.438,3.842 1.156,4.875 0.594,5.625 0,6.375 -0.812,6.75 -1.812,6.75 c -1.125,0 -2.032,-0.408 -2.657,-1.219 -0.687,-0.781 -1,-1.875 -1,-3.25 0,-1.345 0.344,-2.375 1,-3.095 0.688,-0.75 1.657,-1.094 2.875,-1.094 0.438,0 0.875,0.064 1.344,0.189 0.469,0.125 0.969,0.344 1.438,0.594 V 0.467 C 0.719,0.25 0.313,0.092 0,0 m -2.906,3.467 c 0,0.564 0.094,1 0.25,1.25 0.187,0.314 0.437,0.439 0.75,0.439 0.344,0 0.625,-0.125 0.781,-0.439 C -0.969,4.436 -0.875,4 -0.875,3.375 V 3.281 h -2.031 z"
             style="fill:#1e1c1c;fill-opacity:1;fill-rule:nonzero;stroke:none"
             id="path548" /></g><g
           id="g550"
           transform="translate(167.938,400.9854)"><path
             d="M 0,0 V 1.342 C 0,2.781 0.156,3.936 0.531,4.811 0.906,5.656 1.374,6.092 1.968,6.092 2.124,6.092 2.281,6.061 2.468,6 2.624,5.936 2.781,5.842 2.937,5.717 L 3.5,7.967 C 3.281,8.125 3,8.25 2.781,8.342 2.531,8.436 2.281,8.467 2.031,8.467 1.624,8.467 1.218,8.25 0.874,7.75 0.5,7.281 0.156,6.531 -0.126,5.561 V 8.342 H -2.469 V 0 Z"
             style="fill:#1e1c1c;fill-opacity:1;fill-rule:nonzero;stroke:none"
             id="path552" /></g><g
           id="g554"
           transform="translate(173.312,401.0166)"><path
             d="m 0,0 c 0.438,-0.125 0.844,-0.189 1.25,-0.189 1,0 1.782,0.218 2.344,0.689 C 4.157,1 4.407,1.654 4.407,2.529 4.407,3.125 4.25,3.594 3.969,4 3.626,4.375 3.063,4.779 2.25,5.154 2.126,5.219 1.938,5.279 1.719,5.375 1.032,5.686 0.688,5.969 0.688,6.279 0.688,6.469 0.75,6.594 0.907,6.686 1.032,6.779 1.25,6.811 1.532,6.811 1.907,6.811 2.313,6.75 2.75,6.594 3.188,6.436 3.657,6.219 4.126,5.936 v 1.783 c -0.438,0.25 -0.907,0.435 -1.344,0.56 -0.438,0.125 -0.875,0.19 -1.344,0.19 -0.812,0 -1.469,-0.25 -2,-0.719 -0.531,-0.5 -0.781,-1.096 -0.781,-1.846 0,-0.593 0.125,-1.06 0.437,-1.468 C -0.593,4.061 0.157,3.625 1.344,3.094 1.657,2.904 1.876,2.779 2,2.686 2.094,2.594 2.126,2.436 2.126,2.279 2.126,2.061 2.063,1.904 1.907,1.779 1.75,1.686 1.532,1.625 1.25,1.625 0.907,1.625 0.5,1.686 0.094,1.811 -0.312,1.969 -0.75,2.186 -1.281,2.5 v -2 C -0.843,0.279 -0.406,0.094 0,0"
             style="fill:#1e1c1c;fill-opacity:1;fill-rule:nonzero;stroke:none"
             id="path556" /></g><path
           d="m 181.688,409.327 h -2.438 v -8.342 h 2.438 z m -2.219,1.69 c 0.281,-0.25 0.625,-0.407 1,-0.407 0.406,0 0.75,0.157 1,0.407 0.281,0.279 0.406,0.593 0.406,1 0,0.404 -0.125,0.75 -0.406,1 -0.25,0.279 -0.594,0.435 -1,0.435 -0.407,0 -0.719,-0.156 -1,-0.435 -0.25,-0.282 -0.407,-0.596 -0.407,-1 0,-0.407 0.157,-0.721 0.407,-1"
           style="fill:#1e1c1c;fill-opacity:1;fill-rule:nonzero;stroke:none"
           id="path558" /><g
           id="g560"
           transform="translate(185.9302,407.0166)"><path
             d="M 0,0 C 0.218,0.436 0.562,0.654 1.031,0.654 1.468,0.654 1.843,0.436 2.062,0 2.312,-0.439 2.437,-1.031 2.437,-1.875 2.437,-2.689 2.312,-3.314 2.062,-3.721 1.843,-4.156 1.5,-4.375 1.031,-4.375 0.562,-4.375 0.218,-4.156 0,-3.75 c -0.25,0.436 -0.375,1.061 -0.375,1.875 0,0.844 0.125,1.436 0.375,1.875 m -1.813,-5.031 c 0.688,-0.783 1.625,-1.158 2.844,-1.158 1.187,0 2.156,0.375 2.844,1.158 0.687,0.75 1.031,1.81 1.031,3.156 0,1.344 -0.344,2.404 -1.031,3.186 -0.719,0.783 -1.657,1.158 -2.844,1.158 -1.188,0 -2.156,-0.375 -2.844,-1.158 -0.719,-0.782 -1.062,-1.842 -1.062,-3.186 0,-1.346 0.343,-2.406 1.062,-3.156"
             style="fill:#1e1c1c;fill-opacity:1;fill-rule:nonzero;stroke:none"
             id="path562" /></g><g
           id="g564"
           transform="translate(194.6172,400.9854)"><path
             d="m 0,0 v 5.311 c 0.219,0.439 0.438,0.781 0.656,0.97 0.219,0.186 0.5,0.311 0.75,0.311 C 1.75,6.592 2,6.467 2.156,6.217 2.313,5.967 2.375,5.531 2.375,4.906 V 0 h 2.438 v 5.281 c 0,1.03 -0.219,1.844 -0.625,2.375 C 3.781,8.217 3.188,8.5 2.406,8.5 1.906,8.5 1.469,8.406 1.125,8.217 0.75,8.031 0.375,7.717 0.031,7.281 L -0.031,8.342 H -2.406 V 0 Z"
             style="fill:#1e1c1c;fill-opacity:1;fill-rule:nonzero;stroke:none"
             id="path566" /></g><g
           id="g568"
           transform="translate(202.2422,401.0166)"><path
             d="m 0,0 c 0.438,-0.125 0.844,-0.189 1.25,-0.189 1,0 1.781,0.218 2.344,0.689 C 4.156,1 4.406,1.654 4.406,2.529 4.406,3.125 4.25,3.594 3.969,4 3.625,4.375 3.063,4.779 2.25,5.154 2.125,5.219 1.938,5.279 1.719,5.375 1.031,5.686 0.688,5.969 0.688,6.279 0.688,6.469 0.75,6.594 0.906,6.686 1.031,6.779 1.25,6.811 1.531,6.811 1.906,6.811 2.313,6.75 2.75,6.594 3.188,6.436 3.656,6.219 4.125,5.936 v 1.783 c -0.437,0.25 -0.906,0.435 -1.344,0.56 -0.437,0.125 -0.875,0.19 -1.343,0.19 -0.813,0 -1.469,-0.25 -2,-0.719 -0.532,-0.5 -0.782,-1.096 -0.782,-1.846 0,-0.593 0.125,-1.06 0.438,-1.468 C -0.594,4.061 0.156,3.625 1.344,3.094 1.656,2.904 1.875,2.779 2,2.686 2.094,2.594 2.125,2.436 2.125,2.279 2.125,2.061 2.063,1.904 1.906,1.779 1.75,1.686 1.531,1.625 1.25,1.625 0.906,1.625 0.5,1.686 0.094,1.811 -0.312,1.969 -0.75,2.186 -1.281,2.5 v -2 C -0.844,0.279 -0.406,0.094 0,0"
             style="fill:#1e1c1c;fill-opacity:1;fill-rule:nonzero;stroke:none"
             id="path570" /></g><g
           id="g572"
           transform="translate(215.1953,407.0166)"><path
             d="M 0,0 C 0.219,0.436 0.563,0.654 1.032,0.654 1.469,0.654 1.844,0.436 2.063,0 2.313,-0.439 2.438,-1.031 2.438,-1.875 2.438,-2.689 2.313,-3.314 2.063,-3.721 1.844,-4.156 1.5,-4.375 1.032,-4.375 0.563,-4.375 0.219,-4.156 0,-3.75 c -0.25,0.436 -0.375,1.061 -0.375,1.875 0,0.844 0.125,1.436 0.375,1.875 m -1.812,-5.031 c 0.687,-0.783 1.625,-1.158 2.844,-1.158 1.187,0 2.156,0.375 2.843,1.158 0.688,0.75 1.032,1.81 1.032,3.156 0,1.344 -0.344,2.404 -1.032,3.186 -0.718,0.783 -1.656,1.158 -2.843,1.158 -1.188,0 -2.157,-0.375 -2.844,-1.158 -0.719,-0.782 -1.063,-1.842 -1.063,-3.186 0,-1.346 0.344,-2.406 1.063,-3.156"
             style="fill:#1e1c1c;fill-opacity:1;fill-rule:nonzero;stroke:none"
             id="path574" /></g><g
           id="g576"
           transform="translate(224.0161,400.9854)"><path
             d="M 0,0 V 6.781 H 0.968 V 8.342 H 0 V 8.967 C 0,9.531 0.093,9.906 0.312,10.156 0.5,10.375 0.843,10.5 1.25,10.5 c 0.093,0 0.218,0 0.406,-0.033 0.062,0 0.125,-0.031 0.156,-0.031 v 1.845 c -0.125,0.03 -0.281,0.061 -0.437,0.094 -0.157,0 -0.313,0.031 -0.5,0.031 -1.063,0 -1.907,-0.314 -2.469,-0.939 C -2.157,10.842 -2.438,9.936 -2.438,8.75 V 8.561 8.342 H -3.25 V 6.781 h 0.812 V 0 Z"
             style="fill:#1e1c1c;fill-opacity:1;fill-rule:nonzero;stroke:none"
             id="path578" /></g><g
           id="g580"
           transform="translate(149.188,389.1104)"><path
             d="m 0,0 v -0.344 h 1.124 v -4.22 c 0,-0.936 0.188,-1.594 0.594,-2.061 0.375,-0.439 0.969,-0.658 1.782,-0.658 0.374,0 0.781,0.064 1.156,0.189 0.375,0.094 0.75,0.28 1.156,0.53 v 1.875 C 5.468,-4.875 5.156,-5 4.968,-5.064 4.75,-5.158 4.593,-5.189 4.437,-5.189 c -0.313,0 -0.531,0.095 -0.687,0.281 -0.126,0.189 -0.219,0.469 -0.219,0.844 v 3.72 H 5.75 V 1.217 H 3.531 V 3.781 H 3.156 Z"
             style="fill:#1e1c1c;fill-opacity:1;fill-rule:nonzero;stroke:none"
             id="path582" /></g><g
           id="g584"
           transform="translate(158.5229,381.9854)"><path
             d="M 0,0 V 5.311 C 0.219,5.75 0.438,6.092 0.657,6.281 0.875,6.467 1.125,6.592 1.407,6.592 1.75,6.592 2,6.467 2.157,6.217 2.313,5.936 2.375,5.5 2.375,4.906 V 0 h 2.407 v 5.281 c 0,1.03 -0.188,1.844 -0.594,2.375 C 3.782,8.217 3.188,8.5 2.407,8.5 1.907,8.5 1.469,8.406 1.094,8.217 0.75,8.031 0.375,7.717 0,7.281 v 5 H -2.437 V 0 Z"
             style="fill:#1e1c1c;fill-opacity:1;fill-rule:nonzero;stroke:none"
             id="path586" /></g><g
           id="g588"
           transform="translate(170.1021,383.7354)"><path
             d="m 0,0 c -0.344,-0.064 -0.657,-0.125 -0.938,-0.125 -0.656,0 -1.125,0.186 -1.469,0.561 -0.343,0.345 -0.5,0.875 -0.5,1.564 v 0.092 h 4.344 v 0.25 0.189 C 1.437,3.842 1.156,4.875 0.593,5.625 0,6.375 -0.813,6.75 -1.813,6.75 c -1.125,0 -2.031,-0.408 -2.656,-1.219 -0.688,-0.781 -1,-1.875 -1,-3.25 0,-1.345 0.344,-2.375 1,-3.095 0.687,-0.75 1.656,-1.094 2.875,-1.094 0.437,0 0.875,0.064 1.344,0.189 0.468,0.125 0.968,0.344 1.437,0.594 V 0.467 C 0.718,0.25 0.312,0.092 0,0 m -2.907,3.467 c 0,0.564 0.094,1 0.25,1.25 0.188,0.314 0.438,0.439 0.75,0.439 0.344,0 0.625,-0.125 0.782,-0.439 C -0.969,4.436 -0.875,4 -0.875,3.375 V 3.281 h -2.032 z"
             style="fill:#1e1c1c;fill-opacity:1;fill-rule:nonzero;stroke:none"
             id="path590" /></g><g
           id="g592"
           transform="translate(174.0552,382.0166)"><path
             d="m 0,0 c 0.437,-0.125 0.843,-0.189 1.25,-0.189 1,0 1.781,0.218 2.343,0.689 C 4.156,1 4.406,1.654 4.406,2.529 4.406,3.125 4.25,3.594 3.968,4 3.625,4.375 3.062,4.779 2.25,5.154 2.125,5.219 1.937,5.279 1.718,5.375 1.031,5.686 0.687,5.969 0.687,6.279 0.687,6.469 0.75,6.594 0.906,6.686 1.031,6.779 1.25,6.811 1.531,6.811 1.906,6.811 2.312,6.75 2.75,6.594 3.187,6.436 3.656,6.219 4.125,5.936 v 1.783 c -0.438,0.25 -0.907,0.435 -1.344,0.56 -0.438,0.125 -0.875,0.19 -1.344,0.19 -0.812,0 -1.469,-0.25 -2,-0.719 -0.531,-0.5 -0.781,-1.096 -0.781,-1.846 0,-0.593 0.125,-1.06 0.437,-1.468 C -0.594,4.061 0.156,3.625 1.343,3.094 1.656,2.904 1.875,2.779 2,2.686 2.093,2.594 2.125,2.436 2.125,2.279 2.125,2.061 2.062,1.904 1.906,1.779 1.75,1.686 1.531,1.625 1.25,1.625 0.906,1.625 0.5,1.686 0.093,1.811 -0.313,1.969 -0.75,2.186 -1.282,2.5 v -2 C -0.844,0.279 -0.407,0.094 0,0"
             style="fill:#1e1c1c;fill-opacity:1;fill-rule:nonzero;stroke:none"
             id="path594" /></g><g
           id="g596"
           transform="translate(185.0229,383.7354)"><path
             d="m 0,0 c -0.343,-0.064 -0.656,-0.125 -0.937,-0.125 -0.656,0 -1.125,0.186 -1.469,0.561 -0.344,0.345 -0.5,0.875 -0.5,1.564 v 0.092 h 4.344 v 0.25 0.189 C 1.438,3.842 1.157,4.875 0.594,5.625 0,6.375 -0.812,6.75 -1.812,6.75 c -1.125,0 -2.031,-0.408 -2.656,-1.219 -0.688,-0.781 -1,-1.875 -1,-3.25 0,-1.345 0.343,-2.375 1,-3.095 0.687,-0.75 1.656,-1.094 2.875,-1.094 0.437,0 0.875,0.064 1.343,0.189 0.469,0.125 0.969,0.344 1.438,0.594 V 0.467 C 0.719,0.25 0.313,0.092 0,0 m -2.906,3.467 c 0,0.564 0.094,1 0.25,1.25 0.188,0.314 0.438,0.439 0.75,0.439 0.344,0 0.625,-0.125 0.781,-0.439 C -0.968,4.436 -0.875,4 -0.875,3.375 V 3.281 h -2.031 z"
             style="fill:#1e1c1c;fill-opacity:1;fill-rule:nonzero;stroke:none"
             id="path598" /></g><g
           id="g600"
           transform="translate(194.7729,381.9854)"><path
             d="M 0,0 0.125,0.75 C 0.438,0.436 0.75,0.217 1.063,0.092 c 0.312,-0.156 0.625,-0.217 0.969,-0.217 1,0 1.781,0.406 2.437,1.186 0.625,0.781 0.938,1.814 0.938,3.095 0,1.25 -0.313,2.311 -0.938,3.125 C 3.875,8.092 3.063,8.5 2.125,8.5 1.813,8.5 1.5,8.436 1.157,8.311 0.813,8.186 0.5,8 0.188,7.75 v 4.531 H -2.25 V 0 Z M 0.782,6.342 C 0.969,6.436 1.188,6.5 1.407,6.5 1.875,6.5 2.219,6.281 2.5,5.875 2.782,5.436 2.907,4.875 2.907,4.125 2.907,3.406 2.782,2.842 2.5,2.436 2.219,2.031 1.875,1.811 1.407,1.811 1.188,1.811 0.969,1.875 0.782,1.967 0.563,2.092 0.375,2.25 0.188,2.467 V 5.936 C 0.375,6.125 0.563,6.25 0.782,6.342"
             style="fill:#1e1c1c;fill-opacity:1;fill-rule:nonzero;stroke:none"
             id="path602" /></g><path
           d="m 201.57,394.267 h 2.438 v -12.281 h -2.438 z"
           style="fill:#1e1c1c;fill-opacity:1;fill-rule:nonzero;stroke:none"
           id="path604" /><g
           id="g606"
           transform="translate(208.2661,388.0166)"><path
             d="M 0,0 C 0.218,0.436 0.562,0.654 1.031,0.654 1.468,0.654 1.843,0.436 2.062,0 2.312,-0.439 2.437,-1.031 2.437,-1.875 2.437,-2.689 2.312,-3.314 2.062,-3.721 1.843,-4.156 1.5,-4.375 1.031,-4.375 0.562,-4.375 0.218,-4.156 0,-3.75 c -0.25,0.436 -0.375,1.061 -0.375,1.875 0,0.844 0.125,1.436 0.375,1.875 m -1.813,-5.031 c 0.688,-0.783 1.625,-1.158 2.844,-1.158 1.187,0 2.156,0.375 2.844,1.158 0.687,0.75 1.031,1.81 1.031,3.156 0,1.344 -0.344,2.404 -1.031,3.186 -0.719,0.783 -1.657,1.158 -2.844,1.158 -1.188,0 -2.156,-0.375 -2.844,-1.158 -0.719,-0.782 -1.062,-1.842 -1.062,-3.186 0,-1.346 0.343,-2.406 1.062,-3.156"
             style="fill:#1e1c1c;fill-opacity:1;fill-rule:nonzero;stroke:none"
             id="path608" /></g><g
           id="g610"
           transform="translate(220.3359,384.3916)"><path
             d="m 0,0 c -0.375,-0.189 -0.688,-0.346 -0.969,-0.439 -0.281,-0.092 -0.562,-0.125 -0.812,-0.125 -0.594,0 -1.063,0.189 -1.407,0.593 -0.343,0.44 -0.5,0.971 -0.5,1.721 0,0.719 0.157,1.311 0.5,1.719 0.344,0.435 0.813,0.656 1.375,0.656 0.219,0 0.469,-0.064 0.75,-0.156 0.313,-0.065 0.594,-0.19 0.938,-0.375 v 1.967 c -0.344,0.189 -0.719,0.314 -1.063,0.408 -0.343,0.092 -0.718,0.125 -1.062,0.125 -1.188,0 -2.156,-0.375 -2.875,-1.19 -0.75,-0.779 -1.094,-1.843 -1.094,-3.154 0,-1.346 0.344,-2.375 1.094,-3.156 0.719,-0.783 1.656,-1.158 2.875,-1.158 0.375,0 0.75,0.033 1.156,0.125 0.344,0.093 0.719,0.218 1.094,0.408 z"
             style="fill:#1e1c1c;fill-opacity:1;fill-rule:nonzero;stroke:none"
             id="path612" /></g><g
           id="g614"
           transform="translate(224.125,381.9854)"><path
             d="M 0,0 V 4.092 L 2.5,0 H 5.219 L 2.531,4.311 4.875,8.342 H 2.313 L 0,4.375 v 7.906 H -2.406 V 0 Z"
             style="fill:#1e1c1c;fill-opacity:1;fill-rule:nonzero;stroke:none"
             id="path616" /></g><g
           id="g618"
           transform="translate(231.1802,382.0166)"><path
             d="m 0,0 c 0.437,-0.125 0.843,-0.189 1.25,-0.189 1,0 1.781,0.218 2.343,0.689 C 4.156,1 4.406,1.654 4.406,2.529 4.406,3.125 4.25,3.594 3.968,4 3.625,4.375 3.062,4.779 2.25,5.154 2.125,5.219 1.937,5.279 1.718,5.375 1.031,5.686 0.687,5.969 0.687,6.279 0.687,6.469 0.75,6.594 0.906,6.686 1.031,6.779 1.25,6.811 1.531,6.811 1.906,6.811 2.312,6.75 2.75,6.594 3.187,6.436 3.656,6.219 4.125,5.936 v 1.783 c -0.438,0.25 -0.907,0.435 -1.344,0.56 -0.438,0.125 -0.875,0.19 -1.344,0.19 -0.812,0 -1.469,-0.25 -2,-0.719 -0.531,-0.5 -0.781,-1.096 -0.781,-1.846 0,-0.593 0.125,-1.06 0.437,-1.468 C -0.594,4.061 0.156,3.625 1.343,3.094 1.656,2.904 1.875,2.779 2,2.686 2.093,2.594 2.125,2.436 2.125,2.279 2.125,2.061 2.062,1.904 1.906,1.779 1.75,1.686 1.531,1.625 1.25,1.625 0.906,1.625 0.5,1.686 0.093,1.811 -0.313,1.969 -0.75,2.186 -1.282,2.5 v -2 C -0.844,0.279 -0.407,0.094 0,0"
             style="fill:#1e1c1c;fill-opacity:1;fill-rule:nonzero;stroke:none"
             id="path620" /></g><g
           id="g622"
           transform="translate(237.438,382.2666)"><path
             d="m 0,0 c 0.281,-0.281 0.593,-0.439 0.968,-0.439 0.375,0 0.719,0.158 0.969,0.439 0.281,0.25 0.437,0.594 0.437,0.969 0,0.375 -0.124,0.717 -0.406,0.967 -0.281,0.283 -0.625,0.439 -1,0.439 C 0.593,2.375 0.281,2.219 0,1.936 -0.282,1.654 -0.438,1.344 -0.438,0.969 -0.438,0.594 -0.282,0.25 0,0"
             style="fill:#1e1c1c;fill-opacity:1;fill-rule:nonzero;stroke:none"
             id="path624" /></g><g
           id="g626"
           transform="translate(301.0234,363.3193)"><path
             d="M 0,0 C -28,0 -54.5,41.719 -69.335,41.719"
             style="fill:none;stroke:#1e1c1c;stroke-width:0.6;stroke-linecap:butt;stroke-linejoin:miter;stroke-miterlimit:10;stroke-dasharray:none;stroke-opacity:1"
             id="path628" /></g><g
           id="g630"
           transform="translate(299.9297,367.0381)"><path
             d="M 0,0 6.477,-3.742 0,-7.482 Z"
             style="fill:#1e1c1c;fill-opacity:1;fill-rule:nonzero;stroke:none"
             id="path632" /></g><g
           id="g634"
           transform="translate(301.0234,446.7583)"><path
             d="M 0,0 C -29,-2.11 -56,-23.438 -69.335,-41.72"
             style="fill:none;stroke:#1e1c1c;stroke-width:0.6;stroke-linecap:butt;stroke-linejoin:miter;stroke-miterlimit:10;stroke-dasharray:none;stroke-opacity:1"
             id="path636" /></g><g
           id="g638"
           transform="translate(299.6641,450.3828)"><path
             d="M 0,0 6.727,-3.258 0.539,-7.461 Z"
             style="fill:#1e1c1c;fill-opacity:1;fill-rule:nonzero;stroke:none"
             id="path640" /></g><g
           id="g642"
           transform="translate(301.0234,410.6475)"><path
             d="M 0,0 C -20,0 -52,0.336 -69.335,-5.609"
             style="fill:none;stroke:#1e1c1c;stroke-width:0.6;stroke-linecap:butt;stroke-linejoin:miter;stroke-miterlimit:10;stroke-dasharray:none;stroke-opacity:1"
             id="path644" /></g><g
           id="g646"
           transform="translate(299.9297,414.3662)"><path
             d="M 0,0 6.477,-3.734 0,-7.475 Z"
             style="fill:#1e1c1c;fill-opacity:1;fill-rule:nonzero;stroke:none"
             id="path648" /></g></g></g></g></svg>
