<?xml version="1.0" encoding="UTF-8" standalone="no"?>
<svg
   xmlns:dc="http://purl.org/dc/elements/1.1/"
   xmlns:cc="http://creativecommons.org/ns#"
   xmlns:rdf="http://www.w3.org/1999/02/22-rdf-syntax-ns#"
   xmlns:svg="http://www.w3.org/2000/svg"
   xmlns="http://www.w3.org/2000/svg"
   xmlns:sodipodi="http://sodipodi.sourceforge.net/DTD/sodipodi-0.dtd"
   xmlns:inkscape="http://www.inkscape.org/namespaces/inkscape"
   version="1.1"
   id="svg2"
   xml:space="preserve"
   width="260.14612"
   height="358.44025"
   viewBox="0 0 260.14612 358.44024"
   sodipodi:docname="btc-sans.ai"><metadata
     id="metadata8"><rdf:RDF><cc:Work
         rdf:about=""><dc:format>image/svg+xml</dc:format><dc:type
           rdf:resource="http://purl.org/dc/dcmitype/StillImage" /></cc:Work></rdf:RDF></metadata><defs
     id="defs6"><clipPath
       clipPathUnits="userSpaceOnUse"
       id="clipPath20"><path
         d="M 0,841.89 H 595.276 V 0 H 0 Z"
         id="path18" /></clipPath></defs><sodipodi:namedview
     pagecolor="#ffffff"
     bordercolor="#666666"
     borderopacity="1"
     objecttolerance="10"
     gridtolerance="10"
     guidetolerance="10"
     inkscape:pageopacity="0"
     inkscape:pageshadow="2"
     inkscape:window-width="640"
     inkscape:window-height="480"
     id="namedview4" /><g
     id="g10"
     inkscape:groupmode="layer"
     inkscape:label="btc-sans"
     transform="matrix(1.3333333,0,0,-1.3333333,-292.98266,744.19491)"><path
       d="M 219.737,558.146 H 414.846 V 289.316 H 219.737 Z"
       style="fill:#ffffff;fill-opacity:1;fill-rule:nonzero;stroke:none"
       id="path12" /><g
       id="g14"><g
         id="g16"
         clip-path="url(#clipPath20)"><g
           id="g22"
           transform="translate(314.1563,415.6992)"><path
             d="m 0,0 c 11.908,0.596 25.852,0.045 29.924,-1.199 0.289,-0.09 0.572,-0.229 0.847,-0.41 2.038,-0.498 4.315,-1.131 6.346,-1.87 5.276,-1.917 10.072,-6.234 13.311,-11.99 3.236,-5.756 3.117,-12.109 2.756,-17.267 -0.36,-5.157 -3.955,-11.151 -6.235,-13.43 -2.277,-2.277 -7.193,-6.234 -11.031,-7.434 -1.092,-0.339 -2.467,-0.681 -3.875,-0.996 -1.191,-0.39 -2.881,-0.72 -4.914,-0.988 -0.529,-0.096 -0.994,-0.178 -1.369,-0.244 -0.199,-0.035 -0.369,-0.065 -0.514,-0.088 v 0.109 C 18.824,-56.48 9.885,-56.656 1.984,-56.352 v -0.005 H -20.318 V 0 Z m 25.246,102.399 v 40.048 H 1.984 v -40.048 h -22.302 v 40.048 H -43.58 V 102.399 H -94.419 V 74.94 h 32.375 V -56.357 h -25.42 v -0.838 l -6.955,-28.778 h 6.955 43.884 v -40.41 h 23.262 v 40.41 H 1.984 v -40.41 h 23.262 v 40.41 h 0.24 6.715 v 0.192 c 4.785,0.236 11.098,0.769 15.348,1.965 7.674,2.158 17.267,5.037 22.303,7.675 5.035,2.639 10.791,7.434 14.388,10.791 3.598,3.358 4.317,5.516 7.914,10.551 3.598,5.037 6.834,14.029 8.274,22.903 1.439,8.873 -3.358,23.261 -6.715,28.777 -3.358,5.515 -11.391,12.35 -11.391,12.35 0,0 -6.236,5.517 -15.109,8.873 -0.336,0.128 -0.676,0.257 -1.022,0.388 0.065,0.032 0.127,0.063 0.182,0.092 5.037,2.638 6.836,3.837 10.553,7.793 3.717,3.958 7.435,9.474 9.472,17.387 2.04,7.914 -0.478,20.145 -3.117,25.66 -2.638,5.516 -8.154,12.71 -8.154,12.71 0,0 -10.193,10.193 -18.346,14.03 -8.152,3.836 -10.072,4.076 -17.386,5.156 -6.752,0.996 -13.198,1.072 -14.149,1.078 z M -3.609,74.94 v 0 c 9.267,0.493 25.156,-1.308 29.484,-3.698 1.064,-0.434 2.842,-1.213 3.807,-1.938 1.439,-1.079 5.037,-4.676 6.716,-7.554 1.678,-2.877 3.598,-8.873 3.237,-14.029 C 39.277,42.566 37.957,37.889 34.24,33.453 31.508,30.191 27.672,28.419 25.834,27.71 25.758,27.663 25.684,27.619 25.605,27.577 22.131,25.681 11.393,24.479 1.984,24.255 V 24.22 h -2.4 c -0.477,-0.004 -0.945,-0.004 -1.408,0 h -18.494 v 50.72 z"
             style="fill:#050301;fill-opacity:1;fill-rule:nonzero;stroke:none"
             id="path24" /></g></g></g></g></svg>
