<?xml version="1.0" encoding="UTF-8" standalone="no"?>
<svg
   xmlns:dc="http://purl.org/dc/elements/1.1/"
   xmlns:cc="http://creativecommons.org/ns#"
   xmlns:rdf="http://www.w3.org/1999/02/22-rdf-syntax-ns#"
   xmlns:svg="http://www.w3.org/2000/svg"
   xmlns="http://www.w3.org/2000/svg"
   xmlns:sodipodi="http://sodipodi.sourceforge.net/DTD/sodipodi-0.dtd"
   xmlns:inkscape="http://www.inkscape.org/namespaces/inkscape"
   version="1.1"
   id="svg2"
   xml:space="preserve"
   width="544.14319"
   height="111.40177"
   viewBox="0 0 544.14319 111.40177"
   sodipodi:docname="11-26.ai"><metadata
     id="metadata8"><rdf:RDF><cc:Work
         rdf:about=""><dc:format>image/svg+xml</dc:format><dc:type
           rdf:resource="http://purl.org/dc/dcmitype/StillImage" /></cc:Work></rdf:RDF></metadata><defs
     id="defs6"><clipPath
       clipPathUnits="userSpaceOnUse"
       id="clipPath18"><path
         d="M 0,792 H 612 V 0 H 0 Z"
         id="path16" /></clipPath></defs><sodipodi:namedview
     pagecolor="#ffffff"
     bordercolor="#666666"
     borderopacity="1"
     objecttolerance="10"
     gridtolerance="10"
     guidetolerance="10"
     inkscape:pageopacity="0"
     inkscape:pageshadow="2"
     inkscape:window-width="640"
     inkscape:window-height="480"
     id="namedview4" /><g
     id="g10"
     inkscape:groupmode="layer"
     inkscape:label="11-26"
     transform="matrix(1.3333333,0,0,-1.3333333,-130.66344,901.83402)"><g
       id="g12"><g
         id="g14"
         clip-path="url(#clipPath18)"><g
           id="g20"
           transform="translate(165.917,595.0742)"><path
             d="m 0,0 c 0,-1.1 -0.9,-2 -2,-2 h -50.834 c -1.1,0 -2,0.9 -2,2 v 12.852 c 0,1.1 0.9,2 2,2 H -2 c 1.1,0 2,-0.9 2,-2 z"
             style="fill:#deecf5;fill-opacity:1;fill-rule:nonzero;stroke:none"
             id="path22" /></g><g
           id="g24"
           transform="translate(165.917,595.0742)"><path
             d="m 0,0 c 0,-1.1 -0.9,-2 -2,-2 h -50.834 c -1.1,0 -2,0.9 -2,2 v 12.852 c 0,1.1 0.9,2 2,2 H -2 c 1.1,0 2,-0.9 2,-2 z"
             style="fill:none;stroke:#231f20;stroke-width:0.5;stroke-linecap:butt;stroke-linejoin:round;stroke-miterlimit:14.336;stroke-dasharray:none;stroke-opacity:1"
             id="path26" /></g><text
           transform="matrix(1,0,0,-1,123.1387,598.7544)"
           style="font-variant:normal;font-weight:normal;font-stretch:normal;font-size:7px;font-family:Arial;-inkscape-font-specification:ArialMT;writing-mode:lr-tb;fill:#231f20;fill-opacity:1;fill-rule:nonzero;stroke:none"
           id="text30"><tspan
             x="0 5.0539999 9.7229996 14 15.946 21 25.669001"
             y="0"
             sodipodi:role="line"
             id="tspan28">DEFINED</tspan></text><g
           id="g32"
           transform="translate(491.418,595.0742)"><path
             d="m 0,0 c 0,-1.1 -0.9,-2 -2,-2 h -50.834 c -1.1,0 -2,0.9 -2,2 v 12.852 c 0,1.1 0.9,2 2,2 H -2 c 1.1,0 2,-0.9 2,-2 z"
             style="fill:#deecf5;fill-opacity:1;fill-rule:nonzero;stroke:none"
             id="path34" /></g><g
           id="g36"
           transform="translate(491.418,595.0742)"><path
             d="m 0,0 c 0,-1.1 -0.9,-2 -2,-2 h -50.834 c -1.1,0 -2,0.9 -2,2 v 12.852 c 0,1.1 0.9,2 2,2 H -2 c 1.1,0 2,-0.9 2,-2 z"
             style="fill:none;stroke:#231f20;stroke-width:0.5;stroke-linecap:butt;stroke-linejoin:round;stroke-miterlimit:14.336;stroke-dasharray:none;stroke-opacity:1"
             id="path38" /></g><text
           transform="matrix(1,0,0,-1,451.3599,598.7544)"
           style="font-variant:normal;font-weight:normal;font-stretch:normal;font-size:7px;font-family:Arial;-inkscape-font-specification:ArialMT;writing-mode:lr-tb;fill:#231f20;fill-opacity:1;fill-rule:nonzero;stroke:none"
           id="text42"><tspan
             x="0 4.6690001 9.7229996 14 15.946 20.615"
             y="0"
             sodipodi:role="line"
             id="tspan40">ACTIVE</tspan></text><g
           id="g44"
           transform="translate(384.917,595.0742)"><path
             d="m 0,0 c 0,-1.1 -0.9,-2 -2,-2 h -50.834 c -1.1,0 -2,0.9 -2,2 v 12.852 c 0,1.1 0.9,2 2,2 H -2 c 1.1,0 2,-0.9 2,-2 z"
             style="fill:#deecf5;fill-opacity:1;fill-rule:nonzero;stroke:none"
             id="path46" /></g><g
           id="g48"
           transform="translate(384.917,595.0742)"><path
             d="m 0,0 c 0,-1.1 -0.9,-2 -2,-2 h -50.834 c -1.1,0 -2,0.9 -2,2 v 12.852 c 0,1.1 0.9,2 2,2 H -2 c 1.1,0 2,-0.9 2,-2 z"
             style="fill:none;stroke:#231f20;stroke-width:0.5;stroke-linecap:butt;stroke-linejoin:round;stroke-miterlimit:14.336;stroke-dasharray:none;stroke-opacity:1"
             id="path50" /></g><text
           transform="matrix(1,0,0,-1,337.6606,598.7544)"
           style="font-variant:normal;font-weight:normal;font-stretch:normal;font-size:7px;font-family:Arial;-inkscape-font-specification:ArialMT;writing-mode:lr-tb;fill:#231f20;fill-opacity:1;fill-rule:nonzero;stroke:none"
           id="text54"><tspan
             x="0 3.892 9.3380003 14.392 19.061001 23.73 28.784 32.675999 34.622002"
             y="0"
             sodipodi:role="line"
             id="tspan52">LOCKED_IN</tspan></text><g
           id="g56"
           transform="translate(278.416,595.0742)"><path
             d="m 0,0 c 0,-1.1 -0.9,-2 -2,-2 h -50.834 c -1.101,0 -2,0.9 -2,2 v 12.852 c 0,1.1 0.899,2 2,2 H -2 c 1.1,0 2,-0.9 2,-2 z"
             style="fill:#deecf5;fill-opacity:1;fill-rule:nonzero;stroke:none"
             id="path58" /></g><g
           id="g60"
           transform="translate(278.416,595.0742)"><path
             d="m 0,0 c 0,-1.1 -0.9,-2 -2,-2 h -50.834 c -1.101,0 -2,0.9 -2,2 v 12.852 c 0,1.1 0.899,2 2,2 H -2 c 1.1,0 2,-0.9 2,-2 z"
             style="fill:none;stroke:#231f20;stroke-width:0.5;stroke-linecap:butt;stroke-linejoin:round;stroke-miterlimit:14.336;stroke-dasharray:none;stroke-opacity:1"
             id="path62" /></g><text
           transform="matrix(1,0,0,-1,234.9878,598.7544)"
           style="font-variant:normal;font-weight:normal;font-stretch:normal;font-size:7px;font-family:Arial;-inkscape-font-specification:ArialMT;writing-mode:lr-tb;fill:#231f20;fill-opacity:1;fill-rule:nonzero;stroke:none"
           id="text66"><tspan
             x="0 4.6690001 8.4280005 13.097 18.025 22.302 26.971001"
             y="0"
             sodipodi:role="line"
             id="tspan64">STARTED</tspan></text><g
           id="g68"
           transform="translate(218.8125,601.5742)"><path
             d="M 0,0 H -52.755"
             style="fill:none;stroke:#231f20;stroke-width:0.5;stroke-linecap:butt;stroke-linejoin:miter;stroke-miterlimit:4;stroke-dasharray:none;stroke-opacity:1"
             id="path70" /></g><g
           id="g72"
           transform="translate(220.8281,602.1797)"><path
             d="m 0,0 c -0.951,0.283 -1.57,0.546 -2.334,0.849 l 0.01,-2.902 c 0.271,0.131 1.379,0.576 2.326,0.867 1.018,0.313 1.939,0.524 2.537,0.602 C 1.939,-0.512 1.016,-0.303 0,0"
             style="fill:#231f20;fill-opacity:1;fill-rule:nonzero;stroke:none"
             id="path74" /></g><g
           id="g76"
           transform="translate(151.9102,612.3218)"><path
             d="M 0,0 C 0.624,0.772 1.102,1.244 1.672,1.836 L -1.015,2.931 C -0.997,2.63 -1.006,1.436 -1.098,0.449 -1.195,-0.61 -1.35,-1.544 -1.505,-2.126 -1.211,-1.6 -0.666,-0.824 0,0"
             style="fill:#231f20;fill-opacity:1;fill-rule:nonzero;stroke:none"
             id="path78" /></g><g
           id="g80"
           transform="translate(325.2715,601.5742)"><path
             d="M 0,0 H -46.758"
             style="fill:none;stroke:#231f20;stroke-width:0.5;stroke-linecap:butt;stroke-linejoin:miter;stroke-miterlimit:4;stroke-dasharray:none;stroke-opacity:1"
             id="path82" /></g><g
           id="g84"
           transform="translate(327.2871,602.1797)"><path
             d="m 0,0 c -0.951,0.283 -1.57,0.546 -2.334,0.849 l 0.01,-2.902 c 0.271,0.131 1.379,0.576 2.326,0.867 1.018,0.313 1.939,0.524 2.537,0.602 C 1.939,-0.512 1.016,-0.303 0,0"
             style="fill:#231f20;fill-opacity:1;fill-rule:nonzero;stroke:none"
             id="path86" /></g><g
           id="g88"
           transform="translate(431.8359,601.5742)"><path
             d="M 0,0 H -46.758"
             style="fill:none;stroke:#231f20;stroke-width:0.5;stroke-linecap:butt;stroke-linejoin:miter;stroke-miterlimit:4;stroke-dasharray:none;stroke-opacity:1"
             id="path90" /></g><g
           id="g92"
           transform="translate(433.8516,602.1797)"><path
             d="m 0,0 c -0.951,0.283 -1.57,0.546 -2.334,0.849 l 0.01,-2.902 c 0.271,0.131 1.379,0.576 2.326,0.867 1.018,0.313 1.939,0.524 2.537,0.602 C 1.939,-0.512 1.016,-0.303 0,0"
             style="fill:#231f20;fill-opacity:1;fill-rule:nonzero;stroke:none"
             id="path94" /></g><text
           transform="matrix(1,0,0,-1,166.8325,670.1309)"
           style="font-variant:normal;font-weight:bold;font-stretch:condensed;font-size:9px;font-family:'Humanst521 Cn BT';-inkscape-font-specification:Humanist521BT-BoldCondensed;writing-mode:lr-tb;fill:#231f20;fill-opacity:1;fill-rule:nonzero;stroke:none"
           id="text104"><tspan
             x="0 3.96 6.9569998 11.007 14.4 17.396999 20.979 24.938999 27.072001 30.069 32.373001 36.855 41.202 44.801998"
             y="0"
             sodipodi:role="line"
             id="tspan96">Startzeit noch</tspan><tspan
             x="0 4.4819999 6.6149998 10.215 14.706 17.702999 20.007 23.966999 27.360001 30.753 34.713001 36.846001 40.445999 44.937 47.933998"
             y="9.5039997"
             sodipodi:role="line"
             id="tspan98">nicht erreicht.</tspan><tspan
             x="280.854 286.03799 290.51999 293.91299 297.513 302.004 305.505 309.465 312.46201 316.04401 320.004 324.48599 326.79001 330.51599 334.86301"
             y="0"
             sodipodi:role="line"
             id="tspan100">Durchsetzen von</tspan><tspan
             x="280.854 284.814 288.77399 292.87799 298.58401 300.71701 303.71399 306.01801 310.74301 314.703 318.80701 322.767 324.927 329.409"
             y="9.5039997"
             sodipodi:role="line"
             id="tspan102">Segwit Regeln.</tspan></text><g
           id="g106"
           transform="translate(137.583,614.7222)"><path
             d="M 0,0 C 0,6.244 -2.798,8.744 -2.798,14.298"
             style="fill:none;stroke:#231f20;stroke-width:0.3;stroke-linecap:butt;stroke-linejoin:miter;stroke-miterlimit:10;stroke-dasharray:none;stroke-opacity:1"
             id="path108" /></g><g
           id="g110"
           transform="translate(139.4424,615.2695)"><path
             d="M 0,0 -1.87,-3.238 -3.739,0 Z"
             style="fill:#231f20;fill-opacity:1;fill-rule:nonzero;stroke:none"
             id="path112" /></g><g
           id="g114"
           transform="translate(180.3174,621.6255)"><path
             d="M 0,0 C 6.79,7.121 14.016,23.041 14.016,35.708"
             style="fill:none;stroke:#231f20;stroke-width:0.3;stroke-linecap:butt;stroke-linejoin:miter;stroke-miterlimit:10;stroke-dasharray:none;stroke-opacity:1"
             id="path116" /></g><g
           id="g118"
           transform="translate(182.0405,620.7383)"><path
             d="m 0,0 -3.587,-1.053 0.88,3.634 z"
             style="fill:#231f20;fill-opacity:1;fill-rule:nonzero;stroke:none"
             id="path120" /></g><g
           id="g122"
           transform="translate(462.9629,614.8018)"><path
             d="M 0,0 C 0,15.198 8.204,25.198 8.204,43.532"
             style="fill:none;stroke:#231f20;stroke-width:0.3;stroke-linecap:butt;stroke-linejoin:miter;stroke-miterlimit:10;stroke-dasharray:none;stroke-opacity:1"
             id="path124" /></g><g
           id="g126"
           transform="translate(464.8223,615.3486)"><path
             d="M 0,0 -1.869,-3.238 -3.739,0 Z"
             style="fill:#231f20;fill-opacity:1;fill-rule:nonzero;stroke:none"
             id="path128" /></g><g
           id="g130"
           transform="translate(152.126,614.4985)"><path
             d="m 0,0 c 1.778,4.141 7.289,7.159 13.812,7.159 7.962,0 14.416,-4.496 14.416,-10.042 0,-5.545 -6.454,-10.041 -14.416,-10.041"
             style="fill:none;stroke:#231f20;stroke-width:0.5;stroke-linecap:butt;stroke-linejoin:miter;stroke-miterlimit:4;stroke-dasharray:none;stroke-opacity:1"
             id="path132" /></g><g
           id="g134"
           transform="translate(264.4092,612.3218)"><path
             d="M 0,0 C 0.624,0.772 1.102,1.244 1.672,1.836 L -1.015,2.931 C -0.997,2.63 -1.006,1.436 -1.098,0.449 -1.195,-0.61 -1.35,-1.544 -1.505,-2.126 -1.211,-1.6 -0.666,-0.824 0,0"
             style="fill:#231f20;fill-opacity:1;fill-rule:nonzero;stroke:none"
             id="path136" /></g><g
           id="g138"
           transform="translate(264.625,614.4985)"><path
             d="m 0,0 c 1.778,4.141 7.289,7.159 13.812,7.159 7.962,0 14.416,-4.496 14.416,-10.042 0,-5.545 -6.454,-10.041 -14.416,-10.041"
             style="fill:none;stroke:#231f20;stroke-width:0.5;stroke-linecap:butt;stroke-linejoin:miter;stroke-miterlimit:4;stroke-dasharray:none;stroke-opacity:1"
             id="path140" /></g><g
           id="g142"
           transform="translate(477.4111,612.3218)"><path
             d="M 0,0 C 0.623,0.772 1.102,1.244 1.672,1.836 L -1.015,2.931 C -0.997,2.63 -1.006,1.436 -1.098,0.449 -1.195,-0.61 -1.35,-1.544 -1.506,-2.126 -1.211,-1.6 -0.666,-0.824 0,0"
             style="fill:#231f20;fill-opacity:1;fill-rule:nonzero;stroke:none"
             id="path144" /></g><g
           id="g146"
           transform="translate(477.627,614.4985)"><path
             d="m 0,0 c 1.778,4.141 7.289,7.159 13.812,7.159 7.962,0 14.416,-4.496 14.416,-10.042 0,-5.545 -6.454,-10.041 -14.416,-10.041"
             style="fill:none;stroke:#231f20;stroke-width:0.5;stroke-linecap:butt;stroke-linejoin:miter;stroke-miterlimit:4;stroke-dasharray:none;stroke-opacity:1"
             id="path148" /></g><text
           transform="matrix(1,0,0,-1,98.1426,650.1318)"
           style="font-variant:normal;font-weight:bold;font-stretch:condensed;font-size:9px;font-family:'Humanst521 Cn BT';-inkscape-font-specification:Humanist521BT-BoldCondensed;writing-mode:lr-tb;fill:#231f20;fill-opacity:1;fill-rule:nonzero;stroke:none"
           id="text152"><tspan
             x="0 3.78 7.7399998 11.133 14.634 16.767 21.114 25.596001 29.097 33.605999 35.738998 38.736 41.030998"
             y="0"
             sodipodi:role="line"
             id="tspan150">Versionsbit: </tspan></text><text
           transform="matrix(1,0,0,-1,141.4766,650.1318)"
           style="font-variant:normal;font-weight:bold;font-stretch:normal;font-size:8.5px;font-family:Arial;-inkscape-font-specification:Arial-BoldMT;writing-mode:lr-tb;fill:#231f20;fill-opacity:1;fill-rule:nonzero;stroke:none"
           id="text156"><tspan
             x="0"
             y="0"
             id="tspan154">1</tspan></text><text
           transform="matrix(1,0,0,-1,98.1426,640.6318)"
           style="font-variant:normal;font-weight:bold;font-stretch:condensed;font-size:9px;font-family:'Humanst521 Cn BT';-inkscape-font-specification:Humanist521BT-BoldCondensed;writing-mode:lr-tb;fill:#231f20;fill-opacity:1;fill-rule:nonzero;stroke:none"
           id="text160"><tspan
             x="0 3.96 6.9569998 11.007 14.4 17.396999 20.979 24.938999 27.072001 30.069 32.363998 34.667999 38.717999"
             y="0"
             sodipodi:role="line"
             id="tspan158">Startzeit: 20</tspan></text><text
           transform="matrix(1,0,0,-1,141.4687,640.6318)"
           style="font-variant:normal;font-weight:bold;font-stretch:normal;font-size:8.5px;font-family:Arial;-inkscape-font-specification:Arial-BoldMT;writing-mode:lr-tb;fill:#231f20;fill-opacity:1;fill-rule:nonzero;stroke:none"
           id="text164"><tspan
             x="0"
             y="0"
             id="tspan162">1</tspan></text><text
           transform="matrix(1,0,0,-1,146.1953,640.6318)"
           style="font-variant:normal;font-weight:bold;font-stretch:condensed;font-size:9px;font-family:'Humanst521 Cn BT';-inkscape-font-specification:Humanist521BT-BoldCondensed;writing-mode:lr-tb;fill:#231f20;fill-opacity:1;fill-rule:nonzero;stroke:none"
           id="text168"><tspan
             x="0 4.4549999"
             y="0"
             sodipodi:role="line"
             id="tspan166">6-</tspan></text><text
           transform="matrix(1,0,0,-1,153.4512,640.6318)"
           style="font-variant:normal;font-weight:bold;font-stretch:normal;font-size:8.5px;font-family:Arial;-inkscape-font-specification:Arial-BoldMT;writing-mode:lr-tb;fill:#231f20;fill-opacity:1;fill-rule:nonzero;stroke:none"
           id="text172"><tspan
             x="0 4.2585001"
             y="0"
             sodipodi:role="line"
             id="tspan170">11</tspan></text><text
           transform="matrix(1,0,0,-1,162.4365,640.6318)"
           style="font-variant:normal;font-weight:bold;font-stretch:condensed;font-size:9px;font-family:'Humanst521 Cn BT';-inkscape-font-specification:Humanist521BT-BoldCondensed;writing-mode:lr-tb;fill:#231f20;fill-opacity:1;fill-rule:nonzero;stroke:none"
           id="text176"><tspan
             x="0"
             y="0"
             id="tspan174">-</tspan></text><text
           transform="matrix(1,0,0,-1,165.2363,640.6318)"
           style="font-variant:normal;font-weight:bold;font-stretch:normal;font-size:8.5px;font-family:Arial;-inkscape-font-specification:Arial-BoldMT;writing-mode:lr-tb;fill:#231f20;fill-opacity:1;fill-rule:nonzero;stroke:none"
           id="text180"><tspan
             x="0"
             y="0"
             id="tspan178">1</tspan></text><text
           transform="matrix(1,0,0,-1,169.9629,640.6318)"
           style="font-variant:normal;font-weight:bold;font-stretch:condensed;font-size:9px;font-family:'Humanst521 Cn BT';-inkscape-font-specification:Humanist521BT-BoldCondensed;writing-mode:lr-tb;fill:#231f20;fill-opacity:1;fill-rule:nonzero;stroke:none"
           id="text186"><tspan
             x="0"
             y="0"
             id="tspan182">5</tspan><tspan
             x="-71.82 -67.769997 -65.637001 -58.896 -54.936001 -50.589001 -46.106998 -43.110001 -40.814999 -38.511002 -34.460999"
             y="9.5039997"
             sodipodi:role="line"
             id="tspan184">Timeout: 20</tspan></text><text
           transform="matrix(1,0,0,-1,140.1104,631.1318)"
           style="font-variant:normal;font-weight:bold;font-stretch:normal;font-size:8.5px;font-family:Arial;-inkscape-font-specification:Arial-BoldMT;writing-mode:lr-tb;fill:#231f20;fill-opacity:1;fill-rule:nonzero;stroke:none"
           id="text190"><tspan
             x="0"
             y="0"
             id="tspan188">1</tspan></text><text
           transform="matrix(1,0,0,-1,144.8379,631.1318)"
           style="font-variant:normal;font-weight:bold;font-stretch:condensed;font-size:9px;font-family:'Humanst521 Cn BT';-inkscape-font-specification:Humanist521BT-BoldCondensed;writing-mode:lr-tb;fill:#231f20;fill-opacity:1;fill-rule:nonzero;stroke:none"
           id="text194"><tspan
             x="0 4.0139999"
             y="0"
             sodipodi:role="line"
             id="tspan192">7-</tspan></text><text
           transform="matrix(1,0,0,-1,151.6494,631.1318)"
           style="font-variant:normal;font-weight:bold;font-stretch:normal;font-size:8.5px;font-family:Arial;-inkscape-font-specification:Arial-BoldMT;writing-mode:lr-tb;fill:#231f20;fill-opacity:1;fill-rule:nonzero;stroke:none"
           id="text198"><tspan
             x="0 4.2585001"
             y="0"
             sodipodi:role="line"
             id="tspan196">11</tspan></text><text
           transform="matrix(1,0,0,-1,160.6348,631.1318)"
           style="font-variant:normal;font-weight:bold;font-stretch:condensed;font-size:9px;font-family:'Humanst521 Cn BT';-inkscape-font-specification:Humanist521BT-BoldCondensed;writing-mode:lr-tb;fill:#231f20;fill-opacity:1;fill-rule:nonzero;stroke:none"
           id="text202"><tspan
             x="0"
             y="0"
             id="tspan200">-</tspan></text><text
           transform="matrix(1,0,0,-1,163.4336,631.1318)"
           style="font-variant:normal;font-weight:bold;font-stretch:normal;font-size:8.5px;font-family:Arial;-inkscape-font-specification:Arial-BoldMT;writing-mode:lr-tb;fill:#231f20;fill-opacity:1;fill-rule:nonzero;stroke:none"
           id="text206"><tspan
             x="0"
             y="0"
             id="tspan204">1</tspan></text><text
           transform="matrix(1,0,0,-1,168.1611,631.1318)"
           style="font-variant:normal;font-weight:bold;font-stretch:condensed;font-size:9px;font-family:'Humanst521 Cn BT';-inkscape-font-specification:Humanist521BT-BoldCondensed;writing-mode:lr-tb;fill:#231f20;fill-opacity:1;fill-rule:nonzero;stroke:none"
           id="text212"><tspan
             x="0"
             y="0"
             id="tspan208">5</tspan><tspan
             x="33.966 38.015999"
             y="-9.4949999"
             sodipodi:role="line"
             id="tspan210">20</tspan></text><text
           transform="matrix(1,0,0,-1,210.7891,640.6309)"
           style="font-variant:normal;font-weight:bold;font-stretch:normal;font-size:8.5px;font-family:Arial;-inkscape-font-specification:Arial-BoldMT;writing-mode:lr-tb;fill:#231f20;fill-opacity:1;fill-rule:nonzero;stroke:none"
           id="text216"><tspan
             x="0"
             y="0"
             id="tspan214">1</tspan></text><text
           transform="matrix(1,0,0,-1,215.5161,640.6309)"
           style="font-variant:normal;font-weight:bold;font-stretch:condensed;font-size:9px;font-family:'Humanst521 Cn BT';-inkscape-font-specification:Humanist521BT-BoldCondensed;writing-mode:lr-tb;fill:#231f20;fill-opacity:1;fill-rule:nonzero;stroke:none"
           id="text220"><tspan
             x="0 4.4549999"
             y="0"
             sodipodi:role="line"
             id="tspan218">6-</tspan></text><text
           transform="matrix(1,0,0,-1,222.772,640.6309)"
           style="font-variant:normal;font-weight:bold;font-stretch:normal;font-size:8.5px;font-family:Arial;-inkscape-font-specification:Arial-BoldMT;writing-mode:lr-tb;fill:#231f20;fill-opacity:1;fill-rule:nonzero;stroke:none"
           id="text224"><tspan
             x="0 4.2585001"
             y="0"
             sodipodi:role="line"
             id="tspan222">11</tspan></text><text
           transform="matrix(1,0,0,-1,231.7573,640.6309)"
           style="font-variant:normal;font-weight:bold;font-stretch:condensed;font-size:9px;font-family:'Humanst521 Cn BT';-inkscape-font-specification:Humanist521BT-BoldCondensed;writing-mode:lr-tb;fill:#231f20;fill-opacity:1;fill-rule:nonzero;stroke:none"
           id="text228"><tspan
             x="0"
             y="0"
             id="tspan226">-</tspan></text><text
           transform="matrix(1,0,0,-1,234.5566,640.6309)"
           style="font-variant:normal;font-weight:bold;font-stretch:normal;font-size:8.5px;font-family:Arial;-inkscape-font-specification:Arial-BoldMT;writing-mode:lr-tb;fill:#231f20;fill-opacity:1;fill-rule:nonzero;stroke:none"
           id="text232"><tspan
             x="0"
             y="0"
             id="tspan230">1</tspan></text><text
           transform="matrix(1,0,0,-1,239.2837,640.6309)"
           style="font-variant:normal;font-weight:bold;font-stretch:condensed;font-size:9px;font-family:'Humanst521 Cn BT';-inkscape-font-specification:Humanist521BT-BoldCondensed;writing-mode:lr-tb;fill:#231f20;fill-opacity:1;fill-rule:nonzero;stroke:none"
           id="text240"><tspan
             x="0 4.4190001"
             y="0"
             sodipodi:role="line"
             id="tspan234">8,</tspan><tspan
             x="-37.152 -32.310001 -30.15 -25.802999 -22.202999 -18.018 -15.714 -11.439 -7.7309999 -3.276 0.99900001 5.4180002"
             y="9.5039997"
             sodipodi:role="line"
             id="tspan236">Block 439488</tspan><tspan
             x="160.047 164.097"
             y="0"
             sodipodi:role="line"
             id="tspan238">20</tspan></text><text
           transform="matrix(1,0,0,-1,407.9912,640.6309)"
           style="font-variant:normal;font-weight:bold;font-stretch:normal;font-size:8.5px;font-family:Arial;-inkscape-font-specification:Arial-BoldMT;writing-mode:lr-tb;fill:#231f20;fill-opacity:1;fill-rule:nonzero;stroke:none"
           id="text244"><tspan
             x="0"
             y="0"
             id="tspan242">1</tspan></text><text
           transform="matrix(1,0,0,-1,412.7183,640.6309)"
           style="font-variant:normal;font-weight:bold;font-stretch:condensed;font-size:9px;font-family:'Humanst521 Cn BT';-inkscape-font-specification:Humanist521BT-BoldCondensed;writing-mode:lr-tb;fill:#231f20;fill-opacity:1;fill-rule:nonzero;stroke:none"
           id="text250"><tspan
             x="0 4.0139999 6.8130002 11.421 15.84 18.639 22.688999 26.964001"
             y="0"
             sodipodi:role="line"
             id="tspan246">7-08-24,</tspan><tspan
             x="-13.392 -8.5500002 -6.3899999 -2.043 1.557 5.7420001 8.0459995 12.321"
             y="9.5039997"
             sodipodi:role="line"
             id="tspan248">Block 48</tspan></text><text
           transform="matrix(1,0,0,-1,429.4629,631.1309)"
           style="font-variant:normal;font-weight:bold;font-stretch:normal;font-size:8.5px;font-family:Arial;-inkscape-font-specification:Arial-BoldMT;writing-mode:lr-tb;fill:#231f20;fill-opacity:1;fill-rule:nonzero;stroke:none"
           id="text254"><tspan
             x="0"
             y="0"
             id="tspan252">1</tspan></text><text
           transform="matrix(1,0,0,-1,434.1899,631.1309)"
           style="font-variant:normal;font-weight:bold;font-stretch:condensed;font-size:9px;font-family:'Humanst521 Cn BT';-inkscape-font-specification:Humanist521BT-BoldCondensed;writing-mode:lr-tb;fill:#231f20;fill-opacity:1;fill-rule:nonzero;stroke:none"
           id="text260"><tspan
             x="0 4.4190001 8.4689999"
             y="0"
             sodipodi:role="line"
             id="tspan256">824</tspan><tspan
             x="-126.666 -121.482 -117.432 -112.95 -108.765 -106.461 -101.619 -99.081001 -94.455002"
             y="-20.421"
             sodipodi:role="line"
             id="tspan258">Dank BIP9</tspan></text><text
           transform="matrix(1,0,0,-1,344.1978,651.5537)"
           style="font-variant:normal;font-weight:bold;font-stretch:normal;font-size:8.5px;font-family:Arial;-inkscape-font-specification:Arial-BoldMT;writing-mode:lr-tb;fill:#231f20;fill-opacity:1;fill-rule:nonzero;stroke:none"
           id="text264"><tspan
             x="0"
             y="0"
             id="tspan262">1</tspan></text><text
           transform="matrix(1,0,0,-1,348.9248,651.5537)"
           style="font-variant:normal;font-weight:bold;font-stretch:condensed;font-size:9px;font-family:'Humanst521 Cn BT';-inkscape-font-specification:Humanist521BT-BoldCondensed;writing-mode:lr-tb;fill:#231f20;fill-opacity:1;fill-rule:nonzero;stroke:none"
           id="text270"><tspan
             x="0"
             y="0"
             id="tspan266">,</tspan><tspan
             x="-41.400002 -37.349998"
             y="9.5039997"
             sodipodi:role="line"
             id="tspan268">20</tspan></text><text
           transform="matrix(1,0,0,-1,316.187,642.0537)"
           style="font-variant:normal;font-weight:bold;font-stretch:normal;font-size:8.5px;font-family:Arial;-inkscape-font-specification:Arial-BoldMT;writing-mode:lr-tb;fill:#231f20;fill-opacity:1;fill-rule:nonzero;stroke:none"
           id="text274"><tspan
             x="0"
             y="0"
             id="tspan272">1</tspan></text><text
           transform="matrix(1,0,0,-1,320.9141,642.0537)"
           style="font-variant:normal;font-weight:bold;font-stretch:condensed;font-size:9px;font-family:'Humanst521 Cn BT';-inkscape-font-specification:Humanist521BT-BoldCondensed;writing-mode:lr-tb;fill:#231f20;fill-opacity:1;fill-rule:nonzero;stroke:none"
           id="text280"><tspan
             x="0 4.0139999 6.8130002 11.421 15.84 18.639 23.247 27.702"
             y="0"
             sodipodi:role="line"
             id="tspan276">7-08-09,</tspan><tspan
             x="-13.392 -8.5500002 -6.3899999 -2.043 1.557 5.7420001 8.0459995 12.321 16.334999 20.790001 25.209 29.816999"
             y="9.5039997"
             sodipodi:role="line"
             id="tspan278">Block 479808</tspan></text><g
           id="g282"
           transform="translate(278.2495,626.5742)"><path
             d="M 0,0 C 0,4.968 3.012,7.614 3.012,11.583"
             style="fill:none;stroke:#231f20;stroke-width:0.3;stroke-linecap:butt;stroke-linejoin:miter;stroke-miterlimit:10;stroke-dasharray:none;stroke-opacity:1"
             id="path284" /></g><g
           id="g286"
           transform="translate(280.1089,627.1211)"><path
             d="M 0,0 -1.869,-3.238 -3.739,0 Z"
             style="fill:#231f20;fill-opacity:1;fill-rule:nonzero;stroke:none"
             id="path288" /></g><text
           transform="matrix(1,0,0,-1,269.2153,640.6309)"
           style="font-variant:normal;font-weight:bold;font-stretch:condensed;font-size:9px;font-family:'Humanst521 Cn BT';-inkscape-font-specification:Humanist521BT-BoldCondensed;writing-mode:lr-tb;fill:#231f20;fill-opacity:1;fill-rule:nonzero;stroke:none"
           id="text292"><tspan
             x="0 7.4970002 11.952 16.011"
             y="0"
             sodipodi:role="line"
             id="tspan290">&lt;95%</tspan></text><g
           id="g294"
           transform="translate(209.7495,607.2407)"><path
             d="M 0,0 C 0,10.426 14.917,15.759 14.917,21.426"
             style="fill:none;stroke:#231f20;stroke-width:0.3;stroke-linecap:butt;stroke-linejoin:miter;stroke-miterlimit:10;stroke-dasharray:none;stroke-opacity:1"
             id="path296" /></g><g
           id="g298"
           transform="translate(211.6089,607.7881)"><path
             d="M 0,0 -1.87,-3.238 -3.739,0 Z"
             style="fill:#231f20;fill-opacity:1;fill-rule:nonzero;stroke:none"
             id="path300" /></g><g
           id="g302"
           transform="translate(314.251,607.2407)"><path
             d="M 0,0 C 0,10.426 14.917,15.759 14.917,21.426"
             style="fill:none;stroke:#231f20;stroke-width:0.3;stroke-linecap:butt;stroke-linejoin:miter;stroke-miterlimit:10;stroke-dasharray:none;stroke-opacity:1"
             id="path304" /></g><g
           id="g306"
           transform="translate(316.1104,607.7881)"><path
             d="M 0,0 -1.87,-3.238 -3.739,0 Z"
             style="fill:#231f20;fill-opacity:1;fill-rule:nonzero;stroke:none"
             id="path308" /></g><g
           id="g310"
           transform="translate(411.418,607.2407)"><path
             d="M 0,0 C 0,10.426 14.918,15.759 14.918,21.426"
             style="fill:none;stroke:#231f20;stroke-width:0.3;stroke-linecap:butt;stroke-linejoin:miter;stroke-miterlimit:10;stroke-dasharray:none;stroke-opacity:1"
             id="path312" /></g><g
           id="g314"
           transform="translate(413.2773,607.7881)"><path
             d="M 0,0 -1.869,-3.238 -3.739,0 Z"
             style="fill:#231f20;fill-opacity:1;fill-rule:nonzero;stroke:none"
             id="path316" /></g></g></g></g></svg>
