<?xml version="1.0" encoding="UTF-8" standalone="no"?>
<svg
   xmlns:dc="http://purl.org/dc/elements/1.1/"
   xmlns:cc="http://creativecommons.org/ns#"
   xmlns:rdf="http://www.w3.org/1999/02/22-rdf-syntax-ns#"
   xmlns:svg="http://www.w3.org/2000/svg"
   xmlns="http://www.w3.org/2000/svg"
   xmlns:sodipodi="http://sodipodi.sourceforge.net/DTD/sodipodi-0.dtd"
   xmlns:inkscape="http://www.inkscape.org/namespaces/inkscape"
   version="1.1"
   id="svg2"
   xml:space="preserve"
   width="320.64584"
   height="154.45349"
   viewBox="0 0 320.64584 154.45349"
   sodipodi:docname="11-27.ai"><metadata
     id="metadata8"><rdf:RDF><cc:Work
         rdf:about=""><dc:format>image/svg+xml</dc:format><dc:type
           rdf:resource="http://purl.org/dc/dcmitype/StillImage" /></cc:Work></rdf:RDF></metadata><defs
     id="defs6"><clipPath
       clipPathUnits="userSpaceOnUse"
       id="clipPath30"><path
         d="M 0,792 H 612 V 0 H 0 Z"
         id="path28" /></clipPath><clipPath
       clipPathUnits="userSpaceOnUse"
       id="clipPath144"><path
         d="m 176.456,596.415 c 0.095,-9.415 6.153,-16.32 2.14,-25.804 v 0 h 16.736 v 25.804 z"
         id="path142" /></clipPath><clipPath
       clipPathUnits="userSpaceOnUse"
       id="clipPath160"><path
         d="M 0,792 H 612 V 0 H 0 Z"
         id="path158" /></clipPath></defs><sodipodi:namedview
     pagecolor="#ffffff"
     bordercolor="#666666"
     borderopacity="1"
     objecttolerance="10"
     gridtolerance="10"
     guidetolerance="10"
     inkscape:pageopacity="0"
     inkscape:pageshadow="2"
     inkscape:window-width="640"
     inkscape:window-height="480"
     id="namedview4" /><g
     id="g10"
     inkscape:groupmode="layer"
     inkscape:label="11-27"
     transform="matrix(1.3333333,0,0,-1.3333333,-234.73959,855.43031)"><g
       id="g12"
       transform="translate(290.7832,611.3232)"><path
         d="M 0,0 V -1"
         style="fill:none;stroke:#656263;stroke-width:0.5;stroke-linecap:butt;stroke-linejoin:miter;stroke-miterlimit:4;stroke-dasharray:none;stroke-opacity:1"
         id="path14" /></g><g
       id="g16"
       transform="translate(290.7832,609.2979)"><path
         d="M 0,0 V -51.775"
         style="fill:none;stroke:#656263;stroke-width:0.5;stroke-linecap:butt;stroke-linejoin:miter;stroke-miterlimit:4;stroke-dasharray:2.051, 1.025;stroke-dashoffset:0;stroke-opacity:1"
         id="path18" /></g><g
       id="g20"
       transform="translate(290.7832,557.0098)"><path
         d="M 0,0 V -1"
         style="fill:none;stroke:#656263;stroke-width:0.5;stroke-linecap:butt;stroke-linejoin:miter;stroke-miterlimit:4;stroke-dasharray:none;stroke-opacity:1"
         id="path22" /></g><g
       id="g24"><g
         id="g26"
         clip-path="url(#clipPath30)"><g
           id="g32"
           transform="translate(342.1084,572.333)"><path
             d="m 0,0 c 0,-1.1 -0.9,-2 -2,-2 h -24.47 c -1.099,0 -2,0.9 -2,2 v 22.459 c 0,1.1 0.901,2 2,2 H -2 c 1.1,0 2,-0.9 2,-2 z"
             style="fill:#deecf5;fill-opacity:1;fill-rule:nonzero;stroke:none"
             id="path34" /></g><g
           id="g36"
           transform="translate(342.1084,572.333)"><path
             d="m 0,0 c 0,-1.1 -0.9,-2 -2,-2 h -24.47 c -1.099,0 -2,0.9 -2,2 v 22.459 c 0,1.1 0.901,2 2,2 H -2 c 1.1,0 2,-0.9 2,-2 z"
             style="fill:none;stroke:#231f20;stroke-width:0.5;stroke-linecap:butt;stroke-linejoin:round;stroke-miterlimit:14.336;stroke-dasharray:none;stroke-opacity:1"
             id="path38" /></g><text
           transform="matrix(1,0,0,-1,322.8149,580.8169)"
           style="font-variant:normal;font-weight:normal;font-stretch:normal;font-size:7px;font-family:Arial;-inkscape-font-specification:ArialMT;writing-mode:lr-tb;fill:#231f20;fill-opacity:1;fill-rule:nonzero;stroke:none"
           id="text42"><tspan
             x="0 4.6690001 6.223"
             y="0"
             sodipodi:role="line"
             id="tspan40">Big</tspan></text><g
           id="g44"
           transform="translate(267.9277,572.333)"><path
             d="m 0,0 c 0,-1.1 -0.9,-2 -2,-2 h -24.47 c -1.1,0 -2,0.9 -2,2 v 22.459 c 0,1.1 0.9,2 2,2 H -2 c 1.1,0 2,-0.9 2,-2 z"
             style="fill:#deecf5;fill-opacity:1;fill-rule:nonzero;stroke:none"
             id="path46" /></g><g
           id="g48"
           transform="translate(267.9277,572.333)"><path
             d="m 0,0 c 0,-1.1 -0.9,-2 -2,-2 h -24.47 c -1.1,0 -2,0.9 -2,2 v 22.459 c 0,1.1 0.9,2 2,2 H -2 c 1.1,0 2,-0.9 2,-2 z"
             style="fill:none;stroke:#231f20;stroke-width:0.5;stroke-linecap:butt;stroke-linejoin:round;stroke-miterlimit:14.336;stroke-dasharray:none;stroke-opacity:1"
             id="path50" /></g><g
           id="g52"
           transform="translate(272.6328,583.4736)"><path
             d="M 0,0 H 41.051"
             style="fill:none;stroke:#231f20;stroke-width:0.5;stroke-linecap:butt;stroke-linejoin:miter;stroke-miterlimit:4;stroke-dasharray:none;stroke-opacity:1"
             id="path54" /></g><g
           id="g56"
           transform="translate(270.6182,584.0791)"><path
             d="m 0,0 c 0.951,0.283 1.57,0.546 2.334,0.849 l -0.01,-2.902 c -0.271,0.131 -1.379,0.576 -2.326,0.867 -1.018,0.313 -1.939,0.524 -2.537,0.602 0.6,0.072 1.523,0.281 2.539,0.584"
             style="fill:#231f20;fill-opacity:1;fill-rule:nonzero;stroke:none"
             id="path58" /></g><g
           id="g60"
           transform="translate(416.2891,572.333)"><path
             d="m 0,0 c 0,-1.1 -0.9,-2 -2,-2 h -24.47 c -1.099,0 -2,0.9 -2,2 v 22.459 c 0,1.1 0.901,2 2,2 H -2 c 1.1,0 2,-0.9 2,-2 z"
             style="fill:#deecf5;fill-opacity:1;fill-rule:nonzero;stroke:none"
             id="path62" /></g><g
           id="g64"
           transform="translate(416.2891,572.333)"><path
             d="m 0,0 c 0,-1.1 -0.9,-2 -2,-2 h -24.47 c -1.099,0 -2,0.9 -2,2 v 22.459 c 0,1.1 0.901,2 2,2 H -2 c 1.1,0 2,-0.9 2,-2 z"
             style="fill:none;stroke:#231f20;stroke-width:0.5;stroke-linecap:butt;stroke-linejoin:round;stroke-miterlimit:14.336;stroke-dasharray:none;stroke-opacity:1"
             id="path66" /></g><g
           id="g68"
           transform="translate(346.8135,583.4736)"><path
             d="M 0,0 H 41.051"
             style="fill:none;stroke:#231f20;stroke-width:0.5;stroke-linecap:butt;stroke-linejoin:miter;stroke-miterlimit:4;stroke-dasharray:none;stroke-opacity:1"
             id="path70" /></g><g
           id="g72"
           transform="translate(344.7988,584.0791)"><path
             d="m 0,0 c 0.951,0.283 1.57,0.546 2.334,0.849 l -0.01,-2.902 c -0.271,0.131 -1.379,0.576 -2.326,0.867 -1.018,0.313 -1.939,0.524 -2.537,0.602 0.6,0.072 1.523,0.281 2.539,0.584"
             style="fill:#231f20;fill-opacity:1;fill-rule:nonzero;stroke:none"
             id="path74" /></g><g
           id="g76"
           transform="translate(198.4521,583.4736)"><path
             d="M 0,0 H 41.051"
             style="fill:none;stroke:#231f20;stroke-width:0.5;stroke-linecap:butt;stroke-linejoin:miter;stroke-miterlimit:4;stroke-dasharray:none;stroke-opacity:1"
             id="path78" /></g><g
           id="g80"
           transform="translate(196.4375,584.0791)"><path
             d="m 0,0 c 0.951,0.283 1.57,0.546 2.334,0.849 l -0.01,-2.902 c -0.271,0.131 -1.379,0.576 -2.326,0.867 -1.018,0.313 -1.939,0.524 -2.537,0.602 0.6,0.072 1.523,0.281 2.539,0.584"
             style="fill:#231f20;fill-opacity:1;fill-rule:nonzero;stroke:none"
             id="path82" /></g><g
           id="g84"
           transform="translate(286.3335,595)"><path
             d="M 0,0 C -14.333,3.333 -22.333,11 -22.333,18"
             style="fill:none;stroke:#231f20;stroke-width:0.3;stroke-linecap:butt;stroke-linejoin:miter;stroke-miterlimit:10;stroke-dasharray:none;stroke-opacity:1"
             id="path86" /></g><g
           id="g88"
           transform="translate(286.2217,596.9351)"><path
             d="M 0,0 2.73,-2.555 -0.847,-3.643 Z"
             style="fill:#231f20;fill-opacity:1;fill-rule:nonzero;stroke:none"
             id="path90" /></g><g
           id="g92"
           transform="translate(327.6611,601.4072)"><path
             d="M 0,0 C 0,4.761 3.623,8.003 3.623,12.259"
             style="fill:none;stroke:#231f20;stroke-width:0.3;stroke-linecap:butt;stroke-linejoin:miter;stroke-miterlimit:10;stroke-dasharray:none;stroke-opacity:1"
             id="path94" /></g><g
           id="g96"
           transform="translate(329.5205,601.9541)"><path
             d="M 0,0 -1.87,-3.238 -3.739,0 Z"
             style="fill:#231f20;fill-opacity:1;fill-rule:nonzero;stroke:none"
             id="path98" /></g><g
           id="g100"
           transform="translate(327.6611,565.2588)"><path
             d="M 0,0 C 0,-4.761 3.623,-8.003 3.623,-12.259"
             style="fill:none;stroke:#231f20;stroke-width:0.3;stroke-linecap:butt;stroke-linejoin:miter;stroke-miterlimit:10;stroke-dasharray:none;stroke-opacity:1"
             id="path102" /></g><g
           id="g104"
           transform="translate(325.8018,564.7119)"><path
             d="M 0,0 1.87,3.238 3.739,0 Z"
             style="fill:#231f20;fill-opacity:1;fill-rule:nonzero;stroke:none"
             id="path106" /></g><g
           id="g108"
           transform="translate(253.7104,565.2588)"><path
             d="M 0,0 C 0,-4.761 -3.71,-8.003 -3.71,-12.259"
             style="fill:none;stroke:#231f20;stroke-width:0.3;stroke-linecap:butt;stroke-linejoin:miter;stroke-miterlimit:10;stroke-dasharray:none;stroke-opacity:1"
             id="path110" /></g><g
           id="g112"
           transform="translate(251.8511,564.7119)"><path
             d="M 0,0 1.87,3.238 3.74,0 Z"
             style="fill:#231f20;fill-opacity:1;fill-rule:nonzero;stroke:none"
             id="path114" /></g><text
           transform="matrix(1,0,0,-1,242.5195,635.3457)"
           style="font-variant:normal;font-weight:bold;font-stretch:condensed;font-size:9px;font-family:'Humanst521 Cn BT';-inkscape-font-specification:Humanist521BT-BoldCondensed;writing-mode:lr-tb;fill:#231f20;fill-opacity:1;fill-rule:nonzero;stroke:none"
           id="text136"><tspan
             x="0 5.2290001 8.7299995 12.69 16.083 18.386999 22.896 26.856001 30.959999 33.092999 37.575001 42.056999 46.016998 50.499001"
             y="0"
             sodipodi:role="line"
             id="tspan116">User beginnen,</tspan><tspan
             x="0 4.842 6.9749999 11.079 13.383 18.225 20.385 24.732 28.332001 32.516998"
             y="9.5039997"
             sodipodi:role="line"
             id="tspan118">Big Blocks</tspan><tspan
             x="0 4.0500002 8.559 12.141 16.622999 18.783001 22.743 27.233999 31.716 35.675999 40.158001"
             y="19.007999"
             sodipodi:role="line"
             id="tspan120">abzulehnen.</tspan><tspan
             x="65.124001 71.415001 73.547997 78.029999 81.989998 85.383003 87.686996 91.835999 97.542 101.502 103.635"
             y="9.5039997"
             sodipodi:role="line"
             id="tspan122">Miner Zweig</tspan><tspan
             x="65.124001 67.959 72.801003 74.933998 79.038002 81.342003 86.183998 88.344002 92.691002 96.291 100.476"
             y="19.007999"
             sodipodi:role="line"
             id="tspan124">(Big Block)</tspan><tspan
             x="73.125 77.561996 82.070999 86.175003 90.135002 92.294998 96.254997 100.746 105.228"
             y="90.503998"
             sodipodi:role="line"
             id="tspan126">Abgelehnt</tspan><tspan
             x="73.125 76.850998 81.197998 85.68 87.984001 92.492996 96.453003 100.935 103.239 108.468 111.969 115.929 119.322"
             y="100.008"
             sodipodi:role="line"
             id="tspan128">von den Usern</tspan><tspan
             x="-19.620001 -14.391 -10.89 -6.9299998 -3.5369999 -1.233 4.473 8.5229998 11.916 14.913 18.872999 23.355 25.659 29.709 34.191002"
             y="90.503998"
             sodipodi:role="line"
             id="tspan130">User warten auf</tspan><tspan
             x="-19.620001 -15.66 -13.527 -9.0450001 -5.085 -0.60299999 1.701 5.8049998 10.287 12.447 15.444 17.577 21.681 25.641001 30.122999 32.426998 37.269001 39.429001 43.776001 47.375999"
             y="100.008"
             sodipodi:role="line"
             id="tspan132">einen gültigen Block</tspan><tspan
             x="-19.620001 -15.138 -11.088 -7.4879999 -2.997 -0.69300002 3.816 5.9489999 9.9090004 13.41 17.370001 24.111 26.415001 30.906 33.039001 36.999001 39.483002"
             y="109.512"
             sodipodi:role="line"
             id="tspan134">nach diesem hier.</tspan></text></g></g><g
       id="g138"><g
         id="g140"
         clip-path="url(#clipPath144)"><g
           id="g146"
           transform="translate(193.6914,573.9224)"><path
             d="m 0,0 c 0,-1.1 -0.9,-2 -2,-2 h -17.191 c -1.101,0 -2,0.9 -2,2 v 19.1 c 0,1.1 0.899,2 2,2 H -2 c 1.1,0 2,-0.9 2,-2 z"
             style="fill:#deecf5;fill-opacity:1;fill-rule:nonzero;stroke:none"
             id="path148" /></g><g
           id="g150"
           transform="translate(193.6914,573.9224)"><path
             d="m 0,0 c 0,-1.1 -0.9,-2 -2,-2 h -17.191 c -1.101,0 -2,0.9 -2,2 v 19.1 c 0,1.1 0.899,2 2,2 H -2 c 1.1,0 2,-0.9 2,-2 z"
             style="fill:none;stroke:#231f20;stroke-width:0.5;stroke-linecap:butt;stroke-linejoin:round;stroke-miterlimit:14.336;stroke-dasharray:none;stroke-opacity:1"
             id="path152" /></g></g></g><g
       id="g154"><g
         id="g156"
         clip-path="url(#clipPath160)"><g
           id="g162"
           transform="translate(178.5957,570.6108)"><path
             d="M 0,0 C 4.041,9.187 -2.166,17.058 -2.166,25.762"
             style="fill:none;stroke:#231f20;stroke-width:0.75;stroke-linecap:butt;stroke-linejoin:miter;stroke-miterlimit:10;stroke-dasharray:none;stroke-opacity:1"
             id="path164" /></g></g></g></g></svg>
