<?xml version="1.0" encoding="UTF-8" standalone="no"?>
<svg
   xmlns:dc="http://purl.org/dc/elements/1.1/"
   xmlns:cc="http://creativecommons.org/ns#"
   xmlns:rdf="http://www.w3.org/1999/02/22-rdf-syntax-ns#"
   xmlns:svg="http://www.w3.org/2000/svg"
   xmlns="http://www.w3.org/2000/svg"
   xmlns:sodipodi="http://sodipodi.sourceforge.net/DTD/sodipodi-0.dtd"
   xmlns:inkscape="http://www.inkscape.org/namespaces/inkscape"
   version="1.1"
   id="svg2"
   xml:space="preserve"
   width="545.25262"
   height="83.350998"
   viewBox="0 0 545.25262 83.350998"
   sodipodi:docname="11-30.ai"><metadata
     id="metadata8"><rdf:RDF><cc:Work
         rdf:about=""><dc:format>image/svg+xml</dc:format><dc:type
           rdf:resource="http://purl.org/dc/dcmitype/StillImage" /></cc:Work></rdf:RDF></metadata><defs
     id="defs6"><clipPath
       clipPathUnits="userSpaceOnUse"
       id="clipPath18"><path
         d="M 0,792 H 612 V 0 H 0 Z"
         id="path16" /></clipPath><clipPath
       clipPathUnits="userSpaceOnUse"
       id="clipPath110"><path
         d="m 102.524,646.771 c 0.081,-8.145 5.323,-14.12 1.851,-22.324 v 0 h 11.08 v 22.324 z"
         id="path108" /></clipPath><clipPath
       clipPathUnits="userSpaceOnUse"
       id="clipPath126"><path
         d="M 0,792 H 612 V 0 H 0 Z"
         id="path124" /></clipPath></defs><sodipodi:namedview
     pagecolor="#ffffff"
     bordercolor="#666666"
     borderopacity="1"
     objecttolerance="10"
     gridtolerance="10"
     guidetolerance="10"
     inkscape:pageopacity="0"
     inkscape:pageshadow="2"
     inkscape:window-width="640"
     inkscape:window-height="480"
     id="namedview4" /><g
     id="g10"
     inkscape:groupmode="layer"
     inkscape:label="11-30"
     transform="matrix(1.3333333,0,0,-1.3333333,-136.16666,884.23244)"><g
       id="g12"><g
         id="g14"
         clip-path="url(#clipPath18)"><g
           id="g20"
           transform="translate(116.6172,636.146)"><path
             d="M 0,0 C 0.903,0.269 1.492,0.519 2.217,0.807 L 2.208,-1.95 c -0.258,0.124 -1.31,0.548 -2.21,0.824 -0.967,0.297 -1.842,0.497 -2.41,0.571 C -1.843,-0.486 -0.965,-0.288 0,0"
             style="fill:#231f20;fill-opacity:1;fill-rule:nonzero;stroke:none"
             id="path22" /></g><g
           id="g24"
           transform="translate(156.8687,636.146)"><path
             d="M 0,0 C 0.903,0.269 1.492,0.519 2.217,0.807 L 2.208,-1.95 c -0.258,0.124 -1.31,0.548 -2.21,0.824 -0.967,0.297 -1.842,0.497 -2.41,0.571 C -1.843,-0.486 -0.965,-0.288 0,0"
             style="fill:#231f20;fill-opacity:1;fill-rule:nonzero;stroke:none"
             id="path26" /></g><g
           id="g28"
           transform="translate(227.5142,636.146)"><path
             d="M 0,0 C 0.903,0.269 1.492,0.519 2.217,0.807 L 2.208,-1.95 c -0.258,0.124 -1.31,0.548 -2.21,0.824 -0.967,0.297 -1.842,0.497 -2.41,0.571 C -1.843,-0.486 -0.965,-0.288 0,0"
             style="fill:#231f20;fill-opacity:1;fill-rule:nonzero;stroke:none"
             id="path30" /></g><g
           id="g32"
           transform="translate(262.8379,636.146)"><path
             d="M 0,0 C 0.903,0.269 1.492,0.519 2.217,0.807 L 2.208,-1.95 c -0.258,0.124 -1.31,0.548 -2.21,0.824 -0.967,0.297 -1.842,0.497 -2.41,0.571 C -1.843,-0.486 -0.965,-0.288 0,0"
             style="fill:#231f20;fill-opacity:1;fill-rule:nonzero;stroke:none"
             id="path34" /></g><g
           id="g36"
           transform="translate(258.1963,611.4097)"><path
             d="M 0,0 C 0.903,0.269 1.492,0.519 2.217,0.807 L 2.208,-1.95 c -0.258,0.124 -1.31,0.548 -2.21,0.824 -0.967,0.297 -1.842,0.497 -2.41,0.571 C -1.843,-0.486 -0.965,-0.288 0,0"
             style="fill:#231f20;fill-opacity:1;fill-rule:nonzero;stroke:none"
             id="path38" /></g><g
           id="g40"
           transform="translate(322.2891,611.4097)"><path
             d="M 0,0 C 0.903,0.269 1.492,0.519 2.217,0.807 L 2.208,-1.95 c -0.258,0.124 -1.31,0.548 -2.21,0.824 -0.967,0.297 -1.842,0.497 -2.41,0.571 C -1.843,-0.486 -0.965,-0.288 0,0"
             style="fill:#231f20;fill-opacity:1;fill-rule:nonzero;stroke:none"
             id="path42" /></g><g
           id="g44"
           transform="translate(395.7715,611.4097)"><path
             d="M 0,0 C 0.903,0.269 1.492,0.519 2.217,0.807 L 2.208,-1.95 c -0.258,0.124 -1.31,0.548 -2.21,0.824 -0.967,0.297 -1.842,0.497 -2.41,0.571 C -1.843,-0.486 -0.965,-0.288 0,0"
             style="fill:#231f20;fill-opacity:1;fill-rule:nonzero;stroke:none"
             id="path46" /></g><g
           id="g48"
           transform="translate(425.2441,611.4097)"><path
             d="M 0,0 C 0.903,0.269 1.492,0.519 2.217,0.807 L 2.208,-1.95 c -0.258,0.124 -1.31,0.548 -2.21,0.824 -0.967,0.297 -1.842,0.497 -2.41,0.571 C -1.843,-0.486 -0.965,-0.288 0,0"
             style="fill:#231f20;fill-opacity:1;fill-rule:nonzero;stroke:none"
             id="path50" /></g><g
           id="g52"
           transform="translate(454.5313,611.4097)"><path
             d="M 0,0 C 0.903,0.269 1.492,0.519 2.217,0.807 L 2.208,-1.95 c -0.258,0.124 -1.31,0.548 -2.21,0.824 -0.967,0.297 -1.842,0.497 -2.41,0.571 C -1.843,-0.486 -0.965,-0.288 0,0"
             style="fill:#231f20;fill-opacity:1;fill-rule:nonzero;stroke:none"
             id="path54" /></g><g
           id="g56"
           transform="translate(483.8184,611.4097)"><path
             d="M 0,0 C 0.903,0.269 1.492,0.519 2.217,0.807 L 2.208,-1.95 c -0.258,0.124 -1.31,0.548 -2.21,0.824 -0.967,0.297 -1.842,0.497 -2.41,0.571 C -1.843,-0.486 -0.965,-0.288 0,0"
             style="fill:#231f20;fill-opacity:1;fill-rule:nonzero;stroke:none"
             id="path58" /></g><g
           id="g60"
           transform="translate(366.4844,611.4097)"><path
             d="M 0,0 C 0.903,0.269 1.492,0.519 2.217,0.807 L 2.208,-1.95 c -0.258,0.124 -1.31,0.548 -2.21,0.824 -0.967,0.297 -1.842,0.497 -2.41,0.571 C -1.843,-0.486 -0.965,-0.288 0,0"
             style="fill:#231f20;fill-opacity:1;fill-rule:nonzero;stroke:none"
             id="path62" /></g><g
           id="g64"
           transform="translate(298.1587,636.146)"><path
             d="M 0,0 C 0.903,0.269 1.492,0.519 2.217,0.807 L 2.208,-1.95 c -0.258,0.124 -1.31,0.548 -2.21,0.824 -0.967,0.297 -1.842,0.497 -2.41,0.571 C -1.843,-0.486 -0.965,-0.288 0,0"
             style="fill:#231f20;fill-opacity:1;fill-rule:nonzero;stroke:none"
             id="path66" /></g><g
           id="g68"
           transform="translate(358.6621,636.146)"><path
             d="M 0,0 C 0.903,0.269 1.492,0.519 2.217,0.807 L 2.208,-1.95 c -0.258,0.124 -1.31,0.548 -2.21,0.824 -0.967,0.297 -1.842,0.497 -2.41,0.571 C -1.843,-0.486 -0.965,-0.288 0,0"
             style="fill:#231f20;fill-opacity:1;fill-rule:nonzero;stroke:none"
             id="path70" /></g><g
           id="g72"
           transform="translate(192.1919,636.146)"><path
             d="M 0,0 C 0.903,0.269 1.492,0.519 2.217,0.807 L 2.208,-1.95 c -0.258,0.124 -1.31,0.548 -2.21,0.824 -0.967,0.297 -1.842,0.497 -2.41,0.571 C -1.843,-0.486 -0.965,-0.288 0,0"
             style="fill:#231f20;fill-opacity:1;fill-rule:nonzero;stroke:none"
             id="path74" /></g><text
           transform="matrix(1,0,0,-1,438.0542,657.0264)"
           style="font-variant:normal;font-weight:bold;font-stretch:condensed;font-size:9px;font-family:'Humanst521 Cn BT';-inkscape-font-specification:Humanist521BT-BoldCondensed;writing-mode:lr-tb;fill:#231f20;fill-opacity:1;fill-rule:nonzero;stroke:none"
           id="text78"><tspan
             x="0 4.4369998 8.9189997 12.42 16.524 20.483999 22.643999 26.990999 30.492001 34.091999 38.583"
             y="0"
             sodipodi:role="line"
             id="tspan76">Ausgelöscht</tspan></text><g
           id="g80"
           transform="translate(444.1348,636.5151)"><path
             d="M 0,0 C 6.25,0.532 16.25,3.25 16.75,18"
             style="fill:none;stroke:#231f20;stroke-width:0.3;stroke-linecap:butt;stroke-linejoin:miter;stroke-miterlimit:10;stroke-dasharray:none;stroke-opacity:1"
             id="path82" /></g><g
           id="g84"
           transform="translate(444.8379,634.709)"><path
             d="m 0,0 -3.386,1.588 3.069,2.138 z"
             style="fill:#231f20;fill-opacity:1;fill-rule:nonzero;stroke:none"
             id="path86" /></g><g
           id="g88"
           transform="translate(116.6172,632.9697)"><path
             d="M 0,0 C 0.903,0.269 1.492,0.519 2.217,0.807 L 2.208,-1.95 c -0.258,0.124 -1.31,0.548 -2.21,0.824 -0.967,0.297 -1.842,0.497 -2.41,0.571 C -1.843,-0.486 -0.965,-0.288 0,0"
             style="fill:#231f20;fill-opacity:1;fill-rule:nonzero;stroke:none"
             id="path90" /></g><g
           id="g92"
           transform="translate(123.3965,650.1694)"><path
             d="M 0,0 V -1"
             style="fill:none;stroke:#656263;stroke-width:0.5;stroke-linecap:butt;stroke-linejoin:miter;stroke-miterlimit:4;stroke-dasharray:none;stroke-opacity:1"
             id="path94" /></g><g
           id="g96"
           transform="translate(123.3965,648.1538)"><path
             d="M 0,0 V -39.098"
             style="fill:none;stroke:#656263;stroke-width:0.5;stroke-linecap:butt;stroke-linejoin:miter;stroke-miterlimit:4;stroke-dasharray:2.031, 1.016;stroke-dashoffset:0;stroke-opacity:1"
             id="path98" /></g><g
           id="g100"
           transform="translate(123.3965,608.5479)"><path
             d="M 0,0 V -1"
             style="fill:none;stroke:#656263;stroke-width:0.5;stroke-linecap:butt;stroke-linejoin:miter;stroke-miterlimit:4;stroke-dasharray:none;stroke-opacity:1"
             id="path102" /></g></g></g><g
       id="g104"><g
         id="g106"
         clip-path="url(#clipPath110)"><g
           id="g112"
           transform="translate(114.0347,627.5801)"><path
             d="m 0,0 c 0,-1.1 -0.9,-2 -2,-2 h -10.934 c -1.1,0 -2,0.9 -2,2 v 15.987 c 0,1.1 0.9,2 2,2 H -2 c 1.1,0 2,-0.9 2,-2 z"
             style="fill:#deecf5;fill-opacity:1;fill-rule:nonzero;stroke:none"
             id="path114" /></g><g
           id="g116"
           transform="translate(114.0347,627.5801)"><path
             d="m 0,0 c 0,-1.1 -0.9,-2 -2,-2 h -10.934 c -1.1,0 -2,0.9 -2,2 v 15.987 c 0,1.1 0.9,2 2,2 H -2 c 1.1,0 2,-0.9 2,-2 z"
             style="fill:none;stroke:#231f20;stroke-width:0.5;stroke-linecap:butt;stroke-linejoin:round;stroke-miterlimit:14.336;stroke-dasharray:none;stroke-opacity:1"
             id="path118" /></g></g></g><g
       id="g120"><g
         id="g122"
         clip-path="url(#clipPath126)"><g
           id="g128"
           transform="translate(104.375,624.4468)"><path
             d="M 0,0 C 3.497,7.948 -1.875,14.758 -1.875,22.288"
             style="fill:none;stroke:#231f20;stroke-width:0.75;stroke-linecap:butt;stroke-linejoin:miter;stroke-miterlimit:10;stroke-dasharray:none;stroke-opacity:1"
             id="path130" /></g><g
           id="g132"
           transform="translate(117.645,635.5752)"><path
             d="M 0,0 H 14.922"
             style="fill:none;stroke:#231f20;stroke-width:0.5;stroke-linecap:butt;stroke-linejoin:miter;stroke-miterlimit:4;stroke-dasharray:none;stroke-opacity:1"
             id="path134" /></g><g
           id="g136"
           transform="translate(154.2646,627.6489)"><path
             d="m 0,0 c 0,-1.1 -0.9,-2 -2,-2 h -17.505 c -1.1,0 -2,0.9 -2,2 v 15.986 c 0,1.1 0.9,2 2,2 H -2 c 1.1,0 2,-0.9 2,-2 z"
             style="fill:#deecf5;fill-opacity:1;fill-rule:nonzero;stroke:none"
             id="path138" /></g><g
           id="g140"
           transform="translate(154.2646,627.6489)"><path
             d="m 0,0 c 0,-1.1 -0.9,-2 -2,-2 h -17.505 c -1.1,0 -2,0.9 -2,2 v 15.986 c 0,1.1 0.9,2 2,2 H -2 c 1.1,0 2,-0.9 2,-2 z"
             style="fill:none;stroke:#231f20;stroke-width:0.5;stroke-linecap:butt;stroke-linejoin:round;stroke-miterlimit:14.336;stroke-dasharray:none;stroke-opacity:1"
             id="path142" /></g><text
           transform="matrix(1,0,0,-1,138.4556,632.8872)"
           style="font-variant:normal;font-weight:normal;font-stretch:normal;font-size:7px;font-family:Arial;-inkscape-font-specification:ArialMT;writing-mode:lr-tb;fill:#231f20;fill-opacity:1;fill-rule:nonzero;stroke:none"
           id="text146"><tspan
             x="0 4.6690001 6.223"
             y="0"
             sodipodi:role="line"
             id="tspan144">Big</tspan></text><g
           id="g148"
           transform="translate(255.6235,602.9111)"><path
             d="m 0,0 c 0,-1.1 -0.9,-2 -2,-2 h -17.507 c -1.1,0 -2,0.9 -2,2 v 15.988 c 0,1.1 0.9,2 2,2 H -2 c 1.1,0 2,-0.9 2,-2 z"
             style="fill:#deecf5;fill-opacity:1;fill-rule:nonzero;stroke:none"
             id="path150" /></g><g
           id="g152"
           transform="translate(255.6235,602.9111)"><path
             d="m 0,0 c 0,-1.1 -0.9,-2 -2,-2 h -17.507 c -1.1,0 -2,0.9 -2,2 v 15.988 c 0,1.1 0.9,2 2,2 H -2 c 1.1,0 2,-0.9 2,-2 z"
             style="fill:none;stroke:#231f20;stroke-width:0.5;stroke-linecap:butt;stroke-linejoin:round;stroke-miterlimit:14.336;stroke-dasharray:none;stroke-opacity:1"
             id="path154" /></g><g
           id="g156"
           transform="translate(157.8193,635.5752)"><path
             d="M 0,0 H 10.181"
             style="fill:none;stroke:#231f20;stroke-width:0.5;stroke-linecap:butt;stroke-linejoin:miter;stroke-miterlimit:4;stroke-dasharray:none;stroke-opacity:1"
             id="path158" /></g><g
           id="g160"
           transform="translate(117.9053,632.397)"><path
             d="M 0,0 H 9.684 V -21.585 H 116.313"
             style="fill:none;stroke:#231f20;stroke-width:0.5;stroke-linecap:butt;stroke-linejoin:miter;stroke-miterlimit:4;stroke-dasharray:none;stroke-opacity:1"
             id="path162" /></g><g
           id="g164"
           transform="translate(189.5879,627.6489)"><path
             d="m 0,0 c 0,-1.1 -0.9,-2 -2,-2 h -17.506 c -1.1,0 -2,0.9 -2,2 v 15.986 c 0,1.1 0.9,2 2,2 H -2 c 1.1,0 2,-0.9 2,-2 z"
             style="fill:#deecf5;fill-opacity:1;fill-rule:nonzero;stroke:none"
             id="path166" /></g><g
           id="g168"
           transform="translate(189.5879,627.6489)"><path
             d="m 0,0 c 0,-1.1 -0.9,-2 -2,-2 h -17.506 c -1.1,0 -2,0.9 -2,2 v 15.986 c 0,1.1 0.9,2 2,2 H -2 c 1.1,0 2,-0.9 2,-2 z"
             style="fill:none;stroke:#231f20;stroke-width:0.5;stroke-linecap:butt;stroke-linejoin:round;stroke-miterlimit:14.336;stroke-dasharray:none;stroke-opacity:1"
             id="path170" /></g><g
           id="g172"
           transform="translate(440.3535,627.6489)"><path
             d="m 0,0 c 0,-1.1 -0.9,-2 -2,-2 h -17.506 c -1.099,0 -2,0.9 -2,2 v 15.986 c 0,1.1 0.901,2 2,2 H -2 c 1.1,0 2,-0.9 2,-2 z"
             style="fill:#deecf5;fill-opacity:1;fill-rule:nonzero;stroke:none"
             id="path174" /></g><g
           id="g176"
           transform="translate(440.3535,627.6489)"><path
             d="m 0,0 c 0,-1.1 -0.9,-2 -2,-2 h -17.506 c -1.099,0 -2,0.9 -2,2 v 15.986 c 0,1.1 0.901,2 2,2 H -2 c 1.1,0 2,-0.9 2,-2 z"
             style="fill:none;stroke:#231f20;stroke-width:0.5;stroke-linecap:butt;stroke-linejoin:round;stroke-miterlimit:14.336;stroke-dasharray:none;stroke-opacity:1"
             id="path178" /></g><g
           id="g180"
           transform="translate(193.1431,635.5752)"><path
             d="M 0,0 H 10.179"
             style="fill:none;stroke:#231f20;stroke-width:0.5;stroke-linecap:butt;stroke-linejoin:miter;stroke-miterlimit:4;stroke-dasharray:none;stroke-opacity:1"
             id="path182" /></g><g
           id="g184"
           transform="translate(228.4658,635.5752)"><path
             d="M 0,0 H 10.18"
             style="fill:none;stroke:#231f20;stroke-width:0.5;stroke-linecap:butt;stroke-linejoin:miter;stroke-miterlimit:4;stroke-dasharray:none;stroke-opacity:1"
             id="path186" /></g><g
           id="g188"
           transform="translate(263.7886,635.5752)"><path
             d="M 0,0 H 10.18"
             style="fill:none;stroke:#231f20;stroke-width:0.5;stroke-linecap:butt;stroke-linejoin:miter;stroke-miterlimit:4;stroke-dasharray:none;stroke-opacity:1"
             id="path190" /></g><g
           id="g192"
           transform="translate(359.5078,635.5752)"><path
             d="M 0,0 H 59.359"
             style="fill:none;stroke:#231f20;stroke-width:0.5;stroke-linecap:butt;stroke-linejoin:miter;stroke-miterlimit:4;stroke-dasharray:none;stroke-opacity:1"
             id="path194" /></g><g
           id="g196"
           transform="translate(299.189,635.5752)"><path
             d="M 0,0 H 35.243"
             style="fill:none;stroke:#231f20;stroke-width:0.5;stroke-linecap:butt;stroke-linejoin:miter;stroke-miterlimit:4;stroke-dasharray:none;stroke-opacity:1"
             id="path198" /></g><g
           id="g200"
           transform="translate(224.9126,627.6489)"><path
             d="m 0,0 c 0,-1.1 -0.9,-2 -2,-2 h -17.507 c -1.1,0 -2,0.9 -2,2 v 15.986 c 0,1.1 0.9,2 2,2 H -2 c 1.1,0 2,-0.9 2,-2 z"
             style="fill:#deecf5;fill-opacity:1;fill-rule:nonzero;stroke:none"
             id="path202" /></g><g
           id="g204"
           transform="translate(224.9126,627.6489)"><path
             d="m 0,0 c 0,-1.1 -0.9,-2 -2,-2 h -17.507 c -1.1,0 -2,0.9 -2,2 v 15.986 c 0,1.1 0.9,2 2,2 H -2 c 1.1,0 2,-0.9 2,-2 z"
             style="fill:none;stroke:#231f20;stroke-width:0.5;stroke-linecap:butt;stroke-linejoin:round;stroke-miterlimit:14.336;stroke-dasharray:none;stroke-opacity:1"
             id="path206" /></g><g
           id="g208"
           transform="translate(260.2339,627.6489)"><path
             d="m 0,0 c 0,-1.1 -0.9,-2 -2,-2 h -17.506 c -1.1,0 -2,0.9 -2,2 v 15.986 c 0,1.1 0.9,2 2,2 H -2 c 1.1,0 2,-0.9 2,-2 z"
             style="fill:#deecf5;fill-opacity:1;fill-rule:nonzero;stroke:none"
             id="path210" /></g><g
           id="g212"
           transform="translate(260.2339,627.6489)"><path
             d="m 0,0 c 0,-1.1 -0.9,-2 -2,-2 h -17.506 c -1.1,0 -2,0.9 -2,2 v 15.986 c 0,1.1 0.9,2 2,2 H -2 c 1.1,0 2,-0.9 2,-2 z"
             style="fill:none;stroke:#231f20;stroke-width:0.5;stroke-linecap:butt;stroke-linejoin:round;stroke-miterlimit:14.336;stroke-dasharray:none;stroke-opacity:1"
             id="path214" /></g><g
           id="g216"
           transform="translate(295.5586,627.6489)"><path
             d="m 0,0 c 0,-1.1 -0.9,-2 -2,-2 h -17.507 c -1.1,0 -2,0.9 -2,2 v 15.986 c 0,1.1 0.9,2 2,2 H -2 c 1.1,0 2,-0.9 2,-2 z"
             style="fill:#deecf5;fill-opacity:1;fill-rule:nonzero;stroke:none"
             id="path218" /></g><g
           id="g220"
           transform="translate(295.5586,627.6489)"><path
             d="m 0,0 c 0,-1.1 -0.9,-2 -2,-2 h -17.507 c -1.1,0 -2,0.9 -2,2 v 15.986 c 0,1.1 0.9,2 2,2 H -2 c 1.1,0 2,-0.9 2,-2 z"
             style="fill:none;stroke:#231f20;stroke-width:0.5;stroke-linecap:butt;stroke-linejoin:round;stroke-miterlimit:14.336;stroke-dasharray:none;stroke-opacity:1"
             id="path222" /></g><g
           id="g224"
           transform="translate(355.8906,627.6489)"><path
             d="m 0,0 c 0,-1.1 -0.9,-2 -2,-2 h -17.512 c -1.099,0 -2,0.9 -2,2 v 15.986 c 0,1.1 0.901,2 2,2 H -2 c 1.1,0 2,-0.9 2,-2 z"
             style="fill:#deecf5;fill-opacity:1;fill-rule:nonzero;stroke:none"
             id="path226" /></g><g
           id="g228"
           transform="translate(355.8906,627.6489)"><path
             d="m 0,0 c 0,-1.1 -0.9,-2 -2,-2 h -17.512 c -1.099,0 -2,0.9 -2,2 v 15.986 c 0,1.1 0.901,2 2,2 H -2 c 1.1,0 2,-0.9 2,-2 z"
             style="fill:none;stroke:#231f20;stroke-width:0.5;stroke-linecap:butt;stroke-linejoin:round;stroke-miterlimit:14.336;stroke-dasharray:none;stroke-opacity:1"
             id="path230" /></g><g
           id="g232"
           transform="translate(319.6504,602.9111)"><path
             d="m 0,0 c 0,-1.1 -0.9,-2 -2,-2 h -17.506 c -1.1,0 -2,0.9 -2,2 v 15.988 c 0,1.1 0.9,2 2,2 H -2 c 1.1,0 2,-0.9 2,-2 z"
             style="fill:#deecf5;fill-opacity:1;fill-rule:nonzero;stroke:none"
             id="path234" /></g><g
           id="g236"
           transform="translate(319.6504,602.9111)"><path
             d="m 0,0 c 0,-1.1 -0.9,-2 -2,-2 h -17.506 c -1.1,0 -2,0.9 -2,2 v 15.988 c 0,1.1 0.9,2 2,2 H -2 c 1.1,0 2,-0.9 2,-2 z"
             style="fill:none;stroke:#231f20;stroke-width:0.5;stroke-linecap:butt;stroke-linejoin:round;stroke-miterlimit:14.336;stroke-dasharray:none;stroke-opacity:1"
             id="path238" /></g><g
           id="g240"
           transform="translate(363.832,602.9111)"><path
             d="m 0,0 c 0,-1.1 -0.9,-2 -2,-2 h -17.508 c -1.099,0 -2,0.9 -2,2 v 15.988 c 0,1.1 0.901,2 2,2 H -2 c 1.1,0 2,-0.9 2,-2 z"
             style="fill:#deecf5;fill-opacity:1;fill-rule:nonzero;stroke:none"
             id="path242" /></g><g
           id="g244"
           transform="translate(363.832,602.9111)"><path
             d="m 0,0 c 0,-1.1 -0.9,-2 -2,-2 h -17.508 c -1.099,0 -2,0.9 -2,2 v 15.988 c 0,1.1 0.901,2 2,2 H -2 c 1.1,0 2,-0.9 2,-2 z"
             style="fill:none;stroke:#231f20;stroke-width:0.5;stroke-linecap:butt;stroke-linejoin:round;stroke-miterlimit:14.336;stroke-dasharray:none;stroke-opacity:1"
             id="path246" /></g><g
           id="g248"
           transform="translate(393.2949,602.9111)"><path
             d="m 0,0 c 0,-1.1 -0.9,-2 -2,-2 h -17.506 c -1.099,0 -2,0.9 -2,2 v 15.988 c 0,1.1 0.901,2 2,2 H -2 c 1.1,0 2,-0.9 2,-2 z"
             style="fill:#deecf5;fill-opacity:1;fill-rule:nonzero;stroke:none"
             id="path250" /></g><g
           id="g252"
           transform="translate(393.2949,602.9111)"><path
             d="m 0,0 c 0,-1.1 -0.9,-2 -2,-2 h -17.506 c -1.099,0 -2,0.9 -2,2 v 15.988 c 0,1.1 0.901,2 2,2 H -2 c 1.1,0 2,-0.9 2,-2 z"
             style="fill:none;stroke:#231f20;stroke-width:0.5;stroke-linecap:butt;stroke-linejoin:round;stroke-miterlimit:14.336;stroke-dasharray:none;stroke-opacity:1"
             id="path254" /></g><g
           id="g256"
           transform="translate(367.4766,610.8389)"><path
             d="M 0,0 H 4.119"
             style="fill:none;stroke:#231f20;stroke-width:0.5;stroke-linecap:butt;stroke-linejoin:miter;stroke-miterlimit:4;stroke-dasharray:none;stroke-opacity:1"
             id="path258" /></g><g
           id="g260"
           transform="translate(323.3008,610.8389)"><path
             d="M 0,0 H 18.834"
             style="fill:none;stroke:#231f20;stroke-width:0.5;stroke-linecap:butt;stroke-linejoin:miter;stroke-miterlimit:4;stroke-dasharray:none;stroke-opacity:1"
             id="path262" /></g><g
           id="g264"
           transform="translate(452.0566,602.9111)"><path
             d="m 0,0 c 0,-1.1 -0.9,-2 -2,-2 h -17.508 c -1.099,0 -2,0.9 -2,2 v 15.988 c 0,1.1 0.901,2 2,2 H -2 c 1.1,0 2,-0.9 2,-2 z"
             style="fill:#deecf5;fill-opacity:1;fill-rule:nonzero;stroke:none"
             id="path266" /></g><g
           id="g268"
           transform="translate(452.0566,602.9111)"><path
             d="m 0,0 c 0,-1.1 -0.9,-2 -2,-2 h -17.508 c -1.099,0 -2,0.9 -2,2 v 15.988 c 0,1.1 0.901,2 2,2 H -2 c 1.1,0 2,-0.9 2,-2 z"
             style="fill:none;stroke:#231f20;stroke-width:0.5;stroke-linecap:butt;stroke-linejoin:round;stroke-miterlimit:14.336;stroke-dasharray:none;stroke-opacity:1"
             id="path270" /></g><g
           id="g272"
           transform="translate(426.2402,610.8389)"><path
             d="M 0,0 H 4.117"
             style="fill:none;stroke:#231f20;stroke-width:0.5;stroke-linecap:butt;stroke-linejoin:miter;stroke-miterlimit:4;stroke-dasharray:none;stroke-opacity:1"
             id="path274" /></g><g
           id="g276"
           transform="translate(396.7773,610.8389)"><path
             d="M 0,0 H 4.117"
             style="fill:none;stroke:#231f20;stroke-width:0.5;stroke-linecap:butt;stroke-linejoin:miter;stroke-miterlimit:4;stroke-dasharray:none;stroke-opacity:1"
             id="path278" /></g><g
           id="g280"
           transform="translate(259.2134,610.8389)"><path
             d="M 0,0 H 38.742"
             style="fill:none;stroke:#231f20;stroke-width:0.5;stroke-linecap:butt;stroke-linejoin:miter;stroke-miterlimit:4;stroke-dasharray:none;stroke-opacity:1"
             id="path282" /></g><g
           id="g284"
           transform="translate(422.5898,602.9111)"><path
             d="m 0,0 c 0,-1.1 -0.9,-2 -2,-2 h -17.504 c -1.1,0 -2,0.9 -2,2 v 15.986 c 0,1.1 0.9,2 2,2 H -2 c 1.1,0 2,-0.9 2,-2 z"
             style="fill:#deecf5;fill-opacity:1;fill-rule:nonzero;stroke:none"
             id="path286" /></g><g
           id="g288"
           transform="translate(422.5898,602.9111)"><path
             d="m 0,0 c 0,-1.1 -0.9,-2 -2,-2 h -17.504 c -1.1,0 -2,0.9 -2,2 v 15.986 c 0,1.1 0.9,2 2,2 H -2 c 1.1,0 2,-0.9 2,-2 z"
             style="fill:none;stroke:#231f20;stroke-width:0.5;stroke-linecap:butt;stroke-linejoin:round;stroke-miterlimit:14.336;stroke-dasharray:none;stroke-opacity:1"
             id="path290" /></g><g
           id="g292"
           transform="translate(510.8145,602.9111)"><path
             d="m 0,0 c 0,-1.1 -0.9,-2 -2,-2 h -17.506 c -1.099,0 -2,0.9 -2,2 v 15.988 c 0,1.1 0.901,2 2,2 H -2 c 1.1,0 2,-0.9 2,-2 z"
             style="fill:#deecf5;fill-opacity:1;fill-rule:nonzero;stroke:none"
             id="path294" /></g><g
           id="g296"
           transform="translate(510.8145,602.9111)"><path
             d="m 0,0 c 0,-1.1 -0.9,-2 -2,-2 h -17.506 c -1.099,0 -2,0.9 -2,2 v 15.988 c 0,1.1 0.901,2 2,2 H -2 c 1.1,0 2,-0.9 2,-2 z"
             style="fill:none;stroke:#231f20;stroke-width:0.5;stroke-linecap:butt;stroke-linejoin:round;stroke-miterlimit:14.336;stroke-dasharray:none;stroke-opacity:1"
             id="path298" /></g><g
           id="g300"
           transform="translate(484.998,610.8389)"><path
             d="M 0,0 H 4.119"
             style="fill:none;stroke:#231f20;stroke-width:0.5;stroke-linecap:butt;stroke-linejoin:miter;stroke-miterlimit:4;stroke-dasharray:none;stroke-opacity:1"
             id="path302" /></g><g
           id="g304"
           transform="translate(455.5371,610.8389)"><path
             d="M 0,0 H 4.121"
             style="fill:none;stroke:#231f20;stroke-width:0.5;stroke-linecap:butt;stroke-linejoin:miter;stroke-miterlimit:4;stroke-dasharray:none;stroke-opacity:1"
             id="path306" /></g><g
           id="g308"
           transform="translate(481.3516,602.9111)"><path
             d="m 0,0 c 0,-1.1 -0.9,-2 -2,-2 h -17.506 c -1.099,0 -2,0.9 -2,2 v 15.986 c 0,1.1 0.901,2 2,2 H -2 c 1.1,0 2,-0.9 2,-2 z"
             style="fill:#deecf5;fill-opacity:1;fill-rule:nonzero;stroke:none"
             id="path310" /></g><g
           id="g312"
           transform="translate(481.3516,602.9111)"><path
             d="m 0,0 c 0,-1.1 -0.9,-2 -2,-2 h -17.506 c -1.099,0 -2,0.9 -2,2 v 15.986 c 0,1.1 0.901,2 2,2 H -2 c 1.1,0 2,-0.9 2,-2 z"
             style="fill:none;stroke:#231f20;stroke-width:0.5;stroke-linecap:butt;stroke-linejoin:round;stroke-miterlimit:14.336;stroke-dasharray:none;stroke-opacity:1"
             id="path314" /></g></g></g></g></svg>
