<?xml version="1.0" encoding="UTF-8" standalone="no"?>
<svg
   xmlns:dc="http://purl.org/dc/elements/1.1/"
   xmlns:cc="http://creativecommons.org/ns#"
   xmlns:rdf="http://www.w3.org/1999/02/22-rdf-syntax-ns#"
   xmlns:svg="http://www.w3.org/2000/svg"
   xmlns="http://www.w3.org/2000/svg"
   xmlns:sodipodi="http://sodipodi.sourceforge.net/DTD/sodipodi-0.dtd"
   xmlns:inkscape="http://www.inkscape.org/namespaces/inkscape"
   version="1.1"
   id="svg2"
   xml:space="preserve"
   width="476.08984"
   height="212.56903"
   viewBox="0 0 476.08984 212.56903"
   sodipodi:docname="u11-10.ai"><metadata
     id="metadata8"><rdf:RDF><cc:Work
         rdf:about=""><dc:format>image/svg+xml</dc:format><dc:type
           rdf:resource="http://purl.org/dc/dcmitype/StillImage" /></cc:Work></rdf:RDF></metadata><defs
     id="defs6"><clipPath
       clipPathUnits="userSpaceOnUse"
       id="clipPath18"><path
         d="M 0,792 H 612 V 0 H 0 Z"
         id="path16" /></clipPath><clipPath
       clipPathUnits="userSpaceOnUse"
       id="clipPath114"><path
         d="m 124.918,654.514 c 0.091,-9.166 5.99,-15.888 2.082,-25.122 v 0 h 12.468 v 25.122 z"
         id="path112" /></clipPath><clipPath
       clipPathUnits="userSpaceOnUse"
       id="clipPath130"><path
         d="M 0,792 H 612 V 0 H 0 Z"
         id="path128" /></clipPath><clipPath
       clipPathUnits="userSpaceOnUse"
       id="clipPath302"><path
         d="m 124.918,538.373 c 0.091,-9.167 5.99,-15.889 2.082,-25.123 v 0 h 12.468 v 25.123 z"
         id="path300" /></clipPath><clipPath
       clipPathUnits="userSpaceOnUse"
       id="clipPath318"><path
         d="M 0,792 H 612 V 0 H 0 Z"
         id="path316" /></clipPath></defs><sodipodi:namedview
     pagecolor="#ffffff"
     bordercolor="#666666"
     borderopacity="1"
     objecttolerance="10"
     gridtolerance="10"
     guidetolerance="10"
     inkscape:pageopacity="0"
     inkscape:pageshadow="2"
     inkscape:window-width="640"
     inkscape:window-height="480"
     id="namedview4" /><g
     id="g10"
     inkscape:groupmode="layer"
     inkscape:label="u11-10"
     transform="matrix(1.3333333,0,0,-1.3333333,-166.02266,884.30404)"><g
       id="g12"><g
         id="g14"
         clip-path="url(#clipPath18)"><g
           id="g20"
           transform="translate(353.1953,626.541)"><path
             d="m 0,0 v 0 c 0,16.267 28.684,29.452 64.068,29.452 35.383,0 64.07,-13.185 64.07,-29.452 0,-16.265 -28.687,-29.451 -64.07,-29.451 C 28.684,-29.451 0,-16.265 0,0"
             style="fill:#fef0be;fill-opacity:1;fill-rule:nonzero;stroke:none"
             id="path22" /></g><g
           id="g24"
           transform="translate(353.1953,626.541)"><path
             d="m 0,0 v 0 c 0,16.267 28.684,29.452 64.068,29.452 35.383,0 64.07,-13.185 64.07,-29.452 0,-16.265 -28.687,-29.451 -64.07,-29.451 C 28.684,-29.451 0,-16.265 0,0 Z"
             style="fill:none;stroke:#231f20;stroke-width:0.5;stroke-linecap:butt;stroke-linejoin:miter;stroke-miterlimit:4;stroke-dasharray:none;stroke-opacity:1"
             id="path26" /></g><g
           id="g28"
           transform="translate(353.1953,626.541)"><path
             d="m 0,0 v 0 c 0,16.267 28.684,29.452 64.068,29.452 35.383,0 64.07,-13.185 64.07,-29.452 0,-16.265 -28.687,-29.451 -64.07,-29.451 C 28.684,-29.451 0,-16.265 0,0"
             style="fill:#d9c4e6;fill-opacity:1;fill-rule:nonzero;stroke:none"
             id="path30" /></g><g
           id="g32"
           transform="translate(353.1953,626.541)"><path
             d="m 0,0 v 0 c 0,16.267 28.684,29.452 64.068,29.452 35.383,0 64.07,-13.185 64.07,-29.452 0,-16.265 -28.687,-29.451 -64.07,-29.451 C 28.684,-29.451 0,-16.265 0,0 Z"
             style="fill:none;stroke:#231f20;stroke-width:0.5;stroke-linecap:butt;stroke-linejoin:miter;stroke-miterlimit:4;stroke-dasharray:none;stroke-opacity:1"
             id="path34" /></g><g
           id="g36"
           transform="translate(365.4648,618.437)"><path
             d="m 0,0 c 0,10.608 23.191,19.209 51.799,19.209 28.607,0 51.799,-8.601 51.799,-19.209 0,-10.609 -23.192,-19.209 -51.799,-19.209 C 23.191,-19.209 0,-10.609 0,0"
             style="fill:#deecf5;fill-opacity:1;fill-rule:nonzero;stroke:none"
             id="path38" /></g><g
           id="g40"
           transform="translate(365.4648,618.437)"><path
             d="m 0,0 c 0,10.608 23.191,19.209 51.799,19.209 28.607,0 51.799,-8.601 51.799,-19.209 0,-10.609 -23.192,-19.209 -51.799,-19.209 C 23.191,-19.209 0,-10.609 0,0 Z"
             style="fill:none;stroke:#231f20;stroke-width:0.5;stroke-linecap:butt;stroke-linejoin:round;stroke-miterlimit:14.336;stroke-dasharray:none;stroke-opacity:1"
             id="path42" /></g><g
           id="g44"
           transform="translate(353.1934,541.5)"><path
             d="m 0,0 c 0,13.123 28.684,23.761 64.07,23.761 35.383,0 64.071,-10.638 64.071,-23.761 0,-13.123 -28.688,-23.761 -64.071,-23.761 C 28.684,-23.761 0,-13.123 0,0"
             style="fill:#deecf5;fill-opacity:1;fill-rule:nonzero;stroke:none"
             id="path46" /></g><g
           id="g48"
           transform="translate(353.1934,541.5)"><path
             d="m 0,0 c 0,13.123 28.684,23.761 64.07,23.761 35.383,0 64.071,-10.638 64.071,-23.761 0,-13.123 -28.688,-23.761 -64.071,-23.761 C 28.684,-23.761 0,-13.123 0,0 Z"
             style="fill:none;stroke:#231f20;stroke-width:0.5;stroke-linecap:butt;stroke-linejoin:round;stroke-miterlimit:14.336;stroke-dasharray:none;stroke-opacity:1"
             id="path50" /></g><g
           id="g52"
           transform="translate(373.5547,531.7583)"><path
             d="M 0,0 V 0 C 0,6.585 19.569,11.922 43.709,11.922 67.849,11.922 87.418,6.585 87.418,0 87.418,-6.583 67.849,-11.921 43.709,-11.921 19.569,-11.921 0,-6.583 0,0"
             style="fill:#d9c4e6;fill-opacity:1;fill-rule:nonzero;stroke:none"
             id="path54" /></g><g
           id="g56"
           transform="translate(373.5547,531.7583)"><path
             d="M 0,0 V 0 C 0,6.585 19.569,11.922 43.709,11.922 67.849,11.922 87.418,6.585 87.418,0 87.418,-6.583 67.849,-11.921 43.709,-11.921 19.569,-11.921 0,-6.583 0,0 Z"
             style="fill:none;stroke:#231f20;stroke-width:0.5;stroke-linecap:butt;stroke-linejoin:miter;stroke-miterlimit:4;stroke-dasharray:none;stroke-opacity:1"
             id="path58" /></g><text
           transform="matrix(1,0,0,-1,324.4541,657.0801)"
           style="font-variant:normal;font-weight:bold;font-stretch:condensed;font-size:9px;font-family:'Humanst521 Cn BT';-inkscape-font-specification:Humanist521BT-BoldCondensed;writing-mode:lr-tb;fill:#231f20;fill-opacity:1;fill-rule:nonzero;stroke:none"
           id="text80"><tspan
             x="0 3.78 8.1269999 11.52 13.824 18.261 22.743 26.243999 28.403999 32.750999 36.251999 39.852001 44.342999 48.825001 53.306999"
             y="0"
             sodipodi:role="line"
             id="tspan60">Vor Auslöschung</tspan><tspan
             x="0 4.1040001 8.0640001 11.565 15.165 19.656 24.138 27.135 30.716999"
             y="9.5039997"
             sodipodi:role="line"
             id="tspan62">geschützt</tspan><tspan
             x="17.163 21.888 24.021 27.521999 29.655001 33.84 38.187 40.491001 45 48.959999"
             y="75.897003"
             sodipodi:role="line"
             id="tspan64">Risiko der</tspan><tspan
             x="17.163 21.6 26.082001 29.583 31.743 36.09 39.591 43.191002 47.681999 52.164001 56.646"
             y="85.401001"
             sodipodi:role="line"
             id="tspan66">Auslöschung</tspan><tspan
             x="0.99900001 4.7789998 9.1260004 12.519 14.823 19.26 23.742001 27.243 29.403 33.75 37.250999 40.851002 45.341999 49.824001 54.306"
             y="141.705"
             sodipodi:role="line"
             id="tspan68">Vor Auslöschung</tspan><tspan
             x="0.99900001 5.1030002 9.0629997 12.564 16.164 20.655001 25.136999 28.134001 31.716"
             y="151.209"
             sodipodi:role="line"
             id="tspan70">geschützt</tspan><tspan
             x="-189.981 -185.13901 -181.746 -179.61301 -176.013 -171.522"
             y="58.401001"
             sodipodi:role="line"
             id="tspan72">Bricht</tspan><tspan
             x="-189.981 -185.54401 -181.91701 -177.867 -175.563 -170.838 -166.87801 -162.774 -158.814 -156.65401"
             y="67.904999"
             sodipodi:role="line"
             id="tspan74">ALT Regeln</tspan><tspan
             x="-189.981 -185.13901 -181.746 -179.61301 -176.013 -171.522"
             y="89.010002"
             sodipodi:role="line"
             id="tspan76">Bricht</tspan><tspan
             x="-189.981 -184.743 -180.306 -175.077 -172.77299 -168.048 -164.088 -159.98399 -156.024 -153.864"
             y="98.514"
             sodipodi:role="line"
             id="tspan78">NEU Regeln</tspan></text><text
           transform="matrix(1,0,0,-1,398.7812,619.1572)"
           style="font-variant:normal;font-weight:normal;font-stretch:normal;font-size:7px;font-family:Arial;-inkscape-font-specification:ArialMT;writing-mode:lr-tb;fill:#231f20;fill-opacity:1;fill-rule:nonzero;stroke:none"
           id="text90"><tspan
             x="0 4.6690001 8.5609999 12.838 14.784 19.837999 23.73 27.622 31.514 33.068001"
             y="0"
             sodipodi:role="line"
             id="tspan82">ALT Regeln</tspan><tspan
             x="0 4.6690001 8.5609999 12.838 14.784 19.837999 23.73 27.622 31.514 33.068001"
             y="67.431"
             sodipodi:role="line"
             id="tspan84">ALT Regeln</tspan><tspan
             x="-23.344999 -18.676001 -16.73 -14.399 -10.507 -6.6149998 -2.723 1.169 3.5 7.3920002 9.3380003 14.392 18.284 22.176001 26.068001 27.622 31.514 33.459999 35.405998 38.905998 42.798 44.743999 46.689999 48.636002 50.582001 54.473999 56.805"
             y="89.557999"
             sodipodi:role="line"
             id="tspan86">Strengere Regeln: soft fork</tspan><tspan
             x="-20.041 -16.149 -12.257 -8.757 -4.8649998 -2.5339999 1.358 3.3039999 8.3579998 12.25 16.142 20.034 21.587999 25.48 27.426001 29.372 33.264 37.155998 39.487 43.379002 45.325001 47.271 51.162998 53.493999"
             y="-22.525999"
             sodipodi:role="line"
             id="tspan88">Losere Regeln: hard fork</tspan></text><g
           id="g92"
           transform="translate(187.0698,638.8804)"><path
             d="m 0,0 h 4.014 v -27.901 h 5.16"
             style="fill:none;stroke:#231f20;stroke-width:0.5;stroke-linecap:butt;stroke-linejoin:miter;stroke-miterlimit:4;stroke-dasharray:none;stroke-opacity:1"
             id="path94" /></g><g
           id="g96"
           transform="translate(220.5493,601.8398)"><path
             d="m 0,0 c 0,-1.1 -0.9,-2 -2,-2 h -20.199 c -1.1,0 -2,0.9 -2,2 v 18.49 c 0,1.1 0.9,2 2,2 H -2 c 1.1,0 2,-0.9 2,-2 z"
             style="fill:#d9c4e6;fill-opacity:1;fill-rule:nonzero;stroke:none"
             id="path98" /></g><g
           id="g100"
           transform="translate(220.5493,601.8398)"><path
             d="m 0,0 c 0,-1.1 -0.9,-2 -2,-2 h -20.199 c -1.1,0 -2,0.9 -2,2 v 18.49 c 0,1.1 0.9,2 2,2 H -2 c 1.1,0 2,-0.9 2,-2 z"
             style="fill:none;stroke:#231f20;stroke-width:0.5;stroke-linecap:butt;stroke-linejoin:round;stroke-miterlimit:14.336;stroke-dasharray:none;stroke-opacity:1"
             id="path102" /></g><text
           transform="matrix(1,0,0,-1,202.0298,608.7451)"
           style="font-variant:normal;font-weight:normal;font-stretch:normal;font-size:7px;font-family:Arial;-inkscape-font-specification:ArialMT;writing-mode:lr-tb;fill:#231f20;fill-opacity:1;fill-rule:nonzero;stroke:none"
           id="text106"><tspan
             x="0 5.0539999 8.9460001"
             y="0"
             sodipodi:role="line"
             id="tspan104">Neu</tspan></text></g></g><g
       id="g108"><g
         id="g110"
         clip-path="url(#clipPath114)"><g
           id="g116"
           transform="translate(137.8687,632.6694)"><path
             d="m 0,0 c 0,-1.1 -0.9,-2 -2,-2 h -12.803 c -1.1,0 -2,0.9 -2,2 v 18.49 c 0,1.1 0.9,2 2,2 H -2 c 1.1,0 2,-0.9 2,-2 z"
             style="fill:#deecf5;fill-opacity:1;fill-rule:nonzero;stroke:none"
             id="path118" /></g><g
           id="g120"
           transform="translate(137.8687,632.6694)"><path
             d="m 0,0 c 0,-1.1 -0.9,-2 -2,-2 h -12.803 c -1.1,0 -2,0.9 -2,2 v 18.49 c 0,1.1 0.9,2 2,2 H -2 c 1.1,0 2,-0.9 2,-2 z"
             style="fill:none;stroke:#231f20;stroke-width:0.5;stroke-linecap:butt;stroke-linejoin:round;stroke-miterlimit:14.336;stroke-dasharray:none;stroke-opacity:1"
             id="path122" /></g></g></g><g
       id="g124"><g
         id="g126"
         clip-path="url(#clipPath130)"><g
           id="g132"
           transform="translate(127,629.3916)"><path
             d="M 0,0 C 3.935,8.944 -2.108,16.607 -2.108,25.081"
             style="fill:none;stroke:#231f20;stroke-width:0.75;stroke-linecap:butt;stroke-linejoin:miter;stroke-miterlimit:10;stroke-dasharray:none;stroke-opacity:1"
             id="path134" /></g><g
           id="g136"
           transform="translate(141.9321,641.915)"><path
             d="M 0,0 H 16.655"
             style="fill:none;stroke:#231f20;stroke-width:0.5;stroke-linecap:butt;stroke-linejoin:miter;stroke-miterlimit:4;stroke-dasharray:none;stroke-opacity:1"
             id="path138" /></g><g
           id="g140"
           transform="translate(183,632.7456)"><path
             d="m 0,0 c 0,-1.1 -0.9,-2 -2,-2 h -20.199 c -1.1,0 -2,0.9 -2,2 v 18.49 c 0,1.1 0.9,2 2,2 H -2 c 1.1,0 2,-0.9 2,-2 z"
             style="fill:#deecf5;fill-opacity:1;fill-rule:nonzero;stroke:none"
             id="path142" /></g><g
           id="g144"
           transform="translate(183,632.7456)"><path
             d="m 0,0 c 0,-1.1 -0.9,-2 -2,-2 h -20.199 c -1.1,0 -2,0.9 -2,2 v 18.49 c 0,1.1 0.9,2 2,2 H -2 c 1.1,0 2,-0.9 2,-2 z"
             style="fill:none;stroke:#231f20;stroke-width:0.5;stroke-linecap:butt;stroke-linejoin:round;stroke-miterlimit:14.336;stroke-dasharray:none;stroke-opacity:1"
             id="path146" /></g><text
           transform="matrix(1,0,0,-1,166.8159,639.6509)"
           style="font-variant:normal;font-weight:normal;font-stretch:normal;font-size:7px;font-family:Arial;-inkscape-font-specification:ArialMT;writing-mode:lr-tb;fill:#231f20;fill-opacity:1;fill-rule:nonzero;stroke:none"
           id="text150"><tspan
             x="0 4.6690001 6.223"
             y="0"
             sodipodi:role="line"
             id="tspan148">Alt</tspan></text><g
           id="g152"
           transform="translate(305.3262,632.7456)"><path
             d="m 0,0 c 0,-1.1 -0.9,-2 -2,-2 h -20.199 c -1.1,0 -2,0.9 -2,2 v 18.49 c 0,1.1 0.9,2 2,2 H -2 c 1.1,0 2,-0.9 2,-2 z"
             style="fill:#deecf5;fill-opacity:1;fill-rule:nonzero;stroke:none"
             id="path154" /></g><g
           id="g156"
           transform="translate(305.3262,632.7456)"><path
             d="m 0,0 c 0,-1.1 -0.9,-2 -2,-2 h -20.199 c -1.1,0 -2,0.9 -2,2 v 18.49 c 0,1.1 0.9,2 2,2 H -2 c 1.1,0 2,-0.9 2,-2 z"
             style="fill:none;stroke:#231f20;stroke-width:0.5;stroke-linecap:butt;stroke-linejoin:round;stroke-miterlimit:14.336;stroke-dasharray:none;stroke-opacity:1"
             id="path158" /></g><text
           transform="matrix(1,0,0,-1,289.1421,639.6509)"
           style="font-variant:normal;font-weight:normal;font-stretch:normal;font-size:7px;font-family:Arial;-inkscape-font-specification:ArialMT;writing-mode:lr-tb;fill:#231f20;fill-opacity:1;fill-rule:nonzero;stroke:none"
           id="text162"><tspan
             x="0 4.6690001 6.223"
             y="0"
             sodipodi:role="line"
             id="tspan160">Alt</tspan></text><g
           id="g164"
           transform="translate(244.1631,632.7456)"><path
             d="m 0,0 c 0,-1.1 -0.9,-2 -2,-2 h -20.199 c -1.1,0 -2,0.9 -2,2 v 18.49 c 0,1.1 0.9,2 2,2 H -2 c 1.1,0 2,-0.9 2,-2 z"
             style="fill:#deecf5;fill-opacity:1;fill-rule:nonzero;stroke:none"
             id="path166" /></g><g
           id="g168"
           transform="translate(244.1631,632.7456)"><path
             d="m 0,0 c 0,-1.1 -0.9,-2 -2,-2 h -20.199 c -1.1,0 -2,0.9 -2,2 v 18.49 c 0,1.1 0.9,2 2,2 H -2 c 1.1,0 2,-0.9 2,-2 z"
             style="fill:none;stroke:#231f20;stroke-width:0.5;stroke-linecap:butt;stroke-linejoin:round;stroke-miterlimit:14.336;stroke-dasharray:none;stroke-opacity:1"
             id="path170" /></g><text
           transform="matrix(1,0,0,-1,227.979,639.6509)"
           style="font-variant:normal;font-weight:normal;font-stretch:normal;font-size:7px;font-family:Arial;-inkscape-font-specification:ArialMT;writing-mode:lr-tb;fill:#231f20;fill-opacity:1;fill-rule:nonzero;stroke:none"
           id="text174"><tspan
             x="0 4.6690001 6.223"
             y="0"
             sodipodi:role="line"
             id="tspan172">Alt</tspan></text><g
           id="g176"
           transform="translate(186.999,641.915)"><path
             d="M 0,0 H 33.046"
             style="fill:none;stroke:#231f20;stroke-width:0.5;stroke-linecap:butt;stroke-linejoin:miter;stroke-miterlimit:4;stroke-dasharray:none;stroke-opacity:1"
             id="path178" /></g><g
           id="g180"
           transform="translate(140.6396,642.5176)"><path
             d="m 0,0 c 0.951,0.283 1.57,0.546 2.334,0.849 l -0.01,-2.902 c -0.271,0.131 -1.379,0.576 -2.326,0.867 -1.018,0.313 -1.939,0.524 -2.537,0.602 0.6,0.072 1.523,0.281 2.539,0.584"
             style="fill:#231f20;fill-opacity:1;fill-rule:nonzero;stroke:none"
             id="path182" /></g><g
           id="g184"
           transform="translate(185.7803,642.5176)"><path
             d="m 0,0 c 0.951,0.283 1.57,0.546 2.334,0.849 l -0.01,-2.902 c -0.271,0.131 -1.379,0.576 -2.326,0.867 -1.018,0.313 -1.939,0.524 -2.537,0.602 0.6,0.072 1.523,0.281 2.539,0.584"
             style="fill:#231f20;fill-opacity:1;fill-rule:nonzero;stroke:none"
             id="path186" /></g><g
           id="g188"
           transform="translate(223.3105,611.6118)"><path
             d="m 0,0 c 0.951,0.283 1.57,0.546 2.334,0.849 l -0.01,-2.902 c -0.271,0.131 -1.379,0.576 -2.326,0.867 -1.018,0.313 -1.939,0.524 -2.537,0.602 0.6,0.072 1.523,0.281 2.539,0.584"
             style="fill:#231f20;fill-opacity:1;fill-rule:nonzero;stroke:none"
             id="path190" /></g><g
           id="g192"
           transform="translate(268.2627,611.6118)"><path
             d="m 0,0 c 0.951,0.283 1.57,0.546 2.334,0.849 l -0.01,-2.902 c -0.271,0.131 -1.379,0.576 -2.326,0.867 -1.018,0.313 -1.939,0.524 -2.537,0.602 0.6,0.072 1.523,0.281 2.539,0.584"
             style="fill:#231f20;fill-opacity:1;fill-rule:nonzero;stroke:none"
             id="path194" /></g><g
           id="g196"
           transform="translate(246.9517,642.5176)"><path
             d="m 0,0 c 0.951,0.283 1.57,0.546 2.334,0.849 l -0.01,-2.902 c -0.271,0.131 -1.379,0.576 -2.326,0.867 -1.018,0.313 -1.939,0.524 -2.537,0.602 0.6,0.072 1.523,0.281 2.539,0.584"
             style="fill:#231f20;fill-opacity:1;fill-rule:nonzero;stroke:none"
             id="path198" /></g><g
           id="g200"
           transform="translate(185.7803,639.4824)"><path
             d="m 0,0 c 0.951,0.283 1.57,0.546 2.334,0.849 l -0.01,-2.902 c -0.271,0.131 -1.379,0.576 -2.326,0.867 -1.018,0.313 -1.939,0.524 -2.537,0.602 0.6,0.072 1.523,0.281 2.539,0.584"
             style="fill:#231f20;fill-opacity:1;fill-rule:nonzero;stroke:none"
             id="path202" /></g><g
           id="g204"
           transform="translate(248.1328,641.915)"><path
             d="M 0,0 H 33.008"
             style="fill:none;stroke:#231f20;stroke-width:0.5;stroke-linecap:butt;stroke-linejoin:miter;stroke-miterlimit:4;stroke-dasharray:none;stroke-opacity:1"
             id="path206" /></g><g
           id="g208"
           transform="translate(224.6416,611.0093)"><path
             d="M 0,0 H 16.634"
             style="fill:none;stroke:#231f20;stroke-width:0.5;stroke-linecap:butt;stroke-linejoin:miter;stroke-miterlimit:4;stroke-dasharray:none;stroke-opacity:1"
             id="path210" /></g><g
           id="g212"
           transform="translate(265.5,601.8398)"><path
             d="m 0,0 c 0,-1.1 -0.9,-2 -2,-2 h -20.2 c -1.1,0 -2,0.9 -2,2 v 18.49 c 0,1.1 0.9,2 2,2 H -2 c 1.1,0 2,-0.9 2,-2 z"
             style="fill:#d9c4e6;fill-opacity:1;fill-rule:nonzero;stroke:none"
             id="path214" /></g><g
           id="g216"
           transform="translate(265.5,601.8398)"><path
             d="m 0,0 c 0,-1.1 -0.9,-2 -2,-2 h -20.2 c -1.1,0 -2,0.9 -2,2 v 18.49 c 0,1.1 0.9,2 2,2 H -2 c 1.1,0 2,-0.9 2,-2 z"
             style="fill:none;stroke:#231f20;stroke-width:0.5;stroke-linecap:butt;stroke-linejoin:round;stroke-miterlimit:14.336;stroke-dasharray:none;stroke-opacity:1"
             id="path218" /></g><text
           transform="matrix(1,0,0,-1,246.98,608.7451)"
           style="font-variant:normal;font-weight:normal;font-stretch:normal;font-size:7px;font-family:Arial;-inkscape-font-specification:ArialMT;writing-mode:lr-tb;fill:#231f20;fill-opacity:1;fill-rule:nonzero;stroke:none"
           id="text222"><tspan
             x="0 5.0539999 8.9460001"
             y="0"
             sodipodi:role="line"
             id="tspan220">Neu</tspan></text><g
           id="g224"
           transform="translate(269.5923,611.0093)"><path
             d="M 0,0 H 16.634"
             style="fill:none;stroke:#231f20;stroke-width:0.5;stroke-linecap:butt;stroke-linejoin:miter;stroke-miterlimit:4;stroke-dasharray:none;stroke-opacity:1"
             id="path226" /></g><g
           id="g228"
           transform="translate(310.4502,601.8398)"><path
             d="m 0,0 c 0,-1.1 -0.9,-2 -2,-2 h -20.199 c -1.1,0 -2,0.9 -2,2 v 18.49 c 0,1.1 0.9,2 2,2 H -2 c 1.1,0 2,-0.9 2,-2 z"
             style="fill:#d9c4e6;fill-opacity:1;fill-rule:nonzero;stroke:none"
             id="path230" /></g><g
           id="g232"
           transform="translate(310.4502,601.8398)"><path
             d="m 0,0 c 0,-1.1 -0.9,-2 -2,-2 h -20.199 c -1.1,0 -2,0.9 -2,2 v 18.49 c 0,1.1 0.9,2 2,2 H -2 c 1.1,0 2,-0.9 2,-2 z"
             style="fill:none;stroke:#231f20;stroke-width:0.5;stroke-linecap:butt;stroke-linejoin:round;stroke-miterlimit:14.336;stroke-dasharray:none;stroke-opacity:1"
             id="path234" /></g><text
           transform="matrix(1,0,0,-1,291.9302,608.7451)"
           style="font-variant:normal;font-weight:normal;font-stretch:normal;font-size:7px;font-family:Arial;-inkscape-font-specification:ArialMT;writing-mode:lr-tb;fill:#231f20;fill-opacity:1;fill-rule:nonzero;stroke:none"
           id="text238"><tspan
             x="0 5.0539999 8.9460001"
             y="0"
             sodipodi:role="line"
             id="tspan236">Neu</tspan></text><g
           id="g240"
           transform="translate(220.5493,547.5098)"><path
             d="m 0,0 c 0,-1.1 -0.9,-2 -2,-2 h -20.199 c -1.1,0 -2,0.9 -2,2 v 18.49 c 0,1.1 0.9,2 2,2 H -2 c 1.1,0 2,-0.9 2,-2 z"
             style="fill:#deecf5;fill-opacity:1;fill-rule:nonzero;stroke:none"
             id="path242" /></g><g
           id="g244"
           transform="translate(220.5493,547.5098)"><path
             d="m 0,0 c 0,-1.1 -0.9,-2 -2,-2 h -20.199 c -1.1,0 -2,0.9 -2,2 v 18.49 c 0,1.1 0.9,2 2,2 H -2 c 1.1,0 2,-0.9 2,-2 z"
             style="fill:none;stroke:#231f20;stroke-width:0.5;stroke-linecap:butt;stroke-linejoin:round;stroke-miterlimit:14.336;stroke-dasharray:none;stroke-opacity:1"
             id="path246" /></g><text
           transform="matrix(1,0,0,-1,204.3657,554.415)"
           style="font-variant:normal;font-weight:normal;font-stretch:normal;font-size:7px;font-family:Arial;-inkscape-font-specification:ArialMT;writing-mode:lr-tb;fill:#231f20;fill-opacity:1;fill-rule:nonzero;stroke:none"
           id="text250"><tspan
             x="0 4.6690001 6.223"
             y="0"
             sodipodi:role="line"
             id="tspan248">Alt</tspan></text><g
           id="g252"
           transform="translate(223.3105,557.2817)"><path
             d="m 0,0 c 0.951,0.283 1.57,0.546 2.334,0.849 l -0.01,-2.902 c -0.271,0.131 -1.379,0.576 -2.326,0.867 -1.018,0.313 -1.939,0.524 -2.537,0.602 0.6,0.072 1.523,0.281 2.539,0.584"
             style="fill:#231f20;fill-opacity:1;fill-rule:nonzero;stroke:none"
             id="path254" /></g><g
           id="g256"
           transform="translate(268.2627,557.2817)"><path
             d="m 0,0 c 0.951,0.283 1.57,0.546 2.334,0.849 l -0.01,-2.902 c -0.271,0.131 -1.379,0.576 -2.326,0.867 -1.018,0.313 -1.939,0.524 -2.537,0.602 0.6,0.072 1.523,0.281 2.539,0.584"
             style="fill:#231f20;fill-opacity:1;fill-rule:nonzero;stroke:none"
             id="path258" /></g><g
           id="g260"
           transform="translate(224.6416,556.6792)"><path
             d="M 0,0 H 16.634"
             style="fill:none;stroke:#231f20;stroke-width:0.5;stroke-linecap:butt;stroke-linejoin:miter;stroke-miterlimit:4;stroke-dasharray:none;stroke-opacity:1"
             id="path262" /></g><g
           id="g264"
           transform="translate(265.5,547.5098)"><path
             d="m 0,0 c 0,-1.1 -0.9,-2 -2,-2 h -20.2 c -1.1,0 -2,0.9 -2,2 v 18.49 c 0,1.1 0.9,2 2,2 H -2 c 1.1,0 2,-0.9 2,-2 z"
             style="fill:#deecf5;fill-opacity:1;fill-rule:nonzero;stroke:none"
             id="path266" /></g><g
           id="g268"
           transform="translate(265.5,547.5098)"><path
             d="m 0,0 c 0,-1.1 -0.9,-2 -2,-2 h -20.2 c -1.1,0 -2,0.9 -2,2 v 18.49 c 0,1.1 0.9,2 2,2 H -2 c 1.1,0 2,-0.9 2,-2 z"
             style="fill:none;stroke:#231f20;stroke-width:0.5;stroke-linecap:butt;stroke-linejoin:round;stroke-miterlimit:14.336;stroke-dasharray:none;stroke-opacity:1"
             id="path270" /></g><text
           transform="matrix(1,0,0,-1,249.3159,554.415)"
           style="font-variant:normal;font-weight:normal;font-stretch:normal;font-size:7px;font-family:Arial;-inkscape-font-specification:ArialMT;writing-mode:lr-tb;fill:#231f20;fill-opacity:1;fill-rule:nonzero;stroke:none"
           id="text274"><tspan
             x="0 4.6690001 6.223"
             y="0"
             sodipodi:role="line"
             id="tspan272">Alt</tspan></text><g
           id="g276"
           transform="translate(269.5923,556.6792)"><path
             d="M 0,0 H 16.634"
             style="fill:none;stroke:#231f20;stroke-width:0.5;stroke-linecap:butt;stroke-linejoin:miter;stroke-miterlimit:4;stroke-dasharray:none;stroke-opacity:1"
             id="path278" /></g><g
           id="g280"
           transform="translate(310.4502,547.5098)"><path
             d="m 0,0 c 0,-1.1 -0.9,-2 -2,-2 h -20.199 c -1.1,0 -2,0.9 -2,2 v 18.49 c 0,1.1 0.9,2 2,2 H -2 c 1.1,0 2,-0.9 2,-2 z"
             style="fill:#deecf5;fill-opacity:1;fill-rule:nonzero;stroke:none"
             id="path282" /></g><g
           id="g284"
           transform="translate(310.4502,547.5098)"><path
             d="m 0,0 c 0,-1.1 -0.9,-2 -2,-2 h -20.199 c -1.1,0 -2,0.9 -2,2 v 18.49 c 0,1.1 0.9,2 2,2 H -2 c 1.1,0 2,-0.9 2,-2 z"
             style="fill:none;stroke:#231f20;stroke-width:0.5;stroke-linecap:butt;stroke-linejoin:round;stroke-miterlimit:14.336;stroke-dasharray:none;stroke-opacity:1"
             id="path286" /></g><text
           transform="matrix(1,0,0,-1,294.2661,554.415)"
           style="font-variant:normal;font-weight:normal;font-stretch:normal;font-size:7px;font-family:Arial;-inkscape-font-specification:ArialMT;writing-mode:lr-tb;fill:#231f20;fill-opacity:1;fill-rule:nonzero;stroke:none"
           id="text290"><tspan
             x="0 4.6690001 6.223"
             y="0"
             sodipodi:role="line"
             id="tspan288">Alt</tspan></text><g
           id="g292"
           transform="translate(187.1392,529.0552)"><path
             d="m 0,0 h 4.014 v 27.643 h 5.16"
             style="fill:none;stroke:#231f20;stroke-width:0.5;stroke-linecap:butt;stroke-linejoin:miter;stroke-miterlimit:4;stroke-dasharray:none;stroke-opacity:1"
             id="path294" /></g></g></g><g
       id="g296"><g
         id="g298"
         clip-path="url(#clipPath302)"><g
           id="g304"
           transform="translate(137.8687,516.5278)"><path
             d="m 0,0 c 0,-1.1 -0.9,-2 -2,-2 h -12.803 c -1.1,0 -2,0.9 -2,2 v 18.49 c 0,1.1 0.9,2 2,2 H -2 c 1.1,0 2,-0.9 2,-2 z"
             style="fill:#deecf5;fill-opacity:1;fill-rule:nonzero;stroke:none"
             id="path306" /></g><g
           id="g308"
           transform="translate(137.8687,516.5278)"><path
             d="m 0,0 c 0,-1.1 -0.9,-2 -2,-2 h -12.803 c -1.1,0 -2,0.9 -2,2 v 18.49 c 0,1.1 0.9,2 2,2 H -2 c 1.1,0 2,-0.9 2,-2 z"
             style="fill:none;stroke:#231f20;stroke-width:0.5;stroke-linecap:butt;stroke-linejoin:round;stroke-miterlimit:14.336;stroke-dasharray:none;stroke-opacity:1"
             id="path310" /></g></g></g><g
       id="g312"><g
         id="g314"
         clip-path="url(#clipPath318)"><g
           id="g320"
           transform="translate(127,513.25)"><path
             d="M 0,0 C 3.935,8.944 -2.108,16.607 -2.108,25.081"
             style="fill:none;stroke:#231f20;stroke-width:0.75;stroke-linecap:butt;stroke-linejoin:miter;stroke-miterlimit:10;stroke-dasharray:none;stroke-opacity:1"
             id="path322" /></g><g
           id="g324"
           transform="translate(141.9321,525.7734)"><path
             d="M 0,0 H 16.655"
             style="fill:none;stroke:#231f20;stroke-width:0.5;stroke-linecap:butt;stroke-linejoin:miter;stroke-miterlimit:4;stroke-dasharray:none;stroke-opacity:1"
             id="path326" /></g><g
           id="g328"
           transform="translate(183,516.604)"><path
             d="m 0,0 c 0,-1.1 -0.9,-2 -2,-2 h -20.199 c -1.1,0 -2,0.9 -2,2 v 18.49 c 0,1.1 0.9,2 2,2 H -2 c 1.1,0 2,-0.9 2,-2 z"
             style="fill:#deecf5;fill-opacity:1;fill-rule:nonzero;stroke:none"
             id="path330" /></g><g
           id="g332"
           transform="translate(183,516.604)"><path
             d="m 0,0 c 0,-1.1 -0.9,-2 -2,-2 h -20.199 c -1.1,0 -2,0.9 -2,2 v 18.49 c 0,1.1 0.9,2 2,2 H -2 c 1.1,0 2,-0.9 2,-2 z"
             style="fill:none;stroke:#231f20;stroke-width:0.5;stroke-linecap:butt;stroke-linejoin:round;stroke-miterlimit:14.336;stroke-dasharray:none;stroke-opacity:1"
             id="path334" /></g><text
           transform="matrix(1,0,0,-1,166.8159,523.5093)"
           style="font-variant:normal;font-weight:normal;font-stretch:normal;font-size:7px;font-family:Arial;-inkscape-font-specification:ArialMT;writing-mode:lr-tb;fill:#231f20;fill-opacity:1;fill-rule:nonzero;stroke:none"
           id="text338"><tspan
             x="0 4.6690001 6.223"
             y="0"
             sodipodi:role="line"
             id="tspan336">Alt</tspan></text><g
           id="g340"
           transform="translate(140.6396,526.376)"><path
             d="m 0,0 c 0.951,0.283 1.57,0.546 2.334,0.849 l -0.01,-2.902 c -0.271,0.131 -1.379,0.576 -2.326,0.867 -1.018,0.313 -1.939,0.524 -2.537,0.602 0.6,0.072 1.523,0.281 2.539,0.584"
             style="fill:#231f20;fill-opacity:1;fill-rule:nonzero;stroke:none"
             id="path342" /></g><g
           id="g344"
           transform="translate(185.7798,526.376)"><path
             d="m 0,0 c 0.951,0.283 1.57,0.546 2.334,0.849 l -0.01,-2.902 c -0.271,0.131 -1.379,0.576 -2.326,0.867 -1.018,0.313 -1.939,0.524 -2.537,0.602 0.6,0.072 1.523,0.281 2.539,0.584"
             style="fill:#231f20;fill-opacity:1;fill-rule:nonzero;stroke:none"
             id="path346" /></g><g
           id="g348"
           transform="translate(246.5117,526.376)"><path
             d="m 0,0 c 0.951,0.283 1.57,0.546 2.334,0.849 l -0.01,-2.902 c -0.271,0.131 -1.379,0.576 -2.326,0.867 -1.018,0.313 -1.939,0.524 -2.537,0.602 0.6,0.072 1.523,0.281 2.539,0.584"
             style="fill:#231f20;fill-opacity:1;fill-rule:nonzero;stroke:none"
             id="path350" /></g><g
           id="g352"
           transform="translate(185.7617,528.4531)"><path
             d="M 0,0 C 0.951,-0.283 1.57,-0.546 2.334,-0.849 L 2.324,2.053 C 2.053,1.922 0.945,1.477 -0.002,1.186 -1.02,0.873 -1.941,0.662 -2.539,0.584 -1.939,0.512 -1.016,0.303 0,0"
             style="fill:#231f20;fill-opacity:1;fill-rule:nonzero;stroke:none"
             id="path354" /></g><g
           id="g356"
           transform="translate(187.1108,525.7734)"><path
             d="M 0,0 H 32.414"
             style="fill:none;stroke:#231f20;stroke-width:0.5;stroke-linecap:butt;stroke-linejoin:miter;stroke-miterlimit:4;stroke-dasharray:none;stroke-opacity:1"
             id="path358" /></g><g
           id="g360"
           transform="translate(243.749,516.604)"><path
             d="m 0,0 c 0,-1.1 -0.9,-2 -2,-2 h -20.2 c -1.1,0 -2,0.9 -2,2 v 18.49 c 0,1.1 0.9,2 2,2 H -2 c 1.1,0 2,-0.9 2,-2 z"
             style="fill:#d9c4e6;fill-opacity:1;fill-rule:nonzero;stroke:none"
             id="path362" /></g><g
           id="g364"
           transform="translate(243.749,516.604)"><path
             d="m 0,0 c 0,-1.1 -0.9,-2 -2,-2 h -20.2 c -1.1,0 -2,0.9 -2,2 v 18.49 c 0,1.1 0.9,2 2,2 H -2 c 1.1,0 2,-0.9 2,-2 z"
             style="fill:none;stroke:#231f20;stroke-width:0.5;stroke-linecap:butt;stroke-linejoin:round;stroke-miterlimit:14.336;stroke-dasharray:none;stroke-opacity:1"
             id="path366" /></g><text
           transform="matrix(1,0,0,-1,225.229,523.5098)"
           style="font-variant:normal;font-weight:normal;font-stretch:normal;font-size:7px;font-family:Arial;-inkscape-font-specification:ArialMT;writing-mode:lr-tb;fill:#231f20;fill-opacity:1;fill-rule:nonzero;stroke:none"
           id="text370"><tspan
             x="0 5.0539999 8.9460001"
             y="0"
             sodipodi:role="line"
             id="tspan368">Neu</tspan></text><g
           id="g372"
           transform="translate(247.8413,525.7734)"><path
             d="M 0,0 H 28.435"
             style="fill:none;stroke:#231f20;stroke-width:0.5;stroke-linecap:butt;stroke-linejoin:miter;stroke-miterlimit:4;stroke-dasharray:none;stroke-opacity:1"
             id="path374" /></g><g
           id="g376"
           transform="translate(300.5,516.604)"><path
             d="m 0,0 c 0,-1.1 -0.9,-2 -2,-2 h -20.199 c -1.1,0 -2,0.9 -2,2 v 18.49 c 0,1.1 0.9,2 2,2 H -2 c 1.1,0 2,-0.9 2,-2 z"
             style="fill:#d9c4e6;fill-opacity:1;fill-rule:nonzero;stroke:none"
             id="path378" /></g><g
           id="g380"
           transform="translate(300.5,516.604)"><path
             d="m 0,0 c 0,-1.1 -0.9,-2 -2,-2 h -20.199 c -1.1,0 -2,0.9 -2,2 v 18.49 c 0,1.1 0.9,2 2,2 H -2 c 1.1,0 2,-0.9 2,-2 z"
             style="fill:none;stroke:#231f20;stroke-width:0.5;stroke-linecap:butt;stroke-linejoin:round;stroke-miterlimit:14.336;stroke-dasharray:none;stroke-opacity:1"
             id="path382" /></g><text
           transform="matrix(1,0,0,-1,281.98,523.5098)"
           style="font-variant:normal;font-weight:normal;font-stretch:normal;font-size:7px;font-family:Arial;-inkscape-font-specification:ArialMT;writing-mode:lr-tb;fill:#231f20;fill-opacity:1;fill-rule:nonzero;stroke:none"
           id="text386"><tspan
             x="0 5.0539999 8.9460001"
             y="0"
             sodipodi:role="line"
             id="tspan384">Neu</tspan></text><g
           id="g388"
           transform="translate(310.333,642.1665)"><path
             d="M 0,0 C 5.5,0 9.834,5.333 13.667,5.333"
             style="fill:none;stroke:#231f20;stroke-width:0.3;stroke-linecap:butt;stroke-linejoin:miter;stroke-miterlimit:10;stroke-dasharray:none;stroke-opacity:1"
             id="path390" /></g><g
           id="g392"
           transform="translate(310.8799,640.3071)"><path
             d="M 0,0 -3.238,1.87 0,3.74 Z"
             style="fill:#231f20;fill-opacity:1;fill-rule:nonzero;stroke:none"
             id="path394" /></g><g
           id="g396"
           transform="translate(305.1641,525.0361)"><path
             d="M 0,0 C 7.836,0 10.712,-5.493 18.351,-5.493"
             style="fill:none;stroke:#231f20;stroke-width:0.3;stroke-linecap:butt;stroke-linejoin:miter;stroke-miterlimit:10;stroke-dasharray:none;stroke-opacity:1"
             id="path398" /></g><g
           id="g400"
           transform="translate(305.7109,523.1768)"><path
             d="M 0,0 -3.238,1.87 0,3.739 Z"
             style="fill:#231f20;fill-opacity:1;fill-rule:nonzero;stroke:none"
             id="path402" /></g><g
           id="g404"
           transform="translate(316.25,610.9463)"><path
             d="M 0,0 C 11,0 15,-26.81 23.25,-26.81"
             style="fill:none;stroke:#231f20;stroke-width:0.3;stroke-linecap:butt;stroke-linejoin:miter;stroke-miterlimit:10;stroke-dasharray:none;stroke-opacity:1"
             id="path406" /></g><g
           id="g408"
           transform="translate(316.7969,609.0869)"><path
             d="M 0,0 -3.238,1.87 0,3.739 Z"
             style="fill:#231f20;fill-opacity:1;fill-rule:nonzero;stroke:none"
             id="path410" /></g><g
           id="g412"
           transform="translate(316.25,557.3271)"><path
             d="M 0,0 C 11,0 15,26.81 23.25,26.81"
             style="fill:none;stroke:#231f20;stroke-width:0.3;stroke-linecap:butt;stroke-linejoin:miter;stroke-miterlimit:10;stroke-dasharray:none;stroke-opacity:1"
             id="path414" /></g><g
           id="g416"
           transform="translate(316.7969,555.4678)"><path
             d="M 0,0 -3.238,1.87 0,3.739 Z"
             style="fill:#231f20;fill-opacity:1;fill-rule:nonzero;stroke:none"
             id="path418" /></g><g
           id="g420"
           transform="translate(190.75,606.75)"><path
             d="M 0,0 C -7.741,0 -18.438,-5.75 -29.833,-5.75"
             style="fill:none;stroke:#231f20;stroke-width:0.3;stroke-linecap:butt;stroke-linejoin:miter;stroke-miterlimit:10;stroke-dasharray:none;stroke-opacity:1"
             id="path422" /></g><g
           id="g424"
           transform="translate(190.2031,608.6094)"><path
             d="M 0,0 3.238,-1.87 0,-3.739 Z"
             style="fill:#231f20;fill-opacity:1;fill-rule:nonzero;stroke:none"
             id="path426" /></g><g
           id="g428"
           transform="translate(190.75,560.75)"><path
             d="M 0,0 C -7.741,0 -18.438,9.25 -29.833,9.25"
             style="fill:none;stroke:#231f20;stroke-width:0.3;stroke-linecap:butt;stroke-linejoin:miter;stroke-miterlimit:10;stroke-dasharray:none;stroke-opacity:1"
             id="path430" /></g><g
           id="g432"
           transform="translate(190.2031,562.6094)"><path
             d="M 0,0 3.238,-1.87 0,-3.739 Z"
             style="fill:#231f20;fill-opacity:1;fill-rule:nonzero;stroke:none"
             id="path434" /></g></g></g></g></svg>
