<?xml version="1.0" encoding="UTF-8" standalone="no"?>
<svg
   xmlns:dc="http://purl.org/dc/elements/1.1/"
   xmlns:cc="http://creativecommons.org/ns#"
   xmlns:rdf="http://www.w3.org/1999/02/22-rdf-syntax-ns#"
   xmlns:svg="http://www.w3.org/2000/svg"
   xmlns="http://www.w3.org/2000/svg"
   xmlns:sodipodi="http://sodipodi.sourceforge.net/DTD/sodipodi-0.dtd"
   xmlns:inkscape="http://www.inkscape.org/namespaces/inkscape"
   version="1.1"
   id="svg2"
   xml:space="preserve"
   width="331.31903"
   height="485.69861"
   viewBox="0 0 331.31903 485.69861"
   sodipodi:docname="u11-13.ai"><metadata
     id="metadata8"><rdf:RDF><cc:Work
         rdf:about=""><dc:format>image/svg+xml</dc:format><dc:type
           rdf:resource="http://purl.org/dc/dcmitype/StillImage" /></cc:Work></rdf:RDF></metadata><defs
     id="defs6"><clipPath
       clipPathUnits="userSpaceOnUse"
       id="clipPath18"><path
         d="M 0,792 H 612 V 0 H 0 Z"
         id="path16" /></clipPath></defs><sodipodi:namedview
     pagecolor="#ffffff"
     bordercolor="#666666"
     borderopacity="1"
     objecttolerance="10"
     gridtolerance="10"
     guidetolerance="10"
     inkscape:pageopacity="0"
     inkscape:pageshadow="2"
     inkscape:window-width="640"
     inkscape:window-height="480"
     id="namedview4" /><g
     id="g10"
     inkscape:groupmode="layer"
     inkscape:label="u11-13"
     transform="matrix(1.3333333,0,0,-1.3333333,-266.90173,741.02078)"><g
       id="g12"><g
         id="g14"
         clip-path="url(#clipPath18)"><g
           id="g20"
           transform="translate(323.3574,490.6436)"><path
             d="m 0,0 h 64.872 c 0,-35.828 -29.044,-64.872 -64.872,-64.872 -35.828,0 -64.872,29.044 -64.872,64.872 0,35.828 29.044,64.872 64.872,64.872 z"
             style="fill:#d9c4e6;fill-opacity:1;fill-rule:nonzero;stroke:none"
             id="path22" /></g><g
           id="g24"
           transform="translate(323.3574,490.6436)"><path
             d="m 0,0 h 64.872 c 0,-35.828 -29.044,-64.872 -64.872,-64.872 -35.828,0 -64.872,29.044 -64.872,64.872 0,35.828 29.044,64.872 64.872,64.872 z"
             style="fill:none;stroke:#231f20;stroke-width:0.5;stroke-linecap:butt;stroke-linejoin:miter;stroke-miterlimit:4;stroke-dasharray:none;stroke-opacity:1"
             id="path26" /></g><g
           id="g28"
           transform="translate(323.3574,490.6436)"><path
             d="M 0,0 V 64.872 C 35.828,64.872 64.872,35.828 64.872,0 Z"
             style="fill:#deecf5;fill-opacity:1;fill-rule:nonzero;stroke:none"
             id="path30" /></g><g
           id="g32"
           transform="translate(323.3574,490.6436)"><path
             d="M 0,0 V 64.872 C 35.828,64.872 64.872,35.828 64.872,0 Z"
             style="fill:none;stroke:#231f20;stroke-width:0.5;stroke-linecap:butt;stroke-linejoin:miter;stroke-miterlimit:4;stroke-dasharray:none;stroke-opacity:1"
             id="path34" /></g><g
           id="g36"
           transform="translate(323.3574,256.6309)"><path
             d="m 0,0 20.047,61.697 c 34.074,-11.072 52.722,-47.67 41.65,-81.744 -11.071,-34.074 -47.67,-52.722 -81.744,-41.65 -34.074,11.071 -52.722,47.67 -41.65,81.744 C -52.84,47.306 -28.662,64.872 0,64.872 Z"
             style="fill:#d9c4e6;fill-opacity:1;fill-rule:nonzero;stroke:none"
             id="path38" /></g><g
           id="g40"
           transform="translate(323.3574,256.6309)"><path
             d="m 0,0 20.047,61.697 c 34.074,-11.072 52.722,-47.67 41.65,-81.744 -11.071,-34.074 -47.67,-52.722 -81.744,-41.65 -34.074,11.071 -52.722,47.67 -41.65,81.744 C -52.84,47.306 -28.662,64.872 0,64.872 Z"
             style="fill:none;stroke:#231f20;stroke-width:0.5;stroke-linecap:butt;stroke-linejoin:miter;stroke-miterlimit:4;stroke-dasharray:none;stroke-opacity:1"
             id="path42" /></g><g
           id="g44"
           transform="translate(323.3574,256.6309)"><path
             d="m 0,0 v 64.872 c 7.166,0 13.231,-0.96 20.047,-3.175 z"
             style="fill:#deecf5;fill-opacity:1;fill-rule:nonzero;stroke:none"
             id="path46" /></g><g
           id="g48"
           transform="translate(323.3574,256.6309)"><path
             d="m 0,0 v 64.872 c 7.166,0 13.231,-0.96 20.047,-3.175 z"
             style="fill:none;stroke:#231f20;stroke-width:0.5;stroke-linecap:butt;stroke-linejoin:miter;stroke-miterlimit:4;stroke-dasharray:none;stroke-opacity:1"
             id="path50" /></g><text
           transform="matrix(1,0,0,-1,200.5513,496.2783)"
           style="font-variant:normal;font-weight:normal;font-stretch:normal;font-size:14px;font-family:'Myriad Roman';-inkscape-font-specification:Myriad-Roman;writing-mode:lr-tb;fill:#231f20;fill-opacity:1;fill-rule:nonzero;stroke:none"
           id="text56"><tspan
             x="0 9.198 16.212"
             y="0"
             sodipodi:role="line"
             id="tspan52">Neu</tspan><tspan
             x="0 7.1820002 14.364 17.261999 26.544001"
             y="21"
             sodipodi:role="line"
             id="tspan54">75.0%</tspan></text><g
           id="g58"
           transform="translate(200.5513,490.6621)"><path
             d="M 0,0 H 72.263"
             style="fill:none;stroke:#231f20;stroke-width:0.75;stroke-linecap:round;stroke-linejoin:miter;stroke-miterlimit:4;stroke-dasharray:none;stroke-opacity:1"
             id="path60" /></g><g
           id="g62"
           transform="translate(274.4395,490.6621)"><path
             d="m 0,0 c 0,-0.883 -0.715,-1.598 -1.597,-1.598 -0.882,0 -1.597,0.715 -1.597,1.598 0,0.882 0.715,1.597 1.597,1.597 C -0.715,1.597 0,0.882 0,0"
             style="fill:#231f20;fill-opacity:1;fill-rule:nonzero;stroke:none"
             id="path64" /></g><text
           transform="matrix(1,0,0,-1,200.5513,262.4131)"
           style="font-variant:normal;font-weight:normal;font-stretch:normal;font-size:14px;font-family:'Myriad Roman';-inkscape-font-specification:Myriad-Roman;writing-mode:lr-tb;fill:#231f20;fill-opacity:1;fill-rule:nonzero;stroke:none"
           id="text70"><tspan
             x="0 9.198 16.212"
             y="0"
             sodipodi:role="line"
             id="tspan66">Neu</tspan><tspan
             x="0 7.1820002 14.364 17.261999 26.544001"
             y="21"
             sodipodi:role="line"
             id="tspan68">95.0%</tspan></text><g
           id="g72"
           transform="translate(200.5513,256.7969)"><path
             d="M 0,0 H 72.263"
             style="fill:none;stroke:#231f20;stroke-width:0.75;stroke-linecap:round;stroke-linejoin:miter;stroke-miterlimit:4;stroke-dasharray:none;stroke-opacity:1"
             id="path74" /></g><g
           id="g76"
           transform="translate(274.4395,256.7969)"><path
             d="m 0,0 c 0,-0.883 -0.715,-1.598 -1.597,-1.598 -0.882,0 -1.597,0.715 -1.597,1.598 0,0.882 0.715,1.597 1.597,1.597 C -0.715,1.597 0,0.882 0,0"
             style="fill:#231f20;fill-opacity:1;fill-rule:nonzero;stroke:none"
             id="path78" /></g><text
           transform="matrix(1,0,0,-1,409.5913,537.8848)"
           style="font-variant:normal;font-weight:normal;font-stretch:normal;font-size:14px;font-family:'Myriad Roman';-inkscape-font-specification:Myriad-Roman;writing-mode:lr-tb;fill:#231f20;fill-opacity:1;fill-rule:nonzero;stroke:none"
           id="text84"><tspan
             x="0 8.526 11.802"
             y="0"
             sodipodi:role="line"
             id="tspan80">Alt</tspan><tspan
             x="0 7.1820002 14.364 17.261999 26.544001"
             y="21"
             sodipodi:role="line"
             id="tspan82">25.0%</tspan></text><g
           id="g86"
           transform="translate(348.6465,532.2686)"><path
             d="M 0,0 H 97.274"
             style="fill:none;stroke:#231f20;stroke-width:0.75;stroke-linecap:round;stroke-linejoin:miter;stroke-miterlimit:4;stroke-dasharray:none;stroke-opacity:1"
             id="path88" /></g><g
           id="g90"
           transform="translate(350.2432,532.2686)"><path
             d="m 0,0 c 0,-0.883 -0.715,-1.598 -1.597,-1.598 -0.882,0 -1.596,0.715 -1.596,1.598 0,0.882 0.714,1.597 1.596,1.597 C -0.715,1.597 0,0.882 0,0"
             style="fill:#231f20;fill-opacity:1;fill-rule:nonzero;stroke:none"
             id="path92" /></g><text
           transform="matrix(1,0,0,-1,409.8608,343.8047)"
           style="font-variant:normal;font-weight:normal;font-stretch:normal;font-size:14px;font-family:'Myriad Roman';-inkscape-font-specification:Myriad-Roman;writing-mode:lr-tb;fill:#231f20;fill-opacity:1;fill-rule:nonzero;stroke:none"
           id="text98"><tspan
             x="0 8.526 11.802"
             y="0"
             sodipodi:role="line"
             id="tspan94">Alt</tspan><tspan
             x="0 7.1820002 10.08 19.362"
             y="21"
             sodipodi:role="line"
             id="tspan96">5.0%</tspan></text><g
           id="g100"
           transform="translate(332.375,338.1328)"><path
             d="M 0,0 H 106.809"
             style="fill:none;stroke:#231f20;stroke-width:0.687;stroke-linecap:round;stroke-linejoin:miter;stroke-miterlimit:4;stroke-dasharray:none;stroke-opacity:1"
             id="path102" /></g><g
           id="g104"
           transform="translate(332.375,309.2129)"><path
             d="M 0,0 V 28.763"
             style="fill:none;stroke:#231f20;stroke-width:0.75;stroke-linecap:round;stroke-linejoin:miter;stroke-miterlimit:4;stroke-dasharray:none;stroke-opacity:1"
             id="path106" /></g><g
           id="g108"
           transform="translate(333.9717,309.2129)"><path
             d="m 0,0 c 0,-0.883 -0.715,-1.598 -1.597,-1.598 -0.882,0 -1.596,0.715 -1.596,1.598 0,0.882 0.714,1.597 1.596,1.597 C -0.715,1.597 0,0.882 0,0"
             style="fill:#231f20;fill-opacity:1;fill-rule:nonzero;stroke:none"
             id="path110" /></g></g></g></g></svg>
