<?xml version="1.0" encoding="UTF-8" standalone="no"?>
<svg
   xmlns:dc="http://purl.org/dc/elements/1.1/"
   xmlns:cc="http://creativecommons.org/ns#"
   xmlns:rdf="http://www.w3.org/1999/02/22-rdf-syntax-ns#"
   xmlns:svg="http://www.w3.org/2000/svg"
   xmlns="http://www.w3.org/2000/svg"
   version="1.1"
   id="svg2"
   xml:space="preserve"
   width="417.35547"
   height="166.59145"
   viewBox="0 0 417.35547 166.59145"><metadata
     id="metadata8"><rdf:RDF><cc:Work
         rdf:about=""><dc:format>image/svg+xml</dc:format><dc:type
           rdf:resource="http://purl.org/dc/dcmitype/StillImage" /></cc:Work></rdf:RDF></metadata><defs
     id="defs6"><clipPath
       clipPathUnits="userSpaceOnUse"
       id="clipPath22"><path
         d="M 0,792 H 612 V 0 H 0 Z"
         id="path20" /></clipPath><linearGradient
       x1="0"
       y1="0"
       x2="1"
       y2="0"
       gradientUnits="userSpaceOnUse"
       gradientTransform="matrix(13.09935,-13.492355,-13.492355,-13.09935,261.49805,622.70264)"
       spreadMethod="pad"
       id="linearGradient286"><stop
         style="stop-opacity:1;stop-color:#5ec45b"
         offset="0"
         id="stop282" /><stop
         style="stop-opacity:1;stop-color:#dbf1cb"
         offset="1"
         id="stop284" /></linearGradient><linearGradient
       x1="0"
       y1="0"
       x2="1"
       y2="0"
       gradientUnits="userSpaceOnUse"
       gradientTransform="matrix(12.500702,-12.875763,-12.875763,-12.500702,261.73047,622.46338)"
       spreadMethod="pad"
       id="linearGradient306"><stop
         style="stop-opacity:1;stop-color:#dbf1cb"
         offset="0"
         id="stop302" /><stop
         style="stop-opacity:1;stop-color:#5ec45b"
         offset="1"
         id="stop304" /></linearGradient><clipPath
       clipPathUnits="userSpaceOnUse"
       id="clipPath316"><path
         d="M 0,792 H 612 V 0 H 0 Z"
         id="path314" /></clipPath><linearGradient
       x1="0"
       y1="0"
       x2="1"
       y2="0"
       gradientUnits="userSpaceOnUse"
       gradientTransform="matrix(13.098663,-13.491669,-13.491669,-13.098663,261.49805,605.65967)"
       spreadMethod="pad"
       id="linearGradient354"><stop
         style="stop-opacity:1;stop-color:#5ec45b"
         offset="0"
         id="stop350" /><stop
         style="stop-opacity:1;stop-color:#dbf1cb"
         offset="1"
         id="stop352" /></linearGradient><linearGradient
       x1="0"
       y1="0"
       x2="1"
       y2="0"
       gradientUnits="userSpaceOnUse"
       gradientTransform="matrix(12.500702,-12.875763,-12.875763,-12.500702,261.73145,605.41943)"
       spreadMethod="pad"
       id="linearGradient374"><stop
         style="stop-opacity:1;stop-color:#dbf1cb"
         offset="0"
         id="stop370" /><stop
         style="stop-opacity:1;stop-color:#5ec45b"
         offset="1"
         id="stop372" /></linearGradient><clipPath
       clipPathUnits="userSpaceOnUse"
       id="clipPath384"><path
         d="M 0,792 H 612 V 0 H 0 Z"
         id="path382" /></clipPath></defs><g
     id="g10"
     transform="matrix(1.3333333,0,0,-1.3333333,-205.41429,892.72602)"><g
       id="g12"
       transform="translate(447.1709,666.0146)"><path
         d="m 0,0 -6.158,-2.872 -0.805,1.726 -1.252,-0.583 0.805,-1.727 -0.963,-0.448 -0.805,1.726 -1.252,-0.584 0.805,-1.726 -23.649,-11.029 -0.806,1.727 -1.251,-0.584 0.805,-1.726 -0.963,-0.449 -0.805,1.726 -1.252,-0.583 0.805,-1.727 -6.159,-2.872 19.884,-42.641 42.9,20.005 z"
         style="fill:#deddde;fill-opacity:1;fill-rule:nonzero;stroke:none"
         id="path14" /></g><g
       id="g16"><g
         id="g18"
         clip-path="url(#clipPath22)"><g
           id="g24"
           transform="translate(406.333,573.6665)"><path
             d="m 0,0 c 0,-1.1 -0.9,-2 -2,-2 h -208.667 c -1.1,0 -2,0.9 -2,2 v 50.815 c 0,1.101 0.9,2 2,2 H -2 c 1.1,0 2,-0.899 2,-2 z"
             style="fill:#feefe9;fill-opacity:1;fill-rule:evenodd;stroke:none"
             id="path26" /></g><g
           id="g28"
           transform="translate(193.6665,589.6489)"><path
             d="M 0,0 H 212.667"
             style="fill:none;stroke:#656263;stroke-width:0.5;stroke-linecap:butt;stroke-linejoin:miter;stroke-miterlimit:4;stroke-dasharray:none;stroke-opacity:1"
             id="path30" /></g><text
           transform="matrix(1,0,0,-1,225.5312,613.3643)"
           style="font-variant:normal;font-weight:normal;font-stretch:normal;font-size:11.5px;font-family:Courier;-inkscape-font-specification:Courier;writing-mode:lr-tb;fill:#231f20;fill-opacity:1;fill-rule:nonzero;stroke:none"
           id="text40"><tspan
             x="0"
             y="0"
             id="tspan32">1</tspan><tspan
             x="0"
             y="16.997"
             id="tspan34">0</tspan><tspan
             x="55.176998 62.077 68.976997 75.876999 82.777 89.677002 96.577003 103.477"
             y="0"
             id="tspan36">ffffffff</tspan><tspan
             x="55.176998 62.077 68.976997 75.876999 82.777 89.677002 96.577003 103.477"
             y="16.997"
             id="tspan38">fffffffe</tspan></text><text
           transform="matrix(1,0,0,-1,261.4741,578.2812)"
           style="font-variant:normal;font-weight:normal;font-stretch:normal;font-size:8px;font-family:Courier;-inkscape-font-specification:Courier;writing-mode:lr-tb;fill:#231f20;fill-opacity:1;fill-rule:nonzero;stroke:none"
           id="text44"><tspan
             x="0 4.8000002 9.6000004 14.4 19.200001 24 28.799999 33.599998 38.400002 43.200001 48 52.799999 57.599998 62.400002 67.199997 72"
             y="0"
             id="tspan42">LockTime: 571019</tspan></text><text
           transform="matrix(1,0,0,-1,346.6821,613.3643)"
           style="font-variant:normal;font-weight:normal;font-stretch:normal;font-size:11.5px;font-family:Courier;-inkscape-font-specification:Courier;writing-mode:lr-tb;fill:#231f20;fill-opacity:1;fill-rule:nonzero;stroke:none"
           id="text48"><tspan
             x="0 6.9000001 13.8 26.542 33.442001 40.341999"
             y="0"
             id="tspan46">100PKH</tspan></text><text
           transform="matrix(1,0,0,-1,393.9229,610.3643)"
           style="font-variant:normal;font-weight:normal;font-stretch:normal;font-size:7px;font-family:Courier;-inkscape-font-specification:Courier;writing-mode:lr-tb;fill:#231f20;fill-opacity:1;fill-rule:nonzero;stroke:none"
           id="text52"><tspan
             x="0"
             y="0"
             id="tspan50">D</tspan></text><g
           id="g54"
           transform="translate(198.9063,615.7715)"><path
             d="M 0,0 -1.701,1.912 C 1.484,2.891 3.786,2.143 5.64,1.543 7.014,1.094 8.009,0.773 9.375,1.068 c 1.387,0.299 1.87,0.83 2.43,1.446 0.725,0.799 1.547,1.705 4.324,1.972 l 1.35,-1.98 C 15.279,2.294 14.7,1.658 14.03,0.92 13.43,0.26 12.749,-0.488 10.946,-0.879 8.959,-1.307 7.278,-0.76 5.795,-0.28 4.119,0.266 2.534,0.78 0,0"
             style="fill:#f8a45c;fill-opacity:1;fill-rule:nonzero;stroke:none"
             id="path56" /></g><g
           id="g58"
           transform="translate(198.9063,615.7715)"><path
             d="M 0,0 -1.701,1.912 C 1.484,2.891 3.786,2.143 5.64,1.543 7.014,1.094 8.009,0.773 9.375,1.068 c 1.387,0.299 1.87,0.83 2.43,1.446 0.725,0.799 1.547,1.705 4.324,1.972 l 1.35,-1.98 C 15.279,2.294 14.7,1.658 14.03,0.92 13.43,0.26 12.749,-0.488 10.946,-0.879 8.959,-1.307 7.278,-0.76 5.795,-0.28 4.119,0.266 2.534,0.78 0,0 Z"
             style="fill:none;stroke:#231f20;stroke-width:0.3;stroke-linecap:butt;stroke-linejoin:miter;stroke-miterlimit:4;stroke-dasharray:none;stroke-opacity:1"
             id="path60" /></g><g
           id="g62"
           transform="translate(202.2314,613.9541)"><path
             d="m 0,0 -1.703,1.911 c 3.184,0.982 5.489,0.233 7.34,-0.368 1.376,-0.447 2.37,-0.772 3.738,-0.476 1.386,0.3 1.869,0.83 2.429,1.448 0.726,0.798 1.549,1.705 4.322,1.97 L 17.479,2.506 C 15.278,2.294 14.7,1.657 14.028,0.919 13.429,0.26 12.749,-0.489 10.944,-0.878 8.958,-1.307 7.279,-0.762 5.794,-0.279 4.119,0.265 2.534,0.778 0,0"
             style="fill:#f8a45c;fill-opacity:1;fill-rule:nonzero;stroke:none"
             id="path64" /></g><g
           id="g66"
           transform="translate(202.2314,613.9541)"><path
             d="m 0,0 -1.703,1.911 c 3.184,0.982 5.489,0.233 7.34,-0.368 1.376,-0.447 2.37,-0.772 3.738,-0.476 1.386,0.3 1.869,0.83 2.429,1.448 0.726,0.798 1.549,1.705 4.322,1.97 L 17.479,2.506 C 15.278,2.294 14.7,1.657 14.028,0.919 13.429,0.26 12.749,-0.489 10.944,-0.878 8.958,-1.307 7.279,-0.762 5.794,-0.279 4.119,0.265 2.534,0.778 0,0 Z"
             style="fill:none;stroke:#231f20;stroke-width:0.3;stroke-linecap:butt;stroke-linejoin:miter;stroke-miterlimit:4;stroke-dasharray:none;stroke-opacity:1"
             id="path68" /></g><g
           id="g70"
           transform="translate(201.4946,611.9277)"><path
             d="M 0,0 -1.702,1.91 C 1.483,2.893 3.786,2.143 5.641,1.541 7.013,1.096 8.008,0.772 9.375,1.066 c 1.387,0.3 1.868,0.832 2.428,1.45 0.726,0.797 1.548,1.703 4.322,1.969 L 17.478,2.504 C 15.277,2.294 14.701,1.658 14.027,0.918 13.427,0.258 12.75,-0.49 10.945,-0.879 8.96,-1.307 7.28,-0.762 5.795,-0.28 4.12,0.266 2.535,0.779 0,0"
             style="fill:#f8a45c;fill-opacity:1;fill-rule:nonzero;stroke:none"
             id="path72" /></g><g
           id="g74"
           transform="translate(201.4946,611.9277)"><path
             d="M 0,0 -1.702,1.91 C 1.483,2.893 3.786,2.143 5.641,1.541 7.013,1.096 8.008,0.772 9.375,1.066 c 1.387,0.3 1.868,0.832 2.428,1.45 0.726,0.797 1.548,1.703 4.322,1.969 L 17.478,2.504 C 15.277,2.294 14.701,1.658 14.027,0.918 13.427,0.258 12.75,-0.49 10.945,-0.879 8.96,-1.307 7.28,-0.762 5.795,-0.28 4.12,0.266 2.535,0.779 0,0 Z"
             style="fill:none;stroke:#231f20;stroke-width:0.3;stroke-linecap:butt;stroke-linejoin:miter;stroke-miterlimit:4;stroke-dasharray:none;stroke-opacity:1"
             id="path76" /></g><g
           id="g78"
           transform="translate(204.8755,610.1289)"><path
             d="M 0,0 -1.702,1.913 C 1.482,2.891 3.789,2.144 5.639,1.544 7.016,1.095 8.008,0.771 9.375,1.068 c 1.386,0.299 1.871,0.83 2.427,1.447 0.729,0.799 1.551,1.704 4.324,1.971 l 1.352,-1.98 C 15.279,2.295 14.701,1.658 14.029,0.92 13.429,0.258 12.751,-0.488 10.945,-0.879 8.961,-1.308 7.28,-0.76 5.795,-0.279 4.119,0.266 2.536,0.78 0,0"
             style="fill:#f8a45c;fill-opacity:1;fill-rule:nonzero;stroke:none"
             id="path80" /></g><g
           id="g82"
           transform="translate(204.8755,610.1289)"><path
             d="M 0,0 -1.702,1.913 C 1.482,2.891 3.789,2.144 5.639,1.544 7.016,1.095 8.008,0.771 9.375,1.068 c 1.386,0.299 1.871,0.83 2.427,1.447 0.729,0.799 1.551,1.704 4.324,1.971 l 1.352,-1.98 C 15.279,2.295 14.701,1.658 14.029,0.92 13.429,0.258 12.751,-0.488 10.945,-0.879 8.961,-1.308 7.28,-0.76 5.795,-0.279 4.119,0.266 2.536,0.78 0,0 Z"
             style="fill:none;stroke:#231f20;stroke-width:0.3;stroke-linecap:butt;stroke-linejoin:miter;stroke-miterlimit:4;stroke-dasharray:none;stroke-opacity:1"
             id="path84" /></g><g
           id="g86"
           transform="translate(199.4253,617.8574)"><path
             d="M 0,0 -1.704,1.914 C 1.482,2.895 3.786,2.145 5.638,1.545 7.013,1.097 8.006,0.775 9.375,1.07 c 1.386,0.299 1.866,0.83 2.428,1.447 0.725,0.799 1.55,1.704 4.321,1.971 l 1.353,-1.981 c -2.199,-0.21 -2.779,-0.849 -3.45,-1.585 -0.6,-0.661 -1.28,-1.408 -3.084,-1.799 -1.985,-0.428 -3.667,0.119 -5.15,0.6 C 4.117,0.267 2.534,0.782 0,0"
             style="fill:#f8a45c;fill-opacity:1;fill-rule:nonzero;stroke:none"
             id="path88" /></g><g
           id="g90"
           transform="translate(199.4253,617.8574)"><path
             d="M 0,0 -1.704,1.914 C 1.482,2.895 3.786,2.145 5.638,1.545 7.013,1.097 8.006,0.775 9.375,1.07 c 1.386,0.299 1.866,0.83 2.428,1.447 0.725,0.799 1.55,1.704 4.321,1.971 l 1.353,-1.981 c -2.199,-0.21 -2.779,-0.849 -3.45,-1.585 -0.6,-0.661 -1.28,-1.408 -3.084,-1.799 -1.985,-0.428 -3.667,0.119 -5.15,0.6 C 4.117,0.267 2.534,0.782 0,0 Z"
             style="fill:none;stroke:#231f20;stroke-width:0.3;stroke-linecap:butt;stroke-linejoin:miter;stroke-miterlimit:4;stroke-dasharray:none;stroke-opacity:1"
             id="path92" /></g><g
           id="g94"
           transform="translate(199.5332,619.5645)"><path
             d="m 0,0 2.323,0.208 1.012,-0.54 -1.514,0.096 z"
             style="fill:#231f20;fill-opacity:1;fill-rule:nonzero;stroke:none"
             id="path96" /></g><g
           id="g98"
           transform="translate(205.4727,618.3848)"><path
             d="m 0,0 2.479,-0.936 1.604,0.507 -2.035,0.265 z"
             style="fill:#231f20;fill-opacity:1;fill-rule:nonzero;stroke:none"
             id="path100" /></g><g
           id="g102"
           transform="translate(206.4468,615.4014)"><path
             d="m 0,0 -1.745,0.09 -0.715,-0.486 1.772,0.178 2.267,-0.906 1.424,0.02 -1.962,0.765 z"
             style="fill:#231f20;fill-opacity:1;fill-rule:nonzero;stroke:none"
             id="path104" /></g><g
           id="g106"
           transform="translate(216.7363,615.5957)"><path
             d="m 0,0 c -0.443,-0.045 -1.574,-0.306 -1.574,-0.306 l -0.865,-1.419 1.218,0.862 1.897,0.264 z"
             style="fill:#231f20;fill-opacity:1;fill-rule:nonzero;stroke:none"
             id="path108" /></g><g
           id="g110"
           transform="translate(217.6367,612.1113)"><path
             d="m 0,0 -0.805,-1.018 -1.834,-0.578 1.028,-0.438 1.509,0.619 z"
             style="fill:#231f20;fill-opacity:1;fill-rule:nonzero;stroke:none"
             id="path112" /></g><g
           id="g114"
           transform="translate(209.9663,611.168)"><path
             d="M 0,0 -1.776,0.539 -3.135,0.205 -1.514,0.097 Z"
             style="fill:#231f20;fill-opacity:1;fill-rule:nonzero;stroke:none"
             id="path116" /></g><g
           id="g118"
           transform="translate(204.0693,613.3633)"><path
             d="M 0,0 -1.008,-0.176 0.398,-0.255 Z"
             style="fill:#231f20;fill-opacity:1;fill-rule:nonzero;stroke:none"
             id="path120" /></g><g
           id="g122"
           transform="translate(212.2876,619.4375)"><path
             d="m 0,0 -1.253,-0.347 -1.479,-1.134 2.031,0.449 z"
             style="fill:#f9aeca;fill-opacity:1;fill-rule:evenodd;stroke:none"
             id="path124" /></g><g
           id="g126"
           transform="translate(213.8872,613.3125)"><path
             d="m 0,0 -1.649,-0.807 -0.181,-0.486 1.588,0.406 z"
             style="fill:#f9aeca;fill-opacity:1;fill-rule:evenodd;stroke:none"
             id="path128" /></g><g
           id="g130"
           transform="translate(220.9492,613.8242)"><path
             d="m 0,0 -1.848,-0.679 -0.134,-0.9 1.527,0.72 z"
             style="fill:#f9aeca;fill-opacity:1;fill-rule:evenodd;stroke:none"
             id="path132" /></g><g
           id="g134"
           transform="translate(202.9517,613.917)"><path
             d="m 0,0 -1.25,-1.062 -0.447,0.67 z"
             style="fill:#f9aeca;fill-opacity:1;fill-rule:evenodd;stroke:none"
             id="path136" /></g><g
           id="g138"
           transform="translate(210.4966,616.2012)"><path
             d="m 0,0 -2.265,0.191 1.226,-0.564 z"
             style="fill:#96cd56;fill-opacity:1;fill-rule:evenodd;stroke:none"
             id="path140" /></g><g
           id="g142"
           transform="translate(212.7192,610.6074)"><path
             d="m 0,0 -2.112,0.479 c 0,0 1.091,-0.754 1.395,-0.897 0.307,-0.141 2.142,-0.277 2.142,-0.277 z"
             style="fill:#96cd56;fill-opacity:1;fill-rule:evenodd;stroke:none"
             id="path144" /></g><g
           id="g146"
           transform="translate(203.6934,615.9639)"><path
             d="m 0,0 -1.867,-0.064 0.722,-1.011 z"
             style="fill:#96cd56;fill-opacity:1;fill-rule:evenodd;stroke:none"
             id="path148" /></g><g
           id="g150"
           transform="translate(214.8789,621.4473)"><path
             d="m 0,0 -2.092,-0.851 c 0,0 -0.837,-1.217 -0.499,-1.159 0.336,0.059 1.784,0.992 1.784,0.992 z"
             style="fill:#96cd56;fill-opacity:1;fill-rule:evenodd;stroke:none"
             id="path152" /></g><g
           id="g154"
           transform="translate(198.9063,599.606)"><path
             d="M 0,0 -1.701,1.912 C 1.484,2.891 3.786,2.143 5.64,1.542 7.014,1.094 8.009,0.772 9.375,1.068 c 1.387,0.299 1.87,0.83 2.43,1.446 0.725,0.799 1.547,1.705 4.324,1.972 l 1.35,-1.98 C 15.279,2.293 14.7,1.657 14.03,0.92 13.43,0.259 12.749,-0.489 10.946,-0.879 8.959,-1.307 7.278,-0.76 5.795,-0.281 4.119,0.265 2.534,0.779 0,0"
             style="fill:#f8a45c;fill-opacity:1;fill-rule:nonzero;stroke:none"
             id="path156" /></g><g
           id="g158"
           transform="translate(198.9063,599.606)"><path
             d="M 0,0 -1.701,1.912 C 1.484,2.891 3.786,2.143 5.64,1.542 7.014,1.094 8.009,0.772 9.375,1.068 c 1.387,0.299 1.87,0.83 2.43,1.446 0.725,0.799 1.547,1.705 4.324,1.972 l 1.35,-1.98 C 15.279,2.293 14.7,1.657 14.03,0.92 13.43,0.259 12.749,-0.489 10.946,-0.879 8.959,-1.307 7.278,-0.76 5.795,-0.281 4.119,0.265 2.534,0.779 0,0 Z"
             style="fill:none;stroke:#231f20;stroke-width:0.3;stroke-linecap:butt;stroke-linejoin:miter;stroke-miterlimit:4;stroke-dasharray:none;stroke-opacity:1"
             id="path160" /></g><g
           id="g162"
           transform="translate(202.2314,597.7876)"><path
             d="m 0,0 -1.703,1.912 c 3.184,0.981 5.489,0.233 7.34,-0.369 1.376,-0.447 2.37,-0.772 3.738,-0.475 1.386,0.299 1.869,0.83 2.429,1.448 0.726,0.798 1.549,1.705 4.322,1.97 l 1.353,-1.98 C 15.278,2.294 14.7,1.658 14.028,0.92 13.429,0.26 12.749,-0.488 10.944,-0.878 8.958,-1.307 7.279,-0.762 5.794,-0.279 4.119,0.266 2.534,0.779 0,0"
             style="fill:#f8a45c;fill-opacity:1;fill-rule:nonzero;stroke:none"
             id="path164" /></g><g
           id="g166"
           transform="translate(202.2314,597.7876)"><path
             d="m 0,0 -1.703,1.912 c 3.184,0.981 5.489,0.233 7.34,-0.369 1.376,-0.447 2.37,-0.772 3.738,-0.475 1.386,0.299 1.869,0.83 2.429,1.448 0.726,0.798 1.549,1.705 4.322,1.97 l 1.353,-1.98 C 15.278,2.294 14.7,1.658 14.028,0.92 13.429,0.26 12.749,-0.488 10.944,-0.878 8.958,-1.307 7.279,-0.762 5.794,-0.279 4.119,0.266 2.534,0.779 0,0 Z"
             style="fill:none;stroke:#231f20;stroke-width:0.3;stroke-linecap:butt;stroke-linejoin:miter;stroke-miterlimit:4;stroke-dasharray:none;stroke-opacity:1"
             id="path168" /></g><g
           id="g170"
           transform="translate(201.4946,595.7612)"><path
             d="M 0,0 -1.702,1.911 C 1.483,2.893 3.786,2.144 5.641,1.542 7.013,1.097 8.008,0.772 9.375,1.067 c 1.387,0.299 1.868,0.832 2.428,1.449 0.726,0.797 1.548,1.704 4.322,1.969 l 1.353,-1.98 C 15.277,2.294 14.701,1.658 14.027,0.919 13.427,0.259 12.75,-0.489 10.945,-0.879 8.96,-1.307 7.28,-0.762 5.795,-0.28 4.12,0.267 2.535,0.78 0,0"
             style="fill:#f8a45c;fill-opacity:1;fill-rule:nonzero;stroke:none"
             id="path172" /></g><g
           id="g174"
           transform="translate(201.4946,595.7612)"><path
             d="M 0,0 -1.702,1.911 C 1.483,2.893 3.786,2.144 5.641,1.542 7.013,1.097 8.008,0.772 9.375,1.067 c 1.387,0.299 1.868,0.832 2.428,1.449 0.726,0.797 1.548,1.704 4.322,1.969 l 1.353,-1.98 C 15.277,2.294 14.701,1.658 14.027,0.919 13.427,0.259 12.75,-0.489 10.945,-0.879 8.96,-1.307 7.28,-0.762 5.795,-0.28 4.12,0.267 2.535,0.78 0,0 Z"
             style="fill:none;stroke:#231f20;stroke-width:0.3;stroke-linecap:butt;stroke-linejoin:miter;stroke-miterlimit:4;stroke-dasharray:none;stroke-opacity:1"
             id="path176" /></g><g
           id="g178"
           transform="translate(204.8755,593.9624)"><path
             d="M 0,0 -1.702,1.913 C 1.482,2.892 3.789,2.144 5.639,1.544 7.016,1.095 8.008,0.771 9.375,1.069 c 1.386,0.299 1.871,0.83 2.427,1.446 0.729,0.8 1.551,1.705 4.324,1.972 l 1.352,-1.98 C 15.279,2.295 14.701,1.658 14.029,0.92 13.429,0.259 12.751,-0.487 10.945,-0.878 8.961,-1.308 7.28,-0.76 5.795,-0.278 4.119,0.267 2.536,0.78 0,0"
             style="fill:#f8a45c;fill-opacity:1;fill-rule:nonzero;stroke:none"
             id="path180" /></g><g
           id="g182"
           transform="translate(204.8755,593.9624)"><path
             d="M 0,0 -1.702,1.913 C 1.482,2.892 3.789,2.144 5.639,1.544 7.016,1.095 8.008,0.771 9.375,1.069 c 1.386,0.299 1.871,0.83 2.427,1.446 0.729,0.8 1.551,1.705 4.324,1.972 l 1.352,-1.98 C 15.279,2.295 14.701,1.658 14.029,0.92 13.429,0.259 12.751,-0.487 10.945,-0.878 8.961,-1.308 7.28,-0.76 5.795,-0.278 4.119,0.267 2.536,0.78 0,0 Z"
             style="fill:none;stroke:#231f20;stroke-width:0.3;stroke-linecap:butt;stroke-linejoin:miter;stroke-miterlimit:4;stroke-dasharray:none;stroke-opacity:1"
             id="path184" /></g><g
           id="g186"
           transform="translate(199.4253,601.6919)"><path
             d="m 0,0 -1.704,1.914 c 3.186,0.98 5.49,0.231 7.342,-0.369 1.375,-0.449 2.368,-0.771 3.737,-0.476 1.386,0.3 1.866,0.83 2.428,1.447 0.725,0.799 1.55,1.705 4.321,1.971 L 17.477,2.506 C 15.278,2.297 14.698,1.658 14.027,0.922 13.427,0.26 12.747,-0.486 10.943,-0.878 8.958,-1.306 7.276,-0.758 5.793,-0.277 4.117,0.266 2.534,0.781 0,0"
             style="fill:#f8a45c;fill-opacity:1;fill-rule:nonzero;stroke:none"
             id="path188" /></g><g
           id="g190"
           transform="translate(199.4253,601.6919)"><path
             d="m 0,0 -1.704,1.914 c 3.186,0.98 5.49,0.231 7.342,-0.369 1.375,-0.449 2.368,-0.771 3.737,-0.476 1.386,0.3 1.866,0.83 2.428,1.447 0.725,0.799 1.55,1.705 4.321,1.971 L 17.477,2.506 C 15.278,2.297 14.698,1.658 14.027,0.922 13.427,0.26 12.747,-0.486 10.943,-0.878 8.958,-1.306 7.276,-0.758 5.793,-0.277 4.117,0.266 2.534,0.781 0,0 Z"
             style="fill:none;stroke:#231f20;stroke-width:0.3;stroke-linecap:butt;stroke-linejoin:miter;stroke-miterlimit:4;stroke-dasharray:none;stroke-opacity:1"
             id="path192" /></g><g
           id="g194"
           transform="translate(199.5332,603.3979)"><path
             d="M 0,0 2.323,0.208 3.335,-0.331 1.821,-0.235 Z"
             style="fill:#231f20;fill-opacity:1;fill-rule:nonzero;stroke:none"
             id="path196" /></g><g
           id="g198"
           transform="translate(205.4727,602.2192)"><path
             d="M 0,0 2.479,-0.936 4.083,-0.43 2.048,-0.164 Z"
             style="fill:#231f20;fill-opacity:1;fill-rule:nonzero;stroke:none"
             id="path200" /></g><g
           id="g202"
           transform="translate(206.4468,599.2349)"><path
             d="m 0,0 -1.745,0.09 -0.715,-0.485 1.772,0.178 2.267,-0.906 1.424,0.019 -1.962,0.765 z"
             style="fill:#231f20;fill-opacity:1;fill-rule:nonzero;stroke:none"
             id="path204" /></g><g
           id="g206"
           transform="translate(216.7363,599.4292)"><path
             d="m 0,0 c -0.443,-0.045 -1.574,-0.306 -1.574,-0.306 l -0.865,-1.418 1.218,0.862 1.897,0.263 z"
             style="fill:#231f20;fill-opacity:1;fill-rule:nonzero;stroke:none"
             id="path208" /></g><g
           id="g210"
           transform="translate(217.6367,595.9448)"><path
             d="m 0,0 -0.805,-1.017 -1.834,-0.579 1.028,-0.438 1.509,0.619 z"
             style="fill:#231f20;fill-opacity:1;fill-rule:nonzero;stroke:none"
             id="path212" /></g><g
           id="g214"
           transform="translate(209.9663,595.0024)"><path
             d="M 0,0 -1.776,0.539 -3.135,0.204 -1.514,0.096 Z"
             style="fill:#231f20;fill-opacity:1;fill-rule:nonzero;stroke:none"
             id="path216" /></g><g
           id="g218"
           transform="translate(204.0693,597.1978)"><path
             d="m 0,0 -1.008,-0.176 1.406,-0.08 z"
             style="fill:#231f20;fill-opacity:1;fill-rule:nonzero;stroke:none"
             id="path220" /></g><g
           id="g222"
           transform="translate(212.2876,603.272)"><path
             d="m 0,0 -1.253,-0.348 -1.479,-1.134 2.031,0.449 z"
             style="fill:#f9aeca;fill-opacity:1;fill-rule:evenodd;stroke:none"
             id="path224" /></g><g
           id="g226"
           transform="translate(213.8872,597.147)"><path
             d="m 0,0 -1.649,-0.807 -0.181,-0.486 1.588,0.406 z"
             style="fill:#f9aeca;fill-opacity:1;fill-rule:evenodd;stroke:none"
             id="path228" /></g><g
           id="g230"
           transform="translate(220.9492,597.6577)"><path
             d="m 0,0 -1.848,-0.679 -0.134,-0.9 1.527,0.72 z"
             style="fill:#f9aeca;fill-opacity:1;fill-rule:evenodd;stroke:none"
             id="path232" /></g><g
           id="g234"
           transform="translate(202.9517,597.7505)"><path
             d="m 0,0 -1.25,-1.062 -0.447,0.671 z"
             style="fill:#f9aeca;fill-opacity:1;fill-rule:evenodd;stroke:none"
             id="path236" /></g><g
           id="g238"
           transform="translate(210.4966,600.0356)"><path
             d="m 0,0 -2.265,0.191 1.226,-0.564 z"
             style="fill:#96cd56;fill-opacity:1;fill-rule:evenodd;stroke:none"
             id="path240" /></g><g
           id="g242"
           transform="translate(212.7192,594.4419)"><path
             d="m 0,0 -2.112,0.479 c 0,0 1.091,-0.754 1.395,-0.897 0.307,-0.141 2.142,-0.278 2.142,-0.278 z"
             style="fill:#96cd56;fill-opacity:1;fill-rule:evenodd;stroke:none"
             id="path244" /></g><g
           id="g246"
           transform="translate(203.6934,599.7974)"><path
             d="m 0,0 -1.867,-0.064 0.722,-1.011 z"
             style="fill:#96cd56;fill-opacity:1;fill-rule:evenodd;stroke:none"
             id="path248" /></g><g
           id="g250"
           transform="translate(214.8789,605.2808)"><path
             d="m 0,0 -2.092,-0.851 c 0,0 -0.837,-1.216 -0.499,-1.158 0.336,0.059 1.784,0.992 1.784,0.992 z"
             style="fill:#96cd56;fill-opacity:1;fill-rule:evenodd;stroke:none"
             id="path252" /></g><g
           id="g254"
           transform="translate(242.582,612.562)"><path
             d="M 0,0 C 0.846,-0.152 1.141,-0.882 1.646,-1.392 1.785,-0.454 2.154,0.239 2.533,0.928 2.523,1.007 2.514,1.084 2.406,1.062 1.742,0.56 0.707,0.453 0,0 M 3.482,2.054 C 3.717,2.094 3.854,2.237 4.053,2.317 4.01,2.513 4.035,2.784 3.863,2.849 3.76,2.558 3.592,2.333 3.482,2.054 M 0.379,2.119 C 0.717,2.868 1.09,3.583 1.457,4.303 0.904,4.455 0.244,4.495 -0.381,4.566 0.004,3.889 0.254,3.071 0.379,2.119 M -3.23,4.503 C -3.482,4.047 -3.58,3.451 -3.736,2.849 -3.879,2.312 -3.914,1.56 -4.373,1.325 c -0.16,0.904 0.41,2.11 0.637,3.044 -1.725,-0.348 -3.159,-1.651 -3.106,-3.575 0.039,-1.423 1.106,-1.932 2.596,-1.92 3.164,0.028 5.475,2.859 3.357,5.692 -0.625,0.126 -1.525,-0.02 -2.341,-0.063 m 0.125,0.396 c 0.56,0.122 1.3,0.053 1.837,0.2 C -1.725,5.546 -2.102,6.08 -2.471,6.62 -2.633,5.993 -2.912,5.492 -3.105,4.899 M 4.307,4.503 C 4.691,5.49 5.441,6.449 5.701,7.349 5.115,6.57 4.354,5.622 4.307,4.503 m 7.156,5.56 C 9.727,9.917 7.629,9.36 6.713,8.276 6.168,7.63 5.904,6.671 5.445,5.827 4.971,4.948 3.813,3.565 4.434,2.581 c 2.586,1.586 5.193,3.234 7.472,5.098 0.733,0.597 1.625,1.29 1.967,2.252 -0.752,0.294 -1.609,0.199 -2.41,0.132 M 4.813,2.317 C 6.313,1.635 7.547,2.884 8.803,3.11 9.111,2.766 8.756,2.056 8.932,1.654 9.842,0.996 11.611,1.235 12.287,0.331 11.887,0.015 11.346,0.53 10.639,0.728 9.422,1.069 8.092,0.86 8.549,2.648 7.461,2.137 5.635,1.183 4.369,2.054 3.943,1.836 3.584,1.55 3.102,1.392 2.6,0.327 2.182,-0.823 1.771,-1.987 c -0.878,0.316 -0.906,1.524 -1.96,1.656 -0.174,-0.262 -0.237,-0.639 -0.317,-0.993 0.244,-0.068 0.51,0.73 0.885,0.53 0.033,-0.508 -0.539,-0.932 -1.014,-1.126 -0.523,0.333 -0.119,1.083 0,1.656 -0.801,-0.639 -2.422,-1.35 -3.992,-1.258 -0.602,0.034 -1.373,0.183 -1.836,0.531 -1.146,0.859 -0.842,3.113 -0.062,4.168 0.72,0.98 1.754,1.33 2.914,1.656 0.351,0.579 0.541,1.332 0.822,1.985 0.359,0.027 0.453,0.095 0.57,0.464 1.873,0.733 4.041,1.16 5.574,2.252 C 1.41,9.175 -0.723,8.524 -2.727,7.944 -3.361,7.761 -4,7.429 -4.627,7.548 c 0.074,0.393 0.598,0.441 0.891,0.527 1.002,0.302 2.125,0.612 3.23,0.928 1.432,0.412 2.971,1.001 4.434,0.861 C 3.963,9.173 3.238,8.975 2.785,8.738 1.408,8.021 -0.482,7.507 -2.027,6.885 -1.771,6.026 -1.139,5.565 -0.635,4.966 0.197,4.972 0.881,4.83 1.582,4.701 2.336,5.613 2.959,6.839 3.672,7.878 3.865,8.159 4.127,8.634 4.496,8.605 4.377,7.835 3.73,7.279 3.293,6.62 2.855,5.964 2.488,5.239 2.09,4.566 2.559,4.241 3.32,4.22 3.482,3.574 2.91,3.446 2.523,4.069 1.961,4.17 1.148,3.19 0.713,1.813 0.125,0.597 1.178,0.798 1.953,1.292 2.85,1.654 3.207,2.481 3.705,3.013 3.799,4.17 3.967,6.247 5.236,7.466 6.461,8.539 6.523,8.871 6.721,9.063 6.84,9.333 7.086,9.392 7.066,9.173 7.219,9.136 8.51,10.067 10.895,10.7 13.047,10.527 13.436,10.494 14.324,10.386 14.314,9.864 14.299,9.026 12.961,8.06 12.352,7.548 10.104,5.663 7.057,3.733 4.813,2.317"
             style="fill:#2c81ab;fill-opacity:1;fill-rule:evenodd;stroke:none"
             id="path256" /></g><g
           id="g258"
           transform="translate(274.6191,611.3384)"><path
             d="m 0,0 -6.42,6.613 c 0.688,1.51 0.42,3.36 -0.818,4.633 -1.608,1.658 -4.242,1.711 -5.883,0.119 -0.033,-0.033 -0.065,-0.07 -0.096,-0.105 -0.037,-0.033 -0.074,-0.063 -0.109,-0.096 -1.641,-1.59 -1.664,-4.226 -0.057,-5.883 1.149,-1.179 2.813,-1.543 4.27,-1.08 L -8.576,3.65 c 0.32,0.237 0.822,0.166 1.162,-0.185 0.34,-0.352 0.394,-0.852 0.15,-1.166 l 0.588,-0.608 c 0.322,0.237 0.821,0.166 1.162,-0.185 0.342,-0.352 0.397,-0.852 0.151,-1.166 l 0.59,-0.608 c 0.32,0.237 0.82,0.166 1.162,-0.185 0.341,-0.352 0.396,-0.852 0.148,-1.166 l 0.41,-0.422 3.297,0.174 0.209,0.201 z"
             style="fill:none;stroke:#231f20;stroke-width:0.75;stroke-linecap:butt;stroke-linejoin:round;stroke-miterlimit:4;stroke-dasharray:none;stroke-opacity:1"
             id="path260" /></g><g
           id="g262"
           transform="translate(275.0723,609.6724)"><path
             d="m 0,0 -7.078,8.078 c 0.687,1.51 0.42,3.361 -0.818,4.635 -1.61,1.656 -4.243,1.711 -5.883,0.117 -1.641,-1.59 -1.664,-4.226 -0.057,-5.883 1.148,-1.179 2.813,-1.543 4.27,-1.08 l 0.537,-0.551 c 0.32,0.237 0.822,0.166 1.162,-0.185 0.34,-0.352 0.394,-0.852 0.15,-1.166 l 0.588,-0.608 c 0.322,0.237 0.82,0.166 1.162,-0.185 C -5.625,2.82 -5.57,2.32 -5.816,2.006 l 0.589,-0.608 c 0.321,0.237 0.821,0.166 1.163,-0.185 0.341,-0.352 0.396,-0.852 0.148,-1.166 l 0.41,-0.422 3.297,0.174 z"
             style="fill:#278a2f;fill-opacity:1;fill-rule:nonzero;stroke:none"
             id="path264" /></g><g
           id="g266"
           transform="translate(275.0723,609.6724)"><path
             d="m 0,0 -7.078,8.078 c 0.687,1.51 0.42,3.361 -0.818,4.635 -1.61,1.656 -4.243,1.711 -5.883,0.117 -1.641,-1.59 -1.664,-4.226 -0.057,-5.883 1.148,-1.179 2.813,-1.543 4.27,-1.08 l 0.537,-0.551 c 0.32,0.237 0.822,0.166 1.162,-0.185 0.34,-0.352 0.394,-0.852 0.15,-1.166 l 0.588,-0.608 c 0.322,0.237 0.82,0.166 1.162,-0.185 C -5.625,2.82 -5.57,2.32 -5.816,2.006 l 0.589,-0.608 c 0.321,0.237 0.821,0.166 1.163,-0.185 0.341,-0.352 0.396,-0.852 0.148,-1.166 l 0.41,-0.422 3.297,0.174 z"
             style="fill:none;stroke:#278a2f;stroke-width:0.3;stroke-linecap:butt;stroke-linejoin:round;stroke-miterlimit:4;stroke-dasharray:none;stroke-opacity:1"
             id="path268" /></g></g></g><g
       id="g270"><g
         id="g272"><g
           id="g278"><g
             id="g280"><path
               d="m 261.498,622.704 c -1.638,-1.592 -1.664,-4.229 -0.054,-5.885 v 0 c 1.145,-1.18 2.812,-1.543 4.269,-1.079 v 0 l 0.535,-0.552 c 0.322,0.236 0.822,0.166 1.162,-0.186 v 0 c 0.34,-0.349 0.397,-0.851 0.15,-1.166 v 0 l 0.59,-0.607 c 0.321,0.236 0.819,0.166 1.162,-0.186 v 0 c 0.341,-0.349 0.395,-0.851 0.149,-1.165 v 0 l 0.592,-0.608 c 0.318,0.236 0.82,0.166 1.162,-0.184 v 0 c 0.337,-0.351 0.392,-0.851 0.148,-1.166 v 0 l 0.41,-0.424 3.299,0.177 -0.453,1.666 -6.42,6.613 c 0.688,1.509 0.42,3.359 -0.818,4.633 v 0 c -0.825,0.851 -1.921,1.279 -3.014,1.279 v 0 c -1.036,0 -2.071,-0.385 -2.869,-1.16"
               style="fill:url(#linearGradient286);stroke:none"
               id="path288" /></g></g></g></g><g
       id="g290"><g
         id="g292"><g
           id="g298"><g
             id="g300"><path
               d="m 261.731,622.463 c -1.504,-1.462 -1.526,-3.889 -0.05,-5.41 v 0 c 1.03,-1.056 2.534,-1.438 3.929,-0.994 v 0 l 0.199,0.065 0.507,-0.526 c 0.434,0.152 0.963,0.02 1.334,-0.362 v 0 c 0.374,-0.382 0.489,-0.915 0.322,-1.343 v 0 l 0.245,-0.252 c 0.436,0.151 0.965,0.018 1.334,-0.363 v 0 c 0.371,-0.383 0.488,-0.918 0.324,-1.344 v 0 l 0.244,-0.252 c 0.434,0.152 0.963,0.019 1.334,-0.363 v 0 c 0.373,-0.381 0.488,-0.917 0.324,-1.344 v 0 l 0.131,-0.137 2.732,0.147 -0.322,1.182 -6.518,6.713 0.095,0.209 c 0.656,1.44 0.359,3.116 -0.753,4.261 v 0 c -0.759,0.783 -1.769,1.177 -2.776,1.177 v 0 c -0.953,0 -1.903,-0.353 -2.635,-1.064"
               style="fill:url(#linearGradient306);stroke:none"
               id="path308" /></g></g></g></g><g
       id="g310"><g
         id="g312"
         clip-path="url(#clipPath316)"><g
           id="g318"
           transform="translate(266.7148,617.3306)"><path
             d="m 0,0 c -1.311,-1.271 -3.402,-1.24 -4.674,0.068 -1.271,1.311 -1.24,3.403 0.07,4.674 1.307,1.274 3.401,1.24 4.672,-0.068 C 1.34,3.363 1.309,1.271 0,0"
             style="fill:#ffffff;fill-opacity:1;fill-rule:nonzero;stroke:none"
             id="path320" /></g><text
           transform="matrix(0.69656686,-0.71749189,-0.71749189,-0.69656686,261.1927,621.1312)"
           style="font-variant:normal;font-weight:normal;font-stretch:normal;font-size:3.67502px;font-family:Arial;-inkscape-font-specification:ArialMT;writing-mode:lr-tb;fill:#231f20;fill-opacity:1;fill-rule:nonzero;stroke:none"
           id="text324"><tspan
             x="0 2.451241 4.4945545"
             y="0"
             id="tspan322">Pub</tspan></text><g
           id="g326"
           transform="translate(274.6191,594.2954)"><path
             d="m 0,0 -6.42,6.613 c 0.688,1.51 0.42,3.36 -0.818,4.633 -1.608,1.658 -4.242,1.711 -5.883,0.119 -0.033,-0.035 -0.065,-0.07 -0.096,-0.105 -0.037,-0.033 -0.074,-0.063 -0.109,-0.096 -1.641,-1.59 -1.664,-4.226 -0.057,-5.883 1.149,-1.179 2.813,-1.543 4.27,-1.08 L -8.576,3.65 c 0.32,0.237 0.822,0.164 1.162,-0.185 0.34,-0.352 0.394,-0.852 0.15,-1.166 l 0.588,-0.608 c 0.322,0.237 0.821,0.166 1.162,-0.185 0.342,-0.352 0.397,-0.852 0.151,-1.166 l 0.59,-0.608 c 0.32,0.237 0.82,0.166 1.162,-0.185 0.341,-0.352 0.396,-0.852 0.148,-1.166 l 0.41,-0.422 3.297,0.174 0.209,0.201 z"
             style="fill:none;stroke:#231f20;stroke-width:0.75;stroke-linecap:butt;stroke-linejoin:round;stroke-miterlimit:4;stroke-dasharray:none;stroke-opacity:1"
             id="path328" /></g><g
           id="g330"
           transform="translate(275.0723,592.6294)"><path
             d="m 0,0 -7.078,8.078 c 0.687,1.51 0.42,3.36 -0.818,4.635 -1.61,1.656 -4.243,1.711 -5.883,0.117 -1.641,-1.59 -1.664,-4.226 -0.057,-5.883 1.148,-1.179 2.813,-1.543 4.27,-1.08 l 0.537,-0.551 c 0.32,0.237 0.822,0.164 1.162,-0.185 0.34,-0.352 0.394,-0.852 0.15,-1.166 l 0.588,-0.608 c 0.322,0.237 0.82,0.166 1.162,-0.185 C -5.625,2.82 -5.57,2.32 -5.816,2.006 l 0.589,-0.608 c 0.321,0.237 0.821,0.166 1.163,-0.185 0.341,-0.352 0.396,-0.852 0.148,-1.166 l 0.41,-0.422 3.297,0.174 z"
             style="fill:#278a2f;fill-opacity:1;fill-rule:nonzero;stroke:none"
             id="path332" /></g><g
           id="g334"
           transform="translate(275.0723,592.6294)"><path
             d="m 0,0 -7.078,8.078 c 0.687,1.51 0.42,3.36 -0.818,4.635 -1.61,1.656 -4.243,1.711 -5.883,0.117 -1.641,-1.59 -1.664,-4.226 -0.057,-5.883 1.148,-1.179 2.813,-1.543 4.27,-1.08 l 0.537,-0.551 c 0.32,0.237 0.822,0.164 1.162,-0.185 0.34,-0.352 0.394,-0.852 0.15,-1.166 l 0.588,-0.608 c 0.322,0.237 0.82,0.166 1.162,-0.185 C -5.625,2.82 -5.57,2.32 -5.816,2.006 l 0.589,-0.608 c 0.321,0.237 0.821,0.166 1.163,-0.185 0.341,-0.352 0.396,-0.852 0.148,-1.166 l 0.41,-0.422 3.297,0.174 z"
             style="fill:none;stroke:#278a2f;stroke-width:0.3;stroke-linecap:butt;stroke-linejoin:round;stroke-miterlimit:4;stroke-dasharray:none;stroke-opacity:1"
             id="path336" /></g></g></g><g
       id="g338"><g
         id="g340"><g
           id="g346"><g
             id="g348"><path
               d="m 261.498,605.66 c -1.638,-1.591 -1.664,-4.228 -0.054,-5.884 v 0 c 1.145,-1.18 2.812,-1.543 4.269,-1.078 v 0 l 0.535,-0.553 c 0.322,0.236 0.822,0.166 1.162,-0.186 v 0 c 0.34,-0.349 0.397,-0.851 0.15,-1.165 v 0 l 0.59,-0.608 c 0.321,0.236 0.819,0.166 1.162,-0.185 v 0 c 0.341,-0.352 0.395,-0.852 0.149,-1.167 v 0 l 0.592,-0.609 c 0.318,0.239 0.82,0.168 1.162,-0.182 v 0 c 0.337,-0.351 0.392,-0.851 0.148,-1.165 v 0 l 0.41,-0.424 3.299,0.175 -0.453,1.666 -6.42,6.613 c 0.688,1.511 0.42,3.36 -0.818,4.634 v 0 c -0.825,0.85 -1.921,1.278 -3.014,1.279 v 0 c -1.036,0 -2.071,-0.386 -2.869,-1.161"
               style="fill:url(#linearGradient354);stroke:none"
               id="path356" /></g></g></g></g><g
       id="g358"><g
         id="g360"><g
           id="g366"><g
             id="g368"><path
               d="m 261.731,605.42 c -1.504,-1.462 -1.526,-3.888 -0.05,-5.41 v 0 c 1.03,-1.058 2.534,-1.439 3.929,-0.994 v 0 l 0.199,0.065 0.507,-0.526 c 0.434,0.153 0.963,0.02 1.334,-0.363 v 0 c 0.374,-0.381 0.489,-0.914 0.322,-1.343 v 0 l 0.245,-0.251 c 0.436,0.151 0.965,0.017 1.334,-0.363 v 0 c 0.371,-0.383 0.488,-0.918 0.324,-1.344 v 0 l 0.244,-0.252 c 0.434,0.152 0.963,0.02 1.334,-0.363 v 0 c 0.373,-0.381 0.488,-0.916 0.324,-1.344 v 0 l 0.131,-0.136 2.732,0.146 -0.322,1.181 -6.518,6.713 0.095,0.209 c 0.656,1.442 0.359,3.118 -0.753,4.262 v 0 c -0.759,0.783 -1.769,1.177 -2.776,1.177 v 0 c -0.953,0 -1.903,-0.353 -2.635,-1.064"
               style="fill:url(#linearGradient374);stroke:none"
               id="path376" /></g></g></g></g><g
       id="g378"><g
         id="g380"
         clip-path="url(#clipPath384)"><g
           id="g386"
           transform="translate(266.7148,600.2876)"><path
             d="m 0,0 c -1.311,-1.271 -3.402,-1.24 -4.674,0.068 -1.271,1.311 -1.24,3.403 0.07,4.674 1.307,1.274 3.401,1.24 4.672,-0.07 C 1.34,3.363 1.309,1.271 0,0"
             style="fill:#ffffff;fill-opacity:1;fill-rule:nonzero;stroke:none"
             id="path388" /></g><text
           transform="matrix(0.69656686,-0.71749189,-0.71749189,-0.69656686,261.1925,604.0878)"
           style="font-variant:normal;font-weight:normal;font-stretch:normal;font-size:3.67502px;font-family:Arial;-inkscape-font-specification:ArialMT;writing-mode:lr-tb;fill:#231f20;fill-opacity:1;fill-rule:nonzero;stroke:none"
           id="text392"><tspan
             x="0 2.451241 4.4945545"
             y="0"
             id="tspan390">Pub</tspan></text><g
           id="g394"
           transform="translate(242.582,595.5181)"><path
             d="M 0,0 C 0.846,-0.152 1.141,-0.881 1.646,-1.391 1.785,-0.453 2.154,0.24 2.533,0.928 2.523,1.008 2.514,1.084 2.406,1.062 1.742,0.561 0.707,0.453 0,0 M 3.482,2.054 C 3.717,2.094 3.854,2.238 4.053,2.317 4.01,2.514 4.035,2.784 3.863,2.85 3.76,2.559 3.592,2.333 3.482,2.054 M 0.379,2.119 C 0.717,2.869 1.09,3.583 1.457,4.303 0.904,4.455 0.244,4.495 -0.381,4.566 0.004,3.889 0.254,3.071 0.379,2.119 M -3.23,4.504 C -3.482,4.047 -3.58,3.451 -3.736,2.85 -3.879,2.313 -3.914,1.561 -4.373,1.326 c -0.16,0.903 0.41,2.11 0.637,3.043 -1.725,-0.348 -3.159,-1.65 -3.106,-3.574 0.039,-1.424 1.106,-1.933 2.596,-1.92 3.164,0.027 5.475,2.858 3.357,5.691 C -1.514,4.693 -2.414,4.546 -3.23,4.504 M -3.105,4.9 c 0.56,0.121 1.3,0.053 1.837,0.199 C -1.725,5.547 -2.102,6.08 -2.471,6.621 -2.633,5.994 -2.912,5.492 -3.105,4.9 M 4.307,4.504 C 4.691,5.49 5.441,6.449 5.701,7.35 5.115,6.57 4.354,5.622 4.307,4.504 m 7.156,5.559 C 9.727,9.918 7.629,9.361 6.713,8.277 6.168,7.631 5.904,6.672 5.445,5.827 4.971,4.948 3.813,3.566 4.434,2.582 7.02,4.168 9.627,5.816 11.906,7.68 c 0.733,0.597 1.625,1.289 1.967,2.251 -0.752,0.294 -1.609,0.199 -2.41,0.132 M 4.813,2.317 C 6.313,1.635 7.547,2.884 8.803,3.111 9.111,2.766 8.756,2.057 8.932,1.654 9.842,0.996 11.611,1.236 12.287,0.332 11.887,0.016 11.346,0.531 10.639,0.729 9.422,1.069 8.092,0.861 8.549,2.648 7.461,2.137 5.635,1.184 4.369,2.054 3.943,1.836 3.584,1.55 3.102,1.392 2.6,0.327 2.182,-0.823 1.771,-1.986 c -0.878,0.316 -0.906,1.523 -1.96,1.655 -0.174,-0.261 -0.237,-0.638 -0.317,-0.993 0.244,-0.067 0.51,0.73 0.885,0.53 0.033,-0.507 -0.539,-0.931 -1.014,-1.126 -0.523,0.333 -0.119,1.083 0,1.656 -0.801,-0.638 -2.422,-1.349 -3.992,-1.257 -0.602,0.033 -1.373,0.183 -1.836,0.53 -1.146,0.86 -0.842,3.114 -0.062,4.169 0.72,0.979 1.754,1.329 2.914,1.656 0.351,0.578 0.541,1.332 0.822,1.984 0.359,0.028 0.453,0.096 0.57,0.465 1.873,0.733 4.041,1.16 5.574,2.252 C 1.41,9.175 -0.723,8.525 -2.727,7.945 -3.361,7.762 -4,7.43 -4.627,7.549 c 0.074,0.392 0.598,0.441 0.891,0.527 1.002,0.301 2.125,0.611 3.23,0.928 1.432,0.412 2.971,1 4.434,0.861 C 3.963,9.174 3.238,8.975 2.785,8.738 1.408,8.021 -0.482,7.508 -2.027,6.885 -1.771,6.026 -1.139,5.565 -0.635,4.967 0.197,4.973 0.881,4.83 1.582,4.701 2.336,5.613 2.959,6.84 3.672,7.878 3.865,8.16 4.127,8.635 4.496,8.605 4.377,7.836 3.73,7.279 3.293,6.621 2.855,5.964 2.488,5.239 2.09,4.566 2.559,4.242 3.32,4.221 3.482,3.574 2.91,3.447 2.523,4.069 1.961,4.17 1.148,3.191 0.713,1.813 0.125,0.598 c 1.053,0.2 1.828,0.695 2.725,1.056 0.357,0.828 0.855,1.36 0.949,2.516 0.168,2.077 1.437,3.296 2.662,4.369 0.062,0.332 0.26,0.524 0.379,0.795 0.246,0.058 0.226,-0.16 0.379,-0.197 1.291,0.931 3.676,1.564 5.828,1.39 0.389,-0.033 1.277,-0.14 1.267,-0.662 C 14.299,9.027 12.961,8.061 12.352,7.549 10.104,5.664 7.057,3.734 4.813,2.317"
             style="fill:#2c81ab;fill-opacity:1;fill-rule:evenodd;stroke:none"
             id="path396" /></g><g
           id="g398"
           transform="translate(341.5,626.3423)"><path
             d="M 0,0 V -36.671"
             style="fill:none;stroke:#656263;stroke-width:0.5;stroke-linecap:butt;stroke-linejoin:miter;stroke-miterlimit:4;stroke-dasharray:none;stroke-opacity:1"
             id="path400" /></g><g
           id="g402"
           transform="translate(406.333,573.6665)"><path
             d="m 0,0 c 0,-1.1 -0.9,-2 -2,-2 h -208.667 c -1.1,0 -2,0.9 -2,2 v 50.815 c 0,1.101 0.9,2 2,2 H -2 c 1.1,0 2,-0.899 2,-2 z"
             style="fill:none;stroke:#d91920;stroke-width:1;stroke-linecap:butt;stroke-linejoin:round;stroke-miterlimit:4;stroke-dasharray:none;stroke-opacity:1"
             id="path404" /></g><g
           id="g406"
           transform="translate(281.9995,606.75)"><path
             d="M 0,0 C -13,12.25 -17.667,28.417 -18.667,40.417"
             style="fill:none;stroke:#231f20;stroke-width:0.3;stroke-linecap:butt;stroke-linejoin:miter;stroke-miterlimit:10;stroke-dasharray:none;stroke-opacity:1"
             id="path408" /></g><g
           id="g410"
           transform="translate(282.8765,608.4785)"><path
             d="m 0,0 1.075,-3.582 -3.639,0.86 z"
             style="fill:#231f20;fill-opacity:1;fill-rule:nonzero;stroke:none"
             id="path412" /></g><text
           transform="matrix(1,0,0,-1,214.0811,556.1484)"
           style="font-variant:normal;font-weight:bold;font-stretch:condensed;font-size:9px;font-family:'Humanst521 Cn BT';-inkscape-font-specification:Humanist521BT-BoldCondensed;writing-mode:lr-tb;fill:#231f20;fill-opacity:1;fill-rule:nonzero;stroke:none"
           id="text422"><tspan
             x="0 4.1220002 8.4689999 12.069 16.254 20.304001 22.437 29.177999 33.138 35.442001 38.834999 43.181999 47.664001 51.768002 56.258999 58.418999"
             y="0"
             id="tspan414">LockTime roughly</tspan><tspan
             x="0 4.0500002 6.3540001 10.125 14.085 18.135 21.528 23.832001 25.965 30.447001 32.750999 35.748001 40.238998 44.199001 46.502998 48.816002 53.298 56.294998 60.777 64.169998"
             y="9.5039997"
             id="tspan416">a year in the future</tspan><tspan
             x="-24.381001 -20.421 -16.461 -11.952 -7.4699998 -3.51 0.972 4.572 8.5319996 10.836 15.318 19.799999 26.541 31.049999 35.009998 38.403 41.903999 44.199001 46.502998 50.553001 53.549999 55.854 58.014 61.973999 66.024002 69.525002 72.522003 74.825996 79.172997 83.654999 87.614998 89.918999 96.660004 101.142 104.643 107.64 109.944 114.453 118.413 120.717 122.877 126.837 130.338"
             y="-103.464"
             id="tspan418">Sequence numbers: at least one must be less</tspan><tspan
             x="-24.381001 -21.384001 -16.893 -12.843 -8.3610001 -6.0570002 -3.2939999 -0.53100002 2.2320001 4.9949999 7.7579999 10.521 13.284 16.047001 18.801001 21.114 25.461 28.854 31.158001 34.154999 38.646 42.605999 44.91 47.07 51.417 55.016998 59.202 61.506001 64.502998 66.626999 73.367996 77.328003 79.632004 82.628998 86.975998 89.279999 93.771004 97.820999 101.547 105.507 107.811 111.771 114.084 116.397 120.357 123.957 126.954"
             y="-93.959999"
             id="tspan420">than ffffffff for the lock time to have effect.</tspan></text><g
           id="g424"
           transform="translate(313.583,574.1665)"><path
             d="M 0,0 C -6.667,-9.333 -23.771,-16.14 -33.035,-16.14"
             style="fill:none;stroke:#231f20;stroke-width:0.3;stroke-linecap:butt;stroke-linejoin:miter;stroke-miterlimit:10;stroke-dasharray:none;stroke-opacity:1"
             id="path426" /></g><g
           id="g428"
           transform="translate(311.752,574.8018)"><path
             d="M 0,0 3.404,1.549 3.043,-2.173 Z"
             style="fill:#231f20;fill-opacity:1;fill-rule:nonzero;stroke:none"
             id="path430" /></g><g
           id="g432"
           transform="translate(466.7451,626.5713)"><path
             d="m 0,0 -42.899,-20.004 -19.885,42.64 42.9,20.005 z"
             style="fill:#8eb769;fill-opacity:1;fill-rule:evenodd;stroke:none"
             id="path434" /></g><g
           id="g436"
           transform="translate(466.7451,626.5713)"><path
             d="m 0,0 -42.899,-20.004 -19.885,42.64 42.9,20.005 z"
             style="fill:none;stroke:#5a803d;stroke-width:0.5;stroke-linecap:butt;stroke-linejoin:miter;stroke-miterlimit:4;stroke-dasharray:none;stroke-opacity:1"
             id="path438" /></g><g
           id="g440"
           transform="translate(410.3848,638.2944)"><path
             d="m 0,0 c 4.701,-10.033 9.313,-20.252 14.078,-30.192 10.623,5.013 21.537,9.893 32.083,14.961 -1.358,2.877 -2.833,6.067 -4.179,8.96 2.872,1.344 5.781,2.632 8.601,4.011 -3.405,7.089 -6.417,14.256 -9.9,21.23 C 27.314,12.543 13.414,6.395 0,0"
             style="fill:#231f20;fill-opacity:1;fill-rule:evenodd;stroke:none"
             id="path442" /></g><g
           id="g444"
           transform="translate(451.0791,657.2705)"><path
             d="M 0,0 9.9,-21.231 5.478,-34.202 c 0,0 -21.46,-9.948 -32.082,-14.961 -4.766,9.939 -9.377,20.16 -14.08,30.192 C -27.269,-12.576 0,0 0,0"
             style="fill:#ffffff;fill-opacity:1;fill-rule:evenodd;stroke:none"
             id="path446" /></g><g
           id="g448"
           transform="translate(460.9678,636.0342)"><path
             d="M 0,0 C 1.17,-2.302 3.106,-6.524 4.189,-8.956 1.769,-10.012 -2.05,-11.883 -4.422,-12.971 -3.202,-8.004 -1.216,-3.473 0,0"
             style="fill:#ffffff;fill-opacity:1;fill-rule:evenodd;stroke:none"
             id="path450" /></g><g
           id="g452"
           transform="translate(420.5391,649.6953)"><path
             d="M 0,0 C 0.307,0.14 0.597,0.292 0.887,0.444 L 0.242,1.294 C -0.18,1.859 -0.277,1.998 -0.569,2.428 -0.437,1.941 -0.396,1.794 -0.213,0.99 Z m 2.688,-1.924 c -0.368,0.519 -0.6,0.821 -0.971,1.306 L 0.371,-1.274 C 0.484,-1.802 0.613,-2.322 0.759,-2.833 L 0.732,-2.909 c -0.655,-0.319 -0.881,-0.43 -1.488,-0.747 l -0.062,0.022 c -0.094,0.62 -0.121,0.763 -0.338,1.865 l -0.297,1.591 c -0.082,0.49 -0.17,0.969 -0.262,1.454 -0.049,0.247 -0.282,1.475 -0.339,1.76 l 0.031,0.067 c 1.025,0.501 1.185,0.578 2.013,1.014 L 0.064,4.09 C 0.143,3.994 0.223,3.896 0.309,3.804 1.384,2.539 1.459,2.451 2.133,1.665 L 3.232,0.372 C 3.477,0.084 3.859,-0.383 4.104,-0.67 4.15,-0.721 4.364,-0.971 4.414,-1.03 L 4.396,-1.1 C 3.695,-1.454 3.539,-1.539 2.758,-1.941 Z"
             style="fill:#ffffff;fill-opacity:1;fill-rule:nonzero;stroke:none"
             id="path454" /></g><g
           id="g456"
           transform="translate(426.6201,650.686)"><path
             d="M 0,0 C 0.126,0.062 0.37,0.181 0.341,0.625 0.313,0.892 0.155,1.304 0.012,1.598 -0.2,2.034 -0.563,2.669 -0.917,2.498 -1.034,2.439 -1.072,2.327 -1.111,2.236 -0.583,1.153 -0.555,1.094 0,0 m -1.798,3.514 c 0.09,-0.206 0.139,-0.307 0.197,-0.446 0.116,0.276 0.291,0.684 0.762,0.913 C -0.284,4.252 0.208,4.055 0.493,3.873 1.001,3.538 1.371,2.906 1.552,2.536 1.899,1.822 2.364,0.529 1.371,-0.486 1.101,-0.763 0.892,-0.865 0.483,-1.075 0.603,-1.318 1.222,-2.504 1.361,-2.769 L 1.337,-2.844 C 1.138,-2.931 0.933,-3.02 0.739,-3.115 0.429,-3.266 0.151,-3.422 -0.19,-3.62 l -0.075,0.025 c -0.188,0.429 -0.418,0.942 -0.906,1.942 -1.279,2.622 -1.682,3.299 -2.15,4.069 l 0.015,0.072 c 0.688,0.469 0.856,0.593 1.43,1.039 z"
             style="fill:#ffffff;fill-opacity:1;fill-rule:nonzero;stroke:none"
             id="path458" /></g><g
           id="g460"
           transform="translate(431.709,651.8784)"><path
             d="m 0,0 c -0.678,-0.32 -0.908,-0.442 -1.584,-0.804 l -0.076,0.026 c -0.328,0.735 -0.598,1.331 -0.971,2.095 -0.541,1.11 -0.916,1.749 -1.166,2.157 l 0.033,0.081 c 0.668,0.44 0.817,0.543 1.437,1.043 l 0.071,-0.017 c 0.127,-0.241 0.3,-0.614 0.549,-1.126 -0.166,0.917 -0.092,1.38 0.531,1.684 0.102,0.049 0.164,0.069 0.256,0.094 l 0.08,-0.035 c 0.272,-0.835 0.34,-1.04 0.625,-1.796 l -0.05,-0.067 c -0.1,0.036 -0.333,0.13 -0.586,0.007 C -1.011,3.264 -1.133,3.11 -1.176,2.943 -1.256,2.635 -1.092,2.298 -0.918,1.945 -0.783,1.667 -0.16,0.453 0.033,0.08 Z"
             style="fill:#ffffff;fill-opacity:1;fill-rule:nonzero;stroke:none"
             id="path462" /></g><g
           id="g464"
           transform="translate(435.2871,653.625)"><path
             d="m 0,0 c -0.684,-0.325 -0.895,-0.427 -1.607,-0.817 l -0.077,0.026 c -0.277,0.613 -0.541,1.214 -0.925,2.004 -0.373,0.765 -0.763,1.521 -1.211,2.249 l 0.016,0.072 c 0.673,0.453 0.838,0.564 1.474,1.073 l 0.068,-0.03 C -1.98,3.976 -1.656,3.291 -1.405,2.778 -0.959,1.863 -0.496,0.954 0.02,0.071 Z M -2.645,4.974 C -3.212,4.603 -3.385,4.486 -3.936,4.083 L -4.012,4.108 C -4.27,4.639 -4.33,4.764 -4.615,5.281 l 0.017,0.072 c 0.623,0.386 0.796,0.501 1.334,0.89 L -3.188,6.216 C -2.933,5.673 -2.893,5.59 -2.625,5.044 Z"
             style="fill:#ffffff;fill-opacity:1;fill-rule:nonzero;stroke:none"
             id="path466" /></g><g
           id="g468"
           transform="translate(437.7676,654.8345)"><path
             d="m 0,0 c -0.754,-0.357 -0.912,-0.435 -1.594,-0.809 l -0.066,0.03 c -0.307,0.694 -0.557,1.249 -1.176,2.517 -1.271,2.606 -1.498,2.984 -1.813,3.527 l 0.016,0.07 c 0.586,0.421 0.776,0.566 1.437,1.066 L -3.121,6.375 C -2.879,5.857 -2.699,5.488 -2.469,5.018 -0.788,1.572 -0.537,1.101 0.018,0.071 Z"
             style="fill:#ffffff;fill-opacity:1;fill-rule:nonzero;stroke:none"
             id="path470" /></g><g
           id="g472"
           transform="translate(418.9453,639.1499)"><path
             d="M 0,0 6.768,3.302 C 8.264,4.033 8.897,4.369 9.67,4.774 L 9.84,4.658 C 9.668,3.492 8.754,-2.171 8.581,-3.452 c 3.694,1.66 5.997,-0.666 6.771,-2.255 0.349,-0.713 0.546,-1.528 0.561,-2.376 0.008,-2.704 -1.854,-4.667 -4.433,-5.925 -1.451,-0.708 -2.991,-1.175 -4.593,-1.044 l -0.194,0.105 c -0.358,0.851 -0.459,1.058 -0.828,1.99 l 0.139,0.182 c 0.617,-0.156 2.367,-0.584 4.506,0.46 2.441,1.191 3.286,3.313 2.365,5.201 -0.473,0.967 -1.268,1.548 -2.113,1.762 C 9.447,-4.995 8.137,-5.579 7.584,-5.849 6.686,-6.287 6.27,-6.718 5.876,-7.081 L 5.659,-6.987 C 5.948,-5.534 6.793,-1.189 7.021,1.088 4.328,-0.226 3.359,-0.697 0.908,-1.979 l -0.206,0.07 c -0.323,0.84 -0.413,1.024 -0.751,1.715 z"
             style="fill:#4084a8;fill-opacity:1;fill-rule:nonzero;stroke:none"
             id="path474" /></g><g
           id="g476"
           transform="translate(437.7598,646.3906)"><path
             d="m 0,0 c -2.187,-1.066 -1.742,-3.614 -1.632,-4.188 0.271,-1.492 0.978,-3.114 1.36,-3.897 0.516,-1.059 1.135,-2.096 1.906,-3.032 0.465,-0.542 2.117,-2.529 4.419,-1.405 1.635,0.797 1.787,2.181 1.749,3.076 C 7.771,-7.98 7.01,-6.07 6.291,-4.597 5.988,-3.976 5.673,-3.388 5.312,-2.824 4.602,-1.66 3.775,-0.552 2.749,-0.026 2.111,0.289 1.082,0.528 0,0 m -2.861,-9.206 c -0.764,1.566 -1.467,3.417 -1.508,5.251 -0.051,2.91 1.525,4.762 3.528,5.74 0.622,0.303 1.311,0.526 2.011,0.61 4.175,0.556 6.562,-3.581 7.652,-5.815 1.955,-4.005 1.625,-6.133 1.328,-7.219 -0.605,-2.147 -2.116,-3.14 -3.336,-3.735 -0.853,-0.416 -2.714,-1.211 -4.939,-0.273 -1.483,0.644 -3.074,2.035 -4.736,5.441"
             style="fill:#4084a8;fill-opacity:1;fill-rule:nonzero;stroke:none"
             id="path478" /></g><g
           id="g480"
           transform="translate(429.3555,613.0493)"><path
             d="M 0,0 C 0.115,-0.275 0.137,-0.317 0.254,-0.557 L 0.235,-0.609 -0.035,-0.733 C -0.176,-0.802 -2.451,-1.92 -3.149,-2.278 l -0.064,0.056 c 0.283,0.889 0.559,1.774 0.82,2.67 0.157,0.521 0.381,1.295 0.117,1.837 -0.232,0.473 -0.79,0.759 -1.482,0.423 C -3.99,2.594 -4.192,2.435 -4.352,2.243 -4.589,1.96 -4.672,1.72 -4.737,1.513 l -0.07,0.001 c -0.121,0.264 -0.141,0.307 -0.313,0.66 l 0.015,0.076 c 0.064,0.136 0.182,0.377 0.537,0.689 0.197,0.167 0.42,0.32 0.66,0.436 1.072,0.523 1.987,0.133 2.355,-0.623 0.362,-0.74 0.157,-1.662 -0.385,-3.217 l -0.203,-0.587 0.698,0.341 c 0.529,0.275 0.611,0.323 1.382,0.743 z"
             style="fill:#5a803d;fill-opacity:1;fill-rule:nonzero;stroke:none"
             id="path482" /></g><g
           id="g484"
           transform="translate(429.8896,617.9194)"><path
             d="m 0,0 c -0.67,-0.327 -0.532,-1.107 -0.501,-1.283 0.084,-0.456 0.301,-0.953 0.418,-1.194 0.158,-0.324 0.348,-0.641 0.583,-0.928 0.143,-0.166 0.649,-0.775 1.354,-0.431 0.5,0.244 0.547,0.669 0.536,0.943 -0.009,0.449 -0.244,1.034 -0.463,1.486 -0.093,0.19 -0.19,0.37 -0.3,0.542 -0.218,0.358 -0.47,0.696 -0.785,0.857 C 0.647,0.089 0.332,0.162 0,0 m -0.876,-2.819 c -0.234,0.48 -0.45,1.047 -0.462,1.608 -0.016,0.892 0.466,1.459 1.08,1.758 0.191,0.093 0.403,0.161 0.616,0.187 1.28,0.17 2.011,-1.096 2.344,-1.78 0.6,-1.228 0.498,-1.88 0.406,-2.211 C 2.924,-3.917 2.46,-4.22 2.087,-4.402 1.826,-4.53 1.255,-4.773 0.575,-4.486 0.12,-4.289 -0.366,-3.863 -0.876,-2.819"
             style="fill:#5a803d;fill-opacity:1;fill-rule:nonzero;stroke:none"
             id="path486" /></g><g
           id="g488"
           transform="translate(436.2715,615.708)"><path
             d="M 0,0 C -0.31,-0.151 -0.395,-0.193 -0.744,-0.389 L -0.811,-0.36 C -1.339,0.778 -1.456,1.019 -2.104,2.379 -2.344,2.873 -2.608,3.433 -2.813,3.832 -3.107,3.617 -3.18,3.565 -3.439,3.368 L -3.518,3.382 C -3.6,3.604 -3.631,3.686 -3.723,3.893 l 0.018,0.071 c 0.564,0.362 0.764,0.494 1.331,0.885 L -2.299,4.841 C -2.142,4.446 -1.947,3.974 -1.057,2.147 -0.502,1.012 -0.281,0.579 0.022,0.064 Z"
             style="fill:#5a803d;fill-opacity:1;fill-rule:nonzero;stroke:none"
             id="path490" /></g><g
           id="g492"
           transform="translate(438.5078,619.6357)"><path
             d="m 0,0 c -0.6,-0.292 -0.816,-0.851 -0.551,-1.394 0.258,-0.53 0.8,-0.728 1.428,-0.421 0.634,0.309 0.773,0.884 0.529,1.384 C 1.165,0.063 0.62,0.303 0,0 M -0.979,2.003 C -1.549,1.724 -1.684,1.231 -1.488,0.829 -1.281,0.406 -0.805,0.271 -0.263,0.536 0.471,0.894 0.352,1.499 0.199,1.756 0.02,2.053 -0.436,2.268 -0.979,2.003 M 1.547,0.624 C 1.835,0.478 2.058,0.218 2.191,-0.056 2.447,-0.578 2.357,-1.075 2.199,-1.397 1.979,-1.854 1.561,-2.163 1.117,-2.38 c -1.199,-0.584 -2.075,-0.148 -2.44,0.6 -0.423,0.867 0.073,1.423 0.247,1.622 -0.263,0.003 -0.838,0.019 -1.162,0.682 -0.2,0.409 -0.164,0.855 0.037,1.214 0.153,0.276 0.451,0.578 0.972,0.833 C -0.156,3.094 0.625,2.725 0.929,2.104 1.266,1.413 0.868,0.922 0.715,0.734 0.901,0.764 1.197,0.803 1.547,0.624"
             style="fill:#5a803d;fill-opacity:1;fill-rule:nonzero;stroke:none"
             id="path494" /></g><g
           id="g496"
           transform="translate(412.1387,651.0195)"><path
             d="M 0,0 -1.252,-0.584 -2.823,2.787 -1.571,3.37 Z"
             style="fill:#deddde;fill-opacity:1;fill-rule:evenodd;stroke:none"
             id="path498" /></g><g
           id="g500"
           transform="translate(412.1387,651.0195)"><path
             d="M 0,0 -1.252,-0.584 -2.823,2.787 -1.571,3.37 Z"
             style="fill:none;stroke:#706d6e;stroke-width:0.3;stroke-linecap:butt;stroke-linejoin:round;stroke-miterlimit:4;stroke-dasharray:none;stroke-opacity:1"
             id="path502" /></g><g
           id="g504"
           transform="translate(414.3535,652.0518)"><path
             d="m 0,0 -1.252,-0.583 -1.571,3.37 1.251,0.584 z"
             style="fill:#deddde;fill-opacity:1;fill-rule:evenodd;stroke:none"
             id="path506" /></g><g
           id="g508"
           transform="translate(414.3535,652.0518)"><path
             d="m 0,0 -1.252,-0.583 -1.571,3.37 1.251,0.584 z"
             style="fill:none;stroke:#706d6e;stroke-width:0.3;stroke-linecap:butt;stroke-linejoin:round;stroke-miterlimit:4;stroke-dasharray:none;stroke-opacity:1"
             id="path510" /></g><g
           id="g512"
           transform="translate(439.2549,663.6641)"><path
             d="M 0,0 -1.252,-0.584 -2.823,2.787 -1.571,3.37 Z"
             style="fill:#deddde;fill-opacity:1;fill-rule:evenodd;stroke:none"
             id="path514" /></g><g
           id="g516"
           transform="translate(439.2549,663.6641)"><path
             d="M 0,0 -1.252,-0.584 -2.823,2.787 -1.571,3.37 Z"
             style="fill:none;stroke:#706d6e;stroke-width:0.3;stroke-linecap:butt;stroke-linejoin:round;stroke-miterlimit:4;stroke-dasharray:none;stroke-opacity:1"
             id="path518" /></g><g
           id="g520"
           transform="translate(441.4688,664.6968)"><path
             d="M 0,0 -1.251,-0.584 -2.822,2.786 -1.57,3.37 Z"
             style="fill:#deddde;fill-opacity:1;fill-rule:evenodd;stroke:none"
             id="path522" /></g><g
           id="g524"
           transform="translate(441.4688,664.6968)"><path
             d="M 0,0 -1.251,-0.584 -2.822,2.786 -1.57,3.37 Z"
             style="fill:none;stroke:#706d6e;stroke-width:0.3;stroke-linecap:butt;stroke-linejoin:round;stroke-miterlimit:4;stroke-dasharray:none;stroke-opacity:1"
             id="path526" /></g><g
           id="g528"
           transform="translate(460.9678,636.0342)"><path
             d="m 0,0 c -0.085,-3.612 -1.431,-8.641 -4.831,-14.025 0,0 1.062,2.337 0.708,4.604 l 2.338,7.013 z"
             style="fill:#abaaaa;fill-opacity:1;fill-rule:evenodd;stroke:none"
             id="path530" /></g><g
           id="g532"
           transform="translate(460.9795,636.0396)"><path
             d="m 0,0 c -0.38,-0.714 -4.063,-2.555 -8.601,-4.011 3.901,-2.653 4.679,-8.107 4.178,-8.96 z"
             style="fill:#deddde;fill-opacity:1;fill-rule:evenodd;stroke:none"
             id="path534" /></g><g
           id="g536"
           transform="translate(281.083,622.9165)"><path
             d="M 0,0 C -10.25,7.5 -16,19.5 -17.75,24.25"
             style="fill:none;stroke:#231f20;stroke-width:0.3;stroke-linecap:butt;stroke-linejoin:miter;stroke-miterlimit:10;stroke-dasharray:none;stroke-opacity:1"
             id="path538" /></g><g
           id="g540"
           transform="translate(281.7393,624.7402)"><path
             d="m 0,0 1.51,-3.421 -3.718,0.403 z"
             style="fill:#231f20;fill-opacity:1;fill-rule:nonzero;stroke:none"
             id="path542" /></g><g
           id="g544"
           transform="translate(199.3335,607.083)"><path
             d="M 0,0 C -5.667,3.333 -12,5 -19.833,5"
             style="fill:none;stroke:#231f20;stroke-width:0.3;stroke-linecap:butt;stroke-linejoin:miter;stroke-miterlimit:10;stroke-dasharray:none;stroke-opacity:1"
             id="path546" /></g><g
           id="g548"
           transform="translate(199.8047,608.9629)"><path
             d="m 0,0 1.843,-3.253 -3.739,0.03 z"
             style="fill:#231f20;fill-opacity:1;fill-rule:nonzero;stroke:none"
             id="path550" /></g><g
           id="g552"
           transform="translate(199.3335,623.3911)"><path
             d="M 0,0 C -5.667,3.333 -12,5 -19.833,5"
             style="fill:none;stroke:#231f20;stroke-width:0.3;stroke-linecap:butt;stroke-linejoin:miter;stroke-miterlimit:10;stroke-dasharray:none;stroke-opacity:1"
             id="path554" /></g><g
           id="g556"
           transform="translate(199.8047,625.271)"><path
             d="m 0,0 1.843,-3.253 -3.739,0.03 z"
             style="fill:#231f20;fill-opacity:1;fill-rule:nonzero;stroke:none"
             id="path558" /></g><text
           transform="matrix(1,0,0,-1,154.1426,624.918)"
           style="font-variant:normal;font-weight:bold;font-stretch:condensed;font-size:9px;font-family:'Humanst521 Cn BT';-inkscape-font-specification:Humanist521BT-BoldCondensed;writing-mode:lr-tb;fill:#231f20;fill-opacity:1;fill-rule:nonzero;stroke:none"
           id="text568"><tspan
             x="0 3.7079999 8.316 10.62 15.462 19.197001"
             y="0"
             id="tspan560">30 BTC</tspan><tspan
             x="-0.30599999 3.7079999 8.316 10.62 15.462 19.188"
             y="17.046"
             id="tspan562">70 BTC</tspan><tspan
             x="206.82899 210.267"
             y="-34.695"
             id="tspan564">To</tspan><tspan
             x="206.82899 211.338 215.388 219.87 223.974 228.465 231.46201 235.422"
             y="-25.191"
             id="tspan566">daughter</tspan></text><g
           id="g570"
           transform="translate(384.458,624.1665)"><path
             d="M 0,0 C 0,12.75 -9.125,12 -9.125,21.75"
             style="fill:none;stroke:#231f20;stroke-width:0.3;stroke-linecap:butt;stroke-linejoin:miter;stroke-miterlimit:10;stroke-dasharray:none;stroke-opacity:1"
             id="path572" /></g><g
           id="g574"
           transform="translate(386.3174,624.7134)"><path
             d="M 0,0 -1.869,-3.238 -3.739,0 Z"
             style="fill:#231f20;fill-opacity:1;fill-rule:nonzero;stroke:none"
             id="path576" /></g></g></g></g></svg>
