<?xml version="1.0" encoding="UTF-8" standalone="no"?>
<svg
   xmlns:dc="http://purl.org/dc/elements/1.1/"
   xmlns:cc="http://creativecommons.org/ns#"
   xmlns:rdf="http://www.w3.org/1999/02/22-rdf-syntax-ns#"
   xmlns:svg="http://www.w3.org/2000/svg"
   xmlns="http://www.w3.org/2000/svg"
   version="1.1"
   id="svg2"
   xml:space="preserve"
   width="132.13948"
   height="148.91563"
   viewBox="0 0 132.13948 148.91563"><metadata
     id="metadata8"><rdf:RDF><cc:Work
         rdf:about=""><dc:format>image/svg+xml</dc:format><dc:type
           rdf:resource="http://purl.org/dc/dcmitype/StillImage" /></cc:Work></rdf:RDF></metadata><defs
     id="defs6"><clipPath
       clipPathUnits="userSpaceOnUse"
       id="clipPath18"><path
         d="M 0,792 H 612 V 0 H 0 Z"
         id="path16" /></clipPath><linearGradient
       x1="0"
       y1="0"
       x2="1"
       y2="0"
       gradientUnits="userSpaceOnUse"
       gradientTransform="matrix(0,-24.276367,-24.276367,0,274.33447,616.2373)"
       spreadMethod="pad"
       id="linearGradient44"><stop
         style="stop-opacity:1;stop-color:#898c8f"
         offset="0"
         id="stop36" /><stop
         style="stop-opacity:1;stop-color:#ffffff"
         offset="0.25998026"
         id="stop38" /><stop
         style="stop-opacity:1;stop-color:#ffffff"
         offset="0.503067"
         id="stop40" /><stop
         style="stop-opacity:1;stop-color:#ffffff"
         offset="1"
         id="stop42" /></linearGradient><linearGradient
       x1="0"
       y1="0"
       x2="1"
       y2="0"
       gradientUnits="userSpaceOnUse"
       gradientTransform="matrix(0,-10.623047,-10.623047,0,274.24414,602.58398)"
       spreadMethod="pad"
       id="linearGradient64"><stop
         style="stop-opacity:1;stop-color:#f0f2f2"
         offset="0"
         id="stop60" /><stop
         style="stop-opacity:1;stop-color:#d2d5d7"
         offset="1"
         id="stop62" /></linearGradient><clipPath
       clipPathUnits="userSpaceOnUse"
       id="clipPath74"><path
         d="M 0,792 H 612 V 0 H 0 Z"
         id="path72" /></clipPath><clipPath
       clipPathUnits="userSpaceOnUse"
       id="clipPath182"><path
         d="m 256.364,626.228 h 35.779 v 21.805 h -35.779 z"
         id="path180" /></clipPath><clipPath
       clipPathUnits="userSpaceOnUse"
       id="clipPath336"><path
         d="M 0,792 H 612 V 0 H 0 Z"
         id="path334" /></clipPath></defs><g
     id="g10"
     transform="matrix(1.3333333,0,0,-1.3333333,-333.21185,899.35095)"><g
       id="g12"><g
         id="g14"
         clip-path="url(#clipPath18)"><g
           id="g20"
           transform="translate(296.4385,615.8496)"><path
             d="m 0,0 c 0.045,0.76 -0.544,1.384 -1.304,1.384 h -41.783 c -0.762,0 -1.351,-0.624 -1.309,-1.384 l 1.311,-23.815 c 0.043,-0.763 0.703,-1.386 1.465,-1.386 h 38.849 c 0.762,0 1.42,0.623 1.467,1.386 z"
             style="fill:#8e9498;fill-opacity:1;fill-rule:nonzero;stroke:none"
             id="path22" /></g></g></g><g
       id="g24"><g
         id="g26"><g
           id="g32"><g
             id="g34"><path
               d="m 253.33,616.237 1.374,-24.276 h 39.073 l 1.562,24.276 z"
               style="fill:url(#linearGradient44);stroke:none"
               id="path46" /></g></g></g></g><g
       id="g48"><g
         id="g50"><g
           id="g56"><g
             id="g58"><path
               d="m 257.4,602.584 -2.543,-10.623 h 38.774 l -2.357,10.623 z"
               style="fill:url(#linearGradient64);stroke:none"
               id="path66" /></g></g></g></g><g
       id="g68"><g
         id="g70"
         clip-path="url(#clipPath74)"><g
           id="g76"
           transform="translate(296.4385,617.5801)"><path
             d="m 0,0 c 0.045,0.761 -0.544,1.384 -1.304,1.384 h -41.783 c -0.762,0 -1.351,-0.623 -1.309,-1.384 l 1.311,-25.546 c 0.043,-0.763 0.703,-1.386 1.465,-1.386 h 38.849 c 0.762,0 1.42,0.623 1.467,1.386 z"
             style="fill:none;stroke:#231f20;stroke-width:0.5;stroke-linecap:butt;stroke-linejoin:round;stroke-miterlimit:14.336;stroke-dasharray:none;stroke-opacity:1"
             id="path78" /></g><g
           id="g80"
           transform="translate(250.3115,621.0469)"><path
             d="M 0,0 0.624,-3.813 H 47.238 L 47.865,0 Z"
             style="fill:#7dbbdd;fill-opacity:1;fill-rule:nonzero;stroke:none"
             id="path82" /></g><g
           id="g84"
           transform="translate(250.3115,621.0469)"><path
             d="M 0,0 0.624,-3.813 H 47.238 L 47.865,0 Z"
             style="fill:none;stroke:#231f20;stroke-width:0.5;stroke-linecap:butt;stroke-linejoin:round;stroke-miterlimit:14.336;stroke-dasharray:none;stroke-opacity:1"
             id="path86" /></g><g
           id="g88"
           transform="translate(294.2456,631.3735)"><path
             d="m 0,0 c -0.203,0.511 -0.82,0.929 -1.37,0.929 h -37.265 c -0.55,0 -1.167,-0.418 -1.37,-0.929 l -4.017,-10.091 c -0.204,-0.511 0.08,-0.929 0.63,-0.929 H 3.385 c 0.55,0 0.834,0.418 0.631,0.929 z"
             style="fill:#c4dfef;fill-opacity:1;fill-rule:nonzero;stroke:none"
             id="path90" /></g><g
           id="g92"
           transform="translate(294.2456,631.3735)"><path
             d="m 0,0 c -0.203,0.511 -0.82,0.929 -1.37,0.929 h -37.265 c -0.55,0 -1.167,-0.418 -1.37,-0.929 l -4.017,-10.091 c -0.204,-0.511 0.08,-0.929 0.63,-0.929 H 3.385 c 0.55,0 0.834,0.418 0.631,0.929 z"
             style="fill:none;stroke:#231f20;stroke-width:0.5;stroke-linecap:butt;stroke-linejoin:round;stroke-miterlimit:14.336;stroke-dasharray:none;stroke-opacity:1"
             id="path94" /></g><g
           id="g96"
           transform="translate(256.251,627.1006)"><path
             d="m 0,0 -0.617,-1.543 h 37.22 L 35.984,0 Z"
             style="fill:#231f20;fill-opacity:1;fill-rule:nonzero;stroke:none"
             id="path98" /></g><g
           id="g100"
           transform="translate(256.251,627.1006)"><path
             d="m 0,0 -0.617,-1.543 h 37.22 L 35.984,0 Z"
             style="fill:none;stroke:#231f20;stroke-width:0.5;stroke-linecap:butt;stroke-linejoin:round;stroke-miterlimit:14.336;stroke-dasharray:none;stroke-opacity:1"
             id="path102" /></g><g
           id="g104"
           transform="translate(271.6748,601.7256)"><path
             d="m 0,0 1.975,-1.855 c 1.666,1.931 2.447,7.94 2.447,16.367 H 0.894 C 0.894,5.903 0.883,1.021 0,0"
             style="fill:#f8a45c;fill-opacity:1;fill-rule:nonzero;stroke:none"
             id="path106" /></g><g
           id="g108"
           transform="translate(271.6748,601.7256)"><path
             d="m 0,0 1.975,-1.855 c 1.666,1.931 2.447,7.94 2.447,16.367 H 0.894 C 0.894,5.903 0.883,1.021 0,0 Z"
             style="fill:none;stroke:#231f20;stroke-width:0.3;stroke-linecap:butt;stroke-linejoin:miter;stroke-miterlimit:4;stroke-dasharray:none;stroke-opacity:1"
             id="path110" /></g><g
           id="g112"
           transform="translate(266.459,602.0146)"><path
             d="m 0,0 1.279,-2.433 c 3.564,2.048 4.494,9.212 4.496,16.656 H 2.248 C 2.248,11.064 2.679,1.539 0,0"
             style="fill:#f8a45c;fill-opacity:1;fill-rule:nonzero;stroke:none"
             id="path114" /></g><g
           id="g116"
           transform="translate(266.459,602.0146)"><path
             d="m 0,0 1.279,-2.433 c 3.564,2.048 4.494,9.212 4.496,16.656 H 2.248 C 2.248,11.064 2.679,1.539 0,0 Z"
             style="fill:none;stroke:#231f20;stroke-width:0.3;stroke-linecap:butt;stroke-linejoin:miter;stroke-miterlimit:4;stroke-dasharray:none;stroke-opacity:1"
             id="path118" /></g><g
           id="g120"
           transform="translate(261.1621,602.1006)"><path
             d="M 0,0 0.913,-2.605 C 6.846,-0.338 7.288,9.423 7.288,14.137 H 3.765 C 3.765,10.368 4.189,1.602 0,0"
             style="fill:#f8a45c;fill-opacity:1;fill-rule:nonzero;stroke:none"
             id="path122" /></g><g
           id="g124"
           transform="translate(261.1621,602.1006)"><path
             d="M 0,0 0.913,-2.605 C 6.846,-0.338 7.288,9.423 7.288,14.137 H 3.765 C 3.765,10.368 4.189,1.602 0,0 Z"
             style="fill:none;stroke:#231f20;stroke-width:0.3;stroke-linecap:butt;stroke-linejoin:miter;stroke-miterlimit:4;stroke-dasharray:none;stroke-opacity:1"
             id="path126" /></g><g
           id="g128"
           transform="translate(255.8262,602.1357)"><path
             d="M 0,0 0.702,-2.676 C 8.437,-0.463 8.885,9.725 8.885,14.102 H 5.355 C 5.355,10.046 5.784,1.654 0,0"
             style="fill:#f8a45c;fill-opacity:1;fill-rule:nonzero;stroke:none"
             id="path130" /></g><g
           id="g132"
           transform="translate(255.8262,602.1357)"><path
             d="M 0,0 0.702,-2.676 C 8.437,-0.463 8.885,9.725 8.885,14.102 H 5.355 C 5.355,10.046 5.784,1.654 0,0 Z"
             style="fill:none;stroke:#231f20;stroke-width:0.3;stroke-linecap:butt;stroke-linejoin:miter;stroke-miterlimit:4;stroke-dasharray:none;stroke-opacity:1"
             id="path134" /></g><g
           id="g136"
           transform="translate(282.0518,602.0146)"><path
             d="m 0,0 -1.279,-2.433 c -3.565,2.048 -4.498,9.212 -4.498,16.656 h 3.529 C -2.248,11.064 -2.679,1.539 0,0"
             style="fill:#f8a45c;fill-opacity:1;fill-rule:nonzero;stroke:none"
             id="path138" /></g><g
           id="g140"
           transform="translate(282.0518,602.0146)"><path
             d="m 0,0 -1.279,-2.433 c -3.565,2.048 -4.498,9.212 -4.498,16.656 h 3.529 C -2.248,11.064 -2.679,1.539 0,0 Z"
             style="fill:none;stroke:#231f20;stroke-width:0.3;stroke-linecap:butt;stroke-linejoin:miter;stroke-miterlimit:4;stroke-dasharray:none;stroke-opacity:1"
             id="path142" /></g><g
           id="g144"
           transform="translate(287.3467,602.1006)"><path
             d="m 0,0 -0.908,-2.605 c -5.936,2.267 -6.384,12.028 -6.384,16.742 h 3.531 C -3.761,10.368 -4.188,1.602 0,0"
             style="fill:#f8a45c;fill-opacity:1;fill-rule:nonzero;stroke:none"
             id="path146" /></g><g
           id="g148"
           transform="translate(287.3467,602.1006)"><path
             d="m 0,0 -0.908,-2.605 c -5.936,2.267 -6.384,12.028 -6.384,16.742 h 3.531 C -3.761,10.368 -4.188,1.602 0,0 Z"
             style="fill:none;stroke:#231f20;stroke-width:0.3;stroke-linecap:butt;stroke-linejoin:miter;stroke-miterlimit:4;stroke-dasharray:none;stroke-opacity:1"
             id="path150" /></g><g
           id="g152"
           transform="translate(292.6836,602.1357)"><path
             d="m 0,0 -0.704,-2.676 c -7.732,2.213 -8.18,12.401 -8.18,16.778 h 3.53 C -5.354,10.046 -5.783,1.654 0,0"
             style="fill:#f8a45c;fill-opacity:1;fill-rule:nonzero;stroke:none"
             id="path154" /></g><g
           id="g156"
           transform="translate(292.6836,602.1357)"><path
             d="m 0,0 -0.704,-2.676 c -7.732,2.213 -8.18,12.401 -8.18,16.778 h 3.53 C -5.354,10.046 -5.783,1.654 0,0 Z"
             style="fill:none;stroke:#231f20;stroke-width:0.3;stroke-linecap:butt;stroke-linejoin:miter;stroke-miterlimit:4;stroke-dasharray:none;stroke-opacity:1"
             id="path158" /></g><g
           id="g160"
           transform="translate(276.0635,623.0381)"><path
             d="m 0,0 c 0,-0.56 -0.816,-1.013 -1.818,-1.013 -1.005,0 -1.822,0.453 -1.822,1.013 0,0.56 0.817,1.012 1.822,1.012 C -0.816,1.012 0,0.56 0,0"
             style="fill:#c60e3d;fill-opacity:1;fill-rule:nonzero;stroke:none"
             id="path162" /></g><g
           id="g164"
           transform="translate(276.0635,623.0381)"><path
             d="m 0,0 c 0,-0.56 -0.816,-1.013 -1.818,-1.013 -1.005,0 -1.822,0.453 -1.822,1.013 0,0.56 0.817,1.012 1.822,1.012 C -0.816,1.012 0,0.56 0,0 Z"
             style="fill:none;stroke:#231f20;stroke-width:0.3;stroke-linecap:butt;stroke-linejoin:round;stroke-miterlimit:14.336;stroke-dasharray:none;stroke-opacity:1"
             id="path166" /></g><g
           id="g168"
           transform="translate(276.0635,623.5225)"><path
             d="m 0,0 c 0,-0.557 -0.816,-1.012 -1.818,-1.012 -1.005,0 -1.822,0.455 -1.822,1.012 0,0.562 0.817,1.014 1.822,1.014 C -0.816,1.014 0,0.562 0,0"
             style="fill:#f0374b;fill-opacity:1;fill-rule:nonzero;stroke:none"
             id="path170" /></g><g
           id="g172"
           transform="translate(276.0635,623.5225)"><path
             d="m 0,0 c 0,-0.557 -0.816,-1.012 -1.818,-1.012 -1.005,0 -1.822,0.455 -1.822,1.012 0,0.562 0.817,1.014 1.822,1.014 C -0.816,1.014 0,0.562 0,0 Z"
             style="fill:none;stroke:#231f20;stroke-width:0.3;stroke-linecap:butt;stroke-linejoin:round;stroke-miterlimit:14.336;stroke-dasharray:none;stroke-opacity:1"
             id="path174" /></g></g></g><g
       id="g176"><g
         id="g178"
         clip-path="url(#clipPath182)"><path
           d="m 257.19,645.06 h 34.105 V 607.397 H 257.19 Z"
           style="fill:#e0e0e0;fill-opacity:1;fill-rule:nonzero;stroke:#231f20;stroke-width:0.5;stroke-linecap:butt;stroke-linejoin:round;stroke-miterlimit:10;stroke-dasharray:none;stroke-opacity:1"
           id="path184" /><path
           d="M 258.796,643.454 H 289.69 V 609.002 H 258.796 Z"
           style="fill:#ffffff;fill-opacity:1;fill-rule:nonzero;stroke:none"
           id="path186" /><g
           id="g188"
           transform="translate(263.75,643.4521)"><path
             d="M 0,0 H 22.016 C 20.128,-0.279 18,-0.318 16.313,-0.798 13.29,-0.305 8.831,-0.271 5.818,-0.798 4.055,-0.356 1.928,-0.274 0,0"
             style="fill:#ffffff;fill-opacity:1;fill-rule:evenodd;stroke:none"
             id="path190" /></g><g
           id="g192"
           transform="translate(261.3555,642.7676)"><path
             d="m 0,0 c 1.935,0.226 3.355,-1.056 4.446,-2.053 -0.325,-0.512 -0.6,-1.073 -0.683,-1.824 0.075,-0.343 0.243,0.107 0.456,0 C 4.025,-4.063 4.174,-4.595 3.763,-4.563 3.082,-2.467 1.769,-1.007 0,0"
             style="fill:#f9aeca;fill-opacity:1;fill-rule:evenodd;stroke:none"
             id="path194" /></g><g
           id="g196"
           transform="translate(263.1826,642.7676)"><path
             d="M 0,0 C 1.666,0.299 3.453,-0.269 5.131,-0.343 4.549,-0.863 2.983,-1.008 3.077,-1.825 2.28,-1.44 1.433,-0.125 0,0"
             style="fill:#f9a75e;fill-opacity:1;fill-rule:evenodd;stroke:none"
             id="path198" /></g><g
           id="g200"
           transform="translate(275.2705,639.915)"><path
             d="M 0,0 C 0.033,-0.74 -0.278,-2.17 0.114,-3.078 -0.501,-2.346 -0.351,-0.905 0,0"
             style="fill:#231f20;fill-opacity:1;fill-rule:evenodd;stroke:none"
             id="path202" /></g><g
           id="g204"
           transform="translate(271.8486,635.2393)"><path
             d="m 0,0 c -0.658,-0.456 -1.576,-1.169 -2.623,-0.569 -0.306,0.226 -0.245,0.819 -0.684,0.911 h -0.46 C -3.8,-1.612 -0.306,-1.771 0,0 M 1.824,-0.456 C 1.535,-0.563 0.775,-0.466 0.683,-0.228 -0.258,-2.004 -3.905,-2.025 -4.334,0.229 -4.798,0.195 -5.127,0.031 -5.589,0 -3.927,1.641 0.388,0.821 1.824,-0.456"
             style="fill:#231f20;fill-opacity:1;fill-rule:evenodd;stroke:none"
             id="path206" /></g><g
           id="g208"
           transform="translate(280.7461,635.5811)"><path
             d="m 0,0 c -0.224,-0.648 -0.624,-1.076 -1.255,-1.141 -0.872,-0.089 -1.253,0.625 -1.94,0.799 0.439,-1.691 3.669,-1.602 3.878,0.23 C 0.55,0.017 0.282,0.016 0,0 m 2.509,-0.227 c -0.332,-0.324 -0.806,0.177 -1.253,0.115 -0.454,-2.147 -4.122,-2.35 -5.023,-0.457 -0.002,-0.296 -0.585,-0.13 -1.137,-0.342 1.287,1.547 5.561,2.032 7.413,0.684"
             style="fill:#231f20;fill-opacity:1;fill-rule:evenodd;stroke:none"
             id="path210" /></g><g
           id="g212"
           transform="translate(268.082,635.5811)"><path
             d="m 0,0 h 0.46 c 0.438,-0.092 0.378,-0.685 0.684,-0.911 1.046,-0.6 1.964,0.113 2.623,0.569 C 3.461,-2.113 -0.033,-1.954 0,0"
             style="fill:#96cd56;fill-opacity:1;fill-rule:evenodd;stroke:none"
             id="path214" /></g><g
           id="g216"
           transform="translate(281.4287,635.4688)"><path
             d="m 0,0 c -0.209,-1.832 -3.438,-1.921 -3.878,-0.229 0.688,-0.174 1.068,-0.889 1.94,-0.799 0.631,0.064 1.032,0.492 1.255,1.14 C -0.4,0.128 -0.133,0.129 0,0"
             style="fill:#96cd56;fill-opacity:1;fill-rule:evenodd;stroke:none"
             id="path218" /></g><g
           id="g220"
           transform="translate(274.8145,633.0703)"><path
             d="M 0,0 C 0.429,0.031 0.731,0.182 0.912,0.457 H 0 Z M -0.229,0 C -0.033,0.616 -0.621,0.446 -1.027,0.457 -0.967,0.099 -0.507,0.142 -0.229,0 M 1.027,0.573 C 1.397,-0.138 0.174,0.058 0,-0.454 1.169,-0.768 2.461,-0.96 2.851,-2.052 c -1.333,1.347 -4.58,1.27 -5.93,0 0.44,1.044 1.705,1.261 2.85,1.598 -0.127,0.441 -0.82,0.317 -1.026,0.683 v 0.344 c 0.514,0.172 1.77,0.201 2.282,0"
             style="fill:#231f20;fill-opacity:1;fill-rule:evenodd;stroke:none"
             id="path222" /></g><g
           id="g224"
           transform="translate(273.7871,633.5273)"><path
             d="M 0,0 C 0.406,-0.011 0.994,0.159 0.799,-0.457 0.521,-0.315 0.061,-0.358 0,0"
             style="fill:#f9aeca;fill-opacity:1;fill-rule:evenodd;stroke:none"
             id="path226" /></g><g
           id="g228"
           transform="translate(274.8145,633.5273)"><path
             d="M 0,0 H 0.912 C 0.731,-0.275 0.429,-0.426 0,-0.457 Z"
             style="fill:#f9aeca;fill-opacity:1;fill-rule:evenodd;stroke:none"
             id="path230" /></g><g
           id="g232"
           transform="translate(269.4541,632.8438)"><path
             d="M 0,0 C 0.155,0.261 0.793,0.043 1.138,0.114 0.979,-0.146 0.345,0.071 0,0"
             style="fill:#231f20;fill-opacity:1;fill-rule:evenodd;stroke:none"
             id="path234" /></g><g
           id="g236"
           transform="translate(278.9209,632.8438)"><path
             d="M 0,0 C 0.233,0.262 0.947,0.042 1.369,0.114 1.136,-0.146 0.422,0.073 0,0"
             style="fill:#231f20;fill-opacity:1;fill-rule:evenodd;stroke:none"
             id="path238" /></g><g
           id="g240"
           transform="translate(272.5313,632.7295)"><path
             d="M 0,0 C -0.755,-0.535 -1.963,-0.619 -2.963,-0.912 -2.127,-0.457 -1.276,-0.014 0,0"
             style="fill:#231f20;fill-opacity:1;fill-rule:evenodd;stroke:none"
             id="path242" /></g><g
           id="g244"
           transform="translate(276.0674,628.0527)"><path
             d="m 0,0 c -0.902,-0.15 -1.762,-0.201 -2.395,-0.113 -0.732,0.101 1.119,0.057 1.598,0.226 C -0.435,0.17 -0.394,-0.091 0,0"
             style="fill:#231f20;fill-opacity:1;fill-rule:evenodd;stroke:none"
             id="path246" /></g><g
           id="g248"
           transform="translate(270.4814,617.2178)"><path
             d="M 0,0 C -0.812,-0.522 -1.057,-1.608 -1.369,-2.626 -2.485,-2.152 -1.369,0.278 0,0"
             style="fill:#f9a75e;fill-opacity:1;fill-rule:evenodd;stroke:none"
             id="path250" /></g><g
           id="g252"
           transform="translate(279.0352,617.1016)"><path
             d="M 0,0 C 0.002,0.111 0.139,0.09 0.23,0.116 0.485,0.083 0.897,-0.009 1.141,-0.228 1.666,-0.693 2.105,-2.125 1.368,-2.51 1.006,-1.965 0.919,-0.347 0,0"
             style="fill:#f9a75e;fill-opacity:1;fill-rule:evenodd;stroke:none"
             id="path254" /></g><g
           id="g256"
           transform="translate(286.6787,616.7607)"><path
             d="M 0,0 C 0.479,0.343 1.243,-0.984 0.454,-1.254 0.222,-0.917 0.368,-0.199 0,0"
             style="fill:#f9a75e;fill-opacity:1;fill-rule:evenodd;stroke:none"
             id="path258" /></g><g
           id="g260"
           transform="translate(261.3555,643.4521)"><path
             d="M 0,0 C -0.242,-0.213 -0.839,-0.072 -1.029,-0.342 0.836,-1.757 3.437,-3.38 3.534,-6.273 3.585,-7.729 2.729,-9.102 2.963,-10.95 c 0.035,-0.485 0.482,0.073 0.571,-0.23 -0.004,-0.916 0.235,-1.59 0.801,-1.939 0.241,-0.053 0.215,0.164 0.228,0.342 0.571,-0.337 1.073,-0.748 1.596,-1.139 0.004,-2.476 -1.284,-3.66 -1.713,-5.706 -3.138,1.542 -5.651,-1.976 -3.878,-4.676 -0.797,-1.023 -1.95,-1.696 -2.507,-2.964 0.296,-0.064 0.974,0.466 1.369,0.684 -0.163,-0.83 -1.081,-2.918 -0.231,-4.107 0.322,0.061 0.211,0.549 0.343,0.799 0.4,-1.044 0.742,-2.149 1.714,-2.624 0.265,0.097 -0.009,0.588 -0.116,0.685 1.171,-0.845 2.464,-2.554 4.902,-2.509 0.105,0.221 -0.563,0.646 -0.91,0.799 1.337,-0.09 3.37,-1.229 5.134,-0.572 -0.266,0.155 -0.509,0.33 -0.914,0.343 3.187,0.009 5.536,0.853 7.529,2.054 -0.085,0.257 -0.641,0.043 -0.914,0.11 0.72,0.239 1.503,0.402 2.169,0.687 -1.396,0.276 -2.659,0.684 -4.221,0.8 0.037,0.155 0.286,0.095 0.456,0.111 -0.202,0.444 -0.879,0.418 -1.481,0.459 0.289,0.356 0.48,0.809 0.455,1.484 0.176,-0.28 0.169,-0.743 0.227,-1.143 1.649,-1.148 4.451,-0.011 6.161,0.228 2.433,0.342 6.938,-0.704 6.957,1.597 0.009,0.851 -0.787,1.217 -1.597,1.484 0.564,1.005 1.695,2.079 1.715,3.652 0.021,2.114 -2.105,3.632 -4.452,2.619 -0.484,1.989 -1.752,3.192 -1.71,5.706 0.487,0.335 1.307,1.427 1.71,0.797 0.607,0.382 0.928,1.049 0.913,2.056 0.212,0.107 0.381,-0.343 0.455,0 0.48,1.818 -0.619,3.283 -0.572,4.79 0.095,2.842 2.822,4.392 4.564,5.931 -0.114,0.263 -0.524,0.235 -0.908,0.229 V 0 h 1.024 V -34.447 H -2.055 V 0 Z"
             style="fill:#ffffff;fill-opacity:1;fill-rule:evenodd;stroke:none"
             id="path262" /></g><g
           id="g264"
           transform="translate(281.2031,642.3115)"><path
             d="M 0,0 C 1.475,0.389 3.209,0.516 5.02,0.57 3.932,0.021 2.765,-0.447 2.166,-1.483 2.105,-0.739 0.853,-0.318 0,0"
             style="fill:#f9a75e;fill-opacity:1;fill-rule:evenodd;stroke:none"
             id="path266" /></g><g
           id="g268"
           transform="translate(283.8252,638.8906)"><path
             d="M 0,0 C 0.063,0.329 0.178,-0.177 0.341,-0.116 0.698,0.441 0.168,1.204 -0.113,1.824 0.939,2.939 2.201,3.842 4.221,3.991 2.584,2.776 1.118,1.387 0.457,-0.8 0.229,-0.609 0.273,-0.146 0,0"
             style="fill:#f9aeca;fill-opacity:1;fill-rule:evenodd;stroke:none"
             id="path270" /></g><g
           id="g272"
           transform="translate(275.2705,628.166)"><path
             d="m 0,0 c -0.479,-0.169 -2.33,-0.125 -1.598,-0.227 0.633,-0.087 1.493,-0.037 2.395,0.114 C 0.403,-0.204 0.362,0.057 0,0 m -1.025,1.256 c 0.319,0.373 0.711,0.094 1.139,0 0.058,0.608 -1.513,0.337 -1.139,0 M 0.456,1.713 C 0.123,1.764 -0.271,2.347 -0.456,2.167 -0.282,1.959 0.114,1.377 0.456,1.713 m -1.939,0 c 0.432,-0.047 0.964,0.397 0.798,0.57 -0.184,-0.271 -0.587,-0.324 -0.798,-0.57 m 6.388,0.57 C 3.946,2.806 3.091,4.04 1.938,3.994 2.944,3.516 3.979,2.461 4.905,2.283 M -5.816,2.167 c 0.855,0.743 2.01,1.181 2.85,1.939 C -4.18,3.799 -5.375,2.867 -5.816,2.167 M 4.677,3.651 C 4.989,3.636 4.837,3.616 4.563,3.765 3.813,4.177 2.527,4.659 1.598,4.45 3.157,4.122 3.758,3.703 4.677,3.651 m -10.379,0 c 1,0.293 2.208,0.377 2.963,0.912 C -4.016,4.55 -4.866,4.106 -5.702,3.651 M 5.02,4.792 C 4.598,4.72 3.884,4.939 3.65,4.678 4.072,4.751 4.786,4.531 5.02,4.792 m -9.699,0 c -0.344,-0.071 -0.982,0.146 -1.137,-0.114 0.344,0.071 0.979,-0.146 1.137,0.114 m -1.593,0.456 c 0.46,-0.349 1.758,-0.367 2.278,0.113 -0.696,-0.39 -2.3,-0.097 -2.278,-0.113 m 11.292,0 C 4.264,4.895 3.122,5.384 2.739,5.361 3.224,5.106 4.494,4.748 5.02,5.248 m -6.731,0.23 V 5.134 C -1.505,4.768 -0.813,4.892 -0.685,4.45 -1.83,4.113 -3.095,3.896 -3.535,2.853 c 1.349,1.269 4.597,1.346 5.93,0 -0.39,1.091 -1.682,1.284 -2.851,1.597 0.174,0.512 1.397,0.317 1.027,1.028 -0.512,0.201 -1.768,0.171 -2.282,0 M 0.571,6.504 C 1.124,6.716 1.707,6.55 1.709,6.846 2.609,4.953 6.277,5.156 6.731,7.303 7.179,7.365 7.652,6.864 7.984,7.188 6.133,8.536 1.858,8.051 0.571,6.504 m -9.582,0.569 c 0.462,0.031 0.791,0.196 1.255,0.23 0.429,-2.255 4.076,-2.234 5.017,-0.457 0.093,-0.239 0.852,-0.335 1.141,-0.229 -1.436,1.278 -5.751,2.097 -7.413,0.456 m 7.986,2.054 c -0.453,-0.899 0.127,-0.268 0.224,0.456 0.106,0.761 -0.033,1.77 -0.339,2.053 0.189,-0.687 0.091,-1.657 0.115,-2.509 M 0.114,8.671 C -0.278,9.579 0.033,11.009 0,11.749 -0.351,10.844 -0.501,9.403 0.114,8.671 m 6.845,4.448 C 7.436,12.797 7.895,12.456 8.327,12.091 8.363,11.859 7.997,12.116 7.984,12.206 7.725,11.977 8.514,11.827 8.441,11.407 8.208,11.441 8.218,11.717 7.984,11.749 8.695,10.065 9.313,7.3 9.467,4.678 8.801,4.509 9.147,3.326 8.781,2.853 8.502,2.962 8.94,3.289 8.781,3.651 8.31,3.1 7.948,2.434 7.188,2.167 7.376,2.475 7.67,2.674 7.873,2.965 6.256,1.652 3.435,0.559 0.456,0.229 2.674,-0.087 4.733,0.742 6.272,1.484 6.251,-2.237 9.827,-6.69 6.846,-10.038 c 0.074,-0.249 0.376,0.219 0.454,0.342 0.357,-0.184 -0.236,-0.36 -0.229,-0.569 1.301,1.084 2.049,3.318 1.484,5.59 3.883,1.537 4.509,-3.753 2.282,-5.363 -0.533,-0.051 -0.733,0.225 -1.141,0 0.115,-0.188 0.485,-0.123 0.685,-0.227 -0.235,-0.26 -0.949,-0.043 -1.369,-0.115 1.324,-0.308 2.698,-0.568 2.396,-2.509 -0.432,-0.063 -0.715,-0.278 -1.258,-0.227 -0.094,1.196 -0.337,2.246 -1.48,2.394 0.887,-0.31 1.394,-1.415 1.139,-2.508 -1.215,-0.145 -2.75,-0.218 -3.764,-0.228 0.14,1.889 -0.675,2.825 -2.167,3.078 -0.084,0.942 -0.3,1.754 -0.345,2.739 0.372,0.693 1.095,1.037 1.03,2.165 C 4.326,-5.995 4.007,-6.438 3.65,-6.843 3.494,-6.808 3.555,-6.559 3.533,-6.388 3.056,-7.505 2.987,-9.169 3.308,-10.493 c -0.595,-0.279 -1.139,-0.609 -1.482,-1.141 0.558,0.125 0.939,0.43 1.482,0.57 0.818,-0.435 1.126,-1.383 1.255,-2.51 -0.278,-0.178 -0.487,-0.424 -1.03,-0.342 0.089,1.191 -0.374,1.828 -1.022,2.282 0.366,-0.451 0.799,-1.374 0.455,-2.166 -0.787,-0.231 -2.189,-0.152 -2.852,0.112 -0.318,2.417 -0.275,5.201 -0.799,7.416 -0.2,-2.5 -0.116,-5.285 -0.568,-7.528 -0.871,-0.054 -2.03,-0.263 -2.853,0 -0.224,0.748 0.078,1.569 0.457,2.051 -0.47,-0.104 -1.075,-1.053 -0.914,-2.167 -0.521,-0.102 -0.648,0.19 -1.024,0.228 0.029,1.262 0.362,2.219 1.253,2.624 0.478,-0.131 0.852,-0.364 1.255,-0.57 0.002,0.386 -0.791,0.956 -1.367,1.141 0.447,1.156 0.217,3.139 -0.117,4.221 -0.248,0.018 -0.051,-0.405 -0.116,-0.571 -0.3,0.418 -0.767,0.674 -0.795,1.367 -0.332,-0.861 0.367,-1.684 0.911,-2.05 -0.192,-0.91 -0.139,-2.067 -0.457,-2.854 -1.469,-0.194 -2.353,-1.479 -2.051,-3.078 -1.374,0.035 -2.811,0.005 -3.881,0.342 -0.032,1.213 0.219,2.143 1.256,2.279 -1.055,0.257 -1.49,-1.091 -1.484,-2.279 -0.541,-0.051 -0.822,0.164 -1.253,0.227 -0.448,1.613 0.829,2.424 2.394,2.396 -0.232,0.262 -0.945,0.041 -1.367,0.113 0.017,0.249 0.287,0.246 0.569,0.229 -0.141,0.482 -0.617,0.038 -1.025,0.113 -2.309,1.634 -1.691,6.834 2.282,5.363 -0.664,-2.226 0.195,-4.48 1.368,-5.59 0.247,0.077 -0.218,0.38 -0.343,0.455 0.104,0.312 0.254,-0.259 0.458,-0.228 -0.663,1.316 -1.181,2.677 -1.029,4.336 0.237,2.576 2.014,4.367 1.824,7.186 1.533,-0.826 3.329,-1.391 5.704,-1.37 -2.654,0.689 -5.538,1.156 -7.185,2.851 -0.123,-0.131 0.336,-0.646 0.571,-0.798 -0.496,0.077 -1.243,0.889 -1.599,1.484 -0.31,-0.105 0.16,-0.356 0,-0.686 -0.418,0.4 -0.212,1.837 -0.684,1.827 0.167,2.608 0.57,4.983 1.484,6.844 -0.035,0.242 -0.354,-0.162 -0.458,-0.229 -0.122,0.093 0.209,0.697 0.572,0.684 -0.724,-0.018 0.36,0.831 0.913,0.914 -0.115,0.321 -0.485,-0.032 -0.683,0 4.139,1.803 11.991,1.62 16.31,0.114 -0.141,-0.347 -0.392,0.123 -0.684,0"
             style="fill:#f9a75e;fill-opacity:1;fill-rule:evenodd;stroke:none"
             id="path274" /></g><g
           id="g276"
           transform="translate(268.4268,614.0225)"><path
             d="M 0,0 C 0.016,0.327 0.782,-0.099 0.799,0.228 0.433,0.397 -0.236,0.297 0,0 m 18.706,1.484 c 0.789,0.27 0.024,1.597 -0.454,1.254 0.368,-0.199 0.222,-0.917 0.454,-1.254 M -6.503,1.94 c 0.147,-0.195 0.237,-0.45 0.571,-0.456 -0.173,0.67 0.36,1.232 0.23,1.482 C -5.953,2.607 -6.479,2.524 -6.503,1.94 m 18.48,-1.371 c 0.737,0.385 0.297,1.817 -0.228,2.283 -0.243,0.218 -0.655,0.31 -0.91,0.343 C 10.747,3.169 10.61,3.19 10.608,3.079 11.527,2.732 11.614,1.114 11.977,0.569 m -11.291,0 C 0.998,1.587 1.243,2.673 2.055,3.195 0.686,3.474 -0.431,1.043 0.686,0.569 m -2.853,-4.903 c -0.421,0.454 -0.895,0.858 -1.028,1.598 1.109,-0.87 2.939,-1.625 4.565,-1.598 -0.482,0.167 -1.301,0.602 -1.255,0.911 2.567,-0.729 6.057,-0.268 7.87,0.799 -0.508,0.063 -1.053,0.092 -1.37,0.344 0.95,0.265 2.022,0.411 2.854,0.797 -1.576,0.364 -3.442,0.439 -5.022,0.799 0.072,0.158 0.44,0.017 0.456,0.228 -1.304,0.088 -2.824,-0.214 -3.761,-0.116 -0.035,0.265 0.327,0.128 0.34,0.344 -1.008,-0.058 -2.355,-0.377 -3.305,-0.113 0.348,0.144 0.813,0.172 0.911,0.569 -2.11,0.18 -6.48,-0.063 -6.047,2.167 0.148,0.773 1.096,0.838 1.715,1.369 -0.351,0.185 -0.716,0.351 -0.805,0.799 -0.589,-0.319 -1.076,-0.747 -1.48,-1.256 0.368,0.051 0.617,0.22 1.026,0.23 C -7.12,2.746 -7.917,1.53 -7.642,0.228 -7.607,0.494 -7.527,0.719 -7.3,0.8 c 0.143,-0.997 0.323,-1.959 0.797,-2.625 0.072,0.346 -0.146,0.983 0.115,1.141 0.846,-1.701 2.461,-3.241 4.221,-3.65 m 18.022,28.402 c 0.662,2.187 2.127,3.577 3.764,4.791 -2.019,-0.149 -3.281,-1.051 -4.334,-2.167 0.281,-0.62 0.812,-1.382 0.454,-1.94 -0.163,-0.061 -0.278,0.445 -0.341,0.116 0.274,-0.145 0.229,-0.609 0.457,-0.8 m -0.913,2.738 c 0.599,1.036 1.766,1.505 2.854,2.053 -1.811,-0.054 -3.545,-0.181 -5.02,-0.57 0.853,-0.318 2.106,-0.739 2.166,-1.483 M -2.167,26.92 c -0.094,0.817 1.472,0.962 2.054,1.482 -1.678,0.075 -3.465,0.642 -5.131,0.343 1.432,-0.125 2.28,-1.44 3.077,-1.825 m -1.142,-2.737 c 0.412,-0.033 0.263,0.5 0.456,0.685 -0.212,0.108 -0.38,-0.343 -0.456,0 0.083,0.751 0.359,1.312 0.684,1.824 -1.091,0.997 -2.512,2.279 -4.446,2.053 1.768,-1.007 3.082,-2.467 3.762,-4.562 m 17.795,3.08 c -4.318,1.506 -12.171,1.688 -16.309,-0.115 0.198,-0.032 0.568,0.322 0.682,0 -0.552,-0.083 -1.636,-0.931 -0.913,-0.914 -0.362,0.014 -0.693,-0.59 -0.571,-0.683 0.104,0.066 0.423,0.47 0.458,0.228 -0.914,-1.86 -1.317,-4.235 -1.484,-6.843 0.471,0.009 0.266,-1.427 0.684,-1.828 0.159,0.33 -0.31,0.581 0,0.687 0.356,-0.596 1.103,-1.407 1.599,-1.484 -0.236,0.152 -0.695,0.667 -0.571,0.797 1.647,-1.695 4.531,-2.162 7.185,-2.85 -2.375,-0.022 -4.171,0.544 -5.704,1.37 0.189,-2.819 -1.587,-4.61 -1.824,-7.187 C -2.435,6.782 -1.916,5.422 -1.253,4.105 -1.457,4.074 -1.607,4.646 -1.711,4.334 -1.586,4.259 -1.121,3.956 -1.368,3.879 -2.541,4.988 -3.4,7.242 -2.736,9.469 -6.709,10.939 -7.327,5.739 -5.019,4.105 -4.61,4.03 -4.134,4.475 -3.993,3.992 -4.275,4.01 -4.545,4.013 -4.563,3.764 -4.141,3.691 -3.428,3.912 -3.195,3.65 -4.761,3.679 -6.037,2.867 -5.589,1.255 -5.158,1.191 -4.877,0.977 -4.336,1.027 -4.342,2.216 -3.907,3.563 -2.853,3.307 -3.89,3.171 -4.141,2.24 -4.108,1.027 -3.038,0.69 -1.602,0.721 -0.228,0.686 -0.529,2.284 0.354,3.569 1.824,3.764 2.142,4.551 2.089,5.708 2.28,6.617 1.736,6.983 1.038,7.807 1.37,8.668 1.397,7.975 1.865,7.719 2.165,7.301 2.229,7.467 2.033,7.89 2.28,7.871 2.615,6.79 2.845,4.807 2.397,3.65 2.974,3.466 3.767,2.896 3.765,2.51 3.361,2.716 2.987,2.948 2.51,3.079 1.619,2.675 1.286,1.718 1.257,0.456 1.633,0.418 1.76,0.126 2.28,0.228 2.12,1.342 2.725,2.291 3.194,2.395 2.815,1.912 2.514,1.092 2.737,0.344 3.561,0.081 4.72,0.289 5.591,0.344 6.043,2.587 5.959,5.371 6.159,7.871 6.683,5.656 6.64,2.873 6.958,0.456 7.621,0.191 9.022,0.112 9.81,0.344 10.153,1.136 9.721,2.059 9.354,2.51 10.003,2.056 10.466,1.419 10.377,0.228 10.92,0.146 11.129,0.392 11.406,0.569 11.277,1.696 10.97,2.645 10.151,3.079 9.608,2.939 9.228,2.635 8.67,2.51 c 0.343,0.532 0.887,0.861 1.481,1.14 -0.32,1.325 -0.252,2.989 0.226,4.106 0.021,-0.171 -0.039,-0.42 0.117,-0.455 0.357,0.404 0.676,0.847 0.912,1.367 0.066,-1.129 -0.657,-1.473 -1.029,-2.165 0.045,-0.985 0.261,-1.798 0.345,-2.739 1.492,-0.253 2.306,-1.19 2.167,-3.078 1.013,0.009 2.549,0.083 3.763,0.227 0.256,1.094 -0.252,2.198 -1.138,2.509 1.142,-0.149 1.385,-1.198 1.48,-2.395 0.543,-0.05 0.825,0.164 1.258,0.228 0.302,1.94 -1.072,2.201 -2.397,2.509 0.42,0.072 1.135,-0.146 1.37,0.115 -0.201,0.103 -0.571,0.039 -0.685,0.226 0.407,0.226 0.607,-0.05 1.141,0 2.227,1.611 1.6,6.901 -2.283,5.364 0.566,-2.273 -0.182,-4.506 -1.483,-5.59 -0.007,0.209 0.586,0.385 0.229,0.568 -0.079,-0.123 -0.38,-0.591 -0.455,-0.342 2.982,3.348 -0.594,7.801 -0.573,11.523 -1.539,-0.742 -3.598,-1.571 -5.816,-1.256 2.978,0.33 5.8,1.424 7.417,2.736 -0.203,-0.291 -0.497,-0.49 -0.686,-0.797 0.761,0.266 1.122,0.932 1.594,1.484 0.159,-0.362 -0.279,-0.69 0,-0.799 0.366,0.474 0.02,1.656 0.686,1.825 -0.154,2.622 -0.772,5.388 -1.483,7.072 0.234,-0.033 0.224,-0.308 0.457,-0.342 0.072,0.42 -0.717,0.569 -0.457,0.799 0.013,-0.09 0.379,-0.347 0.343,-0.116 -0.433,0.366 -0.892,0.706 -1.368,1.029 0.292,0.123 0.543,-0.347 0.683,0 M -7.071,29.43 h 2.394 c 1.928,-0.275 4.055,-0.357 5.819,-0.798 3.012,0.526 7.471,0.493 10.494,0 1.687,0.479 3.815,0.518 5.703,0.798 h 2.397 v -0.114 c 0.385,0.006 0.794,0.035 0.909,-0.228 -1.743,-1.539 -4.469,-3.089 -4.564,-5.932 -0.047,-1.507 1.052,-2.971 0.571,-4.79 -0.073,-0.343 -0.242,0.108 -0.455,0 0.016,-1.007 -0.305,-1.674 -0.912,-2.055 -0.403,0.629 -1.223,-0.462 -1.71,-0.797 C 13.532,13 14.801,11.797 15.285,9.808 17.632,10.82 19.758,9.303 19.736,7.188 19.717,5.615 18.586,4.542 18.021,3.537 18.832,3.27 19.628,2.903 19.619,2.053 19.6,-0.248 15.095,0.798 12.662,0.456 10.952,0.217 8.149,-0.92 6.501,0.228 6.442,0.628 6.45,1.091 6.273,1.371 6.299,0.695 6.107,0.243 5.818,-0.113 6.421,-0.154 7.098,-0.128 7.3,-0.572 7.13,-0.588 6.881,-0.528 6.844,-0.684 8.405,-0.799 9.669,-1.207 11.064,-1.483 10.398,-1.769 9.615,-1.932 8.896,-2.17 9.169,-2.237 9.725,-2.023 9.81,-2.28 7.816,-3.481 5.468,-4.325 2.28,-4.334 c 0.406,-0.014 0.649,-0.188 0.914,-0.344 -1.763,-0.656 -3.797,0.483 -5.133,0.573 0.346,-0.154 1.015,-0.579 0.91,-0.799 -2.438,-0.045 -3.732,1.664 -4.903,2.508 0.108,-0.096 0.381,-0.587 0.117,-0.684 -0.972,0.475 -1.314,1.58 -1.714,2.624 -0.132,-0.25 -0.022,-0.738 -0.343,-0.799 -0.851,1.189 0.067,3.276 0.23,4.107 -0.394,-0.218 -1.072,-0.748 -1.369,-0.684 0.558,1.268 1.711,1.94 2.508,2.964 -1.773,2.7 0.739,6.218 3.878,4.676 0.429,2.046 1.717,3.23 1.713,5.706 -0.524,0.39 -1.026,0.801 -1.596,1.138 -0.013,-0.177 0.013,-0.394 -0.228,-0.341 -0.567,0.349 -0.805,1.023 -0.801,1.939 -0.089,0.303 -0.536,-0.255 -0.571,0.229 -0.234,1.849 0.622,3.222 0.571,4.677 -0.098,2.894 -2.698,4.517 -4.564,5.932 0.191,0.269 0.788,0.129 1.03,0.342"
             style="fill:#231f20;fill-opacity:1;fill-rule:evenodd;stroke:none"
             id="path278" /></g><g
           id="g280"
           transform="translate(274.1309,639.8018)"><path
             d="M 0,0 C 0.306,-0.283 0.444,-1.292 0.339,-2.053 0.241,-2.776 -0.338,-3.408 0.114,-2.509 0.091,-1.657 0.188,-0.687 0,0"
             style="fill:#231f20;fill-opacity:1;fill-rule:evenodd;stroke:none"
             id="path282" /></g><g
           id="g284"
           transform="translate(278.0098,633.5273)"><path
             d="M 0,0 C 0.383,0.022 1.524,-0.467 2.28,-0.113 1.755,-0.613 0.484,-0.255 0,0"
             style="fill:#231f20;fill-opacity:1;fill-rule:evenodd;stroke:none"
             id="path286" /></g><g
           id="g288"
           transform="translate(271.2764,633.5273)"><path
             d="M 0,0 C -0.52,-0.48 -1.817,-0.462 -2.278,-0.113 -2.3,-0.098 -0.696,-0.391 0,0"
             style="fill:#231f20;fill-opacity:1;fill-rule:evenodd;stroke:none"
             id="path290" /></g><g
           id="g292"
           transform="translate(276.8682,632.6162)"><path
             d="M 0,0 C 0.93,0.209 2.216,-0.273 2.965,-0.686 3.239,-0.834 3.392,-0.814 3.079,-0.799 2.16,-0.747 1.56,-0.328 0,0"
             style="fill:#231f20;fill-opacity:1;fill-rule:evenodd;stroke:none"
             id="path294" /></g><g
           id="g296"
           transform="translate(272.3047,632.2725)"><path
             d="M 0,0 C -0.84,-0.759 -1.995,-1.196 -2.851,-1.939 -2.409,-1.239 -1.214,-0.308 0,0"
             style="fill:#231f20;fill-opacity:1;fill-rule:evenodd;stroke:none"
             id="path298" /></g><g
           id="g300"
           transform="translate(277.208,632.1602)"><path
             d="M 0,0 C 1.153,0.046 2.009,-1.188 2.968,-1.711 2.042,-1.533 1.007,-0.479 0,0"
             style="fill:#231f20;fill-opacity:1;fill-rule:evenodd;stroke:none"
             id="path302" /></g><g
           id="g304"
           transform="translate(274.5859,630.4492)"><path
             d="M 0,0 C 0.166,-0.173 -0.366,-0.617 -0.799,-0.57 -0.588,-0.324 -0.185,-0.271 0,0"
             style="fill:#231f20;fill-opacity:1;fill-rule:evenodd;stroke:none"
             id="path306" /></g><g
           id="g308"
           transform="translate(274.8145,630.333)"><path
             d="M 0,0 C 0.185,0.18 0.579,-0.403 0.912,-0.454 0.57,-0.79 0.174,-0.208 0,0"
             style="fill:#231f20;fill-opacity:1;fill-rule:evenodd;stroke:none"
             id="path310" /></g><g
           id="g312"
           transform="translate(275.3848,629.4219)"><path
             d="M 0,0 C -0.429,0.094 -0.82,0.373 -1.14,0 -1.514,0.337 0.058,0.608 0,0"
             style="fill:#231f20;fill-opacity:1;fill-rule:evenodd;stroke:none"
             id="path314" /></g><g
           id="g316"
           transform="translate(262.0391,613.3389)"><path
             d="M 0,0 C -0.262,-0.158 -0.043,-0.795 -0.115,-1.142 -0.589,-0.476 -0.77,0.486 -0.912,1.483 -1.14,1.402 -1.22,1.178 -1.254,0.911 -1.529,2.214 -0.732,3.43 -0.115,4.221 -0.524,4.211 -0.773,4.042 -1.142,3.99 -0.737,4.5 -0.25,4.928 0.339,5.246 0.428,4.799 0.793,4.633 1.144,4.447 0.524,3.917 -0.423,3.852 -0.571,3.078 -1.004,0.849 3.365,1.092 5.476,0.911 5.378,0.515 4.913,0.486 4.564,0.343 5.515,0.078 6.861,0.397 7.87,0.456 7.856,0.239 7.495,0.377 7.529,0.111 8.467,0.014 9.986,0.315 11.291,0.228 11.274,0.017 10.906,0.157 10.835,0 c 1.58,-0.36 3.445,-0.436 5.021,-0.8 -0.832,-0.386 -1.903,-0.531 -2.853,-0.797 0.316,-0.252 0.861,-0.28 1.37,-0.343 C 12.56,-3.008 9.069,-3.469 6.503,-2.739 6.457,-3.049 7.275,-3.483 7.758,-3.65 6.132,-3.678 4.302,-2.923 3.192,-2.053 3.326,-2.792 3.8,-3.196 4.221,-3.65 2.461,-3.241 0.846,-1.701 0,0"
             style="fill:#f9a75e;fill-opacity:1;fill-rule:evenodd;stroke:none"
             id="path318" /></g><g
           id="g320"
           transform="translate(262.7246,616.9883)"><path
             d="m 0,0 c 0.13,-0.25 -0.403,-0.812 -0.229,-1.481 -0.334,0.005 -0.425,0.26 -0.572,0.456 C -0.777,-0.441 -0.251,-0.358 0,0"
             style="fill:#ffffff;fill-opacity:1;fill-rule:evenodd;stroke:none"
             id="path322" /></g><g
           id="g324"
           transform="translate(269.2256,614.25)"><path
             d="M 0,0 C -0.017,-0.326 -0.783,0.1 -0.799,-0.228 -1.035,0.069 -0.366,0.17 0,0"
             style="fill:#ffffff;fill-opacity:1;fill-rule:evenodd;stroke:none"
             id="path326" /></g><path
           d="M 258.796,643.454 H 289.69 V 609.002 H 258.796 Z"
           style="fill:none;stroke:#231f20;stroke-width:0.5;stroke-linecap:butt;stroke-linejoin:round;stroke-miterlimit:10;stroke-dasharray:none;stroke-opacity:1"
           id="path328" /></g></g><g
       id="g330"><g
         id="g332"
         clip-path="url(#clipPath336)"><path
           d="m 262.592,612.205 h -0.734 v 2.66 h 0.734 z"
           style="fill:#231f20;fill-opacity:1;fill-rule:nonzero;stroke:none"
           id="path338" /><g
           id="g340"
           transform="translate(266.9023,614.499)"><path
             d="m 0,0 -1.19,-3.852 0.824,-1.102 v 2.018 z"
             style="fill:#231f20;fill-opacity:1;fill-rule:nonzero;stroke:none"
             id="path342" /></g><g
           id="g344"
           transform="translate(269.3789,604.2246)"><path
             d="M 0,0 1.285,3.853 0.275,3.944 Z"
             style="fill:#231f20;fill-opacity:1;fill-rule:nonzero;stroke:none"
             id="path346" /></g><g
           id="g348"
           transform="translate(269.7451,614.4072)"><path
             d="M 0,0 V -2.478 L 0.736,-2.11 0.644,-0.274 Z"
             style="fill:#231f20;fill-opacity:1;fill-rule:nonzero;stroke:none"
             id="path350" /></g><g
           id="g352"
           transform="translate(274.334,609.7285)"><path
             d="m 0,0 c -0.459,-0.184 -0.459,-2.11 -0.644,-2.384 -0.183,-0.277 -0.459,-3.304 -0.459,-3.304 l 1.286,3.486 z"
             style="fill:#231f20;fill-opacity:1;fill-rule:nonzero;stroke:none"
             id="path354" /></g><g
           id="g356"
           transform="translate(278.0029,612.3896)"><path
             d="m 0,0 -0.644,-2.845 0.83,-0.733 0.18,-1.834 0.277,3.852 z"
             style="fill:#231f20;fill-opacity:1;fill-rule:nonzero;stroke:none"
             id="path358" /></g><g
           id="g360"
           transform="translate(281.9482,615.3252)"><path
             d="m 0,0 -0.825,-1.744 0.549,-2.934 0.641,1.927 -0.55,1.375 z"
             style="fill:#231f20;fill-opacity:1;fill-rule:nonzero;stroke:none"
             id="path362" /></g><g
           id="g364"
           transform="translate(287.1787,605.877)"><path
             d="M 0,0 C 0,0 1.1,-2.019 1.374,-2.11 1.649,-2.202 2.656,-3.58 2.656,-3.58 L 1.922,-4.128 0.549,-2.569 Z"
             style="fill:#231f20;fill-opacity:1;fill-rule:nonzero;stroke:none"
             id="path366" /></g><g
           id="g368"
           transform="translate(259.2891,603.3076)"><path
             d="m 0,0 -1.835,-1.375 c 0,0 -0.184,-0.918 0.091,-0.918 0.277,0 1.653,1.282 1.653,1.282 z"
             style="fill:#231f20;fill-opacity:1;fill-rule:nonzero;stroke:none"
             id="path370" /></g><text
           transform="matrix(1,0,0,-1,261.2129,592.7012)"
           style="font-variant:normal;font-weight:normal;font-stretch:normal;font-size:7px;font-family:Arial;-inkscape-font-specification:ArialMT;writing-mode:lr-tb;fill:#231f20;fill-opacity:1;fill-rule:nonzero;stroke:none"
           id="text374"><tspan
             x="0 4.6690001 9.7229996 14.392 18.284 22.176001"
             y="0"
             id="tspan372">SHA256</tspan></text><g
           id="g376"
           transform="translate(283.0928,669.0186)"><path
             d="M 0,0 C 10.597,0 14.813,-7.977 25.523,-7.977"
             style="fill:none;stroke:#231f20;stroke-width:0.3;stroke-linecap:butt;stroke-linejoin:miter;stroke-miterlimit:10;stroke-dasharray:none;stroke-opacity:1"
             id="path378" /></g><g
           id="g380"
           transform="translate(283.6396,667.1592)"><path
             d="M 0,0 -3.238,1.87 0,3.739 Z"
             style="fill:#231f20;fill-opacity:1;fill-rule:nonzero;stroke:none"
             id="path382" /></g><g
           id="g384"
           transform="translate(283.0776,567.3184)"><path
             d="M 0,0 C 10.597,0 14.813,7.977 25.524,7.977"
             style="fill:none;stroke:#231f20;stroke-width:0.3;stroke-linecap:butt;stroke-linejoin:miter;stroke-miterlimit:10;stroke-dasharray:none;stroke-opacity:1"
             id="path386" /></g><g
           id="g388"
           transform="translate(283.6245,565.459)"><path
             d="M 0,0 -3.238,1.87 0,3.739 Z"
             style="fill:#231f20;fill-opacity:1;fill-rule:nonzero;stroke:none"
             id="path390" /></g><text
           transform="matrix(1,0,0,-1,310.3301,668.2686)"
           style="font-variant:normal;font-weight:bold;font-stretch:condensed;font-size:9px;font-family:'Humanst521 Cn BT';-inkscape-font-specification:Humanist521BT-BoldCondensed;writing-mode:lr-tb;fill:#201d1c;fill-opacity:1;fill-rule:nonzero;stroke:none"
           id="text404"><tspan
             x="0 2.556 6.9029999 11.394 15.714 17.900999"
             y="0"
             id="tspan392">John’s</tspan><tspan
             x="0 3.5009999 7.461 11.061 14.454 18.414"
             y="9.5039997"
             id="tspan394">secret</tspan><tspan
             x="0 4.5089998 7.902 11.862 14.661 16.794001 23.535 27.584999 31.688999"
             y="19.007999"
             id="tspan396">pre-image</tspan><tspan
             x="0.98100001 6.2280002 10.278 13.779 18.27 20.573999 24.299999 28.35 30.51 34.992001"
             y="86.355003"
             id="tspan398">Hash value</tspan><tspan
             x="0.98100001 5.1659999 9.6479998 13.995 19.701 24.183001 26.487 30.996"
             y="95.859001"
             id="tspan400">known by</tspan><tspan
             x="0.98100001 5.4899998 9.8369999 12.834"
             y="105.363"
             id="tspan402">both</tspan></text><g
           id="g406"
           transform="translate(273.6582,647.8438)"><path
             d="M 0,0 C -0.283,0.951 -0.546,1.569 -0.849,2.333 L 2.053,2.323 C 1.922,2.052 1.477,0.945 1.186,-0.002 0.873,-1.02 0.662,-1.941 0.584,-2.539 0.512,-1.939 0.303,-1.016 0,0"
             style="fill:#231f20;fill-opacity:1;fill-rule:nonzero;stroke:none"
             id="path408" /></g><g
           id="g410"
           transform="translate(274.2603,649.5479)"><path
             d="M 0,0 V 13.375"
             style="fill:none;stroke:#231f20;stroke-width:0.5;stroke-linecap:butt;stroke-linejoin:miter;stroke-miterlimit:4;stroke-dasharray:none;stroke-opacity:1"
             id="path412" /></g><g
           id="g414"
           transform="translate(273.6431,575.3413)"><path
             d="M 0,0 C -0.283,0.951 -0.546,1.569 -0.849,2.333 L 2.053,2.323 C 1.922,2.052 1.477,0.945 1.186,-0.002 0.873,-1.02 0.662,-1.941 0.584,-2.539 0.512,-1.939 0.303,-1.016 0,0"
             style="fill:#231f20;fill-opacity:1;fill-rule:nonzero;stroke:none"
             id="path416" /></g><g
           id="g418"
           transform="translate(274.2451,577.0454)"><path
             d="M 0,0 V 13.375"
             style="fill:none;stroke:#231f20;stroke-width:0.5;stroke-linecap:butt;stroke-linejoin:miter;stroke-miterlimit:4;stroke-dasharray:none;stroke-opacity:1"
             id="path420" /></g><text
           transform="matrix(1,0,0,-1,270.9253,665.4648)"
           style="font-variant:normal;font-weight:normal;font-stretch:normal;font-size:10px;font-family:Arial;-inkscape-font-specification:ArialMT;writing-mode:lr-tb;fill:#231f20;fill-opacity:1;fill-rule:nonzero;stroke:none"
           id="text426"><tspan
             x="0"
             y="0"
             id="tspan422">S</tspan><tspan
             x="-0.28999999"
             y="101.93"
             id="tspan424">H</tspan></text></g></g></g></svg>
