<?xml version="1.0" encoding="UTF-8" standalone="no"?>
<svg
   width="236.02"
   height="116.81"
   viewBox="0 0 236.02 116.81"
   version="1.1"
   id="svg700"
   sodipodi:docname="u01-08.svg"
   inkscape:version="1.2.2 (b0a8486541, 2022-12-01)"
   xmlns:inkscape="http://www.inkscape.org/namespaces/inkscape"
   xmlns:sodipodi="http://sodipodi.sourceforge.net/DTD/sodipodi-0.dtd"
   xmlns:xlink="http://www.w3.org/1999/xlink"
   xmlns="http://www.w3.org/2000/svg"
   xmlns:svg="http://www.w3.org/2000/svg">
  <sodipodi:namedview
     id="namedview702"
     pagecolor="#ffffff"
     bordercolor="#000000"
     borderopacity="0.25"
     inkscape:showpageshadow="2"
     inkscape:pageopacity="0.0"
     inkscape:pagecheckerboard="0"
     inkscape:deskcolor="#d1d1d1"
     showgrid="false"
     inkscape:zoom="5.7495126"
     inkscape:cx="118.18393"
     inkscape:cy="58.439736"
     inkscape:window-width="1920"
     inkscape:window-height="1011"
     inkscape:window-x="0"
     inkscape:window-y="0"
     inkscape:window-maximized="1"
     inkscape:current-layer="Layer_2" />
  <defs
     id="defs477">
    <style
       id="style381">
      .cls-1 {
        fill: url(#linear-gradient);
      }

      .cls-2 {
        stroke: #dab116;
        fill: url(#linear-gradient-2);
      }

      .cls-2, .cls-20, .cls-33 {
        stroke-linecap: round;
      }

      .cls-16, .cls-18, .cls-2, .cls-20, .cls-33 {
        stroke-linejoin: round;
        stroke-width: 0.5px;
      }

      .cls-3 {
        fill: #9d6122;
      }

      .cls-4 {
        fill: #f3b151;
      }

      .cls-5 {
        fill: #7c411e;
      }

      .cls-6 {
        fill: #311184;
      }

      .cls-7 {
        fill: #54529e;
      }

      .cls-8 {
        fill: #363e90;
      }

      .cls-9 {
        fill: url(#linear-gradient-3);
      }

      .cls-10 {
        fill: url(#linear-gradient-4);
      }

      .cls-11 {
        fill: url(#linear-gradient-5);
      }

      .cls-12 {
        fill: url(#linear-gradient-6);
      }

      .cls-13 {
        fill: url(#linear-gradient-7);
      }

      .cls-14 {
        fill: url(#linear-gradient-8);
      }

      .cls-15 {
        fill: url(#linear-gradient-9);
      }

      .cls-16 {
        fill: #c0e5ab;
      }

      .cls-16, .cls-18, .cls-20, .cls-33, .cls-51 {
        stroke: #000;
      }

      .cls-17 {
        font-size: 7px;
        font-family: ArialMT, Arial;
      }

      .cls-18 {
        fill: #fca788;
      }

      .cls-19 {
        fill: url(#linear-gradient-10);
      }

      .cls-20 {
        fill: url(#linear-gradient-11);
      }

      .cls-21 {
        fill: url(#linear-gradient-12);
      }

      .cls-22 {
        fill: #603015;
      }

      .cls-23 {
        fill: #ca9344;
      }

      .cls-24 {
        fill: #592a68;
      }

      .cls-25 {
        fill: #c5a3cf;
      }

      .cls-26 {
        fill: #9454a6;
      }

      .cls-27 {
        fill: #c48630;
      }

      .cls-28 {
        fill: #9ec5d5;
      }

      .cls-29 {
        fill: #245163;
      }

      .cls-30 {
        fill: #4b8096;
      }

      .cls-31 {
        fill: #773e1d;
      }

      .cls-32 {
        fill: #2a1104;
      }

      .cls-33 {
        fill: url(#linear-gradient-13);
      }

      .cls-34 {
        fill: url(#linear-gradient-14);
      }

      .cls-35 {
        fill: #994b24;
      }

      .cls-36 {
        fill: #b9c1d4;
      }

      .cls-37 {
        fill: url(#linear-gradient-15);
      }

      .cls-38 {
        fill: url(#linear-gradient-16);
      }

      .cls-39 {
        fill: url(#linear-gradient-17);
      }

      .cls-40 {
        fill: url(#linear-gradient-18);
      }

      .cls-41 {
        fill: url(#linear-gradient-19);
      }

      .cls-42 {
        fill: url(#linear-gradient-20);
      }

      .cls-43 {
        fill: url(#linear-gradient-21);
      }

      .cls-44 {
        fill: url(#linear-gradient-22);
      }

      .cls-45, .cls-51 {
        fill: none;
      }

      .cls-46 {
        fill: url(#linear-gradient-23);
      }

      .cls-47 {
        fill: #14575c;
      }

      .cls-48 {
        fill: url(#linear-gradient-24);
      }

      .cls-49 {
        fill: url(#linear-gradient-25);
      }

      .cls-50 {
        fill: url(#linear-gradient-26);
      }

      .cls-51 {
        stroke-miterlimit: 10;
        stroke-width: 0.3px;
      }

      .cls-52 {
        font-size: 8px;
        font-family: Humanist521BT-BoldCondensed, Humanst521 Cn BT;
        font-weight: 700;
      }
    </style>
    <linearGradient
       id="linear-gradient"
       x1="286.42"
       y1="233.32"
       x2="286.42"
       y2="238.23"
       gradientUnits="userSpaceOnUse">
      <stop
         offset="0"
         stop-color="#a4c1c8"
         id="stop383" />
      <stop
         offset="1"
         stop-color="#fff"
         id="stop385" />
    </linearGradient>
    <linearGradient
       id="linear-gradient-2"
       x1="287.32"
       y1="199.62"
       x2="287.32"
       y2="219.08"
       gradientUnits="userSpaceOnUse">
      <stop
         offset="0"
         stop-color="#f9d74e"
         id="stop388" />
      <stop
         offset="1"
         stop-color="#f9b93a"
         id="stop390" />
    </linearGradient>
    <linearGradient
       id="linear-gradient-3"
       x1="225.91"
       y1="230.53"
       x2="225.91"
       y2="233.8"
       gradientUnits="userSpaceOnUse">
      <stop
         offset="0"
         stop-color="#94bfc6"
         id="stop393" />
      <stop
         offset="0.85"
         stop-color="#e2eded"
         id="stop395" />
    </linearGradient>
    <linearGradient
       id="linear-gradient-4"
       x1="226.38"
       y1="215.29"
       x2="226.38"
       y2="210.38"
       gradientUnits="userSpaceOnUse">
      <stop
         offset="0"
         stop-color="#dda649"
         id="stop398" />
      <stop
         offset="1"
         stop-color="#d18615"
         id="stop400" />
    </linearGradient>
    <linearGradient
       id="linear-gradient-5"
       x1="226.33"
       y1="210.86"
       x2="226.33"
       y2="230.96"
       gradientUnits="userSpaceOnUse">
      <stop
         offset="0"
         stop-color="#f0e221"
         id="stop403" />
      <stop
         offset="1"
         stop-color="#c47711"
         id="stop405" />
    </linearGradient>
    <linearGradient
       id="linear-gradient-6"
       x1="215.59"
       y1="212.65"
       x2="215.59"
       y2="229.83"
       gradientUnits="userSpaceOnUse">
      <stop
         offset="0"
         stop-color="#e3c21b"
         id="stop408" />
      <stop
         offset="1"
         stop-color="#ae6a15"
         id="stop410" />
    </linearGradient>
    <linearGradient
       id="linear-gradient-7"
       x1="237.03"
       y1="212.37"
       x2="237.03"
       y2="230.02"
       xlink:href="#linear-gradient-6" />
    <linearGradient
       id="linear-gradient-8"
       x1="226.38"
       y1="198.31"
       x2="226.38"
       y2="210.59"
       xlink:href="#linear-gradient-4" />
    <linearGradient
       id="linear-gradient-9"
       x1="226.39"
       y1="193.4"
       x2="226.39"
       y2="202.65"
       gradientUnits="userSpaceOnUse">
      <stop
         offset="0.01"
         stop-color="#1a1a1a"
         id="stop415" />
      <stop
         offset="1"
         id="stop417" />
    </linearGradient>
    <linearGradient
       id="linear-gradient-10"
       x1="349.15"
       y1="215.83"
       x2="349.15"
       y2="220.84"
       xlink:href="#linear-gradient" />
    <linearGradient
       id="linear-gradient-11"
       x1="258.23"
       y1="182.66"
       x2="258.23"
       y2="201.51"
       gradientUnits="userSpaceOnUse">
      <stop
         offset="0"
         stop-color="#282c2c"
         id="stop421" />
      <stop
         offset="0.35"
         stop-color="#141616"
         id="stop423" />
      <stop
         offset="0.72"
         stop-color="#050606"
         id="stop425" />
      <stop
         offset="1"
         id="stop427" />
    </linearGradient>
    <linearGradient
       id="linear-gradient-12"
       x1="258.23"
       y1="215.3"
       x2="258.23"
       y2="220.06"
       xlink:href="#linear-gradient" />
    <linearGradient
       id="linear-gradient-13"
       x1="349.13"
       y1="182.21"
       x2="349.13"
       y2="190.91"
       xlink:href="#linear-gradient-11" />
    <linearGradient
       id="linear-gradient-14"
       x1="316.8"
       y1="226.5"
       x2="316.8"
       y2="231.26"
       xlink:href="#linear-gradient" />
    <linearGradient
       id="linear-gradient-15"
       x1="317.26"
       y1="210.21"
       x2="317.26"
       y2="241.45"
       gradientUnits="userSpaceOnUse">
      <stop
         offset="0"
         stop-color="#f5f2f4"
         id="stop433" />
      <stop
         offset="1"
         stop-color="#cccedb"
         id="stop435" />
    </linearGradient>
    <linearGradient
       id="linear-gradient-16"
       x1="317.25"
       y1="213.57"
       x2="317.25"
       y2="228.35"
       gradientUnits="userSpaceOnUse">
      <stop
         offset="0"
         stop-color="#f70001"
         id="stop438" />
      <stop
         offset="1"
         stop-color="#e7e3e7"
         id="stop440" />
    </linearGradient>
    <linearGradient
       id="linear-gradient-17"
       x1="317.24"
       y1="210.8"
       x2="317.24"
       y2="215.81"
       gradientUnits="userSpaceOnUse">
      <stop
         offset="0"
         stop-color="#f5f2f4"
         id="stop443" />
      <stop
         offset="1"
         stop-color="#acb2c7"
         id="stop445" />
    </linearGradient>
    <linearGradient
       id="linear-gradient-18"
       x1="307.17"
       y1="207.75"
       x2="307.17"
       y2="226.8"
       xlink:href="#linear-gradient-15" />
    <linearGradient
       id="linear-gradient-19"
       x1="327.4"
       y1="207.75"
       x2="327.4"
       y2="226.8"
       xlink:href="#linear-gradient-15" />
    <linearGradient
       id="linear-gradient-20"
       x1="377.75"
       y1="197.33"
       x2="377.75"
       y2="218"
       gradientUnits="userSpaceOnUse">
      <stop
         offset="0"
         stop-color="#b3752b"
         id="stop450" />
      <stop
         offset="1"
         stop-color="#994b24"
         id="stop452" />
    </linearGradient>
    <linearGradient
       id="linear-gradient-21"
       x1="377.36"
       y1="222.1"
       x2="377.36"
       y2="215.43"
       gradientUnits="userSpaceOnUse">
      <stop
         offset="0"
         stop-color="#dbbb43"
         id="stop455" />
      <stop
         offset="1"
         stop-color="#ee9938"
         id="stop457" />
    </linearGradient>
    <linearGradient
       id="linear-gradient-22"
       x1="377.19"
       y1="234.85"
       x2="377.19"
       y2="237.95"
       xlink:href="#linear-gradient-3" />
    <linearGradient
       id="linear-gradient-23"
       x1="377.36"
       y1="216.97"
       x2="377.36"
       y2="235.3"
       gradientUnits="userSpaceOnUse">
      <stop
         offset="0"
         stop-color="#428d84"
         id="stop461" />
      <stop
         offset="1"
         stop-color="#1d6283"
         id="stop463" />
    </linearGradient>
    <linearGradient
       id="linear-gradient-24"
       x1="385.97"
       y1="218.49"
       x2="385.97"
       y2="234.72"
       gradientUnits="userSpaceOnUse">
      <stop
         offset="0"
         stop-color="#327f74"
         id="stop466" />
      <stop
         offset="1"
         stop-color="#084071"
         id="stop468" />
    </linearGradient>
    <linearGradient
       id="linear-gradient-25"
       x1="368.92"
       y1="218.62"
       x2="368.92"
       y2="234.99"
       xlink:href="#linear-gradient-24" />
    <linearGradient
       id="linear-gradient-26"
       x1="377.48"
       y1="204.66"
       x2="377.48"
       y2="214.86"
       gradientUnits="userSpaceOnUse">
      <stop
         offset="0"
         stop-color="#f9d74e"
         id="stop472" />
      <stop
         offset="1"
         stop-color="#f1ab56"
         id="stop474" />
    </linearGradient>
  </defs>
  <g
     id="Layer_2"
     data-name="Layer 2">
    <path
       class="cls-1"
       d="M296.33,234.74c5.48.81,5.48,2.12,0,2.93a81.13,81.13,0,0,1-19.82,0c-5.48-.81-5.48-2.12,0-2.93a81.13,81.13,0,0,1,19.82,0"
       transform="translate(-184.49 -121.47)"
       id="path479" />
    <path
       class="cls-2"
       d="M287.32,219c5.84,0,9.13-2.7,8.48-2.76a1.47,1.47,0,0,1-1.28-2.13,20.25,20.25,0,0,0,.63-4.71c0-5.61-3.51-10.16-7.83-10.16s-7.82,4.55-7.82,10.16l.63,4.71a1.47,1.47,0,0,1-1.28,2.13C278.19,216.3,281.49,219,287.32,219Z"
       transform="translate(-184.49 -121.47)"
       id="path481" />
    <path
       class="cls-3"
       d="M287.24,214.36c-.83,0-2.21-1.1-2.3.24-.25,3.87-3.9,2.31-3.9,3.76,0,2.65,4.38,6.22,6.2,6.22s6.05-3.65,6.05-6.3c0-1.44-3.51.19-3.76-3.68C289.45,213.26,288.06,214.36,287.24,214.36Z"
       transform="translate(-184.49 -121.47)"
       id="path483" />
    <path
       class="cls-3"
       d="M287.24,225.09c-2,0-6.45-3.7-6.45-6.47,0-.76.71-.92,1.4-1.06,1.1-.24,2.36-.51,2.5-2.72.05-.75.47-.91.81-.91a3.14,3.14,0,0,1,.94.23,2.83,2.83,0,0,0,.8.2,2.77,2.77,0,0,0,.79-.2,3.14,3.14,0,0,1,.94-.23c.35,0,.77.16.81.91a2.46,2.46,0,0,0,2.41,2.66c.66.14,1.35.28,1.35,1,0,2.81-4.32,6.55-6.3,6.55"
       transform="translate(-184.49 -121.47)"
       id="path485" />
    <path
       class="cls-4"
       d="M285.5,214.44c-.12,0-.28,0-.31.43a3.07,3.07,0,0,1-2.89,3.18c-.73.16-1,.25-1,.57,0,2.43,4.17,6,5.94,6s5.79-3.58,5.79-6c0-.3-.21-.39-.94-.54a3,3,0,0,1-2.81-3.13c0-.43-.19-.43-.31-.43a2.74,2.74,0,0,0-.77.2,3.23,3.23,0,0,1-1,.22,3.29,3.29,0,0,1-1-.22,2.74,2.74,0,0,0-.77-.2"
       transform="translate(-184.49 -121.47)"
       id="path487" />
    <path
       class="cls-4"
       d="M293.38,207.39a.65.65,0,0,0-.39,0h0a22.67,22.67,0,0,1-7.31-3.11c-2.31,2.64-3.91,3.12-3.91,3.12a.74.74,0,0,0-.44-.05c-.57.1-.92.88-.76,1.75a1.59,1.59,0,0,0,1.08,1.39c.49,3.23,2.87,5.68,5.73,5.68s5.24-2.45,5.73-5.69a1.64,1.64,0,0,0,1-1.38C294.29,208.27,294,207.49,293.38,207.39Z"
       transform="translate(-184.49 -121.47)"
       id="path489" />
    <path
       class="cls-3"
       d="M292.9,210.49l0-.15.15,0a1.44,1.44,0,0,0,.86-1.21,2.31,2.31,0,0,0,0-.37,1.56,1.56,0,0,0-.19-.79.62.62,0,0,0-.43-.34l0-.21,0,.21h-.08a.51.51,0,0,0-.2,0l-.23.08-.11-.47.42-.07h.28a1.08,1.08,0,0,1,.72.55,1.94,1.94,0,0,1,.25,1,2.35,2.35,0,0,1,0,.45,1.93,1.93,0,0,1-1.05,1.51c-.54,3.25-3,5.74-5.92,5.74s-5.38-2.48-5.92-5.72a1.88,1.88,0,0,1-1.1-1.53,2.35,2.35,0,0,1,0-.45,1.94,1.94,0,0,1,.25-1,1.08,1.08,0,0,1,.72-.55h.32a1.27,1.27,0,0,1,.41.14l-.1.43-.24-.1a.64.64,0,0,0-.23,0h-.08a.62.62,0,0,0-.43.34,1.56,1.56,0,0,0-.19.79,2.31,2.31,0,0,0,0,.37c.12.69.55,1.18.9,1.22l.16,0,0,.16c.48,3.15,2.79,5.5,5.52,5.5S292.42,213.64,292.9,210.49Z"
       transform="translate(-184.49 -121.47)"
       id="path491" />
    <path
       class="cls-5"
       d="M289.77,208.36a.53.53,0,1,1-1,0,.53.53,0,1,1,1,0Z"
       transform="translate(-184.49 -121.47)"
       id="path493" />
    <path
       class="cls-5"
       d="M286,208.36a.53.53,0,1,1-1,0,.53.53,0,1,1,1,0Z"
       transform="translate(-184.49 -121.47)"
       id="path495" />
    <path
       class="cls-5"
       d="M285.17,212.79a.21.21,0,0,1,.2-.38,4,4,0,0,0,1.93.46,4.06,4.06,0,0,0,1.92-.45.21.21,0,0,1,.2.38,4.72,4.72,0,0,1-4.25,0Z"
       transform="translate(-184.49 -121.47)"
       id="path497" />
    <path
       class="cls-5"
       d="M287.34,211.32a1.55,1.55,0,0,1-1.13-.51.22.22,0,0,1,0-.31.21.21,0,0,1,.3,0,1.09,1.09,0,0,0,.82.38,1.12,1.12,0,0,0,.79-.36h0a.23.23,0,0,1,.31,0,.22.22,0,0,1,0,.3,1.54,1.54,0,0,1-1.1.49Z"
       transform="translate(-184.49 -121.47)"
       id="path499" />
    <path
       class="cls-6"
       d="M286.81,235.44c-6.24,0-9.07-1.64-10.35-3a4.6,4.6,0,0,1-1.29-3.5.81.81,0,0,0,0-.17c.31-4.93,1.36-8.36,3-9.65a9.17,9.17,0,0,1,4-1.55l.28-.05,0,.28a6.35,6.35,0,0,0,1.26,4.33,4.54,4.54,0,0,0,3.53,1.36,4.66,4.66,0,0,0,3.57-1.36,6.36,6.36,0,0,0,1.35-4.33l0-.28.28.05a9.27,9.27,0,0,1,4,1.55c1.6,1.29,2.65,4.72,3,9.65,0,.07,0,.13,0,.17a4.52,4.52,0,0,1-1.29,3.5c-1.28,1.38-4.11,3-10.35,3h-1Z"
       transform="translate(-184.49 -121.47)"
       id="path501" />
    <path
       class="cls-7"
       d="M282,218a8.45,8.45,0,0,0-3.58,1.41c-1.5,1.21-2.5,4.53-2.8,9.34a.81.81,0,0,1,0,.17,4.14,4.14,0,0,0,1.18,3.18c1.22,1.31,4,2.88,10,2.88h1c6.08,0,8.81-1.57,10-2.88A4.11,4.11,0,0,0,299,229s0-.1,0-.17c-.3-4.81-1.29-8.13-2.8-9.34a8.45,8.45,0,0,0-3.59-1.41,6.58,6.58,0,0,1-1.47,4.37,5.07,5.07,0,0,1-3.89,1.5,4.94,4.94,0,0,1-3.85-1.5A6.45,6.45,0,0,1,282,218"
       transform="translate(-184.49 -121.47)"
       id="path503" />
    <path
       class="cls-8"
       d="M278.84,219.14a4.5,4.5,0,0,0-.42.3c-1.19.95-1.92,3.16-2.31,5.22a35.65,35.65,0,0,0-.5,4.29c0,.1,0,.2,0,.3a4.55,4.55,0,0,0,2.32,3.82,13.74,13.74,0,0,0,5,1.75c-2.92-.76-6.18-3.53-4.66-8.79A14.76,14.76,0,0,0,278.84,219.14Z"
       transform="translate(-184.49 -121.47)"
       id="path505" />
    <path
       class="cls-8"
       d="M295.78,219.14a4.5,4.5,0,0,1,.42.3c1.19.95,1.92,3.16,2.31,5.22A35.65,35.65,0,0,1,299,229c0,.1,0,.2,0,.3a4.56,4.56,0,0,1-2.31,3.82,13.84,13.84,0,0,1-5,1.75c2.93-.76,6.19-3.53,4.67-8.79A14.76,14.76,0,0,1,295.78,219.14Z"
       transform="translate(-184.49 -121.47)"
       id="path507" />
    <g
       id="g537">
      <path
         class="cls-9"
         d="M234.49,230.87c4.74.7,4.74,1.84,0,2.54a70.37,70.37,0,0,1-17.16,0c-4.74-.7-4.74-1.84,0-2.54a71.39,71.39,0,0,1,17.16,0"
         transform="translate(-184.49 -121.47)"
         id="path509" />
      <path
         class="cls-10"
         d="M226.45,207.8c-.84,0-2.25-1.12-2.34.25-.26,3.95-4,2.36-4,3.84,0,2.7,4.47,6.35,6.32,6.35s6.18-3.73,6.18-6.43c0-1.48-3.58.19-3.84-3.76C228.71,206.68,227.29,207.8,226.45,207.8Z"
         transform="translate(-184.49 -121.47)"
         id="path511" />
      <path
         class="cls-5"
         d="M226.45,218.76c-2.06,0-6.58-3.78-6.58-6.61,0-.77.73-.93,1.43-1.08,1.13-.25,2.4-.53,2.55-2.78.05-.76.48-.92.83-.92a3,3,0,0,1,1,.23,1.74,1.74,0,0,0,1.62,0,3,3,0,0,1,1-.23c.35,0,.78.16.83.92A2.51,2.51,0,0,0,231.5,211c.68.14,1.39.28,1.39,1.05,0,2.88-4.42,6.7-6.44,6.7m-1.77-10.88c-.12,0-.29,0-.32.45a3.13,3.13,0,0,1-3,3.24c-.74.16-1,.25-1,.58,0,2.48,4.26,6.09,6.06,6.09s5.92-3.65,5.92-6.18c0-.3-.22-.39-1-.54a3,3,0,0,1-2.86-3.19c0-.45-.2-.45-.32-.45a3.38,3.38,0,0,0-.79.2,2.12,2.12,0,0,1-2,0,3.26,3.26,0,0,0-.79-.2"
         transform="translate(-184.49 -121.47)"
         id="path513" />
      <path
         class="cls-11"
         d="M226.3,215.58a.7.7,0,0,0,.77-.57c.73-2.2,2.31-1.94,2.65-3.9a.77.77,0,0,1,1.34-.43,3.46,3.46,0,0,0,2.28.93,7.49,7.49,0,0,1,3.11,1.46c2.88,2.1,3.2,11,3.25,11.65.24,2.87-2.65,6.56-13.4,6.43h.06c-10.76.13-13.64-3.56-13.4-6.43,0-.68.38-9.55,3.25-11.65a7.49,7.49,0,0,1,3.11-1.46,3.49,3.49,0,0,0,2.28-.93.76.76,0,0,1,1.33.43c.35,2,1.92,1.7,2.66,3.9a.7.7,0,0,0,.77.57Z"
         transform="translate(-184.49 -121.47)"
         id="path515" />
      <path
         class="cls-5"
         d="M226.3,215.58v.22a1.16,1.16,0,0,0,.32,0,.84.84,0,0,0,.42-.23,1.13,1.13,0,0,0,.26-.47,3.76,3.76,0,0,1,.64-1.19,13.35,13.35,0,0,1,1.16-1.11,2.9,2.9,0,0,0,.53-.66,3.07,3.07,0,0,0,.33-1,.69.69,0,0,1,.21-.4.48.48,0,0,1,.31-.1.49.49,0,0,1,.38.17,1.85,1.85,0,0,0,.49.44,3.29,3.29,0,0,0,.91.37c.33.08.68.14,1,.21a6.31,6.31,0,0,1,1.52.5,10,10,0,0,1,1.49.91,3.8,3.8,0,0,1,.9,1,10.63,10.63,0,0,1,1.17,2.82,31.83,31.83,0,0,1,.87,4.88c.08.72.12,1.36.16,1.84s0,.82.06.94,0,.2,0,.3a3.83,3.83,0,0,1-.58,2,7,7,0,0,1-3.71,2.69,24.23,24.23,0,0,1-8.34,1.19h-.54v.44h.06v-.44h-.54c-4.93,0-8.1-.84-10-2a5.72,5.72,0,0,1-2-1.89,3.84,3.84,0,0,1-.59-2c0-.1,0-.2,0-.3s0-.3,0-.62a41.32,41.32,0,0,1,.71-5.62,16.71,16.71,0,0,1,.94-3.16,5.11,5.11,0,0,1,1.47-2.1,10,10,0,0,1,1.49-.91,6.16,6.16,0,0,1,1.52-.5,10.52,10.52,0,0,0,1.34-.31,2.43,2.43,0,0,0,.59-.27,1.74,1.74,0,0,0,.5-.44.49.49,0,0,1,.38-.17.5.5,0,0,1,.31.1.63.63,0,0,1,.2.4,2.75,2.75,0,0,0,.5,1.21,3.23,3.23,0,0,0,.56.6,11.13,11.13,0,0,1,.87.82,3.67,3.67,0,0,1,.73,1.3,1.53,1.53,0,0,0,.16.34.82.82,0,0,0,.38.31,1.09,1.09,0,0,0,.47.08v-.44h-.06v.44h.06v-.44a.59.59,0,0,1-.2,0,.28.28,0,0,1-.18-.09.73.73,0,0,1-.16-.31,4.07,4.07,0,0,0-.71-1.32,12.34,12.34,0,0,0-1.2-1.15,2.43,2.43,0,0,1-.74-1.4,1,1,0,0,0-.36-.65,1,1,0,0,0-.63-.22,1,1,0,0,0-.78.35,1.48,1.48,0,0,1-.37.34,2.69,2.69,0,0,1-.77.3c-.3.08-.63.14-1,.21a6.39,6.39,0,0,0-1.65.54,8.9,8.9,0,0,0-1.56,1,3.9,3.9,0,0,0-1,1.14,10.89,10.89,0,0,0-1.22,2.93,31.08,31.08,0,0,0-.88,4.94c-.08.73-.14,1.38-.17,1.87s-.05.82-.06.93,0,.22,0,.33a4.24,4.24,0,0,0,.65,2.23,7.43,7.43,0,0,0,3.94,2.89,25,25,0,0,0,8.52,1.22h.55v-.44h-.06v.44h.54c5,0,8.26-.84,10.29-2.06a6.2,6.2,0,0,0,2.18-2A4.24,4.24,0,0,0,240,225c0-.11,0-.23,0-.33s0-.3,0-.61a40.73,40.73,0,0,0-.71-5.68,17.27,17.27,0,0,0-1-3.24,5.46,5.46,0,0,0-1.62-2.28,9.34,9.34,0,0,0-1.57-1,6.32,6.32,0,0,0-1.64-.54,10.26,10.26,0,0,1-1.28-.29,2.12,2.12,0,0,1-.48-.22,1.48,1.48,0,0,1-.37-.34,1,1,0,0,0-.78-.35,1,1,0,0,0-.63.22,1,1,0,0,0-.37.65,2.38,2.38,0,0,1-.42,1,3.05,3.05,0,0,1-.49.53,8.69,8.69,0,0,0-.91.85,4,4,0,0,0-.82,1.45.77.77,0,0,1-.11.24.34.34,0,0,1-.16.14.64.64,0,0,1-.27,0v.22Z"
         transform="translate(-184.49 -121.47)"
         id="path517" />
      <path
         class="cls-12"
         d="M218,212.28a7.87,7.87,0,0,0-1.65,1c-1.33,1-2.16,3.53-2.6,5.93a45.31,45.31,0,0,0-.56,5.57c0,.1,0,.2,0,.3a4.59,4.59,0,0,0,2.6,3.91,10.51,10.51,0,0,0,2.22,1Z"
         transform="translate(-184.49 -121.47)"
         id="path519" />
      <path
         class="cls-13"
         d="M234.62,212.28a7.39,7.39,0,0,1,1.65,1c1.34,1,2.16,3.53,2.6,5.93a47.53,47.53,0,0,1,.56,5.57c0,.1,0,.2,0,.3a4.62,4.62,0,0,1-2.61,3.91,10.51,10.51,0,0,1-2.22,1Z"
         transform="translate(-184.49 -121.47)"
         id="path521" />
      <path
         class="cls-14"
         d="M232.85,201.47a.76.76,0,0,0-.42,0c-.74-3.13-3.16-5.42-6-5.42s-5.3,2.3-6,5.44a.76.76,0,0,0-.47-.06c-.62.1-1,.95-.82,1.88a1.72,1.72,0,0,0,1.16,1.5c.52,3.46,3.08,6.1,6.16,6.1s5.63-2.64,6.15-6.12a1.74,1.74,0,0,0,1.11-1.48C233.83,202.42,233.47,201.57,232.85,201.47Z"
         transform="translate(-184.49 -121.47)"
         id="path523" />
      <path
         class="cls-5"
         d="M220,205a2,2,0,0,1-1.18-1.64,2.67,2.67,0,0,1,0-.48,2.22,2.22,0,0,1,.26-1.09,1.2,1.2,0,0,1,.78-.58l.18,0,.17,0c.81-3.1,3.26-5.38,6.19-5.38s5.38,2.28,6.2,5.37h.12l.17,0a1.15,1.15,0,0,1,.78.58,2.12,2.12,0,0,1,.27,1.09,2.67,2.67,0,0,1,0,.48,2.09,2.09,0,0,1-1.13,1.62c-.59,3.5-3.19,6.17-6.37,6.17s-5.77-2.67-6.36-6.15m12.29-.23,0-.16.15,0a1.53,1.53,0,0,0,.93-1.3,2.8,2.8,0,0,0,0-.4,1.64,1.64,0,0,0-.2-.85.68.68,0,0,0-.46-.37l0-.22,0,.22h-.09a.52.52,0,0,0-.21,0l-.25.09-.06-.26c-.72-3-3.06-5.24-5.8-5.24s-5.08,2.21-5.8,5.26l-.06.27-.26-.11a.52.52,0,0,0-.24-.05h-.1a.7.7,0,0,0-.46.37,1.75,1.75,0,0,0-.2.85,1.87,1.87,0,0,0,0,.4,1.51,1.51,0,0,0,1,1.31l.17,0,0,.17c.51,3.38,3,5.91,5.92,5.91s5.42-2.53,5.93-5.92"
         transform="translate(-184.49 -121.47)"
         id="path525" />
      <path
         d="M229,202.12a.56.56,0,1,1-.55-.7A.63.63,0,0,1,229,202.12Z"
         transform="translate(-184.49 -121.47)"
         id="path527" />
      <path
         d="M224.9,202.12a.63.63,0,0,1-.55.7.72.72,0,0,1,0-1.4A.63.63,0,0,1,224.9,202.12Z"
         transform="translate(-184.49 -121.47)"
         id="path529" />
      <path
         class="cls-5"
         d="M228.42,206.58a4.41,4.41,0,0,1-2.06.48,4.29,4.29,0,0,1-2.08-.49.22.22,0,0,0-.3.09.23.23,0,0,0,.08.3,4.88,4.88,0,0,0,2.3.55,4.82,4.82,0,0,0,2.27-.54.23.23,0,0,0,.09-.3A.22.22,0,0,0,228.42,206.58Z"
         transform="translate(-184.49 -121.47)"
         id="path531" />
      <path
         class="cls-5"
         d="M227.25,204.46a1.19,1.19,0,0,1-.86.39,1.22,1.22,0,0,1-.88-.41.22.22,0,0,0-.32.3,1.59,1.59,0,0,0,2.38,0,.21.21,0,0,0,0-.31A.22.22,0,0,0,227.25,204.46Z"
         transform="translate(-184.49 -121.47)"
         id="path533" />
      <path
         class="cls-15"
         d="M226.41,193.22c6.94,0,7.55,4.64,7.4,8.91a1.12,1.12,0,0,0-1.65-.75c0,.09.1.44.1.44l-.79.51a7.77,7.77,0,0,1-1.15-4.3l-3.91.37a21.06,21.06,0,0,1-3.91-.37,7.77,7.77,0,0,1-1.15,4.3c-.66-.1-.81-.48-.81-.48l.11-.47a1.14,1.14,0,0,0-1.69.7C218.82,197.82,219.46,193.22,226.41,193.22Z"
         transform="translate(-184.49 -121.47)"
         id="path535" />
    </g>
    <path
       class="cls-16"
       d="M396.57,152.05c-13.09,0-23.7,6.3-23.7,14.08,0,5,4.45,9.44,11.13,11.93l-3.17,15.44,7.45-14.18a38.51,38.51,0,0,0,8.29.89c13.08,0,23.69-6.31,23.69-14.08S409.65,152.05,396.57,152.05Z"
       transform="translate(-184.49 -121.47)"
       id="path539" />
    <path
       class="cls-18"
       d="M307.84,152.05c-13.09,0-23.7,6.3-23.7,14.08,0,5,4.45,9.44,11.13,11.93l-4.1,18.11,8.38-16.85a38.51,38.51,0,0,0,8.29.89c13.09,0,23.7-6.31,23.7-14.08S320.93,152.05,307.84,152.05Z"
       transform="translate(-184.49 -121.47)"
       id="path545" />
    <text
       class="cls-17"
       id="text555-5"
       x="123.53485"
       y="42.088741"
       style="font-size:7px;font-family:ArialMT, Arial;text-align:center;text-anchor:middle"><tspan
         sodipodi:role="line"
         id="tspan861-3"
         x="123.53485"
         y="42.088741">Vendo per</tspan><tspan
         sodipodi:role="line"
         id="tspan863-5"
         x="123.53485"
         y="50.838741">$1,010.00</tspan></text>
    <path
       class="cls-16"
       d="M208.44,152.05c13.09,0,23.7,6.3,23.7,14.08,0,5-4.45,9.44-11.13,11.93l2.49,12.11-6.77-10.85a38.51,38.51,0,0,1-8.29.89c-13.09,0-23.7-6.31-23.7-14.08S195.35,152.05,208.44,152.05Z"
       transform="translate(-184.49 -121.47)"
       id="path551" />
    <text
       class="cls-17"
       id="text555"
       x="23.683559"
       y="42.047832"
       style="text-align:center;text-anchor:middle"><tspan
         sodipodi:role="line"
         id="tspan861"
         x="23.683559"
         y="42.047832">Vendo per</tspan><tspan
         sodipodi:role="line"
         id="tspan863"
         x="23.683559"
         y="50.797832">$1,005.00</tspan></text>
    <path
       class="cls-19"
       d="M359.25,217.28c5.58.83,5.58,2.16,0,3a83.24,83.24,0,0,1-20.2,0c-5.58-.83-5.58-2.16,0-3a83.24,83.24,0,0,1,20.2,0"
       transform="translate(-184.49 -121.47)"
       id="path557" />
    <g
       id="g589">
      <path
         class="cls-20"
         d="M266.44,198.77a1.44,1.44,0,0,1-1.24-2.07,19.48,19.48,0,0,0,.62-4.57c0-5.43-3.41-9.83-7.59-9.83s-7.58,4.4-7.58,9.83a19.48,19.48,0,0,0,.62,4.57,1.44,1.44,0,0,1-1.24,2.07c-.64,0,2.55,2.67,8.2,2.67S267.08,198.82,266.44,198.77Z"
         transform="translate(-184.49 -121.47)"
         id="path559" />
      <path
         class="cls-21"
         d="M267.83,216.68c5.31.78,5.31,2,0,2.83a78.07,78.07,0,0,1-19.2,0c-5.3-.78-5.3-2,0-2.83a79.06,79.06,0,0,1,19.2,0"
         transform="translate(-184.49 -121.47)"
         id="path561" />
      <path
         class="cls-3"
         d="M258.15,196.94c-.8,0-2.14-1.07-2.22.24-.25,3.74-3.78,2.24-3.78,3.64,0,2.56,4.24,6,6,6s5.86-3.53,5.86-6.1c0-1.4-3.39.18-3.64-3.56C260.29,195.87,259,196.94,258.15,196.94Z"
         transform="translate(-184.49 -121.47)"
         id="path563" />
      <path
         class="cls-22"
         d="M258.15,207.33c-2,0-6.24-3.58-6.24-6.27,0-.73.68-.88,1.35-1,1.07-.24,2.28-.5,2.42-2.63,0-.73.45-.88.79-.88a2.94,2.94,0,0,1,.91.22,3,3,0,0,0,.77.19,2.87,2.87,0,0,0,.77-.19,2.94,2.94,0,0,1,.91-.22c.33,0,.74.15.79.88a2.37,2.37,0,0,0,2.32,2.57c.65.13,1.31.27,1.31,1,0,2.73-4.18,6.35-6.1,6.35"
         transform="translate(-184.49 -121.47)"
         id="path565" />
      <path
         class="cls-23"
         d="M256.47,197c-.12,0-.27,0-.3.42a3,3,0,0,1-2.81,3.08c-.7.15-1,.23-1,.54,0,2.36,4,5.78,5.75,5.78s5.61-3.46,5.61-5.86c0-.29-.2-.37-.92-.52a2.86,2.86,0,0,1-2.71-3c0-.42-.18-.42-.3-.42a2.5,2.5,0,0,0-.75.19,2.08,2.08,0,0,1-1.86,0,2.57,2.57,0,0,0-.75-.19"
         transform="translate(-184.49 -121.47)"
         id="path567" />
      <path
         class="cls-23"
         d="M264.1,190.19a.62.62,0,0,0-.38,0h0a21.85,21.85,0,0,1-7.08-3c-2.24,2.56-3.79,3-3.79,3a.68.68,0,0,0-.42-.05c-.56.1-.89.86-.74,1.7a1.53,1.53,0,0,0,1.05,1.34c.47,3.13,2.77,5.51,5.55,5.51s5.08-2.38,5.55-5.51a1.62,1.62,0,0,0,1-1.34C265,191.05,264.65,190.29,264.1,190.19Z"
         transform="translate(-184.49 -121.47)"
         id="path569" />
      <path
         class="cls-22"
         d="M263.63,193.19l0-.14.14,0a1.38,1.38,0,0,0,.84-1.17,2.28,2.28,0,0,0,0-.36,1.56,1.56,0,0,0-.18-.77.63.63,0,0,0-.42-.33l0-.2,0,.2H264l-.19,0-.22.08-.11-.46.41-.06h.27a1,1,0,0,1,.7.53,1.92,1.92,0,0,1,.24,1,2.09,2.09,0,0,1,0,.43,1.83,1.83,0,0,1-1,1.46c-.52,3.15-2.87,5.56-5.73,5.57s-5.21-2.41-5.74-5.55a1.84,1.84,0,0,1-1.06-1.48,2.15,2.15,0,0,1,0-.43,1.92,1.92,0,0,1,.24-1,1,1,0,0,1,.7-.53h.31a1.49,1.49,0,0,1,.4.13l-.1.42-.23-.1a.63.63,0,0,0-.22-.05h-.08a.63.63,0,0,0-.42.33,1.46,1.46,0,0,0-.19.77,2.33,2.33,0,0,0,0,.36,1.35,1.35,0,0,0,.87,1.18l.15,0,0,.15c.47,3.05,2.7,5.33,5.35,5.33S263.17,196.25,263.63,193.19Z"
         transform="translate(-184.49 -121.47)"
         id="path571" />
      <path
         d="M260.6,191.13a.51.51,0,1,1-.49-.63A.57.57,0,0,1,260.6,191.13Z"
         transform="translate(-184.49 -121.47)"
         id="path573" />
      <path
         d="M256.9,191.13a.51.51,0,1,1-.49-.63A.57.57,0,0,1,256.9,191.13Z"
         transform="translate(-184.49 -121.47)"
         id="path575" />
      <path
         class="cls-22"
         d="M256.14,195.42a.21.21,0,0,1-.08-.28.21.21,0,0,1,.29-.08,4.15,4.15,0,0,0,3.72,0,.21.21,0,0,1,.28.09.2.2,0,0,1-.08.28,4.55,4.55,0,0,1-4.13,0Z"
         transform="translate(-184.49 -121.47)"
         id="path577" />
      <path
         class="cls-22"
         d="M258.25,194a1.53,1.53,0,0,1-1.1-.5.21.21,0,0,1,.31-.29,1,1,0,0,0,1.56,0h0a.21.21,0,0,1,.29,0,.22.22,0,0,1,0,.3,1.51,1.51,0,0,1-1.07.47Z"
         transform="translate(-184.49 -121.47)"
         id="path579" />
      <path
         class="cls-24"
         d="M257.74,217.36c-6,0-8.79-1.59-10-2.93a4.45,4.45,0,0,1-1.25-3.39s0-.09,0-.16c.29-4.78,1.31-8.1,2.86-9.35a9.13,9.13,0,0,1,3.92-1.5l.27-.05,0,.28a6.17,6.17,0,0,0,1.22,4.19,4.4,4.4,0,0,0,3.42,1.31,4.49,4.49,0,0,0,3.46-1.32,6.22,6.22,0,0,0,1.31-4.19l0-.27.27.05a9.08,9.08,0,0,1,3.91,1.5c1.55,1.25,2.57,4.57,2.87,9.35,0,.07,0,.12,0,.16a4.42,4.42,0,0,1-1.25,3.39c-1.24,1.34-4,2.93-10,2.93h-.93Z"
         transform="translate(-184.49 -121.47)"
         id="path581" />
      <path
         class="cls-25"
         d="M253.07,200.49a8.25,8.25,0,0,0-3.46,1.37c-1.47,1.17-2.43,4.38-2.72,9a.76.76,0,0,1,0,.17,4,4,0,0,0,1.14,3.08c1.18,1.27,3.83,2.79,9.72,2.79h.93c5.9,0,8.54-1.52,9.72-2.79a4,4,0,0,0,1.14-3.08,1.23,1.23,0,0,0,0-.17c-.29-4.66-1.25-7.87-2.71-9a8.3,8.3,0,0,0-3.47-1.37,6.38,6.38,0,0,1-1.43,4.24,4.94,4.94,0,0,1-3.77,1.45,4.81,4.81,0,0,1-3.73-1.45,6.28,6.28,0,0,1-1.34-4.24"
         transform="translate(-184.49 -121.47)"
         id="path583" />
      <path
         class="cls-26"
         d="M250,201.57l-.41.29c-1.16.92-1.86,3.06-2.23,5.06a32.49,32.49,0,0,0-.49,4.15,2.81,2.81,0,0,0,0,.29,4.41,4.41,0,0,0,2.24,3.7,13.23,13.23,0,0,0,4.88,1.69c-2.83-.73-6-3.41-4.51-8.5A14.33,14.33,0,0,0,250,201.57Z"
         transform="translate(-184.49 -121.47)"
         id="path585" />
      <path
         class="cls-26"
         d="M266.42,201.57a4.27,4.27,0,0,1,.41.29c1.16.92,1.86,3.06,2.23,5.06a30.62,30.62,0,0,1,.49,4.15,2.81,2.81,0,0,1,0,.29,4.41,4.41,0,0,1-2.24,3.7,13.17,13.17,0,0,1-4.88,1.69c2.83-.73,6-3.41,4.52-8.5A14.27,14.27,0,0,1,266.42,201.57Z"
         transform="translate(-184.49 -121.47)"
         id="path587" />
    </g>
    <g
       id="g617">
      <path
         class="cls-27"
         d="M349.19,195.76c-.8,0-2.12-1.06-2.21.23-.24,3.72-3.74,2.22-3.74,3.61,0,2.54,4.2,6,5.95,6s5.81-3.5,5.81-6c0-1.38-3.37.19-3.61-3.53C351.31,194.7,350,195.76,349.19,195.76Z"
         transform="translate(-184.49 -121.47)"
         id="path591" />
      <path
         class="cls-5"
         d="M349.19,206.06c-1.94,0-6.19-3.55-6.19-6.22,0-.72.68-.87,1.34-1,1.06-.23,2.26-.5,2.4-2.61.05-.72.45-.87.78-.87a3.15,3.15,0,0,1,.9.21,2.66,2.66,0,0,0,.77.2,2.6,2.6,0,0,0,.76-.2,3.22,3.22,0,0,1,.91-.21c.32,0,.73.15.78.87a2.34,2.34,0,0,0,2.3,2.55c.64.13,1.3.27,1.3,1,0,2.7-4.15,6.29-6.05,6.29m-1.67-10.23c-.11,0-.27,0-.29.42a3,3,0,0,1-2.79,3.05c-.69.15-.95.24-.95.54,0,2.34,4,5.73,5.7,5.73s5.56-3.43,5.56-5.8c0-.29-.2-.37-.91-.52a2.84,2.84,0,0,1-2.69-3c0-.42-.18-.42-.29-.42a2.84,2.84,0,0,0-.75.19,2.93,2.93,0,0,1-.92.22,3.05,3.05,0,0,1-.93-.22,2.78,2.78,0,0,0-.74-.19"
         transform="translate(-184.49 -121.47)"
         id="path593" />
      <path
         class="cls-28"
         d="M349.05,203.08a.66.66,0,0,0,.72-.55c.69-2.06,2.17-1.82,2.5-3.67a.71.71,0,0,1,1.25-.4,3.3,3.3,0,0,0,2.15.88,7,7,0,0,1,2.92,1.37c2.71,2,3,10.32,3.06,11,.23,2.7-2.49,6.17-12.6,6.05h.05c-10.12.12-12.83-3.35-12.61-6.05.06-.64.36-9,3.06-11a7,7,0,0,1,2.93-1.37,3.27,3.27,0,0,0,2.14-.88.72.72,0,0,1,1.26.4c.32,1.85,1.8,1.61,2.49,3.67a.68.68,0,0,0,.73.55Z"
         transform="translate(-184.49 -121.47)"
         id="path595" />
      <path
         class="cls-29"
         d="M349.05,203.08v.2a.92.92,0,0,0,.29,0,.73.73,0,0,0,.4-.22,1.11,1.11,0,0,0,.25-.44,3.35,3.35,0,0,1,.6-1.12,13.23,13.23,0,0,1,1.09-1,2.89,2.89,0,0,0,.5-.63,2.64,2.64,0,0,0,.31-.9.59.59,0,0,1,.2-.38.41.41,0,0,1,.28-.09.45.45,0,0,1,.37.15,1.83,1.83,0,0,0,.46.42,2.81,2.81,0,0,0,.86.34c.3.08.63.14,1,.2a6.48,6.48,0,0,1,1.43.47,9.65,9.65,0,0,1,1.4.86,3.51,3.51,0,0,1,.85,1,10.31,10.31,0,0,1,1.1,2.65,30.5,30.5,0,0,1,.82,4.59c.07.68.12,1.28.15,1.74s0,.76.05.88a2.64,2.64,0,0,1,0,.28,3.76,3.76,0,0,1-.55,1.9,6.64,6.64,0,0,1-3.49,2.53,22.71,22.71,0,0,1-7.84,1.12h-.51v.42h.05v-.42h-.5c-4.64,0-7.63-.79-9.43-1.87a5.49,5.49,0,0,1-1.9-1.78,3.57,3.57,0,0,1-.55-1.9,2.62,2.62,0,0,1,0-.28c0-.09,0-.29,0-.58a40.58,40.58,0,0,1,.68-5.29,16.67,16.67,0,0,1,.88-3,4.83,4.83,0,0,1,1.39-2,9.08,9.08,0,0,1,1.39-.86,6.57,6.57,0,0,1,1.44-.47,9.32,9.32,0,0,0,1.26-.28,3.15,3.15,0,0,0,.56-.26,2,2,0,0,0,.46-.42.45.45,0,0,1,.36-.15.45.45,0,0,1,.29.09.59.59,0,0,1,.19.38,2.78,2.78,0,0,0,.47,1.14,3.15,3.15,0,0,0,.53.56,9.75,9.75,0,0,1,.82.77,3.56,3.56,0,0,1,.69,1.22,1,1,0,0,0,.14.32.81.81,0,0,0,.36.3,1.1,1.1,0,0,0,.44.07v-.41h-.05v.41h.05v-.41l-.19,0a.35.35,0,0,1-.17-.09.77.77,0,0,1-.15-.28,3.75,3.75,0,0,0-.67-1.25,10,10,0,0,0-1.13-1.08,2.31,2.31,0,0,1-.69-1.32.95.95,0,0,0-1.66-.49,1.38,1.38,0,0,1-.36.32,2.52,2.52,0,0,1-.72.29c-.28.07-.59.12-.93.19a6.13,6.13,0,0,0-1.55.51,9.55,9.55,0,0,0-1.47.9,4,4,0,0,0-1,1.07,10.7,10.7,0,0,0-1.14,2.76,29.38,29.38,0,0,0-.84,4.65c-.07.69-.12,1.29-.15,1.75s-.05.78-.05.88a3,3,0,0,0,0,.31,3.93,3.93,0,0,0,.61,2.1,7,7,0,0,0,3.71,2.71,23.15,23.15,0,0,0,8,1.15h.51v-.42h-.05v.42h.52c4.69,0,7.76-.79,9.67-1.93a5.82,5.82,0,0,0,2-1.93,3.93,3.93,0,0,0,.61-2.1c0-.11,0-.21,0-.31s0-.28,0-.58a39.43,39.43,0,0,0-.67-5.34,16.88,16.88,0,0,0-.91-3,5.13,5.13,0,0,0-1.53-2.15,9.1,9.1,0,0,0-1.47-.9,6,6,0,0,0-1.55-.51,11.51,11.51,0,0,1-1.2-.27,2.35,2.35,0,0,1-.45-.21,1.52,1.52,0,0,1-.35-.32A1,1,0,0,0,353,198a.94.94,0,0,0-.59.2,1,1,0,0,0-.34.62,2.41,2.41,0,0,1-.39,1,4.42,4.42,0,0,1-.47.5,8.69,8.69,0,0,0-.86.8,3.82,3.82,0,0,0-.77,1.37.69.69,0,0,1-.1.21.3.3,0,0,1-.16.14.65.65,0,0,1-.24,0v.21Z"
         transform="translate(-184.49 -121.47)"
         id="path597" />
      <path
         class="cls-30"
         d="M341.23,200a7.1,7.1,0,0,0-1.54.9c-1.26.9-2,3.32-2.45,5.58a46.21,46.21,0,0,0-.53,5.24,2.62,2.62,0,0,0,0,.28,4.31,4.31,0,0,0,2.45,3.68,10.41,10.41,0,0,0,2.08.93Z"
         transform="translate(-184.49 -121.47)"
         id="path599" />
      <path
         class="cls-30"
         d="M356.88,200a6.86,6.86,0,0,1,1.54.9c1.26.9,2,3.32,2.45,5.58a46.21,46.21,0,0,1,.53,5.24,2.62,2.62,0,0,1,0,.28,4.31,4.31,0,0,1-2.45,3.68,10.41,10.41,0,0,1-2.08.93Z"
         transform="translate(-184.49 -121.47)"
         id="path601" />
      <path
         class="cls-27"
         d="M355.21,189.79a.78.78,0,0,0-.4.05c-.69-2.94-3-5.1-5.67-5.1s-5,2.16-5.67,5.11a.83.83,0,0,0-.44-.06c-.58.11-.92.9-.77,1.78a1.61,1.61,0,0,0,1.09,1.4c.5,3.27,2.9,5.75,5.79,5.75s5.3-2.49,5.8-5.76a1.65,1.65,0,0,0,1-1.39C356.13,190.69,355.79,189.9,355.21,189.79Z"
         transform="translate(-184.49 -121.47)"
         id="path603" />
      <path
         class="cls-31"
         d="M343.16,193.15a1.91,1.91,0,0,1-1.11-1.54,2.45,2.45,0,0,1,0-.46,2,2,0,0,1,.25-1,1.07,1.07,0,0,1,.73-.55h.33c.76-2.91,3.06-5.06,5.82-5.06s5.06,2.15,5.83,5h.28a1.07,1.07,0,0,1,.73.55,2.11,2.11,0,0,1,.25,1,2.45,2.45,0,0,1,0,.46,1.94,1.94,0,0,1-1.06,1.52c-.55,3.29-3,5.8-6,5.8s-5.43-2.5-6-5.78m11.56-.22,0-.15.15,0a1.43,1.43,0,0,0,.87-1.22,1.69,1.69,0,0,0,0-.38,1.58,1.58,0,0,0-.2-.8.64.64,0,0,0-.43-.34l0-.22,0,.22h-.08a.45.45,0,0,0-.2,0l-.24.09,0-.24c-.68-2.87-2.88-4.93-5.46-4.93s-4.78,2.07-5.46,4.94l-.06.26-.24-.11a.59.59,0,0,0-.23-.05h-.08a.65.65,0,0,0-.44.34,1.79,1.79,0,0,0-.15,1.18c.12.7.55,1.19.9,1.23l.16,0,0,.16c.48,3.18,2.81,5.56,5.57,5.56s5.1-2.38,5.58-5.57"
         transform="translate(-184.49 -121.47)"
         id="path605" />
      <path
         class="cls-32"
         d="M351.59,190.41a.53.53,0,1,1-.52-.66A.6.6,0,0,1,351.59,190.41Z"
         transform="translate(-184.49 -121.47)"
         id="path607" />
      <path
         class="cls-32"
         d="M347.73,190.41a.53.53,0,1,1-.52-.66A.6.6,0,0,1,347.73,190.41Z"
         transform="translate(-184.49 -121.47)"
         id="path609" />
      <path
         class="cls-31"
         d="M351,194.6a4.34,4.34,0,0,1-3.89,0,.21.21,0,1,0-.21.36,4.45,4.45,0,0,0,2.16.52,4.54,4.54,0,0,0,2.14-.51.21.21,0,0,0,.08-.28A.21.21,0,0,0,351,194.6Z"
         transform="translate(-184.49 -121.47)"
         id="path611" />
      <path
         class="cls-31"
         d="M349.94,192.61a1.11,1.11,0,0,1-.81.37,1.14,1.14,0,0,1-.83-.39.21.21,0,1,0-.3.28,1.53,1.53,0,0,0,1.13.52,1.54,1.54,0,0,0,1.11-.49.21.21,0,0,0,0-.29A.22.22,0,0,0,349.94,192.61Z"
         transform="translate(-184.49 -121.47)"
         id="path613" />
      <path
         class="cls-33"
         d="M349.15,182c6.53,0,7.1,4.36,7,8.38a1.05,1.05,0,0,0-1.55-.71l.09.42-.74.48a7.4,7.4,0,0,1-1.09-4l-3.67.35a19.77,19.77,0,0,1-3.68-.35,7.39,7.39,0,0,1-1.08,4,.89.89,0,0,1-.76-.46l.1-.44c-.53-.24-1.15-.28-1.59.66C342,186.36,342.61,182,349.15,182Z"
         transform="translate(-184.49 -121.47)"
         id="path615" />
    </g>
    <g
       id="g651">
      <path
         class="cls-34"
         d="M326.41,227.88c5.3.78,5.3,2.05,0,2.83a78.15,78.15,0,0,1-19.21,0c-5.3-.78-5.3-2.05,0-2.83a79.14,79.14,0,0,1,19.21,0"
         transform="translate(-184.49 -121.47)"
         id="path619" />
      <path
         class="cls-3"
         d="M317.29,217.7c-2.1,0-6.69-3.83-6.69-6.72,0-.78.74-.94,1.45-1.1,1.15-.25,2.45-.53,2.59-2.82.05-.77.49-.94.85-.94a3.06,3.06,0,0,1,1,.24,1.82,1.82,0,0,0,1.66,0,3.06,3.06,0,0,1,1-.24c.36,0,.79.17.84.94.15,2.29,1.4,2.54,2.5,2.77.69.14,1.4.28,1.4,1.07,0,2.92-4.49,6.8-6.54,6.8"
         transform="translate(-184.49 -121.47)"
         id="path621" />
      <path
         class="cls-4"
         d="M315.49,206.65c-.13,0-.29,0-.32.45-.17,2.68-1.88,3.05-3,3.3-.75.16-1,.25-1,.58,0,2.53,4.33,6.2,6.17,6.2s6-3.72,6-6.28c0-.31-.22-.4-1-.56a3.07,3.07,0,0,1-2.91-3.24c0-.45-.2-.45-.32-.45a2.91,2.91,0,0,0-.8.2,2.2,2.2,0,0,1-2,0,2.91,2.91,0,0,0-.8-.2"
         transform="translate(-184.49 -121.47)"
         id="path623" />
      <path
         class="cls-3"
         d="M311.22,203.58A1.9,1.9,0,0,1,310.1,202a2.49,2.49,0,0,1,0-.47,2,2,0,0,1,.25-1,1.11,1.11,0,0,1,.74-.56h.33c.77-2.94,3.09-5.1,5.87-5.1s5.1,2.16,5.87,5.09h.29a1.13,1.13,0,0,1,.74.56,2.08,2.08,0,0,1,.25,1,2.49,2.49,0,0,1,0,.47,1.94,1.94,0,0,1-1.07,1.53c-.55,3.32-3,5.85-6,5.85s-5.47-2.52-6-5.83"
         transform="translate(-184.49 -121.47)"
         id="path625" />
      <path
         class="cls-4"
         d="M322.88,203.36l0-.15.15,0a1.49,1.49,0,0,0,.88-1.23,2.56,2.56,0,0,0,0-.39,1.6,1.6,0,0,0-.19-.8.67.67,0,0,0-.44-.35l0-.21,0,.21h-.08l-.21,0-.23.09-.06-.24c-.68-2.89-2.9-5-5.5-5s-4.82,2.09-5.5,5l-.06.25-.24-.1a.53.53,0,0,0-.24-.06h-.08a.67.67,0,0,0-.44.35,1.6,1.6,0,0,0-.19.8,1.71,1.71,0,0,0,0,.39,1.44,1.44,0,0,0,.92,1.24l.15,0,0,.16c.49,3.21,2.84,5.61,5.62,5.61s5.14-2.4,5.63-5.62"
         transform="translate(-184.49 -121.47)"
         id="path627" />
      <path
         class="cls-5"
         d="M319.72,200.82a.53.53,0,1,1-1,0,.54.54,0,1,1,1,0Z"
         transform="translate(-184.49 -121.47)"
         id="path629" />
      <path
         class="cls-5"
         d="M315.83,200.82a.54.54,0,1,1-1.05,0,.54.54,0,1,1,1.05,0Z"
         transform="translate(-184.49 -121.47)"
         id="path631" />
      <path
         class="cls-5"
         d="M319.16,205.05a4.19,4.19,0,0,1-2,.46,4.1,4.1,0,0,1-2-.47.21.21,0,0,0-.29.08.22.22,0,0,0,.08.29,4.81,4.81,0,0,0,4.33,0,.22.22,0,0,0,.09-.29A.21.21,0,0,0,319.16,205.05Z"
         transform="translate(-184.49 -121.47)"
         id="path633" />
      <path
         class="cls-5"
         d="M318.06,203a1.18,1.18,0,0,1-.82.37,1.16,1.16,0,0,1-.84-.39.21.21,0,0,0-.3.28,1.51,1.51,0,0,0,1.14.52,1.55,1.55,0,0,0,1.12-.49.21.21,0,0,0,0-.3A.2.2,0,0,0,318.06,203Z"
         transform="translate(-184.49 -121.47)"
         id="path635" />
      <path
         class="cls-35"
         d="M312.84,199.44a10.64,10.64,0,0,1,1.58-2.7c1.63,2,7,1.63,7,1.63l.29,1.62c0,1.06.21,1.3.74,1.22.25,0,.38-.26.33-.68,0-.77.94-.55,1.18-.22a7.38,7.38,0,0,0-2.36-7.25c-2.95-2.27-6.32-1.89-8.26-.17-2.81.48-3.86,5-3.24,8.09.39-1.37,1.64-1.15,1.56-.42s.38.72.55.73C312.78,201.29,312.55,200.26,312.84,199.44Z"
         transform="translate(-184.49 -121.47)"
         id="path637" />
      <path
         class="cls-36"
         d="M317.77,229.14h-1c-6.88,0-9.89-1.7-11.21-3.12a4.2,4.2,0,0,1-1.19-3.25c0-.05,0-.13,0-.24.24-4.14,1-9.41,3.17-11a7.44,7.44,0,0,1,3.05-1.43L311,210a2.54,2.54,0,0,0,1.76-.87.59.59,0,0,1,.45-.23c.33,0,.57.28,1,.75a14.54,14.54,0,0,0,2.15,2.2l.1.09a1.31,1.31,0,0,0,.77.38A1.26,1.26,0,0,0,318,212l.11-.09a14.77,14.77,0,0,0,2.13-2.18c.42-.49.67-.77,1-.77a.62.62,0,0,1,.46.23,2.52,2.52,0,0,0,1.75.87l.46.07a7.32,7.32,0,0,1,3.05,1.43c2.18,1.59,2.93,6.86,3.18,11,0,.11,0,.19,0,.24A4.17,4.17,0,0,1,329,226c-1.31,1.43-4.32,3.12-11.21,3.12"
         transform="translate(-184.49 -121.47)"
         id="path639" />
      <path
         class="cls-37"
         d="M317.25,228.65h.52c6.71,0,9.6-1.61,10.85-3a3.7,3.7,0,0,0,1.06-2.88c0-.05,0-.13,0-.25-.34-5.7-1.4-9.48-3-10.63a6.63,6.63,0,0,0-2.85-1.34,4.14,4.14,0,0,0-.44-.08,3,3,0,0,1-2-1,.27.27,0,0,0-.11-.08c-.1,0-.36.31-.6.58a15.53,15.53,0,0,1-2.22,2.27l-.1.08a1.45,1.45,0,0,1-2.17,0l-.09-.08a15.26,15.26,0,0,1-2.2-2.25c-.26-.29-.53-.6-.63-.6s0,0-.1.08a3,3,0,0,1-2,1,3.73,3.73,0,0,0-.44.08,6.71,6.71,0,0,0-2.86,1.34c-1.58,1.15-2.63,4.93-3,10.63,0,.12,0,.2,0,.25a3.71,3.71,0,0,0,1.07,2.88c1.24,1.35,4.13,3,10.84,3h.51"
         transform="translate(-184.49 -121.47)"
         id="path641" />
      <path
         class="cls-38"
         d="M317.25,213.53c.48,0,.83.87,1.08,1.41l-.75,1.27c.71-.55.75,12.17.75,12.17h-2.15s0-12.72.74-12.17l-.74-1.27c.25-.54.59-1.41,1.07-1.41"
         transform="translate(-184.49 -121.47)"
         id="path643" />
      <path
         class="cls-39"
         d="M319.15,215.59h0a.83.83,0,0,1-.6-.41,3,3,0,0,1-.26-.45c-.17-.32-.61-1.16-.86-1.16h-.35c-.25,0-.7.84-.86,1.16a4.3,4.3,0,0,1-.26.45.84.84,0,0,1-.61.41.79.79,0,0,1-.59-.36,12.11,12.11,0,0,1-1.05-2,11.07,11.07,0,0,0-1.08-2,.25.25,0,0,1,0-.35.24.24,0,0,1,.35,0,10.68,10.68,0,0,1,1.16,2.13,10.63,10.63,0,0,0,1,1.87c.14.17.19.18.19.18s.07,0,.22-.21a3.35,3.35,0,0,0,.22-.39c.33-.63.75-1.42,1.29-1.42h.36c.55,0,1,.79,1.29,1.42a3.35,3.35,0,0,0,.22.39c.16.2.22.21.22.21s.06,0,.2-.18a12.18,12.18,0,0,0,1-1.87,10.68,10.68,0,0,1,1.16-2.13.23.23,0,0,1,.34,0,.24.24,0,0,1,0,.35,10.42,10.42,0,0,0-1.09,2,11.38,11.38,0,0,1-1,2A.79.79,0,0,1,319.15,215.59Z"
         transform="translate(-184.49 -121.47)"
         id="path645" />
      <path
         class="cls-40"
         d="M309.5,211a6.9,6.9,0,0,0-1.59.91c-1.29.9-2.09,3.34-2.51,5.62a44.26,44.26,0,0,0-.55,5.28,2.81,2.81,0,0,0,0,.29,4.35,4.35,0,0,0,2.51,3.71,10.34,10.34,0,0,0,2.15.93Z"
         transform="translate(-184.49 -121.47)"
         id="path647" />
      <path
         class="cls-41"
         d="M325.07,211a6.9,6.9,0,0,1,1.59.91c1.29.9,2.09,3.34,2.51,5.62a44.26,44.26,0,0,1,.55,5.28,2.81,2.81,0,0,1,0,.29c0,1.25-.66,2.62-2.52,3.71a10,10,0,0,1-2.14.93Z"
         transform="translate(-184.49 -121.47)"
         id="path649" />
    </g>
    <g
       id="g683">
      <path
         class="cls-42"
         d="M377.25,218c6.2,0,8.85-2.26,9.3-4.58.14-.69-1.29-.12-1.36-2.26a14.08,14.08,0,0,1,.38-3.37c1-6.71-3.74-10.78-8.32-10.78s-8.42,5.09-8.31,10.78a12.86,12.86,0,0,0,.67,5C370.2,214.34,371.05,218,377.25,218Z"
         transform="translate(-184.49 -121.47)"
         id="path653" />
      <path
         class="cls-43"
         d="M377.44,213.21c-.88,0-2.35-1.17-2.44.26-.27,4.11-4.14,2.46-4.14,4,0,2.81,4.65,6.61,6.58,6.61s6.42-3.88,6.42-6.69c0-1.54-3.72.2-4-3.91C379.78,212,378.31,213.21,377.44,213.21Z"
         transform="translate(-184.49 -121.47)"
         id="path655" />
      <path
         class="cls-44"
         d="M385.3,235.18c4.48.66,4.48,1.73,0,2.39a65.78,65.78,0,0,1-16.23,0c-4.48-.66-4.48-1.73,0-2.39a66.77,66.77,0,0,1,16.23,0"
         transform="translate(-184.49 -121.47)"
         id="path657" />
      <path
         class="cls-5"
         d="M377.44,224.6c-2.15,0-6.85-3.92-6.85-6.87,0-.8.76-1,1.49-1.12,1.17-.26,2.5-.55,2.65-2.89,0-.79.5-1,.86-1a3.23,3.23,0,0,1,1,.24,3.18,3.18,0,0,0,.85.21,3.12,3.12,0,0,0,.84-.21,3.23,3.23,0,0,1,1-.24c.36,0,.81.17.86,1,.15,2.34,1.43,2.6,2.55,2.83.71.14,1.44.29,1.44,1.1,0,3-4.59,6.95-6.69,6.95m-1.85-11.3c-.12,0-.29,0-.33.46-.17,2.74-1.92,3.12-3.07,3.37-.77.17-1.06.26-1.06.6,0,2.59,4.43,6.34,6.31,6.34s6.15-3.8,6.15-6.42c0-.32-.22-.41-1-.57a3.15,3.15,0,0,1-3-3.32c0-.46-.19-.46-.32-.46a2.68,2.68,0,0,0-.82.21,3.67,3.67,0,0,1-1,.24,3.59,3.59,0,0,1-1-.24,2.8,2.8,0,0,0-.83-.21"
         transform="translate(-184.49 -121.47)"
         id="path659" />
      <path
         class="cls-45"
         d="M368.44,218.2a3.84,3.84,0,0,0-.44.32c-1.27,1-2,3.36-2.46,5.54a38.18,38.18,0,0,0-.53,4.56c0,.1,0,.21,0,.31a4.84,4.84,0,0,0,2.46,4.06,14.37,14.37,0,0,0,5.35,1.86c-3.1-.8-6.57-3.74-4.95-9.33A15.72,15.72,0,0,0,368.44,218.2Z"
         transform="translate(-184.49 -121.47)"
         id="path661" />
      <path
         class="cls-46"
         d="M382.75,216.84a9.65,9.65,0,0,1,4.19,1.6c2.71,2.17,3,9.54,3.07,10.26.22,3-2.5,6.81-12.65,6.67-10.15.14-12.87-3.69-12.65-6.67.06-.72.36-8.09,3.08-10.26a10.41,10.41,0,0,1,4.18-1.6c0,.2-.42,3.8,5.32,6.28C383.47,220.41,382.75,216.84,382.75,216.84Z"
         transform="translate(-184.49 -121.47)"
         id="path663" />
      <path
         class="cls-47"
         d="M377.87,235.64h-1c-6.64,0-9.66-1.74-11-3.21a4.93,4.93,0,0,1-1.39-3.75l0-.18c.18-3,.84-8.42,3.16-10.28a10.82,10.82,0,0,1,4.32-1.65l.32,0,0,.32c-.05.63,0,3.73,5.05,6,5.77-2.58,5.2-5.91,5.19-5.94l-.07-.39.39.07a10,10,0,0,1,4.31,1.65c2.31,1.86,3,7.24,3.16,10.28v.18a4.88,4.88,0,0,1-1.38,3.75c-1.37,1.46-4.39,3.21-11,3.21m-.51-.54h.51c6.45,0,9.34-1.66,10.63-3.05a4.36,4.36,0,0,0,1.24-3.34v-.19c-.32-5.1-1.37-8.61-3-9.89a9,9,0,0,0-3.72-1.47c0,1-.46,3.92-5.65,6.2l-.11,0-.11,0c-4.9-2.13-5.46-5.11-5.48-6.22a10.22,10.22,0,0,0-3.75,1.49c-1.59,1.28-2.64,4.8-3,9.89v.19a4.33,4.33,0,0,0,1.24,3.34c1.29,1.39,4.18,3.05,10.63,3.05h.51"
         transform="translate(-184.49 -121.47)"
         id="path665" />
      <path
         class="cls-48"
         d="M386.43,218.29a3.84,3.84,0,0,1,.44.32c1.27,1,2,3.36,2.46,5.54a36.23,36.23,0,0,1,.53,4.56c0,.1,0,.21,0,.31a4.82,4.82,0,0,1-2.46,4.06,14.43,14.43,0,0,1-5.35,1.86c3.1-.8,6.57-3.74,4.95-9.33A15.72,15.72,0,0,1,386.43,218.29Z"
         transform="translate(-184.49 -121.47)"
         id="path667" />
      <path
         class="cls-49"
         d="M368.45,218.28l-.44.32c-1.27,1-2,3.36-2.45,5.54a37.1,37.1,0,0,0-.54,4.56c0,.1,0,.21,0,.31a4.82,4.82,0,0,0,2.46,4.06,14.43,14.43,0,0,0,5.35,1.86c-3.1-.8-6.57-3.74-4.95-9.33A15.72,15.72,0,0,0,368.45,218.28Z"
         transform="translate(-184.49 -121.47)"
         id="path669" />
      <path
         class="cls-50"
         d="M383.88,205.63a.76.76,0,0,0-.42,0h0c-3.63-.56-3-2.9-3-2.9-2.45,2.81-8.87,2.92-8.87,2.92a.76.76,0,0,0-.47-.06c-.61.11-1,.94-.8,1.86a1.69,1.69,0,0,0,1.14,1.48c.52,3.43,3,6,6.09,6s5.57-2.61,6.08-6a1.75,1.75,0,0,0,1.1-1.47C384.85,206.57,384.49,205.74,383.88,205.63Z"
         transform="translate(-184.49 -121.47)"
         id="path671" />
      <path
         class="cls-5"
         d="M383.37,208.93l0-.16.16,0a1.53,1.53,0,0,0,.91-1.29,1.81,1.81,0,0,0,0-.4,1.7,1.7,0,0,0-.2-.83.7.7,0,0,0-.46-.37l0-.22,0,.22h-.09a.51.51,0,0,0-.2,0l-.25.09-.12-.51.45-.07h.29a1.14,1.14,0,0,1,.77.58,2.07,2.07,0,0,1,.27,1.07,3.88,3.88,0,0,1,0,.48,2.06,2.06,0,0,1-1.12,1.61c-.58,3.45-3.15,6.09-6.29,6.09s-5.71-2.63-6.29-6.08a2,2,0,0,1-1.17-1.62,2.59,2.59,0,0,1,0-.48,2.17,2.17,0,0,1,.26-1.07,1.16,1.16,0,0,1,.77-.58h.34a1.44,1.44,0,0,1,.44.14l-.11.47-.25-.11a.59.59,0,0,0-.25-.05h-.09a.66.66,0,0,0-.45.37,1.5,1.5,0,0,0-.2.83,2.69,2.69,0,0,0,0,.4c.13.74.58,1.25,1,1.29l.16,0,0,.17c.51,3.34,3,5.84,5.86,5.84S382.86,212.28,383.37,208.93Z"
         transform="translate(-184.49 -121.47)"
         id="path673" />
      <path
         class="cls-5"
         d="M380.05,206.67a.56.56,0,1,1-.55-.7A.63.63,0,0,1,380.05,206.67Z"
         transform="translate(-184.49 -121.47)"
         id="path675" />
      <path
         class="cls-5"
         d="M376,206.67a.63.63,0,0,1-.54.69.72.72,0,1,1,.54-.69Z"
         transform="translate(-184.49 -121.47)"
         id="path677" />
      <path
         class="cls-5"
         d="M375.16,211.46a.22.22,0,0,1-.09-.31.23.23,0,0,1,.31-.09,4.28,4.28,0,0,0,2.05.48,4.35,4.35,0,0,0,2-.47.23.23,0,0,1,.22.4,4.7,4.7,0,0,1-2.25.53A4.76,4.76,0,0,1,375.16,211.46Z"
         transform="translate(-184.49 -121.47)"
         id="path679" />
      <path
         class="cls-5"
         d="M377.46,209.81a1.65,1.65,0,0,1-1.2-.55.23.23,0,0,1,0-.32.24.24,0,0,1,.33,0,1.13,1.13,0,0,0,1.71,0h0a.23.23,0,1,1,.32.32,1.6,1.6,0,0,1-1.17.52Z"
         transform="translate(-184.49 -121.47)"
         id="path681" />
    </g>
    <g
       id="g689">
      <path
         class="cls-51"
         d="M238.75,153c20.94-21.5,63.08-1.49,63.08-22.4"
         transform="translate(-184.49 -121.47)"
         id="path685" />
      <polygon
         points="55.97 32.45 52.37 33.47 53.29 29.84 55.97 32.45"
         id="polygon687" />
    </g>
    <g
       id="g695">
      <path
         class="cls-51"
         d="M364.92,153c-20.94-21.5-63.09-1.49-63.09-22.4"
         transform="translate(-184.49 -121.47)"
         id="path691" />
      <polygon
         points="181.37 29.86 182.29 33.48 178.69 32.47 181.37 29.86"
         id="polygon693" />
    </g>
    <text
       class="cls-52"
       id="text697"
       x="98.987961"
       y="6.9059658">Corrisponde!</text>
    <text
       class="cls-17"
       id="text555-3"
       x="212.78087"
       y="41.243561"
       style="font-size:7px;font-family:ArialMT, Arial;text-align:center;text-anchor:middle"><tspan
         sodipodi:role="line"
         id="tspan861-6"
         x="212.78087"
         y="41.243561">Compro per</tspan><tspan
         sodipodi:role="line"
         id="tspan863-7"
         x="212.78087"
         y="49.993561">$1,005.00</tspan></text>
    <text
       xml:space="preserve"
       style="font-weight:bold;font-size:9px;font-family:Humanist521BT-BoldCondensed, 'Humanst521 Cn BT';-inkscape-font-specification:'Humanist521BT-BoldCondensed, Humanst521 Cn BT Bold';text-align:center;text-anchor:middle;fill:#000000"
       x="167.20982"
       y="31.088911"
       id="text992"><tspan
         sodipodi:role="line"
         id="tspan990"></tspan></text>
  </g>
</svg>
